  0
SECTION
  2
HEADER
  9
$ACADVER
  1
AC1015
  9
$ACADMAINTVER
 70
6
  9
$DWGCODEPAGE
  3
ANSI_1252
  9
$TDCREATE
 40
2459448.6870601852
  9
$TDUPDATE
 40
2459448.6870717593
  9
$HANDSEED
  5
102AC
  9
$INSUNITS
 70
4
  9
$FINGERPRINTGUID
  2
2D65C972-028C-11EC-AC6F-406C8F433790
  9
$VERSIONGUID
  2
2DE56CD6-028C-11EC-AC6F-406C8F433790
  0
ENDSEC
  0
SECTION
  2
CLASSES
  0
CLASS
  1
ACDBDICTIONARYWDFLT
  2
AcDbDictionaryWithDefault
  3
ObjectDBX Classes
 90
0
280
0
281
0
  0
CLASS
  1
SUN
  2
AcDbSun
  3
SCENEOE
 90
1153
280
0
281
0
  0
CLASS
  1
VISUALSTYLE
  2
AcDbVisualStyle
  3
ObjectDBX Classes
 90
4095
280
0
281
0
  0
CLASS
  1
MATERIAL
  2
AcDbMaterial
  3
ObjectDBX Classes
 90
1153
280
0
281
0
  0
CLASS
  1
SCALE
  2
AcDbScale
  3
ObjectDBX Classes
 90
1153
280
0
281
0
  0
CLASS
  1
TABLESTYLE
  2
AcDbTableStyle
  3
ObjectDBX Classes
 90
4095
280
0
281
0
  0
CLASS
  1
MLEADERSTYLE
  2
AcDbMLeaderStyle
  3
ACDB_MLEADERSTYLE_CLASS
 90
4095
280
0
281
0
  0
CLASS
  1
DICTIONARYVAR
  2
AcDbDictionaryVar
  3
ObjectDBX Classes
 90
0
280
0
281
0
  0
CLASS
  1
CELLSTYLEMAP
  2
AcDbCellStyleMap
  3
ObjectDBX Classes
 90
1152
280
0
281
0
  0
CLASS
  1
MENTALRAYRENDERSETTINGS
  2
AcDbMentalRayRenderSettings
  3
SCENEOE
 90
1024
280
0
281
0
  0
CLASS
  1
ACDBDETAILVIEWSTYLE
  2
AcDbDetailViewStyle
  3
ObjectDBX Classes
 90
1025
280
0
281
0
  0
CLASS
  1
ACDBSECTIONVIEWSTYLE
  2
AcDbSectionViewStyle
  3
ObjectDBX Classes
 90
1025
280
0
281
0
  0
CLASS
  1
RASTERVARIABLES
  2
AcDbRasterVariables
  3
ISM
 90
0
280
0
281
0
  0
CLASS
  1
ACDBPLACEHOLDER
  2
AcDbPlaceHolder
  3
ObjectDBX Classes
 90
0
280
0
281
0
  0
CLASS
  1
LAYOUT
  2
AcDbLayout
  3
ObjectDBX Classes
 90
0
280
0
281
0
  0
ENDSEC
  0
SECTION
  2
TABLES
  0
TABLE
  2
VPORT
  5
8
330
0
100
AcDbSymbolTable
 70
1
  0
VPORT
  5
1006A
330
8
100
AcDbSymbolTableRecord
100
AcDbViewportTableRecord
  2
*Active
 70
0
 10
0.0
 20
0.0
 11
1.0
 21
1.0
 12
70.0
 22
50.0
 13
0.0
 23
0.0
 14
0.5
 24
0.5
 15
0.5
 25
0.5
 16
0.0
 26
0.0
 36
1.0
 17
0.0
 27
0.0
 37
0.0
 40
1.0
 41
1.34
 42
50.0
 43
0.0
 44
0.0
 50
0.0
 51
0.0
 71
0
 72
1000
 73
1
 74
3
 75
0
 76
0
 77
0
 78
0
281
0
 65
0
146
0.0
  0
ENDTAB
  0
TABLE
  2
LTYPE
  5
5
330
0
100
AcDbSymbolTable
 70
3
  0
LTYPE
  5
1006B
330
5
100
AcDbSymbolTableRecord
100
AcDbLinetypeTableRecord
  2
Continuous
 70
0
  3

 72
65
 73
0
 40
0.0
  0
ENDTAB
  0
TABLE
  2
LAYER
  5
2
330
0
100
AcDbSymbolTable
 70
2
  0
LAYER
  5
50
330
2
100
AcDbSymbolTableRecord
100
AcDbLayerTableRecord
  2
0
 70
0
 62
7
  6
CONTINUOUS
370
-3
390
10060
  0
LAYER
  5
1006C
330
2
100
AcDbSymbolTableRecord
100
AcDbLayerTableRecord
  2
Defpoints
 70
0
 62
7
  6
Continuous
290
0
370
-3
390
10060
  0
ENDTAB
  0
TABLE
  2
STYLE
  5
3
330
0
100
AcDbSymbolTable
 70
1
  0
STYLE
  5
11
330
3
100
AcDbSymbolTableRecord
100
AcDbTextStyleTableRecord
  2
STANDARD
 70
0
 40
0.0
 41
1.0
 50
0.0
 71
0
 42
2.5
  3
txt
  4

  0
ENDTAB
  0
TABLE
  2
VIEW
  5
6
330
0
100
AcDbSymbolTable
 70
0
  0
ENDTAB
  0
TABLE
  2
UCS
  5
7
330
0
100
AcDbSymbolTable
 70
0
  0
ENDTAB
  0
TABLE
  2
APPID
  5
9
330
0
100
AcDbSymbolTable
 70
2
  0
APPID
  5
12
330
9
100
AcDbSymbolTableRecord
100
AcDbRegAppTableRecord
  2
ACAD
 70
0
  0
APPID
  5
102AB
330
9
100
AcDbSymbolTableRecord
100
AcDbRegAppTableRecord
  2
HATCHBACKGROUNDCOLOR
 70
0
  0
ENDTAB
  0
TABLE
  2
DIMSTYLE
  5
A
330
0
100
AcDbSymbolTable
 70
1
100
AcDbDimStyleTable
  0
DIMSTYLE
105
1006D
330
A
100
AcDbSymbolTableRecord
100
AcDbDimStyleTableRecord
  2
Standard
 70
0
  3

  4

 40
1.0
 41
2.5
 42
0.625
 43
3.75
 44
1.25
 45
0.0
 46
0.0
 47
0.0
 48
0.0
140
2.5
141
2.5
142
0.0
143
0.03937007874
144
1.0
145
0.0
146
1.0
147
0.625
148
0.0
 71
0
 72
0
 73
0
 74
0
 75
0
 76
0
 77
1
 78
8
 79
0
170
0
171
3
172
1
173
0
174
0
175
0
176
0
177
0
178
0
179
0
271
0
272
2
273
2
274
3
275
0
276
0
277
2
278
44
279
0
280
0
281
0
282
0
283
0
284
8
285
0
286
0
288
0
289
3
371
-2
372
-2
  0
ENDTAB
  0
TABLE
  2
BLOCK_RECORD
  5
1
330
0
100
AcDbSymbolTable
 70
22
  0
BLOCK_RECORD
  5
1F
330
1
100
AcDbSymbolTableRecord
100
AcDbBlockTableRecord
  2
*MODEL_SPACE
340
10064
  0
BLOCK_RECORD
  5
1B
330
1
100
AcDbSymbolTableRecord
100
AcDbBlockTableRecord
  2
*PAPER_SPACE
340
10065
  0
BLOCK_RECORD
  5
FFFF
330
1
100
AcDbSymbolTableRecord
100
AcDbBlockTableRecord
  2
_CLOSEDFILLED
340
0
  0
BLOCK_RECORD
  5
10003
330
1
100
AcDbSymbolTableRecord
100
AcDbBlockTableRecord
  2
_DOT
340
0
  0
BLOCK_RECORD
  5
10008
330
1
100
AcDbSymbolTableRecord
100
AcDbBlockTableRecord
  2
_CLOSEDBLANK
340
0
  0
BLOCK_RECORD
  5
1000C
330
1
100
AcDbSymbolTableRecord
100
AcDbBlockTableRecord
  2
_ARCHTICK
340
0
  0
BLOCK_RECORD
  5
10010
330
1
100
AcDbSymbolTableRecord
100
AcDbBlockTableRecord
  2
_DOTSMALL
340
0
  0
BLOCK_RECORD
  5
10014
330
1
100
AcDbSymbolTableRecord
100
AcDbBlockTableRecord
  2
_BOXBLANK
340
0
  0
BLOCK_RECORD
  5
10019
330
1
100
AcDbSymbolTableRecord
100
AcDbBlockTableRecord
  2
_ORIGIN
340
0
  0
BLOCK_RECORD
  5
1001E
330
1
100
AcDbSymbolTableRecord
100
AcDbBlockTableRecord
  2
_OBLIQUE
340
0
  0
BLOCK_RECORD
  5
10022
330
1
100
AcDbSymbolTableRecord
100
AcDbBlockTableRecord
  2
_DATUMFILLED
340
0
  0
BLOCK_RECORD
  5
10026
330
1
100
AcDbSymbolTableRecord
100
AcDbBlockTableRecord
  2
_ORIGIN2
340
0
  0
BLOCK_RECORD
  5
1002C
330
1
100
AcDbSymbolTableRecord
100
AcDbBlockTableRecord
  2
_OPEN30
340
0
  0
BLOCK_RECORD
  5
10031
330
1
100
AcDbSymbolTableRecord
100
AcDbBlockTableRecord
  2
_OPEN90
340
0
  0
BLOCK_RECORD
  5
10036
330
1
100
AcDbSymbolTableRecord
100
AcDbBlockTableRecord
  2
_OPEN
340
0
  0
BLOCK_RECORD
  5
1003B
330
1
100
AcDbSymbolTableRecord
100
AcDbBlockTableRecord
  2
_SMALL
340
0
  0
BLOCK_RECORD
  5
1003F
330
1
100
AcDbSymbolTableRecord
100
AcDbBlockTableRecord
  2
_NONE
340
0
  0
BLOCK_RECORD
  5
10042
330
1
100
AcDbSymbolTableRecord
100
AcDbBlockTableRecord
  2
_INTEGRAL
340
0
  0
BLOCK_RECORD
  5
10047
330
1
100
AcDbSymbolTableRecord
100
AcDbBlockTableRecord
  2
_DOTBLANK
340
0
  0
BLOCK_RECORD
  5
1004C
330
1
100
AcDbSymbolTableRecord
100
AcDbBlockTableRecord
  2
_DATUMBLANK
340
0
  0
BLOCK_RECORD
  5
10050
330
1
100
AcDbSymbolTableRecord
100
AcDbBlockTableRecord
  2
_CLOSED
340
0
  0
BLOCK_RECORD
  5
10055
330
1
100
AcDbSymbolTableRecord
100
AcDbBlockTableRecord
  2
_BOXFILLED
340
0
  0
ENDTAB
  0
ENDSEC
  0
SECTION
  2
BLOCKS
  0
BLOCK
  5
20
330
1F
100
AcDbEntity
  8
0
100
AcDbBlockBegin
  2
*MODEL_SPACE
 70
0
 10
0.0
 20
0.0
 30
0.0
  3
*MODEL_SPACE
  1

  0
ENDBLK
  5
21
330
1F
100
AcDbEntity
  8
0
100
AcDbBlockEnd
  0
BLOCK
  5
1C
330
1B
100
AcDbEntity
  8
0
100
AcDbBlockBegin
  2
*PAPER_SPACE
 70
0
 10
0.0
 20
0.0
 30
0.0
  3
*PAPER_SPACE
  1

  0
ENDBLK
  5
1D
330
1B
100
AcDbEntity
  8
0
100
AcDbBlockEnd
  0
BLOCK
  5
10000
330
FFFF
100
AcDbEntity
  8
0
100
AcDbBlockBegin
  2
_CLOSEDFILLED
 70
0
 10
0.0
 20
0.0
 30
0.0
  3
_CLOSEDFILLED
  1

  0
SOLID
  5
10002
330
FFFF
100
AcDbEntity
  8
0
  6
BYBLOCK
 62
0
100
AcDbTrace
 10
-1.0
 20
0.1643989837240255
 30
0.0
 11
0.0
 21
0.0
 31
0.0
 12
-1.0
 22
-0.1643989837240255
 32
0.0
 13
-1.0
 23
-0.1643989837240255
 33
0.0
  0
ENDBLK
  5
10001
330
FFFF
100
AcDbEntity
  8
0
100
AcDbBlockEnd
  0
BLOCK
  5
10004
330
10003
100
AcDbEntity
  8
0
100
AcDbBlockBegin
  2
_DOT
 70
0
 10
0.0
 20
0.0
 30
0.0
  3
_DOT
  1

  0
LINE
  5
10006
330
10003
100
AcDbEntity
  8
0
  6
BYBLOCK
 62
0
100
AcDbLine
 10
-0.5
 20
6.123233995736766e-17
 30
0.0
 11
-1.0
 21
1.2246467991473532e-16
 31
0.0
  0
LWPOLYLINE
  5
10007
330
10003
100
AcDbEntity
  8
0
  6
BYBLOCK
 62
0
100
AcDbPolyline
 90
2
 70
1
 43
0.5
 10
-0.25
 20
0.0
 42
1.0
 10
0.25
 20
0.0
 42
1.0
  0
ENDBLK
  5
10005
330
10003
100
AcDbEntity
  8
0
100
AcDbBlockEnd
  0
BLOCK
  5
10009
330
10008
100
AcDbEntity
  8
0
100
AcDbBlockBegin
  2
_CLOSEDBLANK
 70
0
 10
0.0
 20
0.0
 30
0.0
  3
_CLOSEDBLANK
  1

  0
LWPOLYLINE
  5
1000B
330
10008
100
AcDbEntity
  8
0
  6
BYBLOCK
 62
0
100
AcDbPolyline
 90
3
 70
1
 10
-1.0
 20
0.1643989837240255
 10
0.0
 20
0.0
 10
-1.0
 20
-0.1643989837240255
  0
ENDBLK
  5
1000A
330
10008
100
AcDbEntity
  8
0
100
AcDbBlockEnd
  0
BLOCK
  5
1000D
330
1000C
100
AcDbEntity
  8
0
100
AcDbBlockBegin
  2
_ARCHTICK
 70
0
 10
0.0
 20
0.0
 30
0.0
  3
_ARCHTICK
  1

  0
LWPOLYLINE
  5
1000F
330
1000C
100
AcDbEntity
  8
0
  6
BYBLOCK
 62
0
100
AcDbPolyline
 90
2
 70
0
 43
0.15
 10
-0.5
 20
-0.5000000000000001
 10
0.5000000000000001
 20
0.5
  0
ENDBLK
  5
1000E
330
1000C
100
AcDbEntity
  8
0
100
AcDbBlockEnd
  0
BLOCK
  5
10011
330
10010
100
AcDbEntity
  8
0
100
AcDbBlockBegin
  2
_DOTSMALL
 70
0
 10
0.0
 20
0.0
 30
0.0
  3
_DOTSMALL
  1

  0
LWPOLYLINE
  5
10013
330
10010
100
AcDbEntity
  8
0
  6
BYBLOCK
 62
0
100
AcDbPolyline
 90
2
 70
1
 43
0.125
 10
-0.0625
 20
0.0
 42
1.0
 10
0.0625
 20
0.0
 42
1.0
  0
ENDBLK
  5
10012
330
10010
100
AcDbEntity
  8
0
100
AcDbBlockEnd
  0
BLOCK
  5
10015
330
10014
100
AcDbEntity
  8
0
100
AcDbBlockBegin
  2
_BOXBLANK
 70
0
 10
0.0
 20
0.0
 30
0.0
  3
_BOXBLANK
  1

  0
LWPOLYLINE
  5
10017
330
10014
100
AcDbEntity
  8
0
  6
BYBLOCK
 62
0
100
AcDbPolyline
 90
4
 70
1
 10
-0.5
 20
-0.5000000000000001
 10
0.5000000000000001
 20
-0.5
 10
0.5000000000000001
 20
0.5
 10
-0.5
 20
0.5000000000000001
  0
LINE
  5
10018
330
10014
100
AcDbEntity
  8
0
  6
BYBLOCK
 62
0
100
AcDbLine
 10
-0.5
 20
6.123233995736766e-17
 30
0.0
 11
-1.0
 21
1.2246467991473532e-16
 31
0.0
  0
ENDBLK
  5
10016
330
10014
100
AcDbEntity
  8
0
100
AcDbBlockEnd
  0
BLOCK
  5
1001A
330
10019
100
AcDbEntity
  8
0
100
AcDbBlockBegin
  2
_ORIGIN
 70
0
 10
0.0
 20
0.0
 30
0.0
  3
_ORIGIN
  1

  0
CIRCLE
  5
1001C
330
10019
100
AcDbEntity
  8
0
  6
BYBLOCK
 62
0
100
AcDbCircle
 10
0.0
 20
0.0
 30
0.0
 40
0.5
  0
LINE
  5
1001D
330
10019
100
AcDbEntity
  8
0
  6
BYBLOCK
 62
0
100
AcDbLine
 10
0.0
 20
0.0
 30
0.0
 11
-1.0
 21
1.2246467991473532e-16
 31
0.0
  0
ENDBLK
  5
1001B
330
10019
100
AcDbEntity
  8
0
100
AcDbBlockEnd
  0
BLOCK
  5
1001F
330
1001E
100
AcDbEntity
  8
0
100
AcDbBlockBegin
  2
_OBLIQUE
 70
0
 10
0.0
 20
0.0
 30
0.0
  3
_OBLIQUE
  1

  0
LINE
  5
10021
330
1001E
100
AcDbEntity
  8
0
  6
BYBLOCK
 62
0
100
AcDbLine
 10
-0.5
 20
-0.5000000000000001
 30
0.0
 11
0.5000000000000001
 21
0.5
 31
0.0
  0
ENDBLK
  5
10020
330
1001E
100
AcDbEntity
  8
0
100
AcDbBlockEnd
  0
BLOCK
  5
10023
330
10022
100
AcDbEntity
  8
0
100
AcDbBlockBegin
  2
_DATUMFILLED
 70
0
 10
0.0
 20
0.0
 30
0.0
  3
_DATUMFILLED
  1

  0
SOLID
  5
10025
330
10022
100
AcDbEntity
  8
0
  6
BYBLOCK
 62
0
100
AcDbTrace
 10
3.5352507945885664e-17
 20
0.577350269
 30
0.0
 11
3.5352507945885664e-17
 21
-0.577350269
 31
0.0
 12
-1.0
 22
1.2246467991473532e-16
 32
0.0
 13
-1.0
 23
1.2246467991473532e-16
 33
0.0
  0
ENDBLK
  5
10024
330
10022
100
AcDbEntity
  8
0
100
AcDbBlockEnd
  0
BLOCK
  5
10027
330
10026
100
AcDbEntity
  8
0
100
AcDbBlockBegin
  2
_ORIGIN2
 70
0
 10
0.0
 20
0.0
 30
0.0
  3
_ORIGIN2
  1

  0
CIRCLE
  5
10029
330
10026
100
AcDbEntity
  8
0
  6
BYBLOCK
 62
0
100
AcDbCircle
 10
0.0
 20
0.0
 30
0.0
 40
0.5
  0
CIRCLE
  5
1002A
330
10026
100
AcDbEntity
  8
0
  6
BYBLOCK
 62
0
100
AcDbCircle
 10
0.0
 20
0.0
 30
0.0
 40
0.25
  0
LINE
  5
1002B
330
10026
100
AcDbEntity
  8
0
  6
BYBLOCK
 62
0
100
AcDbLine
 10
-0.5
 20
6.123233995736766e-17
 30
0.0
 11
-1.0
 21
1.2246467991473532e-16
 31
0.0
  0
ENDBLK
  5
10028
330
10026
100
AcDbEntity
  8
0
100
AcDbBlockEnd
  0
BLOCK
  5
1002D
330
1002C
100
AcDbEntity
  8
0
100
AcDbBlockBegin
  2
_OPEN30
 70
0
 10
0.0
 20
0.0
 30
0.0
  3
_OPEN30
  1

  0
LWPOLYLINE
  5
1002F
330
1002C
100
AcDbEntity
  8
0
  6
BYBLOCK
 62
0
100
AcDbPolyline
 90
3
 70
0
 10
-0.9999999999999999
 20
0.2588190451025208
 10
0.0
 20
0.0
 10
-0.9999999999999999
 20
-0.2588190451025208
  0
LINE
  5
10030
330
1002C
100
AcDbEntity
  8
0
  6
BYBLOCK
 62
0
100
AcDbLine
 10
0.0
 20
0.0
 30
0.0
 11
-1.0
 21
1.2246467991473532e-16
 31
0.0
  0
ENDBLK
  5
1002E
330
1002C
100
AcDbEntity
  8
0
100
AcDbBlockEnd
  0
BLOCK
  5
10032
330
10031
100
AcDbEntity
  8
0
100
AcDbBlockBegin
  2
_OPEN90
 70
0
 10
0.0
 20
0.0
 30
0.0
  3
_OPEN90
  1

  0
LWPOLYLINE
  5
10034
330
10031
100
AcDbEntity
  8
0
  6
BYBLOCK
 62
0
100
AcDbPolyline
 90
3
 70
0
 10
-0.9999999999999998
 20
0.7071067811865476
 10
0.0
 20
0.0
 10
-0.9999999999999998
 20
-0.7071067811865476
  0
LINE
  5
10035
330
10031
100
AcDbEntity
  8
0
  6
BYBLOCK
 62
0
100
AcDbLine
 10
0.0
 20
0.0
 30
0.0
 11
-1.0
 21
1.2246467991473532e-16
 31
0.0
  0
ENDBLK
  5
10033
330
10031
100
AcDbEntity
  8
0
100
AcDbBlockEnd
  0
BLOCK
  5
10037
330
10036
100
AcDbEntity
  8
0
100
AcDbBlockBegin
  2
_OPEN
 70
0
 10
0.0
 20
0.0
 30
0.0
  3
_OPEN
  1

  0
LWPOLYLINE
  5
10039
330
10036
100
AcDbEntity
  8
0
  6
BYBLOCK
 62
0
100
AcDbPolyline
 90
3
 70
0
 10
-1.0
 20
0.1643989837240255
 10
0.0
 20
0.0
 10
-1.0
 20
-0.1643989837240255
  0
LINE
  5
1003A
330
10036
100
AcDbEntity
  8
0
  6
BYBLOCK
 62
0
100
AcDbLine
 10
0.0
 20
0.0
 30
0.0
 11
-1.0
 21
1.2246467991473532e-16
 31
0.0
  0
ENDBLK
  5
10038
330
10036
100
AcDbEntity
  8
0
100
AcDbBlockEnd
  0
BLOCK
  5
1003C
330
1003B
100
AcDbEntity
  8
0
100
AcDbBlockBegin
  2
_SMALL
 70
0
 10
0.0
 20
0.0
 30
0.0
  3
_SMALL
  1

  0
CIRCLE
  5
1003E
330
1003B
100
AcDbEntity
  8
0
  6
BYBLOCK
 62
0
100
AcDbCircle
 10
0.0
 20
0.0
 30
0.0
 40
0.25
  0
ENDBLK
  5
1003D
330
1003B
100
AcDbEntity
  8
0
100
AcDbBlockEnd
  0
BLOCK
  5
10040
330
1003F
100
AcDbEntity
  8
0
100
AcDbBlockBegin
  2
_NONE
 70
0
 10
0.0
 20
0.0
 30
0.0
  3
_NONE
  1

  0
ENDBLK
  5
10041
330
1003F
100
AcDbEntity
  8
0
100
AcDbBlockEnd
  0
BLOCK
  5
10043
330
10042
100
AcDbEntity
  8
0
100
AcDbBlockBegin
  2
_INTEGRAL
 70
0
 10
0.0
 20
0.0
 30
0.0
  3
_INTEGRAL
  1

  0
ARC
  5
10045
330
10042
100
AcDbEntity
  8
0
  6
BYBLOCK
 62
0
100
AcDbCircle
 10
-0.3535534
 20
4.329780396376638e-17
 30
0.0
 40
0.3535534
100
AcDbArc
 50
-90.0
 51
0.0
  0
ARC
  5
10046
330
10042
100
AcDbEntity
  8
0
  6
BYBLOCK
 62
0
100
AcDbCircle
 10
0.3535534
 20
0.0
 30
0.0
 40
0.3535534
100
AcDbArc
 50
90.0
 51
180.0
  0
ENDBLK
  5
10044
330
10042
100
AcDbEntity
  8
0
100
AcDbBlockEnd
  0
BLOCK
  5
10048
330
10047
100
AcDbEntity
  8
0
100
AcDbBlockBegin
  2
_DOTBLANK
 70
0
 10
0.0
 20
0.0
 30
0.0
  3
_DOTBLANK
  1

  0
CIRCLE
  5
1004A
330
10047
100
AcDbEntity
  8
0
  6
BYBLOCK
 62
0
100
AcDbCircle
 10
0.0
 20
0.0
 30
0.0
 40
0.5
  0
LINE
  5
1004B
330
10047
100
AcDbEntity
  8
0
  6
BYBLOCK
 62
0
100
AcDbLine
 10
-0.5
 20
6.123233995736766e-17
 30
0.0
 11
-1.0
 21
1.2246467991473532e-16
 31
0.0
  0
ENDBLK
  5
10049
330
10047
100
AcDbEntity
  8
0
100
AcDbBlockEnd
  0
BLOCK
  5
1004D
330
1004C
100
AcDbEntity
  8
0
100
AcDbBlockBegin
  2
_DATUMBLANK
 70
0
 10
0.0
 20
0.0
 30
0.0
  3
_DATUMBLANK
  1

  0
LWPOLYLINE
  5
1004F
330
1004C
100
AcDbEntity
  8
0
  6
BYBLOCK
 62
0
100
AcDbPolyline
 90
3
 70
1
 10
3.5352507945885664e-17
 20
0.577350269
 10
3.5352507945885664e-17
 20
-0.577350269
 10
-1.0
 20
1.2246467991473532e-16
  0
ENDBLK
  5
1004E
330
1004C
100
AcDbEntity
  8
0
100
AcDbBlockEnd
  0
BLOCK
  5
10051
330
10050
100
AcDbEntity
  8
0
100
AcDbBlockBegin
  2
_CLOSED
 70
0
 10
0.0
 20
0.0
 30
0.0
  3
_CLOSED
  1

  0
LWPOLYLINE
  5
10053
330
10050
100
AcDbEntity
  8
0
  6
BYBLOCK
 62
0
100
AcDbPolyline
 90
3
 70
1
 10
-1.0
 20
0.1643989837240255
 10
0.0
 20
0.0
 10
-1.0
 20
-0.1643989837240255
  0
LINE
  5
10054
330
10050
100
AcDbEntity
  8
0
  6
BYBLOCK
 62
0
100
AcDbLine
 10
0.0
 20
0.0
 30
0.0
 11
-1.0
 21
0.0
 31
0.0
  0
ENDBLK
  5
10052
330
10050
100
AcDbEntity
  8
0
100
AcDbBlockEnd
  0
BLOCK
  5
10056
330
10055
100
AcDbEntity
  8
0
100
AcDbBlockBegin
  2
_BOXFILLED
 70
0
 10
0.0
 20
0.0
 30
0.0
  3
_BOXFILLED
  1

  0
SOLID
  5
10058
330
10055
100
AcDbEntity
  8
0
  6
BYBLOCK
 62
0
100
AcDbTrace
 10
-0.5
 20
-0.5000000000000001
 30
0.0
 11
0.5000000000000001
 21
-0.5
 31
0.0
 12
-0.5
 22
0.5000000000000001
 32
0.0
 13
0.5000000000000001
 23
0.5
 33
0.0
  0
LINE
  5
10059
330
10055
100
AcDbEntity
  8
0
  6
BYBLOCK
 62
0
100
AcDbLine
 10
-0.5
 20
6.123233995736766e-17
 30
0.0
 11
-1.0
 21
1.2246467991473532e-16
 31
0.0
  0
ENDBLK
  5
10057
330
10055
100
AcDbEntity
  8
0
100
AcDbBlockEnd
  0
ENDSEC
  0
SECTION
  2
ENTITIES
  0
LINE
  5
100
330
1F
100
AcDbEntity
  8
0
100
AcDbLine
 10
20.268529940525255
 20
21.150000000000002
 30
0.0
 11
18.418529940525268
 21
21.149999999999984
 31
0.0
  0
LINE
  5
101
330
1F
100
AcDbEntity
  8
0
100
AcDbLine
 10
18.418529940525268
 20
21.149999999999984
 30
0.0
 11
18.418529940525445
 21
25.150000000000006
 31
0.0
  0
LINE
  5
102
330
1F
100
AcDbEntity
  8
0
100
AcDbLine
 10
18.418529940525445
 20
25.150000000000006
 30
0.0
 11
10.0
 21
25.150000000000006
 31
0.0
  0
LINE
  5
103
330
1F
100
AcDbEntity
  8
0
100
AcDbLine
 10
10.0
 20
25.150000000000006
 30
0.0
 11
10.0
 21
0.0
 31
0.0
  0
LINE
  5
104
330
1F
100
AcDbEntity
  8
0
100
AcDbLine
 10
10.0
 20
0.0
 30
0.0
 11
18.41852994052566
 21
0.0
 31
0.0
  0
LINE
  5
105
330
1F
100
AcDbEntity
  8
0
100
AcDbLine
 10
18.41852994052566
 20
0.0
 30
0.0
 11
18.418529940525232
 21
3.999999999999986
 31
0.0
  0
LINE
  5
106
330
1F
100
AcDbEntity
  8
0
100
AcDbLine
 10
18.418529940525232
 20
3.999999999999986
 30
0.0
 11
20.26852994052522
 21
4.0000000000000036
 31
0.0
  0
LINE
  5
107
330
1F
100
AcDbEntity
  8
0
100
AcDbLine
 10
20.26852994052522
 20
4.0000000000000036
 30
0.0
 11
20.26852994052568
 21
0.0
 31
0.0
  0
LINE
  5
108
330
1F
100
AcDbEntity
  8
0
100
AcDbLine
 10
20.26852994052568
 20
0.0
 30
0.0
 11
28.418529940525232
 21
0.0
 31
0.0
  0
LINE
  5
109
330
1F
100
AcDbEntity
  8
0
100
AcDbLine
 10
28.418529940525232
 20
0.0
 30
0.0
 11
28.418529940525268
 21
4.0000000000000036
 31
0.0
  0
LINE
  5
110
330
1F
100
AcDbEntity
  8
0
100
AcDbLine
 10
28.418529940525268
 20
4.0000000000000036
 30
0.0
 11
30.268529940525255
 21
4.0000000000000036
 31
0.0
  0
LINE
  5
111
330
1F
100
AcDbEntity
  8
0
100
AcDbLine
 10
30.268529940525255
 20
4.0000000000000036
 30
0.0
 11
30.268529940525255
 21
0.0
 31
0.0
  0
LINE
  5
112
330
1F
100
AcDbEntity
  8
0
100
AcDbLine
 10
30.268529940525255
 20
0.0
 30
0.0
 11
98.82129391718138
 21
0.0
 31
0.0
  0
LINE
  5
113
330
1F
100
AcDbEntity
  8
0
100
AcDbLine
 10
98.82129391718138
 20
0.0
 30
0.0
 11
98.82129391718138
 21
4.0000000000000036
 31
0.0
  0
LINE
  5
114
330
1F
100
AcDbEntity
  8
0
100
AcDbLine
 10
98.82129391718138
 20
4.0000000000000036
 30
0.0
 11
100.6712939171814
 21
4.0000000000000036
 31
0.0
  0
LINE
  5
115
330
1F
100
AcDbEntity
  8
0
100
AcDbLine
 10
100.6712939171814
 20
4.0000000000000036
 30
0.0
 11
100.6712939171814
 21
0.0
 31
0.0
  0
LINE
  5
116
330
1F
100
AcDbEntity
  8
0
100
AcDbLine
 10
100.6712939171814
 20
0.0
 30
0.0
 11
105.8212939171814
 21
0.0
 31
0.0
  0
LINE
  5
117
330
1F
100
AcDbEntity
  8
0
100
AcDbLine
 10
105.8212939171814
 20
0.0
 30
0.0
 11
105.8212939171814
 21
25.150000000000006
 31
0.0
  0
LINE
  5
118
330
1F
100
AcDbEntity
  8
0
100
AcDbLine
 10
105.8212939171814
 20
25.150000000000006
 30
0.0
 11
100.6712939171814
 21
25.150000000000006
 31
0.0
  0
LINE
  5
119
330
1F
100
AcDbEntity
  8
0
100
AcDbLine
 10
100.6712939171814
 20
25.150000000000006
 30
0.0
 11
100.6712939171814
 21
21.150000000000002
 31
0.0
  0
LINE
  5
120
330
1F
100
AcDbEntity
  8
0
100
AcDbLine
 10
100.6712939171814
 20
21.150000000000002
 30
0.0
 11
98.82129391718138
 21
21.150000000000002
 31
0.0
  0
LINE
  5
121
330
1F
100
AcDbEntity
  8
0
100
AcDbLine
 10
98.82129391718138
 20
21.150000000000002
 30
0.0
 11
98.82129391718138
 21
25.150000000000006
 31
0.0
  0
LINE
  5
122
330
1F
100
AcDbEntity
  8
0
100
AcDbLine
 10
98.82129391718138
 20
25.150000000000006
 30
0.0
 11
30.268529940525255
 21
25.150000000000006
 31
0.0
  0
LINE
  5
123
330
1F
100
AcDbEntity
  8
0
100
AcDbLine
 10
30.268529940525255
 20
25.150000000000006
 30
0.0
 11
30.268529940525255
 21
21.150000000000002
 31
0.0
  0
LINE
  5
124
330
1F
100
AcDbEntity
  8
0
100
AcDbLine
 10
30.268529940525255
 20
21.150000000000002
 30
0.0
 11
28.418529940525268
 21
21.150000000000002
 31
0.0
  0
LINE
  5
125
330
1F
100
AcDbEntity
  8
0
100
AcDbLine
 10
28.418529940525268
 20
21.150000000000002
 30
0.0
 11
28.418529940525268
 21
25.150000000000006
 31
0.0
  0
LINE
  5
126
330
1F
100
AcDbEntity
  8
0
100
AcDbLine
 10
28.418529940525268
 20
25.150000000000006
 30
0.0
 11
20.268529940525433
 21
25.150000000000006
 31
0.0
  0
LINE
  5
127
330
1F
100
AcDbEntity
  8
0
100
AcDbLine
 10
20.268529940525433
 20
25.150000000000006
 30
0.0
 11
20.268529940525255
 21
21.150000000000002
 31
0.0
  0
LINE
  5
1006F
330
1F
100
AcDbEntity
  8
0
100
AcDbLine
 10
145.14999999999986
 20
396.29999999999984
 30
0.0
 11
145.14999999999986
 21
400.29999999999984
 31
0.0
  0
LINE
  5
10070
330
1F
100
AcDbEntity
  8
0
100
AcDbLine
 10
145.14999999999986
 20
400.29999999999984
 30
0.0
 11
81.57529688859711
 21
400.29999999999984
 31
0.0
  0
LINE
  5
10071
330
1F
100
AcDbEntity
  8
0
100
AcDbLine
 10
81.57529688859711
 20
400.29999999999984
 30
0.0
 11
81.57529688859711
 21
396.29999999999984
 31
0.0
  0
LINE
  5
10072
330
1F
100
AcDbEntity
  8
0
100
AcDbLine
 10
81.57529688859711
 20
396.29999999999984
 30
0.0
 11
79.72529688859694
 21
396.29999999999984
 31
0.0
  0
LINE
  5
10073
330
1F
100
AcDbEntity
  8
0
100
AcDbLine
 10
79.72529688859694
 20
396.29999999999984
 30
0.0
 11
79.72529688859694
 21
400.29999999999984
 31
0.0
  0
LINE
  5
10074
330
1F
100
AcDbEntity
  8
0
100
AcDbLine
 10
79.72529688859694
 20
400.29999999999984
 30
0.0
 11
71.57529688859711
 21
400.29999999999984
 31
0.0
  0
LINE
  5
10075
330
1F
100
AcDbEntity
  8
0
100
AcDbLine
 10
71.57529688859711
 20
400.29999999999984
 30
0.0
 11
71.57529688859711
 21
396.29999999999984
 31
0.0
  0
LINE
  5
10076
330
1F
100
AcDbEntity
  8
0
100
AcDbLine
 10
71.57529688859711
 20
396.29999999999984
 30
0.0
 11
69.72529688859694
 21
396.29999999999984
 31
0.0
  0
LINE
  5
10077
330
1F
100
AcDbEntity
  8
0
100
AcDbLine
 10
69.72529688859694
 20
396.29999999999984
 30
0.0
 11
69.72529688859694
 21
400.29999999999984
 31
0.0
  0
LINE
  5
10078
330
1F
100
AcDbEntity
  8
0
100
AcDbLine
 10
69.72529688859694
 20
400.29999999999984
 30
0.0
 11
25.0
 21
400.29999999999984
 31
0.0
  0
LINE
  5
10079
330
1F
100
AcDbEntity
  8
0
100
AcDbLine
 10
25.0
 20
400.29999999999984
 30
0.0
 11
25.0
 21
396.29999999999984
 31
0.0
  0
LINE
  5
1007A
330
1F
100
AcDbEntity
  8
0
100
AcDbLine
 10
25.0
 20
396.29999999999984
 30
0.0
 11
23.149999999999835
 21
396.29999999999984
 31
0.0
  0
LINE
  5
1007B
330
1F
100
AcDbEntity
  8
0
100
AcDbLine
 10
23.149999999999835
 20
396.29999999999984
 30
0.0
 11
23.149999999999835
 21
400.29999999999984
 31
0.0
  0
LINE
  5
1007C
330
1F
100
AcDbEntity
  8
0
100
AcDbLine
 10
23.149999999999835
 20
400.29999999999984
 30
0.0
 11
10.0
 21
400.29999999999984
 31
0.0
  0
LINE
  5
1007D
330
1F
100
AcDbEntity
  8
0
100
AcDbLine
 10
10.0
 20
400.29999999999984
 30
0.0
 11
10.0
 21
375.15
 31
0.0
  0
LINE
  5
1007E
330
1F
100
AcDbEntity
  8
0
100
AcDbLine
 10
10.0
 20
375.15
 30
0.0
 11
23.149999999999835
 21
375.15
 31
0.0
  0
LINE
  5
1007F
330
1F
100
AcDbEntity
  8
0
100
AcDbLine
 10
23.149999999999835
 20
375.15
 30
0.0
 11
23.149999999999835
 21
379.15
 31
0.0
  0
LINE
  5
10080
330
1F
100
AcDbEntity
  8
0
100
AcDbLine
 10
23.149999999999835
 20
379.15
 30
0.0
 11
25.0
 21
379.15
 31
0.0
  0
LINE
  5
10081
330
1F
100
AcDbEntity
  8
0
100
AcDbLine
 10
25.0
 20
379.15
 30
0.0
 11
25.0
 21
375.15
 31
0.0
  0
LINE
  5
10082
330
1F
100
AcDbEntity
  8
0
100
AcDbLine
 10
25.0
 20
375.15
 30
0.0
 11
69.72529688859694
 21
375.15
 31
0.0
  0
LINE
  5
10083
330
1F
100
AcDbEntity
  8
0
100
AcDbLine
 10
69.72529688859694
 20
375.15
 30
0.0
 11
69.72529688859694
 21
379.15
 31
0.0
  0
LINE
  5
10084
330
1F
100
AcDbEntity
  8
0
100
AcDbLine
 10
69.72529688859694
 20
379.15
 30
0.0
 11
71.57529688859711
 21
379.15
 31
0.0
  0
LINE
  5
10085
330
1F
100
AcDbEntity
  8
0
100
AcDbLine
 10
71.57529688859711
 20
379.15
 30
0.0
 11
71.57529688859711
 21
375.15
 31
0.0
  0
LINE
  5
10086
330
1F
100
AcDbEntity
  8
0
100
AcDbLine
 10
71.57529688859711
 20
375.15
 30
0.0
 11
79.72529688859694
 21
375.15
 31
0.0
  0
LINE
  5
10087
330
1F
100
AcDbEntity
  8
0
100
AcDbLine
 10
79.72529688859694
 20
375.15
 30
0.0
 11
79.72529688859694
 21
379.15
 31
0.0
  0
LINE
  5
10088
330
1F
100
AcDbEntity
  8
0
100
AcDbLine
 10
79.72529688859694
 20
379.15
 30
0.0
 11
81.57529688859711
 21
379.15
 31
0.0
  0
LINE
  5
10089
330
1F
100
AcDbEntity
  8
0
100
AcDbLine
 10
81.57529688859711
 20
379.15
 30
0.0
 11
81.57529688859711
 21
375.15
 31
0.0
  0
LINE
  5
1008A
330
1F
100
AcDbEntity
  8
0
100
AcDbLine
 10
81.57529688859711
 20
375.15
 30
0.0
 11
145.14999999999986
 21
375.15
 31
0.0
  0
LINE
  5
1008B
330
1F
100
AcDbEntity
  8
0
100
AcDbLine
 10
145.14999999999986
 20
375.15
 30
0.0
 11
145.14999999999986
 21
379.15
 31
0.0
  0
LINE
  5
1008C
330
1F
100
AcDbEntity
  8
0
100
AcDbLine
 10
145.14999999999986
 20
379.15
 30
0.0
 11
147.00000000000003
 21
379.15
 31
0.0
  0
LINE
  5
1008D
330
1F
100
AcDbEntity
  8
0
100
AcDbLine
 10
147.00000000000003
 20
379.15
 30
0.0
 11
147.00000000000003
 21
375.15
 31
0.0
  0
LINE
  5
1008E
330
1F
100
AcDbEntity
  8
0
100
AcDbLine
 10
147.00000000000003
 20
375.15
 30
0.0
 11
160.14999999999986
 21
375.15
 31
0.0
  0
LINE
  5
1008F
330
1F
100
AcDbEntity
  8
0
100
AcDbLine
 10
160.14999999999986
 20
375.15
 30
0.0
 11
160.14999999999986
 21
400.29999999999984
 31
0.0
  0
LINE
  5
10090
330
1F
100
AcDbEntity
  8
0
100
AcDbLine
 10
160.14999999999986
 20
400.29999999999984
 30
0.0
 11
147.00000000000003
 21
400.29999999999984
 31
0.0
  0
LINE
  5
10091
330
1F
100
AcDbEntity
  8
0
100
AcDbLine
 10
147.00000000000003
 20
400.29999999999984
 30
0.0
 11
147.00000000000003
 21
396.29999999999984
 31
0.0
  0
LINE
  5
10092
330
1F
100
AcDbEntity
  8
0
100
AcDbLine
 10
147.00000000000003
 20
396.29999999999984
 30
0.0
 11
145.14999999999986
 21
396.29999999999984
 31
0.0
  0
CIRCLE
  5
10093
330
1F
100
AcDbEntity
  8
0
100
AcDbCircle
 10
107.10993996394802
 20
816.7894652047157
 30
3.907985046680551e-13
 40
3.9250000000000007
  0
LINE
  5
10094
330
1F
100
AcDbEntity
  8
0
100
AcDbLine
 10
83.31475493884906
 20
785.1499999999997
 30
0.0
 11
58.074999999999996
 21
785.1499999999997
 31
0.0
  0
ARC
  5
10095
330
1F
100
AcDbEntity
  8
0
100
AcDbCircle
 10
58.07500000000001
 20
793.0749999999997
 30
0.0
 40
7.925000000000048
100
AcDbArc
 50
90.0
 51
-90.00000000000001
  0
LINE
  5
10096
330
1F
100
AcDbEntity
  8
0
100
AcDbLine
 10
58.07500000000001
 20
800.9999999999998
 30
0.0
 11
83.3141556001957
 21
800.9999999999998
 31
0.0
  0
ARC
  5
10097
330
1F
100
AcDbEntity
  8
0
100
AcDbCircle
 10
94.12365407831184
 20
767.6583188866965
 30
0.0
 40
35.05014916957702
100
AcDbArc
 50
72.03711070445492
 51
107.96288929554498
  0
LINE
  5
10098
330
1F
100
AcDbEntity
  8
0
100
AcDbLine
 10
104.93315255642804
 20
800.9999999999998
 30
0.0
 11
106.87
 21
800.9999999999998
 31
0.0
  0
LINE
  5
10099
330
1F
100
AcDbEntity
  8
0
100
AcDbLine
 10
106.87
 20
800.9999999999998
 30
0.0
 11
106.87
 21
797.1499999999997
 31
0.0
  0
LINE
  5
1009A
330
1F
100
AcDbEntity
  8
0
100
AcDbLine
 10
106.87
 20
797.1499999999997
 30
0.0
 11
104.87
 21
797.1499999999997
 31
0.0
  0
LINE
  5
1009B
330
1F
100
AcDbEntity
  8
0
100
AcDbLine
 10
104.87
 20
797.1499999999997
 30
0.0
 11
104.87
 21
788.9999999999998
 31
0.0
  0
LINE
  5
1009C
330
1F
100
AcDbEntity
  8
0
100
AcDbLine
 10
104.87
 20
788.9999999999998
 30
0.0
 11
106.87
 21
788.9999999999998
 31
0.0
  0
LINE
  5
1009D
330
1F
100
AcDbEntity
  8
0
100
AcDbLine
 10
106.87
 20
788.9999999999998
 30
0.0
 11
106.87
 21
785.1499999999997
 31
0.0
  0
LINE
  5
1009E
330
1F
100
AcDbEntity
  8
0
100
AcDbLine
 10
106.87
 20
785.1499999999997
 30
0.0
 11
104.93255321777463
 21
785.1499999999997
 31
0.0
  0
ARC
  5
1009F
330
1F
100
AcDbEntity
  8
0
100
AcDbCircle
 10
94.12365407831186
 20
816.7991794435599
 30
0.0
 40
33.44402577528235
100
AcDbArc
 50
-108.85617798786083
 51
-71.1438220121393
  0
LINE
  5
100A0
330
1F
100
AcDbEntity
  8
0
100
AcDbLine
 10
96.00000000000001
 20
758.4499999999999
 30
0.0
 11
69.07500000000002
 21
758.4499999999999
 31
0.0
  0
ARC
  5
100A1
330
1F
100
AcDbEntity
  8
0
100
AcDbCircle
 10
69.07500000000002
 20
769.4248250900572
 30
0.0
 40
10.974825090057323
100
AcDbArc
 50
-125.13834146867667
 51
-90.00000000000006
  0
LINE
  5
100A2
330
1F
100
AcDbEntity
  8
0
100
AcDbLine
 10
62.758410701950844
 20
760.4499999999999
 30
0.0
 11
58.07500000000001
 21
760.4499999999999
 31
0.0
  0
ARC
  5
100A3
330
1F
100
AcDbEntity
  8
0
100
AcDbCircle
 10
58.07500000000001
 20
769.4248250900572
 30
0.0
 40
8.974825090057328
100
AcDbArc
 50
89.9999999999999
 51
-90.00000000000011
  0
LINE
  5
100A4
330
1F
100
AcDbEntity
  8
0
100
AcDbLine
 10
58.07500000000003
 20
778.3996501801146
 30
0.0
 11
62.75841070195081
 21
778.3996501801146
 31
0.0
  0
ARC
  5
100A5
330
1F
100
AcDbEntity
  8
0
100
AcDbCircle
 10
69.07500000000002
 20
769.4248250900572
 30
0.0
 40
10.974825090057356
100
AcDbArc
 50
90.0
 51
125.13834146867674
  0
LINE
  5
100A6
330
1F
100
AcDbEntity
  8
0
100
AcDbLine
 10
69.07500000000002
 20
780.3996501801146
 30
0.0
 11
96.00000000000001
 21
780.3996501801146
 31
0.0
  0
LINE
  5
100A7
330
1F
100
AcDbEntity
  8
0
100
AcDbLine
 10
96.00000000000001
 20
780.3996501801146
 30
0.0
 11
96.00000000000001
 21
772.9176334145637
 31
0.0
  0
LINE
  5
100A8
330
1F
100
AcDbEntity
  8
0
100
AcDbLine
 10
96.00000000000001
 20
772.9176334145637
 30
0.0
 11
94.00000000000001
 21
772.9176334145637
 31
0.0
  0
LINE
  5
100A9
330
1F
100
AcDbEntity
  8
0
100
AcDbLine
 10
94.00000000000001
 20
772.9176334145637
 30
0.0
 11
94.00000000000001
 21
764.7676334145636
 31
0.0
  0
LINE
  5
100AA
330
1F
100
AcDbEntity
  8
0
100
AcDbLine
 10
94.00000000000001
 20
764.7676334145636
 30
0.0
 11
96.00000000000001
 21
764.7676334145636
 31
0.0
  0
LINE
  5
100AB
330
1F
100
AcDbEntity
  8
0
100
AcDbLine
 10
96.00000000000001
 20
764.7676334145636
 30
0.0
 11
96.00000000000001
 21
758.4499999999999
 31
0.0
  0
SPLINE
  5
100AC
330
1F
100
AcDbEntity
  8
0
100
AcDbSpline
 70
0
 71
3
 72
14
 73
10
 74
0
 42
1e-09
 40
0.17614562206776674
 40
0.17614562206776674
 40
0.17614562206776674
 40
0.17614562206776674
 40
0.17634480490882232
 40
0.17634480490882232
 40
0.17634480490882232
 40
0.4874470278342509
 40
0.4874470278342509
 40
0.4874470278342509
 40
0.4888906412142179
 40
0.4888906412142179
 40
0.4888906412142179
 40
0.4888906412142179
 10
15.999999999999979
 20
776.7073490126934
 30
0.0
 10
16.00117981934256
 20
776.703646017777
 30
0.0
 10
16.002359638685157
 20
776.6999430228606
 30
0.0
 10
16.003539458027767
 20
776.6962400279442
 30
0.0
 10
17.849841609991145
 20
770.9014142983118
 30
0.0
 10
20.930146908725703
 20
765.9839493898062
 30
0.0
 10
25.46029677055705
 20
762.1076946359186
 30
0.0
 10
25.48126832775543
 20
762.0897501747493
 30
0.0
 10
25.502239884953823
 20
762.07180571358
 30
0.0
 10
25.523211442152203
 20
762.0538612524107
 30
0.0
  0
LINE
  5
100AD
330
1F
100
AcDbEntity
  8
0
100
AcDbLine
 10
25.523211442152224
 20
762.0538612524107
 30
0.0
 11
28.940440481711924
 21
766.9540387431001
 31
0.0
  0
LINE
  5
100AE
330
1F
100
AcDbEntity
  8
0
100
AcDbLine
 10
28.940440481711924
 20
766.9540387431001
 30
0.0
 11
30.457893210440403
 21
765.8958151296447
 31
0.0
  0
LINE
  5
100AF
330
1F
100
AcDbEntity
  8
0
100
AcDbLine
 10
30.457893210440403
 20
765.8958151296447
 30
0.0
 11
26.96912662534713
 21
760.8930554981903
 31
0.0
  0
SPLINE
  5
100B0
330
1F
100
AcDbEntity
  8
0
100
AcDbSpline
 70
0
 71
3
 72
17
 73
13
 74
0
 42
1e-09
 40
0.5208727436492141
 40
0.5208727436492141
 40
0.5208727436492141
 40
0.5208727436492141
 40
0.5221110217195426
 40
0.5221110217195426
 40
0.5221110217195426
 40
0.9036145591389985
 40
0.9036145591389985
 40
0.9036145591389985
 40
1.0
 40
1.0
 40
1.0
 40
1.0000589129462774
 40
1.0000589129462774
 40
1.0000589129462774
 40
1.0000589129462774
 10
26.96912662534713
 20
760.8930554981903
 30
0.0
 10
26.988356290606745
 20
760.878552039804
 30
0.0
 10
27.007585955866297
 20
760.8640485814178
 30
0.0
 10
27.02681562112584
 20
760.8495451230316
 30
0.0
 10
32.964519458189855
 20
756.3711915298582
 30
0.0
 10
40.995585979211384
 20
753.4013509370326
 30
0.0
 10
50.53878543579234
 20
751.5176737740086
 30
0.0
 10
52.94983906079633
 20
751.0417697888819
 30
0.0
 10
55.45943336627327
 20
750.6366230946237
 30
0.0
 10
58.06540910146737
 20
750.3006157633274
 30
0.0
 10
58.06700099559278
 20
750.300410508885
 30
0.0
 10
58.06859288971817
 20
750.3002052544424
 30
0.0
 10
58.07018478384347
 20
750.2999999999998
 30
0.0
  0
LINE
  5
100B1
330
1F
100
AcDbEntity
  8
0
100
AcDbLine
 10
58.070184783843466
 20
750.2999999999998
 30
0.0
 11
96.07270137528002
 21
750.2999999999998
 31
0.0
  0
SPLINE
  5
100B2
330
1F
100
AcDbEntity
  8
0
100
AcDbSpline
 70
0
 71
3
 72
20
 73
16
 74
0
 42
1e-09
 40
7.641245377848835e-05
 40
7.641245377848835e-05
 40
7.641245377848835e-05
 40
7.641245377848835e-05
 40
0.2453901646358995
 40
0.2453901646358995
 40
0.2453901646358995
 40
0.5166558551732564
 40
0.5166558551732564
 40
0.5166558551732564
 40
0.795599898939578
 40
0.795599898939578
 40
0.795599898939578
 40
1.0
 40
1.0
 40
1.0
 40
1.0055020345658592
 40
1.0055020345658592
 40
1.0055020345658592
 40
1.0055020345658592
 10
96.07270137528002
 20
750.2999999999998
 30
0.0
 10
98.53330011286823
 20
750.1492024386206
 30
0.0
 10
100.5106113452965
 20
750.6294056845877
 30
0.0
 10
102.17812665106496
 20
751.3789162482823
 30
0.0
 10
104.02204973681629
 20
752.2077181349157
 30
0.0
 10
105.51850189732636
 20
753.2998932660887
 30
0.0
 10
107.03497053643744
 20
753.9370104739685
 30
0.0
 10
108.59436381466772
 20
754.5921617021503
 30
0.0
 10
110.18431905290899
 20
754.7543674388332
 30
0.0
 10
111.94017045135206
 20
754.2858570065329
 30
0.0
 10
113.22679481673734
 20
753.9425495158367
 30
0.0
 10
114.59219440032105
 20
753.2792476588866
 30
0.0
 10
116.03322262150813
 20
752.3127131583209
 30
0.0
 10
116.07214841433876
 20
752.2866046330474
 30
0.0
 10
116.11107420716938
 20
752.2604961077739
 30
0.0
 10
116.15
 20
752.2343875825004
 30
0.0
  0
LINE
  5
100B3
330
1F
100
AcDbEntity
  8
0
100
AcDbLine
 10
116.15
 20
752.2343875825004
 30
0.0
 11
116.15000000000003
 21
763.8562992704683
 31
0.0
  0
LINE
  5
100B4
330
1F
100
AcDbEntity
  8
0
100
AcDbLine
 10
116.15000000000002
 20
763.8562992704683
 30
0.0
 11
118.15000000000002
 21
763.8562992704683
 31
0.0
  0
LINE
  5
100B5
330
1F
100
AcDbEntity
  8
0
100
AcDbLine
 10
118.15000000000002
 20
763.8562992704683
 30
0.0
 11
118.15000000000002
 21
774.0062992704683
 31
0.0
  0
LINE
  5
100B6
330
1F
100
AcDbEntity
  8
0
100
AcDbLine
 10
118.15000000000002
 20
774.0062992704683
 30
0.0
 11
116.15000000000002
 21
774.0062992704683
 31
0.0
  0
LINE
  5
100B7
330
1F
100
AcDbEntity
  8
0
100
AcDbLine
 10
116.15000000000002
 20
774.0062992704683
 30
0.0
 11
116.15000000000002
 21
795.411613417676
 31
0.0
  0
LINE
  5
100B8
330
1F
100
AcDbEntity
  8
0
100
AcDbLine
 10
116.15000000000002
 20
795.411613417676
 30
0.0
 11
118.15000000000002
 21
795.411613417676
 31
0.0
  0
LINE
  5
100B9
330
1F
100
AcDbEntity
  8
0
100
AcDbLine
 10
118.15000000000002
 20
795.411613417676
 30
0.0
 11
118.15000000000002
 21
805.5616134176761
 31
0.0
  0
LINE
  5
100BA
330
1F
100
AcDbEntity
  8
0
100
AcDbLine
 10
118.15000000000002
 20
805.5616134176761
 30
0.0
 11
116.15000000000002
 21
805.5616134176761
 31
0.0
  0
LINE
  5
100BB
330
1F
100
AcDbEntity
  8
0
100
AcDbLine
 10
116.15000000000002
 20
805.5616134176761
 30
0.0
 11
116.15000000000002
 21
826.8901570024034
 31
0.0
  0
LINE
  5
100BC
330
1F
100
AcDbEntity
  8
0
100
AcDbLine
 10
116.15000000000002
 20
826.8901570024034
 30
0.0
 11
118.15000000000002
 21
826.8901570024034
 31
0.0
  0
LINE
  5
100BD
330
1F
100
AcDbEntity
  8
0
100
AcDbLine
 10
118.15000000000002
 20
826.8901570024034
 30
0.0
 11
118.15000000000002
 21
846.9923549261296
 31
0.0
  0
LINE
  5
100BE
330
1F
100
AcDbEntity
  8
0
100
AcDbLine
 10
118.15000000000002
 20
846.9923549261296
 30
0.0
 11
116.05390669841705
 21
846.9923549261296
 31
0.0
  0
SPLINE
  5
100BF
330
1F
100
AcDbEntity
  8
0
100
AcDbSpline
 70
0
 71
3
 72
17
 73
13
 74
0
 42
1e-09
 40
-1.0007783826182166
 40
-1.0007783826182166
 40
-1.0007783826182166
 40
-1.0007783826182166
 40
-1.0
 40
-1.0
 40
-1.0
 40
-0.3946745508473505
 40
-0.3946745508473505
 40
-0.3946745508473505
 40
0.0
 40
0.0
 40
0.0
 40
0.004498078275393273
 40
0.004498078275393273
 40
0.004498078275393273
 40
0.004498078275393273
 10
116.0539066984168
 20
846.9923549261295
 30
0.0
 10
116.04790636115408
 20
846.9886899121645
 30
0.0
 10
116.04190602389141
 20
846.9850248981995
 30
0.0
 10
116.03590568662874
 20
846.9813598842346
 30
0.0
 10
111.37291227073317
 20
844.1331973161117
 30
0.0
 10
107.00950488069098
 20
841.9336091165871
 30
0.0
 10
103.12542378837642
 20
840.7636363476345
 30
0.0
 10
100.59298778604116
 20
840.0008095447362
 30
0.0
 10
98.25558451627985
 20
839.6587077065803
 30
0.0
 10
96.07483366638331
 20
839.6538712656726
 30
0.0
 10
96.04988911092222
 20
839.6538159439615
 30
0.0
 10
96.02494455546113
 20
839.6537606222504
 30
0.0
 10
96.00000000000003
 20
839.6537053005394
 30
0.0
  0
LINE
  5
100C0
330
1F
100
AcDbEntity
  8
0
100
AcDbLine
 10
96.00000000000004
 20
839.6537053005394
 30
0.0
 11
96.00000000000001
 21
822.3499999999998
 31
0.0
  0
LINE
  5
100C1
330
1F
100
AcDbEntity
  8
0
100
AcDbLine
 10
96.00000000000001
 20
822.3499999999998
 30
0.0
 11
94.00000000000001
 21
822.3499999999998
 31
0.0
  0
LINE
  5
100C2
330
1F
100
AcDbEntity
  8
0
100
AcDbLine
 10
94.00000000000001
 20
822.3499999999998
 30
0.0
 11
94.00000000000001
 21
814.1999999999998
 31
0.0
  0
LINE
  5
100C3
330
1F
100
AcDbEntity
  8
0
100
AcDbLine
 10
94.00000000000001
 20
814.1999999999998
 30
0.0
 11
96.00000000000001
 21
814.1999999999998
 31
0.0
  0
LINE
  5
100C4
330
1F
100
AcDbEntity
  8
0
100
AcDbLine
 10
96.00000000000001
 20
814.1999999999998
 30
0.0
 11
96.00000000000001
 21
808.3499999999998
 31
0.0
  0
LINE
  5
100C5
330
1F
100
AcDbEntity
  8
0
100
AcDbLine
 10
96.00000000000001
 20
808.3499999999998
 30
0.0
 11
69.07500000000002
 21
808.3499999999998
 31
0.0
  0
ARC
  5
100C6
330
1F
100
AcDbEntity
  8
0
100
AcDbCircle
 10
69.07500000000007
 20
818.275
 30
0.0
 40
9.92500000000012
100
AcDbArc
 50
-127.01397811652475
 51
-90.00000000000043
  0
LINE
  5
100C7
330
1F
100
AcDbEntity
  8
0
100
AcDbLine
 10
63.10005230148419
 20
810.3499999999998
 30
0.0
 11
58.07500000000006
 21
810.3499999999998
 31
0.0
  0
ARC
  5
100C8
330
1F
100
AcDbEntity
  8
0
100
AcDbCircle
 10
58.075000000000045
 20
818.2749999999997
 30
0.0
 40
7.924999999999964
100
AcDbArc
 50
179.35034670539764
 51
-89.99999999999996
  0
SPLINE
  5
100C9
330
1F
100
AcDbEntity
  8
0
100
AcDbSpline
 70
0
 71
3
 72
17
 73
13
 74
0
 42
1e-09
 40
-1.0021780055373164
 40
-1.0021780055373164
 40
-1.0021780055373164
 40
-1.0021780055373164
 40
-1.0
 40
-1.0
 40
-1.0
 40
-0.5212028546237748
 40
-0.5212028546237748
 40
-0.5212028546237748
 40
-0.04240570924754958
 40
-0.04240570924754958
 40
-0.04240570924754958
 40
-0.04231749333864762
 40
-0.04231749333864762
 40
-0.04231749333864762
 40
-0.04231749333864762
 10
50.15050942780807
 20
818.3648563923178
 30
0.0
 10
50.12089486319374
 20
818.35950597185
 30
0.0
 10
50.091280298579406
 20
818.3541555513822
 30
0.0
 10
50.06166573396508
 20
818.3488051309143
 30
0.0
 10
43.561627067168715
 20
817.1744525656255
 30
0.0
 10
37.76025983763127
 20
817.46069299731
 30
0.0
 10
32.91083071997053
 20
819.7425925775243
 30
0.0
 10
28.06140160230978
 20
822.0244921577385
 30
0.0
 10
24.171872973513707
 20
826.3448019669921
 30
0.0
 10
20.974673157080183
 20
832.142867221941
 30
0.0
 10
20.974083179045877
 20
832.1439371366596
 30
0.0
 10
20.973493201011557
 20
832.1450070513781
 30
0.0
 10
20.972903222976974
 20
832.1460769660972
 30
0.0
  0
ARC
  5
100CA
330
1F
100
AcDbEntity
  8
0
100
AcDbCircle
 10
17.90113919079078
 20
830.0395677880617
 30
0.0
 40
3.7246630970573187
100
AcDbArc
 50
34.440977291299795
 51
87.29717447492439
  0
LINE
  5
100CB
330
1F
100
AcDbEntity
  8
0
100
AcDbLine
 10
18.076778325961946
 20
833.7600873862867
 30
0.0
 11
17.725500055619463
 21
833.7600873862867
 31
0.0
  0
ARC
  5
100CC
330
1F
100
AcDbEntity
  8
0
100
AcDbCircle
 10
17.90113919079078
 20
830.0395677880617
 30
0.0
 40
3.7246630970572197
100
AcDbArc
 50
92.70282552507788
 51
120.6917499039646
  0
LINE
  5
100CD
330
1F
100
AcDbEntity
  8
0
100
AcDbLine
 10
16.00000000000005
 20
833.2425015937811
 30
0.0
 11
16.000000000000014
 21
825.7147557670708
 31
0.0
  0
LINE
  5
100CE
330
1F
100
AcDbEntity
  8
0
100
AcDbLine
 10
16.000000000000014
 20
825.7147557670708
 30
0.0
 11
10.0
 21
825.7147557670708
 31
0.0
  0
LINE
  5
100CF
330
1F
100
AcDbEntity
  8
0
100
AcDbLine
 10
10.0
 20
825.7147557670708
 30
0.0
 11
10.0
 21
821.3659759609696
 31
0.0
  0
ARC
  5
100D0
330
1F
100
AcDbEntity
  8
0
100
AcDbCircle
 10
12.074999999999996
 20
821.3659759609696
 30
0.0
 40
2.0749999999999957
100
AcDbArc
 50
180.0
 51
-90.00000000000001
  0
LINE
  5
100D1
330
1F
100
AcDbEntity
  8
0
100
AcDbLine
 10
12.074999999999996
 20
819.2909759609697
 30
0.0
 11
16.000000000000014
 21
819.2909759609697
 31
0.0
  0
LINE
  5
100D2
330
1F
100
AcDbEntity
  8
0
100
AcDbLine
 10
16.000000000000014
 20
819.2909759609697
 30
0.0
 11
16.000000000000014
 21
815.2909759609697
 31
0.0
  0
LINE
  5
100D3
330
1F
100
AcDbEntity
  8
0
100
AcDbLine
 10
16.000000000000014
 20
815.2909759609697
 30
0.0
 11
18.000000000000007
 21
815.2909759609697
 31
0.0
  0
LINE
  5
100D4
330
1F
100
AcDbEntity
  8
0
100
AcDbLine
 10
18.000000000000007
 20
815.2909759609697
 30
0.0
 11
18.000000000000007
 21
798.4409759609697
 31
0.0
  0
LINE
  5
100D5
330
1F
100
AcDbEntity
  8
0
100
AcDbLine
 10
18.000000000000007
 20
798.4409759609697
 30
0.0
 11
16.000000000000014
 21
798.4409759609697
 31
0.0
  0
LINE
  5
100D6
330
1F
100
AcDbEntity
  8
0
100
AcDbLine
 10
16.000000000000014
 20
798.4409759609697
 30
0.0
 11
16.000000000000014
 21
794.4409759609697
 31
0.0
  0
LINE
  5
100D7
330
1F
100
AcDbEntity
  8
0
100
AcDbLine
 10
16.000000000000014
 20
794.4409759609697
 30
0.0
 11
15.075000000000003
 21
794.4409759609697
 31
0.0
  0
ARC
  5
100D8
330
1F
100
AcDbEntity
  8
0
100
AcDbCircle
 10
15.075000000000003
 20
793.3659759609696
 30
0.0
 40
1.0749999999999993
100
AcDbArc
 50
90.0
 51
180.0
  0
LINE
  5
100D9
330
1F
100
AcDbEntity
  8
0
100
AcDbLine
 10
14.000000000000007
 20
793.3659759609696
 30
0.0
 11
14.000000000000007
 21
787.2909759609697
 31
0.0
  0
LINE
  5
100DA
330
1F
100
AcDbEntity
  8
0
100
AcDbLine
 10
14.000000000000007
 20
787.2909759609697
 30
0.0
 11
16.000000000000014
 21
787.2909759609697
 31
0.0
  0
LINE
  5
100DB
330
1F
100
AcDbEntity
  8
0
100
AcDbLine
 10
16.000000000000014
 20
787.2909759609697
 30
0.0
 11
15.999999999999964
 21
776.7073490126934
 31
0.0
  0
CIRCLE
  5
100DC
330
1F
100
AcDbEntity
  8
0
100
AcDbCircle
 10
107.10993996394802
 20
1263.4818201308456
 30
0.0
 40
3.9250000000000007
  0
LINE
  5
100DD
330
1F
100
AcDbEntity
  8
0
100
AcDbLine
 10
94.00000000000001
 20
1206.9923549261296
 30
0.0
 11
96.00000000000001
 21
1206.9923549261296
 31
0.0
  0
LINE
  5
100DE
330
1F
100
AcDbEntity
  8
0
100
AcDbLine
 10
96.00000000000001
 20
1206.9923549261296
 30
0.0
 11
96.00000000000001
 21
1205.1423549261297
 31
0.0
  0
LINE
  5
100DF
330
1F
100
AcDbEntity
  8
0
100
AcDbLine
 10
96.00000000000001
 20
1205.1423549261297
 30
0.0
 11
69.07500000000002
 21
1205.1423549261297
 31
0.0
  0
ARC
  5
100E0
330
1F
100
AcDbEntity
  8
0
100
AcDbCircle
 10
69.07500000000003
 20
1216.117180016187
 30
0.0
 40
10.97482509005738
100
AcDbArc
 50
-125.13834146867657
 51
-90.00000000000011
  0
LINE
  5
100E1
330
1F
100
AcDbEntity
  8
0
100
AcDbLine
 10
62.75841070195085
 20
1207.1423549261297
 30
0.0
 11
58.074999999999996
 21
1207.1423549261297
 31
0.0
  0
ARC
  5
100E2
330
1F
100
AcDbEntity
  8
0
100
AcDbCircle
 10
58.07500000000001
 20
1216.117180016187
 30
0.0
 40
8.974825090057337
100
AcDbArc
 50
89.9999999999999
 51
-90.00000000000011
  0
LINE
  5
100E3
330
1F
100
AcDbEntity
  8
0
100
AcDbLine
 10
58.07500000000003
 20
1225.0920051062444
 30
0.0
 11
62.75841070195085
 21
1225.0920051062444
 31
0.0
  0
ARC
  5
100E4
330
1F
100
AcDbEntity
  8
0
100
AcDbCircle
 10
69.07500000000003
 20
1216.117180016187
 30
0.0
 40
10.974825090057301
100
AcDbArc
 50
90.0000000000001
 51
125.1383414686768
  0
LINE
  5
100E5
330
1F
100
AcDbEntity
  8
0
100
AcDbLine
 10
69.07500000000002
 20
1227.0920051062444
 30
0.0
 11
96.00000000000001
 21
1227.0920051062444
 31
0.0
  0
LINE
  5
100E6
330
1F
100
AcDbEntity
  8
0
100
AcDbLine
 10
96.00000000000001
 20
1227.0920051062444
 30
0.0
 11
96.00000000000001
 21
1225.1270558733706
 31
0.0
  0
LINE
  5
100E7
330
1F
100
AcDbEntity
  8
0
100
AcDbLine
 10
96.00000000000001
 20
1225.1270558733706
 30
0.0
 11
94.00000000000001
 21
1225.1270558733706
 31
0.0
  0
LINE
  5
100E8
330
1F
100
AcDbEntity
  8
0
100
AcDbLine
 10
94.00000000000001
 20
1225.1270558733706
 30
0.0
 11
94.00000000000001
 21
1220.4599883406934
 31
0.0
  0
LINE
  5
100E9
330
1F
100
AcDbEntity
  8
0
100
AcDbLine
 10
94.00000000000001
 20
1220.4599883406934
 30
0.0
 11
96.00000000000001
 21
1220.4599883406934
 31
0.0
  0
LINE
  5
100EA
330
1F
100
AcDbEntity
  8
0
100
AcDbLine
 10
96.00000000000001
 20
1220.4599883406934
 30
0.0
 11
96.00000000000001
 21
1210.6099883406935
 31
0.0
  0
LINE
  5
100EB
330
1F
100
AcDbEntity
  8
0
100
AcDbLine
 10
96.00000000000001
 20
1210.6099883406935
 30
0.0
 11
94.00000000000001
 21
1210.6099883406935
 31
0.0
  0
LINE
  5
100EC
330
1F
100
AcDbEntity
  8
0
100
AcDbLine
 10
94.00000000000001
 20
1210.6099883406935
 30
0.0
 11
94.00000000000001
 21
1206.9923549261296
 31
0.0
  0
LINE
  5
100ED
330
1F
100
AcDbEntity
  8
0
100
AcDbLine
 10
104.50000000000001
 20
1247.8296881669417
 30
0.0
 11
104.50000000000003
 21
1244.6923549261296
 31
0.0
  0
LINE
  5
100EE
330
1F
100
AcDbEntity
  8
0
100
AcDbLine
 10
104.50000000000003
 20
1244.6923549261296
 30
0.0
 11
106.50000000000003
 21
1244.6923549261296
 31
0.0
  0
LINE
  5
100EF
330
1F
100
AcDbEntity
  8
0
100
AcDbLine
 10
106.50000000000001
 20
1244.6923549261296
 30
0.0
 11
106.50000000000001
 21
1241.6923549261296
 31
0.0
  0
LINE
  5
100F0
330
1F
100
AcDbEntity
  8
0
100
AcDbLine
 10
106.50000000000001
 20
1241.6923549261296
 30
0.0
 11
106.87
 21
1241.6923549261296
 31
0.0
  0
LINE
  5
100F1
330
1F
100
AcDbEntity
  8
0
100
AcDbLine
 10
106.87
 20
1241.6923549261296
 30
0.0
 11
106.87
 21
1237.8423549261295
 31
0.0
  0
LINE
  5
100F2
330
1F
100
AcDbEntity
  8
0
100
AcDbLine
 10
106.87
 20
1237.8423549261295
 30
0.0
 11
106.50000000000001
 21
1237.8423549261295
 31
0.0
  0
LINE
  5
100F3
330
1F
100
AcDbEntity
  8
0
100
AcDbLine
 10
106.50000000000001
 20
1237.8423549261295
 30
0.0
 11
106.50000000000001
 21
1234.8423549261295
 31
0.0
  0
LINE
  5
100F4
330
1F
100
AcDbEntity
  8
0
100
AcDbLine
 10
106.50000000000001
 20
1234.8423549261295
 30
0.0
 11
104.50000000000001
 21
1234.8423549261295
 31
0.0
  0
LINE
  5
100F5
330
1F
100
AcDbEntity
  8
0
100
AcDbLine
 10
104.50000000000003
 20
1234.8423549261295
 30
0.0
 11
104.50000000000003
 21
1231.6979138559575
 31
0.0
  0
ARC
  5
100F6
330
1F
100
AcDbEntity
  8
0
100
AcDbCircle
 10
94.12365407831183
 20
1263.4915343696898
 30
0.0
 40
33.44402577528243
100
AcDbArc
 50
-108.85617798786068
 51
-71.92509553094244
  0
LINE
  5
100F7
330
1F
100
AcDbEntity
  8
0
100
AcDbLine
 10
83.31475493884908
 20
1231.8423549261295
 30
0.0
 11
58.07500000000001
 21
1231.8423549261295
 31
0.0
  0
ARC
  5
100F8
330
1F
100
AcDbEntity
  8
0
100
AcDbCircle
 10
58.07500000000003
 20
1239.7673549261297
 30
0.0
 40
7.925000000000048
100
AcDbArc
 50
90.00000000000013
 51
-89.99999999999991
  0
LINE
  5
100F9
330
1F
100
AcDbEntity
  8
0
100
AcDbLine
 10
58.07500000000001
 20
1247.6923549261296
 30
0.0
 11
83.3141556001957
 21
1247.6923549261296
 31
0.0
  0
ARC
  5
100FA
330
1F
100
AcDbEntity
  8
0
100
AcDbCircle
 10
94.12365407831183
 20
1214.3506738128265
 30
0.0
 40
35.050149169576976
100
AcDbArc
 50
72.77991847040116
 51
107.96288929554498
  0
SPLINE
  5
100FB
330
1F
100
AcDbEntity
  8
0
100
AcDbSpline
 70
0
 71
3
 72
17
 73
13
 74
0
 42
1e-09
 40
0.5208727436492142
 40
0.5208727436492142
 40
0.5208727436492142
 40
0.5208727436492142
 40
0.5221110217195426
 40
0.5221110217195426
 40
0.5221110217195426
 40
0.9036145591389985
 40
0.9036145591389985
 40
0.9036145591389985
 40
1.0
 40
1.0
 40
1.0
 40
1.0000589129462774
 40
1.0000589129462774
 40
1.0000589129462774
 40
1.0000589129462774
 10
26.969126625347215
 20
1207.5854104243201
 30
0.0
 10
26.988356290606767
 20
1207.5709069659338
 30
0.0
 10
27.00758595586631
 20
1207.5564035075477
 30
0.0
 10
27.02681562112584
 20
1207.5419000491613
 30
0.0
 10
32.964519458189855
 20
1203.063546455988
 30
0.0
 10
40.995585979211384
 20
1200.0937058631623
 30
0.0
 10
50.53878543579234
 20
1198.2100287001383
 30
0.0
 10
52.94983906079633
 20
1197.7341247150116
 30
0.0
 10
55.45943336627327
 20
1197.3289780207533
 30
0.0
 10
58.06540910146737
 20
1196.9929706894573
 30
0.0
 10
58.06700099559278
 20
1196.9927654350147
 30
0.0
 10
58.06859288971817
 20
1196.9925601805721
 30
0.0
 10
58.07018478384347
 20
1196.9923549261296
 30
0.0
  0
LINE
  5
100FC
330
1F
100
AcDbEntity
  8
0
100
AcDbLine
 10
58.070184783843466
 20
1196.9923549261296
 30
0.0
 11
96.07270137527999
 21
1196.9923549261296
 31
0.0
  0
SPLINE
  5
100FD
330
1F
100
AcDbEntity
  8
0
100
AcDbSpline
 70
0
 71
3
 72
20
 73
16
 74
0
 42
1e-09
 40
7.641245377728414e-05
 40
7.641245377728414e-05
 40
7.641245377728414e-05
 40
7.641245377728414e-05
 40
0.24539016463584942
 40
0.24539016463584942
 40
0.24539016463584942
 40
0.516655855173419
 40
0.516655855173419
 40
0.516655855173419
 40
0.7955998989398567
 40
0.7955998989398567
 40
0.7955998989398567
 40
1.0
 40
1.0
 40
1.0
 40
1.0055020345658594
 40
1.0055020345658594
 40
1.0055020345658594
 40
1.0055020345658594
 10
96.07270137527999
 20
1196.9923549261296
 30
0.0
 10
98.53330011286775
 20
1196.8415573647503
 30
0.0
 10
100.5106113452957
 20
1197.3217606107173
 30
0.0
 10
102.17812665106393
 20
1198.0712711744115
 30
0.0
 10
104.02204973681681
 20
1198.9000730610455
 30
0.0
 10
105.51850189732791
 20
1199.9922481922197
 30
0.0
 10
107.03497053644017
 20
1200.6293654000995
 30
0.0
 10
108.59436381467108
 20
1201.284516628281
 30
0.0
 10
110.18431905291325
 20
1201.446722364963
 30
0.0
 10
111.94017045135733
 20
1200.9782119326612
 30
0.0
 10
113.22679481674105
 20
1200.6349044419646
 30
0.0
 10
114.59219440032302
 20
1199.971602585015
 30
0.0
 10
116.03322262150813
 20
1199.0050680844506
 30
0.0
 10
116.07214841433876
 20
1198.9789595591772
 30
0.0
 10
116.11107420716938
 20
1198.9528510339037
 30
0.0
 10
116.15000000000002
 20
1198.9267425086302
 30
0.0
  0
LINE
  5
100FE
330
1F
100
AcDbEntity
  8
0
100
AcDbLine
 10
116.15000000000002
 20
1198.9267425086302
 30
0.0
 11
116.15000000000002
 21
1210.5486541965981
 31
0.0
  0
LINE
  5
100FF
330
1F
100
AcDbEntity
  8
0
100
AcDbLine
 10
116.15000000000002
 20
1210.5486541965981
 30
0.0
 11
118.15000000000002
 21
1210.5486541965981
 31
0.0
  0
LINE
  5
10100
330
1F
100
AcDbEntity
  8
0
100
AcDbLine
 10
118.15000000000002
 20
1210.5486541965981
 30
0.0
 11
118.15000000000002
 21
1220.698654196598
 31
0.0
  0
LINE
  5
10101
330
1F
100
AcDbEntity
  8
0
100
AcDbLine
 10
118.15000000000002
 20
1220.698654196598
 30
0.0
 11
116.15000000000002
 21
1220.698654196598
 31
0.0
  0
LINE
  5
10102
330
1F
100
AcDbEntity
  8
0
100
AcDbLine
 10
116.15000000000002
 20
1220.698654196598
 30
0.0
 11
116.15000000000002
 21
1242.1039683438057
 31
0.0
  0
LINE
  5
10103
330
1F
100
AcDbEntity
  8
0
100
AcDbLine
 10
116.15000000000002
 20
1242.1039683438057
 30
0.0
 11
118.15000000000002
 21
1242.1039683438057
 31
0.0
  0
LINE
  5
10104
330
1F
100
AcDbEntity
  8
0
100
AcDbLine
 10
118.15000000000002
 20
1242.1039683438057
 30
0.0
 11
118.15000000000002
 21
1252.2539683438058
 31
0.0
  0
LINE
  5
10105
330
1F
100
AcDbEntity
  8
0
100
AcDbLine
 10
118.15000000000002
 20
1252.2539683438058
 30
0.0
 11
116.15000000000002
 21
1252.2539683438058
 31
0.0
  0
LINE
  5
10106
330
1F
100
AcDbEntity
  8
0
100
AcDbLine
 10
116.15000000000002
 20
1252.2539683438058
 30
0.0
 11
116.15000000000002
 21
1273.5825119285332
 31
0.0
  0
LINE
  5
10107
330
1F
100
AcDbEntity
  8
0
100
AcDbLine
 10
116.15000000000002
 20
1273.5825119285332
 30
0.0
 11
118.15000000000002
 21
1273.5825119285332
 31
0.0
  0
LINE
  5
10108
330
1F
100
AcDbEntity
  8
0
100
AcDbLine
 10
118.15000000000002
 20
1273.5825119285332
 30
0.0
 11
118.15000000000002
 21
1293.6847098522594
 31
0.0
  0
LINE
  5
10109
330
1F
100
AcDbEntity
  8
0
100
AcDbLine
 10
118.15000000000002
 20
1293.6847098522594
 30
0.0
 11
116.05469793643977
 21
1293.6847098522594
 31
0.0
  0
SPLINE
  5
1010A
330
1F
100
AcDbEntity
  8
0
100
AcDbSpline
 70
0
 71
3
 72
20
 73
16
 74
0
 42
1e-09
 40
-1.0004915706633584
 40
-1.0004915706633584
 40
-1.0004915706633584
 40
-1.0004915706633584
 40
-1.0
 40
-1.0
 40
-1.0
 40
-0.6635625287473564
 40
-0.6635625287473564
 40
-0.6635625287473564
 40
-0.29994298417618
 40
-0.29994298417618
 40
-0.29994298417618
 40
0.0
 40
0.0
 40
0.0
 40
0.0019815588382309404
 40
0.0019815588382309404
 40
0.0019815588382309404
 40
0.0019815588382309404
 10
116.05469793643974
 20
1293.6847098522594
 30
0.0
 10
116.04885463222041
 20
1293.6812962203226
 30
0.0
 10
116.0430113280011
 20
1293.6778825883857
 30
0.0
 10
116.03716802378179
 20
1293.674468956449
 30
0.0
 10
112.04352120705319
 20
1291.3413985212487
 30
0.0
 10
108.9561443975106
 20
1290.263104750192
 30
0.0
 10
106.47039510619412
 20
1290.0107592211448
 30
0.0
 10
103.78381259842145
 20
1289.7380257292268
 30
0.0
 10
101.74985940411264
 20
1290.3625464496854
 30
0.0
 10
99.98293237433916
 20
1291.3666249077592
 30
0.0
 10
98.52542720432189
 20
1292.1948705110499
 30
0.0
 10
97.2579880040671
 20
1293.2914197820987
 30
0.0
 10
96.13156117055524
 20
1294.5849924725883
 30
0.0
 10
96.12408771181353
 20
1294.5935748872148
 30
0.0
 10
96.11661425307182
 20
1294.6021573018415
 30
0.0
 10
96.1091407943301
 20
1294.6107397164683
 30
0.0
  0
LINE
  5
1010B
330
1F
100
AcDbEntity
  8
0
100
AcDbLine
 10
96.1091407943301
 20
1294.610739716468
 30
0.0
 11
94.00000000000001
 21
1294.610739716468
 31
0.0
  0
LINE
  5
1010C
330
1F
100
AcDbEntity
  8
0
100
AcDbLine
 10
94.00000000000001
 20
1294.610739716468
 30
0.0
 11
94.00000000000001
 21
1292.174355276068
 31
0.0
  0
LINE
  5
1010D
330
1F
100
AcDbEntity
  8
0
100
AcDbLine
 10
94.00000000000001
 20
1292.174355276068
 30
0.0
 11
96.00000000000001
 21
1292.174355276068
 31
0.0
  0
LINE
  5
1010E
330
1F
100
AcDbEntity
  8
0
100
AcDbLine
 10
96.00000000000001
 20
1292.174355276068
 30
0.0
 11
96.00000000000001
 21
1282.3243552760678
 31
0.0
  0
LINE
  5
1010F
330
1F
100
AcDbEntity
  8
0
100
AcDbLine
 10
96.00000000000001
 20
1282.3243552760678
 30
0.0
 11
94.00000000000001
 21
1282.3243552760678
 31
0.0
  0
LINE
  5
10110
330
1F
100
AcDbEntity
  8
0
100
AcDbLine
 10
94.00000000000001
 20
1282.3243552760678
 30
0.0
 11
94.00000000000001
 21
1269.8923549261297
 31
0.0
  0
LINE
  5
10111
330
1F
100
AcDbEntity
  8
0
100
AcDbLine
 10
94.00000000000001
 20
1269.8923549261297
 30
0.0
 11
96.00000000000001
 21
1269.8923549261297
 31
0.0
  0
LINE
  5
10112
330
1F
100
AcDbEntity
  8
0
100
AcDbLine
 10
96.00000000000001
 20
1269.8923549261297
 30
0.0
 11
96.00000000000001
 21
1260.0423549261295
 31
0.0
  0
LINE
  5
10113
330
1F
100
AcDbEntity
  8
0
100
AcDbLine
 10
96.00000000000001
 20
1260.0423549261295
 30
0.0
 11
94.00000000000001
 21
1260.0423549261295
 31
0.0
  0
LINE
  5
10114
330
1F
100
AcDbEntity
  8
0
100
AcDbLine
 10
94.00000000000001
 20
1260.0423549261295
 30
0.0
 11
94.00000000000001
 21
1256.8923549261297
 31
0.0
  0
LINE
  5
10115
330
1F
100
AcDbEntity
  8
0
100
AcDbLine
 10
94.00000000000001
 20
1256.8923549261297
 30
0.0
 11
96.00000000000001
 21
1256.8923549261297
 31
0.0
  0
LINE
  5
10116
330
1F
100
AcDbEntity
  8
0
100
AcDbLine
 10
96.00000000000001
 20
1256.8923549261297
 30
0.0
 11
96.00000000000001
 21
1255.0423549261295
 31
0.0
  0
LINE
  5
10117
330
1F
100
AcDbEntity
  8
0
100
AcDbLine
 10
96.00000000000001
 20
1255.0423549261295
 30
0.0
 11
69.07500000000002
 21
1255.0423549261295
 31
0.0
  0
ARC
  5
10118
330
1F
100
AcDbEntity
  8
0
100
AcDbCircle
 10
69.07500000000007
 20
1264.9673549261297
 30
0.0
 40
9.925000000000137
100
AcDbArc
 50
-127.01397811652475
 51
-90.00000000000043
  0
LINE
  5
10119
330
1F
100
AcDbEntity
  8
0
100
AcDbLine
 10
63.10005230148418
 20
1257.0423549261295
 30
0.0
 11
58.07500000000007
 21
1257.0423549261295
 31
0.0
  0
ARC
  5
1011A
330
1F
100
AcDbEntity
  8
0
100
AcDbCircle
 10
58.075000000000074
 20
1264.9673549261297
 30
0.0
 40
7.924999999999987
100
AcDbArc
 50
179.35034670539818
 51
-90.00000000000006
  0
SPLINE
  5
1011B
330
1F
100
AcDbEntity
  8
0
100
AcDbSpline
 70
0
 71
3
 72
17
 73
13
 74
0
 42
1e-09
 40
-1.0021780055373142
 40
-1.0021780055373142
 40
-1.0021780055373142
 40
-1.0021780055373142
 40
-1.0
 40
-1.0
 40
-1.0
 40
-0.5212028546237748
 40
-0.5212028546237748
 40
-0.5212028546237748
 40
-0.04240570924754958
 40
-0.04240570924754958
 40
-0.04240570924754958
 40
-0.04231749333862944
 40
-0.04231749333862944
 40
-0.04231749333862944
 40
-0.04231749333862944
 10
50.15050942780795
 20
1265.0572113184476
 30
0.0
 10
50.12089486319367
 20
1265.0518608979799
 30
0.0
 10
50.09128029857937
 20
1265.046510477512
 30
0.0
 10
50.06166573396508
 20
1265.0411600570442
 30
0.0
 10
43.561627067168715
 20
1263.8668074917553
 30
0.0
 10
37.76025983763125
 20
1264.1530479234395
 30
0.0
 10
32.91083071997053
 20
1266.434947503654
 30
0.0
 10
28.0614016023098
 20
1268.7168470838685
 30
0.0
 10
24.171872973513707
 20
1273.0371568931218
 30
0.0
 10
20.974673157080183
 20
1278.8352221480707
 30
0.0
 10
20.974083179045735
 20
1278.8362920627897
 30
0.0
 10
20.973493201011294
 20
1278.8373619775084
 30
0.0
 10
20.97290322297676
 20
1278.8384318922274
 30
0.0
  0
ARC
  5
1011C
330
1F
100
AcDbEntity
  8
0
100
AcDbCircle
 10
17.90113919079078
 20
1276.7319227141916
 30
0.0
 40
3.7246630970573333
100
AcDbArc
 50
34.44097729130594
 51
87.29717447493009
  0
LINE
  5
1011D
330
1F
100
AcDbEntity
  8
0
100
AcDbLine
 10
18.076778325961577
 20
1280.4524423124167
 30
0.0
 11
17.725500055619463
 21
1280.4524423124165
 31
0.0
  0
ARC
  5
1011E
330
1F
100
AcDbEntity
  8
0
100
AcDbCircle
 10
17.90113919079078
 20
1276.7319227141916
 30
0.0
 40
3.7246630970572197
100
AcDbArc
 50
92.70282552507788
 51
120.69174990396448
  0
LINE
  5
1011F
330
1F
100
AcDbEntity
  8
0
100
AcDbLine
 10
16.00000000000005
 20
1279.934856519911
 30
0.0
 11
16.000000000000014
 21
1272.4071106932006
 31
0.0
  0
LINE
  5
10120
330
1F
100
AcDbEntity
  8
0
100
AcDbLine
 10
16.000000000000014
 20
1272.4071106932006
 30
0.0
 11
10.0
 21
1272.4071106932006
 31
0.0
  0
LINE
  5
10121
330
1F
100
AcDbEntity
  8
0
100
AcDbLine
 10
10.0
 20
1272.4071106932006
 30
0.0
 11
10.0
 21
1268.0583308870994
 31
0.0
  0
ARC
  5
10122
330
1F
100
AcDbEntity
  8
0
100
AcDbCircle
 10
12.074999999999996
 20
1268.0583308870994
 30
0.0
 40
2.0749999999999957
100
AcDbArc
 50
180.0
 51
-90.00000000000001
  0
LINE
  5
10123
330
1F
100
AcDbEntity
  8
0
100
AcDbLine
 10
12.074999999999996
 20
1265.9833308870996
 30
0.0
 11
16.000000000000014
 21
1265.9833308870996
 31
0.0
  0
LINE
  5
10124
330
1F
100
AcDbEntity
  8
0
100
AcDbLine
 10
16.000000000000014
 20
1265.9833308870996
 30
0.0
 11
16.000000000000014
 21
1261.9833308870996
 31
0.0
  0
LINE
  5
10125
330
1F
100
AcDbEntity
  8
0
100
AcDbLine
 10
16.000000000000014
 20
1261.9833308870996
 30
0.0
 11
18.000000000000007
 21
1261.9833308870996
 31
0.0
  0
LINE
  5
10126
330
1F
100
AcDbEntity
  8
0
100
AcDbLine
 10
18.000000000000007
 20
1261.9833308870996
 30
0.0
 11
18.000000000000007
 21
1245.1333308870994
 31
0.0
  0
LINE
  5
10127
330
1F
100
AcDbEntity
  8
0
100
AcDbLine
 10
18.000000000000007
 20
1245.1333308870994
 30
0.0
 11
16.000000000000014
 21
1245.1333308870994
 31
0.0
  0
LINE
  5
10128
330
1F
100
AcDbEntity
  8
0
100
AcDbLine
 10
16.000000000000014
 20
1245.1333308870994
 30
0.0
 11
16.000000000000014
 21
1241.1333308870994
 31
0.0
  0
LINE
  5
10129
330
1F
100
AcDbEntity
  8
0
100
AcDbLine
 10
16.000000000000014
 20
1241.1333308870994
 30
0.0
 11
15.075000000000003
 21
1241.1333308870994
 31
0.0
  0
ARC
  5
1012A
330
1F
100
AcDbEntity
  8
0
100
AcDbCircle
 10
15.075000000000003
 20
1240.0583308870994
 30
0.0
 40
1.0749999999999993
100
AcDbArc
 50
90.0
 51
180.0
  0
LINE
  5
1012B
330
1F
100
AcDbEntity
  8
0
100
AcDbLine
 10
14.000000000000007
 20
1240.0583308870994
 30
0.0
 11
14.000000000000007
 21
1233.9833308870996
 31
0.0
  0
LINE
  5
1012C
330
1F
100
AcDbEntity
  8
0
100
AcDbLine
 10
14.000000000000007
 20
1233.9833308870996
 30
0.0
 11
16.000000000000014
 21
1233.9833308870996
 31
0.0
  0
LINE
  5
1012D
330
1F
100
AcDbEntity
  8
0
100
AcDbLine
 10
16.000000000000014
 20
1233.9833308870996
 30
0.0
 11
16.000000000000036
 21
1223.399703938823
 31
0.0
  0
SPLINE
  5
1012E
330
1F
100
AcDbEntity
  8
0
100
AcDbSpline
 70
0
 71
3
 72
14
 73
10
 74
0
 42
1e-09
 40
0.1761456220677707
 40
0.1761456220677707
 40
0.1761456220677707
 40
0.1761456220677707
 40
0.17634480490882232
 40
0.17634480490882232
 40
0.17634480490882232
 40
0.4874470278342509
 40
0.4874470278342509
 40
0.4874470278342509
 40
0.4888906412142185
 40
0.4888906412142185
 40
0.4888906412142185
 40
0.4888906412142185
 10
16.00000000000005
 20
1223.399703938823
 30
0.0
 10
16.001179819342596
 20
1223.3960009439065
 30
0.0
 10
16.00235963868517
 20
1223.3922979489903
 30
0.0
 10
16.003539458027767
 20
1223.388594954074
 30
0.0
 10
17.849841609991145
 20
1217.5937692244415
 30
0.0
 10
20.930146908725703
 20
1212.676304315936
 30
0.0
 10
25.46029677055705
 20
1208.8000495620483
 30
0.0
 10
25.481268327755444
 20
1208.782105100879
 30
0.0
 10
25.502239884953845
 20
1208.7641606397099
 30
0.0
 10
25.52321144215226
 20
1208.7462161785404
 30
0.0
  0
LINE
  5
1012F
330
1F
100
AcDbEntity
  8
0
100
AcDbLine
 10
25.523211442152274
 20
1208.7462161785404
 30
0.0
 11
28.940440481711924
 21
1213.6463936692298
 31
0.0
  0
LINE
  5
10130
330
1F
100
AcDbEntity
  8
0
100
AcDbLine
 10
28.940440481711924
 20
1213.6463936692298
 30
0.0
 11
30.457893210440403
 21
1212.5881700557745
 31
0.0
  0
LINE
  5
10131
330
1F
100
AcDbEntity
  8
0
100
AcDbLine
 10
30.457893210440403
 20
1212.5881700557745
 30
0.0
 11
26.96912662534713
 21
1207.5854104243201
 31
0.0
  0
CIRCLE
  5
10132
330
1F
100
AcDbEntity
  8
0
100
AcDbCircle
 10
107.10993996394802
 20
1711.100204921184
 30
0.0
 40
3.9250000000000007
  0
LINE
  5
10133
330
1F
100
AcDbEntity
  8
0
100
AcDbLine
 10
94.0
 20
1697.0189896512927
 30
0.0
 11
94.00000000000003
 21
1695.6122395494806
 31
0.0
  0
LINE
  5
10134
330
1F
100
AcDbEntity
  8
0
100
AcDbLine
 10
94.00000000000003
 20
1695.6122395494806
 30
0.0
 11
96.00000000000003
 21
1695.6122395494806
 31
0.0
  0
LINE
  5
10135
330
1F
100
AcDbEntity
  8
0
100
AcDbLine
 10
96.00000000000003
 20
1695.6122395494806
 30
0.0
 11
96.00000000000003
 21
1667.2069752999384
 31
0.0
  0
LINE
  5
10136
330
1F
100
AcDbEntity
  8
0
100
AcDbLine
 10
96.00000000000003
 20
1667.2069752999384
 30
0.0
 11
58.07500000000003
 21
1667.2069752999387
 31
0.0
  0
ARC
  5
10137
330
1F
100
AcDbEntity
  8
0
100
AcDbCircle
 10
58.07500000000001
 20
1674.863755663425
 30
0.0
 40
7.656780363486417
100
AcDbArc
 50
180.0
 51
-89.99999999999991
  0
LINE
  5
10138
330
1F
100
AcDbEntity
  8
0
100
AcDbLine
 10
50.4182196365136
 20
1674.863755663425
 30
0.0
 11
50.4182196365136
 21
1686.7971081741468
 31
0.0
  0
ARC
  5
10139
330
1F
100
AcDbEntity
  8
0
100
AcDbCircle
 10
60.78007634096002
 20
1686.7971080225286
 30
0.0
 40
10.361856704446433
100
AcDbArc
 50
143.27402698276725
 51
179.99999914622637
  0
ARC
  5
1013A
330
1F
100
AcDbEntity
  8
0
100
AcDbCircle
 10
58.07499999999997
 20
1687.3857397164682
 30
0.0
 40
7.924999999999942
100
AcDbArc
 50
89.99999999999967
 51
134.96094322721538
  0
LINE
  5
1013B
330
1F
100
AcDbEntity
  8
0
100
AcDbLine
 10
58.07500000000001
 20
1695.310739716468
 30
0.0
 11
83.31415560019566
 21
1695.310739716468
 31
0.0
  0
ARC
  5
1013C
330
1F
100
AcDbEntity
  8
0
100
AcDbCircle
 10
94.12365407831186
 20
1661.9690586031647
 30
0.0
 40
35.05014916957714
100
AcDbArc
 50
90.20213527392585
 51
107.96288929554501
  0
ARC
  5
1013D
330
1F
100
AcDbEntity
  8
0
100
AcDbCircle
 10
15.075000000000017
 20
1687.6767156774379
 30
0.0
 40
1.0749999999999993
100
AcDbArc
 50
90.0
 51
180.0
  0
LINE
  5
1013E
330
1F
100
AcDbEntity
  8
0
100
AcDbLine
 10
14.000000000000014
 20
1687.6767156774379
 30
0.0
 11
14.000000000000014
 21
1681.601715677438
 31
0.0
  0
LINE
  5
1013F
330
1F
100
AcDbEntity
  8
0
100
AcDbLine
 10
14.000000000000014
 20
1681.601715677438
 30
0.0
 11
16.00000000000003
 21
1681.601715677438
 31
0.0
  0
LINE
  5
10140
330
1F
100
AcDbEntity
  8
0
100
AcDbLine
 10
16.00000000000003
 20
1681.601715677438
 30
0.0
 11
16.000000000000043
 21
1671.0180887291615
 31
0.0
  0
SPLINE
  5
10141
330
1F
100
AcDbEntity
  8
0
100
AcDbSpline
 70
0
 71
3
 72
14
 73
10
 74
0
 42
1e-09
 40
0.1761456220677707
 40
0.1761456220677707
 40
0.1761456220677707
 40
0.1761456220677707
 40
0.17634480490882232
 40
0.17634480490882232
 40
0.17634480490882232
 40
0.4874470278342509
 40
0.4874470278342509
 40
0.4874470278342509
 40
0.4888906412142186
 40
0.4888906412142186
 40
0.4888906412142186
 40
0.4888906412142186
 10
16.000000000000057
 20
1671.0180887291615
 30
0.0
 10
16.001179819342603
 20
1671.014385734245
 30
0.0
 10
16.002359638685178
 20
1671.0106827393288
 30
0.0
 10
16.003539458027774
 20
1671.0069797444125
 30
0.0
 10
17.849841609991152
 20
1665.2121540147803
 30
0.0
 10
20.93014690872571
 20
1660.2946891062743
 30
0.0
 10
25.460296770557058
 20
1656.4184343523868
 30
0.0
 10
25.48126832775546
 20
1656.4004898912176
 30
0.0
 10
25.502239884953852
 20
1656.3825454300484
 30
0.0
 10
25.523211442152267
 20
1656.364600968879
 30
0.0
  0
LINE
  5
10142
330
1F
100
AcDbEntity
  8
0
100
AcDbLine
 10
25.523211442152288
 20
1656.364600968879
 30
0.0
 11
28.94044048171193
 21
1661.2647784595683
 31
0.0
  0
LINE
  5
10143
330
1F
100
AcDbEntity
  8
0
100
AcDbLine
 10
28.94044048171193
 20
1661.2647784595683
 30
0.0
 11
30.457893210440417
 21
1660.206554846113
 31
0.0
  0
LINE
  5
10144
330
1F
100
AcDbEntity
  8
0
100
AcDbLine
 10
30.457893210440417
 20
1660.206554846113
 30
0.0
 11
26.969126625347137
 21
1655.2037952146586
 31
0.0
  0
SPLINE
  5
10145
330
1F
100
AcDbEntity
  8
0
100
AcDbSpline
 70
0
 71
3
 72
17
 73
13
 74
0
 42
1e-09
 40
0.5208727436492137
 40
0.5208727436492137
 40
0.5208727436492137
 40
0.5208727436492137
 40
0.5221110217195426
 40
0.5221110217195426
 40
0.5221110217195426
 40
0.9036145591388358
 40
0.9036145591388358
 40
0.9036145591388358
 40
1.0
 40
1.0
 40
1.0
 40
1.0000589129462771
 40
1.0000589129462771
 40
1.0000589129462771
 40
1.0000589129462771
 10
26.969126625347208
 20
1655.2037952146586
 30
0.0
 10
26.98835629060674
 20
1655.1892917562723
 30
0.0
 10
27.00758595586629
 20
1655.1747882978862
 30
0.0
 10
27.02681562112585
 20
1655.1602848394998
 30
0.0
 10
32.964519458187326
 20
1650.6819312463283
 30
0.0
 10
40.99558597920445
 20
1647.7120906535033
 30
0.0
 10
50.53878543578013
 20
1645.8284134904793
 30
0.0
 10
52.94983906078788
 20
1645.3525095053515
 30
0.0
 10
55.45943336626887
 20
1644.9473628110925
 30
0.0
 10
58.06540910146737
 20
1644.6113554797957
 30
0.0
 10
58.067000995592764
 20
1644.6111502253532
 30
0.0
 10
58.06859288971816
 20
1644.6109449709106
 30
0.0
 10
58.07018478384333
 20
1644.6107397164683
 30
0.0
  0
LINE
  5
10146
330
1F
100
AcDbEntity
  8
0
100
AcDbLine
 10
58.070184783843324
 20
1644.6107397164683
 30
0.0
 11
96.07270137528027
 21
1644.610739716468
 31
0.0
  0
SPLINE
  5
10147
330
1F
100
AcDbEntity
  8
0
100
AcDbSpline
 70
0
 71
3
 72
20
 73
16
 74
0
 42
1e-09
 40
7.641245378691654e-05
 40
7.641245378691654e-05
 40
7.641245378691654e-05
 40
7.641245378691654e-05
 40
0.245390164635933
 40
0.245390164635933
 40
0.245390164635933
 40
0.5166558551735243
 40
0.5166558551735243
 40
0.5166558551735243
 40
0.795599898939864
 40
0.795599898939864
 40
0.795599898939864
 40
1.0
 40
1.0
 40
1.0
 40
1.0055020345658592
 40
1.0055020345658592
 40
1.0055020345658592
 40
1.0055020345658592
 10
96.07270137528027
 20
1644.610739716468
 30
0.0
 10
98.53330011286874
 20
1644.4599421550888
 30
0.0
 10
100.51061134529718
 20
1644.9401454010563
 30
0.0
 10
102.17812665106564
 20
1645.689655964751
 30
0.0
 10
104.02204973681839
 20
1646.518457851385
 30
0.0
 10
105.51850189732956
 20
1647.610632982559
 30
0.0
 10
107.03497053644193
 20
1648.2477501904386
 30
0.0
 10
108.59436381467233
 20
1648.9029014186196
 30
0.0
 10
110.18431905291399
 20
1649.0651071553013
 30
0.0
 10
111.94017045135747
 20
1648.5965967229997
 30
0.0
 10
113.22679481674116
 20
1648.2532892323031
 30
0.0
 10
114.59219440032305
 20
1647.5899873753535
 30
0.0
 10
116.03322262150814
 20
1646.623452874789
 30
0.0
 10
116.07214841433876
 20
1646.5973443495157
 30
0.0
 10
116.1110742071694
 20
1646.5712358242422
 30
0.0
 10
116.15000000000002
 20
1646.5451272989687
 30
0.0
  0
LINE
  5
10148
330
1F
100
AcDbEntity
  8
0
100
AcDbLine
 10
116.15000000000002
 20
1646.5451272989687
 30
0.0
 11
116.15000000000003
 21
1658.1670389869366
 31
0.0
  0
LINE
  5
10149
330
1F
100
AcDbEntity
  8
0
100
AcDbLine
 10
116.15000000000003
 20
1658.1670389869366
 30
0.0
 11
118.15000000000002
 21
1658.1670389869366
 31
0.0
  0
LINE
  5
1014A
330
1F
100
AcDbEntity
  8
0
100
AcDbLine
 10
118.15000000000002
 20
1658.1670389869366
 30
0.0
 11
118.15000000000002
 21
1668.3170389869365
 31
0.0
  0
LINE
  5
1014B
330
1F
100
AcDbEntity
  8
0
100
AcDbLine
 10
118.15000000000002
 20
1668.3170389869365
 30
0.0
 11
116.15000000000003
 21
1668.3170389869365
 31
0.0
  0
LINE
  5
1014C
330
1F
100
AcDbEntity
  8
0
100
AcDbLine
 10
116.15000000000003
 20
1668.3170389869365
 30
0.0
 11
116.15000000000003
 21
1689.7223531341442
 31
0.0
  0
LINE
  5
1014D
330
1F
100
AcDbEntity
  8
0
100
AcDbLine
 10
116.15000000000003
 20
1689.7223531341442
 30
0.0
 11
118.15000000000002
 21
1689.7223531341442
 31
0.0
  0
LINE
  5
1014E
330
1F
100
AcDbEntity
  8
0
100
AcDbLine
 10
118.15000000000002
 20
1689.7223531341442
 30
0.0
 11
118.15000000000002
 21
1699.8723531341443
 31
0.0
  0
LINE
  5
1014F
330
1F
100
AcDbEntity
  8
0
100
AcDbLine
 10
118.15000000000002
 20
1699.8723531341443
 30
0.0
 11
116.15000000000003
 21
1699.8723531341443
 31
0.0
  0
LINE
  5
10150
330
1F
100
AcDbEntity
  8
0
100
AcDbLine
 10
116.15000000000003
 20
1699.8723531341443
 30
0.0
 11
116.15000000000003
 21
1721.2008967188717
 31
0.0
  0
LINE
  5
10151
330
1F
100
AcDbEntity
  8
0
100
AcDbLine
 10
116.15000000000003
 20
1721.2008967188717
 30
0.0
 11
118.15000000000002
 21
1721.2008967188717
 31
0.0
  0
LINE
  5
10152
330
1F
100
AcDbEntity
  8
0
100
AcDbLine
 10
118.15000000000002
 20
1721.2008967188717
 30
0.0
 11
118.15000000000002
 21
1741.303094642598
 31
0.0
  0
LINE
  5
10153
330
1F
100
AcDbEntity
  8
0
100
AcDbLine
 10
118.15000000000002
 20
1741.303094642598
 30
0.0
 11
116.05926527721113
 21
1741.303094642598
 31
0.0
  0
SPLINE
  5
10154
330
1F
100
AcDbEntity
  8
0
100
AcDbSpline
 70
0
 71
3
 72
26
 73
22
 74
0
 42
1e-09
 40
-1.0004217087345835
 40
-1.0004217087345835
 40
-1.0004217087345835
 40
-1.0004217087345835
 40
-1.0
 40
-1.0
 40
-1.0
 40
-0.7282489462254366
 40
-0.7282489462254366
 40
-0.7282489462254366
 40
-0.5135219127264848
 40
-0.5135219127264848
 40
-0.5135219127264848
 40
-0.23414941604722456
 40
-0.23414941604722456
 40
-0.23414941604722456
 40
-0.03140546397953908
 40
-0.03140546397953908
 40
-0.03140546397953908
 40
0.0
 40
0.0
 40
0.0
 40
0.004607306094997285
 40
0.004607306094997285
 40
0.004607306094997285
 40
0.004607306094997285
 10
116.05926527721104
 20
1741.303094642598
 30
0.0
 10
116.05446260855047
 20
1741.3009866982366
 30
0.0
 10
116.0496599398898
 20
1741.298878753875
 30
0.0
 10
116.04485727122918
 20
1741.2967708095136
 30
0.0
 10
112.96013374385039
 20
1739.9428515563773
 30
0.0
 10
110.34927409309628
 20
1739.606308085406
 30
0.0
 10
108.24327756962127
 20
1740.3497266686945
 30
0.0
 10
106.57920164511708
 20
1740.9371469006321
 30
0.0
 10
105.23457416190136
 20
1742.2269368962948
 30
0.0
 10
104.12406000634843
 20
1744.0560991843463
 30
0.0
 10
102.67921579097862
 20
1746.435946877101
 30
0.0
 10
101.63486139871895
 20
1749.7180605274157
 30
0.0
 10
100.32711150757359
 20
1752.4450018381308
 30
0.0
 10
99.378061818007
 20
1754.4239756632662
 30
0.0
 10
98.26859365783052
 20
1756.0709652690516
 30
0.0
 10
96.80772650669115
 20
1756.9768840812326
 30
0.0
 10
96.58143511685634
 20
1757.1172128078565
 30
0.0
 10
96.34722465937026
 20
1757.2406095131398
 30
0.0
 10
96.1051131272014
 20
1757.3467505147073
 30
0.0
 10
96.07007541813431
 20
1757.3621109459089
 30
0.0
 10
96.0350377090672
 20
1757.3774713771106
 30
0.0
 10
96.0000000000001
 20
1757.3928318083122
 30
0.0
  0
LINE
  5
10155
330
1F
100
AcDbEntity
  8
0
100
AcDbLine
 10
96.0000000000001
 20
1757.3928318083122
 30
0.0
 11
96.00000000000003
 21
1702.660739716468
 31
0.0
  0
LINE
  5
10156
330
1F
100
AcDbEntity
  8
0
100
AcDbLine
 10
96.00000000000003
 20
1702.660739716468
 30
0.0
 11
69.07500000000003
 21
1702.660739716468
 31
0.0
  0
ARC
  5
10157
330
1F
100
AcDbEntity
  8
0
100
AcDbCircle
 10
69.07499999999996
 20
1712.585739716468
 30
0.0
 40
9.92499999999978
100
AcDbArc
 50
-127.01397811652541
 51
-89.99999999999966
  0
LINE
  5
10158
330
1F
100
AcDbEntity
  8
0
100
AcDbLine
 10
63.10005230148419
 20
1704.660739716468
 30
0.0
 11
58.07500000000007
 21
1704.660739716468
 31
0.0
  0
ARC
  5
10159
330
1F
100
AcDbEntity
  8
0
100
AcDbCircle
 10
58.07500000000007
 20
1712.585739716468
 30
0.0
 40
7.924999999999976
100
AcDbArc
 50
179.35034670539818
 51
-90.00000000000001
  0
SPLINE
  5
1015A
330
1F
100
AcDbEntity
  8
0
100
AcDbSpline
 70
0
 71
3
 72
17
 73
13
 74
0
 42
1e-09
 40
-1.0021780055373146
 40
-1.0021780055373146
 40
-1.0021780055373146
 40
-1.0021780055373146
 40
-1.0
 40
-1.0
 40
-1.0
 40
-0.5212028546237748
 40
-0.5212028546237748
 40
-0.5212028546237748
 40
-0.04240570924754958
 40
-0.04240570924754958
 40
-0.04240570924754958
 40
-0.04231749333866267
 40
-0.04231749333866267
 40
-0.04231749333866267
 40
-0.04231749333866267
 10
50.150509427808004
 20
1712.675596108786
 30
0.0
 10
50.120894863193676
 20
1712.6702456883183
 30
0.0
 10
50.09128029857938
 20
1712.6648952678504
 30
0.0
 10
50.061665733965086
 20
1712.6595448473827
 30
0.0
 10
43.56162706716872
 20
1711.4851922820937
 30
0.0
 10
37.76025983763128
 20
1711.7714327137783
 30
0.0
 10
32.910830719970534
 20
1714.0533322939925
 30
0.0
 10
28.061401602309786
 20
1716.335231874207
 30
0.0
 10
24.171872973513715
 20
1720.6555416834603
 30
0.0
 10
20.97467315708019
 20
1726.4536069384092
 30
0.0
 10
20.97408317904599
 20
1726.4546768531277
 30
0.0
 10
20.973493201011777
 20
1726.455746767846
 30
0.0
 10
20.972903222977635
 20
1726.4568166825643
 30
0.0
  0
ARC
  5
1015B
330
1F
100
AcDbEntity
  8
0
100
AcDbCircle
 10
17.9011391907908
 20
1724.35030750453
 30
0.0
 40
3.724663097057213
100
AcDbArc
 50
34.44097729127997
 51
87.29717447494149
  0
LINE
  5
1015C
330
1F
100
AcDbEntity
  8
0
100
AcDbLine
 10
18.07677832596086
 20
1728.070827102755
 30
0.0
 11
17.725500055619477
 21
1728.070827102755
 31
0.0
  0
ARC
  5
1015D
330
1F
100
AcDbEntity
  8
0
100
AcDbCircle
 10
17.9011391907908
 20
1724.35030750453
 30
0.0
 40
3.72466309705731
100
AcDbArc
 50
92.70282552507791
 51
120.69174990396465
  0
LINE
  5
1015E
330
1F
100
AcDbEntity
  8
0
100
AcDbLine
 10
16.00000000000003
 20
1727.5532413102494
 30
0.0
 11
16.00000000000003
 21
1720.025495483539
 31
0.0
  0
LINE
  5
1015F
330
1F
100
AcDbEntity
  8
0
100
AcDbLine
 10
16.00000000000003
 20
1720.025495483539
 30
0.0
 11
10.000000000000014
 21
1720.025495483539
 31
0.0
  0
LINE
  5
10160
330
1F
100
AcDbEntity
  8
0
100
AcDbLine
 10
10.000000000000014
 20
1720.025495483539
 30
0.0
 11
10.000000000000014
 21
1715.6767156774379
 31
0.0
  0
ARC
  5
10161
330
1F
100
AcDbEntity
  8
0
100
AcDbCircle
 10
12.075000000000003
 20
1715.6767156774379
 30
0.0
 40
2.0749999999999957
100
AcDbArc
 50
180.0
 51
-90.00000000000001
  0
LINE
  5
10162
330
1F
100
AcDbEntity
  8
0
100
AcDbLine
 10
12.075000000000003
 20
1713.601715677438
 30
0.0
 11
16.00000000000003
 21
1713.601715677438
 31
0.0
  0
LINE
  5
10163
330
1F
100
AcDbEntity
  8
0
100
AcDbLine
 10
16.00000000000003
 20
1713.601715677438
 30
0.0
 11
16.00000000000003
 21
1709.601715677438
 31
0.0
  0
LINE
  5
10164
330
1F
100
AcDbEntity
  8
0
100
AcDbLine
 10
16.00000000000003
 20
1709.601715677438
 30
0.0
 11
18.000000000000014
 21
1709.601715677438
 31
0.0
  0
LINE
  5
10165
330
1F
100
AcDbEntity
  8
0
100
AcDbLine
 10
18.000000000000014
 20
1709.601715677438
 30
0.0
 11
18.000000000000014
 21
1692.751715677438
 31
0.0
  0
LINE
  5
10166
330
1F
100
AcDbEntity
  8
0
100
AcDbLine
 10
18.000000000000014
 20
1692.751715677438
 30
0.0
 11
16.00000000000003
 21
1692.751715677438
 31
0.0
  0
LINE
  5
10167
330
1F
100
AcDbEntity
  8
0
100
AcDbLine
 10
16.00000000000003
 20
1692.751715677438
 30
0.0
 11
16.00000000000003
 21
1688.751715677438
 31
0.0
  0
LINE
  5
10168
330
1F
100
AcDbEntity
  8
0
100
AcDbLine
 10
16.00000000000003
 20
1688.751715677438
 30
0.0
 11
15.075000000000017
 21
1688.751715677438
 31
0.0
  0
CIRCLE
  5
10169
330
1F
100
AcDbEntity
  8
0
100
AcDbCircle
 10
107.10993996394802
 20
2173.9099743682978
 30
0.0
 40
3.9250000000000007
  0
LINE
  5
1016A
330
1F
100
AcDbEntity
  8
0
100
AcDbLine
 10
28.940440481711924
 20
2124.074547906682
 30
0.0
 11
30.457893210440403
 21
2123.0163242932267
 31
0.0
  0
LINE
  5
1016B
330
1F
100
AcDbEntity
  8
0
100
AcDbLine
 10
30.457893210440403
 20
2123.0163242932267
 30
0.0
 11
26.969126625347144
 21
2118.0135646617723
 31
0.0
  0
SPLINE
  5
1016C
330
1F
100
AcDbEntity
  8
0
100
AcDbSpline
 70
0
 71
3
 72
17
 73
13
 74
0
 42
1e-09
 40
0.5208727436492137
 40
0.5208727436492137
 40
0.5208727436492137
 40
0.5208727436492137
 40
0.5221110217195426
 40
0.5221110217195426
 40
0.5221110217195426
 40
0.9036145591390676
 40
0.9036145591390676
 40
0.9036145591390676
 40
1.0
 40
1.0
 40
1.0
 40
1.0000589129462774
 40
1.0000589129462774
 40
1.0000589129462774
 40
1.0000589129462774
 10
26.969126625347215
 20
2118.0135646617723
 30
0.0
 10
26.988356290606745
 20
2117.9990612033857
 30
0.0
 10
27.007585955866297
 20
2117.9845577449996
 30
0.0
 10
27.026815621125863
 20
2117.9700542866135
 30
0.0
 10
32.964519458190935
 20
2113.4917006934393
 30
0.0
 10
40.99558597921421
 20
2110.5218601006136
 30
0.0
 10
50.53878543579753
 20
2108.6381829375896
 30
0.0
 10
52.94983906079995
 20
2108.162278952463
 30
0.0
 10
55.45943336627513
 20
2107.7571322582053
 30
0.0
 10
58.06540910146737
 20
2107.421124926909
 30
0.0
 10
58.06700099559278
 20
2107.420919672467
 30
0.0
 10
58.06859288971817
 20
2107.4207144180245
 30
0.0
 10
58.07018478384347
 20
2107.4205091635818
 30
0.0
  0
LINE
  5
1016D
330
1F
100
AcDbEntity
  8
0
100
AcDbLine
 10
58.070184783843466
 20
2107.4205091635818
 30
0.0
 11
96.07270137527999
 21
2107.4205091635818
 31
0.0
  0
SPLINE
  5
1016E
330
1F
100
AcDbEntity
  8
0
100
AcDbSpline
 70
0
 71
3
 72
20
 73
16
 74
0
 42
1e-09
 40
7.641245377728414e-05
 40
7.641245377728414e-05
 40
7.641245377728414e-05
 40
7.641245377728414e-05
 40
0.2453901646357988
 40
0.2453901646357988
 40
0.2453901646357988
 40
0.5166558551734053
 40
0.5166558551734053
 40
0.5166558551734053
 40
0.7955998989399418
 40
0.7955998989399418
 40
0.7955998989399418
 40
1.0
 40
1.0
 40
1.0
 40
1.0055020345658594
 40
1.0055020345658594
 40
1.0055020345658594
 40
1.0055020345658594
 10
96.07270137527999
 20
2107.4205091635818
 30
0.0
 10
98.53330011286724
 20
2107.2697116022027
 30
0.0
 10
100.51061134529493
 20
2107.7499148481693
 30
0.0
 10
102.17812665106291
 20
2108.4994254118633
 30
0.0
 10
104.02204973681614
 20
2109.328227298497
 30
0.0
 10
105.51850189732745
 20
2110.4204024296714
 30
0.0
 10
107.03497053643991
 20
2111.0575196375516
 30
0.0
 10
108.59436381467142
 20
2111.7126708657333
 30
0.0
 10
110.18431905291412
 20
2111.874876602415
 30
0.0
 10
111.94017045135894
 20
2111.406366170113
 30
0.0
 10
113.2267948167422
 20
2111.0630586794164
 30
0.0
 10
114.59219440032362
 20
2110.3997568224668
 30
0.0
 10
116.03322262150813
 20
2109.4332223219026
 30
0.0
 10
116.07214841433876
 20
2109.4071137966293
 30
0.0
 10
116.11107420716938
 20
2109.3810052713557
 30
0.0
 10
116.15000000000002
 20
2109.3548967460824
 30
0.0
  0
LINE
  5
1016F
330
1F
100
AcDbEntity
  8
0
100
AcDbLine
 10
116.15000000000002
 20
2109.3548967460824
 30
0.0
 11
116.15000000000002
 21
2120.9768084340503
 31
0.0
  0
LINE
  5
10170
330
1F
100
AcDbEntity
  8
0
100
AcDbLine
 10
116.15000000000002
 20
2120.9768084340503
 30
0.0
 11
118.15000000000002
 21
2120.9768084340503
 31
0.0
  0
LINE
  5
10171
330
1F
100
AcDbEntity
  8
0
100
AcDbLine
 10
118.15000000000002
 20
2120.9768084340503
 30
0.0
 11
118.15000000000002
 21
2131.1268084340504
 31
0.0
  0
LINE
  5
10172
330
1F
100
AcDbEntity
  8
0
100
AcDbLine
 10
118.15000000000002
 20
2131.1268084340504
 30
0.0
 11
116.15000000000002
 21
2131.1268084340504
 31
0.0
  0
LINE
  5
10173
330
1F
100
AcDbEntity
  8
0
100
AcDbLine
 10
116.15000000000002
 20
2131.1268084340504
 30
0.0
 11
116.15000000000002
 21
2152.532122581258
 31
0.0
  0
LINE
  5
10174
330
1F
100
AcDbEntity
  8
0
100
AcDbLine
 10
116.15000000000002
 20
2152.532122581258
 30
0.0
 11
118.15000000000002
 21
2152.532122581258
 31
0.0
  0
LINE
  5
10175
330
1F
100
AcDbEntity
  8
0
100
AcDbLine
 10
118.15000000000002
 20
2152.532122581258
 30
0.0
 11
118.15000000000002
 21
2162.6821225812578
 31
0.0
  0
LINE
  5
10176
330
1F
100
AcDbEntity
  8
0
100
AcDbLine
 10
118.15000000000002
 20
2162.6821225812578
 30
0.0
 11
116.15000000000002
 21
2162.6821225812578
 31
0.0
  0
LINE
  5
10177
330
1F
100
AcDbEntity
  8
0
100
AcDbLine
 10
116.15000000000002
 20
2162.6821225812578
 30
0.0
 11
116.15000000000002
 21
2184.010666165985
 31
0.0
  0
LINE
  5
10178
330
1F
100
AcDbEntity
  8
0
100
AcDbLine
 10
116.15000000000002
 20
2184.010666165985
 30
0.0
 11
118.15000000000002
 21
2184.010666165985
 31
0.0
  0
LINE
  5
10179
330
1F
100
AcDbEntity
  8
0
100
AcDbLine
 10
118.15000000000002
 20
2184.010666165985
 30
0.0
 11
118.15000000000002
 21
2204.1128640897114
 31
0.0
  0
LINE
  5
1017A
330
1F
100
AcDbEntity
  8
0
100
AcDbLine
 10
118.15000000000002
 20
2204.1128640897114
 30
0.0
 11
116.05390669841705
 21
2204.1128640897114
 31
0.0
  0
SPLINE
  5
1017B
330
1F
100
AcDbEntity
  8
0
100
AcDbSpline
 70
0
 71
3
 72
17
 73
13
 74
0
 42
1e-09
 40
-1.000778382618217
 40
-1.000778382618217
 40
-1.000778382618217
 40
-1.000778382618217
 40
-1.0
 40
-1.0
 40
-1.0
 40
-0.3946745508473505
 40
-0.3946745508473505
 40
-0.3946745508473505
 40
0.0
 40
0.0
 40
0.0
 40
0.004498078275395065
 40
0.004498078275395065
 40
0.004498078275395065
 40
0.004498078275395065
 10
116.05390669841665
 20
2204.1128640897114
 30
0.0
 10
116.04790636115408
 20
2204.1091990757463
 30
0.0
 10
116.04190602389141
 20
2204.1055340617813
 30
0.0
 10
116.03590568662874
 20
2204.1018690478168
 30
0.0
 10
111.37291227073317
 20
2201.253706479694
 30
0.0
 10
107.00950488069103
 20
2199.054118280169
 30
0.0
 10
103.12542378837642
 20
2197.8841455112165
 30
0.0
 10
100.59298778604114
 20
2197.121318708318
 30
0.0
 10
98.25558451627985
 20
2196.779216870162
 30
0.0
 10
96.07483366638331
 20
2196.7743804292545
 30
0.0
 10
96.04988911092221
 20
2196.7743251075435
 30
0.0
 10
96.02494455546112
 20
2196.7742697858325
 30
0.0
 10
96.00000000000009
 20
2196.774214464121
 30
0.0
  0
LINE
  5
1017C
330
1F
100
AcDbEntity
  8
0
100
AcDbLine
 10
96.00000000000009
 20
2196.774214464121
 30
0.0
 11
96.00000000000001
 21
2194.8566206783785
 31
0.0
  0
LINE
  5
1017D
330
1F
100
AcDbEntity
  8
0
100
AcDbLine
 10
96.00000000000001
 20
2194.8566206783785
 30
0.0
 11
94.00000000000001
 21
2194.8566206783785
 31
0.0
  0
LINE
  5
1017E
330
1F
100
AcDbEntity
  8
0
100
AcDbLine
 10
94.00000000000001
 20
2194.8566206783785
 30
0.0
 11
94.00000000000001
 21
2191.453955278859
 31
0.0
  0
LINE
  5
1017F
330
1F
100
AcDbEntity
  8
0
100
AcDbLine
 10
94.00000000000001
 20
2191.453955278859
 30
0.0
 11
96.00000000000001
 21
2191.453955278859
 31
0.0
  0
LINE
  5
10180
330
1F
100
AcDbEntity
  8
0
100
AcDbLine
 10
96.00000000000001
 20
2191.453955278859
 30
0.0
 11
96.00000000000001
 21
2191.1277094181514
 31
0.0
  0
LINE
  5
10181
330
1F
100
AcDbEntity
  8
0
100
AcDbLine
 10
96.00000000000001
 20
2191.1277094181514
 30
0.0
 11
94.00000000000001
 21
2191.1277094181514
 31
0.0
  0
LINE
  5
10182
330
1F
100
AcDbEntity
  8
0
100
AcDbLine
 10
94.00000000000001
 20
2191.1277094181514
 30
0.0
 11
94.00000000000001
 21
2190.51237726169
 31
0.0
  0
LINE
  5
10183
330
1F
100
AcDbEntity
  8
0
100
AcDbLine
 10
94.00000000000001
 20
2190.51237726169
 30
0.0
 11
96.00000000000001
 21
2190.51237726169
 31
0.0
  0
LINE
  5
10184
330
1F
100
AcDbEntity
  8
0
100
AcDbLine
 10
96.00000000000001
 20
2190.51237726169
 30
0.0
 11
96.00000000000001
 21
2183.4705091635815
 31
0.0
  0
LINE
  5
10185
330
1F
100
AcDbEntity
  8
0
100
AcDbLine
 10
96.00000000000001
 20
2183.4705091635815
 30
0.0
 11
94.00000000000001
 21
2183.4705091635815
 31
0.0
  0
LINE
  5
10186
330
1F
100
AcDbEntity
  8
0
100
AcDbLine
 10
94.00000000000001
 20
2183.4705091635815
 30
0.0
 11
94.00000000000001
 21
2180.320509163582
 31
0.0
  0
LINE
  5
10187
330
1F
100
AcDbEntity
  8
0
100
AcDbLine
 10
94.00000000000001
 20
2180.320509163582
 30
0.0
 11
96.00000000000001
 21
2180.320509163582
 31
0.0
  0
LINE
  5
10188
330
1F
100
AcDbEntity
  8
0
100
AcDbLine
 10
96.00000000000001
 20
2180.320509163582
 30
0.0
 11
96.00000000000001
 21
2170.470509163582
 31
0.0
  0
LINE
  5
10189
330
1F
100
AcDbEntity
  8
0
100
AcDbLine
 10
96.00000000000001
 20
2170.470509163582
 30
0.0
 11
94.00000000000001
 21
2170.470509163582
 31
0.0
  0
LINE
  5
1018A
330
1F
100
AcDbEntity
  8
0
100
AcDbLine
 10
94.00000000000001
 20
2170.470509163582
 30
0.0
 11
94.00000000000001
 21
2167.320509163582
 31
0.0
  0
LINE
  5
1018B
330
1F
100
AcDbEntity
  8
0
100
AcDbLine
 10
94.00000000000001
 20
2167.320509163582
 30
0.0
 11
96.00000000000001
 21
2167.320509163582
 31
0.0
  0
LINE
  5
1018C
330
1F
100
AcDbEntity
  8
0
100
AcDbLine
 10
96.00000000000001
 20
2167.320509163582
 30
0.0
 11
96.00000000000001
 21
2165.470509163582
 31
0.0
  0
LINE
  5
1018D
330
1F
100
AcDbEntity
  8
0
100
AcDbLine
 10
96.00000000000001
 20
2165.470509163582
 30
0.0
 11
69.07500000000002
 21
2165.470509163582
 31
0.0
  0
ARC
  5
1018E
330
1F
100
AcDbEntity
  8
0
100
AcDbCircle
 10
69.07499999999995
 20
2175.3955091635817
 30
0.0
 40
9.924999999999729
100
AcDbArc
 50
-127.01397811652552
 51
-89.9999999999996
  0
LINE
  5
1018F
330
1F
100
AcDbEntity
  8
0
100
AcDbLine
 10
63.10005230148419
 20
2167.470509163582
 30
0.0
 11
58.07500000000006
 21
2167.470509163582
 31
0.0
  0
ARC
  5
10190
330
1F
100
AcDbEntity
  8
0
100
AcDbCircle
 10
58.07500000000008
 20
2175.3955091635817
 30
0.0
 40
7.924999999999997
100
AcDbArc
 50
179.35034670539818
 51
-90.00000000000017
  0
SPLINE
  5
10191
330
1F
100
AcDbEntity
  8
0
100
AcDbSpline
 70
0
 71
3
 72
17
 73
13
 74
0
 42
1e-09
 40
-1.0021780055373146
 40
-1.0021780055373146
 40
-1.0021780055373146
 40
-1.0021780055373146
 40
-1.0
 40
-1.0
 40
-1.0
 40
-0.5212028546237748
 40
-0.5212028546237748
 40
-0.5212028546237748
 40
-0.04240570924754958
 40
-0.04240570924754958
 40
-0.04240570924754958
 40
-0.042317493338645505
 40
-0.042317493338645505
 40
-0.042317493338645505
 40
-0.042317493338645505
 10
50.150509427808
 20
2175.4853655559
 30
0.0
 10
50.12089486319367
 20
2175.480015135432
 30
0.0
 10
50.09128029857937
 20
2175.474664714964
 30
0.0
 10
50.06166573396508
 20
2175.469314294496
 30
0.0
 10
43.561627067168715
 20
2174.2949617292074
 30
0.0
 10
37.76025983763127
 20
2174.5812021608917
 30
0.0
 10
32.91083071997053
 20
2176.863101741106
 30
0.0
 10
28.06140160230978
 20
2179.1450013213207
 30
0.0
 10
24.171872973513707
 20
2183.4653111305743
 30
0.0
 10
20.974673157080183
 20
2189.263376385523
 30
0.0
 10
20.97408317904584
 20
2189.2644463002416
 30
0.0
 10
20.97349320101152
 20
2189.2655162149604
 30
0.0
 10
20.972903222977223
 20
2189.2665861296787
 30
0.0
  0
ARC
  5
10192
330
1F
100
AcDbEntity
  8
0
100
AcDbCircle
 10
17.90113919079078
 20
2187.1600769516435
 30
0.0
 40
3.7246630970572925
100
AcDbArc
 50
34.44097729129249
 51
87.2971744749202
  0
LINE
  5
10193
330
1F
100
AcDbEntity
  8
0
100
AcDbLine
 10
18.076778325962216
 20
2190.8805965498686
 30
0.0
 11
17.725500055619342
 21
2190.8805965498686
 31
0.0
  0
ARC
  5
10194
330
1F
100
AcDbEntity
  8
0
100
AcDbCircle
 10
17.90113919079078
 20
2187.1600769516435
 30
0.0
 40
3.7246630970572436
100
AcDbArc
 50
92.70282552507973
 51
120.6917499039649
  0
LINE
  5
10195
330
1F
100
AcDbEntity
  8
0
100
AcDbLine
 10
16.000000000000014
 20
2190.363010757363
 30
0.0
 11
16.000000000000014
 21
2182.8352649306526
 31
0.0
  0
LINE
  5
10196
330
1F
100
AcDbEntity
  8
0
100
AcDbLine
 10
16.000000000000014
 20
2182.8352649306526
 30
0.0
 11
10.0
 21
2182.8352649306526
 31
0.0
  0
LINE
  5
10197
330
1F
100
AcDbEntity
  8
0
100
AcDbLine
 10
10.0
 20
2182.8352649306526
 30
0.0
 11
10.0
 21
2178.4864851245516
 31
0.0
  0
ARC
  5
10198
330
1F
100
AcDbEntity
  8
0
100
AcDbCircle
 10
12.074999999999996
 20
2178.4864851245516
 30
0.0
 40
2.0749999999999957
100
AcDbArc
 50
180.0
 51
-90.00000000000001
  0
LINE
  5
10199
330
1F
100
AcDbEntity
  8
0
100
AcDbLine
 10
12.074999999999996
 20
2176.4114851245517
 30
0.0
 11
16.000000000000014
 21
2176.4114851245517
 31
0.0
  0
LINE
  5
1019A
330
1F
100
AcDbEntity
  8
0
100
AcDbLine
 10
16.000000000000014
 20
2176.4114851245517
 30
0.0
 11
16.000000000000014
 21
2172.4114851245517
 31
0.0
  0
LINE
  5
1019B
330
1F
100
AcDbEntity
  8
0
100
AcDbLine
 10
16.000000000000014
 20
2172.4114851245517
 30
0.0
 11
18.000000000000007
 21
2172.4114851245517
 31
0.0
  0
LINE
  5
1019C
330
1F
100
AcDbEntity
  8
0
100
AcDbLine
 10
18.000000000000007
 20
2172.4114851245517
 30
0.0
 11
18.000000000000007
 21
2155.5614851245514
 31
0.0
  0
LINE
  5
1019D
330
1F
100
AcDbEntity
  8
0
100
AcDbLine
 10
18.000000000000007
 20
2155.5614851245514
 30
0.0
 11
16.000000000000014
 21
2155.5614851245514
 31
0.0
  0
LINE
  5
1019E
330
1F
100
AcDbEntity
  8
0
100
AcDbLine
 10
16.000000000000014
 20
2155.5614851245514
 30
0.0
 11
16.000000000000014
 21
2151.5614851245514
 31
0.0
  0
LINE
  5
1019F
330
1F
100
AcDbEntity
  8
0
100
AcDbLine
 10
16.000000000000014
 20
2151.5614851245514
 30
0.0
 11
15.075000000000003
 21
2151.5614851245514
 31
0.0
  0
ARC
  5
101A0
330
1F
100
AcDbEntity
  8
0
100
AcDbCircle
 10
15.075000000000003
 20
2150.4864851245516
 30
0.0
 40
1.0749999999999993
100
AcDbArc
 50
90.0
 51
180.0
  0
LINE
  5
101A1
330
1F
100
AcDbEntity
  8
0
100
AcDbLine
 10
14.000000000000007
 20
2150.4864851245516
 30
0.0
 11
13.999999999999986
 21
2144.4114851245517
 31
0.0
  0
LINE
  5
101A2
330
1F
100
AcDbEntity
  8
0
100
AcDbLine
 10
13.999999999999986
 20
2144.4114851245517
 30
0.0
 11
16.000000000000014
 21
2144.4114851245517
 31
0.0
  0
LINE
  5
101A3
330
1F
100
AcDbEntity
  8
0
100
AcDbLine
 10
16.000000000000014
 20
2144.4114851245517
 30
0.0
 11
16.000000000000036
 21
2133.827858176275
 31
0.0
  0
SPLINE
  5
101A4
330
1F
100
AcDbEntity
  8
0
100
AcDbSpline
 70
0
 71
3
 72
14
 73
10
 74
0
 42
1e-09
 40
0.1761456220677707
 40
0.1761456220677707
 40
0.1761456220677707
 40
0.1761456220677707
 40
0.17634480490882232
 40
0.17634480490882232
 40
0.17634480490882232
 40
0.4874470278342509
 40
0.4874470278342509
 40
0.4874470278342509
 40
0.48889064121421816
 40
0.48889064121421816
 40
0.48889064121421816
 40
0.48889064121421816
 10
16.00000000000005
 20
2133.827858176275
 30
0.0
 10
16.001179819342596
 20
2133.824155181359
 30
0.0
 10
16.00235963868517
 20
2133.8204521864423
 30
0.0
 10
16.003539458027767
 20
2133.816749191526
 30
0.0
 10
17.849841609991145
 20
2128.021923461894
 30
0.0
 10
20.930146908725703
 20
2123.104458553388
 30
0.0
 10
25.46029677055705
 20
2119.2282037995005
 30
0.0
 10
25.481268327755444
 20
2119.210259338331
 30
0.0
 10
25.502239884953823
 20
2119.192314877162
 30
0.0
 10
25.523211442152224
 20
2119.1743704159926
 30
0.0
  0
LINE
  5
101A5
330
1F
100
AcDbEntity
  8
0
100
AcDbLine
 10
25.52321144215224
 20
2119.1743704159926
 30
0.0
 11
28.940440481711924
 21
2124.074547906682
 31
0.0
  0
ARC
  5
101A6
330
1F
100
AcDbEntity
  8
0
100
AcDbCircle
 10
94.12365407831265
 20
2173.9196886071195
 30
0.0
 40
33.44402577526015
100
AcDbArc
 50
-90.21184270687655
 51
-89.30908243503677
  0
LINE
  5
101A7
330
1F
100
AcDbEntity
  8
0
100
AcDbLine
 10
94.00000000000001
 20
2140.478094422672
 30
0.0
 11
94.52693866637986
 21
2140.478094422672
 31
0.0
  0
LINE
  5
101A8
330
1F
100
AcDbEntity
  8
0
100
AcDbLine
 10
94.00000000000001
 20
2145.5831562330086
 30
0.0
 11
94.00000000000001
 21
2140.478094422672
 31
0.0
  0
LINE
  5
101A9
330
1F
100
AcDbEntity
  8
0
100
AcDbLine
 10
96.00000000000001
 20
2145.5831562330086
 30
0.0
 11
94.00000000000001
 21
2145.5831562330086
 31
0.0
  0
LINE
  5
101AA
330
1F
100
AcDbEntity
  8
0
100
AcDbLine
 10
96.00000000000001
 20
2155.4331562330085
 30
0.0
 11
96.00000000000001
 21
2145.5831562330086
 31
0.0
  0
LINE
  5
101AB
330
1F
100
AcDbEntity
  8
0
100
AcDbLine
 10
94.00000000000001
 20
2155.4331562330085
 30
0.0
 11
96.00000000000001
 21
2155.4331562330085
 31
0.0
  0
LINE
  5
101AC
330
1F
100
AcDbEntity
  8
0
100
AcDbLine
 10
94.00000000000001
 20
2159.8287590984064
 30
0.0
 11
94.00000000000001
 21
2155.4331562330085
 31
0.0
  0
ARC
  5
101AD
330
1F
100
AcDbEntity
  8
0
100
AcDbCircle
 10
94.12365407831193
 20
2124.7788280502778
 30
0.0
 40
35.05014916957752
100
AcDbArc
 50
90.20213527392596
 51
107.96288929554488
  0
LINE
  5
101AE
330
1F
100
AcDbEntity
  8
0
100
AcDbLine
 10
58.07500000000001
 20
2158.1205091635816
 30
0.0
 11
83.3141556001957
 21
2158.1205091635816
 31
0.0
  0
ARC
  5
101AF
330
1F
100
AcDbEntity
  8
0
100
AcDbCircle
 10
58.074999999999996
 20
2150.195509163582
 30
0.0
 40
7.925000000000022
100
AcDbArc
 50
89.99999999999986
 51
180.0
  0
ARC
  5
101B0
330
1F
100
AcDbEntity
  8
0
100
AcDbCircle
 10
60.325000000000024
 20
2150.195509163582
 30
0.0
 40
10.175000000000054
100
AcDbArc
 50
180.0
 51
-102.72722369271979
  0
LINE
  5
101B1
330
1F
100
AcDbEntity
  8
0
100
AcDbLine
 10
94.00000000000001
 20
2140.2705091635817
 30
0.0
 11
58.08334882285402
 21
2140.2705091635817
 31
0.0
  0
LINE
  5
101B2
330
1F
100
AcDbEntity
  8
0
100
AcDbLine
 10
94.0
 20
2140.475891428492
 30
0.0
 11
94.00000000000001
 21
2140.2705091635817
 31
0.0
  0
CIRCLE
  5
101B3
330
1F
100
AcDbEntity
  8
0
100
AcDbCircle
 10
107.10993996394802
 20
2620.602329294428
 30
0.0
 40
3.9250000000000007
  0
LINE
  5
101B4
330
1F
100
AcDbEntity
  8
0
100
AcDbLine
 10
94.00000000000001
 20
2586.9628640897117
 30
0.0
 11
58.08334882285403
 21
2586.9628640897117
 31
0.0
  0
ARC
  5
101B5
330
1F
100
AcDbEntity
  8
0
100
AcDbCircle
 10
60.32500000000003
 20
2596.887864089712
 30
0.0
 40
10.175000000000054
100
AcDbArc
 50
180.0
 51
-102.72722369271979
  0
ARC
  5
101B6
330
1F
100
AcDbEntity
  8
0
100
AcDbCircle
 10
58.07500000000002
 20
2596.887864089712
 30
0.0
 40
7.925000000000048
100
AcDbArc
 50
90.0
 51
180.0
  0
LINE
  5
101B7
330
1F
100
AcDbEntity
  8
0
100
AcDbLine
 10
58.07500000000002
 20
2604.8128640897116
 30
0.0
 11
83.31415560019569
 21
2604.8128640897116
 31
0.0
  0
ARC
  5
101B8
330
1F
100
AcDbEntity
  8
0
100
AcDbCircle
 10
94.12365407831186
 20
2571.4711829764087
 30
0.0
 40
35.050149169576954
100
AcDbArc
 50
90.20213527392583
 51
107.962889295545
  0
LINE
  5
101B9
330
1F
100
AcDbEntity
  8
0
100
AcDbLine
 10
94.00000000000001
 20
2606.5211140245365
 30
0.0
 11
94.00000000000003
 21
2605.2128640897117
 31
0.0
  0
LINE
  5
101BA
330
1F
100
AcDbEntity
  8
0
100
AcDbLine
 10
94.00000000000003
 20
2605.2128640897117
 30
0.0
 11
96.00000000000003
 21
2605.2128640897117
 31
0.0
  0
LINE
  5
101BB
330
1F
100
AcDbEntity
  8
0
100
AcDbLine
 10
96.00000000000003
 20
2605.2128640897117
 30
0.0
 11
96.00000000000003
 21
2589.362864089712
 31
0.0
  0
LINE
  5
101BC
330
1F
100
AcDbEntity
  8
0
100
AcDbLine
 10
96.00000000000003
 20
2589.362864089712
 30
0.0
 11
94.00000000000003
 21
2589.362864089712
 31
0.0
  0
LINE
  5
101BD
330
1F
100
AcDbEntity
  8
0
100
AcDbLine
 10
94.00000000000003
 20
2589.362864089712
 30
0.0
 11
94.00000000000003
 21
2587.170449348802
 31
0.0
  0
LINE
  5
101BE
330
1F
100
AcDbEntity
  8
0
100
AcDbLine
 10
94.00000000000003
 20
2587.170449348802
 30
0.0
 11
94.5269386663797
 21
2587.170449348802
 31
0.0
  0
ARC
  5
101BF
330
1F
100
AcDbEntity
  8
0
100
AcDbCircle
 10
94.12365407831184
 20
2620.612043533272
 30
0.0
 40
33.44402577528231
100
AcDbArc
 50
-90.21184270687503
 51
-89.3090824350353
  0
LINE
  5
101C0
330
1F
100
AcDbEntity
  8
0
100
AcDbLine
 10
94.0
 20
2587.168246354622
 30
0.0
 11
94.00000000000001
 21
2586.9628640897117
 31
0.0
  0
LINE
  5
101C1
330
1F
100
AcDbEntity
  8
0
100
AcDbLine
 10
116.15000000000003
 20
2567.6691633601804
 30
0.0
 11
118.15000000000002
 21
2567.6691633601804
 31
0.0
  0
LINE
  5
101C2
330
1F
100
AcDbEntity
  8
0
100
AcDbLine
 10
118.15000000000002
 20
2567.6691633601804
 30
0.0
 11
118.15000000000002
 21
2577.8191633601805
 31
0.0
  0
LINE
  5
101C3
330
1F
100
AcDbEntity
  8
0
100
AcDbLine
 10
118.15000000000002
 20
2577.8191633601805
 30
0.0
 11
116.15000000000003
 21
2577.8191633601805
 31
0.0
  0
LINE
  5
101C4
330
1F
100
AcDbEntity
  8
0
100
AcDbLine
 10
116.15000000000003
 20
2577.8191633601805
 30
0.0
 11
116.15000000000003
 21
2599.224477507388
 31
0.0
  0
LINE
  5
101C5
330
1F
100
AcDbEntity
  8
0
100
AcDbLine
 10
116.15000000000003
 20
2599.224477507388
 30
0.0
 11
118.15000000000002
 21
2599.224477507388
 31
0.0
  0
LINE
  5
101C6
330
1F
100
AcDbEntity
  8
0
100
AcDbLine
 10
118.15000000000002
 20
2599.224477507388
 30
0.0
 11
118.15000000000002
 21
2609.374477507388
 31
0.0
  0
LINE
  5
101C7
330
1F
100
AcDbEntity
  8
0
100
AcDbLine
 10
118.15000000000002
 20
2609.374477507388
 30
0.0
 11
116.15000000000003
 21
2609.374477507388
 31
0.0
  0
LINE
  5
101C8
330
1F
100
AcDbEntity
  8
0
100
AcDbLine
 10
116.15000000000003
 20
2609.374477507388
 30
0.0
 11
116.15000000000003
 21
2630.7030210921153
 31
0.0
  0
LINE
  5
101C9
330
1F
100
AcDbEntity
  8
0
100
AcDbLine
 10
116.15000000000003
 20
2630.7030210921153
 30
0.0
 11
118.15000000000002
 21
2630.7030210921153
 31
0.0
  0
LINE
  5
101CA
330
1F
100
AcDbEntity
  8
0
100
AcDbLine
 10
118.15000000000002
 20
2630.7030210921153
 30
0.0
 11
118.15000000000002
 21
2650.8052190158414
 31
0.0
  0
LINE
  5
101CB
330
1F
100
AcDbEntity
  8
0
100
AcDbLine
 10
118.15000000000002
 20
2650.8052190158414
 30
0.0
 11
116.05390669841701
 21
2650.8052190158414
 31
0.0
  0
SPLINE
  5
101CC
330
1F
100
AcDbEntity
  8
0
100
AcDbSpline
 70
0
 71
3
 72
17
 73
13
 74
0
 42
1e-09
 40
-0.00449807827539124
 40
-0.00449807827539124
 40
-0.00449807827539124
 40
-0.00449807827539124
 40
0.0
 40
0.0
 40
0.0
 40
0.5561829587257026
 40
0.5561829587257026
 40
0.5561829587257026
 40
1.0
 40
1.0
 40
1.0
 40
1.000778382618228
 40
1.000778382618228
 40
1.000778382618228
 40
1.000778382618228
 10
96.00000000000011
 20
2643.466569390251
 30
0.0
 10
96.02494455546119
 20
2643.4666247119626
 30
0.0
 10
96.04988911092225
 20
2643.4666800336736
 30
0.0
 10
96.07483366638333
 20
2643.4667353553846
 30
0.0
 10
99.1479896561349
 20
2643.4735509608195
 30
0.0
 10
102.54000089616284
 20
2644.1679194065814
 30
0.0
 10
106.3325813428373
 20
2645.724194117774
 30
0.0
 10
109.35894489143345
 20
2646.9660538815365
 30
0.0
 10
112.6170572899171
 20
2648.705986835029
 30
0.0
 10
116.03590568662878
 20
2650.794223973947
 30
0.0
 10
116.04190602389153
 20
2650.7978889879114
 30
0.0
 10
116.04790636115428
 20
2650.8015540018764
 30
0.0
 10
116.05390669841701
 20
2650.8052190158414
 30
0.0
  0
LINE
  5
101CD
330
1F
100
AcDbEntity
  8
0
100
AcDbLine
 10
96.0
 20
2643.466569390251
 30
0.0
 11
96.00000000000003
 21
2641.5763510151032
 31
0.0
  0
LINE
  5
101CE
330
1F
100
AcDbEntity
  8
0
100
AcDbLine
 10
96.00000000000003
 20
2641.5763510151032
 30
0.0
 11
94.00000000000003
 21
2641.5763510151032
 31
0.0
  0
LINE
  5
101CF
330
1F
100
AcDbEntity
  8
0
100
AcDbLine
 10
94.00000000000003
 20
2641.5763510151032
 30
0.0
 11
94.00000000000003
 21
2613.6953966124947
 31
0.0
  0
LINE
  5
101D0
330
1F
100
AcDbEntity
  8
0
100
AcDbLine
 10
94.00000000000003
 20
2613.6953966124947
 30
0.0
 11
96.00000000000003
 21
2613.6953966124947
 31
0.0
  0
LINE
  5
101D1
330
1F
100
AcDbEntity
  8
0
100
AcDbLine
 10
96.00000000000003
 20
2613.6953966124947
 30
0.0
 11
96.00000000000003
 21
2612.162864089712
 31
0.0
  0
LINE
  5
101D2
330
1F
100
AcDbEntity
  8
0
100
AcDbLine
 10
96.00000000000003
 20
2612.162864089712
 30
0.0
 11
69.07500000000003
 21
2612.162864089712
 31
0.0
  0
ARC
  5
101D3
330
1F
100
AcDbEntity
  8
0
100
AcDbCircle
 10
69.07500000000009
 20
2622.0878640897117
 30
0.0
 40
9.925000000000137
100
AcDbArc
 50
-127.01397811652475
 51
-90.00000000000043
  0
LINE
  5
101D4
330
1F
100
AcDbEntity
  8
0
100
AcDbLine
 10
63.10005230148419
 20
2614.162864089712
 30
0.0
 11
58.07500000000007
 21
2614.162864089712
 31
0.0
  0
ARC
  5
101D5
330
1F
100
AcDbEntity
  8
0
100
AcDbCircle
 10
58.07500000000004
 20
2622.0878640897117
 30
0.0
 40
7.924999999999878
100
AcDbArc
 50
179.35034670539818
 51
-89.99999999999976
  0
SPLINE
  5
101D6
330
1F
100
AcDbEntity
  8
0
100
AcDbSpline
 70
0
 71
3
 72
17
 73
13
 74
0
 42
1e-09
 40
0.04231749333861692
 40
0.04231749333861692
 40
0.04231749333861692
 40
0.04231749333861692
 40
0.04240570924754958
 40
0.04240570924754958
 40
0.04240570924754958
 40
0.5212028546237748
 40
0.5212028546237748
 40
0.5212028546237748
 40
1.0
 40
1.0
 40
1.0
 40
1.002178005537318
 40
1.002178005537318
 40
1.002178005537318
 40
1.002178005537318
 10
20.97290322297654
 20
2635.95894105581
 30
0.0
 10
20.973493201011138
 20
2635.957871141091
 30
0.0
 10
20.97408317904562
 20
2635.956801226372
 30
0.0
 10
20.974673157080083
 20
2635.955731311653
 30
0.0
 10
24.171872973513715
 20
2630.1576660567043
 30
0.0
 10
28.061401602309786
 20
2625.8373562474508
 30
0.0
 10
32.91083071997052
 20
2623.5554566672363
 30
0.0
 10
37.76025983763124
 20
2621.273557087022
 30
0.0
 10
43.56162706716872
 20
2620.9873166553375
 30
0.0
 10
50.06166573396507
 20
2622.161669220626
 30
0.0
 10
50.09128029857942
 20
2622.167019641094
 30
0.0
 10
50.12089486319378
 20
2622.172370061562
 30
0.0
 10
50.15050942780817
 20
2622.17772048203
 30
0.0
  0
ARC
  5
101D7
330
1F
100
AcDbEntity
  8
0
100
AcDbCircle
 10
17.901139190790822
 20
2633.852431877774
 30
0.0
 40
3.724663097057144
100
AcDbArc
 50
34.440977291308904
 51
87.29717447490553
  0
LINE
  5
101D8
330
1F
100
AcDbEntity
  8
0
100
AcDbLine
 10
18.076778325963204
 20
2637.5729514759987
 30
0.0
 11
17.72550005561935
 21
2637.5729514759987
 31
0.0
  0
ARC
  5
101D9
330
1F
100
AcDbEntity
  8
0
100
AcDbCircle
 10
17.901139190790822
 20
2633.852431877774
 30
0.0
 40
3.7246630970571033
100
AcDbArc
 50
92.70282552508039
 51
120.69174990396674
  0
LINE
  5
101DA
330
1F
100
AcDbEntity
  8
0
100
AcDbLine
 10
16.00000000000003
 20
2637.055365683493
 30
0.0
 11
16.00000000000003
 21
2629.5276198567826
 31
0.0
  0
LINE
  5
101DB
330
1F
100
AcDbEntity
  8
0
100
AcDbLine
 10
16.00000000000003
 20
2629.5276198567826
 30
0.0
 11
10.000000000000014
 21
2629.5276198567826
 31
0.0
  0
LINE
  5
101DC
330
1F
100
AcDbEntity
  8
0
100
AcDbLine
 10
10.000000000000014
 20
2629.5276198567826
 30
0.0
 11
10.000000000000014
 21
2625.1788400506816
 31
0.0
  0
ARC
  5
101DD
330
1F
100
AcDbEntity
  8
0
100
AcDbCircle
 10
12.075000000000003
 20
2625.1788400506816
 30
0.0
 40
2.0749999999999957
100
AcDbArc
 50
180.0
 51
-90.00000000000001
  0
LINE
  5
101DE
330
1F
100
AcDbEntity
  8
0
100
AcDbLine
 10
12.075000000000003
 20
2623.103840050682
 30
0.0
 11
16.00000000000003
 21
2623.103840050682
 31
0.0
  0
LINE
  5
101DF
330
1F
100
AcDbEntity
  8
0
100
AcDbLine
 10
16.00000000000003
 20
2623.103840050682
 30
0.0
 11
16.00000000000003
 21
2619.103840050682
 31
0.0
  0
LINE
  5
101E0
330
1F
100
AcDbEntity
  8
0
100
AcDbLine
 10
16.00000000000003
 20
2619.103840050682
 30
0.0
 11
18.000000000000014
 21
2619.103840050682
 31
0.0
  0
LINE
  5
101E1
330
1F
100
AcDbEntity
  8
0
100
AcDbLine
 10
18.000000000000014
 20
2619.103840050682
 30
0.0
 11
18.000000000000014
 21
2602.2538400506814
 31
0.0
  0
LINE
  5
101E2
330
1F
100
AcDbEntity
  8
0
100
AcDbLine
 10
18.000000000000014
 20
2602.2538400506814
 30
0.0
 11
16.00000000000003
 21
2602.2538400506814
 31
0.0
  0
LINE
  5
101E3
330
1F
100
AcDbEntity
  8
0
100
AcDbLine
 10
16.00000000000003
 20
2602.2538400506814
 30
0.0
 11
16.00000000000003
 21
2598.2538400506814
 31
0.0
  0
LINE
  5
101E4
330
1F
100
AcDbEntity
  8
0
100
AcDbLine
 10
16.00000000000003
 20
2598.2538400506814
 30
0.0
 11
15.075000000000017
 21
2598.2538400506814
 31
0.0
  0
ARC
  5
101E5
330
1F
100
AcDbEntity
  8
0
100
AcDbCircle
 10
15.075000000000031
 20
2597.1788400506816
 30
0.0
 40
1.075000000000017
100
AcDbArc
 50
90.00000000000077
 51
180.0
  0
LINE
  5
101E6
330
1F
100
AcDbEntity
  8
0
100
AcDbLine
 10
14.000000000000014
 20
2597.1788400506816
 30
0.0
 11
14.000000000000014
 21
2591.103840050682
 31
0.0
  0
LINE
  5
101E7
330
1F
100
AcDbEntity
  8
0
100
AcDbLine
 10
14.000000000000014
 20
2591.103840050682
 30
0.0
 11
16.00000000000003
 21
2591.103840050682
 31
0.0
  0
LINE
  5
101E8
330
1F
100
AcDbEntity
  8
0
100
AcDbLine
 10
16.00000000000003
 20
2591.103840050682
 30
0.0
 11
16.00000000000003
 21
2580.5202131024053
 31
0.0
  0
SPLINE
  5
101E9
330
1F
100
AcDbEntity
  8
0
100
AcDbSpline
 70
0
 71
3
 72
14
 73
10
 74
0
 42
1e-09
 40
0.17614562206777268
 40
0.17614562206777268
 40
0.17614562206777268
 40
0.17614562206777268
 40
0.17634480490882232
 40
0.17634480490882232
 40
0.17634480490882232
 40
0.4874470278342509
 40
0.4874470278342509
 40
0.4874470278342509
 40
0.4888906412142181
 40
0.4888906412142181
 40
0.4888906412142181
 40
0.4888906412142181
 10
16.00000000000003
 20
2580.5202131024053
 30
0.0
 10
16.00117981934264
 20
2580.5165101074886
 30
0.0
 10
16.0023596386852
 20
2580.5128071125723
 30
0.0
 10
16.003539458027774
 20
2580.509104117656
 30
0.0
 10
17.849841609991152
 20
2574.714278388024
 30
0.0
 10
20.93014690872571
 20
2569.7968134795183
 30
0.0
 10
25.460296770557058
 20
2565.9205587256306
 30
0.0
 10
25.48126832775546
 20
2565.902614264461
 30
0.0
 10
25.502239884953852
 20
2565.884669803292
 30
0.0
 10
25.52321144215223
 20
2565.8667253421227
 30
0.0
  0
LINE
  5
101EA
330
1F
100
AcDbEntity
  8
0
100
AcDbLine
 10
25.52321144215223
 20
2565.8667253421227
 30
0.0
 11
28.94044048171193
 21
2570.766902832812
 31
0.0
  0
LINE
  5
101EB
330
1F
100
AcDbEntity
  8
0
100
AcDbLine
 10
28.94044048171193
 20
2570.766902832812
 30
0.0
 11
30.457893210440417
 21
2569.708679219357
 31
0.0
  0
LINE
  5
101EC
330
1F
100
AcDbEntity
  8
0
100
AcDbLine
 10
30.457893210440417
 20
2569.708679219357
 30
0.0
 11
26.969126625347137
 21
2564.7059195879024
 31
0.0
  0
SPLINE
  5
101ED
330
1F
100
AcDbEntity
  8
0
100
AcDbSpline
 70
0
 71
3
 72
17
 73
13
 74
0
 42
1e-09
 40
0.520872743649213
 40
0.520872743649213
 40
0.520872743649213
 40
0.520872743649213
 40
0.5221110217195426
 40
0.5221110217195426
 40
0.5221110217195426
 40
0.9036145591389602
 40
0.9036145591389602
 40
0.9036145591389602
 40
1.0
 40
1.0
 40
1.0
 40
1.0000589129462754
 40
1.0000589129462754
 40
1.0000589129462754
 40
1.0000589129462754
 10
26.969126625347137
 20
2564.7059195879024
 30
0.0
 10
26.988356290606717
 20
2564.691416129516
 30
0.0
 10
27.00758595586629
 20
2564.6769126711297
 30
0.0
 10
27.02681562112585
 20
2564.6624092127436
 30
0.0
 10
32.96451945818926
 20
2560.1840556195707
 30
0.0
 10
40.99558597920965
 20
2557.214215026745
 30
0.0
 10
50.53878543578949
 20
2555.330537863721
 30
0.0
 10
52.9498390607944
 20
2554.854633878594
 30
0.0
 10
55.45943336627224
 20
2554.449487184336
 30
0.0
 10
58.06540910146738
 20
2554.1134798530393
 30
0.0
 10
58.067000995592736
 20
2554.113274598597
 30
0.0
 10
58.06859288971809
 20
2554.1130693441546
 30
0.0
 10
58.070184783843445
 20
2554.112864089712
 30
0.0
  0
LINE
  5
101EE
330
1F
100
AcDbEntity
  8
0
100
AcDbLine
 10
58.070184783843466
 20
2554.112864089712
 30
0.0
 11
96.07270137528027
 21
2554.112864089712
 31
0.0
  0
SPLINE
  5
101EF
330
1F
100
AcDbEntity
  8
0
100
AcDbSpline
 70
0
 71
3
 72
20
 73
16
 74
0
 42
1e-09
 40
7.641245378691654e-05
 40
7.641245378691654e-05
 40
7.641245378691654e-05
 40
7.641245378691654e-05
 40
0.24539016463589694
 40
0.24539016463589694
 40
0.24539016463589694
 40
0.5166558551735333
 40
0.5166558551735333
 40
0.5166558551735333
 40
0.7955998989399165
 40
0.7955998989399165
 40
0.7955998989399165
 40
1.0
 40
1.0
 40
1.0
 40
1.0055020345658592
 40
1.0055020345658592
 40
1.0055020345658592
 40
1.0055020345658592
 10
96.07270137528027
 20
2554.112864089712
 30
0.0
 10
98.53330011286837
 20
2553.9620665283323
 30
0.0
 10
100.51061134529658
 20
2554.4422697743
 30
0.0
 10
102.1781266510649
 20
2555.1917803379943
 30
0.0
 10
104.02204973681808
 20
2556.0205822246285
 30
0.0
 10
105.51850189732943
 20
2557.112757355803
 30
0.0
 10
107.03497053644207
 20
2557.7498745636826
 30
0.0
 10
108.59436381467272
 20
2558.4050257918634
 30
0.0
 10
110.18431905291465
 20
2558.567231528545
 30
0.0
 10
111.94017045135845
 20
2558.098721096243
 30
0.0
 10
113.22679481674187
 20
2557.7554136055464
 30
0.0
 10
114.59219440032342
 20
2557.092111748597
 30
0.0
 10
116.03322262150814
 20
2556.1255772480326
 30
0.0
 10
116.07214841433876
 20
2556.0994687227594
 30
0.0
 10
116.1110742071694
 20
2556.0733601974857
 30
0.0
 10
116.15000000000002
 20
2556.0472516722125
 30
0.0
  0
LINE
  5
101F0
330
1F
100
AcDbEntity
  8
0
100
AcDbLine
 10
116.15000000000002
 20
2556.0472516722125
 30
0.0
 11
116.15000000000003
 21
2567.6691633601804
 31
0.0
  0
CIRCLE
  5
101F1
330
1F
100
AcDbEntity
  8
0
100
AcDbCircle
 10
107.10993996394802
 20
3067.322361575827
 30
0.0
 40
3.9250000000000007
  0
ARC
  5
101F2
330
1F
100
AcDbEntity
  8
0
100
AcDbCircle
 10
94.12365407831183
 20
3018.1912152578075
 30
0.0
 40
35.05014916957721
100
AcDbArc
 50
90.20213527392583
 51
107.96288929554494
  0
LINE
  5
101F3
330
1F
100
AcDbEntity
  8
0
100
AcDbLine
 10
94.0
 20
3053.2411463059357
 30
0.0
 11
94.00000000000001
 21
3051.8343962041235
 31
0.0
  0
LINE
  5
101F4
330
1F
100
AcDbEntity
  8
0
100
AcDbLine
 10
94.00000000000001
 20
3051.8343962041235
 30
0.0
 11
96.00000000000001
 21
3051.8343962041235
 31
0.0
  0
LINE
  5
101F5
330
1F
100
AcDbEntity
  8
0
100
AcDbLine
 10
96.00000000000001
 20
3051.8343962041235
 30
0.0
 11
96.00000000000001
 21
3047.995543440538
 31
0.0
  0
LINE
  5
101F6
330
1F
100
AcDbEntity
  8
0
100
AcDbLine
 10
96.00000000000001
 20
3047.995543440538
 30
0.0
 11
94.00000000000001
 21
3047.995543440538
 31
0.0
  0
LINE
  5
101F7
330
1F
100
AcDbEntity
  8
0
100
AcDbLine
 10
94.00000000000001
 20
3047.995543440538
 30
0.0
 11
94.00000000000001
 21
3039.8455434405378
 31
0.0
  0
LINE
  5
101F8
330
1F
100
AcDbEntity
  8
0
100
AcDbLine
 10
94.00000000000001
 20
3039.8455434405378
 30
0.0
 11
96.00000000000001
 21
3039.8455434405378
 31
0.0
  0
LINE
  5
101F9
330
1F
100
AcDbEntity
  8
0
100
AcDbLine
 10
96.00000000000001
 20
3039.8455434405378
 30
0.0
 11
96.00000000000001
 21
3032.3978700641933
 31
0.0
  0
ARC
  5
101FA
330
1F
100
AcDbEntity
  8
0
100
AcDbCircle
 10
90.49417788483615
 20
3127.440752877867
 30
0.0
 40
95.20222503018296
100
AcDbArc
 50
-97.31828059677642
 51
-86.68456818535276
  0
LINE
  5
101FB
330
1F
100
AcDbEntity
  8
0
100
AcDbLine
 10
78.36721634659048
 20
3033.014059329128
 30
0.0
 11
58.08490653054714
 21
3033.014059329128
 31
0.0
  0
ARC
  5
101FC
330
1F
100
AcDbEntity
  8
0
100
AcDbCircle
 10
60.78007634096003
 20
3043.0192646771716
 30
0.0
 40
10.361856704446428
100
AcDbArc
 50
143.27402698276663
 51
-105.07628724995978
  0
ARC
  5
101FD
330
1F
100
AcDbEntity
  8
0
100
AcDbCircle
 10
58.074999999999996
 20
3043.607896371111
 30
0.0
 40
7.925000000000031
100
AcDbArc
 50
89.99999999999986
 51
134.96094322721424
  0
LINE
  5
101FE
330
1F
100
AcDbEntity
  8
0
100
AcDbLine
 10
58.07500000000001
 20
3051.532896371111
 30
0.0
 11
83.31415560019563
 21
3051.532896371111
 31
0.0
  0
ARC
  5
101FF
330
1F
100
AcDbEntity
  8
0
100
AcDbCircle
 10
15.075000000000003
 20
3043.898872332081
 30
0.0
 40
1.0749999999999993
100
AcDbArc
 50
90.0
 51
180.0
  0
LINE
  5
10200
330
1F
100
AcDbEntity
  8
0
100
AcDbLine
 10
14.000000000000007
 20
3043.898872332081
 30
0.0
 11
13.999999999999986
 21
3037.823872332081
 31
0.0
  0
LINE
  5
10201
330
1F
100
AcDbEntity
  8
0
100
AcDbLine
 10
13.999999999999986
 20
3037.823872332081
 30
0.0
 11
16.000000000000014
 21
3037.823872332081
 31
0.0
  0
LINE
  5
10202
330
1F
100
AcDbEntity
  8
0
100
AcDbLine
 10
16.000000000000014
 20
3037.823872332081
 30
0.0
 11
16.000000000000036
 21
3027.2402453838044
 31
0.0
  0
SPLINE
  5
10203
330
1F
100
AcDbEntity
  8
0
100
AcDbSpline
 70
0
 71
3
 72
14
 73
10
 74
0
 42
1e-09
 40
0.1761456220677707
 40
0.1761456220677707
 40
0.1761456220677707
 40
0.1761456220677707
 40
0.17634480490882232
 40
0.17634480490882232
 40
0.17634480490882232
 40
0.4874470278342509
 40
0.4874470278342509
 40
0.4874470278342509
 40
0.48889064121421816
 40
0.48889064121421816
 40
0.48889064121421816
 40
0.48889064121421816
 10
16.00000000000005
 20
3027.2402453838044
 30
0.0
 10
16.001179819342596
 20
3027.236542388888
 30
0.0
 10
16.00235963868517
 20
3027.2328393939715
 30
0.0
 10
16.003539458027767
 20
3027.2291363990553
 30
0.0
 10
17.849841609991145
 20
3021.434310669423
 30
0.0
 10
20.930146908725703
 20
3016.5168457609175
 30
0.0
 10
25.46029677055705
 20
3012.64059100703
 30
0.0
 10
25.481268327755444
 20
3012.6226465458603
 30
0.0
 10
25.502239884953823
 20
3012.6047020846913
 30
0.0
 10
25.523211442152224
 20
3012.586757623522
 30
0.0
  0
LINE
  5
10204
330
1F
100
AcDbEntity
  8
0
100
AcDbLine
 10
25.52321144215224
 20
3012.586757623522
 30
0.0
 11
28.940440481711924
 21
3017.486935114211
 31
0.0
  0
LINE
  5
10205
330
1F
100
AcDbEntity
  8
0
100
AcDbLine
 10
28.940440481711924
 20
3017.486935114211
 30
0.0
 11
30.457893210440403
 21
3016.428711500756
 31
0.0
  0
LINE
  5
10206
330
1F
100
AcDbEntity
  8
0
100
AcDbLine
 10
30.457893210440403
 20
3016.428711500756
 30
0.0
 11
26.969126625347144
 21
3011.4259518693016
 31
0.0
  0
SPLINE
  5
10207
330
1F
100
AcDbEntity
  8
0
100
AcDbSpline
 70
0
 71
3
 72
17
 73
13
 74
0
 42
1e-09
 40
0.5208727436492137
 40
0.5208727436492137
 40
0.5208727436492137
 40
0.5208727436492137
 40
0.5221110217195426
 40
0.5221110217195426
 40
0.5221110217195426
 40
0.9036145591390676
 40
0.9036145591390676
 40
0.9036145591390676
 40
1.0
 40
1.0
 40
1.0
 40
1.0000589129462774
 40
1.0000589129462774
 40
1.0000589129462774
 40
1.0000589129462774
 10
26.969126625347215
 20
3011.4259518693016
 30
0.0
 10
26.988356290606745
 20
3011.411448410915
 30
0.0
 10
27.007585955866297
 20
3011.396944952529
 30
0.0
 10
27.026815621125863
 20
3011.3824414941428
 30
0.0
 10
32.964519458190935
 20
3006.9040879009685
 30
0.0
 10
40.99558597921421
 20
3003.934247308143
 30
0.0
 10
50.53878543579753
 20
3002.050570145119
 30
0.0
 10
52.94983906079995
 20
3001.5746661599924
 30
0.0
 10
55.45943336627513
 20
3001.1695194657345
 30
0.0
 10
58.06540910146737
 20
3000.8335121344385
 30
0.0
 10
58.06700099559278
 20
3000.833306879996
 30
0.0
 10
58.06859288971817
 20
3000.8331016255534
 30
0.0
 10
58.07018478384347
 20
3000.832896371111
 30
0.0
  0
LINE
  5
10208
330
1F
100
AcDbEntity
  8
0
100
AcDbLine
 10
58.070184783843466
 20
3000.832896371111
 30
0.0
 11
96.07270137527999
 21
3000.832896371111
 31
0.0
  0
SPLINE
  5
10209
330
1F
100
AcDbEntity
  8
0
100
AcDbSpline
 70
0
 71
3
 72
20
 73
16
 74
0
 42
1e-09
 40
7.641245377728414e-05
 40
7.641245377728414e-05
 40
7.641245377728414e-05
 40
7.641245377728414e-05
 40
0.2453901646357988
 40
0.2453901646357988
 40
0.2453901646357988
 40
0.5166558551734053
 40
0.5166558551734053
 40
0.5166558551734053
 40
0.7955998989399418
 40
0.7955998989399418
 40
0.7955998989399418
 40
1.0
 40
1.0
 40
1.0
 40
1.0055020345658594
 40
1.0055020345658594
 40
1.0055020345658594
 40
1.0055020345658594
 10
96.07270137527999
 20
3000.832896371111
 30
0.0
 10
98.53330011286724
 20
3000.682098809732
 30
0.0
 10
100.51061134529493
 20
3001.1623020556985
 30
0.0
 10
102.17812665106291
 20
3001.9118126193925
 30
0.0
 10
104.02204973681614
 20
3002.7406145060263
 30
0.0
 10
105.51850189732745
 20
3003.8327896372007
 30
0.0
 10
107.03497053643991
 20
3004.469906845081
 30
0.0
 10
108.59436381467142
 20
3005.1250580732626
 30
0.0
 10
110.18431905291412
 20
3005.2872638099443
 30
0.0
 10
111.94017045135894
 20
3004.818753377642
 30
0.0
 10
113.2267948167422
 20
3004.4754458869456
 30
0.0
 10
114.59219440032362
 20
3003.812144029996
 30
0.0
 10
116.03322262150813
 20
3002.845609529432
 30
0.0
 10
116.07214841433876
 20
3002.8195010041586
 30
0.0
 10
116.11107420716938
 20
3002.793392478885
 30
0.0
 10
116.15000000000002
 20
3002.7672839536117
 30
0.0
  0
LINE
  5
1020A
330
1F
100
AcDbEntity
  8
0
100
AcDbLine
 10
116.15000000000002
 20
3002.7672839536117
 30
0.0
 11
116.15000000000002
 21
3014.3891956415796
 31
0.0
  0
LINE
  5
1020B
330
1F
100
AcDbEntity
  8
0
100
AcDbLine
 10
116.15000000000002
 20
3014.3891956415796
 30
0.0
 11
118.15000000000002
 21
3014.3891956415796
 31
0.0
  0
LINE
  5
1020C
330
1F
100
AcDbEntity
  8
0
100
AcDbLine
 10
118.15000000000002
 20
3014.3891956415796
 30
0.0
 11
118.15000000000002
 21
3024.5391956415797
 31
0.0
  0
LINE
  5
1020D
330
1F
100
AcDbEntity
  8
0
100
AcDbLine
 10
118.15000000000002
 20
3024.5391956415797
 30
0.0
 11
116.15000000000002
 21
3024.5391956415797
 31
0.0
  0
LINE
  5
1020E
330
1F
100
AcDbEntity
  8
0
100
AcDbLine
 10
116.15000000000002
 20
3024.5391956415797
 30
0.0
 11
116.15000000000002
 21
3045.9445097887874
 31
0.0
  0
LINE
  5
1020F
330
1F
100
AcDbEntity
  8
0
100
AcDbLine
 10
116.15000000000002
 20
3045.9445097887874
 30
0.0
 11
118.15000000000002
 21
3045.9445097887874
 31
0.0
  0
LINE
  5
10210
330
1F
100
AcDbEntity
  8
0
100
AcDbLine
 10
118.15000000000002
 20
3045.9445097887874
 30
0.0
 11
118.15000000000002
 21
3056.094509788787
 31
0.0
  0
LINE
  5
10211
330
1F
100
AcDbEntity
  8
0
100
AcDbLine
 10
118.15000000000002
 20
3056.094509788787
 30
0.0
 11
116.15000000000002
 21
3056.094509788787
 31
0.0
  0
LINE
  5
10212
330
1F
100
AcDbEntity
  8
0
100
AcDbLine
 10
116.15000000000002
 20
3056.094509788787
 30
0.0
 11
116.15000000000002
 21
3077.4230533735144
 31
0.0
  0
LINE
  5
10213
330
1F
100
AcDbEntity
  8
0
100
AcDbLine
 10
116.15000000000002
 20
3077.4230533735144
 30
0.0
 11
118.15000000000002
 21
3077.4230533735144
 31
0.0
  0
LINE
  5
10214
330
1F
100
AcDbEntity
  8
0
100
AcDbLine
 10
118.15000000000002
 20
3077.4230533735144
 30
0.0
 11
118.15000000000002
 21
3097.5252512972406
 31
0.0
  0
LINE
  5
10215
330
1F
100
AcDbEntity
  8
0
100
AcDbLine
 10
118.15000000000002
 20
3097.5252512972406
 30
0.0
 11
116.05390669841705
 21
3097.5252512972406
 31
0.0
  0
SPLINE
  5
10216
330
1F
100
AcDbEntity
  8
0
100
AcDbSpline
 70
0
 71
3
 72
17
 73
13
 74
0
 42
1e-09
 40
-1.000778382618217
 40
-1.000778382618217
 40
-1.000778382618217
 40
-1.000778382618217
 40
-1.0
 40
-1.0
 40
-1.0
 40
-0.3946745508473505
 40
-0.3946745508473505
 40
-0.3946745508473505
 40
0.0
 40
0.0
 40
0.0
 40
0.004498078275395947
 40
0.004498078275395947
 40
0.004498078275395947
 40
0.004498078275395947
 10
116.05390669841665
 20
3097.5252512972406
 30
0.0
 10
116.04790636115408
 20
3097.5215862832756
 30
0.0
 10
116.04190602389141
 20
3097.5179212693106
 30
0.0
 10
116.03590568662874
 20
3097.5142562553456
 30
0.0
 10
111.37291227073317
 20
3094.666093687223
 30
0.0
 10
107.00950488069103
 20
3092.466505487698
 30
0.0
 10
103.12542378837642
 20
3091.2965327187458
 30
0.0
 10
100.59298778604114
 20
3090.5337059158473
 30
0.0
 10
98.25558451627985
 20
3090.1916040776914
 30
0.0
 10
96.07483366638331
 20
3090.1867676367838
 30
0.0
 10
96.04988911092221
 20
3090.186712315073
 30
0.0
 10
96.0249445554611
 20
3090.186656993362
 30
0.0
 10
96.00000000000004
 20
3090.1866016716504
 30
0.0
  0
LINE
  5
10217
330
1F
100
AcDbEntity
  8
0
100
AcDbLine
 10
96.00000000000006
 20
3090.1866016716504
 30
0.0
 11
96.00000000000001
 21
3058.882896371111
 31
0.0
  0
LINE
  5
10218
330
1F
100
AcDbEntity
  8
0
100
AcDbLine
 10
96.00000000000001
 20
3058.882896371111
 30
0.0
 11
69.07500000000002
 21
3058.882896371111
 31
0.0
  0
ARC
  5
10219
330
1F
100
AcDbEntity
  8
0
100
AcDbCircle
 10
69.07499999999995
 20
3068.807896371111
 30
0.0
 40
9.924999999999729
100
AcDbArc
 50
-127.01397811652552
 51
-89.9999999999996
  0
LINE
  5
1021A
330
1F
100
AcDbEntity
  8
0
100
AcDbLine
 10
63.10005230148419
 20
3060.882896371111
 30
0.0
 11
58.07500000000006
 21
3060.882896371111
 31
0.0
  0
ARC
  5
1021B
330
1F
100
AcDbEntity
  8
0
100
AcDbCircle
 10
58.07500000000008
 20
3068.807896371111
 30
0.0
 40
7.924999999999997
100
AcDbArc
 50
179.35034670539818
 51
-90.00000000000017
  0
SPLINE
  5
1021C
330
1F
100
AcDbEntity
  8
0
100
AcDbSpline
 70
0
 71
3
 72
17
 73
13
 74
0
 42
1e-09
 40
-1.0021780055373146
 40
-1.0021780055373146
 40
-1.0021780055373146
 40
-1.0021780055373146
 40
-1.0
 40
-1.0
 40
-1.0
 40
-0.5212028546237748
 40
-0.5212028546237748
 40
-0.5212028546237748
 40
-0.04240570924754958
 40
-0.04240570924754958
 40
-0.04240570924754958
 40
-0.042317493338645505
 40
-0.042317493338645505
 40
-0.042317493338645505
 40
-0.042317493338645505
 10
50.150509427808
 20
3068.8977527634293
 30
0.0
 10
50.12089486319367
 20
3068.8924023429613
 30
0.0
 10
50.09128029857937
 20
3068.8870519224934
 30
0.0
 10
50.06166573396508
 20
3068.8817015020254
 30
0.0
 10
43.561627067168715
 20
3067.7073489367367
 30
0.0
 10
37.76025983763127
 20
3067.993589368421
 30
0.0
 10
32.91083071997053
 20
3070.2754889486355
 30
0.0
 10
28.06140160230978
 20
3072.55738852885
 30
0.0
 10
24.171872973513707
 20
3076.877698338103
 30
0.0
 10
20.974673157080183
 20
3082.675763593052
 30
0.0
 10
20.97408317904584
 20
3082.676833507771
 30
0.0
 10
20.97349320101152
 20
3082.6779034224896
 30
0.0
 10
20.972903222977223
 20
3082.678973337208
 30
0.0
  0
ARC
  5
1021D
330
1F
100
AcDbEntity
  8
0
100
AcDbCircle
 10
17.90113919079078
 20
3080.572464159173
 30
0.0
 40
3.7246630970572925
100
AcDbArc
 50
34.44097729129249
 51
87.2971744749202
  0
LINE
  5
1021E
330
1F
100
AcDbEntity
  8
0
100
AcDbLine
 10
18.076778325962216
 20
3084.292983757398
 30
0.0
 11
17.725500055619342
 21
3084.292983757398
 31
0.0
  0
ARC
  5
1021F
330
1F
100
AcDbEntity
  8
0
100
AcDbCircle
 10
17.90113919079078
 20
3080.572464159173
 30
0.0
 40
3.7246630970572436
100
AcDbArc
 50
92.70282552507973
 51
120.6917499039649
  0
LINE
  5
10220
330
1F
100
AcDbEntity
  8
0
100
AcDbLine
 10
16.000000000000014
 20
3083.7753979648924
 30
0.0
 11
16.000000000000014
 21
3076.247652138182
 31
0.0
  0
LINE
  5
10221
330
1F
100
AcDbEntity
  8
0
100
AcDbLine
 10
16.000000000000014
 20
3076.247652138182
 30
0.0
 11
10.0
 21
3076.247652138182
 31
0.0
  0
LINE
  5
10222
330
1F
100
AcDbEntity
  8
0
100
AcDbLine
 10
10.0
 20
3076.247652138182
 30
0.0
 11
10.0
 21
3071.898872332081
 31
0.0
  0
ARC
  5
10223
330
1F
100
AcDbEntity
  8
0
100
AcDbCircle
 10
12.074999999999996
 20
3071.898872332081
 30
0.0
 40
2.0749999999999957
100
AcDbArc
 50
180.0
 51
-90.00000000000001
  0
LINE
  5
10224
330
1F
100
AcDbEntity
  8
0
100
AcDbLine
 10
12.074999999999996
 20
3069.823872332081
 30
0.0
 11
16.000000000000014
 21
3069.823872332081
 31
0.0
  0
LINE
  5
10225
330
1F
100
AcDbEntity
  8
0
100
AcDbLine
 10
16.000000000000014
 20
3069.823872332081
 30
0.0
 11
16.000000000000014
 21
3065.823872332081
 31
0.0
  0
LINE
  5
10226
330
1F
100
AcDbEntity
  8
0
100
AcDbLine
 10
16.000000000000014
 20
3065.823872332081
 30
0.0
 11
18.000000000000007
 21
3065.823872332081
 31
0.0
  0
LINE
  5
10227
330
1F
100
AcDbEntity
  8
0
100
AcDbLine
 10
18.000000000000007
 20
3065.823872332081
 30
0.0
 11
18.000000000000007
 21
3048.9738723320806
 31
0.0
  0
LINE
  5
10228
330
1F
100
AcDbEntity
  8
0
100
AcDbLine
 10
18.000000000000007
 20
3048.9738723320806
 30
0.0
 11
16.000000000000014
 21
3048.9738723320806
 31
0.0
  0
LINE
  5
10229
330
1F
100
AcDbEntity
  8
0
100
AcDbLine
 10
16.000000000000014
 20
3048.9738723320806
 30
0.0
 11
16.000000000000014
 21
3044.9738723320806
 31
0.0
  0
LINE
  5
1022A
330
1F
100
AcDbEntity
  8
0
100
AcDbLine
 10
16.000000000000014
 20
3044.9738723320806
 30
0.0
 11
15.075000000000003
 21
3044.9738723320806
 31
0.0
  0
LINE
  5
1022B
330
1F
100
AcDbEntity
  8
0
100
AcDbLine
 10
29.655454665691536
 20
3447.525251297241
 30
0.0
 11
74.38075155428848
 21
3447.525251297241
 31
0.0
  0
LINE
  5
1022C
330
1F
100
AcDbEntity
  8
0
100
AcDbLine
 10
74.38075155428848
 20
3447.525251297241
 30
0.0
 11
74.38075155428848
 21
3449.986939074421
 31
0.0
  0
LINE
  5
1022D
330
1F
100
AcDbEntity
  8
0
100
AcDbLine
 10
74.38075155428848
 20
3449.986939074421
 30
0.0
 11
76.23075155428864
 21
3449.986939074421
 31
0.0
  0
LINE
  5
1022E
330
1F
100
AcDbEntity
  8
0
100
AcDbLine
 10
76.23075155428864
 20
3449.986939074421
 30
0.0
 11
76.23075155428864
 21
3447.525251297241
 31
0.0
  0
LINE
  5
1022F
330
1F
100
AcDbEntity
  8
0
100
AcDbLine
 10
76.23075155428864
 20
3447.525251297241
 30
0.0
 11
84.38075155428848
 21
3447.525251297241
 31
0.0
  0
LINE
  5
10230
330
1F
100
AcDbEntity
  8
0
100
AcDbLine
 10
84.38075155428848
 20
3447.525251297241
 30
0.0
 11
84.38075155428848
 21
3449.986939074421
 31
0.0
  0
LINE
  5
10231
330
1F
100
AcDbEntity
  8
0
100
AcDbLine
 10
84.38075155428848
 20
3449.986939074421
 30
0.0
 11
86.23075155428864
 21
3449.986939074421
 31
0.0
  0
LINE
  5
10232
330
1F
100
AcDbEntity
  8
0
100
AcDbLine
 10
86.23075155428864
 20
3449.986939074421
 30
0.0
 11
86.23075155428864
 21
3447.525251297241
 31
0.0
  0
LINE
  5
10233
330
1F
100
AcDbEntity
  8
0
100
AcDbLine
 10
86.23075155428864
 20
3447.525251297241
 30
0.0
 11
149.8054546656914
 21
3447.525251297241
 31
0.0
  0
LINE
  5
10234
330
1F
100
AcDbEntity
  8
0
100
AcDbLine
 10
149.8054546656914
 20
3447.525251297241
 30
0.0
 11
149.8054546656914
 21
3449.986939074421
 31
0.0
  0
LINE
  5
10235
330
1F
100
AcDbEntity
  8
0
100
AcDbLine
 10
149.8054546656914
 20
3449.986939074421
 30
0.0
 11
151.65545466569156
 21
3449.986939074421
 31
0.0
  0
LINE
  5
10236
330
1F
100
AcDbEntity
  8
0
100
AcDbLine
 10
151.65545466569156
 20
3449.986939074421
 30
0.0
 11
151.65545466569156
 21
3447.525251297241
 31
0.0
  0
LINE
  5
10237
330
1F
100
AcDbEntity
  8
0
100
AcDbLine
 10
151.65545466569156
 20
3447.525251297241
 30
0.0
 11
161.0560846549501
 21
3447.525251297241
 31
0.0
  0
LINE
  5
10238
330
1F
100
AcDbEntity
  8
0
100
AcDbLine
 10
161.0560846549501
 20
3447.525251297241
 30
0.0
 11
161.0560846549501
 21
3455.6752512972407
 31
0.0
  0
LINE
  5
10239
330
1F
100
AcDbEntity
  8
0
100
AcDbLine
 10
161.0560846549501
 20
3455.6752512972407
 30
0.0
 11
10.0
 21
3455.6752512972407
 31
0.0
  0
LINE
  5
1023A
330
1F
100
AcDbEntity
  8
0
100
AcDbLine
 10
10.0
 20
3455.6752512972407
 30
0.0
 11
10.0
 21
3447.525251297241
 31
0.0
  0
LINE
  5
1023B
330
1F
100
AcDbEntity
  8
0
100
AcDbLine
 10
10.0
 20
3447.525251297241
 30
0.0
 11
27.80545466569137
 21
3447.525251297241
 31
0.0
  0
LINE
  5
1023C
330
1F
100
AcDbEntity
  8
0
100
AcDbLine
 10
27.80545466569137
 20
3447.525251297241
 30
0.0
 11
27.80545466569137
 21
3449.986939074421
 31
0.0
  0
LINE
  5
1023D
330
1F
100
AcDbEntity
  8
0
100
AcDbLine
 10
27.80545466569137
 20
3449.986939074421
 30
0.0
 11
29.655454665691536
 21
3449.986939074421
 31
0.0
  0
LINE
  5
1023E
330
1F
100
AcDbEntity
  8
0
100
AcDbLine
 10
29.655454665691536
 20
3449.986939074421
 30
0.0
 11
29.655454665691536
 21
3447.525251297241
 31
0.0
  0
LINE
  5
1023F
330
1F
100
AcDbEntity
  8
0
100
AcDbLine
 10
10.0
 20
3805.675251297241
 30
0.0
 11
16.074538452760123
 21
3805.675251297241
 31
0.0
  0
LINE
  5
10240
330
1F
100
AcDbEntity
  8
0
100
AcDbLine
 10
16.074538452760123
 20
3805.675251297241
 30
0.0
 11
16.074538452760194
 21
3808.136939074421
 31
0.0
  0
LINE
  5
10241
330
1F
100
AcDbEntity
  8
0
100
AcDbLine
 10
16.074538452760194
 20
3808.136939074421
 30
0.0
 11
17.92453845276018
 21
3808.136939074421
 31
0.0
  0
LINE
  5
10242
330
1F
100
AcDbEntity
  8
0
100
AcDbLine
 10
17.92453845276018
 20
3808.136939074421
 30
0.0
 11
17.92453845276011
 21
3805.675251297241
 31
0.0
  0
LINE
  5
10243
330
1F
100
AcDbEntity
  8
0
100
AcDbLine
 10
17.92453845276011
 20
3805.675251297241
 30
0.0
 11
26.074538452760017
 21
3805.675251297241
 31
0.0
  0
LINE
  5
10244
330
1F
100
AcDbEntity
  8
0
100
AcDbLine
 10
26.074538452760017
 20
3805.675251297241
 30
0.0
 11
26.074538452760017
 21
3808.136939074421
 31
0.0
  0
LINE
  5
10245
330
1F
100
AcDbEntity
  8
0
100
AcDbLine
 10
26.074538452760017
 20
3808.136939074421
 30
0.0
 11
27.924538452760004
 21
3808.136939074421
 31
0.0
  0
LINE
  5
10246
330
1F
100
AcDbEntity
  8
0
100
AcDbLine
 10
27.924538452760004
 20
3808.136939074421
 30
0.0
 11
27.924538452760004
 21
3805.675251297241
 31
0.0
  0
LINE
  5
10247
330
1F
100
AcDbEntity
  8
0
100
AcDbLine
 10
27.924538452760004
 20
3805.675251297241
 30
0.0
 11
96.47730242941613
 21
3805.675251297241
 31
0.0
  0
LINE
  5
10248
330
1F
100
AcDbEntity
  8
0
100
AcDbLine
 10
96.47730242941613
 20
3805.675251297241
 30
0.0
 11
96.47730242941613
 21
3808.136939074421
 31
0.0
  0
LINE
  5
10249
330
1F
100
AcDbEntity
  8
0
100
AcDbLine
 10
96.47730242941613
 20
3808.136939074421
 30
0.0
 11
98.32730242941615
 21
3808.136939074421
 31
0.0
  0
LINE
  5
1024A
330
1F
100
AcDbEntity
  8
0
100
AcDbLine
 10
98.32730242941615
 20
3808.136939074421
 30
0.0
 11
98.32730242941615
 21
3805.675251297241
 31
0.0
  0
LINE
  5
1024B
330
1F
100
AcDbEntity
  8
0
100
AcDbLine
 10
98.32730242941615
 20
3805.675251297241
 30
0.0
 11
102.57914634989511
 21
3805.675251297241
 31
0.0
  0
LINE
  5
1024C
330
1F
100
AcDbEntity
  8
0
100
AcDbLine
 10
102.57914634989511
 20
3805.675251297241
 30
0.0
 11
102.57914634989511
 21
3813.825251297241
 31
0.0
  0
LINE
  5
1024D
330
1F
100
AcDbEntity
  8
0
100
AcDbLine
 10
102.57914634989511
 20
3813.825251297241
 30
0.0
 11
10.0
 21
3813.825251297241
 31
0.0
  0
LINE
  5
1024E
330
1F
100
AcDbEntity
  8
0
100
AcDbLine
 10
10.0
 20
3813.825251297241
 30
0.0
 11
10.0
 21
3805.675251297241
 31
0.0
  0
LINE
  5
1024F
330
1F
100
AcDbEntity
  8
0
100
AcDbLine
 10
15.149999999999935
 20
4167.825251297241
 30
0.0
 11
17.0000000000001
 21
4167.825251297241
 31
0.0
  0
LINE
  5
10250
330
1F
100
AcDbEntity
  8
0
100
AcDbLine
 10
17.0000000000001
 20
4167.825251297241
 30
0.0
 11
17.0000000000001
 21
4163.825251297241
 31
0.0
  0
LINE
  5
10251
330
1F
100
AcDbEntity
  8
0
100
AcDbLine
 10
17.0000000000001
 20
4163.825251297241
 30
0.0
 11
80.57470311140285
 21
4163.825251297241
 31
9.860761315262648e-31
  0
LINE
  5
10252
330
1F
100
AcDbEntity
  8
0
100
AcDbLine
 10
80.57470311140285
 20
4163.825251297241
 30
-1.7763568394002505e-14
 11
80.57470311140285
 21
4167.825251297241
 31
-1.7763568394002505e-14
  0
LINE
  5
10253
330
1F
100
AcDbEntity
  8
0
100
AcDbLine
 10
80.57470311140285
 20
4167.825251297241
 30
0.0
 11
82.42470311140302
 21
4167.825251297241
 31
2.2186712959340957e-30
  0
LINE
  5
10254
330
1F
100
AcDbEntity
  8
0
100
AcDbLine
 10
82.42470311140302
 20
4167.825251297241
 30
0.0
 11
82.42470311140302
 21
4163.825251297241
 31
0.0
  0
LINE
  5
10255
330
1F
100
AcDbEntity
  8
0
100
AcDbLine
 10
82.42470311140302
 20
4163.825251297241
 30
0.0
 11
90.57470311140285
 21
4163.825251297241
 31
-9.860761315262648e-31
  0
LINE
  5
10256
330
1F
100
AcDbEntity
  8
0
100
AcDbLine
 10
90.57470311140285
 20
4163.825251297241
 30
-1.7763568394002505e-14
 11
90.57470311140285
 21
4167.825251297241
 31
-1.7763568394002505e-14
  0
LINE
  5
10257
330
1F
100
AcDbEntity
  8
0
100
AcDbLine
 10
90.57470311140285
 20
4167.825251297241
 30
0.0
 11
92.42470311140302
 21
4167.825251297241
 31
0.0
  0
LINE
  5
10258
330
1F
100
AcDbEntity
  8
0
100
AcDbLine
 10
92.42470311140302
 20
4167.825251297241
 30
0.0
 11
92.42470311140302
 21
4163.825251297241
 31
0.0
  0
LINE
  5
10259
330
1F
100
AcDbEntity
  8
0
100
AcDbLine
 10
92.42470311140302
 20
4163.825251297241
 30
-1.7763568394002505e-14
 11
137.14999999999998
 21
4163.825251297241
 31
-1.7763568394002505e-14
  0
LINE
  5
1025A
330
1F
100
AcDbEntity
  8
0
100
AcDbLine
 10
137.14999999999998
 20
4163.825251297241
 30
0.0
 11
137.14999999999998
 21
4167.825251297241
 31
0.0
  0
LINE
  5
1025B
330
1F
100
AcDbEntity
  8
0
100
AcDbLine
 10
137.14999999999998
 20
4167.825251297241
 30
0.0
 11
139.0000000000001
 21
4167.825251297241
 31
1.9721522630525295e-30
  0
LINE
  5
1025C
330
1F
100
AcDbEntity
  8
0
100
AcDbLine
 10
139.0000000000001
 20
4167.825251297241
 30
0.0
 11
139.0000000000001
 21
4163.825251297241
 31
2.7755575615628914e-16
  0
LINE
  5
1025D
330
1F
100
AcDbEntity
  8
0
100
AcDbLine
 10
139.0000000000001
 20
4163.825251297241
 30
-1.7763568394002505e-14
 11
141.57500000000005
 21
4163.825251297241
 31
-1.7763568394002505e-14
  0
ARC
  5
1025E
330
1F
100
AcDbEntity
  8
0
100
AcDbCircle
 10
141.57500000000005
 20
4166.400251297241
 30
0.0
 40
2.5749999999999806
100
AcDbArc
 50
-90.0
 51
0.0
  0
LINE
  5
1025F
330
1F
100
AcDbEntity
  8
0
100
AcDbLine
 10
144.14999999999998
 20
4166.400251297241
 30
0.0
 11
144.14999999999998
 21
4171.393571826838
 31
-2.7755575615628914e-16
  0
ARC
  5
10260
330
1F
100
AcDbEntity
  8
0
100
AcDbCircle
 10
141.57500000000005
 20
4171.393571826838
 30
0.0
 40
2.574999999999932
100
AcDbArc
 50
0.0
 51
90.00000000000031
  0
LINE
  5
10261
330
1F
100
AcDbEntity
  8
0
100
AcDbLine
 10
141.57500000000005
 20
4173.968571826838
 30
-1.7763568394002505e-14
 11
92.57470311140288
 21
4173.968571826838
 31
-1.7763568394002508e-14
  0
LINE
  5
10262
330
1F
100
AcDbEntity
  8
0
100
AcDbLine
 10
92.57470311140288
 20
4173.968571826838
 30
0.0
 11
92.57470311140288
 21
4174.077099794342
 31
0.0
  0
LINE
  5
10263
330
1F
100
AcDbEntity
  8
0
100
AcDbLine
 10
92.57470311140288
 20
4174.077099794342
 30
-1.7763568394002505e-14
 11
90.42470311140299
 21
4174.077099794342
 31
-1.7763568394002505e-14
  0
LINE
  5
10264
330
1F
100
AcDbEntity
  8
0
100
AcDbLine
 10
90.42470311140299
 20
4174.077099794342
 30
-1.7763568394002505e-14
 11
90.42470311140299
 21
4173.968571826838
 31
-1.777224201138239e-14
  0
LINE
  5
10265
330
1F
100
AcDbEntity
  8
0
100
AcDbLine
 10
90.42470311140299
 20
4173.968571826838
 30
0.0
 11
82.57470311140288
 21
4173.968571826838
 31
-2.465190328815662e-31
  0
LINE
  5
10266
330
1F
100
AcDbEntity
  8
0
100
AcDbLine
 10
82.57470311140288
 20
4173.968571826838
 30
0.0
 11
82.57470311140288
 21
4174.077099794342
 31
0.0
  0
LINE
  5
10267
330
1F
100
AcDbEntity
  8
0
100
AcDbLine
 10
82.57470311140288
 20
4174.077099794342
 30
-1.7763568394002505e-14
 11
80.42470311140299
 21
4174.077099794342
 31
-1.7763568394002505e-14
  0
LINE
  5
10268
330
1F
100
AcDbEntity
  8
0
100
AcDbLine
 10
80.42470311140299
 20
4174.077099794342
 30
-1.7763568394002505e-14
 11
80.42470311140299
 21
4173.968571826838
 31
-1.7763568394002505e-14
  0
LINE
  5
10269
330
1F
100
AcDbEntity
  8
0
100
AcDbLine
 10
80.42470311140299
 20
4173.968571826838
 30
0.0
 11
17.149999999999963
 21
4173.968571826838
 31
-9.860761315262648e-31
  0
LINE
  5
1026A
330
1F
100
AcDbEntity
  8
0
100
AcDbLine
 10
17.149999999999963
 20
4173.968571826838
 30
-1.7763568394002505e-14
 11
17.149999999999963
 21
4174.077099794342
 31
-1.7763568394002505e-14
  0
LINE
  5
1026B
330
1F
100
AcDbEntity
  8
0
100
AcDbLine
 10
17.149999999999963
 20
4174.077099794342
 30
-1.7763568394002505e-14
 11
15.000000000000071
 21
4174.077099794342
 31
-1.7763568394002505e-14
  0
LINE
  5
1026C
330
1F
100
AcDbEntity
  8
0
100
AcDbLine
 10
15.000000000000071
 20
4174.077099794342
 30
-1.7763568394002505e-14
 11
15.000000000000071
 21
4173.968571826838
 31
-1.7763568394002505e-14
  0
LINE
  5
1026D
330
1F
100
AcDbEntity
  8
0
100
AcDbLine
 10
15.000000000000071
 20
4173.968571826838
 30
0.0
 11
12.575000000000003
 21
4173.968571826838
 31
1.9721522630525295e-30
  0
ARC
  5
1026E
330
1F
100
AcDbEntity
  8
0
100
AcDbCircle
 10
12.575000000000003
 20
4171.393571826838
 30
0.0
 40
2.5749999999999984
100
AcDbArc
 50
90.0
 51
180.0
  0
LINE
  5
1026F
330
1F
100
AcDbEntity
  8
0
100
AcDbLine
 10
10.000000000000071
 20
4171.393571826838
 30
0.0
 11
10.000000000000071
 21
4166.400251297241
 31
5.551115123125783e-16
  0
ARC
  5
10270
330
1F
100
AcDbEntity
  8
0
100
AcDbCircle
 10
12.575000000000003
 20
4166.400251297241
 30
0.0
 40
2.574999999999932
100
AcDbArc
 50
180.0
 51
-90.00000000000027
  0
LINE
  5
10271
330
1F
100
AcDbEntity
  8
0
100
AcDbLine
 10
12.575000000000003
 20
4163.825251297241
 30
-1.7763568394002505e-14
 11
15.149999999999935
 21
4163.825251297241
 31
-1.7763568394002505e-14
  0
LINE
  5
10272
330
1F
100
AcDbEntity
  8
0
100
AcDbLine
 10
15.149999999999935
 20
4163.825251297241
 30
0.0
 11
15.149999999999935
 21
4167.825251297241
 31
0.0
  0
ARC
  5
10273
330
1F
100
AcDbEntity
  8
0
100
AcDbCircle
 10
12.075000000000102
 20
4526.152099794342
 30
0.0
 40
2.0750000000001023
100
AcDbArc
 50
180.0
 51
-90.00000000000195
  0
LINE
  5
10274
330
1F
100
AcDbEntity
  8
0
100
AcDbLine
 10
12.075000000000031
 20
4524.077099794342
 30
0.0
 11
15.150000000000006
 21
4524.077099794342
 31
-4.930380657631324e-31
  0
LINE
  5
10275
330
1F
100
AcDbEntity
  8
0
100
AcDbLine
 10
15.150000000000006
 20
4524.077099794342
 30
0.0
 11
15.150000000000006
 21
4528.077099794342
 31
0.0
  0
LINE
  5
10276
330
1F
100
AcDbEntity
  8
0
100
AcDbLine
 10
15.150000000000006
 20
4528.077099794342
 30
0.0
 11
17.00000000000003
 21
4528.077099794342
 31
0.0
  0
LINE
  5
10277
330
1F
100
AcDbEntity
  8
0
100
AcDbLine
 10
17.00000000000003
 20
4528.077099794342
 30
0.0
 11
17.00000000000003
 21
4524.077099794342
 31
0.0
  0
LINE
  5
10278
330
1F
100
AcDbEntity
  8
0
100
AcDbLine
 10
17.00000000000003
 20
4524.077099794342
 30
0.0
 11
85.55276397665615
 21
4524.077099794342
 31
0.0
  0
LINE
  5
10279
330
1F
100
AcDbEntity
  8
0
100
AcDbLine
 10
85.55276397665615
 20
4524.077099794342
 30
0.0
 11
85.55276397665615
 21
4528.077099794342
 31
0.0
  0
LINE
  5
1027A
330
1F
100
AcDbEntity
  8
0
100
AcDbLine
 10
85.55276397665615
 20
4528.077099794342
 30
0.0
 11
87.40276397665613
 21
4528.077099794342
 31
1.617647477317335e-30
  0
LINE
  5
1027B
330
1F
100
AcDbEntity
  8
0
100
AcDbLine
 10
87.40276397665613
 20
4528.077099794342
 30
0.0
 11
87.40276397665613
 21
4524.077099794342
 31
0.0
  0
LINE
  5
1027C
330
1F
100
AcDbEntity
  8
0
100
AcDbLine
 10
87.40276397665613
 20
4524.077099794342
 30
0.0
 11
95.55276397665551
 21
4524.077099794342
 31
0.0
  0
LINE
  5
1027D
330
1F
100
AcDbEntity
  8
0
100
AcDbLine
 10
95.55276397665551
 20
4524.077099794342
 30
0.0
 11
95.5527639766562
 21
4528.077099794342
 31
0.0
  0
LINE
  5
1027E
330
1F
100
AcDbEntity
  8
0
100
AcDbLine
 10
95.5527639766562
 20
4528.077099794342
 30
0.0
 11
97.40276397665617
 21
4528.077099794342
 31
0.0
  0
LINE
  5
1027F
330
1F
100
AcDbEntity
  8
0
100
AcDbLine
 10
97.40276397665617
 20
4528.077099794342
 30
0.0
 11
97.40276397665554
 21
4524.077099794342
 31
0.0
  0
LINE
  5
10280
330
1F
100
AcDbEntity
  8
0
100
AcDbLine
 10
97.40276397665554
 20
4524.077099794342
 30
0.0
 11
100.47776397665618
 21
4524.077099794342
 31
9.860761315262648e-31
  0
ARC
  5
10281
330
1F
100
AcDbEntity
  8
0
100
AcDbCircle
 10
100.47776397665618
 20
4526.152099794342
 30
-1.7763568394002505e-14
 40
2.0749999999999957
100
AcDbArc
 50
-90.0
 51
0.0
  0
LINE
  5
10282
330
1F
100
AcDbEntity
  8
0
100
AcDbLine
 10
102.55276397665618
 20
4526.152099794342
 30
-1.7763568394002505e-14
 11
102.55276397665618
 21
4532.253948291443
 31
-1.7763568394002505e-14
  0
ARC
  5
10283
330
1F
100
AcDbEntity
  8
0
100
AcDbCircle
 10
100.47776397665618
 20
4532.253948291443
 30
0.0
 40
2.0749999999999957
100
AcDbArc
 50
0.0
 51
90.00000000000018
  0
LINE
  5
10284
330
1F
100
AcDbEntity
  8
0
100
AcDbLine
 10
100.47776397665618
 20
4534.328948291442
 30
0.0
 11
12.075000000000031
 21
4534.328948291442
 31
9.860761315262648e-31
  0
ARC
  5
10285
330
1F
100
AcDbEntity
  8
0
100
AcDbCircle
 10
12.075000000000102
 20
4532.253948291443
 30
0.0
 40
2.0750000000001023
100
AcDbArc
 50
90.00000000000196
 51
180.0
  0
LINE
  5
10286
330
1F
100
AcDbEntity
  8
0
100
AcDbLine
 10
10.0
 20
4532.253948291443
 30
0.0
 11
10.0
 21
4526.152099794342
 31
0.0
  0
CIRCLE
  5
10287
330
1F
100
AcDbEntity
  8
0
100
AcDbCircle
 10
30.483205590219214
 20
4916.036633945376
 30
0.0
 40
3.925000000000056
  0
CIRCLE
  5
10288
330
1F
100
AcDbEntity
  8
0
100
AcDbCircle
 10
41.827707143306625
 20
4934.191728197572
 30
0.0
 40
3.925000000000056
  0
LINE
  5
10289
330
1F
100
AcDbEntity
  8
0
100
AcDbLine
 10
70.64706118639795
 20
4988.407246389653
 30
0.0
 11
78.4970611863982
 21
4988.407246389653
 31
0.0
  0
LINE
  5
1028A
330
1F
100
AcDbEntity
  8
0
100
AcDbLine
 10
78.4970611863982
 20
4988.407246389653
 30
0.0
 11
78.4970611863982
 21
4986.557246389652
 31
0.0
  0
LINE
  5
1028B
330
1F
100
AcDbEntity
  8
0
100
AcDbLine
 10
78.4970611863982
 20
4986.557246389652
 30
0.0
 11
70.64706118639795
 21
4986.557246389652
 31
0.0
  0
LINE
  5
1028C
330
1F
100
AcDbEntity
  8
0
100
AcDbLine
 10
70.64706118639795
 20
4986.557246389652
 30
0.0
 11
70.64706118639795
 21
4988.407246389653
 31
0.0
  0
LINE
  5
1028D
330
1F
100
AcDbEntity
  8
0
100
AcDbLine
 10
49.1374060906718
 20
4952.902897805625
 30
0.0
 11
56.98740609067205
 21
4952.902897805625
 31
0.0
  0
LINE
  5
1028E
330
1F
100
AcDbEntity
  8
0
100
AcDbLine
 10
56.98740609067205
 20
4952.902897805625
 30
0.0
 11
56.98740609067205
 21
4951.052897805625
 31
0.0
  0
LINE
  5
1028F
330
1F
100
AcDbEntity
  8
0
100
AcDbLine
 10
56.98740609067205
 20
4951.052897805625
 30
0.0
 11
49.1374060906718
 21
4951.052897805625
 31
0.0
  0
LINE
  5
10290
330
1F
100
AcDbEntity
  8
0
100
AcDbLine
 10
49.1374060906718
 20
4951.052897805625
 30
0.0
 11
49.1374060906718
 21
4952.902897805625
 31
0.0
  0
LINE
  5
10291
330
1F
100
AcDbEntity
  8
0
100
AcDbLine
 10
25.279201996647387
 20
4901.089679936627
 30
0.0
 11
24.411059815365277
 21
4899.456024785416
 31
0.0
  0
LINE
  5
10292
330
1F
100
AcDbEntity
  8
0
100
AcDbLine
 10
24.411059815365277
 20
4899.456024785416
 30
0.0
 11
17.479063633199033
 21
4903.139763230316
 31
0.0
  0
LINE
  5
10293
330
1F
100
AcDbEntity
  8
0
100
AcDbLine
 10
17.479063633199033
 20
4903.139763230316
 30
0.0
 11
18.347205814481143
 21
4904.773418381527
 31
0.0
  0
LINE
  5
10294
330
1F
100
AcDbEntity
  8
0
100
AcDbLine
 10
18.347205814481143
 20
4904.773418381527
 30
0.0
 11
25.279201996647387
 21
4901.089679936627
 31
0.0
  0
LINE
  5
10295
330
1F
100
AcDbEntity
  8
0
100
AcDbLine
 10
84.82679921603979
 20
5006.594208315336
 30
0.0
 11
79.61130898845359
 21
5009.853190954867
 31
0.0
  0
LINE
  5
10296
330
1F
100
AcDbEntity
  8
0
100
AcDbLine
 10
79.61130898845359
 20
5009.853190954867
 30
0.0
 11
78.47198693477868
 21
5008.029884820942
 31
0.0
  0
LINE
  5
10297
330
1F
100
AcDbEntity
  8
0
100
AcDbLine
 10
78.47198693477868
 20
5008.029884820942
 30
0.0
 11
81.01612166382286
 21
5006.440141469353
 31
0.0
  0
LINE
  5
10298
330
1F
100
AcDbEntity
  8
0
100
AcDbLine
 10
81.01612166382286
 20
5006.440141469353
 30
0.0
 11
80.03577478042861
 21
5004.871250144813
 31
0.0
  0
LINE
  5
10299
330
1F
100
AcDbEntity
  8
0
100
AcDbLine
 10
80.03577478042861
 20
5004.871250144813
 30
0.0
 11
77.49164005138415
 21
5006.460993496402
 31
0.0
  0
LINE
  5
1029A
330
1F
100
AcDbEntity
  8
0
100
AcDbLine
 10
77.49164005138415
 20
5006.460993496402
 30
0.0
 11
46.866223389543975
 21
4957.449820691089
 31
0.0
  0
LINE
  5
1029B
330
1F
100
AcDbEntity
  8
0
100
AcDbLine
 10
46.866223389543975
 20
4957.449820691089
 30
0.0
 11
10.934288399944776
 21
4899.6532841231565
 31
0.0
  0
LINE
  5
1029C
330
1F
100
AcDbEntity
  8
0
100
AcDbLine
 10
10.934288399944776
 20
4899.6532841231565
 30
0.0
 11
16.226732614201936
 21
4896.840821492305
 31
0.0
  0
LINE
  5
1029D
330
1F
100
AcDbEntity
  8
0
100
AcDbLine
 10
16.226732614201936
 20
4896.840821492305
 30
0.0
 11
13.935896333657539
 21
4892.529964848101
 31
0.0
  0
ARC
  5
1029E
330
1F
100
AcDbEntity
  8
0
100
AcDbCircle
 10
14.10550913391053
 20
4888.427340586837
 30
0.0
 40
4.106128874149551
100
AcDbArc
 50
92.36740337968526
 51
31.659267816446732
  0
LINE
  5
1029F
330
1F
100
AcDbEntity
  8
0
100
AcDbLine
 10
17.60058221340121
 20
4890.5825107657665
 30
0.0
 11
19.891418493945892
 21
4894.893367409969
 31
0.0
  0
LINE
  5
102A0
330
1F
100
AcDbEntity
  8
0
100
AcDbLine
 10
19.891418493945892
 20
4894.893367409969
 30
0.0
 11
25.195960224034664
 21
4892.074476027142
 31
0.0
  0
LINE
  5
102A1
330
1F
100
AcDbEntity
  8
0
100
AcDbLine
 10
25.195960224034664
 20
4892.074476027142
 30
0.0
 11
65.86147848341501
 21
4957.37234733237
 31
0.0
  0
LINE
  5
102A2
330
1F
100
AcDbEntity
  8
0
100
AcDbLine
 10
65.86147848341501
 20
4957.37234733237
 30
0.0
 11
91.18761056033027
 21
4997.90284686541
 31
0.0
  0
LINE
  5
102A3
330
1F
100
AcDbEntity
  8
0
100
AcDbLine
 10
91.18761056033027
 20
4997.90284686541
 30
0.0
 11
88.6434758312861
 21
4999.492590216999
 31
0.0
  0
LINE
  5
102A4
330
1F
100
AcDbEntity
  8
0
100
AcDbLine
 10
88.6434758312861
 20
4999.492590216999
 30
0.0
 11
89.62382271468034
 21
5001.061481541539
 31
0.0
  0
LINE
  5
102A5
330
1F
100
AcDbEntity
  8
0
100
AcDbLine
 10
89.62382271468034
 20
5001.061481541539
 30
0.0
 11
92.16795744372452
 21
4999.47173818995
 31
0.0
  0
LINE
  5
102A6
330
1F
100
AcDbEntity
  8
0
100
AcDbLine
 10
92.16795744372452
 20
4999.47173818995
 30
0.0
 11
93.30727949739942
 21
5001.295044323875
 31
0.0
  0
LINE
  5
102A7
330
1F
100
AcDbEntity
  8
0
100
AcDbLine
 10
93.30727949739942
 20
5001.295044323875
 30
0.0
 11
88.09178926981322
 21
5004.554026963407
 31
0.0
  0
LINE
  5
102A8
330
1F
100
AcDbEntity
  8
0
100
AcDbLine
 10
88.09178926981322
 20
5004.554026963407
 30
0.0
 11
85.37924986853388
 21
5000.213033376111
 31
0.0
  0
ARC
  5
102A9
330
1F
100
AcDbEntity
  8
0
100
AcDbCircle
 10
81.91525395908418
 20
4998.302094337784
 30
0.0
 40
3.9561288741498113
100
AcDbArc
 50
87.11662330024899
 51
28.883650996445652
  0
LINE
  5
102AA
330
1F
100
AcDbEntity
  8
0
100
AcDbLine
 10
82.11425981475988
 20
5002.253214728039
 30
0.0
 11
84.82679921603979
 21
5006.594208315336
 31
0.0
  0
ENDSEC
  0
SECTION
  2
OBJECTS
  0
DICTIONARY
  5
C
330
None
100
AcDbDictionary
281
1
  3
ACAD_GROUP
350
D
  3
ACAD_MLINESTYLE
350
17
  3
ACAD_COLOR
350
1005A
  3
ACAD_LAYOUT
350
1005B
  3
ACAD_MATERIAL
350
1005C
  3
ACAD_MLEADERSTYLE
350
1005D
  3
ACAD_PLOTSETTINGS
350
1005E
  3
ACAD_PLOTSTYLENAME
350
1005F
  3
ACAD_SCALELIST
350
10061
  3
ACAD_TABLESTYLE
350
10062
  3
ACAD_VISUALSTYLE
350
10063
  0
DICTIONARY
  5
D
330
None
100
AcDbDictionary
281
1
  0
DICTIONARY
  5
1A
330
C
100
AcDbDictionary
281
1
  0
DICTIONARY
  5
17
330
None
100
AcDbDictionary
281
1
  3
Standard
350
10069
  0
DICTIONARY
  5
1005A
330
C
100
AcDbDictionary
281
1
  0
DICTIONARY
  5
1005B
330
C
100
AcDbDictionary
281
1
  3
Model
350
10064
  3
Layout1
350
10065
  0
DICTIONARY
  5
1005C
330
C
100
AcDbDictionary
281
1
  3
ByBlock
350
10066
  3
ByLayer
350
10067
  3
Global
350
10068
  0
DICTIONARY
  5
1005D
330
C
100
AcDbDictionary
281
1
  3
Standard
350
1006E
  0
DICTIONARY
  5
1005E
330
C
100
AcDbDictionary
281
1
  0
ACDBDICTIONARYWDFLT
  5
1005F
330
C
100
AcDbDictionary
281
1
  3
Normal
350
10060
100
AcDbDictionaryWithDefault
340
10060
  0
ACDBPLACEHOLDER
  5
10060
330
1005F
  0
DICTIONARY
  5
10061
330
C
100
AcDbDictionary
281
1
  0
DICTIONARY
  5
10062
330
C
100
AcDbDictionary
281
1
  0
DICTIONARY
  5
10063
330
C
100
AcDbDictionary
281
1
  0
LAYOUT
  5
10064
330
1005B
100
AcDbPlotSettings
  1

  2
Adobe PDF
  4
A4
  6

 40
3.175
 41
3.175
 42
3.175
 43
3.175
 44
209.91
 45
297.03
 46
0.0
 47
0.0
 48
0.0
 49
0.0
140
0.0
141
0.0
142
1.0
143
1.0
 70
1024
 72
0
 73
1
 74
5
  7

 75
16
 76
0
 77
2
 78
300
147
1.0
148
0.0
149
0.0
100
AcDbLayout
  1
Model
 70
1
 71
0
 10
-3.175
 20
-3.175
 11
293.857
 21
206.735
 12
0.0
 22
0.0
 32
0.0
 14
29.068
 24
20.356
 34
0.0
 15
261.614
 25
183.204
 35
0.0
146
0.0
 13
0.0
 23
0.0
 33
0.0
 16
1.0
 26
0.0
 36
0.0
 17
0.0
 27
1.0
 37
0.0
 76
1
330
1F
  0
LAYOUT
  5
10065
330
1005B
100
AcDbPlotSettings
  1

  2
Adobe PDF
  4
A4
  6

 40
3.175
 41
3.175
 42
3.175
 43
3.175
 44
209.91
 45
297.03
 46
0.0
 47
0.0
 48
0.0
 49
0.0
140
0.0
141
0.0
142
1.0
143
1.0
 70
0
 72
0
 73
1
 74
5
  7

 75
16
 76
0
 77
2
 78
300
147
1.0
148
0.0
149
0.0
100
AcDbLayout
  1
Layout1
 70
1
 71
1
 10
-3.175
 20
-3.175
 11
293.857
 21
206.735
 12
0.0
 22
0.0
 32
0.0
 14
29.068
 24
20.356
 34
0.0
 15
261.614
 25
183.204
 35
0.0
146
0.0
 13
0.0
 23
0.0
 33
0.0
 16
1.0
 26
0.0
 36
0.0
 17
0.0
 27
1.0
 37
0.0
 76
1
330
1B
  0
MATERIAL
  5
10066
102
{ACAD_REACTORS
330
1005C
102
}
330
1005C
100
AcDbMaterial
  1
ByBlock
  2

 70
0
 40
1.0
 71
1
 41
1.0
 91
-1023410177
 42
1.0
 72
1
  3

 73
1
 74
1
 75
1
 44
0.5
 73
0
 45
1.0
 46
1.0
 77
1
  4

 78
1
 79
1
170
1
 48
1.0
171
1
  6

172
1
173
1
174
1
140
1.0
141
1.0
175
1
  7

176
1
177
1
178
1
143
1.0
179
1
  8

270
1
271
1
272
1
145
1.0
146
1.0
273
1
  9

274
1
275
1
276
1
 42
1.0
 72
1
  3

 73
1
 74
1
 75
1
 94
63
  0
MATERIAL
  5
10067
102
{ACAD_REACTORS
330
1005C
102
}
330
1005C
100
AcDbMaterial
  1
ByLayer
  2

 70
0
 40
1.0
 71
1
 41
1.0
 91
-1023410177
 42
1.0
 72
1
  3

 73
1
 74
1
 75
1
 44
0.5
 73
0
 45
1.0
 46
1.0
 77
1
  4

 78
1
 79
1
170
1
 48
1.0
171
1
  6

172
1
173
1
174
1
140
1.0
141
1.0
175
1
  7

176
1
177
1
178
1
143
1.0
179
1
  8

270
1
271
1
272
1
145
1.0
146
1.0
273
1
  9

274
1
275
1
276
1
 42
1.0
 72
1
  3

 73
1
 74
1
 75
1
 94
63
  0
MATERIAL
  5
10068
102
{ACAD_REACTORS
330
1005C
102
}
330
1005C
100
AcDbMaterial
  1
Global
  2

 70
0
 40
1.0
 71
1
 41
1.0
 91
-1023410177
 42
1.0
 72
1
  3

 73
1
 74
1
 75
1
 44
0.5
 73
0
 45
1.0
 46
1.0
 77
1
  4

 78
1
 79
1
170
1
 48
1.0
171
1
  6

172
1
173
1
174
1
140
1.0
141
1.0
175
1
  7

176
1
177
1
178
1
143
1.0
179
1
  8

270
1
271
1
272
1
145
1.0
146
1.0
273
1
  9

274
1
275
1
276
1
 42
1.0
 72
1
  3

 73
1
 74
1
 75
1
 94
63
  0
MLINESTYLE
  5
10069
102
{ACAD_REACTORS
330
17
102
}
330
17
100
AcDbMlineStyle
  2
Standard
 70
0
  3

 62
256
 51
90.0
 52
90.0
 71
2
 49
0.5
 62
256
  6
BYLAYER
 49
-0.5
 62
256
  6
BYLAYER
  0
MLEADERSTYLE
  5
1006E
102
{ACAD_REACTORS
330
1005D
102
}
330
1005D
100
AcDbMLeaderStyle
179
2
170
2
171
1
172
0
 90
2
 40
0.0
 41
0.0
173
1
 91
-1056964608
 92
-2
290
1
 42
2.0
291
1
 43
8.0
  3
Standard
 44
4.0
300

342
11
174
1
175
1
176
0
178
1
 93
-1056964608
 45
4.0
292
0
297
0
 46
4.0
 94
-1056964608
 47
1.0
 49
1.0
140
1.0
294
1
141
0.0
177
0
142
1.0
295
0
296
0
143
3.75
271
0
272
9
273
9
  0
ENDSEC
  0
EOF
