0
SECTION
2
HEADER
9
$INSUNITS
70
4
9
$ACADVER
1
AC1014
9
$HANDSEED
5
FFFF
0
ENDSEC
0
SECTION
2
TABLES
0
TABLE
2
VPORT
5
8
100
AcDbSymbolTable
0
ENDTAB
0
TABLE
2
LTYPE
5
5
100
AcDbSymbolTable
0
LTYPE
5
14
100
AcDbSymbolTableRecord
100
AcDbLinetypeTableRecord
2
BYBLOCK
70
0
0
LTYPE
5
15
100
AcDbSymbolTableRecord
100
AcDbLinetypeTableRecord
2
BYLAYER
70
0
0
ENDTAB
0
TABLE
2
LAYER
5
2
100
AcDbSymbolTable
70
2
0
LAYER
5
50
100
AcDbSymbolTableRecord
100
AcDbLayerTableRecord
2
0
70
0
6
CONTINUOUS
0
ENDTAB
0
TABLE
2
STYLE
5
3
100
AcDbSymbolTable
70
1
0
STYLE
5
11
100
AcDbSymbolTableRecord
100
AcDbTextStyleTableRecord
2
STANDARD
70
0
0
ENDTAB
0
TABLE
2
VIEW
5
6
100
AcDbSymbolTable
70
0
0
ENDTAB
0
TABLE
2
UCS
5
7
100
AcDbSymbolTable
70
0
0
ENDTAB
0
TABLE
2
APPID
5
9
100
AcDbSymbolTable
70
2
0
APPID
5
12
100
AcDbSymbolTableRecord
100
AcDbRegAppTableRecord
2
ACAD
70
0
0
ENDTAB
0
TABLE
2
DIMSTYLE
5
A
100
AcDbSymbolTable
70
1
0
ENDTAB
0
TABLE
2
BLOCK_RECORD
5
1
100
AcDbSymbolTable
70
1
0
BLOCK_RECORD
5
1F
100
AcDbSymbolTableRecord
100
AcDbBlockTableRecord
2
*MODEL_SPACE
0
BLOCK_RECORD
5
1B
100
AcDbSymbolTableRecord
100
AcDbBlockTableRecord
2
*PAPER_SPACE
0
ENDTAB
0
ENDSEC
0
SECTION
2
BLOCKS
0
BLOCK
5
20
100
AcDbEntity
100
AcDbBlockBegin
2
*MODEL_SPACE
0
ENDBLK
5
21
100
AcDbEntity
100
AcDbBlockEnd
0
BLOCK
5
1C
100
AcDbEntity
100
AcDbBlockBegin
2
*PAPER_SPACE
0
ENDBLK
5
1D
100
AcDbEntity
100
AcDbBlockEnd
0
ENDSEC
0
SECTION
2
ENTITIES
0
LINE
5
100
100
AcDbEntity
8
0
100
AcDbLine
10
60.074999999999932
20
8.5749999999999282
30
0
11
60.074999999999932
21
12.574999999999932
31
0
0
LINE
5
101
100
AcDbEntity
8
0
100
AcDbLine
10
60.074999999999932
20
12.574999999999932
30
0
11
-3.4997031114028232
21
12.574999999999932
31
0
0
LINE
5
102
100
AcDbEntity
8
0
100
AcDbLine
10
-3.4997031114028232
20
12.574999999999932
30
0
11
-3.4997031114028232
21
8.5749999999999282
31
0
0
LINE
5
103
100
AcDbEntity
8
0
100
AcDbLine
10
-3.4997031114028232
20
8.5749999999999282
30
0
11
-5.349703111402988
21
8.5749999999999282
31
0
0
LINE
5
104
100
AcDbEntity
8
0
100
AcDbLine
10
-5.349703111402988
20
8.5749999999999282
30
0
11
-5.349703111402988
21
12.574999999999932
31
0
0
LINE
5
105
100
AcDbEntity
8
0
100
AcDbLine
10
-5.349703111402988
20
12.574999999999932
30
0
11
-13.499703111402823
21
12.574999999999932
31
0
0
LINE
5
106
100
AcDbEntity
8
0
100
AcDbLine
10
-13.499703111402823
20
12.574999999999932
30
0
11
-13.499703111402823
21
8.5749999999999282
31
0
0
LINE
5
107
100
AcDbEntity
8
0
100
AcDbLine
10
-13.499703111402823
20
8.5749999999999282
30
0
11
-15.349703111402988
21
8.5749999999999282
31
0
0
LINE
5
108
100
AcDbEntity
8
0
100
AcDbLine
10
-15.349703111402988
20
8.5749999999999282
30
0
11
-15.349703111402988
21
12.574999999999932
31
0
0
LINE
5
109
100
AcDbEntity
8
0
100
AcDbLine
10
-15.349703111402988
20
12.574999999999932
30
0
11
-60.074999999999932
21
12.574999999999932
31
0
0
LINE
5
110
100
AcDbEntity
8
0
100
AcDbLine
10
-60.074999999999932
20
12.574999999999932
30
0
11
-60.074999999999932
21
8.5749999999999282
31
0
0
LINE
5
111
100
AcDbEntity
8
0
100
AcDbLine
10
-60.074999999999932
20
8.5749999999999282
30
0
11
-61.925000000000097
21
8.5749999999999282
31
0
0
LINE
5
112
100
AcDbEntity
8
0
100
AcDbLine
10
-61.925000000000097
20
8.5749999999999282
30
0
11
-61.925000000000097
21
12.574999999999932
31
0
0
LINE
5
113
100
AcDbEntity
8
0
100
AcDbLine
10
-61.925000000000097
20
12.574999999999932
30
0
11
-75.074999999999932
21
12.574999999999932
31
0
0
LINE
5
114
100
AcDbEntity
8
0
100
AcDbLine
10
-75.074999999999932
20
12.574999999999932
30
0
11
-75.074999999999932
21
-12.574999999999932
31
0
0
LINE
5
115
100
AcDbEntity
8
0
100
AcDbLine
10
-75.074999999999932
20
-12.574999999999932
30
0
11
-61.925000000000097
21
-12.574999999999932
31
0
0
LINE
5
116
100
AcDbEntity
8
0
100
AcDbLine
10
-61.925000000000097
20
-12.574999999999932
30
0
11
-61.925000000000097
21
-8.5749999999999282
31
0
0
LINE
5
117
100
AcDbEntity
8
0
100
AcDbLine
10
-61.925000000000097
20
-8.5749999999999282
30
0
11
-60.074999999999932
21
-8.5749999999999282
31
0
0
LINE
5
118
100
AcDbEntity
8
0
100
AcDbLine
10
-60.074999999999932
20
-8.5749999999999282
30
0
11
-60.074999999999932
21
-12.574999999999932
31
0
0
LINE
5
119
100
AcDbEntity
8
0
100
AcDbLine
10
-60.074999999999932
20
-12.574999999999932
30
0
11
-15.349703111402988
21
-12.574999999999932
31
0
0
LINE
5
120
100
AcDbEntity
8
0
100
AcDbLine
10
-15.349703111402988
20
-12.574999999999932
30
0
11
-15.349703111402988
21
-8.5749999999999282
31
0
0
LINE
5
121
100
AcDbEntity
8
0
100
AcDbLine
10
-15.349703111402988
20
-8.5749999999999282
30
0
11
-13.499703111402823
21
-8.5749999999999282
31
0
0
LINE
5
122
100
AcDbEntity
8
0
100
AcDbLine
10
-13.499703111402823
20
-8.5749999999999282
30
0
11
-13.499703111402823
21
-12.574999999999932
31
0
0
LINE
5
123
100
AcDbEntity
8
0
100
AcDbLine
10
-13.499703111402823
20
-12.574999999999932
30
0
11
-5.349703111402988
21
-12.574999999999932
31
0
0
LINE
5
124
100
AcDbEntity
8
0
100
AcDbLine
10
-5.349703111402988
20
-12.574999999999932
30
0
11
-5.349703111402988
21
-8.5749999999999282
31
0
0
LINE
5
125
100
AcDbEntity
8
0
100
AcDbLine
10
-5.349703111402988
20
-8.5749999999999282
30
0
11
-3.4997031114028232
21
-8.5749999999999282
31
0
0
LINE
5
126
100
AcDbEntity
8
0
100
AcDbLine
10
-3.4997031114028232
20
-8.5749999999999282
30
0
11
-3.4997031114028232
21
-12.574999999999932
31
0
0
LINE
5
127
100
AcDbEntity
8
0
100
AcDbLine
10
-3.4997031114028232
20
-12.574999999999932
30
0
11
60.074999999999932
21
-12.574999999999932
31
0
0
LINE
5
128
100
AcDbEntity
8
0
100
AcDbLine
10
60.074999999999932
20
-12.574999999999932
30
0
11
60.074999999999932
21
-8.5749999999999282
31
0
0
LINE
5
129
100
AcDbEntity
8
0
100
AcDbLine
10
60.074999999999932
20
-8.5749999999999282
30
0
11
61.925000000000097
21
-8.5749999999999282
31
0
0
LINE
5
130
100
AcDbEntity
8
0
100
AcDbLine
10
61.925000000000097
20
-8.5749999999999282
30
0
11
61.925000000000097
21
-12.574999999999932
31
0
0
LINE
5
131
100
AcDbEntity
8
0
100
AcDbLine
10
61.925000000000097
20
-12.574999999999932
30
0
11
75.074999999999932
21
-12.574999999999932
31
0
0
LINE
5
132
100
AcDbEntity
8
0
100
AcDbLine
10
75.074999999999932
20
-12.574999999999932
30
0
11
75.074999999999932
21
12.574999999999932
31
0
0
LINE
5
133
100
AcDbEntity
8
0
100
AcDbLine
10
75.074999999999932
20
12.574999999999932
30
0
11
61.925000000000097
21
12.574999999999932
31
0
0
LINE
5
134
100
AcDbEntity
8
0
100
AcDbLine
10
61.925000000000097
20
12.574999999999932
30
0
11
61.925000000000097
21
8.5749999999999282
31
0
0
LINE
5
135
100
AcDbEntity
8
0
100
AcDbLine
10
61.925000000000097
20
8.5749999999999282
30
0
11
60.074999999999932
21
8.5749999999999282
31
0
0
ENDSEC
0
SECTION
2
OBJECTS
0
DICTIONARY
5
C
100
AcDbDictionary
3
ACAD_GROUP
350
D
3
ACAD_MLINESTYLE
350
17
0
DICTIONARY
5
D
100
AcDbDictionary
0
DICTIONARY
5
1A
330
C
100
AcDbDictionary
0
DICTIONARY
5
17
100
AcDbDictionary
0
ENDSEC
0
EOF
