0
SECTION
2
HEADER
9
$INSUNITS
70
4
9
$ACADVER
1
AC1014
9
$HANDSEED
5
FFFF
0
ENDSEC
0
SECTION
2
TABLES
0
TABLE
2
VPORT
5
8
100
AcDbSymbolTable
0
ENDTAB
0
TABLE
2
LTYPE
5
5
100
AcDbSymbolTable
0
LTYPE
5
14
100
AcDbSymbolTableRecord
100
AcDbLinetypeTableRecord
2
BYBLOCK
70
0
0
LTYPE
5
15
100
AcDbSymbolTableRecord
100
AcDbLinetypeTableRecord
2
BYLAYER
70
0
0
ENDTAB
0
TABLE
2
LAYER
5
2
100
AcDbSymbolTable
70
2
0
LAYER
5
50
100
AcDbSymbolTableRecord
100
AcDbLayerTableRecord
2
0
70
0
6
CONTINUOUS
0
ENDTAB
0
TABLE
2
STYLE
5
3
100
AcDbSymbolTable
70
1
0
STYLE
5
11
100
AcDbSymbolTableRecord
100
AcDbTextStyleTableRecord
2
STANDARD
70
0
0
ENDTAB
0
TABLE
2
VIEW
5
6
100
AcDbSymbolTable
70
0
0
ENDTAB
0
TABLE
2
UCS
5
7
100
AcDbSymbolTable
70
0
0
ENDTAB
0
TABLE
2
APPID
5
9
100
AcDbSymbolTable
70
2
0
APPID
5
12
100
AcDbSymbolTableRecord
100
AcDbRegAppTableRecord
2
ACAD
70
0
0
ENDTAB
0
TABLE
2
DIMSTYLE
5
A
100
AcDbSymbolTable
70
1
0
ENDTAB
0
TABLE
2
BLOCK_RECORD
5
1
100
AcDbSymbolTable
70
1
0
BLOCK_RECORD
5
1F
100
AcDbSymbolTableRecord
100
AcDbBlockTableRecord
2
*MODEL_SPACE
0
BLOCK_RECORD
5
1B
100
AcDbSymbolTableRecord
100
AcDbBlockTableRecord
2
*PAPER_SPACE
0
ENDTAB
0
ENDSEC
0
SECTION
2
BLOCKS
0
BLOCK
5
20
100
AcDbEntity
100
AcDbBlockBegin
2
*MODEL_SPACE
0
ENDBLK
5
21
100
AcDbEntity
100
AcDbBlockEnd
0
BLOCK
5
1C
100
AcDbEntity
100
AcDbBlockBegin
2
*PAPER_SPACE
0
ENDBLK
5
1D
100
AcDbEntity
100
AcDbBlockEnd
0
ENDSEC
0
SECTION
2
ENTITIES
0
CIRCLE
5
100
100
AcDbEntity
8
0
100
AcDbCircle
10
43.034939963948005
20
18.165770806290702
30
3.907985046680551e-13
40
3.9250000000000007
210
0
220
0
230
1
0
LINE
5
101
100
AcDbEntity
8
0
100
AcDbLine
10
19.239754938849039
20
-13.473694398425344
30
0
11
-6.0000000000000231
21
-13.473694398425344
31
0
0
ARC
5
102
100
AcDbEntity
8
0
100
AcDbCircle
10
-6.0000000000000053
20
-5.5486943984253134
30
0
40
7.9250000000000478
210
-0
220
0
230
1
100
AcDbArc
50
90
51
270
0
LINE
5
103
100
AcDbEntity
8
0
100
AcDbLine
10
-6.0000000000000053
20
2.3763056015747352
30
0
11
19.239155600195687
21
2.3763056015747441
31
0
0
ARC
5
104
100
AcDbEntity
8
0
100
AcDbCircle
10
30.048654078311827
20
-30.965375511728546
30
0
40
35.050149169577018
210
0
220
-0
230
1
100
AcDbArc
50
72.037110704454918
51
107.96288929554498
0
LINE
5
105
100
AcDbEntity
8
0
100
AcDbLine
10
40.858152556428024
20
2.3763056015747264
30
0
11
42.794999999999995
21
2.3763056015747352
31
0
0
LINE
5
106
100
AcDbEntity
8
0
100
AcDbLine
10
42.794999999999995
20
2.3763056015747352
30
0
11
42.794999999999995
21
-1.4736943984252981
31
0
0
LINE
5
107
100
AcDbEntity
8
0
100
AcDbLine
10
42.794999999999995
20
-1.4736943984252981
30
0
11
40.794999999999995
21
-1.4736943984252981
31
0
0
LINE
5
108
100
AcDbEntity
8
0
100
AcDbLine
10
40.794999999999995
20
-1.4736943984252981
30
0
11
40.794999999999995
21
-9.6236943984253021
31
0
0
LINE
5
109
100
AcDbEntity
8
0
100
AcDbLine
10
40.794999999999995
20
-9.6236943984253021
30
0
11
42.794999999999995
21
-9.6236943984253021
31
0
0
LINE
5
110
100
AcDbEntity
8
0
100
AcDbLine
10
42.794999999999995
20
-9.6236943984253021
30
0
11
42.794999999999995
21
-13.473694398425344
31
0
0
LINE
5
111
100
AcDbEntity
8
0
100
AcDbLine
10
42.794999999999995
20
-13.473694398425344
30
0
11
40.857553217774608
21
-13.473694398425353
31
0
0
ARC
5
112
100
AcDbEntity
8
0
100
AcDbCircle
10
30.048654078311845
20
18.175485045134803
30
0
40
33.444025775282348
210
0
220
0
230
1
100
AcDbArc
50
251.1438220121392
51
288.85617798786069
0
LINE
5
113
100
AcDbEntity
8
0
100
AcDbLine
10
31.924999999999997
20
-40.173694398425191
30
0
11
5
21
-40.173694398425191
31
0
0
ARC
5
114
100
AcDbEntity
8
0
100
AcDbCircle
10
5
20
-29.198869308367872
30
0
40
10.974825090057323
210
0
220
0
230
1
100
AcDbArc
50
234.86165853132334
51
269.99999999999994
0
LINE
5
115
100
AcDbEntity
8
0
100
AcDbLine
10
-1.3165892980491734
20
-38.173694398425191
30
0
11
-6.0000000000000053
21
-38.173694398425191
31
0
0
ARC
5
116
100
AcDbEntity
8
0
100
AcDbCircle
10
-6.0000000000000053
20
-29.198869308367861
30
0
40
8.9748250900573279
210
0
220
-0
230
1
100
AcDbArc
50
89.999999999999901
51
269.99999999999989
0
LINE
5
117
100
AcDbEntity
8
0
100
AcDbLine
10
-5.9999999999999876
20
-20.224044218310535
30
0
11
-1.3165892980492089
21
-20.224044218310535
31
0
0
ARC
5
118
100
AcDbEntity
8
0
100
AcDbCircle
10
5
20
-29.198869308367872
30
0
40
10.974825090057356
210
-0
220
0
230
1
100
AcDbArc
50
90
51
125.13834146867674
0
LINE
5
119
100
AcDbEntity
8
0
100
AcDbLine
10
5
20
-18.224044218310517
30
0
11
31.924999999999997
21
-18.224044218310517
31
0
0
LINE
5
120
100
AcDbEntity
8
0
100
AcDbLine
10
31.924999999999997
20
-18.224044218310517
30
0
11
31.924999999999997
21
-25.706060983861381
31
0
0
LINE
5
121
100
AcDbEntity
8
0
100
AcDbLine
10
31.924999999999997
20
-25.706060983861381
30
0
11
29.924999999999997
21
-25.706060983861381
31
0
0
LINE
5
122
100
AcDbEntity
8
0
100
AcDbLine
10
29.924999999999997
20
-25.706060983861381
30
0
11
29.924999999999997
21
-33.856060983861383
31
0
0
LINE
5
123
100
AcDbEntity
8
0
100
AcDbLine
10
29.924999999999997
20
-33.856060983861383
30
0
11
31.924999999999997
21
-33.856060983861383
31
0
0
LINE
5
124
100
AcDbEntity
8
0
100
AcDbLine
10
31.924999999999997
20
-33.856060983861383
30
0
11
31.924999999999997
21
-40.173694398425191
31
0
0
SPLINE
5
125
100
AcDbEntity
8
0
100
AcDbSpline
70
0
71
3
72
14
73
10
74
0
42
0.000000001
43
0.0000000001
44
0.0000000001
40
0.17614562206776674
40
0.17614562206776674
40
0.17614562206776674
40
0.17614562206776674
40
0.17634480490882232
40
0.17634480490882232
40
0.17634480490882232
40
0.48744702783425092
40
0.48744702783425092
40
0.48744702783425092
40
0.48889064121421788
40
0.48889064121421788
40
0.48889064121421788
40
0.48889064121421788
10
-48.075000000000038
20
-21.916345385731653
30
0
10
-48.073820180657457
20
-21.920048380648069
30
0
10
-48.072640361314861
20
-21.923751375564457
30
0
10
-48.07146054197225
20
-21.927454370480845
30
0
10
-46.225158390008872
20
-27.722280100113316
30
0
10
-43.144853091274314
20
-32.639745008618888
30
0
10
-38.614703229442966
20
-36.515999762506475
30
0
10
-38.593731672244587
20
-36.533944223675768
30
0
10
-38.572760115046194
20
-36.551888684845061
30
0
10
-38.551788557847814
20
-36.569833146014346
30
0
0
LINE
5
126
100
AcDbEntity
8
0
100
AcDbLine
10
-38.551788557847793
20
-36.569833146014346
30
0
11
-35.134559518288093
21
-31.669655655324984
31
0
0
LINE
5
127
100
AcDbEntity
8
0
100
AcDbLine
10
-35.134559518288093
20
-31.669655655324984
30
0
11
-33.617106789559614
21
-32.72787926878037
31
0
0
LINE
5
128
100
AcDbEntity
8
0
100
AcDbLine
10
-33.617106789559614
20
-32.72787926878037
30
0
11
-37.105873374652887
21
-37.730638900234794
31
0
0
SPLINE
5
129
100
AcDbEntity
8
0
100
AcDbSpline
70
0
71
3
72
17
73
13
74
0
42
0.000000001
43
0.0000000001
44
0.0000000001
40
0.5208727436492141
40
0.5208727436492141
40
0.5208727436492141
40
0.5208727436492141
40
0.5221110217195426
40
0.5221110217195426
40
0.5221110217195426
40
0.90361455913899846
40
0.90361455913899846
40
0.90361455913899846
40
1
40
1
40
1
40
1.0000589129462774
40
1.0000589129462774
40
1.0000589129462774
40
1.0000589129462774
10
-37.105873374652887
20
-37.730638900234801
30
0
10
-37.086643709393272
20
-37.745142358621059
30
0
10
-37.06741404413372
20
-37.759645817007296
30
0
10
-37.048184378874176
20
-37.774149275393526
30
0
10
-31.110480541810162
20
-42.252502868566893
30
0
10
-23.079414020788633
20
-45.222343461392505
30
0
10
-13.536214564207674
20
-47.106020624416445
30
0
10
-11.125160939203687
20
-47.581924609543165
30
0
10
-8.6155666337267522
20
-47.987071303801429
30
0
10
-6.0095908985326485
20
-48.323078635097602
30
0
10
-6.0079990044072407
20
-48.323283889540136
30
0
10
-6.0064071102818506
20
-48.32348914398267
30
0
10
-6.0048152161565405
20
-48.323694398425189
30
0
0
LINE
5
130
100
AcDbEntity
8
0
100
AcDbLine
10
-6.0048152161565493
20
-48.323694398425189
30
0
11
31.997701375280005
21
-48.323694398425197
31
0
0
SPLINE
5
131
100
AcDbEntity
8
0
100
AcDbSpline
70
0
71
3
72
20
73
16
74
0
42
0.000000001
43
0.0000000001
44
0.0000000001
40
7.641245377848835e-05
40
7.641245377848835e-05
40
7.641245377848835e-05
40
7.641245377848835e-05
40
0.24539016463589949
40
0.24539016463589949
40
0.24539016463589949
40
0.51665585517325641
40
0.51665585517325641
40
0.51665585517325641
40
0.79559989893957805
40
0.79559989893957805
40
0.79559989893957805
40
1
40
1
40
1
40
1.0055020345658592
40
1.0055020345658592
40
1.0055020345658592
40
1.0055020345658592
10
31.997701375280005
20
-48.323694398425197
30
0
10
34.458300112868216
20
-48.474491959804531
30
0
10
36.435611345296479
20
-47.994288713837335
30
0
10
38.103126651064933
20
-47.24477815014275
30
0
10
39.947049736816268
20
-46.415976263509378
30
0
10
41.44350189732635
20
-45.323801132336364
30
0
10
42.959970536437417
20
-44.686683924456531
30
0
10
44.519363814667699
20
-44.031532696274816
30
0
10
46.10931905290898
20
-43.869326959591845
30
0
10
47.86517045135205
20
-44.337837391892201
30
0
10
49.151794816737322
20
-44.68114488258837
30
0
10
50.517194400321031
20
-45.344446739538554
30
0
10
51.958222621508114
20
-46.310981240104198
30
0
10
51.997148414338739
20
-46.337089765377684
30
0
10
52.036074207169364
20
-46.363198290651169
30
0
10
52.074999999999996
20
-46.389306815924662
30
0
0
LINE
5
132
100
AcDbEntity
8
0
100
AcDbLine
10
52.074999999999996
20
-46.389306815924662
30
0
11
52.075000000000017
21
-34.767395127956782
31
0
0
LINE
5
133
100
AcDbEntity
8
0
100
AcDbLine
10
52.075000000000003
20
-34.767395127956782
30
0
11
54.075000000000003
21
-34.767395127956789
31
0
0
LINE
5
134
100
AcDbEntity
8
0
100
AcDbLine
10
54.075000000000003
20
-34.767395127956789
30
0
11
54.075000000000003
21
-24.617395127956776
31
0
0
LINE
5
135
100
AcDbEntity
8
0
100
AcDbLine
10
54.075000000000003
20
-24.617395127956776
30
0
11
52.075000000000003
21
-24.617395127956776
31
0
0
LINE
5
136
100
AcDbEntity
8
0
100
AcDbLine
10
52.075000000000003
20
-24.617395127956776
30
0
11
52.075000000000003
21
-3.2120809807490325
31
0
0
LINE
5
137
100
AcDbEntity
8
0
100
AcDbLine
10
52.075000000000003
20
-3.2120809807490325
30
0
11
54.075000000000003
21
-3.2120809807490325
31
0
0
LINE
5
138
100
AcDbEntity
8
0
100
AcDbLine
10
54.075000000000003
20
-3.2120809807490325
30
0
11
54.075000000000003
21
6.9379190192509732
31
0
0
LINE
5
139
100
AcDbEntity
8
0
100
AcDbLine
10
54.075000000000003
20
6.9379190192509732
30
0
11
52.075000000000003
21
6.9379190192509732
31
0
0
LINE
5
140
100
AcDbEntity
8
0
100
AcDbLine
10
52.075000000000003
20
6.9379190192509732
30
0
11
52.075000000000003
21
28.266462603978262
31
0
0
LINE
5
141
100
AcDbEntity
8
0
100
AcDbLine
10
52.075000000000003
20
28.266462603978262
30
0
11
54.075000000000003
21
28.266462603978262
31
0
0
LINE
5
142
100
AcDbEntity
8
0
100
AcDbLine
10
54.075000000000003
20
28.266462603978262
30
0
11
54.075000000000003
21
48.368660527704499
31
0
0
LINE
5
143
100
AcDbEntity
8
0
100
AcDbLine
10
54.075000000000003
20
48.368660527704499
30
0
11
51.978906698417035
21
48.36866052770452
31
0
0
SPLINE
5
144
100
AcDbEntity
8
0
100
AcDbSpline
70
0
71
3
72
17
73
13
74
0
42
0.000000001
43
0.0000000001
44
0.0000000001
40
-1.0007783826182166
40
-1.0007783826182166
40
-1.0007783826182166
40
-1.0007783826182166
40
-1
40
-1
40
-1
40
-0.39467455084735048
40
-0.39467455084735048
40
-0.39467455084735048
40
0
40
0
40
0
40
0.0044980782753932733
40
0.0044980782753932733
40
0.0044980782753932733
40
0.0044980782753932733
10
51.978906698416779
20
48.368660527704378
30
0
10
51.97290636115406
20
48.364995513739416
30
0
10
51.966906023891397
20
48.361330499774482
30
0
10
51.96090568662872
20
48.357665485809548
30
0
10
47.29791227073315
20
45.509502917686682
30
0
10
42.934504880690966
20
43.309914718162133
30
0
10
39.050423788376413
20
42.139941949209373
30
0
10
36.517987786041147
20
41.377115146311127
30
0
10
34.180584516279836
20
41.035013308155222
30
0
10
31.999833666383289
20
41.030176867247512
30
0
10
31.974889110922202
20
41.030121545536446
30
0
10
31.949944555461116
20
41.030066223825358
30
0
10
31.925000000000018
20
41.030010902114299
30
0
0
LINE
5
145
100
AcDbEntity
8
0
100
AcDbLine
10
31.925000000000026
20
41.03001090211432
30
0
11
31.924999999999997
21
23.726305601574733
31
0
0
LINE
5
146
100
AcDbEntity
8
0
100
AcDbLine
10
31.924999999999997
20
23.726305601574733
30
0
11
29.924999999999997
21
23.726305601574733
31
0
0
LINE
5
147
100
AcDbEntity
8
0
100
AcDbLine
10
29.924999999999997
20
23.726305601574733
30
0
11
29.924999999999997
21
15.57630560157472
31
0
0
LINE
5
148
100
AcDbEntity
8
0
100
AcDbLine
10
29.924999999999997
20
15.57630560157472
30
0
11
31.924999999999997
21
15.57630560157472
31
0
0
LINE
5
149
100
AcDbEntity
8
0
100
AcDbLine
10
31.924999999999997
20
15.57630560157472
30
0
11
31.924999999999997
21
9.7263056015747651
31
0
0
LINE
5
150
100
AcDbEntity
8
0
100
AcDbLine
10
31.924999999999997
20
9.7263056015747651
30
0
11
5
21
9.7263056015747651
31
0
0
ARC
5
151
100
AcDbEntity
8
0
100
AcDbCircle
10
5.0000000000000622
20
19.651305601574887
30
0
40
9.9250000000001197
210
0
220
0
230
1
100
AcDbArc
50
232.98602188347525
51
269.9999999999996
0
LINE
5
152
100
AcDbEntity
8
0
100
AcDbLine
10
-0.97494769851582674
20
11.726305601574758
30
0
11
-5.9999999999999609
21
11.726305601574758
31
0
0
ARC
5
153
100
AcDbEntity
8
0
100
AcDbCircle
10
-5.9999999999999698
20
19.651305601574727
30
0
40
7.9249999999999643
210
0
220
0
230
1
100
AcDbArc
50
179.35034670539764
51
270.00000000000006
0
SPLINE
5
154
100
AcDbEntity
8
0
100
AcDbSpline
70
0
71
3
72
17
73
13
74
0
42
0.000000001
43
0.0000000001
44
0.0000000001
40
-1.0021780055373164
40
-1.0021780055373164
40
-1.0021780055373164
40
-1.0021780055373164
40
-1
40
-1
40
-1
40
-0.5212028546237748
40
-0.5212028546237748
40
-0.5212028546237748
40
-0.042405709247549578
40
-0.042405709247549578
40
-0.042405709247549578
40
-0.042317493338647622
40
-0.042317493338647622
40
-0.042317493338647622
40
-0.042317493338647622
10
-13.924490572191948
20
19.741161993892806
30
0
10
-13.954105136806279
20
19.735811573424957
30
0
10
-13.983719701420609
20
19.730461152957091
30
0
10
-14.01333426603494
20
19.725110732489224
30
0
10
-20.513372932831302
20
18.550758167200421
30
0
10
-26.31474016236875
20
18.836998598884982
30
0
10
-31.16416928002949
20
21.11889817909919
30
0
10
-36.013598397690238
20
23.400797759313399
30
0
10
-39.90312702648631
20
27.721107568567049
30
0
10
-43.100326842919834
20
33.519172823515859
30
0
10
-43.10091682095414
20
33.520242738234472
30
0
10
-43.10150679898846
20
33.521312652953071
30
0
10
-43.102096777023043
20
33.522382567672167
30
0
0
ARC
5
155
100
AcDbEntity
8
0
100
AcDbCircle
10
-46.173860809209238
20
31.415873389636708
30
0
40
3.7246630970573187
210
0
220
-0
230
1
100
AcDbArc
50
34.440977291299795
51
87.29717447492439
0
LINE
5
156
100
AcDbEntity
8
0
100
AcDbLine
10
-45.998221674038071
20
35.136392987861704
30
0
11
-46.349499944380554
21
35.136392987861683
31
0
0
ARC
5
157
100
AcDbEntity
8
0
100
AcDbCircle
10
-46.173860809209238
20
31.415873389636708
30
0
40
3.7246630970572197
210
0
220
0
230
1
100
AcDbArc
50
92.702825525077884
51
120.69174990396461
0
LINE
5
158
100
AcDbEntity
8
0
100
AcDbLine
10
-48.074999999999967
20
34.618807195355984
30
0
11
-48.075000000000003
21
27.091061368645715
31
0
0
LINE
5
159
100
AcDbEntity
8
0
100
AcDbLine
10
-48.075000000000003
20
27.091061368645715
30
0
11
-54.075000000000017
21
27.091061368645715
31
0
0
LINE
5
160
100
AcDbEntity
8
0
100
AcDbLine
10
-54.075000000000017
20
27.091061368645715
30
0
11
-54.075000000000017
21
22.742281562544591
31
0
0
ARC
5
161
100
AcDbEntity
8
0
100
AcDbCircle
10
-52.000000000000021
20
22.742281562544591
30
0
40
2.0749999999999957
210
0
220
0
230
1
100
AcDbArc
50
180
51
270
0
LINE
5
162
100
AcDbEntity
8
0
100
AcDbLine
10
-52.000000000000021
20
20.667281562544595
30
0
11
-48.075000000000003
21
20.667281562544595
31
0
0
LINE
5
163
100
AcDbEntity
8
0
100
AcDbLine
10
-48.075000000000003
20
20.667281562544595
30
0
11
-48.075000000000003
21
16.667281562544591
31
0
0
LINE
5
164
100
AcDbEntity
8
0
100
AcDbLine
10
-48.075000000000003
20
16.667281562544591
30
0
11
-46.07500000000001
21
16.667281562544591
31
0
0
LINE
5
165
100
AcDbEntity
8
0
100
AcDbLine
10
-46.07500000000001
20
16.667281562544591
30
0
11
-46.07500000000001
21
-0.18271843745539584
31
0
0
LINE
5
166
100
AcDbEntity
8
0
100
AcDbLine
10
-46.07500000000001
20
-0.18271843745539584
30
0
11
-48.075000000000003
21
-0.18271843745539584
31
0
0
LINE
5
167
100
AcDbEntity
8
0
100
AcDbLine
10
-48.075000000000003
20
-0.18271843745539584
30
0
11
-48.075000000000003
21
-4.1827184374553994
31
0
0
LINE
5
168
100
AcDbEntity
8
0
100
AcDbLine
10
-48.075000000000003
20
-4.1827184374553994
30
0
11
-49.000000000000014
21
-4.1827184374553905
31
0
0
ARC
5
169
100
AcDbEntity
8
0
100
AcDbCircle
10
-49.000000000000014
20
-5.2577184374553898
30
0
40
1.0749999999999993
210
-0
220
0
230
1
100
AcDbArc
50
90
51
180
0
LINE
5
170
100
AcDbEntity
8
0
100
AcDbLine
10
-50.07500000000001
20
-5.2577184374553987
30
0
11
-50.07500000000001
21
-11.332718437455407
31
0
0
LINE
5
171
100
AcDbEntity
8
0
100
AcDbLine
10
-50.07500000000001
20
-11.332718437455407
30
0
11
-48.075000000000003
21
-11.332718437455407
31
0
0
LINE
5
172
100
AcDbEntity
8
0
100
AcDbLine
10
-48.075000000000003
20
-11.332718437455407
30
0
11
-48.075000000000053
21
-21.916345385731653
31
0
0
ENDSEC
0
SECTION
2
OBJECTS
0
DICTIONARY
5
C
100
AcDbDictionary
3
ACAD_GROUP
350
D
3
ACAD_MLINESTYLE
350
17
0
DICTIONARY
5
D
100
AcDbDictionary
0
DICTIONARY
5
1A
330
C
100
AcDbDictionary
0
DICTIONARY
5
17
100
AcDbDictionary
0
ENDSEC
0
EOF
