0
SECTION
2
HEADER
9
$INSUNITS
70
4
9
$ACADVER
1
AC1014
9
$HANDSEED
5
FFFF
0
ENDSEC
0
SECTION
2
TABLES
0
TABLE
2
VPORT
5
8
100
AcDbSymbolTable
0
ENDTAB
0
TABLE
2
LTYPE
5
5
100
AcDbSymbolTable
0
LTYPE
5
14
100
AcDbSymbolTableRecord
100
AcDbLinetypeTableRecord
2
BYBLOCK
70
0
0
LTYPE
5
15
100
AcDbSymbolTableRecord
100
AcDbLinetypeTableRecord
2
BYLAYER
70
0
0
ENDTAB
0
TABLE
2
LAYER
5
2
100
AcDbSymbolTable
70
2
0
LAYER
5
50
100
AcDbSymbolTableRecord
100
AcDbLayerTableRecord
2
0
70
0
6
CONTINUOUS
0
ENDTAB
0
TABLE
2
STYLE
5
3
100
AcDbSymbolTable
70
1
0
STYLE
5
11
100
AcDbSymbolTableRecord
100
AcDbTextStyleTableRecord
2
STANDARD
70
0
0
ENDTAB
0
TABLE
2
VIEW
5
6
100
AcDbSymbolTable
70
0
0
ENDTAB
0
TABLE
2
UCS
5
7
100
AcDbSymbolTable
70
0
0
ENDTAB
0
TABLE
2
APPID
5
9
100
AcDbSymbolTable
70
2
0
APPID
5
12
100
AcDbSymbolTableRecord
100
AcDbRegAppTableRecord
2
ACAD
70
0
0
ENDTAB
0
TABLE
2
DIMSTYLE
5
A
100
AcDbSymbolTable
70
1
0
ENDTAB
0
TABLE
2
BLOCK_RECORD
5
1
100
AcDbSymbolTable
70
1
0
BLOCK_RECORD
5
1F
100
AcDbSymbolTableRecord
100
AcDbBlockTableRecord
2
*MODEL_SPACE
0
BLOCK_RECORD
5
1B
100
AcDbSymbolTableRecord
100
AcDbBlockTableRecord
2
*PAPER_SPACE
0
ENDTAB
0
ENDSEC
0
SECTION
2
BLOCKS
0
BLOCK
5
20
100
AcDbEntity
100
AcDbBlockBegin
2
*MODEL_SPACE
0
ENDBLK
5
21
100
AcDbEntity
100
AcDbBlockEnd
0
BLOCK
5
1C
100
AcDbEntity
100
AcDbBlockBegin
2
*PAPER_SPACE
0
ENDBLK
5
1D
100
AcDbEntity
100
AcDbBlockEnd
0
ENDSEC
0
SECTION
2
ENTITIES
0
CIRCLE
5
100
100
AcDbEntity
8
0
100
AcDbCircle
10
43.034939963948005
20
17.702755874186327
30
0
40
3.9250000000000007
210
0
220
0
230
1
0
LINE
5
101
100
AcDbEntity
8
0
100
AcDbLine
10
29.924999999999997
20
-38.786709330529575
30
0
11
31.924999999999997
21
-38.786709330529575
31
0
0
LINE
5
102
100
AcDbEntity
8
0
100
AcDbLine
10
31.924999999999997
20
-38.786709330529575
30
0
11
31.924999999999997
21
-40.63670933052957
31
0
0
LINE
5
103
100
AcDbEntity
8
0
100
AcDbLine
10
31.924999999999997
20
-40.63670933052957
30
0
11
5
21
-40.636709330529584
31
0
0
ARC
5
104
100
AcDbEntity
8
0
100
AcDbCircle
10
5.0000000000000178
20
-29.661884240472212
30
0
40
10.974825090057379
210
0
220
0
230
1
100
AcDbArc
50
234.86165853132346
51
269.99999999999989
0
LINE
5
105
100
AcDbEntity
8
0
100
AcDbLine
10
-1.3165892980491645
20
-38.636709330529591
30
0
11
-6.0000000000000231
21
-38.636709330529584
31
0
0
ARC
5
106
100
AcDbEntity
8
0
100
AcDbCircle
10
-6.0000000000000053
20
-29.661884240472265
30
0
40
8.9748250900573368
210
0
220
-0
230
1
100
AcDbArc
50
89.999999999999901
51
269.99999999999989
0
LINE
5
107
100
AcDbEntity
8
0
100
AcDbLine
10
-5.9999999999999876
20
-20.687059150414928
30
0
11
-1.3165892980491645
21
-20.687059150414917
31
0
0
ARC
5
108
100
AcDbEntity
8
0
100
AcDbCircle
10
5.0000000000000178
20
-29.661884240472212
30
0
40
10.974825090057301
210
0
220
0
230
1
100
AcDbArc
50
90.000000000000099
51
125.13834146867678
0
LINE
5
109
100
AcDbEntity
8
0
100
AcDbLine
10
5
20
-18.68705915041491
30
0
11
31.924999999999997
21
-18.68705915041491
31
0
0
LINE
5
110
100
AcDbEntity
8
0
100
AcDbLine
10
31.924999999999997
20
-18.68705915041491
30
0
11
31.924999999999997
21
-20.652008383288518
31
0
0
LINE
5
111
100
AcDbEntity
8
0
100
AcDbLine
10
31.924999999999997
20
-20.652008383288518
30
0
11
29.924999999999997
21
-20.652008383288518
31
0
0
LINE
5
112
100
AcDbEntity
8
0
100
AcDbLine
10
29.924999999999997
20
-20.652008383288518
30
0
11
29.924999999999997
21
-25.319075915965765
31
0
0
LINE
5
113
100
AcDbEntity
8
0
100
AcDbLine
10
29.924999999999997
20
-25.319075915965765
30
0
11
31.924999999999997
21
-25.319075915965765
31
0
0
LINE
5
114
100
AcDbEntity
8
0
100
AcDbLine
10
31.924999999999997
20
-25.319075915965765
30
0
11
31.924999999999997
21
-35.169075915965763
31
0
0
LINE
5
115
100
AcDbEntity
8
0
100
AcDbLine
10
31.924999999999997
20
-35.169075915965763
30
0
11
29.924999999999997
21
-35.169075915965763
31
0
0
LINE
5
116
100
AcDbEntity
8
0
100
AcDbLine
10
29.924999999999997
20
-35.169075915965763
30
0
11
29.924999999999997
21
-38.786709330529575
31
0
0
LINE
5
117
100
AcDbEntity
8
0
100
AcDbLine
10
40.424999999999997
20
2.0506239102824964
30
0
11
40.425000000000004
21
-1.0867093305296827
31
0
0
LINE
5
118
100
AcDbEntity
8
0
100
AcDbLine
10
40.425000000000004
20
-1.0867093305296827
30
0
11
42.425000000000004
21
-1.0867093305296827
31
0
0
LINE
5
119
100
AcDbEntity
8
0
100
AcDbLine
10
42.424999999999997
20
-1.0867093305296827
30
0
11
42.424999999999997
21
-4.0867093305296809
31
0
0
LINE
5
120
100
AcDbEntity
8
0
100
AcDbLine
10
42.424999999999997
20
-4.0867093305296809
30
0
11
42.794999999999987
21
-4.0867093305296809
31
0
0
LINE
5
121
100
AcDbEntity
8
0
100
AcDbLine
10
42.794999999999995
20
-4.0867093305296809
30
0
11
42.794999999999995
21
-7.9367093305296788
31
0
0
LINE
5
122
100
AcDbEntity
8
0
100
AcDbLine
10
42.794999999999995
20
-7.9367093305296788
30
0
11
42.424999999999997
21
-7.9367093305296788
31
0
0
LINE
5
123
100
AcDbEntity
8
0
100
AcDbLine
10
42.424999999999997
20
-7.9367093305296788
30
0
11
42.424999999999997
21
-10.936709330529677
31
0
0
LINE
5
124
100
AcDbEntity
8
0
100
AcDbLine
10
42.424999999999997
20
-10.936709330529677
30
0
11
40.424999999999997
21
-10.936709330529677
31
0
0
LINE
5
125
100
AcDbEntity
8
0
100
AcDbLine
10
40.425000000000004
20
-10.936709330529677
30
0
11
40.425000000000004
21
-14.081150400701805
31
0
0
ARC
5
126
100
AcDbEntity
8
0
100
AcDbCircle
10
30.04865407831182
20
17.712470113030516
30
0
40
33.444025775282427
210
0
220
0
230
1
100
AcDbArc
50
251.14382201213931
51
288.07490446905757
0
LINE
5
127
100
AcDbEntity
8
0
100
AcDbLine
10
19.23975493884906
20
-13.936709330529728
30
0
11
-6.0000000000000053
21
-13.936709330529737
31
0
0
ARC
5
128
100
AcDbEntity
8
0
100
AcDbCircle
10
-5.9999999999999876
20
-6.0117093305296887
30
0
40
7.9250000000000478
210
0
220
0
230
1
100
AcDbArc
50
90.000000000000128
51
270.00000000000011
0
LINE
5
129
100
AcDbEntity
8
0
100
AcDbLine
10
-6.0000000000000053
20
1.91329066947036
30
0
11
19.239155600195687
21
1.9132906694703689
31
0
0
ARC
5
130
100
AcDbEntity
8
0
100
AcDbCircle
10
30.04865407831182
20
-31.428390443832868
30
0
40
35.050149169576976
210
0
220
-0
230
1
100
AcDbArc
50
72.779918470401157
51
107.96288929554498
0
SPLINE
5
131
100
AcDbEntity
8
0
100
AcDbSpline
70
0
71
3
72
17
73
13
74
0
42
0.000000001
43
0.0000000001
44
0.0000000001
40
0.52087274364921421
40
0.52087274364921421
40
0.52087274364921421
40
0.52087274364921421
40
0.5221110217195426
40
0.5221110217195426
40
0.5221110217195426
40
0.90361455913899846
40
0.90361455913899846
40
0.90361455913899846
40
1
40
1
40
1
40
1.0000589129462774
40
1.0000589129462774
40
1.0000589129462774
40
1.0000589129462774
10
-37.105873374652802
20
-38.19365383233923
30
0
10
-37.08664370939325
20
-38.20815729072546
30
0
10
-37.067414044133706
20
-38.222660749111689
30
0
10
-37.048184378874176
20
-38.237164207497919
30
0
10
-31.110480541810162
20
-42.715517800671286
30
0
10
-23.079414020788633
20
-45.68535839349687
30
0
10
-13.536214564207674
20
-47.569035556520838
30
0
10
-11.125160939203687
20
-48.044939541647565
30
0
10
-8.6155666337267522
20
-48.450086235905815
30
0
10
-6.0095908985326485
20
-48.786093567201988
30
0
10
-6.0079990044072407
20
-48.786298821644536
30
0
10
-6.0064071102818506
20
-48.786504076087063
30
0
10
-6.0048152161565405
20
-48.786709330529582
30
0
0
LINE
5
132
100
AcDbEntity
8
0
100
AcDbLine
10
-6.0048152161565493
20
-48.786709330529582
30
0
11
31.997701375279981
21
-48.78670933052959
31
0
0
SPLINE
5
133
100
AcDbEntity
8
0
100
AcDbSpline
70
0
71
3
72
20
73
16
74
0
42
0.000000001
43
0.0000000001
44
0.0000000001
40
7.641245377728414e-05
40
7.641245377728414e-05
40
7.641245377728414e-05
40
7.641245377728414e-05
40
0.24539016463584942
40
0.24539016463584942
40
0.24539016463584942
40
0.51665585517341905
40
0.51665585517341905
40
0.51665585517341905
40
0.79559989893985672
40
0.79559989893985672
40
0.79559989893985672
40
1
40
1
40
1
40
1.0055020345658594
40
1.0055020345658594
40
1.0055020345658594
40
1.0055020345658594
10
31.997701375279981
20
-48.78670933052959
30
0
10
34.458300112867725
20
-48.937506891908811
30
0
10
36.435611345295676
20
-48.457303645941948
30
0
10
38.10312665106391
20
-47.707793082247605
30
0
10
39.947049736816794
20
-46.878991195613679
30
0
10
41.443501897327891
20
-45.786816064439648
30
0
10
42.959970536440146
20
-45.14969885655978
30
0
10
44.519363814671074
20
-44.494547628378278
30
0
10
46.109319052913236
20
-44.332341891696259
30
0
10
47.865170451357315
20
-44.800852323998015
30
0
10
49.151794816741031
20
-45.144159814694575
30
0
10
50.517194400323007
20
-45.807461671644262
30
0
10
51.958222621508114
20
-46.773996172208584
30
0
10
51.997148414338739
20
-46.800104697482084
30
0
10
52.036074207169364
20
-46.826213222755577
30
0
10
52.075000000000003
20
-46.852321748029063
30
0
0
LINE
5
134
100
AcDbEntity
8
0
100
AcDbLine
10
52.075000000000003
20
-46.85232174802907
30
0
11
52.075000000000003
21
-35.23041006006116
31
0
0
LINE
5
135
100
AcDbEntity
8
0
100
AcDbLine
10
52.075000000000003
20
-35.23041006006116
30
0
11
54.075000000000003
21
-35.23041006006116
31
0
0
LINE
5
136
100
AcDbEntity
8
0
100
AcDbLine
10
54.075000000000003
20
-35.23041006006116
30
0
11
54.075000000000003
21
-25.080410060061151
31
0
0
LINE
5
137
100
AcDbEntity
8
0
100
AcDbLine
10
54.075000000000003
20
-25.080410060061151
30
0
11
52.075000000000003
21
-25.080410060061151
31
0
0
LINE
5
138
100
AcDbEntity
8
0
100
AcDbLine
10
52.075000000000003
20
-25.080410060061151
30
0
11
52.075000000000003
21
-3.6750959128534078
31
0
0
LINE
5
139
100
AcDbEntity
8
0
100
AcDbLine
10
52.075000000000003
20
-3.6750959128534078
30
0
11
54.075000000000003
21
-3.6750959128534078
31
0
0
LINE
5
140
100
AcDbEntity
8
0
100
AcDbLine
10
54.075000000000003
20
-3.6750959128534078
30
0
11
54.075000000000003
21
6.4749040871465979
31
0
0
LINE
5
141
100
AcDbEntity
8
0
100
AcDbLine
10
54.075000000000003
20
6.4749040871465979
30
0
11
52.075000000000003
21
6.4749040871465979
31
0
0
LINE
5
142
100
AcDbEntity
8
0
100
AcDbLine
10
52.075000000000003
20
6.4749040871465979
30
0
11
52.075000000000003
21
27.803447671873887
31
0
0
LINE
5
143
100
AcDbEntity
8
0
100
AcDbLine
10
52.075000000000003
20
27.803447671873887
30
0
11
54.075000000000003
21
27.803447671873887
31
0
0
LINE
5
144
100
AcDbEntity
8
0
100
AcDbLine
10
54.075000000000003
20
27.803447671873887
30
0
11
54.075000000000003
21
47.90564559560012
31
0
0
LINE
5
145
100
AcDbEntity
8
0
100
AcDbLine
10
54.075000000000003
20
47.90564559560012
30
0
11
51.979697936439742
21
47.905645595600092
31
0
0
SPLINE
5
146
100
AcDbEntity
8
0
100
AcDbSpline
70
0
71
3
72
20
73
16
74
0
42
0.000000001
43
0.0000000001
44
0.0000000001
40
-1.0004915706633584
40
-1.0004915706633584
40
-1.0004915706633584
40
-1.0004915706633584
40
-1
40
-1
40
-1
40
-0.66356252874735644
40
-0.66356252874735644
40
-0.66356252874735644
40
-0.29994298417617998
40
-0.29994298417617998
40
-0.29994298417617998
40
0
40
0
40
0
40
0.0019815588382309404
40
0.0019815588382309404
40
0.0019815588382309404
40
0.0019815588382309404
10
51.97969793643972
20
47.90564559560007
30
0
10
51.973854632220402
20
47.902231963663233
30
0
10
51.968011328001083
20
47.898818331726417
30
0
10
51.962168023781771
20
47.895404699789594
30
0
10
47.968521207053172
20
45.562334264589595
30
0
10
44.881144397510582
20
44.484040493532845
30
0
10
42.395395106194101
20
44.231694964485499
30
0
10
39.708812598421432
20
43.95896147256758
30
0
10
37.674859404112631
20
44.583482193026271
30
0
10
35.907932374339147
20
45.58756065110002
30
0
10
34.450427204321876
20
46.415806254390759
30
0
10
33.182988004067091
20
47.512355525439389
30
0
10
32.056561170555234
20
48.805928215928972
30
0
10
32.04908771181352
20
48.814510630555631
30
0
10
32.041614253071799
20
48.82309304518229
30
0
10
32.034140794330078
20
48.831675459808949
30
0
0
LINE
5
147
100
AcDbEntity
8
0
100
AcDbLine
10
32.034140794330078
20
48.831675459808928
30
0
11
29.924999999999997
21
48.831675459808906
31
0
0
LINE
5
148
100
AcDbEntity
8
0
100
AcDbLine
10
29.924999999999997
20
48.831675459808906
30
0
11
29.924999999999997
21
46.395291019408575
31
0
0
LINE
5
149
100
AcDbEntity
8
0
100
AcDbLine
10
29.924999999999997
20
46.395291019408575
30
0
11
31.924999999999997
21
46.395291019408575
31
0
0
LINE
5
150
100
AcDbEntity
8
0
100
AcDbLine
10
31.924999999999997
20
46.395291019408575
30
0
11
31.924999999999997
21
36.54529101940858
31
0
0
LINE
5
151
100
AcDbEntity
8
0
100
AcDbLine
10
31.924999999999997
20
36.54529101940858
30
0
11
29.924999999999997
21
36.54529101940858
31
0
0
LINE
5
152
100
AcDbEntity
8
0
100
AcDbLine
10
29.924999999999997
20
36.54529101940858
30
0
11
29.924999999999997
21
24.113290669470349
31
0
0
LINE
5
153
100
AcDbEntity
8
0
100
AcDbLine
10
29.924999999999997
20
24.113290669470349
30
0
11
31.924999999999997
21
24.113290669470349
31
0
0
LINE
5
154
100
AcDbEntity
8
0
100
AcDbLine
10
31.924999999999997
20
24.113290669470349
30
0
11
31.924999999999997
21
14.263290669470354
31
0
0
LINE
5
155
100
AcDbEntity
8
0
100
AcDbLine
10
31.924999999999997
20
14.263290669470354
30
0
11
29.924999999999997
21
14.263290669470354
31
0
0
LINE
5
156
100
AcDbEntity
8
0
100
AcDbLine
10
29.924999999999997
20
14.263290669470354
30
0
11
29.924999999999997
21
11.113290669470377
31
0
0
LINE
5
157
100
AcDbEntity
8
0
100
AcDbLine
10
29.924999999999997
20
11.113290669470377
30
0
11
31.924999999999997
21
11.113290669470377
31
0
0
LINE
5
158
100
AcDbEntity
8
0
100
AcDbLine
10
31.924999999999997
20
11.113290669470377
30
0
11
31.924999999999997
21
9.2632906694703898
31
0
0
LINE
5
159
100
AcDbEntity
8
0
100
AcDbLine
10
31.924999999999997
20
9.2632906694703898
30
0
11
5
21
9.2632906694703898
31
0
0
ARC
5
160
100
AcDbEntity
8
0
100
AcDbCircle
10
5.0000000000000622
20
19.188290669470529
30
0
40
9.9250000000001375
210
0
220
0
230
1
100
AcDbArc
50
232.98602188347525
51
269.9999999999996
0
LINE
5
161
100
AcDbEntity
8
0
100
AcDbLine
10
-0.97494769851583563
20
11.263290669470383
30
0
11
-5.999999999999952
21
11.263290669470383
31
0
0
ARC
5
162
100
AcDbEntity
8
0
100
AcDbCircle
10
-5.9999999999999432
20
19.188290669470387
30
0
40
7.9249999999999874
210
0
220
0
230
1
100
AcDbArc
50
179.35034670539818
51
269.99999999999994
0
SPLINE
5
163
100
AcDbEntity
8
0
100
AcDbSpline
70
0
71
3
72
17
73
13
74
0
42
0.000000001
43
0.0000000001
44
0.0000000001
40
-1.0021780055373142
40
-1.0021780055373142
40
-1.0021780055373142
40
-1.0021780055373142
40
-1
40
-1
40
-1
40
-0.5212028546237748
40
-0.5212028546237748
40
-0.5212028546237748
40
-0.042405709247549578
40
-0.042405709247549578
40
-0.042405709247549578
40
-0.042317493338629442
40
-0.042317493338629442
40
-0.042317493338629442
40
-0.042317493338629442
10
-13.924490572192072
20
19.278147061788431
30
0
10
-13.95410513680635
20
19.272796641320529
30
0
10
-13.983719701420645
20
19.26744622085268
30
0
10
-14.01333426603494
20
19.262095800384831
30
0
10
-20.513372932831302
20
18.087743235096028
30
0
10
-26.314740162368764
20
18.373983666780251
30
0
10
-31.16416928002949
20
20.655883246994815
30
0
10
-36.013598397690217
20
22.937782827209379
30
0
10
-39.90312702648631
20
27.258092636462656
30
0
10
-43.100326842919834
20
33.056157891411466
30
0
10
-43.100916820954282
20
33.0572278061303
30
0
10
-43.101506798988723
20
33.058297720849126
30
0
10
-43.102096777023256
20
33.059367635568137
30
0
0
ARC
5
164
100
AcDbEntity
8
0
100
AcDbCircle
10
-46.173860809209238
20
30.952858457532333
30
0
40
3.7246630970573333
210
0
220
-0
230
1
100
AcDbArc
50
34.440977291305934
51
87.297174474930088
0
LINE
5
165
100
AcDbEntity
8
0
100
AcDbLine
10
-45.99822167403844
20
34.673378055757325
30
0
11
-46.349499944380554
21
34.673378055757311
31
0
0
ARC
5
166
100
AcDbEntity
8
0
100
AcDbCircle
10
-46.173860809209238
20
30.952858457532333
30
0
40
3.7246630970572197
210
0
220
0
230
1
100
AcDbArc
50
92.702825525077884
51
120.69174990396448
0
LINE
5
167
100
AcDbEntity
8
0
100
AcDbLine
10
-48.074999999999967
20
34.155792263251627
30
0
11
-48.075000000000003
21
26.628046436541339
31
0
0
LINE
5
168
100
AcDbEntity
8
0
100
AcDbLine
10
-48.075000000000003
20
26.628046436541339
30
0
11
-54.075000000000017
21
26.628046436541339
31
0
0
LINE
5
169
100
AcDbEntity
8
0
100
AcDbLine
10
-54.075000000000017
20
26.628046436541339
30
0
11
-54.075000000000017
21
22.279266630440215
31
0
0
ARC
5
170
100
AcDbEntity
8
0
100
AcDbCircle
10
-52.000000000000021
20
22.279266630440215
30
0
40
2.0749999999999957
210
0
220
0
230
1
100
AcDbArc
50
180
51
270
0
LINE
5
171
100
AcDbEntity
8
0
100
AcDbLine
10
-52.000000000000021
20
20.20426663044022
30
0
11
-48.075000000000003
21
20.20426663044022
31
0
0
LINE
5
172
100
AcDbEntity
8
0
100
AcDbLine
10
-48.075000000000003
20
20.20426663044022
30
0
11
-48.075000000000003
21
16.204266630440216
31
0
0
LINE
5
173
100
AcDbEntity
8
0
100
AcDbLine
10
-48.075000000000003
20
16.204266630440216
30
0
11
-46.07500000000001
21
16.204266630440216
31
0
0
LINE
5
174
100
AcDbEntity
8
0
100
AcDbLine
10
-46.07500000000001
20
16.204266630440216
30
0
11
-46.07500000000001
21
-0.64573336955977112
31
0
0
LINE
5
175
100
AcDbEntity
8
0
100
AcDbLine
10
-46.07500000000001
20
-0.64573336955977112
30
0
11
-48.075000000000003
21
-0.64573336955977112
31
0
0
LINE
5
176
100
AcDbEntity
8
0
100
AcDbLine
10
-48.075000000000003
20
-0.64573336955977112
30
0
11
-48.075000000000003
21
-4.6457333695597747
31
0
0
LINE
5
177
100
AcDbEntity
8
0
100
AcDbLine
10
-48.075000000000003
20
-4.6457333695597747
30
0
11
-49.000000000000014
21
-4.6457333695597658
31
0
0
ARC
5
178
100
AcDbEntity
8
0
100
AcDbCircle
10
-49.000000000000014
20
-5.7207333695597651
30
0
40
1.0749999999999993
210
-0
220
0
230
1
100
AcDbArc
50
90
51
180
0
LINE
5
179
100
AcDbEntity
8
0
100
AcDbLine
10
-50.07500000000001
20
-5.720733369559774
30
0
11
-50.07500000000001
21
-11.795733369559782
31
0
0
LINE
5
180
100
AcDbEntity
8
0
100
AcDbLine
10
-50.07500000000001
20
-11.795733369559782
30
0
11
-48.075000000000003
21
-11.795733369559782
31
0
0
LINE
5
181
100
AcDbEntity
8
0
100
AcDbLine
10
-48.075000000000003
20
-11.795733369559782
30
0
11
-48.074999999999982
21
-22.379360317836266
31
0
0
SPLINE
5
182
100
AcDbEntity
8
0
100
AcDbSpline
70
0
71
3
72
14
73
10
74
0
42
0.000000001
43
0.0000000001
44
0.0000000001
40
0.17614562206777071
40
0.17614562206777071
40
0.17614562206777071
40
0.17614562206777071
40
0.17634480490882232
40
0.17634480490882232
40
0.17634480490882232
40
0.48744702783425092
40
0.48744702783425092
40
0.48744702783425092
40
0.48889064121421849
40
0.48889064121421849
40
0.48889064121421849
40
0.48889064121421849
10
-48.074999999999967
20
-22.379360317836301
30
0
10
-48.073820180657421
20
-22.383063312752611
30
0
10
-48.072640361314846
20
-22.386766307668921
30
0
10
-48.07146054197225
20
-22.390469302585238
30
0
10
-46.225158390008872
20
-28.185295032217709
30
0
10
-43.144853091274314
20
-33.102759940723281
30
0
10
-38.614703229442966
20
-36.979014694610868
30
0
10
-38.593731672244573
20
-36.996959155780175
30
0
10
-38.572760115046172
20
-37.014903616949468
30
0
10
-38.551788557847757
20
-37.032848078118754
30
0
0
LINE
5
183
100
AcDbEntity
8
0
100
AcDbLine
10
-38.551788557847743
20
-37.032848078118754
30
0
11
-35.134559518288093
21
-32.132670587429359
31
0
0
LINE
5
184
100
AcDbEntity
8
0
100
AcDbLine
10
-35.134559518288093
20
-32.132670587429359
30
0
11
-33.617106789559614
21
-33.190894200884742
31
0
0
LINE
5
185
100
AcDbEntity
8
0
100
AcDbLine
10
-33.617106789559614
20
-33.190894200884742
30
0
11
-37.105873374652887
21
-38.193653832339201
31
0
0
ENDSEC
0
SECTION
2
OBJECTS
0
DICTIONARY
5
C
100
AcDbDictionary
3
ACAD_GROUP
350
D
3
ACAD_MLINESTYLE
350
17
0
DICTIONARY
5
D
100
AcDbDictionary
0
DICTIONARY
5
1A
330
C
100
AcDbDictionary
0
DICTIONARY
5
17
100
AcDbDictionary
0
ENDSEC
0
EOF
