0
SECTION
2
HEADER
9
$INSUNITS
70
4
9
$ACADVER
1
AC1014
9
$HANDSEED
5
FFFF
0
ENDSEC
0
SECTION
2
TABLES
0
TABLE
2
VPORT
5
8
100
AcDbSymbolTable
0
ENDTAB
0
TABLE
2
LTYPE
5
5
100
AcDbSymbolTable
0
LTYPE
5
14
100
AcDbSymbolTableRecord
100
AcDbLinetypeTableRecord
2
BYBLOCK
70
0
0
LTYPE
5
15
100
AcDbSymbolTableRecord
100
AcDbLinetypeTableRecord
2
BYLAYER
70
0
0
ENDTAB
0
TABLE
2
LAYER
5
2
100
AcDbSymbolTable
70
2
0
LAYER
5
50
100
AcDbSymbolTableRecord
100
AcDbLayerTableRecord
2
0
70
0
6
CONTINUOUS
0
ENDTAB
0
TABLE
2
STYLE
5
3
100
AcDbSymbolTable
70
1
0
STYLE
5
11
100
AcDbSymbolTableRecord
100
AcDbTextStyleTableRecord
2
STANDARD
70
0
0
ENDTAB
0
TABLE
2
VIEW
5
6
100
AcDbSymbolTable
70
0
0
ENDTAB
0
TABLE
2
UCS
5
7
100
AcDbSymbolTable
70
0
0
ENDTAB
0
TABLE
2
APPID
5
9
100
AcDbSymbolTable
70
2
0
APPID
5
12
100
AcDbSymbolTableRecord
100
AcDbRegAppTableRecord
2
ACAD
70
0
0
ENDTAB
0
TABLE
2
DIMSTYLE
5
A
100
AcDbSymbolTable
70
1
0
ENDTAB
0
TABLE
2
BLOCK_RECORD
5
1
100
AcDbSymbolTable
70
1
0
BLOCK_RECORD
5
1F
100
AcDbSymbolTableRecord
100
AcDbBlockTableRecord
2
*MODEL_SPACE
0
BLOCK_RECORD
5
1B
100
AcDbSymbolTableRecord
100
AcDbBlockTableRecord
2
*PAPER_SPACE
0
ENDTAB
0
ENDSEC
0
SECTION
2
BLOCKS
0
BLOCK
5
20
100
AcDbEntity
100
AcDbBlockBegin
2
*MODEL_SPACE
0
ENDBLK
5
21
100
AcDbEntity
100
AcDbBlockEnd
0
BLOCK
5
1C
100
AcDbEntity
100
AcDbBlockBegin
2
*PAPER_SPACE
0
ENDBLK
5
1D
100
AcDbEntity
100
AcDbBlockEnd
0
ENDSEC
0
SECTION
2
ENTITIES
0
CIRCLE
5
100
100
AcDbEntity
8
0
100
AcDbCircle
10
43.034939963948005
20
-17.702755874186327
30
0
40
3.9250000000000007
210
0
220
0
230
1
0
LINE
5
101
100
AcDbEntity
8
0
100
AcDbLine
10
42.425000000000011
20
7.9367093305296876
30
0
11
42.795000000000002
21
7.9367093305296876
31
0
0
LINE
5
102
100
AcDbEntity
8
0
100
AcDbLine
10
42.795000000000002
20
7.9367093305296876
30
0
11
42.795000000000002
21
4.086709330529672
31
0
0
LINE
5
103
100
AcDbEntity
8
0
100
AcDbLine
10
42.795000000000002
20
4.086709330529672
30
0
11
42.425000000000011
21
4.086709330529672
31
0
0
LINE
5
104
100
AcDbEntity
8
0
100
AcDbLine
10
42.425000000000011
20
4.086709330529672
30
0
11
42.425000000000011
21
1.0867093305296738
31
0
0
LINE
5
105
100
AcDbEntity
8
0
100
AcDbLine
10
42.425000000000011
20
1.0867093305296738
30
0
11
40.425000000000004
21
1.0867093305296738
31
0
0
LINE
5
106
100
AcDbEntity
8
0
100
AcDbLine
10
40.425000000000004
20
1.0867093305296738
30
0
11
40.425000000000026
21
-2.0506239102825052
31
0
0
ARC
5
107
100
AcDbEntity
8
0
100
AcDbCircle
10
30.048654078311834
20
31.428390443833152
30
0
40
35.050149169577274
210
0
220
0
230
1
100
AcDbArc
50
252.03711070445519
51
287.2200815295987
0
LINE
5
108
100
AcDbEntity
8
0
100
AcDbLine
10
19.239155600195701
20
-1.9132906694703955
30
0
11
-5.9999999999999609
21
-1.91329066947036
31
0
0
ARC
5
109
100
AcDbEntity
8
0
100
AcDbCircle
10
-5.9999999999999787
20
6.0117093305296887
30
0
40
7.9250000000000576
210
0
220
0
230
1
100
AcDbArc
50
90.000000000000128
51
270.00000000000011
0
LINE
5
110
100
AcDbEntity
8
0
100
AcDbLine
10
-5.9999999999999964
20
13.936709330529746
30
0
11
19.23975493884906
21
13.936709330529755
31
0
0
ARC
5
111
100
AcDbEntity
8
0
100
AcDbCircle
10
30.048654078311827
20
-17.712470113030658
30
0
40
33.444025775282583
210
0
220
-0
230
1
100
AcDbArc
50
71.925095530942485
51
108.85617798786062
0
LINE
5
112
100
AcDbEntity
8
0
100
AcDbLine
10
40.425000000000004
20
14.081150400701823
30
0
11
40.425000000000004
21
10.936709330529686
31
0
0
LINE
5
113
100
AcDbEntity
8
0
100
AcDbLine
10
40.425000000000004
20
10.936709330529686
30
0
11
42.425000000000011
21
10.936709330529686
31
0
0
LINE
5
114
100
AcDbEntity
8
0
100
AcDbLine
10
42.425000000000011
20
10.936709330529686
30
0
11
42.425000000000011
21
7.9367093305296876
31
0
0
LINE
5
115
100
AcDbEntity
8
0
100
AcDbLine
10
31.925000000000008
20
25.319075915965765
30
0
11
29.925000000000004
21
25.319075915965765
31
0
0
LINE
5
116
100
AcDbEntity
8
0
100
AcDbLine
10
29.925000000000004
20
25.319075915965765
30
0
11
29.925000000000004
21
20.652008383288518
31
0
0
LINE
5
117
100
AcDbEntity
8
0
100
AcDbLine
10
29.925000000000004
20
20.652008383288518
30
0
11
31.925000000000008
21
20.652008383288518
31
0
0
LINE
5
118
100
AcDbEntity
8
0
100
AcDbLine
10
31.925000000000008
20
20.652008383288518
30
0
11
31.925000000000008
21
18.68705915041491
31
0
0
LINE
5
119
100
AcDbEntity
8
0
100
AcDbLine
10
31.925000000000008
20
18.68705915041491
30
0
11
5
21
18.68705915041491
31
0
0
ARC
5
120
100
AcDbEntity
8
0
100
AcDbCircle
10
5.0000000000000355
20
29.661884240472371
30
0
40
10.974825090057458
210
0
220
0
230
1
100
AcDbArc
50
234.86165853132346
51
269.99999999999983
0
LINE
5
121
100
AcDbEntity
8
0
100
AcDbLine
10
-1.3165892980491911
20
20.687059150414917
30
0
11
-5.9999999999999787
21
20.687059150414946
31
0
0
ARC
5
122
100
AcDbEntity
8
0
100
AcDbCircle
10
-5.9999999999999964
20
29.661884240472265
30
0
40
8.974825090057319
210
0
220
0
230
1
100
AcDbArc
50
90.000000000000099
51
270.00000000000011
0
LINE
5
123
100
AcDbEntity
8
0
100
AcDbLine
10
-6.0000000000000142
20
38.636709330529584
30
0
11
-1.3165892980490668
21
38.636709330529591
31
0
0
ARC
5
124
100
AcDbEntity
8
0
100
AcDbCircle
10
5.0000000000000355
20
29.661884240472371
30
0
40
10.974825090057196
210
0
220
0
230
1
100
AcDbArc
50
90.000000000000128
51
125.13834146867667
0
LINE
5
125
100
AcDbEntity
8
0
100
AcDbLine
10
5.0000000000000089
20
40.63670933052957
30
0
11
31.925000000000008
21
40.63670933052957
31
0
0
LINE
5
126
100
AcDbEntity
8
0
100
AcDbLine
10
31.925000000000008
20
40.63670933052957
30
0
11
31.925000000000008
21
38.786709330529575
31
0
0
LINE
5
127
100
AcDbEntity
8
0
100
AcDbLine
10
31.925000000000008
20
38.786709330529575
30
0
11
29.925000000000004
21
38.786709330529575
31
0
0
LINE
5
128
100
AcDbEntity
8
0
100
AcDbLine
10
29.925000000000004
20
38.786709330529575
30
0
11
29.925000000000004
21
35.169075915965763
31
0
0
LINE
5
129
100
AcDbEntity
8
0
100
AcDbLine
10
29.925000000000004
20
35.169075915965763
30
0
11
31.925000000000008
21
35.169075915965763
31
0
0
LINE
5
130
100
AcDbEntity
8
0
100
AcDbLine
10
31.925000000000008
20
35.169075915965763
30
0
11
31.925000000000008
21
25.319075915965765
31
0
0
LINE
5
131
100
AcDbEntity
8
0
100
AcDbLine
10
54.075000000000003
20
3.6750959128534078
30
0
11
52.075000000000017
21
3.6750959128534078
31
0
0
LINE
5
132
100
AcDbEntity
8
0
100
AcDbLine
10
52.075000000000017
20
3.6750959128534078
30
0
11
52.075000000000017
21
25.080410060061151
31
0
0
LINE
5
133
100
AcDbEntity
8
0
100
AcDbLine
10
52.075000000000017
20
25.080410060061151
30
0
11
54.075000000000003
21
25.080410060061151
31
0
0
LINE
5
134
100
AcDbEntity
8
0
100
AcDbLine
10
54.075000000000003
20
25.080410060061151
30
0
11
54.075000000000003
21
35.23041006006116
31
0
0
LINE
5
135
100
AcDbEntity
8
0
100
AcDbLine
10
54.075000000000003
20
35.23041006006116
30
0
11
52.075000000000017
21
35.23041006006116
31
0
0
LINE
5
136
100
AcDbEntity
8
0
100
AcDbLine
10
52.075000000000017
20
35.23041006006116
30
0
11
52.075000000000017
21
46.852321748029055
31
0
0
SPLINE
5
137
100
AcDbEntity
8
0
100
AcDbSpline
70
0
71
3
72
20
73
16
74
0
42
0.000000001
43
0.0000000001
44
0.0000000001
40
7.6412453783306707e-05
40
7.6412453783306707e-05
40
7.6412453783306707e-05
40
7.6412453783306707e-05
40
0.24539016463586197
40
0.24539016463586197
40
0.24539016463586197
40
0.51665585517331836
40
0.51665585517331836
40
0.51665585517331836
40
0.79559989893948768
40
0.79559989893948768
40
0.79559989893948768
40
1
40
1
40
1
40
1.0055020345658596
40
1.0055020345658596
40
1.0055020345658596
40
1.0055020345658596
10
31.997701375280158
20
48.786709330529582
30
0
10
34.458300112867953
20
48.937506891908924
30
0
10
36.435611345295982
20
48.457303645941856
30
0
10
38.103126651064173
20
47.707793082247491
30
0
10
39.947049736816197
20
46.878991195613899
30
0
10
41.443501897326847
20
45.786816064440359
30
0
10
42.959970536438462
20
45.149698856560491
30
0
10
44.519363814667898
20
44.494547628379323
30
0
10
46.109319052908333
20
44.332341891696402
30
0
10
47.865170451350352
20
44.800852323996153
30
0
10
49.151794816736114
20
45.144159814692188
30
0
10
50.517194400320378
20
45.807461671642514
30
0
10
51.958222621508121
20
46.773996172208584
30
0
10
51.997148414338746
20
46.800104697482077
30
0
10
52.036074207169378
20
46.82621322275557
30
0
10
52.075000000000017
20
46.852321748029055
30
0
0
LINE
5
138
100
AcDbEntity
8
0
100
AcDbLine
10
31.997701375280158
20
48.786709330529582
30
0
11
-6.0048152161563806
21
48.786709330529597
31
0
0
SPLINE
5
139
100
AcDbEntity
8
0
100
AcDbSpline
70
0
71
3
72
17
73
13
74
0
42
0.000000001
43
0.0000000001
44
0.0000000001
40
0.5208727436492141
40
0.5208727436492141
40
0.5208727436492141
40
0.5208727436492141
40
0.5221110217195426
40
0.5221110217195426
40
0.5221110217195426
40
0.90361455913899846
40
0.90361455913899846
40
0.90361455913899846
40
1
40
1
40
1
40
1.000058912946278
40
1.000058912946278
40
1.000058912946278
40
1.000058912946278
10
-37.10587337465288
20
38.193653832339201
30
0
10
-37.086643709393257
20
38.208157290725453
30
0
10
-37.067414044133713
20
38.222660749111689
30
0
10
-37.048184378874168
20
38.237164207497919
30
0
10
-31.110480541810155
20
42.715517800671286
30
0
10
-23.079414020788622
20
45.68535839349687
30
0
10
-13.536214564207665
20
47.569035556520838
30
0
10
-11.125160939203678
20
48.044939541647565
30
0
10
-8.6155666337267434
20
48.450086235905815
30
0
10
-6.0095908985326396
20
48.786093567201988
30
0
10
-6.0079990044072051
20
48.786298821644536
30
0
10
-6.0064071102817884
20
48.786504076087063
30
0
10
-6.0048152161563806
20
48.786709330529597
30
0
0
LINE
5
140
100
AcDbEntity
8
0
100
AcDbLine
10
-37.10587337465288
20
38.193653832339201
30
0
11
-33.6171067895596
21
33.190894200884735
31
0
0
LINE
5
141
100
AcDbEntity
8
0
100
AcDbLine
10
-33.6171067895596
20
33.190894200884735
30
0
11
-35.134559518288086
21
32.132670587429352
31
0
0
LINE
5
142
100
AcDbEntity
8
0
100
AcDbLine
10
-35.134559518288086
20
32.132670587429352
30
0
11
-38.55178855784775
21
37.032848078118775
31
0
0
SPLINE
5
143
100
AcDbEntity
8
0
100
AcDbSpline
70
0
71
3
72
14
73
10
74
0
42
0.000000001
43
0.0000000001
44
0.0000000001
40
0.17614562206777071
40
0.17614562206777071
40
0.17614562206777071
40
0.17614562206777071
40
0.17634480490882232
40
0.17634480490882232
40
0.17634480490882232
40
0.48744702783425092
40
0.48744702783425092
40
0.48744702783425092
40
0.48889064121421866
40
0.48889064121421866
40
0.48889064121421866
40
0.48889064121421866
10
-48.07499999999996
20
22.379360317836301
30
0
10
-48.073820180657414
20
22.383063312752611
30
0
10
-48.072640361314839
20
22.386766307668921
30
0
10
-48.071460541972243
20
22.390469302585238
30
0
10
-46.225158390008865
20
28.185295032217709
30
0
10
-43.144853091274307
20
33.102759940723281
30
0
10
-38.614703229442959
20
36.979014694610868
30
0
10
-38.593731672244559
20
36.996959155780168
30
0
10
-38.572760115046151
20
37.014903616949468
30
0
10
-38.55178855784775
20
37.032848078118775
30
0
0
LINE
5
144
100
AcDbEntity
8
0
100
AcDbLine
10
-48.07499999999996
20
22.379360317836301
30
0
11
-48.074999999999989
21
11.795733369559782
31
0
0
LINE
5
145
100
AcDbEntity
8
0
100
AcDbLine
10
-48.074999999999989
20
11.795733369559782
30
0
11
-50.075000000000003
21
11.795733369559782
31
0
0
LINE
5
146
100
AcDbEntity
8
0
100
AcDbLine
10
-50.075000000000003
20
11.795733369559782
30
0
11
-50.075000000000003
21
5.720733369559774
31
0
0
ARC
5
147
100
AcDbEntity
8
0
100
AcDbCircle
10
-49
20
5.7207333695597651
30
0
40
1.0749999999999993
210
0
220
0
230
1
100
AcDbArc
50
180
51
270
0
LINE
5
148
100
AcDbEntity
8
0
100
AcDbLine
10
-49
20
4.6457333695597658
30
0
11
-48.074999999999989
21
4.6457333695597747
31
0
0
LINE
5
149
100
AcDbEntity
8
0
100
AcDbLine
10
-48.074999999999989
20
4.6457333695597747
30
0
11
-48.074999999999989
21
0.64573336955977112
31
0
0
LINE
5
150
100
AcDbEntity
8
0
100
AcDbLine
10
-48.074999999999989
20
0.64573336955977112
30
0
11
-46.075000000000003
21
0.64573336955977112
31
0
0
LINE
5
151
100
AcDbEntity
8
0
100
AcDbLine
10
-46.075000000000003
20
0.64573336955977112
30
0
11
-46.075000000000003
21
-16.204266630440216
31
0
0
LINE
5
152
100
AcDbEntity
8
0
100
AcDbLine
10
-46.075000000000003
20
-16.204266630440216
30
0
11
-48.074999999999989
21
-16.204266630440216
31
0
0
LINE
5
153
100
AcDbEntity
8
0
100
AcDbLine
10
-48.074999999999989
20
-16.204266630440216
30
0
11
-48.074999999999989
21
-20.20426663044022
31
0
0
LINE
5
154
100
AcDbEntity
8
0
100
AcDbLine
10
-48.074999999999989
20
-20.20426663044022
30
0
11
-52.000000000000014
21
-20.20426663044022
31
0
0
ARC
5
155
100
AcDbEntity
8
0
100
AcDbCircle
10
-52.000000000000014
20
-22.279266630440215
30
0
40
2.0749999999999957
210
0
220
-0
230
1
100
AcDbArc
50
90
51
180
0
LINE
5
156
100
AcDbEntity
8
0
100
AcDbLine
10
-54.075000000000003
20
-22.279266630440215
30
0
11
-54.075000000000003
21
-26.628046436541339
31
0
0
LINE
5
157
100
AcDbEntity
8
0
100
AcDbLine
10
-54.075000000000003
20
-26.628046436541339
30
0
11
-48.074999999999989
21
-26.628046436541339
31
0
0
LINE
5
158
100
AcDbEntity
8
0
100
AcDbLine
10
-48.074999999999989
20
-26.628046436541339
30
0
11
-48.074999999999974
21
-34.155792263251605
31
0
0
ARC
5
159
100
AcDbEntity
8
0
100
AcDbCircle
10
-46.173860809209245
20
-30.952858457532386
30
0
40
3.7246630970571575
210
0
220
0
230
1
100
AcDbArc
50
239.3082500960349
51
267.29717447492561
0
LINE
5
160
100
AcDbEntity
8
0
100
AcDbLine
10
-46.349499944380327
20
-34.673378055757311
30
0
11
-45.99822167403785
21
-34.673378055757325
31
0
0
ARC
5
161
100
AcDbEntity
8
0
100
AcDbCircle
10
-46.173860809209245
20
-30.952858457532386
30
0
40
3.7246630970571881
210
-0
220
0
230
1
100
AcDbArc
50
272.70282552507911
51
325.55902270870729
0
SPLINE
5
162
100
AcDbEntity
8
0
100
AcDbSpline
70
0
71
3
72
17
73
13
74
0
42
0.000000001
43
0.0000000001
44
0.0000000001
40
-1.0021780055373157
40
-1.0021780055373157
40
-1.0021780055373157
40
-1.0021780055373157
40
-1
40
-1
40
-1
40
-0.5212028546237748
40
-0.5212028546237748
40
-0.5212028546237748
40
-0.042405709247549578
40
-0.042405709247549578
40
-0.042405709247549578
40
-0.04231749333864597
40
-0.04231749333864597
40
-0.04231749333864597
40
-0.04231749333864597
10
-13.92449057219201
20
-19.278147061788413
30
0
10
-13.954105136806305
20
-19.272796641320546
30
0
10
-13.983719701420618
20
-19.26744622085268
30
0
10
-14.013334266034931
20
-19.262095800384831
30
0
10
-20.513372932831295
20
-18.087743235096028
30
0
10
-26.314740162368757
20
-18.373983666780251
30
0
10
-31.164169280029483
20
-20.655883246994815
30
0
10
-36.01359839769021
20
-22.937782827209379
30
0
10
-39.903127026486302
20
-27.258092636462656
30
0
10
-43.100326842919827
20
-33.056157891411466
30
0
10
-43.100916820954168
20
-33.057227806130115
30
0
10
-43.101506798988503
20
-33.05829772084877
30
0
10
-43.102096777022766
20
-33.059367635567284
30
0
0
ARC
5
163
100
AcDbEntity
8
0
100
AcDbCircle
10
-5.9999999999999343
20
-19.188290669470387
30
0
40
7.9250000000000043
210
0
220
0
230
1
100
AcDbArc
50
90.000000000000128
51
180.64965329460125
0
LINE
5
164
100
AcDbEntity
8
0
100
AcDbLine
10
-5.999999999999952
20
-11.263290669470383
30
0
11
-0.97494769851582674
21
-11.263290669470383
31
0
0
ARC
5
165
100
AcDbEntity
8
0
100
AcDbCircle
10
5.0000000000000711
20
-19.188290669470529
30
0
40
9.9250000000001375
210
0
220
0
230
1
100
AcDbArc
50
90.000000000000341
51
127.01397811652468
0
LINE
5
166
100
AcDbEntity
8
0
100
AcDbLine
10
5.0000000000000089
20
-9.2632906694703898
30
0
11
31.925000000000008
21
-9.2632906694703898
31
0
0
LINE
5
167
100
AcDbEntity
8
0
100
AcDbLine
10
31.925000000000008
20
-9.2632906694703898
30
0
11
31.925000000000008
21
-48.957011208890449
31
0
0
SPLINE
5
168
100
AcDbEntity
8
0
100
AcDbSpline
70
0
71
3
72
20
73
16
74
0
42
0.000000001
43
0.0000000001
44
0.0000000001
40
-0.011627646104756216
40
-0.011627646104756216
40
-0.011627646104756216
40
-0.011627646104756216
40
0
40
0
40
0
40
0.36416753964081588
40
0.36416753964081588
40
0.36416753964081588
40
0.77703838106148027
40
0.77703838106148027
40
0.77703838106148027
40
1
40
1
40
1
40
1.0004915706633624
40
1.0004915706633624
40
1.0004915706633624
40
1.0004915706633624
10
31.925000000000068
20
-48.957011208890378
30
0
10
31.968853723518464
20
-48.90665021123656
30
0
10
32.012707447036853
20
-48.85628921358277
30
0
10
32.056561170555241
20
-48.805928215928972
30
0
10
33.424181385684058
20
-47.235372447351835
30
0
10
34.991758181914719
20
-45.944536818202209
30
0
10
36.873076144076848
20
-45.096205561963387
30
0
10
39.005999168418342
20
-44.134419566670587
30
0
10
41.538392351351348
20
-43.734637573494112
30
0
10
45.12350337547808
20
-44.779794174777678
30
0
10
47.059562011305054
20
-45.344207508169347
30
0
10
49.315524781543701
20
-46.349247669798253
30
0
10
51.962168023781778
20
-47.895404699789594
30
0
10
51.968011328001147
20
-47.898818331726446
30
0
10
51.973854632220494
20
-47.902231963663283
30
0
10
51.979697936439884
20
-47.905645595600177
30
0
0
LINE
5
169
100
AcDbEntity
8
0
100
AcDbLine
10
51.979697936439891
20
-47.905645595600163
30
0
11
54.075000000000003
21
-47.90564559560012
31
0
0
LINE
5
170
100
AcDbEntity
8
0
100
AcDbLine
10
54.075000000000003
20
-47.90564559560012
30
0
11
54.075000000000003
21
-27.803447671873887
31
0
0
LINE
5
171
100
AcDbEntity
8
0
100
AcDbLine
10
54.075000000000003
20
-27.803447671873887
30
0
11
52.075000000000017
21
-27.803447671873887
31
0
0
LINE
5
172
100
AcDbEntity
8
0
100
AcDbLine
10
52.075000000000017
20
-27.803447671873887
30
0
11
52.075000000000017
21
-6.4749040871465979
31
0
0
LINE
5
173
100
AcDbEntity
8
0
100
AcDbLine
10
52.075000000000017
20
-6.4749040871465979
30
0
11
54.075000000000003
21
-6.4749040871465979
31
0
0
LINE
5
174
100
AcDbEntity
8
0
100
AcDbLine
10
54.075000000000003
20
-6.4749040871465979
30
0
11
54.075000000000003
21
3.6750959128534078
31
0
0
ENDSEC
0
SECTION
2
OBJECTS
0
DICTIONARY
5
C
100
AcDbDictionary
3
ACAD_GROUP
350
D
3
ACAD_MLINESTYLE
350
17
0
DICTIONARY
5
D
100
AcDbDictionary
0
DICTIONARY
5
1A
330
C
100
AcDbDictionary
0
DICTIONARY
5
17
100
AcDbDictionary
0
ENDSEC
0
EOF
