0
SECTION
2
HEADER
9
$INSUNITS
70
4
9
$ACADVER
1
AC1014
9
$HANDSEED
5
FFFF
0
ENDSEC
0
SECTION
2
TABLES
0
TABLE
2
VPORT
5
8
100
AcDbSymbolTable
0
ENDTAB
0
TABLE
2
LTYPE
5
5
100
AcDbSymbolTable
0
LTYPE
5
14
100
AcDbSymbolTableRecord
100
AcDbLinetypeTableRecord
2
BYBLOCK
70
0
0
LTYPE
5
15
100
AcDbSymbolTableRecord
100
AcDbLinetypeTableRecord
2
BYLAYER
70
0
0
ENDTAB
0
TABLE
2
LAYER
5
2
100
AcDbSymbolTable
70
2
0
LAYER
5
50
100
AcDbSymbolTableRecord
100
AcDbLayerTableRecord
2
0
70
0
6
CONTINUOUS
0
ENDTAB
0
TABLE
2
STYLE
5
3
100
AcDbSymbolTable
70
1
0
STYLE
5
11
100
AcDbSymbolTableRecord
100
AcDbTextStyleTableRecord
2
STANDARD
70
0
0
ENDTAB
0
TABLE
2
VIEW
5
6
100
AcDbSymbolTable
70
0
0
ENDTAB
0
TABLE
2
UCS
5
7
100
AcDbSymbolTable
70
0
0
ENDTAB
0
TABLE
2
APPID
5
9
100
AcDbSymbolTable
70
2
0
APPID
5
12
100
AcDbSymbolTableRecord
100
AcDbRegAppTableRecord
2
ACAD
70
0
0
ENDTAB
0
TABLE
2
DIMSTYLE
5
A
100
AcDbSymbolTable
70
1
0
ENDTAB
0
TABLE
2
BLOCK_RECORD
5
1
100
AcDbSymbolTable
70
1
0
BLOCK_RECORD
5
1F
100
AcDbSymbolTableRecord
100
AcDbBlockTableRecord
2
*MODEL_SPACE
0
BLOCK_RECORD
5
1B
100
AcDbSymbolTableRecord
100
AcDbBlockTableRecord
2
*PAPER_SPACE
0
ENDTAB
0
ENDSEC
0
SECTION
2
BLOCKS
0
BLOCK
5
20
100
AcDbEntity
100
AcDbBlockBegin
2
*MODEL_SPACE
0
ENDBLK
5
21
100
AcDbEntity
100
AcDbBlockEnd
0
BLOCK
5
1C
100
AcDbEntity
100
AcDbBlockBegin
2
*PAPER_SPACE
0
ENDBLK
5
1D
100
AcDbEntity
100
AcDbBlockEnd
0
ENDSEC
0
SECTION
2
ENTITIES
0
CIRCLE
5
100
100
AcDbEntity
8
0
100
AcDbCircle
10
43.034939963948005
20
10.140787446118331
30
0
40
3.9250000000000007
210
0
220
0
230
1
0
LINE
5
101
100
AcDbEntity
8
0
100
AcDbLine
10
29.92499999999999
20
-3.9404278237730139
30
0
11
29.925000000000004
21
-5.3471779255850382
31
0
0
LINE
5
102
100
AcDbEntity
8
0
100
AcDbLine
10
29.925000000000004
20
-5.3471779255850382
30
0
11
31.925000000000008
21
-5.3471779255850382
31
0
0
LINE
5
103
100
AcDbEntity
8
0
100
AcDbLine
10
31.925000000000008
20
-5.3471779255850382
30
0
11
31.925000000000008
21
-33.752442175127165
31
0
0
LINE
5
104
100
AcDbEntity
8
0
100
AcDbLine
10
31.925000000000008
20
-33.752442175127165
30
0
11
-5.9999999999999876
21
-33.752442175127157
31
0
0
ARC
5
105
100
AcDbEntity
8
0
100
AcDbCircle
10
-6.0000000000000053
20
-26.095661811640738
30
0
40
7.6567803634864173
210
0
220
0
230
1
100
AcDbArc
50
180
51
270.00000000000011
0
LINE
5
106
100
AcDbEntity
8
0
100
AcDbLine
10
-13.656780363486423
20
-26.095661811640738
30
0
11
-13.656780363486423
21
-14.162309300918894
31
0
0
ARC
5
107
100
AcDbEntity
8
0
100
AcDbCircle
10
-3.2949236590399966
20
-14.162309452537087
30
0
40
10.361856704446433
210
0
220
0
230
1
100
AcDbArc
50
143.27402698276725
51
179.99999914622637
0
ARC
5
108
100
AcDbEntity
8
0
100
AcDbCircle
10
-6.0000000000000497
20
-13.573677758597578
30
0
40
7.9249999999999421
210
0
220
-0
230
1
100
AcDbArc
50
89.999999999999673
51
134.96094322721538
0
LINE
5
109
100
AcDbEntity
8
0
100
AcDbLine
10
-6.0000000000000053
20
-5.6486777585976355
30
0
11
19.239155600195641
21
-5.6486777585976089
31
0
0
ARC
5
110
100
AcDbEntity
8
0
100
AcDbCircle
10
30.048654078311834
20
-38.99035887190098
30
0
40
35.050149169577139
210
0
220
0
230
1
100
AcDbArc
50
90.202135273925848
51
107.96288929554501
0
ARC
5
111
100
AcDbEntity
8
0
100
AcDbCircle
10
-49
20
-13.282701797627761
30
0
40
1.0749999999999993
210
-0
220
0
230
1
100
AcDbArc
50
90
51
180
0
LINE
5
112
100
AcDbEntity
8
0
100
AcDbLine
10
-50.075000000000003
20
-13.282701797627769
30
0
11
-50.075000000000003
21
-19.357701797627776
31
0
0
LINE
5
113
100
AcDbEntity
8
0
100
AcDbLine
10
-50.075000000000003
20
-19.357701797627776
30
0
11
-48.074999999999989
21
-19.357701797627776
31
0
0
LINE
5
114
100
AcDbEntity
8
0
100
AcDbLine
10
-48.074999999999989
20
-19.357701797627776
30
0
11
-48.074999999999974
21
-29.941328745904244
31
0
0
SPLINE
5
115
100
AcDbEntity
8
0
100
AcDbSpline
70
0
71
3
72
14
73
10
74
0
42
0.000000001
43
0.0000000001
44
0.0000000001
40
0.17614562206777071
40
0.17614562206777071
40
0.17614562206777071
40
0.17614562206777071
40
0.17634480490882232
40
0.17634480490882232
40
0.17634480490882232
40
0.48744702783425092
40
0.48744702783425092
40
0.48744702783425092
40
0.4888906412142186
40
0.4888906412142186
40
0.4888906412142186
40
0.4888906412142186
10
-48.07499999999996
20
-29.941328745904279
30
0
10
-48.073820180657414
20
-29.945031740820589
30
0
10
-48.072640361314839
20
-29.948734735736899
30
0
10
-48.071460541972243
20
-29.952437730653216
30
0
10
-46.225158390008865
20
-35.747263460285474
30
0
10
-43.144853091274307
20
-40.664728368791316
30
0
10
-38.614703229442959
20
-44.540983122678846
30
0
10
-38.593731672244559
20
-44.558927583848146
30
0
10
-38.572760115046165
20
-44.576872045017453
30
0
10
-38.55178855784775
20
-44.59481650618676
30
0
0
LINE
5
116
100
AcDbEntity
8
0
100
AcDbLine
10
-38.551788557847729
20
-44.59481650618676
30
0
11
-35.134559518288086
21
-39.694639015497359
31
0
0
LINE
5
117
100
AcDbEntity
8
0
100
AcDbLine
10
-35.134559518288086
20
-39.694639015497359
30
0
11
-33.6171067895596
21
-40.752862628952741
31
0
0
LINE
5
118
100
AcDbEntity
8
0
100
AcDbLine
10
-33.6171067895596
20
-40.752862628952741
30
0
11
-37.10587337465288
21
-45.755622260407179
31
0
0
SPLINE
5
119
100
AcDbEntity
8
0
100
AcDbSpline
70
0
71
3
72
17
73
13
74
0
42
0.000000001
43
0.0000000001
44
0.0000000001
40
0.52087274364921365
40
0.52087274364921365
40
0.52087274364921365
40
0.52087274364921365
40
0.5221110217195426
40
0.5221110217195426
40
0.5221110217195426
40
0.90361455913883582
40
0.90361455913883582
40
0.90361455913883582
40
1
40
1
40
1
40
1.0000589129462771
40
1.0000589129462771
40
1.0000589129462771
40
1.0000589129462771
10
-37.105873374652809
20
-45.7556222604072
30
0
10
-37.086643709393279
20
-45.770125718793423
30
0
10
-37.067414044133727
20
-45.784629177179653
30
0
10
-37.048184378874168
20
-45.799132635565897
30
0
10
-31.110480541812695
20
-50.277486228737317
30
0
10
-23.079414020795568
20
-53.247326821562311
30
0
10
-13.536214564219886
20
-55.1310039845864
30
0
10
-11.125160939212133
20
-55.606907969714179
30
0
10
-8.6155666337311487
20
-56.012054663973231
30
0
10
-6.0095908985326485
20
-56.348061995269973
30
0
10
-6.0079990044072495
20
-56.348267249712507
30
0
10
-6.0064071102818595
20
-56.34847250415504
30
0
10
-6.0048152161566826
20
-56.348677758597525
30
0
0
LINE
5
120
100
AcDbEntity
8
0
100
AcDbLine
10
-6.0048152161566914
20
-56.348677758597525
30
0
11
31.997701375280265
21
-56.348677758597567
31
0
0
SPLINE
5
121
100
AcDbEntity
8
0
100
AcDbSpline
70
0
71
3
72
20
73
16
74
0
42
0.000000001
43
0.0000000001
44
0.0000000001
40
7.6412453786916544e-05
40
7.6412453786916544e-05
40
7.6412453786916544e-05
40
7.6412453786916544e-05
40
0.24539016463593299
40
0.24539016463593299
40
0.24539016463593299
40
0.5166558551735243
40
0.5166558551735243
40
0.5166558551735243
40
0.79559989893986405
40
0.79559989893986405
40
0.79559989893986405
40
1
40
1
40
1
40
1.0055020345658592
40
1.0055020345658592
40
1.0055020345658592
40
1.0055020345658592
10
31.997701375280265
20
-56.348677758597567
30
0
10
34.45830011286872
20
-56.499475319976881
30
0
10
36.435611345297154
20
-56.019272074009535
30
0
10
38.103126651065629
20
-55.269761510314822
30
0
10
39.947049736818379
20
-54.440959623680669
30
0
10
41.44350189732954
20
-53.348784492506582
30
0
10
42.959970536441922
20
-52.711667284627019
30
0
10
44.51936381467231
20
-52.056516056446114
30
0
10
46.109319052913982
20
-51.894310319764394
30
0
10
47.865170451357457
20
-52.362820752066021
30
0
10
49.151794816741145
20
-52.706128242762617
30
0
10
50.517194400323035
20
-53.369430099712254
30
0
10
51.958222621508121
20
-54.335964600276569
30
0
10
51.997148414338746
20
-54.362073125550054
30
0
10
52.036074207169378
20
-54.38818165082354
30
0
10
52.075000000000003
20
-54.414290176097033
30
0
0
LINE
5
122
100
AcDbEntity
8
0
100
AcDbLine
10
52.075000000000003
20
-54.414290176097033
30
0
11
52.075000000000017
21
-42.792378488129152
31
0
0
LINE
5
123
100
AcDbEntity
8
0
100
AcDbLine
10
52.075000000000017
20
-42.792378488129152
30
0
11
54.075000000000003
21
-42.792378488129152
31
0
0
LINE
5
124
100
AcDbEntity
8
0
100
AcDbLine
10
54.075000000000003
20
-42.792378488129152
30
0
11
54.075000000000003
21
-32.642378488129147
31
0
0
LINE
5
125
100
AcDbEntity
8
0
100
AcDbLine
10
54.075000000000003
20
-32.642378488129147
30
0
11
52.075000000000017
21
-32.642378488129147
31
0
0
LINE
5
126
100
AcDbEntity
8
0
100
AcDbLine
10
52.075000000000017
20
-32.642378488129147
30
0
11
52.075000000000017
21
-11.237064340921403
31
0
0
LINE
5
127
100
AcDbEntity
8
0
100
AcDbLine
10
52.075000000000017
20
-11.237064340921403
30
0
11
54.075000000000003
21
-11.237064340921403
31
0
0
LINE
5
128
100
AcDbEntity
8
0
100
AcDbLine
10
54.075000000000003
20
-11.237064340921403
30
0
11
54.075000000000003
21
-1.0870643409213976
31
0
0
LINE
5
129
100
AcDbEntity
8
0
100
AcDbLine
10
54.075000000000003
20
-1.0870643409213976
30
0
11
52.075000000000017
21
-1.0870643409213976
31
0
0
LINE
5
130
100
AcDbEntity
8
0
100
AcDbLine
10
52.075000000000017
20
-1.0870643409213976
30
0
11
52.075000000000017
21
20.241479243805891
31
0
0
LINE
5
131
100
AcDbEntity
8
0
100
AcDbLine
10
52.075000000000017
20
20.241479243805891
30
0
11
54.075000000000003
21
20.241479243805891
31
0
0
LINE
5
132
100
AcDbEntity
8
0
100
AcDbLine
10
54.075000000000003
20
20.241479243805891
30
0
11
54.075000000000003
21
40.343677167532128
31
0
0
LINE
5
133
100
AcDbEntity
8
0
100
AcDbLine
10
54.075000000000003
20
40.343677167532128
30
0
11
51.984265277211115
21
40.343677167532235
31
0
0
SPLINE
5
134
100
AcDbEntity
8
0
100
AcDbSpline
70
0
71
3
72
26
73
22
74
0
42
0.000000001
43
0.0000000001
44
0.0000000001
40
-1.0004217087345835
40
-1.0004217087345835
40
-1.0004217087345835
40
-1.0004217087345835
40
-1
40
-1
40
-1
40
-0.72824894622543657
40
-0.72824894622543657
40
-0.72824894622543657
40
-0.51352191272648484
40
-0.51352191272648484
40
-0.51352191272648484
40
-0.23414941604722456
40
-0.23414941604722456
40
-0.23414941604722456
40
-0.031405463979539083
40
-0.031405463979539083
40
-0.031405463979539083
40
0
40
0
40
0
40
0.0046073060949972846
40
0.0046073060949972846
40
0.0046073060949972846
40
0.0046073060949972846
10
51.98426527721103
20
40.343677167532149
30
0
10
51.979462608550442
20
40.341569223170772
30
0
10
51.97465993988979
20
40.339461278809345
30
0
10
51.969857271229159
20
40.33735333444794
30
0
10
48.885133743850375
20
38.983434081311628
30
0
10
46.274274093096267
20
38.646890610340193
30
0
10
44.168277569621253
20
39.390309193628781
30
0
10
42.504201645117057
20
39.977729425566423
30
0
10
41.159574161901347
20
41.267519421229011
30
0
10
40.049060006348412
20
43.096681709280617
30
0
10
38.604215790978593
20
45.476529402035233
30
0
10
37.559861398718944
20
48.758643052350017
30
0
10
36.252111507573581
20
51.485584363065001
30
0
10
35.303061818006981
20
53.464558188200414
30
0
10
34.193593657830505
20
55.111547793985913
30
0
10
32.732726506691129
20
56.017466606166941
30
0
10
32.506435116856316
20
56.157795332790755
30
0
10
32.272224659370238
20
56.281192038074138
30
0
10
32.030113127201389
20
56.387333039641575
30
0
10
31.995075418134284
20
56.402693470843239
30
0
10
31.96003770906718
20
56.418053902044925
30
0
10
31.925000000000079
20
56.43341433324656
30
0
0
LINE
5
135
100
AcDbEntity
8
0
100
AcDbLine
10
31.925000000000079
20
56.43341433324656
30
0
11
31.925000000000008
21
1.7013222414023943
31
0
0
LINE
5
136
100
AcDbEntity
8
0
100
AcDbLine
10
31.925000000000008
20
1.7013222414023943
30
0
11
5.0000000000000089
21
1.7013222414023943
31
0
0
ARC
5
137
100
AcDbEntity
8
0
100
AcDbCircle
10
4.9999999999999467
20
11.626322241402178
30
0
40
9.9249999999997804
210
0
220
0
230
1
100
AcDbArc
50
232.98602188347459
51
270.00000000000034
0
LINE
5
138
100
AcDbEntity
8
0
100
AcDbLine
10
-0.97494769851582674
20
3.7013222414023872
30
0
11
-5.999999999999952
21
3.7013222414023872
31
0
0
ARC
5
139
100
AcDbEntity
8
0
100
AcDbCircle
10
-5.999999999999952
20
11.626322241402356
30
0
40
7.9249999999999758
210
0
220
0
230
1
100
AcDbArc
50
179.35034670539818
51
270
0
SPLINE
5
140
100
AcDbEntity
8
0
100
AcDbSpline
70
0
71
3
72
17
73
13
74
0
42
0.000000001
43
0.0000000001
44
0.0000000001
40
-1.0021780055373146
40
-1.0021780055373146
40
-1.0021780055373146
40
-1.0021780055373146
40
-1
40
-1
40
-1
40
-0.5212028546237748
40
-0.5212028546237748
40
-0.5212028546237748
40
-0.042405709247549578
40
-0.042405709247549578
40
-0.042405709247549578
40
-0.042317493338662672
40
-0.042317493338662672
40
-0.042317493338662672
40
-0.042317493338662672
10
-13.92449057219201
20
11.716178633720418
30
0
10
-13.954105136806341
20
11.710828213252569
30
0
10
-13.983719701420636
20
11.70547779278472
30
0
10
-14.013334266034931
20
11.700127372316853
30
0
10
-20.513372932831295
20
10.52577480702805
30
0
10
-26.314740162368739
20
10.812015238712434
30
0
10
-31.164169280029483
20
13.09391481892682
30
0
10
-36.013598397690231
20
15.375814399141206
30
0
10
-39.903127026486302
20
19.696124208394679
30
0
10
-43.100326842919827
20
25.494189463343506
30
0
10
-43.100916820954026
20
25.495259378061927
30
0
10
-43.10150679898824
20
25.496329292780366
30
0
10
-43.102096777022382
20
25.49739920749861
30
0
0
ARC
5
141
100
AcDbEntity
8
0
100
AcDbCircle
10
-46.173860809209216
20
23.390890029464266
30
0
40
3.724663097057213
210
0
220
-0
230
1
100
AcDbArc
50
34.440977291279971
51
87.297174474941485
0
LINE
5
142
100
AcDbEntity
8
0
100
AcDbLine
10
-45.998221674039158
20
27.111409627689333
30
0
11
-46.34949994438054
21
27.111409627689333
31
0
0
ARC
5
143
100
AcDbEntity
8
0
100
AcDbCircle
10
-46.173860809209216
20
23.390890029464266
30
0
40
3.7246630970573098
210
0
220
0
230
1
100
AcDbArc
50
92.702825525077913
51
120.69174990396465
0
LINE
5
144
100
AcDbEntity
8
0
100
AcDbLine
10
-48.074999999999989
20
26.593823835183628
30
0
11
-48.074999999999989
21
19.066078008473344
31
0
0
LINE
5
145
100
AcDbEntity
8
0
100
AcDbLine
10
-48.074999999999989
20
19.066078008473344
30
0
11
-54.075000000000003
21
19.066078008473344
31
0
0
LINE
5
146
100
AcDbEntity
8
0
100
AcDbLine
10
-54.075000000000003
20
19.066078008473344
30
0
11
-54.075000000000003
21
14.71729820237222
31
0
0
ARC
5
147
100
AcDbEntity
8
0
100
AcDbCircle
10
-52.000000000000014
20
14.71729820237222
30
0
40
2.0749999999999957
210
0
220
0
230
1
100
AcDbArc
50
180
51
270
0
LINE
5
148
100
AcDbEntity
8
0
100
AcDbLine
10
-52.000000000000014
20
12.642298202372224
30
0
11
-48.074999999999989
21
12.642298202372224
31
0
0
LINE
5
149
100
AcDbEntity
8
0
100
AcDbLine
10
-48.074999999999989
20
12.642298202372224
30
0
11
-48.074999999999989
21
8.6422982023722206
31
0
0
LINE
5
150
100
AcDbEntity
8
0
100
AcDbLine
10
-48.074999999999989
20
8.6422982023722206
30
0
11
-46.075000000000003
21
8.6422982023722206
31
0
0
LINE
5
151
100
AcDbEntity
8
0
100
AcDbLine
10
-46.075000000000003
20
8.6422982023722206
30
0
11
-46.075000000000003
21
-8.2077017976277666
31
0
0
LINE
5
152
100
AcDbEntity
8
0
100
AcDbLine
10
-46.075000000000003
20
-8.2077017976277666
30
0
11
-48.074999999999989
21
-8.2077017976277666
31
0
0
LINE
5
153
100
AcDbEntity
8
0
100
AcDbLine
10
-48.074999999999989
20
-8.2077017976277666
30
0
11
-48.074999999999989
21
-12.207701797627761
31
0
0
LINE
5
154
100
AcDbEntity
8
0
100
AcDbLine
10
-48.074999999999989
20
-12.207701797627761
30
0
11
-49
21
-12.207701797627761
31
0
0
ENDSEC
0
SECTION
2
OBJECTS
0
DICTIONARY
5
C
100
AcDbDictionary
3
ACAD_GROUP
350
D
3
ACAD_MLINESTYLE
350
17
0
DICTIONARY
5
D
100
AcDbDictionary
0
DICTIONARY
5
1A
330
C
100
AcDbDictionary
0
DICTIONARY
5
17
100
AcDbDictionary
0
ENDSEC
0
EOF
