0
SECTION
2
HEADER
9
$INSUNITS
70
4
9
$ACADVER
1
AC1014
9
$HANDSEED
5
FFFF
0
ENDSEC
0
SECTION
2
TABLES
0
TABLE
2
VPORT
5
8
100
AcDbSymbolTable
0
ENDTAB
0
TABLE
2
LTYPE
5
5
100
AcDbSymbolTable
0
LTYPE
5
14
100
AcDbSymbolTableRecord
100
AcDbLinetypeTableRecord
2
BYBLOCK
70
0
0
LTYPE
5
15
100
AcDbSymbolTableRecord
100
AcDbLinetypeTableRecord
2
BYLAYER
70
0
0
ENDTAB
0
TABLE
2
LAYER
5
2
100
AcDbSymbolTable
70
2
0
LAYER
5
50
100
AcDbSymbolTableRecord
100
AcDbLayerTableRecord
2
0
70
0
6
CONTINUOUS
0
ENDTAB
0
TABLE
2
STYLE
5
3
100
AcDbSymbolTable
70
1
0
STYLE
5
11
100
AcDbSymbolTableRecord
100
AcDbTextStyleTableRecord
2
STANDARD
70
0
0
ENDTAB
0
TABLE
2
VIEW
5
6
100
AcDbSymbolTable
70
0
0
ENDTAB
0
TABLE
2
UCS
5
7
100
AcDbSymbolTable
70
0
0
ENDTAB
0
TABLE
2
APPID
5
9
100
AcDbSymbolTable
70
2
0
APPID
5
12
100
AcDbSymbolTableRecord
100
AcDbRegAppTableRecord
2
ACAD
70
0
0
ENDTAB
0
TABLE
2
DIMSTYLE
5
A
100
AcDbSymbolTable
70
1
0
ENDTAB
0
TABLE
2
BLOCK_RECORD
5
1
100
AcDbSymbolTable
70
1
0
BLOCK_RECORD
5
1F
100
AcDbSymbolTableRecord
100
AcDbBlockTableRecord
2
*MODEL_SPACE
0
BLOCK_RECORD
5
1B
100
AcDbSymbolTableRecord
100
AcDbBlockTableRecord
2
*PAPER_SPACE
0
ENDTAB
0
ENDSEC
0
SECTION
2
BLOCKS
0
BLOCK
5
20
100
AcDbEntity
100
AcDbBlockBegin
2
*MODEL_SPACE
0
ENDBLK
5
21
100
AcDbEntity
100
AcDbBlockEnd
0
BLOCK
5
1C
100
AcDbEntity
100
AcDbBlockBegin
2
*PAPER_SPACE
0
ENDBLK
5
1D
100
AcDbEntity
100
AcDbBlockEnd
0
ENDSEC
0
SECTION
2
ENTITIES
0
CIRCLE
5
100
100
AcDbEntity
8
0
100
AcDbCircle
10
43.034939963948005
20
18.165770806290702
30
0
40
3.9250000000000007
210
0
220
0
230
1
0
LINE
5
101
100
AcDbEntity
8
0
100
AcDbLine
10
29.924999999999997
20
-15.473694398425364
30
0
11
-5.9916511771459913
21
-15.473694398425364
31
0
0
ARC
5
102
100
AcDbEntity
8
0
100
AcDbCircle
10
-3.7499999999999822
20
-5.5486943984253134
30
0
40
10.175000000000054
210
0
220
0
230
1
100
AcDbArc
50
180
51
257.2727763072802
0
ARC
5
103
100
AcDbEntity
8
0
100
AcDbCircle
10
-5.9999999999999964
20
-5.5486943984253134
30
0
40
7.9250000000000478
210
0
220
-0
230
1
100
AcDbArc
50
90
51
180
0
LINE
5
104
100
AcDbEntity
8
0
100
AcDbLine
10
-5.9999999999999964
20
2.3763056015747352
30
0
11
19.239155600195676
21
2.376305601574753
31
0
0
ARC
5
105
100
AcDbEntity
8
0
100
AcDbCircle
10
30.048654078311834
20
-30.965375511728446
30
0
40
35.050149169576954
210
0
220
0
230
1
100
AcDbArc
50
90.202135273925833
51
107.962889295545
0
LINE
5
106
100
AcDbEntity
8
0
100
AcDbLine
10
29.924999999999997
20
4.0845555363993391
30
0
11
29.925000000000004
21
2.7763056015747978
31
0
0
LINE
5
107
100
AcDbEntity
8
0
100
AcDbLine
10
29.925000000000004
20
2.7763056015747978
30
0
11
31.925000000000008
21
2.7763056015747978
31
0
0
LINE
5
108
100
AcDbEntity
8
0
100
AcDbLine
10
31.925000000000008
20
2.7763056015747978
30
0
11
31.925000000000008
21
-13.07369439842514
31
0
0
LINE
5
109
100
AcDbEntity
8
0
100
AcDbLine
10
31.925000000000008
20
-13.07369439842514
30
0
11
29.925000000000004
21
-13.07369439842514
31
0
0
LINE
5
110
100
AcDbEntity
8
0
100
AcDbLine
10
29.925000000000004
20
-13.07369439842514
30
0
11
29.925000000000004
21
-15.266109139335162
31
0
0
LINE
5
111
100
AcDbEntity
8
0
100
AcDbLine
10
29.925000000000004
20
-15.266109139335162
30
0
11
30.451938666379689
21
-15.266109139335162
31
0
0
ARC
5
112
100
AcDbEntity
8
0
100
AcDbCircle
10
30.048654078311827
20
18.175485045134785
30
0
40
33.444025775282313
210
0
220
0
230
1
100
AcDbArc
50
269.78815729312498
51
270.69091756496471
0
LINE
5
113
100
AcDbEntity
8
0
100
AcDbLine
10
29.924999999999979
20
-15.268312133515023
30
0
11
29.924999999999997
21
-15.473694398425364
31
0
0
LINE
5
114
100
AcDbEntity
8
0
100
AcDbLine
10
52.075000000000017
20
-34.767395127956775
30
0
11
54.075000000000003
21
-34.767395127956775
31
0
0
LINE
5
115
100
AcDbEntity
8
0
100
AcDbLine
10
54.075000000000003
20
-34.767395127956775
30
0
11
54.075000000000003
21
-24.617395127956772
31
0
0
LINE
5
116
100
AcDbEntity
8
0
100
AcDbLine
10
54.075000000000003
20
-24.617395127956776
30
0
11
52.075000000000017
21
-24.617395127956776
31
0
0
LINE
5
117
100
AcDbEntity
8
0
100
AcDbLine
10
52.075000000000017
20
-24.617395127956776
30
0
11
52.075000000000017
21
-3.2120809807490325
31
0
0
LINE
5
118
100
AcDbEntity
8
0
100
AcDbLine
10
52.075000000000017
20
-3.2120809807490325
30
0
11
54.075000000000003
21
-3.2120809807490325
31
0
0
LINE
5
119
100
AcDbEntity
8
0
100
AcDbLine
10
54.075000000000003
20
-3.2120809807490325
30
0
11
54.075000000000003
21
6.9379190192509732
31
0
0
LINE
5
120
100
AcDbEntity
8
0
100
AcDbLine
10
54.075000000000003
20
6.9379190192509732
30
0
11
52.075000000000017
21
6.9379190192509732
31
0
0
LINE
5
121
100
AcDbEntity
8
0
100
AcDbLine
10
52.075000000000017
20
6.9379190192509732
30
0
11
52.075000000000017
21
28.266462603978262
31
0
0
LINE
5
122
100
AcDbEntity
8
0
100
AcDbLine
10
52.075000000000017
20
28.266462603978262
30
0
11
54.075000000000003
21
28.266462603978262
31
0
0
LINE
5
123
100
AcDbEntity
8
0
100
AcDbLine
10
54.075000000000003
20
28.266462603978262
30
0
11
54.075000000000003
21
48.368660527704499
31
0
0
LINE
5
124
100
AcDbEntity
8
0
100
AcDbLine
10
54.075000000000003
20
48.368660527704499
30
0
11
51.978906698416992
21
48.368660527704499
31
0
0
SPLINE
5
125
100
AcDbEntity
8
0
100
AcDbSpline
70
0
71
3
72
17
73
13
74
0
42
0.000000001
43
0.0000000001
44
0.0000000001
40
-0.0044980782753912402
40
-0.0044980782753912402
40
-0.0044980782753912402
40
-0.0044980782753912402
40
0
40
0
40
0
40
0.55618295872570256
40
0.55618295872570256
40
0.55618295872570256
40
1
40
1
40
1
40
1.0007783826182279
40
1.0007783826182279
40
1.0007783826182279
40
1.0007783826182279
10
31.925000000000104
20
41.03001090211427
30
0
10
31.949944555461165
20
41.030066223825358
30
0
10
31.974889110922238
20
41.030121545536424
30
0
10
31.99983366638331
20
41.030176867247512
30
0
10
35.07298965613488
20
41.036992472682371
30
0
10
38.465000896162813
20
41.731360918444231
30
0
10
42.257581342837291
20
43.287635629637165
30
0
10
45.283944891433435
20
44.529495393399365
30
0
10
48.542057289917082
20
46.269428346892028
30
0
10
51.960905686628756
20
48.357665485809562
30
0
10
51.966906023891504
20
48.361330499774553
30
0
10
51.972906361154259
20
48.364995513739544
30
0
10
51.978906698416992
20
48.368660527704478
30
0
0
LINE
5
126
100
AcDbEntity
8
0
100
AcDbLine
10
31.92499999999999
20
41.030010902114284
30
0
11
31.925000000000008
21
39.13979252696619
31
0
0
LINE
5
127
100
AcDbEntity
8
0
100
AcDbLine
10
31.925000000000008
20
39.13979252696619
30
0
11
29.925000000000004
21
39.13979252696619
31
0
0
LINE
5
128
100
AcDbEntity
8
0
100
AcDbLine
10
29.925000000000004
20
39.13979252696619
30
0
11
29.925000000000015
21
11.25883812435756
31
0
0
LINE
5
129
100
AcDbEntity
8
0
100
AcDbLine
10
29.925000000000015
20
11.25883812435756
30
0
11
31.925000000000008
21
11.25883812435756
31
0
0
LINE
5
130
100
AcDbEntity
8
0
100
AcDbLine
10
31.925000000000008
20
11.25883812435756
30
0
11
31.925000000000008
21
9.7263056015747651
31
0
0
LINE
5
131
100
AcDbEntity
8
0
100
AcDbLine
10
31.925000000000008
20
9.7263056015747651
30
0
11
5.0000000000000178
21
9.7263056015747651
31
0
0
ARC
5
132
100
AcDbEntity
8
0
100
AcDbCircle
10
5.0000000000000711
20
19.651305601574904
30
0
40
9.9250000000001375
210
0
220
0
230
1
100
AcDbArc
50
232.98602188347525
51
269.9999999999996
0
LINE
5
133
100
AcDbEntity
8
0
100
AcDbLine
10
-0.97494769851582674
20
11.726305601574758
30
0
11
-5.999999999999952
21
11.726305601574776
31
0
0
ARC
5
134
100
AcDbEntity
8
0
100
AcDbCircle
10
-5.9999999999999787
20
19.651305601574727
30
0
40
7.9249999999998781
210
0
220
0
230
1
100
AcDbArc
50
179.35034670539818
51
270.00000000000023
0
SPLINE
5
135
100
AcDbEntity
8
0
100
AcDbSpline
70
0
71
3
72
17
73
13
74
0
42
0.000000001
43
0.0000000001
44
0.0000000001
40
0.042317493338616917
40
0.042317493338616917
40
0.042317493338616917
40
0.042317493338616917
40
0.042405709247549578
40
0.042405709247549578
40
0.042405709247549578
40
0.5212028546237748
40
0.5212028546237748
40
0.5212028546237748
40
1
40
1
40
1
40
1.002178005537318
40
1.002178005537318
40
1.002178005537318
40
1.002178005537318
10
-43.102096777023476
20
33.52238256767297
30
0
10
-43.101506798988879
20
33.521312652953839
30
0
10
-43.100916820954396
20
33.520242738234941
30
0
10
-43.100326842919934
20
33.519172823516058
30
0
10
-39.903127026486302
20
27.721107568567049
30
0
10
-36.013598397690231
20
23.400797759313576
30
0
10
-31.164169280029501
20
21.11889817909919
30
0
10
-26.314740162368775
20
18.836998598884804
30
0
10
-20.513372932831295
20
18.550758167200421
30
0
10
-14.013334266034949
20
19.725110732489224
30
0
10
-13.983719701420601
20
19.730461152957091
30
0
10
-13.954105136806234
20
19.735811573424957
30
0
10
-13.92449057219185
20
19.741161993892806
30
0
0
ARC
5
136
100
AcDbEntity
8
0
100
AcDbCircle
10
-46.173860809209195
20
31.41587338963685
30
0
40
3.7246630970571442
210
0
220
-0
230
1
100
AcDbArc
50
34.440977291308904
51
87.297174474905532
0
LINE
5
137
100
AcDbEntity
8
0
100
AcDbLine
10
-45.998221674036813
20
35.136392987861704
30
0
11
-46.349499944380668
21
35.136392987861704
31
0
0
ARC
5
138
100
AcDbEntity
8
0
100
AcDbCircle
10
-46.173860809209195
20
31.41587338963685
30
0
40
3.7246630970571033
210
0
220
0
230
1
100
AcDbArc
50
92.702825525080385
51
120.69174990396674
0
LINE
5
139
100
AcDbEntity
8
0
100
AcDbLine
10
-48.074999999999989
20
34.618807195355963
30
0
11
-48.074999999999989
21
27.091061368645715
31
0
0
LINE
5
140
100
AcDbEntity
8
0
100
AcDbLine
10
-48.074999999999989
20
27.091061368645715
30
0
11
-54.075000000000003
21
27.091061368645715
31
0
0
LINE
5
141
100
AcDbEntity
8
0
100
AcDbLine
10
-54.075000000000003
20
27.091061368645715
30
0
11
-54.075000000000003
21
22.742281562544591
31
0
0
ARC
5
142
100
AcDbEntity
8
0
100
AcDbCircle
10
-52.000000000000014
20
22.742281562544591
30
0
40
2.0749999999999957
210
0
220
0
230
1
100
AcDbArc
50
180
51
270
0
LINE
5
143
100
AcDbEntity
8
0
100
AcDbLine
10
-52.000000000000014
20
20.667281562544595
30
0
11
-48.074999999999989
21
20.667281562544595
31
0
0
LINE
5
144
100
AcDbEntity
8
0
100
AcDbLine
10
-48.074999999999989
20
20.667281562544595
30
0
11
-48.074999999999989
21
16.667281562544591
31
0
0
LINE
5
145
100
AcDbEntity
8
0
100
AcDbLine
10
-48.074999999999989
20
16.667281562544591
30
0
11
-46.075000000000003
21
16.667281562544591
31
0
0
LINE
5
146
100
AcDbEntity
8
0
100
AcDbLine
10
-46.075000000000003
20
16.667281562544591
30
0
11
-46.075000000000003
21
-0.18271843745539584
31
0
0
LINE
5
147
100
AcDbEntity
8
0
100
AcDbLine
10
-46.075000000000003
20
-0.18271843745539584
30
0
11
-48.074999999999989
21
-0.18271843745539584
31
0
0
LINE
5
148
100
AcDbEntity
8
0
100
AcDbLine
10
-48.074999999999989
20
-0.18271843745539584
30
0
11
-48.074999999999989
21
-4.1827184374553905
31
0
0
LINE
5
149
100
AcDbEntity
8
0
100
AcDbLine
10
-48.074999999999989
20
-4.1827184374553905
30
0
11
-49
21
-4.1827184374553905
31
0
0
ARC
5
150
100
AcDbEntity
8
0
100
AcDbCircle
10
-48.999999999999986
20
-5.2577184374554076
30
0
40
1.0750000000000171
210
0
220
0
230
1
100
AcDbArc
50
90.000000000000767
51
180
0
LINE
5
151
100
AcDbEntity
8
0
100
AcDbLine
10
-50.075000000000003
20
-5.2577184374553987
30
0
11
-50.075000000000003
21
-11.332718437455407
31
0
0
LINE
5
152
100
AcDbEntity
8
0
100
AcDbLine
10
-50.075000000000003
20
-11.332718437455407
30
0
11
-48.074999999999989
21
-11.332718437455407
31
0
0
LINE
5
153
100
AcDbEntity
8
0
100
AcDbLine
10
-48.074999999999989
20
-11.332718437455407
30
0
11
-48.074999999999989
21
-21.916345385731937
31
0
0
SPLINE
5
154
100
AcDbEntity
8
0
100
AcDbSpline
70
0
71
3
72
14
73
10
74
0
42
0.000000001
43
0.0000000001
44
0.0000000001
40
0.17614562206777268
40
0.17614562206777268
40
0.17614562206777268
40
0.17614562206777268
40
0.17634480490882232
40
0.17634480490882232
40
0.17634480490882232
40
0.48744702783425092
40
0.48744702783425092
40
0.48744702783425092
40
0.4888906412142181
40
0.4888906412142181
40
0.4888906412142181
40
0.4888906412142181
10
-48.074999999999989
20
-21.916345385731937
30
0
10
-48.073820180657378
20
-21.920048380648289
30
0
10
-48.072640361314818
20
-21.923751375564564
30
0
10
-48.071460541972243
20
-21.927454370480845
30
0
10
-46.225158390008865
20
-27.722280100113103
30
0
10
-43.144853091274307
20
-32.639745008618945
30
0
10
-38.614703229442959
20
-36.515999762506475
30
0
10
-38.593731672244559
20
-36.533944223675768
30
0
10
-38.572760115046165
20
-36.551888684845068
30
0
10
-38.551788557847786
20
-36.569833146014346
30
0
0
LINE
5
155
100
AcDbEntity
8
0
100
AcDbLine
10
-38.551788557847786
20
-36.569833146014361
30
0
11
-35.134559518288086
21
-31.669655655324981
31
0
0
LINE
5
156
100
AcDbEntity
8
0
100
AcDbLine
10
-35.134559518288086
20
-31.669655655324984
30
0
11
-33.6171067895596
21
-32.727879268780356
31
0
0
LINE
5
157
100
AcDbEntity
8
0
100
AcDbLine
10
-33.6171067895596
20
-32.727879268780356
30
0
11
-37.10587337465288
21
-37.730638900234787
31
0
0
SPLINE
5
158
100
AcDbEntity
8
0
100
AcDbSpline
70
0
71
3
72
17
73
13
74
0
42
0.000000001
43
0.0000000001
44
0.0000000001
40
0.52087274364921299
40
0.52087274364921299
40
0.52087274364921299
40
0.52087274364921299
40
0.5221110217195426
40
0.5221110217195426
40
0.5221110217195426
40
0.90361455913896016
40
0.90361455913896016
40
0.90361455913896016
40
1
40
1
40
1
40
1.0000589129462754
40
1.0000589129462754
40
1.0000589129462754
40
1.0000589129462754
10
-37.10587337465288
20
-37.73063890023478
30
0
10
-37.0866437093933
20
-37.745142358621031
30
0
10
-37.067414044133727
20
-37.759645817007275
30
0
10
-37.048184378874168
20
-37.774149275393526
30
0
10
-31.110480541810759
20
-42.25250286856641
30
0
10
-23.079414020790363
20
-45.222343461391901
30
0
10
-13.536214564210525
20
-47.106020624415869
30
0
10
-11.125160939205614
20
-47.581924609542838
30
0
10
-8.6155666337277736
20
-47.987071303801294
30
0
10
-6.0095908985326396
20
-48.323078635097602
30
0
10
-6.0079990044072851
20
-48.323283889540122
30
0
10
-6.0064071102819305
20
-48.323489143982655
30
0
10
-6.004815216156576
20
-48.323694398425175
30
0
0
LINE
5
159
100
AcDbEntity
8
0
100
AcDbLine
10
-6.0048152161565493
20
-48.323694398425175
30
0
11
31.997701375280265
21
-48.323694398425175
31
0
0
SPLINE
5
160
100
AcDbEntity
8
0
100
AcDbSpline
70
0
71
3
72
20
73
16
74
0
42
0.000000001
43
0.0000000001
44
0.0000000001
40
7.6412453786916544e-05
40
7.6412453786916544e-05
40
7.6412453786916544e-05
40
7.6412453786916544e-05
40
0.24539016463589694
40
0.24539016463589694
40
0.24539016463589694
40
0.5166558551735333
40
0.5166558551735333
40
0.5166558551735333
40
0.79559989893991645
40
0.79559989893991645
40
0.79559989893991645
40
1
40
1
40
1
40
1.0055020345658592
40
1.0055020345658592
40
1.0055020345658592
40
1.0055020345658592
10
31.997701375280265
20
-48.323694398425189
30
0
10
34.458300112868358
20
-48.474491959804489
30
0
10
36.435611345296557
20
-47.994288713837349
30
0
10
38.103126651064883
20
-47.244778150142764
30
0
10
39.947049736818052
20
-46.415976263508512
30
0
10
41.443501897329412
20
-45.323801132334225
30
0
10
42.959970536442057
20
-44.686683924454584
30
0
10
44.519363814672701
20
-44.031532696273608
30
0
10
46.109319052914628
20
-43.869326959591994
30
0
10
47.865170451358445
20
-44.337837391893906
30
0
10
49.151794816741855
20
-44.681144882590559
30
0
10
50.517194400323405
20
-45.344446739540132
30
0
10
51.958222621508121
20
-46.310981240104198
30
0
10
51.997148414338746
20
-46.337089765377684
30
0
10
52.036074207169378
20
-46.363198290651169
30
0
10
52.075000000000003
20
-46.389306815924655
30
0
0
LINE
5
161
100
AcDbEntity
8
0
100
AcDbLine
10
52.075000000000003
20
-46.389306815924655
30
0
11
52.075000000000017
21
-34.767395127956775
31
0
0
ENDSEC
0
SECTION
2
OBJECTS
0
DICTIONARY
5
C
100
AcDbDictionary
3
ACAD_GROUP
350
D
3
ACAD_MLINESTYLE
350
17
0
DICTIONARY
5
D
100
AcDbDictionary
0
DICTIONARY
5
1A
330
C
100
AcDbDictionary
0
DICTIONARY
5
17
100
AcDbDictionary
0
ENDSEC
0
EOF
