0
SECTION
2
HEADER
9
$INSUNITS
70
4
9
$ACADVER
1
AC1014
9
$HANDSEED
5
FFFF
0
ENDSEC
0
SECTION
2
TABLES
0
TABLE
2
VPORT
5
8
100
AcDbSymbolTable
0
ENDTAB
0
TABLE
2
LTYPE
5
5
100
AcDbSymbolTable
0
LTYPE
5
14
100
AcDbSymbolTableRecord
100
AcDbLinetypeTableRecord
2
BYBLOCK
70
0
0
LTYPE
5
15
100
AcDbSymbolTableRecord
100
AcDbLinetypeTableRecord
2
BYLAYER
70
0
0
ENDTAB
0
TABLE
2
LAYER
5
2
100
AcDbSymbolTable
70
2
0
LAYER
5
50
100
AcDbSymbolTableRecord
100
AcDbLayerTableRecord
2
0
70
0
6
CONTINUOUS
0
ENDTAB
0
TABLE
2
STYLE
5
3
100
AcDbSymbolTable
70
1
0
STYLE
5
11
100
AcDbSymbolTableRecord
100
AcDbTextStyleTableRecord
2
STANDARD
70
0
0
ENDTAB
0
TABLE
2
VIEW
5
6
100
AcDbSymbolTable
70
0
0
ENDTAB
0
TABLE
2
UCS
5
7
100
AcDbSymbolTable
70
0
0
ENDTAB
0
TABLE
2
APPID
5
9
100
AcDbSymbolTable
70
2
0
APPID
5
12
100
AcDbSymbolTableRecord
100
AcDbRegAppTableRecord
2
ACAD
70
0
0
ENDTAB
0
TABLE
2
DIMSTYLE
5
A
100
AcDbSymbolTable
70
1
0
ENDTAB
0
TABLE
2
BLOCK_RECORD
5
1
100
AcDbSymbolTable
70
1
0
BLOCK_RECORD
5
1F
100
AcDbSymbolTableRecord
100
AcDbBlockTableRecord
2
*MODEL_SPACE
0
BLOCK_RECORD
5
1B
100
AcDbSymbolTableRecord
100
AcDbBlockTableRecord
2
*PAPER_SPACE
0
ENDTAB
0
ENDSEC
0
SECTION
2
BLOCKS
0
BLOCK
5
20
100
AcDbEntity
100
AcDbBlockBegin
2
*MODEL_SPACE
0
ENDBLK
5
21
100
AcDbEntity
100
AcDbBlockEnd
0
BLOCK
5
1C
100
AcDbEntity
100
AcDbBlockBegin
2
*PAPER_SPACE
0
ENDBLK
5
1D
100
AcDbEntity
100
AcDbBlockEnd
0
ENDSEC
0
SECTION
2
ENTITIES
0
CIRCLE
5
100
100
AcDbEntity
8
0
100
AcDbCircle
10
43.034939963948005
20
18.165770806290702
30
0
40
3.9250000000000007
210
0
220
0
230
1
0
ARC
5
101
100
AcDbEntity
8
0
100
AcDbCircle
10
30.04865407831182
20
-30.965375511728706
30
0
40
35.05014916957721
210
0
220
0
230
1
100
AcDbArc
50
90.202135273925833
51
107.96288929554494
0
LINE
5
102
100
AcDbEntity
8
0
100
AcDbLine
10
29.924999999999979
20
4.0845555363993391
30
0
11
29.924999999999997
21
2.6778054345873326
31
0
0
LINE
5
103
100
AcDbEntity
8
0
100
AcDbLine
10
29.924999999999997
20
2.6778054345873326
30
0
11
31.924999999999997
21
2.6778054345873326
31
0
0
LINE
5
104
100
AcDbEntity
8
0
100
AcDbLine
10
31.924999999999997
20
2.6778054345873326
30
0
11
31.924999999999997
21
-1.1610473289983325
31
0
0
LINE
5
105
100
AcDbEntity
8
0
100
AcDbLine
10
31.924999999999997
20
-1.1610473289983325
30
0
11
29.924999999999997
21
-1.1610473289983325
31
0
0
LINE
5
106
100
AcDbEntity
8
0
100
AcDbLine
10
29.924999999999997
20
-1.1610473289983325
30
0
11
29.924999999999997
21
-9.3110473289983364
31
0
0
LINE
5
107
100
AcDbEntity
8
0
100
AcDbLine
10
29.924999999999997
20
-9.3110473289983364
30
0
11
31.924999999999997
21
-9.3110473289983364
31
0
0
LINE
5
108
100
AcDbEntity
8
0
100
AcDbLine
10
31.924999999999997
20
-9.3110473289983364
30
0
11
31.924999999999997
21
-16.758720705343126
31
0
0
ARC
5
109
100
AcDbEntity
8
0
100
AcDbCircle
10
26.419177884836138
20
78.284162108330833
30
0
40
95.202225030182959
210
0
220
0
230
1
100
AcDbArc
50
262.68171940322361
51
273.31543181464724
0
LINE
5
110
100
AcDbEntity
8
0
100
AcDbLine
10
14.292216346590472
20
-16.142531440408341
30
0
11
-5.9900934694528818
21
-16.142531440408334
31
0
0
ARC
5
111
100
AcDbEntity
8
0
100
AcDbCircle
10
-3.2949236590399877
20
-6.1373260923647255
30
0
40
10.361856704446428
210
0
220
0
230
1
100
AcDbArc
50
143.27402698276663
51
254.92371275004024
0
ARC
5
112
100
AcDbEntity
8
0
100
AcDbCircle
10
-6.0000000000000231
20
-5.5486943984252957
30
0
40
7.9250000000000309
210
0
220
-0
230
1
100
AcDbArc
50
89.999999999999858
51
134.96094322721424
0
LINE
5
113
100
AcDbEntity
8
0
100
AcDbLine
10
-6.0000000000000053
20
2.3763056015747352
30
0
11
19.239155600195616
21
2.376305601574753
31
0
0
ARC
5
114
100
AcDbEntity
8
0
100
AcDbCircle
10
-49.000000000000014
20
-5.2577184374553898
30
0
40
1.0749999999999993
210
-0
220
0
230
1
100
AcDbArc
50
90
51
180
0
LINE
5
115
100
AcDbEntity
8
0
100
AcDbLine
10
-50.07500000000001
20
-5.2577184374553987
30
0
11
-50.075000000000031
21
-11.332718437455407
31
0
0
LINE
5
116
100
AcDbEntity
8
0
100
AcDbLine
10
-50.075000000000031
20
-11.332718437455407
30
0
11
-48.075000000000003
21
-11.332718437455407
31
0
0
LINE
5
117
100
AcDbEntity
8
0
100
AcDbLine
10
-48.075000000000003
20
-11.332718437455407
30
0
11
-48.074999999999982
21
-21.916345385731873
31
0
0
SPLINE
5
118
100
AcDbEntity
8
0
100
AcDbSpline
70
0
71
3
72
14
73
10
74
0
42
0.000000001
43
0.0000000001
44
0.0000000001
40
0.17614562206777071
40
0.17614562206777071
40
0.17614562206777071
40
0.17614562206777071
40
0.17634480490882232
40
0.17634480490882232
40
0.17634480490882232
40
0.48744702783425092
40
0.48744702783425092
40
0.48744702783425092
40
0.48889064121421816
40
0.48889064121421816
40
0.48889064121421816
40
0.48889064121421816
10
-48.074999999999967
20
-21.916345385731908
30
0
10
-48.073820180657421
20
-21.920048380648218
30
0
10
-48.072640361314846
20
-21.923751375564528
30
0
10
-48.07146054197225
20
-21.927454370480845
30
0
10
-46.225158390008872
20
-27.722280100113103
30
0
10
-43.144853091274314
20
-32.639745008618917
30
0
10
-38.614703229442966
20
-36.515999762506482
30
0
10
-38.593731672244573
20
-36.533944223675775
30
0
10
-38.572760115046194
20
-36.551888684845075
30
0
10
-38.551788557847793
20
-36.569833146014375
30
0
0
LINE
5
119
100
AcDbEntity
8
0
100
AcDbLine
10
-38.551788557847779
20
-36.569833146014368
30
0
11
-35.134559518288093
21
-31.669655655324984
31
0
0
LINE
5
120
100
AcDbEntity
8
0
100
AcDbLine
10
-35.134559518288093
20
-31.669655655324984
30
0
11
-33.617106789559614
21
-32.72787926878037
31
0
0
LINE
5
121
100
AcDbEntity
8
0
100
AcDbLine
10
-33.617106789559614
20
-32.72787926878037
30
0
11
-37.105873374652873
21
-37.730638900234787
31
0
0
SPLINE
5
122
100
AcDbEntity
8
0
100
AcDbSpline
70
0
71
3
72
17
73
13
74
0
42
0.000000001
43
0.0000000001
44
0.0000000001
40
0.52087274364921365
40
0.52087274364921365
40
0.52087274364921365
40
0.52087274364921365
40
0.5221110217195426
40
0.5221110217195426
40
0.5221110217195426
40
0.90361455913906763
40
0.90361455913906763
40
0.90361455913906763
40
1
40
1
40
1
40
1.0000589129462774
40
1.0000589129462774
40
1.0000589129462774
40
1.0000589129462774
10
-37.105873374652802
20
-37.730638900234823
30
0
10
-37.086643709393272
20
-37.745142358621052
30
0
10
-37.06741404413372
20
-37.759645817007282
30
0
10
-37.048184378874154
20
-37.774149275393526
30
0
10
-31.110480541809082
20
-42.252502868567667
30
0
10
-23.079414020785805
20
-45.222343461393564
30
0
10
-13.536214564202487
20
-47.106020624417454
30
0
10
-11.125160939200063
20
-47.581924609543755
30
0
10
-8.6155666337248871
20
-47.98707130380167
30
0
10
-6.0095908985326485
20
-48.323078635097602
30
0
10
-6.0079990044072407
20
-48.323283889540143
30
0
10
-6.0064071102818506
20
-48.32348914398267
30
0
10
-6.0048152161565405
20
-48.323694398425189
30
0
0
LINE
5
123
100
AcDbEntity
8
0
100
AcDbLine
10
-6.0048152161565493
20
-48.323694398425189
30
0
11
31.997701375279981
21
-48.323694398425197
31
0
0
SPLINE
5
124
100
AcDbEntity
8
0
100
AcDbSpline
70
0
71
3
72
20
73
16
74
0
42
0.000000001
43
0.0000000001
44
0.0000000001
40
7.641245377728414e-05
40
7.641245377728414e-05
40
7.641245377728414e-05
40
7.641245377728414e-05
40
0.2453901646357988
40
0.2453901646357988
40
0.2453901646357988
40
0.51665585517340529
40
0.51665585517340529
40
0.51665585517340529
40
0.79559989893994176
40
0.79559989893994176
40
0.79559989893994176
40
1
40
1
40
1
40
1.0055020345658594
40
1.0055020345658594
40
1.0055020345658594
40
1.0055020345658594
10
31.997701375279981
20
-48.323694398425197
30
0
10
34.458300112867214
20
-48.474491959804389
30
0
10
36.435611345294909
20
-47.994288713837776
30
0
10
38.103126651062887
20
-47.244778150143674
30
0
10
39.947049736816126
20
-46.415976263509734
30
0
10
41.443501897327437
20
-45.323801132335447
30
0
10
42.959970536439904
20
-44.686683924455473
30
0
10
44.519363814671408
20
-44.031532696273729
30
0
10
46.109319052914103
20
-43.869326959591774
30
0
10
47.865170451358914
20
-44.337837391894041
30
0
10
49.151794816742189
20
-44.681144882590722
30
0
10
50.517194400323604
20
-45.344446739540274
30
0
10
51.958222621508114
20
-46.310981240104198
30
0
10
51.997148414338739
20
-46.337089765377684
30
0
10
52.036074207169364
20
-46.363198290651169
30
0
10
52.075000000000003
20
-46.38930681592467
30
0
0
LINE
5
125
100
AcDbEntity
8
0
100
AcDbLine
10
52.075000000000003
20
-46.389306815924684
30
0
11
52.075000000000003
21
-34.767395127956789
31
0
0
LINE
5
126
100
AcDbEntity
8
0
100
AcDbLine
10
52.075000000000003
20
-34.767395127956782
30
0
11
54.075000000000003
21
-34.767395127956782
31
0
0
LINE
5
127
100
AcDbEntity
8
0
100
AcDbLine
10
54.075000000000003
20
-34.767395127956782
30
0
11
54.075000000000003
21
-24.617395127956776
31
0
0
LINE
5
128
100
AcDbEntity
8
0
100
AcDbLine
10
54.075000000000003
20
-24.617395127956776
30
0
11
52.075000000000003
21
-24.617395127956776
31
0
0
LINE
5
129
100
AcDbEntity
8
0
100
AcDbLine
10
52.075000000000003
20
-24.617395127956776
30
0
11
52.075000000000003
21
-3.2120809807490325
31
0
0
LINE
5
130
100
AcDbEntity
8
0
100
AcDbLine
10
52.075000000000003
20
-3.2120809807490325
30
0
11
54.075000000000003
21
-3.2120809807490325
31
0
0
LINE
5
131
100
AcDbEntity
8
0
100
AcDbLine
10
54.075000000000003
20
-3.2120809807490325
30
0
11
54.075000000000003
21
6.9379190192509732
31
0
0
LINE
5
132
100
AcDbEntity
8
0
100
AcDbLine
10
54.075000000000003
20
6.9379190192509732
30
0
11
52.075000000000003
21
6.9379190192509732
31
0
0
LINE
5
133
100
AcDbEntity
8
0
100
AcDbLine
10
52.075000000000003
20
6.9379190192509732
30
0
11
52.075000000000003
21
28.266462603978262
31
0
0
LINE
5
134
100
AcDbEntity
8
0
100
AcDbLine
10
52.075000000000003
20
28.266462603978262
30
0
11
54.075000000000003
21
28.266462603978262
31
0
0
LINE
5
135
100
AcDbEntity
8
0
100
AcDbLine
10
54.075000000000003
20
28.266462603978262
30
0
11
54.075000000000003
21
48.368660527704499
31
0
0
LINE
5
136
100
AcDbEntity
8
0
100
AcDbLine
10
54.075000000000003
20
48.368660527704499
30
0
11
51.978906698417035
21
48.368660527704535
31
0
0
SPLINE
5
137
100
AcDbEntity
8
0
100
AcDbSpline
70
0
71
3
72
17
73
13
74
0
42
0.000000001
43
0.0000000001
44
0.0000000001
40
-1.0007783826182171
40
-1.0007783826182171
40
-1.0007783826182171
40
-1.0007783826182171
40
-1
40
-1
40
-1
40
-0.39467455084735048
40
-0.39467455084735048
40
-0.39467455084735048
40
0
40
0
40
0
40
0.0044980782753959473
40
0.0044980782753959473
40
0.0044980782753959473
40
0.0044980782753959473
10
51.978906698416637
20
48.368660527704264
30
0
10
51.97290636115406
20
48.364995513739416
30
0
10
51.966906023891397
20
48.361330499774482
30
0
10
51.96090568662872
20
48.357665485809548
30
0
10
47.29791227073315
20
45.509502917686682
30
0
10
42.934504880691016
20
43.309914718161963
30
0
10
39.050423788376413
20
42.139941949209373
30
0
10
36.517987786041125
20
41.377115146311247
30
0
10
34.180584516279836
20
41.035013308155222
30
0
10
31.999833666383289
20
41.030176867247512
30
0
10
31.974889110922192
20
41.030121545536424
30
0
10
31.949944555461094
20
41.030066223825337
30
0
10
31.925000000000026
20
41.03001090211427
30
0
0
LINE
5
138
100
AcDbEntity
8
0
100
AcDbLine
10
31.925000000000033
20
41.030010902114284
30
0
11
31.924999999999997
21
9.7263056015747651
31
0
0
LINE
5
139
100
AcDbEntity
8
0
100
AcDbLine
10
31.924999999999997
20
9.7263056015747651
30
0
11
5
21
9.7263056015747651
31
0
0
ARC
5
140
100
AcDbEntity
8
0
100
AcDbCircle
10
4.9999999999999289
20
19.651305601574496
30
0
40
9.9249999999997289
210
0
220
0
230
1
100
AcDbArc
50
232.98602188347451
51
270.0000000000004
0
LINE
5
141
100
AcDbEntity
8
0
100
AcDbLine
10
-0.97494769851582674
20
11.726305601574758
30
0
11
-5.9999999999999609
21
11.726305601574758
31
0
0
ARC
5
142
100
AcDbEntity
8
0
100
AcDbCircle
10
-5.9999999999999343
20
19.651305601574762
30
0
40
7.9249999999999972
210
0
220
0
230
1
100
AcDbArc
50
179.35034670539818
51
269.99999999999983
0
SPLINE
5
143
100
AcDbEntity
8
0
100
AcDbSpline
70
0
71
3
72
17
73
13
74
0
42
0.000000001
43
0.0000000001
44
0.0000000001
40
-1.0021780055373146
40
-1.0021780055373146
40
-1.0021780055373146
40
-1.0021780055373146
40
-1
40
-1
40
-1
40
-0.5212028546237748
40
-0.5212028546237748
40
-0.5212028546237748
40
-0.042405709247549578
40
-0.042405709247549578
40
-0.042405709247549578
40
-0.042317493338645505
40
-0.042317493338645505
40
-0.042317493338645505
40
-0.042317493338645505
10
-13.924490572192019
20
19.741161993892788
30
0
10
-13.95410513680635
20
19.73581157342494
30
0
10
-13.983719701420645
20
19.730461152957091
30
0
10
-14.01333426603494
20
19.725110732489224
30
0
10
-20.513372932831302
20
18.550758167200421
30
0
10
-26.31474016236875
20
18.836998598884804
30
0
10
-31.16416928002949
20
21.11889817909919
30
0
10
-36.013598397690238
20
23.400797759313576
30
0
10
-39.90312702648631
20
27.721107568567049
30
0
10
-43.100326842919834
20
33.519172823515873
30
0
10
-43.100916820954176
20
33.520242738234515
30
0
10
-43.101506798988495
20
33.521312652953164
30
0
10
-43.102096777022794
20
33.522382567671762
30
0
0
ARC
5
144
100
AcDbEntity
8
0
100
AcDbCircle
10
-46.173860809209238
20
31.415873389636708
30
0
40
3.7246630970572925
210
0
220
-0
230
1
100
AcDbArc
50
34.440977291292491
51
87.297174474920197
0
LINE
5
145
100
AcDbEntity
8
0
100
AcDbLine
10
-45.998221674037801
20
35.136392987861683
30
0
11
-46.349499944380675
21
35.136392987861704
31
0
0
ARC
5
146
100
AcDbEntity
8
0
100
AcDbCircle
10
-46.173860809209238
20
31.415873389636708
30
0
40
3.7246630970572436
210
0
220
0
230
1
100
AcDbArc
50
92.702825525079732
51
120.6917499039649
0
LINE
5
147
100
AcDbEntity
8
0
100
AcDbLine
10
-48.075000000000003
20
34.618807195355998
30
0
11
-48.075000000000003
21
27.091061368645715
31
0
0
LINE
5
148
100
AcDbEntity
8
0
100
AcDbLine
10
-48.075000000000003
20
27.091061368645715
30
0
11
-54.075000000000017
21
27.091061368645715
31
0
0
LINE
5
149
100
AcDbEntity
8
0
100
AcDbLine
10
-54.075000000000017
20
27.091061368645715
30
0
11
-54.075000000000017
21
22.742281562544591
31
0
0
ARC
5
150
100
AcDbEntity
8
0
100
AcDbCircle
10
-52.000000000000021
20
22.742281562544591
30
0
40
2.0749999999999957
210
0
220
0
230
1
100
AcDbArc
50
180
51
270
0
LINE
5
151
100
AcDbEntity
8
0
100
AcDbLine
10
-52.000000000000021
20
20.667281562544595
30
0
11
-48.075000000000003
21
20.667281562544595
31
0
0
LINE
5
152
100
AcDbEntity
8
0
100
AcDbLine
10
-48.075000000000003
20
20.667281562544595
30
0
11
-48.075000000000003
21
16.667281562544591
31
0
0
LINE
5
153
100
AcDbEntity
8
0
100
AcDbLine
10
-48.075000000000003
20
16.667281562544591
30
0
11
-46.07500000000001
21
16.667281562544591
31
0
0
LINE
5
154
100
AcDbEntity
8
0
100
AcDbLine
10
-46.07500000000001
20
16.667281562544591
30
0
11
-46.07500000000001
21
-0.18271843745539584
31
0
0
LINE
5
155
100
AcDbEntity
8
0
100
AcDbLine
10
-46.07500000000001
20
-0.18271843745539584
30
0
11
-48.075000000000003
21
-0.18271843745539584
31
0
0
LINE
5
156
100
AcDbEntity
8
0
100
AcDbLine
10
-48.075000000000003
20
-0.18271843745539584
30
0
11
-48.075000000000003
21
-4.1827184374553905
31
0
0
LINE
5
157
100
AcDbEntity
8
0
100
AcDbLine
10
-48.075000000000003
20
-4.1827184374553905
30
0
11
-49.000000000000014
21
-4.1827184374553905
31
0
0
ENDSEC
0
SECTION
2
OBJECTS
0
DICTIONARY
5
C
100
AcDbDictionary
3
ACAD_GROUP
350
D
3
ACAD_MLINESTYLE
350
17
0
DICTIONARY
5
D
100
AcDbDictionary
0
DICTIONARY
5
1A
330
C
100
AcDbDictionary
0
DICTIONARY
5
17
100
AcDbDictionary
0
ENDSEC
0
EOF
