0
SECTION
2
HEADER
9
$INSUNITS
70
4
9
$ACADVER
1
AC1014
9
$HANDSEED
5
FFFF
0
ENDSEC
0
SECTION
2
TABLES
0
TABLE
2
VPORT
5
8
100
AcDbSymbolTable
0
ENDTAB
0
TABLE
2
LTYPE
5
5
100
AcDbSymbolTable
0
LTYPE
5
14
100
AcDbSymbolTableRecord
100
AcDbLinetypeTableRecord
2
BYBLOCK
70
0
0
LTYPE
5
15
100
AcDbSymbolTableRecord
100
AcDbLinetypeTableRecord
2
BYLAYER
70
0
0
ENDTAB
0
TABLE
2
LAYER
5
2
100
AcDbSymbolTable
70
2
0
LAYER
5
50
100
AcDbSymbolTableRecord
100
AcDbLayerTableRecord
2
0
70
0
6
CONTINUOUS
0
ENDTAB
0
TABLE
2
STYLE
5
3
100
AcDbSymbolTable
70
1
0
STYLE
5
11
100
AcDbSymbolTableRecord
100
AcDbTextStyleTableRecord
2
STANDARD
70
0
0
ENDTAB
0
TABLE
2
VIEW
5
6
100
AcDbSymbolTable
70
0
0
ENDTAB
0
TABLE
2
UCS
5
7
100
AcDbSymbolTable
70
0
0
ENDTAB
0
TABLE
2
APPID
5
9
100
AcDbSymbolTable
70
2
0
APPID
5
12
100
AcDbSymbolTableRecord
100
AcDbRegAppTableRecord
2
ACAD
70
0
0
ENDTAB
0
TABLE
2
DIMSTYLE
5
A
100
AcDbSymbolTable
70
1
0
ENDTAB
0
TABLE
2
BLOCK_RECORD
5
1
100
AcDbSymbolTable
70
1
0
BLOCK_RECORD
5
1F
100
AcDbSymbolTableRecord
100
AcDbBlockTableRecord
2
*MODEL_SPACE
0
BLOCK_RECORD
5
1B
100
AcDbSymbolTableRecord
100
AcDbBlockTableRecord
2
*PAPER_SPACE
0
ENDTAB
0
ENDSEC
0
SECTION
2
BLOCKS
0
BLOCK
5
20
100
AcDbEntity
100
AcDbBlockBegin
2
*MODEL_SPACE
0
ENDBLK
5
21
100
AcDbEntity
100
AcDbBlockEnd
0
BLOCK
5
1C
100
AcDbEntity
100
AcDbBlockBegin
2
*PAPER_SPACE
0
ENDBLK
5
1D
100
AcDbEntity
100
AcDbBlockEnd
0
ENDSEC
0
SECTION
2
ENTITIES
0
LINE
5
100
100
AcDbEntity
8
0
100
AcDbLine
10
-61.925000000000097
20
-1.125924248550163
30
0
11
-60.074999999999932
21
-1.125924248550163
31
0
0
LINE
5
101
100
AcDbEntity
8
0
100
AcDbLine
10
-60.074999999999932
20
-1.1259242485501675
30
0
11
-60.074999999999932
21
-5.1259242485501977
31
0
0
LINE
5
102
100
AcDbEntity
8
0
100
AcDbLine
10
-60.074999999999932
20
-5.1259242485502021
30
0
11
3.4997031114028232
21
-5.1259242485501888
31
9.8607613152626476e-31
0
LINE
5
103
100
AcDbEntity
8
0
100
AcDbLine
10
3.4997031114028232
20
-5.1259242485501888
30
-1.7763568394002505e-14
11
3.4997031114028232
21
-1.1259242485501675
31
-1.7763568394002505e-14
0
LINE
5
104
100
AcDbEntity
8
0
100
AcDbLine
10
3.4997031114028232
20
-1.125924248550163
30
0
11
5.349703111402988
21
-1.1259242485501675
31
2.2186712959340957e-30
0
LINE
5
105
100
AcDbEntity
8
0
100
AcDbLine
10
5.349703111402988
20
-1.1259242485501675
30
0
11
5.349703111402988
21
-5.1259242485501888
31
0
0
LINE
5
106
100
AcDbEntity
8
0
100
AcDbLine
10
5.349703111402988
20
-5.1259242485502021
30
0
11
13.499703111402823
21
-5.1259242485501888
31
-9.8607613152626476e-31
0
LINE
5
107
100
AcDbEntity
8
0
100
AcDbLine
10
13.499703111402823
20
-5.1259242485501888
30
-1.7763568394002505e-14
11
13.499703111402823
21
-1.1259242485501764
31
-1.7763568394002505e-14
0
LINE
5
108
100
AcDbEntity
8
0
100
AcDbLine
10
13.499703111402823
20
-1.1259242485501675
30
0
11
15.349703111402988
21
-1.1259242485501719
31
0
0
LINE
5
109
100
AcDbEntity
8
0
100
AcDbLine
10
15.349703111402988
20
-1.1259242485501675
30
0
11
15.349703111402988
21
-5.125924248550171
31
0
0
LINE
5
110
100
AcDbEntity
8
0
100
AcDbLine
10
15.349703111402988
20
-5.1259242485501799
30
-1.7763568394002505e-14
11
60.074999999999932
21
-5.125924248550171
31
-1.7763568394002505e-14
0
LINE
5
111
100
AcDbEntity
8
0
100
AcDbLine
10
60.074999999999932
20
-5.125924248550171
30
0
11
60.074999999999932
21
-1.1259242485501675
31
0
0
LINE
5
112
100
AcDbEntity
8
0
100
AcDbLine
10
60.074999999999932
20
-1.1259242485501542
30
0
11
61.925000000000097
21
-1.125924248550163
31
1.9721522630525295e-30
0
LINE
5
113
100
AcDbEntity
8
0
100
AcDbLine
10
61.925000000000097
20
-1.1259242485501675
30
0
11
61.925000000000097
21
-5.125924248550171
31
2.7755575615628914e-16
0
LINE
5
114
100
AcDbEntity
8
0
100
AcDbLine
10
61.925000000000097
20
-5.1259242485501799
30
-1.7763568394002505e-14
11
64.500000000000028
21
-5.1259242485501977
31
-1.7763568394002505e-14
0
ARC
5
115
100
AcDbEntity
8
0
100
AcDbCircle
10
64.500000000000028
20
-2.5509242485502126
30
0
40
2.5749999999999806
210
0
220
0
230
1
100
AcDbArc
50
-90
51
0
0
LINE
5
116
100
AcDbEntity
8
0
100
AcDbLine
10
67.07499999999996
20
-2.550924248550186
30
0
11
67.07499999999996
21
2.442396281046384
31
-2.7755575615628914e-16
0
ARC
5
117
100
AcDbEntity
8
0
100
AcDbCircle
10
64.500000000000028
20
2.4423962810464328
30
0
40
2.5749999999999318
210
-0
220
0
230
1
100
AcDbArc
50
0
51
90.000000000000313
0
LINE
5
118
100
AcDbEntity
8
0
100
AcDbLine
10
64.500000000000028
20
5.0173962810464401
30
-1.7763568394002505e-14
11
15.499703111402852
21
5.0173962810463957
31
-1.7763568394002508e-14
0
LINE
5
119
100
AcDbEntity
8
0
100
AcDbLine
10
15.499703111402852
20
5.0173962810463912
30
0
11
15.499703111402852
21
5.1259242485502154
31
0
0
LINE
5
120
100
AcDbEntity
8
0
100
AcDbLine
10
15.499703111402852
20
5.1259242485502154
30
-1.7763568394002505e-14
11
13.34970311140296
21
5.1259242485501932
31
-1.7763568394002505e-14
0
LINE
5
121
100
AcDbEntity
8
0
100
AcDbLine
10
13.34970311140296
20
5.1259242485502021
30
-1.7763568394002505e-14
11
13.34970311140296
21
5.0173962810464046
31
-1.7772242011382389e-14
0
LINE
5
122
100
AcDbEntity
8
0
100
AcDbLine
10
13.34970311140296
20
5.0173962810463957
30
0
11
5.4997031114028516
21
5.0173962810463912
31
-2.4651903288156619e-31
0
LINE
5
123
100
AcDbEntity
8
0
100
AcDbLine
10
5.4997031114028516
20
5.0173962810463912
30
0
11
5.4997031114028516
21
5.1259242485502154
31
0
0
LINE
5
124
100
AcDbEntity
8
0
100
AcDbLine
10
5.4997031114028516
20
5.1259242485502154
30
-1.7763568394002505e-14
11
3.3497031114029596
21
5.1259242485502021
31
-1.7763568394002505e-14
0
LINE
5
125
100
AcDbEntity
8
0
100
AcDbLine
10
3.3497031114029596
20
5.1259242485502066
30
-1.7763568394002505e-14
11
3.3497031114029596
21
5.0173962810464001
31
-1.7763568394002505e-14
0
LINE
5
126
100
AcDbEntity
8
0
100
AcDbLine
10
3.3497031114029596
20
5.0173962810463957
30
0
11
-59.925000000000068
21
5.0173962810464046
31
-9.8607613152626476e-31
0
LINE
5
127
100
AcDbEntity
8
0
100
AcDbLine
10
-59.925000000000068
20
5.017396281046409
30
-1.7763568394002505e-14
11
-59.925000000000068
21
5.125924248550211
31
-1.7763568394002505e-14
0
LINE
5
128
100
AcDbEntity
8
0
100
AcDbLine
10
-59.925000000000068
20
5.1259242485502154
30
-1.7763568394002505e-14
11
-62.07499999999996
21
5.1259242485502154
31
-1.7763568394002505e-14
0
LINE
5
129
100
AcDbEntity
8
0
100
AcDbLine
10
-62.07499999999996
20
5.1259242485502154
30
-1.7763568394002505e-14
11
-62.07499999999996
21
5.0173962810464046
31
-1.7763568394002505e-14
0
LINE
5
130
100
AcDbEntity
8
0
100
AcDbLine
10
-62.07499999999996
20
5.0173962810463957
30
0
11
-64.500000000000028
21
5.0173962810464312
31
1.9721522630525295e-30
0
ARC
5
131
100
AcDbEntity
8
0
100
AcDbCircle
10
-64.500000000000028
20
2.4423962810464328
30
0
40
2.5749999999999984
210
0
220
-0
230
1
100
AcDbArc
50
90
51
180
0
LINE
5
132
100
AcDbEntity
8
0
100
AcDbLine
10
-67.07499999999996
20
2.4423962810464017
30
0
11
-67.07499999999996
21
-2.5509242485501593
31
5.5511151231257827e-16
0
ARC
5
133
100
AcDbEntity
8
0
100
AcDbCircle
10
-64.500000000000028
20
-2.5509242485502126
30
0
40
2.5749999999999318
210
-1.5777218104420236e-30
220
2.9930646810822129e-44
230
1
100
AcDbArc
50
180
51
269.99999999999972
0
LINE
5
134
100
AcDbEntity
8
0
100
AcDbLine
10
-64.500000000000028
20
-5.125924248550211
30
-1.7763568394002505e-14
11
-61.925000000000097
21
-5.1259242485501977
31
-1.7763568394002505e-14
0
LINE
5
135
100
AcDbEntity
8
0
100
AcDbLine
10
-61.925000000000097
20
-5.1259242485502021
30
0
11
-61.925000000000097
21
-1.1259242485501764
31
0
0
ENDSEC
0
SECTION
2
OBJECTS
0
DICTIONARY
5
C
100
AcDbDictionary
3
ACAD_GROUP
350
D
3
ACAD_MLINESTYLE
350
17
0
DICTIONARY
5
D
100
AcDbDictionary
0
DICTIONARY
5
1A
330
C
100
AcDbDictionary
0
DICTIONARY
5
17
100
AcDbDictionary
0
ENDSEC
0
EOF
