0
SECTION
2
HEADER
9
$INSUNITS
70
4
9
$ACADVER
1
AC1014
9
$HANDSEED
5
FFFF
0
ENDSEC
0
SECTION
2
TABLES
0
TABLE
2
VPORT
5
8
100
AcDbSymbolTable
0
ENDTAB
0
TABLE
2
LTYPE
5
5
100
AcDbSymbolTable
0
LTYPE
5
14
100
AcDbSymbolTableRecord
100
AcDbLinetypeTableRecord
2
BYBLOCK
70
0
0
LTYPE
5
15
100
AcDbSymbolTableRecord
100
AcDbLinetypeTableRecord
2
BYLAYER
70
0
0
ENDTAB
0
TABLE
2
LAYER
5
2
100
AcDbSymbolTable
70
2
0
LAYER
5
50
100
AcDbSymbolTableRecord
100
AcDbLayerTableRecord
2
0
70
0
6
CONTINUOUS
0
ENDTAB
0
TABLE
2
STYLE
5
3
100
AcDbSymbolTable
70
1
0
STYLE
5
11
100
AcDbSymbolTableRecord
100
AcDbTextStyleTableRecord
2
STANDARD
70
0
0
ENDTAB
0
TABLE
2
VIEW
5
6
100
AcDbSymbolTable
70
0
0
ENDTAB
0
TABLE
2
UCS
5
7
100
AcDbSymbolTable
70
0
0
ENDTAB
0
TABLE
2
APPID
5
9
100
AcDbSymbolTable
70
2
0
APPID
5
12
100
AcDbSymbolTableRecord
100
AcDbRegAppTableRecord
2
ACAD
70
0
0
ENDTAB
0
TABLE
2
DIMSTYLE
5
A
100
AcDbSymbolTable
70
1
0
ENDTAB
0
TABLE
2
BLOCK_RECORD
5
1
100
AcDbSymbolTable
70
1
0
BLOCK_RECORD
5
1F
100
AcDbSymbolTableRecord
100
AcDbBlockTableRecord
2
*MODEL_SPACE
0
BLOCK_RECORD
5
1B
100
AcDbSymbolTableRecord
100
AcDbBlockTableRecord
2
*PAPER_SPACE
0
ENDTAB
0
ENDSEC
0
SECTION
2
BLOCKS
0
BLOCK
5
20
100
AcDbEntity
100
AcDbBlockBegin
2
*MODEL_SPACE
0
ENDBLK
5
21
100
AcDbEntity
100
AcDbBlockEnd
0
BLOCK
5
1C
100
AcDbEntity
100
AcDbBlockBegin
2
*PAPER_SPACE
0
ENDBLK
5
1D
100
AcDbEntity
100
AcDbBlockEnd
0
ENDSEC
0
SECTION
2
ENTITIES
0
CIRCLE
5
100
100
AcDbEntity
8
0
100
AcDbCircle
10
-20.856795455584063
20
-30.544660444371434
30
0
40
3.9250000000000562
210
0
220
0
230
1
0
CIRCLE
5
101
100
AcDbEntity
8
0
100
AcDbCircle
10
-9.5122939024966513
20
-12.389566192174843
30
0
40
3.9250000000000562
210
0
220
0
230
1
0
LINE
5
102
100
AcDbEntity
8
0
100
AcDbLine
10
19.307060140594672
20
41.82595199990557
30
0
11
27.157060140594922
21
41.82595199990557
31
0
0
LINE
5
103
100
AcDbEntity
8
0
100
AcDbLine
10
27.157060140594922
20
41.82595199990557
30
0
11
27.157060140594922
21
39.975951999905533
31
0
0
LINE
5
104
100
AcDbEntity
8
0
100
AcDbLine
10
27.157060140594922
20
39.97595199990554
30
0
11
19.307060140594672
21
39.97595199990554
31
0
0
LINE
5
105
100
AcDbEntity
8
0
100
AcDbLine
10
19.307060140594672
20
39.97595199990554
30
0
11
19.307060140594672
21
41.82595199990557
31
0
0
LINE
5
106
100
AcDbEntity
8
0
100
AcDbLine
10
-2.2025949551314739
20
6.321603415878041
30
0
11
5.6474050448687763
21
6.321603415878041
31
0
0
LINE
5
107
100
AcDbEntity
8
0
100
AcDbLine
10
5.6474050448687763
20
6.321603415878041
30
0
11
5.6474050448687763
21
4.4716034158780182
31
0
0
LINE
5
108
100
AcDbEntity
8
0
100
AcDbLine
10
5.6474050448687763
20
4.4716034158780182
30
0
11
-2.2025949551314739
21
4.4716034158780182
31
0
0
LINE
5
109
100
AcDbEntity
8
0
100
AcDbLine
10
-2.2025949551314739
20
4.4716034158780182
30
0
11
-2.2025949551314739
21
6.321603415878041
31
0
0
LINE
5
110
100
AcDbEntity
8
0
100
AcDbLine
10
-26.060799049155889
20
-45.491614453120199
30
0
11
-26.928941230437999
21
-47.125269604331308
31
0
0
LINE
5
111
100
AcDbEntity
8
0
100
AcDbLine
10
-26.928941230437999
20
-47.125269604331308
30
0
11
-33.860937412604244
21
-43.441531159431364
31
0
0
LINE
5
112
100
AcDbEntity
8
0
100
AcDbLine
10
-33.860937412604244
20
-43.441531159431364
30
0
11
-32.992795231322134
21
-41.807876008220205
31
0
0
LINE
5
113
100
AcDbEntity
8
0
100
AcDbLine
10
-32.992795231322134
20
-41.807876008220205
30
0
11
-26.060799049155889
21
-45.491614453120199
31
0
0
LINE
5
114
100
AcDbEntity
8
0
100
AcDbLine
10
33.486798170236511
20
60.012913925588776
30
0
11
28.27130794265031
21
63.271896565120116
31
0
0
LINE
5
115
100
AcDbEntity
8
0
100
AcDbLine
10
28.27130794265031
20
63.271896565120116
30
0
11
27.131985888975407
21
61.448590431194617
31
0
0
LINE
5
116
100
AcDbEntity
8
0
100
AcDbLine
10
27.131985888975407
20
61.448590431194617
30
0
11
29.676120618019581
21
59.858847079605376
31
0
0
LINE
5
117
100
AcDbEntity
8
0
100
AcDbLine
10
29.676120618019581
20
59.858847079605383
30
0
11
28.695773734625334
21
58.289955755065037
31
0
0
LINE
5
118
100
AcDbEntity
8
0
100
AcDbLine
10
28.695773734625334
20
58.289955755065037
30
0
11
26.151639005580876
21
59.879699106654414
31
0
0
LINE
5
119
100
AcDbEntity
8
0
100
AcDbLine
10
26.151639005580876
20
59.879699106654414
30
0
11
-4.4737776562593012
21
10.868526301342305
31
0
0
LINE
5
120
100
AcDbEntity
8
0
100
AcDbLine
10
-4.4737776562593012
20
10.868526301342305
30
0
11
-40.4057126458585
21
-46.928010266591102
31
0
0
LINE
5
121
100
AcDbEntity
8
0
100
AcDbLine
10
-40.4057126458585
20
-46.928010266591102
30
0
11
-35.113268431601341
21
-49.740472897442665
31
0
0
LINE
5
122
100
AcDbEntity
8
0
100
AcDbLine
10
-35.113268431601341
20
-49.740472897442665
30
0
11
-37.404104712145738
21
-54.051329541645728
31
0
0
ARC
5
123
100
AcDbEntity
8
0
100
AcDbCircle
10
-37.234491911892746
20
-58.153953802910095
30
0
40
4.106128874149551
210
0
220
0
230
1
100
AcDbArc
50
-267.63259662031476
51
31.659267816446732
0
LINE
5
124
100
AcDbEntity
8
0
100
AcDbLine
10
-33.739418832402066
20
-55.998783623981097
30
0
11
-31.448582551857385
21
-51.687926979778069
31
0
0
LINE
5
125
100
AcDbEntity
8
0
100
AcDbLine
10
-31.448582551857385
20
-51.687926979778069
30
0
11
-26.144040821768613
21
-54.50681836260582
31
0
0
LINE
5
126
100
AcDbEntity
8
0
100
AcDbLine
10
-26.144040821768613
20
-54.50681836260582
30
0
11
14.521477437611736
21
10.79105294262301
31
0
0
LINE
5
127
100
AcDbEntity
8
0
100
AcDbLine
10
14.521477437611736
20
10.79105294262301
30
0
11
39.847609514526994
21
51.321552475662116
31
0
0
LINE
5
128
100
AcDbEntity
8
0
100
AcDbLine
10
39.847609514526994
20
51.321552475662116
30
0
11
37.30347478548282
21
52.911295827251365
31
0
0
LINE
5
129
100
AcDbEntity
8
0
100
AcDbLine
10
37.30347478548282
20
52.911295827251365
30
0
11
38.283821668877067
21
54.480187151791704
31
0
0
LINE
5
130
100
AcDbEntity
8
0
100
AcDbLine
10
38.283821668877067
20
54.480187151791704
30
0
11
40.827956397921241
21
52.890443800202469
31
0
0
LINE
5
131
100
AcDbEntity
8
0
100
AcDbLine
10
40.827956397921241
20
52.890443800202469
30
0
11
41.967278451596144
21
54.713749934128174
31
0
0
LINE
5
132
100
AcDbEntity
8
0
100
AcDbLine
10
41.967278451596144
20
54.713749934128174
30
0
11
36.751788224009942
21
57.972732573659584
31
0
0
LINE
5
133
100
AcDbEntity
8
0
100
AcDbLine
10
36.751788224009942
20
57.972732573659584
30
0
11
34.039248822730599
21
53.631738986363075
31
0
0
ARC
5
134
100
AcDbEntity
8
0
100
AcDbCircle
10
30.575252913280906
20
51.720799948037083
30
0
40
3.9561288741498113
210
0
220
-0
230
1
100
AcDbArc
50
-272.88337669975101
51
28.883650996445656
0
LINE
5
135
100
AcDbEntity
8
0
100
AcDbLine
10
30.774258768956599
20
55.671920338292054
30
0
11
33.486798170236511
21
60.012913925588776
31
0
0
ENDSEC
0
SECTION
2
OBJECTS
0
DICTIONARY
5
C
100
AcDbDictionary
3
ACAD_GROUP
350
D
3
ACAD_MLINESTYLE
350
17
0
DICTIONARY
5
D
100
AcDbDictionary
0
DICTIONARY
5
1A
330
C
100
AcDbDictionary
0
DICTIONARY
5
17
100
AcDbDictionary
0
ENDSEC
0
EOF
