  0
SECTION
  2
HEADER
  9
$ACADVER
  1
AC1015
  9
$ACADMAINTVER
 70
6
  9
$DWGCODEPAGE
  3
ANSI_1252
  9
$TDCREATE
 40
2459269.457199074
  9
$TDUPDATE
 40
2459269.457199074
  9
$HANDSEED
  5
100C1
  9
$INSUNITS
 70
4
  9
$FINGERPRINTGUID
  2
A9B81FCC-75BD-11EB-A590-D20010FD74C0
  9
$VERSIONGUID
  2
A9C5CD3E-75BD-11EB-A590-D20010FD74C0
  0
ENDSEC
  0
SECTION
  2
CLASSES
  0
CLASS
  1
ACDBDICTIONARYWDFLT
  2
AcDbDictionaryWithDefault
  3
ObjectDBX Classes
 90
0
280
0
281
0
  0
CLASS
  1
SUN
  2
AcDbSun
  3
SCENEOE
 90
1153
280
0
281
0
  0
CLASS
  1
VISUALSTYLE
  2
AcDbVisualStyle
  3
ObjectDBX Classes
 90
4095
280
0
281
0
  0
CLASS
  1
MATERIAL
  2
AcDbMaterial
  3
ObjectDBX Classes
 90
1153
280
0
281
0
  0
CLASS
  1
SCALE
  2
AcDbScale
  3
ObjectDBX Classes
 90
1153
280
0
281
0
  0
CLASS
  1
TABLESTYLE
  2
AcDbTableStyle
  3
ObjectDBX Classes
 90
4095
280
0
281
0
  0
CLASS
  1
MLEADERSTYLE
  2
AcDbMLeaderStyle
  3
ACDB_MLEADERSTYLE_CLASS
 90
4095
280
0
281
0
  0
CLASS
  1
DICTIONARYVAR
  2
AcDbDictionaryVar
  3
ObjectDBX Classes
 90
0
280
0
281
0
  0
CLASS
  1
CELLSTYLEMAP
  2
AcDbCellStyleMap
  3
ObjectDBX Classes
 90
1152
280
0
281
0
  0
CLASS
  1
MENTALRAYRENDERSETTINGS
  2
AcDbMentalRayRenderSettings
  3
SCENEOE
 90
1024
280
0
281
0
  0
CLASS
  1
ACDBDETAILVIEWSTYLE
  2
AcDbDetailViewStyle
  3
ObjectDBX Classes
 90
1025
280
0
281
0
  0
CLASS
  1
ACDBSECTIONVIEWSTYLE
  2
AcDbSectionViewStyle
  3
ObjectDBX Classes
 90
1025
280
0
281
0
  0
CLASS
  1
RASTERVARIABLES
  2
AcDbRasterVariables
  3
ISM
 90
0
280
0
281
0
  0
CLASS
  1
ACDBPLACEHOLDER
  2
AcDbPlaceHolder
  3
ObjectDBX Classes
 90
0
280
0
281
0
  0
CLASS
  1
LAYOUT
  2
AcDbLayout
  3
ObjectDBX Classes
 90
0
280
0
281
0
  0
ENDSEC
  0
SECTION
  2
TABLES
  0
TABLE
  2
VPORT
  5
8
330
0
100
AcDbSymbolTable
 70
1
  0
VPORT
  5
1006A
330
8
100
AcDbSymbolTableRecord
100
AcDbViewportTableRecord
  2
*Active
 70
0
 10
0.0
 20
0.0
 11
1.0
 21
1.0
 12
70.0
 22
50.0
 13
0.0
 23
0.0
 14
0.5
 24
0.5
 15
0.5
 25
0.5
 16
0.0
 26
0.0
 36
1.0
 17
0.0
 27
0.0
 37
0.0
 40
1.0
 41
1.34
 42
50.0
 43
0.0
 44
0.0
 50
0.0
 51
0.0
 71
0
 72
1000
 73
1
 74
3
 75
0
 76
0
 77
0
 78
0
281
0
 65
0
146
0.0
  0
ENDTAB
  0
TABLE
  2
LTYPE
  5
5
330
0
100
AcDbSymbolTable
 70
3
  0
LTYPE
  5
1006B
330
5
100
AcDbSymbolTableRecord
100
AcDbLinetypeTableRecord
  2
Continuous
 70
0
  3

 72
65
 73
0
 40
0.0
  0
ENDTAB
  0
TABLE
  2
LAYER
  5
2
330
0
100
AcDbSymbolTable
 70
4
  0
LAYER
  5
50
330
2
100
AcDbSymbolTableRecord
100
AcDbLayerTableRecord
  2
0
 70
0
 62
7
  6
CONTINUOUS
370
-3
390
10060
  0
LAYER
  5
51
330
2
100
AcDbSymbolTableRecord
100
AcDbLayerTableRecord
  2
CUTOUTS
 70
0
 62
1
  6
CONTINUOUS
370
-3
390
10060
  0
LAYER
  5
52
330
2
100
AcDbSymbolTableRecord
100
AcDbLayerTableRecord
  2
PERIMETER
 70
0
 62
5
  6
CONTINUOUS
370
-3
390
10060
  0
LAYER
  5
1006C
330
2
100
AcDbSymbolTableRecord
100
AcDbLayerTableRecord
  2
Defpoints
 70
0
 62
7
  6
Continuous
290
0
370
-3
390
10060
  0
ENDTAB
  0
TABLE
  2
STYLE
  5
3
330
0
100
AcDbSymbolTable
 70
1
  0
STYLE
  5
11
330
3
100
AcDbSymbolTableRecord
100
AcDbTextStyleTableRecord
  2
STANDARD
 70
0
 40
0.0
 41
1.0
 50
0.0
 71
0
 42
2.5
  3
txt
  4

  0
ENDTAB
  0
TABLE
  2
VIEW
  5
6
330
0
100
AcDbSymbolTable
 70
0
  0
ENDTAB
  0
TABLE
  2
UCS
  5
7
330
0
100
AcDbSymbolTable
 70
0
  0
ENDTAB
  0
TABLE
  2
APPID
  5
9
330
0
100
AcDbSymbolTable
 70
2
  0
APPID
  5
12
330
9
100
AcDbSymbolTableRecord
100
AcDbRegAppTableRecord
  2
ACAD
 70
0
  0
APPID
  5
100C0
330
9
100
AcDbSymbolTableRecord
100
AcDbRegAppTableRecord
  2
HATCHBACKGROUNDCOLOR
 70
0
  0
ENDTAB
  0
TABLE
  2
DIMSTYLE
  5
A
330
0
100
AcDbSymbolTable
 70
1
100
AcDbDimStyleTable
  0
DIMSTYLE
105
1006D
330
A
100
AcDbSymbolTableRecord
100
AcDbDimStyleTableRecord
  2
Standard
 70
0
  3

  4

 40
1.0
 41
2.5
 42
0.625
 43
3.75
 44
1.25
 45
0.0
 46
0.0
 47
0.0
 48
0.0
140
2.5
141
2.5
142
0.0
143
0.03937007874
144
1.0
145
0.0
146
1.0
147
0.625
148
0.0
 71
0
 72
0
 73
0
 74
0
 75
0
 76
0
 77
1
 78
8
 79
0
170
0
171
3
172
1
173
0
174
0
175
0
176
0
177
0
178
0
179
0
271
0
272
2
273
2
274
3
275
0
276
0
277
2
278
44
279
0
280
0
281
0
282
0
283
0
284
8
285
0
286
0
288
0
289
3
371
-2
372
-2
  0
ENDTAB
  0
TABLE
  2
BLOCK_RECORD
  5
1
330
0
100
AcDbSymbolTable
 70
22
  0
BLOCK_RECORD
  5
1F
330
1
100
AcDbSymbolTableRecord
100
AcDbBlockTableRecord
  2
*MODEL_SPACE
340
10064
  0
BLOCK_RECORD
  5
1B
330
1
100
AcDbSymbolTableRecord
100
AcDbBlockTableRecord
  2
*PAPER_SPACE
340
10065
  0
BLOCK_RECORD
  5
FFFF
330
1
100
AcDbSymbolTableRecord
100
AcDbBlockTableRecord
  2
_CLOSEDFILLED
340
0
  0
BLOCK_RECORD
  5
10003
330
1
100
AcDbSymbolTableRecord
100
AcDbBlockTableRecord
  2
_ARCHTICK
340
0
  0
BLOCK_RECORD
  5
10007
330
1
100
AcDbSymbolTableRecord
100
AcDbBlockTableRecord
  2
_DATUMBLANK
340
0
  0
BLOCK_RECORD
  5
1000B
330
1
100
AcDbSymbolTableRecord
100
AcDbBlockTableRecord
  2
_DOTSMALL
340
0
  0
BLOCK_RECORD
  5
1000F
330
1
100
AcDbSymbolTableRecord
100
AcDbBlockTableRecord
  2
_SMALL
340
0
  0
BLOCK_RECORD
  5
10013
330
1
100
AcDbSymbolTableRecord
100
AcDbBlockTableRecord
  2
_OPEN90
340
0
  0
BLOCK_RECORD
  5
10018
330
1
100
AcDbSymbolTableRecord
100
AcDbBlockTableRecord
  2
_DATUMFILLED
340
0
  0
BLOCK_RECORD
  5
1001C
330
1
100
AcDbSymbolTableRecord
100
AcDbBlockTableRecord
  2
_INTEGRAL
340
0
  0
BLOCK_RECORD
  5
10021
330
1
100
AcDbSymbolTableRecord
100
AcDbBlockTableRecord
  2
_ORIGIN
340
0
  0
BLOCK_RECORD
  5
10026
330
1
100
AcDbSymbolTableRecord
100
AcDbBlockTableRecord
  2
_NONE
340
0
  0
BLOCK_RECORD
  5
10029
330
1
100
AcDbSymbolTableRecord
100
AcDbBlockTableRecord
  2
_OPEN30
340
0
  0
BLOCK_RECORD
  5
1002E
330
1
100
AcDbSymbolTableRecord
100
AcDbBlockTableRecord
  2
_BOXBLANK
340
0
  0
BLOCK_RECORD
  5
10033
330
1
100
AcDbSymbolTableRecord
100
AcDbBlockTableRecord
  2
_CLOSED
340
0
  0
BLOCK_RECORD
  5
10038
330
1
100
AcDbSymbolTableRecord
100
AcDbBlockTableRecord
  2
_ORIGIN2
340
0
  0
BLOCK_RECORD
  5
1003E
330
1
100
AcDbSymbolTableRecord
100
AcDbBlockTableRecord
  2
_OPEN
340
0
  0
BLOCK_RECORD
  5
10043
330
1
100
AcDbSymbolTableRecord
100
AcDbBlockTableRecord
  2
_BOXFILLED
340
0
  0
BLOCK_RECORD
  5
10048
330
1
100
AcDbSymbolTableRecord
100
AcDbBlockTableRecord
  2
_DOTBLANK
340
0
  0
BLOCK_RECORD
  5
1004D
330
1
100
AcDbSymbolTableRecord
100
AcDbBlockTableRecord
  2
_OBLIQUE
340
0
  0
BLOCK_RECORD
  5
10051
330
1
100
AcDbSymbolTableRecord
100
AcDbBlockTableRecord
  2
_CLOSEDBLANK
340
0
  0
BLOCK_RECORD
  5
10055
330
1
100
AcDbSymbolTableRecord
100
AcDbBlockTableRecord
  2
_DOT
340
0
  0
ENDTAB
  0
ENDSEC
  0
SECTION
  2
BLOCKS
  0
BLOCK
  5
20
330
1F
100
AcDbEntity
  8
0
100
AcDbBlockBegin
  2
*MODEL_SPACE
 70
0
 10
0.0
 20
0.0
 30
0.0
  3
*MODEL_SPACE
  1

  0
ENDBLK
  5
21
330
1F
100
AcDbEntity
  8
0
100
AcDbBlockEnd
  0
BLOCK
  5
1C
330
1B
100
AcDbEntity
  8
0
100
AcDbBlockBegin
  2
*PAPER_SPACE
 70
0
 10
0.0
 20
0.0
 30
0.0
  3
*PAPER_SPACE
  1

  0
ENDBLK
  5
1D
330
1B
100
AcDbEntity
  8
0
100
AcDbBlockEnd
  0
BLOCK
  5
10000
330
FFFF
100
AcDbEntity
  8
0
100
AcDbBlockBegin
  2
_CLOSEDFILLED
 70
0
 10
0.0
 20
0.0
 30
0.0
  3
_CLOSEDFILLED
  1

  0
SOLID
  5
10002
330
FFFF
100
AcDbEntity
  8
0
  6
BYBLOCK
 62
0
100
AcDbTrace
 10
-1.0
 20
0.1643989837240255
 30
0.0
 11
0.0
 21
0.0
 31
0.0
 12
-1.0
 22
-0.1643989837240255
 32
0.0
 13
-1.0
 23
-0.1643989837240255
 33
0.0
  0
ENDBLK
  5
10001
330
FFFF
100
AcDbEntity
  8
0
100
AcDbBlockEnd
  0
BLOCK
  5
10004
330
10003
100
AcDbEntity
  8
0
100
AcDbBlockBegin
  2
_ARCHTICK
 70
0
 10
0.0
 20
0.0
 30
0.0
  3
_ARCHTICK
  1

  0
LWPOLYLINE
  5
10006
330
10003
100
AcDbEntity
  8
0
  6
BYBLOCK
 62
0
100
AcDbPolyline
 90
2
 70
0
 43
0.15
 10
-0.5
 20
-0.5000000000000001
 10
0.5000000000000001
 20
0.5
  0
ENDBLK
  5
10005
330
10003
100
AcDbEntity
  8
0
100
AcDbBlockEnd
  0
BLOCK
  5
10008
330
10007
100
AcDbEntity
  8
0
100
AcDbBlockBegin
  2
_DATUMBLANK
 70
0
 10
0.0
 20
0.0
 30
0.0
  3
_DATUMBLANK
  1

  0
LWPOLYLINE
  5
1000A
330
10007
100
AcDbEntity
  8
0
  6
BYBLOCK
 62
0
100
AcDbPolyline
 90
3
 70
1
 10
3.5352507945885664e-17
 20
0.577350269
 10
3.5352507945885664e-17
 20
-0.577350269
 10
-1.0
 20
1.2246467991473532e-16
  0
ENDBLK
  5
10009
330
10007
100
AcDbEntity
  8
0
100
AcDbBlockEnd
  0
BLOCK
  5
1000C
330
1000B
100
AcDbEntity
  8
0
100
AcDbBlockBegin
  2
_DOTSMALL
 70
0
 10
0.0
 20
0.0
 30
0.0
  3
_DOTSMALL
  1

  0
LWPOLYLINE
  5
1000E
330
1000B
100
AcDbEntity
  8
0
  6
BYBLOCK
 62
0
100
AcDbPolyline
 90
2
 70
1
 43
0.125
 10
-0.0625
 20
0.0
 42
1.0
 10
0.0625
 20
0.0
 42
1.0
  0
ENDBLK
  5
1000D
330
1000B
100
AcDbEntity
  8
0
100
AcDbBlockEnd
  0
BLOCK
  5
10010
330
1000F
100
AcDbEntity
  8
0
100
AcDbBlockBegin
  2
_SMALL
 70
0
 10
0.0
 20
0.0
 30
0.0
  3
_SMALL
  1

  0
CIRCLE
  5
10012
330
1000F
100
AcDbEntity
  8
0
  6
BYBLOCK
 62
0
100
AcDbCircle
 10
0.0
 20
0.0
 30
0.0
 40
0.25
  0
ENDBLK
  5
10011
330
1000F
100
AcDbEntity
  8
0
100
AcDbBlockEnd
  0
BLOCK
  5
10014
330
10013
100
AcDbEntity
  8
0
100
AcDbBlockBegin
  2
_OPEN90
 70
0
 10
0.0
 20
0.0
 30
0.0
  3
_OPEN90
  1

  0
LWPOLYLINE
  5
10016
330
10013
100
AcDbEntity
  8
0
  6
BYBLOCK
 62
0
100
AcDbPolyline
 90
3
 70
0
 10
-0.9999999999999998
 20
0.7071067811865476
 10
0.0
 20
0.0
 10
-0.9999999999999998
 20
-0.7071067811865476
  0
LINE
  5
10017
330
10013
100
AcDbEntity
  8
0
  6
BYBLOCK
 62
0
100
AcDbLine
 10
0.0
 20
0.0
 30
0.0
 11
-1.0
 21
1.2246467991473532e-16
 31
0.0
  0
ENDBLK
  5
10015
330
10013
100
AcDbEntity
  8
0
100
AcDbBlockEnd
  0
BLOCK
  5
10019
330
10018
100
AcDbEntity
  8
0
100
AcDbBlockBegin
  2
_DATUMFILLED
 70
0
 10
0.0
 20
0.0
 30
0.0
  3
_DATUMFILLED
  1

  0
SOLID
  5
1001B
330
10018
100
AcDbEntity
  8
0
  6
BYBLOCK
 62
0
100
AcDbTrace
 10
3.5352507945885664e-17
 20
0.577350269
 30
0.0
 11
3.5352507945885664e-17
 21
-0.577350269
 31
0.0
 12
-1.0
 22
1.2246467991473532e-16
 32
0.0
 13
-1.0
 23
1.2246467991473532e-16
 33
0.0
  0
ENDBLK
  5
1001A
330
10018
100
AcDbEntity
  8
0
100
AcDbBlockEnd
  0
BLOCK
  5
1001D
330
1001C
100
AcDbEntity
  8
0
100
AcDbBlockBegin
  2
_INTEGRAL
 70
0
 10
0.0
 20
0.0
 30
0.0
  3
_INTEGRAL
  1

  0
ARC
  5
1001F
330
1001C
100
AcDbEntity
  8
0
  6
BYBLOCK
 62
0
100
AcDbCircle
 10
-0.3535534
 20
4.329780396376638e-17
 30
0.0
 40
0.3535534
100
AcDbArc
 50
-90.0
 51
0.0
  0
ARC
  5
10020
330
1001C
100
AcDbEntity
  8
0
  6
BYBLOCK
 62
0
100
AcDbCircle
 10
0.3535534
 20
0.0
 30
0.0
 40
0.3535534
100
AcDbArc
 50
90.0
 51
180.0
  0
ENDBLK
  5
1001E
330
1001C
100
AcDbEntity
  8
0
100
AcDbBlockEnd
  0
BLOCK
  5
10022
330
10021
100
AcDbEntity
  8
0
100
AcDbBlockBegin
  2
_ORIGIN
 70
0
 10
0.0
 20
0.0
 30
0.0
  3
_ORIGIN
  1

  0
CIRCLE
  5
10024
330
10021
100
AcDbEntity
  8
0
  6
BYBLOCK
 62
0
100
AcDbCircle
 10
0.0
 20
0.0
 30
0.0
 40
0.5
  0
LINE
  5
10025
330
10021
100
AcDbEntity
  8
0
  6
BYBLOCK
 62
0
100
AcDbLine
 10
0.0
 20
0.0
 30
0.0
 11
-1.0
 21
1.2246467991473532e-16
 31
0.0
  0
ENDBLK
  5
10023
330
10021
100
AcDbEntity
  8
0
100
AcDbBlockEnd
  0
BLOCK
  5
10027
330
10026
100
AcDbEntity
  8
0
100
AcDbBlockBegin
  2
_NONE
 70
0
 10
0.0
 20
0.0
 30
0.0
  3
_NONE
  1

  0
ENDBLK
  5
10028
330
10026
100
AcDbEntity
  8
0
100
AcDbBlockEnd
  0
BLOCK
  5
1002A
330
10029
100
AcDbEntity
  8
0
100
AcDbBlockBegin
  2
_OPEN30
 70
0
 10
0.0
 20
0.0
 30
0.0
  3
_OPEN30
  1

  0
LWPOLYLINE
  5
1002C
330
10029
100
AcDbEntity
  8
0
  6
BYBLOCK
 62
0
100
AcDbPolyline
 90
3
 70
0
 10
-0.9999999999999999
 20
0.2588190451025208
 10
0.0
 20
0.0
 10
-0.9999999999999999
 20
-0.2588190451025208
  0
LINE
  5
1002D
330
10029
100
AcDbEntity
  8
0
  6
BYBLOCK
 62
0
100
AcDbLine
 10
0.0
 20
0.0
 30
0.0
 11
-1.0
 21
1.2246467991473532e-16
 31
0.0
  0
ENDBLK
  5
1002B
330
10029
100
AcDbEntity
  8
0
100
AcDbBlockEnd
  0
BLOCK
  5
1002F
330
1002E
100
AcDbEntity
  8
0
100
AcDbBlockBegin
  2
_BOXBLANK
 70
0
 10
0.0
 20
0.0
 30
0.0
  3
_BOXBLANK
  1

  0
LWPOLYLINE
  5
10031
330
1002E
100
AcDbEntity
  8
0
  6
BYBLOCK
 62
0
100
AcDbPolyline
 90
4
 70
1
 10
-0.5
 20
-0.5000000000000001
 10
0.5000000000000001
 20
-0.5
 10
0.5000000000000001
 20
0.5
 10
-0.5
 20
0.5000000000000001
  0
LINE
  5
10032
330
1002E
100
AcDbEntity
  8
0
  6
BYBLOCK
 62
0
100
AcDbLine
 10
-0.5
 20
6.123233995736766e-17
 30
0.0
 11
-1.0
 21
1.2246467991473532e-16
 31
0.0
  0
ENDBLK
  5
10030
330
1002E
100
AcDbEntity
  8
0
100
AcDbBlockEnd
  0
BLOCK
  5
10034
330
10033
100
AcDbEntity
  8
0
100
AcDbBlockBegin
  2
_CLOSED
 70
0
 10
0.0
 20
0.0
 30
0.0
  3
_CLOSED
  1

  0
LWPOLYLINE
  5
10036
330
10033
100
AcDbEntity
  8
0
  6
BYBLOCK
 62
0
100
AcDbPolyline
 90
3
 70
1
 10
-1.0
 20
0.1643989837240255
 10
0.0
 20
0.0
 10
-1.0
 20
-0.1643989837240255
  0
LINE
  5
10037
330
10033
100
AcDbEntity
  8
0
  6
BYBLOCK
 62
0
100
AcDbLine
 10
0.0
 20
0.0
 30
0.0
 11
-1.0
 21
0.0
 31
0.0
  0
ENDBLK
  5
10035
330
10033
100
AcDbEntity
  8
0
100
AcDbBlockEnd
  0
BLOCK
  5
10039
330
10038
100
AcDbEntity
  8
0
100
AcDbBlockBegin
  2
_ORIGIN2
 70
0
 10
0.0
 20
0.0
 30
0.0
  3
_ORIGIN2
  1

  0
CIRCLE
  5
1003B
330
10038
100
AcDbEntity
  8
0
  6
BYBLOCK
 62
0
100
AcDbCircle
 10
0.0
 20
0.0
 30
0.0
 40
0.5
  0
CIRCLE
  5
1003C
330
10038
100
AcDbEntity
  8
0
  6
BYBLOCK
 62
0
100
AcDbCircle
 10
0.0
 20
0.0
 30
0.0
 40
0.25
  0
LINE
  5
1003D
330
10038
100
AcDbEntity
  8
0
  6
BYBLOCK
 62
0
100
AcDbLine
 10
-0.5
 20
6.123233995736766e-17
 30
0.0
 11
-1.0
 21
1.2246467991473532e-16
 31
0.0
  0
ENDBLK
  5
1003A
330
10038
100
AcDbEntity
  8
0
100
AcDbBlockEnd
  0
BLOCK
  5
1003F
330
1003E
100
AcDbEntity
  8
0
100
AcDbBlockBegin
  2
_OPEN
 70
0
 10
0.0
 20
0.0
 30
0.0
  3
_OPEN
  1

  0
LWPOLYLINE
  5
10041
330
1003E
100
AcDbEntity
  8
0
  6
BYBLOCK
 62
0
100
AcDbPolyline
 90
3
 70
0
 10
-1.0
 20
0.1643989837240255
 10
0.0
 20
0.0
 10
-1.0
 20
-0.1643989837240255
  0
LINE
  5
10042
330
1003E
100
AcDbEntity
  8
0
  6
BYBLOCK
 62
0
100
AcDbLine
 10
0.0
 20
0.0
 30
0.0
 11
-1.0
 21
1.2246467991473532e-16
 31
0.0
  0
ENDBLK
  5
10040
330
1003E
100
AcDbEntity
  8
0
100
AcDbBlockEnd
  0
BLOCK
  5
10044
330
10043
100
AcDbEntity
  8
0
100
AcDbBlockBegin
  2
_BOXFILLED
 70
0
 10
0.0
 20
0.0
 30
0.0
  3
_BOXFILLED
  1

  0
SOLID
  5
10046
330
10043
100
AcDbEntity
  8
0
  6
BYBLOCK
 62
0
100
AcDbTrace
 10
-0.5
 20
-0.5000000000000001
 30
0.0
 11
0.5000000000000001
 21
-0.5
 31
0.0
 12
-0.5
 22
0.5000000000000001
 32
0.0
 13
0.5000000000000001
 23
0.5
 33
0.0
  0
LINE
  5
10047
330
10043
100
AcDbEntity
  8
0
  6
BYBLOCK
 62
0
100
AcDbLine
 10
-0.5
 20
6.123233995736766e-17
 30
0.0
 11
-1.0
 21
1.2246467991473532e-16
 31
0.0
  0
ENDBLK
  5
10045
330
10043
100
AcDbEntity
  8
0
100
AcDbBlockEnd
  0
BLOCK
  5
10049
330
10048
100
AcDbEntity
  8
0
100
AcDbBlockBegin
  2
_DOTBLANK
 70
0
 10
0.0
 20
0.0
 30
0.0
  3
_DOTBLANK
  1

  0
CIRCLE
  5
1004B
330
10048
100
AcDbEntity
  8
0
  6
BYBLOCK
 62
0
100
AcDbCircle
 10
0.0
 20
0.0
 30
0.0
 40
0.5
  0
LINE
  5
1004C
330
10048
100
AcDbEntity
  8
0
  6
BYBLOCK
 62
0
100
AcDbLine
 10
-0.5
 20
6.123233995736766e-17
 30
0.0
 11
-1.0
 21
1.2246467991473532e-16
 31
0.0
  0
ENDBLK
  5
1004A
330
10048
100
AcDbEntity
  8
0
100
AcDbBlockEnd
  0
BLOCK
  5
1004E
330
1004D
100
AcDbEntity
  8
0
100
AcDbBlockBegin
  2
_OBLIQUE
 70
0
 10
0.0
 20
0.0
 30
0.0
  3
_OBLIQUE
  1

  0
LINE
  5
10050
330
1004D
100
AcDbEntity
  8
0
  6
BYBLOCK
 62
0
100
AcDbLine
 10
-0.5
 20
-0.5000000000000001
 30
0.0
 11
0.5000000000000001
 21
0.5
 31
0.0
  0
ENDBLK
  5
1004F
330
1004D
100
AcDbEntity
  8
0
100
AcDbBlockEnd
  0
BLOCK
  5
10052
330
10051
100
AcDbEntity
  8
0
100
AcDbBlockBegin
  2
_CLOSEDBLANK
 70
0
 10
0.0
 20
0.0
 30
0.0
  3
_CLOSEDBLANK
  1

  0
LWPOLYLINE
  5
10054
330
10051
100
AcDbEntity
  8
0
  6
BYBLOCK
 62
0
100
AcDbPolyline
 90
3
 70
1
 10
-1.0
 20
0.1643989837240255
 10
0.0
 20
0.0
 10
-1.0
 20
-0.1643989837240255
  0
ENDBLK
  5
10053
330
10051
100
AcDbEntity
  8
0
100
AcDbBlockEnd
  0
BLOCK
  5
10056
330
10055
100
AcDbEntity
  8
0
100
AcDbBlockBegin
  2
_DOT
 70
0
 10
0.0
 20
0.0
 30
0.0
  3
_DOT
  1

  0
LINE
  5
10058
330
10055
100
AcDbEntity
  8
0
  6
BYBLOCK
 62
0
100
AcDbLine
 10
-0.5
 20
6.123233995736766e-17
 30
0.0
 11
-1.0
 21
1.2246467991473532e-16
 31
0.0
  0
LWPOLYLINE
  5
10059
330
10055
100
AcDbEntity
  8
0
  6
BYBLOCK
 62
0
100
AcDbPolyline
 90
2
 70
1
 43
0.5
 10
-0.25
 20
0.0
 42
1.0
 10
0.25
 20
0.0
 42
1.0
  0
ENDBLK
  5
10057
330
10055
100
AcDbEntity
  8
0
100
AcDbBlockEnd
  0
ENDSEC
  0
SECTION
  2
ENTITIES
  0
LINE
  5
100
330
1F
100
AcDbEntity
  8
PERIMETER
100
AcDbLine
 10
13.796126176959618
 20
14.14940552126096
 30
0.0
 11
13.15333856727308
 21
14.915449964379938
 31
0.0
  0
LINE
  5
101
330
1F
100
AcDbEntity
  8
PERIMETER
100
AcDbLine
 10
13.15333856727308
 20
14.915449964379938
 30
0.0
 11
11.1279642573135
 21
13.215959127896923
 31
0.0
  0
LINE
  5
102
330
1F
100
AcDbEntity
  8
PERIMETER
100
AcDbLine
 10
11.1279642573135
 20
13.215959127896923
 30
0.0
 11
11.770751867000042
 21
12.449914684777942
 31
0.0
  0
LINE
  5
103
330
1F
100
AcDbEntity
  8
PERIMETER
100
AcDbLine
 10
11.770751867000042
 20
12.449914684777942
 30
0.0
 11
10.0
 21
10.964077446271723
 31
0.0
  0
LINE
  5
104
330
1F
100
AcDbEntity
  8
PERIMETER
100
AcDbLine
 10
10.0
 20
10.964077446271723
 30
0.0
 11
10.0
 21
7.977946246487417
 31
0.0
  0
LINE
  5
105
330
1F
100
AcDbEntity
  8
PERIMETER
100
AcDbLine
 10
10.0
 20
7.977946246487417
 30
0.0
 11
10.999999999999998
 21
7.977946246487417
 31
0.0
  0
LINE
  5
106
330
1F
100
AcDbEntity
  8
PERIMETER
100
AcDbLine
 10
10.999999999999998
 20
7.977946246487417
 30
0.0
 11
10.999999999999998
 21
4.048581916791807
 31
0.0
  0
LINE
  5
107
330
1F
100
AcDbEntity
  8
PERIMETER
100
AcDbLine
 10
10.999999999999998
 20
4.048581916791807
 30
0.0
 11
10.0
 21
4.048581916791807
 31
0.0
  0
LINE
  5
108
330
1F
100
AcDbEntity
  8
PERIMETER
100
AcDbLine
 10
10.0
 20
4.048581916791807
 30
0.0
 11
10.0
 21
1.7763568394002505e-15
 31
0.0
  0
LINE
  5
109
330
1F
100
AcDbEntity
  8
PERIMETER
100
AcDbLine
 10
10.0
 20
1.7763568394002505e-15
 30
0.0
 11
12.120454545454546
 21
1.7763568394002505e-15
 31
0.0
  0
LINE
  5
10A
330
1F
100
AcDbEntity
  8
PERIMETER
100
AcDbLine
 10
12.120454545454546
 20
0.0
 30
0.0
 11
12.120454545454546
 21
8.673863636363636
 31
0.0
  0
ARC
  5
10B
330
1F
100
AcDbEntity
  8
PERIMETER
100
AcDbCircle
 10
16.855681818181818
 20
8.673863636363636
 30
0.0
 40
4.735227272727273
100
AcDbArc
 50
0.0
 51
180.0
  0
LINE
  5
10C
330
1F
100
AcDbEntity
  8
PERIMETER
100
AcDbLine
 10
21.590909090909093
 20
8.673863636363636
 30
0.0
 11
21.590909090909093
 21
0.0
 31
0.0
  0
LINE
  5
10D
330
1F
100
AcDbEntity
  8
PERIMETER
100
AcDbLine
 10
21.590909090909093
 20
0.0
 30
0.0
 11
23.711363636363636
 21
0.0
 31
0.0
  0
LINE
  5
10E
330
1F
100
AcDbEntity
  8
PERIMETER
100
AcDbLine
 10
23.711363636363636
 20
0.0
 30
0.0
 11
23.711363636363636
 21
4.048581916791807
 31
0.0
  0
LINE
  5
10F
330
1F
100
AcDbEntity
  8
PERIMETER
100
AcDbLine
 10
23.711363636363636
 20
4.048581916791807
 30
0.0
 11
22.711363636363636
 21
4.048581916791807
 31
0.0
  0
LINE
  5
110
330
1F
100
AcDbEntity
  8
PERIMETER
100
AcDbLine
 10
22.711363636363636
 20
4.048581916791807
 30
0.0
 11
22.711363636363636
 21
8.064997644959062
 31
0.0
  0
LINE
  5
111
330
1F
100
AcDbEntity
  8
PERIMETER
100
AcDbLine
 10
22.711363636363636
 20
8.064997644959062
 30
0.0
 11
23.711363636363636
 21
8.064997644959062
 31
0.0
  0
LINE
  5
112
330
1F
100
AcDbEntity
  8
PERIMETER
100
AcDbLine
 10
23.711363636363636
 20
8.064997644959062
 30
0.0
 11
23.711363636363636
 21
10.964077446271723
 31
0.0
  0
LINE
  5
113
330
1F
100
AcDbEntity
  8
PERIMETER
100
AcDbLine
 10
23.711363636363636
 20
10.964077446271723
 30
0.0
 11
21.940611769363596
 21
12.449914684777935
 31
0.0
  0
LINE
  5
114
330
1F
100
AcDbEntity
  8
PERIMETER
100
AcDbLine
 10
21.940611769363596
 20
12.449914684777935
 30
0.0
 11
22.583399379050135
 21
13.215959127896918
 31
0.0
  0
LINE
  5
115
330
1F
100
AcDbEntity
  8
PERIMETER
100
AcDbLine
 10
22.583399379050135
 20
13.215959127896918
 30
0.0
 11
20.55802506909055
 21
14.915449964379935
 31
0.0
  0
LINE
  5
116
330
1F
100
AcDbEntity
  8
PERIMETER
100
AcDbLine
 10
20.55802506909055
 20
14.915449964379935
 30
0.0
 11
19.915237459404015
 21
14.149405521260958
 31
0.0
  0
LINE
  5
117
330
1F
100
AcDbEntity
  8
PERIMETER
100
AcDbLine
 10
19.915237459404015
 20
14.149405521260958
 30
0.0
 11
16.855681818181818
 21
16.716677531376867
 31
0.0
  0
LINE
  5
118
330
1F
100
AcDbEntity
  8
PERIMETER
100
AcDbLine
 10
16.855681818181818
 20
16.716677531376867
 30
0.0
 11
13.796126176959618
 21
14.14940552126096
 31
0.0
  0
LINE
  5
1006F
330
1F
100
AcDbEntity
  8
PERIMETER
100
AcDbLine
 10
22.711363636363636
 20
45.36835741779467
 30
0.0
 11
22.711363636363636
 21
49.38477314596193
 31
0.0
  0
LINE
  5
10070
330
1F
100
AcDbEntity
  8
PERIMETER
100
AcDbLine
 10
22.711363636363636
 20
49.38477314596193
 30
0.0
 11
23.711363636363636
 21
49.38477314596193
 31
0.0
  0
LINE
  5
10071
330
1F
100
AcDbEntity
  8
PERIMETER
100
AcDbLine
 10
23.711363636363636
 20
49.38477314596193
 30
0.0
 11
23.711363636363636
 21
53.43335506275373
 31
0.0
  0
LINE
  5
10072
330
1F
100
AcDbEntity
  8
PERIMETER
100
AcDbLine
 10
23.711363636363636
 20
53.43335506275373
 30
0.0
 11
10.0
 21
53.43335506275373
 31
0.0
  0
LINE
  5
10073
330
1F
100
AcDbEntity
  8
PERIMETER
100
AcDbLine
 10
10.0
 20
53.43335506275373
 30
0.0
 11
10.0
 21
49.38477314596193
 31
0.0
  0
LINE
  5
10074
330
1F
100
AcDbEntity
  8
PERIMETER
100
AcDbLine
 10
10.0
 20
49.38477314596193
 30
0.0
 11
10.999999999999998
 21
49.38477314596193
 31
0.0
  0
LINE
  5
10075
330
1F
100
AcDbEntity
  8
PERIMETER
100
AcDbLine
 10
10.999999999999998
 20
49.38477314596193
 30
0.0
 11
10.999999999999998
 21
45.45540881626632
 31
0.0
  0
LINE
  5
10076
330
1F
100
AcDbEntity
  8
PERIMETER
100
AcDbLine
 10
10.999999999999998
 20
45.45540881626632
 30
0.0
 11
10.0
 21
45.45540881626632
 31
0.0
  0
LINE
  5
10077
330
1F
100
AcDbEntity
  8
PERIMETER
100
AcDbLine
 10
10.0
 20
45.45540881626632
 30
0.0
 11
10.0
 21
42.46927761648201
 31
0.0
  0
LINE
  5
10078
330
1F
100
AcDbEntity
  8
PERIMETER
100
AcDbLine
 10
10.0
 20
42.46927761648201
 30
0.0
 11
11.770751867000044
 21
40.983440377975796
 31
0.0
  0
LINE
  5
10079
330
1F
100
AcDbEntity
  8
PERIMETER
100
AcDbLine
 10
11.770751867000044
 20
40.983440377975796
 30
0.0
 11
11.1279642573135
 21
40.21739593485681
 31
0.0
  0
LINE
  5
1007A
330
1F
100
AcDbEntity
  8
PERIMETER
100
AcDbLine
 10
11.1279642573135
 20
40.21739593485681
 30
0.0
 11
13.15333856727308
 21
38.517905098373795
 31
0.0
  0
LINE
  5
1007B
330
1F
100
AcDbEntity
  8
PERIMETER
100
AcDbLine
 10
13.15333856727308
 20
38.517905098373795
 30
0.0
 11
13.79612617695962
 21
39.283949541492774
 31
0.0
  0
LINE
  5
1007C
330
1F
100
AcDbEntity
  8
PERIMETER
100
AcDbLine
 10
13.79612617695962
 20
39.283949541492774
 30
0.0
 11
16.855681818181818
 21
36.716677531376874
 31
0.0
  0
LINE
  5
1007D
330
1F
100
AcDbEntity
  8
PERIMETER
100
AcDbLine
 10
16.855681818181818
 20
36.716677531376874
 30
0.0
 11
19.915237459404015
 21
39.283949541492774
 31
0.0
  0
LINE
  5
1007E
330
1F
100
AcDbEntity
  8
PERIMETER
100
AcDbLine
 10
19.915237459404015
 20
39.283949541492774
 30
0.0
 11
20.558025069090554
 21
38.5179050983738
 31
0.0
  0
LINE
  5
1007F
330
1F
100
AcDbEntity
  8
PERIMETER
100
AcDbLine
 10
20.558025069090554
 20
38.5179050983738
 30
0.0
 11
22.583399379050135
 21
40.21739593485682
 31
0.0
  0
LINE
  5
10080
330
1F
100
AcDbEntity
  8
PERIMETER
100
AcDbLine
 10
22.583399379050135
 20
40.21739593485682
 30
0.0
 11
21.940611769363596
 21
40.983440377975796
 31
0.0
  0
LINE
  5
10081
330
1F
100
AcDbEntity
  8
PERIMETER
100
AcDbLine
 10
21.940611769363596
 20
40.983440377975796
 30
0.0
 11
23.711363636363636
 21
42.46927761648201
 31
0.0
  0
LINE
  5
10082
330
1F
100
AcDbEntity
  8
PERIMETER
100
AcDbLine
 10
23.711363636363636
 20
42.46927761648201
 30
0.0
 11
23.711363636363636
 21
45.36835741779467
 31
0.0
  0
LINE
  5
10083
330
1F
100
AcDbEntity
  8
PERIMETER
100
AcDbLine
 10
23.711363636363636
 20
45.36835741779467
 30
0.0
 11
22.711363636363636
 21
45.36835741779467
 31
0.0
  0
LINE
  5
10084
330
1F
100
AcDbEntity
  8
CUTOUTS
100
AcDbLine
 10
15.179996186273577
 20
78.37583997429049
 30
0.0
 11
15.179996186273577
 21
76.63265815610866
 31
0.0
  0
LINE
  5
10085
330
1F
100
AcDbEntity
  8
CUTOUTS
100
AcDbLine
 10
15.179996186273577
 20
76.63265815610866
 30
0.0
 11
12.527723459000851
 21
76.63265815610866
 31
0.0
  0
LINE
  5
10086
330
1F
100
AcDbEntity
  8
CUTOUTS
100
AcDbLine
 10
12.527723459000851
 20
76.63265815610866
 30
0.0
 11
12.527723459000851
 21
78.37583997429049
 31
0.0
  0
LINE
  5
10087
330
1F
100
AcDbEntity
  8
CUTOUTS
100
AcDbLine
 10
12.527723459000851
 20
78.37583997429049
 30
0.0
 11
15.179996186273577
 21
78.37583997429049
 31
0.0
  0
LINE
  5
10088
330
1F
100
AcDbEntity
  8
PERIMETER
100
AcDbLine
 10
12.931144662603492
 20
91.69017324457191
 30
0.0
 11
12.931144662603492
 21
90.69017324457191
 31
0.0
  0
LINE
  5
10089
330
1F
100
AcDbEntity
  8
PERIMETER
100
AcDbLine
 10
12.931144662603492
 20
90.69017324457191
 30
0.0
 11
10.0
 21
90.69017324457191
 31
0.0
  0
LINE
  5
1008A
330
1F
100
AcDbEntity
  8
PERIMETER
100
AcDbLine
 10
10.0
 20
90.69017324457191
 30
0.0
 11
10.0
 21
74.43335506275373
 31
0.0
  0
LINE
  5
1008B
330
1F
100
AcDbEntity
  8
PERIMETER
100
AcDbLine
 10
10.0
 20
74.43335506275373
 30
0.0
 11
12.931144662603492
 21
74.43335506275373
 31
0.0
  0
LINE
  5
1008C
330
1F
100
AcDbEntity
  8
PERIMETER
100
AcDbLine
 10
12.931144662603492
 20
74.43335506275373
 30
0.0
 11
12.931144662603492
 21
73.43335506275373
 31
0.0
  0
LINE
  5
1008D
330
1F
100
AcDbEntity
  8
PERIMETER
100
AcDbLine
 10
12.931144662603492
 20
73.43335506275373
 30
0.0
 11
17.0105089922991
 21
73.43335506275373
 31
0.0
  0
LINE
  5
1008E
330
1F
100
AcDbEntity
  8
PERIMETER
100
AcDbLine
 10
17.0105089922991
 20
73.43335506275373
 30
0.0
 11
17.0105089922991
 21
74.43335506275373
 31
0.0
  0
LINE
  5
1008F
330
1F
100
AcDbEntity
  8
PERIMETER
100
AcDbLine
 10
17.0105089922991
 20
74.43335506275373
 30
0.0
 11
20.98409090909091
 21
74.43335506275373
 31
0.0
  0
LINE
  5
10090
330
1F
100
AcDbEntity
  8
PERIMETER
100
AcDbLine
 10
20.98409090909091
 20
74.43335506275373
 30
0.0
 11
20.98409090909091
 21
90.69017324457191
 31
0.0
  0
LINE
  5
10091
330
1F
100
AcDbEntity
  8
PERIMETER
100
AcDbLine
 10
20.98409090909091
 20
90.69017324457191
 30
0.0
 11
17.0105089922991
 21
90.69017324457191
 31
0.0
  0
LINE
  5
10092
330
1F
100
AcDbEntity
  8
PERIMETER
100
AcDbLine
 10
17.0105089922991
 20
90.69017324457191
 30
0.0
 11
17.0105089922991
 21
91.69017324457191
 31
0.0
  0
LINE
  5
10093
330
1F
100
AcDbEntity
  8
PERIMETER
100
AcDbLine
 10
17.0105089922991
 20
91.69017324457191
 30
0.0
 11
12.931144662603492
 21
91.69017324457191
 31
0.0
  0
LINE
  5
10094
330
1F
100
AcDbEntity
  8
CUTOUTS
100
AcDbLine
 10
12.527723459000851
 20
125.00450651485335
 30
0.0
 11
12.527723459000851
 21
126.74768833303517
 31
0.0
  0
LINE
  5
10095
330
1F
100
AcDbEntity
  8
CUTOUTS
100
AcDbLine
 10
12.527723459000851
 20
126.74768833303517
 30
0.0
 11
15.179996186273577
 21
126.74768833303517
 31
0.0
  0
LINE
  5
10096
330
1F
100
AcDbEntity
  8
CUTOUTS
100
AcDbLine
 10
15.179996186273577
 20
126.74768833303517
 30
0.0
 11
15.179996186273577
 21
125.00450651485335
 31
0.0
  0
LINE
  5
10097
330
1F
100
AcDbEntity
  8
CUTOUTS
100
AcDbLine
 10
15.179996186273577
 20
125.00450651485335
 30
0.0
 11
12.527723459000851
 21
125.00450651485335
 31
0.0
  0
LINE
  5
10098
330
1F
100
AcDbEntity
  8
PERIMETER
100
AcDbLine
 10
20.98409090909091
 20
112.69017324457192
 30
0.0
 11
20.98409090909091
 21
114.64787819199117
 31
0.0
  0
LINE
  5
10099
330
1F
100
AcDbEntity
  8
PERIMETER
100
AcDbLine
 10
20.98409090909091
 20
114.64787819199117
 30
0.0
 11
12.347727272727273
 21
114.64787819199117
 31
0.0
  0
LINE
  5
1009A
330
1F
100
AcDbEntity
  8
PERIMETER
100
AcDbLine
 10
12.347727272727273
 20
114.64787819199117
 30
0.0
 11
12.347727272727273
 21
118.2092418283548
 31
0.0
  0
LINE
  5
1009B
330
1F
100
AcDbEntity
  8
PERIMETER
100
AcDbLine
 10
12.347727272727273
 20
118.2092418283548
 30
0.0
 11
20.98409090909091
 21
118.2092418283548
 31
0.0
  0
LINE
  5
1009C
330
1F
100
AcDbEntity
  8
PERIMETER
100
AcDbLine
 10
20.98409090909091
 20
118.2092418283548
 30
0.0
 11
20.98409090909091
 21
128.9469914263901
 31
0.0
  0
LINE
  5
1009D
330
1F
100
AcDbEntity
  8
PERIMETER
100
AcDbLine
 10
20.98409090909091
 20
128.9469914263901
 30
0.0
 11
17.0105089922991
 21
128.9469914263901
 31
0.0
  0
LINE
  5
1009E
330
1F
100
AcDbEntity
  8
PERIMETER
100
AcDbLine
 10
17.0105089922991
 20
128.9469914263901
 30
0.0
 11
17.0105089922991
 21
129.9469914263901
 31
0.0
  0
LINE
  5
1009F
330
1F
100
AcDbEntity
  8
PERIMETER
100
AcDbLine
 10
17.0105089922991
 20
129.9469914263901
 30
0.0
 11
12.844093264131848
 21
129.9469914263901
 31
0.0
  0
LINE
  5
100A0
330
1F
100
AcDbEntity
  8
PERIMETER
100
AcDbLine
 10
12.844093264131848
 20
129.9469914263901
 30
0.0
 11
12.844093264131848
 21
128.9469914263901
 31
0.0
  0
LINE
  5
100A1
330
1F
100
AcDbEntity
  8
PERIMETER
100
AcDbLine
 10
12.844093264131848
 20
128.9469914263901
 30
0.0
 11
10.0
 21
128.9469914263901
 31
0.0
  0
LINE
  5
100A2
330
1F
100
AcDbEntity
  8
PERIMETER
100
AcDbLine
 10
10.0
 20
128.9469914263901
 30
0.0
 11
10.0
 21
112.69017324457192
 31
0.0
  0
LINE
  5
100A3
330
1F
100
AcDbEntity
  8
PERIMETER
100
AcDbLine
 10
10.0
 20
112.69017324457192
 30
0.0
 11
12.844093264131848
 21
112.69017324457192
 31
0.0
  0
LINE
  5
100A4
330
1F
100
AcDbEntity
  8
PERIMETER
100
AcDbLine
 10
12.844093264131848
 20
112.69017324457192
 30
0.0
 11
12.844093264131848
 21
111.69017324457192
 31
0.0
  0
LINE
  5
100A5
330
1F
100
AcDbEntity
  8
PERIMETER
100
AcDbLine
 10
12.844093264131848
 20
111.69017324457192
 30
0.0
 11
17.0105089922991
 21
111.69017324457192
 31
0.0
  0
LINE
  5
100A6
330
1F
100
AcDbEntity
  8
PERIMETER
100
AcDbLine
 10
17.0105089922991
 20
111.69017324457192
 30
0.0
 11
17.0105089922991
 21
112.69017324457192
 31
0.0
  0
LINE
  5
100A7
330
1F
100
AcDbEntity
  8
PERIMETER
100
AcDbLine
 10
17.0105089922991
 20
112.69017324457192
 30
0.0
 11
20.98409090909091
 21
112.69017324457192
 31
0.0
  0
LINE
  5
100A8
330
1F
100
AcDbEntity
  8
PERIMETER
100
AcDbLine
 10
10.0
 20
168.20380960820827
 30
0.0
 11
10.0
 21
149.9469914263901
 31
4.930380657631324e-31
  0
LINE
  5
100A9
330
1F
100
AcDbEntity
  8
PERIMETER
100
AcDbLine
 10
10.0
 20
149.9469914263901
 30
2.220446049250313e-15
 11
14.074999999999994
 21
149.9469914263901
 31
2.220446049250313e-15
  0
LINE
  5
100AA
330
1F
100
AcDbEntity
  8
PERIMETER
100
AcDbLine
 10
14.074999999999996
 20
149.9469914263901
 30
0.0
 11
14.074999999999996
 21
150.9469914263901
 31
-1.232595164407831e-31
  0
LINE
  5
100AB
330
1F
100
AcDbEntity
  8
PERIMETER
100
AcDbLine
 10
14.074999999999996
 20
150.9469914263901
 30
2.220446049250313e-15
 11
16.56893838784757
 21
150.9469914263901
 31
2.220446049250313e-15
  0
LINE
  5
100AC
330
1F
100
AcDbEntity
  8
PERIMETER
100
AcDbLine
 10
16.568938387847567
 20
150.9469914263901
 30
2.220446049250313e-15
 11
16.56893838784757
 21
149.9469914263901
 31
2.220446049250313e-15
  0
LINE
  5
100AD
330
1F
100
AcDbEntity
  8
PERIMETER
100
AcDbLine
 10
16.56893838784757
 20
149.9469914263901
 30
2.220446049250313e-15
 11
20.47550424544735
 21
149.9469914263901
 31
2.4980018054066022e-15
  0
LINE
  5
100AE
330
1F
100
AcDbEntity
  8
PERIMETER
100
AcDbLine
 10
20.47550424544735
 20
149.9469914263901
 30
2.220446049250313e-15
 11
20.47550424544735
 21
168.20380960820827
 31
2.2204460492503127e-15
  0
LINE
  5
100AF
330
1F
100
AcDbEntity
  8
PERIMETER
100
AcDbLine
 10
20.475504245447354
 20
168.20380960820827
 30
2.220446049250313e-15
 11
16.56893838784757
 21
168.20380960820827
 31
2.4980018054066022e-15
  0
LINE
  5
100B0
330
1F
100
AcDbEntity
  8
PERIMETER
100
AcDbLine
 10
16.56893838784757
 20
168.20380960820827
 30
0.0
 11
16.56893838784757
 21
167.20380960820827
 31
-1.232595164407831e-31
  0
LINE
  5
100B1
330
1F
100
AcDbEntity
  8
PERIMETER
100
AcDbLine
 10
16.56893838784757
 20
167.20380960820827
 30
2.220446049250313e-15
 11
14.075
 21
167.20380960820827
 31
2.0816681711721685e-15
  0
LINE
  5
100B2
330
1F
100
AcDbEntity
  8
PERIMETER
100
AcDbLine
 10
14.075
 20
167.20380960820827
 30
2.220446049250313e-15
 11
14.075
 21
168.20380960820827
 31
2.220446049250313e-15
  0
LINE
  5
100B3
330
1F
100
AcDbEntity
  8
PERIMETER
100
AcDbLine
 10
14.074999999999998
 20
168.20380960820827
 30
2.220446049250313e-15
 11
10.000000000000002
 21
168.20380960820827
 31
2.220446049250313e-15
  0
LINE
  5
100B4
330
1F
100
AcDbEntity
  8
PERIMETER
100
AcDbLine
 10
20.475504245447354
 20
188.2038096082083
 30
-1.1102230246251565e-15
 11
20.475504245447354
 21
206.46062779002648
 31
-1.1102230246251487e-15
  0
LINE
  5
100B5
330
1F
100
AcDbEntity
  8
PERIMETER
100
AcDbLine
 10
20.475504245447354
 20
206.46062779002648
 30
-2.220446049250313e-15
 11
16.40050424544735
 21
206.46062779002648
 31
-2.220446049250313e-15
  0
LINE
  5
100B6
330
1F
100
AcDbEntity
  8
PERIMETER
100
AcDbLine
 10
16.40050424544735
 20
206.46062779002648
 30
-1.1102230246251565e-15
 11
16.40050424544735
 21
205.46062779002648
 31
-1.1102230246251565e-15
  0
LINE
  5
100B7
330
1F
100
AcDbEntity
  8
PERIMETER
100
AcDbLine
 10
16.40050424544735
 20
205.46062779002648
 30
0.0
 11
13.906565857599789
 21
205.46062779002648
 31
0.0
  0
LINE
  5
100B8
330
1F
100
AcDbEntity
  8
PERIMETER
100
AcDbLine
 10
13.906565857599787
 20
205.46062779002648
 30
-1.1102230246251565e-15
 11
13.906565857599787
 21
206.46062779002648
 31
-1.110223024625157e-15
  0
LINE
  5
100B9
330
1F
100
AcDbEntity
  8
PERIMETER
100
AcDbLine
 10
13.906565857599787
 20
206.46062779002648
 30
-2.220446049250313e-15
 11
10.0
 21
206.46062779002648
 31
-2.220446049250313e-15
  0
LINE
  5
100BA
330
1F
100
AcDbEntity
  8
PERIMETER
100
AcDbLine
 10
10.0
 20
206.46062779002648
 30
-1.1102230246251565e-15
 11
10.0
 21
188.2038096082083
 31
-1.1102230246251605e-15
  0
LINE
  5
100BB
330
1F
100
AcDbEntity
  8
PERIMETER
100
AcDbLine
 10
10.000000000000002
 20
188.2038096082083
 30
1.1102230246251565e-15
 11
13.906565857599787
 21
188.2038096082083
 31
1.1102230246251565e-15
  0
LINE
  5
100BC
330
1F
100
AcDbEntity
  8
PERIMETER
100
AcDbLine
 10
13.906565857599787
 20
188.2038096082083
 30
-1.1102230246251565e-15
 11
13.906565857599787
 21
189.2038096082083
 31
-1.1102230246251565e-15
  0
LINE
  5
100BD
330
1F
100
AcDbEntity
  8
PERIMETER
100
AcDbLine
 10
13.906565857599789
 20
189.2038096082083
 30
-1.1102230246251565e-15
 11
16.40050424544735
 21
189.2038096082083
 31
-1.1102230246251565e-15
  0
LINE
  5
100BE
330
1F
100
AcDbEntity
  8
PERIMETER
100
AcDbLine
 10
16.40050424544735
 20
189.2038096082083
 30
-1.1102230246251565e-15
 11
16.40050424544735
 21
188.2038096082083
 31
-1.1102230246251565e-15
  0
LINE
  5
100BF
330
1F
100
AcDbEntity
  8
PERIMETER
100
AcDbLine
 10
16.400504245447348
 20
188.2038096082083
 30
-1.1102230246251565e-15
 11
20.475504245447354
 21
188.2038096082083
 31
-1.3877787807814457e-15
  0
ENDSEC
  0
SECTION
  2
OBJECTS
  0
DICTIONARY
  5
C
330
None
100
AcDbDictionary
281
1
  3
ACAD_GROUP
350
D
  3
ACAD_MLINESTYLE
350
17
  3
ACAD_COLOR
350
1005A
  3
ACAD_LAYOUT
350
1005B
  3
ACAD_MATERIAL
350
1005C
  3
ACAD_MLEADERSTYLE
350
1005D
  3
ACAD_PLOTSETTINGS
350
1005E
  3
ACAD_PLOTSTYLENAME
350
1005F
  3
ACAD_SCALELIST
350
10061
  3
ACAD_TABLESTYLE
350
10062
  3
ACAD_VISUALSTYLE
350
10063
  0
DICTIONARY
  5
D
330
None
100
AcDbDictionary
281
1
  0
DICTIONARY
  5
1A
330
C
100
AcDbDictionary
281
1
  0
DICTIONARY
  5
17
330
None
100
AcDbDictionary
281
1
  3
Standard
350
10069
  0
DICTIONARY
  5
1005A
330
C
100
AcDbDictionary
281
1
  0
DICTIONARY
  5
1005B
330
C
100
AcDbDictionary
281
1
  3
Model
350
10064
  3
Layout1
350
10065
  0
DICTIONARY
  5
1005C
330
C
100
AcDbDictionary
281
1
  3
ByBlock
350
10066
  3
ByLayer
350
10067
  3
Global
350
10068
  0
DICTIONARY
  5
1005D
330
C
100
AcDbDictionary
281
1
  3
Standard
350
1006E
  0
DICTIONARY
  5
1005E
330
C
100
AcDbDictionary
281
1
  0
ACDBDICTIONARYWDFLT
  5
1005F
330
C
100
AcDbDictionary
281
1
  3
Normal
350
10060
100
AcDbDictionaryWithDefault
340
10060
  0
ACDBPLACEHOLDER
  5
10060
330
1005F
  0
DICTIONARY
  5
10061
330
C
100
AcDbDictionary
281
1
  0
DICTIONARY
  5
10062
330
C
100
AcDbDictionary
281
1
  0
DICTIONARY
  5
10063
330
C
100
AcDbDictionary
281
1
  0
LAYOUT
  5
10064
330
1005B
100
AcDbPlotSettings
  1

  2
Adobe PDF
  4
A4
  6

 40
3.175
 41
3.175
 42
3.175
 43
3.175
 44
209.91
 45
297.03
 46
0.0
 47
0.0
 48
0.0
 49
0.0
140
0.0
141
0.0
142
1.0
143
1.0
 70
1024
 72
0
 73
1
 74
5
  7

 75
16
 76
0
 77
2
 78
300
147
1.0
148
0.0
149
0.0
100
AcDbLayout
  1
Model
 70
1
 71
0
 10
-3.175
 20
-3.175
 11
293.857
 21
206.735
 12
0.0
 22
0.0
 32
0.0
 14
29.068
 24
20.356
 34
0.0
 15
261.614
 25
183.204
 35
0.0
146
0.0
 13
0.0
 23
0.0
 33
0.0
 16
1.0
 26
0.0
 36
0.0
 17
0.0
 27
1.0
 37
0.0
 76
1
330
1F
  0
LAYOUT
  5
10065
330
1005B
100
AcDbPlotSettings
  1

  2
Adobe PDF
  4
A4
  6

 40
3.175
 41
3.175
 42
3.175
 43
3.175
 44
209.91
 45
297.03
 46
0.0
 47
0.0
 48
0.0
 49
0.0
140
0.0
141
0.0
142
1.0
143
1.0
 70
0
 72
0
 73
1
 74
5
  7

 75
16
 76
0
 77
2
 78
300
147
1.0
148
0.0
149
0.0
100
AcDbLayout
  1
Layout1
 70
1
 71
1
 10
-3.175
 20
-3.175
 11
293.857
 21
206.735
 12
0.0
 22
0.0
 32
0.0
 14
29.068
 24
20.356
 34
0.0
 15
261.614
 25
183.204
 35
0.0
146
0.0
 13
0.0
 23
0.0
 33
0.0
 16
1.0
 26
0.0
 36
0.0
 17
0.0
 27
1.0
 37
0.0
 76
1
330
1B
  0
MATERIAL
  5
10066
102
{ACAD_REACTORS
330
1005C
102
}
330
1005C
100
AcDbMaterial
  1
ByBlock
  2

 70
0
 40
1.0
 71
1
 41
1.0
 91
-1023410177
 42
1.0
 72
1
  3

 73
1
 74
1
 75
1
 44
0.5
 73
0
 45
1.0
 46
1.0
 77
1
  4

 78
1
 79
1
170
1
 48
1.0
171
1
  6

172
1
173
1
174
1
140
1.0
141
1.0
175
1
  7

176
1
177
1
178
1
143
1.0
179
1
  8

270
1
271
1
272
1
145
1.0
146
1.0
273
1
  9

274
1
275
1
276
1
 42
1.0
 72
1
  3

 73
1
 74
1
 75
1
 94
63
  0
MATERIAL
  5
10067
102
{ACAD_REACTORS
330
1005C
102
}
330
1005C
100
AcDbMaterial
  1
ByLayer
  2

 70
0
 40
1.0
 71
1
 41
1.0
 91
-1023410177
 42
1.0
 72
1
  3

 73
1
 74
1
 75
1
 44
0.5
 73
0
 45
1.0
 46
1.0
 77
1
  4

 78
1
 79
1
170
1
 48
1.0
171
1
  6

172
1
173
1
174
1
140
1.0
141
1.0
175
1
  7

176
1
177
1
178
1
143
1.0
179
1
  8

270
1
271
1
272
1
145
1.0
146
1.0
273
1
  9

274
1
275
1
276
1
 42
1.0
 72
1
  3

 73
1
 74
1
 75
1
 94
63
  0
MATERIAL
  5
10068
102
{ACAD_REACTORS
330
1005C
102
}
330
1005C
100
AcDbMaterial
  1
Global
  2

 70
0
 40
1.0
 71
1
 41
1.0
 91
-1023410177
 42
1.0
 72
1
  3

 73
1
 74
1
 75
1
 44
0.5
 73
0
 45
1.0
 46
1.0
 77
1
  4

 78
1
 79
1
170
1
 48
1.0
171
1
  6

172
1
173
1
174
1
140
1.0
141
1.0
175
1
  7

176
1
177
1
178
1
143
1.0
179
1
  8

270
1
271
1
272
1
145
1.0
146
1.0
273
1
  9

274
1
275
1
276
1
 42
1.0
 72
1
  3

 73
1
 74
1
 75
1
 94
63
  0
MLINESTYLE
  5
10069
102
{ACAD_REACTORS
330
17
102
}
330
17
100
AcDbMlineStyle
  2
Standard
 70
0
  3

 62
256
 51
90.0
 52
90.0
 71
2
 49
0.5
 62
256
  6
BYLAYER
 49
-0.5
 62
256
  6
BYLAYER
  0
MLEADERSTYLE
  5
1006E
102
{ACAD_REACTORS
330
1005D
102
}
330
1005D
100
AcDbMLeaderStyle
179
2
170
2
171
1
172
0
 90
2
 40
0.0
 41
0.0
173
1
 91
-1056964608
 92
-2
290
1
 42
2.0
291
1
 43
8.0
  3
Standard
 44
4.0
300

342
11
174
1
175
1
176
0
178
1
 93
-1056964608
 45
4.0
292
0
297
0
 46
4.0
 94
-1056964608
 47
1.0
 49
1.0
140
1.0
294
1
141
0.0
177
0
142
1.0
295
0
296
0
143
3.75
271
0
272
9
273
9
  0
ENDSEC
  0
EOF
