  0
SECTION
  2
HEADER
  9
$ACADVER
  1
AC1009
  9
$EXTMIN
 10
0.0
 20
0.0
 30
0.0
  9
$EXTMAX
 10
1000.0
 20
1000.0
 30
0.0
  9
$FILLMODE
 70
 0
  9
$SPLFRAME
 70
 1
  0
ENDSEC
  0
SECTION
  2
TABLES
  0
TABLE
  2
LAYER
 70
1
  0
LAYER
  2
0
 70
     0
 62
     7
  6
CONTINUOUS
  0
ENDTAB
  0
ENDSEC
  0
SECTION
  2
ENTITIES
  0
POLYLINE
  8
0
 62
     0
 66
     1
 10
0
 20
0
 30
0.0
 70
     1
 40
0
 41
0
  0
VERTEX
  8
0
 10
17.2568
 20
66.8458
 30
0.0
 40
0
 41
0
  0
VERTEX
  8
0
 10
18.2568
 20
66.8458
 30
0.0
 40
0
 41
0
  0
VERTEX
  8
0
 10
18.2568
 20
62.6794
 30
0.0
 40
0
 41
0
  0
VERTEX
  8
0
 10
17.2568
 20
62.6794
 30
0.0
 40
0
 41
0
  0
VERTEX
  8
0
 10
17.2568
 20
59.8353
 30
0.0
 40
0
 41
0
  0
VERTEX
  8
0
 10
1
 20
59.8353
 30
0.0
 40
0
 41
0
  0
VERTEX
  8
0
 10
1
 20
62.6794
 30
0.0
 40
0
 41
0
  0
VERTEX
  8
0
 10
0
 20
62.6794
 30
0.0
 40
0
 41
0
  0
VERTEX
  8
0
 10
0
 20
66.8458
 30
0.0
 40
0
 41
0
  0
VERTEX
  8
0
 10
1
 20
66.8458
 30
0.0
 40
0
 41
0
  0
VERTEX
  8
0
 10
1
 20
70.8194
 30
0.0
 40
0
 41
0
  0
VERTEX
  8
0
 10
11.7378
 20
70.8194
 30
0.0
 40
0
 41
0
  0
VERTEX
  8
0
 10
11.7378
 20
62.1831
 30
0.0
 40
0
 41
0
  0
VERTEX
  8
0
 10
15.2992
 20
62.1831
 30
0.0
 40
0
 41
0
  0
VERTEX
  8
0
 10
15.2992
 20
70.8194
 30
0.0
 40
0
 41
0
  0
VERTEX
  8
0
 10
17.2568
 20
70.8194
 30
0.0
 40
0
 41
0
  0
VERTEX
  8
0
 10
17.2568
 20
66.8458
 30
0.0
 40
0
 41
0
  0
SEQEND
 8
0
  0
POLYLINE
  8
0
 62
     0
 66
     1
 10
0
 20
0
 30
0.0
 70
     1
 40
0
 41
0
  0
VERTEX
  8
0
 10
3.19933
 20
65.0154
 30
0.0
 40
0
 41
0
  0
VERTEX
  8
0
 10
4.94249
 20
65.0154
 30
0.0
 40
0
 41
0
  0
VERTEX
  8
0
 10
4.94249
 20
62.3631
 30
0.0
 40
0
 41
0
  0
VERTEX
  8
0
 10
3.19933
 20
62.3631
 30
0.0
 40
0
 41
0
  0
VERTEX
  8
0
 10
3.19933
 20
65.0154
 30
0.0
 40
0
 41
0
  0
SEQEND
 8
0
  0
POLYLINE
  8
0
 62
     0
 66
     1
 10
0
 20
0
 30
0.0
 70
     1
 40
0
 41
0
  0
VERTEX
  8
0
 10
13.7114
 20
49.7703
 30
0.0
 40
0
 41
0
  0
VERTEX
  8
0
 10
13.7114
 20
46.8713
 30
0.0
 40
0
 41
0
  0
VERTEX
  8
0
 10
11.9407
 20
45.3854
 30
0.0
 40
0
 41
0
  0
VERTEX
  8
0
 10
12.5834
 20
44.6193
 30
0.0
 40
0
 41
0
  0
VERTEX
  8
0
 10
10.5581
 20
42.9199
 30
0.0
 40
0
 41
0
  0
VERTEX
  8
0
 10
9.91525
 20
43.686
 30
0.0
 40
0
 41
0
  0
VERTEX
  8
0
 10
6.85568
 20
41.1186
 30
0.0
 40
0
 41
0
  0
VERTEX
  8
0
 10
3.79611
 20
43.686
 30
0.0
 40
0
 41
0
  0
VERTEX
  8
0
 10
3.15332
 20
42.9199
 30
0.0
 40
0
 41
0
  0
VERTEX
  8
0
 10
1.12798
 20
44.6193
 30
0.0
 40
0
 41
0
  0
VERTEX
  8
0
 10
1.77078
 20
45.3854
 30
0.0
 40
0
 41
0
  0
VERTEX
  8
0
 10
0
 20
46.8713
 30
0.0
 40
0
 41
0
  0
VERTEX
  8
0
 10
0
 20
49.8574
 30
0.0
 40
0
 41
0
  0
VERTEX
  8
0
 10
1
 20
49.8574
 30
0.0
 40
0
 41
0
  0
VERTEX
  8
0
 10
1
 20
53.7867
 30
0.0
 40
0
 41
0
  0
VERTEX
  8
0
 10
0
 20
53.7867
 30
0.0
 40
0
 41
0
  0
VERTEX
  8
0
 10
0
 20
57.8353
 30
0.0
 40
0
 41
0
  0
VERTEX
  8
0
 10
13.7114
 20
57.8353
 30
0.0
 40
0
 41
0
  0
VERTEX
  8
0
 10
13.7114
 20
53.7867
 30
0.0
 40
0
 41
0
  0
VERTEX
  8
0
 10
12.7114
 20
53.7867
 30
0.0
 40
0
 41
0
  0
VERTEX
  8
0
 10
12.7114
 20
49.7703
 30
0.0
 40
0
 41
0
  0
VERTEX
  8
0
 10
13.7114
 20
49.7703
 30
0.0
 40
0
 41
0
  0
SEQEND
 8
0
  0
POLYLINE
  8
0
 62
     0
 66
     1
 10
0
 20
0
 30
0.0
 70
     1
 40
0
 41
0
  0
VERTEX
  8
0
 10
17.7935
 20
31.8206
 30
0.0
 40
0
 41
0
  0
VERTEX
  8
0
 10
15.2263
 20
28.761
 30
0.0
 40
0
 41
0
  0
VERTEX
  8
0
 10
15.9922
 20
28.1182
 30
0.0
 40
0
 41
0
  0
VERTEX
  8
0
 10
14.2926
 20
26.0928
 30
0.0
 40
0
 41
0
  0
VERTEX
  8
0
 10
13.5267
 20
26.7356
 30
0.0
 40
0
 41
0
  0
VERTEX
  8
0
 10
12.0408
 20
24.9647
 30
0.0
 40
0
 41
0
  0
VERTEX
  8
0
 10
9.14176
 20
24.9647
 30
0.0
 40
0
 41
0
  0
VERTEX
  8
0
 10
9.14176
 20
25.9647
 30
0.0
 40
0
 41
0
  0
VERTEX
  8
0
 10
5.12532
 20
25.9647
 30
0.0
 40
0
 41
0
  0
VERTEX
  8
0
 10
5.12532
 20
24.9647
 30
0.0
 40
0
 41
0
  0
VERTEX
  8
0
 10
1.07671
 20
24.9647
 30
0.0
 40
0
 41
0
  0
VERTEX
  8
0
 10
1.07671
 20
27.0853
 30
0.0
 40
0
 41
0
  0
VERTEX
  8
0
 10
9.7506
 20
27.0853
 30
0.0
 40
0
 41
0
  0
VERTEX
  8
0
 10
9.87158
 20
27.0853
 30
0.0
 40
0
 41
0
  0
VERTEX
  8
0
 10
10.2347
 20
27.1097
 30
0.0
 40
0
 41
0
  0
VERTEX
  8
0
 10
10.7049
 20
27.1815
 30
0.0
 40
0
 41
0
  0
VERTEX
  8
0
 10
11.1587
 20
27.2982
 30
0.0
 40
0
 41
0
  0
VERTEX
  8
0
 10
11.5938
 20
27.4574
 30
0.0
 40
0
 41
0
  0
VERTEX
  8
0
 10
12.0077
 20
27.6568
 30
0.0
 40
0
 41
0
  0
VERTEX
  8
0
 10
12.3981
 20
27.894
 30
0.0
 40
0
 41
0
  0
VERTEX
  8
0
 10
12.7626
 20
28.1667
 30
0.0
 40
0
 41
0
  0
VERTEX
  8
0
 10
13.0989
 20
28.4722
 30
0.0
 40
0
 41
0
  0
VERTEX
  8
0
 10
13.4045
 20
28.8085
 30
0.0
 40
0
 41
0
  0
VERTEX
  8
0
 10
13.6771
 20
29.1731
 30
0.0
 40
0
 41
0
  0
VERTEX
  8
0
 10
13.9143
 20
29.5635
 30
0.0
 40
0
 41
0
  0
VERTEX
  8
0
 10
14.1138
 20
29.9774
 30
0.0
 40
0
 41
0
  0
VERTEX
  8
0
 10
14.2729
 20
30.4125
 30
0.0
 40
0
 41
0
  0
VERTEX
  8
0
 10
14.3896
 20
30.8663
 30
0.0
 40
0
 41
0
  0
VERTEX
  8
0
 10
14.4614
 20
31.3364
 30
0.0
 40
0
 41
0
  0
VERTEX
  8
0
 10
14.4858
 20
31.6996
 30
0.0
 40
0
 41
0
  0
VERTEX
  8
0
 10
14.4858
 20
31.8206
 30
0.0
 40
0
 41
0
  0
VERTEX
  8
0
 10
14.4858
 20
31.9415
 30
0.0
 40
0
 41
0
  0
VERTEX
  8
0
 10
14.4614
 20
32.3047
 30
0.0
 40
0
 41
0
  0
VERTEX
  8
0
 10
14.3896
 20
32.7749
 30
0.0
 40
0
 41
0
  0
VERTEX
  8
0
 10
14.2729
 20
33.2286
 30
0.0
 40
0
 41
0
  0
VERTEX
  8
0
 10
14.1138
 20
33.6638
 30
0.0
 40
0
 41
0
  0
VERTEX
  8
0
 10
13.9143
 20
34.0776
 30
0.0
 40
0
 41
0
  0
VERTEX
  8
0
 10
13.6771
 20
34.4681
 30
0.0
 40
0
 41
0
  0
VERTEX
  8
0
 10
13.4045
 20
34.8326
 30
0.0
 40
0
 41
0
  0
VERTEX
  8
0
 10
13.0989
 20
35.1689
 30
0.0
 40
0
 41
0
  0
VERTEX
  8
0
 10
12.7626
 20
35.4744
 30
0.0
 40
0
 41
0
  0
VERTEX
  8
0
 10
12.3981
 20
35.7471
 30
0.0
 40
0
 41
0
  0
VERTEX
  8
0
 10
12.0077
 20
35.9842
 30
0.0
 40
0
 41
0
  0
VERTEX
  8
0
 10
11.5938
 20
36.1836
 30
0.0
 40
0
 41
0
  0
VERTEX
  8
0
 10
11.1587
 20
36.3429
 30
0.0
 40
0
 41
0
  0
VERTEX
  8
0
 10
10.7049
 20
36.4596
 30
0.0
 40
0
 41
0
  0
VERTEX
  8
0
 10
10.2347
 20
36.5313
 30
0.0
 40
0
 41
0
  0
VERTEX
  8
0
 10
9.87158
 20
36.5557
 30
0.0
 40
0
 41
0
  0
VERTEX
  8
0
 10
9.7506
 20
36.5557
 30
0.0
 40
0
 41
0
  0
VERTEX
  8
0
 10
1.07671
 20
36.5557
 30
0.0
 40
0
 41
0
  0
VERTEX
  8
0
 10
1.07671
 20
38.6762
 30
0.0
 40
0
 41
0
  0
VERTEX
  8
0
 10
5.12532
 20
38.6762
 30
0.0
 40
0
 41
0
  0
VERTEX
  8
0
 10
5.12532
 20
37.6762
 30
0.0
 40
0
 41
0
  0
VERTEX
  8
0
 10
9.05469
 20
37.6762
 30
0.0
 40
0
 41
0
  0
VERTEX
  8
0
 10
9.05469
 20
38.6762
 30
0.0
 40
0
 41
0
  0
VERTEX
  8
0
 10
12.0408
 20
38.6762
 30
0.0
 40
0
 41
0
  0
VERTEX
  8
0
 10
13.5267
 20
36.9054
 30
0.0
 40
0
 41
0
  0
VERTEX
  8
0
 10
14.2926
 20
37.5482
 30
0.0
 40
0
 41
0
  0
VERTEX
  8
0
 10
15.9922
 20
35.5228
 30
0.0
 40
0
 41
0
  0
VERTEX
  8
0
 10
15.2263
 20
34.88
 30
0.0
 40
0
 41
0
  0
VERTEX
  8
0
 10
17.7935
 20
31.8206
 30
0.0
 40
0
 41
0
  0
SEQEND
 8
0
  0
POLYLINE
  8
0
 62
     0
 66
     1
 10
0
 20
0
 30
0.0
 70
     1
 40
0
 41
0
  0
VERTEX
  8
0
 10
22.7219
 20
57.7675
 30
0.0
 40
0
 41
0
  0
VERTEX
  8
0
 10
22.7219
 20
56.7675
 30
0.0
 40
0
 41
0
  0
VERTEX
  8
0
 10
26.6954
 20
56.7675
 30
0.0
 40
0
 41
0
  0
VERTEX
  8
0
 10
26.6954
 20
40.5107
 30
0.0
 40
0
 41
0
  0
VERTEX
  8
0
 10
22.7219
 20
40.5107
 30
0.0
 40
0
 41
0
  0
VERTEX
  8
0
 10
22.7219
 20
39.5107
 30
0.0
 40
0
 41
0
  0
VERTEX
  8
0
 10
18.6425
 20
39.5107
 30
0.0
 40
0
 41
0
  0
VERTEX
  8
0
 10
18.6425
 20
40.5107
 30
0.0
 40
0
 41
0
  0
VERTEX
  8
0
 10
15.7114
 20
40.5107
 30
0.0
 40
0
 41
0
  0
VERTEX
  8
0
 10
15.7114
 20
56.7675
 30
0.0
 40
0
 41
0
  0
VERTEX
  8
0
 10
18.6425
 20
56.7675
 30
0.0
 40
0
 41
0
  0
VERTEX
  8
0
 10
18.6425
 20
57.7675
 30
0.0
 40
0
 41
0
  0
VERTEX
  8
0
 10
22.7219
 20
57.7675
 30
0.0
 40
0
 41
0
  0
SEQEND
 8
0
  0
POLYLINE
  8
0
 62
     0
 66
     1
 10
0
 20
0
 30
0.0
 70
     1
 40
0
 41
0
  0
VERTEX
  8
0
 10
18.239
 20
44.4532
 30
0.0
 40
0
 41
0
  0
VERTEX
  8
0
 10
20.8914
 20
44.4532
 30
0.0
 40
0
 41
0
  0
VERTEX
  8
0
 10
20.8914
 20
42.71
 30
0.0
 40
0
 41
0
  0
VERTEX
  8
0
 10
18.239
 20
42.71
 30
0.0
 40
0
 41
0
  0
VERTEX
  8
0
 10
18.239
 20
44.4532
 30
0.0
 40
0
 41
0
  0
SEQEND
 8
0
  0
POLYLINE
  8
0
 62
     0
 66
     1
 10
0
 20
0
 30
0.0
 70
     1
 40
0
 41
0
  0
VERTEX
  8
0
 10
0.0352647
 20
16.5643
 30
0.0
 40
0
 41
0
  0
VERTEX
  8
0
 10
1.03527
 20
16.5643
 30
0.0
 40
0
 41
0
  0
VERTEX
  8
0
 10
1.03527
 20
19.0582
 30
0.0
 40
0
 41
0
  0
VERTEX
  8
0
 10
0.0352647
 20
19.0582
 30
0.0
 40
0
 41
0
  0
VERTEX
  8
0
 10
0.0352647
 20
22.9647
 30
0.0
 40
0
 41
0
  0
VERTEX
  8
0
 10
18.2921
 20
22.9647
 30
0.0
 40
0
 41
0
  0
VERTEX
  8
0
 10
18.2921
 20
19.0582
 30
0.0
 40
0
 41
0
  0
VERTEX
  8
0
 10
17.2921
 20
19.0582
 30
0.0
 40
0
 41
0
  0
VERTEX
  8
0
 10
17.2921
 20
16.5643
 30
0.0
 40
0
 41
0
  0
VERTEX
  8
0
 10
18.2921
 20
16.5643
 30
0.0
 40
0
 41
0
  0
VERTEX
  8
0
 10
18.2921
 20
12.4893
 30
0.0
 40
0
 41
0
  0
VERTEX
  8
0
 10
0.0352647
 20
12.4893
 30
0.0
 40
0
 41
0
  0
VERTEX
  8
0
 10
0.0352647
 20
16.5643
 30
0.0
 40
0
 41
0
  0
SEQEND
 8
0
  0
POLYLINE
  8
0
 62
     0
 66
     1
 10
0
 20
0
 30
0.0
 70
     1
 40
0
 41
0
  0
VERTEX
  8
0
 10
18.2924
 20
6.41428
 30
0.0
 40
0
 41
0
  0
VERTEX
  8
0
 10
17.2924
 20
6.41428
 30
0.0
 40
0
 41
0
  0
VERTEX
  8
0
 10
17.2924
 20
3.92036
 30
0.0
 40
0
 41
0
  0
VERTEX
  8
0
 10
18.2924
 20
3.92036
 30
0.0
 40
0
 41
0
  0
VERTEX
  8
0
 10
18.2924
 20
0.0137804
 30
0.0
 40
0
 41
0
  0
VERTEX
  8
0
 10
0.0355903
 20
0.0137804
 30
0.0
 40
0
 41
0
  0
VERTEX
  8
0
 10
0.0355903
 20
3.92036
 30
0.0
 40
0
 41
0
  0
VERTEX
  8
0
 10
1.03559
 20
3.92036
 30
0.0
 40
0
 41
0
  0
VERTEX
  8
0
 10
1.03559
 20
6.41428
 30
0.0
 40
0
 41
0
  0
VERTEX
  8
0
 10
0.0355903
 20
6.41428
 30
0.0
 40
0
 41
0
  0
VERTEX
  8
0
 10
0.0355903
 20
10.4893
 30
0.0
 40
0
 41
0
  0
VERTEX
  8
0
 10
18.2924
 20
10.4893
 30
0.0
 40
0
 41
0
  0
VERTEX
  8
0
 10
18.2924
 20
6.41428
 30
0.0
 40
0
 41
0
  0
SEQEND
 8
0
  0
POLYLINE
  8
0
 62
     0
 66
     1
 10
0
 20
0
 30
0.0
 70
     1
 40
0
 41
0
  0
VERTEX
  8
0
 10
25.1788
 20
12.8436
 30
0.0
 40
0
 41
0
  0
VERTEX
  8
0
 10
25.1788
 20
11.0292
 30
0.0
 40
0
 41
0
  0
VERTEX
  8
0
 10
24.1788
 20
11.0292
 30
0.0
 40
0
 41
0
  0
VERTEX
  8
0
 10
24.1788
 20
9.10428
 30
0.0
 40
0
 41
0
  0
VERTEX
  8
0
 10
25.1788
 20
9.10428
 30
0.0
 40
0
 41
0
  0
VERTEX
  8
0
 10
25.1788
 20
6.26753
 30
0.0
 40
0
 41
0
  0
VERTEX
  8
0
 10
24.1788
 20
6.26753
 30
0.0
 40
0
 41
0
  0
VERTEX
  8
0
 10
24.1788
 20
4.54313
 30
0.0
 40
0
 41
0
  0
VERTEX
  8
0
 10
25.1788
 20
4.54313
 30
0.0
 40
0
 41
0
  0
VERTEX
  8
0
 10
25.1788
 20
2.84158
 30
0.0
 40
0
 41
0
  0
VERTEX
  8
0
 10
23.9786
 20
2.84158
 30
0.0
 40
0
 41
0
  0
VERTEX
  8
0
 10
23.9786
 20
1.84158
 30
0.0
 40
0
 41
0
  0
VERTEX
  8
0
 10
21.9037
 20
1.84158
 30
0.0
 40
0
 41
0
  0
VERTEX
  8
0
 10
21.9037
 20
2.84158
 30
0.0
 40
0
 41
0
  0
VERTEX
  8
0
 10
20.5582
 20
2.84158
 30
0.0
 40
0
 41
0
  0
VERTEX
  8
0
 10
20.5582
 20
10.9954
 30
0.0
 40
0
 41
0
  0
VERTEX
  8
0
 10
21.8729
 20
11.5213
 30
0.0
 40
0
 41
0
  0
VERTEX
  8
0
 10
21.5015
 20
12.4498
 30
0.0
 40
0
 41
0
  0
VERTEX
  8
0
 10
23.4138
 20
13.2147
 30
0.0
 40
0
 41
0
  0
VERTEX
  8
0
 10
23.7853
 20
12.2862
 30
0.0
 40
0
 41
0
  0
VERTEX
  8
0
 10
25.1788
 20
12.8436
 30
0.0
 40
0
 41
0
  0
SEQEND
 8
0
  0
POLYLINE
  8
0
 62
     0
 66
     1
 10
0
 20
0
 30
0.0
 70
     1
 40
0
 41
0
  0
VERTEX
  8
0
 10
21.5501
 20
19.1475
 30
0.0
 40
0
 41
0
  0
VERTEX
  8
0
 10
21.5501
 20
21.0571
 30
0.0
 40
0
 41
0
  0
VERTEX
  8
0
 10
20.5501
 20
21.0571
 30
0.0
 40
0
 41
0
  0
VERTEX
  8
0
 10
20.5501
 20
23.6151
 30
0.0
 40
0
 41
0
  0
VERTEX
  8
0
 10
24.716
 20
23.6151
 30
0.0
 40
0
 41
0
  0
VERTEX
  8
0
 10
24.716
 20
21.0571
 30
0.0
 40
0
 41
0
  0
VERTEX
  8
0
 10
23.716
 20
21.0571
 30
0.0
 40
0
 41
0
  0
VERTEX
  8
0
 10
23.716
 20
19.1475
 30
0.0
 40
0
 41
0
  0
VERTEX
  8
0
 10
24.716
 20
19.1475
 30
0.0
 40
0
 41
0
  0
VERTEX
  8
0
 10
24.716
 20
16.6444
 30
0.0
 40
0
 41
0
  0
VERTEX
  8
0
 10
20.5501
 20
16.6444
 30
0.0
 40
0
 41
0
  0
VERTEX
  8
0
 10
20.5501
 20
19.1475
 30
0.0
 40
0
 41
0
  0
VERTEX
  8
0
 10
21.5501
 20
19.1475
 30
0.0
 40
0
 41
0
  0
SEQEND
 8
0
  0
POLYLINE
  8
0
 62
     0
 66
     1
 10
0
 20
0
 30
0.0
 70
     1
 40
0
 41
0
  0
VERTEX
  8
0
 10
22.5379
 20
35.6299
 30
0.0
 40
0
 41
0
  0
VERTEX
  8
0
 10
22.5379
 20
37.2564
 30
0.0
 40
0
 41
0
  0
VERTEX
  8
0
 10
24.7039
 20
37.2564
 30
0.0
 40
0
 41
0
  0
VERTEX
  8
0
 10
24.7039
 20
35.6299
 30
0.0
 40
0
 41
0
  0
VERTEX
  8
0
 10
25.7039
 20
35.6299
 30
0.0
 40
0
 41
0
  0
VERTEX
  8
0
 10
25.7039
 20
33.7554
 30
0.0
 40
0
 41
0
  0
VERTEX
  8
0
 10
24.7039
 20
33.7554
 30
0.0
 40
0
 41
0
  0
VERTEX
  8
0
 10
24.7039
 20
31.0687
 30
0.0
 40
0
 41
0
  0
VERTEX
  8
0
 10
25.7039
 20
31.0687
 30
0.0
 40
0
 41
0
  0
VERTEX
  8
0
 10
25.7039
 20
28.9936
 30
0.0
 40
0
 41
0
  0
VERTEX
  8
0
 10
24.7039
 20
28.9936
 30
0.0
 40
0
 41
0
  0
VERTEX
  8
0
 10
24.7039
 20
27.7722
 30
0.0
 40
0
 41
0
  0
VERTEX
  8
0
 10
22.5379
 20
27.7722
 30
0.0
 40
0
 41
0
  0
VERTEX
  8
0
 10
22.5379
 20
28.9936
 30
0.0
 40
0
 41
0
  0
VERTEX
  8
0
 10
21.5379
 20
28.9936
 30
0.0
 40
0
 41
0
  0
VERTEX
  8
0
 10
21.5379
 20
31.0687
 30
0.0
 40
0
 41
0
  0
VERTEX
  8
0
 10
22.5379
 20
31.0687
 30
0.0
 40
0
 41
0
  0
VERTEX
  8
0
 10
22.5379
 20
33.7554
 30
0.0
 40
0
 41
0
  0
VERTEX
  8
0
 10
21.5379
 20
33.7554
 30
0.0
 40
0
 41
0
  0
VERTEX
  8
0
 10
21.5379
 20
35.6299
 30
0.0
 40
0
 41
0
  0
VERTEX
  8
0
 10
22.5379
 20
35.6299
 30
0.0
 40
0
 41
0
  0
SEQEND
 8
0
  0
POLYLINE
  8
0
 62
     0
 66
     1
 10
0
 20
0
 30
0.0
 70
     1
 40
0
 41
0
  0
VERTEX
  8
0
 10
27.0032
 20
69.611
 30
0.0
 40
0
 41
0
  0
VERTEX
  8
0
 10
27.0032
 20
67.9094
 30
0.0
 40
0
 41
0
  0
VERTEX
  8
0
 10
26.0032
 20
67.9094
 30
0.0
 40
0
 41
0
  0
VERTEX
  8
0
 10
26.0032
 20
66.185
 30
0.0
 40
0
 41
0
  0
VERTEX
  8
0
 10
27.0032
 20
66.185
 30
0.0
 40
0
 41
0
  0
VERTEX
  8
0
 10
27.0032
 20
63.3483
 30
0.0
 40
0
 41
0
  0
VERTEX
  8
0
 10
26.0032
 20
63.3483
 30
0.0
 40
0
 41
0
  0
VERTEX
  8
0
 10
26.0032
 20
61.4233
 30
0.0
 40
0
 41
0
  0
VERTEX
  8
0
 10
27.0032
 20
61.4233
 30
0.0
 40
0
 41
0
  0
VERTEX
  8
0
 10
27.0032
 20
59.609
 30
0.0
 40
0
 41
0
  0
VERTEX
  8
0
 10
25.6097
 20
60.1664
 30
0.0
 40
0
 41
0
  0
VERTEX
  8
0
 10
25.2383
 20
59.2379
 30
0.0
 40
0
 41
0
  0
VERTEX
  8
0
 10
23.3261
 20
60.0029
 30
0.0
 40
0
 41
0
  0
VERTEX
  8
0
 10
23.6974
 20
60.9312
 30
0.0
 40
0
 41
0
  0
VERTEX
  8
0
 10
22.3828
 20
61.4572
 30
0.0
 40
0
 41
0
  0
VERTEX
  8
0
 10
22.3828
 20
69.611
 30
0.0
 40
0
 41
0
  0
VERTEX
  8
0
 10
23.7282
 20
69.611
 30
0.0
 40
0
 41
0
  0
VERTEX
  8
0
 10
23.7282
 20
70.611
 30
0.0
 40
0
 41
0
  0
VERTEX
  8
0
 10
25.8032
 20
70.611
 30
0.0
 40
0
 41
0
  0
VERTEX
  8
0
 10
25.8032
 20
69.611
 30
0.0
 40
0
 41
0
  0
VERTEX
  8
0
 10
27.0032
 20
69.611
 30
0.0
 40
0
 41
0
  0
SEQEND
 8
0
  0
POLYLINE
  8
0
 62
     0
 66
     1
 10
0
 20
0
 30
0.0
 70
     1
 40
0
 41
0
  0
VERTEX
  8
0
 10
4.87446
 20
30.1761
 30
0.0
 40
0
 41
0
  0
VERTEX
  8
0
 10
3.454
 20
30.1761
 30
0.0
 40
0
 41
0
  0
VERTEX
  8
0
 10
3.454
 20
31.1761
 30
0.0
 40
0
 41
0
  0
VERTEX
  8
0
 10
1.52903
 20
31.1761
 30
0.0
 40
0
 41
0
  0
VERTEX
  8
0
 10
1.52903
 20
30.1761
 30
0.0
 40
0
 41
0
  0
VERTEX
  8
0
 10
0.254015
 20
30.1761
 30
0.0
 40
0
 41
0
  0
VERTEX
  8
0
 10
0.254015
 20
34.3421
 30
0.0
 40
0
 41
0
  0
VERTEX
  8
0
 10
1.52903
 20
34.3421
 30
0.0
 40
0
 41
0
  0
VERTEX
  8
0
 10
1.52903
 20
33.3421
 30
0.0
 40
0
 41
0
  0
VERTEX
  8
0
 10
3.454
 20
33.3421
 30
0.0
 40
0
 41
0
  0
VERTEX
  8
0
 10
3.454
 20
34.3421
 30
0.0
 40
0
 41
0
  0
VERTEX
  8
0
 10
4.87446
 20
34.3421
 30
0.0
 40
0
 41
0
  0
VERTEX
  8
0
 10
4.87446
 20
30.1761
 30
0.0
 40
0
 41
0
  0
SEQEND
 8
0
  0
ENDSEC
  0
EOF
