  0
SECTION
  2
HEADER
  9
$ACADVER
  1
AC1015
  9
$ACADMAINTVER
 70
6
  9
$DWGCODEPAGE
  3
ANSI_1252
  9
$TDCREATE
 40
2459447.614675926
  9
$TDUPDATE
 40
2459447.6146875
  9
$HANDSEED
  5
101BB
  9
$INSUNITS
 70
4
  9
$FINGERPRINTGUID
  2
7384B0F4-01B4-11EC-AE52-406C8F433790
  9
$VERSIONGUID
  2
7433DB42-01B4-11EC-AE52-406C8F433790
  0
ENDSEC
  0
SECTION
  2
CLASSES
  0
CLASS
  1
ACDBDICTIONARYWDFLT
  2
AcDbDictionaryWithDefault
  3
ObjectDBX Classes
 90
0
280
0
281
0
  0
CLASS
  1
SUN
  2
AcDbSun
  3
SCENEOE
 90
1153
280
0
281
0
  0
CLASS
  1
VISUALSTYLE
  2
AcDbVisualStyle
  3
ObjectDBX Classes
 90
4095
280
0
281
0
  0
CLASS
  1
MATERIAL
  2
AcDbMaterial
  3
ObjectDBX Classes
 90
1153
280
0
281
0
  0
CLASS
  1
SCALE
  2
AcDbScale
  3
ObjectDBX Classes
 90
1153
280
0
281
0
  0
CLASS
  1
TABLESTYLE
  2
AcDbTableStyle
  3
ObjectDBX Classes
 90
4095
280
0
281
0
  0
CLASS
  1
MLEADERSTYLE
  2
AcDbMLeaderStyle
  3
ACDB_MLEADERSTYLE_CLASS
 90
4095
280
0
281
0
  0
CLASS
  1
DICTIONARYVAR
  2
AcDbDictionaryVar
  3
ObjectDBX Classes
 90
0
280
0
281
0
  0
CLASS
  1
CELLSTYLEMAP
  2
AcDbCellStyleMap
  3
ObjectDBX Classes
 90
1152
280
0
281
0
  0
CLASS
  1
MENTALRAYRENDERSETTINGS
  2
AcDbMentalRayRenderSettings
  3
SCENEOE
 90
1024
280
0
281
0
  0
CLASS
  1
ACDBDETAILVIEWSTYLE
  2
AcDbDetailViewStyle
  3
ObjectDBX Classes
 90
1025
280
0
281
0
  0
CLASS
  1
ACDBSECTIONVIEWSTYLE
  2
AcDbSectionViewStyle
  3
ObjectDBX Classes
 90
1025
280
0
281
0
  0
CLASS
  1
RASTERVARIABLES
  2
AcDbRasterVariables
  3
ISM
 90
0
280
0
281
0
  0
CLASS
  1
ACDBPLACEHOLDER
  2
AcDbPlaceHolder
  3
ObjectDBX Classes
 90
0
280
0
281
0
  0
CLASS
  1
LAYOUT
  2
AcDbLayout
  3
ObjectDBX Classes
 90
0
280
0
281
0
  0
ENDSEC
  0
SECTION
  2
TABLES
  0
TABLE
  2
VPORT
  5
8
330
0
100
AcDbSymbolTable
 70
1
  0
VPORT
  5
1006A
330
8
100
AcDbSymbolTableRecord
100
AcDbViewportTableRecord
  2
*Active
 70
0
 10
0.0
 20
0.0
 11
1.0
 21
1.0
 12
70.0
 22
50.0
 13
0.0
 23
0.0
 14
0.5
 24
0.5
 15
0.5
 25
0.5
 16
0.0
 26
0.0
 36
1.0
 17
0.0
 27
0.0
 37
0.0
 40
1.0
 41
1.34
 42
50.0
 43
0.0
 44
0.0
 50
0.0
 51
0.0
 71
0
 72
1000
 73
1
 74
3
 75
0
 76
0
 77
0
 78
0
281
0
 65
0
146
0.0
  0
ENDTAB
  0
TABLE
  2
LTYPE
  5
5
330
0
100
AcDbSymbolTable
 70
3
  0
LTYPE
  5
1006B
330
5
100
AcDbSymbolTableRecord
100
AcDbLinetypeTableRecord
  2
Continuous
 70
0
  3

 72
65
 73
0
 40
0.0
  0
ENDTAB
  0
TABLE
  2
LAYER
  5
2
330
0
100
AcDbSymbolTable
 70
2
  0
LAYER
  5
50
330
2
100
AcDbSymbolTableRecord
100
AcDbLayerTableRecord
  2
0
 70
0
 62
7
  6
CONTINUOUS
370
-3
390
10060
  0
LAYER
  5
1006C
330
2
100
AcDbSymbolTableRecord
100
AcDbLayerTableRecord
  2
Defpoints
 70
0
 62
7
  6
Continuous
290
0
370
-3
390
10060
  0
ENDTAB
  0
TABLE
  2
STYLE
  5
3
330
0
100
AcDbSymbolTable
 70
1
  0
STYLE
  5
11
330
3
100
AcDbSymbolTableRecord
100
AcDbTextStyleTableRecord
  2
STANDARD
 70
0
 40
0.0
 41
1.0
 50
0.0
 71
0
 42
2.5
  3
txt
  4

  0
ENDTAB
  0
TABLE
  2
VIEW
  5
6
330
0
100
AcDbSymbolTable
 70
0
  0
ENDTAB
  0
TABLE
  2
UCS
  5
7
330
0
100
AcDbSymbolTable
 70
0
  0
ENDTAB
  0
TABLE
  2
APPID
  5
9
330
0
100
AcDbSymbolTable
 70
2
  0
APPID
  5
12
330
9
100
AcDbSymbolTableRecord
100
AcDbRegAppTableRecord
  2
ACAD
 70
0
  0
APPID
  5
101BA
330
9
100
AcDbSymbolTableRecord
100
AcDbRegAppTableRecord
  2
HATCHBACKGROUNDCOLOR
 70
0
  0
ENDTAB
  0
TABLE
  2
DIMSTYLE
  5
A
330
0
100
AcDbSymbolTable
 70
1
100
AcDbDimStyleTable
  0
DIMSTYLE
105
1006D
330
A
100
AcDbSymbolTableRecord
100
AcDbDimStyleTableRecord
  2
Standard
 70
0
  3

  4

 40
1.0
 41
2.5
 42
0.625
 43
3.75
 44
1.25
 45
0.0
 46
0.0
 47
0.0
 48
0.0
140
2.5
141
2.5
142
0.0
143
0.03937007874
144
1.0
145
0.0
146
1.0
147
0.625
148
0.0
 71
0
 72
0
 73
0
 74
0
 75
0
 76
0
 77
1
 78
8
 79
0
170
0
171
3
172
1
173
0
174
0
175
0
176
0
177
0
178
0
179
0
271
0
272
2
273
2
274
3
275
0
276
0
277
2
278
44
279
0
280
0
281
0
282
0
283
0
284
8
285
0
286
0
288
0
289
3
371
-2
372
-2
  0
ENDTAB
  0
TABLE
  2
BLOCK_RECORD
  5
1
330
0
100
AcDbSymbolTable
 70
22
  0
BLOCK_RECORD
  5
1F
330
1
100
AcDbSymbolTableRecord
100
AcDbBlockTableRecord
  2
*MODEL_SPACE
340
10064
  0
BLOCK_RECORD
  5
1B
330
1
100
AcDbSymbolTableRecord
100
AcDbBlockTableRecord
  2
*PAPER_SPACE
340
10065
  0
BLOCK_RECORD
  5
FFFF
330
1
100
AcDbSymbolTableRecord
100
AcDbBlockTableRecord
  2
_CLOSEDFILLED
340
0
  0
BLOCK_RECORD
  5
10003
330
1
100
AcDbSymbolTableRecord
100
AcDbBlockTableRecord
  2
_CLOSED
340
0
  0
BLOCK_RECORD
  5
10008
330
1
100
AcDbSymbolTableRecord
100
AcDbBlockTableRecord
  2
_OPEN30
340
0
  0
BLOCK_RECORD
  5
1000D
330
1
100
AcDbSymbolTableRecord
100
AcDbBlockTableRecord
  2
_BOXBLANK
340
0
  0
BLOCK_RECORD
  5
10012
330
1
100
AcDbSymbolTableRecord
100
AcDbBlockTableRecord
  2
_DOTSMALL
340
0
  0
BLOCK_RECORD
  5
10016
330
1
100
AcDbSymbolTableRecord
100
AcDbBlockTableRecord
  2
_ORIGIN
340
0
  0
BLOCK_RECORD
  5
1001B
330
1
100
AcDbSymbolTableRecord
100
AcDbBlockTableRecord
  2
_NONE
340
0
  0
BLOCK_RECORD
  5
1001E
330
1
100
AcDbSymbolTableRecord
100
AcDbBlockTableRecord
  2
_OPEN
340
0
  0
BLOCK_RECORD
  5
10023
330
1
100
AcDbSymbolTableRecord
100
AcDbBlockTableRecord
  2
_ORIGIN2
340
0
  0
BLOCK_RECORD
  5
10029
330
1
100
AcDbSymbolTableRecord
100
AcDbBlockTableRecord
  2
_SMALL
340
0
  0
BLOCK_RECORD
  5
1002D
330
1
100
AcDbSymbolTableRecord
100
AcDbBlockTableRecord
  2
_OBLIQUE
340
0
  0
BLOCK_RECORD
  5
10031
330
1
100
AcDbSymbolTableRecord
100
AcDbBlockTableRecord
  2
_CLOSEDBLANK
340
0
  0
BLOCK_RECORD
  5
10035
330
1
100
AcDbSymbolTableRecord
100
AcDbBlockTableRecord
  2
_DOT
340
0
  0
BLOCK_RECORD
  5
1003A
330
1
100
AcDbSymbolTableRecord
100
AcDbBlockTableRecord
  2
_ARCHTICK
340
0
  0
BLOCK_RECORD
  5
1003E
330
1
100
AcDbSymbolTableRecord
100
AcDbBlockTableRecord
  2
_OPEN90
340
0
  0
BLOCK_RECORD
  5
10043
330
1
100
AcDbSymbolTableRecord
100
AcDbBlockTableRecord
  2
_DATUMBLANK
340
0
  0
BLOCK_RECORD
  5
10047
330
1
100
AcDbSymbolTableRecord
100
AcDbBlockTableRecord
  2
_INTEGRAL
340
0
  0
BLOCK_RECORD
  5
1004C
330
1
100
AcDbSymbolTableRecord
100
AcDbBlockTableRecord
  2
_DATUMFILLED
340
0
  0
BLOCK_RECORD
  5
10050
330
1
100
AcDbSymbolTableRecord
100
AcDbBlockTableRecord
  2
_BOXFILLED
340
0
  0
BLOCK_RECORD
  5
10055
330
1
100
AcDbSymbolTableRecord
100
AcDbBlockTableRecord
  2
_DOTBLANK
340
0
  0
ENDTAB
  0
ENDSEC
  0
SECTION
  2
BLOCKS
  0
BLOCK
  5
20
330
1F
100
AcDbEntity
  8
0
100
AcDbBlockBegin
  2
*MODEL_SPACE
 70
0
 10
0.0
 20
0.0
 30
0.0
  3
*MODEL_SPACE
  1

  0
ENDBLK
  5
21
330
1F
100
AcDbEntity
  8
0
100
AcDbBlockEnd
  0
BLOCK
  5
1C
330
1B
100
AcDbEntity
  8
0
100
AcDbBlockBegin
  2
*PAPER_SPACE
 70
0
 10
0.0
 20
0.0
 30
0.0
  3
*PAPER_SPACE
  1

  0
ENDBLK
  5
1D
330
1B
100
AcDbEntity
  8
0
100
AcDbBlockEnd
  0
BLOCK
  5
10000
330
FFFF
100
AcDbEntity
  8
0
100
AcDbBlockBegin
  2
_CLOSEDFILLED
 70
0
 10
0.0
 20
0.0
 30
0.0
  3
_CLOSEDFILLED
  1

  0
SOLID
  5
10002
330
FFFF
100
AcDbEntity
  8
0
  6
BYBLOCK
 62
0
100
AcDbTrace
 10
-1.0
 20
0.1643989837240255
 30
0.0
 11
0.0
 21
0.0
 31
0.0
 12
-1.0
 22
-0.1643989837240255
 32
0.0
 13
-1.0
 23
-0.1643989837240255
 33
0.0
  0
ENDBLK
  5
10001
330
FFFF
100
AcDbEntity
  8
0
100
AcDbBlockEnd
  0
BLOCK
  5
10004
330
10003
100
AcDbEntity
  8
0
100
AcDbBlockBegin
  2
_CLOSED
 70
0
 10
0.0
 20
0.0
 30
0.0
  3
_CLOSED
  1

  0
LWPOLYLINE
  5
10006
330
10003
100
AcDbEntity
  8
0
  6
BYBLOCK
 62
0
100
AcDbPolyline
 90
3
 70
1
 10
-1.0
 20
0.1643989837240255
 10
0.0
 20
0.0
 10
-1.0
 20
-0.1643989837240255
  0
LINE
  5
10007
330
10003
100
AcDbEntity
  8
0
  6
BYBLOCK
 62
0
100
AcDbLine
 10
0.0
 20
0.0
 30
0.0
 11
-1.0
 21
0.0
 31
0.0
  0
ENDBLK
  5
10005
330
10003
100
AcDbEntity
  8
0
100
AcDbBlockEnd
  0
BLOCK
  5
10009
330
10008
100
AcDbEntity
  8
0
100
AcDbBlockBegin
  2
_OPEN30
 70
0
 10
0.0
 20
0.0
 30
0.0
  3
_OPEN30
  1

  0
LWPOLYLINE
  5
1000B
330
10008
100
AcDbEntity
  8
0
  6
BYBLOCK
 62
0
100
AcDbPolyline
 90
3
 70
0
 10
-0.9999999999999999
 20
0.2588190451025208
 10
0.0
 20
0.0
 10
-0.9999999999999999
 20
-0.2588190451025208
  0
LINE
  5
1000C
330
10008
100
AcDbEntity
  8
0
  6
BYBLOCK
 62
0
100
AcDbLine
 10
0.0
 20
0.0
 30
0.0
 11
-1.0
 21
1.2246467991473532e-16
 31
0.0
  0
ENDBLK
  5
1000A
330
10008
100
AcDbEntity
  8
0
100
AcDbBlockEnd
  0
BLOCK
  5
1000E
330
1000D
100
AcDbEntity
  8
0
100
AcDbBlockBegin
  2
_BOXBLANK
 70
0
 10
0.0
 20
0.0
 30
0.0
  3
_BOXBLANK
  1

  0
LWPOLYLINE
  5
10010
330
1000D
100
AcDbEntity
  8
0
  6
BYBLOCK
 62
0
100
AcDbPolyline
 90
4
 70
1
 10
-0.5
 20
-0.5000000000000001
 10
0.5000000000000001
 20
-0.5
 10
0.5000000000000001
 20
0.5
 10
-0.5
 20
0.5000000000000001
  0
LINE
  5
10011
330
1000D
100
AcDbEntity
  8
0
  6
BYBLOCK
 62
0
100
AcDbLine
 10
-0.5
 20
6.123233995736766e-17
 30
0.0
 11
-1.0
 21
1.2246467991473532e-16
 31
0.0
  0
ENDBLK
  5
1000F
330
1000D
100
AcDbEntity
  8
0
100
AcDbBlockEnd
  0
BLOCK
  5
10013
330
10012
100
AcDbEntity
  8
0
100
AcDbBlockBegin
  2
_DOTSMALL
 70
0
 10
0.0
 20
0.0
 30
0.0
  3
_DOTSMALL
  1

  0
LWPOLYLINE
  5
10015
330
10012
100
AcDbEntity
  8
0
  6
BYBLOCK
 62
0
100
AcDbPolyline
 90
2
 70
1
 43
0.125
 10
-0.0625
 20
0.0
 42
1.0
 10
0.0625
 20
0.0
 42
1.0
  0
ENDBLK
  5
10014
330
10012
100
AcDbEntity
  8
0
100
AcDbBlockEnd
  0
BLOCK
  5
10017
330
10016
100
AcDbEntity
  8
0
100
AcDbBlockBegin
  2
_ORIGIN
 70
0
 10
0.0
 20
0.0
 30
0.0
  3
_ORIGIN
  1

  0
CIRCLE
  5
10019
330
10016
100
AcDbEntity
  8
0
  6
BYBLOCK
 62
0
100
AcDbCircle
 10
0.0
 20
0.0
 30
0.0
 40
0.5
  0
LINE
  5
1001A
330
10016
100
AcDbEntity
  8
0
  6
BYBLOCK
 62
0
100
AcDbLine
 10
0.0
 20
0.0
 30
0.0
 11
-1.0
 21
1.2246467991473532e-16
 31
0.0
  0
ENDBLK
  5
10018
330
10016
100
AcDbEntity
  8
0
100
AcDbBlockEnd
  0
BLOCK
  5
1001C
330
1001B
100
AcDbEntity
  8
0
100
AcDbBlockBegin
  2
_NONE
 70
0
 10
0.0
 20
0.0
 30
0.0
  3
_NONE
  1

  0
ENDBLK
  5
1001D
330
1001B
100
AcDbEntity
  8
0
100
AcDbBlockEnd
  0
BLOCK
  5
1001F
330
1001E
100
AcDbEntity
  8
0
100
AcDbBlockBegin
  2
_OPEN
 70
0
 10
0.0
 20
0.0
 30
0.0
  3
_OPEN
  1

  0
LWPOLYLINE
  5
10021
330
1001E
100
AcDbEntity
  8
0
  6
BYBLOCK
 62
0
100
AcDbPolyline
 90
3
 70
0
 10
-1.0
 20
0.1643989837240255
 10
0.0
 20
0.0
 10
-1.0
 20
-0.1643989837240255
  0
LINE
  5
10022
330
1001E
100
AcDbEntity
  8
0
  6
BYBLOCK
 62
0
100
AcDbLine
 10
0.0
 20
0.0
 30
0.0
 11
-1.0
 21
1.2246467991473532e-16
 31
0.0
  0
ENDBLK
  5
10020
330
1001E
100
AcDbEntity
  8
0
100
AcDbBlockEnd
  0
BLOCK
  5
10024
330
10023
100
AcDbEntity
  8
0
100
AcDbBlockBegin
  2
_ORIGIN2
 70
0
 10
0.0
 20
0.0
 30
0.0
  3
_ORIGIN2
  1

  0
CIRCLE
  5
10026
330
10023
100
AcDbEntity
  8
0
  6
BYBLOCK
 62
0
100
AcDbCircle
 10
0.0
 20
0.0
 30
0.0
 40
0.5
  0
CIRCLE
  5
10027
330
10023
100
AcDbEntity
  8
0
  6
BYBLOCK
 62
0
100
AcDbCircle
 10
0.0
 20
0.0
 30
0.0
 40
0.25
  0
LINE
  5
10028
330
10023
100
AcDbEntity
  8
0
  6
BYBLOCK
 62
0
100
AcDbLine
 10
-0.5
 20
6.123233995736766e-17
 30
0.0
 11
-1.0
 21
1.2246467991473532e-16
 31
0.0
  0
ENDBLK
  5
10025
330
10023
100
AcDbEntity
  8
0
100
AcDbBlockEnd
  0
BLOCK
  5
1002A
330
10029
100
AcDbEntity
  8
0
100
AcDbBlockBegin
  2
_SMALL
 70
0
 10
0.0
 20
0.0
 30
0.0
  3
_SMALL
  1

  0
CIRCLE
  5
1002C
330
10029
100
AcDbEntity
  8
0
  6
BYBLOCK
 62
0
100
AcDbCircle
 10
0.0
 20
0.0
 30
0.0
 40
0.25
  0
ENDBLK
  5
1002B
330
10029
100
AcDbEntity
  8
0
100
AcDbBlockEnd
  0
BLOCK
  5
1002E
330
1002D
100
AcDbEntity
  8
0
100
AcDbBlockBegin
  2
_OBLIQUE
 70
0
 10
0.0
 20
0.0
 30
0.0
  3
_OBLIQUE
  1

  0
LINE
  5
10030
330
1002D
100
AcDbEntity
  8
0
  6
BYBLOCK
 62
0
100
AcDbLine
 10
-0.5
 20
-0.5000000000000001
 30
0.0
 11
0.5000000000000001
 21
0.5
 31
0.0
  0
ENDBLK
  5
1002F
330
1002D
100
AcDbEntity
  8
0
100
AcDbBlockEnd
  0
BLOCK
  5
10032
330
10031
100
AcDbEntity
  8
0
100
AcDbBlockBegin
  2
_CLOSEDBLANK
 70
0
 10
0.0
 20
0.0
 30
0.0
  3
_CLOSEDBLANK
  1

  0
LWPOLYLINE
  5
10034
330
10031
100
AcDbEntity
  8
0
  6
BYBLOCK
 62
0
100
AcDbPolyline
 90
3
 70
1
 10
-1.0
 20
0.1643989837240255
 10
0.0
 20
0.0
 10
-1.0
 20
-0.1643989837240255
  0
ENDBLK
  5
10033
330
10031
100
AcDbEntity
  8
0
100
AcDbBlockEnd
  0
BLOCK
  5
10036
330
10035
100
AcDbEntity
  8
0
100
AcDbBlockBegin
  2
_DOT
 70
0
 10
0.0
 20
0.0
 30
0.0
  3
_DOT
  1

  0
LINE
  5
10038
330
10035
100
AcDbEntity
  8
0
  6
BYBLOCK
 62
0
100
AcDbLine
 10
-0.5
 20
6.123233995736766e-17
 30
0.0
 11
-1.0
 21
1.2246467991473532e-16
 31
0.0
  0
LWPOLYLINE
  5
10039
330
10035
100
AcDbEntity
  8
0
  6
BYBLOCK
 62
0
100
AcDbPolyline
 90
2
 70
1
 43
0.5
 10
-0.25
 20
0.0
 42
1.0
 10
0.25
 20
0.0
 42
1.0
  0
ENDBLK
  5
10037
330
10035
100
AcDbEntity
  8
0
100
AcDbBlockEnd
  0
BLOCK
  5
1003B
330
1003A
100
AcDbEntity
  8
0
100
AcDbBlockBegin
  2
_ARCHTICK
 70
0
 10
0.0
 20
0.0
 30
0.0
  3
_ARCHTICK
  1

  0
LWPOLYLINE
  5
1003D
330
1003A
100
AcDbEntity
  8
0
  6
BYBLOCK
 62
0
100
AcDbPolyline
 90
2
 70
0
 43
0.15
 10
-0.5
 20
-0.5000000000000001
 10
0.5000000000000001
 20
0.5
  0
ENDBLK
  5
1003C
330
1003A
100
AcDbEntity
  8
0
100
AcDbBlockEnd
  0
BLOCK
  5
1003F
330
1003E
100
AcDbEntity
  8
0
100
AcDbBlockBegin
  2
_OPEN90
 70
0
 10
0.0
 20
0.0
 30
0.0
  3
_OPEN90
  1

  0
LWPOLYLINE
  5
10041
330
1003E
100
AcDbEntity
  8
0
  6
BYBLOCK
 62
0
100
AcDbPolyline
 90
3
 70
0
 10
-0.9999999999999998
 20
0.7071067811865476
 10
0.0
 20
0.0
 10
-0.9999999999999998
 20
-0.7071067811865476
  0
LINE
  5
10042
330
1003E
100
AcDbEntity
  8
0
  6
BYBLOCK
 62
0
100
AcDbLine
 10
0.0
 20
0.0
 30
0.0
 11
-1.0
 21
1.2246467991473532e-16
 31
0.0
  0
ENDBLK
  5
10040
330
1003E
100
AcDbEntity
  8
0
100
AcDbBlockEnd
  0
BLOCK
  5
10044
330
10043
100
AcDbEntity
  8
0
100
AcDbBlockBegin
  2
_DATUMBLANK
 70
0
 10
0.0
 20
0.0
 30
0.0
  3
_DATUMBLANK
  1

  0
LWPOLYLINE
  5
10046
330
10043
100
AcDbEntity
  8
0
  6
BYBLOCK
 62
0
100
AcDbPolyline
 90
3
 70
1
 10
3.5352507945885664e-17
 20
0.577350269
 10
3.5352507945885664e-17
 20
-0.577350269
 10
-1.0
 20
1.2246467991473532e-16
  0
ENDBLK
  5
10045
330
10043
100
AcDbEntity
  8
0
100
AcDbBlockEnd
  0
BLOCK
  5
10048
330
10047
100
AcDbEntity
  8
0
100
AcDbBlockBegin
  2
_INTEGRAL
 70
0
 10
0.0
 20
0.0
 30
0.0
  3
_INTEGRAL
  1

  0
ARC
  5
1004A
330
10047
100
AcDbEntity
  8
0
  6
BYBLOCK
 62
0
100
AcDbCircle
 10
-0.3535534
 20
4.329780396376638e-17
 30
0.0
 40
0.3535534
100
AcDbArc
 50
-90.0
 51
0.0
  0
ARC
  5
1004B
330
10047
100
AcDbEntity
  8
0
  6
BYBLOCK
 62
0
100
AcDbCircle
 10
0.3535534
 20
0.0
 30
0.0
 40
0.3535534
100
AcDbArc
 50
90.0
 51
180.0
  0
ENDBLK
  5
10049
330
10047
100
AcDbEntity
  8
0
100
AcDbBlockEnd
  0
BLOCK
  5
1004D
330
1004C
100
AcDbEntity
  8
0
100
AcDbBlockBegin
  2
_DATUMFILLED
 70
0
 10
0.0
 20
0.0
 30
0.0
  3
_DATUMFILLED
  1

  0
SOLID
  5
1004F
330
1004C
100
AcDbEntity
  8
0
  6
BYBLOCK
 62
0
100
AcDbTrace
 10
3.5352507945885664e-17
 20
0.577350269
 30
0.0
 11
3.5352507945885664e-17
 21
-0.577350269
 31
0.0
 12
-1.0
 22
1.2246467991473532e-16
 32
0.0
 13
-1.0
 23
1.2246467991473532e-16
 33
0.0
  0
ENDBLK
  5
1004E
330
1004C
100
AcDbEntity
  8
0
100
AcDbBlockEnd
  0
BLOCK
  5
10051
330
10050
100
AcDbEntity
  8
0
100
AcDbBlockBegin
  2
_BOXFILLED
 70
0
 10
0.0
 20
0.0
 30
0.0
  3
_BOXFILLED
  1

  0
SOLID
  5
10053
330
10050
100
AcDbEntity
  8
0
  6
BYBLOCK
 62
0
100
AcDbTrace
 10
-0.5
 20
-0.5000000000000001
 30
0.0
 11
0.5000000000000001
 21
-0.5
 31
0.0
 12
-0.5
 22
0.5000000000000001
 32
0.0
 13
0.5000000000000001
 23
0.5
 33
0.0
  0
LINE
  5
10054
330
10050
100
AcDbEntity
  8
0
  6
BYBLOCK
 62
0
100
AcDbLine
 10
-0.5
 20
6.123233995736766e-17
 30
0.0
 11
-1.0
 21
1.2246467991473532e-16
 31
0.0
  0
ENDBLK
  5
10052
330
10050
100
AcDbEntity
  8
0
100
AcDbBlockEnd
  0
BLOCK
  5
10056
330
10055
100
AcDbEntity
  8
0
100
AcDbBlockBegin
  2
_DOTBLANK
 70
0
 10
0.0
 20
0.0
 30
0.0
  3
_DOTBLANK
  1

  0
CIRCLE
  5
10058
330
10055
100
AcDbEntity
  8
0
  6
BYBLOCK
 62
0
100
AcDbCircle
 10
0.0
 20
0.0
 30
0.0
 40
0.5
  0
LINE
  5
10059
330
10055
100
AcDbEntity
  8
0
  6
BYBLOCK
 62
0
100
AcDbLine
 10
-0.5
 20
6.123233995736766e-17
 30
0.0
 11
-1.0
 21
1.2246467991473532e-16
 31
0.0
  0
ENDBLK
  5
10057
330
10055
100
AcDbEntity
  8
0
100
AcDbBlockEnd
  0
ENDSEC
  0
SECTION
  2
ENTITIES
  0
CIRCLE
  5
100
330
1F
100
AcDbEntity
  8
0
100
AcDbCircle
 10
47.94862770512825
 20
52.62302518864996
 30
-7.105427357601002e-14
 40
4.924999999999999
  0
LINE
  5
101
330
1F
100
AcDbEntity
  8
0
100
AcDbLine
 10
10.0
 20
17.418777991677157
 30
0.0
 11
10.404944572679256
 21
17.418777991677203
 31
0.0
  0
LINE
  5
102
330
1F
100
AcDbEntity
  8
0
100
AcDbLine
 10
10.404944572679256
 20
17.418777991677203
 30
0.0
 11
10.404944572679256
 21
15.418777991677189
 31
0.0
  0
LINE
  5
103
330
1F
100
AcDbEntity
  8
0
100
AcDbLine
 10
10.404944572679256
 20
15.418777991677189
 30
0.0
 11
15.404944572681174
 21
15.418777991677644
 31
0.0
  0
LINE
  5
104
330
1F
100
AcDbEntity
  8
0
100
AcDbLine
 10
15.404944572681174
 20
15.418777991677644
 30
0.0
 11
15.404944572681174
 21
13.41671294208263
 31
0.0
  0
LINE
  5
105
330
1F
100
AcDbEntity
  8
0
100
AcDbLine
 10
15.404944572681174
 20
13.41671294208263
 30
0.0
 11
21.554944572605486
 21
13.41671294208263
 31
0.0
  0
LINE
  5
106
330
1F
100
AcDbEntity
  8
0
100
AcDbLine
 10
21.554944572605486
 20
13.41671294208263
 30
0.0
 11
21.554944572605486
 21
15.418777991677644
 31
0.0
  0
LINE
  5
107
330
1F
100
AcDbEntity
  8
0
100
AcDbLine
 10
21.554944572605486
 20
15.418777991677644
 30
0.0
 11
26.554944572679275
 21
15.418777991677189
 31
0.0
  0
LINE
  5
108
330
1F
100
AcDbEntity
  8
0
100
AcDbLine
 10
26.554944572679275
 20
15.418777991677189
 30
0.0
 11
26.554944572679275
 21
17.5049089283465
 31
0.0
  0
SPLINE
  5
109
330
1F
100
AcDbEntity
  8
0
100
AcDbSpline
 70
0
 71
3
 72
23
 73
19
 74
0
 42
1e-09
 40
-0.0003810009365862563
 40
-0.0003810009365862563
 40
-0.0003810009365862563
 40
-0.0003810009365862563
 40
0.0
 40
0.0
 40
0.0
 40
0.30796989606492464
 40
0.30796989606492464
 40
0.30796989606492464
 40
0.5499943958544934
 40
0.5499943958544934
 40
0.5499943958544934
 40
0.8205848704029184
 40
0.8205848704029184
 40
0.8205848704029184
 40
1.0
 40
1.0
 40
1.0
 40
1.0006931939386563
 40
1.0006931939386563
 40
1.0006931939386563
 40
1.0006931939386563
 10
26.554944572679773
 20
17.50490892834464
 30
0.0
 10
26.553866994363773
 20
17.50845931448845
 30
0.0
 10
26.552789416047773
 20
17.51200970063218
 30
0.0
 10
26.551711837731773
 20
17.515560086775857
 30
0.0
 10
25.68357313701636
 20
20.375888257877868
 30
0.0
 10
25.362174702753215
 20
23.45555242009496
 30
0.0
 10
25.676451083521883
 20
26.70499226001734
 30
0.0
 10
25.923431664491332
 20
29.25863163159967
 30
0.0
 10
26.581322109057375
 20
31.931832117133354
 30
0.0
 10
27.61691074444947
 20
34.43360811012627
 30
0.0
 10
28.774729149327243
 20
37.23066689444934
 30
0.0
 10
30.403077004547185
 20
39.79640717430003
 30
0.0
 10
32.05641870628931
 20
41.140992081201844
 30
0.0
 10
33.152667627029615
 20
42.032519677391846
 30
0.0
 10
34.23486638210193
 20
42.365692301869075
 30
0.0
 10
35.254898317148715
 20
42.004305691347916
 30
0.0
 10
35.25894932747892
 20
42.00287046089863
 30
0.0
 10
35.263000337809096
 20
42.001435230449346
 30
0.0
 10
35.267051348139375
 20
41.99999999999999
 30
0.0
  0
LINE
  5
110
330
1F
100
AcDbEntity
  8
0
100
AcDbLine
 10
35.26705134813934
 20
41.99999999999999
 30
0.0
 11
39.20494456884839
 21
41.99999999999999
 31
0.0
  0
LINE
  5
111
330
1F
100
AcDbEntity
  8
0
100
AcDbLine
 10
39.20494456884839
 20
41.99999999999999
 30
0.0
 11
39.20494456884839
 21
39.99999999999999
 31
0.0
  0
LINE
  5
112
330
1F
100
AcDbEntity
  8
0
100
AcDbLine
 10
39.20494456884839
 20
39.99999999999999
 30
0.0
 11
47.3549445688484
 21
39.99999999999999
 31
0.0
  0
LINE
  5
113
330
1F
100
AcDbEntity
  8
0
100
AcDbLine
 10
47.3549445688484
 20
39.99999999999999
 30
0.0
 11
47.3549445688484
 21
41.99999999999999
 31
0.0
  0
LINE
  5
114
330
1F
100
AcDbEntity
  8
0
100
AcDbLine
 10
47.3549445688484
 20
41.99999999999999
 30
0.0
 11
51.20494456884842
 21
41.99999999999999
 31
0.0
  0
LINE
  5
115
330
1F
100
AcDbEntity
  8
0
100
AcDbLine
 10
51.20494456884842
 20
41.99999999999999
 30
0.0
 11
51.20494456884835
 21
39.99968062384441
 31
0.0
  0
SPLINE
  5
116
330
1F
100
AcDbEntity
  8
0
100
AcDbSpline
 70
0
 71
3
 72
38
 73
34
 74
0
 42
1e-09
 40
-1.0013947959988634
 40
-1.0013947959988634
 40
-1.0013947959988634
 40
-1.0013947959988634
 40
-1.0
 40
-1.0
 40
-1.0
 40
-0.884518070770202
 40
-0.884518070770202
 40
-0.884518070770202
 40
-0.7595330699434142
 40
-0.7595330699434142
 40
-0.7595330699434142
 40
-0.6263998048266619
 40
-0.6263998048266619
 40
-0.6263998048266619
 40
-0.4843863954701736
 40
-0.4843863954701736
 40
-0.4843863954701736
 40
-0.3709463172280278
 40
-0.3709463172280278
 40
-0.3709463172280278
 40
-0.2679530038433082
 40
-0.2679530038433082
 40
-0.2679530038433082
 40
-0.1438015059457794
 40
-0.1438015059457794
 40
-0.1438015059457794
 40
-0.02956700500644842
 40
-0.02956700500644842
 40
-0.02956700500644842
 40
0.0
 40
0.0
 40
0.0
 40
0.00073900340686726
 40
0.00073900340686726
 40
0.00073900340686726
 40
0.00073900340686726
 10
51.204944568848525
 20
39.999680623844405
 30
0.0
 10
51.23005080089989
 20
39.99978730826893
 30
0.0
 10
51.25515703295125
 20
39.99989399269345
 30
0.0
 10
51.28026326500262
 20
40.00000067711797
 30
0.0
 10
53.3502390471498
 20
40.008796667477746
 30
0.0
 10
54.59404899897528
 20
39.665276870641975
 30
0.0
 10
55.263241779058596
 20
38.90498272626823
 30
0.0
 10
55.98750280179889
 20
38.08212355776523
 30
0.0
 10
56.09952887344086
 20
36.703205785033575
 30
0.0
 10
56.058939328575654
 20
34.721844819700124
 30
0.0
 10
56.0157035914731
 20
32.611311132099544
 30
0.0
 10
55.830533686383035
 20
29.821520723162056
 30
0.0
 10
55.73629645702681
 20
26.846432996203042
 30
0.0
 10
55.63577349443403
 20
23.67290344391889
 30
0.0
 10
55.63486222127587
 20
20.336668504947237
 30
0.0
 10
55.53038032079751
 20
17.58132210620176
 30
0.0
 10
55.44692035022951
 20
15.380355926499092
 30
0.0
 10
55.2865917620025
 20
13.565934537250406
 30
0.0
 10
54.78662538737954
 20
12.235128517874713
 30
0.0
 10
54.332701216122814
 20
11.02687722316686
 30
0.0
 10
53.55547881966235
 20
10.188881004494892
 30
0.0
 10
52.3241969296949
 20
9.481257308569742
 30
0.0
 10
50.83996959541594
 20
8.628264634484879
 30
0.0
 10
48.702177452039734
 20
7.955100260442212
 30
0.0
 10
46.672097613001675
 20
7.206661709950161
 30
0.0
 10
44.80417687739429
 20
6.5180070763203375
 30
0.0
 10
43.08395663974526
 20
5.767039067446511
 30
0.0
 10
42.068677665745966
 20
4.855811684531865
 30
0.0
 10
41.80589577183177
 20
4.619961180777672
 30
0.0
 10
41.587765639251835
 20
4.373658975113585
 30
0.0
 10
41.4174124650663
 20
4.116409365090298
 30
0.0
 10
41.41325650093805
 20
4.110133461184333
 30
0.0
 10
41.409100536809795
 20
4.103857557278374
 30
0.0
 10
41.40494457268158
 20
4.097581653372497
 30
0.0
  0
LINE
  5
117
330
1F
100
AcDbEntity
  8
0
100
AcDbLine
 10
41.404944572681615
 20
4.097581653372487
 30
0.0
 11
41.40494457268165
 21
1.999999999999993
 31
0.0
  0
LINE
  5
118
330
1F
100
AcDbEntity
  8
0
100
AcDbLine
 10
41.40494457268165
 20
1.999999999999993
 30
0.0
 11
45.41838149375348
 21
1.999999999999993
 31
0.0
  0
LINE
  5
119
330
1F
100
AcDbEntity
  8
0
100
AcDbLine
 10
45.41838149375348
 20
1.999999999999993
 30
0.0
 11
45.41838149375348
 21
0.0
 31
0.0
  0
LINE
  5
120
330
1F
100
AcDbEntity
  8
0
100
AcDbLine
 10
45.41838149375348
 20
0.0
 30
0.0
 11
53.56838149375349
 21
0.0
 31
0.0
  0
LINE
  5
121
330
1F
100
AcDbEntity
  8
0
100
AcDbLine
 10
53.56838149375349
 20
0.0
 30
0.0
 11
53.56838149375349
 21
1.999999999999993
 31
0.0
  0
LINE
  5
122
330
1F
100
AcDbEntity
  8
0
100
AcDbLine
 10
53.56838149375349
 20
1.999999999999993
 30
0.0
 11
57.554944572681634
 21
1.999999999999993
 31
0.0
  0
LINE
  5
123
330
1F
100
AcDbEntity
  8
0
100
AcDbLine
 10
57.554944572681634
 20
1.999999999999993
 30
0.0
 11
57.554944572681634
 21
4.021185782571372
 31
0.0
  0
SPLINE
  5
124
330
1F
100
AcDbEntity
  8
0
100
AcDbSpline
 70
0
 71
3
 72
35
 73
31
 74
0
 42
1e-09
 40
0.001814356801480273
 40
0.001814356801480273
 40
0.001814356801480273
 40
0.001814356801480273
 40
0.15556399925774161
 40
0.15556399925774161
 40
0.15556399925774161
 40
0.29512718982165537
 40
0.29512718982165537
 40
0.29512718982165537
 40
0.44501998426396366
 40
0.44501998426396366
 40
0.44501998426396366
 40
0.5678317379033991
 40
0.5678317379033991
 40
0.5678317379033991
 40
0.6518963215621807
 40
0.6518963215621807
 40
0.6518963215621807
 40
0.7389222411716355
 40
0.7389222411716355
 40
0.7389222411716355
 40
0.8265690659289278
 40
0.8265690659289278
 40
0.8265690659289278
 40
0.9301357594431302
 40
0.9301357594431302
 40
0.9301357594431302
 40
1.0
 40
1.0
 40
1.0
 40
1.0028995656914292
 40
1.0028995656914292
 40
1.0028995656914292
 40
1.0028995656914292
 10
57.5549445726816
 20
4.021185782571372
 30
0.0
 10
59.00980124653646
 20
4.528916142590347
 30
0.0
 10
60.05472913111298
 20
6.262541447189356
 30
0.0
 10
60.73273101415076
 20
9.124609914094801
 30
0.0
 10
61.348173785225875
 20
11.722595837654435
 30
0.0
 10
61.65999698824475
 20
15.281979736616709
 30
0.0
 10
61.80347159270191
 20
19.29729684472842
 30
0.0
 10
61.957565299693655
 20
23.609802882136925
 30
0.0
 10
61.956887156546685
 20
28.40462461548002
 30
0.0
 10
61.79582675093826
 20
32.726171151909405
 30
0.0
 10
61.66386503170923
 20
36.266946481023666
 30
0.0
 10
61.43422586923947
 20
39.470968184857824
 30
0.0
 10
60.718746507563
 20
42.011727112776214
 30
0.0
 10
60.229001243991824
 20
43.75087532231866
 30
0.0
 10
59.46057149458582
 20
45.173148789251954
 30
0.0
 10
58.63724262209317
 20
46.44810626996816
 30
0.0
 10
57.78491041331758
 20
47.767976569601664
 30
0.0
 10
56.925742144666884
 20
48.96147532750144
 30
0.0
 10
56.43863099676448
 20
50.27832341225697
 30
0.0
 10
55.948044449571164
 20
51.60456683300451
 30
0.0
 10
55.86013376470639
 20
53.0783335782371
 30
0.0
 10
55.986332736878346
 20
54.55374670579917
 30
0.0
 10
56.13545405768981
 20
56.297148815484135
 30
0.0
 10
56.49844498541
 20
57.97805643729632
 30
0.0
 10
56.845666018076706
 20
59.42469535308426
 30
0.0
 10
57.07989512136759
 20
60.400572112128216
 30
0.0
 10
57.31749255482711
 20
61.27828962355146
 30
0.0
 10
57.55173700288385
 20
62.053300991597354
 30
0.0
 10
57.56147931410869
 20
62.08553399439825
 30
0.0
 10
57.57122162533353
 20
62.11776699719913
 30
0.0
 10
57.580963936558334
 20
62.150000000000034
 30
0.0
  0
LINE
  5
125
330
1F
100
AcDbEntity
  8
0
100
AcDbLine
 10
57.5809639365583
 20
62.150000000000034
 30
0.0
 11
53.388704836084386
 21
62.15
 31
0.0
  0
LINE
  5
126
330
1F
100
AcDbEntity
  8
0
100
AcDbLine
 10
53.388704836084386
 20
62.15
 30
0.0
 11
53.388704836084386
 21
64.15
 31
0.0
  0
LINE
  5
127
330
1F
100
AcDbEntity
  8
0
100
AcDbLine
 10
53.388704836084386
 20
64.15
 30
0.0
 11
43.23870483608438
 21
64.15
 31
0.0
  0
LINE
  5
128
330
1F
100
AcDbEntity
  8
0
100
AcDbLine
 10
43.23870483608438
 20
64.15
 30
0.0
 11
43.23870483608438
 21
62.15
 31
0.0
  0
LINE
  5
129
330
1F
100
AcDbEntity
  8
0
100
AcDbLine
 10
43.23870483608438
 20
62.15
 30
0.0
 11
30.893284460302226
 21
62.15
 31
0.0
  0
LINE
  5
130
330
1F
100
AcDbEntity
  8
0
100
AcDbLine
 10
30.893284460302226
 20
62.15
 30
0.0
 11
30.893284460302226
 21
64.15
 31
0.0
  0
LINE
  5
131
330
1F
100
AcDbEntity
  8
0
100
AcDbLine
 10
30.893284460302226
 20
64.15
 30
0.0
 11
20.74328446030222
 21
64.15
 31
0.0
  0
LINE
  5
132
330
1F
100
AcDbEntity
  8
0
100
AcDbLine
 10
20.74328446030222
 20
64.15
 30
0.0
 11
20.74328446030222
 21
62.15
 31
0.0
  0
LINE
  5
133
330
1F
100
AcDbEntity
  8
0
100
AcDbLine
 10
20.74328446030222
 20
62.15
 30
0.0
 11
12.320105026736137
 21
62.14999999999994
 31
0.0
  0
SPLINE
  5
134
330
1F
100
AcDbEntity
  8
0
100
AcDbSpline
 70
0
 71
3
 72
29
 73
25
 74
0
 42
1e-09
 40
-1.0019374647945563
 40
-1.0019374647945563
 40
-1.0019374647945563
 40
-1.0019374647945563
 40
-1.0
 40
-1.0
 40
-1.0
 40
-0.8658656419933815
 40
-0.8658656419933815
 40
-0.8658656419933815
 40
-0.6846955996136411
 40
-0.6846955996136411
 40
-0.6846955996136411
 40
-0.5627559468992321
 40
-0.5627559468992321
 40
-0.5627559468992321
 40
-0.387025095203346
 40
-0.387025095203346
 40
-0.387025095203346
 40
-0.19726666622483668
 40
-0.19726666622483668
 40
-0.19726666622483668
 40
0.0
 40
0.0
 40
0.0
 40
0.00550529293782542
 40
0.00550529293782542
 40
0.00550529293782542
 40
0.00550529293782542
 10
12.320105026735924
 20
62.150000000000375
 30
0.0
 10
12.319866681122171
 20
62.12524065108909
 30
0.0
 10
12.319628335508206
 20
62.100481302177926
 30
0.0
 10
12.319389989894276
 20
62.07572195326675
 30
0.0
 10
12.302715527961787
 20
60.34357839054111
 30
0.0
 10
12.956228395193925
 20
58.79768186995199
 30
0.0
 10
13.989983785178524
 20
57.290852102895755
 30
0.0
 10
15.386236845148069
 20
55.25563594490617
 30
0.0
 10
17.41029757074056
 20
53.23004930172732
 30
0.0
 10
18.82084473249158
 20
50.60392517070049
 30
0.0
 10
19.77023806917078
 20
48.83636658145467
 30
0.0
 10
20.420478834696425
 20
46.78334888835681
 30
0.0
 10
20.631311644126775
 20
44.4824933390361
 30
0.0
 10
20.935149061586102
 20
41.16666213638123
 30
0.0
 10
20.38883481691741
 20
37.423568406357546
 30
0.0
 10
19.475147086477982
 20
33.991173345358575
 30
0.0
 10
18.488524950228538
 20
30.284790043148657
 30
0.0
 10
17.085381370929298
 20
26.933464744883313
 30
0.0
 10
15.524186586963644
 20
24.194111230216997
 30
0.0
 10
13.901219470201802
 20
21.346368769666206
 30
0.0
 10
12.097680568000513
 20
19.133870384176397
 30
0.0
 10
10.162745510251021
 20
17.551840952169258
 30
0.0
 10
10.108497006834014
 20
17.507486632005225
 30
0.0
 10
10.054248503417007
 20
17.463132311841196
 30
0.0
 10
10.0
 20
17.418777991677167
 30
0.0
  0
LINE
  5
1006F
330
1F
100
AcDbEntity
  8
0
100
AcDbLine
 10
18.163436921071856
 20
305.74599161777655
 30
0.0
 11
18.163436921071856
 21
307.5959916177765
 31
0.0
  0
LINE
  5
10070
330
1F
100
AcDbEntity
  8
0
100
AcDbLine
 10
18.163436921071856
 20
307.5959916177765
 30
0.0
 11
26.013436921071857
 21
307.59599161777646
 31
0.0
  0
LINE
  5
10071
330
1F
100
AcDbEntity
  8
0
100
AcDbLine
 10
26.013436921071857
 20
307.59599161777646
 30
0.0
 11
26.013436921071857
 21
305.7459916177765
 31
0.0
  0
LINE
  5
10072
330
1F
100
AcDbEntity
  8
0
100
AcDbLine
 10
26.013436921071857
 20
305.7459916177765
 30
0.0
 11
18.163436921071856
 21
305.74599161777655
 31
0.0
  0
LINE
  5
10073
330
1F
100
AcDbEntity
  8
0
100
AcDbLine
 10
20.013436921071843
 20
318.6277347358778
 30
0.0
 11
20.01343692107188
 21
313.7459916177765
 31
0.0
  0
ARC
  5
10074
330
1F
100
AcDbEntity
  8
0
100
AcDbCircle
 10
22.08843692107184
 20
322.1709916177765
 30
0.0
 40
4.106128874149309
100
AcDbArc
 50
-59.64593221837534
 51
-120.35406778162421
  0
LINE
  5
10075
330
1F
100
AcDbEntity
  8
0
100
AcDbLine
 10
24.16343692107187
 20
313.7459916177765
 30
0.0
 11
24.16343692107187
 21
318.6277347358778
 31
0.0
  0
LINE
  5
10076
330
1F
100
AcDbEntity
  8
0
100
AcDbLine
 10
30.150000000000006
 20
313.7459916177765
 30
0.0
 11
24.16343692107187
 21
313.7459916177765
 31
0.0
  0
LINE
  5
10077
330
1F
100
AcDbEntity
  8
0
100
AcDbLine
 10
30.150000000000006
 20
234.80747048888207
 30
0.0
 11
30.150000000000006
 21
313.7459916177765
 31
0.0
  0
LINE
  5
10078
330
1F
100
AcDbEntity
  8
0
100
AcDbLine
 10
32.15
 20
226.52069648146917
 30
0.0
 11
30.150000000000006
 21
234.80747048888207
 31
0.0
  0
LINE
  5
10079
330
1F
100
AcDbEntity
  8
0
100
AcDbLine
 10
32.15
 20
226.23171046179664
 30
0.0
 11
32.15
 21
226.52069648146917
 31
0.0
  0
LINE
  5
1007A
330
1F
100
AcDbEntity
  8
0
100
AcDbLine
 10
27.15
 20
226.23171046179664
 30
0.0
 11
32.15
 21
226.23171046179664
 31
0.0
  0
LINE
  5
1007B
330
1F
100
AcDbEntity
  8
0
100
AcDbLine
 10
27.15
 20
224.38305168471265
 30
0.0
 11
27.15
 21
226.23171046179664
 31
0.0
  0
LINE
  5
1007C
330
1F
100
AcDbEntity
  8
0
100
AcDbLine
 10
30.150000000000006
 20
224.38305168471265
 30
0.0
 11
27.15
 21
224.38305168471265
 31
0.0
  0
LINE
  5
1007D
330
1F
100
AcDbEntity
  8
0
100
AcDbLine
 10
30.150000000000006
 20
218.3
 30
0.0
 11
30.150000000000006
 21
224.38305168471265
 31
0.0
  0
LINE
  5
1007E
330
1F
100
AcDbEntity
  8
0
100
AcDbLine
 10
31.999999999999993
 20
218.3
 30
0.0
 11
30.150000000000006
 21
218.3
 31
0.0
  0
LINE
  5
1007F
330
1F
100
AcDbEntity
  8
0
100
AcDbLine
 10
31.999999999999993
 20
224.38305168471265
 30
0.0
 11
31.999999999999993
 21
218.3
 31
0.0
  0
LINE
  5
10080
330
1F
100
AcDbEntity
  8
0
100
AcDbLine
 10
32.66591724230544
 20
224.38305168471265
 30
0.0
 11
31.999999999999993
 21
224.38305168471265
 31
0.0
  0
LINE
  5
10081
330
1F
100
AcDbEntity
  8
0
100
AcDbLine
 10
34.15000000000003
 20
218.23392247405616
 30
0.0
 11
32.66591724230544
 21
224.38305168471265
 31
0.0
  0
LINE
  5
10082
330
1F
100
AcDbEntity
  8
0
100
AcDbLine
 10
34.15000000000003
 20
214.15000000000003
 30
0.0
 11
34.15000000000003
 21
218.23392247405616
 31
0.0
  0
LINE
  5
10083
330
1F
100
AcDbEntity
  8
0
100
AcDbLine
 10
25.00001032948248
 20
214.15000000000003
 30
0.0
 11
34.15000000000003
 21
214.15000000000003
 31
0.0
  0
LINE
  5
10084
330
1F
100
AcDbEntity
  8
0
100
AcDbLine
 10
24.999999840716214
 20
218.28710059855354
 30
0.0
 11
25.00001032948248
 21
214.15000000000003
 31
0.0
  0
SPLINE
  5
10085
330
1F
100
AcDbEntity
  8
0
100
AcDbSpline
 70
0
 71
3
 72
26
 73
22
 74
0
 42
1e-09
 40
2.082657615793228
 40
2.082657615793228
 40
2.082657615793228
 40
2.082657615793228
 40
2.8606026554537625
 40
2.8606026554537625
 40
2.8606026554537625
 40
3.624005661375479
 40
3.624005661375479
 40
3.624005661375479
 40
4.588250883638495
 40
4.588250883638495
 40
4.588250883638495
 40
5.5250890893086115
 40
5.5250890893086115
 40
5.5250890893086115
 40
6.26355251582345
 40
6.26355251582345
 40
6.26355251582345
 40
6.953176286140241
 40
6.953176286140241
 40
6.953176286140241
 40
7.342120314357972
 40
7.342120314357972
 40
7.342120314357972
 40
7.342120314357972
 10
24.999999840716214
 20
218.28710059855354
 30
0.0
 10
26.34632964347812
 20
218.54093440794952
 30
0.0
 10
27.375176227931384
 20
218.98054963460277
 30
0.0
 10
27.782989489429433
 20
219.45153119237347
 30
0.0
 10
28.183179546323665
 20
219.91370874812054
 30
0.0
 10
28.040562662035455
 20
220.38205803270404
 30
0.0
 10
27.349995733672827
 20
220.8216169562388
 30
0.0
 10
26.477748891361088
 20
221.37681858451873
 30
0.0
 10
24.720311138285
 20
221.78746873991426
 30
0.0
 10
22.814800254591958
 20
221.8667251108786
 30
0.0
 10
20.96345024948203
 20
221.9437287554369
 30
0.0
 10
19.01739561929631
 20
221.71002882122932
 30
0.0
 10
17.743027940891274
 20
221.26138730991886
 30
0.0
 10
16.73850665136765
 20
220.90774529818842
 30
0.0
 10
16.176774017253912
 20
220.4289986671056
 30
0.0
 10
16.15102651837688
 20
219.99190356721118
 30
0.0
 10
16.126981878365925
 20
219.58371656707934
 30
0.0
 10
16.55630983681636
 20
219.139676675643
 30
0.0
 10
17.401122790585966
 20
218.78422315317374
 30
0.0
 10
17.877592668036293
 20
218.58374931392393
 30
0.0
 10
18.476062498621957
 20
218.41347270695601
 30
0.0
 10
19.150000000073213
 20
218.28710062837553
 30
0.0
  0
LINE
  5
10086
330
1F
100
AcDbEntity
  8
0
100
AcDbLine
 10
19.14999999999644
 20
214.15000000000003
 30
0.0
 11
19.15000000000262
 21
218.28710062838874
 31
0.0
  0
LINE
  5
10087
330
1F
100
AcDbEntity
  8
0
100
AcDbLine
 10
10.0
 20
214.15000000000003
 30
0.0
 11
19.14999999999644
 21
214.15000000000003
 31
0.0
  0
LINE
  5
10088
330
1F
100
AcDbEntity
  8
0
100
AcDbLine
 10
10.0
 20
218.23392247405616
 30
0.0
 11
10.0
 21
214.15000000000003
 31
0.0
  0
LINE
  5
10089
330
1F
100
AcDbEntity
  8
0
100
AcDbLine
 10
11.484082757694587
 20
224.38305168471265
 30
0.0
 11
10.0
 21
218.23392247405616
 31
0.0
  0
LINE
  5
1008A
330
1F
100
AcDbEntity
  8
0
100
AcDbLine
 10
12.150000000000034
 20
224.38305168471265
 30
0.0
 11
11.484082757694587
 21
224.38305168471265
 31
0.0
  0
LINE
  5
1008B
330
1F
100
AcDbEntity
  8
0
100
AcDbLine
 10
12.150000000000034
 20
218.3
 30
0.0
 11
12.150000000000034
 21
224.38305168471265
 31
0.0
  0
LINE
  5
1008C
330
1F
100
AcDbEntity
  8
0
100
AcDbLine
 10
14.000000000000021
 20
218.3
 30
0.0
 11
12.150000000000034
 21
218.3
 31
0.0
  0
LINE
  5
1008D
330
1F
100
AcDbEntity
  8
0
100
AcDbLine
 10
14.000000000000021
 20
224.38305168471265
 30
0.0
 11
14.000000000000021
 21
218.3
 31
0.0
  0
LINE
  5
1008E
330
1F
100
AcDbEntity
  8
0
100
AcDbLine
 10
16.999999999999993
 20
224.38305168471265
 30
0.0
 11
14.000000000000021
 21
224.38305168471265
 31
0.0
  0
LINE
  5
1008F
330
1F
100
AcDbEntity
  8
0
100
AcDbLine
 10
16.999999999999993
 20
226.23171046179664
 30
0.0
 11
16.999999999999993
 21
224.38305168471265
 31
0.0
  0
LINE
  5
10090
330
1F
100
AcDbEntity
  8
0
100
AcDbLine
 10
12.000000000000028
 20
226.23171046179664
 30
0.0
 11
16.999999999999993
 21
226.23171046179664
 31
0.0
  0
LINE
  5
10091
330
1F
100
AcDbEntity
  8
0
100
AcDbLine
 10
12.000000000000028
 20
226.52069648146917
 30
0.0
 11
12.000000000000028
 21
226.23171046179664
 31
0.0
  0
LINE
  5
10092
330
1F
100
AcDbEntity
  8
0
100
AcDbLine
 10
14.000000000000021
 20
234.80747048888207
 30
0.0
 11
12.000000000000028
 21
226.52069648146917
 31
0.0
  0
LINE
  5
10093
330
1F
100
AcDbEntity
  8
0
100
AcDbLine
 10
14.000000000000021
 20
313.74599161777655
 30
0.0
 11
14.000000000000021
 21
234.80747048888207
 31
0.0
  0
LINE
  5
10094
330
1F
100
AcDbEntity
  8
0
100
AcDbLine
 10
20.01343692107188
 20
313.7459916177765
 30
0.0
 11
14.000000000000021
 21
313.74599161777655
 31
0.0
  0
CIRCLE
  5
10095
330
1F
100
AcDbEntity
  8
0
100
AcDbCircle
 10
25.87929377604638
 20
528.9001456805757
 30
0.0
 40
4.925
  0
LINE
  5
10096
330
1F
100
AcDbEntity
  8
0
100
AcDbLine
 10
38.29717235521379
 20
538.4271204919258
 30
0.0
 11
38.29717235521379
 21
540.4271204919258
 31
0.0
  0
LINE
  5
10097
330
1F
100
AcDbEntity
  8
0
100
AcDbLine
 10
38.29717235521379
 20
540.4271204919258
 30
0.0
 11
33.14717235521378
 21
540.4271204919258
 31
0.0
  0
LINE
  5
10098
330
1F
100
AcDbEntity
  8
0
100
AcDbLine
 10
33.14717235521378
 20
540.4271204919258
 30
0.0
 11
33.14717235521378
 21
538.4271204919258
 31
0.0
  0
LINE
  5
10099
330
1F
100
AcDbEntity
  8
0
100
AcDbLine
 10
33.14717235521378
 20
538.4271204919258
 30
0.0
 11
18.874238543617388
 21
538.4271204919258
 31
0.0
  0
LINE
  5
1009A
330
1F
100
AcDbEntity
  8
0
100
AcDbLine
 10
18.874238543617388
 20
538.4271204919258
 30
0.0
 11
18.874238543617388
 21
540.4271204919258
 31
0.0
  0
LINE
  5
1009B
330
1F
100
AcDbEntity
  8
0
100
AcDbLine
 10
18.874238543617388
 20
540.4271204919258
 30
0.0
 11
13.724238543617382
 21
540.4271204919258
 31
0.0
  0
LINE
  5
1009C
330
1F
100
AcDbEntity
  8
0
100
AcDbLine
 10
13.724238543617382
 20
540.4271204919258
 30
0.0
 11
13.724238543617382
 21
538.4271204919258
 31
0.0
  0
LINE
  5
1009D
330
1F
100
AcDbEntity
  8
0
100
AcDbLine
 10
13.724238543617382
 20
538.4271204919258
 30
0.0
 11
10.0
 21
538.4271204919258
 31
0.0
  0
SPLINE
  5
1009E
330
1F
100
AcDbEntity
  8
0
100
AcDbSpline
 70
0
 71
3
 72
17
 73
13
 74
0
 42
1e-09
 40
-1.0046346609214578
 40
-1.0046346609214578
 40
-1.0046346609214578
 40
-1.0046346609214578
 40
-1.0
 40
-1.0
 40
-1.0
 40
-0.46830478680223364
 40
-0.46830478680223364
 40
-0.46830478680223364
 40
0.0
 40
0.0
 40
0.0
 40
0.0014541002003970183
 40
0.0014541002003970183
 40
0.0014541002003970183
 40
0.0014541002003970183
 10
10.0
 20
538.4271204919258
 30
0.0
 10
10.019988941371594
 20
538.390214295205
 30
0.0
 10
10.03997788274333
 20
538.3533080984843
 30
0.0
 10
10.05996682411503
 20
538.3164019017635
 30
0.0
 10
12.34994519577949
 20
534.0883444624328
 30
0.0
 10
13.767677002472318
 20
530.204787276422
 30
0.0
 10
13.855055762504485
 20
526.8573338550955
 30
0.0
 10
13.932016943595045
 20
523.9089746788363
 30
0.0
 10
12.956377552125069
 20
521.3807745357765
 30
0.0
 10
11.152503353623828
 20
519.1702964591966
 30
0.0
 10
11.146872449004839
 20
519.1633963154826
 30
0.0
 10
11.14124154438585
 20
519.1564961717687
 30
0.0
 10
11.135610639767002
 20
519.1495960280548
 30
0.0
  0
LINE
  5
1009F
330
1F
100
AcDbEntity
  8
0
100
AcDbLine
 10
11.135610639767037
 20
519.1495960280548
 30
0.0
 11
11.135610639766895
 21
516.2771204919258
 31
0.0
  0
LINE
  5
100A0
330
1F
100
AcDbEntity
  8
0
100
AcDbLine
 10
11.135610639766895
 20
516.2771204919258
 30
0.0
 11
13.285610639766894
 21
516.2771204919258
 31
0.0
  0
LINE
  5
100A1
330
1F
100
AcDbEntity
  8
0
100
AcDbLine
 10
13.285610639766894
 20
516.2771204919258
 30
0.0
 11
13.285610639766894
 21
518.2771204919258
 31
0.0
  0
LINE
  5
100A2
330
1F
100
AcDbEntity
  8
0
100
AcDbLine
 10
13.285610639766894
 20
518.2771204919258
 30
0.0
 11
29.800082621966943
 21
518.2771204919258
 31
0.0
  0
LINE
  5
100A3
330
1F
100
AcDbEntity
  8
0
100
AcDbLine
 10
29.800082621966943
 20
518.2771204919258
 30
0.0
 11
29.800082621966943
 21
516.2771204919258
 31
0.0
  0
LINE
  5
100A4
330
1F
100
AcDbEntity
  8
0
100
AcDbLine
 10
29.800082621966943
 20
516.2771204919258
 30
0.0
 11
32.20121674145666
 21
516.2771204919258
 31
0.0
  0
SPLINE
  5
100A5
330
1F
100
AcDbEntity
  8
0
100
AcDbSpline
 70
0
 71
3
 72
26
 73
22
 74
0
 42
1e-09
 40
-0.9983060837197759
 40
-0.9983060837197759
 40
-0.9983060837197759
 40
-0.9983060837197759
 40
-0.75
 40
-0.75
 40
-0.75
 40
-0.5532421911898586
 40
-0.5532421911898586
 40
-0.5532421911898586
 40
-0.38225804637641825
 40
-0.38225804637641825
 40
-0.38225804637641825
 40
-0.22363017307919597
 40
-0.22363017307919597
 40
-0.22363017307919597
 40
-0.02900296465290733
 40
-0.02900296465290733
 40
-0.02900296465290733
 40
0.0
 40
0.0
 40
0.0
 40
0.001232059581857867
 40
0.001232059581857867
 40
0.001232059581857867
 40
0.001232059581857867
 10
32.20121674145666
 20
516.2771204919258
 30
0.0
 10
32.670217182413666
 20
513.153542746965
 30
0.0
 10
33.18775609878539
 20
509.50059931423255
 30
0.0
 10
33.64857450357846
 20
505.4176804903732
 30
0.0
 10
34.01372713386518
 20
502.18237449505625
 30
0.0
 10
34.3491961429519
 20
498.66168423484123
 30
0.0
 10
34.30848060562212
 20
495.34455490445345
 30
0.0
 10
34.27309847073737
 20
492.4619423910196
 30
0.0
 10
33.92426397038051
 20
489.77840937986036
 30
0.0
 10
33.00949625764858
 20
487.6723381860169
 30
0.0
 10
32.16083478093708
 20
485.71846348695374
 30
0.0
 10
30.81475312029241
 20
484.2790389232806
 30
0.0
 10
29.01499122746749
 20
483.25864971553534
 30
0.0
 10
26.80678767690864
 20
482.0066912867687
 30
0.0
 10
23.95874027428917
 20
481.3218979053477
 30
0.0
 10
20.82061585231365
 20
480.69837853949497
 30
0.0
 10
20.352978709373026
 20
480.6054629072231
 30
0.0
 10
19.878354046326407
 20
480.5147338018443
 30
0.0
 10
19.39699557777221
 20
480.42587433916447
 30
0.0
 10
19.376533933048208
 20
480.42209709024394
 30
0.0
 10
19.35607228832417
 20
480.41831984132347
 30
0.0
 10
19.33561064360017
 20
480.41454259240294
 30
0.0
  0
LINE
  5
100A6
330
1F
100
AcDbEntity
  8
0
100
AcDbLine
 10
19.33561064360017
 20
480.41454259240294
 30
0.0
 11
19.335610643600134
 21
476.2771204919258
 31
0.0
  0
LINE
  5
100A7
330
1F
100
AcDbEntity
  8
0
100
AcDbLine
 10
19.335610643600134
 20
476.2771204919258
 30
0.0
 11
22.48561064360011
 21
476.2771204919258
 31
0.0
  0
LINE
  5
100A8
330
1F
100
AcDbEntity
  8
0
100
AcDbLine
 10
22.48561064360011
 20
476.2771204919258
 30
0.0
 11
22.48561064360011
 21
478.2771204919258
 31
0.0
  0
LINE
  5
100A9
330
1F
100
AcDbEntity
  8
0
100
AcDbLine
 10
22.48561064360011
 20
478.2771204919258
 30
0.0
 11
32.335610643600106
 21
478.2771204919258
 31
0.0
  0
LINE
  5
100AA
330
1F
100
AcDbEntity
  8
0
100
AcDbLine
 10
32.335610643600106
 20
478.2771204919258
 30
0.0
 11
32.335610643600106
 21
476.2771204919258
 31
0.0
  0
LINE
  5
100AB
330
1F
100
AcDbEntity
  8
0
100
AcDbLine
 10
32.335610643600106
 20
476.2771204919258
 30
0.0
 11
35.48561064360012
 21
476.2771204919258
 31
0.0
  0
LINE
  5
100AC
330
1F
100
AcDbEntity
  8
0
100
AcDbLine
 10
35.48561064360012
 20
476.2771204919258
 30
0.0
 11
35.48561064360012
 21
480.3229277274929
 31
0.0
  0
SPLINE
  5
100AD
330
1F
100
AcDbEntity
  8
0
100
AcDbSpline
 70
0
 71
3
 72
23
 73
19
 74
0
 42
1e-09
 40
0.0005874979396181941
 40
0.0005874979396181941
 40
0.0005874979396181941
 40
0.0005874979396181941
 40
0.21415066107269562
 40
0.21415066107269562
 40
0.21415066107269562
 40
0.3887369237496572
 40
0.3887369237496572
 40
0.3887369237496572
 40
0.5947461074147509
 40
0.5947461074147509
 40
0.5947461074147509
 40
0.7796739767394942
 40
0.7796739767394942
 40
0.7796739767394942
 40
0.986833642836984
 40
0.986833642836984
 40
0.986833642836984
 40
0.9908298261051495
 40
0.9908298261051495
 40
0.9908298261051495
 40
0.9908298261051495
 10
35.48561064360008
 20
480.3229277274929
 30
0.0
 10
37.8799210913289
 20
482.937290405414
 30
0.0
 10
39.3281310239588
 20
486.25399598992914
 30
0.0
 10
39.908456103251524
 20
490.29131885061287
 30
0.0
 10
40.38286744481937
 20
493.59179960359654
 30
0.0
 10
40.27382080378764
 20
497.39320153194683
 30
0.0
 10
40.04541806819397
 20
501.5783926905864
 30
0.0
 10
39.775906249881
 20
506.5168557795696
 30
0.0
 10
39.38584879729852
 20
511.97477239931
 30
0.0
 10
39.29791680290737
 20
517.0962289288678
 30
0.0
 10
39.21898305792119
 20
521.6935970024684
 30
0.0
 10
39.36858031842913
 20
525.97000625258
 30
0.0
 10
39.823563822752774
 20
529.465180832867
 30
0.0
 10
40.33324487396328
 20
533.3805409224443
 30
0.0
 10
41.216505808836494
 20
536.3420523006212
 30
0.0
 10
42.45336807743641
 20
538.3122433024861
 30
0.0
 10
42.47740758443619
 20
538.350535698966
 30
0.0
 10
42.50144709143598
 20
538.3888280954459
 30
0.0
 10
42.52548659843576
 20
538.4271204919257
 30
0.0
  0
LINE
  5
100AE
330
1F
100
AcDbEntity
  8
0
100
AcDbLine
 10
42.52548659843573
 20
538.4271204919257
 30
0.0
 11
38.29717235521379
 21
538.4271204919258
 31
0.0
  0
LINE
  5
100AF
330
1F
100
AcDbEntity
  8
0
100
AcDbLine
 10
16.234695484992017
 20
692.4271204919258
 30
0.0
 11
26.08469548499201
 21
692.4271204919258
 31
0.0
  0
LINE
  5
100B0
330
1F
100
AcDbEntity
  8
0
100
AcDbLine
 10
26.08469548499201
 20
692.4271204919258
 30
0.0
 11
26.08469548499201
 21
690.4271204919258
 31
0.0
  0
LINE
  5
100B1
330
1F
100
AcDbEntity
  8
0
100
AcDbLine
 10
26.08469548499201
 20
690.4271204919258
 30
0.0
 11
29.899167467192065
 21
690.4271204919258
 31
0.0
  0
LINE
  5
100B2
330
1F
100
AcDbEntity
  8
0
100
AcDbLine
 10
29.899167467192065
 20
690.4271204919258
 30
0.0
 11
29.89916746719203
 21
694.5492972011281
 31
0.0
  0
SPLINE
  5
100B3
330
1F
100
AcDbEntity
  8
0
100
AcDbSpline
 70
0
 71
3
 72
20
 73
16
 74
0
 42
1e-09
 40
-0.0015786325062080884
 40
-0.0015786325062080884
 40
-0.0015786325062080884
 40
-0.0015786325062080884
 40
0.0
 40
0.0
 40
0.0
 40
0.5
 40
0.5
 40
0.5
 40
0.9486459028645273
 40
0.9486459028645273
 40
0.9486459028645273
 40
1.0
 40
1.0
 40
1.0
 40
1.000979158644169
 40
1.000979158644169
 40
1.000979158644169
 40
1.000979158644169
 10
29.89916746719185
 20
694.5492972011281
 30
0.0
 10
29.8849925632668
 20
694.5561064332562
 30
0.0
 10
29.870817659341817
 20
694.5629156653844
 30
0.0
 10
29.856642755416836
 20
694.5697248975125
 30
0.0
 10
25.378004297783008
 20
696.7211390472886
 30
0.0
 10
22.873437179878273
 20
699.2224666922268
 30
0.0
 10
22.933106518930693
 20
702.1921368665792
 30
0.0
 10
22.986647327915186
 20
704.8567975797434
 30
0.0
 10
25.070750475689856
 20
707.9335511940625
 30
0.0
 10
28.60255643584452
 20
711.28417754343
 30
0.0
 10
29.00682337594894
 20
711.6677058224391
 30
0.0
 10
29.430609033128796
 20
712.0549511618635
 30
0.0
 10
29.873781259013477
 20
712.4458757440724
 30
0.0
 10
29.88224332840634
 20
712.45334018058
 30
0.0
 10
29.890705397799238
 20
712.4608046170875
 30
0.0
 10
29.899167467192207
 20
712.4682690535952
 30
0.0
  0
LINE
  5
100B4
330
1F
100
AcDbEntity
  8
0
100
AcDbLine
 10
29.89916746719217
 20
712.4682690535952
 30
0.0
 11
29.899167467192065
 21
714.5771204919259
 31
0.0
  0
LINE
  5
100B5
330
1F
100
AcDbEntity
  8
0
100
AcDbLine
 10
29.899167467192065
 20
714.5771204919259
 30
0.0
 11
24.74916746719206
 21
714.5771204919259
 31
0.0
  0
LINE
  5
100B6
330
1F
100
AcDbEntity
  8
0
100
AcDbLine
 10
24.74916746719206
 20
714.5771204919259
 30
0.0
 11
24.74916746719206
 21
712.5771204919259
 31
0.0
  0
LINE
  5
100B7
330
1F
100
AcDbEntity
  8
0
100
AcDbLine
 10
24.74916746719206
 20
712.5771204919259
 30
0.0
 11
15.150000000000006
 21
712.5771204919259
 31
0.0
  0
LINE
  5
100B8
330
1F
100
AcDbEntity
  8
0
100
AcDbLine
 10
15.150000000000006
 20
712.5771204919259
 30
0.0
 11
15.150000000000006
 21
714.5771204919259
 31
0.0
  0
LINE
  5
100B9
330
1F
100
AcDbEntity
  8
0
100
AcDbLine
 10
15.150000000000006
 20
714.5771204919259
 30
0.0
 11
10.0
 21
714.5771204919259
 31
0.0
  0
LINE
  5
100BA
330
1F
100
AcDbEntity
  8
0
100
AcDbLine
 10
10.0
 20
714.5771204919259
 30
0.0
 11
10.0
 21
712.4539670979144
 31
0.0
  0
SPLINE
  5
100BB
330
1F
100
AcDbEntity
  8
0
100
AcDbSpline
 70
0
 71
3
 72
17
 73
13
 74
0
 42
1e-09
 40
-1.0017781908319503
 40
-1.0017781908319503
 40
-1.0017781908319503
 40
-1.0017781908319503
 40
-1.0
 40
-1.0
 40
-1.0
 40
-0.5
 40
-0.5
 40
-0.5
 40
0.0
 40
0.0
 40
0.0
 40
0.0008287023398587418
 40
0.0008287023398587418
 40
0.0008287023398587418
 40
0.0008287023398587418
 10
10.00000000000039
 20
712.4539670979142
 30
0.0
 10
10.014594804363135
 20
712.4472864914438
 30
0.0
 10
10.02918960872588
 20
712.4406058849735
 30
0.0
 10
10.043784413088623
 20
712.4339252785031
 30
0.0
 10
14.136097517279325
 20
710.5607152838301
 30
0.0
 10
16.612300962588407
 20
708.216179294474
 30
0.0
 10
16.968644423878843
 20
705.2383117445177
 30
0.0
 10
17.324987885168994
 20
702.2604441945612
 30
0.0
 10
15.6084365864751
 20
698.6265241188039
 30
0.0
 10
12.436024606395755
 20
694.548169277637
 30
0.0
 10
12.430757571861157
 20
694.5413981407457
 30
0.0
 10
12.42549053732656
 20
694.5346270038544
 30
0.0
 10
12.420223502791927
 20
694.5278558669631
 30
0.0
  0
LINE
  5
100BC
330
1F
100
AcDbEntity
  8
0
100
AcDbLine
 10
12.420223502791927
 20
694.5278558669631
 30
0.0
 11
12.420223502791963
 21
690.4271204919258
 31
0.0
  0
LINE
  5
100BD
330
1F
100
AcDbEntity
  8
0
100
AcDbLine
 10
12.420223502791963
 20
690.4271204919258
 30
0.0
 11
16.234695484992017
 21
690.4271204919258
 31
0.0
  0
LINE
  5
100BE
330
1F
100
AcDbEntity
  8
0
100
AcDbLine
 10
16.234695484992017
 20
690.4271204919258
 30
0.0
 11
16.234695484992017
 21
692.4271204919258
 31
0.0
  0
LINE
  5
100BF
330
1F
100
AcDbEntity
  8
0
100
AcDbLine
 10
22.945184449763154
 20
866.579185541525
 30
0.0
 11
22.94518444976365
 21
864.5771204919299
 31
0.0
  0
LINE
  5
100C0
330
1F
100
AcDbEntity
  8
0
100
AcDbLine
 10
22.94518444976365
 20
864.5771204919299
 30
0.0
 11
26.09518444976363
 21
864.5771204919299
 31
0.0
  0
LINE
  5
100C1
330
1F
100
AcDbEntity
  8
0
100
AcDbLine
 10
26.09518444976363
 20
864.5771204919299
 30
0.0
 11
26.095184449763664
 21
868.6761717100916
 31
0.0
  0
SPLINE
  5
100C2
330
1F
100
AcDbEntity
  8
0
100
AcDbSpline
 70
0
 71
3
 72
17
 73
13
 74
0
 42
1e-09
 40
-0.0006150086367475286
 40
-0.0006150086367475286
 40
-0.0006150086367475286
 40
-0.0006150086367475286
 40
0.0
 40
0.0
 40
0.0
 40
0.5
 40
0.5
 40
0.5
 40
1.0
 40
1.0
 40
1.0
 40
1.0025076920293294
 40
1.0025076920293294
 40
1.0025076920293294
 40
1.0025076920293294
 10
26.095184449763842
 20
868.6761717100915
 30
0.0
 10
26.09122766670815
 20
868.6823405062906
 30
0.0
 10
26.087270883652494
 20
868.6885093024898
 30
0.0
 10
26.083314100596837
 20
868.6946780986889
 30
0.0
 10
22.87310667910372
 20
873.6995305410848
 30
0.0
 10
21.07097005021714
 20
879.1415076365946
 30
0.0
 10
21.12178529772823
 20
885.1682768364197
 30
0.0
 10
21.17260054523907
 20
891.1950460362447
 30
0.0
 10
23.016679947027576
 20
897.7924351575901
 30
0.0
 10
26.088838023407988
 20
904.7777159327437
 30
0.0
 10
26.104259644700427
 20
904.812780650137
 30
0.0
 10
26.11968126599283
 20
904.8478453675302
 30
0.0
 10
26.13510288728527
 20
904.8829100849235
 30
0.0
  0
LINE
  5
100C3
330
1F
100
AcDbEntity
  8
0
100
AcDbLine
 10
26.135102887285306
 20
904.8829100849235
 30
0.0
 11
22.33841353317672
 21
904.8829100849235
 31
0.0
  0
LINE
  5
100C4
330
1F
100
AcDbEntity
  8
0
100
AcDbLine
 10
22.33841353317672
 20
904.8829100849235
 30
0.0
 11
22.33841353317672
 21
906.8829100849235
 31
0.0
  0
LINE
  5
100C5
330
1F
100
AcDbEntity
  8
0
100
AcDbLine
 10
22.33841353317672
 20
906.8829100849235
 30
0.0
 11
12.188413533176714
 21
906.8829100849235
 31
0.0
  0
LINE
  5
100C6
330
1F
100
AcDbEntity
  8
0
100
AcDbLine
 10
12.188413533176714
 20
906.8829100849235
 30
0.0
 11
12.188413533176714
 21
904.8829100849235
 31
0.0
  0
LINE
  5
100C7
330
1F
100
AcDbEntity
  8
0
100
AcDbLine
 10
12.188413533176714
 20
904.8829100849235
 30
0.0
 11
10.0
 21
904.8829100849237
 31
0.0
  0
SPLINE
  5
100C8
330
1F
100
AcDbEntity
  8
0
100
AcDbSpline
 70
0
 71
3
 72
20
 73
16
 74
0
 42
1e-09
 40
-1.0015449410463977
 40
-1.0015449410463977
 40
-1.0015449410463977
 40
-1.0015449410463977
 40
-1.0
 40
-1.0
 40
-1.0
 40
-0.6143495981988197
 40
-0.6143495981988197
 40
-0.6143495981988197
 40
-0.27357952402967767
 40
-0.27357952402967767
 40
-0.27357952402967767
 40
0.0
 40
0.0
 40
0.0
 40
0.0012856186543420598
 40
0.0012856186543420598
 40
0.0012856186543420598
 40
0.0012856186543420598
 10
10.000000000000142
 20
904.8829100849238
 30
0.0
 10
10.003584071096867
 20
904.8547533104903
 30
0.0
 10
10.007168142193734
 20
904.8265965360569
 30
0.0
 10
10.010752213290566
 20
904.7984397616234
 30
0.0
 10
10.905257900740892
 20
897.7711252384406
 30
0.0
 10
11.550880242249413
 20
891.4062022153303
 30
0.0
 10
11.845371103175708
 20
885.9773588734017
 30
0.0
 10
12.105590389999463
 20
881.1803008653166
 30
0.0
 10
12.06889345166271
 20
877.1741410956778
 30
0.0
 10
11.660220338827543
 20
874.1656759317411
 30
0.0
 10
11.332126400515108
 20
871.7503979187982
 30
0.0
 10
10.775747948265177
 20
869.9459634183678
 30
0.0
 10
10.020907735265823
 20
868.6928855111383
 30
0.0
 10
10.017322455934625
 20
868.6869337424808
 30
0.0
 10
10.013737176603428
 20
868.6809819738234
 30
0.0
 10
10.010151897272266
 20
868.6750302051659
 30
0.0
  0
LINE
  5
100C9
330
1F
100
AcDbEntity
  8
0
100
AcDbLine
 10
10.010151897272301
 20
868.6750302051659
 30
0.0
 11
10.010151897272372
 21
864.5771204919258
 31
0.0
  0
LINE
  5
100CA
330
1F
100
AcDbEntity
  8
0
100
AcDbLine
 10
10.010151897272372
 20
864.5771204919258
 30
0.0
 11
13.095184449763657
 21
864.57712049193
 31
0.0
  0
LINE
  5
100CB
330
1F
100
AcDbEntity
  8
0
100
AcDbLine
 10
13.095184449763657
 20
864.57712049193
 30
0.0
 11
13.09518444976316
 21
866.579185541525
 31
0.0
  0
LINE
  5
100CC
330
1F
100
AcDbEntity
  8
0
100
AcDbLine
 10
13.09518444976316
 20
866.579185541525
 30
0.0
 11
22.945184449763154
 21
866.579185541525
 31
0.0
  0
LINE
  5
100CD
330
1F
100
AcDbEntity
  8
0
100
AcDbLine
 10
24.837021003891707
 20
1065.4050887205126
 30
0.0
 11
14.987021003891712
 21
1065.4050887205126
 31
0.0
  0
LINE
  5
100CE
330
1F
100
AcDbEntity
  8
0
100
AcDbLine
 10
14.987021003891712
 20
1065.4050887205126
 30
0.0
 11
14.987021003891712
 21
1067.2550887205125
 31
0.0
  0
LINE
  5
100CF
330
1F
100
AcDbEntity
  8
0
100
AcDbLine
 10
14.987021003891712
 20
1067.2550887205125
 30
0.0
 11
24.837021003891707
 21
1067.2550887205125
 31
0.0
  0
LINE
  5
100D0
330
1F
100
AcDbEntity
  8
0
100
AcDbLine
 10
24.837021003891707
 20
1067.2550887205125
 30
0.0
 11
24.837021003891707
 21
1065.4050887205126
 31
0.0
  0
LINE
  5
100D1
330
1F
100
AcDbEntity
  8
0
100
AcDbLine
 10
34.45909643165575
 20
1108.0565881528137
 30
0.0
 11
39.309096431655746
 21
1108.0565881528137
 31
0.0
  0
LINE
  5
100D2
330
1F
100
AcDbEntity
  8
0
100
AcDbLine
 10
39.309096431655746
 20
1108.0565881528137
 30
0.0
 11
39.309096431655746
 21
1106.2065881528138
 31
0.0
  0
LINE
  5
100D3
330
1F
100
AcDbEntity
  8
0
100
AcDbLine
 10
39.309096431655746
 20
1106.2065881528138
 30
0.0
 11
34.45909643165575
 21
1106.2065881528138
 31
0.0
  0
LINE
  5
100D4
330
1F
100
AcDbEntity
  8
0
100
AcDbLine
 10
34.45909643165575
 20
1106.2065881528138
 30
0.0
 11
34.45909643165575
 21
1108.0565881528137
 31
0.0
  0
LINE
  5
100D5
330
1F
100
AcDbEntity
  8
0
100
AcDbLine
 10
23.082131808101572
 20
1252.660032948857
 30
0.0
 11
32.932131808101566
 21
1252.6600329488567
 31
0.0
  0
LINE
  5
100D6
330
1F
100
AcDbEntity
  8
0
100
AcDbLine
 10
32.932131808101566
 20
1252.6600329488567
 30
0.0
 11
32.932131808101566
 21
1250.8100329488568
 31
0.0
  0
LINE
  5
100D7
330
1F
100
AcDbEntity
  8
0
100
AcDbLine
 10
32.932131808101566
 20
1250.8100329488568
 30
0.0
 11
23.082131808101572
 21
1250.8100329488568
 31
0.0
  0
LINE
  5
100D8
330
1F
100
AcDbEntity
  8
0
100
AcDbLine
 10
23.082131808101572
 20
1250.8100329488568
 30
0.0
 11
23.082131808101572
 21
1252.660032948857
 31
0.0
  0
LINE
  5
100D9
330
1F
100
AcDbEntity
  8
0
100
AcDbLine
 10
55.427552183883726
 20
1250.8100329488568
 30
0.0
 11
45.57755218388373
 21
1250.8100329488568
 31
0.0
  0
LINE
  5
100DA
330
1F
100
AcDbEntity
  8
0
100
AcDbLine
 10
45.57755218388373
 20
1250.8100329488568
 30
0.0
 11
45.57755218388373
 21
1252.6600329488567
 31
0.0
  0
LINE
  5
100DB
330
1F
100
AcDbEntity
  8
0
100
AcDbLine
 10
45.57755218388373
 20
1252.6600329488567
 30
0.0
 11
55.427552183883726
 21
1252.6600329488567
 31
0.0
  0
LINE
  5
100DC
330
1F
100
AcDbEntity
  8
0
100
AcDbLine
 10
55.427552183883726
 20
1252.6600329488567
 30
0.0
 11
55.427552183883726
 21
1250.8100329488568
 31
0.0
  0
LINE
  5
100DD
330
1F
100
AcDbEntity
  8
0
100
AcDbLine
 10
25.5261724566503
 20
1258.8100329488568
 30
0.0
 11
25.5261724566503
 21
1262.8100329488568
 31
0.0
  0
LINE
  5
100DE
330
1F
100
AcDbEntity
  8
0
100
AcDbLine
 10
25.5261724566503
 20
1262.8100329488568
 30
0.0
 11
21.37617245665031
 21
1262.8100329488568
 31
0.0
  0
LINE
  5
100DF
330
1F
100
AcDbEntity
  8
0
100
AcDbLine
 10
21.37617245665031
 20
1262.8100329488568
 30
0.0
 11
21.37617245665031
 21
1258.8100329488568
 31
0.0
  0
LINE
  5
100E0
330
1F
100
AcDbEntity
  8
0
100
AcDbLine
 10
21.37617245665031
 20
1258.8100329488568
 30
0.0
 11
14.508233862836313
 21
1258.8100329488568
 31
0.0
  0
LINE
  5
100E1
330
1F
100
AcDbEntity
  8
0
100
AcDbLine
 10
14.508233862836313
 20
1258.8100329488568
 30
0.0
 11
14.508233862836242
 21
1232.7514873320274
 31
0.0
  0
SPLINE
  5
100E2
330
1F
100
AcDbEntity
  8
0
100
AcDbSpline
 70
0
 71
3
 72
20
 73
16
 74
0
 42
1e-09
 40
-1.2804442883240811e-05
 40
-1.2804442883240811e-05
 40
-1.2804442883240811e-05
 40
-1.2804442883240811e-05
 40
0.0
 40
0.0
 40
0.0
 40
0.5
 40
0.5
 40
0.5
 40
0.9578072776374817
 40
0.9578072776374817
 40
0.9578072776374817
 40
1.0
 40
1.0
 40
1.0
 40
1.0002526632059716
 40
1.0002526632059716
 40
1.0002526632059716
 40
1.0002526632059716
 10
34.309096431655675
 20
1171.3727815489249
 30
0.0
 10
34.309100645326154
 20
1171.3730110212862
 30
0.0
 10
34.30910485899656
 20
1171.3732404936466
 30
0.0
 10
34.30910907266697
 20
1171.373469966007
 30
0.0
 10
34.47348508109372
 20
1180.3252262703602
 30
0.0
 10
33.0882331226189
 20
1189.846789839221
 30
0.0
 10
29.711814998944178
 20
1200.1018599984866
 30
0.0
 10
26.62031742021317
 20
1209.4915515016762
 30
0.0
 10
21.9273486456622
 20
1219.472138853256
 30
0.0
 10
16.14570238185121
 20
1229.8532515294378
 30
0.0
 10
15.612850661218587
 20
1230.8100021674368
 30
0.0
 10
15.070320930421069
 20
1231.7703130181703
 30
0.0
 10
14.518156123605948
 20
1232.734167119619
 30
0.0
 10
14.514848703349415
 20
1232.7399405237552
 30
0.0
 10
14.511541283092846
 20
1232.7457139278913
 30
0.0
 10
14.508233862836313
 20
1232.7514873320274
 30
0.0
  0
LINE
  5
100E3
330
1F
100
AcDbEntity
  8
0
100
AcDbLine
 10
34.309096431655675
 20
1171.3727815489249
 30
0.0
 11
34.30909643165571
 21
1167.4354046900544
 31
0.0
  0
LINE
  5
100E4
330
1F
100
AcDbEntity
  8
0
100
AcDbLine
 10
34.30909643165571
 20
1167.4354046900544
 30
0.0
 11
34.278796740868465
 21
1167.3759275192497
 31
0.0
  0
SPLINE
  5
100E5
330
1F
100
AcDbEntity
  8
0
100
AcDbSpline
 70
0
 71
3
 72
29
 73
25
 74
0
 42
1e-09
 40
0.01120949629769244
 40
0.01120949629769244
 40
0.01120949629769244
 40
0.01120949629769244
 40
0.011308436610309808
 40
0.011308436610309808
 40
0.011308436610309808
 40
0.19281196151158086
 40
0.19281196151158086
 40
0.19281196151158086
 40
0.3242220386408715
 40
0.3242220386408715
 40
0.3242220386408715
 40
0.4585777050751038
 40
0.4585777050751038
 40
0.4585777050751038
 40
0.5641800532794917
 40
0.5641800532794917
 40
0.5641800532794917
 40
0.6645440844839758
 40
0.6645440844839758
 40
0.6645440844839758
 40
0.7890744401835134
 40
0.7890744401835134
 40
0.7890744401835134
 40
0.8474525469044434
 40
0.8474525469044434
 40
0.8474525469044434
 40
0.8474525469044434
 10
34.278796740868465
 20
1167.3759275192508
 30
0.0
 10
34.27871187037465
 20
1167.3701199807074
 30
0.0
 10
34.278626999880835
 20
1167.3643124421642
 30
0.0
 10
34.27854212938702
 20
1167.3585049036208
 30
0.0
 10
34.122842739999236
 20
1156.7042696746435
 30
0.0
 10
34.10386642463501
 20
1148.076075183567
 30
0.0
 10
34.17181951245326
 20
1141.432791336402
 30
0.0
 10
34.22101811901602
 20
1136.6229980102253
 30
0.0
 10
34.31720471260676
 20
1132.8658299306833
 30
0.0
 10
34.337205820192096
 20
1129.831856798127
 30
0.0
 10
34.357655257539335
 20
1126.7298764091568
 30
0.0
 10
34.29983389152476
 20
1124.3972947063435
 30
0.0
 10
33.8611695805312
 20
1121.8488896120186
 30
0.0
 10
33.51638336835415
 20
1119.8458660754677
 30
0.0
 10
32.922002499275365
 20
1117.662995764995
 30
0.0
 10
31.961940705097838
 20
1114.8452930812807
 30
0.0
 10
31.049501980889048
 20
1112.1673602049593
 30
0.0
 10
29.800296858922664
 20
1108.8967376699445
 30
0.0
 10
28.280636700340878
 20
1105.0757148178238
 30
0.0
 10
26.395062577625204
 20
1100.3346404588117
 30
0.0
 10
24.099829495677454
 20
1094.760844240728
 30
0.0
 10
21.823643368463877
 20
1089.2711163464294
 30
0.0
 10
20.756598824145847
 20
1086.69760791082
 30
0.0
 10
19.696633011118834
 20
1084.1510158857943
 30
0.0
 10
18.692794130069757
 20
1081.74397083803
 30
0.0
  0
SPLINE
  5
100E6
330
1F
100
AcDbEntity
  8
0
100
AcDbSpline
 70
0
 71
3
 72
17
 73
13
 74
0
 42
1e-09
 40
0.0011980731291311184
 40
0.0011980731291311184
 40
0.0011980731291311184
 40
0.0011980731291311184
 40
0.23135918552942517
 40
0.23135918552942517
 40
0.23135918552942517
 40
0.5191991080009184
 40
0.5191991080009184
 40
0.5191991080009184
 40
0.7699686484565988
 40
0.7699686484565988
 40
0.7699686484565988
 40
0.963244810961894
 40
0.963244810961894
 40
0.963244810961894
 40
0.963244810961894
 10
18.692799918053787
 20
1081.7439684222227
 30
0.0
 10
17.2354141922061
 20
1078.2522465368713
 30
0.0
 10
15.905670664394805
 20
1075.8953328207247
 30
0.0
 10
14.73848850529582
 20
1074.2836627288652
 30
0.0
 10
13.278808289635123
 20
1072.2681050638341
 30
0.0
 10
12.07859854825881
 20
1071.3409645953843
 30
0.0
 10
11.259453446648145
 20
1070.2834957613063
 30
0.0
 10
10.545804558288097
 20
1069.3622164221133
 30
0.0
 10
10.136960376117699
 20
1068.3194280800676
 30
0.0
 10
10.029940914395333
 20
1066.8900789785282
 30
0.0
 10
9.947457567982923
 20
1065.7884335844192
 30
0.0
 10
10.03659390919826
 20
1064.4763481236369
 30
0.0
 10
10.28089579300265
 20
1062.9519346156758
 30
0.0
  0
LINE
  5
100E7
330
1F
100
AcDbEntity
  8
0
100
AcDbLine
 10
10.28089579300265
 20
1062.9519346156758
 30
0.0
 11
10.280895792999097
 21
1056.8829100849237
 31
0.0
  0
LINE
  5
100E8
330
1F
100
AcDbEntity
  8
0
100
AcDbLine
 10
10.280895792999097
 20
1056.8829100849237
 30
0.0
 11
29.66222048960529
 21
1056.8829100849237
 31
0.0
  0
LINE
  5
100E9
330
1F
100
AcDbEntity
  8
0
100
AcDbLine
 10
29.66222048960529
 20
1056.8829100849237
 30
0.0
 11
29.66222048960529
 21
1060.0329100849237
 31
0.0
  0
LINE
  5
100EA
330
1F
100
AcDbEntity
  8
0
100
AcDbLine
 10
29.66222048960529
 20
1060.0329100849237
 30
0.0
 11
23.515011197460296
 21
1060.0329100849237
 31
0.0
  0
LINE
  5
100EB
330
1F
100
AcDbEntity
  8
0
100
AcDbLine
 10
23.515011197460296
 20
1060.0329100849237
 30
0.0
 11
23.515011197460296
 21
1062.8829100849237
 31
0.0
  0
LINE
  5
100EC
330
1F
100
AcDbEntity
  8
0
100
AcDbLine
 10
23.515011197460296
 20
1062.8829100849237
 30
0.0
 11
38.43979243377494
 21
1062.8829100849237
 31
0.0
  0
SPLINE
  5
100ED
330
1F
100
AcDbEntity
  8
0
100
AcDbSpline
 70
0
 71
3
 72
17
 73
13
 74
0
 42
1e-09
 40
-0.0010460217653282654
 40
-0.0010460217653282654
 40
-0.0010460217653282654
 40
-0.0010460217653282654
 40
0.0
 40
0.0
 40
0.0
 40
0.46327624555745234
 40
0.46327624555745234
 40
0.46327624555745234
 40
0.9265524911149047
 40
0.9265524911149047
 40
0.9265524911149047
 40
0.9269888425824075
 40
0.9269888425824075
 40
0.9269888425824075
 40
0.9269888425824075
 10
54.188499157206216
 20
1106.2065881528135
 30
0.0
 10
54.193961747451354
 20
1106.1890054127407
 30
0.0
 10
54.199424337696456
 20
1106.1714226726679
 30
0.0
 10
54.20488692794156
 20
1106.153839932595
 30
0.0
 10
56.6280376245501
 20
1098.354311330962
 30
0.0
 10
56.84638355860536
 20
1090.806511603931
 30
0.0
 10
54.18742763610788
 20
1083.5978057060777
 30
0.0
 10
51.528471713610394
 20
1076.3890998082243
 30
0.0
 10
45.98675711783067
 20
1069.5270358332143
 30
0.0
 10
38.46104125087586
 20
1062.9016169185622
 30
0.0
 10
38.45395831184221
 20
1062.8953813073495
 30
0.0
 10
38.446875372808556
 20
1062.8891456961367
 30
0.0
 10
38.43979243377494
 20
1062.8829100849237
 30
0.0
  0
LINE
  5
100EE
330
1F
100
AcDbEntity
  8
0
100
AcDbLine
 10
54.188499157206216
 20
1106.2065881528135
 30
0.0
 11
49.20826389884781
 21
1106.2065881528154
 31
0.0
  0
LINE
  5
100EF
330
1F
100
AcDbEntity
  8
0
100
AcDbLine
 10
49.20826389884781
 20
1106.2065881528154
 30
0.0
 11
49.20826389884781
 21
1108.0565881528153
 31
0.0
  0
LINE
  5
100F0
330
1F
100
AcDbEntity
  8
0
100
AcDbLine
 10
49.20826389884781
 20
1108.0565881528153
 30
0.0
 11
54.2207714382197
 21
1108.0565881528137
 31
0.0
  0
SPLINE
  5
100F1
330
1F
100
AcDbEntity
  8
0
100
AcDbSpline
 70
0
 71
3
 72
20
 73
16
 74
0
 42
1e-09
 40
-0.00026563892056950876
 40
-0.00026563892056950876
 40
-0.00026563892056950876
 40
-0.00026563892056950876
 40
0.0
 40
0.0
 40
0.0
 40
0.4148903627840464
 40
0.4148903627840464
 40
0.4148903627840464
 40
0.7412144103868664
 40
0.7412144103868664
 40
0.7412144103868664
 40
1.0
 40
1.0
 40
1.0
 40
1.0026272031132313
 40
1.0026272031132313
 40
1.0026272031132313
 40
1.0026272031132313
 10
66.72302920190536
 20
1154.443663607072
 30
0.0
 10
66.72052398502548
 20
1154.438497284481
 30
0.0
 10
66.7180187681455
 20
1154.4333309618896
 30
0.0
 10
66.7155135512655
 20
1154.4281646392983
 30
0.0
 10
62.80373147116642
 20
1146.3611871675164
 30
0.0
 10
59.58059073174291
 20
1138.818855680267
 30
0.0
 10
57.332890197349336
 20
1132.0214893063421
 30
0.0
 10
55.565004505186096
 20
1126.6751513164838
 30
0.0
 10
54.45157387389426
 20
1121.8288714159748
 30
0.0
 10
54.028969024098544
 20
1117.5107671378373
 30
0.0
 10
53.6938296249916
 20
1114.086369917229
 30
0.0
 10
53.76879596690302
 20
1110.9754006990206
 30
0.0
 10
54.207380568959536
 20
1108.1430650518525
 30
0.0
 10
54.21184419204626
 20
1108.1142394188396
 30
0.0
 10
54.21630781513298
 20
1108.0854137858266
 30
0.0
 10
54.220771438219735
 20
1108.0565881528137
 30
0.0
  0
LINE
  5
100F2
330
1F
100
AcDbEntity
  8
0
100
AcDbLine
 10
66.72302920190536
 20
1154.443663607072
 30
0.0
 11
66.72302920190565
 21
1185.9805223666451
 31
0.0
  0
SPLINE
  5
100F3
330
1F
100
AcDbEntity
  8
0
100
AcDbSpline
 70
0
 71
3
 72
17
 73
13
 74
0
 42
1e-09
 40
-0.00026719558846891554
 40
-0.00026719558846891554
 40
-0.00026719558846891554
 40
-0.00026719558846891554
 40
0.0
 40
0.0
 40
0.0
 40
0.5
 40
0.5
 40
0.5
 40
1.0
 40
1.0
 40
1.0
 40
1.0004775003636432
 40
1.0004775003636432
 40
1.0004775003636432
 40
1.0004775003636432
 10
59.743791920480874
 20
1233.1857608050127
 30
0.0
 10
59.74191532467345
 20
1233.1811945625236
 30
0.0
 10
59.740038728866026
 20
1233.1766283200343
 30
0.0
 10
59.7381621330586
 20
1233.1720620775452
 30
0.0
 10
56.23016739102337
 20
1224.6362044466011
 30
0.0
 10
54.67707990763952
 20
1216.3855067433574
 30
0.0
 10
55.838945608138005
 20
1208.5280704760296
 30
0.0
 10
57.00081130863677
 20
1200.6706342087023
 30
0.0
 10
60.877443531329696
 20
1193.1983232802902
 30
0.0
 10
66.70631228281218
 20
1186.0011634795646
 30
0.0
 10
66.71188458917666
 20
1185.9942831085914
 30
0.0
 10
66.71745689554112
 20
1185.9874027376184
 30
0.0
 10
66.7230292019056
 20
1185.9805223666451
 30
0.0
  0
LINE
  5
100F4
330
1F
100
AcDbEntity
  8
0
100
AcDbLine
 10
59.743791920480874
 20
1233.1857608050127
 30
0.0
 11
59.74379192048098
 21
1258.8100329488568
 31
0.0
  0
LINE
  5
100F5
330
1F
100
AcDbEntity
  8
0
100
AcDbLine
 10
59.74379192048098
 20
1258.8100329488568
 30
0.0
 11
47.42135704050963
 21
1258.8100329488568
 31
0.0
  0
LINE
  5
100F6
330
1F
100
AcDbEntity
  8
0
100
AcDbLine
 10
47.42135704050963
 20
1258.8100329488568
 30
0.0
 11
47.42135704050963
 21
1261.6600329488567
 31
0.0
  0
LINE
  5
100F7
330
1F
100
AcDbEntity
  8
0
100
AcDbLine
 10
47.42135704050963
 20
1261.6600329488567
 30
0.0
 11
48.921357040509655
 21
1261.6600329488567
 31
0.0
  0
LINE
  5
100F8
330
1F
100
AcDbEntity
  8
0
100
AcDbLine
 10
48.921357040509655
 20
1261.6600329488567
 30
0.0
 11
48.921357040509655
 21
1264.8100329488568
 31
0.0
  0
LINE
  5
100F9
330
1F
100
AcDbEntity
  8
0
100
AcDbLine
 10
48.921357040509655
 20
1264.8100329488568
 30
0.0
 11
40.77135704050964
 21
1264.8100329488568
 31
0.0
  0
LINE
  5
100FA
330
1F
100
AcDbEntity
  8
0
100
AcDbLine
 10
40.77135704050964
 20
1264.8100329488568
 30
0.0
 11
40.77135704050964
 21
1261.6600329488567
 31
0.0
  0
LINE
  5
100FB
330
1F
100
AcDbEntity
  8
0
100
AcDbLine
 10
40.77135704050964
 20
1261.6600329488567
 30
0.0
 11
42.27135704050963
 21
1261.6600329488567
 31
0.0
  0
LINE
  5
100FC
330
1F
100
AcDbEntity
  8
0
100
AcDbLine
 10
42.27135704050963
 20
1261.6600329488567
 30
0.0
 11
42.27135704050963
 21
1258.8100329488568
 31
0.0
  0
LINE
  5
100FD
330
1F
100
AcDbEntity
  8
0
100
AcDbLine
 10
42.27135704050963
 20
1258.8100329488568
 30
0.0
 11
25.5261724566503
 21
1258.8100329488568
 31
0.0
  0
LINE
  5
100FE
330
1F
100
AcDbEntity
  8
0
100
AcDbLine
 10
62.405353632094645
 20
1169.447093015793
 30
0.0
 11
57.55535363209465
 21
1169.447093015793
 31
0.0
  0
LINE
  5
100FF
330
1F
100
AcDbEntity
  8
0
100
AcDbLine
 10
57.55535363209465
 20
1169.447093015793
 30
0.0
 11
57.55535363209465
 21
1171.2970930157928
 31
0.0
  0
LINE
  5
10100
330
1F
100
AcDbEntity
  8
0
100
AcDbLine
 10
57.55535363209465
 20
1171.2970930157928
 30
0.0
 11
62.405353632094645
 21
1171.2970930157928
 31
0.0
  0
LINE
  5
10101
330
1F
100
AcDbEntity
  8
0
100
AcDbLine
 10
62.405353632094645
 20
1171.2970930157928
 30
0.0
 11
62.405353632094645
 21
1169.447093015793
 31
0.0
  0
LINE
  5
10102
330
1F
100
AcDbEntity
  8
0
100
AcDbLine
 10
42.982419820498244
 20
1171.2970930157928
 30
0.0
 11
42.982419820498244
 21
1169.447093015793
 31
0.0
  0
LINE
  5
10103
330
1F
100
AcDbEntity
  8
0
100
AcDbLine
 10
42.982419820498244
 20
1169.447093015793
 30
0.0
 11
38.13241982049825
 21
1169.447093015793
 31
0.0
  0
LINE
  5
10104
330
1F
100
AcDbEntity
  8
0
100
AcDbLine
 10
38.13241982049825
 20
1169.447093015793
 30
0.0
 11
38.13241982049825
 21
1171.2970930157928
 31
0.0
  0
LINE
  5
10105
330
1F
100
AcDbEntity
  8
0
100
AcDbLine
 10
38.13241982049825
 20
1171.2970930157928
 30
0.0
 11
42.982419820498244
 21
1171.2970930157928
 31
0.0
  0
LINE
  5
10106
330
1F
100
AcDbEntity
  8
0
100
AcDbLine
 10
14.987021003891712
 20
1423.3322115844458
 30
0.0
 11
14.987021003891712
 21
1425.1822115844457
 31
0.0
  0
LINE
  5
10107
330
1F
100
AcDbEntity
  8
0
100
AcDbLine
 10
14.987021003891712
 20
1425.1822115844457
 30
0.0
 11
24.837021003891707
 21
1425.1822115844457
 31
0.0
  0
LINE
  5
10108
330
1F
100
AcDbEntity
  8
0
100
AcDbLine
 10
24.837021003891707
 20
1425.1822115844457
 30
0.0
 11
24.837021003891707
 21
1423.3322115844458
 31
0.0
  0
LINE
  5
10109
330
1F
100
AcDbEntity
  8
0
100
AcDbLine
 10
24.837021003891707
 20
1423.3322115844458
 30
0.0
 11
14.987021003891712
 21
1423.3322115844458
 31
0.0
  0
LINE
  5
1010A
330
1F
100
AcDbEntity
  8
0
100
AcDbLine
 10
34.45909643165575
 20
1465.9837110167468
 30
0.0
 11
39.309096431655746
 21
1465.9837110167468
 31
0.0
  0
LINE
  5
1010B
330
1F
100
AcDbEntity
  8
0
100
AcDbLine
 10
39.309096431655746
 20
1465.9837110167468
 30
0.0
 11
39.309096431655746
 21
1464.133711016747
 31
0.0
  0
LINE
  5
1010C
330
1F
100
AcDbEntity
  8
0
100
AcDbLine
 10
39.309096431655746
 20
1464.133711016747
 30
0.0
 11
34.45909643165575
 21
1464.133711016747
 31
0.0
  0
LINE
  5
1010D
330
1F
100
AcDbEntity
  8
0
100
AcDbLine
 10
34.45909643165575
 20
1464.133711016747
 30
0.0
 11
34.45909643165575
 21
1465.9837110167468
 31
0.0
  0
LINE
  5
1010E
330
1F
100
AcDbEntity
  8
0
100
AcDbLine
 10
32.932131808101566
 20
1608.73715581279
 30
0.0
 11
23.082131808101572
 21
1608.73715581279
 31
0.0
  0
LINE
  5
1010F
330
1F
100
AcDbEntity
  8
0
100
AcDbLine
 10
23.082131808101572
 20
1608.73715581279
 30
0.0
 11
23.082131808101572
 21
1610.5871558127901
 31
0.0
  0
LINE
  5
10110
330
1F
100
AcDbEntity
  8
0
100
AcDbLine
 10
23.082131808101572
 20
1610.5871558127901
 30
0.0
 11
32.932131808101566
 21
1610.58715581279
 31
0.0
  0
LINE
  5
10111
330
1F
100
AcDbEntity
  8
0
100
AcDbLine
 10
32.932131808101566
 20
1610.58715581279
 30
0.0
 11
32.932131808101566
 21
1608.73715581279
 31
0.0
  0
LINE
  5
10112
330
1F
100
AcDbEntity
  8
0
100
AcDbLine
 10
55.427552183883726
 20
1610.58715581279
 30
0.0
 11
55.427552183883726
 21
1608.73715581279
 31
0.0
  0
LINE
  5
10113
330
1F
100
AcDbEntity
  8
0
100
AcDbLine
 10
55.427552183883726
 20
1608.73715581279
 30
0.0
 11
45.57755218388373
 21
1608.73715581279
 31
0.0
  0
LINE
  5
10114
330
1F
100
AcDbEntity
  8
0
100
AcDbLine
 10
45.57755218388373
 20
1608.73715581279
 30
0.0
 11
45.57755218388373
 21
1610.58715581279
 31
0.0
  0
LINE
  5
10115
330
1F
100
AcDbEntity
  8
0
100
AcDbLine
 10
45.57755218388373
 20
1610.58715581279
 30
0.0
 11
55.427552183883726
 21
1610.58715581279
 31
0.0
  0
LINE
  5
10116
330
1F
100
AcDbEntity
  8
0
100
AcDbLine
 10
21.37617245665031
 20
1620.73715581279
 30
0.0
 11
21.37617245665031
 21
1616.73715581279
 31
0.0
  0
LINE
  5
10117
330
1F
100
AcDbEntity
  8
0
100
AcDbLine
 10
21.37617245665031
 20
1616.73715581279
 30
0.0
 11
14.508233862836313
 21
1616.73715581279
 31
0.0
  0
LINE
  5
10118
330
1F
100
AcDbEntity
  8
0
100
AcDbLine
 10
14.508233862836313
 20
1616.73715581279
 30
0.0
 11
14.508233862836242
 21
1590.6786101959606
 31
0.0
  0
SPLINE
  5
10119
330
1F
100
AcDbEntity
  8
0
100
AcDbSpline
 70
0
 71
3
 72
20
 73
16
 74
0
 42
1e-09
 40
-1.2804442883240811e-05
 40
-1.2804442883240811e-05
 40
-1.2804442883240811e-05
 40
-1.2804442883240811e-05
 40
0.0
 40
0.0
 40
0.0
 40
0.5
 40
0.5
 40
0.5
 40
0.9578072776374817
 40
0.9578072776374817
 40
0.9578072776374817
 40
1.0
 40
1.0
 40
1.0
 40
1.0002526632059716
 40
1.0002526632059716
 40
1.0002526632059716
 40
1.0002526632059716
 10
34.309096431655675
 20
1529.299904412858
 30
0.0
 10
34.309100645326154
 20
1529.3001338852193
 30
0.0
 10
34.30910485899656
 20
1529.3003633575797
 30
0.0
 10
34.30910907266697
 20
1529.3005928299401
 30
0.0
 10
34.47348508109372
 20
1538.2523491342934
 30
0.0
 10
33.0882331226189
 20
1547.773912703154
 30
0.0
 10
29.711814998944178
 20
1558.0289828624198
 30
0.0
 10
26.62031742021317
 20
1567.4186743656094
 30
0.0
 10
21.9273486456622
 20
1577.3992617171891
 30
0.0
 10
16.14570238185121
 20
1587.780374393371
 30
0.0
 10
15.612850661218587
 20
1588.73712503137
 30
0.0
 10
15.070320930421069
 20
1589.6974358821035
 30
0.0
 10
14.518156123605948
 20
1590.6612899835523
 30
0.0
 10
14.514848703349415
 20
1590.6670633876884
 30
0.0
 10
14.511541283092846
 20
1590.6728367918245
 30
0.0
 10
14.508233862836313
 20
1590.6786101959606
 30
0.0
  0
LINE
  5
1011A
330
1F
100
AcDbEntity
  8
0
100
AcDbLine
 10
34.309096431655675
 20
1529.299904412858
 30
0.0
 11
34.30909643165571
 21
1525.3625275539875
 31
0.0
  0
LINE
  5
1011B
330
1F
100
AcDbEntity
  8
0
100
AcDbLine
 10
34.30909643165571
 20
1525.3625275539875
 30
0.0
 11
34.278796740868465
 21
1525.3030503831828
 31
0.0
  0
SPLINE
  5
1011C
330
1F
100
AcDbEntity
  8
0
100
AcDbSpline
 70
0
 71
3
 72
29
 73
25
 74
0
 42
1e-09
 40
0.01120949629769244
 40
0.01120949629769244
 40
0.01120949629769244
 40
0.01120949629769244
 40
0.011308436610309808
 40
0.011308436610309808
 40
0.011308436610309808
 40
0.19281196151158086
 40
0.19281196151158086
 40
0.19281196151158086
 40
0.3242220386408715
 40
0.3242220386408715
 40
0.3242220386408715
 40
0.4585777050751038
 40
0.4585777050751038
 40
0.4585777050751038
 40
0.5641800532794917
 40
0.5641800532794917
 40
0.5641800532794917
 40
0.6645440844839758
 40
0.6645440844839758
 40
0.6645440844839758
 40
0.7890744401835134
 40
0.7890744401835134
 40
0.7890744401835134
 40
0.8474525469044434
 40
0.8474525469044434
 40
0.8474525469044434
 40
0.8474525469044434
 10
34.278796740868465
 20
1525.303050383184
 30
0.0
 10
34.27871187037465
 20
1525.2972428446406
 30
0.0
 10
34.278626999880835
 20
1525.2914353060974
 30
0.0
 10
34.27854212938702
 20
1525.285627767554
 30
0.0
 10
34.122842739999236
 20
1514.6313925385766
 30
0.0
 10
34.10386642463501
 20
1506.0031980475
 30
0.0
 10
34.17181951245326
 20
1499.3599142003352
 30
0.0
 10
34.22101811901602
 20
1494.5501208741584
 30
0.0
 10
34.31720471260676
 20
1490.7929527946164
 30
0.0
 10
34.337205820192096
 20
1487.7589796620603
 30
0.0
 10
34.357655257539335
 20
1484.65699927309
 30
0.0
 10
34.29983389152476
 20
1482.3244175702766
 30
0.0
 10
33.8611695805312
 20
1479.7760124759518
 30
0.0
 10
33.51638336835415
 20
1477.7729889394009
 30
0.0
 10
32.922002499275365
 20
1475.5901186289282
 30
0.0
 10
31.961940705097838
 20
1472.7724159452139
 30
0.0
 10
31.049501980889048
 20
1470.0944830688925
 30
0.0
 10
29.800296858922664
 20
1466.8238605338777
 30
0.0
 10
28.280636700340878
 20
1463.002837681757
 30
0.0
 10
26.395062577625204
 20
1458.2617633227449
 30
0.0
 10
24.099829495677454
 20
1452.687967104661
 30
0.0
 10
21.823643368463877
 20
1447.1982392103625
 30
0.0
 10
20.756598824145847
 20
1444.624730774753
 30
0.0
 10
19.696633011118834
 20
1442.0781387497275
 30
0.0
 10
18.692794130069757
 20
1439.6710937019632
 30
0.0
  0
SPLINE
  5
1011D
330
1F
100
AcDbEntity
  8
0
100
AcDbSpline
 70
0
 71
3
 72
17
 73
13
 74
0
 42
1e-09
 40
0.0011980731291311184
 40
0.0011980731291311184
 40
0.0011980731291311184
 40
0.0011980731291311184
 40
0.23135918552942517
 40
0.23135918552942517
 40
0.23135918552942517
 40
0.5191991080009184
 40
0.5191991080009184
 40
0.5191991080009184
 40
0.7699686484565988
 40
0.7699686484565988
 40
0.7699686484565988
 40
0.963244810961894
 40
0.963244810961894
 40
0.963244810961894
 40
0.963244810961894
 10
18.692799918053787
 20
1439.6710912861558
 30
0.0
 10
17.2354141922061
 20
1436.1793694008045
 30
0.0
 10
15.905670664394805
 20
1433.8224556846578
 30
0.0
 10
14.73848850529582
 20
1432.2107855927984
 30
0.0
 10
13.278808289635123
 20
1430.1952279277673
 30
0.0
 10
12.07859854825881
 20
1429.2680874593175
 30
0.0
 10
11.259453446648145
 20
1428.2106186252395
 30
0.0
 10
10.545804558288097
 20
1427.2893392860465
 30
0.0
 10
10.136960376117699
 20
1426.2465509440008
 30
0.0
 10
10.029940914395333
 20
1424.8172018424614
 30
0.0
 10
9.947457567982923
 20
1423.7155564483523
 30
0.0
 10
10.03659390919826
 20
1422.40347098757
 30
0.0
 10
10.28089579300265
 20
1420.879057479609
 30
0.0
  0
LINE
  5
1011E
330
1F
100
AcDbEntity
  8
0
100
AcDbLine
 10
10.28089579300265
 20
1420.879057479609
 30
0.0
 11
10.280895792999097
 21
1414.8100329488568
 31
0.0
  0
LINE
  5
1011F
330
1F
100
AcDbEntity
  8
0
100
AcDbLine
 10
10.280895792999097
 20
1414.8100329488568
 30
0.0
 11
29.66222048960529
 21
1414.8100329488568
 31
0.0
  0
LINE
  5
10120
330
1F
100
AcDbEntity
  8
0
100
AcDbLine
 10
29.66222048960529
 20
1414.8100329488568
 30
0.0
 11
29.66222048960529
 21
1417.960032948857
 31
0.0
  0
LINE
  5
10121
330
1F
100
AcDbEntity
  8
0
100
AcDbLine
 10
29.66222048960529
 20
1417.960032948857
 30
0.0
 11
23.515011197460296
 21
1417.960032948857
 31
0.0
  0
LINE
  5
10122
330
1F
100
AcDbEntity
  8
0
100
AcDbLine
 10
23.515011197460296
 20
1417.960032948857
 30
0.0
 11
23.515011197460296
 21
1420.8100329488568
 31
0.0
  0
LINE
  5
10123
330
1F
100
AcDbEntity
  8
0
100
AcDbLine
 10
23.515011197460296
 20
1420.8100329488568
 30
0.0
 11
38.43979243377494
 21
1420.8100329488568
 31
0.0
  0
SPLINE
  5
10124
330
1F
100
AcDbEntity
  8
0
100
AcDbSpline
 70
0
 71
3
 72
17
 73
13
 74
0
 42
1e-09
 40
-0.0010460217653282654
 40
-0.0010460217653282654
 40
-0.0010460217653282654
 40
-0.0010460217653282654
 40
0.0
 40
0.0
 40
0.0
 40
0.46327624555745234
 40
0.46327624555745234
 40
0.46327624555745234
 40
0.9265524911149047
 40
0.9265524911149047
 40
0.9265524911149047
 40
0.9269888425824075
 40
0.9269888425824075
 40
0.9269888425824075
 40
0.9269888425824075
 10
54.188499157206216
 20
1464.1337110167467
 30
0.0
 10
54.193961747451354
 20
1464.1161282766739
 30
0.0
 10
54.199424337696456
 20
1464.098545536601
 30
0.0
 10
54.20488692794156
 20
1464.0809627965282
 30
0.0
 10
56.6280376245501
 20
1456.2814341948952
 30
0.0
 10
56.84638355860536
 20
1448.7336344678642
 30
0.0
 10
54.18742763610788
 20
1441.5249285700108
 30
0.0
 10
51.528471713610394
 20
1434.3162226721574
 30
0.0
 10
45.98675711783067
 20
1427.4541586971475
 30
0.0
 10
38.46104125087586
 20
1420.8287397824954
 30
0.0
 10
38.45395831184221
 20
1420.8225041712826
 30
0.0
 10
38.446875372808556
 20
1420.8162685600698
 30
0.0
 10
38.43979243377494
 20
1420.8100329488568
 30
0.0
  0
LINE
  5
10125
330
1F
100
AcDbEntity
  8
0
100
AcDbLine
 10
54.188499157206216
 20
1464.1337110167467
 30
0.0
 11
49.20826389884781
 21
1464.1337110167485
 31
0.0
  0
LINE
  5
10126
330
1F
100
AcDbEntity
  8
0
100
AcDbLine
 10
49.20826389884781
 20
1464.1337110167485
 30
0.0
 11
49.20826389884781
 21
1465.9837110167484
 31
0.0
  0
LINE
  5
10127
330
1F
100
AcDbEntity
  8
0
100
AcDbLine
 10
49.20826389884781
 20
1465.9837110167484
 30
0.0
 11
54.2207714382197
 21
1465.9837110167468
 31
0.0
  0
SPLINE
  5
10128
330
1F
100
AcDbEntity
  8
0
100
AcDbSpline
 70
0
 71
3
 72
20
 73
16
 74
0
 42
1e-09
 40
-0.00026563892056950876
 40
-0.00026563892056950876
 40
-0.00026563892056950876
 40
-0.00026563892056950876
 40
0.0
 40
0.0
 40
0.0
 40
0.4148903627840464
 40
0.4148903627840464
 40
0.4148903627840464
 40
0.7412144103868664
 40
0.7412144103868664
 40
0.7412144103868664
 40
1.0
 40
1.0
 40
1.0
 40
1.0026272031132313
 40
1.0026272031132313
 40
1.0026272031132313
 40
1.0026272031132313
 10
66.72302920190536
 20
1512.3707864710052
 30
0.0
 10
66.72052398502548
 20
1512.365620148414
 30
0.0
 10
66.7180187681455
 20
1512.3604538258228
 30
0.0
 10
66.7155135512655
 20
1512.3552875032315
 30
0.0
 10
62.80373147116642
 20
1504.2883100314496
 30
0.0
 10
59.58059073174291
 20
1496.7459785442002
 30
0.0
 10
57.332890197349336
 20
1489.9486121702753
 30
0.0
 10
55.565004505186096
 20
1484.602274180417
 30
0.0
 10
54.45157387389426
 20
1479.755994279908
 30
0.0
 10
54.028969024098544
 20
1475.4378900017705
 30
0.0
 10
53.6938296249916
 20
1472.013492781162
 30
0.0
 10
53.76879596690302
 20
1468.9025235629538
 30
0.0
 10
54.207380568959536
 20
1466.0701879157857
 30
0.0
 10
54.21184419204626
 20
1466.0413622827728
 30
0.0
 10
54.21630781513298
 20
1466.0125366497598
 30
0.0
 10
54.220771438219735
 20
1465.9837110167468
 30
0.0
  0
LINE
  5
10129
330
1F
100
AcDbEntity
  8
0
100
AcDbLine
 10
66.72302920190536
 20
1512.3707864710052
 30
0.0
 11
66.72302920190565
 21
1543.9076452305783
 31
0.0
  0
SPLINE
  5
1012A
330
1F
100
AcDbEntity
  8
0
100
AcDbSpline
 70
0
 71
3
 72
17
 73
13
 74
0
 42
1e-09
 40
-0.00026719558846891554
 40
-0.00026719558846891554
 40
-0.00026719558846891554
 40
-0.00026719558846891554
 40
0.0
 40
0.0
 40
0.0
 40
0.5
 40
0.5
 40
0.5
 40
1.0
 40
1.0
 40
1.0
 40
1.0004775003636432
 40
1.0004775003636432
 40
1.0004775003636432
 40
1.0004775003636432
 10
59.743791920480874
 20
1591.1128836689459
 30
0.0
 10
59.74191532467345
 20
1591.1083174264568
 30
0.0
 10
59.740038728866026
 20
1591.1037511839675
 30
0.0
 10
59.7381621330586
 20
1591.0991849414784
 30
0.0
 10
56.23016739102337
 20
1582.5633273105343
 30
0.0
 10
54.67707990763952
 20
1574.3126296072905
 30
0.0
 10
55.838945608138005
 20
1566.4551933399628
 30
0.0
 10
57.00081130863677
 20
1558.5977570726354
 30
0.0
 10
60.877443531329696
 20
1551.1254461442234
 30
0.0
 10
66.70631228281218
 20
1543.9282863434978
 30
0.0
 10
66.71188458917666
 20
1543.9214059725246
 30
0.0
 10
66.71745689554112
 20
1543.9145256015515
 30
0.0
 10
66.7230292019056
 20
1543.9076452305783
 30
0.0
  0
LINE
  5
1012B
330
1F
100
AcDbEntity
  8
0
100
AcDbLine
 10
59.743791920480874
 20
1591.1128836689459
 30
0.0
 11
59.74379192048098
 21
1616.73715581279
 31
0.0
  0
LINE
  5
1012C
330
1F
100
AcDbEntity
  8
0
100
AcDbLine
 10
59.74379192048098
 20
1616.73715581279
 30
0.0
 11
47.42135704050963
 21
1616.73715581279
 31
0.0
  0
LINE
  5
1012D
330
1F
100
AcDbEntity
  8
0
100
AcDbLine
 10
47.42135704050963
 20
1616.73715581279
 30
0.0
 11
47.42135704050963
 21
1619.58715581279
 31
0.0
  0
LINE
  5
1012E
330
1F
100
AcDbEntity
  8
0
100
AcDbLine
 10
47.42135704050963
 20
1619.58715581279
 30
0.0
 11
48.921357040509655
 21
1619.58715581279
 31
0.0
  0
LINE
  5
1012F
330
1F
100
AcDbEntity
  8
0
100
AcDbLine
 10
48.921357040509655
 20
1619.58715581279
 30
0.0
 11
48.921357040509655
 21
1622.73715581279
 31
0.0
  0
LINE
  5
10130
330
1F
100
AcDbEntity
  8
0
100
AcDbLine
 10
48.921357040509655
 20
1622.73715581279
 30
0.0
 11
40.77135704050964
 21
1622.73715581279
 31
0.0
  0
LINE
  5
10131
330
1F
100
AcDbEntity
  8
0
100
AcDbLine
 10
40.77135704050964
 20
1622.73715581279
 30
0.0
 11
40.77135704050964
 21
1619.58715581279
 31
0.0
  0
LINE
  5
10132
330
1F
100
AcDbEntity
  8
0
100
AcDbLine
 10
40.77135704050964
 20
1619.58715581279
 30
0.0
 11
42.27135704050963
 21
1619.58715581279
 31
0.0
  0
LINE
  5
10133
330
1F
100
AcDbEntity
  8
0
100
AcDbLine
 10
42.27135704050963
 20
1619.58715581279
 30
0.0
 11
42.27135704050963
 21
1616.73715581279
 31
0.0
  0
LINE
  5
10134
330
1F
100
AcDbEntity
  8
0
100
AcDbLine
 10
42.27135704050963
 20
1616.73715581279
 30
0.0
 11
25.5261724566503
 21
1616.73715581279
 31
0.0
  0
LINE
  5
10135
330
1F
100
AcDbEntity
  8
0
100
AcDbLine
 10
25.5261724566503
 20
1616.73715581279
 30
0.0
 11
25.5261724566503
 21
1620.73715581279
 31
0.0
  0
LINE
  5
10136
330
1F
100
AcDbEntity
  8
0
100
AcDbLine
 10
25.5261724566503
 20
1620.73715581279
 30
0.0
 11
21.37617245665031
 21
1620.73715581279
 31
0.0
  0
LINE
  5
10137
330
1F
100
AcDbEntity
  8
0
100
AcDbLine
 10
62.405353632094645
 20
1527.374215879726
 30
0.0
 11
57.55535363209465
 21
1527.374215879726
 31
0.0
  0
LINE
  5
10138
330
1F
100
AcDbEntity
  8
0
100
AcDbLine
 10
57.55535363209465
 20
1527.374215879726
 30
0.0
 11
57.55535363209465
 21
1529.224215879726
 31
0.0
  0
LINE
  5
10139
330
1F
100
AcDbEntity
  8
0
100
AcDbLine
 10
57.55535363209465
 20
1529.224215879726
 30
0.0
 11
62.405353632094645
 21
1529.224215879726
 31
0.0
  0
LINE
  5
1013A
330
1F
100
AcDbEntity
  8
0
100
AcDbLine
 10
62.405353632094645
 20
1529.224215879726
 30
0.0
 11
62.405353632094645
 21
1527.374215879726
 31
0.0
  0
LINE
  5
1013B
330
1F
100
AcDbEntity
  8
0
100
AcDbLine
 10
42.982419820498244
 20
1527.374215879726
 30
0.0
 11
38.13241982049825
 21
1527.374215879726
 31
0.0
  0
LINE
  5
1013C
330
1F
100
AcDbEntity
  8
0
100
AcDbLine
 10
38.13241982049825
 20
1527.374215879726
 30
0.0
 11
38.13241982049825
 21
1529.224215879726
 31
0.0
  0
LINE
  5
1013D
330
1F
100
AcDbEntity
  8
0
100
AcDbLine
 10
38.13241982049825
 20
1529.224215879726
 30
0.0
 11
42.982419820498244
 21
1529.224215879726
 31
0.0
  0
LINE
  5
1013E
330
1F
100
AcDbEntity
  8
0
100
AcDbLine
 10
42.982419820498244
 20
1529.224215879726
 30
0.0
 11
42.982419820498244
 21
1527.374215879726
 31
0.0
  0
CIRCLE
  5
1013F
330
1F
100
AcDbEntity
  8
0
100
AcDbCircle
 10
30.483205590219214
 20
1804.444841466723
 30
0.0
 40
3.925000000000056
  0
CIRCLE
  5
10140
330
1F
100
AcDbEntity
  8
0
100
AcDbCircle
 10
41.827707143306625
 20
1822.5999357189194
 30
0.0
 40
3.925000000000056
  0
LINE
  5
10141
330
1F
100
AcDbEntity
  8
0
100
AcDbLine
 10
70.64706118639795
 20
1876.8154539109998
 30
0.0
 11
78.4970611863982
 21
1876.8154539109998
 31
0.0
  0
LINE
  5
10142
330
1F
100
AcDbEntity
  8
0
100
AcDbLine
 10
78.4970611863982
 20
1876.8154539109998
 30
0.0
 11
78.4970611863982
 21
1874.9654539109997
 31
0.0
  0
LINE
  5
10143
330
1F
100
AcDbEntity
  8
0
100
AcDbLine
 10
78.4970611863982
 20
1874.965453911
 30
0.0
 11
70.64706118639795
 21
1874.965453911
 31
0.0
  0
LINE
  5
10144
330
1F
100
AcDbEntity
  8
0
100
AcDbLine
 10
70.64706118639795
 20
1874.965453911
 30
0.0
 11
70.64706118639795
 21
1876.8154539109998
 31
0.0
  0
LINE
  5
10145
330
1F
100
AcDbEntity
  8
0
100
AcDbLine
 10
49.1374060906718
 20
1841.3111053269724
 30
0.0
 11
56.98740609067205
 21
1841.3111053269724
 31
0.0
  0
LINE
  5
10146
330
1F
100
AcDbEntity
  8
0
100
AcDbLine
 10
56.98740609067205
 20
1841.3111053269724
 30
0.0
 11
56.98740609067205
 21
1839.4611053269723
 31
0.0
  0
LINE
  5
10147
330
1F
100
AcDbEntity
  8
0
100
AcDbLine
 10
56.98740609067205
 20
1839.4611053269723
 30
0.0
 11
49.1374060906718
 21
1839.4611053269723
 31
0.0
  0
LINE
  5
10148
330
1F
100
AcDbEntity
  8
0
100
AcDbLine
 10
49.1374060906718
 20
1839.4611053269723
 30
0.0
 11
49.1374060906718
 21
1841.3111053269724
 31
0.0
  0
LINE
  5
10149
330
1F
100
AcDbEntity
  8
0
100
AcDbLine
 10
25.279201996647387
 20
1789.497887457974
 30
0.0
 11
24.411059815365277
 21
1787.864232306763
 31
0.0
  0
LINE
  5
1014A
330
1F
100
AcDbEntity
  8
0
100
AcDbLine
 10
24.411059815365277
 20
1787.864232306763
 30
0.0
 11
17.479063633199033
 21
1791.547970751663
 31
0.0
  0
LINE
  5
1014B
330
1F
100
AcDbEntity
  8
0
100
AcDbLine
 10
17.479063633199033
 20
1791.547970751663
 30
0.0
 11
18.347205814481143
 21
1793.1816259028742
 31
0.0
  0
LINE
  5
1014C
330
1F
100
AcDbEntity
  8
0
100
AcDbLine
 10
18.347205814481143
 20
1793.1816259028742
 30
0.0
 11
25.279201996647387
 21
1789.497887457974
 31
0.0
  0
LINE
  5
1014D
330
1F
100
AcDbEntity
  8
0
100
AcDbLine
 10
84.82679921603979
 20
1895.002415836683
 30
0.0
 11
79.61130898845359
 21
1898.2613984762145
 31
0.0
  0
LINE
  5
1014E
330
1F
100
AcDbEntity
  8
0
100
AcDbLine
 10
79.61130898845359
 20
1898.2613984762145
 30
0.0
 11
78.47198693477868
 21
1896.4380923422889
 31
0.0
  0
LINE
  5
1014F
330
1F
100
AcDbEntity
  8
0
100
AcDbLine
 10
78.47198693477868
 20
1896.4380923422889
 30
0.0
 11
81.01612166382286
 21
1894.8483489906996
 31
0.0
  0
LINE
  5
10150
330
1F
100
AcDbEntity
  8
0
100
AcDbLine
 10
81.01612166382286
 20
1894.8483489906996
 30
0.0
 11
80.03577478042861
 21
1893.2794576661593
 31
0.0
  0
LINE
  5
10151
330
1F
100
AcDbEntity
  8
0
100
AcDbLine
 10
80.03577478042861
 20
1893.2794576661593
 30
0.0
 11
77.49164005138415
 21
1894.8692010177488
 31
0.0
  0
LINE
  5
10152
330
1F
100
AcDbEntity
  8
0
100
AcDbLine
 10
77.49164005138415
 20
1894.8692010177488
 30
0.0
 11
46.866223389543975
 21
1845.8580282124367
 31
0.0
  0
LINE
  5
10153
330
1F
100
AcDbEntity
  8
0
100
AcDbLine
 10
46.866223389543975
 20
1845.8580282124367
 30
0.0
 11
10.934288399944776
 21
1788.0614916445031
 31
0.0
  0
LINE
  5
10154
330
1F
100
AcDbEntity
  8
0
100
AcDbLine
 10
10.934288399944776
 20
1788.0614916445031
 30
0.0
 11
16.226732614201936
 21
1785.2490290136516
 31
0.0
  0
LINE
  5
10155
330
1F
100
AcDbEntity
  8
0
100
AcDbLine
 10
16.226732614201936
 20
1785.2490290136516
 30
0.0
 11
13.935896333657539
 21
1780.9381723694485
 31
0.0
  0
ARC
  5
10156
330
1F
100
AcDbEntity
  8
0
100
AcDbCircle
 10
14.10550913391053
 20
1776.8355481081842
 30
0.0
 40
4.106128874149551
100
AcDbArc
 50
92.36740337968526
 51
31.659267816446732
  0
LINE
  5
10157
330
1F
100
AcDbEntity
  8
0
100
AcDbLine
 10
17.60058221340121
 20
1778.9907182871132
 30
0.0
 11
19.891418493945892
 21
1783.3015749313163
 31
0.0
  0
LINE
  5
10158
330
1F
100
AcDbEntity
  8
0
100
AcDbLine
 10
19.891418493945892
 20
1783.3015749313163
 30
0.0
 11
25.195960224034664
 21
1780.4826835484885
 31
0.0
  0
LINE
  5
10159
330
1F
100
AcDbEntity
  8
0
100
AcDbLine
 10
25.195960224034664
 20
1780.4826835484885
 30
0.0
 11
65.86147848341501
 21
1845.7805548537174
 31
0.0
  0
LINE
  5
1015A
330
1F
100
AcDbEntity
  8
0
100
AcDbLine
 10
65.86147848341501
 20
1845.7805548537174
 30
0.0
 11
91.18761056033027
 21
1886.3110543867565
 31
0.0
  0
LINE
  5
1015B
330
1F
100
AcDbEntity
  8
0
100
AcDbLine
 10
91.18761056033027
 20
1886.3110543867565
 30
0.0
 11
88.6434758312861
 21
1887.9007977383458
 31
0.0
  0
LINE
  5
1015C
330
1F
100
AcDbEntity
  8
0
100
AcDbLine
 10
88.6434758312861
 20
1887.9007977383458
 30
0.0
 11
89.62382271468034
 21
1889.469689062886
 31
0.0
  0
LINE
  5
1015D
330
1F
100
AcDbEntity
  8
0
100
AcDbLine
 10
89.62382271468034
 20
1889.469689062886
 30
0.0
 11
92.16795744372452
 21
1887.8799457112968
 31
0.0
  0
LINE
  5
1015E
330
1F
100
AcDbEntity
  8
0
100
AcDbLine
 10
92.16795744372452
 20
1887.8799457112968
 30
0.0
 11
93.30727949739942
 21
1889.7032518452224
 31
0.0
  0
LINE
  5
1015F
330
1F
100
AcDbEntity
  8
0
100
AcDbLine
 10
93.30727949739942
 20
1889.7032518452224
 30
0.0
 11
88.09178926981322
 21
1892.962234484754
 31
0.0
  0
LINE
  5
10160
330
1F
100
AcDbEntity
  8
0
100
AcDbLine
 10
88.09178926981322
 20
1892.962234484754
 30
0.0
 11
85.37924986853388
 21
1888.6212408974575
 31
0.0
  0
ARC
  5
10161
330
1F
100
AcDbEntity
  8
0
100
AcDbCircle
 10
81.91525395908418
 20
1886.7103018591313
 30
0.0
 40
3.9561288741498113
100
AcDbArc
 50
87.11662330024899
 51
28.883650996445652
  0
LINE
  5
10162
330
1F
100
AcDbEntity
  8
0
100
AcDbLine
 10
82.11425981475988
 20
1890.6614222493863
 30
0.0
 11
84.82679921603979
 21
1895.002415836683
 31
0.0
  0
LINE
  5
10163
330
1F
100
AcDbEntity
  8
0
100
AcDbLine
 10
18.421630904406072
 20
2050.2613984762147
 30
0.0
 11
18.421630904406072
 21
2048.2613984762147
 31
0.0
  0
LINE
  5
10164
330
1F
100
AcDbEntity
  8
0
100
AcDbLine
 10
18.421630904406072
 20
2048.2613984762147
 30
0.0
 11
28.92432863082746
 21
2048.2613984762147
 31
0.0
  0
LINE
  5
10165
330
1F
100
AcDbEntity
  8
0
100
AcDbLine
 10
28.92432863082746
 20
2048.2613984762147
 30
0.0
 11
28.92432863082746
 21
2050.2613984762147
 31
0.0
  0
LINE
  5
10166
330
1F
100
AcDbEntity
  8
0
100
AcDbLine
 10
28.92432863082746
 20
2050.2613984762147
 30
0.0
 11
46.231475077970856
 21
2050.2613984762147
 31
0.0
  0
SPLINE
  5
10167
330
1F
100
AcDbEntity
  8
0
100
AcDbSpline
 70
0
 71
3
 72
17
 73
13
 74
0
 42
1e-09
 40
-1.0040701613513743
 40
-1.0040701613513743
 40
-1.0040701613513743
 40
-1.0040701613513743
 40
-1.0
 40
-1.0
 40
-1.0
 40
-0.5
 40
-0.5
 40
-0.5
 40
0.0
 40
0.0
 40
0.0
 40
0.001978171290511362
 40
0.001978171290511362
 40
0.001978171290511362
 40
0.001978171290511362
 10
46.231475077970856
 20
2050.2613984762165
 30
0.0
 10
46.21662502744982
 20
2050.2962082570807
 30
0.0
 10
46.20177497692879
 20
2050.3310180379453
 30
0.0
 10
46.186924926407755
 20
2050.3658278188095
 30
0.0
 10
44.36628161093893
 20
2054.633570528121
 30
0.0
 10
43.65315180268112
 20
2058.376475769083
 30
0.0
 10
44.51300395121166
 20
2061.3632619258956
 30
0.0
 10
45.37285609974191
 20
2064.3500480827083
 30
0.0
 10
47.84072964653092
 20
2066.586540579065
 30
0.0
 10
51.52286743148409
 20
2068.2681764961867
 30
0.0
 10
51.53748174988152
 20
2068.2748508696504
 30
0.0
 10
51.55209606827924
 20
2068.281525243114
 30
0.0
 10
51.56671038667781
 20
2068.2881996165784
 30
0.0
  0
LINE
  5
10168
330
1F
100
AcDbEntity
  8
0
100
AcDbLine
 10
51.56671038667753
 20
2068.2881996165784
 30
0.0
 11
51.56671038667696
 21
2070.4113984762143
 31
0.0
  0
LINE
  5
10169
330
1F
100
AcDbEntity
  8
0
100
AcDbLine
 10
51.56671038667696
 20
2070.4113984762143
 30
0.0
 11
48.09272185419104
 21
2070.4113984762143
 31
0.0
  0
LINE
  5
1016A
330
1F
100
AcDbEntity
  8
0
100
AcDbLine
 10
48.09272185419104
 20
2070.4113984762143
 30
0.0
 11
48.09272185419104
 21
2072.4113984762143
 31
0.0
  0
LINE
  5
1016B
330
1F
100
AcDbEntity
  8
0
100
AcDbLine
 10
48.09272185419104
 20
2072.4113984762143
 30
0.0
 11
39.94272185419106
 21
2072.4113984762143
 31
0.0
  0
LINE
  5
1016C
330
1F
100
AcDbEntity
  8
0
100
AcDbLine
 10
39.94272185419106
 20
2072.4113984762143
 30
0.0
 11
39.94272185419106
 21
2070.4113984762143
 31
0.0
  0
LINE
  5
1016D
330
1F
100
AcDbEntity
  8
0
100
AcDbLine
 10
39.94272185419106
 20
2070.4113984762143
 30
0.0
 11
35.05467051760121
 21
2070.4113984762143
 31
0.0
  0
LINE
  5
1016E
330
1F
100
AcDbEntity
  8
0
100
AcDbLine
 10
35.05467051760121
 20
2070.4113984762143
 30
0.0
 11
35.054670517600925
 21
2068.299277212287
 31
0.0
  0
SPLINE
  5
1016F
330
1F
100
AcDbEntity
  8
0
100
AcDbSpline
 70
0
 71
3
 72
23
 73
19
 74
0
 42
1e-09
 40
-0.0011050662093811336
 40
-0.0011050662093811336
 40
-0.0011050662093811336
 40
-0.0011050662093811336
 40
0.0
 40
0.0
 40
0.0
 40
0.25
 40
0.25
 40
0.25
 40
0.43396137061150375
 40
0.43396137061150375
 40
0.43396137061150375
 40
0.7169806853057519
 40
0.7169806853057519
 40
0.7169806853057519
 40
0.9217905617019424
 40
0.9217905617019424
 40
0.9217905617019424
 40
1.0
 40
1.0
 40
1.0
 40
1.0
 10
35.054670517599504
 20
2068.2992772122884
 30
0.0
 10
35.06450909071532
 20
2068.2917730612353
 30
0.0
 10
35.074347663830565
 20
2068.284268910183
 30
0.0
 10
35.08418623694581
 20
2068.2767647591304
 30
0.0
 10
37.29598773562884
 20
2066.5897627569348
 30
0.0
 10
37.79170381771053
 20
2065.0221788861422
 30
0.0
 10
36.56934280921689
 20
2063.4792927456533
 30
0.0
 10
35.66987398319867
 20
2062.343966949246
 30
0.0
 10
33.785514045165144
 20
2061.225256193293
 30
0.0
 10
31.236127828266547
 20
2060.137465289419
 30
0.0
 10
27.31396994479809
 20
2058.4639300514423
 30
0.0
 10
21.8455906329757
 20
2056.8560112511864
 30
0.0
 10
17.47339689735128
 20
2055.252076686844
 30
0.0
 10
14.30941333834653
 20
2054.091372724906
 30
0.0
 10
11.775251253474153
 20
2052.938216505941
 30
0.0
 10
10.655693568651259
 20
2051.740419991342
 30
0.0
 10
10.2281752320701
 20
2051.2830250929587
 30
0.0
 10
10.0
 20
2050.81341083998
 30
0.0
 10
10.0
 20
2050.3363984762145
 30
0.0
  0
LINE
  5
10170
330
1F
100
AcDbEntity
  8
0
100
AcDbLine
 10
10.0
 20
2050.3363984762145
 30
0.0
 11
10.0
 21
2048.2613984762147
 31
0.0
  0
LINE
  5
10171
330
1F
100
AcDbEntity
  8
0
100
AcDbLine
 10
10.0
 20
2048.2613984762147
 30
0.0
 11
14.571630904406163
 21
2048.2613984762147
 31
0.0
  0
LINE
  5
10172
330
1F
100
AcDbEntity
  8
0
100
AcDbLine
 10
14.571630904406163
 20
2048.2613984762147
 30
0.0
 11
14.571630904406163
 21
2050.2613984762147
 31
0.0
  0
LINE
  5
10173
330
1F
100
AcDbEntity
  8
0
100
AcDbLine
 10
14.571630904406163
 20
2050.2613984762147
 30
0.0
 11
18.421630904406072
 21
2050.2613984762147
 31
0.0
  0
CIRCLE
  5
10174
330
1F
100
AcDbEntity
  8
0
100
AcDbCircle
 10
24.78876745829595
 20
2370.3004256127474
 30
0.0
 40
3.924999999999985
  0
CIRCLE
  5
10175
330
1F
100
AcDbEntity
  8
0
100
AcDbCircle
 10
24.78876745829595
 20
2350.5789925855333
 30
0.0
 40
3.924999999999985
  0
LINE
  5
10176
330
1F
100
AcDbEntity
  8
0
100
AcDbLine
 10
20.863767458295932
 20
2382.7557662025724
 30
0.0
 11
20.863767458295932
 21
2384.605766202573
 31
0.0
  0
LINE
  5
10177
330
1F
100
AcDbEntity
  8
0
100
AcDbLine
 10
20.863767458295932
 20
2384.605766202573
 30
0.0
 11
28.713767458295933
 21
2384.605766202573
 31
0.0
  0
LINE
  5
10178
330
1F
100
AcDbEntity
  8
0
100
AcDbLine
 10
28.713767458295933
 20
2384.605766202573
 30
0.0
 11
28.713767458295933
 21
2382.7557662025724
 31
0.0
  0
LINE
  5
10179
330
1F
100
AcDbEntity
  8
0
100
AcDbLine
 10
28.713767458295933
 20
2382.7557662025724
 30
0.0
 11
20.863767458295932
 21
2382.7557662025724
 31
0.0
  0
LINE
  5
1017A
330
1F
100
AcDbEntity
  8
0
100
AcDbLine
 10
13.629071973303937
 20
2238.1523214065296
 30
0.0
 11
13.629071973303937
 21
2227.3249607748958
 31
0.0
  0
LINE
  5
1017B
330
1F
100
AcDbEntity
  8
0
100
AcDbLine
 10
13.629071973303937
 20
2227.3249607748958
 30
0.0
 11
11.77907197330395
 21
2227.3249607748958
 31
0.0
  0
LINE
  5
1017C
330
1F
100
AcDbEntity
  8
0
100
AcDbLine
 10
11.77907197330395
 20
2227.3249607748958
 30
0.0
 11
11.77907197330395
 21
2238.1523214065296
 31
0.0
  0
LINE
  5
1017D
330
1F
100
AcDbEntity
  8
0
100
AcDbLine
 10
11.77907197330395
 20
2238.1523214065296
 30
0.0
 11
11.335871459501519
 21
2238.1523214065296
 31
0.0
  0
SPLINE
  5
1017E
330
1F
100
AcDbEntity
  8
0
100
AcDbSpline
 70
0
 71
3
 72
14
 73
10
 74
0
 42
1e-09
 40
-0.0012029788625791955
 40
-0.0012029788625791955
 40
-0.0012029788625791955
 40
-0.0012029788625791955
 40
0.0
 40
0.0
 40
0.0
 40
0.29064905910864985
 40
0.29064905910864985
 40
0.29064905910864985
 40
0.2919881631793395
 40
0.2919881631793395
 40
0.2919881631793395
 40
0.2919881631793395
 10
10.0
 20
2222.411398476215
 30
0.0
 10
10.0
 20
2222.436398476215
 30
0.0
 10
10.0
 20
2222.461398476215
 30
0.0
 10
10.0
 20
2222.486398476215
 30
0.0
 10
9.999999999999929
 20
2228.5305877212177
 30
0.0
 10
10.514972084882892
 20
2233.629488035285
 30
0.0
 10
11.324689857123005
 20
2238.0907151659294
 30
0.0
 10
11.328417057915843
 20
2238.1112505794626
 30
0.0
 10
11.33214425870868
 20
2238.1317859929964
 30
0.0
 10
11.335871459501519
 20
2238.1523214065296
 30
0.0
  0
LINE
  5
1017F
330
1F
100
AcDbEntity
  8
0
100
AcDbLine
 10
10.0
 20
2222.411398476215
 30
0.0
 11
19.14999999999889
 21
2222.411398476215
 31
0.0
  0
LINE
  5
10180
330
1F
100
AcDbEntity
  8
0
100
AcDbLine
 10
19.14999999999889
 20
2222.411398476215
 30
0.0
 11
19.150000000000773
 21
2226.548499104614
 31
0.0
  0
SPLINE
  5
10181
330
1F
100
AcDbEntity
  8
0
100
AcDbSpline
 70
0
 71
3
 72
26
 73
22
 74
0
 42
1e-09
 40
2.0826575499674824
 40
2.0826575499674824
 40
2.0826575499674824
 40
2.0826575499674824
 40
2.86060254159464
 40
2.86060254159464
 40
2.86060254159464
 40
3.6240056301341923
 40
3.6240056301341923
 40
3.6240056301341923
 40
4.588250840532474
 40
4.588250840532474
 40
4.588250840532474
 40
5.525089059179223
 40
5.525089059179223
 40
5.525089059179223
 40
6.263552476380922
 40
6.263552476380922
 40
6.263552476380922
 40
6.9531762360820055
 40
6.9531762360820055
 40
6.9531762360820055
 40
7.3421203143541
 40
7.3421203143541
 40
7.3421203143541
 40
7.3421203143541
 10
24.99999949845556
 20
2226.548499010743
 30
0.0
 10
26.346329257775132
 20
2226.8023327821784
 30
0.0
 10
27.375175902525477
 20
2227.2419479363684
 30
0.0
 10
27.78298931037334
 20
2227.7129294618953
 30
0.0
 10
28.18317957890084
 20
2228.175107064556
 30
0.0
 10
28.04056277834089
 20
2228.643456401577
 30
0.0
 10
27.34999581844434
 20
2229.0830153785873
 30
0.0
 10
26.47774904143244
 20
2229.638217007494
 30
0.0
 10
24.720311360005667
 20
2230.0488671791695
 30
0.0
 10
22.814800510124265
 20
2230.1281235765123
 30
0.0
 10
20.96345048944066
 20
2230.205127248713
 30
0.0
 10
19.01739580148007
 20
2229.9714273345194
 30
0.0
 10
17.74302806382984
 20
2229.5227858294106
 30
0.0
 10
16.738506754188798
 20
2229.169143831927
 30
0.0
 10
16.17677407282958
 20
2228.6903972085015
 30
0.0
 10
16.151026522501617
 20
2228.253302113437
 30
0.0
 10
16.12698183450945
 20
2227.845115118951
 30
0.0
 10
16.55630972091128
 20
2227.4010752371623
 30
0.0
 10
17.401122606629436
 20
2227.0456217067804
 30
0.0
 10
17.877592514351974
 20
2226.8451478341826
 30
0.0
 10
18.476062411944945
 20
2226.6748711994724
 30
0.0
 10
19.15000000007133
 20
2226.548499104601
 30
0.0
  0
LINE
  5
10182
330
1F
100
AcDbEntity
  8
0
100
AcDbLine
 10
24.99999949845556
 20
2226.548499010743
 30
0.0
 11
25.00003278831887
 21
2222.411398476215
 31
0.0
  0
LINE
  5
10183
330
1F
100
AcDbEntity
  8
0
100
AcDbLine
 10
25.00003278831887
 20
2222.411398476215
 30
0.0
 11
33.97972739221128
 21
2222.4113984762153
 31
0.0
  0
LINE
  5
10184
330
1F
100
AcDbEntity
  8
0
100
AcDbLine
 10
33.97972739221128
 20
2222.4113984762153
 30
0.0
 11
33.526109244366396
 21
2238.1523214065296
 31
0.0
  0
LINE
  5
10185
330
1F
100
AcDbEntity
  8
0
100
AcDbLine
 10
33.526109244366396
 20
2238.1523214065296
 30
0.0
 11
29.863767458295953
 21
2238.1523214065296
 31
0.0
  0
LINE
  5
10186
330
1F
100
AcDbEntity
  8
0
100
AcDbLine
 10
29.863767458295953
 20
2238.1523214065296
 30
0.0
 11
29.863767458295953
 21
2240.0023214065295
 31
0.0
  0
LINE
  5
10187
330
1F
100
AcDbEntity
  8
0
100
AcDbLine
 10
29.863767458295953
 20
2240.0023214065295
 30
0.0
 11
32.86376745829596
 21
2240.0023214065295
 31
0.0
  0
LINE
  5
10188
330
1F
100
AcDbEntity
  8
0
100
AcDbLine
 10
32.86376745829596
 20
2240.0023214065295
 30
0.0
 11
32.86376745829596
 21
2390.7557662025724
 31
0.0
  0
LINE
  5
10189
330
1F
100
AcDbEntity
  8
0
100
AcDbLine
 10
32.86376745829596
 20
2390.7557662025724
 30
0.0
 11
26.863767458295946
 21
2390.7557662025724
 31
0.0
  0
LINE
  5
1018A
330
1F
100
AcDbEntity
  8
0
100
AcDbLine
 10
26.863767458295946
 20
2390.7557662025724
 30
0.0
 11
26.863767458295946
 21
2395.637509320674
 31
0.0
  0
ARC
  5
1018B
330
1F
100
AcDbEntity
  8
0
100
AcDbCircle
 10
24.788767458295986
 20
2399.1807662025726
 30
0.0
 40
4.106128874149242
100
AcDbArc
 50
-59.64593221837602
 51
-120.35406778162466
  0
LINE
  5
1018C
330
1F
100
AcDbEntity
  8
0
100
AcDbLine
 10
22.71376745829599
 20
2395.637509320674
 30
0.0
 11
22.713767458295955
 21
2390.7557662025724
 31
0.0
  0
LINE
  5
1018D
330
1F
100
AcDbEntity
  8
0
100
AcDbLine
 10
22.713767458295955
 20
2390.7557662025724
 30
0.0
 11
16.71376745829594
 21
2390.7557662025724
 31
0.0
  0
LINE
  5
1018E
330
1F
100
AcDbEntity
  8
0
100
AcDbLine
 10
16.71376745829594
 20
2390.7557662025724
 30
0.0
 11
16.71376745829594
 21
2266.0521135956524
 31
0.0
  0
SPLINE
  5
1018F
330
1F
100
AcDbEntity
  8
0
100
AcDbSpline
 70
0
 71
3
 72
14
 73
10
 74
0
 42
1e-09
 40
0.5259513577514535
 40
0.5259513577514535
 40
0.5259513577514535
 40
0.5259513577514535
 40
0.5261946411157536
 40
0.5261946411157536
 40
0.5261946411157536
 40
0.8502377373824905
 40
0.8502377373824905
 40
0.8502377373824905
 40
1.0
 40
1.0
 40
1.0
 40
1.0
 10
13.629071973303937
 20
2247.9724573153194
 30
0.0
 10
13.62991285773262
 20
2247.975617024821
 30
0.0
 10
13.630753742161232
 20
2247.9787767343228
 30
0.0
 10
13.631594626589845
 20
2247.981936443824
 30
0.0
 10
14.751717942016036
 20
2252.190914707873
 30
0.0
 10
15.813579493716716
 20
2256.123361592645
 30
0.0
 10
16.339819606570707
 20
2260.234547161785
 30
0.0
 10
16.583030805602803
 20
2262.134604468879
 30
0.0
 10
16.71376745829587
 20
2264.068876435208
 30
0.0
 10
16.71376745829594
 20
2266.0521135956524
 30
0.0
  0
LINE
  5
10190
330
1F
100
AcDbEntity
  8
0
100
AcDbLine
 10
13.629071973303937
 20
2247.9724573153194
 30
0.0
 11
13.629071973303937
 21
2240.0023214065295
 31
0.0
  0
LINE
  5
10191
330
1F
100
AcDbEntity
  8
0
100
AcDbLine
 10
13.629071973303937
 20
2240.0023214065295
 30
0.0
 11
19.713767458295948
 21
2240.0023214065295
 31
0.0
  0
LINE
  5
10192
330
1F
100
AcDbEntity
  8
0
100
AcDbLine
 10
19.713767458295948
 20
2240.0023214065295
 30
0.0
 11
19.713767458295948
 21
2238.1523214065296
 31
0.0
  0
LINE
  5
10193
330
1F
100
AcDbEntity
  8
0
100
AcDbLine
 10
19.713767458295948
 20
2238.1523214065296
 30
0.0
 11
13.629071973303937
 21
2238.1523214065296
 31
0.0
  0
CIRCLE
  5
10194
330
1F
100
AcDbEntity
  8
0
100
AcDbCircle
 10
22.07499988615227
 20
2708.072545537814
 30
7.460698725481052e-13
 40
3.925000000000021
  0
CIRCLE
  5
10195
330
1F
100
AcDbEntity
  8
0
100
AcDbCircle
 10
22.074999886152305
 20
2735.188962492998
 30
7.371880883511039e-13
 40
3.9249999999999856
  0
LINE
  5
10196
330
1F
100
AcDbEntity
  8
0
100
AcDbLine
 10
25.775411006485896
 20
2748.0699219964076
 30
0.0
 11
17.925411006485895
 21
2748.0699219964076
 31
0.0
  0
LINE
  5
10197
330
1F
100
AcDbEntity
  8
0
100
AcDbLine
 10
17.925411006485895
 20
2748.0699219964076
 30
0.0
 11
17.925411006485895
 21
2749.9199219964075
 31
-3.469446951953614e-17
  0
LINE
  5
10198
330
1F
100
AcDbEntity
  8
0
100
AcDbLine
 10
17.925411006485895
 20
2749.9199219964075
 30
8.881784197001252e-15
 11
25.775411006485896
 21
2749.9199219964075
 31
8.881784197001255e-15
  0
LINE
  5
10199
330
1F
100
AcDbEntity
  8
0
100
AcDbLine
 10
25.775411006485896
 20
2749.9199219964075
 30
8.881784197001252e-15
 11
25.775411006485896
 21
2748.0699219964076
 31
8.881784197001252e-15
  0
LINE
  5
1019A
330
1F
100
AcDbEntity
  8
0
100
AcDbLine
 10
19.149999885959744
 20
2553.2868950767215
 30
8.881784197001252e-15
 11
19.149999885966743
 21
2557.4239957057725
 31
8.847089727481716e-15
  0
SPLINE
  5
1019B
330
1F
100
AcDbEntity
  8
0
100
AcDbSpline
 70
0
 71
3
 72
26
 73
22
 74
0
 42
1e-09
 40
2.0826580506397026
 40
2.0826580506397026
 40
2.0826580506397026
 40
2.0826580506397026
 40
2.8606034074744278
 40
2.8606034074744278
 40
2.8606034074744278
 40
3.6240058677206544
 40
3.6240058677206544
 40
3.6240058677206544
 40
4.58825116834928
 40
4.58825116834928
 40
4.58825116834928
 40
5.525089288303005
 40
5.525089288303005
 40
5.525089288303005
 40
6.263552776337391
 40
6.263552776337391
 40
6.263552776337391
 40
6.953176616771338
 40
6.953176616771338
 40
6.953176616771338
 40
7.3421203144429406
 40
7.3421203144429406
 40
7.3421203144429406
 40
7.3421203144429406
 10
25.000001987341115
 20
2557.423996097064
 30
0.0
 10
26.346332076916013
 20
2557.6778301567438
 30
0.0
 10
27.37517826309785
 20
2558.1174458616206
 30
0.0
 10
27.78299055809528
 20
2558.5884276321735
 30
0.0
 10
28.183179217342996
 20
2559.0506048779307
 30
0.0
 10
28.04056178019939
 20
2559.518953816219
 30
8.881784197001252e-15
 10
27.349995060256532
 20
2559.95851238679
 30
0.0
 10
26.477747786831905
 20
2560.5137140112224
 30
0.0
 10
24.72030956065621
 20
2560.924364059678
 30
0.0
 10
22.814798453666768
 20
2561.0036202570536
 30
0.0
 10
20.9634485514592
 20
2561.080623719654
 30
0.0
 10
19.017394302807254
 20
2560.84692365391
 30
0.0
 10
17.743027015560614
 20
2560.398282102071
 30
0.0
 10
16.738505858774687
 20
2560.0446399965763
 30
8.881784197001252e-15
 10
16.176773536541248
 20
2559.565893315099
 30
0.0
 10
16.1510263773461
 20
2559.1287981833093
 30
0.0
 10
16.12698205410991
 20
2558.720611145894
 30
8.881784197001252e-15
 10
16.556310488287963
 20
2558.276571190592
 30
8.881784197001252e-15
 10
17.401123891415097
 20
2557.921117720102
 30
0.0
 10
17.87759356892513
 20
2557.7206441009243
 30
0.0
 10
18.47606295698563
 20
2557.550367676971
 30
8.881784197001252e-15
 10
19.14999988603737
 20
2557.423995705759
 30
0.0
  0
LINE
  5
1019C
330
1F
100
AcDbEntity
  8
0
100
AcDbLine
 10
25.000001987341115
 20
2557.423996097064
 30
0.0
 11
24.999861883930855
 21
2553.2868950767215
 31
0.0
  0
LINE
  5
1019D
330
1F
100
AcDbEntity
  8
0
100
AcDbLine
 10
24.999861883930855
 20
2553.2868950767215
 30
0.0
 11
34.22448673482124
 21
2553.2868950767215
 31
0.0
  0
ARC
  5
1019E
330
1F
100
AcDbEntity
  8
0
100
AcDbCircle
 10
242.07499988946702
 20
2558.851947433069
 30
8.881784197001252e-15
 40
207.9250000033149
100
AcDbArc
 50
179.99799721680512
 51
-178.46631192229697
  0
LINE
  5
1019F
330
1F
100
AcDbEntity
  8
0
100
AcDbLine
 10
34.15000001318015
 20
2558.8592154853113
 30
8.881784197001252e-15
 11
33.444401540938046
 21
2562.465282367187
 31
8.881784197001252e-15
  0
LINE
  5
101A0
330
1F
100
AcDbEntity
  8
0
100
AcDbLine
 10
33.444401540938046
 20
2562.465282367187
 30
0.0
 11
31.999999886152622
 21
2562.465282367187
 31
0.0
  0
LINE
  5
101A1
330
1F
100
AcDbEntity
  8
0
100
AcDbLine
 10
31.999999886152622
 20
2562.465282367187
 30
0.0
 11
31.999999886152622
 21
2557.436895076721
 31
0.0
  0
LINE
  5
101A2
330
1F
100
AcDbEntity
  8
0
100
AcDbLine
 10
31.999999886152622
 20
2557.436895076721
 30
0.0
 11
30.149999886152635
 21
2557.436895076721
 31
0.0
  0
LINE
  5
101A3
330
1F
100
AcDbEntity
  8
0
100
AcDbLine
 10
30.149999886152635
 20
2557.436895076721
 30
0.0
 11
30.149999886152635
 21
2562.465282367187
 31
0.0
  0
LINE
  5
101A4
330
1F
100
AcDbEntity
  8
0
100
AcDbLine
 10
30.149999886152635
 20
2562.465282367187
 30
0.0
 11
27.149999886152628
 21
2562.465282367187
 31
0.0
  0
LINE
  5
101A5
330
1F
100
AcDbEntity
  8
0
100
AcDbLine
 10
27.149999886152628
 20
2562.465282367187
 30
0.0
 11
27.149999886152628
 21
2564.3152823671867
 31
0.0
  0
LINE
  5
101A6
330
1F
100
AcDbEntity
  8
0
100
AcDbLine
 10
27.149999886152628
 20
2564.3152823671867
 30
0.0
 11
33.08241236646969
 21
2564.3152823671867
 31
0.0
  0
LINE
  5
101A7
330
1F
100
AcDbEntity
  8
0
100
AcDbLine
 10
33.08241236646969
 20
2564.3152823671867
 30
8.881784197001252e-15
 11
30.149999886152635
 21
2579.301816416315
 31
8.881784197001252e-15
  0
LINE
  5
101A8
330
1F
100
AcDbEntity
  8
0
100
AcDbLine
 10
30.14999988615267
 20
2579.301816416315
 30
0.0
 11
30.149999886152706
 21
2756.0699219964076
 31
0.0
  0
LINE
  5
101A9
330
1F
100
AcDbEntity
  8
0
100
AcDbLine
 10
30.149999886152706
 20
2756.0699219964076
 30
0.0
 11
23.92541100648598
 21
2756.0699219964076
 31
0.0
  0
LINE
  5
101AA
330
1F
100
AcDbEntity
  8
0
100
AcDbLine
 10
23.92541100648598
 20
2756.0699219964076
 30
0.0
 11
23.92541100648598
 21
2760.951665114509
 31
0.0
  0
ARC
  5
101AB
330
1F
100
AcDbEntity
  8
0
100
AcDbCircle
 10
21.85041100648602
 20
2764.494921996408
 30
0.0
 40
4.106128874149244
100
AcDbArc
 50
-59.64593221837607
 51
-120.35406778162533
  0
LINE
  5
101AC
330
1F
100
AcDbEntity
  8
0
100
AcDbLine
 10
19.77541100648599
 20
2760.951665114509
 30
8.881784197001252e-15
 11
19.77541100648599
 21
2756.0699219964076
 31
8.881784197001252e-15
  0
LINE
  5
101AD
330
1F
100
AcDbEntity
  8
0
100
AcDbLine
 10
19.77541100648599
 20
2756.0699219964076
 30
0.0
 11
13.999999886152686
 21
2756.0699219964076
 31
0.0
  0
LINE
  5
101AE
330
1F
100
AcDbEntity
  8
0
100
AcDbLine
 10
13.999999886152686
 20
2756.0699219964076
 30
0.0
 11
13.999999886152686
 21
2579.301816416315
 31
0.0
  0
LINE
  5
101AF
330
1F
100
AcDbEntity
  8
0
100
AcDbLine
 10
13.999999886152686
 20
2579.301816416315
 30
0.0
 11
11.067587405835063
 21
2564.3152823671867
 31
0.0
  0
LINE
  5
101B0
330
1F
100
AcDbEntity
  8
0
100
AcDbLine
 10
11.067587405835027
 20
2564.3152823671867
 30
0.0
 11
16.999999886152622
 21
2564.3152823671867
 31
0.0
  0
LINE
  5
101B1
330
1F
100
AcDbEntity
  8
0
100
AcDbLine
 10
16.999999886152622
 20
2564.3152823671867
 30
0.0
 11
16.999999886152622
 21
2562.465282367187
 31
0.0
  0
LINE
  5
101B2
330
1F
100
AcDbEntity
  8
0
100
AcDbLine
 10
16.999999886152622
 20
2562.465282367187
 30
0.0
 11
14.064967333661379
 21
2562.465282367187
 31
1.9721522630525295e-30
  0
LINE
  5
101B3
330
1F
100
AcDbEntity
  8
0
100
AcDbLine
 10
14.064967333661379
 20
2562.465282367187
 30
0.0
 11
14.064967333661379
 21
2557.436895076721
 31
0.0
  0
LINE
  5
101B4
330
1F
100
AcDbEntity
  8
0
100
AcDbLine
 10
14.064967333661379
 20
2557.436895076721
 30
0.0
 11
12.214967333661392
 21
2557.436895076721
 31
0.0
  0
LINE
  5
101B5
330
1F
100
AcDbEntity
  8
0
100
AcDbLine
 10
12.214967333661392
 20
2557.436895076721
 30
0.0
 11
12.214967333661392
 21
2562.465282367187
 31
0.0
  0
LINE
  5
101B6
330
1F
100
AcDbEntity
  8
0
100
AcDbLine
 10
12.214967333661392
 20
2562.465282367187
 30
0.0
 11
10.705598231366494
 21
2562.465282367187
 31
0.0
  0
LINE
  5
101B7
330
1F
100
AcDbEntity
  8
0
100
AcDbLine
 10
10.705598231366494
 20
2562.465282367187
 30
0.0
 11
10.000000000000085
 21
2558.8592167163433
 31
0.0
  0
ARC
  5
101B8
330
1F
100
AcDbEntity
  8
0
100
AcDbCircle
 10
242.07499988946702
 20
2558.851947433069
 30
8.881784197001252e-15
 40
232.07500000331487
100
AcDbArc
 50
179.99820532474178
 51
-178.6259417062699
  0
LINE
  5
101B9
330
1F
100
AcDbEntity
  8
0
100
AcDbLine
 10
10.066733185865125
 20
2553.2868950767215
 30
8.881784197001252e-15
 11
19.149999885959744
 21
2553.2868950767215
 31
8.881784197001252e-15
  0
ENDSEC
  0
SECTION
  2
OBJECTS
  0
DICTIONARY
  5
C
330
None
100
AcDbDictionary
281
1
  3
ACAD_GROUP
350
D
  3
ACAD_MLINESTYLE
350
17
  3
ACAD_COLOR
350
1005A
  3
ACAD_LAYOUT
350
1005B
  3
ACAD_MATERIAL
350
1005C
  3
ACAD_MLEADERSTYLE
350
1005D
  3
ACAD_PLOTSETTINGS
350
1005E
  3
ACAD_PLOTSTYLENAME
350
1005F
  3
ACAD_SCALELIST
350
10061
  3
ACAD_TABLESTYLE
350
10062
  3
ACAD_VISUALSTYLE
350
10063
  0
DICTIONARY
  5
D
330
None
100
AcDbDictionary
281
1
  0
DICTIONARY
  5
1A
330
C
100
AcDbDictionary
281
1
  0
DICTIONARY
  5
17
330
None
100
AcDbDictionary
281
1
  3
Standard
350
10069
  0
DICTIONARY
  5
1005A
330
C
100
AcDbDictionary
281
1
  0
DICTIONARY
  5
1005B
330
C
100
AcDbDictionary
281
1
  3
Model
350
10064
  3
Layout1
350
10065
  0
DICTIONARY
  5
1005C
330
C
100
AcDbDictionary
281
1
  3
ByBlock
350
10066
  3
ByLayer
350
10067
  3
Global
350
10068
  0
DICTIONARY
  5
1005D
330
C
100
AcDbDictionary
281
1
  3
Standard
350
1006E
  0
DICTIONARY
  5
1005E
330
C
100
AcDbDictionary
281
1
  0
ACDBDICTIONARYWDFLT
  5
1005F
330
C
100
AcDbDictionary
281
1
  3
Normal
350
10060
100
AcDbDictionaryWithDefault
340
10060
  0
ACDBPLACEHOLDER
  5
10060
330
1005F
  0
DICTIONARY
  5
10061
330
C
100
AcDbDictionary
281
1
  0
DICTIONARY
  5
10062
330
C
100
AcDbDictionary
281
1
  0
DICTIONARY
  5
10063
330
C
100
AcDbDictionary
281
1
  0
LAYOUT
  5
10064
330
1005B
100
AcDbPlotSettings
  1

  2
Adobe PDF
  4
A4
  6

 40
3.175
 41
3.175
 42
3.175
 43
3.175
 44
209.91
 45
297.03
 46
0.0
 47
0.0
 48
0.0
 49
0.0
140
0.0
141
0.0
142
1.0
143
1.0
 70
1024
 72
0
 73
1
 74
5
  7

 75
16
 76
0
 77
2
 78
300
147
1.0
148
0.0
149
0.0
100
AcDbLayout
  1
Model
 70
1
 71
0
 10
-3.175
 20
-3.175
 11
293.857
 21
206.735
 12
0.0
 22
0.0
 32
0.0
 14
29.068
 24
20.356
 34
0.0
 15
261.614
 25
183.204
 35
0.0
146
0.0
 13
0.0
 23
0.0
 33
0.0
 16
1.0
 26
0.0
 36
0.0
 17
0.0
 27
1.0
 37
0.0
 76
1
330
1F
  0
LAYOUT
  5
10065
330
1005B
100
AcDbPlotSettings
  1

  2
Adobe PDF
  4
A4
  6

 40
3.175
 41
3.175
 42
3.175
 43
3.175
 44
209.91
 45
297.03
 46
0.0
 47
0.0
 48
0.0
 49
0.0
140
0.0
141
0.0
142
1.0
143
1.0
 70
0
 72
0
 73
1
 74
5
  7

 75
16
 76
0
 77
2
 78
300
147
1.0
148
0.0
149
0.0
100
AcDbLayout
  1
Layout1
 70
1
 71
1
 10
-3.175
 20
-3.175
 11
293.857
 21
206.735
 12
0.0
 22
0.0
 32
0.0
 14
29.068
 24
20.356
 34
0.0
 15
261.614
 25
183.204
 35
0.0
146
0.0
 13
0.0
 23
0.0
 33
0.0
 16
1.0
 26
0.0
 36
0.0
 17
0.0
 27
1.0
 37
0.0
 76
1
330
1B
  0
MATERIAL
  5
10066
102
{ACAD_REACTORS
330
1005C
102
}
330
1005C
100
AcDbMaterial
  1
ByBlock
  2

 70
0
 40
1.0
 71
1
 41
1.0
 91
-1023410177
 42
1.0
 72
1
  3

 73
1
 74
1
 75
1
 44
0.5
 73
0
 45
1.0
 46
1.0
 77
1
  4

 78
1
 79
1
170
1
 48
1.0
171
1
  6

172
1
173
1
174
1
140
1.0
141
1.0
175
1
  7

176
1
177
1
178
1
143
1.0
179
1
  8

270
1
271
1
272
1
145
1.0
146
1.0
273
1
  9

274
1
275
1
276
1
 42
1.0
 72
1
  3

 73
1
 74
1
 75
1
 94
63
  0
MATERIAL
  5
10067
102
{ACAD_REACTORS
330
1005C
102
}
330
1005C
100
AcDbMaterial
  1
ByLayer
  2

 70
0
 40
1.0
 71
1
 41
1.0
 91
-1023410177
 42
1.0
 72
1
  3

 73
1
 74
1
 75
1
 44
0.5
 73
0
 45
1.0
 46
1.0
 77
1
  4

 78
1
 79
1
170
1
 48
1.0
171
1
  6

172
1
173
1
174
1
140
1.0
141
1.0
175
1
  7

176
1
177
1
178
1
143
1.0
179
1
  8

270
1
271
1
272
1
145
1.0
146
1.0
273
1
  9

274
1
275
1
276
1
 42
1.0
 72
1
  3

 73
1
 74
1
 75
1
 94
63
  0
MATERIAL
  5
10068
102
{ACAD_REACTORS
330
1005C
102
}
330
1005C
100
AcDbMaterial
  1
Global
  2

 70
0
 40
1.0
 71
1
 41
1.0
 91
-1023410177
 42
1.0
 72
1
  3

 73
1
 74
1
 75
1
 44
0.5
 73
0
 45
1.0
 46
1.0
 77
1
  4

 78
1
 79
1
170
1
 48
1.0
171
1
  6

172
1
173
1
174
1
140
1.0
141
1.0
175
1
  7

176
1
177
1
178
1
143
1.0
179
1
  8

270
1
271
1
272
1
145
1.0
146
1.0
273
1
  9

274
1
275
1
276
1
 42
1.0
 72
1
  3

 73
1
 74
1
 75
1
 94
63
  0
MLINESTYLE
  5
10069
102
{ACAD_REACTORS
330
17
102
}
330
17
100
AcDbMlineStyle
  2
Standard
 70
0
  3

 62
256
 51
90.0
 52
90.0
 71
2
 49
0.5
 62
256
  6
BYLAYER
 49
-0.5
 62
256
  6
BYLAYER
  0
MLEADERSTYLE
  5
1006E
102
{ACAD_REACTORS
330
1005D
102
}
330
1005D
100
AcDbMLeaderStyle
179
2
170
2
171
1
172
0
 90
2
 40
0.0
 41
0.0
173
1
 91
-1056964608
 92
-2
290
1
 42
2.0
291
1
 43
8.0
  3
Standard
 44
4.0
300

342
11
174
1
175
1
176
0
178
1
 93
-1056964608
 45
4.0
292
0
297
0
 46
4.0
 94
-1056964608
 47
1.0
 49
1.0
140
1.0
294
1
141
0.0
177
0
142
1.0
295
0
296
0
143
3.75
271
0
272
9
273
9
  0
ENDSEC
  0
EOF
