0
SECTION
2
HEADER
9
$INSUNITS
70
4
9
$ACADVER
1
AC1014
9
$HANDSEED
5
FFFF
0
ENDSEC
0
SECTION
2
TABLES
0
TABLE
2
VPORT
5
8
100
AcDbSymbolTable
0
ENDTAB
0
TABLE
2
LTYPE
5
5
100
AcDbSymbolTable
0
LTYPE
5
14
100
AcDbSymbolTableRecord
100
AcDbLinetypeTableRecord
2
BYBLOCK
70
0
0
LTYPE
5
15
100
AcDbSymbolTableRecord
100
AcDbLinetypeTableRecord
2
BYLAYER
70
0
0
ENDTAB
0
TABLE
2
LAYER
5
2
100
AcDbSymbolTable
70
2
0
LAYER
5
50
100
AcDbSymbolTableRecord
100
AcDbLayerTableRecord
2
0
70
0
6
CONTINUOUS
0
ENDTAB
0
TABLE
2
STYLE
5
3
100
AcDbSymbolTable
70
1
0
STYLE
5
11
100
AcDbSymbolTableRecord
100
AcDbTextStyleTableRecord
2
STANDARD
70
0
0
ENDTAB
0
TABLE
2
VIEW
5
6
100
AcDbSymbolTable
70
0
0
ENDTAB
0
TABLE
2
UCS
5
7
100
AcDbSymbolTable
70
0
0
ENDTAB
0
TABLE
2
APPID
5
9
100
AcDbSymbolTable
70
2
0
APPID
5
12
100
AcDbSymbolTableRecord
100
AcDbRegAppTableRecord
2
ACAD
70
0
0
ENDTAB
0
TABLE
2
DIMSTYLE
5
A
100
AcDbSymbolTable
70
1
0
ENDTAB
0
TABLE
2
BLOCK_RECORD
5
1
100
AcDbSymbolTable
70
1
0
BLOCK_RECORD
5
1F
100
AcDbSymbolTableRecord
100
AcDbBlockTableRecord
2
*MODEL_SPACE
0
BLOCK_RECORD
5
1B
100
AcDbSymbolTableRecord
100
AcDbBlockTableRecord
2
*PAPER_SPACE
0
ENDTAB
0
ENDSEC
0
SECTION
2
BLOCKS
0
BLOCK
5
20
100
AcDbEntity
100
AcDbBlockBegin
2
*MODEL_SPACE
0
ENDBLK
5
21
100
AcDbEntity
100
AcDbBlockEnd
0
BLOCK
5
1C
100
AcDbEntity
100
AcDbBlockBegin
2
*PAPER_SPACE
0
ENDBLK
5
1D
100
AcDbEntity
100
AcDbBlockEnd
0
ENDSEC
0
SECTION
2
ENTITIES
0
CIRCLE
5
100
100
AcDbEntity
8
0
100
AcDbCircle
10
-0.37858776385341741
20
20.548025188649966
30
0
40
4.9249999999999998
210
0
220
0
230
1
0
LINE
5
101
100
AcDbEntity
8
0
100
AcDbLine
10
12.03929081531399
20
30.074999999999996
30
0
11
12.03929081531399
21
32.075000000000003
31
0
0
LINE
5
102
100
AcDbEntity
8
0
100
AcDbLine
10
12.03929081531399
20
32.075000000000003
30
0
11
6.8892908153139842
21
32.075000000000003
31
0
0
LINE
5
103
100
AcDbEntity
8
0
100
AcDbLine
10
6.8892908153139842
20
32.075000000000003
30
0
11
6.8892908153139842
21
30.074999999999996
31
0
0
LINE
5
104
100
AcDbEntity
8
0
100
AcDbLine
10
6.8892908153139842
20
30.074999999999996
30
0
11
-7.3836429962824113
21
30.075000000000003
31
0
0
LINE
5
105
100
AcDbEntity
8
0
100
AcDbLine
10
-7.3836429962824113
20
30.075000000000003
30
0
11
-7.3836429962824113
21
32.075000000000003
31
0
0
LINE
5
106
100
AcDbEntity
8
0
100
AcDbLine
10
-7.3836429962824113
20
32.075000000000003
30
0
11
-12.533642996282417
21
32.075000000000003
31
0
0
LINE
5
107
100
AcDbEntity
8
0
100
AcDbLine
10
-12.533642996282417
20
32.075000000000003
30
0
11
-12.533642996282417
21
30.075000000000003
31
0
0
LINE
5
108
100
AcDbEntity
8
0
100
AcDbLine
10
-12.533642996282417
20
30.075000000000003
30
0
11
-16.257881539899799
21
30.075000000000003
31
0
0
SPLINE
5
109
100
AcDbEntity
8
0
100
AcDbSpline
70
0
71
3
72
17
73
13
74
0
42
0.000000001
43
0.0000000001
44
0.0000000001
40
-1.0046346609214578
40
-1.0046346609214578
40
-1.0046346609214578
40
-1.0046346609214578
40
-1
40
-1
40
-1
40
-0.46830478680223364
40
-0.46830478680223364
40
-0.46830478680223364
40
0
40
0
40
0
40
0.0014541002003970183
40
0.0014541002003970183
40
0.0014541002003970183
40
0.0014541002003970183
10
-16.257881539899799
20
30.075000000000045
30
0
10
-16.237892598528205
20
30.038093803279242
30
0
10
-16.217903657156469
20
30.00118760655845
30
0
10
-16.197914715784769
20
29.964281409837664
30
0
10
-13.907936344120309
20
25.736223970507012
30
0
10
-12.490204537427481
20
21.852666784496286
30
0
10
-12.402825777395314
20
18.505213363169712
30
0
10
-12.325864596304754
20
15.556854186910471
30
0
10
-13.30150398777473
20
13.028654043850674
30
0
10
-15.105378186275971
20
10.818175967270802
30
0
10
-15.11100909089496
20
10.811275823556826
30
0
10
-15.11663999551395
20
10.804375679842867
30
0
10
-15.122270900132797
20
10.797475536128992
30
0
0
LINE
5
110
100
AcDbEntity
8
0
100
AcDbLine
10
-15.122270900132762
20
10.797475536128998
30
0
11
-15.122270900132904
21
7.9249999999999954
31
0
0
LINE
5
111
100
AcDbEntity
8
0
100
AcDbLine
10
-15.122270900132904
20
7.9249999999999954
30
0
11
-12.972270900132905
21
7.9249999999999954
31
0
0
LINE
5
112
100
AcDbEntity
8
0
100
AcDbLine
10
-12.972270900132905
20
7.9249999999999954
30
0
11
-12.972270900132905
21
9.9249999999999972
31
0
0
LINE
5
113
100
AcDbEntity
8
0
100
AcDbLine
10
-12.972270900132905
20
9.9249999999999972
30
0
11
3.5422010820671446
21
9.9249999999999972
31
0
0
LINE
5
114
100
AcDbEntity
8
0
100
AcDbLine
10
3.5422010820671446
20
9.9249999999999972
30
0
11
3.5422010820671446
21
7.9249999999999954
31
0
0
LINE
5
115
100
AcDbEntity
8
0
100
AcDbLine
10
3.5422010820671446
20
7.9249999999999954
30
0
11
5.943335201556863
21
7.9249999999999954
31
0
0
SPLINE
5
116
100
AcDbEntity
8
0
100
AcDbSpline
70
0
71
3
72
26
73
22
74
0
42
0.000000001
43
0.0000000001
44
0.0000000001
40
-0.99830608371977592
40
-0.99830608371977592
40
-0.99830608371977592
40
-0.99830608371977592
40
-0.75
40
-0.75
40
-0.75
40
-0.55324219118985862
40
-0.55324219118985862
40
-0.55324219118985862
40
-0.38225804637641825
40
-0.38225804637641825
40
-0.38225804637641825
40
-0.22363017307919597
40
-0.22363017307919597
40
-0.22363017307919597
40
-0.029002964652907331
40
-0.029002964652907331
40
-0.029002964652907331
40
0
40
0
40
0
40
0.001232059581857867
40
0.001232059581857867
40
0.001232059581857867
40
0.001232059581857867
10
5.943335201556863
20
7.9249999999999776
30
0
10
6.4123356425138667
20
4.8014222550391406
30
0
10
6.9298745588855937
20
1.148478822306771
30
0
10
7.39069296367866
20
-2.9344400015526428
30
0
10
7.7558455939653825
20
-6.1697459968695689
30
0
10
8.0913146030520977
20
-9.690436257084567
30
0
10
8.0505990657223236
20
-13.007565587472367
30
0
10
8.0152169308375676
20
-15.890178100906214
30
0
10
7.6663824304807093
20
-18.573711112065432
30
0
10
6.7516147177487795
20
-20.679782305908905
30
0
10
5.9029532410372809
20
-22.633657004972065
30
0
10
4.5568715803926096
20
-24.073081568645208
30
0
10
2.7571096875676915
20
-25.093470776390483
30
0
10
0.54890613700884217
20
-26.34542920515706
30
0
10
-2.2991412656106291
20
-27.030222586578098
30
0
10
-5.437265687586148
20
-27.653741952430835
30
0
10
-5.9049028305267726
20
-27.746657584702668
30
0
10
-6.3795274935733914
20
-27.837386690081559
30
0
10
-6.8608859621275897
20
-27.92624615276134
30
0
10
-6.8813476068515911
20
-27.930023401681837
30
0
10
-6.901809251575628
20
-27.933800650602336
30
0
10
-6.9222708962996293
20
-27.937577899522861
30
0
0
LINE
5
117
100
AcDbEntity
8
0
100
AcDbLine
10
-6.9222708962996293
20
-27.93757789952285
30
0
11
-6.9222708962996649
21
-32.074999999999996
31
0
0
LINE
5
118
100
AcDbEntity
8
0
100
AcDbLine
10
-6.9222708962996649
20
-32.074999999999996
30
0
11
-3.7722708962996876
21
-32.074999999999996
31
0
0
LINE
5
119
100
AcDbEntity
8
0
100
AcDbLine
10
-3.7722708962996876
20
-32.074999999999996
30
0
11
-3.7722708962996876
21
-30.075000000000003
31
0
0
LINE
5
120
100
AcDbEntity
8
0
100
AcDbLine
10
-3.7722708962996876
20
-30.075000000000003
30
0
11
6.0777291037003067
21
-30.075000000000003
31
0
0
LINE
5
121
100
AcDbEntity
8
0
100
AcDbLine
10
6.0777291037003067
20
-30.075000000000003
30
0
11
6.0777291037003067
21
-32.074999999999996
31
0
0
LINE
5
122
100
AcDbEntity
8
0
100
AcDbLine
10
6.0777291037003067
20
-32.074999999999996
30
0
11
9.2277291037003195
21
-32.074999999999996
31
0
0
LINE
5
123
100
AcDbEntity
8
0
100
AcDbLine
10
9.2277291037003195
20
-32.074999999999996
30
0
11
9.2277291037003195
21
-28.029192764432906
31
0
0
SPLINE
5
124
100
AcDbEntity
8
0
100
AcDbSpline
70
0
71
3
72
23
73
19
74
0
42
0.000000001
43
0.0000000001
44
0.0000000001
40
0.0005874979396181941
40
0.0005874979396181941
40
0.0005874979396181941
40
0.0005874979396181941
40
0.21415066107269562
40
0.21415066107269562
40
0.21415066107269562
40
0.38873692374965718
40
0.38873692374965718
40
0.38873692374965718
40
0.59474610741475087
40
0.59474610741475087
40
0.59474610741475087
40
0.77967397673949423
40
0.77967397673949423
40
0.77967397673949423
40
0.98683364283698405
40
0.98683364283698405
40
0.98683364283698405
40
0.99082982610514947
40
0.99082982610514947
40
0.99082982610514947
40
0.99082982610514947
10
9.227729103700284
20
-28.029192764432906
30
0
10
11.622039551429104
20
-25.414830086511788
30
0
10
13.070249484058998
20
-22.09812450199669
30
0
10
13.650574563351725
20
-18.060801641312949
30
0
10
14.124985904919569
20
-14.760320888329286
30
0
10
14.015939263887844
20
-10.958918959978989
30
0
10
13.787536528294169
20
-6.7737278013394242
30
0
10
13.518024709981198
20
-1.8352647123561994
30
0
10
13.127967257398723
20
3.622651907384169
30
0
10
13.040035263007574
20
8.7441084369420352
30
0
10
12.961101518021394
20
13.341476510542666
30
0
10
13.110698778529333
20
17.617885760654197
30
0
10
13.565682282852976
20
21.11306034094115
30
0
10
14.075363334063482
20
25.028420430518523
30
0
10
14.958624268936696
20
27.989931808695317
30
0
10
16.19548653753661
20
29.960122810560318
30
0
10
16.219526044536394
20
29.998415207040203
30
0
10
16.243565551536179
20
30.036707603520089
30
0
10
16.267605058535963
20
30.074999999999982
30
0
0
LINE
5
125
100
AcDbEntity
8
0
100
AcDbLine
10
16.267605058535928
20
30.074999999999982
30
0
11
12.03929081531399
21
30.074999999999996
31
0
0
ENDSEC
0
SECTION
2
OBJECTS
0
DICTIONARY
5
C
100
AcDbDictionary
3
ACAD_GROUP
350
D
3
ACAD_MLINESTYLE
350
17
0
DICTIONARY
5
D
100
AcDbDictionary
0
DICTIONARY
5
1A
330
C
100
AcDbDictionary
0
DICTIONARY
5
17
100
AcDbDictionary
0
ENDSEC
0
EOF
