0
SECTION
2
HEADER
9
$INSUNITS
70
4
9
$ACADVER
1
AC1014
9
$HANDSEED
5
FFFF
0
ENDSEC
0
SECTION
2
TABLES
0
TABLE
2
VPORT
5
8
100
AcDbSymbolTable
0
ENDTAB
0
TABLE
2
LTYPE
5
5
100
AcDbSymbolTable
0
LTYPE
5
14
100
AcDbSymbolTableRecord
100
AcDbLinetypeTableRecord
2
BYBLOCK
70
0
0
LTYPE
5
15
100
AcDbSymbolTableRecord
100
AcDbLinetypeTableRecord
2
BYLAYER
70
0
0
ENDTAB
0
TABLE
2
LAYER
5
2
100
AcDbSymbolTable
70
2
0
LAYER
5
50
100
AcDbSymbolTableRecord
100
AcDbLayerTableRecord
2
0
70
0
6
CONTINUOUS
0
ENDTAB
0
TABLE
2
STYLE
5
3
100
AcDbSymbolTable
70
1
0
STYLE
5
11
100
AcDbSymbolTableRecord
100
AcDbTextStyleTableRecord
2
STANDARD
70
0
0
ENDTAB
0
TABLE
2
VIEW
5
6
100
AcDbSymbolTable
70
0
0
ENDTAB
0
TABLE
2
UCS
5
7
100
AcDbSymbolTable
70
0
0
ENDTAB
0
TABLE
2
APPID
5
9
100
AcDbSymbolTable
70
2
0
APPID
5
12
100
AcDbSymbolTableRecord
100
AcDbRegAppTableRecord
2
ACAD
70
0
0
ENDTAB
0
TABLE
2
DIMSTYLE
5
A
100
AcDbSymbolTable
70
1
0
ENDTAB
0
TABLE
2
BLOCK_RECORD
5
1
100
AcDbSymbolTable
70
1
0
BLOCK_RECORD
5
1F
100
AcDbSymbolTableRecord
100
AcDbBlockTableRecord
2
*MODEL_SPACE
0
BLOCK_RECORD
5
1B
100
AcDbSymbolTableRecord
100
AcDbBlockTableRecord
2
*PAPER_SPACE
0
ENDTAB
0
ENDSEC
0
SECTION
2
BLOCKS
0
BLOCK
5
20
100
AcDbEntity
100
AcDbBlockBegin
2
*MODEL_SPACE
0
ENDBLK
5
21
100
AcDbEntity
100
AcDbBlockEnd
0
BLOCK
5
1C
100
AcDbEntity
100
AcDbBlockBegin
2
*PAPER_SPACE
0
ENDBLK
5
1D
100
AcDbEntity
100
AcDbBlockEnd
0
ENDSEC
0
SECTION
2
ENTITIES
0
LINE
5
100
100
AcDbEntity
8
0
100
AcDbLine
10
-3.714888248603998
20
-10.075000000000003
30
0
11
6.1351117513959963
21
-10.075000000000003
31
0
0
LINE
5
101
100
AcDbEntity
8
0
100
AcDbLine
10
6.1351117513959963
20
-10.075000000000003
30
0
11
6.1351117513959963
21
-12.075000000000005
31
0
0
LINE
5
102
100
AcDbEntity
8
0
100
AcDbLine
10
6.1351117513959963
20
-12.075000000000005
30
0
11
9.9495837335960502
21
-12.075000000000005
31
0
0
LINE
5
103
100
AcDbEntity
8
0
100
AcDbLine
10
9.9495837335960502
20
-12.075000000000005
30
0
11
9.9495837335960147
21
-7.9528232907978769
31
0
0
SPLINE
5
104
100
AcDbEntity
8
0
100
AcDbSpline
70
0
71
3
72
20
73
16
74
0
42
0.000000001
43
0.0000000001
44
0.0000000001
40
-0.0015786325062080884
40
-0.0015786325062080884
40
-0.0015786325062080884
40
-0.0015786325062080884
40
0
40
0
40
0
40
0.5
40
0.5
40
0.5
40
0.94864590286452732
40
0.94864590286452732
40
0.94864590286452732
40
1
40
1
40
1
40
1.000979158644169
40
1.000979158644169
40
1.000979158644169
40
1.000979158644169
10
9.949583733595837
20
-7.9528232907977925
30
0
10
9.9354088296707843
20
-7.9460140586696504
30
0
10
9.9212339257458027
20
-7.939204826541526
30
0
10
9.907059021820821
20
-7.9323955944134017
30
0
10
5.4284205641869931
20
-5.7809814446373275
30
0
10
2.9238534462822585
20
-3.279653799699096
30
0
10
2.983522785334678
20
-0.30998362534674584
30
0
10
3.0370635943191715
20
2.354677087817576
30
0
10
5.1211667420938412
20
5.4314307021366348
30
0
10
8.6529727022485048
20
8.7820570515040952
30
0
10
9.0572396423529256
20
9.1655853305131387
30
0
10
9.4810252995327815
20
9.5528306699376042
30
0
10
9.9241975254174619
20
9.9437552521465111
30
0
10
9.9326595948103247
20
9.9512196886540885
30
0
10
9.941121664203223
20
9.9586841251616711
30
0
10
9.9495837335961923
20
9.9661485616693355
30
0
0
LINE
5
105
100
AcDbEntity
8
0
100
AcDbLine
10
9.9495837335961568
20
9.966148561669339
30
0
11
9.9495837335960502
21
12.074999999999999
31
0
0
LINE
5
106
100
AcDbEntity
8
0
100
AcDbLine
10
9.9495837335960502
20
12.074999999999999
30
0
11
4.7995837335960445
21
12.074999999999999
31
0
0
LINE
5
107
100
AcDbEntity
8
0
100
AcDbLine
10
4.7995837335960445
20
12.074999999999999
30
0
11
4.7995837335960445
21
10.075000000000001
31
0
0
LINE
5
108
100
AcDbEntity
8
0
100
AcDbLine
10
4.7995837335960445
20
10.075000000000001
30
0
11
-4.799583733596009
21
10.075000000000001
31
0
0
LINE
5
109
100
AcDbEntity
8
0
100
AcDbLine
10
-4.799583733596009
20
10.075000000000001
30
0
11
-4.799583733596009
21
12.074999999999999
31
0
0
LINE
5
110
100
AcDbEntity
8
0
100
AcDbLine
10
-4.799583733596009
20
12.074999999999999
30
0
11
-9.9495837335960147
21
12.074999999999999
31
0
0
LINE
5
111
100
AcDbEntity
8
0
100
AcDbLine
10
-9.9495837335960147
20
12.074999999999999
30
0
11
-9.9495837335960147
21
9.9518466059884769
31
0
0
SPLINE
5
112
100
AcDbEntity
8
0
100
AcDbSpline
70
0
71
3
72
17
73
13
74
0
42
0.000000001
43
0.0000000001
44
0.0000000001
40
-1.0017781908319503
40
-1.0017781908319503
40
-1.0017781908319503
40
-1.0017781908319503
40
-1
40
-1
40
-1
40
-0.5
40
-0.5
40
-0.5
40
0
40
0
40
0
40
0.0008287023398587418
40
0.0008287023398587418
40
0.0008287023398587418
40
0.0008287023398587418
10
-9.9495837335956239
20
9.9518466059883117
30
0
10
-9.9349889292328797
20
9.9451659995179398
30
0
10
-9.9203941248701355
20
9.9384853930475803
30
0
10
-9.9057993205073913
20
9.9318047865772208
30
0
10
-5.81348621631669
20
8.0585947919042233
30
0
10
-3.3372827710076081
20
5.7140588025482009
30
0
10
-2.9809393097171721
20
2.7361912525917553
30
0
10
-2.6245958484270204
20
-0.24167629736469021
30
0
10
-4.341147147120914
20
-3.8755963731220344
30
0
10
-7.51355912720026
20
-7.9539512142888658
30
0
10
-7.5188261617348573
20
-7.9607223511801761
30
0
10
-7.5240931962694546
20
-7.9674934880714776
30
0
10
-7.5293602308040875
20
-7.974264624962788
30
0
0
LINE
5
113
100
AcDbEntity
8
0
100
AcDbLine
10
-7.5293602308040875
20
-7.9742646249627924
30
0
11
-7.5293602308040519
21
-12.075000000000005
31
0
0
LINE
5
114
100
AcDbEntity
8
0
100
AcDbLine
10
-7.5293602308040519
20
-12.075000000000005
30
0
11
-3.714888248603998
21
-12.075000000000005
31
0
0
LINE
5
115
100
AcDbEntity
8
0
100
AcDbLine
10
-3.714888248603998
20
-12.075000000000005
30
0
11
-3.714888248603998
21
-10.075000000000003
31
0
0
ENDSEC
0
SECTION
2
OBJECTS
0
DICTIONARY
5
C
100
AcDbDictionary
3
ACAD_GROUP
350
D
3
ACAD_MLINESTYLE
350
17
0
DICTIONARY
5
D
100
AcDbDictionary
0
DICTIONARY
5
1A
330
C
100
AcDbDictionary
0
DICTIONARY
5
17
100
AcDbDictionary
0
ENDSEC
0
EOF
