0
SECTION
2
HEADER
9
$INSUNITS
70
4
9
$ACADVER
1
AC1014
9
$HANDSEED
5
FFFF
0
ENDSEC
0
SECTION
2
TABLES
0
TABLE
2
VPORT
5
8
100
AcDbSymbolTable
0
ENDTAB
0
TABLE
2
LTYPE
5
5
100
AcDbSymbolTable
0
LTYPE
5
14
100
AcDbSymbolTableRecord
100
AcDbLinetypeTableRecord
2
BYBLOCK
70
0
0
LTYPE
5
15
100
AcDbSymbolTableRecord
100
AcDbLinetypeTableRecord
2
BYLAYER
70
0
0
ENDTAB
0
TABLE
2
LAYER
5
2
100
AcDbSymbolTable
70
2
0
LAYER
5
50
100
AcDbSymbolTableRecord
100
AcDbLayerTableRecord
2
0
70
0
6
CONTINUOUS
0
ENDTAB
0
TABLE
2
STYLE
5
3
100
AcDbSymbolTable
70
1
0
STYLE
5
11
100
AcDbSymbolTableRecord
100
AcDbTextStyleTableRecord
2
STANDARD
70
0
0
ENDTAB
0
TABLE
2
VIEW
5
6
100
AcDbSymbolTable
70
0
0
ENDTAB
0
TABLE
2
UCS
5
7
100
AcDbSymbolTable
70
0
0
ENDTAB
0
TABLE
2
APPID
5
9
100
AcDbSymbolTable
70
2
0
APPID
5
12
100
AcDbSymbolTableRecord
100
AcDbRegAppTableRecord
2
ACAD
70
0
0
ENDTAB
0
TABLE
2
DIMSTYLE
5
A
100
AcDbSymbolTable
70
1
0
ENDTAB
0
TABLE
2
BLOCK_RECORD
5
1
100
AcDbSymbolTable
70
1
0
BLOCK_RECORD
5
1F
100
AcDbSymbolTableRecord
100
AcDbBlockTableRecord
2
*MODEL_SPACE
0
BLOCK_RECORD
5
1B
100
AcDbSymbolTableRecord
100
AcDbBlockTableRecord
2
*PAPER_SPACE
0
ENDTAB
0
ENDSEC
0
SECTION
2
BLOCKS
0
BLOCK
5
20
100
AcDbEntity
100
AcDbBlockBegin
2
*MODEL_SPACE
0
ENDBLK
5
21
100
AcDbEntity
100
AcDbBlockEnd
0
BLOCK
5
1C
100
AcDbEntity
100
AcDbBlockBegin
2
*PAPER_SPACE
0
ENDBLK
5
1D
100
AcDbEntity
100
AcDbBlockEnd
0
ENDSEC
0
SECTION
2
ENTITIES
0
LINE
5
100
100
AcDbEntity
8
0
100
AcDbLine
10
-3.9115630789281397
20
35.532431371820024
30
0
11
-3.9115630789281397
21
37.382431371820019
31
0
0
LINE
5
101
100
AcDbEntity
8
0
100
AcDbLine
10
-3.9115630789281397
20
37.382431371820019
30
0
11
3.9384369210718617
21
37.382431371819976
31
0
0
LINE
5
102
100
AcDbEntity
8
0
100
AcDbLine
10
3.9384369210718617
20
37.382431371819976
30
0
11
3.9384369210718617
21
35.532431371819996
31
0
0
LINE
5
103
100
AcDbEntity
8
0
100
AcDbLine
10
3.9384369210718617
20
35.532431371819996
30
0
11
-3.9115630789281397
21
35.532431371820024
31
0
0
LINE
5
104
100
AcDbEntity
8
0
100
AcDbLine
10
-2.0615630789281525
20
48.414174489921308
30
0
11
-2.061563078928117
21
43.532431371819996
31
0
0
ARC
5
105
100
AcDbEntity
8
0
100
AcDbCircle
10
0.013436921071843244
20
51.957431371820007
30
0
40
4.1061288741493094
210
-0
220
0
230
1
100
AcDbArc
50
-59.645932218375357
51
239.64593221837583
0
LINE
5
106
100
AcDbEntity
8
0
100
AcDbLine
10
2.0884369210718745
20
43.532431371819996
30
0
11
2.0884369210718745
21
48.414174489921308
31
0
0
LINE
5
107
100
AcDbEntity
8
0
100
AcDbLine
10
8.0750000000000099
20
43.532431371819996
30
0
11
2.0884369210718745
21
43.532431371819996
31
0
0
LINE
5
108
100
AcDbEntity
8
0
100
AcDbLine
10
8.0750000000000099
20
-35.40608975707444
30
0
11
8.0750000000000099
21
43.532431371819996
31
0
0
LINE
5
109
100
AcDbEntity
8
0
100
AcDbLine
10
10.075000000000003
20
-43.692863764487328
30
0
11
8.0750000000000099
21
-35.40608975707444
31
0
0
LINE
5
110
100
AcDbEntity
8
0
100
AcDbLine
10
10.075000000000003
20
-43.98184978415987
30
0
11
10.075000000000003
21
-43.692863764487328
31
0
0
LINE
5
111
100
AcDbEntity
8
0
100
AcDbLine
10
5.0750000000000028
20
-43.98184978415987
30
0
11
10.075000000000003
21
-43.98184978415987
31
0
0
LINE
5
112
100
AcDbEntity
8
0
100
AcDbLine
10
5.0750000000000028
20
-45.83050856124386
30
0
11
5.0750000000000028
21
-43.98184978415987
31
0
0
LINE
5
113
100
AcDbEntity
8
0
100
AcDbLine
10
8.0750000000000099
20
-45.83050856124386
30
0
11
5.0750000000000028
21
-45.83050856124386
31
0
0
LINE
5
114
100
AcDbEntity
8
0
100
AcDbLine
10
8.0750000000000099
20
-51.913560245956475
30
0
11
8.0750000000000099
21
-45.83050856124386
31
0
0
LINE
5
115
100
AcDbEntity
8
0
100
AcDbLine
10
9.9249999999999972
20
-51.913560245956475
30
0
11
8.0750000000000099
21
-51.913560245956475
31
0
0
LINE
5
116
100
AcDbEntity
8
0
100
AcDbLine
10
9.9249999999999972
20
-45.83050856124386
30
0
11
9.9249999999999972
21
-51.913560245956475
31
0
0
LINE
5
117
100
AcDbEntity
8
0
100
AcDbLine
10
10.590917242305444
20
-45.83050856124386
30
0
11
9.9249999999999972
21
-45.83050856124386
31
0
0
LINE
5
118
100
AcDbEntity
8
0
100
AcDbLine
10
12.075000000000031
20
-51.979637771900343
30
0
11
10.590917242305444
21
-45.83050856124386
31
0
0
LINE
5
119
100
AcDbEntity
8
0
100
AcDbLine
10
12.075000000000031
20
-56.063560245956481
30
0
11
12.075000000000031
21
-51.979637771900343
31
0
0
LINE
5
120
100
AcDbEntity
8
0
100
AcDbLine
10
2.9250103294824825
20
-56.063560245956481
30
0
11
12.075000000000031
21
-56.063560245956481
31
0
0
LINE
5
121
100
AcDbEntity
8
0
100
AcDbLine
10
2.9249998407162181
20
-51.92645964740295
30
0
11
2.9250103294824825
21
-56.063560245956481
31
0
0
SPLINE
5
122
100
AcDbEntity
8
0
100
AcDbSpline
70
0
71
3
72
26
73
22
74
0
42
0.000000001
43
0.0000000001
44
0.0000000001
40
2.0826576157932282
40
2.0826576157932282
40
2.0826576157932282
40
2.0826576157932282
40
2.8606026554537625
40
2.8606026554537625
40
2.8606026554537625
40
3.6240056613754792
40
3.6240056613754792
40
3.6240056613754792
40
4.5882508836384952
40
4.5882508836384952
40
4.5882508836384952
40
5.5250890893086115
40
5.5250890893086115
40
5.5250890893086115
40
6.2635525158234504
40
6.2635525158234504
40
6.2635525158234504
40
6.9531762861402413
40
6.9531762861402413
40
6.9531762861402413
40
7.3421203143579721
40
7.3421203143579721
40
7.3421203143579721
40
7.3421203143579721
10
2.9249998407162181
20
-51.92645964740295
30
0
10
4.2713296434781256
20
-51.672625838006994
30
0
10
5.300176227931388
20
-51.233010611353734
30
0
10
5.707989489429437
20
-50.762029053583021
30
0
10
6.1081795463236688
20
-50.299851497835974
30
0
10
5.9655626620354596
20
-49.831502213252463
30
0
10
5.2749957336728315
20
-49.391943289717673
30
0
10
4.4027488913610924
20
-48.836741661437785
30
0
10
2.6453111382850025
20
-48.426091506042241
30
0
10
0.73980025459196241
20
-48.346835135077896
30
0
10
-1.1115497505179661
20
-48.269831490519621
30
0
10
-3.0576043807036868
20
-48.503531424727186
30
0
10
-4.3319720591087219
20
-48.952172936037641
30
0
10
-5.3364933486323451
20
-49.305814947768084
30
0
10
-5.8982259827460837
20
-49.784561578850926
30
0
10
-5.9239734816231149
20
-50.221656678745333
30
0
10
-5.9480181216340711
20
-50.629843678877165
30
0
10
-5.5186901631836349
20
-51.073883570313527
30
0
10
-4.6738772094140302
20
-51.429337092782745
30
0
10
-4.1974073319637029
20
-51.629810932032584
30
0
10
-3.5989375013780389
20
-51.800087539000486
30
0
10
-2.9249999999267828
20
-51.926459617580974
30
0
0
LINE
5
123
100
AcDbEntity
8
0
100
AcDbLine
10
-2.925000000003557
20
-56.063560245956481
30
0
11
-2.9249999999973753
21
-51.926459617567758
31
0
0
LINE
5
124
100
AcDbEntity
8
0
100
AcDbLine
10
-12.074999999999996
20
-56.063560245956481
30
0
11
-2.925000000003557
21
-56.063560245956481
31
0
0
LINE
5
125
100
AcDbEntity
8
0
100
AcDbLine
10
-12.074999999999996
20
-51.979637771900343
30
0
11
-12.074999999999996
21
-56.063560245956481
31
0
0
LINE
5
126
100
AcDbEntity
8
0
100
AcDbLine
10
-10.590917242305409
20
-45.83050856124386
30
0
11
-12.074999999999996
21
-51.979637771900343
31
0
0
LINE
5
127
100
AcDbEntity
8
0
100
AcDbLine
10
-9.9249999999999616
20
-45.83050856124386
30
0
11
-10.590917242305409
21
-45.83050856124386
31
0
0
LINE
5
128
100
AcDbEntity
8
0
100
AcDbLine
10
-9.9249999999999616
20
-51.913560245956475
30
0
11
-9.9249999999999616
21
-45.83050856124386
31
0
0
LINE
5
129
100
AcDbEntity
8
0
100
AcDbLine
10
-8.0749999999999744
20
-51.913560245956475
30
0
11
-9.9249999999999616
21
-51.913560245956475
31
0
0
LINE
5
130
100
AcDbEntity
8
0
100
AcDbLine
10
-8.0749999999999744
20
-45.83050856124386
30
0
11
-8.0749999999999744
21
-51.913560245956475
31
0
0
LINE
5
131
100
AcDbEntity
8
0
100
AcDbLine
10
-5.0750000000000028
20
-45.83050856124386
30
0
11
-8.0749999999999744
21
-45.83050856124386
31
0
0
LINE
5
132
100
AcDbEntity
8
0
100
AcDbLine
10
-5.0750000000000028
20
-43.981849784159849
30
0
11
-5.0750000000000028
21
-45.83050856124386
31
0
0
LINE
5
133
100
AcDbEntity
8
0
100
AcDbLine
10
-10.074999999999967
20
-43.981849784159849
30
0
11
-5.0750000000000028
21
-43.981849784159849
31
0
0
LINE
5
134
100
AcDbEntity
8
0
100
AcDbLine
10
-10.074999999999967
20
-43.692863764487328
30
0
11
-10.074999999999967
21
-43.981849784159849
31
0
0
LINE
5
135
100
AcDbEntity
8
0
100
AcDbLine
10
-8.0749999999999744
20
-35.40608975707444
30
0
11
-10.074999999999967
21
-43.692863764487328
31
0
0
LINE
5
136
100
AcDbEntity
8
0
100
AcDbLine
10
-8.0749999999999744
20
43.532431371820039
30
0
11
-8.0749999999999744
21
-35.40608975707444
31
0
0
LINE
5
137
100
AcDbEntity
8
0
100
AcDbLine
10
-2.061563078928117
20
43.532431371819996
30
0
11
-8.0749999999999744
21
43.532431371820039
31
0
0
ENDSEC
0
SECTION
2
OBJECTS
0
DICTIONARY
5
C
100
AcDbDictionary
3
ACAD_GROUP
350
D
3
ACAD_MLINESTYLE
350
17
0
DICTIONARY
5
D
100
AcDbDictionary
0
DICTIONARY
5
1A
330
C
100
AcDbDictionary
0
DICTIONARY
5
17
100
AcDbDictionary
0
ENDSEC
0
EOF
