0
SECTION
2
HEADER
9
$INSUNITS
70
4
9
$ACADVER
1
AC1014
9
$HANDSEED
5
FFFF
0
ENDSEC
0
SECTION
2
TABLES
0
TABLE
2
VPORT
5
8
100
AcDbSymbolTable
0
ENDTAB
0
TABLE
2
LTYPE
5
5
100
AcDbSymbolTable
0
LTYPE
5
14
100
AcDbSymbolTableRecord
100
AcDbLinetypeTableRecord
2
BYBLOCK
70
0
0
LTYPE
5
15
100
AcDbSymbolTableRecord
100
AcDbLinetypeTableRecord
2
BYLAYER
70
0
0
ENDTAB
0
TABLE
2
LAYER
5
2
100
AcDbSymbolTable
70
2
0
LAYER
5
50
100
AcDbSymbolTableRecord
100
AcDbLayerTableRecord
2
0
70
0
6
CONTINUOUS
0
ENDTAB
0
TABLE
2
STYLE
5
3
100
AcDbSymbolTable
70
1
0
STYLE
5
11
100
AcDbSymbolTableRecord
100
AcDbTextStyleTableRecord
2
STANDARD
70
0
0
ENDTAB
0
TABLE
2
VIEW
5
6
100
AcDbSymbolTable
70
0
0
ENDTAB
0
TABLE
2
UCS
5
7
100
AcDbSymbolTable
70
0
0
ENDTAB
0
TABLE
2
APPID
5
9
100
AcDbSymbolTable
70
2
0
APPID
5
12
100
AcDbSymbolTableRecord
100
AcDbRegAppTableRecord
2
ACAD
70
0
0
ENDTAB
0
TABLE
2
DIMSTYLE
5
A
100
AcDbSymbolTable
70
1
0
ENDTAB
0
TABLE
2
BLOCK_RECORD
5
1
100
AcDbSymbolTable
70
1
0
BLOCK_RECORD
5
1F
100
AcDbSymbolTableRecord
100
AcDbBlockTableRecord
2
*MODEL_SPACE
0
BLOCK_RECORD
5
1B
100
AcDbSymbolTableRecord
100
AcDbBlockTableRecord
2
*PAPER_SPACE
0
ENDTAB
0
ENDSEC
0
SECTION
2
BLOCKS
0
BLOCK
5
20
100
AcDbEntity
100
AcDbBlockBegin
2
*MODEL_SPACE
0
ENDBLK
5
21
100
AcDbEntity
100
AcDbBlockEnd
0
BLOCK
5
1C
100
AcDbEntity
100
AcDbBlockBegin
2
*PAPER_SPACE
0
ENDBLK
5
1D
100
AcDbEntity
100
AcDbBlockEnd
0
ENDSEC
0
SECTION
2
ENTITIES
0
CIRCLE
5
100
100
AcDbEntity
8
0
100
AcDbCircle
10
11.924680034495125
20
20.548025188649966
30
-7.1054273576010019e-14
40
4.9249999999999989
210
0
220
0
230
1
0
LINE
5
101
100
AcDbEntity
8
0
100
AcDbLine
10
-26.023947670633127
20
-14.656222008322839
30
0
11
-25.619003097953872
21
-14.656222008322795
31
0
0
LINE
5
102
100
AcDbEntity
8
0
100
AcDbLine
10
-25.619003097953872
20
-14.656222008322795
30
0
11
-25.619003097953872
21
-16.656222008322807
31
0
0
LINE
5
103
100
AcDbEntity
8
0
100
AcDbLine
10
-25.619003097953872
20
-16.656222008322807
30
0
11
-20.619003097951953
21
-16.656222008322352
31
0
0
LINE
5
104
100
AcDbEntity
8
0
100
AcDbLine
10
-20.619003097951953
20
-16.656222008322352
30
0
11
-20.619003097951953
21
-18.658287057917367
31
0
0
LINE
5
105
100
AcDbEntity
8
0
100
AcDbLine
10
-20.619003097951953
20
-18.658287057917367
30
0
11
-14.469003098027642
21
-18.658287057917367
31
0
0
LINE
5
106
100
AcDbEntity
8
0
100
AcDbLine
10
-14.469003098027642
20
-18.658287057917367
30
0
11
-14.469003098027642
21
-16.656222008322352
31
0
0
LINE
5
107
100
AcDbEntity
8
0
100
AcDbLine
10
-14.469003098027642
20
-16.656222008322352
30
0
11
-9.469003097953852
21
-16.656222008322807
31
0
0
LINE
5
108
100
AcDbEntity
8
0
100
AcDbLine
10
-9.469003097953852
20
-16.656222008322807
30
0
11
-9.469003097953852
21
-14.570091071653497
31
0
0
SPLINE
5
109
100
AcDbEntity
8
0
100
AcDbSpline
70
0
71
3
72
23
73
19
74
0
42
0.000000001
43
0.0000000001
44
0.0000000001
40
-0.0003810009365862563
40
-0.0003810009365862563
40
-0.0003810009365862563
40
-0.0003810009365862563
40
0
40
0
40
0
40
0.30796989606492464
40
0.30796989606492464
40
0.30796989606492464
40
0.54999439585449339
40
0.54999439585449339
40
0.54999439585449339
40
0.82058487040291839
40
0.82058487040291839
40
0.82058487040291839
40
1
40
1
40
1
40
1.0006931939386563
40
1.0006931939386563
40
1.0006931939386563
40
1.0006931939386563
10
-9.4690030979533546
20
-14.570091071655353
30
0
10
-9.4700806762693546
20
-14.566540685511544
30
0
10
-9.4711582545853545
20
-14.562990299367815
30
0
10
-9.4722358329013545
20
-14.559439913224139
30
0
10
-10.340374533616767
20
-11.699111742122126
30
0
10
-10.661772967879912
20
-8.6194475799050352
30
0
10
-10.347496587111245
20
-5.370007739982654
30
0
10
-10.100516006141795
20
-2.816368368400326
30
0
10
-9.4426255615757526
20
-0.14316788286664384
30
0
10
-8.4070369261836575
20
2.3586081101262746
30
0
10
-7.2492185213058846
20
5.1556668944493467
30
0
10
-5.620870666085942
20
7.7214071743000368
30
0
10
-3.9675289643438205
20
9.0659920812018502
30
0
10
-2.8712800436035124
20
9.9575196773918506
30
0
10
-1.7890812885312002
20
10.290692301869079
30
0
10
-0.76904935348441228
20
9.9293056913479205
30
0
10
-0.76499834315420401
20
9.9278704608986335
30
0
10
-0.76094733282403126
20
9.9264352304493464
30
0
10
-0.75689632249375194
20
9.9249999999999972
30
0
0
LINE
5
110
100
AcDbEntity
8
0
100
AcDbLine
10
-0.75689632249378747
20
9.9249999999999972
30
0
11
3.1809968982152625
21
9.9249999999999972
31
0
0
LINE
5
111
100
AcDbEntity
8
0
100
AcDbLine
10
3.1809968982152625
20
9.9249999999999972
30
0
11
3.1809968982152625
21
7.9249999999999954
31
0
0
LINE
5
112
100
AcDbEntity
8
0
100
AcDbLine
10
3.1809968982152625
20
7.9249999999999954
30
0
11
11.330996898215275
21
7.9249999999999954
31
0
0
LINE
5
113
100
AcDbEntity
8
0
100
AcDbLine
10
11.330996898215275
20
7.9249999999999954
30
0
11
11.330996898215275
21
9.9249999999999972
31
0
0
LINE
5
114
100
AcDbEntity
8
0
100
AcDbLine
10
11.330996898215275
20
9.9249999999999972
30
0
11
15.180996898215291
21
9.9249999999999972
31
0
0
LINE
5
115
100
AcDbEntity
8
0
100
AcDbLine
10
15.180996898215291
20
9.9249999999999972
30
0
11
15.18099689821522
21
7.9246806238444201
31
0
0
SPLINE
5
116
100
AcDbEntity
8
0
100
AcDbSpline
70
0
71
3
72
38
73
34
74
0
42
0.000000001
43
0.0000000001
44
0.0000000001
40
-1.0013947959988634
40
-1.0013947959988634
40
-1.0013947959988634
40
-1.0013947959988634
40
-1
40
-1
40
-1
40
-0.88451807077020195
40
-0.88451807077020195
40
-0.88451807077020195
40
-0.75953306994341419
40
-0.75953306994341419
40
-0.75953306994341419
40
-0.62639980482666191
40
-0.62639980482666191
40
-0.62639980482666191
40
-0.48438639547017359
40
-0.48438639547017359
40
-0.48438639547017359
40
-0.37094631722802779
40
-0.37094631722802779
40
-0.37094631722802779
40
-0.26795300384330822
40
-0.26795300384330822
40
-0.26795300384330822
40
-0.1438015059457794
40
-0.1438015059457794
40
-0.1438015059457794
40
-0.029567005006448419
40
-0.029567005006448419
40
-0.029567005006448419
40
0
40
0
40
0
40
0.00073900340686725995
40
0.00073900340686725995
40
0.00073900340686725995
40
0.00073900340686725995
10
15.180996898215398
20
7.9246806238444112
30
0
10
15.206103130266762
20
7.9247873082689324
30
0
10
15.231209362318125
20
7.9248939926934536
30
0
10
15.256315594369489
20
7.9250006771179748
30
0
10
17.326291376516672
20
7.9337966674777505
30
0
10
18.570101328342155
20
7.590276870641981
30
0
10
19.239294108425469
20
6.8299827262682378
30
0
10
19.963555131165762
20
6.0071235577652349
30
0
10
20.075581202807733
20
4.6282057850335789
30
0
10
20.034991657942527
20
2.6468448197001315
30
0
10
19.991755920839971
20
0.53631113209954506
30
0
10
19.806586015749907
20
-2.2534792768379397
30
0
10
19.712348786393683
20
-5.2285670037969556
30
0
10
19.611825823800899
20
-8.4020965560811067
30
0
10
19.61091455064274
20
-11.738331495052758
30
0
10
19.506432650164385
20
-14.493677893798234
30
0
10
19.422972679596384
20
-16.694644073500903
30
0
10
19.262644091369374
20
-18.509065462749589
30
0
10
18.76267771674641
20
-19.839871482125282
30
0
10
18.308753545489687
20
-21.048122776833136
30
0
10
17.53153114902922
20
-21.886118995505104
30
0
10
16.300249259061772
20
-22.593742691430254
30
0
10
14.81602192478281
20
-23.446735365515117
30
0
10
12.678229781406607
20
-24.119899739557784
30
0
10
10.648149942368548
20
-24.868338290049834
30
0
10
8.7802292067611631
20
-25.556992923679658
30
0
10
7.0600089691121326
20
-26.307960932553485
30
0
10
6.0447299951128386
20
-27.219188315468131
30
0
10
5.781948101198644
20
-27.455038819222324
30
0
10
5.5638179686187073
20
-27.70134102488641
30
0
10
5.3934647944331715
20
-27.958590634909697
30
0
10
5.3893088303049197
20
-27.964866538815663
30
0
10
5.3851528661766679
20
-27.971142442721622
30
0
10
5.3809969020484516
20
-27.977418346627498
30
0
0
LINE
5
117
100
AcDbEntity
8
0
100
AcDbLine
10
5.3809969020484871
20
-27.977418346627509
30
0
11
5.3809969020485227
21
-30.075000000000003
31
0
0
LINE
5
118
100
AcDbEntity
8
0
100
AcDbLine
10
5.3809969020485227
20
-30.075000000000003
30
0
11
9.3944338231203517
21
-30.075000000000003
31
0
0
LINE
5
119
100
AcDbEntity
8
0
100
AcDbLine
10
9.3944338231203517
20
-30.075000000000003
30
0
11
9.3944338231203517
21
-32.074999999999996
31
0
0
LINE
5
120
100
AcDbEntity
8
0
100
AcDbLine
10
9.3944338231203517
20
-32.074999999999996
30
0
11
17.544433823120364
21
-32.074999999999996
31
0
0
LINE
5
121
100
AcDbEntity
8
0
100
AcDbLine
10
17.544433823120364
20
-32.074999999999996
30
0
11
17.544433823120364
21
-30.075000000000003
31
0
0
LINE
5
122
100
AcDbEntity
8
0
100
AcDbLine
10
17.544433823120364
20
-30.075000000000003
30
0
11
21.530996902048507
21
-30.075000000000003
31
0
0
LINE
5
123
100
AcDbEntity
8
0
100
AcDbLine
10
21.530996902048507
20
-30.075000000000003
30
0
11
21.530996902048507
21
-28.053814217428624
31
0
0
SPLINE
5
124
100
AcDbEntity
8
0
100
AcDbSpline
70
0
71
3
72
35
73
31
74
0
42
0.000000001
43
0.0000000001
44
0.0000000001
40
0.001814356801480273
40
0.001814356801480273
40
0.001814356801480273
40
0.001814356801480273
40
0.15556399925774161
40
0.15556399925774161
40
0.15556399925774161
40
0.29512718982165537
40
0.29512718982165537
40
0.29512718982165537
40
0.44501998426396366
40
0.44501998426396366
40
0.44501998426396366
40
0.56783173790339914
40
0.56783173790339914
40
0.56783173790339914
40
0.65189632156218069
40
0.65189632156218069
40
0.65189632156218069
40
0.73892224117163552
40
0.73892224117163552
40
0.73892224117163552
40
0.82656906592892776
40
0.82656906592892776
40
0.82656906592892776
40
0.93013575944313021
40
0.93013575944313021
40
0.93013575944313021
40
1
40
1
40
1
40
1.0028995656914292
40
1.0028995656914292
40
1.0028995656914292
40
1.0028995656914292
10
21.530996902048471
20
-28.053814217428624
30
0
10
22.985853575903334
20
-27.546083857409648
30
0
10
24.030781460479851
20
-25.812458552810639
30
0
10
24.708783343517631
20
-22.950390085905195
30
0
10
25.324226114592747
20
-20.352404162345561
30
0
10
25.636049317611622
20
-16.793020263383287
30
0
10
25.779523922068783
20
-12.777703155271576
30
0
10
25.933617629060528
20
-8.4651971178630703
30
0
10
25.932939485913558
20
-3.6703753845199749
30
0
10
25.771879080305133
20
0.65117115190941099
30
0
10
25.639917361076101
20
4.191946481023674
30
0
10
25.410278198606342
20
7.3959681848578285
30
0
10
24.69479883692987
20
9.936727112776218
30
0
10
24.205053573358697
20
11.675875322318664
30
0
10
23.436623823952694
20
13.098148789251955
30
0
10
22.613294951460041
20
14.373106269968163
30
0
10
21.760962742684455
20
15.692976569601669
30
0
10
20.901794474033757
20
16.886475327501444
30
0
10
20.414683326131353
20
18.203323412256974
30
0
10
19.924096778938036
20
19.529566833004516
30
0
10
19.836186094073263
20
21.003333578237104
30
0
10
19.962385066245218
20
22.478746705799175
30
0
10
20.111506387056686
20
24.22214881548414
30
0
10
20.474497314776876
20
25.903056437296325
30
0
10
20.821718347443579
20
27.349695353084268
30
0
10
21.055947450734465
20
28.325572112128224
30
0
10
21.293544884193985
20
29.203289623551459
30
0
10
21.52778933225072
20
29.978300991597354
30
0
10
21.53753164347556
20
30.010533994398251
30
0
10
21.547273954700401
20
30.042766997199138
30
0
10
21.557016265925206
20
30.075000000000038
30
0
0
LINE
5
125
100
AcDbEntity
8
0
100
AcDbLine
10
21.557016265925171
20
30.075000000000038
30
0
11
17.364757165451259
21
30.075000000000003
31
0
0
LINE
5
126
100
AcDbEntity
8
0
100
AcDbLine
10
17.364757165451259
20
30.075000000000003
30
0
11
17.364757165451259
21
32.075000000000003
31
0
0
LINE
5
127
100
AcDbEntity
8
0
100
AcDbLine
10
17.364757165451259
20
32.075000000000003
30
0
11
7.2147571654512532
21
32.075000000000003
31
0
0
LINE
5
128
100
AcDbEntity
8
0
100
AcDbLine
10
7.2147571654512532
20
32.075000000000003
30
0
11
7.2147571654512532
21
30.075000000000003
31
0
0
LINE
5
129
100
AcDbEntity
8
0
100
AcDbLine
10
7.2147571654512532
20
30.075000000000003
30
0
11
-5.1306632103309013
21
30.075000000000003
31
0
0
LINE
5
130
100
AcDbEntity
8
0
100
AcDbLine
10
-5.1306632103309013
20
30.075000000000003
30
0
11
-5.1306632103309013
21
32.075000000000003
31
0
0
LINE
5
131
100
AcDbEntity
8
0
100
AcDbLine
10
-5.1306632103309013
20
32.075000000000003
30
0
11
-15.280663210330907
21
32.075000000000003
31
0
0
LINE
5
132
100
AcDbEntity
8
0
100
AcDbLine
10
-15.280663210330907
20
32.075000000000003
30
0
11
-15.280663210330907
21
30.075000000000003
31
0
0
LINE
5
133
100
AcDbEntity
8
0
100
AcDbLine
10
-15.280663210330907
20
30.075000000000003
30
0
11
-23.703842643896991
21
30.074999999999946
31
0
0
SPLINE
5
134
100
AcDbEntity
8
0
100
AcDbSpline
70
0
71
3
72
29
73
25
74
0
42
0.000000001
43
0.0000000001
44
0.0000000001
40
-1.0019374647945563
40
-1.0019374647945563
40
-1.0019374647945563
40
-1.0019374647945563
40
-1
40
-1
40
-1
40
-0.86586564199338145
40
-0.86586564199338145
40
-0.86586564199338145
40
-0.68469559961364113
40
-0.68469559961364113
40
-0.68469559961364113
40
-0.56275594689923214
40
-0.56275594689923214
40
-0.56275594689923214
40
-0.38702509520334599
40
-0.38702509520334599
40
-0.38702509520334599
40
-0.19726666622483668
40
-0.19726666622483668
40
-0.19726666622483668
40
0
40
0
40
0
40
0.0055052929378254199
40
0.0055052929378254199
40
0.0055052929378254199
40
0.0055052929378254199
10
-23.703842643897204
20
30.075000000000376
30
0
10
-23.704080989510956
20
30.050240651089098
30
0
10
-23.704319335124922
20
30.02548130217793
30
0
10
-23.704557680738851
20
30.000721953266755
30
0
10
-23.72123214267134
20
28.268578390541119
30
0
10
-23.067719275439202
20
26.722681869951991
30
0
10
-22.033963885454604
20
25.215852102895763
30
0
10
-20.637710825485058
20
23.180635944906172
30
0
10
-18.613650099892567
20
21.155049301727324
30
0
10
-17.203102938141548
20
18.5289251707005
30
0
10
-16.253709601462347
20
16.761366581454674
30
0
10
-15.603468835936702
20
14.708348888356815
30
0
10
-15.392636026506352
20
12.407493339036098
30
0
10
-15.088798609047025
20
9.0916621363812311
30
0
10
-15.635112853715718
20
5.3485684063575523
30
0
10
-16.548800584155146
20
1.9161733453585761
30
0
10
-17.53542272040459
20
-1.7902099568513385
30
0
10
-18.93856629970383
20
-5.1415352551166826
30
0
10
-20.499761083669483
20
-7.8808887697829988
30
0
10
-22.122728200431325
20
-10.728631230333789
30
0
10
-23.926267102632615
20
-12.941129615823597
30
0
10
-25.861202160382106
20
-14.523159047830738
30
0
10
-25.915450663799113
20
-14.567513367994769
30
0
10
-25.96969916721612
20
-14.611867688158799
30
0
10
-26.023947670633127
20
-14.65622200832283
30
0
0
ENDSEC
0
SECTION
2
OBJECTS
0
DICTIONARY
5
C
100
AcDbDictionary
3
ACAD_GROUP
350
D
3
ACAD_MLINESTYLE
350
17
0
DICTIONARY
5
D
100
AcDbDictionary
0
DICTIONARY
5
1A
330
C
100
AcDbDictionary
0
DICTIONARY
5
17
100
AcDbDictionary
0
ENDSEC
0
EOF
