0
SECTION
2
HEADER
9
$INSUNITS
70
4
9
$ACADVER
1
AC1014
9
$HANDSEED
5
FFFF
0
ENDSEC
0
SECTION
2
TABLES
0
TABLE
2
VPORT
5
8
100
AcDbSymbolTable
0
ENDTAB
0
TABLE
2
LTYPE
5
5
100
AcDbSymbolTable
0
LTYPE
5
14
100
AcDbSymbolTableRecord
100
AcDbLinetypeTableRecord
2
BYBLOCK
70
0
0
LTYPE
5
15
100
AcDbSymbolTableRecord
100
AcDbLinetypeTableRecord
2
BYLAYER
70
0
0
ENDTAB
0
TABLE
2
LAYER
5
2
100
AcDbSymbolTable
70
2
0
LAYER
5
50
100
AcDbSymbolTableRecord
100
AcDbLayerTableRecord
2
0
70
0
6
CONTINUOUS
0
ENDTAB
0
TABLE
2
STYLE
5
3
100
AcDbSymbolTable
70
1
0
STYLE
5
11
100
AcDbSymbolTableRecord
100
AcDbTextStyleTableRecord
2
STANDARD
70
0
0
ENDTAB
0
TABLE
2
VIEW
5
6
100
AcDbSymbolTable
70
0
0
ENDTAB
0
TABLE
2
UCS
5
7
100
AcDbSymbolTable
70
0
0
ENDTAB
0
TABLE
2
APPID
5
9
100
AcDbSymbolTable
70
2
0
APPID
5
12
100
AcDbSymbolTableRecord
100
AcDbRegAppTableRecord
2
ACAD
70
0
0
ENDTAB
0
TABLE
2
DIMSTYLE
5
A
100
AcDbSymbolTable
70
1
0
ENDTAB
0
TABLE
2
BLOCK_RECORD
5
1
100
AcDbSymbolTable
70
1
0
BLOCK_RECORD
5
1F
100
AcDbSymbolTableRecord
100
AcDbBlockTableRecord
2
*MODEL_SPACE
0
BLOCK_RECORD
5
1B
100
AcDbSymbolTableRecord
100
AcDbBlockTableRecord
2
*PAPER_SPACE
0
ENDTAB
0
ENDSEC
0
SECTION
2
BLOCKS
0
BLOCK
5
20
100
AcDbEntity
100
AcDbBlockBegin
2
*MODEL_SPACE
0
ENDBLK
5
21
100
AcDbEntity
100
AcDbBlockEnd
0
BLOCK
5
1C
100
AcDbEntity
100
AcDbBlockBegin
2
*PAPER_SPACE
0
ENDBLK
5
1D
100
AcDbEntity
100
AcDbBlockEnd
0
ENDSEC
0
SECTION
2
ENTITIES
0
LINE
5
100
100
AcDbEntity
8
0
100
AcDbLine
10
4.8925162762451535
20
-19.150829746899763
30
0
11
4.8925162762456509
21
-21.152894796494795
31
0
0
LINE
5
101
100
AcDbEntity
8
0
100
AcDbLine
10
4.8925162762456509
20
-21.152894796494795
30
0
11
8.0425162762456281
21
-21.152894796494795
31
0
0
LINE
5
102
100
AcDbEntity
8
0
100
AcDbLine
10
8.0425162762456281
20
-21.152894796494795
30
0
11
8.0425162762456637
21
-17.053843578333105
31
0
0
SPLINE
5
103
100
AcDbEntity
8
0
100
AcDbSpline
70
0
71
3
72
17
73
13
74
0
42
0.000000001
43
0.0000000001
44
0.0000000001
40
-0.00061500863674752862
40
-0.00061500863674752862
40
-0.00061500863674752862
40
-0.00061500863674752862
40
0
40
0
40
0
40
0.5
40
0.5
40
0.5
40
1
40
1
40
1
40
1.0025076920293294
40
1.0025076920293294
40
1.0025076920293294
40
1.0025076920293294
10
8.0425162762458413
20
-17.0538435783333
30
0
10
8.0385594931901494
20
-17.047674782134084
30
0
10
8.034602710134493
20
-17.041505985934936
30
0
10
8.0306459270788366
20
-17.035337189735799
30
0
10
4.8204385055857202
20
-12.030484747339983
30
0
10
3.018301876699141
20
-6.5885076518301
30
0
10
3.06911712421023
20
-0.5617384520050317
30
0
10
3.1199323717210703
20
5.4650307478199789
30
0
10
4.9640117735095757
20
12.062419869165355
30
0
10
8.0361698498899869
20
19.04770064431899
30
0
10
8.0515914711824266
20
19.082765361712266
30
0
10
8.0670130924748307
20
19.117830079105545
30
0
10
8.0824347137672703
20
19.152894796498831
30
0
0
LINE
5
104
100
AcDbEntity
8
0
100
AcDbLine
10
8.0824347137673058
20
19.152894796498831
30
0
11
4.2857453596587192
21
19.152894796498828
31
0
0
LINE
5
105
100
AcDbEntity
8
0
100
AcDbLine
10
4.2857453596587192
20
19.152894796498828
30
0
11
4.2857453596587192
21
21.152894796498831
31
0
0
LINE
5
106
100
AcDbEntity
8
0
100
AcDbLine
10
4.2857453596587192
20
21.152894796498831
30
0
11
-5.8642546403412865
21
21.152894796498831
31
0
0
LINE
5
107
100
AcDbEntity
8
0
100
AcDbLine
10
-5.8642546403412865
20
21.152894796498831
30
0
11
-5.8642546403412865
21
19.152894796498828
31
0
0
LINE
5
108
100
AcDbEntity
8
0
100
AcDbLine
10
-5.8642546403412865
20
19.152894796498828
30
0
11
-8.0526681735180006
21
19.15289479649887
31
0
0
SPLINE
5
109
100
AcDbEntity
8
0
100
AcDbSpline
70
0
71
3
72
20
73
16
74
0
42
0.000000001
43
0.0000000001
44
0.0000000001
40
-1.0015449410463977
40
-1.0015449410463977
40
-1.0015449410463977
40
-1.0015449410463977
40
-1
40
-1
40
-1
40
-0.61434959819881974
40
-0.61434959819881974
40
-0.61434959819881974
40
-0.27357952402967767
40
-0.27357952402967767
40
-0.27357952402967767
40
0
40
0
40
0
40
0.0012856186543420598
40
0.0012856186543420598
40
0.0012856186543420598
40
0.0012856186543420598
10
-8.0526681735178585
20
19.152894796499076
30
0
10
-8.0490841024211335
20
19.124738022065625
30
0
10
-8.0455000313242664
20
19.096581247632166
30
0
10
-8.0419159602274348
20
19.068424473198714
30
0
10
-7.1474102727771083
20
12.041109950015896
30
0
10
-6.5017879312685878
20
5.6761869269055332
30
0
10
-6.2072970703422925
20
0.24734358497700004
30
0
10
-5.9470777835185373
20
-4.5497144231082354
30
0
10
-5.9837747218552906
20
-8.5558741927469519
30
0
10
-6.3924478346904579
20
-11.5643393566836
30
0
10
-6.7205417730028927
20
-13.97961736962651
30
0
10
-7.2769202252528231
20
-15.784051870056924
30
0
10
-8.0317604382521779
20
-17.037129777286385
30
0
10
-8.0353457175833753
20
-17.043081545943885
30
0
10
-8.0389309969145728
20
-17.049033314601395
30
0
10
-8.0425162762457347
20
-17.054985083258934
30
0
0
LINE
5
110
100
AcDbEntity
8
0
100
AcDbLine
10
-8.0425162762456992
20
-17.054985083258934
30
0
11
-8.0425162762456281
21
-21.152894796498934
31
0
0
LINE
5
111
100
AcDbEntity
8
0
100
AcDbLine
10
-8.0425162762456281
20
-21.152894796498934
30
0
11
-4.9574837237543434
21
-21.152894796494689
31
0
0
LINE
5
112
100
AcDbEntity
8
0
100
AcDbLine
10
-4.9574837237543434
20
-21.152894796494689
30
0
11
-4.9574837237548408
21
-19.150829746899763
31
0
0
LINE
5
113
100
AcDbEntity
8
0
100
AcDbLine
10
-4.9574837237548408
20
-19.150829746899763
30
0
11
4.8925162762451535
21
-19.150829746899763
31
0
0
ENDSEC
0
SECTION
2
OBJECTS
0
DICTIONARY
5
C
100
AcDbDictionary
3
ACAD_GROUP
350
D
3
ACAD_MLINESTYLE
350
17
0
DICTIONARY
5
D
100
AcDbDictionary
0
DICTIONARY
5
1A
330
C
100
AcDbDictionary
0
DICTIONARY
5
17
100
AcDbDictionary
0
ENDSEC
0
EOF
