0
SECTION
2
HEADER
9
$INSUNITS
70
4
9
$ACADVER
1
AC1014
9
$HANDSEED
5
FFFF
0
ENDSEC
0
SECTION
2
TABLES
0
TABLE
2
VPORT
5
8
100
AcDbSymbolTable
0
ENDTAB
0
TABLE
2
LTYPE
5
5
100
AcDbSymbolTable
0
LTYPE
5
14
100
AcDbSymbolTableRecord
100
AcDbLinetypeTableRecord
2
BYBLOCK
70
0
0
LTYPE
5
15
100
AcDbSymbolTableRecord
100
AcDbLinetypeTableRecord
2
BYLAYER
70
0
0
ENDTAB
0
TABLE
2
LAYER
5
2
100
AcDbSymbolTable
70
2
0
LAYER
5
50
100
AcDbSymbolTableRecord
100
AcDbLayerTableRecord
2
0
70
0
6
CONTINUOUS
0
ENDTAB
0
TABLE
2
STYLE
5
3
100
AcDbSymbolTable
70
1
0
STYLE
5
11
100
AcDbSymbolTableRecord
100
AcDbTextStyleTableRecord
2
STANDARD
70
0
0
ENDTAB
0
TABLE
2
VIEW
5
6
100
AcDbSymbolTable
70
0
0
ENDTAB
0
TABLE
2
UCS
5
7
100
AcDbSymbolTable
70
0
0
ENDTAB
0
TABLE
2
APPID
5
9
100
AcDbSymbolTable
70
2
0
APPID
5
12
100
AcDbSymbolTableRecord
100
AcDbRegAppTableRecord
2
ACAD
70
0
0
ENDTAB
0
TABLE
2
DIMSTYLE
5
A
100
AcDbSymbolTable
70
1
0
ENDTAB
0
TABLE
2
BLOCK_RECORD
5
1
100
AcDbSymbolTable
70
1
0
BLOCK_RECORD
5
1F
100
AcDbSymbolTableRecord
100
AcDbBlockTableRecord
2
*MODEL_SPACE
0
BLOCK_RECORD
5
1B
100
AcDbSymbolTableRecord
100
AcDbBlockTableRecord
2
*PAPER_SPACE
0
ENDTAB
0
ENDSEC
0
SECTION
2
BLOCKS
0
BLOCK
5
20
100
AcDbEntity
100
AcDbBlockBegin
2
*MODEL_SPACE
0
ENDBLK
5
21
100
AcDbEntity
100
AcDbBlockEnd
0
BLOCK
5
1C
100
AcDbEntity
100
AcDbBlockBegin
2
*PAPER_SPACE
0
ENDBLK
5
1D
100
AcDbEntity
100
AcDbBlockEnd
0
ENDSEC
0
SECTION
2
ENTITIES
0
LINE
5
100
100
AcDbEntity
8
0
100
AcDbLine
10
-13.521927454117524
20
-95.441382796377653
30
0
11
-23.371927454117518
21
-95.441382796377667
31
0
0
LINE
5
101
100
AcDbEntity
8
0
100
AcDbLine
10
-23.371927454117518
20
-95.441382796377667
30
0
11
-23.371927454117518
21
-93.591382796377687
31
0
0
LINE
5
102
100
AcDbEntity
8
0
100
AcDbLine
10
-23.371927454117518
20
-93.591382796377673
30
0
11
-13.521927454117524
21
-93.591382796377644
31
0
0
LINE
5
103
100
AcDbEntity
8
0
100
AcDbLine
10
-13.521927454117524
20
-93.591382796377673
30
0
11
-13.521927454117524
21
-95.441382796377653
31
0
0
LINE
5
104
100
AcDbEntity
8
0
100
AcDbLine
10
-3.8998520263534786
20
-52.789883364076495
30
0
11
0.95014797364651571
21
-52.789883364076474
31
0
0
LINE
5
105
100
AcDbEntity
8
0
100
AcDbLine
10
0.95014797364651571
20
-52.789883364076474
30
0
11
0.95014797364651571
21
-54.639883364076468
31
0
0
LINE
5
106
100
AcDbEntity
8
0
100
AcDbLine
10
0.95014797364651571
20
-54.639883364076468
30
0
11
-3.8998520263534786
21
-54.639883364076489
31
0
0
LINE
5
107
100
AcDbEntity
8
0
100
AcDbLine
10
-3.8998520263534786
20
-54.639883364076489
30
0
11
-3.8998520263534786
21
-52.789883364076495
31
0
0
LINE
5
108
100
AcDbEntity
8
0
100
AcDbLine
10
-15.276816649907659
20
91.813561431966605
30
0
11
-5.4268166499076642
21
91.813561431966576
31
0
0
LINE
5
109
100
AcDbEntity
8
0
100
AcDbLine
10
-5.4268166499076642
20
91.813561431966576
30
0
11
-5.4268166499076642
21
89.963561431966582
31
0
0
LINE
5
110
100
AcDbEntity
8
0
100
AcDbLine
10
-5.4268166499076642
20
89.963561431966582
30
0
11
-15.276816649907659
21
89.963561431966625
31
0
0
LINE
5
111
100
AcDbEntity
8
0
100
AcDbLine
10
-15.276816649907659
20
89.963561431966625
30
0
11
-15.276816649907659
21
91.813561431966605
31
0
0
LINE
5
112
100
AcDbEntity
8
0
100
AcDbLine
10
17.068603725874496
20
89.963561431966482
30
0
11
7.2186037258745017
21
89.963561431966511
31
0
0
LINE
5
113
100
AcDbEntity
8
0
100
AcDbLine
10
7.2186037258745017
20
89.963561431966511
30
0
11
7.2186037258745017
21
91.813561431966505
31
0
0
LINE
5
114
100
AcDbEntity
8
0
100
AcDbLine
10
7.2186037258745017
20
91.813561431966505
30
0
11
17.068603725874496
21
91.813561431966463
31
0
0
LINE
5
115
100
AcDbEntity
8
0
100
AcDbLine
10
17.068603725874496
20
91.813561431966463
30
0
11
17.068603725874496
21
89.963561431966482
31
0
0
LINE
5
116
100
AcDbEntity
8
0
100
AcDbLine
10
-12.83277600135893
20
97.963561431966554
30
0
11
-12.83277600135893
21
101.96356143196654
31
0
0
LINE
5
117
100
AcDbEntity
8
0
100
AcDbLine
10
-12.83277600135893
20
101.96356143196654
30
0
11
-16.982776001358921
21
101.96356143196654
31
0
0
LINE
5
118
100
AcDbEntity
8
0
100
AcDbLine
10
-16.982776001358921
20
101.96356143196654
30
0
11
-16.982776001358921
21
97.963561431966554
31
0
0
LINE
5
119
100
AcDbEntity
8
0
100
AcDbLine
10
-16.982776001358921
20
97.963561431966554
30
0
11
-23.850714595172917
21
97.963561431966554
31
0
0
LINE
5
120
100
AcDbEntity
8
0
100
AcDbLine
10
-23.850714595172917
20
97.963561431966554
30
0
11
-23.850714595172988
21
71.905015815137233
31
0
0
SPLINE
5
121
100
AcDbEntity
8
0
100
AcDbSpline
70
0
71
3
72
20
73
16
74
0
42
0.000000001
43
0.0000000001
44
0.0000000001
40
-1.2804442883240811e-05
40
-1.2804442883240811e-05
40
-1.2804442883240811e-05
40
-1.2804442883240811e-05
40
0
40
0
40
0
40
0.5
40
0.5
40
0.5
40
0.95780727763748175
40
0.95780727763748175
40
0.95780727763748175
40
1
40
1
40
1
40
1.0002526632059716
40
1.0002526632059716
40
1.0002526632059716
40
1.0002526632059716
10
-4.0498520263535553
20
10.526310032034747
30
0
10
-4.0498478126830761
20
10.52653950439586
30
0
10
-4.049843599012668
20
10.52676897675644
30
0
10
-4.0498393853422598
20
10.526998449116629
30
0
10
-3.88546337691551
20
19.478754753469936
30
0
10
-5.270715335390328
20
29.000318322330791
30
0
10
-8.6471334590650528
20
39.255388481596434
30
0
10
-11.738631037796061
20
48.645079984785994
30
0
10
-16.431599812347031
20
58.625667336365709
30
0
10
-22.213246076158022
20
69.006780012547665
30
0
10
-22.746097796790643
20
69.963530650546474
30
0
10
-23.288627527588162
20
70.923841501280208
30
0
10
-23.840792334403282
20
71.887695602728755
30
0
10
-23.844099754659815
20
71.893469006864891
30
0
10
-23.847407174916384
20
71.899242411001026
30
0
10
-23.850714595172917
20
71.905015815137062
30
0
0
LINE
5
122
100
AcDbEntity
8
0
100
AcDbLine
10
-4.0498520263535553
20
10.526310032034747
30
0
11
-4.0498520263535198
21
6.5889331731641043
31
0
0
LINE
5
123
100
AcDbEntity
8
0
100
AcDbLine
10
-4.0498520263535198
20
6.5889331731641043
30
0
11
-4.0801517171407653
21
6.5294560023593995
31
0
0
SPLINE
5
124
100
AcDbEntity
8
0
100
AcDbSpline
70
0
71
3
72
29
73
25
74
0
42
0.000000001
43
0.0000000001
44
0.0000000001
40
0.011209496297692439
40
0.011209496297692439
40
0.011209496297692439
40
0.011209496297692439
40
0.011308436610309808
40
0.011308436610309808
40
0.011308436610309808
40
0.19281196151158086
40
0.19281196151158086
40
0.19281196151158086
40
0.32422203864087151
40
0.32422203864087151
40
0.32422203864087151
40
0.45857770507510381
40
0.45857770507510381
40
0.45857770507510381
40
0.56418005327949172
40
0.56418005327949172
40
0.56418005327949172
40
0.66454408448397584
40
0.66454408448397584
40
0.66454408448397584
40
0.78907444018351336
40
0.78907444018351336
40
0.78907444018351336
40
0.84745254690444338
40
0.84745254690444338
40
0.84745254690444338
40
0.84745254690444338
10
-4.0801517171407653
20
6.5294560023606074
30
0
10
-4.0802365876345803
20
6.5236484638172598
30
0
10
-4.0803214581283953
20
6.5178409252738767
30
0
10
-4.0804063286222103
20
6.5120333867305114
30
0
10
-4.2361057180099948
20
-4.1422018422468376
30
0
10
-4.2550820333742223
20
-12.770396333323344
30
0
10
-4.187128945555969
20
-19.413680180488157
30
0
10
-4.1379303389932076
20
-24.223473506664952
30
0
10
-4.0417437454024707
20
-27.9806415862069
30
0
10
-4.0217426378171339
20
-31.014614718763092
30
0
10
-4.0012932004698953
20
-34.11659510773346
30
0
10
-4.0591145664844674
20
-36.44917681054666
30
0
10
-4.4977788774780336
20
-38.997581904871652
30
0
10
-4.842565089655082
20
-41.000605441422508
30
0
10
-5.4369459587338653
20
-43.183475751895287
30
0
10
-6.3970077529113922
20
-46.001178435609617
30
0
10
-7.3094464771201828
20
-48.679111311930953
30
0
10
-8.5586515990865664
20
-51.949733846945676
30
0
10
-10.078311757668352
20
-55.770756699066467
30
0
10
-11.963885880384026
20
-60.511831058078499
30
0
10
-14.259118962331776
20
-66.085627276162342
30
0
10
-16.535305089545353
20
-71.575355170460853
30
0
10
-17.602349633863383
20
-74.148863606070449
30
0
10
-18.662315446890396
20
-76.695455631095911
30
0
10
-19.666154327939473
20
-79.102500678860281
30
0
0
SPLINE
5
125
100
AcDbEntity
8
0
100
AcDbSpline
70
0
71
3
72
17
73
13
74
0
42
0.000000001
43
0.0000000001
44
0.0000000001
40
0.0011980731291311184
40
0.0011980731291311184
40
0.0011980731291311184
40
0.0011980731291311184
40
0.23135918552942517
40
0.23135918552942517
40
0.23135918552942517
40
0.5191991080009184
40
0.5191991080009184
40
0.5191991080009184
40
0.76996864845659885
40
0.76996864845659885
40
0.76996864845659885
40
0.96324481096189396
40
0.96324481096189396
40
0.96324481096189396
40
0.96324481096189396
10
-19.666148539955444
20
-79.10250309466764
30
0
10
-21.12353426580313
20
-82.594224980018851
30
0
10
-22.453277793614426
20
-84.951138696165529
30
0
10
-23.620459952713411
20
-86.562808788025052
30
0
10
-25.080140168374108
20
-88.57836645305602
30
0
10
-26.28034990975042
20
-89.505506921505884
30
0
10
-27.099495011361086
20
-90.562975755583807
30
0
10
-27.813143899721133
20
-91.484255094776884
30
0
10
-28.221988081891531
20
-92.527043436822737
30
0
10
-28.329007543613898
20
-93.956392538361925
30
0
10
-28.411490890026307
20
-95.058037932471166
30
0
10
-28.322354548810971
20
-96.370123393253351
30
0
10
-28.078052665006581
20
-97.894536901214352
30
0
0
LINE
5
126
100
AcDbEntity
8
0
100
AcDbLine
10
-28.078052665006581
20
-97.894536901214352
30
0
11
-28.078052665010134
21
-103.96356143196655
31
0
0
LINE
5
127
100
AcDbEntity
8
0
100
AcDbLine
10
-28.078052665010134
20
-103.96356143196655
30
0
11
-8.6967279684039411
21
-103.96356143196655
31
0
0
LINE
5
128
100
AcDbEntity
8
0
100
AcDbLine
10
-8.6967279684039411
20
-103.96356143196655
30
0
11
-8.6967279684039411
21
-100.81356143196655
31
0
0
LINE
5
129
100
AcDbEntity
8
0
100
AcDbLine
10
-8.6967279684039411
20
-100.81356143196655
30
0
11
-14.843937260548934
21
-100.81356143196655
31
0
0
LINE
5
130
100
AcDbEntity
8
0
100
AcDbLine
10
-14.843937260548934
20
-100.81356143196655
30
0
11
-14.843937260548934
21
-97.963561431966539
31
0
0
LINE
5
131
100
AcDbEntity
8
0
100
AcDbLine
10
-14.843937260548934
20
-97.963561431966539
30
0
11
0.080843975765709786
21
-97.963561431966525
31
0
0
SPLINE
5
132
100
AcDbEntity
8
0
100
AcDbSpline
70
0
71
3
72
17
73
13
74
0
42
0.000000001
43
0.0000000001
44
0.0000000001
40
-0.0010460217653282654
40
-0.0010460217653282654
40
-0.0010460217653282654
40
-0.0010460217653282654
40
0
40
0
40
0
40
0.46327624555745234
40
0.46327624555745234
40
0.46327624555745234
40
0.92655249111490467
40
0.92655249111490467
40
0.92655249111490467
40
0.92698884258240755
40
0.92698884258240755
40
0.92698884258240755
40
0.92698884258240755
10
15.829550699196986
20
-54.639883364076802
30
0
10
15.835013289442124
20
-54.657466104149641
30
0
10
15.840475879687226
20
-54.675048844222403
30
0
10
15.845938469932328
20
-54.692631584295164
30
0
10
18.269089166540873
20
-62.492160185928199
30
0
10
18.48743510059613
20
-70.039959912959162
30
0
10
15.828479178098647
20
-77.248665810812597
30
0
10
13.169523255601163
20
-84.457371708666017
30
0
10
7.6278086598214401
20
-91.319435683675863
30
0
10
0.1020927928666282
20
-97.944854598327936
30
0
10
0.095009853832976887
20
-97.951090209540794
30
0
10
0.087926914799325573
20
-97.957325820753667
30
0
10
0.080843975765709786
20
-97.963561431966539
30
0
0
LINE
5
133
100
AcDbEntity
8
0
100
AcDbLine
10
15.829550699196986
20
-54.639883364076802
30
0
11
10.849315440838581
21
-54.639883364074905
31
0
0
LINE
5
134
100
AcDbEntity
8
0
100
AcDbLine
10
10.849315440838581
20
-54.639883364074905
30
0
11
10.849315440838581
21
-52.78988336407491
31
0
0
LINE
5
135
100
AcDbEntity
8
0
100
AcDbLine
10
10.849315440838581
20
-52.78988336407491
30
0
11
15.861822980210469
21
-52.789883364076537
31
0
0
SPLINE
5
136
100
AcDbEntity
8
0
100
AcDbSpline
70
0
71
3
72
20
73
16
74
0
42
0.000000001
43
0.0000000001
44
0.0000000001
40
-0.00026563892056950876
40
-0.00026563892056950876
40
-0.00026563892056950876
40
-0.00026563892056950876
40
0
40
0
40
0
40
0.4148903627840464
40
0.4148903627840464
40
0.4148903627840464
40
0.74121441038686642
40
0.74121441038686642
40
0.74121441038686642
40
1
40
1
40
1
40
1.0026272031132313
40
1.0026272031132313
40
1.0026272031132313
40
1.0026272031132313
10
28.364080743896132
20
-6.4028079098182111
30
0
10
28.36157552701625
20
-6.407974232409348
30
0
10
28.359070310136261
20
-6.4131405550006626
30
0
10
28.356565093256272
20
-6.4183068775919772
30
0
10
24.444783013157192
20
-14.485284349373782
30
0
10
21.221642273733679
20
-22.027615836623148
30
0
10
18.973941739340106
20
-28.824982210548001
30
0
10
17.206056047176865
20
-34.171320200406356
30
0
10
16.092625415885031
20
-39.017600100915324
30
0
10
15.670020566089313
20
-43.335704379052828
30
0
10
15.33488116698237
20
-46.760101599661319
30
0
10
15.40984750889379
20
-49.871070817869523
30
0
10
15.848432110950306
20
-52.703406465037652
30
0
10
15.852895734037027
20
-52.73223209805063
30
0
10
15.857359357123748
20
-52.761057731063602
30
0
10
15.861822980210505
20
-52.789883364076637
30
0
0
LINE
5
137
100
AcDbEntity
8
0
100
AcDbLine
10
28.364080743896132
20
-6.4028079098182111
30
0
11
28.364080743896416
21
25.134050849754921
31
0
0
SPLINE
5
138
100
AcDbEntity
8
0
100
AcDbSpline
70
0
71
3
72
17
73
13
74
0
42
0.000000001
43
0.0000000001
44
0.0000000001
40
-0.00026719558846891554
40
-0.00026719558846891554
40
-0.00026719558846891554
40
-0.00026719558846891554
40
0
40
0
40
0
40
0.5
40
0.5
40
0.5
40
1
40
1
40
1
40
1.0004775003636432
40
1.0004775003636432
40
1.0004775003636432
40
1.0004775003636432
10
21.384843462471643
20
72.339289288122458
30
0
10
21.382966866664219
20
72.334723045633339
30
0
10
21.381090270856795
20
72.330156803144106
30
0
10
21.379213675049371
20
72.325590560654888
30
0
10
17.871218933014141
20
63.78973292971088
30
0
10
16.318131449630293
20
55.539035226467064
30
0
10
17.479997150128774
20
47.681598959139464
30
0
10
18.64186285062754
20
39.82416269181202
30
0
10
22.518495073320466
20
32.351851763399964
30
0
10
28.34736382480294
20
25.15469196267432
30
0
10
28.352936131167432
20
25.147811591701217
30
0
10
28.358508437531889
20
25.140931220728095
30
0
10
28.36408074389638
20
25.134050849754992
30
0
0
LINE
5
139
100
AcDbEntity
8
0
100
AcDbLine
10
21.384843462471643
20
72.339289288122458
30
0
11
21.38484346247175
21
97.963561431966554
31
0
0
LINE
5
140
100
AcDbEntity
8
0
100
AcDbLine
10
21.38484346247175
20
97.963561431966554
30
0
11
9.062408582500403
21
97.963561431966525
31
0
0
LINE
5
141
100
AcDbEntity
8
0
100
AcDbLine
10
9.062408582500403
20
97.963561431966525
30
0
11
9.062408582500403
21
100.81356143196656
31
0
0
LINE
5
142
100
AcDbEntity
8
0
100
AcDbLine
10
9.062408582500403
20
100.81356143196656
30
0
11
10.562408582500424
21
100.81356143196656
31
0
0
LINE
5
143
100
AcDbEntity
8
0
100
AcDbLine
10
10.562408582500424
20
100.81356143196656
30
0
11
10.562408582500424
21
103.96356143196657
31
0
0
LINE
5
144
100
AcDbEntity
8
0
100
AcDbLine
10
10.562408582500424
20
103.96356143196657
30
0
11
2.4124085825004116
21
103.96356143196657
31
0
0
LINE
5
145
100
AcDbEntity
8
0
100
AcDbLine
10
2.4124085825004116
20
103.96356143196657
30
0
11
2.4124085825004116
21
100.81356143196656
31
0
0
LINE
5
146
100
AcDbEntity
8
0
100
AcDbLine
10
2.4124085825004116
20
100.81356143196656
30
0
11
3.9124085825003974
21
100.81356143196656
31
0
0
LINE
5
147
100
AcDbEntity
8
0
100
AcDbLine
10
3.9124085825003974
20
100.81356143196656
30
0
11
3.9124085825003974
21
97.963561431966525
31
0
0
LINE
5
148
100
AcDbEntity
8
0
100
AcDbLine
10
3.9124085825003974
20
97.963561431966525
30
0
11
-12.83277600135893
21
97.963561431966554
31
0
0
LINE
5
149
100
AcDbEntity
8
0
100
AcDbLine
10
24.046405174085415
20
8.6006214989025942
30
0
11
19.19640517408542
21
8.6006214989025942
31
0
0
LINE
5
150
100
AcDbEntity
8
0
100
AcDbLine
10
19.19640517408542
20
8.6006214989025942
30
0
11
19.19640517408542
21
10.450621498902581
31
0
0
LINE
5
151
100
AcDbEntity
8
0
100
AcDbLine
10
19.19640517408542
20
10.450621498902581
30
0
11
24.046405174085415
21
10.450621498902581
31
0
0
LINE
5
152
100
AcDbEntity
8
0
100
AcDbLine
10
24.046405174085415
20
10.450621498902581
30
0
11
24.046405174085415
21
8.6006214989025942
31
0
0
LINE
5
153
100
AcDbEntity
8
0
100
AcDbLine
10
4.6234713624890134
20
10.450621498902581
30
0
11
4.6234713624890134
21
8.6006214989025942
31
0
0
LINE
5
154
100
AcDbEntity
8
0
100
AcDbLine
10
4.6234713624890134
20
8.6006214989025942
30
0
11
-0.22652863751098096
21
8.6006214989025942
31
0
0
LINE
5
155
100
AcDbEntity
8
0
100
AcDbLine
10
-0.22652863751098096
20
8.6006214989025942
30
0
11
-0.22652863751098096
21
10.450621498902581
31
0
0
LINE
5
156
100
AcDbEntity
8
0
100
AcDbLine
10
-0.22652863751098096
20
10.450621498902581
30
0
11
4.6234713624890134
21
10.450621498902581
31
0
0
ENDSEC
0
SECTION
2
OBJECTS
0
DICTIONARY
5
C
100
AcDbDictionary
3
ACAD_GROUP
350
D
3
ACAD_MLINESTYLE
350
17
0
DICTIONARY
5
D
100
AcDbDictionary
0
DICTIONARY
5
1A
330
C
100
AcDbDictionary
0
DICTIONARY
5
17
100
AcDbDictionary
0
ENDSEC
0
EOF
