0
SECTION
2
HEADER
9
$INSUNITS
70
4
9
$ACADVER
1
AC1014
9
$HANDSEED
5
FFFF
0
ENDSEC
0
SECTION
2
TABLES
0
TABLE
2
VPORT
5
8
100
AcDbSymbolTable
0
ENDTAB
0
TABLE
2
LTYPE
5
5
100
AcDbSymbolTable
0
LTYPE
5
14
100
AcDbSymbolTableRecord
100
AcDbLinetypeTableRecord
2
BYBLOCK
70
0
0
LTYPE
5
15
100
AcDbSymbolTableRecord
100
AcDbLinetypeTableRecord
2
BYLAYER
70
0
0
ENDTAB
0
TABLE
2
LAYER
5
2
100
AcDbSymbolTable
70
2
0
LAYER
5
50
100
AcDbSymbolTableRecord
100
AcDbLayerTableRecord
2
0
70
0
6
CONTINUOUS
0
ENDTAB
0
TABLE
2
STYLE
5
3
100
AcDbSymbolTable
70
1
0
STYLE
5
11
100
AcDbSymbolTableRecord
100
AcDbTextStyleTableRecord
2
STANDARD
70
0
0
ENDTAB
0
TABLE
2
VIEW
5
6
100
AcDbSymbolTable
70
0
0
ENDTAB
0
TABLE
2
UCS
5
7
100
AcDbSymbolTable
70
0
0
ENDTAB
0
TABLE
2
APPID
5
9
100
AcDbSymbolTable
70
2
0
APPID
5
12
100
AcDbSymbolTableRecord
100
AcDbRegAppTableRecord
2
ACAD
70
0
0
ENDTAB
0
TABLE
2
DIMSTYLE
5
A
100
AcDbSymbolTable
70
1
0
ENDTAB
0
TABLE
2
BLOCK_RECORD
5
1
100
AcDbSymbolTable
70
1
0
BLOCK_RECORD
5
1F
100
AcDbSymbolTableRecord
100
AcDbBlockTableRecord
2
*MODEL_SPACE
0
BLOCK_RECORD
5
1B
100
AcDbSymbolTableRecord
100
AcDbBlockTableRecord
2
*PAPER_SPACE
0
ENDTAB
0
ENDSEC
0
SECTION
2
BLOCKS
0
BLOCK
5
20
100
AcDbEntity
100
AcDbBlockBegin
2
*MODEL_SPACE
0
ENDBLK
5
21
100
AcDbEntity
100
AcDbBlockEnd
0
BLOCK
5
1C
100
AcDbEntity
100
AcDbBlockBegin
2
*PAPER_SPACE
0
ENDBLK
5
1D
100
AcDbEntity
100
AcDbBlockEnd
0
ENDSEC
0
SECTION
2
ENTITIES
0
LINE
5
100
100
AcDbEntity
8
0
100
AcDbLine
10
-12.361724288932407
20
-10.075000000000003
30
0
11
-12.361724288932407
21
-12.075000000000005
31
0
0
LINE
5
101
100
AcDbEntity
8
0
100
AcDbLine
10
-12.361724288932407
20
-12.075000000000005
30
0
11
-1.8590265625110192
21
-12.075000000000005
31
0
0
LINE
5
102
100
AcDbEntity
8
0
100
AcDbLine
10
-1.8590265625110192
20
-12.075000000000005
30
0
11
-1.8590265625110192
21
-10.075000000000003
31
0
0
LINE
5
103
100
AcDbEntity
8
0
100
AcDbLine
10
-1.8590265625110192
20
-10.075000000000003
30
0
11
15.448119884632376
21
-10.074999999999774
31
0
0
SPLINE
5
104
100
AcDbEntity
8
0
100
AcDbSpline
70
0
71
3
72
17
73
13
74
0
42
0.000000001
43
0.0000000001
44
0.0000000001
40
-1.0040701613513743
40
-1.0040701613513743
40
-1.0040701613513743
40
-1.0040701613513743
40
-1
40
-1
40
-1
40
-0.5
40
-0.5
40
-0.5
40
0
40
0
40
0
40
0.0019781712905113619
40
0.0019781712905113619
40
0.0019781712905113619
40
0.0019781712905113619
10
15.448119884632376
20
-10.074999999998111
30
0
10
15.433269834111343
20
-10.040190219133603
30
0
10
15.418419783590309
20
-10.005380438269217
30
0
10
15.403569733069276
20
-9.9705706574048705
30
0
10
13.582926417600447
20
-5.7028279480937805
30
0
10
12.869796609342643
20
-1.9599227071316694
30
0
10
13.729648757873179
20
1.0268634496809925
30
0
10
14.58950090640343
20
4.0136496064936944
30
0
10
17.057374453192438
20
6.2501421028506332
30
0
10
20.739512238145608
20
7.9317780199723709
30
0
10
20.754126556543042
20
7.9384523934360907
30
0
10
20.768740874940761
20
7.9451267668998238
30
0
10
20.783355193339332
20
7.9518011403636857
30
0
0
LINE
5
105
100
AcDbEntity
8
0
100
AcDbLine
10
20.783355193339048
20
7.9518011403636901
30
0
11
20.78335519333848
21
10.075000000000003
31
0
0
LINE
5
106
100
AcDbEntity
8
0
100
AcDbLine
10
20.78335519333848
20
10.075000000000003
30
0
11
17.309366660852561
21
10.075000000000003
31
0
0
LINE
5
107
100
AcDbEntity
8
0
100
AcDbLine
10
17.309366660852561
20
10.075000000000003
30
0
11
17.309366660852561
21
12.075000000000005
31
0
0
LINE
5
108
100
AcDbEntity
8
0
100
AcDbLine
10
17.309366660852561
20
12.075000000000005
30
0
11
9.1593666608525837
21
12.075000000000005
31
0
0
LINE
5
109
100
AcDbEntity
8
0
100
AcDbLine
10
9.1593666608525837
20
12.075000000000005
30
0
11
9.1593666608525837
21
10.075000000000003
31
0
0
LINE
5
110
100
AcDbEntity
8
0
100
AcDbLine
10
9.1593666608525837
20
10.075000000000003
30
0
11
4.27131532426273
21
10.075000000000003
31
0
0
LINE
5
111
100
AcDbEntity
8
0
100
AcDbLine
10
4.27131532426273
20
10.075000000000003
30
0
11
4.2713153242624458
21
7.9628787360727094
31
0
0
SPLINE
5
112
100
AcDbEntity
8
0
100
AcDbSpline
70
0
71
3
72
23
73
19
74
0
42
0.000000001
43
0.0000000001
44
0.0000000001
40
-0.0011050662093811336
40
-0.0011050662093811336
40
-0.0011050662093811336
40
-0.0011050662093811336
40
0
40
0
40
0
40
0.25
40
0.25
40
0.25
40
0.43396137061150375
40
0.43396137061150375
40
0.43396137061150375
40
0.71698068530575187
40
0.71698068530575187
40
0.71698068530575187
40
0.9217905617019424
40
0.9217905617019424
40
0.9217905617019424
40
1
40
1
40
1
40
1
10
4.2713153242610247
20
7.9628787360737308
30
0
10
4.2811538973768393
20
7.9553745850209356
30
0
10
4.2909924704920854
20
7.9478704339683848
30
0
10
4.3008310436073316
20
7.9403662829158561
30
0
10
6.5126325422903619
20
6.2533642807201062
30
0
10
7.0083486243720472
20
4.6857804099278555
30
0
10
5.7859876158784118
20
3.142894269438794
30
0
10
4.8865187898601903
20
2.0075684730313492
30
0
10
3.002158851826664
20
0.88885771707836625
30
0
10
0.45277263492806696
20
-0.19893318679519378
30
0
10
-3.4693852485403909
20
-1.8724684247723733
30
0
10
-8.9377645603627798
20
-3.4803872250280854
30
0
10
-13.309958295987201
20
-5.084321789370656
30
0
10
-16.473941854991949
20
-6.2450257513086127
30
0
10
-19.008103939864327
20
-7.3981819702737006
30
0
10
-20.127661624687221
20
-8.5959784848723064
30
0
10
-20.555179961268379
20
-9.0533733832555896
30
0
10
-20.78335519333848
20
-9.5229876362344932
30
0
10
-20.78335519333848
20
-10
30
0
0
LINE
5
113
100
AcDbEntity
8
0
100
AcDbLine
10
-20.78335519333848
20
-10
30
0
11
-20.78335519333848
21
-12.075000000000005
31
0
0
LINE
5
114
100
AcDbEntity
8
0
100
AcDbLine
10
-20.78335519333848
20
-12.075000000000005
30
0
11
-16.211724288932317
21
-12.075000000000005
31
0
0
LINE
5
115
100
AcDbEntity
8
0
100
AcDbLine
10
-16.211724288932317
20
-12.075000000000005
30
0
11
-16.211724288932317
21
-10.075000000000003
31
0
0
LINE
5
116
100
AcDbEntity
8
0
100
AcDbLine
10
-16.211724288932317
20
-10.075000000000003
30
0
11
-12.361724288932407
21
-10.075000000000003
31
0
0
ENDSEC
0
SECTION
2
OBJECTS
0
DICTIONARY
5
C
100
AcDbDictionary
3
ACAD_GROUP
350
D
3
ACAD_MLINESTYLE
350
17
0
DICTIONARY
5
D
100
AcDbDictionary
0
DICTIONARY
5
1A
330
C
100
AcDbDictionary
0
DICTIONARY
5
17
100
AcDbDictionary
0
ENDSEC
0
EOF
