0
SECTION
2
HEADER
9
$INSUNITS
70
4
9
$ACADVER
1
AC1014
9
$HANDSEED
5
FFFF
0
ENDSEC
0
SECTION
2
TABLES
0
TABLE
2
VPORT
5
8
100
AcDbSymbolTable
0
ENDTAB
0
TABLE
2
LTYPE
5
5
100
AcDbSymbolTable
0
LTYPE
5
14
100
AcDbSymbolTableRecord
100
AcDbLinetypeTableRecord
2
BYBLOCK
70
0
0
LTYPE
5
15
100
AcDbSymbolTableRecord
100
AcDbLinetypeTableRecord
2
BYLAYER
70
0
0
ENDTAB
0
TABLE
2
LAYER
5
2
100
AcDbSymbolTable
70
2
0
LAYER
5
50
100
AcDbSymbolTableRecord
100
AcDbLayerTableRecord
2
0
70
0
6
CONTINUOUS
0
ENDTAB
0
TABLE
2
STYLE
5
3
100
AcDbSymbolTable
70
1
0
STYLE
5
11
100
AcDbSymbolTableRecord
100
AcDbTextStyleTableRecord
2
STANDARD
70
0
0
ENDTAB
0
TABLE
2
VIEW
5
6
100
AcDbSymbolTable
70
0
0
ENDTAB
0
TABLE
2
UCS
5
7
100
AcDbSymbolTable
70
0
0
ENDTAB
0
TABLE
2
APPID
5
9
100
AcDbSymbolTable
70
2
0
APPID
5
12
100
AcDbSymbolTableRecord
100
AcDbRegAppTableRecord
2
ACAD
70
0
0
ENDTAB
0
TABLE
2
DIMSTYLE
5
A
100
AcDbSymbolTable
70
1
0
ENDTAB
0
TABLE
2
BLOCK_RECORD
5
1
100
AcDbSymbolTable
70
1
0
BLOCK_RECORD
5
1F
100
AcDbSymbolTableRecord
100
AcDbBlockTableRecord
2
*MODEL_SPACE
0
BLOCK_RECORD
5
1B
100
AcDbSymbolTableRecord
100
AcDbBlockTableRecord
2
*PAPER_SPACE
0
ENDTAB
0
ENDSEC
0
SECTION
2
BLOCKS
0
BLOCK
5
20
100
AcDbEntity
100
AcDbBlockBegin
2
*MODEL_SPACE
0
ENDBLK
5
21
100
AcDbEntity
100
AcDbBlockEnd
0
BLOCK
5
1C
100
AcDbEntity
100
AcDbBlockBegin
2
*PAPER_SPACE
0
ENDBLK
5
1D
100
AcDbEntity
100
AcDbBlockEnd
0
ENDSEC
0
SECTION
2
ENTITIES
0
CIRCLE
5
100
100
AcDbEntity
8
0
100
AcDbCircle
10
2.7999999961667754
20
57.451278836279087
30
0
40
3.9249999999999852
210
0
220
0
230
1
0
CIRCLE
5
101
100
AcDbEntity
8
0
100
AcDbCircle
10
2.7999999961667754
20
37.729845809064777
30
0
40
3.9249999999999852
210
0
220
0
230
1
0
LINE
5
102
100
AcDbEntity
8
0
100
AcDbLine
10
-1.1250000038332431
20
69.906619426104228
30
0
11
-1.1250000038332431
21
71.756619426104209
31
0
0
LINE
5
103
100
AcDbEntity
8
0
100
AcDbLine
10
-1.1250000038332431
20
71.756619426104209
30
0
11
6.7249999961667584
21
71.756619426104209
31
0
0
LINE
5
104
100
AcDbEntity
8
0
100
AcDbLine
10
6.7249999961667584
20
71.756619426104209
30
0
11
6.7249999961667584
21
69.906619426104228
31
0
0
LINE
5
105
100
AcDbEntity
8
0
100
AcDbLine
10
6.7249999961667584
20
69.906619426104228
30
0
11
-1.1250000038332431
21
69.906619426104228
31
0
0
LINE
5
106
100
AcDbEntity
8
0
100
AcDbLine
10
-8.3596954888252384
20
-74.696825369938736
30
0
11
-8.3596954888252384
21
-85.524186001572559
31
0
0
LINE
5
107
100
AcDbEntity
8
0
100
AcDbLine
10
-8.3596954888252384
20
-85.524186001572559
30
0
11
-10.209695488825226
21
-85.524186001572559
31
0
0
LINE
5
108
100
AcDbEntity
8
0
100
AcDbLine
10
-10.209695488825226
20
-85.524186001572559
30
0
11
-10.209695488825226
21
-74.69682536993875
31
0
0
LINE
5
109
100
AcDbEntity
8
0
100
AcDbLine
10
-10.209695488825226
20
-74.696825369938736
30
0
11
-10.652896002627656
21
-74.696825369938693
31
0
0
SPLINE
5
110
100
AcDbEntity
8
0
100
AcDbSpline
70
0
71
3
72
14
73
10
74
0
42
0.000000001
43
0.0000000001
44
0.0000000001
40
-0.0012029788625791955
40
-0.0012029788625791955
40
-0.0012029788625791955
40
-0.0012029788625791955
40
0
40
0
40
0
40
0.29064905910864985
40
0.29064905910864985
40
0.29064905910864985
40
0.29198816317933951
40
0.29198816317933951
40
0.29198816317933951
40
0.29198816317933951
10
-11.988767462129175
20
-90.437748300253503
30
0
10
-11.988767462129175
20
-90.412748300253469
30
0
10
-11.988767462129175
20
-90.387748300253463
30
0
10
-11.988767462129175
20
-90.362748300253429
30
0
10
-11.988767462129246
20
-84.318559055250688
30
0
10
-11.473795377246283
20
-79.219658741183679
30
0
10
-10.66407760500617
20
-74.758431610539034
30
0
10
-10.660350404213332
20
-74.737896197005568
30
0
10
-10.656623203420494
20
-74.717360783472103
30
0
10
-10.652896002627656
20
-74.696825369938594
30
0
0
LINE
5
111
100
AcDbEntity
8
0
100
AcDbLine
10
-11.988767462129175
20
-90.437748300253503
30
0
11
-2.838767462130285
21
-90.437748300253403
31
0
0
LINE
5
112
100
AcDbEntity
8
0
100
AcDbLine
10
-2.838767462130285
20
-90.437748300253403
30
0
11
-2.838767462128402
21
-86.300647671854236
31
0
0
SPLINE
5
113
100
AcDbEntity
8
0
100
AcDbSpline
70
0
71
3
72
26
73
22
74
0
42
0.000000001
43
0.0000000001
44
0.0000000001
40
2.0826575499674824
40
2.0826575499674824
40
2.0826575499674824
40
2.0826575499674824
40
2.8606025415946399
40
2.8606025415946399
40
2.8606025415946399
40
3.6240056301341923
40
3.6240056301341923
40
3.6240056301341923
40
4.5882508405324742
40
4.5882508405324742
40
4.5882508405324742
40
5.5250890591792228
40
5.5250890591792228
40
5.5250890591792228
40
6.2635524763809221
40
6.2635524763809221
40
6.2635524763809221
40
6.9531762360820055
40
6.9531762360820055
40
6.9531762360820055
40
7.3421203143540996
40
7.3421203143540996
40
7.3421203143540996
40
7.3421203143540996
10
3.0112320363263834
20
-86.300647765725515
30
0
10
4.3575617956459567
20
-86.046813994289863
30
0
10
5.386408440396302
20
-85.607198840099969
30
0
10
5.7942218482441632
20
-85.13621731457323
30
0
10
6.1944121167716659
20
-84.674039711912513
30
0
10
6.0517953162117166
20
-84.20569037489102
30
0
10
5.3612283563151664
20
-83.766131397880997
30
0
10
4.4889815793032639
20
-83.210929768974438
30
0
10
2.7315438978764917
20
-82.800279597298854
30
0
10
0.82603304799508948
20
-82.721023199956321
30
0
10
-1.0253169726885147
20
-82.644019527755489
30
0
10
-2.9713716606491047
20
-82.877719441948898
30
0
10
-4.2457393982993352
20
-83.326360947057793
30
0
10
-5.2502607079403774
20
-83.680002944541414
30
0
10
-5.8119933892995945
20
-84.158749567966694
30
0
10
-5.8377409396275581
20
-84.5958446630314
30
0
10
-5.8617856276197244
20
-85.004031657517416
30
0
10
-5.4324577412178954
20
-85.448071539306198
30
0
10
-4.5876448554997395
20
-85.803525069687936
30
0
10
-4.1111749477772008
20
-86.003998942285961
30
0
10
-3.5127050501842305
20
-86.174275576996109
30
0
10
-2.8387674620578451
20
-86.300647671867452
30
0
0
LINE
5
114
100
AcDbEntity
8
0
100
AcDbLine
10
3.0112320363263834
20
-86.300647765725515
30
0
11
3.0112653261896938
21
-90.437748300253418
31
0
0
LINE
5
115
100
AcDbEntity
8
0
100
AcDbLine
10
3.0112653261896938
20
-90.437748300253418
30
0
11
11.990959930082106
21
-90.437748300253332
31
0
0
LINE
5
116
100
AcDbEntity
8
0
100
AcDbLine
10
11.990959930082106
20
-90.437748300253332
30
0
11
11.53734178223722
21
-74.69682536993875
31
0
0
LINE
5
117
100
AcDbEntity
8
0
100
AcDbLine
10
11.53734178223722
20
-74.696825369938765
30
0
11
7.8749999961667783
21
-74.696825369938765
31
0
0
LINE
5
118
100
AcDbEntity
8
0
100
AcDbLine
10
7.8749999961667783
20
-74.696825369938765
30
0
11
7.8749999961667783
21
-72.84682536993877
31
0
0
LINE
5
119
100
AcDbEntity
8
0
100
AcDbLine
10
7.8749999961667783
20
-72.84682536993877
30
0
11
10.874999996166785
21
-72.84682536993877
31
0
0
LINE
5
120
100
AcDbEntity
8
0
100
AcDbLine
10
10.874999996166785
20
-72.84682536993877
30
0
11
10.874999996166785
21
77.906619426104243
31
0
0
LINE
5
121
100
AcDbEntity
8
0
100
AcDbLine
10
10.874999996166785
20
77.906619426104243
30
0
11
4.8749999961667712
21
77.906619426104243
31
0
0
LINE
5
122
100
AcDbEntity
8
0
100
AcDbLine
10
4.8749999961667712
20
77.906619426104243
30
0
11
4.8749999961667712
21
82.78836254420554
31
0
0
ARC
5
123
100
AcDbEntity
8
0
100
AcDbCircle
10
2.7999999961668109
20
86.331619426104211
30
0
40
4.1061288741492419
210
-0
220
0
230
1
100
AcDbArc
50
-59.645932218376018
51
239.64593221837535
0
LINE
5
124
100
AcDbEntity
8
0
100
AcDbLine
10
0.72499999616681521
20
82.788362544205569
30
0
11
0.72499999616677968
21
77.906619426104243
31
0
0
LINE
5
125
100
AcDbEntity
8
0
100
AcDbLine
10
0.72499999616677968
20
77.906619426104243
30
0
11
-5.2750000038332345
21
77.906619426104243
31
0
0
LINE
5
126
100
AcDbEntity
8
0
100
AcDbLine
10
-5.2750000038332345
20
77.906619426104243
30
0
11
-5.2750000038332345
21
-46.797033180816001
31
0
0
SPLINE
5
127
100
AcDbEntity
8
0
100
AcDbSpline
70
0
71
3
72
14
73
10
74
0
42
0.000000001
43
0.0000000001
44
0.0000000001
40
0.52595135775145352
40
0.52595135775145352
40
0.52595135775145352
40
0.52595135775145352
40
0.52619464111575365
40
0.52619464111575365
40
0.52619464111575365
40
0.85023773738249053
40
0.85023773738249053
40
0.85023773738249053
40
1
40
1
40
1
40
1
10
-8.3596954888252384
20
-64.876689461149056
30
0
10
-8.358854604396555
20
-64.873529751647311
30
0
10
-8.3580137199679427
20
-64.870370042145723
30
0
10
-8.3571728355393304
20
-64.867210332644191
30
0
10
-7.2370495201131391
20
-60.658232068595055
30
0
10
-6.1751879684124589
20
-56.725785183823746
30
0
10
-5.6489478555584682
20
-52.614599614683229
30
0
10
-5.405736656526372
20
-50.714542307589355
30
0
10
-5.2750000038333056
20
-48.780270341260241
30
0
10
-5.2750000038332345
20
-46.797033180816001
30
0
0
LINE
5
128
100
AcDbEntity
8
0
100
AcDbLine
10
-8.3596954888252384
20
-64.876689461149056
30
0
11
-8.3596954888252384
21
-72.846825369938742
31
0
0
LINE
5
129
100
AcDbEntity
8
0
100
AcDbLine
10
-8.3596954888252384
20
-72.846825369938742
30
0
11
-2.2750000038332274
21
-72.846825369938756
31
0
0
LINE
5
130
100
AcDbEntity
8
0
100
AcDbLine
10
-2.2750000038332274
20
-72.846825369938756
30
0
11
-2.2750000038332274
21
-74.69682536993875
31
0
0
LINE
5
131
100
AcDbEntity
8
0
100
AcDbLine
10
-2.2750000038332274
20
-74.69682536993875
30
0
11
-8.3596954888252384
21
-74.696825369938736
31
0
0
ENDSEC
0
SECTION
2
OBJECTS
0
DICTIONARY
5
C
100
AcDbDictionary
3
ACAD_GROUP
350
D
3
ACAD_MLINESTYLE
350
17
0
DICTIONARY
5
D
100
AcDbDictionary
0
DICTIONARY
5
1A
330
C
100
AcDbDictionary
0
DICTIONARY
5
17
100
AcDbDictionary
0
ENDSEC
0
EOF
