0
SECTION
2
HEADER
9
$INSUNITS
70
4
9
$ACADVER
1
AC1014
9
$HANDSEED
5
FFFF
0
ENDSEC
0
SECTION
2
TABLES
0
TABLE
2
VPORT
5
8
100
AcDbSymbolTable
0
ENDTAB
0
TABLE
2
LTYPE
5
5
100
AcDbSymbolTable
0
LTYPE
5
14
100
AcDbSymbolTableRecord
100
AcDbLinetypeTableRecord
2
BYBLOCK
70
0
0
LTYPE
5
15
100
AcDbSymbolTableRecord
100
AcDbLinetypeTableRecord
2
BYLAYER
70
0
0
ENDTAB
0
TABLE
2
LAYER
5
2
100
AcDbSymbolTable
70
2
0
LAYER
5
50
100
AcDbSymbolTableRecord
100
AcDbLayerTableRecord
2
0
70
0
6
CONTINUOUS
0
ENDTAB
0
TABLE
2
STYLE
5
3
100
AcDbSymbolTable
70
1
0
STYLE
5
11
100
AcDbSymbolTableRecord
100
AcDbTextStyleTableRecord
2
STANDARD
70
0
0
ENDTAB
0
TABLE
2
VIEW
5
6
100
AcDbSymbolTable
70
0
0
ENDTAB
0
TABLE
2
UCS
5
7
100
AcDbSymbolTable
70
0
0
ENDTAB
0
TABLE
2
APPID
5
9
100
AcDbSymbolTable
70
2
0
APPID
5
12
100
AcDbSymbolTableRecord
100
AcDbRegAppTableRecord
2
ACAD
70
0
0
ENDTAB
0
TABLE
2
DIMSTYLE
5
A
100
AcDbSymbolTable
70
1
0
ENDTAB
0
TABLE
2
BLOCK_RECORD
5
1
100
AcDbSymbolTable
70
1
0
BLOCK_RECORD
5
1F
100
AcDbSymbolTableRecord
100
AcDbBlockTableRecord
2
*MODEL_SPACE
0
BLOCK_RECORD
5
1B
100
AcDbSymbolTableRecord
100
AcDbBlockTableRecord
2
*PAPER_SPACE
0
ENDTAB
0
ENDSEC
0
SECTION
2
BLOCKS
0
BLOCK
5
20
100
AcDbEntity
100
AcDbBlockBegin
2
*MODEL_SPACE
0
ENDBLK
5
21
100
AcDbEntity
100
AcDbBlockEnd
0
BLOCK
5
1C
100
AcDbEntity
100
AcDbBlockBegin
2
*PAPER_SPACE
0
ENDBLK
5
1D
100
AcDbEntity
100
AcDbBlockEnd
0
ENDSEC
0
SECTION
2
ENTITIES
0
CIRCLE
5
100
100
AcDbEntity
8
0
100
AcDbCircle
10
-0.036233084381152025
20
47.12857256417518
30
7.460698725481052e-13
40
3.9250000000000211
210
0
220
0
230
1
0
CIRCLE
5
101
100
AcDbEntity
8
0
100
AcDbCircle
10
-0.036233084381116498
20
74.244989519358811
30
7.3718808835110394e-13
40
3.9249999999999856
210
0
220
0
230
1
0
LINE
5
102
100
AcDbEntity
8
0
100
AcDbLine
10
3.6641780359524745
20
87.125949022768509
30
0
11
-4.1858219640475269
21
87.125949022768552
31
0
0
LINE
5
103
100
AcDbEntity
8
0
100
AcDbLine
10
-4.1858219640475269
20
87.125949022768552
30
0
11
-4.1858219640475269
21
88.975949022768532
31
-3.4694469519536142e-17
0
LINE
5
104
100
AcDbEntity
8
0
100
AcDbLine
10
-4.1858219640475269
20
88.975949022768532
30
8.8817841970012523e-15
11
3.6641780359524745
21
88.975949022768503
31
8.8817841970012555e-15
0
LINE
5
105
100
AcDbEntity
8
0
100
AcDbLine
10
3.6641780359524745
20
88.975949022768503
30
8.8817841970012523e-15
11
3.6641780359524745
21
87.125949022768509
31
8.8817841970012523e-15
0
LINE
5
106
100
AcDbEntity
8
0
100
AcDbLine
10
-2.9612330845736778
20
-107.6570778969178
30
8.8817841970012523e-15
11
-2.961233084566679
21
-103.51997726786681
31
8.8470897274817162e-15
0
SPLINE
5
107
100
AcDbEntity
8
0
100
AcDbSpline
70
0
71
3
72
26
73
22
74
0
42
0.000000001
43
0.0000000001
44
0.0000000001
40
2.0826580506397026
40
2.0826580506397026
40
2.0826580506397026
40
2.0826580506397026
40
2.8606034074744278
40
2.8606034074744278
40
2.8606034074744278
40
3.6240058677206544
40
3.6240058677206544
40
3.6240058677206544
40
4.5882511683492799
40
4.5882511683492799
40
4.5882511683492799
40
5.5250892883030049
40
5.5250892883030049
40
5.5250892883030049
40
6.2635527763373906
40
6.2635527763373906
40
6.2635527763373906
40
6.953176616771338
40
6.953176616771338
40
6.953176616771338
40
7.3421203144429406
40
7.3421203144429406
40
7.3421203144429406
40
7.3421203144429406
10
2.8887690168076929
20
-103.51997687657529
30
0
10
4.2350991063825916
20
-103.26614281689542
30
0
10
5.2639452925644292
20
-102.82652711201843
30
0
10
5.6717575875618564
20
-102.35554534146544
30
0
10
6.0719462468095742
20
-101.89336809570852
30
0
10
5.929328809665968
20
-101.42501915742029
30
8.8817841970012523e-15
10
5.2387620897231102
20
-100.98546058684904
30
0
10
4.3665148162984835
20
-100.4302589624167
30
0
10
2.6090765901227897
20
-100.01960891396131
30
0
10
0.70356548313334599
20
-99.940352716585338
30
0
10
-1.1477844190742204
20
-99.86334925398512
30
0
10
-3.0938386677261676
20
-100.09704931972921
30
0
10
-4.3682059549728081
20
-100.54569087156808
30
0
10
-5.372727111758735
20
-100.89933297706276
30
8.8817841970012523e-15
10
-5.9344594339921741
20
-101.37807965854034
30
0
10
-5.9602065931873227
20
-101.81517479033005
30
0
10
-5.9842509164235125
20
-102.22336182774491
30
8.8817841970012523e-15
10
-5.554922482245459
20
-102.66740178304693
30
8.8817841970012523e-15
10
-4.7101090791183253
20
-103.02285525353741
30
0
10
-4.2336394016082934
20
-103.22332887271477
30
0
10
-3.6351700135477927
20
-103.3936052966684
30
8.8817841970012523e-15
10
-2.961233084496051
20
-103.51997726788005
30
0
0
LINE
5
108
100
AcDbEntity
8
0
100
AcDbLine
10
2.8887690168076929
20
-103.51997687657529
30
0
11
2.888628913397433
21
-107.6570778969178
31
0
0
LINE
5
109
100
AcDbEntity
8
0
100
AcDbLine
10
2.888628913397433
20
-107.6570778969178
30
0
11
12.113253764287819
21
-107.6570778969178
31
0
0
ARC
5
110
100
AcDbEntity
8
0
100
AcDbCircle
10
219.9637669189336
20
-102.09202554056995
30
8.8817841970012523e-15
40
207.92500000331489
210
0
220
0
230
1
100
AcDbArc
50
179.99799721680512
51
181.53368807770303
0
LINE
5
111
100
AcDbEntity
8
0
100
AcDbLine
10
12.038767042646725
20
-102.08475748832788
30
8.8817841970012523e-15
11
11.333168570404624
21
-98.478690606452361
31
8.8817841970012523e-15
0
LINE
5
112
100
AcDbEntity
8
0
100
AcDbLine
10
11.333168570404624
20
-98.478690606452361
30
0
11
9.8887669156192004
21
-98.478690606452361
31
0
0
LINE
5
113
100
AcDbEntity
8
0
100
AcDbLine
10
9.8887669156192004
20
-98.478690606452361
30
0
11
9.8887669156192004
21
-103.50707789691779
31
0
0
LINE
5
114
100
AcDbEntity
8
0
100
AcDbLine
10
9.8887669156192004
20
-103.50707789691779
30
0
11
8.0387669156192132
21
-103.50707789691779
31
0
0
LINE
5
115
100
AcDbEntity
8
0
100
AcDbLine
10
8.0387669156192132
20
-103.50707789691779
30
0
11
8.0387669156192132
21
-98.478690606452361
31
0
0
LINE
5
116
100
AcDbEntity
8
0
100
AcDbLine
10
8.0387669156192132
20
-98.478690606452361
30
0
11
5.0387669156192061
21
-98.478690606452361
31
0
0
LINE
5
117
100
AcDbEntity
8
0
100
AcDbLine
10
5.0387669156192061
20
-98.478690606452361
30
0
11
5.0387669156192061
21
-96.628690606452366
31
0
0
LINE
5
118
100
AcDbEntity
8
0
100
AcDbLine
10
5.0387669156192061
20
-96.628690606452352
30
0
11
10.971179395936268
21
-96.628690606452352
31
0
0
LINE
5
119
100
AcDbEntity
8
0
100
AcDbLine
10
10.971179395936268
20
-96.628690606452352
30
8.8817841970012523e-15
11
8.0387669156192132
21
-81.642156557323943
31
8.8817841970012523e-15
0
LINE
5
120
100
AcDbEntity
8
0
100
AcDbLine
10
8.0387669156192487
20
-81.642156557323943
30
0
11
8.0387669156192842
21
95.125949022768594
31
0
0
LINE
5
121
100
AcDbEntity
8
0
100
AcDbLine
10
8.0387669156192842
20
95.125949022768623
30
0
11
1.8141780359525583
21
95.125949022768594
31
0
0
LINE
5
122
100
AcDbEntity
8
0
100
AcDbLine
10
1.8141780359525583
20
95.125949022768594
30
0
11
1.8141780359525583
21
100.00769214086989
31
0
0
ARC
5
123
100
AcDbEntity
8
0
100
AcDbCircle
10
-0.26082196404740188
20
103.55094902276858
30
0
40
4.1061288741492437
210
-3.5065155751085414e-18
220
5.9877038279462439e-18
230
1
100
AcDbArc
50
-59.645932218376068
51
239.6459322183747
0
LINE
5
124
100
AcDbEntity
8
0
100
AcDbLine
10
-2.3358219640474331
20
100.00769214086993
30
8.8817841970012523e-15
11
-2.3358219640474331
21
95.125949022768594
31
8.8817841970012523e-15
0
LINE
5
125
100
AcDbEntity
8
0
100
AcDbLine
10
-2.3358219640474331
20
95.125949022768594
30
0
11
-8.1112330843807356
21
95.125949022768594
31
0
0
LINE
5
126
100
AcDbEntity
8
0
100
AcDbLine
10
-8.1112330843807356
20
95.125949022768594
30
0
11
-8.1112330843807356
21
-81.642156557323915
31
0
0
LINE
5
127
100
AcDbEntity
8
0
100
AcDbLine
10
-8.1112330843807356
20
-81.642156557323915
30
0
11
-11.043645564698359
21
-96.628690606452352
31
0
0
LINE
5
128
100
AcDbEntity
8
0
100
AcDbLine
10
-11.043645564698394
20
-96.628690606452352
30
0
11
-5.1112330843807996
21
-96.628690606452352
31
0
0
LINE
5
129
100
AcDbEntity
8
0
100
AcDbLine
10
-5.1112330843807996
20
-96.628690606452352
30
0
11
-5.1112330843807996
21
-98.478690606452346
31
0
0
LINE
5
130
100
AcDbEntity
8
0
100
AcDbLine
10
-5.1112330843807996
20
-98.478690606452361
30
0
11
-8.0462656368720431
21
-98.478690606452361
31
1.9721522630525295e-30
0
LINE
5
131
100
AcDbEntity
8
0
100
AcDbLine
10
-8.0462656368720431
20
-98.478690606452361
30
0
11
-8.0462656368720431
21
-103.50707789691779
31
0
0
LINE
5
132
100
AcDbEntity
8
0
100
AcDbLine
10
-8.0462656368720431
20
-103.50707789691779
30
0
11
-9.8962656368720303
21
-103.50707789691779
31
0
0
LINE
5
133
100
AcDbEntity
8
0
100
AcDbLine
10
-9.8962656368720303
20
-103.50707789691779
30
0
11
-9.8962656368720303
21
-98.478690606452361
31
0
0
LINE
5
134
100
AcDbEntity
8
0
100
AcDbLine
10
-9.8962656368720303
20
-98.478690606452361
30
0
11
-11.405634739166928
21
-98.478690606452361
31
0
0
LINE
5
135
100
AcDbEntity
8
0
100
AcDbLine
10
-11.405634739166928
20
-98.478690606452361
30
0
11
-12.111232970533337
21
-102.08475625729562
31
0
0
ARC
5
136
100
AcDbEntity
8
0
100
AcDbCircle
10
219.9637669189336
20
-102.09202554056995
30
8.8817841970012523e-15
40
232.07500000331487
210
0
220
0
230
1
100
AcDbArc
50
179.99820532474178
51
181.37405829373012
0
LINE
5
137
100
AcDbEntity
8
0
100
AcDbLine
10
-12.044499784668297
20
-107.65707789691767
30
8.8817841970012523e-15
11
-2.9612330845736778
21
-107.6570778969178
31
8.8817841970012523e-15
0
ENDSEC
0
SECTION
2
OBJECTS
0
DICTIONARY
5
C
100
AcDbDictionary
3
ACAD_GROUP
350
D
3
ACAD_MLINESTYLE
350
17
0
DICTIONARY
5
D
100
AcDbDictionary
0
DICTIONARY
5
1A
330
C
100
AcDbDictionary
0
DICTIONARY
5
17
100
AcDbDictionary
0
ENDSEC
0
EOF
