0
SECTION
2
HEADER
9
$INSUNITS
70
4
9
$ACADVER
1
AC1014
9
$HANDSEED
5
FFFF
0
ENDSEC
0
SECTION
2
TABLES
0
TABLE
2
VPORT
5
8
100
AcDbSymbolTable
0
ENDTAB
0
TABLE
2
LTYPE
5
5
100
AcDbSymbolTable
0
LTYPE
5
14
100
AcDbSymbolTableRecord
100
AcDbLinetypeTableRecord
2
BYBLOCK
70
0
0
LTYPE
5
15
100
AcDbSymbolTableRecord
100
AcDbLinetypeTableRecord
2
BYLAYER
70
0
0
ENDTAB
0
TABLE
2
LAYER
5
2
100
AcDbSymbolTable
70
2
0
LAYER
5
50
100
AcDbSymbolTableRecord
100
AcDbLayerTableRecord
2
0
70
0
6
CONTINUOUS
0
ENDTAB
0
TABLE
2
STYLE
5
3
100
AcDbSymbolTable
70
1
0
STYLE
5
11
100
AcDbSymbolTableRecord
100
AcDbTextStyleTableRecord
2
STANDARD
70
0
0
ENDTAB
0
TABLE
2
VIEW
5
6
100
AcDbSymbolTable
70
0
0
ENDTAB
0
TABLE
2
UCS
5
7
100
AcDbSymbolTable
70
0
0
ENDTAB
0
TABLE
2
APPID
5
9
100
AcDbSymbolTable
70
2
0
APPID
5
12
100
AcDbSymbolTableRecord
100
AcDbRegAppTableRecord
2
ACAD
70
0
0
ENDTAB
0
TABLE
2
DIMSTYLE
5
A
100
AcDbSymbolTable
70
1
0
ENDTAB
0
TABLE
2
BLOCK_RECORD
5
1
100
AcDbSymbolTable
70
1
0
BLOCK_RECORD
5
1F
100
AcDbSymbolTableRecord
100
AcDbBlockTableRecord
2
*MODEL_SPACE
0
BLOCK_RECORD
5
1B
100
AcDbSymbolTableRecord
100
AcDbBlockTableRecord
2
*PAPER_SPACE
0
ENDTAB
0
ENDSEC
0
SECTION
2
BLOCKS
0
BLOCK
5
20
100
AcDbEntity
100
AcDbBlockBegin
2
*MODEL_SPACE
0
ENDBLK
5
21
100
AcDbEntity
100
AcDbBlockEnd
0
BLOCK
5
1C
100
AcDbEntity
100
AcDbBlockBegin
2
*PAPER_SPACE
0
ENDBLK
5
1D
100
AcDbEntity
100
AcDbBlockEnd
0
ENDSEC
0
SECTION
2
ENTITIES
0
LINE
5
100
100
AcDbEntity
8
0
100
AcDbLine
10
8.2157503439714219
20
12.47989107127351
30
0
11
9.1871128663142088
21
12.996083719601748
31
0
0
LINE
5
101
100
AcDbEntity
8
0
100
AcDbLine
10
9.1871128663142088
20
12.996083719601748
30
0
11
5.2490502101240111
21
20.406662865262089
31
0
0
LINE
5
102
100
AcDbEntity
8
0
100
AcDbLine
10
5.2490502101240111
20
20.406662865262089
30
0
11
4.2776876877850611
21
19.890470216926744
31
0
0
LINE
5
103
100
AcDbEntity
8
0
100
AcDbLine
10
4.2776876877850611
20
19.890470216926744
30
0
11
1.4174029560959411
21
25.272905244969486
31
0
0
LINE
5
104
100
AcDbEntity
8
0
100
AcDbLine
10
1.4174029560959411
20
25.272905244969486
30
0
11
-4.1317534876621664
21
22.324022932941503
31
0
0
LINE
5
105
100
AcDbEntity
8
0
100
AcDbLine
10
-4.1317534876621664
20
22.324022932941503
30
0
11
-4.6479461359921004
21
23.295385455283313
31
0
0
LINE
5
106
100
AcDbEntity
8
0
100
AcDbLine
10
-4.6479461359921004
20
23.295385455283313
30
0
11
-14.703671833225229
21
17.95166304563109
31
0
0
LINE
5
107
100
AcDbEntity
8
0
100
AcDbLine
10
-14.703671833225229
20
17.95166304563109
30
0
11
-14.187479184895153
21
16.980300523289138
31
0
0
LINE
5
108
100
AcDbEntity
8
0
100
AcDbLine
10
-14.187479184895153
20
16.980300523289138
30
0
11
-21.738755686009767
21
12.967469756476397
31
0
0
LINE
5
109
100
AcDbEntity
8
0
100
AcDbLine
10
-21.738755686009767
20
12.967469756476397
30
0
11
-15.320476021445302
21
0.88966054273154072
31
0
0
LINE
5
110
100
AcDbEntity
8
0
100
AcDbLine
10
-15.320476021445302
20
0.88966054273154072
30
0
11
-14.349113499103652
21
1.4058531910623451
31
0
0
LINE
5
111
100
AcDbEntity
8
0
100
AcDbLine
10
-14.349113499103652
20
1.4058531910623451
30
0
11
-6.8643200983197517
21
-12.678903382892948
31
0
0
LINE
5
112
100
AcDbEntity
8
0
100
AcDbLine
10
-6.8643200983197517
20
-12.678903382892948
30
0
11
-7.8356826206614016
21
-13.195096031224054
31
0
0
LINE
5
113
100
AcDbEntity
8
0
100
AcDbLine
10
-7.8356826206614016
20
-13.195096031224054
30
0
11
-1.4174029560960832
21
-25.272905244969479
31
0
0
LINE
5
114
100
AcDbEntity
8
0
100
AcDbLine
10
-1.4174029560960832
20
-25.272905244969479
30
0
11
5.2874132106414606
21
-21.709892740297629
31
0
0
LINE
5
115
100
AcDbEntity
8
0
100
AcDbLine
10
5.2874132106414606
20
-21.709892740297629
30
0
11
5.8036058589712525
21
-22.681255262639262
31
0
0
LINE
5
116
100
AcDbEntity
8
0
100
AcDbLine
10
5.8036058589712525
20
-22.681255262639262
30
0
11
13.87930053872438
21
-18.389742950844692
31
0
0
LINE
5
117
100
AcDbEntity
8
0
100
AcDbLine
10
13.87930053872438
20
-18.389742950844692
30
0
11
13.363107890394588
21
-17.418380428503237
31
0
0
LINE
5
118
100
AcDbEntity
8
0
100
AcDbLine
10
13.363107890394588
20
-17.418380428503237
30
0
11
21.73875568600991
21
-12.96746975647725
31
0
0
LINE
5
119
100
AcDbEntity
8
0
100
AcDbLine
10
21.73875568600991
20
-12.96746975647725
30
0
11
18.298070744037034
21
-6.4928475110205142
31
0
0
LINE
5
120
100
AcDbEntity
8
0
100
AcDbLine
10
18.298070744037034
20
-6.4928475110205142
30
0
11
19.269433266380531
21
-5.9766548626937599
31
0
0
LINE
5
121
100
AcDbEntity
8
0
100
AcDbLine
10
19.269433266380531
20
-5.9766548626937599
30
0
11
16.319630876655822
21
-0.42576703241719471
31
0
0
LINE
5
122
100
AcDbEntity
8
0
100
AcDbLine
10
16.319630876655822
20
-0.42576703241719471
30
0
11
15.348268354315451
21
-0.94195968074968661
31
0
0
LINE
5
123
100
AcDbEntity
8
0
100
AcDbLine
10
15.348268354315451
20
-0.94195968074968661
30
0
11
8.2157503439714219
21
12.47989107127351
31
0
0
LINE
5
124
100
AcDbEntity
8
0
100
AcDbLine
10
-1.1175511186860376
20
-10.390255721005612
30
0
11
-1.6102804648190272
21
-9.4630460405885763
31
0
0
LINE
5
125
100
AcDbEntity
8
0
100
AcDbLine
10
-1.6102804648190272
20
-9.4630460405885763
30
0
11
7.1761350781812894
21
-4.7938489034226173
31
0
0
LINE
5
126
100
AcDbEntity
8
0
100
AcDbLine
10
7.1761350781812894
20
-4.7938489034226173
30
0
11
7.6688644243142789
21
-5.721058583839671
31
0
0
LINE
5
127
100
AcDbEntity
8
0
100
AcDbLine
10
7.6688644243142789
20
-5.721058583839671
30
0
11
-1.1175511186860376
21
-10.390255721005612
31
0
0
LINE
5
128
100
AcDbEntity
8
0
100
AcDbLine
10
-0.45014914494103664
20
9.5571626869875281
30
0
11
0.042580201191952938
21
8.6299530065705099
31
0
0
LINE
5
129
100
AcDbEntity
8
0
100
AcDbLine
10
0.042580201191952938
20
8.6299530065705099
30
0
11
-8.7438353418082215
21
3.9607558694045331
31
0
0
LINE
5
130
100
AcDbEntity
8
0
100
AcDbLine
10
-8.7438353418082215
20
3.9607558694045331
30
0
11
-9.2365646879412111
21
4.8879655498215868
31
0
0
LINE
5
131
100
AcDbEntity
8
0
100
AcDbLine
10
-9.2365646879412111
20
4.8879655498215868
30
0
11
-0.45014914494103664
21
9.5571626869875281
31
0
0
ENDSEC
0
SECTION
2
OBJECTS
0
DICTIONARY
5
C
100
AcDbDictionary
3
ACAD_GROUP
350
D
3
ACAD_MLINESTYLE
350
17
0
DICTIONARY
5
D
100
AcDbDictionary
0
DICTIONARY
5
1A
330
C
100
AcDbDictionary
0
DICTIONARY
5
17
100
AcDbDictionary
0
ENDSEC
0
EOF
