0
SECTION
2
HEADER
9
$INSUNITS
70
4
9
$ACADVER
1
AC1014
9
$HANDSEED
5
FFFF
0
ENDSEC
0
SECTION
2
TABLES
0
TABLE
2
VPORT
5
8
100
AcDbSymbolTable
0
ENDTAB
0
TABLE
2
LTYPE
5
5
100
AcDbSymbolTable
0
LTYPE
5
14
100
AcDbSymbolTableRecord
100
AcDbLinetypeTableRecord
2
BYBLOCK
70
0
0
LTYPE
5
15
100
AcDbSymbolTableRecord
100
AcDbLinetypeTableRecord
2
BYLAYER
70
0
0
ENDTAB
0
TABLE
2
LAYER
5
2
100
AcDbSymbolTable
70
2
0
LAYER
5
50
100
AcDbSymbolTableRecord
100
AcDbLayerTableRecord
2
0
70
0
6
CONTINUOUS
0
ENDTAB
0
TABLE
2
STYLE
5
3
100
AcDbSymbolTable
70
1
0
STYLE
5
11
100
AcDbSymbolTableRecord
100
AcDbTextStyleTableRecord
2
STANDARD
70
0
0
ENDTAB
0
TABLE
2
VIEW
5
6
100
AcDbSymbolTable
70
0
0
ENDTAB
0
TABLE
2
UCS
5
7
100
AcDbSymbolTable
70
0
0
ENDTAB
0
TABLE
2
APPID
5
9
100
AcDbSymbolTable
70
2
0
APPID
5
12
100
AcDbSymbolTableRecord
100
AcDbRegAppTableRecord
2
ACAD
70
0
0
ENDTAB
0
TABLE
2
DIMSTYLE
5
A
100
AcDbSymbolTable
70
1
0
ENDTAB
0
TABLE
2
BLOCK_RECORD
5
1
100
AcDbSymbolTable
70
1
0
BLOCK_RECORD
5
1F
100
AcDbSymbolTableRecord
100
AcDbBlockTableRecord
2
*MODEL_SPACE
0
BLOCK_RECORD
5
1B
100
AcDbSymbolTableRecord
100
AcDbBlockTableRecord
2
*PAPER_SPACE
0
ENDTAB
0
ENDSEC
0
SECTION
2
BLOCKS
0
BLOCK
5
20
100
AcDbEntity
100
AcDbBlockBegin
2
*MODEL_SPACE
0
ENDBLK
5
21
100
AcDbEntity
100
AcDbBlockEnd
0
BLOCK
5
1C
100
AcDbEntity
100
AcDbBlockBegin
2
*PAPER_SPACE
0
ENDBLK
5
1D
100
AcDbEntity
100
AcDbBlockEnd
0
ENDSEC
0
SECTION
2
ENTITIES
0
CIRCLE
5
100
100
AcDbEntity
8
0
100
AcDbCircle
10
-3.1530330918860017
20
9.9999999999999645
30
-1.0658141036401503e-12
40
0.97500000000001419
210
0
220
0
230
1
0
CIRCLE
5
101
100
AcDbEntity
8
0
100
AcDbCircle
10
-3.1530330918860017
20
22.727272727272698
30
-1.0658141036401503e-12
40
0.97500000000001419
210
0
220
0
230
1
0
CIRCLE
5
102
100
AcDbEntity
8
0
100
AcDbCircle
10
-3.1530330918861438
20
-15.454545454545459
30
-1.2079226507921703e-12
40
0.97500000000001419
210
0
220
0
230
1
0
CIRCLE
5
103
100
AcDbEntity
8
0
100
AcDbCircle
10
-3.1530330918861438
20
-2.7272727272727426
30
-1.2079226507921703e-12
40
0.97500000000001419
210
0
220
0
230
1
0
LINE
5
104
100
AcDbEntity
8
0
100
AcDbLine
10
-8.0249999999989541
20
-25.479545454545438
30
-1.4210854715202004e-13
11
8.0250000000012989
21
-25.479545454545438
31
-1.4210854715202004e-13
0
LINE
5
105
100
AcDbEntity
8
0
100
AcDbLine
10
8.0250000000012989
20
-25.479545454545438
30
-1.4210854715202004e-13
11
8.0250000000012278
21
-24.379545454545433
31
-1.4210854715202004e-13
0
LINE
5
106
100
AcDbEntity
8
0
100
AcDbLine
10
8.0250000000011568
20
-24.379545454545433
30
-1.4210854715202004e-13
11
21.602272727273117
21
-24.379545454545433
31
-1.4099832412739488e-13
0
LINE
5
107
100
AcDbEntity
8
0
100
AcDbLine
10
21.602272727273188
20
-24.379545454545433
30
-1.4210854715202004e-13
11
21.60227272727326
21
-25.479545454545438
31
-1.4210854715202004e-13
0
LINE
5
108
100
AcDbEntity
8
0
100
AcDbLine
10
21.60227272727326
20
-25.479545454545438
30
0
11
22.752272727272569
21
-25.479545454545445
31
-6.9388939039076857e-17
0
LINE
5
109
100
AcDbEntity
8
0
100
AcDbLine
10
22.752272727272569
20
-25.479545454545445
30
-1.4210854715202004e-13
11
22.752272727272569
21
-21.70227272727276
31
-1.4210854715202004e-13
0
LINE
5
110
100
AcDbEntity
8
0
100
AcDbLine
10
22.752272727272569
20
-21.70227272727276
30
-1.4210854715202004e-13
11
21.652272727272575
21
-21.70227272727276
31
-1.4210854715202004e-13
0
LINE
5
111
100
AcDbEntity
8
0
100
AcDbLine
10
21.652272727272646
20
-21.70227272727276
30
0
11
21.652272727272717
21
-3.7522727272727252
31
3.944304526105059e-30
0
LINE
5
112
100
AcDbEntity
8
0
100
AcDbLine
10
21.652272727272717
20
-3.7522727272727252
30
-7.1054273576010019e-14
11
22.75227272727264
21
-3.7522727272727252
31
-7.1123662515049091e-14
0
LINE
5
113
100
AcDbEntity
8
0
100
AcDbLine
10
22.752272727272569
20
-3.7522727272727252
30
-1.4210854715202004e-13
11
22.752272727273279
21
-1.0750000000000348
31
-1.4210854715202004e-13
0
LINE
5
114
100
AcDbEntity
8
0
100
AcDbLine
10
22.752272727273208
20
-1.0750000000000348
30
-7.1054273576010019e-14
11
9.0473348906893847
21
-1.0750000000000348
31
-6.9944050551384862e-14
0
LINE
5
115
100
AcDbEntity
8
0
100
AcDbLine
10
9.0473348906895268
20
-1.0750000000000348
30
-7.1054273576010019e-14
11
9.0473348906895268
21
-0.024999999999986144
31
-7.1054273576010019e-14
0
LINE
5
116
100
AcDbEntity
8
0
100
AcDbLine
10
9.0473348906895268
20
-0.024999999999986144
30
-7.1054273576010019e-14
11
22.75227272727335
21
-0.024999999999986144
31
-7.2164496600635175e-14
0
LINE
5
117
100
AcDbEntity
8
0
100
AcDbLine
10
22.752272727273208
20
-0.024999999999986144
30
-7.1054273576010019e-14
11
22.752272727272853
21
6.4853823270383071
31
-7.1054273576010031e-14
0
LINE
5
118
100
AcDbEntity
8
0
100
AcDbLine
10
22.752272727272924
20
6.4853823270383071
30
-7.1054273576010019e-14
11
21.652272727273001
21
6.4853823270383071
31
-7.0984884636970946e-14
0
LINE
5
119
100
AcDbEntity
8
0
100
AcDbLine
10
21.652272727273072
20
6.4853823270383071
30
0
11
21.652272727273072
21
20.881500262143593
31
3.944304526105059e-30
0
LINE
5
120
100
AcDbEntity
8
0
100
AcDbLine
10
21.652272727273072
20
20.881500262143593
30
0
11
22.752272727272924
21
20.881500262143593
31
-1.4676174637755031e-44
0
LINE
5
121
100
AcDbEntity
8
0
100
AcDbLine
10
22.752272727272853
20
20.881500262143593
30
-7.1054273576010019e-14
11
22.752272727272995
21
25.479545454545445
31
-7.1054273576010006e-14
0
LINE
5
122
100
AcDbEntity
8
0
100
AcDbLine
10
22.752272727273066
20
25.479545454545445
30
0
11
14.461079574879889
21
25.479545454545427
31
5.551115123125692e-16
0
LINE
5
123
100
AcDbEntity
8
0
100
AcDbLine
10
14.461079574879747
20
25.479545454545427
30
-7.1054273576010019e-14
11
14.461079574879747
21
24.379545454545433
31
-7.1054273576010019e-14
0
LINE
5
124
100
AcDbEntity
8
0
100
AcDbLine
10
14.461079574879747
20
24.379545454545433
30
-7.1054273576010019e-14
11
-11.478603667346619
21
24.379545454545433
31
-7.1054273576010019e-14
0
LINE
5
125
100
AcDbEntity
8
0
100
AcDbLine
10
-11.478603667346547
20
24.379545454545433
30
0
11
-11.478603667346547
21
25.479545454545427
31
0
0
LINE
5
126
100
AcDbEntity
8
0
100
AcDbLine
10
-11.478603667346547
20
25.479545454545427
30
0
11
-22.752272727272995
21
25.479545454545409
31
-9.1448746623996316e-30
0
LINE
5
127
100
AcDbEntity
8
0
100
AcDbLine
10
-22.752272727272995
20
25.479545454545409
30
-7.1054273576010019e-14
11
-22.752272727271787
21
20.881500262143593
31
-7.1054273576009981e-14
0
LINE
5
128
100
AcDbEntity
8
0
100
AcDbLine
10
-22.752272727271787
20
20.881500262143593
30
-7.1054273576010019e-14
11
-21.652272727271864
21
20.881500262143593
31
-7.1054273576010019e-14
0
LINE
5
129
100
AcDbEntity
8
0
100
AcDbLine
10
-21.652272727271793
20
20.881500262143593
30
0
11
-21.652272727271651
21
6.4853823270383071
31
1.9721522630525295e-29
0
LINE
5
130
100
AcDbEntity
8
0
100
AcDbLine
10
-21.652272727271722
20
6.4853823270383071
30
-7.1054273576010019e-14
11
-22.752272727271787
21
6.4853823270383071
31
-7.1123662515049091e-14
0
LINE
5
131
100
AcDbEntity
8
0
100
AcDbLine
10
-22.752272727271787
20
6.4853823270383071
30
-7.1054273576010019e-14
11
-22.752272727271858
21
-0.024999999999986144
31
-7.1054273576010019e-14
0
LINE
5
132
100
AcDbEntity
8
0
100
AcDbLine
10
-22.752272727271929
20
-0.024999999999986144
30
-7.1054273576010019e-14
11
-5.7668810282313387
21
-0.024999999999986144
31
-7.1054273576010019e-14
0
LINE
5
133
100
AcDbEntity
8
0
100
AcDbLine
10
-5.7668810282313387
20
-0.024999999999986144
30
-7.1054273576010019e-14
11
-5.7668810282313387
21
-1.0750000000000348
31
-7.1054273576010019e-14
0
LINE
5
134
100
AcDbEntity
8
0
100
AcDbLine
10
-5.7668810282313387
20
-1.0750000000000348
30
-7.1054273576010019e-14
11
-22.752272727271929
21
-1.0750000000000348
31
-7.1054273576010019e-14
0
LINE
5
135
100
AcDbEntity
8
0
100
AcDbLine
10
-22.752272727271858
20
-1.0750000000000348
30
-7.1054273576010019e-14
11
-22.752272727272924
21
-3.7522727272727252
31
-7.1054273576010019e-14
0
LINE
5
136
100
AcDbEntity
8
0
100
AcDbLine
10
-22.752272727272924
20
-3.7522727272727252
30
0
11
-21.652272727272646
21
-3.7522727272727252
31
-1.4646735014110733e-44
0
LINE
5
137
100
AcDbEntity
8
0
100
AcDbLine
10
-21.652272727272646
20
-3.7522727272727252
30
-7.1054273576010019e-14
11
-21.652272727272788
21
-21.70227272727276
31
-7.1054273576010019e-14
0
LINE
5
138
100
AcDbEntity
8
0
100
AcDbLine
10
-21.652272727272717
20
-21.70227272727276
30
0
11
-22.752272727272853
21
-21.70227272727276
31
1.4646735014108844e-44
0
LINE
5
139
100
AcDbEntity
8
0
100
AcDbLine
10
-22.752272727272924
20
-21.70227272727276
30
0
11
-22.752272727272853
21
-25.479545454545445
31
2.2186712959340957e-30
0
LINE
5
140
100
AcDbEntity
8
0
100
AcDbLine
10
-22.752272727272853
20
-25.479545454545445
30
0
11
-21.602272727271838
21
-25.479545454545438
31
4.5724373311998761e-30
0
LINE
5
141
100
AcDbEntity
8
0
100
AcDbLine
10
-21.602272727271838
20
-25.479545454545438
30
0
11
-21.602272727271838
21
-24.379545454545433
31
-1.2325951644078309e-31
0
LINE
5
142
100
AcDbEntity
8
0
100
AcDbLine
10
-21.60227272727191
20
-24.379545454545433
30
0
11
-8.0249999999989541
21
-24.379545454545433
31
-1.8121281595143897e-43
0
LINE
5
143
100
AcDbEntity
8
0
100
AcDbLine
10
-8.024999999998883
20
-24.379545454545433
30
0
11
-8.0249999999989541
21
-25.479545454545438
31
1.8488927466117464e-30
0
ENDSEC
0
SECTION
2
OBJECTS
0
DICTIONARY
5
C
100
AcDbDictionary
3
ACAD_GROUP
350
D
3
ACAD_MLINESTYLE
350
17
0
DICTIONARY
5
D
100
AcDbDictionary
0
DICTIONARY
5
1A
330
C
100
AcDbDictionary
0
DICTIONARY
5
17
100
AcDbDictionary
0
ENDSEC
0
EOF
