0
SECTION
2
HEADER
9
$INSUNITS
70
4
9
$ACADVER
1
AC1014
9
$HANDSEED
5
FFFF
0
ENDSEC
0
SECTION
2
TABLES
0
TABLE
2
VPORT
5
8
100
AcDbSymbolTable
0
ENDTAB
0
TABLE
2
LTYPE
5
5
100
AcDbSymbolTable
0
LTYPE
5
14
100
AcDbSymbolTableRecord
100
AcDbLinetypeTableRecord
2
BYBLOCK
70
0
0
LTYPE
5
15
100
AcDbSymbolTableRecord
100
AcDbLinetypeTableRecord
2
BYLAYER
70
0
0
ENDTAB
0
TABLE
2
LAYER
5
2
100
AcDbSymbolTable
70
2
0
LAYER
5
50
100
AcDbSymbolTableRecord
100
AcDbLayerTableRecord
2
0
70
0
6
CONTINUOUS
0
ENDTAB
0
TABLE
2
STYLE
5
3
100
AcDbSymbolTable
70
1
0
STYLE
5
11
100
AcDbSymbolTableRecord
100
AcDbTextStyleTableRecord
2
STANDARD
70
0
0
ENDTAB
0
TABLE
2
VIEW
5
6
100
AcDbSymbolTable
70
0
0
ENDTAB
0
TABLE
2
UCS
5
7
100
AcDbSymbolTable
70
0
0
ENDTAB
0
TABLE
2
APPID
5
9
100
AcDbSymbolTable
70
2
0
APPID
5
12
100
AcDbSymbolTableRecord
100
AcDbRegAppTableRecord
2
ACAD
70
0
0
ENDTAB
0
TABLE
2
DIMSTYLE
5
A
100
AcDbSymbolTable
70
1
0
ENDTAB
0
TABLE
2
BLOCK_RECORD
5
1
100
AcDbSymbolTable
70
1
0
BLOCK_RECORD
5
1F
100
AcDbSymbolTableRecord
100
AcDbBlockTableRecord
2
*MODEL_SPACE
0
BLOCK_RECORD
5
1B
100
AcDbSymbolTableRecord
100
AcDbBlockTableRecord
2
*PAPER_SPACE
0
ENDTAB
0
ENDSEC
0
SECTION
2
BLOCKS
0
BLOCK
5
20
100
AcDbEntity
100
AcDbBlockBegin
2
*MODEL_SPACE
0
ENDBLK
5
21
100
AcDbEntity
100
AcDbBlockEnd
0
BLOCK
5
1C
100
AcDbEntity
100
AcDbBlockBegin
2
*PAPER_SPACE
0
ENDBLK
5
1D
100
AcDbEntity
100
AcDbBlockEnd
0
ENDSEC
0
SECTION
2
ENTITIES
0
LINE
5
100
100
AcDbEntity
8
0
100
AcDbLine
10
-7.6007575757576262
20
-3.8551556060582826
30
0
11
-7.6007575757576262
21
-9.4521274862442795
31
6.8409031624634618e-30
0
LINE
5
101
100
AcDbEntity
8
0
100
AcDbLine
10
-7.6007575757576262
20
-9.4521274862442795
30
0
11
-8.650757575757666
21
-9.4521274862442795
31
-2.0972840798097933e-49
0
LINE
5
102
100
AcDbEntity
8
0
100
AcDbLine
10
-8.650757575757666
20
-9.4521274862442795
30
0
11
-8.650757575757666
21
-3.8551556060582826
31
-1.8488927466117464e-31
0
LINE
5
103
100
AcDbEntity
8
0
100
AcDbLine
10
-8.650757575757666
20
-3.8551556060582826
30
0
11
-7.6007575757576262
21
-3.8551556060582826
31
2.2057119189506177e-64
0
LINE
5
104
100
AcDbEntity
8
0
100
AcDbLine
10
-7.6007575757576262
20
9.6257913201597933
30
0
11
-7.6007575757576262
21
3.1705155400537421
31
1.553069907153867e-29
0
LINE
5
105
100
AcDbEntity
8
0
100
AcDbLine
10
-7.6007575757576262
20
3.1705155400537421
30
0
11
-8.650757575757666
21
3.170515540053751
31
-5.4385242937875636e-31
0
LINE
5
106
100
AcDbEntity
8
0
100
AcDbLine
10
-8.650757575757666
20
3.170515540053751
30
0
11
-8.650757575757666
21
9.6257913201598022
31
0
0
LINE
5
107
100
AcDbEntity
8
0
100
AcDbLine
10
-8.650757575757666
20
9.6257913201598022
30
0
11
-7.6007575757576262
21
9.6257913201597933
31
5.4385242937875636e-31
0
LINE
5
108
100
AcDbEntity
8
0
100
AcDbLine
10
8.650757575757666
20
3.1705155400537777
30
0
11
7.6007575757576262
21
3.1705155400537777
31
-4.9130527506863951e-51
0
LINE
5
109
100
AcDbEntity
8
0
100
AcDbLine
10
7.6007575757576262
20
3.1705155400537777
30
0
11
7.6007575757576262
21
9.6257913201597756
31
0
0
LINE
5
110
100
AcDbEntity
8
0
100
AcDbLine
10
7.6007575757576262
20
9.6257913201597756
30
0
11
8.650757575757666
21
9.6257913201597756
31
-5.2371083953414567e-65
0
LINE
5
111
100
AcDbEntity
8
0
100
AcDbLine
10
8.650757575757666
20
9.6257913201597756
30
0
11
8.650757575757666
21
3.1705155400537777
31
0
0
LINE
5
112
100
AcDbEntity
8
0
100
AcDbLine
10
11.994696969696861
20
9.9750000000000227
30
-1.4210854715202004e-13
11
18.308333333333238
21
9.9750000000000227
31
-1.4210854715202004e-13
0
LINE
5
113
100
AcDbEntity
8
0
100
AcDbLine
10
18.308333333333309
20
9.9750000000000227
30
-7.1054273576010019e-14
11
18.30833333333338
21
4.5704545454545187
31
-7.1054273576010019e-14
0
LINE
5
114
100
AcDbEntity
8
0
100
AcDbLine
10
18.30833333333338
20
4.5704545454545187
30
-1.4210854715202004e-13
11
11.994696969696932
21
4.5704545454545187
31
-1.4210854715202004e-13
0
LINE
5
115
100
AcDbEntity
8
0
100
AcDbLine
10
11.994696969696861
20
4.5704545454545187
30
-1.4210854715202004e-13
11
11.994696969696861
21
9.9750000000000227
31
-1.4210854715202004e-13
0
LINE
5
116
100
AcDbEntity
8
0
100
AcDbLine
10
18.30833333333338
20
-8.1568181818181706
30
-1.4210854715202004e-13
11
11.994696969697003
21
-8.1568181818181706
31
-1.4210854715202004e-13
0
LINE
5
117
100
AcDbEntity
8
0
100
AcDbLine
10
11.994696969697003
20
-8.1568181818181706
30
0
11
11.994696969696932
21
-2.7522727272727199
31
1.6023737137301802e-30
0
LINE
5
118
100
AcDbEntity
8
0
100
AcDbLine
10
11.994696969696861
20
-2.7522727272727199
30
-1.4210854715202004e-13
11
18.308333333333238
21
-2.7522727272727199
31
-1.4210854715202004e-13
0
LINE
5
119
100
AcDbEntity
8
0
100
AcDbLine
10
18.308333333333309
20
-2.7522727272727199
30
-7.1054273576010019e-14
11
18.30833333333338
21
-8.1568181818181706
31
-7.1054273576010019e-14
0
LINE
5
120
100
AcDbEntity
8
0
100
AcDbLine
10
-4.7045496378284213
20
-8.1568181818181706
30
-1.4210854715202004e-13
11
-4.7045496378285634
21
-2.7522727272727199
31
-1.4210854715202004e-13
0
LINE
5
121
100
AcDbEntity
8
0
100
AcDbLine
10
-4.7045496378285634
20
-2.7522727272727199
30
-7.1054273576010019e-14
11
4.336359453080548
21
-2.7522727272727199
31
-7.1609385088322597e-14
0
LINE
5
122
100
AcDbEntity
8
0
100
AcDbLine
10
4.3363594530804761
20
-2.7522727272727199
30
0
11
4.3363594530806182
21
-8.1568181818181706
31
-1.7379591818150416e-29
0
LINE
5
123
100
AcDbEntity
8
0
100
AcDbLine
10
4.3363594530806893
20
-8.1568181818181706
30
-7.1054273576010019e-14
11
-4.7045496378284213
21
-8.1568181818181706
31
-7.1054273576010019e-14
0
LINE
5
124
100
AcDbEntity
8
0
100
AcDbLine
10
-4.7045496378285634
20
9.9749999999999961
30
-7.1054273576010019e-14
11
4.336359453080548
21
9.9749999999999961
31
-7.1609385088322597e-14
0
LINE
5
125
100
AcDbEntity
8
0
100
AcDbLine
10
4.3363594530804761
20
9.9749999999999961
30
0
11
4.3363594530806182
21
4.5704545454545453
31
-1.7379591818150416e-29
0
LINE
5
126
100
AcDbEntity
8
0
100
AcDbLine
10
4.3363594530806893
20
4.5704545454545453
30
-7.1054273576010019e-14
11
-4.7045496378284213
21
4.5704545454545453
31
-7.1054273576010019e-14
0
LINE
5
127
100
AcDbEntity
8
0
100
AcDbLine
10
-4.7045496378284213
20
4.5704545454545453
30
-1.4210854715202004e-13
11
-4.7045496378285634
21
9.9749999999999961
31
-1.4210854715202004e-13
0
LINE
5
128
100
AcDbEntity
8
0
100
AcDbLine
10
8.650757575757666
20
-9.4521274862442528
30
0
11
7.6007575757576262
21
-9.4521274862442528
31
-4.7610849017426326e-51
0
LINE
5
129
100
AcDbEntity
8
0
100
AcDbLine
10
7.6007575757576262
20
-9.4521274862442528
30
0
11
7.6007575757576262
21
-3.8551556060583092
31
0
0
LINE
5
130
100
AcDbEntity
8
0
100
AcDbLine
10
7.6007575757576262
20
-3.8551556060583092
30
0
11
8.650757575757666
21
-3.8551556060583092
31
-5.2371083953414567e-65
0
LINE
5
131
100
AcDbEntity
8
0
100
AcDbLine
10
8.650757575757666
20
-3.8551556060583092
30
0
11
8.650757575757666
21
-9.4521274862442528
31
6.1629758220391547e-32
0
LINE
5
132
100
AcDbEntity
8
0
100
AcDbLine
10
-11.994696969696932
20
-8.1568181818181706
30
0
11
-18.30833333333338
21
-8.1568181818181706
31
-8.6028505176078281e-49
0
LINE
5
133
100
AcDbEntity
8
0
100
AcDbLine
10
-18.308333333333451
20
-8.1568181818181706
30
-1.4210854715202004e-13
11
-18.308333333333522
21
-2.7522727272727199
31
-1.4210854715202004e-13
0
LINE
5
134
100
AcDbEntity
8
0
100
AcDbLine
10
-18.308333333333451
20
-2.7522727272727199
30
-7.1054273576010019e-14
11
-11.994696969697003
21
-2.7522727272727199
31
-7.1054273576010019e-14
0
LINE
5
135
100
AcDbEntity
8
0
100
AcDbLine
10
-11.994696969697074
20
-2.7522727272727199
30
-7.1054273576010019e-14
11
-11.994696969697003
21
-8.1568181818181706
31
-7.1054273576010006e-14
0
LINE
5
136
100
AcDbEntity
8
0
100
AcDbLine
10
-11.994696969697074
20
9.9749999999999961
30
-7.1054273576010019e-14
11
-11.994696969697003
21
4.5704545454545453
31
-7.1054273576010006e-14
0
LINE
5
137
100
AcDbEntity
8
0
100
AcDbLine
10
-11.994696969696932
20
4.5704545454545453
30
0
11
-18.30833333333338
21
4.5704545454545453
31
-8.6028505176078281e-49
0
LINE
5
138
100
AcDbEntity
8
0
100
AcDbLine
10
-18.308333333333451
20
4.5704545454545453
30
-1.4210854715202004e-13
11
-18.308333333333522
21
9.9749999999999961
31
-1.4210854715202004e-13
0
LINE
5
139
100
AcDbEntity
8
0
100
AcDbLine
10
-18.308333333333451
20
9.9749999999999961
30
-7.1054273576010019e-14
11
-11.994696969697003
21
9.9749999999999961
31
-7.1054273576010019e-14
0
LINE
5
140
100
AcDbEntity
8
0
100
AcDbLine
10
22.75227272727264
20
11.652272727272726
30
0
11
10.517395012352893
21
11.652272727272726
31
5.6979739341315045e-62
0
LINE
5
141
100
AcDbEntity
8
0
100
AcDbLine
10
10.517395012352821
20
11.652272727272726
30
-7.1054273576010019e-14
11
10.517395012352821
21
12.752272727272729
31
-7.1054273576010019e-14
0
LINE
5
142
100
AcDbEntity
8
0
100
AcDbLine
10
10.51739501235275
20
12.752272727272729
30
-2.1316282072803006e-13
11
-4.0625895851095351
21
12.752272727272729
31
-2.120525977034049e-13
0
LINE
5
143
100
AcDbEntity
8
0
100
AcDbLine
10
-4.062589585109464
20
12.752272727272729
30
0
11
-4.062589585109464
21
11.652272727272726
31
-5.3926038442842604e-32
0
LINE
5
144
100
AcDbEntity
8
0
100
AcDbLine
10
-4.062589585109464
20
11.652272727272726
30
0
11
-16.188947042208778
21
11.652272727272726
31
4.0680634779019645e-48
0
LINE
5
145
100
AcDbEntity
8
0
100
AcDbLine
10
-16.188947042208781
20
11.652272727272726
30
0
11
-16.188947042208781
21
12.752272727272729
31
0
0
LINE
5
146
100
AcDbEntity
8
0
100
AcDbLine
10
-16.188947042208781
20
12.752272727272729
30
0
11
-22.752272727272853
21
12.752272727272729
31
-2.1948928521195647e-50
0
LINE
5
147
100
AcDbEntity
8
0
100
AcDbLine
10
-22.752272727272853
20
12.752272727272729
30
0
11
-22.752272727272782
21
8.9749999999999908
31
9.8607613152626476e-31
0
LINE
5
148
100
AcDbEntity
8
0
100
AcDbLine
10
-22.752272727272782
20
8.9749999999999908
30
-7.1054273576010019e-14
11
-21.652272727272788
21
8.9749999999999908
31
-7.1123662515049091e-14
0
LINE
5
149
100
AcDbEntity
8
0
100
AcDbLine
10
-21.652272727272788
20
8.9749999999999908
30
-7.1054273576010019e-14
11
-21.652272727272788
21
-8.9749999999999908
31
-7.1054273576010019e-14
0
LINE
5
150
100
AcDbEntity
8
0
100
AcDbLine
10
-21.652272727272788
20
-8.9749999999999908
30
-7.1054273576010019e-14
11
-22.752272727272782
21
-8.9749999999999908
31
-7.0984884636970946e-14
0
LINE
5
151
100
AcDbEntity
8
0
100
AcDbLine
10
-22.752272727272782
20
-8.9749999999999908
30
-7.1054273576010019e-14
11
-22.752272727272782
21
-12.752272727272729
31
-7.1054273576010019e-14
0
LINE
5
152
100
AcDbEntity
8
0
100
AcDbLine
10
-22.752272727272782
20
-12.752272727272729
30
-7.1054273576010019e-14
11
-15.507042167452809
21
-12.752272727272729
31
-7.1054273576010019e-14
0
LINE
5
153
100
AcDbEntity
8
0
100
AcDbLine
10
-15.507042167452809
20
-12.752272727272729
30
-7.1054273576010019e-14
11
-15.507042167452809
21
-11.652272727272726
31
-7.1054273576010019e-14
0
LINE
5
154
100
AcDbEntity
8
0
100
AcDbLine
10
-15.507042167452809
20
-11.652272727272726
30
-7.1054273576010019e-14
11
-7.2150804922441125
21
-11.652272727272726
31
-7.1054273576010019e-14
0
LINE
5
155
100
AcDbEntity
8
0
100
AcDbLine
10
-7.2150804922441836
20
-11.652272727272726
30
-7.1054273576010019e-14
11
-7.2150804922441836
21
-12.752272727272729
31
-7.1054273576010019e-14
0
LINE
5
156
100
AcDbEntity
8
0
100
AcDbLine
10
-7.2150804922441836
20
-12.752272727272729
30
-7.1054273576010019e-14
11
8.0842251095695161
21
-12.752272727272729
31
-7.1054273576010019e-14
0
LINE
5
157
100
AcDbEntity
8
0
100
AcDbLine
10
8.0842251095695872
20
-12.752272727272729
30
-7.1054273576010019e-14
11
8.0842251095695161
21
-11.652272727272726
31
-7.1054273576010031e-14
0
LINE
5
158
100
AcDbEntity
8
0
100
AcDbLine
10
8.0842251095695161
20
-11.652272727272726
30
0
11
14.27021666561977
21
-11.652272727272726
31
-1.8921225478525449e-49
0
LINE
5
159
100
AcDbEntity
8
0
100
AcDbLine
10
14.270216665619841
20
-11.652272727272726
30
-7.1054273576010019e-14
11
14.270216665619841
21
-12.752272727272729
31
-7.1054273576010019e-14
0
LINE
5
160
100
AcDbEntity
8
0
100
AcDbLine
10
14.27021666561977
20
-12.752272727272729
30
-7.1054273576010019e-14
11
21.652533317448075
21
-12.752272727272729
31
-7.1609385088322597e-14
0
LINE
5
161
100
AcDbEntity
8
0
100
AcDbLine
10
21.652533317448075
20
-12.752272727272729
30
0
11
21.652533317448146
21
-11.652272727272726
31
-3.9057859272173143e-30
0
LINE
5
162
100
AcDbEntity
8
0
100
AcDbLine
10
21.652533317448146
20
-11.652272727272726
30
0
11
22.75227272727264
21
-11.652272727272726
31
-1.1825765923945227e-49
0
LINE
5
163
100
AcDbEntity
8
0
100
AcDbLine
10
22.75227272727264
20
-11.652272727272726
30
0
11
22.752272727272569
21
-8.9749999999999908
31
2.9274135154685985e-30
0
LINE
5
164
100
AcDbEntity
8
0
100
AcDbLine
10
22.75227272727264
20
-8.9749999999999908
30
0
11
21.652272727272646
21
-8.9749999999999908
31
6.9388939039072284e-17
0
LINE
5
165
100
AcDbEntity
8
0
100
AcDbLine
10
21.652272727272575
20
-8.9749999999999908
30
-7.1054273576010019e-14
11
21.652272727272575
21
8.9749999999999908
31
-7.1054273576010006e-14
0
LINE
5
166
100
AcDbEntity
8
0
100
AcDbLine
10
21.652272727272575
20
8.9749999999999908
30
-7.1054273576010019e-14
11
22.752272727272569
21
8.9749999999999908
31
-7.1123662515049091e-14
0
LINE
5
167
100
AcDbEntity
8
0
100
AcDbLine
10
22.75227272727264
20
8.9749999999999908
30
0
11
22.75227272727264
21
11.652272727272726
31
-1.5407439555097887e-31
0
ENDSEC
0
SECTION
2
OBJECTS
0
DICTIONARY
5
C
100
AcDbDictionary
3
ACAD_GROUP
350
D
3
ACAD_MLINESTYLE
350
17
0
DICTIONARY
5
D
100
AcDbDictionary
0
DICTIONARY
5
1A
330
C
100
AcDbDictionary
0
DICTIONARY
5
17
100
AcDbDictionary
0
ENDSEC
0
EOF
