0
SECTION
2
HEADER
9
$INSUNITS
70
4
9
$ACADVER
1
AC1014
9
$HANDSEED
5
FFFF
0
ENDSEC
0
SECTION
2
TABLES
0
TABLE
2
VPORT
5
8
100
AcDbSymbolTable
0
ENDTAB
0
TABLE
2
LTYPE
5
5
100
AcDbSymbolTable
0
LTYPE
5
14
100
AcDbSymbolTableRecord
100
AcDbLinetypeTableRecord
2
BYBLOCK
70
0
0
LTYPE
5
15
100
AcDbSymbolTableRecord
100
AcDbLinetypeTableRecord
2
BYLAYER
70
0
0
ENDTAB
0
TABLE
2
LAYER
5
2
100
AcDbSymbolTable
70
2
0
LAYER
5
50
100
AcDbSymbolTableRecord
100
AcDbLayerTableRecord
2
0
70
0
6
CONTINUOUS
0
ENDTAB
0
TABLE
2
STYLE
5
3
100
AcDbSymbolTable
70
1
0
STYLE
5
11
100
AcDbSymbolTableRecord
100
AcDbTextStyleTableRecord
2
STANDARD
70
0
0
ENDTAB
0
TABLE
2
VIEW
5
6
100
AcDbSymbolTable
70
0
0
ENDTAB
0
TABLE
2
UCS
5
7
100
AcDbSymbolTable
70
0
0
ENDTAB
0
TABLE
2
APPID
5
9
100
AcDbSymbolTable
70
2
0
APPID
5
12
100
AcDbSymbolTableRecord
100
AcDbRegAppTableRecord
2
ACAD
70
0
0
ENDTAB
0
TABLE
2
DIMSTYLE
5
A
100
AcDbSymbolTable
70
1
0
ENDTAB
0
TABLE
2
BLOCK_RECORD
5
1
100
AcDbSymbolTable
70
1
0
BLOCK_RECORD
5
1F
100
AcDbSymbolTableRecord
100
AcDbBlockTableRecord
2
*MODEL_SPACE
0
BLOCK_RECORD
5
1B
100
AcDbSymbolTableRecord
100
AcDbBlockTableRecord
2
*PAPER_SPACE
0
ENDTAB
0
ENDSEC
0
SECTION
2
BLOCKS
0
BLOCK
5
20
100
AcDbEntity
100
AcDbBlockBegin
2
*MODEL_SPACE
0
ENDBLK
5
21
100
AcDbEntity
100
AcDbBlockEnd
0
BLOCK
5
1C
100
AcDbEntity
100
AcDbBlockBegin
2
*PAPER_SPACE
0
ENDBLK
5
1D
100
AcDbEntity
100
AcDbBlockEnd
0
ENDSEC
0
SECTION
2
ENTITIES
0
LINE
5
100
100
AcDbEntity
8
0
100
AcDbLine
10
-11.759589860151962
20
23.039427683796106
30
7.1054273576010019e-14
11
-12.859589860151956
21
23.039427683796116
31
7.1054273576010031e-14
0
LINE
5
101
100
AcDbEntity
8
0
100
AcDbLine
10
-12.859589860152028
20
23.039427683796116
30
7.1054273576010019e-14
11
-12.859589860152099
21
26.115909090909064
31
7.1054273576010006e-14
0
LINE
5
102
100
AcDbEntity
8
0
100
AcDbLine
10
-12.859589860151885
20
26.115909090909064
30
0
11
-14.409589860151897
21
26.115909090909071
31
1.776114714562881e-29
0
LINE
5
103
100
AcDbEntity
8
0
100
AcDbLine
10
-14.409589860151897
20
26.115909090909071
30
0
11
-14.40958717097196
21
0.63673031299447125
31
8.8173113300996586e-23
0
SPLINE
5
104
100
AcDbEntity
8
0
100
AcDbSpline
70
0
71
3
72
26
73
22
74
0
42
0.000000001
43
0.0000000001
44
0.0000000001
40
0
40
0
40
0
40
0
40
0.19772226524277642
40
0.19772226524277642
40
0.19772226524277642
40
0.34218069907786614
40
0.34218069907786614
40
0.34218069907786614
40
0.50663552430839953
40
0.50663552430839953
40
0.50663552430839953
40
0.64022655470206757
40
0.64022655470206757
40
0.64022655470206757
40
0.81457807168273177
40
0.81457807168273177
40
0.81457807168273177
40
1
40
1
40
1
40
1.0008485459006446
40
1.0008485459006446
40
1.0008485459006446
40
1.0008485459006446
10
-14.409587170972173
20
0.63673031299447125
30
0
10
-14.427236892635378
20
-0.56649765731379809
30
0
10
-13.888124397858377
20
-1.8736003881049967
30
7.1054273576010019e-14
10
-12.663244333379353
20
-3.0575603282441044
30
0
10
-11.768331180663623
20
-3.9225767110271814
30
0
10
-10.486294724004068
20
-4.6999324880698401
30
0
10
-9.1281016530304981
20
-5.5051313426085668
30
7.1054273576010019e-14
10
-7.5819032194295488
20
-6.4217883586340774
30
0
10
-6.0074636013168714
20
-7.4176259217018625
30
-7.1054273576010019e-14
10
-5.0461093763284737
20
-8.8027478952007776
30
0
10
-4.2651757593947082
20
-9.9279193299777226
30
-7.1054273576010019e-14
10
-3.9045211640955557
20
-11.322627259940422
30
7.1054273576010019e-14
10
-3.8254431020298796
20
-12.868119867414617
30
0
10
-3.7222372203145682
20
-14.885163824643497
30
0
10
-4.0036828835049221
20
-17.094364921599158
30
0
10
-4.3526911146265945
20
-19.267270641652278
30
0
10
-4.7238595468480327
20
-21.57814453389696
30
0
10
-5.1883827658588189
20
-23.862013213723383
30
0
10
-5.6927215710080503
20
-26.085378694003811
30
0
10
-5.6950300329670966
20
-26.095555492972235
30
0
10
-5.6973384949260009
20
-26.105732291940662
30
0
10
-5.6996469568849051
20
-26.115909090909195
30
0
0
LINE
5
105
100
AcDbEntity
8
0
100
AcDbLine
10
-5.6996469568849051
20
-26.115909090909192
30
0
11
14.413137412575168
21
-26.115909090909078
31
1.1102230246253786e-15
0
LINE
5
106
100
AcDbEntity
8
0
100
AcDbLine
10
14.413137412575026
20
-26.115909090909078
30
0
11
14.413137412575239
21
0.66136363636359441
31
7.8886090522101181e-30
0
LINE
5
107
100
AcDbEntity
8
0
100
AcDbLine
10
14.413137412575381
20
0.66136363636359441
30
0
11
7.2144291316149634
21
0.66136363636361217
31
3.552229429125762e-29
0
LINE
5
108
100
AcDbEntity
8
0
100
AcDbLine
10
7.2144291316148212
20
0.66136363636361217
30
7.1054273576010019e-14
11
7.2144291316148212
21
1.7613636363636065
31
7.1054273576010019e-14
0
LINE
5
109
100
AcDbEntity
8
0
100
AcDbLine
10
7.2144291316148212
20
1.7613636363636065
30
7.1054273576010019e-14
11
-2.8355708683849912
21
1.7613636363635976
31
7.1054273576010006e-14
0
LINE
5
110
100
AcDbEntity
8
0
100
AcDbLine
10
-2.8355708683849912
20
1.7613636363635976
30
0
11
-2.8355708683849201
21
0.66136363636361217
31
-1.7256332301709633e-30
0
LINE
5
111
100
AcDbEntity
8
0
100
AcDbLine
10
-2.8355708683849912
20
0.66136363636361217
30
0
11
-12.859589860152099
21
0.66136363636362105
31
1.7761147145628807e-29
0
LINE
5
112
100
AcDbEntity
8
0
100
AcDbLine
10
-12.859589860152028
20
0.66136363636362105
30
0
11
-12.859589860152028
21
3.8615088773920814
31
0
0
LINE
5
113
100
AcDbEntity
8
0
100
AcDbLine
10
-12.859589860152028
20
3.8615088773920814
30
0
11
-11.759589860152033
21
3.8615088773920725
31
-1.776114714562881e-29
0
LINE
5
114
100
AcDbEntity
8
0
100
AcDbLine
10
-11.759589860151962
20
3.8615088773920725
30
7.1054273576010019e-14
11
-11.759589860151891
21
9.5584807575780406
31
7.1054273576010019e-14
0
LINE
5
115
100
AcDbEntity
8
0
100
AcDbLine
10
-11.759589860151962
20
9.5584807575780406
30
7.1054273576010019e-14
11
-12.859589860151956
21
9.5584807575780406
31
7.1123662515049091e-14
0
LINE
5
116
100
AcDbEntity
8
0
100
AcDbLine
10
-12.859589860151885
20
9.5584807575780406
30
0
11
-12.859589860151956
21
16.484151903690105
31
3.944304526105059e-30
0
LINE
5
117
100
AcDbEntity
8
0
100
AcDbLine
10
-12.859589860151885
20
16.484151903690105
30
0
11
-11.759589860151891
21
16.484151903690083
31
-6.9388939039107807e-17
0
LINE
5
118
100
AcDbEntity
8
0
100
AcDbLine
10
-11.759589860151962
20
16.484151903690083
30
7.1054273576010019e-14
11
-11.759589860151891
21
23.039427683796106
31
7.1054273576010019e-14
0
ENDSEC
0
SECTION
2
OBJECTS
0
DICTIONARY
5
C
100
AcDbDictionary
3
ACAD_GROUP
350
D
3
ACAD_MLINESTYLE
350
17
0
DICTIONARY
5
D
100
AcDbDictionary
0
DICTIONARY
5
1A
330
C
100
AcDbDictionary
0
DICTIONARY
5
17
100
AcDbDictionary
0
ENDSEC
0
EOF
