0
SECTION
2
HEADER
9
$INSUNITS
70
4
9
$ACADVER
1
AC1014
9
$HANDSEED
5
FFFF
0
ENDSEC
0
SECTION
2
TABLES
0
TABLE
2
VPORT
5
8
100
AcDbSymbolTable
0
ENDTAB
0
TABLE
2
LTYPE
5
5
100
AcDbSymbolTable
0
LTYPE
5
14
100
AcDbSymbolTableRecord
100
AcDbLinetypeTableRecord
2
BYBLOCK
70
0
0
LTYPE
5
15
100
AcDbSymbolTableRecord
100
AcDbLinetypeTableRecord
2
BYLAYER
70
0
0
ENDTAB
0
TABLE
2
LAYER
5
2
100
AcDbSymbolTable
70
2
0
LAYER
5
50
100
AcDbSymbolTableRecord
100
AcDbLayerTableRecord
2
0
70
0
6
CONTINUOUS
0
ENDTAB
0
TABLE
2
STYLE
5
3
100
AcDbSymbolTable
70
1
0
STYLE
5
11
100
AcDbSymbolTableRecord
100
AcDbTextStyleTableRecord
2
STANDARD
70
0
0
ENDTAB
0
TABLE
2
VIEW
5
6
100
AcDbSymbolTable
70
0
0
ENDTAB
0
TABLE
2
UCS
5
7
100
AcDbSymbolTable
70
0
0
ENDTAB
0
TABLE
2
APPID
5
9
100
AcDbSymbolTable
70
2
0
APPID
5
12
100
AcDbSymbolTableRecord
100
AcDbRegAppTableRecord
2
ACAD
70
0
0
ENDTAB
0
TABLE
2
DIMSTYLE
5
A
100
AcDbSymbolTable
70
1
0
ENDTAB
0
TABLE
2
BLOCK_RECORD
5
1
100
AcDbSymbolTable
70
1
0
BLOCK_RECORD
5
1F
100
AcDbSymbolTableRecord
100
AcDbBlockTableRecord
2
*MODEL_SPACE
0
BLOCK_RECORD
5
1B
100
AcDbSymbolTableRecord
100
AcDbBlockTableRecord
2
*PAPER_SPACE
0
ENDTAB
0
ENDSEC
0
SECTION
2
BLOCKS
0
BLOCK
5
20
100
AcDbEntity
100
AcDbBlockBegin
2
*MODEL_SPACE
0
ENDBLK
5
21
100
AcDbEntity
100
AcDbBlockEnd
0
BLOCK
5
1C
100
AcDbEntity
100
AcDbBlockBegin
2
*PAPER_SPACE
0
ENDBLK
5
1D
100
AcDbEntity
100
AcDbBlockEnd
0
ENDSEC
0
SECTION
2
ENTITIES
0
LINE
5
100
100
AcDbEntity
8
0
100
AcDbLine
10
-11.759589860151607
20
16.484151903690119
30
0
11
-11.759589860151607
21
23.039427683796092
31
6.1629758220391547e-32
0
LINE
5
101
100
AcDbEntity
8
0
100
AcDbLine
10
-11.759589860151607
20
23.039427683796092
30
0
11
-12.859589860151814
21
23.039427683796099
31
-5.4385242937872483e-31
0
LINE
5
102
100
AcDbEntity
8
0
100
AcDbLine
10
-12.859589860152028
20
23.039427683796099
30
0
11
-12.859589860152028
21
26.115909090909053
31
-3.0814879110195774e-32
0
LINE
5
103
100
AcDbEntity
8
0
100
AcDbLine
10
-12.859589860152028
20
26.115909090909053
30
0
11
-14.409589860152039
21
26.115909090909053
31
1.9970709509910524e-47
0
LINE
5
104
100
AcDbEntity
8
0
100
AcDbLine
10
-14.409589860151897
20
26.115909090909053
30
0
11
-14.409587170972102
21
0.63673031299450678
31
1.5913820463515734e-23
0
SPLINE
5
105
100
AcDbEntity
8
0
100
AcDbSpline
70
0
71
3
72
26
73
22
74
0
42
0.000000001
43
0.0000000001
44
0.0000000001
40
0
40
0
40
0
40
0
40
0.1977222652465139
40
0.1977222652465139
40
0.1977222652465139
40
0.34218069908343884
40
0.34218069908343884
40
0.34218069908343884
40
0.50663552431257908
40
0.50663552431257908
40
0.50663552431257908
40
0.64022655470986767
40
0.64022655470986767
40
0.64022655470986767
40
0.81457807169813101
40
0.81457807169813101
40
0.81457807169813101
40
1
40
1
40
1
40
1.0008485459006404
40
1.0008485459006404
40
1.0008485459006404
40
1.0008485459006404
10
-14.409587170972031
20
0.63673031299450678
30
0
10
-14.427236892637083
20
-0.5664976573366598
30
0
10
-13.888124397836918
20
-1.8736003881541841
30
7.1054273576010019e-14
10
-12.663244333309791
20
-3.0575603283112152
30
0
10
-11.768331180564573
20
-3.9225767111020282
30
0
10
-10.486294723866578
20
-4.6999324881488347
30
0
10
-9.1281016528731129
20
-5.505131342701719
30
0
10
-7.5819032192820401
20
-6.4217883587239388
30
0
10
-6.007463601206311
20
-7.4176259218006368
30
0
10
-5.0461093762554299
20
-8.8027478953063643
30
7.1054273576010019e-14
10
-4.2651757593242223
20
-9.9279193301288693
30
0
10
-3.9045211640547706
20
-11.322627260153855
30
0
10
-3.8254431020158819
20
-12.868119867685337
30
0
10
-3.7222372203335397
20
-14.885163825022234
30
0
10
-4.0036828835653182
20
-17.094364922082601
30
0
10
-4.352691114718894
20
-19.267270642228034
30
0
10
-4.7238595469275424
20
-21.578144534278255
30
0
10
-5.1883827659013093
20
-23.862013213908
30
0
10
-5.6927215710081214
20
-26.085378694003829
30
0
10
-5.6950300329670256
20
-26.095555492972224
30
0
10
-5.6973384949258588
20
-26.105732291940612
30
0
10
-5.6996469568849761
20
-26.115909090909053
30
0
0
LINE
5
106
100
AcDbEntity
8
0
100
AcDbLine
10
-5.6996469568849761
20
-26.115909090909053
30
0
11
14.41313741257531
21
-26.115909090909053
31
1.3596310734468092e-31
0
LINE
5
107
100
AcDbEntity
8
0
100
AcDbLine
10
14.413137412575452
20
-26.115909090909053
30
0
11
14.413137412575381
21
0.66136363636357665
31
1.9721522630525295e-30
0
LINE
5
108
100
AcDbEntity
8
0
100
AcDbLine
10
14.413137412575239
20
0.66136363636357665
30
0
11
7.2144291316149634
21
0.66136363636358553
31
-5.4385242937872465e-31
0
LINE
5
109
100
AcDbEntity
8
0
100
AcDbLine
10
7.2144291316151055
20
0.66136363636358553
30
0
11
7.2144291316151055
21
1.7613636363635798
31
4.622231866529366e-32
0
LINE
5
110
100
AcDbEntity
8
0
100
AcDbLine
10
7.2144291316151055
20
1.7613636363635798
30
0
11
-2.8355708683847802
21
1.7613636363635798
31
-5.5511151231257827e-16
0
LINE
5
111
100
AcDbEntity
8
0
100
AcDbLine
10
-2.8355708683849201
20
1.7613636363635798
30
0
11
-2.8355708683848491
21
0.66136363636358553
31
3.405044141676633e-30
0
LINE
5
112
100
AcDbEntity
8
0
100
AcDbLine
10
-2.835570868384707
20
0.66136363636358553
30
0
11
-12.859589860151672
21
0.66136363636359441
31
-5.4385242937872465e-31
0
LINE
5
113
100
AcDbEntity
8
0
100
AcDbLine
10
-12.859589860151672
20
0.66136363636359441
30
0
11
-12.859589860151814
21
3.861508877392108
31
6.7792734042430702e-31
0
LINE
5
114
100
AcDbEntity
8
0
100
AcDbLine
10
-12.859589860152028
20
3.861508877392108
30
0
11
-11.75958986015182
21
3.8615088773920991
31
5.4385242937872483e-31
0
LINE
5
115
100
AcDbEntity
8
0
100
AcDbLine
10
-11.759589860151607
20
3.8615088773920991
30
0
11
-11.759589860151607
21
9.558480757578014
31
0
0
LINE
5
116
100
AcDbEntity
8
0
100
AcDbLine
10
-11.759589860151607
20
9.558480757578014
30
0
11
-12.859589860151814
21
9.558480757578014
31
1.4727720259022743e-47
0
LINE
5
117
100
AcDbEntity
8
0
100
AcDbLine
10
-12.859589860152028
20
9.558480757578014
30
0
11
-12.859589860152028
21
16.48415190369014
31
6.1629758220391547e-32
0
LINE
5
118
100
AcDbEntity
8
0
100
AcDbLine
10
-12.859589860152028
20
16.48415190369014
30
0
11
-11.75958986015182
21
16.484151903690119
31
1.0877048587574497e-30
0
ENDSEC
0
SECTION
2
OBJECTS
0
DICTIONARY
5
C
100
AcDbDictionary
3
ACAD_GROUP
350
D
3
ACAD_MLINESTYLE
350
17
0
DICTIONARY
5
D
100
AcDbDictionary
0
DICTIONARY
5
1A
330
C
100
AcDbDictionary
0
DICTIONARY
5
17
100
AcDbDictionary
0
ENDSEC
0
EOF
