0
SECTION
2
HEADER
9
$INSUNITS
70
4
9
$ACADVER
1
AC1014
9
$HANDSEED
5
FFFF
0
ENDSEC
0
SECTION
2
TABLES
0
TABLE
2
VPORT
5
8
100
AcDbSymbolTable
0
ENDTAB
0
TABLE
2
LTYPE
5
5
100
AcDbSymbolTable
0
LTYPE
5
14
100
AcDbSymbolTableRecord
100
AcDbLinetypeTableRecord
2
BYBLOCK
70
0
0
LTYPE
5
15
100
AcDbSymbolTableRecord
100
AcDbLinetypeTableRecord
2
BYLAYER
70
0
0
ENDTAB
0
TABLE
2
LAYER
5
2
100
AcDbSymbolTable
70
2
0
LAYER
5
50
100
AcDbSymbolTableRecord
100
AcDbLayerTableRecord
2
0
70
0
6
CONTINUOUS
0
ENDTAB
0
TABLE
2
STYLE
5
3
100
AcDbSymbolTable
70
1
0
STYLE
5
11
100
AcDbSymbolTableRecord
100
AcDbTextStyleTableRecord
2
STANDARD
70
0
0
ENDTAB
0
TABLE
2
VIEW
5
6
100
AcDbSymbolTable
70
0
0
ENDTAB
0
TABLE
2
UCS
5
7
100
AcDbSymbolTable
70
0
0
ENDTAB
0
TABLE
2
APPID
5
9
100
AcDbSymbolTable
70
2
0
APPID
5
12
100
AcDbSymbolTableRecord
100
AcDbRegAppTableRecord
2
ACAD
70
0
0
ENDTAB
0
TABLE
2
DIMSTYLE
5
A
100
AcDbSymbolTable
70
1
0
ENDTAB
0
TABLE
2
BLOCK_RECORD
5
1
100
AcDbSymbolTable
70
1
0
BLOCK_RECORD
5
1F
100
AcDbSymbolTableRecord
100
AcDbBlockTableRecord
2
*MODEL_SPACE
0
BLOCK_RECORD
5
1B
100
AcDbSymbolTableRecord
100
AcDbBlockTableRecord
2
*PAPER_SPACE
0
ENDTAB
0
ENDSEC
0
SECTION
2
BLOCKS
0
BLOCK
5
20
100
AcDbEntity
100
AcDbBlockBegin
2
*MODEL_SPACE
0
ENDBLK
5
21
100
AcDbEntity
100
AcDbBlockEnd
0
BLOCK
5
1C
100
AcDbEntity
100
AcDbBlockBegin
2
*PAPER_SPACE
0
ENDBLK
5
1D
100
AcDbEntity
100
AcDbBlockEnd
0
ENDSEC
0
SECTION
2
ENTITIES
0
LINE
5
100
100
AcDbEntity
8
0
100
AcDbLine
10
-6.9567419769765593
20
1.0750000000000259
30
1.4210854715202004e-13
11
6.956741976975918
21
1.0750000000000259
31
1.4210854715202004e-13
0
LINE
5
101
100
AcDbEntity
8
0
100
AcDbLine
10
6.9567419769759908
20
1.0750000000000259
30
7.1054273576010019e-14
11
6.9567419769759198
21
0.024999999999977263
31
7.1054273576010031e-14
0
LINE
5
102
100
AcDbEntity
8
0
100
AcDbLine
10
6.9567419769759908
20
0.024999999999977263
30
7.1054273576010019e-14
11
-6.9567419769764154
21
0.024999999999977263
31
7.2164496600635175e-14
0
LINE
5
103
100
AcDbEntity
8
0
100
AcDbLine
10
-6.9567419769764882
20
0.024999999999977263
30
1.4210854715202004e-13
11
-6.9567419769764882
21
1.0750000000000259
31
1.4210854715202004e-13
0
LINE
5
104
100
AcDbEntity
8
0
100
AcDbLine
10
-21.652272727272788
20
-11.652272727272726
30
-7.1054273576010019e-14
11
21.652272727272425
21
-11.652272727272726
31
-7.3274719625260332e-14
0
LINE
5
105
100
AcDbEntity
8
0
100
AcDbLine
10
21.652272727272361
20
-11.652272727272726
30
7.1054273576010019e-14
11
21.652272727272432
21
11.652272727272726
31
7.1054273576009892e-14
0
LINE
5
106
100
AcDbEntity
8
0
100
AcDbLine
10
21.652272727272504
20
11.652272727272726
30
7.1054273576010019e-14
11
-21.652272727272212
21
11.652272727272726
31
7.1054273576010019e-14
0
LINE
5
107
100
AcDbEntity
8
0
100
AcDbLine
10
-21.652272727272077
20
11.652272727272726
30
0
11
-21.652272727272646
21
-11.652272727272726
31
1.2621774483536189e-28
0
LINE
5
108
100
AcDbEntity
8
0
100
AcDbLine
10
-15.726515151510512
20
9.225000000000021
30
7.1054273576010019e-14
11
-15.726515151510441
21
5.3204545454545205
31
7.1054273576010044e-14
0
LINE
5
109
100
AcDbEntity
8
0
100
AcDbLine
10
-15.726515151510441
20
5.3204545454545205
30
7.1054273576010019e-14
11
-17.55833333332852
21
5.3204545454545205
31
7.1054273576010019e-14
0
LINE
5
110
100
AcDbEntity
8
0
100
AcDbLine
10
-17.558333333328591
20
5.3204545454545205
30
0
11
-17.558333333328591
21
9.225000000000021
31
0
0
LINE
5
111
100
AcDbEntity
8
0
100
AcDbLine
10
-17.55833333332852
20
9.225000000000021
30
7.1054273576010019e-14
11
-15.726515151510512
21
9.225000000000021
31
7.0915495697931874e-14
0
LINE
5
112
100
AcDbEntity
8
0
100
AcDbLine
10
-3.9545496378244849
20
-3.5022727272727217
30
0
11
-0.75909509236936401
21
-3.5022727272727217
31
-8.3674736266474653e-44
0
LINE
5
113
100
AcDbEntity
8
0
100
AcDbLine
10
-0.75909509236936401
20
-3.5022727272727217
30
0
11
-0.75909509236929296
21
-7.4068181818181689
31
0
0
LINE
5
114
100
AcDbEntity
8
0
100
AcDbLine
10
-0.75909509236929296
20
-7.4068181818181689
30
7.1054273576010019e-14
11
-3.9545496378280371
21
-7.4068181818181689
31
7.1054273576010019e-14
0
LINE
5
115
100
AcDbEntity
8
0
100
AcDbLine
10
-3.9545496378279665
20
-7.4068181818181689
30
0
11
-3.9545496378244138
21
-3.5022727272727217
31
-1.8932661725304283e-28
0
LINE
5
116
100
AcDbEntity
8
0
100
AcDbLine
10
14.576515151519942
20
9.225000000000021
30
7.1054273576010019e-14
11
14.576515151520013
21
5.3204545454545205
31
7.1054273576010019e-14
0
LINE
5
117
100
AcDbEntity
8
0
100
AcDbLine
10
14.576515151519942
20
5.3204545454545205
30
0
11
12.744696969701721
21
5.3204545454545205
31
-4.6491485491423447e-44
0
LINE
5
118
100
AcDbEntity
8
0
100
AcDbLine
10
12.744696969701721
20
5.3204545454545205
30
7.1054273576010019e-14
11
12.744696969701721
21
9.225000000000021
31
7.1054273576010019e-14
0
LINE
5
119
100
AcDbEntity
8
0
100
AcDbLine
10
12.744696969701792
20
9.225000000000021
30
7.1054273576010019e-14
11
14.576515151519942
21
9.225000000000021
31
7.1054273576010019e-14
0
LINE
5
120
100
AcDbEntity
8
0
100
AcDbLine
10
-12.7446969696922
20
5.3204545454545471
30
0
11
-14.576515151510492
21
5.3204545454545471
31
-8.7723715154383086e-44
0
LINE
5
121
100
AcDbEntity
8
0
100
AcDbLine
10
-14.576515151510492
20
5.3204545454545471
30
0
11
-14.576515151510492
21
9.2249999999999943
31
0
0
LINE
5
122
100
AcDbEntity
8
0
100
AcDbLine
10
-14.576515151510492
20
9.2249999999999943
30
7.1054273576010019e-14
11
-12.7446969696922
21
9.2249999999999943
31
7.1054273576010019e-14
0
LINE
5
123
100
AcDbEntity
8
0
100
AcDbLine
10
-12.7446969696922
20
9.2249999999999943
30
0
11
-12.7446969696922
21
5.3204545454545471
31
0
0
LINE
5
124
100
AcDbEntity
8
0
100
AcDbLine
10
0.39090490763072694
20
-7.4068181818181955
30
0
11
0.39090490763072694
21
-3.502272727272695
31
-3.1554436208840472e-29
0
LINE
5
125
100
AcDbEntity
8
0
100
AcDbLine
10
0.39090490763072694
20
-3.502272727272695
30
7.1054273576010019e-14
11
3.5863594530853504
21
-3.502272727272695
31
7.0776717819853729e-14
0
LINE
5
126
100
AcDbEntity
8
0
100
AcDbLine
10
3.5863594530852794
20
-3.502272727272695
30
1.4210854715202004e-13
11
3.5863594530810161
21
-7.4068181818181955
31
1.4210854715202024e-13
0
LINE
5
127
100
AcDbEntity
8
0
100
AcDbLine
10
3.5863594530810872
20
-7.4068181818181955
30
0
11
0.39090490763072694
21
-7.4068181818181955
31
-2.7755575615628914e-16
0
LINE
5
128
100
AcDbEntity
8
0
100
AcDbLine
10
-12.7446969696922
20
-7.4068181818181955
30
7.1054273576010019e-14
11
-14.576515151510492
21
-7.4068181818181955
31
7.0915495697931874e-14
0
LINE
5
129
100
AcDbEntity
8
0
100
AcDbLine
10
-14.576515151510492
20
-7.4068181818181955
30
1.4210854715202004e-13
11
-14.576515151510421
21
-3.502272727272695
31
1.4210854715202006e-13
0
LINE
5
130
100
AcDbEntity
8
0
100
AcDbLine
10
-14.576515151510421
20
-3.502272727272695
30
1.4210854715202004e-13
11
-12.7446969696922
21
-3.502272727272695
31
1.4210854715202004e-13
0
LINE
5
131
100
AcDbEntity
8
0
100
AcDbLine
10
-12.7446969696922
20
-3.502272727272695
30
7.1054273576010019e-14
11
-12.7446969696922
21
-7.4068181818181955
31
7.1054273576010019e-14
0
LINE
5
132
100
AcDbEntity
8
0
100
AcDbLine
10
17.558333333338112
20
5.3204545454545471
30
1.4210854715202004e-13
11
15.726515151519962
21
5.3204545454545471
31
1.4210854715202004e-13
0
LINE
5
133
100
AcDbEntity
8
0
100
AcDbLine
10
15.726515151519962
20
5.3204545454545471
30
7.1054273576010019e-14
11
15.726515151519962
21
9.2249999999999943
31
7.1054273576010019e-14
0
LINE
5
134
100
AcDbEntity
8
0
100
AcDbLine
10
15.72651515151982
20
9.2249999999999943
30
0
11
17.55833333333797
21
9.2249999999999943
31
-1.3877787807814457e-16
0
LINE
5
135
100
AcDbEntity
8
0
100
AcDbLine
10
17.55833333333797
20
9.2249999999999943
30
0
11
17.55833333333797
21
5.3204545454545471
31
0
0
LINE
5
136
100
AcDbEntity
8
0
100
AcDbLine
10
3.5863594530852794
20
5.3204545454545471
30
1.4210854715202004e-13
11
0.39090490763065588
21
5.3204545454545471
31
1.4238610290817633e-13
0
LINE
5
137
100
AcDbEntity
8
0
100
AcDbLine
10
0.39090490763072694
20
5.3204545454545471
30
7.1054273576010019e-14
11
0.39090490763065588
21
9.2249999999999943
31
7.1054273576010019e-14
0
LINE
5
138
100
AcDbEntity
8
0
100
AcDbLine
10
0.39090490763072694
20
9.2249999999999943
30
7.1054273576010019e-14
11
3.5863594530853504
21
9.2249999999999943
31
7.1331829332166308e-14
0
LINE
5
139
100
AcDbEntity
8
0
100
AcDbLine
10
3.5863594530853504
20
9.2249999999999943
30
0
11
3.5863594530854215
21
5.3204545454545471
31
-3.1554436208840472e-29
0
LINE
5
140
100
AcDbEntity
8
0
100
AcDbLine
10
-17.558333333328449
20
-3.5022727272727217
30
1.4210854715202004e-13
11
-15.726515151510441
21
-3.5022727272727217
31
1.4210854715202004e-13
0
LINE
5
141
100
AcDbEntity
8
0
100
AcDbLine
10
-15.726515151510512
20
-3.5022727272727217
30
7.1054273576010019e-14
11
-15.726515151510441
21
-7.4068181818181689
31
7.1054273576010019e-14
0
LINE
5
142
100
AcDbEntity
8
0
100
AcDbLine
10
-15.726515151510441
20
-7.4068181818181689
30
0
11
-17.55833333332852
21
-7.4068181818181689
31
-1.5396681479638509e-43
0
LINE
5
143
100
AcDbEntity
8
0
100
AcDbLine
10
-17.558333333328591
20
-7.4068181818181689
30
0
11
-17.558333333328591
21
-3.5022727272727217
31
0
0
LINE
5
144
100
AcDbEntity
8
0
100
AcDbLine
10
12.74469696970165
20
-3.5022727272727217
30
7.1054273576010019e-14
11
14.5765151515198
21
-3.5022727272727217
31
7.1054273576010019e-14
0
LINE
5
145
100
AcDbEntity
8
0
100
AcDbLine
10
14.576515151519871
20
-3.5022727272727217
30
0
11
14.576515151519871
21
-7.4068181818181689
31
0
0
LINE
5
146
100
AcDbEntity
8
0
100
AcDbLine
10
14.576515151519871
20
-7.4068181818181689
30
0
11
12.744696969701721
21
-7.4068181818181689
31
1.3877787807814457e-16
0
LINE
5
147
100
AcDbEntity
8
0
100
AcDbLine
10
12.744696969701792
20
-7.4068181818181689
30
0
11
12.744696969701792
21
-3.5022727272727217
31
0
0
LINE
5
148
100
AcDbEntity
8
0
100
AcDbLine
10
15.72651515151982
20
-7.4068181818181955
30
0
11
15.72651515151982
21
-3.502272727272695
31
-3.1554436208840472e-29
0
LINE
5
149
100
AcDbEntity
8
0
100
AcDbLine
10
15.726515151519962
20
-3.502272727272695
30
1.4210854715202004e-13
11
17.558333333338112
21
-3.502272727272695
31
1.4210854715202004e-13
0
LINE
5
150
100
AcDbEntity
8
0
100
AcDbLine
10
17.558333333338112
20
-3.502272727272695
30
1.4210854715202004e-13
11
17.558333333338112
21
-7.4068181818181955
31
1.4210854715202004e-13
0
LINE
5
151
100
AcDbEntity
8
0
100
AcDbLine
10
17.558333333338112
20
-7.4068181818181955
30
7.1054273576010019e-14
11
15.726515151519962
21
-7.4068181818181955
31
7.1054273576010019e-14
0
LINE
5
152
100
AcDbEntity
8
0
100
AcDbLine
10
-3.9545496378238454
20
9.225000000000021
30
-7.1054273576010019e-14
11
-0.75909509236943506
21
9.225000000000021
31
-7.1054273576010019e-14
0
LINE
5
153
100
AcDbEntity
8
0
100
AcDbLine
10
-0.75909509236936401
20
9.225000000000021
30
0
11
-0.75909509236929296
21
5.3204545454545205
31
0
0
LINE
5
154
100
AcDbEntity
8
0
100
AcDbLine
10
-0.75909509236929296
20
5.3204545454545205
30
0
11
-3.9545496378237033
21
5.3204545454545205
31
-2.7755575615628914e-16
0
LINE
5
155
100
AcDbEntity
8
0
100
AcDbLine
10
-3.9545496378237033
20
5.3204545454545205
30
0
11
-3.9545496378237743
21
9.225000000000021
31
-3.1554436208840472e-29
0
ENDSEC
0
SECTION
2
OBJECTS
0
DICTIONARY
5
C
100
AcDbDictionary
3
ACAD_GROUP
350
D
3
ACAD_MLINESTYLE
350
17
0
DICTIONARY
5
D
100
AcDbDictionary
0
DICTIONARY
5
1A
330
C
100
AcDbDictionary
0
DICTIONARY
5
17
100
AcDbDictionary
0
ENDSEC
0
EOF
