0
SECTION
2
HEADER
9
$INSUNITS
70
4
9
$ACADVER
1
AC1014
9
$HANDSEED
5
FFFF
0
ENDSEC
0
SECTION
2
TABLES
0
TABLE
2
VPORT
5
8
100
AcDbSymbolTable
0
ENDTAB
0
TABLE
2
LTYPE
5
5
100
AcDbSymbolTable
0
LTYPE
5
14
100
AcDbSymbolTableRecord
100
AcDbLinetypeTableRecord
2
BYBLOCK
70
0
0
LTYPE
5
15
100
AcDbSymbolTableRecord
100
AcDbLinetypeTableRecord
2
BYLAYER
70
0
0
ENDTAB
0
TABLE
2
LAYER
5
2
100
AcDbSymbolTable
70
2
0
LAYER
5
50
100
AcDbSymbolTableRecord
100
AcDbLayerTableRecord
2
0
70
0
6
CONTINUOUS
0
ENDTAB
0
TABLE
2
STYLE
5
3
100
AcDbSymbolTable
70
1
0
STYLE
5
11
100
AcDbSymbolTableRecord
100
AcDbTextStyleTableRecord
2
STANDARD
70
0
0
ENDTAB
0
TABLE
2
VIEW
5
6
100
AcDbSymbolTable
70
0
0
ENDTAB
0
TABLE
2
UCS
5
7
100
AcDbSymbolTable
70
0
0
ENDTAB
0
TABLE
2
APPID
5
9
100
AcDbSymbolTable
70
2
0
APPID
5
12
100
AcDbSymbolTableRecord
100
AcDbRegAppTableRecord
2
ACAD
70
0
0
ENDTAB
0
TABLE
2
DIMSTYLE
5
A
100
AcDbSymbolTable
70
1
0
ENDTAB
0
TABLE
2
BLOCK_RECORD
5
1
100
AcDbSymbolTable
70
1
0
BLOCK_RECORD
5
1F
100
AcDbSymbolTableRecord
100
AcDbBlockTableRecord
2
*MODEL_SPACE
0
BLOCK_RECORD
5
1B
100
AcDbSymbolTableRecord
100
AcDbBlockTableRecord
2
*PAPER_SPACE
0
ENDTAB
0
ENDSEC
0
SECTION
2
BLOCKS
0
BLOCK
5
20
100
AcDbEntity
100
AcDbBlockBegin
2
*MODEL_SPACE
0
ENDBLK
5
21
100
AcDbEntity
100
AcDbBlockEnd
0
BLOCK
5
1C
100
AcDbEntity
100
AcDbBlockBegin
2
*PAPER_SPACE
0
ENDBLK
5
1D
100
AcDbEntity
100
AcDbBlockEnd
0
ENDSEC
0
SECTION
2
ENTITIES
0
LINE
5
100
100
AcDbEntity
8
0
100
AcDbLine
10
5.0217476175896536
20
-14.308021027989835
30
0
11
5.5144769637226432
21
-13.380811347572834
31
0
0
LINE
5
101
100
AcDbEntity
8
0
100
AcDbLine
10
5.5144769637226432
20
-13.380811347572834
30
0
11
6.7949093795367332
21
-14.061247111280331
31
0
0
LINE
5
102
100
AcDbEntity
8
0
100
AcDbLine
10
6.7949093795367332
20
-14.061247111280331
30
0
11
6.3021800334037437
21
-14.988456791697349
31
0
0
LINE
5
103
100
AcDbEntity
8
0
100
AcDbLine
10
6.3021800334037437
20
-14.988456791697349
30
0
11
5.0217476175896536
21
-14.308021027989835
31
0
0
LINE
5
104
100
AcDbEntity
8
0
100
AcDbLine
10
6.2269198393309466
20
-9.6960624174410537
30
0
11
13.021884927640599
21
3.0905870026143667
31
0
0
LINE
5
105
100
AcDbEntity
8
0
100
AcDbLine
10
13.021884927640599
20
3.0905870026143667
30
0
11
13.949094608057919
21
2.5978576564811107
31
0
0
LINE
5
106
100
AcDbEntity
8
0
100
AcDbLine
10
13.949094608057919
20
2.5978576564811107
30
0
11
13.096608344920355
21
0.99366354503414911
31
0
0
LINE
5
107
100
AcDbEntity
8
0
100
AcDbLine
10
13.096608344920355
20
0.99366354503414911
30
0
11
14.421193602659201
21
0.28976447912972603
31
0
0
LINE
5
108
100
AcDbEntity
8
0
100
AcDbLine
10
14.421193602659201
20
0.28976447912972603
30
0
11
13.928464256525928
21
-0.63744520128750537
31
0
0
LINE
5
109
100
AcDbEntity
8
0
100
AcDbLine
10
13.928464256525928
20
-0.63744520128750537
30
0
11
12.603878998787081
21
0.066453864616935476
31
0
0
LINE
5
110
100
AcDbEntity
8
0
100
AcDbLine
10
12.603878998787081
20
0.066453864616935476
30
0
11
7.1541295197482668
21
-10.188791763574283
31
0
0
LINE
5
111
100
AcDbEntity
8
0
100
AcDbLine
10
7.1541295197482668
20
-10.188791763574283
30
0
11
6.2269198393309466
21
-9.6960624174410537
31
0
0
LINE
5
112
100
AcDbEntity
8
0
100
AcDbLine
10
-7.3606304398505529
20
-17.649480190759654
30
0
11
0.3524867484901506
21
-15.723260255517619
31
0
0
LINE
5
113
100
AcDbEntity
8
0
100
AcDbLine
10
0.3524867484901506
20
-15.723260255517619
30
0
11
0.60689315503154262
21
-16.74197384643054
31
0
0
LINE
5
114
100
AcDbEntity
8
0
100
AcDbLine
10
0.60689315503154262
20
-16.74197384643054
30
0
11
-7.1062240333091609
21
-18.668193781672542
31
0
0
LINE
5
115
100
AcDbEntity
8
0
100
AcDbLine
10
-7.1062240333091609
20
-18.668193781672542
30
0
11
-7.3606304398505529
21
-17.649480190759654
31
0
0
LINE
5
116
100
AcDbEntity
8
0
100
AcDbLine
10
-4.3693977489436975
20
26.24426776731136
30
0
11
-12.363528618458446
21
11.201048631075317
31
0
0
LINE
5
117
100
AcDbEntity
8
0
100
AcDbLine
10
-12.363528618458446
20
11.201048631075317
30
0
11
-11.392166096116654
21
10.684855982745347
31
0
0
LINE
5
118
100
AcDbEntity
8
0
100
AcDbLine
10
-11.392166096116654
20
10.684855982745347
30
0
11
-18.297047990013198
21
-2.3086330075125971
31
0
0
LINE
5
119
100
AcDbEntity
8
0
100
AcDbLine
10
-18.297047990013198
20
-2.3086330075125971
30
0
11
-19.26841051235499
21
-1.7924403591826099
31
0
0
LINE
5
120
100
AcDbEntity
8
0
100
AcDbLine
10
-19.26841051235499
20
-1.7924403591826099
30
0
11
-25.723135775517108
21
-13.938832278818118
31
0
0
LINE
5
121
100
AcDbEntity
8
0
100
AcDbLine
10
-25.723135775517108
20
-13.938832278818118
30
0
11
-22.545785668078793
21
-15.627310811710231
31
0
0
LINE
5
122
100
AcDbEntity
8
0
100
AcDbLine
10
-22.545785668078793
20
-15.627310811710231
30
0
11
-22.029593019748859
21
-14.655948289368457
31
0
0
LINE
5
123
100
AcDbEntity
8
0
100
AcDbLine
10
-22.029593019748859
20
-14.655948289368457
30
0
11
-15.830382971242187
21
-17.950276183322718
31
0
0
LINE
5
124
100
AcDbEntity
8
0
100
AcDbLine
10
-15.830382971242187
20
-17.950276183322718
30
0
11
-16.346575619572121
21
-18.921638705664474
31
0
0
LINE
5
125
100
AcDbEntity
8
0
100
AcDbLine
10
-16.346575619572121
20
-18.921638705664474
30
0
11
-2.5669771334113989
21
-26.244267767311324
31
0
0
LINE
5
126
100
AcDbEntity
8
0
100
AcDbLine
10
-2.5669771334113989
20
-26.244267767311324
30
0
11
0.48950544368722149
21
-20.492630979786597
31
0
0
LINE
5
127
100
AcDbEntity
8
0
100
AcDbLine
10
0.48950544368722149
20
-20.492630979786597
30
0
11
1.4608679660290136
21
-21.008823628116502
31
0
0
LINE
5
128
100
AcDbEntity
8
0
100
AcDbLine
10
1.4608679660290136
20
-21.008823628116502
30
0
11
4.1743755515514636
21
-15.90259133055385
31
0
0
LINE
5
129
100
AcDbEntity
8
0
100
AcDbLine
10
4.1743755515514636
20
-15.90259133055385
30
0
11
12.994406641706604
21
-13.699938460065555
31
0
0
LINE
5
130
100
AcDbEntity
8
0
100
AcDbLine
10
12.994406641706604
20
-13.699938460065555
30
0
11
16.5516518824397
21
-7.0059750322519054
31
0
0
LINE
5
131
100
AcDbEntity
8
0
100
AcDbLine
10
16.5516518824397
20
-7.0059750322519054
30
0
11
15.580289360097908
21
-6.4897823839219893
31
0
0
LINE
5
132
100
AcDbEntity
8
0
100
AcDbLine
10
15.580289360097908
20
-6.4897823839219893
30
0
11
21.18801858513649
21
4.0627468360633756
31
0
0
LINE
5
133
100
AcDbEntity
8
0
100
AcDbLine
10
21.18801858513649
20
4.0627468360633756
30
0
11
22.159381107478282
21
3.5465541877334594
31
0
0
LINE
5
134
100
AcDbEntity
8
0
100
AcDbLine
10
22.159381107478282
20
3.5465541877334594
30
0
11
25.72313577551725
21
10.252766944837806
31
0
0
LINE
5
135
100
AcDbEntity
8
0
100
AcDbLine
10
25.72313577551725
20
10.252766944837806
30
0
11
24.707620411250701
21
10.792422895364631
31
0
0
LINE
5
136
100
AcDbEntity
8
0
100
AcDbLine
10
24.707620411250701
20
10.792422895364631
30
0
11
24.191427762920767
21
9.8210603730229273
31
0
0
LINE
5
137
100
AcDbEntity
8
0
100
AcDbLine
10
24.191427762920767
20
9.8210603730229273
30
0
11
20.566516024912858
21
11.747378042242378
31
0
0
LINE
5
138
100
AcDbEntity
8
0
100
AcDbLine
10
20.566516024912858
20
11.747378042242378
30
0
11
21.082708673242792
21
12.718740564584134
31
0
0
LINE
5
139
100
AcDbEntity
8
0
100
AcDbLine
10
21.082708673242792
20
12.718740564584134
30
0
11
12.050339879845922
21
17.518639943979313
31
0
0
LINE
5
140
100
AcDbEntity
8
0
100
AcDbLine
10
12.050339879845922
20
17.518639943979313
30
0
11
11.53414723151613
21
16.547277421637556
31
0
0
LINE
5
141
100
AcDbEntity
8
0
100
AcDbLine
10
11.53414723151613
20
16.547277421637556
30
0
11
3.0927613861935299
21
21.033122010912937
31
0
0
LINE
5
142
100
AcDbEntity
8
0
100
AcDbLine
10
3.0927613861935299
20
21.033122010912937
30
0
11
3.6089540345233218
21
22.004484533254711
31
0
0
LINE
5
143
100
AcDbEntity
8
0
100
AcDbLine
10
3.6089540345233218
20
22.004484533254711
30
0
11
-4.3693977489436975
21
26.24426776731136
31
0
0
ENDSEC
0
SECTION
2
OBJECTS
0
DICTIONARY
5
C
100
AcDbDictionary
3
ACAD_GROUP
350
D
3
ACAD_MLINESTYLE
350
17
0
DICTIONARY
5
D
100
AcDbDictionary
0
DICTIONARY
5
1A
330
C
100
AcDbDictionary
0
DICTIONARY
5
17
100
AcDbDictionary
0
ENDSEC
0
EOF
