0
SECTION
2
HEADER
9
$INSUNITS
70
4
9
$ACADVER
1
AC1014
9
$HANDSEED
5
FFFF
0
ENDSEC
0
SECTION
2
TABLES
0
TABLE
2
VPORT
5
8
100
AcDbSymbolTable
0
ENDTAB
0
TABLE
2
LTYPE
5
5
100
AcDbSymbolTable
0
LTYPE
5
14
100
AcDbSymbolTableRecord
100
AcDbLinetypeTableRecord
2
BYBLOCK
70
0
0
LTYPE
5
15
100
AcDbSymbolTableRecord
100
AcDbLinetypeTableRecord
2
BYLAYER
70
0
0
ENDTAB
0
TABLE
2
LAYER
5
2
100
AcDbSymbolTable
70
2
0
LAYER
5
50
100
AcDbSymbolTableRecord
100
AcDbLayerTableRecord
2
0
70
0
6
CONTINUOUS
0
ENDTAB
0
TABLE
2
STYLE
5
3
100
AcDbSymbolTable
70
1
0
STYLE
5
11
100
AcDbSymbolTableRecord
100
AcDbTextStyleTableRecord
2
STANDARD
70
0
0
ENDTAB
0
TABLE
2
VIEW
5
6
100
AcDbSymbolTable
70
0
0
ENDTAB
0
TABLE
2
UCS
5
7
100
AcDbSymbolTable
70
0
0
ENDTAB
0
TABLE
2
APPID
5
9
100
AcDbSymbolTable
70
2
0
APPID
5
12
100
AcDbSymbolTableRecord
100
AcDbRegAppTableRecord
2
ACAD
70
0
0
ENDTAB
0
TABLE
2
DIMSTYLE
5
A
100
AcDbSymbolTable
70
1
0
ENDTAB
0
TABLE
2
BLOCK_RECORD
5
1
100
AcDbSymbolTable
70
1
0
BLOCK_RECORD
5
1F
100
AcDbSymbolTableRecord
100
AcDbBlockTableRecord
2
*MODEL_SPACE
0
BLOCK_RECORD
5
1B
100
AcDbSymbolTableRecord
100
AcDbBlockTableRecord
2
*PAPER_SPACE
0
ENDTAB
0
ENDSEC
0
SECTION
2
BLOCKS
0
BLOCK
5
20
100
AcDbEntity
100
AcDbBlockBegin
2
*MODEL_SPACE
0
ENDBLK
5
21
100
AcDbEntity
100
AcDbBlockEnd
0
BLOCK
5
1C
100
AcDbEntity
100
AcDbBlockBegin
2
*PAPER_SPACE
0
ENDBLK
5
1D
100
AcDbEntity
100
AcDbBlockEnd
0
ENDSEC
0
SECTION
2
ENTITIES
0
CIRCLE
5
100
100
AcDbEntity
8
0
100
AcDbCircle
10
-7.6424419428624191
20
33.363636363636331
30
-2.1316282072803006e-13
40
2.7022727272727272
210
0
220
0
230
1
0
LINE
5
101
100
AcDbEntity
8
0
100
AcDbLine
10
-14.413137412575878
20
-8.3886363636363903
30
0
11
-13.313137412575955
21
-8.3886363636363903
31
-8.6885612174031744e-47
0
LINE
5
102
100
AcDbEntity
8
0
100
AcDbLine
10
-13.313137412576026
20
-8.3886363636363903
30
-7.1054273576010019e-14
11
-13.313137412575955
21
-12.065909090909166
31
-7.1054273576010019e-14
0
LINE
5
103
100
AcDbEntity
8
0
100
AcDbLine
10
-13.313137412575884
20
-12.065909090909166
30
-7.1054273576010019e-14
11
-14.413137412575807
21
-12.065909090909166
31
-7.1054273576010019e-14
0
LINE
5
104
100
AcDbEntity
8
0
100
AcDbLine
10
-14.413137412575949
20
-12.065909090909166
30
0
11
-14.413137412574244
21
-38.843181818181797
31
3.42661455705377e-29
0
LINE
5
105
100
AcDbEntity
8
0
100
AcDbLine
10
-14.413137412574244
20
-38.843181818181797
30
-7.1054273576010019e-14
11
5.6996469568855446
21
-38.843181818181712
31
-7.1054273576010019e-14
0
SPLINE
5
106
100
AcDbEntity
8
0
100
AcDbSpline
70
0
71
3
72
26
73
22
74
0
42
0.000000001
43
0.0000000001
44
0.0000000001
40
0
40
0
40
0
40
0
40
0.19772226524539627
40
0.19772226524539627
40
0.19772226524539627
40
0.34218069908115145
40
0.34218069908115145
40
0.34218069908115145
40
0.50663552431086356
40
0.50663552431086356
40
0.50663552431086356
40
0.64022655470672518
40
0.64022655470672518
40
0.64022655470672518
40
0.81457807169326901
40
0.81457807169326901
40
0.81457807169326901
40
1
40
1
40
1
40
1.0008485459006418
40
1.0008485459006418
40
1.0008485459006418
40
1.0008485459006418
10
14.409587170973097
20
-12.09054241427828
30
-7.1054273576010019e-14
10
14.427236892636301
20
-13.293770384602466
30
-7.1054273576010019e-14
10
13.888124397844237
20
-14.600873115412218
30
0
10
12.663244333331463
20
-15.784833055563894
30
0
10
11.768331180599247
20
-16.649849438348674
30
0
10
10.486294723920224
20
-17.427205215391474
30
-7.1054273576010019e-14
10
9.128101652938625
20
-18.232404069936226
30
0
10
7.5819032193436442
20
-19.149061085959801
30
-7.1054273576010019e-14
10
6.007463601252212
20
-20.144898649032843
30
0
10
5.0461093762863385
20
-21.530020622535758
30
0
10
4.2651757593539941
20
-22.655192057340049
30
0
10
3.904521164072321
20
-24.049899987340233
30
0
10
3.8254431020222768
20
-25.595392594849017
30
0
10
3.7222372203257947
20
-27.612436552157945
30
0
10
4.0036828835462046
20
-29.821637649194244
30
0
10
4.3526911146906144
20
-31.994543369319004
30
0
10
4.7238595469030287
20
-34.305417261430613
30
0
10
5.1883827658877379
20
-36.589285941122512
30
-7.1054273576010019e-14
10
5.6927215710090451
20
-38.812651421276563
30
-7.1054273576010019e-14
10
5.6950300329679493
20
-38.822828220244958
30
-7.1054273576010019e-14
10
5.6973384949266404
20
-38.833005019213346
30
-7.1054273576010019e-14
10
5.6996469568856867
20
-38.843181818181762
30
-7.1054273576010019e-14
0
LINE
5
107
100
AcDbEntity
8
0
100
AcDbLine
10
14.409587170973097
20
-12.09054241427828
30
-7.1054273576010019e-14
11
14.409589860152749
21
13.388636363636293
31
-7.1054273591923931e-14
0
LINE
5
108
100
AcDbEntity
8
0
100
AcDbLine
10
14.409589860152821
20
13.388636363636293
30
0
11
12.859589860152951
21
13.388636363636293
31
1.2269597423128499e-46
0
LINE
5
109
100
AcDbEntity
8
0
100
AcDbLine
10
12.859589860153022
20
13.388636363636293
30
0
11
12.859589860153164
21
9.6613636363635624
31
3.0814879110195774e-30
0
LINE
5
110
100
AcDbEntity
8
0
100
AcDbLine
10
12.859589860153022
20
9.6613636363635624
30
0
11
11.809589860152983
21
9.6613636363635624
31
8.2934521144573051e-47
0
LINE
5
111
100
AcDbEntity
8
0
100
AcDbLine
10
11.809589860153054
20
9.6613636363635624
30
-7.1054273576010019e-14
11
11.809589860152911
21
12.288636363636289
31
-7.1054273576010019e-14
0
LINE
5
112
100
AcDbEntity
8
0
100
AcDbLine
10
11.80958986015284
20
12.288636363636289
30
-7.1054273576010019e-14
11
-3.7448399857041892
21
12.288636363636289
31
-7.1054273576010019e-14
0
LINE
5
113
100
AcDbEntity
8
0
100
AcDbLine
10
-3.7448399857041181
20
12.288636363636289
30
-7.1054273576010019e-14
11
-3.7448399857040471
21
13.338636363636338
31
-7.1054273576010006e-14
0
LINE
5
114
100
AcDbEntity
8
0
100
AcDbLine
10
-3.7448399857041181
20
13.338636363636338
30
-7.1054273576010019e-14
11
-0.87174647315073628
21
13.338636363636338
31
-7.1193051454088163e-14
0
LINE
5
115
100
AcDbEntity
8
0
100
AcDbLine
10
-0.87174647315073628
20
13.338636363636338
30
-7.1054273576010019e-14
11
-0.87174647315080733
21
38.843181818181741
31
-7.1054273576010019e-14
0
LINE
5
116
100
AcDbEntity
8
0
100
AcDbLine
10
-0.87174647315073628
20
38.843181818181741
30
-7.1054273576010019e-14
11
-6.4044925570056677
21
38.843181818181762
31
-7.1054273576010019e-14
0
LINE
5
117
100
AcDbEntity
8
0
100
AcDbLine
10
-6.4044925570056677
20
38.843181818181762
30
0
11
-6.4044925570056677
21
37.743181818181768
31
0
0
LINE
5
118
100
AcDbEntity
8
0
100
AcDbLine
10
-6.4044925570056677
20
37.743181818181768
30
0
11
-10.354492557005628
21
37.743181818181768
31
3.1198532628243427e-46
0
LINE
5
119
100
AcDbEntity
8
0
100
AcDbLine
10
-10.354492557005628
20
37.743181818181768
30
-7.1054273576010019e-14
11
-10.35449255700577
21
38.843181818181762
31
-7.1054273576010019e-14
0
LINE
5
120
100
AcDbEntity
8
0
100
AcDbLine
10
-10.354492557005841
20
38.843181818181762
30
-7.1054273576010019e-14
11
-13.313137412576239
21
38.843181818181776
31
-7.1193051454088163e-14
0
LINE
5
121
100
AcDbEntity
8
0
100
AcDbLine
10
-13.313137412576239
20
38.843181818181776
30
-7.1054273576010019e-14
11
-13.313137412576097
21
34.295136625779882
31
-7.1054273576010019e-14
0
LINE
5
122
100
AcDbEntity
8
0
100
AcDbLine
10
-13.313137412576026
20
34.295136625779882
30
-7.1054273576010019e-14
11
-14.41313741257602
21
34.295136625779882
31
-7.1054273576010019e-14
0
LINE
5
123
100
AcDbEntity
8
0
100
AcDbLine
10
-14.413137412576091
20
34.295136625779882
30
0
11
-14.413137412576162
21
19.799018690674686
31
-8.6281661508548166e-31
0
LINE
5
124
100
AcDbEntity
8
0
100
AcDbLine
10
-14.413137412576162
20
19.799018690674686
30
0
11
-13.313137412576239
21
19.799018690674679
31
5.4385242937875636e-31
0
LINE
5
125
100
AcDbEntity
8
0
100
AcDbLine
10
-13.313137412576239
20
19.799018690674679
30
-7.1054273576010019e-14
11
-13.313137412578939
21
13.338636363636338
31
-7.1054273576010157e-14
0
LINE
5
126
100
AcDbEntity
8
0
100
AcDbLine
10
-13.313137412578797
20
13.338636363636338
30
-7.1054273576010019e-14
11
-10.865011030514182
21
13.338636363636338
31
-7.1054273576010019e-14
0
LINE
5
127
100
AcDbEntity
8
0
100
AcDbLine
10
-10.865011030514253
20
13.338636363636338
30
0
11
-10.865011030514395
21
12.288636363636289
31
1.3165657099831144e-29
0
LINE
5
128
100
AcDbEntity
8
0
100
AcDbLine
10
-10.865011030514395
20
12.288636363636289
30
-7.1054273576010019e-14
11
-13.313137412576026
21
12.288636363636289
31
-7.1054273576010019e-14
0
LINE
5
129
100
AcDbEntity
8
0
100
AcDbLine
10
-13.313137412576026
20
12.288636363636289
30
-7.1054273576010019e-14
11
-13.313137412575955
21
9.6613636363635536
31
-7.1054273576010006e-14
0
LINE
5
130
100
AcDbEntity
8
0
100
AcDbLine
10
-13.313137412575884
20
9.6613636363635536
30
-7.1054273576010019e-14
11
-14.413137412575807
21
9.6613636363635536
31
-7.1123662515049091e-14
0
LINE
5
131
100
AcDbEntity
8
0
100
AcDbLine
10
-14.413137412575949
20
9.6613636363635536
30
0
11
-14.41313741257602
21
-8.3886363636363903
31
-2.0954117794933126e-30
0
LINE
5
132
100
AcDbEntity
8
0
100
AcDbLine
10
5.4755589780285163
20
-12.06590909090913
30
0
11
-5.8118458399891182
21
-12.06590909090913
31
8.9155734315422373e-46
0
LINE
5
133
100
AcDbEntity
8
0
100
AcDbLine
10
-5.8118458399891182
20
-12.06590909090913
30
0
11
-5.8118458399891892
21
-11.015909090909135
31
1.9259299443872359e-30
0
LINE
5
134
100
AcDbEntity
8
0
100
AcDbLine
10
-5.8118458399891182
20
-11.015909090909135
30
0
11
5.4755589780285163
21
-11.015909090909135
31
-8.9155734315422373e-46
0
LINE
5
135
100
AcDbEntity
8
0
100
AcDbLine
10
5.4755589780285163
20
-11.015909090909135
30
0
11
5.4755589780285874
21
-12.06590909090913
31
-1.9259299443872359e-30
0
LINE
5
136
100
AcDbEntity
8
0
100
AcDbLine
10
11.809589860153054
20
-12.065909090909157
30
-7.1054273576010019e-14
11
11.809589860152911
21
-8.3886363636363814
31
-7.1054273576010019e-14
0
LINE
5
137
100
AcDbEntity
8
0
100
AcDbLine
10
11.80958986015284
20
-8.3886363636363814
30
-7.1054273576010019e-14
11
12.859589860153022
21
-8.3886363636363814
31
-7.1054273576010019e-14
0
LINE
5
138
100
AcDbEntity
8
0
100
AcDbLine
10
12.859589860153022
20
-8.3886363636363814
30
0
11
12.859589860153022
21
-12.065909090909157
31
0
0
LINE
5
139
100
AcDbEntity
8
0
100
AcDbLine
10
12.859589860153022
20
-12.065909090909157
30
0
11
11.809589860152983
21
-12.065909090909157
31
8.2936266166130141e-47
0
ENDSEC
0
SECTION
2
OBJECTS
0
DICTIONARY
5
C
100
AcDbDictionary
3
ACAD_GROUP
350
D
3
ACAD_MLINESTYLE
350
17
0
DICTIONARY
5
D
100
AcDbDictionary
0
DICTIONARY
5
1A
330
C
100
AcDbDictionary
0
DICTIONARY
5
17
100
AcDbDictionary
0
ENDSEC
0
EOF
