0
SECTION
2
HEADER
9
$INSUNITS
70
4
9
$ACADVER
1
AC1014
9
$HANDSEED
5
FFFF
0
ENDSEC
0
SECTION
2
TABLES
0
TABLE
2
VPORT
5
8
100
AcDbSymbolTable
0
ENDTAB
0
TABLE
2
LTYPE
5
5
100
AcDbSymbolTable
0
LTYPE
5
14
100
AcDbSymbolTableRecord
100
AcDbLinetypeTableRecord
2
BYBLOCK
70
0
0
LTYPE
5
15
100
AcDbSymbolTableRecord
100
AcDbLinetypeTableRecord
2
BYLAYER
70
0
0
ENDTAB
0
TABLE
2
LAYER
5
2
100
AcDbSymbolTable
70
2
0
LAYER
5
50
100
AcDbSymbolTableRecord
100
AcDbLayerTableRecord
2
0
70
0
6
CONTINUOUS
0
ENDTAB
0
TABLE
2
STYLE
5
3
100
AcDbSymbolTable
70
1
0
STYLE
5
11
100
AcDbSymbolTableRecord
100
AcDbTextStyleTableRecord
2
STANDARD
70
0
0
ENDTAB
0
TABLE
2
VIEW
5
6
100
AcDbSymbolTable
70
0
0
ENDTAB
0
TABLE
2
UCS
5
7
100
AcDbSymbolTable
70
0
0
ENDTAB
0
TABLE
2
APPID
5
9
100
AcDbSymbolTable
70
2
0
APPID
5
12
100
AcDbSymbolTableRecord
100
AcDbRegAppTableRecord
2
ACAD
70
0
0
ENDTAB
0
TABLE
2
DIMSTYLE
5
A
100
AcDbSymbolTable
70
1
0
ENDTAB
0
TABLE
2
BLOCK_RECORD
5
1
100
AcDbSymbolTable
70
1
0
BLOCK_RECORD
5
1F
100
AcDbSymbolTableRecord
100
AcDbBlockTableRecord
2
*MODEL_SPACE
0
BLOCK_RECORD
5
1B
100
AcDbSymbolTableRecord
100
AcDbBlockTableRecord
2
*PAPER_SPACE
0
ENDTAB
0
ENDSEC
0
SECTION
2
BLOCKS
0
BLOCK
5
20
100
AcDbEntity
100
AcDbBlockBegin
2
*MODEL_SPACE
0
ENDBLK
5
21
100
AcDbEntity
100
AcDbBlockEnd
0
BLOCK
5
1C
100
AcDbEntity
100
AcDbBlockBegin
2
*PAPER_SPACE
0
ENDBLK
5
1D
100
AcDbEntity
100
AcDbBlockEnd
0
ENDSEC
0
SECTION
2
ENTITIES
0
CIRCLE
5
100
100
AcDbEntity
8
0
100
AcDbCircle
10
10.268147452241152
20
33.363636363636367
30
0
40
2.7022727272727276
210
0
220
0
230
1
0
LINE
5
101
100
AcDbEntity
8
0
100
AcDbLine
10
17.038842921953403
20
-38.84318181818179
30
-7.1054273576010019e-14
11
17.038842921953474
21
-12.065909090909148
31
-7.1054273576010019e-14
0
LINE
5
102
100
AcDbEntity
8
0
100
AcDbLine
10
17.038842921953403
20
-12.065909090909148
30
0
11
15.938842921953409
21
-12.065909090909148
31
3.3893150620881262e-49
0
LINE
5
103
100
AcDbEntity
8
0
100
AcDbLine
10
15.938842921953551
20
-12.065909090909148
30
0
11
15.938842921953551
21
-8.3886363636363726
31
-1.1247430875221457e-29
0
LINE
5
104
100
AcDbEntity
8
0
100
AcDbLine
10
15.938842921953551
20
-8.3886363636363726
30
0
11
17.038842921953474
21
-8.3886363636363726
31
6.9388939039072284e-17
0
LINE
5
105
100
AcDbEntity
8
0
100
AcDbLine
10
17.038842921953403
20
-8.3886363636363726
30
0
11
17.038842921953403
21
9.6613636363635713
31
1.1093356479670479e-29
0
LINE
5
106
100
AcDbEntity
8
0
100
AcDbLine
10
17.038842921953403
20
9.6613636363635713
30
0
11
15.93884292195348
21
9.6613636363635713
31
-6.9388939039072284e-17
0
LINE
5
107
100
AcDbEntity
8
0
100
AcDbLine
10
15.938842921953551
20
9.6613636363635713
30
0
11
15.938842921953622
21
12.288636363636307
31
-1.1432320149882632e-29
0
LINE
5
108
100
AcDbEntity
8
0
100
AcDbLine
10
15.938842921953551
20
12.288636363636307
30
0
11
8.0539185142709631
21
12.288636363636316
31
-5.4385242937875609e-31
0
LINE
5
109
100
AcDbEntity
8
0
100
AcDbLine
10
8.0539185142708902
20
12.288636363636316
30
0
11
8.0539185142707481
21
13.338636363636365
31
1.8427297707897073e-29
0
LINE
5
110
100
AcDbEntity
8
0
100
AcDbLine
10
8.0539185142708192
20
13.338636363636365
30
-7.1054273576010019e-14
11
15.938842921953267
21
13.338636363636356
31
-7.1609385088322597e-14
0
LINE
5
111
100
AcDbEntity
8
0
100
AcDbLine
10
15.938842921953196
20
13.338636363636356
30
-7.1054273576010019e-14
11
15.938842921953409
21
19.799018690674693
31
-7.1054273576010031e-14
0
LINE
5
112
100
AcDbEntity
8
0
100
AcDbLine
10
15.938842921953551
20
19.799018690674693
30
0
11
17.038842921953474
21
19.799018690674693
31
-2.7964010067379893e-49
0
LINE
5
113
100
AcDbEntity
8
0
100
AcDbLine
10
17.038842921953403
20
19.799018690674693
30
0
11
17.038842921953545
21
34.295136625779897
31
1.2695730193400659e-29
0
LINE
5
114
100
AcDbEntity
8
0
100
AcDbLine
10
17.038842921953616
20
34.295136625779897
30
0
11
15.938842921953693
21
34.295136625779897
31
-6.9388939039072284e-17
0
LINE
5
115
100
AcDbEntity
8
0
100
AcDbLine
10
15.938842921953551
20
34.295136625779897
30
0
11
15.938842921953409
21
38.843181818181762
31
-5.3001592069536731e-30
0
LINE
5
116
100
AcDbEntity
8
0
100
AcDbLine
10
15.938842921953551
20
38.843181818181762
30
0
11
5.4738701588158278
21
38.843181818181797
31
-2.1754097175150244e-30
0
LINE
5
117
100
AcDbEntity
8
0
100
AcDbLine
10
5.4738701588157568
20
38.843181818181797
30
-7.1054273576010019e-14
11
5.4738701588157568
21
37.743181818181803
31
-7.1054273576010019e-14
0
LINE
5
118
100
AcDbEntity
8
0
100
AcDbLine
10
5.4738701588157568
20
37.743181818181803
30
-7.1054273576010019e-14
11
-5.3354831435084531
21
37.743181818181817
31
-7.049916206369744e-14
0
LINE
5
119
100
AcDbEntity
8
0
100
AcDbLine
10
-5.3354831435085259
20
37.743181818181817
30
0
11
-5.3354831435085259
21
38.843181818181812
31
0
0
LINE
5
120
100
AcDbEntity
8
0
100
AcDbLine
10
-5.3354831435085259
20
38.843181818181812
30
0
11
-17.038842921952973
21
38.843181818181812
31
5.5511151231257827e-16
0
LINE
5
121
100
AcDbEntity
8
0
100
AcDbLine
10
-17.038842921952977
20
38.843181818181812
30
-7.1054273576010019e-14
11
-17.038842921953048
21
19.705166032073915
31
-7.1054273576010006e-14
0
LINE
5
122
100
AcDbEntity
8
0
100
AcDbLine
10
-17.038842921952977
20
19.705166032073915
30
-7.1054273576010019e-14
11
-15.938842921952983
21
19.705166032073905
31
-7.1054273576010019e-14
0
LINE
5
123
100
AcDbEntity
8
0
100
AcDbLine
10
-15.938842921952912
20
19.705166032073905
30
0
11
-15.93884292195284
21
13.338636363636356
31
1.8488927466117464e-31
0
LINE
5
124
100
AcDbEntity
8
0
100
AcDbLine
10
-15.938842921952912
20
13.338636363636356
30
0
11
-1.6053595269175291
21
13.338636363636365
31
-5.4385242937875609e-31
0
LINE
5
125
100
AcDbEntity
8
0
100
AcDbLine
10
-1.6053595269174536
20
13.338636363636365
30
-7.1054273576010019e-14
11
-1.6053595269174536
21
12.288636363636316
31
-7.1054273576010031e-14
0
LINE
5
126
100
AcDbEntity
8
0
100
AcDbLine
10
-1.6053595269174536
20
12.288636363636316
30
-7.1054273576010019e-14
11
-9.1838843507733241
21
12.288636363636307
31
-7.049916206369744e-14
0
LINE
5
127
100
AcDbEntity
8
0
100
AcDbLine
10
-9.1838843507732548
20
12.288636363636307
30
-7.1054273576010019e-14
11
-9.183884350773539
21
9.6613636363635802
31
-7.1054273576010019e-14
0
LINE
5
128
100
AcDbEntity
8
0
100
AcDbLine
10
-9.1838843507736811
20
9.6613636363635802
30
-7.1054273576010019e-14
11
-10.233884350773792
21
9.6613636363635802
31
-7.0984884636970946e-14
0
LINE
5
129
100
AcDbEntity
8
0
100
AcDbLine
10
-10.233884350773934
20
9.6613636363635802
30
0
11
-10.233884350773934
21
12.288636363636307
31
7.0874221953450279e-30
0
LINE
5
130
100
AcDbEntity
8
0
100
AcDbLine
10
-10.233884350773934
20
12.288636363636307
30
0
11
-11.783884350773945
21
12.288636363636316
31
-5.4385242937875609e-31
0
LINE
5
131
100
AcDbEntity
8
0
100
AcDbLine
10
-11.783884350773803
20
12.288636363636316
30
0
11
-11.783881661594009
21
-12.090542414278262
31
-1.5981802031137352e-22
0
SPLINE
5
132
100
AcDbEntity
8
0
100
AcDbSpline
70
0
71
3
72
26
73
22
74
0
42
0.000000001
43
0.0000000001
44
0.0000000001
40
0
40
0
40
0
40
0
40
0.1977222652425801
40
0.1977222652425801
40
0.1977222652425801
40
0.34218069907713378
40
0.34218069907713378
40
0.34218069907713378
40
0.5066355243078503
40
0.5066355243078503
40
0.5066355243078503
40
0.64022655470159351
40
0.64022655470159351
40
0.64022655470159351
40
0.81457807168420504
40
0.81457807168420504
40
0.81457807168420504
40
1
40
1
40
1
40
1.00084854590064
40
1.00084854590064
40
1.00084854590064
40
1.00084854590064
10
-11.78388166159408
20
-12.090542414278262
30
-7.1054273576010019e-14
10
-11.801531383256716
20
-13.293770384585315
30
-7.1054273576010019e-14
10
-11.262418888481278
20
-14.600873115375181
30
0
10
-10.037538824004741
20
-15.784833055513294
30
-7.1054273576010019e-14
10
-9.1426256712934162
20
-16.649849438293288
30
0
10
-7.8605892146403988
20
-17.427205215333842
30
-7.1054273576010019e-14
10
-6.5023961436728683
20
-18.23240406986903
30
-7.1054273576010019e-14
10
-4.9561977100711374
20
-19.149061085894932
30
0
10
-3.3817580919527757
20
-20.144898648961629
30
-7.1054273576010019e-14
10
-2.4204038669600436
20
-21.530020622459606
30
-7.1054273576010019e-14
10
-1.6394702500229386
20
-22.655192057235173
30
-7.1054273576010019e-14
10
-1.2788156547201623
20
-24.049899987196728
30
-7.1054273576010019e-14
10
-1.1997375926524256
20
-25.595392594670908
30
0
10
-1.0965317109333483
20
-27.612436551921164
30
0
10
-1.3779773741304524
20
-29.821637648902886
30
0
10
-1.7269856052572408
20
-31.994543368980093
30
-7.1054273576010019e-14
10
-2.098154037477542
20
-34.305417261206216
30
0
10
-2.562677256485415
20
-36.589285941013756
30
-7.1054273576010019e-14
10
-3.0670160616299569
20
-38.812651421276563
30
0
10
-3.0693245235888611
20
-38.822828220244944
30
0
10
-3.0716329855475522
20
-38.833005019213338
30
0
10
-3.0739414475064564
20
-38.843181818181684
30
0
0
LINE
5
133
100
AcDbEntity
8
0
100
AcDbLine
10
-3.0739414475064564
20
-38.843181818181677
30
0
11
17.038842921953471
21
-38.84318181818179
31
6.5262291525450735e-30
0
LINE
5
134
100
AcDbEntity
8
0
100
AcDbLine
10
-10.233884350773934
20
-12.065909090909139
30
0
11
-10.233884350773934
21
-8.3886363636363637
31
6.3786799758105251e-30
0
LINE
5
135
100
AcDbEntity
8
0
100
AcDbLine
10
-10.233884350773934
20
-8.3886363636363637
30
0
11
-9.1838843507738943
21
-8.3886363636363637
31
-6.9388939039072284e-17
0
LINE
5
136
100
AcDbEntity
8
0
100
AcDbLine
10
-9.1838843507738233
20
-8.3886363636363637
30
0
11
-9.1838843507738233
21
-12.065909090909139
31
-1.2325951644078309e-31
0
LINE
5
137
100
AcDbEntity
8
0
100
AcDbLine
10
-9.1838843507738233
20
-12.065909090909139
30
0
11
-10.233884350773863
21
-12.065909090909139
31
6.9388939039072284e-17
0
LINE
5
138
100
AcDbEntity
8
0
100
AcDbLine
10
0.35094995492443104
20
-11.015909090909117
30
-7.1054273576010019e-14
11
9.3961083725176291
21
-11.015909090909117
31
-7.049916206369744e-14
0
LINE
5
139
100
AcDbEntity
8
0
100
AcDbLine
10
9.3961083725174888
20
-11.015909090909117
30
-7.1054273576010019e-14
11
9.3961083725176309
21
-12.065909090909113
31
-7.1054273576010006e-14
0
LINE
5
140
100
AcDbEntity
8
0
100
AcDbLine
10
9.3961083725177019
20
-12.065909090909113
30
0
11
0.35094995492450431
21
-12.065909090909113
31
-5.5511151231257827e-16
0
LINE
5
141
100
AcDbEntity
8
0
100
AcDbLine
10
0.35094995492450209
20
-12.065909090909113
30
-7.1054273576010019e-14
11
0.35094995492435999
21
-11.015909090909117
31
-7.1054273576010031e-14
0
ENDSEC
0
SECTION
2
OBJECTS
0
DICTIONARY
5
C
100
AcDbDictionary
3
ACAD_GROUP
350
D
3
ACAD_MLINESTYLE
350
17
0
DICTIONARY
5
D
100
AcDbDictionary
0
DICTIONARY
5
1A
330
C
100
AcDbDictionary
0
DICTIONARY
5
17
100
AcDbDictionary
0
ENDSEC
0
EOF
