0
SECTION
2
HEADER
9
$INSUNITS
70
4
9
$ACADVER
1
AC1014
9
$HANDSEED
5
FFFF
0
ENDSEC
0
SECTION
2
TABLES
0
TABLE
2
VPORT
5
8
100
AcDbSymbolTable
0
ENDTAB
0
TABLE
2
LTYPE
5
5
100
AcDbSymbolTable
0
LTYPE
5
14
100
AcDbSymbolTableRecord
100
AcDbLinetypeTableRecord
2
BYBLOCK
70
0
0
LTYPE
5
15
100
AcDbSymbolTableRecord
100
AcDbLinetypeTableRecord
2
BYLAYER
70
0
0
ENDTAB
0
TABLE
2
LAYER
5
2
100
AcDbSymbolTable
70
2
0
LAYER
5
50
100
AcDbSymbolTableRecord
100
AcDbLayerTableRecord
2
0
70
0
6
CONTINUOUS
0
ENDTAB
0
TABLE
2
STYLE
5
3
100
AcDbSymbolTable
70
1
0
STYLE
5
11
100
AcDbSymbolTableRecord
100
AcDbTextStyleTableRecord
2
STANDARD
70
0
0
ENDTAB
0
TABLE
2
VIEW
5
6
100
AcDbSymbolTable
70
0
0
ENDTAB
0
TABLE
2
UCS
5
7
100
AcDbSymbolTable
70
0
0
ENDTAB
0
TABLE
2
APPID
5
9
100
AcDbSymbolTable
70
2
0
APPID
5
12
100
AcDbSymbolTableRecord
100
AcDbRegAppTableRecord
2
ACAD
70
0
0
ENDTAB
0
TABLE
2
DIMSTYLE
5
A
100
AcDbSymbolTable
70
1
0
ENDTAB
0
TABLE
2
BLOCK_RECORD
5
1
100
AcDbSymbolTable
70
1
0
BLOCK_RECORD
5
1F
100
AcDbSymbolTableRecord
100
AcDbBlockTableRecord
2
*MODEL_SPACE
0
BLOCK_RECORD
5
1B
100
AcDbSymbolTableRecord
100
AcDbBlockTableRecord
2
*PAPER_SPACE
0
ENDTAB
0
ENDSEC
0
SECTION
2
BLOCKS
0
BLOCK
5
20
100
AcDbEntity
100
AcDbBlockBegin
2
*MODEL_SPACE
0
ENDBLK
5
21
100
AcDbEntity
100
AcDbBlockEnd
0
BLOCK
5
1C
100
AcDbEntity
100
AcDbBlockBegin
2
*PAPER_SPACE
0
ENDBLK
5
1D
100
AcDbEntity
100
AcDbBlockEnd
0
ENDSEC
0
SECTION
2
ENTITIES
0
LINE
5
100
100
AcDbEntity
8
0
100
AcDbLine
10
-13.569316090176642
20
13.30227272727269
30
7.1054273576010019e-14
11
-13.569316090176713
21
-12.202272727272723
31
7.1054273576010019e-14
0
LINE
5
101
100
AcDbEntity
8
0
100
AcDbLine
10
-13.569316090176642
20
-12.202272727272723
30
7.1054273576010019e-14
11
-6.0249999999999915
21
-12.202272727272723
31
7.1054273576010019e-14
0
LINE
5
102
100
AcDbEntity
8
0
100
AcDbLine
10
-6.0250000000000625
20
-12.202272727272723
30
-7.1054273576010019e-14
11
-6.0249999999999915
21
-13.302272727272726
31
-7.1054273576010019e-14
0
LINE
5
103
100
AcDbEntity
8
0
100
AcDbLine
10
-6.0249999999999204
20
-13.302272727272726
30
7.1054273576010019e-14
11
6.0250000000000608
21
-13.302272727272726
31
7.1054273576010019e-14
0
LINE
5
104
100
AcDbEntity
8
0
100
AcDbLine
10
6.0250000000000625
20
-13.302272727272726
30
-7.1054273576010019e-14
11
6.0249999999999915
21
-12.202272727272723
31
-7.1054273576010031e-14
0
LINE
5
105
100
AcDbEntity
8
0
100
AcDbLine
10
6.0249999999998494
20
-12.202272727272723
30
-1.4210854715202004e-13
11
13.5693160901765
21
-12.202272727272723
31
-1.4210854715202004e-13
0
LINE
5
106
100
AcDbEntity
8
0
100
AcDbLine
10
13.569316090176571
20
-12.202272727272723
30
0
11
13.569316090176784
21
-5.7857430588352177
31
1.4791141972893971e-29
0
LINE
5
107
100
AcDbEntity
8
0
100
AcDbLine
10
13.569316090176855
20
-5.7857430588352177
30
7.1054273576010019e-14
11
12.469316090176861
21
-5.7857430588352177
31
7.1054273576010019e-14
0
LINE
5
108
100
AcDbEntity
8
0
100
AcDbLine
10
12.469316090176719
20
-5.7857430588352177
30
0
11
12.469316090176648
21
13.302272727272726
31
-3.944304526105059e-30
0
LINE
5
109
100
AcDbEntity
8
0
100
AcDbLine
10
12.469316090176648
20
13.302272727272726
30
-1.4210854715202004e-13
11
8.0263143047308461
21
13.30227272727269
31
-1.4238610290817633e-13
0
LINE
5
110
100
AcDbEntity
8
0
100
AcDbLine
10
8.0263143047309171
20
13.30227272727269
30
0
11
8.0263143047309171
21
12.202272727272696
31
6.5789766900267977e-30
0
LINE
5
111
100
AcDbEntity
8
0
100
AcDbLine
10
8.0263143047308461
20
12.202272727272696
30
0
11
-5.7332966366998743
21
12.202272727272732
31
2.1754097175150258e-30
0
LINE
5
112
100
AcDbEntity
8
0
100
AcDbLine
10
-5.733296636699805
20
12.202272727272732
30
7.1054273576010019e-14
11
-5.733296636699734
21
13.302272727272726
31
7.1054273576010019e-14
0
LINE
5
113
100
AcDbEntity
8
0
100
AcDbLine
10
-5.7332966366996629
20
13.302272727272726
30
7.1054273576010019e-14
11
-13.569316090176571
21
13.30227272727269
31
7.1054273576010019e-14
0
LINE
5
114
100
AcDbEntity
8
0
100
AcDbLine
10
-10.550378090665191
20
5.120454545454507
30
-7.1054273576010019e-14
11
-10.550378090665191
21
10.525000000000002
31
-7.1054273576010019e-14
0
LINE
5
115
100
AcDbEntity
8
0
100
AcDbLine
10
-10.550378090665191
20
10.525000000000002
30
-7.1054273576010019e-14
11
-1.5094689997560118
21
10.52500000000002
31
-7.1054273576010019e-14
0
LINE
5
116
100
AcDbEntity
8
0
100
AcDbLine
10
-1.5094689997560096
20
10.52500000000002
30
0
11
-1.5094689997560096
21
5.120454545454507
31
6.1629758220391547e-32
0
LINE
5
117
100
AcDbEntity
8
0
100
AcDbLine
10
-1.5094689997560096
20
5.120454545454507
30
0
11
-10.550378090665189
21
5.120454545454507
31
2.0813348026475187e-48
0
LINE
5
118
100
AcDbEntity
8
0
100
AcDbLine
10
-10.550378090665191
20
-7.6068181818182179
30
-7.1054273576010019e-14
11
-10.550378090665191
21
-2.2022727272727138
31
-7.1054273576010019e-14
0
LINE
5
119
100
AcDbEntity
8
0
100
AcDbLine
10
-10.550378090665191
20
-2.2022727272727138
30
-7.1054273576010019e-14
11
-1.5094689997560118
21
-2.2022727272727138
31
-7.1054273576010019e-14
0
LINE
5
120
100
AcDbEntity
8
0
100
AcDbLine
10
-1.5094689997560096
20
-2.2022727272727138
30
0
11
-1.5094689997560096
21
-7.6068181818182179
31
0
0
LINE
5
121
100
AcDbEntity
8
0
100
AcDbLine
10
-1.5094689997560096
20
-7.6068181818182179
30
0
11
-10.550378090665189
21
-7.6068181818182179
31
2.0927821440620694e-48
0
LINE
5
122
100
AcDbEntity
8
0
100
AcDbLine
10
10.550378090664907
20
-7.6068181818182179
30
0
11
1.5094689997557276
21
-7.6068181818182179
31
2.0813348026475187e-48
0
LINE
5
123
100
AcDbEntity
8
0
100
AcDbLine
10
1.5094689997557964
20
-7.6068181818182179
30
0
11
1.5094689997557253
21
-2.2022727272727138
31
1.7256332301709633e-30
0
LINE
5
124
100
AcDbEntity
8
0
100
AcDbLine
10
1.5094689997557253
20
-2.2022727272727138
30
-1.4210854715202004e-13
11
10.550378090664978
21
-2.2022727272727138
31
-1.4210854715202004e-13
0
LINE
5
125
100
AcDbEntity
8
0
100
AcDbLine
10
10.550378090664907
20
-2.2022727272727138
30
0
11
10.550378090664907
21
-7.6068181818182179
31
0
0
LINE
5
126
100
AcDbEntity
8
0
100
AcDbLine
10
1.5094689997557964
20
5.120454545454507
30
0
11
1.5094689997557253
21
10.525000000000002
31
1.1709654061874394e-30
0
LINE
5
127
100
AcDbEntity
8
0
100
AcDbLine
10
1.5094689997557253
20
10.525000000000002
30
-1.4210854715202004e-13
11
10.550378090664978
21
10.52500000000002
31
-1.4210854715202004e-13
0
LINE
5
128
100
AcDbEntity
8
0
100
AcDbLine
10
10.550378090664907
20
10.52500000000002
30
0
11
10.550378090664907
21
5.120454545454507
31
6.1629758220391547e-32
0
LINE
5
129
100
AcDbEntity
8
0
100
AcDbLine
10
10.550378090664907
20
5.120454545454507
30
0
11
1.5094689997557276
21
5.120454545454507
31
2.0813348026475187e-48
0
ENDSEC
0
SECTION
2
OBJECTS
0
DICTIONARY
5
C
100
AcDbDictionary
3
ACAD_GROUP
350
D
3
ACAD_MLINESTYLE
350
17
0
DICTIONARY
5
D
100
AcDbDictionary
0
DICTIONARY
5
1A
330
C
100
AcDbDictionary
0
DICTIONARY
5
17
100
AcDbDictionary
0
ENDSEC
0
EOF
