  0
SECTION
  2
HEADER
  9
$ACADVER
  1
AC1009
  9
$EXTMIN
 10
0.0
 20
0.0
 30
0.0
  9
$EXTMAX
 10
1000.0
 20
1000.0
 30
0.0
  9
$FILLMODE
 70
 0
  9
$SPLFRAME
 70
 1
  0
ENDSEC
  0
SECTION
  2
TABLES
  0
TABLE
  2
LAYER
 70
1
  0
LAYER
  2
0
 70
     0
 62
     7
  6
CONTINUOUS
  0
ENDTAB
  0
ENDSEC
  0
SECTION
  2
ENTITIES
  0
POLYLINE
  8
0
 62
     0
 66
     1
 10
0
 20
0
 30
0.0
 70
     1
 40
0
 41
0
  0
VERTEX
  8
0
 10
14.2736
 20
123.553
 30
0.0
 40
0
 41
0
  0
VERTEX
  8
0
 10
18.2568
 20
120.566
 30
0.0
 40
0
 41
0
  0
VERTEX
  8
0
 10
18.2568
 20
117.539
 30
0.0
 40
0
 41
0
  0
VERTEX
  8
0
 10
17.2568
 20
117.539
 30
0.0
 40
0
 41
0
  0
VERTEX
  8
0
 10
17.2568
 20
114.614
 30
0.0
 40
0
 41
0
  0
VERTEX
  8
0
 10
18.2568
 20
114.614
 30
0.0
 40
0
 41
0
  0
VERTEX
  8
0
 10
18.2568
 20
97.981
 30
0.0
 40
0
 41
0
  0
VERTEX
  8
0
 10
17.2568
 20
97.981
 30
0.0
 40
0
 41
0
  0
VERTEX
  8
0
 10
17.2568
 20
95.056
 30
0.0
 40
0
 41
0
  0
VERTEX
  8
0
 10
18.2568
 20
95.056
 30
0.0
 40
0
 41
0
  0
VERTEX
  8
0
 10
18.2568
 20
75.4063
 30
0.0
 40
0
 41
0
  0
VERTEX
  8
0
 10
17.2568
 20
75.4063
 30
0.0
 40
0
 41
0
  0
VERTEX
  8
0
 10
17.2568
 20
72.4811
 30
0.0
 40
0
 41
0
  0
VERTEX
  8
0
 10
18.2568
 20
72.4811
 30
0.0
 40
0
 41
0
  0
VERTEX
  8
0
 10
18.2568
 20
60.4182
 30
0.0
 40
0
 41
0
  0
VERTEX
  8
0
 10
0
 20
60.4182
 30
0.0
 40
0
 41
0
  0
VERTEX
  8
0
 10
0
 20
72.4811
 30
0.0
 40
0
 41
0
  0
VERTEX
  8
0
 10
1
 20
72.4811
 30
0.0
 40
0
 41
0
  0
VERTEX
  8
0
 10
1
 20
75.4063
 30
0.0
 40
0
 41
0
  0
VERTEX
  8
0
 10
0
 20
75.4063
 30
0.0
 40
0
 41
0
  0
VERTEX
  8
0
 10
0
 20
95.056
 30
0.0
 40
0
 41
0
  0
VERTEX
  8
0
 10
1
 20
95.056
 30
0.0
 40
0
 41
0
  0
VERTEX
  8
0
 10
1
 20
97.981
 30
0.0
 40
0
 41
0
  0
VERTEX
  8
0
 10
0
 20
97.981
 30
0.0
 40
0
 41
0
  0
VERTEX
  8
0
 10
0
 20
114.614
 30
0.0
 40
0
 41
0
  0
VERTEX
  8
0
 10
1
 20
114.614
 30
0.0
 40
0
 41
0
  0
VERTEX
  8
0
 10
1
 20
117.539
 30
0.0
 40
0
 41
0
  0
VERTEX
  8
0
 10
0
 20
117.539
 30
0.0
 40
0
 41
0
  0
VERTEX
  8
0
 10
0
 20
120.566
 30
0.0
 40
0
 41
0
  0
VERTEX
  8
0
 10
4.11654
 20
123.653
 30
0.0
 40
0
 41
0
  0
VERTEX
  8
0
 10
3.5165
 20
124.453
 30
0.0
 40
0
 41
0
  0
VERTEX
  8
0
 10
5.97651
 20
126.298
 30
0.0
 40
0
 41
0
  0
VERTEX
  8
0
 10
6.5765
 20
125.498
 30
0.0
 40
0
 41
0
  0
VERTEX
  8
0
 10
9.12842
 20
127.412
 30
0.0
 40
0
 41
0
  0
VERTEX
  8
0
 10
11.8136
 20
125.398
 30
0.0
 40
0
 41
0
  0
VERTEX
  8
0
 10
12.4137
 20
126.198
 30
0.0
 40
0
 41
0
  0
VERTEX
  8
0
 10
14.8736
 20
124.353
 30
0.0
 40
0
 41
0
  0
VERTEX
  8
0
 10
14.2736
 20
123.553
 30
0.0
 40
0
 41
0
  0
SEQEND
 8
0
  0
POLYLINE
  8
0
 62
     0
 66
     1
 10
0
 20
0
 30
0.0
 70
     1
 40
0
 41
0
  0
VERTEX
  8
0
 10
10.2273
 20
120.547
 30
0.0
 40
0
 41
0
  0
VERTEX
  8
0
 10
10.2273
 20
120.491
 30
0.0
 40
0
 41
0
  0
VERTEX
  8
0
 10
10.2049
 20
120.325
 30
0.0
 40
0
 41
0
  0
VERTEX
  8
0
 10
10.1409
 20
120.119
 30
0.0
 40
0
 41
0
  0
VERTEX
  8
0
 10
10.0396
 20
119.932
 30
0.0
 40
0
 41
0
  0
VERTEX
  8
0
 10
9.90539
 20
119.77
 30
0.0
 40
0
 41
0
  0
VERTEX
  8
0
 10
9.74278
 20
119.636
 30
0.0
 40
0
 41
0
  0
VERTEX
  8
0
 10
9.5561
 20
119.534
 30
0.0
 40
0
 41
0
  0
VERTEX
  8
0
 10
9.34983
 20
119.47
 30
0.0
 40
0
 41
0
  0
VERTEX
  8
0
 10
9.18375
 20
119.448
 30
0.0
 40
0
 41
0
  0
VERTEX
  8
0
 10
9.12842
 20
119.448
 30
0.0
 40
0
 41
0
  0
VERTEX
  8
0
 10
9.07303
 20
119.448
 30
0.0
 40
0
 41
0
  0
VERTEX
  8
0
 10
8.90696
 20
119.47
 30
0.0
 40
0
 41
0
  0
VERTEX
  8
0
 10
8.70068
 20
119.534
 30
0.0
 40
0
 41
0
  0
VERTEX
  8
0
 10
8.514
 20
119.636
 30
0.0
 40
0
 41
0
  0
VERTEX
  8
0
 10
8.3514
 20
119.77
 30
0.0
 40
0
 41
0
  0
VERTEX
  8
0
 10
8.21724
 20
119.932
 30
0.0
 40
0
 41
0
  0
VERTEX
  8
0
 10
8.11589
 20
120.119
 30
0.0
 40
0
 41
0
  0
VERTEX
  8
0
 10
8.05186
 20
120.325
 30
0.0
 40
0
 41
0
  0
VERTEX
  8
0
 10
8.02957
 20
120.491
 30
0.0
 40
0
 41
0
  0
VERTEX
  8
0
 10
8.02957
 20
120.547
 30
0.0
 40
0
 41
0
  0
VERTEX
  8
0
 10
8.02957
 20
120.602
 30
0.0
 40
0
 41
0
  0
VERTEX
  8
0
 10
8.05186
 20
120.768
 30
0.0
 40
0
 41
0
  0
VERTEX
  8
0
 10
8.11589
 20
120.974
 30
0.0
 40
0
 41
0
  0
VERTEX
  8
0
 10
8.21724
 20
121.161
 30
0.0
 40
0
 41
0
  0
VERTEX
  8
0
 10
8.3514
 20
121.324
 30
0.0
 40
0
 41
0
  0
VERTEX
  8
0
 10
8.514
 20
121.458
 30
0.0
 40
0
 41
0
  0
VERTEX
  8
0
 10
8.70068
 20
121.559
 30
0.0
 40
0
 41
0
  0
VERTEX
  8
0
 10
8.90696
 20
121.623
 30
0.0
 40
0
 41
0
  0
VERTEX
  8
0
 10
9.07303
 20
121.646
 30
0.0
 40
0
 41
0
  0
VERTEX
  8
0
 10
9.12842
 20
121.646
 30
0.0
 40
0
 41
0
  0
VERTEX
  8
0
 10
9.18375
 20
121.646
 30
0.0
 40
0
 41
0
  0
VERTEX
  8
0
 10
9.34983
 20
121.623
 30
0.0
 40
0
 41
0
  0
VERTEX
  8
0
 10
9.5561
 20
121.559
 30
0.0
 40
0
 41
0
  0
VERTEX
  8
0
 10
9.74278
 20
121.458
 30
0.0
 40
0
 41
0
  0
VERTEX
  8
0
 10
9.90539
 20
121.324
 30
0.0
 40
0
 41
0
  0
VERTEX
  8
0
 10
10.0396
 20
121.161
 30
0.0
 40
0
 41
0
  0
VERTEX
  8
0
 10
10.1409
 20
120.974
 30
0.0
 40
0
 41
0
  0
VERTEX
  8
0
 10
10.2049
 20
120.768
 30
0.0
 40
0
 41
0
  0
VERTEX
  8
0
 10
10.2273
 20
120.602
 30
0.0
 40
0
 41
0
  0
VERTEX
  8
0
 10
10.2273
 20
120.547
 30
0.0
 40
0
 41
0
  0
SEQEND
 8
0
  0
POLYLINE
  8
0
 62
     0
 66
     1
 10
0
 20
0
 30
0.0
 70
     1
 40
0
 41
0
  0
VERTEX
  8
0
 10
7.81494
 20
61.4933
 30
0.0
 40
0
 41
0
  0
VERTEX
  8
0
 10
16.8308
 20
61.4933
 30
0.0
 40
0
 41
0
  0
VERTEX
  8
0
 10
16.8308
 20
69.6224
 30
0.0
 40
0
 41
0
  0
VERTEX
  8
0
 10
16.7206
 20
69.7358
 30
0.0
 40
0
 41
0
  0
VERTEX
  8
0
 10
16.3669
 20
70.054
 30
0.0
 40
0
 41
0
  0
VERTEX
  8
0
 10
15.866
 20
70.4339
 30
0.0
 40
0
 41
0
  0
VERTEX
  8
0
 10
15.3321
 20
70.7604
 30
0.0
 40
0
 41
0
  0
VERTEX
  8
0
 10
14.7699
 20
71.0317
 30
0.0
 40
0
 41
0
  0
VERTEX
  8
0
 10
14.1835
 20
71.2458
 30
0.0
 40
0
 41
0
  0
VERTEX
  8
0
 10
13.5773
 20
71.4011
 30
0.0
 40
0
 41
0
  0
VERTEX
  8
0
 10
12.9556
 20
71.4956
 30
0.0
 40
0
 41
0
  0
VERTEX
  8
0
 10
12.481
 20
71.5275
 30
0.0
 40
0
 41
0
  0
VERTEX
  8
0
 10
12.3229
 20
71.5275
 30
0.0
 40
0
 41
0
  0
VERTEX
  8
0
 10
12.1647
 20
71.5275
 30
0.0
 40
0
 41
0
  0
VERTEX
  8
0
 10
11.6901
 20
71.4956
 30
0.0
 40
0
 41
0
  0
VERTEX
  8
0
 10
11.0685
 20
71.4011
 30
0.0
 40
0
 41
0
  0
VERTEX
  8
0
 10
10.4622
 20
71.2458
 30
0.0
 40
0
 41
0
  0
VERTEX
  8
0
 10
9.87587
 20
71.0317
 30
0.0
 40
0
 41
0
  0
VERTEX
  8
0
 10
9.31358
 20
70.7604
 30
0.0
 40
0
 41
0
  0
VERTEX
  8
0
 10
8.77979
 20
70.4339
 30
0.0
 40
0
 41
0
  0
VERTEX
  8
0
 10
8.27875
 20
70.054
 30
0.0
 40
0
 41
0
  0
VERTEX
  8
0
 10
7.92518
 20
69.7358
 30
0.0
 40
0
 41
0
  0
VERTEX
  8
0
 10
7.81494
 20
69.6224
 30
0.0
 40
0
 41
0
  0
VERTEX
  8
0
 10
7.81494
 20
61.4933
 30
0.0
 40
0
 41
0
  0
SEQEND
 8
0
  0
POLYLINE
  8
0
 62
     0
 66
     1
 10
0
 20
0
 30
0.0
 70
     1
 40
0
 41
0
  0
VERTEX
  8
0
 10
13.6364
 20
79.6751
 30
0.0
 40
0
 41
0
  0
VERTEX
  8
0
 10
13.6364
 20
85.0685
 30
0.0
 40
0
 41
0
  0
VERTEX
  8
0
 10
13.5032
 20
85.1321
 30
0.0
 40
0
 41
0
  0
VERTEX
  8
0
 10
13.0966
 20
85.3078
 30
0.0
 40
0
 41
0
  0
VERTEX
  8
0
 10
12.5473
 20
85.5153
 30
0.0
 40
0
 41
0
  0
VERTEX
  8
0
 10
11.9899
 20
85.6907
 30
0.0
 40
0
 41
0
  0
VERTEX
  8
0
 10
11.4257
 20
85.8343
 30
0.0
 40
0
 41
0
  0
VERTEX
  8
0
 10
10.8561
 20
85.946
 30
0.0
 40
0
 41
0
  0
VERTEX
  8
0
 10
10.2825
 20
86.0257
 30
0.0
 40
0
 41
0
  0
VERTEX
  8
0
 10
9.70611
 20
86.0736
 30
0.0
 40
0
 41
0
  0
VERTEX
  8
0
 10
9.12842
 20
86.0896
 30
0.0
 40
0
 41
0
  0
VERTEX
  8
0
 10
8.55067
 20
86.0736
 30
0.0
 40
0
 41
0
  0
VERTEX
  8
0
 10
7.97428
 20
86.0257
 30
0.0
 40
0
 41
0
  0
VERTEX
  8
0
 10
7.40067
 20
85.946
 30
0.0
 40
0
 41
0
  0
VERTEX
  8
0
 10
6.83106
 20
85.8343
 30
0.0
 40
0
 41
0
  0
VERTEX
  8
0
 10
6.26687
 20
85.6907
 30
0.0
 40
0
 41
0
  0
VERTEX
  8
0
 10
5.70947
 20
85.5153
 30
0.0
 40
0
 41
0
  0
VERTEX
  8
0
 10
5.16021
 20
85.3078
 30
0.0
 40
0
 41
0
  0
VERTEX
  8
0
 10
4.75358
 20
85.1321
 30
0.0
 40
0
 41
0
  0
VERTEX
  8
0
 10
4.62044
 20
85.0685
 30
0.0
 40
0
 41
0
  0
VERTEX
  8
0
 10
4.62044
 20
79.6751
 30
0.0
 40
0
 41
0
  0
VERTEX
  8
0
 10
13.6364
 20
79.6751
 30
0.0
 40
0
 41
0
  0
SEQEND
 8
0
  0
POLYLINE
  8
0
 62
     0
 66
     1
 10
0
 20
0
 30
0.0
 70
     1
 40
0
 41
0
  0
VERTEX
  8
0
 10
4.62044
 20
93.3115
 30
0.0
 40
0
 41
0
  0
VERTEX
  8
0
 10
13.6364
 20
93.3115
 30
0.0
 40
0
 41
0
  0
VERTEX
  8
0
 10
13.6364
 20
98.7049
 30
0.0
 40
0
 41
0
  0
VERTEX
  8
0
 10
13.5032
 20
98.7685
 30
0.0
 40
0
 41
0
  0
VERTEX
  8
0
 10
13.0966
 20
98.9442
 30
0.0
 40
0
 41
0
  0
VERTEX
  8
0
 10
12.5473
 20
99.1517
 30
0.0
 40
0
 41
0
  0
VERTEX
  8
0
 10
11.9899
 20
99.3271
 30
0.0
 40
0
 41
0
  0
VERTEX
  8
0
 10
11.4257
 20
99.4707
 30
0.0
 40
0
 41
0
  0
VERTEX
  8
0
 10
10.8561
 20
99.5824
 30
0.0
 40
0
 41
0
  0
VERTEX
  8
0
 10
10.2825
 20
99.6621
 30
0.0
 40
0
 41
0
  0
VERTEX
  8
0
 10
9.70611
 20
99.71
 30
0.0
 40
0
 41
0
  0
VERTEX
  8
0
 10
9.12842
 20
99.726
 30
0.0
 40
0
 41
0
  0
VERTEX
  8
0
 10
8.55067
 20
99.71
 30
0.0
 40
0
 41
0
  0
VERTEX
  8
0
 10
7.97428
 20
99.6621
 30
0.0
 40
0
 41
0
  0
VERTEX
  8
0
 10
7.40067
 20
99.5824
 30
0.0
 40
0
 41
0
  0
VERTEX
  8
0
 10
6.83106
 20
99.4707
 30
0.0
 40
0
 41
0
  0
VERTEX
  8
0
 10
6.26687
 20
99.3271
 30
0.0
 40
0
 41
0
  0
VERTEX
  8
0
 10
5.70947
 20
99.1517
 30
0.0
 40
0
 41
0
  0
VERTEX
  8
0
 10
5.16021
 20
98.9442
 30
0.0
 40
0
 41
0
  0
VERTEX
  8
0
 10
4.75358
 20
98.7685
 30
0.0
 40
0
 41
0
  0
VERTEX
  8
0
 10
4.62044
 20
98.7049
 30
0.0
 40
0
 41
0
  0
VERTEX
  8
0
 10
4.62044
 20
93.3115
 30
0.0
 40
0
 41
0
  0
SEQEND
 8
0
  0
POLYLINE
  8
0
 62
     0
 66
     1
 10
0
 20
0
 30
0.0
 70
     1
 40
0
 41
0
  0
VERTEX
  8
0
 10
3.17101
 20
112.327
 30
0.0
 40
0
 41
0
  0
VERTEX
  8
0
 10
7.18696
 20
112.327
 30
0.0
 40
0
 41
0
  0
VERTEX
  8
0
 10
7.18696
 20
106.948
 30
0.0
 40
0
 41
0
  0
VERTEX
  8
0
 10
3.17101
 20
106.948
 30
0.0
 40
0
 41
0
  0
VERTEX
  8
0
 10
3.17101
 20
112.327
 30
0.0
 40
0
 41
0
  0
SEQEND
 8
0
  0
POLYLINE
  8
0
 62
     0
 66
     1
 10
0
 20
0
 30
0.0
 70
     1
 40
0
 41
0
  0
VERTEX
  8
0
 10
11.0699
 20
112.327
 30
0.0
 40
0
 41
0
  0
VERTEX
  8
0
 10
15.0858
 20
112.327
 30
0.0
 40
0
 41
0
  0
VERTEX
  8
0
 10
15.0858
 20
106.948
 30
0.0
 40
0
 41
0
  0
VERTEX
  8
0
 10
11.0699
 20
106.948
 30
0.0
 40
0
 41
0
  0
VERTEX
  8
0
 10
11.0699
 20
112.327
 30
0.0
 40
0
 41
0
  0
SEQEND
 8
0
  0
POLYLINE
  8
0
 62
     0
 66
     1
 10
0
 20
0
 30
0.0
 70
     1
 40
0
 41
0
  0
VERTEX
  8
0
 10
2.24451
 20
70.5092
 30
0.0
 40
0
 41
0
  0
VERTEX
  8
0
 10
5.80588
 20
70.5092
 30
0.0
 40
0
 41
0
  0
VERTEX
  8
0
 10
5.80588
 20
61.4933
 30
0.0
 40
0
 41
0
  0
VERTEX
  8
0
 10
2.24451
 20
61.4933
 30
0.0
 40
0
 41
0
  0
VERTEX
  8
0
 10
2.24451
 20
70.5092
 30
0.0
 40
0
 41
0
  0
SEQEND
 8
0
  0
POLYLINE
  8
0
 62
     0
 66
     1
 10
0
 20
0
 30
0.0
 70
     1
 40
0
 41
0
  0
VERTEX
  8
0
 10
38.3599
 20
80.5719
 30
0.0
 40
0
 41
0
  0
VERTEX
  8
0
 10
38.3599
 20
68.584
 30
0.0
 40
0
 41
0
  0
VERTEX
  8
0
 10
22.1031
 20
68.584
 30
0.0
 40
0
 41
0
  0
VERTEX
  8
0
 10
22.1031
 20
80.5719
 30
0.0
 40
0
 41
0
  0
VERTEX
  8
0
 10
21.1031
 20
80.5719
 30
0.0
 40
0
 41
0
  0
VERTEX
  8
0
 10
21.1031
 20
83.6469
 30
0.0
 40
0
 41
0
  0
VERTEX
  8
0
 10
22.1031
 20
83.6469
 30
0.0
 40
0
 41
0
  0
VERTEX
  8
0
 10
22.1031
 20
103.147
 30
0.0
 40
0
 41
0
  0
VERTEX
  8
0
 10
21.1031
 20
103.147
 30
0.0
 40
0
 41
0
  0
VERTEX
  8
0
 10
21.1031
 20
106.222
 30
0.0
 40
0
 41
0
  0
VERTEX
  8
0
 10
22.1031
 20
106.222
 30
0.0
 40
0
 41
0
  0
VERTEX
  8
0
 10
22.1031
 20
122.705
 30
0.0
 40
0
 41
0
  0
VERTEX
  8
0
 10
21.1031
 20
122.705
 30
0.0
 40
0
 41
0
  0
VERTEX
  8
0
 10
21.1031
 20
125.78
 30
0.0
 40
0
 41
0
  0
VERTEX
  8
0
 10
22.1031
 20
125.78
 30
0.0
 40
0
 41
0
  0
VERTEX
  8
0
 10
22.1031
 20
128.75
 30
0.0
 40
0
 41
0
  0
VERTEX
  8
0
 10
38.3599
 20
128.75
 30
0.0
 40
0
 41
0
  0
VERTEX
  8
0
 10
38.3599
 20
125.78
 30
0.0
 40
0
 41
0
  0
VERTEX
  8
0
 10
39.3599
 20
125.78
 30
0.0
 40
0
 41
0
  0
VERTEX
  8
0
 10
39.3599
 20
122.705
 30
0.0
 40
0
 41
0
  0
VERTEX
  8
0
 10
38.3599
 20
122.705
 30
0.0
 40
0
 41
0
  0
VERTEX
  8
0
 10
38.3599
 20
106.222
 30
0.0
 40
0
 41
0
  0
VERTEX
  8
0
 10
39.3599
 20
106.222
 30
0.0
 40
0
 41
0
  0
VERTEX
  8
0
 10
39.3599
 20
103.147
 30
0.0
 40
0
 41
0
  0
VERTEX
  8
0
 10
38.3599
 20
103.147
 30
0.0
 40
0
 41
0
  0
VERTEX
  8
0
 10
38.3599
 20
83.6469
 30
0.0
 40
0
 41
0
  0
VERTEX
  8
0
 10
39.3599
 20
83.6469
 30
0.0
 40
0
 41
0
  0
VERTEX
  8
0
 10
39.3599
 20
80.5719
 30
0.0
 40
0
 41
0
  0
VERTEX
  8
0
 10
38.3599
 20
80.5719
 30
0.0
 40
0
 41
0
  0
SEQEND
 8
0
  0
POLYLINE
  8
0
 62
     0
 66
     1
 10
0
 20
0
 30
0.0
 70
     1
 40
0
 41
0
  0
VERTEX
  8
0
 10
23.866
 20
83.2204
 30
0.0
 40
0
 41
0
  0
VERTEX
  8
0
 10
25.791
 20
83.2204
 30
0.0
 40
0
 41
0
  0
VERTEX
  8
0
 10
25.791
 20
82.2954
 30
0.0
 40
0
 41
0
  0
VERTEX
  8
0
 10
23.866
 20
82.2954
 30
0.0
 40
0
 41
0
  0
VERTEX
  8
0
 10
23.866
 20
83.2204
 30
0.0
 40
0
 41
0
  0
SEQEND
 8
0
  0
POLYLINE
  8
0
 62
     0
 66
     1
 10
0
 20
0
 30
0.0
 70
     1
 40
0
 41
0
  0
VERTEX
  8
0
 10
29.2518
 20
92.3113
 30
0.0
 40
0
 41
0
  0
VERTEX
  8
0
 10
32.3586
 20
92.3113
 30
0.0
 40
0
 41
0
  0
VERTEX
  8
0
 10
32.3586
 20
83.2954
 30
0.0
 40
0
 41
0
  0
VERTEX
  8
0
 10
29.2518
 20
83.2954
 30
0.0
 40
0
 41
0
  0
VERTEX
  8
0
 10
29.2518
 20
92.3113
 30
0.0
 40
0
 41
0
  0
SEQEND
 8
0
  0
POLYLINE
  8
0
 62
     0
 66
     1
 10
0
 20
0
 30
0.0
 70
     1
 40
0
 41
0
  0
VERTEX
  8
0
 10
33.5707
 20
83.2204
 30
0.0
 40
0
 41
0
  0
VERTEX
  8
0
 10
35.4957
 20
83.2204
 30
0.0
 40
0
 41
0
  0
VERTEX
  8
0
 10
35.4957
 20
82.2954
 30
0.0
 40
0
 41
0
  0
VERTEX
  8
0
 10
33.5707
 20
82.2954
 30
0.0
 40
0
 41
0
  0
VERTEX
  8
0
 10
33.5707
 20
83.2204
 30
0.0
 40
0
 41
0
  0
SEQEND
 8
0
  0
POLYLINE
  8
0
 62
     0
 66
     1
 10
0
 20
0
 30
0.0
 70
     1
 40
0
 41
0
  0
VERTEX
  8
0
 10
33.5079
 20
96.8568
 30
0.0
 40
0
 41
0
  0
VERTEX
  8
0
 10
35.4329
 20
96.8568
 30
0.0
 40
0
 41
0
  0
VERTEX
  8
0
 10
35.4329
 20
95.9318
 30
0.0
 40
0
 41
0
  0
VERTEX
  8
0
 10
33.5079
 20
95.9318
 30
0.0
 40
0
 41
0
  0
VERTEX
  8
0
 10
33.5079
 20
96.8568
 30
0.0
 40
0
 41
0
  0
SEQEND
 8
0
  0
POLYLINE
  8
0
 62
     0
 66
     1
 10
0
 20
0
 30
0.0
 70
     1
 40
0
 41
0
  0
VERTEX
  8
0
 10
27.1781
 20
105.948
 30
0.0
 40
0
 41
0
  0
VERTEX
  8
0
 10
30.2849
 20
105.948
 30
0.0
 40
0
 41
0
  0
VERTEX
  8
0
 10
30.2849
 20
96.9318
 30
0.0
 40
0
 41
0
  0
VERTEX
  8
0
 10
27.1781
 20
96.9318
 30
0.0
 40
0
 41
0
  0
VERTEX
  8
0
 10
27.1781
 20
105.948
 30
0.0
 40
0
 41
0
  0
SEQEND
 8
0
  0
POLYLINE
  8
0
 62
     0
 66
     1
 10
0
 20
0
 30
0.0
 70
     1
 40
0
 41
0
  0
VERTEX
  8
0
 10
23.8032
 20
110.493
 30
0.0
 40
0
 41
0
  0
VERTEX
  8
0
 10
25.7282
 20
110.493
 30
0.0
 40
0
 41
0
  0
VERTEX
  8
0
 10
25.7282
 20
109.568
 30
0.0
 40
0
 41
0
  0
VERTEX
  8
0
 10
23.8032
 20
109.568
 30
0.0
 40
0
 41
0
  0
VERTEX
  8
0
 10
23.8032
 20
110.493
 30
0.0
 40
0
 41
0
  0
SEQEND
 8
0
  0
POLYLINE
  8
0
 62
     0
 66
     1
 10
0
 20
0
 30
0.0
 70
     1
 40
0
 41
0
  0
VERTEX
  8
0
 10
29.1781
 20
119.584
 30
0.0
 40
0
 41
0
  0
VERTEX
  8
0
 10
32.2849
 20
119.584
 30
0.0
 40
0
 41
0
  0
VERTEX
  8
0
 10
32.2849
 20
110.568
 30
0.0
 40
0
 41
0
  0
VERTEX
  8
0
 10
29.1781
 20
110.568
 30
0.0
 40
0
 41
0
  0
VERTEX
  8
0
 10
29.1781
 20
119.584
 30
0.0
 40
0
 41
0
  0
SEQEND
 8
0
  0
POLYLINE
  8
0
 62
     0
 66
     1
 10
0
 20
0
 30
0.0
 70
     1
 40
0
 41
0
  0
VERTEX
  8
0
 10
33.5079
 20
110.493
 30
0.0
 40
0
 41
0
  0
VERTEX
  8
0
 10
35.4329
 20
110.493
 30
0.0
 40
0
 41
0
  0
VERTEX
  8
0
 10
35.4329
 20
109.568
 30
0.0
 40
0
 41
0
  0
VERTEX
  8
0
 10
33.5079
 20
109.568
 30
0.0
 40
0
 41
0
  0
VERTEX
  8
0
 10
33.5079
 20
110.493
 30
0.0
 40
0
 41
0
  0
SEQEND
 8
0
  0
POLYLINE
  8
0
 62
     0
 66
     1
 10
0
 20
0
 30
0.0
 70
     1
 40
0
 41
0
  0
VERTEX
  8
0
 10
23.8032
 20
96.8568
 30
0.0
 40
0
 41
0
  0
VERTEX
  8
0
 10
25.7282
 20
96.8568
 30
0.0
 40
0
 41
0
  0
VERTEX
  8
0
 10
25.7282
 20
95.9318
 30
0.0
 40
0
 41
0
  0
VERTEX
  8
0
 10
23.8032
 20
95.9318
 30
0.0
 40
0
 41
0
  0
VERTEX
  8
0
 10
23.8032
 20
96.8568
 30
0.0
 40
0
 41
0
  0
SEQEND
 8
0
  0
POLYLINE
  8
0
 62
     0
 66
     1
 10
0
 20
0
 30
0.0
 70
     1
 40
0
 41
0
  0
VERTEX
  8
0
 10
0
 20
43.1614
 30
0.0
 40
0
 41
0
  0
VERTEX
  8
0
 10
0
 20
58.4182
 30
0.0
 40
0
 41
0
  0
VERTEX
  8
0
 10
60.166
 20
58.4182
 30
0.0
 40
0
 41
0
  0
VERTEX
  8
0
 10
60.166
 20
43.1614
 30
0.0
 40
0
 41
0
  0
VERTEX
  8
0
 10
41.7233
 20
43.1614
 30
0.0
 40
0
 41
0
  0
VERTEX
  8
0
 10
41.7233
 20
42.1614
 30
0.0
 40
0
 41
0
  0
VERTEX
  8
0
 10
38.6483
 20
42.1614
 30
0.0
 40
0
 41
0
  0
VERTEX
  8
0
 10
38.6483
 20
43.1614
 30
0.0
 40
0
 41
0
  0
VERTEX
  8
0
 10
19.875
 20
43.1614
 30
0.0
 40
0
 41
0
  0
VERTEX
  8
0
 10
19.875
 20
42.1614
 30
0.0
 40
0
 41
0
  0
VERTEX
  8
0
 10
16.7999
 20
42.1614
 30
0.0
 40
0
 41
0
  0
VERTEX
  8
0
 10
16.7999
 20
43.1614
 30
0.0
 40
0
 41
0
  0
VERTEX
  8
0
 10
0
 20
43.1614
 30
0.0
 40
0
 41
0
  0
SEQEND
 8
0
  0
POLYLINE
  8
0
 62
     0
 66
     1
 10
0
 20
0
 30
0.0
 70
     1
 40
0
 41
0
  0
VERTEX
  8
0
 10
35.9025
 20
54.0574
 30
0.0
 40
0
 41
0
  0
VERTEX
  8
0
 10
40.4546
 20
54.0574
 30
0.0
 40
0
 41
0
  0
VERTEX
  8
0
 10
40.4546
 20
51.8596
 30
0.0
 40
0
 41
0
  0
VERTEX
  8
0
 10
35.9025
 20
51.8596
 30
0.0
 40
0
 41
0
  0
VERTEX
  8
0
 10
35.9025
 20
54.0574
 30
0.0
 40
0
 41
0
  0
SEQEND
 8
0
  0
POLYLINE
  8
0
 62
     0
 66
     1
 10
0
 20
0
 30
0.0
 70
     1
 40
0
 41
0
  0
VERTEX
  8
0
 10
22.2661
 20
48.1228
 30
0.0
 40
0
 41
0
  0
VERTEX
  8
0
 10
26.8182
 20
48.1228
 30
0.0
 40
0
 41
0
  0
VERTEX
  8
0
 10
26.8182
 20
45.9251
 30
0.0
 40
0
 41
0
  0
VERTEX
  8
0
 10
22.2661
 20
45.9251
 30
0.0
 40
0
 41
0
  0
VERTEX
  8
0
 10
22.2661
 20
48.1228
 30
0.0
 40
0
 41
0
  0
SEQEND
 8
0
  0
POLYLINE
  8
0
 62
     0
 66
     1
 10
0
 20
0
 30
0.0
 70
     1
 40
0
 41
0
  0
VERTEX
  8
0
 10
8.62967
 20
56.4451
 30
0.0
 40
0
 41
0
  0
VERTEX
  8
0
 10
13.1819
 20
56.4451
 30
0.0
 40
0
 41
0
  0
VERTEX
  8
0
 10
13.1819
 20
54.2475
 30
0.0
 40
0
 41
0
  0
VERTEX
  8
0
 10
8.62967
 20
54.2475
 30
0.0
 40
0
 41
0
  0
VERTEX
  8
0
 10
8.62967
 20
56.4451
 30
0.0
 40
0
 41
0
  0
SEQEND
 8
0
  0
POLYLINE
  8
0
 62
     0
 66
     1
 10
0
 20
0
 30
0.0
 70
     1
 40
0
 41
0
  0
VERTEX
  8
0
 10
63.166
 20
97.7111
 30
0.0
 40
0
 41
0
  0
VERTEX
  8
0
 10
62.166
 20
97.7111
 30
0.0
 40
0
 41
0
  0
VERTEX
  8
0
 10
62.166
 20
114.344
 30
0.0
 40
0
 41
0
  0
VERTEX
  8
0
 10
63.166
 20
114.344
 30
0.0
 40
0
 41
0
  0
VERTEX
  8
0
 10
63.166
 20
117.269
 30
0.0
 40
0
 41
0
  0
VERTEX
  8
0
 10
62.166
 20
117.269
 30
0.0
 40
0
 41
0
  0
VERTEX
  8
0
 10
62.166
 20
120.296
 30
0.0
 40
0
 41
0
  0
VERTEX
  8
0
 10
66.1492
 20
123.283
 30
0.0
 40
0
 41
0
  0
VERTEX
  8
0
 10
65.5492
 20
124.083
 30
0.0
 40
0
 41
0
  0
VERTEX
  8
0
 10
68.0092
 20
125.928
 30
0.0
 40
0
 41
0
  0
VERTEX
  8
0
 10
68.6092
 20
125.128
 30
0.0
 40
0
 41
0
  0
VERTEX
  8
0
 10
71.2944
 20
127.142
 30
0.0
 40
0
 41
0
  0
VERTEX
  8
0
 10
73.8464
 20
125.228
 30
0.0
 40
0
 41
0
  0
VERTEX
  8
0
 10
74.4464
 20
126.028
 30
0.0
 40
0
 41
0
  0
VERTEX
  8
0
 10
76.9064
 20
124.183
 30
0.0
 40
0
 41
0
  0
VERTEX
  8
0
 10
76.3062
 20
123.383
 30
0.0
 40
0
 41
0
  0
VERTEX
  8
0
 10
80.4229
 20
120.296
 30
0.0
 40
0
 41
0
  0
VERTEX
  8
0
 10
80.4229
 20
117.269
 30
0.0
 40
0
 41
0
  0
VERTEX
  8
0
 10
79.4229
 20
117.269
 30
0.0
 40
0
 41
0
  0
VERTEX
  8
0
 10
79.4229
 20
114.344
 30
0.0
 40
0
 41
0
  0
VERTEX
  8
0
 10
80.4229
 20
114.344
 30
0.0
 40
0
 41
0
  0
VERTEX
  8
0
 10
80.4229
 20
97.7111
 30
0.0
 40
0
 41
0
  0
VERTEX
  8
0
 10
79.4229
 20
97.7111
 30
0.0
 40
0
 41
0
  0
VERTEX
  8
0
 10
79.4229
 20
94.7861
 30
0.0
 40
0
 41
0
  0
VERTEX
  8
0
 10
80.4229
 20
94.7861
 30
0.0
 40
0
 41
0
  0
VERTEX
  8
0
 10
80.4229
 20
75.1363
 30
0.0
 40
0
 41
0
  0
VERTEX
  8
0
 10
79.4229
 20
75.1363
 30
0.0
 40
0
 41
0
  0
VERTEX
  8
0
 10
79.4229
 20
72.2112
 30
0.0
 40
0
 41
0
  0
VERTEX
  8
0
 10
80.4229
 20
72.2112
 30
0.0
 40
0
 41
0
  0
VERTEX
  8
0
 10
80.4229
 20
60.1483
 30
0.0
 40
0
 41
0
  0
VERTEX
  8
0
 10
62.166
 20
60.1483
 30
0.0
 40
0
 41
0
  0
VERTEX
  8
0
 10
62.166
 20
72.2112
 30
0.0
 40
0
 41
0
  0
VERTEX
  8
0
 10
63.166
 20
72.2112
 30
0.0
 40
0
 41
0
  0
VERTEX
  8
0
 10
63.166
 20
75.1363
 30
0.0
 40
0
 41
0
  0
VERTEX
  8
0
 10
62.166
 20
75.1363
 30
0.0
 40
0
 41
0
  0
VERTEX
  8
0
 10
62.166
 20
94.7861
 30
0.0
 40
0
 41
0
  0
VERTEX
  8
0
 10
63.166
 20
94.7861
 30
0.0
 40
0
 41
0
  0
VERTEX
  8
0
 10
63.166
 20
97.7111
 30
0.0
 40
0
 41
0
  0
SEQEND
 8
0
  0
POLYLINE
  8
0
 62
     0
 66
     1
 10
0
 20
0
 30
0.0
 70
     1
 40
0
 41
0
  0
VERTEX
  8
0
 10
59.166
 20
117.348
 30
0.0
 40
0
 41
0
  0
VERTEX
  8
0
 10
59.166
 20
100.866
 30
0.0
 40
0
 41
0
  0
VERTEX
  8
0
 10
60.166
 20
100.866
 30
0.0
 40
0
 41
0
  0
VERTEX
  8
0
 10
60.166
 20
97.7906
 30
0.0
 40
0
 41
0
  0
VERTEX
  8
0
 10
59.166
 20
97.7906
 30
0.0
 40
0
 41
0
  0
VERTEX
  8
0
 10
59.166
 20
78.2907
 30
0.0
 40
0
 41
0
  0
VERTEX
  8
0
 10
60.166
 20
78.2907
 30
0.0
 40
0
 41
0
  0
VERTEX
  8
0
 10
60.166
 20
75.2157
 30
0.0
 40
0
 41
0
  0
VERTEX
  8
0
 10
59.166
 20
75.2157
 30
0.0
 40
0
 41
0
  0
VERTEX
  8
0
 10
59.166
 20
63.2278
 30
0.0
 40
0
 41
0
  0
VERTEX
  8
0
 10
42.9092
 20
63.2278
 30
0.0
 40
0
 41
0
  0
VERTEX
  8
0
 10
42.9092
 20
75.2157
 30
0.0
 40
0
 41
0
  0
VERTEX
  8
0
 10
41.9092
 20
75.2157
 30
0.0
 40
0
 41
0
  0
VERTEX
  8
0
 10
41.9092
 20
78.2907
 30
0.0
 40
0
 41
0
  0
VERTEX
  8
0
 10
42.9092
 20
78.2907
 30
0.0
 40
0
 41
0
  0
VERTEX
  8
0
 10
42.9092
 20
97.7906
 30
0.0
 40
0
 41
0
  0
VERTEX
  8
0
 10
41.9092
 20
97.7906
 30
0.0
 40
0
 41
0
  0
VERTEX
  8
0
 10
41.9092
 20
100.866
 30
0.0
 40
0
 41
0
  0
VERTEX
  8
0
 10
42.9092
 20
100.866
 30
0.0
 40
0
 41
0
  0
VERTEX
  8
0
 10
42.9092
 20
117.348
 30
0.0
 40
0
 41
0
  0
VERTEX
  8
0
 10
41.9092
 20
117.348
 30
0.0
 40
0
 41
0
  0
VERTEX
  8
0
 10
41.9092
 20
120.424
 30
0.0
 40
0
 41
0
  0
VERTEX
  8
0
 10
42.9092
 20
120.424
 30
0.0
 40
0
 41
0
  0
VERTEX
  8
0
 10
42.9092
 20
123.394
 30
0.0
 40
0
 41
0
  0
VERTEX
  8
0
 10
59.166
 20
123.394
 30
0.0
 40
0
 41
0
  0
VERTEX
  8
0
 10
59.166
 20
120.424
 30
0.0
 40
0
 41
0
  0
VERTEX
  8
0
 10
60.166
 20
120.424
 30
0.0
 40
0
 41
0
  0
VERTEX
  8
0
 10
60.166
 20
117.348
 30
0.0
 40
0
 41
0
  0
VERTEX
  8
0
 10
59.166
 20
117.348
 30
0.0
 40
0
 41
0
  0
SEQEND
 8
0
  0
POLYLINE
  8
0
 62
     0
 66
     1
 10
0
 20
0
 30
0.0
 70
     1
 40
0
 41
0
  0
VERTEX
  8
0
 10
54.5407
 20
115.219
 30
0.0
 40
0
 41
0
  0
VERTEX
  8
0
 10
57.6475
 20
115.219
 30
0.0
 40
0
 41
0
  0
VERTEX
  8
0
 10
57.6475
 20
109.757
 30
0.0
 40
0
 41
0
  0
VERTEX
  8
0
 10
54.5407
 20
109.757
 30
0.0
 40
0
 41
0
  0
VERTEX
  8
0
 10
54.5407
 20
115.219
 30
0.0
 40
0
 41
0
  0
SEQEND
 8
0
  0
POLYLINE
  8
0
 62
     0
 66
     1
 10
0
 20
0
 30
0.0
 70
     1
 40
0
 41
0
  0
VERTEX
  8
0
 10
46.2183
 20
101.582
 30
0.0
 40
0
 41
0
  0
VERTEX
  8
0
 10
49.3251
 20
101.582
 30
0.0
 40
0
 41
0
  0
VERTEX
  8
0
 10
49.3251
 20
96.121
 30
0.0
 40
0
 41
0
  0
VERTEX
  8
0
 10
46.2183
 20
96.121
 30
0.0
 40
0
 41
0
  0
VERTEX
  8
0
 10
46.2183
 20
101.582
 30
0.0
 40
0
 41
0
  0
SEQEND
 8
0
  0
POLYLINE
  8
0
 62
     0
 66
     1
 10
0
 20
0
 30
0.0
 70
     1
 40
0
 41
0
  0
VERTEX
  8
0
 10
52.1528
 20
87.946
 30
0.0
 40
0
 41
0
  0
VERTEX
  8
0
 10
55.2596
 20
87.946
 30
0.0
 40
0
 41
0
  0
VERTEX
  8
0
 10
55.2596
 20
82.4846
 30
0.0
 40
0
 41
0
  0
VERTEX
  8
0
 10
52.1528
 20
82.4846
 30
0.0
 40
0
 41
0
  0
VERTEX
  8
0
 10
52.1528
 20
87.946
 30
0.0
 40
0
 41
0
  0
SEQEND
 8
0
  0
POLYLINE
  8
0
 62
     0
 66
     1
 10
0
 20
0
 30
0.0
 70
     1
 40
0
 41
0
  0
VERTEX
  8
0
 10
1.79172
 20
40.1614
 30
0.0
 40
0
 41
0
  0
VERTEX
  8
0
 10
19.3979
 20
40.1614
 30
0.0
 40
0
 41
0
  0
VERTEX
  8
0
 10
19.3979
 20
39.1614
 30
0.0
 40
0
 41
0
  0
VERTEX
  8
0
 10
22.3229
 20
39.1614
 30
0.0
 40
0
 41
0
  0
VERTEX
  8
0
 10
22.3229
 20
40.1614
 30
0.0
 40
0
 41
0
  0
VERTEX
  8
0
 10
41.2463
 20
40.1614
 30
0.0
 40
0
 41
0
  0
VERTEX
  8
0
 10
41.2463
 20
39.1614
 30
0.0
 40
0
 41
0
  0
VERTEX
  8
0
 10
44.1714
 20
39.1614
 30
0.0
 40
0
 41
0
  0
VERTEX
  8
0
 10
44.1714
 20
40.1614
 30
0.0
 40
0
 41
0
  0
VERTEX
  8
0
 10
62.689
 20
40.1614
 30
0.0
 40
0
 41
0
  0
VERTEX
  8
0
 10
62.689
 20
23.9046
 30
0.0
 40
0
 41
0
  0
VERTEX
  8
0
 10
44.1714
 20
23.9046
 30
0.0
 40
0
 41
0
  0
VERTEX
  8
0
 10
44.1714
 20
24.9046
 30
0.0
 40
0
 41
0
  0
VERTEX
  8
0
 10
41.2463
 20
24.9046
 30
0.0
 40
0
 41
0
  0
VERTEX
  8
0
 10
41.2463
 20
23.9046
 30
0.0
 40
0
 41
0
  0
VERTEX
  8
0
 10
22.3229
 20
23.9046
 30
0.0
 40
0
 41
0
  0
VERTEX
  8
0
 10
22.3229
 20
24.9046
 30
0.0
 40
0
 41
0
  0
VERTEX
  8
0
 10
19.3979
 20
24.9046
 30
0.0
 40
0
 41
0
  0
VERTEX
  8
0
 10
19.3979
 20
23.9046
 30
0.0
 40
0
 41
0
  0
VERTEX
  8
0
 10
1.79172
 20
23.9046
 30
0.0
 40
0
 41
0
  0
VERTEX
  8
0
 10
0
 20
26.2935
 30
0.0
 40
0
 41
0
  0
VERTEX
  8
0
 10
0
 20
37.7725
 30
0.0
 40
0
 41
0
  0
VERTEX
  8
0
 10
1.79172
 20
40.1614
 30
0.0
 40
0
 41
0
  0
SEQEND
 8
0
  0
POLYLINE
  8
0
 62
     0
 66
     1
 10
0
 20
0
 30
0.0
 70
     1
 40
0
 41
0
  0
VERTEX
  8
0
 10
2.02294
 20
32.5704
 30
0.0
 40
0
 41
0
  0
VERTEX
  8
0
 10
2.02294
 20
32.9914
 30
0.0
 40
0
 41
0
  0
VERTEX
  8
0
 10
1.99007
 20
32.9731
 30
0.0
 40
0
 41
0
  0
VERTEX
  8
0
 10
1.89665
 20
32.9087
 30
0.0
 40
0
 41
0
  0
VERTEX
  8
0
 10
1.78342
 20
32.81
 30
0.0
 40
0
 41
0
  0
VERTEX
  8
0
 10
1.68474
 20
32.6968
 30
0.0
 40
0
 41
0
  0
VERTEX
  8
0
 10
1.62044
 20
32.6033
 30
0.0
 40
0
 41
0
  0
VERTEX
  8
0
 10
1.60206
 20
32.5704
 30
0.0
 40
0
 41
0
  0
VERTEX
  8
0
 10
2.02294
 20
32.5704
 30
0.0
 40
0
 41
0
  0
SEQEND
 8
0
  0
POLYLINE
  8
0
 62
     0
 66
     1
 10
0
 20
0
 30
0.0
 70
     1
 40
0
 41
0
  0
VERTEX
  8
0
 10
2.02294
 20
31.4956
 30
0.0
 40
0
 41
0
  0
VERTEX
  8
0
 10
1.60206
 20
31.4956
 30
0.0
 40
0
 41
0
  0
VERTEX
  8
0
 10
1.62044
 20
31.4626
 30
0.0
 40
0
 41
0
  0
VERTEX
  8
0
 10
1.68474
 20
31.3693
 30
0.0
 40
0
 41
0
  0
VERTEX
  8
0
 10
1.78342
 20
31.256
 30
0.0
 40
0
 41
0
  0
VERTEX
  8
0
 10
1.89665
 20
31.1572
 30
0.0
 40
0
 41
0
  0
VERTEX
  8
0
 10
1.99007
 20
31.0931
 30
0.0
 40
0
 41
0
  0
VERTEX
  8
0
 10
2.02294
 20
31.0746
 30
0.0
 40
0
 41
0
  0
VERTEX
  8
0
 10
2.02294
 20
31.4956
 30
0.0
 40
0
 41
0
  0
SEQEND
 8
0
  0
POLYLINE
  8
0
 62
     0
 66
     1
 10
0
 20
0
 30
0.0
 70
     1
 40
0
 41
0
  0
VERTEX
  8
0
 10
3.09799
 20
32.5704
 30
0.0
 40
0
 41
0
  0
VERTEX
  8
0
 10
3.51887
 20
32.5704
 30
0.0
 40
0
 41
0
  0
VERTEX
  8
0
 10
3.50043
 20
32.6033
 30
0.0
 40
0
 41
0
  0
VERTEX
  8
0
 10
3.43614
 20
32.6968
 30
0.0
 40
0
 41
0
  0
VERTEX
  8
0
 10
3.33746
 20
32.81
 30
0.0
 40
0
 41
0
  0
VERTEX
  8
0
 10
3.22418
 20
32.9087
 30
0.0
 40
0
 41
0
  0
VERTEX
  8
0
 10
3.13075
 20
32.9731
 30
0.0
 40
0
 41
0
  0
VERTEX
  8
0
 10
3.09799
 20
32.9914
 30
0.0
 40
0
 41
0
  0
VERTEX
  8
0
 10
3.09799
 20
32.5704
 30
0.0
 40
0
 41
0
  0
SEQEND
 8
0
  0
POLYLINE
  8
0
 62
     0
 66
     1
 10
0
 20
0
 30
0.0
 70
     1
 40
0
 41
0
  0
VERTEX
  8
0
 10
3.09799
 20
31.4956
 30
0.0
 40
0
 41
0
  0
VERTEX
  8
0
 10
3.51887
 20
31.4956
 30
0.0
 40
0
 41
0
  0
VERTEX
  8
0
 10
3.50043
 20
31.4626
 30
0.0
 40
0
 41
0
  0
VERTEX
  8
0
 10
3.43614
 20
31.3693
 30
0.0
 40
0
 41
0
  0
VERTEX
  8
0
 10
3.33746
 20
31.256
 30
0.0
 40
0
 41
0
  0
VERTEX
  8
0
 10
3.22418
 20
31.1572
 30
0.0
 40
0
 41
0
  0
VERTEX
  8
0
 10
3.13075
 20
31.0931
 30
0.0
 40
0
 41
0
  0
VERTEX
  8
0
 10
3.09799
 20
31.0746
 30
0.0
 40
0
 41
0
  0
VERTEX
  8
0
 10
3.09799
 20
31.4956
 30
0.0
 40
0
 41
0
  0
SEQEND
 8
0
  0
POLYLINE
  8
0
 62
     0
 66
     1
 10
0
 20
0
 30
0.0
 70
     1
 40
0
 41
0
  0
VERTEX
  8
0
 10
38.5071
 20
36.0864
 30
0.0
 40
0
 41
0
  0
VERTEX
  8
0
 10
42.9776
 20
36.0864
 30
0.0
 40
0
 41
0
  0
VERTEX
  8
0
 10
42.9776
 20
33.9614
 30
0.0
 40
0
 41
0
  0
VERTEX
  8
0
 10
38.5071
 20
33.9614
 30
0.0
 40
0
 41
0
  0
VERTEX
  8
0
 10
38.5071
 20
36.0864
 30
0.0
 40
0
 41
0
  0
SEQEND
 8
0
  0
POLYLINE
  8
0
 62
     0
 66
     1
 10
0
 20
0
 30
0.0
 70
     1
 40
0
 41
0
  0
VERTEX
  8
0
 10
24.8707
 20
30.1046
 30
0.0
 40
0
 41
0
  0
VERTEX
  8
0
 10
29.3413
 20
30.1046
 30
0.0
 40
0
 41
0
  0
VERTEX
  8
0
 10
29.3413
 20
27.9796
 30
0.0
 40
0
 41
0
  0
VERTEX
  8
0
 10
24.8707
 20
27.9796
 30
0.0
 40
0
 41
0
  0
VERTEX
  8
0
 10
24.8707
 20
30.1046
 30
0.0
 40
0
 41
0
  0
SEQEND
 8
0
  0
POLYLINE
  8
0
 62
     0
 66
     1
 10
0
 20
0
 30
0.0
 70
     1
 40
0
 41
0
  0
VERTEX
  8
0
 10
38.5071
 20
32.8864
 30
0.0
 40
0
 41
0
  0
VERTEX
  8
0
 10
42.9776
 20
32.8864
 30
0.0
 40
0
 41
0
  0
VERTEX
  8
0
 10
42.9776
 20
31.1796
 30
0.0
 40
0
 41
0
  0
VERTEX
  8
0
 10
38.5071
 20
31.1796
 30
0.0
 40
0
 41
0
  0
VERTEX
  8
0
 10
38.5071
 20
32.8864
 30
0.0
 40
0
 41
0
  0
SEQEND
 8
0
  0
POLYLINE
  8
0
 62
     0
 66
     1
 10
0
 20
0
 30
0.0
 70
     1
 40
0
 41
0
  0
VERTEX
  8
0
 10
24.8707
 20
32.8864
 30
0.0
 40
0
 41
0
  0
VERTEX
  8
0
 10
29.3413
 20
32.8864
 30
0.0
 40
0
 41
0
  0
VERTEX
  8
0
 10
29.3413
 20
31.1796
 30
0.0
 40
0
 41
0
  0
VERTEX
  8
0
 10
24.8707
 20
31.1796
 30
0.0
 40
0
 41
0
  0
VERTEX
  8
0
 10
24.8707
 20
32.8864
 30
0.0
 40
0
 41
0
  0
SEQEND
 8
0
  0
POLYLINE
  8
0
 62
     0
 66
     1
 10
0
 20
0
 30
0.0
 70
     1
 40
0
 41
0
  0
VERTEX
  8
0
 10
24.8707
 20
36.0864
 30
0.0
 40
0
 41
0
  0
VERTEX
  8
0
 10
29.3413
 20
36.0864
 30
0.0
 40
0
 41
0
  0
VERTEX
  8
0
 10
29.3413
 20
33.9614
 30
0.0
 40
0
 41
0
  0
VERTEX
  8
0
 10
24.8707
 20
33.9614
 30
0.0
 40
0
 41
0
  0
VERTEX
  8
0
 10
24.8707
 20
36.0864
 30
0.0
 40
0
 41
0
  0
SEQEND
 8
0
  0
POLYLINE
  8
0
 62
     0
 66
     1
 10
0
 20
0
 30
0.0
 70
     1
 40
0
 41
0
  0
VERTEX
  8
0
 10
11.2343
 20
29.6369
 30
0.0
 40
0
 41
0
  0
VERTEX
  8
0
 10
15.7049
 20
29.6369
 30
0.0
 40
0
 41
0
  0
VERTEX
  8
0
 10
15.7049
 20
26.5301
 30
0.0
 40
0
 41
0
  0
VERTEX
  8
0
 10
11.2343
 20
26.5301
 30
0.0
 40
0
 41
0
  0
VERTEX
  8
0
 10
11.2343
 20
29.6369
 30
0.0
 40
0
 41
0
  0
SEQEND
 8
0
  0
POLYLINE
  8
0
 62
     0
 66
     1
 10
0
 20
0
 30
0.0
 70
     1
 40
0
 41
0
  0
VERTEX
  8
0
 10
11.2343
 20
37.5358
 30
0.0
 40
0
 41
0
  0
VERTEX
  8
0
 10
15.7049
 20
37.5358
 30
0.0
 40
0
 41
0
  0
VERTEX
  8
0
 10
15.7049
 20
34.429
 30
0.0
 40
0
 41
0
  0
VERTEX
  8
0
 10
11.2343
 20
34.429
 30
0.0
 40
0
 41
0
  0
VERTEX
  8
0
 10
11.2343
 20
37.5358
 30
0.0
 40
0
 41
0
  0
SEQEND
 8
0
  0
POLYLINE
  8
0
 62
     0
 66
     1
 10
0
 20
0
 30
0.0
 70
     1
 40
0
 41
0
  0
VERTEX
  8
0
 10
38.5071
 20
30.1046
 30
0.0
 40
0
 41
0
  0
VERTEX
  8
0
 10
42.9776
 20
30.1046
 30
0.0
 40
0
 41
0
  0
VERTEX
  8
0
 10
42.9776
 20
27.9796
 30
0.0
 40
0
 41
0
  0
VERTEX
  8
0
 10
38.5071
 20
27.9796
 30
0.0
 40
0
 41
0
  0
VERTEX
  8
0
 10
38.5071
 20
30.1046
 30
0.0
 40
0
 41
0
  0
SEQEND
 8
0
  0
POLYLINE
  8
0
 62
     0
 66
     1
 10
0
 20
0
 30
0.0
 70
     1
 40
0
 41
0
  0
VERTEX
  8
0
 10
38.0865
 20
61.4182
 30
0.0
 40
0
 41
0
  0
VERTEX
  8
0
 10
38.0865
 20
60.4182
 30
0.0
 40
0
 41
0
  0
VERTEX
  8
0
 10
36.0114
 20
60.4182
 30
0.0
 40
0
 41
0
  0
VERTEX
  8
0
 10
36.0114
 20
61.4182
 30
0.0
 40
0
 41
0
  0
VERTEX
  8
0
 10
28.3817
 20
61.4182
 30
0.0
 40
0
 41
0
  0
VERTEX
  8
0
 10
28.3817
 20
60.4182
 30
0.0
 40
0
 41
0
  0
VERTEX
  8
0
 10
26.3068
 20
60.4182
 30
0.0
 40
0
 41
0
  0
VERTEX
  8
0
 10
26.3068
 20
61.4182
 30
0.0
 40
0
 41
0
  0
VERTEX
  8
0
 10
22.4206
 20
61.4182
 30
0.0
 40
0
 41
0
  0
VERTEX
  8
0
 10
22.4206
 20
66.0388
 30
0.0
 40
0
 41
0
  0
VERTEX
  8
0
 10
26.1319
 20
66.0388
 30
0.0
 40
0
 41
0
  0
VERTEX
  8
0
 10
26.1319
 20
63.766
 30
0.0
 40
0
 41
0
  0
VERTEX
  8
0
 10
37.0631
 20
63.766
 30
0.0
 40
0
 41
0
  0
VERTEX
  8
0
 10
37.0631
 20
66.0388
 30
0.0
 40
0
 41
0
  0
VERTEX
  8
0
 10
40.7744
 20
66.0388
 30
0.0
 40
0
 41
0
  0
VERTEX
  8
0
 10
40.7744
 20
61.4182
 30
0.0
 40
0
 41
0
  0
VERTEX
  8
0
 10
38.0865
 20
61.4182
 30
0.0
 40
0
 41
0
  0
SEQEND
 8
0
  0
POLYLINE
  8
0
 62
     0
 66
     1
 10
0
 20
0
 30
0.0
 70
     1
 40
0
 41
0
  0
VERTEX
  8
0
 10
79.9458
 20
21.0165
 30
0.0
 40
0
 41
0
  0
VERTEX
  8
0
 10
79.9458
 20
2.57383
 30
0.0
 40
0
 41
0
  0
VERTEX
  8
0
 10
64.689
 20
2.57383
 30
0.0
 40
0
 41
0
  0
VERTEX
  8
0
 10
64.689
 20
58.1483
 30
0.0
 40
0
 41
0
  0
VERTEX
  8
0
 10
79.9458
 20
58.1483
 30
0.0
 40
0
 41
0
  0
VERTEX
  8
0
 10
79.9458
 20
45.94
 30
0.0
 40
0
 41
0
  0
VERTEX
  8
0
 10
80.9458
 20
45.94
 30
0.0
 40
0
 41
0
  0
VERTEX
  8
0
 10
80.9458
 20
42.8649
 30
0.0
 40
0
 41
0
  0
VERTEX
  8
0
 10
79.9458
 20
42.8649
 30
0.0
 40
0
 41
0
  0
VERTEX
  8
0
 10
79.9458
 20
24.0915
 30
0.0
 40
0
 41
0
  0
VERTEX
  8
0
 10
80.9458
 20
24.0915
 30
0.0
 40
0
 41
0
  0
VERTEX
  8
0
 10
80.9458
 20
21.0165
 30
0.0
 40
0
 41
0
  0
VERTEX
  8
0
 10
79.9458
 20
21.0165
 30
0.0
 40
0
 41
0
  0
SEQEND
 8
0
  0
POLYLINE
  8
0
 62
     0
 66
     1
 10
0
 20
0
 30
0.0
 70
     1
 40
0
 41
0
  0
VERTEX
  8
0
 10
0
 20
21.9046
 30
0.0
 40
0
 41
0
  0
VERTEX
  8
0
 10
13.7568
 20
21.9046
 30
0.0
 40
0
 41
0
  0
VERTEX
  8
0
 10
13.7568
 20
0.011339
 30
0.0
 40
0
 41
0
  0
VERTEX
  8
0
 10
0
 20
0.011339
 30
0.0
 40
0
 41
0
  0
VERTEX
  8
0
 10
0
 20
21.9046
 30
0.0
 40
0
 41
0
  0
SEQEND
 8
0
  0
POLYLINE
  8
0
 62
     0
 66
     1
 10
0
 20
0
 30
0.0
 70
     1
 40
0
 41
0
  0
VERTEX
  8
0
 10
3.94092
 20
20.0114
 30
0.0
 40
0
 41
0
  0
VERTEX
  8
0
 10
6.86594
 20
20.0114
 30
0.0
 40
0
 41
0
  0
VERTEX
  8
0
 10
6.86594
 20
19.0864
 30
0.0
 40
0
 41
0
  0
VERTEX
  8
0
 10
3.94092
 20
19.0864
 30
0.0
 40
0
 41
0
  0
VERTEX
  8
0
 10
3.94092
 20
20.0114
 30
0.0
 40
0
 41
0
  0
SEQEND
 8
0
  0
POLYLINE
  8
0
 62
     0
 66
     1
 10
0
 20
0
 30
0.0
 70
     1
 40
0
 41
0
  0
VERTEX
  8
0
 10
3.94092
 20
2.82954
 30
0.0
 40
0
 41
0
  0
VERTEX
  8
0
 10
6.86594
 20
2.82954
 30
0.0
 40
0
 41
0
  0
VERTEX
  8
0
 10
6.86594
 20
1.90457
 30
0.0
 40
0
 41
0
  0
VERTEX
  8
0
 10
3.94092
 20
1.90457
 30
0.0
 40
0
 41
0
  0
VERTEX
  8
0
 10
3.94092
 20
2.82954
 30
0.0
 40
0
 41
0
  0
SEQEND
 8
0
  0
POLYLINE
  8
0
 62
     0
 66
     1
 10
0
 20
0
 30
0.0
 70
     1
 40
0
 41
0
  0
VERTEX
  8
0
 10
15.7568
 20
21.9046
 30
0.0
 40
0
 41
0
  0
VERTEX
  8
0
 10
37.65
 20
21.9046
 30
0.0
 40
0
 41
0
  0
VERTEX
  8
0
 10
37.65
 20
3.14774
 30
0.0
 40
0
 41
0
  0
VERTEX
  8
0
 10
15.7568
 20
3.14774
 30
0.0
 40
0
 41
0
  0
VERTEX
  8
0
 10
15.7568
 20
21.9046
 30
0.0
 40
0
 41
0
  0
SEQEND
 8
0
  0
POLYLINE
  8
0
 62
     0
 66
     1
 10
0
 20
0
 30
0.0
 70
     1
 40
0
 41
0
  0
VERTEX
  8
0
 10
17.65
 20
18.1303
 30
0.0
 40
0
 41
0
  0
VERTEX
  8
0
 10
18.575
 20
18.1303
 30
0.0
 40
0
 41
0
  0
VERTEX
  8
0
 10
18.575
 20
15.2053
 30
0.0
 40
0
 41
0
  0
VERTEX
  8
0
 10
17.65
 20
15.2053
 30
0.0
 40
0
 41
0
  0
VERTEX
  8
0
 10
17.65
 20
18.1303
 30
0.0
 40
0
 41
0
  0
SEQEND
 8
0
  0
POLYLINE
  8
0
 62
     0
 66
     1
 10
0
 20
0
 30
0.0
 70
     1
 40
0
 41
0
  0
VERTEX
  8
0
 10
34.8318
 20
18.1303
 30
0.0
 40
0
 41
0
  0
VERTEX
  8
0
 10
35.7569
 20
18.1303
 30
0.0
 40
0
 41
0
  0
VERTEX
  8
0
 10
35.7569
 20
15.2053
 30
0.0
 40
0
 41
0
  0
VERTEX
  8
0
 10
34.8318
 20
15.2053
 30
0.0
 40
0
 41
0
  0
VERTEX
  8
0
 10
34.8318
 20
18.1303
 30
0.0
 40
0
 41
0
  0
SEQEND
 8
0
  0
POLYLINE
  8
0
 62
     0
 66
     1
 10
0
 20
0
 30
0.0
 70
     1
 40
0
 41
0
  0
VERTEX
  8
0
 10
43.014
 20
7.2621
 30
0.0
 40
0
 41
0
  0
VERTEX
  8
0
 10
45.2868
 20
7.2621
 30
0.0
 40
0
 41
0
  0
VERTEX
  8
0
 10
45.2868
 20
3.55072
 30
0.0
 40
0
 41
0
  0
VERTEX
  8
0
 10
40.6662
 20
3.55072
 30
0.0
 40
0
 41
0
  0
VERTEX
  8
0
 10
40.6662
 20
6.23867
 30
0.0
 40
0
 41
0
  0
VERTEX
  8
0
 10
39.6662
 20
6.23867
 30
0.0
 40
0
 41
0
  0
VERTEX
  8
0
 10
39.6662
 20
8.31364
 30
0.0
 40
0
 41
0
  0
VERTEX
  8
0
 10
40.6662
 20
8.31364
 30
0.0
 40
0
 41
0
  0
VERTEX
  8
0
 10
40.6662
 20
15.9433
 30
0.0
 40
0
 41
0
  0
VERTEX
  8
0
 10
39.6662
 20
15.9433
 30
0.0
 40
0
 41
0
  0
VERTEX
  8
0
 10
39.6662
 20
18.0183
 30
0.0
 40
0
 41
0
  0
VERTEX
  8
0
 10
40.6662
 20
18.0183
 30
0.0
 40
0
 41
0
  0
VERTEX
  8
0
 10
40.6662
 20
21.9046
 30
0.0
 40
0
 41
0
  0
VERTEX
  8
0
 10
43.014
 20
21.9046
 30
0.0
 40
0
 41
0
  0
VERTEX
  8
0
 10
43.014
 20
7.2621
 30
0.0
 40
0
 41
0
  0
SEQEND
 8
0
  0
POLYLINE
  8
0
 62
     0
 66
     1
 10
0
 20
0
 30
0.0
 70
     1
 40
0
 41
0
  0
VERTEX
  8
0
 10
47.2868
 20
21.9046
 30
0.0
 40
0
 41
0
  0
VERTEX
  8
0
 10
49.6344
 20
21.9046
 30
0.0
 40
0
 41
0
  0
VERTEX
  8
0
 10
49.6344
 20
3.02061
 30
0.0
 40
0
 41
0
  0
VERTEX
  8
0
 10
47.2868
 20
3.02061
 30
0.0
 40
0
 41
0
  0
VERTEX
  8
0
 10
47.2868
 20
21.9046
 30
0.0
 40
0
 41
0
  0
SEQEND
 8
0
  0
POLYLINE
  8
0
 62
     0
 66
     1
 10
0
 20
0
 30
0.0
 70
     1
 40
0
 41
0
  0
VERTEX
  8
0
 10
54.9822
 20
18.1932
 30
0.0
 40
0
 41
0
  0
VERTEX
  8
0
 10
54.9822
 20
7.2621
 30
0.0
 40
0
 41
0
  0
VERTEX
  8
0
 10
57.255
 20
7.2621
 30
0.0
 40
0
 41
0
  0
VERTEX
  8
0
 10
57.255
 20
3.55072
 30
0.0
 40
0
 41
0
  0
VERTEX
  8
0
 10
52.6344
 20
3.55072
 30
0.0
 40
0
 41
0
  0
VERTEX
  8
0
 10
52.6344
 20
6.23867
 30
0.0
 40
0
 41
0
  0
VERTEX
  8
0
 10
51.6344
 20
6.23867
 30
0.0
 40
0
 41
0
  0
VERTEX
  8
0
 10
51.6344
 20
8.31364
 30
0.0
 40
0
 41
0
  0
VERTEX
  8
0
 10
52.6344
 20
8.31364
 30
0.0
 40
0
 41
0
  0
VERTEX
  8
0
 10
52.6344
 20
15.9433
 30
0.0
 40
0
 41
0
  0
VERTEX
  8
0
 10
51.6344
 20
15.9433
 30
0.0
 40
0
 41
0
  0
VERTEX
  8
0
 10
51.6344
 20
18.0183
 30
0.0
 40
0
 41
0
  0
VERTEX
  8
0
 10
52.6344
 20
18.0183
 30
0.0
 40
0
 41
0
  0
VERTEX
  8
0
 10
52.6344
 20
21.9046
 30
0.0
 40
0
 41
0
  0
VERTEX
  8
0
 10
57.255
 20
21.9046
 30
0.0
 40
0
 41
0
  0
VERTEX
  8
0
 10
57.255
 20
18.1932
 30
0.0
 40
0
 41
0
  0
VERTEX
  8
0
 10
54.9822
 20
18.1932
 30
0.0
 40
0
 41
0
  0
SEQEND
 8
0
  0
POLYLINE
  8
0
 62
     0
 66
     1
 10
0
 20
0
 30
0.0
 70
     1
 40
0
 41
0
  0
VERTEX
  8
0
 10
44.9092
 20
127.742
 30
0.0
 40
0
 41
0
  0
VERTEX
  8
0
 10
63.2969
 20
127.742
 30
0.0
 40
0
 41
0
  0
VERTEX
  8
0
 10
63.2969
 20
125.394
 30
0.0
 40
0
 41
0
  0
VERTEX
  8
0
 10
44.9092
 20
125.394
 30
0.0
 40
0
 41
0
  0
VERTEX
  8
0
 10
44.9092
 20
127.742
 30
0.0
 40
0
 41
0
  0
SEQEND
 8
0
  0
POLYLINE
  8
0
 62
     0
 66
     1
 10
0
 20
0
 30
0.0
 70
     1
 40
0
 41
0
  0
VERTEX
  8
0
 10
59.255
 20
21.9046
 30
0.0
 40
0
 41
0
  0
VERTEX
  8
0
 10
61.6026
 20
21.9046
 30
0.0
 40
0
 41
0
  0
VERTEX
  8
0
 10
61.6026
 20
2.97825
 30
0.0
 40
0
 41
0
  0
VERTEX
  8
0
 10
59.255
 20
2.97825
 30
0.0
 40
0
 41
0
  0
VERTEX
  8
0
 10
59.255
 20
21.9046
 30
0.0
 40
0
 41
0
  0
SEQEND
 8
0
  0
ENDSEC
  0
EOF
