0
SECTION
2
HEADER
9
$INSUNITS
70
4
9
$ACADVER
1
AC1014
9
$HANDSEED
5
FFFF
0
ENDSEC
0
SECTION
2
TABLES
0
TABLE
2
VPORT
5
8
100
AcDbSymbolTable
0
ENDTAB
0
TABLE
2
LTYPE
5
5
100
AcDbSymbolTable
0
LTYPE
5
14
100
AcDbSymbolTableRecord
100
AcDbLinetypeTableRecord
2
BYBLOCK
70
0
0
LTYPE
5
15
100
AcDbSymbolTableRecord
100
AcDbLinetypeTableRecord
2
BYLAYER
70
0
0
ENDTAB
0
TABLE
2
LAYER
5
2
100
AcDbSymbolTable
70
2
0
LAYER
5
50
100
AcDbSymbolTableRecord
100
AcDbLayerTableRecord
2
0
70
0
6
CONTINUOUS
0
ENDTAB
0
TABLE
2
STYLE
5
3
100
AcDbSymbolTable
70
1
0
STYLE
5
11
100
AcDbSymbolTableRecord
100
AcDbTextStyleTableRecord
2
STANDARD
70
0
0
ENDTAB
0
TABLE
2
VIEW
5
6
100
AcDbSymbolTable
70
0
0
ENDTAB
0
TABLE
2
UCS
5
7
100
AcDbSymbolTable
70
0
0
ENDTAB
0
TABLE
2
APPID
5
9
100
AcDbSymbolTable
70
2
0
APPID
5
12
100
AcDbSymbolTableRecord
100
AcDbRegAppTableRecord
2
ACAD
70
0
0
ENDTAB
0
TABLE
2
DIMSTYLE
5
A
100
AcDbSymbolTable
70
1
0
ENDTAB
0
TABLE
2
BLOCK_RECORD
5
1
100
AcDbSymbolTable
70
1
0
BLOCK_RECORD
5
1F
100
AcDbSymbolTableRecord
100
AcDbBlockTableRecord
2
*MODEL_SPACE
0
BLOCK_RECORD
5
1B
100
AcDbSymbolTableRecord
100
AcDbBlockTableRecord
2
*PAPER_SPACE
0
ENDTAB
0
ENDSEC
0
SECTION
2
BLOCKS
0
BLOCK
5
20
100
AcDbEntity
100
AcDbBlockBegin
2
*MODEL_SPACE
0
ENDBLK
5
21
100
AcDbEntity
100
AcDbBlockEnd
0
BLOCK
5
1C
100
AcDbEntity
100
AcDbBlockBegin
2
*PAPER_SPACE
0
ENDBLK
5
1D
100
AcDbEntity
100
AcDbBlockEnd
0
ENDSEC
0
SECTION
2
ENTITIES
0
LINE
5
100
100
AcDbEntity
8
0
100
AcDbLine
10
-21.907842877937899
20
3.5030915420099995
30
0
11
-21.907842877937899
21
6.6099097238281779
31
0
0
LINE
5
101
100
AcDbEntity
8
0
100
AcDbLine
10
-21.907842877937899
20
6.6099097238281779
30
0
11
-16.446590909090911
21
6.6099097238281779
31
0
0
LINE
5
102
100
AcDbEntity
8
0
100
AcDbLine
10
-16.446590909090911
20
6.6099097238281779
30
0
11
-16.446590909090911
21
3.5030915420099995
31
0
0
LINE
5
103
100
AcDbEntity
8
0
100
AcDbLine
10
-16.446590909090911
20
3.5030915420099995
30
0
11
-21.907842877937899
21
3.5030915420099995
31
0
0
LINE
5
104
100
AcDbEntity
8
0
100
AcDbLine
10
-8.2714792415742657
20
-4.8192612553152108
30
0
11
-8.2714792415742657
21
-1.7124430734970275
31
0
0
LINE
5
105
100
AcDbEntity
8
0
100
AcDbLine
10
-8.2714792415742657
20
-1.7124430734970275
30
0
11
-2.8102272727272726
21
-1.7124430734970275
31
0
0
LINE
5
106
100
AcDbEntity
8
0
100
AcDbLine
10
-2.8102272727272726
20
-1.7124430734970275
30
0
11
-2.8102272727272726
21
-4.8192612553152108
31
0
0
LINE
5
107
100
AcDbEntity
8
0
100
AcDbLine
10
-2.8102272727272726
20
-4.8192612553152108
30
0
11
-8.2714792415742657
21
-4.8192612553152108
31
0
0
LINE
5
108
100
AcDbEntity
8
0
100
AcDbLine
10
5.3648843947893754
20
1.1151598513924599
30
0
11
5.3648843947893763
21
4.2219780332106431
31
0
0
LINE
5
109
100
AcDbEntity
8
0
100
AcDbLine
10
5.3648843947893781
20
4.2219780332106431
30
0
11
10.826136363636373
21
4.2219780332106431
31
0
0
LINE
5
110
100
AcDbEntity
8
0
100
AcDbLine
10
10.826136363636373
20
4.2219780332106431
30
0
11
10.826136363636373
21
1.1151598513924599
31
0
0
LINE
5
111
100
AcDbEntity
8
0
100
AcDbLine
10
10.826136363636369
20
1.1151598513924599
30
0
11
5.3648843947893754
21
1.1151598513924599
31
0
0
LINE
5
112
100
AcDbEntity
8
0
100
AcDbLine
10
-24.037727499417226
20
9.1284090909090914
30
0
11
-27.112727499417225
21
9.1284090909090914
31
0
0
LINE
5
113
100
AcDbEntity
8
0
100
AcDbLine
10
-27.112727499417225
20
9.1284090909090914
30
0
11
-27.112727499417225
21
8.1284090909090896
31
0
0
LINE
5
114
100
AcDbEntity
8
0
100
AcDbLine
10
-27.112727499417225
20
8.1284090909090896
30
0
11
-30.082954545454555
21
8.1284090909090896
31
0
0
LINE
5
115
100
AcDbEntity
8
0
100
AcDbLine
10
-30.082954545454555
20
8.1284090909090896
30
0
11
-30.082954545454555
21
-8.1284090909090896
31
0
0
LINE
5
116
100
AcDbEntity
8
0
100
AcDbLine
10
-30.082954545454555
20
-8.1284090909090896
30
0
11
-27.112727499417236
21
-8.1284090909090914
31
0
0
LINE
5
117
100
AcDbEntity
8
0
100
AcDbLine
10
-27.112727499417236
20
-8.1284090909090914
30
0
11
-27.112727499417232
21
-9.1284090909090914
31
0
0
LINE
5
118
100
AcDbEntity
8
0
100
AcDbLine
10
-27.112727499417232
20
-9.1284090909090914
30
0
11
-24.037727499417226
21
-9.1284090909090914
31
0
0
LINE
5
119
100
AcDbEntity
8
0
100
AcDbLine
10
-24.037727499417226
20
-9.1284090909090914
30
0
11
-24.037727499417226
21
-8.1284090909090914
31
0
0
LINE
5
120
100
AcDbEntity
8
0
100
AcDbLine
10
-24.037727499417226
20
-8.1284090909090914
30
0
11
-7.5547373450245576
21
-8.1284090909090914
31
0
0
LINE
5
121
100
AcDbEntity
8
0
100
AcDbLine
10
-7.5547373450245576
20
-8.1284090909090914
30
0
11
-7.5547373450245559
21
-9.1284090909090914
31
0
0
LINE
5
122
100
AcDbEntity
8
0
100
AcDbLine
10
-7.5547373450245559
20
-9.1284090909090914
30
0
11
-4.4797373450245566
21
-9.1284090909090914
31
0
0
LINE
5
123
100
AcDbEntity
8
0
100
AcDbLine
10
-4.4797373450245566
20
-9.1284090909090914
30
0
11
-4.4797373450245566
21
-8.1284090909090896
31
0
0
LINE
5
124
100
AcDbEntity
8
0
100
AcDbLine
10
-4.4797373450245566
20
-8.1284090909090896
30
0
11
15.020067218899573
21
-8.1284090909090914
31
0
0
LINE
5
125
100
AcDbEntity
8
0
100
AcDbLine
10
15.020067218899573
20
-8.1284090909090914
30
0
11
15.020067218899573
21
-9.1284090909090914
31
0
0
LINE
5
126
100
AcDbEntity
8
0
100
AcDbLine
10
15.020067218899573
20
-9.1284090909090914
30
0
11
18.095067218899572
21
-9.1284090909090914
31
0
0
LINE
5
127
100
AcDbEntity
8
0
100
AcDbLine
10
18.095067218899572
20
-9.1284090909090914
30
0
11
18.095067218899572
21
-8.1284090909090914
31
0
0
LINE
5
128
100
AcDbEntity
8
0
100
AcDbLine
10
18.095067218899572
20
-8.1284090909090914
30
0
11
30.082954545454545
21
-8.1284090909090914
31
0
0
LINE
5
129
100
AcDbEntity
8
0
100
AcDbLine
10
30.082954545454545
20
-8.1284090909090914
30
0
11
30.082954545454541
21
8.1284090909090896
31
0
0
LINE
5
130
100
AcDbEntity
8
0
100
AcDbLine
10
30.082954545454541
20
8.1284090909090896
30
0
11
18.095067218899569
21
8.1284090909090896
31
0
0
LINE
5
131
100
AcDbEntity
8
0
100
AcDbLine
10
18.095067218899569
20
8.1284090909090896
30
0
11
18.095067218899572
21
9.1284090909090914
31
0
0
LINE
5
132
100
AcDbEntity
8
0
100
AcDbLine
10
18.095067218899572
20
9.1284090909090914
30
0
11
15.020067218899571
21
9.1284090909090914
31
0
0
LINE
5
133
100
AcDbEntity
8
0
100
AcDbLine
10
15.020067218899571
20
9.1284090909090914
30
0
11
15.020067218899571
21
8.1284090909090896
31
0
0
LINE
5
134
100
AcDbEntity
8
0
100
AcDbLine
10
15.020067218899571
20
8.1284090909090896
30
0
11
-4.4797373450245566
21
8.1284090909090896
31
0
0
LINE
5
135
100
AcDbEntity
8
0
100
AcDbLine
10
-4.4797373450245566
20
8.1284090909090896
30
0
11
-4.4797373450245566
21
9.1284090909090914
31
0
0
LINE
5
136
100
AcDbEntity
8
0
100
AcDbLine
10
-4.4797373450245566
20
9.1284090909090914
30
0
11
-7.5547373450245559
21
9.1284090909090914
31
0
0
LINE
5
137
100
AcDbEntity
8
0
100
AcDbLine
10
-7.5547373450245559
20
9.1284090909090914
30
0
11
-7.5547373450245559
21
8.1284090909090896
31
0
0
LINE
5
138
100
AcDbEntity
8
0
100
AcDbLine
10
-7.5547373450245559
20
8.1284090909090896
30
0
11
-24.037727499417226
21
8.1284090909090896
31
0
0
LINE
5
139
100
AcDbEntity
8
0
100
AcDbLine
10
-24.037727499417226
20
8.1284090909090896
30
0
11
-24.037727499417226
21
9.1284090909090914
31
0
0
ENDSEC
0
SECTION
2
OBJECTS
0
DICTIONARY
5
C
100
AcDbDictionary
3
ACAD_GROUP
350
D
3
ACAD_MLINESTYLE
350
17
0
DICTIONARY
5
D
100
AcDbDictionary
0
DICTIONARY
5
1A
330
C
100
AcDbDictionary
0
DICTIONARY
5
17
100
AcDbDictionary
0
ENDSEC
0
EOF
