0
SECTION
2
HEADER
9
$INSUNITS
70
4
9
$ACADVER
1
AC1014
9
$HANDSEED
5
FFFF
0
ENDSEC
0
SECTION
2
TABLES
0
TABLE
2
VPORT
5
8
100
AcDbSymbolTable
0
ENDTAB
0
TABLE
2
LTYPE
5
5
100
AcDbSymbolTable
0
LTYPE
5
14
100
AcDbSymbolTableRecord
100
AcDbLinetypeTableRecord
2
BYBLOCK
70
0
0
LTYPE
5
15
100
AcDbSymbolTableRecord
100
AcDbLinetypeTableRecord
2
BYLAYER
70
0
0
ENDTAB
0
TABLE
2
LAYER
5
2
100
AcDbSymbolTable
70
2
0
LAYER
5
50
100
AcDbSymbolTableRecord
100
AcDbLayerTableRecord
2
0
70
0
6
CONTINUOUS
0
ENDTAB
0
TABLE
2
STYLE
5
3
100
AcDbSymbolTable
70
1
0
STYLE
5
11
100
AcDbSymbolTableRecord
100
AcDbTextStyleTableRecord
2
STANDARD
70
0
0
ENDTAB
0
TABLE
2
VIEW
5
6
100
AcDbSymbolTable
70
0
0
ENDTAB
0
TABLE
2
UCS
5
7
100
AcDbSymbolTable
70
0
0
ENDTAB
0
TABLE
2
APPID
5
9
100
AcDbSymbolTable
70
2
0
APPID
5
12
100
AcDbSymbolTableRecord
100
AcDbRegAppTableRecord
2
ACAD
70
0
0
ENDTAB
0
TABLE
2
DIMSTYLE
5
A
100
AcDbSymbolTable
70
1
0
ENDTAB
0
TABLE
2
BLOCK_RECORD
5
1
100
AcDbSymbolTable
70
1
0
BLOCK_RECORD
5
1F
100
AcDbSymbolTableRecord
100
AcDbBlockTableRecord
2
*MODEL_SPACE
0
BLOCK_RECORD
5
1B
100
AcDbSymbolTableRecord
100
AcDbBlockTableRecord
2
*PAPER_SPACE
0
ENDTAB
0
ENDSEC
0
SECTION
2
BLOCKS
0
BLOCK
5
20
100
AcDbEntity
100
AcDbBlockBegin
2
*MODEL_SPACE
0
ENDBLK
5
21
100
AcDbEntity
100
AcDbBlockEnd
0
BLOCK
5
1C
100
AcDbEntity
100
AcDbBlockBegin
2
*PAPER_SPACE
0
ENDBLK
5
1D
100
AcDbEntity
100
AcDbBlockEnd
0
ENDSEC
0
SECTION
2
ENTITIES
0
LINE
5
100
100
AcDbEntity
8
0
100
AcDbLine
10
16.371590909090912
20
-4.4404851355943631
30
0
11
16.371590909090912
21
-6.365485135594362
31
0
0
LINE
5
101
100
AcDbEntity
8
0
100
AcDbLine
10
16.371590909090912
20
-6.365485135594362
30
0
11
15.446590909090911
21
-6.365485135594362
31
0
0
LINE
5
102
100
AcDbEntity
8
0
100
AcDbLine
10
15.446590909090911
20
-6.365485135594362
30
0
11
15.446590909090911
21
-4.4404851355943631
31
0
0
LINE
5
103
100
AcDbEntity
8
0
100
AcDbLine
10
15.446590909090911
20
-4.4404851355943631
30
0
11
16.371590909090909
21
-4.4404851355943631
31
0
0
LINE
5
104
100
AcDbEntity
8
0
100
AcDbLine
10
6.3556818181818189
20
2.1270690268888748
30
0
11
15.371590909090912
21
2.1270690268888748
31
0
0
LINE
5
105
100
AcDbEntity
8
0
100
AcDbLine
10
15.371590909090912
20
2.1270690268888748
30
0
11
15.371590909090912
21
-0.97974915492930803
31
0
0
LINE
5
106
100
AcDbEntity
8
0
100
AcDbLine
10
15.371590909090912
20
-0.97974915492930803
30
0
11
6.355681818181818
21
-0.97974915492930803
31
0
0
LINE
5
107
100
AcDbEntity
8
0
100
AcDbLine
10
6.3556818181818189
20
-0.97974915492930803
30
0
11
6.3556818181818189
21
2.1270690268888748
31
0
0
LINE
5
108
100
AcDbEntity
8
0
100
AcDbLine
10
18.095067218899572
20
9.1284090909090914
30
0
11
15.020067218899573
21
9.1284090909090914
31
0
0
LINE
5
109
100
AcDbEntity
8
0
100
AcDbLine
10
15.020067218899573
20
9.1284090909090914
30
0
11
15.020067218899573
21
8.1284090909090914
31
0
0
LINE
5
110
100
AcDbEntity
8
0
100
AcDbLine
10
15.020067218899573
20
8.1284090909090914
30
0
11
-4.4797373450245566
21
8.1284090909090896
31
0
0
LINE
5
111
100
AcDbEntity
8
0
100
AcDbLine
10
-4.4797373450245566
20
8.1284090909090896
30
0
11
-4.4797373450245566
21
9.1284090909090914
31
0
0
LINE
5
112
100
AcDbEntity
8
0
100
AcDbLine
10
-4.4797373450245566
20
9.1284090909090914
30
0
11
-7.5547373450245559
21
9.1284090909090914
31
0
0
LINE
5
113
100
AcDbEntity
8
0
100
AcDbLine
10
-7.5547373450245559
20
9.1284090909090914
30
0
11
-7.5547373450245576
21
8.1284090909090914
31
0
0
LINE
5
114
100
AcDbEntity
8
0
100
AcDbLine
10
-7.5547373450245576
20
8.1284090909090914
30
0
11
-24.037727499417226
21
8.1284090909090914
31
0
0
LINE
5
115
100
AcDbEntity
8
0
100
AcDbLine
10
-24.037727499417226
20
8.1284090909090914
30
0
11
-24.037727499417226
21
9.1284090909090914
31
0
0
LINE
5
116
100
AcDbEntity
8
0
100
AcDbLine
10
-24.037727499417226
20
9.1284090909090914
30
0
11
-27.112727499417225
21
9.1284090909090914
31
0
0
LINE
5
117
100
AcDbEntity
8
0
100
AcDbLine
10
-27.112727499417225
20
9.1284090909090914
30
0
11
-27.112727499417232
21
8.1284090909090914
31
0
0
LINE
5
118
100
AcDbEntity
8
0
100
AcDbLine
10
-27.112727499417232
20
8.1284090909090914
30
0
11
-30.082954545454555
21
8.1284090909090914
31
0
0
LINE
5
119
100
AcDbEntity
8
0
100
AcDbLine
10
-30.082954545454555
20
8.1284090909090914
30
0
11
-30.082954545454555
21
-8.1284090909090896
31
0
0
LINE
5
120
100
AcDbEntity
8
0
100
AcDbLine
10
-30.082954545454555
20
-8.1284090909090896
30
0
11
-27.112727499417236
21
-8.1284090909090896
31
0
0
LINE
5
121
100
AcDbEntity
8
0
100
AcDbLine
10
-27.112727499417236
20
-8.1284090909090896
30
0
11
-27.112727499417236
21
-9.1284090909090914
31
0
0
LINE
5
122
100
AcDbEntity
8
0
100
AcDbLine
10
-27.112727499417236
20
-9.1284090909090914
30
0
11
-24.037727499417226
21
-9.1284090909090914
31
0
0
LINE
5
123
100
AcDbEntity
8
0
100
AcDbLine
10
-24.037727499417226
20
-9.1284090909090914
30
0
11
-24.037727499417226
21
-8.1284090909090896
31
0
0
LINE
5
124
100
AcDbEntity
8
0
100
AcDbLine
10
-24.037727499417226
20
-8.1284090909090896
30
0
11
-7.5547373450245576
21
-8.1284090909090896
31
0
0
LINE
5
125
100
AcDbEntity
8
0
100
AcDbLine
10
-7.5547373450245576
20
-8.1284090909090896
30
0
11
-7.5547373450245576
21
-9.1284090909090914
31
0
0
LINE
5
126
100
AcDbEntity
8
0
100
AcDbLine
10
-7.5547373450245576
20
-9.1284090909090914
30
0
11
-4.4797373450245566
21
-9.1284090909090914
31
0
0
LINE
5
127
100
AcDbEntity
8
0
100
AcDbLine
10
-4.4797373450245566
20
-9.1284090909090914
30
0
11
-4.4797373450245566
21
-8.1284090909090896
31
0
0
LINE
5
128
100
AcDbEntity
8
0
100
AcDbLine
10
-4.4797373450245566
20
-8.1284090909090896
30
0
11
15.020067218899571
21
-8.1284090909090896
31
0
0
LINE
5
129
100
AcDbEntity
8
0
100
AcDbLine
10
15.020067218899571
20
-8.1284090909090896
30
0
11
15.020067218899573
21
-9.1284090909090914
31
0
0
LINE
5
130
100
AcDbEntity
8
0
100
AcDbLine
10
15.020067218899573
20
-9.1284090909090914
30
0
11
18.095067218899572
21
-9.1284090909090914
31
0
0
LINE
5
131
100
AcDbEntity
8
0
100
AcDbLine
10
18.095067218899572
20
-9.1284090909090914
30
0
11
18.095067218899569
21
-8.1284090909090896
31
0
0
LINE
5
132
100
AcDbEntity
8
0
100
AcDbLine
10
18.095067218899569
20
-8.1284090909090896
30
0
11
30.082954545454545
21
-8.1284090909090896
31
0
0
LINE
5
133
100
AcDbEntity
8
0
100
AcDbLine
10
30.082954545454545
20
-8.1284090909090896
30
0
11
30.082954545454548
21
8.1284090909090896
31
0
0
LINE
5
134
100
AcDbEntity
8
0
100
AcDbLine
10
30.082954545454548
20
8.1284090909090896
30
0
11
18.095067218899572
21
8.1284090909090914
31
0
0
LINE
5
135
100
AcDbEntity
8
0
100
AcDbLine
10
18.095067218899572
20
8.1284090909090914
30
0
11
18.095067218899572
21
9.1284090909090914
31
0
0
LINE
5
136
100
AcDbEntity
8
0
100
AcDbLine
10
15.446590909090911
20
5.2642265863558055
30
0
11
16.371590909090909
21
5.2642265863558055
31
0
0
LINE
5
137
100
AcDbEntity
8
0
100
AcDbLine
10
16.371590909090912
20
5.2642265863558055
30
0
11
16.371590909090912
21
3.3392265863558066
31
0
0
LINE
5
138
100
AcDbEntity
8
0
100
AcDbLine
10
16.371590909090912
20
3.3392265863558066
30
0
11
15.446590909090911
21
3.3392265863558066
31
0
0
LINE
5
139
100
AcDbEntity
8
0
100
AcDbLine
10
15.446590909090911
20
3.3392265863558066
30
0
11
15.446590909090911
21
5.2642265863558055
31
0
0
LINE
5
140
100
AcDbEntity
8
0
100
AcDbLine
10
2.735227272727272
20
3.2764572593220342
30
0
11
1.8102272727272717
21
3.2764572593220342
31
0
0
LINE
5
141
100
AcDbEntity
8
0
100
AcDbLine
10
1.8102272727272717
20
3.2764572593220342
30
0
11
1.8102272727272717
21
5.2014572593220354
31
0
0
LINE
5
142
100
AcDbEntity
8
0
100
AcDbLine
10
1.8102272727272717
20
5.2014572593220354
30
0
11
2.735227272727272
21
5.2014572593220354
31
0
0
LINE
5
143
100
AcDbEntity
8
0
100
AcDbLine
10
2.735227272727272
20
5.2014572593220354
30
0
11
2.735227272727272
21
3.2764572593220347
31
0
0
LINE
5
144
100
AcDbEntity
8
0
100
AcDbLine
10
-7.2806818181818178
20
-3.0534090909090894
30
0
11
-7.2806818181818178
21
0.053409090909088963
31
0
0
LINE
5
145
100
AcDbEntity
8
0
100
AcDbLine
10
-7.2806818181818178
20
0.053409090909088963
30
0
11
1.7352272727272711
21
0.053409090909088963
31
0
0
LINE
5
146
100
AcDbEntity
8
0
100
AcDbLine
10
1.7352272727272711
20
0.053409090909088963
30
0
11
1.7352272727272711
21
-3.0534090909090894
31
0
0
LINE
5
147
100
AcDbEntity
8
0
100
AcDbLine
10
1.7352272727272711
20
-3.0534090909090894
30
0
11
-7.2806818181818178
21
-3.0534090909090894
31
0
0
LINE
5
148
100
AcDbEntity
8
0
100
AcDbLine
10
-11.826136363636365
20
-6.4282544626281357
30
0
11
-11.826136363636365
21
-4.503254462628135
31
0
0
LINE
5
149
100
AcDbEntity
8
0
100
AcDbLine
10
-11.826136363636365
20
-4.503254462628135
30
0
11
-10.901136363636363
21
-4.503254462628135
31
0
0
LINE
5
150
100
AcDbEntity
8
0
100
AcDbLine
10
-10.901136363636363
20
-4.503254462628135
30
0
11
-10.901136363636363
21
-6.4282544626281357
31
0
0
LINE
5
151
100
AcDbEntity
8
0
100
AcDbLine
10
-10.901136363636363
20
-6.4282544626281357
30
0
11
-11.826136363636365
21
-6.4282544626281357
31
0
0
LINE
5
152
100
AcDbEntity
8
0
100
AcDbLine
10
-20.917045454545459
20
-1.0534090909090921
30
0
11
-20.917045454545459
21
2.0534090909090907
31
0
0
LINE
5
153
100
AcDbEntity
8
0
100
AcDbLine
10
-20.917045454545459
20
2.0534090909090907
30
0
11
-11.901136363636365
21
2.0534090909090907
31
0
0
LINE
5
154
100
AcDbEntity
8
0
100
AcDbLine
10
-11.901136363636365
20
2.0534090909090907
30
0
11
-11.901136363636365
21
-1.0534090909090921
31
0
0
LINE
5
155
100
AcDbEntity
8
0
100
AcDbLine
10
-11.901136363636365
20
-1.0534090909090921
30
0
11
-20.917045454545459
21
-1.0534090909090921
31
0
0
LINE
5
156
100
AcDbEntity
8
0
100
AcDbLine
10
-10.901136363636363
20
3.2764572593220342
30
0
11
-11.826136363636365
21
3.2764572593220342
31
0
0
LINE
5
157
100
AcDbEntity
8
0
100
AcDbLine
10
-11.826136363636365
20
3.2764572593220342
30
0
11
-11.826136363636365
21
5.2014572593220354
31
0
0
LINE
5
158
100
AcDbEntity
8
0
100
AcDbLine
10
-11.826136363636365
20
5.2014572593220354
30
0
11
-10.901136363636363
21
5.2014572593220354
31
0
0
LINE
5
159
100
AcDbEntity
8
0
100
AcDbLine
10
-10.901136363636363
20
5.2014572593220354
30
0
11
-10.901136363636363
21
3.2764572593220347
31
0
0
LINE
5
160
100
AcDbEntity
8
0
100
AcDbLine
10
1.8102272727272706
20
-4.503254462628135
30
0
11
2.735227272727272
21
-4.503254462628135
31
0
0
LINE
5
161
100
AcDbEntity
8
0
100
AcDbLine
10
2.735227272727272
20
-4.503254462628135
30
0
11
2.735227272727272
21
-6.4282544626281357
31
0
0
LINE
5
162
100
AcDbEntity
8
0
100
AcDbLine
10
2.735227272727272
20
-6.4282544626281357
30
0
11
1.8102272727272706
21
-6.4282544626281357
31
0
0
LINE
5
163
100
AcDbEntity
8
0
100
AcDbLine
10
1.8102272727272706
20
-6.4282544626281357
30
0
11
1.8102272727272706
21
-4.503254462628135
31
0
0
ENDSEC
0
SECTION
2
OBJECTS
0
DICTIONARY
5
C
100
AcDbDictionary
3
ACAD_GROUP
350
D
3
ACAD_MLINESTYLE
350
17
0
DICTIONARY
5
D
100
AcDbDictionary
0
DICTIONARY
5
1A
330
C
100
AcDbDictionary
0
DICTIONARY
5
17
100
AcDbDictionary
0
ENDSEC
0
EOF
