0
SECTION
2
HEADER
9
$INSUNITS
70
4
9
$ACADVER
1
AC1014
9
$HANDSEED
5
FFFF
0
ENDSEC
0
SECTION
2
TABLES
0
TABLE
2
VPORT
5
8
100
AcDbSymbolTable
0
ENDTAB
0
TABLE
2
LTYPE
5
5
100
AcDbSymbolTable
0
LTYPE
5
14
100
AcDbSymbolTableRecord
100
AcDbLinetypeTableRecord
2
BYBLOCK
70
0
0
LTYPE
5
15
100
AcDbSymbolTableRecord
100
AcDbLinetypeTableRecord
2
BYLAYER
70
0
0
ENDTAB
0
TABLE
2
LAYER
5
2
100
AcDbSymbolTable
70
2
0
LAYER
5
50
100
AcDbSymbolTableRecord
100
AcDbLayerTableRecord
2
0
70
0
6
CONTINUOUS
0
ENDTAB
0
TABLE
2
STYLE
5
3
100
AcDbSymbolTable
70
1
0
STYLE
5
11
100
AcDbSymbolTableRecord
100
AcDbTextStyleTableRecord
2
STANDARD
70
0
0
ENDTAB
0
TABLE
2
VIEW
5
6
100
AcDbSymbolTable
70
0
0
ENDTAB
0
TABLE
2
UCS
5
7
100
AcDbSymbolTable
70
0
0
ENDTAB
0
TABLE
2
APPID
5
9
100
AcDbSymbolTable
70
2
0
APPID
5
12
100
AcDbSymbolTableRecord
100
AcDbRegAppTableRecord
2
ACAD
70
0
0
ENDTAB
0
TABLE
2
DIMSTYLE
5
A
100
AcDbSymbolTable
70
1
0
ENDTAB
0
TABLE
2
BLOCK_RECORD
5
1
100
AcDbSymbolTable
70
1
0
BLOCK_RECORD
5
1F
100
AcDbSymbolTableRecord
100
AcDbBlockTableRecord
2
*MODEL_SPACE
0
BLOCK_RECORD
5
1B
100
AcDbSymbolTableRecord
100
AcDbBlockTableRecord
2
*PAPER_SPACE
0
ENDTAB
0
ENDSEC
0
SECTION
2
BLOCKS
0
BLOCK
5
20
100
AcDbEntity
100
AcDbBlockBegin
2
*MODEL_SPACE
0
ENDBLK
5
21
100
AcDbEntity
100
AcDbBlockEnd
0
BLOCK
5
1C
100
AcDbEntity
100
AcDbBlockBegin
2
*PAPER_SPACE
0
ENDBLK
5
1D
100
AcDbEntity
100
AcDbBlockEnd
0
ENDSEC
0
SECTION
2
ENTITIES
0
LINE
5
100
100
AcDbEntity
8
0
100
AcDbLine
10
4.0534090909090814
20
-7.1626153279984752
30
0
11
4.0534090909090814
21
-11.633069873453019
31
0
0
LINE
5
101
100
AcDbEntity
8
0
100
AcDbLine
10
4.0534090909090814
20
-11.633069873453019
30
0
11
1.928409090909069
21
-11.633069873453019
31
0
0
LINE
5
102
100
AcDbEntity
8
0
100
AcDbLine
10
1.928409090909069
20
-11.633069873453019
30
0
11
1.928409090909069
21
-7.1626153279984752
31
0
0
LINE
5
103
100
AcDbEntity
8
0
100
AcDbLine
10
1.928409090909069
20
-7.1626153279984761
30
0
11
4.0534090909090814
21
-7.1626153279984761
31
0
0
LINE
5
104
100
AcDbEntity
8
0
100
AcDbLine
10
-4.0534090909090859
20
2.0032937629106184
30
0
11
-4.0534090909090859
21
6.4737483083651686
31
0
0
LINE
5
105
100
AcDbEntity
8
0
100
AcDbLine
10
-4.0534090909090859
20
6.4737483083651686
30
0
11
-1.9284090909090867
21
6.4737483083651686
31
0
0
LINE
5
106
100
AcDbEntity
8
0
100
AcDbLine
10
-1.9284090909090867
20
6.4737483083651686
30
0
11
-1.9284090909090867
21
2.0032937629106184
31
0
0
LINE
5
107
100
AcDbEntity
8
0
100
AcDbLine
10
-1.9284090909090867
20
2.0032937629106184
30
0
11
-4.0534090909090859
21
2.0032937629106184
31
0
0
LINE
5
108
100
AcDbEntity
8
0
100
AcDbLine
10
0.9584336394984927
20
29.321475581092436
30
0
11
0.5374999999999952
21
29.321475581092436
31
0
0
ARC
5
109
100
AcDbEntity
8
0
100
AcDbCircle
10
0
20
28.783975581092442
30
0
40
1.0988636363636402
210
0
220
-0
230
1
100
AcDbArc
50
29.284181982705846
51
60.715818017293962
0
LINE
5
110
100
AcDbEntity
8
0
100
AcDbLine
10
0.5374999999999952
20
29.321475581092436
30
0
11
0.53749999999999964
21
29.742409220590936
31
0
0
LINE
5
111
100
AcDbEntity
8
0
100
AcDbLine
10
0.85340909090906525
20
-7.1626153279984761
30
0
11
0.85340909090906525
21
-11.633069873453019
31
0
0
LINE
5
112
100
AcDbEntity
8
0
100
AcDbLine
10
0.85340909090906525
20
-11.633069873453019
30
0
11
-0.85340909090908301
21
-11.633069873453019
31
0
0
LINE
5
113
100
AcDbEntity
8
0
100
AcDbLine
10
-0.85340909090908301
20
-11.633069873453019
30
0
11
-0.85340909090908301
21
-7.162615327998477
31
0
0
LINE
5
114
100
AcDbEntity
8
0
100
AcDbLine
10
-0.85340909090908301
20
-7.1626153279984761
30
0
11
0.85340909090906525
21
-7.1626153279984761
31
0
0
ARC
5
115
100
AcDbEntity
8
0
100
AcDbCircle
10
0
20
28.783975581092442
30
0
40
1.0988636363636379
210
0
220
0
230
1
100
AcDbArc
50
119.28418198270623
51
150.71581801729374
0
LINE
5
116
100
AcDbEntity
8
0
100
AcDbLine
10
-0.53749999999999964
20
29.742409220590929
30
0
11
-0.53749999999999964
21
29.321475581092443
31
0
0
LINE
5
117
100
AcDbEntity
8
0
100
AcDbLine
10
-0.53749999999999964
20
29.321475581092443
30
0
11
-0.95843363949848825
21
29.321475581092443
31
0
0
LINE
5
118
100
AcDbEntity
8
0
100
AcDbLine
10
0.85340909090906525
20
6.4737483083651686
30
0
11
0.85340909090906525
21
2.0032937629106184
31
0
0
LINE
5
119
100
AcDbEntity
8
0
100
AcDbLine
10
0.85340909090906525
20
2.0032937629106184
30
0
11
-0.85340909090908301
21
2.0032937629106184
31
0
0
LINE
5
120
100
AcDbEntity
8
0
100
AcDbLine
10
-0.85340909090908301
20
2.0032937629106184
30
0
11
-0.85340909090908301
21
6.4737483083651686
31
0
0
LINE
5
121
100
AcDbEntity
8
0
100
AcDbLine
10
-0.85340909090908301
20
6.4737483083651686
30
0
11
0.85340909090906525
21
6.4737483083651686
31
0
0
LINE
5
122
100
AcDbEntity
8
0
100
AcDbLine
10
4.0534090909090681
20
6.4737483083651686
30
0
11
4.0534090909090681
21
2.0032937629106184
31
0
0
LINE
5
123
100
AcDbEntity
8
0
100
AcDbLine
10
4.0534090909090681
20
2.0032937629106184
30
0
11
1.928409090909069
21
2.0032937629106184
31
0
0
LINE
5
124
100
AcDbEntity
8
0
100
AcDbLine
10
1.928409090909069
20
2.0032937629106184
30
0
11
1.928409090909069
21
6.4737483083651686
31
0
0
LINE
5
125
100
AcDbEntity
8
0
100
AcDbLine
10
1.928409090909069
20
6.4737483083651686
30
0
11
4.0534090909090681
21
6.4737483083651686
31
0
0
LINE
5
126
100
AcDbEntity
8
0
100
AcDbLine
10
-2.3960315013736144
20
15.639657399274256
30
0
11
-5.502849683191795
21
15.639657399274256
31
0
0
LINE
5
127
100
AcDbEntity
8
0
100
AcDbLine
10
-5.502849683191795
20
15.639657399274256
30
0
11
-5.502849683191795
21
20.1101119447288
31
0
0
LINE
5
128
100
AcDbEntity
8
0
100
AcDbLine
10
-5.502849683191795
20
20.1101119447288
30
0
11
-2.3960315013736144
21
20.1101119447288
31
0
0
LINE
5
129
100
AcDbEntity
8
0
100
AcDbLine
10
-2.3960315013736144
20
20.1101119447288
30
0
11
-2.3960315013736144
21
15.639657399274256
31
0
0
LINE
5
130
100
AcDbEntity
8
0
100
AcDbLine
10
2.3960315013736055
20
20.1101119447288
30
0
11
5.5028496831917861
21
20.1101119447288
31
0
0
LINE
5
131
100
AcDbEntity
8
0
100
AcDbLine
10
5.5028496831917861
20
20.1101119447288
30
0
11
5.5028496831917861
21
15.639657399274256
31
0
0
LINE
5
132
100
AcDbEntity
8
0
100
AcDbLine
10
5.5028496831917861
20
15.639657399274256
30
0
11
2.3960315013736055
21
15.639657399274256
31
0
0
LINE
5
133
100
AcDbEntity
8
0
100
AcDbLine
10
2.3960315013736055
20
15.639657399274256
30
0
11
2.3960315013736055
21
20.1101119447288
31
0
0
LINE
5
134
100
AcDbEntity
8
0
100
AcDbLine
10
-1.9284090909090867
20
-7.1626153279984752
30
0
11
-1.9284090909090867
21
-11.633069873453019
31
0
0
LINE
5
135
100
AcDbEntity
8
0
100
AcDbLine
10
-1.9284090909090867
20
-11.633069873453019
30
0
11
-4.0534090909090947
21
-11.633069873453019
31
0
0
LINE
5
136
100
AcDbEntity
8
0
100
AcDbLine
10
-4.0534090909090947
20
-11.633069873453019
30
0
11
-4.0534090909090947
21
-7.1626153279984752
31
0
0
LINE
5
137
100
AcDbEntity
8
0
100
AcDbLine
10
-4.0534090909090947
20
-7.1626153279984761
30
0
11
-1.9284090909090867
21
-7.1626153279984761
31
0
0
ARC
5
138
100
AcDbEntity
8
0
100
AcDbCircle
10
0
20
28.783975581092442
30
0
40
1.0988636363636379
210
-0
220
0
230
1
100
AcDbArc
50
299.28418198270623
51
330.71581801729309
0
LINE
5
139
100
AcDbEntity
8
0
100
AcDbLine
10
0.53749999999999964
20
27.825541941593954
30
0
11
0.53749999999999964
21
28.246475581092433
31
0
0
LINE
5
140
100
AcDbEntity
8
0
100
AcDbLine
10
0.53749999999999964
20
28.246475581092433
30
0
11
0.95843363949848381
21
28.246475581092433
31
0
0
LINE
5
141
100
AcDbEntity
8
0
100
AcDbLine
10
-0.5374999999999952
20
28.24647558109244
30
0
11
-0.5374999999999952
21
27.825541941593951
31
0
0
LINE
5
142
100
AcDbEntity
8
0
100
AcDbLine
10
-0.95843363949848825
20
28.24647558109244
30
0
11
-0.5374999999999952
21
28.24647558109244
31
0
0
ARC
5
143
100
AcDbEntity
8
0
100
AcDbCircle
10
0
20
28.783975581092442
30
0
40
1.0988636363636402
210
0
220
0
230
1
100
AcDbArc
50
209.28418198270629
51
240.71581801729403
0
LINE
5
144
100
AcDbEntity
8
0
100
AcDbLine
10
5.739465185943482
20
31.344433509816657
30
0
11
-5.7394651859434775
21
31.344433509816657
31
0
0
LINE
5
145
100
AcDbEntity
8
0
100
AcDbLine
10
-5.7394651859434775
20
31.344433509816657
30
0
11
-8.128409090909102
21
29.552725581092439
31
0
0
LINE
5
146
100
AcDbEntity
8
0
100
AcDbLine
10
-8.128409090909102
20
29.552725581092439
30
0
11
-8.1284090909090967
21
11.946567209774216
31
0
0
LINE
5
147
100
AcDbEntity
8
0
100
AcDbLine
10
-8.1284090909090967
20
11.946567209774216
30
0
11
-7.1284090909090958
21
11.946567209774216
31
0
0
LINE
5
148
100
AcDbEntity
8
0
100
AcDbLine
10
-7.1284090909090958
20
11.946567209774216
30
0
11
-7.1284090909090958
21
9.0215672097742168
31
0
0
LINE
5
149
100
AcDbEntity
8
0
100
AcDbLine
10
-7.1284090909090958
20
9.0215672097742168
30
0
11
-8.1284090909090967
21
9.0215672097742168
31
0
0
LINE
5
150
100
AcDbEntity
8
0
100
AcDbLine
10
-8.1284090909090967
20
9.0215672097742168
30
0
11
-8.1284090909090967
21
-9.9018041014499207
31
0
0
LINE
5
151
100
AcDbEntity
8
0
100
AcDbLine
10
-8.1284090909090967
20
-9.9018041014499207
30
0
11
-7.1284090909090958
21
-9.9018041014499207
31
0
0
LINE
5
152
100
AcDbEntity
8
0
100
AcDbLine
10
-7.1284090909090958
20
-9.9018041014499207
30
0
11
-7.1284090909090958
21
-12.826804101449918
31
0
0
LINE
5
153
100
AcDbEntity
8
0
100
AcDbLine
10
-7.1284090909090958
20
-12.826804101449918
30
0
11
-8.1284090909090967
21
-12.826804101449918
31
0
0
LINE
5
154
100
AcDbEntity
8
0
100
AcDbLine
10
-8.1284090909090967
20
-12.826804101449918
30
0
11
-8.1284090909090967
21
-31.34443350981666
31
0
0
LINE
5
155
100
AcDbEntity
8
0
100
AcDbLine
10
-8.1284090909090967
20
-31.34443350981666
30
0
11
8.1284090909090967
21
-31.34443350981666
31
0
0
LINE
5
156
100
AcDbEntity
8
0
100
AcDbLine
10
8.1284090909090967
20
-31.34443350981666
30
0
11
8.1284090909090967
21
-12.826804101449918
31
0
0
LINE
5
157
100
AcDbEntity
8
0
100
AcDbLine
10
8.1284090909090967
20
-12.826804101449918
30
0
11
7.1284090909090958
21
-12.826804101449918
31
0
0
LINE
5
158
100
AcDbEntity
8
0
100
AcDbLine
10
7.1284090909090958
20
-12.826804101449918
30
0
11
7.1284090909090958
21
-9.9018041014499207
31
0
0
LINE
5
159
100
AcDbEntity
8
0
100
AcDbLine
10
7.1284090909090958
20
-9.9018041014499207
30
0
11
8.1284090909090967
21
-9.9018041014499207
31
0
0
LINE
5
160
100
AcDbEntity
8
0
100
AcDbLine
10
8.1284090909090967
20
-9.9018041014499207
30
0
11
8.1284090909090967
21
9.0215672097742168
31
0
0
LINE
5
161
100
AcDbEntity
8
0
100
AcDbLine
10
8.1284090909090967
20
9.0215672097742168
30
0
11
7.1284090909090958
21
9.0215672097742168
31
0
0
LINE
5
162
100
AcDbEntity
8
0
100
AcDbLine
10
7.1284090909090958
20
9.0215672097742168
30
0
11
7.1284090909090958
21
11.946567209774216
31
0
0
LINE
5
163
100
AcDbEntity
8
0
100
AcDbLine
10
7.1284090909090958
20
11.946567209774216
30
0
11
8.1284090909090967
21
11.946567209774216
31
0
0
LINE
5
164
100
AcDbEntity
8
0
100
AcDbLine
10
8.1284090909090967
20
11.946567209774216
30
0
11
8.1284090909090967
21
29.552725581092439
31
0
0
LINE
5
165
100
AcDbEntity
8
0
100
AcDbLine
10
8.1284090909090967
20
29.552725581092439
30
0
11
5.739465185943482
21
31.344433509816657
31
0
0
ENDSEC
0
SECTION
2
OBJECTS
0
DICTIONARY
5
C
100
AcDbDictionary
3
ACAD_GROUP
350
D
3
ACAD_MLINESTYLE
350
17
0
DICTIONARY
5
D
100
AcDbDictionary
0
DICTIONARY
5
1A
330
C
100
AcDbDictionary
0
DICTIONARY
5
17
100
AcDbDictionary
0
ENDSEC
0
EOF
