0
SECTION
2
HEADER
9
$INSUNITS
70
4
9
$ACADVER
1
AC1014
9
$HANDSEED
5
FFFF
0
ENDSEC
0
SECTION
2
TABLES
0
TABLE
2
VPORT
5
8
100
AcDbSymbolTable
0
ENDTAB
0
TABLE
2
LTYPE
5
5
100
AcDbSymbolTable
0
LTYPE
5
14
100
AcDbSymbolTableRecord
100
AcDbLinetypeTableRecord
2
BYBLOCK
70
0
0
LTYPE
5
15
100
AcDbSymbolTableRecord
100
AcDbLinetypeTableRecord
2
BYLAYER
70
0
0
ENDTAB
0
TABLE
2
LAYER
5
2
100
AcDbSymbolTable
70
2
0
LAYER
5
50
100
AcDbSymbolTableRecord
100
AcDbLayerTableRecord
2
0
70
0
6
CONTINUOUS
0
ENDTAB
0
TABLE
2
STYLE
5
3
100
AcDbSymbolTable
70
1
0
STYLE
5
11
100
AcDbSymbolTableRecord
100
AcDbTextStyleTableRecord
2
STANDARD
70
0
0
ENDTAB
0
TABLE
2
VIEW
5
6
100
AcDbSymbolTable
70
0
0
ENDTAB
0
TABLE
2
UCS
5
7
100
AcDbSymbolTable
70
0
0
ENDTAB
0
TABLE
2
APPID
5
9
100
AcDbSymbolTable
70
2
0
APPID
5
12
100
AcDbSymbolTableRecord
100
AcDbRegAppTableRecord
2
ACAD
70
0
0
ENDTAB
0
TABLE
2
DIMSTYLE
5
A
100
AcDbSymbolTable
70
1
0
ENDTAB
0
TABLE
2
BLOCK_RECORD
5
1
100
AcDbSymbolTable
70
1
0
BLOCK_RECORD
5
1F
100
AcDbSymbolTableRecord
100
AcDbBlockTableRecord
2
*MODEL_SPACE
0
BLOCK_RECORD
5
1B
100
AcDbSymbolTableRecord
100
AcDbBlockTableRecord
2
*PAPER_SPACE
0
ENDTAB
0
ENDSEC
0
SECTION
2
BLOCKS
0
BLOCK
5
20
100
AcDbEntity
100
AcDbBlockBegin
2
*MODEL_SPACE
0
ENDBLK
5
21
100
AcDbEntity
100
AcDbBlockEnd
0
BLOCK
5
1C
100
AcDbEntity
100
AcDbBlockBegin
2
*PAPER_SPACE
0
ENDBLK
5
1D
100
AcDbEntity
100
AcDbBlockEnd
0
ENDSEC
0
SECTION
2
ENTITIES
0
CIRCLE
5
100
100
AcDbEntity
8
0
100
AcDbCircle
10
0
20
26.636363636363644
30
0
40
1.0988636363636375
210
0
220
0
230
1
0
ARC
5
101
100
AcDbEntity
8
0
100
AcDbCircle
10
3.1944477636882507
20
-28.668801670022404
30
0
40
6.2859980138644111
210
0
220
-0
230
1
100
AcDbArc
50
44.180962258753084
51
135.819037741247
0
LINE
5
102
100
AcDbEntity
8
0
100
AcDbLine
10
7.7024023091427907
20
-24.287920840049615
30
0
11
7.7024023091427907
21
-32.417045454545452
31
0
0
LINE
5
103
100
AcDbEntity
8
0
100
AcDbLine
10
7.7024023091427907
20
-32.417045454545452
30
0
11
-1.3135067817662938
21
-32.417045454545452
31
0
0
LINE
5
104
100
AcDbEntity
8
0
100
AcDbLine
10
-1.3135067817662938
20
-32.417045454545452
30
0
11
-1.3135067817662938
21
-24.287920840049626
31
0
0
LINE
5
105
100
AcDbEntity
8
0
100
AcDbLine
10
-4.5079545454545533
20
-14.235227272727272
30
0
11
-4.5079545454545444
21
-8.8418026485756194
31
0
0
ARC
5
106
100
AcDbEntity
8
0
100
AcDbCircle
10
-8.8817841970012523e-15
20
-18.283320114858014
30
0
40
10.462499999999986
210
0
220
-0
230
1
100
AcDbArc
50
64.477353337772072
51
115.5226466622279
0
LINE
5
107
100
AcDbEntity
8
0
100
AcDbLine
10
4.5079545454545356
20
-8.8418026485756229
30
0
11
4.5079545454545311
21
-14.235227272727272
31
0
0
LINE
5
108
100
AcDbEntity
8
0
100
AcDbLine
10
4.5079545454545311
20
-14.235227272727272
30
0
11
-4.5079545454545533
21
-14.235227272727272
31
0
0
LINE
5
109
100
AcDbEntity
8
0
100
AcDbLine
10
-1.9414860468281603
20
13.037500000000005
30
0
11
-5.9573951377372492
21
13.037500000000005
31
0
0
LINE
5
110
100
AcDbEntity
8
0
100
AcDbLine
10
-5.9573951377372492
20
13.037500000000005
30
0
11
-5.9573951377372492
21
18.417045454545455
31
0
0
LINE
5
111
100
AcDbEntity
8
0
100
AcDbLine
10
-5.9573951377372492
20
18.417045454545455
30
0
11
-1.9414860468281603
21
18.417045454545455
31
0
0
LINE
5
112
100
AcDbEntity
8
0
100
AcDbLine
10
-1.9414860468281603
20
18.417045454545455
30
0
11
-1.9414860468281603
21
13.037500000000005
31
0
0
LINE
5
113
100
AcDbEntity
8
0
100
AcDbLine
10
1.9414860468281514
20
18.417045454545455
30
0
11
5.9573951377372403
21
18.417045454545455
31
0
0
LINE
5
114
100
AcDbEntity
8
0
100
AcDbLine
10
5.9573951377372403
20
18.417045454545455
30
0
11
5.9573951377372403
21
13.037500000000005
31
0
0
LINE
5
115
100
AcDbEntity
8
0
100
AcDbLine
10
5.9573951377372403
20
13.037500000000005
30
0
11
1.9414860468281514
21
13.037500000000005
31
0
0
LINE
5
116
100
AcDbEntity
8
0
100
AcDbLine
10
1.9414860468281514
20
13.037500000000005
30
0
11
1.9414860468281514
21
18.417045454545455
31
0
0
LINE
5
117
100
AcDbEntity
8
0
100
AcDbLine
10
4.5079545454545311
20
-0.59886363636363349
30
0
11
-4.5079545454545444
21
-0.59886363636363349
31
0
0
LINE
5
118
100
AcDbEntity
8
0
100
AcDbLine
10
4.5079545454545267
20
4.7945609877880191
30
0
11
4.5079545454545311
21
-0.59886363636363349
31
0
0
ARC
5
119
100
AcDbEntity
8
0
100
AcDbCircle
10
-4.4408920985006262e-15
20
-4.6469564784943902
30
0
40
10.462499999999999
210
0
220
-0
230
1
100
AcDbArc
50
64.477353337772172
51
115.52264666222781
0
LINE
5
120
100
AcDbEntity
8
0
100
AcDbLine
10
-4.5079545454545444
20
-0.59886363636363349
30
0
11
-4.5079545454545311
21
4.7945609877880146
31
0
0
LINE
5
121
100
AcDbEntity
8
0
100
AcDbLine
10
-6.8839051793718564
20
-23.401136363636368
30
0
11
-3.3225415430082217
21
-23.401136363636368
31
0
0
LINE
5
122
100
AcDbEntity
8
0
100
AcDbLine
10
-3.3225415430082217
20
-23.401136363636368
30
0
11
-3.3225415430082217
21
-32.417045454545459
31
0
0
LINE
5
123
100
AcDbEntity
8
0
100
AcDbLine
10
-3.3225415430082217
20
-32.417045454545452
30
0
11
-6.8839051793718564
21
-32.417045454545452
31
0
0
LINE
5
124
100
AcDbEntity
8
0
100
AcDbLine
10
-6.8839051793718564
20
-32.417045454545452
30
0
11
-6.8839051793718564
21
-23.401136363636368
31
0
0
LINE
5
125
100
AcDbEntity
8
0
100
AcDbLine
10
5.7452331599730666
20
30.442495584565666
30
0
11
3.2852331599730666
21
32.287495584565661
31
0
0
LINE
5
126
100
AcDbEntity
8
0
100
AcDbLine
10
3.2852331599730666
20
32.287495584565661
30
0
11
2.6852331599730661
21
31.487495584565664
31
0
0
LINE
5
127
100
AcDbEntity
8
0
100
AcDbLine
10
2.6852331599730661
20
31.487495584565664
30
0
11
0
21
33.50142045454546
31
0
0
LINE
5
128
100
AcDbEntity
8
0
100
AcDbLine
10
0
20
33.50142045454546
30
0
11
-2.5518998266397341
21
31.587495584565662
31
0
0
LINE
5
129
100
AcDbEntity
8
0
100
AcDbLine
10
-2.5518998266397341
20
31.587495584565662
30
0
11
-3.1518998266397302
21
32.387495584565663
31
0
0
LINE
5
130
100
AcDbEntity
8
0
100
AcDbLine
10
-3.1518998266397302
20
32.387495584565663
30
0
11
-5.6118998266397391
21
30.542495584565671
31
0
0
LINE
5
131
100
AcDbEntity
8
0
100
AcDbLine
10
-5.6118998266397391
20
30.542495584565671
30
0
11
-5.0118998266397341
21
29.742495584565663
31
0
0
LINE
5
132
100
AcDbEntity
8
0
100
AcDbLine
10
-5.0118998266397341
20
29.742495584565663
30
0
11
-9.1284090909090985
21
26.655113636363645
31
0
0
LINE
5
133
100
AcDbEntity
8
0
100
AcDbLine
10
-9.1284090909090985
20
26.655113636363645
30
0
11
-9.1284090909090985
21
23.62863659032632
31
0
0
LINE
5
134
100
AcDbEntity
8
0
100
AcDbLine
10
-9.1284090909090985
20
23.62863659032632
30
0
11
-8.1284090909090967
21
23.62863659032632
31
0
0
LINE
5
135
100
AcDbEntity
8
0
100
AcDbLine
10
-8.1284090909090967
20
23.62863659032632
30
0
11
-8.1284090909090967
21
20.703636590326319
31
0
0
LINE
5
136
100
AcDbEntity
8
0
100
AcDbLine
10
-8.1284090909090967
20
20.703636590326319
30
0
11
-9.1284090909090985
21
20.703636590326319
31
0
0
LINE
5
137
100
AcDbEntity
8
0
100
AcDbLine
10
-9.1284090909090985
20
20.703636590326319
30
0
11
-9.1284090909090985
21
4.0706464359336465
31
0
0
LINE
5
138
100
AcDbEntity
8
0
100
AcDbLine
10
-9.1284090909090985
20
4.0706464359336465
30
0
11
-8.1284090909090967
21
4.0706464359336465
31
0
0
LINE
5
139
100
AcDbEntity
8
0
100
AcDbLine
10
-8.1284090909090967
20
4.0706464359336465
30
0
11
-8.1284090909090967
21
1.1456464359336493
31
0
0
LINE
5
140
100
AcDbEntity
8
0
100
AcDbLine
10
-8.1284090909090967
20
1.1456464359336493
30
0
11
-9.1284090909090985
21
1.1456464359336493
31
0
0
LINE
5
141
100
AcDbEntity
8
0
100
AcDbLine
10
-9.1284090909090985
20
1.1456464359336493
30
0
11
-9.1284090909090985
21
-18.504158127990483
31
0
0
LINE
5
142
100
AcDbEntity
8
0
100
AcDbLine
10
-9.1284090909090985
20
-18.504158127990483
30
0
11
-8.1284090909090967
21
-18.504158127990483
31
0
0
LINE
5
143
100
AcDbEntity
8
0
100
AcDbLine
10
-8.1284090909090967
20
-18.504158127990483
30
0
11
-8.1284090909090967
21
-21.42915812799048
31
0
0
LINE
5
144
100
AcDbEntity
8
0
100
AcDbLine
10
-8.1284090909090967
20
-21.42915812799048
30
0
11
-9.1284090909090985
21
-21.42915812799048
31
0
0
LINE
5
145
100
AcDbEntity
8
0
100
AcDbLine
10
-9.1284090909090985
20
-21.42915812799048
30
0
11
-9.1284090909090985
21
-33.492045454545462
31
0
0
LINE
5
146
100
AcDbEntity
8
0
100
AcDbLine
10
-9.1284090909090985
20
-33.492045454545462
30
0
11
9.1284090909090931
21
-33.492045454545462
31
0
0
LINE
5
147
100
AcDbEntity
8
0
100
AcDbLine
10
9.1284090909090931
20
-33.492045454545462
30
0
11
9.1284090909090931
21
-21.42915812799048
31
0
0
LINE
5
148
100
AcDbEntity
8
0
100
AcDbLine
10
9.1284090909090931
20
-21.42915812799048
30
0
11
8.1284090909090967
21
-21.42915812799048
31
0
0
LINE
5
149
100
AcDbEntity
8
0
100
AcDbLine
10
8.1284090909090967
20
-21.42915812799048
30
0
11
8.1284090909090967
21
-18.504158127990483
31
0
0
LINE
5
150
100
AcDbEntity
8
0
100
AcDbLine
10
8.1284090909090967
20
-18.504158127990483
30
0
11
9.1284090909090931
21
-18.504158127990483
31
0
0
LINE
5
151
100
AcDbEntity
8
0
100
AcDbLine
10
9.1284090909090931
20
-18.504158127990483
30
0
11
9.1284090909090931
21
1.1456464359336493
31
0
0
LINE
5
152
100
AcDbEntity
8
0
100
AcDbLine
10
9.1284090909090931
20
1.1456464359336493
30
0
11
8.1284090909090967
21
1.1456464359336493
31
0
0
LINE
5
153
100
AcDbEntity
8
0
100
AcDbLine
10
8.1284090909090967
20
1.1456464359336493
30
0
11
8.1284090909090967
21
4.0706464359336465
31
0
0
LINE
5
154
100
AcDbEntity
8
0
100
AcDbLine
10
8.1284090909090967
20
4.0706464359336465
30
0
11
9.1284090909090931
21
4.0706464359336465
31
0
0
LINE
5
155
100
AcDbEntity
8
0
100
AcDbLine
10
9.1284090909090931
20
4.0706464359336465
30
0
11
9.1284090909090931
21
20.703636590326319
31
0
0
LINE
5
156
100
AcDbEntity
8
0
100
AcDbLine
10
9.1284090909090931
20
20.703636590326319
30
0
11
8.1284090909090967
21
20.703636590326319
31
0
0
LINE
5
157
100
AcDbEntity
8
0
100
AcDbLine
10
8.1284090909090967
20
20.703636590326319
30
0
11
8.1284090909090967
21
23.62863659032632
31
0
0
LINE
5
158
100
AcDbEntity
8
0
100
AcDbLine
10
8.1284090909090967
20
23.62863659032632
30
0
11
9.1284090909090931
21
23.62863659032632
31
0
0
LINE
5
159
100
AcDbEntity
8
0
100
AcDbLine
10
9.1284090909090931
20
23.62863659032632
30
0
11
9.1284090909090931
21
26.655113636363645
31
0
0
LINE
5
160
100
AcDbEntity
8
0
100
AcDbLine
10
9.1284090909090931
20
26.655113636363645
30
0
11
5.1452331599730705
21
29.642495584565665
31
0
0
LINE
5
161
100
AcDbEntity
8
0
100
AcDbLine
10
5.1452331599730705
20
29.642495584565665
30
0
11
5.7452331599730666
21
30.442495584565666
31
0
0
ENDSEC
0
SECTION
2
OBJECTS
0
DICTIONARY
5
C
100
AcDbDictionary
3
ACAD_GROUP
350
D
3
ACAD_MLINESTYLE
350
17
0
DICTIONARY
5
D
100
AcDbDictionary
0
DICTIONARY
5
1A
330
C
100
AcDbDictionary
0
DICTIONARY
5
17
100
AcDbDictionary
0
ENDSEC
0
EOF
