  0
SECTION
  2
HEADER
  9
$ACADVER
  1
AC1015
  9
$ACADMAINTVER
 70
6
  9
$DWGCODEPAGE
  3
ANSI_1252
  9
$TDCREATE
 40
2459268.7641319446
  9
$TDUPDATE
 40
2459268.7641319446
  9
$HANDSEED
  5
101E3
  9
$INSUNITS
 70
4
  9
$FINGERPRINTGUID
  2
3DD8EA74-7532-11EB-AA03-D20010FD74C0
  9
$VERSIONGUID
  2
3E1F67A6-7532-11EB-AA03-D20010FD74C0
  0
ENDSEC
  0
SECTION
  2
CLASSES
  0
CLASS
  1
ACDBDICTIONARYWDFLT
  2
AcDbDictionaryWithDefault
  3
ObjectDBX Classes
 90
0
280
0
281
0
  0
CLASS
  1
SUN
  2
AcDbSun
  3
SCENEOE
 90
1153
280
0
281
0
  0
CLASS
  1
VISUALSTYLE
  2
AcDbVisualStyle
  3
ObjectDBX Classes
 90
4095
280
0
281
0
  0
CLASS
  1
MATERIAL
  2
AcDbMaterial
  3
ObjectDBX Classes
 90
1153
280
0
281
0
  0
CLASS
  1
SCALE
  2
AcDbScale
  3
ObjectDBX Classes
 90
1153
280
0
281
0
  0
CLASS
  1
TABLESTYLE
  2
AcDbTableStyle
  3
ObjectDBX Classes
 90
4095
280
0
281
0
  0
CLASS
  1
MLEADERSTYLE
  2
AcDbMLeaderStyle
  3
ACDB_MLEADERSTYLE_CLASS
 90
4095
280
0
281
0
  0
CLASS
  1
DICTIONARYVAR
  2
AcDbDictionaryVar
  3
ObjectDBX Classes
 90
0
280
0
281
0
  0
CLASS
  1
CELLSTYLEMAP
  2
AcDbCellStyleMap
  3
ObjectDBX Classes
 90
1152
280
0
281
0
  0
CLASS
  1
MENTALRAYRENDERSETTINGS
  2
AcDbMentalRayRenderSettings
  3
SCENEOE
 90
1024
280
0
281
0
  0
CLASS
  1
ACDBDETAILVIEWSTYLE
  2
AcDbDetailViewStyle
  3
ObjectDBX Classes
 90
1025
280
0
281
0
  0
CLASS
  1
ACDBSECTIONVIEWSTYLE
  2
AcDbSectionViewStyle
  3
ObjectDBX Classes
 90
1025
280
0
281
0
  0
CLASS
  1
RASTERVARIABLES
  2
AcDbRasterVariables
  3
ISM
 90
0
280
0
281
0
  0
CLASS
  1
ACDBPLACEHOLDER
  2
AcDbPlaceHolder
  3
ObjectDBX Classes
 90
0
280
0
281
0
  0
CLASS
  1
LAYOUT
  2
AcDbLayout
  3
ObjectDBX Classes
 90
0
280
0
281
0
  0
ENDSEC
  0
SECTION
  2
TABLES
  0
TABLE
  2
VPORT
  5
8
330
0
100
AcDbSymbolTable
 70
1
  0
VPORT
  5
1006A
330
8
100
AcDbSymbolTableRecord
100
AcDbViewportTableRecord
  2
*Active
 70
0
 10
0.0
 20
0.0
 11
1.0
 21
1.0
 12
70.0
 22
50.0
 13
0.0
 23
0.0
 14
0.5
 24
0.5
 15
0.5
 25
0.5
 16
0.0
 26
0.0
 36
1.0
 17
0.0
 27
0.0
 37
0.0
 40
1.0
 41
1.34
 42
50.0
 43
0.0
 44
0.0
 50
0.0
 51
0.0
 71
0
 72
1000
 73
1
 74
3
 75
0
 76
0
 77
0
 78
0
281
0
 65
0
146
0.0
  0
ENDTAB
  0
TABLE
  2
LTYPE
  5
5
330
0
100
AcDbSymbolTable
 70
3
  0
LTYPE
  5
1006B
330
5
100
AcDbSymbolTableRecord
100
AcDbLinetypeTableRecord
  2
Continuous
 70
0
  3

 72
65
 73
0
 40
0.0
  0
ENDTAB
  0
TABLE
  2
LAYER
  5
2
330
0
100
AcDbSymbolTable
 70
2
  0
LAYER
  5
50
330
2
100
AcDbSymbolTableRecord
100
AcDbLayerTableRecord
  2
0
 70
0
 62
7
  6
CONTINUOUS
370
-3
390
10060
  0
LAYER
  5
1006C
330
2
100
AcDbSymbolTableRecord
100
AcDbLayerTableRecord
  2
Defpoints
 70
0
 62
7
  6
Continuous
290
0
370
-3
390
10060
  0
ENDTAB
  0
TABLE
  2
STYLE
  5
3
330
0
100
AcDbSymbolTable
 70
1
  0
STYLE
  5
11
330
3
100
AcDbSymbolTableRecord
100
AcDbTextStyleTableRecord
  2
STANDARD
 70
0
 40
0.0
 41
1.0
 50
0.0
 71
0
 42
2.5
  3
txt
  4

  0
ENDTAB
  0
TABLE
  2
VIEW
  5
6
330
0
100
AcDbSymbolTable
 70
0
  0
ENDTAB
  0
TABLE
  2
UCS
  5
7
330
0
100
AcDbSymbolTable
 70
0
  0
ENDTAB
  0
TABLE
  2
APPID
  5
9
330
0
100
AcDbSymbolTable
 70
2
  0
APPID
  5
12
330
9
100
AcDbSymbolTableRecord
100
AcDbRegAppTableRecord
  2
ACAD
 70
0
  0
APPID
  5
101E2
330
9
100
AcDbSymbolTableRecord
100
AcDbRegAppTableRecord
  2
HATCHBACKGROUNDCOLOR
 70
0
  0
ENDTAB
  0
TABLE
  2
DIMSTYLE
  5
A
330
0
100
AcDbSymbolTable
 70
1
100
AcDbDimStyleTable
  0
DIMSTYLE
105
1006D
330
A
100
AcDbSymbolTableRecord
100
AcDbDimStyleTableRecord
  2
Standard
 70
0
  3

  4

 40
1.0
 41
2.5
 42
0.625
 43
3.75
 44
1.25
 45
0.0
 46
0.0
 47
0.0
 48
0.0
140
2.5
141
2.5
142
0.0
143
0.03937007874
144
1.0
145
0.0
146
1.0
147
0.625
148
0.0
 71
0
 72
0
 73
0
 74
0
 75
0
 76
0
 77
1
 78
8
 79
0
170
0
171
3
172
1
173
0
174
0
175
0
176
0
177
0
178
0
179
0
271
0
272
2
273
2
274
3
275
0
276
0
277
2
278
44
279
0
280
0
281
0
282
0
283
0
284
8
285
0
286
0
288
0
289
3
371
-2
372
-2
  0
ENDTAB
  0
TABLE
  2
BLOCK_RECORD
  5
1
330
0
100
AcDbSymbolTable
 70
22
  0
BLOCK_RECORD
  5
1F
330
1
100
AcDbSymbolTableRecord
100
AcDbBlockTableRecord
  2
*MODEL_SPACE
340
10064
  0
BLOCK_RECORD
  5
1B
330
1
100
AcDbSymbolTableRecord
100
AcDbBlockTableRecord
  2
*PAPER_SPACE
340
10065
  0
BLOCK_RECORD
  5
FFFF
330
1
100
AcDbSymbolTableRecord
100
AcDbBlockTableRecord
  2
_CLOSEDFILLED
340
0
  0
BLOCK_RECORD
  5
10003
330
1
100
AcDbSymbolTableRecord
100
AcDbBlockTableRecord
  2
_OPEN90
340
0
  0
BLOCK_RECORD
  5
10008
330
1
100
AcDbSymbolTableRecord
100
AcDbBlockTableRecord
  2
_BOXBLANK
340
0
  0
BLOCK_RECORD
  5
1000D
330
1
100
AcDbSymbolTableRecord
100
AcDbBlockTableRecord
  2
_BOXFILLED
340
0
  0
BLOCK_RECORD
  5
10012
330
1
100
AcDbSymbolTableRecord
100
AcDbBlockTableRecord
  2
_OPEN
340
0
  0
BLOCK_RECORD
  5
10017
330
1
100
AcDbSymbolTableRecord
100
AcDbBlockTableRecord
  2
_OPEN30
340
0
  0
BLOCK_RECORD
  5
1001C
330
1
100
AcDbSymbolTableRecord
100
AcDbBlockTableRecord
  2
_SMALL
340
0
  0
BLOCK_RECORD
  5
10020
330
1
100
AcDbSymbolTableRecord
100
AcDbBlockTableRecord
  2
_NONE
340
0
  0
BLOCK_RECORD
  5
10023
330
1
100
AcDbSymbolTableRecord
100
AcDbBlockTableRecord
  2
_DOT
340
0
  0
BLOCK_RECORD
  5
10028
330
1
100
AcDbSymbolTableRecord
100
AcDbBlockTableRecord
  2
_DATUMFILLED
340
0
  0
BLOCK_RECORD
  5
1002C
330
1
100
AcDbSymbolTableRecord
100
AcDbBlockTableRecord
  2
_DOTSMALL
340
0
  0
BLOCK_RECORD
  5
10030
330
1
100
AcDbSymbolTableRecord
100
AcDbBlockTableRecord
  2
_ARCHTICK
340
0
  0
BLOCK_RECORD
  5
10034
330
1
100
AcDbSymbolTableRecord
100
AcDbBlockTableRecord
  2
_CLOSED
340
0
  0
BLOCK_RECORD
  5
10039
330
1
100
AcDbSymbolTableRecord
100
AcDbBlockTableRecord
  2
_CLOSEDBLANK
340
0
  0
BLOCK_RECORD
  5
1003D
330
1
100
AcDbSymbolTableRecord
100
AcDbBlockTableRecord
  2
_DOTBLANK
340
0
  0
BLOCK_RECORD
  5
10042
330
1
100
AcDbSymbolTableRecord
100
AcDbBlockTableRecord
  2
_INTEGRAL
340
0
  0
BLOCK_RECORD
  5
10047
330
1
100
AcDbSymbolTableRecord
100
AcDbBlockTableRecord
  2
_DATUMBLANK
340
0
  0
BLOCK_RECORD
  5
1004B
330
1
100
AcDbSymbolTableRecord
100
AcDbBlockTableRecord
  2
_OBLIQUE
340
0
  0
BLOCK_RECORD
  5
1004F
330
1
100
AcDbSymbolTableRecord
100
AcDbBlockTableRecord
  2
_ORIGIN2
340
0
  0
BLOCK_RECORD
  5
10055
330
1
100
AcDbSymbolTableRecord
100
AcDbBlockTableRecord
  2
_ORIGIN
340
0
  0
ENDTAB
  0
ENDSEC
  0
SECTION
  2
BLOCKS
  0
BLOCK
  5
20
330
1F
100
AcDbEntity
  8
0
100
AcDbBlockBegin
  2
*MODEL_SPACE
 70
0
 10
0.0
 20
0.0
 30
0.0
  3
*MODEL_SPACE
  1

  0
ENDBLK
  5
21
330
1F
100
AcDbEntity
  8
0
100
AcDbBlockEnd
  0
BLOCK
  5
1C
330
1B
100
AcDbEntity
  8
0
100
AcDbBlockBegin
  2
*PAPER_SPACE
 70
0
 10
0.0
 20
0.0
 30
0.0
  3
*PAPER_SPACE
  1

  0
ENDBLK
  5
1D
330
1B
100
AcDbEntity
  8
0
100
AcDbBlockEnd
  0
BLOCK
  5
10000
330
FFFF
100
AcDbEntity
  8
0
100
AcDbBlockBegin
  2
_CLOSEDFILLED
 70
0
 10
0.0
 20
0.0
 30
0.0
  3
_CLOSEDFILLED
  1

  0
SOLID
  5
10002
330
FFFF
100
AcDbEntity
  8
0
  6
BYBLOCK
 62
0
100
AcDbTrace
 10
-1.0
 20
0.1643989837240255
 30
0.0
 11
0.0
 21
0.0
 31
0.0
 12
-1.0
 22
-0.1643989837240255
 32
0.0
 13
-1.0
 23
-0.1643989837240255
 33
0.0
  0
ENDBLK
  5
10001
330
FFFF
100
AcDbEntity
  8
0
100
AcDbBlockEnd
  0
BLOCK
  5
10004
330
10003
100
AcDbEntity
  8
0
100
AcDbBlockBegin
  2
_OPEN90
 70
0
 10
0.0
 20
0.0
 30
0.0
  3
_OPEN90
  1

  0
LWPOLYLINE
  5
10006
330
10003
100
AcDbEntity
  8
0
  6
BYBLOCK
 62
0
100
AcDbPolyline
 90
3
 70
0
 10
-0.9999999999999998
 20
0.7071067811865476
 10
0.0
 20
0.0
 10
-0.9999999999999998
 20
-0.7071067811865476
  0
LINE
  5
10007
330
10003
100
AcDbEntity
  8
0
  6
BYBLOCK
 62
0
100
AcDbLine
 10
0.0
 20
0.0
 30
0.0
 11
-1.0
 21
1.2246467991473532e-16
 31
0.0
  0
ENDBLK
  5
10005
330
10003
100
AcDbEntity
  8
0
100
AcDbBlockEnd
  0
BLOCK
  5
10009
330
10008
100
AcDbEntity
  8
0
100
AcDbBlockBegin
  2
_BOXBLANK
 70
0
 10
0.0
 20
0.0
 30
0.0
  3
_BOXBLANK
  1

  0
LWPOLYLINE
  5
1000B
330
10008
100
AcDbEntity
  8
0
  6
BYBLOCK
 62
0
100
AcDbPolyline
 90
4
 70
1
 10
-0.5
 20
-0.5000000000000001
 10
0.5000000000000001
 20
-0.5
 10
0.5000000000000001
 20
0.5
 10
-0.5
 20
0.5000000000000001
  0
LINE
  5
1000C
330
10008
100
AcDbEntity
  8
0
  6
BYBLOCK
 62
0
100
AcDbLine
 10
-0.5
 20
6.123233995736766e-17
 30
0.0
 11
-1.0
 21
1.2246467991473532e-16
 31
0.0
  0
ENDBLK
  5
1000A
330
10008
100
AcDbEntity
  8
0
100
AcDbBlockEnd
  0
BLOCK
  5
1000E
330
1000D
100
AcDbEntity
  8
0
100
AcDbBlockBegin
  2
_BOXFILLED
 70
0
 10
0.0
 20
0.0
 30
0.0
  3
_BOXFILLED
  1

  0
SOLID
  5
10010
330
1000D
100
AcDbEntity
  8
0
  6
BYBLOCK
 62
0
100
AcDbTrace
 10
-0.5
 20
-0.5000000000000001
 30
0.0
 11
0.5000000000000001
 21
-0.5
 31
0.0
 12
-0.5
 22
0.5000000000000001
 32
0.0
 13
0.5000000000000001
 23
0.5
 33
0.0
  0
LINE
  5
10011
330
1000D
100
AcDbEntity
  8
0
  6
BYBLOCK
 62
0
100
AcDbLine
 10
-0.5
 20
6.123233995736766e-17
 30
0.0
 11
-1.0
 21
1.2246467991473532e-16
 31
0.0
  0
ENDBLK
  5
1000F
330
1000D
100
AcDbEntity
  8
0
100
AcDbBlockEnd
  0
BLOCK
  5
10013
330
10012
100
AcDbEntity
  8
0
100
AcDbBlockBegin
  2
_OPEN
 70
0
 10
0.0
 20
0.0
 30
0.0
  3
_OPEN
  1

  0
LWPOLYLINE
  5
10015
330
10012
100
AcDbEntity
  8
0
  6
BYBLOCK
 62
0
100
AcDbPolyline
 90
3
 70
0
 10
-1.0
 20
0.1643989837240255
 10
0.0
 20
0.0
 10
-1.0
 20
-0.1643989837240255
  0
LINE
  5
10016
330
10012
100
AcDbEntity
  8
0
  6
BYBLOCK
 62
0
100
AcDbLine
 10
0.0
 20
0.0
 30
0.0
 11
-1.0
 21
1.2246467991473532e-16
 31
0.0
  0
ENDBLK
  5
10014
330
10012
100
AcDbEntity
  8
0
100
AcDbBlockEnd
  0
BLOCK
  5
10018
330
10017
100
AcDbEntity
  8
0
100
AcDbBlockBegin
  2
_OPEN30
 70
0
 10
0.0
 20
0.0
 30
0.0
  3
_OPEN30
  1

  0
LWPOLYLINE
  5
1001A
330
10017
100
AcDbEntity
  8
0
  6
BYBLOCK
 62
0
100
AcDbPolyline
 90
3
 70
0
 10
-0.9999999999999999
 20
0.2588190451025208
 10
0.0
 20
0.0
 10
-0.9999999999999999
 20
-0.2588190451025208
  0
LINE
  5
1001B
330
10017
100
AcDbEntity
  8
0
  6
BYBLOCK
 62
0
100
AcDbLine
 10
0.0
 20
0.0
 30
0.0
 11
-1.0
 21
1.2246467991473532e-16
 31
0.0
  0
ENDBLK
  5
10019
330
10017
100
AcDbEntity
  8
0
100
AcDbBlockEnd
  0
BLOCK
  5
1001D
330
1001C
100
AcDbEntity
  8
0
100
AcDbBlockBegin
  2
_SMALL
 70
0
 10
0.0
 20
0.0
 30
0.0
  3
_SMALL
  1

  0
CIRCLE
  5
1001F
330
1001C
100
AcDbEntity
  8
0
  6
BYBLOCK
 62
0
100
AcDbCircle
 10
0.0
 20
0.0
 30
0.0
 40
0.25
  0
ENDBLK
  5
1001E
330
1001C
100
AcDbEntity
  8
0
100
AcDbBlockEnd
  0
BLOCK
  5
10021
330
10020
100
AcDbEntity
  8
0
100
AcDbBlockBegin
  2
_NONE
 70
0
 10
0.0
 20
0.0
 30
0.0
  3
_NONE
  1

  0
ENDBLK
  5
10022
330
10020
100
AcDbEntity
  8
0
100
AcDbBlockEnd
  0
BLOCK
  5
10024
330
10023
100
AcDbEntity
  8
0
100
AcDbBlockBegin
  2
_DOT
 70
0
 10
0.0
 20
0.0
 30
0.0
  3
_DOT
  1

  0
LINE
  5
10026
330
10023
100
AcDbEntity
  8
0
  6
BYBLOCK
 62
0
100
AcDbLine
 10
-0.5
 20
6.123233995736766e-17
 30
0.0
 11
-1.0
 21
1.2246467991473532e-16
 31
0.0
  0
LWPOLYLINE
  5
10027
330
10023
100
AcDbEntity
  8
0
  6
BYBLOCK
 62
0
100
AcDbPolyline
 90
2
 70
1
 43
0.5
 10
-0.25
 20
0.0
 42
1.0
 10
0.25
 20
0.0
 42
1.0
  0
ENDBLK
  5
10025
330
10023
100
AcDbEntity
  8
0
100
AcDbBlockEnd
  0
BLOCK
  5
10029
330
10028
100
AcDbEntity
  8
0
100
AcDbBlockBegin
  2
_DATUMFILLED
 70
0
 10
0.0
 20
0.0
 30
0.0
  3
_DATUMFILLED
  1

  0
SOLID
  5
1002B
330
10028
100
AcDbEntity
  8
0
  6
BYBLOCK
 62
0
100
AcDbTrace
 10
3.5352507945885664e-17
 20
0.577350269
 30
0.0
 11
3.5352507945885664e-17
 21
-0.577350269
 31
0.0
 12
-1.0
 22
1.2246467991473532e-16
 32
0.0
 13
-1.0
 23
1.2246467991473532e-16
 33
0.0
  0
ENDBLK
  5
1002A
330
10028
100
AcDbEntity
  8
0
100
AcDbBlockEnd
  0
BLOCK
  5
1002D
330
1002C
100
AcDbEntity
  8
0
100
AcDbBlockBegin
  2
_DOTSMALL
 70
0
 10
0.0
 20
0.0
 30
0.0
  3
_DOTSMALL
  1

  0
LWPOLYLINE
  5
1002F
330
1002C
100
AcDbEntity
  8
0
  6
BYBLOCK
 62
0
100
AcDbPolyline
 90
2
 70
1
 43
0.125
 10
-0.0625
 20
0.0
 42
1.0
 10
0.0625
 20
0.0
 42
1.0
  0
ENDBLK
  5
1002E
330
1002C
100
AcDbEntity
  8
0
100
AcDbBlockEnd
  0
BLOCK
  5
10031
330
10030
100
AcDbEntity
  8
0
100
AcDbBlockBegin
  2
_ARCHTICK
 70
0
 10
0.0
 20
0.0
 30
0.0
  3
_ARCHTICK
  1

  0
LWPOLYLINE
  5
10033
330
10030
100
AcDbEntity
  8
0
  6
BYBLOCK
 62
0
100
AcDbPolyline
 90
2
 70
0
 43
0.15
 10
-0.5
 20
-0.5000000000000001
 10
0.5000000000000001
 20
0.5
  0
ENDBLK
  5
10032
330
10030
100
AcDbEntity
  8
0
100
AcDbBlockEnd
  0
BLOCK
  5
10035
330
10034
100
AcDbEntity
  8
0
100
AcDbBlockBegin
  2
_CLOSED
 70
0
 10
0.0
 20
0.0
 30
0.0
  3
_CLOSED
  1

  0
LWPOLYLINE
  5
10037
330
10034
100
AcDbEntity
  8
0
  6
BYBLOCK
 62
0
100
AcDbPolyline
 90
3
 70
1
 10
-1.0
 20
0.1643989837240255
 10
0.0
 20
0.0
 10
-1.0
 20
-0.1643989837240255
  0
LINE
  5
10038
330
10034
100
AcDbEntity
  8
0
  6
BYBLOCK
 62
0
100
AcDbLine
 10
0.0
 20
0.0
 30
0.0
 11
-1.0
 21
0.0
 31
0.0
  0
ENDBLK
  5
10036
330
10034
100
AcDbEntity
  8
0
100
AcDbBlockEnd
  0
BLOCK
  5
1003A
330
10039
100
AcDbEntity
  8
0
100
AcDbBlockBegin
  2
_CLOSEDBLANK
 70
0
 10
0.0
 20
0.0
 30
0.0
  3
_CLOSEDBLANK
  1

  0
LWPOLYLINE
  5
1003C
330
10039
100
AcDbEntity
  8
0
  6
BYBLOCK
 62
0
100
AcDbPolyline
 90
3
 70
1
 10
-1.0
 20
0.1643989837240255
 10
0.0
 20
0.0
 10
-1.0
 20
-0.1643989837240255
  0
ENDBLK
  5
1003B
330
10039
100
AcDbEntity
  8
0
100
AcDbBlockEnd
  0
BLOCK
  5
1003E
330
1003D
100
AcDbEntity
  8
0
100
AcDbBlockBegin
  2
_DOTBLANK
 70
0
 10
0.0
 20
0.0
 30
0.0
  3
_DOTBLANK
  1

  0
CIRCLE
  5
10040
330
1003D
100
AcDbEntity
  8
0
  6
BYBLOCK
 62
0
100
AcDbCircle
 10
0.0
 20
0.0
 30
0.0
 40
0.5
  0
LINE
  5
10041
330
1003D
100
AcDbEntity
  8
0
  6
BYBLOCK
 62
0
100
AcDbLine
 10
-0.5
 20
6.123233995736766e-17
 30
0.0
 11
-1.0
 21
1.2246467991473532e-16
 31
0.0
  0
ENDBLK
  5
1003F
330
1003D
100
AcDbEntity
  8
0
100
AcDbBlockEnd
  0
BLOCK
  5
10043
330
10042
100
AcDbEntity
  8
0
100
AcDbBlockBegin
  2
_INTEGRAL
 70
0
 10
0.0
 20
0.0
 30
0.0
  3
_INTEGRAL
  1

  0
ARC
  5
10045
330
10042
100
AcDbEntity
  8
0
  6
BYBLOCK
 62
0
100
AcDbCircle
 10
-0.3535534
 20
4.329780396376638e-17
 30
0.0
 40
0.3535534
100
AcDbArc
 50
-90.0
 51
0.0
  0
ARC
  5
10046
330
10042
100
AcDbEntity
  8
0
  6
BYBLOCK
 62
0
100
AcDbCircle
 10
0.3535534
 20
0.0
 30
0.0
 40
0.3535534
100
AcDbArc
 50
90.0
 51
180.0
  0
ENDBLK
  5
10044
330
10042
100
AcDbEntity
  8
0
100
AcDbBlockEnd
  0
BLOCK
  5
10048
330
10047
100
AcDbEntity
  8
0
100
AcDbBlockBegin
  2
_DATUMBLANK
 70
0
 10
0.0
 20
0.0
 30
0.0
  3
_DATUMBLANK
  1

  0
LWPOLYLINE
  5
1004A
330
10047
100
AcDbEntity
  8
0
  6
BYBLOCK
 62
0
100
AcDbPolyline
 90
3
 70
1
 10
3.5352507945885664e-17
 20
0.577350269
 10
3.5352507945885664e-17
 20
-0.577350269
 10
-1.0
 20
1.2246467991473532e-16
  0
ENDBLK
  5
10049
330
10047
100
AcDbEntity
  8
0
100
AcDbBlockEnd
  0
BLOCK
  5
1004C
330
1004B
100
AcDbEntity
  8
0
100
AcDbBlockBegin
  2
_OBLIQUE
 70
0
 10
0.0
 20
0.0
 30
0.0
  3
_OBLIQUE
  1

  0
LINE
  5
1004E
330
1004B
100
AcDbEntity
  8
0
  6
BYBLOCK
 62
0
100
AcDbLine
 10
-0.5
 20
-0.5000000000000001
 30
0.0
 11
0.5000000000000001
 21
0.5
 31
0.0
  0
ENDBLK
  5
1004D
330
1004B
100
AcDbEntity
  8
0
100
AcDbBlockEnd
  0
BLOCK
  5
10050
330
1004F
100
AcDbEntity
  8
0
100
AcDbBlockBegin
  2
_ORIGIN2
 70
0
 10
0.0
 20
0.0
 30
0.0
  3
_ORIGIN2
  1

  0
CIRCLE
  5
10052
330
1004F
100
AcDbEntity
  8
0
  6
BYBLOCK
 62
0
100
AcDbCircle
 10
0.0
 20
0.0
 30
0.0
 40
0.5
  0
CIRCLE
  5
10053
330
1004F
100
AcDbEntity
  8
0
  6
BYBLOCK
 62
0
100
AcDbCircle
 10
0.0
 20
0.0
 30
0.0
 40
0.25
  0
LINE
  5
10054
330
1004F
100
AcDbEntity
  8
0
  6
BYBLOCK
 62
0
100
AcDbLine
 10
-0.5
 20
6.123233995736766e-17
 30
0.0
 11
-1.0
 21
1.2246467991473532e-16
 31
0.0
  0
ENDBLK
  5
10051
330
1004F
100
AcDbEntity
  8
0
100
AcDbBlockEnd
  0
BLOCK
  5
10056
330
10055
100
AcDbEntity
  8
0
100
AcDbBlockBegin
  2
_ORIGIN
 70
0
 10
0.0
 20
0.0
 30
0.0
  3
_ORIGIN
  1

  0
CIRCLE
  5
10058
330
10055
100
AcDbEntity
  8
0
  6
BYBLOCK
 62
0
100
AcDbCircle
 10
0.0
 20
0.0
 30
0.0
 40
0.5
  0
LINE
  5
10059
330
10055
100
AcDbEntity
  8
0
  6
BYBLOCK
 62
0
100
AcDbLine
 10
0.0
 20
0.0
 30
0.0
 11
-1.0
 21
1.2246467991473532e-16
 31
0.0
  0
ENDBLK
  5
10057
330
10055
100
AcDbEntity
  8
0
100
AcDbBlockEnd
  0
ENDSEC
  0
SECTION
  2
ENTITIES
  0
LINE
  5
100
330
1F
100
AcDbEntity
  8
0
100
AcDbLine
 10
14.620454545454546
 20
18.35382987769423
 30
0.0
 11
10.0
 21
18.35382987769423
 31
0.0
  0
LINE
  5
101
330
1F
100
AcDbEntity
  8
0
100
AcDbLine
 10
10.0
 20
18.35382987769423
 30
0.0
 11
10.0
 21
14.642466241330593
 31
0.0
  0
LINE
  5
102
330
1F
100
AcDbEntity
  8
0
100
AcDbLine
 10
10.0
 20
14.642466241330593
 30
0.0
 11
12.272727272727273
 21
14.642466241330593
 31
0.0
  0
LINE
  5
103
330
1F
100
AcDbEntity
  8
0
100
AcDbLine
 10
12.272727272727273
 20
14.642466241330593
 30
0.0
 11
12.272727272727273
 21
3.7113636363636378
 31
0.0
  0
LINE
  5
104
330
1F
100
AcDbEntity
  8
0
100
AcDbLine
 10
12.272727272727273
 20
3.7113636363636378
 30
0.0
 11
10.0
 21
3.7113636363636378
 31
0.0
  0
LINE
  5
105
330
1F
100
AcDbEntity
  8
0
100
AcDbLine
 10
10.0
 20
3.7113636363636378
 30
0.0
 11
10.0
 21
0.0
 31
0.0
  0
LINE
  5
106
330
1F
100
AcDbEntity
  8
0
100
AcDbLine
 10
10.0
 20
1.7763568394002505e-15
 30
0.0
 11
14.620454545454546
 21
1.7763568394002505e-15
 31
0.0
  0
LINE
  5
107
330
1F
100
AcDbEntity
  8
0
100
AcDbLine
 10
14.620454545454546
 20
1.7763568394002505e-15
 30
0.0
 11
14.620454545454546
 21
3.8861942004293333
 31
0.0
  0
LINE
  5
108
330
1F
100
AcDbEntity
  8
0
100
AcDbLine
 10
14.620454545454546
 20
3.8861942004293333
 30
0.0
 11
15.620454545454548
 21
3.8861942004293333
 31
0.0
  0
LINE
  5
109
330
1F
100
AcDbEntity
  8
0
100
AcDbLine
 10
15.620454545454548
 20
3.8861942004293333
 30
0.0
 11
15.620454545454548
 21
5.961194200429332
 31
0.0
  0
LINE
  5
110
330
1F
100
AcDbEntity
  8
0
100
AcDbLine
 10
15.620454545454548
 20
5.961194200429331
 30
0.0
 11
14.620454545454546
 21
5.961194200429331
 31
0.0
  0
LINE
  5
111
330
1F
100
AcDbEntity
  8
0
100
AcDbLine
 10
14.620454545454546
 20
5.961194200429331
 30
0.0
 11
14.620454545454546
 21
13.590905922379504
 31
0.0
  0
LINE
  5
112
330
1F
100
AcDbEntity
  8
0
100
AcDbLine
 10
14.620454545454546
 20
13.590905922379504
 30
0.0
 11
15.620454545454548
 21
13.590905922379504
 31
0.0
  0
LINE
  5
113
330
1F
100
AcDbEntity
  8
0
100
AcDbLine
 10
15.620454545454548
 20
13.590905922379504
 30
0.0
 11
15.620454545454548
 21
15.665905922379501
 31
0.0
  0
LINE
  5
114
330
1F
100
AcDbEntity
  8
0
100
AcDbLine
 10
15.620454545454548
 20
15.665905922379501
 30
0.0
 11
14.620454545454546
 21
15.665905922379501
 31
0.0
  0
LINE
  5
115
330
1F
100
AcDbEntity
  8
0
100
AcDbLine
 10
14.620454545454546
 20
15.665905922379501
 30
0.0
 11
14.620454545454546
 21
18.35382987769423
 31
0.0
  0
LINE
  5
1006F
330
1F
100
AcDbEntity
  8
0
100
AcDbLine
 10
10.0
 20
32.06519351405787
 30
0.0
 11
10.0
 21
28.353829877694228
 31
0.0
  0
LINE
  5
10070
330
1F
100
AcDbEntity
  8
0
100
AcDbLine
 10
10.0
 20
28.353829877694228
 30
0.0
 11
14.62045454545455
 21
28.353829877694228
 31
0.0
  0
LINE
  5
10071
330
1F
100
AcDbEntity
  8
0
100
AcDbLine
 10
14.62045454545455
 20
28.353829877694228
 30
0.0
 11
14.62045454545455
 21
32.24002407812356
 31
0.0
  0
LINE
  5
10072
330
1F
100
AcDbEntity
  8
0
100
AcDbLine
 10
14.62045454545455
 20
32.24002407812356
 30
0.0
 11
15.62045454545455
 21
32.24002407812356
 31
0.0
  0
LINE
  5
10073
330
1F
100
AcDbEntity
  8
0
100
AcDbLine
 10
15.62045454545455
 20
32.24002407812356
 30
0.0
 11
15.62045454545455
 21
34.315024078123564
 31
0.0
  0
LINE
  5
10074
330
1F
100
AcDbEntity
  8
0
100
AcDbLine
 10
15.62045454545455
 20
34.315024078123564
 30
0.0
 11
14.62045454545455
 21
34.315024078123564
 31
0.0
  0
LINE
  5
10075
330
1F
100
AcDbEntity
  8
0
100
AcDbLine
 10
14.62045454545455
 20
34.315024078123564
 30
0.0
 11
14.62045454545455
 21
41.94473580007373
 31
0.0
  0
LINE
  5
10076
330
1F
100
AcDbEntity
  8
0
100
AcDbLine
 10
14.62045454545455
 20
41.94473580007373
 30
0.0
 11
15.62045454545455
 21
41.94473580007373
 31
0.0
  0
LINE
  5
10077
330
1F
100
AcDbEntity
  8
0
100
AcDbLine
 10
15.62045454545455
 20
41.94473580007373
 30
0.0
 11
15.62045454545455
 21
44.01973580007373
 31
0.0
  0
LINE
  5
10078
330
1F
100
AcDbEntity
  8
0
100
AcDbLine
 10
15.62045454545455
 20
44.01973580007373
 30
0.0
 11
14.62045454545455
 21
44.01973580007373
 31
0.0
  0
LINE
  5
10079
330
1F
100
AcDbEntity
  8
0
100
AcDbLine
 10
14.62045454545455
 20
44.01973580007373
 30
0.0
 11
14.62045454545455
 21
46.70765975538846
 31
0.0
  0
LINE
  5
1007A
330
1F
100
AcDbEntity
  8
0
100
AcDbLine
 10
14.62045454545455
 20
46.70765975538846
 30
0.0
 11
10.0
 21
46.70765975538846
 31
0.0
  0
LINE
  5
1007B
330
1F
100
AcDbEntity
  8
0
100
AcDbLine
 10
10.0
 20
46.70765975538846
 30
0.0
 11
10.0
 21
42.99629611902482
 31
0.0
  0
LINE
  5
1007C
330
1F
100
AcDbEntity
  8
0
100
AcDbLine
 10
10.0
 20
42.99629611902482
 30
0.0
 11
12.272727272727275
 21
42.99629611902482
 31
0.0
  0
LINE
  5
1007D
330
1F
100
AcDbEntity
  8
0
100
AcDbLine
 10
12.272727272727275
 20
42.99629611902482
 30
0.0
 11
12.272727272727275
 21
32.06519351405787
 31
0.0
  0
LINE
  5
1007E
330
1F
100
AcDbEntity
  8
0
100
AcDbLine
 10
12.272727272727275
 20
32.06519351405787
 30
0.0
 11
10.0
 21
32.06519351405787
 31
0.0
  0
LINE
  5
1007F
330
1F
100
AcDbEntity
  8
0
100
AcDbLine
 10
12.272727272727275
 20
56.70765975538846
 30
0.0
 11
14.62045454545455
 21
56.70765975538846
 31
0.0
  0
LINE
  5
10080
330
1F
100
AcDbEntity
  8
0
100
AcDbLine
 10
14.62045454545455
 20
56.70765975538846
 30
0.0
 11
14.62045454545455
 21
60.5938539558178
 31
0.0
  0
LINE
  5
10081
330
1F
100
AcDbEntity
  8
0
100
AcDbLine
 10
14.62045454545455
 20
60.5938539558178
 30
0.0
 11
15.62045454545455
 21
60.5938539558178
 31
0.0
  0
LINE
  5
10082
330
1F
100
AcDbEntity
  8
0
100
AcDbLine
 10
15.62045454545455
 20
60.5938539558178
 30
0.0
 11
15.62045454545455
 21
62.6688539558178
 31
0.0
  0
LINE
  5
10083
330
1F
100
AcDbEntity
  8
0
100
AcDbLine
 10
15.62045454545455
 20
62.6688539558178
 30
0.0
 11
14.62045454545455
 21
62.6688539558178
 31
0.0
  0
LINE
  5
10084
330
1F
100
AcDbEntity
  8
0
100
AcDbLine
 10
14.62045454545455
 20
62.6688539558178
 30
0.0
 11
14.62045454545455
 21
70.29856567776797
 31
0.0
  0
LINE
  5
10085
330
1F
100
AcDbEntity
  8
0
100
AcDbLine
 10
14.62045454545455
 20
70.29856567776797
 30
0.0
 11
15.62045454545455
 21
70.29856567776797
 31
0.0
  0
LINE
  5
10086
330
1F
100
AcDbEntity
  8
0
100
AcDbLine
 10
15.62045454545455
 20
70.29856567776797
 30
0.0
 11
15.62045454545455
 21
72.37356567776797
 31
0.0
  0
LINE
  5
10087
330
1F
100
AcDbEntity
  8
0
100
AcDbLine
 10
15.62045454545455
 20
72.37356567776797
 30
0.0
 11
14.62045454545455
 21
72.37356567776797
 31
0.0
  0
LINE
  5
10088
330
1F
100
AcDbEntity
  8
0
100
AcDbLine
 10
14.62045454545455
 20
72.37356567776797
 30
0.0
 11
14.62045454545455
 21
75.0614896330827
 31
0.0
  0
LINE
  5
10089
330
1F
100
AcDbEntity
  8
0
100
AcDbLine
 10
14.62045454545455
 20
75.0614896330827
 30
0.0
 11
10.0
 21
75.0614896330827
 31
0.0
  0
LINE
  5
1008A
330
1F
100
AcDbEntity
  8
0
100
AcDbLine
 10
10.0
 20
75.0614896330827
 30
0.0
 11
10.0
 21
71.35012599671906
 31
0.0
  0
LINE
  5
1008B
330
1F
100
AcDbEntity
  8
0
100
AcDbLine
 10
10.0
 20
71.35012599671906
 30
0.0
 11
12.272727272727275
 21
71.35012599671906
 31
0.0
  0
LINE
  5
1008C
330
1F
100
AcDbEntity
  8
0
100
AcDbLine
 10
12.272727272727275
 20
71.35012599671906
 30
0.0
 11
12.272727272727275
 21
56.70765975538846
 31
0.0
  0
LINE
  5
1008D
330
1F
100
AcDbEntity
  8
0
100
AcDbLine
 10
26.799908371318228
 20
86.06148963308269
 30
0.0
 11
26.799908371318228
 21
85.06148963308269
 31
0.0
  0
LINE
  5
1008E
330
1F
100
AcDbEntity
  8
0
100
AcDbLine
 10
26.799908371318228
 20
85.06148963308269
 30
0.0
 11
29.874908371318227
 21
85.06148963308269
 31
0.0
  0
LINE
  5
1008F
330
1F
100
AcDbEntity
  8
0
100
AcDbLine
 10
29.874908371318227
 20
85.06148963308269
 30
0.0
 11
29.87490837131823
 21
86.06148963308269
 31
0.0
  0
LINE
  5
10090
330
1F
100
AcDbEntity
  8
0
100
AcDbLine
 10
29.87490837131823
 20
86.06148963308269
 30
0.0
 11
48.648279682542366
 21
86.06148963308269
 31
0.0
  0
LINE
  5
10091
330
1F
100
AcDbEntity
  8
0
100
AcDbLine
 10
48.648279682542366
 20
86.06148963308269
 30
0.0
 11
48.648279682542366
 21
85.06148963308269
 31
0.0
  0
LINE
  5
10092
330
1F
100
AcDbEntity
  8
0
100
AcDbLine
 10
48.648279682542366
 20
85.06148963308269
 30
0.0
 11
51.72327968254237
 21
85.06148963308269
 31
0.0
  0
LINE
  5
10093
330
1F
100
AcDbEntity
  8
0
100
AcDbLine
 10
51.72327968254237
 20
85.06148963308269
 30
0.0
 11
51.72327968254237
 21
86.06148963308269
 31
0.0
  0
LINE
  5
10094
330
1F
100
AcDbEntity
  8
0
100
AcDbLine
 10
51.72327968254237
 20
86.06148963308269
 30
0.0
 11
70.16590909090911
 21
86.06148963308269
 31
0.0
  0
LINE
  5
10095
330
1F
100
AcDbEntity
  8
0
100
AcDbLine
 10
70.16590909090911
 20
86.06148963308269
 30
0.0
 11
70.16590909090911
 21
101.31830781490086
 31
0.0
  0
LINE
  5
10096
330
1F
100
AcDbEntity
  8
0
100
AcDbLine
 10
70.16590909090911
 20
101.31830781490086
 30
0.0
 11
10.000000000000007
 21
101.31830781490086
 31
0.0
  0
LINE
  5
10097
330
1F
100
AcDbEntity
  8
0
100
AcDbLine
 10
10.000000000000007
 20
101.31830781490086
 30
0.0
 11
10.0
 21
86.06148963308269
 31
0.0
  0
LINE
  5
10098
330
1F
100
AcDbEntity
  8
0
100
AcDbLine
 10
10.0
 20
86.06148963308269
 30
0.0
 11
26.799908371318228
 21
86.06148963308269
 31
0.0
  0
LINE
  5
10099
330
1F
100
AcDbEntity
  8
0
100
AcDbLine
 10
45.90238439478939
 20
94.75960402992969
 30
0.0
 11
45.90238439478939
 21
96.95733130265697
 31
0.0
  0
LINE
  5
1009A
330
1F
100
AcDbEntity
  8
0
100
AcDbLine
 10
45.90238439478939
 20
96.95733130265697
 30
0.0
 11
50.45454545454547
 21
96.95733130265697
 31
0.0
  0
LINE
  5
1009B
330
1F
100
AcDbEntity
  8
0
100
AcDbLine
 10
50.45454545454547
 20
96.95733130265697
 30
0.0
 11
50.45454545454547
 21
94.75960402992969
 31
0.0
  0
LINE
  5
1009C
330
1F
100
AcDbEntity
  8
0
100
AcDbLine
 10
50.45454545454547
 20
94.75960402992969
 30
0.0
 11
45.90238439478939
 21
94.75960402992969
 31
0.0
  0
LINE
  5
1009D
330
1F
100
AcDbEntity
  8
0
100
AcDbLine
 10
32.26602075842574
 20
88.82518292322202
 30
0.0
 11
32.26602075842574
 21
91.0229101959493
 31
0.0
  0
LINE
  5
1009E
330
1F
100
AcDbEntity
  8
0
100
AcDbLine
 10
32.26602075842574
 20
91.0229101959493
 30
0.0
 11
36.81818181818183
 21
91.0229101959493
 31
0.0
  0
LINE
  5
1009F
330
1F
100
AcDbEntity
  8
0
100
AcDbLine
 10
36.81818181818183
 20
91.0229101959493
 30
0.0
 11
36.81818181818183
 21
88.82518292322202
 31
0.0
  0
LINE
  5
100A0
330
1F
100
AcDbEntity
  8
0
100
AcDbLine
 10
36.81818181818183
 20
88.82518292322202
 30
0.0
 11
32.26602075842574
 21
88.82518292322202
 31
0.0
  0
LINE
  5
100A1
330
1F
100
AcDbEntity
  8
0
100
AcDbLine
 10
18.62965712206211
 20
97.14753572054722
 30
0.0
 11
18.62965712206211
 21
99.3452629932745
 31
0.0
  0
LINE
  5
100A2
330
1F
100
AcDbEntity
  8
0
100
AcDbLine
 10
18.62965712206211
 20
99.3452629932745
 30
0.0
 11
23.181818181818187
 21
99.3452629932745
 31
0.0
  0
LINE
  5
100A3
330
1F
100
AcDbEntity
  8
0
100
AcDbLine
 10
23.181818181818187
 20
99.3452629932745
 30
0.0
 11
23.181818181818187
 21
97.14753572054722
 31
0.0
  0
LINE
  5
100A4
330
1F
100
AcDbEntity
  8
0
100
AcDbLine
 10
23.181818181818187
 20
97.14753572054722
 30
0.0
 11
18.62965712206211
 21
97.14753572054722
 31
0.0
  0
LINE
  5
100A5
330
1F
100
AcDbEntity
  8
0
100
AcDbLine
 10
18.175111667516656
 20
123.94980844781995
 30
0.0
 11
18.175111667516656
 21
127.05662662963813
 31
0.0
  0
LINE
  5
100A6
330
1F
100
AcDbEntity
  8
0
100
AcDbLine
 10
18.175111667516656
 20
127.05662662963813
 30
0.0
 11
23.636363636363644
 21
127.05662662963813
 31
0.0
  0
LINE
  5
100A7
330
1F
100
AcDbEntity
  8
0
100
AcDbLine
 10
23.636363636363644
 20
127.05662662963813
 30
0.0
 11
23.636363636363644
 21
123.94980844781995
 31
0.0
  0
LINE
  5
100A8
330
1F
100
AcDbEntity
  8
0
100
AcDbLine
 10
23.636363636363644
 20
123.94980844781995
 30
0.0
 11
18.175111667516656
 21
123.94980844781995
 31
0.0
  0
LINE
  5
100A9
330
1F
100
AcDbEntity
  8
0
100
AcDbLine
 10
31.81147530388029
 20
115.62745565049474
 30
0.0
 11
31.81147530388029
 21
118.73427383231292
 31
0.0
  0
LINE
  5
100AA
330
1F
100
AcDbEntity
  8
0
100
AcDbLine
 10
31.81147530388029
 20
118.73427383231292
 30
0.0
 11
37.27272727272728
 21
118.73427383231292
 31
0.0
  0
LINE
  5
100AB
330
1F
100
AcDbEntity
  8
0
100
AcDbLine
 10
37.27272727272728
 20
118.73427383231292
 30
0.0
 11
37.27272727272728
 21
115.62745565049474
 31
0.0
  0
LINE
  5
100AC
330
1F
100
AcDbEntity
  8
0
100
AcDbLine
 10
37.27272727272728
 20
115.62745565049474
 30
0.0
 11
31.81147530388029
 21
115.62745565049474
 31
0.0
  0
LINE
  5
100AD
330
1F
100
AcDbEntity
  8
0
100
AcDbLine
 10
45.44783894024393
 20
121.56187675720241
 30
0.0
 11
45.44783894024393
 21
124.6686949390206
 31
0.0
  0
LINE
  5
100AE
330
1F
100
AcDbEntity
  8
0
100
AcDbLine
 10
45.44783894024393
 20
124.6686949390206
 30
0.0
 11
50.90909090909093
 21
124.6686949390206
 31
0.0
  0
LINE
  5
100AF
330
1F
100
AcDbEntity
  8
0
100
AcDbLine
 10
50.90909090909093
 20
124.6686949390206
 30
0.0
 11
50.90909090909093
 21
121.56187675720241
 31
0.0
  0
LINE
  5
100B0
330
1F
100
AcDbEntity
  8
0
100
AcDbLine
 10
50.90909090909092
 20
121.56187675720241
 30
0.0
 11
45.44783894024393
 21
121.56187675720241
 31
0.0
  0
LINE
  5
100B1
330
1F
100
AcDbEntity
  8
0
100
AcDbLine
 10
16.04522704603733
 20
129.57512599671904
 30
0.0
 11
12.97022704603733
 21
129.57512599671904
 31
0.0
  0
LINE
  5
100B2
330
1F
100
AcDbEntity
  8
0
100
AcDbLine
 10
12.97022704603733
 20
129.57512599671904
 30
0.0
 11
12.97022704603733
 21
128.57512599671904
 31
0.0
  0
LINE
  5
100B3
330
1F
100
AcDbEntity
  8
0
100
AcDbLine
 10
12.97022704603733
 20
128.57512599671904
 30
0.0
 11
10.0
 21
128.57512599671904
 31
0.0
  0
LINE
  5
100B4
330
1F
100
AcDbEntity
  8
0
100
AcDbLine
 10
10.0
 20
128.57512599671904
 30
0.0
 11
10.0
 21
112.31830781490086
 31
0.0
  0
LINE
  5
100B5
330
1F
100
AcDbEntity
  8
0
100
AcDbLine
 10
10.0
 20
112.31830781490086
 30
0.0
 11
12.97022704603732
 21
112.31830781490086
 31
0.0
  0
LINE
  5
100B6
330
1F
100
AcDbEntity
  8
0
100
AcDbLine
 10
12.97022704603732
 20
112.31830781490086
 30
0.0
 11
12.970227046037323
 21
111.31830781490086
 31
0.0
  0
LINE
  5
100B7
330
1F
100
AcDbEntity
  8
0
100
AcDbLine
 10
12.970227046037323
 20
111.31830781490086
 30
0.0
 11
16.04522704603733
 21
111.31830781490086
 31
0.0
  0
LINE
  5
100B8
330
1F
100
AcDbEntity
  8
0
100
AcDbLine
 10
16.04522704603733
 20
111.31830781490086
 30
0.0
 11
16.04522704603733
 21
112.31830781490086
 31
0.0
  0
LINE
  5
100B9
330
1F
100
AcDbEntity
  8
0
100
AcDbLine
 10
16.04522704603733
 20
112.31830781490086
 30
0.0
 11
32.52821720043
 21
112.31830781490086
 31
0.0
  0
LINE
  5
100BA
330
1F
100
AcDbEntity
  8
0
100
AcDbLine
 10
32.52821720043
 20
112.31830781490086
 30
0.0
 11
32.52821720043
 21
111.31830781490086
 31
0.0
  0
LINE
  5
100BB
330
1F
100
AcDbEntity
  8
0
100
AcDbLine
 10
32.52821720043
 20
111.31830781490086
 30
0.0
 11
35.603217200429995
 21
111.31830781490086
 31
0.0
  0
LINE
  5
100BC
330
1F
100
AcDbEntity
  8
0
100
AcDbLine
 10
35.603217200429995
 20
111.31830781490086
 30
0.0
 11
35.603217200429995
 21
112.31830781490086
 31
0.0
  0
LINE
  5
100BD
330
1F
100
AcDbEntity
  8
0
100
AcDbLine
 10
35.603217200429995
 20
112.31830781490086
 30
0.0
 11
55.103021764354125
 21
112.31830781490086
 31
0.0
  0
LINE
  5
100BE
330
1F
100
AcDbEntity
  8
0
100
AcDbLine
 10
55.103021764354125
 20
112.31830781490086
 30
0.0
 11
55.103021764354125
 21
111.31830781490086
 31
0.0
  0
LINE
  5
100BF
330
1F
100
AcDbEntity
  8
0
100
AcDbLine
 10
55.103021764354125
 20
111.31830781490086
 30
0.0
 11
58.17802176435413
 21
111.31830781490086
 31
0.0
  0
LINE
  5
100C0
330
1F
100
AcDbEntity
  8
0
100
AcDbLine
 10
58.17802176435413
 20
111.31830781490086
 30
0.0
 11
58.17802176435413
 21
112.31830781490086
 31
0.0
  0
LINE
  5
100C1
330
1F
100
AcDbEntity
  8
0
100
AcDbLine
 10
58.17802176435413
 20
112.31830781490086
 30
0.0
 11
70.1659090909091
 21
112.31830781490086
 31
0.0
  0
LINE
  5
100C2
330
1F
100
AcDbEntity
  8
0
100
AcDbLine
 10
70.1659090909091
 20
112.31830781490086
 30
0.0
 11
70.1659090909091
 21
128.57512599671904
 31
0.0
  0
LINE
  5
100C3
330
1F
100
AcDbEntity
  8
0
100
AcDbLine
 10
70.1659090909091
 20
128.57512599671904
 30
0.0
 11
58.17802176435413
 21
128.57512599671904
 31
0.0
  0
LINE
  5
100C4
330
1F
100
AcDbEntity
  8
0
100
AcDbLine
 10
58.17802176435413
 20
128.57512599671904
 30
0.0
 11
58.17802176435413
 21
129.57512599671904
 31
0.0
  0
LINE
  5
100C5
330
1F
100
AcDbEntity
  8
0
100
AcDbLine
 10
58.17802176435413
 20
129.57512599671904
 30
0.0
 11
55.103021764354125
 21
129.57512599671904
 31
0.0
  0
LINE
  5
100C6
330
1F
100
AcDbEntity
  8
0
100
AcDbLine
 10
55.103021764354125
 20
129.57512599671904
 30
0.0
 11
55.103021764354125
 21
128.57512599671904
 31
0.0
  0
LINE
  5
100C7
330
1F
100
AcDbEntity
  8
0
100
AcDbLine
 10
55.103021764354125
 20
128.57512599671904
 30
0.0
 11
35.603217200429995
 21
128.57512599671904
 31
0.0
  0
LINE
  5
100C8
330
1F
100
AcDbEntity
  8
0
100
AcDbLine
 10
35.603217200429995
 20
128.57512599671904
 30
0.0
 11
35.603217200429995
 21
129.57512599671904
 31
0.0
  0
LINE
  5
100C9
330
1F
100
AcDbEntity
  8
0
100
AcDbLine
 10
35.603217200429995
 20
129.57512599671904
 30
0.0
 11
32.52821720043
 21
129.57512599671904
 31
0.0
  0
LINE
  5
100CA
330
1F
100
AcDbEntity
  8
0
100
AcDbLine
 10
32.52821720043
 20
129.57512599671904
 30
0.0
 11
32.52821720043
 21
128.57512599671904
 31
0.0
  0
LINE
  5
100CB
330
1F
100
AcDbEntity
  8
0
100
AcDbLine
 10
32.52821720043
 20
128.57512599671904
 30
0.0
 11
16.04522704603733
 21
128.57512599671904
 31
0.0
  0
LINE
  5
100CC
330
1F
100
AcDbEntity
  8
0
100
AcDbLine
 10
16.04522704603733
 20
128.57512599671904
 30
0.0
 11
16.04522704603733
 21
129.57512599671904
 31
0.0
  0
LINE
  5
100CD
330
1F
100
AcDbEntity
  8
0
100
AcDbLine
 10
12.347727272727276
 20
139.57512599671904
 30
0.0
 11
12.347727272727276
 21
157.96289299264097
 31
0.0
  0
LINE
  5
100CE
330
1F
100
AcDbEntity
  8
0
100
AcDbLine
 10
12.347727272727276
 20
157.96289299264097
 30
-2.220446049250313e-15
 11
10.0
 21
157.96289299264097
 31
-2.2204460492503127e-15
  0
LINE
  5
100CF
330
1F
100
AcDbEntity
  8
0
100
AcDbLine
 10
10.0
 20
157.96289299264097
 30
0.0
 11
10.0
 21
139.57512599671907
 31
-2.220446049250313e-15
  0
LINE
  5
100D0
330
1F
100
AcDbEntity
  8
0
100
AcDbLine
 10
10.0
 20
139.57512599671907
 30
-2.220446049250313e-15
 11
12.347727272727276
 21
139.57512599671904
 31
-2.2204460492503135e-15
  0
LINE
  5
100D1
330
1F
100
AcDbEntity
  8
0
100
AcDbLine
 10
10.0
 20
186.88919375417169
 30
2.220446049250313e-15
 11
10.0
 21
167.962892992641
 31
1.1102230246251565e-15
  0
LINE
  5
100D2
330
1F
100
AcDbEntity
  8
0
100
AcDbLine
 10
10.0
 20
167.962892992641
 30
0.0
 11
12.347727272727276
 21
167.962892992641
 31
3.0814879110195774e-32
  0
LINE
  5
100D3
330
1F
100
AcDbEntity
  8
0
100
AcDbLine
 10
12.347727272727276
 20
167.962892992641
 30
0.0
 11
12.347727272727276
 21
186.88919375417169
 31
2.220446049250313e-15
  0
LINE
  5
100D4
330
1F
100
AcDbEntity
  8
0
100
AcDbLine
 10
12.347727272727276
 20
186.88919375417169
 30
2.220446049250313e-15
 11
10.0
 21
186.88919375417169
 31
2.220446049250313e-15
  0
LINE
  5
100D5
330
1F
100
AcDbEntity
  8
0
100
AcDbLine
 10
12.347727272727276
 20
196.8891937541717
 30
5.551115123125783e-16
 11
12.347727272727276
 21
215.7731073741848
 31
1.6653345369377348e-15
  0
LINE
  5
100D6
330
1F
100
AcDbEntity
  8
0
100
AcDbLine
 10
12.347727272727276
 20
215.7731073741848
 30
1.1102230246251565e-15
 11
10.0
 21
215.7731073741848
 31
1.1102230246251567e-15
  0
LINE
  5
100D7
330
1F
100
AcDbEntity
  8
0
100
AcDbLine
 10
10.0
 20
215.7731073741848
 30
-1.1102230246251565e-15
 11
10.0
 21
196.88919375417169
 31
-1.1102230246251565e-15
  0
LINE
  5
100D8
330
1F
100
AcDbEntity
  8
0
100
AcDbLine
 10
10.0
 20
196.88919375417169
 30
2.7755575615628914e-16
 11
12.347727272727276
 21
196.88919375417169
 31
2.7755575615628874e-16
  0
LINE
  5
100D9
330
1F
100
AcDbEntity
  8
0
100
AcDbLine
 10
22.181818181818183
 20
249.954925556003
 30
0.0
 11
22.181818181818183
 21
245.48447101054845
 31
0.0
  0
LINE
  5
100DA
330
1F
100
AcDbEntity
  8
0
100
AcDbLine
 10
22.181818181818183
 20
245.48447101054845
 30
0.0
 11
20.056818181818173
 21
245.48447101054845
 31
0.0
  0
LINE
  5
100DB
330
1F
100
AcDbEntity
  8
0
100
AcDbLine
 10
20.056818181818173
 20
245.48447101054845
 30
0.0
 11
20.056818181818173
 21
249.954925556003
 31
0.0
  0
LINE
  5
100DC
330
1F
100
AcDbEntity
  8
0
100
AcDbLine
 10
20.056818181818173
 20
249.954925556003
 30
0.0
 11
22.181818181818183
 21
249.954925556003
 31
0.0
  0
LINE
  5
100DD
330
1F
100
AcDbEntity
  8
0
100
AcDbLine
 10
14.075000000000017
 20
259.1208346469121
 30
0.0
 11
14.075000000000017
 21
263.5912891923666
 31
0.0
  0
LINE
  5
100DE
330
1F
100
AcDbEntity
  8
0
100
AcDbLine
 10
14.075000000000017
 20
263.5912891923666
 30
0.0
 11
16.200000000000017
 21
263.5912891923666
 31
0.0
  0
LINE
  5
100DF
330
1F
100
AcDbEntity
  8
0
100
AcDbLine
 10
16.200000000000017
 20
263.5912891923666
 30
0.0
 11
16.200000000000017
 21
259.1208346469121
 31
0.0
  0
LINE
  5
100E0
330
1F
100
AcDbEntity
  8
0
100
AcDbLine
 10
16.200000000000017
 20
259.1208346469121
 30
0.0
 11
14.075000000000017
 21
259.1208346469121
 31
0.0
  0
LINE
  5
100E1
330
1F
100
AcDbEntity
  8
0
100
AcDbLine
 10
19.086842730407596
 20
286.4390164650939
 30
0.0
 11
18.665909090909096
 21
286.4390164650939
 31
0.0
  0
ARC
  5
100E2
330
1F
100
AcDbEntity
  8
0
100
AcDbCircle
 10
18.128409090909102
 20
285.9015164650939
 30
0.0
 40
1.0988636363636402
100
AcDbArc
 50
29.284181982705846
 51
60.71581801729396
  0
LINE
  5
100E3
330
1F
100
AcDbEntity
  8
0
100
AcDbLine
 10
18.665909090909096
 20
286.4390164650939
 30
0.0
 11
18.665909090909103
 21
286.85995010459243
 31
0.0
  0
LINE
  5
100E4
330
1F
100
AcDbEntity
  8
0
100
AcDbLine
 10
18.981818181818166
 20
249.954925556003
 30
0.0
 11
18.981818181818166
 21
245.48447101054845
 31
0.0
  0
LINE
  5
100E5
330
1F
100
AcDbEntity
  8
0
100
AcDbLine
 10
18.981818181818166
 20
245.48447101054845
 30
0.0
 11
17.27500000000002
 21
245.48447101054845
 31
0.0
  0
LINE
  5
100E6
330
1F
100
AcDbEntity
  8
0
100
AcDbLine
 10
17.27500000000002
 20
245.48447101054845
 30
0.0
 11
17.27500000000002
 21
249.954925556003
 31
0.0
  0
LINE
  5
100E7
330
1F
100
AcDbEntity
  8
0
100
AcDbLine
 10
17.27500000000002
 20
249.954925556003
 30
0.0
 11
18.981818181818166
 21
249.954925556003
 31
0.0
  0
ARC
  5
100E8
330
1F
100
AcDbEntity
  8
0
100
AcDbCircle
 10
18.128409090909102
 20
285.9015164650939
 30
0.0
 40
1.098863636363638
100
AcDbArc
 50
119.28418198270623
 51
150.71581801729374
  0
LINE
  5
100E9
330
1F
100
AcDbEntity
  8
0
100
AcDbLine
 10
17.5909090909091
 20
286.8599501045924
 30
0.0
 11
17.5909090909091
 21
286.4390164650939
 31
0.0
  0
LINE
  5
100EA
330
1F
100
AcDbEntity
  8
0
100
AcDbLine
 10
17.5909090909091
 20
286.4390164650939
 30
0.0
 11
17.169975451410615
 21
286.4390164650939
 31
0.0
  0
LINE
  5
100EB
330
1F
100
AcDbEntity
  8
0
100
AcDbLine
 10
18.981818181818166
 20
263.5912891923666
 30
0.0
 11
18.981818181818166
 21
259.1208346469121
 31
0.0
  0
LINE
  5
100EC
330
1F
100
AcDbEntity
  8
0
100
AcDbLine
 10
18.981818181818166
 20
259.1208346469121
 30
0.0
 11
17.27500000000002
 21
259.1208346469121
 31
0.0
  0
LINE
  5
100ED
330
1F
100
AcDbEntity
  8
0
100
AcDbLine
 10
17.27500000000002
 20
259.1208346469121
 30
0.0
 11
17.27500000000002
 21
263.5912891923666
 31
0.0
  0
LINE
  5
100EE
330
1F
100
AcDbEntity
  8
0
100
AcDbLine
 10
17.27500000000002
 20
263.5912891923666
 30
0.0
 11
18.981818181818166
 21
263.5912891923666
 31
0.0
  0
LINE
  5
100EF
330
1F
100
AcDbEntity
  8
0
100
AcDbLine
 10
22.18181818181817
 20
263.5912891923666
 30
0.0
 11
22.18181818181817
 21
259.1208346469121
 31
0.0
  0
LINE
  5
100F0
330
1F
100
AcDbEntity
  8
0
100
AcDbLine
 10
22.18181818181817
 20
259.1208346469121
 30
0.0
 11
20.056818181818173
 21
259.1208346469121
 31
0.0
  0
LINE
  5
100F1
330
1F
100
AcDbEntity
  8
0
100
AcDbLine
 10
20.056818181818173
 20
259.1208346469121
 30
0.0
 11
20.056818181818173
 21
263.5912891923666
 31
0.0
  0
LINE
  5
100F2
330
1F
100
AcDbEntity
  8
0
100
AcDbLine
 10
20.056818181818173
 20
263.5912891923666
 30
0.0
 11
22.18181818181817
 21
263.5912891923666
 31
0.0
  0
LINE
  5
100F3
330
1F
100
AcDbEntity
  8
0
100
AcDbLine
 10
15.732377589535488
 20
272.7571982832757
 30
0.0
 11
12.625559407717308
 21
272.7571982832757
 31
0.0
  0
LINE
  5
100F4
330
1F
100
AcDbEntity
  8
0
100
AcDbLine
 10
12.625559407717308
 20
272.7571982832757
 30
0.0
 11
12.625559407717308
 21
277.22765282873024
 31
0.0
  0
LINE
  5
100F5
330
1F
100
AcDbEntity
  8
0
100
AcDbLine
 10
12.625559407717308
 20
277.22765282873024
 30
0.0
 11
15.732377589535488
 21
277.22765282873024
 31
0.0
  0
LINE
  5
100F6
330
1F
100
AcDbEntity
  8
0
100
AcDbLine
 10
15.732377589535488
 20
277.22765282873024
 30
0.0
 11
15.732377589535488
 21
272.7571982832757
 31
0.0
  0
LINE
  5
100F7
330
1F
100
AcDbEntity
  8
0
100
AcDbLine
 10
20.52444059228271
 20
277.22765282873024
 30
0.0
 11
23.63125877410089
 21
277.22765282873024
 31
0.0
  0
LINE
  5
100F8
330
1F
100
AcDbEntity
  8
0
100
AcDbLine
 10
23.63125877410089
 20
277.22765282873024
 30
0.0
 11
23.63125877410089
 21
272.7571982832757
 31
0.0
  0
LINE
  5
100F9
330
1F
100
AcDbEntity
  8
0
100
AcDbLine
 10
23.63125877410089
 20
272.7571982832757
 30
0.0
 11
20.52444059228271
 21
272.7571982832757
 31
0.0
  0
LINE
  5
100FA
330
1F
100
AcDbEntity
  8
0
100
AcDbLine
 10
20.52444059228271
 20
272.7571982832757
 30
0.0
 11
20.52444059228271
 21
277.22765282873024
 31
0.0
  0
LINE
  5
100FB
330
1F
100
AcDbEntity
  8
0
100
AcDbLine
 10
16.200000000000017
 20
249.954925556003
 30
0.0
 11
16.200000000000017
 21
245.48447101054845
 31
0.0
  0
LINE
  5
100FC
330
1F
100
AcDbEntity
  8
0
100
AcDbLine
 10
16.200000000000017
 20
245.48447101054845
 30
0.0
 11
14.075000000000006
 21
245.48447101054845
 31
0.0
  0
LINE
  5
100FD
330
1F
100
AcDbEntity
  8
0
100
AcDbLine
 10
14.075000000000006
 20
245.48447101054845
 30
0.0
 11
14.075000000000006
 21
249.954925556003
 31
0.0
  0
LINE
  5
100FE
330
1F
100
AcDbEntity
  8
0
100
AcDbLine
 10
14.075000000000006
 20
249.954925556003
 30
0.0
 11
16.200000000000017
 21
249.954925556003
 31
0.0
  0
ARC
  5
100FF
330
1F
100
AcDbEntity
  8
0
100
AcDbCircle
 10
18.128409090909102
 20
285.9015164650939
 30
0.0
 40
1.098863636363638
100
AcDbArc
 50
299.28418198270623
 51
330.7158180172931
  0
LINE
  5
10100
330
1F
100
AcDbEntity
  8
0
100
AcDbLine
 10
18.665909090909103
 20
284.9430828255954
 30
0.0
 11
18.665909090909103
 21
285.3640164650939
 31
0.0
  0
LINE
  5
10101
330
1F
100
AcDbEntity
  8
0
100
AcDbLine
 10
18.665909090909103
 20
285.3640164650939
 30
0.0
 11
19.086842730407586
 21
285.3640164650939
 31
0.0
  0
LINE
  5
10102
330
1F
100
AcDbEntity
  8
0
100
AcDbLine
 10
17.590909090909108
 20
285.3640164650939
 30
0.0
 11
17.590909090909108
 21
284.9430828255954
 31
0.0
  0
LINE
  5
10103
330
1F
100
AcDbEntity
  8
0
100
AcDbLine
 10
17.169975451410615
 20
285.3640164650939
 30
0.0
 11
17.590909090909108
 21
285.3640164650939
 31
0.0
  0
ARC
  5
10104
330
1F
100
AcDbEntity
  8
0
100
AcDbCircle
 10
18.128409090909102
 20
285.9015164650939
 30
0.0
 40
1.0988636363636402
100
AcDbArc
 50
209.2841819827063
 51
240.71581801729403
  0
LINE
  5
10105
330
1F
100
AcDbEntity
  8
0
100
AcDbLine
 10
23.867874276852582
 20
288.46197439381814
 30
0.0
 11
12.388943904965625
 21
288.46197439381814
 31
0.0
  0
LINE
  5
10106
330
1F
100
AcDbEntity
  8
0
100
AcDbLine
 10
12.388943904965625
 20
288.46197439381814
 30
0.0
 11
10.0
 21
286.6702664650939
 31
0.0
  0
LINE
  5
10107
330
1F
100
AcDbEntity
  8
0
100
AcDbLine
 10
10.0
 20
286.6702664650939
 30
0.0
 11
10.000000000000005
 21
269.0641080937757
 31
0.0
  0
LINE
  5
10108
330
1F
100
AcDbEntity
  8
0
100
AcDbLine
 10
10.000000000000005
 20
269.0641080937757
 30
0.0
 11
11.000000000000007
 21
269.0641080937757
 31
0.0
  0
LINE
  5
10109
330
1F
100
AcDbEntity
  8
0
100
AcDbLine
 10
11.000000000000007
 20
269.0641080937757
 30
0.0
 11
11.000000000000007
 21
266.1391080937757
 31
0.0
  0
LINE
  5
1010A
330
1F
100
AcDbEntity
  8
0
100
AcDbLine
 10
11.000000000000007
 20
266.1391080937757
 30
0.0
 11
10.000000000000005
 21
266.1391080937757
 31
0.0
  0
LINE
  5
1010B
330
1F
100
AcDbEntity
  8
0
100
AcDbLine
 10
10.000000000000005
 20
266.1391080937757
 30
0.0
 11
10.000000000000005
 21
247.21573678255155
 31
0.0
  0
LINE
  5
1010C
330
1F
100
AcDbEntity
  8
0
100
AcDbLine
 10
10.000000000000005
 20
247.21573678255155
 30
0.0
 11
11.000000000000007
 21
247.21573678255155
 31
0.0
  0
LINE
  5
1010D
330
1F
100
AcDbEntity
  8
0
100
AcDbLine
 10
11.000000000000007
 20
247.21573678255155
 30
0.0
 11
11.000000000000007
 21
244.29073678255156
 31
0.0
  0
LINE
  5
1010E
330
1F
100
AcDbEntity
  8
0
100
AcDbLine
 10
11.000000000000007
 20
244.29073678255156
 30
0.0
 11
10.000000000000005
 21
244.29073678255156
 31
0.0
  0
LINE
  5
1010F
330
1F
100
AcDbEntity
  8
0
100
AcDbLine
 10
10.000000000000005
 20
244.29073678255156
 30
0.0
 11
10.000000000000005
 21
225.7731073741848
 31
0.0
  0
LINE
  5
10110
330
1F
100
AcDbEntity
  8
0
100
AcDbLine
 10
10.000000000000005
 20
225.7731073741848
 30
0.0
 11
26.256818181818197
 21
225.7731073741848
 31
0.0
  0
LINE
  5
10111
330
1F
100
AcDbEntity
  8
0
100
AcDbLine
 10
26.256818181818197
 20
225.7731073741848
 30
0.0
 11
26.256818181818197
 21
244.29073678255156
 31
0.0
  0
LINE
  5
10112
330
1F
100
AcDbEntity
  8
0
100
AcDbLine
 10
26.256818181818197
 20
244.29073678255156
 30
0.0
 11
25.256818181818197
 21
244.29073678255156
 31
0.0
  0
LINE
  5
10113
330
1F
100
AcDbEntity
  8
0
100
AcDbLine
 10
25.256818181818197
 20
244.29073678255156
 30
0.0
 11
25.256818181818197
 21
247.21573678255155
 31
0.0
  0
LINE
  5
10114
330
1F
100
AcDbEntity
  8
0
100
AcDbLine
 10
25.256818181818197
 20
247.21573678255155
 30
0.0
 11
26.256818181818197
 21
247.21573678255155
 31
0.0
  0
LINE
  5
10115
330
1F
100
AcDbEntity
  8
0
100
AcDbLine
 10
26.256818181818197
 20
247.21573678255155
 30
0.0
 11
26.256818181818197
 21
266.1391080937757
 31
0.0
  0
LINE
  5
10116
330
1F
100
AcDbEntity
  8
0
100
AcDbLine
 10
26.256818181818197
 20
266.1391080937757
 30
0.0
 11
25.256818181818197
 21
266.1391080937757
 31
0.0
  0
LINE
  5
10117
330
1F
100
AcDbEntity
  8
0
100
AcDbLine
 10
25.256818181818197
 20
266.1391080937757
 30
0.0
 11
25.256818181818197
 21
269.0641080937757
 31
0.0
  0
LINE
  5
10118
330
1F
100
AcDbEntity
  8
0
100
AcDbLine
 10
25.256818181818197
 20
269.0641080937757
 30
0.0
 11
26.256818181818197
 21
269.0641080937757
 31
0.0
  0
LINE
  5
10119
330
1F
100
AcDbEntity
  8
0
100
AcDbLine
 10
26.256818181818197
 20
269.0641080937757
 30
0.0
 11
26.256818181818197
 21
286.6702664650939
 31
0.0
  0
LINE
  5
1011A
330
1F
100
AcDbEntity
  8
0
100
AcDbLine
 10
26.256818181818197
 20
286.6702664650939
 30
0.0
 11
23.867874276852582
 21
288.46197439381814
 31
0.0
  0
CIRCLE
  5
1011B
330
1F
100
AcDbEntity
  8
0
100
AcDbCircle
 10
19.1284090909091
 20
358.5903834847272
 30
0.0
 40
1.0988636363636375
  0
ARC
  5
1011C
330
1F
100
AcDbEntity
  8
0
100
AcDbCircle
 10
22.322856854597347
 20
303.2852181783412
 30
0.0
 40
6.285998013864411
100
AcDbArc
 50
44.180962258753084
 51
135.819037741247
  0
LINE
  5
1011D
330
1F
100
AcDbEntity
  8
0
100
AcDbLine
 10
26.83081140005189
 20
307.666099008314
 30
0.0
 11
26.83081140005189
 21
299.5369743938181
 31
0.0
  0
LINE
  5
1011E
330
1F
100
AcDbEntity
  8
0
100
AcDbLine
 10
26.83081140005189
 20
299.5369743938181
 30
0.0
 11
17.814902309142806
 21
299.5369743938181
 31
0.0
  0
LINE
  5
1011F
330
1F
100
AcDbEntity
  8
0
100
AcDbLine
 10
17.814902309142806
 20
299.5369743938181
 30
0.0
 11
17.814902309142806
 21
307.66609900831395
 31
0.0
  0
LINE
  5
10120
330
1F
100
AcDbEntity
  8
0
100
AcDbLine
 10
14.620454545454546
 20
317.7187925756363
 30
0.0
 11
14.620454545454553
 21
323.112217199788
 31
0.0
  0
ARC
  5
10121
330
1F
100
AcDbEntity
  8
0
100
AcDbCircle
 10
19.128409090909088
 20
313.67069973350556
 30
0.0
 40
10.462499999999986
100
AcDbArc
 50
64.47735333777207
 51
115.5226466622279
  0
LINE
  5
10122
330
1F
100
AcDbEntity
  8
0
100
AcDbLine
 10
23.636363636363633
 20
323.112217199788
 30
0.0
 11
23.63636363636363
 21
317.7187925756363
 31
0.0
  0
LINE
  5
10123
330
1F
100
AcDbEntity
  8
0
100
AcDbLine
 10
23.63636363636363
 20
317.7187925756363
 30
0.0
 11
14.620454545454546
 21
317.7187925756363
 31
0.0
  0
LINE
  5
10124
330
1F
100
AcDbEntity
  8
0
100
AcDbLine
 10
17.186923044080938
 20
344.9915198483636
 30
0.0
 11
13.17101395317185
 21
344.9915198483636
 31
0.0
  0
LINE
  5
10125
330
1F
100
AcDbEntity
  8
0
100
AcDbLine
 10
13.17101395317185
 20
344.9915198483636
 30
0.0
 11
13.17101395317185
 21
350.3710653029091
 31
0.0
  0
LINE
  5
10126
330
1F
100
AcDbEntity
  8
0
100
AcDbLine
 10
13.17101395317185
 20
350.3710653029091
 30
0.0
 11
17.186923044080938
 21
350.3710653029091
 31
0.0
  0
LINE
  5
10127
330
1F
100
AcDbEntity
  8
0
100
AcDbLine
 10
17.186923044080938
 20
350.3710653029091
 30
0.0
 11
17.186923044080938
 21
344.9915198483636
 31
0.0
  0
LINE
  5
10128
330
1F
100
AcDbEntity
  8
0
100
AcDbLine
 10
21.069895137737248
 20
350.3710653029091
 30
0.0
 11
25.08580422864634
 21
350.3710653029091
 31
0.0
  0
LINE
  5
10129
330
1F
100
AcDbEntity
  8
0
100
AcDbLine
 10
25.08580422864634
 20
350.3710653029091
 30
0.0
 11
25.08580422864634
 21
344.9915198483636
 31
0.0
  0
LINE
  5
1012A
330
1F
100
AcDbEntity
  8
0
100
AcDbLine
 10
25.08580422864634
 20
344.9915198483636
 30
0.0
 11
21.069895137737248
 21
344.9915198483636
 31
0.0
  0
LINE
  5
1012B
330
1F
100
AcDbEntity
  8
0
100
AcDbLine
 10
21.069895137737248
 20
344.9915198483636
 30
0.0
 11
21.069895137737248
 21
350.3710653029091
 31
0.0
  0
LINE
  5
1012C
330
1F
100
AcDbEntity
  8
0
100
AcDbLine
 10
23.63636363636363
 20
331.35515621199994
 30
0.0
 11
14.620454545454553
 21
331.35515621199994
 31
0.0
  0
LINE
  5
1012D
330
1F
100
AcDbEntity
  8
0
100
AcDbLine
 10
23.636363636363626
 20
336.74858083615163
 30
0.0
 11
23.63636363636363
 21
331.35515621199994
 31
0.0
  0
ARC
  5
1012E
330
1F
100
AcDbEntity
  8
0
100
AcDbCircle
 10
19.128409090909095
 20
327.3070633698692
 30
0.0
 40
10.462499999999999
100
AcDbArc
 50
64.47735333777217
 51
115.52264666222781
  0
LINE
  5
1012F
330
1F
100
AcDbEntity
  8
0
100
AcDbLine
 10
14.620454545454553
 20
331.35515621199994
 30
0.0
 11
14.620454545454567
 21
336.74858083615163
 31
0.0
  0
LINE
  5
10130
330
1F
100
AcDbEntity
  8
0
100
AcDbLine
 10
12.244503911537242
 20
308.5528834847272
 30
0.0
 11
15.805867547900878
 21
308.5528834847272
 31
0.0
  0
LINE
  5
10131
330
1F
100
AcDbEntity
  8
0
100
AcDbLine
 10
15.805867547900878
 20
308.5528834847272
 30
0.0
 11
15.805867547900878
 21
299.5369743938181
 31
0.0
  0
LINE
  5
10132
330
1F
100
AcDbEntity
  8
0
100
AcDbLine
 10
15.805867547900878
 20
299.5369743938181
 30
0.0
 11
12.244503911537242
 21
299.5369743938181
 31
0.0
  0
LINE
  5
10133
330
1F
100
AcDbEntity
  8
0
100
AcDbLine
 10
12.244503911537242
 20
299.5369743938181
 30
0.0
 11
12.244503911537242
 21
308.5528834847272
 31
0.0
  0
LINE
  5
10134
330
1F
100
AcDbEntity
  8
0
100
AcDbLine
 10
24.873642250882163
 20
362.3965154329293
 30
0.0
 11
22.413642250882166
 21
364.24151543292925
 31
0.0
  0
LINE
  5
10135
330
1F
100
AcDbEntity
  8
0
100
AcDbLine
 10
22.413642250882166
 20
364.24151543292925
 30
0.0
 11
21.813642250882165
 21
363.44151543292924
 31
0.0
  0
LINE
  5
10136
330
1F
100
AcDbEntity
  8
0
100
AcDbLine
 10
21.813642250882165
 20
363.44151543292924
 30
0.0
 11
19.1284090909091
 21
365.45544030290904
 31
0.0
  0
LINE
  5
10137
330
1F
100
AcDbEntity
  8
0
100
AcDbLine
 10
19.1284090909091
 20
365.45544030290904
 30
0.0
 11
16.576509264269365
 21
363.54151543292926
 31
0.0
  0
LINE
  5
10138
330
1F
100
AcDbEntity
  8
0
100
AcDbLine
 10
16.576509264269365
 20
363.54151543292926
 30
0.0
 11
15.976509264269367
 21
364.34151543292927
 31
0.0
  0
LINE
  5
10139
330
1F
100
AcDbEntity
  8
0
100
AcDbLine
 10
15.976509264269367
 20
364.34151543292927
 30
0.0
 11
13.51650926426936
 21
362.4965154329293
 31
0.0
  0
LINE
  5
1013A
330
1F
100
AcDbEntity
  8
0
100
AcDbLine
 10
13.51650926426936
 20
362.4965154329293
 30
0.0
 11
14.116509264269364
 21
361.6965154329293
 31
0.0
  0
LINE
  5
1013B
330
1F
100
AcDbEntity
  8
0
100
AcDbLine
 10
14.116509264269364
 20
361.6965154329293
 30
0.0
 11
10.0
 21
358.60913348472724
 31
0.0
  0
LINE
  5
1013C
330
1F
100
AcDbEntity
  8
0
100
AcDbLine
 10
10.0
 20
358.60913348472724
 30
0.0
 11
10.0
 21
355.5826564386899
 31
0.0
  0
LINE
  5
1013D
330
1F
100
AcDbEntity
  8
0
100
AcDbLine
 10
10.0
 20
355.5826564386899
 30
0.0
 11
11.000000000000002
 21
355.5826564386899
 31
0.0
  0
LINE
  5
1013E
330
1F
100
AcDbEntity
  8
0
100
AcDbLine
 10
11.000000000000002
 20
355.5826564386899
 30
0.0
 11
11.000000000000002
 21
352.6576564386899
 31
0.0
  0
LINE
  5
1013F
330
1F
100
AcDbEntity
  8
0
100
AcDbLine
 10
11.000000000000002
 20
352.6576564386899
 30
0.0
 11
10.0
 21
352.6576564386899
 31
0.0
  0
LINE
  5
10140
330
1F
100
AcDbEntity
  8
0
100
AcDbLine
 10
10.0
 20
352.6576564386899
 30
0.0
 11
10.0
 21
336.02466628429727
 31
0.0
  0
LINE
  5
10141
330
1F
100
AcDbEntity
  8
0
100
AcDbLine
 10
10.0
 20
336.02466628429727
 30
0.0
 11
11.000000000000002
 21
336.02466628429727
 31
0.0
  0
LINE
  5
10142
330
1F
100
AcDbEntity
  8
0
100
AcDbLine
 10
11.000000000000002
 20
336.02466628429727
 30
0.0
 11
11.000000000000002
 21
333.09966628429726
 31
0.0
  0
LINE
  5
10143
330
1F
100
AcDbEntity
  8
0
100
AcDbLine
 10
11.000000000000002
 20
333.09966628429726
 30
0.0
 11
10.0
 21
333.09966628429726
 31
0.0
  0
LINE
  5
10144
330
1F
100
AcDbEntity
  8
0
100
AcDbLine
 10
10.0
 20
333.09966628429726
 30
0.0
 11
10.0
 21
313.4498617203731
 31
0.0
  0
LINE
  5
10145
330
1F
100
AcDbEntity
  8
0
100
AcDbLine
 10
10.0
 20
313.4498617203731
 30
0.0
 11
11.000000000000002
 21
313.4498617203731
 31
0.0
  0
LINE
  5
10146
330
1F
100
AcDbEntity
  8
0
100
AcDbLine
 10
11.000000000000002
 20
313.4498617203731
 30
0.0
 11
11.000000000000002
 21
310.5248617203731
 31
0.0
  0
LINE
  5
10147
330
1F
100
AcDbEntity
  8
0
100
AcDbLine
 10
11.000000000000002
 20
310.5248617203731
 30
0.0
 11
10.0
 21
310.5248617203731
 31
0.0
  0
LINE
  5
10148
330
1F
100
AcDbEntity
  8
0
100
AcDbLine
 10
10.0
 20
310.5248617203731
 30
0.0
 11
10.0
 21
298.46197439381814
 31
0.0
  0
LINE
  5
10149
330
1F
100
AcDbEntity
  8
0
100
AcDbLine
 10
10.0
 20
298.46197439381814
 30
0.0
 11
28.25681818181819
 21
298.46197439381814
 31
0.0
  0
LINE
  5
1014A
330
1F
100
AcDbEntity
  8
0
100
AcDbLine
 10
28.25681818181819
 20
298.46197439381814
 30
0.0
 11
28.25681818181819
 21
310.5248617203731
 31
0.0
  0
LINE
  5
1014B
330
1F
100
AcDbEntity
  8
0
100
AcDbLine
 10
28.25681818181819
 20
310.5248617203731
 30
0.0
 11
27.256818181818197
 21
310.5248617203731
 31
0.0
  0
LINE
  5
1014C
330
1F
100
AcDbEntity
  8
0
100
AcDbLine
 10
27.256818181818197
 20
310.5248617203731
 30
0.0
 11
27.256818181818197
 21
313.4498617203731
 31
0.0
  0
LINE
  5
1014D
330
1F
100
AcDbEntity
  8
0
100
AcDbLine
 10
27.256818181818197
 20
313.4498617203731
 30
0.0
 11
28.25681818181819
 21
313.4498617203731
 31
0.0
  0
LINE
  5
1014E
330
1F
100
AcDbEntity
  8
0
100
AcDbLine
 10
28.25681818181819
 20
313.4498617203731
 30
0.0
 11
28.25681818181819
 21
333.09966628429726
 31
0.0
  0
LINE
  5
1014F
330
1F
100
AcDbEntity
  8
0
100
AcDbLine
 10
28.25681818181819
 20
333.09966628429726
 30
0.0
 11
27.256818181818197
 21
333.09966628429726
 31
0.0
  0
LINE
  5
10150
330
1F
100
AcDbEntity
  8
0
100
AcDbLine
 10
27.256818181818197
 20
333.09966628429726
 30
0.0
 11
27.256818181818197
 21
336.02466628429727
 31
0.0
  0
LINE
  5
10151
330
1F
100
AcDbEntity
  8
0
100
AcDbLine
 10
27.256818181818197
 20
336.02466628429727
 30
0.0
 11
28.25681818181819
 21
336.02466628429727
 31
0.0
  0
LINE
  5
10152
330
1F
100
AcDbEntity
  8
0
100
AcDbLine
 10
28.25681818181819
 20
336.02466628429727
 30
0.0
 11
28.25681818181819
 21
352.6576564386899
 31
0.0
  0
LINE
  5
10153
330
1F
100
AcDbEntity
  8
0
100
AcDbLine
 10
28.25681818181819
 20
352.6576564386899
 30
0.0
 11
27.256818181818197
 21
352.6576564386899
 31
0.0
  0
LINE
  5
10154
330
1F
100
AcDbEntity
  8
0
100
AcDbLine
 10
27.256818181818197
 20
352.6576564386899
 30
0.0
 11
27.256818181818197
 21
355.5826564386899
 31
0.0
  0
LINE
  5
10155
330
1F
100
AcDbEntity
  8
0
100
AcDbLine
 10
27.256818181818197
 20
355.5826564386899
 30
0.0
 11
28.25681818181819
 21
355.5826564386899
 31
0.0
  0
LINE
  5
10156
330
1F
100
AcDbEntity
  8
0
100
AcDbLine
 10
28.25681818181819
 20
355.5826564386899
 30
0.0
 11
28.25681818181819
 21
358.60913348472724
 31
0.0
  0
LINE
  5
10157
330
1F
100
AcDbEntity
  8
0
100
AcDbLine
 10
28.25681818181819
 20
358.60913348472724
 30
0.0
 11
24.27364225088217
 21
361.59651543292927
 31
0.0
  0
LINE
  5
10158
330
1F
100
AcDbEntity
  8
0
100
AcDbLine
 10
24.27364225088217
 20
361.59651543292927
 30
0.0
 11
24.873642250882163
 21
362.3965154329293
 31
0.0
  0
LINE
  5
10159
330
1F
100
AcDbEntity
  8
0
100
AcDbLine
 10
27.256818181818197
 20
407.8112143215209
 30
0.0
 11
28.25681818181819
 21
407.8112143215209
 31
0.0
  0
LINE
  5
1015A
330
1F
100
AcDbEntity
  8
0
100
AcDbLine
 10
28.25681818181819
 20
407.8112143215209
 30
0.0
 11
28.25681818181819
 21
427.461018885445
 31
0.0
  0
LINE
  5
1015B
330
1F
100
AcDbEntity
  8
0
100
AcDbLine
 10
28.25681818181819
 20
427.461018885445
 30
0.0
 11
27.256818181818197
 21
427.461018885445
 31
0.0
  0
LINE
  5
1015C
330
1F
100
AcDbEntity
  8
0
100
AcDbLine
 10
27.256818181818197
 20
427.461018885445
 30
0.0
 11
27.256818181818197
 21
430.386018885445
 31
0.0
  0
LINE
  5
1015D
330
1F
100
AcDbEntity
  8
0
100
AcDbLine
 10
27.256818181818197
 20
430.386018885445
 30
0.0
 11
28.25681818181819
 21
430.386018885445
 31
0.0
  0
LINE
  5
1015E
330
1F
100
AcDbEntity
  8
0
100
AcDbLine
 10
28.25681818181819
 20
430.386018885445
 30
0.0
 11
28.25681818181819
 21
442.448906212
 31
0.0
  0
LINE
  5
1015F
330
1F
100
AcDbEntity
  8
0
100
AcDbLine
 10
28.25681818181819
 20
442.448906212
 30
0.0
 11
10.0
 21
442.448906212
 31
0.0
  0
LINE
  5
10160
330
1F
100
AcDbEntity
  8
0
100
AcDbLine
 10
10.0
 20
442.448906212
 30
0.0
 11
10.0
 21
430.386018885445
 31
0.0
  0
LINE
  5
10161
330
1F
100
AcDbEntity
  8
0
100
AcDbLine
 10
10.0
 20
430.386018885445
 30
0.0
 11
11.000000000000002
 21
430.386018885445
 31
0.0
  0
LINE
  5
10162
330
1F
100
AcDbEntity
  8
0
100
AcDbLine
 10
11.000000000000002
 20
430.386018885445
 30
0.0
 11
11.000000000000002
 21
427.461018885445
 31
0.0
  0
LINE
  5
10163
330
1F
100
AcDbEntity
  8
0
100
AcDbLine
 10
11.000000000000002
 20
427.461018885445
 30
0.0
 11
10.0
 21
427.461018885445
 31
0.0
  0
LINE
  5
10164
330
1F
100
AcDbEntity
  8
0
100
AcDbLine
 10
10.0
 20
427.461018885445
 30
0.0
 11
10.0
 21
407.8112143215209
 31
0.0
  0
LINE
  5
10165
330
1F
100
AcDbEntity
  8
0
100
AcDbLine
 10
10.0
 20
407.8112143215209
 30
0.0
 11
11.000000000000002
 21
407.8112143215209
 31
0.0
  0
LINE
  5
10166
330
1F
100
AcDbEntity
  8
0
100
AcDbLine
 10
11.000000000000002
 20
407.8112143215209
 30
0.0
 11
11.000000000000002
 21
404.88621432152087
 31
0.0
  0
LINE
  5
10167
330
1F
100
AcDbEntity
  8
0
100
AcDbLine
 10
11.000000000000002
 20
404.88621432152087
 30
0.0
 11
10.0
 21
404.88621432152087
 31
0.0
  0
LINE
  5
10168
330
1F
100
AcDbEntity
  8
0
100
AcDbLine
 10
10.0
 20
404.88621432152087
 30
0.0
 11
10.0
 21
388.2532241671282
 31
0.0
  0
LINE
  5
10169
330
1F
100
AcDbEntity
  8
0
100
AcDbLine
 10
10.0
 20
388.2532241671282
 30
0.0
 11
11.000000000000002
 21
388.2532241671282
 31
0.0
  0
LINE
  5
1016A
330
1F
100
AcDbEntity
  8
0
100
AcDbLine
 10
11.000000000000002
 20
388.2532241671282
 30
0.0
 11
11.000000000000002
 21
385.3282241671282
 31
0.0
  0
LINE
  5
1016B
330
1F
100
AcDbEntity
  8
0
100
AcDbLine
 10
11.000000000000002
 20
385.3282241671282
 30
0.0
 11
10.0
 21
385.3282241671282
 31
0.0
  0
LINE
  5
1016C
330
1F
100
AcDbEntity
  8
0
100
AcDbLine
 10
10.0
 20
385.3282241671282
 30
0.0
 11
10.0
 21
382.3017471210909
 31
0.0
  0
LINE
  5
1016D
330
1F
100
AcDbEntity
  8
0
100
AcDbLine
 10
10.0
 20
382.3017471210909
 30
0.0
 11
14.116509264269364
 21
379.21436517288885
 31
0.0
  0
LINE
  5
1016E
330
1F
100
AcDbEntity
  8
0
100
AcDbLine
 10
14.116509264269364
 20
379.21436517288885
 30
0.0
 11
13.51650926426936
 21
378.4143651728889
 31
0.0
  0
LINE
  5
1016F
330
1F
100
AcDbEntity
  8
0
100
AcDbLine
 10
13.51650926426936
 20
378.4143651728889
 30
0.0
 11
15.976509264269367
 21
376.56936517288887
 31
0.0
  0
LINE
  5
10170
330
1F
100
AcDbEntity
  8
0
100
AcDbLine
 10
15.976509264269367
 20
376.56936517288887
 30
0.0
 11
16.576509264269365
 21
377.3693651728889
 31
0.0
  0
LINE
  5
10171
330
1F
100
AcDbEntity
  8
0
100
AcDbLine
 10
16.576509264269365
 20
377.3693651728889
 30
0.0
 11
19.1284090909091
 21
375.4554403029091
 31
0.0
  0
LINE
  5
10172
330
1F
100
AcDbEntity
  8
0
100
AcDbLine
 10
19.1284090909091
 20
375.4554403029091
 30
0.0
 11
21.813642250882165
 21
377.46936517288884
 31
0.0
  0
LINE
  5
10173
330
1F
100
AcDbEntity
  8
0
100
AcDbLine
 10
21.813642250882165
 20
377.46936517288884
 30
0.0
 11
22.413642250882166
 21
376.6693651728889
 31
0.0
  0
LINE
  5
10174
330
1F
100
AcDbEntity
  8
0
100
AcDbLine
 10
22.413642250882166
 20
376.6693651728889
 30
0.0
 11
24.873642250882163
 21
378.51436517288886
 31
0.0
  0
LINE
  5
10175
330
1F
100
AcDbEntity
  8
0
100
AcDbLine
 10
24.873642250882163
 20
378.51436517288886
 30
0.0
 11
24.27364225088217
 21
379.31436517288887
 31
0.0
  0
LINE
  5
10176
330
1F
100
AcDbEntity
  8
0
100
AcDbLine
 10
24.27364225088217
 20
379.31436517288887
 30
0.0
 11
28.25681818181819
 21
382.3017471210909
 31
0.0
  0
LINE
  5
10177
330
1F
100
AcDbEntity
  8
0
100
AcDbLine
 10
28.25681818181819
 20
382.3017471210909
 30
0.0
 11
28.25681818181819
 21
385.3282241671282
 31
0.0
  0
LINE
  5
10178
330
1F
100
AcDbEntity
  8
0
100
AcDbLine
 10
28.25681818181819
 20
385.3282241671282
 30
0.0
 11
27.256818181818197
 21
385.3282241671282
 31
0.0
  0
LINE
  5
10179
330
1F
100
AcDbEntity
  8
0
100
AcDbLine
 10
27.256818181818197
 20
385.3282241671282
 30
0.0
 11
27.256818181818197
 21
388.2532241671282
 31
0.0
  0
LINE
  5
1017A
330
1F
100
AcDbEntity
  8
0
100
AcDbLine
 10
27.256818181818197
 20
388.2532241671282
 30
0.0
 11
28.25681818181819
 21
388.2532241671282
 31
0.0
  0
LINE
  5
1017B
330
1F
100
AcDbEntity
  8
0
100
AcDbLine
 10
28.25681818181819
 20
388.2532241671282
 30
0.0
 11
28.25681818181819
 21
404.88621432152087
 31
0.0
  0
LINE
  5
1017C
330
1F
100
AcDbEntity
  8
0
100
AcDbLine
 10
28.25681818181819
 20
404.88621432152087
 30
0.0
 11
27.256818181818197
 21
404.88621432152087
 31
0.0
  0
LINE
  5
1017D
330
1F
100
AcDbEntity
  8
0
100
AcDbLine
 10
27.256818181818197
 20
404.88621432152087
 30
0.0
 11
27.256818181818197
 21
407.8112143215209
 31
0.0
  0
LINE
  5
1017E
330
1F
100
AcDbEntity
  8
0
100
AcDbLine
 10
47.13173939239945
 20
468.7057243938182
 30
0.0
 11
44.05673939239945
 21
468.7057243938182
 31
0.0
  0
LINE
  5
1017F
330
1F
100
AcDbEntity
  8
0
100
AcDbLine
 10
44.05673939239945
 20
468.7057243938182
 30
0.0
 11
44.05673939239946
 21
467.7057243938182
 31
0.0
  0
LINE
  5
10180
330
1F
100
AcDbEntity
  8
0
100
AcDbLine
 10
44.05673939239946
 20
467.7057243938182
 30
0.0
 11
25.28336808117532
 21
467.7057243938182
 31
0.0
  0
LINE
  5
10181
330
1F
100
AcDbEntity
  8
0
100
AcDbLine
 10
25.28336808117532
 20
467.7057243938182
 30
0.0
 11
25.28336808117532
 21
468.7057243938182
 31
0.0
  0
LINE
  5
10182
330
1F
100
AcDbEntity
  8
0
100
AcDbLine
 10
25.28336808117532
 20
468.7057243938182
 30
0.0
 11
22.208368081175315
 21
468.7057243938182
 31
0.0
  0
LINE
  5
10183
330
1F
100
AcDbEntity
  8
0
100
AcDbLine
 10
22.208368081175315
 20
468.7057243938182
 30
0.0
 11
22.208368081175315
 21
467.7057243938182
 31
0.0
  0
LINE
  5
10184
330
1F
100
AcDbEntity
  8
0
100
AcDbLine
 10
22.208368081175315
 20
467.7057243938182
 30
0.0
 11
10.0
 21
467.7057243938182
 31
0.0
  0
LINE
  5
10185
330
1F
100
AcDbEntity
  8
0
100
AcDbLine
 10
10.0
 20
467.7057243938182
 30
0.0
 11
10.0
 21
452.448906212
 31
0.0
  0
LINE
  5
10186
330
1F
100
AcDbEntity
  8
0
100
AcDbLine
 10
10.0
 20
452.448906212
 30
0.0
 11
65.5743688007662
 21
452.448906212
 31
0.0
  0
LINE
  5
10187
330
1F
100
AcDbEntity
  8
0
100
AcDbLine
 10
65.5743688007662
 20
452.448906212
 30
0.0
 11
65.5743688007662
 21
467.7057243938182
 31
0.0
  0
LINE
  5
10188
330
1F
100
AcDbEntity
  8
0
100
AcDbLine
 10
65.5743688007662
 20
467.7057243938182
 30
0.0
 11
47.13173939239945
 21
467.7057243938182
 31
0.0
  0
LINE
  5
10189
330
1F
100
AcDbEntity
  8
0
100
AcDbLine
 10
47.13173939239945
 20
467.7057243938182
 30
0.0
 11
47.13173939239945
 21
468.7057243938182
 31
0.0
  0
LINE
  5
1018A
330
1F
100
AcDbEntity
  8
0
100
AcDbLine
 10
56.45454545454547
 20
483.3936483491329
 30
0.0
 11
56.45454545454547
 21
481.4686483491329
 31
0.0
  0
LINE
  5
1018B
330
1F
100
AcDbEntity
  8
0
100
AcDbLine
 10
56.45454545454547
 20
481.4686483491329
 30
0.0
 11
55.52954545454547
 21
481.4686483491329
 31
0.0
  0
LINE
  5
1018C
330
1F
100
AcDbEntity
  8
0
100
AcDbLine
 10
55.52954545454547
 20
481.4686483491329
 30
0.0
 11
55.52954545454547
 21
483.3936483491329
 31
0.0
  0
LINE
  5
1018D
330
1F
100
AcDbEntity
  8
0
100
AcDbLine
 10
55.52954545454547
 20
483.3936483491329
 30
0.0
 11
56.45454545454547
 21
483.3936483491329
 31
0.0
  0
LINE
  5
1018E
330
1F
100
AcDbEntity
  8
0
100
AcDbLine
 10
46.43863636363638
 20
489.96120251161614
 30
0.0
 11
55.45454545454547
 21
489.96120251161614
 31
0.0
  0
LINE
  5
1018F
330
1F
100
AcDbEntity
  8
0
100
AcDbLine
 10
55.45454545454547
 20
489.96120251161614
 30
0.0
 11
55.45454545454547
 21
486.85438432979794
 31
0.0
  0
LINE
  5
10190
330
1F
100
AcDbEntity
  8
0
100
AcDbLine
 10
55.45454545454547
 20
486.85438432979794
 30
0.0
 11
46.43863636363638
 21
486.85438432979794
 31
0.0
  0
LINE
  5
10191
330
1F
100
AcDbEntity
  8
0
100
AcDbLine
 10
46.43863636363638
 20
486.85438432979794
 30
0.0
 11
46.43863636363638
 21
489.96120251161614
 31
0.0
  0
LINE
  5
10192
330
1F
100
AcDbEntity
  8
0
100
AcDbLine
 10
58.17802176435413
 20
496.96254257563635
 30
0.0
 11
55.103021764354125
 21
496.96254257563635
 31
0.0
  0
LINE
  5
10193
330
1F
100
AcDbEntity
  8
0
100
AcDbLine
 10
55.103021764354125
 20
496.96254257563635
 30
0.0
 11
55.103021764354125
 21
495.96254257563635
 31
0.0
  0
LINE
  5
10194
330
1F
100
AcDbEntity
  8
0
100
AcDbLine
 10
55.103021764354125
 20
495.96254257563635
 30
0.0
 11
35.603217200429995
 21
495.96254257563635
 31
0.0
  0
LINE
  5
10195
330
1F
100
AcDbEntity
  8
0
100
AcDbLine
 10
35.603217200429995
 20
495.96254257563635
 30
0.0
 11
35.603217200429995
 21
496.96254257563635
 31
0.0
  0
LINE
  5
10196
330
1F
100
AcDbEntity
  8
0
100
AcDbLine
 10
35.603217200429995
 20
496.96254257563635
 30
0.0
 11
32.52821720043
 21
496.96254257563635
 31
0.0
  0
LINE
  5
10197
330
1F
100
AcDbEntity
  8
0
100
AcDbLine
 10
32.52821720043
 20
496.96254257563635
 30
0.0
 11
32.52821720043
 21
495.96254257563635
 31
0.0
  0
LINE
  5
10198
330
1F
100
AcDbEntity
  8
0
100
AcDbLine
 10
32.52821720043
 20
495.96254257563635
 30
0.0
 11
16.04522704603733
 21
495.96254257563635
 31
0.0
  0
LINE
  5
10199
330
1F
100
AcDbEntity
  8
0
100
AcDbLine
 10
16.04522704603733
 20
495.96254257563635
 30
0.0
 11
16.04522704603733
 21
496.96254257563635
 31
0.0
  0
LINE
  5
1019A
330
1F
100
AcDbEntity
  8
0
100
AcDbLine
 10
16.04522704603733
 20
496.96254257563635
 30
0.0
 11
12.97022704603733
 21
496.96254257563635
 31
0.0
  0
LINE
  5
1019B
330
1F
100
AcDbEntity
  8
0
100
AcDbLine
 10
12.97022704603733
 20
496.96254257563635
 30
0.0
 11
12.970227046037323
 21
495.96254257563635
 31
0.0
  0
LINE
  5
1019C
330
1F
100
AcDbEntity
  8
0
100
AcDbLine
 10
12.970227046037323
 20
495.96254257563635
 30
0.0
 11
10.0
 21
495.96254257563635
 31
0.0
  0
LINE
  5
1019D
330
1F
100
AcDbEntity
  8
0
100
AcDbLine
 10
10.0
 20
495.96254257563635
 30
0.0
 11
10.0
 21
479.7057243938182
 31
0.0
  0
LINE
  5
1019E
330
1F
100
AcDbEntity
  8
0
100
AcDbLine
 10
10.0
 20
479.7057243938182
 30
0.0
 11
12.97022704603732
 21
479.7057243938182
 31
0.0
  0
LINE
  5
1019F
330
1F
100
AcDbEntity
  8
0
100
AcDbLine
 10
12.97022704603732
 20
479.7057243938182
 30
0.0
 11
12.97022704603732
 21
478.7057243938182
 31
0.0
  0
LINE
  5
101A0
330
1F
100
AcDbEntity
  8
0
100
AcDbLine
 10
12.97022704603732
 20
478.7057243938182
 30
0.0
 11
16.04522704603733
 21
478.7057243938182
 31
0.0
  0
LINE
  5
101A1
330
1F
100
AcDbEntity
  8
0
100
AcDbLine
 10
16.04522704603733
 20
478.7057243938182
 30
0.0
 11
16.04522704603733
 21
479.7057243938182
 31
0.0
  0
LINE
  5
101A2
330
1F
100
AcDbEntity
  8
0
100
AcDbLine
 10
16.04522704603733
 20
479.7057243938182
 30
0.0
 11
32.52821720043
 21
479.7057243938182
 31
0.0
  0
LINE
  5
101A3
330
1F
100
AcDbEntity
  8
0
100
AcDbLine
 10
32.52821720043
 20
479.7057243938182
 30
0.0
 11
32.52821720043
 21
478.7057243938182
 31
0.0
  0
LINE
  5
101A4
330
1F
100
AcDbEntity
  8
0
100
AcDbLine
 10
32.52821720043
 20
478.7057243938182
 30
0.0
 11
35.603217200429995
 21
478.7057243938182
 31
0.0
  0
LINE
  5
101A5
330
1F
100
AcDbEntity
  8
0
100
AcDbLine
 10
35.603217200429995
 20
478.7057243938182
 30
0.0
 11
35.603217200429995
 21
479.7057243938182
 31
0.0
  0
LINE
  5
101A6
330
1F
100
AcDbEntity
  8
0
100
AcDbLine
 10
35.603217200429995
 20
479.7057243938182
 30
0.0
 11
55.103021764354125
 21
479.7057243938182
 31
0.0
  0
LINE
  5
101A7
330
1F
100
AcDbEntity
  8
0
100
AcDbLine
 10
55.103021764354125
 20
479.7057243938182
 30
0.0
 11
55.103021764354125
 21
478.7057243938182
 31
0.0
  0
LINE
  5
101A8
330
1F
100
AcDbEntity
  8
0
100
AcDbLine
 10
55.103021764354125
 20
478.7057243938182
 30
0.0
 11
58.17802176435413
 21
478.7057243938182
 31
0.0
  0
LINE
  5
101A9
330
1F
100
AcDbEntity
  8
0
100
AcDbLine
 10
58.17802176435413
 20
478.7057243938182
 30
0.0
 11
58.17802176435413
 21
479.7057243938182
 31
0.0
  0
LINE
  5
101AA
330
1F
100
AcDbEntity
  8
0
100
AcDbLine
 10
58.17802176435413
 20
479.7057243938182
 30
0.0
 11
70.1659090909091
 21
479.7057243938182
 31
0.0
  0
LINE
  5
101AB
330
1F
100
AcDbEntity
  8
0
100
AcDbLine
 10
70.1659090909091
 20
479.7057243938182
 30
0.0
 11
70.16590909090911
 21
495.96254257563635
 31
0.0
  0
LINE
  5
101AC
330
1F
100
AcDbEntity
  8
0
100
AcDbLine
 10
70.16590909090911
 20
495.96254257563635
 30
0.0
 11
58.17802176435413
 21
495.96254257563635
 31
0.0
  0
LINE
  5
101AD
330
1F
100
AcDbEntity
  8
0
100
AcDbLine
 10
58.17802176435413
 20
495.96254257563635
 30
0.0
 11
58.17802176435413
 21
496.96254257563635
 31
0.0
  0
LINE
  5
101AE
330
1F
100
AcDbEntity
  8
0
100
AcDbLine
 10
55.52954545454547
 20
493.09836007108305
 30
0.0
 11
56.45454545454547
 21
493.09836007108305
 31
0.0
  0
LINE
  5
101AF
330
1F
100
AcDbEntity
  8
0
100
AcDbLine
 10
56.45454545454547
 20
493.09836007108305
 30
0.0
 11
56.45454545454547
 21
491.17336007108304
 31
0.0
  0
LINE
  5
101B0
330
1F
100
AcDbEntity
  8
0
100
AcDbLine
 10
56.45454545454547
 20
491.17336007108304
 30
0.0
 11
55.52954545454547
 21
491.17336007108304
 31
0.0
  0
LINE
  5
101B1
330
1F
100
AcDbEntity
  8
0
100
AcDbLine
 10
55.52954545454547
 20
491.17336007108304
 30
0.0
 11
55.52954545454547
 21
493.09836007108305
 31
0.0
  0
LINE
  5
101B2
330
1F
100
AcDbEntity
  8
0
100
AcDbLine
 10
42.81818181818183
 20
491.1105907440493
 30
0.0
 11
41.89318181818183
 21
491.1105907440493
 31
0.0
  0
LINE
  5
101B3
330
1F
100
AcDbEntity
  8
0
100
AcDbLine
 10
41.89318181818183
 20
491.1105907440493
 30
0.0
 11
41.89318181818183
 21
493.0355907440493
 31
0.0
  0
LINE
  5
101B4
330
1F
100
AcDbEntity
  8
0
100
AcDbLine
 10
41.89318181818183
 20
493.0355907440493
 30
0.0
 11
42.81818181818183
 21
493.0355907440493
 31
0.0
  0
LINE
  5
101B5
330
1F
100
AcDbEntity
  8
0
100
AcDbLine
 10
42.81818181818183
 20
493.0355907440493
 30
0.0
 11
42.81818181818183
 21
491.1105907440493
 31
0.0
  0
LINE
  5
101B6
330
1F
100
AcDbEntity
  8
0
100
AcDbLine
 10
32.80227272727274
 20
484.78072439381816
 30
0.0
 11
32.80227272727274
 21
487.88754257563636
 31
0.0
  0
LINE
  5
101B7
330
1F
100
AcDbEntity
  8
0
100
AcDbLine
 10
32.80227272727274
 20
487.88754257563636
 30
0.0
 11
41.81818181818183
 21
487.88754257563636
 31
0.0
  0
LINE
  5
101B8
330
1F
100
AcDbEntity
  8
0
100
AcDbLine
 10
41.81818181818183
 20
487.88754257563636
 30
0.0
 11
41.81818181818183
 21
484.78072439381816
 31
0.0
  0
LINE
  5
101B9
330
1F
100
AcDbEntity
  8
0
100
AcDbLine
 10
41.81818181818183
 20
484.78072439381816
 30
0.0
 11
32.80227272727274
 21
484.78072439381816
 31
0.0
  0
LINE
  5
101BA
330
1F
100
AcDbEntity
  8
0
100
AcDbLine
 10
28.25681818181819
 20
481.4058790220991
 30
0.0
 11
28.25681818181819
 21
483.3308790220991
 31
0.0
  0
LINE
  5
101BB
330
1F
100
AcDbEntity
  8
0
100
AcDbLine
 10
28.25681818181819
 20
483.3308790220991
 30
0.0
 11
29.181818181818194
 21
483.3308790220991
 31
0.0
  0
LINE
  5
101BC
330
1F
100
AcDbEntity
  8
0
100
AcDbLine
 10
29.181818181818194
 20
483.3308790220991
 30
0.0
 11
29.181818181818194
 21
481.4058790220991
 31
0.0
  0
LINE
  5
101BD
330
1F
100
AcDbEntity
  8
0
100
AcDbLine
 10
29.181818181818194
 20
481.4058790220991
 30
0.0
 11
28.25681818181819
 21
481.4058790220991
 31
0.0
  0
LINE
  5
101BE
330
1F
100
AcDbEntity
  8
0
100
AcDbLine
 10
19.165909090909096
 20
486.78072439381816
 30
0.0
 11
19.165909090909096
 21
489.88754257563636
 31
0.0
  0
LINE
  5
101BF
330
1F
100
AcDbEntity
  8
0
100
AcDbLine
 10
19.165909090909096
 20
489.88754257563636
 30
0.0
 11
28.18181818181819
 21
489.88754257563636
 31
0.0
  0
LINE
  5
101C0
330
1F
100
AcDbEntity
  8
0
100
AcDbLine
 10
28.18181818181819
 20
489.88754257563636
 30
0.0
 11
28.18181818181819
 21
486.78072439381816
 31
0.0
  0
LINE
  5
101C1
330
1F
100
AcDbEntity
  8
0
100
AcDbLine
 10
28.18181818181819
 20
486.78072439381816
 30
0.0
 11
19.165909090909096
 21
486.78072439381816
 31
0.0
  0
LINE
  5
101C2
330
1F
100
AcDbEntity
  8
0
100
AcDbLine
 10
29.181818181818194
 20
491.1105907440493
 30
0.0
 11
28.25681818181819
 21
491.1105907440493
 31
0.0
  0
LINE
  5
101C3
330
1F
100
AcDbEntity
  8
0
100
AcDbLine
 10
28.25681818181819
 20
491.1105907440493
 30
0.0
 11
28.25681818181819
 21
493.0355907440493
 31
0.0
  0
LINE
  5
101C4
330
1F
100
AcDbEntity
  8
0
100
AcDbLine
 10
28.25681818181819
 20
493.0355907440493
 30
0.0
 11
29.181818181818194
 21
493.0355907440493
 31
0.0
  0
LINE
  5
101C5
330
1F
100
AcDbEntity
  8
0
100
AcDbLine
 10
29.181818181818194
 20
493.0355907440493
 30
0.0
 11
29.181818181818194
 21
491.1105907440493
 31
0.0
  0
LINE
  5
101C6
330
1F
100
AcDbEntity
  8
0
100
AcDbLine
 10
41.89318181818182
 20
483.3308790220991
 30
0.0
 11
42.81818181818183
 21
483.3308790220991
 31
0.0
  0
LINE
  5
101C7
330
1F
100
AcDbEntity
  8
0
100
AcDbLine
 10
42.81818181818183
 20
483.3308790220991
 30
0.0
 11
42.81818181818183
 21
481.4058790220991
 31
0.0
  0
LINE
  5
101C8
330
1F
100
AcDbEntity
  8
0
100
AcDbLine
 10
42.81818181818183
 20
481.4058790220991
 30
0.0
 11
41.89318181818182
 21
481.4058790220991
 31
0.0
  0
LINE
  5
101C9
330
1F
100
AcDbEntity
  8
0
100
AcDbLine
 10
41.89318181818182
 20
481.4058790220991
 30
0.0
 11
41.89318181818182
 21
483.3308790220991
 31
0.0
  0
LINE
  5
101CA
330
1F
100
AcDbEntity
  8
0
100
AcDbLine
 10
16.865916449966335
 20
526.0375425756364
 30
0.0
 11
13.940916449966338
 21
526.0375425756364
 31
0.0
  0
LINE
  5
101CB
330
1F
100
AcDbEntity
  8
0
100
AcDbLine
 10
13.940916449966334
 20
526.0375425756364
 30
0.0
 11
13.940916449966332
 21
526.9625425756363
 31
0.0
  0
LINE
  5
101CC
330
1F
100
AcDbEntity
  8
0
100
AcDbLine
 10
13.940916449966334
 20
526.9625425756363
 30
0.0
 11
16.86591644996633
 21
526.9625425756363
 31
0.0
  0
LINE
  5
101CD
330
1F
100
AcDbEntity
  8
0
100
AcDbLine
 10
16.865916449966335
 20
526.9625425756363
 30
0.0
 11
16.865916449966335
 21
526.0375425756364
 31
0.0
  0
LINE
  5
101CE
330
1F
100
AcDbEntity
  8
0
100
AcDbLine
 10
13.940916449966334
 20
509.78072439381816
 30
0.0
 11
16.86591644996633
 21
509.78072439381816
 31
0.0
  0
LINE
  5
101CF
330
1F
100
AcDbEntity
  8
0
100
AcDbLine
 10
16.865916449966335
 20
509.78072439381816
 30
0.0
 11
16.865916449966335
 21
508.85572439381815
 31
0.0
  0
LINE
  5
101D0
330
1F
100
AcDbEntity
  8
0
100
AcDbLine
 10
16.865916449966335
 20
508.85572439381815
 30
0.0
 11
13.940916449966334
 21
508.85572439381815
 31
0.0
  0
LINE
  5
101D1
330
1F
100
AcDbEntity
  8
0
100
AcDbLine
 10
13.940916449966334
 20
508.85572439381815
 30
0.0
 11
13.940916449966334
 21
509.78072439381816
 31
0.0
  0
LINE
  5
101D2
330
1F
100
AcDbEntity
  8
0
100
AcDbLine
 10
10.0
 20
528.8557243938182
 30
0.0
 11
10.0
 21
506.96254257563635
 31
0.0
  0
LINE
  5
101D3
330
1F
100
AcDbEntity
  8
0
100
AcDbLine
 10
10.0
 20
506.96254257563635
 30
0.0
 11
23.756818181818176
 21
506.96254257563635
 31
0.0
  0
LINE
  5
101D4
330
1F
100
AcDbEntity
  8
0
100
AcDbLine
 10
23.75681818181818
 20
506.96254257563635
 30
0.0
 11
23.75681818181818
 21
528.8557243938182
 31
0.0
  0
LINE
  5
101D5
330
1F
100
AcDbEntity
  8
0
100
AcDbLine
 10
23.75681818181818
 20
528.8557243938182
 30
0.0
 11
10.000000000000004
 21
528.8557243938182
 31
0.0
  0
LINE
  5
101D6
330
1F
100
AcDbEntity
  8
0
100
AcDbLine
 10
24.982568398518524
 20
557.9307243938182
 30
6.661338147750939e-15
 11
22.05756839851853
 21
557.9307243938182
 31
6.38378239159465e-15
  0
LINE
  5
101D7
330
1F
100
AcDbEntity
  8
0
100
AcDbLine
 10
22.05756839851853
 20
557.9307243938182
 30
4.440892098500626e-15
 11
22.05756839851853
 21
558.8557243938182
 31
4.440892098500626e-15
  0
LINE
  5
101D8
330
1F
100
AcDbEntity
  8
0
100
AcDbLine
 10
22.05756839851853
 20
558.8557243938182
 30
4.440892098500626e-15
 11
24.982568398518524
 21
558.8557243938182
 31
4.440892098500626e-15
  0
LINE
  5
101D9
330
1F
100
AcDbEntity
  8
0
100
AcDbLine
 10
24.982568398518524
 20
558.8557243938182
 30
6.661338147750939e-15
 11
24.982568398518524
 21
557.9307243938182
 31
6.661338147750939e-15
  0
LINE
  5
101DA
330
1F
100
AcDbEntity
  8
0
100
AcDbLine
 10
24.982568398518524
 20
541.6739062119999
 30
6.661338147750939e-15
 11
24.982568398518524
 21
540.748906212
 31
6.661338147750939e-15
  0
LINE
  5
101DB
330
1F
100
AcDbEntity
  8
0
100
AcDbLine
 10
24.982568398518524
 20
540.748906212
 30
6.661338147750939e-15
 11
22.05756839851853
 21
540.748906212
 31
6.661338147750939e-15
  0
LINE
  5
101DC
330
1F
100
AcDbEntity
  8
0
100
AcDbLine
 10
22.05756839851853
 20
540.748906212
 30
4.440892098500626e-15
 11
22.05756839851853
 21
541.6739062119999
 31
4.440892098500626e-15
  0
LINE
  5
101DD
330
1F
100
AcDbEntity
  8
0
100
AcDbLine
 10
22.05756839851853
 20
541.6739062119999
 30
4.440892098500626e-15
 11
24.982568398518524
 21
541.6739062119999
 31
4.718447854656915e-15
  0
LINE
  5
101DE
330
1F
100
AcDbEntity
  8
0
100
AcDbLine
 10
28.756818181818183
 20
538.8557243938182
 30
0.0
 11
28.756818181818183
 21
560.748906212
 31
-3.4512664603419266e-31
  0
LINE
  5
101DF
330
1F
100
AcDbEntity
  8
0
100
AcDbLine
 10
28.756818181818183
 20
560.748906212
 30
0.0
 11
10.0
 21
560.748906212
 31
0.0
  0
LINE
  5
101E0
330
1F
100
AcDbEntity
  8
0
100
AcDbLine
 10
10.0
 20
560.748906212
 30
6.661338147750939e-15
 11
10.0
 21
538.8557243938182
 31
6.661338147750939e-15
  0
LINE
  5
101E1
330
1F
100
AcDbEntity
  8
0
100
AcDbLine
 10
10.0
 20
538.8557243938182
 30
6.661338147750939e-15
 11
28.756818181818183
 21
538.8557243938182
 31
6.661338147750939e-15
  0
ENDSEC
  0
SECTION
  2
OBJECTS
  0
DICTIONARY
  5
C
330
None
100
AcDbDictionary
281
1
  3
ACAD_GROUP
350
D
  3
ACAD_MLINESTYLE
350
17
  3
ACAD_COLOR
350
1005A
  3
ACAD_LAYOUT
350
1005B
  3
ACAD_MATERIAL
350
1005C
  3
ACAD_MLEADERSTYLE
350
1005D
  3
ACAD_PLOTSETTINGS
350
1005E
  3
ACAD_PLOTSTYLENAME
350
1005F
  3
ACAD_SCALELIST
350
10061
  3
ACAD_TABLESTYLE
350
10062
  3
ACAD_VISUALSTYLE
350
10063
  0
DICTIONARY
  5
D
330
None
100
AcDbDictionary
281
1
  0
DICTIONARY
  5
1A
330
C
100
AcDbDictionary
281
1
  0
DICTIONARY
  5
17
330
None
100
AcDbDictionary
281
1
  3
Standard
350
10069
  0
DICTIONARY
  5
1005A
330
C
100
AcDbDictionary
281
1
  0
DICTIONARY
  5
1005B
330
C
100
AcDbDictionary
281
1
  3
Model
350
10064
  3
Layout1
350
10065
  0
DICTIONARY
  5
1005C
330
C
100
AcDbDictionary
281
1
  3
ByBlock
350
10066
  3
ByLayer
350
10067
  3
Global
350
10068
  0
DICTIONARY
  5
1005D
330
C
100
AcDbDictionary
281
1
  3
Standard
350
1006E
  0
DICTIONARY
  5
1005E
330
C
100
AcDbDictionary
281
1
  0
ACDBDICTIONARYWDFLT
  5
1005F
330
C
100
AcDbDictionary
281
1
  3
Normal
350
10060
100
AcDbDictionaryWithDefault
340
10060
  0
ACDBPLACEHOLDER
  5
10060
330
1005F
  0
DICTIONARY
  5
10061
330
C
100
AcDbDictionary
281
1
  0
DICTIONARY
  5
10062
330
C
100
AcDbDictionary
281
1
  0
DICTIONARY
  5
10063
330
C
100
AcDbDictionary
281
1
  0
LAYOUT
  5
10064
330
1005B
100
AcDbPlotSettings
  1

  2
Adobe PDF
  4
A4
  6

 40
3.175
 41
3.175
 42
3.175
 43
3.175
 44
209.91
 45
297.03
 46
0.0
 47
0.0
 48
0.0
 49
0.0
140
0.0
141
0.0
142
1.0
143
1.0
 70
1024
 72
0
 73
1
 74
5
  7

 75
16
 76
0
 77
2
 78
300
147
1.0
148
0.0
149
0.0
100
AcDbLayout
  1
Model
 70
1
 71
0
 10
-3.175
 20
-3.175
 11
293.857
 21
206.735
 12
0.0
 22
0.0
 32
0.0
 14
29.068
 24
20.356
 34
0.0
 15
261.614
 25
183.204
 35
0.0
146
0.0
 13
0.0
 23
0.0
 33
0.0
 16
1.0
 26
0.0
 36
0.0
 17
0.0
 27
1.0
 37
0.0
 76
1
330
1F
  0
LAYOUT
  5
10065
330
1005B
100
AcDbPlotSettings
  1

  2
Adobe PDF
  4
A4
  6

 40
3.175
 41
3.175
 42
3.175
 43
3.175
 44
209.91
 45
297.03
 46
0.0
 47
0.0
 48
0.0
 49
0.0
140
0.0
141
0.0
142
1.0
143
1.0
 70
0
 72
0
 73
1
 74
5
  7

 75
16
 76
0
 77
2
 78
300
147
1.0
148
0.0
149
0.0
100
AcDbLayout
  1
Layout1
 70
1
 71
1
 10
-3.175
 20
-3.175
 11
293.857
 21
206.735
 12
0.0
 22
0.0
 32
0.0
 14
29.068
 24
20.356
 34
0.0
 15
261.614
 25
183.204
 35
0.0
146
0.0
 13
0.0
 23
0.0
 33
0.0
 16
1.0
 26
0.0
 36
0.0
 17
0.0
 27
1.0
 37
0.0
 76
1
330
1B
  0
MATERIAL
  5
10066
102
{ACAD_REACTORS
330
1005C
102
}
330
1005C
100
AcDbMaterial
  1
ByBlock
  2

 70
0
 40
1.0
 71
1
 41
1.0
 91
-1023410177
 42
1.0
 72
1
  3

 73
1
 74
1
 75
1
 44
0.5
 73
0
 45
1.0
 46
1.0
 77
1
  4

 78
1
 79
1
170
1
 48
1.0
171
1
  6

172
1
173
1
174
1
140
1.0
141
1.0
175
1
  7

176
1
177
1
178
1
143
1.0
179
1
  8

270
1
271
1
272
1
145
1.0
146
1.0
273
1
  9

274
1
275
1
276
1
 42
1.0
 72
1
  3

 73
1
 74
1
 75
1
 94
63
  0
MATERIAL
  5
10067
102
{ACAD_REACTORS
330
1005C
102
}
330
1005C
100
AcDbMaterial
  1
ByLayer
  2

 70
0
 40
1.0
 71
1
 41
1.0
 91
-1023410177
 42
1.0
 72
1
  3

 73
1
 74
1
 75
1
 44
0.5
 73
0
 45
1.0
 46
1.0
 77
1
  4

 78
1
 79
1
170
1
 48
1.0
171
1
  6

172
1
173
1
174
1
140
1.0
141
1.0
175
1
  7

176
1
177
1
178
1
143
1.0
179
1
  8

270
1
271
1
272
1
145
1.0
146
1.0
273
1
  9

274
1
275
1
276
1
 42
1.0
 72
1
  3

 73
1
 74
1
 75
1
 94
63
  0
MATERIAL
  5
10068
102
{ACAD_REACTORS
330
1005C
102
}
330
1005C
100
AcDbMaterial
  1
Global
  2

 70
0
 40
1.0
 71
1
 41
1.0
 91
-1023410177
 42
1.0
 72
1
  3

 73
1
 74
1
 75
1
 44
0.5
 73
0
 45
1.0
 46
1.0
 77
1
  4

 78
1
 79
1
170
1
 48
1.0
171
1
  6

172
1
173
1
174
1
140
1.0
141
1.0
175
1
  7

176
1
177
1
178
1
143
1.0
179
1
  8

270
1
271
1
272
1
145
1.0
146
1.0
273
1
  9

274
1
275
1
276
1
 42
1.0
 72
1
  3

 73
1
 74
1
 75
1
 94
63
  0
MLINESTYLE
  5
10069
102
{ACAD_REACTORS
330
17
102
}
330
17
100
AcDbMlineStyle
  2
Standard
 70
0
  3

 62
256
 51
90.0
 52
90.0
 71
2
 49
0.5
 62
256
  6
BYLAYER
 49
-0.5
 62
256
  6
BYLAYER
  0
MLEADERSTYLE
  5
1006E
102
{ACAD_REACTORS
330
1005D
102
}
330
1005D
100
AcDbMLeaderStyle
179
2
170
2
171
1
172
0
 90
2
 40
0.0
 41
0.0
173
1
 91
-1056964608
 92
-2
290
1
 42
2.0
291
1
 43
8.0
  3
Standard
 44
4.0
300

342
11
174
1
175
1
176
0
178
1
 93
-1056964608
 45
4.0
292
0
297
0
 46
4.0
 94
-1056964608
 47
1.0
 49
1.0
140
1.0
294
1
141
0.0
177
0
142
1.0
295
0
296
0
143
3.75
271
0
272
9
273
9
  0
ENDSEC
  0
EOF
