  0
SECTION
  2
HEADER
  9
$ACADVER
  1
AC1009
  9
$EXTMIN
 10
0.0
 20
0.0
 30
0.0
  9
$EXTMAX
 10
1000.0
 20
1000.0
 30
0.0
  9
$FILLMODE
 70
 0
  9
$SPLFRAME
 70
 1
  0
ENDSEC
  0
SECTION
  2
TABLES
  0
TABLE
  2
LAYER
 70
1
  0
LAYER
  2
0
 70
     0
 62
     7
  6
CONTINUOUS
  0
ENDTAB
  0
ENDSEC
  0
SECTION
  2
ENTITIES
  0
POLYLINE
  8
0
 62
     0
 66
     1
 10
0
 20
0
 30
0.0
 70
     1
 40
0
 41
0
  0
VERTEX
  8
0
 10
45.0056
 20
190.958
 30
0.0
 40
0
 41
0
  0
VERTEX
  8
0
 10
45.0056
 20
186.25
 30
0.0
 40
0
 41
0
  0
VERTEX
  8
0
 10
46.1056
 20
186.25
 30
0.0
 40
0
 41
0
  0
VERTEX
  8
0
 10
46.1056
 20
178.2
 30
0.0
 40
0
 41
0
  0
VERTEX
  8
0
 10
45.0056
 20
178.2
 30
0.0
 40
0
 41
0
  0
VERTEX
  8
0
 10
45.0056
 20
171.25
 30
0.0
 40
0
 41
0
  0
VERTEX
  8
0
 10
46.1056
 20
171.25
 30
0.0
 40
0
 41
0
  0
VERTEX
  8
0
 10
46.1056
 20
163.171
 30
0.0
 40
0
 41
0
  0
VERTEX
  8
0
 10
45.0056
 20
163.171
 30
0.0
 40
0
 41
0
  0
VERTEX
  8
0
 10
45.0056
 20
156.122
 30
0.0
 40
0
 41
0
  0
VERTEX
  8
0
 10
40.2506
 20
156.122
 30
0.0
 40
0
 41
0
  0
VERTEX
  8
0
 10
40.2506
 20
155.022
 30
0.0
 40
0
 41
0
  0
VERTEX
  8
0
 10
30.2006
 20
155.022
 30
0.0
 40
0
 41
0
  0
VERTEX
  8
0
 10
30.2006
 20
156.122
 30
0.0
 40
0
 41
0
  0
VERTEX
  8
0
 10
16.506
 20
156.122
 30
0.0
 40
0
 41
0
  0
VERTEX
  8
0
 10
16.506
 20
155.022
 30
0.0
 40
0
 41
0
  0
VERTEX
  8
0
 10
6.45594
 20
155.022
 30
0.0
 40
0
 41
0
  0
VERTEX
  8
0
 10
6.45594
 20
156.122
 30
0.0
 40
0
 41
0
  0
VERTEX
  8
0
 10
1.7009
 20
156.122
 30
0.0
 40
0
 41
0
  0
VERTEX
  8
0
 10
1.7009
 20
163.171
 30
0.0
 40
0
 41
0
  0
VERTEX
  8
0
 10
0.600911
 20
163.171
 30
0.0
 40
0
 41
0
  0
VERTEX
  8
0
 10
0.600911
 20
171.25
 30
0.0
 40
0
 41
0
  0
VERTEX
  8
0
 10
1.7009
 20
171.25
 30
0.0
 40
0
 41
0
  0
VERTEX
  8
0
 10
1.7009
 20
178.2
 30
0.0
 40
0
 41
0
  0
VERTEX
  8
0
 10
0.600911
 20
178.2
 30
0.0
 40
0
 41
0
  0
VERTEX
  8
0
 10
0.600911
 20
186.25
 30
0.0
 40
0
 41
0
  0
VERTEX
  8
0
 10
1.7009
 20
186.25
 30
0.0
 40
0
 41
0
  0
VERTEX
  8
0
 10
1.7009
 20
190.958
 30
0.0
 40
0
 41
0
  0
VERTEX
  8
0
 10
45.0056
 20
190.958
 30
0.0
 40
0
 41
0
  0
SEQEND
 8
0
  0
POLYLINE
  8
0
 62
     0
 66
     1
 10
0
 20
0
 30
0.0
 70
     1
 40
0
 41
0
  0
VERTEX
  8
0
 10
43.0961
 20
182.225
 30
0.0
 40
0
 41
0
  0
VERTEX
  8
0
 10
43.0961
 20
182.171
 30
0.0
 40
0
 41
0
  0
VERTEX
  8
0
 10
43.0742
 20
182.008
 30
0.0
 40
0
 41
0
  0
VERTEX
  8
0
 10
43.0115
 20
181.806
 30
0.0
 40
0
 41
0
  0
VERTEX
  8
0
 10
42.9125
 20
181.624
 30
0.0
 40
0
 41
0
  0
VERTEX
  8
0
 10
42.7813
 20
181.464
 30
0.0
 40
0
 41
0
  0
VERTEX
  8
0
 10
42.6221
 20
181.333
 30
0.0
 40
0
 41
0
  0
VERTEX
  8
0
 10
42.4394
 20
181.233
 30
0.0
 40
0
 41
0
  0
VERTEX
  8
0
 10
42.2378
 20
181.171
 30
0.0
 40
0
 41
0
  0
VERTEX
  8
0
 10
42.0753
 20
181.15
 30
0.0
 40
0
 41
0
  0
VERTEX
  8
0
 10
42.0211
 20
181.15
 30
0.0
 40
0
 41
0
  0
VERTEX
  8
0
 10
41.9669
 20
181.15
 30
0.0
 40
0
 41
0
  0
VERTEX
  8
0
 10
41.8044
 20
181.171
 30
0.0
 40
0
 41
0
  0
VERTEX
  8
0
 10
41.6026
 20
181.233
 30
0.0
 40
0
 41
0
  0
VERTEX
  8
0
 10
41.42
 20
181.333
 30
0.0
 40
0
 41
0
  0
VERTEX
  8
0
 10
41.261
 20
181.464
 30
0.0
 40
0
 41
0
  0
VERTEX
  8
0
 10
41.1297
 20
181.624
 30
0.0
 40
0
 41
0
  0
VERTEX
  8
0
 10
41.0306
 20
181.806
 30
0.0
 40
0
 41
0
  0
VERTEX
  8
0
 10
40.9679
 20
182.008
 30
0.0
 40
0
 41
0
  0
VERTEX
  8
0
 10
40.9461
 20
182.171
 30
0.0
 40
0
 41
0
  0
VERTEX
  8
0
 10
40.9461
 20
182.225
 30
0.0
 40
0
 41
0
  0
VERTEX
  8
0
 10
40.9461
 20
182.279
 30
0.0
 40
0
 41
0
  0
VERTEX
  8
0
 10
40.9679
 20
182.442
 30
0.0
 40
0
 41
0
  0
VERTEX
  8
0
 10
41.0306
 20
182.643
 30
0.0
 40
0
 41
0
  0
VERTEX
  8
0
 10
41.1297
 20
182.825
 30
0.0
 40
0
 41
0
  0
VERTEX
  8
0
 10
41.261
 20
182.985
 30
0.0
 40
0
 41
0
  0
VERTEX
  8
0
 10
41.42
 20
183.115
 30
0.0
 40
0
 41
0
  0
VERTEX
  8
0
 10
41.6026
 20
183.215
 30
0.0
 40
0
 41
0
  0
VERTEX
  8
0
 10
41.8044
 20
183.278
 30
0.0
 40
0
 41
0
  0
VERTEX
  8
0
 10
41.9669
 20
183.3
 30
0.0
 40
0
 41
0
  0
VERTEX
  8
0
 10
42.0211
 20
183.3
 30
0.0
 40
0
 41
0
  0
VERTEX
  8
0
 10
42.0753
 20
183.3
 30
0.0
 40
0
 41
0
  0
VERTEX
  8
0
 10
42.2378
 20
183.278
 30
0.0
 40
0
 41
0
  0
VERTEX
  8
0
 10
42.4394
 20
183.215
 30
0.0
 40
0
 41
0
  0
VERTEX
  8
0
 10
42.6221
 20
183.115
 30
0.0
 40
0
 41
0
  0
VERTEX
  8
0
 10
42.7813
 20
182.985
 30
0.0
 40
0
 41
0
  0
VERTEX
  8
0
 10
42.9125
 20
182.825
 30
0.0
 40
0
 41
0
  0
VERTEX
  8
0
 10
43.0115
 20
182.643
 30
0.0
 40
0
 41
0
  0
VERTEX
  8
0
 10
43.0742
 20
182.442
 30
0.0
 40
0
 41
0
  0
VERTEX
  8
0
 10
43.0961
 20
182.279
 30
0.0
 40
0
 41
0
  0
VERTEX
  8
0
 10
43.0961
 20
182.225
 30
0.0
 40
0
 41
0
  0
SEQEND
 8
0
  0
POLYLINE
  8
0
 62
     0
 66
     1
 10
0
 20
0
 30
0.0
 70
     1
 40
0
 41
0
  0
VERTEX
  8
0
 10
30.1056
 20
167.486
 30
0.0
 40
0
 41
0
  0
VERTEX
  8
0
 10
38.0556
 20
167.486
 30
0.0
 40
0
 41
0
  0
VERTEX
  8
0
 10
38.0556
 20
166.436
 30
0.0
 40
0
 41
0
  0
VERTEX
  8
0
 10
30.1056
 20
166.436
 30
0.0
 40
0
 41
0
  0
VERTEX
  8
0
 10
30.1056
 20
167.486
 30
0.0
 40
0
 41
0
  0
SEQEND
 8
0
  0
POLYLINE
  8
0
 62
     0
 66
     1
 10
0
 20
0
 30
0.0
 70
     1
 40
0
 41
0
  0
VERTEX
  8
0
 10
8.65093
 20
167.486
 30
0.0
 40
0
 41
0
  0
VERTEX
  8
0
 10
16.601
 20
167.486
 30
0.0
 40
0
 41
0
  0
VERTEX
  8
0
 10
16.601
 20
166.436
 30
0.0
 40
0
 41
0
  0
VERTEX
  8
0
 10
8.65093
 20
166.436
 30
0.0
 40
0
 41
0
  0
VERTEX
  8
0
 10
8.65093
 20
167.486
 30
0.0
 40
0
 41
0
  0
SEQEND
 8
0
  0
POLYLINE
  8
0
 62
     0
 66
     1
 10
0
 20
0
 30
0.0
 70
     1
 40
0
 41
0
  0
VERTEX
  8
0
 10
0
 20
153.211
 30
0.0
 40
0
 41
0
  0
VERTEX
  8
0
 10
48.6864
 20
153.211
 30
0.0
 40
0
 41
0
  0
VERTEX
  8
0
 10
48.6864
 20
97.7063
 30
0.0
 40
0
 41
0
  0
VERTEX
  8
0
 10
0
 20
97.7063
 30
0.0
 40
0
 41
0
  0
VERTEX
  8
0
 10
0
 20
153.211
 30
0.0
 40
0
 41
0
  0
SEQEND
 8
0
  0
POLYLINE
  8
0
 62
     0
 66
     1
 10
0
 20
0
 30
0.0
 70
     1
 40
0
 41
0
  0
VERTEX
  8
0
 10
16.4138
 20
122.479
 30
0.0
 40
0
 41
0
  0
VERTEX
  8
0
 10
17.4636
 20
122.479
 30
0.0
 40
0
 41
0
  0
VERTEX
  8
0
 10
17.4636
 20
103.856
 30
0.0
 40
0
 41
0
  0
VERTEX
  8
0
 10
16.4138
 20
103.856
 30
0.0
 40
0
 41
0
  0
VERTEX
  8
0
 10
16.4138
 20
122.479
 30
0.0
 40
0
 41
0
  0
SEQEND
 8
0
  0
POLYLINE
  8
0
 62
     0
 66
     1
 10
0
 20
0
 30
0.0
 70
     1
 40
0
 41
0
  0
VERTEX
  8
0
 10
16.4138
 20
147.061
 30
0.0
 40
0
 41
0
  0
VERTEX
  8
0
 10
17.4636
 20
147.061
 30
0.0
 40
0
 41
0
  0
VERTEX
  8
0
 10
17.4636
 20
128.438
 30
0.0
 40
0
 41
0
  0
VERTEX
  8
0
 10
16.4138
 20
128.438
 30
0.0
 40
0
 41
0
  0
VERTEX
  8
0
 10
16.4138
 20
147.061
 30
0.0
 40
0
 41
0
  0
SEQEND
 8
0
  0
POLYLINE
  8
0
 62
     0
 66
     1
 10
0
 20
0
 30
0.0
 70
     1
 40
0
 41
0
  0
VERTEX
  8
0
 10
42.5864
 20
115.806
 30
0.0
 40
0
 41
0
  0
VERTEX
  8
0
 10
43.6364
 20
115.806
 30
0.0
 40
0
 41
0
  0
VERTEX
  8
0
 10
43.6364
 20
107.856
 30
0.0
 40
0
 41
0
  0
VERTEX
  8
0
 10
42.5864
 20
107.856
 30
0.0
 40
0
 41
0
  0
VERTEX
  8
0
 10
42.5864
 20
115.806
 30
0.0
 40
0
 41
0
  0
SEQEND
 8
0
  0
POLYLINE
  8
0
 62
     0
 66
     1
 10
0
 20
0
 30
0.0
 70
     1
 40
0
 41
0
  0
VERTEX
  8
0
 10
36.5033
 20
129.922
 30
0.0
 40
0
 41
0
  0
VERTEX
  8
0
 10
43.6364
 20
129.922
 30
0.0
 40
0
 41
0
  0
VERTEX
  8
0
 10
43.6364
 20
120.995
 30
0.0
 40
0
 41
0
  0
VERTEX
  8
0
 10
36.5033
 20
120.995
 30
0.0
 40
0
 41
0
  0
VERTEX
  8
0
 10
36.5033
 20
129.922
 30
0.0
 40
0
 41
0
  0
SEQEND
 8
0
  0
POLYLINE
  8
0
 62
     0
 66
     1
 10
0
 20
0
 30
0.0
 70
     1
 40
0
 41
0
  0
VERTEX
  8
0
 10
42.5864
 20
140.224
 30
0.0
 40
0
 41
0
  0
VERTEX
  8
0
 10
43.6364
 20
140.224
 30
0.0
 40
0
 41
0
  0
VERTEX
  8
0
 10
43.6364
 20
135.273
 30
0.0
 40
0
 41
0
  0
VERTEX
  8
0
 10
42.5864
 20
135.273
 30
0.0
 40
0
 41
0
  0
VERTEX
  8
0
 10
42.5864
 20
140.224
 30
0.0
 40
0
 41
0
  0
SEQEND
 8
0
  0
POLYLINE
  8
0
 62
     0
 66
     1
 10
0
 20
0
 30
0.0
 70
     1
 40
0
 41
0
  0
VERTEX
  8
0
 10
42.5864
 20
147.061
 30
0.0
 40
0
 41
0
  0
VERTEX
  8
0
 10
43.6364
 20
147.061
 30
0.0
 40
0
 41
0
  0
VERTEX
  8
0
 10
43.6364
 20
143.91
 30
0.0
 40
0
 41
0
  0
VERTEX
  8
0
 10
42.5864
 20
143.91
 30
0.0
 40
0
 41
0
  0
VERTEX
  8
0
 10
42.5864
 20
147.061
 30
0.0
 40
0
 41
0
  0
SEQEND
 8
0
  0
POLYLINE
  8
0
 62
     0
 66
     1
 10
0
 20
0
 30
0.0
 70
     1
 40
0
 41
0
  0
VERTEX
  8
0
 10
20.3682
 20
103.806
 30
0.0
 40
0
 41
0
  0
VERTEX
  8
0
 10
28.3182
 20
103.806
 30
0.0
 40
0
 41
0
  0
VERTEX
  8
0
 10
28.3182
 20
102.756
 30
0.0
 40
0
 41
0
  0
VERTEX
  8
0
 10
20.3682
 20
102.756
 30
0.0
 40
0
 41
0
  0
VERTEX
  8
0
 10
20.3682
 20
103.806
 30
0.0
 40
0
 41
0
  0
SEQEND
 8
0
  0
POLYLINE
  8
0
 62
     0
 66
     1
 10
0
 20
0
 30
0.0
 70
     1
 40
0
 41
0
  0
VERTEX
  8
0
 10
6.09999
 20
105.888
 30
0.0
 40
0
 41
0
  0
VERTEX
  8
0
 10
5.05003
 20
105.888
 30
0.0
 40
0
 41
0
  0
VERTEX
  8
0
 10
5.05003
 20
102.756
 30
0.0
 40
0
 41
0
  0
VERTEX
  8
0
 10
6.81819
 20
102.756
 30
0.0
 40
0
 41
0
  0
VERTEX
  8
0
 10
6.81819
 20
103.806
 30
0.0
 40
0
 41
0
  0
VERTEX
  8
0
 10
6.09999
 20
103.806
 30
0.0
 40
0
 41
0
  0
VERTEX
  8
0
 10
6.09999
 20
105.888
 30
0.0
 40
0
 41
0
  0
SEQEND
 8
0
  0
POLYLINE
  8
0
 62
     0
 66
     1
 10
0
 20
0
 30
0.0
 70
     1
 40
0
 41
0
  0
VERTEX
  8
0
 10
20.3682
 20
148.161
 30
0.0
 40
0
 41
0
  0
VERTEX
  8
0
 10
28.3182
 20
148.161
 30
0.0
 40
0
 41
0
  0
VERTEX
  8
0
 10
28.3182
 20
147.111
 30
0.0
 40
0
 41
0
  0
VERTEX
  8
0
 10
20.3682
 20
147.111
 30
0.0
 40
0
 41
0
  0
VERTEX
  8
0
 10
20.3682
 20
148.161
 30
0.0
 40
0
 41
0
  0
SEQEND
 8
0
  0
POLYLINE
  8
0
 62
     0
 66
     1
 10
0
 20
0
 30
0.0
 70
     1
 40
0
 41
0
  0
VERTEX
  8
0
 10
6.09999
 20
145.029
 30
0.0
 40
0
 41
0
  0
VERTEX
  8
0
 10
6.09999
 20
147.111
 30
0.0
 40
0
 41
0
  0
VERTEX
  8
0
 10
6.81819
 20
147.111
 30
0.0
 40
0
 41
0
  0
VERTEX
  8
0
 10
6.81819
 20
148.161
 30
0.0
 40
0
 41
0
  0
VERTEX
  8
0
 10
5.05003
 20
148.161
 30
0.0
 40
0
 41
0
  0
VERTEX
  8
0
 10
5.05003
 20
145.029
 30
0.0
 40
0
 41
0
  0
VERTEX
  8
0
 10
6.09999
 20
145.029
 30
0.0
 40
0
 41
0
  0
SEQEND
 8
0
  0
POLYLINE
  8
0
 62
     0
 66
     1
 10
0
 20
0
 30
0.0
 70
     1
 40
0
 41
0
  0
VERTEX
  8
0
 10
5.05003
 20
133.312
 30
0.0
 40
0
 41
0
  0
VERTEX
  8
0
 10
6.09999
 20
133.312
 30
0.0
 40
0
 41
0
  0
VERTEX
  8
0
 10
6.09999
 20
131.544
 30
0.0
 40
0
 41
0
  0
VERTEX
  8
0
 10
5.05003
 20
131.544
 30
0.0
 40
0
 41
0
  0
VERTEX
  8
0
 10
5.05003
 20
133.312
 30
0.0
 40
0
 41
0
  0
SEQEND
 8
0
  0
POLYLINE
  8
0
 62
     0
 66
     1
 10
0
 20
0
 30
0.0
 70
     1
 40
0
 41
0
  0
VERTEX
  8
0
 10
5.05003
 20
119.828
 30
0.0
 40
0
 41
0
  0
VERTEX
  8
0
 10
6.09999
 20
119.828
 30
0.0
 40
0
 41
0
  0
VERTEX
  8
0
 10
6.09999
 20
117.605
 30
0.0
 40
0
 41
0
  0
VERTEX
  8
0
 10
5.05003
 20
117.605
 30
0.0
 40
0
 41
0
  0
VERTEX
  8
0
 10
5.05003
 20
119.828
 30
0.0
 40
0
 41
0
  0
SEQEND
 8
0
  0
POLYLINE
  8
0
 62
     0
 66
     1
 10
0
 20
0
 30
0.0
 70
     1
 40
0
 41
0
  0
VERTEX
  8
0
 10
2.13303
 20
46.8892
 30
0.0
 40
0
 41
0
  0
VERTEX
  8
0
 10
0.264811
 20
46.8892
 30
0.0
 40
0
 41
0
  0
VERTEX
  8
0
 10
0.264811
 20
62.7336
 30
0.0
 40
0
 41
0
  0
VERTEX
  8
0
 10
1.36485
 20
62.7336
 30
0.0
 40
0
 41
0
  0
VERTEX
  8
0
 10
1.36485
 20
82.8074
 30
0.0
 40
0
 41
0
  0
VERTEX
  8
0
 10
0.264811
 20
82.8074
 30
0.0
 40
0
 41
0
  0
VERTEX
  8
0
 10
0.264811
 20
89.8501
 30
0.0
 40
0
 41
0
  0
VERTEX
  8
0
 10
19.6081
 20
96.6771
 30
0.0
 40
0
 41
0
  0
VERTEX
  8
0
 10
38.9513
 20
89.8501
 30
0.0
 40
0
 41
0
  0
VERTEX
  8
0
 10
38.9513
 20
82.8074
 30
0.0
 40
0
 41
0
  0
VERTEX
  8
0
 10
37.8513
 20
82.8074
 30
0.0
 40
0
 41
0
  0
VERTEX
  8
0
 10
37.8513
 20
55.0392
 30
0.0
 40
0
 41
0
  0
VERTEX
  8
0
 10
38.9513
 20
55.0392
 30
0.0
 40
0
 41
0
  0
VERTEX
  8
0
 10
38.9513
 20
47.9892
 30
0.0
 40
0
 41
0
  0
VERTEX
  8
0
 10
23.6331
 20
47.9892
 30
0.0
 40
0
 41
0
  0
VERTEX
  8
0
 10
23.6331
 20
46.8892
 30
0.0
 40
0
 41
0
  0
VERTEX
  8
0
 10
15.5831
 20
46.8892
 30
0.0
 40
0
 41
0
  0
VERTEX
  8
0
 10
15.5831
 20
47.9892
 30
0.0
 40
0
 41
0
  0
VERTEX
  8
0
 10
11.1739
 20
47.9892
 30
0.0
 40
0
 41
0
  0
VERTEX
  8
0
 10
11.1739
 20
56.6519
 30
0.0
 40
0
 41
0
  0
VERTEX
  8
0
 10
11.1867
 20
56.7714
 30
0.0
 40
0
 41
0
  0
VERTEX
  8
0
 10
11.1999
 20
57.1324
 30
0.0
 40
0
 41
0
  0
VERTEX
  8
0
 10
11.1754
 20
57.6088
 30
0.0
 40
0
 41
0
  0
VERTEX
  8
0
 10
11.1016
 20
58.0775
 30
0.0
 40
0
 41
0
  0
VERTEX
  8
0
 10
10.9797
 20
58.5349
 30
0.0
 40
0
 41
0
  0
VERTEX
  8
0
 10
10.8109
 20
58.9772
 30
0.0
 40
0
 41
0
  0
VERTEX
  8
0
 10
10.5965
 20
59.4006
 30
0.0
 40
0
 41
0
  0
VERTEX
  8
0
 10
10.3376
 20
59.8012
 30
0.0
 40
0
 41
0
  0
VERTEX
  8
0
 10
10.1157
 20
60.0862
 30
0.0
 40
0
 41
0
  0
VERTEX
  8
0
 10
10.0355
 20
60.1756
 30
0.0
 40
0
 41
0
  0
VERTEX
  8
0
 10
9.95518
 20
60.2649
 30
0.0
 40
0
 41
0
  0
VERTEX
  8
0
 10
9.69547
 20
60.5158
 30
0.0
 40
0
 41
0
  0
VERTEX
  8
0
 10
9.32471
 20
60.8161
 30
0.0
 40
0
 41
0
  0
VERTEX
  8
0
 10
8.92665
 20
61.0744
 30
0.0
 40
0
 41
0
  0
VERTEX
  8
0
 10
8.50493
 20
61.2894
 30
0.0
 40
0
 41
0
  0
VERTEX
  8
0
 10
8.06321
 20
61.4594
 30
0.0
 40
0
 41
0
  0
VERTEX
  8
0
 10
7.60499
 20
61.5829
 30
0.0
 40
0
 41
0
  0
VERTEX
  8
0
 10
7.13385
 20
61.6582
 30
0.0
 40
0
 41
0
  0
VERTEX
  8
0
 10
6.77354
 20
61.6835
 30
0.0
 40
0
 41
0
  0
VERTEX
  8
0
 10
6.65349
 20
61.6835
 30
0.0
 40
0
 41
0
  0
VERTEX
  8
0
 10
6.53336
 20
61.6835
 30
0.0
 40
0
 41
0
  0
VERTEX
  8
0
 10
6.17307
 20
61.6582
 30
0.0
 40
0
 41
0
  0
VERTEX
  8
0
 10
5.70193
 20
61.5829
 30
0.0
 40
0
 41
0
  0
VERTEX
  8
0
 10
5.24371
 20
61.4594
 30
0.0
 40
0
 41
0
  0
VERTEX
  8
0
 10
4.80197
 20
61.2894
 30
0.0
 40
0
 41
0
  0
VERTEX
  8
0
 10
4.38026
 20
61.0744
 30
0.0
 40
0
 41
0
  0
VERTEX
  8
0
 10
3.98221
 20
60.8161
 30
0.0
 40
0
 41
0
  0
VERTEX
  8
0
 10
3.61143
 20
60.5158
 30
0.0
 40
0
 41
0
  0
VERTEX
  8
0
 10
3.35172
 20
60.2649
 30
0.0
 40
0
 41
0
  0
VERTEX
  8
0
 10
3.27149
 20
60.1756
 30
0.0
 40
0
 41
0
  0
VERTEX
  8
0
 10
3.19119
 20
60.0862
 30
0.0
 40
0
 41
0
  0
VERTEX
  8
0
 10
2.96929
 20
59.8012
 30
0.0
 40
0
 41
0
  0
VERTEX
  8
0
 10
2.71044
 20
59.4006
 30
0.0
 40
0
 41
0
  0
VERTEX
  8
0
 10
2.49599
 20
58.9772
 30
0.0
 40
0
 41
0
  0
VERTEX
  8
0
 10
2.32726
 20
58.5349
 30
0.0
 40
0
 41
0
  0
VERTEX
  8
0
 10
2.20535
 20
58.0775
 30
0.0
 40
0
 41
0
  0
VERTEX
  8
0
 10
2.13151
 20
57.6088
 30
0.0
 40
0
 41
0
  0
VERTEX
  8
0
 10
2.10704
 20
57.1324
 30
0.0
 40
0
 41
0
  0
VERTEX
  8
0
 10
2.12017
 20
56.7714
 30
0.0
 40
0
 41
0
  0
VERTEX
  8
0
 10
2.13303
 20
56.6519
 30
0.0
 40
0
 41
0
  0
VERTEX
  8
0
 10
2.13303
 20
46.8892
 30
0.0
 40
0
 41
0
  0
SEQEND
 8
0
  0
POLYLINE
  8
0
 62
     0
 66
     1
 10
0
 20
0
 30
0.0
 70
     1
 40
0
 41
0
  0
VERTEX
  8
0
 10
23.4924
 20
64.9983
 30
0.0
 40
0
 41
0
  0
VERTEX
  8
0
 10
31.4422
 20
64.9983
 30
0.0
 40
0
 41
0
  0
VERTEX
  8
0
 10
31.4422
 20
63.9483
 30
0.0
 40
0
 41
0
  0
VERTEX
  8
0
 10
23.4924
 20
63.9483
 30
0.0
 40
0
 41
0
  0
VERTEX
  8
0
 10
23.4924
 20
64.9983
 30
0.0
 40
0
 41
0
  0
SEQEND
 8
0
  0
POLYLINE
  8
0
 62
     0
 66
     1
 10
0
 20
0
 30
0.0
 70
     1
 40
0
 41
0
  0
VERTEX
  8
0
 10
8.46311
 20
64.9983
 30
0.0
 40
0
 41
0
  0
VERTEX
  8
0
 10
16.4422
 20
64.9983
 30
0.0
 40
0
 41
0
  0
VERTEX
  8
0
 10
16.4422
 20
63.9483
 30
0.0
 40
0
 41
0
  0
VERTEX
  8
0
 10
8.46311
 20
63.9483
 30
0.0
 40
0
 41
0
  0
VERTEX
  8
0
 10
8.46311
 20
64.9983
 30
0.0
 40
0
 41
0
  0
SEQEND
 8
0
  0
POLYLINE
  8
0
 62
     0
 66
     1
 10
0
 20
0
 30
0.0
 70
     1
 40
0
 41
0
  0
VERTEX
  8
0
 10
33.2086
 20
14.8532
 30
0.0
 40
0
 41
0
  0
VERTEX
  8
0
 10
33.121
 20
14.8407
 30
0.0
 40
0
 41
0
  0
VERTEX
  8
0
 10
32.8593
 20
14.7924
 30
0.0
 40
0
 41
0
  0
VERTEX
  8
0
 10
32.5164
 20
14.7111
 30
0.0
 40
0
 41
0
  0
VERTEX
  8
0
 10
32.181
 20
14.61
 30
0.0
 40
0
 41
0
  0
VERTEX
  8
0
 10
31.8535
 20
14.4896
 30
0.0
 40
0
 41
0
  0
VERTEX
  8
0
 10
31.5347
 20
14.3503
 30
0.0
 40
0
 41
0
  0
VERTEX
  8
0
 10
31.2257
 20
14.1929
 30
0.0
 40
0
 41
0
  0
VERTEX
  8
0
 10
30.9268
 20
14.0178
 30
0.0
 40
0
 41
0
  0
VERTEX
  8
0
 10
30.6392
 20
13.8255
 30
0.0
 40
0
 41
0
  0
VERTEX
  8
0
 10
30.3632
 20
13.6166
 30
0.0
 40
0
 41
0
  0
VERTEX
  8
0
 10
30.0999
 20
13.3917
 30
0.0
 40
0
 41
0
  0
VERTEX
  8
0
 10
29.85
 20
13.1512
 30
0.0
 40
0
 41
0
  0
VERTEX
  8
0
 10
29.614
 20
12.8956
 30
0.0
 40
0
 41
0
  0
VERTEX
  8
0
 10
29.3929
 20
12.6257
 30
0.0
 40
0
 41
0
  0
VERTEX
  8
0
 10
29.1875
 20
12.3417
 30
0.0
 40
0
 41
0
  0
VERTEX
  8
0
 10
28.9985
 20
12.0445
 30
0.0
 40
0
 41
0
  0
VERTEX
  8
0
 10
28.8671
 20
11.8131
 30
0.0
 40
0
 41
0
  0
VERTEX
  8
0
 10
28.8265
 20
11.7343
 30
0.0
 40
0
 41
0
  0
VERTEX
  8
0
 10
28.7858
 20
11.6556
 30
0.0
 40
0
 41
0
  0
VERTEX
  8
0
 10
28.6735
 20
11.4144
 30
0.0
 40
0
 41
0
  0
VERTEX
  8
0
 10
28.541
 20
11.0879
 30
0.0
 40
0
 41
0
  0
VERTEX
  8
0
 10
28.4289
 20
10.756
 30
0.0
 40
0
 41
0
  0
VERTEX
  8
0
 10
28.3371
 20
10.4193
 30
0.0
 40
0
 41
0
  0
VERTEX
  8
0
 10
28.2657
 20
10.079
 30
0.0
 40
0
 41
0
  0
VERTEX
  8
0
 10
28.2147
 20
9.73583
 30
0.0
 40
0
 41
0
  0
VERTEX
  8
0
 10
28.184
 20
9.39085
 30
0.0
 40
0
 41
0
  0
VERTEX
  8
0
 10
28.1739
 20
9.04492
 30
0.0
 40
0
 41
0
  0
VERTEX
  8
0
 10
28.184
 20
8.699
 30
0.0
 40
0
 41
0
  0
VERTEX
  8
0
 10
28.2147
 20
8.354
 30
0.0
 40
0
 41
0
  0
VERTEX
  8
0
 10
28.2657
 20
8.0109
 30
0.0
 40
0
 41
0
  0
VERTEX
  8
0
 10
28.3371
 20
7.67051
 30
0.0
 40
0
 41
0
  0
VERTEX
  8
0
 10
28.4289
 20
7.33393
 30
0.0
 40
0
 41
0
  0
VERTEX
  8
0
 10
28.541
 20
7.0019
 30
0.0
 40
0
 41
0
  0
VERTEX
  8
0
 10
28.6735
 20
6.67551
 30
0.0
 40
0
 41
0
  0
VERTEX
  8
0
 10
28.7858
 20
6.43431
 30
0.0
 40
0
 41
0
  0
VERTEX
  8
0
 10
28.8265
 20
6.35553
 30
0.0
 40
0
 41
0
  0
VERTEX
  8
0
 10
28.8671
 20
6.27681
 30
0.0
 40
0
 41
0
  0
VERTEX
  8
0
 10
28.9985
 20
6.04542
 30
0.0
 40
0
 41
0
  0
VERTEX
  8
0
 10
29.1875
 20
5.74815
 30
0.0
 40
0
 41
0
  0
VERTEX
  8
0
 10
29.3929
 20
5.46425
 30
0.0
 40
0
 41
0
  0
VERTEX
  8
0
 10
29.614
 20
5.19428
 30
0.0
 40
0
 41
0
  0
VERTEX
  8
0
 10
29.85
 20
4.93875
 30
0.0
 40
0
 41
0
  0
VERTEX
  8
0
 10
30.0999
 20
4.69824
 30
0.0
 40
0
 41
0
  0
VERTEX
  8
0
 10
30.3632
 20
4.47325
 30
0.0
 40
0
 41
0
  0
VERTEX
  8
0
 10
30.6392
 20
4.26438
 30
0.0
 40
0
 41
0
  0
VERTEX
  8
0
 10
30.9268
 20
4.0721
 30
0.0
 40
0
 41
0
  0
VERTEX
  8
0
 10
31.2257
 20
3.89697
 30
0.0
 40
0
 41
0
  0
VERTEX
  8
0
 10
31.5347
 20
3.73953
 30
0.0
 40
0
 41
0
  0
VERTEX
  8
0
 10
31.8535
 20
3.60032
 30
0.0
 40
0
 41
0
  0
VERTEX
  8
0
 10
32.181
 20
3.47993
 30
0.0
 40
0
 41
0
  0
VERTEX
  8
0
 10
32.5164
 20
3.37875
 30
0.0
 40
0
 41
0
  0
VERTEX
  8
0
 10
32.8593
 20
3.29747
 30
0.0
 40
0
 41
0
  0
VERTEX
  8
0
 10
33.121
 20
3.24914
 30
0.0
 40
0
 41
0
  0
VERTEX
  8
0
 10
33.2086
 20
3.23654
 30
0.0
 40
0
 41
0
  0
VERTEX
  8
0
 10
42.9682
 20
3.23654
 30
0.0
 40
0
 41
0
  0
VERTEX
  8
0
 10
42.9682
 20
1.10476
 30
0.0
 40
0
 41
0
  0
VERTEX
  8
0
 10
27.1739
 20
1.10476
 30
0.0
 40
0
 41
0
  0
VERTEX
  8
0
 10
27.1739
 20
0.00472006
 30
0.0
 40
0
 41
0
  0
VERTEX
  8
0
 10
7
 20
0.00472006
 30
0.0
 40
0
 41
0
  0
VERTEX
  8
0
 10
7
 20
1.10476
 30
0.0
 40
0
 41
0
  0
VERTEX
  8
0
 10
0
 20
1.10476
 30
0.0
 40
0
 41
0
  0
VERTEX
  8
0
 10
0
 20
44.4093
 30
0.0
 40
0
 41
0
  0
VERTEX
  8
0
 10
7
 20
44.4093
 30
0.0
 40
0
 41
0
  0
VERTEX
  8
0
 10
7
 20
45.5094
 30
0.0
 40
0
 41
0
  0
VERTEX
  8
0
 10
27.1739
 20
45.5094
 30
0.0
 40
0
 41
0
  0
VERTEX
  8
0
 10
27.1739
 20
44.4093
 30
0.0
 40
0
 41
0
  0
VERTEX
  8
0
 10
42.9682
 20
44.4093
 30
0.0
 40
0
 41
0
  0
VERTEX
  8
0
 10
42.9682
 20
42.2775
 30
0.0
 40
0
 41
0
  0
VERTEX
  8
0
 10
33.2086
 20
42.2775
 30
0.0
 40
0
 41
0
  0
VERTEX
  8
0
 10
33.121
 20
42.265
 30
0.0
 40
0
 41
0
  0
VERTEX
  8
0
 10
32.8593
 20
42.2167
 30
0.0
 40
0
 41
0
  0
VERTEX
  8
0
 10
32.5164
 20
42.1354
 30
0.0
 40
0
 41
0
  0
VERTEX
  8
0
 10
32.181
 20
42.0342
 30
0.0
 40
0
 41
0
  0
VERTEX
  8
0
 10
31.8535
 20
41.9139
 30
0.0
 40
0
 41
0
  0
VERTEX
  8
0
 10
31.5347
 20
41.7746
 30
0.0
 40
0
 41
0
  0
VERTEX
  8
0
 10
31.2257
 20
41.6172
 30
0.0
 40
0
 41
0
  0
VERTEX
  8
0
 10
30.9268
 20
41.4421
 30
0.0
 40
0
 41
0
  0
VERTEX
  8
0
 10
30.6392
 20
41.2497
 30
0.0
 40
0
 41
0
  0
VERTEX
  8
0
 10
30.3632
 20
41.041
 30
0.0
 40
0
 41
0
  0
VERTEX
  8
0
 10
30.0999
 20
40.816
 30
0.0
 40
0
 41
0
  0
VERTEX
  8
0
 10
29.85
 20
40.5754
 30
0.0
 40
0
 41
0
  0
VERTEX
  8
0
 10
29.614
 20
40.3199
 30
0.0
 40
0
 41
0
  0
VERTEX
  8
0
 10
29.3929
 20
40.0499
 30
0.0
 40
0
 41
0
  0
VERTEX
  8
0
 10
29.1875
 20
39.766
 30
0.0
 40
0
 41
0
  0
VERTEX
  8
0
 10
28.9985
 20
39.4688
 30
0.0
 40
0
 41
0
  0
VERTEX
  8
0
 10
28.8671
 20
39.2374
 30
0.0
 40
0
 41
0
  0
VERTEX
  8
0
 10
28.8265
 20
39.1586
 30
0.0
 40
0
 41
0
  0
VERTEX
  8
0
 10
28.7858
 20
39.0799
 30
0.0
 40
0
 41
0
  0
VERTEX
  8
0
 10
28.6735
 20
38.8386
 30
0.0
 40
0
 41
0
  0
VERTEX
  8
0
 10
28.541
 20
38.5122
 30
0.0
 40
0
 41
0
  0
VERTEX
  8
0
 10
28.4289
 20
38.1803
 30
0.0
 40
0
 41
0
  0
VERTEX
  8
0
 10
28.3371
 20
37.8436
 30
0.0
 40
0
 41
0
  0
VERTEX
  8
0
 10
28.2657
 20
37.5032
 30
0.0
 40
0
 41
0
  0
VERTEX
  8
0
 10
28.2147
 20
37.1601
 30
0.0
 40
0
 41
0
  0
VERTEX
  8
0
 10
28.184
 20
36.8151
 30
0.0
 40
0
 41
0
  0
VERTEX
  8
0
 10
28.1739
 20
36.4693
 30
0.0
 40
0
 41
0
  0
VERTEX
  8
0
 10
28.184
 20
36.1233
 30
0.0
 40
0
 41
0
  0
VERTEX
  8
0
 10
28.2147
 20
35.7783
 30
0.0
 40
0
 41
0
  0
VERTEX
  8
0
 10
28.2657
 20
35.4353
 30
0.0
 40
0
 41
0
  0
VERTEX
  8
0
 10
28.3371
 20
35.0949
 30
0.0
 40
0
 41
0
  0
VERTEX
  8
0
 10
28.4289
 20
34.7582
 30
0.0
 40
0
 41
0
  0
VERTEX
  8
0
 10
28.541
 20
34.4262
 30
0.0
 40
0
 41
0
  0
VERTEX
  8
0
 10
28.6735
 20
34.0999
 30
0.0
 40
0
 41
0
  0
VERTEX
  8
0
 10
28.7858
 20
33.8586
 30
0.0
 40
0
 41
0
  0
VERTEX
  8
0
 10
28.8265
 20
33.7799
 30
0.0
 40
0
 41
0
  0
VERTEX
  8
0
 10
28.8671
 20
33.7011
 30
0.0
 40
0
 41
0
  0
VERTEX
  8
0
 10
28.9985
 20
33.4697
 30
0.0
 40
0
 41
0
  0
VERTEX
  8
0
 10
29.1875
 20
33.1724
 30
0.0
 40
0
 41
0
  0
VERTEX
  8
0
 10
29.3929
 20
32.8885
 30
0.0
 40
0
 41
0
  0
VERTEX
  8
0
 10
29.614
 20
32.6186
 30
0.0
 40
0
 41
0
  0
VERTEX
  8
0
 10
29.85
 20
32.3631
 30
0.0
 40
0
 41
0
  0
VERTEX
  8
0
 10
30.0999
 20
32.1225
 30
0.0
 40
0
 41
0
  0
VERTEX
  8
0
 10
30.3632
 20
31.8976
 30
0.0
 40
0
 41
0
  0
VERTEX
  8
0
 10
30.6392
 20
31.6888
 30
0.0
 40
0
 41
0
  0
VERTEX
  8
0
 10
30.9268
 20
31.4964
 30
0.0
 40
0
 41
0
  0
VERTEX
  8
0
 10
31.2257
 20
31.3212
 30
0.0
 40
0
 41
0
  0
VERTEX
  8
0
 10
31.5347
 20
31.1639
 30
0.0
 40
0
 41
0
  0
VERTEX
  8
0
 10
31.8535
 20
31.0246
 30
0.0
 40
0
 41
0
  0
VERTEX
  8
0
 10
32.181
 20
30.9042
 30
0.0
 40
0
 41
0
  0
VERTEX
  8
0
 10
32.5164
 20
30.8031
 30
0.0
 40
0
 41
0
  0
VERTEX
  8
0
 10
32.8593
 20
30.7218
 30
0.0
 40
0
 41
0
  0
VERTEX
  8
0
 10
33.121
 20
30.6735
 30
0.0
 40
0
 41
0
  0
VERTEX
  8
0
 10
33.2086
 20
30.6608
 30
0.0
 40
0
 41
0
  0
VERTEX
  8
0
 10
42.9682
 20
30.6608
 30
0.0
 40
0
 41
0
  0
VERTEX
  8
0
 10
42.9682
 20
28.3381
 30
0.0
 40
0
 41
0
  0
VERTEX
  8
0
 10
33.2086
 20
28.3381
 30
0.0
 40
0
 41
0
  0
VERTEX
  8
0
 10
33.121
 20
28.3256
 30
0.0
 40
0
 41
0
  0
VERTEX
  8
0
 10
32.8593
 20
28.2772
 30
0.0
 40
0
 41
0
  0
VERTEX
  8
0
 10
32.5164
 20
28.196
 30
0.0
 40
0
 41
0
  0
VERTEX
  8
0
 10
32.181
 20
28.0949
 30
0.0
 40
0
 41
0
  0
VERTEX
  8
0
 10
31.8535
 20
27.9744
 30
0.0
 40
0
 41
0
  0
VERTEX
  8
0
 10
31.5347
 20
27.8351
 30
0.0
 40
0
 41
0
  0
VERTEX
  8
0
 10
31.2257
 20
27.6778
 30
0.0
 40
0
 41
0
  0
VERTEX
  8
0
 10
30.9268
 20
27.5026
 30
0.0
 40
0
 41
0
  0
VERTEX
  8
0
 10
30.6392
 20
27.3103
 30
0.0
 40
0
 41
0
  0
VERTEX
  8
0
 10
30.3632
 20
27.1014
 30
0.0
 40
0
 41
0
  0
VERTEX
  8
0
 10
30.0999
 20
26.8765
 30
0.0
 40
0
 41
0
  0
VERTEX
  8
0
 10
29.85
 20
26.636
 30
0.0
 40
0
 41
0
  0
VERTEX
  8
0
 10
29.614
 20
26.3804
 30
0.0
 40
0
 41
0
  0
VERTEX
  8
0
 10
29.3929
 20
26.1106
 30
0.0
 40
0
 41
0
  0
VERTEX
  8
0
 10
29.1875
 20
25.8267
 30
0.0
 40
0
 41
0
  0
VERTEX
  8
0
 10
28.9985
 20
25.5293
 30
0.0
 40
0
 41
0
  0
VERTEX
  8
0
 10
28.8671
 20
25.2979
 30
0.0
 40
0
 41
0
  0
VERTEX
  8
0
 10
28.8265
 20
25.2192
 30
0.0
 40
0
 41
0
  0
VERTEX
  8
0
 10
28.7858
 20
25.1404
 30
0.0
 40
0
 41
0
  0
VERTEX
  8
0
 10
28.6735
 20
24.8993
 30
0.0
 40
0
 41
0
  0
VERTEX
  8
0
 10
28.541
 20
24.5728
 30
0.0
 40
0
 41
0
  0
VERTEX
  8
0
 10
28.4289
 20
24.2408
 30
0.0
 40
0
 41
0
  0
VERTEX
  8
0
 10
28.3371
 20
23.9042
 30
0.0
 40
0
 41
0
  0
VERTEX
  8
0
 10
28.2657
 20
23.5639
 30
0.0
 40
0
 41
0
  0
VERTEX
  8
0
 10
28.2147
 20
23.2207
 30
0.0
 40
0
 41
0
  0
VERTEX
  8
0
 10
28.184
 20
22.8757
 30
0.0
 40
0
 41
0
  0
VERTEX
  8
0
 10
28.1739
 20
22.5297
 30
0.0
 40
0
 41
0
  0
VERTEX
  8
0
 10
28.184
 20
22.1839
 30
0.0
 40
0
 41
0
  0
VERTEX
  8
0
 10
28.2147
 20
21.8389
 30
0.0
 40
0
 41
0
  0
VERTEX
  8
0
 10
28.2657
 20
21.4958
 30
0.0
 40
0
 41
0
  0
VERTEX
  8
0
 10
28.3371
 20
21.1554
 30
0.0
 40
0
 41
0
  0
VERTEX
  8
0
 10
28.4289
 20
20.8187
 30
0.0
 40
0
 41
0
  0
VERTEX
  8
0
 10
28.541
 20
20.4868
 30
0.0
 40
0
 41
0
  0
VERTEX
  8
0
 10
28.6735
 20
20.1604
 30
0.0
 40
0
 41
0
  0
VERTEX
  8
0
 10
28.7858
 20
19.9192
 30
0.0
 40
0
 41
0
  0
VERTEX
  8
0
 10
28.8265
 20
19.8404
 30
0.0
 40
0
 41
0
  0
VERTEX
  8
0
 10
28.8671
 20
19.7617
 30
0.0
 40
0
 41
0
  0
VERTEX
  8
0
 10
28.9985
 20
19.5303
 30
0.0
 40
0
 41
0
  0
VERTEX
  8
0
 10
29.1875
 20
19.2331
 30
0.0
 40
0
 41
0
  0
VERTEX
  8
0
 10
29.3929
 20
18.9492
 30
0.0
 40
0
 41
0
  0
VERTEX
  8
0
 10
29.614
 20
18.6792
 30
0.0
 40
0
 41
0
  0
VERTEX
  8
0
 10
29.85
 20
18.4236
 30
0.0
 40
0
 41
0
  0
VERTEX
  8
0
 10
30.0999
 20
18.1831
 30
0.0
 40
0
 41
0
  0
VERTEX
  8
0
 10
30.3632
 20
17.9582
 30
0.0
 40
0
 41
0
  0
VERTEX
  8
0
 10
30.6392
 20
17.7493
 30
0.0
 40
0
 41
0
  0
VERTEX
  8
0
 10
30.9268
 20
17.5569
 30
0.0
 40
0
 41
0
  0
VERTEX
  8
0
 10
31.2257
 20
17.3818
 30
0.0
 40
0
 41
0
  0
VERTEX
  8
0
 10
31.5347
 20
17.2244
 30
0.0
 40
0
 41
0
  0
VERTEX
  8
0
 10
31.8535
 20
17.0853
 30
0.0
 40
0
 41
0
  0
VERTEX
  8
0
 10
32.181
 20
16.9647
 30
0.0
 40
0
 41
0
  0
VERTEX
  8
0
 10
32.5164
 20
16.8636
 30
0.0
 40
0
 41
0
  0
VERTEX
  8
0
 10
32.8593
 20
16.7824
 30
0.0
 40
0
 41
0
  0
VERTEX
  8
0
 10
33.121
 20
16.734
 30
0.0
 40
0
 41
0
  0
VERTEX
  8
0
 10
33.2086
 20
16.7215
 30
0.0
 40
0
 41
0
  0
VERTEX
  8
0
 10
42.9682
 20
16.7215
 30
0.0
 40
0
 41
0
  0
VERTEX
  8
0
 10
42.9682
 20
14.8532
 30
0.0
 40
0
 41
0
  0
VERTEX
  8
0
 10
33.2086
 20
14.8532
 30
0.0
 40
0
 41
0
  0
SEQEND
 8
0
  0
POLYLINE
  8
0
 62
     0
 66
     1
 10
0
 20
0
 30
0.0
 70
     1
 40
0
 41
0
  0
VERTEX
  8
0
 10
24.8592
 20
15.8597
 30
0.0
 40
0
 41
0
  0
VERTEX
  8
0
 10
25.9092
 20
15.8597
 30
0.0
 40
0
 41
0
  0
VERTEX
  8
0
 10
25.9092
 20
5.90978
 30
0.0
 40
0
 41
0
  0
VERTEX
  8
0
 10
24.8592
 20
5.90978
 30
0.0
 40
0
 41
0
  0
VERTEX
  8
0
 10
24.8592
 20
15.8597
 30
0.0
 40
0
 41
0
  0
SEQEND
 8
0
  0
POLYLINE
  8
0
 62
     0
 66
     1
 10
0
 20
0
 30
0.0
 70
     1
 40
0
 41
0
  0
VERTEX
  8
0
 10
24.8592
 20
39.6043
 30
0.0
 40
0
 41
0
  0
VERTEX
  8
0
 10
25.9092
 20
39.6043
 30
0.0
 40
0
 41
0
  0
VERTEX
  8
0
 10
25.9092
 20
29.6543
 30
0.0
 40
0
 41
0
  0
VERTEX
  8
0
 10
24.8592
 20
29.6543
 30
0.0
 40
0
 41
0
  0
VERTEX
  8
0
 10
24.8592
 20
39.6043
 30
0.0
 40
0
 41
0
  0
SEQEND
 8
0
  0
POLYLINE
  8
0
 62
     0
 66
     1
 10
0
 20
0
 30
0.0
 70
     1
 40
0
 41
0
  0
VERTEX
  8
0
 10
15.05
 20
9.55886
 30
0.0
 40
0
 41
0
  0
VERTEX
  8
0
 10
22.2728
 20
9.55886
 30
0.0
 40
0
 41
0
  0
VERTEX
  8
0
 10
22.2728
 20
4.15429
 30
0.0
 40
0
 41
0
  0
VERTEX
  8
0
 10
15.05
 20
4.15429
 30
0.0
 40
0
 41
0
  0
VERTEX
  8
0
 10
15.05
 20
9.55886
 30
0.0
 40
0
 41
0
  0
SEQEND
 8
0
  0
POLYLINE
  8
0
 62
     0
 66
     1
 10
0
 20
0
 30
0.0
 70
     1
 40
0
 41
0
  0
VERTEX
  8
0
 10
15.05
 20
41.3599
 30
0.0
 40
0
 41
0
  0
VERTEX
  8
0
 10
22.2728
 20
41.3599
 30
0.0
 40
0
 41
0
  0
VERTEX
  8
0
 10
22.2728
 20
35.9553
 30
0.0
 40
0
 41
0
  0
VERTEX
  8
0
 10
15.05
 20
35.9553
 30
0.0
 40
0
 41
0
  0
VERTEX
  8
0
 10
15.05
 20
41.3599
 30
0.0
 40
0
 41
0
  0
SEQEND
 8
0
  0
POLYLINE
  8
0
 62
     0
 66
     1
 10
0
 20
0
 30
0.0
 70
     1
 40
0
 41
0
  0
VERTEX
  8
0
 10
15.05
 20
30.7594
 30
0.0
 40
0
 41
0
  0
VERTEX
  8
0
 10
22.2728
 20
30.7594
 30
0.0
 40
0
 41
0
  0
VERTEX
  8
0
 10
22.2728
 20
25.3549
 30
0.0
 40
0
 41
0
  0
VERTEX
  8
0
 10
15.05
 20
25.3549
 30
0.0
 40
0
 41
0
  0
VERTEX
  8
0
 10
15.05
 20
30.7594
 30
0.0
 40
0
 41
0
  0
SEQEND
 8
0
  0
POLYLINE
  8
0
 62
     0
 66
     1
 10
0
 20
0
 30
0.0
 70
     1
 40
0
 41
0
  0
VERTEX
  8
0
 10
15.05
 20
20.1592
 30
0.0
 40
0
 41
0
  0
VERTEX
  8
0
 10
22.2728
 20
20.1592
 30
0.0
 40
0
 41
0
  0
VERTEX
  8
0
 10
22.2728
 20
14.7546
 30
0.0
 40
0
 41
0
  0
VERTEX
  8
0
 10
15.05
 20
14.7546
 30
0.0
 40
0
 41
0
  0
VERTEX
  8
0
 10
15.05
 20
20.1592
 30
0.0
 40
0
 41
0
  0
SEQEND
 8
0
  0
POLYLINE
  8
0
 62
     0
 66
     1
 10
0
 20
0
 30
0.0
 70
     1
 40
0
 41
0
  0
VERTEX
  8
0
 10
3.23182
 20
36.909
 30
0.0
 40
0
 41
0
  0
VERTEX
  8
0
 10
8.63639
 20
36.909
 30
0.0
 40
0
 41
0
  0
VERTEX
  8
0
 10
8.63639
 20
32.4135
 30
0.0
 40
0
 41
0
  0
VERTEX
  8
0
 10
3.23182
 20
32.4135
 30
0.0
 40
0
 41
0
  0
VERTEX
  8
0
 10
3.23182
 20
36.909
 30
0.0
 40
0
 41
0
  0
SEQEND
 8
0
  0
POLYLINE
  8
0
 62
     0
 66
     1
 10
0
 20
0
 30
0.0
 70
     1
 40
0
 41
0
  0
VERTEX
  8
0
 10
3.23182
 20
25.0047
 30
0.0
 40
0
 41
0
  0
VERTEX
  8
0
 10
8.63639
 20
25.0047
 30
0.0
 40
0
 41
0
  0
VERTEX
  8
0
 10
8.63639
 20
20.5093
 30
0.0
 40
0
 41
0
  0
VERTEX
  8
0
 10
3.23182
 20
20.5093
 30
0.0
 40
0
 41
0
  0
VERTEX
  8
0
 10
3.23182
 20
25.0047
 30
0.0
 40
0
 41
0
  0
SEQEND
 8
0
  0
POLYLINE
  8
0
 62
     0
 66
     1
 10
0
 20
0
 30
0.0
 70
     1
 40
0
 41
0
  0
VERTEX
  8
0
 10
3.23182
 20
13.1006
 30
0.0
 40
0
 41
0
  0
VERTEX
  8
0
 10
8.63639
 20
13.1006
 30
0.0
 40
0
 41
0
  0
VERTEX
  8
0
 10
8.63639
 20
8.60514
 30
0.0
 40
0
 41
0
  0
VERTEX
  8
0
 10
3.23182
 20
8.60514
 30
0.0
 40
0
 41
0
  0
VERTEX
  8
0
 10
3.23182
 20
13.1006
 30
0.0
 40
0
 41
0
  0
SEQEND
 8
0
  0
POLYLINE
  8
0
 62
     0
 66
     1
 10
0
 20
0
 30
0.0
 70
     1
 40
0
 41
0
  0
VERTEX
  8
0
 10
41.5956
 20
52.5904
 30
0.0
 40
0
 41
0
  0
VERTEX
  8
0
 10
41.5956
 20
59.5904
 30
0.0
 40
0
 41
0
  0
VERTEX
  8
0
 10
40.4956
 20
59.5904
 30
0.0
 40
0
 41
0
  0
VERTEX
  8
0
 10
40.4956
 20
87.4587
 30
0.0
 40
0
 41
0
  0
VERTEX
  8
0
 10
41.5956
 20
87.4587
 30
0.0
 40
0
 41
0
  0
VERTEX
  8
0
 10
41.5956
 20
95.5588
 30
0.0
 40
0
 41
0
  0
VERTEX
  8
0
 10
44.8469
 20
95.5588
 30
0.0
 40
0
 41
0
  0
VERTEX
  8
0
 10
44.8469
 20
82.816
 30
0.0
 40
0
 41
0
  0
VERTEX
  8
0
 10
48.4333
 20
82.816
 30
0.0
 40
0
 41
0
  0
VERTEX
  8
0
 10
48.4333
 20
95.5588
 30
0.0
 40
0
 41
0
  0
VERTEX
  8
0
 10
53.4833
 20
95.5588
 30
0.0
 40
0
 41
0
  0
VERTEX
  8
0
 10
53.4833
 20
94.4587
 30
0.0
 40
0
 41
0
  0
VERTEX
  8
0
 10
72.8501
 20
94.4587
 30
0.0
 40
0
 41
0
  0
VERTEX
  8
0
 10
72.8501
 20
95.5588
 30
0.0
 40
0
 41
0
  0
VERTEX
  8
0
 10
80.9001
 20
95.5588
 30
0.0
 40
0
 41
0
  0
VERTEX
  8
0
 10
80.9001
 20
94.4587
 30
0.0
 40
0
 41
0
  0
VERTEX
  8
0
 10
84.9001
 20
94.4587
 30
0.0
 40
0
 41
0
  0
VERTEX
  8
0
 10
84.9001
 20
87.4587
 30
0.0
 40
0
 41
0
  0
VERTEX
  8
0
 10
86.0001
 20
87.4587
 30
0.0
 40
0
 41
0
  0
VERTEX
  8
0
 10
86.0001
 20
59.5904
 30
0.0
 40
0
 41
0
  0
VERTEX
  8
0
 10
84.9001
 20
59.5904
 30
0.0
 40
0
 41
0
  0
VERTEX
  8
0
 10
84.9001
 20
52.5904
 30
0.0
 40
0
 41
0
  0
VERTEX
  8
0
 10
41.5956
 20
52.5904
 30
0.0
 40
0
 41
0
  0
SEQEND
 8
0
  0
POLYLINE
  8
0
 62
     0
 66
     1
 10
0
 20
0
 30
0.0
 70
     1
 40
0
 41
0
  0
VERTEX
  8
0
 10
81.4501
 20
91.2269
 30
0.0
 40
0
 41
0
  0
VERTEX
  8
0
 10
76.0457
 20
91.2269
 30
0.0
 40
0
 41
0
  0
VERTEX
  8
0
 10
76.0457
 20
85.7924
 30
0.0
 40
0
 41
0
  0
VERTEX
  8
0
 10
76.0104
 20
85.7083
 30
0.0
 40
0
 41
0
  0
VERTEX
  8
0
 10
75.926
 20
85.4478
 30
0.0
 40
0
 41
0
  0
VERTEX
  8
0
 10
75.8507
 20
85.0953
 30
0.0
 40
0
 41
0
  0
VERTEX
  8
0
 10
75.8193
 20
84.7386
 30
0.0
 40
0
 41
0
  0
VERTEX
  8
0
 10
75.8317
 20
84.3822
 30
0.0
 40
0
 41
0
  0
VERTEX
  8
0
 10
75.8871
 20
84.0297
 30
0.0
 40
0
 41
0
  0
VERTEX
  8
0
 10
75.9854
 20
83.6856
 30
0.0
 40
0
 41
0
  0
VERTEX
  8
0
 10
76.1261
 20
83.3536
 30
0.0
 40
0
 41
0
  0
VERTEX
  8
0
 10
76.2585
 20
83.1139
 30
0.0
 40
0
 41
0
  0
VERTEX
  8
0
 10
76.309
 20
83.0381
 30
0.0
 40
0
 41
0
  0
VERTEX
  8
0
 10
76.3594
 20
82.9624
 30
0.0
 40
0
 41
0
  0
VERTEX
  8
0
 10
76.5294
 20
82.7475
 30
0.0
 40
0
 41
0
  0
VERTEX
  8
0
 10
76.7813
 20
82.4896
 30
0.0
 40
0
 41
0
  0
VERTEX
  8
0
 10
77.0608
 20
82.266
 30
0.0
 40
0
 41
0
  0
VERTEX
  8
0
 10
77.3644
 20
82.0786
 30
0.0
 40
0
 41
0
  0
VERTEX
  8
0
 10
77.6885
 20
81.9296
 30
0.0
 40
0
 41
0
  0
VERTEX
  8
0
 10
78.0296
 20
81.8208
 30
0.0
 40
0
 41
0
  0
VERTEX
  8
0
 10
78.3839
 20
81.754
 30
0.0
 40
0
 41
0
  0
VERTEX
  8
0
 10
78.6568
 20
81.7314
 30
0.0
 40
0
 41
0
  0
VERTEX
  8
0
 10
78.7479
 20
81.7314
 30
0.0
 40
0
 41
0
  0
VERTEX
  8
0
 10
78.8389
 20
81.7314
 30
0.0
 40
0
 41
0
  0
VERTEX
  8
0
 10
79.1118
 20
81.754
 30
0.0
 40
0
 41
0
  0
VERTEX
  8
0
 10
79.4662
 20
81.8208
 30
0.0
 40
0
 41
0
  0
VERTEX
  8
0
 10
79.8072
 20
81.9296
 30
0.0
 40
0
 41
0
  0
VERTEX
  8
0
 10
80.1313
 20
82.0786
 30
0.0
 40
0
 41
0
  0
VERTEX
  8
0
 10
80.435
 20
82.266
 30
0.0
 40
0
 41
0
  0
VERTEX
  8
0
 10
80.7144
 20
82.4896
 30
0.0
 40
0
 41
0
  0
VERTEX
  8
0
 10
80.9662
 20
82.7475
 30
0.0
 40
0
 41
0
  0
VERTEX
  8
0
 10
81.1364
 20
82.9624
 30
0.0
 40
0
 41
0
  0
VERTEX
  8
0
 10
81.1868
 20
83.0381
 30
0.0
 40
0
 41
0
  0
VERTEX
  8
0
 10
81.2372
 20
83.1139
 30
0.0
 40
0
 41
0
  0
VERTEX
  8
0
 10
81.3696
 20
83.3536
 30
0.0
 40
0
 41
0
  0
VERTEX
  8
0
 10
81.5103
 20
83.6856
 30
0.0
 40
0
 41
0
  0
VERTEX
  8
0
 10
81.6086
 20
84.0297
 30
0.0
 40
0
 41
0
  0
VERTEX
  8
0
 10
81.6642
 20
84.3822
 30
0.0
 40
0
 41
0
  0
VERTEX
  8
0
 10
81.6764
 20
84.7386
 30
0.0
 40
0
 41
0
  0
VERTEX
  8
0
 10
81.6451
 20
85.0953
 30
0.0
 40
0
 41
0
  0
VERTEX
  8
0
 10
81.5699
 20
85.4478
 30
0.0
 40
0
 41
0
  0
VERTEX
  8
0
 10
81.4853
 20
85.7083
 30
0.0
 40
0
 41
0
  0
VERTEX
  8
0
 10
81.4501
 20
85.7924
 30
0.0
 40
0
 41
0
  0
VERTEX
  8
0
 10
81.4501
 20
91.2269
 30
0.0
 40
0
 41
0
  0
SEQEND
 8
0
  0
POLYLINE
  8
0
 62
     0
 66
     1
 10
0
 20
0
 30
0.0
 70
     1
 40
0
 41
0
  0
VERTEX
  8
0
 10
54.0344
 20
91.2269
 30
0.0
 40
0
 41
0
  0
VERTEX
  8
0
 10
59.439
 20
91.2269
 30
0.0
 40
0
 41
0
  0
VERTEX
  8
0
 10
59.439
 20
85.7924
 30
0.0
 40
0
 41
0
  0
VERTEX
  8
0
 10
59.474
 20
85.7083
 30
0.0
 40
0
 41
0
  0
VERTEX
  8
0
 10
59.5586
 20
85.4478
 30
0.0
 40
0
 41
0
  0
VERTEX
  8
0
 10
59.6339
 20
85.0953
 30
0.0
 40
0
 41
0
  0
VERTEX
  8
0
 10
59.6651
 20
84.7386
 30
0.0
 40
0
 41
0
  0
VERTEX
  8
0
 10
59.6529
 20
84.3822
 30
0.0
 40
0
 41
0
  0
VERTEX
  8
0
 10
59.5975
 20
84.0297
 30
0.0
 40
0
 41
0
  0
VERTEX
  8
0
 10
59.4992
 20
83.6856
 30
0.0
 40
0
 41
0
  0
VERTEX
  8
0
 10
59.3583
 20
83.3536
 30
0.0
 40
0
 41
0
  0
VERTEX
  8
0
 10
59.226
 20
83.1139
 30
0.0
 40
0
 41
0
  0
VERTEX
  8
0
 10
59.1756
 20
83.0381
 30
0.0
 40
0
 41
0
  0
VERTEX
  8
0
 10
59.1253
 20
82.9624
 30
0.0
 40
0
 41
0
  0
VERTEX
  8
0
 10
58.9551
 20
82.7475
 30
0.0
 40
0
 41
0
  0
VERTEX
  8
0
 10
58.7032
 20
82.4896
 30
0.0
 40
0
 41
0
  0
VERTEX
  8
0
 10
58.4237
 20
82.266
 30
0.0
 40
0
 41
0
  0
VERTEX
  8
0
 10
58.1201
 20
82.0786
 30
0.0
 40
0
 41
0
  0
VERTEX
  8
0
 10
57.796
 20
81.9296
 30
0.0
 40
0
 41
0
  0
VERTEX
  8
0
 10
57.455
 20
81.8208
 30
0.0
 40
0
 41
0
  0
VERTEX
  8
0
 10
57.1007
 20
81.754
 30
0.0
 40
0
 41
0
  0
VERTEX
  8
0
 10
56.8276
 20
81.7314
 30
0.0
 40
0
 41
0
  0
VERTEX
  8
0
 10
56.7367
 20
81.7314
 30
0.0
 40
0
 41
0
  0
VERTEX
  8
0
 10
56.6457
 20
81.7314
 30
0.0
 40
0
 41
0
  0
VERTEX
  8
0
 10
56.3726
 20
81.754
 30
0.0
 40
0
 41
0
  0
VERTEX
  8
0
 10
56.0183
 20
81.8208
 30
0.0
 40
0
 41
0
  0
VERTEX
  8
0
 10
55.6774
 20
81.9296
 30
0.0
 40
0
 41
0
  0
VERTEX
  8
0
 10
55.3532
 20
82.0786
 30
0.0
 40
0
 41
0
  0
VERTEX
  8
0
 10
55.0496
 20
82.266
 30
0.0
 40
0
 41
0
  0
VERTEX
  8
0
 10
54.7701
 20
82.4896
 30
0.0
 40
0
 41
0
  0
VERTEX
  8
0
 10
54.5183
 20
82.7475
 30
0.0
 40
0
 41
0
  0
VERTEX
  8
0
 10
54.3482
 20
82.9624
 30
0.0
 40
0
 41
0
  0
VERTEX
  8
0
 10
54.2978
 20
83.0381
 30
0.0
 40
0
 41
0
  0
VERTEX
  8
0
 10
54.2474
 20
83.1139
 30
0.0
 40
0
 41
0
  0
VERTEX
  8
0
 10
54.115
 20
83.3536
 30
0.0
 40
0
 41
0
  0
VERTEX
  8
0
 10
53.9742
 20
83.6856
 30
0.0
 40
0
 41
0
  0
VERTEX
  8
0
 10
53.876
 20
84.0297
 30
0.0
 40
0
 41
0
  0
VERTEX
  8
0
 10
53.8204
 20
84.3822
 30
0.0
 40
0
 41
0
  0
VERTEX
  8
0
 10
53.8082
 20
84.7386
 30
0.0
 40
0
 41
0
  0
VERTEX
  8
0
 10
53.8394
 20
85.0953
 30
0.0
 40
0
 41
0
  0
VERTEX
  8
0
 10
53.9147
 20
85.4478
 30
0.0
 40
0
 41
0
  0
VERTEX
  8
0
 10
53.9993
 20
85.7083
 30
0.0
 40
0
 41
0
  0
VERTEX
  8
0
 10
54.0344
 20
85.7924
 30
0.0
 40
0
 41
0
  0
VERTEX
  8
0
 10
54.0344
 20
91.2269
 30
0.0
 40
0
 41
0
  0
SEQEND
 8
0
  0
POLYLINE
  8
0
 62
     0
 66
     1
 10
0
 20
0
 30
0.0
 70
     1
 40
0
 41
0
  0
VERTEX
  8
0
 10
70.4446
 20
91.2269
 30
0.0
 40
0
 41
0
  0
VERTEX
  8
0
 10
65.04
 20
91.2269
 30
0.0
 40
0
 41
0
  0
VERTEX
  8
0
 10
65.04
 20
85.7924
 30
0.0
 40
0
 41
0
  0
VERTEX
  8
0
 10
65.0049
 20
85.7083
 30
0.0
 40
0
 41
0
  0
VERTEX
  8
0
 10
64.9204
 20
85.4478
 30
0.0
 40
0
 41
0
  0
VERTEX
  8
0
 10
64.845
 20
85.0953
 30
0.0
 40
0
 41
0
  0
VERTEX
  8
0
 10
64.8137
 20
84.7386
 30
0.0
 40
0
 41
0
  0
VERTEX
  8
0
 10
64.826
 20
84.3822
 30
0.0
 40
0
 41
0
  0
VERTEX
  8
0
 10
64.8815
 20
84.0297
 30
0.0
 40
0
 41
0
  0
VERTEX
  8
0
 10
64.9799
 20
83.6856
 30
0.0
 40
0
 41
0
  0
VERTEX
  8
0
 10
65.1206
 20
83.3536
 30
0.0
 40
0
 41
0
  0
VERTEX
  8
0
 10
65.2529
 20
83.1139
 30
0.0
 40
0
 41
0
  0
VERTEX
  8
0
 10
65.3033
 20
83.0381
 30
0.0
 40
0
 41
0
  0
VERTEX
  8
0
 10
65.3538
 20
82.9624
 30
0.0
 40
0
 41
0
  0
VERTEX
  8
0
 10
65.5239
 20
82.7475
 30
0.0
 40
0
 41
0
  0
VERTEX
  8
0
 10
65.7757
 20
82.4896
 30
0.0
 40
0
 41
0
  0
VERTEX
  8
0
 10
66.0553
 20
82.266
 30
0.0
 40
0
 41
0
  0
VERTEX
  8
0
 10
66.3589
 20
82.0786
 30
0.0
 40
0
 41
0
  0
VERTEX
  8
0
 10
66.6829
 20
81.9296
 30
0.0
 40
0
 41
0
  0
VERTEX
  8
0
 10
67.024
 20
81.8208
 30
0.0
 40
0
 41
0
  0
VERTEX
  8
0
 10
67.3782
 20
81.754
 30
0.0
 40
0
 41
0
  0
VERTEX
  8
0
 10
67.6513
 20
81.7314
 30
0.0
 40
0
 41
0
  0
VERTEX
  8
0
 10
67.7424
 20
81.7314
 30
0.0
 40
0
 41
0
  0
VERTEX
  8
0
 10
67.8333
 20
81.7314
 30
0.0
 40
0
 41
0
  0
VERTEX
  8
0
 10
68.1062
 20
81.754
 30
0.0
 40
0
 41
0
  0
VERTEX
  8
0
 10
68.4606
 20
81.8208
 30
0.0
 40
0
 41
0
  0
VERTEX
  8
0
 10
68.8015
 20
81.9296
 30
0.0
 40
0
 41
0
  0
VERTEX
  8
0
 10
69.1257
 20
82.0786
 30
0.0
 40
0
 41
0
  0
VERTEX
  8
0
 10
69.4293
 20
82.266
 30
0.0
 40
0
 41
0
  0
VERTEX
  8
0
 10
69.7089
 20
82.4896
 30
0.0
 40
0
 41
0
  0
VERTEX
  8
0
 10
69.9607
 20
82.7475
 30
0.0
 40
0
 41
0
  0
VERTEX
  8
0
 10
70.1308
 20
82.9624
 30
0.0
 40
0
 41
0
  0
VERTEX
  8
0
 10
70.1812
 20
83.0381
 30
0.0
 40
0
 41
0
  0
VERTEX
  8
0
 10
70.2317
 20
83.1139
 30
0.0
 40
0
 41
0
  0
VERTEX
  8
0
 10
70.364
 20
83.3536
 30
0.0
 40
0
 41
0
  0
VERTEX
  8
0
 10
70.5047
 20
83.6856
 30
0.0
 40
0
 41
0
  0
VERTEX
  8
0
 10
70.6031
 20
84.0297
 30
0.0
 40
0
 41
0
  0
VERTEX
  8
0
 10
70.6585
 20
84.3822
 30
0.0
 40
0
 41
0
  0
VERTEX
  8
0
 10
70.6708
 20
84.7386
 30
0.0
 40
0
 41
0
  0
VERTEX
  8
0
 10
70.6394
 20
85.0953
 30
0.0
 40
0
 41
0
  0
VERTEX
  8
0
 10
70.5642
 20
85.4478
 30
0.0
 40
0
 41
0
  0
VERTEX
  8
0
 10
70.4797
 20
85.7083
 30
0.0
 40
0
 41
0
  0
VERTEX
  8
0
 10
70.4446
 20
85.7924
 30
0.0
 40
0
 41
0
  0
VERTEX
  8
0
 10
70.4446
 20
91.2269
 30
0.0
 40
0
 41
0
  0
SEQEND
 8
0
  0
POLYLINE
  8
0
 62
     0
 66
     1
 10
0
 20
0
 30
0.0
 70
     1
 40
0
 41
0
  0
VERTEX
  8
0
 10
65.8457
 20
74.8632
 30
0.0
 40
0
 41
0
  0
VERTEX
  8
0
 10
71.2503
 20
74.8632
 30
0.0
 40
0
 41
0
  0
VERTEX
  8
0
 10
71.2503
 20
67.6404
 30
0.0
 40
0
 41
0
  0
VERTEX
  8
0
 10
65.8457
 20
67.6404
 30
0.0
 40
0
 41
0
  0
VERTEX
  8
0
 10
65.8457
 20
74.8632
 30
0.0
 40
0
 41
0
  0
SEQEND
 8
0
  0
POLYLINE
  8
0
 62
     0
 66
     1
 10
0
 20
0
 30
0.0
 70
     1
 40
0
 41
0
  0
VERTEX
  8
0
 10
72.9043
 20
61.2268
 30
0.0
 40
0
 41
0
  0
VERTEX
  8
0
 10
77.3997
 20
61.2268
 30
0.0
 40
0
 41
0
  0
VERTEX
  8
0
 10
77.3997
 20
55.8222
 30
0.0
 40
0
 41
0
  0
VERTEX
  8
0
 10
72.9043
 20
55.8222
 30
0.0
 40
0
 41
0
  0
VERTEX
  8
0
 10
72.9043
 20
61.2268
 30
0.0
 40
0
 41
0
  0
SEQEND
 8
0
  0
POLYLINE
  8
0
 62
     0
 66
     1
 10
0
 20
0
 30
0.0
 70
     1
 40
0
 41
0
  0
VERTEX
  8
0
 10
49.096
 20
61.2268
 30
0.0
 40
0
 41
0
  0
VERTEX
  8
0
 10
53.5914
 20
61.2268
 30
0.0
 40
0
 41
0
  0
VERTEX
  8
0
 10
53.5914
 20
55.8222
 30
0.0
 40
0
 41
0
  0
VERTEX
  8
0
 10
49.096
 20
55.8222
 30
0.0
 40
0
 41
0
  0
VERTEX
  8
0
 10
49.096
 20
61.2268
 30
0.0
 40
0
 41
0
  0
SEQEND
 8
0
  0
POLYLINE
  8
0
 62
     0
 66
     1
 10
0
 20
0
 30
0.0
 70
     1
 40
0
 41
0
  0
VERTEX
  8
0
 10
55.2454
 20
74.8632
 30
0.0
 40
0
 41
0
  0
VERTEX
  8
0
 10
60.65
 20
74.8632
 30
0.0
 40
0
 41
0
  0
VERTEX
  8
0
 10
60.65
 20
67.6404
 30
0.0
 40
0
 41
0
  0
VERTEX
  8
0
 10
55.2454
 20
67.6404
 30
0.0
 40
0
 41
0
  0
VERTEX
  8
0
 10
55.2454
 20
74.8632
 30
0.0
 40
0
 41
0
  0
SEQEND
 8
0
  0
POLYLINE
  8
0
 62
     0
 66
     1
 10
0
 20
0
 30
0.0
 70
     1
 40
0
 41
0
  0
VERTEX
  8
0
 10
61.0001
 20
61.2268
 30
0.0
 40
0
 41
0
  0
VERTEX
  8
0
 10
65.4956
 20
61.2268
 30
0.0
 40
0
 41
0
  0
VERTEX
  8
0
 10
65.4956
 20
55.8222
 30
0.0
 40
0
 41
0
  0
VERTEX
  8
0
 10
61.0001
 20
55.8222
 30
0.0
 40
0
 41
0
  0
VERTEX
  8
0
 10
61.0001
 20
61.2268
 30
0.0
 40
0
 41
0
  0
SEQEND
 8
0
  0
POLYLINE
  8
0
 62
     0
 66
     1
 10
0
 20
0
 30
0.0
 70
     1
 40
0
 41
0
  0
VERTEX
  8
0
 10
76.4461
 20
74.8632
 30
0.0
 40
0
 41
0
  0
VERTEX
  8
0
 10
81.8506
 20
74.8632
 30
0.0
 40
0
 41
0
  0
VERTEX
  8
0
 10
81.8506
 20
67.6404
 30
0.0
 40
0
 41
0
  0
VERTEX
  8
0
 10
76.4461
 20
67.6404
 30
0.0
 40
0
 41
0
  0
VERTEX
  8
0
 10
76.4461
 20
74.8632
 30
0.0
 40
0
 41
0
  0
SEQEND
 8
0
  0
POLYLINE
  8
0
 62
     0
 66
     1
 10
0
 20
0
 30
0.0
 70
     1
 40
0
 41
0
  0
VERTEX
  8
0
 10
44.6451
 20
74.8632
 30
0.0
 40
0
 41
0
  0
VERTEX
  8
0
 10
50.0497
 20
74.8632
 30
0.0
 40
0
 41
0
  0
VERTEX
  8
0
 10
50.0497
 20
67.6404
 30
0.0
 40
0
 41
0
  0
VERTEX
  8
0
 10
44.6451
 20
67.6404
 30
0.0
 40
0
 41
0
  0
VERTEX
  8
0
 10
44.6451
 20
74.8632
 30
0.0
 40
0
 41
0
  0
SEQEND
 8
0
  0
POLYLINE
  8
0
 62
     0
 66
     1
 10
0
 20
0
 30
0.0
 70
     1
 40
0
 41
0
  0
VERTEX
  8
0
 10
46.8588
 20
1.75722
 30
0.0
 40
0
 41
0
  0
VERTEX
  8
0
 10
45.7587
 20
1.75722
 30
0.0
 40
0
 41
0
  0
VERTEX
  8
0
 10
45.7587
 20
2.90722
 30
0.0
 40
0
 41
0
  0
VERTEX
  8
0
 10
46.8588
 20
2.90722
 30
0.0
 40
0
 41
0
  0
VERTEX
  8
0
 10
46.8588
 20
3.67638
 30
0.0
 40
0
 41
0
  0
VERTEX
  8
0
 10
64.0019
 20
9.72694
 30
0.0
 40
0
 41
0
  0
VERTEX
  8
0
 10
82.2451
 20
3.28814
 30
0.0
 40
0
 41
0
  0
VERTEX
  8
0
 10
82.2451
 20
1.75722
 30
0.0
 40
0
 41
0
  0
VERTEX
  8
0
 10
81.1451
 20
1.75722
 30
0.0
 40
0
 41
0
  0
VERTEX
  8
0
 10
81.1451
 20
0.657226
 30
0.0
 40
0
 41
0
  0
VERTEX
  8
0
 10
46.8588
 20
0.657226
 30
0.0
 40
0
 41
0
  0
VERTEX
  8
0
 10
46.8588
 20
1.75722
 30
0.0
 40
0
 41
0
  0
SEQEND
 8
0
  0
POLYLINE
  8
0
 62
     0
 66
     1
 10
0
 20
0
 30
0.0
 70
     1
 40
0
 41
0
  0
VERTEX
  8
0
 10
87.2714
 20
96.8565
 30
0.0
 40
0
 41
0
  0
VERTEX
  8
0
 10
87.2714
 20
106.619
 30
0.0
 40
0
 41
0
  0
VERTEX
  8
0
 10
87.2842
 20
106.739
 30
0.0
 40
0
 41
0
  0
VERTEX
  8
0
 10
87.2974
 20
107.1
 30
0.0
 40
0
 41
0
  0
VERTEX
  8
0
 10
87.2728
 20
107.576
 30
0.0
 40
0
 41
0
  0
VERTEX
  8
0
 10
87.199
 20
108.045
 30
0.0
 40
0
 41
0
  0
VERTEX
  8
0
 10
87.0771
 20
108.502
 30
0.0
 40
0
 41
0
  0
VERTEX
  8
0
 10
86.9083
 20
108.944
 30
0.0
 40
0
 41
0
  0
VERTEX
  8
0
 10
86.6939
 20
109.368
 30
0.0
 40
0
 41
0
  0
VERTEX
  8
0
 10
86.435
 20
109.769
 30
0.0
 40
0
 41
0
  0
VERTEX
  8
0
 10
86.2132
 20
110.054
 30
0.0
 40
0
 41
0
  0
VERTEX
  8
0
 10
86.1329
 20
110.143
 30
0.0
 40
0
 41
0
  0
VERTEX
  8
0
 10
86.0526
 20
110.232
 30
0.0
 40
0
 41
0
  0
VERTEX
  8
0
 10
85.7929
 20
110.483
 30
0.0
 40
0
 41
0
  0
VERTEX
  8
0
 10
85.4221
 20
110.783
 30
0.0
 40
0
 41
0
  0
VERTEX
  8
0
 10
85.024
 20
111.042
 30
0.0
 40
0
 41
0
  0
VERTEX
  8
0
 10
84.6024
 20
111.257
 30
0.0
 40
0
 41
0
  0
VERTEX
  8
0
 10
84.1606
 20
111.427
 30
0.0
 40
0
 41
0
  0
VERTEX
  8
0
 10
83.7024
 20
111.55
 30
0.0
 40
0
 41
0
  0
VERTEX
  8
0
 10
83.2312
 20
111.626
 30
0.0
 40
0
 41
0
  0
VERTEX
  8
0
 10
82.871
 20
111.651
 30
0.0
 40
0
 41
0
  0
VERTEX
  8
0
 10
82.751
 20
111.651
 30
0.0
 40
0
 41
0
  0
VERTEX
  8
0
 10
82.6308
 20
111.651
 30
0.0
 40
0
 41
0
  0
VERTEX
  8
0
 10
82.2706
 20
111.626
 30
0.0
 40
0
 41
0
  0
VERTEX
  8
0
 10
81.7993
 20
111.55
 30
0.0
 40
0
 41
0
  0
VERTEX
  8
0
 10
81.3411
 20
111.427
 30
0.0
 40
0
 41
0
  0
VERTEX
  8
0
 10
80.8994
 20
111.257
 30
0.0
 40
0
 41
0
  0
VERTEX
  8
0
 10
80.4776
 20
111.042
 30
0.0
 40
0
 41
0
  0
VERTEX
  8
0
 10
80.0796
 20
110.783
 30
0.0
 40
0
 41
0
  0
VERTEX
  8
0
 10
79.7089
 20
110.483
 30
0.0
 40
0
 41
0
  0
VERTEX
  8
0
 10
79.4492
 20
110.232
 30
0.0
 40
0
 41
0
  0
VERTEX
  8
0
 10
79.3689
 20
110.143
 30
0.0
 40
0
 41
0
  0
VERTEX
  8
0
 10
79.2886
 20
110.054
 30
0.0
 40
0
 41
0
  0
VERTEX
  8
0
 10
79.0667
 20
109.769
 30
0.0
 40
0
 41
0
  0
VERTEX
  8
0
 10
78.8078
 20
109.368
 30
0.0
 40
0
 41
0
  0
VERTEX
  8
0
 10
78.5935
 20
108.944
 30
0.0
 40
0
 41
0
  0
VERTEX
  8
0
 10
78.4246
 20
108.502
 30
0.0
 40
0
 41
0
  0
VERTEX
  8
0
 10
78.3028
 20
108.045
 30
0.0
 40
0
 41
0
  0
VERTEX
  8
0
 10
78.2289
 20
107.576
 30
0.0
 40
0
 41
0
  0
VERTEX
  8
0
 10
78.2044
 20
107.1
 30
0.0
 40
0
 41
0
  0
VERTEX
  8
0
 10
78.2175
 20
106.739
 30
0.0
 40
0
 41
0
  0
VERTEX
  8
0
 10
78.2304
 20
106.619
 30
0.0
 40
0
 41
0
  0
VERTEX
  8
0
 10
78.2304
 20
97.9565
 30
0.0
 40
0
 41
0
  0
VERTEX
  8
0
 10
73.8214
 20
97.9565
 30
0.0
 40
0
 41
0
  0
VERTEX
  8
0
 10
73.8214
 20
96.8565
 30
0.0
 40
0
 41
0
  0
VERTEX
  8
0
 10
65.7714
 20
96.8565
 30
0.0
 40
0
 41
0
  0
VERTEX
  8
0
 10
65.7714
 20
97.9565
 30
0.0
 40
0
 41
0
  0
VERTEX
  8
0
 10
50.4532
 20
97.9565
 30
0.0
 40
0
 41
0
  0
VERTEX
  8
0
 10
50.4532
 20
105.007
 30
0.0
 40
0
 41
0
  0
VERTEX
  8
0
 10
51.5531
 20
105.007
 30
0.0
 40
0
 41
0
  0
VERTEX
  8
0
 10
51.5531
 20
132.775
 30
0.0
 40
0
 41
0
  0
VERTEX
  8
0
 10
50.4532
 20
132.775
 30
0.0
 40
0
 41
0
  0
VERTEX
  8
0
 10
50.4532
 20
139.818
 30
0.0
 40
0
 41
0
  0
VERTEX
  8
0
 10
69.7964
 20
146.644
 30
0.0
 40
0
 41
0
  0
VERTEX
  8
0
 10
89.1396
 20
139.818
 30
0.0
 40
0
 41
0
  0
VERTEX
  8
0
 10
89.1396
 20
132.775
 30
0.0
 40
0
 41
0
  0
VERTEX
  8
0
 10
88.0396
 20
132.775
 30
0.0
 40
0
 41
0
  0
VERTEX
  8
0
 10
88.0396
 20
112.701
 30
0.0
 40
0
 41
0
  0
VERTEX
  8
0
 10
89.1396
 20
112.701
 30
0.0
 40
0
 41
0
  0
VERTEX
  8
0
 10
89.1396
 20
96.8565
 30
0.0
 40
0
 41
0
  0
VERTEX
  8
0
 10
87.2714
 20
96.8565
 30
0.0
 40
0
 41
0
  0
SEQEND
 8
0
  0
POLYLINE
  8
0
 62
     0
 66
     1
 10
0
 20
0
 30
0.0
 70
     1
 40
0
 41
0
  0
VERTEX
  8
0
 10
72.9621
 20
114.966
 30
0.0
 40
0
 41
0
  0
VERTEX
  8
0
 10
80.9413
 20
114.966
 30
0.0
 40
0
 41
0
  0
VERTEX
  8
0
 10
80.9413
 20
113.916
 30
0.0
 40
0
 41
0
  0
VERTEX
  8
0
 10
72.9621
 20
113.916
 30
0.0
 40
0
 41
0
  0
VERTEX
  8
0
 10
72.9621
 20
114.966
 30
0.0
 40
0
 41
0
  0
SEQEND
 8
0
  0
POLYLINE
  8
0
 62
     0
 66
     1
 10
0
 20
0
 30
0.0
 70
     1
 40
0
 41
0
  0
VERTEX
  8
0
 10
57.9621
 20
114.966
 30
0.0
 40
0
 41
0
  0
VERTEX
  8
0
 10
65.9121
 20
114.966
 30
0.0
 40
0
 41
0
  0
VERTEX
  8
0
 10
65.9121
 20
113.916
 30
0.0
 40
0
 41
0
  0
VERTEX
  8
0
 10
57.9621
 20
113.916
 30
0.0
 40
0
 41
0
  0
VERTEX
  8
0
 10
57.9621
 20
114.966
 30
0.0
 40
0
 41
0
  0
SEQEND
 8
0
  0
POLYLINE
  8
0
 62
     0
 66
     1
 10
0
 20
0
 30
0.0
 70
     1
 40
0
 41
0
  0
VERTEX
  8
0
 10
45.1708
 20
15.2838
 30
0.0
 40
0
 41
0
  0
VERTEX
  8
0
 10
45.1708
 20
49.5701
 30
0.0
 40
0
 41
0
  0
VERTEX
  8
0
 10
49.9258
 20
49.5701
 30
0.0
 40
0
 41
0
  0
VERTEX
  8
0
 10
49.9258
 20
50.6703
 30
0.0
 40
0
 41
0
  0
VERTEX
  8
0
 10
59.9758
 20
50.6703
 30
0.0
 40
0
 41
0
  0
VERTEX
  8
0
 10
59.9758
 20
49.5701
 30
0.0
 40
0
 41
0
  0
VERTEX
  8
0
 10
73.6704
 20
49.5701
 30
0.0
 40
0
 41
0
  0
VERTEX
  8
0
 10
73.6704
 20
50.6703
 30
0.0
 40
0
 41
0
  0
VERTEX
  8
0
 10
83.7204
 20
50.6703
 30
0.0
 40
0
 41
0
  0
VERTEX
  8
0
 10
83.7204
 20
49.5701
 30
0.0
 40
0
 41
0
  0
VERTEX
  8
0
 10
88.4754
 20
49.5701
 30
0.0
 40
0
 41
0
  0
VERTEX
  8
0
 10
88.4754
 20
15.2838
 30
0.0
 40
0
 41
0
  0
VERTEX
  8
0
 10
83.7204
 20
15.2838
 30
0.0
 40
0
 41
0
  0
VERTEX
  8
0
 10
83.7204
 20
14.1837
 30
0.0
 40
0
 41
0
  0
VERTEX
  8
0
 10
73.6704
 20
14.1837
 30
0.0
 40
0
 41
0
  0
VERTEX
  8
0
 10
73.6704
 20
15.2838
 30
0.0
 40
0
 41
0
  0
VERTEX
  8
0
 10
59.9758
 20
15.2838
 30
0.0
 40
0
 41
0
  0
VERTEX
  8
0
 10
59.9758
 20
14.1837
 30
0.0
 40
0
 41
0
  0
VERTEX
  8
0
 10
49.9258
 20
14.1837
 30
0.0
 40
0
 41
0
  0
VERTEX
  8
0
 10
49.9258
 20
15.2838
 30
0.0
 40
0
 41
0
  0
VERTEX
  8
0
 10
45.1708
 20
15.2838
 30
0.0
 40
0
 41
0
  0
SEQEND
 8
0
  0
POLYLINE
  8
0
 62
     0
 66
     1
 10
0
 20
0
 30
0.0
 70
     1
 40
0
 41
0
  0
VERTEX
  8
0
 10
86.566
 20
40.2863
 30
0.0
 40
0
 41
0
  0
VERTEX
  8
0
 10
86.566
 20
40.2321
 30
0.0
 40
0
 41
0
  0
VERTEX
  8
0
 10
86.5442
 20
40.0696
 30
0.0
 40
0
 41
0
  0
VERTEX
  8
0
 10
86.4815
 20
39.8678
 30
0.0
 40
0
 41
0
  0
VERTEX
  8
0
 10
86.3825
 20
39.6853
 30
0.0
 40
0
 41
0
  0
VERTEX
  8
0
 10
86.2511
 20
39.5261
 30
0.0
 40
0
 41
0
  0
VERTEX
  8
0
 10
86.0921
 20
39.3949
 30
0.0
 40
0
 41
0
  0
VERTEX
  8
0
 10
85.9094
 20
39.2958
 30
0.0
 40
0
 41
0
  0
VERTEX
  8
0
 10
85.7076
 20
39.2332
 30
0.0
 40
0
 41
0
  0
VERTEX
  8
0
 10
85.5451
 20
39.2112
 30
0.0
 40
0
 41
0
  0
VERTEX
  8
0
 10
85.4911
 20
39.2112
 30
0.0
 40
0
 41
0
  0
VERTEX
  8
0
 10
85.4368
 20
39.2112
 30
0.0
 40
0
 41
0
  0
VERTEX
  8
0
 10
85.2743
 20
39.2332
 30
0.0
 40
0
 41
0
  0
VERTEX
  8
0
 10
85.0725
 20
39.2958
 30
0.0
 40
0
 41
0
  0
VERTEX
  8
0
 10
84.89
 20
39.3949
 30
0.0
 40
0
 41
0
  0
VERTEX
  8
0
 10
84.7308
 20
39.5261
 30
0.0
 40
0
 41
0
  0
VERTEX
  8
0
 10
84.5996
 20
39.6853
 30
0.0
 40
0
 41
0
  0
VERTEX
  8
0
 10
84.5006
 20
39.8678
 30
0.0
 40
0
 41
0
  0
VERTEX
  8
0
 10
84.4378
 20
40.0696
 30
0.0
 40
0
 41
0
  0
VERTEX
  8
0
 10
84.416
 20
40.2321
 30
0.0
 40
0
 41
0
  0
VERTEX
  8
0
 10
84.416
 20
40.2863
 30
0.0
 40
0
 41
0
  0
VERTEX
  8
0
 10
84.416
 20
40.3404
 30
0.0
 40
0
 41
0
  0
VERTEX
  8
0
 10
84.4378
 20
40.5029
 30
0.0
 40
0
 41
0
  0
VERTEX
  8
0
 10
84.5006
 20
40.7047
 30
0.0
 40
0
 41
0
  0
VERTEX
  8
0
 10
84.5996
 20
40.8874
 30
0.0
 40
0
 41
0
  0
VERTEX
  8
0
 10
84.7308
 20
41.0464
 30
0.0
 40
0
 41
0
  0
VERTEX
  8
0
 10
84.89
 20
41.1776
 30
0.0
 40
0
 41
0
  0
VERTEX
  8
0
 10
85.0725
 20
41.2768
 30
0.0
 40
0
 41
0
  0
VERTEX
  8
0
 10
85.2743
 20
41.3394
 30
0.0
 40
0
 41
0
  0
VERTEX
  8
0
 10
85.4368
 20
41.3613
 30
0.0
 40
0
 41
0
  0
VERTEX
  8
0
 10
85.4911
 20
41.3613
 30
0.0
 40
0
 41
0
  0
VERTEX
  8
0
 10
85.5451
 20
41.3613
 30
0.0
 40
0
 41
0
  0
VERTEX
  8
0
 10
85.7076
 20
41.3394
 30
0.0
 40
0
 41
0
  0
VERTEX
  8
0
 10
85.9094
 20
41.2768
 30
0.0
 40
0
 41
0
  0
VERTEX
  8
0
 10
86.0921
 20
41.1776
 30
0.0
 40
0
 41
0
  0
VERTEX
  8
0
 10
86.2511
 20
41.0464
 30
0.0
 40
0
 41
0
  0
VERTEX
  8
0
 10
86.3825
 20
40.8874
 30
0.0
 40
0
 41
0
  0
VERTEX
  8
0
 10
86.4815
 20
40.7047
 30
0.0
 40
0
 41
0
  0
VERTEX
  8
0
 10
86.5442
 20
40.5029
 30
0.0
 40
0
 41
0
  0
VERTEX
  8
0
 10
86.566
 20
40.3404
 30
0.0
 40
0
 41
0
  0
VERTEX
  8
0
 10
86.566
 20
40.2863
 30
0.0
 40
0
 41
0
  0
SEQEND
 8
0
  0
POLYLINE
  8
0
 62
     0
 66
     1
 10
0
 20
0
 30
0.0
 70
     1
 40
0
 41
0
  0
VERTEX
  8
0
 10
112.224
 20
168.781
 30
0.0
 40
0
 41
0
  0
VERTEX
  8
0
 10
112.224
 20
147.654
 30
0.0
 40
0
 41
0
  0
VERTEX
  8
0
 10
70.3558
 20
147.654
 30
0.0
 40
0
 41
0
  0
VERTEX
  8
0
 10
70.3558
 20
190.958
 30
0.0
 40
0
 41
0
  0
VERTEX
  8
0
 10
112.224
 20
190.958
 30
0.0
 40
0
 41
0
  0
VERTEX
  8
0
 10
112.224
 20
169.831
 30
0.0
 40
0
 41
0
  0
VERTEX
  8
0
 10
111.124
 20
169.831
 30
0.0
 40
0
 41
0
  0
VERTEX
  8
0
 10
111.124
 20
168.781
 30
0.0
 40
0
 41
0
  0
VERTEX
  8
0
 10
112.224
 20
168.781
 30
0.0
 40
0
 41
0
  0
SEQEND
 8
0
  0
POLYLINE
  8
0
 62
     0
 66
     1
 10
0
 20
0
 30
0.0
 70
     1
 40
0
 41
0
  0
VERTEX
  8
0
 10
74.2876
 20
171.799
 30
0.0
 40
0
 41
0
  0
VERTEX
  8
0
 10
74.2876
 20
175.803
 30
0.0
 40
0
 41
0
  0
VERTEX
  8
0
 10
79.1728
 20
175.803
 30
0.0
 40
0
 41
0
  0
VERTEX
  8
0
 10
79.2368
 20
175.835
 30
0.0
 40
0
 41
0
  0
VERTEX
  8
0
 10
79.4372
 20
175.913
 30
0.0
 40
0
 41
0
  0
VERTEX
  8
0
 10
79.7101
 20
175.986
 30
0.0
 40
0
 41
0
  0
VERTEX
  8
0
 10
79.9879
 20
176.024
 30
0.0
 40
0
 41
0
  0
VERTEX
  8
0
 10
80.2674
 20
176.028
 30
0.0
 40
0
 41
0
  0
VERTEX
  8
0
 10
80.5451
 20
175.996
 30
0.0
 40
0
 41
0
  0
VERTEX
  8
0
 10
80.8175
 20
175.929
 30
0.0
 40
0
 41
0
  0
VERTEX
  8
0
 10
81.0815
 20
175.828
 30
0.0
 40
0
 41
0
  0
VERTEX
  8
0
 10
81.2728
 20
175.731
 30
0.0
 40
0
 41
0
  0
VERTEX
  8
0
 10
81.3335
 20
175.692
 30
0.0
 40
0
 41
0
  0
VERTEX
  8
0
 10
81.394
 20
175.654
 30
0.0
 40
0
 41
0
  0
VERTEX
  8
0
 10
81.566
 20
175.525
 30
0.0
 40
0
 41
0
  0
VERTEX
  8
0
 10
81.7728
 20
175.333
 30
0.0
 40
0
 41
0
  0
VERTEX
  8
0
 10
81.9524
 20
175.118
 30
0.0
 40
0
 41
0
  0
VERTEX
  8
0
 10
82.1031
 20
174.882
 30
0.0
 40
0
 41
0
  0
VERTEX
  8
0
 10
82.2231
 20
174.629
 30
0.0
 40
0
 41
0
  0
VERTEX
  8
0
 10
82.3108
 20
174.364
 30
0.0
 40
0
 41
0
  0
VERTEX
  8
0
 10
82.3647
 20
174.086
 30
0.0
 40
0
 41
0
  0
VERTEX
  8
0
 10
82.3831
 20
173.872
 30
0.0
 40
0
 41
0
  0
VERTEX
  8
0
 10
82.3831
 20
173.8
 30
0.0
 40
0
 41
0
  0
VERTEX
  8
0
 10
82.3831
 20
173.729
 30
0.0
 40
0
 41
0
  0
VERTEX
  8
0
 10
82.3647
 20
173.515
 30
0.0
 40
0
 41
0
  0
VERTEX
  8
0
 10
82.3108
 20
173.237
 30
0.0
 40
0
 41
0
  0
VERTEX
  8
0
 10
82.2231
 20
172.971
 30
0.0
 40
0
 41
0
  0
VERTEX
  8
0
 10
82.1031
 20
172.719
 30
0.0
 40
0
 41
0
  0
VERTEX
  8
0
 10
81.9524
 20
172.483
 30
0.0
 40
0
 41
0
  0
VERTEX
  8
0
 10
81.7728
 20
172.268
 30
0.0
 40
0
 41
0
  0
VERTEX
  8
0
 10
81.566
 20
172.075
 30
0.0
 40
0
 41
0
  0
VERTEX
  8
0
 10
81.394
 20
171.946
 30
0.0
 40
0
 41
0
  0
VERTEX
  8
0
 10
81.3335
 20
171.908
 30
0.0
 40
0
 41
0
  0
VERTEX
  8
0
 10
81.2728
 20
171.871
 30
0.0
 40
0
 41
0
  0
VERTEX
  8
0
 10
81.0815
 20
171.774
 30
0.0
 40
0
 41
0
  0
VERTEX
  8
0
 10
80.8175
 20
171.672
 30
0.0
 40
0
 41
0
  0
VERTEX
  8
0
 10
80.5451
 20
171.606
 30
0.0
 40
0
 41
0
  0
VERTEX
  8
0
 10
80.2674
 20
171.574
 30
0.0
 40
0
 41
0
  0
VERTEX
  8
0
 10
79.9879
 20
171.578
 30
0.0
 40
0
 41
0
  0
VERTEX
  8
0
 10
79.7101
 20
171.615
 30
0.0
 40
0
 41
0
  0
VERTEX
  8
0
 10
79.4372
 20
171.689
 30
0.0
 40
0
 41
0
  0
VERTEX
  8
0
 10
79.2368
 20
171.767
 30
0.0
 40
0
 41
0
  0
VERTEX
  8
0
 10
79.1728
 20
171.799
 30
0.0
 40
0
 41
0
  0
VERTEX
  8
0
 10
74.2876
 20
171.799
 30
0.0
 40
0
 41
0
  0
SEQEND
 8
0
  0
POLYLINE
  8
0
 62
     0
 66
     1
 10
0
 20
0
 30
0.0
 70
     1
 40
0
 41
0
  0
VERTEX
  8
0
 10
74.2876
 20
186.808
 30
0.0
 40
0
 41
0
  0
VERTEX
  8
0
 10
74.2876
 20
182.804
 30
0.0
 40
0
 41
0
  0
VERTEX
  8
0
 10
79.1728
 20
182.804
 30
0.0
 40
0
 41
0
  0
VERTEX
  8
0
 10
79.2368
 20
182.772
 30
0.0
 40
0
 41
0
  0
VERTEX
  8
0
 10
79.4372
 20
182.694
 30
0.0
 40
0
 41
0
  0
VERTEX
  8
0
 10
79.7101
 20
182.621
 30
0.0
 40
0
 41
0
  0
VERTEX
  8
0
 10
79.9879
 20
182.583
 30
0.0
 40
0
 41
0
  0
VERTEX
  8
0
 10
80.2674
 20
182.579
 30
0.0
 40
0
 41
0
  0
VERTEX
  8
0
 10
80.5451
 20
182.611
 30
0.0
 40
0
 41
0
  0
VERTEX
  8
0
 10
80.8175
 20
182.678
 30
0.0
 40
0
 41
0
  0
VERTEX
  8
0
 10
81.0815
 20
182.779
 30
0.0
 40
0
 41
0
  0
VERTEX
  8
0
 10
81.2728
 20
182.876
 30
0.0
 40
0
 41
0
  0
VERTEX
  8
0
 10
81.3335
 20
182.914
 30
0.0
 40
0
 41
0
  0
VERTEX
  8
0
 10
81.394
 20
182.953
 30
0.0
 40
0
 41
0
  0
VERTEX
  8
0
 10
81.566
 20
183.081
 30
0.0
 40
0
 41
0
  0
VERTEX
  8
0
 10
81.7728
 20
183.274
 30
0.0
 40
0
 41
0
  0
VERTEX
  8
0
 10
81.9524
 20
183.489
 30
0.0
 40
0
 41
0
  0
VERTEX
  8
0
 10
82.1031
 20
183.725
 30
0.0
 40
0
 41
0
  0
VERTEX
  8
0
 10
82.2231
 20
183.976
 30
0.0
 40
0
 41
0
  0
VERTEX
  8
0
 10
82.3108
 20
184.243
 30
0.0
 40
0
 41
0
  0
VERTEX
  8
0
 10
82.3647
 20
184.521
 30
0.0
 40
0
 41
0
  0
VERTEX
  8
0
 10
82.3831
 20
184.735
 30
0.0
 40
0
 41
0
  0
VERTEX
  8
0
 10
82.3831
 20
184.806
 30
0.0
 40
0
 41
0
  0
VERTEX
  8
0
 10
82.3831
 20
184.878
 30
0.0
 40
0
 41
0
  0
VERTEX
  8
0
 10
82.3647
 20
185.092
 30
0.0
 40
0
 41
0
  0
VERTEX
  8
0
 10
82.3108
 20
185.369
 30
0.0
 40
0
 41
0
  0
VERTEX
  8
0
 10
82.2231
 20
185.636
 30
0.0
 40
0
 41
0
  0
VERTEX
  8
0
 10
82.1031
 20
185.888
 30
0.0
 40
0
 41
0
  0
VERTEX
  8
0
 10
81.9524
 20
186.124
 30
0.0
 40
0
 41
0
  0
VERTEX
  8
0
 10
81.7728
 20
186.339
 30
0.0
 40
0
 41
0
  0
VERTEX
  8
0
 10
81.566
 20
186.531
 30
0.0
 40
0
 41
0
  0
VERTEX
  8
0
 10
81.394
 20
186.66
 30
0.0
 40
0
 41
0
  0
VERTEX
  8
0
 10
81.3335
 20
186.697
 30
0.0
 40
0
 41
0
  0
VERTEX
  8
0
 10
81.2728
 20
186.736
 30
0.0
 40
0
 41
0
  0
VERTEX
  8
0
 10
81.0815
 20
186.833
 30
0.0
 40
0
 41
0
  0
VERTEX
  8
0
 10
80.8175
 20
186.935
 30
0.0
 40
0
 41
0
  0
VERTEX
  8
0
 10
80.5451
 20
187.001
 30
0.0
 40
0
 41
0
  0
VERTEX
  8
0
 10
80.2674
 20
187.033
 30
0.0
 40
0
 41
0
  0
VERTEX
  8
0
 10
79.9879
 20
187.029
 30
0.0
 40
0
 41
0
  0
VERTEX
  8
0
 10
79.7101
 20
186.992
 30
0.0
 40
0
 41
0
  0
VERTEX
  8
0
 10
79.4372
 20
186.918
 30
0.0
 40
0
 41
0
  0
VERTEX
  8
0
 10
79.2368
 20
186.84
 30
0.0
 40
0
 41
0
  0
VERTEX
  8
0
 10
79.1728
 20
186.808
 30
0.0
 40
0
 41
0
  0
VERTEX
  8
0
 10
74.2876
 20
186.808
 30
0.0
 40
0
 41
0
  0
SEQEND
 8
0
  0
POLYLINE
  8
0
 62
     0
 66
     1
 10
0
 20
0
 30
0.0
 70
     1
 40
0
 41
0
  0
VERTEX
  8
0
 10
74.2876
 20
160.793
 30
0.0
 40
0
 41
0
  0
VERTEX
  8
0
 10
74.2876
 20
164.797
 30
0.0
 40
0
 41
0
  0
VERTEX
  8
0
 10
79.1728
 20
164.797
 30
0.0
 40
0
 41
0
  0
VERTEX
  8
0
 10
79.2368
 20
164.829
 30
0.0
 40
0
 41
0
  0
VERTEX
  8
0
 10
79.4372
 20
164.907
 30
0.0
 40
0
 41
0
  0
VERTEX
  8
0
 10
79.7101
 20
164.981
 30
0.0
 40
0
 41
0
  0
VERTEX
  8
0
 10
79.9879
 20
165.018
 30
0.0
 40
0
 41
0
  0
VERTEX
  8
0
 10
80.2674
 20
165.021
 30
0.0
 40
0
 41
0
  0
VERTEX
  8
0
 10
80.5451
 20
164.99
 30
0.0
 40
0
 41
0
  0
VERTEX
  8
0
 10
80.8175
 20
164.924
 30
0.0
 40
0
 41
0
  0
VERTEX
  8
0
 10
81.0815
 20
164.822
 30
0.0
 40
0
 41
0
  0
VERTEX
  8
0
 10
81.2728
 20
164.725
 30
0.0
 40
0
 41
0
  0
VERTEX
  8
0
 10
81.3335
 20
164.686
 30
0.0
 40
0
 41
0
  0
VERTEX
  8
0
 10
81.394
 20
164.649
 30
0.0
 40
0
 41
0
  0
VERTEX
  8
0
 10
81.566
 20
164.519
 30
0.0
 40
0
 41
0
  0
VERTEX
  8
0
 10
81.7728
 20
164.328
 30
0.0
 40
0
 41
0
  0
VERTEX
  8
0
 10
81.9524
 20
164.112
 30
0.0
 40
0
 41
0
  0
VERTEX
  8
0
 10
82.1031
 20
163.876
 30
0.0
 40
0
 41
0
  0
VERTEX
  8
0
 10
82.2231
 20
163.624
 30
0.0
 40
0
 41
0
  0
VERTEX
  8
0
 10
82.3108
 20
163.358
 30
0.0
 40
0
 41
0
  0
VERTEX
  8
0
 10
82.3647
 20
163.081
 30
0.0
 40
0
 41
0
  0
VERTEX
  8
0
 10
82.3831
 20
162.867
 30
0.0
 40
0
 41
0
  0
VERTEX
  8
0
 10
82.3831
 20
162.794
 30
0.0
 40
0
 41
0
  0
VERTEX
  8
0
 10
82.3831
 20
162.724
 30
0.0
 40
0
 41
0
  0
VERTEX
  8
0
 10
82.3647
 20
162.51
 30
0.0
 40
0
 41
0
  0
VERTEX
  8
0
 10
82.3108
 20
162.232
 30
0.0
 40
0
 41
0
  0
VERTEX
  8
0
 10
82.2231
 20
161.965
 30
0.0
 40
0
 41
0
  0
VERTEX
  8
0
 10
82.1031
 20
161.712
 30
0.0
 40
0
 41
0
  0
VERTEX
  8
0
 10
81.9524
 20
161.478
 30
0.0
 40
0
 41
0
  0
VERTEX
  8
0
 10
81.7728
 20
161.263
 30
0.0
 40
0
 41
0
  0
VERTEX
  8
0
 10
81.566
 20
161.069
 30
0.0
 40
0
 41
0
  0
VERTEX
  8
0
 10
81.394
 20
160.94
 30
0.0
 40
0
 41
0
  0
VERTEX
  8
0
 10
81.3335
 20
160.903
 30
0.0
 40
0
 41
0
  0
VERTEX
  8
0
 10
81.2728
 20
160.865
 30
0.0
 40
0
 41
0
  0
VERTEX
  8
0
 10
81.0815
 20
160.768
 30
0.0
 40
0
 41
0
  0
VERTEX
  8
0
 10
80.8175
 20
160.667
 30
0.0
 40
0
 41
0
  0
VERTEX
  8
0
 10
80.5451
 20
160.6
 30
0.0
 40
0
 41
0
  0
VERTEX
  8
0
 10
80.2674
 20
160.568
 30
0.0
 40
0
 41
0
  0
VERTEX
  8
0
 10
79.9879
 20
160.571
 30
0.0
 40
0
 41
0
  0
VERTEX
  8
0
 10
79.7101
 20
160.61
 30
0.0
 40
0
 41
0
  0
VERTEX
  8
0
 10
79.4372
 20
160.683
 30
0.0
 40
0
 41
0
  0
VERTEX
  8
0
 10
79.2368
 20
160.761
 30
0.0
 40
0
 41
0
  0
VERTEX
  8
0
 10
79.1728
 20
160.793
 30
0.0
 40
0
 41
0
  0
VERTEX
  8
0
 10
74.2876
 20
160.793
 30
0.0
 40
0
 41
0
  0
SEQEND
 8
0
  0
POLYLINE
  8
0
 62
     0
 66
     1
 10
0
 20
0
 30
0.0
 70
     1
 40
0
 41
0
  0
VERTEX
  8
0
 10
98.8513
 20
162.408
 30
0.0
 40
0
 41
0
  0
VERTEX
  8
0
 10
99.9013
 20
162.408
 30
0.0
 40
0
 41
0
  0
VERTEX
  8
0
 10
99.9013
 20
152.458
 30
0.0
 40
0
 41
0
  0
VERTEX
  8
0
 10
98.8513
 20
152.458
 30
0.0
 40
0
 41
0
  0
VERTEX
  8
0
 10
98.8513
 20
162.408
 30
0.0
 40
0
 41
0
  0
SEQEND
 8
0
  0
POLYLINE
  8
0
 62
     0
 66
     1
 10
0
 20
0
 30
0.0
 70
     1
 40
0
 41
0
  0
VERTEX
  8
0
 10
98.8513
 20
186.153
 30
0.0
 40
0
 41
0
  0
VERTEX
  8
0
 10
99.9013
 20
186.153
 30
0.0
 40
0
 41
0
  0
VERTEX
  8
0
 10
99.9013
 20
176.203
 30
0.0
 40
0
 41
0
  0
VERTEX
  8
0
 10
98.8513
 20
176.203
 30
0.0
 40
0
 41
0
  0
VERTEX
  8
0
 10
98.8513
 20
186.153
 30
0.0
 40
0
 41
0
  0
SEQEND
 8
0
  0
POLYLINE
  8
0
 62
     0
 66
     1
 10
0
 20
0
 30
0.0
 70
     1
 40
0
 41
0
  0
VERTEX
  8
0
 10
90.6513
 20
187.208
 30
0.0
 40
0
 41
0
  0
VERTEX
  8
0
 10
96.474
 20
187.208
 30
0.0
 40
0
 41
0
  0
VERTEX
  8
0
 10
96.474
 20
183.204
 30
0.0
 40
0
 41
0
  0
VERTEX
  8
0
 10
90.6513
 20
183.204
 30
0.0
 40
0
 41
0
  0
VERTEX
  8
0
 10
90.6513
 20
187.208
 30
0.0
 40
0
 41
0
  0
SEQEND
 8
0
  0
POLYLINE
  8
0
 62
     0
 66
     1
 10
0
 20
0
 30
0.0
 70
     1
 40
0
 41
0
  0
VERTEX
  8
0
 10
104.288
 20
170.854
 30
0.0
 40
0
 41
0
  0
VERTEX
  8
0
 10
108.292
 20
170.854
 30
0.0
 40
0
 41
0
  0
VERTEX
  8
0
 10
108.292
 20
167.758
 30
0.0
 40
0
 41
0
  0
VERTEX
  8
0
 10
104.288
 20
167.758
 30
0.0
 40
0
 41
0
  0
VERTEX
  8
0
 10
104.288
 20
170.854
 30
0.0
 40
0
 41
0
  0
SEQEND
 8
0
  0
POLYLINE
  8
0
 62
     0
 66
     1
 10
0
 20
0
 30
0.0
 70
     1
 40
0
 41
0
  0
VERTEX
  8
0
 10
104.288
 20
158.95
 30
0.0
 40
0
 41
0
  0
VERTEX
  8
0
 10
108.292
 20
158.95
 30
0.0
 40
0
 41
0
  0
VERTEX
  8
0
 10
108.292
 20
155.854
 30
0.0
 40
0
 41
0
  0
VERTEX
  8
0
 10
104.288
 20
155.854
 30
0.0
 40
0
 41
0
  0
VERTEX
  8
0
 10
104.288
 20
158.95
 30
0.0
 40
0
 41
0
  0
SEQEND
 8
0
  0
POLYLINE
  8
0
 62
     0
 66
     1
 10
0
 20
0
 30
0.0
 70
     1
 40
0
 41
0
  0
VERTEX
  8
0
 10
104.288
 20
182.758
 30
0.0
 40
0
 41
0
  0
VERTEX
  8
0
 10
108.292
 20
182.758
 30
0.0
 40
0
 41
0
  0
VERTEX
  8
0
 10
108.292
 20
179.663
 30
0.0
 40
0
 41
0
  0
VERTEX
  8
0
 10
104.288
 20
179.663
 30
0.0
 40
0
 41
0
  0
VERTEX
  8
0
 10
104.288
 20
182.758
 30
0.0
 40
0
 41
0
  0
SEQEND
 8
0
  0
POLYLINE
  8
0
 62
     0
 66
     1
 10
0
 20
0
 30
0.0
 70
     1
 40
0
 41
0
  0
VERTEX
  8
0
 10
90.6513
 20
155.408
 30
0.0
 40
0
 41
0
  0
VERTEX
  8
0
 10
96.474
 20
155.408
 30
0.0
 40
0
 41
0
  0
VERTEX
  8
0
 10
96.474
 20
151.403
 30
0.0
 40
0
 41
0
  0
VERTEX
  8
0
 10
90.6513
 20
151.403
 30
0.0
 40
0
 41
0
  0
VERTEX
  8
0
 10
90.6513
 20
155.408
 30
0.0
 40
0
 41
0
  0
SEQEND
 8
0
  0
POLYLINE
  8
0
 62
     0
 66
     1
 10
0
 20
0
 30
0.0
 70
     1
 40
0
 41
0
  0
VERTEX
  8
0
 10
90.6513
 20
176.608
 30
0.0
 40
0
 41
0
  0
VERTEX
  8
0
 10
96.474
 20
176.608
 30
0.0
 40
0
 41
0
  0
VERTEX
  8
0
 10
96.474
 20
172.604
 30
0.0
 40
0
 41
0
  0
VERTEX
  8
0
 10
90.6513
 20
172.604
 30
0.0
 40
0
 41
0
  0
VERTEX
  8
0
 10
90.6513
 20
176.608
 30
0.0
 40
0
 41
0
  0
SEQEND
 8
0
  0
POLYLINE
  8
0
 62
     0
 66
     1
 10
0
 20
0
 30
0.0
 70
     1
 40
0
 41
0
  0
VERTEX
  8
0
 10
90.6513
 20
166.008
 30
0.0
 40
0
 41
0
  0
VERTEX
  8
0
 10
96.474
 20
166.008
 30
0.0
 40
0
 41
0
  0
VERTEX
  8
0
 10
96.474
 20
162.004
 30
0.0
 40
0
 41
0
  0
VERTEX
  8
0
 10
90.6513
 20
162.004
 30
0.0
 40
0
 41
0
  0
VERTEX
  8
0
 10
90.6513
 20
166.008
 30
0.0
 40
0
 41
0
  0
SEQEND
 8
0
  0
POLYLINE
  8
0
 62
     0
 66
     1
 10
0
 20
0
 30
0.0
 70
     1
 40
0
 41
0
  0
VERTEX
  8
0
 10
112.441
 20
73.3615
 30
0.0
 40
0
 41
0
  0
VERTEX
  8
0
 10
112.441
 20
52.2343
 30
0.0
 40
0
 41
0
  0
VERTEX
  8
0
 10
87.5818
 20
52.2343
 30
0.0
 40
0
 41
0
  0
VERTEX
  8
0
 10
87.5818
 20
95.5389
 30
0.0
 40
0
 41
0
  0
VERTEX
  8
0
 10
112.441
 20
95.5389
 30
0.0
 40
0
 41
0
  0
VERTEX
  8
0
 10
112.441
 20
74.4115
 30
0.0
 40
0
 41
0
  0
VERTEX
  8
0
 10
111.341
 20
74.4115
 30
0.0
 40
0
 41
0
  0
VERTEX
  8
0
 10
111.341
 20
73.3615
 30
0.0
 40
0
 41
0
  0
VERTEX
  8
0
 10
112.441
 20
73.3615
 30
0.0
 40
0
 41
0
  0
SEQEND
 8
0
  0
POLYLINE
  8
0
 62
     0
 66
     1
 10
0
 20
0
 30
0.0
 70
     1
 40
0
 41
0
  0
VERTEX
  8
0
 10
94.3544
 20
59.9883
 30
0.0
 40
0
 41
0
  0
VERTEX
  8
0
 10
96.6908
 20
59.9883
 30
0.0
 40
0
 41
0
  0
VERTEX
  8
0
 10
96.6908
 20
58.5611
 30
0.0
 40
0
 41
0
  0
VERTEX
  8
0
 10
94.3544
 20
58.5611
 30
0.0
 40
0
 41
0
  0
VERTEX
  8
0
 10
94.3544
 20
59.9883
 30
0.0
 40
0
 41
0
  0
SEQEND
 8
0
  0
POLYLINE
  8
0
 62
     0
 66
     1
 10
0
 20
0
 30
0.0
 70
     1
 40
0
 41
0
  0
VERTEX
  8
0
 10
94.3544
 20
57.4111
 30
0.0
 40
0
 41
0
  0
VERTEX
  8
0
 10
96.6908
 20
57.4111
 30
0.0
 40
0
 41
0
  0
VERTEX
  8
0
 10
96.6908
 20
55.9839
 30
0.0
 40
0
 41
0
  0
VERTEX
  8
0
 10
94.3544
 20
55.9839
 30
0.0
 40
0
 41
0
  0
VERTEX
  8
0
 10
94.3544
 20
57.4111
 30
0.0
 40
0
 41
0
  0
SEQEND
 8
0
  0
POLYLINE
  8
0
 62
     0
 66
     1
 10
0
 20
0
 30
0.0
 70
     1
 40
0
 41
0
  0
VERTEX
  8
0
 10
94.3544
 20
68.0114
 30
0.0
 40
0
 41
0
  0
VERTEX
  8
0
 10
96.6908
 20
68.0114
 30
0.0
 40
0
 41
0
  0
VERTEX
  8
0
 10
96.6908
 20
66.5842
 30
0.0
 40
0
 41
0
  0
VERTEX
  8
0
 10
94.3544
 20
66.5842
 30
0.0
 40
0
 41
0
  0
VERTEX
  8
0
 10
94.3544
 20
68.0114
 30
0.0
 40
0
 41
0
  0
SEQEND
 8
0
  0
POLYLINE
  8
0
 62
     0
 66
     1
 10
0
 20
0
 30
0.0
 70
     1
 40
0
 41
0
  0
VERTEX
  8
0
 10
90.8681
 20
57.4111
 30
0.0
 40
0
 41
0
  0
VERTEX
  8
0
 10
93.2044
 20
57.4111
 30
0.0
 40
0
 41
0
  0
VERTEX
  8
0
 10
93.2044
 20
55.9839
 30
0.0
 40
0
 41
0
  0
VERTEX
  8
0
 10
90.8681
 20
55.9839
 30
0.0
 40
0
 41
0
  0
VERTEX
  8
0
 10
90.8681
 20
57.4111
 30
0.0
 40
0
 41
0
  0
SEQEND
 8
0
  0
POLYLINE
  8
0
 62
     0
 66
     1
 10
0
 20
0
 30
0.0
 70
     1
 40
0
 41
0
  0
VERTEX
  8
0
 10
90.8681
 20
91.7893
 30
0.0
 40
0
 41
0
  0
VERTEX
  8
0
 10
93.2044
 20
91.7893
 30
0.0
 40
0
 41
0
  0
VERTEX
  8
0
 10
93.2044
 20
90.3621
 30
0.0
 40
0
 41
0
  0
VERTEX
  8
0
 10
90.8681
 20
90.3621
 30
0.0
 40
0
 41
0
  0
VERTEX
  8
0
 10
90.8681
 20
91.7893
 30
0.0
 40
0
 41
0
  0
SEQEND
 8
0
  0
POLYLINE
  8
0
 62
     0
 66
     1
 10
0
 20
0
 30
0.0
 70
     1
 40
0
 41
0
  0
VERTEX
  8
0
 10
94.3544
 20
70.5888
 30
0.0
 40
0
 41
0
  0
VERTEX
  8
0
 10
96.6908
 20
70.5888
 30
0.0
 40
0
 41
0
  0
VERTEX
  8
0
 10
96.6908
 20
69.1614
 30
0.0
 40
0
 41
0
  0
VERTEX
  8
0
 10
94.3544
 20
69.1614
 30
0.0
 40
0
 41
0
  0
VERTEX
  8
0
 10
94.3544
 20
70.5888
 30
0.0
 40
0
 41
0
  0
SEQEND
 8
0
  0
POLYLINE
  8
0
 62
     0
 66
     1
 10
0
 20
0
 30
0.0
 70
     1
 40
0
 41
0
  0
VERTEX
  8
0
 10
94.3544
 20
78.6117
 30
0.0
 40
0
 41
0
  0
VERTEX
  8
0
 10
96.6908
 20
78.6117
 30
0.0
 40
0
 41
0
  0
VERTEX
  8
0
 10
96.6908
 20
77.1844
 30
0.0
 40
0
 41
0
  0
VERTEX
  8
0
 10
94.3544
 20
77.1844
 30
0.0
 40
0
 41
0
  0
VERTEX
  8
0
 10
94.3544
 20
78.6117
 30
0.0
 40
0
 41
0
  0
SEQEND
 8
0
  0
POLYLINE
  8
0
 62
     0
 66
     1
 10
0
 20
0
 30
0.0
 70
     1
 40
0
 41
0
  0
VERTEX
  8
0
 10
90.8681
 20
81.189
 30
0.0
 40
0
 41
0
  0
VERTEX
  8
0
 10
93.2044
 20
81.189
 30
0.0
 40
0
 41
0
  0
VERTEX
  8
0
 10
93.2044
 20
79.7617
 30
0.0
 40
0
 41
0
  0
VERTEX
  8
0
 10
90.8681
 20
79.7617
 30
0.0
 40
0
 41
0
  0
VERTEX
  8
0
 10
90.8681
 20
81.189
 30
0.0
 40
0
 41
0
  0
SEQEND
 8
0
  0
POLYLINE
  8
0
 62
     0
 66
     1
 10
0
 20
0
 30
0.0
 70
     1
 40
0
 41
0
  0
VERTEX
  8
0
 10
104.504
 20
61.4074
 30
0.0
 40
0
 41
0
  0
VERTEX
  8
0
 10
105.932
 20
61.4074
 30
0.0
 40
0
 41
0
  0
VERTEX
  8
0
 10
105.932
 20
60.4347
 30
0.0
 40
0
 41
0
  0
VERTEX
  8
0
 10
104.504
 20
60.4347
 30
0.0
 40
0
 41
0
  0
VERTEX
  8
0
 10
104.504
 20
61.4074
 30
0.0
 40
0
 41
0
  0
SEQEND
 8
0
  0
POLYLINE
  8
0
 62
     0
 66
     1
 10
0
 20
0
 30
0.0
 70
     1
 40
0
 41
0
  0
VERTEX
  8
0
 10
107.082
 20
63.5301
 30
0.0
 40
0
 41
0
  0
VERTEX
  8
0
 10
108.509
 20
63.5301
 30
0.0
 40
0
 41
0
  0
VERTEX
  8
0
 10
108.509
 20
62.5574
 30
0.0
 40
0
 41
0
  0
VERTEX
  8
0
 10
107.082
 20
62.5574
 30
0.0
 40
0
 41
0
  0
VERTEX
  8
0
 10
107.082
 20
63.5301
 30
0.0
 40
0
 41
0
  0
SEQEND
 8
0
  0
POLYLINE
  8
0
 62
     0
 66
     1
 10
0
 20
0
 30
0.0
 70
     1
 40
0
 41
0
  0
VERTEX
  8
0
 10
107.082
 20
87.3385
 30
0.0
 40
0
 41
0
  0
VERTEX
  8
0
 10
108.509
 20
87.3385
 30
0.0
 40
0
 41
0
  0
VERTEX
  8
0
 10
108.509
 20
86.3657
 30
0.0
 40
0
 41
0
  0
VERTEX
  8
0
 10
107.082
 20
86.3657
 30
0.0
 40
0
 41
0
  0
VERTEX
  8
0
 10
107.082
 20
87.3385
 30
0.0
 40
0
 41
0
  0
SEQEND
 8
0
  0
POLYLINE
  8
0
 62
     0
 66
     1
 10
0
 20
0
 30
0.0
 70
     1
 40
0
 41
0
  0
VERTEX
  8
0
 10
104.504
 20
73.3115
 30
0.0
 40
0
 41
0
  0
VERTEX
  8
0
 10
105.932
 20
73.3115
 30
0.0
 40
0
 41
0
  0
VERTEX
  8
0
 10
105.932
 20
72.3388
 30
0.0
 40
0
 41
0
  0
VERTEX
  8
0
 10
104.504
 20
72.3388
 30
0.0
 40
0
 41
0
  0
VERTEX
  8
0
 10
104.504
 20
73.3115
 30
0.0
 40
0
 41
0
  0
SEQEND
 8
0
  0
POLYLINE
  8
0
 62
     0
 66
     1
 10
0
 20
0
 30
0.0
 70
     1
 40
0
 41
0
  0
VERTEX
  8
0
 10
94.3544
 20
81.189
 30
0.0
 40
0
 41
0
  0
VERTEX
  8
0
 10
96.6908
 20
81.189
 30
0.0
 40
0
 41
0
  0
VERTEX
  8
0
 10
96.6908
 20
79.7617
 30
0.0
 40
0
 41
0
  0
VERTEX
  8
0
 10
94.3544
 20
79.7617
 30
0.0
 40
0
 41
0
  0
VERTEX
  8
0
 10
94.3544
 20
81.189
 30
0.0
 40
0
 41
0
  0
SEQEND
 8
0
  0
POLYLINE
  8
0
 62
     0
 66
     1
 10
0
 20
0
 30
0.0
 70
     1
 40
0
 41
0
  0
VERTEX
  8
0
 10
104.504
 20
63.5301
 30
0.0
 40
0
 41
0
  0
VERTEX
  8
0
 10
105.932
 20
63.5301
 30
0.0
 40
0
 41
0
  0
VERTEX
  8
0
 10
105.932
 20
62.5574
 30
0.0
 40
0
 41
0
  0
VERTEX
  8
0
 10
104.504
 20
62.5574
 30
0.0
 40
0
 41
0
  0
VERTEX
  8
0
 10
104.504
 20
63.5301
 30
0.0
 40
0
 41
0
  0
SEQEND
 8
0
  0
POLYLINE
  8
0
 62
     0
 66
     1
 10
0
 20
0
 30
0.0
 70
     1
 40
0
 41
0
  0
VERTEX
  8
0
 10
107.082
 20
75.4343
 30
0.0
 40
0
 41
0
  0
VERTEX
  8
0
 10
108.509
 20
75.4343
 30
0.0
 40
0
 41
0
  0
VERTEX
  8
0
 10
108.509
 20
74.4615
 30
0.0
 40
0
 41
0
  0
VERTEX
  8
0
 10
107.082
 20
74.4615
 30
0.0
 40
0
 41
0
  0
VERTEX
  8
0
 10
107.082
 20
75.4343
 30
0.0
 40
0
 41
0
  0
SEQEND
 8
0
  0
POLYLINE
  8
0
 62
     0
 66
     1
 10
0
 20
0
 30
0.0
 70
     1
 40
0
 41
0
  0
VERTEX
  8
0
 10
107.082
 20
85.2157
 30
0.0
 40
0
 41
0
  0
VERTEX
  8
0
 10
108.509
 20
85.2157
 30
0.0
 40
0
 41
0
  0
VERTEX
  8
0
 10
108.509
 20
84.2431
 30
0.0
 40
0
 41
0
  0
VERTEX
  8
0
 10
107.082
 20
84.2431
 30
0.0
 40
0
 41
0
  0
VERTEX
  8
0
 10
107.082
 20
85.2157
 30
0.0
 40
0
 41
0
  0
SEQEND
 8
0
  0
POLYLINE
  8
0
 62
     0
 66
     1
 10
0
 20
0
 30
0.0
 70
     1
 40
0
 41
0
  0
VERTEX
  8
0
 10
104.504
 20
87.3385
 30
0.0
 40
0
 41
0
  0
VERTEX
  8
0
 10
105.932
 20
87.3385
 30
0.0
 40
0
 41
0
  0
VERTEX
  8
0
 10
105.932
 20
86.3657
 30
0.0
 40
0
 41
0
  0
VERTEX
  8
0
 10
104.504
 20
86.3657
 30
0.0
 40
0
 41
0
  0
VERTEX
  8
0
 10
104.504
 20
87.3385
 30
0.0
 40
0
 41
0
  0
SEQEND
 8
0
  0
POLYLINE
  8
0
 62
     0
 66
     1
 10
0
 20
0
 30
0.0
 70
     1
 40
0
 41
0
  0
VERTEX
  8
0
 10
104.504
 20
85.2157
 30
0.0
 40
0
 41
0
  0
VERTEX
  8
0
 10
105.932
 20
85.2157
 30
0.0
 40
0
 41
0
  0
VERTEX
  8
0
 10
105.932
 20
84.2431
 30
0.0
 40
0
 41
0
  0
VERTEX
  8
0
 10
104.504
 20
84.2431
 30
0.0
 40
0
 41
0
  0
VERTEX
  8
0
 10
104.504
 20
85.2157
 30
0.0
 40
0
 41
0
  0
SEQEND
 8
0
  0
POLYLINE
  8
0
 62
     0
 66
     1
 10
0
 20
0
 30
0.0
 70
     1
 40
0
 41
0
  0
VERTEX
  8
0
 10
90.8681
 20
89.2121
 30
0.0
 40
0
 41
0
  0
VERTEX
  8
0
 10
93.2044
 20
89.2121
 30
0.0
 40
0
 41
0
  0
VERTEX
  8
0
 10
93.2044
 20
87.7847
 30
0.0
 40
0
 41
0
  0
VERTEX
  8
0
 10
90.8681
 20
87.7847
 30
0.0
 40
0
 41
0
  0
VERTEX
  8
0
 10
90.8681
 20
89.2121
 30
0.0
 40
0
 41
0
  0
SEQEND
 8
0
  0
POLYLINE
  8
0
 62
     0
 66
     1
 10
0
 20
0
 30
0.0
 70
     1
 40
0
 41
0
  0
VERTEX
  8
0
 10
90.8681
 20
68.0114
 30
0.0
 40
0
 41
0
  0
VERTEX
  8
0
 10
93.2044
 20
68.0114
 30
0.0
 40
0
 41
0
  0
VERTEX
  8
0
 10
93.2044
 20
66.5842
 30
0.0
 40
0
 41
0
  0
VERTEX
  8
0
 10
90.8681
 20
66.5842
 30
0.0
 40
0
 41
0
  0
VERTEX
  8
0
 10
90.8681
 20
68.0114
 30
0.0
 40
0
 41
0
  0
SEQEND
 8
0
  0
POLYLINE
  8
0
 62
     0
 66
     1
 10
0
 20
0
 30
0.0
 70
     1
 40
0
 41
0
  0
VERTEX
  8
0
 10
90.8681
 20
59.9883
 30
0.0
 40
0
 41
0
  0
VERTEX
  8
0
 10
93.2044
 20
59.9883
 30
0.0
 40
0
 41
0
  0
VERTEX
  8
0
 10
93.2044
 20
58.5611
 30
0.0
 40
0
 41
0
  0
VERTEX
  8
0
 10
90.8681
 20
58.5611
 30
0.0
 40
0
 41
0
  0
VERTEX
  8
0
 10
90.8681
 20
59.9883
 30
0.0
 40
0
 41
0
  0
SEQEND
 8
0
  0
POLYLINE
  8
0
 62
     0
 66
     1
 10
0
 20
0
 30
0.0
 70
     1
 40
0
 41
0
  0
VERTEX
  8
0
 10
104.504
 20
75.4343
 30
0.0
 40
0
 41
0
  0
VERTEX
  8
0
 10
105.932
 20
75.4343
 30
0.0
 40
0
 41
0
  0
VERTEX
  8
0
 10
105.932
 20
74.4615
 30
0.0
 40
0
 41
0
  0
VERTEX
  8
0
 10
104.504
 20
74.4615
 30
0.0
 40
0
 41
0
  0
VERTEX
  8
0
 10
104.504
 20
75.4343
 30
0.0
 40
0
 41
0
  0
SEQEND
 8
0
  0
POLYLINE
  8
0
 62
     0
 66
     1
 10
0
 20
0
 30
0.0
 70
     1
 40
0
 41
0
  0
VERTEX
  8
0
 10
94.3544
 20
89.2121
 30
0.0
 40
0
 41
0
  0
VERTEX
  8
0
 10
96.6908
 20
89.2121
 30
0.0
 40
0
 41
0
  0
VERTEX
  8
0
 10
96.6908
 20
87.7847
 30
0.0
 40
0
 41
0
  0
VERTEX
  8
0
 10
94.3544
 20
87.7847
 30
0.0
 40
0
 41
0
  0
VERTEX
  8
0
 10
94.3544
 20
89.2121
 30
0.0
 40
0
 41
0
  0
SEQEND
 8
0
  0
POLYLINE
  8
0
 62
     0
 66
     1
 10
0
 20
0
 30
0.0
 70
     1
 40
0
 41
0
  0
VERTEX
  8
0
 10
94.3544
 20
91.7893
 30
0.0
 40
0
 41
0
  0
VERTEX
  8
0
 10
96.6908
 20
91.7893
 30
0.0
 40
0
 41
0
  0
VERTEX
  8
0
 10
96.6908
 20
90.3621
 30
0.0
 40
0
 41
0
  0
VERTEX
  8
0
 10
94.3544
 20
90.3621
 30
0.0
 40
0
 41
0
  0
VERTEX
  8
0
 10
94.3544
 20
91.7893
 30
0.0
 40
0
 41
0
  0
SEQEND
 8
0
  0
POLYLINE
  8
0
 62
     0
 66
     1
 10
0
 20
0
 30
0.0
 70
     1
 40
0
 41
0
  0
VERTEX
  8
0
 10
107.082
 20
73.3115
 30
0.0
 40
0
 41
0
  0
VERTEX
  8
0
 10
108.509
 20
73.3115
 30
0.0
 40
0
 41
0
  0
VERTEX
  8
0
 10
108.509
 20
72.3388
 30
0.0
 40
0
 41
0
  0
VERTEX
  8
0
 10
107.082
 20
72.3388
 30
0.0
 40
0
 41
0
  0
VERTEX
  8
0
 10
107.082
 20
73.3115
 30
0.0
 40
0
 41
0
  0
SEQEND
 8
0
  0
POLYLINE
  8
0
 62
     0
 66
     1
 10
0
 20
0
 30
0.0
 70
     1
 40
0
 41
0
  0
VERTEX
  8
0
 10
90.8681
 20
78.6117
 30
0.0
 40
0
 41
0
  0
VERTEX
  8
0
 10
93.2044
 20
78.6117
 30
0.0
 40
0
 41
0
  0
VERTEX
  8
0
 10
93.2044
 20
77.1844
 30
0.0
 40
0
 41
0
  0
VERTEX
  8
0
 10
90.8681
 20
77.1844
 30
0.0
 40
0
 41
0
  0
VERTEX
  8
0
 10
90.8681
 20
78.6117
 30
0.0
 40
0
 41
0
  0
SEQEND
 8
0
  0
POLYLINE
  8
0
 62
     0
 66
     1
 10
0
 20
0
 30
0.0
 70
     1
 40
0
 41
0
  0
VERTEX
  8
0
 10
107.082
 20
61.4074
 30
0.0
 40
0
 41
0
  0
VERTEX
  8
0
 10
108.509
 20
61.4074
 30
0.0
 40
0
 41
0
  0
VERTEX
  8
0
 10
108.509
 20
60.4347
 30
0.0
 40
0
 41
0
  0
VERTEX
  8
0
 10
107.082
 20
60.4347
 30
0.0
 40
0
 41
0
  0
VERTEX
  8
0
 10
107.082
 20
61.4074
 30
0.0
 40
0
 41
0
  0
SEQEND
 8
0
  0
POLYLINE
  8
0
 62
     0
 66
     1
 10
0
 20
0
 30
0.0
 70
     1
 40
0
 41
0
  0
VERTEX
  8
0
 10
90.8681
 20
70.5888
 30
0.0
 40
0
 41
0
  0
VERTEX
  8
0
 10
93.2044
 20
70.5888
 30
0.0
 40
0
 41
0
  0
VERTEX
  8
0
 10
93.2044
 20
69.1614
 30
0.0
 40
0
 41
0
  0
VERTEX
  8
0
 10
90.8681
 20
69.1614
 30
0.0
 40
0
 41
0
  0
VERTEX
  8
0
 10
90.8681
 20
70.5888
 30
0.0
 40
0
 41
0
  0
SEQEND
 8
0
  0
POLYLINE
  8
0
 62
     0
 66
     1
 10
0
 20
0
 30
0.0
 70
     1
 40
0
 41
0
  0
VERTEX
  8
0
 10
99.0682
 20
66.9893
 30
0.0
 40
0
 41
0
  0
VERTEX
  8
0
 10
100.118
 20
66.9893
 30
0.0
 40
0
 41
0
  0
VERTEX
  8
0
 10
100.118
 20
57.0393
 30
0.0
 40
0
 41
0
  0
VERTEX
  8
0
 10
99.0682
 20
57.0393
 30
0.0
 40
0
 41
0
  0
VERTEX
  8
0
 10
99.0682
 20
66.9893
 30
0.0
 40
0
 41
0
  0
SEQEND
 8
0
  0
POLYLINE
  8
0
 62
     0
 66
     1
 10
0
 20
0
 30
0.0
 70
     1
 40
0
 41
0
  0
VERTEX
  8
0
 10
99.0682
 20
90.7339
 30
0.0
 40
0
 41
0
  0
VERTEX
  8
0
 10
100.118
 20
90.7339
 30
0.0
 40
0
 41
0
  0
VERTEX
  8
0
 10
100.118
 20
80.7839
 30
0.0
 40
0
 41
0
  0
VERTEX
  8
0
 10
99.0682
 20
80.7839
 30
0.0
 40
0
 41
0
  0
VERTEX
  8
0
 10
99.0682
 20
90.7339
 30
0.0
 40
0
 41
0
  0
SEQEND
 8
0
  0
POLYLINE
  8
0
 62
     0
 66
     1
 10
0
 20
0
 30
0.0
 70
     1
 40
0
 41
0
  0
VERTEX
  8
0
 10
89.4754
 20
51.2343
 30
0.0
 40
0
 41
0
  0
VERTEX
  8
0
 10
112.739
 20
51.2343
 30
0.0
 40
0
 41
0
  0
VERTEX
  8
0
 10
112.739
 20
5.72965
 30
0.0
 40
0
 41
0
  0
VERTEX
  8
0
 10
89.4754
 20
5.72965
 30
0.0
 40
0
 41
0
  0
VERTEX
  8
0
 10
89.4754
 20
51.2343
 30
0.0
 40
0
 41
0
  0
SEQEND
 8
0
  0
POLYLINE
  8
0
 62
     0
 66
     1
 10
0
 20
0
 30
0.0
 70
     1
 40
0
 41
0
  0
VERTEX
  8
0
 10
67.8456
 20
154.554
 30
0.0
 40
0
 41
0
  0
VERTEX
  8
0
 10
66.7456
 20
154.554
 30
0.0
 40
0
 41
0
  0
VERTEX
  8
0
 10
66.7456
 20
147.654
 30
0.0
 40
0
 41
0
  0
VERTEX
  8
0
 10
49.6864
 20
147.654
 30
0.0
 40
0
 41
0
  0
VERTEX
  8
0
 10
49.6864
 20
166.376
 30
0.0
 40
0
 41
0
  0
VERTEX
  8
0
 10
61.241
 20
166.376
 30
0.0
 40
0
 41
0
  0
VERTEX
  8
0
 10
61.241
 20
172.236
 30
0.0
 40
0
 41
0
  0
VERTEX
  8
0
 10
49.6864
 20
172.236
 30
0.0
 40
0
 41
0
  0
VERTEX
  8
0
 10
49.6864
 20
190.958
 30
0.0
 40
0
 41
0
  0
VERTEX
  8
0
 10
66.7456
 20
190.958
 30
0.0
 40
0
 41
0
  0
VERTEX
  8
0
 10
66.7456
 20
184.058
 30
0.0
 40
0
 41
0
  0
VERTEX
  8
0
 10
67.8456
 20
184.058
 30
0.0
 40
0
 41
0
  0
VERTEX
  8
0
 10
67.8456
 20
176.008
 30
0.0
 40
0
 41
0
  0
VERTEX
  8
0
 10
66.7456
 20
176.008
 30
0.0
 40
0
 41
0
  0
VERTEX
  8
0
 10
66.7456
 20
162.604
 30
0.0
 40
0
 41
0
  0
VERTEX
  8
0
 10
67.8456
 20
162.604
 30
0.0
 40
0
 41
0
  0
VERTEX
  8
0
 10
67.8456
 20
154.554
 30
0.0
 40
0
 41
0
  0
SEQEND
 8
0
  0
POLYLINE
  8
0
 62
     0
 66
     1
 10
0
 20
0
 30
0.0
 70
     1
 40
0
 41
0
  0
VERTEX
  8
0
 10
52.6546
 20
164.06
 30
0.0
 40
0
 41
0
  0
VERTEX
  8
0
 10
62.6626
 20
164.06
 30
0.0
 40
0
 41
0
  0
VERTEX
  8
0
 10
62.6626
 20
149.786
 30
0.0
 40
0
 41
0
  0
VERTEX
  8
0
 10
52.6546
 20
149.786
 30
0.0
 40
0
 41
0
  0
VERTEX
  8
0
 10
52.6546
 20
164.06
 30
0.0
 40
0
 41
0
  0
SEQEND
 8
0
  0
POLYLINE
  8
0
 62
     0
 66
     1
 10
0
 20
0
 30
0.0
 70
     1
 40
0
 41
0
  0
VERTEX
  8
0
 10
52.6546
 20
188.826
 30
0.0
 40
0
 41
0
  0
VERTEX
  8
0
 10
62.6626
 20
188.826
 30
0.0
 40
0
 41
0
  0
VERTEX
  8
0
 10
62.6626
 20
174.553
 30
0.0
 40
0
 41
0
  0
VERTEX
  8
0
 10
52.6546
 20
174.553
 30
0.0
 40
0
 41
0
  0
VERTEX
  8
0
 10
52.6546
 20
188.826
 30
0.0
 40
0
 41
0
  0
SEQEND
 8
0
  0
POLYLINE
  8
0
 62
     0
 66
     1
 10
0
 20
0
 30
0.0
 70
     1
 40
0
 41
0
  0
VERTEX
  8
0
 10
90.3722
 20
146.654
 30
0.0
 40
0
 41
0
  0
VERTEX
  8
0
 10
113.636
 20
146.654
 30
0.0
 40
0
 41
0
  0
VERTEX
  8
0
 10
113.636
 20
101.149
 30
0.0
 40
0
 41
0
  0
VERTEX
  8
0
 10
90.3722
 20
101.149
 30
0.0
 40
0
 41
0
  0
VERTEX
  8
0
 10
90.3722
 20
146.654
 30
0.0
 40
0
 41
0
  0
SEQEND
 8
0
  0
ENDSEC
  0
EOF
