0
SECTION
2
HEADER
9
$INSUNITS
70
4
9
$ACADVER
1
AC1014
9
$HANDSEED
5
FFFF
0
ENDSEC
0
SECTION
2
TABLES
0
TABLE
2
VPORT
5
8
100
AcDbSymbolTable
0
ENDTAB
0
TABLE
2
LTYPE
5
5
100
AcDbSymbolTable
70
2
0
LTYPE
5
14
100
AcDbSymbolTableRecord
100
AcDbLinetypeTableRecord
2
BYBLOCK
70
0
0
LTYPE
5
15
100
AcDbSymbolTableRecord
100
AcDbLinetypeTableRecord
2
BYLAYER
70
0
0
ENDTAB
0
TABLE
2
LAYER
5
2
100
AcDbSymbolTable
70
3
0
LAYER
5
50
100
AcDbSymbolTableRecord
100
AcDbLayerTableRecord
2
0
70
0
6
CONTINUOUS
0
LAYER
5
51
100
AcDbSymbolTableRecord
100
AcDbLayerTableRecord
2
CUTOUTS
70
0
62
1
6
CONTINUOUS
0
LAYER
5
52
100
AcDbSymbolTableRecord
100
AcDbLayerTableRecord
2
PERIMETER
70
0
62
5
6
CONTINUOUS
0
ENDTAB
0
TABLE
2
STYLE
5
3
100
AcDbSymbolTable
70
1
0
STYLE
5
11
100
AcDbSymbolTableRecord
100
AcDbTextStyleTableRecord
2
STANDARD
70
0
0
ENDTAB
0
TABLE
2
VIEW
5
6
100
AcDbSymbolTable
0
ENDTAB
0
TABLE
2
UCS
5
7
100
AcDbSymbolTable
0
ENDTAB
0
TABLE
2
APPID
5
9
100
AcDbSymbolTable
70
1
0
APPID
5
12
100
AcDbSymbolTableRecord
100
AcDbRegAppTableRecord
2
ACAD
70
0
0
ENDTAB
0
TABLE
2
DIMSTYLE
5
A
100
AcDbSymbolTable
0
ENDTAB
0
TABLE
2
BLOCK_RECORD
5
1
100
AcDbSymbolTable
70
2
0
BLOCK_RECORD
5
1F
100
AcDbSymbolTableRecord
100
AcDbBlockTableRecord
2
*MODEL_SPACE
0
BLOCK_RECORD
5
1B
100
AcDbSymbolTableRecord
100
AcDbBlockTableRecord
2
*PAPER_SPACE
0
ENDTAB
0
ENDSEC
0
SECTION
2
BLOCKS
0
BLOCK
5
20
100
AcDbEntity
100
AcDbBlockBegin
2
*MODEL_SPACE
0
ENDBLK
5
21
100
AcDbEntity
100
AcDbBlockEnd
0
BLOCK
5
1C
100
AcDbEntity
100
AcDbBlockBegin
2
*PAPER_SPACE
0
ENDBLK
5
1D
100
AcDbEntity
100
AcDbBlockEnd
0
ENDSEC
0
SECTION
2
ENTITIES
0
LINE
5
100
100
AcDbEntity
8
CUTOUTS
100
AcDbLine
10
2.9795454545454536
20
-7.9295454545454582
30
0
11
2.9795454545454536
21
-6.8795454545454575
31
0
0
LINE
5
101
100
AcDbEntity
8
CUTOUTS
100
AcDbLine
10
2.9795454545454536
20
-6.8795454545454575
30
0
11
21.60227272727273
21
-6.8795454545454575
31
0
0
LINE
5
102
100
AcDbEntity
8
CUTOUTS
100
AcDbLine
10
21.60227272727273
20
-6.8795454545454575
30
0
11
21.60227272727273
21
-7.9295454545454582
31
0
0
LINE
5
103
100
AcDbEntity
8
CUTOUTS
100
AcDbLine
10
21.60227272727273
20
-7.9295454545454582
30
0
11
2.9795454545454536
21
-7.9295454545454582
31
0
0
LINE
5
104
100
AcDbEntity
8
CUTOUTS
100
AcDbLine
10
-2.9795454545454554
20
-7.9295454545454565
30
0
11
-21.602272727272727
21
-7.9295454545454582
31
0
0
LINE
5
105
100
AcDbEntity
8
CUTOUTS
100
AcDbLine
10
-21.602272727272727
20
-7.9295454545454591
30
0
11
-21.602272727272727
21
-6.8795454545454593
31
0
0
LINE
5
106
100
AcDbEntity
8
CUTOUTS
100
AcDbLine
10
-21.602272727272727
20
-6.8795454545454593
30
0
11
-2.9795454545454558
21
-6.8795454545454584
31
0
0
LINE
5
107
100
AcDbEntity
8
CUTOUTS
100
AcDbLine
10
-2.9795454545454558
20
-6.8795454545454575
30
0
11
-2.9795454545454554
21
-7.9295454545454565
31
0
0
LINE
5
108
100
AcDbEntity
8
CUTOUTS
100
AcDbLine
10
9.6522727272727327
20
19.293181818181822
30
0
11
17.602272727272734
21
19.293181818181822
31
0
0
LINE
5
109
100
AcDbEntity
8
CUTOUTS
100
AcDbLine
10
17.602272727272734
20
19.293181818181822
30
0
11
17.602272727272734
21
18.243181818181821
31
0
0
LINE
5
10A
100
AcDbEntity
8
CUTOUTS
100
AcDbLine
10
17.602272727272734
20
18.243181818181821
30
0
11
9.6522727272727327
21
18.243181818181821
31
0
0
LINE
5
10B
100
AcDbEntity
8
CUTOUTS
100
AcDbLine
10
9.6522727272727327
20
18.243181818181821
30
0
11
9.6522727272727327
21
19.293181818181822
31
0
0
LINE
5
10C
100
AcDbEntity
8
CUTOUTS
100
AcDbLine
10
-4.4635684981765955
20
12.160053200033731
30
0
11
-4.4635684981765955
21
19.293181818181822
31
0
0
LINE
5
10D
100
AcDbEntity
8
CUTOUTS
100
AcDbLine
10
-4.4635684981765955
20
19.293181818181822
30
0
11
4.4635684981765955
21
19.293181818181822
31
0
0
LINE
5
10E
100
AcDbEntity
8
CUTOUTS
100
AcDbLine
10
4.4635684981765955
20
19.293181818181822
30
0
11
4.4635684981765955
21
12.160053200033731
31
0
0
LINE
5
10F
100
AcDbEntity
8
CUTOUTS
100
AcDbLine
10
4.4635684981765955
20
12.160053200033731
30
0
11
-4.4635684981765955
21
12.160053200033731
31
0
0
LINE
5
110
100
AcDbEntity
8
CUTOUTS
100
AcDbLine
10
-14.764481366722295
20
18.243181818181821
30
0
11
-14.764481366722295
21
19.293181818181822
31
0
0
LINE
5
111
100
AcDbEntity
8
CUTOUTS
100
AcDbLine
10
-14.764481366722295
20
19.293181818181822
30
0
11
-9.8144813667222941
21
19.293181818181822
31
0
0
LINE
5
112
100
AcDbEntity
8
CUTOUTS
100
AcDbLine
10
-9.8144813667222941
20
19.293181818181822
30
0
11
-9.8144813667222941
21
18.243181818181821
31
0
0
LINE
5
113
100
AcDbEntity
8
CUTOUTS
100
AcDbLine
10
-9.8144813667222941
20
18.243181818181821
30
0
11
-14.764481366722295
21
18.243181818181821
31
0
0
LINE
5
114
100
AcDbEntity
8
CUTOUTS
100
AcDbLine
10
-21.602272727272727
20
18.243181818181821
30
0
11
-21.602272727272727
21
19.293181818181822
31
0
0
LINE
5
115
100
AcDbEntity
8
CUTOUTS
100
AcDbLine
10
-21.602272727272727
20
19.293181818181822
30
0
11
-18.450845003085938
21
19.293181818181822
31
0
0
LINE
5
116
100
AcDbEntity
8
CUTOUTS
100
AcDbLine
10
-18.450845003085938
20
19.293181818181822
30
0
11
-18.450845003085938
21
18.243181818181821
31
0
0
LINE
5
117
100
AcDbEntity
8
CUTOUTS
100
AcDbLine
10
-18.450845003085938
20
18.243181818181821
30
0
11
-21.602272727272727
21
18.243181818181821
31
0
0
LINE
5
118
100
AcDbEntity
8
CUTOUTS
100
AcDbLine
10
22.702272727272728
20
3.9749999999999486
30
0
11
22.702272727272728
21
-3.9750000000000507
31
0
0
LINE
5
119
100
AcDbEntity
8
CUTOUTS
100
AcDbLine
10
22.702272727272728
20
-3.9750000000000507
30
0
11
21.652272727272731
21
-3.9750000000000507
31
0
0
LINE
5
11A
100
AcDbEntity
8
CUTOUTS
100
AcDbLine
10
21.652272727272731
20
-3.9750000000000507
30
0
11
21.652272727272731
21
3.9749999999999486
31
0
0
LINE
5
11B
100
AcDbEntity
8
CUTOUTS
100
AcDbLine
10
21.652272727272731
20
3.9749999999999486
30
0
11
22.702272727272728
21
3.9749999999999486
31
0
0
LINE
5
11C
100
AcDbEntity
8
CUTOUTS
100
AcDbLine
10
21.652272727272731
20
-18.243181818181821
30
0
11
21.652272727272731
21
-17.525000000000006
31
0
0
LINE
5
11D
100
AcDbEntity
8
CUTOUTS
100
AcDbLine
10
21.652272727272731
20
-17.525000000000002
30
0
11
22.702272727272728
21
-17.525000000000002
31
0
0
LINE
5
11E
100
AcDbEntity
8
CUTOUTS
100
AcDbLine
10
22.702272727272728
20
-17.525000000000002
30
0
11
22.702272727272728
21
-19.293181818181818
31
0
0
LINE
5
11F
100
AcDbEntity
8
CUTOUTS
100
AcDbLine
10
22.702272727272728
20
-19.293181818181818
30
0
11
19.570454545454552
21
-19.293181818181822
31
0
0
LINE
5
120
100
AcDbEntity
8
CUTOUTS
100
AcDbLine
10
19.570454545454552
20
-19.293181818181822
30
0
11
19.570454545454552
21
-18.243181818181821
31
0
0
LINE
5
121
100
AcDbEntity
8
CUTOUTS
100
AcDbLine
10
19.570454545454552
20
-18.243181818181821
30
0
11
21.652272727272731
21
-18.243181818181821
31
0
0
LINE
5
122
100
AcDbEntity
8
CUTOUTS
100
AcDbLine
10
-22.702272727272728
20
3.9749999999999486
30
0
11
-21.652272727272724
21
3.9749999999999486
31
0
0
LINE
5
123
100
AcDbEntity
8
CUTOUTS
100
AcDbLine
10
-21.652272727272724
20
3.9749999999999486
30
0
11
-21.652272727272724
21
-3.9750000000000507
31
0
0
LINE
5
124
100
AcDbEntity
8
CUTOUTS
100
AcDbLine
10
-21.652272727272724
20
-3.9750000000000507
30
0
11
-22.702272727272728
21
-3.9750000000000507
31
0
0
LINE
5
125
100
AcDbEntity
8
CUTOUTS
100
AcDbLine
10
-22.702272727272728
20
-3.9750000000000507
30
0
11
-22.702272727272728
21
3.9749999999999486
31
0
0
LINE
5
126
100
AcDbEntity
8
CUTOUTS
100
AcDbLine
10
-19.570454545454549
20
-19.293181818181822
30
0
11
-22.702272727272728
21
-19.293181818181818
31
0
0
LINE
5
127
100
AcDbEntity
8
CUTOUTS
100
AcDbLine
10
-22.702272727272728
20
-19.293181818181818
30
0
11
-22.702272727272728
21
-17.525000000000002
31
0
0
LINE
5
128
100
AcDbEntity
8
CUTOUTS
100
AcDbLine
10
-22.702272727272728
20
-17.525000000000002
30
0
11
-21.652272727272724
21
-17.525000000000002
31
0
0
LINE
5
129
100
AcDbEntity
8
CUTOUTS
100
AcDbLine
10
-21.652272727272724
20
-17.525000000000002
30
0
11
-21.652272727272724
21
-18.243181818181821
31
0
0
LINE
5
12A
100
AcDbEntity
8
CUTOUTS
100
AcDbLine
10
-21.652272727272731
20
-18.243181818181821
30
0
11
-19.570454545454549
21
-18.243181818181821
31
0
0
LINE
5
12B
100
AcDbEntity
8
CUTOUTS
100
AcDbLine
10
-19.570454545454549
20
-18.243181818181821
30
0
11
-19.570454545454549
21
-19.293181818181822
31
0
0
LINE
5
12C
100
AcDbEntity
8
CUTOUTS
100
AcDbLine
10
-7.8537878787878812
20
-19.293181818181822
30
0
11
-7.8537878787878812
21
-18.243181818181821
31
0
0
LINE
5
12D
100
AcDbEntity
8
CUTOUTS
100
AcDbLine
10
-7.8537878787878812
20
-18.243181818181821
30
0
11
-6.0856060606060645
21
-18.243181818181821
31
0
0
LINE
5
12E
100
AcDbEntity
8
CUTOUTS
100
AcDbLine
10
-6.0856060606060662
20
-18.243181818181821
30
0
11
-6.0856060606060662
21
-19.293181818181822
31
0
0
LINE
5
12F
100
AcDbEntity
8
CUTOUTS
100
AcDbLine
10
-6.0856060606060662
20
-19.293181818181822
30
0
11
-7.8537878787878821
21
-19.293181818181822
31
0
0
LINE
5
130
100
AcDbEntity
8
CUTOUTS
100
AcDbLine
10
5.6310606060606005
20
-19.293181818181822
30
0
11
5.6310606060606005
21
-18.243181818181821
31
0
0
LINE
5
131
100
AcDbEntity
8
CUTOUTS
100
AcDbLine
10
5.6310606060606005
20
-18.243181818181821
30
0
11
7.8537878787878768
21
-18.243181818181821
31
0
0
LINE
5
132
100
AcDbEntity
8
CUTOUTS
100
AcDbLine
10
7.8537878787878768
20
-18.243181818181821
30
0
11
7.8537878787878768
21
-19.293181818181822
31
0
0
LINE
5
133
100
AcDbEntity
8
CUTOUTS
100
AcDbLine
10
7.8537878787878768
20
-19.293181818181822
30
0
11
5.6310606060606005
21
-19.293181818181822
31
0
0
LINE
5
134
100
AcDbEntity
8
PERIMETER
100
AcDbLine
10
27.752272727272729
20
24.343181818181819
30
0
11
-27.752272727272729
21
24.343181818181819
31
0
0
LINE
5
135
100
AcDbEntity
8
PERIMETER
100
AcDbLine
10
-27.752272727272729
20
24.343181818181819
30
0
11
-27.752272727272729
21
-24.343181818181819
31
0
0
LINE
5
136
100
AcDbEntity
8
PERIMETER
100
AcDbLine
10
-27.752272727272729
20
-24.343181818181819
30
0
11
27.752272727272729
21
-24.343181818181819
31
0
0
LINE
5
137
100
AcDbEntity
8
PERIMETER
100
AcDbLine
10
27.752272727272729
20
-24.343181818181819
30
0
11
27.752272727272729
21
24.343181818181819
31
0
0
ENDSEC
0
SECTION
2
OBJECTS
0
DICTIONARY
5
C
100
AcDbDictionary
3
ACAD_GROUP
350
D
3
ACAD_MLINESTYLE
350
17
0
DICTIONARY
5
D
100
AcDbDictionary
0
DICTIONARY
5
1A
330
C
100
AcDbDictionary
0
DICTIONARY
5
17
100
AcDbDictionary
0
ENDSEC
0
EOF
