0
SECTION
2
HEADER
9
$INSUNITS
70
4
9
$ACADVER
1
AC1014
9
$HANDSEED
5
FFFF
0
ENDSEC
0
SECTION
2
TABLES
0
TABLE
2
VPORT
5
8
100
AcDbSymbolTable
0
ENDTAB
0
TABLE
2
LTYPE
5
5
100
AcDbSymbolTable
70
2
0
LTYPE
5
14
100
AcDbSymbolTableRecord
100
AcDbLinetypeTableRecord
2
BYBLOCK
70
0
0
LTYPE
5
15
100
AcDbSymbolTableRecord
100
AcDbLinetypeTableRecord
2
BYLAYER
70
0
0
ENDTAB
0
TABLE
2
LAYER
5
2
100
AcDbSymbolTable
70
3
0
LAYER
5
50
100
AcDbSymbolTableRecord
100
AcDbLayerTableRecord
2
0
70
0
6
CONTINUOUS
0
LAYER
5
51
100
AcDbSymbolTableRecord
100
AcDbLayerTableRecord
2
CUTOUTS
70
0
62
1
6
CONTINUOUS
0
LAYER
5
52
100
AcDbSymbolTableRecord
100
AcDbLayerTableRecord
2
PERIMETER
70
0
62
5
6
CONTINUOUS
0
ENDTAB
0
TABLE
2
STYLE
5
3
100
AcDbSymbolTable
70
1
0
STYLE
5
11
100
AcDbSymbolTableRecord
100
AcDbTextStyleTableRecord
2
STANDARD
70
0
0
ENDTAB
0
TABLE
2
VIEW
5
6
100
AcDbSymbolTable
0
ENDTAB
0
TABLE
2
UCS
5
7
100
AcDbSymbolTable
0
ENDTAB
0
TABLE
2
APPID
5
9
100
AcDbSymbolTable
70
1
0
APPID
5
12
100
AcDbSymbolTableRecord
100
AcDbRegAppTableRecord
2
ACAD
70
0
0
ENDTAB
0
TABLE
2
DIMSTYLE
5
A
100
AcDbSymbolTable
0
ENDTAB
0
TABLE
2
BLOCK_RECORD
5
1
100
AcDbSymbolTable
70
2
0
BLOCK_RECORD
5
1F
100
AcDbSymbolTableRecord
100
AcDbBlockTableRecord
2
*MODEL_SPACE
0
BLOCK_RECORD
5
1B
100
AcDbSymbolTableRecord
100
AcDbBlockTableRecord
2
*PAPER_SPACE
0
ENDTAB
0
ENDSEC
0
SECTION
2
BLOCKS
0
BLOCK
5
20
100
AcDbEntity
100
AcDbBlockBegin
2
*MODEL_SPACE
0
ENDBLK
5
21
100
AcDbEntity
100
AcDbBlockEnd
0
BLOCK
5
1C
100
AcDbEntity
100
AcDbBlockBegin
2
*PAPER_SPACE
0
ENDBLK
5
1D
100
AcDbEntity
100
AcDbBlockEnd
0
ENDSEC
0
SECTION
2
ENTITIES
0
LINE
5
100
100
AcDbEntity
8
CUTOUTS
100
AcDbLine
10
13.898160121584969
20
-3.3204545454545409
30
0
11
15.325432848857696
21
-3.3204545454545409
31
0
0
LINE
5
101
100
AcDbEntity
8
CUTOUTS
100
AcDbLine
10
15.325432848857696
20
-3.3204545454545409
30
0
11
15.325432848857696
21
-5.6568181818181795
31
0
0
LINE
5
102
100
AcDbEntity
8
CUTOUTS
100
AcDbLine
10
15.325432848857696
20
-5.6568181818181795
30
0
11
13.898160121584969
21
-5.6568181818181795
31
0
0
LINE
5
103
100
AcDbEntity
8
CUTOUTS
100
AcDbLine
10
13.898160121584969
20
-5.6568181818181795
30
0
11
13.898160121584969
21
-3.3204545454545409
31
0
0
LINE
5
104
100
AcDbEntity
8
CUTOUTS
100
AcDbLine
10
16.4754328488577
20
-5.6568181818181795
30
0
11
16.4754328488577
21
-3.3204545454545409
31
0
0
LINE
5
105
100
AcDbEntity
8
CUTOUTS
100
AcDbLine
10
16.4754328488577
20
-3.3204545454545409
30
0
11
17.90270557613043
21
-3.3204545454545409
31
0
0
LINE
5
106
100
AcDbEntity
8
CUTOUTS
100
AcDbLine
10
17.90270557613043
20
-3.3204545454545409
30
0
11
17.90270557613043
21
-5.6568181818181795
31
0
0
LINE
5
107
100
AcDbEntity
8
CUTOUTS
100
AcDbLine
10
17.90270557613043
20
-5.6568181818181795
30
0
11
16.4754328488577
21
-5.6568181818181795
31
0
0
LINE
5
108
100
AcDbEntity
8
CUTOUTS
100
AcDbLine
10
5.8751442829525775
20
-5.6568181818181795
30
0
11
5.8751442829525775
21
-3.3204545454545409
31
0
0
LINE
5
109
100
AcDbEntity
8
CUTOUTS
100
AcDbLine
10
5.8751442829525775
20
-3.3204545454545409
30
0
11
7.3024170102253105
21
-3.3204545454545409
31
0
0
LINE
5
10A
100
AcDbEntity
8
CUTOUTS
100
AcDbLine
10
7.3024170102253105
20
-3.3204545454545409
30
0
11
7.3024170102253105
21
-5.6568181818181795
31
0
0
LINE
5
10B
100
AcDbEntity
8
CUTOUTS
100
AcDbLine
10
7.3024170102253105
20
-5.6568181818181795
30
0
11
5.8751442829525775
21
-5.6568181818181795
31
0
0
LINE
5
10C
100
AcDbEntity
8
CUTOUTS
100
AcDbLine
10
17.90270557613043
20
-9.1431818181818194
30
0
11
16.4754328488577
21
-9.1431818181818194
31
0
0
LINE
5
10D
100
AcDbEntity
8
CUTOUTS
100
AcDbLine
10
16.4754328488577
20
-9.1431818181818194
30
0
11
16.4754328488577
21
-6.8068181818181817
31
0
0
LINE
5
10E
100
AcDbEntity
8
CUTOUTS
100
AcDbLine
10
16.4754328488577
20
-6.8068181818181817
30
0
11
17.90270557613043
21
-6.8068181818181817
31
0
0
LINE
5
10F
100
AcDbEntity
8
CUTOUTS
100
AcDbLine
10
17.90270557613043
20
-6.8068181818181817
30
0
11
17.90270557613043
21
-9.1431818181818194
31
0
0
LINE
5
110
100
AcDbEntity
8
CUTOUTS
100
AcDbLine
10
-17.902705576130419
20
-6.8068181818181817
30
0
11
-16.475432848857686
21
-6.8068181818181817
31
0
0
LINE
5
111
100
AcDbEntity
8
CUTOUTS
100
AcDbLine
10
-16.475432848857686
20
-6.8068181818181817
30
0
11
-16.475432848857686
21
-9.1431818181818194
31
0
0
LINE
5
112
100
AcDbEntity
8
CUTOUTS
100
AcDbLine
10
-16.475432848857686
20
-9.1431818181818194
30
0
11
-17.902705576130419
21
-9.1431818181818194
31
0
0
LINE
5
113
100
AcDbEntity
8
CUTOUTS
100
AcDbLine
10
-17.902705576130419
20
-9.1431818181818194
30
0
11
-17.902705576130419
21
-6.8068181818181817
31
0
0
LINE
5
114
100
AcDbEntity
8
CUTOUTS
100
AcDbLine
10
3.2978715556798477
20
-3.3204545454545409
30
0
11
4.7251442829525807
21
-3.3204545454545409
31
0
0
LINE
5
115
100
AcDbEntity
8
CUTOUTS
100
AcDbLine
10
4.7251442829525807
20
-3.3204545454545409
30
0
11
4.7251442829525807
21
-5.6568181818181795
31
0
0
LINE
5
116
100
AcDbEntity
8
CUTOUTS
100
AcDbLine
10
4.7251442829525807
20
-5.6568181818181795
30
0
11
3.2978715556798477
21
-5.6568181818181795
31
0
0
LINE
5
117
100
AcDbEntity
8
CUTOUTS
100
AcDbLine
10
3.2978715556798477
20
-5.6568181818181795
30
0
11
3.2978715556798477
21
-3.3204545454545409
31
0
0
LINE
5
118
100
AcDbEntity
8
CUTOUTS
100
AcDbLine
10
-4.7251442829525638
20
-5.6568181818181795
30
0
11
-4.7251442829525638
21
-3.3204545454545409
31
0
0
LINE
5
119
100
AcDbEntity
8
CUTOUTS
100
AcDbLine
10
-4.7251442829525638
20
-3.3204545454545409
30
0
11
-3.2978715556798348
21
-3.3204545454545409
31
0
0
LINE
5
11A
100
AcDbEntity
8
CUTOUTS
100
AcDbLine
10
-3.2978715556798348
20
-3.3204545454545409
30
0
11
-3.2978715556798348
21
-5.6568181818181795
31
0
0
LINE
5
11B
100
AcDbEntity
8
CUTOUTS
100
AcDbLine
10
-3.2978715556798348
20
-5.6568181818181795
30
0
11
-4.7251442829525638
21
-5.6568181818181795
31
0
0
LINE
5
11C
100
AcDbEntity
8
CUTOUTS
100
AcDbLine
10
-5.8751442829525651
20
-6.8068181818181817
30
0
11
-5.8751442829525651
21
-9.1431818181818194
31
0
0
LINE
5
11D
100
AcDbEntity
8
CUTOUTS
100
AcDbLine
10
-5.8751442829525651
20
-9.1431818181818194
30
0
11
-7.3024170102252963
21
-9.1431818181818194
31
0
0
LINE
5
11E
100
AcDbEntity
8
CUTOUTS
100
AcDbLine
10
-7.3024170102252972
20
-9.1431818181818194
30
0
11
-7.3024170102252972
21
-6.8068181818181817
31
0
0
LINE
5
11F
100
AcDbEntity
8
CUTOUTS
100
AcDbLine
10
-7.3024170102252972
20
-6.8068181818181817
30
0
11
-5.875144282952566
21
-6.8068181818181817
31
0
0
LINE
5
120
100
AcDbEntity
8
CUTOUTS
100
AcDbLine
10
13.451871433716668
20
4.4931818181818173
30
0
11
12.479144160989396
21
4.4931818181818173
31
0
0
LINE
5
121
100
AcDbEntity
8
CUTOUTS
100
AcDbLine
10
12.479144160989396
20
4.4931818181818173
30
0
11
12.479144160989396
21
5.9204545454545521
31
0
0
LINE
5
122
100
AcDbEntity
8
CUTOUTS
100
AcDbLine
10
12.479144160989396
20
5.9204545454545521
30
0
11
13.451871433716668
21
5.9204545454545521
31
0
0
LINE
5
123
100
AcDbEntity
8
CUTOUTS
100
AcDbLine
10
13.451871433716668
20
5.9204545454545521
30
0
11
13.451871433716668
21
4.4931818181818173
31
0
0
LINE
5
124
100
AcDbEntity
8
CUTOUTS
100
AcDbLine
10
10.356416888262123
20
8.4977272727272748
30
0
11
11.329144160989397
21
8.4977272727272748
31
0
0
LINE
5
125
100
AcDbEntity
8
CUTOUTS
100
AcDbLine
10
11.329144160989397
20
8.4977272727272748
30
0
11
11.329144160989397
21
7.0704545454545453
31
0
0
LINE
5
126
100
AcDbEntity
8
CUTOUTS
100
AcDbLine
10
11.329144160989397
20
7.0704545454545453
30
0
11
10.356416888262123
21
7.0704545454545453
31
0
0
LINE
5
127
100
AcDbEntity
8
CUTOUTS
100
AcDbLine
10
10.356416888262123
20
7.0704545454545453
30
0
11
10.356416888262123
21
8.4977272727272748
31
0
0
LINE
5
128
100
AcDbEntity
8
CUTOUTS
100
AcDbLine
10
-13.451871433716661
20
8.4977272727272748
30
0
11
-12.479144160989385
21
8.4977272727272748
31
0
0
LINE
5
129
100
AcDbEntity
8
CUTOUTS
100
AcDbLine
10
-12.479144160989385
20
8.4977272727272748
30
0
11
-12.479144160989385
21
7.0704545454545453
31
0
0
LINE
5
12A
100
AcDbEntity
8
CUTOUTS
100
AcDbLine
10
-12.479144160989385
20
7.0704545454545453
30
0
11
-13.451871433716661
21
7.0704545454545453
31
0
0
LINE
5
12B
100
AcDbEntity
8
CUTOUTS
100
AcDbLine
10
-13.451871433716661
20
7.0704545454545453
30
0
11
-13.451871433716661
21
8.4977272727272748
31
0
0
LINE
5
12C
100
AcDbEntity
8
CUTOUTS
100
AcDbLine
10
1.5477272727272751
20
5.9204545454545521
30
0
11
1.5477272727272751
21
4.4931818181818173
31
0
0
LINE
5
12D
100
AcDbEntity
8
CUTOUTS
100
AcDbLine
10
1.5477272727272751
20
4.4931818181818173
30
0
11
0.57500000000000329
21
4.4931818181818173
31
0
0
LINE
5
12E
100
AcDbEntity
8
CUTOUTS
100
AcDbLine
10
0.57500000000000329
20
4.4931818181818173
30
0
11
0.57500000000000329
21
5.9204545454545521
31
0
0
LINE
5
12F
100
AcDbEntity
8
CUTOUTS
100
AcDbLine
10
0.57500000000000329
20
5.9204545454545521
30
0
11
1.5477272727272751
21
5.9204545454545521
31
0
0
LINE
5
130
100
AcDbEntity
8
CUTOUTS
100
AcDbLine
10
-7.3024170102252972
20
-5.6568181818181795
30
0
11
-7.3024170102252972
21
-3.3204545454545409
31
0
0
LINE
5
131
100
AcDbEntity
8
CUTOUTS
100
AcDbLine
10
-7.3024170102252972
20
-3.3204545454545409
30
0
11
-5.8751442829525624
21
-3.3204545454545409
31
0
0
LINE
5
132
100
AcDbEntity
8
CUTOUTS
100
AcDbLine
10
-5.8751442829525624
20
-3.3204545454545409
30
0
11
-5.8751442829525624
21
-5.6568181818181795
31
0
0
LINE
5
133
100
AcDbEntity
8
CUTOUTS
100
AcDbLine
10
-5.8751442829525624
20
-5.6568181818181795
30
0
11
-7.3024170102252972
21
-5.6568181818181795
31
0
0
LINE
5
134
100
AcDbEntity
8
CUTOUTS
100
AcDbLine
10
10.356416888262123
20
4.4931818181818173
30
0
11
10.356416888262123
21
5.9204545454545521
31
0
0
LINE
5
135
100
AcDbEntity
8
CUTOUTS
100
AcDbLine
10
10.356416888262123
20
5.9204545454545521
30
0
11
11.329144160989397
21
5.9204545454545521
31
0
0
LINE
5
136
100
AcDbEntity
8
CUTOUTS
100
AcDbLine
10
11.329144160989397
20
5.9204545454545521
30
0
11
11.329144160989397
21
4.4931818181818173
31
0
0
LINE
5
137
100
AcDbEntity
8
CUTOUTS
100
AcDbLine
10
11.329144160989397
20
4.4931818181818173
30
0
11
10.356416888262123
21
4.4931818181818173
31
0
0
LINE
5
138
100
AcDbEntity
8
CUTOUTS
100
AcDbLine
10
-1.5477272727272702
20
7.0704545454545453
30
0
11
-1.5477272727272702
21
8.4977272727272748
31
0
0
LINE
5
139
100
AcDbEntity
8
CUTOUTS
100
AcDbLine
10
-1.5477272727272702
20
8.4977272727272748
30
0
11
-0.5749999999999944
21
8.4977272727272748
31
0
0
LINE
5
13A
100
AcDbEntity
8
CUTOUTS
100
AcDbLine
10
-0.5749999999999944
20
8.4977272727272748
30
0
11
-0.5749999999999944
21
7.0704545454545453
31
0
0
LINE
5
13B
100
AcDbEntity
8
CUTOUTS
100
AcDbLine
10
-0.5749999999999944
20
7.0704545454545453
30
0
11
-1.5477272727272702
21
7.0704545454545453
31
0
0
LINE
5
13C
100
AcDbEntity
8
CUTOUTS
100
AcDbLine
10
-11.329144160989394
20
7.0704545454545453
30
0
11
-11.329144160989394
21
8.4977272727272748
31
0
0
LINE
5
13D
100
AcDbEntity
8
CUTOUTS
100
AcDbLine
10
-11.329144160989394
20
8.4977272727272748
30
0
11
-10.356416888262119
21
8.4977272727272748
31
0
0
LINE
5
13E
100
AcDbEntity
8
CUTOUTS
100
AcDbLine
10
-10.356416888262119
20
8.4977272727272748
30
0
11
-10.356416888262119
21
7.0704545454545453
31
0
0
LINE
5
13F
100
AcDbEntity
8
CUTOUTS
100
AcDbLine
10
-10.356416888262119
20
7.0704545454545453
30
0
11
-11.329144160989394
21
7.0704545454545453
31
0
0
LINE
5
140
100
AcDbEntity
8
CUTOUTS
100
AcDbLine
10
-12.479144160989389
20
5.9204545454545521
30
0
11
-12.479144160989389
21
4.4931818181818173
31
0
0
LINE
5
141
100
AcDbEntity
8
CUTOUTS
100
AcDbLine
10
-12.479144160989389
20
4.4931818181818173
30
0
11
-13.451871433716661
21
4.4931818181818173
31
0
0
LINE
5
142
100
AcDbEntity
8
CUTOUTS
100
AcDbLine
10
-13.451871433716661
20
4.4931818181818173
30
0
11
-13.451871433716661
21
5.9204545454545521
31
0
0
LINE
5
143
100
AcDbEntity
8
CUTOUTS
100
AcDbLine
10
-13.451871433716661
20
5.9204545454545521
30
0
11
-12.479144160989385
21
5.9204545454545521
31
0
0
LINE
5
144
100
AcDbEntity
8
CUTOUTS
100
AcDbLine
10
-10.356416888262117
20
4.4931818181818173
30
0
11
-11.329144160989388
21
4.4931818181818173
31
0
0
LINE
5
145
100
AcDbEntity
8
CUTOUTS
100
AcDbLine
10
-11.32914416098939
20
4.4931818181818173
30
0
11
-11.32914416098939
21
5.9204545454545521
31
0
0
LINE
5
146
100
AcDbEntity
8
CUTOUTS
100
AcDbLine
10
-11.32914416098939
20
5.9204545454545521
30
0
11
-10.356416888262117
21
5.9204545454545521
31
0
0
LINE
5
147
100
AcDbEntity
8
CUTOUTS
100
AcDbLine
10
-10.356416888262117
20
5.9204545454545521
30
0
11
-10.356416888262117
21
4.4931818181818173
31
0
0
LINE
5
148
100
AcDbEntity
8
CUTOUTS
100
AcDbLine
10
-13.898160121584958
20
-9.1431818181818194
30
0
11
-15.325432848857689
21
-9.1431818181818194
31
0
0
LINE
5
149
100
AcDbEntity
8
CUTOUTS
100
AcDbLine
10
-15.325432848857689
20
-9.1431818181818194
30
0
11
-15.325432848857689
21
-6.8068181818181817
31
0
0
LINE
5
14A
100
AcDbEntity
8
CUTOUTS
100
AcDbLine
10
-15.325432848857689
20
-6.8068181818181817
30
0
11
-13.898160121584958
21
-6.8068181818181817
31
0
0
LINE
5
14B
100
AcDbEntity
8
CUTOUTS
100
AcDbLine
10
-13.898160121584958
20
-6.8068181818181817
30
0
11
-13.898160121584958
21
-9.1431818181818194
31
0
0
LINE
5
14C
100
AcDbEntity
8
CUTOUTS
100
AcDbLine
10
7.3024170102253105
20
-6.8068181818181817
30
0
11
7.3024170102253105
21
-9.1431818181818194
31
0
0
LINE
5
14D
100
AcDbEntity
8
CUTOUTS
100
AcDbLine
10
7.3024170102253105
20
-9.1431818181818194
30
0
11
5.8751442829525757
21
-9.1431818181818194
31
0
0
LINE
5
14E
100
AcDbEntity
8
CUTOUTS
100
AcDbLine
10
5.8751442829525757
20
-9.1431818181818194
30
0
11
5.8751442829525757
21
-6.8068181818181817
31
0
0
LINE
5
14F
100
AcDbEntity
8
CUTOUTS
100
AcDbLine
10
5.8751442829525757
20
-6.8068181818181817
30
0
11
7.3024170102253105
21
-6.8068181818181817
31
0
0
LINE
5
150
100
AcDbEntity
8
CUTOUTS
100
AcDbLine
10
15.325432848857696
20
-6.8068181818181817
30
0
11
15.325432848857696
21
-9.1431818181818194
31
0
0
LINE
5
151
100
AcDbEntity
8
CUTOUTS
100
AcDbLine
10
15.325432848857696
20
-9.1431818181818194
30
0
11
13.898160121584969
21
-9.1431818181818194
31
0
0
LINE
5
152
100
AcDbEntity
8
CUTOUTS
100
AcDbLine
10
13.898160121584969
20
-9.1431818181818194
30
0
11
13.898160121584969
21
-6.8068181818181817
31
0
0
LINE
5
153
100
AcDbEntity
8
CUTOUTS
100
AcDbLine
10
13.898160121584969
20
-6.8068181818181817
30
0
11
15.325432848857696
21
-6.8068181818181817
31
0
0
LINE
5
154
100
AcDbEntity
8
CUTOUTS
100
AcDbLine
10
-1.5477272727272695
20
5.9204545454545521
30
0
11
-0.5749999999999944
21
5.9204545454545521
31
0
0
LINE
5
155
100
AcDbEntity
8
CUTOUTS
100
AcDbLine
10
-0.5749999999999944
20
5.9204545454545521
30
0
11
-0.5749999999999944
21
4.4931818181818173
31
0
0
LINE
5
156
100
AcDbEntity
8
CUTOUTS
100
AcDbLine
10
-0.5749999999999944
20
4.4931818181818173
30
0
11
-1.5477272727272695
21
4.4931818181818173
31
0
0
LINE
5
157
100
AcDbEntity
8
CUTOUTS
100
AcDbLine
10
-1.5477272727272695
20
4.4931818181818173
30
0
11
-1.5477272727272695
21
5.9204545454545521
31
0
0
LINE
5
158
100
AcDbEntity
8
CUTOUTS
100
AcDbLine
10
-15.325432848857687
20
-5.6568181818181795
30
0
11
-15.325432848857687
21
-3.3204545454545409
31
0
0
LINE
5
159
100
AcDbEntity
8
CUTOUTS
100
AcDbLine
10
-15.325432848857687
20
-3.3204545454545409
30
0
11
-13.898160121584958
21
-3.3204545454545409
31
0
0
LINE
5
15A
100
AcDbEntity
8
CUTOUTS
100
AcDbLine
10
-13.898160121584958
20
-3.3204545454545409
30
0
11
-13.898160121584958
21
-5.6568181818181795
31
0
0
LINE
5
15B
100
AcDbEntity
8
CUTOUTS
100
AcDbLine
10
-13.898160121584958
20
-5.6568181818181795
30
0
11
-15.325432848857687
21
-5.6568181818181795
31
0
0
LINE
5
15C
100
AcDbEntity
8
CUTOUTS
100
AcDbLine
10
-17.902705576130419
20
-3.3204545454545409
30
0
11
-16.47543284885769
21
-3.3204545454545409
31
0
0
LINE
5
15D
100
AcDbEntity
8
CUTOUTS
100
AcDbLine
10
-16.47543284885769
20
-3.3204545454545409
30
0
11
-16.47543284885769
21
-5.6568181818181795
31
0
0
LINE
5
15E
100
AcDbEntity
8
CUTOUTS
100
AcDbLine
10
-16.47543284885769
20
-5.6568181818181795
30
0
11
-17.902705576130419
21
-5.6568181818181795
31
0
0
LINE
5
15F
100
AcDbEntity
8
CUTOUTS
100
AcDbLine
10
-17.902705576130419
20
-5.6568181818181795
30
0
11
-17.902705576130419
21
-3.3204545454545409
31
0
0
LINE
5
160
100
AcDbEntity
8
CUTOUTS
100
AcDbLine
10
1.5477272727272751
20
7.0704545454545453
30
0
11
0.57500000000000329
21
7.0704545454545453
31
0
0
LINE
5
161
100
AcDbEntity
8
CUTOUTS
100
AcDbLine
10
0.57500000000000329
20
7.0704545454545453
30
0
11
0.57500000000000329
21
8.4977272727272748
31
0
0
LINE
5
162
100
AcDbEntity
8
CUTOUTS
100
AcDbLine
10
0.57500000000000329
20
8.4977272727272748
30
0
11
1.5477272727272751
21
8.4977272727272748
31
0
0
LINE
5
163
100
AcDbEntity
8
CUTOUTS
100
AcDbLine
10
1.5477272727272751
20
8.4977272727272748
30
0
11
1.5477272727272751
21
7.0704545454545453
31
0
0
LINE
5
164
100
AcDbEntity
8
CUTOUTS
100
AcDbLine
10
-3.2978715556798344
20
-9.1431818181818194
30
0
11
-4.7251442829525665
21
-9.1431818181818194
31
0
0
LINE
5
165
100
AcDbEntity
8
CUTOUTS
100
AcDbLine
10
-4.7251442829525665
20
-9.1431818181818194
30
0
11
-4.7251442829525665
21
-6.8068181818181817
31
0
0
LINE
5
166
100
AcDbEntity
8
CUTOUTS
100
AcDbLine
10
-4.7251442829525665
20
-6.8068181818181817
30
0
11
-3.2978715556798344
21
-6.8068181818181817
31
0
0
LINE
5
167
100
AcDbEntity
8
CUTOUTS
100
AcDbLine
10
-3.2978715556798344
20
-6.8068181818181817
30
0
11
-3.2978715556798344
21
-9.1431818181818194
31
0
0
LINE
5
168
100
AcDbEntity
8
CUTOUTS
100
AcDbLine
10
12.479144160989396
20
7.0704545454545453
30
0
11
12.479144160989396
21
8.4977272727272748
31
0
0
LINE
5
169
100
AcDbEntity
8
CUTOUTS
100
AcDbLine
10
12.479144160989396
20
8.4977272727272748
30
0
11
13.451871433716668
21
8.4977272727272748
31
0
0
LINE
5
16A
100
AcDbEntity
8
CUTOUTS
100
AcDbLine
10
13.451871433716668
20
8.4977272727272748
30
0
11
13.451871433716668
21
7.0704545454545453
31
0
0
LINE
5
16B
100
AcDbEntity
8
CUTOUTS
100
AcDbLine
10
13.451871433716668
20
7.0704545454545453
30
0
11
12.479144160989396
21
7.0704545454545453
31
0
0
LINE
5
16C
100
AcDbEntity
8
CUTOUTS
100
AcDbLine
10
4.7251442829525825
20
-6.8068181818181817
30
0
11
4.7251442829525825
21
-9.1431818181818194
31
0
0
LINE
5
16D
100
AcDbEntity
8
CUTOUTS
100
AcDbLine
10
4.7251442829525825
20
-9.1431818181818194
30
0
11
3.2978715556798477
21
-9.1431818181818194
31
0
0
LINE
5
16E
100
AcDbEntity
8
CUTOUTS
100
AcDbLine
10
3.2978715556798477
20
-9.1431818181818194
30
0
11
3.2978715556798477
21
-6.8068181818181817
31
0
0
LINE
5
16F
100
AcDbEntity
8
CUTOUTS
100
AcDbLine
10
3.2978715556798477
20
-6.8068181818181817
30
0
11
4.7251442829525825
21
-6.8068181818181817
31
0
0
LINE
5
170
100
AcDbEntity
8
CUTOUTS
100
AcDbLine
10
6.8972672807229092
20
-0.94318181818181746
30
0
11
6.8972672807229092
21
0.10681818181818237
31
0
0
LINE
5
171
100
AcDbEntity
8
CUTOUTS
100
AcDbLine
10
6.8972672807229092
20
0.10681818181818237
30
0
11
16.847267280722921
21
0.10681818181818237
31
0
0
LINE
5
172
100
AcDbEntity
8
CUTOUTS
100
AcDbLine
10
16.847267280722921
20
0.10681818181818237
30
0
11
16.847267280722921
21
-0.94318181818181746
31
0
0
LINE
5
173
100
AcDbEntity
8
CUTOUTS
100
AcDbLine
10
16.847267280722921
20
-0.94318181818181746
30
0
11
6.8972672807229092
21
-0.94318181818181746
31
0
0
LINE
5
174
100
AcDbEntity
8
CUTOUTS
100
AcDbLine
10
-16.847267280722917
20
-0.94318181818181746
30
0
11
-16.847267280722917
21
0.10681818181818237
31
0
0
LINE
5
175
100
AcDbEntity
8
CUTOUTS
100
AcDbLine
10
-16.847267280722917
20
0.10681818181818237
30
0
11
-6.8972672807229181
21
0.10681818181818237
31
0
0
LINE
5
176
100
AcDbEntity
8
CUTOUTS
100
AcDbLine
10
-6.8972672807229181
20
0.10681818181818237
30
0
11
-6.8972672807229163
21
-0.94318181818181746
31
0
0
LINE
5
177
100
AcDbEntity
8
CUTOUTS
100
AcDbLine
10
-6.8972672807229163
20
-0.94318181818181746
30
0
11
-16.847267280722917
21
-0.94318181818181746
31
0
0
LINE
5
178
100
AcDbEntity
8
PERIMETER
100
AcDbLine
10
0.52500000000000102
20
11.329545454545432
30
0
11
-0.52500000000000102
21
11.329545454545432
31
0
0
LINE
5
179
100
AcDbEntity
8
PERIMETER
100
AcDbLine
10
-0.52500000000000102
20
11.329545454545432
30
0
11
-0.52500000000000213
21
12.429545454545462
31
0
0
LINE
5
17A
100
AcDbEntity
8
PERIMETER
100
AcDbLine
10
-0.52500000000000213
20
12.429545454545462
30
0
11
-21.652272727272731
21
12.429545454545462
31
0
0
LINE
5
17B
100
AcDbEntity
8
PERIMETER
100
AcDbLine
10
-21.652272727272731
20
12.429545454545462
30
0
11
-21.652272727272731
21
-12.429545454545456
31
0
0
LINE
5
17C
100
AcDbEntity
8
PERIMETER
100
AcDbLine
10
-21.652272727272731
20
-12.429545454545456
30
0
11
21.652272727272731
21
-12.429545454545456
31
0
0
LINE
5
17D
100
AcDbEntity
8
PERIMETER
100
AcDbLine
10
21.652272727272731
20
-12.429545454545456
30
0
11
21.652272727272731
21
12.429545454545462
31
0
0
LINE
5
17E
100
AcDbEntity
8
PERIMETER
100
AcDbLine
10
21.652272727272731
20
12.429545454545462
30
0
11
0.52499999999999769
21
12.429545454545462
31
0
0
LINE
5
17F
100
AcDbEntity
8
PERIMETER
100
AcDbLine
10
0.52499999999999769
20
12.429545454545462
30
0
11
0.52500000000000102
21
11.329545454545432
31
0
0
ENDSEC
0
SECTION
2
OBJECTS
0
DICTIONARY
5
C
100
AcDbDictionary
3
ACAD_GROUP
350
D
3
ACAD_MLINESTYLE
350
17
0
DICTIONARY
5
D
100
AcDbDictionary
0
DICTIONARY
5
1A
330
C
100
AcDbDictionary
0
DICTIONARY
5
17
100
AcDbDictionary
0
ENDSEC
0
EOF
