0
SECTION
2
HEADER
9
$INSUNITS
70
4
9
$ACADVER
1
AC1014
9
$HANDSEED
5
FFFF
0
ENDSEC
0
SECTION
2
TABLES
0
TABLE
2
VPORT
5
8
100
AcDbSymbolTable
0
ENDTAB
0
TABLE
2
LTYPE
5
5
100
AcDbSymbolTable
70
2
0
LTYPE
5
14
100
AcDbSymbolTableRecord
100
AcDbLinetypeTableRecord
2
BYBLOCK
70
0
0
LTYPE
5
15
100
AcDbSymbolTableRecord
100
AcDbLinetypeTableRecord
2
BYLAYER
70
0
0
ENDTAB
0
TABLE
2
LAYER
5
2
100
AcDbSymbolTable
70
3
0
LAYER
5
50
100
AcDbSymbolTableRecord
100
AcDbLayerTableRecord
2
0
70
0
6
CONTINUOUS
0
LAYER
5
51
100
AcDbSymbolTableRecord
100
AcDbLayerTableRecord
2
CUTOUTS
70
0
62
1
6
CONTINUOUS
0
LAYER
5
52
100
AcDbSymbolTableRecord
100
AcDbLayerTableRecord
2
PERIMETER
70
0
62
5
6
CONTINUOUS
0
ENDTAB
0
TABLE
2
STYLE
5
3
100
AcDbSymbolTable
70
1
0
STYLE
5
11
100
AcDbSymbolTableRecord
100
AcDbTextStyleTableRecord
2
STANDARD
70
0
0
ENDTAB
0
TABLE
2
VIEW
5
6
100
AcDbSymbolTable
0
ENDTAB
0
TABLE
2
UCS
5
7
100
AcDbSymbolTable
0
ENDTAB
0
TABLE
2
APPID
5
9
100
AcDbSymbolTable
70
1
0
APPID
5
12
100
AcDbSymbolTableRecord
100
AcDbRegAppTableRecord
2
ACAD
70
0
0
ENDTAB
0
TABLE
2
DIMSTYLE
5
A
100
AcDbSymbolTable
0
ENDTAB
0
TABLE
2
BLOCK_RECORD
5
1
100
AcDbSymbolTable
70
2
0
BLOCK_RECORD
5
1F
100
AcDbSymbolTableRecord
100
AcDbBlockTableRecord
2
*MODEL_SPACE
0
BLOCK_RECORD
5
1B
100
AcDbSymbolTableRecord
100
AcDbBlockTableRecord
2
*PAPER_SPACE
0
ENDTAB
0
ENDSEC
0
SECTION
2
BLOCKS
0
BLOCK
5
20
100
AcDbEntity
100
AcDbBlockBegin
2
*MODEL_SPACE
0
ENDBLK
5
21
100
AcDbEntity
100
AcDbBlockEnd
0
BLOCK
5
1C
100
AcDbEntity
100
AcDbBlockBegin
2
*PAPER_SPACE
0
ENDBLK
5
1D
100
AcDbEntity
100
AcDbBlockEnd
0
ENDSEC
0
SECTION
2
ENTITIES
0
LINE
5
100
100
AcDbEntity
8
CUTOUTS
100
AcDbLine
10
8.0024170102252903
20
0.78863636363636802
30
0
11
8.0024170102253045
21
-6.4340909090909104
31
0
0
LINE
5
101
100
AcDbEntity
8
CUTOUTS
100
AcDbLine
10
8.0024170102253045
20
-6.4340909090909104
30
0
11
2.5978715556798448
21
-6.4340909090909104
31
0
0
LINE
5
102
100
AcDbEntity
8
CUTOUTS
100
AcDbLine
10
2.5978715556798448
20
-6.4340909090909104
30
0
11
2.597871555679836
21
0.78863636363636802
31
0
0
LINE
5
103
100
AcDbEntity
8
CUTOUTS
100
AcDbLine
10
2.597871555679836
20
0.78863636363636802
30
0
11
8.0024170102252903
21
0.78863636363636802
31
0
0
LINE
5
104
100
AcDbEntity
8
CUTOUTS
100
AcDbLine
10
9.6564168882621217
20
-18.252272727272725
30
0
11
9.6564168882621217
21
-12.847727272727273
31
0
0
LINE
5
105
100
AcDbEntity
8
CUTOUTS
100
AcDbLine
10
9.6564168882621217
20
-12.847727272727273
30
0
11
14.15187143371667
21
-12.847727272727273
31
0
0
LINE
5
106
100
AcDbEntity
8
CUTOUTS
100
AcDbLine
10
14.15187143371667
20
-12.847727272727273
30
0
11
14.15187143371667
21
-18.252272727272725
31
0
0
LINE
5
107
100
AcDbEntity
8
CUTOUTS
100
AcDbLine
10
14.15187143371667
20
-18.252272727272725
30
0
11
9.6564168882621217
21
-18.252272727272725
31
0
0
LINE
5
108
100
AcDbEntity
8
CUTOUTS
100
AcDbLine
10
-9.6564168882621182
20
-18.252272727272725
30
0
11
-14.151871433716664
21
-18.252272727272725
31
0
0
LINE
5
109
100
AcDbEntity
8
CUTOUTS
100
AcDbLine
10
-14.151871433716664
20
-18.252272727272725
30
0
11
-14.151871433716664
21
-12.847727272727273
31
0
0
LINE
5
10A
100
AcDbEntity
8
CUTOUTS
100
AcDbLine
10
-14.151871433716664
20
-12.847727272727273
30
0
11
-9.6564168882621182
21
-12.847727272727273
31
0
0
LINE
5
10B
100
AcDbEntity
8
CUTOUTS
100
AcDbLine
10
-9.6564168882621182
20
-12.847727272727273
30
0
11
-9.6564168882621182
21
-18.252272727272725
31
0
0
LINE
5
10C
100
AcDbEntity
8
CUTOUTS
100
AcDbLine
10
-2.59787155567984
20
0.78863636363636802
30
0
11
-2.5978715556798364
21
-6.4340909090909104
31
0
0
LINE
5
10D
100
AcDbEntity
8
CUTOUTS
100
AcDbLine
10
-2.5978715556798364
20
-6.4340909090909104
30
0
11
-8.0024170102252903
21
-6.4340909090909104
31
0
0
LINE
5
10E
100
AcDbEntity
8
CUTOUTS
100
AcDbLine
10
-8.0024170102252903
20
-6.4340909090909104
30
0
11
-8.0024170102252938
21
0.78863636363636802
31
0
0
LINE
5
10F
100
AcDbEntity
8
CUTOUTS
100
AcDbLine
10
-8.0024170102252956
20
0.78863636363636802
30
0
11
-2.5978715556798404
21
0.78863636363636802
31
0
0
LINE
5
110
100
AcDbEntity
8
CUTOUTS
100
AcDbLine
10
2.2477272727272757
20
-12.847727272727273
30
0
11
2.2477272727272757
21
-18.252272727272725
31
0
0
LINE
5
111
100
AcDbEntity
8
CUTOUTS
100
AcDbLine
10
2.2477272727272757
20
-18.252272727272725
30
0
11
-2.2477272727272708
21
-18.252272727272725
31
0
0
LINE
5
112
100
AcDbEntity
8
CUTOUTS
100
AcDbLine
10
-2.2477272727272708
20
-18.252272727272725
30
0
11
-2.2477272727272708
21
-12.847727272727273
31
0
0
LINE
5
113
100
AcDbEntity
8
CUTOUTS
100
AcDbLine
10
-2.2477272727272708
20
-12.847727272727273
30
0
11
2.2477272727272757
21
-12.847727272727273
31
0
0
LINE
5
114
100
AcDbEntity
8
CUTOUTS
100
AcDbLine
10
18.602705576130425
20
-6.4340909090909104
30
0
11
13.198160121584968
21
-6.4340909090909104
31
0
0
LINE
5
115
100
AcDbEntity
8
CUTOUTS
100
AcDbLine
10
13.198160121584968
20
-6.4340909090909104
30
0
11
13.198160121584975
21
0.78863636363636802
31
0
0
LINE
5
116
100
AcDbEntity
8
CUTOUTS
100
AcDbLine
10
13.198160121584975
20
0.78863636363636802
30
0
11
18.602705576130425
21
0.78863636363636802
31
0
0
LINE
5
117
100
AcDbEntity
8
CUTOUTS
100
AcDbLine
10
18.602705576130425
20
0.78863636363636802
30
0
11
18.602705576130425
21
-6.4340909090909104
31
0
0
LINE
5
118
100
AcDbEntity
8
CUTOUTS
100
AcDbLine
10
-13.198160121584973
20
0.78863636363636358
30
0
11
-13.198160121584962
21
-6.4340909090909104
31
0
0
LINE
5
119
100
AcDbEntity
8
CUTOUTS
100
AcDbLine
10
-13.198160121584962
20
-6.4340909090909104
30
0
11
-18.602705576130425
21
-6.4340909090909104
31
0
0
LINE
5
11A
100
AcDbEntity
8
CUTOUTS
100
AcDbLine
10
-18.602705576130425
20
-6.4340909090909104
30
0
11
-18.602705576130425
21
0.7886363636363658
31
0
0
LINE
5
11B
100
AcDbEntity
8
CUTOUTS
100
AcDbLine
10
-18.602705576130425
20
0.7886363636363658
30
0
11
-13.198160121584973
21
0.78863636363636358
31
0
0
ARC
5
11C
100
AcDbEntity
8
CUTOUTS
100
AcDbCircle
10
15.500012127229628
20
10.586363636362929
30
0
40
2.9295454545457296
210
0
220
0
230
1
100
AcDbArc
50
-202.71745506697837
51
22.717455066978527
0
LINE
5
11D
100
AcDbEntity
8
CUTOUTS
100
AcDbLine
10
12.7977393999569
20
11.717716224059425
30
0
11
12.797739399956898
21
17.152272727272731
31
0
0
LINE
5
11E
100
AcDbEntity
8
CUTOUTS
100
AcDbLine
10
12.797739399956898
20
17.152272727272731
30
0
11
18.202284854502352
21
17.152272727272731
31
0
0
LINE
5
11F
100
AcDbEntity
8
CUTOUTS
100
AcDbLine
10
18.202284854502352
20
17.152272727272731
30
0
11
18.202284854502352
21
11.71771622405943
31
0
0
LINE
5
120
100
AcDbEntity
8
CUTOUTS
100
AcDbLine
10
-3.8088926263140803
20
17.152272727272731
30
0
11
-3.8088926263140763
21
11.717716224059423
31
0
0
LINE
5
121
100
AcDbEntity
8
CUTOUTS
100
AcDbLine
10
-9.213438080859536
20
17.152272727272734
30
0
11
-3.8088926263140808
21
17.152272727272731
31
0
0
LINE
5
122
100
AcDbEntity
8
CUTOUTS
100
AcDbLine
10
-9.2134380808595342
20
11.717716224059426
30
0
11
-9.213438080859536
21
17.152272727272734
31
0
0
ARC
5
123
100
AcDbEntity
8
CUTOUTS
100
AcDbCircle
10
-6.5111653535868061
20
10.586363636362933
30
0
40
2.9295454545457291
210
0
220
0
230
1
100
AcDbArc
50
-202.71745506697835
51
22.71745506697825
0
LINE
5
124
100
AcDbEntity
8
CUTOUTS
100
AcDbLine
10
1.7921506595486847
20
17.152272727272731
30
0
11
7.1966961140941361
21
17.152272727272731
31
0
0
LINE
5
125
100
AcDbEntity
8
CUTOUTS
100
AcDbLine
10
1.7921506595486847
20
11.717716224059426
30
0
11
1.7921506595486847
21
17.152272727272731
31
0
0
ARC
5
126
100
AcDbEntity
8
CUTOUTS
100
AcDbCircle
10
4.4944233868214116
20
10.586363636362934
30
0
40
2.9295454545457265
210
0
220
0
230
1
100
AcDbArc
50
-202.71745506697826
51
22.71745506697826
0
LINE
5
127
100
AcDbEntity
8
CUTOUTS
100
AcDbLine
10
7.1966961140941361
20
17.152272727272731
30
0
11
7.1966961140941388
21
11.717716224059425
31
0
0
LINE
5
128
100
AcDbEntity
8
PERIMETER
100
AcDbLine
10
21.652272727272731
20
-21.484090909090895
30
0
11
21.652272727272724
21
-14.484090909090916
31
0
0
LINE
5
129
100
AcDbEntity
8
PERIMETER
100
AcDbLine
10
21.652272727272724
20
-14.484090909090916
30
0
11
22.752272727272725
21
-14.484090909090908
31
0
0
LINE
5
12A
100
AcDbEntity
8
PERIMETER
100
AcDbLine
10
22.752272727272725
20
-14.484090909090908
30
0
11
22.752272727272729
21
13.384090909090913
31
0
0
LINE
5
12B
100
AcDbEntity
8
PERIMETER
100
AcDbLine
10
22.752272727272729
20
13.384090909090913
30
0
11
21.652272727272731
21
13.384090909090913
31
0
0
LINE
5
12C
100
AcDbEntity
8
PERIMETER
100
AcDbLine
10
21.652272727272731
20
13.384090909090913
30
0
11
21.652272727272731
21
20.384090909090915
31
0
0
LINE
5
12D
100
AcDbEntity
8
PERIMETER
100
AcDbLine
10
21.652272727272731
20
20.384090909090915
30
0
11
17.652272727272731
21
20.384090909090915
31
0
0
LINE
5
12E
100
AcDbEntity
8
PERIMETER
100
AcDbLine
10
17.652272727272731
20
20.384090909090915
30
0
11
17.652272727272731
21
21.484090909090913
31
0
0
LINE
5
12F
100
AcDbEntity
8
PERIMETER
100
AcDbLine
10
17.652272727272731
20
21.484090909090913
30
0
11
9.6022727272727337
21
21.484090909090913
31
0
0
LINE
5
130
100
AcDbEntity
8
PERIMETER
100
AcDbLine
10
9.6022727272727337
20
21.484090909090913
30
0
11
9.6022727272727337
21
20.384090909090915
31
0
0
LINE
5
131
100
AcDbEntity
8
PERIMETER
100
AcDbLine
10
9.6022727272727337
20
20.384090909090915
30
0
11
-9.7644813667222952
21
20.384090909090915
31
0
0
LINE
5
132
100
AcDbEntity
8
PERIMETER
100
AcDbLine
10
-9.7644813667222952
20
20.384090909090915
30
0
11
-9.7644813667222952
21
21.484090909090913
31
0
0
LINE
5
133
100
AcDbEntity
8
PERIMETER
100
AcDbLine
10
-9.7644813667222952
20
21.484090909090913
30
0
11
-14.814481366722294
21
21.484090909090913
31
0
0
LINE
5
134
100
AcDbEntity
8
PERIMETER
100
AcDbLine
10
-14.814481366722294
20
21.484090909090913
30
0
11
-14.814481366722294
21
8.7414428238595292
31
0
0
LINE
5
135
100
AcDbEntity
8
PERIMETER
100
AcDbLine
10
-14.814481366722294
20
8.741442823859531
30
0
11
-18.400845003085937
21
8.741442823859531
31
0
0
LINE
5
136
100
AcDbEntity
8
PERIMETER
100
AcDbLine
10
-18.400845003085937
20
8.741442823859531
30
0
11
-18.400845003085937
21
21.484090909090916
31
0
0
LINE
5
137
100
AcDbEntity
8
PERIMETER
100
AcDbLine
10
-18.400845003085937
20
21.484090909090916
30
0
11
-21.652272727272724
21
21.484090909090916
31
0
0
LINE
5
138
100
AcDbEntity
8
PERIMETER
100
AcDbLine
10
-21.652272727272724
20
21.484090909090913
30
0
11
-21.652272727272724
21
13.384090909090913
31
0
0
LINE
5
139
100
AcDbEntity
8
PERIMETER
100
AcDbLine
10
-21.652272727272724
20
13.384090909090915
30
0
11
-22.752272727272729
21
13.384090909090913
31
0
0
LINE
5
13A
100
AcDbEntity
8
PERIMETER
100
AcDbLine
10
-22.752272727272729
20
13.384090909090913
30
0
11
-22.752272727272718
21
-14.484090909090908
31
0
0
LINE
5
13B
100
AcDbEntity
8
PERIMETER
100
AcDbLine
10
-22.752272727272718
20
-14.484090909090908
30
0
11
-21.652272727272724
21
-14.484090909090916
31
0
0
LINE
5
13C
100
AcDbEntity
8
PERIMETER
100
AcDbLine
10
-21.652272727272724
20
-14.484090909090916
30
0
11
-21.652272727272731
21
-21.484090909090913
31
0
0
LINE
5
13D
100
AcDbEntity
8
PERIMETER
100
AcDbLine
10
-21.652272727272731
20
-21.484090909090913
30
0
11
21.652272727272731
21
-21.484090909090895
31
0
0
ENDSEC
0
SECTION
2
OBJECTS
0
DICTIONARY
5
C
100
AcDbDictionary
3
ACAD_GROUP
350
D
3
ACAD_MLINESTYLE
350
17
0
DICTIONARY
5
D
100
AcDbDictionary
0
DICTIONARY
5
1A
330
C
100
AcDbDictionary
0
DICTIONARY
5
17
100
AcDbDictionary
0
ENDSEC
0
EOF
