0
SECTION
2
HEADER
9
$INSUNITS
70
4
9
$ACADVER
1
AC1014
9
$HANDSEED
5
FFFF
0
ENDSEC
0
SECTION
2
TABLES
0
TABLE
2
VPORT
5
8
100
AcDbSymbolTable
0
ENDTAB
0
TABLE
2
LTYPE
5
5
100
AcDbSymbolTable
70
2
0
LTYPE
5
14
100
AcDbSymbolTableRecord
100
AcDbLinetypeTableRecord
2
BYBLOCK
70
0
0
LTYPE
5
15
100
AcDbSymbolTableRecord
100
AcDbLinetypeTableRecord
2
BYLAYER
70
0
0
ENDTAB
0
TABLE
2
LAYER
5
2
100
AcDbSymbolTable
70
3
0
LAYER
5
50
100
AcDbSymbolTableRecord
100
AcDbLayerTableRecord
2
0
70
0
6
CONTINUOUS
0
LAYER
5
51
100
AcDbSymbolTableRecord
100
AcDbLayerTableRecord
2
CUTOUTS
70
0
62
1
6
CONTINUOUS
0
LAYER
5
52
100
AcDbSymbolTableRecord
100
AcDbLayerTableRecord
2
PERIMETER
70
0
62
5
6
CONTINUOUS
0
ENDTAB
0
TABLE
2
STYLE
5
3
100
AcDbSymbolTable
70
1
0
STYLE
5
11
100
AcDbSymbolTableRecord
100
AcDbTextStyleTableRecord
2
STANDARD
70
0
0
ENDTAB
0
TABLE
2
VIEW
5
6
100
AcDbSymbolTable
0
ENDTAB
0
TABLE
2
UCS
5
7
100
AcDbSymbolTable
0
ENDTAB
0
TABLE
2
APPID
5
9
100
AcDbSymbolTable
70
1
0
APPID
5
12
100
AcDbSymbolTableRecord
100
AcDbRegAppTableRecord
2
ACAD
70
0
0
ENDTAB
0
TABLE
2
DIMSTYLE
5
A
100
AcDbSymbolTable
0
ENDTAB
0
TABLE
2
BLOCK_RECORD
5
1
100
AcDbSymbolTable
70
2
0
BLOCK_RECORD
5
1F
100
AcDbSymbolTableRecord
100
AcDbBlockTableRecord
2
*MODEL_SPACE
0
BLOCK_RECORD
5
1B
100
AcDbSymbolTableRecord
100
AcDbBlockTableRecord
2
*PAPER_SPACE
0
ENDTAB
0
ENDSEC
0
SECTION
2
BLOCKS
0
BLOCK
5
20
100
AcDbEntity
100
AcDbBlockBegin
2
*MODEL_SPACE
0
ENDBLK
5
21
100
AcDbEntity
100
AcDbBlockEnd
0
BLOCK
5
1C
100
AcDbEntity
100
AcDbBlockBegin
2
*PAPER_SPACE
0
ENDBLK
5
1D
100
AcDbEntity
100
AcDbBlockEnd
0
ENDSEC
0
SECTION
2
ENTITIES
0
LINE
5
100
100
AcDbEntity
8
CUTOUTS
100
AcDbLine
10
-6.8972672807229163
20
-7.5613636363636383
30
0
11
-6.8972672807229172
21
-8.6113636363636381
31
0
0
LINE
5
101
100
AcDbEntity
8
CUTOUTS
100
AcDbLine
10
-6.8972672807229172
20
-8.6113636363636381
30
0
11
-16.847267280722917
21
-8.6113636363636381
31
0
0
LINE
5
102
100
AcDbEntity
8
CUTOUTS
100
AcDbLine
10
-16.847267280722917
20
-8.6113636363636381
30
0
11
-16.847267280722917
21
-7.5613636363636383
31
0
0
LINE
5
103
100
AcDbEntity
8
CUTOUTS
100
AcDbLine
10
-16.847267280722917
20
-7.5613636363636383
30
0
11
-6.8972672807229163
21
-7.5613636363636383
31
0
0
LINE
5
104
100
AcDbEntity
8
CUTOUTS
100
AcDbLine
10
6.8972672807229163
20
-8.6113636363636381
30
0
11
6.8972672807229163
21
-7.5613636363636383
31
0
0
LINE
5
105
100
AcDbEntity
8
CUTOUTS
100
AcDbLine
10
6.8972672807229163
20
-7.5613636363636383
30
0
11
16.847267280722917
21
-7.5613636363636383
31
0
0
LINE
5
106
100
AcDbEntity
8
CUTOUTS
100
AcDbLine
10
16.847267280722917
20
-7.5613636363636383
30
0
11
16.847267280722917
21
-8.6113636363636381
31
0
0
LINE
5
107
100
AcDbEntity
8
CUTOUTS
100
AcDbLine
10
16.847267280722917
20
-8.6113636363636381
30
0
11
6.8972672807229163
21
-8.6113636363636381
31
0
0
LINE
5
108
100
AcDbEntity
8
CUTOUTS
100
AcDbLine
10
13.898160121584972
20
0.638636363636369
30
0
11
17.90270557613043
21
0.638636363636369
31
0
0
LINE
5
109
100
AcDbEntity
8
CUTOUTS
100
AcDbLine
10
17.90270557613043
20
0.638636363636369
30
0
11
17.90270557613043
21
-5.1840909090909149
31
0
0
LINE
5
10A
100
AcDbEntity
8
CUTOUTS
100
AcDbLine
10
17.90270557613043
20
-5.1840909090909149
30
0
11
13.898160121584969
21
-5.1840909090909149
31
0
0
LINE
5
10B
100
AcDbEntity
8
CUTOUTS
100
AcDbLine
10
13.898160121584969
20
-5.1840909090909149
30
0
11
13.898160121584972
21
0.638636363636369
31
0
0
LINE
5
10C
100
AcDbEntity
8
CUTOUTS
100
AcDbLine
10
-1.5477272727272711
20
-12.997727272727273
30
0
11
1.5477272727272762
21
-12.997727272727273
31
0
0
LINE
5
10D
100
AcDbEntity
8
CUTOUTS
100
AcDbLine
10
1.5477272727272762
20
-12.997727272727273
30
0
11
1.5477272727272762
21
-17.002272727272732
31
0
0
LINE
5
10E
100
AcDbEntity
8
CUTOUTS
100
AcDbLine
10
1.5477272727272762
20
-17.002272727272732
30
0
11
-1.5477272727272711
21
-17.002272727272732
31
0
0
LINE
5
10F
100
AcDbEntity
8
CUTOUTS
100
AcDbLine
10
-1.5477272727272711
20
-17.002272727272732
30
0
11
-1.5477272727272711
21
-12.997727272727273
31
0
0
LINE
5
110
100
AcDbEntity
8
CUTOUTS
100
AcDbLine
10
-13.451871433716665
20
-17.002272727272732
30
0
11
-13.451871433716665
21
-12.997727272727273
31
0
0
LINE
5
111
100
AcDbEntity
8
CUTOUTS
100
AcDbLine
10
-13.451871433716665
20
-12.997727272727273
30
0
11
-10.356416888262119
21
-12.997727272727273
31
0
0
LINE
5
112
100
AcDbEntity
8
CUTOUTS
100
AcDbLine
10
-10.356416888262119
20
-12.997727272727273
30
0
11
-10.356416888262119
21
-17.002272727272732
31
0
0
LINE
5
113
100
AcDbEntity
8
CUTOUTS
100
AcDbLine
10
-10.356416888262119
20
-17.002272727272732
30
0
11
-13.451871433716665
21
-17.002272727272732
31
0
0
LINE
5
114
100
AcDbEntity
8
CUTOUTS
100
AcDbLine
10
6.4966961140941315
20
17.002272727272729
30
0
11
6.4966961140941359
21
12.117065864108616
31
0
0
LINE
5
115
100
AcDbEntity
8
CUTOUTS
100
AcDbLine
10
2.4921506595486842
20
17.002272727272729
30
0
11
6.4966961140941315
21
17.002272727272729
31
0
0
LINE
5
116
100
AcDbEntity
8
CUTOUTS
100
AcDbLine
10
2.4921506595486864
20
12.117065864108616
30
0
11
2.4921506595486842
21
17.002272727272729
31
0
0
ARC
5
117
100
AcDbEntity
8
CUTOUTS
100
AcDbCircle
10
4.4944233868214116
20
11.136363636362931
30
0
40
2.2295454545457254
210
0
220
0
230
1
100
AcDbArc
50
-206.09535996303472
51
26.095359963034749
0
LINE
5
118
100
AcDbEntity
8
CUTOUTS
100
AcDbLine
10
13.497739399956899
20
17.002272727272732
30
0
11
17.502284854502356
21
17.002272727272732
31
0
0
LINE
5
119
100
AcDbEntity
8
CUTOUTS
100
AcDbLine
10
13.497739399956899
20
12.117065864108616
30
0
11
13.497739399956899
21
17.002272727272732
31
0
0
ARC
5
11A
100
AcDbEntity
8
CUTOUTS
100
AcDbCircle
10
15.500012127229628
20
11.136363636362926
30
0
40
2.2295454545457307
210
0
220
0
230
1
100
AcDbArc
50
-206.09535996303484
51
26.095359963034625
0
LINE
5
11B
100
AcDbEntity
8
CUTOUTS
100
AcDbLine
10
17.502284854502356
20
17.002272727272732
30
0
11
17.50228485450236
21
12.117065864108609
31
0
0
LINE
5
11C
100
AcDbEntity
8
CUTOUTS
100
AcDbLine
10
-4.5088926263140809
20
17.002272727272729
30
0
11
-4.5088926263140792
21
12.117065864108611
31
0
0
LINE
5
11D
100
AcDbEntity
8
CUTOUTS
100
AcDbLine
10
-8.5134380808595331
20
17.002272727272729
30
0
11
-4.5088926263140809
21
17.002272727272729
31
0
0
LINE
5
11E
100
AcDbEntity
8
CUTOUTS
100
AcDbLine
10
-8.5134380808595349
20
12.117065864108614
30
0
11
-8.5134380808595331
21
17.002272727272729
31
0
0
ARC
5
11F
100
AcDbEntity
8
CUTOUTS
100
AcDbCircle
10
-6.5111653535868079
20
11.136363636362931
30
0
40
2.2295454545457281
210
0
220
0
230
1
100
AcDbArc
50
-206.09535996303464
51
26.095359963034578
0
LINE
5
120
100
AcDbEntity
8
CUTOUTS
100
AcDbLine
10
13.451871433716668
20
-12.997727272727273
30
0
11
13.451871433716668
21
-17.002272727272732
31
0
0
LINE
5
121
100
AcDbEntity
8
CUTOUTS
100
AcDbLine
10
13.451871433716668
20
-17.002272727272732
30
0
11
10.356416888262123
21
-17.002272727272732
31
0
0
LINE
5
122
100
AcDbEntity
8
CUTOUTS
100
AcDbLine
10
10.356416888262123
20
-17.002272727272732
30
0
11
10.356416888262123
21
-12.997727272727273
31
0
0
LINE
5
123
100
AcDbEntity
8
CUTOUTS
100
AcDbLine
10
10.356416888262123
20
-12.997727272727273
30
0
11
13.451871433716668
21
-12.997727272727273
31
0
0
LINE
5
124
100
AcDbEntity
8
CUTOUTS
100
AcDbLine
10
-17.902705576130426
20
0.63863636363636456
30
0
11
-13.89816012158497
21
0.63863636363636456
31
0
0
LINE
5
125
100
AcDbEntity
8
CUTOUTS
100
AcDbLine
10
-13.89816012158497
20
0.63863636363636456
30
0
11
-13.898160121584963
21
-5.1840909090909149
31
0
0
LINE
5
126
100
AcDbEntity
8
CUTOUTS
100
AcDbLine
10
-13.898160121584963
20
-5.1840909090909149
30
0
11
-17.902705576130426
21
-5.1840909090909149
31
0
0
LINE
5
127
100
AcDbEntity
8
CUTOUTS
100
AcDbLine
10
-17.902705576130426
20
-5.1840909090909149
30
0
11
-17.902705576130426
21
0.63863636363636456
31
0
0
LINE
5
128
100
AcDbEntity
8
CUTOUTS
100
AcDbLine
10
3.2978715556798432
20
-5.1840909090909149
30
0
11
3.2978715556798366
21
0.638636363636369
31
0
0
LINE
5
129
100
AcDbEntity
8
CUTOUTS
100
AcDbLine
10
3.2978715556798366
20
0.638636363636369
30
0
11
7.3024170102252928
21
0.638636363636369
31
0
0
LINE
5
12A
100
AcDbEntity
8
CUTOUTS
100
AcDbLine
10
7.3024170102252928
20
0.638636363636369
30
0
11
7.3024170102253017
21
-5.1840909090909149
31
0
0
LINE
5
12B
100
AcDbEntity
8
CUTOUTS
100
AcDbLine
10
7.3024170102253017
20
-5.1840909090909149
30
0
11
3.2978715556798432
21
-5.1840909090909149
31
0
0
LINE
5
12C
100
AcDbEntity
8
CUTOUTS
100
AcDbLine
10
-3.2978715556798366
20
-5.1840909090909149
30
0
11
-7.3024170102252919
21
-5.1840909090909149
31
0
0
LINE
5
12D
100
AcDbEntity
8
CUTOUTS
100
AcDbLine
10
-7.3024170102252919
20
-5.1840909090909149
30
0
11
-7.3024170102252945
21
0.638636363636369
31
0
0
LINE
5
12E
100
AcDbEntity
8
CUTOUTS
100
AcDbLine
10
-7.3024170102252945
20
0.638636363636369
30
0
11
-3.2978715556798397
21
0.638636363636369
31
0
0
LINE
5
12F
100
AcDbEntity
8
CUTOUTS
100
AcDbLine
10
-3.2978715556798397
20
0.638636363636369
30
0
11
-3.2978715556798366
21
-5.1840909090909149
31
0
0
LINE
5
130
100
AcDbEntity
8
PERIMETER
100
AcDbLine
10
-0.52500000000000213
20
-19.834090909090904
30
0
11
0.52499999999999991
21
-19.834090909090904
31
0
0
LINE
5
131
100
AcDbEntity
8
PERIMETER
100
AcDbLine
10
0.52499999999999991
20
-19.834090909090904
30
0
11
0.52499999999999769
21
-20.934090909090909
31
0
0
LINE
5
132
100
AcDbEntity
8
PERIMETER
100
AcDbLine
10
0.52499999999999769
20
-20.934090909090909
30
0
11
21.652272727272731
21
-20.934090909090898
31
0
0
LINE
5
133
100
AcDbEntity
8
PERIMETER
100
AcDbLine
10
21.652272727272731
20
-20.934090909090898
30
0
11
21.652272727272731
21
20.934090909090916
31
0
0
LINE
5
134
100
AcDbEntity
8
PERIMETER
100
AcDbLine
10
21.652272727272731
20
20.934090909090916
30
0
11
-21.652272727272731
21
20.934090909090912
31
0
0
LINE
5
135
100
AcDbEntity
8
PERIMETER
100
AcDbLine
10
-21.652272727272731
20
20.934090909090912
30
0
11
-21.652272727272731
21
-20.934090909090919
31
0
0
LINE
5
136
100
AcDbEntity
8
PERIMETER
100
AcDbLine
10
-21.652272727272731
20
-20.934090909090916
30
0
11
-0.52500000000000213
21
-20.934090909090909
31
0
0
LINE
5
137
100
AcDbEntity
8
PERIMETER
100
AcDbLine
10
-0.52500000000000213
20
-20.934090909090909
30
0
11
-0.52500000000000213
21
-19.834090909090904
31
0
0
ENDSEC
0
SECTION
2
OBJECTS
0
DICTIONARY
5
C
100
AcDbDictionary
3
ACAD_GROUP
350
D
3
ACAD_MLINESTYLE
350
17
0
DICTIONARY
5
D
100
AcDbDictionary
0
DICTIONARY
5
1A
330
C
100
AcDbDictionary
0
DICTIONARY
5
17
100
AcDbDictionary
0
ENDSEC
0
EOF
