0
SECTION
2
HEADER
9
$INSUNITS
70
4
9
$ACADVER
1
AC1014
9
$HANDSEED
5
FFFF
0
ENDSEC
0
SECTION
2
TABLES
0
TABLE
2
VPORT
5
8
100
AcDbSymbolTable
0
ENDTAB
0
TABLE
2
LTYPE
5
5
100
AcDbSymbolTable
70
2
0
LTYPE
5
14
100
AcDbSymbolTableRecord
100
AcDbLinetypeTableRecord
2
BYBLOCK
70
0
0
LTYPE
5
15
100
AcDbSymbolTableRecord
100
AcDbLinetypeTableRecord
2
BYLAYER
70
0
0
ENDTAB
0
TABLE
2
LAYER
5
2
100
AcDbSymbolTable
70
3
0
LAYER
5
50
100
AcDbSymbolTableRecord
100
AcDbLayerTableRecord
2
0
70
0
6
CONTINUOUS
0
LAYER
5
51
100
AcDbSymbolTableRecord
100
AcDbLayerTableRecord
2
CUTOUTS
70
0
62
1
6
CONTINUOUS
0
LAYER
5
52
100
AcDbSymbolTableRecord
100
AcDbLayerTableRecord
2
PERIMETER
70
0
62
5
6
CONTINUOUS
0
ENDTAB
0
TABLE
2
STYLE
5
3
100
AcDbSymbolTable
70
1
0
STYLE
5
11
100
AcDbSymbolTableRecord
100
AcDbTextStyleTableRecord
2
STANDARD
70
0
0
ENDTAB
0
TABLE
2
VIEW
5
6
100
AcDbSymbolTable
0
ENDTAB
0
TABLE
2
UCS
5
7
100
AcDbSymbolTable
0
ENDTAB
0
TABLE
2
APPID
5
9
100
AcDbSymbolTable
70
1
0
APPID
5
12
100
AcDbSymbolTableRecord
100
AcDbRegAppTableRecord
2
ACAD
70
0
0
ENDTAB
0
TABLE
2
DIMSTYLE
5
A
100
AcDbSymbolTable
0
ENDTAB
0
TABLE
2
BLOCK_RECORD
5
1
100
AcDbSymbolTable
70
2
0
BLOCK_RECORD
5
1F
100
AcDbSymbolTableRecord
100
AcDbBlockTableRecord
2
*MODEL_SPACE
0
BLOCK_RECORD
5
1B
100
AcDbSymbolTableRecord
100
AcDbBlockTableRecord
2
*PAPER_SPACE
0
ENDTAB
0
ENDSEC
0
SECTION
2
BLOCKS
0
BLOCK
5
20
100
AcDbEntity
100
AcDbBlockBegin
2
*MODEL_SPACE
0
ENDBLK
5
21
100
AcDbEntity
100
AcDbBlockEnd
0
BLOCK
5
1C
100
AcDbEntity
100
AcDbBlockBegin
2
*PAPER_SPACE
0
ENDBLK
5
1D
100
AcDbEntity
100
AcDbBlockEnd
0
ENDSEC
0
SECTION
2
ENTITIES
0
CIRCLE
5
100
100
AcDbEntity
8
CUTOUTS
100
AcDbCircle
10
18.667851376007178
20
9.2342171696710533
30
0
40
1.0750000000000015
210
0
220
0
230
1
0
LINE
5
101
100
AcDbEntity
8
CUTOUTS
100
AcDbLine
10
14.702272727272724
20
-5.5045454545454557
30
0
11
14.702272727272724
21
-6.5545454545454565
31
0
0
LINE
5
102
100
AcDbEntity
8
CUTOUTS
100
AcDbLine
10
14.702272727272724
20
-6.5545454545454565
30
0
11
6.7522727272727305
21
-6.5545454545454565
31
0
0
LINE
5
103
100
AcDbEntity
8
CUTOUTS
100
AcDbLine
10
6.7522727272727305
20
-6.5545454545454565
30
0
11
6.7522727272727305
21
-5.5045454545454557
31
0
0
LINE
5
104
100
AcDbEntity
8
CUTOUTS
100
AcDbLine
10
6.7522727272727305
20
-5.5045454545454557
30
0
11
14.702272727272724
21
-5.5045454545454557
31
0
0
LINE
5
105
100
AcDbEntity
8
CUTOUTS
100
AcDbLine
10
-6.7522727272727252
20
-5.5045454545454557
30
0
11
-6.752272727272727
21
-6.5545454545454565
31
0
0
LINE
5
106
100
AcDbEntity
8
CUTOUTS
100
AcDbLine
10
-6.752272727272727
20
-6.5545454545454565
30
0
11
-14.702272727272728
21
-6.5545454545454565
31
0
0
LINE
5
107
100
AcDbEntity
8
CUTOUTS
100
AcDbLine
10
-14.702272727272728
20
-6.5545454545454565
30
0
11
-14.702272727272728
21
-5.5045454545454557
31
0
0
LINE
5
108
100
AcDbEntity
8
CUTOUTS
100
AcDbLine
10
-14.70227272727273
20
-5.5045454545454557
30
0
11
-6.7522727272727252
21
-5.5045454545454557
31
0
0
LINE
5
109
100
AcDbEntity
8
PERIMETER
100
AcDbLine
10
-21.652272727272724
20
17.968181818181822
30
0
11
-21.652272727272731
21
13.259217169671054
31
0
0
LINE
5
10A
100
AcDbEntity
8
PERIMETER
100
AcDbLine
10
-21.652272727272724
20
13.259217169671054
30
0
11
-22.752272727272725
21
13.259217169671054
31
0
0
LINE
5
10B
100
AcDbEntity
8
PERIMETER
100
AcDbLine
10
-22.752272727272729
20
13.259217169671054
30
0
11
-22.752272727272729
21
5.2092171696710521
31
0
0
LINE
5
10C
100
AcDbEntity
8
PERIMETER
100
AcDbLine
10
-22.752272727272729
20
5.2092171696710521
30
0
11
-21.652272727272731
21
5.2092171696710521
31
0
0
LINE
5
10D
100
AcDbEntity
8
PERIMETER
100
AcDbLine
10
-21.652272727272724
20
5.2092171696710521
30
0
11
-21.652272727272724
21
-1.7407828303289485
31
0
0
LINE
5
10E
100
AcDbEntity
8
PERIMETER
100
AcDbLine
10
-21.652272727272724
20
-1.7407828303289485
30
0
11
-22.752272727272725
21
-1.7407828303289485
31
0
0
LINE
5
10F
100
AcDbEntity
8
PERIMETER
100
AcDbLine
10
-22.752272727272729
20
-1.7407828303289485
30
0
11
-22.752272727272729
21
-9.819941598036392
31
0
0
LINE
5
110
100
AcDbEntity
8
PERIMETER
100
AcDbLine
10
-22.752272727272729
20
-9.819941598036392
30
0
11
-21.652272727272731
21
-9.819941598036392
31
0
0
LINE
5
111
100
AcDbEntity
8
PERIMETER
100
AcDbLine
10
-21.652272727272724
20
-9.819941598036392
30
0
11
-21.652272727272724
21
-16.868181818181821
31
0
0
LINE
5
112
100
AcDbEntity
8
PERIMETER
100
AcDbLine
10
-21.652272727272724
20
-16.868181818181821
30
0
11
-16.897267280722911
21
-16.868181818181821
31
0
0
LINE
5
113
100
AcDbEntity
8
PERIMETER
100
AcDbLine
10
-16.897267280722915
20
-16.868181818181821
30
0
11
-16.897267280722915
21
-17.968181818181815
31
0
0
LINE
5
114
100
AcDbEntity
8
PERIMETER
100
AcDbLine
10
-16.897267280722915
20
-17.968181818181815
30
0
11
-6.8472672807229156
21
-17.968181818181815
31
0
0
LINE
5
115
100
AcDbEntity
8
PERIMETER
100
AcDbLine
10
-6.8472672807229156
20
-17.968181818181815
30
0
11
-6.8472672807229156
21
-16.868181818181821
31
0
0
LINE
5
116
100
AcDbEntity
8
PERIMETER
100
AcDbLine
10
-6.8472672807229156
20
-16.868181818181821
30
0
11
6.8472672807229102
21
-16.868181818181821
31
0
0
LINE
5
117
100
AcDbEntity
8
PERIMETER
100
AcDbLine
10
6.8472672807229102
20
-16.868181818181821
30
0
11
6.8472672807229102
21
-17.968181818181815
31
0
0
LINE
5
118
100
AcDbEntity
8
PERIMETER
100
AcDbLine
10
6.8472672807229102
20
-17.968181818181815
30
0
11
16.897267280722922
21
-17.968181818181815
31
0
0
LINE
5
119
100
AcDbEntity
8
PERIMETER
100
AcDbLine
10
16.897267280722922
20
-17.968181818181815
30
0
11
16.897267280722922
21
-16.868181818181821
31
0
0
LINE
5
11A
100
AcDbEntity
8
PERIMETER
100
AcDbLine
10
16.897267280722922
20
-16.868181818181821
30
0
11
21.652272727272734
21
-16.868181818181821
31
0
0
LINE
5
11B
100
AcDbEntity
8
PERIMETER
100
AcDbLine
10
21.652272727272734
20
-16.868181818181821
30
0
11
21.652272727272734
21
-9.819941598036392
31
0
0
LINE
5
11C
100
AcDbEntity
8
PERIMETER
100
AcDbLine
10
21.652272727272734
20
-9.819941598036392
30
0
11
22.752272727272732
21
-9.819941598036392
31
0
0
LINE
5
11D
100
AcDbEntity
8
PERIMETER
100
AcDbLine
10
22.752272727272729
20
-9.819941598036392
30
0
11
22.752272727272729
21
-1.7407828303289485
31
0
0
LINE
5
11E
100
AcDbEntity
8
PERIMETER
100
AcDbLine
10
22.752272727272729
20
-1.7407828303289485
30
0
11
21.652272727272731
21
-1.7407828303289485
31
0
0
LINE
5
11F
100
AcDbEntity
8
PERIMETER
100
AcDbLine
10
21.652272727272734
20
-1.7407828303289485
30
0
11
21.652272727272734
21
5.2092171696710849
31
0
0
LINE
5
120
100
AcDbEntity
8
PERIMETER
100
AcDbLine
10
21.652272727272734
20
5.2092171696710849
30
0
11
22.752272727272732
21
5.2092171696710849
31
0
0
LINE
5
121
100
AcDbEntity
8
PERIMETER
100
AcDbLine
10
22.752272727272729
20
5.2092171696710849
30
0
11
22.752272727272729
21
13.259217169671022
31
0
0
LINE
5
122
100
AcDbEntity
8
PERIMETER
100
AcDbLine
10
22.752272727272729
20
13.259217169671022
30
0
11
21.652272727272731
21
13.259217169671022
31
0
0
LINE
5
123
100
AcDbEntity
8
PERIMETER
100
AcDbLine
10
21.652272727272734
20
13.259217169671022
30
0
11
21.652272727272738
21
17.968181818181822
31
0
0
LINE
5
124
100
AcDbEntity
8
PERIMETER
100
AcDbLine
10
21.652272727272734
20
17.968181818181822
30
0
11
-21.652272727272724
21
17.968181818181822
31
0
0
ENDSEC
0
SECTION
2
OBJECTS
0
DICTIONARY
5
C
100
AcDbDictionary
3
ACAD_GROUP
350
D
3
ACAD_MLINESTYLE
350
17
0
DICTIONARY
5
D
100
AcDbDictionary
0
DICTIONARY
5
1A
330
C
100
AcDbDictionary
0
DICTIONARY
5
17
100
AcDbDictionary
0
ENDSEC
0
EOF
