0
SECTION
2
HEADER
9
$INSUNITS
70
4
9
$ACADVER
1
AC1014
9
$HANDSEED
5
FFFF
0
ENDSEC
0
SECTION
2
TABLES
0
TABLE
2
VPORT
5
8
100
AcDbSymbolTable
0
ENDTAB
0
TABLE
2
LTYPE
5
5
100
AcDbSymbolTable
0
LTYPE
5
14
100
AcDbSymbolTableRecord
100
AcDbLinetypeTableRecord
2
BYBLOCK
70
0
0
LTYPE
5
15
100
AcDbSymbolTableRecord
100
AcDbLinetypeTableRecord
2
BYLAYER
70
0
0
ENDTAB
0
TABLE
2
LAYER
5
2
100
AcDbSymbolTable
70
2
0
LAYER
5
50
100
AcDbSymbolTableRecord
100
AcDbLayerTableRecord
2
0
70
0
6
CONTINUOUS
0
ENDTAB
0
TABLE
2
STYLE
5
3
100
AcDbSymbolTable
70
1
0
STYLE
5
11
100
AcDbSymbolTableRecord
100
AcDbTextStyleTableRecord
2
STANDARD
70
0
0
ENDTAB
0
TABLE
2
VIEW
5
6
100
AcDbSymbolTable
70
0
0
ENDTAB
0
TABLE
2
UCS
5
7
100
AcDbSymbolTable
70
0
0
ENDTAB
0
TABLE
2
APPID
5
9
100
AcDbSymbolTable
70
2
0
APPID
5
12
100
AcDbSymbolTableRecord
100
AcDbRegAppTableRecord
2
ACAD
70
0
0
ENDTAB
0
TABLE
2
DIMSTYLE
5
A
100
AcDbSymbolTable
70
1
0
ENDTAB
0
TABLE
2
BLOCK_RECORD
5
1
100
AcDbSymbolTable
70
1
0
BLOCK_RECORD
5
1F
100
AcDbSymbolTableRecord
100
AcDbBlockTableRecord
2
*MODEL_SPACE
0
BLOCK_RECORD
5
1B
100
AcDbSymbolTableRecord
100
AcDbBlockTableRecord
2
*PAPER_SPACE
0
ENDTAB
0
ENDSEC
0
SECTION
2
BLOCKS
0
BLOCK
5
20
100
AcDbEntity
100
AcDbBlockBegin
2
*MODEL_SPACE
0
ENDBLK
5
21
100
AcDbEntity
100
AcDbBlockEnd
0
BLOCK
5
1C
100
AcDbEntity
100
AcDbBlockBegin
2
*PAPER_SPACE
0
ENDBLK
5
1D
100
AcDbEntity
100
AcDbBlockEnd
0
ENDSEC
0
SECTION
2
ENTITIES
0
CIRCLE
5
100
100
AcDbEntity
8
0
100
AcDbCircle
10
10.250000000000005
20
-15.999999999999998
30
0
40
2.975000000000001
210
0
220
0
230
1
0
CIRCLE
5
101
100
AcDbEntity
8
0
100
AcDbCircle
10
54.250000000000007
20
-15.999999999999998
30
0
40
2.9749999999999943
210
0
220
0
230
1
0
CIRCLE
5
102
100
AcDbEntity
8
0
100
AcDbCircle
10
32.250000000000007
20
-15.999999999999998
30
0
40
2.9750000000000032
210
0
220
0
230
1
0
CIRCLE
5
103
100
AcDbEntity
8
0
100
AcDbCircle
10
-53.249999999999986
20
-10.999999999999975
30
0
40
5.9750000000000103
210
0
220
0
230
1
0
CIRCLE
5
104
100
AcDbEntity
8
0
100
AcDbCircle
10
-26.749999999999986
20
-10.999999999999979
30
0
40
5.9750000000000014
210
0
220
0
230
1
0
LINE
5
105
100
AcDbEntity
8
0
100
AcDbLine
10
40.691735511888183
20
17.405000114440906
30
0
11
40.691735511888183
21
19.995000696182231
31
0
0
LINE
5
106
100
AcDbEntity
8
0
100
AcDbLine
10
40.691735511888183
20
19.995000696182231
30
0
11
43.501735566240157
21
19.995000696182231
31
0
0
LINE
5
107
100
AcDbEntity
8
0
100
AcDbLine
10
43.501735566240157
20
19.995000696182231
30
0
11
43.501735566240157
21
17.405000114440906
31
0
0
LINE
5
108
100
AcDbEntity
8
0
100
AcDbLine
10
43.501735566240157
20
17.405000114440906
30
0
11
40.691735511888183
21
17.405000114440906
31
0
0
LINE
5
109
100
AcDbEntity
8
0
100
AcDbLine
10
-85.224999999999966
20
22.024999999999991
30
0
11
-85.224999999999966
21
23.975000000000005
31
0
0
LINE
5
110
100
AcDbEntity
8
0
100
AcDbLine
10
-85.224999999999966
20
23.975000000000005
30
0
11
-76.274999999999991
21
23.975000000000005
31
0
0
LINE
5
111
100
AcDbEntity
8
0
100
AcDbLine
10
-76.274999999999991
20
23.975000000000005
30
0
11
-76.274999999999991
21
22.024999999999991
31
0
0
LINE
5
112
100
AcDbEntity
8
0
100
AcDbLine
10
-76.274999999999991
20
22.024999999999991
30
0
11
-85.224999999999966
21
22.024999999999991
31
0
0
SPLINE
5
113
100
AcDbEntity
8
0
100
AcDbSpline
70
0
71
3
72
11
73
7
74
0
42
0.000000001
43
0.0000000001
44
0.0000000001
40
-0.18239603168789156
40
-0.18239603168789156
40
-0.18239603168789156
40
-0.18239603168789156
40
-0.09434643865231257
40
-0.09434643865231257
40
-0.09434643865231257
40
-8.7174398457246001e-05
40
-8.7174398457246001e-05
40
-8.7174398457246001e-05
40
-8.7174398457246001e-05
10
64.370529745514929
20
7.0190961135581631
30
0
10
64.134313028142969
20
6.8420177801218207
30
0
10
63.898958520488151
20
6.6657831281863427
30
0
10
63.644752711427813
20
6.5269410493549724
30
0
10
63.372619113701788
20
6.3783071744336866
30
0
10
63.07647026199021
20
6.27120934613838
30
0
10
62.779070014342764
20
6.1638123429881038
30
0
0
SPLINE
5
114
100
AcDbEntity
8
0
100
AcDbSpline
70
0
71
3
72
11
73
7
74
0
42
0.000000001
43
0.0000000001
44
0.0000000001
40
-0.22293547142285819
40
-0.22293547142285819
40
-0.22293547142285819
40
-0.22293547142285819
40
-0.11812070388655971
40
-0.11812070388655971
40
-0.11812070388655971
40
-0.0028796389229354012
40
-0.0028796389229354012
40
-0.0028796389229354012
40
-0.0028796389229354012
10
62.779070014342786
20
6.163812342988086
30
0
10
62.442557652196761
20
6.0683602791589202
30
0
10
62.106541608942806
20
5.9730853714310506
30
0
10
61.766444410744789
20
5.8994331291182505
30
0
10
61.392516535572895
20
5.8184544365103896
30
0
10
61.012474243755825
20
5.7633574346419092
30
0
10
60.631735609155513
20
5.7088348164998077
30
0
0
LINE
5
115
100
AcDbEntity
8
0
100
AcDbLine
10
60.631735609155506
20
5.708834816499806
30
0
11
60.631735609155513
21
8.3012627744754131
31
0
0
SPLINE
5
116
100
AcDbEntity
8
0
100
AcDbSpline
70
0
71
3
72
14
73
10
74
0
42
0.000000001
43
0.0000000001
44
0.0000000001
40
-0.18047828887579828
40
-0.18047828887579828
40
-0.18047828887579828
40
-0.18047828887579828
40
-0.083408645715651542
40
-0.083408645715651542
40
-0.083408645715651542
40
0
40
0
40
0
40
0.00033968225082858653
40
0.00033968225082858653
40
0.00033968225082858653
40
0.00033968225082858653
10
60.63173560915552
20
8.3012627744754131
30
0
10
60.961146666441685
20
8.349134001138772
30
0
10
61.291283322540799
20
8.4006969832445471
30
0
10
61.578141152641486
20
8.5477526553996697
30
0
10
61.824628337951864
20
8.6741125971893744
30
0
10
62.034862142605583
20
8.8687489700536322
30
0
10
62.24369808715764
20
9.0616358426187773
30
0
10
62.244548572896754
20
9.062421375658742
30
0
10
62.245399058635869
20
9.0632069086987066
30
0
10
62.246249544374948
20
9.063992441738657
30
0
0
SPLINE
5
117
100
AcDbEntity
8
0
100
AcDbSpline
70
0
71
3
72
14
73
10
74
0
42
0.000000001
43
0.0000000001
44
0.0000000001
40
-0.19311590885180849
40
-0.19311590885180849
40
-0.19311590885180849
40
-0.19311590885180849
40
-0.19277201273986996
40
-0.19277201273986996
40
-0.19277201273986996
40
-0.10553678061714893
40
-0.10553678061714893
40
-0.10553678061714893
40
-0.0022755046977866633
40
-0.0022755046977866633
40
-0.0022755046977866633
40
-0.0022755046977866633
10
62.246249544375011
20
9.0639924417388507
30
0
10
62.246853685050525
20
9.0649800662591531
30
0
10
62.24745782572603
20
9.0659676907794484
30
0
10
62.248061966401529
20
9.0669553152997455
30
0
10
62.40131275997696
20
9.3174834582090593
30
0
10
62.555467231135665
20
9.5692149339353723
30
0
10
62.660067625023913
20
9.8410209702176932
30
0
10
62.783884228381737
20
10.162760678201877
30
0
10
62.836765133164661
20
10.508746626448591
30
0
10
62.888074216937213
20
10.853531570571429
30
0
0
LINE
5
118
100
AcDbEntity
8
0
100
AcDbLine
10
62.88807421693722
20
10.853531570571427
30
0
11
66.156619285745663
21
10.636941687165457
31
0
0
SPLINE
5
119
100
AcDbEntity
8
0
100
AcDbSpline
70
0
71
3
72
11
73
7
74
0
42
0.000000001
43
0.0000000001
44
0.0000000001
40
-0.22798836520509691
40
-0.22798836520509691
40
-0.22798836520509691
40
-0.22798836520509691
40
-0.10640487839407943
40
-0.10640487839407943
40
-0.10640487839407943
40
-0.00012140785803536155
40
-0.00012140785803536155
40
-0.00012140785803536155
40
-0.00012140785803536155
10
66.156619285745663
20
10.636941687165457
30
0
10
66.076724169517135
20
10.238279763387405
30
0
10
65.995981148238499
20
9.8408158617897286
30
0
10
65.872933262949559
20
9.4576440699289339
30
0
10
65.765369673241381
20
9.1226904597089877
30
0
10
65.625012061444309
20
8.7972109676875654
30
0
10
65.484263775268687
20
8.4710229721410215
30
0
0
SPLINE
5
120
100
AcDbEntity
8
0
100
AcDbSpline
70
0
71
3
72
11
73
7
74
0
42
0.000000001
43
0.0000000001
44
0.0000000001
40
-0.18483333880874894
40
-0.18483333880874894
40
-0.18483333880874894
40
-0.18483333880874894
40
-0.09019003063419366
40
-0.09019003063419366
40
-0.09019003063419366
40
-0.00015037800249255646
40
-0.00015037800249255646
40
-0.00015037800249255646
40
-0.00015037800249255646
10
65.484263775268744
20
8.471022972141002
30
0
10
65.330727623138372
20
8.1930748244563105
30
0
10
65.177673230481261
20
7.9163357591369081
30
0
10
64.986976979964012
20
7.6703150636605137
30
0
10
64.805556608192191
20
7.4362613477860773
30
0
10
64.588543623567048
20
7.2280443755870571
30
0
10
64.370529745514986
20
7.0190961135580849
30
0
0
LINE
5
121
100
AcDbEntity
8
0
100
AcDbLine
10
-72.224999999999994
20
-9.0249999999999844
30
0
11
-67.275000000000006
21
-9.0249999999999844
31
0
0
LINE
5
122
100
AcDbEntity
8
0
100
AcDbLine
10
-67.275000000000006
20
-9.0249999999999844
30
0
11
-67.275000000000006
21
-10.97499999999998
31
0
0
LINE
5
123
100
AcDbEntity
8
0
100
AcDbLine
10
-67.275000000000006
20
-10.97499999999998
30
0
11
-72.224999999999994
21
-10.97499999999998
31
0
0
LINE
5
124
100
AcDbEntity
8
0
100
AcDbLine
10
-72.224999999999994
20
-10.97499999999998
30
0
11
-72.224999999999994
21
-9.0249999999999844
31
0
0
LINE
5
125
100
AcDbEntity
8
0
100
AcDbLine
10
72.225000000000009
20
-9.0249999999999844
30
0
11
72.225000000000009
21
-10.97499999999998
31
0
0
LINE
5
126
100
AcDbEntity
8
0
100
AcDbLine
10
72.225000000000009
20
-10.97499999999998
30
0
11
67.27500000000002
21
-10.97499999999998
31
0
0
LINE
5
127
100
AcDbEntity
8
0
100
AcDbLine
10
67.27500000000002
20
-10.97499999999998
30
0
11
67.27500000000002
21
-9.0249999999999844
31
0
0
LINE
5
128
100
AcDbEntity
8
0
100
AcDbLine
10
67.27500000000002
20
-9.0249999999999844
30
0
11
72.225000000000009
21
-9.0249999999999844
31
0
0
LINE
5
129
100
AcDbEntity
8
0
100
AcDbLine
10
-85.225000000000009
20
-9.0249999999999808
30
0
11
-76.274999999999991
21
-9.0249999999999808
31
0
0
LINE
5
130
100
AcDbEntity
8
0
100
AcDbLine
10
-76.274999999999991
20
-9.0249999999999808
30
0
11
-76.274999999999991
21
-10.974999999999984
31
0
0
LINE
5
131
100
AcDbEntity
8
0
100
AcDbLine
10
-76.274999999999991
20
-10.974999999999984
30
0
11
-85.225000000000009
21
-10.97499999999998
31
0
0
LINE
5
132
100
AcDbEntity
8
0
100
AcDbLine
10
-85.225000000000009
20
-10.97499999999998
30
0
11
-85.225000000000009
21
-9.0249999999999808
31
0
0
LINE
5
133
100
AcDbEntity
8
0
100
AcDbLine
10
67.275000000000006
20
22.024999999999999
30
0
11
67.275000000000006
21
23.975000000000001
31
0
0
LINE
5
134
100
AcDbEntity
8
0
100
AcDbLine
10
67.275000000000006
20
23.975000000000001
30
0
11
72.225000000000023
21
23.975000000000001
31
0
0
LINE
5
135
100
AcDbEntity
8
0
100
AcDbLine
10
72.225000000000023
20
23.975000000000001
30
0
11
72.225000000000023
21
22.024999999999999
31
0
0
LINE
5
136
100
AcDbEntity
8
0
100
AcDbLine
10
72.225000000000023
20
22.024999999999999
30
0
11
67.275000000000006
21
22.024999999999999
31
0
0
LINE
5
137
100
AcDbEntity
8
0
100
AcDbLine
10
9.6602698336834365
20
6.024999999999987
30
0
11
11.778409572263964
21
8.555000162124621
31
0
0
LINE
5
138
100
AcDbEntity
8
0
100
AcDbLine
10
11.778409572263964
20
8.555000162124621
30
0
11
17.80173504171929
21
8.555000162124621
31
0
0
LINE
5
139
100
AcDbEntity
8
0
100
AcDbLine
10
17.80173504171929
20
8.555000162124621
30
0
11
17.80173504171929
21
6.024999999999987
31
0
0
LINE
5
140
100
AcDbEntity
8
0
100
AcDbLine
10
17.80173504171929
20
6.024999999999987
30
0
11
9.6602698336834365
21
6.024999999999987
31
0
0
LINE
5
141
100
AcDbEntity
8
0
100
AcDbLine
10
59.261735914331283
20
17.670356398768064
30
0
11
59.255557404701122
21
17.664177705007084
31
0
0
SPLINE
5
142
100
AcDbEntity
8
0
100
AcDbSpline
70
0
71
3
72
14
73
10
74
0
42
0.000000001
43
0.0000000001
44
0.0000000001
40
-0.16230008366631363
40
-0.16230008366631363
40
-0.16230008366631363
40
-0.16230008366631363
40
-0.075579441749164714
40
-0.075579441749164714
40
-0.075579441749164714
40
0
40
0
40
0
40
0.00023858443932404952
40
0.00023858443932404952
40
0.00023858443932404952
40
0.00023858443932404952
10
59.255557404701122
20
17.664177705007088
30
0
10
58.962864217573745
20
17.640493866298783
30
0
10
58.668396898036413
20
17.616208156565367
30
0
10
58.393754881016605
20
17.523692867075397
30
0
10
58.154396755104081
20
17.443063229444324
30
0
10
57.933491508966867
20
17.311755902105141
30
0
10
57.713978099864548
20
17.181500395071442
30
0
10
57.713285153708533
20
17.181089212659995
30
0
10
57.712592207552504
20
17.180678030248547
30
0
10
57.711899261396525
20
17.180266847837125
30
0
0
SPLINE
5
143
100
AcDbEntity
8
0
100
AcDbSpline
70
0
71
3
72
17
73
13
74
0
42
0.000000001
43
0.0000000001
44
0.0000000001
40
-0.1436690097236927
40
-0.1436690097236927
40
-0.1436690097236927
40
-0.1436690097236927
40
-0.14342930760082559
40
-0.14342930760082559
40
-0.14342930760082559
40
-0.072718675843701064
40
-0.072718675843701064
40
-0.072718675843701064
40
0
40
0
40
0
40
0.00011375494667329444
40
0.00011375494667329444
40
0.00011375494667329444
40
0.00011375494667329444
10
57.711899261396411
20
17.180266847837125
30
0
10
57.711297930812925
20
17.179730520623316
30
0
10
57.71069660022939
20
17.179194193409462
30
0
10
57.710095269645862
20
17.178657866195607
30
0
10
57.532706496664865
20
17.020444681988522
30
0
10
57.354161025703078
20
16.861372157919796
30
0
10
57.207129233358749
20
16.675511621529292
30
0
10
57.055922024760612
20
16.484373008253428
30
0
10
56.940018151628834
20
16.267399205155396
30
0
10
56.824691216965775
20
16.051792161184672
30
0
10
56.824510809262392
20
16.051454883758971
30
0
10
56.824330401559003
20
16.051117606333275
30
0
10
56.824149993855649
20
16.050780328907628
30
0
0
SPLINE
5
144
100
AcDbEntity
8
0
100
AcDbSpline
70
0
71
3
72
17
73
13
74
0
42
0.000000001
43
0.0000000001
44
0.0000000001
40
-0.15642716183825073
40
-0.15642716183825073
40
-0.15642716183825073
40
-0.15642716183825073
40
-0.15631288737515642
40
-0.15631288737515642
40
-0.15631288737515642
40
-0.080996875941123106
40
-0.080996875941123106
40
-0.080996875941123106
40
0
40
0
40
0
40
7.9591883116856963e-05
40
7.9591883116856963e-05
40
7.9591883116856963e-05
40
7.9591883116856963e-05
10
56.8241499938567
20
16.050780328907027
30
0
10
56.824001241342955
20
16.050427943203275
30
0
10
56.823852488829203
20
16.050075557499518
30
0
10
56.823703736315458
20
16.049723171795765
30
0
10
56.725663931770427
20
15.817472807412223
30
0
10
56.627178916563672
20
15.584325236126768
30
0
10
56.557703221391229
20
15.341887584955449
30
0
10
56.482987179534263
20
15.081163577118426
30
0
10
56.442455959919677
20
14.811908691756292
30
0
10
56.402015269143881
20
14.543728690014216
30
0
10
56.401975529947812
20
14.543465161932351
30
0
10
56.40193579075175
20
14.543201633850488
30
0
10
56.401896051555688
20
14.54293810576862
30
0
0
SPLINE
5
145
100
AcDbEntity
8
0
100
AcDbSpline
70
0
71
3
72
17
73
13
74
0
42
0.000000001
43
0.0000000001
44
0.0000000001
40
-0.16232538254182616
40
-0.16232538254182616
40
-0.16232538254182616
40
-0.16232538254182616
40
-0.16224546007675142
40
-0.16224546007675142
40
-0.16224546007675142
40
-0.080524847662094209
40
-0.080524847662094209
40
-0.080524847662094209
40
0
40
0
40
0
40
4.066879979772742e-05
40
4.066879979772742e-05
40
4.066879979772742e-05
40
4.066879979772742e-05
10
56.401896051550906
20
14.542938105769041
30
0
10
56.401873232067004
20
14.542672576954502
30
0
10
56.401850412583073
20
14.542407048139633
30
0
10
56.401827593099142
20
14.54214151932476
30
0
10
56.378494701650453
20
14.270638665376477
30
0
10
56.355129984779794
20
13.998831272916599
30
0
10
56.341765944061912
20
13.72622448994305
30
0
10
56.328597450689642
20
13.457606585329048
30
0
10
56.325168511257637
20
13.188812298207287
30
0
10
56.321737957141274
20
12.920319715913038
30
0
10
56.321736224551614
20
12.920184114649675
30
0
10
56.321734491961948
20
12.920048513386309
30
0
10
56.321732759372296
20
12.919912912123102
30
0
0
SPLINE
5
146
100
AcDbEntity
8
0
100
AcDbSpline
70
0
71
3
72
17
73
13
74
0
42
0.000000001
43
0.0000000001
44
0.0000000001
40
-0.15860587603961143
40
-0.15860587603961143
40
-0.15860587603961143
40
-0.15860587603961143
40
-0.15856522713622734
40
-0.15856522713622734
40
-0.15856522713622734
40
-0.080007891146609486
40
-0.080007891146609486
40
-0.080007891146609486
40
0
40
0
40
0
40
6.0634732207035579e-05
40
6.0634732207035579e-05
40
6.0634732207035579e-05
40
6.0634732207035579e-05
10
56.321732759361538
20
12.919912912123008
30
0
10
56.321735439937612
20
12.919777326066335
30
0
10
56.321738120513665
20
12.919641740009943
30
0
10
56.321740801089732
20
12.919506153953552
30
0
10
56.326921233932438
20
12.657474991962573
30
0
10
56.332097978422418
20
12.394982637265544
30
0
10
56.351806336085758
20
12.133123715446665
30
0
10
56.371878607054988
20
11.866429588810007
30
0
10
56.406952519133085
20
11.60134351900725
30
0
10
56.441951696035915
20
11.336721223402256
30
0
10
56.441978220491052
20
11.336520676908645
30
0
10
56.442004744946182
20
11.336320130415034
30
0
10
56.442031269401376
20
11.336119583920949
30
0
0
SPLINE
5
147
100
AcDbEntity
8
0
100
AcDbSpline
70
0
71
3
72
17
73
13
74
0
42
0.000000001
43
0.0000000001
44
0.0000000001
40
-0.15298687948852016
40
-0.15298687948852016
40
-0.15298687948852016
40
-0.15298687948852016
40
-0.15292641515193675
40
-0.15292641515193675
40
-0.15292641515193675
40
-0.074560342605609661
40
-0.074560342605609661
40
-0.074560342605609661
40
0
40
0
40
0
40
0.00015093382901453428
40
0.00015093382901453428
40
0.00015093382901453428
40
0.00015093382901453428
10
56.44203126938833
20
11.336119583919377
30
0
10
56.442067493498129
20
11.335920560479078
30
0
10
56.442103717607878
20
11.335721537039078
30
0
10
56.442139941717613
20
11.335522513599077
30
0
10
56.489088959473122
20
11.077574006779965
30
0
10
56.536155203065533
20
10.818662170840611
30
0
10
56.612826934050474
20
10.567695439237724
30
0
10
56.68577521823331
20
10.328916527868145
30
0
10
56.784984359470975
20
10.099093989920897
30
0
10
56.88378107375474
20
9.8700966902038942
30
0
10
56.883981069702457
20
9.8696331268929889
30
0
10
56.884181065650154
20
9.8691695635820853
30
0
10
56.884381061597942
20
9.8687060002709792
30
0
0
SPLINE
5
148
100
AcDbEntity
8
0
100
AcDbSpline
70
0
71
3
72
17
73
13
74
0
42
0.000000001
43
0.0000000001
44
0.0000000001
40
-0.14447095012050318
40
-0.14447095012050318
40
-0.14447095012050318
40
-0.14447095012050318
40
-0.1443206854497408
40
-0.1443206854497408
40
-0.1443206854497408
40
-0.07179308761220933
40
-0.07179308761220933
40
-0.07179308761220933
40
0
40
0
40
0
40
0.00022904663795631216
40
0.00022904663795631216
40
0.00022904663795631216
40
0.00022904663795631216
10
56.884381061598496
20
9.8687060002718177
30
0
10
56.884635558296893
20
9.8682699718917917
30
0
10
56.884890054995239
20
9.8678339435118403
30
0
10
56.885144551693585
20
9.8673979151318925
30
0
10
57.007981370854992
20
9.6569419854298761
30
0
10
57.131420430065702
20
9.4452109709491499
30
0
10
57.28757737838437
20
9.2589388545223876
30
0
10
57.442152875245725
20
9.0745531755110047
30
0
10
57.626907389037584
20
8.9173553813074609
30
0
10
57.810525636618202
20
8.760967476471933
30
0
10
57.811111447086518
20
8.7604685409196232
30
0
10
57.811697257554833
20
8.7599696053673153
30
0
10
57.812283068023106
20
8.75947066981505
30
0
0
SPLINE
5
149
100
AcDbEntity
8
0
100
AcDbSpline
70
0
71
3
72
14
73
10
74
0
42
0.000000001
43
0.0000000001
44
0.0000000001
40
-0.1564496687735551
40
-0.1564496687735551
40
-0.1564496687735551
40
-0.1564496687735551
40
-0.15622187239562321
40
-0.15622187239562321
40
-0.15622187239562321
40
-0.082873426557697472
40
-0.082873426557697472
40
-0.082873426557697472
40
-0.0023029553801712432
40
-0.0023029553801712432
40
-0.0023029553801712432
40
-0.0023029553801712432
10
57.812283068023156
20
8.7594706698150659
30
0
10
57.812950336139565
20
8.7590874416184672
30
0
10
57.81361760425596
20
8.7587042134218773
30
0
10
57.814284872372355
20
8.7583209852252892
30
0
10
58.029139382962718
20
8.6349248501489697
30
0
10
58.245419605976004
20
8.5104796751711458
30
0
10
58.479161704118169
20
8.4361753635583643
30
0
10
58.735918486981035
20
8.3545549102717054
30
0
10
59.009518807928494
20
8.3347915955712804
30
0
10
59.281735656839203
20
8.3166108659172515
30
0
0
LINE
5
150
100
AcDbEntity
8
0
100
AcDbLine
10
59.281735656839203
20
8.3166108659172515
30
0
11
59.281735656839217
21
5.7263351985916566
31
0
0
SPLINE
5
151
100
AcDbEntity
8
0
100
AcDbSpline
70
0
71
3
72
11
73
7
74
0
42
0.000000001
43
0.0000000001
44
0.0000000001
40
-0.28155265836591753
40
-0.28155265836591753
40
-0.28155265836591753
40
-0.28155265836591753
40
-0.13629741932121517
40
-0.13629741932121517
40
-0.13629741932121517
40
-0.00015541661960772409
40
-0.00015541661960772409
40
-0.00015541661960772409
40
-0.00015541661960772409
10
59.281735656839217
20
5.7263351985916566
30
0
10
58.794444117075095
20
5.7517124734172853
30
0
10
58.308840612995915
20
5.7785425414540299
30
0
10
57.842266048100406
20
5.8843811997102353
30
0
10
57.404964122935731
20
5.9835795969110173
30
0
10
56.981798628500052
20
6.1527722435955674
30
0
10
56.557479701839945
20
6.322627509133647
30
0
0
SPLINE
5
152
100
AcDbEntity
8
0
100
AcDbSpline
70
0
71
3
72
11
73
7
74
0
42
0.000000001
43
0.0000000001
44
0.0000000001
40
-0.25340840748220556
40
-0.25340840748220556
40
-0.25340840748220556
40
-0.25340840748220556
40
-0.12551590026006174
40
-0.12551590026006174
40
-0.12551590026006174
40
-0.00013708196484593437
40
-0.00013708196484593437
40
-0.00013708196484593437
40
-0.00013708196484593437
10
56.557479701839966
20
6.3226275091337003
30
0
10
56.181800526153502
20
6.5307130365048938
30
0
10
55.80741426497417
20
6.7383081177595265
30
0
10
55.477250197557531
20
6.999604066708498
30
0
10
55.15357540600516
20
7.2557643220364003
30
0
10
54.870229766187848
20
7.5652540117384603
30
0
10
54.586114146191477
20
7.8758547949482649
30
0
0
SPLINE
5
153
100
AcDbEntity
8
0
100
AcDbSpline
70
0
71
3
72
11
73
7
74
0
42
0.000000001
43
0.0000000001
44
0.0000000001
40
-0.2613907813856714
40
-0.2613907813856714
40
-0.2613907813856714
40
-0.2613907813856714
40
-0.13380768817600233
40
-0.13380768817600233
40
-0.13380768817600233
40
-0.00011911809255789526
40
-0.00011911809255789526
40
-0.00011911809255789526
40
-0.00011911809255789526
10
54.586114146191463
20
7.875854794948256
30
0
10
54.334015288343593
20
8.2212172777514958
30
0
10
54.082713829011055
20
8.5657311721795892
30
0
10
53.883768909218134
20
8.9368127030905224
30
0
10
53.675303499081302
20
9.3256523056100349
30
0
10
53.523115242251066
20
9.7459208739327412
30
0
10
53.370652218558376
20
10.16737795360903
30
0
0
SPLINE
5
154
100
AcDbEntity
8
0
100
AcDbSpline
70
0
71
3
72
11
73
7
74
0
42
0.000000001
43
0.0000000001
44
0.0000000001
40
-0.2874665875130733
40
-0.2874665875130733
40
-0.2874665875130733
40
-0.2874665875130733
40
-0.14733981777661975
40
-0.14733981777661975
40
-0.14733981777661975
40
-7.4144809320990108e-05
40
-7.4144809320990108e-05
40
-7.4144809320990108e-05
40
-7.4144809320990108e-05
10
53.370652218558348
20
10.167377953609019
30
0
10
53.254105056404086
20
10.621280626870981
30
0
10
53.137870029588157
20
11.074335172610283
30
0
10
53.071478375364464
20
11.533576747599412
30
0
10
53.001704329641044
20
12.016214859664176
30
0
10
52.986698983395932
20
12.507642222796962
30
0
10
52.971746647775419
20
13.000015627182979
30
0
0
SPLINE
5
155
100
AcDbEntity
8
0
100
AcDbSpline
70
0
71
3
72
11
73
7
74
0
42
0.000000001
43
0.0000000001
44
0.0000000001
40
-0.28753282150354204
40
-0.28753282150354204
40
-0.28753282150354204
40
-0.28753282150354204
40
-0.13926950204246905
40
-0.13926950204246905
40
-0.13926950204246905
40
-9.9578582819777981e-05
40
-9.9578582819777981e-05
40
-9.9578582819777981e-05
40
-9.9578582819777981e-05
10
52.97174664777539
20
13.000015627182979
30
0
10
52.986201499458268
20
13.495803522219257
30
0
10
53.000712716723342
20
13.990626175054865
30
0
10
53.071474503579445
20
14.476396801129088
30
0
10
53.137896275980253
20
14.932373782458212
30
0
10
53.254138194515697
20
15.382146348662175
30
0
10
53.370689014714252
20
15.832772927887877
30
0
0
SPLINE
5
156
100
AcDbEntity
8
0
100
AcDbSpline
70
0
71
3
72
11
73
7
74
0
42
0.000000001
43
0.0000000001
44
0.0000000001
40
-0.25785600666442882
40
-0.25785600666442882
40
-0.25785600666442882
40
-0.25785600666442882
40
-0.12536852135518411
40
-0.12536852135518411
40
-0.12536852135518411
40
-0.00015810323272306962
40
-0.00015810323272306962
40
-0.00015810323272306962
40
-0.00015810323272306962
10
53.370689014714301
20
15.832772927887863
30
0
10
53.515924581596551
20
16.252697264100703
30
0
10
53.660887371044417
20
16.67139064648946
30
0
10
53.863875008042982
20
17.058388023550556
30
0
10
54.055713254824994
20
17.424129008678424
30
0
10
54.300485054589785
20
17.763672671382139
30
0
10
54.546079599102171
20
18.104084650239418
30
0
0
SPLINE
5
157
100
AcDbEntity
8
0
100
AcDbSpline
70
0
71
3
72
11
73
7
74
0
42
0.000000001
43
0.0000000001
44
0.0000000001
40
-0.25096110013998579
40
-0.25096110013998579
40
-0.25096110013998579
40
-0.25096110013998579
40
-0.12699704253890876
40
-0.12699704253890876
40
-0.12699704253890876
40
-0.00015241629597894076
40
-0.00015241629597894076
40
-0.00015241629597894076
40
-0.00015241629597894076
10
54.546079599102193
20
18.104084650239404
30
0
10
54.830420186249881
20
18.408068281534472
30
0
10
55.113980732425247
20
18.710932826161155
30
0
10
55.43700916670366
20
18.960208866476446
30
0
10
55.767543853973571
20
19.215277365983482
30
0
10
56.141711421758913
20
19.416020035863973
30
0
10
56.517191145124826
20
19.617240175358013
30
0
0
SPLINE
5
158
100
AcDbEntity
8
0
100
AcDbSpline
70
0
71
3
72
11
73
7
74
0
42
0.000000001
43
0.0000000001
44
0.0000000001
40
-0.28576966879638527
40
-0.28576966879638527
40
-0.28576966879638527
40
-0.28576966879638527
40
-0.14946992735626369
40
-0.14946992735626369
40
-0.14946992735626369
40
-0.0026382695039834877
40
-0.0026382695039834877
40
-0.0026382695039834877
40
-0.0026382695039834877
10
56.517191145124769
20
19.61724017535812
30
0
10
56.943552205789587
20
19.782245552025199
30
0
10
57.368826523374594
20
19.946652272384597
30
0
10
57.807240360864498
20
20.045614510002821
30
0
10
58.279530549414133
20
20.152223585417978
30
0
10
58.769836657688856
20
20.183511707603184
30
0
10
59.261735914331304
20
20.213435283664335
30
0
0
LINE
5
159
100
AcDbEntity
8
0
100
AcDbLine
10
59.261735914331311
20
20.213435283664332
30
0
11
59.261735914331283
21
17.670356398768064
31
0
0
LINE
5
160
100
AcDbEntity
8
0
100
AcDbLine
10
47.981735704522933
20
6.0249999999999915
30
0
11
44.851735816579676
21
6.0249999999999897
31
0
0
LINE
5
161
100
AcDbEntity
8
0
100
AcDbLine
10
44.851735816579676
20
6.0249999999999897
30
0
11
44.851735816579676
21
19.995000696182235
31
0
0
LINE
5
162
100
AcDbEntity
8
0
100
AcDbLine
10
44.851735816579676
20
19.995000696182235
30
0
11
47.981735704522933
21
19.995000696182235
31
0
0
LINE
5
163
100
AcDbEntity
8
0
100
AcDbLine
10
47.981735704522933
20
19.995000696182235
30
0
11
47.981735704522933
21
6.0249999999999915
31
0
0
SPLINE
5
164
100
AcDbEntity
8
0
100
AcDbSpline
70
0
71
3
72
14
73
10
74
0
42
0.000000001
43
0.0000000001
44
0.0000000001
40
-0.28290473601533384
40
-0.28290473601533384
40
-0.28290473601533384
40
-0.28290473601533384
40
-0.27957471474013829
40
-0.27957471474013829
40
-0.27957471474013829
40
-0.13977309687662715
40
-0.13977309687662715
40
-0.13977309687662715
40
-4.2959532890468663e-05
40
-4.2959532890468663e-05
40
-4.2959532890468663e-05
40
-4.2959532890468663e-05
10
35.060356545274438
20
11.515429173848338
30
0
10
35.057121237155485
20
11.526048216259779
30
0
10
35.053885929036525
20
11.536667258671223
30
0
10
35.050650620917565
20
11.547286301082664
30
0
10
34.914825269684322
20
11.993097059211733
30
0
10
34.778959859641688
20
12.439043416723194
30
0
10
34.635523835426177
20
12.88269080109345
30
0
10
34.492161150001166
20
13.326111348706622
30
0
10
34.341322550128261
20
13.766966303978421
30
0
10
34.190528507292257
20
14.207687235762812
30
0
0
SPLINE
5
165
100
AcDbEntity
8
0
100
AcDbSpline
70
0
71
3
72
14
73
10
74
0
42
0.000000001
43
0.0000000001
44
0.0000000001
40
-0.27887499289052142
40
-0.27887499289052142
40
-0.27887499289052142
40
-0.27887499289052142
40
-0.13990354979880784
40
-0.13990354979880784
40
-0.13990354979880784
40
0
40
0
40
0
40
0.014694016856077552
40
0.014694016856077552
40
0.014694016856077552
40
0.014694016856077552
10
34.190528507292271
20
14.207687235762815
30
0
10
34.05548606551519
20
14.651622160339867
30
0
10
33.920667269982545
20
15.094947174431997
30
0
10
33.821146967536443
20
15.545393325891581
30
0
10
33.72095916434818
20
15.998860701493474
30
0
10
33.656259168724425
20
16.460838627074558
30
0
10
33.59149421222476
20
16.923466120579445
30
0
10
33.584691973369075
20
16.97205571103245
30
0
10
33.577889734513391
20
17.020645301485455
30
0
10
33.571087495657721
20
17.069234891938461
30
0
0
LINE
5
166
100
AcDbEntity
8
0
100
AcDbLine
10
33.571087495657721
20
17.069234891938461
30
0
11
33.342338465306142
21
15.925456458464886
31
0
0
SPLINE
5
167
100
AcDbEntity
8
0
100
AcDbSpline
70
0
71
3
72
14
73
10
74
0
42
0.000000001
43
0.0000000001
44
0.0000000001
40
-0.10142479069507303
40
-0.10142479069507303
40
-0.10142479069507303
40
-0.10142479069507303
40
-0.051580030080800587
40
-0.051580030080800587
40
-0.051580030080800587
40
0
40
0
40
0
40
6.5588846067345317e-05
40
6.5588846067345317e-05
40
6.5588846067345317e-05
40
6.5588846067345317e-05
10
33.342338465306142
20
15.925456458464886
30
0
10
33.306062817216052
20
15.763244851729858
30
0
10
33.269851024404311
20
15.601347016338689
30
0
10
33.227566080121612
20
15.441389728131396
30
0
10
33.183809049870327
20
15.275863770423957
30
0
10
33.133375836865397
20
15.111762092247229
30
0
10
33.082838977540931
20
14.947345668329842
30
0
10
33.082774715184343
20
14.947136597425853
30
0
10
33.082710452827733
20
14.946927526521819
30
0
10
33.08264619047111
20
14.946718455617734
30
0
0
LINE
5
168
100
AcDbEntity
8
0
100
AcDbLine
10
33.08264619047111
20
14.946718455617731
30
0
11
30.468010512315491
21
6.024999999999987
31
0
0
LINE
5
169
100
AcDbEntity
8
0
100
AcDbLine
10
30.468010512315491
20
6.024999999999987
30
0
11
26.961782520427789
21
6.0249999999999844
31
0
0
LINE
5
170
100
AcDbEntity
8
0
100
AcDbLine
10
26.961782520427789
20
6.0249999999999844
30
0
11
31.76456856840581
21
19.9750009536743
31
0
0
LINE
5
171
100
AcDbEntity
8
0
100
AcDbLine
10
31.76456856840581
20
19.9750009536743
30
0
11
35.329022844505019
21
19.975000953674304
31
0
0
LINE
5
172
100
AcDbEntity
8
0
100
AcDbLine
10
35.329022844505019
20
19.975000953674304
30
0
11
40.231450661667225
21
6.024999999999987
31
0
0
LINE
5
173
100
AcDbEntity
8
0
100
AcDbLine
10
40.231450661667225
20
6.024999999999987
30
0
11
36.765218310168223
21
6.0249999999999844
31
0
0
LINE
5
174
100
AcDbEntity
8
0
100
AcDbLine
10
36.765218310168223
20
6.0249999999999844
30
0
11
35.845218233874277
21
9.0249995231628297
31
0
0
LINE
5
175
100
AcDbEntity
8
0
100
AcDbLine
10
35.845218233874277
20
9.0249995231628297
30
0
11
32.740387863020253
21
9.0249995231628262
31
0
0
LINE
5
176
100
AcDbEntity
8
0
100
AcDbLine
10
32.740387863020253
20
9.0249995231628262
30
0
11
33.485379726958428
21
11.495237425666565
31
0
0
LINE
5
177
100
AcDbEntity
8
0
100
AcDbLine
10
33.485379726958428
20
11.495237425666565
30
0
11
35.060356545274438
21
11.515429173848348
31
0
0
LINE
5
178
100
AcDbEntity
8
0
100
AcDbLine
10
76.275000000000006
20
-10.974999999999984
30
0
11
76.275000000000006
21
-9.0249999999999808
31
0
0
LINE
5
179
100
AcDbEntity
8
0
100
AcDbLine
10
76.275000000000006
20
-9.0249999999999808
30
0
11
85.225000000000023
21
-9.0249999999999808
31
0
0
LINE
5
180
100
AcDbEntity
8
0
100
AcDbLine
10
85.225000000000023
20
-9.0249999999999808
30
0
11
85.225000000000051
21
-10.97499999999998
31
0
0
LINE
5
181
100
AcDbEntity
8
0
100
AcDbLine
10
85.225000000000051
20
-10.97499999999998
30
0
11
76.275000000000006
21
-10.974999999999984
31
0
0
LINE
5
182
100
AcDbEntity
8
0
100
AcDbLine
10
85.225000000000023
20
22.024999999999991
30
0
11
76.275000000000006
21
22.024999999999991
31
0
0
LINE
5
183
100
AcDbEntity
8
0
100
AcDbLine
10
76.275000000000006
20
22.024999999999991
30
0
11
76.275000000000006
21
23.975000000000005
31
0
0
LINE
5
184
100
AcDbEntity
8
0
100
AcDbLine
10
76.275000000000006
20
23.975000000000005
30
0
11
85.225000000000023
21
23.975000000000005
31
0
0
LINE
5
185
100
AcDbEntity
8
0
100
AcDbLine
10
85.225000000000023
20
23.975000000000005
30
0
11
85.225000000000023
21
22.024999999999991
31
0
0
LINE
5
186
100
AcDbEntity
8
0
100
AcDbLine
10
49.151735590082026
20
17.425001049041736
30
0
11
49.151735590082026
21
19.995000696182231
31
0
0
LINE
5
187
100
AcDbEntity
8
0
100
AcDbLine
10
49.151735590082026
20
19.995000696182231
30
0
11
52.161736724954451
21
19.995000696182231
31
0
0
LINE
5
188
100
AcDbEntity
8
0
100
AcDbLine
10
52.161736724954451
20
19.995000696182231
30
0
11
52.161736724954451
21
17.425001049041736
31
0
0
LINE
5
189
100
AcDbEntity
8
0
100
AcDbLine
10
52.161736724954451
20
17.425001049041736
30
0
11
49.151735590082026
21
17.425001049041736
31
0
0
LINE
5
190
100
AcDbEntity
8
0
100
AcDbLine
10
-67.275000000000006
20
23.974999999999994
30
0
11
-67.275000000000006
21
22.025000000000002
31
0
0
LINE
5
191
100
AcDbEntity
8
0
100
AcDbLine
10
-67.275000000000006
20
22.025000000000002
30
0
11
-72.224999999999994
21
22.025000000000002
31
0
0
LINE
5
192
100
AcDbEntity
8
0
100
AcDbLine
10
-72.224999999999994
20
22.025000000000002
30
0
11
-72.224999999999994
21
23.974999999999994
31
0
0
LINE
5
193
100
AcDbEntity
8
0
100
AcDbLine
10
-72.224999999999994
20
23.974999999999994
30
0
11
-67.275000000000006
21
23.974999999999994
31
0
0
SPLINE
5
194
100
AcDbEntity
8
0
100
AcDbSpline
70
0
71
3
72
14
73
10
74
0
42
0.000000001
43
0.0000000001
44
0.0000000001
40
-0.16269621984997915
40
-0.16269621984997915
40
-0.16269621984997915
40
-0.16269621984997915
40
-0.16242407074332571
40
-0.16242407074332571
40
-0.16242407074332571
40
-0.089012621357009394
40
-0.089012621357009394
40
-0.089012621357009394
40
-0.0021242916007500291
40
-0.0021242916007500291
40
-0.0021242916007500291
40
-0.0021242916007500291
10
62.065130514827509
20
17.017157658537805
30
0
10
62.064428320622994
20
17.017760734452256
30
0
10
62.063726126418494
20
17.018363810366687
30
0
10
62.063023932213994
20
17.018966886281113
30
0
10
61.873609037795696
20
17.181644903169175
30
0
10
61.68278954992325
20
17.345927665425805
30
0
10
61.462628559657439
20
17.452502814916777
30
0
10
61.202050395330275
20
17.578643039775489
30
0
10
60.906085171179626
20
17.621157703854109
30
0
10
60.611735866647606
20
17.661788929550305
30
0
0
LINE
5
195
100
AcDbEntity
8
0
100
AcDbLine
10
60.611735866647606
20
17.661788929550305
30
0
11
60.611735866647585
21
20.192613098740132
31
0
0
SPLINE
5
196
100
AcDbEntity
8
0
100
AcDbSpline
70
0
71
3
72
11
73
7
74
0
42
0.000000001
43
0.0000000001
44
0.0000000001
40
-0.37726919841760692
40
-0.37726919841760692
40
-0.37726919841760692
40
-0.37726919841760692
40
-0.17553487601736428
40
-0.17553487601736428
40
-0.17553487601736428
40
-0.00032400576747262206
40
-0.00032400576747262206
40
-0.00032400576747262206
40
-0.00032400576747262206
10
60.611735866647606
20
20.192613098740132
30
0
10
61.291500009221636
20
20.130509088558387
30
0
10
61.968644292717386
20
20.06633652252809
30
0
10
62.593604510555565
20
19.851360309825278
30
0
10
63.136396745095304
20
19.664648555164334
30
0
10
63.643112281274064
20
19.36304636081271
30
0
10
64.151116665180069
20
19.060207106640888
30
0
0
SPLINE
5
197
100
AcDbEntity
8
0
100
AcDbSpline
70
0
71
3
72
11
73
7
74
0
42
0.000000001
43
0.0000000001
44
0.0000000001
40
-0.38727973142204514
40
-0.38727973142204514
40
-0.38727973142204514
40
-0.38727973142204514
40
-0.21219102803194492
40
-0.21219102803194492
40
-0.21219102803194492
40
-0.0028554908631760411
40
-0.0028554908631760411
40
-0.0028554908631760411
40
-0.0028554908631760411
10
64.151116665180069
20
19.060207106640895
30
0
10
64.565758884368293
20
18.634498132829474
30
0
10
64.978584205559855
20
18.209905060721677
30
0
10
65.265127663625989
20
17.717428256343482
30
0
10
65.607718176634833
20
17.128624442096392
30
0
10
65.772840372349023
20
16.43756196492614
30
0
10
65.935730118071362
20
15.742731080806639
30
0
0
LINE
5
198
100
AcDbEntity
8
0
100
AcDbLine
10
65.935730118071362
20
15.742731080806642
30
0
11
62.805171521979055
21
15.506462585015829
31
0
0
SPLINE
5
199
100
AcDbEntity
8
0
100
AcDbSpline
70
0
71
3
72
14
73
10
74
0
42
0.000000001
43
0.0000000001
44
0.0000000001
40
-0.16827736869441226
40
-0.16827736869441226
40
-0.16827736869441226
40
-0.16827736869441226
40
-0.076826204252326669
40
-0.076826204252326669
40
-0.076826204252326669
40
0
40
0
40
0
40
0.00027546835621244719
40
0.00027546835621244719
40
0.00027546835621244719
40
0.00027546835621244719
10
62.805171521979055
20
15.50646258501583
30
0
10
62.720478037838809
20
15.802593612796464
30
0
10
62.63435323245001
20
16.099711054167081
30
0
10
62.493947173496487
20
16.371475859475169
30
0
10
62.3759949896262
20
16.599779769748672
30
0
10
62.220943612667597
20
16.80786133177428
30
0
10
62.066788729985383
20
17.014930256950265
30
0
10
62.06623599159947
20
17.015672724146139
30
0
10
62.065683253213557
20
17.016415191342013
30
0
10
62.065130514827629
20
17.017157658537908
30
0
0
LINE
5
200
100
AcDbEntity
8
0
100
AcDbLine
10
11.955160417348104
20
17.385000371932968
30
0
11
6.4317345481928312
21
17.385000371932968
31
0
0
LINE
5
201
100
AcDbEntity
8
0
100
AcDbLine
10
6.4317345481928312
20
17.385000371932968
30
0
11
6.4317345481928312
21
19.9750009536743
31
0
0
LINE
5
202
100
AcDbEntity
8
0
100
AcDbLine
10
6.4317345481928312
20
19.9750009536743
30
0
11
14.152736544483059
21
19.9750009536743
31
0
0
LINE
5
203
100
AcDbEntity
8
0
100
AcDbLine
10
14.152736544483059
20
19.9750009536743
30
0
11
11.955160417348104
21
17.385000371932968
31
0
0
LINE
5
204
100
AcDbEntity
8
0
100
AcDbLine
10
-20.774999999999984
20
6.0249999999999915
30
0
11
-59.224999999999994
21
6.0250000000000004
31
0
0
LINE
5
205
100
AcDbEntity
8
0
100
AcDbLine
10
-59.224999999999994
20
6.0250000000000004
30
0
11
-59.224999999999994
21
17.975000000000001
31
0
0
LINE
5
206
100
AcDbEntity
8
0
100
AcDbLine
10
-59.224999999999994
20
17.975000000000001
30
0
11
-20.774999999999984
21
17.975000000000001
31
0
0
LINE
5
207
100
AcDbEntity
8
0
100
AcDbLine
10
-20.774999999999984
20
17.975000000000001
30
0
11
-20.774999999999984
21
6.0249999999999915
31
0
0
LINE
5
208
100
AcDbEntity
8
0
100
AcDbLine
10
7.8951537553413473
20
6.0249999999999808
30
0
11
6.0117345166023695
21
6.0249999999999826
31
0
0
LINE
5
209
100
AcDbEntity
8
0
100
AcDbLine
10
6.0117345166023695
20
6.0249999999999826
30
0
11
6.0117345166023695
21
8.3308038943428606
31
0
0
LINE
5
210
100
AcDbEntity
8
0
100
AcDbLine
10
6.0117345166023695
20
8.3308038943428606
30
0
11
15.918288943595389
21
19.9750009536743
31
0
0
LINE
5
211
100
AcDbEntity
8
0
100
AcDbLine
10
15.918288943595389
20
19.9750009536743
30
0
11
17.681734202485892
21
19.9750009536743
31
0
0
LINE
5
212
100
AcDbEntity
8
0
100
AcDbLine
10
17.681734202485892
20
19.9750009536743
30
0
11
17.681734202485892
21
17.569171063396634
31
0
0
LINE
5
213
100
AcDbEntity
8
0
100
AcDbLine
10
17.681734202485892
20
17.569171063396634
30
0
11
7.8951537553413473
21
6.0249999999999808
31
0
0
LINE
5
214
100
AcDbEntity
8
0
100
AcDbLine
10
19.711734564286086
20
11.164999389648422
30
0
11
19.711734564286086
21
13.474999999999987
31
0
0
LINE
5
215
100
AcDbEntity
8
0
100
AcDbLine
10
19.711734564286086
20
13.474999999999987
30
0
11
25.481735108476492
21
13.474999999999987
31
0
0
LINE
5
216
100
AcDbEntity
8
0
100
AcDbLine
10
25.481735108476492
20
13.474999999999987
30
0
11
25.481735108476492
21
11.164999389648425
31
0
0
LINE
5
217
100
AcDbEntity
8
0
100
AcDbLine
10
25.481735108476492
20
11.164999389648425
30
0
11
19.711734564286086
21
11.164999389648422
31
0
0
LINE
5
218
100
AcDbEntity
8
0
100
AcDbLine
10
-87.274999999999991
20
5.9750000000000769
30
0
11
-87.274999999999991
21
-3.974999999999933
31
0
0
LINE
5
219
100
AcDbEntity
8
0
100
AcDbLine
10
-87.274999999999991
20
-3.974999999999933
30
0
11
-89.274999999999977
21
-3.9749999999999286
31
0
0
LINE
5
220
100
AcDbEntity
8
0
100
AcDbLine
10
-89.274999999999977
20
-3.9749999999999286
30
0
11
-89.274999999999977
21
-24.024999999999995
31
0
0
LINE
5
221
100
AcDbEntity
8
0
100
AcDbLine
10
-89.274999999999977
20
-24.024999999999995
30
0
11
-87.274999999999991
21
-24.024999999999995
31
0
0
LINE
5
222
100
AcDbEntity
8
0
100
AcDbLine
10
-87.274999999999991
20
-24.024999999999995
30
0
11
-87.274999999999991
21
-30.024999999999991
31
0
0
LINE
5
223
100
AcDbEntity
8
0
100
AcDbLine
10
-87.274999999999991
20
-30.024999999999991
30
0
11
-11.974999999999989
21
-30.024999999999991
31
0
0
LINE
5
224
100
AcDbEntity
8
0
100
AcDbLine
10
-11.974999999999989
20
-30.024999999999991
30
0
11
-11.974999999999989
21
-28.024999999999999
31
0
0
LINE
5
225
100
AcDbEntity
8
0
100
AcDbLine
10
-11.974999999999989
20
-28.024999999999999
30
0
11
11.975000000000025
21
-28.024999999999999
31
0
0
LINE
5
226
100
AcDbEntity
8
0
100
AcDbLine
10
11.975000000000025
20
-28.024999999999999
30
0
11
11.975000000000025
21
-30.024999999999991
31
0
0
LINE
5
227
100
AcDbEntity
8
0
100
AcDbLine
10
11.975000000000025
20
-30.024999999999991
30
0
11
87.275000000000034
21
-30.024999999999991
31
0
0
LINE
5
228
100
AcDbEntity
8
0
100
AcDbLine
10
87.275000000000034
20
-30.024999999999991
30
0
11
87.275000000000034
21
-24.024999999999995
31
0
0
LINE
5
229
100
AcDbEntity
8
0
100
AcDbLine
10
87.275000000000034
20
-24.024999999999995
30
0
11
89.27500000000002
21
-24.024999999999995
31
0
0
LINE
5
230
100
AcDbEntity
8
0
100
AcDbLine
10
89.27500000000002
20
-24.024999999999995
30
0
11
89.27500000000002
21
-3.9749999999999863
31
0
0
LINE
5
231
100
AcDbEntity
8
0
100
AcDbLine
10
89.27500000000002
20
-3.9749999999999863
30
0
11
87.275000000000034
21
-3.9749999999999863
31
0
0
LINE
5
232
100
AcDbEntity
8
0
100
AcDbLine
10
87.275000000000034
20
-3.9749999999999863
30
0
11
87.275000000000034
21
5.975000000000021
31
0
0
LINE
5
233
100
AcDbEntity
8
0
100
AcDbLine
10
87.275000000000034
20
5.975000000000021
30
0
11
89.27500000000002
21
5.9750000000000281
31
0
0
LINE
5
234
100
AcDbEntity
8
0
100
AcDbLine
10
89.27500000000002
20
5.9750000000000281
30
0
11
89.27500000000002
21
26.024999999999995
31
0
0
LINE
5
235
100
AcDbEntity
8
0
100
AcDbLine
10
89.27500000000002
20
26.024999999999995
30
0
11
87.275000000000034
21
26.024999999999995
31
0
0
LINE
5
236
100
AcDbEntity
8
0
100
AcDbLine
10
87.275000000000034
20
26.024999999999995
30
0
11
87.275000000000034
21
30.024999999999995
31
0
0
LINE
5
237
100
AcDbEntity
8
0
100
AcDbLine
10
87.275000000000034
20
30.024999999999995
30
0
11
11.975000000000025
21
30.024999999999995
31
0
0
LINE
5
238
100
AcDbEntity
8
0
100
AcDbLine
10
11.975000000000025
20
30.024999999999995
30
0
11
11.975000000000025
21
28.024999999999991
31
0
0
LINE
5
239
100
AcDbEntity
8
0
100
AcDbLine
10
11.975000000000025
20
28.024999999999991
30
0
11
-11.974999999999989
21
28.024999999999991
31
0
0
LINE
5
240
100
AcDbEntity
8
0
100
AcDbLine
10
-11.974999999999989
20
28.024999999999991
30
0
11
-11.974999999999989
21
30.024999999999995
31
0
0
LINE
5
241
100
AcDbEntity
8
0
100
AcDbLine
10
-11.974999999999989
20
30.024999999999995
30
0
11
-87.274999999999991
21
30.024999999999995
31
0
0
LINE
5
242
100
AcDbEntity
8
0
100
AcDbLine
10
-87.274999999999991
20
30.024999999999995
30
0
11
-87.274999999999991
21
26.024999999999995
31
0
0
LINE
5
243
100
AcDbEntity
8
0
100
AcDbLine
10
-87.274999999999991
20
26.024999999999995
30
0
11
-89.274999999999977
21
26.024999999999991
31
0
0
LINE
5
244
100
AcDbEntity
8
0
100
AcDbLine
10
-89.274999999999977
20
26.024999999999991
30
0
11
-89.274999999999977
21
5.9750000000000769
31
0
0
LINE
5
245
100
AcDbEntity
8
0
100
AcDbLine
10
-89.274999999999977
20
5.9750000000000769
30
0
11
-87.274999999999991
21
5.9750000000000769
31
0
0
ENDSEC
0
SECTION
2
OBJECTS
0
DICTIONARY
5
C
100
AcDbDictionary
3
ACAD_GROUP
350
D
3
ACAD_MLINESTYLE
350
17
0
DICTIONARY
5
D
100
AcDbDictionary
0
DICTIONARY
5
1A
330
C
100
AcDbDictionary
0
DICTIONARY
5
17
100
AcDbDictionary
0
ENDSEC
0
EOF
