0
SECTION
2
HEADER
9
$INSUNITS
70
4
9
$ACADVER
1
AC1014
9
$HANDSEED
5
FFFF
0
ENDSEC
0
SECTION
2
TABLES
0
TABLE
2
VPORT
5
8
100
AcDbSymbolTable
0
ENDTAB
0
TABLE
2
LTYPE
5
5
100
AcDbSymbolTable
0
LTYPE
5
14
100
AcDbSymbolTableRecord
100
AcDbLinetypeTableRecord
2
BYBLOCK
70
0
0
LTYPE
5
15
100
AcDbSymbolTableRecord
100
AcDbLinetypeTableRecord
2
BYLAYER
70
0
0
ENDTAB
0
TABLE
2
LAYER
5
2
100
AcDbSymbolTable
70
2
0
LAYER
5
50
100
AcDbSymbolTableRecord
100
AcDbLayerTableRecord
2
0
70
0
6
CONTINUOUS
0
ENDTAB
0
TABLE
2
STYLE
5
3
100
AcDbSymbolTable
70
1
0
STYLE
5
11
100
AcDbSymbolTableRecord
100
AcDbTextStyleTableRecord
2
STANDARD
70
0
0
ENDTAB
0
TABLE
2
VIEW
5
6
100
AcDbSymbolTable
70
0
0
ENDTAB
0
TABLE
2
UCS
5
7
100
AcDbSymbolTable
70
0
0
ENDTAB
0
TABLE
2
APPID
5
9
100
AcDbSymbolTable
70
2
0
APPID
5
12
100
AcDbSymbolTableRecord
100
AcDbRegAppTableRecord
2
ACAD
70
0
0
ENDTAB
0
TABLE
2
DIMSTYLE
5
A
100
AcDbSymbolTable
70
1
0
ENDTAB
0
TABLE
2
BLOCK_RECORD
5
1
100
AcDbSymbolTable
70
1
0
BLOCK_RECORD
5
1F
100
AcDbSymbolTableRecord
100
AcDbBlockTableRecord
2
*MODEL_SPACE
0
BLOCK_RECORD
5
1B
100
AcDbSymbolTableRecord
100
AcDbBlockTableRecord
2
*PAPER_SPACE
0
ENDTAB
0
ENDSEC
0
SECTION
2
BLOCKS
0
BLOCK
5
20
100
AcDbEntity
100
AcDbBlockBegin
2
*MODEL_SPACE
0
ENDBLK
5
21
100
AcDbEntity
100
AcDbBlockEnd
0
BLOCK
5
1C
100
AcDbEntity
100
AcDbBlockBegin
2
*PAPER_SPACE
0
ENDBLK
5
1D
100
AcDbEntity
100
AcDbBlockEnd
0
ENDSEC
0
SECTION
2
ENTITIES
0
LINE
5
100
100
AcDbEntity
8
0
100
AcDbLine
10
73.341503648122341
20
-7.5695705203022356
30
0
11
72.288714246613068
21
-5.6221400690237289
31
0
0
LINE
5
101
100
AcDbEntity
8
0
100
AcDbLine
10
72.288714246613068
20
-5.6221400690237289
30
0
11
73.341503648122426
21
-3.6747096177451954
31
0
0
LINE
5
102
100
AcDbEntity
8
0
100
AcDbLine
10
73.341503648122426
20
-3.6747096177451954
30
0
11
74.394293049631628
21
-5.6221400690237289
31
0
0
LINE
5
103
100
AcDbEntity
8
0
100
AcDbLine
10
74.394293049631628
20
-5.6221400690237289
30
0
11
73.341503648122341
21
-7.5695705203022356
31
0
0
LINE
5
104
100
AcDbEntity
8
0
100
AcDbLine
10
64.341503648122369
20
-4.5695705203022374
30
0
11
63.288714246613011
21
-2.6221400690237218
31
0
0
LINE
5
105
100
AcDbEntity
8
0
100
AcDbLine
10
63.288714246613011
20
-2.6221400690237218
30
0
11
64.341503648122369
21
-0.67470961774521498
31
0
0
LINE
5
106
100
AcDbEntity
8
0
100
AcDbLine
10
64.341503648122369
20
-0.67470961774521498
30
0
11
65.394293049631713
21
-2.6221400690237218
31
0
0
LINE
5
107
100
AcDbEntity
8
0
100
AcDbLine
10
65.394293049631713
20
-2.6221400690237218
30
0
11
64.341503648122369
21
-4.5695705203022374
31
0
0
LINE
5
108
100
AcDbEntity
8
0
100
AcDbLine
10
72.288714246613068
20
0.37785993097624981
30
0
11
73.341503648122426
21
2.3252903822547921
31
0
0
LINE
5
109
100
AcDbEntity
8
0
100
AcDbLine
10
73.341503648122426
20
2.3252903822547921
30
0
11
74.394293049631628
21
0.37785993097624981
31
0
0
LINE
5
110
100
AcDbEntity
8
0
100
AcDbLine
10
74.394293049631628
20
0.37785993097624981
30
0
11
73.341503648122341
21
-1.5695705203022214
31
0
0
LINE
5
111
100
AcDbEntity
8
0
100
AcDbLine
10
73.341503648122341
20
-1.5695705203022214
30
0
11
72.288714246613068
21
0.37785993097624981
31
0
0
LINE
5
112
100
AcDbEntity
8
0
100
AcDbLine
10
64.341503648122369
20
1.4304294796977413
30
0
11
63.288714246613011
21
3.3778599309762569
31
0
0
LINE
5
113
100
AcDbEntity
8
0
100
AcDbLine
10
63.288714246613011
20
3.3778599309762569
30
0
11
64.341503648122369
21
5.3252903822547992
31
0
0
LINE
5
114
100
AcDbEntity
8
0
100
AcDbLine
10
64.341503648122369
20
5.3252903822547992
30
0
11
65.394293049631713
21
3.3778599309762569
31
0
0
LINE
5
115
100
AcDbEntity
8
0
100
AcDbLine
10
65.394293049631713
20
3.3778599309762569
30
0
11
64.341503648122369
21
1.4304294796977413
31
0
0
LINE
5
116
100
AcDbEntity
8
0
100
AcDbLine
10
76.341503648122313
20
-4.5695705203022374
30
0
11
75.288714246612969
21
-2.6221400690237218
31
0
0
LINE
5
117
100
AcDbEntity
8
0
100
AcDbLine
10
75.288714246612969
20
-2.6221400690237218
30
0
11
76.341503648122313
21
-0.67470961774521498
31
0
0
LINE
5
118
100
AcDbEntity
8
0
100
AcDbLine
10
76.341503648122313
20
-0.67470961774521498
30
0
11
77.394293049631671
21
-2.6221400690237218
31
0
0
LINE
5
119
100
AcDbEntity
8
0
100
AcDbLine
10
77.394293049631671
20
-2.6221400690237218
30
0
11
76.341503648122313
21
-4.5695705203022374
31
0
0
LINE
5
120
100
AcDbEntity
8
0
100
AcDbLine
10
67.341503648122341
20
-7.5695705203022356
30
0
11
66.288714246613054
21
-5.6221400690237289
31
0
0
LINE
5
121
100
AcDbEntity
8
0
100
AcDbLine
10
66.288714246613054
20
-5.6221400690237289
30
0
11
67.341503648122398
21
-3.6747096177451866
31
0
0
LINE
5
122
100
AcDbEntity
8
0
100
AcDbLine
10
67.341503648122398
20
-3.6747096177451866
30
0
11
68.394293049631685
21
-5.6221400690237289
31
0
0
LINE
5
123
100
AcDbEntity
8
0
100
AcDbLine
10
68.394293049631685
20
-5.6221400690237289
30
0
11
67.341503648122341
21
-7.5695705203022356
31
0
0
LINE
5
124
100
AcDbEntity
8
0
100
AcDbLine
10
76.341503648122313
20
1.4304294796977413
30
0
11
75.288714246612969
21
3.3778599309762569
31
0
0
LINE
5
125
100
AcDbEntity
8
0
100
AcDbLine
10
75.288714246612969
20
3.3778599309762569
30
0
11
76.341503648122313
21
5.3252903822547992
31
0
0
LINE
5
126
100
AcDbEntity
8
0
100
AcDbLine
10
76.341503648122313
20
5.3252903822547992
30
0
11
77.394293049631671
21
3.3778599309762569
31
0
0
LINE
5
127
100
AcDbEntity
8
0
100
AcDbLine
10
77.394293049631671
20
3.3778599309762569
30
0
11
76.341503648122313
21
1.4304294796977413
31
0
0
LINE
5
128
100
AcDbEntity
8
0
100
AcDbLine
10
70.341503648122369
20
1.4304294796977501
30
0
11
69.288714246613026
21
3.3778599309762569
31
0
0
LINE
5
129
100
AcDbEntity
8
0
100
AcDbLine
10
69.288714246613026
20
3.3778599309762569
30
0
11
70.341503648122369
21
5.3252903822547992
31
0
0
LINE
5
130
100
AcDbEntity
8
0
100
AcDbLine
10
70.341503648122369
20
5.3252903822547992
30
0
11
71.394293049631656
21
3.3778599309762569
31
0
0
LINE
5
131
100
AcDbEntity
8
0
100
AcDbLine
10
71.394293049631656
20
3.3778599309762569
30
0
11
70.341503648122369
21
1.4304294796977501
31
0
0
LINE
5
132
100
AcDbEntity
8
0
100
AcDbLine
10
66.288714246613054
20
0.37785993097624981
30
0
11
67.341503648122398
21
2.3252903822547921
31
0
0
LINE
5
133
100
AcDbEntity
8
0
100
AcDbLine
10
67.341503648122398
20
2.3252903822547921
30
0
11
68.394293049631685
21
0.37785993097624981
31
0
0
LINE
5
134
100
AcDbEntity
8
0
100
AcDbLine
10
68.394293049631685
20
0.37785993097624981
30
0
11
67.341503648122341
21
-1.5695705203022214
31
0
0
LINE
5
135
100
AcDbEntity
8
0
100
AcDbLine
10
67.341503648122341
20
-1.5695705203022214
30
0
11
66.288714246613054
21
0.37785993097624981
31
0
0
LINE
5
136
100
AcDbEntity
8
0
100
AcDbLine
10
71.394293049631727
20
-2.6221400690237218
30
0
11
70.341503648122369
21
-4.5695705203022285
31
0
0
LINE
5
137
100
AcDbEntity
8
0
100
AcDbLine
10
70.341503648122369
20
-4.5695705203022285
30
0
11
69.288714246613026
21
-2.6221400690237218
31
0
0
LINE
5
138
100
AcDbEntity
8
0
100
AcDbLine
10
69.288714246613026
20
-2.6221400690237218
30
0
11
70.341503648122369
21
-0.6747096177452061
31
0
0
LINE
5
139
100
AcDbEntity
8
0
100
AcDbLine
10
70.341503648122369
20
-0.6747096177452061
30
0
11
71.394293049631727
21
-2.6221400690237218
31
0
0
LINE
5
140
100
AcDbEntity
8
0
100
AcDbLine
10
106.6346098016096
20
3.9749999999999908
30
0
11
108.58460980160959
21
3.9749999999999908
31
0
0
LINE
5
141
100
AcDbEntity
8
0
100
AcDbLine
10
108.58460980160959
20
3.9749999999999908
30
0
11
108.58460980160959
21
-3.9749999999999996
31
0
0
LINE
5
142
100
AcDbEntity
8
0
100
AcDbLine
10
108.58460980160959
20
-3.9749999999999996
30
0
11
106.6346098016096
21
-3.9749999999999996
31
0
0
LINE
5
143
100
AcDbEntity
8
0
100
AcDbLine
10
106.6346098016096
20
-3.9749999999999996
30
0
11
106.6346098016096
21
3.9749999999999908
31
0
0
LINE
5
144
100
AcDbEntity
8
0
100
AcDbLine
10
76.020076229847547
20
8.0250000000000288
30
0
11
73.859070414396768
21
8.0250000000000377
31
0
0
LINE
5
145
100
AcDbEntity
8
0
100
AcDbLine
10
73.859070414396768
20
8.0250000000000377
30
0
11
73.859070414396768
21
7.3679049072798808
31
0
0
LINE
5
146
100
AcDbEntity
8
0
100
AcDbLine
10
73.859070414396768
20
7.3679049072798808
30
0
11
74.394293049631671
21
6.377859930976264
31
0
0
LINE
5
147
100
AcDbEntity
8
0
100
AcDbLine
10
74.394293049631671
20
6.377859930976264
30
0
11
73.341503648122341
21
4.430429479697704
31
0
0
LINE
5
148
100
AcDbEntity
8
0
100
AcDbLine
10
73.341503648122341
20
4.430429479697704
30
0
11
72.28871424661304
21
6.377859930976264
31
0
0
LINE
5
149
100
AcDbEntity
8
0
100
AcDbLine
10
72.28871424661304
20
6.377859930976264
30
0
11
73.17916535685994
21
8.0250000000000288
31
0
0
LINE
5
150
100
AcDbEntity
8
0
100
AcDbLine
10
73.17916535685994
20
8.0250000000000288
30
0
11
70.662931066397178
21
8.0250000000000199
31
0
0
LINE
5
151
100
AcDbEntity
8
0
100
AcDbLine
10
70.662931066397178
20
8.0250000000000199
30
0
11
70.341503648122369
21
7.4304294796977288
31
0
0
LINE
5
152
100
AcDbEntity
8
0
100
AcDbLine
10
70.341503648122369
20
7.4304294796977288
30
0
11
70.020076229847604
21
8.0250000000000288
31
0
0
LINE
5
153
100
AcDbEntity
8
0
100
AcDbLine
10
70.020076229847604
20
8.0250000000000288
30
0
11
67.503841939384785
21
8.0250000000000465
31
0
0
LINE
5
154
100
AcDbEntity
8
0
100
AcDbLine
10
67.503841939384785
20
8.0250000000000465
30
0
11
68.394293049631727
21
6.377859930976264
31
0
0
LINE
5
155
100
AcDbEntity
8
0
100
AcDbLine
10
68.394293049631727
20
6.377859930976264
30
0
11
67.341503648122341
21
4.430429479697704
31
0
0
LINE
5
156
100
AcDbEntity
8
0
100
AcDbLine
10
67.341503648122341
20
4.430429479697704
30
0
11
66.288714246613011
21
6.377859930976264
31
0
0
LINE
5
157
100
AcDbEntity
8
0
100
AcDbLine
10
66.288714246613011
20
6.377859930976264
30
0
11
67.17916535685994
21
8.0250000000000377
31
0
0
LINE
5
158
100
AcDbEntity
8
0
100
AcDbLine
10
67.17916535685994
20
8.0250000000000377
30
0
11
64.662931066397164
21
8.0250000000000199
31
0
0
LINE
5
159
100
AcDbEntity
8
0
100
AcDbLine
10
64.662931066397164
20
8.0250000000000199
30
0
11
64.341503648122369
21
7.4304294796977288
31
0
0
LINE
5
160
100
AcDbEntity
8
0
100
AcDbLine
10
64.341503648122369
20
7.4304294796977288
30
0
11
64.020076229847575
21
8.0250000000000288
31
0
0
LINE
5
161
100
AcDbEntity
8
0
100
AcDbLine
10
64.020076229847575
20
8.0250000000000288
30
0
11
-127.18403994594811
21
8.0250000000000465
31
0
0
LINE
5
162
100
AcDbEntity
8
0
100
AcDbLine
10
-127.18403994594811
20
8.0250000000000465
30
0
11
-117.91756812545458
21
-8.0250000000000377
31
0
0
LINE
5
163
100
AcDbEntity
8
0
100
AcDbLine
10
-117.91756812545458
20
-8.0250000000000377
30
0
11
63.611530774141372
21
-8.0250000000000288
31
0
0
LINE
5
164
100
AcDbEntity
8
0
100
AcDbLine
10
63.611530774141372
20
-8.0250000000000288
30
0
11
64.341503648122369
21
-6.6747096177451493
31
0
0
LINE
5
165
100
AcDbEntity
8
0
100
AcDbLine
10
64.341503648122369
20
-6.6747096177451493
30
0
11
65.071476522103325
21
-8.0250000000000199
31
0
0
LINE
5
166
100
AcDbEntity
8
0
100
AcDbLine
10
65.071476522103325
20
-8.0250000000000199
30
0
11
69.611530774141372
21
-8.0250000000000377
31
0
0
LINE
5
167
100
AcDbEntity
8
0
100
AcDbLine
10
69.611530774141372
20
-8.0250000000000377
30
0
11
70.341503648122369
21
-6.6747096177451581
31
0
0
LINE
5
168
100
AcDbEntity
8
0
100
AcDbLine
10
70.341503648122369
20
-6.6747096177451581
30
0
11
71.071476522103353
21
-8.0250000000000377
31
0
0
LINE
5
169
100
AcDbEntity
8
0
100
AcDbLine
10
71.071476522103353
20
-8.0250000000000377
30
0
11
75.611530774141315
21
-8.0250000000000377
31
0
0
LINE
5
170
100
AcDbEntity
8
0
100
AcDbLine
10
75.611530774141315
20
-8.0250000000000377
30
0
11
76.341503648122313
21
-6.6747096177451581
31
0
0
LINE
5
171
100
AcDbEntity
8
0
100
AcDbLine
10
76.341503648122313
20
-6.6747096177451581
30
0
11
77.071476522103296
21
-8.0250000000000554
31
0
0
LINE
5
172
100
AcDbEntity
8
0
100
AcDbLine
10
77.071476522103296
20
-8.0250000000000554
30
0
11
114.63460980160959
21
-8.0250000000000377
31
0
0
LINE
5
173
100
AcDbEntity
8
0
100
AcDbLine
10
114.63460980160959
20
-8.0250000000000377
30
0
11
114.63460980160959
21
-2.0249999999999968
31
0
0
LINE
5
174
100
AcDbEntity
8
0
100
AcDbLine
10
114.63460980160959
20
-2.0249999999999968
30
0
11
119.59513168335256
21
-2.0249999999999968
31
0
0
ARC
5
175
100
AcDbEntity
8
0
100
AcDbCircle
10
123.10960980160959
20
8.8817841970012523e-15
30
0
40
4.0561288741492856
210
0
220
0
230
1
100
AcDbArc
50
-150.04997141978663
51
150.04997141978686
0
LINE
5
176
100
AcDbEntity
8
0
100
AcDbLine
10
119.59513168335255
20
2.0250000000000057
30
0
11
114.63460980160959
21
2.0249999999999968
31
0
0
LINE
5
177
100
AcDbEntity
8
0
100
AcDbLine
10
114.63460980160959
20
2.0249999999999968
30
0
11
114.63460980160959
21
8.0250000000000377
31
0
0
LINE
5
178
100
AcDbEntity
8
0
100
AcDbLine
10
114.63460980160959
20
8.0250000000000377
30
0
11
76.662931066397149
21
8.0250000000000465
31
0
0
LINE
5
179
100
AcDbEntity
8
0
100
AcDbLine
10
76.662931066397149
20
8.0250000000000465
30
0
11
76.341503648122313
21
7.4304294796977288
31
0
0
LINE
5
180
100
AcDbEntity
8
0
100
AcDbLine
10
76.341503648122313
20
7.4304294796977288
30
0
11
76.020076229847547
21
8.0250000000000288
31
0
0
ENDSEC
0
SECTION
2
OBJECTS
0
DICTIONARY
5
C
100
AcDbDictionary
3
ACAD_GROUP
350
D
3
ACAD_MLINESTYLE
350
17
0
DICTIONARY
5
D
100
AcDbDictionary
0
DICTIONARY
5
1A
330
C
100
AcDbDictionary
0
DICTIONARY
5
17
100
AcDbDictionary
0
ENDSEC
0
EOF
