0
SECTION
2
HEADER
9
$INSUNITS
70
4
9
$ACADVER
1
AC1014
9
$HANDSEED
5
FFFF
0
ENDSEC
0
SECTION
2
TABLES
0
TABLE
2
VPORT
5
8
100
AcDbSymbolTable
0
ENDTAB
0
TABLE
2
LTYPE
5
5
100
AcDbSymbolTable
0
LTYPE
5
14
100
AcDbSymbolTableRecord
100
AcDbLinetypeTableRecord
2
BYBLOCK
70
0
0
LTYPE
5
15
100
AcDbSymbolTableRecord
100
AcDbLinetypeTableRecord
2
BYLAYER
70
0
0
ENDTAB
0
TABLE
2
LAYER
5
2
100
AcDbSymbolTable
70
2
0
LAYER
5
50
100
AcDbSymbolTableRecord
100
AcDbLayerTableRecord
2
0
70
0
6
CONTINUOUS
0
ENDTAB
0
TABLE
2
STYLE
5
3
100
AcDbSymbolTable
70
1
0
STYLE
5
11
100
AcDbSymbolTableRecord
100
AcDbTextStyleTableRecord
2
STANDARD
70
0
0
ENDTAB
0
TABLE
2
VIEW
5
6
100
AcDbSymbolTable
70
0
0
ENDTAB
0
TABLE
2
UCS
5
7
100
AcDbSymbolTable
70
0
0
ENDTAB
0
TABLE
2
APPID
5
9
100
AcDbSymbolTable
70
2
0
APPID
5
12
100
AcDbSymbolTableRecord
100
AcDbRegAppTableRecord
2
ACAD
70
0
0
ENDTAB
0
TABLE
2
DIMSTYLE
5
A
100
AcDbSymbolTable
70
1
0
ENDTAB
0
TABLE
2
BLOCK_RECORD
5
1
100
AcDbSymbolTable
70
1
0
BLOCK_RECORD
5
1F
100
AcDbSymbolTableRecord
100
AcDbBlockTableRecord
2
*MODEL_SPACE
0
BLOCK_RECORD
5
1B
100
AcDbSymbolTableRecord
100
AcDbBlockTableRecord
2
*PAPER_SPACE
0
ENDTAB
0
ENDSEC
0
SECTION
2
BLOCKS
0
BLOCK
5
20
100
AcDbEntity
100
AcDbBlockBegin
2
*MODEL_SPACE
0
ENDBLK
5
21
100
AcDbEntity
100
AcDbBlockEnd
0
BLOCK
5
1C
100
AcDbEntity
100
AcDbBlockBegin
2
*PAPER_SPACE
0
ENDBLK
5
1D
100
AcDbEntity
100
AcDbBlockEnd
0
ENDSEC
0
SECTION
2
ENTITIES
0
LINE
5
100
100
AcDbEntity
8
0
100
AcDbLine
10
87.939079634345774
20
9.6193488815842443
30
0
11
87.939079634345774
21
17.569348881584261
31
0
0
LINE
5
101
100
AcDbEntity
8
0
100
AcDbLine
10
87.939079634345774
20
17.569348881584261
30
0
11
89.889079634345848
21
17.569348881584261
31
0
0
LINE
5
102
100
AcDbEntity
8
0
100
AcDbLine
10
89.889079634345848
20
17.569348881584261
30
0
11
89.889079634345848
21
9.6193488815842443
31
0
0
LINE
5
103
100
AcDbEntity
8
0
100
AcDbLine
10
89.889079634345848
20
9.6193488815842443
30
0
11
87.939079634345774
21
9.6193488815842443
31
0
0
LINE
5
104
100
AcDbEntity
8
0
100
AcDbLine
10
95.931325375514334
20
15.619348881584241
30
0
11
95.931325375514334
21
21.318233866717318
31
0
0
LINE
5
105
100
AcDbEntity
8
0
100
AcDbLine
10
95.931325375514334
20
21.318233866717318
30
0
11
-76.777586530711488
21
21.318233866717318
31
0
0
LINE
5
106
100
AcDbEntity
8
0
100
AcDbLine
10
-76.777586530711488
20
21.318233866717318
30
0
11
-76.777586530711488
21
18.318233866717346
31
0
0
LINE
5
107
100
AcDbEntity
8
0
100
AcDbLine
10
-76.777586530711488
20
18.318233866717346
30
0
11
-78.727586530711449
21
18.318233866717346
31
0
0
LINE
5
108
100
AcDbEntity
8
0
100
AcDbLine
10
-78.727586530711449
20
18.318233866717346
30
0
11
-78.727586530711449
21
21.318233866717318
31
0
0
LINE
5
109
100
AcDbEntity
8
0
100
AcDbLine
10
-78.727586530711449
20
21.318233866717318
30
0
11
-80.777586530711503
21
21.318233866717318
31
0
0
LINE
5
110
100
AcDbEntity
8
0
100
AcDbLine
10
-80.777586530711503
20
21.318233866717318
30
0
11
-80.777586530711503
21
15.268233866717349
31
0
0
LINE
5
111
100
AcDbEntity
8
0
100
AcDbLine
10
-80.777586530711503
20
15.268233866717349
30
0
11
-75.738048272904663
21
15.268233866717384
31
0
0
ARC
5
112
100
AcDbEntity
8
0
100
AcDbCircle
10
-72.252586530711483
20
13.293233866717369
30
0
40
4.0061288741492627
210
0
220
0
230
1
100
AcDbArc
50
-150.46239967471223
51
150.46239967471223
0
LINE
5
113
100
AcDbEntity
8
0
100
AcDbLine
10
-75.738048272904663
20
11.318233866717353
30
0
11
-80.777586530711503
21
11.318233866717353
31
0
0
LINE
5
114
100
AcDbEntity
8
0
100
AcDbLine
10
-80.777586530711503
20
11.318233866717353
30
0
11
-80.777586530711503
21
5.2682338667173845
31
0
0
LINE
5
115
100
AcDbEntity
8
0
100
AcDbLine
10
-80.777586530711503
20
5.2682338667173845
30
0
11
-78.727586530711449
21
5.2682338667173845
31
0
0
LINE
5
116
100
AcDbEntity
8
0
100
AcDbLine
10
-78.727586530711449
20
5.2682338667173845
30
0
11
-78.727586530711449
21
8.2682338667173561
31
0
0
LINE
5
117
100
AcDbEntity
8
0
100
AcDbLine
10
-78.727586530711449
20
8.2682338667173561
30
0
11
-76.777586530711488
21
8.2682338667173561
31
0
0
LINE
5
118
100
AcDbEntity
8
0
100
AcDbLine
10
-76.777586530711488
20
8.2682338667173561
30
0
11
-76.777586530711488
21
-3.9637664832208763
31
0
0
LINE
5
119
100
AcDbEntity
8
0
100
AcDbLine
10
-76.777586530711488
20
-3.9637664832208763
30
0
11
-78.727586530711449
21
-3.9637664832208763
31
0
0
LINE
5
120
100
AcDbEntity
8
0
100
AcDbLine
10
-78.727586530711449
20
-3.9637664832208763
30
0
11
-78.727586530711449
21
-0.28422985216931096
31
0
0
LINE
5
121
100
AcDbEntity
8
0
100
AcDbLine
10
-78.727586530711449
20
-0.28422985216931096
30
0
11
-102.09387388998618
21
-5.6846274766058791
31
0
0
LINE
5
122
100
AcDbEntity
8
0
100
AcDbLine
10
-102.09387388998618
20
-5.6846274766058791
30
0
11
-100.70077073897757
21
-11.718820165611437
31
0
0
LINE
5
123
100
AcDbEntity
8
0
100
AcDbLine
10
-100.70077073897757
20
-11.718820165611437
30
0
11
-104.55560030729561
21
-12.608777695143019
31
0
0
SPLINE
5
124
100
AcDbEntity
8
0
100
AcDbSpline
70
0
71
3
72
23
73
19
74
0
42
0.000000001
43
0.0000000001
44
0.0000000001
40
-1.0419966706914709
40
-1.0419966706914709
40
-1.0419966706914709
40
-1.0419966706914709
40
-0.096049253297460169
40
-0.096049253297460169
40
-0.096049253297460169
40
0.86593719654771106
40
0.86593719654771106
40
0.86593719654771106
40
2.0072920226403683
40
2.0072920226403683
40
2.0072920226403683
40
3.003071923304673
40
3.003071923304673
40
3.003071923304673
40
3.9647644782501472
40
3.9647644782501472
40
3.9647644782501472
40
4.1835893242814155
40
4.1835893242814155
40
4.1835893242814155
40
4.1835893242814155
10
-104.55560030729561
20
-12.608777695143019
30
0
10
-105.11281373736367
20
-11.615261185860568
30
0
10
-105.86152891145576
20
-11.004170220763658
30
0
10
-106.51570696085756
20
-11.028080922698855
30
0
10
-107.18097694070946
20
-11.052397043071931
30
0
10
-107.71188486033921
20
-11.737587243495646
30
0
10
-107.89800932425671
20
-12.788778758630315
30
0
10
-108.11883785586474
20
-14.035971491064032
30
0
10
-107.84017876900012
20
-15.765838385863304
30
0
10
-107.21408615463275
20
-17.042178892153821
30
0
10
-106.6678489748455
20
-18.155727626966485
30
0
10
-105.88260789224918
20
-18.891539382303062
30
0
10
-105.18504280688482
20
-18.922970561440824
30
0
10
-104.51135663513415
20
-18.953325794509688
30
0
10
-103.95523396295381
20
-18.321091697770093
30
0
10
-103.74076042639206
20
-17.300845550276414
30
0
10
-103.69195882303703
20
-17.068697339300645
30
0
10
-103.65965581747236
20
-16.818113191814437
30
0
10
-103.64454853720609
20
-16.554976457524031
30
0
0
LINE
5
125
100
AcDbEntity
8
0
100
AcDbLine
10
-103.64454853720609
20
-16.554976457524031
30
0
11
-99.789718968888081
21
-15.665018927992467
31
0
0
LINE
5
126
100
AcDbEntity
8
0
100
AcDbLine
10
-99.789718968888081
20
-15.665018927992467
30
0
11
-98.483419699022193
21
-21.323222700033071
31
0
0
LINE
5
127
100
AcDbEntity
8
0
100
AcDbLine
10
-98.483419699022193
20
-21.323222700033071
30
0
11
-78.727586530711449
21
-16.757270357220548
31
0
0
LINE
5
128
100
AcDbEntity
8
0
100
AcDbLine
10
-78.727586530711449
20
-16.757270357220548
30
0
11
-78.727586530711449
21
-14.013766483220866
31
0
0
LINE
5
129
100
AcDbEntity
8
0
100
AcDbLine
10
-78.727586530711449
20
-14.013766483220866
30
0
11
-76.777586530711488
21
-14.013766483220866
31
0
0
LINE
5
130
100
AcDbEntity
8
0
100
AcDbLine
10
-76.777586530711488
20
-14.013766483220866
30
0
11
-76.777586530711488
21
-16.306587918640023
31
0
0
LINE
5
131
100
AcDbEntity
8
0
100
AcDbLine
10
-76.777586530711488
20
-16.306587918640023
30
0
11
-39.380144958702417
21
-7.663321167693411
31
0
0
LINE
5
132
100
AcDbEntity
8
0
100
AcDbLine
10
-39.380144958702417
20
-7.663321167693411
30
0
11
-36.595591018666767
21
-7.024540825163097
31
0
0
LINE
5
133
100
AcDbEntity
8
0
100
AcDbLine
10
-36.595591018666767
20
-7.024540825163097
30
0
11
-36.59663283019988
21
-7.0200331865374821
31
0
0
ARC
5
134
100
AcDbEntity
8
0
100
AcDbCircle
10
71.871895298351731
20
-476.44966613328268
30
0
40
481.79830000000044
210
0
220
0
230
1
100
AcDbArc
50
91.046740583265048
51
103.01067859015787
0
LINE
5
135
100
AcDbEntity
8
0
100
AcDbLine
10
63.070378242750067
20
5.2682338667176865
30
0
11
71.871895298351731
21
5.2682338667173845
31
0
0
ARC
5
136
100
AcDbEntity
8
0
100
AcDbCircle
10
71.871895298351731
20
501.4995338667174
30
0
40
496.23129999999998
210
0
220
0
230
1
100
AcDbArc
50
270
51
272.77903561151885
0
LINE
5
137
100
AcDbEntity
8
0
100
AcDbLine
10
95.931325375514334
20
5.8518294192417741
30
0
11
95.931325375514334
21
11.569348881584265
31
0
0
LINE
5
138
100
AcDbEntity
8
0
100
AcDbLine
10
95.931325375514334
20
11.569348881584265
30
0
11
100.89960151608878
21
11.569348881584265
31
0
0
ARC
5
139
100
AcDbEntity
8
0
100
AcDbCircle
10
104.41407963434585
20
13.594348881584271
30
0
40
4.0561288741493167
210
0
220
0
230
1
100
AcDbArc
50
-150.04997141978691
51
150.04997141978708
0
LINE
5
140
100
AcDbEntity
8
0
100
AcDbLine
10
100.89960151608878
20
15.619348881584258
30
0
11
95.931325375514334
21
15.619348881584241
31
0
0
ENDSEC
0
SECTION
2
OBJECTS
0
DICTIONARY
5
C
100
AcDbDictionary
3
ACAD_GROUP
350
D
3
ACAD_MLINESTYLE
350
17
0
DICTIONARY
5
D
100
AcDbDictionary
0
DICTIONARY
5
1A
330
C
100
AcDbDictionary
0
DICTIONARY
5
17
100
AcDbDictionary
0
ENDSEC
0
EOF
