0
SECTION
2
HEADER
9
$INSUNITS
70
4
9
$ACADVER
1
AC1014
9
$HANDSEED
5
FFFF
0
ENDSEC
0
SECTION
2
TABLES
0
TABLE
2
VPORT
5
8
100
AcDbSymbolTable
0
ENDTAB
0
TABLE
2
LTYPE
5
5
100
AcDbSymbolTable
0
LTYPE
5
14
100
AcDbSymbolTableRecord
100
AcDbLinetypeTableRecord
2
BYBLOCK
70
0
0
LTYPE
5
15
100
AcDbSymbolTableRecord
100
AcDbLinetypeTableRecord
2
BYLAYER
70
0
0
ENDTAB
0
TABLE
2
LAYER
5
2
100
AcDbSymbolTable
70
2
0
LAYER
5
50
100
AcDbSymbolTableRecord
100
AcDbLayerTableRecord
2
0
70
0
6
CONTINUOUS
0
ENDTAB
0
TABLE
2
STYLE
5
3
100
AcDbSymbolTable
70
1
0
STYLE
5
11
100
AcDbSymbolTableRecord
100
AcDbTextStyleTableRecord
2
STANDARD
70
0
0
ENDTAB
0
TABLE
2
VIEW
5
6
100
AcDbSymbolTable
70
0
0
ENDTAB
0
TABLE
2
UCS
5
7
100
AcDbSymbolTable
70
0
0
ENDTAB
0
TABLE
2
APPID
5
9
100
AcDbSymbolTable
70
2
0
APPID
5
12
100
AcDbSymbolTableRecord
100
AcDbRegAppTableRecord
2
ACAD
70
0
0
ENDTAB
0
TABLE
2
DIMSTYLE
5
A
100
AcDbSymbolTable
70
1
0
ENDTAB
0
TABLE
2
BLOCK_RECORD
5
1
100
AcDbSymbolTable
70
1
0
BLOCK_RECORD
5
1F
100
AcDbSymbolTableRecord
100
AcDbBlockTableRecord
2
*MODEL_SPACE
0
BLOCK_RECORD
5
1B
100
AcDbSymbolTableRecord
100
AcDbBlockTableRecord
2
*PAPER_SPACE
0
ENDTAB
0
ENDSEC
0
SECTION
2
BLOCKS
0
BLOCK
5
20
100
AcDbEntity
100
AcDbBlockBegin
2
*MODEL_SPACE
0
ENDBLK
5
21
100
AcDbEntity
100
AcDbBlockEnd
0
BLOCK
5
1C
100
AcDbEntity
100
AcDbBlockBegin
2
*PAPER_SPACE
0
ENDBLK
5
1D
100
AcDbEntity
100
AcDbBlockEnd
0
ENDSEC
0
SECTION
2
ENTITIES
0
LINE
5
100
100
AcDbEntity
8
0
100
AcDbLine
10
74.092768645453972
20
3.9749999999999908
30
0
11
76.042768645454046
21
3.9749999999999908
31
0
0
LINE
5
101
100
AcDbEntity
8
0
100
AcDbLine
10
76.042768645454046
20
3.9749999999999908
30
0
11
76.042768645454046
21
-3.9749999999999996
31
0
0
LINE
5
102
100
AcDbEntity
8
0
100
AcDbLine
10
76.042768645454046
20
-3.9749999999999996
30
0
11
74.092768645453972
21
-3.9749999999999996
31
0
0
LINE
5
103
100
AcDbEntity
8
0
100
AcDbLine
10
74.092768645453972
20
-3.9749999999999996
30
0
11
74.092768645453972
21
3.9749999999999908
31
0
0
LINE
5
104
100
AcDbEntity
8
0
100
AcDbLine
10
55.357787729539467
20
-0.68041853022244858
30
0
11
56.410577131048854
21
1.2670119210561026
31
0
0
LINE
5
105
100
AcDbEntity
8
0
100
AcDbLine
10
56.410577131048854
20
1.2670119210561026
30
0
11
57.46336653255824
21
-0.68041853022245746
31
0
0
LINE
5
106
100
AcDbEntity
8
0
100
AcDbLine
10
57.46336653255824
20
-0.68041853022245746
30
0
11
56.410577131048854
21
-2.6278489815009731
31
0
0
LINE
5
107
100
AcDbEntity
8
0
100
AcDbLine
10
56.410577131048854
20
-2.6278489815009731
30
0
11
55.357787729539467
21
-0.68041853022244858
31
0
0
LINE
5
108
100
AcDbEntity
8
0
100
AcDbLine
10
61.35778772953941
20
5.3195814697775301
30
0
11
62.410577131048797
21
7.2670119210560813
31
0
0
LINE
5
109
100
AcDbEntity
8
0
100
AcDbLine
10
62.410577131048797
20
7.2670119210560813
30
0
11
63.463366532558183
21
5.3195814697775212
31
0
0
LINE
5
110
100
AcDbEntity
8
0
100
AcDbLine
10
63.463366532558183
20
5.3195814697775212
30
0
11
62.410577131048797
21
3.3721510184990411
31
0
0
LINE
5
111
100
AcDbEntity
8
0
100
AcDbLine
10
62.410577131048797
20
3.3721510184990411
30
0
11
61.35778772953941
21
5.3195814697775301
31
0
0
LINE
5
112
100
AcDbEntity
8
0
100
AcDbLine
10
55.357787729539467
20
5.3195814697775301
30
0
11
56.410577131048854
21
7.2670119210560813
31
0
0
LINE
5
113
100
AcDbEntity
8
0
100
AcDbLine
10
56.410577131048854
20
7.2670119210560813
30
0
11
57.46336653255824
21
5.3195814697775212
31
0
0
LINE
5
114
100
AcDbEntity
8
0
100
AcDbLine
10
57.46336653255824
20
5.3195814697775212
30
0
11
56.410577131048854
21
3.3721510184990411
31
0
0
LINE
5
115
100
AcDbEntity
8
0
100
AcDbLine
10
56.410577131048854
20
3.3721510184990411
30
0
11
55.357787729539467
21
5.3195814697775301
31
0
0
LINE
5
116
100
AcDbEntity
8
0
100
AcDbLine
10
62.410577131048797
20
-2.6278489815009731
30
0
11
61.35778772953941
21
-0.68041853022244858
31
0
0
LINE
5
117
100
AcDbEntity
8
0
100
AcDbLine
10
61.35778772953941
20
-0.68041853022244858
30
0
11
62.410577131048797
21
1.2670119210561026
31
0
0
LINE
5
118
100
AcDbEntity
8
0
100
AcDbLine
10
62.410577131048797
20
1.2670119210561026
30
0
11
63.463366532558183
21
-0.68041853022244858
31
0
0
LINE
5
119
100
AcDbEntity
8
0
100
AcDbLine
10
63.463366532558183
20
-0.68041853022244858
30
0
11
62.410577131048797
21
-2.6278489815009731
31
0
0
LINE
5
120
100
AcDbEntity
8
0
100
AcDbLine
10
59.410577131048825
20
4.2670119210560209
30
0
11
60.463366532558211
21
2.3195814697775408
31
0
0
LINE
5
121
100
AcDbEntity
8
0
100
AcDbLine
10
60.463366532558211
20
2.3195814697775408
30
0
11
59.410577131048825
21
0.3721510184990251
31
0
0
LINE
5
122
100
AcDbEntity
8
0
100
AcDbLine
10
59.410577131048825
20
0.3721510184990251
30
0
11
58.357787729539581
21
2.3195814697775408
31
0
0
LINE
5
123
100
AcDbEntity
8
0
100
AcDbLine
10
58.357787729539581
20
2.3195814697775408
30
0
11
59.410577131048825
21
4.2670119210560209
31
0
0
LINE
5
124
100
AcDbEntity
8
0
100
AcDbLine
10
51.463366532558226
20
-0.68041853022248411
30
0
11
50.410577131048839
21
-2.6278489815010087
31
0
0
LINE
5
125
100
AcDbEntity
8
0
100
AcDbLine
10
50.410577131048839
20
-2.6278489815010087
30
0
11
49.357787729539453
21
-0.68041853022248411
31
0
0
LINE
5
126
100
AcDbEntity
8
0
100
AcDbLine
10
49.357787729539453
20
-0.68041853022248411
30
0
11
50.410577131048839
21
1.2670119210560671
31
0
0
LINE
5
127
100
AcDbEntity
8
0
100
AcDbLine
10
50.410577131048839
20
1.2670119210560671
30
0
11
51.463366532558226
21
-0.68041853022248411
31
0
0
LINE
5
128
100
AcDbEntity
8
0
100
AcDbLine
10
50.410577131048839
20
7.2670119210560369
30
0
11
51.463366532558226
21
5.3195814697774768
31
0
0
LINE
5
129
100
AcDbEntity
8
0
100
AcDbLine
10
51.463366532558226
20
5.3195814697774768
30
0
11
50.410577131048839
21
3.3721510184989967
31
0
0
LINE
5
130
100
AcDbEntity
8
0
100
AcDbLine
10
50.410577131048839
20
3.3721510184989967
30
0
11
49.357787729539524
21
5.3195814697774857
31
0
0
LINE
5
131
100
AcDbEntity
8
0
100
AcDbLine
10
49.357787729539524
20
5.3195814697774857
30
0
11
50.410577131048839
21
7.2670119210560369
31
0
0
LINE
5
132
100
AcDbEntity
8
0
100
AcDbLine
10
53.410577131048811
20
0.37215101849900734
30
0
11
52.357787729539496
21
2.319581469777523
31
0
0
LINE
5
133
100
AcDbEntity
8
0
100
AcDbLine
10
52.357787729539496
20
2.319581469777523
30
0
11
53.410577131048882
21
4.2670119210560742
31
0
0
LINE
5
134
100
AcDbEntity
8
0
100
AcDbLine
10
53.410577131048882
20
4.2670119210560742
30
0
11
54.463366532558268
21
2.3195814697775496
31
0
0
LINE
5
135
100
AcDbEntity
8
0
100
AcDbLine
10
54.463366532558268
20
2.3195814697775496
30
0
11
53.410577131048811
21
0.37215101849900734
31
0
0
LINE
5
136
100
AcDbEntity
8
0
100
AcDbLine
10
59.410577131048967
20
-1.7329880789439223
30
0
11
60.463366532558211
21
-3.6804185302224734
31
0
0
LINE
5
137
100
AcDbEntity
8
0
100
AcDbLine
10
60.463366532558211
20
-3.6804185302224734
30
0
11
59.410577131048825
21
-5.6278489815009891
31
0
0
LINE
5
138
100
AcDbEntity
8
0
100
AcDbLine
10
59.410577131048825
20
-5.6278489815009891
30
0
11
58.357787729539581
21
-3.6804185302224734
31
0
0
LINE
5
139
100
AcDbEntity
8
0
100
AcDbLine
10
58.357787729539581
20
-3.6804185302224734
30
0
11
59.410577131048967
21
-1.7329880789439223
31
0
0
LINE
5
140
100
AcDbEntity
8
0
100
AcDbLine
10
52.357787729539496
20
-3.6804185302224912
30
0
11
53.410577131048882
21
-1.73298807894394
31
0
0
LINE
5
141
100
AcDbEntity
8
0
100
AcDbLine
10
53.410577131048882
20
-1.73298807894394
30
0
11
54.463366532558268
21
-3.6804185302224646
31
0
0
LINE
5
142
100
AcDbEntity
8
0
100
AcDbLine
10
54.463366532558268
20
-3.6804185302224646
30
0
11
53.410577131048811
21
-5.6278489815010069
31
0
0
LINE
5
143
100
AcDbEntity
8
0
100
AcDbLine
10
53.410577131048811
20
-5.6278489815010069
30
0
11
52.357787729539496
21
-3.6804185302224912
31
0
0
LINE
5
144
100
AcDbEntity
8
0
100
AcDbLine
10
62.736479921578905
20
-8.0250000000000288
30
0
11
82.085014386622532
21
-8.0250000000000465
31
0
0
LINE
5
145
100
AcDbEntity
8
0
100
AcDbLine
10
82.085014386622532
20
-8.0250000000000465
30
0
11
82.085014386622532
21
-2.0250000000000057
31
0
0
LINE
5
146
100
AcDbEntity
8
0
100
AcDbLine
10
82.085014386622532
20
-2.0250000000000057
30
0
11
87.053290527196978
21
-2.0249999999999879
31
0
0
ARC
5
147
100
AcDbEntity
8
0
100
AcDbCircle
10
90.567768645454052
20
8.8817841970012523e-15
30
0
40
4.0561288741493122
210
0
220
0
230
1
100
AcDbArc
50
-150.04997141978703
51
150.04997141978691
0
LINE
5
148
100
AcDbEntity
8
0
100
AcDbLine
10
87.053290527196978
20
2.0250000000000146
30
0
11
82.085014386622532
21
2.0250000000000057
31
0
0
LINE
5
149
100
AcDbEntity
8
0
100
AcDbLine
10
82.085014386622532
20
2.0250000000000057
30
0
11
82.085014386622532
21
8.0250000000000465
31
0
0
LINE
5
150
100
AcDbEntity
8
0
100
AcDbLine
10
82.085014386622532
20
8.0250000000000465
30
0
11
60.304114504297459
21
8.0250000000000377
31
0
0
LINE
5
151
100
AcDbEntity
8
0
100
AcDbLine
10
60.304114504297459
20
8.0250000000000377
30
0
11
59.410577131048825
21
6.3721510184989949
31
0
0
LINE
5
152
100
AcDbEntity
8
0
100
AcDbLine
10
59.410577131048825
20
6.3721510184989949
30
0
11
58.517039757800191
21
8.0250000000000465
31
0
0
LINE
5
153
100
AcDbEntity
8
0
100
AcDbLine
10
58.517039757800191
20
8.0250000000000465
30
0
11
54.304114504297445
21
8.0250000000000554
31
0
0
LINE
5
154
100
AcDbEntity
8
0
100
AcDbLine
10
54.304114504297445
20
8.0250000000000554
30
0
11
53.410577131048882
21
6.3721510184989594
31
0
0
LINE
5
155
100
AcDbEntity
8
0
100
AcDbLine
10
53.410577131048882
20
6.3721510184989594
30
0
11
52.517039757800177
21
8.0250000000000732
31
0
0
LINE
5
156
100
AcDbEntity
8
0
100
AcDbLine
10
52.517039757800177
20
8.0250000000000732
30
0
11
-90.623897519603318
21
8.0250000000000465
31
0
0
LINE
5
157
100
AcDbEntity
8
0
100
AcDbLine
10
-90.623897519603318
20
8.0250000000000465
30
0
11
-90.623897519603318
21
5.0250000000000039
31
0
0
LINE
5
158
100
AcDbEntity
8
0
100
AcDbLine
10
-90.623897519603318
20
5.0250000000000039
30
0
11
-92.573897519603292
21
5.0250000000000039
31
0
0
LINE
5
159
100
AcDbEntity
8
0
100
AcDbLine
10
-92.573897519603292
20
5.0250000000000039
30
0
11
-92.573897519603292
21
8.0250000000000465
31
0
0
LINE
5
160
100
AcDbEntity
8
0
100
AcDbLine
10
-92.573897519603292
20
8.0250000000000465
30
0
11
-94.623897519603304
21
8.0250000000000465
31
0
0
LINE
5
161
100
AcDbEntity
8
0
100
AcDbLine
10
-94.623897519603304
20
8.0250000000000465
30
0
11
-94.623897519603304
21
1.9749999999999979
31
0
0
LINE
5
162
100
AcDbEntity
8
0
100
AcDbLine
10
-94.623897519603304
20
1.9749999999999979
30
0
11
-89.584359261796536
21
1.9750000000000156
31
0
0
ARC
5
163
100
AcDbEntity
8
0
100
AcDbCircle
10
-86.09889751960327
20
8.8817841970012523e-15
30
0
40
4.0061288741492884
210
0
220
0
230
1
100
AcDbArc
50
-150.46239967471266
51
150.46239967471303
0
LINE
5
164
100
AcDbEntity
8
0
100
AcDbLine
10
-89.584359261796493
20
-1.9749999999999979
30
0
11
-94.623897519603304
21
-1.9749999999999979
31
0
0
LINE
5
165
100
AcDbEntity
8
0
100
AcDbLine
10
-94.623897519603304
20
-1.9749999999999979
30
0
11
-94.623897519603304
21
-8.0250000000000465
31
0
0
LINE
5
166
100
AcDbEntity
8
0
100
AcDbLine
10
-94.623897519603304
20
-8.0250000000000465
30
0
11
-92.573897519603292
21
-8.0250000000000465
31
0
0
LINE
5
167
100
AcDbEntity
8
0
100
AcDbLine
10
-92.573897519603292
20
-8.0250000000000465
30
0
11
-92.573897519603292
21
-5.0250000000000039
31
0
0
LINE
5
168
100
AcDbEntity
8
0
100
AcDbLine
10
-92.573897519603292
20
-5.0250000000000039
30
0
11
-90.623897519603318
21
-5.0250000000000039
31
0
0
LINE
5
169
100
AcDbEntity
8
0
100
AcDbLine
10
-90.623897519603318
20
-5.0250000000000039
30
0
11
-90.623897519603318
21
-8.0250000000000465
31
0
0
LINE
5
170
100
AcDbEntity
8
0
100
AcDbLine
10
-90.623897519603318
20
-8.0250000000000465
30
0
11
50.084674340518731
21
-8.0250000000000465
31
0
0
LINE
5
171
100
AcDbEntity
8
0
100
AcDbLine
10
50.084674340518731
20
-8.0250000000000465
30
0
11
49.357787729539453
21
-6.6804185302225338
31
0
0
LINE
5
172
100
AcDbEntity
8
0
100
AcDbLine
10
49.357787729539453
20
-6.6804185302225338
30
0
11
50.410577131048839
21
-4.7329880789439649
31
0
0
LINE
5
173
100
AcDbEntity
8
0
100
AcDbLine
10
50.410577131048839
20
-4.7329880789439649
30
0
11
51.463366532558226
21
-6.6804185302224983
31
0
0
LINE
5
174
100
AcDbEntity
8
0
100
AcDbLine
10
51.463366532558226
20
-6.6804185302224983
30
0
11
50.736479921578947
21
-8.0250000000000377
31
0
0
LINE
5
175
100
AcDbEntity
8
0
100
AcDbLine
10
50.736479921578947
20
-8.0250000000000377
30
0
11
53.25271421204171
21
-8.0250000000000465
31
0
0
LINE
5
176
100
AcDbEntity
8
0
100
AcDbLine
10
53.25271421204171
20
-8.0250000000000465
30
0
11
53.410577131048882
21
-7.7329880789439631
31
0
0
LINE
5
177
100
AcDbEntity
8
0
100
AcDbLine
10
53.410577131048882
20
-7.7329880789439631
30
0
11
53.568440050055983
21
-8.0250000000000554
31
0
0
LINE
5
178
100
AcDbEntity
8
0
100
AcDbLine
10
53.568440050055983
20
-8.0250000000000554
30
0
11
56.084674340518745
21
-8.0250000000000465
31
0
0
LINE
5
179
100
AcDbEntity
8
0
100
AcDbLine
10
56.084674340518745
20
-8.0250000000000465
30
0
11
55.357787729539467
21
-6.6804185302224983
31
0
0
LINE
5
180
100
AcDbEntity
8
0
100
AcDbLine
10
55.357787729539467
20
-6.6804185302224983
30
0
11
56.410577131048854
21
-4.7329880789439294
31
0
0
LINE
5
181
100
AcDbEntity
8
0
100
AcDbLine
10
56.410577131048854
20
-4.7329880789439294
30
0
11
57.46336653255824
21
-6.6804185302224628
31
0
0
LINE
5
182
100
AcDbEntity
8
0
100
AcDbLine
10
57.46336653255824
20
-6.6804185302224628
30
0
11
56.736479921578962
21
-8.0250000000000288
31
0
0
LINE
5
183
100
AcDbEntity
8
0
100
AcDbLine
10
56.736479921578962
20
-8.0250000000000288
30
0
11
59.252714212041795
21
-8.0250000000000377
31
0
0
LINE
5
184
100
AcDbEntity
8
0
100
AcDbLine
10
59.252714212041795
20
-8.0250000000000377
30
0
11
59.410577131048967
21
-7.7329880789439276
31
0
0
LINE
5
185
100
AcDbEntity
8
0
100
AcDbLine
10
59.410577131048967
20
-7.7329880789439276
30
0
11
59.568440050055997
21
-8.0250000000000554
31
0
0
LINE
5
186
100
AcDbEntity
8
0
100
AcDbLine
10
59.568440050055997
20
-8.0250000000000554
30
0
11
62.084674340518688
21
-8.0250000000000465
31
0
0
LINE
5
187
100
AcDbEntity
8
0
100
AcDbLine
10
62.084674340518688
20
-8.0250000000000465
30
0
11
61.35778772953941
21
-6.6804185302224983
31
0
0
LINE
5
188
100
AcDbEntity
8
0
100
AcDbLine
10
61.35778772953941
20
-6.6804185302224983
30
0
11
62.410577131048797
21
-4.7329880789439294
31
0
0
LINE
5
189
100
AcDbEntity
8
0
100
AcDbLine
10
62.410577131048797
20
-4.7329880789439294
30
0
11
63.463366532558183
21
-6.6804185302224628
31
0
0
LINE
5
190
100
AcDbEntity
8
0
100
AcDbLine
10
63.463366532558183
20
-6.6804185302224628
30
0
11
62.736479921578905
21
-8.0250000000000288
31
0
0
ENDSEC
0
SECTION
2
OBJECTS
0
DICTIONARY
5
C
100
AcDbDictionary
3
ACAD_GROUP
350
D
3
ACAD_MLINESTYLE
350
17
0
DICTIONARY
5
D
100
AcDbDictionary
0
DICTIONARY
5
1A
330
C
100
AcDbDictionary
0
DICTIONARY
5
17
100
AcDbDictionary
0
ENDSEC
0
EOF
