0
SECTION
2
HEADER
9
$INSUNITS
70
4
9
$ACADVER
1
AC1014
9
$HANDSEED
5
FFFF
0
ENDSEC
0
SECTION
2
TABLES
0
TABLE
2
VPORT
5
8
100
AcDbSymbolTable
0
ENDTAB
0
TABLE
2
LTYPE
5
5
100
AcDbSymbolTable
0
LTYPE
5
14
100
AcDbSymbolTableRecord
100
AcDbLinetypeTableRecord
2
BYBLOCK
70
0
0
LTYPE
5
15
100
AcDbSymbolTableRecord
100
AcDbLinetypeTableRecord
2
BYLAYER
70
0
0
ENDTAB
0
TABLE
2
LAYER
5
2
100
AcDbSymbolTable
70
2
0
LAYER
5
50
100
AcDbSymbolTableRecord
100
AcDbLayerTableRecord
2
0
70
0
6
CONTINUOUS
0
ENDTAB
0
TABLE
2
STYLE
5
3
100
AcDbSymbolTable
70
1
0
STYLE
5
11
100
AcDbSymbolTableRecord
100
AcDbTextStyleTableRecord
2
STANDARD
70
0
0
ENDTAB
0
TABLE
2
VIEW
5
6
100
AcDbSymbolTable
70
0
0
ENDTAB
0
TABLE
2
UCS
5
7
100
AcDbSymbolTable
70
0
0
ENDTAB
0
TABLE
2
APPID
5
9
100
AcDbSymbolTable
70
2
0
APPID
5
12
100
AcDbSymbolTableRecord
100
AcDbRegAppTableRecord
2
ACAD
70
0
0
ENDTAB
0
TABLE
2
DIMSTYLE
5
A
100
AcDbSymbolTable
70
1
0
ENDTAB
0
TABLE
2
BLOCK_RECORD
5
1
100
AcDbSymbolTable
70
1
0
BLOCK_RECORD
5
1F
100
AcDbSymbolTableRecord
100
AcDbBlockTableRecord
2
*MODEL_SPACE
0
BLOCK_RECORD
5
1B
100
AcDbSymbolTableRecord
100
AcDbBlockTableRecord
2
*PAPER_SPACE
0
ENDTAB
0
ENDSEC
0
SECTION
2
BLOCKS
0
BLOCK
5
20
100
AcDbEntity
100
AcDbBlockBegin
2
*MODEL_SPACE
0
ENDBLK
5
21
100
AcDbEntity
100
AcDbBlockEnd
0
BLOCK
5
1C
100
AcDbEntity
100
AcDbBlockBegin
2
*PAPER_SPACE
0
ENDBLK
5
1D
100
AcDbEntity
100
AcDbBlockEnd
0
ENDSEC
0
SECTION
2
ENTITIES
0
CIRCLE
5
100
100
AcDbEntity
8
0
100
AcDbCircle
10
-93.756803079642737
20
12.599999999999909
30
0
40
3.9749999999999908
210
0
220
0
230
1
0
CIRCLE
5
101
100
AcDbEntity
8
0
100
AcDbCircle
10
78.156570527290441
20
12.599999999999909
30
0
40
3.9750000000000618
210
0
220
0
230
1
0
LINE
5
102
100
AcDbEntity
8
0
100
AcDbLine
10
102.0855338781454
20
-16.57500000000006
30
0
11
102.0855338781454
21
-8.6250000000000426
31
0
0
LINE
5
103
100
AcDbEntity
8
0
100
AcDbLine
10
102.0855338781454
20
-8.6250000000000426
30
0
11
104.03553387814547
21
-8.6250000000000426
31
0
0
LINE
5
104
100
AcDbEntity
8
0
100
AcDbLine
10
104.03553387814547
20
-8.6250000000000426
30
0
11
104.03553387814547
21
-16.57500000000006
31
0
0
LINE
5
105
100
AcDbEntity
8
0
100
AcDbLine
10
104.03553387814547
20
-16.57500000000006
30
0
11
102.0855338781454
21
-16.57500000000006
31
0
0
LINE
5
106
100
AcDbEntity
8
0
100
AcDbLine
10
102.0855338781454
20
16.507584065568732
30
0
11
104.03553387814547
21
16.507584065568732
31
0
0
LINE
5
107
100
AcDbEntity
8
0
100
AcDbLine
10
104.03553387814547
20
16.507584065568732
30
0
11
104.03553387814547
21
8.5575840655687418
31
0
0
LINE
5
108
100
AcDbEntity
8
0
100
AcDbLine
10
104.03553387814547
20
8.5575840655687418
30
0
11
102.0855338781454
21
8.5575840655687418
31
0
0
LINE
5
109
100
AcDbEntity
8
0
100
AcDbLine
10
102.0855338781454
20
8.5575840655687418
30
0
11
102.0855338781454
21
16.507584065568732
31
0
0
LINE
5
110
100
AcDbEntity
8
0
100
AcDbLine
10
73.773930393931053
20
20.625000000000018
30
0
11
-118.60890849346312
21
20.625000000000018
31
0
0
LINE
5
111
100
AcDbEntity
8
0
100
AcDbLine
10
110.08553387814537
20
20.557537661896479
30
0
11
73.773930393931053
21
20.625000000000018
31
0
0
LINE
5
112
100
AcDbEntity
8
0
100
AcDbLine
10
110.08553387814537
20
14.557584065568738
30
0
11
110.08553387814537
21
20.557537661896479
31
0
0
LINE
5
113
100
AcDbEntity
8
0
100
AcDbLine
10
115.0460557598884
20
14.557584065568738
30
0
11
110.08553387814537
21
14.557584065568738
31
0
0
ARC
5
114
100
AcDbEntity
8
0
100
AcDbCircle
10
118.56053387814548
20
12.53258406556875
30
0
40
4.05612887414933
210
0
220
0
230
1
100
AcDbArc
50
-150.04997141978657
51
150.04997141978711
0
LINE
5
115
100
AcDbEntity
8
0
100
AcDbLine
10
110.08553387814537
20
10.507584065568745
30
0
11
115.0460557598884
21
10.507584065568718
31
0
0
LINE
5
116
100
AcDbEntity
8
0
100
AcDbLine
10
110.08553387814537
20
4.5075375756042213
30
0
11
110.08553387814537
21
10.507584065568745
31
0
0
LINE
5
117
100
AcDbEntity
8
0
100
AcDbLine
10
73.773883950489036
20
4.5749999999993918
30
0
11
110.08553387814537
21
4.5075375756042213
31
0
0
ARC
5
118
100
AcDbEntity
8
0
100
AcDbCircle
10
73.773907170542898
20
-475.60630000000015
30
0
40
480.18130000000014
210
0
220
0
230
1
100
AcDbArc
50
90.000002770643249
51
97.314373719649851
0
ARC
5
119
100
AcDbEntity
8
0
100
AcDbCircle
10
12.876808675528508
20
-1.9483977905448668
30
0
40
2.6266022094548691
210
0
220
0
230
1
100
AcDbArc
50
95.164491652810511
51
269.99999999999704
0
LINE
5
120
100
AcDbEntity
8
0
100
AcDbLine
10
110.08553387814537
20
-4.5750000000000846
30
0
11
12.876808675528366
21
-4.5750000000001023
31
0
0
LINE
5
121
100
AcDbEntity
8
0
100
AcDbLine
10
110.08553387814537
20
-10.575000000000063
30
0
11
110.08553387814537
21
-4.5750000000000846
31
0
0
LINE
5
122
100
AcDbEntity
8
0
100
AcDbLine
10
115.0460557598884
20
-10.575000000000045
30
0
11
110.08553387814537
21
-10.575000000000063
31
0
0
ARC
5
123
100
AcDbEntity
8
0
100
AcDbCircle
10
118.56053387814548
20
-12.600000000000033
30
0
40
4.0561288741493344
210
0
220
0
230
1
100
AcDbArc
50
-150.04997141978646
51
150.04997141978706
0
LINE
5
124
100
AcDbEntity
8
0
100
AcDbLine
10
110.08553387814537
20
-14.625000000000039
30
0
11
115.0460557598884
21
-14.625000000000075
31
0
0
LINE
5
125
100
AcDbEntity
8
0
100
AcDbLine
10
110.08553387814537
20
-20.625000000000018
30
0
11
110.08553387814537
21
-14.625000000000039
31
0
0
LINE
5
126
100
AcDbEntity
8
0
100
AcDbLine
10
-118.60890849346312
20
-20.625000000000018
30
0
11
110.08553387814537
21
-20.625000000000018
31
0
0
LINE
5
127
100
AcDbEntity
8
0
100
AcDbLine
10
-118.60890849346312
20
-17.323884985133144
30
0
11
-118.60890849346312
21
-20.625000000000018
31
0
0
LINE
5
128
100
AcDbEntity
8
0
100
AcDbLine
10
-120.55890849346319
20
-17.323884985133144
30
0
11
-118.60890849346312
21
-17.323884985133144
31
0
0
LINE
5
129
100
AcDbEntity
8
0
100
AcDbLine
10
-120.55890849346319
20
-19.939868384423463
30
0
11
-120.55890849346319
21
-17.323884985133144
31
0
0
ARC
5
130
100
AcDbEntity
8
0
100
AcDbCircle
10
-146.62609282945732
20
475.60629999999998
30
0
40
496.23129999999998
210
-0
220
0
230
1
100
AcDbArc
50
272.77325573613422
51
273.0111510253704
0
LINE
5
131
100
AcDbEntity
8
0
100
AcDbLine
10
-122.61666275229466
20
-14.273884985133147
30
0
11
-122.61666275229466
21
-20.043828989249661
31
0
0
LINE
5
132
100
AcDbEntity
8
0
100
AcDbLine
10
-117.56937023565641
20
-14.273884985133147
30
0
11
-122.61666275229466
21
-14.273884985133147
31
0
0
ARC
5
133
100
AcDbEntity
8
0
100
AcDbCircle
10
-114.08390849346318
20
-12.298884985133132
30
0
40
4.0061288741492929
210
0
220
0
230
1
100
AcDbArc
50
-150.46239967471251
51
150.46239967471251
0
LINE
5
134
100
AcDbEntity
8
0
100
AcDbLine
10
-122.61666275229466
20
-10.323884985133152
30
0
11
-117.56937023565641
21
-10.323884985133116
31
0
0
LINE
5
135
100
AcDbEntity
8
0
100
AcDbLine
10
-122.61666275229473
20
-3.9743794868407178
30
0
11
-122.61666275229466
21
-10.323884985133152
31
0
0
ARC
5
136
100
AcDbEntity
8
0
100
AcDbCircle
10
-146.62609282945732
20
475.60629999999998
30
0
40
480.18129999999991
210
-0
220
0
230
1
100
AcDbArc
50
272.86602759857652
51
273.11189584777799
0
LINE
5
137
100
AcDbEntity
8
0
100
AcDbLine
10
-120.55890849346319
20
-7.2738849851331544
30
0
11
-120.55890849346312
21
-3.8669346758089063
31
0
0
LINE
5
138
100
AcDbEntity
8
0
100
AcDbLine
10
-118.60890849346312
20
-7.2738849851331544
30
0
11
-120.55890849346319
21
-7.2738849851331544
31
0
0
LINE
5
139
100
AcDbEntity
8
0
100
AcDbLine
10
-118.60890849346312
20
-3.7569424910915217
30
0
11
-118.60890849346312
21
-7.2738849851331544
31
0
0
ARC
5
140
100
AcDbEntity
8
0
100
AcDbCircle
10
-146.62609282945732
20
475.60629999999998
30
0
40
480.18130000000008
210
-0
220
0
230
1
100
AcDbArc
50
273.34494208387338
51
277.04310702026106
0
ARC
5
141
100
AcDbEntity
8
0
100
AcDbCircle
10
-88.816041497815021
20
1.7085089235725359
30
0
40
2.8664910764273825
210
-0
220
0
230
1
100
AcDbArc
50
-68.127534211153105
51
90
0
LINE
5
142
100
AcDbEntity
8
0
100
AcDbLine
10
-118.60890849346312
20
4.5749999999999424
30
0
11
-88.816041497815021
21
4.5749999999998714
31
0
0
LINE
5
143
100
AcDbEntity
8
0
100
AcDbLine
10
-118.60890849346312
20
7.5749999999999851
30
0
11
-118.60890849346312
21
4.5749999999999424
31
0
0
LINE
5
144
100
AcDbEntity
8
0
100
AcDbLine
10
-120.55890849346319
20
7.5749999999999851
30
0
11
-118.60890849346312
21
7.5749999999999851
31
0
0
LINE
5
145
100
AcDbEntity
8
0
100
AcDbLine
10
-120.55890849346319
20
4.5749999999999424
30
0
11
-120.55890849346319
21
7.5749999999999851
31
0
0
LINE
5
146
100
AcDbEntity
8
0
100
AcDbLine
10
-122.61666275229466
20
4.5749999999999424
30
0
11
-120.55890849346319
21
4.5749999999999424
31
0
0
LINE
5
147
100
AcDbEntity
8
0
100
AcDbLine
10
-122.61666275229466
20
10.624999999999973
30
0
11
-122.61666275229466
21
4.5749999999999424
31
0
0
LINE
5
148
100
AcDbEntity
8
0
100
AcDbLine
10
-117.56937023565641
20
10.624999999999973
30
0
11
-122.61666275229466
21
10.624999999999973
31
0
0
ARC
5
149
100
AcDbEntity
8
0
100
AcDbCircle
10
-114.08390849346318
20
12.599999999999989
30
0
40
4.0061288741492929
210
0
220
0
230
1
100
AcDbArc
50
-150.46239967471251
51
150.46239967471251
0
LINE
5
150
100
AcDbEntity
8
0
100
AcDbLine
10
-122.61666275229466
20
14.574999999999987
30
0
11
-117.56937023565641
21
14.575000000000005
31
0
0
LINE
5
151
100
AcDbEntity
8
0
100
AcDbLine
10
-122.61666275229466
20
20.625000000000018
30
0
11
-122.61666275229466
21
14.574999999999987
31
0
0
LINE
5
152
100
AcDbEntity
8
0
100
AcDbLine
10
-120.55890849346319
20
20.625000000000018
30
0
11
-122.61666275229466
21
20.625000000000018
31
0
0
LINE
5
153
100
AcDbEntity
8
0
100
AcDbLine
10
-120.55890849346319
20
17.624999999999975
30
0
11
-120.55890849346319
21
20.625000000000018
31
0
0
LINE
5
154
100
AcDbEntity
8
0
100
AcDbLine
10
-118.60890849346312
20
17.624999999999975
30
0
11
-120.55890849346319
21
17.624999999999975
31
0
0
LINE
5
155
100
AcDbEntity
8
0
100
AcDbLine
10
-118.60890849346312
20
20.625000000000018
30
0
11
-118.60890849346312
21
17.624999999999975
31
0
0
ENDSEC
0
SECTION
2
OBJECTS
0
DICTIONARY
5
C
100
AcDbDictionary
3
ACAD_GROUP
350
D
3
ACAD_MLINESTYLE
350
17
0
DICTIONARY
5
D
100
AcDbDictionary
0
DICTIONARY
5
1A
330
C
100
AcDbDictionary
0
DICTIONARY
5
17
100
AcDbDictionary
0
ENDSEC
0
EOF
