  0
SECTION
  2
HEADER
  9
$ACADVER
  1
AC1015
  9
$ACADMAINTVER
 70
6
  9
$DWGCODEPAGE
  3
ANSI_1252
  9
$TDCREATE
 40
2459727.8158101854
  9
$TDUPDATE
 40
2459727.8158333334
  9
$HANDSEED
  5
102B8
  9
$INSUNITS
 70
4
  9
$FINGERPRINTGUID
  2
4D7C39FC-DDE3-11EC-BF1C-D20010FD74C0
  9
$VERSIONGUID
  2
4E6EBDEE-DDE3-11EC-BF1C-D20010FD74C0
  0
ENDSEC
  0
SECTION
  2
CLASSES
  0
CLASS
  1
ACDBDICTIONARYWDFLT
  2
AcDbDictionaryWithDefault
  3
ObjectDBX Classes
 90
0
280
0
281
0
  0
CLASS
  1
SUN
  2
AcDbSun
  3
SCENEOE
 90
1153
280
0
281
0
  0
CLASS
  1
VISUALSTYLE
  2
AcDbVisualStyle
  3
ObjectDBX Classes
 90
4095
280
0
281
0
  0
CLASS
  1
MATERIAL
  2
AcDbMaterial
  3
ObjectDBX Classes
 90
1153
280
0
281
0
  0
CLASS
  1
SCALE
  2
AcDbScale
  3
ObjectDBX Classes
 90
1153
280
0
281
0
  0
CLASS
  1
TABLESTYLE
  2
AcDbTableStyle
  3
ObjectDBX Classes
 90
4095
280
0
281
0
  0
CLASS
  1
MLEADERSTYLE
  2
AcDbMLeaderStyle
  3
ACDB_MLEADERSTYLE_CLASS
 90
4095
280
0
281
0
  0
CLASS
  1
DICTIONARYVAR
  2
AcDbDictionaryVar
  3
ObjectDBX Classes
 90
0
280
0
281
0
  0
CLASS
  1
CELLSTYLEMAP
  2
AcDbCellStyleMap
  3
ObjectDBX Classes
 90
1152
280
0
281
0
  0
CLASS
  1
MENTALRAYRENDERSETTINGS
  2
AcDbMentalRayRenderSettings
  3
SCENEOE
 90
1024
280
0
281
0
  0
CLASS
  1
ACDBDETAILVIEWSTYLE
  2
AcDbDetailViewStyle
  3
ObjectDBX Classes
 90
1025
280
0
281
0
  0
CLASS
  1
ACDBSECTIONVIEWSTYLE
  2
AcDbSectionViewStyle
  3
ObjectDBX Classes
 90
1025
280
0
281
0
  0
CLASS
  1
RASTERVARIABLES
  2
AcDbRasterVariables
  3
ISM
 90
0
280
0
281
0
  0
CLASS
  1
ACDBPLACEHOLDER
  2
AcDbPlaceHolder
  3
ObjectDBX Classes
 90
0
280
0
281
0
  0
CLASS
  1
LAYOUT
  2
AcDbLayout
  3
ObjectDBX Classes
 90
0
280
0
281
0
  0
ENDSEC
  0
SECTION
  2
TABLES
  0
TABLE
  2
VPORT
  5
8
330
0
100
AcDbSymbolTable
 70
1
  0
VPORT
  5
1006A
330
8
100
AcDbSymbolTableRecord
100
AcDbViewportTableRecord
  2
*Active
 70
0
 10
0.0
 20
0.0
 11
1.0
 21
1.0
 12
70.0
 22
50.0
 13
0.0
 23
0.0
 14
0.5
 24
0.5
 15
0.5
 25
0.5
 16
0.0
 26
0.0
 36
1.0
 17
0.0
 27
0.0
 37
0.0
 40
1.0
 41
1.34
 42
50.0
 43
0.0
 44
0.0
 50
0.0
 51
0.0
 71
0
 72
1000
 73
1
 74
3
 75
0
 76
0
 77
0
 78
0
281
0
 65
0
146
0.0
  0
ENDTAB
  0
TABLE
  2
LTYPE
  5
5
330
0
100
AcDbSymbolTable
 70
3
  0
LTYPE
  5
1006B
330
5
100
AcDbSymbolTableRecord
100
AcDbLinetypeTableRecord
  2
Continuous
 70
0
  3

 72
65
 73
0
 40
0.0
  0
ENDTAB
  0
TABLE
  2
LAYER
  5
2
330
0
100
AcDbSymbolTable
 70
4
  0
LAYER
  5
50
330
2
100
AcDbSymbolTableRecord
100
AcDbLayerTableRecord
  2
0
 70
0
 62
7
  6
CONTINUOUS
370
-3
390
10060
  0
LAYER
  5
51
330
2
100
AcDbSymbolTableRecord
100
AcDbLayerTableRecord
  2
CUTOUTS
 70
0
 62
1
  6
CONTINUOUS
370
-3
390
10060
  0
LAYER
  5
52
330
2
100
AcDbSymbolTableRecord
100
AcDbLayerTableRecord
  2
PERIMETER
 70
0
 62
5
  6
CONTINUOUS
370
-3
390
10060
  0
LAYER
  5
1006C
330
2
100
AcDbSymbolTableRecord
100
AcDbLayerTableRecord
  2
Defpoints
 70
0
 62
7
  6
Continuous
290
0
370
-3
390
10060
  0
ENDTAB
  0
TABLE
  2
STYLE
  5
3
330
0
100
AcDbSymbolTable
 70
1
  0
STYLE
  5
11
330
3
100
AcDbSymbolTableRecord
100
AcDbTextStyleTableRecord
  2
STANDARD
 70
0
 40
0.0
 41
1.0
 50
0.0
 71
0
 42
2.5
  3
txt
  4

  0
ENDTAB
  0
TABLE
  2
VIEW
  5
6
330
0
100
AcDbSymbolTable
 70
0
  0
ENDTAB
  0
TABLE
  2
UCS
  5
7
330
0
100
AcDbSymbolTable
 70
0
  0
ENDTAB
  0
TABLE
  2
APPID
  5
9
330
0
100
AcDbSymbolTable
 70
2
  0
APPID
  5
12
330
9
100
AcDbSymbolTableRecord
100
AcDbRegAppTableRecord
  2
ACAD
 70
0
  0
APPID
  5
102B7
330
9
100
AcDbSymbolTableRecord
100
AcDbRegAppTableRecord
  2
HATCHBACKGROUNDCOLOR
 70
0
  0
ENDTAB
  0
TABLE
  2
DIMSTYLE
  5
A
330
0
100
AcDbSymbolTable
 70
1
100
AcDbDimStyleTable
  0
DIMSTYLE
105
1006D
330
A
100
AcDbSymbolTableRecord
100
AcDbDimStyleTableRecord
  2
Standard
 70
0
  3

  4

 40
1.0
 41
2.5
 42
0.625
 43
3.75
 44
1.25
 45
0.0
 46
0.0
 47
0.0
 48
0.0
140
2.5
141
2.5
142
0.0
143
0.03937007874
144
1.0
145
0.0
146
1.0
147
0.625
148
0.0
 71
0
 72
0
 73
0
 74
0
 75
0
 76
0
 77
1
 78
8
 79
0
170
0
171
3
172
1
173
0
174
0
175
0
176
0
177
0
178
0
179
0
271
0
272
2
273
2
274
3
275
0
276
0
277
2
278
44
279
0
280
0
281
0
282
0
283
0
284
8
285
0
286
0
288
0
289
3
371
-2
372
-2
  0
ENDTAB
  0
TABLE
  2
BLOCK_RECORD
  5
1
330
0
100
AcDbSymbolTable
 70
22
  0
BLOCK_RECORD
  5
1F
330
1
100
AcDbSymbolTableRecord
100
AcDbBlockTableRecord
  2
*MODEL_SPACE
340
10064
  0
BLOCK_RECORD
  5
1B
330
1
100
AcDbSymbolTableRecord
100
AcDbBlockTableRecord
  2
*PAPER_SPACE
340
10065
  0
BLOCK_RECORD
  5
FFFF
330
1
100
AcDbSymbolTableRecord
100
AcDbBlockTableRecord
  2
_CLOSEDFILLED
340
0
  0
BLOCK_RECORD
  5
10003
330
1
100
AcDbSymbolTableRecord
100
AcDbBlockTableRecord
  2
_ORIGIN
340
0
  0
BLOCK_RECORD
  5
10008
330
1
100
AcDbSymbolTableRecord
100
AcDbBlockTableRecord
  2
_DOTSMALL
340
0
  0
BLOCK_RECORD
  5
1000C
330
1
100
AcDbSymbolTableRecord
100
AcDbBlockTableRecord
  2
_INTEGRAL
340
0
  0
BLOCK_RECORD
  5
10011
330
1
100
AcDbSymbolTableRecord
100
AcDbBlockTableRecord
  2
_SMALL
340
0
  0
BLOCK_RECORD
  5
10015
330
1
100
AcDbSymbolTableRecord
100
AcDbBlockTableRecord
  2
_DOT
340
0
  0
BLOCK_RECORD
  5
1001A
330
1
100
AcDbSymbolTableRecord
100
AcDbBlockTableRecord
  2
_OBLIQUE
340
0
  0
BLOCK_RECORD
  5
1001E
330
1
100
AcDbSymbolTableRecord
100
AcDbBlockTableRecord
  2
_BOXFILLED
340
0
  0
BLOCK_RECORD
  5
10023
330
1
100
AcDbSymbolTableRecord
100
AcDbBlockTableRecord
  2
_OPEN30
340
0
  0
BLOCK_RECORD
  5
10028
330
1
100
AcDbSymbolTableRecord
100
AcDbBlockTableRecord
  2
_DATUMBLANK
340
0
  0
BLOCK_RECORD
  5
1002C
330
1
100
AcDbSymbolTableRecord
100
AcDbBlockTableRecord
  2
_DOTBLANK
340
0
  0
BLOCK_RECORD
  5
10031
330
1
100
AcDbSymbolTableRecord
100
AcDbBlockTableRecord
  2
_CLOSEDBLANK
340
0
  0
BLOCK_RECORD
  5
10035
330
1
100
AcDbSymbolTableRecord
100
AcDbBlockTableRecord
  2
_BOXBLANK
340
0
  0
BLOCK_RECORD
  5
1003A
330
1
100
AcDbSymbolTableRecord
100
AcDbBlockTableRecord
  2
_ORIGIN2
340
0
  0
BLOCK_RECORD
  5
10040
330
1
100
AcDbSymbolTableRecord
100
AcDbBlockTableRecord
  2
_ARCHTICK
340
0
  0
BLOCK_RECORD
  5
10044
330
1
100
AcDbSymbolTableRecord
100
AcDbBlockTableRecord
  2
_OPEN
340
0
  0
BLOCK_RECORD
  5
10049
330
1
100
AcDbSymbolTableRecord
100
AcDbBlockTableRecord
  2
_OPEN90
340
0
  0
BLOCK_RECORD
  5
1004E
330
1
100
AcDbSymbolTableRecord
100
AcDbBlockTableRecord
  2
_CLOSED
340
0
  0
BLOCK_RECORD
  5
10053
330
1
100
AcDbSymbolTableRecord
100
AcDbBlockTableRecord
  2
_NONE
340
0
  0
BLOCK_RECORD
  5
10056
330
1
100
AcDbSymbolTableRecord
100
AcDbBlockTableRecord
  2
_DATUMFILLED
340
0
  0
ENDTAB
  0
ENDSEC
  0
SECTION
  2
BLOCKS
  0
BLOCK
  5
20
330
1F
100
AcDbEntity
  8
0
100
AcDbBlockBegin
  2
*MODEL_SPACE
 70
0
 10
0.0
 20
0.0
 30
0.0
  3
*MODEL_SPACE
  1

  0
ENDBLK
  5
21
330
1F
100
AcDbEntity
  8
0
100
AcDbBlockEnd
  0
BLOCK
  5
1C
330
1B
100
AcDbEntity
  8
0
100
AcDbBlockBegin
  2
*PAPER_SPACE
 70
0
 10
0.0
 20
0.0
 30
0.0
  3
*PAPER_SPACE
  1

  0
ENDBLK
  5
1D
330
1B
100
AcDbEntity
  8
0
100
AcDbBlockEnd
  0
BLOCK
  5
10000
330
FFFF
100
AcDbEntity
  8
0
100
AcDbBlockBegin
  2
_CLOSEDFILLED
 70
0
 10
0.0
 20
0.0
 30
0.0
  3
_CLOSEDFILLED
  1

  0
SOLID
  5
10002
330
FFFF
100
AcDbEntity
  8
0
  6
BYBLOCK
 62
0
100
AcDbTrace
 10
-1.0
 20
0.1643989837240255
 30
0.0
 11
0.0
 21
0.0
 31
0.0
 12
-1.0
 22
-0.1643989837240255
 32
0.0
 13
-1.0
 23
-0.1643989837240255
 33
0.0
  0
ENDBLK
  5
10001
330
FFFF
100
AcDbEntity
  8
0
100
AcDbBlockEnd
  0
BLOCK
  5
10004
330
10003
100
AcDbEntity
  8
0
100
AcDbBlockBegin
  2
_ORIGIN
 70
0
 10
0.0
 20
0.0
 30
0.0
  3
_ORIGIN
  1

  0
CIRCLE
  5
10006
330
10003
100
AcDbEntity
  8
0
  6
BYBLOCK
 62
0
100
AcDbCircle
 10
0.0
 20
0.0
 30
0.0
 40
0.5
  0
LINE
  5
10007
330
10003
100
AcDbEntity
  8
0
  6
BYBLOCK
 62
0
100
AcDbLine
 10
0.0
 20
0.0
 30
0.0
 11
-1.0
 21
1.2246467991473532e-16
 31
0.0
  0
ENDBLK
  5
10005
330
10003
100
AcDbEntity
  8
0
100
AcDbBlockEnd
  0
BLOCK
  5
10009
330
10008
100
AcDbEntity
  8
0
100
AcDbBlockBegin
  2
_DOTSMALL
 70
0
 10
0.0
 20
0.0
 30
0.0
  3
_DOTSMALL
  1

  0
LWPOLYLINE
  5
1000B
330
10008
100
AcDbEntity
  8
0
  6
BYBLOCK
 62
0
100
AcDbPolyline
 90
2
 70
1
 43
0.125
 10
-0.0625
 20
0.0
 42
1.0
 10
0.0625
 20
0.0
 42
1.0
  0
ENDBLK
  5
1000A
330
10008
100
AcDbEntity
  8
0
100
AcDbBlockEnd
  0
BLOCK
  5
1000D
330
1000C
100
AcDbEntity
  8
0
100
AcDbBlockBegin
  2
_INTEGRAL
 70
0
 10
0.0
 20
0.0
 30
0.0
  3
_INTEGRAL
  1

  0
ARC
  5
1000F
330
1000C
100
AcDbEntity
  8
0
  6
BYBLOCK
 62
0
100
AcDbCircle
 10
-0.3535534
 20
4.329780396376638e-17
 30
0.0
 40
0.3535534
100
AcDbArc
 50
-90.0
 51
0.0
  0
ARC
  5
10010
330
1000C
100
AcDbEntity
  8
0
  6
BYBLOCK
 62
0
100
AcDbCircle
 10
0.3535534
 20
0.0
 30
0.0
 40
0.3535534
100
AcDbArc
 50
90.0
 51
180.0
  0
ENDBLK
  5
1000E
330
1000C
100
AcDbEntity
  8
0
100
AcDbBlockEnd
  0
BLOCK
  5
10012
330
10011
100
AcDbEntity
  8
0
100
AcDbBlockBegin
  2
_SMALL
 70
0
 10
0.0
 20
0.0
 30
0.0
  3
_SMALL
  1

  0
CIRCLE
  5
10014
330
10011
100
AcDbEntity
  8
0
  6
BYBLOCK
 62
0
100
AcDbCircle
 10
0.0
 20
0.0
 30
0.0
 40
0.25
  0
ENDBLK
  5
10013
330
10011
100
AcDbEntity
  8
0
100
AcDbBlockEnd
  0
BLOCK
  5
10016
330
10015
100
AcDbEntity
  8
0
100
AcDbBlockBegin
  2
_DOT
 70
0
 10
0.0
 20
0.0
 30
0.0
  3
_DOT
  1

  0
LINE
  5
10018
330
10015
100
AcDbEntity
  8
0
  6
BYBLOCK
 62
0
100
AcDbLine
 10
-0.5
 20
6.123233995736766e-17
 30
0.0
 11
-1.0
 21
1.2246467991473532e-16
 31
0.0
  0
LWPOLYLINE
  5
10019
330
10015
100
AcDbEntity
  8
0
  6
BYBLOCK
 62
0
100
AcDbPolyline
 90
2
 70
1
 43
0.5
 10
-0.25
 20
0.0
 42
1.0
 10
0.25
 20
0.0
 42
1.0
  0
ENDBLK
  5
10017
330
10015
100
AcDbEntity
  8
0
100
AcDbBlockEnd
  0
BLOCK
  5
1001B
330
1001A
100
AcDbEntity
  8
0
100
AcDbBlockBegin
  2
_OBLIQUE
 70
0
 10
0.0
 20
0.0
 30
0.0
  3
_OBLIQUE
  1

  0
LINE
  5
1001D
330
1001A
100
AcDbEntity
  8
0
  6
BYBLOCK
 62
0
100
AcDbLine
 10
-0.5
 20
-0.5000000000000001
 30
0.0
 11
0.5000000000000001
 21
0.5
 31
0.0
  0
ENDBLK
  5
1001C
330
1001A
100
AcDbEntity
  8
0
100
AcDbBlockEnd
  0
BLOCK
  5
1001F
330
1001E
100
AcDbEntity
  8
0
100
AcDbBlockBegin
  2
_BOXFILLED
 70
0
 10
0.0
 20
0.0
 30
0.0
  3
_BOXFILLED
  1

  0
SOLID
  5
10021
330
1001E
100
AcDbEntity
  8
0
  6
BYBLOCK
 62
0
100
AcDbTrace
 10
-0.5
 20
-0.5000000000000001
 30
0.0
 11
0.5000000000000001
 21
-0.5
 31
0.0
 12
-0.5
 22
0.5000000000000001
 32
0.0
 13
0.5000000000000001
 23
0.5
 33
0.0
  0
LINE
  5
10022
330
1001E
100
AcDbEntity
  8
0
  6
BYBLOCK
 62
0
100
AcDbLine
 10
-0.5
 20
6.123233995736766e-17
 30
0.0
 11
-1.0
 21
1.2246467991473532e-16
 31
0.0
  0
ENDBLK
  5
10020
330
1001E
100
AcDbEntity
  8
0
100
AcDbBlockEnd
  0
BLOCK
  5
10024
330
10023
100
AcDbEntity
  8
0
100
AcDbBlockBegin
  2
_OPEN30
 70
0
 10
0.0
 20
0.0
 30
0.0
  3
_OPEN30
  1

  0
LWPOLYLINE
  5
10026
330
10023
100
AcDbEntity
  8
0
  6
BYBLOCK
 62
0
100
AcDbPolyline
 90
3
 70
0
 10
-0.9999999999999999
 20
0.2588190451025208
 10
0.0
 20
0.0
 10
-0.9999999999999999
 20
-0.2588190451025208
  0
LINE
  5
10027
330
10023
100
AcDbEntity
  8
0
  6
BYBLOCK
 62
0
100
AcDbLine
 10
0.0
 20
0.0
 30
0.0
 11
-1.0
 21
1.2246467991473532e-16
 31
0.0
  0
ENDBLK
  5
10025
330
10023
100
AcDbEntity
  8
0
100
AcDbBlockEnd
  0
BLOCK
  5
10029
330
10028
100
AcDbEntity
  8
0
100
AcDbBlockBegin
  2
_DATUMBLANK
 70
0
 10
0.0
 20
0.0
 30
0.0
  3
_DATUMBLANK
  1

  0
LWPOLYLINE
  5
1002B
330
10028
100
AcDbEntity
  8
0
  6
BYBLOCK
 62
0
100
AcDbPolyline
 90
3
 70
1
 10
3.5352507945885664e-17
 20
0.577350269
 10
3.5352507945885664e-17
 20
-0.577350269
 10
-1.0
 20
1.2246467991473532e-16
  0
ENDBLK
  5
1002A
330
10028
100
AcDbEntity
  8
0
100
AcDbBlockEnd
  0
BLOCK
  5
1002D
330
1002C
100
AcDbEntity
  8
0
100
AcDbBlockBegin
  2
_DOTBLANK
 70
0
 10
0.0
 20
0.0
 30
0.0
  3
_DOTBLANK
  1

  0
CIRCLE
  5
1002F
330
1002C
100
AcDbEntity
  8
0
  6
BYBLOCK
 62
0
100
AcDbCircle
 10
0.0
 20
0.0
 30
0.0
 40
0.5
  0
LINE
  5
10030
330
1002C
100
AcDbEntity
  8
0
  6
BYBLOCK
 62
0
100
AcDbLine
 10
-0.5
 20
6.123233995736766e-17
 30
0.0
 11
-1.0
 21
1.2246467991473532e-16
 31
0.0
  0
ENDBLK
  5
1002E
330
1002C
100
AcDbEntity
  8
0
100
AcDbBlockEnd
  0
BLOCK
  5
10032
330
10031
100
AcDbEntity
  8
0
100
AcDbBlockBegin
  2
_CLOSEDBLANK
 70
0
 10
0.0
 20
0.0
 30
0.0
  3
_CLOSEDBLANK
  1

  0
LWPOLYLINE
  5
10034
330
10031
100
AcDbEntity
  8
0
  6
BYBLOCK
 62
0
100
AcDbPolyline
 90
3
 70
1
 10
-1.0
 20
0.1643989837240255
 10
0.0
 20
0.0
 10
-1.0
 20
-0.1643989837240255
  0
ENDBLK
  5
10033
330
10031
100
AcDbEntity
  8
0
100
AcDbBlockEnd
  0
BLOCK
  5
10036
330
10035
100
AcDbEntity
  8
0
100
AcDbBlockBegin
  2
_BOXBLANK
 70
0
 10
0.0
 20
0.0
 30
0.0
  3
_BOXBLANK
  1

  0
LWPOLYLINE
  5
10038
330
10035
100
AcDbEntity
  8
0
  6
BYBLOCK
 62
0
100
AcDbPolyline
 90
4
 70
1
 10
-0.5
 20
-0.5000000000000001
 10
0.5000000000000001
 20
-0.5
 10
0.5000000000000001
 20
0.5
 10
-0.5
 20
0.5000000000000001
  0
LINE
  5
10039
330
10035
100
AcDbEntity
  8
0
  6
BYBLOCK
 62
0
100
AcDbLine
 10
-0.5
 20
6.123233995736766e-17
 30
0.0
 11
-1.0
 21
1.2246467991473532e-16
 31
0.0
  0
ENDBLK
  5
10037
330
10035
100
AcDbEntity
  8
0
100
AcDbBlockEnd
  0
BLOCK
  5
1003B
330
1003A
100
AcDbEntity
  8
0
100
AcDbBlockBegin
  2
_ORIGIN2
 70
0
 10
0.0
 20
0.0
 30
0.0
  3
_ORIGIN2
  1

  0
CIRCLE
  5
1003D
330
1003A
100
AcDbEntity
  8
0
  6
BYBLOCK
 62
0
100
AcDbCircle
 10
0.0
 20
0.0
 30
0.0
 40
0.5
  0
CIRCLE
  5
1003E
330
1003A
100
AcDbEntity
  8
0
  6
BYBLOCK
 62
0
100
AcDbCircle
 10
0.0
 20
0.0
 30
0.0
 40
0.25
  0
LINE
  5
1003F
330
1003A
100
AcDbEntity
  8
0
  6
BYBLOCK
 62
0
100
AcDbLine
 10
-0.5
 20
6.123233995736766e-17
 30
0.0
 11
-1.0
 21
1.2246467991473532e-16
 31
0.0
  0
ENDBLK
  5
1003C
330
1003A
100
AcDbEntity
  8
0
100
AcDbBlockEnd
  0
BLOCK
  5
10041
330
10040
100
AcDbEntity
  8
0
100
AcDbBlockBegin
  2
_ARCHTICK
 70
0
 10
0.0
 20
0.0
 30
0.0
  3
_ARCHTICK
  1

  0
LWPOLYLINE
  5
10043
330
10040
100
AcDbEntity
  8
0
  6
BYBLOCK
 62
0
100
AcDbPolyline
 90
2
 70
0
 43
0.15
 10
-0.5
 20
-0.5000000000000001
 10
0.5000000000000001
 20
0.5
  0
ENDBLK
  5
10042
330
10040
100
AcDbEntity
  8
0
100
AcDbBlockEnd
  0
BLOCK
  5
10045
330
10044
100
AcDbEntity
  8
0
100
AcDbBlockBegin
  2
_OPEN
 70
0
 10
0.0
 20
0.0
 30
0.0
  3
_OPEN
  1

  0
LWPOLYLINE
  5
10047
330
10044
100
AcDbEntity
  8
0
  6
BYBLOCK
 62
0
100
AcDbPolyline
 90
3
 70
0
 10
-1.0
 20
0.1643989837240255
 10
0.0
 20
0.0
 10
-1.0
 20
-0.1643989837240255
  0
LINE
  5
10048
330
10044
100
AcDbEntity
  8
0
  6
BYBLOCK
 62
0
100
AcDbLine
 10
0.0
 20
0.0
 30
0.0
 11
-1.0
 21
1.2246467991473532e-16
 31
0.0
  0
ENDBLK
  5
10046
330
10044
100
AcDbEntity
  8
0
100
AcDbBlockEnd
  0
BLOCK
  5
1004A
330
10049
100
AcDbEntity
  8
0
100
AcDbBlockBegin
  2
_OPEN90
 70
0
 10
0.0
 20
0.0
 30
0.0
  3
_OPEN90
  1

  0
LWPOLYLINE
  5
1004C
330
10049
100
AcDbEntity
  8
0
  6
BYBLOCK
 62
0
100
AcDbPolyline
 90
3
 70
0
 10
-0.9999999999999998
 20
0.7071067811865476
 10
0.0
 20
0.0
 10
-0.9999999999999998
 20
-0.7071067811865476
  0
LINE
  5
1004D
330
10049
100
AcDbEntity
  8
0
  6
BYBLOCK
 62
0
100
AcDbLine
 10
0.0
 20
0.0
 30
0.0
 11
-1.0
 21
1.2246467991473532e-16
 31
0.0
  0
ENDBLK
  5
1004B
330
10049
100
AcDbEntity
  8
0
100
AcDbBlockEnd
  0
BLOCK
  5
1004F
330
1004E
100
AcDbEntity
  8
0
100
AcDbBlockBegin
  2
_CLOSED
 70
0
 10
0.0
 20
0.0
 30
0.0
  3
_CLOSED
  1

  0
LWPOLYLINE
  5
10051
330
1004E
100
AcDbEntity
  8
0
  6
BYBLOCK
 62
0
100
AcDbPolyline
 90
3
 70
1
 10
-1.0
 20
0.1643989837240255
 10
0.0
 20
0.0
 10
-1.0
 20
-0.1643989837240255
  0
LINE
  5
10052
330
1004E
100
AcDbEntity
  8
0
  6
BYBLOCK
 62
0
100
AcDbLine
 10
0.0
 20
0.0
 30
0.0
 11
-1.0
 21
0.0
 31
0.0
  0
ENDBLK
  5
10050
330
1004E
100
AcDbEntity
  8
0
100
AcDbBlockEnd
  0
BLOCK
  5
10054
330
10053
100
AcDbEntity
  8
0
100
AcDbBlockBegin
  2
_NONE
 70
0
 10
0.0
 20
0.0
 30
0.0
  3
_NONE
  1

  0
ENDBLK
  5
10055
330
10053
100
AcDbEntity
  8
0
100
AcDbBlockEnd
  0
BLOCK
  5
10057
330
10056
100
AcDbEntity
  8
0
100
AcDbBlockBegin
  2
_DATUMFILLED
 70
0
 10
0.0
 20
0.0
 30
0.0
  3
_DATUMFILLED
  1

  0
SOLID
  5
10059
330
10056
100
AcDbEntity
  8
0
  6
BYBLOCK
 62
0
100
AcDbTrace
 10
3.5352507945885664e-17
 20
0.577350269
 30
0.0
 11
3.5352507945885664e-17
 21
-0.577350269
 31
0.0
 12
-1.0
 22
1.2246467991473532e-16
 32
0.0
 13
-1.0
 23
1.2246467991473532e-16
 33
0.0
  0
ENDBLK
  5
10058
330
10056
100
AcDbEntity
  8
0
100
AcDbBlockEnd
  0
ENDSEC
  0
SECTION
  2
ENTITIES
  0
CIRCLE
  5
100
330
1F
100
AcDbEntity
  8
CUTOUTS
100
AcDbCircle
 10
18.025000000000002
 20
8.024999999999999
 30
0.0
 40
1.5750000000000015
  0
LINE
  5
101
330
1F
100
AcDbEntity
  8
PERIMETER
100
AcDbLine
 10
10.0
 20
8.02499999999999
 30
0.0
 11
10.0
 21
1.9999999999999982
 31
0.0
  0
LINE
  5
102
330
1F
100
AcDbEntity
  8
PERIMETER
100
AcDbLine
 10
10.0
 20
1.9999999999999982
 30
0.0
 11
14.000000000000004
 21
1.9999999999999991
 31
0.0
  0
LINE
  5
103
330
1F
100
AcDbEntity
  8
PERIMETER
100
AcDbLine
 10
14.000000000000004
 20
1.9999999999999991
 30
0.0
 11
14.000000000000004
 21
0.0
 31
0.0
  0
LINE
  5
104
330
1F
100
AcDbEntity
  8
PERIMETER
100
AcDbLine
 10
14.000000000000004
 20
0.0
 30
0.0
 11
23.04999999999999
 21
0.0
 31
0.0
  0
LINE
  5
105
330
1F
100
AcDbEntity
  8
PERIMETER
100
AcDbLine
 10
23.04999999999999
 20
0.0
 30
0.0
 11
23.04999999999999
 21
1.9999999999999991
 31
0.0
  0
LINE
  5
106
330
1F
100
AcDbEntity
  8
PERIMETER
100
AcDbLine
 10
23.04999999999999
 20
1.9999999999999991
 30
0.0
 11
26.999999999999986
 21
1.9999999999999991
 31
0.0
  0
LINE
  5
107
330
1F
100
AcDbEntity
  8
PERIMETER
100
AcDbLine
 10
26.999999999999986
 20
1.9999999999999991
 30
0.0
 11
26.999999999999986
 21
0.0
 31
0.0
  0
LINE
  5
108
330
1F
100
AcDbEntity
  8
PERIMETER
100
AcDbLine
 10
26.999999999999986
 20
0.0
 30
0.0
 11
32.04999999999999
 21
0.0
 31
0.0
  0
LINE
  5
109
330
1F
100
AcDbEntity
  8
PERIMETER
100
AcDbLine
 10
32.04999999999999
 20
0.0
 30
0.0
 11
32.04999999999999
 21
8.024999999999983
 31
0.0
  0
ARC
  5
10A
330
1F
100
AcDbEntity
  8
PERIMETER
100
AcDbCircle
 10
27.02499999999997
 20
8.024999999999983
 30
0.0
 40
5.025000000000022
100
AcDbArc
 50
0.0
 51
90.0
  0
LINE
  5
10B
330
1F
100
AcDbEntity
  8
PERIMETER
100
AcDbLine
 10
27.02499999999997
 20
13.05
 30
0.0
 11
15.025000000000013
 21
13.05
 31
0.0
  0
ARC
  5
10C
330
1F
100
AcDbEntity
  8
PERIMETER
100
AcDbCircle
 10
15.025000000000013
 20
8.02499999999999
 30
0.0
 40
5.025000000000012
100
AcDbArc
 50
89.99999999999999
 51
180.0
  0
CIRCLE
  5
1006F
330
1F
100
AcDbEntity
  8
CUTOUTS
100
AcDbCircle
 10
24.025000000000013
 20
101.07500000000002
 30
0.0
 40
1.5750000000000015
  0
LINE
  5
10070
330
1F
100
AcDbEntity
  8
PERIMETER
100
AcDbLine
 10
27.025
 20
106.10000000000002
 30
0.0
 11
15.025000000000007
 21
106.10000000000002
 31
0.0
  0
ARC
  5
10071
330
1F
100
AcDbEntity
  8
PERIMETER
100
AcDbCircle
 10
15.025000000000007
 20
101.07500000000002
 30
0.0
 40
5.0250000000000075
100
AcDbArc
 50
89.99999999999999
 51
180.0
  0
LINE
  5
10072
330
1F
100
AcDbEntity
  8
PERIMETER
100
AcDbLine
 10
10.000000000000004
 20
101.07500000000002
 30
0.0
 11
10.000000000000004
 21
93.05000000000001
 31
0.0
  0
LINE
  5
10073
330
1F
100
AcDbEntity
  8
PERIMETER
100
AcDbLine
 10
10.000000000000004
 20
93.05000000000001
 30
0.0
 11
15.050000000000011
 21
93.05000000000001
 31
0.0
  0
LINE
  5
10074
330
1F
100
AcDbEntity
  8
PERIMETER
100
AcDbLine
 10
15.050000000000011
 20
93.05000000000001
 30
0.0
 11
15.050000000000011
 21
95.05000000000001
 31
0.0
  0
LINE
  5
10075
330
1F
100
AcDbEntity
  8
PERIMETER
100
AcDbLine
 10
15.050000000000011
 20
95.05000000000001
 30
0.0
 11
19.000000000000007
 21
95.05000000000001
 31
0.0
  0
LINE
  5
10076
330
1F
100
AcDbEntity
  8
PERIMETER
100
AcDbLine
 10
19.000000000000007
 20
95.05000000000001
 30
0.0
 11
19.000000000000007
 21
93.05000000000001
 31
0.0
  0
LINE
  5
10077
330
1F
100
AcDbEntity
  8
PERIMETER
100
AcDbLine
 10
19.000000000000007
 20
93.05000000000001
 30
0.0
 11
28.05000000000001
 21
93.05000000000001
 31
0.0
  0
LINE
  5
10078
330
1F
100
AcDbEntity
  8
PERIMETER
100
AcDbLine
 10
28.05000000000001
 20
93.05000000000001
 30
0.0
 11
28.05000000000001
 21
95.05000000000001
 31
0.0
  0
LINE
  5
10079
330
1F
100
AcDbEntity
  8
PERIMETER
100
AcDbLine
 10
28.05000000000001
 20
95.05000000000001
 30
0.0
 11
32.05000000000003
 21
95.05000000000001
 31
0.0
  0
LINE
  5
1007A
330
1F
100
AcDbEntity
  8
PERIMETER
100
AcDbLine
 10
32.05000000000003
 20
95.05000000000001
 30
-4.440892098500626e-15
 11
32.05000000000003
 21
101.075
 31
-4.440892098500626e-15
  0
ARC
  5
1007B
330
1F
100
AcDbEntity
  8
PERIMETER
100
AcDbCircle
 10
27.025
 20
101.075
 30
0.0
 40
5.0250000000000306
100
AcDbArc
 50
0.0
 51
90.0
  0
CIRCLE
  5
1007C
330
1F
100
AcDbEntity
  8
CUTOUTS
100
AcDbCircle
 10
18.025000000000002
 20
194.12500000000003
 30
1.1102230246251565e-14
 40
1.5750000000000015
  0
LINE
  5
1007D
330
1F
100
AcDbEntity
  8
PERIMETER
100
AcDbLine
 10
23.04999999999999
 20
186.10000000000002
 30
0.0
 11
23.04999999999999
 21
188.10000000000002
 31
0.0
  0
LINE
  5
1007E
330
1F
100
AcDbEntity
  8
PERIMETER
100
AcDbLine
 10
23.04999999999999
 20
188.10000000000002
 30
0.0
 11
26.999999999999986
 21
188.10000000000002
 31
0.0
  0
LINE
  5
1007F
330
1F
100
AcDbEntity
  8
PERIMETER
100
AcDbLine
 10
26.999999999999986
 20
188.10000000000002
 30
0.0
 11
26.999999999999986
 21
186.10000000000002
 31
0.0
  0
LINE
  5
10080
330
1F
100
AcDbEntity
  8
PERIMETER
100
AcDbLine
 10
26.999999999999986
 20
186.10000000000002
 30
0.0
 11
32.04999999999999
 21
186.10000000000002
 31
0.0
  0
LINE
  5
10081
330
1F
100
AcDbEntity
  8
PERIMETER
100
AcDbLine
 10
32.04999999999999
 20
186.10000000000002
 30
0.0
 11
32.04999999999999
 21
194.125
 31
0.0
  0
ARC
  5
10082
330
1F
100
AcDbEntity
  8
PERIMETER
100
AcDbCircle
 10
27.024999999999963
 20
194.125
 30
0.0
 40
5.0250000000000306
100
AcDbArc
 50
0.0
 51
89.9999999999997
  0
LINE
  5
10083
330
1F
100
AcDbEntity
  8
PERIMETER
100
AcDbLine
 10
27.024999999999988
 20
199.15000000000003
 30
-5.551115123125783e-16
 11
15.025000000000013
 21
199.15000000000003
 31
-5.551115123125783e-16
  0
ARC
  5
10084
330
1F
100
AcDbEntity
  8
PERIMETER
100
AcDbCircle
 10
15.025000000000013
 20
194.12500000000003
 30
0.0
 40
5.025000000000013
100
AcDbArc
 50
89.99999999999999
 51
180.0
  0
LINE
  5
10085
330
1F
100
AcDbEntity
  8
PERIMETER
100
AcDbLine
 10
10.0
 20
194.125
 30
0.0
 11
10.0
 21
188.10000000000002
 31
0.0
  0
LINE
  5
10086
330
1F
100
AcDbEntity
  8
PERIMETER
100
AcDbLine
 10
10.0
 20
188.10000000000002
 30
0.0
 11
13.999999999999986
 21
188.10000000000002
 31
0.0
  0
LINE
  5
10087
330
1F
100
AcDbEntity
  8
PERIMETER
100
AcDbLine
 10
13.999999999999986
 20
188.10000000000002
 30
0.0
 11
14.000000000000004
 21
186.10000000000002
 31
0.0
  0
LINE
  5
10088
330
1F
100
AcDbEntity
  8
PERIMETER
100
AcDbLine
 10
14.000000000000004
 20
186.10000000000002
 30
0.0
 11
23.04999999999999
 21
186.10000000000002
 31
0.0
  0
CIRCLE
  5
10089
330
1F
100
AcDbEntity
  8
CUTOUTS
100
AcDbCircle
 10
24.025000000000006
 20
287.17500000000007
 30
1.1102230246251565e-14
 40
1.5750000000000015
  0
LINE
  5
1008A
330
1F
100
AcDbEntity
  8
PERIMETER
100
AcDbLine
 10
15.050000000000006
 20
281.15000000000003
 30
0.0
 11
19.0
 21
281.15000000000003
 31
0.0
  0
LINE
  5
1008B
330
1F
100
AcDbEntity
  8
PERIMETER
100
AcDbLine
 10
19.0
 20
281.15000000000003
 30
0.0
 11
19.0
 21
279.15000000000003
 31
0.0
  0
LINE
  5
1008C
330
1F
100
AcDbEntity
  8
PERIMETER
100
AcDbLine
 10
19.0
 20
279.15000000000003
 30
0.0
 11
28.050000000000022
 21
279.15000000000003
 31
0.0
  0
LINE
  5
1008D
330
1F
100
AcDbEntity
  8
PERIMETER
100
AcDbLine
 10
28.050000000000022
 20
279.15000000000003
 30
0.0
 11
28.050000000000004
 21
281.15000000000003
 31
0.0
  0
LINE
  5
1008E
330
1F
100
AcDbEntity
  8
PERIMETER
100
AcDbLine
 10
28.050000000000004
 20
281.15000000000003
 30
0.0
 11
32.05000000000001
 21
281.15000000000003
 31
0.0
  0
LINE
  5
1008F
330
1F
100
AcDbEntity
  8
PERIMETER
100
AcDbLine
 10
32.05000000000001
 20
281.15000000000003
 30
0.0
 11
32.05000000000001
 21
287.17500000000007
 31
0.0
  0
ARC
  5
10090
330
1F
100
AcDbEntity
  8
PERIMETER
100
AcDbCircle
 10
27.024999999999995
 20
287.17500000000007
 30
0.0
 40
5.025000000000013
100
AcDbArc
 50
0.0
 51
90.0
  0
LINE
  5
10091
330
1F
100
AcDbEntity
  8
PERIMETER
100
AcDbLine
 10
27.024999999999995
 20
292.20000000000005
 30
-5.551115123125783e-16
 11
15.025000000000002
 21
292.20000000000005
 31
-5.551115123125783e-16
  0
ARC
  5
10092
330
1F
100
AcDbEntity
  8
PERIMETER
100
AcDbCircle
 10
15.024999999999984
 20
287.17500000000007
 30
-5.551115123125783e-16
 40
5.024999999999985
100
AcDbArc
 50
89.99999999999979
 51
180.0
  0
LINE
  5
10093
330
1F
100
AcDbEntity
  8
PERIMETER
100
AcDbLine
 10
9.999999999999998
 20
287.17500000000007
 30
0.0
 11
9.999999999999998
 21
279.15000000000003
 31
0.0
  0
LINE
  5
10094
330
1F
100
AcDbEntity
  8
PERIMETER
100
AcDbLine
 10
9.999999999999998
 20
279.15000000000003
 30
0.0
 11
15.050000000000006
 21
279.15000000000003
 31
0.0
  0
LINE
  5
10095
330
1F
100
AcDbEntity
  8
PERIMETER
100
AcDbLine
 10
15.050000000000006
 20
279.15000000000003
 30
0.0
 11
15.050000000000006
 21
281.15000000000003
 31
0.0
  0
CIRCLE
  5
10096
330
1F
100
AcDbEntity
  8
0
100
AcDbCircle
 10
109.52499999999998
 20
386.225
 30
0.0
 40
2.975000000000001
  0
CIRCLE
  5
10097
330
1F
100
AcDbEntity
  8
0
100
AcDbCircle
 10
153.52499999999998
 20
386.225
 30
0.0
 40
2.9749999999999943
  0
CIRCLE
  5
10098
330
1F
100
AcDbEntity
  8
0
100
AcDbCircle
 10
131.52499999999998
 20
386.225
 30
0.0
 40
2.975000000000003
  0
CIRCLE
  5
10099
330
1F
100
AcDbEntity
  8
0
100
AcDbCircle
 10
46.02499999999999
 20
391.225
 30
0.0
 40
5.97500000000001
  0
CIRCLE
  5
1009A
330
1F
100
AcDbEntity
  8
0
100
AcDbCircle
 10
72.52499999999999
 20
391.225
 30
0.0
 40
5.975000000000001
  0
LINE
  5
1009B
330
1F
100
AcDbEntity
  8
0
100
AcDbLine
 10
139.96673551188815
 20
419.6300001144409
 30
0.0
 11
139.96673551188815
 21
422.22000069618224
 31
0.0
  0
LINE
  5
1009C
330
1F
100
AcDbEntity
  8
0
100
AcDbLine
 10
139.96673551188815
 20
422.22000069618224
 30
0.0
 11
142.77673556624012
 21
422.22000069618224
 31
0.0
  0
LINE
  5
1009D
330
1F
100
AcDbEntity
  8
0
100
AcDbLine
 10
142.77673556624012
 20
422.22000069618224
 30
0.0
 11
142.77673556624012
 21
419.6300001144409
 31
0.0
  0
LINE
  5
1009E
330
1F
100
AcDbEntity
  8
0
100
AcDbLine
 10
142.77673556624012
 20
419.6300001144409
 30
0.0
 11
139.96673551188815
 21
419.6300001144409
 31
0.0
  0
LINE
  5
1009F
330
1F
100
AcDbEntity
  8
0
100
AcDbLine
 10
14.050000000000011
 20
424.25
 30
0.0
 11
14.050000000000011
 21
426.20000000000005
 31
0.0
  0
LINE
  5
100A0
330
1F
100
AcDbEntity
  8
0
100
AcDbLine
 10
14.050000000000011
 20
426.20000000000005
 30
0.0
 11
22.999999999999986
 21
426.20000000000005
 31
0.0
  0
LINE
  5
100A1
330
1F
100
AcDbEntity
  8
0
100
AcDbLine
 10
22.999999999999986
 20
426.20000000000005
 30
0.0
 11
22.999999999999986
 21
424.25
 31
0.0
  0
LINE
  5
100A2
330
1F
100
AcDbEntity
  8
0
100
AcDbLine
 10
22.999999999999986
 20
424.25
 30
0.0
 11
14.050000000000011
 21
424.25
 31
0.0
  0
SPLINE
  5
100A3
330
1F
100
AcDbEntity
  8
0
100
AcDbSpline
 70
0
 71
3
 72
11
 73
7
 74
0
 42
1e-09
 40
-0.18239603168789156
 40
-0.18239603168789156
 40
-0.18239603168789156
 40
-0.18239603168789156
 40
-0.09434643865231257
 40
-0.09434643865231257
 40
-0.09434643865231257
 40
-8.7174398457246e-05
 40
-8.7174398457246e-05
 40
-8.7174398457246e-05
 40
-8.7174398457246e-05
 10
163.64552974551492
 20
409.24409611355816
 30
0.0
 10
163.40931302814295
 20
409.06701778012183
 30
0.0
 10
163.17395852048813
 20
408.89078312818634
 30
0.0
 10
162.9197527114278
 20
408.75194104935497
 30
0.0
 10
162.64761911370175
 20
408.6033071744337
 30
0.0
 10
162.3514702619902
 20
408.4962093461384
 30
0.0
 10
162.05407001434276
 20
408.3888123429881
 30
0.0
  0
SPLINE
  5
100A4
330
1F
100
AcDbEntity
  8
0
100
AcDbSpline
 70
0
 71
3
 72
11
 73
7
 74
0
 42
1e-09
 40
-0.2229354714228582
 40
-0.2229354714228582
 40
-0.2229354714228582
 40
-0.2229354714228582
 40
-0.11812070388655971
 40
-0.11812070388655971
 40
-0.11812070388655971
 40
-0.002879638922935401
 40
-0.002879638922935401
 40
-0.002879638922935401
 40
-0.002879638922935401
 10
162.05407001434276
 20
408.3888123429881
 30
0.0
 10
161.71755765219675
 20
408.29336027915895
 30
0.0
 10
161.38154160894277
 20
408.1980853714311
 30
0.0
 10
161.04144441074476
 20
408.1244331291183
 30
0.0
 10
160.66751653557287
 20
408.0434544365104
 30
0.0
 10
160.2874742437558
 20
407.98835743464196
 30
0.0
 10
159.90673560915548
 20
407.9338348164998
 30
0.0
  0
LINE
  5
100A5
330
1F
100
AcDbEntity
  8
0
100
AcDbLine
 10
159.90673560915548
 20
407.9338348164998
 30
0.0
 11
159.90673560915548
 21
410.5262627744754
 31
0.0
  0
SPLINE
  5
100A6
330
1F
100
AcDbEntity
  8
0
100
AcDbSpline
 70
0
 71
3
 72
14
 73
10
 74
0
 42
1e-09
 40
-0.18047828887579828
 40
-0.18047828887579828
 40
-0.18047828887579828
 40
-0.18047828887579828
 40
-0.08340864571565154
 40
-0.08340864571565154
 40
-0.08340864571565154
 40
0.0
 40
0.0
 40
0.0
 40
0.00033968225082858653
 40
0.00033968225082858653
 40
0.00033968225082858653
 40
0.00033968225082858653
 10
159.9067356091555
 20
410.5262627744754
 30
0.0
 10
160.23614666644167
 20
410.5741340011388
 30
0.0
 10
160.56628332254078
 20
410.62569698324455
 30
0.0
 10
160.85314115264146
 20
410.7727526553997
 30
0.0
 10
161.09962833795186
 20
410.8991125971894
 30
0.0
 10
161.30986214260557
 20
411.09374897005364
 30
0.0
 10
161.51869808715762
 20
411.2866358426188
 30
0.0
 10
161.51954857289672
 20
411.28742137565877
 30
0.0
 10
161.52039905863586
 20
411.2882069086987
 30
0.0
 10
161.52124954437494
 20
411.2889924417387
 30
0.0
  0
SPLINE
  5
100A7
330
1F
100
AcDbEntity
  8
0
100
AcDbSpline
 70
0
 71
3
 72
14
 73
10
 74
0
 42
1e-09
 40
-0.1931159088518085
 40
-0.1931159088518085
 40
-0.1931159088518085
 40
-0.1931159088518085
 40
-0.19277201273986996
 40
-0.19277201273986996
 40
-0.19277201273986996
 40
-0.10553678061714893
 40
-0.10553678061714893
 40
-0.10553678061714893
 40
-0.0022755046977866633
 40
-0.0022755046977866633
 40
-0.0022755046977866633
 40
-0.0022755046977866633
 10
161.521249544375
 20
411.28899244173886
 30
0.0
 10
161.5218536850505
 20
411.2899800662592
 30
0.0
 10
161.522457825726
 20
411.2909676907795
 30
0.0
 10
161.5230619664015
 20
411.2919553152998
 30
0.0
 10
161.67631275997695
 20
411.54248345820906
 30
0.0
 10
161.83046723113563
 20
411.7942149339354
 30
0.0
 10
161.9350676250239
 20
412.0660209702177
 30
0.0
 10
162.05888422838171
 20
412.3877606782019
 30
0.0
 10
162.11176513316462
 20
412.73374662644864
 30
0.0
 10
162.1630742169372
 20
413.07853157057144
 30
0.0
  0
LINE
  5
100A8
330
1F
100
AcDbEntity
  8
0
100
AcDbLine
 10
162.1630742169372
 20
413.07853157057144
 30
0.0
 11
165.43161928574563
 21
412.8619416871655
 31
0.0
  0
SPLINE
  5
100A9
330
1F
100
AcDbEntity
  8
0
100
AcDbSpline
 70
0
 71
3
 72
11
 73
7
 74
0
 42
1e-09
 40
-0.2279883652050969
 40
-0.2279883652050969
 40
-0.2279883652050969
 40
-0.2279883652050969
 40
-0.10640487839407943
 40
-0.10640487839407943
 40
-0.10640487839407943
 40
-0.00012140785803536155
 40
-0.00012140785803536155
 40
-0.00012140785803536155
 40
-0.00012140785803536155
 10
165.43161928574563
 20
412.8619416871655
 30
0.0
 10
165.35172416951713
 20
412.46327976338745
 30
0.0
 10
165.2709811482385
 20
412.06581586178976
 30
0.0
 10
165.14793326294955
 20
411.682644069929
 30
0.0
 10
165.04036967324134
 20
411.347690459709
 30
0.0
 10
164.90001206144427
 20
411.0222109676876
 30
0.0
 10
164.75926377526866
 20
410.69602297214107
 30
0.0
  0
SPLINE
  5
100AA
330
1F
100
AcDbEntity
  8
0
100
AcDbSpline
 70
0
 71
3
 72
11
 73
7
 74
0
 42
1e-09
 40
-0.18483333880874894
 40
-0.18483333880874894
 40
-0.18483333880874894
 40
-0.18483333880874894
 40
-0.09019003063419366
 40
-0.09019003063419366
 40
-0.09019003063419366
 40
-0.00015037800249255646
 40
-0.00015037800249255646
 40
-0.00015037800249255646
 40
-0.00015037800249255646
 10
164.75926377526872
 20
410.696022972141
 30
0.0
 10
164.60572762313836
 20
410.4180748244563
 30
0.0
 10
164.45267323048125
 20
410.14133575913695
 30
0.0
 10
164.261976979964
 20
409.8953150636605
 30
0.0
 10
164.08055660819218
 20
409.6612613477861
 30
0.0
 10
163.863543623567
 20
409.45304437558707
 30
0.0
 10
163.64552974551498
 20
409.2440961135581
 30
0.0
  0
LINE
  5
100AB
330
1F
100
AcDbEntity
  8
0
100
AcDbLine
 10
27.049999999999983
 20
393.20000000000005
 30
0.0
 11
31.99999999999997
 21
393.20000000000005
 31
0.0
  0
LINE
  5
100AC
330
1F
100
AcDbEntity
  8
0
100
AcDbLine
 10
31.99999999999997
 20
393.20000000000005
 30
0.0
 11
31.99999999999997
 21
391.25000000000006
 31
0.0
  0
LINE
  5
100AD
330
1F
100
AcDbEntity
  8
0
100
AcDbLine
 10
31.99999999999997
 20
391.25000000000006
 30
0.0
 11
27.049999999999983
 21
391.25000000000006
 31
0.0
  0
LINE
  5
100AE
330
1F
100
AcDbEntity
  8
0
100
AcDbLine
 10
27.049999999999983
 20
391.25000000000006
 30
0.0
 11
27.049999999999983
 21
393.20000000000005
 31
0.0
  0
LINE
  5
100AF
330
1F
100
AcDbEntity
  8
0
100
AcDbLine
 10
171.5
 20
393.20000000000005
 30
0.0
 11
171.5
 21
391.25000000000006
 31
0.0
  0
LINE
  5
100B0
330
1F
100
AcDbEntity
  8
0
100
AcDbLine
 10
171.5
 20
391.25000000000006
 30
0.0
 11
166.55
 21
391.25000000000006
 31
0.0
  0
LINE
  5
100B1
330
1F
100
AcDbEntity
  8
0
100
AcDbLine
 10
166.55
 20
391.25000000000006
 30
0.0
 11
166.55
 21
393.20000000000005
 31
0.0
  0
LINE
  5
100B2
330
1F
100
AcDbEntity
  8
0
100
AcDbLine
 10
166.55
 20
393.20000000000005
 30
0.0
 11
171.5
 21
393.20000000000005
 31
0.0
  0
LINE
  5
100B3
330
1F
100
AcDbEntity
  8
0
100
AcDbLine
 10
14.049999999999969
 20
393.20000000000005
 30
0.0
 11
22.999999999999986
 21
393.20000000000005
 31
0.0
  0
LINE
  5
100B4
330
1F
100
AcDbEntity
  8
0
100
AcDbLine
 10
22.999999999999986
 20
393.20000000000005
 30
0.0
 11
22.999999999999986
 21
391.25000000000006
 31
0.0
  0
LINE
  5
100B5
330
1F
100
AcDbEntity
  8
0
100
AcDbLine
 10
22.999999999999986
 20
391.25000000000006
 30
0.0
 11
14.049999999999969
 21
391.25000000000006
 31
0.0
  0
LINE
  5
100B6
330
1F
100
AcDbEntity
  8
0
100
AcDbLine
 10
14.049999999999969
 20
391.25000000000006
 30
0.0
 11
14.049999999999969
 21
393.20000000000005
 31
0.0
  0
LINE
  5
100B7
330
1F
100
AcDbEntity
  8
0
100
AcDbLine
 10
166.54999999999998
 20
424.25
 30
0.0
 11
166.54999999999998
 21
426.20000000000005
 31
0.0
  0
LINE
  5
100B8
330
1F
100
AcDbEntity
  8
0
100
AcDbLine
 10
166.54999999999998
 20
426.20000000000005
 30
0.0
 11
171.5
 21
426.20000000000005
 31
0.0
  0
LINE
  5
100B9
330
1F
100
AcDbEntity
  8
0
100
AcDbLine
 10
171.5
 20
426.20000000000005
 30
0.0
 11
171.5
 21
424.25
 31
0.0
  0
LINE
  5
100BA
330
1F
100
AcDbEntity
  8
0
100
AcDbLine
 10
171.5
 20
424.25
 30
0.0
 11
166.54999999999998
 21
424.25
 31
0.0
  0
LINE
  5
100BB
330
1F
100
AcDbEntity
  8
0
100
AcDbLine
 10
108.9352698336834
 20
408.25
 30
0.0
 11
111.05340957226394
 21
410.7800001621246
 31
0.0
  0
LINE
  5
100BC
330
1F
100
AcDbEntity
  8
0
100
AcDbLine
 10
111.05340957226394
 20
410.7800001621246
 30
0.0
 11
117.07673504171927
 21
410.7800001621246
 31
0.0
  0
LINE
  5
100BD
330
1F
100
AcDbEntity
  8
0
100
AcDbLine
 10
117.07673504171927
 20
410.7800001621246
 30
0.0
 11
117.07673504171927
 21
408.25
 31
0.0
  0
LINE
  5
100BE
330
1F
100
AcDbEntity
  8
0
100
AcDbLine
 10
117.07673504171927
 20
408.25
 30
0.0
 11
108.9352698336834
 21
408.25
 31
0.0
  0
LINE
  5
100BF
330
1F
100
AcDbEntity
  8
0
100
AcDbLine
 10
158.53673591433125
 20
419.89535639876806
 30
0.0
 11
158.53055740470109
 21
419.8891777050071
 31
0.0
  0
SPLINE
  5
100C0
330
1F
100
AcDbEntity
  8
0
100
AcDbSpline
 70
0
 71
3
 72
14
 73
10
 74
0
 42
1e-09
 40
-0.16230008366631363
 40
-0.16230008366631363
 40
-0.16230008366631363
 40
-0.16230008366631363
 40
-0.07557944174916471
 40
-0.07557944174916471
 40
-0.07557944174916471
 40
0.0
 40
0.0
 40
0.0
 40
0.00023858443932404952
 40
0.00023858443932404952
 40
0.00023858443932404952
 40
0.00023858443932404952
 10
158.53055740470109
 20
419.8891777050071
 30
0.0
 10
158.23786421757373
 20
419.86549386629883
 30
0.0
 10
157.94339689803638
 20
419.8412081565654
 30
0.0
 10
157.66875488101658
 20
419.7486928670754
 30
0.0
 10
157.42939675510405
 20
419.66806322944433
 30
0.0
 10
157.20849150896686
 20
419.53675590210514
 30
0.0
 10
156.98897809986454
 20
419.4065003950715
 30
0.0
 10
156.98828515370852
 20
419.40608921266
 30
0.0
 10
156.9875922075525
 20
419.40567803024857
 30
0.0
 10
156.9868992613965
 20
419.40526684783714
 30
0.0
  0
SPLINE
  5
100C1
330
1F
100
AcDbEntity
  8
0
100
AcDbSpline
 70
0
 71
3
 72
17
 73
13
 74
0
 42
1e-09
 40
-0.1436690097236927
 40
-0.1436690097236927
 40
-0.1436690097236927
 40
-0.1436690097236927
 40
-0.1434293076008256
 40
-0.1434293076008256
 40
-0.1434293076008256
 40
-0.07271867584370106
 40
-0.07271867584370106
 40
-0.07271867584370106
 40
0.0
 40
0.0
 40
0.0
 40
0.00011375494667329444
 40
0.00011375494667329444
 40
0.00011375494667329444
 40
0.00011375494667329444
 10
156.9868992613964
 20
419.40526684783714
 30
0.0
 10
156.9862979308129
 20
419.40473052062333
 30
0.0
 10
156.98569660022937
 20
419.40419419340947
 30
0.0
 10
156.98509526964585
 20
419.40365786619566
 30
0.0
 10
156.80770649666485
 20
419.24544468198854
 30
0.0
 10
156.62916102570307
 20
419.0863721579198
 30
0.0
 10
156.48212923335873
 20
418.9005116215293
 30
0.0
 10
156.33092202476058
 20
418.70937300825346
 30
0.0
 10
156.2150181516288
 20
418.49239920515544
 30
0.0
 10
156.09969121696577
 20
418.2767921611847
 30
0.0
 10
156.09951080926237
 20
418.276454883759
 30
0.0
 10
156.09933040155897
 20
418.2761176063333
 30
0.0
 10
156.09914999385563
 20
418.2757803289077
 30
0.0
  0
SPLINE
  5
100C2
330
1F
100
AcDbEntity
  8
0
100
AcDbSpline
 70
0
 71
3
 72
17
 73
13
 74
0
 42
1e-09
 40
-0.15642716183825073
 40
-0.15642716183825073
 40
-0.15642716183825073
 40
-0.15642716183825073
 40
-0.15631288737515642
 40
-0.15631288737515642
 40
-0.15631288737515642
 40
-0.0809968759411231
 40
-0.0809968759411231
 40
-0.0809968759411231
 40
0.0
 40
0.0
 40
0.0
 40
7.959188311685696e-05
 40
7.959188311685696e-05
 40
7.959188311685696e-05
 40
7.959188311685696e-05
 10
156.09914999385668
 20
418.27578032890705
 30
0.0
 10
156.09900124134293
 20
418.2754279432033
 30
0.0
 10
156.09885248882918
 20
418.2750755574995
 30
0.0
 10
156.09870373631543
 20
418.2747231717958
 30
0.0
 10
156.00066393177042
 20
418.04247280741225
 30
0.0
 10
155.90217891656366
 20
417.80932523612677
 30
0.0
 10
155.8327032213912
 20
417.56688758495545
 30
0.0
 10
155.75798717953424
 20
417.30616357711847
 30
0.0
 10
155.71745595991965
 20
417.0369086917563
 30
0.0
 10
155.67701526914385
 20
416.76872869001426
 30
0.0
 10
155.67697552994778
 20
416.7684651619324
 30
0.0
 10
155.6769357907517
 20
416.76820163385054
 30
0.0
 10
155.67689605155567
 20
416.7679381057686
 30
0.0
  0
SPLINE
  5
100C3
330
1F
100
AcDbEntity
  8
0
100
AcDbSpline
 70
0
 71
3
 72
17
 73
13
 74
0
 42
1e-09
 40
-0.16232538254182616
 40
-0.16232538254182616
 40
-0.16232538254182616
 40
-0.16232538254182616
 40
-0.16224546007675142
 40
-0.16224546007675142
 40
-0.16224546007675142
 40
-0.08052484766209421
 40
-0.08052484766209421
 40
-0.08052484766209421
 40
0.0
 40
0.0
 40
0.0
 40
4.066879979772742e-05
 40
4.066879979772742e-05
 40
4.066879979772742e-05
 40
4.066879979772742e-05
 10
155.6768960515509
 20
416.7679381057691
 30
0.0
 10
155.67687323206698
 20
416.7676725769545
 30
0.0
 10
155.67685041258306
 20
416.76740704813966
 30
0.0
 10
155.67682759309912
 20
416.7671415193248
 30
0.0
 10
155.65349470165043
 20
416.4956386653765
 30
0.0
 10
155.63012998477978
 20
416.22383127291664
 30
0.0
 10
155.61676594406188
 20
415.95122448994306
 30
0.0
 10
155.60359745068962
 20
415.6826065853291
 30
0.0
 10
155.6001685112576
 20
415.4138122982073
 30
0.0
 10
155.59673795714124
 20
415.14531971591305
 30
0.0
 10
155.5967362245516
 20
415.1451841146497
 30
0.0
 10
155.5967344919619
 20
415.1450485133863
 30
0.0
 10
155.5967327593723
 20
415.1449129121231
 30
0.0
  0
SPLINE
  5
100C4
330
1F
100
AcDbEntity
  8
0
100
AcDbSpline
 70
0
 71
3
 72
17
 73
13
 74
0
 42
1e-09
 40
-0.15860587603961143
 40
-0.15860587603961143
 40
-0.15860587603961143
 40
-0.15860587603961143
 40
-0.15856522713622734
 40
-0.15856522713622734
 40
-0.15856522713622734
 40
-0.08000789114660949
 40
-0.08000789114660949
 40
-0.08000789114660949
 40
0.0
 40
0.0
 40
0.0
 40
6.063473220703558e-05
 40
6.063473220703558e-05
 40
6.063473220703558e-05
 40
6.063473220703558e-05
 10
155.59673275936152
 20
415.144912912123
 30
0.0
 10
155.5967354399376
 20
415.14477732606633
 30
0.0
 10
155.59673812051363
 20
415.14464174000994
 30
0.0
 10
155.5967408010897
 20
415.14450615395356
 30
0.0
 10
155.60192123393242
 20
414.88247499196257
 30
0.0
 10
155.6070979784224
 20
414.6199826372656
 30
0.0
 10
155.62680633608574
 20
414.3581237154467
 30
0.0
 10
155.64687860705496
 20
414.09142958881
 30
0.0
 10
155.68195251913306
 20
413.82634351900725
 30
0.0
 10
155.7169516960359
 20
413.5617212234023
 30
0.0
 10
155.71697822049103
 20
413.5615206769087
 30
0.0
 10
155.71700474494617
 20
413.5613201304151
 30
0.0
 10
155.71703126940136
 20
413.56111958392097
 30
0.0
  0
SPLINE
  5
100C5
330
1F
100
AcDbEntity
  8
0
100
AcDbSpline
 70
0
 71
3
 72
17
 73
13
 74
0
 42
1e-09
 40
-0.15298687948852016
 40
-0.15298687948852016
 40
-0.15298687948852016
 40
-0.15298687948852016
 40
-0.15292641515193675
 40
-0.15292641515193675
 40
-0.15292641515193675
 40
-0.07456034260560966
 40
-0.07456034260560966
 40
-0.07456034260560966
 40
0.0
 40
0.0
 40
0.0
 40
0.00015093382901453428
 40
0.00015093382901453428
 40
0.00015093382901453428
 40
0.00015093382901453428
 10
155.71703126938831
 20
413.5611195839194
 30
0.0
 10
155.71706749349812
 20
413.5609205604791
 30
0.0
 10
155.71710371760787
 20
413.5607215370391
 30
0.0
 10
155.7171399417176
 20
413.5605225135991
 30
0.0
 10
155.7640889594731
 20
413.30257400678
 30
0.0
 10
155.8111552030655
 20
413.04366217084066
 30
0.0
 10
155.88782693405045
 20
412.7926954392377
 30
0.0
 10
155.9607752182333
 20
412.5539165278682
 30
0.0
 10
156.05998435947095
 20
412.3240939899209
 30
0.0
 10
156.1587810737547
 20
412.09509669020395
 30
0.0
 10
156.15898106970243
 20
412.09463312689303
 30
0.0
 10
156.15918106565013
 20
412.0941695635821
 30
0.0
 10
156.1593810615979
 20
412.093706000271
 30
0.0
  0
SPLINE
  5
100C6
330
1F
100
AcDbEntity
  8
0
100
AcDbSpline
 70
0
 71
3
 72
17
 73
13
 74
0
 42
1e-09
 40
-0.14447095012050318
 40
-0.14447095012050318
 40
-0.14447095012050318
 40
-0.14447095012050318
 40
-0.1443206854497408
 40
-0.1443206854497408
 40
-0.1443206854497408
 40
-0.07179308761220933
 40
-0.07179308761220933
 40
-0.07179308761220933
 40
0.0
 40
0.0
 40
0.0
 40
0.00022904663795631216
 40
0.00022904663795631216
 40
0.00022904663795631216
 40
0.00022904663795631216
 10
156.15938106159848
 20
412.0937060002718
 30
0.0
 10
156.15963555829688
 20
412.0932699718918
 30
0.0
 10
156.15989005499523
 20
412.0928339435119
 30
0.0
 10
156.16014455169358
 20
412.0923979151319
 30
0.0
 10
156.28298137085497
 20
411.8819419854299
 30
0.0
 10
156.40642043006568
 20
411.6702109709492
 30
0.0
 10
156.56257737838433
 20
411.4839388545224
 30
0.0
 10
156.7171528752457
 20
411.29955317551105
 30
0.0
 10
156.90190738903755
 20
411.1423553813075
 30
0.0
 10
157.08552563661817
 20
410.98596747647196
 30
0.0
 10
157.0861114470865
 20
410.98546854091967
 30
0.0
 10
157.08669725755482
 20
410.9849696053673
 30
0.0
 10
157.08728306802308
 20
410.9844706698151
 30
0.0
  0
SPLINE
  5
100C7
330
1F
100
AcDbEntity
  8
0
100
AcDbSpline
 70
0
 71
3
 72
14
 73
10
 74
0
 42
1e-09
 40
-0.1564496687735551
 40
-0.1564496687735551
 40
-0.1564496687735551
 40
-0.1564496687735551
 40
-0.1562218723956232
 40
-0.1562218723956232
 40
-0.1562218723956232
 40
-0.08287342655769747
 40
-0.08287342655769747
 40
-0.08287342655769747
 40
-0.002302955380171243
 40
-0.002302955380171243
 40
-0.002302955380171243
 40
-0.002302955380171243
 10
157.08728306802314
 20
410.9844706698151
 30
0.0
 10
157.08795033613956
 20
410.9840874416185
 30
0.0
 10
157.08861760425594
 20
410.9837042134219
 30
0.0
 10
157.08928487237233
 20
410.9833209852253
 30
0.0
 10
157.3041393829627
 20
410.859924850149
 30
0.0
 10
157.52041960597597
 20
410.7354796751712
 30
0.0
 10
157.75416170411813
 20
410.6611753635584
 30
0.0
 10
158.010918486981
 20
410.5795549102717
 30
0.0
 10
158.28451880792846
 20
410.5597915955713
 30
0.0
 10
158.55673565683918
 20
410.5416108659173
 30
0.0
  0
LINE
  5
100C8
330
1F
100
AcDbEntity
  8
0
100
AcDbLine
 10
158.55673565683918
 20
410.5416108659173
 30
0.0
 11
158.55673565683918
 21
407.95133519859166
 31
0.0
  0
SPLINE
  5
100C9
330
1F
100
AcDbEntity
  8
0
100
AcDbSpline
 70
0
 71
3
 72
11
 73
7
 74
0
 42
1e-09
 40
-0.28155265836591753
 40
-0.28155265836591753
 40
-0.28155265836591753
 40
-0.28155265836591753
 40
-0.13629741932121517
 40
-0.13629741932121517
 40
-0.13629741932121517
 40
-0.0001554166196077241
 40
-0.0001554166196077241
 40
-0.0001554166196077241
 40
-0.0001554166196077241
 10
158.55673565683918
 20
407.95133519859166
 30
0.0
 10
158.06944411707508
 20
407.9767124734173
 30
0.0
 10
157.58384061299589
 20
408.00354254145407
 30
0.0
 10
157.1172660481004
 20
408.10938119971024
 30
0.0
 10
156.6799641229357
 20
408.208579596911
 30
0.0
 10
156.25679862850004
 20
408.3777722435956
 30
0.0
 10
155.83247970183993
 20
408.5476275091337
 30
0.0
  0
SPLINE
  5
100CA
330
1F
100
AcDbEntity
  8
0
100
AcDbSpline
 70
0
 71
3
 72
11
 73
7
 74
0
 42
1e-09
 40
-0.25340840748220556
 40
-0.25340840748220556
 40
-0.25340840748220556
 40
-0.25340840748220556
 40
-0.12551590026006174
 40
-0.12551590026006174
 40
-0.12551590026006174
 40
-0.00013708196484593437
 40
-0.00013708196484593437
 40
-0.00013708196484593437
 40
-0.00013708196484593437
 10
155.83247970183993
 20
408.54762750913375
 30
0.0
 10
155.45680052615347
 20
408.7557130365049
 30
0.0
 10
155.08241426497415
 20
408.96330811775954
 30
0.0
 10
154.75225019755752
 20
409.22460406670854
 30
0.0
 10
154.42857540600514
 20
409.4807643220364
 30
0.0
 10
154.1452297661878
 20
409.7902540117385
 30
0.0
 10
153.86111414619145
 20
410.1008547949483
 30
0.0
  0
SPLINE
  5
100CB
330
1F
100
AcDbEntity
  8
0
100
AcDbSpline
 70
0
 71
3
 72
11
 73
7
 74
0
 42
1e-09
 40
-0.2613907813856714
 40
-0.2613907813856714
 40
-0.2613907813856714
 40
-0.2613907813856714
 40
-0.13380768817600233
 40
-0.13380768817600233
 40
-0.13380768817600233
 40
-0.00011911809255789526
 40
-0.00011911809255789526
 40
-0.00011911809255789526
 40
-0.00011911809255789526
 10
153.86111414619143
 20
410.1008547949483
 30
0.0
 10
153.60901528834358
 20
410.44621727775154
 30
0.0
 10
153.35771382901103
 20
410.7907311721796
 30
0.0
 10
153.1587689092181
 20
411.16181270309056
 30
0.0
 10
152.9503034990813
 20
411.5506523056101
 30
0.0
 10
152.79811524225104
 20
411.97092087393276
 30
0.0
 10
152.64565221855835
 20
412.39237795360907
 30
0.0
  0
SPLINE
  5
100CC
330
1F
100
AcDbEntity
  8
0
100
AcDbSpline
 70
0
 71
3
 72
11
 73
7
 74
0
 42
1e-09
 40
-0.2874665875130733
 40
-0.2874665875130733
 40
-0.2874665875130733
 40
-0.2874665875130733
 40
-0.14733981777661975
 40
-0.14733981777661975
 40
-0.14733981777661975
 40
-7.414480932099011e-05
 40
-7.414480932099011e-05
 40
-7.414480932099011e-05
 40
-7.414480932099011e-05
 10
152.64565221855833
 20
412.39237795360907
 30
0.0
 10
152.52910505640406
 20
412.846280626871
 30
0.0
 10
152.41287002958813
 20
413.2993351726103
 30
0.0
 10
152.34647837536443
 20
413.7585767475994
 30
0.0
 10
152.276704329641
 20
414.2412148596642
 30
0.0
 10
152.26169898339592
 20
414.732642222797
 30
0.0
 10
152.2467466477754
 20
415.225015627183
 30
0.0
  0
SPLINE
  5
100CD
330
1F
100
AcDbEntity
  8
0
100
AcDbSpline
 70
0
 71
3
 72
11
 73
7
 74
0
 42
1e-09
 40
-0.28753282150354204
 40
-0.28753282150354204
 40
-0.28753282150354204
 40
-0.28753282150354204
 40
-0.13926950204246905
 40
-0.13926950204246905
 40
-0.13926950204246905
 40
-9.957858281977798e-05
 40
-9.957858281977798e-05
 40
-9.957858281977798e-05
 40
-9.957858281977798e-05
 10
152.24674664777535
 20
415.225015627183
 30
0.0
 10
152.26120149945825
 20
415.7208035222193
 30
0.0
 10
152.27571271672332
 20
416.21562617505487
 30
0.0
 10
152.34647450357943
 20
416.70139680112914
 30
0.0
 10
152.41289627598024
 20
417.15737378245825
 30
0.0
 10
152.52913819451567
 20
417.6071463486622
 30
0.0
 10
152.64568901471424
 20
418.0577729278879
 30
0.0
  0
SPLINE
  5
100CE
330
1F
100
AcDbEntity
  8
0
100
AcDbSpline
 70
0
 71
3
 72
11
 73
7
 74
0
 42
1e-09
 40
-0.2578560066644288
 40
-0.2578560066644288
 40
-0.2578560066644288
 40
-0.2578560066644288
 40
-0.12536852135518411
 40
-0.12536852135518411
 40
-0.12536852135518411
 40
-0.00015810323272306962
 40
-0.00015810323272306962
 40
-0.00015810323272306962
 40
-0.00015810323272306962
 10
152.64568901471426
 20
418.05777292788787
 30
0.0
 10
152.79092458159653
 20
418.4776972641007
 30
0.0
 10
152.9358873710444
 20
418.89639064648946
 30
0.0
 10
153.13887500804296
 20
419.2833880235506
 30
0.0
 10
153.33071325482496
 20
419.64912900867847
 30
0.0
 10
153.57548505458976
 20
419.9886726713822
 30
0.0
 10
153.82107959910215
 20
420.32908465023945
 30
0.0
  0
SPLINE
  5
100CF
330
1F
100
AcDbEntity
  8
0
100
AcDbSpline
 70
0
 71
3
 72
11
 73
7
 74
0
 42
1e-09
 40
-0.2509611001399858
 40
-0.2509611001399858
 40
-0.2509611001399858
 40
-0.2509611001399858
 40
-0.12699704253890876
 40
-0.12699704253890876
 40
-0.12699704253890876
 40
-0.00015241629597894076
 40
-0.00015241629597894076
 40
-0.00015241629597894076
 40
-0.00015241629597894076
 10
153.82107959910218
 20
420.32908465023945
 30
0.0
 10
154.10542018624986
 20
420.6330682815345
 30
0.0
 10
154.38898073242524
 20
420.9359328261612
 30
0.0
 10
154.71200916670364
 20
421.18520886647644
 30
0.0
 10
155.04254385397354
 20
421.4402773659835
 30
0.0
 10
155.4167114217589
 20
421.641020035864
 30
0.0
 10
155.7921911451248
 20
421.84224017535803
 30
0.0
  0
SPLINE
  5
100D0
330
1F
100
AcDbEntity
  8
0
100
AcDbSpline
 70
0
 71
3
 72
11
 73
7
 74
0
 42
1e-09
 40
-0.28576966879638527
 40
-0.28576966879638527
 40
-0.28576966879638527
 40
-0.28576966879638527
 40
-0.1494699273562637
 40
-0.1494699273562637
 40
-0.1494699273562637
 40
-0.0026382695039834877
 40
-0.0026382695039834877
 40
-0.0026382695039834877
 40
-0.0026382695039834877
 10
155.79219114512475
 20
421.84224017535814
 30
0.0
 10
156.21855220578956
 20
422.0072455520252
 30
0.0
 10
156.64382652337457
 20
422.1716522723846
 30
0.0
 10
157.0822403608645
 20
422.2706145100028
 30
0.0
 10
157.5545305494141
 20
422.377223585418
 30
0.0
 10
158.04483665768885
 20
422.4085117076032
 30
0.0
 10
158.53673591433127
 20
422.4384352836644
 30
0.0
  0
LINE
  5
100D1
330
1F
100
AcDbEntity
  8
0
100
AcDbLine
 10
158.5367359143313
 20
422.4384352836644
 30
0.0
 11
158.53673591433125
 21
419.89535639876806
 31
0.0
  0
LINE
  5
100D2
330
1F
100
AcDbEntity
  8
0
100
AcDbLine
 10
147.2567357045229
 20
408.25
 30
0.0
 11
144.12673581657964
 21
408.25
 31
0.0
  0
LINE
  5
100D3
330
1F
100
AcDbEntity
  8
0
100
AcDbLine
 10
144.12673581657964
 20
408.25
 30
0.0
 11
144.12673581657964
 21
422.22000069618224
 31
0.0
  0
LINE
  5
100D4
330
1F
100
AcDbEntity
  8
0
100
AcDbLine
 10
144.12673581657964
 20
422.22000069618224
 30
0.0
 11
147.2567357045229
 21
422.22000069618224
 31
0.0
  0
LINE
  5
100D5
330
1F
100
AcDbEntity
  8
0
100
AcDbLine
 10
147.2567357045229
 20
422.22000069618224
 30
0.0
 11
147.2567357045229
 21
408.25
 31
0.0
  0
SPLINE
  5
100D6
330
1F
100
AcDbEntity
  8
0
100
AcDbSpline
 70
0
 71
3
 72
14
 73
10
 74
0
 42
1e-09
 40
-0.28290473601533384
 40
-0.28290473601533384
 40
-0.28290473601533384
 40
-0.28290473601533384
 40
-0.2795747147401383
 40
-0.2795747147401383
 40
-0.2795747147401383
 40
-0.13977309687662715
 40
-0.13977309687662715
 40
-0.13977309687662715
 40
-4.295953289046866e-05
 40
-4.295953289046866e-05
 40
-4.295953289046866e-05
 40
-4.295953289046866e-05
 10
134.3353565452744
 20
413.7404291738484
 30
0.0
 10
134.33212123715546
 20
413.7510482162598
 30
0.0
 10
134.32888592903652
 20
413.76166725867125
 30
0.0
 10
134.32565062091754
 20
413.77228630108266
 30
0.0
 10
134.1898252696843
 20
414.21809705921174
 30
0.0
 10
134.05395985964168
 20
414.6640434167232
 30
0.0
 10
133.91052383542615
 20
415.1076908010935
 30
0.0
 10
133.76716115000113
 20
415.5511113487066
 30
0.0
 10
133.61632255012825
 20
415.9919663039784
 30
0.0
 10
133.46552850729222
 20
416.43268723576284
 30
0.0
  0
SPLINE
  5
100D7
330
1F
100
AcDbEntity
  8
0
100
AcDbSpline
 70
0
 71
3
 72
14
 73
10
 74
0
 42
1e-09
 40
-0.2788749928905214
 40
-0.2788749928905214
 40
-0.2788749928905214
 40
-0.2788749928905214
 40
-0.13990354979880784
 40
-0.13990354979880784
 40
-0.13990354979880784
 40
0.0
 40
0.0
 40
0.0
 40
0.014694016856077552
 40
0.014694016856077552
 40
0.014694016856077552
 40
0.014694016856077552
 10
133.46552850729225
 20
416.43268723576284
 30
0.0
 10
133.33048606551517
 20
416.8766221603399
 30
0.0
 10
133.19566726998252
 20
417.319947174432
 30
0.0
 10
133.0961469675364
 20
417.77039332589163
 30
0.0
 10
132.99595916434816
 20
418.2238607014935
 30
0.0
 10
132.9312591687244
 20
418.6858386270746
 30
0.0
 10
132.86649421222472
 20
419.1484661205795
 30
0.0
 10
132.85969197336905
 20
419.1970557110325
 30
0.0
 10
132.85288973451338
 20
419.24564530148547
 30
0.0
 10
132.84608749565768
 20
419.29423489193846
 30
0.0
  0
LINE
  5
100D8
330
1F
100
AcDbEntity
  8
0
100
AcDbLine
 10
132.84608749565768
 20
419.29423489193846
 30
0.0
 11
132.61733846530612
 21
418.15045645846493
 31
0.0
  0
SPLINE
  5
100D9
330
1F
100
AcDbEntity
  8
0
100
AcDbSpline
 70
0
 71
3
 72
14
 73
10
 74
0
 42
1e-09
 40
-0.10142479069507303
 40
-0.10142479069507303
 40
-0.10142479069507303
 40
-0.10142479069507303
 40
-0.05158003008080059
 40
-0.05158003008080059
 40
-0.05158003008080059
 40
0.0
 40
0.0
 40
0.0
 40
6.558884606734532e-05
 40
6.558884606734532e-05
 40
6.558884606734532e-05
 40
6.558884606734532e-05
 10
132.61733846530612
 20
418.15045645846493
 30
0.0
 10
132.58106281721604
 20
417.98824485172986
 30
0.0
 10
132.5448510244043
 20
417.82634701633873
 30
0.0
 10
132.5025660801216
 20
417.66638972813143
 30
0.0
 10
132.4588090498703
 20
417.50086377042396
 30
0.0
 10
132.4083758368654
 20
417.3367620922472
 30
0.0
 10
132.3578389775409
 20
417.17234566832985
 30
0.0
 10
132.35777471518432
 20
417.1721365974259
 30
0.0
 10
132.35771045282772
 20
417.1719275265218
 30
0.0
 10
132.3576461904711
 20
417.17171845561774
 30
0.0
  0
LINE
  5
100DA
330
1F
100
AcDbEntity
  8
0
100
AcDbLine
 10
132.3576461904711
 20
417.17171845561774
 30
0.0
 11
129.74301051231546
 21
408.25
 31
0.0
  0
LINE
  5
100DB
330
1F
100
AcDbEntity
  8
0
100
AcDbLine
 10
129.74301051231546
 20
408.25
 30
0.0
 11
126.23678252042777
 21
408.25
 31
0.0
  0
LINE
  5
100DC
330
1F
100
AcDbEntity
  8
0
100
AcDbLine
 10
126.23678252042777
 20
408.25
 30
0.0
 11
131.0395685684058
 21
422.2000009536743
 31
0.0
  0
LINE
  5
100DD
330
1F
100
AcDbEntity
  8
0
100
AcDbLine
 10
131.0395685684058
 20
422.2000009536743
 30
0.0
 11
134.60402284450498
 21
422.2000009536743
 31
0.0
  0
LINE
  5
100DE
330
1F
100
AcDbEntity
  8
0
100
AcDbLine
 10
134.60402284450498
 20
422.2000009536743
 30
0.0
 11
139.5064506616672
 21
408.25
 31
0.0
  0
LINE
  5
100DF
330
1F
100
AcDbEntity
  8
0
100
AcDbLine
 10
139.5064506616672
 20
408.25
 30
0.0
 11
136.0402183101682
 21
408.25
 31
0.0
  0
LINE
  5
100E0
330
1F
100
AcDbEntity
  8
0
100
AcDbLine
 10
136.0402183101682
 20
408.25
 30
0.0
 11
135.12021823387425
 21
411.24999952316284
 31
0.0
  0
LINE
  5
100E1
330
1F
100
AcDbEntity
  8
0
100
AcDbLine
 10
135.12021823387425
 20
411.24999952316284
 30
0.0
 11
132.01538786302024
 21
411.24999952316284
 31
0.0
  0
LINE
  5
100E2
330
1F
100
AcDbEntity
  8
0
100
AcDbLine
 10
132.01538786302024
 20
411.24999952316284
 30
0.0
 11
132.7603797269584
 21
413.7202374256666
 31
0.0
  0
LINE
  5
100E3
330
1F
100
AcDbEntity
  8
0
100
AcDbLine
 10
132.7603797269584
 20
413.7202374256666
 30
0.0
 11
134.3353565452744
 21
413.7404291738484
 31
0.0
  0
LINE
  5
100E4
330
1F
100
AcDbEntity
  8
0
100
AcDbLine
 10
175.54999999999998
 20
391.25000000000006
 30
0.0
 11
175.54999999999998
 21
393.20000000000005
 31
0.0
  0
LINE
  5
100E5
330
1F
100
AcDbEntity
  8
0
100
AcDbLine
 10
175.54999999999998
 20
393.20000000000005
 30
0.0
 11
184.5
 21
393.20000000000005
 31
0.0
  0
LINE
  5
100E6
330
1F
100
AcDbEntity
  8
0
100
AcDbLine
 10
184.5
 20
393.20000000000005
 30
0.0
 11
184.50000000000003
 21
391.25000000000006
 31
0.0
  0
LINE
  5
100E7
330
1F
100
AcDbEntity
  8
0
100
AcDbLine
 10
184.50000000000003
 20
391.25000000000006
 30
0.0
 11
175.54999999999998
 21
391.25000000000006
 31
0.0
  0
LINE
  5
100E8
330
1F
100
AcDbEntity
  8
0
100
AcDbLine
 10
184.5
 20
424.25
 30
0.0
 11
175.54999999999998
 21
424.25
 31
0.0
  0
LINE
  5
100E9
330
1F
100
AcDbEntity
  8
0
100
AcDbLine
 10
175.54999999999998
 20
424.25
 30
0.0
 11
175.54999999999998
 21
426.20000000000005
 31
0.0
  0
LINE
  5
100EA
330
1F
100
AcDbEntity
  8
0
100
AcDbLine
 10
175.54999999999998
 20
426.20000000000005
 30
0.0
 11
184.5
 21
426.20000000000005
 31
0.0
  0
LINE
  5
100EB
330
1F
100
AcDbEntity
  8
0
100
AcDbLine
 10
184.5
 20
426.20000000000005
 30
0.0
 11
184.5
 21
424.25
 31
0.0
  0
LINE
  5
100EC
330
1F
100
AcDbEntity
  8
0
100
AcDbLine
 10
148.426735590082
 20
419.65000104904175
 30
0.0
 11
148.426735590082
 21
422.22000069618224
 31
0.0
  0
LINE
  5
100ED
330
1F
100
AcDbEntity
  8
0
100
AcDbLine
 10
148.426735590082
 20
422.22000069618224
 30
0.0
 11
151.43673672495441
 21
422.22000069618224
 31
0.0
  0
LINE
  5
100EE
330
1F
100
AcDbEntity
  8
0
100
AcDbLine
 10
151.43673672495441
 20
422.22000069618224
 30
0.0
 11
151.43673672495441
 21
419.65000104904175
 31
0.0
  0
LINE
  5
100EF
330
1F
100
AcDbEntity
  8
0
100
AcDbLine
 10
151.43673672495441
 20
419.65000104904175
 30
0.0
 11
148.426735590082
 21
419.65000104904175
 31
0.0
  0
LINE
  5
100F0
330
1F
100
AcDbEntity
  8
0
100
AcDbLine
 10
31.99999999999997
 20
426.20000000000005
 30
0.0
 11
31.99999999999997
 21
424.25
 31
0.0
  0
LINE
  5
100F1
330
1F
100
AcDbEntity
  8
0
100
AcDbLine
 10
31.99999999999997
 20
424.25
 30
0.0
 11
27.049999999999983
 21
424.25
 31
0.0
  0
LINE
  5
100F2
330
1F
100
AcDbEntity
  8
0
100
AcDbLine
 10
27.049999999999983
 20
424.25
 30
0.0
 11
27.049999999999983
 21
426.20000000000005
 31
0.0
  0
LINE
  5
100F3
330
1F
100
AcDbEntity
  8
0
100
AcDbLine
 10
27.049999999999983
 20
426.20000000000005
 30
0.0
 11
31.99999999999997
 21
426.20000000000005
 31
0.0
  0
SPLINE
  5
100F4
330
1F
100
AcDbEntity
  8
0
100
AcDbSpline
 70
0
 71
3
 72
14
 73
10
 74
0
 42
1e-09
 40
-0.16269621984997915
 40
-0.16269621984997915
 40
-0.16269621984997915
 40
-0.16269621984997915
 40
-0.1624240707433257
 40
-0.1624240707433257
 40
-0.1624240707433257
 40
-0.0890126213570094
 40
-0.0890126213570094
 40
-0.0890126213570094
 40
-0.002124291600750029
 40
-0.002124291600750029
 40
-0.002124291600750029
 40
-0.002124291600750029
 10
161.34013051482748
 20
419.24215765853785
 30
0.0
 10
161.33942832062297
 20
419.2427607344523
 30
0.0
 10
161.33872612641846
 20
419.2433638103667
 30
0.0
 10
161.33802393221396
 20
419.24396688628116
 30
0.0
 10
161.14860903779567
 20
419.4066449031692
 30
0.0
 10
160.95778954992323
 20
419.5709276654258
 30
0.0
 10
160.73762855965742
 20
419.6775028149168
 30
0.0
 10
160.47705039533025
 20
419.8036430397755
 30
0.0
 10
160.1810851711796
 20
419.84615770385415
 30
0.0
 10
159.8867358666476
 20
419.88678892955033
 30
0.0
  0
LINE
  5
100F5
330
1F
100
AcDbEntity
  8
0
100
AcDbLine
 10
159.8867358666476
 20
419.88678892955033
 30
0.0
 11
159.88673586664757
 21
422.41761309874016
 31
0.0
  0
SPLINE
  5
100F6
330
1F
100
AcDbEntity
  8
0
100
AcDbSpline
 70
0
 71
3
 72
11
 73
7
 74
0
 42
1e-09
 40
-0.3772691984176069
 40
-0.3772691984176069
 40
-0.3772691984176069
 40
-0.3772691984176069
 40
-0.17553487601736428
 40
-0.17553487601736428
 40
-0.17553487601736428
 40
-0.00032400576747262206
 40
-0.00032400576747262206
 40
-0.00032400576747262206
 40
-0.00032400576747262206
 10
159.8867358666476
 20
422.41761309874016
 30
0.0
 10
160.5665000092216
 20
422.3555090885584
 30
0.0
 10
161.24364429271736
 20
422.2913365225281
 30
0.0
 10
161.86860451055554
 20
422.0763603098253
 30
0.0
 10
162.4113967450953
 20
421.88964855516434
 30
0.0
 10
162.91811228127403
 20
421.5880463608127
 30
0.0
 10
163.42611666518005
 20
421.2852071066409
 30
0.0
  0
SPLINE
  5
100F7
330
1F
100
AcDbEntity
  8
0
100
AcDbSpline
 70
0
 71
3
 72
11
 73
7
 74
0
 42
1e-09
 40
-0.38727973142204514
 40
-0.38727973142204514
 40
-0.38727973142204514
 40
-0.38727973142204514
 40
-0.21219102803194492
 40
-0.21219102803194492
 40
-0.21219102803194492
 40
-0.002855490863176041
 40
-0.002855490863176041
 40
-0.002855490863176041
 40
-0.002855490863176041
 10
163.42611666518005
 20
421.28520710664094
 30
0.0
 10
163.84075888436826
 20
420.8594981328295
 30
0.0
 10
164.25358420555983
 20
420.4349050607217
 30
0.0
 10
164.54012766362598
 20
419.94242825634353
 30
0.0
 10
164.8827181766348
 20
419.3536244420964
 30
0.0
 10
165.04784037234901
 20
418.66256196492617
 30
0.0
 10
165.21073011807135
 20
417.9677310808067
 30
0.0
  0
LINE
  5
100F8
330
1F
100
AcDbEntity
  8
0
100
AcDbLine
 10
165.21073011807135
 20
417.9677310808067
 30
0.0
 11
162.08017152197903
 21
417.73146258501583
 31
0.0
  0
SPLINE
  5
100F9
330
1F
100
AcDbEntity
  8
0
100
AcDbSpline
 70
0
 71
3
 72
14
 73
10
 74
0
 42
1e-09
 40
-0.16827736869441226
 40
-0.16827736869441226
 40
-0.16827736869441226
 40
-0.16827736869441226
 40
-0.07682620425232667
 40
-0.07682620425232667
 40
-0.07682620425232667
 40
0.0
 40
0.0
 40
0.0
 40
0.0002754683562124472
 40
0.0002754683562124472
 40
0.0002754683562124472
 40
0.0002754683562124472
 10
162.08017152197903
 20
417.73146258501583
 30
0.0
 10
161.99547803783878
 20
418.02759361279647
 30
0.0
 10
161.90935323244997
 20
418.3247110541671
 30
0.0
 10
161.76894717349646
 20
418.59647585947516
 30
0.0
 10
161.65099498962618
 20
418.8247797697487
 30
0.0
 10
161.4959436126676
 20
419.0328613317743
 30
0.0
 10
161.34178872998535
 20
419.2399302569503
 30
0.0
 10
161.34123599159943
 20
419.2406727241462
 30
0.0
 10
161.34068325321354
 20
419.241415191342
 30
0.0
 10
161.3401305148276
 20
419.2421576585379
 30
0.0
  0
LINE
  5
100FA
330
1F
100
AcDbEntity
  8
0
100
AcDbLine
 10
111.23016041734809
 20
419.610000371933
 30
0.0
 11
105.70673454819281
 21
419.610000371933
 31
0.0
  0
LINE
  5
100FB
330
1F
100
AcDbEntity
  8
0
100
AcDbLine
 10
105.70673454819281
 20
419.610000371933
 30
0.0
 11
105.70673454819281
 21
422.2000009536743
 31
0.0
  0
LINE
  5
100FC
330
1F
100
AcDbEntity
  8
0
100
AcDbLine
 10
105.70673454819281
 20
422.2000009536743
 30
0.0
 11
113.42773654448304
 21
422.2000009536743
 31
0.0
  0
LINE
  5
100FD
330
1F
100
AcDbEntity
  8
0
100
AcDbLine
 10
113.42773654448304
 20
422.2000009536743
 30
0.0
 11
111.23016041734809
 21
419.610000371933
 31
0.0
  0
LINE
  5
100FE
330
1F
100
AcDbEntity
  8
0
100
AcDbLine
 10
78.5
 20
408.25
 30
0.0
 11
40.04999999999998
 21
408.25
 31
0.0
  0
LINE
  5
100FF
330
1F
100
AcDbEntity
  8
0
100
AcDbLine
 10
40.04999999999998
 20
408.25
 30
0.0
 11
40.04999999999998
 21
420.20000000000005
 31
0.0
  0
LINE
  5
10100
330
1F
100
AcDbEntity
  8
0
100
AcDbLine
 10
40.04999999999998
 20
420.20000000000005
 30
0.0
 11
78.5
 21
420.20000000000005
 31
0.0
  0
LINE
  5
10101
330
1F
100
AcDbEntity
  8
0
100
AcDbLine
 10
78.5
 20
420.20000000000005
 30
0.0
 11
78.5
 21
408.25
 31
0.0
  0
LINE
  5
10102
330
1F
100
AcDbEntity
  8
0
100
AcDbLine
 10
107.17015375534132
 20
408.25
 30
0.0
 11
105.28673451660235
 21
408.25
 31
0.0
  0
LINE
  5
10103
330
1F
100
AcDbEntity
  8
0
100
AcDbLine
 10
105.28673451660235
 20
408.25
 30
0.0
 11
105.28673451660235
 21
410.5558038943429
 31
0.0
  0
LINE
  5
10104
330
1F
100
AcDbEntity
  8
0
100
AcDbLine
 10
105.28673451660235
 20
410.5558038943429
 30
0.0
 11
115.19328894359536
 21
422.2000009536743
 31
0.0
  0
LINE
  5
10105
330
1F
100
AcDbEntity
  8
0
100
AcDbLine
 10
115.19328894359536
 20
422.2000009536743
 30
0.0
 11
116.95673420248588
 21
422.2000009536743
 31
0.0
  0
LINE
  5
10106
330
1F
100
AcDbEntity
  8
0
100
AcDbLine
 10
116.95673420248588
 20
422.2000009536743
 30
0.0
 11
116.95673420248588
 21
419.7941710633967
 31
0.0
  0
LINE
  5
10107
330
1F
100
AcDbEntity
  8
0
100
AcDbLine
 10
116.95673420248588
 20
419.7941710633967
 30
0.0
 11
107.17015375534132
 21
408.25
 31
0.0
  0
LINE
  5
10108
330
1F
100
AcDbEntity
  8
0
100
AcDbLine
 10
118.98673456428607
 20
413.38999938964844
 30
0.0
 11
118.98673456428607
 21
415.7
 31
0.0
  0
LINE
  5
10109
330
1F
100
AcDbEntity
  8
0
100
AcDbLine
 10
118.98673456428607
 20
415.7
 30
0.0
 11
124.75673510847648
 21
415.7
 31
0.0
  0
LINE
  5
1010A
330
1F
100
AcDbEntity
  8
0
100
AcDbLine
 10
124.75673510847648
 20
415.7
 30
0.0
 11
124.75673510847648
 21
413.38999938964844
 31
0.0
  0
LINE
  5
1010B
330
1F
100
AcDbEntity
  8
0
100
AcDbLine
 10
124.75673510847648
 20
413.38999938964844
 30
0.0
 11
118.98673456428607
 21
413.38999938964844
 31
0.0
  0
LINE
  5
1010C
330
1F
100
AcDbEntity
  8
0
100
AcDbLine
 10
11.999999999999986
 20
408.2000000000001
 30
0.0
 11
11.999999999999986
 21
398.2500000000001
 31
0.0
  0
LINE
  5
1010D
330
1F
100
AcDbEntity
  8
0
100
AcDbLine
 10
11.999999999999986
 20
398.2500000000001
 30
0.0
 11
10.0
 21
398.2500000000001
 31
0.0
  0
LINE
  5
1010E
330
1F
100
AcDbEntity
  8
0
100
AcDbLine
 10
10.0
 20
398.2500000000001
 30
0.0
 11
10.0
 21
378.20000000000005
 31
0.0
  0
LINE
  5
1010F
330
1F
100
AcDbEntity
  8
0
100
AcDbLine
 10
10.0
 20
378.20000000000005
 30
0.0
 11
11.999999999999986
 21
378.20000000000005
 31
0.0
  0
LINE
  5
10110
330
1F
100
AcDbEntity
  8
0
100
AcDbLine
 10
11.999999999999986
 20
378.20000000000005
 30
0.0
 11
11.999999999999986
 21
372.20000000000005
 31
0.0
  0
LINE
  5
10111
330
1F
100
AcDbEntity
  8
0
100
AcDbLine
 10
11.999999999999986
 20
372.20000000000005
 30
0.0
 11
87.29999999999998
 21
372.20000000000005
 31
0.0
  0
LINE
  5
10112
330
1F
100
AcDbEntity
  8
0
100
AcDbLine
 10
87.29999999999998
 20
372.20000000000005
 30
0.0
 11
87.29999999999998
 21
374.20000000000005
 31
0.0
  0
LINE
  5
10113
330
1F
100
AcDbEntity
  8
0
100
AcDbLine
 10
87.29999999999998
 20
374.20000000000005
 30
0.0
 11
111.25
 21
374.20000000000005
 31
0.0
  0
LINE
  5
10114
330
1F
100
AcDbEntity
  8
0
100
AcDbLine
 10
111.25
 20
374.20000000000005
 30
0.0
 11
111.25
 21
372.20000000000005
 31
0.0
  0
LINE
  5
10115
330
1F
100
AcDbEntity
  8
0
100
AcDbLine
 10
111.25
 20
372.20000000000005
 30
0.0
 11
186.55
 21
372.20000000000005
 31
0.0
  0
LINE
  5
10116
330
1F
100
AcDbEntity
  8
0
100
AcDbLine
 10
186.55
 20
372.20000000000005
 30
0.0
 11
186.55
 21
378.20000000000005
 31
0.0
  0
LINE
  5
10117
330
1F
100
AcDbEntity
  8
0
100
AcDbLine
 10
186.55
 20
378.20000000000005
 30
0.0
 11
188.55
 21
378.20000000000005
 31
0.0
  0
LINE
  5
10118
330
1F
100
AcDbEntity
  8
0
100
AcDbLine
 10
188.55
 20
378.20000000000005
 30
0.0
 11
188.55
 21
398.25000000000006
 31
0.0
  0
LINE
  5
10119
330
1F
100
AcDbEntity
  8
0
100
AcDbLine
 10
188.55
 20
398.25000000000006
 30
0.0
 11
186.55
 21
398.25000000000006
 31
0.0
  0
LINE
  5
1011A
330
1F
100
AcDbEntity
  8
0
100
AcDbLine
 10
186.55
 20
398.25000000000006
 30
0.0
 11
186.55
 21
408.20000000000005
 31
0.0
  0
LINE
  5
1011B
330
1F
100
AcDbEntity
  8
0
100
AcDbLine
 10
186.55
 20
408.20000000000005
 30
0.0
 11
188.55
 21
408.20000000000005
 31
0.0
  0
LINE
  5
1011C
330
1F
100
AcDbEntity
  8
0
100
AcDbLine
 10
188.55
 20
408.20000000000005
 30
0.0
 11
188.55
 21
428.25
 31
0.0
  0
LINE
  5
1011D
330
1F
100
AcDbEntity
  8
0
100
AcDbLine
 10
188.55
 20
428.25
 30
0.0
 11
186.55
 21
428.25
 31
0.0
  0
LINE
  5
1011E
330
1F
100
AcDbEntity
  8
0
100
AcDbLine
 10
186.55
 20
428.25
 30
0.0
 11
186.55
 21
432.25
 31
0.0
  0
LINE
  5
1011F
330
1F
100
AcDbEntity
  8
0
100
AcDbLine
 10
186.55
 20
432.25
 30
0.0
 11
111.25
 21
432.25
 31
0.0
  0
LINE
  5
10120
330
1F
100
AcDbEntity
  8
0
100
AcDbLine
 10
111.25
 20
432.25
 30
0.0
 11
111.25
 21
430.25
 31
0.0
  0
LINE
  5
10121
330
1F
100
AcDbEntity
  8
0
100
AcDbLine
 10
111.25
 20
430.25
 30
0.0
 11
87.29999999999998
 21
430.25
 31
0.0
  0
LINE
  5
10122
330
1F
100
AcDbEntity
  8
0
100
AcDbLine
 10
87.29999999999998
 20
430.25
 30
0.0
 11
87.29999999999998
 21
432.25
 31
0.0
  0
LINE
  5
10123
330
1F
100
AcDbEntity
  8
0
100
AcDbLine
 10
87.29999999999998
 20
432.25
 30
0.0
 11
11.999999999999986
 21
432.25
 31
0.0
  0
LINE
  5
10124
330
1F
100
AcDbEntity
  8
0
100
AcDbLine
 10
11.999999999999986
 20
432.25
 30
0.0
 11
11.999999999999986
 21
428.25
 31
0.0
  0
LINE
  5
10125
330
1F
100
AcDbEntity
  8
0
100
AcDbLine
 10
11.999999999999986
 20
428.25
 30
0.0
 11
10.0
 21
428.25
 31
0.0
  0
LINE
  5
10126
330
1F
100
AcDbEntity
  8
0
100
AcDbLine
 10
10.0
 20
428.25
 30
0.0
 11
10.0
 21
408.2000000000001
 31
0.0
  0
LINE
  5
10127
330
1F
100
AcDbEntity
  8
0
100
AcDbLine
 10
10.0
 20
408.2000000000001
 30
0.0
 11
11.999999999999986
 21
408.2000000000001
 31
0.0
  0
LINE
  5
10128
330
1F
100
AcDbEntity
  8
0
100
AcDbLine
 10
178.7166661650573
 20
524.2500000000001
 30
0.0
 11
180.66666616505734
 21
524.2500000000001
 31
0.0
  0
LINE
  5
10129
330
1F
100
AcDbEntity
  8
0
100
AcDbLine
 10
180.66666616505734
 20
524.2500000000001
 30
0.0
 11
180.66666616505734
 21
516.3000000000001
 31
0.0
  0
LINE
  5
1012A
330
1F
100
AcDbEntity
  8
0
100
AcDbLine
 10
180.66666616505734
 20
516.3000000000001
 30
0.0
 11
178.7166661650573
 21
516.3000000000001
 31
0.0
  0
LINE
  5
1012B
330
1F
100
AcDbEntity
  8
0
100
AcDbLine
 10
178.7166661650573
 20
516.3000000000001
 30
0.0
 11
178.7166661650573
 21
524.2500000000001
 31
0.0
  0
LINE
  5
1012C
330
1F
100
AcDbEntity
  8
0
100
AcDbLine
 10
159.98168524914277
 20
519.5945814697776
 30
0.0
 11
161.03447465065216
 21
521.5420119210562
 31
0.0
  0
LINE
  5
1012D
330
1F
100
AcDbEntity
  8
0
100
AcDbLine
 10
161.03447465065216
 20
521.5420119210562
 30
0.0
 11
162.08726405216154
 21
519.5945814697776
 31
0.0
  0
LINE
  5
1012E
330
1F
100
AcDbEntity
  8
0
100
AcDbLine
 10
162.08726405216154
 20
519.5945814697776
 30
0.0
 11
161.03447465065216
 21
517.6471510184991
 31
0.0
  0
LINE
  5
1012F
330
1F
100
AcDbEntity
  8
0
100
AcDbLine
 10
161.03447465065216
 20
517.6471510184991
 30
0.0
 11
159.98168524914277
 21
519.5945814697776
 31
0.0
  0
LINE
  5
10130
330
1F
100
AcDbEntity
  8
0
100
AcDbLine
 10
165.9816852491427
 20
525.5945814697776
 30
0.0
 11
167.0344746506521
 21
527.5420119210562
 31
0.0
  0
LINE
  5
10131
330
1F
100
AcDbEntity
  8
0
100
AcDbLine
 10
167.0344746506521
 20
527.5420119210562
 30
0.0
 11
168.0872640521615
 21
525.5945814697776
 31
0.0
  0
LINE
  5
10132
330
1F
100
AcDbEntity
  8
0
100
AcDbLine
 10
168.0872640521615
 20
525.5945814697776
 30
0.0
 11
167.0344746506521
 21
523.6471510184991
 31
0.0
  0
LINE
  5
10133
330
1F
100
AcDbEntity
  8
0
100
AcDbLine
 10
167.0344746506521
 20
523.6471510184991
 30
0.0
 11
165.9816852491427
 21
525.5945814697776
 31
0.0
  0
LINE
  5
10134
330
1F
100
AcDbEntity
  8
0
100
AcDbLine
 10
159.98168524914277
 20
525.5945814697776
 30
0.0
 11
161.03447465065216
 21
527.5420119210562
 31
0.0
  0
LINE
  5
10135
330
1F
100
AcDbEntity
  8
0
100
AcDbLine
 10
161.03447465065216
 20
527.5420119210562
 30
0.0
 11
162.08726405216154
 21
525.5945814697776
 31
0.0
  0
LINE
  5
10136
330
1F
100
AcDbEntity
  8
0
100
AcDbLine
 10
162.08726405216154
 20
525.5945814697776
 30
0.0
 11
161.03447465065216
 21
523.6471510184991
 31
0.0
  0
LINE
  5
10137
330
1F
100
AcDbEntity
  8
0
100
AcDbLine
 10
161.03447465065216
 20
523.6471510184991
 30
0.0
 11
159.98168524914277
 21
525.5945814697776
 31
0.0
  0
LINE
  5
10138
330
1F
100
AcDbEntity
  8
0
100
AcDbLine
 10
167.0344746506521
 20
517.6471510184991
 30
0.0
 11
165.9816852491427
 21
519.5945814697776
 31
0.0
  0
LINE
  5
10139
330
1F
100
AcDbEntity
  8
0
100
AcDbLine
 10
165.9816852491427
 20
519.5945814697776
 30
0.0
 11
167.0344746506521
 21
521.5420119210562
 31
0.0
  0
LINE
  5
1013A
330
1F
100
AcDbEntity
  8
0
100
AcDbLine
 10
167.0344746506521
 20
521.5420119210562
 30
0.0
 11
168.0872640521615
 21
519.5945814697776
 31
0.0
  0
LINE
  5
1013B
330
1F
100
AcDbEntity
  8
0
100
AcDbLine
 10
168.0872640521615
 20
519.5945814697776
 30
0.0
 11
167.0344746506521
 21
517.6471510184991
 31
0.0
  0
LINE
  5
1013C
330
1F
100
AcDbEntity
  8
0
100
AcDbLine
 10
164.03447465065213
 20
524.5420119210561
 30
0.0
 11
165.08726405216152
 21
522.5945814697776
 31
0.0
  0
LINE
  5
1013D
330
1F
100
AcDbEntity
  8
0
100
AcDbLine
 10
165.08726405216152
 20
522.5945814697776
 30
0.0
 11
164.03447465065213
 21
520.6471510184991
 31
0.0
  0
LINE
  5
1013E
330
1F
100
AcDbEntity
  8
0
100
AcDbLine
 10
164.03447465065213
 20
520.6471510184991
 30
0.0
 11
162.98168524914288
 21
522.5945814697776
 31
0.0
  0
LINE
  5
1013F
330
1F
100
AcDbEntity
  8
0
100
AcDbLine
 10
162.98168524914288
 20
522.5945814697776
 30
0.0
 11
164.03447465065213
 21
524.5420119210561
 31
0.0
  0
LINE
  5
10140
330
1F
100
AcDbEntity
  8
0
100
AcDbLine
 10
156.08726405216152
 20
519.5945814697776
 30
0.0
 11
155.03447465065216
 21
517.6471510184991
 31
0.0
  0
LINE
  5
10141
330
1F
100
AcDbEntity
  8
0
100
AcDbLine
 10
155.03447465065216
 20
517.6471510184991
 30
0.0
 11
153.98168524914274
 21
519.5945814697776
 31
0.0
  0
LINE
  5
10142
330
1F
100
AcDbEntity
  8
0
100
AcDbLine
 10
153.98168524914274
 20
519.5945814697776
 30
0.0
 11
155.03447465065216
 21
521.5420119210562
 31
0.0
  0
LINE
  5
10143
330
1F
100
AcDbEntity
  8
0
100
AcDbLine
 10
155.03447465065216
 20
521.5420119210562
 30
0.0
 11
156.08726405216152
 21
519.5945814697776
 31
0.0
  0
LINE
  5
10144
330
1F
100
AcDbEntity
  8
0
100
AcDbLine
 10
155.03447465065216
 20
527.5420119210561
 30
0.0
 11
156.08726405216152
 21
525.5945814697776
 31
0.0
  0
LINE
  5
10145
330
1F
100
AcDbEntity
  8
0
100
AcDbLine
 10
156.08726405216152
 20
525.5945814697776
 30
0.0
 11
155.03447465065216
 21
523.6471510184991
 31
0.0
  0
LINE
  5
10146
330
1F
100
AcDbEntity
  8
0
100
AcDbLine
 10
155.03447465065216
 20
523.6471510184991
 30
0.0
 11
153.98168524914283
 21
525.5945814697776
 31
0.0
  0
LINE
  5
10147
330
1F
100
AcDbEntity
  8
0
100
AcDbLine
 10
153.98168524914283
 20
525.5945814697776
 30
0.0
 11
155.03447465065216
 21
527.5420119210561
 31
0.0
  0
LINE
  5
10148
330
1F
100
AcDbEntity
  8
0
100
AcDbLine
 10
158.0344746506521
 20
520.6471510184991
 30
0.0
 11
156.9816852491428
 21
522.5945814697776
 31
0.0
  0
LINE
  5
10149
330
1F
100
AcDbEntity
  8
0
100
AcDbLine
 10
156.9816852491428
 20
522.5945814697776
 30
0.0
 11
158.0344746506522
 21
524.5420119210562
 31
0.0
  0
LINE
  5
1014A
330
1F
100
AcDbEntity
  8
0
100
AcDbLine
 10
158.0344746506522
 20
524.5420119210562
 30
0.0
 11
159.08726405216157
 21
522.5945814697776
 31
0.0
  0
LINE
  5
1014B
330
1F
100
AcDbEntity
  8
0
100
AcDbLine
 10
159.08726405216157
 20
522.5945814697776
 30
0.0
 11
158.0344746506521
 21
520.6471510184991
 31
0.0
  0
LINE
  5
1014C
330
1F
100
AcDbEntity
  8
0
100
AcDbLine
 10
164.03447465065227
 20
518.5420119210562
 30
0.0
 11
165.08726405216152
 21
516.5945814697776
 31
0.0
  0
LINE
  5
1014D
330
1F
100
AcDbEntity
  8
0
100
AcDbLine
 10
165.08726405216152
 20
516.5945814697776
 30
0.0
 11
164.03447465065213
 21
514.6471510184991
 31
0.0
  0
LINE
  5
1014E
330
1F
100
AcDbEntity
  8
0
100
AcDbLine
 10
164.03447465065213
 20
514.6471510184991
 30
0.0
 11
162.98168524914288
 21
516.5945814697776
 31
0.0
  0
LINE
  5
1014F
330
1F
100
AcDbEntity
  8
0
100
AcDbLine
 10
162.98168524914288
 20
516.5945814697776
 30
0.0
 11
164.03447465065227
 21
518.5420119210562
 31
0.0
  0
LINE
  5
10150
330
1F
100
AcDbEntity
  8
0
100
AcDbLine
 10
156.9816852491428
 20
516.5945814697776
 30
0.0
 11
158.0344746506522
 21
518.5420119210562
 31
0.0
  0
LINE
  5
10151
330
1F
100
AcDbEntity
  8
0
100
AcDbLine
 10
158.0344746506522
 20
518.5420119210562
 30
0.0
 11
159.08726405216157
 21
516.5945814697776
 31
0.0
  0
LINE
  5
10152
330
1F
100
AcDbEntity
  8
0
100
AcDbLine
 10
159.08726405216157
 20
516.5945814697776
 30
0.0
 11
158.0344746506521
 21
514.6471510184991
 31
0.0
  0
LINE
  5
10153
330
1F
100
AcDbEntity
  8
0
100
AcDbLine
 10
158.0344746506521
 20
514.6471510184991
 30
0.0
 11
156.9816852491428
 21
516.5945814697776
 31
0.0
  0
LINE
  5
10154
330
1F
100
AcDbEntity
  8
0
100
AcDbLine
 10
167.3603774411822
 20
512.2500000000001
 30
0.0
 11
186.70891190622584
 21
512.25
 31
0.0
  0
LINE
  5
10155
330
1F
100
AcDbEntity
  8
0
100
AcDbLine
 10
186.70891190622584
 20
512.25
 30
0.0
 11
186.70891190622584
 21
518.2500000000001
 31
0.0
  0
LINE
  5
10156
330
1F
100
AcDbEntity
  8
0
100
AcDbLine
 10
186.70891190622584
 20
518.2500000000001
 30
0.0
 11
191.67718804680027
 21
518.2500000000001
 31
0.0
  0
ARC
  5
10157
330
1F
100
AcDbEntity
  8
0
100
AcDbCircle
 10
195.19166616505737
 20
520.2750000000001
 30
0.0
 40
4.056128874149312
100
AcDbArc
 50
-150.04997141978703
 51
150.0499714197869
  0
LINE
  5
10158
330
1F
100
AcDbEntity
  8
0
100
AcDbLine
 10
191.67718804680027
 20
522.3000000000001
 30
0.0
 11
186.70891190622584
 21
522.3000000000001
 31
0.0
  0
LINE
  5
10159
330
1F
100
AcDbEntity
  8
0
100
AcDbLine
 10
186.70891190622584
 20
522.3000000000001
 30
0.0
 11
186.70891190622584
 21
528.3000000000002
 31
0.0
  0
LINE
  5
1015A
330
1F
100
AcDbEntity
  8
0
100
AcDbLine
 10
186.70891190622584
 20
528.3000000000002
 30
0.0
 11
164.92801202390075
 21
528.3000000000002
 31
0.0
  0
LINE
  5
1015B
330
1F
100
AcDbEntity
  8
0
100
AcDbLine
 10
164.92801202390075
 20
528.3000000000002
 30
0.0
 11
164.03447465065213
 21
526.6471510184991
 31
0.0
  0
LINE
  5
1015C
330
1F
100
AcDbEntity
  8
0
100
AcDbLine
 10
164.03447465065213
 20
526.6471510184991
 30
0.0
 11
163.1409372774035
 21
528.3000000000002
 31
0.0
  0
LINE
  5
1015D
330
1F
100
AcDbEntity
  8
0
100
AcDbLine
 10
163.1409372774035
 20
528.3000000000002
 30
0.0
 11
158.92801202390075
 21
528.3000000000002
 31
0.0
  0
LINE
  5
1015E
330
1F
100
AcDbEntity
  8
0
100
AcDbLine
 10
158.92801202390075
 20
528.3000000000002
 30
0.0
 11
158.0344746506522
 21
526.647151018499
 31
0.0
  0
LINE
  5
1015F
330
1F
100
AcDbEntity
  8
0
100
AcDbLine
 10
158.0344746506522
 20
526.647151018499
 30
0.0
 11
157.14093727740348
 21
528.3000000000002
 31
0.0
  0
LINE
  5
10160
330
1F
100
AcDbEntity
  8
0
100
AcDbLine
 10
157.14093727740348
 20
528.3000000000002
 30
0.0
 11
13.999999999999986
 21
528.3000000000002
 31
0.0
  0
LINE
  5
10161
330
1F
100
AcDbEntity
  8
0
100
AcDbLine
 10
13.999999999999986
 20
528.3000000000002
 30
0.0
 11
13.999999999999986
 21
525.3000000000001
 31
0.0
  0
LINE
  5
10162
330
1F
100
AcDbEntity
  8
0
100
AcDbLine
 10
13.999999999999986
 20
525.3000000000001
 30
0.0
 11
12.050000000000011
 21
525.3000000000001
 31
0.0
  0
LINE
  5
10163
330
1F
100
AcDbEntity
  8
0
100
AcDbLine
 10
12.050000000000011
 20
525.3000000000001
 30
0.0
 11
12.050000000000011
 21
528.3000000000002
 31
0.0
  0
LINE
  5
10164
330
1F
100
AcDbEntity
  8
0
100
AcDbLine
 10
12.050000000000011
 20
528.3000000000002
 30
0.0
 11
10.0
 21
528.3000000000002
 31
0.0
  0
LINE
  5
10165
330
1F
100
AcDbEntity
  8
0
100
AcDbLine
 10
10.0
 20
528.3000000000002
 30
0.0
 11
10.0
 21
522.2500000000001
 31
0.0
  0
LINE
  5
10166
330
1F
100
AcDbEntity
  8
0
100
AcDbLine
 10
10.0
 20
522.2500000000001
 30
0.0
 11
15.039538257806768
 21
522.2500000000001
 31
0.0
  0
ARC
  5
10167
330
1F
100
AcDbEntity
  8
0
100
AcDbCircle
 10
18.525000000000034
 20
520.2750000000001
 30
0.0
 40
4.006128874149288
100
AcDbArc
 50
-150.46239967471266
 51
150.46239967471303
  0
LINE
  5
10168
330
1F
100
AcDbEntity
  8
0
100
AcDbLine
 10
15.03953825780681
 20
518.3000000000001
 30
0.0
 11
10.0
 21
518.3000000000001
 31
0.0
  0
LINE
  5
10169
330
1F
100
AcDbEntity
  8
0
100
AcDbLine
 10
10.0
 20
518.3000000000001
 30
0.0
 11
10.0
 21
512.25
 31
0.0
  0
LINE
  5
1016A
330
1F
100
AcDbEntity
  8
0
100
AcDbLine
 10
10.0
 20
512.25
 30
0.0
 11
12.050000000000011
 21
512.25
 31
0.0
  0
LINE
  5
1016B
330
1F
100
AcDbEntity
  8
0
100
AcDbLine
 10
12.050000000000011
 20
512.25
 30
0.0
 11
12.050000000000011
 21
515.2500000000001
 31
0.0
  0
LINE
  5
1016C
330
1F
100
AcDbEntity
  8
0
100
AcDbLine
 10
12.050000000000011
 20
515.2500000000001
 30
0.0
 11
13.999999999999986
 21
515.2500000000001
 31
0.0
  0
LINE
  5
1016D
330
1F
100
AcDbEntity
  8
0
100
AcDbLine
 10
13.999999999999986
 20
515.2500000000001
 30
0.0
 11
13.999999999999986
 21
512.25
 31
0.0
  0
LINE
  5
1016E
330
1F
100
AcDbEntity
  8
0
100
AcDbLine
 10
13.999999999999986
 20
512.25
 30
0.0
 11
154.70857186012205
 21
512.25
 31
0.0
  0
LINE
  5
1016F
330
1F
100
AcDbEntity
  8
0
100
AcDbLine
 10
154.70857186012205
 20
512.25
 30
0.0
 11
153.98168524914274
 21
513.5945814697776
 31
0.0
  0
LINE
  5
10170
330
1F
100
AcDbEntity
  8
0
100
AcDbLine
 10
153.98168524914274
 20
513.5945814697776
 30
0.0
 11
155.03447465065216
 21
515.5420119210561
 31
0.0
  0
LINE
  5
10171
330
1F
100
AcDbEntity
  8
0
100
AcDbLine
 10
155.03447465065216
 20
515.5420119210561
 30
0.0
 11
156.08726405216152
 21
513.5945814697776
 31
0.0
  0
LINE
  5
10172
330
1F
100
AcDbEntity
  8
0
100
AcDbLine
 10
156.08726405216152
 20
513.5945814697776
 30
0.0
 11
155.36037744118227
 21
512.25
 31
0.0
  0
LINE
  5
10173
330
1F
100
AcDbEntity
  8
0
100
AcDbLine
 10
155.36037744118227
 20
512.25
 30
0.0
 11
157.87661173164503
 21
512.25
 31
0.0
  0
LINE
  5
10174
330
1F
100
AcDbEntity
  8
0
100
AcDbLine
 10
157.87661173164503
 20
512.25
 30
0.0
 11
158.0344746506522
 21
512.5420119210561
 31
0.0
  0
LINE
  5
10175
330
1F
100
AcDbEntity
  8
0
100
AcDbLine
 10
158.0344746506522
 20
512.5420119210561
 30
0.0
 11
158.1923375696593
 21
512.25
 31
0.0
  0
LINE
  5
10176
330
1F
100
AcDbEntity
  8
0
100
AcDbLine
 10
158.1923375696593
 20
512.25
 30
0.0
 11
160.70857186012205
 21
512.25
 31
0.0
  0
LINE
  5
10177
330
1F
100
AcDbEntity
  8
0
100
AcDbLine
 10
160.70857186012205
 20
512.25
 30
0.0
 11
159.98168524914277
 21
513.5945814697776
 31
0.0
  0
LINE
  5
10178
330
1F
100
AcDbEntity
  8
0
100
AcDbLine
 10
159.98168524914277
 20
513.5945814697776
 30
0.0
 11
161.03447465065216
 21
515.5420119210562
 31
0.0
  0
LINE
  5
10179
330
1F
100
AcDbEntity
  8
0
100
AcDbLine
 10
161.03447465065216
 20
515.5420119210562
 30
0.0
 11
162.08726405216154
 21
513.5945814697776
 31
0.0
  0
LINE
  5
1017A
330
1F
100
AcDbEntity
  8
0
100
AcDbLine
 10
162.08726405216154
 20
513.5945814697776
 30
0.0
 11
161.36037744118227
 21
512.2500000000001
 31
0.0
  0
LINE
  5
1017B
330
1F
100
AcDbEntity
  8
0
100
AcDbLine
 10
161.36037744118227
 20
512.2500000000001
 30
0.0
 11
163.87661173164508
 21
512.25
 31
0.0
  0
LINE
  5
1017C
330
1F
100
AcDbEntity
  8
0
100
AcDbLine
 10
163.87661173164508
 20
512.25
 30
0.0
 11
164.03447465065227
 21
512.5420119210562
 31
0.0
  0
LINE
  5
1017D
330
1F
100
AcDbEntity
  8
0
100
AcDbLine
 10
164.03447465065227
 20
512.5420119210562
 30
0.0
 11
164.1923375696593
 21
512.25
 31
0.0
  0
LINE
  5
1017E
330
1F
100
AcDbEntity
  8
0
100
AcDbLine
 10
164.1923375696593
 20
512.25
 30
0.0
 11
166.708571860122
 21
512.25
 31
0.0
  0
LINE
  5
1017F
330
1F
100
AcDbEntity
  8
0
100
AcDbLine
 10
166.708571860122
 20
512.25
 30
0.0
 11
165.9816852491427
 21
513.5945814697776
 31
0.0
  0
LINE
  5
10180
330
1F
100
AcDbEntity
  8
0
100
AcDbLine
 10
165.9816852491427
 20
513.5945814697776
 30
0.0
 11
167.0344746506521
 21
515.5420119210562
 31
0.0
  0
LINE
  5
10181
330
1F
100
AcDbEntity
  8
0
100
AcDbLine
 10
167.0344746506521
 20
515.5420119210562
 30
0.0
 11
168.0872640521615
 21
513.5945814697776
 31
0.0
  0
LINE
  5
10182
330
1F
100
AcDbEntity
  8
0
100
AcDbLine
 10
168.0872640521615
 20
513.5945814697776
 30
0.0
 11
167.3603774411822
 21
512.2500000000001
 31
0.0
  0
CIRCLE
  5
10183
330
1F
100
AcDbEntity
  8
0
100
AcDbCircle
 10
107.55455274163245
 20
616.2750000000001
 30
0.0
 40
3.9749999999999863
  0
LINE
  5
10184
330
1F
100
AcDbEntity
  8
0
100
AcDbLine
 10
155.2833803180131
 20
620.2500000000002
 30
0.0
 11
155.2833803180131
 21
612.3000000000002
 31
0.0
  0
LINE
  5
10185
330
1F
100
AcDbEntity
  8
0
100
AcDbLine
 10
155.2833803180131
 20
612.3000000000002
 30
0.0
 11
153.33338031801313
 21
612.3000000000002
 31
0.0
  0
LINE
  5
10186
330
1F
100
AcDbEntity
  8
0
100
AcDbLine
 10
153.33338031801313
 20
612.3000000000002
 30
0.0
 11
153.33338031801313
 21
620.2500000000002
 31
0.0
  0
LINE
  5
10187
330
1F
100
AcDbEntity
  8
0
100
AcDbLine
 10
153.33338031801313
 20
620.2500000000002
 30
0.0
 11
155.2833803180131
 21
620.2500000000002
 31
0.0
  0
LINE
  5
10188
330
1F
100
AcDbEntity
  8
0
100
AcDbLine
 10
13.999999999999986
 20
611.3000000000002
 30
0.0
 11
13.999999999999986
 21
608.3000000000002
 31
0.0
  0
LINE
  5
10189
330
1F
100
AcDbEntity
  8
0
100
AcDbLine
 10
11.950000000000003
 20
611.3000000000002
 30
0.0
 11
13.999999999999986
 21
611.3000000000002
 31
0.0
  0
LINE
  5
1018A
330
1F
100
AcDbEntity
  8
0
100
AcDbLine
 10
11.950000000000003
 20
608.3000000000002
 30
0.0
 11
11.950000000000003
 21
611.3000000000002
 31
0.0
  0
LINE
  5
1018B
330
1F
100
AcDbEntity
  8
0
100
AcDbLine
 10
10.0
 20
608.3000000000002
 30
0.0
 11
11.950000000000003
 21
608.3000000000002
 31
0.0
  0
LINE
  5
1018C
330
1F
100
AcDbEntity
  8
0
100
AcDbLine
 10
10.0
 20
614.2500000000002
 30
0.0
 11
10.0
 21
608.3000000000002
 31
0.0
  0
LINE
  5
1018D
330
1F
100
AcDbEntity
  8
0
100
AcDbLine
 10
14.960521881742977
 20
614.2500000000002
 30
0.0
 11
10.0
 21
614.2500000000002
 31
0.0
  0
ARC
  5
1018E
330
1F
100
AcDbEntity
  8
0
100
AcDbCircle
 10
18.475000000000023
 20
616.2750000000002
 30
0.0
 40
4.05612887414929
100
AcDbArc
 50
-150.0499714197866
 51
150.04997141978677
  0
LINE
  5
1018F
330
1F
100
AcDbEntity
  8
0
100
AcDbLine
 10
10.0
 20
618.3000000000002
 30
0.0
 11
14.960521881742977
 21
618.3000000000002
 31
0.0
  0
LINE
  5
10190
330
1F
100
AcDbEntity
  8
0
100
AcDbLine
 10
10.0
 20
624.2500000000002
 30
0.0
 11
10.0
 21
618.3000000000002
 31
0.0
  0
LINE
  5
10191
330
1F
100
AcDbEntity
  8
0
100
AcDbLine
 10
11.950000000000003
 20
624.2500000000002
 30
0.0
 11
10.0
 21
624.2500000000002
 31
0.0
  0
LINE
  5
10192
330
1F
100
AcDbEntity
  8
0
100
AcDbLine
 10
11.950000000000003
 20
621.2500000000002
 30
0.0
 11
11.950000000000003
 21
624.2500000000002
 31
0.0
  0
LINE
  5
10193
330
1F
100
AcDbEntity
  8
0
100
AcDbLine
 10
13.999999999999986
 20
621.2500000000002
 30
0.0
 11
11.950000000000003
 21
621.2500000000002
 31
0.0
  0
LINE
  5
10194
330
1F
100
AcDbEntity
  8
0
100
AcDbLine
 10
13.999999999999986
 20
624.2500000000002
 30
0.0
 11
13.999999999999986
 21
621.2500000000002
 31
0.0
  0
LINE
  5
10195
330
1F
100
AcDbEntity
  8
0
100
AcDbLine
 10
161.28338031801312
 20
624.2500000000002
 30
0.0
 11
13.999999999999986
 21
624.2500000000002
 31
0.0
  0
LINE
  5
10196
330
1F
100
AcDbEntity
  8
0
100
AcDbLine
 10
161.28338031801312
 20
618.2500000000002
 30
0.0
 11
161.28338031801312
 21
624.2500000000002
 31
0.0
  0
LINE
  5
10197
330
1F
100
AcDbEntity
  8
0
100
AcDbLine
 10
166.32291857581993
 20
618.2500000000002
 30
0.0
 11
161.28338031801312
 21
618.2500000000002
 31
0.0
  0
ARC
  5
10198
330
1F
100
AcDbEntity
  8
0
100
AcDbCircle
 10
169.80838031801315
 20
616.2750000000002
 30
0.0
 40
4.006128874149292
100
AcDbArc
 50
-150.46239967471254
 51
150.4623996747126
  0
LINE
  5
10199
330
1F
100
AcDbEntity
  8
0
100
AcDbLine
 10
161.28338031801312
 20
614.3000000000002
 30
0.0
 11
166.32291857581993
 21
614.3000000000002
 31
0.0
  0
LINE
  5
1019A
330
1F
100
AcDbEntity
  8
0
100
AcDbLine
 10
161.28338031801312
 20
608.3000000000002
 30
0.0
 11
161.28338031801312
 21
614.3000000000002
 31
0.0
  0
LINE
  5
1019B
330
1F
100
AcDbEntity
  8
0
100
AcDbLine
 10
13.999999999999986
 20
608.3000000000002
 30
0.0
 11
161.28338031801312
 21
608.3000000000002
 31
0.0
  0
LINE
  5
1019C
330
1F
100
AcDbEntity
  8
0
100
AcDbLine
 10
210.52554359407046
 20
704.7054294796981
 30
0.0
 11
209.47275419256118
 21
706.6528599309765
 31
0.0
  0
LINE
  5
1019D
330
1F
100
AcDbEntity
  8
0
100
AcDbLine
 10
209.47275419256118
 20
706.6528599309765
 30
0.0
 11
210.52554359407054
 21
708.6002903822551
 31
0.0
  0
LINE
  5
1019E
330
1F
100
AcDbEntity
  8
0
100
AcDbLine
 10
210.52554359407054
 20
708.6002903822551
 30
0.0
 11
211.57833299557973
 21
706.6528599309765
 31
0.0
  0
LINE
  5
1019F
330
1F
100
AcDbEntity
  8
0
100
AcDbLine
 10
211.57833299557973
 20
706.6528599309765
 30
0.0
 11
210.52554359407046
 21
704.7054294796981
 31
0.0
  0
LINE
  5
101A0
330
1F
100
AcDbEntity
  8
0
100
AcDbLine
 10
201.52554359407048
 20
707.7054294796981
 30
0.0
 11
200.47275419256113
 21
709.6528599309765
 31
0.0
  0
LINE
  5
101A1
330
1F
100
AcDbEntity
  8
0
100
AcDbLine
 10
200.47275419256113
 20
709.6528599309765
 30
0.0
 11
201.52554359407048
 21
711.6002903822551
 31
0.0
  0
LINE
  5
101A2
330
1F
100
AcDbEntity
  8
0
100
AcDbLine
 10
201.52554359407048
 20
711.6002903822551
 30
0.0
 11
202.57833299557984
 21
709.6528599309765
 31
0.0
  0
LINE
  5
101A3
330
1F
100
AcDbEntity
  8
0
100
AcDbLine
 10
202.57833299557984
 20
709.6528599309765
 30
0.0
 11
201.52554359407048
 21
707.7054294796981
 31
0.0
  0
LINE
  5
101A4
330
1F
100
AcDbEntity
  8
0
100
AcDbLine
 10
209.47275419256118
 20
712.6528599309765
 30
0.0
 11
210.52554359407054
 21
714.6002903822551
 31
0.0
  0
LINE
  5
101A5
330
1F
100
AcDbEntity
  8
0
100
AcDbLine
 10
210.52554359407054
 20
714.6002903822551
 30
0.0
 11
211.57833299557973
 21
712.6528599309765
 31
0.0
  0
LINE
  5
101A6
330
1F
100
AcDbEntity
  8
0
100
AcDbLine
 10
211.57833299557973
 20
712.6528599309765
 30
0.0
 11
210.52554359407046
 21
710.7054294796981
 31
0.0
  0
LINE
  5
101A7
330
1F
100
AcDbEntity
  8
0
100
AcDbLine
 10
210.52554359407046
 20
710.7054294796981
 30
0.0
 11
209.47275419256118
 21
712.6528599309765
 31
0.0
  0
LINE
  5
101A8
330
1F
100
AcDbEntity
  8
0
100
AcDbLine
 10
201.52554359407048
 20
713.7054294796981
 30
0.0
 11
200.47275419256113
 21
715.6528599309765
 31
0.0
  0
LINE
  5
101A9
330
1F
100
AcDbEntity
  8
0
100
AcDbLine
 10
200.47275419256113
 20
715.6528599309765
 30
0.0
 11
201.52554359407048
 21
717.6002903822551
 31
0.0
  0
LINE
  5
101AA
330
1F
100
AcDbEntity
  8
0
100
AcDbLine
 10
201.52554359407048
 20
717.6002903822551
 30
0.0
 11
202.57833299557984
 21
715.6528599309765
 31
0.0
  0
LINE
  5
101AB
330
1F
100
AcDbEntity
  8
0
100
AcDbLine
 10
202.57833299557984
 20
715.6528599309765
 30
0.0
 11
201.52554359407048
 21
713.7054294796981
 31
0.0
  0
LINE
  5
101AC
330
1F
100
AcDbEntity
  8
0
100
AcDbLine
 10
213.52554359407043
 20
707.7054294796981
 30
0.0
 11
212.47275419256107
 21
709.6528599309765
 31
0.0
  0
LINE
  5
101AD
330
1F
100
AcDbEntity
  8
0
100
AcDbLine
 10
212.47275419256107
 20
709.6528599309765
 30
0.0
 11
213.52554359407043
 21
711.6002903822551
 31
0.0
  0
LINE
  5
101AE
330
1F
100
AcDbEntity
  8
0
100
AcDbLine
 10
213.52554359407043
 20
711.6002903822551
 30
0.0
 11
214.57833299557979
 21
709.6528599309765
 31
0.0
  0
LINE
  5
101AF
330
1F
100
AcDbEntity
  8
0
100
AcDbLine
 10
214.57833299557979
 20
709.6528599309765
 30
0.0
 11
213.52554359407043
 21
707.7054294796981
 31
0.0
  0
LINE
  5
101B0
330
1F
100
AcDbEntity
  8
0
100
AcDbLine
 10
204.52554359407046
 20
704.7054294796981
 30
0.0
 11
203.47275419256118
 21
706.6528599309765
 31
0.0
  0
LINE
  5
101B1
330
1F
100
AcDbEntity
  8
0
100
AcDbLine
 10
203.47275419256118
 20
706.6528599309765
 30
0.0
 11
204.5255435940705
 21
708.6002903822551
 31
0.0
  0
LINE
  5
101B2
330
1F
100
AcDbEntity
  8
0
100
AcDbLine
 10
204.5255435940705
 20
708.6002903822551
 30
0.0
 11
205.57833299557979
 21
706.6528599309765
 31
0.0
  0
LINE
  5
101B3
330
1F
100
AcDbEntity
  8
0
100
AcDbLine
 10
205.57833299557979
 20
706.6528599309765
 30
0.0
 11
204.52554359407046
 21
704.7054294796981
 31
0.0
  0
LINE
  5
101B4
330
1F
100
AcDbEntity
  8
0
100
AcDbLine
 10
213.52554359407043
 20
713.7054294796981
 30
0.0
 11
212.47275419256107
 21
715.6528599309765
 31
0.0
  0
LINE
  5
101B5
330
1F
100
AcDbEntity
  8
0
100
AcDbLine
 10
212.47275419256107
 20
715.6528599309765
 30
0.0
 11
213.52554359407043
 21
717.6002903822551
 31
0.0
  0
LINE
  5
101B6
330
1F
100
AcDbEntity
  8
0
100
AcDbLine
 10
213.52554359407043
 20
717.6002903822551
 30
0.0
 11
214.57833299557979
 21
715.6528599309765
 31
0.0
  0
LINE
  5
101B7
330
1F
100
AcDbEntity
  8
0
100
AcDbLine
 10
214.57833299557979
 20
715.6528599309765
 30
0.0
 11
213.52554359407043
 21
713.7054294796981
 31
0.0
  0
LINE
  5
101B8
330
1F
100
AcDbEntity
  8
0
100
AcDbLine
 10
207.52554359407048
 20
713.7054294796981
 30
0.0
 11
206.47275419256113
 21
715.6528599309765
 31
0.0
  0
LINE
  5
101B9
330
1F
100
AcDbEntity
  8
0
100
AcDbLine
 10
206.47275419256113
 20
715.6528599309765
 30
0.0
 11
207.52554359407048
 21
717.6002903822551
 31
0.0
  0
LINE
  5
101BA
330
1F
100
AcDbEntity
  8
0
100
AcDbLine
 10
207.52554359407048
 20
717.6002903822551
 30
0.0
 11
208.57833299557979
 21
715.6528599309765
 31
0.0
  0
LINE
  5
101BB
330
1F
100
AcDbEntity
  8
0
100
AcDbLine
 10
208.57833299557979
 20
715.6528599309765
 30
0.0
 11
207.52554359407048
 21
713.7054294796981
 31
0.0
  0
LINE
  5
101BC
330
1F
100
AcDbEntity
  8
0
100
AcDbLine
 10
203.47275419256118
 20
712.6528599309765
 30
0.0
 11
204.5255435940705
 21
714.6002903822551
 31
0.0
  0
LINE
  5
101BD
330
1F
100
AcDbEntity
  8
0
100
AcDbLine
 10
204.5255435940705
 20
714.6002903822551
 30
0.0
 11
205.57833299557979
 21
712.6528599309765
 31
0.0
  0
LINE
  5
101BE
330
1F
100
AcDbEntity
  8
0
100
AcDbLine
 10
205.57833299557979
 20
712.6528599309765
 30
0.0
 11
204.52554359407046
 21
710.7054294796981
 31
0.0
  0
LINE
  5
101BF
330
1F
100
AcDbEntity
  8
0
100
AcDbLine
 10
204.52554359407046
 20
710.7054294796981
 30
0.0
 11
203.47275419256118
 21
712.6528599309765
 31
0.0
  0
LINE
  5
101C0
330
1F
100
AcDbEntity
  8
0
100
AcDbLine
 10
208.57833299557984
 20
709.6528599309765
 30
0.0
 11
207.52554359407048
 21
707.7054294796981
 31
0.0
  0
LINE
  5
101C1
330
1F
100
AcDbEntity
  8
0
100
AcDbLine
 10
207.52554359407048
 20
707.7054294796981
 30
0.0
 11
206.47275419256113
 21
709.6528599309765
 31
0.0
  0
LINE
  5
101C2
330
1F
100
AcDbEntity
  8
0
100
AcDbLine
 10
206.47275419256113
 20
709.6528599309765
 30
0.0
 11
207.52554359407048
 21
711.6002903822551
 31
0.0
  0
LINE
  5
101C3
330
1F
100
AcDbEntity
  8
0
100
AcDbLine
 10
207.52554359407048
 20
711.6002903822551
 30
0.0
 11
208.57833299557984
 21
709.6528599309765
 31
0.0
  0
LINE
  5
101C4
330
1F
100
AcDbEntity
  8
0
100
AcDbLine
 10
243.8186497475577
 20
716.2500000000003
 30
0.0
 11
245.7686497475577
 21
716.2500000000003
 31
0.0
  0
LINE
  5
101C5
330
1F
100
AcDbEntity
  8
0
100
AcDbLine
 10
245.7686497475577
 20
716.2500000000003
 30
0.0
 11
245.7686497475577
 21
708.3000000000003
 31
0.0
  0
LINE
  5
101C6
330
1F
100
AcDbEntity
  8
0
100
AcDbLine
 10
245.7686497475577
 20
708.3000000000003
 30
0.0
 11
243.8186497475577
 21
708.3000000000003
 31
0.0
  0
LINE
  5
101C7
330
1F
100
AcDbEntity
  8
0
100
AcDbLine
 10
243.8186497475577
 20
708.3000000000003
 30
0.0
 11
243.8186497475577
 21
716.2500000000003
 31
0.0
  0
LINE
  5
101C8
330
1F
100
AcDbEntity
  8
0
100
AcDbLine
 10
213.20411617579566
 20
720.3000000000003
 30
0.0
 11
211.04311036034488
 21
720.3000000000004
 31
0.0
  0
LINE
  5
101C9
330
1F
100
AcDbEntity
  8
0
100
AcDbLine
 10
211.04311036034488
 20
720.3000000000004
 30
0.0
 11
211.04311036034488
 21
719.6429049072802
 31
0.0
  0
LINE
  5
101CA
330
1F
100
AcDbEntity
  8
0
100
AcDbLine
 10
211.04311036034488
 20
719.6429049072802
 30
0.0
 11
211.57833299557979
 21
718.6528599309765
 31
0.0
  0
LINE
  5
101CB
330
1F
100
AcDbEntity
  8
0
100
AcDbLine
 10
211.57833299557979
 20
718.6528599309765
 30
0.0
 11
210.52554359407046
 21
716.7054294796981
 31
0.0
  0
LINE
  5
101CC
330
1F
100
AcDbEntity
  8
0
100
AcDbLine
 10
210.52554359407046
 20
716.7054294796981
 30
0.0
 11
209.47275419256115
 21
718.6528599309765
 31
0.0
  0
LINE
  5
101CD
330
1F
100
AcDbEntity
  8
0
100
AcDbLine
 10
209.47275419256115
 20
718.6528599309765
 30
0.0
 11
210.36320530280807
 21
720.3000000000003
 31
0.0
  0
LINE
  5
101CE
330
1F
100
AcDbEntity
  8
0
100
AcDbLine
 10
210.36320530280807
 20
720.3000000000003
 30
0.0
 11
207.8469710123453
 21
720.3000000000003
 31
0.0
  0
LINE
  5
101CF
330
1F
100
AcDbEntity
  8
0
100
AcDbLine
 10
207.8469710123453
 20
720.3000000000003
 30
0.0
 11
207.52554359407048
 21
719.7054294796981
 31
0.0
  0
LINE
  5
101D0
330
1F
100
AcDbEntity
  8
0
100
AcDbLine
 10
207.52554359407048
 20
719.7054294796981
 30
0.0
 11
207.20411617579572
 21
720.3000000000003
 31
0.0
  0
LINE
  5
101D1
330
1F
100
AcDbEntity
  8
0
100
AcDbLine
 10
207.20411617579572
 20
720.3000000000003
 30
0.0
 11
204.6878818853329
 21
720.3000000000004
 31
0.0
  0
LINE
  5
101D2
330
1F
100
AcDbEntity
  8
0
100
AcDbLine
 10
204.6878818853329
 20
720.3000000000004
 30
0.0
 11
205.57833299557984
 21
718.6528599309765
 31
0.0
  0
LINE
  5
101D3
330
1F
100
AcDbEntity
  8
0
100
AcDbLine
 10
205.57833299557984
 20
718.6528599309765
 30
0.0
 11
204.52554359407046
 21
716.7054294796981
 31
0.0
  0
LINE
  5
101D4
330
1F
100
AcDbEntity
  8
0
100
AcDbLine
 10
204.52554359407046
 20
716.7054294796981
 30
0.0
 11
203.47275419256113
 21
718.6528599309765
 31
0.0
  0
LINE
  5
101D5
330
1F
100
AcDbEntity
  8
0
100
AcDbLine
 10
203.47275419256113
 20
718.6528599309765
 30
0.0
 11
204.36320530280807
 21
720.3000000000004
 31
0.0
  0
LINE
  5
101D6
330
1F
100
AcDbEntity
  8
0
100
AcDbLine
 10
204.36320530280807
 20
720.3000000000004
 30
0.0
 11
201.84697101234528
 21
720.3000000000003
 31
0.0
  0
LINE
  5
101D7
330
1F
100
AcDbEntity
  8
0
100
AcDbLine
 10
201.84697101234528
 20
720.3000000000003
 30
0.0
 11
201.52554359407048
 21
719.7054294796981
 31
0.0
  0
LINE
  5
101D8
330
1F
100
AcDbEntity
  8
0
100
AcDbLine
 10
201.52554359407048
 20
719.7054294796981
 30
0.0
 11
201.2041161757957
 21
720.3000000000003
 31
0.0
  0
LINE
  5
101D9
330
1F
100
AcDbEntity
  8
0
100
AcDbLine
 10
201.2041161757957
 20
720.3000000000003
 30
0.0
 11
10.0
 21
720.3000000000004
 31
0.0
  0
LINE
  5
101DA
330
1F
100
AcDbEntity
  8
0
100
AcDbLine
 10
10.0
 20
720.3000000000004
 30
0.0
 11
19.266471820493535
 21
704.2500000000002
 31
0.0
  0
LINE
  5
101DB
330
1F
100
AcDbEntity
  8
0
100
AcDbLine
 10
19.266471820493535
 20
704.2500000000002
 30
0.0
 11
200.79557072008947
 21
704.2500000000003
 31
0.0
  0
LINE
  5
101DC
330
1F
100
AcDbEntity
  8
0
100
AcDbLine
 10
200.79557072008947
 20
704.2500000000003
 30
0.0
 11
201.52554359407048
 21
705.6002903822551
 31
0.0
  0
LINE
  5
101DD
330
1F
100
AcDbEntity
  8
0
100
AcDbLine
 10
201.52554359407048
 20
705.6002903822551
 30
0.0
 11
202.25551646805144
 21
704.2500000000003
 31
0.0
  0
LINE
  5
101DE
330
1F
100
AcDbEntity
  8
0
100
AcDbLine
 10
202.25551646805144
 20
704.2500000000003
 30
0.0
 11
206.79557072008947
 21
704.2500000000002
 31
0.0
  0
LINE
  5
101DF
330
1F
100
AcDbEntity
  8
0
100
AcDbLine
 10
206.79557072008947
 20
704.2500000000002
 30
0.0
 11
207.52554359407048
 21
705.6002903822551
 31
0.0
  0
LINE
  5
101E0
330
1F
100
AcDbEntity
  8
0
100
AcDbLine
 10
207.52554359407048
 20
705.6002903822551
 30
0.0
 11
208.25551646805147
 21
704.2500000000002
 31
0.0
  0
LINE
  5
101E1
330
1F
100
AcDbEntity
  8
0
100
AcDbLine
 10
208.25551646805147
 20
704.2500000000002
 30
0.0
 11
212.79557072008942
 21
704.2500000000002
 31
0.0
  0
LINE
  5
101E2
330
1F
100
AcDbEntity
  8
0
100
AcDbLine
 10
212.79557072008942
 20
704.2500000000002
 30
0.0
 11
213.52554359407043
 21
705.6002903822551
 31
0.0
  0
LINE
  5
101E3
330
1F
100
AcDbEntity
  8
0
100
AcDbLine
 10
213.52554359407043
 20
705.6002903822551
 30
0.0
 11
214.2555164680514
 21
704.2500000000002
 31
0.0
  0
LINE
  5
101E4
330
1F
100
AcDbEntity
  8
0
100
AcDbLine
 10
214.2555164680514
 20
704.2500000000002
 30
0.0
 11
251.81864974755769
 21
704.2500000000002
 31
0.0
  0
LINE
  5
101E5
330
1F
100
AcDbEntity
  8
0
100
AcDbLine
 10
251.81864974755769
 20
704.2500000000002
 30
0.0
 11
251.81864974755769
 21
710.2500000000003
 31
0.0
  0
LINE
  5
101E6
330
1F
100
AcDbEntity
  8
0
100
AcDbLine
 10
251.81864974755769
 20
710.2500000000003
 30
0.0
 11
256.77917162930066
 21
710.2500000000003
 31
0.0
  0
ARC
  5
101E7
330
1F
100
AcDbEntity
  8
0
100
AcDbCircle
 10
260.2936497475577
 20
712.2750000000003
 30
0.0
 40
4.056128874149286
100
AcDbArc
 50
-150.04997141978663
 51
150.04997141978686
  0
LINE
  5
101E8
330
1F
100
AcDbEntity
  8
0
100
AcDbLine
 10
256.77917162930066
 20
714.3000000000003
 30
0.0
 11
251.81864974755769
 21
714.3000000000003
 31
0.0
  0
LINE
  5
101E9
330
1F
100
AcDbEntity
  8
0
100
AcDbLine
 10
251.81864974755769
 20
714.3000000000003
 30
0.0
 11
251.81864974755769
 21
720.3000000000004
 31
0.0
  0
LINE
  5
101EA
330
1F
100
AcDbEntity
  8
0
100
AcDbLine
 10
251.81864974755769
 20
720.3000000000004
 30
0.0
 11
213.84697101234525
 21
720.3000000000004
 31
0.0
  0
LINE
  5
101EB
330
1F
100
AcDbEntity
  8
0
100
AcDbLine
 10
213.84697101234525
 20
720.3000000000004
 30
0.0
 11
213.52554359407043
 21
719.7054294796981
 31
0.0
  0
LINE
  5
101EC
330
1F
100
AcDbEntity
  8
0
100
AcDbLine
 10
213.52554359407043
 20
719.7054294796981
 30
0.0
 11
213.20411617579566
 21
720.3000000000003
 31
0.0
  0
CIRCLE
  5
101ED
330
1F
100
AcDbEntity
  8
0
100
AcDbCircle
 10
38.859859672652135
 20
833.5250000000002
 30
0.0
 40
3.9749999999999908
  0
CIRCLE
  5
101EE
330
1F
100
AcDbEntity
  8
0
100
AcDbCircle
 10
210.77323327958533
 20
833.5250000000002
 30
0.0
 40
3.975000000000062
  0
LINE
  5
101EF
330
1F
100
AcDbEntity
  8
0
100
AcDbLine
 10
234.70219663044026
 20
804.3500000000003
 30
0.0
 11
234.70219663044026
 21
812.3000000000003
 31
0.0
  0
LINE
  5
101F0
330
1F
100
AcDbEntity
  8
0
100
AcDbLine
 10
234.70219663044026
 20
812.3000000000003
 30
0.0
 11
236.65219663044036
 21
812.3000000000003
 31
0.0
  0
LINE
  5
101F1
330
1F
100
AcDbEntity
  8
0
100
AcDbLine
 10
236.65219663044036
 20
812.3000000000003
 30
0.0
 11
236.65219663044036
 21
804.3500000000003
 31
0.0
  0
LINE
  5
101F2
330
1F
100
AcDbEntity
  8
0
100
AcDbLine
 10
236.65219663044036
 20
804.3500000000003
 30
0.0
 11
234.70219663044026
 21
804.3500000000003
 31
0.0
  0
LINE
  5
101F3
330
1F
100
AcDbEntity
  8
0
100
AcDbLine
 10
234.70219663044026
 20
837.432584065569
 30
0.0
 11
236.65219663044036
 21
837.432584065569
 31
0.0
  0
LINE
  5
101F4
330
1F
100
AcDbEntity
  8
0
100
AcDbLine
 10
236.65219663044036
 20
837.432584065569
 30
0.0
 11
236.65219663044036
 21
829.4825840655691
 31
0.0
  0
LINE
  5
101F5
330
1F
100
AcDbEntity
  8
0
100
AcDbLine
 10
236.65219663044036
 20
829.4825840655691
 30
0.0
 11
234.70219663044026
 21
829.4825840655691
 31
0.0
  0
LINE
  5
101F6
330
1F
100
AcDbEntity
  8
0
100
AcDbLine
 10
234.70219663044026
 20
829.4825840655691
 30
0.0
 11
234.70219663044026
 21
837.432584065569
 31
0.0
  0
LINE
  5
101F7
330
1F
100
AcDbEntity
  8
0
100
AcDbLine
 10
206.3905931462259
 20
841.5500000000003
 30
0.0
 11
14.007754258831753
 21
841.5500000000003
 31
0.0
  0
LINE
  5
101F8
330
1F
100
AcDbEntity
  8
0
100
AcDbLine
 10
242.70219663044026
 20
841.4825376618968
 30
0.0
 11
206.3905931462259
 21
841.5500000000003
 31
0.0
  0
LINE
  5
101F9
330
1F
100
AcDbEntity
  8
0
100
AcDbLine
 10
242.70219663044026
 20
835.4825840655691
 30
0.0
 11
242.70219663044026
 21
841.4825376618968
 31
0.0
  0
LINE
  5
101FA
330
1F
100
AcDbEntity
  8
0
100
AcDbLine
 10
247.6627185121833
 20
835.4825840655691
 30
0.0
 11
242.70219663044026
 21
835.4825840655691
 31
0.0
  0
ARC
  5
101FB
330
1F
100
AcDbEntity
  8
0
100
AcDbCircle
 10
251.17719663044033
 20
833.457584065569
 30
0.0
 40
4.05612887414933
100
AcDbArc
 50
-150.04997141978657
 51
150.0499714197871
  0
LINE
  5
101FC
330
1F
100
AcDbEntity
  8
0
100
AcDbLine
 10
242.70219663044026
 20
831.432584065569
 30
0.0
 11
247.6627185121833
 21
831.432584065569
 31
0.0
  0
LINE
  5
101FD
330
1F
100
AcDbEntity
  8
0
100
AcDbLine
 10
242.70219663044026
 20
825.4325375756046
 30
0.0
 11
242.70219663044026
 21
831.432584065569
 31
0.0
  0
LINE
  5
101FE
330
1F
100
AcDbEntity
  8
0
100
AcDbLine
 10
206.39054670278392
 20
825.4999999999997
 30
0.0
 11
242.70219663044026
 21
825.4325375756046
 31
0.0
  0
ARC
  5
101FF
330
1F
100
AcDbEntity
  8
0
100
AcDbCircle
 10
206.39056992283776
 20
345.31870000000015
 30
0.0
 40
480.18130000000014
100
AcDbArc
 50
90.00000277064325
 51
97.31437371964985
  0
ARC
  5
10200
330
1F
100
AcDbEntity
  8
0
100
AcDbCircle
 10
145.49347142782338
 20
818.9766022094555
 30
0.0
 40
2.626602209454869
100
AcDbArc
 50
95.16449165281051
 51
-90.00000000000297
  0
LINE
  5
10201
330
1F
100
AcDbEntity
  8
0
100
AcDbLine
 10
242.70219663044026
 20
816.3500000000003
 30
0.0
 11
145.49347142782324
 21
816.3500000000001
 31
0.0
  0
LINE
  5
10202
330
1F
100
AcDbEntity
  8
0
100
AcDbLine
 10
242.70219663044026
 20
810.3500000000003
 30
0.0
 11
242.70219663044026
 21
816.3500000000003
 31
0.0
  0
LINE
  5
10203
330
1F
100
AcDbEntity
  8
0
100
AcDbLine
 10
247.6627185121833
 20
810.3500000000003
 30
0.0
 11
242.70219663044026
 21
810.3500000000003
 31
0.0
  0
ARC
  5
10204
330
1F
100
AcDbEntity
  8
0
100
AcDbCircle
 10
251.17719663044033
 20
808.3250000000003
 30
0.0
 40
4.056128874149334
100
AcDbArc
 50
-150.04997141978646
 51
150.04997141978706
  0
LINE
  5
10205
330
1F
100
AcDbEntity
  8
0
100
AcDbLine
 10
242.70219663044026
 20
806.3000000000003
 30
0.0
 11
247.6627185121833
 21
806.3000000000002
 31
0.0
  0
LINE
  5
10206
330
1F
100
AcDbEntity
  8
0
100
AcDbLine
 10
242.70219663044026
 20
800.3000000000003
 30
0.0
 11
242.70219663044026
 21
806.3000000000003
 31
0.0
  0
LINE
  5
10207
330
1F
100
AcDbEntity
  8
0
100
AcDbLine
 10
14.007754258831753
 20
800.3000000000003
 30
0.0
 11
242.70219663044026
 21
800.3000000000003
 31
0.0
  0
LINE
  5
10208
330
1F
100
AcDbEntity
  8
0
100
AcDbLine
 10
14.007754258831753
 20
803.6011150148671
 30
0.0
 11
14.007754258831753
 21
800.3000000000003
 31
0.0
  0
LINE
  5
10209
330
1F
100
AcDbEntity
  8
0
100
AcDbLine
 10
12.057754258831679
 20
803.6011150148671
 30
0.0
 11
14.007754258831753
 21
803.6011150148671
 31
0.0
  0
LINE
  5
1020A
330
1F
100
AcDbEntity
  8
0
100
AcDbLine
 10
12.057754258831679
 20
800.9851316155768
 30
0.0
 11
12.057754258831679
 21
803.6011150148671
 31
0.0
  0
ARC
  5
1020B
330
1F
100
AcDbEntity
  8
0
100
AcDbCircle
 10
-14.009430077162449
 20
1296.5313000000003
 30
0.0
 40
496.2313
100
AcDbArc
 50
-87.22674426386577
 51
-86.9888489746296
  0
LINE
  5
1020C
330
1F
100
AcDbEntity
  8
0
100
AcDbLine
 10
10.000000000000213
 20
806.6511150148672
 30
0.0
 11
10.000000000000213
 21
800.8811710107507
 31
0.0
  0
LINE
  5
1020D
330
1F
100
AcDbEntity
  8
0
100
AcDbLine
 10
15.047292516638464
 20
806.6511150148672
 30
0.0
 11
10.000000000000213
 21
806.6511150148672
 31
0.0
  0
ARC
  5
1020E
330
1F
100
AcDbEntity
  8
0
100
AcDbCircle
 10
18.532754258831687
 20
808.6261150148672
 30
0.0
 40
4.006128874149293
100
AcDbArc
 50
-150.46239967471251
 51
150.46239967471251
  0
LINE
  5
1020F
330
1F
100
AcDbEntity
  8
0
100
AcDbLine
 10
10.000000000000213
 20
810.6011150148671
 30
0.0
 11
15.047292516638464
 21
810.6011150148672
 31
0.0
  0
LINE
  5
10210
330
1F
100
AcDbEntity
  8
0
100
AcDbLine
 10
10.000000000000142
 20
816.9506205131596
 30
0.0
 11
10.000000000000213
 21
810.6011150148671
 31
0.0
  0
ARC
  5
10211
330
1F
100
AcDbEntity
  8
0
100
AcDbCircle
 10
-14.009430077162449
 20
1296.5313000000003
 30
0.0
 40
480.1812999999999
100
AcDbArc
 50
-87.13397240142348
 51
-86.888104152222
  0
LINE
  5
10212
330
1F
100
AcDbEntity
  8
0
100
AcDbLine
 10
12.057754258831679
 20
813.6511150148672
 30
0.0
 11
12.05775425883175
 21
817.0580653241914
 31
0.0
  0
LINE
  5
10213
330
1F
100
AcDbEntity
  8
0
100
AcDbLine
 10
14.007754258831753
 20
813.6511150148672
 30
0.0
 11
12.057754258831679
 21
813.6511150148672
 31
0.0
  0
LINE
  5
10214
330
1F
100
AcDbEntity
  8
0
100
AcDbLine
 10
14.007754258831753
 20
817.1680575089088
 30
0.0
 11
14.007754258831753
 21
813.6511150148672
 31
0.0
  0
ARC
  5
10215
330
1F
100
AcDbEntity
  8
0
100
AcDbCircle
 10
-14.009430077162449
 20
1296.5313000000003
 30
0.0
 40
480.1813000000001
100
AcDbArc
 50
-86.65505791612665
 51
-82.95689297973895
  0
ARC
  5
10216
330
1F
100
AcDbEntity
  8
0
100
AcDbCircle
 10
43.80062125447985
 20
822.6335089235728
 30
0.0
 40
2.8664910764273825
100
AcDbArc
 50
-68.1275342111531
 51
90.0
  0
LINE
  5
10217
330
1F
100
AcDbEntity
  8
0
100
AcDbLine
 10
14.007754258831753
 20
825.5000000000002
 30
0.0
 11
43.80062125447985
 21
825.5000000000001
 31
0.0
  0
LINE
  5
10218
330
1F
100
AcDbEntity
  8
0
100
AcDbLine
 10
14.007754258831753
 20
828.5000000000002
 30
0.0
 11
14.007754258831753
 21
825.5000000000002
 31
0.0
  0
LINE
  5
10219
330
1F
100
AcDbEntity
  8
0
100
AcDbLine
 10
12.057754258831679
 20
828.5000000000002
 30
0.0
 11
14.007754258831753
 21
828.5000000000002
 31
0.0
  0
LINE
  5
1021A
330
1F
100
AcDbEntity
  8
0
100
AcDbLine
 10
12.057754258831679
 20
825.5000000000002
 30
0.0
 11
12.057754258831679
 21
828.5000000000002
 31
0.0
  0
LINE
  5
1021B
330
1F
100
AcDbEntity
  8
0
100
AcDbLine
 10
10.000000000000213
 20
825.5000000000002
 30
0.0
 11
12.057754258831679
 21
825.5000000000002
 31
0.0
  0
LINE
  5
1021C
330
1F
100
AcDbEntity
  8
0
100
AcDbLine
 10
10.000000000000213
 20
831.5500000000003
 30
0.0
 11
10.000000000000213
 21
825.5000000000002
 31
0.0
  0
LINE
  5
1021D
330
1F
100
AcDbEntity
  8
0
100
AcDbLine
 10
15.047292516638464
 20
831.5500000000003
 30
0.0
 11
10.000000000000213
 21
831.5500000000003
 31
0.0
  0
ARC
  5
1021E
330
1F
100
AcDbEntity
  8
0
100
AcDbCircle
 10
18.532754258831687
 20
833.5250000000003
 30
0.0
 40
4.006128874149293
100
AcDbArc
 50
-150.46239967471251
 51
150.46239967471251
  0
LINE
  5
1021F
330
1F
100
AcDbEntity
  8
0
100
AcDbLine
 10
10.000000000000213
 20
835.5000000000002
 30
0.0
 11
15.047292516638464
 21
835.5000000000003
 31
0.0
  0
LINE
  5
10220
330
1F
100
AcDbEntity
  8
0
100
AcDbLine
 10
10.000000000000213
 20
841.5500000000003
 30
0.0
 11
10.000000000000213
 21
835.5000000000002
 31
0.0
  0
LINE
  5
10221
330
1F
100
AcDbEntity
  8
0
100
AcDbLine
 10
12.057754258831679
 20
841.5500000000003
 30
0.0
 11
10.000000000000213
 21
841.5500000000003
 31
0.0
  0
LINE
  5
10222
330
1F
100
AcDbEntity
  8
0
100
AcDbLine
 10
12.057754258831679
 20
838.5500000000003
 30
0.0
 11
12.057754258831679
 21
841.5500000000003
 31
0.0
  0
LINE
  5
10223
330
1F
100
AcDbEntity
  8
0
100
AcDbLine
 10
14.007754258831753
 20
838.5500000000003
 30
0.0
 11
12.057754258831679
 21
838.5500000000003
 31
0.0
  0
LINE
  5
10224
330
1F
100
AcDbEntity
  8
0
100
AcDbLine
 10
14.007754258831753
 20
841.5500000000003
 30
0.0
 11
14.007754258831753
 21
838.5500000000003
 31
0.0
  0
LINE
  5
10225
330
1F
100
AcDbEntity
  8
0
100
AcDbLine
 10
222.53698439076027
 20
938.8624638220115
 30
0.0
 11
199.4323202622608
 21
939.2563915472422
 31
0.0
  0
LINE
  5
10226
330
1F
100
AcDbEntity
  8
0
100
AcDbLine
 10
199.4323202622608
 20
939.2563915472422
 30
0.0
 11
14.007754258831625
 21
939.2563915472422
 31
0.0
  0
LINE
  5
10227
330
1F
100
AcDbEntity
  8
0
100
AcDbLine
 10
14.007754258831625
 20
939.2563915472422
 30
0.0
 11
14.007754258831625
 21
936.2563915472423
 31
0.0
  0
LINE
  5
10228
330
1F
100
AcDbEntity
  8
0
100
AcDbLine
 10
14.007754258831625
 20
936.2563915472423
 30
0.0
 11
12.057754258831551
 21
936.2563915472423
 31
0.0
  0
LINE
  5
10229
330
1F
100
AcDbEntity
  8
0
100
AcDbLine
 10
12.057754258831551
 20
936.2563915472423
 30
0.0
 11
12.057754258831551
 21
939.2563915472422
 31
0.0
  0
LINE
  5
1022A
330
1F
100
AcDbEntity
  8
0
100
AcDbLine
 10
12.057754258831551
 20
939.2563915472422
 30
0.0
 11
10.000000000000014
 21
939.2563915472422
 31
0.0
  0
LINE
  5
1022B
330
1F
100
AcDbEntity
  8
0
100
AcDbLine
 10
10.000000000000014
 20
939.2563915472422
 30
0.0
 11
10.000000000000085
 21
933.2063915472422
 31
0.0
  0
LINE
  5
1022C
330
1F
100
AcDbEntity
  8
0
100
AcDbLine
 10
10.000000000000085
 20
933.2063915472422
 30
0.0
 11
15.047292516638336
 21
933.2063915472422
 31
0.0
  0
ARC
  5
1022D
330
1F
100
AcDbEntity
  8
0
100
AcDbCircle
 10
18.53275425883156
 20
931.2313915472422
 30
0.0
 40
4.006128874149288
100
AcDbArc
 50
-150.46239967471266
 51
150.46239967471266
  0
LINE
  5
1022E
330
1F
100
AcDbEntity
  8
0
100
AcDbLine
 10
15.047292516638336
 20
929.2563915472423
 30
0.0
 11
10.000000000000085
 21
929.2563915472423
 31
0.0
  0
LINE
  5
1022F
330
1F
100
AcDbEntity
  8
0
100
AcDbLine
 10
10.000000000000085
 20
929.2563915472423
 30
0.0
 11
10.000000000000085
 21
923.2063915472422
 31
0.0
  0
LINE
  5
10230
330
1F
100
AcDbEntity
  8
0
100
AcDbLine
 10
10.000000000000085
 20
923.2063915472422
 30
0.0
 11
12.057754258831551
 21
923.2063915472422
 31
0.0
  0
LINE
  5
10231
330
1F
100
AcDbEntity
  8
0
100
AcDbLine
 10
12.057754258831551
 20
923.2063915472422
 30
0.0
 11
12.057754258831551
 21
926.2063915472422
 31
0.0
  0
LINE
  5
10232
330
1F
100
AcDbEntity
  8
0
100
AcDbLine
 10
12.057754258831551
 20
926.2063915472422
 30
0.0
 11
14.007754258831625
 21
926.2063915472422
 31
0.0
  0
LINE
  5
10233
330
1F
100
AcDbEntity
  8
0
100
AcDbLine
 10
14.007754258831625
 20
926.2063915472422
 30
0.0
 11
14.007754258831625
 21
923.2063915472422
 31
0.0
  0
LINE
  5
10234
330
1F
100
AcDbEntity
  8
0
100
AcDbLine
 10
14.007754258831625
 20
923.2063915472422
 30
0.0
 11
202.69056992283802
 21
923.2063915472424
 31
0.0
  0
ARC
  5
10235
330
1F
100
AcDbEntity
  8
0
100
AcDbCircle
 10
202.6905699228376
 20
439.1197915472422
 30
0.0
 40
484.08660000000026
100
AcDbArc
 50
85.25887380507747
 51
89.99999999999997
  0
LINE
  5
10236
330
1F
100
AcDbEntity
  8
0
100
AcDbLine
 10
242.70219663044026
 20
921.5500000000003
 30
0.0
 11
242.7021966304401
 21
927.5787067398427
 31
0.0
  0
LINE
  5
10237
330
1F
100
AcDbEntity
  8
0
100
AcDbLine
 10
242.7021966304401
 20
927.5787067398427
 30
0.0
 11
247.66271851218315
 21
927.5787067398427
 31
0.0
  0
ARC
  5
10238
330
1F
100
AcDbEntity
  8
0
100
AcDbCircle
 10
251.17719663044022
 20
929.6037067398427
 30
0.0
 40
4.056128874149339
100
AcDbArc
 50
-150.04997141978637
 51
150.04997141978697
  0
LINE
  5
10239
330
1F
100
AcDbEntity
  8
0
100
AcDbLine
 10
247.66271851218315
 20
931.6287067398428
 30
0.0
 11
242.7021966304401
 21
931.6287067398428
 31
0.0
  0
LINE
  5
1023A
330
1F
100
AcDbEntity
  8
0
100
AcDbLine
 10
242.7021966304401
 20
931.6287067398428
 30
0.0
 11
242.7021966304401
 21
937.6533294238544
 31
0.0
  0
ARC
  5
1023B
330
1F
100
AcDbEntity
  8
0
100
AcDbCircle
 10
202.6905699228376
 20
439.1197915472422
 30
0.0
 40
500.1366000000001
100
AcDbArc
 50
85.41135396270694
 51
87.72579245823889
  0
LINE
  5
1023C
330
1F
100
AcDbEntity
  8
0
100
AcDbLine
 10
234.70219663044014
 20
933.5787067398427
 30
0.0
 11
236.65219663044022
 21
933.5787067398427
 31
0.0
  0
LINE
  5
1023D
330
1F
100
AcDbEntity
  8
0
100
AcDbLine
 10
236.65219663044022
 20
933.5787067398427
 30
0.0
 11
236.65219663044022
 21
925.6287067398426
 31
0.0
  0
LINE
  5
1023E
330
1F
100
AcDbEntity
  8
0
100
AcDbLine
 10
236.65219663044022
 20
925.6287067398426
 30
0.0
 11
234.70219663044014
 21
925.6287067398426
 31
0.0
  0
LINE
  5
1023F
330
1F
100
AcDbEntity
  8
0
100
AcDbLine
 10
234.70219663044014
 20
925.6287067398426
 30
0.0
 11
234.70219663044014
 21
933.5787067398427
 31
0.0
  0
CIRCLE
  5
10240
330
1F
100
AcDbEntity
  8
0
100
AcDbCircle
 10
110.57701723565998
 20
1027.2813915472423
 30
0.0
 40
3.9749999999999863
  0
LINE
  5
10241
330
1F
100
AcDbEntity
  8
0
100
AcDbLine
 10
178.7166661650573
 20
1031.2563915472422
 30
0.0
 11
180.66666616505734
 21
1031.2563915472422
 31
0.0
  0
LINE
  5
10242
330
1F
100
AcDbEntity
  8
0
100
AcDbLine
 10
180.66666616505734
 20
1031.2563915472422
 30
0.0
 11
180.66666616505734
 21
1023.3063915472422
 31
0.0
  0
LINE
  5
10243
330
1F
100
AcDbEntity
  8
0
100
AcDbLine
 10
180.66666616505734
 20
1023.3063915472422
 30
0.0
 11
178.7166661650573
 21
1023.3063915472422
 31
0.0
  0
LINE
  5
10244
330
1F
100
AcDbEntity
  8
0
100
AcDbLine
 10
178.7166661650573
 20
1023.3063915472422
 30
0.0
 11
178.7166661650573
 21
1031.2563915472422
 31
0.0
  0
LINE
  5
10245
330
1F
100
AcDbEntity
  8
0
100
AcDbLine
 10
15.03953825780681
 20
1024.8387581326785
 30
0.0
 11
10.0
 21
1024.8387581326785
 31
0.0
  0
LINE
  5
10246
330
1F
100
AcDbEntity
  8
0
100
AcDbLine
 10
10.0
 20
1024.8387581326785
 30
0.0
 11
10.0
 21
1019.2563915472423
 31
0.0
  0
LINE
  5
10247
330
1F
100
AcDbEntity
  8
0
100
AcDbLine
 10
10.0
 20
1019.2563915472423
 30
0.0
 11
12.050000000000011
 21
1019.2563915472423
 31
0.0
  0
LINE
  5
10248
330
1F
100
AcDbEntity
  8
0
100
AcDbLine
 10
12.050000000000011
 20
1019.2563915472423
 30
0.0
 11
12.050000000000011
 21
1021.7887581326785
 31
0.0
  0
LINE
  5
10249
330
1F
100
AcDbEntity
  8
0
100
AcDbLine
 10
12.050000000000011
 20
1021.7887581326785
 30
0.0
 11
13.999999999999986
 21
1021.7887581326785
 31
0.0
  0
LINE
  5
1024A
330
1F
100
AcDbEntity
  8
0
100
AcDbLine
 10
13.999999999999986
 20
1021.7887581326785
 30
0.0
 11
13.999999999999986
 21
1019.2563915472423
 31
0.0
  0
LINE
  5
1024B
330
1F
100
AcDbEntity
  8
0
100
AcDbLine
 10
13.999999999999986
 20
1019.2563915472423
 30
0.0
 11
186.70891190622584
 21
1019.2563915472423
 31
0.0
  0
LINE
  5
1024C
330
1F
100
AcDbEntity
  8
0
100
AcDbLine
 10
186.70891190622584
 20
1019.2563915472423
 30
0.0
 11
186.70891190622584
 21
1025.2563915472422
 31
0.0
  0
LINE
  5
1024D
330
1F
100
AcDbEntity
  8
0
100
AcDbLine
 10
186.70891190622584
 20
1025.2563915472422
 30
0.0
 11
191.67718804680027
 21
1025.2563915472422
 31
0.0
  0
ARC
  5
1024E
330
1F
100
AcDbEntity
  8
0
100
AcDbCircle
 10
195.19166616505737
 20
1027.2813915472423
 30
0.0
 40
4.056128874149321
100
AcDbArc
 50
-150.0499714197868
 51
150.0499714197868
  0
LINE
  5
1024F
330
1F
100
AcDbEntity
  8
0
100
AcDbLine
 10
191.67718804680027
 20
1029.3063915472424
 30
0.0
 11
186.70891190622584
 21
1029.3063915472424
 31
0.0
  0
LINE
  5
10250
330
1F
100
AcDbEntity
  8
0
100
AcDbLine
 10
186.70891190622584
 20
1029.3063915472424
 30
0.0
 11
186.70891190622575
 21
1035.3063915472424
 31
0.0
  0
LINE
  5
10251
330
1F
100
AcDbEntity
  8
0
100
AcDbLine
 10
186.70891190622575
 20
1035.3063915472424
 30
0.0
 11
13.999999999999986
 21
1035.3063915472424
 31
0.0
  0
LINE
  5
10252
330
1F
100
AcDbEntity
  8
0
100
AcDbLine
 10
13.999999999999986
 20
1035.3063915472424
 30
0.0
 11
13.999999999999986
 21
1031.8387581326785
 31
0.0
  0
LINE
  5
10253
330
1F
100
AcDbEntity
  8
0
100
AcDbLine
 10
13.999999999999986
 20
1031.8387581326785
 30
0.0
 11
12.050000000000011
 21
1031.8387581326785
 31
0.0
  0
LINE
  5
10254
330
1F
100
AcDbEntity
  8
0
100
AcDbLine
 10
12.050000000000011
 20
1031.8387581326785
 30
0.0
 11
12.050000000000011
 21
1035.3063915472424
 31
0.0
  0
LINE
  5
10255
330
1F
100
AcDbEntity
  8
0
100
AcDbLine
 10
12.050000000000011
 20
1035.3063915472424
 30
0.0
 11
10.0
 21
1035.3063915472424
 31
0.0
  0
LINE
  5
10256
330
1F
100
AcDbEntity
  8
0
100
AcDbLine
 10
10.0
 20
1035.3063915472424
 30
0.0
 11
10.0
 21
1028.7887581326784
 31
0.0
  0
LINE
  5
10257
330
1F
100
AcDbEntity
  8
0
100
AcDbLine
 10
10.0
 20
1028.7887581326784
 30
0.0
 11
15.03953825780681
 21
1028.7887581326784
 31
0.0
  0
ARC
  5
10258
330
1F
100
AcDbEntity
  8
0
100
AcDbCircle
 10
18.525000000000034
 20
1026.8137581326785
 30
0.0
 40
4.006128874149288
100
AcDbArc
 50
-150.46239967471266
 51
150.46239967471274
  0
LINE
  5
10259
330
1F
100
AcDbEntity
  8
0
100
AcDbLine
 10
50.725539387212876
 20
1124.4371235435665
 30
0.0
 11
50.725539387212876
 21
1120.4869149688593
 31
0.0
  0
LINE
  5
1025A
330
1F
100
AcDbEntity
  8
0
100
AcDbLine
 10
50.725539387212876
 20
1120.4869149688593
 30
0.0
 11
50.66410193632363
 21
1120.4875463421306
 31
0.0
  0
LINE
  5
1025B
330
1F
100
AcDbEntity
  8
0
100
AcDbLine
 10
50.66410193632363
 20
1120.4875463421306
 30
0.0
 11
50.70469269494963
 21
1124.4373377784364
 31
0.0
  0
LINE
  5
1025C
330
1F
100
AcDbEntity
  8
0
100
AcDbLine
 10
50.70469269494963
 20
1124.4373377784364
 30
0.0
 11
50.725539387212876
 21
1124.4371235435665
 31
0.0
  0
LINE
  5
1025D
330
1F
100
AcDbEntity
  8
0
100
AcDbLine
 10
42.725667385280275
 20
1126.5194413079603
 30
0.0
 11
44.675564423456535
 21
1126.4994028321828
 31
0.0
  0
LINE
  5
1025E
330
1F
100
AcDbEntity
  8
0
100
AcDbLine
 10
44.675564423456535
 20
1126.4994028321828
 30
0.0
 11
44.593869099133315
 21
1118.5498225996182
 31
0.0
  0
LINE
  5
1025F
330
1F
100
AcDbEntity
  8
0
100
AcDbLine
 10
44.593869099133315
 20
1118.5498225996182
 30
0.0
 11
42.643972060957054
 21
1118.5698610753955
 31
0.0
  0
LINE
  5
10260
330
1F
100
AcDbEntity
  8
0
100
AcDbLine
 10
42.643972060957054
 20
1118.5698610753955
 30
0.0
 11
42.725667385280275
 21
1126.5194413079603
 31
0.0
  0
LINE
  5
10261
330
1F
100
AcDbEntity
  8
0
100
AcDbLine
 10
194.108919705226
 20
1126.8387581326783
 30
0.0
 11
196.05891970522595
 21
1126.8387581326783
 31
0.0
  0
LINE
  5
10262
330
1F
100
AcDbEntity
  8
0
100
AcDbLine
 10
196.05891970522595
 20
1126.8387581326783
 30
0.0
 11
196.05891970522595
 21
1118.8887581326785
 31
0.0
  0
LINE
  5
10263
330
1F
100
AcDbEntity
  8
0
100
AcDbLine
 10
196.05891970522595
 20
1118.8887581326785
 30
0.0
 11
194.108919705226
 21
1118.8887581326785
 31
0.0
  0
LINE
  5
10264
330
1F
100
AcDbEntity
  8
0
100
AcDbLine
 10
194.108919705226
 20
1118.8887581326785
 30
0.0
 11
194.108919705226
 21
1126.8387581326783
 31
0.0
  0
LINE
  5
10265
330
1F
100
AcDbEntity
  8
0
100
AcDbLine
 10
52.73592932442325
 20
1127.4666244527352
 30
0.0
 11
52.775903231853704
 21
1131.3563915472423
 31
0.0
  0
LINE
  5
10266
330
1F
100
AcDbEntity
  8
0
100
AcDbLine
 10
52.775903231853704
 20
1131.3563915472423
 30
0.0
 11
10.0
 21
1131.3563915472423
 31
0.0
  0
LINE
  5
10267
330
1F
100
AcDbEntity
  8
0
100
AcDbLine
 10
10.0
 20
1131.3563915472423
 30
0.0
 11
10.0
 21
1115.3063915472421
 31
0.0
  0
LINE
  5
10268
330
1F
100
AcDbEntity
  8
0
100
AcDbLine
 10
10.0
 20
1115.3063915472421
 30
0.0
 11
52.61096245296626
 21
1115.3063915472421
 31
0.0
  0
LINE
  5
10269
330
1F
100
AcDbEntity
  8
0
100
AcDbLine
 10
52.61096245296626
 20
1115.3063915472421
 30
0.0
 11
52.63265410310903
 21
1117.4171551021345
 31
0.0
  0
LINE
  5
1026A
330
1F
100
AcDbEntity
  8
0
100
AcDbLine
 10
52.63265410310903
 20
1117.4171551021345
 30
0.0
 11
54.58255114128525
 21
1117.397116626357
 31
0.0
  0
LINE
  5
1026B
330
1F
100
AcDbEntity
  8
0
100
AcDbLine
 10
54.58255114128525
 20
1117.397116626357
 30
0.0
 11
54.56106542022677
 21
1115.3063915472421
 31
0.0
  0
LINE
  5
1026C
330
1F
100
AcDbEntity
  8
0
100
AcDbLine
 10
54.56106542022677
 20
1115.3063915472421
 30
0.0
 11
202.10891970522601
 21
1115.3063915472421
 31
0.0
  0
LINE
  5
1026D
330
1F
100
AcDbEntity
  8
0
100
AcDbLine
 10
202.10891970522601
 20
1115.3063915472421
 30
0.0
 11
202.10891970522601
 21
1120.8387581326783
 31
0.0
  0
LINE
  5
1026E
330
1F
100
AcDbEntity
  8
0
100
AcDbLine
 10
202.10891970522601
 20
1120.8387581326783
 30
0.0
 11
207.06944158696896
 21
1120.8387581326783
 31
0.0
  0
ARC
  5
1026F
330
1F
100
AcDbEntity
  8
0
100
AcDbCircle
 10
210.583919705226
 20
1122.8637581326784
 30
0.0
 40
4.0561288741492945
100
AcDbArc
 50
-150.0499714197865
 51
150.04997141978657
  0
LINE
  5
10270
330
1F
100
AcDbEntity
  8
0
100
AcDbLine
 10
207.06944158696896
 20
1124.8887581326785
 30
0.0
 11
202.10891970522601
 21
1124.8887581326785
 31
0.0
  0
LINE
  5
10271
330
1F
100
AcDbEntity
  8
0
100
AcDbLine
 10
202.10891970522601
 20
1124.8887581326785
 30
0.0
 11
202.10891970522601
 21
1131.3563915472423
 31
0.0
  0
LINE
  5
10272
330
1F
100
AcDbEntity
  8
0
100
AcDbLine
 10
202.10891970522601
 20
1131.3563915472423
 30
0.0
 11
54.72600619911421
 21
1131.3563915472423
 31
0.0
  0
LINE
  5
10273
330
1F
100
AcDbEntity
  8
0
100
AcDbLine
 10
54.72600619911421
 20
1131.3563915472423
 30
0.0
 11
54.685826362599485
 21
1127.4465859769577
 31
0.0
  0
LINE
  5
10274
330
1F
100
AcDbEntity
  8
0
100
AcDbLine
 10
54.685826362599485
 20
1127.4465859769577
 30
0.0
 11
52.73592932442325
 21
1127.4666244527352
 31
0.0
  0
LINE
  5
10275
330
1F
100
AcDbEntity
  8
0
100
AcDbLine
 10
205.9114322740163
 20
1242.2989631288594
 30
0.0
 11
205.9114322740163
 21
1250.2489631288595
 31
0.0
  0
LINE
  5
10276
330
1F
100
AcDbEntity
  8
0
100
AcDbLine
 10
205.9114322740163
 20
1250.2489631288595
 30
0.0
 11
207.86143227401635
 21
1250.2489631288595
 31
0.0
  0
LINE
  5
10277
330
1F
100
AcDbEntity
  8
0
100
AcDbLine
 10
207.86143227401635
 20
1250.2489631288595
 30
0.0
 11
207.86143227401635
 21
1242.2989631288594
 31
0.0
  0
LINE
  5
10278
330
1F
100
AcDbEntity
  8
0
100
AcDbLine
 10
207.86143227401635
 20
1242.2989631288594
 30
0.0
 11
205.9114322740163
 21
1242.2989631288594
 31
0.0
  0
LINE
  5
10279
330
1F
100
AcDbEntity
  8
0
100
AcDbLine
 10
213.90367801518485
 20
1248.2989631288594
 30
0.0
 11
213.90367801518485
 21
1253.9978481139924
 31
0.0
  0
LINE
  5
1027A
330
1F
100
AcDbEntity
  8
0
100
AcDbLine
 10
213.90367801518485
 20
1253.9978481139924
 30
0.0
 11
41.19476610895903
 21
1253.9978481139924
 31
0.0
  0
LINE
  5
1027B
330
1F
100
AcDbEntity
  8
0
100
AcDbLine
 10
41.19476610895903
 20
1253.9978481139924
 30
0.0
 11
41.19476610895903
 21
1250.9978481139924
 31
0.0
  0
LINE
  5
1027C
330
1F
100
AcDbEntity
  8
0
100
AcDbLine
 10
41.19476610895903
 20
1250.9978481139924
 30
0.0
 11
39.24476610895907
 21
1250.9978481139924
 31
0.0
  0
LINE
  5
1027D
330
1F
100
AcDbEntity
  8
0
100
AcDbLine
 10
39.24476610895907
 20
1250.9978481139924
 30
0.0
 11
39.24476610895907
 21
1253.9978481139924
 31
0.0
  0
LINE
  5
1027E
330
1F
100
AcDbEntity
  8
0
100
AcDbLine
 10
39.24476610895907
 20
1253.9978481139924
 30
0.0
 11
37.194766108959016
 21
1253.9978481139924
 31
0.0
  0
LINE
  5
1027F
330
1F
100
AcDbEntity
  8
0
100
AcDbLine
 10
37.194766108959016
 20
1253.9978481139924
 30
0.0
 11
37.194766108959016
 21
1247.9478481139924
 31
0.0
  0
LINE
  5
10280
330
1F
100
AcDbEntity
  8
0
100
AcDbLine
 10
37.194766108959016
 20
1247.9478481139924
 30
0.0
 11
42.234304366765855
 21
1247.9478481139924
 31
0.0
  0
ARC
  5
10281
330
1F
100
AcDbEntity
  8
0
100
AcDbCircle
 10
45.719766108959035
 20
1245.9728481139925
 30
0.0
 40
4.006128874149263
100
AcDbArc
 50
-150.46239967471223
 51
150.46239967471223
  0
LINE
  5
10282
330
1F
100
AcDbEntity
  8
0
100
AcDbLine
 10
42.234304366765855
 20
1243.9978481139924
 30
0.0
 11
37.194766108959016
 21
1243.9978481139924
 31
0.0
  0
LINE
  5
10283
330
1F
100
AcDbEntity
  8
0
100
AcDbLine
 10
37.194766108959016
 20
1243.9978481139924
 30
0.0
 11
37.194766108959016
 21
1237.9478481139924
 31
0.0
  0
LINE
  5
10284
330
1F
100
AcDbEntity
  8
0
100
AcDbLine
 10
37.194766108959016
 20
1237.9478481139924
 30
0.0
 11
39.24476610895907
 21
1237.9478481139924
 31
0.0
  0
LINE
  5
10285
330
1F
100
AcDbEntity
  8
0
100
AcDbLine
 10
39.24476610895907
 20
1237.9478481139924
 30
0.0
 11
39.24476610895907
 21
1240.9478481139924
 31
0.0
  0
LINE
  5
10286
330
1F
100
AcDbEntity
  8
0
100
AcDbLine
 10
39.24476610895907
 20
1240.9478481139924
 30
0.0
 11
41.19476610895903
 21
1240.9478481139924
 31
0.0
  0
LINE
  5
10287
330
1F
100
AcDbEntity
  8
0
100
AcDbLine
 10
41.19476610895903
 20
1240.9478481139924
 30
0.0
 11
41.19476610895903
 21
1228.7158477640542
 31
0.0
  0
LINE
  5
10288
330
1F
100
AcDbEntity
  8
0
100
AcDbLine
 10
41.19476610895903
 20
1228.7158477640542
 30
0.0
 11
39.24476610895907
 21
1228.7158477640542
 31
0.0
  0
LINE
  5
10289
330
1F
100
AcDbEntity
  8
0
100
AcDbLine
 10
39.24476610895907
 20
1228.7158477640542
 30
0.0
 11
39.24476610895907
 21
1232.3953843951058
 31
0.0
  0
LINE
  5
1028A
330
1F
100
AcDbEntity
  8
0
100
AcDbLine
 10
39.24476610895907
 20
1232.3953843951058
 30
0.0
 11
15.878478749684334
 21
1226.9949867706694
 31
0.0
  0
LINE
  5
1028B
330
1F
100
AcDbEntity
  8
0
100
AcDbLine
 10
15.878478749684334
 20
1226.9949867706694
 30
0.0
 11
17.27158190069295
 21
1220.9607940816636
 31
0.0
  0
LINE
  5
1028C
330
1F
100
AcDbEntity
  8
0
100
AcDbLine
 10
17.27158190069295
 20
1220.9607940816636
 30
0.0
 11
13.416752332374912
 21
1220.070836552132
 31
0.0
  0
SPLINE
  5
1028D
330
1F
100
AcDbEntity
  8
0
100
AcDbSpline
 70
0
 71
3
 72
23
 73
19
 74
0
 42
1e-09
 40
-1.041996670691471
 40
-1.041996670691471
 40
-1.041996670691471
 40
-1.041996670691471
 40
-0.09604925329746017
 40
-0.09604925329746017
 40
-0.09604925329746017
 40
0.8659371965477111
 40
0.8659371965477111
 40
0.8659371965477111
 40
2.0072920226403683
 40
2.0072920226403683
 40
2.0072920226403683
 40
3.003071923304673
 40
3.003071923304673
 40
3.003071923304673
 40
3.964764478250147
 40
3.964764478250147
 40
3.964764478250147
 40
4.1835893242814155
 40
4.1835893242814155
 40
4.1835893242814155
 40
4.1835893242814155
 10
13.416752332374912
 20
1220.070836552132
 30
0.0
 10
12.859538902306852
 20
1221.0643530614145
 30
0.0
 10
12.110823728214754
 20
1221.6754440265115
 30
0.0
 10
11.456645678812961
 20
1221.6515333245763
 30
0.0
 10
10.791375698961062
 20
1221.6272172042031
 30
0.0
 10
10.260467779331307
 20
1220.9420270037795
 30
0.0
 10
10.074343315413813
 20
1219.8908354886448
 30
0.0
 10
9.853514783805778
 20
1218.6436427562112
 30
0.0
 10
10.1321738706704
 20
1216.9137758614118
 30
0.0
 10
10.758266485037765
 20
1215.6374353551214
 30
0.0
 10
11.30450366482502
 20
1214.5238866203088
 30
0.0
 10
12.089744747421335
 20
1213.788074864972
 30
0.0
 10
12.787309832785695
 20
1213.7566436858342
 30
0.0
 10
13.46099600453637
 20
1213.7262884527654
 30
0.0
 10
14.017118676716706
 20
1214.358522549505
 30
0.0
 10
14.23159221327846
 20
1215.3787686969988
 30
0.0
 10
14.280393816633492
 20
1215.6109169079746
 30
0.0
 10
14.312696822198163
 20
1215.8615010554606
 30
0.0
 10
14.327804102464427
 20
1216.1246377897512
 30
0.0
  0
LINE
  5
1028E
330
1F
100
AcDbEntity
  8
0
100
AcDbLine
 10
14.327804102464427
 20
1216.1246377897512
 30
0.0
 11
18.182633670782437
 21
1217.0145953192828
 31
0.0
  0
LINE
  5
1028F
330
1F
100
AcDbEntity
  8
0
100
AcDbLine
 10
18.182633670782437
 20
1217.0145953192828
 30
0.0
 11
19.488932940648326
 21
1211.356391547242
 31
0.0
  0
LINE
  5
10290
330
1F
100
AcDbEntity
  8
0
100
AcDbLine
 10
19.488932940648326
 20
1211.356391547242
 30
0.0
 11
39.24476610895907
 21
1215.9223438900547
 31
0.0
  0
LINE
  5
10291
330
1F
100
AcDbEntity
  8
0
100
AcDbLine
 10
39.24476610895907
 20
1215.9223438900547
 30
0.0
 11
39.24476610895907
 21
1218.6658477640542
 31
0.0
  0
LINE
  5
10292
330
1F
100
AcDbEntity
  8
0
100
AcDbLine
 10
39.24476610895907
 20
1218.6658477640542
 30
0.0
 11
41.19476610895903
 21
1218.6658477640542
 31
0.0
  0
LINE
  5
10293
330
1F
100
AcDbEntity
  8
0
100
AcDbLine
 10
41.19476610895903
 20
1218.6658477640542
 30
0.0
 11
41.19476610895903
 21
1216.3730263286352
 31
0.0
  0
LINE
  5
10294
330
1F
100
AcDbEntity
  8
0
100
AcDbLine
 10
41.19476610895903
 20
1216.3730263286352
 30
0.0
 11
78.5922076809681
 21
1225.0162930795818
 31
0.0
  0
LINE
  5
10295
330
1F
100
AcDbEntity
  8
0
100
AcDbLine
 10
78.5922076809681
 20
1225.0162930795818
 30
0.0
 11
81.37676162100375
 21
1225.655073422112
 31
0.0
  0
LINE
  5
10296
330
1F
100
AcDbEntity
  8
0
100
AcDbLine
 10
81.37676162100375
 20
1225.655073422112
 30
0.0
 11
81.37571980947064
 21
1225.6595810607378
 31
0.0
  0
ARC
  5
10297
330
1F
100
AcDbEntity
  8
0
100
AcDbCircle
 10
189.84424793802225
 20
756.2299481139925
 30
0.0
 40
481.79830000000044
100
AcDbArc
 50
91.04674058326505
 51
103.01067859015787
  0
LINE
  5
10298
330
1F
100
AcDbEntity
  8
0
100
AcDbLine
 10
181.04273088242059
 20
1237.947848113993
 30
0.0
 11
189.84424793802225
 21
1237.9478481139924
 31
0.0
  0
ARC
  5
10299
330
1F
100
AcDbEntity
  8
0
100
AcDbCircle
 10
189.84424793802225
 20
1734.1791481139926
 30
0.0
 40
496.2313
100
AcDbArc
 50
-90.00000000000001
 51
-87.22096438848116
  0
LINE
  5
1029A
330
1F
100
AcDbEntity
  8
0
100
AcDbLine
 10
213.90367801518485
 20
1238.531443666517
 30
0.0
 11
213.90367801518485
 21
1244.2489631288595
 31
0.0
  0
LINE
  5
1029B
330
1F
100
AcDbEntity
  8
0
100
AcDbLine
 10
213.90367801518485
 20
1244.2489631288595
 30
0.0
 11
218.87195415575928
 21
1244.2489631288595
 31
0.0
  0
ARC
  5
1029C
330
1F
100
AcDbEntity
  8
0
100
AcDbCircle
 10
222.38643227401639
 20
1246.2739631288594
 30
0.0
 40
4.056128874149317
100
AcDbArc
 50
-150.0499714197869
 51
150.04997141978708
  0
LINE
  5
1029D
330
1F
100
AcDbEntity
  8
0
100
AcDbLine
 10
218.87195415575928
 20
1248.2989631288594
 30
0.0
 11
213.90367801518485
 21
1248.2989631288594
 31
0.0
  0
CIRCLE
  5
1029E
330
1F
100
AcDbEntity
  8
0
100
AcDbCircle
 10
136.65525052602948
 20
1342.0228481139923
 30
0.0
 40
3.9749999999999863
  0
LINE
  5
1029F
330
1F
100
AcDbEntity
  8
0
100
AcDbLine
 10
28.092137852923585
 20
1345.9978481139922
 30
0.0
 11
30.042137852923588
 21
1345.9978481139922
 31
0.0
  0
LINE
  5
102A0
330
1F
100
AcDbEntity
  8
0
100
AcDbLine
 10
30.042137852923588
 20
1345.9978481139922
 30
0.0
 11
30.042137852923588
 21
1338.0478481139924
 31
0.0
  0
LINE
  5
102A1
330
1F
100
AcDbEntity
  8
0
100
AcDbLine
 10
30.042137852923588
 20
1338.0478481139924
 30
0.0
 11
28.092137852923585
 21
1338.0478481139924
 31
0.0
  0
LINE
  5
102A2
330
1F
100
AcDbEntity
  8
0
100
AcDbLine
 10
28.092137852923585
 20
1338.0478481139924
 30
0.0
 11
28.092137852923585
 21
1345.9978481139922
 31
0.0
  0
LINE
  5
102A3
330
1F
100
AcDbEntity
  8
0
100
AcDbLine
 10
179.42551817093675
 20
1345.9978481139922
 30
0.0
 11
181.37551817093674
 21
1345.9978481139922
 31
0.0
  0
LINE
  5
102A4
330
1F
100
AcDbEntity
  8
0
100
AcDbLine
 10
181.37551817093674
 20
1345.9978481139922
 30
0.0
 11
181.37551817093674
 21
1338.0478481139924
 31
0.0
  0
LINE
  5
102A5
330
1F
100
AcDbEntity
  8
0
100
AcDbLine
 10
181.37551817093674
 20
1338.0478481139924
 30
0.0
 11
179.42551817093675
 21
1338.0478481139924
 31
0.0
  0
LINE
  5
102A6
330
1F
100
AcDbEntity
  8
0
100
AcDbLine
 10
179.42551817093675
 20
1338.0478481139924
 30
0.0
 11
179.42551817093675
 21
1345.9978481139922
 31
0.0
  0
LINE
  5
102A7
330
1F
100
AcDbEntity
  8
0
100
AcDbLine
 10
40.042137852923574
 20
1336.9978481139922
 30
0.0
 11
40.042137852923574
 21
1333.9978481139924
 31
0.0
  0
LINE
  5
102A8
330
1F
100
AcDbEntity
  8
0
100
AcDbLine
 10
40.042137852923574
 20
1333.9978481139924
 30
0.0
 11
187.4255181709367
 21
1333.9978481139924
 31
0.0
  0
LINE
  5
102A9
330
1F
100
AcDbEntity
  8
0
100
AcDbLine
 10
187.4255181709367
 20
1333.9978481139924
 30
0.0
 11
187.4255181709367
 21
1339.9978481139922
 31
0.0
  0
LINE
  5
102AA
330
1F
100
AcDbEntity
  8
0
100
AcDbLine
 10
187.4255181709367
 20
1339.9978481139922
 30
0.0
 11
192.3860400526797
 21
1339.9978481139922
 31
0.0
  0
ARC
  5
102AB
330
1F
100
AcDbEntity
  8
0
100
AcDbCircle
 10
195.90051817093672
 20
1342.0228481139923
 30
0.0
 40
4.056128874149255
100
AcDbArc
 50
-150.04997141978652
 51
150.04997141978635
  0
LINE
  5
102AC
330
1F
100
AcDbEntity
  8
0
100
AcDbLine
 10
192.3860400526797
 20
1344.0478481139924
 30
0.0
 11
187.4255181709367
 21
1344.0478481139924
 31
0.0
  0
LINE
  5
102AD
330
1F
100
AcDbEntity
  8
0
100
AcDbLine
 10
187.4255181709367
 20
1344.0478481139924
 30
0.0
 11
187.4255181709367
 21
1350.0478481139921
 31
0.0
  0
LINE
  5
102AE
330
1F
100
AcDbEntity
  8
0
100
AcDbLine
 10
187.4255181709367
 20
1350.0478481139921
 30
0.0
 11
40.042137852923574
 21
1350.0478481139921
 31
0.0
  0
LINE
  5
102AF
330
1F
100
AcDbEntity
  8
0
100
AcDbLine
 10
40.042137852923574
 20
1350.0478481139921
 30
0.0
 11
40.042137852923574
 21
1347.0478481139924
 31
0.0
  0
LINE
  5
102B0
330
1F
100
AcDbEntity
  8
0
100
AcDbLine
 10
40.042137852923574
 20
1347.0478481139924
 30
0.0
 11
38.09213785292357
 21
1347.0478481139924
 31
0.0
  0
LINE
  5
102B1
330
1F
100
AcDbEntity
  8
0
100
AcDbLine
 10
38.09213785292357
 20
1347.0478481139924
 30
0.0
 11
38.09213785292357
 21
1350.0478481139921
 31
0.0
  0
LINE
  5
102B2
330
1F
100
AcDbEntity
  8
0
100
AcDbLine
 10
38.09213785292357
 20
1350.0478481139921
 30
0.0
 11
10.0
 21
1350.0478481139921
 31
0.0
  0
LINE
  5
102B3
330
1F
100
AcDbEntity
  8
0
100
AcDbLine
 10
10.0
 20
1350.0478481139921
 30
0.0
 11
10.0
 21
1333.9978481139924
 31
0.0
  0
LINE
  5
102B4
330
1F
100
AcDbEntity
  8
0
100
AcDbLine
 10
10.0
 20
1333.9978481139924
 30
0.0
 11
38.09213785292357
 21
1333.9978481139924
 31
0.0
  0
LINE
  5
102B5
330
1F
100
AcDbEntity
  8
0
100
AcDbLine
 10
38.09213785292357
 20
1333.9978481139924
 30
0.0
 11
38.09213785292357
 21
1336.9978481139922
 31
0.0
  0
LINE
  5
102B6
330
1F
100
AcDbEntity
  8
0
100
AcDbLine
 10
38.09213785292357
 20
1336.9978481139922
 30
0.0
 11
40.042137852923574
 21
1336.9978481139922
 31
0.0
  0
ENDSEC
  0
SECTION
  2
OBJECTS
  0
DICTIONARY
  5
C
330
None
100
AcDbDictionary
281
1
  3
ACAD_GROUP
350
D
  3
ACAD_MLINESTYLE
350
17
  3
ACAD_COLOR
350
1005A
  3
ACAD_LAYOUT
350
1005B
  3
ACAD_MATERIAL
350
1005C
  3
ACAD_MLEADERSTYLE
350
1005D
  3
ACAD_PLOTSETTINGS
350
1005E
  3
ACAD_PLOTSTYLENAME
350
1005F
  3
ACAD_SCALELIST
350
10061
  3
ACAD_TABLESTYLE
350
10062
  3
ACAD_VISUALSTYLE
350
10063
  0
DICTIONARY
  5
D
330
None
100
AcDbDictionary
281
1
  0
DICTIONARY
  5
1A
330
C
100
AcDbDictionary
281
1
  0
DICTIONARY
  5
17
330
None
100
AcDbDictionary
281
1
  3
Standard
350
10069
  0
DICTIONARY
  5
1005A
330
C
100
AcDbDictionary
281
1
  0
DICTIONARY
  5
1005B
330
C
100
AcDbDictionary
281
1
  3
Model
350
10064
  3
Layout1
350
10065
  0
DICTIONARY
  5
1005C
330
C
100
AcDbDictionary
281
1
  3
ByBlock
350
10066
  3
ByLayer
350
10067
  3
Global
350
10068
  0
DICTIONARY
  5
1005D
330
C
100
AcDbDictionary
281
1
  3
Standard
350
1006E
  0
DICTIONARY
  5
1005E
330
C
100
AcDbDictionary
281
1
  0
ACDBDICTIONARYWDFLT
  5
1005F
330
C
100
AcDbDictionary
281
1
  3
Normal
350
10060
100
AcDbDictionaryWithDefault
340
10060
  0
ACDBPLACEHOLDER
  5
10060
330
1005F
  0
DICTIONARY
  5
10061
330
C
100
AcDbDictionary
281
1
  0
DICTIONARY
  5
10062
330
C
100
AcDbDictionary
281
1
  0
DICTIONARY
  5
10063
330
C
100
AcDbDictionary
281
1
  0
LAYOUT
  5
10064
330
1005B
100
AcDbPlotSettings
  1

  2
Adobe PDF
  4
A4
  6

 40
3.175
 41
3.175
 42
3.175
 43
3.175
 44
209.91
 45
297.03
 46
0.0
 47
0.0
 48
0.0
 49
0.0
140
0.0
141
0.0
142
1.0
143
1.0
 70
1024
 72
0
 73
1
 74
5
  7

 75
16
 76
0
 77
2
 78
300
147
1.0
148
0.0
149
0.0
100
AcDbLayout
  1
Model
 70
1
 71
0
 10
-3.175
 20
-3.175
 11
293.857
 21
206.735
 12
0.0
 22
0.0
 32
0.0
 14
29.068
 24
20.356
 34
0.0
 15
261.614
 25
183.204
 35
0.0
146
0.0
 13
0.0
 23
0.0
 33
0.0
 16
1.0
 26
0.0
 36
0.0
 17
0.0
 27
1.0
 37
0.0
 76
1
330
1F
  0
LAYOUT
  5
10065
330
1005B
100
AcDbPlotSettings
  1

  2
Adobe PDF
  4
A4
  6

 40
3.175
 41
3.175
 42
3.175
 43
3.175
 44
209.91
 45
297.03
 46
0.0
 47
0.0
 48
0.0
 49
0.0
140
0.0
141
0.0
142
1.0
143
1.0
 70
0
 72
0
 73
1
 74
5
  7

 75
16
 76
0
 77
2
 78
300
147
1.0
148
0.0
149
0.0
100
AcDbLayout
  1
Layout1
 70
1
 71
1
 10
-3.175
 20
-3.175
 11
293.857
 21
206.735
 12
0.0
 22
0.0
 32
0.0
 14
29.068
 24
20.356
 34
0.0
 15
261.614
 25
183.204
 35
0.0
146
0.0
 13
0.0
 23
0.0
 33
0.0
 16
1.0
 26
0.0
 36
0.0
 17
0.0
 27
1.0
 37
0.0
 76
1
330
1B
  0
MATERIAL
  5
10066
102
{ACAD_REACTORS
330
1005C
102
}
330
1005C
100
AcDbMaterial
  1
ByBlock
  2

 70
0
 40
1.0
 71
1
 41
1.0
 91
-1023410177
 42
1.0
 72
1
  3

 73
1
 74
1
 75
1
 44
0.5
 73
0
 45
1.0
 46
1.0
 77
1
  4

 78
1
 79
1
170
1
 48
1.0
171
1
  6

172
1
173
1
174
1
140
1.0
141
1.0
175
1
  7

176
1
177
1
178
1
143
1.0
179
1
  8

270
1
271
1
272
1
145
1.0
146
1.0
273
1
  9

274
1
275
1
276
1
 42
1.0
 72
1
  3

 73
1
 74
1
 75
1
 94
63
  0
MATERIAL
  5
10067
102
{ACAD_REACTORS
330
1005C
102
}
330
1005C
100
AcDbMaterial
  1
ByLayer
  2

 70
0
 40
1.0
 71
1
 41
1.0
 91
-1023410177
 42
1.0
 72
1
  3

 73
1
 74
1
 75
1
 44
0.5
 73
0
 45
1.0
 46
1.0
 77
1
  4

 78
1
 79
1
170
1
 48
1.0
171
1
  6

172
1
173
1
174
1
140
1.0
141
1.0
175
1
  7

176
1
177
1
178
1
143
1.0
179
1
  8

270
1
271
1
272
1
145
1.0
146
1.0
273
1
  9

274
1
275
1
276
1
 42
1.0
 72
1
  3

 73
1
 74
1
 75
1
 94
63
  0
MATERIAL
  5
10068
102
{ACAD_REACTORS
330
1005C
102
}
330
1005C
100
AcDbMaterial
  1
Global
  2

 70
0
 40
1.0
 71
1
 41
1.0
 91
-1023410177
 42
1.0
 72
1
  3

 73
1
 74
1
 75
1
 44
0.5
 73
0
 45
1.0
 46
1.0
 77
1
  4

 78
1
 79
1
170
1
 48
1.0
171
1
  6

172
1
173
1
174
1
140
1.0
141
1.0
175
1
  7

176
1
177
1
178
1
143
1.0
179
1
  8

270
1
271
1
272
1
145
1.0
146
1.0
273
1
  9

274
1
275
1
276
1
 42
1.0
 72
1
  3

 73
1
 74
1
 75
1
 94
63
  0
MLINESTYLE
  5
10069
102
{ACAD_REACTORS
330
17
102
}
330
17
100
AcDbMlineStyle
  2
Standard
 70
0
  3

 62
256
 51
90.0
 52
90.0
 71
2
 49
0.5
 62
256
  6
BYLAYER
 49
-0.5
 62
256
  6
BYLAYER
  0
MLEADERSTYLE
  5
1006E
102
{ACAD_REACTORS
330
1005D
102
}
330
1005D
100
AcDbMLeaderStyle
179
2
170
2
171
1
172
0
 90
2
 40
0.0
 41
0.0
173
1
 91
-1056964608
 92
-2
290
1
 42
2.0
291
1
 43
8.0
  3
Standard
 44
4.0
300

342
11
174
1
175
1
176
0
178
1
 93
-1056964608
 45
4.0
292
0
297
0
 46
4.0
 94
-1056964608
 47
1.0
 49
1.0
140
1.0
294
1
141
0.0
177
0
142
1.0
295
0
296
0
143
3.75
271
0
272
9
273
9
  0
ENDSEC
  0
EOF
