0
SECTION
2
HEADER
9
$INSUNITS
70
4
9
$ACADVER
1
AC1014
9
$HANDSEED
5
FFFF
0
ENDSEC
0
SECTION
2
TABLES
0
TABLE
2
VPORT
5
8
100
AcDbSymbolTable
0
ENDTAB
0
TABLE
2
LTYPE
5
5
100
AcDbSymbolTable
0
LTYPE
5
14
100
AcDbSymbolTableRecord
100
AcDbLinetypeTableRecord
2
BYBLOCK
70
0
0
LTYPE
5
15
100
AcDbSymbolTableRecord
100
AcDbLinetypeTableRecord
2
BYLAYER
70
0
0
ENDTAB
0
TABLE
2
LAYER
5
2
100
AcDbSymbolTable
70
2
0
LAYER
5
50
100
AcDbSymbolTableRecord
100
AcDbLayerTableRecord
2
0
70
0
6
CONTINUOUS
0
ENDTAB
0
TABLE
2
STYLE
5
3
100
AcDbSymbolTable
70
1
0
STYLE
5
11
100
AcDbSymbolTableRecord
100
AcDbTextStyleTableRecord
2
STANDARD
70
0
0
ENDTAB
0
TABLE
2
VIEW
5
6
100
AcDbSymbolTable
70
0
0
ENDTAB
0
TABLE
2
UCS
5
7
100
AcDbSymbolTable
70
0
0
ENDTAB
0
TABLE
2
APPID
5
9
100
AcDbSymbolTable
70
2
0
APPID
5
12
100
AcDbSymbolTableRecord
100
AcDbRegAppTableRecord
2
ACAD
70
0
0
ENDTAB
0
TABLE
2
DIMSTYLE
5
A
100
AcDbSymbolTable
70
1
0
ENDTAB
0
TABLE
2
BLOCK_RECORD
5
1
100
AcDbSymbolTable
70
1
0
BLOCK_RECORD
5
1F
100
AcDbSymbolTableRecord
100
AcDbBlockTableRecord
2
*MODEL_SPACE
0
BLOCK_RECORD
5
1B
100
AcDbSymbolTableRecord
100
AcDbBlockTableRecord
2
*PAPER_SPACE
0
ENDTAB
0
ENDSEC
0
SECTION
2
BLOCKS
0
BLOCK
5
20
100
AcDbEntity
100
AcDbBlockBegin
2
*MODEL_SPACE
0
ENDBLK
5
21
100
AcDbEntity
100
AcDbBlockEnd
0
BLOCK
5
1C
100
AcDbEntity
100
AcDbBlockBegin
2
*PAPER_SPACE
0
ENDBLK
5
1D
100
AcDbEntity
100
AcDbBlockEnd
0
ENDSEC
0
SECTION
2
ENTITIES
0
LINE
5
100
100
AcDbEntity
8
0
100
AcDbLine
10
-69.363702642181522
20
16.590935439953533
30
0
11
-69.363702642181522
21
3.0672547840025732
31
0
0
LINE
5
101
100
AcDbEntity
8
0
100
AcDbLine
10
-69.363702642181522
20
3.0672547840025732
30
0
11
-65.313702642181568
21
3.0672547840025732
31
0
0
LINE
5
102
100
AcDbEntity
8
0
100
AcDbLine
10
-65.313702642181568
20
3.0672547840025732
30
0
11
-65.313702642181568
21
5.0672547840025706
31
0
0
LINE
5
103
100
AcDbEntity
8
0
100
AcDbLine
10
-65.313702642181568
20
5.0672547840025706
30
0
11
-61.363702642181543
21
5.0672547840025706
31
0
0
LINE
5
104
100
AcDbEntity
8
0
100
AcDbLine
10
-61.363702642181543
20
5.0672547840025706
30
0
11
-61.363702642181543
21
-0.8827452159974758
31
0
0
LINE
5
105
100
AcDbEntity
8
0
100
AcDbLine
10
-61.363702642181543
20
-0.8827452159974758
30
0
11
-69.363702642181522
21
-0.8827452159974758
31
0
0
LINE
5
106
100
AcDbEntity
8
0
100
AcDbLine
10
-69.363702642181522
20
-0.8827452159974758
30
0
11
-69.363702642181522
21
-16.590935439953533
31
0
0
LINE
5
107
100
AcDbEntity
8
0
100
AcDbLine
10
-69.363702642181522
20
-16.590935439953533
30
0
11
-57.253191818702653
21
-16.590935439953533
31
0
0
LINE
5
108
100
AcDbEntity
8
0
100
AcDbLine
10
-57.253191818702653
20
-16.590935439953533
30
0
11
-57.253191818702653
21
-8.5909354399535243
31
0
0
LINE
5
109
100
AcDbEntity
8
0
100
AcDbLine
10
-57.253191818702653
20
-8.5909354399535243
30
0
11
-51.303191818702594
21
-8.5909354399535243
31
0
0
LINE
5
110
100
AcDbEntity
8
0
100
AcDbLine
10
-51.303191818702594
20
-8.5909354399535243
30
0
11
-51.303191818702594
21
-12.540935439953573
31
0
0
LINE
5
111
100
AcDbEntity
8
0
100
AcDbLine
10
-51.303191818702594
20
-12.540935439953573
30
0
11
-53.303191818702622
21
-12.540935439953573
31
0
0
LINE
5
112
100
AcDbEntity
8
0
100
AcDbLine
10
-53.303191818702622
20
-12.540935439953573
30
0
11
-53.303191818702622
21
-16.590935439953533
31
0
0
LINE
5
113
100
AcDbEntity
8
0
100
AcDbLine
10
-53.303191818702622
20
-16.590935439953533
30
0
11
15.424771391371159
21
-16.590935439953533
31
0
0
LINE
5
114
100
AcDbEntity
8
0
100
AcDbLine
10
15.424771391371159
20
-16.590935439953533
30
0
11
15.424771391371159
21
-12.590935439953528
31
0
0
LINE
5
115
100
AcDbEntity
8
0
100
AcDbLine
10
15.424771391371159
20
-12.590935439953528
30
0
11
19.374771391371191
21
-12.590935439953528
31
0
0
LINE
5
116
100
AcDbEntity
8
0
100
AcDbLine
10
19.374771391371191
20
-12.590935439953528
30
0
11
19.374771391371191
21
-16.590935439953533
31
0
0
LINE
5
117
100
AcDbEntity
8
0
100
AcDbLine
10
19.374771391371191
20
-16.590935439953533
30
0
11
59.864893381434179
21
-16.590935439953533
31
0
0
LINE
5
118
100
AcDbEntity
8
0
100
AcDbLine
10
59.864893381434179
20
-16.590935439953533
30
0
11
59.864893381434179
21
-8.6577082308372244
31
0
0
LINE
5
119
100
AcDbEntity
8
0
100
AcDbLine
10
59.864893381434179
20
-8.6577082308372244
30
0
11
63.81489338143421
21
-8.6577082308372155
31
0
0
LINE
5
120
100
AcDbEntity
8
0
100
AcDbLine
10
63.81489338143421
20
-8.6577082308372155
30
0
11
63.81489338143421
21
-10.657708230837217
31
0
0
LINE
5
121
100
AcDbEntity
8
0
100
AcDbLine
10
63.81489338143421
20
-10.657708230837217
30
0
11
67.864893381434143
21
-10.657708230837217
31
0
0
LINE
5
122
100
AcDbEntity
8
0
100
AcDbLine
10
67.864893381434143
20
-10.657708230837217
30
0
11
67.864893381434143
21
-2.6077082308372646
31
0
0
LINE
5
123
100
AcDbEntity
8
0
100
AcDbLine
10
67.864893381434143
20
-2.6077082308372646
30
0
11
63.81489338143421
21
-2.6077082308372646
31
0
0
LINE
5
124
100
AcDbEntity
8
0
100
AcDbLine
10
63.81489338143421
20
-2.6077082308372646
30
0
11
63.81489338143421
21
-4.6077082308372663
31
0
0
LINE
5
125
100
AcDbEntity
8
0
100
AcDbLine
10
63.81489338143421
20
-4.6077082308372663
30
0
11
59.864893381434179
21
-4.6077082308372663
31
0
0
LINE
5
126
100
AcDbEntity
8
0
100
AcDbLine
10
59.864893381434179
20
-4.6077082308372663
30
0
11
59.864893381434179
21
8.7727434921117631
31
0
0
LINE
5
127
100
AcDbEntity
8
0
100
AcDbLine
10
59.864893381434179
20
8.7727434921117631
30
0
11
69.363702642181522
21
8.7727434921117542
31
0
0
LINE
5
128
100
AcDbEntity
8
0
100
AcDbLine
10
69.363702642181522
20
8.7727434921117542
30
0
11
69.363702642181522
21
16.590935439953533
31
0
0
LINE
5
129
100
AcDbEntity
8
0
100
AcDbLine
10
69.363702642181522
20
16.590935439953533
30
0
11
33.557790660719711
21
16.590935439953533
31
0
0
LINE
5
130
100
AcDbEntity
8
0
100
AcDbLine
10
33.557790660719711
20
16.590935439953533
30
0
11
33.557790660719711
21
14.59093543995353
31
0
0
LINE
5
131
100
AcDbEntity
8
0
100
AcDbLine
10
33.557790660719711
20
14.59093543995353
30
0
11
3.6077906607196653
21
14.59093543995353
31
0
0
LINE
5
132
100
AcDbEntity
8
0
100
AcDbLine
10
3.6077906607196653
20
14.59093543995353
30
0
11
3.6077906607196653
21
16.590935439953533
31
0
0
LINE
5
133
100
AcDbEntity
8
0
100
AcDbLine
10
3.6077906607196653
20
16.590935439953533
30
0
11
-69.363702642181522
21
16.590935439953533
31
0
0
LINE
5
134
100
AcDbEntity
8
0
100
AcDbLine
10
-17.537870595221925
20
-4.9653638305148728
30
0
11
-17.537870595221925
21
4.9846361694851016
31
0
0
LINE
5
135
100
AcDbEntity
8
0
100
AcDbLine
10
-17.537870595221925
20
4.9846361694851016
30
0
11
-15.587870595221958
21
4.9846361694851016
31
0
0
LINE
5
136
100
AcDbEntity
8
0
100
AcDbLine
10
-15.587870595221958
20
4.9846361694851016
30
0
11
-15.587870595221958
21
-4.9653638305148728
31
0
0
LINE
5
137
100
AcDbEntity
8
0
100
AcDbLine
10
-15.587870595221958
20
-4.9653638305148728
30
0
11
-17.537870595221925
21
-4.9653638305148728
31
0
0
LINE
5
138
100
AcDbEntity
8
0
100
AcDbLine
10
-27.537870595221925
20
4.9846361694851193
30
0
11
-25.587870595221958
21
4.9846361694851016
31
0
0
LINE
5
139
100
AcDbEntity
8
0
100
AcDbLine
10
-25.587870595221958
20
4.9846361694851016
30
0
11
-25.587870595221958
21
-4.9653638305148728
31
0
0
LINE
5
140
100
AcDbEntity
8
0
100
AcDbLine
10
-25.587870595221958
20
-4.9653638305148728
30
0
11
-27.537870595221925
21
-4.9653638305148551
31
0
0
LINE
5
141
100
AcDbEntity
8
0
100
AcDbLine
10
-27.537870595221925
20
-4.9653638305148551
30
0
11
-27.537870595221925
21
4.9846361694851193
31
0
0
LINE
5
142
100
AcDbEntity
8
0
100
AcDbLine
10
-7.1685828905238225
20
11.820270025560875
30
0
11
-5.2185828905238552
21
11.820270025560875
31
0
0
LINE
5
143
100
AcDbEntity
8
0
100
AcDbLine
10
-5.2185828905238552
20
11.820270025560875
30
0
11
-5.2185828905238552
21
3.8702700255608846
31
0
0
LINE
5
144
100
AcDbEntity
8
0
100
AcDbLine
10
-5.2185828905238552
20
3.8702700255608846
30
0
11
-7.1685828905238225
21
3.8702700255608846
31
0
0
LINE
5
145
100
AcDbEntity
8
0
100
AcDbLine
10
-7.1685828905238225
20
3.8702700255608846
30
0
11
-7.1685828905238225
21
11.820270025560875
31
0
0
LINE
5
146
100
AcDbEntity
8
0
100
AcDbLine
10
41.955939059653211
20
11.820270025560875
30
0
11
43.905939059653285
21
11.820270025560875
31
0
0
LINE
5
147
100
AcDbEntity
8
0
100
AcDbLine
10
43.905939059653285
20
11.820270025560875
30
0
11
43.905939059653285
21
3.8702700255608846
31
0
0
LINE
5
148
100
AcDbEntity
8
0
100
AcDbLine
10
43.905939059653285
20
3.8702700255608846
30
0
11
41.955939059653211
21
3.8702700255608846
31
0
0
LINE
5
149
100
AcDbEntity
8
0
100
AcDbLine
10
41.955939059653211
20
3.8702700255608846
30
0
11
41.955939059653211
21
11.820270025560875
31
0
0
LINE
5
150
100
AcDbEntity
8
0
100
AcDbLine
10
54.814893381434224
20
4.9846361694851371
30
0
11
54.814893381434224
21
-4.9653638305149084
31
0
0
LINE
5
151
100
AcDbEntity
8
0
100
AcDbLine
10
54.814893381434224
20
-4.9653638305149084
30
0
11
52.86489338143415
21
-4.9653638305149084
31
0
0
LINE
5
152
100
AcDbEntity
8
0
100
AcDbLine
10
52.86489338143415
20
-4.9653638305149084
30
0
11
52.86489338143415
21
4.9846361694851371
31
0
0
LINE
5
153
100
AcDbEntity
8
0
100
AcDbLine
10
52.86489338143415
20
4.9846361694851371
30
0
11
54.814893381434224
21
4.9846361694851371
31
0
0
ENDSEC
0
SECTION
2
OBJECTS
0
DICTIONARY
5
C
100
AcDbDictionary
3
ACAD_GROUP
350
D
3
ACAD_MLINESTYLE
350
17
0
DICTIONARY
5
D
100
AcDbDictionary
0
DICTIONARY
5
1A
330
C
100
AcDbDictionary
0
DICTIONARY
5
17
100
AcDbDictionary
0
ENDSEC
0
EOF
