0
SECTION
2
HEADER
9
$INSUNITS
70
4
9
$ACADVER
1
AC1014
9
$HANDSEED
5
FFFF
0
ENDSEC
0
SECTION
2
TABLES
0
TABLE
2
VPORT
5
8
100
AcDbSymbolTable
0
ENDTAB
0
TABLE
2
LTYPE
5
5
100
AcDbSymbolTable
0
LTYPE
5
14
100
AcDbSymbolTableRecord
100
AcDbLinetypeTableRecord
2
BYBLOCK
70
0
0
LTYPE
5
15
100
AcDbSymbolTableRecord
100
AcDbLinetypeTableRecord
2
BYLAYER
70
0
0
ENDTAB
0
TABLE
2
LAYER
5
2
100
AcDbSymbolTable
70
2
0
LAYER
5
50
100
AcDbSymbolTableRecord
100
AcDbLayerTableRecord
2
0
70
0
6
CONTINUOUS
0
ENDTAB
0
TABLE
2
STYLE
5
3
100
AcDbSymbolTable
70
1
0
STYLE
5
11
100
AcDbSymbolTableRecord
100
AcDbTextStyleTableRecord
2
STANDARD
70
0
0
ENDTAB
0
TABLE
2
VIEW
5
6
100
AcDbSymbolTable
70
0
0
ENDTAB
0
TABLE
2
UCS
5
7
100
AcDbSymbolTable
70
0
0
ENDTAB
0
TABLE
2
APPID
5
9
100
AcDbSymbolTable
70
2
0
APPID
5
12
100
AcDbSymbolTableRecord
100
AcDbRegAppTableRecord
2
ACAD
70
0
0
ENDTAB
0
TABLE
2
DIMSTYLE
5
A
100
AcDbSymbolTable
70
1
0
ENDTAB
0
TABLE
2
BLOCK_RECORD
5
1
100
AcDbSymbolTable
70
1
0
BLOCK_RECORD
5
1F
100
AcDbSymbolTableRecord
100
AcDbBlockTableRecord
2
*MODEL_SPACE
0
BLOCK_RECORD
5
1B
100
AcDbSymbolTableRecord
100
AcDbBlockTableRecord
2
*PAPER_SPACE
0
ENDTAB
0
ENDSEC
0
SECTION
2
BLOCKS
0
BLOCK
5
20
100
AcDbEntity
100
AcDbBlockBegin
2
*MODEL_SPACE
0
ENDBLK
5
21
100
AcDbEntity
100
AcDbBlockEnd
0
BLOCK
5
1C
100
AcDbEntity
100
AcDbBlockBegin
2
*PAPER_SPACE
0
ENDBLK
5
1D
100
AcDbEntity
100
AcDbBlockEnd
0
ENDSEC
0
SECTION
2
ENTITIES
0
LINE
5
100
100
AcDbEntity
8
0
100
AcDbLine
10
5.5198387584946573
20
-10.025000000000075
30
0
11
8.245109406830764
21
-10.025000000000068
31
-1.3877787807814642e-16
0
SPLINE
5
101
100
AcDbEntity
8
0
100
AcDbSpline
70
0
71
3
72
17
73
13
74
0
42
0.000000001
43
0.0000000001
44
0.0000000001
40
-1.001129323519881
40
-1.001129323519881
40
-1.001129323519881
40
-1.001129323519881
40
-1
40
-1
40
-1
40
-0.41329970617050804
40
-0.41329970617050804
40
-0.41329970617050804
40
0
40
0
40
0
40
0.00054738488295618011
40
0.00054738488295618011
40
0.00054738488295618011
40
0.00054738488295618011
10
8.2451094068304798
20
-10.02500000000083
30
1.4210854715202004e-13
10
8.2434551420692515
20
-10.015269914300667
30
0
10
8.24180087730781
20
-10.005539828600455
30
1.4210854715202004e-13
10
8.2401466125462974
20
-9.9958097429002315
30
1.4210854715202004e-13
10
7.3808608650759311
20
-4.941646613304691
30
0
10
6.851951721533851
20
-0.5404639714995918
30
0
10
6.8955286712408537
20
2.7259351750826077
30
0
10
6.926226355730023
20
5.0269427282002832
30
1.4210854715202004e-13
10
7.248129230661533
20
6.7510899203414665
30
1.4210854715202004e-13
10
7.8126781978845372
20
7.9896309458010695
30
1.4210854715202004e-13
10
7.8134287824124016
20
7.9912776226790339
30
0
10
7.8141793669401238
20
7.992924299556976
30
0
10
7.814929951467704
20
7.9945709764343231
30
1.4210854715202004e-13
0
LINE
5
102
100
AcDbEntity
8
0
100
AcDbLine
10
7.814929951467704
20
7.9945709764343187
30
1.4210854715202004e-13
11
7.8149299514680592
21
10.024999999999938
31
1.4210854715202004e-13
0
LINE
5
103
100
AcDbEntity
8
0
100
AcDbLine
10
7.8149299514681303
20
10.024999999999938
30
1.4210854715202004e-13
11
3.8612643202102248
21
10.024999999999938
31
1.4238610290817633e-13
0
LINE
5
104
100
AcDbEntity
8
0
100
AcDbLine
10
3.8612643202102248
20
10.024999999999938
30
0
11
3.8612643202101538
21
12.02500000000008
31
1.2079432611196743e-29
0
LINE
5
105
100
AcDbEntity
8
0
100
AcDbLine
10
3.8612643202102248
20
12.02500000000008
30
0
11
-4.1887356797897013
21
12.02500000000008
31
3.3356173179752559e-78
0
LINE
5
106
100
AcDbEntity
8
0
100
AcDbLine
10
-4.1887356797899145
20
12.02500000000008
30
1.4210854715202004e-13
11
-4.1887356797899145
21
10.024999999999938
31
1.4210854715202004e-13
0
LINE
5
107
100
AcDbEntity
8
0
100
AcDbLine
10
-4.1887356797899145
20
10.024999999999938
30
1.4210854715202004e-13
11
-8.2405002792403081
21
10.024999999999938
31
1.4210854715202004e-13
0
LINE
5
108
100
AcDbEntity
8
0
100
AcDbLine
10
-8.240500279240166
20
10.024999999999938
30
0
11
-8.240500279240095
21
7.9882868615694314
31
9.8607613152626476e-31
0
SPLINE
5
109
100
AcDbEntity
8
0
100
AcDbSpline
70
0
71
3
72
17
73
13
74
0
42
0.000000001
43
0.0000000001
44
0.0000000001
40
-0.00053355138254563162
40
-0.00053355138254563162
40
-0.00053355138254563162
40
-0.00053355138254563162
40
0
40
0
40
0
40
0.54302908281793294
40
0.54302908281793294
40
0.54302908281793294
40
1
40
1
40
1
40
1.0014157027826986
40
1.0014157027826986
40
1.0014157027826986
40
1.0014157027826986
10
-8.2405002792399529
20
7.9882868615691605
30
0
10
-8.2375002345938952
20
7.9857880796219582
30
1.4210854715202004e-13
10
-8.2345001899477666
20
7.9832892976747605
30
0
10
-8.231500145301851
20
7.9807905157275627
30
1.4210854715202004e-13
10
-5.1809963325221986
20
5.439980375653688
30
1.4210854715202004e-13
10
-3.0618226776098822
20
2.5732182410878357
30
0
10
-2.239304356301588
20
-0.75026884050757303
30
0
10
-1.5471370975302534
20
-3.547056320173021
30
1.4210854715202004e-13
10
-1.7351961719732145
20
-6.6562989813968398
30
0
10
-2.5671234347648664
20
-9.9939536188014877
30
0
10
-2.5697029238307323
20
-10.004302412534319
30
0
10
-2.5722824128967403
20
-10.01465120626715
30
1.4210854715202004e-13
10
-2.5748619019626773
20
-10.024999999999933
30
0
0
LINE
5
110
100
AcDbEntity
8
0
100
AcDbLine
10
-2.5748619019626062
20
-10.024999999999935
30
0
11
-0.53016124150545352
21
-10.025000000000075
31
-1.3877787807810574e-16
0
LINE
5
111
100
AcDbEntity
8
0
100
AcDbLine
10
-0.53016124150538246
20
-10.025000000000075
30
0
11
-0.53016124150538246
21
-12.025000000000073
31
-5.1152699322924984e-30
0
LINE
5
112
100
AcDbEntity
8
0
100
AcDbLine
10
-0.53016124150538246
20
-12.025000000000073
30
0
11
5.5198387584945854
21
-12.025000000000073
31
3.421138828918272e-47
0
LINE
5
113
100
AcDbEntity
8
0
100
AcDbLine
10
5.5198387584946573
20
-12.025000000000073
30
0
11
5.5198387584946573
21
-10.025000000000075
31
5.1152699322924984e-30
0
ENDSEC
0
SECTION
2
OBJECTS
0
DICTIONARY
5
C
100
AcDbDictionary
3
ACAD_GROUP
350
D
3
ACAD_MLINESTYLE
350
17
0
DICTIONARY
5
D
100
AcDbDictionary
0
DICTIONARY
5
1A
330
C
100
AcDbDictionary
0
DICTIONARY
5
17
100
AcDbDictionary
0
ENDSEC
0
EOF
