0
SECTION
2
HEADER
9
$INSUNITS
70
4
9
$ACADVER
1
AC1014
9
$HANDSEED
5
FFFF
0
ENDSEC
0
SECTION
2
TABLES
0
TABLE
2
VPORT
5
8
100
AcDbSymbolTable
0
ENDTAB
0
TABLE
2
LTYPE
5
5
100
AcDbSymbolTable
0
LTYPE
5
14
100
AcDbSymbolTableRecord
100
AcDbLinetypeTableRecord
2
BYBLOCK
70
0
0
LTYPE
5
15
100
AcDbSymbolTableRecord
100
AcDbLinetypeTableRecord
2
BYLAYER
70
0
0
ENDTAB
0
TABLE
2
LAYER
5
2
100
AcDbSymbolTable
70
2
0
LAYER
5
50
100
AcDbSymbolTableRecord
100
AcDbLayerTableRecord
2
0
70
0
6
CONTINUOUS
0
ENDTAB
0
TABLE
2
STYLE
5
3
100
AcDbSymbolTable
70
1
0
STYLE
5
11
100
AcDbSymbolTableRecord
100
AcDbTextStyleTableRecord
2
STANDARD
70
0
0
ENDTAB
0
TABLE
2
VIEW
5
6
100
AcDbSymbolTable
70
0
0
ENDTAB
0
TABLE
2
UCS
5
7
100
AcDbSymbolTable
70
0
0
ENDTAB
0
TABLE
2
APPID
5
9
100
AcDbSymbolTable
70
2
0
APPID
5
12
100
AcDbSymbolTableRecord
100
AcDbRegAppTableRecord
2
ACAD
70
0
0
ENDTAB
0
TABLE
2
DIMSTYLE
5
A
100
AcDbSymbolTable
70
1
0
ENDTAB
0
TABLE
2
BLOCK_RECORD
5
1
100
AcDbSymbolTable
70
1
0
BLOCK_RECORD
5
1F
100
AcDbSymbolTableRecord
100
AcDbBlockTableRecord
2
*MODEL_SPACE
0
BLOCK_RECORD
5
1B
100
AcDbSymbolTableRecord
100
AcDbBlockTableRecord
2
*PAPER_SPACE
0
ENDTAB
0
ENDSEC
0
SECTION
2
BLOCKS
0
BLOCK
5
20
100
AcDbEntity
100
AcDbBlockBegin
2
*MODEL_SPACE
0
ENDBLK
5
21
100
AcDbEntity
100
AcDbBlockEnd
0
BLOCK
5
1C
100
AcDbEntity
100
AcDbBlockBegin
2
*PAPER_SPACE
0
ENDBLK
5
1D
100
AcDbEntity
100
AcDbBlockEnd
0
ENDSEC
0
SECTION
2
ENTITIES
0
SPLINE
5
100
100
AcDbEntity
8
0
100
AcDbSpline
70
0
71
3
72
29
73
25
74
0
42
0.000000001
43
0.0000000001
44
0.0000000001
40
0.00055331883722002022
40
0.00055331883722002022
40
0.00055331883722002022
40
0.00055331883722002022
40
0.00055594611603408933
40
0.00055594611603408933
40
0.00055594611603408933
40
0.14492607047218117
40
0.14492607047218117
40
0.14492607047218117
40
0.30664233363593152
40
0.30664233363593152
40
0.30664233363593152
40
0.46249245453358245
40
0.46249245453358245
40
0.46249245453358245
40
0.68719941668519346
40
0.68719941668519346
40
0.68719941668519346
40
0.88737168084161577
40
0.88737168084161577
40
0.88737168084161577
40
1
40
1
40
1
40
1.0004495151447443
40
1.0004495151447443
40
1.0004495151447443
40
1.0004495151447443
10
8.0299668517200473
20
29.987017581079574
30
-1.4210854715202004e-13
10
8.0299668262722257
20
29.986997028650244
30
-1.4210854715202004e-13
10
8.0299668008244574
20
29.986976476196901
30
-1.4210854715202004e-13
10
8.0299667753766357
20
29.986955923719556
30
-1.4210854715202004e-13
10
8.0285593570978797
20
28.850280159317442
30
0
10
7.4832064187310721
20
26.931850762321822
30
0
10
6.7148463686219806
20
24.404142472262407
30
-1.4210854715202004e-13
10
5.8541674946368616
20
21.572728834160657
30
0
10
4.777370263378824
20
18.001770356196374
30
-1.4210854715202004e-13
10
4.1127045396635786
20
14.158398072685348
30
-1.4210854715202004e-13
10
3.4721490916771458
20
10.454441381370074
30
-1.4210854715202004e-13
10
3.224748241112092
20
6.5070690640634954
30
0
10
3.3510755242687296
20
2.6227916350050418
30
0
10
3.5332160312602845
20
-2.9776158347523385
30
0
10
4.4355511142615178
20
-8.4292428432685806
30
0
10
5.0592777735051797
20
-13.276356647664311
30
0
10
5.6149026477860708
20
-17.59423685733536
30
-1.4210854715202004e-13
10
5.9124786761726433
20
-21.448285546426757
30
-1.4210854715202004e-13
10
5.7195365403864784
20
-24.803059402608454
30
-1.4210854715202004e-13
10
5.6109763033326843
20
-26.690646287687478
30
0
10
5.3584741402016789
20
-28.424002137084422
30
0
10
4.9619367477687959
20
-30.006078081297325
30
0
10
4.9603558611011955
20
-30.012385387531552
30
-1.4210854715202004e-13
10
4.9587749744335419
20
-30.018692693765786
30
-1.4210854715202004e-13
10
4.9571940877659237
20
-30.025000000000041
30
0
0
LINE
5
101
100
AcDbEntity
8
0
100
AcDbLine
10
8.0299668517200473
20
29.987017581079574
30
-1.4210854715202004e-13
11
8.0299607990522404
21
32.025000000000006
31
-1.4210854715202004e-13
0
LINE
5
102
100
AcDbEntity
8
0
100
AcDbLine
10
8.0299607990522404
20
32.025000000000006
30
0
11
4.9799166671217865
21
32.025000000000006
31
0
0
LINE
5
103
100
AcDbEntity
8
0
100
AcDbLine
10
4.9799166671217421
20
32.025000000000006
30
0
11
4.9799166671217776
21
30.024999999999995
31
-9.8607613152626476e-31
0
LINE
5
104
100
AcDbEntity
8
0
100
AcDbLine
10
4.9799166671217954
20
30.024999999999995
30
0
11
-4.9700833328782057
21
30.024999999999995
31
0
0
LINE
5
105
100
AcDbEntity
8
0
100
AcDbLine
10
-4.970083332878179
20
30.024999999999995
30
-1.4210854715202004e-13
11
-4.9700833328781879
21
32.025000000000006
31
-1.4210854715202004e-13
0
LINE
5
106
100
AcDbEntity
8
0
100
AcDbLine
10
-4.970083332878179
20
32.025000000000006
30
-1.4210854715202004e-13
11
-8.0201275383543358
21
32.025000000000006
31
-1.4210854715202004e-13
0
LINE
5
107
100
AcDbEntity
8
0
100
AcDbLine
10
-8.0201275383543447
20
32.025000000000006
30
-1.4210854715202004e-13
11
-8.0201255271080552
21
30.000317109242385
31
-1.4210854708584559e-13
0
SPLINE
5
108
100
AcDbEntity
8
0
100
AcDbSpline
70
0
71
3
72
23
73
19
74
0
42
0.000000001
43
0.0000000001
44
0.0000000001
40
0
40
0
40
0
40
0
40
0.193162141919687
40
0.193162141919687
40
0.193162141919687
40
0.38025085176473106
40
0.38025085176473106
40
0.38025085176473106
40
0.59599991083481429
40
0.59599991083481429
40
0.59599991083481429
40
0.79284673169233255
40
0.79284673169233255
40
0.79284673169233255
40
1
40
1
40
1
40
1.0015643639024081
40
1.0015643639024081
40
1.0015643639024081
40
1.0015643639024081
10
-8.0201255271080463
20
30.000317109242385
30
0
10
-8.0676706270953247
20
26.252296818828327
30
0
10
-7.5217979782197197
20
22.477081977089686
30
-1.4210854715202004e-13
10
-6.7085855217570867
20
18.487627561904681
30
-1.4210854715202004e-13
10
-5.9209422092658137
20
14.623610150910613
30
-1.4210854715202004e-13
10
-4.9244759954761186
20
10.513059200732373
30
0
10
-4.1511440892691986
20
6.1204353041876214
30
-1.4210854715202004e-13
10
-3.2593445186205372
20
1.054899958344313
30
-1.4210854715202004e-13
10
-2.6747416356003484
20
-4.37298097220574
30
-1.4210854715202004e-13
10
-2.6398271104205584
20
-9.4314181634597016
30
-1.4210854715202004e-13
10
-2.6079715217425736
20
-14.046674813465874
30
-1.4210854715202004e-13
10
-3.0190917206082446
20
-18.296056214574289
30
0
10
-3.8779707375861605
20
-21.736021895441937
30
0
10
-4.7818186873410617
20
-25.356096278932934
30
-1.4210854715202004e-13
10
-6.1713847428202939
20
-28.109532514529562
30
-1.4210854715202004e-13
10
-8.0129538676210466
20
-29.982472251003728
30
0
10
-8.0268923458991459
20
-29.99664816733582
30
-1.4210854715202004e-13
10
-8.040830824177192
20
-30.01082408366792
30
0
10
-8.0547693024552203
20
-30.02500000000002
30
-1.4210854715202004e-13
0
LINE
5
109
100
AcDbEntity
8
0
100
AcDbLine
10
-8.0547693024552203
20
-30.025000000000013
30
-1.4210854715202004e-13
11
-4.7245696017657579
21
-30.025000000000013
31
-1.4210854715202004e-13
0
LINE
5
110
100
AcDbEntity
8
0
100
AcDbLine
10
-4.7245696017657757
20
-30.025000000000013
30
-1.4210854715202004e-13
11
-4.7245696017657579
21
-32.025000000000013
31
-1.4210854715202004e-13
0
LINE
5
111
100
AcDbEntity
8
0
100
AcDbLine
10
-4.7245696017657579
20
-32.025000000000013
30
-1.4210854715202004e-13
11
2.0746235260487556
21
-32.025000000000013
31
-1.4210854715202004e-13
0
LINE
5
112
100
AcDbEntity
8
0
100
AcDbLine
10
2.0746235260487644
20
-32.025000000000013
30
-1.4210854715202004e-13
11
2.0746235260487378
21
-30.025000000000013
31
-1.4210854715202006e-13
0
LINE
5
113
100
AcDbEntity
8
0
100
AcDbLine
10
2.0746235260487289
20
-30.025000000000013
30
-1.4210854715202004e-13
11
4.9571940877658784
21
-30.024999999999991
31
-1.4210854715202004e-13
0
ENDSEC
0
SECTION
2
OBJECTS
0
DICTIONARY
5
C
100
AcDbDictionary
3
ACAD_GROUP
350
D
3
ACAD_MLINESTYLE
350
17
0
DICTIONARY
5
D
100
AcDbDictionary
0
DICTIONARY
5
1A
330
C
100
AcDbDictionary
0
DICTIONARY
5
17
100
AcDbDictionary
0
ENDSEC
0
EOF
