  0
SECTION
  2
HEADER
  9
$ACADVER
  1
AC1015
  9
$ACADMAINTVER
 70
6
  9
$DWGCODEPAGE
  3
ANSI_1252
  9
$TDCREATE
 40
2459721.024525463
  9
$TDUPDATE
 40
2459721.024571759
  9
$HANDSEED
  5
10070
  9
$INSUNITS
 70
4
  9
$FINGERPRINTGUID
  2
209149CE-D88D-11EC-8695-D20010FD74C0
  9
$VERSIONGUID
  2
230591A6-D88D-11EC-8695-D20010FD74C0
  0
ENDSEC
  0
SECTION
  2
CLASSES
  0
CLASS
  1
ACDBDICTIONARYWDFLT
  2
AcDbDictionaryWithDefault
  3
ObjectDBX Classes
 90
0
280
0
281
0
  0
CLASS
  1
SUN
  2
AcDbSun
  3
SCENEOE
 90
1153
280
0
281
0
  0
CLASS
  1
VISUALSTYLE
  2
AcDbVisualStyle
  3
ObjectDBX Classes
 90
4095
280
0
281
0
  0
CLASS
  1
MATERIAL
  2
AcDbMaterial
  3
ObjectDBX Classes
 90
1153
280
0
281
0
  0
CLASS
  1
SCALE
  2
AcDbScale
  3
ObjectDBX Classes
 90
1153
280
0
281
0
  0
CLASS
  1
TABLESTYLE
  2
AcDbTableStyle
  3
ObjectDBX Classes
 90
4095
280
0
281
0
  0
CLASS
  1
MLEADERSTYLE
  2
AcDbMLeaderStyle
  3
ACDB_MLEADERSTYLE_CLASS
 90
4095
280
0
281
0
  0
CLASS
  1
DICTIONARYVAR
  2
AcDbDictionaryVar
  3
ObjectDBX Classes
 90
0
280
0
281
0
  0
CLASS
  1
CELLSTYLEMAP
  2
AcDbCellStyleMap
  3
ObjectDBX Classes
 90
1152
280
0
281
0
  0
CLASS
  1
MENTALRAYRENDERSETTINGS
  2
AcDbMentalRayRenderSettings
  3
SCENEOE
 90
1024
280
0
281
0
  0
CLASS
  1
ACDBDETAILVIEWSTYLE
  2
AcDbDetailViewStyle
  3
ObjectDBX Classes
 90
1025
280
0
281
0
  0
CLASS
  1
ACDBSECTIONVIEWSTYLE
  2
AcDbSectionViewStyle
  3
ObjectDBX Classes
 90
1025
280
0
281
0
  0
CLASS
  1
RASTERVARIABLES
  2
AcDbRasterVariables
  3
ISM
 90
0
280
0
281
0
  0
CLASS
  1
ACDBPLACEHOLDER
  2
AcDbPlaceHolder
  3
ObjectDBX Classes
 90
0
280
0
281
0
  0
CLASS
  1
LAYOUT
  2
AcDbLayout
  3
ObjectDBX Classes
 90
0
280
0
281
0
  0
ENDSEC
  0
SECTION
  2
TABLES
  0
TABLE
  2
VPORT
  5
8
330
0
100
AcDbSymbolTable
 70
1
  0
VPORT
  5
1006A
330
8
100
AcDbSymbolTableRecord
100
AcDbViewportTableRecord
  2
*Active
 70
0
 10
0.0
 20
0.0
 11
1.0
 21
1.0
 12
70.0
 22
50.0
 13
0.0
 23
0.0
 14
0.5
 24
0.5
 15
0.5
 25
0.5
 16
0.0
 26
0.0
 36
1.0
 17
0.0
 27
0.0
 37
0.0
 40
1.0
 41
1.34
 42
50.0
 43
0.0
 44
0.0
 50
0.0
 51
0.0
 71
0
 72
1000
 73
1
 74
3
 75
0
 76
0
 77
0
 78
0
281
0
 65
0
146
0.0
  0
ENDTAB
  0
TABLE
  2
LTYPE
  5
5
330
0
100
AcDbSymbolTable
 70
3
  0
LTYPE
  5
1006B
330
5
100
AcDbSymbolTableRecord
100
AcDbLinetypeTableRecord
  2
Continuous
 70
0
  3

 72
65
 73
0
 40
0.0
  0
ENDTAB
  0
TABLE
  2
LAYER
  5
2
330
0
100
AcDbSymbolTable
 70
2
  0
LAYER
  5
50
330
2
100
AcDbSymbolTableRecord
100
AcDbLayerTableRecord
  2
0
 70
0
 62
7
  6
CONTINUOUS
370
-3
390
10060
  0
LAYER
  5
1006C
330
2
100
AcDbSymbolTableRecord
100
AcDbLayerTableRecord
  2
Defpoints
 70
0
 62
7
  6
Continuous
290
0
370
-3
390
10060
  0
ENDTAB
  0
TABLE
  2
STYLE
  5
3
330
0
100
AcDbSymbolTable
 70
1
  0
STYLE
  5
11
330
3
100
AcDbSymbolTableRecord
100
AcDbTextStyleTableRecord
  2
STANDARD
 70
0
 40
0.0
 41
1.0
 50
0.0
 71
0
 42
2.5
  3
txt
  4

  0
ENDTAB
  0
TABLE
  2
VIEW
  5
6
330
0
100
AcDbSymbolTable
 70
0
  0
ENDTAB
  0
TABLE
  2
UCS
  5
7
330
0
100
AcDbSymbolTable
 70
0
  0
ENDTAB
  0
TABLE
  2
APPID
  5
9
330
0
100
AcDbSymbolTable
 70
2
  0
APPID
  5
12
330
9
100
AcDbSymbolTableRecord
100
AcDbRegAppTableRecord
  2
ACAD
 70
0
  0
APPID
  5
1006F
330
9
100
AcDbSymbolTableRecord
100
AcDbRegAppTableRecord
  2
HATCHBACKGROUNDCOLOR
 70
0
  0
ENDTAB
  0
TABLE
  2
DIMSTYLE
  5
A
330
0
100
AcDbSymbolTable
 70
1
100
AcDbDimStyleTable
  0
DIMSTYLE
105
1006D
330
A
100
AcDbSymbolTableRecord
100
AcDbDimStyleTableRecord
  2
Standard
 70
0
  3

  4

 40
1.0
 41
2.5
 42
0.625
 43
3.75
 44
1.25
 45
0.0
 46
0.0
 47
0.0
 48
0.0
140
2.5
141
2.5
142
0.0
143
0.03937007874
144
1.0
145
0.0
146
1.0
147
0.625
148
0.0
 71
0
 72
0
 73
0
 74
0
 75
0
 76
0
 77
1
 78
8
 79
0
170
0
171
3
172
1
173
0
174
0
175
0
176
0
177
0
178
0
179
0
271
0
272
2
273
2
274
3
275
0
276
0
277
2
278
44
279
0
280
0
281
0
282
0
283
0
284
8
285
0
286
0
288
0
289
3
371
-2
372
-2
  0
ENDTAB
  0
TABLE
  2
BLOCK_RECORD
  5
1
330
0
100
AcDbSymbolTable
 70
22
  0
BLOCK_RECORD
  5
1F
330
1
100
AcDbSymbolTableRecord
100
AcDbBlockTableRecord
  2
*MODEL_SPACE
340
10064
  0
BLOCK_RECORD
  5
1B
330
1
100
AcDbSymbolTableRecord
100
AcDbBlockTableRecord
  2
*PAPER_SPACE
340
10065
  0
BLOCK_RECORD
  5
FFFF
330
1
100
AcDbSymbolTableRecord
100
AcDbBlockTableRecord
  2
_CLOSEDFILLED
340
0
  0
BLOCK_RECORD
  5
10003
330
1
100
AcDbSymbolTableRecord
100
AcDbBlockTableRecord
  2
_OPEN90
340
0
  0
BLOCK_RECORD
  5
10008
330
1
100
AcDbSymbolTableRecord
100
AcDbBlockTableRecord
  2
_DOT
340
0
  0
BLOCK_RECORD
  5
1000D
330
1
100
AcDbSymbolTableRecord
100
AcDbBlockTableRecord
  2
_ORIGIN
340
0
  0
BLOCK_RECORD
  5
10012
330
1
100
AcDbSymbolTableRecord
100
AcDbBlockTableRecord
  2
_DATUMBLANK
340
0
  0
BLOCK_RECORD
  5
10016
330
1
100
AcDbSymbolTableRecord
100
AcDbBlockTableRecord
  2
_OPEN
340
0
  0
BLOCK_RECORD
  5
1001B
330
1
100
AcDbSymbolTableRecord
100
AcDbBlockTableRecord
  2
_BOXBLANK
340
0
  0
BLOCK_RECORD
  5
10020
330
1
100
AcDbSymbolTableRecord
100
AcDbBlockTableRecord
  2
_OPEN30
340
0
  0
BLOCK_RECORD
  5
10025
330
1
100
AcDbSymbolTableRecord
100
AcDbBlockTableRecord
  2
_SMALL
340
0
  0
BLOCK_RECORD
  5
10029
330
1
100
AcDbSymbolTableRecord
100
AcDbBlockTableRecord
  2
_ARCHTICK
340
0
  0
BLOCK_RECORD
  5
1002D
330
1
100
AcDbSymbolTableRecord
100
AcDbBlockTableRecord
  2
_DATUMFILLED
340
0
  0
BLOCK_RECORD
  5
10031
330
1
100
AcDbSymbolTableRecord
100
AcDbBlockTableRecord
  2
_CLOSEDBLANK
340
0
  0
BLOCK_RECORD
  5
10035
330
1
100
AcDbSymbolTableRecord
100
AcDbBlockTableRecord
  2
_CLOSED
340
0
  0
BLOCK_RECORD
  5
1003A
330
1
100
AcDbSymbolTableRecord
100
AcDbBlockTableRecord
  2
_ORIGIN2
340
0
  0
BLOCK_RECORD
  5
10040
330
1
100
AcDbSymbolTableRecord
100
AcDbBlockTableRecord
  2
_BOXFILLED
340
0
  0
BLOCK_RECORD
  5
10045
330
1
100
AcDbSymbolTableRecord
100
AcDbBlockTableRecord
  2
_DOTBLANK
340
0
  0
BLOCK_RECORD
  5
1004A
330
1
100
AcDbSymbolTableRecord
100
AcDbBlockTableRecord
  2
_DOTSMALL
340
0
  0
BLOCK_RECORD
  5
1004E
330
1
100
AcDbSymbolTableRecord
100
AcDbBlockTableRecord
  2
_INTEGRAL
340
0
  0
BLOCK_RECORD
  5
10053
330
1
100
AcDbSymbolTableRecord
100
AcDbBlockTableRecord
  2
_NONE
340
0
  0
BLOCK_RECORD
  5
10056
330
1
100
AcDbSymbolTableRecord
100
AcDbBlockTableRecord
  2
_OBLIQUE
340
0
  0
ENDTAB
  0
ENDSEC
  0
SECTION
  2
BLOCKS
  0
BLOCK
  5
20
330
1F
100
AcDbEntity
  8
0
100
AcDbBlockBegin
  2
*MODEL_SPACE
 70
0
 10
0.0
 20
0.0
 30
0.0
  3
*MODEL_SPACE
  1

  0
ENDBLK
  5
21
330
1F
100
AcDbEntity
  8
0
100
AcDbBlockEnd
  0
BLOCK
  5
1C
330
1B
100
AcDbEntity
  8
0
100
AcDbBlockBegin
  2
*PAPER_SPACE
 70
0
 10
0.0
 20
0.0
 30
0.0
  3
*PAPER_SPACE
  1

  0
ENDBLK
  5
1D
330
1B
100
AcDbEntity
  8
0
100
AcDbBlockEnd
  0
BLOCK
  5
10000
330
FFFF
100
AcDbEntity
  8
0
100
AcDbBlockBegin
  2
_CLOSEDFILLED
 70
0
 10
0.0
 20
0.0
 30
0.0
  3
_CLOSEDFILLED
  1

  0
SOLID
  5
10002
330
FFFF
100
AcDbEntity
  8
0
  6
BYBLOCK
 62
0
100
AcDbTrace
 10
-1.0
 20
0.1643989837240255
 30
0.0
 11
0.0
 21
0.0
 31
0.0
 12
-1.0
 22
-0.1643989837240255
 32
0.0
 13
-1.0
 23
-0.1643989837240255
 33
0.0
  0
ENDBLK
  5
10001
330
FFFF
100
AcDbEntity
  8
0
100
AcDbBlockEnd
  0
BLOCK
  5
10004
330
10003
100
AcDbEntity
  8
0
100
AcDbBlockBegin
  2
_OPEN90
 70
0
 10
0.0
 20
0.0
 30
0.0
  3
_OPEN90
  1

  0
LWPOLYLINE
  5
10006
330
10003
100
AcDbEntity
  8
0
  6
BYBLOCK
 62
0
100
AcDbPolyline
 90
3
 70
0
 10
-0.9999999999999998
 20
0.7071067811865476
 10
0.0
 20
0.0
 10
-0.9999999999999998
 20
-0.7071067811865476
  0
LINE
  5
10007
330
10003
100
AcDbEntity
  8
0
  6
BYBLOCK
 62
0
100
AcDbLine
 10
0.0
 20
0.0
 30
0.0
 11
-1.0
 21
1.2246467991473532e-16
 31
0.0
  0
ENDBLK
  5
10005
330
10003
100
AcDbEntity
  8
0
100
AcDbBlockEnd
  0
BLOCK
  5
10009
330
10008
100
AcDbEntity
  8
0
100
AcDbBlockBegin
  2
_DOT
 70
0
 10
0.0
 20
0.0
 30
0.0
  3
_DOT
  1

  0
LINE
  5
1000B
330
10008
100
AcDbEntity
  8
0
  6
BYBLOCK
 62
0
100
AcDbLine
 10
-0.5
 20
6.123233995736766e-17
 30
0.0
 11
-1.0
 21
1.2246467991473532e-16
 31
0.0
  0
LWPOLYLINE
  5
1000C
330
10008
100
AcDbEntity
  8
0
  6
BYBLOCK
 62
0
100
AcDbPolyline
 90
2
 70
1
 43
0.5
 10
-0.25
 20
0.0
 42
1.0
 10
0.25
 20
0.0
 42
1.0
  0
ENDBLK
  5
1000A
330
10008
100
AcDbEntity
  8
0
100
AcDbBlockEnd
  0
BLOCK
  5
1000E
330
1000D
100
AcDbEntity
  8
0
100
AcDbBlockBegin
  2
_ORIGIN
 70
0
 10
0.0
 20
0.0
 30
0.0
  3
_ORIGIN
  1

  0
CIRCLE
  5
10010
330
1000D
100
AcDbEntity
  8
0
  6
BYBLOCK
 62
0
100
AcDbCircle
 10
0.0
 20
0.0
 30
0.0
 40
0.5
  0
LINE
  5
10011
330
1000D
100
AcDbEntity
  8
0
  6
BYBLOCK
 62
0
100
AcDbLine
 10
0.0
 20
0.0
 30
0.0
 11
-1.0
 21
1.2246467991473532e-16
 31
0.0
  0
ENDBLK
  5
1000F
330
1000D
100
AcDbEntity
  8
0
100
AcDbBlockEnd
  0
BLOCK
  5
10013
330
10012
100
AcDbEntity
  8
0
100
AcDbBlockBegin
  2
_DATUMBLANK
 70
0
 10
0.0
 20
0.0
 30
0.0
  3
_DATUMBLANK
  1

  0
LWPOLYLINE
  5
10015
330
10012
100
AcDbEntity
  8
0
  6
BYBLOCK
 62
0
100
AcDbPolyline
 90
3
 70
1
 10
3.5352507945885664e-17
 20
0.577350269
 10
3.5352507945885664e-17
 20
-0.577350269
 10
-1.0
 20
1.2246467991473532e-16
  0
ENDBLK
  5
10014
330
10012
100
AcDbEntity
  8
0
100
AcDbBlockEnd
  0
BLOCK
  5
10017
330
10016
100
AcDbEntity
  8
0
100
AcDbBlockBegin
  2
_OPEN
 70
0
 10
0.0
 20
0.0
 30
0.0
  3
_OPEN
  1

  0
LWPOLYLINE
  5
10019
330
10016
100
AcDbEntity
  8
0
  6
BYBLOCK
 62
0
100
AcDbPolyline
 90
3
 70
0
 10
-1.0
 20
0.1643989837240255
 10
0.0
 20
0.0
 10
-1.0
 20
-0.1643989837240255
  0
LINE
  5
1001A
330
10016
100
AcDbEntity
  8
0
  6
BYBLOCK
 62
0
100
AcDbLine
 10
0.0
 20
0.0
 30
0.0
 11
-1.0
 21
1.2246467991473532e-16
 31
0.0
  0
ENDBLK
  5
10018
330
10016
100
AcDbEntity
  8
0
100
AcDbBlockEnd
  0
BLOCK
  5
1001C
330
1001B
100
AcDbEntity
  8
0
100
AcDbBlockBegin
  2
_BOXBLANK
 70
0
 10
0.0
 20
0.0
 30
0.0
  3
_BOXBLANK
  1

  0
LWPOLYLINE
  5
1001E
330
1001B
100
AcDbEntity
  8
0
  6
BYBLOCK
 62
0
100
AcDbPolyline
 90
4
 70
1
 10
-0.5
 20
-0.5000000000000001
 10
0.5000000000000001
 20
-0.5
 10
0.5000000000000001
 20
0.5
 10
-0.5
 20
0.5000000000000001
  0
LINE
  5
1001F
330
1001B
100
AcDbEntity
  8
0
  6
BYBLOCK
 62
0
100
AcDbLine
 10
-0.5
 20
6.123233995736766e-17
 30
0.0
 11
-1.0
 21
1.2246467991473532e-16
 31
0.0
  0
ENDBLK
  5
1001D
330
1001B
100
AcDbEntity
  8
0
100
AcDbBlockEnd
  0
BLOCK
  5
10021
330
10020
100
AcDbEntity
  8
0
100
AcDbBlockBegin
  2
_OPEN30
 70
0
 10
0.0
 20
0.0
 30
0.0
  3
_OPEN30
  1

  0
LWPOLYLINE
  5
10023
330
10020
100
AcDbEntity
  8
0
  6
BYBLOCK
 62
0
100
AcDbPolyline
 90
3
 70
0
 10
-0.9999999999999999
 20
0.2588190451025208
 10
0.0
 20
0.0
 10
-0.9999999999999999
 20
-0.2588190451025208
  0
LINE
  5
10024
330
10020
100
AcDbEntity
  8
0
  6
BYBLOCK
 62
0
100
AcDbLine
 10
0.0
 20
0.0
 30
0.0
 11
-1.0
 21
1.2246467991473532e-16
 31
0.0
  0
ENDBLK
  5
10022
330
10020
100
AcDbEntity
  8
0
100
AcDbBlockEnd
  0
BLOCK
  5
10026
330
10025
100
AcDbEntity
  8
0
100
AcDbBlockBegin
  2
_SMALL
 70
0
 10
0.0
 20
0.0
 30
0.0
  3
_SMALL
  1

  0
CIRCLE
  5
10028
330
10025
100
AcDbEntity
  8
0
  6
BYBLOCK
 62
0
100
AcDbCircle
 10
0.0
 20
0.0
 30
0.0
 40
0.25
  0
ENDBLK
  5
10027
330
10025
100
AcDbEntity
  8
0
100
AcDbBlockEnd
  0
BLOCK
  5
1002A
330
10029
100
AcDbEntity
  8
0
100
AcDbBlockBegin
  2
_ARCHTICK
 70
0
 10
0.0
 20
0.0
 30
0.0
  3
_ARCHTICK
  1

  0
LWPOLYLINE
  5
1002C
330
10029
100
AcDbEntity
  8
0
  6
BYBLOCK
 62
0
100
AcDbPolyline
 90
2
 70
0
 43
0.15
 10
-0.5
 20
-0.5000000000000001
 10
0.5000000000000001
 20
0.5
  0
ENDBLK
  5
1002B
330
10029
100
AcDbEntity
  8
0
100
AcDbBlockEnd
  0
BLOCK
  5
1002E
330
1002D
100
AcDbEntity
  8
0
100
AcDbBlockBegin
  2
_DATUMFILLED
 70
0
 10
0.0
 20
0.0
 30
0.0
  3
_DATUMFILLED
  1

  0
SOLID
  5
10030
330
1002D
100
AcDbEntity
  8
0
  6
BYBLOCK
 62
0
100
AcDbTrace
 10
3.5352507945885664e-17
 20
0.577350269
 30
0.0
 11
3.5352507945885664e-17
 21
-0.577350269
 31
0.0
 12
-1.0
 22
1.2246467991473532e-16
 32
0.0
 13
-1.0
 23
1.2246467991473532e-16
 33
0.0
  0
ENDBLK
  5
1002F
330
1002D
100
AcDbEntity
  8
0
100
AcDbBlockEnd
  0
BLOCK
  5
10032
330
10031
100
AcDbEntity
  8
0
100
AcDbBlockBegin
  2
_CLOSEDBLANK
 70
0
 10
0.0
 20
0.0
 30
0.0
  3
_CLOSEDBLANK
  1

  0
LWPOLYLINE
  5
10034
330
10031
100
AcDbEntity
  8
0
  6
BYBLOCK
 62
0
100
AcDbPolyline
 90
3
 70
1
 10
-1.0
 20
0.1643989837240255
 10
0.0
 20
0.0
 10
-1.0
 20
-0.1643989837240255
  0
ENDBLK
  5
10033
330
10031
100
AcDbEntity
  8
0
100
AcDbBlockEnd
  0
BLOCK
  5
10036
330
10035
100
AcDbEntity
  8
0
100
AcDbBlockBegin
  2
_CLOSED
 70
0
 10
0.0
 20
0.0
 30
0.0
  3
_CLOSED
  1

  0
LWPOLYLINE
  5
10038
330
10035
100
AcDbEntity
  8
0
  6
BYBLOCK
 62
0
100
AcDbPolyline
 90
3
 70
1
 10
-1.0
 20
0.1643989837240255
 10
0.0
 20
0.0
 10
-1.0
 20
-0.1643989837240255
  0
LINE
  5
10039
330
10035
100
AcDbEntity
  8
0
  6
BYBLOCK
 62
0
100
AcDbLine
 10
0.0
 20
0.0
 30
0.0
 11
-1.0
 21
0.0
 31
0.0
  0
ENDBLK
  5
10037
330
10035
100
AcDbEntity
  8
0
100
AcDbBlockEnd
  0
BLOCK
  5
1003B
330
1003A
100
AcDbEntity
  8
0
100
AcDbBlockBegin
  2
_ORIGIN2
 70
0
 10
0.0
 20
0.0
 30
0.0
  3
_ORIGIN2
  1

  0
CIRCLE
  5
1003D
330
1003A
100
AcDbEntity
  8
0
  6
BYBLOCK
 62
0
100
AcDbCircle
 10
0.0
 20
0.0
 30
0.0
 40
0.5
  0
CIRCLE
  5
1003E
330
1003A
100
AcDbEntity
  8
0
  6
BYBLOCK
 62
0
100
AcDbCircle
 10
0.0
 20
0.0
 30
0.0
 40
0.25
  0
LINE
  5
1003F
330
1003A
100
AcDbEntity
  8
0
  6
BYBLOCK
 62
0
100
AcDbLine
 10
-0.5
 20
6.123233995736766e-17
 30
0.0
 11
-1.0
 21
1.2246467991473532e-16
 31
0.0
  0
ENDBLK
  5
1003C
330
1003A
100
AcDbEntity
  8
0
100
AcDbBlockEnd
  0
BLOCK
  5
10041
330
10040
100
AcDbEntity
  8
0
100
AcDbBlockBegin
  2
_BOXFILLED
 70
0
 10
0.0
 20
0.0
 30
0.0
  3
_BOXFILLED
  1

  0
SOLID
  5
10043
330
10040
100
AcDbEntity
  8
0
  6
BYBLOCK
 62
0
100
AcDbTrace
 10
-0.5
 20
-0.5000000000000001
 30
0.0
 11
0.5000000000000001
 21
-0.5
 31
0.0
 12
-0.5
 22
0.5000000000000001
 32
0.0
 13
0.5000000000000001
 23
0.5
 33
0.0
  0
LINE
  5
10044
330
10040
100
AcDbEntity
  8
0
  6
BYBLOCK
 62
0
100
AcDbLine
 10
-0.5
 20
6.123233995736766e-17
 30
0.0
 11
-1.0
 21
1.2246467991473532e-16
 31
0.0
  0
ENDBLK
  5
10042
330
10040
100
AcDbEntity
  8
0
100
AcDbBlockEnd
  0
BLOCK
  5
10046
330
10045
100
AcDbEntity
  8
0
100
AcDbBlockBegin
  2
_DOTBLANK
 70
0
 10
0.0
 20
0.0
 30
0.0
  3
_DOTBLANK
  1

  0
CIRCLE
  5
10048
330
10045
100
AcDbEntity
  8
0
  6
BYBLOCK
 62
0
100
AcDbCircle
 10
0.0
 20
0.0
 30
0.0
 40
0.5
  0
LINE
  5
10049
330
10045
100
AcDbEntity
  8
0
  6
BYBLOCK
 62
0
100
AcDbLine
 10
-0.5
 20
6.123233995736766e-17
 30
0.0
 11
-1.0
 21
1.2246467991473532e-16
 31
0.0
  0
ENDBLK
  5
10047
330
10045
100
AcDbEntity
  8
0
100
AcDbBlockEnd
  0
BLOCK
  5
1004B
330
1004A
100
AcDbEntity
  8
0
100
AcDbBlockBegin
  2
_DOTSMALL
 70
0
 10
0.0
 20
0.0
 30
0.0
  3
_DOTSMALL
  1

  0
LWPOLYLINE
  5
1004D
330
1004A
100
AcDbEntity
  8
0
  6
BYBLOCK
 62
0
100
AcDbPolyline
 90
2
 70
1
 43
0.125
 10
-0.0625
 20
0.0
 42
1.0
 10
0.0625
 20
0.0
 42
1.0
  0
ENDBLK
  5
1004C
330
1004A
100
AcDbEntity
  8
0
100
AcDbBlockEnd
  0
BLOCK
  5
1004F
330
1004E
100
AcDbEntity
  8
0
100
AcDbBlockBegin
  2
_INTEGRAL
 70
0
 10
0.0
 20
0.0
 30
0.0
  3
_INTEGRAL
  1

  0
ARC
  5
10051
330
1004E
100
AcDbEntity
  8
0
  6
BYBLOCK
 62
0
100
AcDbCircle
 10
-0.3535534
 20
4.329780396376638e-17
 30
0.0
 40
0.3535534
100
AcDbArc
 50
-90.0
 51
0.0
  0
ARC
  5
10052
330
1004E
100
AcDbEntity
  8
0
  6
BYBLOCK
 62
0
100
AcDbCircle
 10
0.3535534
 20
0.0
 30
0.0
 40
0.3535534
100
AcDbArc
 50
90.0
 51
180.0
  0
ENDBLK
  5
10050
330
1004E
100
AcDbEntity
  8
0
100
AcDbBlockEnd
  0
BLOCK
  5
10054
330
10053
100
AcDbEntity
  8
0
100
AcDbBlockBegin
  2
_NONE
 70
0
 10
0.0
 20
0.0
 30
0.0
  3
_NONE
  1

  0
ENDBLK
  5
10055
330
10053
100
AcDbEntity
  8
0
100
AcDbBlockEnd
  0
BLOCK
  5
10057
330
10056
100
AcDbEntity
  8
0
100
AcDbBlockBegin
  2
_OBLIQUE
 70
0
 10
0.0
 20
0.0
 30
0.0
  3
_OBLIQUE
  1

  0
LINE
  5
10059
330
10056
100
AcDbEntity
  8
0
  6
BYBLOCK
 62
0
100
AcDbLine
 10
-0.5
 20
-0.5000000000000001
 30
0.0
 11
0.5000000000000001
 21
0.5
 31
0.0
  0
ENDBLK
  5
10058
330
10056
100
AcDbEntity
  8
0
100
AcDbBlockEnd
  0
ENDSEC
  0
SECTION
  2
ENTITIES
  0
SPLINE
  5
100
330
1F
100
AcDbEntity
  8
0
100
AcDbSpline
 70
0
 71
3
 72
26
 73
22
 74
0
 42
1e-09
 40
-1.001564363902407
 40
-1.001564363902407
 40
-1.001564363902407
 40
-1.001564363902407
 40
-1.0
 40
-1.0
 40
-1.0
 40
-0.75
 40
-0.75
 40
-0.75
 40
-0.5212968499989032
 40
-0.5212968499989032
 40
-0.5212968499989032
 40
-0.33916169015215036
 40
-0.33916169015215036
 40
-0.33916169015215036
 40
-0.1050359596913144
 40
-0.1050359596913144
 40
-0.1050359596913144
 40
0.0
 40
0.0
 40
0.0
 40
0.0004243032134760132
 40
0.0004243032134760132
 40
0.0004243032134760132
 40
0.0004243032134760132
 10
30.287816975958787
 20
-7.002005166135879
 30
0.0
 10
30.2731632493352
 20
-6.988569911147534
 30
1.4210854715202004e-13
 10
30.25850952271162
 20
-6.975134656159119
 30
0.0
 10
30.243855796088045
 20
-6.9616994011707565
 30
0.0
 10
27.90733868051594
 20
-4.819465958522644
 30
0.0
 10
24.294708987243247
 20
-3.379719541342621
 30
0.0
 10
19.489403354620446
 20
-2.7015206319581324
 30
-1.4210854715202004e-13
 10
15.09344921502506
 20
-2.0810957243440042
 30
-1.4210854715202004e-13
 10
9.69552316881906
 20
-2.1170464003767844
 30
0.0
 10
4.166740431149825
 20
-2.7153091314152977
 30
0.0
 10
-0.23628474659051357
 20
-3.191755031471875
 30
0.0
 10
-4.675141717478723
 20
-4.027373343653049
 30
-1.4210854715202004e-13
 10
-8.808907549186099
 20
-4.99741992640085
 30
0.0
 10
-14.122658862863544
 20
-6.244366781461505
 30
-1.4210854715202004e-13
 10
-18.92799764599306
 20
-7.685723347163821
 30
0.0
 10
-23.547688886679516
 20
-8.458235780302845
 30
1.4210854715202004e-13
 10
-25.620223596930977
 20
-8.804808472798056
 30
1.4210854715202004e-13
 10
-27.664418116459288
 20
-9.0169463197718
 30
0.0
 10
-29.70214338225395
 20
-9.06223585136124
 30
-1.4210854715202004e-13
 10
-29.710369642941355
 20
-9.062418684395428
 30
1.4210854715202004e-13
 10
-29.718595903628753
 20
-9.062601517429668
 30
1.4210854715202004e-13
 10
-29.726822164316133
 20
-9.06278435046391
 30
0.0
  0
LINE
  5
101
330
1F
100
AcDbEntity
  8
0
100
AcDbLine
 10
30.287816975958787
 20
-7.002005166135879
 30
0.0
 11
30.171594682485896
 21
-3.673834133125146
 31
1.3877787807892835e-16
  0
LINE
  5
102
330
1F
100
AcDbEntity
  8
0
100
AcDbLine
 10
30.171594682485896
 20
-3.673834133125146
 30
1.4210854715202004e-13
 11
32.17037633652409
 21
-3.604035139720118
 31
1.4210854715202004e-13
  0
LINE
  5
103
330
1F
100
AcDbEntity
  8
0
100
AcDbLine
 10
32.17037633652409
 20
-3.6040351397201444
 30
1.4210854715202004e-13
 11
31.933087918380267
 21
3.191016103348937
 31
1.4238610290817633e-13
  0
LINE
  5
104
330
1F
100
AcDbEntity
  8
0
100
AcDbLine
 10
31.933087918380263
 20
3.1910161033489644
 30
0.0
 11
29.934306264342066
 21
3.1212171099439536
 31
-1.5777218104420236e-29
  0
LINE
  5
105
330
1F
100
AcDbEntity
  8
0
100
AcDbLine
 10
29.93430626434207
 20
3.1212171099439447
 30
0.0
 11
29.833706002528675
 21
6.0020316875593105
 31
1.7242748920674953e-27
  0
SPLINE
  5
106
330
1F
100
AcDbEntity
  8
0
100
AcDbSpline
 70
0
 71
3
 72
29
 73
25
 74
0
 42
1e-09
 40
0.0005523617410214727
 40
0.0005523617410214727
 40
0.0005523617410214727
 40
0.0005523617410214727
 40
0.0005559461160340893
 40
0.0005559461160340893
 40
0.0005559461160340893
 40
0.1449260704727426
 40
0.1449260704727426
 40
0.1449260704727426
 40
0.30664233363616544
 40
0.30664233363616544
 40
0.30664233363616544
 40
0.4624924545338369
 40
0.4624924545338369
 40
0.4624924545338369
 40
0.6871994166853629
 40
0.6871994166853629
 40
0.6871994166853629
 40
0.887371680841745
 40
0.887371680841745
 40
0.887371680841745
 40
1.0
 40
1.0
 40
1.0
 40
1.0004495151447435
 40
1.0004495151447435
 40
1.0004495151447435
 40
1.0004495151447435
 10
-30.249014550433255
 20
6.978542635594476
 30
0.0
 10
-30.248986526740808
 20
6.978543579463927
 30
0.0
 10
-30.248958503070387
 20
6.97854452333268
 30
0.0
 10
-30.248930479395565
 20
6.978545467201586
 30
0.0
 10
-29.112898028957325
 20
7.016808318376084
 30
-1.4210854715202004e-13
 10
-27.17660474423094
 20
6.538739814694542
 30
0.0
 10
-24.623620886715898
 20
5.859063575897473
 30
0.0
 10
-21.763894809776428
 20
5.097723915153979
 30
1.4210854715202004e-13
 10
-18.15753198181648
 20
4.14620729330515
 30
0.0
 10
-14.293304477630173
 20
3.616078224327064
 30
0.0
 10
-10.569249073907748
 20
3.105179209747937
 30
0.0
 10
-6.615647223993234
 20
2.9956903762694727
 30
1.4210854715202004e-13
 10
-2.738144750396517
 20
3.2575000315866336
 30
-1.4210854715202004e-13
 10
2.8524944904227274
 20
3.6349809855275232
 30
-1.4210854715202004e-13
 10
8.269309474806583
 20
4.727025429183303
 30
1.4210854715202004e-13
 10
13.091702801947122
 20
5.519533963231035
 30
-1.4210854715202004e-13
 10
17.387561647190267
 20
6.225512211989633
 30
0.0
 10
21.228877300330254
 20
6.657411324615282
 30
-1.4210854715202004e-13
 10
24.588341102352075
 20
6.581666643096111
 30
0.0
 10
26.47856681813417
 20
6.5390483702766575
 30
0.0
 10
28.219678952388772
 20
6.347193271391318
 30
0.0
 10
29.814630094100508
 20
6.006111093022527
 30
0.0
 10
29.82098873024323
 20
6.0047512912014405
 30
1.4210854715202004e-13
 10
29.827347366385954
 20
6.0033914893803715
 30
-1.4210854715202004e-13
 10
29.833706002528668
 20
6.002031687559337
 30
0.0
  0
LINE
  5
107
330
1F
100
AcDbEntity
  8
0
100
AcDbLine
 10
-30.249014550433255
 20
6.978542635594476
 30
0.0
 11
-30.28695138388171
 21
6.9772178521778505
 31
9.860761315262648e-31
  0
LINE
  5
108
330
1F
100
AcDbEntity
  8
0
100
AcDbLine
 10
-30.286951383881707
 20
6.977217852177806
 30
0.0
 11
-30.147351644683916
 21
2.979604362280308
 31
1.421085471520213e-13
  0
LINE
  5
109
330
1F
100
AcDbEntity
  8
0
100
AcDbLine
 10
-30.147351644683912
 20
2.979604362280263
 30
0.0
 11
-32.14613329872212
 21
2.9098053688753054
 31
-1.5777218104420236e-29
  0
LINE
  5
110
330
1F
100
AcDbEntity
  8
0
100
AcDbLine
 10
-32.14613329872212
 20
2.9098053688752965
 30
0.0
 11
-31.865192350266973
 21
-5.135290788628393
 31
-1.2540181033218146e-27
  0
LINE
  5
111
330
1F
100
AcDbEntity
  8
0
100
AcDbLine
 10
-31.865192350266977
 20
-5.135290788628367
 30
0.0
 11
-29.866410696228783
 21
-5.065491795223375
 31
0.0
  0
LINE
  5
112
330
1F
100
AcDbEntity
  8
0
100
AcDbLine
 10
-29.866410696228787
 20
-5.065491795223366
 30
0.0
 11
-29.726822164316154
 21
-9.062784350463883
 31
-1.3877787807814457e-16
  0
ENDSEC
  0
SECTION
  2
OBJECTS
  0
DICTIONARY
  5
C
330
None
100
AcDbDictionary
281
1
  3
ACAD_GROUP
350
D
  3
ACAD_MLINESTYLE
350
17
  3
ACAD_COLOR
350
1005A
  3
ACAD_LAYOUT
350
1005B
  3
ACAD_MATERIAL
350
1005C
  3
ACAD_MLEADERSTYLE
350
1005D
  3
ACAD_PLOTSETTINGS
350
1005E
  3
ACAD_PLOTSTYLENAME
350
1005F
  3
ACAD_SCALELIST
350
10061
  3
ACAD_TABLESTYLE
350
10062
  3
ACAD_VISUALSTYLE
350
10063
  0
DICTIONARY
  5
D
330
None
100
AcDbDictionary
281
1
  0
DICTIONARY
  5
1A
330
C
100
AcDbDictionary
281
1
  0
DICTIONARY
  5
17
330
None
100
AcDbDictionary
281
1
  3
Standard
350
10069
  0
DICTIONARY
  5
1005A
330
C
100
AcDbDictionary
281
1
  0
DICTIONARY
  5
1005B
330
C
100
AcDbDictionary
281
1
  3
Model
350
10064
  3
Layout1
350
10065
  0
DICTIONARY
  5
1005C
330
C
100
AcDbDictionary
281
1
  3
ByBlock
350
10066
  3
ByLayer
350
10067
  3
Global
350
10068
  0
DICTIONARY
  5
1005D
330
C
100
AcDbDictionary
281
1
  3
Standard
350
1006E
  0
DICTIONARY
  5
1005E
330
C
100
AcDbDictionary
281
1
  0
ACDBDICTIONARYWDFLT
  5
1005F
330
C
100
AcDbDictionary
281
1
  3
Normal
350
10060
100
AcDbDictionaryWithDefault
340
10060
  0
ACDBPLACEHOLDER
  5
10060
330
1005F
  0
DICTIONARY
  5
10061
330
C
100
AcDbDictionary
281
1
  0
DICTIONARY
  5
10062
330
C
100
AcDbDictionary
281
1
  0
DICTIONARY
  5
10063
330
C
100
AcDbDictionary
281
1
  0
LAYOUT
  5
10064
330
1005B
100
AcDbPlotSettings
  1

  2
Adobe PDF
  4
A4
  6

 40
3.175
 41
3.175
 42
3.175
 43
3.175
 44
209.91
 45
297.03
 46
0.0
 47
0.0
 48
0.0
 49
0.0
140
0.0
141
0.0
142
1.0
143
1.0
 70
1024
 72
0
 73
1
 74
5
  7

 75
16
 76
0
 77
2
 78
300
147
1.0
148
0.0
149
0.0
100
AcDbLayout
  1
Model
 70
1
 71
0
 10
-3.175
 20
-3.175
 11
293.857
 21
206.735
 12
0.0
 22
0.0
 32
0.0
 14
29.068
 24
20.356
 34
0.0
 15
261.614
 25
183.204
 35
0.0
146
0.0
 13
0.0
 23
0.0
 33
0.0
 16
1.0
 26
0.0
 36
0.0
 17
0.0
 27
1.0
 37
0.0
 76
1
330
1F
  0
LAYOUT
  5
10065
330
1005B
100
AcDbPlotSettings
  1

  2
Adobe PDF
  4
A4
  6

 40
3.175
 41
3.175
 42
3.175
 43
3.175
 44
209.91
 45
297.03
 46
0.0
 47
0.0
 48
0.0
 49
0.0
140
0.0
141
0.0
142
1.0
143
1.0
 70
0
 72
0
 73
1
 74
5
  7

 75
16
 76
0
 77
2
 78
300
147
1.0
148
0.0
149
0.0
100
AcDbLayout
  1
Layout1
 70
1
 71
1
 10
-3.175
 20
-3.175
 11
293.857
 21
206.735
 12
0.0
 22
0.0
 32
0.0
 14
29.068
 24
20.356
 34
0.0
 15
261.614
 25
183.204
 35
0.0
146
0.0
 13
0.0
 23
0.0
 33
0.0
 16
1.0
 26
0.0
 36
0.0
 17
0.0
 27
1.0
 37
0.0
 76
1
330
1B
  0
MATERIAL
  5
10066
102
{ACAD_REACTORS
330
1005C
102
}
330
1005C
100
AcDbMaterial
  1
ByBlock
  2

 70
0
 40
1.0
 71
1
 41
1.0
 91
-1023410177
 42
1.0
 72
1
  3

 73
1
 74
1
 75
1
 44
0.5
 73
0
 45
1.0
 46
1.0
 77
1
  4

 78
1
 79
1
170
1
 48
1.0
171
1
  6

172
1
173
1
174
1
140
1.0
141
1.0
175
1
  7

176
1
177
1
178
1
143
1.0
179
1
  8

270
1
271
1
272
1
145
1.0
146
1.0
273
1
  9

274
1
275
1
276
1
 42
1.0
 72
1
  3

 73
1
 74
1
 75
1
 94
63
  0
MATERIAL
  5
10067
102
{ACAD_REACTORS
330
1005C
102
}
330
1005C
100
AcDbMaterial
  1
ByLayer
  2

 70
0
 40
1.0
 71
1
 41
1.0
 91
-1023410177
 42
1.0
 72
1
  3

 73
1
 74
1
 75
1
 44
0.5
 73
0
 45
1.0
 46
1.0
 77
1
  4

 78
1
 79
1
170
1
 48
1.0
171
1
  6

172
1
173
1
174
1
140
1.0
141
1.0
175
1
  7

176
1
177
1
178
1
143
1.0
179
1
  8

270
1
271
1
272
1
145
1.0
146
1.0
273
1
  9

274
1
275
1
276
1
 42
1.0
 72
1
  3

 73
1
 74
1
 75
1
 94
63
  0
MATERIAL
  5
10068
102
{ACAD_REACTORS
330
1005C
102
}
330
1005C
100
AcDbMaterial
  1
Global
  2

 70
0
 40
1.0
 71
1
 41
1.0
 91
-1023410177
 42
1.0
 72
1
  3

 73
1
 74
1
 75
1
 44
0.5
 73
0
 45
1.0
 46
1.0
 77
1
  4

 78
1
 79
1
170
1
 48
1.0
171
1
  6

172
1
173
1
174
1
140
1.0
141
1.0
175
1
  7

176
1
177
1
178
1
143
1.0
179
1
  8

270
1
271
1
272
1
145
1.0
146
1.0
273
1
  9

274
1
275
1
276
1
 42
1.0
 72
1
  3

 73
1
 74
1
 75
1
 94
63
  0
MLINESTYLE
  5
10069
102
{ACAD_REACTORS
330
17
102
}
330
17
100
AcDbMlineStyle
  2
Standard
 70
0
  3

 62
256
 51
90.0
 52
90.0
 71
2
 49
0.5
 62
256
  6
BYLAYER
 49
-0.5
 62
256
  6
BYLAYER
  0
MLEADERSTYLE
  5
1006E
102
{ACAD_REACTORS
330
1005D
102
}
330
1005D
100
AcDbMLeaderStyle
179
2
170
2
171
1
172
0
 90
2
 40
0.0
 41
0.0
173
1
 91
-1056964608
 92
-2
290
1
 42
2.0
291
1
 43
8.0
  3
Standard
 44
4.0
300

342
11
174
1
175
1
176
0
178
1
 93
-1056964608
 45
4.0
292
0
297
0
 46
4.0
 94
-1056964608
 47
1.0
 49
1.0
140
1.0
294
1
141
0.0
177
0
142
1.0
295
0
296
0
143
3.75
271
0
272
9
273
9
  0
ENDSEC
  0
EOF
