0
SECTION
2
HEADER
9
$INSUNITS
70
4
9
$ACADVER
1
AC1014
9
$HANDSEED
5
FFFF
0
ENDSEC
0
SECTION
2
TABLES
0
TABLE
2
VPORT
5
8
100
AcDbSymbolTable
0
ENDTAB
0
TABLE
2
LTYPE
5
5
100
AcDbSymbolTable
0
LTYPE
5
14
100
AcDbSymbolTableRecord
100
AcDbLinetypeTableRecord
2
BYBLOCK
70
0
0
LTYPE
5
15
100
AcDbSymbolTableRecord
100
AcDbLinetypeTableRecord
2
BYLAYER
70
0
0
ENDTAB
0
TABLE
2
LAYER
5
2
100
AcDbSymbolTable
70
2
0
LAYER
5
50
100
AcDbSymbolTableRecord
100
AcDbLayerTableRecord
2
0
70
0
6
CONTINUOUS
0
ENDTAB
0
TABLE
2
STYLE
5
3
100
AcDbSymbolTable
70
1
0
STYLE
5
11
100
AcDbSymbolTableRecord
100
AcDbTextStyleTableRecord
2
STANDARD
70
0
0
ENDTAB
0
TABLE
2
VIEW
5
6
100
AcDbSymbolTable
70
0
0
ENDTAB
0
TABLE
2
UCS
5
7
100
AcDbSymbolTable
70
0
0
ENDTAB
0
TABLE
2
APPID
5
9
100
AcDbSymbolTable
70
2
0
APPID
5
12
100
AcDbSymbolTableRecord
100
AcDbRegAppTableRecord
2
ACAD
70
0
0
ENDTAB
0
TABLE
2
DIMSTYLE
5
A
100
AcDbSymbolTable
70
1
0
ENDTAB
0
TABLE
2
BLOCK_RECORD
5
1
100
AcDbSymbolTable
70
1
0
BLOCK_RECORD
5
1F
100
AcDbSymbolTableRecord
100
AcDbBlockTableRecord
2
*MODEL_SPACE
0
BLOCK_RECORD
5
1B
100
AcDbSymbolTableRecord
100
AcDbBlockTableRecord
2
*PAPER_SPACE
0
ENDTAB
0
ENDSEC
0
SECTION
2
BLOCKS
0
BLOCK
5
20
100
AcDbEntity
100
AcDbBlockBegin
2
*MODEL_SPACE
0
ENDBLK
5
21
100
AcDbEntity
100
AcDbBlockEnd
0
BLOCK
5
1C
100
AcDbEntity
100
AcDbBlockBegin
2
*PAPER_SPACE
0
ENDBLK
5
1D
100
AcDbEntity
100
AcDbBlockEnd
0
ENDSEC
0
SECTION
2
ENTITIES
0
LINE
5
100
100
AcDbEntity
8
0
100
AcDbLine
10
5.2359734492545584
20
-12.024999999999999
30
0
11
5.2359734492545584
21
-10.024999999999999
31
-1.5777218104420236e-29
0
LINE
5
101
100
AcDbEntity
8
0
100
AcDbLine
10
5.2359734492544874
20
-10.024999999999999
30
0
11
10.489635723202824
21
-10.025000000000006
31
1.3877787807821332e-16
0
SPLINE
5
102
100
AcDbEntity
8
0
100
AcDbSpline
70
0
71
3
72
17
73
13
74
0
42
0.000000001
43
0.0000000001
44
0.0000000001
40
0.029036729470352424
40
0.029036729470352424
40
0.029036729470352424
40
0.029036729470352424
40
0.029674405953807322
40
0.029674405953807322
40
0.029674405953807322
40
0.51483720297690361
40
0.51483720297690361
40
0.51483720297690361
40
1
40
1
40
1
40
1.0010964229216432
40
1.0010964229216432
40
1.0010964229216432
40
1.0010964229216432
10
20.09816248726338
20
7.8376640243662754
30
-2.8421709430404007e-13
10
20.091091949595423
20
7.836580069339103
30
-1.4210854715202004e-13
10
20.084021411927466
20
7.8354961143119306
30
-1.4210854715202004e-13
10
20.076950874259509
20
7.8344121592847582
30
-1.4210854715202004e-13
10
14.701019543630736
20
7.0102502545997192
30
-1.4210854715202004e-13
10
10.915920428356785
20
5.2837105828695252
30
-1.4210854715202004e-13
10
9.3303534011371525
20
2.3109940278607866
30
0
10
7.7447863739175205
20
-0.6617225271479521
30
-1.4210854715202004e-13
10
8.3218540901513904
20
-4.8753492954851874
30
0
10
10.475028702339912
20
-9.9903004462576117
30
0
10
10.479897709294264
20
-10.001866964171754
30
0
10
10.484766716248544
20
-10.013433482085896
30
0
10
10.489635723202788
20
-10.024999999999984
30
0
0
LINE
5
103
100
AcDbEntity
8
0
100
AcDbLine
10
20.09816248726338
20
7.8376640243662754
30
-2.8421709430404007e-13
11
20.098162487263522
21
12.025000000000002
31
-2.8421709430404007e-13
0
LINE
5
104
100
AcDbEntity
8
0
100
AcDbLine
10
20.098162487263522
20
12.025000000000002
30
-1.4210854715202004e-13
11
16.078386507661335
21
12.024999999999991
31
-1.4217793609105901e-13
0
LINE
5
105
100
AcDbEntity
8
0
100
AcDbLine
10
16.078386507661406
20
12.024999999999991
30
0
11
16.078386507661406
21
10.024999999999991
31
0
0
LINE
5
106
100
AcDbEntity
8
0
100
AcDbLine
10
16.078386507661335
20
10.024999999999991
30
0
11
4.0314440917735439
21
10.024999999999991
31
2.9635587996965398e-44
0
LINE
5
107
100
AcDbEntity
8
0
100
AcDbLine
10
4.0314440917735439
20
10.024999999999991
30
-1.4210854715202004e-13
11
4.0314440917735439
21
12.025000000000002
31
-1.4210854715202004e-13
0
LINE
5
108
100
AcDbEntity
8
0
100
AcDbLine
10
4.0314440917735794
20
12.025000000000002
30
-1.4210854715202004e-13
11
-3.9216134923386647
21
12.024999999999991
31
-1.4210854715201994e-13
0
LINE
5
109
100
AcDbEntity
8
0
100
AcDbLine
10
-3.9216134923386647
20
12.024999999999991
30
-1.4210854715202004e-13
11
-3.9216134923386647
21
10.024999999999999
31
-1.4210854715202004e-13
0
LINE
5
110
100
AcDbEntity
8
0
100
AcDbLine
10
-3.9216134923387003
20
10.024999999999999
30
-1.4210854715202004e-13
11
-15.968555908226529
21
10.024999999999999
31
-1.4210854715202004e-13
0
LINE
5
111
100
AcDbEntity
8
0
100
AcDbLine
10
-15.968555908226527
20
10.024999999999999
30
0
11
-15.968555908226492
21
12.025000000000002
31
0
0
LINE
5
112
100
AcDbEntity
8
0
100
AcDbLine
10
-15.968555908226456
20
12.025000000000002
30
0
11
-20.098162487263558
21
12.024999999999991
31
9.16818926499926e-29
0
LINE
5
113
100
AcDbEntity
8
0
100
AcDbLine
10
-20.098162487263558
20
12.024999999999991
30
-1.4210854715202004e-13
11
-20.098162487263522
21
7.9817115739539402
31
-1.4210854715202004e-13
0
SPLINE
5
114
100
AcDbEntity
8
0
100
AcDbSpline
70
0
71
3
72
17
73
13
74
0
42
0.000000001
43
0.0000000001
44
0.0000000001
40
-0.00056196282707968019
40
-0.00056196282707968019
40
-0.00056196282707968019
40
-0.00056196282707968019
40
0
40
0
40
0
40
0.5
40
0.5
40
0.5
40
1
40
1
40
1
40
1.001322515375479
40
1.001322515375479
40
1.001322515375479
40
1.001322515375479
10
-20.098162487263629
20
7.9817115739540068
30
-1.4210854715202004e-13
10
-20.092352548133476
20
7.9798656176231963
30
-1.4210854715202004e-13
10
-20.086542609003253
20
7.9780196612923815
30
-1.4210854715202004e-13
10
-20.080732669872994
20
7.9761737049615666
30
-1.4210854715202004e-13
10
-14.914349425799855
20
6.3346904392959225
30
0
10
-11.164117050463602
20
4.14258504073727
30
-1.4210854715202004e-13
10
-9.4452117683727366
20
1.1656118616709854
30
0
10
-7.7263064862815511
20
-1.8113613173952947
30
0
10
-8.0759140791874628
20
-5.5973662102305877
30
-1.4210854715202004e-13
10
-9.9675351712914306
20
-9.9901122188224445
30
0
10
-9.972543007893151
20
-10.001741479214971
30
0
10
-9.9775508444949068
20
-10.013370739607499
30
0
10
-9.9825586810966627
20
-10.025000000000045
30
0
0
LINE
5
115
100
AcDbEntity
8
0
100
AcDbLine
10
-9.9825586810966627
20
-10.025000000000047
30
0
11
-5.0672169314653814
21
-10.024999999999999
31
-4.813299364124611e-28
0
LINE
5
116
100
AcDbEntity
8
0
100
AcDbLine
10
-5.067216931465417
20
-10.024999999999999
30
0
11
-5.0672169314653814
21
-12.024999999999999
31
-3.944304526105059e-30
0
LINE
5
117
100
AcDbEntity
8
0
100
AcDbLine
10
-5.0672169314653459
20
-12.024999999999999
30
0
11
5.2359734492545229
21
-12.024999999999999
31
-1.2271578569760092e-44
0
ENDSEC
0
SECTION
2
OBJECTS
0
DICTIONARY
5
C
100
AcDbDictionary
3
ACAD_GROUP
350
D
3
ACAD_MLINESTYLE
350
17
0
DICTIONARY
5
D
100
AcDbDictionary
0
DICTIONARY
5
1A
330
C
100
AcDbDictionary
0
DICTIONARY
5
17
100
AcDbDictionary
0
ENDSEC
0
EOF
