0
SECTION
2
HEADER
9
$INSUNITS
70
4
9
$ACADVER
1
AC1014
9
$HANDSEED
5
FFFF
0
ENDSEC
0
SECTION
2
TABLES
0
TABLE
2
VPORT
5
8
100
AcDbSymbolTable
0
ENDTAB
0
TABLE
2
LTYPE
5
5
100
AcDbSymbolTable
0
LTYPE
5
14
100
AcDbSymbolTableRecord
100
AcDbLinetypeTableRecord
2
BYBLOCK
70
0
0
LTYPE
5
15
100
AcDbSymbolTableRecord
100
AcDbLinetypeTableRecord
2
BYLAYER
70
0
0
ENDTAB
0
TABLE
2
LAYER
5
2
100
AcDbSymbolTable
70
2
0
LAYER
5
50
100
AcDbSymbolTableRecord
100
AcDbLayerTableRecord
2
0
70
0
6
CONTINUOUS
0
ENDTAB
0
TABLE
2
STYLE
5
3
100
AcDbSymbolTable
70
1
0
STYLE
5
11
100
AcDbSymbolTableRecord
100
AcDbTextStyleTableRecord
2
STANDARD
70
0
0
ENDTAB
0
TABLE
2
VIEW
5
6
100
AcDbSymbolTable
70
0
0
ENDTAB
0
TABLE
2
UCS
5
7
100
AcDbSymbolTable
70
0
0
ENDTAB
0
TABLE
2
APPID
5
9
100
AcDbSymbolTable
70
2
0
APPID
5
12
100
AcDbSymbolTableRecord
100
AcDbRegAppTableRecord
2
ACAD
70
0
0
ENDTAB
0
TABLE
2
DIMSTYLE
5
A
100
AcDbSymbolTable
70
1
0
ENDTAB
0
TABLE
2
BLOCK_RECORD
5
1
100
AcDbSymbolTable
70
1
0
BLOCK_RECORD
5
1F
100
AcDbSymbolTableRecord
100
AcDbBlockTableRecord
2
*MODEL_SPACE
0
BLOCK_RECORD
5
1B
100
AcDbSymbolTableRecord
100
AcDbBlockTableRecord
2
*PAPER_SPACE
0
ENDTAB
0
ENDSEC
0
SECTION
2
BLOCKS
0
BLOCK
5
20
100
AcDbEntity
100
AcDbBlockBegin
2
*MODEL_SPACE
0
ENDBLK
5
21
100
AcDbEntity
100
AcDbBlockEnd
0
BLOCK
5
1C
100
AcDbEntity
100
AcDbBlockBegin
2
*PAPER_SPACE
0
ENDBLK
5
1D
100
AcDbEntity
100
AcDbBlockEnd
0
ENDSEC
0
SECTION
2
ENTITIES
0
LINE
5
100
100
AcDbEntity
8
0
100
AcDbLine
10
2.2425565275841564
20
-45.005365058810341
30
0
11
6.1925565275841876
21
-45.005365058810341
31
0
0
LINE
5
101
100
AcDbEntity
8
0
100
AcDbLine
10
6.1925565275841876
20
-45.005365058810341
30
0
11
6.1925565275841876
21
-49.005365058810362
31
0
0
LINE
5
102
100
AcDbEntity
8
0
100
AcDbLine
10
6.1925565275841876
20
-49.005365058810362
30
0
11
15.904966093816313
21
-49.005365058810362
31
0
0
LINE
5
103
100
AcDbEntity
8
0
100
AcDbLine
10
15.904966093816313
20
-49.005365058810362
30
0
11
15.904966093816313
21
-36.622510356270162
31
0
0
LINE
5
104
100
AcDbEntity
8
0
100
AcDbLine
10
15.904966093816313
20
-36.622510356270162
30
0
11
11.904966093816327
21
-36.622510356270162
31
0
0
LINE
5
105
100
AcDbEntity
8
0
100
AcDbLine
10
11.904966093816327
20
-36.622510356270162
30
0
11
11.904966093816327
21
-32.672510356270166
31
0
0
LINE
5
106
100
AcDbEntity
8
0
100
AcDbLine
10
11.904966093816327
20
-32.672510356270166
30
0
11
15.904966093816313
21
-32.672510356270166
31
0
0
LINE
5
107
100
AcDbEntity
8
0
100
AcDbLine
10
15.904966093816313
20
-32.672510356270166
30
0
11
15.904966093816313
21
-6.4891017463495704
31
0
0
LINE
5
108
100
AcDbEntity
8
0
100
AcDbLine
10
15.904966093816313
20
-6.4891017463495704
30
0
11
11.904966093816327
21
-6.4891017463495704
31
0
0
LINE
5
109
100
AcDbEntity
8
0
100
AcDbLine
10
11.904966093816327
20
-6.4891017463495704
30
0
11
11.904966093816327
21
-2.5391017463495835
31
0
0
LINE
5
110
100
AcDbEntity
8
0
100
AcDbLine
10
11.904966093816327
20
-2.5391017463495835
30
0
11
15.904966093816313
21
-2.5391017463495835
31
0
0
LINE
5
111
100
AcDbEntity
8
0
100
AcDbLine
10
15.904966093816313
20
-2.5391017463495835
30
0
11
15.904966093816313
21
43.005365058810355
31
0
0
LINE
5
112
100
AcDbEntity
8
0
100
AcDbLine
10
15.904966093816313
20
43.005365058810355
30
0
11
11.904966093816327
21
43.005365058810355
31
0
0
LINE
5
113
100
AcDbEntity
8
0
100
AcDbLine
10
11.904966093816327
20
43.005365058810355
30
0
11
11.904966093816327
21
46.955365058810358
31
0
0
LINE
5
114
100
AcDbEntity
8
0
100
AcDbLine
10
11.904966093816327
20
46.955365058810344
30
0
11
15.904966093816313
21
46.955365058810344
31
0
0
LINE
5
115
100
AcDbEntity
8
0
100
AcDbLine
10
15.904966093816313
20
46.955365058810344
30
0
11
15.904966093816313
21
49.005365058810355
31
0
0
LINE
5
116
100
AcDbEntity
8
0
100
AcDbLine
10
15.904966093816313
20
49.005365058810355
30
0
11
-7.9049660938163413
21
49.005365058810355
31
0
0
LINE
5
117
100
AcDbEntity
8
0
100
AcDbLine
10
-7.9049660938163413
20
49.005365058810355
30
0
11
-7.9049660938163413
21
27.717729804730212
31
0
0
LINE
5
118
100
AcDbEntity
8
0
100
AcDbLine
10
-7.9049660938163413
20
27.717729804730212
30
0
11
-3.9049660938163555
21
27.717729804730212
31
0
0
LINE
5
119
100
AcDbEntity
8
0
100
AcDbLine
10
-3.9049660938163555
20
27.717729804730212
30
0
11
-3.9049660938163555
21
23.767729804730216
31
0
0
LINE
5
120
100
AcDbEntity
8
0
100
AcDbLine
10
-3.9049660938163555
20
23.767729804730216
30
0
11
-7.9049660938163413
21
23.767729804730216
31
0
0
LINE
5
121
100
AcDbEntity
8
0
100
AcDbLine
10
-7.9049660938163413
20
23.767729804730216
30
0
11
-7.9049660938163413
21
-2.5391017463495835
31
0
0
LINE
5
122
100
AcDbEntity
8
0
100
AcDbLine
10
-7.9049660938163413
20
-2.5391017463495835
30
0
11
-3.9049660938163555
21
-2.5391017463495835
31
0
0
LINE
5
123
100
AcDbEntity
8
0
100
AcDbLine
10
-3.9049660938163555
20
-2.5391017463495835
30
0
11
-3.9049660938163555
21
-6.4891017463495704
31
0
0
LINE
5
124
100
AcDbEntity
8
0
100
AcDbLine
10
-3.9049660938163555
20
-6.4891017463495704
30
0
11
-7.9049660938163413
21
-6.4891017463495704
31
0
0
LINE
5
125
100
AcDbEntity
8
0
100
AcDbLine
10
-7.9049660938163413
20
-6.4891017463495704
30
0
11
-7.9049660938163413
21
-42.955365058810322
31
0
0
LINE
5
126
100
AcDbEntity
8
0
100
AcDbLine
10
-7.9049660938163413
20
-42.955365058810322
30
0
11
-11.854966093816373
21
-42.955365058810322
31
0
0
LINE
5
127
100
AcDbEntity
8
0
100
AcDbLine
10
-11.854966093816373
20
-42.955365058810322
30
0
11
-11.854966093816373
21
-40.95536505881033
31
0
0
LINE
5
128
100
AcDbEntity
8
0
100
AcDbLine
10
-11.854966093816373
20
-40.95536505881033
30
0
11
-15.904966093816313
21
-40.95536505881033
31
0
0
LINE
5
129
100
AcDbEntity
8
0
100
AcDbLine
10
-15.904966093816313
20
-40.95536505881033
30
0
11
-15.904966093816313
21
-49.005365058810362
31
0
0
LINE
5
130
100
AcDbEntity
8
0
100
AcDbLine
10
-15.904966093816313
20
-49.005365058810362
30
0
11
-11.854966093816373
21
-49.005365058810362
31
0
0
LINE
5
131
100
AcDbEntity
8
0
100
AcDbLine
10
-11.854966093816373
20
-49.005365058810362
30
0
11
-11.854966093816373
21
-47.005365058810369
31
0
0
LINE
5
132
100
AcDbEntity
8
0
100
AcDbLine
10
-11.854966093816373
20
-47.005365058810369
30
0
11
-7.9049660938163413
21
-47.005365058810369
31
0
0
LINE
5
133
100
AcDbEntity
8
0
100
AcDbLine
10
-7.9049660938163413
20
-47.005365058810369
30
0
11
-7.9049660938163413
21
-49.005365058810362
31
0
0
LINE
5
134
100
AcDbEntity
8
0
100
AcDbLine
10
-7.9049660938163413
20
-49.005365058810362
30
0
11
2.2425565275841564
21
-49.005365058810362
31
0
0
LINE
5
135
100
AcDbEntity
8
0
100
AcDbLine
10
2.2425565275841564
20
-49.005365058810362
30
0
11
2.2425565275841564
21
-45.005365058810341
31
0
0
ENDSEC
0
SECTION
2
OBJECTS
0
DICTIONARY
5
C
100
AcDbDictionary
3
ACAD_GROUP
350
D
3
ACAD_MLINESTYLE
350
17
0
DICTIONARY
5
D
100
AcDbDictionary
0
DICTIONARY
5
1A
330
C
100
AcDbDictionary
0
DICTIONARY
5
17
100
AcDbDictionary
0
ENDSEC
0
EOF
