0
SECTION
2
HEADER
9
$INSUNITS
70
4
9
$ACADVER
1
AC1014
9
$HANDSEED
5
FFFF
0
ENDSEC
0
SECTION
2
TABLES
0
TABLE
2
VPORT
5
8
100
AcDbSymbolTable
0
ENDTAB
0
TABLE
2
LTYPE
5
5
100
AcDbSymbolTable
0
LTYPE
5
14
100
AcDbSymbolTableRecord
100
AcDbLinetypeTableRecord
2
BYBLOCK
70
0
0
LTYPE
5
15
100
AcDbSymbolTableRecord
100
AcDbLinetypeTableRecord
2
BYLAYER
70
0
0
ENDTAB
0
TABLE
2
LAYER
5
2
100
AcDbSymbolTable
70
2
0
LAYER
5
50
100
AcDbSymbolTableRecord
100
AcDbLayerTableRecord
2
0
70
0
6
CONTINUOUS
0
ENDTAB
0
TABLE
2
STYLE
5
3
100
AcDbSymbolTable
70
1
0
STYLE
5
11
100
AcDbSymbolTableRecord
100
AcDbTextStyleTableRecord
2
STANDARD
70
0
0
ENDTAB
0
TABLE
2
VIEW
5
6
100
AcDbSymbolTable
70
0
0
ENDTAB
0
TABLE
2
UCS
5
7
100
AcDbSymbolTable
70
0
0
ENDTAB
0
TABLE
2
APPID
5
9
100
AcDbSymbolTable
70
2
0
APPID
5
12
100
AcDbSymbolTableRecord
100
AcDbRegAppTableRecord
2
ACAD
70
0
0
ENDTAB
0
TABLE
2
DIMSTYLE
5
A
100
AcDbSymbolTable
70
1
0
ENDTAB
0
TABLE
2
BLOCK_RECORD
5
1
100
AcDbSymbolTable
70
1
0
BLOCK_RECORD
5
1F
100
AcDbSymbolTableRecord
100
AcDbBlockTableRecord
2
*MODEL_SPACE
0
BLOCK_RECORD
5
1B
100
AcDbSymbolTableRecord
100
AcDbBlockTableRecord
2
*PAPER_SPACE
0
ENDTAB
0
ENDSEC
0
SECTION
2
BLOCKS
0
BLOCK
5
20
100
AcDbEntity
100
AcDbBlockBegin
2
*MODEL_SPACE
0
ENDBLK
5
21
100
AcDbEntity
100
AcDbBlockEnd
0
BLOCK
5
1C
100
AcDbEntity
100
AcDbBlockBegin
2
*PAPER_SPACE
0
ENDBLK
5
1D
100
AcDbEntity
100
AcDbBlockEnd
0
ENDSEC
0
SECTION
2
ENTITIES
0
LINE
5
100
100
AcDbEntity
8
0
100
AcDbLine
10
30.025000000000006
20
0.42607671586752716
30
0
11
30.025000000000013
21
5.3702289352205845
31
0
0
SPLINE
5
101
100
AcDbEntity
8
0
100
AcDbSpline
70
0
71
3
72
32
73
28
74
0
42
0.000000001
43
0.0000000001
44
0.0000000001
40
-0.9418981554965854
40
-0.9418981554965854
40
-0.9418981554965854
40
-0.9418981554965854
40
-0.94013354197719956
40
-0.94013354197719956
40
-0.94013354197719956
40
-0.79764897360117926
40
-0.79764897360117926
40
-0.79764897360117926
40
-0.66687305527196605
40
-0.66687305527196605
40
-0.66687305527196605
40
-0.51773045542952956
40
-0.51773045542952956
40
-0.51773045542952956
40
-0.3645420044574138
40
-0.3645420044574138
40
-0.3645420044574138
40
-0.20858457464909513
40
-0.20858457464909513
40
-0.20858457464909513
40
-0.025892081454739119
40
-0.025892081454739119
40
-0.025892081454739119
40
0
40
0
40
0
40
0.0002641424510863397
40
0.0002641424510863397
40
0.0002641424510863397
40
0.0002641424510863397
10
30.025000000000006
20
5.3702289352205668
30
0
10
30.015898506502406
20
5.3693863794133456
30
0
10
30.00679701300481
20
5.3685438236061422
30
0
10
29.997695519507218
20
5.3677012677989211
30
0
10
29.259059484667066
20
5.2993232504175225
30
0
10
27.634266836264111
20
4.9427106727645764
30
0
10
25.421143518534635
20
4.7047429834798571
30
0
10
23.389883308740743
20
4.4863302567292429
30
0
10
20.897547398144908
20
4.421661234891392
30
0
10
18.219516880976016
20
4.7422426095501535
30
0
10
15.165373282592029
20
5.1078476864520539
30
0
10
11.868644307681624
20
5.9670716188718664
30
0
10
8.4170281584456053
20
6.9423441875284908
30
0
10
4.8717786334245439
20
7.9440733663542673
30
0
10
1.1389496228261198
20
9.0133776958380096
30
0
10
-2.7551556810413036
20
9.6227962351786012
30
0
10
-6.7196494189187916
20
10.243230402832655
30
0
10
-10.854938192496233
20
10.373262591216221
30
0
10
-14.908162212569431
20
10.025687234591487
30
0
10
-19.65621174514083
20
9.6185286365514067
30
0
10
-24.251275300218175
20
8.614423786672365
30
0
10
-28.311789955316442
20
7.3644746671241279
30
0
10
-28.887266124915367
20
7.1873257112379463
30
0
10
-29.452730130668982
20
7.0047197656145954
30
0
10
-30.008012402922333
20
6.8168434456223359
30
0
10
-30.013674935281571
20
6.8149275628458561
30
0
10
-30.019337467640828
20
6.8130116800693763
30
0
10
-30.025000000000137
20
6.8110957972928965
30
0
0
LINE
5
102
100
AcDbEntity
8
0
100
AcDbLine
10
-30.025000000000137
20
6.8110957972929143
30
0
11
-30.025000000000013
21
2.8181621998905548
31
0
0
LINE
5
103
100
AcDbEntity
8
0
100
AcDbLine
10
-30.025000000000013
20
2.8181621998905548
30
0
11
-32.025000000000006
21
2.8181621998905548
31
0
0
LINE
5
104
100
AcDbEntity
8
0
100
AcDbLine
10
-32.025000000000006
20
2.8181621998905548
30
0
11
-32.025000000000006
21
-5.2318378001094423
31
0
0
LINE
5
105
100
AcDbEntity
8
0
100
AcDbLine
10
-32.025000000000006
20
-5.2318378001094423
30
0
11
-30.024999999999995
21
-5.2318378001094423
31
0
0
LINE
5
106
100
AcDbEntity
8
0
100
AcDbLine
10
-30.024999999999995
20
-5.2318378001094423
30
0
11
-30.024999999999995
21
-9.2318378001094281
31
0
0
LINE
5
107
100
AcDbEntity
8
0
100
AcDbLine
10
-30.024999999999995
20
-9.2318378001094281
30
0
11
-29.242067415615153
21
-9.2318378001094281
31
0
0
SPLINE
5
108
100
AcDbEntity
8
0
100
AcDbSpline
70
0
71
3
72
26
73
22
74
0
42
0.000000001
43
0.0000000001
44
0.0000000001
40
0.022904475020807693
40
0.022904475020807693
40
0.022904475020807693
40
0.022904475020807693
40
0.022940208460177629
40
0.022940208460177629
40
0.022940208460177629
40
0.205661973029272
40
0.205661973029272
40
0.205661973029272
40
0.40298443034037967
40
0.40298443034037967
40
0.40298443034037967
40
0.60342461761561761
40
0.60342461761561761
40
0.60342461761561761
40
0.97504050800917463
40
0.97504050800917463
40
0.97504050800917463
40
0.99495180227370272
40
0.99495180227370272
40
0.99495180227370272
40
0.9953390968316882
40
0.9953390968316882
40
0.9953390968316882
40
0.9953390968316882
10
-29.24206741561461
20
-9.2318378001094104
30
0
10
-29.241671073284394
20
-9.2317998399937906
30
0
10
-29.241274730953677
20
-9.2317618798781353
30
0
10
-29.240878388623042
20
-9.2317239197624978
30
0
10
-27.208080163014444
20
-9.0370304698054227
30
0
10
-25.051717639909199
20
-8.0187739996554619
30
0
10
-22.641832042127525
20
-6.6900157274027805
30
0
10
-20.039380445218207
20
-5.2550807700282043
30
0
10
-17.119875570414411
20
-3.526300359842427
30
0
10
-13.69208086715771
20
-2.3305473204819727
30
0
10
-10.210126397177746
20
-1.1159011701633581
30
0
10
-6.2037959080274785
20
-0.45811295892706383
30
0
10
-1.6846724864327367
20
-0.61539905021152919
30
0
10
6.6937774489000468
20
-0.90700729331768315
30
0
10
16.774175564990848
20
-3.9371926002233693
30
0
10
28.149015810686166
20
-9.3383521628400068
30
0
10
28.758483266731108
20
-9.6277479615692663
30
0
10
29.371806759122151
20
-9.9239855166774227
30
0
10
29.988980434751767
20
-10.227055051755691
30
0
10
30.000986956501158
20
-10.2329509787989
30
0
10
30.012993478250543
20
-10.238846905842092
30
0
10
30.024999999999942
20
-10.244742832885301
30
0
0
LINE
5
109
100
AcDbEntity
8
0
100
AcDbLine
10
30.024999999999942
20
-10.244742832885283
30
0
11
30.025000000000006
21
-5.5528810929457073
31
0
0
LINE
5
110
100
AcDbEntity
8
0
100
AcDbLine
10
30.025000000000006
20
-5.5528810929457073
30
0
11
32.025000000000006
21
-5.5528810929457073
31
0
0
LINE
5
111
100
AcDbEntity
8
0
100
AcDbLine
10
32.025000000000006
20
-5.5528810929457073
30
0
11
32.025000000000006
21
0.42607671586752716
31
0
0
LINE
5
112
100
AcDbEntity
8
0
100
AcDbLine
10
32.025000000000006
20
0.42607671586752716
30
0
11
30.025000000000006
21
0.42607671586752716
31
0
0
ENDSEC
0
SECTION
2
OBJECTS
0
DICTIONARY
5
C
100
AcDbDictionary
3
ACAD_GROUP
350
D
3
ACAD_MLINESTYLE
350
17
0
DICTIONARY
5
D
100
AcDbDictionary
0
DICTIONARY
5
1A
330
C
100
AcDbDictionary
0
DICTIONARY
5
17
100
AcDbDictionary
0
ENDSEC
0
EOF
