0
SECTION
2
HEADER
9
$INSUNITS
70
4
9
$ACADVER
1
AC1014
9
$HANDSEED
5
FFFF
0
ENDSEC
0
SECTION
2
TABLES
0
TABLE
2
VPORT
5
8
100
AcDbSymbolTable
0
ENDTAB
0
TABLE
2
LTYPE
5
5
100
AcDbSymbolTable
0
LTYPE
5
14
100
AcDbSymbolTableRecord
100
AcDbLinetypeTableRecord
2
BYBLOCK
70
0
0
LTYPE
5
15
100
AcDbSymbolTableRecord
100
AcDbLinetypeTableRecord
2
BYLAYER
70
0
0
ENDTAB
0
TABLE
2
LAYER
5
2
100
AcDbSymbolTable
70
2
0
LAYER
5
50
100
AcDbSymbolTableRecord
100
AcDbLayerTableRecord
2
0
70
0
6
CONTINUOUS
0
ENDTAB
0
TABLE
2
STYLE
5
3
100
AcDbSymbolTable
70
1
0
STYLE
5
11
100
AcDbSymbolTableRecord
100
AcDbTextStyleTableRecord
2
STANDARD
70
0
0
ENDTAB
0
TABLE
2
VIEW
5
6
100
AcDbSymbolTable
70
0
0
ENDTAB
0
TABLE
2
UCS
5
7
100
AcDbSymbolTable
70
0
0
ENDTAB
0
TABLE
2
APPID
5
9
100
AcDbSymbolTable
70
2
0
APPID
5
12
100
AcDbSymbolTableRecord
100
AcDbRegAppTableRecord
2
ACAD
70
0
0
ENDTAB
0
TABLE
2
DIMSTYLE
5
A
100
AcDbSymbolTable
70
1
0
ENDTAB
0
TABLE
2
BLOCK_RECORD
5
1
100
AcDbSymbolTable
70
1
0
BLOCK_RECORD
5
1F
100
AcDbSymbolTableRecord
100
AcDbBlockTableRecord
2
*MODEL_SPACE
0
BLOCK_RECORD
5
1B
100
AcDbSymbolTableRecord
100
AcDbBlockTableRecord
2
*PAPER_SPACE
0
ENDTAB
0
ENDSEC
0
SECTION
2
BLOCKS
0
BLOCK
5
20
100
AcDbEntity
100
AcDbBlockBegin
2
*MODEL_SPACE
0
ENDBLK
5
21
100
AcDbEntity
100
AcDbBlockEnd
0
BLOCK
5
1C
100
AcDbEntity
100
AcDbBlockBegin
2
*PAPER_SPACE
0
ENDBLK
5
1D
100
AcDbEntity
100
AcDbBlockEnd
0
ENDSEC
0
SECTION
2
ENTITIES
0
LINE
5
100
100
AcDbEntity
8
0
100
AcDbLine
10
-63.383474369155266
20
2.6525430260112159
30
0
11
-61.433474369155192
21
2.6525430260112159
31
0
0
LINE
5
101
100
AcDbEntity
8
0
100
AcDbLine
10
-61.433474369155192
20
2.6525430260112159
30
0
11
-61.433474369155192
21
-7.2974569739888295
31
0
0
LINE
5
102
100
AcDbEntity
8
0
100
AcDbLine
10
-61.433474369155192
20
-7.2974569739888295
30
0
11
-63.383474369155266
21
-7.2974569739888295
31
0
0
LINE
5
103
100
AcDbEntity
8
0
100
AcDbLine
10
-63.383474369155266
20
-7.2974569739888295
30
0
11
-63.383474369155266
21
2.6525430260112159
31
0
0
LINE
5
104
100
AcDbEntity
8
0
100
AcDbLine
10
-14.858177480558084
20
2.6525430260112204
30
0
11
-14.858177480558084
21
-7.2974569739888295
31
0
0
LINE
5
105
100
AcDbEntity
8
0
100
AcDbLine
10
-14.858177480558084
20
-7.2974569739888295
30
0
11
-16.808177480558157
21
-7.2974569739888295
31
0
0
LINE
5
106
100
AcDbEntity
8
0
100
AcDbLine
10
-16.808177480558157
20
-7.2974569739888295
30
0
11
-16.808177480558157
21
2.6525430260112159
31
0
0
LINE
5
107
100
AcDbEntity
8
0
100
AcDbLine
10
-16.808177480558157
20
2.6525430260112159
30
0
11
-14.858177480558084
21
2.6525430260112204
31
0
0
LINE
5
108
100
AcDbEntity
8
0
100
AcDbLine
10
-4.8581774805580835
20
-7.2974569739888295
30
0
11
-6.8081774805581574
21
-7.2974569739888295
31
0
0
LINE
5
109
100
AcDbEntity
8
0
100
AcDbLine
10
-6.8081774805581574
20
-7.2974569739888295
30
0
11
-6.8081774805581574
21
2.6525430260112159
31
0
0
LINE
5
110
100
AcDbEntity
8
0
100
AcDbLine
10
-6.8081774805581574
20
2.6525430260112159
30
0
11
-4.8581774805580835
21
2.6525430260112204
31
0
0
LINE
5
111
100
AcDbEntity
8
0
100
AcDbLine
10
-4.8581774805580835
20
2.6525430260112204
30
0
11
-4.8581774805580835
21
-7.2974569739888295
31
0
0
LINE
5
112
100
AcDbEntity
8
0
100
AcDbLine
10
60.566525630844836
20
-7.2974569739888295
30
0
11
58.616525630844762
21
-7.2974569739888295
31
0
0
LINE
5
113
100
AcDbEntity
8
0
100
AcDbLine
10
58.616525630844762
20
-7.2974569739888295
30
0
11
58.616525630844762
21
2.6525430260112159
31
0
0
LINE
5
114
100
AcDbEntity
8
0
100
AcDbLine
10
58.616525630844762
20
2.6525430260112159
30
0
11
60.566525630844836
21
2.6525430260112159
31
0
0
LINE
5
115
100
AcDbEntity
8
0
100
AcDbLine
10
60.566525630844836
20
2.6525430260112159
30
0
11
60.566525630844836
21
-7.2974569739888295
31
0
0
LINE
5
116
100
AcDbEntity
8
0
100
AcDbLine
10
48.546081663117633
20
9.3700616844716791
30
0
11
50.496081663117707
21
9.3700616844716791
31
0
0
LINE
5
117
100
AcDbEntity
8
0
100
AcDbLine
10
50.496081663117707
20
9.3700616844716791
30
0
11
50.496081663117707
21
1.4200616844716851
31
0
0
LINE
5
118
100
AcDbEntity
8
0
100
AcDbLine
10
50.496081663117707
20
1.4200616844716851
30
0
11
48.546081663117633
21
1.4200616844716851
31
0
0
LINE
5
119
100
AcDbEntity
8
0
100
AcDbLine
10
48.546081663117633
20
1.4200616844716851
30
0
11
48.546081663117633
21
9.3700616844716791
31
0
0
LINE
5
120
100
AcDbEntity
8
0
100
AcDbLine
10
1.5265918910859
20
9.3700616844716791
30
0
11
3.4765918910859739
21
9.3700616844716791
31
0
0
LINE
5
121
100
AcDbEntity
8
0
100
AcDbLine
10
3.4765918910859739
20
9.3700616844716791
30
0
11
3.4765918910859739
21
1.4200616844716851
31
0
0
LINE
5
122
100
AcDbEntity
8
0
100
AcDbLine
10
3.4765918910859739
20
1.4200616844716851
30
0
11
1.5265918910859
21
1.4200616844716851
31
0
0
LINE
5
123
100
AcDbEntity
8
0
100
AcDbLine
10
1.5265918910859
20
1.4200616844716851
30
0
11
1.5265918910859
21
9.3700616844716791
31
0
0
LINE
5
124
100
AcDbEntity
8
0
100
AcDbLine
10
76.145671490419602
20
-4.1292882995001712
30
0
11
76.145671490419602
21
14.258842296479637
31
0
0
LINE
5
125
100
AcDbEntity
8
0
100
AcDbLine
10
76.145671490419602
20
14.258842296479637
30
0
11
40.551293586838142
21
14.258842296479637
31
0
0
LINE
5
126
100
AcDbEntity
8
0
100
AcDbLine
10
40.551293586838142
20
14.258842296479637
30
0
11
40.551293586838142
21
12.258842296479635
31
0
0
LINE
5
127
100
AcDbEntity
8
0
100
AcDbLine
10
40.551293586838142
20
12.258842296479635
30
0
11
10.601293586838096
21
12.258842296479635
31
0
0
LINE
5
128
100
AcDbEntity
8
0
100
AcDbLine
10
10.601293586838096
20
12.258842296479635
30
0
11
10.601293586838096
21
14.258842296479637
31
0
0
LINE
5
129
100
AcDbEntity
8
0
100
AcDbLine
10
10.601293586838096
20
14.258842296479637
30
0
11
-76.14567149041946
21
14.258842296479637
31
0
0
LINE
5
130
100
AcDbEntity
8
0
100
AcDbLine
10
-76.14567149041946
20
14.258842296479637
30
0
11
-76.14567149041946
21
12.208842296479627
31
0
0
LINE
5
131
100
AcDbEntity
8
0
100
AcDbLine
10
-76.14567149041946
20
12.208842296479627
30
0
11
-72.145671490419403
21
12.208842296479627
31
0
0
LINE
5
132
100
AcDbEntity
8
0
100
AcDbLine
10
-72.145671490419403
20
12.208842296479627
30
0
11
-72.145671490419403
21
8.2588422964796351
31
0
0
LINE
5
133
100
AcDbEntity
8
0
100
AcDbLine
10
-72.145671490419403
20
8.2588422964796351
30
0
11
-76.14567149041946
21
8.2588422964796351
31
0
0
LINE
5
134
100
AcDbEntity
8
0
100
AcDbLine
10
-76.14567149041946
20
8.2588422964796351
30
0
11
-76.14567149041946
21
-5.3508424166067936
31
0
0
LINE
5
135
100
AcDbEntity
8
0
100
AcDbLine
10
-76.14567149041946
20
-5.3508424166067936
30
0
11
-68.145671490419346
21
-5.3508424166067936
31
0
0
LINE
5
136
100
AcDbEntity
8
0
100
AcDbLine
10
-68.145671490419346
20
-5.3508424166067936
30
0
11
-68.145671490419346
21
-11.300842416606782
31
0
0
LINE
5
137
100
AcDbEntity
8
0
100
AcDbLine
10
-68.145671490419346
20
-11.300842416606782
30
0
11
-72.095671490419448
21
-11.300842416606782
31
0
0
LINE
5
138
100
AcDbEntity
8
0
100
AcDbLine
10
-72.095671490419448
20
-11.300842416606782
30
0
11
-72.095671490419448
21
-9.3008424166067893
31
0
0
LINE
5
139
100
AcDbEntity
8
0
100
AcDbLine
10
-72.095671490419448
20
-9.3008424166067893
30
0
11
-76.14567149041946
21
-9.3008424166067893
31
0
0
LINE
5
140
100
AcDbEntity
8
0
100
AcDbLine
10
-76.14567149041946
20
-9.3008424166067893
30
0
11
-76.14567149041946
21
-14.258842296479637
31
0
0
LINE
5
141
100
AcDbEntity
8
0
100
AcDbLine
10
-76.14567149041946
20
-14.258842296479637
30
0
11
-45.598143795246671
21
-14.258842296479637
31
0
0
LINE
5
142
100
AcDbEntity
8
0
100
AcDbLine
10
-45.598143795246671
20
-14.258842296479637
30
0
11
-45.598143795246671
21
-6.2588422964796298
31
0
0
LINE
5
143
100
AcDbEntity
8
0
100
AcDbLine
10
-45.598143795246671
20
-6.2588422964796298
30
0
11
-39.648143795246682
21
-6.2588422964796298
31
0
0
LINE
5
144
100
AcDbEntity
8
0
100
AcDbLine
10
-39.648143795246682
20
-6.2588422964796298
30
0
11
-39.648143795246682
21
-10.208842296479625
31
0
0
LINE
5
145
100
AcDbEntity
8
0
100
AcDbLine
10
-39.648143795246682
20
-10.208842296479625
30
0
11
-41.648143795246568
21
-10.208842296479625
31
0
0
LINE
5
146
100
AcDbEntity
8
0
100
AcDbLine
10
-41.648143795246568
20
-10.208842296479625
30
0
11
-41.648143795246568
21
-14.258842296479637
31
0
0
LINE
5
147
100
AcDbEntity
8
0
100
AcDbLine
10
-41.648143795246568
20
-14.258842296479637
30
0
11
10.421172278987854
21
-14.258842296479637
31
0
0
LINE
5
148
100
AcDbEntity
8
0
100
AcDbLine
10
10.421172278987854
20
-14.258842296479637
30
0
11
10.421172278987854
21
-10.258842296479633
31
0
0
LINE
5
149
100
AcDbEntity
8
0
100
AcDbLine
10
10.421172278987854
20
-10.258842296479633
30
0
11
14.371172278987956
21
-10.258842296479633
31
0
0
LINE
5
150
100
AcDbEntity
8
0
100
AcDbLine
10
14.371172278987956
20
-10.258842296479633
30
0
11
14.371172278987956
21
-14.258842296479637
31
0
0
LINE
5
151
100
AcDbEntity
8
0
100
AcDbLine
10
14.371172278987956
20
-14.258842296479637
30
0
11
76.145671490419602
21
-14.258842296479637
31
0
0
LINE
5
152
100
AcDbEntity
8
0
100
AcDbLine
10
76.145671490419602
20
-14.258842296479637
30
0
11
76.145671490419602
21
-8.0792882995001669
31
0
0
LINE
5
153
100
AcDbEntity
8
0
100
AcDbLine
10
76.145671490419602
20
-8.0792882995001669
30
0
11
68.145671490419488
21
-8.0792882995001669
31
0
0
LINE
5
154
100
AcDbEntity
8
0
100
AcDbLine
10
68.145671490419488
20
-8.0792882995001669
30
0
11
68.145671490419488
21
-2.1292882995001694
31
0
0
LINE
5
155
100
AcDbEntity
8
0
100
AcDbLine
10
68.145671490419488
20
-2.1292882995001694
30
0
11
72.095671490419591
21
-2.1292882995001694
31
0
0
LINE
5
156
100
AcDbEntity
8
0
100
AcDbLine
10
72.095671490419591
20
-2.1292882995001694
30
0
11
72.095671490419591
21
-4.1292882995001712
31
0
0
LINE
5
157
100
AcDbEntity
8
0
100
AcDbLine
10
72.095671490419591
20
-4.1292882995001712
30
0
11
76.145671490419602
21
-4.1292882995001712
31
0
0
ENDSEC
0
SECTION
2
OBJECTS
0
DICTIONARY
5
C
100
AcDbDictionary
3
ACAD_GROUP
350
D
3
ACAD_MLINESTYLE
350
17
0
DICTIONARY
5
D
100
AcDbDictionary
0
DICTIONARY
5
1A
330
C
100
AcDbDictionary
0
DICTIONARY
5
17
100
AcDbDictionary
0
ENDSEC
0
EOF
