0
SECTION
2
HEADER
9
$INSUNITS
70
4
9
$ACADVER
1
AC1014
9
$HANDSEED
5
FFFF
0
ENDSEC
0
SECTION
2
TABLES
0
TABLE
2
VPORT
5
8
100
AcDbSymbolTable
0
ENDTAB
0
TABLE
2
LTYPE
5
5
100
AcDbSymbolTable
0
LTYPE
5
14
100
AcDbSymbolTableRecord
100
AcDbLinetypeTableRecord
2
BYBLOCK
70
0
0
LTYPE
5
15
100
AcDbSymbolTableRecord
100
AcDbLinetypeTableRecord
2
BYLAYER
70
0
0
ENDTAB
0
TABLE
2
LAYER
5
2
100
AcDbSymbolTable
70
2
0
LAYER
5
50
100
AcDbSymbolTableRecord
100
AcDbLayerTableRecord
2
0
70
0
6
CONTINUOUS
0
ENDTAB
0
TABLE
2
STYLE
5
3
100
AcDbSymbolTable
70
1
0
STYLE
5
11
100
AcDbSymbolTableRecord
100
AcDbTextStyleTableRecord
2
STANDARD
70
0
0
ENDTAB
0
TABLE
2
VIEW
5
6
100
AcDbSymbolTable
70
0
0
ENDTAB
0
TABLE
2
UCS
5
7
100
AcDbSymbolTable
70
0
0
ENDTAB
0
TABLE
2
APPID
5
9
100
AcDbSymbolTable
70
2
0
APPID
5
12
100
AcDbSymbolTableRecord
100
AcDbRegAppTableRecord
2
ACAD
70
0
0
ENDTAB
0
TABLE
2
DIMSTYLE
5
A
100
AcDbSymbolTable
70
1
0
ENDTAB
0
TABLE
2
BLOCK_RECORD
5
1
100
AcDbSymbolTable
70
1
0
BLOCK_RECORD
5
1F
100
AcDbSymbolTableRecord
100
AcDbBlockTableRecord
2
*MODEL_SPACE
0
BLOCK_RECORD
5
1B
100
AcDbSymbolTableRecord
100
AcDbBlockTableRecord
2
*PAPER_SPACE
0
ENDTAB
0
ENDSEC
0
SECTION
2
BLOCKS
0
BLOCK
5
20
100
AcDbEntity
100
AcDbBlockBegin
2
*MODEL_SPACE
0
ENDBLK
5
21
100
AcDbEntity
100
AcDbBlockEnd
0
BLOCK
5
1C
100
AcDbEntity
100
AcDbBlockBegin
2
*PAPER_SPACE
0
ENDBLK
5
1D
100
AcDbEntity
100
AcDbBlockEnd
0
ENDSEC
0
SECTION
2
ENTITIES
0
LINE
5
100
100
AcDbEntity
8
0
100
AcDbLine
10
-5.569928687687522
20
-10.025000000000004
30
-1.4210854715202004e-13
11
-5.569928687687522
21
-12.025000000000004
31
-1.4210854715202004e-13
0
LINE
5
101
100
AcDbEntity
8
0
100
AcDbLine
10
-5.569928687687522
20
-12.025000000000004
30
-1.4210854715202004e-13
11
4.7332616930323823
21
-12.025000000000004
31
-1.4210854715202004e-13
0
LINE
5
102
100
AcDbEntity
8
0
100
AcDbLine
10
4.7332616930323823
20
-12.025000000000004
30
0
11
4.7332616930323468
21
-10.025000000000004
31
0
0
LINE
5
103
100
AcDbEntity
8
0
100
AcDbLine
10
4.7332616930323468
20
-10.025000000000004
30
0
11
9.9869239669806831
21
-10.025000000000002
31
-1.3877787807814457e-16
0
SPLINE
5
104
100
AcDbEntity
8
0
100
AcDbSpline
70
0
71
3
72
17
73
13
74
0
42
0.000000001
43
0.0000000001
44
0.0000000001
40
-0.00063306512724517548
40
-0.00063306512724517548
40
-0.00063306512724517548
40
-0.00063306512724517548
40
0
40
0
40
0
40
0.5
40
0.5
40
0.5
40
1
40
1
40
1
40
1.0010964229216421
40
1.0010964229216421
40
1.0010964229216421
40
1.0010964229216421
10
20.600874243485912
20
7.9779831235386123
30
1.4210854715202004e-13
10
20.593594135763844
20
7.9770555740117777
30
0
10
20.586314028041777
20
7.9761280244849342
30
0
10
20.57903392031978
20
7.9752004749580863
30
-1.4210854715202004e-13
10
14.832565438379355
20
7.2430500281591836
30
0
10
10.748385623618937
20
5.5668584844499236
30
1.4210854715202004e-13
10
8.9791277457039698
20
2.5802973624372072
30
0
10
7.2098698677890027
20
-0.4062637595755092
30
0
10
7.7532941506760622
20
-4.7189243410026593
30
0
10
9.9723169461178784
20
-9.9903004462576064
30
-1.4210854715202004e-13
10
9.977185953072123
20
-10.001866964171736
30
0
10
9.9820549600264386
20
-10.013433482085862
30
0
10
9.9869239669808607
20
-10.025000000000011
30
0
0
LINE
5
105
100
AcDbEntity
8
0
100
AcDbLine
10
20.600874243485983
20
7.9779831235386256
30
1.4210854715202004e-13
11
20.600874243485663
21
10.025000000000004
31
1.4210854715202004e-13
0
LINE
5
106
100
AcDbEntity
8
0
100
AcDbLine
10
20.600874243485627
20
10.025000000000004
30
0
11
14.625674751439135
21
10.025000000000004
31
0
0
LINE
5
107
100
AcDbEntity
8
0
100
AcDbLine
10
14.625674751439135
20
10.025000000000004
30
1.4210854715202004e-13
11
14.625674751439171
21
12.025000000000006
31
1.4210854715202004e-13
0
LINE
5
108
100
AcDbEntity
8
0
100
AcDbLine
10
14.625674751439171
20
12.025000000000006
30
1.4210854715202004e-13
11
6.5756747514391023
21
12.025000000000006
31
1.4210854715202004e-13
0
LINE
5
109
100
AcDbEntity
8
0
100
AcDbLine
10
6.5756747514391023
20
12.025000000000006
30
0
11
6.5756747514391378
21
10.025000000000004
31
0
0
LINE
5
110
100
AcDbEntity
8
0
100
AcDbLine
10
6.5756747514391023
20
10.025000000000004
30
0
11
-7.4712676644488241
21
10.025000000000004
31
0
0
LINE
5
111
100
AcDbEntity
8
0
100
AcDbLine
10
-7.4712676644488241
20
10.025000000000004
30
1.4210854715202004e-13
11
-7.4712676644488241
21
12.025000000000006
31
1.4210854715202004e-13
0
LINE
5
112
100
AcDbEntity
8
0
100
AcDbLine
10
-7.4712676644488241
20
12.025000000000006
30
1.4210854715202004e-13
11
-15.521267664448857
21
12.025000000000006
31
1.4210854715202004e-13
0
LINE
5
113
100
AcDbEntity
8
0
100
AcDbLine
10
-15.521267664448821
20
12.025000000000006
30
0
11
-15.521267664448786
21
10.025000000000004
31
0
0
LINE
5
114
100
AcDbEntity
8
0
100
AcDbLine
10
-15.521267664448786
20
10.025000000000004
30
0
11
-20.600874243485592
21
10.025000000000004
31
0
0
LINE
5
115
100
AcDbEntity
8
0
100
AcDbLine
10
-20.600874243485627
20
10.025000000000004
30
-1.4210854715202004e-13
11
-20.600874243485592
21
7.9817115739539313
31
-1.4210854715202004e-13
0
SPLINE
5
116
100
AcDbEntity
8
0
100
AcDbSpline
70
0
71
3
72
17
73
13
74
0
42
0.000000001
43
0.0000000001
44
0.0000000001
40
-0.00056196282707209272
40
-0.00056196282707209272
40
-0.00056196282707209272
40
-0.00056196282707209272
40
0
40
0
40
0
40
0.5
40
0.5
40
0.5
40
1
40
1
40
1
40
1.001322515375479
40
1.001322515375479
40
1.001322515375479
40
1.001322515375479
10
-20.600874243485485
20
7.9817115739539179
30
0
10
-20.595064304355404
20
7.9798656176231386
30
0
10
-20.589254365225251
20
7.9780196612923504
30
0
10
-20.583444426095099
20
7.9761737049615622
30
0
10
-15.417061182021676
20
6.334690439295918
30
0
10
-11.666828806685636
20
4.14258504073727
30
-1.4210854715202004e-13
10
-9.9479235245947706
20
1.1656118616709854
30
-1.4210854715202004e-13
10
-8.2290182425039049
20
-1.8113613173953036
30
0
10
-8.5786258354096034
20
-5.5973662102305743
30
0
10
-10.470246927513536
20
-9.9901122188224392
30
0
10
-10.475254764115292
20
-10.001741479214967
30
0
10
-10.480262600717047
20
-10.013370739607497
30
0
10
-10.485270437318768
20
-10.025000000000045
30
-1.4210854715202004e-13
0
LINE
5
117
100
AcDbEntity
8
0
100
AcDbLine
10
-10.485270437318768
20
-10.025000000000047
30
-1.4210854715202004e-13
11
-5.5699286876874865
21
-10.025000000000004
31
-1.4210854715202004e-13
0
ENDSEC
0
SECTION
2
OBJECTS
0
DICTIONARY
5
C
100
AcDbDictionary
3
ACAD_GROUP
350
D
3
ACAD_MLINESTYLE
350
17
0
DICTIONARY
5
D
100
AcDbDictionary
0
DICTIONARY
5
1A
330
C
100
AcDbDictionary
0
DICTIONARY
5
17
100
AcDbDictionary
0
ENDSEC
0
EOF
