0
SECTION
2
HEADER
9
$INSUNITS
70
4
9
$ACADVER
1
AC1014
9
$HANDSEED
5
FFFF
0
ENDSEC
0
SECTION
2
TABLES
0
TABLE
2
VPORT
5
8
100
AcDbSymbolTable
0
ENDTAB
0
TABLE
2
LTYPE
5
5
100
AcDbSymbolTable
0
LTYPE
5
14
100
AcDbSymbolTableRecord
100
AcDbLinetypeTableRecord
2
BYBLOCK
70
0
0
LTYPE
5
15
100
AcDbSymbolTableRecord
100
AcDbLinetypeTableRecord
2
BYLAYER
70
0
0
ENDTAB
0
TABLE
2
LAYER
5
2
100
AcDbSymbolTable
70
2
0
LAYER
5
50
100
AcDbSymbolTableRecord
100
AcDbLayerTableRecord
2
0
70
0
6
CONTINUOUS
0
ENDTAB
0
TABLE
2
STYLE
5
3
100
AcDbSymbolTable
70
1
0
STYLE
5
11
100
AcDbSymbolTableRecord
100
AcDbTextStyleTableRecord
2
STANDARD
70
0
0
ENDTAB
0
TABLE
2
VIEW
5
6
100
AcDbSymbolTable
70
0
0
ENDTAB
0
TABLE
2
UCS
5
7
100
AcDbSymbolTable
70
0
0
ENDTAB
0
TABLE
2
APPID
5
9
100
AcDbSymbolTable
70
2
0
APPID
5
12
100
AcDbSymbolTableRecord
100
AcDbRegAppTableRecord
2
ACAD
70
0
0
ENDTAB
0
TABLE
2
DIMSTYLE
5
A
100
AcDbSymbolTable
70
1
0
ENDTAB
0
TABLE
2
BLOCK_RECORD
5
1
100
AcDbSymbolTable
70
1
0
BLOCK_RECORD
5
1F
100
AcDbSymbolTableRecord
100
AcDbBlockTableRecord
2
*MODEL_SPACE
0
BLOCK_RECORD
5
1B
100
AcDbSymbolTableRecord
100
AcDbBlockTableRecord
2
*PAPER_SPACE
0
ENDTAB
0
ENDSEC
0
SECTION
2
BLOCKS
0
BLOCK
5
20
100
AcDbEntity
100
AcDbBlockBegin
2
*MODEL_SPACE
0
ENDBLK
5
21
100
AcDbEntity
100
AcDbBlockEnd
0
BLOCK
5
1C
100
AcDbEntity
100
AcDbBlockBegin
2
*PAPER_SPACE
0
ENDBLK
5
1D
100
AcDbEntity
100
AcDbBlockEnd
0
ENDSEC
0
SECTION
2
ENTITIES
0
LINE
5
100
100
AcDbEntity
8
0
100
AcDbLine
10
24.094193372842483
20
9.4772240102702163
30
0
11
24.066906585142078
21
11.427033085850946
31
0
0
LINE
5
101
100
AcDbEntity
8
0
100
AcDbLine
10
24.066906585142078
20
11.427033085850946
30
0
11
30.01632402088859
21
11.510292771396822
31
0
0
LINE
5
102
100
AcDbEntity
8
0
100
AcDbLine
10
30.01632402088859
20
11.510292771396822
30
0
11
30.043610808588994
21
9.5604836958160888
31
0
0
LINE
5
103
100
AcDbEntity
8
0
100
AcDbLine
10
30.043610808588994
20
9.5604836958160888
30
0
11
24.094193372842483
21
9.4772240102702163
31
0
0
LINE
5
104
100
AcDbEntity
8
0
100
AcDbLine
10
24.234125617457778
20
-0.52179689014401287
30
0
11
24.206838829757373
21
1.4280121854367289
31
0
0
LINE
5
105
100
AcDbEntity
8
0
100
AcDbLine
10
24.206838829757373
20
1.4280121854367289
30
0
11
30.156256265504169
21
1.5112718709829576
31
0
0
LINE
5
106
100
AcDbEntity
8
0
100
AcDbLine
10
30.156256265504169
20
1.5112718709829576
30
0
11
30.183543053204573
21
-0.43853720459778422
31
0
0
LINE
5
107
100
AcDbEntity
8
0
100
AcDbLine
10
30.183543053204573
20
-0.43853720459778422
30
0
11
24.234125617457778
21
-0.52179689014401287
31
0
0
LINE
5
108
100
AcDbEntity
8
0
100
AcDbLine
10
-27.715664037617671
20
8.6054972509170256
30
0
11
-20.98594850586494
21
2.5296263112080775
31
0
0
LINE
5
109
100
AcDbEntity
8
0
100
AcDbLine
10
-20.98594850586494
20
2.5296263112080775
30
0
11
-22.292700881408507
21
1.0822499852269729
31
0
0
LINE
5
110
100
AcDbEntity
8
0
100
AcDbLine
10
-22.292700881408507
20
1.0822499852269729
30
0
11
-29.022416413161238
21
7.1581209249359823
31
0
0
LINE
5
111
100
AcDbEntity
8
0
100
AcDbLine
10
-29.022416413161238
20
7.1581209249359823
30
0
11
-27.715664037617671
21
8.6054972509170256
31
0
0
LINE
5
112
100
AcDbEntity
8
0
100
AcDbLine
10
6.4302839899690412
20
13.783173026050726
30
0
11
6.4302839899690412
21
9.8331730260507335
31
0
0
LINE
5
113
100
AcDbEntity
8
0
100
AcDbLine
10
6.4302839899690412
20
9.8331730260507335
30
0
11
0.48028398996905253
21
9.8331730260507335
31
0
0
LINE
5
114
100
AcDbEntity
8
0
100
AcDbLine
10
0.48028398996905253
20
9.8331730260507335
30
0
11
0.48028398996905253
21
17.833173026050734
31
0
0
LINE
5
115
100
AcDbEntity
8
0
100
AcDbLine
10
0.48028398996905253
20
17.833173026050734
30
0
11
-27.786614712380242
21
17.833173026050734
31
0
0
LINE
5
116
100
AcDbEntity
8
0
100
AcDbLine
10
-27.786614712380242
20
17.833173026050734
30
0
11
-27.786614712380242
21
13.833173026050734
31
0
0
LINE
5
117
100
AcDbEntity
8
0
100
AcDbLine
10
-27.786614712380242
20
13.833173026050734
30
0
11
-31.736614712380344
21
13.833173026050734
31
0
0
LINE
5
118
100
AcDbEntity
8
0
100
AcDbLine
10
-31.736614712380344
20
13.833173026050734
30
0
11
-31.736614712380344
21
17.833173026050734
31
0
0
LINE
5
119
100
AcDbEntity
8
0
100
AcDbLine
10
-31.736614712380344
20
17.833173026050734
30
0
11
-39.323573295114613
21
17.833173026050734
31
0
0
LINE
5
120
100
AcDbEntity
8
0
100
AcDbLine
10
-39.323573295114613
20
17.833173026050734
30
0
11
-39.323573295114613
21
-0.54695282195048822
31
0
0
LINE
5
121
100
AcDbEntity
8
0
100
AcDbLine
10
-39.323573295114613
20
-0.54695282195048822
30
0
11
-32.869627448344545
21
-1.8706332836869377
31
0
0
LINE
5
122
100
AcDbEntity
8
0
100
AcDbLine
10
-32.869627448344545
20
-1.8706332836869377
30
0
11
-33.472369922673693
21
-4.8094598368607899
31
0
0
LINE
5
123
100
AcDbEntity
8
0
100
AcDbLine
10
-33.472369922673693
20
-4.8094598368607899
30
0
11
-29.504954075889032
21
-5.6231621772051366
31
0
0
LINE
5
124
100
AcDbEntity
8
0
100
AcDbLine
10
-29.504954075889032
20
-5.6231621772051366
30
0
11
-28.902211601559884
21
-2.6843356240312888
31
0
0
LINE
5
125
100
AcDbEntity
8
0
100
AcDbLine
10
-28.902211601559884
20
-2.6843356240312888
30
0
11
-16.138897818607916
21
-5.3020441519018879
31
0
0
LINE
5
126
100
AcDbEntity
8
0
100
AcDbLine
10
-16.138897818607916
20
-5.3020441519018879
30
0
11
21.194403542065743
21
-5.3020441519018746
31
0
0
LINE
5
127
100
AcDbEntity
8
0
100
AcDbLine
10
21.194403542065743
20
-5.3020441519018746
30
0
11
21.194403542065743
21
-10.262566033644834
31
0
0
ARC
5
128
100
AcDbEntity
8
0
100
AcDbCircle
10
23.219403542065606
20
-13.777044151901613
30
0
40
4.0561288741489925
210
0
220
0
230
1
100
AcDbArc
50
-240.04997141978654
51
60.049971419781926
0
LINE
5
129
100
AcDbEntity
8
0
100
AcDbLine
10
25.244403542065754
20
-10.262566033644994
30
0
11
25.244403542065186
21
-5.3020441519018746
31
0
0
LINE
5
130
100
AcDbEntity
8
0
100
AcDbLine
10
25.244403542065186
20
-5.3020441519018746
30
0
11
39.323573295114613
21
-5.3020441519017414
31
0
0
LINE
5
131
100
AcDbEntity
8
0
100
AcDbLine
10
39.323573295114613
20
-5.3020441519017414
30
0
11
39.323573295114613
21
17.833173026050734
31
0
0
LINE
5
132
100
AcDbEntity
8
0
100
AcDbLine
10
39.323573295114613
20
17.833173026050734
30
0
11
4.4302839899691548
21
17.833173026050734
31
0
0
LINE
5
133
100
AcDbEntity
8
0
100
AcDbLine
10
4.4302839899691548
20
17.833173026050734
30
0
11
4.4302839899691548
21
13.783173026050726
31
0
0
LINE
5
134
100
AcDbEntity
8
0
100
AcDbLine
10
4.4302839899691548
20
13.783173026050726
30
0
11
6.4302839899690412
21
13.783173026050726
31
0
0
ENDSEC
0
SECTION
2
OBJECTS
0
DICTIONARY
5
C
100
AcDbDictionary
3
ACAD_GROUP
350
D
3
ACAD_MLINESTYLE
350
17
0
DICTIONARY
5
D
100
AcDbDictionary
0
DICTIONARY
5
1A
330
C
100
AcDbDictionary
0
DICTIONARY
5
17
100
AcDbDictionary
0
ENDSEC
0
EOF
