0
SECTION
2
HEADER
9
$INSUNITS
70
4
9
$ACADVER
1
AC1014
9
$HANDSEED
5
FFFF
0
ENDSEC
0
SECTION
2
TABLES
0
TABLE
2
VPORT
5
8
100
AcDbSymbolTable
0
ENDTAB
0
TABLE
2
LTYPE
5
5
100
AcDbSymbolTable
0
LTYPE
5
14
100
AcDbSymbolTableRecord
100
AcDbLinetypeTableRecord
2
BYBLOCK
70
0
0
LTYPE
5
15
100
AcDbSymbolTableRecord
100
AcDbLinetypeTableRecord
2
BYLAYER
70
0
0
ENDTAB
0
TABLE
2
LAYER
5
2
100
AcDbSymbolTable
70
2
0
LAYER
5
50
100
AcDbSymbolTableRecord
100
AcDbLayerTableRecord
2
0
70
0
6
CONTINUOUS
0
ENDTAB
0
TABLE
2
STYLE
5
3
100
AcDbSymbolTable
70
1
0
STYLE
5
11
100
AcDbSymbolTableRecord
100
AcDbTextStyleTableRecord
2
STANDARD
70
0
0
ENDTAB
0
TABLE
2
VIEW
5
6
100
AcDbSymbolTable
70
0
0
ENDTAB
0
TABLE
2
UCS
5
7
100
AcDbSymbolTable
70
0
0
ENDTAB
0
TABLE
2
APPID
5
9
100
AcDbSymbolTable
70
2
0
APPID
5
12
100
AcDbSymbolTableRecord
100
AcDbRegAppTableRecord
2
ACAD
70
0
0
ENDTAB
0
TABLE
2
DIMSTYLE
5
A
100
AcDbSymbolTable
70
1
0
ENDTAB
0
TABLE
2
BLOCK_RECORD
5
1
100
AcDbSymbolTable
70
1
0
BLOCK_RECORD
5
1F
100
AcDbSymbolTableRecord
100
AcDbBlockTableRecord
2
*MODEL_SPACE
0
BLOCK_RECORD
5
1B
100
AcDbSymbolTableRecord
100
AcDbBlockTableRecord
2
*PAPER_SPACE
0
ENDTAB
0
ENDSEC
0
SECTION
2
BLOCKS
0
BLOCK
5
20
100
AcDbEntity
100
AcDbBlockBegin
2
*MODEL_SPACE
0
ENDBLK
5
21
100
AcDbEntity
100
AcDbBlockEnd
0
BLOCK
5
1C
100
AcDbEntity
100
AcDbBlockBegin
2
*PAPER_SPACE
0
ENDBLK
5
1D
100
AcDbEntity
100
AcDbBlockEnd
0
ENDSEC
0
SECTION
2
ENTITIES
0
LINE
5
100
100
AcDbEntity
8
0
100
AcDbLine
10
-6.1626292794228732
20
10.063066888921224
30
0
11
-14.083317674466969
21
10.063066888921224
31
0
0
LINE
5
101
100
AcDbEntity
8
0
100
AcDbLine
10
-14.083317674466969
20
10.063066888921224
30
0
11
-32.055377654214823
21
3.5389629236702547
31
0
0
LINE
5
102
100
AcDbEntity
8
0
100
AcDbLine
10
-32.055377654214823
20
3.5389629236702547
30
0
11
-32.055377654214823
21
-4.3265507541174664
31
0
0
LINE
5
103
100
AcDbEntity
8
0
100
AcDbLine
10
-32.055377654214823
20
-4.3265507541174664
30
0
11
-40.055377654214936
21
-4.3265507541174664
31
0
0
LINE
5
104
100
AcDbEntity
8
0
100
AcDbLine
10
-40.055377654214936
20
-4.3265507541174664
30
0
11
-40.055377654214936
21
-12.376550754117499
31
0
0
LINE
5
105
100
AcDbEntity
8
0
100
AcDbLine
10
-40.055377654214936
20
-12.376550754117499
30
0
11
-36.005377654214925
21
-12.376550754117499
31
0
0
LINE
5
106
100
AcDbEntity
8
0
100
AcDbLine
10
-36.005377654214925
20
-12.376550754117499
30
0
11
-36.005377654214925
21
-8.3765507541174955
31
0
0
LINE
5
107
100
AcDbEntity
8
0
100
AcDbLine
10
-36.005377654214925
20
-8.3765507541174955
30
0
11
-32.055377654214823
21
-8.3765507541174955
31
0
0
LINE
5
108
100
AcDbEntity
8
0
100
AcDbLine
10
-32.055377654214823
20
-8.3765507541174955
30
0
11
-32.055377654214823
21
-18.00196458214689
31
0
0
LINE
5
109
100
AcDbEntity
8
0
100
AcDbLine
10
-32.055377654214823
20
-18.00196458214689
30
0
11
-31.827751543610532
21
-18.069076130493738
31
0
0
ARC
5
110
100
AcDbEntity
8
0
100
AcDbCircle
10
-14.078920388773497
20
-23.399174158447575
30
0
40
18.531890145112296
210
0
220
-0
230
1
100
AcDbArc
50
89.999999999999986
51
163.2846203155392
0
LINE
5
111
100
AcDbEntity
8
0
100
AcDbLine
10
-14.078920388773497
20
-4.8672840133352757
30
0
11
22.981448567484932
21
-4.8672840133352935
31
0
0
LINE
5
112
100
AcDbEntity
8
0
100
AcDbLine
10
22.981448567484932
20
-4.8672840133352935
30
0
11
28.128339612689928
21
-3.9290395436091075
31
0
0
LINE
5
113
100
AcDbEntity
8
0
100
AcDbLine
10
28.128339612689928
20
-3.9290395436091075
30
0
11
27.58434347487281
21
-0.94486117571129569
31
0
0
ARC
5
114
100
AcDbEntity
8
0
100
AcDbCircle
10
29.259815463748851
20
0.87679153940563026
30
0
40
2.4750000000001613
210
-0
220
0
230
1
100
AcDbArc
50
-26.73117885620918
51
227.39358512764522
0
LINE
5
115
100
AcDbEntity
8
0
100
AcDbLine
10
31.470304166247161
20
-0.23647603675390982
30
0
11
32.014300304064136
21
-3.2206544046520236
31
0
0
LINE
5
116
100
AcDbEntity
8
0
100
AcDbLine
10
32.014300304064136
20
-3.2206544046520236
30
0
11
39.71982059378206
21
-1.815988610351571
31
0
0
SPLINE
5
117
100
AcDbEntity
8
0
100
AcDbSpline
70
0
71
3
72
11
73
7
74
0
42
0.000000001
43
0.0000000001
44
0.0000000001
40
-0.99976917322284264
40
-0.99976917322284264
40
-0.99976917322284264
40
-0.99976917322284264
40
-0.99123673677114643
40
-0.99123673677114643
40
-0.99123673677114643
40
-0.9898119073360867
40
-0.9898119073360867
40
-0.9898119073360867
40
-0.9898119073360867
10
39.71982059378206
20
-1.8159886103517309
30
0
10
39.815769110363277
20
-2.0437793714169494
30
0
10
39.911631759076727
20
-2.2691170247077608
30
0
10
40.007408519674215
20
-2.4920032645336754
30
0
10
40.023398231187883
20
-2.5292136134006959
30
0
10
40.039387942701552
20
-2.5664239622677343
30
0
10
40.055377654215363
20
-2.6036343111348614
30
0
0
LINE
5
118
100
AcDbEntity
8
0
100
AcDbLine
10
40.055377654215221
20
-2.6036343111348437
30
0
11
40.055377654214936
21
10.063066888921224
31
0
0
LINE
5
119
100
AcDbEntity
8
0
100
AcDbLine
10
40.055377654214936
20
10.063066888921224
30
0
11
-2.1126292794228618
21
10.063066888921224
31
0
0
LINE
5
120
100
AcDbEntity
8
0
100
AcDbLine
10
-2.1126292794228618
20
10.063066888921224
30
0
11
-2.1126292794228618
21
14.013066888921202
31
0
0
LINE
5
121
100
AcDbEntity
8
0
100
AcDbLine
10
-2.1126292794228618
20
14.013066888921202
30
0
11
-0.11262927942297551
21
14.013066888921202
31
0
0
LINE
5
122
100
AcDbEntity
8
0
100
AcDbLine
10
-0.11262927942297551
20
14.013066888921202
30
0
11
-0.11262927942297551
21
18.063066888921231
31
0
0
LINE
5
123
100
AcDbEntity
8
0
100
AcDbLine
10
-0.11262927942297551
20
18.063066888921231
30
0
11
-6.1626292794228732
21
18.063066888921231
31
0
0
LINE
5
124
100
AcDbEntity
8
0
100
AcDbLine
10
-6.1626292794228732
20
18.063066888921231
30
0
11
-6.1626292794228732
21
10.063066888921224
31
0
0
ENDSEC
0
SECTION
2
OBJECTS
0
DICTIONARY
5
C
100
AcDbDictionary
3
ACAD_GROUP
350
D
3
ACAD_MLINESTYLE
350
17
0
DICTIONARY
5
D
100
AcDbDictionary
0
DICTIONARY
5
1A
330
C
100
AcDbDictionary
0
DICTIONARY
5
17
100
AcDbDictionary
0
ENDSEC
0
EOF
