0
SECTION
2
HEADER
9
$INSUNITS
70
4
9
$ACADVER
1
AC1014
9
$HANDSEED
5
FFFF
0
ENDSEC
0
SECTION
2
TABLES
0
TABLE
2
VPORT
5
8
100
AcDbSymbolTable
0
ENDTAB
0
TABLE
2
LTYPE
5
5
100
AcDbSymbolTable
0
LTYPE
5
14
100
AcDbSymbolTableRecord
100
AcDbLinetypeTableRecord
2
BYBLOCK
70
0
0
LTYPE
5
15
100
AcDbSymbolTableRecord
100
AcDbLinetypeTableRecord
2
BYLAYER
70
0
0
ENDTAB
0
TABLE
2
LAYER
5
2
100
AcDbSymbolTable
70
2
0
LAYER
5
50
100
AcDbSymbolTableRecord
100
AcDbLayerTableRecord
2
0
70
0
6
CONTINUOUS
0
ENDTAB
0
TABLE
2
STYLE
5
3
100
AcDbSymbolTable
70
1
0
STYLE
5
11
100
AcDbSymbolTableRecord
100
AcDbTextStyleTableRecord
2
STANDARD
70
0
0
ENDTAB
0
TABLE
2
VIEW
5
6
100
AcDbSymbolTable
70
0
0
ENDTAB
0
TABLE
2
UCS
5
7
100
AcDbSymbolTable
70
0
0
ENDTAB
0
TABLE
2
APPID
5
9
100
AcDbSymbolTable
70
2
0
APPID
5
12
100
AcDbSymbolTableRecord
100
AcDbRegAppTableRecord
2
ACAD
70
0
0
ENDTAB
0
TABLE
2
DIMSTYLE
5
A
100
AcDbSymbolTable
70
1
0
ENDTAB
0
TABLE
2
BLOCK_RECORD
5
1
100
AcDbSymbolTable
70
1
0
BLOCK_RECORD
5
1F
100
AcDbSymbolTableRecord
100
AcDbBlockTableRecord
2
*MODEL_SPACE
0
BLOCK_RECORD
5
1B
100
AcDbSymbolTableRecord
100
AcDbBlockTableRecord
2
*PAPER_SPACE
0
ENDTAB
0
ENDSEC
0
SECTION
2
BLOCKS
0
BLOCK
5
20
100
AcDbEntity
100
AcDbBlockBegin
2
*MODEL_SPACE
0
ENDBLK
5
21
100
AcDbEntity
100
AcDbBlockEnd
0
BLOCK
5
1C
100
AcDbEntity
100
AcDbBlockBegin
2
*PAPER_SPACE
0
ENDBLK
5
1D
100
AcDbEntity
100
AcDbBlockEnd
0
ENDSEC
0
SECTION
2
ENTITIES
0
LINE
5
100
100
AcDbEntity
8
0
100
AcDbLine
10
14.969279267613516
20
-22.615204242758136
30
0
11
14.969279267613516
21
-20.615204242757095
31
0
0
LINE
5
101
100
AcDbEntity
8
0
100
AcDbLine
10
14.969279267613516
20
-20.615204242757091
30
0
11
34.226381988328001
21
-20.615204242757091
31
0
0
LINE
5
102
100
AcDbEntity
8
0
100
AcDbLine
10
34.226381988328001
20
-20.615204242757091
30
0
11
34.22638198832793
21
22.592473778575574
31
0
0
SPLINE
5
103
100
AcDbEntity
8
0
100
AcDbSpline
70
0
71
3
72
47
73
43
74
0
42
0.000000001
43
0.0000000001
44
0.0000000001
40
-0.00033960836966722471
40
-0.00033960836966722471
40
-0.00033960836966722471
40
-0.00033960836966722471
40
0
40
0
40
0
40
0.078834657896297164
40
0.078834657896297164
40
0.078834657896297164
40
0.18735395171463132
40
0.18735395171463132
40
0.18735395171463132
40
0.26347348434435747
40
0.26347348434435747
40
0.26347348434435747
40
0.34467710200546497
40
0.34467710200546497
40
0.34467710200546497
40
0.41495929017804234
40
0.41495929017804234
40
0.41495929017804234
40
0.51415389599826755
40
0.51415389599826755
40
0.51415389599826755
40
0.5910039476536576
40
0.5910039476536576
40
0.5910039476536576
40
0.66418400170805358
40
0.66418400170805358
40
0.66418400170805358
40
0.74120772814128466
40
0.74120772814128466
40
0.74120772814128466
40
0.82603002647342649
40
0.82603002647342649
40
0.82603002647342649
40
0.91723321997513563
40
0.91723321997513563
40
0.91723321997513563
40
1
40
1
40
1
40
1.0004114551852603
40
1.0004114551852603
40
1.0004114551852603
40
1.0004114551852603
10
34.226381988328072
20
22.592473778575595
30
0
10
34.218048654994604
20
22.592473778575581
30
0
10
34.209715321661349
20
22.592473778575581
30
0
10
34.201381988328095
20
22.592473778575581
30
0
10
32.257214620878401
20
22.592473778575581
30
0
10
30.506006209667476
20
21.41076310003865
30
0
10
28.967415151421889
20
19.361205040369054
30
0
10
26.849478452366853
20
16.539900309553861
30
0
10
25.166879587334208
20
12.114878733793502
30
0
10
23.78954042310653
20
7.7940061806844074
30
0
10
22.823422696344196
20
4.7631829259194713
30
0
10
22.004190991356083
20
1.8101288664791149
30
0
10
21.127898687480027
20
-0.59552656251045111
30
0
10
20.193078113246301
20
-3.1618576595533288
30
0
10
19.173283779729502
20
-5.0906400464353752
30
0
10
17.484778067378812
20
-6.4220195756761411
30
0
10
16.023366868912703
20
-7.5743360524337211
30
0
10
14.032491301506411
20
-8.310923000626552
30
0
10
11.491225741462046
20
-8.7873595960987707
30
0
10
7.9045440790451238
20
-9.4597908552131074
30
0
10
3.249659355159622
20
-9.6261954623704238
30
0
10
-1.2987005460152545
20
-9.420341602734478
30
0
10
-4.8224979386485245
20
-9.260858336324258
30
0
10
-8.247322738930194
20
-8.8753960899159523
30
0
10
-11.060528847394764
20
-8.2154111399951368
30
0
10
-13.739389442137835
20
-7.5869439721802179
30
0
10
-15.841826326688029
20
-6.7063699189146364
30
0
10
-17.423272648715447
20
-5.3954515684202287
30
0
10
-19.087782062525633
20
-4.0156792013524267
30
0
10
-20.221701784248367
20
-2.1214290524059187
30
0
10
-21.303351802959227
20
0.32225310857477041
30
0
10
-22.494517756966808
20
3.0133555374778798
30
0
10
-23.636554581672691
20
6.3608199460368642
30
0
10
-24.913412977440785
20
9.6838792574440724
30
0
10
-26.286325120041738
20
13.256921103223487
30
0
10
-27.810122778058748
20
16.762224958497434
30
0
10
-29.465099790913207
20
19.179711123255927
30
0
10
-30.96698928743141
20
21.373576687930154
30
0
10
-32.561471971589704
20
22.639864667735434
30
0
10
-34.202103989738113
20
22.592463350680021
30
0
10
-34.21019665593473
20
22.592229536496234
30
0
10
-34.218289322131348
20
22.591995722312461
30
0
10
-34.22638198832793
20
22.591761908128678
30
0
0
LINE
5
104
100
AcDbEntity
8
0
100
AcDbLine
10
-34.22638198832793
20
22.591761908128689
30
0
11
-34.226381988328107
21
-20.615204242757088
31
0
0
LINE
5
105
100
AcDbEntity
8
0
100
AcDbLine
10
-34.226381988328107
20
-20.615204242757088
30
0
11
-15.080720732386474
21
-20.615204242757088
31
0
0
LINE
5
106
100
AcDbEntity
8
0
100
AcDbLine
10
-15.080720732386474
20
-20.615204242757088
30
0
11
-15.080720732386474
21
-22.615204242758136
31
0
0
LINE
5
107
100
AcDbEntity
8
0
100
AcDbLine
10
-15.080720732386474
20
-22.615204242758136
30
0
11
14.969279267613516
21
-22.615204242758136
31
0
0
LINE
5
108
100
AcDbEntity
8
0
100
AcDbLine
10
-25.807094283629972
20
-8.2254912155584812
30
0
11
-23.857094283630005
21
-8.2254912155584812
31
0
0
LINE
5
109
100
AcDbEntity
8
0
100
AcDbLine
10
-23.857094283630005
20
-8.2254912155584812
30
0
11
-23.857094283630005
21
-13.17549121555848
31
0
0
LINE
5
110
100
AcDbEntity
8
0
100
AcDbLine
10
-23.857094283630005
20
-13.17549121555848
30
0
11
-25.807094283629972
21
-13.17549121555848
31
0
0
LINE
5
111
100
AcDbEntity
8
0
100
AcDbLine
10
-25.807094283629972
20
-13.17549121555848
30
0
11
-25.807094283629972
21
-8.2254912155584812
31
0
0
LINE
5
112
100
AcDbEntity
8
0
100
AcDbLine
10
23.317427666547061
20
-8.2254912155584812
30
0
11
25.267427666547135
21
-8.2254912155584812
31
0
0
LINE
5
113
100
AcDbEntity
8
0
100
AcDbLine
10
25.267427666547135
20
-8.2254912155584812
30
0
11
25.267427666547135
21
-13.17549121555848
31
0
0
LINE
5
114
100
AcDbEntity
8
0
100
AcDbLine
10
25.267427666547135
20
-13.17549121555848
30
0
11
23.317427666547061
21
-13.17549121555848
31
0
0
LINE
5
115
100
AcDbEntity
8
0
100
AcDbLine
10
23.317427666547061
20
-13.17549121555848
30
0
11
23.317427666547061
21
-8.2254912155584812
31
0
0
ENDSEC
0
SECTION
2
OBJECTS
0
DICTIONARY
5
C
100
AcDbDictionary
3
ACAD_GROUP
350
D
3
ACAD_MLINESTYLE
350
17
0
DICTIONARY
5
D
100
AcDbDictionary
0
DICTIONARY
5
1A
330
C
100
AcDbDictionary
0
DICTIONARY
5
17
100
AcDbDictionary
0
ENDSEC
0
EOF
