0
SECTION
2
HEADER
9
$INSUNITS
70
4
9
$ACADVER
1
AC1014
9
$HANDSEED
5
FFFF
0
ENDSEC
0
SECTION
2
TABLES
0
TABLE
2
VPORT
5
8
100
AcDbSymbolTable
0
ENDTAB
0
TABLE
2
LTYPE
5
5
100
AcDbSymbolTable
0
LTYPE
5
14
100
AcDbSymbolTableRecord
100
AcDbLinetypeTableRecord
2
BYBLOCK
70
0
0
LTYPE
5
15
100
AcDbSymbolTableRecord
100
AcDbLinetypeTableRecord
2
BYLAYER
70
0
0
ENDTAB
0
TABLE
2
LAYER
5
2
100
AcDbSymbolTable
70
2
0
LAYER
5
50
100
AcDbSymbolTableRecord
100
AcDbLayerTableRecord
2
0
70
0
6
CONTINUOUS
0
ENDTAB
0
TABLE
2
STYLE
5
3
100
AcDbSymbolTable
70
1
0
STYLE
5
11
100
AcDbSymbolTableRecord
100
AcDbTextStyleTableRecord
2
STANDARD
70
0
0
ENDTAB
0
TABLE
2
VIEW
5
6
100
AcDbSymbolTable
70
0
0
ENDTAB
0
TABLE
2
UCS
5
7
100
AcDbSymbolTable
70
0
0
ENDTAB
0
TABLE
2
APPID
5
9
100
AcDbSymbolTable
70
2
0
APPID
5
12
100
AcDbSymbolTableRecord
100
AcDbRegAppTableRecord
2
ACAD
70
0
0
ENDTAB
0
TABLE
2
DIMSTYLE
5
A
100
AcDbSymbolTable
70
1
0
ENDTAB
0
TABLE
2
BLOCK_RECORD
5
1
100
AcDbSymbolTable
70
1
0
BLOCK_RECORD
5
1F
100
AcDbSymbolTableRecord
100
AcDbBlockTableRecord
2
*MODEL_SPACE
0
BLOCK_RECORD
5
1B
100
AcDbSymbolTableRecord
100
AcDbBlockTableRecord
2
*PAPER_SPACE
0
ENDTAB
0
ENDSEC
0
SECTION
2
BLOCKS
0
BLOCK
5
20
100
AcDbEntity
100
AcDbBlockBegin
2
*MODEL_SPACE
0
ENDBLK
5
21
100
AcDbEntity
100
AcDbBlockEnd
0
BLOCK
5
1C
100
AcDbEntity
100
AcDbBlockBegin
2
*PAPER_SPACE
0
ENDBLK
5
1D
100
AcDbEntity
100
AcDbBlockEnd
0
ENDSEC
0
SECTION
2
ENTITIES
0
LINE
5
100
100
AcDbEntity
8
0
100
AcDbLine
10
32.025000000000006
20
-5.5528810929457073
30
0
11
32.025000000000006
21
0.42607671586752716
31
0
0
LINE
5
101
100
AcDbEntity
8
0
100
AcDbLine
10
32.025000000000006
20
0.42607671586752716
30
0
11
30.025000000000006
21
0.42607671586752716
31
0
0
LINE
5
102
100
AcDbEntity
8
0
100
AcDbLine
10
30.025000000000006
20
0.42607671586752716
30
0
11
30.025000000000034
21
5.3702289352205668
31
0
0
SPLINE
5
103
100
AcDbEntity
8
0
100
AcDbSpline
70
0
71
3
72
29
73
25
74
0
42
0.000000001
43
0.0000000001
44
0.0000000001
40
6.0585154253566629e-05
40
6.0585154253566629e-05
40
6.0585154253566629e-05
40
6.0585154253566629e-05
40
0.17772105551470049
40
0.17772105551470049
40
0.17772105551470049
40
0.33663638488685688
40
0.33663638488685688
40
0.33663638488685688
40
0.50028758858164957
40
0.50028758858164957
40
0.50028758858164957
40
0.64137114628927161
40
0.64137114628927161
40
0.64137114628927161
40
0.76982627645432533
40
0.76982627645432533
40
0.76982627645432533
40
0.91765340713954602
40
0.91765340713954602
40
0.91765340713954602
40
0.94013354197719956
40
0.94013354197719956
40
0.94013354197719956
40
0.94189815549658784
40
0.94189815549658784
40
0.94189815549658784
40
0.94189815549658784
10
-30.004114303627212
20
6.8181621998905229
30
0
10
-26.193643119753254
20
8.107131001080905
30
0
10
-21.862642695388381
20
9.1846577706497357
30
0
10
-17.301164134523113
20
9.7692922609398281
30
0
10
-13.220971920389939
20
10.292241358160368
30
0
10
-8.9878927760078309
20
10.374125677907848
30
0
10
-4.8971698501398375
20
9.9117772902436663
30
0
10
-0.6845382969406888
20
9.4356503459990648
30
0
10
3.3676011364982461
20
8.3697271354961345
30
0
10
7.1989539688567117
20
7.2869866632025015
30
0
10
10.501959850991302
20
6.3535570613640324
30
0
10
13.661930118928321
20
5.4557991860350796
30
0
10
16.630717871457041
20
4.9684631167458804
30
0
10
19.333768626484119
20
4.5247486312889507
30
0
10
21.885182254632205
20
4.4386043572940359
30
0
10
24.063594823148197
20
4.5855097468690076
30
0
10
26.570528404069115
20
4.7545695749596284
30
0
10
28.543335183795136
20
5.1702576417422108
30
0
10
29.585108161793521
20
5.3175745124588936
30
0
10
29.743531023057706
20
5.3399770518454126
30
0
10
29.881159126489997
20
5.3569131026791084
30
0
10
29.997695519507211
20
5.3677012677989211
30
0
10
30.006797013004821
20
5.3685438236061245
30
0
10
30.015898506502428
20
5.3693863794133456
30
0
10
30.02500000000002
20
5.3702289352205312
30
0
0
LINE
5
104
100
AcDbEntity
8
0
100
AcDbLine
10
-30.004114303627212
20
6.8181621998905229
30
0
11
-32.025000000000006
21
6.8181621998905406
31
0
0
LINE
5
105
100
AcDbEntity
8
0
100
AcDbLine
10
-32.025000000000006
20
6.8181621998905406
30
0
11
-32.025000000000006
21
3.7681621998905435
31
0
0
LINE
5
106
100
AcDbEntity
8
0
100
AcDbLine
10
-32.025000000000006
20
3.7681621998905435
30
0
11
-30.024999999999995
21
3.7681621998905435
31
0
0
LINE
5
107
100
AcDbEntity
8
0
100
AcDbLine
10
-30.024999999999995
20
3.7681621998905435
30
0
11
-30.024999999999995
21
-6.181837800109431
31
0
0
LINE
5
108
100
AcDbEntity
8
0
100
AcDbLine
10
-30.024999999999995
20
-6.181837800109431
30
0
11
-32.025000000000006
21
-6.181837800109431
31
0
0
LINE
5
109
100
AcDbEntity
8
0
100
AcDbLine
10
-32.025000000000006
20
-6.181837800109431
30
0
11
-32.025000000000006
21
-9.2318378001094281
31
0
0
LINE
5
110
100
AcDbEntity
8
0
100
AcDbLine
10
-32.025000000000006
20
-9.2318378001094281
30
0
11
-29.242067415615153
21
-9.2318378001094281
31
0
0
SPLINE
5
111
100
AcDbEntity
8
0
100
AcDbSpline
70
0
71
3
72
26
73
22
74
0
42
0.000000001
43
0.0000000001
44
0.0000000001
40
0.022904475020807693
40
0.022904475020807693
40
0.022904475020807693
40
0.022904475020807693
40
0.022940208460177629
40
0.022940208460177629
40
0.022940208460177629
40
0.205661973029272
40
0.205661973029272
40
0.205661973029272
40
0.40298443034037967
40
0.40298443034037967
40
0.40298443034037967
40
0.60342461761561761
40
0.60342461761561761
40
0.60342461761561761
40
0.97504050800917463
40
0.97504050800917463
40
0.97504050800917463
40
0.99495180227370272
40
0.99495180227370272
40
0.99495180227370272
40
0.9953390968316882
40
0.9953390968316882
40
0.9953390968316882
40
0.9953390968316882
10
-29.24206741561461
20
-9.2318378001094104
30
0
10
-29.241671073284394
20
-9.2317998399937906
30
0
10
-29.241274730953677
20
-9.2317618798781353
30
0
10
-29.240878388623042
20
-9.2317239197624978
30
0
10
-27.208080163014444
20
-9.0370304698054227
30
0
10
-25.051717639909199
20
-8.0187739996554619
30
0
10
-22.641832042127525
20
-6.6900157274027805
30
0
10
-20.039380445218207
20
-5.2550807700282043
30
0
10
-17.119875570414411
20
-3.526300359842427
30
0
10
-13.69208086715771
20
-2.3305473204819727
30
0
10
-10.210126397177746
20
-1.1159011701633581
30
0
10
-6.2037959080274785
20
-0.45811295892706383
30
0
10
-1.6846724864327367
20
-0.61539905021152919
30
0
10
6.6937774489000468
20
-0.90700729331768315
30
0
10
16.774175564990848
20
-3.9371926002233693
30
0
10
28.149015810686166
20
-9.3383521628400068
30
0
10
28.758483266731108
20
-9.6277479615692663
30
0
10
29.371806759122151
20
-9.9239855166774227
30
0
10
29.988980434751767
20
-10.227055051755691
30
0
10
30.000986956501158
20
-10.2329509787989
30
0
10
30.012993478250543
20
-10.238846905842092
30
0
10
30.024999999999942
20
-10.244742832885301
30
0
0
LINE
5
112
100
AcDbEntity
8
0
100
AcDbLine
10
30.024999999999942
20
-10.244742832885283
30
0
11
30.025000000000006
21
-5.5528810929457073
31
0
0
LINE
5
113
100
AcDbEntity
8
0
100
AcDbLine
10
30.025000000000006
20
-5.5528810929457073
30
0
11
32.025000000000006
21
-5.5528810929457073
31
0
0
ENDSEC
0
SECTION
2
OBJECTS
0
DICTIONARY
5
C
100
AcDbDictionary
3
ACAD_GROUP
350
D
3
ACAD_MLINESTYLE
350
17
0
DICTIONARY
5
D
100
AcDbDictionary
0
DICTIONARY
5
1A
330
C
100
AcDbDictionary
0
DICTIONARY
5
17
100
AcDbDictionary
0
ENDSEC
0
EOF
