0
SECTION
2
HEADER
9
$INSUNITS
70
4
9
$ACADVER
1
AC1014
9
$HANDSEED
5
FFFF
0
ENDSEC
0
SECTION
2
TABLES
0
TABLE
2
VPORT
5
8
100
AcDbSymbolTable
0
ENDTAB
0
TABLE
2
LTYPE
5
5
100
AcDbSymbolTable
0
LTYPE
5
14
100
AcDbSymbolTableRecord
100
AcDbLinetypeTableRecord
2
BYBLOCK
70
0
0
LTYPE
5
15
100
AcDbSymbolTableRecord
100
AcDbLinetypeTableRecord
2
BYLAYER
70
0
0
ENDTAB
0
TABLE
2
LAYER
5
2
100
AcDbSymbolTable
70
2
0
LAYER
5
50
100
AcDbSymbolTableRecord
100
AcDbLayerTableRecord
2
0
70
0
6
CONTINUOUS
0
ENDTAB
0
TABLE
2
STYLE
5
3
100
AcDbSymbolTable
70
1
0
STYLE
5
11
100
AcDbSymbolTableRecord
100
AcDbTextStyleTableRecord
2
STANDARD
70
0
0
ENDTAB
0
TABLE
2
VIEW
5
6
100
AcDbSymbolTable
70
0
0
ENDTAB
0
TABLE
2
UCS
5
7
100
AcDbSymbolTable
70
0
0
ENDTAB
0
TABLE
2
APPID
5
9
100
AcDbSymbolTable
70
2
0
APPID
5
12
100
AcDbSymbolTableRecord
100
AcDbRegAppTableRecord
2
ACAD
70
0
0
ENDTAB
0
TABLE
2
DIMSTYLE
5
A
100
AcDbSymbolTable
70
1
0
ENDTAB
0
TABLE
2
BLOCK_RECORD
5
1
100
AcDbSymbolTable
70
1
0
BLOCK_RECORD
5
1F
100
AcDbSymbolTableRecord
100
AcDbBlockTableRecord
2
*MODEL_SPACE
0
BLOCK_RECORD
5
1B
100
AcDbSymbolTableRecord
100
AcDbBlockTableRecord
2
*PAPER_SPACE
0
ENDTAB
0
ENDSEC
0
SECTION
2
BLOCKS
0
BLOCK
5
20
100
AcDbEntity
100
AcDbBlockBegin
2
*MODEL_SPACE
0
ENDBLK
5
21
100
AcDbEntity
100
AcDbBlockEnd
0
BLOCK
5
1C
100
AcDbEntity
100
AcDbBlockBegin
2
*PAPER_SPACE
0
ENDBLK
5
1D
100
AcDbEntity
100
AcDbBlockEnd
0
ENDSEC
0
SECTION
2
ENTITIES
0
LINE
5
100
100
AcDbEntity
8
0
100
AcDbLine
10
1.7287066391588723
20
-0.39951969736309323
30
0
11
0.22099469599851318
21
-6.9268463522968737
31
0
0
LINE
5
101
100
AcDbEntity
8
0
100
AcDbLine
10
0.22099469599851318
20
-6.9268463522968737
30
0
11
-1.6789784402099883
21
-6.4879818154684976
31
0
0
LINE
5
102
100
AcDbEntity
8
0
100
AcDbLine
10
-1.6789784402099883
20
-6.4879818154684976
30
0
11
-0.17126649704962915
21
0.039344839465300652
31
0
0
LINE
5
103
100
AcDbEntity
8
0
100
AcDbLine
10
-0.17126649704962915
20
0.039344839465300652
30
0
11
1.7287066391588723
21
-0.39951969736309323
31
0
0
LINE
5
104
100
AcDbEntity
8
0
100
AcDbLine
10
9.5721854835072406
20
-2.211242528885311
30
0
11
11.472158619715742
21
-2.6501070657137227
31
0
0
LINE
5
105
100
AcDbEntity
8
0
100
AcDbLine
10
11.472158619715742
20
-2.6501070657137227
30
0
11
9.9644466765555251
21
-9.1774337206474677
31
0
0
LINE
5
106
100
AcDbEntity
8
0
100
AcDbLine
10
9.9644466765555251
20
-9.1774337206474677
30
0
11
8.0644735403470236
21
-8.7385691838190382
31
0
0
LINE
5
107
100
AcDbEntity
8
0
100
AcDbLine
10
8.0644735403470236
20
-8.7385691838190382
30
0
11
9.5721854835072406
21
-2.211242528885311
31
0
0
LINE
5
108
100
AcDbEntity
8
0
100
AcDbLine
10
20.602734752026635
20
-16.639834658032377
30
0
11
18.602734752026606
21
-16.639834658032377
31
0
0
LINE
5
109
100
AcDbEntity
8
0
100
AcDbLine
10
18.602734752026606
20
-16.639834658032377
30
0
11
18.602734752026606
21
-14.689834658032339
31
0
0
LINE
5
110
100
AcDbEntity
8
0
100
AcDbLine
10
18.602734752026606
20
-14.689834658032339
30
0
11
23.552734752026652
21
-14.689834658032339
31
0
0
LINE
5
111
100
AcDbEntity
8
0
100
AcDbLine
10
23.552734752026652
20
-14.689834658032339
30
0
11
23.552734752026652
21
-19.689834658032339
31
0
0
LINE
5
112
100
AcDbEntity
8
0
100
AcDbLine
10
23.552734752026652
20
-19.689834658032339
30
0
11
29.355789592642054
21
-19.689834658032339
31
0
0
LINE
5
113
100
AcDbEntity
8
0
100
AcDbLine
10
29.355789592642054
20
-19.689834658032339
30
0
11
29.355789592642054
21
2.39598764820661
31
0
0
LINE
5
114
100
AcDbEntity
8
0
100
AcDbLine
10
29.355789592642054
20
2.39598764820661
30
0
11
0.91256497115637103
21
19.689834658032357
31
0
0
LINE
5
115
100
AcDbEntity
8
0
100
AcDbLine
10
0.91256497115637103
20
19.689834658032357
30
0
11
-10.692523192910244
21
19.689834658032357
31
0
0
LINE
5
116
100
AcDbEntity
8
0
100
AcDbLine
10
-10.692523192910244
20
19.689834658032357
30
0
11
-10.692523192910244
21
6.0973959833032509
31
0
0
LINE
5
117
100
AcDbEntity
8
0
100
AcDbLine
10
-10.692523192910244
20
6.0973959833032509
30
0
11
-12.642523192910318
21
6.0973959833032509
31
0
0
LINE
5
118
100
AcDbEntity
8
0
100
AcDbLine
10
-12.642523192910318
20
6.0973959833032509
30
0
11
-12.642523192910318
21
19.689834658032357
31
0
0
LINE
5
119
100
AcDbEntity
8
0
100
AcDbLine
10
-12.642523192910318
20
19.689834658032357
30
0
11
-20.692523192910244
21
19.689834658032357
31
0
0
LINE
5
120
100
AcDbEntity
8
0
100
AcDbLine
10
-20.692523192910244
20
19.689834658032357
30
0
11
-20.692523192910244
21
6.0973959833032509
31
0
0
LINE
5
121
100
AcDbEntity
8
0
100
AcDbLine
10
-20.692523192910244
20
6.0973959833032509
30
0
11
-22.642523192910318
21
6.0973959833032509
31
0
0
LINE
5
122
100
AcDbEntity
8
0
100
AcDbLine
10
-22.642523192910318
20
6.0973959833032509
30
0
11
-22.642523192910318
21
19.689834658032357
31
0
0
LINE
5
123
100
AcDbEntity
8
0
100
AcDbLine
10
-22.642523192910318
20
19.689834658032357
30
0
11
-29.355789592641912
21
19.689834658032357
31
0
0
LINE
5
124
100
AcDbEntity
8
0
100
AcDbLine
10
-29.355789592641912
20
19.689834658032357
30
0
11
-29.35578959264177
21
1.2952993258362255
31
0
0
SPLINE
5
125
100
AcDbEntity
8
0
100
AcDbSpline
70
0
71
3
72
20
73
16
74
0
42
0.000000001
43
0.0000000001
44
0.0000000001
40
0.45924770773353935
40
0.45924770773353935
40
0.45924770773353935
40
0.45924770773353935
40
0.45952928703705187
40
0.45952928703705187
40
0.45952928703705187
40
0.58823475632585753
40
0.58823475632585753
40
0.58823475632585753
40
0.76555456455925663
40
0.76555456455925663
40
0.76555456455925663
40
0.83575644700195872
40
0.83575644700195872
40
0.83575644700195872
40
0.83597404499678529
40
0.83597404499678529
40
0.83597404499678529
40
0.83597404499678529
10
-17.495615709226939
20
-19.689834658032215
30
0
10
-17.494925956576282
20
-19.680862563270338
30
0
10
-17.49423620392534
20
-19.67189046850832
30
0
10
-17.493546451274256
20
-19.662918373746301
30
0
10
-17.178368177029597
20
-15.563174299724363
30
0
10
-17.217248314265987
20
-12.020539191331761
30
0
10
-17.854668360851775
20
-9.1921679691969516
30
0
10
-18.732853266662488
20
-5.2954707620532382
30
0
10
-20.774106561216286
20
-2.6860616631348755
30
0
10
-24.363116310976096
20
-0.73436370798928507
30
0
10
-25.784024911366146
20
0.038324192904717336
30
0
10
-27.441591365614642
20
0.70623926351336408
30
0
10
-29.338142605403164
20
1.2898687830346134
30
0
10
-29.344024934482604
20
1.29167896396849
30
0
10
-29.349907263562187
20
1.2934891449023667
30
0
10
-29.35578959264177
20
1.2952993258362255
30
0
0
LINE
5
126
100
AcDbEntity
8
0
100
AcDbLine
10
-17.495615709226939
20
-19.689834658032215
30
0
11
-12.531062065863381
21
-19.689834658032339
31
0
0
LINE
5
127
100
AcDbEntity
8
0
100
AcDbLine
10
-12.531062065863381
20
-19.689834658032339
30
0
11
-12.531062065863381
21
-14.689834658032339
31
0
0
LINE
5
128
100
AcDbEntity
8
0
100
AcDbLine
10
-12.531062065863381
20
-14.689834658032339
30
0
11
-7.5810620658633354
21
-14.689834658032339
31
0
0
LINE
5
129
100
AcDbEntity
8
0
100
AcDbLine
10
-7.5810620658633354
20
-14.689834658032339
30
0
11
-7.5810620658633354
21
-16.639834658032377
31
0
0
LINE
5
130
100
AcDbEntity
8
0
100
AcDbLine
10
-7.5810620658633354
20
-16.639834658032377
30
0
11
-9.5810620658633638
21
-16.639834658032377
31
0
0
LINE
5
131
100
AcDbEntity
8
0
100
AcDbLine
10
-9.5810620658633638
20
-16.639834658032377
30
0
11
-9.5810620658633638
21
-19.689834658032339
31
0
0
LINE
5
132
100
AcDbEntity
8
0
100
AcDbLine
10
-9.5810620658633638
20
-19.689834658032339
30
0
11
20.602734752026635
21
-19.689834658032339
31
0
0
LINE
5
133
100
AcDbEntity
8
0
100
AcDbLine
10
20.602734752026635
20
-19.689834658032339
30
0
11
20.602734752026635
21
-16.639834658032377
31
0
0
ENDSEC
0
SECTION
2
OBJECTS
0
DICTIONARY
5
C
100
AcDbDictionary
3
ACAD_GROUP
350
D
3
ACAD_MLINESTYLE
350
17
0
DICTIONARY
5
D
100
AcDbDictionary
0
DICTIONARY
5
1A
330
C
100
AcDbDictionary
0
DICTIONARY
5
17
100
AcDbDictionary
0
ENDSEC
0
EOF
