0
SECTION
2
HEADER
9
$INSUNITS
70
4
9
$ACADVER
1
AC1014
9
$HANDSEED
5
FFFF
0
ENDSEC
0
SECTION
2
TABLES
0
TABLE
2
VPORT
5
8
100
AcDbSymbolTable
0
ENDTAB
0
TABLE
2
LTYPE
5
5
100
AcDbSymbolTable
0
LTYPE
5
14
100
AcDbSymbolTableRecord
100
AcDbLinetypeTableRecord
2
BYBLOCK
70
0
0
LTYPE
5
15
100
AcDbSymbolTableRecord
100
AcDbLinetypeTableRecord
2
BYLAYER
70
0
0
ENDTAB
0
TABLE
2
LAYER
5
2
100
AcDbSymbolTable
70
2
0
LAYER
5
50
100
AcDbSymbolTableRecord
100
AcDbLayerTableRecord
2
0
70
0
6
CONTINUOUS
0
ENDTAB
0
TABLE
2
STYLE
5
3
100
AcDbSymbolTable
70
1
0
STYLE
5
11
100
AcDbSymbolTableRecord
100
AcDbTextStyleTableRecord
2
STANDARD
70
0
0
ENDTAB
0
TABLE
2
VIEW
5
6
100
AcDbSymbolTable
70
0
0
ENDTAB
0
TABLE
2
UCS
5
7
100
AcDbSymbolTable
70
0
0
ENDTAB
0
TABLE
2
APPID
5
9
100
AcDbSymbolTable
70
2
0
APPID
5
12
100
AcDbSymbolTableRecord
100
AcDbRegAppTableRecord
2
ACAD
70
0
0
ENDTAB
0
TABLE
2
DIMSTYLE
5
A
100
AcDbSymbolTable
70
1
0
ENDTAB
0
TABLE
2
BLOCK_RECORD
5
1
100
AcDbSymbolTable
70
1
0
BLOCK_RECORD
5
1F
100
AcDbSymbolTableRecord
100
AcDbBlockTableRecord
2
*MODEL_SPACE
0
BLOCK_RECORD
5
1B
100
AcDbSymbolTableRecord
100
AcDbBlockTableRecord
2
*PAPER_SPACE
0
ENDTAB
0
ENDSEC
0
SECTION
2
BLOCKS
0
BLOCK
5
20
100
AcDbEntity
100
AcDbBlockBegin
2
*MODEL_SPACE
0
ENDBLK
5
21
100
AcDbEntity
100
AcDbBlockEnd
0
BLOCK
5
1C
100
AcDbEntity
100
AcDbBlockBegin
2
*PAPER_SPACE
0
ENDBLK
5
1D
100
AcDbEntity
100
AcDbBlockEnd
0
ENDSEC
0
SECTION
2
ENTITIES
0
LINE
5
100
100
AcDbEntity
8
0
100
AcDbLine
10
13.722119511694757
20
-20.060402367600304
30
0
11
31.737351555701423
21
-20.060402367600304
31
0
0
LINE
5
101
100
AcDbEntity
8
0
100
AcDbLine
10
31.737351555701423
20
-20.060402367600304
30
0
11
31.737351555701423
21
22.060886650968573
31
0
0
SPLINE
5
102
100
AcDbEntity
8
0
100
AcDbSpline
70
0
71
3
72
41
73
37
74
0
42
0.000000001
43
0.0000000001
44
0.0000000001
40
-0.00020234096064501456
40
-0.00020234096064501456
40
-0.00020234096064501456
40
-0.00020234096064501456
40
0
40
0
40
0
40
0.093183002470385717
40
0.093183002470385717
40
0.093183002470385717
40
0.22802940891219417
40
0.22802940891219417
40
0.22802940891219417
40
0.32452573279816987
40
0.32452573279816987
40
0.32452573279816987
40
0.41582447000394068
40
0.41582447000394068
40
0.41582447000394068
40
0.53071811143123415
40
0.53071811143123415
40
0.53071811143123415
40
0.62880439679997835
40
0.62880439679997835
40
0.62880439679997835
40
0.71614547150043495
40
0.71614547150043495
40
0.71614547150043495
40
0.82817363197393812
40
0.82817363197393812
40
0.82817363197393812
40
0.92249212847008011
40
0.92249212847008011
40
0.92249212847008011
40
1
40
1
40
1
40
1.0002254497035816
40
1.0002254497035816
40
1.0002254497035816
40
1.0002254497035816
10
31.737351555700855
20
22.06088665096857
30
0
10
31.72885835782651
20
22.06072368963774
30
0
10
31.720365159952024
20
22.060560728306918
30
0
10
31.711871962077538
20
22.060397766976099
30
0
10
27.796520458621643
20
21.985272837465423
30
0
10
24.920993735494363
20
20.953328477962199
30
0
10
22.81792773415745
20
19.149105340469667
30
0
10
19.774551954541835
20
16.538189185590948
30
0
10
18.311744159887269
20
12.317714055880762
30
0
10
16.655955438336605
20
7.8725392383556247
30
0
10
15.471070138256664
20
4.6915643778442728
30
0
10
14.156261886448362
20
1.4187729957173012
30
0
10
12.265656582000872
20
-1.4076566715850092
30
0
10
10.476885052687948
20
-4.0818462057951477
30
0
10
8.1647350883007164
20
-6.3496407903475793
30
0
10
5.4325451032903516
20
-7.9025033828784874
30
0
10
1.9942581558868255
20
-9.8566819767180789
30
0
10
-2.0812478152332403
20
-10.663027088260923
30
0
10
-5.8779994006873437
20
-10.141060340450148
30
0
10
-9.1193385632270463
20
-9.6954501331075438
30
0
10
-12.119080430139348
20
-8.2881700438465025
30
0
10
-14.424219332071289
20
-6.1027500273263335
30
0
10
-16.476833601963108
20
-4.15673961213749
30
0
10
-17.965978896330341
20
-1.5959899711804626
30
0
10
-18.980366357446172
20
1.2457147604004337
30
0
10
-20.281471955996864
20
4.8906315968335612
30
0
10
-20.813255773338142
20
8.9835076038671602
30
0
10
-21.634080639536108
20
12.537919631555683
30
0
10
-22.325147661784968
20
15.530442198760355
30
0
10
-23.260883208094469
20
18.125305689208204
30
0
10
-25.113165356165155
20
19.82217717974293
30
0
10
-26.635310556769554
20
21.216610958662727
30
0
10
-28.783061267598526
20
21.999308381551543
30
0
10
-31.711830216647741
20
22.060396931121016
30
0
10
-31.720337329665682
20
22.0605743733175
30
0
10
-31.728844442683624
20
22.060751815513981
30
0
10
-31.737351555701423
20
22.060929257710463
30
0
0
LINE
5
103
100
AcDbEntity
8
0
100
AcDbLine
10
-31.737351555701565
20
22.060929257710455
30
0
11
-31.737351555701423
21
-20.060402367600297
31
0
0
LINE
5
104
100
AcDbEntity
8
0
100
AcDbLine
10
-31.737351555701423
20
-20.060402367600297
30
0
11
-16.327880488305198
21
-20.060402367600304
31
0
0
LINE
5
105
100
AcDbEntity
8
0
100
AcDbLine
10
-16.327880488305198
20
-20.060402367600304
30
0
11
-16.327880488305198
21
-22.0604023676003
31
0
0
LINE
5
106
100
AcDbEntity
8
0
100
AcDbLine
10
-16.327880488305198
20
-22.0604023676003
30
0
11
13.722119511694757
21
-22.0604023676003
31
0
0
LINE
5
107
100
AcDbEntity
8
0
100
AcDbLine
10
13.722119511694757
20
-22.0604023676003
30
0
11
13.722119511694757
21
-20.060402367600297
31
0
0
LINE
5
108
100
AcDbEntity
8
0
100
AcDbLine
10
-23.402582184057366
20
-12.620689340401693
30
0
11
-25.352582184057439
21
-12.620689340401693
31
0
0
LINE
5
109
100
AcDbEntity
8
0
100
AcDbLine
10
-25.352582184057439
20
-12.620689340401693
30
0
11
-25.352582184057439
21
-7.6706893404016929
31
0
0
LINE
5
110
100
AcDbEntity
8
0
100
AcDbLine
10
-25.352582184057439
20
-7.6706893404016929
30
0
11
-23.402582184057366
21
-7.6706893404016929
31
0
0
LINE
5
111
100
AcDbEntity
8
0
100
AcDbLine
10
-23.402582184057366
20
-7.6706893404016929
30
0
11
-23.402582184057366
21
-12.620689340401693
31
0
0
LINE
5
112
100
AcDbEntity
8
0
100
AcDbLine
10
21.666907587974293
20
-12.620689340401716
30
0
11
21.666907587974293
21
-7.6706893404016707
31
0
0
LINE
5
113
100
AcDbEntity
8
0
100
AcDbLine
10
21.666907587974293
20
-7.6706893404016707
30
0
11
23.616907587974367
21
-7.6706893404016707
31
0
0
LINE
5
114
100
AcDbEntity
8
0
100
AcDbLine
10
23.616907587974367
20
-7.6706893404016707
30
0
11
23.616907587974367
21
-12.620689340401716
31
0
0
LINE
5
115
100
AcDbEntity
8
0
100
AcDbLine
10
23.616907587974367
20
-12.620689340401716
30
0
11
21.666907587974293
21
-12.620689340401716
31
0
0
ENDSEC
0
SECTION
2
OBJECTS
0
DICTIONARY
5
C
100
AcDbDictionary
3
ACAD_GROUP
350
D
3
ACAD_MLINESTYLE
350
17
0
DICTIONARY
5
D
100
AcDbDictionary
0
DICTIONARY
5
1A
330
C
100
AcDbDictionary
0
DICTIONARY
5
17
100
AcDbDictionary
0
ENDSEC
0
EOF
