0
SECTION
2
HEADER
9
$INSUNITS
70
4
9
$ACADVER
1
AC1014
9
$HANDSEED
5
FFFF
0
ENDSEC
0
SECTION
2
TABLES
0
TABLE
2
VPORT
5
8
100
AcDbSymbolTable
0
ENDTAB
0
TABLE
2
LTYPE
5
5
100
AcDbSymbolTable
0
LTYPE
5
14
100
AcDbSymbolTableRecord
100
AcDbLinetypeTableRecord
2
BYBLOCK
70
0
0
LTYPE
5
15
100
AcDbSymbolTableRecord
100
AcDbLinetypeTableRecord
2
BYLAYER
70
0
0
ENDTAB
0
TABLE
2
LAYER
5
2
100
AcDbSymbolTable
70
2
0
LAYER
5
50
100
AcDbSymbolTableRecord
100
AcDbLayerTableRecord
2
0
70
0
6
CONTINUOUS
0
ENDTAB
0
TABLE
2
STYLE
5
3
100
AcDbSymbolTable
70
1
0
STYLE
5
11
100
AcDbSymbolTableRecord
100
AcDbTextStyleTableRecord
2
STANDARD
70
0
0
ENDTAB
0
TABLE
2
VIEW
5
6
100
AcDbSymbolTable
70
0
0
ENDTAB
0
TABLE
2
UCS
5
7
100
AcDbSymbolTable
70
0
0
ENDTAB
0
TABLE
2
APPID
5
9
100
AcDbSymbolTable
70
2
0
APPID
5
12
100
AcDbSymbolTableRecord
100
AcDbRegAppTableRecord
2
ACAD
70
0
0
ENDTAB
0
TABLE
2
DIMSTYLE
5
A
100
AcDbSymbolTable
70
1
0
ENDTAB
0
TABLE
2
BLOCK_RECORD
5
1
100
AcDbSymbolTable
70
1
0
BLOCK_RECORD
5
1F
100
AcDbSymbolTableRecord
100
AcDbBlockTableRecord
2
*MODEL_SPACE
0
BLOCK_RECORD
5
1B
100
AcDbSymbolTableRecord
100
AcDbBlockTableRecord
2
*PAPER_SPACE
0
ENDTAB
0
ENDSEC
0
SECTION
2
BLOCKS
0
BLOCK
5
20
100
AcDbEntity
100
AcDbBlockBegin
2
*MODEL_SPACE
0
ENDBLK
5
21
100
AcDbEntity
100
AcDbBlockEnd
0
BLOCK
5
1C
100
AcDbEntity
100
AcDbBlockBegin
2
*PAPER_SPACE
0
ENDBLK
5
1D
100
AcDbEntity
100
AcDbBlockEnd
0
ENDSEC
0
SECTION
2
ENTITIES
0
SPLINE
5
100
100
AcDbEntity
8
0
100
AcDbSpline
70
0
71
3
72
26
73
22
74
0
42
0.000000001
43
0.0000000001
44
0.0000000001
40
-1.001564363902407
40
-1.001564363902407
40
-1.001564363902407
40
-1.001564363902407
40
-1
40
-1
40
-1
40
-0.75
40
-0.75
40
-0.75
40
-0.52129684999890324
40
-0.52129684999890324
40
-0.52129684999890324
40
-0.33916169015215036
40
-0.33916169015215036
40
-0.33916169015215036
40
-0.10503595969131441
40
-0.10503595969131441
40
-0.10503595969131441
40
0
40
0
40
0
40
0.00042430321347601319
40
0.00042430321347601319
40
0.00042430321347601319
40
0.00042430321347601319
10
-8.0547693024549361
20
-30.025000000000006
30
0
10
-8.0408308241769433
20
-30.010824083667913
30
1.4210854715202004e-13
10
-8.0268923458988795
20
-29.996648167335827
30
0
10
-8.0129538676208689
20
-29.982472251003742
30
0
10
-5.7904821443345611
20
-27.722141347495551
30
0
10
-4.2255338237035112
20
-24.161958795960821
30
0
10
-3.3800453066900715
20
-19.383249226296108
30
-1.4210854715202004e-13
10
-2.606581758167188
20
-15.011625500205286
30
-1.4210854715202004e-13
10
-2.4541256317695748
20
-9.6157330641998939
30
0
10
-2.8590721823947263
20
-4.0694392433826287
30
0
10
-3.1815644818105504
20
0.34753145250313366
30
0
10
-3.8617598836752087
20
4.8128470501890952
30
-1.4210854715202004e-13
10
-4.6869491932420004
20
8.9779488409582875
30
0
10
-5.7476891955203335
20
14.33198097856458
30
-1.4210854715202004e-13
10
-7.0204638207307468
20
19.184695097855176
30
0
10
-7.6312807609471811
20
23.828532442570662
30
1.4210854715202004e-13
10
-7.9053119124359661
20
25.911899833213567
30
1.4210854715202004e-13
10
-8.0459791708715578
20
27.962252588763803
30
0
10
-8.0201255271078331
20
30.000317109242403
30
-1.4210854715202004e-13
10
-8.020021156407342
20
30.008544739494933
30
1.4210854715202004e-13
10
-8.0199167857069042
20
30.016772369747464
30
1.4210854715202004e-13
10
-8.0198124150064665
20
30.024999999999977
30
0
0
LINE
5
101
100
AcDbEntity
8
0
100
AcDbLine
10
-8.0547693024549361
20
-30.025000000000006
30
0
11
-4.724569601765527
21
-30.024999999999995
31
1.3877787807892835e-16
0
LINE
5
102
100
AcDbEntity
8
0
100
AcDbLine
10
-4.724569601765527
20
-30.024999999999995
30
1.4210854715202004e-13
11
-4.7245696017655003
21
-32.024999999999999
31
1.4210854715202004e-13
0
LINE
5
103
100
AcDbEntity
8
0
100
AcDbLine
10
-4.724569601765527
20
-32.024999999999999
30
1.4210854715202004e-13
11
2.0746235260489678
21
-32.024999999999999
31
1.4238610290817633e-13
0
LINE
5
104
100
AcDbEntity
8
0
100
AcDbLine
10
2.0746235260489954
20
-32.024999999999999
30
0
11
2.0746235260489865
21
-30.024999999999995
31
-1.5777218104420236e-29
0
LINE
5
105
100
AcDbEntity
8
0
100
AcDbLine
10
2.0746235260489776
20
-30.024999999999995
30
0
11
4.9571940877660925
21
-30.024999999999974
31
1.7242748920674953e-27
0
SPLINE
5
106
100
AcDbEntity
8
0
100
AcDbSpline
70
0
71
3
72
29
73
25
74
0
42
0.000000001
43
0.0000000001
44
0.0000000001
40
0.00055236174102147272
40
0.00055236174102147272
40
0.00055236174102147272
40
0.00055236174102147272
40
0.00055594611603408933
40
0.00055594611603408933
40
0.00055594611603408933
40
0.14492607047274261
40
0.14492607047274261
40
0.14492607047274261
40
0.30664233363616544
40
0.30664233363616544
40
0.30664233363616544
40
0.46249245453383692
40
0.46249245453383692
40
0.46249245453383692
40
0.68719941668536288
40
0.68719941668536288
40
0.68719941668536288
40
0.887371680841745
40
0.887371680841745
40
0.887371680841745
40
1
40
1
40
1
40
1.0004495151447435
40
1.0004495151447435
40
1.0004495151447435
40
1.0004495151447435
10
8.0299668795315249
20
29.98704004237096
30
0
10
8.0299668448132344
20
29.987012002809223
30
0
10
8.029966810095015
20
29.986983963269516
30
0
10
8.0299667753767956
20
29.986955923725411
30
0
10
8.0285593570981817
20
28.850280159313016
30
-1.4210854715202004e-13
10
7.48320641872672
20
26.931850762306595
30
0
10
6.7148463686132054
20
24.404142472232905
30
0
10
5.8541674946281219
20
21.572728834131894
30
1.4210854715202004e-13
10
4.7773702633737969
20
18.001770356172663
30
0
10
4.1127045396608608
20
14.158398072668676
30
0
10
3.4721490916752451
20
10.454441381352204
30
0
10
3.2247482411117545
20
6.5070690640448525
30
1.4210854715202004e-13
10
3.3510755242695289
20
2.622791634986017
30
-1.4210854715202004e-13
10
3.5332160312626293
20
-2.977615834769054
30
-1.4210854715202004e-13
10
4.4355511142638271
20
-8.4292428432822142
30
1.4210854715202004e-13
10
5.0592777735067784
20
-13.276356647675268
30
-1.4210854715202004e-13
10
5.6149026477871544
20
-17.594236857344701
30
0
10
5.912478676172892
20
-21.448285546434562
30
-1.4210854715202004e-13
10
5.7195365403863185
20
-24.803059402614956
30
0
10
5.6109763033322402
20
-26.690646287691457
30
0
10
5.3584741402012881
20
-28.424002137086237
30
0
10
4.9619367477690091
20
-30.006078081297318
30
0
10
4.9603558611013554
20
-30.012385387531538
30
1.4210854715202004e-13
10
4.9587749744337195
20
-30.018692693765757
30
-1.4210854715202004e-13
10
4.9571940877661191
20
-30.02499999999997
30
0
0
LINE
5
107
100
AcDbEntity
8
0
100
AcDbLine
10
8.0299668795315249
20
29.98704004237096
30
0
11
8.0299668795310009
21
30.024999999999977
31
9.8607613152626476e-31
0
LINE
5
108
100
AcDbEntity
8
0
100
AcDbLine
10
8.0299668795309564
20
30.024999999999977
30
0
11
4.0299166671217987
21
30.024999999999995
31
1.421085471520213e-13
0
LINE
5
109
100
AcDbEntity
8
0
100
AcDbLine
10
4.0299166671217534
20
30.024999999999995
30
0
11
4.0299166671217979
21
32.025000000000006
31
-1.5777218104420236e-29
0
LINE
5
110
100
AcDbEntity
8
0
100
AcDbLine
10
4.029916667121789
20
32.025000000000006
30
0
11
-4.0200833328781806
21
32.024999999999991
31
-1.2540181033218146e-27
0
LINE
5
111
100
AcDbEntity
8
0
100
AcDbLine
10
-4.0200833328781549
20
32.024999999999991
30
0
11
-4.0200833328781638
21
30.024999999999995
31
0
0
LINE
5
112
100
AcDbEntity
8
0
100
AcDbLine
10
-4.0200833328781549
20
30.024999999999995
30
0
11
-8.0198124150064398
21
30.024999999999995
31
-1.3877787807814457e-16
0
ENDSEC
0
SECTION
2
OBJECTS
0
DICTIONARY
5
C
100
AcDbDictionary
3
ACAD_GROUP
350
D
3
ACAD_MLINESTYLE
350
17
0
DICTIONARY
5
D
100
AcDbDictionary
0
DICTIONARY
5
1A
330
C
100
AcDbDictionary
0
DICTIONARY
5
17
100
AcDbDictionary
0
ENDSEC
0
EOF
