0
SECTION
2
HEADER
9
$INSUNITS
70
4
9
$ACADVER
1
AC1014
9
$HANDSEED
5
FFFF
0
ENDSEC
0
SECTION
2
TABLES
0
TABLE
2
VPORT
5
8
100
AcDbSymbolTable
0
ENDTAB
0
TABLE
2
LTYPE
5
5
100
AcDbSymbolTable
0
LTYPE
5
14
100
AcDbSymbolTableRecord
100
AcDbLinetypeTableRecord
2
BYBLOCK
70
0
0
LTYPE
5
15
100
AcDbSymbolTableRecord
100
AcDbLinetypeTableRecord
2
BYLAYER
70
0
0
ENDTAB
0
TABLE
2
LAYER
5
2
100
AcDbSymbolTable
70
2
0
LAYER
5
50
100
AcDbSymbolTableRecord
100
AcDbLayerTableRecord
2
0
70
0
6
CONTINUOUS
0
ENDTAB
0
TABLE
2
STYLE
5
3
100
AcDbSymbolTable
70
1
0
STYLE
5
11
100
AcDbSymbolTableRecord
100
AcDbTextStyleTableRecord
2
STANDARD
70
0
0
ENDTAB
0
TABLE
2
VIEW
5
6
100
AcDbSymbolTable
70
0
0
ENDTAB
0
TABLE
2
UCS
5
7
100
AcDbSymbolTable
70
0
0
ENDTAB
0
TABLE
2
APPID
5
9
100
AcDbSymbolTable
70
2
0
APPID
5
12
100
AcDbSymbolTableRecord
100
AcDbRegAppTableRecord
2
ACAD
70
0
0
ENDTAB
0
TABLE
2
DIMSTYLE
5
A
100
AcDbSymbolTable
70
1
0
ENDTAB
0
TABLE
2
BLOCK_RECORD
5
1
100
AcDbSymbolTable
70
1
0
BLOCK_RECORD
5
1F
100
AcDbSymbolTableRecord
100
AcDbBlockTableRecord
2
*MODEL_SPACE
0
BLOCK_RECORD
5
1B
100
AcDbSymbolTableRecord
100
AcDbBlockTableRecord
2
*PAPER_SPACE
0
ENDTAB
0
ENDSEC
0
SECTION
2
BLOCKS
0
BLOCK
5
20
100
AcDbEntity
100
AcDbBlockBegin
2
*MODEL_SPACE
0
ENDBLK
5
21
100
AcDbEntity
100
AcDbBlockEnd
0
BLOCK
5
1C
100
AcDbEntity
100
AcDbBlockBegin
2
*PAPER_SPACE
0
ENDBLK
5
1D
100
AcDbEntity
100
AcDbBlockEnd
0
ENDSEC
0
SECTION
2
ENTITIES
0
LINE
5
100
100
AcDbEntity
8
0
100
AcDbLine
10
79.241750587377879
20
0.90212730484090287
30
0
11
81.110736963929924
21
1.4583556071255899
31
0
0
LINE
5
101
100
AcDbEntity
8
0
100
AcDbLine
10
81.110736963929924
20
1.4583556071255899
30
0
11
83.378436965551828
21
-6.1613580818947256
31
0
0
LINE
5
102
100
AcDbEntity
8
0
100
AcDbLine
10
83.378436965551828
20
-6.1613580818947256
30
0
11
81.509450588999783
21
-6.7175863841793415
31
0
0
LINE
5
103
100
AcDbEntity
8
0
100
AcDbLine
10
81.509450588999783
20
-6.7175863841793415
30
0
11
79.241750587377879
21
0.90212730484090287
31
0
0
LINE
5
104
100
AcDbEntity
8
0
100
AcDbLine
10
-77.253545671167103
20
12.03312897990287
30
0
11
-77.253804583998402
21
12.03200070935317
31
0
0
LINE
5
105
100
AcDbEntity
8
0
100
AcDbLine
10
-77.253804583998402
20
12.03200070935317
30
0
11
-93.455615840480419
21
15.749953665598078
31
0
0
LINE
5
106
100
AcDbEntity
8
0
100
AcDbLine
10
-93.455615840480419
20
15.749953665598078
30
0
11
-94.126616165577843
21
12.825919728588282
31
0
0
LINE
5
107
100
AcDbEntity
8
0
100
AcDbLine
10
-94.126616165577843
20
12.825919728588282
30
0
11
-96.027215428025983
21
13.26206470859038
31
0
0
LINE
5
108
100
AcDbEntity
8
0
100
AcDbLine
10
-96.027215428025983
20
13.26206470859038
30
0
11
-95.356215102928559
21
16.186098645600175
31
0
0
LINE
5
109
100
AcDbEntity
8
0
100
AcDbLine
10
-95.356215102928559
20
16.186098645600175
30
0
11
-97.354280994220517
21
16.644610034833178
31
0
0
LINE
5
110
100
AcDbEntity
8
0
100
AcDbLine
10
-97.354280994220517
20
16.644610034833178
30
0
11
-98.707456800859461
21
10.747843918096613
31
0
0
LINE
5
111
100
AcDbEntity
8
0
100
AcDbLine
10
-98.707456800859461
20
10.747843918096613
30
0
11
-93.795588751696499
21
9.6206801680089171
31
0
0
ARC
5
112
100
AcDbEntity
8
0
100
AcDbCircle
10
-90.840163274260703
20
6.9161416115051111
30
0
40
4.0061288741493168
210
0
220
0
230
1
100
AcDbArc
50
-163.38673409549838
51
137.53806525392525
0
LINE
5
113
100
AcDbEntity
8
0
100
AcDbLine
10
-94.679061916316272
20
5.7707483286905159
30
0
11
-99.590929965479233
21
6.8979120787782122
31
0
0
LINE
5
114
100
AcDbEntity
8
0
100
AcDbLine
10
-99.590929965479233
20
6.8979120787782122
30
0
11
-100.94410577211832
21
1.0011459620416829
31
0
0
LINE
5
115
100
AcDbEntity
8
0
100
AcDbLine
10
-100.94410577211832
20
1.0011459620416829
30
0
11
-98.946039880826504
21
0.5426345728086801
31
0
0
LINE
5
116
100
AcDbEntity
8
0
100
AcDbLine
10
-98.946039880826504
20
0.5426345728086801
30
0
11
-98.27503955572908
21
3.4666685098185113
31
0
0
LINE
5
117
100
AcDbEntity
8
0
100
AcDbLine
10
-98.27503955572908
20
3.4666685098185113
30
0
11
-96.374440293280941
21
3.0305235298164135
31
0
0
LINE
5
118
100
AcDbEntity
8
0
100
AcDbLine
10
-96.374440293280941
20
3.0305235298164135
30
0
11
-97.045440618378365
21
0.1064895928065468
31
0
0
LINE
5
119
100
AcDbEntity
8
0
100
AcDbLine
10
-97.045440618378365
20
0.1064895928065468
30
0
11
-83.624148104422602
21
-2.9733965624482295
31
0
0
LINE
5
120
100
AcDbEntity
8
0
100
AcDbLine
10
-83.624148104422602
20
-2.9733965624482295
30
0
11
-76.085133193112426
21
-4.6895911114244626
31
0
0
ARC
5
121
100
AcDbEntity
8
0
100
AcDbCircle
10
33.363024246785216
20
488.73952917663814
30
0
40
505.42180000000008
210
0
220
0
230
1
100
AcDbArc
50
257.49363008211344
51
269.25592695921728
0
LINE
5
122
100
AcDbEntity
8
0
100
AcDbLine
10
26.7995361822409
20
-16.639651775314697
30
0
11
37.836151750210547
21
-16.639651775314626
31
0
0
ARC
5
123
100
AcDbEntity
8
0
100
AcDbCircle
10
32.782924246785257
20
184.96712917663814
30
0
40
201.67010000000008
210
-0
220
0
230
1
100
AcDbArc
50
271.43580488183176
51
286.58061355890703
0
LINE
5
124
100
AcDbEntity
8
0
100
AcDbLine
10
90.332329960671842
20
-8.3173635691290215
30
0
11
88.620858703339422
21
-2.5666377418439978
31
0
0
LINE
5
125
100
AcDbEntity
8
0
100
AcDbLine
10
88.620858703339422
20
-2.5666377418439978
30
0
11
93.375293481578723
21
-1.1516722727528261
31
0
0
ARC
5
126
100
AcDbEntity
8
0
100
AcDbCircle
10
96.166139333674323
20
1.7916865014279537
30
0
40
4.0561288741491186
210
0
220
0
230
1
100
AcDbArc
50
-133.47646052256076
51
166.62348231701117
0
LINE
5
127
100
AcDbEntity
8
0
100
AcDbLine
10
92.22005008452598
20
2.7300686631631521
30
0
11
87.465615306286679
21
1.3151031940719804
31
0
0
LINE
5
128
100
AcDbEntity
8
0
100
AcDbLine
10
87.465615306286679
20
1.3151031940719804
30
0
11
85.754143126725779
21
7.0658321201425878
31
0
0
ARC
5
129
100
AcDbEntity
8
0
100
AcDbCircle
10
32.782924246785257
20
184.96712917663814
30
0
40
185.62010000000009
210
0
220
0
230
1
100
AcDbArc
50
269.89831975699582
51
286.58122770425365
0
LINE
5
130
100
AcDbEntity
8
0
100
AcDbLine
10
32.453512776552316
20
-0.65267852742486809
30
0
11
32.453561478889554
21
-0.63142573661998824
31
0
0
ARC
5
131
100
AcDbEntity
8
0
100
AcDbCircle
10
33.363024246785216
20
488.73952917663814
30
0
40
489.37180000000023
210
0
220
0
230
1
100
AcDbArc
50
257.33837831339724
51
269.89351979779036
0
LINE
5
132
100
AcDbEntity
8
0
100
AcDbLine
10
-73.903709140901128
20
11.268476081714596
30
0
11
-77.253545671167103
21
12.03312897990287
31
0
0
ENDSEC
0
SECTION
2
OBJECTS
0
DICTIONARY
5
C
100
AcDbDictionary
3
ACAD_GROUP
350
D
3
ACAD_MLINESTYLE
350
17
0
DICTIONARY
5
D
100
AcDbDictionary
0
DICTIONARY
5
1A
330
C
100
AcDbDictionary
0
DICTIONARY
5
17
100
AcDbDictionary
0
ENDSEC
0
EOF
