0
SECTION
2
HEADER
9
$INSUNITS
70
4
9
$ACADVER
1
AC1014
9
$HANDSEED
5
FFFF
0
ENDSEC
0
SECTION
2
TABLES
0
TABLE
2
VPORT
5
8
100
AcDbSymbolTable
0
ENDTAB
0
TABLE
2
LTYPE
5
5
100
AcDbSymbolTable
0
LTYPE
5
14
100
AcDbSymbolTableRecord
100
AcDbLinetypeTableRecord
2
BYBLOCK
70
0
0
LTYPE
5
15
100
AcDbSymbolTableRecord
100
AcDbLinetypeTableRecord
2
BYLAYER
70
0
0
ENDTAB
0
TABLE
2
LAYER
5
2
100
AcDbSymbolTable
70
2
0
LAYER
5
50
100
AcDbSymbolTableRecord
100
AcDbLayerTableRecord
2
0
70
0
6
CONTINUOUS
0
ENDTAB
0
TABLE
2
STYLE
5
3
100
AcDbSymbolTable
70
1
0
STYLE
5
11
100
AcDbSymbolTableRecord
100
AcDbTextStyleTableRecord
2
STANDARD
70
0
0
ENDTAB
0
TABLE
2
VIEW
5
6
100
AcDbSymbolTable
70
0
0
ENDTAB
0
TABLE
2
UCS
5
7
100
AcDbSymbolTable
70
0
0
ENDTAB
0
TABLE
2
APPID
5
9
100
AcDbSymbolTable
70
2
0
APPID
5
12
100
AcDbSymbolTableRecord
100
AcDbRegAppTableRecord
2
ACAD
70
0
0
ENDTAB
0
TABLE
2
DIMSTYLE
5
A
100
AcDbSymbolTable
70
1
0
ENDTAB
0
TABLE
2
BLOCK_RECORD
5
1
100
AcDbSymbolTable
70
1
0
BLOCK_RECORD
5
1F
100
AcDbSymbolTableRecord
100
AcDbBlockTableRecord
2
*MODEL_SPACE
0
BLOCK_RECORD
5
1B
100
AcDbSymbolTableRecord
100
AcDbBlockTableRecord
2
*PAPER_SPACE
0
ENDTAB
0
ENDSEC
0
SECTION
2
BLOCKS
0
BLOCK
5
20
100
AcDbEntity
100
AcDbBlockBegin
2
*MODEL_SPACE
0
ENDBLK
5
21
100
AcDbEntity
100
AcDbBlockEnd
0
BLOCK
5
1C
100
AcDbEntity
100
AcDbBlockBegin
2
*PAPER_SPACE
0
ENDBLK
5
1D
100
AcDbEntity
100
AcDbBlockEnd
0
ENDSEC
0
SECTION
2
ENTITIES
0
LINE
5
100
100
AcDbEntity
8
0
100
AcDbLine
10
51.757264768628204
20
-7.7307552446551586
30
0
11
53.707264768628278
21
-7.7307552446551586
31
0
0
LINE
5
101
100
AcDbEntity
8
0
100
AcDbLine
10
53.707264768628278
20
-7.7307552446551586
30
0
11
53.707264768628278
21
-15.680755244655149
31
0
0
LINE
5
102
100
AcDbEntity
8
0
100
AcDbLine
10
53.707264768628278
20
-15.680755244655149
30
0
11
51.757264768628204
21
-15.680755244655149
31
0
0
LINE
5
103
100
AcDbEntity
8
0
100
AcDbLine
10
51.757264768628204
20
-15.680755244655149
30
0
11
51.757264768628204
21
-7.7307552446551586
31
0
0
ARC
5
104
100
AcDbEntity
8
0
100
AcDbCircle
10
108.14997964961989
20
480.21849182477177
30
0
40
483.98660000000018
210
0
220
0
230
1
100
AcDbArc
50
257.60972186333345
51
264.26153686886141
0
LINE
5
105
100
AcDbEntity
8
0
100
AcDbLine
10
4.3011666598306419
20
7.504568801372864
30
0
11
-6.1379962843567171
21
9.945593111811144
31
0
0
ARC
5
106
100
AcDbEntity
8
0
100
AcDbCircle
10
-112.25002035038017
20
-478.80470817522837
30
0
40
500.13660000000021
210
0
220
-0
230
1
100
AcDbArc
50
77.750679400294572
51
84.957236660761907
0
LINE
5
107
100
AcDbEntity
8
0
100
AcDbLine
10
-68.288393642777692
20
19.396048585318574
30
0
11
-68.28839364277755
21
16.70420701737217
31
0
0
LINE
5
108
100
AcDbEntity
8
0
100
AcDbLine
10
-68.28839364277755
20
16.70420701737217
30
0
11
-70.238393642777623
21
16.70420701737217
31
0
0
LINE
5
109
100
AcDbEntity
8
0
100
AcDbLine
10
-70.238393642777623
20
16.70420701737217
30
0
11
-70.238393642777623
21
19.564273484887813
31
0
0
ARC
5
110
100
AcDbEntity
8
0
100
AcDbCircle
10
-112.25002035038017
20
-478.80470817522837
30
0
40
500.13660000000016
210
0
220
-0
230
1
100
AcDbArc
50
85.181459057154683
51
85.417100371392237
0
LINE
5
111
100
AcDbEntity
8
0
100
AcDbLine
10
-72.288393642777748
20
19.732840110196701
30
0
11
-72.288393642777606
21
13.654207017372215
31
0
0
LINE
5
112
100
AcDbEntity
8
0
100
AcDbLine
10
-72.288393642777606
20
13.654207017372215
30
0
11
-67.248855384970909
21
13.654207017372215
31
0
0
ARC
5
113
100
AcDbEntity
8
0
100
AcDbCircle
10
-63.763393642777544
20
11.6792070173722
30
0
40
4.0061288741494119
210
0
220
0
230
1
100
AcDbArc
50
-150.46239967471365
51
150.46239967471351
0
LINE
5
114
100
AcDbEntity
8
0
100
AcDbLine
10
-67.248855384970909
20
9.7042070173721928
30
0
11
-72.288393642777606
21
9.7042070173721662
31
0
0
LINE
5
115
100
AcDbEntity
8
0
100
AcDbLine
10
-72.288393642777606
20
9.7042070173721662
30
0
11
-72.288393642777606
21
3.6296445510699815
31
0
0
ARC
5
116
100
AcDbEntity
8
0
100
AcDbCircle
10
-112.25002035038017
20
-478.80470817522837
30
0
40
484.08660000000049
210
0
220
-0
230
1
100
AcDbArc
50
85.021302458059594
51
85.264812024984849
0
LINE
5
117
100
AcDbEntity
8
0
100
AcDbLine
10
-70.238393642777481
20
3.4554493341198711
30
0
11
-70.238393642777623
21
6.6542070173722134
31
0
0
LINE
5
118
100
AcDbEntity
8
0
100
AcDbLine
10
-70.238393642777623
20
6.6542070173722134
30
0
11
-68.28839364277755
21
6.6542070173722134
31
0
0
LINE
5
119
100
AcDbEntity
8
0
100
AcDbLine
10
-68.28839364277755
20
6.6542070173722134
30
0
11
-68.28839364277755
21
3.2816032636896697
31
0
0
ARC
5
120
100
AcDbEntity
8
0
100
AcDbCircle
10
-112.25002035038017
20
-478.80470817522837
30
0
40
484.08659999999998
210
0
220
-0
230
1
100
AcDbArc
50
83.528429588206379
51
84.789587775899776
0
ARC
5
121
100
AcDbEntity
8
0
100
AcDbCircle
10
-57.681831929740781
20
-0.63267829346028037
30
0
40
2.829931574983279
210
0
220
0
230
1
100
AcDbArc
50
-90.106448144157241
51
90.135471532075243
0
LINE
5
122
100
AcDbEntity
8
0
100
AcDbLine
10
-57.687089573384185
20
-3.4626049844313833
30
0
11
-68.28839364277755
21
-3.4429091106377996
31
0
0
LINE
5
123
100
AcDbEntity
8
0
100
AcDbLine
10
-68.28839364277755
20
-3.4429091106377996
30
0
11
-68.28839364277755
21
-6.4355241096594451
31
0
0
LINE
5
124
100
AcDbEntity
8
0
100
AcDbLine
10
-68.28839364277755
20
-6.4355241096594451
30
0
11
-70.238393642777623
21
-6.4355241096594451
31
0
0
LINE
5
125
100
AcDbEntity
8
0
100
AcDbLine
10
-70.238393642777623
20
-6.4355241096594451
30
0
11
-70.238393642777623
21
-3.439286258803147
31
0
0
LINE
5
126
100
AcDbEntity
8
0
100
AcDbLine
10
-70.238393642777623
20
-3.439286258803147
30
0
11
-72.288393642777606
21
-3.4354776196949199
31
0
0
LINE
5
127
100
AcDbEntity
8
0
100
AcDbLine
10
-72.288393642777606
20
-3.4354776196949199
30
0
11
-72.288393642777606
21
-9.4855241096593979
31
0
0
LINE
5
128
100
AcDbEntity
8
0
100
AcDbLine
10
-72.288393642777606
20
-9.4855241096593979
30
0
11
-67.248855384970909
21
-9.4855241096593979
31
0
0
ARC
5
129
100
AcDbEntity
8
0
100
AcDbCircle
10
-63.763393642777544
20
-11.460524109659413
30
0
40
4.0061288741494119
210
0
220
0
230
1
100
AcDbArc
50
-150.46239967471365
51
150.46239967471351
0
LINE
5
130
100
AcDbEntity
8
0
100
AcDbLine
10
-67.248855384970909
20
-13.43552410965942
30
0
11
-72.288393642777606
21
-13.435524109659447
31
0
0
LINE
5
131
100
AcDbEntity
8
0
100
AcDbLine
10
-72.288393642777606
20
-13.435524109659447
30
0
11
-72.288393642777606
21
-19.485477705987144
31
0
0
LINE
5
132
100
AcDbEntity
8
0
100
AcDbLine
10
-72.288393642777606
20
-19.485477705987144
30
0
11
-70.238393642777623
21
-19.489286345095358
31
0
0
LINE
5
133
100
AcDbEntity
8
0
100
AcDbLine
10
-70.238393642777623
20
-19.489286345095358
30
0
11
-70.238393642777623
21
-16.485524109659401
31
0
0
LINE
5
134
100
AcDbEntity
8
0
100
AcDbLine
10
-70.238393642777623
20
-16.485524109659401
30
0
11
-68.28839364277755
21
-16.485524109659401
31
0
0
LINE
5
135
100
AcDbEntity
8
0
100
AcDbLine
10
-68.28839364277755
20
-16.485524109659401
30
0
11
-68.28839364277755
21
-19.492909196930015
31
0
0
LINE
5
136
100
AcDbEntity
8
0
100
AcDbLine
10
-68.28839364277755
20
-19.492909196930015
30
0
11
59.757264768628175
21
-19.730801734619597
31
0
0
LINE
5
137
100
AcDbEntity
8
0
100
AcDbLine
10
59.757264768628175
20
-19.730801734619597
30
0
11
59.757264768628175
21
-13.730755244655128
31
0
0
LINE
5
138
100
AcDbEntity
8
0
100
AcDbLine
10
59.757264768628175
20
-13.730755244655128
30
0
11
64.71778665037121
21
-13.730755244655128
31
0
0
ARC
5
139
100
AcDbEntity
8
0
100
AcDbCircle
10
68.232264768628283
20
-11.705755244655141
30
0
40
4.0561288741493078
210
0
220
0
230
1
100
AcDbArc
50
-150.04997141978711
51
150.04997141978779
0
LINE
5
140
100
AcDbEntity
8
0
100
AcDbLine
10
64.71778665037121
20
-9.6807552446552059
30
0
11
59.757264768628175
21
-9.6807552446551703
31
0
0
LINE
5
141
100
AcDbEntity
8
0
100
AcDbLine
10
59.757264768628175
20
-9.6807552446551703
30
0
11
59.757264768628318
21
-1.3426923730487683
31
0
0
ENDSEC
0
SECTION
2
OBJECTS
0
DICTIONARY
5
C
100
AcDbDictionary
3
ACAD_GROUP
350
D
3
ACAD_MLINESTYLE
350
17
0
DICTIONARY
5
D
100
AcDbDictionary
0
DICTIONARY
5
1A
330
C
100
AcDbDictionary
0
DICTIONARY
5
17
100
AcDbDictionary
0
ENDSEC
0
EOF
