0
SECTION
2
HEADER
9
$INSUNITS
70
4
9
$ACADVER
1
AC1014
9
$HANDSEED
5
FFFF
0
ENDSEC
0
SECTION
2
TABLES
0
TABLE
2
VPORT
5
8
100
AcDbSymbolTable
0
ENDTAB
0
TABLE
2
LTYPE
5
5
100
AcDbSymbolTable
0
LTYPE
5
14
100
AcDbSymbolTableRecord
100
AcDbLinetypeTableRecord
2
BYBLOCK
70
0
0
LTYPE
5
15
100
AcDbSymbolTableRecord
100
AcDbLinetypeTableRecord
2
BYLAYER
70
0
0
ENDTAB
0
TABLE
2
LAYER
5
2
100
AcDbSymbolTable
70
2
0
LAYER
5
50
100
AcDbSymbolTableRecord
100
AcDbLayerTableRecord
2
0
70
0
6
CONTINUOUS
0
ENDTAB
0
TABLE
2
STYLE
5
3
100
AcDbSymbolTable
70
1
0
STYLE
5
11
100
AcDbSymbolTableRecord
100
AcDbTextStyleTableRecord
2
STANDARD
70
0
0
ENDTAB
0
TABLE
2
VIEW
5
6
100
AcDbSymbolTable
70
0
0
ENDTAB
0
TABLE
2
UCS
5
7
100
AcDbSymbolTable
70
0
0
ENDTAB
0
TABLE
2
APPID
5
9
100
AcDbSymbolTable
70
2
0
APPID
5
12
100
AcDbSymbolTableRecord
100
AcDbRegAppTableRecord
2
ACAD
70
0
0
ENDTAB
0
TABLE
2
DIMSTYLE
5
A
100
AcDbSymbolTable
70
1
0
ENDTAB
0
TABLE
2
BLOCK_RECORD
5
1
100
AcDbSymbolTable
70
1
0
BLOCK_RECORD
5
1F
100
AcDbSymbolTableRecord
100
AcDbBlockTableRecord
2
*MODEL_SPACE
0
BLOCK_RECORD
5
1B
100
AcDbSymbolTableRecord
100
AcDbBlockTableRecord
2
*PAPER_SPACE
0
ENDTAB
0
ENDSEC
0
SECTION
2
BLOCKS
0
BLOCK
5
20
100
AcDbEntity
100
AcDbBlockBegin
2
*MODEL_SPACE
0
ENDBLK
5
21
100
AcDbEntity
100
AcDbBlockEnd
0
BLOCK
5
1C
100
AcDbEntity
100
AcDbBlockBegin
2
*PAPER_SPACE
0
ENDBLK
5
1D
100
AcDbEntity
100
AcDbBlockEnd
0
ENDSEC
0
SECTION
2
ENTITIES
0
CIRCLE
5
100
100
AcDbEntity
8
0
100
AcDbCircle
10
1.5634789861759657
20
23.456679213202047
30
0
40
3.9749999999999153
210
0
220
0
230
1
0
LINE
5
101
100
AcDbEntity
8
0
100
AcDbLine
10
40.787862286910297
20
26.641388540279777
30
0
11
41.78890590481501
21
18.754664779740562
31
0
0
LINE
5
102
100
AcDbEntity
8
0
100
AcDbLine
10
41.78890590481501
20
18.754664779740562
30
0
11
39.85442649185245
21
18.509125779122428
31
0
0
LINE
5
103
100
AcDbEntity
8
0
100
AcDbLine
10
39.85442649185245
20
18.509125779122428
30
0
11
38.853382873947737
21
26.39584953966164
31
0
0
LINE
5
104
100
AcDbEntity
8
0
100
AcDbLine
10
38.853382873947737
20
26.39584953966164
30
0
11
40.787862286910297
21
26.641388540279777
31
0
0
LINE
5
105
100
AcDbEntity
8
0
100
AcDbLine
10
41.635773211134222
20
4.474782774045476
30
0
11
43.570252624096781
21
4.7203217746636206
31
0
0
LINE
5
106
100
AcDbEntity
8
0
100
AcDbLine
10
43.570252624096781
20
4.7203217746636206
30
0
11
44.571296242001495
21
-3.1664019858754777
31
0
0
LINE
5
107
100
AcDbEntity
8
0
100
AcDbLine
10
44.571296242001495
20
-3.1664019858754777
30
0
11
42.636816829038935
21
-3.4119409864936223
31
0
0
LINE
5
108
100
AcDbEntity
8
0
100
AcDbLine
10
42.636816829038935
20
-3.4119409864936223
30
0
11
41.635773211134222
21
4.474782774045476
31
0
0
LINE
5
109
100
AcDbEntity
8
0
100
AcDbLine
10
46.272035338523523
20
31.481679213201971
30
0
11
-15.826880625113375
21
31.481679213201978
31
0
0
LINE
5
110
100
AcDbEntity
8
0
100
AcDbLine
10
47.035247671334872
20
25.4687096164145
30
0
11
46.272035338523523
21
31.481679213201971
31
0
0
LINE
5
111
100
AcDbEntity
8
0
100
AcDbLine
10
51.956287393274039
20
26.093325814049155
30
0
11
47.035247671334872
21
25.4687096164145
31
0
0
ARC
5
112
100
AcDbEntity
8
0
100
AcDbCircle
10
55.697775620621286
20
24.526977421024618
30
0
40
4.0561288741494019
210
0
220
0
230
1
100
AcDbArc
50
-142.8162317794083
51
157.28371106016803
0
LINE
5
113
100
AcDbEntity
8
0
100
AcDbLine
10
47.545213288003225
20
21.450944681800319
30
0
11
52.466253009942392
21
22.075560879434928
31
0
0
LINE
5
114
100
AcDbEntity
8
0
100
AcDbLine
10
49.817638008521357
20
3.5476428507984537
30
0
11
47.545213288003225
21
21.450944681800319
31
0
0
LINE
5
115
100
AcDbEntity
8
0
100
AcDbLine
10
54.738677730460523
20
4.1722590484331157
30
0
11
49.817638008521357
21
3.5476428507984537
31
0
0
ARC
5
116
100
AcDbEntity
8
0
100
AcDbCircle
10
58.480165957807628
20
2.6059106554086142
30
0
40
4.0561288741492882
210
0
220
0
230
1
100
AcDbArc
50
-142.81623177940705
51
157.28371106016763
0
LINE
5
117
100
AcDbEntity
8
0
100
AcDbLine
10
50.32760362518971
20
-0.47012208381573828
30
0
11
55.248643347128876
21
0.15449411381892375
31
0
0
LINE
5
118
100
AcDbEntity
8
0
100
AcDbLine
10
51.230239387715244
20
-7.5815393968031231
30
0
11
50.32760362518971
21
-0.47012208381573828
31
0
0
LINE
5
119
100
AcDbEntity
8
0
100
AcDbLine
10
-8.1256791670288919
20
-21.257770820621484
30
0
11
51.230239387715244
21
-7.5815393968031231
31
0
0
LINE
5
120
100
AcDbEntity
8
0
100
AcDbLine
10
-59.112438906237941
20
-33.0417899050247
30
0
11
-8.1256791670288919
21
-21.257770820621484
31
0
0
LINE
5
121
100
AcDbEntity
8
0
100
AcDbLine
10
-59.080762056744192
20
-30.78047409345821
30
0
11
-59.112438906237941
21
-33.0417899050247
31
0
0
LINE
5
122
100
AcDbEntity
8
0
100
AcDbLine
10
-61.030570762356149
20
-30.753160882011308
30
0
11
-59.080762056744192
21
-30.78047409345821
31
0
0
LINE
5
123
100
AcDbEntity
8
0
100
AcDbLine
10
-61.068964573467071
20
-33.49398055058991
30
0
11
-61.030570762356149
21
-30.753160882011308
31
0
0
LINE
5
124
100
AcDbEntity
8
0
100
AcDbLine
10
-62.894595506104878
20
-33.915918909907475
30
0
11
-61.068964573467071
21
-33.49398055058991
31
0
0
LINE
5
125
100
AcDbEntity
8
0
100
AcDbLine
10
-62.894595506104878
20
-27.676750111712014
30
0
11
-62.894595506104878
21
-33.915918909907475
31
0
0
LINE
5
126
100
AcDbEntity
8
0
100
AcDbLine
10
-57.998605113256048
20
-27.745333876086988
30
0
11
-62.894595506104878
21
-27.676750111712014
31
0
0
ARC
5
127
100
AcDbEntity
8
0
100
AcDbCircle
10
-54.485821912941503
20
-25.819347701713156
30
0
40
4.0061288741491135
210
0
220
0
230
1
100
AcDbArc
50
-151.26495501623498
51
149.65984433318766
0
LINE
5
128
100
AcDbEntity
8
0
100
AcDbLine
10
-62.894595506104878
20
-23.72636257993495
30
0
11
-57.943278351607148
21
-23.7957213698472
31
0
0
LINE
5
129
100
AcDbEntity
8
0
100
AcDbLine
10
-62.894595506104878
20
-17.442878404856348
30
0
11
-62.894595506104878
21
-23.72636257993495
31
0
0
LINE
5
130
100
AcDbEntity
8
0
100
AcDbLine
10
-60.837458248890925
20
-16.967434489176334
30
0
11
-62.894595506104878
21
-17.442878404856348
31
0
0
LINE
5
131
100
AcDbEntity
8
0
100
AcDbLine
10
-60.889802672591031
20
-20.704146783857063
30
0
11
-60.837458248890925
21
-16.967434489176334
31
0
0
LINE
5
132
100
AcDbEntity
8
0
100
AcDbLine
10
-58.939993966979074
20
-20.731459995303965
30
0
11
-60.889802672591031
21
-20.704146783857063
31
0
0
LINE
5
133
100
AcDbEntity
8
0
100
AcDbLine
10
-58.880932581661938
20
-16.51524384361112
30
0
11
-58.939993966979074
21
-20.731459995303965
31
0
0
LINE
5
134
100
AcDbEntity
8
0
100
AcDbLine
10
-58.031930639157849
20
-16.319023194479119
30
0
11
-58.880932581661938
21
-16.51524384361112
31
0
0
ARC
5
135
100
AcDbEntity
8
0
100
AcDbCircle
10
-58.824734430875338
20
-12.888742221654343
30
0
40
3.5207052425168044
210
-0
220
0
230
1
100
AcDbArc
50
-76.98634680121063
51
91.136990235809748
0
LINE
5
136
100
AcDbEntity
8
0
100
AcDbLine
10
-58.894595506104821
20
-6.3683207867978098
30
0
11
-58.894595506104821
21
-9.3687301712696858
31
0
0
LINE
5
137
100
AcDbEntity
8
0
100
AcDbLine
10
-60.844595506104895
20
-6.3683207867978098
30
0
11
-58.894595506104821
21
-6.3683207867978098
31
0
0
LINE
5
138
100
AcDbEntity
8
0
100
AcDbLine
10
-60.844595506104895
20
-9.3683207867977814
30
0
11
-60.844595506104895
21
-6.3683207867978098
31
0
0
LINE
5
139
100
AcDbEntity
8
0
100
AcDbLine
10
-62.894595506104878
20
-9.3683207867977814
30
0
11
-60.844595506104895
21
-9.3683207867977814
31
0
0
LINE
5
140
100
AcDbEntity
8
0
100
AcDbLine
10
-62.894595506104878
20
-3.3183207867978837
30
0
11
-62.894595506104878
21
-9.3683207867977814
31
0
0
LINE
5
141
100
AcDbEntity
8
0
100
AcDbLine
10
-57.855057248298181
20
-3.3183207867978659
30
0
11
-62.894595506104878
21
-3.3183207867978837
31
0
0
ARC
5
142
100
AcDbEntity
8
0
100
AcDbCircle
10
-54.369595506104815
20
-1.3433207867978325
30
0
40
4.0061288741494252
210
0
220
0
230
1
100
AcDbArc
50
-150.46239967471331
51
150.46239967471331
0
LINE
5
143
100
AcDbEntity
8
0
100
AcDbLine
10
-62.894595506104878
20
0.63167921320218312
30
0
11
-57.855057248298181
21
0.63167921320220088
31
0
0
LINE
5
144
100
AcDbEntity
8
0
100
AcDbLine
10
-62.894595506104878
20
6.6816792132020808
30
0
11
-62.894595506104878
21
0.63167921320218312
31
0
0
LINE
5
145
100
AcDbEntity
8
0
100
AcDbLine
10
-60.844595506104895
20
6.6816792132020808
30
0
11
-62.894595506104878
21
6.6816792132020808
31
0
0
LINE
5
146
100
AcDbEntity
8
0
100
AcDbLine
10
-60.844595506104895
20
3.6816792132021092
30
0
11
-60.844595506104895
21
6.6816792132020808
31
0
0
LINE
5
147
100
AcDbEntity
8
0
100
AcDbLine
10
-58.894595506104821
20
3.6816792132021092
30
0
11
-60.844595506104895
21
3.6816792132021092
31
0
0
LINE
5
148
100
AcDbEntity
8
0
100
AcDbLine
10
-58.894595506104821
20
6.6816792132020808
30
0
11
-58.894595506104821
21
3.6816792132021092
31
0
0
LINE
5
149
100
AcDbEntity
8
0
100
AcDbLine
10
-12.951880625113432
20
6.6816792132021696
30
0
11
-58.894595506104821
21
6.6816792132020808
31
0
0
ARC
5
150
100
AcDbEntity
8
0
100
AcDbCircle
10
-12.95188062511329
20
489.53357921320219
30
0
40
482.8519
210
0
220
0
230
1
100
AcDbArc
50
270
51
274.82874794919417
0
ARC
5
151
100
AcDbEntity
8
0
100
AcDbCircle
10
27.239457132793774
20
11.898908505008396
30
0
40
3.5327707081935928
210
-0
220
0
230
1
100
AcDbArc
50
-82.615095179649003
51
90
0
LINE
5
152
100
AcDbEntity
8
0
100
AcDbLine
10
-15.851903848501507
20
15.431679213202116
30
0
11
27.239457132793774
21
15.431679213201983
31
0
0
LINE
5
153
100
AcDbEntity
8
0
100
AcDbLine
10
-58.894595506104821
20
15.511647056504696
30
0
11
-15.851903848501507
21
15.431679213202116
31
0
0
LINE
5
154
100
AcDbEntity
8
0
100
AcDbLine
10
-58.894595506104821
20
18.519032143775256
30
0
11
-58.894595506104821
21
15.511647056504696
31
0
0
LINE
5
155
100
AcDbEntity
8
0
100
AcDbLine
10
-60.844595506104895
20
18.519032143775256
30
0
11
-58.894595506104821
21
18.519032143775256
31
0
0
LINE
5
156
100
AcDbEntity
8
0
100
AcDbLine
10
-60.844595506104895
20
15.515269908339349
30
0
11
-60.844595506104895
21
18.519032143775256
31
0
0
LINE
5
157
100
AcDbEntity
8
0
100
AcDbLine
10
-62.894595506104878
20
15.519078547447567
30
0
11
-60.844595506104895
21
15.515269908339349
31
0
0
LINE
5
158
100
AcDbEntity
8
0
100
AcDbLine
10
-62.894595506104878
20
21.569032143775175
30
0
11
-62.894595506104878
21
15.519078547447567
31
0
0
LINE
5
159
100
AcDbEntity
8
0
100
AcDbLine
10
-57.855057248298181
20
21.569032143775189
30
0
11
-62.894595506104878
21
21.569032143775175
31
0
0
ARC
5
160
100
AcDbEntity
8
0
100
AcDbCircle
10
-54.369595506104815
20
23.544032143775226
30
0
40
4.0061288741494252
210
0
220
0
230
1
100
AcDbArc
50
-150.46239967471328
51
150.46239967471337
0
LINE
5
161
100
AcDbEntity
8
0
100
AcDbLine
10
-62.894595506104878
20
25.519032143775256
30
0
11
-57.855057248298181
21
25.519032143775256
31
0
0
LINE
5
162
100
AcDbEntity
8
0
100
AcDbLine
10
-62.894595506104878
20
33.912122202912073
30
0
11
-62.894595506104878
21
25.519032143775256
31
0
0
ARC
5
163
100
AcDbEntity
8
0
100
AcDbCircle
10
-14.451880625113205
20
515.46827921320209
30
0
40
483.98660000000035
210
0
220
0
230
1
100
AcDbArc
50
264.25558787625073
51
264.49944637885744
0
LINE
5
164
100
AcDbEntity
8
0
100
AcDbLine
10
-60.844595506104895
20
28.569032143775175
30
0
11
-60.844595506104895
21
33.710305760212819
31
0
0
LINE
5
165
100
AcDbEntity
8
0
100
AcDbLine
10
-58.894595506104821
20
28.569032143775175
30
0
11
-60.844595506104895
21
28.569032143775175
31
0
0
LINE
5
166
100
AcDbEntity
8
0
100
AcDbLine
10
-58.894595506104963
20
33.526504645394922
30
0
11
-58.894595506104821
21
28.569032143775175
31
0
0
ARC
5
167
100
AcDbEntity
8
0
100
AcDbCircle
10
-14.451880625113205
20
515.46827921320209
30
0
40
483.98660000000018
210
0
220
0
230
1
100
AcDbArc
50
264.73131655998952
51
269.83722317351726
0
LINE
5
168
100
AcDbEntity
8
0
100
AcDbLine
10
-15.826880625113375
20
31.481679213201978
30
0
11
-15.826880625113375
21
31.483632396218706
31
0
0
ENDSEC
0
SECTION
2
OBJECTS
0
DICTIONARY
5
C
100
AcDbDictionary
3
ACAD_GROUP
350
D
3
ACAD_MLINESTYLE
350
17
0
DICTIONARY
5
D
100
AcDbDictionary
0
DICTIONARY
5
1A
330
C
100
AcDbDictionary
0
DICTIONARY
5
17
100
AcDbDictionary
0
ENDSEC
0
EOF
