0
SECTION
2
HEADER
9
$INSUNITS
70
4
9
$ACADVER
1
AC1014
9
$HANDSEED
5
FFFF
0
ENDSEC
0
SECTION
2
TABLES
0
TABLE
2
VPORT
5
8
100
AcDbSymbolTable
0
ENDTAB
0
TABLE
2
LTYPE
5
5
100
AcDbSymbolTable
0
LTYPE
5
14
100
AcDbSymbolTableRecord
100
AcDbLinetypeTableRecord
2
BYBLOCK
70
0
0
LTYPE
5
15
100
AcDbSymbolTableRecord
100
AcDbLinetypeTableRecord
2
BYLAYER
70
0
0
ENDTAB
0
TABLE
2
LAYER
5
2
100
AcDbSymbolTable
70
2
0
LAYER
5
50
100
AcDbSymbolTableRecord
100
AcDbLayerTableRecord
2
0
70
0
6
CONTINUOUS
0
ENDTAB
0
TABLE
2
STYLE
5
3
100
AcDbSymbolTable
70
1
0
STYLE
5
11
100
AcDbSymbolTableRecord
100
AcDbTextStyleTableRecord
2
STANDARD
70
0
0
ENDTAB
0
TABLE
2
VIEW
5
6
100
AcDbSymbolTable
70
0
0
ENDTAB
0
TABLE
2
UCS
5
7
100
AcDbSymbolTable
70
0
0
ENDTAB
0
TABLE
2
APPID
5
9
100
AcDbSymbolTable
70
2
0
APPID
5
12
100
AcDbSymbolTableRecord
100
AcDbRegAppTableRecord
2
ACAD
70
0
0
ENDTAB
0
TABLE
2
DIMSTYLE
5
A
100
AcDbSymbolTable
70
1
0
ENDTAB
0
TABLE
2
BLOCK_RECORD
5
1
100
AcDbSymbolTable
70
1
0
BLOCK_RECORD
5
1F
100
AcDbSymbolTableRecord
100
AcDbBlockTableRecord
2
*MODEL_SPACE
0
BLOCK_RECORD
5
1B
100
AcDbSymbolTableRecord
100
AcDbBlockTableRecord
2
*PAPER_SPACE
0
ENDTAB
0
ENDSEC
0
SECTION
2
BLOCKS
0
BLOCK
5
20
100
AcDbEntity
100
AcDbBlockBegin
2
*MODEL_SPACE
0
ENDBLK
5
21
100
AcDbEntity
100
AcDbBlockEnd
0
BLOCK
5
1C
100
AcDbEntity
100
AcDbBlockBegin
2
*PAPER_SPACE
0
ENDBLK
5
1D
100
AcDbEntity
100
AcDbBlockEnd
0
ENDSEC
0
SECTION
2
ENTITIES
0
LINE
5
100
100
AcDbEntity
8
0
100
AcDbLine
10
-66.769829135525356
20
-3.2913600215689698
30
0
11
-67.758666012961157
21
4.4991929144688125
31
0
0
LINE
5
101
100
AcDbEntity
8
0
100
AcDbLine
10
-67.758666012961157
20
4.4991929144688125
30
0
11
-65.824186599998598
21
4.744731915086966
31
0
0
LINE
5
102
100
AcDbEntity
8
0
100
AcDbLine
10
-65.824186599998598
20
4.744731915086966
30
0
11
-64.835349722562938
21
-3.0458210209508074
31
0
0
LINE
5
103
100
AcDbEntity
8
0
100
AcDbLine
10
-64.835349722562938
20
-3.0458210209508074
30
0
11
-66.769829135525356
21
-3.2913600215689698
31
0
0
LINE
5
104
100
AcDbEntity
8
0
100
AcDbLine
10
51.224388920610124
20
15.205423835735701
30
0
11
53.174388920610198
21
15.205423835735701
31
0
0
LINE
5
105
100
AcDbEntity
8
0
100
AcDbLine
10
53.174388920610198
20
15.205423835735701
30
0
11
53.174388920610198
21
7.2554238357357104
31
0
0
LINE
5
106
100
AcDbEntity
8
0
100
AcDbLine
10
53.174388920610198
20
7.2554238357357104
30
0
11
51.224388920610124
21
7.2554238357357104
31
0
0
LINE
5
107
100
AcDbEntity
8
0
100
AcDbLine
10
51.224388920610124
20
7.2554238357357104
30
0
11
51.224388920610124
21
15.205423835735701
31
0
0
LINE
5
108
100
AcDbEntity
8
0
100
AcDbLine
10
-62.658621769644043
20
-11.939462374547531
30
0
11
-67.658048954548491
21
-12.57402811167502
31
0
0
LINE
5
109
100
AcDbEntity
8
0
100
AcDbLine
10
-67.658048954548491
20
-12.57402811167502
30
0
11
-66.748484318457315
21
-19.740034566241196
31
0
0
LINE
5
110
100
AcDbEntity
8
0
100
AcDbLine
10
-66.748484318457315
20
-19.740034566241196
30
0
11
-64.740753904989532
21
-19.277432502690282
31
0
0
LINE
5
111
100
AcDbEntity
8
0
100
AcDbLine
10
-64.740753904989532
20
-19.277432502690282
30
0
11
-65.240317288672571
21
-15.341621577453513
31
0
0
LINE
5
112
100
AcDbEntity
8
0
100
AcDbLine
10
-65.240317288672571
20
-15.341621577453513
30
0
11
-63.305837875710012
21
-15.096082576835332
31
0
0
LINE
5
113
100
AcDbEntity
8
0
100
AcDbLine
10
-63.305837875710012
20
-15.096082576835332
30
0
11
-62.830961560471366
21
-18.837396393458956
31
0
0
LINE
5
114
100
AcDbEntity
8
0
100
AcDbLine
10
-62.830961560471366
20
-18.837396393458956
30
0
11
-32.29264832551678
21
-11.801049967121386
31
0
0
LINE
5
115
100
AcDbEntity
8
0
100
AcDbLine
10
-32.29264832551678
20
-11.801049967121386
30
0
11
-9.1761869047265066
21
-6.5676187854886869
31
0
0
ARC
5
116
100
AcDbEntity
8
0
100
AcDbCircle
10
89.518364703188666
20
-476.49683297907632
30
0
40
480.18130000000019
210
0
220
0
230
1
100
AcDbArc
50
93.617113855612146
51
101.86087873864732
0
LINE
5
117
100
AcDbEntity
8
0
100
AcDbLine
10
59.224388920610238
20
2.7279116877395104
30
0
11
59.224388920610096
21
9.2054238357357576
31
0
0
LINE
5
118
100
AcDbEntity
8
0
100
AcDbLine
10
59.224388920610096
20
9.2054238357357576
30
0
11
64.18491080235313
21
9.2054238357357576
31
0
0
ARC
5
119
100
AcDbEntity
8
0
100
AcDbCircle
10
67.699388920610204
20
11.230423835735719
30
0
40
4.0561288741492945
210
0
220
0
230
1
100
AcDbArc
50
-150.04997141978745
51
150.04997141978723
0
LINE
5
120
100
AcDbEntity
8
0
100
AcDbLine
10
64.18491080235313
20
13.255423835735689
30
0
11
59.224388920610096
21
13.255423835735662
31
0
0
LINE
5
121
100
AcDbEntity
8
0
100
AcDbLine
10
59.224388920610096
20
13.255423835735662
30
0
11
59.224388920610096
21
19.73446702092388
31
0
0
LINE
5
122
100
AcDbEntity
8
0
100
AcDbLine
10
59.224388920610096
20
19.73446702092388
30
0
11
-67.726799030379112
21
19.734467020923869
31
0
0
LINE
5
123
100
AcDbEntity
8
0
100
AcDbLine
10
-67.726799030379112
20
19.734467020923869
30
0
11
-67.353698446851382
21
16.794993470971519
31
0
0
LINE
5
124
100
AcDbEntity
8
0
100
AcDbLine
10
-67.353698446851382
20
16.794993470971519
30
0
11
-69.288177859813942
21
16.549454470353382
31
0
0
LINE
5
125
100
AcDbEntity
8
0
100
AcDbLine
10
-69.288177859813942
20
16.549454470353382
30
0
11
-69.692444141162326
21
19.73446702092388
31
0
0
LINE
5
126
100
AcDbEntity
8
0
100
AcDbLine
10
-69.692444141162326
20
19.73446702092388
30
0
11
-71.758891565318947
21
19.73446702092388
31
0
0
LINE
5
127
100
AcDbEntity
8
0
100
AcDbLine
10
-71.758891565318947
20
19.73446702092388
30
0
11
-70.937813164782
21
13.265599516095765
31
0
0
LINE
5
128
100
AcDbEntity
8
0
100
AcDbLine
10
-70.937813164782
20
13.265599516095765
30
0
11
-65.938385979877552
21
13.900165253223253
31
0
0
ARC
5
129
100
AcDbEntity
8
0
100
AcDbCircle
10
-62.231979051076536
20
12.379765228746322
30
0
40
4.006128874149403
210
0
220
0
230
1
100
AcDbArc
50
-143.22866003433137
51
157.69613931509375
0
LINE
5
130
100
AcDbEntity
8
0
100
AcDbLine
10
-65.441012106830527
20
9.9816043910684638
30
0
11
-70.440439291734975
21
9.34703865394102
31
0
0
LINE
5
131
100
AcDbEntity
8
0
100
AcDbLine
10
-70.440439291734975
20
9.34703865394102
30
0
11
-68.155422827595515
21
-8.6554672495202567
31
0
0
LINE
5
132
100
AcDbEntity
8
0
100
AcDbLine
10
-68.155422827595515
20
-8.6554672495202567
30
0
11
-63.155995642691067
21
-8.020901512392733
31
0
0
ARC
5
133
100
AcDbEntity
8
0
100
AcDbCircle
10
-59.449588713890194
20
-9.5413015368696819
30
0
40
4.0061288741492849
210
0
220
0
230
1
100
AcDbArc
50
-143.22866003433023
51
157.69613931509278
0
ENDSEC
0
SECTION
2
OBJECTS
0
DICTIONARY
5
C
100
AcDbDictionary
3
ACAD_GROUP
350
D
3
ACAD_MLINESTYLE
350
17
0
DICTIONARY
5
D
100
AcDbDictionary
0
DICTIONARY
5
1A
330
C
100
AcDbDictionary
0
DICTIONARY
5
17
100
AcDbDictionary
0
ENDSEC
0
EOF
