0
SECTION
2
HEADER
9
$INSUNITS
70
4
9
$ACADVER
1
AC1014
9
$HANDSEED
5
FFFF
0
ENDSEC
0
SECTION
2
TABLES
0
TABLE
2
VPORT
5
8
100
AcDbSymbolTable
0
ENDTAB
0
TABLE
2
LTYPE
5
5
100
AcDbSymbolTable
0
LTYPE
5
14
100
AcDbSymbolTableRecord
100
AcDbLinetypeTableRecord
2
BYBLOCK
70
0
0
LTYPE
5
15
100
AcDbSymbolTableRecord
100
AcDbLinetypeTableRecord
2
BYLAYER
70
0
0
ENDTAB
0
TABLE
2
LAYER
5
2
100
AcDbSymbolTable
70
2
0
LAYER
5
50
100
AcDbSymbolTableRecord
100
AcDbLayerTableRecord
2
0
70
0
6
CONTINUOUS
0
ENDTAB
0
TABLE
2
STYLE
5
3
100
AcDbSymbolTable
70
1
0
STYLE
5
11
100
AcDbSymbolTableRecord
100
AcDbTextStyleTableRecord
2
STANDARD
70
0
0
ENDTAB
0
TABLE
2
VIEW
5
6
100
AcDbSymbolTable
70
0
0
ENDTAB
0
TABLE
2
UCS
5
7
100
AcDbSymbolTable
70
0
0
ENDTAB
0
TABLE
2
APPID
5
9
100
AcDbSymbolTable
70
2
0
APPID
5
12
100
AcDbSymbolTableRecord
100
AcDbRegAppTableRecord
2
ACAD
70
0
0
ENDTAB
0
TABLE
2
DIMSTYLE
5
A
100
AcDbSymbolTable
70
1
0
ENDTAB
0
TABLE
2
BLOCK_RECORD
5
1
100
AcDbSymbolTable
70
1
0
BLOCK_RECORD
5
1F
100
AcDbSymbolTableRecord
100
AcDbBlockTableRecord
2
*MODEL_SPACE
0
BLOCK_RECORD
5
1B
100
AcDbSymbolTableRecord
100
AcDbBlockTableRecord
2
*PAPER_SPACE
0
ENDTAB
0
ENDSEC
0
SECTION
2
BLOCKS
0
BLOCK
5
20
100
AcDbEntity
100
AcDbBlockBegin
2
*MODEL_SPACE
0
ENDBLK
5
21
100
AcDbEntity
100
AcDbBlockEnd
0
BLOCK
5
1C
100
AcDbEntity
100
AcDbBlockBegin
2
*PAPER_SPACE
0
ENDBLK
5
1D
100
AcDbEntity
100
AcDbBlockEnd
0
ENDSEC
0
SECTION
2
ENTITIES
0
LINE
5
100
100
AcDbEntity
8
0
100
AcDbLine
10
33.956166053146433
20
-10.997381042751311
30
0
11
33.041097267470434
21
-12.719341877811665
31
0
0
LINE
5
101
100
AcDbEntity
8
0
100
AcDbLine
10
33.041097267470434
20
-12.719341877811665
30
0
11
29.553022755425218
21
-10.86574100426331
31
0
0
LINE
5
102
100
AcDbEntity
8
0
100
AcDbLine
10
29.553022755425218
20
-10.86574100426331
30
0
11
30.468091541101217
21
-9.1437801692030263
31
0
0
LINE
5
103
100
AcDbEntity
8
0
100
AcDbLine
10
30.468091541101217
20
-9.1437801692030263
30
0
11
33.956166053146433
21
-10.997381042751311
31
0
0
ARC
5
104
100
AcDbEntity
8
0
100
AcDbCircle
10
-164.12936798651046
20
83.803796670553055
30
0
40
227.74739999999974
210
-0
220
0
230
1
100
AcDbArc
50
346.8214509528745
51
359.80171349901752
0
LINE
5
105
100
AcDbEntity
8
0
100
AcDbLine
10
63.616668171578965
20
83.015620904484919
30
0
11
60.651650072096004
21
82.974126677988238
31
0
0
LINE
5
106
100
AcDbEntity
8
0
100
AcDbLine
10
60.651650072096004
20
82.974126677988238
30
0
11
60.624363284395599
21
84.923935753569012
31
0
0
LINE
5
107
100
AcDbEntity
8
0
100
AcDbLine
10
60.624363284395599
20
84.923935753569012
30
0
11
63.615067685454676
21
84.965789449444813
31
0
0
ARC
5
108
100
AcDbEntity
8
0
100
AcDbCircle
10
-164.12936798651046
20
83.803796670553055
30
0
40
227.7474000000002
210
0
220
-0
230
1
100
AcDbArc
50
0.29233076166925909
51
0.80806827094557787
0
LINE
5
109
100
AcDbEntity
8
0
100
AcDbLine
10
63.595382072373923
20
87.015714692337809
30
0
11
57.545975799623363
21
86.93105570354615
31
0
0
LINE
5
110
100
AcDbEntity
8
0
100
AcDbLine
10
57.545975799623363
20
86.93105570354615
30
0
11
57.61649518964731
21
81.892010866721634
31
0
0
ARC
5
111
100
AcDbEntity
8
0
100
AcDbCircle
10
55.690461410326009
20
78.37925376763117
30
0
40
4.0061288741497112
210
0
220
0
230
1
100
AcDbArc
50
-239.66062080373874
51
61.264178545689539
0
LINE
5
112
100
AcDbEntity
8
0
100
AcDbLine
10
53.666881933983461
20
81.836737630098412
30
0
11
53.596362543959515
21
86.875782466922999
31
0
0
LINE
5
113
100
AcDbEntity
8
0
100
AcDbLine
10
53.596362543959515
20
86.875782466922999
30
0
11
47.546953423190246
21
86.791123438274383
31
0
0
ARC
5
114
100
AcDbEntity
8
0
100
AcDbCircle
10
-164.12936798651046
20
83.803796670553055
30
0
40
211.69739999999979
210
0
220
-0
230
1
100
AcDbArc
50
0.25370542773238047
51
0.8085451066078776
0
LINE
5
115
100
AcDbEntity
8
0
100
AcDbLine
10
47.565956626588957
20
84.741188645334304
30
0
11
50.575347279479388
21
84.783303847730451
31
0
0
LINE
5
116
100
AcDbEntity
8
0
100
AcDbLine
10
50.575347279479388
20
84.783303847730437
30
0
11
50.602634067179793
21
82.833494772149663
31
0
0
LINE
5
117
100
AcDbEntity
8
0
100
AcDbLine
10
50.602634067179793
20
82.833494772149663
30
0
11
47.565609268886249
21
82.790992841089519
31
0
0
ARC
5
118
100
AcDbEntity
8
0
100
AcDbCircle
10
-164.12936798651046
20
83.803796670553055
30
0
40
211.69739999999979
210
-0
220
0
230
1
100
AcDbArc
50
346.57358550695528
51
359.72588418056188
0
LINE
5
119
100
AcDbEntity
8
0
100
AcDbLine
10
41.782116496769959
20
34.648433538422061
30
0
11
40.261814206258464
21
28.927172720170855
31
0
0
LINE
5
120
100
AcDbEntity
8
0
100
AcDbLine
10
40.261814206258464
20
28.927172720170855
30
0
11
40.327120703543926
21
28.909646987215751
31
0
0
ARC
5
121
100
AcDbEntity
8
0
100
AcDbCircle
10
-92.346667986510482
20
64.540096670553055
30
0
40
137.37490000000008
210
-0
220
0
230
1
100
AcDbArc
50
303.10731431245762
51
344.96752301572388
0
LINE
5
122
100
AcDbEntity
8
0
100
AcDbLine
10
-17.311275140296232
20
-50.531850260157718
30
0
11
-23.500892493613321
21
-54.250154450176673
31
0
0
LINE
5
123
100
AcDbEntity
8
0
100
AcDbLine
10
-23.500892493613321
20
-54.250154450176673
30
0
11
-23.462549411532905
21
-54.316285736732404
31
0
0
ARC
5
124
100
AcDbEntity
8
0
100
AcDbCircle
10
-116.54596798651042
20
106.27729667055303
30
0
40
185.62010000000009
210
-0
220
0
230
1
100
AcDbArc
50
287.80057700974481
51
300.09748306013472
0
LINE
5
125
100
AcDbEntity
8
0
100
AcDbLine
10
-59.800995070445566
20
-70.456484969418398
30
0
11
-58.933117295969595
21
-73.372646787048623
31
0
0
LINE
5
126
100
AcDbEntity
8
0
100
AcDbLine
10
-58.933117295969595
20
-73.372646787048623
30
0
11
-60.802103672521639
21
-73.928875089333303
31
0
0
LINE
5
127
100
AcDbEntity
8
0
100
AcDbLine
10
-60.802103672521639
20
-73.928875089333303
30
0
11
-61.660990362923513
21
-71.04292427243027
31
0
0
ARC
5
128
100
AcDbEntity
8
0
100
AcDbCircle
10
-116.54596798651042
20
106.27729667055303
30
0
40
185.62010000000012
210
-0
220
0
230
1
100
AcDbArc
50
286.56579409019832
51
287.19858466380748
0
LINE
5
129
100
AcDbEntity
8
0
100
AcDbLine
10
-63.622671834173872
20
-71.638262650103712
30
0
11
-61.896937390451967
21
-77.436914303778153
31
0
0
LINE
5
130
100
AcDbEntity
8
0
100
AcDbLine
10
-61.896937390451967
20
-77.436914303778153
30
0
11
-57.066769006885494
21
-75.99940978611744
31
0
0
ARC
5
131
100
AcDbEntity
8
0
100
AcDbCircle
10
-53.162752899621353
20
-76.898146004657164
30
0
40
4.0061288741491801
210
0
220
0
230
1
100
AcDbArc
50
-133.88888877748536
51
167.03591057193765
0
LINE
5
132
100
AcDbEntity
8
0
100
AcDbLine
10
-55.940050138154902
20
-79.785305266825731
30
0
11
-60.770218521721233
21
-81.222809784486401
31
0
0
LINE
5
133
100
AcDbEntity
8
0
100
AcDbLine
10
-60.770218521721233
20
-81.222809784486401
30
0
11
-59.044485000227667
21
-87.021458339375215
31
0
0
ARC
5
134
100
AcDbEntity
8
0
100
AcDbCircle
10
-116.54596798651042
20
106.27729667055303
30
0
40
201.67010000000008
210
-0
220
0
230
1
100
AcDbArc
50
286.56640823554483
51
287.14883616003249
0
LINE
5
135
100
AcDbEntity
8
0
100
AcDbLine
10
-57.082552793017669
20
-86.426962461247996
30
0
11
-57.93538857613143
21
-83.561343337717375
31
0
0
LINE
5
136
100
AcDbEntity
8
0
100
AcDbLine
10
-57.93538857613143
20
-83.561343337717375
30
0
11
-56.066402199579528
21
-83.005115035432738
31
0
0
LINE
5
137
100
AcDbEntity
8
0
100
AcDbLine
10
-56.066402199579528
20
-83.005115035432738
30
0
11
-55.221841758625487
21
-85.842928127349182
31
0
0
ARC
5
138
100
AcDbEntity
8
0
100
AcDbCircle
10
-116.54596798651042
20
106.27729667055303
30
0
40
201.6701000000001
210
-0
220
0
230
1
100
AcDbArc
50
287.70290723813071
51
299.15111465155019
0
LINE
5
139
100
AcDbEntity
8
0
100
AcDbLine
10
-18.309498621361797
20
-69.848866407736452
30
0
11
-10.599575038175715
21
-65.292921989979902
31
0
0
ARC
5
140
100
AcDbEntity
8
0
100
AcDbCircle
10
-92.346667986510482
20
64.540096670553055
30
0
40
153.42489999999995
210
-0
220
0
230
1
100
AcDbArc
50
302.19585323138574
51
342.41401976591851
0
LINE
5
141
100
AcDbEntity
8
0
100
AcDbLine
10
53.907862003260334
20
18.184812209326342
30
0
11
57.620150929835745
21
31.880496822325988
31
0
0
ENDSEC
0
SECTION
2
OBJECTS
0
DICTIONARY
5
C
100
AcDbDictionary
3
ACAD_GROUP
350
D
3
ACAD_MLINESTYLE
350
17
0
DICTIONARY
5
D
100
AcDbDictionary
0
DICTIONARY
5
1A
330
C
100
AcDbDictionary
0
DICTIONARY
5
17
100
AcDbDictionary
0
ENDSEC
0
EOF
