0
SECTION
2
HEADER
9
$INSUNITS
70
4
9
$ACADVER
1
AC1014
9
$HANDSEED
5
FFFF
0
ENDSEC
0
SECTION
2
TABLES
0
TABLE
2
VPORT
5
8
100
AcDbSymbolTable
0
ENDTAB
0
TABLE
2
LTYPE
5
5
100
AcDbSymbolTable
0
LTYPE
5
14
100
AcDbSymbolTableRecord
100
AcDbLinetypeTableRecord
2
BYBLOCK
70
0
0
LTYPE
5
15
100
AcDbSymbolTableRecord
100
AcDbLinetypeTableRecord
2
BYLAYER
70
0
0
ENDTAB
0
TABLE
2
LAYER
5
2
100
AcDbSymbolTable
70
2
0
LAYER
5
50
100
AcDbSymbolTableRecord
100
AcDbLayerTableRecord
2
0
70
0
6
CONTINUOUS
0
ENDTAB
0
TABLE
2
STYLE
5
3
100
AcDbSymbolTable
70
1
0
STYLE
5
11
100
AcDbSymbolTableRecord
100
AcDbTextStyleTableRecord
2
STANDARD
70
0
0
ENDTAB
0
TABLE
2
VIEW
5
6
100
AcDbSymbolTable
70
0
0
ENDTAB
0
TABLE
2
UCS
5
7
100
AcDbSymbolTable
70
0
0
ENDTAB
0
TABLE
2
APPID
5
9
100
AcDbSymbolTable
70
2
0
APPID
5
12
100
AcDbSymbolTableRecord
100
AcDbRegAppTableRecord
2
ACAD
70
0
0
ENDTAB
0
TABLE
2
DIMSTYLE
5
A
100
AcDbSymbolTable
70
1
0
ENDTAB
0
TABLE
2
BLOCK_RECORD
5
1
100
AcDbSymbolTable
70
1
0
BLOCK_RECORD
5
1F
100
AcDbSymbolTableRecord
100
AcDbBlockTableRecord
2
*MODEL_SPACE
0
BLOCK_RECORD
5
1B
100
AcDbSymbolTableRecord
100
AcDbBlockTableRecord
2
*PAPER_SPACE
0
ENDTAB
0
ENDSEC
0
SECTION
2
BLOCKS
0
BLOCK
5
20
100
AcDbEntity
100
AcDbBlockBegin
2
*MODEL_SPACE
0
ENDBLK
5
21
100
AcDbEntity
100
AcDbBlockEnd
0
BLOCK
5
1C
100
AcDbEntity
100
AcDbBlockBegin
2
*PAPER_SPACE
0
ENDBLK
5
1D
100
AcDbEntity
100
AcDbBlockEnd
0
ENDSEC
0
SECTION
2
ENTITIES
0
LINE
5
100
100
AcDbEntity
8
0
100
AcDbLine
10
-1.3989660048619612
20
11.327927071831674
30
0
11
0.55103399513811269
21
11.327927071831674
31
0
0
LINE
5
101
100
AcDbEntity
8
0
100
AcDbLine
10
0.55103399513811269
20
11.327927071831674
30
0
11
0.55103399513811269
21
5.4489692630184194
31
0
0
LINE
5
102
100
AcDbEntity
8
0
100
AcDbLine
10
0.55103399513811269
20
5.4489692630184194
30
0
11
-1.3989660048619612
21
5.4489692630184194
31
0
0
LINE
5
103
100
AcDbEntity
8
0
100
AcDbLine
10
-1.3989660048619612
20
5.4489692630184194
30
0
11
-1.3989660048619612
21
11.327927071831674
31
0
0
LINE
5
104
100
AcDbEntity
8
0
100
AcDbLine
10
-9.4489660048618873
20
11.327927071831674
30
0
11
-9.4489660048618873
21
5.4489692630184194
31
0
0
LINE
5
105
100
AcDbEntity
8
0
100
AcDbLine
10
-9.4489660048618873
20
5.4489692630184194
30
0
11
-11.398966004861961
21
5.4489692630184194
31
0
0
LINE
5
106
100
AcDbEntity
8
0
100
AcDbLine
10
-11.398966004861961
20
5.4489692630184194
30
0
11
-11.398966004861961
21
11.327927071831674
31
0
0
LINE
5
107
100
AcDbEntity
8
0
100
AcDbLine
10
-11.398966004861961
20
11.327927071831674
30
0
11
-9.4489660048618873
21
11.327927071831674
31
0
0
LINE
5
108
100
AcDbEntity
8
0
100
AcDbLine
10
-0.46866044736432855
20
-26.048855271577303
30
0
11
17.817858289998583
21
-26.048855271577303
31
0
0
LINE
5
109
100
AcDbEntity
8
0
100
AcDbLine
10
17.817858289998583
20
-26.048855271577303
30
0
11
17.817858289998583
21
-13.759416463070018
31
0
0
LINE
5
110
100
AcDbEntity
8
0
100
AcDbLine
10
17.817858289998583
20
-13.759416463070018
30
0
11
13.767858289998571
21
-13.759416463070018
31
0
0
LINE
5
111
100
AcDbEntity
8
0
100
AcDbLine
10
13.767858289998571
20
-13.759416463070018
30
0
11
13.767858289998571
21
-17.759416463070021
31
0
0
LINE
5
112
100
AcDbEntity
8
0
100
AcDbLine
10
13.767858289998571
20
-17.759416463070021
30
0
11
9.817858289998469
21
-17.759416463070021
31
0
0
LINE
5
113
100
AcDbEntity
8
0
100
AcDbLine
10
9.817858289998469
20
-17.759416463070021
30
0
11
9.817858289998469
21
-9.8094164630700043
31
0
0
LINE
5
114
100
AcDbEntity
8
0
100
AcDbLine
10
9.817858289998469
20
-9.8094164630700043
30
0
11
17.817858289998583
21
-9.8094164630700043
31
0
0
LINE
5
115
100
AcDbEntity
8
0
100
AcDbLine
10
17.817858289998583
20
-9.8094164630700043
30
0
11
17.817858289998583
21
28.048855271577295
31
0
0
LINE
5
116
100
AcDbEntity
8
0
100
AcDbLine
10
17.817858289998583
20
28.048855271577295
30
0
11
10.954546320990062
21
28.048855271577295
31
0
0
LINE
5
117
100
AcDbEntity
8
0
100
AcDbLine
10
10.954546320990062
20
28.048855271577295
30
0
11
10.954546320990062
21
31.998855271577309
31
0
0
LINE
5
118
100
AcDbEntity
8
0
100
AcDbLine
10
10.954546320990062
20
31.998855271577309
30
0
11
13.954546320990033
21
31.998855271577309
31
0
0
LINE
5
119
100
AcDbEntity
8
0
100
AcDbLine
10
13.954546320990033
20
31.998855271577309
30
0
11
13.954546320990033
21
36.048855271577303
31
0
0
LINE
5
120
100
AcDbEntity
8
0
100
AcDbLine
10
13.954546320990033
20
36.048855271577303
30
0
11
3.9045463209900788
21
36.048855271577303
31
0
0
LINE
5
121
100
AcDbEntity
8
0
100
AcDbLine
10
3.9045463209900788
20
36.048855271577303
30
0
11
3.9045463209900788
21
31.998855271577309
31
0
0
LINE
5
122
100
AcDbEntity
8
0
100
AcDbLine
10
3.9045463209900788
20
31.998855271577309
30
0
11
6.9045463209900504
21
31.998855271577309
31
0
0
LINE
5
123
100
AcDbEntity
8
0
100
AcDbLine
10
6.9045463209900504
20
31.998855271577309
30
0
11
6.9045463209900504
21
28.048855271577295
31
0
0
LINE
5
124
100
AcDbEntity
8
0
100
AcDbLine
10
6.9045463209900504
20
28.048855271577295
30
0
11
-17.817858289998654
21
28.048855271577295
31
0
0
LINE
5
125
100
AcDbEntity
8
0
100
AcDbLine
10
-17.817858289998654
20
28.048855271577295
30
0
11
-17.817858289998654
21
-7.3959001186949713
31
0
0
LINE
5
126
100
AcDbEntity
8
0
100
AcDbLine
10
-17.817858289998654
20
-7.3959001186949713
30
0
11
-9.8178582899986822
21
-7.3959001186949713
31
0
0
LINE
5
127
100
AcDbEntity
8
0
100
AcDbLine
10
-9.8178582899986822
20
-7.3959001186949713
30
0
11
-9.8178582899986822
21
-15.345900118694988
31
0
0
LINE
5
128
100
AcDbEntity
8
0
100
AcDbLine
10
-9.8178582899986822
20
-15.345900118694988
30
0
11
-13.767858289998713
21
-15.345900118694988
31
0
0
LINE
5
129
100
AcDbEntity
8
0
100
AcDbLine
10
-13.767858289998713
20
-15.345900118694988
30
0
11
-13.767858289998713
21
-11.345900118694985
31
0
0
LINE
5
130
100
AcDbEntity
8
0
100
AcDbLine
10
-13.767858289998713
20
-11.345900118694985
30
0
11
-17.817858289998654
21
-11.345900118694985
31
0
0
LINE
5
131
100
AcDbEntity
8
0
100
AcDbLine
10
-17.817858289998654
20
-11.345900118694985
30
0
11
-17.817858289998654
21
-26.048855271577303
31
0
0
LINE
5
132
100
AcDbEntity
8
0
100
AcDbLine
10
-17.817858289998654
20
-26.048855271577303
30
0
11
-6.5186604473642262
21
-26.048855271577303
31
0
0
LINE
5
133
100
AcDbEntity
8
0
100
AcDbLine
10
-6.5186604473642262
20
-26.048855271577303
30
0
11
-6.5186604473642262
21
-31.998855271577309
31
0
0
LINE
5
134
100
AcDbEntity
8
0
100
AcDbLine
10
-6.5186604473642262
20
-31.998855271577309
30
0
11
-8.5186604473642547
21
-31.998855271577309
31
0
0
LINE
5
135
100
AcDbEntity
8
0
100
AcDbLine
10
-8.5186604473642547
20
-31.998855271577309
30
0
11
-8.5186604473642547
21
-36.048855271577303
31
0
0
LINE
5
136
100
AcDbEntity
8
0
100
AcDbLine
10
-8.5186604473642547
20
-36.048855271577303
30
0
11
1.5313395526356999
21
-36.048855271577303
31
0
0
LINE
5
137
100
AcDbEntity
8
0
100
AcDbLine
10
1.5313395526356999
20
-36.048855271577303
30
0
11
1.5313395526356999
21
-31.998855271577309
31
0
0
LINE
5
138
100
AcDbEntity
8
0
100
AcDbLine
10
1.5313395526356999
20
-31.998855271577309
30
0
11
-0.46866044736432855
21
-31.998855271577309
31
0
0
LINE
5
139
100
AcDbEntity
8
0
100
AcDbLine
10
-0.46866044736432855
20
-31.998855271577309
30
0
11
-0.46866044736432855
21
-26.048855271577303
31
0
0
ENDSEC
0
SECTION
2
OBJECTS
0
DICTIONARY
5
C
100
AcDbDictionary
3
ACAD_GROUP
350
D
3
ACAD_MLINESTYLE
350
17
0
DICTIONARY
5
D
100
AcDbDictionary
0
DICTIONARY
5
1A
330
C
100
AcDbDictionary
0
DICTIONARY
5
17
100
AcDbDictionary
0
ENDSEC
0
EOF
