0
SECTION
2
HEADER
9
$INSUNITS
70
4
9
$ACADVER
1
AC1014
9
$HANDSEED
5
FFFF
0
ENDSEC
0
SECTION
2
TABLES
0
TABLE
2
VPORT
5
8
100
AcDbSymbolTable
0
ENDTAB
0
TABLE
2
LTYPE
5
5
100
AcDbSymbolTable
0
LTYPE
5
14
100
AcDbSymbolTableRecord
100
AcDbLinetypeTableRecord
2
BYBLOCK
70
0
0
LTYPE
5
15
100
AcDbSymbolTableRecord
100
AcDbLinetypeTableRecord
2
BYLAYER
70
0
0
ENDTAB
0
TABLE
2
LAYER
5
2
100
AcDbSymbolTable
70
2
0
LAYER
5
50
100
AcDbSymbolTableRecord
100
AcDbLayerTableRecord
2
0
70
0
6
CONTINUOUS
0
ENDTAB
0
TABLE
2
STYLE
5
3
100
AcDbSymbolTable
70
1
0
STYLE
5
11
100
AcDbSymbolTableRecord
100
AcDbTextStyleTableRecord
2
STANDARD
70
0
0
ENDTAB
0
TABLE
2
VIEW
5
6
100
AcDbSymbolTable
70
0
0
ENDTAB
0
TABLE
2
UCS
5
7
100
AcDbSymbolTable
70
0
0
ENDTAB
0
TABLE
2
APPID
5
9
100
AcDbSymbolTable
70
2
0
APPID
5
12
100
AcDbSymbolTableRecord
100
AcDbRegAppTableRecord
2
ACAD
70
0
0
ENDTAB
0
TABLE
2
DIMSTYLE
5
A
100
AcDbSymbolTable
70
1
0
ENDTAB
0
TABLE
2
BLOCK_RECORD
5
1
100
AcDbSymbolTable
70
1
0
BLOCK_RECORD
5
1F
100
AcDbSymbolTableRecord
100
AcDbBlockTableRecord
2
*MODEL_SPACE
0
BLOCK_RECORD
5
1B
100
AcDbSymbolTableRecord
100
AcDbBlockTableRecord
2
*PAPER_SPACE
0
ENDTAB
0
ENDSEC
0
SECTION
2
BLOCKS
0
BLOCK
5
20
100
AcDbEntity
100
AcDbBlockBegin
2
*MODEL_SPACE
0
ENDBLK
5
21
100
AcDbEntity
100
AcDbBlockEnd
0
BLOCK
5
1C
100
AcDbEntity
100
AcDbBlockBegin
2
*PAPER_SPACE
0
ENDBLK
5
1D
100
AcDbEntity
100
AcDbBlockEnd
0
ENDSEC
0
SECTION
2
ENTITIES
0
CIRCLE
5
100
100
AcDbEntity
8
0
100
AcDbCircle
10
-4.2453307569497767
20
-1.2572748737674999
30
0
40
3.9249999999999856
210
0
220
0
230
1
0
LINE
5
101
100
AcDbEntity
8
0
100
AcDbLine
10
49.284650134904737
20
3.5550557154176232
30
0
11
50.280600881457431
21
5.3973470692531578
31
0
0
LINE
5
102
100
AcDbEntity
8
0
100
AcDbLine
10
50.280600881457431
20
5.3973470692531578
30
0
11
51.276551628010196
21
3.5550557154176232
31
0
0
LINE
5
103
100
AcDbEntity
8
0
100
AcDbLine
10
51.276551628010196
20
3.5550557154176232
30
0
11
50.280600881457431
21
1.7127643615820531
31
0
0
LINE
5
104
100
AcDbEntity
8
0
100
AcDbLine
10
50.280600881457431
20
1.7127643615820531
30
0
11
49.284650134904737
21
3.5550557154176232
31
0
0
LINE
5
105
100
AcDbEntity
8
0
100
AcDbLine
10
-60.889955949146497
20
2.537662599053121
30
0
11
-61.885906695699227
21
4.379953952888691
31
0
0
LINE
5
106
100
AcDbEntity
8
0
100
AcDbLine
10
-61.885906695699227
20
4.379953952888691
30
0
11
-60.889955949146497
21
6.2222453067242967
31
0
0
LINE
5
107
100
AcDbEntity
8
0
100
AcDbLine
10
-60.889955949146497
20
6.2222453067242967
30
0
11
-59.894005202593732
21
4.379953952888691
31
0
0
LINE
5
108
100
AcDbEntity
8
0
100
AcDbLine
10
-59.894005202593732
20
4.379953952888691
30
0
11
-60.889955949146497
21
2.537662599053121
31
0
0
LINE
5
109
100
AcDbEntity
8
0
100
AcDbLine
10
56.280600881457445
20
-4.2872356384179255
30
0
11
55.284650134904751
21
-2.444944284582391
31
0
0
LINE
5
110
100
AcDbEntity
8
0
100
AcDbLine
10
55.284650134904751
20
-2.444944284582391
30
0
11
56.280600881457445
21
-0.60265293074682091
31
0
0
LINE
5
111
100
AcDbEntity
8
0
100
AcDbLine
10
56.280600881457445
20
-0.60265293074682091
30
0
11
57.276551628010139
21
-2.444944284582391
31
0
0
LINE
5
112
100
AcDbEntity
8
0
100
AcDbLine
10
57.276551628010139
20
-2.444944284582391
30
0
11
56.280600881457445
21
-4.2872356384179255
31
0
0
LINE
5
113
100
AcDbEntity
8
0
100
AcDbLine
10
-70.885906695699276
20
1.3799539528887195
30
0
11
-69.889955949146525
21
3.2222453067243606
31
0
0
LINE
5
114
100
AcDbEntity
8
0
100
AcDbLine
10
-69.889955949146525
20
3.2222453067243606
30
0
11
-68.894005202593718
21
1.3799539528887195
31
0
0
LINE
5
115
100
AcDbEntity
8
0
100
AcDbLine
10
-68.894005202593718
20
1.3799539528887195
30
0
11
-69.889955949146483
21
-0.46233740094688613
31
0
0
LINE
5
116
100
AcDbEntity
8
0
100
AcDbLine
10
-69.889955949146483
20
-0.46233740094688613
30
0
11
-70.885906695699276
21
1.3799539528887195
31
0
0
LINE
5
117
100
AcDbEntity
8
0
100
AcDbLine
10
-67.885906695699276
20
-1.6200460471113232
30
0
11
-66.889955949146469
21
0.2222453067243535
31
0
0
LINE
5
118
100
AcDbEntity
8
0
100
AcDbLine
10
-66.889955949146469
20
0.2222453067243535
30
0
11
-65.894005202593718
21
-1.6200460471113232
31
0
0
LINE
5
119
100
AcDbEntity
8
0
100
AcDbLine
10
-65.894005202593718
20
-1.6200460471113232
30
0
11
-66.889955949146469
21
-3.4623374009469288
31
0
0
LINE
5
120
100
AcDbEntity
8
0
100
AcDbLine
10
-66.889955949146469
20
-3.4623374009469288
30
0
11
-67.885906695699276
21
-1.6200460471113232
31
0
0
LINE
5
121
100
AcDbEntity
8
0
100
AcDbLine
10
-62.894005202593739
20
-4.6200460471113303
30
0
11
-63.889955949146504
21
-6.4623374009469359
31
0
0
LINE
5
122
100
AcDbEntity
8
0
100
AcDbLine
10
-63.889955949146504
20
-6.4623374009469359
30
0
11
-64.885906695699276
21
-4.6200460471113303
31
0
0
LINE
5
123
100
AcDbEntity
8
0
100
AcDbLine
10
-64.885906695699276
20
-4.6200460471113303
30
0
11
-63.889955949146504
21
-2.7777546932756891
31
0
0
LINE
5
124
100
AcDbEntity
8
0
100
AcDbLine
10
-63.889955949146504
20
-2.7777546932756891
30
0
11
-62.894005202593739
21
-4.6200460471113303
31
0
0
LINE
5
125
100
AcDbEntity
8
0
100
AcDbLine
10
48.27655162801026
20
-5.4449442845823981
30
0
11
47.28060088145746
21
-7.2872356384180392
31
0
0
LINE
5
126
100
AcDbEntity
8
0
100
AcDbLine
10
47.28060088145746
20
-7.2872356384180392
30
0
11
46.284650134904659
21
-5.4449442845823981
31
0
0
LINE
5
127
100
AcDbEntity
8
0
100
AcDbLine
10
46.284650134904659
20
-5.4449442845823981
30
0
11
47.28060088145746
21
-3.602652930746757
31
0
0
LINE
5
128
100
AcDbEntity
8
0
100
AcDbLine
10
47.28060088145746
20
-3.602652930746757
30
0
11
48.27655162801026
21
-5.4449442845823981
31
0
0
LINE
5
129
100
AcDbEntity
8
0
100
AcDbLine
10
-66.889955949146469
20
2.5376625990530854
30
0
11
-67.885906695699276
21
4.379953952888691
31
0
0
LINE
5
130
100
AcDbEntity
8
0
100
AcDbLine
10
-67.885906695699276
20
4.379953952888691
30
0
11
-66.889955949146469
21
6.2222453067243677
31
0
0
LINE
5
131
100
AcDbEntity
8
0
100
AcDbLine
10
-66.889955949146469
20
6.2222453067243677
30
0
11
-65.894005202593718
21
4.379953952888691
31
0
0
LINE
5
132
100
AcDbEntity
8
0
100
AcDbLine
10
-65.894005202593718
20
4.379953952888691
30
0
11
-66.889955949146469
21
2.5376625990530854
31
0
0
LINE
5
133
100
AcDbEntity
8
0
100
AcDbLine
10
-64.885906695699276
20
1.3799539528886839
30
0
11
-63.889955949146469
21
3.2222453067243606
31
0
0
LINE
5
134
100
AcDbEntity
8
0
100
AcDbLine
10
-63.889955949146469
20
3.2222453067243606
30
0
11
-62.894005202593739
21
1.3799539528886839
31
0
0
LINE
5
135
100
AcDbEntity
8
0
100
AcDbLine
10
-62.894005202593739
20
1.3799539528886839
30
0
11
-63.889955949146504
21
-0.46233740094692166
31
0
0
LINE
5
136
100
AcDbEntity
8
0
100
AcDbLine
10
-63.889955949146504
20
-0.46233740094692166
30
0
11
-64.885906695699276
21
1.3799539528886839
31
0
0
LINE
5
137
100
AcDbEntity
8
0
100
AcDbLine
10
59.280600881457417
20
-3.6026529307467925
30
0
11
60.276551628010182
21
-5.4449442845823981
31
0
0
LINE
5
138
100
AcDbEntity
8
0
100
AcDbLine
10
60.276551628010182
20
-5.4449442845823981
30
0
11
59.280600881457417
21
-7.2872356384179682
31
0
0
LINE
5
139
100
AcDbEntity
8
0
100
AcDbLine
10
59.280600881457417
20
-7.2872356384179682
30
0
11
58.284650134904652
21
-5.4449442845823981
31
0
0
LINE
5
140
100
AcDbEntity
8
0
100
AcDbLine
10
58.284650134904652
20
-5.4449442845823981
30
0
11
59.280600881457417
21
-3.6026529307467925
31
0
0
LINE
5
141
100
AcDbEntity
8
0
100
AcDbLine
10
56.280600881457445
20
1.7127643615820887
30
0
11
55.284650134904751
21
3.5550557154175877
31
0
0
LINE
5
142
100
AcDbEntity
8
0
100
AcDbLine
10
55.284650134904751
20
3.5550557154175877
30
0
11
56.280600881457516
21
5.3973470692531933
31
0
0
LINE
5
143
100
AcDbEntity
8
0
100
AcDbLine
10
56.280600881457516
20
5.3973470692531933
30
0
11
57.276551628010139
21
3.5550557154176232
31
0
0
LINE
5
144
100
AcDbEntity
8
0
100
AcDbLine
10
57.276551628010139
20
3.5550557154176232
30
0
11
56.280600881457445
21
1.7127643615820887
31
0
0
LINE
5
145
100
AcDbEntity
8
0
100
AcDbLine
10
-70.885906695699276
20
-4.6200460471112947
30
0
11
-69.88995594914644
21
-2.7777546932756536
31
0
0
LINE
5
146
100
AcDbEntity
8
0
100
AcDbLine
10
-69.88995594914644
20
-2.7777546932756536
30
0
11
-68.894005202593718
21
-4.6200460471112947
31
0
0
LINE
5
147
100
AcDbEntity
8
0
100
AcDbLine
10
-68.894005202593718
20
-4.6200460471112947
30
0
11
-69.889955949146483
21
-6.4623374009469359
31
0
0
LINE
5
148
100
AcDbEntity
8
0
100
AcDbLine
10
-69.889955949146483
20
-6.4623374009469359
30
0
11
-70.885906695699276
21
-4.6200460471112947
31
0
0
LINE
5
149
100
AcDbEntity
8
0
100
AcDbLine
10
-72.889955949146497
20
2.537662599053121
30
0
11
-73.885906695699248
21
4.3799539528887266
31
0
0
LINE
5
150
100
AcDbEntity
8
0
100
AcDbLine
10
-73.885906695699248
20
4.3799539528887266
30
0
11
-72.889955949146497
21
6.2222453067244032
31
0
0
LINE
5
151
100
AcDbEntity
8
0
100
AcDbLine
10
-72.889955949146497
20
6.2222453067244032
30
0
11
-71.894005202593718
21
4.3799539528887266
31
0
0
LINE
5
152
100
AcDbEntity
8
0
100
AcDbLine
10
-71.894005202593718
20
4.3799539528887266
30
0
11
-72.889955949146497
21
2.537662599053121
31
0
0
LINE
5
153
100
AcDbEntity
8
0
100
AcDbLine
10
53.280600881457474
20
-3.6026529307467925
30
0
11
54.276551628010239
21
-5.4449442845823981
31
0
0
LINE
5
154
100
AcDbEntity
8
0
100
AcDbLine
10
54.276551628010239
20
-5.4449442845823981
30
0
11
53.280600881457474
21
-7.2872356384179682
31
0
0
LINE
5
155
100
AcDbEntity
8
0
100
AcDbLine
10
53.280600881457474
20
-7.2872356384179682
30
0
11
52.284650134904709
21
-5.4449442845823981
31
0
0
LINE
5
156
100
AcDbEntity
8
0
100
AcDbLine
10
52.284650134904709
20
-5.4449442845823981
30
0
11
53.280600881457474
21
-3.6026529307467925
31
0
0
LINE
5
157
100
AcDbEntity
8
0
100
AcDbLine
10
60.276551628010182
20
0.55505571541761611
30
0
11
59.280600881457417
21
-1.287235638417954
31
0
0
LINE
5
158
100
AcDbEntity
8
0
100
AcDbLine
10
59.280600881457417
20
-1.287235638417954
30
0
11
58.284650134904652
21
0.55505571541761611
31
0
0
LINE
5
159
100
AcDbEntity
8
0
100
AcDbLine
10
58.284650134904652
20
0.55505571541761611
30
0
11
59.280600881457417
21
2.3973470692532217
31
0
0
LINE
5
160
100
AcDbEntity
8
0
100
AcDbLine
10
59.280600881457417
20
2.3973470692532217
30
0
11
60.276551628010182
21
0.55505571541761611
31
0
0
LINE
5
161
100
AcDbEntity
8
0
100
AcDbLine
10
-73.885906695699248
20
-1.6200460471112876
30
0
11
-72.889955949146497
21
0.22224530672438902
31
0
0
LINE
5
162
100
AcDbEntity
8
0
100
AcDbLine
10
-72.889955949146497
20
0.22224530672438902
30
0
11
-71.894005202593718
21
-1.6200460471112876
31
0
0
LINE
5
163
100
AcDbEntity
8
0
100
AcDbLine
10
-71.894005202593718
20
-1.6200460471112876
30
0
11
-72.889955949146497
21
-3.4623374009468932
31
0
0
LINE
5
164
100
AcDbEntity
8
0
100
AcDbLine
10
-72.889955949146497
20
-3.4623374009468932
30
0
11
-73.885906695699248
21
-1.6200460471112876
31
0
0
LINE
5
165
100
AcDbEntity
8
0
100
AcDbLine
10
46.284650134904659
20
0.55505571541761611
30
0
11
47.28060088145746
21
2.3973470692532928
31
0
0
LINE
5
166
100
AcDbEntity
8
0
100
AcDbLine
10
47.28060088145746
20
2.3973470692532928
30
0
11
48.27655162801026
21
0.55505571541761611
31
0
0
LINE
5
167
100
AcDbEntity
8
0
100
AcDbLine
10
48.27655162801026
20
0.55505571541761611
30
0
11
47.28060088145746
21
-1.2872356384179895
31
0
0
LINE
5
168
100
AcDbEntity
8
0
100
AcDbLine
10
47.28060088145746
20
-1.2872356384179895
30
0
11
46.284650134904659
21
0.55505571541761611
31
0
0
LINE
5
169
100
AcDbEntity
8
0
100
AcDbLine
10
50.280600881457502
20
-0.60265293074674986
30
0
11
51.276551628010196
21
-2.4449442845823555
31
0
0
LINE
5
170
100
AcDbEntity
8
0
100
AcDbLine
10
51.276551628010196
20
-2.4449442845823555
30
0
11
50.280600881457431
21
-4.2872356384179611
31
0
0
LINE
5
171
100
AcDbEntity
8
0
100
AcDbLine
10
50.280600881457431
20
-4.2872356384179611
30
0
11
49.284650134904702
21
-2.444944284582391
31
0
0
LINE
5
172
100
AcDbEntity
8
0
100
AcDbLine
10
49.284650134904702
20
-2.444944284582391
30
0
11
50.280600881457502
21
-0.60265293074674986
31
0
0
LINE
5
173
100
AcDbEntity
8
0
100
AcDbLine
10
75.772310675728889
20
2.6677251262325186
30
0
11
77.622310675728912
21
2.6677251262325186
31
0
0
LINE
5
174
100
AcDbEntity
8
0
100
AcDbLine
10
77.622310675728912
20
2.6677251262325186
30
0
11
77.622310675728912
21
-5.1822748737674829
31
0
0
LINE
5
175
100
AcDbEntity
8
0
100
AcDbLine
10
77.622310675728912
20
-5.1822748737674829
30
0
11
75.772310675728889
21
-5.1822748737674829
31
0
0
LINE
5
176
100
AcDbEntity
8
0
100
AcDbLine
10
75.772310675728889
20
-5.1822748737674829
30
0
11
75.772310675728889
21
2.6677251262325186
31
0
0
LINE
5
177
100
AcDbEntity
8
0
100
AcDbLine
10
-59.894005202593696
20
-1.6200460471113232
30
0
11
-60.889955949146497
21
-3.4623374009469643
31
0
0
LINE
5
178
100
AcDbEntity
8
0
100
AcDbLine
10
-60.889955949146497
20
-3.4623374009469643
30
0
11
-61.885906695699262
21
-1.6200460471113232
31
0
0
LINE
5
179
100
AcDbEntity
8
0
100
AcDbLine
10
-61.885906695699262
20
-1.6200460471113232
30
0
11
-60.889955949146497
21
0.22224530672431797
31
0
0
LINE
5
180
100
AcDbEntity
8
0
100
AcDbLine
10
-60.889955949146497
20
0.22224530672431797
30
0
11
-59.894005202593696
21
-1.6200460471113232
31
0
0
LINE
5
181
100
AcDbEntity
8
0
100
AcDbLine
10
52.284650134904709
20
0.55505571541761611
30
0
11
53.280600881457474
21
2.3973470692532217
31
0
0
LINE
5
182
100
AcDbEntity
8
0
100
AcDbLine
10
53.280600881457474
20
2.3973470692532217
30
0
11
54.276551628010168
21
0.55505571541761611
31
0
0
LINE
5
183
100
AcDbEntity
8
0
100
AcDbLine
10
54.276551628010168
20
0.55505571541761611
30
0
11
53.280600881457474
21
-1.2872356384179184
31
0
0
LINE
5
184
100
AcDbEntity
8
0
100
AcDbLine
10
53.280600881457474
20
-1.2872356384179184
30
0
11
52.284650134904709
21
0.55505571541761611
31
0
0
LINE
5
185
100
AcDbEntity
8
0
100
AcDbLine
10
49.284650134904702
20
-8.4449442845824052
30
0
11
50.280600881457431
21
-6.6026529307467996
31
0
0
LINE
5
186
100
AcDbEntity
8
0
100
AcDbLine
10
50.280600881457431
20
-6.6026529307467996
30
0
11
51.276551628010196
21
-8.4449442845823697
31
0
0
LINE
5
187
100
AcDbEntity
8
0
100
AcDbLine
10
51.276551628010196
20
-8.4449442845823697
30
0
11
50.796856838747857
21
-9.3322748737674743
31
0
0
LINE
5
188
100
AcDbEntity
8
0
100
AcDbLine
10
50.796856838747857
20
-9.3322748737674743
30
0
11
55.764344924167091
21
-9.3322748737674743
31
0
0
LINE
5
189
100
AcDbEntity
8
0
100
AcDbLine
10
55.764344924167091
20
-9.3322748737674743
30
0
11
55.284650134904751
21
-8.4449442845824052
31
0
0
LINE
5
190
100
AcDbEntity
8
0
100
AcDbLine
10
55.284650134904751
20
-8.4449442845824052
30
0
11
56.280600881457516
21
-6.6026529307468351
31
0
0
LINE
5
191
100
AcDbEntity
8
0
100
AcDbLine
10
56.280600881457516
20
-6.6026529307468351
30
0
11
57.276551628010139
21
-8.4449442845824052
31
0
0
LINE
5
192
100
AcDbEntity
8
0
100
AcDbLine
10
57.276551628010139
20
-8.4449442845824052
30
0
11
56.7968568387478
21
-9.3322748737674743
31
0
0
LINE
5
193
100
AcDbEntity
8
0
100
AcDbLine
10
56.7968568387478
20
-9.3322748737674743
30
0
11
83.772310675728932
21
-9.3322748737674743
31
0
0
LINE
5
194
100
AcDbEntity
8
0
100
AcDbLine
10
83.772310675728932
20
-9.3322748737674743
30
0
11
83.772310675728932
21
-3.3322748737674956
31
0
0
LINE
5
195
100
AcDbEntity
8
0
100
AcDbLine
10
83.772310675728932
20
-3.3322748737674956
30
0
11
88.654053793830272
21
-3.3322748737674956
31
0
0
ARC
5
196
100
AcDbEntity
8
0
100
AcDbCircle
10
92.197310675728872
20
-1.2572748737675354
30
0
40
4.1061288741491815
210
0
220
0
230
1
100
AcDbArc
50
-149.64593221837549
51
149.64593221837455
0
LINE
5
197
100
AcDbEntity
8
0
100
AcDbLine
10
88.654053793830272
20
0.81772512623249582
30
0
11
83.772310675728932
21
0.81772512623249582
31
0
0
LINE
5
198
100
AcDbEntity
8
0
100
AcDbLine
10
83.772310675728932
20
0.81772512623249582
30
0
11
83.772310675728932
21
6.8177251262324745
31
0
0
LINE
5
199
100
AcDbEntity
8
0
100
AcDbLine
10
83.772310675728932
20
6.8177251262324745
30
0
11
60.134551398104605
21
6.8177251262324745
31
0
0
LINE
5
200
100
AcDbEntity
8
0
100
AcDbLine
10
60.134551398104605
20
6.8177251262324745
30
0
11
60.276551628010253
21
6.5550557154176303
31
0
0
LINE
5
201
100
AcDbEntity
8
0
100
AcDbLine
10
60.276551628010253
20
6.5550557154176303
30
0
11
59.280600881457417
21
4.7127643615820602
31
0
0
LINE
5
202
100
AcDbEntity
8
0
100
AcDbLine
10
59.280600881457417
20
4.7127643615820602
30
0
11
58.284650134904723
21
6.5550557154176659
31
0
0
LINE
5
203
100
AcDbEntity
8
0
100
AcDbLine
10
58.284650134904723
20
6.5550557154176659
30
0
11
58.426650364810229
21
6.8177251262324745
31
0
0
LINE
5
204
100
AcDbEntity
8
0
100
AcDbLine
10
58.426650364810229
20
6.8177251262324745
30
0
11
54.134551398104733
21
6.8177251262324745
31
0
0
LINE
5
205
100
AcDbEntity
8
0
100
AcDbLine
10
54.134551398104733
20
6.8177251262324745
30
0
11
54.276551628010239
21
6.5550557154176659
31
0
0
LINE
5
206
100
AcDbEntity
8
0
100
AcDbLine
10
54.276551628010239
20
6.5550557154176659
30
0
11
53.280600881457474
21
4.7127643615820602
31
0
0
LINE
5
207
100
AcDbEntity
8
0
100
AcDbLine
10
53.280600881457474
20
4.7127643615820602
30
0
11
52.28465013490478
21
6.5550557154175948
31
0
0
LINE
5
208
100
AcDbEntity
8
0
100
AcDbLine
10
52.28465013490478
20
6.5550557154175948
30
0
11
52.426650364810286
21
6.8177251262324745
31
0
0
LINE
5
209
100
AcDbEntity
8
0
100
AcDbLine
10
52.426650364810286
20
6.8177251262324745
30
0
11
48.134551398104719
21
6.8177251262324745
31
0
0
LINE
5
210
100
AcDbEntity
8
0
100
AcDbLine
10
48.134551398104719
20
6.8177251262324745
30
0
11
48.27655162801026
21
6.5550557154175948
31
0
0
LINE
5
211
100
AcDbEntity
8
0
100
AcDbLine
10
48.27655162801026
20
6.5550557154175948
30
0
11
47.28060088145746
21
4.7127643615820247
31
0
0
LINE
5
212
100
AcDbEntity
8
0
100
AcDbLine
10
47.28060088145746
20
4.7127643615820247
30
0
11
46.28465013490473
21
6.5550557154175948
31
0
0
LINE
5
213
100
AcDbEntity
8
0
100
AcDbLine
10
46.28465013490473
20
6.5550557154175948
30
0
11
46.426650364810271
21
6.8177251262324745
31
0
0
LINE
5
214
100
AcDbEntity
8
0
100
AcDbLine
10
46.426650364810271
20
6.8177251262324745
30
0
11
-46.950427793268794
21
6.817725126232439
31
0
0
ARC
5
215
100
AcDbEntity
8
0
100
AcDbCircle
10
-46.950427793266627
20
490.85432512623254
30
0
40
484.03660000000008
210
0
220
0
230
1
100
AcDbArc
50
268.09356167892258
51
269.99999999999955
0
LINE
5
216
100
AcDbEntity
8
0
100
AcDbLine
10
-63.053108752893721
20
7.0856471349093653
30
0
11
-63.889955949146504
21
5.5376625990530925
31
0
0
LINE
5
217
100
AcDbEntity
8
0
100
AcDbLine
10
-63.889955949146504
20
5.5376625990530925
30
0
11
-64.759130390202415
21
7.1454454771465947
31
0
0
ARC
5
218
100
AcDbEntity
8
0
100
AcDbCircle
10
-46.950427793266627
20
490.85432512623254
30
0
40
484.03660000000002
210
0
220
0
230
1
100
AcDbArc
50
267.39759433045327
51
267.89149448369125
0
LINE
5
219
100
AcDbEntity
8
0
100
AcDbLine
10
-68.928076566743528
20
7.3169293707960037
30
0
11
-69.889955949146483
21
5.5376625990531281
31
0
0
LINE
5
220
100
AcDbEntity
8
0
100
AcDbLine
10
-69.889955949146483
20
5.5376625990531281
30
0
11
-70.902534834111606
21
7.4107123771715422
31
0
0
ARC
5
221
100
AcDbEntity
8
0
100
AcDbCircle
10
-46.950427793266627
20
490.85432512623254
30
0
40
484.03660000000013
210
0
220
0
230
1
100
AcDbArc
50
264.62364323671738
51
267.16361255143244
0
LINE
5
222
100
AcDbEntity
8
0
100
AcDbLine
10
-92.303439549878092
20
8.9471406351059102
30
0
11
-92.303439549878021
21
6.2918510732518129
31
0
0
LINE
5
223
100
AcDbEntity
8
0
100
AcDbLine
10
-92.303439549878021
20
6.2918510732518129
30
0
11
-94.153439549878016
21
6.2918510732518129
31
0
0
LINE
5
224
100
AcDbEntity
8
0
100
AcDbLine
10
-94.153439549878016
20
6.2918510732518129
30
0
11
-94.153439549878044
21
9.1248306787102962
31
0
0
ARC
5
225
100
AcDbEntity
8
0
100
AcDbCircle
10
-46.950427793266627
20
490.85432512623254
30
0
40
484.03660000000013
210
0
220
0
230
1
100
AcDbArc
50
264.14787664520338
51
264.4036494066936
0
LINE
5
226
100
AcDbEntity
8
0
100
AcDbLine
10
-96.303439549878107
20
9.3403477900477583
30
0
11
-96.303439549878007
21
3.1418510732518001
31
0
0
LINE
5
227
100
AcDbEntity
8
0
100
AcDbLine
10
-96.303439549878007
20
3.1418510732518001
30
0
11
-91.184641318999383
21
3.1418510732518357
31
0
0
ARC
5
228
100
AcDbEntity
8
0
100
AcDbCircle
10
-87.72843954987799
20
1.2168510732518456
30
0
40
3.9561288741493099
210
0
220
0
230
1
100
AcDbArc
50
-150.88351384809565
51
150.8835138480961
0
LINE
5
229
100
AcDbEntity
8
0
100
AcDbLine
10
-91.184641318999383
20
-0.70814892674817997
30
0
11
-96.303439549878007
21
-0.70814892674817997
31
0
0
LINE
5
230
100
AcDbEntity
8
0
100
AcDbLine
10
-96.303439549878007
20
-0.70814892674817997
30
0
11
-96.30343954987805
21
-6.8915086585535335
31
0
0
ARC
5
231
100
AcDbEntity
8
0
100
AcDbCircle
10
-46.950427793266627
20
490.85432512623254
30
0
40
500.18660000000011
210
0
220
0
230
1
100
AcDbArc
50
264.33745773879713
51
264.58489314056249
0
LINE
5
232
100
AcDbEntity
8
0
100
AcDbLine
10
-94.153439549878044
20
-7.1000005911621855
30
0
11
-94.153439549878016
21
-3.8581489267481928
31
0
0
LINE
5
233
100
AcDbEntity
8
0
100
AcDbLine
10
-94.153439549878016
20
-3.8581489267481928
30
0
11
-92.303439549878021
21
-3.8581489267481928
31
0
0
LINE
5
234
100
AcDbEntity
8
0
100
AcDbLine
10
-92.303439549878021
20
-3.8581489267481928
30
0
11
-92.303439549878021
21
-7.2719029968855864
31
0
0
ARC
5
235
100
AcDbEntity
8
0
100
AcDbCircle
10
-46.950427793266627
20
490.85432512623254
30
0
40
500.18660000000011
210
0
220
0
230
1
100
AcDbArc
50
264.79772145010384
51
266.97607110129513
0
LINE
5
236
100
AcDbEntity
8
0
100
AcDbLine
10
-73.336780194747533
20
-8.6358101382239028
30
0
11
-73.885906695699248
21
-7.6200460471113018
31
0
0
LINE
5
237
100
AcDbEntity
8
0
100
AcDbLine
10
-73.885906695699248
20
-7.6200460471113018
30
0
11
-72.889955949146497
21
-5.7777546932756607
31
0
0
LINE
5
238
100
AcDbEntity
8
0
100
AcDbLine
10
-72.889955949146497
20
-5.7777546932756607
30
0
11
-71.894005202593689
21
-7.6200460471113018
31
0
0
LINE
5
239
100
AcDbEntity
8
0
100
AcDbLine
10
-71.894005202593689
20
-7.6200460471113018
30
0
11
-72.467545561896856
21
-8.6809704439022539
31
0
0
ARC
5
240
100
AcDbEntity
8
0
100
AcDbCircle
10
-46.950427793266627
20
490.85432512623254
30
0
40
500.18660000000011
210
0
220
0
230
1
100
AcDbArc
50
267.07577519643428
51
267.36967548244019
0
LINE
5
241
100
AcDbEntity
8
0
100
AcDbLine
10
-69.904840978193164
20
-8.8052887459471663
30
0
11
-69.889955949146625
21
-8.7777546932754902
31
0
0
LINE
5
242
100
AcDbEntity
8
0
100
AcDbLine
10
-69.889955949146625
20
-8.7777546932754902
30
0
11
-69.87431325655453
21
-8.806690258023977
31
0
0
ARC
5
243
100
AcDbEntity
8
0
100
AcDbCircle
10
-46.950427793266627
20
490.85432512623254
30
0
40
500.18660000000023
210
0
220
0
230
1
100
AcDbArc
50
267.37317607985841
51
267.68191730588239
0
LINE
5
244
100
AcDbEntity
8
0
100
AcDbLine
10
-67.181544643210287
20
-8.9229620033088253
30
0
11
-67.885906695699276
21
-7.6200460471113374
31
0
0
LINE
5
245
100
AcDbEntity
8
0
100
AcDbLine
10
-67.885906695699276
20
-7.6200460471113374
30
0
11
-66.889955949146469
21
-5.7777546932756962
31
0
0
LINE
5
246
100
AcDbEntity
8
0
100
AcDbLine
10
-66.889955949146469
20
-5.7777546932756962
30
0
11
-65.894005202593718
21
-7.6200460471113374
31
0
0
LINE
5
247
100
AcDbEntity
8
0
100
AcDbLine
10
-65.894005202593718
20
-7.6200460471113374
30
0
11
-66.610683341276086
21
-8.9457440727893811
31
0
0
ARC
5
248
100
AcDbEntity
8
0
100
AcDbCircle
10
-46.950427793266627
20
490.85432512623254
30
0
40
500.18660000000017
210
0
220
0
230
1
100
AcDbArc
50
267.7473608446449
51
268.04294489974302
0
LINE
5
249
100
AcDbEntity
8
0
100
AcDbLine
10
-64.032007093144472
20
-9.0405182840411413
30
0
11
-63.889955949146504
21
-8.7777546932756678
31
0
0
LINE
5
250
100
AcDbEntity
8
0
100
AcDbLine
10
-63.889955949146504
20
-8.7777546932756678
30
0
11
-63.742604107994438
21
-9.0503234160422608
31
0
0
ARC
5
251
100
AcDbEntity
8
0
100
AcDbCircle
10
-46.950427793266627
20
490.85432512623254
30
0
40
500.18660000000023
210
0
220
0
230
1
100
AcDbArc
50
268.07611468888092
51
268.38263468298692
0
LINE
5
252
100
AcDbEntity
8
0
100
AcDbLine
10
-61.067995117341489
20
-9.1330038256223389
30
0
11
-61.885906695699262
21
-7.6200460471113374
31
0
0
LINE
5
253
100
AcDbEntity
8
0
100
AcDbLine
10
-61.885906695699262
20
-7.6200460471113374
30
0
11
-60.889955949146497
21
-5.7777546932756962
31
0
0
LINE
5
254
100
AcDbEntity
8
0
100
AcDbLine
10
-60.889955949146497
20
-5.7777546932756962
30
0
11
-59.894005202593696
21
-7.6200460471113374
31
0
0
LINE
5
255
100
AcDbEntity
8
0
100
AcDbLine
10
-59.894005202593696
20
-7.6200460471113374
30
0
11
-60.717204815942694
21
-9.1427855353870768
31
0
0
ARC
5
256
100
AcDbEntity
8
0
100
AcDbCircle
10
-46.950427793266627
20
490.85432512623254
30
0
40
500.18659999999988
210
0
220
0
230
1
100
AcDbArc
50
268.4228329143649
51
269.99999999999983
0
LINE
5
257
100
AcDbEntity
8
0
100
AcDbLine
10
-46.950427793266662
20
-9.3322748737675454
30
0
11
49.764344924167006
21
-9.3322748737674743
31
0
0
LINE
5
258
100
AcDbEntity
8
0
100
AcDbLine
10
49.764344924167006
20
-9.3322748737674743
30
0
11
49.284650134904702
21
-8.4449442845824052
31
0
0
ENDSEC
0
SECTION
2
OBJECTS
0
DICTIONARY
5
C
100
AcDbDictionary
3
ACAD_GROUP
350
D
3
ACAD_MLINESTYLE
350
17
0
DICTIONARY
5
D
100
AcDbDictionary
0
DICTIONARY
5
1A
330
C
100
AcDbDictionary
0
DICTIONARY
5
17
100
AcDbDictionary
0
ENDSEC
0
EOF
