0
SECTION
2
HEADER
9
$INSUNITS
70
4
9
$ACADVER
1
AC1014
9
$HANDSEED
5
FFFF
0
ENDSEC
0
SECTION
2
TABLES
0
TABLE
2
VPORT
5
8
100
AcDbSymbolTable
0
ENDTAB
0
TABLE
2
LTYPE
5
5
100
AcDbSymbolTable
0
LTYPE
5
14
100
AcDbSymbolTableRecord
100
AcDbLinetypeTableRecord
2
BYBLOCK
70
0
0
LTYPE
5
15
100
AcDbSymbolTableRecord
100
AcDbLinetypeTableRecord
2
BYLAYER
70
0
0
ENDTAB
0
TABLE
2
LAYER
5
2
100
AcDbSymbolTable
70
2
0
LAYER
5
50
100
AcDbSymbolTableRecord
100
AcDbLayerTableRecord
2
0
70
0
6
CONTINUOUS
0
ENDTAB
0
TABLE
2
STYLE
5
3
100
AcDbSymbolTable
70
1
0
STYLE
5
11
100
AcDbSymbolTableRecord
100
AcDbTextStyleTableRecord
2
STANDARD
70
0
0
ENDTAB
0
TABLE
2
VIEW
5
6
100
AcDbSymbolTable
70
0
0
ENDTAB
0
TABLE
2
UCS
5
7
100
AcDbSymbolTable
70
0
0
ENDTAB
0
TABLE
2
APPID
5
9
100
AcDbSymbolTable
70
2
0
APPID
5
12
100
AcDbSymbolTableRecord
100
AcDbRegAppTableRecord
2
ACAD
70
0
0
ENDTAB
0
TABLE
2
DIMSTYLE
5
A
100
AcDbSymbolTable
70
1
0
ENDTAB
0
TABLE
2
BLOCK_RECORD
5
1
100
AcDbSymbolTable
70
1
0
BLOCK_RECORD
5
1F
100
AcDbSymbolTableRecord
100
AcDbBlockTableRecord
2
*MODEL_SPACE
0
BLOCK_RECORD
5
1B
100
AcDbSymbolTableRecord
100
AcDbBlockTableRecord
2
*PAPER_SPACE
0
ENDTAB
0
ENDSEC
0
SECTION
2
BLOCKS
0
BLOCK
5
20
100
AcDbEntity
100
AcDbBlockBegin
2
*MODEL_SPACE
0
ENDBLK
5
21
100
AcDbEntity
100
AcDbBlockEnd
0
BLOCK
5
1C
100
AcDbEntity
100
AcDbBlockBegin
2
*PAPER_SPACE
0
ENDBLK
5
1D
100
AcDbEntity
100
AcDbBlockEnd
0
ENDSEC
0
SECTION
2
ENTITIES
0
LINE
5
100
100
AcDbEntity
8
0
100
AcDbLine
10
27.866445303563587
20
13.967824141087064
30
0
11
29.716445303563574
21
13.967824141087064
31
0
0
LINE
5
101
100
AcDbEntity
8
0
100
AcDbLine
10
29.716445303563574
20
13.967824141087064
30
0
11
29.716445303563574
21
6.1178241410870626
31
0
0
LINE
5
102
100
AcDbEntity
8
0
100
AcDbLine
10
29.716445303563574
20
6.1178241410870626
30
0
11
27.866445303563587
21
6.1178241410870626
31
0
0
LINE
5
103
100
AcDbEntity
8
0
100
AcDbLine
10
27.866445303563587
20
6.1178241410870626
30
0
11
27.866445303563587
21
13.967824141087064
31
0
0
LINE
5
104
100
AcDbEntity
8
0
100
AcDbLine
10
59.164940032163678
20
12.99437350753859
30
0
11
55.237998799577603
21
19.791551786487531
31
0
0
LINE
5
105
100
AcDbEntity
8
0
100
AcDbLine
10
55.237998799577603
20
19.791551786487531
30
0
11
56.839881578692939
21
20.717009274421834
31
0
0
LINE
5
106
100
AcDbEntity
8
0
100
AcDbLine
10
56.839881578692939
20
20.717009274421834
30
0
11
60.766822811279013
21
13.919830995472893
31
0
0
LINE
5
107
100
AcDbEntity
8
0
100
AcDbLine
10
60.766822811279013
20
13.919830995472893
30
0
11
59.164940032163678
21
12.99437350753859
31
0
0
LINE
5
108
100
AcDbEntity
8
0
100
AcDbLine
10
27.866445303563623
20
-17.345183191372762
30
0
11
29.71644530356361
21
-17.345183191372762
31
0
0
LINE
5
109
100
AcDbEntity
8
0
100
AcDbLine
10
29.71644530356361
20
-17.345183191372762
30
0
11
29.71644530356361
21
-25.195183191372763
31
0
0
LINE
5
110
100
AcDbEntity
8
0
100
AcDbLine
10
29.71644530356361
20
-25.195183191372763
30
0
11
27.866445303563623
21
-25.195183191372763
31
0
0
LINE
5
111
100
AcDbEntity
8
0
100
AcDbLine
10
27.866445303563623
20
-25.195183191372763
30
0
11
27.866445303563623
21
-17.345183191372762
31
0
0
LINE
5
112
100
AcDbEntity
8
0
100
AcDbLine
10
40.748188421664935
20
-19.195183191372749
30
0
11
35.86644530356363
21
-19.195183191372784
31
0
0
LINE
5
113
100
AcDbEntity
8
0
100
AcDbLine
10
35.86644530356363
20
-19.195183191372784
30
0
11
35.866445303563559
21
-13.173649022354148
31
0
0
ARC
5
114
100
AcDbEntity
8
0
100
AcDbCircle
10
38.019427684903597
20
-5.7578199849325173
30
0
40
7.7220368716179033
210
0
220
0
230
1
100
AcDbArc
50
106.60859133158998
51
253.81079547040335
0
ARC
5
115
100
AcDbEntity
8
0
100
AcDbCircle
10
-25.330542939825058
20
221.25569086160797
30
0
40
227.9662000000007
210
-0
220
0
230
1
100
AcDbArc
50
285.55776620661703
51
286.09440732599529
0
LINE
5
116
100
AcDbEntity
8
0
100
AcDbLine
10
37.866445303563694
20
2.2243483112664819
30
0
11
37.866445303563587
21
4.9678241410870427
31
0
0
LINE
5
117
100
AcDbEntity
8
0
100
AcDbLine
10
37.866445303563587
20
4.9678241410870427
30
0
11
39.716445303563574
21
4.9678241410870427
31
0
0
LINE
5
118
100
AcDbEntity
8
0
100
AcDbLine
10
39.716445303563574
20
4.9678241410870427
30
0
11
39.716445303563574
21
2.7666118143831042
31
0
0
ARC
5
119
100
AcDbEntity
8
0
100
AcDbCircle
10
-25.330542939825058
20
221.25569086160797
30
0
40
227.96620000000004
210
-0
220
0
230
1
100
AcDbArc
50
286.57894041364324
51
294.22101721663847
0
LINE
5
120
100
AcDbEntity
8
0
100
AcDbLine
10
68.194320832283921
20
13.35742680236077
30
0
11
65.166543210674178
21
18.598234612856288
31
0
0
LINE
5
121
100
AcDbEntity
8
0
100
AcDbLine
10
65.166543210674178
20
18.598234612856288
30
0
11
69.393559552810046
21
21.040313381947406
31
0
0
ARC
5
122
100
AcDbEntity
8
0
100
AcDbCircle
10
71.423590846665121
20
24.609524397997333
30
0
40
4.1061288741493565
210
0
220
0
230
1
100
AcDbArc
50
-119.62957024332121
51
179.66229419343099
0
LINE
5
123
100
AcDbEntity
8
0
100
AcDbLine
10
67.317533296092506
20
24.633726102665641
30
0
11
63.090516953956701
21
22.191647333574522
31
0
0
LINE
5
124
100
AcDbEntity
8
0
100
AcDbLine
10
63.090516953956701
20
22.191647333574522
30
0
11
60.070631028565877
21
27.418795335341883
31
0
0
ARC
5
125
100
AcDbEntity
8
0
100
AcDbCircle
10
-25.330542939825058
20
221.25569086160797
30
0
40
211.81619999999992
210
-0
220
0
230
1
100
AcDbArc
50
287.88404746463522
51
293.77745735442829
0
LINE
5
126
100
AcDbEntity
8
0
100
AcDbLine
10
39.716445303563539
20
19.674461817571149
30
0
11
39.716445303563574
21
15.117824141087048
31
0
0
LINE
5
127
100
AcDbEntity
8
0
100
AcDbLine
10
39.716445303563574
20
15.117824141087048
30
0
11
37.866445303563587
21
15.117824141087048
31
0
0
LINE
5
128
100
AcDbEntity
8
0
100
AcDbLine
10
37.866445303563587
20
15.117824141087048
30
0
11
37.866445303563587
21
19.086842471444356
31
0
0
ARC
5
129
100
AcDbEntity
8
0
100
AcDbCircle
10
-25.330542939825058
20
221.25569086160797
30
0
40
211.81619999999995
210
0
220
0
230
1
100
AcDbArc
50
269.97971267753223
51
287.35898774960322
0
LINE
5
130
100
AcDbEntity
8
0
100
AcDbLine
10
-25.405542939825416
20
9.4395041396296619
30
0
11
-25.405542939825381
21
9.4306908616079355
31
0
0
LINE
5
131
100
AcDbEntity
8
0
100
AcDbLine
10
-25.405542939825381
20
9.4306908616079355
30
0
11
-28.479238530353523
21
9.4306908616079355
31
0
0
LINE
5
132
100
AcDbEntity
8
0
100
AcDbLine
10
-28.479238530353523
20
9.4306908616079355
30
0
11
-28.479238530353523
21
0.89550467819247359
31
0
0
LINE
5
133
100
AcDbEntity
8
0
100
AcDbLine
10
-28.479238530353523
20
0.89550467819247359
30
0
11
-30.329238530353475
21
0.89550467819247359
31
0
0
LINE
5
134
100
AcDbEntity
8
0
100
AcDbLine
10
-30.329238530353475
20
0.89550467819247359
30
0
11
-30.329238530353475
21
9.4306908616079355
31
0
0
LINE
5
135
100
AcDbEntity
8
0
100
AcDbLine
10
-30.329238530353475
20
9.4306908616079355
30
0
11
-32.329238530353464
21
9.4306908616079355
31
0
0
LINE
5
136
100
AcDbEntity
8
0
100
AcDbLine
10
-32.329238530353464
20
9.4306908616079355
30
0
11
-32.32923853035345
21
14.46887428454307
31
0
0
SPLINE
5
137
100
AcDbEntity
8
0
100
AcDbSpline
70
0
71
3
72
17
73
13
74
0
42
0.000000001
43
0.0000000001
44
0.0000000001
40
0.0079328786619360867
40
0.0079328786619360867
40
0.0079328786619360867
40
0.0079328786619360867
40
0.0089487018331626464
40
0.0089487018331626464
40
0.0089487018331626464
40
0.3194068834367158
40
0.3194068834367158
40
0.3194068834367158
40
0.56820038105423831
40
0.56820038105423831
40
0.56820038105423831
40
0.56905900543691135
40
0.56905900543691135
40
0.56905900543691135
40
0.56905900543691135
10
-40.510337839950203
20
17.330083512671166
30
0
10
-40.499140020365694
20
17.330024158542656
30
0
10
-40.487942200781234
20
17.329964804414182
30
0
10
-40.476744381196781
20
17.329905450285708
30
0
10
-37.049743238837003
20
17.31174060448442
30
0
10
-35.001630813720475
20
16.973153608586742
30
0
10
-33.830966570900557
20
16.374586732010847
30
0
10
-32.892825240552682
20
15.894910061832199
30
0
10
-32.495319975382145
20
15.24327000269551
30
0
10
-32.330906056959421
20
14.476649538806541
30
0
10
-32.330350214757431
20
14.474057787385384
30
0
10
-32.32979437255544
20
14.471466035964227
30
0
10
-32.329238530353436
20
14.468874284542963
30
0
0
LINE
5
138
100
AcDbEntity
8
0
100
AcDbLine
10
-40.510337839950203
20
17.330083512671166
30
0
11
-41.821370433773609
21
15.876416646349689
31
0
0
LINE
5
139
100
AcDbEntity
8
0
100
AcDbLine
10
-41.821370433773609
20
15.876416646349689
30
0
11
-43.195179843439213
21
17.115427423507938
31
0
0
LINE
5
140
100
AcDbEntity
8
0
100
AcDbLine
10
-43.195179843439213
20
17.115427423507938
30
0
11
-41.841683032781503
21
18.616178416730875
31
0
0
SPLINE
5
141
100
AcDbEntity
8
0
100
AcDbSpline
70
0
71
3
72
14
73
10
74
0
42
0.000000001
43
0.0000000001
44
0.0000000001
40
-0.010284536637597003
40
-0.010284536637597003
40
-0.010284536637597003
40
-0.010284536637597003
40
0
40
0
40
0
40
0.63837691014896114
40
0.63837691014896114
40
0.63837691014896114
40
0.99973139679901823
40
0.99973139679901823
40
0.99973139679901823
40
0.99973139679901823
10
-41.841683032781503
20
18.616178416730875
30
0
10
-41.869899958027176
20
18.631230702166768
30
0
10
-41.89811688327282
20
18.64628298760266
30
0
10
-41.926333808518464
20
18.661335273038553
30
0
10
-43.689917372081069
20
19.602116841465254
30
0
10
-45.355689770028164
20
19.868357980971396
30
0
10
-46.854481535494457
20
19.19329487403779
30
0
10
-47.702875517787803
20
18.811174094629486
30
0
10
-48.499479369111128
20
18.163093185555503
30
0
10
-49.257923438187419
20
17.307332335786079
30
0
0
LINE
5
142
100
AcDbEntity
8
0
100
AcDbLine
10
-49.257923438187419
20
17.307332335786079
30
0
11
-51.600364851998165
21
14.999421235838177
31
0
0
LINE
5
143
100
AcDbEntity
8
0
100
AcDbLine
10
-51.600364851998165
20
14.999421235838177
30
0
11
-51.600364851998165
21
13.180690865441207
31
0
0
LINE
5
144
100
AcDbEntity
8
0
100
AcDbLine
10
-51.600364851998165
20
13.180690865441207
30
0
11
-40.851371230243871
21
13.180690865441171
31
0
0
LINE
5
145
100
AcDbEntity
8
0
100
AcDbLine
10
-40.851371230243871
20
13.180690865441171
30
0
11
-40.851371230224615
21
4.3306783894599832
31
0
0
LINE
5
146
100
AcDbEntity
8
0
100
AcDbLine
10
-40.851371230224615
20
4.3306783894599832
30
0
11
-44.714587026478497
21
4.3306906690452251
31
0
0
SPLINE
5
147
100
AcDbEntity
8
0
100
AcDbSpline
70
0
71
3
72
23
73
19
74
0
42
0.000000001
43
0.0000000001
44
0.0000000001
40
2.1060694111674381
40
2.1060694111674381
40
2.1060694111674381
40
2.1060694111674381
40
2.9174197087536333
40
2.9174197087536333
40
2.9174197087536333
40
3.5564259404276535
40
3.5564259404276535
40
3.5564259404276535
40
4.5291924391103109
40
4.5291924391103109
40
4.5291924391103109
40
5.5366097826726355
40
5.5366097826726355
40
5.5366097826726355
40
6.2999401929782319
40
6.2999401929782319
40
6.2999401929782319
40
7.3187085117733117
40
7.3187085117733117
40
7.3187085117733117
40
7.3187085117733117
10
-44.714587026478497
20
4.3306906690452607
30
0
10
-44.992056569561228
20
5.7343622457989696
30
0
10
-45.458117610654028
20
6.7821165304969711
30
0
10
-46.021478814288002
20
7.1674643064480392
30
0
10
-46.46517288930896
20
7.4709579157152817
30
0
10
-46.971847714024726
20
7.3237606560429569
30
0
10
-47.374297963475712
20
6.792055868495126
30
0
10
-47.986952583489057
20
5.9826355860657543
30
0
10
-48.43115578124943
20
4.2746693260713542
30
0
10
-48.549812202851435
20
2.3533552062098906
30
0
10
-48.672695276239324
20
0.36360209546767663
30
0
10
-48.435676981971895
20
-1.7903529970834953
30
0
10
-47.937240652550877
20
-3.1738432198603661
30
0
10
-47.559570355052543
20
-4.2221278917042326
30
0
10
-47.037013371473989
20
-4.8468180635233082
30
0
10
-46.471148386577696
20
-4.8183723920621091
30
0
10
-45.715924552252751
20
-4.7804077721540139
30
0
10
-45.062984651273098
20
-3.5817935542825552
30
0
10
-44.714587065327947
20
-1.819309134605902
30
0
0
LINE
5
148
100
AcDbEntity
8
0
100
AcDbLine
10
-44.714587065327947
20
-1.819309134605902
30
0
11
-40.851371230244027
21
-1.8193091345709789
31
0
0
LINE
5
149
100
AcDbEntity
8
0
100
AcDbLine
10
-40.851371230244027
20
-1.8193091345709789
30
0
11
-40.851371230244062
21
-10.669309134558773
31
0
0
LINE
5
150
100
AcDbEntity
8
0
100
AcDbLine
10
-40.851371230244062
20
-10.669309134558773
30
0
11
-76.660150701388602
21
-10.669309134558844
31
0
0
LINE
5
151
100
AcDbEntity
8
0
100
AcDbLine
10
-76.660150701388602
20
-10.669309134558844
30
0
11
-72.024360272402305
21
-14.850234277267944
31
0
0
LINE
5
152
100
AcDbEntity
8
0
100
AcDbLine
10
-72.024360272402305
20
-14.850234277267944
30
0
11
-70.68488916196101
21
-13.365034915467362
31
0
0
LINE
5
153
100
AcDbEntity
8
0
100
AcDbLine
10
-70.68488916196101
20
-13.365034915467362
30
0
11
-69.311079752295441
21
-14.604045692625611
31
0
0
LINE
5
154
100
AcDbEntity
8
0
100
AcDbLine
10
-69.311079752295441
20
-14.604045692625611
30
0
11
-70.650550862736708
21
-16.089245054426158
31
0
0
LINE
5
155
100
AcDbEntity
8
0
100
AcDbLine
10
-70.650550862736708
20
-16.089245054426158
30
0
11
-69.289928936464463
21
-17.316362308412323
31
0
0
SPLINE
5
156
100
AcDbEntity
8
0
100
AcDbSpline
70
0
71
3
72
20
73
16
74
0
42
0.000000001
43
0.0000000001
44
0.0000000001
40
0.17152802373021167
40
0.17152802373021167
40
0.17152802373021167
40
0.17152802373021167
40
0.17178926020793109
40
0.17178926020793109
40
0.17178926020793109
40
0.36764292169384727
40
0.36764292169384727
40
0.36764292169384727
40
0.56555558226403302
40
0.56555558226403302
40
0.56555558226403302
40
0.82287493089336738
40
0.82287493089336738
40
0.82287493089336738
40
0.95510243755870894
40
0.95510243755870894
40
0.95510243755870894
40
0.95510243755870894
10
-69.289928936464435
20
-17.316362308412323
30
0
10
-69.288921343138583
20
-17.317102984356048
30
0
10
-69.287913749812716
20
-17.317843660299737
30
0
10
-69.286906156486879
20
-17.31858433624339
30
0
10
-68.522155953111053
20
-17.880747725006607
30
0
10
-67.363526811011823
20
-18.409340044264866
30
0
10
-65.689923511914145
20
-18.512229677608083
30
0
10
-63.998725710706445
20
-18.61620098417216
30
0
10
-61.787092052056671
20
-18.292626682875479
30
0
10
-59.328563807479249
20
-17.728672792822131
30
0
10
-56.132068521837155
20
-16.995439015723584
30
0
10
-52.555181345558744
20
-15.898754565117308
30
0
10
-49.514299106971222
20
-15.390271613089865
30
0
10
-47.951694978625824
20
-15.128979824164688
30
0
10
-46.531589895443126
20
-15.026500225842163
30
0
10
-45.328654440816081
20
-15.16217323204792
30
0
0
ARC
5
157
100
AcDbEntity
8
0
100
AcDbCircle
10
-135.33054293982505
20
-490.65590913839202
30
0
40
483.93660000000023
210
0
220
-0
230
1
100
AcDbArc
50
77.468679746886593
51
79.281803273877941
0
LINE
5
158
100
AcDbEntity
8
0
100
AcDbLine
10
-30.329238530353422
20
-18.247866349248021
30
0
11
-30.329238530353475
21
-9.2544953218075321
31
0
0
LINE
5
159
100
AcDbEntity
8
0
100
AcDbLine
10
-30.329238530353475
20
-9.2544953218075321
30
0
11
-28.479238530353523
21
-9.2544953218075321
31
0
0
LINE
5
160
100
AcDbEntity
8
0
100
AcDbLine
10
-28.479238530353523
20
-9.2544953218075321
30
0
11
-28.479238530353523
21
-18.695117360717504
31
0
0
LINE
5
161
100
AcDbEntity
8
0
100
AcDbLine
10
-28.479238530353523
20
-18.695117360717504
30
0
11
-26.962972485038303
21
-19.111292821569812
31
0
0
ARC
5
162
100
AcDbEntity
8
0
100
AcDbCircle
10
85.069457060175012
20
468.36729086160801
30
0
40
500.18660000000034
210
0
220
0
230
1
100
AcDbArc
50
257.0570196272746
51
264.35472405842245
0
LINE
5
163
100
AcDbEntity
8
0
100
AcDbLine
10
35.866445303563772
20
-29.393393055511829
30
0
11
35.86644530356363
21
-23.345183191372776
31
0
0
LINE
5
164
100
AcDbEntity
8
0
100
AcDbLine
10
35.86644530356363
20
-23.345183191372776
30
0
11
40.748188421664935
21
-23.345183191372776
31
0
0
ARC
5
165
100
AcDbEntity
8
0
100
AcDbCircle
10
44.291445303563641
20
-21.270183191372745
30
0
40
4.1061288741493094
210
0
220
0
230
1
100
AcDbArc
50
-149.64593221837538
51
149.64593221837583
0
ENDSEC
0
SECTION
2
OBJECTS
0
DICTIONARY
5
C
100
AcDbDictionary
3
ACAD_GROUP
350
D
3
ACAD_MLINESTYLE
350
17
0
DICTIONARY
5
D
100
AcDbDictionary
0
DICTIONARY
5
1A
330
C
100
AcDbDictionary
0
DICTIONARY
5
17
100
AcDbDictionary
0
ENDSEC
0
EOF
