0
SECTION
2
HEADER
9
$INSUNITS
70
4
9
$ACADVER
1
AC1014
9
$HANDSEED
5
FFFF
0
ENDSEC
0
SECTION
2
TABLES
0
TABLE
2
VPORT
5
8
100
AcDbSymbolTable
0
ENDTAB
0
TABLE
2
LTYPE
5
5
100
AcDbSymbolTable
0
LTYPE
5
14
100
AcDbSymbolTableRecord
100
AcDbLinetypeTableRecord
2
BYBLOCK
70
0
0
LTYPE
5
15
100
AcDbSymbolTableRecord
100
AcDbLinetypeTableRecord
2
BYLAYER
70
0
0
ENDTAB
0
TABLE
2
LAYER
5
2
100
AcDbSymbolTable
70
2
0
LAYER
5
50
100
AcDbSymbolTableRecord
100
AcDbLayerTableRecord
2
0
70
0
6
CONTINUOUS
0
ENDTAB
0
TABLE
2
STYLE
5
3
100
AcDbSymbolTable
70
1
0
STYLE
5
11
100
AcDbSymbolTableRecord
100
AcDbTextStyleTableRecord
2
STANDARD
70
0
0
ENDTAB
0
TABLE
2
VIEW
5
6
100
AcDbSymbolTable
70
0
0
ENDTAB
0
TABLE
2
UCS
5
7
100
AcDbSymbolTable
70
0
0
ENDTAB
0
TABLE
2
APPID
5
9
100
AcDbSymbolTable
70
2
0
APPID
5
12
100
AcDbSymbolTableRecord
100
AcDbRegAppTableRecord
2
ACAD
70
0
0
ENDTAB
0
TABLE
2
DIMSTYLE
5
A
100
AcDbSymbolTable
70
1
0
ENDTAB
0
TABLE
2
BLOCK_RECORD
5
1
100
AcDbSymbolTable
70
1
0
BLOCK_RECORD
5
1F
100
AcDbSymbolTableRecord
100
AcDbBlockTableRecord
2
*MODEL_SPACE
0
BLOCK_RECORD
5
1B
100
AcDbSymbolTableRecord
100
AcDbBlockTableRecord
2
*PAPER_SPACE
0
ENDTAB
0
ENDSEC
0
SECTION
2
BLOCKS
0
BLOCK
5
20
100
AcDbEntity
100
AcDbBlockBegin
2
*MODEL_SPACE
0
ENDBLK
5
21
100
AcDbEntity
100
AcDbBlockEnd
0
BLOCK
5
1C
100
AcDbEntity
100
AcDbBlockBegin
2
*PAPER_SPACE
0
ENDBLK
5
1D
100
AcDbEntity
100
AcDbBlockEnd
0
ENDSEC
0
SECTION
2
ENTITIES
0
CIRCLE
5
100
100
AcDbEntity
8
0
100
AcDbCircle
10
-2.523236453531581
20
0
30
0
40
3.9250000000000567
210
0
220
0
230
1
0
LINE
5
101
100
AcDbEntity
8
0
100
AcDbLine
10
-47.220638998604869
20
1.7237839101667518
30
0
11
-46.224688252052033
21
3.5660752640024995
31
0
0
LINE
5
102
100
AcDbEntity
8
0
100
AcDbLine
10
-46.224688252052033
20
3.5660752640024995
30
0
11
-45.228737505499197
21
1.7237839101667518
31
0
0
LINE
5
103
100
AcDbEntity
8
0
100
AcDbLine
10
-45.228737505499197
20
1.7237839101667518
30
0
11
-46.224688252052033
21
-0.11850744366892485
31
0
0
LINE
5
104
100
AcDbEntity
8
0
100
AcDbLine
10
-46.224688252052033
20
-0.11850744366892485
30
0
11
-47.220638998604869
21
1.7237839101667518
31
0
0
LINE
5
105
100
AcDbEntity
8
0
100
AcDbLine
10
32.455468577931015
20
3.1774360358273057
30
0
11
31.459517831378179
21
5.0197273896629824
31
0
0
LINE
5
106
100
AcDbEntity
8
0
100
AcDbLine
10
31.459517831378179
20
5.0197273896629824
30
0
11
32.455468577931015
21
6.8620187434987301
31
0
0
LINE
5
107
100
AcDbEntity
8
0
100
AcDbLine
10
32.455468577931015
20
6.8620187434987301
30
0
11
33.451419324483851
21
5.0197273896629824
31
0
0
LINE
5
108
100
AcDbEntity
8
0
100
AcDbLine
10
33.451419324483851
20
5.0197273896629824
30
0
11
32.455468577931015
21
3.1774360358273057
31
0
0
LINE
5
109
100
AcDbEntity
8
0
100
AcDbLine
10
34.45951783137815
20
-3.9802726103370389
30
0
11
35.455468577930986
21
-2.1379812565013268
31
0
0
LINE
5
110
100
AcDbEntity
8
0
100
AcDbLine
10
35.455468577930986
20
-2.1379812565013268
30
0
11
36.451419324483822
21
-3.9802726103370389
31
0
0
LINE
5
111
100
AcDbEntity
8
0
100
AcDbLine
10
36.451419324483822
20
-3.9802726103370389
30
0
11
35.455468577930986
21
-5.8225639641727156
31
0
0
LINE
5
112
100
AcDbEntity
8
0
100
AcDbLine
10
35.455468577930986
20
-5.8225639641727156
30
0
11
34.45951783137815
21
-3.9802726103370389
31
0
0
LINE
5
113
100
AcDbEntity
8
0
100
AcDbLine
10
-41.220638998604784
20
-4.2762160898332624
30
0
11
-40.22468825205209
21
-2.4339247359975502
31
0
0
LINE
5
114
100
AcDbEntity
8
0
100
AcDbLine
10
-40.22468825205209
20
-2.4339247359975502
30
0
11
-39.228737505499254
21
-4.2762160898332624
31
0
0
LINE
5
115
100
AcDbEntity
8
0
100
AcDbLine
10
-39.228737505499254
20
-4.2762160898332624
30
0
11
-40.22468825205209
21
-6.1185074436689391
31
0
0
LINE
5
116
100
AcDbEntity
8
0
100
AcDbLine
10
-40.22468825205209
20
-6.1185074436689391
30
0
11
-41.220638998604784
21
-4.2762160898332624
31
0
0
LINE
5
117
100
AcDbEntity
8
0
100
AcDbLine
10
-53.220638998604812
20
1.7237839101667518
30
0
11
-52.224688252051976
21
3.5660752640024995
31
0
0
LINE
5
118
100
AcDbEntity
8
0
100
AcDbLine
10
-52.224688252051976
20
3.5660752640024995
30
0
11
-51.228737505499282
21
1.7237839101667518
31
0
0
LINE
5
119
100
AcDbEntity
8
0
100
AcDbLine
10
-51.228737505499282
20
1.7237839101667518
30
0
11
-52.04097095449626
21
0.22132943080350742
31
0
0
LINE
5
120
100
AcDbEntity
8
0
100
AcDbLine
10
-52.04097095449626
20
0.22132943080350742
30
0
11
-52.04097095449626
21
0.074999999999931788
31
0
0
LINE
5
121
100
AcDbEntity
8
0
100
AcDbLine
10
-52.04097095449626
20
0.074999999999931788
30
0
11
-52.12007728344247
21
0.074999999999931788
31
0
0
LINE
5
122
100
AcDbEntity
8
0
100
AcDbLine
10
-52.12007728344247
20
0.074999999999931788
30
0
11
-52.224688252051976
21
-0.1185074436689959
31
0
0
LINE
5
123
100
AcDbEntity
8
0
100
AcDbLine
10
-52.224688252051976
20
-0.1185074436689959
30
0
11
-53.220638998604812
21
1.7237839101667518
31
0
0
LINE
5
124
100
AcDbEntity
8
0
100
AcDbLine
10
36.451419324483822
20
2.0197273896630108
30
0
11
35.455468577930986
21
0.17743603582729861
31
0
0
LINE
5
125
100
AcDbEntity
8
0
100
AcDbLine
10
35.455468577930986
20
0.17743603582729861
30
0
11
34.45951783137815
21
2.0197273896629753
31
0
0
LINE
5
126
100
AcDbEntity
8
0
100
AcDbLine
10
34.45951783137815
20
2.0197273896629753
30
0
11
35.455468577931128
21
3.862018743498723
31
0
0
LINE
5
127
100
AcDbEntity
8
0
100
AcDbLine
10
35.455468577931128
20
3.862018743498723
30
0
11
36.451419324483822
21
2.0197273896630108
31
0
0
LINE
5
128
100
AcDbEntity
8
0
100
AcDbLine
10
-50.220638998604841
20
-1.2762160898332553
30
0
11
-49.224688252052005
21
0.56607526400249242
31
0
0
LINE
5
129
100
AcDbEntity
8
0
100
AcDbLine
10
-49.224688252052005
20
0.56607526400249242
30
0
11
-48.228737505499168
21
-1.2762160898332553
31
0
0
LINE
5
130
100
AcDbEntity
8
0
100
AcDbLine
10
-48.228737505499168
20
-1.2762160898332553
30
0
11
-49.224688252052005
21
-3.1185074436689675
31
0
0
LINE
5
131
100
AcDbEntity
8
0
100
AcDbLine
10
-49.224688252052005
20
-3.1185074436689675
30
0
11
-50.220638998604841
21
-1.2762160898332553
31
0
0
LINE
5
132
100
AcDbEntity
8
0
100
AcDbLine
10
-50.220638998604841
20
4.7237839101667589
30
0
11
-49.224688252052005
21
6.5660752640024356
31
0
0
LINE
5
133
100
AcDbEntity
8
0
100
AcDbLine
10
-49.224688252052005
20
6.5660752640024356
30
0
11
-48.228737505499168
21
4.7237839101667589
31
0
0
LINE
5
134
100
AcDbEntity
8
0
100
AcDbLine
10
-48.228737505499168
20
4.7237839101667589
30
0
11
-49.224688252052005
21
2.8814925563310823
31
0
0
LINE
5
135
100
AcDbEntity
8
0
100
AcDbLine
10
-49.224688252052005
20
2.8814925563310823
30
0
11
-50.220638998604841
21
4.7237839101667589
31
0
0
LINE
5
136
100
AcDbEntity
8
0
100
AcDbLine
10
39.451419324483936
20
-0.98027261033703184
30
0
11
38.455468577930958
21
-2.822563964172744
31
0
0
LINE
5
137
100
AcDbEntity
8
0
100
AcDbLine
10
38.455468577930958
20
-2.822563964172744
30
0
11
37.459517831378264
21
-0.98027261033706736
31
0
0
LINE
5
138
100
AcDbEntity
8
0
100
AcDbLine
10
37.459517831378264
20
-0.98027261033706736
30
0
11
38.455468577930958
21
0.86201874349868035
31
0
0
LINE
5
139
100
AcDbEntity
8
0
100
AcDbLine
10
38.455468577930958
20
0.86201874349868035
30
0
11
39.451419324483936
21
-0.98027261033703184
31
0
0
LINE
5
140
100
AcDbEntity
8
0
100
AcDbLine
10
-39.228737505499112
20
1.7237839101667518
30
0
11
-40.22468825205209
21
-0.11850744366896038
31
0
0
LINE
5
141
100
AcDbEntity
8
0
100
AcDbLine
10
-40.22468825205209
20
-0.11850744366896038
30
0
11
-41.220638998604784
21
1.7237839101667163
31
0
0
LINE
5
142
100
AcDbEntity
8
0
100
AcDbLine
10
-41.220638998604784
20
1.7237839101667163
30
0
11
-40.22468825205209
21
3.566075264002464
31
0
0
LINE
5
143
100
AcDbEntity
8
0
100
AcDbLine
10
-40.22468825205209
20
3.566075264002464
30
0
11
-39.228737505499112
21
1.7237839101667518
31
0
0
LINE
5
144
100
AcDbEntity
8
0
100
AcDbLine
10
-44.220638998604898
20
-1.2762160898332553
30
0
11
-43.224688252052061
21
0.56607526400245689
31
0
0
LINE
5
145
100
AcDbEntity
8
0
100
AcDbLine
10
-43.224688252052061
20
0.56607526400245689
30
0
11
-42.228737505499225
21
-1.2762160898332553
31
0
0
LINE
5
146
100
AcDbEntity
8
0
100
AcDbLine
10
-42.228737505499225
20
-1.2762160898332553
30
0
11
-43.224688252052061
21
-3.118507443668932
31
0
0
LINE
5
147
100
AcDbEntity
8
0
100
AcDbLine
10
-43.224688252052061
20
-3.118507443668932
30
0
11
-44.220638998604898
21
-1.2762160898332553
31
0
0
LINE
5
148
100
AcDbEntity
8
0
100
AcDbLine
10
31.459517831378179
20
-0.98027261033703184
30
0
11
32.455468577931015
21
0.86201874349871588
31
0
0
LINE
5
149
100
AcDbEntity
8
0
100
AcDbLine
10
32.455468577931015
20
0.86201874349871588
30
0
11
33.451419324483851
21
-0.98027261033703184
31
0
0
LINE
5
150
100
AcDbEntity
8
0
100
AcDbLine
10
33.451419324483851
20
-0.98027261033703184
30
0
11
32.455468577931015
21
-2.8225639641727085
31
0
0
LINE
5
151
100
AcDbEntity
8
0
100
AcDbLine
10
32.455468577931015
20
-2.8225639641727085
30
0
11
31.459517831378179
21
-0.98027261033703184
31
0
0
LINE
5
152
100
AcDbEntity
8
0
100
AcDbLine
10
25.459517831378236
20
-0.98027261033703184
30
0
11
26.455468577931072
21
0.86201874349871588
31
0
0
LINE
5
153
100
AcDbEntity
8
0
100
AcDbLine
10
26.455468577931072
20
0.86201874349871588
30
0
11
27.451419324483908
21
-0.98027261033703184
31
0
0
LINE
5
154
100
AcDbEntity
8
0
100
AcDbLine
10
27.451419324483908
20
-0.98027261033703184
30
0
11
26.455468577931072
21
-2.8225639641727085
31
0
0
LINE
5
155
100
AcDbEntity
8
0
100
AcDbLine
10
26.455468577931072
20
-2.8225639641727085
30
0
11
25.459517831378236
21
-0.98027261033703184
31
0
0
LINE
5
156
100
AcDbEntity
8
0
100
AcDbLine
10
38.455468577930958
20
3.1774360358273057
30
0
11
37.459517831378264
21
5.0197273896629468
31
0
0
LINE
5
157
100
AcDbEntity
8
0
100
AcDbLine
10
37.459517831378264
20
5.0197273896629468
30
0
11
38.455468577930958
21
6.862018743498659
31
0
0
LINE
5
158
100
AcDbEntity
8
0
100
AcDbLine
10
38.455468577930958
20
6.862018743498659
30
0
11
39.451419324483936
21
5.0197273896629468
31
0
0
LINE
5
159
100
AcDbEntity
8
0
100
AcDbLine
10
39.451419324483936
20
5.0197273896629468
30
0
11
38.455468577930958
21
3.1774360358273057
31
0
0
LINE
5
160
100
AcDbEntity
8
0
100
AcDbLine
10
28.459517831378207
20
2.0197273896629753
30
0
11
29.455468577931043
21
3.8620187434986875
31
0
0
LINE
5
161
100
AcDbEntity
8
0
100
AcDbLine
10
29.455468577931043
20
3.8620187434986875
30
0
11
30.451419324483879
21
2.0197273896629753
31
0
0
LINE
5
162
100
AcDbEntity
8
0
100
AcDbLine
10
30.451419324483879
20
2.0197273896629753
30
0
11
29.455468577931043
21
0.17743603582729861
31
0
0
LINE
5
163
100
AcDbEntity
8
0
100
AcDbLine
10
29.455468577931043
20
0.17743603582729861
30
0
11
28.459517831378207
21
2.0197273896629753
31
0
0
LINE
5
164
100
AcDbEntity
8
0
100
AcDbLine
10
52.443995903884684
20
-3.9249999999999829
30
0
11
52.443995903884684
21
3.9250000000000185
31
0
0
LINE
5
165
100
AcDbEntity
8
0
100
AcDbLine
10
52.443995903884684
20
3.9250000000000185
30
0
11
54.293995903884706
21
3.9250000000000185
31
0
0
LINE
5
166
100
AcDbEntity
8
0
100
AcDbLine
10
54.293995903884706
20
3.9250000000000185
30
0
11
54.293995903884706
21
-3.9249999999999829
31
0
0
LINE
5
167
100
AcDbEntity
8
0
100
AcDbLine
10
54.293995903884706
20
-3.9249999999999829
30
0
11
52.443995903884684
21
-3.9249999999999829
31
0
0
LINE
5
168
100
AcDbEntity
8
0
100
AcDbLine
10
-51.228737505499282
20
-4.2762160898332624
30
0
11
-52.224688252051976
21
-6.1185074436689391
31
0
0
LINE
5
169
100
AcDbEntity
8
0
100
AcDbLine
10
-52.224688252051976
20
-6.1185074436689391
30
0
11
-53.220638998604812
21
-4.2762160898332624
31
0
0
LINE
5
170
100
AcDbEntity
8
0
100
AcDbLine
10
-53.220638998604812
20
-4.2762160898332624
30
0
11
-52.224688252051976
21
-2.4339247359975502
31
0
0
LINE
5
171
100
AcDbEntity
8
0
100
AcDbLine
10
-52.224688252051976
20
-2.4339247359975502
30
0
11
-51.228737505499282
21
-4.2762160898332624
31
0
0
LINE
5
172
100
AcDbEntity
8
0
100
AcDbLine
10
26.455468577931072
20
3.1774360358273057
30
0
11
25.459517831378236
21
5.0197273896629824
31
0
0
LINE
5
173
100
AcDbEntity
8
0
100
AcDbLine
10
25.459517831378236
20
5.0197273896629824
30
0
11
26.455468577931072
21
6.8620187434987301
31
0
0
LINE
5
174
100
AcDbEntity
8
0
100
AcDbLine
10
26.455468577931072
20
6.8620187434987301
30
0
11
27.451419324483908
21
5.0197273896629824
31
0
0
LINE
5
175
100
AcDbEntity
8
0
100
AcDbLine
10
27.451419324483908
20
5.0197273896629824
30
0
11
26.455468577931072
21
3.1774360358273057
31
0
0
LINE
5
176
100
AcDbEntity
8
0
100
AcDbLine
10
-45.228737505499197
20
-4.2762160898332624
30
0
11
-46.224688252052033
21
-6.1185074436689746
31
0
0
LINE
5
177
100
AcDbEntity
8
0
100
AcDbLine
10
-46.224688252052033
20
-6.1185074436689746
30
0
11
-47.220638998604869
21
-4.2762160898332624
31
0
0
LINE
5
178
100
AcDbEntity
8
0
100
AcDbLine
10
-47.220638998604869
20
-4.2762160898332624
30
0
11
-46.224688252052033
21
-2.4339247359975502
31
0
0
LINE
5
179
100
AcDbEntity
8
0
100
AcDbLine
10
-46.224688252052033
20
-2.4339247359975502
30
0
11
-45.228737505499197
21
-4.2762160898332624
31
0
0
LINE
5
180
100
AcDbEntity
8
0
100
AcDbLine
10
-44.220638998604898
20
4.7237839101667589
30
0
11
-43.224688252051919
21
6.5660752640025066
31
0
0
LINE
5
181
100
AcDbEntity
8
0
100
AcDbLine
10
-43.224688252051919
20
6.5660752640025066
30
0
11
-42.228737505499225
21
4.7237839101667944
31
0
0
LINE
5
182
100
AcDbEntity
8
0
100
AcDbLine
10
-42.228737505499225
20
4.7237839101667944
30
0
11
-43.224688252052061
21
2.8814925563310823
31
0
0
LINE
5
183
100
AcDbEntity
8
0
100
AcDbLine
10
-43.224688252052061
20
2.8814925563310823
30
0
11
-44.220638998604898
21
4.7237839101667589
31
0
0
LINE
5
184
100
AcDbEntity
8
0
100
AcDbLine
10
29.455468577931043
20
-2.1379812565012912
30
0
11
30.451419324483879
21
-3.9802726103370389
31
0
0
LINE
5
185
100
AcDbEntity
8
0
100
AcDbLine
10
30.451419324483879
20
-3.9802726103370389
30
0
11
29.455468577931043
21
-5.8225639641727511
31
0
0
LINE
5
186
100
AcDbEntity
8
0
100
AcDbLine
10
29.455468577931043
20
-5.8225639641727511
30
0
11
28.459517831378207
21
-3.9802726103370389
31
0
0
LINE
5
187
100
AcDbEntity
8
0
100
AcDbLine
10
28.459517831378207
20
-3.9802726103370389
30
0
11
29.455468577931043
21
-2.1379812565012912
31
0
0
LINE
5
188
100
AcDbEntity
8
0
100
AcDbLine
10
-53.220638998604812
20
7.7237839101667305
30
0
11
-53.03077004756048
21
8.0749999999999389
31
0
0
LINE
5
189
100
AcDbEntity
8
0
100
AcDbLine
10
-53.03077004756048
20
8.0749999999999389
30
0
11
-68.975124778034029
21
8.0749999999999389
31
0
0
LINE
5
190
100
AcDbEntity
8
0
100
AcDbLine
10
-68.975124778034029
20
8.0749999999999389
30
0
11
-68.975124778034029
21
5.0749999999999673
31
0
0
LINE
5
191
100
AcDbEntity
8
0
100
AcDbLine
10
-68.975124778034029
20
5.0749999999999673
30
0
11
-70.825124778034194
21
5.0749999999999673
31
0
0
LINE
5
192
100
AcDbEntity
8
0
100
AcDbLine
10
-70.825124778034194
20
5.0749999999999673
30
0
11
-70.825124778034194
21
8.0749999999999389
31
0
0
LINE
5
193
100
AcDbEntity
8
0
100
AcDbLine
10
-70.825124778034194
20
8.0749999999999389
30
0
11
-72.975124778034086
21
8.0749999999999389
31
0
0
LINE
5
194
100
AcDbEntity
8
0
100
AcDbLine
10
-72.975124778034086
20
8.0749999999999389
30
0
11
-72.975124778034086
21
1.9250000000000256
31
0
0
LINE
5
195
100
AcDbEntity
8
0
100
AcDbLine
10
-72.975124778034086
20
1.9250000000000256
30
0
11
-67.856326547155419
21
1.9250000000000966
31
0
0
ARC
5
196
100
AcDbEntity
8
0
100
AcDbCircle
10
-64.400124778034211
20
-3.5527136788005009e-14
30
0
40
3.9561288741492624
210
0
220
0
230
1
100
AcDbArc
50
-150.88351384809579
51
150.88351384809292
0
LINE
5
197
100
AcDbEntity
8
0
100
AcDbLine
10
-67.856326547155561
20
-1.9250000000000256
30
0
11
-72.975124778034086
21
-1.9250000000000256
31
0
0
LINE
5
198
100
AcDbEntity
8
0
100
AcDbLine
10
-72.975124778034086
20
-1.9250000000000256
30
0
11
-72.975124778034086
21
-8.0749999999999389
31
0
0
LINE
5
199
100
AcDbEntity
8
0
100
AcDbLine
10
-72.975124778034086
20
-8.0749999999999389
30
0
11
-70.825124778034194
21
-8.0749999999999389
31
0
0
LINE
5
200
100
AcDbEntity
8
0
100
AcDbLine
10
-70.825124778034194
20
-8.0749999999999389
30
0
11
-70.825124778034194
21
-5.0749999999999673
31
0
0
LINE
5
201
100
AcDbEntity
8
0
100
AcDbLine
10
-70.825124778034194
20
-5.0749999999999673
30
0
11
-68.975124778034029
21
-5.0749999999999673
31
0
0
LINE
5
202
100
AcDbEntity
8
0
100
AcDbLine
10
-68.975124778034029
20
-5.0749999999999673
30
0
11
-68.975124778034029
21
-8.0749999999999389
31
0
0
LINE
5
203
100
AcDbEntity
8
0
100
AcDbLine
10
-68.975124778034029
20
-8.0749999999999389
30
0
11
-49.788812930481328
21
-8.0749999999999034
31
0
0
LINE
5
204
100
AcDbEntity
8
0
100
AcDbLine
10
-49.788812930481328
20
-8.0749999999999034
30
0
11
-50.220638998604841
21
-7.276216089833234
31
0
0
LINE
5
205
100
AcDbEntity
8
0
100
AcDbLine
10
-50.220638998604841
20
-7.276216089833234
30
0
11
-49.224688252052147
21
-5.4339247359975573
31
0
0
LINE
5
206
100
AcDbEntity
8
0
100
AcDbLine
10
-49.224688252052147
20
-5.4339247359975573
30
0
11
-48.228737505499168
21
-7.2762160898332695
31
0
0
LINE
5
207
100
AcDbEntity
8
0
100
AcDbLine
10
-48.228737505499168
20
-7.2762160898332695
30
0
11
-48.660563573622824
21
-8.0749999999999744
31
0
0
LINE
5
208
100
AcDbEntity
8
0
100
AcDbLine
10
-48.660563573622824
20
-8.0749999999999744
30
0
11
-43.788812930481384
21
-8.0749999999999034
31
0
0
LINE
5
209
100
AcDbEntity
8
0
100
AcDbLine
10
-43.788812930481384
20
-8.0749999999999034
30
0
11
-44.220638998604898
21
-7.2762160898332695
31
0
0
LINE
5
210
100
AcDbEntity
8
0
100
AcDbLine
10
-44.220638998604898
20
-7.2762160898332695
30
0
11
-43.224688252051919
21
-5.4339247359975218
31
0
0
LINE
5
211
100
AcDbEntity
8
0
100
AcDbLine
10
-43.224688252051919
20
-5.4339247359975218
30
0
11
-42.228737505499225
21
-7.276216089833234
31
0
0
LINE
5
212
100
AcDbEntity
8
0
100
AcDbLine
10
-42.228737505499225
20
-7.276216089833234
30
0
11
-42.660563573622881
21
-8.0749999999999744
31
0
0
LINE
5
213
100
AcDbEntity
8
0
100
AcDbLine
10
-42.660563573622881
20
-8.0749999999999744
30
0
11
26.051332236160931
21
-8.0749999999999389
31
0
0
LINE
5
214
100
AcDbEntity
8
0
100
AcDbLine
10
26.051332236160931
20
-8.0749999999999389
30
0
11
25.459517831378236
21
-6.9802726103370105
31
0
0
LINE
5
215
100
AcDbEntity
8
0
100
AcDbLine
10
25.459517831378236
20
-6.9802726103370105
30
0
11
26.455468577931072
21
-5.1379812565012628
31
0
0
LINE
5
216
100
AcDbEntity
8
0
100
AcDbLine
10
26.455468577931072
20
-5.1379812565012628
30
0
11
27.451419324483908
21
-6.980272610337046
31
0
0
LINE
5
217
100
AcDbEntity
8
0
100
AcDbLine
10
27.451419324483908
20
-6.980272610337046
30
0
11
26.859604919701212
21
-8.0749999999999389
31
0
0
LINE
5
218
100
AcDbEntity
8
0
100
AcDbLine
10
26.859604919701212
20
-8.0749999999999389
30
0
11
29.421420635785012
21
-8.0749999999999034
31
0
0
LINE
5
219
100
AcDbEntity
8
0
100
AcDbLine
10
29.421420635785012
20
-8.0749999999999034
30
0
11
29.489516520077075
21
-8.0749999999999389
31
0
0
LINE
5
220
100
AcDbEntity
8
0
100
AcDbLine
10
29.489516520077075
20
-8.0749999999999389
30
0
11
32.051332236160874
21
-8.0749999999999389
31
0
0
LINE
5
221
100
AcDbEntity
8
0
100
AcDbLine
10
32.051332236160874
20
-8.0749999999999389
30
0
11
31.459517831378179
21
-6.9802726103370105
31
0
0
LINE
5
222
100
AcDbEntity
8
0
100
AcDbLine
10
31.459517831378179
20
-6.9802726103370105
30
0
11
32.455468577931015
21
-5.1379812565012628
31
0
0
LINE
5
223
100
AcDbEntity
8
0
100
AcDbLine
10
32.455468577931015
20
-5.1379812565012628
30
0
11
33.451419324483851
21
-6.980272610337046
31
0
0
LINE
5
224
100
AcDbEntity
8
0
100
AcDbLine
10
33.451419324483851
20
-6.980272610337046
30
0
11
32.859604919701155
21
-8.0749999999999389
31
0
0
LINE
5
225
100
AcDbEntity
8
0
100
AcDbLine
10
32.859604919701155
20
-8.0749999999999389
30
0
11
35.421420635784813
21
-8.0749999999999389
31
0
0
LINE
5
226
100
AcDbEntity
8
0
100
AcDbLine
10
35.421420635784813
20
-8.0749999999999389
30
0
11
35.489516520077018
21
-8.0749999999999389
31
0
0
LINE
5
227
100
AcDbEntity
8
0
100
AcDbLine
10
35.489516520077018
20
-8.0749999999999389
30
0
11
38.05133223616096
21
-8.0749999999999744
31
0
0
LINE
5
228
100
AcDbEntity
8
0
100
AcDbLine
10
38.05133223616096
20
-8.0749999999999744
30
0
11
37.459517831378264
21
-6.9802726103370105
31
0
0
LINE
5
229
100
AcDbEntity
8
0
100
AcDbLine
10
37.459517831378264
20
-6.9802726103370105
30
0
11
38.455468577930958
21
-5.1379812565012983
31
0
0
LINE
5
230
100
AcDbEntity
8
0
100
AcDbLine
10
38.455468577930958
20
-5.1379812565012983
30
0
11
39.451419324483794
21
-6.980272610337046
31
0
0
LINE
5
231
100
AcDbEntity
8
0
100
AcDbLine
10
39.451419324483794
20
-6.980272610337046
30
0
11
38.859604919701098
21
-8.0749999999999389
31
0
0
LINE
5
232
100
AcDbEntity
8
0
100
AcDbLine
10
38.859604919701098
20
-8.0749999999999389
30
0
11
60.443995903884513
21
-8.0749999999999389
31
0
0
LINE
5
233
100
AcDbEntity
8
0
100
AcDbLine
10
60.443995903884513
20
-8.0749999999999389
30
0
11
60.443995903884513
21
-2.0749999999999602
31
0
0
LINE
5
234
100
AcDbEntity
8
0
100
AcDbLine
10
60.443995903884513
20
-2.0749999999999602
30
0
11
65.325739021985925
21
-2.0749999999999602
31
0
0
ARC
5
235
100
AcDbEntity
8
0
100
AcDbCircle
10
68.868995903884667
20
-3.5527136788005009e-14
30
0
40
4.1061288741492854
210
0
220
0
230
1
100
AcDbArc
50
-149.64593221837697
51
149.64593221837649
0
LINE
5
236
100
AcDbEntity
8
0
100
AcDbLine
10
65.325739021985925
20
2.0749999999999247
30
0
11
60.443995903884513
21
2.0749999999999602
31
0
0
LINE
5
237
100
AcDbEntity
8
0
100
AcDbLine
10
60.443995903884513
20
2.0749999999999602
30
0
11
60.443995903884513
21
8.0749999999999389
31
0
0
LINE
5
238
100
AcDbEntity
8
0
100
AcDbLine
10
60.443995903884513
20
8.0749999999999389
30
0
11
36.481299938868972
21
8.0749999999999389
31
0
0
LINE
5
239
100
AcDbEntity
8
0
100
AcDbLine
10
36.481299938868972
20
8.0749999999999389
30
0
11
35.455468577930986
21
6.1774360358272062
31
0
0
LINE
5
240
100
AcDbEntity
8
0
100
AcDbLine
10
35.455468577930986
20
6.1774360358272062
30
0
11
34.429637216993001
21
8.0749999999999389
31
0
0
LINE
5
241
100
AcDbEntity
8
0
100
AcDbLine
10
34.429637216993001
20
8.0749999999999389
30
0
11
30.481299938869029
21
8.0749999999999389
31
0
0
LINE
5
242
100
AcDbEntity
8
0
100
AcDbLine
10
30.481299938869029
20
8.0749999999999389
30
0
11
29.455468577931043
21
6.1774360358272062
31
0
0
LINE
5
243
100
AcDbEntity
8
0
100
AcDbLine
10
29.455468577931043
20
6.1774360358272062
30
0
11
28.429637216993058
21
8.0749999999999389
31
0
0
LINE
5
244
100
AcDbEntity
8
0
100
AcDbLine
10
28.429637216993058
20
8.0749999999999389
30
0
11
-39.418606456543586
21
8.0749999999999034
31
0
0
LINE
5
245
100
AcDbEntity
8
0
100
AcDbLine
10
-39.418606456543586
20
8.0749999999999034
30
0
11
-39.228737505499112
21
7.7237839101667305
31
0
0
LINE
5
246
100
AcDbEntity
8
0
100
AcDbLine
10
-39.228737505499112
20
7.7237839101667305
30
0
11
-40.22468825205209
21
5.8814925563310538
31
0
0
LINE
5
247
100
AcDbEntity
8
0
100
AcDbLine
10
-40.22468825205209
20
5.8814925563310538
30
0
11
-41.220638998604784
21
7.723783910166695
31
0
0
LINE
5
248
100
AcDbEntity
8
0
100
AcDbLine
10
-41.220638998604784
20
7.723783910166695
30
0
11
-41.030770047560452
21
8.0749999999999389
31
0
0
LINE
5
249
100
AcDbEntity
8
0
100
AcDbLine
10
-41.030770047560452
20
8.0749999999999389
30
0
11
-45.418606456543529
21
8.0749999999999389
31
0
0
LINE
5
250
100
AcDbEntity
8
0
100
AcDbLine
10
-45.418606456543529
20
8.0749999999999389
30
0
11
-45.228737505499197
21
7.7237839101667305
31
0
0
LINE
5
251
100
AcDbEntity
8
0
100
AcDbLine
10
-45.228737505499197
20
7.7237839101667305
30
0
11
-46.224688252052033
21
5.8814925563310538
31
0
0
LINE
5
252
100
AcDbEntity
8
0
100
AcDbLine
10
-46.224688252052033
20
5.8814925563310538
30
0
11
-47.220638998604869
21
7.7237839101667305
31
0
0
LINE
5
253
100
AcDbEntity
8
0
100
AcDbLine
10
-47.220638998604869
20
7.7237839101667305
30
0
11
-47.030770047560537
21
8.0749999999999389
31
0
0
LINE
5
254
100
AcDbEntity
8
0
100
AcDbLine
10
-47.030770047560537
20
8.0749999999999389
30
0
11
-51.418606456543614
21
8.0749999999999389
31
0
0
LINE
5
255
100
AcDbEntity
8
0
100
AcDbLine
10
-51.418606456543614
20
8.0749999999999389
30
0
11
-51.228737505499282
21
7.723783910166695
31
0
0
LINE
5
256
100
AcDbEntity
8
0
100
AcDbLine
10
-51.228737505499282
20
7.723783910166695
30
0
11
-52.224688252051976
21
5.8814925563310538
31
0
0
LINE
5
257
100
AcDbEntity
8
0
100
AcDbLine
10
-52.224688252051976
20
5.8814925563310538
30
0
11
-53.220638998604812
21
7.7237839101667305
31
0
0
ENDSEC
0
SECTION
2
OBJECTS
0
DICTIONARY
5
C
100
AcDbDictionary
3
ACAD_GROUP
350
D
3
ACAD_MLINESTYLE
350
17
0
DICTIONARY
5
D
100
AcDbDictionary
0
DICTIONARY
5
1A
330
C
100
AcDbDictionary
0
DICTIONARY
5
17
100
AcDbDictionary
0
ENDSEC
0
EOF
