0
SECTION
2
HEADER
9
$INSUNITS
70
4
9
$ACADVER
1
AC1014
9
$HANDSEED
5
FFFF
0
ENDSEC
0
SECTION
2
TABLES
0
TABLE
2
VPORT
5
8
100
AcDbSymbolTable
0
ENDTAB
0
TABLE
2
LTYPE
5
5
100
AcDbSymbolTable
0
LTYPE
5
14
100
AcDbSymbolTableRecord
100
AcDbLinetypeTableRecord
2
BYBLOCK
70
0
0
LTYPE
5
15
100
AcDbSymbolTableRecord
100
AcDbLinetypeTableRecord
2
BYLAYER
70
0
0
ENDTAB
0
TABLE
2
LAYER
5
2
100
AcDbSymbolTable
70
2
0
LAYER
5
50
100
AcDbSymbolTableRecord
100
AcDbLayerTableRecord
2
0
70
0
6
CONTINUOUS
0
ENDTAB
0
TABLE
2
STYLE
5
3
100
AcDbSymbolTable
70
1
0
STYLE
5
11
100
AcDbSymbolTableRecord
100
AcDbTextStyleTableRecord
2
STANDARD
70
0
0
ENDTAB
0
TABLE
2
VIEW
5
6
100
AcDbSymbolTable
70
0
0
ENDTAB
0
TABLE
2
UCS
5
7
100
AcDbSymbolTable
70
0
0
ENDTAB
0
TABLE
2
APPID
5
9
100
AcDbSymbolTable
70
2
0
APPID
5
12
100
AcDbSymbolTableRecord
100
AcDbRegAppTableRecord
2
ACAD
70
0
0
ENDTAB
0
TABLE
2
DIMSTYLE
5
A
100
AcDbSymbolTable
70
1
0
ENDTAB
0
TABLE
2
BLOCK_RECORD
5
1
100
AcDbSymbolTable
70
1
0
BLOCK_RECORD
5
1F
100
AcDbSymbolTableRecord
100
AcDbBlockTableRecord
2
*MODEL_SPACE
0
BLOCK_RECORD
5
1B
100
AcDbSymbolTableRecord
100
AcDbBlockTableRecord
2
*PAPER_SPACE
0
ENDTAB
0
ENDSEC
0
SECTION
2
BLOCKS
0
BLOCK
5
20
100
AcDbEntity
100
AcDbBlockBegin
2
*MODEL_SPACE
0
ENDBLK
5
21
100
AcDbEntity
100
AcDbBlockEnd
0
BLOCK
5
1C
100
AcDbEntity
100
AcDbBlockBegin
2
*PAPER_SPACE
0
ENDBLK
5
1D
100
AcDbEntity
100
AcDbBlockEnd
0
ENDSEC
0
SECTION
2
ENTITIES
0
LINE
5
100
100
AcDbEntity
8
0
100
AcDbLine
10
82.583853128930969
20
-4.591356531656956
30
0
11
84.429592677454366
21
-4.7168376817025504
31
0
0
LINE
5
101
100
AcDbEntity
8
0
100
AcDbLine
10
84.429592677454366
20
-4.7168376817025504
30
0
11
83.897145635368844
21
-12.548759549761144
31
0
0
LINE
5
102
100
AcDbEntity
8
0
100
AcDbLine
10
83.897145635368844
20
-12.548759549761144
30
0
11
82.051406086845446
21
-12.423278399715549
31
0
0
LINE
5
103
100
AcDbEntity
8
0
100
AcDbLine
10
82.051406086845446
20
-12.423278399715549
30
0
11
82.583853128930969
21
-4.591356531656956
31
0
0
LINE
5
104
100
AcDbEntity
8
0
100
AcDbLine
10
-60.083101092509565
20
-0.22377504734272691
30
0
11
-60.458828861506362
21
-1.8512308140991607
31
0
0
LINE
5
105
100
AcDbEntity
8
0
100
AcDbLine
10
-60.458828861506362
20
-1.8512308140991607
30
0
11
-64.209947234284357
21
-0.9842753394080006
31
0
0
LINE
5
106
100
AcDbEntity
8
0
100
AcDbLine
10
-64.209947234284357
20
-0.9842753394080006
30
0
11
-63.834425841942135
21
0.64228651185693764
31
0
0
LINE
5
107
100
AcDbEntity
8
0
100
AcDbLine
10
-63.834425841942135
20
0.64228651185693764
30
0
11
-60.083101092509565
21
-0.22377504734272691
31
0
0
ARC
5
108
100
AcDbEntity
8
0
100
AcDbCircle
10
-94.436937165122572
20
-8.020538472374632
30
0
40
3.9561288741494032
210
0
220
0
230
1
100
AcDbArc
50
-150.88351384809638
51
150.88351384809593
0
LINE
5
109
100
AcDbEntity
8
0
100
AcDbLine
10
-97.893138934244064
20
-9.9455384723746576
30
0
11
-103.01193716512259
21
-9.9455384723746576
31
0
0
LINE
5
110
100
AcDbEntity
8
0
100
AcDbLine
10
-103.01193716512259
20
-9.9455384723746576
30
0
11
-103.01193716512259
21
-16.0955384723745
31
0
0
LINE
5
111
100
AcDbEntity
8
0
100
AcDbLine
10
-103.01193716512259
20
-16.0955384723745
30
0
11
-100.8619371651227
21
-16.0955384723745
31
0
0
LINE
5
112
100
AcDbEntity
8
0
100
AcDbLine
10
-100.8619371651227
20
-16.0955384723745
30
0
11
-100.8619371651227
21
-13.095538472374528
31
0
0
LINE
5
113
100
AcDbEntity
8
0
100
AcDbLine
10
-100.8619371651227
20
-13.095538472374528
30
0
11
-99.011937165122532
21
-13.095538472374528
31
0
0
LINE
5
114
100
AcDbEntity
8
0
100
AcDbLine
10
-99.011937165122532
20
-13.095538472374528
30
0
11
-99.011937165122532
21
-16.0955384723745
31
0
0
LINE
5
115
100
AcDbEntity
8
0
100
AcDbLine
10
-99.011937165122532
20
-16.0955384723745
30
0
11
-53.382080178035523
21
-16.0955384723745
31
0
0
LINE
5
116
100
AcDbEntity
8
0
100
AcDbLine
10
-53.382080178035523
20
-16.0955384723745
30
0
11
-52.882080178035551
21
-15.995538472374449
31
0
0
LINE
5
117
100
AcDbEntity
8
0
100
AcDbLine
10
-52.882080178035551
20
-15.995538472374449
30
0
11
-42.35956834829409
21
-15.995538472374449
31
0
0
LINE
5
118
100
AcDbEntity
8
0
100
AcDbLine
10
-42.35956834829409
20
-15.995538472374449
30
0
11
-42.35956834829409
21
-8.2414110096320314
31
0
0
LINE
5
119
100
AcDbEntity
8
0
100
AcDbLine
10
-42.35956834829409
20
-8.2414110096320314
30
0
11
-40.509568348293925
21
-8.2414110096320314
31
0
0
LINE
5
120
100
AcDbEntity
8
0
100
AcDbLine
10
-40.509568348293925
20
-8.2414110096320314
30
0
11
-40.509568348293925
21
-15.995538472374449
31
0
0
LINE
5
121
100
AcDbEntity
8
0
100
AcDbLine
10
-40.509568348293925
20
-15.995538472374449
30
0
11
57.110493358445069
21
-15.995538472374342
31
0
0
ARC
5
122
100
AcDbEntity
8
0
100
AcDbCircle
10
57.110493358445069
20
-496.12683847237457
30
0
40
480.13130000000058
210
0
220
-0
230
1
100
AcDbArc
50
86.101825962118539
51
90.000000000000043
0
LINE
5
123
100
AcDbEntity
8
0
100
AcDbLine
10
89.751497373579383
20
-17.106348204396156
30
0
11
90.158463662938146
21
-11.120160040578497
31
0
0
LINE
5
124
100
AcDbEntity
8
0
100
AcDbLine
10
90.158463662938146
20
-11.120160040578497
30
0
11
95.028964386620061
21
-11.451277197706418
31
0
0
ARC
5
125
100
AcDbEntity
8
0
100
AcDbCircle
10
98.704803707615696
20
-9.6213865951454025
30
0
40
4.1061288741488342
210
0
220
0
230
1
100
AcDbArc
50
-153.53515623887463
51
145.7567081978724
0
LINE
5
126
100
AcDbEntity
8
0
100
AcDbLine
10
95.310449128614465
20
-7.3108344266947611
30
0
11
90.439948404932267
21
-6.9797172695668053
31
0
0
LINE
5
127
100
AcDbEntity
8
0
100
AcDbLine
10
90.439948404932267
20
-6.9797172695668053
30
0
11
90.846913912582892
21
-0.99354060412927936
31
0
0
ARC
5
128
100
AcDbEntity
8
0
100
AcDbCircle
10
57.110493358445069
20
-496.12683847237457
30
0
40
496.28130000000021
210
0
220
-0
230
1
100
AcDbArc
50
86.102117213837772
51
90.008658765663398
0
LINE
5
129
100
AcDbEntity
8
0
100
AcDbLine
10
57.035493358447269
20
0.15445586047675874
30
0
11
57.035493358446132
21
0.085467371122902591
31
0
0
ARC
5
130
100
AcDbEntity
8
0
100
AcDbCircle
10
57.110493358445069
20
481.38966152762544
30
0
40
481.30420000000049
210
0
220
0
230
1
100
AcDbArc
50
258.29785008173661
51
269.99107179309715
0
LINE
5
131
100
AcDbEntity
8
0
100
AcDbLine
10
-40.509568348293925
20
10.089272720218645
30
0
11
-40.509568348293925
21
1.9085889903678321
31
0
0
LINE
5
132
100
AcDbEntity
8
0
100
AcDbLine
10
-40.509568348293925
20
1.9085889903678321
30
0
11
-42.35956834829409
21
1.9085889903678321
31
0
0
LINE
5
133
100
AcDbEntity
8
0
100
AcDbLine
10
-42.35956834829409
20
1.9085889903678321
30
0
11
-42.359568348293948
21
10.476251481046148
31
0
0
ARC
5
134
100
AcDbEntity
8
0
100
AcDbCircle
10
57.110493358445069
20
481.38966152762544
30
0
40
481.30420000000021
210
0
220
0
230
1
100
AcDbArc
50
257.14683759365511
51
258.07285431959474
0
LINE
5
135
100
AcDbEntity
8
0
100
AcDbLine
10
-49.957167671464617
20
12.145323363354592
30
0
11
-53.03598336234586
21
12.854929552791745
31
0
0
LINE
5
136
100
AcDbEntity
8
0
100
AcDbLine
10
-53.03598336234586
20
12.854929552791745
30
0
11
-56.859622223662996
21
13.738645904724969
31
0
0
LINE
5
137
100
AcDbEntity
8
0
100
AcDbLine
10
-56.859622223662996
20
13.738645904724969
30
0
11
-57.34994578230868
21
11.614821239801145
31
0
0
LINE
5
138
100
AcDbEntity
8
0
100
AcDbLine
10
-57.34994578230868
20
11.614821239801145
30
0
11
-61.101270531738692
21
12.480882799004007
31
0
0
LINE
5
139
100
AcDbEntity
8
0
100
AcDbLine
10
-61.101270531738692
20
12.480882799004007
30
0
11
-60.610740596439996
21
14.60560137941588
31
0
0
LINE
5
140
100
AcDbEntity
8
0
100
AcDbLine
10
-60.610740596439996
20
14.60560137941588
30
0
11
-71.474369130583426
21
17.116394507416288
31
0
0
LINE
5
141
100
AcDbEntity
8
0
100
AcDbLine
10
-71.474369130583426
20
17.116394507416288
30
0
11
-72.865300971459419
21
11.091606795731934
31
0
0
LINE
5
142
100
AcDbEntity
8
0
100
AcDbLine
10
-72.865300971459419
20
11.091606795731934
30
0
11
-76.63501185096564
21
11.961913127526849
31
0
0
SPLINE
5
143
100
AcDbEntity
8
0
100
AcDbSpline
70
0
71
3
72
23
73
19
74
0
42
0.000000001
43
0.0000000001
44
0.0000000001
40
-1.0316811906386505
40
-1.0316811906386505
40
-1.0316811906386505
40
-1.0316811906386505
40
-0.12348238123968713
40
-0.12348238123968713
40
-0.12348238123968713
40
0.8074081653458095
40
0.8074081653458095
40
0.8074081653458095
40
1.9780901975700682
40
1.9780901975700682
40
1.9780901975700682
40
3.0096694800316603
40
3.0096694800316603
40
3.0096694800316603
40
3.9524049095403195
40
3.9524049095403195
40
3.9524049095403195
40
4.173273844227892
40
4.173273844227892
40
4.173273844227892
40
4.173273844227892
10
-76.63501185096564
20
11.961913127526849
30
0
10
-76.704980941658505
20
13.057968217716542
30
0
10
-77.086554202695936
20
13.921431458114206
30
0
10
-77.677178468999131
20
14.221599085784646
30
0
10
-78.282559736179422
20
14.529266530508949
30
0
10
-79.057534078659728
20
14.200210466328045
30
0
10
-79.688634051601781
20
13.408775191568161
30
0
10
-80.482301364660742
20
12.413471222451342
30
0
10
-81.043479766552764
20
10.695253200036987
30
0
10
-81.064889107541376
20
9.2126363860325355
30
0
10
-81.083754548375992
20
7.9061870282591684
30
0
10
-80.694432009493084
20
6.8241743709032932
30
0
10
-80.027511798002138
20
6.4716097931918881
30
0
10
-79.41802949962991
20
6.1494095277841154
30
0
10
-78.630920962140323
20
6.479916830856105
30
0
10
-77.992718268983481
20
7.2846214399444165
30
0
10
-77.843196839598079
20
7.4731517997720331
30
0
10
-77.700762505422034
20
7.6860537082746561
30
0
10
-77.568558726467955
20
7.9182773586611432
30
0
0
LINE
5
144
100
AcDbEntity
8
0
100
AcDbLine
10
-77.568558726467955
20
7.9182773586611077
30
0
11
-73.79884784696344
21
7.0479710268675433
31
0
0
LINE
5
145
100
AcDbEntity
8
0
100
AcDbLine
10
-73.79884784696344
20
7.0479710268675433
30
0
11
-75.145775789031859
21
1.213785141247925
31
0
0
ARC
5
146
100
AcDbEntity
8
0
100
AcDbCircle
10
-75.35376904088011
20
0.65278127959793153
30
0
40
0.59831975197262466
210
-0
220
0
230
1
100
AcDbArc
50
-90
51
69.657642058212218
0
LINE
5
147
100
AcDbEntity
8
0
100
AcDbLine
10
-75.35376904088011
20
0.054461527625306871
30
0
11
-99.011937165122532
21
0.054461527625306871
31
0
0
LINE
5
148
100
AcDbEntity
8
0
100
AcDbLine
10
-99.011937165122532
20
0.054461527625306871
30
0
11
-99.011937165122532
21
-2.9455384723746647
31
0
0
LINE
5
149
100
AcDbEntity
8
0
100
AcDbLine
10
-99.011937165122532
20
-2.9455384723746647
30
0
11
-100.8619371651227
21
-2.9455384723746647
31
0
0
LINE
5
150
100
AcDbEntity
8
0
100
AcDbLine
10
-100.8619371651227
20
-2.9455384723746647
30
0
11
-100.8619371651227
21
0.054461527625306871
31
0
0
LINE
5
151
100
AcDbEntity
8
0
100
AcDbLine
10
-100.8619371651227
20
0.054461527625306871
30
0
11
-103.01193716512259
21
0.054461527625306871
31
0
0
LINE
5
152
100
AcDbEntity
8
0
100
AcDbLine
10
-103.01193716512259
20
0.054461527625306871
30
0
11
-103.01193716512259
21
-6.0955384723745354
31
0
0
LINE
5
153
100
AcDbEntity
8
0
100
AcDbLine
10
-103.01193716512259
20
-6.0955384723745354
30
0
11
-97.893138934244064
21
-6.0955384723745709
31
0
0
ENDSEC
0
SECTION
2
OBJECTS
0
DICTIONARY
5
C
100
AcDbDictionary
3
ACAD_GROUP
350
D
3
ACAD_MLINESTYLE
350
17
0
DICTIONARY
5
D
100
AcDbDictionary
0
DICTIONARY
5
1A
330
C
100
AcDbDictionary
0
DICTIONARY
5
17
100
AcDbDictionary
0
ENDSEC
0
EOF
