0
SECTION
2
HEADER
9
$INSUNITS
70
4
9
$ACADVER
1
AC1014
9
$HANDSEED
5
FFFF
0
ENDSEC
0
SECTION
2
TABLES
0
TABLE
2
VPORT
5
8
100
AcDbSymbolTable
0
ENDTAB
0
TABLE
2
LTYPE
5
5
100
AcDbSymbolTable
0
LTYPE
5
14
100
AcDbSymbolTableRecord
100
AcDbLinetypeTableRecord
2
BYBLOCK
70
0
0
LTYPE
5
15
100
AcDbSymbolTableRecord
100
AcDbLinetypeTableRecord
2
BYLAYER
70
0
0
ENDTAB
0
TABLE
2
LAYER
5
2
100
AcDbSymbolTable
70
2
0
LAYER
5
50
100
AcDbSymbolTableRecord
100
AcDbLayerTableRecord
2
0
70
0
6
CONTINUOUS
0
ENDTAB
0
TABLE
2
STYLE
5
3
100
AcDbSymbolTable
70
1
0
STYLE
5
11
100
AcDbSymbolTableRecord
100
AcDbTextStyleTableRecord
2
STANDARD
70
0
0
ENDTAB
0
TABLE
2
VIEW
5
6
100
AcDbSymbolTable
70
0
0
ENDTAB
0
TABLE
2
UCS
5
7
100
AcDbSymbolTable
70
0
0
ENDTAB
0
TABLE
2
APPID
5
9
100
AcDbSymbolTable
70
2
0
APPID
5
12
100
AcDbSymbolTableRecord
100
AcDbRegAppTableRecord
2
ACAD
70
0
0
ENDTAB
0
TABLE
2
DIMSTYLE
5
A
100
AcDbSymbolTable
70
1
0
ENDTAB
0
TABLE
2
BLOCK_RECORD
5
1
100
AcDbSymbolTable
70
1
0
BLOCK_RECORD
5
1F
100
AcDbSymbolTableRecord
100
AcDbBlockTableRecord
2
*MODEL_SPACE
0
BLOCK_RECORD
5
1B
100
AcDbSymbolTableRecord
100
AcDbBlockTableRecord
2
*PAPER_SPACE
0
ENDTAB
0
ENDSEC
0
SECTION
2
BLOCKS
0
BLOCK
5
20
100
AcDbEntity
100
AcDbBlockBegin
2
*MODEL_SPACE
0
ENDBLK
5
21
100
AcDbEntity
100
AcDbBlockEnd
0
BLOCK
5
1C
100
AcDbEntity
100
AcDbBlockBegin
2
*PAPER_SPACE
0
ENDBLK
5
1D
100
AcDbEntity
100
AcDbBlockEnd
0
ENDSEC
0
SECTION
2
ENTITIES
0
CIRCLE
5
100
100
AcDbEntity
8
0
100
AcDbCircle
10
-91.565137560057366
20
4.6406309537659496
30
0
40
3.9249999999999119
210
0
220
0
230
1
0
LINE
5
101
100
AcDbEntity
8
0
100
AcDbLine
10
71.636552954918216
20
-8.080575513645698
30
0
11
73.940838760093328
21
-7.373230264212296
31
0
0
ARC
5
102
100
AcDbEntity
8
0
100
AcDbCircle
10
6.0786648672933552
20
209.70346600634375
30
0
40
227.43730000000002
210
0
220
0
230
1
100
AcDbArc
50
258.77555887694791
51
286.75297468041651
0
LINE
5
103
100
AcDbEntity
8
0
100
AcDbLine
10
-50.64435565250804
20
-10.648801404528321
30
0
11
-38.192639557371564
21
-13.38346107776097
31
0
0
ARC
5
104
100
AcDbEntity
8
0
100
AcDbCircle
10
-153.63673513270669
20
-479.60363399365622
30
0
40
480.13130000000024
210
0
220
-0
230
1
100
AcDbArc
50
77.613289879041147
51
85.642386521349991
0
LINE
5
105
100
AcDbEntity
8
0
100
AcDbLine
10
-116.95111411919839
20
2.1488168309799249
30
0
11
-117.155685251698
21
-0.86028078729622592
31
0
0
LINE
5
106
100
AcDbEntity
8
0
100
AcDbLine
10
-118.79685366772179
20
2.2742979810255193
30
0
11
-116.95111411919839
21
2.1488168309799249
31
0
0
LINE
5
107
100
AcDbEntity
8
0
100
AcDbLine
10
-119.00064074074137
20
-0.72326667321473082
30
0
11
-118.79685366772179
21
2.2742979810255193
31
0
0
ARC
5
108
100
AcDbEntity
8
0
100
AcDbCircle
10
-153.63673513270669
20
-479.60363399365622
30
0
40
480.13130000000001
210
0
220
-0
230
1
100
AcDbArc
50
85.863158062107956
51
86.119725996881655
0
LINE
5
109
100
AcDbEntity
8
0
100
AcDbLine
10
-120.72824523890105
20
5.5628731434291723
30
0
11
-121.14538567556082
21
-0.57296957837710494
31
0
0
LINE
5
110
100
AcDbEntity
8
0
100
AcDbLine
10
-115.62123532774194
20
5.2156770953955345
30
0
11
-120.72824523890105
21
5.5628731434291723
31
0
0
ARC
5
111
100
AcDbEntity
8
0
100
AcDbCircle
10
-112.04242478353606
20
6.9018178835729316
30
0
40
3.956128874148904
210
0
220
0
230
1
100
AcDbArc
50
-154.77273786859399
51
146.99428982759193
0
LINE
5
112
100
AcDbEntity
8
0
100
AcDbLine
10
-120.46710879150879
20
9.4040067984641951
30
0
11
-115.36009888034954
21
9.0568107504305928
31
0
0
LINE
5
113
100
AcDbEntity
8
0
100
AcDbLine
10
-120.04996913655717
20
15.539838021890162
30
0
11
-120.46710879150879
21
9.4040067984641951
31
0
0
ARC
5
114
100
AcDbEntity
8
0
100
AcDbCircle
10
-153.63673513270669
20
-479.60363399365622
30
0
40
496.28130000000027
210
0
220
-0
230
1
100
AcDbArc
50
85.871216099074601
51
86.119434745162764
0
LINE
5
115
100
AcDbEntity
8
0
100
AcDbLine
10
-118.10840303368792
20
12.400923071572656
30
0
11
-117.90521431767033
21
15.389686314744289
31
0
0
LINE
5
116
100
AcDbEntity
8
0
100
AcDbLine
10
-116.26266348516438
20
12.275441921527062
30
0
11
-118.10840303368792
21
12.400923071572656
31
0
0
LINE
5
117
100
AcDbEntity
8
0
100
AcDbLine
10
-116.06023331270308
20
15.253047521973571
30
0
11
-116.26266348516438
21
12.275441921527062
31
0
0
ARC
5
118
100
AcDbEntity
8
0
100
AcDbCircle
10
-153.63673513270669
20
-479.60363399365622
30
0
40
496.28129311462862
210
0
220
-0
230
1
100
AcDbArc
50
76.945870122839679
51
85.657629187409498
0
ARC
5
119
100
AcDbEntity
8
0
100
AcDbCircle
10
6.0786648672933552
20
209.70346600634375
30
0
40
211.28730000000007
210
0
220
0
230
1
100
AcDbArc
50
256.97486569582907
51
287.06809285367399
0
ARC
5
120
100
AcDbEntity
8
0
100
AcDbCircle
10
12.991964867293291
20
187.18666600634381
30
0
40
187.73310000000006
210
-0
220
0
230
1
100
AcDbArc
50
287.06810700744757
51
299.80459810069533
0
LINE
5
121
100
AcDbEntity
8
0
100
AcDbLine
10
107.65480892626996
20
19.745315311203484
30
0
11
106.30350060602964
21
24.285855284946436
31
0
0
LINE
5
122
100
AcDbEntity
8
0
100
AcDbLine
10
112.33320505653424
20
21.137650948102191
30
0
11
107.65480892626996
21
19.745315311203484
31
0
0
ARC
5
123
100
AcDbEntity
8
0
100
AcDbCircle
10
116.32292480357847
20
20.205553532206544
30
0
40
4.0971537990016955
210
0
220
0
230
1
100
AcDbArc
50
-133.7031202225258
51
166.85014201697246
0
LINE
5
124
100
AcDbEntity
8
0
100
AcDbLine
10
108.81371587138631
20
15.851264463345345
30
0
11
113.49211200165044
21
17.243600100244052
31
0
0
LINE
5
125
100
AcDbEntity
8
0
100
AcDbLine
10
111.02551519922741
20
8.4193829959279043
30
0
11
108.81371587138631
21
15.851264463345345
31
0
0
ARC
5
126
100
AcDbEntity
8
0
100
AcDbCircle
10
12.991964867293291
20
187.18666600634381
30
0
40
203.88310000000001
210
-0
220
0
230
1
100
AcDbArc
50
287.39396585923174
51
298.73976547767813
0
LINE
5
127
100
AcDbEntity
8
0
100
AcDbLine
10
103.89446238407814
20
10.820088886842036
30
0
11
102.12132146273376
21
10.292385112879678
31
0
0
LINE
5
128
100
AcDbEntity
8
0
100
AcDbLine
10
102.12132146273376
20
10.292385112879678
30
0
11
99.88214598943415
21
17.816253346692115
31
0
0
LINE
5
129
100
AcDbEntity
8
0
100
AcDbLine
10
99.88214598943415
20
17.816253346692115
30
0
11
101.65528691077839
21
18.343957120654473
31
0
0
LINE
5
130
100
AcDbEntity
8
0
100
AcDbLine
10
101.65528691077839
20
18.343957120654473
30
0
11
103.89446238407814
21
10.820088886842036
31
0
0
ENDSEC
0
SECTION
2
OBJECTS
0
DICTIONARY
5
C
100
AcDbDictionary
3
ACAD_GROUP
350
D
3
ACAD_MLINESTYLE
350
17
0
DICTIONARY
5
D
100
AcDbDictionary
0
DICTIONARY
5
1A
330
C
100
AcDbDictionary
0
DICTIONARY
5
17
100
AcDbDictionary
0
ENDSEC
0
EOF
