0
SECTION
2
HEADER
9
$INSUNITS
70
4
9
$ACADVER
1
AC1014
9
$HANDSEED
5
FFFF
0
ENDSEC
0
SECTION
2
TABLES
0
TABLE
2
VPORT
5
8
100
AcDbSymbolTable
0
ENDTAB
0
TABLE
2
LTYPE
5
5
100
AcDbSymbolTable
0
LTYPE
5
14
100
AcDbSymbolTableRecord
100
AcDbLinetypeTableRecord
2
BYBLOCK
70
0
0
LTYPE
5
15
100
AcDbSymbolTableRecord
100
AcDbLinetypeTableRecord
2
BYLAYER
70
0
0
ENDTAB
0
TABLE
2
LAYER
5
2
100
AcDbSymbolTable
70
2
0
LAYER
5
50
100
AcDbSymbolTableRecord
100
AcDbLayerTableRecord
2
0
70
0
6
CONTINUOUS
0
ENDTAB
0
TABLE
2
STYLE
5
3
100
AcDbSymbolTable
70
1
0
STYLE
5
11
100
AcDbSymbolTableRecord
100
AcDbTextStyleTableRecord
2
STANDARD
70
0
0
ENDTAB
0
TABLE
2
VIEW
5
6
100
AcDbSymbolTable
70
0
0
ENDTAB
0
TABLE
2
UCS
5
7
100
AcDbSymbolTable
70
0
0
ENDTAB
0
TABLE
2
APPID
5
9
100
AcDbSymbolTable
70
2
0
APPID
5
12
100
AcDbSymbolTableRecord
100
AcDbRegAppTableRecord
2
ACAD
70
0
0
ENDTAB
0
TABLE
2
DIMSTYLE
5
A
100
AcDbSymbolTable
70
1
0
ENDTAB
0
TABLE
2
BLOCK_RECORD
5
1
100
AcDbSymbolTable
70
1
0
BLOCK_RECORD
5
1F
100
AcDbSymbolTableRecord
100
AcDbBlockTableRecord
2
*MODEL_SPACE
0
BLOCK_RECORD
5
1B
100
AcDbSymbolTableRecord
100
AcDbBlockTableRecord
2
*PAPER_SPACE
0
ENDTAB
0
ENDSEC
0
SECTION
2
BLOCKS
0
BLOCK
5
20
100
AcDbEntity
100
AcDbBlockBegin
2
*MODEL_SPACE
0
ENDBLK
5
21
100
AcDbEntity
100
AcDbBlockEnd
0
BLOCK
5
1C
100
AcDbEntity
100
AcDbBlockBegin
2
*PAPER_SPACE
0
ENDBLK
5
1D
100
AcDbEntity
100
AcDbBlockEnd
0
ENDSEC
0
SECTION
2
ENTITIES
0
LINE
5
100
100
AcDbEntity
8
0
100
AcDbLine
10
36.192784353113439
20
45.157530998483146
30
0
11
37.060926534395549
21
46.791186149694241
31
0
0
LINE
5
101
100
AcDbEntity
8
0
100
AcDbLine
10
38.852545818675139
20
43.744104720182584
30
0
11
36.192784353113439
21
45.157530998483146
31
0
0
LINE
5
102
100
AcDbEntity
8
0
100
AcDbLine
10
20.256779072146287
20
8.7509079936725165
30
0
11
38.852545818675139
21
43.744104720182584
31
0
0
LINE
5
103
100
AcDbEntity
8
0
100
AcDbLine
10
13.801515738984165
20
-3.1319253522617885
30
0
11
20.256779072146287
21
8.7509079936725165
31
0
0
ARC
5
104
100
AcDbEntity
8
0
100
AcDbCircle
10
-118.35415794066819
20
74.077680029952262
30
0
40
153.05699999999996
210
-0
220
0
230
1
100
AcDbArc
50
304.16082801249303
51
329.70515030655793
0
LINE
5
105
100
AcDbEntity
8
0
100
AcDbLine
10
-33.240558691195474
20
-49.780578018360941
30
0
11
-32.409929869549501
21
-52.571579384619582
31
0
0
LINE
5
106
100
AcDbEntity
8
0
100
AcDbLine
10
-35.013699612539995
20
-50.30828179232337
30
0
11
-33.240558691195474
21
-49.780578018360941
31
0
0
LINE
5
107
100
AcDbEntity
8
0
100
AcDbLine
10
-34.019468969291324
20
-53.649002715279615
30
0
11
-35.013699612539995
21
-50.30828179232337
31
0
0
ARC
5
108
100
AcDbEntity
8
0
100
AcDbCircle
10
-118.35415794066819
20
74.077680029952262
30
0
40
153.05700000000004
210
-0
220
0
230
1
100
AcDbArc
50
302.59660767460252
51
303.43577071408487
0
LINE
5
109
100
AcDbEntity
8
0
100
AcDbLine
10
-38.162353306862258
20
-47.265842469802166
30
0
11
-35.899152418521254
21
-54.870438658699889
31
0
0
LINE
5
110
100
AcDbEntity
8
0
100
AcDbLine
10
-33.197012112856328
20
-45.788109225057596
30
0
11
-38.162353306862258
21
-47.265842469802166
31
0
0
ARC
5
111
100
AcDbEntity
8
0
100
AcDbCircle
10
-30.433496964546123
20
-42.957218959798951
30
0
40
3.9561288741490892
210
0
220
0
230
1
100
AcDbArc
50
-134.31000295086798
51
167.45702474531996
0
LINE
5
112
100
AcDbEntity
8
0
100
AcDbLine
10
-39.26054764727013
20
-43.575792444301626
30
0
11
-34.295206453264484
21
-42.098059199557163
31
0
0
LINE
5
113
100
AcDbEntity
8
0
100
AcDbLine
10
-40.715617241510955
20
-38.686603531401147
30
0
11
-39.26054764727013
21
-43.575792444301626
31
0
0
ARC
5
114
100
AcDbEntity
8
0
100
AcDbCircle
10
-118.35415794066819
20
74.077680029952262
30
0
40
136.90700000000004
210
-0
220
0
230
1
100
AcDbArc
50
304.54752550219388
51
305.49605937153581
0
LINE
5
115
100
AcDbEntity
8
0
100
AcDbLine
10
-37.700759430852884
20
-41.279474425309175
30
0
11
-38.859524319291268
21
-37.385900903028038
31
0
0
LINE
5
116
100
AcDbEntity
8
0
100
AcDbLine
10
-35.927618509508363
20
-40.751770651346888
30
0
11
-37.700759430852884
21
-41.279474425309175
31
0
0
LINE
5
117
100
AcDbEntity
8
0
100
AcDbLine
10
-37.271521830398484
20
-36.236112264618185
30
0
11
-35.927618509508363
21
-40.751770651346888
31
0
0
ARC
5
118
100
AcDbEntity
8
0
100
AcDbCircle
10
-118.35415794066819
20
74.077680029952262
30
0
40
136.90700000000015
210
-0
220
0
230
1
100
AcDbArc
50
306.31656043734972
51
328.58054228584126
0
LINE
5
119
100
AcDbEntity
8
0
100
AcDbLine
10
8.1186296374005451
20
20.325104736285748
30
0
11
-1.5213093824661428
21
2.708133675948865
31
0
0
LINE
5
120
100
AcDbEntity
8
0
100
AcDbLine
10
24.591130737554749
20
51.322776380180542
30
0
11
8.1186296374005451
21
20.325104736285748
31
0
0
LINE
5
121
100
AcDbEntity
8
0
100
AcDbLine
10
27.229757442414666
20
49.920581344436258
30
0
11
24.591130737554749
21
51.322776380180542
31
0
0
LINE
5
122
100
AcDbEntity
8
0
100
AcDbLine
10
28.097899623696776
20
51.554236495647352
30
0
11
27.229757442414666
21
49.920581344436258
31
0
0
LINE
5
123
100
AcDbEntity
8
0
100
AcDbLine
10
25.459272918836859
20
52.956431531391637
30
0
11
28.097899623696776
21
51.554236495647352
31
0
0
LINE
5
124
100
AcDbEntity
8
0
100
AcDbLine
10
26.468194913300067
20
54.855003734150657
30
0
11
25.459272918836859
21
52.956431531391637
31
0
0
LINE
5
125
100
AcDbEntity
8
0
100
AcDbLine
10
31.888450659411092
20
51.974620660006977
30
0
11
26.468194913300067
21
54.855003734150657
31
0
0
LINE
5
126
100
AcDbEntity
8
0
100
AcDbLine
10
29.486372463898647
20
47.454430877366249
30
0
11
31.888450659411092
21
51.974620660006977
31
0
0
ARC
5
127
100
AcDbEntity
8
0
100
AcDbCircle
10
29.564378746755438
20
43.499071135355933
30
0
40
3.9561288741497092
210
0
220
0
230
1
100
AcDbArc
50
-268.87017825003164
51
32.896849446165852
0
LINE
5
128
100
AcDbEntity
8
0
100
AcDbLine
10
35.288219487607648
20
50.16794639085235
30
0
11
32.886141292094919
21
45.647756608211608
31
0
0
LINE
5
129
100
AcDbEntity
8
0
100
AcDbLine
10
40.729609994420457
20
47.276332074152535
30
0
11
35.288219487607648
21
50.16794639085235
31
0
0
LINE
5
130
100
AcDbEntity
8
0
100
AcDbLine
10
39.720687999957249
20
45.377759871393678
30
0
11
40.729609994420457
21
47.276332074152535
31
0
0
LINE
5
131
100
AcDbEntity
8
0
100
AcDbLine
10
37.060926534395549
20
46.791186149694241
30
0
11
39.720687999957249
21
45.377759871393678
31
0
0
ENDSEC
0
SECTION
2
OBJECTS
0
DICTIONARY
5
C
100
AcDbDictionary
3
ACAD_GROUP
350
D
3
ACAD_MLINESTYLE
350
17
0
DICTIONARY
5
D
100
AcDbDictionary
0
DICTIONARY
5
1A
330
C
100
AcDbDictionary
0
DICTIONARY
5
17
100
AcDbDictionary
0
ENDSEC
0
EOF
