0
SECTION
2
HEADER
9
$INSUNITS
70
4
9
$ACADVER
1
AC1014
9
$HANDSEED
5
FFFF
0
ENDSEC
0
SECTION
2
TABLES
0
TABLE
2
VPORT
5
8
100
AcDbSymbolTable
0
ENDTAB
0
TABLE
2
LTYPE
5
5
100
AcDbSymbolTable
0
LTYPE
5
14
100
AcDbSymbolTableRecord
100
AcDbLinetypeTableRecord
2
BYBLOCK
70
0
0
LTYPE
5
15
100
AcDbSymbolTableRecord
100
AcDbLinetypeTableRecord
2
BYLAYER
70
0
0
ENDTAB
0
TABLE
2
LAYER
5
2
100
AcDbSymbolTable
70
2
0
LAYER
5
50
100
AcDbSymbolTableRecord
100
AcDbLayerTableRecord
2
0
70
0
6
CONTINUOUS
0
ENDTAB
0
TABLE
2
STYLE
5
3
100
AcDbSymbolTable
70
1
0
STYLE
5
11
100
AcDbSymbolTableRecord
100
AcDbTextStyleTableRecord
2
STANDARD
70
0
0
ENDTAB
0
TABLE
2
VIEW
5
6
100
AcDbSymbolTable
70
0
0
ENDTAB
0
TABLE
2
UCS
5
7
100
AcDbSymbolTable
70
0
0
ENDTAB
0
TABLE
2
APPID
5
9
100
AcDbSymbolTable
70
2
0
APPID
5
12
100
AcDbSymbolTableRecord
100
AcDbRegAppTableRecord
2
ACAD
70
0
0
ENDTAB
0
TABLE
2
DIMSTYLE
5
A
100
AcDbSymbolTable
70
1
0
ENDTAB
0
TABLE
2
BLOCK_RECORD
5
1
100
AcDbSymbolTable
70
1
0
BLOCK_RECORD
5
1F
100
AcDbSymbolTableRecord
100
AcDbBlockTableRecord
2
*MODEL_SPACE
0
BLOCK_RECORD
5
1B
100
AcDbSymbolTableRecord
100
AcDbBlockTableRecord
2
*PAPER_SPACE
0
ENDTAB
0
ENDSEC
0
SECTION
2
BLOCKS
0
BLOCK
5
20
100
AcDbEntity
100
AcDbBlockBegin
2
*MODEL_SPACE
0
ENDBLK
5
21
100
AcDbEntity
100
AcDbBlockEnd
0
BLOCK
5
1C
100
AcDbEntity
100
AcDbBlockBegin
2
*PAPER_SPACE
0
ENDBLK
5
1D
100
AcDbEntity
100
AcDbBlockEnd
0
ENDSEC
0
SECTION
2
ENTITIES
0
SPLINE
5
100
100
AcDbEntity
8
0
100
AcDbSpline
70
0
71
3
72
23
73
19
74
0
42
0.000000001
43
0.0000000001
44
0.0000000001
40
-1.0070320884220445
40
-1.0070320884220445
40
-1.0070320884220445
40
-1.0070320884220445
40
-1
40
-1
40
-1
40
-0.69994280107169171
40
-0.69994280107169171
40
-0.69994280107169171
40
-0.4519603187546416
40
-0.4519603187546416
40
-0.4519603187546416
40
-0.17492580359831428
40
-0.17492580359831428
40
-0.17492580359831428
40
0
40
0
40
0
40
5.0865915933199472e-05
40
5.0865915933199472e-05
40
5.0865915933199472e-05
40
5.0865915933199472e-05
10
12.479999999999862
20
12.24149364337169
30
0
10
12.434398367465526
20
12.17515813270321
30
0
10
12.388796734931198
20
12.108822622034836
30
0
10
12.343195102396871
20
12.042487111366462
30
0
10
10.402569085564695
20
9.2195088386910484
30
0
10
8.4070470854151402
20
7.407326678733952
30
0
10
6.3302998407999
20
6.6902532111242152
30
0
10
4.6139706252231472
20
6.0976273413345083
30
0
10
2.8383407484442191
20
6.2898920662339464
30
0
10
0.88890329429020642
20
6.9883821297781878
30
0
10
-1.2889177150529596
20
7.7687027971392197
30
0
10
-3.6846625167435265
20
9.1235659467280783
30
0
10
-6.5078066268659285
20
10.057412007042466
30
0
10
-8.2904031089625363
20
10.647063345055123
30
0
10
-10.246363223059793
20
11.05799804801503
30
0
10
-12.401249832455647
20
11.165882143914772
30
0
10
-12.401874469213725
20
11.165913416266449
30
0
10
-12.402499105971811
20
11.165944688618126
30
0
10
-12.403123742727571
20
11.165975960969661
30
0
0
LINE
5
101
100
AcDbEntity
8
0
100
AcDbLine
10
-12.403123742727571
20
11.165975960969625
30
0
11
-14.480000000000004
21
11.165975960969767
31
0
0
LINE
5
102
100
AcDbEntity
8
0
100
AcDbLine
10
-14.480000000000004
20
11.165975960969767
30
0
11
-14.480000000000004
21
7.7159691602782488
31
0
0
LINE
5
103
100
AcDbEntity
8
0
100
AcDbLine
10
-14.480000000000004
20
7.7159691602782488
30
0
11
-12.480000000000002
21
7.7285358120383307
31
0
0
LINE
5
104
100
AcDbEntity
8
0
100
AcDbLine
10
-12.480000000000002
20
7.7285358120383307
30
0
11
-12.480000000000002
21
-2.0996196585675264
31
0
0
LINE
5
105
100
AcDbEntity
8
0
100
AcDbLine
10
-12.480000000000002
20
-2.0996196585675264
30
0
11
-14.480000000000004
21
-2.1112367600626669
31
0
0
LINE
5
106
100
AcDbEntity
8
0
100
AcDbLine
10
-14.480000000000004
20
-2.1112367600626669
30
0
11
-14.480000000000004
21
-4.9840240390301815
31
0
0
LINE
5
107
100
AcDbEntity
8
0
100
AcDbLine
10
-14.480000000000004
20
-4.9840240390301815
30
0
11
-12.404999999999999
21
-4.9840240390301815
31
0
0
SPLINE
5
108
100
AcDbEntity
8
0
100
AcDbSpline
70
0
71
3
72
20
73
16
74
0
42
0.000000001
43
0.0000000001
44
0.0000000001
40
0
40
0
40
0
40
0
40
0.21197455005350069
40
0.21197455005350069
40
0.21197455005350069
40
0.45765699139170579
40
0.45765699139170579
40
0.45765699139170579
40
0.69435099290079416
40
0.69435099290079416
40
0.69435099290079416
40
1
40
1
40
1
40
1.0110293342038792
40
1.0110293342038792
40
1.0110293342038792
40
1.0110293342038792
10
-12.404999999999999
20
-4.9840240390301815
30
0
10
-11.050442982959758
20
-4.9840240390301815
30
0
10
-9.2547061210204262
20
-4.5632876377270293
30
0
10
-7.2071536034073436
20
-4.0112003712764022
30
0
10
-4.8340021983523229
20
-3.3713209734001381
30
0
10
-2.1554683441548272
20
-2.604064670151871
30
0
10
0.3269556568185239
20
-2.4405798485309305
30
0
10
2.7185586831973252
20
-2.2830762174016783
30
0
10
4.9088722061075751
20
-2.7114140581396384
30
0
10
6.7563076214561146
20
-3.8996577154877343
30
0
10
9.1419481395133886
20
-5.4340670868482732
30
0
10
10.990844503539119
20
-8.1834325225618443
30
0
10
12.334204280285817
20
-12.024758151589943
30
0
10
12.382802853523875
20
-12.163725350210157
30
0
10
12.431401426761937
20
-12.302692548830372
30
0
10
12.480000000000002
20
-12.441659747450551
30
0
0
LINE
5
109
100
AcDbEntity
8
0
100
AcDbLine
10
12.480000000000004
20
-12.441659747450551
30
0
11
12.480000000000002
21
-3.2372744785048724
31
0
0
LINE
5
110
100
AcDbEntity
8
0
100
AcDbLine
10
12.480000000000002
20
-3.2372744785048724
30
0
11
14.480000000000004
21
-3.2372744785048724
31
0
0
LINE
5
111
100
AcDbEntity
8
0
100
AcDbLine
10
14.480000000000004
20
-3.2372744785048724
30
0
11
14.480000000000004
21
3.9127255214951262
31
0
0
LINE
5
112
100
AcDbEntity
8
0
100
AcDbLine
10
14.480000000000004
20
3.9127255214951262
30
0
11
12.480000000000002
21
3.9127255214951262
31
0
0
LINE
5
113
100
AcDbEntity
8
0
100
AcDbLine
10
12.480000000000002
20
3.9127255214951262
30
0
11
12.479999999999993
21
12.241493643371797
31
0
0
ENDSEC
0
SECTION
2
OBJECTS
0
DICTIONARY
5
C
100
AcDbDictionary
3
ACAD_GROUP
350
D
3
ACAD_MLINESTYLE
350
17
0
DICTIONARY
5
D
100
AcDbDictionary
0
DICTIONARY
5
1A
330
C
100
AcDbDictionary
0
DICTIONARY
5
17
100
AcDbDictionary
0
ENDSEC
0
EOF
