0
SECTION
2
HEADER
9
$INSUNITS
70
4
9
$ACADVER
1
AC1014
9
$HANDSEED
5
FFFF
0
ENDSEC
0
SECTION
2
TABLES
0
TABLE
2
VPORT
5
8
100
AcDbSymbolTable
0
ENDTAB
0
TABLE
2
LTYPE
5
5
100
AcDbSymbolTable
0
LTYPE
5
14
100
AcDbSymbolTableRecord
100
AcDbLinetypeTableRecord
2
BYBLOCK
70
0
0
LTYPE
5
15
100
AcDbSymbolTableRecord
100
AcDbLinetypeTableRecord
2
BYLAYER
70
0
0
ENDTAB
0
TABLE
2
LAYER
5
2
100
AcDbSymbolTable
70
2
0
LAYER
5
50
100
AcDbSymbolTableRecord
100
AcDbLayerTableRecord
2
0
70
0
6
CONTINUOUS
0
ENDTAB
0
TABLE
2
STYLE
5
3
100
AcDbSymbolTable
70
1
0
STYLE
5
11
100
AcDbSymbolTableRecord
100
AcDbTextStyleTableRecord
2
STANDARD
70
0
0
ENDTAB
0
TABLE
2
VIEW
5
6
100
AcDbSymbolTable
70
0
0
ENDTAB
0
TABLE
2
UCS
5
7
100
AcDbSymbolTable
70
0
0
ENDTAB
0
TABLE
2
APPID
5
9
100
AcDbSymbolTable
70
2
0
APPID
5
12
100
AcDbSymbolTableRecord
100
AcDbRegAppTableRecord
2
ACAD
70
0
0
ENDTAB
0
TABLE
2
DIMSTYLE
5
A
100
AcDbSymbolTable
70
1
0
ENDTAB
0
TABLE
2
BLOCK_RECORD
5
1
100
AcDbSymbolTable
70
1
0
BLOCK_RECORD
5
1F
100
AcDbSymbolTableRecord
100
AcDbBlockTableRecord
2
*MODEL_SPACE
0
BLOCK_RECORD
5
1B
100
AcDbSymbolTableRecord
100
AcDbBlockTableRecord
2
*PAPER_SPACE
0
ENDTAB
0
ENDSEC
0
SECTION
2
BLOCKS
0
BLOCK
5
20
100
AcDbEntity
100
AcDbBlockBegin
2
*MODEL_SPACE
0
ENDBLK
5
21
100
AcDbEntity
100
AcDbBlockEnd
0
BLOCK
5
1C
100
AcDbEntity
100
AcDbBlockBegin
2
*PAPER_SPACE
0
ENDBLK
5
1D
100
AcDbEntity
100
AcDbBlockEnd
0
ENDSEC
0
SECTION
2
ENTITIES
0
SPLINE
5
100
100
AcDbEntity
8
0
100
AcDbSpline
70
0
71
3
72
23
73
19
74
0
42
0.000000001
43
0.0000000001
44
0.0000000001
40
-1.0070320884220445
40
-1.0070320884220445
40
-1.0070320884220445
40
-1.0070320884220445
40
-1
40
-1
40
-1
40
-0.69994280107169171
40
-0.69994280107169171
40
-0.69994280107169171
40
-0.4519603187546416
40
-0.4519603187546416
40
-0.4519603187546416
40
-0.17492580359831428
40
-0.17492580359831428
40
-0.17492580359831428
40
0
40
0
40
0
40
5.0865915933199472e-05
40
5.0865915933199472e-05
40
5.0865915933199472e-05
40
5.0865915933199472e-05
10
12.874999999999865
20
12.24149364337169
30
0
10
12.829398367465529
20
12.17515813270321
30
0
10
12.783796734931201
20
12.108822622034836
30
0
10
12.738195102396874
20
12.042487111366462
30
0
10
10.797569085564698
20
9.2195088386910484
30
0
10
8.8020470854151434
20
7.407326678733952
30
0
10
6.7252998407999032
20
6.6902532111242152
30
0
10
5.0089706252231503
20
6.0976273413345083
30
0
10
3.2333407484442223
20
6.2898920662339464
30
0
10
1.2839032942902096
20
6.9883821297781878
30
0
10
-0.89391771505295647
20
7.7687027971392197
30
0
10
-3.2896625167435234
20
9.1235659467280783
30
0
10
-6.1128066268659254
20
10.057412007042466
30
0
10
-7.8954031089625332
20
10.647063345055123
30
0
10
-9.8513632230597903
20
11.05799804801503
30
0
10
-12.006249832455644
20
11.165882143914772
30
0
10
-12.006874469213722
20
11.165913416266449
30
0
10
-12.007499105971808
20
11.165944688618126
30
0
10
-12.008123742727568
20
11.165975960969661
30
0
0
LINE
5
101
100
AcDbEntity
8
0
100
AcDbLine
10
-12.008123742727568
20
11.165975960969625
30
0
11
-12.875000000000005
21
11.165975960969767
31
0
0
LINE
5
102
100
AcDbEntity
8
0
100
AcDbLine
10
-12.875000000000005
20
11.165975960969767
30
0
11
-12.875000000000005
21
7.165975960969817
31
0
0
LINE
5
103
100
AcDbEntity
8
0
100
AcDbLine
10
-12.875000000000005
20
7.165975960969817
30
0
11
-14.875000000000007
21
7.165975960969817
31
0
0
LINE
5
104
100
AcDbEntity
8
0
100
AcDbLine
10
-14.875000000000007
20
7.165975960969817
30
0
11
-14.875000000000007
21
-0.98402403903019575
31
0
0
LINE
5
105
100
AcDbEntity
8
0
100
AcDbLine
10
-14.875000000000007
20
-0.98402403903019575
30
0
11
-12.875000000000005
21
-0.98402403903019575
31
0
0
LINE
5
106
100
AcDbEntity
8
0
100
AcDbLine
10
-12.875000000000005
20
-0.98402403903019575
30
0
11
-12.875000000000005
21
-4.9840240390301815
31
0
0
LINE
5
107
100
AcDbEntity
8
0
100
AcDbLine
10
-12.875000000000005
20
-4.9840240390301815
30
0
11
-12.009999999999996
21
-4.9840240390301815
31
0
0
SPLINE
5
108
100
AcDbEntity
8
0
100
AcDbSpline
70
0
71
3
72
20
73
16
74
0
42
0.000000001
43
0.0000000001
44
0.0000000001
40
0
40
0
40
0
40
0
40
0.21197455005350069
40
0.21197455005350069
40
0.21197455005350069
40
0.45765699139170579
40
0.45765699139170579
40
0.45765699139170579
40
0.69435099290079416
40
0.69435099290079416
40
0.69435099290079416
40
1
40
1
40
1
40
1.0110293342038792
40
1.0110293342038792
40
1.0110293342038792
40
1.0110293342038792
10
-12.009999999999996
20
-4.9840240390301815
30
0
10
-10.655442982959755
20
-4.9840240390301815
30
0
10
-8.8597061210204231
20
-4.5632876377270293
30
0
10
-6.8121536034073404
20
-4.0112003712764022
30
0
10
-4.4390021983523198
20
-3.3713209734001381
30
0
10
-1.7604683441548241
20
-2.604064670151871
30
0
10
0.72195565681852703
20
-2.4405798485309305
30
0
10
3.1135586831973283
20
-2.2830762174016783
30
0
10
5.3038722061075783
20
-2.7114140581396384
30
0
10
7.1513076214561178
20
-3.8996577154877343
30
0
10
9.5369481395133917
20
-5.4340670868482732
30
0
10
11.385844503539122
20
-8.1834325225618443
30
0
10
12.729204280285821
20
-12.024758151589943
30
0
10
12.777802853523879
20
-12.163725350210157
30
0
10
12.82640142676194
20
-12.302692548830372
30
0
10
12.875000000000005
20
-12.441659747450551
30
0
0
LINE
5
109
100
AcDbEntity
8
0
100
AcDbLine
10
12.875000000000007
20
-12.441659747450551
30
0
11
12.875000000000005
21
-3.2372744785048724
31
0
0
LINE
5
110
100
AcDbEntity
8
0
100
AcDbLine
10
12.875000000000005
20
-3.2372744785048724
30
0
11
14.875000000000007
21
-3.2372744785048724
31
0
0
LINE
5
111
100
AcDbEntity
8
0
100
AcDbLine
10
14.875000000000007
20
-3.2372744785048724
30
0
11
14.875000000000007
21
3.9127255214951262
31
0
0
LINE
5
112
100
AcDbEntity
8
0
100
AcDbLine
10
14.875000000000007
20
3.9127255214951262
30
0
11
12.875000000000005
21
3.9127255214951262
31
0
0
LINE
5
113
100
AcDbEntity
8
0
100
AcDbLine
10
12.875000000000005
20
3.9127255214951262
30
0
11
12.874999999999996
21
12.241493643371797
31
0
0
ENDSEC
0
SECTION
2
OBJECTS
0
DICTIONARY
5
C
100
AcDbDictionary
3
ACAD_GROUP
350
D
3
ACAD_MLINESTYLE
350
17
0
DICTIONARY
5
D
100
AcDbDictionary
0
DICTIONARY
5
1A
330
C
100
AcDbDictionary
0
DICTIONARY
5
17
100
AcDbDictionary
0
ENDSEC
0
EOF
