0
SECTION
2
HEADER
9
$INSUNITS
70
4
9
$ACADVER
1
AC1014
9
$HANDSEED
5
FFFF
0
ENDSEC
0
SECTION
2
TABLES
0
TABLE
2
VPORT
5
8
100
AcDbSymbolTable
0
ENDTAB
0
TABLE
2
LTYPE
5
5
100
AcDbSymbolTable
0
LTYPE
5
14
100
AcDbSymbolTableRecord
100
AcDbLinetypeTableRecord
2
BYBLOCK
70
0
0
LTYPE
5
15
100
AcDbSymbolTableRecord
100
AcDbLinetypeTableRecord
2
BYLAYER
70
0
0
ENDTAB
0
TABLE
2
LAYER
5
2
100
AcDbSymbolTable
70
2
0
LAYER
5
50
100
AcDbSymbolTableRecord
100
AcDbLayerTableRecord
2
0
70
0
6
CONTINUOUS
0
ENDTAB
0
TABLE
2
STYLE
5
3
100
AcDbSymbolTable
70
1
0
STYLE
5
11
100
AcDbSymbolTableRecord
100
AcDbTextStyleTableRecord
2
STANDARD
70
0
0
ENDTAB
0
TABLE
2
VIEW
5
6
100
AcDbSymbolTable
70
0
0
ENDTAB
0
TABLE
2
UCS
5
7
100
AcDbSymbolTable
70
0
0
ENDTAB
0
TABLE
2
APPID
5
9
100
AcDbSymbolTable
70
2
0
APPID
5
12
100
AcDbSymbolTableRecord
100
AcDbRegAppTableRecord
2
ACAD
70
0
0
ENDTAB
0
TABLE
2
DIMSTYLE
5
A
100
AcDbSymbolTable
70
1
0
ENDTAB
0
TABLE
2
BLOCK_RECORD
5
1
100
AcDbSymbolTable
70
1
0
BLOCK_RECORD
5
1F
100
AcDbSymbolTableRecord
100
AcDbBlockTableRecord
2
*MODEL_SPACE
0
BLOCK_RECORD
5
1B
100
AcDbSymbolTableRecord
100
AcDbBlockTableRecord
2
*PAPER_SPACE
0
ENDTAB
0
ENDSEC
0
SECTION
2
BLOCKS
0
BLOCK
5
20
100
AcDbEntity
100
AcDbBlockBegin
2
*MODEL_SPACE
0
ENDBLK
5
21
100
AcDbEntity
100
AcDbBlockEnd
0
BLOCK
5
1C
100
AcDbEntity
100
AcDbBlockBegin
2
*PAPER_SPACE
0
ENDBLK
5
1D
100
AcDbEntity
100
AcDbBlockEnd
0
ENDSEC
0
SECTION
2
ENTITIES
0
SPLINE
5
100
100
AcDbEntity
8
0
100
AcDbSpline
70
0
71
3
72
23
73
19
74
0
42
0.000000001
43
0.0000000001
44
0.0000000001
40
-5.7700314966755578e-05
40
-5.7700314966755578e-05
40
-5.7700314966755578e-05
40
-5.7700314966755578e-05
40
0
40
0
40
0
40
0.1994542072126809
40
0.1994542072126809
40
0.1994542072126809
40
0.43428155411037883
40
0.43428155411037883
40
0.43428155411037883
40
0.63997955523817462
40
0.63997955523817462
40
0.63997955523817462
40
1
40
1
40
1
40
1.0074924494189932
40
1.0074924494189932
40
1.0074924494189932
40
1.0074924494189932
10
-17.912536788353705
20
-4.9840240390299684
30
0
10
-17.911717487196004
20
-4.9839701645942469
30
0
10
-17.910898186036547
20
-4.9839162901583833
30
0
10
-17.91007888487708
20
-4.9838624157225198
30
0
10
-15.067672090858597
20
-4.7969554880518217
30
0
10
-12.133333222320939
20
-3.9588197790870439
30
0
10
-9.197676893968012
20
-2.8449927386945006
30
0
10
-5.7413828572347203
20
-1.5336288298881229
30
0
10
-2.2948704448539115
20
0.10304508332676932
30
0
10
0.87480843012320175
20
0.96433803728604772
30
0
10
3.6513019578716222
20
1.7187912189764276
30
0
10
6.2011774761026484
20
1.839063683627451
30
0
10
8.4575013427440702
20
0.98360684917594199
30
0
10
12.406604968161833
20
-0.51364615437869077
30
0
10
15.505085435172369
20
-4.9401886848654897
30
0
10
17.843781438462774
20
-12.023514176416974
30
0
10
17.89252095897519
20
-12.171133998576806
30
0
10
17.94126047948761
20
-12.318753820736639
30
0
10
17.99000000000003
20
-12.466373642896507
30
0
0
LINE
5
101
100
AcDbEntity
8
0
100
AcDbLine
10
17.990000000000034
20
-12.466373642896471
30
0
11
17.990000000000002
21
-1.2554792795715031
31
0
0
LINE
5
102
100
AcDbEntity
8
0
100
AcDbLine
10
17.990000000000002
20
-1.2554792795715031
30
0
11
19.990000000000006
21
-1.2554792795715031
31
0
0
LINE
5
103
100
AcDbEntity
8
0
100
AcDbLine
10
19.990000000000006
20
-1.2554792795715031
30
0
11
19.990000000000006
21
5.8945207204284955
31
0
0
LINE
5
104
100
AcDbEntity
8
0
100
AcDbLine
10
19.990000000000006
20
5.8945207204284955
30
0
11
17.990000000000002
21
5.8945207204284955
31
0
0
LINE
5
105
100
AcDbEntity
8
0
100
AcDbLine
10
17.990000000000002
20
5.8945207204284955
30
0
11
17.99000000000003
21
12.104649970747516
31
0
0
SPLINE
5
106
100
AcDbEntity
8
0
100
AcDbSpline
70
0
71
3
72
20
73
16
74
0
42
0.000000001
43
0.0000000001
44
0.0000000001
40
-1.0023596072476411
40
-1.0023596072476411
40
-1.0023596072476411
40
-1.0023596072476411
40
-1
40
-1
40
-1
40
-0.64864999329177409
40
-0.64864999329177409
40
-0.64864999329177409
40
-0.38482223031487406
40
-0.38482223031487406
40
-0.38482223031487406
40
-0.10400040775454178
40
-0.10400040775454178
40
-0.10400040775454178
40
0
40
0
40
0
40
0
10
17.990000000000364
20
12.104649970747552
30
0
10
17.956966671219277
20
12.093440802455042
30
0
10
17.923933342438186
20
12.082231634162568
30
0
10
17.890900013657092
20
12.071022465870094
30
0
10
12.977603856266926
20
10.403798315861827
30
0
10
8.0710556355222671
20
9.3655957749343344
30
0
10
3.2669768281084322
20
9.0473543601526885
30
0
10
-0.34039286230191035
20
8.8083877486672435
30
0
10
-3.8945148124588069
20
9.0040263992680991
30
0
10
-7.1413765916780836
20
9.4534561906563752
30
0
10
-10.597379978712347
20
9.9318353108311186
30
0
10
-13.675185874837537
20
10.654656587694475
30
0
10
-15.859940474779943
20
10.979129584924046
30
0
10
-16.669049137226601
20
11.099295901450112
30
0
10
-17.356918858416837
20
11.165975960969767
30
0
10
-17.914999999999999
20
11.165975960969767
30
0
0
LINE
5
107
100
AcDbEntity
8
0
100
AcDbLine
10
-17.914999999999999
20
11.165975960969732
30
0
11
-19.990000000000006
21
11.165975960969767
31
0
0
LINE
5
108
100
AcDbEntity
8
0
100
AcDbLine
10
-19.990000000000006
20
11.165975960969767
30
0
11
-19.990000000000006
21
8.01597596096979
31
0
0
LINE
5
109
100
AcDbEntity
8
0
100
AcDbLine
10
-19.990000000000006
20
8.01597596096979
30
0
11
-17.990000000000002
21
8.01597596096979
31
0
0
LINE
5
110
100
AcDbEntity
8
0
100
AcDbLine
10
-17.990000000000002
20
8.01597596096979
30
0
11
-17.990000000000013
21
-1.8340240390302043
31
0
0
LINE
5
111
100
AcDbEntity
8
0
100
AcDbLine
10
-17.990000000000013
20
-1.8340240390302043
30
0
11
-19.990000000000006
21
-1.8340240390302043
31
0
0
LINE
5
112
100
AcDbEntity
8
0
100
AcDbLine
10
-19.990000000000006
20
-1.8340240390302043
30
0
11
-19.990000000000006
21
-4.9840240390301815
31
0
0
LINE
5
113
100
AcDbEntity
8
0
100
AcDbLine
10
-19.990000000000006
20
-4.9840240390301815
30
0
11
-17.912536788355141
21
-4.984024039030146
31
0
0
ENDSEC
0
SECTION
2
OBJECTS
0
DICTIONARY
5
C
100
AcDbDictionary
3
ACAD_GROUP
350
D
3
ACAD_MLINESTYLE
350
17
0
DICTIONARY
5
D
100
AcDbDictionary
0
DICTIONARY
5
1A
330
C
100
AcDbDictionary
0
DICTIONARY
5
17
100
AcDbDictionary
0
ENDSEC
0
EOF
