0
SECTION
2
HEADER
9
$INSUNITS
70
4
9
$ACADVER
1
AC1014
9
$HANDSEED
5
FFFF
0
ENDSEC
0
SECTION
2
TABLES
0
TABLE
2
VPORT
5
8
100
AcDbSymbolTable
0
ENDTAB
0
TABLE
2
LTYPE
5
5
100
AcDbSymbolTable
0
LTYPE
5
14
100
AcDbSymbolTableRecord
100
AcDbLinetypeTableRecord
2
BYBLOCK
70
0
0
LTYPE
5
15
100
AcDbSymbolTableRecord
100
AcDbLinetypeTableRecord
2
BYLAYER
70
0
0
ENDTAB
0
TABLE
2
LAYER
5
2
100
AcDbSymbolTable
70
2
0
LAYER
5
50
100
AcDbSymbolTableRecord
100
AcDbLayerTableRecord
2
0
70
0
6
CONTINUOUS
0
ENDTAB
0
TABLE
2
STYLE
5
3
100
AcDbSymbolTable
70
1
0
STYLE
5
11
100
AcDbSymbolTableRecord
100
AcDbTextStyleTableRecord
2
STANDARD
70
0
0
ENDTAB
0
TABLE
2
VIEW
5
6
100
AcDbSymbolTable
70
0
0
ENDTAB
0
TABLE
2
UCS
5
7
100
AcDbSymbolTable
70
0
0
ENDTAB
0
TABLE
2
APPID
5
9
100
AcDbSymbolTable
70
2
0
APPID
5
12
100
AcDbSymbolTableRecord
100
AcDbRegAppTableRecord
2
ACAD
70
0
0
ENDTAB
0
TABLE
2
DIMSTYLE
5
A
100
AcDbSymbolTable
70
1
0
ENDTAB
0
TABLE
2
BLOCK_RECORD
5
1
100
AcDbSymbolTable
70
1
0
BLOCK_RECORD
5
1F
100
AcDbSymbolTableRecord
100
AcDbBlockTableRecord
2
*MODEL_SPACE
0
BLOCK_RECORD
5
1B
100
AcDbSymbolTableRecord
100
AcDbBlockTableRecord
2
*PAPER_SPACE
0
ENDTAB
0
ENDSEC
0
SECTION
2
BLOCKS
0
BLOCK
5
20
100
AcDbEntity
100
AcDbBlockBegin
2
*MODEL_SPACE
0
ENDBLK
5
21
100
AcDbEntity
100
AcDbBlockEnd
0
BLOCK
5
1C
100
AcDbEntity
100
AcDbBlockBegin
2
*PAPER_SPACE
0
ENDBLK
5
1D
100
AcDbEntity
100
AcDbBlockEnd
0
ENDSEC
0
SECTION
2
ENTITIES
0
LINE
5
100
100
AcDbEntity
8
0
100
AcDbLine
10
12.075000000000003
20
-2.3542629622411226
30
0
11
12.075000000000003
21
4.7957370377588759
31
0
0
LINE
5
101
100
AcDbEntity
8
0
100
AcDbLine
10
12.075000000000003
20
4.7957370377588759
30
0
11
10.075000000000003
21
4.7957370377588759
31
0
0
LINE
5
102
100
AcDbEntity
8
0
100
AcDbLine
10
10.075000000000003
20
4.7957370377588759
30
0
11
10.075000000000003
21
12.151140512842176
31
0
0
SPLINE
5
103
100
AcDbEntity
8
0
100
AcDbSpline
70
0
71
3
72
17
73
13
74
0
42
0.000000001
43
0.0000000001
44
0.0000000001
40
-0.0066690225130984909
40
-0.0066690225130984909
40
-0.0066690225130984909
40
-0.0066690225130984909
40
0
40
0
40
0
40
0.50775023581677325
40
0.50775023581677325
40
0.50775023581677325
40
1
40
1
40
1
40
1.005572658814623
40
1.005572658814623
40
1.005572658814623
40
1.005572658814623
10
-10.075000000000056
20
11.249054660483679
30
0
10
-10.034187010719684
20
11.215725370072107
30
0
10
-9.9933740214393154
20
11.18239607966057
30
0
10
-9.9525610321589486
20
11.149066789249034
30
0
10
-6.8550911180237106
20
8.6195663500614472
30
0
10
-3.6466892989192345
20
7.2668437770335004
30
0
10
-0.27672166956299815
20
7.4911418798683371
30
0
10
2.9903684346636261
20
7.7085926665717253
30
0
10
6.4177093852874334
20
9.373465120787472
30
0
10
9.9546380682125868
20
12.059726837724085
30
0
10
9.9947587121417136
20
12.090198062763484
30
0
10
10.03487935607084
20
12.120669287802883
30
0
10
10.074999999999966
20
12.151140512842247
30
0
0
LINE
5
104
100
AcDbEntity
8
0
100
AcDbLine
10
-10.075000000000056
20
11.249054660483679
30
0
11
-10.075000000000003
21
7.1659759609697815
31
0
0
LINE
5
105
100
AcDbEntity
8
0
100
AcDbLine
10
-10.075000000000003
20
7.1659759609697815
30
0
11
-12.075000000000005
21
7.1659759609697815
31
0
0
LINE
5
106
100
AcDbEntity
8
0
100
AcDbLine
10
-12.075000000000005
20
7.1659759609697815
30
0
11
-12.075000000000005
21
-0.98402403903023128
31
0
0
LINE
5
107
100
AcDbEntity
8
0
100
AcDbLine
10
-12.075000000000005
20
-0.98402403903023128
30
0
11
-10.075000000000003
21
-0.98402403903023128
31
0
0
LINE
5
108
100
AcDbEntity
8
0
100
AcDbLine
10
-10.075000000000003
20
-0.98402403903023128
30
0
11
-10.075000000000003
21
-5.0821767893562253
31
0
0
SPLINE
5
109
100
AcDbEntity
8
0
100
AcDbSpline
70
0
71
3
72
20
73
16
74
0
42
0.000000001
43
0.0000000001
44
0.0000000001
40
-0.0061090346312396675
40
-0.0061090346312396675
40
-0.0061090346312396675
40
-0.0061090346312396675
40
0
40
0
40
0
40
0.5
40
0.5
40
0.5
40
0.96838478841598163
40
0.96838478841598163
40
0.96838478841598163
40
1
40
1
40
1
40
1.0071821047567526
40
1.0071821047567526
40
1.0071821047567526
40
1.0071821047567526
10
-10.074999999999896
20
-5.0821767893561542
30
0
10
-10.032898755519213
20
-5.0426950891449707
30
0
10
-9.9907975110385383
20
-5.0032133889339292
30
0
10
-9.9486962665578602
20
-4.9637316887228877
30
0
10
-6.513975016104423
20
-1.7427191891703941
30
0
10
-3.1556639509517259
20
-0.50410958301817743
30
0
10
0.14509791358061186
20
-1.7746516456318773
30
0
10
3.2371512086415866
20
-2.9648567959737449
30
0
10
6.2987290847395316
20
-6.2847713654947768
30
0
10
9.3238214226527294
20
-11.05270992143712
30
0
10
9.5280102364008368
20
-11.374538020883946
30
0
10
9.7320360409825781
20
-11.703285460369273
30
0
10
9.9358972696405612
20
-12.038933789443966
30
0
10
9.9822648464270358
20
-12.115275915772123
30
0
10
10.028632423213512
20
-12.191618042100281
30
0
10
10.074999999999987
20
-12.267960168428438
30
0
0
LINE
5
110
100
AcDbEntity
8
0
100
AcDbLine
10
10.074999999999985
20
-12.267960168428438
30
0
11
10.075000000000003
21
-2.3542629622411226
31
0
0
LINE
5
111
100
AcDbEntity
8
0
100
AcDbLine
10
10.075000000000003
20
-2.3542629622411226
30
0
11
12.075000000000003
21
-2.3542629622411226
31
0
0
ENDSEC
0
SECTION
2
OBJECTS
0
DICTIONARY
5
C
100
AcDbDictionary
3
ACAD_GROUP
350
D
3
ACAD_MLINESTYLE
350
17
0
DICTIONARY
5
D
100
AcDbDictionary
0
DICTIONARY
5
1A
330
C
100
AcDbDictionary
0
DICTIONARY
5
17
100
AcDbDictionary
0
ENDSEC
0
EOF
