0
SECTION
2
HEADER
9
$INSUNITS
70
4
9
$ACADVER
1
AC1014
9
$HANDSEED
5
FFFF
0
ENDSEC
0
SECTION
2
TABLES
0
TABLE
2
VPORT
5
8
100
AcDbSymbolTable
0
ENDTAB
0
TABLE
2
LTYPE
5
5
100
AcDbSymbolTable
0
LTYPE
5
14
100
AcDbSymbolTableRecord
100
AcDbLinetypeTableRecord
2
BYBLOCK
70
0
0
LTYPE
5
15
100
AcDbSymbolTableRecord
100
AcDbLinetypeTableRecord
2
BYLAYER
70
0
0
ENDTAB
0
TABLE
2
LAYER
5
2
100
AcDbSymbolTable
70
2
0
LAYER
5
50
100
AcDbSymbolTableRecord
100
AcDbLayerTableRecord
2
0
70
0
6
CONTINUOUS
0
ENDTAB
0
TABLE
2
STYLE
5
3
100
AcDbSymbolTable
70
1
0
STYLE
5
11
100
AcDbSymbolTableRecord
100
AcDbTextStyleTableRecord
2
STANDARD
70
0
0
ENDTAB
0
TABLE
2
VIEW
5
6
100
AcDbSymbolTable
70
0
0
ENDTAB
0
TABLE
2
UCS
5
7
100
AcDbSymbolTable
70
0
0
ENDTAB
0
TABLE
2
APPID
5
9
100
AcDbSymbolTable
70
2
0
APPID
5
12
100
AcDbSymbolTableRecord
100
AcDbRegAppTableRecord
2
ACAD
70
0
0
ENDTAB
0
TABLE
2
DIMSTYLE
5
A
100
AcDbSymbolTable
70
1
0
ENDTAB
0
TABLE
2
BLOCK_RECORD
5
1
100
AcDbSymbolTable
70
1
0
BLOCK_RECORD
5
1F
100
AcDbSymbolTableRecord
100
AcDbBlockTableRecord
2
*MODEL_SPACE
0
BLOCK_RECORD
5
1B
100
AcDbSymbolTableRecord
100
AcDbBlockTableRecord
2
*PAPER_SPACE
0
ENDTAB
0
ENDSEC
0
SECTION
2
BLOCKS
0
BLOCK
5
20
100
AcDbEntity
100
AcDbBlockBegin
2
*MODEL_SPACE
0
ENDBLK
5
21
100
AcDbEntity
100
AcDbBlockEnd
0
BLOCK
5
1C
100
AcDbEntity
100
AcDbBlockBegin
2
*PAPER_SPACE
0
ENDBLK
5
1D
100
AcDbEntity
100
AcDbBlockEnd
0
ENDSEC
0
SECTION
2
ENTITIES
0
LINE
5
100
100
AcDbEntity
8
0
100
AcDbLine
10
-26.695000000000011
20
-4.9325890709884135
30
0
11
-25.815753308024327
21
-4.932589070988449
31
0
0
SPLINE
5
101
100
AcDbEntity
8
0
100
AcDbSpline
70
0
71
3
72
29
73
25
74
0
42
0.000000001
43
0.0000000001
44
0.0000000001
40
-0.00011052857281448702
40
-0.00011052857281448702
40
-0.00011052857281448702
40
-0.00011052857281448702
40
0
40
0
40
0
40
0.14880403746022583
40
0.14880403746022583
40
0.14880403746022583
40
0.33226355285542364
40
0.33226355285542364
40
0.33226355285542364
40
0.47652713606264818
40
0.47652713606264818
40
0.47652713606264818
40
0.73826356803132409
40
0.73826356803132409
40
0.73826356803132409
40
0.95758305630827145
40
0.95758305630827145
40
0.95758305630827145
40
1
40
1
40
1
40
1.0013070488279143
40
1.0013070488279143
40
1.0013070488279143
40
1.0013070488279143
10
-25.815753308022309
20
-4.9325890709880937
30
0
10
-25.814346791943443
20
-4.9324292775910905
30
0
10
-25.812940275862655
20
-4.9322694841937675
30
0
10
-25.811533759781806
20
-4.932109690796409
30
0
10
-23.920104405965468
20
-4.7172256049457317
30
0
10
-21.255084989698769
20
-4.4883161074886502
30
0
10
-18.150851301305657
20
-4.3471053024368445
30
0
10
-14.323662080729092
20
-4.1730074331481859
30
0
10
-9.8995723774383926
20
-4.161982646085356
30
0
10
-5.9060175903088385
20
-4.5649030423292558
30
0
10
-2.7656815762044751
20
-4.881739920395809
30
0
10
0.089190363206972378
20
-5.4596413945271749
30
0
10
2.573486394246487
20
-6.2144726055569066
30
0
10
7.0807276859327972
20
-7.5839577072109421
30
0
10
10.446292297453104
20
-9.467826231407841
30
0
10
14.155658669877695
20
-10.655983403418787
30
0
10
17.263886013365131
20
-11.651588107731428
30
0
10
20.623130866130293
20
-12.170583973973237
30
0
10
24.39452967568095
20
-12.116330380787836
30
0
10
25.123927743315313
20
-12.105837598658447
30
0
10
25.867452374377923
20
-12.074834738845333
30
0
10
26.625080705969417
20
-12.023392743582022
30
0
10
26.648387137312977
20
-12.021810266685691
30
0
10
26.671693568656536
20
-12.020227789789324
30
0
10
26.695000000000171
20
-12.018645312892922
30
0
0
LINE
5
102
100
AcDbEntity
8
0
100
AcDbLine
10
26.695000000000174
20
-12.018645312892957
30
0
11
26.695000000000014
21
-5.6308946541617999
31
0
0
LINE
5
103
100
AcDbEntity
8
0
100
AcDbLine
10
26.695000000000014
20
-5.6308946541617999
30
0
11
28.695000000000018
21
-5.6308946541617999
31
0
0
LINE
5
104
100
AcDbEntity
8
0
100
AcDbLine
10
28.695000000000018
20
-5.6308946541617999
30
0
11
28.695000000000018
21
1.5191053458381987
31
0
0
LINE
5
105
100
AcDbEntity
8
0
100
AcDbLine
10
28.695000000000018
20
1.5191053458381987
30
0
11
26.695000000000014
21
1.5191053458381987
31
0
0
LINE
5
106
100
AcDbEntity
8
0
100
AcDbLine
10
26.695000000000014
20
1.5191053458381987
30
0
11
26.695000000000046
21
12.163859660768068
31
0
0
SPLINE
5
107
100
AcDbEntity
8
0
100
AcDbSpline
70
0
71
3
72
20
73
16
74
0
42
0.000000001
43
0.0000000001
44
0.0000000001
40
-1.0018176859137169
40
-1.0018176859137169
40
-1.0018176859137169
40
-1.0018176859137169
40
-1
40
-1
40
-1
40
-0.68961683556692732
40
-0.68961683556692732
40
-0.68961683556692732
40
-0.45143852203151302
40
-0.45143852203151302
40
-0.45143852203151302
40
-0.17363414345144079
40
-0.17363414345144079
40
-0.17363414345144079
40
0
40
0
40
0
40
0
10
26.695
20
12.163859660768139
30
0
10
26.660398883197271
20
12.149467626016346
30
0
10
26.625797766394555
20
12.135075591264695
30
0
10
26.591196649591836
20
12.120683556513043
30
0
10
20.68794657606556
20
9.6652778339071332
30
0
10
15.086820099872188
20
8.097051502167929
30
0
10
9.7933787359886004
20
7.5110462412193257
30
0
10
5.7313577202828458
20
7.0613641683190309
30
0
10
1.8626802889308358
20
7.2200521067646761
30
0
10
-1.9640718246374878
20
7.7945127394799485
30
0
10
-6.4274861343192047
20
8.4645472053443527
30
0
10
-10.855541665478938
20
9.6628021093583882
30
0
10
-15.812748171870545
20
10.43380469491062
30
0
10
-18.91111656350165
20
10.915699092059654
30
0
10
-22.223358675970324
20
11.217410929011535
30
0
10
-25.82
20
11.217410929011535
30
0
0
LINE
5
108
100
AcDbEntity
8
0
100
AcDbLine
10
-25.82
20
11.217410929011535
30
0
11
-26.695000000000011
21
11.217410929011535
31
0
0
LINE
5
109
100
AcDbEntity
8
0
100
AcDbLine
10
-26.695000000000011
20
11.217410929011535
30
0
11
-26.695000000000011
21
7.2174109290115851
31
0
0
LINE
5
110
100
AcDbEntity
8
0
100
AcDbLine
10
-26.695000000000011
20
7.2174109290115851
30
0
11
-28.695000000000014
21
7.2174109290115851
31
0
0
LINE
5
111
100
AcDbEntity
8
0
100
AcDbLine
10
-28.695000000000014
20
7.2174109290115851
30
0
11
-28.695000000000014
21
-0.93258907098842769
31
0
0
LINE
5
112
100
AcDbEntity
8
0
100
AcDbLine
10
-28.695000000000014
20
-0.93258907098842769
30
0
11
-26.695000000000011
21
-0.93258907098842769
31
0
0
LINE
5
113
100
AcDbEntity
8
0
100
AcDbLine
10
-26.695000000000011
20
-0.93258907098842769
30
0
11
-26.695000000000011
21
-4.9325890709884135
31
0
0
ENDSEC
0
SECTION
2
OBJECTS
0
DICTIONARY
5
C
100
AcDbDictionary
3
ACAD_GROUP
350
D
3
ACAD_MLINESTYLE
350
17
0
DICTIONARY
5
D
100
AcDbDictionary
0
DICTIONARY
5
1A
330
C
100
AcDbDictionary
0
DICTIONARY
5
17
100
AcDbDictionary
0
ENDSEC
0
EOF
