0
SECTION
2
HEADER
9
$INSUNITS
70
4
9
$ACADVER
1
AC1014
9
$HANDSEED
5
FFFF
0
ENDSEC
0
SECTION
2
TABLES
0
TABLE
2
VPORT
5
8
100
AcDbSymbolTable
0
ENDTAB
0
TABLE
2
LTYPE
5
5
100
AcDbSymbolTable
0
LTYPE
5
14
100
AcDbSymbolTableRecord
100
AcDbLinetypeTableRecord
2
BYBLOCK
70
0
0
LTYPE
5
15
100
AcDbSymbolTableRecord
100
AcDbLinetypeTableRecord
2
BYLAYER
70
0
0
ENDTAB
0
TABLE
2
LAYER
5
2
100
AcDbSymbolTable
70
2
0
LAYER
5
50
100
AcDbSymbolTableRecord
100
AcDbLayerTableRecord
2
0
70
0
6
CONTINUOUS
0
ENDTAB
0
TABLE
2
STYLE
5
3
100
AcDbSymbolTable
70
1
0
STYLE
5
11
100
AcDbSymbolTableRecord
100
AcDbTextStyleTableRecord
2
STANDARD
70
0
0
ENDTAB
0
TABLE
2
VIEW
5
6
100
AcDbSymbolTable
70
0
0
ENDTAB
0
TABLE
2
UCS
5
7
100
AcDbSymbolTable
70
0
0
ENDTAB
0
TABLE
2
APPID
5
9
100
AcDbSymbolTable
70
2
0
APPID
5
12
100
AcDbSymbolTableRecord
100
AcDbRegAppTableRecord
2
ACAD
70
0
0
ENDTAB
0
TABLE
2
DIMSTYLE
5
A
100
AcDbSymbolTable
70
1
0
ENDTAB
0
TABLE
2
BLOCK_RECORD
5
1
100
AcDbSymbolTable
70
1
0
BLOCK_RECORD
5
1F
100
AcDbSymbolTableRecord
100
AcDbBlockTableRecord
2
*MODEL_SPACE
0
BLOCK_RECORD
5
1B
100
AcDbSymbolTableRecord
100
AcDbBlockTableRecord
2
*PAPER_SPACE
0
ENDTAB
0
ENDSEC
0
SECTION
2
BLOCKS
0
BLOCK
5
20
100
AcDbEntity
100
AcDbBlockBegin
2
*MODEL_SPACE
0
ENDBLK
5
21
100
AcDbEntity
100
AcDbBlockEnd
0
BLOCK
5
1C
100
AcDbEntity
100
AcDbBlockBegin
2
*PAPER_SPACE
0
ENDBLK
5
1D
100
AcDbEntity
100
AcDbBlockEnd
0
ENDSEC
0
SECTION
2
ENTITIES
0
LINE
5
100
100
AcDbEntity
8
0
100
AcDbLine
10
-18.389999999999993
20
-4.9840240390301815
30
0
11
-17.512536788354424
21
-4.9840240390301105
31
0
0
SPLINE
5
101
100
AcDbEntity
8
0
100
AcDbSpline
70
0
71
3
72
23
73
19
74
0
42
0.000000001
43
0.0000000001
44
0.0000000001
40
-5.7700314956234507e-05
40
-5.7700314956234507e-05
40
-5.7700314956234507e-05
40
-5.7700314956234507e-05
40
0
40
0
40
0
40
0.19945420721297616
40
0.19945420721297616
40
0.19945420721297616
40
0.43428155411063418
40
0.43428155411063418
40
0.43428155411063418
40
0.63997955523870942
40
0.63997955523870942
40
0.63997955523870942
40
1
40
1
40
1
40
1.0074924494189921
40
1.0074924494189921
40
1.0074924494189921
40
1.0074924494189921
10
-17.512536788354982
20
-4.9840240390300394
30
0
10
-17.511717487195444
20
-4.9839701645942469
30
0
10
-17.51089818603613
20
-4.9839162901583833
30
0
10
-17.510078884876819
20
-4.9838624157225198
30
0
10
-14.667672090854387
20
-4.796955488051502
30
0
10
-11.733333222312208
20
-3.9588197790844504
30
0
10
-8.797676893954991
20
-2.8449927386895268
30
0
10
-5.3413828572223476
20
-1.5336288298825096
30
0
10
-1.8948704448424358
20
0.10304508333152995
30
0
10
1.2748084301335361
20
0.96433803728892542
30
0
10
4.0513019578852072
20
1.7187912189788079
30
0
10
6.6011774761186626
20
1.8390636836267049
30
0
10
8.8575013427616653
20
0.98360684916922736
30
0
10
12.806604968170966
20
-0.51364615439162264
30
0
10
15.905085435175854
20
-4.9401886848760057
30
0
10
18.243781438462786
20
-12.023514176416974
30
0
10
18.292520958975199
20
-12.171133998576771
30
0
10
18.341260479487612
20
-12.318753820736603
30
0
10
18.390000000000025
20
-12.466373642896436
30
0
0
LINE
5
102
100
AcDbEntity
8
0
100
AcDbLine
10
18.390000000000025
20
-12.4663736428964
30
0
11
18.38999999999999
21
-1.2554792795715031
31
0
0
LINE
5
103
100
AcDbEntity
8
0
100
AcDbLine
10
18.38999999999999
20
-1.2554792795715031
30
0
11
20.389999999999993
21
-1.2554792795715031
31
0
0
LINE
5
104
100
AcDbEntity
8
0
100
AcDbLine
10
20.389999999999993
20
-1.2554792795715031
30
0
11
20.389999999999993
21
5.8945207204284955
31
0
0
LINE
5
105
100
AcDbEntity
8
0
100
AcDbLine
10
20.389999999999993
20
5.8945207204284955
30
0
11
18.38999999999999
21
5.8945207204284955
31
0
0
LINE
5
106
100
AcDbEntity
8
0
100
AcDbLine
10
18.38999999999999
20
5.8945207204284955
30
0
11
18.390000000000011
21
12.104649970747481
31
0
0
SPLINE
5
107
100
AcDbEntity
8
0
100
AcDbSpline
70
0
71
3
72
20
73
16
74
0
42
0.000000001
43
0.0000000001
44
0.0000000001
40
-1.0023596072476311
40
-1.0023596072476311
40
-1.0023596072476311
40
-1.0023596072476311
40
-1
40
-1
40
-1
40
-0.64864999329177442
40
-0.64864999329177442
40
-0.64864999329177442
40
-0.38482223031623913
40
-0.38482223031623913
40
-0.38482223031623913
40
-0.10400040775492003
40
-0.10400040775492003
40
-0.10400040775492003
40
0
40
0
40
0
40
0
10
18.390000000000015
20
12.104649970747516
30
0
10
18.356966671219002
20
12.093440802454971
30
0
10
18.323933342438046
20
12.082231634162532
30
0
10
18.290900013657094
20
12.071022465870094
30
0
10
13.377603856266935
20
10.403798315861827
30
0
10
8.4710556355223652
20
9.3655957749346896
30
0
10
3.6669768281084458
20
9.0473543601526174
30
0
10
0.059607137716697345
20
8.8083877486680962
30
0
10
-3.4945148124218051
20
9.0040263992655056
30
0
10
-6.7413765916276791
20
9.4534561906493764
30
0
10
-10.197379978677699
20
9.9318353108235868
30
0
10
-13.275185874818654
20
10.654656587690674
30
0
10
-15.459940474771097
20
10.979129584922802
30
0
10
-16.269049137221565
20
11.099295901449828
30
0
10
-16.956918858414809
20
11.165975960969767
30
0
10
-17.515000000000001
20
11.165975960969767
30
0
0
LINE
5
108
100
AcDbEntity
8
0
100
AcDbLine
10
-17.515000000000001
20
11.165975960969767
30
0
11
-18.389999999999979
21
11.165975960969767
31
0
0
LINE
5
109
100
AcDbEntity
8
0
100
AcDbLine
10
-18.389999999999979
20
11.165975960969767
30
0
11
-18.389999999999979
21
7.165975960969817
31
0
0
LINE
5
110
100
AcDbEntity
8
0
100
AcDbLine
10
-18.389999999999979
20
7.165975960969817
30
0
11
-20.389999999999997
21
7.165975960969817
31
0
0
LINE
5
111
100
AcDbEntity
8
0
100
AcDbLine
10
-20.389999999999997
20
7.165975960969817
30
0
11
-20.389999999999997
21
-0.98402403903019575
31
0
0
LINE
5
112
100
AcDbEntity
8
0
100
AcDbLine
10
-20.389999999999997
20
-0.98402403903019575
30
0
11
-18.389999999999986
21
-0.98402403903019575
31
0
0
LINE
5
113
100
AcDbEntity
8
0
100
AcDbLine
10
-18.389999999999986
20
-0.98402403903019575
30
0
11
-18.389999999999993
21
-4.9840240390301815
31
0
0
ENDSEC
0
SECTION
2
OBJECTS
0
DICTIONARY
5
C
100
AcDbDictionary
3
ACAD_GROUP
350
D
3
ACAD_MLINESTYLE
350
17
0
DICTIONARY
5
D
100
AcDbDictionary
0
DICTIONARY
5
1A
330
C
100
AcDbDictionary
0
DICTIONARY
5
17
100
AcDbDictionary
0
ENDSEC
0
EOF
