0
SECTION
2
HEADER
9
$INSUNITS
70
4
9
$ACADVER
1
AC1014
9
$HANDSEED
5
FFFF
0
ENDSEC
0
SECTION
2
TABLES
0
TABLE
2
VPORT
5
8
100
AcDbSymbolTable
0
ENDTAB
0
TABLE
2
LTYPE
5
5
100
AcDbSymbolTable
0
LTYPE
5
14
100
AcDbSymbolTableRecord
100
AcDbLinetypeTableRecord
2
BYBLOCK
70
0
0
LTYPE
5
15
100
AcDbSymbolTableRecord
100
AcDbLinetypeTableRecord
2
BYLAYER
70
0
0
ENDTAB
0
TABLE
2
LAYER
5
2
100
AcDbSymbolTable
70
2
0
LAYER
5
50
100
AcDbSymbolTableRecord
100
AcDbLayerTableRecord
2
0
70
0
6
CONTINUOUS
0
ENDTAB
0
TABLE
2
STYLE
5
3
100
AcDbSymbolTable
70
1
0
STYLE
5
11
100
AcDbSymbolTableRecord
100
AcDbTextStyleTableRecord
2
STANDARD
70
0
0
ENDTAB
0
TABLE
2
VIEW
5
6
100
AcDbSymbolTable
70
0
0
ENDTAB
0
TABLE
2
UCS
5
7
100
AcDbSymbolTable
70
0
0
ENDTAB
0
TABLE
2
APPID
5
9
100
AcDbSymbolTable
70
2
0
APPID
5
12
100
AcDbSymbolTableRecord
100
AcDbRegAppTableRecord
2
ACAD
70
0
0
ENDTAB
0
TABLE
2
DIMSTYLE
5
A
100
AcDbSymbolTable
70
1
0
ENDTAB
0
TABLE
2
BLOCK_RECORD
5
1
100
AcDbSymbolTable
70
1
0
BLOCK_RECORD
5
1F
100
AcDbSymbolTableRecord
100
AcDbBlockTableRecord
2
*MODEL_SPACE
0
BLOCK_RECORD
5
1B
100
AcDbSymbolTableRecord
100
AcDbBlockTableRecord
2
*PAPER_SPACE
0
ENDTAB
0
ENDSEC
0
SECTION
2
BLOCKS
0
BLOCK
5
20
100
AcDbEntity
100
AcDbBlockBegin
2
*MODEL_SPACE
0
ENDBLK
5
21
100
AcDbEntity
100
AcDbBlockEnd
0
BLOCK
5
1C
100
AcDbEntity
100
AcDbBlockBegin
2
*PAPER_SPACE
0
ENDBLK
5
1D
100
AcDbEntity
100
AcDbBlockEnd
0
ENDSEC
0
SECTION
2
ENTITIES
0
LINE
5
100
100
AcDbEntity
8
0
100
AcDbLine
10
-26.295000000000002
20
-1.7825890709884362
30
0
11
-28.295000000000002
21
-1.7825890709884362
31
0
0
LINE
5
101
100
AcDbEntity
8
0
100
AcDbLine
10
-28.295000000000002
20
-1.7825890709884362
30
0
11
-28.295000000000002
21
-4.9325890709884135
31
0
0
LINE
5
102
100
AcDbEntity
8
0
100
AcDbLine
10
-28.295000000000002
20
-4.9325890709884135
30
0
11
-26.215753308022869
21
-4.9325890709882003
31
0
0
SPLINE
5
103
100
AcDbEntity
8
0
100
AcDbSpline
70
0
71
3
72
29
73
25
74
0
42
0.000000001
43
0.0000000001
44
0.0000000001
40
-0.00011052857279063489
40
-0.00011052857279063489
40
-0.00011052857279063489
40
-0.00011052857279063489
40
0
40
0
40
0
40
0.14880403746026372
40
0.14880403746026372
40
0.14880403746026372
40
0.33226355285458475
40
0.33226355285458475
40
0.33226355285458475
40
0.47652713606188474
40
0.47652713606188474
40
0.47652713606188474
40
0.7382635680309424
40
0.7382635680309424
40
0.7382635680309424
40
0.95758305630768714
40
0.95758305630768714
40
0.95758305630768714
40
1
40
1
40
1
40
1.0013070488279108
40
1.0013070488279108
40
1.0013070488279108
40
1.0013070488279108
10
-26.215753308022816
20
-4.9325890709882003
30
0
10
-26.214346791942631
20
-4.9324292775909839
30
0
10
-26.212940275862451
20
-4.932269484193732
30
0
10
-26.211533759782419
20
-4.9321096907964801
30
0
10
-24.32010440596499
20
-4.7172256049456252
30
0
10
-21.655084989697357
20
-4.4883161074882949
30
0
10
-18.550851301303268
20
-4.3471053024366668
30
0
10
-14.723662080744759
20
-4.1730074331491451
30
0
10
-10.299572377477642
20
-4.161982646085356
30
0
10
-6.3060175903636217
20
-4.5649030423237136
30
0
10
-3.1656815762548174
20
-4.8817399203876022
30
0
10
-0.31080963683725038
20
-5.4596413945164812
30
0
10
2.1734863942070515
20
-6.2144726055448984
30
0
10
6.6807276859062537
20
-7.5839577071977615
30
0
10
10.046292297432316
20
-9.4678262313988526
30
0
10
13.755658669861472
20
-10.655983403413494
30
0
10
16.863886013345333
20
-11.65158810772688
30
0
10
20.223130866105734
20
-12.170583973970999
30
0
10
23.994529675650817
20
-12.116330380788263
30
0
10
24.723927743294819
20
-12.105837598659228
30
0
10
25.467452374367486
20
-12.074834738846008
30
0
10
26.225080705969415
20
-12.023392743582022
30
0
10
26.248387137312914
20
-12.021810266685655
30
0
10
26.271693568656413
20
-12.020227789789288
30
0
10
26.294999999999789
20
-12.018645312892851
30
0
0
LINE
5
104
100
AcDbEntity
8
0
100
AcDbLine
10
26.294999999999792
20
-12.018645312892886
30
0
11
26.295000000000002
21
-5.6308946541617999
31
0
0
LINE
5
105
100
AcDbEntity
8
0
100
AcDbLine
10
26.295000000000002
20
-5.6308946541617999
30
0
11
28.295000000000002
21
-5.6308946541617999
31
0
0
LINE
5
106
100
AcDbEntity
8
0
100
AcDbLine
10
28.295000000000002
20
-5.6308946541617999
30
0
11
28.295000000000002
21
1.5191053458381987
31
0
0
LINE
5
107
100
AcDbEntity
8
0
100
AcDbLine
10
28.295000000000002
20
1.5191053458381987
30
0
11
26.295000000000002
21
1.5191053458381987
31
0
0
LINE
5
108
100
AcDbEntity
8
0
100
AcDbLine
10
26.295000000000002
20
1.5191053458381987
30
0
11
26.295000000000037
21
12.163859660768104
31
0
0
SPLINE
5
109
100
AcDbEntity
8
0
100
AcDbSpline
70
0
71
3
72
20
73
16
74
0
42
0.000000001
43
0.0000000001
44
0.0000000001
40
-1.0018176859137178
40
-1.0018176859137178
40
-1.0018176859137178
40
-1.0018176859137178
40
-1
40
-1
40
-1
40
-0.68961683556692721
40
-0.68961683556692721
40
-0.68961683556692721
40
-0.45143852203191159
40
-0.45143852203191159
40
-0.45143852203191159
40
-0.17363414345159939
40
-0.17363414345159939
40
-0.17363414345159939
40
0
40
0
40
0
40
0
10
26.295000000000044
20
12.163859660768104
30
0
10
26.260398883197304
20
12.149467626016346
30
0
10
26.225797766394567
20
12.135075591264695
30
0
10
26.191196649591838
20
12.120683556513043
30
0
10
20.287946576065565
20
9.6652778339071332
30
0
10
14.68682009987222
20
8.0970515021677159
30
0
10
9.3933787359886054
20
7.5110462412192902
30
0
10
5.3313577202896312
20
7.0613641683198836
30
0
10
1.4626802889437052
20
7.2200521067639656
30
0
10
-2.3640718246182679
20
7.7945127394771063
30
0
10
-6.8274861343039017
20
8.4645472053407289
30
0
10
-11.255541665466788
20
9.6628021093558303
30
0
10
-16.212748171862074
20
10.433804694909306
30
0
10
-19.311116563495627
20
10.915699092059157
30
0
10
-22.62335867596704
20
11.217410929011535
30
0
10
-26.219999999999999
20
11.217410929011535
30
0
0
LINE
5
110
100
AcDbEntity
8
0
100
AcDbLine
10
-26.219999999999999
20
11.2174109290115
30
0
11
-28.295000000000002
21
11.217410929011535
31
0
0
LINE
5
111
100
AcDbEntity
8
0
100
AcDbLine
10
-28.295000000000002
20
11.217410929011535
30
0
11
-28.295000000000002
21
8.0674109290115581
31
0
0
LINE
5
112
100
AcDbEntity
8
0
100
AcDbLine
10
-28.295000000000002
20
8.0674109290115581
30
0
11
-26.295000000000002
21
8.0674109290115581
31
0
0
LINE
5
113
100
AcDbEntity
8
0
100
AcDbLine
10
-26.295000000000002
20
8.0674109290115581
30
0
11
-26.295000000000002
21
-1.7825890709884362
31
0
0
ENDSEC
0
SECTION
2
OBJECTS
0
DICTIONARY
5
C
100
AcDbDictionary
3
ACAD_GROUP
350
D
3
ACAD_MLINESTYLE
350
17
0
DICTIONARY
5
D
100
AcDbDictionary
0
DICTIONARY
5
1A
330
C
100
AcDbDictionary
0
DICTIONARY
5
17
100
AcDbDictionary
0
ENDSEC
0
EOF
