0
SECTION
2
HEADER
9
$INSUNITS
70
4
9
$ACADVER
1
AC1014
9
$HANDSEED
5
FFFF
0
ENDSEC
0
SECTION
2
TABLES
0
TABLE
2
VPORT
5
8
100
AcDbSymbolTable
0
ENDTAB
0
TABLE
2
LTYPE
5
5
100
AcDbSymbolTable
0
LTYPE
5
14
100
AcDbSymbolTableRecord
100
AcDbLinetypeTableRecord
2
BYBLOCK
70
0
0
LTYPE
5
15
100
AcDbSymbolTableRecord
100
AcDbLinetypeTableRecord
2
BYLAYER
70
0
0
ENDTAB
0
TABLE
2
LAYER
5
2
100
AcDbSymbolTable
70
2
0
LAYER
5
50
100
AcDbSymbolTableRecord
100
AcDbLayerTableRecord
2
0
70
0
6
CONTINUOUS
0
ENDTAB
0
TABLE
2
STYLE
5
3
100
AcDbSymbolTable
70
1
0
STYLE
5
11
100
AcDbSymbolTableRecord
100
AcDbTextStyleTableRecord
2
STANDARD
70
0
0
ENDTAB
0
TABLE
2
VIEW
5
6
100
AcDbSymbolTable
70
0
0
ENDTAB
0
TABLE
2
UCS
5
7
100
AcDbSymbolTable
70
0
0
ENDTAB
0
TABLE
2
APPID
5
9
100
AcDbSymbolTable
70
2
0
APPID
5
12
100
AcDbSymbolTableRecord
100
AcDbRegAppTableRecord
2
ACAD
70
0
0
ENDTAB
0
TABLE
2
DIMSTYLE
5
A
100
AcDbSymbolTable
70
1
0
ENDTAB
0
TABLE
2
BLOCK_RECORD
5
1
100
AcDbSymbolTable
70
1
0
BLOCK_RECORD
5
1F
100
AcDbSymbolTableRecord
100
AcDbBlockTableRecord
2
*MODEL_SPACE
0
BLOCK_RECORD
5
1B
100
AcDbSymbolTableRecord
100
AcDbBlockTableRecord
2
*PAPER_SPACE
0
ENDTAB
0
ENDSEC
0
SECTION
2
BLOCKS
0
BLOCK
5
20
100
AcDbEntity
100
AcDbBlockBegin
2
*MODEL_SPACE
0
ENDBLK
5
21
100
AcDbEntity
100
AcDbBlockEnd
0
BLOCK
5
1C
100
AcDbEntity
100
AcDbBlockBegin
2
*PAPER_SPACE
0
ENDBLK
5
1D
100
AcDbEntity
100
AcDbBlockEnd
0
ENDSEC
0
SECTION
2
ENTITIES
0
SPLINE
5
100
100
AcDbEntity
8
0
100
AcDbSpline
70
0
71
3
72
17
73
13
74
0
42
0.000000001
43
0.0000000001
44
0.0000000001
40
-0.0011278132586702715
40
-0.0011278132586702715
40
-0.0011278132586702715
40
-0.0011278132586702715
40
0
40
0
40
0
40
0.50775023581677303
40
0.50775023581677303
40
0.50775023581677303
40
1
40
1
40
1
40
1.0055726588146223
40
1.0055726588146223
40
1.0055726588146223
40
1.0055726588146223
10
-9.973266958857705
20
11.165975960969874
30
0
10
-9.9663649832915002
20
11.160339570396332
30
0
10
-9.9594630077252244
20
11.154703179822683
30
0
10
-9.9525610321589397
20
11.149066789249034
30
0
10
-6.8550911180237151
20
8.6195663500614472
30
0
10
-3.6466892989192523
20
7.2668437770338556
30
0
10
-0.27672166956298927
20
7.4911418798683727
30
0
10
2.9903684346636661
20
7.708592666571441
30
0
10
6.4177093852874378
20
9.373465120787472
30
0
10
9.9546380682125921
20
12.059726837724085
30
0
10
9.9947587121417136
20
12.090198062763484
30
0
10
10.034879356070833
20
12.120669287802883
30
0
10
10.074999999999948
20
12.151140512842176
30
0
0
LINE
5
101
100
AcDbEntity
8
0
100
AcDbLine
10
-9.973266958857705
20
11.165975960969874
30
0
11
-12.075000000000005
21
11.165975960969732
31
0
0
LINE
5
102
100
AcDbEntity
8
0
100
AcDbLine
10
-12.075000000000005
20
11.165975960969732
30
0
11
-12.075000000000005
21
8.0159759609697545
31
0
0
LINE
5
103
100
AcDbEntity
8
0
100
AcDbLine
10
-12.075000000000005
20
8.0159759609697545
30
0
11
-10.075000000000003
21
8.0159759609697545
31
0
0
LINE
5
104
100
AcDbEntity
8
0
100
AcDbLine
10
-10.075000000000003
20
8.0159759609697545
30
0
11
-10.075000000000003
21
-1.8340240390302398
31
0
0
LINE
5
105
100
AcDbEntity
8
0
100
AcDbLine
10
-10.075000000000003
20
-1.8340240390302398
30
0
11
-12.075000000000005
21
-1.8340240390302398
31
0
0
LINE
5
106
100
AcDbEntity
8
0
100
AcDbLine
10
-12.075000000000005
20
-1.8340240390302398
30
0
11
-12.075000000000005
21
-4.9840240390302171
31
0
0
LINE
5
107
100
AcDbEntity
8
0
100
AcDbLine
10
-12.075000000000005
20
-4.9840240390302171
30
0
11
-9.9703349801089391
21
-4.9840240390302881
31
0
0
SPLINE
5
108
100
AcDbEntity
8
0
100
AcDbSpline
70
0
71
3
72
20
73
16
74
0
42
0.000000001
43
0.0000000001
44
0.0000000001
40
-0.0010466171257132615
40
-0.0010466171257132615
40
-0.0010466171257132615
40
-0.0010466171257132615
40
0
40
0
40
0
40
0.5
40
0.5
40
0.5
40
0.96838478841598241
40
0.96838478841598241
40
0.96838478841598241
40
1
40
1
40
1
40
1.0071821047567546
40
1.0071821047567546
40
1.0071821047567546
40
1.0071821047567546
10
-9.9703349801094099
20
-4.9840240390306434
30
0
10
-9.9631220755922278
20
-4.9772599222614033
30
0
10
-9.9559091710750636
20
-4.9704958054921633
30
0
10
-9.9486962665578993
20
-4.9637316887229233
30
0
10
-6.513975016104423
20
-1.7427191891703941
30
0
10
-3.1556639509517259
20
-0.50410958301817743
30
0
10
0.14509791358061186
20
-1.7746516456318773
30
0
10
3.237151208641591
20
-2.9648567959737449
30
0
10
6.2987290847396604
20
-6.2847713654944215
30
0
10
9.3238214226527472
20
-11.052709921437085
30
0
10
9.5280102364008457
20
-11.374538020883911
30
0
10
9.7320360409825888
20
-11.703285460369273
30
0
10
9.9358972696405665
20
-12.038933789443966
30
0
10
9.9822648464270536
20
-12.115275915772159
30
0
10
10.028632423213539
20
-12.191618042100316
30
0
10
10.075000000000024
20
-12.267960168428473
30
0
0
LINE
5
109
100
AcDbEntity
8
0
100
AcDbLine
10
10.075000000000022
20
-12.267960168428473
30
0
11
10.075000000000001
21
-2.3542629622411226
31
0
0
LINE
5
110
100
AcDbEntity
8
0
100
AcDbLine
10
10.075000000000001
20
-2.3542629622411226
30
0
11
12.074999999999999
21
-2.3542629622411226
31
0
0
LINE
5
111
100
AcDbEntity
8
0
100
AcDbLine
10
12.074999999999999
20
-2.3542629622411226
30
0
11
12.074999999999999
21
4.7957370377588759
31
0
0
LINE
5
112
100
AcDbEntity
8
0
100
AcDbLine
10
12.074999999999999
20
4.7957370377588759
30
0
11
10.075000000000001
21
4.7957370377588759
31
0
0
LINE
5
113
100
AcDbEntity
8
0
100
AcDbLine
10
10.075000000000001
20
4.7957370377588759
30
0
11
10.074999999999999
21
12.151140512842176
31
0
0
ENDSEC
0
SECTION
2
OBJECTS
0
DICTIONARY
5
C
100
AcDbDictionary
3
ACAD_GROUP
350
D
3
ACAD_MLINESTYLE
350
17
0
DICTIONARY
5
D
100
AcDbDictionary
0
DICTIONARY
5
1A
330
C
100
AcDbDictionary
0
DICTIONARY
5
17
100
AcDbDictionary
0
ENDSEC
0
EOF
