0
SECTION
2
HEADER
9
$INSUNITS
70
4
9
$ACADVER
1
AC1014
9
$HANDSEED
5
FFFF
0
ENDSEC
0
SECTION
2
TABLES
0
TABLE
2
VPORT
5
8
100
AcDbSymbolTable
0
ENDTAB
0
TABLE
2
LTYPE
5
5
100
AcDbSymbolTable
0
LTYPE
5
14
100
AcDbSymbolTableRecord
100
AcDbLinetypeTableRecord
2
BYBLOCK
70
0
0
LTYPE
5
15
100
AcDbSymbolTableRecord
100
AcDbLinetypeTableRecord
2
BYLAYER
70
0
0
ENDTAB
0
TABLE
2
LAYER
5
2
100
AcDbSymbolTable
70
2
0
LAYER
5
50
100
AcDbSymbolTableRecord
100
AcDbLayerTableRecord
2
0
70
0
6
CONTINUOUS
0
ENDTAB
0
TABLE
2
STYLE
5
3
100
AcDbSymbolTable
70
1
0
STYLE
5
11
100
AcDbSymbolTableRecord
100
AcDbTextStyleTableRecord
2
STANDARD
70
0
0
ENDTAB
0
TABLE
2
VIEW
5
6
100
AcDbSymbolTable
70
0
0
ENDTAB
0
TABLE
2
UCS
5
7
100
AcDbSymbolTable
70
0
0
ENDTAB
0
TABLE
2
APPID
5
9
100
AcDbSymbolTable
70
2
0
APPID
5
12
100
AcDbSymbolTableRecord
100
AcDbRegAppTableRecord
2
ACAD
70
0
0
ENDTAB
0
TABLE
2
DIMSTYLE
5
A
100
AcDbSymbolTable
70
1
0
ENDTAB
0
TABLE
2
BLOCK_RECORD
5
1
100
AcDbSymbolTable
70
1
0
BLOCK_RECORD
5
1F
100
AcDbSymbolTableRecord
100
AcDbBlockTableRecord
2
*MODEL_SPACE
0
BLOCK_RECORD
5
1B
100
AcDbSymbolTableRecord
100
AcDbBlockTableRecord
2
*PAPER_SPACE
0
ENDTAB
0
ENDSEC
0
SECTION
2
BLOCKS
0
BLOCK
5
20
100
AcDbEntity
100
AcDbBlockBegin
2
*MODEL_SPACE
0
ENDBLK
5
21
100
AcDbEntity
100
AcDbBlockEnd
0
BLOCK
5
1C
100
AcDbEntity
100
AcDbBlockBegin
2
*PAPER_SPACE
0
ENDBLK
5
1D
100
AcDbEntity
100
AcDbBlockEnd
0
ENDSEC
0
SECTION
2
ENTITIES
0
LINE
5
100
100
AcDbEntity
8
0
100
AcDbLine
10
13.766353938897957
20
6.0150127863193248
30
0
11
10.339659997087196
21
11.946308481962582
31
0
0
LINE
5
101
100
AcDbEntity
8
0
100
AcDbLine
10
10.339659997087196
20
11.946308481962582
30
0
11
11.941542776202532
21
12.871765969896884
31
0
0
LINE
5
102
100
AcDbEntity
8
0
100
AcDbLine
10
11.941542776202532
20
12.871765969896884
30
0
11
15.368236718013293
21
6.9404702742536273
31
0
0
LINE
5
103
100
AcDbEntity
8
0
100
AcDbLine
10
15.368236718013293
20
6.9404702742536273
30
0
11
13.766353938897957
21
6.0150127863193248
31
0
0
LINE
5
104
100
AcDbEntity
8
0
100
AcDbLine
10
1.6808341640312463
20
6.9438355742097002
30
0
11
3.2827169431465819
21
7.8692930621440027
31
0
0
LINE
5
105
100
AcDbEntity
8
0
100
AcDbLine
10
3.2827169431465819
20
7.8692930621440027
30
0
11
6.7094108849573431
21
1.9379973665006389
31
0
0
LINE
5
106
100
AcDbEntity
8
0
100
AcDbLine
10
6.7094108849573431
20
1.9379973665006389
30
0
11
5.1075281058420074
21
1.0125398785663364
31
0
0
LINE
5
107
100
AcDbEntity
8
0
100
AcDbLine
10
5.1075281058420074
20
1.0125398785663364
30
0
11
1.6808341640312463
21
6.9438355742097002
31
0
0
LINE
5
108
100
AcDbEntity
8
0
100
AcDbLine
10
-24.646553683143573
20
-15.888733403351409
30
0
11
-26.49655368314356
21
-15.888733403351409
31
0
0
LINE
5
109
100
AcDbEntity
8
0
100
AcDbLine
10
-26.49655368314356
20
-15.888733403351409
30
0
11
-26.49655368314356
21
-9.0387334033514222
31
0
0
LINE
5
110
100
AcDbEntity
8
0
100
AcDbLine
10
-26.49655368314356
20
-9.0387334033514222
30
0
11
-24.646553683143573
21
-9.0387334033514222
31
0
0
LINE
5
111
100
AcDbEntity
8
0
100
AcDbLine
10
-24.646553683143573
20
-9.0387334033514222
30
0
11
-24.646553683143573
21
-15.888733403351409
31
0
0
LINE
5
112
100
AcDbEntity
8
0
100
AcDbLine
10
-3.8250986836833079
20
-35.363175307448707
30
0
11
-3.8250986836833079
21
-7.3055250027655916
31
0
0
ARC
5
113
100
AcDbEntity
8
0
100
AcDbCircle
10
4.0420749103716958
20
37.973058278681208
30
0
40
45.956963828498388
210
0
220
0
230
1
100
AcDbArc
50
260.143236499708
51
322.63740859351111
0
LINE
5
114
100
AcDbEntity
8
0
100
AcDbLine
10
40.569175690848134
20
10.083751494416582
30
0
11
35.524677271762677
21
13.230168795129664
31
0
0
LINE
5
115
100
AcDbEntity
8
0
100
AcDbLine
10
35.524677271762677
20
13.230168795129664
30
0
11
33.511085160689724
21
10.001874118931298
31
0
0
LINE
5
116
100
AcDbEntity
8
0
100
AcDbLine
10
33.511085160689724
20
10.001874118931298
30
0
11
31.092913389936498
21
11.510166294582973
31
0
0
LINE
5
117
100
AcDbEntity
8
0
100
AcDbLine
10
31.092913389936498
20
11.510166294582973
30
0
11
35.359676576915362
21
18.350860994058777
31
0
0
LINE
5
118
100
AcDbEntity
8
0
100
AcDbLine
10
35.359676576915362
20
18.350860994058777
30
0
11
42.995956558687567
21
13.587865458797417
31
0
0
ARC
5
119
100
AcDbEntity
8
0
100
AcDbCircle
10
4.0420749103716958
20
37.973058278681208
30
0
40
45.956963828498431
210
-0
220
0
230
1
100
AcDbArc
50
327.95336737089326
51
356.74443738900567
0
LINE
5
120
100
AcDbEntity
8
0
100
AcDbLine
10
49.924871634311536
20
35.363175307448707
30
0
11
31.605932113112871
21
35.363175307448671
31
0
0
LINE
5
121
100
AcDbEntity
8
0
100
AcDbLine
10
31.605932113112871
20
35.363175307448671
30
0
11
31.605932113112871
21
30.213175307448665
31
0
0
LINE
5
122
100
AcDbEntity
8
0
100
AcDbLine
10
31.605932113112871
20
30.213175307448665
30
0
11
34.105932113112871
21
30.213175307448665
31
0
0
LINE
5
123
100
AcDbEntity
8
0
100
AcDbLine
10
34.105932113112871
20
30.213175307448665
30
0
11
34.105932113112871
21
25.363175307448671
31
0
0
LINE
5
124
100
AcDbEntity
8
0
100
AcDbLine
10
34.105932113112871
20
25.363175307448671
30
0
11
24.255932113112877
21
25.363175307448671
31
0
0
LINE
5
125
100
AcDbEntity
8
0
100
AcDbLine
10
24.255932113112877
20
25.363175307448671
30
0
11
24.255932113112877
21
30.213175307448665
31
0
0
LINE
5
126
100
AcDbEntity
8
0
100
AcDbLine
10
24.255932113112877
20
30.213175307448665
30
0
11
26.755932113112877
21
30.213175307448665
31
0
0
LINE
5
127
100
AcDbEntity
8
0
100
AcDbLine
10
26.755932113112877
20
30.213175307448665
30
0
11
26.755932113112877
21
35.363175307448671
31
0
0
LINE
5
128
100
AcDbEntity
8
0
100
AcDbLine
10
26.755932113112877
20
35.363175307448671
30
0
11
-6.8729007770409112
21
35.363175307448671
31
0
0
ARC
5
129
100
AcDbEntity
8
0
100
AcDbCircle
10
-6.8729007770409467
20
27.004010996136518
30
0
40
8.3591643113121528
210
0
220
-0
230
1
100
AcDbArc
50
89.999999999999744
51
191.32019879050583
0
LINE
5
130
100
AcDbEntity
8
0
100
AcDbLine
10
-15.069441890598725
20
25.363175307448653
30
0
11
-20.052423355591955
21
25.363175307448653
31
0
0
LINE
5
131
100
AcDbEntity
8
0
100
AcDbLine
10
-20.052423355591955
20
25.363175307448653
30
0
11
-20.052423355591955
21
20.428964970646177
31
0
0
LINE
5
132
100
AcDbEntity
8
0
100
AcDbLine
10
-20.052423355591955
20
20.428964970646177
30
0
11
-27.258230627035083
21
13.380586321257972
31
0
0
LINE
5
133
100
AcDbEntity
8
0
100
AcDbLine
10
-27.258230627035083
20
13.380586321257972
30
0
11
-30.052423355591955
21
13.380586321257972
31
0
0
LINE
5
134
100
AcDbEntity
8
0
100
AcDbLine
10
-30.052423355591955
20
13.380586321257972
30
0
11
-30.052423355591955
21
10.647439620500911
31
0
0
LINE
5
135
100
AcDbEntity
8
0
100
AcDbLine
10
-30.052423355591955
20
10.647439620500911
30
0
11
-30.980502584974658
21
9.7396365695858833
31
0
0
LINE
5
136
100
AcDbEntity
8
0
100
AcDbLine
10
-30.980502584974658
20
9.7396365695858833
30
0
11
-34.394083822292849
21
13.229461637889237
31
0
0
ARC
5
137
100
AcDbEntity
8
0
100
AcDbCircle
10
-38.355083358724485
20
14.311486130916578
30
0
40
4.1061288741493165
210
-0
220
0
230
1
100
AcDbArc
50
-15.278702756612764
51
284.01316168013904
0
LINE
5
138
100
AcDbEntity
8
0
100
AcDbLine
10
-37.360805684358347
20
10.32755512782682
30
0
11
-33.947224447040171
21
6.8377300595234658
31
0
0
LINE
5
139
100
AcDbEntity
8
0
100
AcDbLine
10
-33.947224447040171
20
6.8377300595234658
30
0
11
-49.951179353581061
21
-8.8165790025675861
31
0
0
SPLINE
5
140
100
AcDbEntity
8
0
100
AcDbSpline
70
0
71
3
72
17
73
13
74
0
42
0.000000001
43
0.0000000001
44
0.0000000001
40
0.48021459371160063
40
0.48021459371160063
40
0.48021459371160063
40
0.48021459371160063
40
0.48210752979991245
40
0.48210752979991245
40
0.48210752979991245
40
0.9155368879081569
40
0.9155368879081569
40
0.9155368879081569
40
1
40
1
40
1
40
1.0012253086590752
40
1.0012253086590752
40
1.0012253086590752
40
1.0012253086590752
10
-49.951179353581132
20
-8.816579002567515
30
0
10
-49.933892951381473
20
-8.8344481286071641
30
0
10
-49.916606549181815
20
-8.8523172546468487
30
0
10
-49.899320146982156
20
-8.8701863806865333
30
0
10
-45.966237625815864
20
-12.935852936597207
30
0
10
-44.83662774128517
20
-20.099291464348106
30
0
10
-45.755829490559812
20
-29.513999694580555
30
0
10
-45.934955890125515
20
-31.348659810897672
30
0
10
-46.192914424786892
20
-33.269780660326234
30
0
10
-46.528380666383384
20
-35.275804882831174
30
0
10
-46.533250967822468
20
-35.304928357703673
30
0
10
-46.538121269261566
20
-35.334051832576172
30
0
10
-46.54299157070065
20
-35.363175307448707
30
0
0
LINE
5
141
100
AcDbEntity
8
0
100
AcDbLine
10
-46.54299157070065
20
-35.363175307448707
30
0
11
-37.490673974964182
21
-35.363175307448707
31
0
0
LINE
5
142
100
AcDbEntity
8
0
100
AcDbLine
10
-37.490673974964182
20
-35.363175307448707
30
0
11
-37.490673974964182
21
-31.213175307448715
31
0
0
LINE
5
143
100
AcDbEntity
8
0
100
AcDbLine
10
-37.490673974964182
20
-31.213175307448715
30
0
11
-39.490673974964196
21
-31.213175307448715
31
0
0
LINE
5
144
100
AcDbEntity
8
0
100
AcDbLine
10
-39.490673974964196
20
-31.213175307448715
30
0
11
-39.490673974964196
21
-27.363175307448735
31
0
0
LINE
5
145
100
AcDbEntity
8
0
100
AcDbLine
10
-39.490673974964196
20
-27.363175307448735
30
0
11
-31.640673974964191
21
-27.363175307448735
31
0
0
LINE
5
146
100
AcDbEntity
8
0
100
AcDbLine
10
-31.640673974964191
20
-27.363175307448735
30
0
11
-31.640673974964191
21
-31.213175307448715
31
0
0
LINE
5
147
100
AcDbEntity
8
0
100
AcDbLine
10
-31.640673974964191
20
-31.213175307448715
30
0
11
-33.640673974964187
21
-31.213175307448715
31
0
0
LINE
5
148
100
AcDbEntity
8
0
100
AcDbLine
10
-33.640673974964187
20
-31.213175307448715
30
0
11
-33.640673974964187
21
-35.363175307448707
31
0
0
LINE
5
149
100
AcDbEntity
8
0
100
AcDbLine
10
-33.640673974964187
20
-35.363175307448707
30
0
11
-3.8250986836833079
21
-35.363175307448707
31
0
0
ENDSEC
0
SECTION
2
OBJECTS
0
DICTIONARY
5
C
100
AcDbDictionary
3
ACAD_GROUP
350
D
3
ACAD_MLINESTYLE
350
17
0
DICTIONARY
5
D
100
AcDbDictionary
0
DICTIONARY
5
1A
330
C
100
AcDbDictionary
0
DICTIONARY
5
17
100
AcDbDictionary
0
ENDSEC
0
EOF
