0
SECTION
2
HEADER
9
$INSUNITS
70
4
9
$ACADVER
1
AC1014
9
$HANDSEED
5
FFFF
0
ENDSEC
0
SECTION
2
TABLES
0
TABLE
2
VPORT
5
8
100
AcDbSymbolTable
0
ENDTAB
0
TABLE
2
LTYPE
5
5
100
AcDbSymbolTable
0
LTYPE
5
14
100
AcDbSymbolTableRecord
100
AcDbLinetypeTableRecord
2
BYBLOCK
70
0
0
LTYPE
5
15
100
AcDbSymbolTableRecord
100
AcDbLinetypeTableRecord
2
BYLAYER
70
0
0
ENDTAB
0
TABLE
2
LAYER
5
2
100
AcDbSymbolTable
70
2
0
LAYER
5
50
100
AcDbSymbolTableRecord
100
AcDbLayerTableRecord
2
0
70
0
6
CONTINUOUS
0
ENDTAB
0
TABLE
2
STYLE
5
3
100
AcDbSymbolTable
70
1
0
STYLE
5
11
100
AcDbSymbolTableRecord
100
AcDbTextStyleTableRecord
2
STANDARD
70
0
0
ENDTAB
0
TABLE
2
VIEW
5
6
100
AcDbSymbolTable
70
0
0
ENDTAB
0
TABLE
2
UCS
5
7
100
AcDbSymbolTable
70
0
0
ENDTAB
0
TABLE
2
APPID
5
9
100
AcDbSymbolTable
70
2
0
APPID
5
12
100
AcDbSymbolTableRecord
100
AcDbRegAppTableRecord
2
ACAD
70
0
0
ENDTAB
0
TABLE
2
DIMSTYLE
5
A
100
AcDbSymbolTable
70
1
0
ENDTAB
0
TABLE
2
BLOCK_RECORD
5
1
100
AcDbSymbolTable
70
1
0
BLOCK_RECORD
5
1F
100
AcDbSymbolTableRecord
100
AcDbBlockTableRecord
2
*MODEL_SPACE
0
BLOCK_RECORD
5
1B
100
AcDbSymbolTableRecord
100
AcDbBlockTableRecord
2
*PAPER_SPACE
0
ENDTAB
0
ENDSEC
0
SECTION
2
BLOCKS
0
BLOCK
5
20
100
AcDbEntity
100
AcDbBlockBegin
2
*MODEL_SPACE
0
ENDBLK
5
21
100
AcDbEntity
100
AcDbBlockEnd
0
BLOCK
5
1C
100
AcDbEntity
100
AcDbBlockBegin
2
*PAPER_SPACE
0
ENDBLK
5
1D
100
AcDbEntity
100
AcDbBlockEnd
0
ENDSEC
0
SECTION
2
ENTITIES
0
LINE
5
100
100
AcDbEntity
8
0
100
AcDbLine
10
-19.964110749034134
20
-3.0218925517674577
30
0
11
-19.964110749034134
21
-4.0218925517674364
31
0
0
LINE
5
101
100
AcDbEntity
8
0
100
AcDbLine
10
-19.964110749034134
20
-4.0218925517674364
30
0
11
-15.923171282373083
21
-4.0218925517674364
31
0
0
LINE
5
102
100
AcDbEntity
8
0
100
AcDbLine
10
-15.923171282373083
20
-4.0218925517674364
30
0
11
-15.923171282373083
21
0.97810744823252804
31
0
0
LINE
5
103
100
AcDbEntity
8
0
100
AcDbLine
10
-15.923171282373083
20
0.97810744823252804
30
0
11
-12.073171282373085
21
0.97810744823252804
31
0
0
LINE
5
104
100
AcDbEntity
8
0
100
AcDbLine
10
-12.073171282373085
20
0.97810744823252804
30
0
11
-12.073171282373085
21
-10.871892551767459
31
0
0
LINE
5
105
100
AcDbEntity
8
0
100
AcDbLine
10
-12.073171282373085
20
-10.871892551767459
30
0
11
-15.923171282373083
21
-10.871892551767459
31
0
0
LINE
5
106
100
AcDbEntity
8
0
100
AcDbLine
10
-15.923171282373083
20
-10.871892551767459
30
0
11
-15.923171282373083
21
-9.871892551767445
31
0
0
LINE
5
107
100
AcDbEntity
8
0
100
AcDbLine
10
-15.923171282373083
20
-9.871892551767445
30
0
11
-19.964110749034134
21
-9.8718925517674805
31
0
0
LINE
5
108
100
AcDbEntity
8
0
100
AcDbLine
10
-19.964110749034134
20
-9.8718925517674805
30
0
11
-19.964110749034134
21
-10.871892551767459
31
0
0
LINE
5
109
100
AcDbEntity
8
0
100
AcDbLine
10
-19.964110749034134
20
-10.871892551767459
30
0
11
-26.385310505099984
21
-10.871892551767459
31
0
0
LINE
5
110
100
AcDbEntity
8
0
100
AcDbLine
10
-26.385310505099984
20
-10.871892551767459
30
0
11
-26.385310505100001
21
-18.925623503436846
31
0
0
SPLINE
5
111
100
AcDbEntity
8
0
100
AcDbSpline
70
0
71
3
72
17
73
13
74
0
42
0.000000001
43
0.0000000001
44
0.0000000001
40
-0.0013758002367497057
40
-0.0013758002367497057
40
-0.0013758002367497057
40
-0.0013758002367497057
40
0
40
0
40
0
40
0.33510017892924926
40
0.33510017892924926
40
0.33510017892924926
40
0.482107529799912
40
0.482107529799912
40
0.482107529799912
40
0.48402151864335979
40
0.48402151864335979
40
0.48402151864335979
40
0.48402151864335979
10
-26.385310505100392
20
-18.925623503436952
30
0
10
-26.355442343226674
20
-18.919693874130914
30
0
10
-26.325574181352955
20
-18.913764244824911
30
0
10
-26.295706019479255
20
-18.907834615518908
30
0
10
-19.028312893338093
20
-17.465062628370056
30
0
10
-13.019284672768521
20
-17.395407734102442
30
0
10
-8.5566213795156543
20
-18.994887981268676
30
0
10
-6.5988656102853405
20
-19.69657472657925
30
0
10
-4.9455800072417766
20
-20.726291650666226
30
0
10
-3.6115862862902226
20
-22.105254239902656
30
0
10
-3.5941076291090468
20
-22.123322101830638
30
0
10
-3.5766289719278532
20
-22.141389963758584
30
0
10
-3.5591503147466241
20
-22.159457825686601
30
0
0
LINE
5
112
100
AcDbEntity
8
0
100
AcDbLine
10
-3.5591503147466419
20
-22.159457825686637
30
0
11
12.552628511439554
21
-6.3996805232590859
31
0
0
LINE
5
113
100
AcDbEntity
8
0
100
AcDbLine
10
12.552628511439554
20
-6.3996805232590859
30
0
11
8.9732854006244445
21
-2.7403912174639089
31
0
0
ARC
5
114
100
AcDbEntity
8
0
100
AcDbCircle
10
7.932650501967462
20
1.0764182717004545
30
0
40
3.9561288741493144
210
-0
220
0
230
1
100
AcDbArc
50
-16.516284386333126
51
285.25074330985882
0
LINE
5
115
100
AcDbEntity
8
0
100
AcDbLine
10
11.725545441335825
20
-0.048261081622875679
30
0
11
15.304888552150935
21
-3.7075503874180171
31
0
0
LINE
5
116
100
AcDbEntity
8
0
100
AcDbLine
10
15.304888552150935
20
-3.7075503874180171
30
0
11
16.385310505100001
21
-2.650732915255567
31
0
0
LINE
5
117
100
AcDbEntity
8
0
100
AcDbLine
10
16.385310505100001
20
-2.650732915255567
30
0
11
16.385310505100001
21
-0.004481537958156423
31
0
0
LINE
5
118
100
AcDbEntity
8
0
100
AcDbLine
10
16.385310505100001
20
-0.004481537958156423
30
0
11
19.090667065115561
21
-0.004481537958156423
31
0
0
LINE
5
119
100
AcDbEntity
8
0
100
AcDbLine
10
19.090667065115561
20
-0.004481537958156423
30
0
11
26.385310505100001
21
7.1307924348896989
31
0
0
LINE
5
120
100
AcDbEntity
8
0
100
AcDbLine
10
26.385310505100001
20
7.1307924348896989
30
0
11
26.385310505100001
21
12.12810744823253
31
0
0
LINE
5
121
100
AcDbEntity
8
0
100
AcDbLine
10
26.385310505100001
20
12.12810744823253
30
0
11
21.390339949956747
21
12.12810744823253
31
0
0
ARC
5
122
100
AcDbEntity
8
0
100
AcDbCircle
10
11.978774527128273
20
12.699229262823497
30
0
40
9.428878185409026
210
-0
220
0
230
1
100
AcDbArc
50
-3.4726201346777295
51
90.000000000000313
0
LINE
5
123
100
AcDbEntity
8
0
100
AcDbLine
10
11.97877452712822
20
22.128107448232548
30
0
11
-6.9066410938978962
21
22.128107448232548
31
0
0
LINE
5
124
100
AcDbEntity
8
0
100
AcDbLine
10
-6.9066410938978962
20
22.128107448232548
30
0
11
-6.9066410938978962
21
16.978107448232542
31
0
0
LINE
5
125
100
AcDbEntity
8
0
100
AcDbLine
10
-6.9066410938978962
20
16.978107448232542
30
0
11
-4.4066410938978962
21
16.978107448232542
31
0
0
LINE
5
126
100
AcDbEntity
8
0
100
AcDbLine
10
-4.4066410938978962
20
16.978107448232542
30
0
11
-4.4066410938978962
21
12.128107448232548
31
0
0
LINE
5
127
100
AcDbEntity
8
0
100
AcDbLine
10
-4.4066410938978962
20
12.128107448232548
30
0
11
-14.25664109389789
21
12.128107448232548
31
0
0
LINE
5
128
100
AcDbEntity
8
0
100
AcDbLine
10
-14.25664109389789
20
12.128107448232548
30
0
11
-14.25664109389789
21
16.978107448232542
31
0
0
LINE
5
129
100
AcDbEntity
8
0
100
AcDbLine
10
-14.25664109389789
20
16.978107448232542
30
0
11
-11.75664109389789
21
16.978107448232542
31
0
0
LINE
5
130
100
AcDbEntity
8
0
100
AcDbLine
10
-11.75664109389789
20
16.978107448232542
30
0
11
-11.75664109389789
21
22.128107448232548
31
0
0
LINE
5
131
100
AcDbEntity
8
0
100
AcDbLine
10
-11.75664109389789
20
22.128107448232548
30
0
11
-26.385310505099984
21
22.128107448232548
31
0
0
LINE
5
132
100
AcDbEntity
8
0
100
AcDbLine
10
-26.385310505099984
20
22.128107448232548
30
0
11
-26.385310505099984
21
-3.0218925517674577
31
0
0
LINE
5
133
100
AcDbEntity
8
0
100
AcDbLine
10
-26.385310505099984
20
-3.0218925517674577
30
0
11
-19.964110749034134
21
-3.0218925517674577
31
0
0
ENDSEC
0
SECTION
2
OBJECTS
0
DICTIONARY
5
C
100
AcDbDictionary
3
ACAD_GROUP
350
D
3
ACAD_MLINESTYLE
350
17
0
DICTIONARY
5
D
100
AcDbDictionary
0
DICTIONARY
5
1A
330
C
100
AcDbDictionary
0
DICTIONARY
5
17
100
AcDbDictionary
0
ENDSEC
0
EOF
