0
SECTION
2
HEADER
9
$INSUNITS
70
4
9
$ACADVER
1
AC1014
9
$HANDSEED
5
FFFF
0
ENDSEC
0
SECTION
2
TABLES
0
TABLE
2
VPORT
5
8
100
AcDbSymbolTable
0
ENDTAB
0
TABLE
2
LTYPE
5
5
100
AcDbSymbolTable
0
LTYPE
5
14
100
AcDbSymbolTableRecord
100
AcDbLinetypeTableRecord
2
BYBLOCK
70
0
0
LTYPE
5
15
100
AcDbSymbolTableRecord
100
AcDbLinetypeTableRecord
2
BYLAYER
70
0
0
ENDTAB
0
TABLE
2
LAYER
5
2
100
AcDbSymbolTable
70
2
0
LAYER
5
50
100
AcDbSymbolTableRecord
100
AcDbLayerTableRecord
2
0
70
0
6
CONTINUOUS
0
ENDTAB
0
TABLE
2
STYLE
5
3
100
AcDbSymbolTable
70
1
0
STYLE
5
11
100
AcDbSymbolTableRecord
100
AcDbTextStyleTableRecord
2
STANDARD
70
0
0
ENDTAB
0
TABLE
2
VIEW
5
6
100
AcDbSymbolTable
70
0
0
ENDTAB
0
TABLE
2
UCS
5
7
100
AcDbSymbolTable
70
0
0
ENDTAB
0
TABLE
2
APPID
5
9
100
AcDbSymbolTable
70
2
0
APPID
5
12
100
AcDbSymbolTableRecord
100
AcDbRegAppTableRecord
2
ACAD
70
0
0
ENDTAB
0
TABLE
2
DIMSTYLE
5
A
100
AcDbSymbolTable
70
1
0
ENDTAB
0
TABLE
2
BLOCK_RECORD
5
1
100
AcDbSymbolTable
70
1
0
BLOCK_RECORD
5
1F
100
AcDbSymbolTableRecord
100
AcDbBlockTableRecord
2
*MODEL_SPACE
0
BLOCK_RECORD
5
1B
100
AcDbSymbolTableRecord
100
AcDbBlockTableRecord
2
*PAPER_SPACE
0
ENDTAB
0
ENDSEC
0
SECTION
2
BLOCKS
0
BLOCK
5
20
100
AcDbEntity
100
AcDbBlockBegin
2
*MODEL_SPACE
0
ENDBLK
5
21
100
AcDbEntity
100
AcDbBlockEnd
0
BLOCK
5
1C
100
AcDbEntity
100
AcDbBlockBegin
2
*PAPER_SPACE
0
ENDBLK
5
1D
100
AcDbEntity
100
AcDbBlockEnd
0
ENDSEC
0
SECTION
2
ENTITIES
0
LINE
5
100
100
AcDbEntity
8
0
100
AcDbLine
10
-1.211518737362951
20
10.581226448634613
30
0
11
-1.211518737362951
21
14.431226448634611
31
0
0
LINE
5
101
100
AcDbEntity
8
0
100
AcDbLine
10
8.6384812626371854
20
10.581226448634613
30
0
11
-1.211518737362951
21
10.581226448634613
31
0
0
LINE
5
102
100
AcDbEntity
8
0
100
AcDbLine
10
8.6384812626371854
20
14.431226448634611
30
0
11
8.6384812626371854
21
10.581226448634613
31
0
0
LINE
5
103
100
AcDbEntity
8
0
100
AcDbLine
10
6.6384812626370149
20
14.431226448634611
30
0
11
8.6384812626371854
21
14.431226448634611
31
0
0
LINE
5
104
100
AcDbEntity
8
0
100
AcDbLine
10
6.6384812626370149
20
20.581226448634613
30
0
11
6.6384812626370149
21
14.431226448634611
31
0
0
LINE
5
105
100
AcDbEntity
8
0
100
AcDbLine
10
25.074999999999932
20
20.581226448634613
30
0
11
6.6384812626370149
21
20.581226448634613
31
0
0
LINE
5
106
100
AcDbEntity
8
0
100
AcDbLine
10
25.074999999999932
20
-4.5450936027003763
30
0
11
25.074999999999932
21
20.581226448634613
31
0
0
LINE
5
107
100
AcDbEntity
8
0
100
AcDbLine
10
20.925000000000011
20
-4.5450936027003763
30
0
11
25.074999999999932
21
-4.5450936027003763
31
0
0
LINE
5
108
100
AcDbEntity
8
0
100
AcDbLine
10
20.925000000000011
20
-2.5450936027003834
30
0
11
20.925000000000011
21
-4.5450936027003763
31
0
0
LINE
5
109
100
AcDbEntity
8
0
100
AcDbLine
10
17.074999999999818
20
-2.5450936027003834
30
0
11
20.925000000000011
21
-2.5450936027003834
31
0
0
LINE
5
110
100
AcDbEntity
8
0
100
AcDbLine
10
17.074999999999818
20
-10.395093602700385
30
0
11
17.074999999999818
21
-2.5450936027003834
31
0
0
LINE
5
111
100
AcDbEntity
8
0
100
AcDbLine
10
20.925000000000011
20
-10.395093602700385
30
0
11
17.074999999999818
21
-10.395093602700385
31
0
0
LINE
5
112
100
AcDbEntity
8
0
100
AcDbLine
10
20.925000000000011
20
-8.3950936027003564
30
0
11
20.925000000000011
21
-10.395093602700385
31
0
0
LINE
5
113
100
AcDbEntity
8
0
100
AcDbLine
10
25.074999999999932
20
-8.3950936027003564
30
0
11
20.925000000000011
21
-8.3950936027003564
31
0
0
LINE
5
114
100
AcDbEntity
8
0
100
AcDbLine
10
25.074999999999932
20
-20.581226448634595
30
0
11
25.074999999999932
21
-8.3950936027003564
31
0
0
LINE
5
115
100
AcDbEntity
8
0
100
AcDbLine
10
7.6843163236225109
20
-20.581226448634595
30
0
11
25.074999999999932
21
-20.581226448634595
31
0
0
LINE
5
116
100
AcDbEntity
8
0
100
AcDbLine
10
7.6843163236225109
20
-12.581226448634588
30
0
11
7.6843163236225109
21
-20.581226448634595
31
0
0
LINE
5
117
100
AcDbEntity
8
0
100
AcDbLine
10
1.8536082490132344
20
-12.581226448634588
30
0
11
7.6843163236225109
21
-12.581226448634588
31
0
0
LINE
5
118
100
AcDbEntity
8
0
100
AcDbLine
10
1.8536082490132344
20
-7.4624282177559209
30
0
11
1.8536082490132344
21
-12.581226448634588
31
0
0
ARC
5
119
100
AcDbEntity
8
0
100
AcDbCircle
10
-0.071391750986720126
20
-4.0062264486346422
30
0
40
3.9561288741491825
210
-0
220
0
230
1
100
AcDbArc
50
-60.883513848095781
51
240.88351384809346
0
LINE
5
120
100
AcDbEntity
8
0
100
AcDbLine
10
-1.9963917509869589
20
-12.581226448634588
30
0
11
-1.9963917509868168
21
-7.4624282177558499
31
0
0
LINE
5
121
100
AcDbEntity
8
0
100
AcDbLine
10
-7.8270998255961644
20
-12.581226448634588
30
0
11
-1.9963917509869589
21
-12.581226448634588
31
0
0
LINE
5
122
100
AcDbEntity
8
0
100
AcDbLine
10
-7.8270998255961644
20
-20.581226448634631
30
0
11
-7.8270998255961644
21
-12.581226448634588
31
0
0
LINE
5
123
100
AcDbEntity
8
0
100
AcDbLine
10
-15.53644835700581
20
-20.581226448634631
30
0
11
-7.8270998255961644
21
-20.581226448634631
31
0
0
ARC
5
124
100
AcDbEntity
8
0
100
AcDbCircle
10
-15.53644835700581
20
-10.908800842408581
30
0
40
9.6724256062260192
210
0
220
0
230
1
100
AcDbArc
50
189.54377478137278
51
270
0
LINE
5
125
100
AcDbEntity
8
0
100
AcDbLine
10
-25.074999999999932
20
-4.4312264486345754
30
0
11
-25.074999999999932
21
-12.51249958653446
31
0
0
LINE
5
126
100
AcDbEntity
8
0
100
AcDbLine
10
-20.92499999999994
20
-4.4312264486345754
30
0
11
-25.074999999999932
21
-4.4312264486345754
31
0
0
LINE
5
127
100
AcDbEntity
8
0
100
AcDbLine
10
-20.92499999999994
20
-6.4312264486346038
30
0
11
-20.92499999999994
21
-4.4312264486345754
31
0
0
LINE
5
128
100
AcDbEntity
8
0
100
AcDbLine
10
-17.07499999999996
20
-6.4312264486346038
30
0
11
-20.92499999999994
21
-6.4312264486346038
31
0
0
LINE
5
129
100
AcDbEntity
8
0
100
AcDbLine
10
-17.07499999999996
20
1.4187735513654331
30
0
11
-17.07499999999996
21
-6.4312264486346038
31
0
0
LINE
5
130
100
AcDbEntity
8
0
100
AcDbLine
10
-20.92499999999994
20
1.4187735513654331
30
0
11
-17.07499999999996
21
1.4187735513654331
31
0
0
LINE
5
131
100
AcDbEntity
8
0
100
AcDbLine
10
-20.92499999999994
20
-0.58122644863459527
30
0
11
-20.92499999999994
21
1.4187735513654331
31
0
0
LINE
5
132
100
AcDbEntity
8
0
100
AcDbLine
10
-25.074999999999932
20
-0.58122644863459527
30
0
11
-20.92499999999994
21
-0.58122644863459527
31
0
0
LINE
5
133
100
AcDbEntity
8
0
100
AcDbLine
10
-25.074999999999932
20
20.581226448634613
30
0
11
-25.074999999999932
21
-0.58122644863459527
31
0
0
LINE
5
134
100
AcDbEntity
8
0
100
AcDbLine
10
0.78848126263721952
20
20.581226448634613
30
0
11
-25.074999999999932
21
20.581226448634613
31
0
0
LINE
5
135
100
AcDbEntity
8
0
100
AcDbLine
10
0.78848126263721952
20
14.431226448634611
30
0
11
0.78848126263721952
21
20.581226448634613
31
0
0
LINE
5
136
100
AcDbEntity
8
0
100
AcDbLine
10
-1.211518737362951
20
14.431226448634611
30
0
11
0.78848126263721952
21
14.431226448634611
31
0
0
ENDSEC
0
SECTION
2
OBJECTS
0
DICTIONARY
5
C
100
AcDbDictionary
3
ACAD_GROUP
350
D
3
ACAD_MLINESTYLE
350
17
0
DICTIONARY
5
D
100
AcDbDictionary
0
DICTIONARY
5
1A
330
C
100
AcDbDictionary
0
DICTIONARY
5
17
100
AcDbDictionary
0
ENDSEC
0
EOF
