0
SECTION
2
HEADER
9
$INSUNITS
70
4
9
$ACADVER
1
AC1014
9
$HANDSEED
5
FFFF
0
ENDSEC
0
SECTION
2
TABLES
0
TABLE
2
VPORT
5
8
100
AcDbSymbolTable
0
ENDTAB
0
TABLE
2
LTYPE
5
5
100
AcDbSymbolTable
0
LTYPE
5
14
100
AcDbSymbolTableRecord
100
AcDbLinetypeTableRecord
2
BYBLOCK
70
0
0
LTYPE
5
15
100
AcDbSymbolTableRecord
100
AcDbLinetypeTableRecord
2
BYLAYER
70
0
0
ENDTAB
0
TABLE
2
LAYER
5
2
100
AcDbSymbolTable
70
2
0
LAYER
5
50
100
AcDbSymbolTableRecord
100
AcDbLayerTableRecord
2
0
70
0
6
CONTINUOUS
0
ENDTAB
0
TABLE
2
STYLE
5
3
100
AcDbSymbolTable
70
1
0
STYLE
5
11
100
AcDbSymbolTableRecord
100
AcDbTextStyleTableRecord
2
STANDARD
70
0
0
ENDTAB
0
TABLE
2
VIEW
5
6
100
AcDbSymbolTable
70
0
0
ENDTAB
0
TABLE
2
UCS
5
7
100
AcDbSymbolTable
70
0
0
ENDTAB
0
TABLE
2
APPID
5
9
100
AcDbSymbolTable
70
2
0
APPID
5
12
100
AcDbSymbolTableRecord
100
AcDbRegAppTableRecord
2
ACAD
70
0
0
ENDTAB
0
TABLE
2
DIMSTYLE
5
A
100
AcDbSymbolTable
70
1
0
ENDTAB
0
TABLE
2
BLOCK_RECORD
5
1
100
AcDbSymbolTable
70
1
0
BLOCK_RECORD
5
1F
100
AcDbSymbolTableRecord
100
AcDbBlockTableRecord
2
*MODEL_SPACE
0
BLOCK_RECORD
5
1B
100
AcDbSymbolTableRecord
100
AcDbBlockTableRecord
2
*PAPER_SPACE
0
ENDTAB
0
ENDSEC
0
SECTION
2
BLOCKS
0
BLOCK
5
20
100
AcDbEntity
100
AcDbBlockBegin
2
*MODEL_SPACE
0
ENDBLK
5
21
100
AcDbEntity
100
AcDbBlockEnd
0
BLOCK
5
1C
100
AcDbEntity
100
AcDbBlockBegin
2
*PAPER_SPACE
0
ENDBLK
5
1D
100
AcDbEntity
100
AcDbBlockEnd
0
ENDSEC
0
SECTION
2
ENTITIES
0
ARC
5
100
100
AcDbEntity
8
0
100
AcDbCircle
10
-5.9331589678848218
20
33.236087144267472
30
0
40
4.1061288741490172
210
0
220
0
230
1
100
AcDbArc
50
-239.64593221837649
51
59.64593221837179
0
LINE
5
101
100
AcDbEntity
8
0
100
AcDbLine
10
-3.8581589678847195
20
36.779344026165795
30
0
11
-3.8581589678850037
21
41.661087144267142
31
0
0
LINE
5
102
100
AcDbEntity
8
0
100
AcDbLine
10
-3.8581589678850037
20
41.661087144267142
30
0
11
6.3428319293745972
21
41.661087144267142
31
0
0
ARC
5
103
100
AcDbEntity
8
0
100
AcDbCircle
10
-90.091752451120186
20
44.88458353078034
30
0
40
96.488444870837526
210
-0
220
0
230
1
100
AcDbArc
50
333.4685227240717
51
358.08550016827394
0
LINE
5
104
100
AcDbEntity
8
0
100
AcDbLine
10
-3.7645931796950549
20
1.7842173407042949
30
0
11
-15.451182977579094
21
9.6350002127284817
31
0
0
LINE
5
105
100
AcDbEntity
8
0
100
AcDbLine
10
-15.451182977579094
20
9.6350002127284817
30
0
11
-25.278319527028259
21
-4.9935681241245433
31
0
0
LINE
5
106
100
AcDbEntity
8
0
100
AcDbLine
10
-25.278319527028259
20
-4.9935681241245433
30
0
11
-21.029270462189231
21
-7.8479817894924153
31
0
0
ARC
5
107
100
AcDbEntity
8
0
100
AcDbCircle
10
-19.233766092881694
20
-11.373193801368409
30
0
40
3.9561288741491882
210
0
220
0
230
1
100
AcDbArc
50
-181.65745551484494
51
116.99121393353509
0
LINE
5
108
100
AcDbEntity
8
0
100
AcDbLine
10
-23.188239774011663
20
-11.258766644944238
30
0
11
-28.189149013932138
21
-9.3265971658841806
31
0
0
LINE
5
109
100
AcDbEntity
8
0
100
AcDbLine
10
-28.189149013932138
20
-9.3265971658841806
30
0
11
-37.252345271166121
21
-22.817972311850934
31
0
0
LINE
5
110
100
AcDbEntity
8
0
100
AcDbLine
10
-37.252345271166121
20
-22.817972311850934
30
0
11
-25.561861598684175
21
-30.671370999483383
31
0
0
ARC
5
111
100
AcDbEntity
8
0
100
AcDbCircle
10
-195.25452543441077
20
101.97035118412296
30
0
40
215.38204805298403
210
-0
220
0
230
1
100
AcDbArc
50
318.21768326590001
51
321.98673423277614
0
LINE
5
112
100
AcDbEntity
8
0
100
AcDbLine
10
-34.648078668204789
20
-41.53921602528564
30
0
11
-26.463629175632946
21
-49.063629268456253
31
0
0
LINE
5
113
100
AcDbEntity
8
0
100
AcDbLine
10
-26.463629175632946
20
-49.063629268456253
30
0
11
-29.767589309785194
21
-52.657410467007821
31
0
0
ARC
5
114
100
AcDbEntity
8
0
100
AcDbCircle
10
-30.638115143088669
20
-56.670199908864305
30
0
40
4.1061288741494195
210
0
220
-0
230
1
100
AcDbArc
50
-282.23996170172796
51
17.051902735026761
0
LINE
5
115
100
AcDbEntity
8
0
100
AcDbLine
10
-26.712493698816218
20
-55.466127399672501
30
0
11
-23.408533564663685
21
-51.872346201121303
31
0
0
LINE
5
116
100
AcDbEntity
8
0
100
AcDbLine
10
-23.408533564663685
20
-51.872346201121303
30
0
11
-15.223738463980396
21
-59.397077180782283
31
0
0
ARC
5
117
100
AcDbEntity
8
0
100
AcDbCircle
10
-195.25452543441062
20
108.84641067323554
30
0
40
246.4081075420967
210
-0
220
0
230
1
100
AcDbArc
50
316.93842855103912
51
327.14151601383679
0
ARC
5
118
100
AcDbEntity
8
0
100
AcDbCircle
10
-137.4947446396132
20
66.133108104665055
30
0
40
174.77335440720628
210
-0
220
0
230
1
100
AcDbArc
50
328.63043717821381
51
358.5829716015208
0
LINE
5
119
100
AcDbEntity
8
0
100
AcDbLine
10
37.225161340114425
20
61.811087144267212
30
0
11
22.994096458787965
21
61.811087144267262
31
0
0
LINE
5
120
100
AcDbEntity
8
0
100
AcDbLine
10
22.994096458787965
20
61.811087144267262
30
0
11
22.994096458788249
21
56.692288913388282
31
0
0
ARC
5
121
100
AcDbEntity
8
0
100
AcDbCircle
10
21.06909645878801
20
53.236087144267465
30
0
40
3.9561288741489582
210
0
220
0
230
1
100
AcDbArc
50
-240.88351384809386
51
60.883513848088867
0
LINE
5
122
100
AcDbEntity
8
0
100
AcDbLine
10
19.144096458788056
20
56.692288913388481
30
0
11
19.144096458788056
21
61.811087144267248
31
0
0
LINE
5
123
100
AcDbEntity
8
0
100
AcDbLine
10
19.144096458788056
20
61.811087144267248
30
0
11
-18.361667605717003
21
61.811087144267333
31
0
0
LINE
5
124
100
AcDbEntity
8
0
100
AcDbLine
10
-18.361667605717003
20
61.811087144267333
30
0
11
-18.361667605717003
21
53.661087144267192
31
0
0
LINE
5
125
100
AcDbEntity
8
0
100
AcDbLine
10
-18.361667605717003
20
53.661087144267192
30
0
11
-13.242869374838335
21
53.661087144267199
31
0
0
ARC
5
126
100
AcDbEntity
8
0
100
AcDbCircle
10
-9.7866676057171276
20
51.736087144267245
30
0
40
3.9561288741491425
210
0
220
0
230
1
100
AcDbArc
50
-150.88351384809471
51
150.88351384809519
0
LINE
5
127
100
AcDbEntity
8
0
100
AcDbLine
10
-13.242869374838335
20
49.811087144267248
30
0
11
-18.361667605717003
21
49.811087144267283
31
0
0
LINE
5
128
100
AcDbEntity
8
0
100
AcDbLine
10
-18.361667605717003
20
49.811087144267283
30
0
11
-18.361667605717003
21
41.661087144267142
31
0
0
LINE
5
129
100
AcDbEntity
8
0
100
AcDbLine
10
-18.361667605717003
20
41.661087144267142
30
0
11
-8.0081589678846399
21
41.661087144267142
31
0
0
LINE
5
130
100
AcDbEntity
8
0
100
AcDbLine
10
-8.0081589678846399
20
41.661087144267142
30
0
11
-8.0081589678846399
21
36.779344026165965
31
0
0
LINE
5
131
100
AcDbEntity
8
0
100
AcDbLine
10
-1.6006269872485746
20
-26.037829783570174
30
0
11
-0.73248480596646459
21
-24.404174632358995
31
0
0
LINE
5
132
100
AcDbEntity
8
0
100
AcDbLine
10
-0.73248480596646459
20
-24.404174632358995
30
0
11
2.6672840222298078
21
-26.210848901513764
31
0
0
LINE
5
133
100
AcDbEntity
8
0
100
AcDbLine
10
2.6672840222298078
20
-26.210848901513764
30
0
11
1.7991418409476978
21
-27.844504052724997
31
0
0
LINE
5
134
100
AcDbEntity
8
0
100
AcDbLine
10
1.7991418409476978
20
-27.844504052724997
30
0
11
-1.6006269872485746
21
-26.037829783570174
31
0
0
LINE
5
135
100
AcDbEntity
8
0
100
AcDbLine
10
-11.950529459100778
20
-20.537778624480776
30
0
11
-11.082387277818668
21
-18.904123473269632
31
0
0
LINE
5
136
100
AcDbEntity
8
0
100
AcDbLine
10
-11.082387277818668
20
-18.904123473269632
30
0
11
-7.6826184496223959
21
-20.710797742424401
31
0
0
LINE
5
137
100
AcDbEntity
8
0
100
AcDbLine
10
-7.6826184496223959
20
-20.710797742424401
30
0
11
-8.5507606309045059
21
-22.344452893635598
31
0
0
LINE
5
138
100
AcDbEntity
8
0
100
AcDbLine
10
-8.5507606309045059
20
-22.344452893635598
30
0
11
-11.950529459100778
21
-20.537778624480776
31
0
0
ENDSEC
0
SECTION
2
OBJECTS
0
DICTIONARY
5
C
100
AcDbDictionary
3
ACAD_GROUP
350
D
3
ACAD_MLINESTYLE
350
17
0
DICTIONARY
5
D
100
AcDbDictionary
0
DICTIONARY
5
1A
330
C
100
AcDbDictionary
0
DICTIONARY
5
17
100
AcDbDictionary
0
ENDSEC
0
EOF
