0
SECTION
2
HEADER
9
$INSUNITS
70
4
9
$ACADVER
1
AC1014
9
$HANDSEED
5
FFFF
0
ENDSEC
0
SECTION
2
TABLES
0
TABLE
2
VPORT
5
8
100
AcDbSymbolTable
0
ENDTAB
0
TABLE
2
LTYPE
5
5
100
AcDbSymbolTable
0
LTYPE
5
14
100
AcDbSymbolTableRecord
100
AcDbLinetypeTableRecord
2
BYBLOCK
70
0
0
LTYPE
5
15
100
AcDbSymbolTableRecord
100
AcDbLinetypeTableRecord
2
BYLAYER
70
0
0
ENDTAB
0
TABLE
2
LAYER
5
2
100
AcDbSymbolTable
70
2
0
LAYER
5
50
100
AcDbSymbolTableRecord
100
AcDbLayerTableRecord
2
0
70
0
6
CONTINUOUS
0
ENDTAB
0
TABLE
2
STYLE
5
3
100
AcDbSymbolTable
70
1
0
STYLE
5
11
100
AcDbSymbolTableRecord
100
AcDbTextStyleTableRecord
2
STANDARD
70
0
0
ENDTAB
0
TABLE
2
VIEW
5
6
100
AcDbSymbolTable
70
0
0
ENDTAB
0
TABLE
2
UCS
5
7
100
AcDbSymbolTable
70
0
0
ENDTAB
0
TABLE
2
APPID
5
9
100
AcDbSymbolTable
70
2
0
APPID
5
12
100
AcDbSymbolTableRecord
100
AcDbRegAppTableRecord
2
ACAD
70
0
0
ENDTAB
0
TABLE
2
DIMSTYLE
5
A
100
AcDbSymbolTable
70
1
0
ENDTAB
0
TABLE
2
BLOCK_RECORD
5
1
100
AcDbSymbolTable
70
1
0
BLOCK_RECORD
5
1F
100
AcDbSymbolTableRecord
100
AcDbBlockTableRecord
2
*MODEL_SPACE
0
BLOCK_RECORD
5
1B
100
AcDbSymbolTableRecord
100
AcDbBlockTableRecord
2
*PAPER_SPACE
0
ENDTAB
0
ENDSEC
0
SECTION
2
BLOCKS
0
BLOCK
5
20
100
AcDbEntity
100
AcDbBlockBegin
2
*MODEL_SPACE
0
ENDBLK
5
21
100
AcDbEntity
100
AcDbBlockEnd
0
BLOCK
5
1C
100
AcDbEntity
100
AcDbBlockBegin
2
*PAPER_SPACE
0
ENDBLK
5
1D
100
AcDbEntity
100
AcDbBlockEnd
0
ENDSEC
0
SECTION
2
ENTITIES
0
LINE
5
100
100
AcDbEntity
8
0
100
AcDbLine
10
-33.074999999999974
20
-28.042618455198642
30
0
11
-33.074999999999974
21
-38.192618455198506
31
0
0
LINE
5
101
100
AcDbEntity
8
0
100
AcDbLine
10
-33.074999999999974
20
-38.192618455198506
30
0
11
-28.925000000000125
21
-38.192618455198613
31
0
0
LINE
5
102
100
AcDbEntity
8
0
100
AcDbLine
10
-28.925000000000125
20
-38.192618455198613
30
0
11
-28.925000000000125
21
-36.192618455198513
31
0
0
LINE
5
103
100
AcDbEntity
8
0
100
AcDbLine
10
-28.925000000000125
20
-36.192618455198513
30
0
11
-25.075000000000003
21
-36.192618455198513
31
0
0
LINE
5
104
100
AcDbEntity
8
0
100
AcDbLine
10
-25.075000000000003
20
-36.192618455198513
30
0
11
-25.075000000000003
21
-45.192618455198499
31
0
0
LINE
5
105
100
AcDbEntity
8
0
100
AcDbLine
10
-25.075000000000003
20
-45.192618455198499
30
0
11
25.07499999999979
21
-45.192618455198499
31
0
0
LINE
5
106
100
AcDbEntity
8
0
100
AcDbLine
10
25.07499999999979
20
-45.192618455198499
30
0
11
25.07499999999979
21
-37.192618455198456
31
0
0
LINE
5
107
100
AcDbEntity
8
0
100
AcDbLine
10
25.07499999999979
20
-37.192618455198456
30
0
11
28.924999999999983
21
-37.192618455198563
31
0
0
LINE
5
108
100
AcDbEntity
8
0
100
AcDbLine
10
28.924999999999983
20
-37.192618455198563
30
0
11
28.924999999999983
21
-39.192618455198556
31
0
0
LINE
5
109
100
AcDbEntity
8
0
100
AcDbLine
10
28.924999999999983
20
-39.192618455198556
30
0
11
33.074999999999903
21
-39.192618455198556
31
0
0
LINE
5
110
100
AcDbEntity
8
0
100
AcDbLine
10
33.074999999999903
20
-39.192618455198556
30
0
11
33.074999999999903
21
-27.042618455198593
31
0
0
LINE
5
111
100
AcDbEntity
8
0
100
AcDbLine
10
33.074999999999903
20
-27.042618455198593
30
0
11
28.924999999999983
21
-27.042618455198593
31
0
0
LINE
5
112
100
AcDbEntity
8
0
100
AcDbLine
10
28.924999999999983
20
-27.042618455198593
30
0
11
28.924999999999983
21
-29.042618455198692
31
0
0
LINE
5
113
100
AcDbEntity
8
0
100
AcDbLine
10
28.924999999999983
20
-29.042618455198692
30
0
11
25.07499999999979
21
-29.042618455198692
31
0
0
LINE
5
114
100
AcDbEntity
8
0
100
AcDbLine
10
25.07499999999979
20
-29.042618455198692
30
0
11
25.07499999999979
21
16.216298403863547
31
0
0
LINE
5
115
100
AcDbEntity
8
0
100
AcDbLine
10
25.07499999999979
20
16.216298403863547
30
0
11
20.924999999999869
21
16.216298403863547
31
0
0
LINE
5
116
100
AcDbEntity
8
0
100
AcDbLine
10
20.924999999999869
20
16.216298403863547
30
0
11
20.924999999999869
21
14.216298403863519
31
0
0
LINE
5
117
100
AcDbEntity
8
0
100
AcDbLine
10
20.924999999999869
20
14.216298403863519
30
0
11
17.074999999999676
21
14.216298403863519
31
0
0
LINE
5
118
100
AcDbEntity
8
0
100
AcDbLine
10
17.074999999999676
20
14.216298403863519
30
0
11
17.074999999999676
21
22.066298403863662
31
0
0
LINE
5
119
100
AcDbEntity
8
0
100
AcDbLine
10
17.074999999999676
20
22.066298403863662
30
0
11
20.924999999999869
21
22.066298403863662
31
0
0
LINE
5
120
100
AcDbEntity
8
0
100
AcDbLine
10
20.924999999999869
20
22.066298403863662
30
0
11
20.924999999999869
21
20.066298403863669
31
0
0
LINE
5
121
100
AcDbEntity
8
0
100
AcDbLine
10
20.924999999999869
20
20.066298403863669
30
0
11
25.07499999999979
21
20.066298403863669
31
0
0
LINE
5
122
100
AcDbEntity
8
0
100
AcDbLine
10
25.07499999999979
20
20.066298403863669
30
0
11
25.07499999999979
21
45.192618455198513
31
0
0
LINE
5
123
100
AcDbEntity
8
0
100
AcDbLine
10
25.07499999999979
20
45.192618455198513
30
0
11
6.6384812626370149
21
45.192618455198513
31
0
0
LINE
5
124
100
AcDbEntity
8
0
100
AcDbLine
10
6.6384812626370149
20
45.192618455198513
30
0
11
6.6384812626370149
21
39.042618455198657
31
0
0
LINE
5
125
100
AcDbEntity
8
0
100
AcDbLine
10
6.6384812626370149
20
39.042618455198657
30
0
11
8.6384812626370433
21
39.042618455198657
31
0
0
LINE
5
126
100
AcDbEntity
8
0
100
AcDbLine
10
8.6384812626370433
20
39.042618455198657
30
0
11
8.6384812626370433
21
35.192618455198513
31
0
0
LINE
5
127
100
AcDbEntity
8
0
100
AcDbLine
10
8.6384812626370433
20
35.192618455198513
30
0
11
-1.2115187373630931
21
35.192618455198513
31
0
0
LINE
5
128
100
AcDbEntity
8
0
100
AcDbLine
10
-1.2115187373630931
20
35.192618455198513
30
0
11
-1.2115187373630931
21
39.042618455198657
31
0
0
LINE
5
129
100
AcDbEntity
8
0
100
AcDbLine
10
-1.2115187373630931
20
39.042618455198657
30
0
11
0.7884812626369353
21
39.042618455198657
31
0
0
LINE
5
130
100
AcDbEntity
8
0
100
AcDbLine
10
0.7884812626369353
20
39.042618455198657
30
0
11
0.7884812626369353
21
45.192618455198513
31
0
0
LINE
5
131
100
AcDbEntity
8
0
100
AcDbLine
10
0.7884812626369353
20
45.192618455198513
30
0
11
-25.075000000000003
21
45.192618455198513
31
0
0
LINE
5
132
100
AcDbEntity
8
0
100
AcDbLine
10
-25.075000000000003
20
45.192618455198513
30
0
11
-25.075000000000003
21
24.03016555792945
31
0
0
LINE
5
133
100
AcDbEntity
8
0
100
AcDbLine
10
-25.075000000000003
20
24.03016555792945
30
0
11
-20.925000000000153
21
24.03016555792945
31
0
0
LINE
5
134
100
AcDbEntity
8
0
100
AcDbLine
10
-20.925000000000153
20
24.03016555792945
30
0
11
-20.925000000000153
21
26.030165557929479
31
0
0
LINE
5
135
100
AcDbEntity
8
0
100
AcDbLine
10
-20.925000000000153
20
26.030165557929479
30
0
11
-17.075000000000031
21
26.030165557929479
31
0
0
LINE
5
136
100
AcDbEntity
8
0
100
AcDbLine
10
-17.075000000000031
20
26.030165557929479
30
0
11
-17.075000000000031
21
18.1801655579293
31
0
0
LINE
5
137
100
AcDbEntity
8
0
100
AcDbLine
10
-17.075000000000031
20
18.1801655579293
30
0
11
-20.925000000000153
21
18.1801655579293
31
0
0
LINE
5
138
100
AcDbEntity
8
0
100
AcDbLine
10
-20.925000000000153
20
18.1801655579293
30
0
11
-20.925000000000153
21
20.180165557929328
31
0
0
LINE
5
139
100
AcDbEntity
8
0
100
AcDbLine
10
-20.925000000000153
20
20.180165557929328
30
0
11
-25.075000000000003
21
20.180165557929328
31
0
0
LINE
5
140
100
AcDbEntity
8
0
100
AcDbLine
10
-25.075000000000003
20
20.180165557929328
30
0
11
-25.075000000000003
21
-30.042618455198635
31
0
0
LINE
5
141
100
AcDbEntity
8
0
100
AcDbLine
10
-25.075000000000003
20
-30.042618455198635
30
0
11
-28.925000000000125
21
-30.042618455198635
31
0
0
LINE
5
142
100
AcDbEntity
8
0
100
AcDbLine
10
-28.925000000000125
20
-30.042618455198635
30
0
11
-28.925000000000125
21
-28.042618455198642
31
0
0
LINE
5
143
100
AcDbEntity
8
0
100
AcDbLine
10
-28.925000000000125
20
-28.042618455198642
30
0
11
-33.074999999999974
21
-28.042618455198642
31
0
0
ENDSEC
0
SECTION
2
OBJECTS
0
DICTIONARY
5
C
100
AcDbDictionary
3
ACAD_GROUP
350
D
3
ACAD_MLINESTYLE
350
17
0
DICTIONARY
5
D
100
AcDbDictionary
0
DICTIONARY
5
1A
330
C
100
AcDbDictionary
0
DICTIONARY
5
17
100
AcDbDictionary
0
ENDSEC
0
EOF
