0
SECTION
2
HEADER
9
$INSUNITS
70
4
9
$ACADVER
1
AC1014
9
$HANDSEED
5
FFFF
0
ENDSEC
0
SECTION
2
TABLES
0
TABLE
2
VPORT
5
8
100
AcDbSymbolTable
0
ENDTAB
0
TABLE
2
LTYPE
5
5
100
AcDbSymbolTable
0
LTYPE
5
14
100
AcDbSymbolTableRecord
100
AcDbLinetypeTableRecord
2
BYBLOCK
70
0
0
LTYPE
5
15
100
AcDbSymbolTableRecord
100
AcDbLinetypeTableRecord
2
BYLAYER
70
0
0
ENDTAB
0
TABLE
2
LAYER
5
2
100
AcDbSymbolTable
70
2
0
LAYER
5
50
100
AcDbSymbolTableRecord
100
AcDbLayerTableRecord
2
0
70
0
6
CONTINUOUS
0
ENDTAB
0
TABLE
2
STYLE
5
3
100
AcDbSymbolTable
70
1
0
STYLE
5
11
100
AcDbSymbolTableRecord
100
AcDbTextStyleTableRecord
2
STANDARD
70
0
0
ENDTAB
0
TABLE
2
VIEW
5
6
100
AcDbSymbolTable
70
0
0
ENDTAB
0
TABLE
2
UCS
5
7
100
AcDbSymbolTable
70
0
0
ENDTAB
0
TABLE
2
APPID
5
9
100
AcDbSymbolTable
70
2
0
APPID
5
12
100
AcDbSymbolTableRecord
100
AcDbRegAppTableRecord
2
ACAD
70
0
0
ENDTAB
0
TABLE
2
DIMSTYLE
5
A
100
AcDbSymbolTable
70
1
0
ENDTAB
0
TABLE
2
BLOCK_RECORD
5
1
100
AcDbSymbolTable
70
1
0
BLOCK_RECORD
5
1F
100
AcDbSymbolTableRecord
100
AcDbBlockTableRecord
2
*MODEL_SPACE
0
BLOCK_RECORD
5
1B
100
AcDbSymbolTableRecord
100
AcDbBlockTableRecord
2
*PAPER_SPACE
0
ENDTAB
0
ENDSEC
0
SECTION
2
BLOCKS
0
BLOCK
5
20
100
AcDbEntity
100
AcDbBlockBegin
2
*MODEL_SPACE
0
ENDBLK
5
21
100
AcDbEntity
100
AcDbBlockEnd
0
BLOCK
5
1C
100
AcDbEntity
100
AcDbBlockBegin
2
*PAPER_SPACE
0
ENDBLK
5
1D
100
AcDbEntity
100
AcDbBlockEnd
0
ENDSEC
0
SECTION
2
ENTITIES
0
LINE
5
100
100
AcDbEntity
8
0
100
AcDbLine
10
71.775700427556075
20
26.082940501433178
30
0
11
71.775700427556075
21
32.079644558516236
31
0
0
SPLINE
5
101
100
AcDbEntity
8
0
100
AcDbSpline
70
0
71
3
72
29
73
25
74
0
42
0.000000001
43
0.0000000001
44
0.0000000001
40
-1.0003929701181649
40
-1.0003929701181649
40
-1.0003929701181649
40
-1.0003929701181649
40
-1
40
-1
40
-1
40
-0.78869345383256562
40
-0.78869345383256562
40
-0.78869345383256562
40
-0.59152009037442421
40
-0.59152009037442421
40
-0.59152009037442421
40
-0.41064382010169675
40
-0.41064382010169675
40
-0.41064382010169675
40
-0.20532191005084838
40
-0.20532191005084838
40
-0.20532191005084838
40
-0.046140223910619088
40
-0.046140223910619088
40
-0.046140223910619088
40
0
40
0
40
0
40
0.00042689034465049681
40
0.00042689034465049681
40
0.00042689034465049681
40
0.00042689034465049681
10
71.775700427555591
20
32.0796445585162
30
0
10
71.751823191369908
20
32.080717981457845
30
0
10
71.727945955184282
20
32.081791404399489
30
0
10
71.704068718998684
20
32.082864827341133
30
0
10
58.858012364103551
20
32.66037101330415
30
0
10
46.660261301825905
20
31.38913856208859
30
0
10
35.177568496493699
20
28.583925367759591
30
0
10
24.462892576373569
20
25.96633811939892
30
0
10
14.391468957776752
20
22.024736654244883
30
0
10
4.9258780489455489
20
17.359347866463075
30
0
10
-3.7573474612806024
20
13.079570372657123
30
0
10
-11.914356074680619
20
8.187894646023679
30
0
10
-19.905168789277781
20
3.4120282729335472
30
0
10
-28.975949201466982
20
-2.0093020341981571
30
0
10
-37.865492941524046
20
-7.2479552597668118
30
0
10
-47.541115757500734
20
-11.032374492305586
30
0
10
-55.042419217626417
20
-13.966353795088473
30
0
10
-63.036560658493066
20
-16.010221549732435
30
0
10
-71.842667588393311
20
-16.78319079693523
30
0
10
-74.395195805543324
20
-17.007242790645982
30
0
10
-77.014050410804515
20
-17.126857275911647
30
0
10
-79.701119353790062
20
-17.139844387668717
30
0
10
-79.725998525479085
20
-17.139964633404894
30
0
10
-79.75087769716815
20
-17.140084879141071
30
0
10
-79.775756868857172
20
-17.140205124877177
30
0
0
LINE
5
102
100
AcDbEntity
8
0
100
AcDbLine
10
-79.775756868857215
20
-17.140205124877212
30
0
11
-79.775756868857172
21
-23.289843511694777
31
0
0
LINE
5
103
100
AcDbEntity
8
0
100
AcDbLine
10
-79.775756868857172
20
-23.289843511694777
30
0
11
-74.625756868857167
21
-23.289843511694777
31
0
0
LINE
5
104
100
AcDbEntity
8
0
100
AcDbLine
10
-74.625756868857167
20
-23.289843511694777
30
0
11
-74.625756868857167
21
-21.289843511694748
31
0
0
LINE
5
105
100
AcDbEntity
8
0
100
AcDbLine
10
-74.625756868857167
20
-21.289843511694748
30
0
11
-69.775756868857172
21
-21.289843511694748
31
0
0
LINE
5
106
100
AcDbEntity
8
0
100
AcDbLine
10
-69.775756868857172
20
-21.289843511694748
30
0
11
-69.775756868857172
21
-28.139843511694771
31
0
0
LINE
5
107
100
AcDbEntity
8
0
100
AcDbLine
10
-69.775756868857172
20
-28.139843511694771
30
0
11
-74.625756868857167
21
-28.139843511694771
31
0
0
LINE
5
108
100
AcDbEntity
8
0
100
AcDbLine
10
-74.625756868857167
20
-28.139843511694771
30
0
11
-74.625756868857167
21
-26.139843511694743
31
0
0
LINE
5
109
100
AcDbEntity
8
0
100
AcDbLine
10
-74.625756868857167
20
-26.139843511694743
30
0
11
-79.775756868857172
21
-26.139843511694743
31
0
0
LINE
5
110
100
AcDbEntity
8
0
100
AcDbLine
10
-79.775756868857172
20
-26.139843511694743
30
0
11
-79.775756868857172
21
-32.289843511694762
31
0
0
LINE
5
111
100
AcDbEntity
8
0
100
AcDbLine
10
-79.775756868857172
20
-32.289843511694762
30
0
11
-5.1933084965988385
21
-32.289843511694762
31
0
0
LINE
5
112
100
AcDbEntity
8
0
100
AcDbLine
10
-5.1933084965988385
20
-32.289843511694762
30
0
11
-5.1933084965988385
21
-23.289843511694741
31
0
0
LINE
5
113
100
AcDbEntity
8
0
100
AcDbLine
10
-5.1933084965988385
20
-23.289843511694741
30
0
11
0.65669150340117
21
-23.289843511694741
31
0
0
LINE
5
114
100
AcDbEntity
8
0
100
AcDbLine
10
0.65669150340117
20
-23.289843511694741
30
0
11
0.65669150340117
21
-26.289843511694677
31
0
0
LINE
5
115
100
AcDbEntity
8
0
100
AcDbLine
10
0.65669150340117
20
-26.289843511694677
30
0
11
4.8066915034011615
21
-26.289843511694677
31
0
0
LINE
5
116
100
AcDbEntity
8
0
100
AcDbLine
10
4.8066915034011615
20
-26.289843511694677
30
0
11
4.8066915034011615
21
-14.139843511694785
31
0
0
LINE
5
117
100
AcDbEntity
8
0
100
AcDbLine
10
4.8066915034011615
20
-14.139843511694785
30
0
11
0.65669150340117
21
-14.139843511694785
31
0
0
LINE
5
118
100
AcDbEntity
8
0
100
AcDbLine
10
0.65669150340117
20
-14.139843511694785
30
0
11
0.65669150340117
21
-17.139843511694721
31
0
0
LINE
5
119
100
AcDbEntity
8
0
100
AcDbLine
10
0.65669150340117
20
-17.139843511694721
30
0
11
-5.1933084965988385
21
-17.139843511694721
31
0
0
LINE
5
120
100
AcDbEntity
8
0
100
AcDbLine
10
-5.1933084965988385
20
-17.139843511694721
30
0
11
-5.1933084965988385
21
-8.2565021386384174
31
0
0
SPLINE
5
121
100
AcDbEntity
8
0
100
AcDbSpline
70
0
71
3
72
23
73
19
74
0
42
0.000000001
43
0.0000000001
44
0.0000000001
40
0.54598602729781676
40
0.54598602729781676
40
0.54598602729781676
40
0.54598602729781676
40
0.64460387172731892
40
0.64460387172731892
40
0.64460387172731892
40
0.75506845643825315
40
0.75506845643825315
40
0.75506845643825315
40
0.87753422821912652
40
0.87753422821912652
40
0.87753422821912652
40
0.97805525410904215
40
0.97805525410904215
40
0.97805525410904215
40
1
40
1
40
1
40
1.0002557745681211
40
1.0002557745681211
40
1.0002557745681211
40
1.0002557745681211
10
-5.1933084965988741
20
-8.2565021386384174
30
0
10
-0.44914474844834018
20
-5.3030773315488133
30
0
10
4.0554691185731073
20
-2.3046630792534373
30
0
10
8.3221208065559082
20
0.52422321245234826
30
0
10
13.10131578435886
20
3.6929372643106007
30
0
10
17.587057501643208
20
6.6461372331184876
30
0
10
22.487600540732338
20
9.1321551344830709
30
0
10
27.920552531616245
20
11.888261100466444
30
0
10
33.913686360847599
20
14.067667638515822
30
0
10
41.755452664164814
20
15.427127799644254
30
0
10
48.192046188507653
20
16.542985137297848
30
0
10
55.897918452684756
20
17.10674072712365
30
0
10
65.301633904735496
20
17.054479215117304
30
0
10
67.35455909326393
20
17.043070004052225
30
0
10
69.486520321511279
20
17.002607953867823
30
0
10
71.698340521533652
20
16.932977638337086
30
0
10
71.724127156874459
20
16.932165849225456
30
0
10
71.749913792215267
20
16.931354060113826
30
0
10
71.775700427556075
20
16.930542271002231
30
0
0
LINE
5
122
100
AcDbEntity
8
0
100
AcDbLine
10
71.77570042755616
20
16.930542271002196
30
0
11
71.775700427556075
21
22.932940501433166
31
0
0
LINE
5
123
100
AcDbEntity
8
0
100
AcDbLine
10
71.775700427556075
20
22.932940501433166
30
0
11
75.700700427556058
21
22.932940501433201
31
0
0
LINE
5
124
100
AcDbEntity
8
0
100
AcDbLine
10
75.700700427556058
20
22.932940501433201
30
0
11
79.775699822694037
21
22.932907657397053
31
0
0
LINE
5
125
100
AcDbEntity
8
0
100
AcDbLine
10
79.775699822694037
20
22.932907657397053
30
0
11
79.775757473589238
21
30.082908261658545
31
0
0
LINE
5
126
100
AcDbEntity
8
0
100
AcDbLine
10
79.775757473589238
20
30.082908261658545
30
0
11
75.54956990207981
21
30.082908261658581
31
0
0
LINE
5
127
100
AcDbEntity
8
0
100
AcDbLine
10
75.54956990207981
20
30.082908261658581
30
0
11
75.592609289962638
21
26.082940501433178
31
0
0
LINE
5
128
100
AcDbEntity
8
0
100
AcDbLine
10
75.592609289962638
20
26.082940501433178
30
0
11
71.775700427556075
21
26.082940501433178
31
0
0
ENDSEC
0
SECTION
2
OBJECTS
0
DICTIONARY
5
C
100
AcDbDictionary
3
ACAD_GROUP
350
D
3
ACAD_MLINESTYLE
350
17
0
DICTIONARY
5
D
100
AcDbDictionary
0
DICTIONARY
5
1A
330
C
100
AcDbDictionary
0
DICTIONARY
5
17
100
AcDbDictionary
0
ENDSEC
0
EOF
