0
SECTION
2
HEADER
9
$INSUNITS
70
4
9
$ACADVER
1
AC1014
9
$HANDSEED
5
FFFF
0
ENDSEC
0
SECTION
2
TABLES
0
TABLE
2
VPORT
5
8
100
AcDbSymbolTable
0
ENDTAB
0
TABLE
2
LTYPE
5
5
100
AcDbSymbolTable
0
LTYPE
5
14
100
AcDbSymbolTableRecord
100
AcDbLinetypeTableRecord
2
BYBLOCK
70
0
0
LTYPE
5
15
100
AcDbSymbolTableRecord
100
AcDbLinetypeTableRecord
2
BYLAYER
70
0
0
ENDTAB
0
TABLE
2
LAYER
5
2
100
AcDbSymbolTable
70
2
0
LAYER
5
50
100
AcDbSymbolTableRecord
100
AcDbLayerTableRecord
2
0
70
0
6
CONTINUOUS
0
ENDTAB
0
TABLE
2
STYLE
5
3
100
AcDbSymbolTable
70
1
0
STYLE
5
11
100
AcDbSymbolTableRecord
100
AcDbTextStyleTableRecord
2
STANDARD
70
0
0
ENDTAB
0
TABLE
2
VIEW
5
6
100
AcDbSymbolTable
70
0
0
ENDTAB
0
TABLE
2
UCS
5
7
100
AcDbSymbolTable
70
0
0
ENDTAB
0
TABLE
2
APPID
5
9
100
AcDbSymbolTable
70
2
0
APPID
5
12
100
AcDbSymbolTableRecord
100
AcDbRegAppTableRecord
2
ACAD
70
0
0
ENDTAB
0
TABLE
2
DIMSTYLE
5
A
100
AcDbSymbolTable
70
1
0
ENDTAB
0
TABLE
2
BLOCK_RECORD
5
1
100
AcDbSymbolTable
70
1
0
BLOCK_RECORD
5
1F
100
AcDbSymbolTableRecord
100
AcDbBlockTableRecord
2
*MODEL_SPACE
0
BLOCK_RECORD
5
1B
100
AcDbSymbolTableRecord
100
AcDbBlockTableRecord
2
*PAPER_SPACE
0
ENDTAB
0
ENDSEC
0
SECTION
2
BLOCKS
0
BLOCK
5
20
100
AcDbEntity
100
AcDbBlockBegin
2
*MODEL_SPACE
0
ENDBLK
5
21
100
AcDbEntity
100
AcDbBlockEnd
0
BLOCK
5
1C
100
AcDbEntity
100
AcDbBlockBegin
2
*PAPER_SPACE
0
ENDBLK
5
1D
100
AcDbEntity
100
AcDbBlockEnd
0
ENDSEC
0
SECTION
2
ENTITIES
0
LINE
5
100
100
AcDbEntity
8
0
100
AcDbLine
10
18.195222673334968
20
-9.9544746137249973
30
0
11
16.34948312481157
21
-9.828993463679403
31
0
0
LINE
5
101
100
AcDbEntity
8
0
100
AcDbLine
10
16.34948312481157
20
-9.828993463679403
30
0
11
16.748503365083565
21
-3.9596860986787163
31
0
0
LINE
5
102
100
AcDbEntity
8
0
100
AcDbLine
10
16.748503365083565
20
-3.9596860986787163
30
0
11
18.594242913606962
21
-4.0851672487243107
31
0
0
LINE
5
103
100
AcDbEntity
8
0
100
AcDbLine
10
18.594242913606962
20
-4.0851672487243107
30
0
11
18.195222673334968
21
-9.9544746137249973
31
0
0
LINE
5
104
100
AcDbEntity
8
0
100
AcDbLine
10
8.218252140776201
20
-9.2761981269919858
30
0
11
6.3725125922528036
21
-9.1507169769463914
31
0
0
LINE
5
105
100
AcDbEntity
8
0
100
AcDbLine
10
6.3725125922528036
20
-9.1507169769463914
30
0
11
6.7715328325250823
21
-3.2814096119457759
31
0
0
LINE
5
106
100
AcDbEntity
8
0
100
AcDbLine
10
6.7715328325250823
20
-3.2814096119457759
30
0
11
8.6172723810484797
21
-3.4068907619913702
31
0
0
LINE
5
107
100
AcDbEntity
8
0
100
AcDbLine
10
8.6172723810484797
20
-3.4068907619913702
30
0
11
8.218252140776201
21
-9.2761981269919858
31
0
0
LINE
5
108
100
AcDbEntity
8
0
100
AcDbLine
10
-116.128763210031
20
-4.2917830418300795
30
0
11
-116.128763210031
21
-19.035828068191911
31
0
0
LINE
5
109
100
AcDbEntity
8
0
100
AcDbLine
10
-116.128763210031
20
-19.035828068191911
30
0
11
-111.06704570413513
21
-19.035828068191911
31
0
0
ARC
5
110
100
AcDbEntity
8
0
100
AcDbCircle
10
-83.841659477523649
20
-86.62281037174057
30
0
40
72.864407168990056
210
0
220
-0
230
1
100
AcDbArc
50
68.059439533288497
51
111.94056046671146
0
LINE
5
111
100
AcDbEntity
8
0
100
AcDbLine
10
-56.616273250912172
20
-19.035828068191911
30
0
11
133.27197472458195
21
-19.035828068191911
31
0
0
LINE
5
112
100
AcDbEntity
8
0
100
AcDbLine
10
133.27197472458195
20
-19.035828068191911
30
0
11
133.27197472458195
21
-9.0358280681918757
31
0
0
LINE
5
113
100
AcDbEntity
8
0
100
AcDbLine
10
133.27197472458195
20
-9.0358280681918757
30
0
11
138.15371784268336
21
-9.0358280681918757
31
0
0
ARC
5
114
100
AcDbEntity
8
0
100
AcDbCircle
10
141.69697472458211
20
-6.9608280681919865
30
0
40
4.1061288741492676
210
0
220
0
230
1
100
AcDbArc
50
-149.6459322183774
51
149.64593221837734
0
LINE
5
115
100
AcDbEntity
8
0
100
AcDbLine
10
138.15371784268336
20
-4.8858280681920974
30
0
11
133.27197472458195
21
-4.8858280681920263
31
0
0
LINE
5
116
100
AcDbEntity
8
0
100
AcDbLine
10
133.27197472458195
20
-4.8858280681920263
30
0
11
133.27197472458195
21
5.1141719318079737
31
0
0
LINE
5
117
100
AcDbEntity
8
0
100
AcDbLine
10
133.27197472458195
20
5.1141719318079737
30
0
11
52.539224270152545
21
5.1141719318079737
31
0
0
LINE
5
118
100
AcDbEntity
8
0
100
AcDbLine
10
52.539224270152545
20
5.1141719318079737
30
0
11
52.539224270152545
21
-0.0046262990703738183
31
0
0
ARC
5
119
100
AcDbEntity
8
0
100
AcDbCircle
10
50.61422427015259
20
-3.4608280681921855
30
0
40
3.9561288741496319
210
0
220
0
230
1
100
AcDbArc
50
-240.88351384809465
51
60.883513848099476
0
LINE
5
120
100
AcDbEntity
8
0
100
AcDbLine
10
48.689224270152351
20
-0.004626299070551454
30
0
11
48.689224270152351
21
5.1141719318079737
31
0
0
LINE
5
121
100
AcDbEntity
8
0
100
AcDbLine
10
48.689224270152351
20
5.1141719318079737
30
0
11
-49.354610898020468
21
5.1141719318079382
31
0
0
SPLINE
5
122
100
AcDbEntity
8
0
100
AcDbSpline
70
0
71
3
72
20
73
16
74
0
42
0.000000001
43
0.0000000001
44
0.0000000001
40
-0.00062165342512350455
40
-0.00062165342512350455
40
-0.00062165342512350455
40
-0.00062165342512350455
40
0
40
0
40
0
40
0.31721885478999118
40
0.31721885478999118
40
0.31721885478999118
40
0.64338201357176117
40
0.64338201357176117
40
0.64338201357176117
40
0.92919711013952244
40
0.92919711013952244
40
0.92919711013952244
40
1
40
1
40
1
40
1
10
-104.89758413087046
20
19.035828068191591
30
0
10
-104.89114442185098
20
19.031343356374038
30
0
10
-104.88470471283151
20
19.026858644556448
30
0
10
-104.87826500381203
20
19.022373932738823
30
0
10
-101.59625600747503
20
16.736732689187015
30
0
10
-97.870391480015826
20
14.590177736394629
30
0
10
-93.517724967626208
20
12.641362348623915
30
0
10
-89.042330654307449
20
10.637598155040209
30
0
10
-83.910662893002552
20
8.8408290213864049
30
0
10
-77.356215669719148
20
7.4918965371816526
30
0
10
-71.612587317982275
20
6.3098339471687481
30
0
10
-64.726794715786866
20
5.4872072377330028
30
0
10
-56.091379381388293
20
5.2155367290960086
30
0
10
-53.952190905471156
20
5.1482377748687824
30
0
10
-51.707476467251041
20
5.1141719318079026
30
0
10
-49.354610898020468
20
5.1141719318079382
30
0
0
LINE
5
123
100
AcDbEntity
8
0
100
AcDbLine
10
-104.89758413087046
20
19.035828068191591
30
0
11
-109.10155449016955
21
19.035828068191911
31
0
0
LINE
5
124
100
AcDbEntity
8
0
100
AcDbLine
10
-109.10155449016955
20
19.035828068191911
30
0
11
-109.10155449016955
21
13.035828068191897
31
0
0
LINE
5
125
100
AcDbEntity
8
0
100
AcDbLine
10
-109.10155449016955
20
13.035828068191897
30
0
11
-115.95155449016971
21
13.035828068191897
31
0
0
LINE
5
126
100
AcDbEntity
8
0
100
AcDbLine
10
-115.95155449016971
20
13.035828068191897
30
0
11
-115.95155449016971
21
15.885828068192041
31
0
0
LINE
5
127
100
AcDbEntity
8
0
100
AcDbLine
10
-115.95155449016971
20
15.885828068192041
30
0
11
-112.95155449016974
21
15.885828068192041
31
0
0
LINE
5
128
100
AcDbEntity
8
0
100
AcDbLine
10
-112.95155449016974
20
15.885828068192041
30
0
11
-112.95155449016974
21
19.035828068191911
31
0
0
LINE
5
129
100
AcDbEntity
8
0
100
AcDbLine
10
-112.95155449016974
20
19.035828068191911
30
0
11
-116.128763210031
21
19.035828068191911
31
0
0
LINE
5
130
100
AcDbEntity
8
0
100
AcDbLine
10
-116.128763210031
20
19.035828068191911
30
0
11
-116.128763210031
21
10.620022509959313
31
0
0
LINE
5
131
100
AcDbEntity
8
0
100
AcDbLine
10
-116.128763210031
20
10.620022509959313
30
0
11
-117.97876321003116
21
10.620022509959313
31
0
0
LINE
5
132
100
AcDbEntity
8
0
100
AcDbLine
10
-117.97876321003116
20
10.620022509959313
30
0
11
-117.97876321003116
21
19.035828068191911
31
0
0
LINE
5
133
100
AcDbEntity
8
0
100
AcDbLine
10
-117.97876321003116
20
19.035828068191911
30
0
11
-137.80310359873127
21
19.035828068191911
31
0
0
LINE
5
134
100
AcDbEntity
8
0
100
AcDbLine
10
-137.80310359873127
20
19.035828068191911
30
0
11
-137.80310359873127
21
15.120335734199166
31
0
0
LINE
5
135
100
AcDbEntity
8
0
100
AcDbLine
10
-137.80310359873127
20
15.120335734199166
30
0
11
-140.65310359873138
21
15.120335734199166
31
0
0
LINE
5
136
100
AcDbEntity
8
0
100
AcDbLine
10
-140.65310359873138
20
15.120335734199166
30
0
11
-140.65310359873138
21
16.620335734199152
31
0
0
LINE
5
137
100
AcDbEntity
8
0
100
AcDbLine
10
-140.65310359873138
20
16.620335734199152
30
0
11
-143.80310359873121
21
16.620335734199152
31
0
0
LINE
5
138
100
AcDbEntity
8
0
100
AcDbLine
10
-143.80310359873121
20
16.620335734199152
30
0
11
-143.80310359873121
21
10.470335734199274
31
0
0
LINE
5
139
100
AcDbEntity
8
0
100
AcDbLine
10
-143.80310359873121
20
10.470335734199274
30
0
11
-140.65310359873138
21
10.470335734199274
31
0
0
LINE
5
140
100
AcDbEntity
8
0
100
AcDbLine
10
-140.65310359873138
20
10.470335734199274
30
0
11
-140.65310359873138
21
11.970335734199296
31
0
0
LINE
5
141
100
AcDbEntity
8
0
100
AcDbLine
10
-140.65310359873138
20
11.970335734199296
30
0
11
-137.80310359873127
21
11.970335734199296
31
0
0
LINE
5
142
100
AcDbEntity
8
0
100
AcDbLine
10
-137.80310359873127
20
11.970335734199296
30
0
11
-137.80310359873127
21
-3.8858280681920476
31
0
0
LINE
5
143
100
AcDbEntity
8
0
100
AcDbLine
10
-137.80310359873127
20
-3.8858280681920476
30
0
11
-141.65310359873146
21
-3.8858280681920476
31
0
0
LINE
5
144
100
AcDbEntity
8
0
100
AcDbLine
10
-141.65310359873146
20
-3.8858280681920476
30
0
11
-141.65310359873146
21
-1.8858280681920547
31
0
0
LINE
5
145
100
AcDbEntity
8
0
100
AcDbLine
10
-141.65310359873146
20
-1.8858280681920547
30
0
11
-145.80310359873138
21
-1.8858280681920547
31
0
0
LINE
5
146
100
AcDbEntity
8
0
100
AcDbLine
10
-145.80310359873138
20
-1.8858280681920547
30
0
11
-145.80310359873138
21
-12.035828068191918
31
0
0
LINE
5
147
100
AcDbEntity
8
0
100
AcDbLine
10
-145.80310359873138
20
-12.035828068191918
30
0
11
-141.65310359873146
21
-12.035828068191918
31
0
0
LINE
5
148
100
AcDbEntity
8
0
100
AcDbLine
10
-141.65310359873146
20
-12.035828068191918
30
0
11
-141.65310359873146
21
-10.035828068191925
31
0
0
LINE
5
149
100
AcDbEntity
8
0
100
AcDbLine
10
-141.65310359873146
20
-10.035828068191925
30
0
11
-137.80310359873127
21
-10.035828068191925
31
0
0
LINE
5
150
100
AcDbEntity
8
0
100
AcDbLine
10
-137.80310359873127
20
-10.035828068191925
30
0
11
-137.80310359873127
21
-19.035828068191911
31
0
0
LINE
5
151
100
AcDbEntity
8
0
100
AcDbLine
10
-137.80310359873127
20
-19.035828068191911
30
0
11
-117.97876321003116
21
-19.035828068191911
31
0
0
LINE
5
152
100
AcDbEntity
8
0
100
AcDbLine
10
-117.97876321003116
20
-19.035828068191911
30
0
11
-117.97876321003116
21
-4.2917830418300795
31
0
0
LINE
5
153
100
AcDbEntity
8
0
100
AcDbLine
10
-117.97876321003116
20
-4.2917830418300795
30
0
11
-116.128763210031
21
-4.2917830418300795
31
0
0
ENDSEC
0
SECTION
2
OBJECTS
0
DICTIONARY
5
C
100
AcDbDictionary
3
ACAD_GROUP
350
D
3
ACAD_MLINESTYLE
350
17
0
DICTIONARY
5
D
100
AcDbDictionary
0
DICTIONARY
5
1A
330
C
100
AcDbDictionary
0
DICTIONARY
5
17
100
AcDbDictionary
0
ENDSEC
0
EOF
