0
SECTION
2
HEADER
9
$INSUNITS
70
4
9
$ACADVER
1
AC1014
9
$HANDSEED
5
FFFF
0
ENDSEC
0
SECTION
2
TABLES
0
TABLE
2
VPORT
5
8
100
AcDbSymbolTable
0
ENDTAB
0
TABLE
2
LTYPE
5
5
100
AcDbSymbolTable
0
LTYPE
5
14
100
AcDbSymbolTableRecord
100
AcDbLinetypeTableRecord
2
BYBLOCK
70
0
0
LTYPE
5
15
100
AcDbSymbolTableRecord
100
AcDbLinetypeTableRecord
2
BYLAYER
70
0
0
ENDTAB
0
TABLE
2
LAYER
5
2
100
AcDbSymbolTable
70
2
0
LAYER
5
50
100
AcDbSymbolTableRecord
100
AcDbLayerTableRecord
2
0
70
0
6
CONTINUOUS
0
ENDTAB
0
TABLE
2
STYLE
5
3
100
AcDbSymbolTable
70
1
0
STYLE
5
11
100
AcDbSymbolTableRecord
100
AcDbTextStyleTableRecord
2
STANDARD
70
0
0
ENDTAB
0
TABLE
2
VIEW
5
6
100
AcDbSymbolTable
70
0
0
ENDTAB
0
TABLE
2
UCS
5
7
100
AcDbSymbolTable
70
0
0
ENDTAB
0
TABLE
2
APPID
5
9
100
AcDbSymbolTable
70
2
0
APPID
5
12
100
AcDbSymbolTableRecord
100
AcDbRegAppTableRecord
2
ACAD
70
0
0
ENDTAB
0
TABLE
2
DIMSTYLE
5
A
100
AcDbSymbolTable
70
1
0
ENDTAB
0
TABLE
2
BLOCK_RECORD
5
1
100
AcDbSymbolTable
70
1
0
BLOCK_RECORD
5
1F
100
AcDbSymbolTableRecord
100
AcDbBlockTableRecord
2
*MODEL_SPACE
0
BLOCK_RECORD
5
1B
100
AcDbSymbolTableRecord
100
AcDbBlockTableRecord
2
*PAPER_SPACE
0
ENDTAB
0
ENDSEC
0
SECTION
2
BLOCKS
0
BLOCK
5
20
100
AcDbEntity
100
AcDbBlockBegin
2
*MODEL_SPACE
0
ENDBLK
5
21
100
AcDbEntity
100
AcDbBlockEnd
0
BLOCK
5
1C
100
AcDbEntity
100
AcDbBlockBegin
2
*PAPER_SPACE
0
ENDBLK
5
1D
100
AcDbEntity
100
AcDbBlockEnd
0
ENDSEC
0
SECTION
2
ENTITIES
0
LINE
5
100
100
AcDbEntity
8
0
100
AcDbLine
10
21.715974435327041
20
11.946308481962582
30
0
11
23.317857214442377
21
12.871765969896884
31
0
0
LINE
5
101
100
AcDbEntity
8
0
100
AcDbLine
10
23.317857214442377
20
12.871765969896884
30
0
11
26.744551156253138
21
6.9404702742536273
31
0
0
LINE
5
102
100
AcDbEntity
8
0
100
AcDbLine
10
26.744551156253138
20
6.9404702742536273
30
0
11
25.142668377137802
21
6.0150127863193248
31
0
0
LINE
5
103
100
AcDbEntity
8
0
100
AcDbLine
10
25.142668377137802
20
6.0150127863193248
30
0
11
21.715974435327041
21
11.946308481962582
31
0
0
LINE
5
104
100
AcDbEntity
8
0
100
AcDbLine
10
13.057148602271091
20
6.9438355742097002
30
0
11
14.659031381386427
21
7.8692930621440027
31
0
0
LINE
5
105
100
AcDbEntity
8
0
100
AcDbLine
10
14.659031381386427
20
7.8692930621440027
30
0
11
18.085725323197188
21
1.9379973665006389
31
0
0
LINE
5
106
100
AcDbEntity
8
0
100
AcDbLine
10
18.085725323197188
20
1.9379973665006389
30
0
11
16.483842544081853
21
1.0125398785663364
31
0
0
LINE
5
107
100
AcDbEntity
8
0
100
AcDbLine
10
16.483842544081853
20
1.0125398785663364
30
0
11
13.057148602271091
21
6.9438355742097002
31
0
0
LINE
5
108
100
AcDbEntity
8
0
100
AcDbLine
10
-15.120239244903715
20
-9.0387334033514222
30
0
11
-13.270239244903728
21
-9.0387334033514222
31
0
0
LINE
5
109
100
AcDbEntity
8
0
100
AcDbLine
10
-13.270239244903728
20
-9.0387334033514222
30
0
11
-13.270239244903728
21
-15.888733403351409
31
0
0
LINE
5
110
100
AcDbEntity
8
0
100
AcDbLine
10
-13.270239244903728
20
-15.888733403351409
30
0
11
-15.120239244903715
21
-15.888733403351409
31
0
0
LINE
5
111
100
AcDbEntity
8
0
100
AcDbLine
10
-15.120239244903715
20
-15.888733403351409
30
0
11
-15.120239244903715
21
-9.0387334033514222
31
0
0
LINE
5
112
100
AcDbEntity
8
0
100
AcDbLine
10
-49.168060516349996
20
25.363175307448671
30
0
11
-49.168060516349996
21
30.213175307448665
31
0
0
LINE
5
113
100
AcDbEntity
8
0
100
AcDbLine
10
-49.168060516349996
20
30.213175307448665
30
0
11
-46.668060516349996
21
30.213175307448665
31
0
0
LINE
5
114
100
AcDbEntity
8
0
100
AcDbLine
10
-46.668060516349996
20
30.213175307448665
30
0
11
-46.668060516349996
21
35.363175307448671
31
0
0
LINE
5
115
100
AcDbEntity
8
0
100
AcDbLine
10
-46.668060516349996
20
35.363175307448671
30
0
11
-61.296729927552093
21
35.363175307448671
31
0
0
LINE
5
116
100
AcDbEntity
8
0
100
AcDbLine
10
-61.296729927552093
20
35.363175307448671
30
0
11
-61.296729927552093
21
10.213175307448665
31
0
0
LINE
5
117
100
AcDbEntity
8
0
100
AcDbLine
10
-61.296729927552093
20
10.213175307448665
30
0
11
-54.87553017148624
21
10.213175307448665
31
0
0
LINE
5
118
100
AcDbEntity
8
0
100
AcDbLine
10
-54.87553017148624
20
10.213175307448665
30
0
11
-54.87553017148624
21
9.2131753074486866
31
0
0
LINE
5
119
100
AcDbEntity
8
0
100
AcDbLine
10
-54.87553017148624
20
9.2131753074486866
30
0
11
-50.834590704825189
21
9.2131753074486866
31
0
0
LINE
5
120
100
AcDbEntity
8
0
100
AcDbLine
10
-50.834590704825189
20
9.2131753074486866
30
0
11
-50.834590704825189
21
14.213175307448651
31
0
0
LINE
5
121
100
AcDbEntity
8
0
100
AcDbLine
10
-50.834590704825189
20
14.213175307448651
30
0
11
-46.984590704825195
21
14.213175307448651
31
0
0
LINE
5
122
100
AcDbEntity
8
0
100
AcDbLine
10
-46.984590704825195
20
14.213175307448651
30
0
11
-46.984590704825195
21
2.3631753074486639
31
0
0
LINE
5
123
100
AcDbEntity
8
0
100
AcDbLine
10
-46.984590704825195
20
2.3631753074486639
30
0
11
-50.834590704825189
21
2.3631753074486639
31
0
0
LINE
5
124
100
AcDbEntity
8
0
100
AcDbLine
10
-50.834590704825189
20
2.3631753074486639
30
0
11
-50.834590704825189
21
3.3631753074486781
31
0
0
LINE
5
125
100
AcDbEntity
8
0
100
AcDbLine
10
-50.834590704825189
20
3.3631753074486781
30
0
11
-54.87553017148624
21
3.3631753074486426
31
0
0
LINE
5
126
100
AcDbEntity
8
0
100
AcDbLine
10
-54.87553017148624
20
3.3631753074486426
30
0
11
-54.87553017148624
21
2.3631753074486639
31
0
0
LINE
5
127
100
AcDbEntity
8
0
100
AcDbLine
10
-54.87553017148624
20
2.3631753074486639
30
0
11
-61.296729927552093
21
2.3631753074486639
31
0
0
LINE
5
128
100
AcDbEntity
8
0
100
AcDbLine
10
-61.296729927552093
20
2.3631753074486639
30
0
11
-61.296729927552107
21
-5.6905556442207228
31
0
0
SPLINE
5
129
100
AcDbEntity
8
0
100
AcDbSpline
70
0
71
3
72
20
73
16
74
0
42
0.000000001
43
0.0000000001
44
0.0000000001
40
-0.0013758002367497057
40
-0.0013758002367497057
40
-0.0013758002367497057
40
-0.0013758002367497057
40
0
40
0
40
0
40
0.5
40
0.5
40
0.5
40
0.93743982926938152
40
0.93743982926938152
40
0.93743982926938152
40
1
40
1
40
1
40
1.0012253086590752
40
1.0012253086590752
40
1.0012253086590752
40
1.0012253086590752
10
-61.296729927552498
20
-5.6905556442208294
30
0
10
-61.266861765678783
20
-5.6846260149147909
30
0
10
-61.236993603805061
20
-5.678696385608788
30
0
10
-61.20712544193136
20
-5.672766756302785
30
0
10
-50.363512720859745
20
-3.5200194916505367
30
0
10
-42.325549627599486
20
-4.4119523994420362
30
0
10
-38.049966106244767
20
-9.3890997403050136
30
0
10
-34.309345055027961
20
-13.743504706376335
30
0
10
-33.395567270231794
20
-21.224977970087728
30
0
10
-34.534772871685092
20
-30.958732370803368
30
0
10
-34.697695614781509
20
-32.350798882386798
30
0
10
-34.903592961780646
20
-33.78998208111863
30
0
10
-35.152066228143539
20
-35.275804882831174
30
0
10
-35.156936529582623
20
-35.304928357703673
30
0
10
-35.161806831021721
20
-35.334051832576172
30
0
10
-35.166677132460805
20
-35.363175307448707
30
0
0
LINE
5
130
100
AcDbEntity
8
0
100
AcDbLine
10
-35.166677132460805
20
-35.363175307448707
30
0
11
-26.114359536724336
21
-35.363175307448707
31
0
0
LINE
5
131
100
AcDbEntity
8
0
100
AcDbLine
10
-26.114359536724336
20
-35.363175307448707
30
0
11
-26.114359536724336
21
-31.213175307448715
31
0
0
LINE
5
132
100
AcDbEntity
8
0
100
AcDbLine
10
-26.114359536724336
20
-31.213175307448715
30
0
11
-28.114359536724347
21
-31.213175307448715
31
0
0
LINE
5
133
100
AcDbEntity
8
0
100
AcDbLine
10
-28.114359536724347
20
-31.213175307448715
30
0
11
-28.114359536724347
21
-27.363175307448735
31
0
0
LINE
5
134
100
AcDbEntity
8
0
100
AcDbLine
10
-28.114359536724347
20
-27.363175307448735
30
0
11
-20.264359536724346
21
-27.363175307448735
31
0
0
LINE
5
135
100
AcDbEntity
8
0
100
AcDbLine
10
-20.264359536724346
20
-27.363175307448735
30
0
11
-20.264359536724346
21
-31.213175307448715
31
0
0
LINE
5
136
100
AcDbEntity
8
0
100
AcDbLine
10
-20.264359536724346
20
-31.213175307448715
30
0
11
-22.264359536724339
21
-31.213175307448715
31
0
0
LINE
5
137
100
AcDbEntity
8
0
100
AcDbLine
10
-22.264359536724339
20
-31.213175307448715
30
0
11
-22.264359536724339
21
-35.363175307448707
31
0
0
LINE
5
138
100
AcDbEntity
8
0
100
AcDbLine
10
-22.264359536724339
20
-35.363175307448707
30
0
11
7.5512157545565373
21
-35.363175307448707
31
0
0
LINE
5
139
100
AcDbEntity
8
0
100
AcDbLine
10
7.5512157545565373
20
-35.363175307448707
30
0
11
7.5512157545565373
21
-7.3055250027655916
31
0
0
ARC
5
140
100
AcDbEntity
8
0
100
AcDbCircle
10
15.418389348611541
20
37.973058278681208
30
0
40
45.956963828498388
210
0
220
0
230
1
100
AcDbArc
50
260.143236499708
51
322.63740859351111
0
LINE
5
141
100
AcDbEntity
8
0
100
AcDbLine
10
51.945490129087943
20
10.083751494416582
30
0
11
46.900991710002522
21
13.230168795129664
31
0
0
LINE
5
142
100
AcDbEntity
8
0
100
AcDbLine
10
46.900991710002522
20
13.230168795129664
30
0
11
44.887399598929569
21
10.001874118931298
31
0
0
LINE
5
143
100
AcDbEntity
8
0
100
AcDbLine
10
44.887399598929569
20
10.001874118931298
30
0
11
42.469227828176344
21
11.510166294582973
31
0
0
LINE
5
144
100
AcDbEntity
8
0
100
AcDbLine
10
42.469227828176344
20
11.510166294582973
30
0
11
46.735991015155207
21
18.350860994058777
31
0
0
LINE
5
145
100
AcDbEntity
8
0
100
AcDbLine
10
46.735991015155207
20
18.350860994058777
30
0
11
54.372270996927412
21
13.587865458797417
31
0
0
ARC
5
146
100
AcDbEntity
8
0
100
AcDbCircle
10
15.418389348611541
20
37.973058278681208
30
0
40
45.956963828498431
210
-0
220
0
230
1
100
AcDbArc
50
327.95336737089326
51
356.74443738900567
0
LINE
5
147
100
AcDbEntity
8
0
100
AcDbLine
10
61.301186072551417
20
35.363175307448707
30
0
11
42.982246551352716
21
35.363175307448671
31
0
0
LINE
5
148
100
AcDbEntity
8
0
100
AcDbLine
10
42.982246551352716
20
35.363175307448671
30
0
11
42.982246551352716
21
30.213175307448665
31
0
0
LINE
5
149
100
AcDbEntity
8
0
100
AcDbLine
10
42.982246551352716
20
30.213175307448665
30
0
11
45.482246551352716
21
30.213175307448665
31
0
0
LINE
5
150
100
AcDbEntity
8
0
100
AcDbLine
10
45.482246551352716
20
30.213175307448665
30
0
11
45.482246551352716
21
25.363175307448671
31
0
0
LINE
5
151
100
AcDbEntity
8
0
100
AcDbLine
10
45.482246551352716
20
25.363175307448671
30
0
11
35.632246551352722
21
25.363175307448671
31
0
0
LINE
5
152
100
AcDbEntity
8
0
100
AcDbLine
10
35.632246551352722
20
25.363175307448671
30
0
11
35.632246551352722
21
30.213175307448665
31
0
0
LINE
5
153
100
AcDbEntity
8
0
100
AcDbLine
10
35.632246551352722
20
30.213175307448665
30
0
11
38.132246551352722
21
30.213175307448665
31
0
0
LINE
5
154
100
AcDbEntity
8
0
100
AcDbLine
10
38.132246551352722
20
30.213175307448665
30
0
11
38.132246551352722
21
35.363175307448671
31
0
0
LINE
5
155
100
AcDbEntity
8
0
100
AcDbLine
10
38.132246551352722
20
35.363175307448671
30
0
11
4.5034136611989339
21
35.363175307448671
31
0
0
ARC
5
156
100
AcDbEntity
8
0
100
AcDbCircle
10
4.5034136611988984
20
27.004010996136518
30
0
40
8.3591643113121528
210
0
220
-0
230
1
100
AcDbArc
50
89.999999999999744
51
191.32019879050588
0
LINE
5
157
100
AcDbEntity
8
0
100
AcDbLine
10
-3.6931274523588797
20
25.363175307448653
30
0
11
-13.521079472495359
21
25.363175307448653
31
0
0
ARC
5
158
100
AcDbEntity
8
0
100
AcDbCircle
10
-22.932644895323833
20
25.93429712203962
30
0
40
9.4288781854090278
210
-0
220
0
230
1
100
AcDbArc
50
-3.4726201346777295
51
90.000000000000313
0
LINE
5
159
100
AcDbEntity
8
0
100
AcDbLine
10
-22.932644895323886
20
35.363175307448671
30
0
11
-41.818060516350002
21
35.363175307448671
31
0
0
LINE
5
160
100
AcDbEntity
8
0
100
AcDbLine
10
-41.818060516350002
20
35.363175307448671
30
0
11
-41.818060516350002
21
30.213175307448665
31
0
0
LINE
5
161
100
AcDbEntity
8
0
100
AcDbLine
10
-41.818060516350002
20
30.213175307448665
30
0
11
-39.318060516350002
21
30.213175307448665
31
0
0
LINE
5
162
100
AcDbEntity
8
0
100
AcDbLine
10
-39.318060516350002
20
30.213175307448665
30
0
11
-39.318060516350002
21
25.363175307448671
31
0
0
LINE
5
163
100
AcDbEntity
8
0
100
AcDbLine
10
-39.318060516350002
20
25.363175307448671
30
0
11
-49.168060516349996
21
25.363175307448671
31
0
0
ENDSEC
0
SECTION
2
OBJECTS
0
DICTIONARY
5
C
100
AcDbDictionary
3
ACAD_GROUP
350
D
3
ACAD_MLINESTYLE
350
17
0
DICTIONARY
5
D
100
AcDbDictionary
0
DICTIONARY
5
1A
330
C
100
AcDbDictionary
0
DICTIONARY
5
17
100
AcDbDictionary
0
ENDSEC
0
EOF
