0
SECTION
2
HEADER
9
$INSUNITS
70
4
9
$ACADVER
1
AC1014
9
$HANDSEED
5
FFFF
0
ENDSEC
0
SECTION
2
TABLES
0
TABLE
2
VPORT
5
8
100
AcDbSymbolTable
0
ENDTAB
0
TABLE
2
LTYPE
5
5
100
AcDbSymbolTable
0
LTYPE
5
14
100
AcDbSymbolTableRecord
100
AcDbLinetypeTableRecord
2
BYBLOCK
70
0
0
LTYPE
5
15
100
AcDbSymbolTableRecord
100
AcDbLinetypeTableRecord
2
BYLAYER
70
0
0
ENDTAB
0
TABLE
2
LAYER
5
2
100
AcDbSymbolTable
70
2
0
LAYER
5
50
100
AcDbSymbolTableRecord
100
AcDbLayerTableRecord
2
0
70
0
6
CONTINUOUS
0
ENDTAB
0
TABLE
2
STYLE
5
3
100
AcDbSymbolTable
70
1
0
STYLE
5
11
100
AcDbSymbolTableRecord
100
AcDbTextStyleTableRecord
2
STANDARD
70
0
0
ENDTAB
0
TABLE
2
VIEW
5
6
100
AcDbSymbolTable
70
0
0
ENDTAB
0
TABLE
2
UCS
5
7
100
AcDbSymbolTable
70
0
0
ENDTAB
0
TABLE
2
APPID
5
9
100
AcDbSymbolTable
70
2
0
APPID
5
12
100
AcDbSymbolTableRecord
100
AcDbRegAppTableRecord
2
ACAD
70
0
0
ENDTAB
0
TABLE
2
DIMSTYLE
5
A
100
AcDbSymbolTable
70
1
0
ENDTAB
0
TABLE
2
BLOCK_RECORD
5
1
100
AcDbSymbolTable
70
1
0
BLOCK_RECORD
5
1F
100
AcDbSymbolTableRecord
100
AcDbBlockTableRecord
2
*MODEL_SPACE
0
BLOCK_RECORD
5
1B
100
AcDbSymbolTableRecord
100
AcDbBlockTableRecord
2
*PAPER_SPACE
0
ENDTAB
0
ENDSEC
0
SECTION
2
BLOCKS
0
BLOCK
5
20
100
AcDbEntity
100
AcDbBlockBegin
2
*MODEL_SPACE
0
ENDBLK
5
21
100
AcDbEntity
100
AcDbBlockEnd
0
BLOCK
5
1C
100
AcDbEntity
100
AcDbBlockBegin
2
*PAPER_SPACE
0
ENDBLK
5
1D
100
AcDbEntity
100
AcDbBlockEnd
0
ENDSEC
0
SECTION
2
ENTITIES
0
LINE
5
100
100
AcDbEntity
8
0
100
AcDbLine
10
56.048129450355759
20
3.6833267100740485
30
0
11
56.048129450355759
21
-3.1666732899260808
31
0
0
LINE
5
101
100
AcDbEntity
8
0
100
AcDbLine
10
56.048129450355759
20
-3.1666732899260808
30
0
11
54.198129450355594
21
-3.1666732899260808
31
0
0
LINE
5
102
100
AcDbEntity
8
0
100
AcDbLine
10
54.198129450355594
20
-3.1666732899260808
30
0
11
54.198129450355594
21
3.6833267100740485
31
0
0
LINE
5
103
100
AcDbEntity
8
0
100
AcDbLine
10
54.198129450355594
20
3.6833267100740485
30
0
11
56.048129450355759
21
3.6833267100740485
31
0
0
LINE
5
104
100
AcDbEntity
8
0
100
AcDbLine
10
64.198129450355594
20
-3.1666732899260808
30
0
11
64.198129450355594
21
3.6833267100740485
31
0
0
LINE
5
105
100
AcDbEntity
8
0
100
AcDbLine
10
64.198129450355594
20
3.6833267100740485
30
0
11
66.048129450355759
21
3.6833267100740485
31
0
0
LINE
5
106
100
AcDbEntity
8
0
100
AcDbLine
10
66.048129450355759
20
3.6833267100740485
30
0
11
66.048129450355759
21
-3.1666732899260808
31
0
0
LINE
5
107
100
AcDbEntity
8
0
100
AcDbLine
10
66.048129450355759
20
-3.1666732899260808
30
0
11
64.198129450355594
21
-3.1666732899260808
31
0
0
LINE
5
108
100
AcDbEntity
8
0
100
AcDbLine
10
-79.070991231563141
20
-4.049684806189866
30
0
11
-79.070991231563141
21
2.8003151938102633
31
0
0
LINE
5
109
100
AcDbEntity
8
0
100
AcDbLine
10
-79.070991231563141
20
2.8003151938102633
30
0
11
-77.220991231562977
21
2.8003151938102633
31
0
0
LINE
5
110
100
AcDbEntity
8
0
100
AcDbLine
10
-77.220991231562977
20
2.8003151938102633
30
0
11
-77.220991231562977
21
-4.049684806189866
31
0
0
LINE
5
111
100
AcDbEntity
8
0
100
AcDbLine
10
-77.220991231562977
20
-4.049684806189866
30
0
11
-79.070991231563141
21
-4.049684806189866
31
0
0
LINE
5
112
100
AcDbEntity
8
0
100
AcDbLine
10
-69.070991231563141
20
-4.049684806189866
30
0
11
-69.070991231563141
21
2.8003151938102633
31
0
0
LINE
5
113
100
AcDbEntity
8
0
100
AcDbLine
10
-69.070991231563141
20
2.8003151938102633
30
0
11
-67.220991231562977
21
2.8003151938102633
31
0
0
LINE
5
114
100
AcDbEntity
8
0
100
AcDbLine
10
-67.220991231562977
20
2.8003151938102633
30
0
11
-67.220991231562977
21
-4.049684806189866
31
0
0
LINE
5
115
100
AcDbEntity
8
0
100
AcDbLine
10
-67.220991231562977
20
-4.049684806189866
30
0
11
-69.070991231563141
21
-4.049684806189866
31
0
0
LINE
5
116
100
AcDbEntity
8
0
100
AcDbLine
10
103.02615787848396
20
12.52525856728564
30
0
11
89.445747931737429
21
12.525258567285675
31
0
0
SPLINE
5
117
100
AcDbEntity
8
0
100
AcDbSpline
70
0
71
3
72
11
73
7
74
0
42
0.000000001
43
0.0000000001
44
0.0000000001
40
0.9223714946137932
40
0.9223714946137932
40
0.9223714946137932
40
0.9223714946137932
40
0.92242581801553736
40
0.92242581801553736
40
0.92242581801553736
40
0.97879966718561651
40
0.97879966718561651
40
0.97879966718561651
40
0.97879966718561651
10
78.450844942193356
20
13.037922319710731
30
0
10
78.454240550874914
20
13.03769660616279
30
0
10
78.457636159556898
20
13.037470892614778
30
0
10
78.461031768239025
20
13.037245179066765
30
0
10
81.983801299909942
20
12.803078970800996
30
0
10
85.642935673834018
20
12.631536135790817
30
0
10
89.445747931737429
20
12.525258567285746
30
0
0
LINE
5
118
100
AcDbEntity
8
0
100
AcDbLine
10
78.450844942193356
20
13.037922319710731
30
0
11
69.15409287603822
21
11.112589672315281
31
0
0
LINE
5
119
100
AcDbEntity
8
0
100
AcDbLine
10
69.15409287603822
20
11.112589672315281
30
0
11
-103.02615787848396
21
11.112589672315067
31
0
0
LINE
5
120
100
AcDbEntity
8
0
100
AcDbLine
10
-103.02615787848396
20
11.112589672315067
30
0
11
-103.02615787848396
21
2.9625896723150191
31
0
0
LINE
5
121
100
AcDbEntity
8
0
100
AcDbLine
10
-103.02615787848396
20
2.9625896723150191
30
0
11
-98.876157878484037
21
2.9625896723150191
31
0
0
LINE
5
122
100
AcDbEntity
8
0
100
AcDbLine
10
-98.876157878484037
20
2.9625896723150191
30
0
11
-98.876157878484037
21
4.9625896723151186
31
0
0
LINE
5
123
100
AcDbEntity
8
0
100
AcDbLine
10
-98.876157878484037
20
4.9625896723151186
30
0
11
-95.026157878483843
21
4.9625896723151186
31
0
0
LINE
5
124
100
AcDbEntity
8
0
100
AcDbLine
10
-95.026157878483843
20
4.9625896723151186
30
0
11
-95.026157878483843
21
-6.8874103276849752
31
0
0
LINE
5
125
100
AcDbEntity
8
0
100
AcDbLine
10
-95.026157878483843
20
-6.8874103276849752
30
0
11
-98.876157878484037
21
-6.8874103276849752
31
0
0
LINE
5
126
100
AcDbEntity
8
0
100
AcDbLine
10
-98.876157878484037
20
-6.8874103276849752
30
0
11
-98.876157878484037
21
-4.8874103276849823
31
0
0
LINE
5
127
100
AcDbEntity
8
0
100
AcDbLine
10
-98.876157878484037
20
-4.8874103276849823
30
0
11
-103.02615787848396
21
-4.8874103276848757
31
0
0
LINE
5
128
100
AcDbEntity
8
0
100
AcDbLine
10
-103.02615787848396
20
-4.8874103276848757
30
0
11
-103.02615787848396
21
-13.037410327684924
31
0
0
LINE
5
129
100
AcDbEntity
8
0
100
AcDbLine
10
-103.02615787848396
20
-13.037410327684924
30
0
11
103.02615787848396
21
-13.037410327684924
31
0
0
LINE
5
130
100
AcDbEntity
8
0
100
AcDbLine
10
103.02615787848396
20
-13.037410327684924
30
0
11
103.02615787848396
21
-3.8874103276849326
31
0
0
LINE
5
131
100
AcDbEntity
8
0
100
AcDbLine
10
103.02615787848396
20
-3.8874103276849326
30
0
11
98.876157878484037
21
-3.8874103276849326
31
0
0
LINE
5
132
100
AcDbEntity
8
0
100
AcDbLine
10
98.876157878484037
20
-3.8874103276849326
30
0
11
98.876157878484037
21
-5.8874103276849254
31
0
0
LINE
5
133
100
AcDbEntity
8
0
100
AcDbLine
10
98.876157878484037
20
-5.8874103276849254
30
0
11
95.026157878483843
21
-5.8874103276849254
31
0
0
LINE
5
134
100
AcDbEntity
8
0
100
AcDbLine
10
95.026157878483843
20
-5.8874103276849254
30
0
11
95.026157878483843
21
3.9625896723150689
31
0
0
LINE
5
135
100
AcDbEntity
8
0
100
AcDbLine
10
95.026157878483843
20
3.9625896723150689
30
0
11
98.876157878484037
21
3.9625896723150689
31
0
0
LINE
5
136
100
AcDbEntity
8
0
100
AcDbLine
10
98.876157878484037
20
3.9625896723150689
30
0
11
98.876157878484037
21
1.962589672315076
31
0
0
LINE
5
137
100
AcDbEntity
8
0
100
AcDbLine
10
98.876157878484037
20
1.962589672315076
30
0
11
103.02615787848396
21
1.962589672315076
31
0
0
LINE
5
138
100
AcDbEntity
8
0
100
AcDbLine
10
103.02615787848396
20
1.962589672315076
30
0
11
103.02615787848396
21
12.52525856728564
31
0
0
ENDSEC
0
SECTION
2
OBJECTS
0
DICTIONARY
5
C
100
AcDbDictionary
3
ACAD_GROUP
350
D
3
ACAD_MLINESTYLE
350
17
0
DICTIONARY
5
D
100
AcDbDictionary
0
DICTIONARY
5
1A
330
C
100
AcDbDictionary
0
DICTIONARY
5
17
100
AcDbDictionary
0
ENDSEC
0
EOF
