0
SECTION
2
HEADER
9
$INSUNITS
70
4
9
$ACADVER
1
AC1014
9
$HANDSEED
5
FFFF
0
ENDSEC
0
SECTION
2
TABLES
0
TABLE
2
VPORT
5
8
100
AcDbSymbolTable
0
ENDTAB
0
TABLE
2
LTYPE
5
5
100
AcDbSymbolTable
0
LTYPE
5
14
100
AcDbSymbolTableRecord
100
AcDbLinetypeTableRecord
2
BYBLOCK
70
0
0
LTYPE
5
15
100
AcDbSymbolTableRecord
100
AcDbLinetypeTableRecord
2
BYLAYER
70
0
0
ENDTAB
0
TABLE
2
LAYER
5
2
100
AcDbSymbolTable
70
2
0
LAYER
5
50
100
AcDbSymbolTableRecord
100
AcDbLayerTableRecord
2
0
70
0
6
CONTINUOUS
0
ENDTAB
0
TABLE
2
STYLE
5
3
100
AcDbSymbolTable
70
1
0
STYLE
5
11
100
AcDbSymbolTableRecord
100
AcDbTextStyleTableRecord
2
STANDARD
70
0
0
ENDTAB
0
TABLE
2
VIEW
5
6
100
AcDbSymbolTable
70
0
0
ENDTAB
0
TABLE
2
UCS
5
7
100
AcDbSymbolTable
70
0
0
ENDTAB
0
TABLE
2
APPID
5
9
100
AcDbSymbolTable
70
2
0
APPID
5
12
100
AcDbSymbolTableRecord
100
AcDbRegAppTableRecord
2
ACAD
70
0
0
ENDTAB
0
TABLE
2
DIMSTYLE
5
A
100
AcDbSymbolTable
70
1
0
ENDTAB
0
TABLE
2
BLOCK_RECORD
5
1
100
AcDbSymbolTable
70
1
0
BLOCK_RECORD
5
1F
100
AcDbSymbolTableRecord
100
AcDbBlockTableRecord
2
*MODEL_SPACE
0
BLOCK_RECORD
5
1B
100
AcDbSymbolTableRecord
100
AcDbBlockTableRecord
2
*PAPER_SPACE
0
ENDTAB
0
ENDSEC
0
SECTION
2
BLOCKS
0
BLOCK
5
20
100
AcDbEntity
100
AcDbBlockBegin
2
*MODEL_SPACE
0
ENDBLK
5
21
100
AcDbEntity
100
AcDbBlockEnd
0
BLOCK
5
1C
100
AcDbEntity
100
AcDbBlockBegin
2
*PAPER_SPACE
0
ENDBLK
5
1D
100
AcDbEntity
100
AcDbBlockEnd
0
ENDSEC
0
SECTION
2
ENTITIES
0
LINE
5
100
100
AcDbEntity
8
0
100
AcDbLine
10
101.02341358917975
20
-6.5454388197180791
30
0
11
99.173413589179731
21
-6.5454388197180791
31
0
0
LINE
5
101
100
AcDbEntity
8
0
100
AcDbLine
10
99.173413589179731
20
-6.5454388197180791
30
0
11
99.173413589179731
21
0.30456118028190815
31
0
0
LINE
5
102
100
AcDbEntity
8
0
100
AcDbLine
10
99.173413589179731
20
0.30456118028190815
30
0
11
101.02341358917975
21
0.30456118028190815
31
0
0
LINE
5
103
100
AcDbEntity
8
0
100
AcDbLine
10
101.02341358917975
20
0.30456118028190815
30
0
11
101.02341358917975
21
-6.5454388197180791
31
0
0
LINE
5
104
100
AcDbEntity
8
0
100
AcDbLine
10
-107.32103921651984
20
-10.972289162350144
30
0
11
-109.17103921651986
21
-10.972289162350144
31
0
0
LINE
5
105
100
AcDbEntity
8
0
100
AcDbLine
10
-109.17103921651986
20
-10.972289162350144
30
0
11
-109.17103921651986
21
-4.1222891623501567
31
0
0
LINE
5
106
100
AcDbEntity
8
0
100
AcDbLine
10
-109.17103921651986
20
-4.1222891623501567
30
0
11
-107.32103921651984
21
-4.1222891623501567
31
0
0
LINE
5
107
100
AcDbEntity
8
0
100
AcDbLine
10
-107.32103921651984
20
-4.1222891623501567
30
0
11
-107.32103921651984
21
-10.972289162350144
31
0
0
LINE
5
108
100
AcDbEntity
8
0
100
AcDbLine
10
-99.171039216519787
20
-10.972289162350144
30
0
11
-99.171039216519787
21
-4.1222891623501567
31
0
0
LINE
5
109
100
AcDbEntity
8
0
100
AcDbLine
10
-99.171039216519787
20
-4.1222891623501567
30
0
11
-97.321039216519765
21
-4.1222891623501567
31
0
0
LINE
5
110
100
AcDbEntity
8
0
100
AcDbLine
10
-97.321039216519765
20
-4.1222891623501567
30
0
11
-97.321039216519765
21
-10.972289162350144
31
0
0
LINE
5
111
100
AcDbEntity
8
0
100
AcDbLine
10
-97.321039216519765
20
-10.972289162350144
30
0
11
-99.171039216519787
21
-10.972289162350144
31
0
0
LINE
5
112
100
AcDbEntity
8
0
100
AcDbLine
10
111.02341358917982
20
-6.5454388197180791
30
0
11
109.1734135891798
21
-6.5454388197180791
31
0
0
LINE
5
113
100
AcDbEntity
8
0
100
AcDbLine
10
109.1734135891798
20
-6.5454388197180791
30
0
11
109.1734135891798
21
0.30456118028190815
31
0
0
LINE
5
114
100
AcDbEntity
8
0
100
AcDbLine
10
109.1734135891798
20
0.30456118028190815
30
0
11
111.02341358917982
21
0.30456118028190815
31
0
0
LINE
5
115
100
AcDbEntity
8
0
100
AcDbLine
10
111.02341358917982
20
0.30456118028190815
30
0
11
111.02341358917982
21
-6.5454388197180791
31
0
0
LINE
5
116
100
AcDbEntity
8
0
100
AcDbLine
10
163.55950446207743
20
-8.3649595401465859
30
0
11
159.40950446207745
21
-8.3649595401465859
31
0
0
LINE
5
117
100
AcDbEntity
8
0
100
AcDbLine
10
163.55950446207743
20
-17.514959540146577
30
0
11
163.55950446207743
21
-8.3649595401465859
31
0
0
LINE
5
118
100
AcDbEntity
8
0
100
AcDbLine
10
-163.55950446207748
20
-17.514959540146577
30
0
11
163.55950446207743
21
-17.514959540146577
31
0
0
LINE
5
119
100
AcDbEntity
8
0
100
AcDbLine
10
-163.55950446207748
20
-8.3649595401465504
30
0
11
-163.55950446207748
21
-17.514959540146577
31
0
0
LINE
5
120
100
AcDbEntity
8
0
100
AcDbLine
10
-157.40950446207748
20
-8.3649595401465504
30
0
11
-163.55950446207748
21
-8.3649595401465504
31
0
0
LINE
5
121
100
AcDbEntity
8
0
100
AcDbLine
10
-157.40950446207748
20
-11.364959540146486
30
0
11
-157.40950446207748
21
-8.3649595401465504
31
0
0
LINE
5
122
100
AcDbEntity
8
0
100
AcDbLine
10
-153.55950446207748
20
-11.364959540146486
30
0
11
-157.40950446207748
21
-11.364959540146486
31
0
0
LINE
5
123
100
AcDbEntity
8
0
100
AcDbLine
10
-153.55950446207748
20
0.48504045985339417
30
0
11
-153.55950446207748
21
-11.364959540146486
31
0
0
LINE
5
124
100
AcDbEntity
8
0
100
AcDbLine
10
-157.40950446207748
20
0.48504045985339417
30
0
11
-153.55950446207748
21
0.48504045985339417
31
0
0
LINE
5
125
100
AcDbEntity
8
0
100
AcDbLine
10
-157.40950446207748
20
-2.5149595401465419
30
0
11
-157.40950446207748
21
0.48504045985339417
31
0
0
LINE
5
126
100
AcDbEntity
8
0
100
AcDbLine
10
-163.55950446207748
20
-2.5149595401465419
30
0
11
-157.40950446207748
21
-2.5149595401465419
31
0
0
LINE
5
127
100
AcDbEntity
8
0
100
AcDbLine
10
-163.55950446207729
20
6.6017022368091816
30
0
11
-163.55950446207748
21
-2.5149595401465419
31
0
0
SPLINE
5
128
100
AcDbEntity
8
0
100
AcDbSpline
70
0
71
3
72
14
73
10
74
0
42
0.000000001
43
0.0000000001
44
0.0000000001
40
0.54549588645985403
40
0.54549588645985403
40
0.54549588645985403
40
0.54549588645985403
40
0.54574097244896647
40
0.54574097244896647
40
0.54574097244896647
40
0.59058753866542602
40
0.59058753866542602
40
0.59058753866542602
40
0.59382588230470612
40
0.59382588230470612
40
0.59382588230470612
40
0.59382588230470612
10
-163.55950446207714
20
6.601702236809146
30
0
10
-163.54771412422721
20
6.609040076784467
30
0
10
-163.53592378637723
20
6.616377916759788
30
0
10
-163.52413344852718
20
6.623715756735109
30
0
10
-161.36720104772124
20
7.9661051772991343
30
0
10
-159.25270232214149
20
9.3181369707767203
30
0
10
-157.19332794015912
20
10.659362096028673
30
0
10
-157.04459690636685
20
10.756227338780135
30
0
10
-156.89586587257457
20
10.853092581531598
30
0
10
-156.74713483878233
20
10.949957824283096
30
0
0
ARC
5
129
100
AcDbEntity
8
0
100
AcDbCircle
10
-155.04638326389565
20
9.1276800592423513
30
0
40
2.4926395993888524
210
0
220
0
230
1
100
AcDbArc
50
133.02437692627237
51
270
0
LINE
5
130
100
AcDbEntity
8
0
100
AcDbLine
10
152.78369846986129
20
6.6350404598534141
30
0
11
-155.04638326389565
21
6.6350404598534851
31
0
0
ARC
5
131
100
AcDbEntity
8
0
100
AcDbCircle
10
152.60307577873186
20
17.439959540146539
30
0
40
10.806428683345541
210
-0
220
0
230
1
100
AcDbArc
50
270.95770768616012
51
360
0
ARC
5
132
100
AcDbEntity
8
0
100
AcDbCircle
10
163.48450446207744
20
17.439959540146539
30
0
40
0.075000000000002842
210
0
220
-0
230
1
100
AcDbArc
50
0
51
180
0
LINE
5
133
100
AcDbEntity
8
0
100
AcDbLine
10
163.55950446207743
20
-2.5149595401465774
30
0
11
163.55950446207743
21
17.439959540146539
31
0
0
LINE
5
134
100
AcDbEntity
8
0
100
AcDbLine
10
159.40950446207745
20
-2.5149595401465774
30
0
11
163.55950446207743
21
-2.5149595401465774
31
0
0
LINE
5
135
100
AcDbEntity
8
0
100
AcDbLine
10
159.40950446207745
20
-0.51495954014658452
30
0
11
159.40950446207745
21
-2.5149595401465774
31
0
0
LINE
5
136
100
AcDbEntity
8
0
100
AcDbLine
10
155.55950446207746
20
-0.51495954014658452
30
0
11
159.40950446207745
21
-0.51495954014658452
31
0
0
LINE
5
137
100
AcDbEntity
8
0
100
AcDbLine
10
155.55950446207746
20
-10.364959540146579
30
0
11
155.55950446207746
21
-0.51495954014658452
31
0
0
LINE
5
138
100
AcDbEntity
8
0
100
AcDbLine
10
159.40950446207745
20
-10.364959540146685
30
0
11
155.55950446207746
21
-10.364959540146579
31
0
0
LINE
5
139
100
AcDbEntity
8
0
100
AcDbLine
10
159.40950446207745
20
-8.3649595401465859
30
0
11
159.40950446207745
21
-10.364959540146685
31
0
0
ENDSEC
0
SECTION
2
OBJECTS
0
DICTIONARY
5
C
100
AcDbDictionary
3
ACAD_GROUP
350
D
3
ACAD_MLINESTYLE
350
17
0
DICTIONARY
5
D
100
AcDbDictionary
0
DICTIONARY
5
1A
330
C
100
AcDbDictionary
0
DICTIONARY
5
17
100
AcDbDictionary
0
ENDSEC
0
EOF
