0
SECTION
2
HEADER
9
$INSUNITS
70
4
9
$ACADVER
1
AC1014
9
$HANDSEED
5
FFFF
0
ENDSEC
0
SECTION
2
TABLES
0
TABLE
2
VPORT
5
8
100
AcDbSymbolTable
0
ENDTAB
0
TABLE
2
LTYPE
5
5
100
AcDbSymbolTable
0
LTYPE
5
14
100
AcDbSymbolTableRecord
100
AcDbLinetypeTableRecord
2
BYBLOCK
70
0
0
LTYPE
5
15
100
AcDbSymbolTableRecord
100
AcDbLinetypeTableRecord
2
BYLAYER
70
0
0
ENDTAB
0
TABLE
2
LAYER
5
2
100
AcDbSymbolTable
70
2
0
LAYER
5
50
100
AcDbSymbolTableRecord
100
AcDbLayerTableRecord
2
0
70
0
6
CONTINUOUS
0
ENDTAB
0
TABLE
2
STYLE
5
3
100
AcDbSymbolTable
70
1
0
STYLE
5
11
100
AcDbSymbolTableRecord
100
AcDbTextStyleTableRecord
2
STANDARD
70
0
0
ENDTAB
0
TABLE
2
VIEW
5
6
100
AcDbSymbolTable
70
0
0
ENDTAB
0
TABLE
2
UCS
5
7
100
AcDbSymbolTable
70
0
0
ENDTAB
0
TABLE
2
APPID
5
9
100
AcDbSymbolTable
70
2
0
APPID
5
12
100
AcDbSymbolTableRecord
100
AcDbRegAppTableRecord
2
ACAD
70
0
0
ENDTAB
0
TABLE
2
DIMSTYLE
5
A
100
AcDbSymbolTable
70
1
0
ENDTAB
0
TABLE
2
BLOCK_RECORD
5
1
100
AcDbSymbolTable
70
1
0
BLOCK_RECORD
5
1F
100
AcDbSymbolTableRecord
100
AcDbBlockTableRecord
2
*MODEL_SPACE
0
BLOCK_RECORD
5
1B
100
AcDbSymbolTableRecord
100
AcDbBlockTableRecord
2
*PAPER_SPACE
0
ENDTAB
0
ENDSEC
0
SECTION
2
BLOCKS
0
BLOCK
5
20
100
AcDbEntity
100
AcDbBlockBegin
2
*MODEL_SPACE
0
ENDBLK
5
21
100
AcDbEntity
100
AcDbBlockEnd
0
BLOCK
5
1C
100
AcDbEntity
100
AcDbBlockBegin
2
*PAPER_SPACE
0
ENDBLK
5
1D
100
AcDbEntity
100
AcDbBlockEnd
0
ENDSEC
0
SECTION
2
ENTITIES
0
LINE
5
100
100
AcDbEntity
8
0
100
AcDbLine
10
4.4174706383367379
20
-5.4920454545454529
30
0
11
13.433379729245871
21
-5.4920454545454529
31
0
0
LINE
5
101
100
AcDbEntity
8
0
100
AcDbLine
10
13.433379729245871
20
-5.4920454545454529
30
0
11
13.433379729245871
21
-9.0534090909090885
31
0
0
LINE
5
102
100
AcDbEntity
8
0
100
AcDbLine
10
13.433379729245871
20
-9.0534090909090885
30
0
11
4.4174706383367379
21
-9.0534090909090885
31
0
0
LINE
5
103
100
AcDbEntity
8
0
100
AcDbLine
10
4.4174706383367379
20
-9.0534090909090885
30
0
11
4.4174706383367379
21
-5.4920454545454529
31
0
0
LINE
5
104
100
AcDbEntity
8
0
100
AcDbLine
10
-8.3889300670387001
20
-7.473008428482844
30
0
11
-8.3889300670387001
21
-3.9116447921191377
31
0
0
LINE
5
105
100
AcDbEntity
8
0
100
AcDbLine
10
-8.3889300670387001
20
-3.9116447921191377
30
0
11
-3.9184755215840994
21
-3.9116447921191377
31
0
0
LINE
5
106
100
AcDbEntity
8
0
100
AcDbLine
10
-3.9184755215840994
20
-3.9116447921191377
30
0
11
-3.9184755215840994
21
-7.473008428482844
31
0
0
LINE
5
107
100
AcDbEntity
8
0
100
AcDbLine
10
-3.9184755215840994
20
-7.473008428482844
30
0
11
-8.3889300670387001
21
-7.473008428482844
31
0
0
LINE
5
108
100
AcDbEntity
8
0
100
AcDbLine
10
-8.3889300670387001
20
3.266394748394652
30
0
11
-8.3889300670387001
21
6.8277583847583578
31
0
0
LINE
5
109
100
AcDbEntity
8
0
100
AcDbLine
10
-8.3889300670387001
20
6.8277583847583578
30
0
11
-3.9184755215840994
21
6.8277583847583578
31
0
0
LINE
5
110
100
AcDbEntity
8
0
100
AcDbLine
10
-3.9184755215840994
20
6.8277583847583578
30
0
11
-3.9184755215840994
21
3.266394748394652
31
0
0
LINE
5
111
100
AcDbEntity
8
0
100
AcDbLine
10
-3.9184755215840994
20
3.266394748394652
30
0
11
-8.3889300670387001
21
3.266394748394652
31
0
0
LINE
5
112
100
AcDbEntity
8
0
100
AcDbLine
10
14.190197911063933
20
-10.401136363636329
30
0
11
14.190197911063933
21
10.401152757336874
31
0
0
LINE
5
113
100
AcDbEntity
8
0
100
AcDbLine
10
14.190197911063933
20
10.401152757336874
30
0
11
10.141797074061856
21
10.399383323460174
31
0
0
LINE
5
114
100
AcDbEntity
8
0
100
AcDbLine
10
10.141797074061856
20
10.399383323460174
30
0
11
10.141797074061856
21
11.401136363636333
31
0
0
LINE
5
115
100
AcDbEntity
8
0
100
AcDbLine
10
10.141797074061856
20
11.401136363636333
30
0
11
6.2061035825480815
21
11.401136363636333
31
0
0
LINE
5
116
100
AcDbEntity
8
0
100
AcDbLine
10
6.2061035825480815
20
11.401136363636333
30
0
11
6.2061035825480815
21
10.397663150564117
31
0
0
LINE
5
117
100
AcDbEntity
8
0
100
AcDbLine
10
6.2061035825480815
20
10.397663150564117
30
0
11
-1.5924104433312891
21
10.394254655343198
31
0
0
LINE
5
118
100
AcDbEntity
8
0
100
AcDbLine
10
-1.5924104433312891
20
10.394254655343197
30
0
11
-1.5924104433312891
21
11.401136363636331
31
0
0
LINE
5
119
100
AcDbEntity
8
0
100
AcDbLine
10
-1.5924104433312891
20
11.401136363636333
30
0
11
-4.1705507405760045
21
11.401136363636333
31
0
0
LINE
5
120
100
AcDbEntity
8
0
100
AcDbLine
10
-4.1705507405760045
20
11.401136363636333
30
0
11
-4.1705507405760045
21
10.401136363636333
31
0
0
LINE
5
121
100
AcDbEntity
8
0
100
AcDbLine
10
-4.1705507405760045
20
10.401136363636333
30
0
11
-8.5370748162087295
21
10.401136363636333
31
0
0
LINE
5
122
100
AcDbEntity
8
0
100
AcDbLine
10
-8.5370748162087295
20
10.401136363636333
30
0
11
-8.5370748162087295
21
11.525132445497787
31
0
0
LINE
5
123
100
AcDbEntity
8
0
100
AcDbLine
10
-8.5370748162087295
20
11.525132445497787
30
0
11
-10.863624954211986
21
6.7855328883600494
31
0
0
LINE
5
124
100
AcDbEntity
8
0
100
AcDbLine
10
-10.863624954211986
20
6.7855328883600503
30
0
11
-11.761304729729716
21
7.2261812976688153
31
0
0
LINE
5
125
100
AcDbEntity
8
0
100
AcDbLine
10
-11.761304729729716
20
7.2261812976688145
30
0
11
-13.757480609477142
21
3.15961330883535
31
0
0
LINE
5
126
100
AcDbEntity
8
0
100
AcDbLine
10
-13.757480609477142
20
3.1596133088353504
30
0
11
-12.859800833959412
21
2.7189648995265134
31
0
0
LINE
5
127
100
AcDbEntity
8
0
100
AcDbLine
10
-12.859800833959412
20
2.7189648995265134
30
0
11
-14.194472273172636
21
8.8817841970012523e-15
31
0
0
LINE
5
128
100
AcDbEntity
8
0
100
AcDbLine
10
-14.194472273172636
20
8.8817841970012523e-15
30
0
11
-12.859800833959412
21
-2.7189648995264148
31
0
0
LINE
5
129
100
AcDbEntity
8
0
100
AcDbLine
10
-12.859800833959412
20
-2.7189648995264148
30
0
11
-13.757480609477142
21
-3.1596133088351785
31
0
0
LINE
5
130
100
AcDbEntity
8
0
100
AcDbLine
10
-13.757480609477142
20
-3.1596133088351785
30
0
11
-11.731401182446177
21
-7.2871001823068742
31
0
0
LINE
5
131
100
AcDbEntity
8
0
100
AcDbLine
10
-11.731401182446177
20
-7.2871001823068742
30
0
11
-10.833721406928447
21
-6.8464517729980301
31
0
0
LINE
5
132
100
AcDbEntity
8
0
100
AcDbLine
10
-10.833721406928447
20
-6.8464517729980301
30
0
11
-8.5370748162087295
21
-11.525132445497796
31
0
0
LINE
5
133
100
AcDbEntity
8
0
100
AcDbLine
10
-8.5370748162087295
20
-11.525132445497796
30
0
11
-8.5370748162087295
21
-10.401136363636329
31
0
0
LINE
5
134
100
AcDbEntity
8
0
100
AcDbLine
10
-8.5370748162087295
20
-10.401136363636329
30
0
11
-3.4511148669217562
21
-10.401136363636329
31
0
0
LINE
5
135
100
AcDbEntity
8
0
100
AcDbLine
10
-3.4511148669217562
20
-10.401136363636329
30
0
11
-3.4511148669217562
21
-11.401136363636331
31
0
0
LINE
5
136
100
AcDbEntity
8
0
100
AcDbLine
10
-3.4511148669217562
20
-11.401136363636331
30
0
11
-0.33213702403955381
21
-11.401136363636331
31
0
0
LINE
5
137
100
AcDbEntity
8
0
100
AcDbLine
10
-0.33213702403955381
20
-11.401136363636331
30
0
11
-0.33213702403955381
21
-10.401136363636329
31
0
0
LINE
5
138
100
AcDbEntity
8
0
100
AcDbLine
10
-0.33213702403955381
20
-10.401136363636329
30
0
11
6.095906549391259
21
-10.401136363636329
31
0
0
LINE
5
139
100
AcDbEntity
8
0
100
AcDbLine
10
6.095906549391259
20
-10.401136363636329
30
0
11
6.095906549391259
21
-11.401136363636331
31
0
0
LINE
5
140
100
AcDbEntity
8
0
100
AcDbLine
10
6.095906549391259
20
-11.401136363636331
30
0
11
8.8920382574227119
21
-11.401136363636331
31
0
0
LINE
5
141
100
AcDbEntity
8
0
100
AcDbLine
10
8.8920382574227119
20
-11.401136363636331
30
0
11
8.8920382574227119
21
-10.401136363636329
31
0
0
LINE
5
142
100
AcDbEntity
8
0
100
AcDbLine
10
8.8920382574227119
20
-10.401136363636329
30
0
11
14.190197911063933
21
-10.401136363636329
31
0
0
ENDSEC
0
SECTION
2
OBJECTS
0
DICTIONARY
5
C
100
AcDbDictionary
3
ACAD_GROUP
350
D
3
ACAD_MLINESTYLE
350
17
0
DICTIONARY
5
D
100
AcDbDictionary
0
DICTIONARY
5
1A
330
C
100
AcDbDictionary
0
DICTIONARY
5
17
100
AcDbDictionary
0
ENDSEC
0
EOF
