0
SECTION
2
HEADER
9
$INSUNITS
70
4
9
$ACADVER
1
AC1014
9
$HANDSEED
5
FFFF
0
ENDSEC
0
SECTION
2
TABLES
0
TABLE
2
VPORT
5
8
100
AcDbSymbolTable
0
ENDTAB
0
TABLE
2
LTYPE
5
5
100
AcDbSymbolTable
0
LTYPE
5
14
100
AcDbSymbolTableRecord
100
AcDbLinetypeTableRecord
2
BYBLOCK
70
0
0
LTYPE
5
15
100
AcDbSymbolTableRecord
100
AcDbLinetypeTableRecord
2
BYLAYER
70
0
0
ENDTAB
0
TABLE
2
LAYER
5
2
100
AcDbSymbolTable
70
2
0
LAYER
5
50
100
AcDbSymbolTableRecord
100
AcDbLayerTableRecord
2
0
70
0
6
CONTINUOUS
0
ENDTAB
0
TABLE
2
STYLE
5
3
100
AcDbSymbolTable
70
1
0
STYLE
5
11
100
AcDbSymbolTableRecord
100
AcDbTextStyleTableRecord
2
STANDARD
70
0
0
ENDTAB
0
TABLE
2
VIEW
5
6
100
AcDbSymbolTable
70
0
0
ENDTAB
0
TABLE
2
UCS
5
7
100
AcDbSymbolTable
70
0
0
ENDTAB
0
TABLE
2
APPID
5
9
100
AcDbSymbolTable
70
2
0
APPID
5
12
100
AcDbSymbolTableRecord
100
AcDbRegAppTableRecord
2
ACAD
70
0
0
ENDTAB
0
TABLE
2
DIMSTYLE
5
A
100
AcDbSymbolTable
70
1
0
ENDTAB
0
TABLE
2
BLOCK_RECORD
5
1
100
AcDbSymbolTable
70
1
0
BLOCK_RECORD
5
1F
100
AcDbSymbolTableRecord
100
AcDbBlockTableRecord
2
*MODEL_SPACE
0
BLOCK_RECORD
5
1B
100
AcDbSymbolTableRecord
100
AcDbBlockTableRecord
2
*PAPER_SPACE
0
ENDTAB
0
ENDSEC
0
SECTION
2
BLOCKS
0
BLOCK
5
20
100
AcDbEntity
100
AcDbBlockBegin
2
*MODEL_SPACE
0
ENDBLK
5
21
100
AcDbEntity
100
AcDbBlockEnd
0
BLOCK
5
1C
100
AcDbEntity
100
AcDbBlockBegin
2
*PAPER_SPACE
0
ENDBLK
5
1D
100
AcDbEntity
100
AcDbBlockEnd
0
ENDSEC
0
SECTION
2
ENTITIES
0
LINE
5
100
100
AcDbEntity
8
0
100
AcDbLine
10
-6.4577410217509623
20
-6.7238457362925104
30
0
11
-6.4577410217509623
21
-7.6488457362925777
31
0
0
LINE
5
101
100
AcDbEntity
8
0
100
AcDbLine
10
-6.4577410217509623
20
-7.6488457362925777
30
0
11
-10.291831930841937
21
-7.6488457362925777
31
0
0
LINE
5
102
100
AcDbEntity
8
0
100
AcDbLine
10
-10.291831930841937
20
-7.6488457362925777
30
0
11
-10.291831930841937
21
-6.7238457362925104
31
0
0
LINE
5
103
100
AcDbEntity
8
0
100
AcDbLine
10
-10.291831930841937
20
-6.7238457362925104
30
0
11
-6.4577410217509623
21
-6.7238457362925104
31
0
0
LINE
5
104
100
AcDbEntity
8
0
100
AcDbLine
10
-6.4577410217509623
20
-5.6488457362925786
30
0
11
-10.291831930841937
21
-5.6488457362925786
31
0
0
LINE
5
105
100
AcDbEntity
8
0
100
AcDbLine
10
-10.291831930841937
20
-5.6488457362925786
30
0
11
-10.291831930841937
21
-4.7238457362925086
31
0
0
LINE
5
106
100
AcDbEntity
8
0
100
AcDbLine
10
-10.291831930841937
20
-4.7238457362925086
30
0
11
-6.4577410217509623
21
-4.7238457362925086
31
0
0
LINE
5
107
100
AcDbEntity
8
0
100
AcDbLine
10
-6.4577410217509623
20
-4.7238457362925086
30
0
11
-6.4577410217509623
21
-5.6488457362925786
31
0
0
LINE
5
108
100
AcDbEntity
8
0
100
AcDbLine
10
-6.4577410217509623
20
4.0155574405849848
30
0
11
-6.4577410217509623
21
3.0905574405849165
31
0
0
LINE
5
109
100
AcDbEntity
8
0
100
AcDbLine
10
-6.4577410217509623
20
3.0905574405849165
30
0
11
-10.291831930841937
21
3.0905574405849165
31
0
0
LINE
5
110
100
AcDbEntity
8
0
100
AcDbLine
10
-10.291831930841937
20
3.0905574405849165
30
0
11
-10.291831930841937
21
4.0155574405849848
31
0
0
LINE
5
111
100
AcDbEntity
8
0
100
AcDbLine
10
-10.291831930841937
20
4.0155574405849848
30
0
11
-6.4577410217509623
21
4.0155574405849848
31
0
0
LINE
5
112
100
AcDbEntity
8
0
100
AcDbLine
10
-10.291831930841937
20
5.0905574405849174
30
0
11
-10.291831930841937
21
6.0155574405849865
31
0
0
LINE
5
113
100
AcDbEntity
8
0
100
AcDbLine
10
-10.291831930841937
20
6.0155574405849865
30
0
11
-6.4577410217509623
21
6.0155574405849865
31
0
0
LINE
5
114
100
AcDbEntity
8
0
100
AcDbLine
10
-6.4577410217509623
20
6.0155574405849865
30
0
11
-6.4577410217509623
21
5.0905574405849174
31
0
0
LINE
5
115
100
AcDbEntity
8
0
100
AcDbLine
10
-6.4577410217509623
20
5.0905574405849174
30
0
11
-10.291831930841937
21
5.0905574405849174
31
0
0
LINE
5
116
100
AcDbEntity
8
0
100
AcDbLine
10
-11.798279640339899
20
-9.9002384115449509
30
0
11
11.969114229078883
21
-9.88063688684284
31
0
0
LINE
5
117
100
AcDbEntity
8
0
100
AcDbLine
10
11.969114229078883
20
-9.88063688684284
30
0
11
11.969114229078883
21
8.9002191356511027
31
0
0
LINE
5
118
100
AcDbEntity
8
0
100
AcDbLine
10
11.969114229078883
20
8.9002191356511027
30
0
11
6.0923925242998678
21
8.9002191356511027
31
0
0
LINE
5
119
100
AcDbEntity
8
0
100
AcDbLine
10
6.0923925242998678
20
8.9002191356511027
30
0
11
6.0923925242998678
21
9.9002191356511009
31
0
0
LINE
5
120
100
AcDbEntity
8
0
100
AcDbLine
10
6.0923925242998678
20
9.9002191356511009
30
0
11
3.1220274542954485
21
9.9002191356511009
31
0
0
LINE
5
121
100
AcDbEntity
8
0
100
AcDbLine
10
3.1220274542954485
20
9.9002191356511009
30
0
11
3.122464524128219
21
8.9002191356511027
31
0
0
LINE
5
122
100
AcDbEntity
8
0
100
AcDbLine
10
3.122464524128219
20
8.9002191356511027
30
0
11
-5.6904055932670872
21
8.9002191356511027
31
0
0
LINE
5
123
100
AcDbEntity
8
0
100
AcDbLine
10
-5.6904055932670872
20
8.9002191356511027
30
0
11
-5.6904055932670872
21
9.9002191356511009
31
0
0
LINE
5
124
100
AcDbEntity
8
0
100
AcDbLine
10
-5.6904055932670872
20
9.9002191356511009
30
0
11
-8.2032258934532365
21
9.9002191356511009
31
0
0
LINE
5
125
100
AcDbEntity
8
0
100
AcDbLine
10
-8.2032258934532365
20
9.9002191356511009
30
0
11
-8.2032258934532365
21
8.9002191356511027
31
0
0
LINE
5
126
100
AcDbEntity
8
0
100
AcDbLine
10
-8.2032258934532365
20
8.9002191356511027
30
0
11
-11.804160823443368
21
8.9002191356511222
31
0
0
LINE
5
127
100
AcDbEntity
8
0
100
AcDbLine
10
-11.804160823443368
20
8.9002191356511222
30
0
11
-11.969121411160728
21
8.5641648569492475
31
0
0
LINE
5
128
100
AcDbEntity
8
0
100
AcDbLine
10
-11.969121411160728
20
8.5641648569492475
30
0
11
-11.954155274730596
21
-9.5826918108251729
31
0
0
LINE
5
129
100
AcDbEntity
8
0
100
AcDbLine
10
-11.954155274730596
20
-9.5826918108251729
30
0
11
-11.798279640339899
21
-9.9002384115449509
31
0
0
ENDSEC
0
SECTION
2
OBJECTS
0
DICTIONARY
5
C
100
AcDbDictionary
3
ACAD_GROUP
350
D
3
ACAD_MLINESTYLE
350
17
0
DICTIONARY
5
D
100
AcDbDictionary
0
DICTIONARY
5
1A
330
C
100
AcDbDictionary
0
DICTIONARY
5
17
100
AcDbDictionary
0
ENDSEC
0
EOF
