0
SECTION
2
HEADER
9
$INSUNITS
70
4
9
$ACADVER
1
AC1014
9
$HANDSEED
5
FFFF
0
ENDSEC
0
SECTION
2
TABLES
0
TABLE
2
VPORT
5
8
100
AcDbSymbolTable
0
ENDTAB
0
TABLE
2
LTYPE
5
5
100
AcDbSymbolTable
0
LTYPE
5
14
100
AcDbSymbolTableRecord
100
AcDbLinetypeTableRecord
2
BYBLOCK
70
0
0
LTYPE
5
15
100
AcDbSymbolTableRecord
100
AcDbLinetypeTableRecord
2
BYLAYER
70
0
0
ENDTAB
0
TABLE
2
LAYER
5
2
100
AcDbSymbolTable
70
2
0
LAYER
5
50
100
AcDbSymbolTableRecord
100
AcDbLayerTableRecord
2
0
70
0
6
CONTINUOUS
0
ENDTAB
0
TABLE
2
STYLE
5
3
100
AcDbSymbolTable
70
1
0
STYLE
5
11
100
AcDbSymbolTableRecord
100
AcDbTextStyleTableRecord
2
STANDARD
70
0
0
ENDTAB
0
TABLE
2
VIEW
5
6
100
AcDbSymbolTable
70
0
0
ENDTAB
0
TABLE
2
UCS
5
7
100
AcDbSymbolTable
70
0
0
ENDTAB
0
TABLE
2
APPID
5
9
100
AcDbSymbolTable
70
2
0
APPID
5
12
100
AcDbSymbolTableRecord
100
AcDbRegAppTableRecord
2
ACAD
70
0
0
ENDTAB
0
TABLE
2
DIMSTYLE
5
A
100
AcDbSymbolTable
70
1
0
ENDTAB
0
TABLE
2
BLOCK_RECORD
5
1
100
AcDbSymbolTable
70
1
0
BLOCK_RECORD
5
1F
100
AcDbSymbolTableRecord
100
AcDbBlockTableRecord
2
*MODEL_SPACE
0
BLOCK_RECORD
5
1B
100
AcDbSymbolTableRecord
100
AcDbBlockTableRecord
2
*PAPER_SPACE
0
ENDTAB
0
ENDSEC
0
SECTION
2
BLOCKS
0
BLOCK
5
20
100
AcDbEntity
100
AcDbBlockBegin
2
*MODEL_SPACE
0
ENDBLK
5
21
100
AcDbEntity
100
AcDbBlockEnd
0
BLOCK
5
1C
100
AcDbEntity
100
AcDbBlockBegin
2
*PAPER_SPACE
0
ENDBLK
5
1D
100
AcDbEntity
100
AcDbBlockEnd
0
ENDSEC
0
SECTION
2
ENTITIES
0
LINE
5
100
100
AcDbEntity
8
0
100
AcDbLine
10
12.673863636363762
20
3.1533536368542059
30
0
11
13.673863636363706
21
3.1533536368542059
31
0
0
LINE
5
101
100
AcDbEntity
8
0
100
AcDbLine
10
13.673863636363706
20
3.1533536368542059
30
0
11
13.673863636363706
21
7.3661273411494221
31
0
0
LINE
5
102
100
AcDbEntity
8
0
100
AcDbLine
10
13.673863636363706
20
7.3661273411494221
30
0
11
12.673863636363762
21
7.3661273411494221
31
0
0
LINE
5
103
100
AcDbEntity
8
0
100
AcDbLine
10
12.673863636363762
20
7.3661273411494221
30
0
11
12.673863636363762
21
11.401136363636368
31
0
0
LINE
5
104
100
AcDbEntity
8
0
100
AcDbLine
10
12.673863636363762
20
11.401136363636368
30
0
11
-13.673863636363706
21
11.401136363636368
31
0
0
LINE
5
105
100
AcDbEntity
8
0
100
AcDbLine
10
-13.673863636363706
20
11.401136363636368
30
0
11
-13.673863636363706
21
6.8846122880037797
31
0
0
LINE
5
106
100
AcDbEntity
8
0
100
AcDbLine
10
-13.673863636363706
20
6.8846122880037797
30
0
11
-12.673863636363762
21
6.8846122880037797
31
0
0
LINE
5
107
100
AcDbEntity
8
0
100
AcDbLine
10
-12.673863636363762
20
6.8846122880037797
30
0
11
-12.673863636363762
21
4.4564719907589279
31
0
0
LINE
5
108
100
AcDbEntity
8
0
100
AcDbLine
10
-12.673863636363762
20
4.4564719907589279
30
0
11
-13.673863636363706
21
4.4564719907589279
31
0
0
LINE
5
109
100
AcDbEntity
8
0
100
AcDbLine
10
-13.673863636363706
20
4.4564719907589279
30
0
11
-13.673863636363706
21
-3.4920420351203063
31
0
0
LINE
5
110
100
AcDbEntity
8
0
100
AcDbLine
10
-13.673863636363706
20
-3.4920420351203063
30
0
11
-12.673863636363762
21
-3.4920420351203063
31
0
0
LINE
5
111
100
AcDbEntity
8
0
100
AcDbLine
10
-12.673863636363762
20
-3.4920420351203063
30
0
11
-12.673863636363762
21
-7.277735526634217
31
0
0
LINE
5
112
100
AcDbEntity
8
0
100
AcDbLine
10
-12.673863636363762
20
-7.277735526634217
30
0
11
-13.673863636363706
21
-7.277735526634217
31
0
0
LINE
5
113
100
AcDbEntity
8
0
100
AcDbLine
10
-13.673863636363706
20
-7.277735526634217
30
0
11
-13.673863636363706
21
-11.401136363636226
31
0
0
LINE
5
114
100
AcDbEntity
8
0
100
AcDbLine
10
-13.673863636363706
20
-11.401136363636226
30
0
11
-9.5260470474057968
21
-11.401136363636226
31
0
0
LINE
5
115
100
AcDbEntity
8
0
100
AcDbLine
10
-9.5260470474057968
20
-11.401136363636226
30
0
11
-9.5260470474057968
21
-2.2727272727271952
31
0
0
ARC
5
116
100
AcDbEntity
8
0
100
AcDbCircle
10
-5.927183411042023
20
-2.2727272727271952
30
0
40
3.5988636363637738
210
-0
220
0
230
1
100
AcDbArc
50
0
51
180
0
LINE
5
117
100
AcDbEntity
8
0
100
AcDbLine
10
-2.3283197746782491
20
-2.2727272727271952
30
0
11
-2.3283197746783912
21
-11.401136363636226
31
0
0
LINE
5
118
100
AcDbEntity
8
0
100
AcDbLine
10
-2.3283197746783912
20
-11.401136363636226
30
0
11
12.673863636363762
21
-11.401136363636226
31
0
0
LINE
5
119
100
AcDbEntity
8
0
100
AcDbLine
10
12.673863636363762
20
-11.401136363636226
30
0
11
12.673863636363762
21
-7.2761033712329493
31
0
0
LINE
5
120
100
AcDbEntity
8
0
100
AcDbLine
10
12.673863636363762
20
-7.2761033712329493
30
0
11
13.673863636363706
21
-7.2761033712329493
31
0
0
LINE
5
121
100
AcDbEntity
8
0
100
AcDbLine
10
13.673863636363706
20
-7.2761033712329493
30
0
11
13.673863636363706
21
0.037499999999965894
31
0
0
LINE
5
122
100
AcDbEntity
8
0
100
AcDbLine
10
13.673863636363706
20
0.037499999999965894
30
0
11
12.673863636363762
21
0.037499999999965894
31
0
0
LINE
5
123
100
AcDbEntity
8
0
100
AcDbLine
10
12.673863636363762
20
0.037499999999965894
30
0
11
12.673863636363762
21
3.1533536368542059
31
0
0
LINE
5
124
100
AcDbEntity
8
0
100
AcDbLine
10
5.191292517891668
20
8.9836558656671173
30
0
11
7.8435652451643989
21
8.9836558656671173
31
0
0
LINE
5
125
100
AcDbEntity
8
0
100
AcDbLine
10
7.8435652451643989
20
8.9836558656671173
30
0
11
7.8435652451643989
21
6.3313831383943864
31
0
0
LINE
5
126
100
AcDbEntity
8
0
100
AcDbLine
10
7.8435652451643989
20
6.3313831383943864
30
0
11
5.191292517891668
21
6.3313831383943864
31
0
0
LINE
5
127
100
AcDbEntity
8
0
100
AcDbLine
10
5.191292517891668
20
6.3313831383943864
30
0
11
5.191292517891668
21
8.9836558656671173
31
0
0
LINE
5
128
100
AcDbEntity
8
0
100
AcDbLine
10
4.4470613588812569
20
-7.2352272727272293
30
0
11
4.4470613588812569
21
-0.46446068271279728
31
0
0
LINE
5
129
100
AcDbEntity
8
0
100
AcDbLine
10
8.4629704497903901
20
-7.2352272727272293
30
0
11
4.4470613588812569
21
-7.2352272727272293
31
0
0
LINE
5
130
100
AcDbEntity
8
0
100
AcDbLine
10
8.4629704497903901
20
-0.46446068271279728
30
0
11
8.4629704497903901
21
-7.2352272727272293
31
0
0
ARC
5
131
100
AcDbEntity
8
0
100
AcDbCircle
10
6.4550159043358235
20
-1.61178442001642
30
0
40
2.312624745779567
210
0
220
-0
230
1
100
AcDbArc
50
29.743184944284199
51
150.25681505571583
0
LINE
5
132
100
AcDbEntity
8
0
100
AcDbLine
10
-7.5717678893778384
20
8.9836558656671173
30
0
11
-4.9194951621051075
21
8.9836558656671173
31
0
0
LINE
5
133
100
AcDbEntity
8
0
100
AcDbLine
10
-4.9194951621051075
20
8.9836558656671173
30
0
11
-4.9194951621051075
21
6.3313831383943864
31
0
0
LINE
5
134
100
AcDbEntity
8
0
100
AcDbLine
10
-4.9194951621051075
20
6.3313831383943864
30
0
11
-7.5717678893778384
21
6.3313831383943864
31
0
0
LINE
5
135
100
AcDbEntity
8
0
100
AcDbLine
10
-7.5717678893778384
20
6.3313831383943864
30
0
11
-7.5717678893778384
21
8.9836558656671173
31
0
0
ENDSEC
0
SECTION
2
OBJECTS
0
DICTIONARY
5
C
100
AcDbDictionary
3
ACAD_GROUP
350
D
3
ACAD_MLINESTYLE
350
17
0
DICTIONARY
5
D
100
AcDbDictionary
0
DICTIONARY
5
1A
330
C
100
AcDbDictionary
0
DICTIONARY
5
17
100
AcDbDictionary
0
ENDSEC
0
EOF
