  0
SECTION
  2
HEADER
  9
$ACADVER
  1
AC1009
  9
$EXTMIN
 10
0.0
 20
0.0
 30
0.0
  9
$EXTMAX
 10
1000.0
 20
1000.0
 30
0.0
  9
$FILLMODE
 70
 0
  9
$SPLFRAME
 70
 1
  0
ENDSEC
  0
SECTION
  2
TABLES
  0
TABLE
  2
LAYER
 70
1
  0
LAYER
  2
0
 70
     0
 62
     7
  6
CONTINUOUS
  0
ENDTAB
  0
ENDSEC
  0
SECTION
  2
ENTITIES
  0
POLYLINE
  8
0
 62
     0
 66
     1
 10
0
 20
0
 30
0.0
 70
     1
 40
0
 41
0
  0
VERTEX
  8
0
 10
5.06776
 20
129.778
 30
0.0
 40
0
 41
0
  0
VERTEX
  8
0
 10
5.06776
 20
130.778
 30
0.0
 40
0
 41
0
  0
VERTEX
  8
0
 10
14.0307
 20
130.778
 30
0.0
 40
0
 41
0
  0
VERTEX
  8
0
 10
14.0307
 20
129.778
 30
0.0
 40
0
 41
0
  0
VERTEX
  8
0
 10
16.8506
 20
129.778
 30
0.0
 40
0
 41
0
  0
VERTEX
  8
0
 10
16.8506
 20
130.778
 30
0.0
 40
0
 41
0
  0
VERTEX
  8
0
 10
22.8024
 20
130.778
 30
0.0
 40
0
 41
0
  0
VERTEX
  8
0
 10
22.8024
 20
105.43
 30
0.0
 40
0
 41
0
  0
VERTEX
  8
0
 10
0
 20
105.43
 30
0.0
 40
0
 41
0
  0
VERTEX
  8
0
 10
0
 20
130.778
 30
0.0
 40
0
 41
0
  0
VERTEX
  8
0
 10
2.70492
 20
130.778
 30
0.0
 40
0
 41
0
  0
VERTEX
  8
0
 10
2.70492
 20
129.778
 30
0.0
 40
0
 41
0
  0
VERTEX
  8
0
 10
5.06776
 20
129.778
 30
0.0
 40
0
 41
0
  0
SEQEND
 8
0
  0
POLYLINE
  8
0
 62
     0
 66
     1
 10
0
 20
0
 30
0.0
 70
     1
 40
0
 41
0
  0
VERTEX
  8
0
 10
12.6739
 20
121.919
 30
0.0
 40
0
 41
0
  0
VERTEX
  8
0
 10
12.643
 20
121.919
 30
0.0
 40
0
 41
0
  0
VERTEX
  8
0
 10
12.5504
 20
121.931
 30
0.0
 40
0
 41
0
  0
VERTEX
  8
0
 10
12.4354
 20
121.967
 30
0.0
 40
0
 41
0
  0
VERTEX
  8
0
 10
12.3314
 20
122.023
 30
0.0
 40
0
 41
0
  0
VERTEX
  8
0
 10
12.2407
 20
122.098
 30
0.0
 40
0
 41
0
  0
VERTEX
  8
0
 10
12.166
 20
122.189
 30
0.0
 40
0
 41
0
  0
VERTEX
  8
0
 10
12.1095
 20
122.293
 30
0.0
 40
0
 41
0
  0
VERTEX
  8
0
 10
12.0738
 20
122.408
 30
0.0
 40
0
 41
0
  0
VERTEX
  8
0
 10
12.0614
 20
122.5
 30
0.0
 40
0
 41
0
  0
VERTEX
  8
0
 10
12.0614
 20
122.531
 30
0.0
 40
0
 41
0
  0
VERTEX
  8
0
 10
12.0614
 20
122.562
 30
0.0
 40
0
 41
0
  0
VERTEX
  8
0
 10
12.0738
 20
122.655
 30
0.0
 40
0
 41
0
  0
VERTEX
  8
0
 10
12.1095
 20
122.77
 30
0.0
 40
0
 41
0
  0
VERTEX
  8
0
 10
12.166
 20
122.874
 30
0.0
 40
0
 41
0
  0
VERTEX
  8
0
 10
12.2407
 20
122.964
 30
0.0
 40
0
 41
0
  0
VERTEX
  8
0
 10
12.3314
 20
123.039
 30
0.0
 40
0
 41
0
  0
VERTEX
  8
0
 10
12.4354
 20
123.096
 30
0.0
 40
0
 41
0
  0
VERTEX
  8
0
 10
12.5504
 20
123.131
 30
0.0
 40
0
 41
0
  0
VERTEX
  8
0
 10
12.643
 20
123.144
 30
0.0
 40
0
 41
0
  0
VERTEX
  8
0
 10
12.6739
 20
123.144
 30
0.0
 40
0
 41
0
  0
VERTEX
  8
0
 10
12.7047
 20
123.144
 30
0.0
 40
0
 41
0
  0
VERTEX
  8
0
 10
12.7973
 20
123.131
 30
0.0
 40
0
 41
0
  0
VERTEX
  8
0
 10
12.9123
 20
123.096
 30
0.0
 40
0
 41
0
  0
VERTEX
  8
0
 10
13.0163
 20
123.039
 30
0.0
 40
0
 41
0
  0
VERTEX
  8
0
 10
13.107
 20
122.964
 30
0.0
 40
0
 41
0
  0
VERTEX
  8
0
 10
13.1818
 20
122.874
 30
0.0
 40
0
 41
0
  0
VERTEX
  8
0
 10
13.2382
 20
122.77
 30
0.0
 40
0
 41
0
  0
VERTEX
  8
0
 10
13.2739
 20
122.655
 30
0.0
 40
0
 41
0
  0
VERTEX
  8
0
 10
13.2864
 20
122.562
 30
0.0
 40
0
 41
0
  0
VERTEX
  8
0
 10
13.2864
 20
122.531
 30
0.0
 40
0
 41
0
  0
VERTEX
  8
0
 10
13.2864
 20
122.5
 30
0.0
 40
0
 41
0
  0
VERTEX
  8
0
 10
13.2739
 20
122.408
 30
0.0
 40
0
 41
0
  0
VERTEX
  8
0
 10
13.2382
 20
122.293
 30
0.0
 40
0
 41
0
  0
VERTEX
  8
0
 10
13.1818
 20
122.189
 30
0.0
 40
0
 41
0
  0
VERTEX
  8
0
 10
13.107
 20
122.098
 30
0.0
 40
0
 41
0
  0
VERTEX
  8
0
 10
13.0163
 20
122.023
 30
0.0
 40
0
 41
0
  0
VERTEX
  8
0
 10
12.9123
 20
121.967
 30
0.0
 40
0
 41
0
  0
VERTEX
  8
0
 10
12.7973
 20
121.931
 30
0.0
 40
0
 41
0
  0
VERTEX
  8
0
 10
12.7047
 20
121.919
 30
0.0
 40
0
 41
0
  0
VERTEX
  8
0
 10
12.6739
 20
121.919
 30
0.0
 40
0
 41
0
  0
SEQEND
 8
0
  0
POLYLINE
  8
0
 62
     0
 66
     1
 10
0
 20
0
 30
0.0
 70
     1
 40
0
 41
0
  0
VERTEX
  8
0
 10
11.627
 20
123.419
 30
0.0
 40
0
 41
0
  0
VERTEX
  8
0
 10
11.5961
 20
123.419
 30
0.0
 40
0
 41
0
  0
VERTEX
  8
0
 10
11.5035
 20
123.431
 30
0.0
 40
0
 41
0
  0
VERTEX
  8
0
 10
11.3885
 20
123.467
 30
0.0
 40
0
 41
0
  0
VERTEX
  8
0
 10
11.2845
 20
123.523
 30
0.0
 40
0
 41
0
  0
VERTEX
  8
0
 10
11.1938
 20
123.598
 30
0.0
 40
0
 41
0
  0
VERTEX
  8
0
 10
11.119
 20
123.689
 30
0.0
 40
0
 41
0
  0
VERTEX
  8
0
 10
11.0626
 20
123.793
 30
0.0
 40
0
 41
0
  0
VERTEX
  8
0
 10
11.0269
 20
123.908
 30
0.0
 40
0
 41
0
  0
VERTEX
  8
0
 10
11.0145
 20
124
 30
0.0
 40
0
 41
0
  0
VERTEX
  8
0
 10
11.0145
 20
124.031
 30
0.0
 40
0
 41
0
  0
VERTEX
  8
0
 10
11.0145
 20
124.062
 30
0.0
 40
0
 41
0
  0
VERTEX
  8
0
 10
11.0269
 20
124.155
 30
0.0
 40
0
 41
0
  0
VERTEX
  8
0
 10
11.0626
 20
124.27
 30
0.0
 40
0
 41
0
  0
VERTEX
  8
0
 10
11.119
 20
124.374
 30
0.0
 40
0
 41
0
  0
VERTEX
  8
0
 10
11.1938
 20
124.464
 30
0.0
 40
0
 41
0
  0
VERTEX
  8
0
 10
11.2845
 20
124.539
 30
0.0
 40
0
 41
0
  0
VERTEX
  8
0
 10
11.3885
 20
124.596
 30
0.0
 40
0
 41
0
  0
VERTEX
  8
0
 10
11.5035
 20
124.631
 30
0.0
 40
0
 41
0
  0
VERTEX
  8
0
 10
11.5961
 20
124.644
 30
0.0
 40
0
 41
0
  0
VERTEX
  8
0
 10
11.627
 20
124.644
 30
0.0
 40
0
 41
0
  0
VERTEX
  8
0
 10
11.6578
 20
124.644
 30
0.0
 40
0
 41
0
  0
VERTEX
  8
0
 10
11.7504
 20
124.631
 30
0.0
 40
0
 41
0
  0
VERTEX
  8
0
 10
11.8653
 20
124.596
 30
0.0
 40
0
 41
0
  0
VERTEX
  8
0
 10
11.9694
 20
124.539
 30
0.0
 40
0
 41
0
  0
VERTEX
  8
0
 10
12.0601
 20
124.464
 30
0.0
 40
0
 41
0
  0
VERTEX
  8
0
 10
12.1348
 20
124.374
 30
0.0
 40
0
 41
0
  0
VERTEX
  8
0
 10
12.1913
 20
124.27
 30
0.0
 40
0
 41
0
  0
VERTEX
  8
0
 10
12.227
 20
124.155
 30
0.0
 40
0
 41
0
  0
VERTEX
  8
0
 10
12.2395
 20
124.062
 30
0.0
 40
0
 41
0
  0
VERTEX
  8
0
 10
12.2395
 20
124.031
 30
0.0
 40
0
 41
0
  0
VERTEX
  8
0
 10
12.2395
 20
124
 30
0.0
 40
0
 41
0
  0
VERTEX
  8
0
 10
12.227
 20
123.908
 30
0.0
 40
0
 41
0
  0
VERTEX
  8
0
 10
12.1913
 20
123.793
 30
0.0
 40
0
 41
0
  0
VERTEX
  8
0
 10
12.1348
 20
123.689
 30
0.0
 40
0
 41
0
  0
VERTEX
  8
0
 10
12.0601
 20
123.598
 30
0.0
 40
0
 41
0
  0
VERTEX
  8
0
 10
11.9694
 20
123.523
 30
0.0
 40
0
 41
0
  0
VERTEX
  8
0
 10
11.8653
 20
123.467
 30
0.0
 40
0
 41
0
  0
VERTEX
  8
0
 10
11.7504
 20
123.431
 30
0.0
 40
0
 41
0
  0
VERTEX
  8
0
 10
11.6578
 20
123.419
 30
0.0
 40
0
 41
0
  0
VERTEX
  8
0
 10
11.627
 20
123.419
 30
0.0
 40
0
 41
0
  0
SEQEND
 8
0
  0
POLYLINE
  8
0
 62
     0
 66
     1
 10
0
 20
0
 30
0.0
 70
     1
 40
0
 41
0
  0
VERTEX
  8
0
 10
12.6739
 20
124.919
 30
0.0
 40
0
 41
0
  0
VERTEX
  8
0
 10
12.643
 20
124.919
 30
0.0
 40
0
 41
0
  0
VERTEX
  8
0
 10
12.5504
 20
124.931
 30
0.0
 40
0
 41
0
  0
VERTEX
  8
0
 10
12.4354
 20
124.967
 30
0.0
 40
0
 41
0
  0
VERTEX
  8
0
 10
12.3314
 20
125.023
 30
0.0
 40
0
 41
0
  0
VERTEX
  8
0
 10
12.2407
 20
125.098
 30
0.0
 40
0
 41
0
  0
VERTEX
  8
0
 10
12.166
 20
125.189
 30
0.0
 40
0
 41
0
  0
VERTEX
  8
0
 10
12.1095
 20
125.293
 30
0.0
 40
0
 41
0
  0
VERTEX
  8
0
 10
12.0738
 20
125.408
 30
0.0
 40
0
 41
0
  0
VERTEX
  8
0
 10
12.0614
 20
125.5
 30
0.0
 40
0
 41
0
  0
VERTEX
  8
0
 10
12.0614
 20
125.531
 30
0.0
 40
0
 41
0
  0
VERTEX
  8
0
 10
12.0614
 20
125.562
 30
0.0
 40
0
 41
0
  0
VERTEX
  8
0
 10
12.0738
 20
125.655
 30
0.0
 40
0
 41
0
  0
VERTEX
  8
0
 10
12.1095
 20
125.77
 30
0.0
 40
0
 41
0
  0
VERTEX
  8
0
 10
12.166
 20
125.874
 30
0.0
 40
0
 41
0
  0
VERTEX
  8
0
 10
12.2407
 20
125.964
 30
0.0
 40
0
 41
0
  0
VERTEX
  8
0
 10
12.3314
 20
126.039
 30
0.0
 40
0
 41
0
  0
VERTEX
  8
0
 10
12.4354
 20
126.096
 30
0.0
 40
0
 41
0
  0
VERTEX
  8
0
 10
12.5504
 20
126.131
 30
0.0
 40
0
 41
0
  0
VERTEX
  8
0
 10
12.643
 20
126.144
 30
0.0
 40
0
 41
0
  0
VERTEX
  8
0
 10
12.6739
 20
126.144
 30
0.0
 40
0
 41
0
  0
VERTEX
  8
0
 10
12.7047
 20
126.144
 30
0.0
 40
0
 41
0
  0
VERTEX
  8
0
 10
12.7973
 20
126.131
 30
0.0
 40
0
 41
0
  0
VERTEX
  8
0
 10
12.9123
 20
126.096
 30
0.0
 40
0
 41
0
  0
VERTEX
  8
0
 10
13.0163
 20
126.039
 30
0.0
 40
0
 41
0
  0
VERTEX
  8
0
 10
13.107
 20
125.964
 30
0.0
 40
0
 41
0
  0
VERTEX
  8
0
 10
13.1818
 20
125.874
 30
0.0
 40
0
 41
0
  0
VERTEX
  8
0
 10
13.2382
 20
125.77
 30
0.0
 40
0
 41
0
  0
VERTEX
  8
0
 10
13.2739
 20
125.655
 30
0.0
 40
0
 41
0
  0
VERTEX
  8
0
 10
13.2864
 20
125.562
 30
0.0
 40
0
 41
0
  0
VERTEX
  8
0
 10
13.2864
 20
125.531
 30
0.0
 40
0
 41
0
  0
VERTEX
  8
0
 10
13.2864
 20
125.5
 30
0.0
 40
0
 41
0
  0
VERTEX
  8
0
 10
13.2739
 20
125.408
 30
0.0
 40
0
 41
0
  0
VERTEX
  8
0
 10
13.2382
 20
125.293
 30
0.0
 40
0
 41
0
  0
VERTEX
  8
0
 10
13.1818
 20
125.189
 30
0.0
 40
0
 41
0
  0
VERTEX
  8
0
 10
13.107
 20
125.098
 30
0.0
 40
0
 41
0
  0
VERTEX
  8
0
 10
13.0163
 20
125.023
 30
0.0
 40
0
 41
0
  0
VERTEX
  8
0
 10
12.9123
 20
124.967
 30
0.0
 40
0
 41
0
  0
VERTEX
  8
0
 10
12.7973
 20
124.931
 30
0.0
 40
0
 41
0
  0
VERTEX
  8
0
 10
12.7047
 20
124.919
 30
0.0
 40
0
 41
0
  0
VERTEX
  8
0
 10
12.6739
 20
124.919
 30
0.0
 40
0
 41
0
  0
SEQEND
 8
0
  0
POLYLINE
  8
0
 62
     0
 66
     1
 10
0
 20
0
 30
0.0
 70
     1
 40
0
 41
0
  0
VERTEX
  8
0
 10
11.9982
 20
109.987
 30
0.0
 40
0
 41
0
  0
VERTEX
  8
0
 10
11.9445
 20
110.02
 30
0.0
 40
0
 41
0
  0
VERTEX
  8
0
 10
11.7918
 20
110.132
 30
0.0
 40
0
 41
0
  0
VERTEX
  8
0
 10
11.6082
 20
110.301
 30
0.0
 40
0
 41
0
  0
VERTEX
  8
0
 10
11.4487
 20
110.489
 30
0.0
 40
0
 41
0
  0
VERTEX
  8
0
 10
11.3148
 20
110.696
 30
0.0
 40
0
 41
0
  0
VERTEX
  8
0
 10
11.2082
 20
110.918
 30
0.0
 40
0
 41
0
  0
VERTEX
  8
0
 10
11.1301
 20
111.153
 30
0.0
 40
0
 41
0
  0
VERTEX
  8
0
 10
11.0821
 20
111.397
 30
0.0
 40
0
 41
0
  0
VERTEX
  8
0
 10
11.0659
 20
111.586
 30
0.0
 40
0
 41
0
  0
VERTEX
  8
0
 10
11.0659
 20
111.649
 30
0.0
 40
0
 41
0
  0
VERTEX
  8
0
 10
11.0659
 20
111.712
 30
0.0
 40
0
 41
0
  0
VERTEX
  8
0
 10
11.0821
 20
111.901
 30
0.0
 40
0
 41
0
  0
VERTEX
  8
0
 10
11.1301
 20
112.145
 30
0.0
 40
0
 41
0
  0
VERTEX
  8
0
 10
11.2082
 20
112.38
 30
0.0
 40
0
 41
0
  0
VERTEX
  8
0
 10
11.3148
 20
112.602
 30
0.0
 40
0
 41
0
  0
VERTEX
  8
0
 10
11.4487
 20
112.808
 30
0.0
 40
0
 41
0
  0
VERTEX
  8
0
 10
11.6082
 20
112.997
 30
0.0
 40
0
 41
0
  0
VERTEX
  8
0
 10
11.7918
 20
113.166
 30
0.0
 40
0
 41
0
  0
VERTEX
  8
0
 10
11.9445
 20
113.278
 30
0.0
 40
0
 41
0
  0
VERTEX
  8
0
 10
11.9982
 20
113.311
 30
0.0
 40
0
 41
0
  0
VERTEX
  8
0
 10
11.9982
 20
109.987
 30
0.0
 40
0
 41
0
  0
SEQEND
 8
0
  0
POLYLINE
  8
0
 62
     0
 66
     1
 10
0
 20
0
 30
0.0
 70
     1
 40
0
 41
0
  0
VERTEX
  8
0
 10
15.7114
 20
121.012
 30
0.0
 40
0
 41
0
  0
VERTEX
  8
0
 10
21.0728
 20
121.012
 30
0.0
 40
0
 41
0
  0
VERTEX
  8
0
 10
21.0728
 20
120.432
 30
0.0
 40
0
 41
0
  0
VERTEX
  8
0
 10
15.7114
 20
120.432
 30
0.0
 40
0
 41
0
  0
VERTEX
  8
0
 10
15.7114
 20
121.012
 30
0.0
 40
0
 41
0
  0
SEQEND
 8
0
  0
POLYLINE
  8
0
 62
     0
 66
     1
 10
0
 20
0
 30
0.0
 70
     1
 40
0
 41
0
  0
VERTEX
  8
0
 10
13.7114
 20
127.175
 30
0.0
 40
0
 41
0
  0
VERTEX
  8
0
 10
14.6364
 20
127.175
 30
0.0
 40
0
 41
0
  0
VERTEX
  8
0
 10
14.6364
 20
120.887
 30
0.0
 40
0
 41
0
  0
VERTEX
  8
0
 10
13.7114
 20
120.887
 30
0.0
 40
0
 41
0
  0
VERTEX
  8
0
 10
13.7114
 20
127.175
 30
0.0
 40
0
 41
0
  0
SEQEND
 8
0
  0
POLYLINE
  8
0
 62
     0
 66
     1
 10
0
 20
0
 30
0.0
 70
     1
 40
0
 41
0
  0
VERTEX
  8
0
 10
22.1478
 20
127.175
 30
0.0
 40
0
 41
0
  0
VERTEX
  8
0
 10
22.2728
 20
127.175
 30
0.0
 40
0
 41
0
  0
VERTEX
  8
0
 10
22.2728
 20
120.887
 30
0.0
 40
0
 41
0
  0
VERTEX
  8
0
 10
22.1478
 20
120.887
 30
0.0
 40
0
 41
0
  0
VERTEX
  8
0
 10
22.1478
 20
127.175
 30
0.0
 40
0
 41
0
  0
SEQEND
 8
0
  0
POLYLINE
  8
0
 62
     0
 66
     1
 10
0
 20
0
 30
0.0
 70
     1
 40
0
 41
0
  0
VERTEX
  8
0
 10
2.73568
 20
112.594
 30
0.0
 40
0
 41
0
  0
VERTEX
  8
0
 10
4.75157
 20
112.594
 30
0.0
 40
0
 41
0
  0
VERTEX
  8
0
 10
4.75157
 20
110.578
 30
0.0
 40
0
 41
0
  0
VERTEX
  8
0
 10
2.73568
 20
110.578
 30
0.0
 40
0
 41
0
  0
VERTEX
  8
0
 10
2.73568
 20
112.594
 30
0.0
 40
0
 41
0
  0
SEQEND
 8
0
  0
POLYLINE
  8
0
 62
     0
 66
     1
 10
0
 20
0
 30
0.0
 70
     1
 40
0
 41
0
  0
VERTEX
  8
0
 10
13.0732
 20
113.339
 30
0.0
 40
0
 41
0
  0
VERTEX
  8
0
 10
18.3182
 20
113.339
 30
0.0
 40
0
 41
0
  0
VERTEX
  8
0
 10
18.3182
 20
112.186
 30
0.0
 40
0
 41
0
  0
VERTEX
  8
0
 10
13.0732
 20
112.186
 30
0.0
 40
0
 41
0
  0
VERTEX
  8
0
 10
13.0732
 20
113.339
 30
0.0
 40
0
 41
0
  0
SEQEND
 8
0
  0
POLYLINE
  8
0
 62
     0
 66
     1
 10
0
 20
0
 30
0.0
 70
     1
 40
0
 41
0
  0
VERTEX
  8
0
 10
2.73568
 20
125.358
 30
0.0
 40
0
 41
0
  0
VERTEX
  8
0
 10
4.75157
 20
125.358
 30
0.0
 40
0
 41
0
  0
VERTEX
  8
0
 10
4.75157
 20
123.342
 30
0.0
 40
0
 41
0
  0
VERTEX
  8
0
 10
2.73568
 20
123.342
 30
0.0
 40
0
 41
0
  0
VERTEX
  8
0
 10
2.73568
 20
125.358
 30
0.0
 40
0
 41
0
  0
SEQEND
 8
0
  0
POLYLINE
  8
0
 62
     0
 66
     1
 10
0
 20
0
 30
0.0
 70
     1
 40
0
 41
0
  0
VERTEX
  8
0
 10
15.7114
 20
127.63
 30
0.0
 40
0
 41
0
  0
VERTEX
  8
0
 10
21.0728
 20
127.63
 30
0.0
 40
0
 41
0
  0
VERTEX
  8
0
 10
21.0728
 20
127.05
 30
0.0
 40
0
 41
0
  0
VERTEX
  8
0
 10
15.7114
 20
127.05
 30
0.0
 40
0
 41
0
  0
VERTEX
  8
0
 10
15.7114
 20
127.63
 30
0.0
 40
0
 41
0
  0
SEQEND
 8
0
  0
POLYLINE
  8
0
 62
     0
 66
     1
 10
0
 20
0
 30
0.0
 70
     1
 40
0
 41
0
  0
VERTEX
  8
0
 10
13.0732
 20
111.111
 30
0.0
 40
0
 41
0
  0
VERTEX
  8
0
 10
18.3182
 20
111.111
 30
0.0
 40
0
 41
0
  0
VERTEX
  8
0
 10
18.3182
 20
109.959
 30
0.0
 40
0
 41
0
  0
VERTEX
  8
0
 10
13.0732
 20
109.959
 30
0.0
 40
0
 41
0
  0
VERTEX
  8
0
 10
13.0732
 20
111.111
 30
0.0
 40
0
 41
0
  0
SEQEND
 8
0
  0
POLYLINE
  8
0
 62
     0
 66
     1
 10
0
 20
0
 30
0.0
 70
     1
 40
0
 41
0
  0
VERTEX
  8
0
 10
7.95822
 20
75.6325
 30
0.0
 40
0
 41
0
  0
VERTEX
  8
0
 10
5.42171
 20
76.8775
 30
0.0
 40
0
 41
0
  0
VERTEX
  8
0
 10
5.86236
 20
77.7753
 30
0.0
 40
0
 41
0
  0
VERTEX
  8
0
 10
0.0225694
 20
80.6418
 30
0.0
 40
0
 41
0
  0
VERTEX
  8
0
 10
0.0225694
 20
84.7378
 30
0.0
 40
0
 41
0
  0
VERTEX
  8
0
 10
1.02257
 20
84.7378
 30
0.0
 40
0
 41
0
  0
VERTEX
  8
0
 10
1.02257
 20
88.8006
 30
0.0
 40
0
 41
0
  0
VERTEX
  8
0
 10
0.0225694
 20
88.8006
 30
0.0
 40
0
 41
0
  0
VERTEX
  8
0
 10
0.0225694
 20
92.0664
 30
0.0
 40
0
 41
0
  0
VERTEX
  8
0
 10
1.02257
 20
92.0664
 30
0.0
 40
0
 41
0
  0
VERTEX
  8
0
 10
1.02257
 20
99.23
 30
0.0
 40
0
 41
0
  0
VERTEX
  8
0
 10
0.0225694
 20
99.23
 30
0.0
 40
0
 41
0
  0
VERTEX
  8
0
 10
0.0225694
 20
103.43
 30
0.0
 40
0
 41
0
  0
VERTEX
  8
0
 10
17.2794
 20
103.43
 30
0.0
 40
0
 41
0
  0
VERTEX
  8
0
 10
17.2794
 20
99.669
 30
0.0
 40
0
 41
0
  0
VERTEX
  8
0
 10
18.2044
 20
99.669
 30
0.0
 40
0
 41
0
  0
VERTEX
  8
0
 10
18.2044
 20
103.43
 30
0.0
 40
0
 41
0
  0
VERTEX
  8
0
 10
21.8249
 20
103.43
 30
0.0
 40
0
 41
0
  0
VERTEX
  8
0
 10
21.8249
 20
100.311
 30
0.0
 40
0
 41
0
  0
VERTEX
  8
0
 10
22.8249
 20
100.311
 30
0.0
 40
0
 41
0
  0
VERTEX
  8
0
 10
22.8249
 20
95.7386
 30
0.0
 40
0
 41
0
  0
VERTEX
  8
0
 10
21.8249
 20
95.7386
 30
0.0
 40
0
 41
0
  0
VERTEX
  8
0
 10
21.8249
 20
90.8596
 30
0.0
 40
0
 41
0
  0
VERTEX
  8
0
 10
22.8249
 20
90.8596
 30
0.0
 40
0
 41
0
  0
VERTEX
  8
0
 10
22.8249
 20
85.9896
 30
0.0
 40
0
 41
0
  0
VERTEX
  8
0
 10
21.8249
 20
85.9896
 30
0.0
 40
0
 41
0
  0
VERTEX
  8
0
 10
21.8249
 20
80.7026
 30
0.0
 40
0
 41
0
  0
VERTEX
  8
0
 10
22.9489
 20
80.7026
 30
0.0
 40
0
 41
0
  0
VERTEX
  8
0
 10
18.4558
 20
78.4972
 30
0.0
 40
0
 41
0
  0
VERTEX
  8
0
 10
18.8965
 20
77.5994
 30
0.0
 40
0
 41
0
  0
VERTEX
  8
0
 10
15.8876
 20
76.1225
 30
0.0
 40
0
 41
0
  0
VERTEX
  8
0
 10
15.4469
 20
77.0203
 30
0.0
 40
0
 41
0
  0
VERTEX
  8
0
 10
11.4237
 20
75.0453
 30
0.0
 40
0
 41
0
  0
VERTEX
  8
0
 10
8.39887
 20
76.5301
 30
0.0
 40
0
 41
0
  0
VERTEX
  8
0
 10
7.95822
 20
75.6325
 30
0.0
 40
0
 41
0
  0
SEQEND
 8
0
  0
POLYLINE
  8
0
 62
     0
 66
     1
 10
0
 20
0
 30
0.0
 70
     1
 40
0
 41
0
  0
VERTEX
  8
0
 10
11.4237
 20
81.9914
 30
0.0
 40
0
 41
0
  0
VERTEX
  8
0
 10
11.4576
 20
81.9914
 30
0.0
 40
0
 41
0
  0
VERTEX
  8
0
 10
11.5593
 20
81.9844
 30
0.0
 40
0
 41
0
  0
VERTEX
  8
0
 10
11.691
 20
81.9644
 30
0.0
 40
0
 41
0
  0
VERTEX
  8
0
 10
11.818
 20
81.9318
 30
0.0
 40
0
 41
0
  0
VERTEX
  8
0
 10
11.9399
 20
81.8872
 30
0.0
 40
0
 41
0
  0
VERTEX
  8
0
 10
12.0558
 20
81.8313
 30
0.0
 40
0
 41
0
  0
VERTEX
  8
0
 10
12.1652
 20
81.7649
 30
0.0
 40
0
 41
0
  0
VERTEX
  8
0
 10
12.2673
 20
81.6885
 30
0.0
 40
0
 41
0
  0
VERTEX
  8
0
 10
12.3614
 20
81.6029
 30
0.0
 40
0
 41
0
  0
VERTEX
  8
0
 10
12.447
 20
81.5087
 30
0.0
 40
0
 41
0
  0
VERTEX
  8
0
 10
12.5233
 20
81.4067
 30
0.0
 40
0
 41
0
  0
VERTEX
  8
0
 10
12.5897
 20
81.2974
 30
0.0
 40
0
 41
0
  0
VERTEX
  8
0
 10
12.6456
 20
81.1814
 30
0.0
 40
0
 41
0
  0
VERTEX
  8
0
 10
12.6902
 20
81.0596
 30
0.0
 40
0
 41
0
  0
VERTEX
  8
0
 10
12.7229
 20
80.9325
 30
0.0
 40
0
 41
0
  0
VERTEX
  8
0
 10
12.7429
 20
80.8008
 30
0.0
 40
0
 41
0
  0
VERTEX
  8
0
 10
12.7498
 20
80.6992
 30
0.0
 40
0
 41
0
  0
VERTEX
  8
0
 10
12.7498
 20
80.6651
 30
0.0
 40
0
 41
0
  0
VERTEX
  8
0
 10
12.7498
 20
80.6314
 30
0.0
 40
0
 41
0
  0
VERTEX
  8
0
 10
12.7429
 20
80.5296
 30
0.0
 40
0
 41
0
  0
VERTEX
  8
0
 10
12.7229
 20
80.3979
 30
0.0
 40
0
 41
0
  0
VERTEX
  8
0
 10
12.6902
 20
80.2708
 30
0.0
 40
0
 41
0
  0
VERTEX
  8
0
 10
12.6456
 20
80.149
 30
0.0
 40
0
 41
0
  0
VERTEX
  8
0
 10
12.5897
 20
80.0331
 30
0.0
 40
0
 41
0
  0
VERTEX
  8
0
 10
12.5233
 20
79.9237
 30
0.0
 40
0
 41
0
  0
VERTEX
  8
0
 10
12.447
 20
79.8217
 30
0.0
 40
0
 41
0
  0
VERTEX
  8
0
 10
12.3614
 20
79.7275
 30
0.0
 40
0
 41
0
  0
VERTEX
  8
0
 10
12.2673
 20
79.6419
 30
0.0
 40
0
 41
0
  0
VERTEX
  8
0
 10
12.1652
 20
79.5656
 30
0.0
 40
0
 41
0
  0
VERTEX
  8
0
 10
12.0558
 20
79.4992
 30
0.0
 40
0
 41
0
  0
VERTEX
  8
0
 10
11.9399
 20
79.4433
 30
0.0
 40
0
 41
0
  0
VERTEX
  8
0
 10
11.818
 20
79.3988
 30
0.0
 40
0
 41
0
  0
VERTEX
  8
0
 10
11.691
 20
79.3661
 30
0.0
 40
0
 41
0
  0
VERTEX
  8
0
 10
11.5593
 20
79.346
 30
0.0
 40
0
 41
0
  0
VERTEX
  8
0
 10
11.4576
 20
79.339
 30
0.0
 40
0
 41
0
  0
VERTEX
  8
0
 10
11.4237
 20
79.339
 30
0.0
 40
0
 41
0
  0
VERTEX
  8
0
 10
11.3898
 20
79.339
 30
0.0
 40
0
 41
0
  0
VERTEX
  8
0
 10
11.2881
 20
79.346
 30
0.0
 40
0
 41
0
  0
VERTEX
  8
0
 10
11.1564
 20
79.3661
 30
0.0
 40
0
 41
0
  0
VERTEX
  8
0
 10
11.0293
 20
79.3988
 30
0.0
 40
0
 41
0
  0
VERTEX
  8
0
 10
10.9075
 20
79.4433
 30
0.0
 40
0
 41
0
  0
VERTEX
  8
0
 10
10.7916
 20
79.4992
 30
0.0
 40
0
 41
0
  0
VERTEX
  8
0
 10
10.6822
 20
79.5656
 30
0.0
 40
0
 41
0
  0
VERTEX
  8
0
 10
10.5801
 20
79.6419
 30
0.0
 40
0
 41
0
  0
VERTEX
  8
0
 10
10.4859
 20
79.7275
 30
0.0
 40
0
 41
0
  0
VERTEX
  8
0
 10
10.4003
 20
79.8217
 30
0.0
 40
0
 41
0
  0
VERTEX
  8
0
 10
10.324
 20
79.9237
 30
0.0
 40
0
 41
0
  0
VERTEX
  8
0
 10
10.2576
 20
80.0331
 30
0.0
 40
0
 41
0
  0
VERTEX
  8
0
 10
10.2017
 20
80.149
 30
0.0
 40
0
 41
0
  0
VERTEX
  8
0
 10
10.1571
 20
80.2708
 30
0.0
 40
0
 41
0
  0
VERTEX
  8
0
 10
10.1245
 20
80.3979
 30
0.0
 40
0
 41
0
  0
VERTEX
  8
0
 10
10.1044
 20
80.5296
 30
0.0
 40
0
 41
0
  0
VERTEX
  8
0
 10
10.0975
 20
80.6314
 30
0.0
 40
0
 41
0
  0
VERTEX
  8
0
 10
10.0975
 20
80.6651
 30
0.0
 40
0
 41
0
  0
VERTEX
  8
0
 10
10.0975
 20
80.6992
 30
0.0
 40
0
 41
0
  0
VERTEX
  8
0
 10
10.1044
 20
80.8008
 30
0.0
 40
0
 41
0
  0
VERTEX
  8
0
 10
10.1245
 20
80.9325
 30
0.0
 40
0
 41
0
  0
VERTEX
  8
0
 10
10.1571
 20
81.0596
 30
0.0
 40
0
 41
0
  0
VERTEX
  8
0
 10
10.2017
 20
81.1814
 30
0.0
 40
0
 41
0
  0
VERTEX
  8
0
 10
10.2576
 20
81.2974
 30
0.0
 40
0
 41
0
  0
VERTEX
  8
0
 10
10.324
 20
81.4067
 30
0.0
 40
0
 41
0
  0
VERTEX
  8
0
 10
10.4003
 20
81.5087
 30
0.0
 40
0
 41
0
  0
VERTEX
  8
0
 10
10.4859
 20
81.6029
 30
0.0
 40
0
 41
0
  0
VERTEX
  8
0
 10
10.5801
 20
81.6885
 30
0.0
 40
0
 41
0
  0
VERTEX
  8
0
 10
10.6822
 20
81.7649
 30
0.0
 40
0
 41
0
  0
VERTEX
  8
0
 10
10.7916
 20
81.8313
 30
0.0
 40
0
 41
0
  0
VERTEX
  8
0
 10
10.9075
 20
81.8872
 30
0.0
 40
0
 41
0
  0
VERTEX
  8
0
 10
11.0293
 20
81.9318
 30
0.0
 40
0
 41
0
  0
VERTEX
  8
0
 10
11.1564
 20
81.9644
 30
0.0
 40
0
 41
0
  0
VERTEX
  8
0
 10
11.2881
 20
81.9844
 30
0.0
 40
0
 41
0
  0
VERTEX
  8
0
 10
11.3898
 20
81.9914
 30
0.0
 40
0
 41
0
  0
VERTEX
  8
0
 10
11.4237
 20
81.9914
 30
0.0
 40
0
 41
0
  0
SEQEND
 8
0
  0
POLYLINE
  8
0
 62
     0
 66
     1
 10
0
 20
0
 30
0.0
 70
     1
 40
0
 41
0
  0
VERTEX
  8
0
 10
4.64301
 20
99.6375
 30
0.0
 40
0
 41
0
  0
VERTEX
  8
0
 10
6.56803
 20
99.6375
 30
0.0
 40
0
 41
0
  0
VERTEX
  8
0
 10
6.56803
 20
92.6751
 30
0.0
 40
0
 41
0
  0
VERTEX
  8
0
 10
4.64301
 20
92.6751
 30
0.0
 40
0
 41
0
  0
VERTEX
  8
0
 10
4.64301
 20
99.6375
 30
0.0
 40
0
 41
0
  0
SEQEND
 8
0
  0
POLYLINE
  8
0
 62
     0
 66
     1
 10
0
 20
0
 30
0.0
 70
     1
 40
0
 41
0
  0
VERTEX
  8
0
 10
17.641
 20
88.3342
 30
0.0
 40
0
 41
0
  0
VERTEX
  8
0
 10
17.1993
 20
89.1468
 30
0.0
 40
0
 41
0
  0
VERTEX
  8
0
 10
13.9881
 20
87.4018
 30
0.0
 40
0
 41
0
  0
VERTEX
  8
0
 10
14.4299
 20
86.589
 30
0.0
 40
0
 41
0
  0
VERTEX
  8
0
 10
17.641
 20
88.3342
 30
0.0
 40
0
 41
0
  0
SEQEND
 8
0
  0
POLYLINE
  8
0
 62
     0
 66
     1
 10
0
 20
0
 30
0.0
 70
     1
 40
0
 41
0
  0
VERTEX
  8
0
 10
6.03342
 20
88.9375
 30
0.0
 40
0
 41
0
  0
VERTEX
  8
0
 10
5.59174
 20
88.1247
 30
0.0
 40
0
 41
0
  0
VERTEX
  8
0
 10
8.75797
 20
86.404
 30
0.0
 40
0
 41
0
  0
VERTEX
  8
0
 10
9.19965
 20
87.2168
 30
0.0
 40
0
 41
0
  0
VERTEX
  8
0
 10
6.03342
 20
88.9375
 30
0.0
 40
0
 41
0
  0
SEQEND
 8
0
  0
POLYLINE
  8
0
 62
     0
 66
     1
 10
0
 20
0
 30
0.0
 70
     1
 40
0
 41
0
  0
VERTEX
  8
0
 10
17.2794
 20
94.6194
 30
0.0
 40
0
 41
0
  0
VERTEX
  8
0
 10
18.2044
 20
94.6194
 30
0.0
 40
0
 41
0
  0
VERTEX
  8
0
 10
18.2044
 20
91.3644
 30
0.0
 40
0
 41
0
  0
VERTEX
  8
0
 10
17.2794
 20
91.3644
 30
0.0
 40
0
 41
0
  0
VERTEX
  8
0
 10
17.2794
 20
94.6194
 30
0.0
 40
0
 41
0
  0
SEQEND
 8
0
  0
POLYLINE
  8
0
 62
     0
 66
     1
 10
0
 20
0
 30
0.0
 70
     1
 40
0
 41
0
  0
VERTEX
  8
0
 10
24.8249
 20
93.1711
 30
0.0
 40
0
 41
0
  0
VERTEX
  8
0
 10
24.8249
 20
113.687
 30
0.0
 40
0
 41
0
  0
VERTEX
  8
0
 10
39.8315
 20
113.687
 30
0.0
 40
0
 41
0
  0
VERTEX
  8
0
 10
39.8315
 20
82.7026
 30
0.0
 40
0
 41
0
  0
VERTEX
  8
0
 10
24.8249
 20
82.7026
 30
0.0
 40
0
 41
0
  0
VERTEX
  8
0
 10
24.8249
 20
93.1711
 30
0.0
 40
0
 41
0
  0
SEQEND
 8
0
  0
POLYLINE
  8
0
 62
     0
 66
     1
 10
0
 20
0
 30
0.0
 70
     1
 40
0
 41
0
  0
VERTEX
  8
0
 10
27.9479
 20
111.794
 30
0.0
 40
0
 41
0
  0
VERTEX
  8
0
 10
32.3279
 20
111.794
 30
0.0
 40
0
 41
0
  0
VERTEX
  8
0
 10
32.3279
 20
110.869
 30
0.0
 40
0
 41
0
  0
VERTEX
  8
0
 10
27.9479
 20
110.869
 30
0.0
 40
0
 41
0
  0
VERTEX
  8
0
 10
27.9479
 20
111.794
 30
0.0
 40
0
 41
0
  0
SEQEND
 8
0
  0
POLYLINE
  8
0
 62
     0
 66
     1
 10
0
 20
0
 30
0.0
 70
     1
 40
0
 41
0
  0
VERTEX
  8
0
 10
28.2886
 20
85.5208
 30
0.0
 40
0
 41
0
  0
VERTEX
  8
0
 10
30.9643
 20
85.5208
 30
0.0
 40
0
 41
0
  0
VERTEX
  8
0
 10
30.9643
 20
84.5958
 30
0.0
 40
0
 41
0
  0
VERTEX
  8
0
 10
28.2886
 20
84.5958
 30
0.0
 40
0
 41
0
  0
VERTEX
  8
0
 10
28.2886
 20
85.5208
 30
0.0
 40
0
 41
0
  0
SEQEND
 8
0
  0
POLYLINE
  8
0
 62
     0
 66
     1
 10
0
 20
0
 30
0.0
 70
     1
 40
0
 41
0
  0
VERTEX
  8
0
 10
5.29818
 20
71.5658
 30
0.0
 40
0
 41
0
  0
VERTEX
  8
0
 10
5.29818
 20
72.5658
 30
0.0
 40
0
 41
0
  0
VERTEX
  8
0
 10
8.09429
 20
72.5658
 30
0.0
 40
0
 41
0
  0
VERTEX
  8
0
 10
8.09429
 20
71.5658
 30
0.0
 40
0
 41
0
  0
VERTEX
  8
0
 10
14.5224
 20
71.5658
 30
0.0
 40
0
 41
0
  0
VERTEX
  8
0
 10
14.5224
 20
72.5658
 30
0.0
 40
0
 41
0
  0
VERTEX
  8
0
 10
17.6414
 20
72.5658
 30
0.0
 40
0
 41
0
  0
VERTEX
  8
0
 10
17.6414
 20
71.5658
 30
0.0
 40
0
 41
0
  0
VERTEX
  8
0
 10
22.7274
 20
71.5658
 30
0.0
 40
0
 41
0
  0
VERTEX
  8
0
 10
22.7274
 20
72.6899
 30
0.0
 40
0
 41
0
  0
VERTEX
  8
0
 10
25.024
 20
68.0111
 30
0.0
 40
0
 41
0
  0
VERTEX
  8
0
 10
25.9217
 20
68.4518
 30
0.0
 40
0
 41
0
  0
VERTEX
  8
0
 10
27.9476
 20
64.3243
 30
0.0
 40
0
 41
0
  0
VERTEX
  8
0
 10
27.05
 20
63.8836
 30
0.0
 40
0
 41
0
  0
VERTEX
  8
0
 10
28.3847
 20
61.1647
 30
0.0
 40
0
 41
0
  0
VERTEX
  8
0
 10
27.05
 20
58.4457
 30
0.0
 40
0
 41
0
  0
VERTEX
  8
0
 10
27.9476
 20
58.005
 30
0.0
 40
0
 41
0
  0
VERTEX
  8
0
 10
25.9515
 20
53.9385
 30
0.0
 40
0
 41
0
  0
VERTEX
  8
0
 10
25.0539
 20
54.3792
 30
0.0
 40
0
 41
0
  0
VERTEX
  8
0
 10
22.7274
 20
49.6394
 30
0.0
 40
0
 41
0
  0
VERTEX
  8
0
 10
22.7274
 20
50.7635
 30
0.0
 40
0
 41
0
  0
VERTEX
  8
0
 10
18.3608
 20
50.7635
 30
0.0
 40
0
 41
0
  0
VERTEX
  8
0
 10
18.3608
 20
49.7635
 30
0.0
 40
0
 41
0
  0
VERTEX
  8
0
 10
15.7826
 20
49.7635
 30
0.0
 40
0
 41
0
  0
VERTEX
  8
0
 10
15.7826
 20
50.7704
 30
0.0
 40
0
 41
0
  0
VERTEX
  8
0
 10
7.9841
 20
50.7669
 30
0.0
 40
0
 41
0
  0
VERTEX
  8
0
 10
7.9841
 20
49.7635
 30
0.0
 40
0
 41
0
  0
VERTEX
  8
0
 10
4.04839
 20
49.7635
 30
0.0
 40
0
 41
0
  0
VERTEX
  8
0
 10
4.04839
 20
50.7653
 30
0.0
 40
0
 41
0
  0
VERTEX
  8
0
 10
0
 20
50.7635
 30
0.0
 40
0
 41
0
  0
VERTEX
  8
0
 10
0
 20
71.5658
 30
0.0
 40
0
 41
0
  0
VERTEX
  8
0
 10
5.29818
 20
71.5658
 30
0.0
 40
0
 41
0
  0
SEQEND
 8
0
  0
POLYLINE
  8
0
 62
     0
 66
     1
 10
0
 20
0
 30
0.0
 70
     1
 40
0
 41
0
  0
VERTEX
  8
0
 10
0.756836
 20
70.2181
 30
0.0
 40
0
 41
0
  0
VERTEX
  8
0
 10
9.77274
 20
70.2181
 30
0.0
 40
0
 41
0
  0
VERTEX
  8
0
 10
9.77274
 20
66.6568
 30
0.0
 40
0
 41
0
  0
VERTEX
  8
0
 10
0.756836
 20
66.6568
 30
0.0
 40
0
 41
0
  0
VERTEX
  8
0
 10
0.756836
 20
70.2181
 30
0.0
 40
0
 41
0
  0
SEQEND
 8
0
  0
POLYLINE
  8
0
 62
     0
 66
     1
 10
0
 20
0
 30
0.0
 70
     1
 40
0
 41
0
  0
VERTEX
  8
0
 10
18.1087
 20
68.6376
 30
0.0
 40
0
 41
0
  0
VERTEX
  8
0
 10
22.5792
 20
68.6376
 30
0.0
 40
0
 41
0
  0
VERTEX
  8
0
 10
22.5792
 20
65.0764
 30
0.0
 40
0
 41
0
  0
VERTEX
  8
0
 10
18.1087
 20
65.0764
 30
0.0
 40
0
 41
0
  0
VERTEX
  8
0
 10
18.1087
 20
68.6376
 30
0.0
 40
0
 41
0
  0
SEQEND
 8
0
  0
POLYLINE
  8
0
 62
     0
 66
     1
 10
0
 20
0
 30
0.0
 70
     1
 40
0
 41
0
  0
VERTEX
  8
0
 10
18.1087
 20
57.8983
 30
0.0
 40
0
 41
0
  0
VERTEX
  8
0
 10
22.5792
 20
57.8983
 30
0.0
 40
0
 41
0
  0
VERTEX
  8
0
 10
22.5792
 20
54.3369
 30
0.0
 40
0
 41
0
  0
VERTEX
  8
0
 10
18.1087
 20
54.3369
 30
0.0
 40
0
 41
0
  0
VERTEX
  8
0
 10
18.1087
 20
57.8983
 30
0.0
 40
0
 41
0
  0
SEQEND
 8
0
  0
POLYLINE
  8
0
 62
     0
 66
     1
 10
0
 20
0
 30
0.0
 70
     1
 40
0
 41
0
  0
VERTEX
  8
0
 10
26.3478
 20
36.2522
 30
0.0
 40
0
 41
0
  0
VERTEX
  8
0
 10
27.3478
 20
36.2522
 30
0.0
 40
0
 41
0
  0
VERTEX
  8
0
 10
27.3478
 20
28.9388
 30
0.0
 40
0
 41
0
  0
VERTEX
  8
0
 10
26.3478
 20
28.9388
 30
0.0
 40
0
 41
0
  0
VERTEX
  8
0
 10
26.3478
 20
24.8136
 30
0.0
 40
0
 41
0
  0
VERTEX
  8
0
 10
11.3455
 20
24.8136
 30
0.0
 40
0
 41
0
  0
VERTEX
  8
0
 10
11.3455
 20
33.9421
 30
0.0
 40
0
 41
0
  0
VERTEX
  8
0
 10
11.3455
 20
34.034
 30
0.0
 40
0
 41
0
  0
VERTEX
  8
0
 10
11.3269
 20
34.31
 30
0.0
 40
0
 41
0
  0
VERTEX
  8
0
 10
11.2724
 20
34.6674
 30
0.0
 40
0
 41
0
  0
VERTEX
  8
0
 10
11.1837
 20
35.0124
 30
0.0
 40
0
 41
0
  0
VERTEX
  8
0
 10
11.0627
 20
35.3429
 30
0.0
 40
0
 41
0
  0
VERTEX
  8
0
 10
10.9111
 20
35.6575
 30
0.0
 40
0
 41
0
  0
VERTEX
  8
0
 10
10.7309
 20
35.9543
 30
0.0
 40
0
 41
0
  0
VERTEX
  8
0
 10
10.5237
 20
36.2314
 30
0.0
 40
0
 41
0
  0
VERTEX
  8
0
 10
10.2914
 20
36.4868
 30
0.0
 40
0
 41
0
  0
VERTEX
  8
0
 10
10.0359
 20
36.7192
 30
0.0
 40
0
 41
0
  0
VERTEX
  8
0
 10
9.75885
 20
36.9264
 30
0.0
 40
0
 41
0
  0
VERTEX
  8
0
 10
9.46213
 20
37.1067
 30
0.0
 40
0
 41
0
  0
VERTEX
  8
0
 10
9.14751
 20
37.2582
 30
0.0
 40
0
 41
0
  0
VERTEX
  8
0
 10
8.81685
 20
37.3792
 30
0.0
 40
0
 41
0
  0
VERTEX
  8
0
 10
8.47194
 20
37.4679
 30
0.0
 40
0
 41
0
  0
VERTEX
  8
0
 10
8.11464
 20
37.5224
 30
0.0
 40
0
 41
0
  0
VERTEX
  8
0
 10
7.83865
 20
37.541
 30
0.0
 40
0
 41
0
  0
VERTEX
  8
0
 10
7.74669
 20
37.541
 30
0.0
 40
0
 41
0
  0
VERTEX
  8
0
 10
7.65468
 20
37.541
 30
0.0
 40
0
 41
0
  0
VERTEX
  8
0
 10
7.37869
 20
37.5224
 30
0.0
 40
0
 41
0
  0
VERTEX
  8
0
 10
7.02138
 20
37.4679
 30
0.0
 40
0
 41
0
  0
VERTEX
  8
0
 10
6.67649
 20
37.3792
 30
0.0
 40
0
 41
0
  0
VERTEX
  8
0
 10
6.34581
 20
37.2582
 30
0.0
 40
0
 41
0
  0
VERTEX
  8
0
 10
6.03125
 20
37.1067
 30
0.0
 40
0
 41
0
  0
VERTEX
  8
0
 10
5.73454
 20
36.9264
 30
0.0
 40
0
 41
0
  0
VERTEX
  8
0
 10
5.45747
 20
36.7192
 30
0.0
 40
0
 41
0
  0
VERTEX
  8
0
 10
5.20188
 20
36.4868
 30
0.0
 40
0
 41
0
  0
VERTEX
  8
0
 10
4.96962
 20
36.2314
 30
0.0
 40
0
 41
0
  0
VERTEX
  8
0
 10
4.76243
 20
35.9543
 30
0.0
 40
0
 41
0
  0
VERTEX
  8
0
 10
4.58219
 20
35.6575
 30
0.0
 40
0
 41
0
  0
VERTEX
  8
0
 10
4.43061
 20
35.3429
 30
0.0
 40
0
 41
0
  0
VERTEX
  8
0
 10
4.30963
 20
35.0124
 30
0.0
 40
0
 41
0
  0
VERTEX
  8
0
 10
4.22092
 20
34.6674
 30
0.0
 40
0
 41
0
  0
VERTEX
  8
0
 10
4.16639
 20
34.31
 30
0.0
 40
0
 41
0
  0
VERTEX
  8
0
 10
4.14785
 20
34.034
 30
0.0
 40
0
 41
0
  0
VERTEX
  8
0
 10
4.14785
 20
33.9421
 30
0.0
 40
0
 41
0
  0
VERTEX
  8
0
 10
4.14785
 20
24.8136
 30
0.0
 40
0
 41
0
  0
VERTEX
  8
0
 10
0
 20
24.8136
 30
0.0
 40
0
 41
0
  0
VERTEX
  8
0
 10
0
 20
28.9371
 30
0.0
 40
0
 41
0
  0
VERTEX
  8
0
 10
1
 20
28.9371
 30
0.0
 40
0
 41
0
  0
VERTEX
  8
0
 10
1
 20
32.7228
 30
0.0
 40
0
 41
0
  0
VERTEX
  8
0
 10
0
 20
32.7228
 30
0.0
 40
0
 41
0
  0
VERTEX
  8
0
 10
0
 20
40.6713
 30
0.0
 40
0
 41
0
  0
VERTEX
  8
0
 10
1
 20
40.6713
 30
0.0
 40
0
 41
0
  0
VERTEX
  8
0
 10
1
 20
43.0994
 30
0.0
 40
0
 41
0
  0
VERTEX
  8
0
 10
0
 20
43.0994
 30
0.0
 40
0
 41
0
  0
VERTEX
  8
0
 10
0
 20
47.616
 30
0.0
 40
0
 41
0
  0
VERTEX
  8
0
 10
26.3478
 20
47.616
 30
0.0
 40
0
 41
0
  0
VERTEX
  8
0
 10
26.3478
 20
43.581
 30
0.0
 40
0
 41
0
  0
VERTEX
  8
0
 10
27.3478
 20
43.581
 30
0.0
 40
0
 41
0
  0
VERTEX
  8
0
 10
27.3478
 20
39.3682
 30
0.0
 40
0
 41
0
  0
VERTEX
  8
0
 10
26.3478
 20
39.3682
 30
0.0
 40
0
 41
0
  0
VERTEX
  8
0
 10
26.3478
 20
36.2522
 30
0.0
 40
0
 41
0
  0
SEQEND
 8
0
  0
POLYLINE
  8
0
 62
     0
 66
     1
 10
0
 20
0
 30
0.0
 70
     1
 40
0
 41
0
  0
VERTEX
  8
0
 10
22.1369
 20
28.9796
 30
0.0
 40
0
 41
0
  0
VERTEX
  8
0
 10
18.121
 20
28.9796
 30
0.0
 40
0
 41
0
  0
VERTEX
  8
0
 10
18.121
 20
35.7503
 30
0.0
 40
0
 41
0
  0
VERTEX
  8
0
 10
18.159
 20
35.8171
 30
0.0
 40
0
 41
0
  0
VERTEX
  8
0
 10
18.2914
 20
36.0074
 30
0.0
 40
0
 41
0
  0
VERTEX
  8
0
 10
18.4917
 20
36.2364
 30
0.0
 40
0
 41
0
  0
VERTEX
  8
0
 10
18.7183
 20
36.4357
 30
0.0
 40
0
 41
0
  0
VERTEX
  8
0
 10
18.9681
 20
36.6032
 30
0.0
 40
0
 41
0
  0
VERTEX
  8
0
 10
19.2374
 20
36.7369
 30
0.0
 40
0
 41
0
  0
VERTEX
  8
0
 10
19.5229
 20
36.8349
 30
0.0
 40
0
 41
0
  0
VERTEX
  8
0
 10
19.8213
 20
36.8951
 30
0.0
 40
0
 41
0
  0
VERTEX
  8
0
 10
20.0519
 20
36.9157
 30
0.0
 40
0
 41
0
  0
VERTEX
  8
0
 10
20.1289
 20
36.9157
 30
0.0
 40
0
 41
0
  0
VERTEX
  8
0
 10
20.2058
 20
36.9157
 30
0.0
 40
0
 41
0
  0
VERTEX
  8
0
 10
20.4365
 20
36.8951
 30
0.0
 40
0
 41
0
  0
VERTEX
  8
0
 10
20.7349
 20
36.8349
 30
0.0
 40
0
 41
0
  0
VERTEX
  8
0
 10
21.0203
 20
36.7369
 30
0.0
 40
0
 41
0
  0
VERTEX
  8
0
 10
21.2897
 20
36.6032
 30
0.0
 40
0
 41
0
  0
VERTEX
  8
0
 10
21.5394
 20
36.4357
 30
0.0
 40
0
 41
0
  0
VERTEX
  8
0
 10
21.7661
 20
36.2364
 30
0.0
 40
0
 41
0
  0
VERTEX
  8
0
 10
21.9664
 20
36.0074
 30
0.0
 40
0
 41
0
  0
VERTEX
  8
0
 10
22.0987
 20
35.8171
 30
0.0
 40
0
 41
0
  0
VERTEX
  8
0
 10
22.1369
 20
35.7503
 30
0.0
 40
0
 41
0
  0
VERTEX
  8
0
 10
22.1369
 20
28.9796
 30
0.0
 40
0
 41
0
  0
SEQEND
 8
0
  0
POLYLINE
  8
0
 62
     0
 66
     1
 10
0
 20
0
 30
0.0
 70
     1
 40
0
 41
0
  0
VERTEX
  8
0
 10
18.8651
 20
45.1985
 30
0.0
 40
0
 41
0
  0
VERTEX
  8
0
 10
21.5175
 20
45.1985
 30
0.0
 40
0
 41
0
  0
VERTEX
  8
0
 10
21.5175
 20
42.5461
 30
0.0
 40
0
 41
0
  0
VERTEX
  8
0
 10
18.8651
 20
42.5461
 30
0.0
 40
0
 41
0
  0
VERTEX
  8
0
 10
18.8651
 20
45.1985
 30
0.0
 40
0
 41
0
  0
SEQEND
 8
0
  0
POLYLINE
  8
0
 62
     0
 66
     1
 10
0
 20
0
 30
0.0
 70
     1
 40
0
 41
0
  0
VERTEX
  8
0
 10
6.10211
 20
45.1985
 30
0.0
 40
0
 41
0
  0
VERTEX
  8
0
 10
8.75439
 20
45.1985
 30
0.0
 40
0
 41
0
  0
VERTEX
  8
0
 10
8.75439
 20
42.5461
 30
0.0
 40
0
 41
0
  0
VERTEX
  8
0
 10
6.10211
 20
42.5461
 30
0.0
 40
0
 41
0
  0
VERTEX
  8
0
 10
6.10211
 20
45.1985
 30
0.0
 40
0
 41
0
  0
SEQEND
 8
0
  0
POLYLINE
  8
0
 62
     0
 66
     1
 10
0
 20
0
 30
0.0
 70
     1
 40
0
 41
0
  0
VERTEX
  8
0
 10
26.3478
 20
15.1972
 30
0.0
 40
0
 41
0
  0
VERTEX
  8
0
 10
27.3478
 20
15.1972
 30
0.0
 40
0
 41
0
  0
VERTEX
  8
0
 10
27.3478
 20
10.1683
 30
0.0
 40
0
 41
0
  0
VERTEX
  8
0
 10
26.3478
 20
10.1683
 30
0.0
 40
0
 41
0
  0
VERTEX
  8
0
 10
26.3478
 20
5.44819
 30
0.0
 40
0
 41
0
  0
VERTEX
  8
0
 10
27.3478
 20
5.44819
 30
0.0
 40
0
 41
0
  0
VERTEX
  8
0
 10
27.3478
 20
0.011339
 30
0.0
 40
0
 41
0
  0
VERTEX
  8
0
 10
0
 20
0.011339
 30
0.0
 40
0
 41
0
  0
VERTEX
  8
0
 10
0
 20
5.24729
 30
0.0
 40
0
 41
0
  0
VERTEX
  8
0
 10
1
 20
5.24729
 30
0.0
 40
0
 41
0
  0
VERTEX
  8
0
 10
1
 20
8.21631
 30
0.0
 40
0
 41
0
  0
VERTEX
  8
0
 10
0
 20
8.21631
 30
0.0
 40
0
 41
0
  0
VERTEX
  8
0
 10
0
 20
14.7943
 30
0.0
 40
0
 41
0
  0
VERTEX
  8
0
 10
1
 20
14.7943
 30
0.0
 40
0
 41
0
  0
VERTEX
  8
0
 10
1
 20
17.4404
 30
0.0
 40
0
 41
0
  0
VERTEX
  8
0
 10
0
 20
17.4404
 30
0.0
 40
0
 41
0
  0
VERTEX
  8
0
 10
0
 20
22.8136
 30
0.0
 40
0
 41
0
  0
VERTEX
  8
0
 10
27.3478
 20
22.8136
 30
0.0
 40
0
 41
0
  0
VERTEX
  8
0
 10
27.3478
 20
19.6199
 30
0.0
 40
0
 41
0
  0
VERTEX
  8
0
 10
26.3478
 20
19.6199
 30
0.0
 40
0
 41
0
  0
VERTEX
  8
0
 10
26.3478
 20
15.1972
 30
0.0
 40
0
 41
0
  0
SEQEND
 8
0
  0
POLYLINE
  8
0
 62
     0
 66
     1
 10
0
 20
0
 30
0.0
 70
     1
 40
0
 41
0
  0
VERTEX
  8
0
 10
48.8307
 20
21.5417
 30
0.0
 40
0
 41
0
  0
VERTEX
  8
0
 10
30.6837
 20
21.5268
 30
0.0
 40
0
 41
0
  0
VERTEX
  8
0
 10
30.3478
 20
21.6917
 30
0.0
 40
0
 41
0
  0
VERTEX
  8
0
 10
30.3478
 20
25.2926
 30
0.0
 40
0
 41
0
  0
VERTEX
  8
0
 10
29.3478
 20
25.2926
 30
0.0
 40
0
 41
0
  0
VERTEX
  8
0
 10
29.3478
 20
27.8056
 30
0.0
 40
0
 41
0
  0
VERTEX
  8
0
 10
30.3478
 20
27.8056
 30
0.0
 40
0
 41
0
  0
VERTEX
  8
0
 10
30.3478
 20
36.6183
 30
0.0
 40
0
 41
0
  0
VERTEX
  8
0
 10
29.3478
 20
36.6179
 30
0.0
 40
0
 41
0
  0
VERTEX
  8
0
 10
29.3478
 20
39.5883
 30
0.0
 40
0
 41
0
  0
VERTEX
  8
0
 10
30.3478
 20
39.5883
 30
0.0
 40
0
 41
0
  0
VERTEX
  8
0
 10
30.3478
 20
45.465
 30
0.0
 40
0
 41
0
  0
VERTEX
  8
0
 10
49.1286
 20
45.465
 30
0.0
 40
0
 41
0
  0
VERTEX
  8
0
 10
49.1483
 20
21.6976
 30
0.0
 40
0
 41
0
  0
VERTEX
  8
0
 10
48.8307
 20
21.5417
 30
0.0
 40
0
 41
0
  0
SEQEND
 8
0
  0
POLYLINE
  8
0
 62
     0
 66
     1
 10
0
 20
0
 30
0.0
 70
     1
 40
0
 41
0
  0
VERTEX
  8
0
 10
45.9718
 20
27.0382
 30
0.0
 40
0
 41
0
  0
VERTEX
  8
0
 10
46.8968
 20
27.0382
 30
0.0
 40
0
 41
0
  0
VERTEX
  8
0
 10
46.8968
 20
23.204
 30
0.0
 40
0
 41
0
  0
VERTEX
  8
0
 10
45.9718
 20
23.204
 30
0.0
 40
0
 41
0
  0
VERTEX
  8
0
 10
45.9718
 20
27.0382
 30
0.0
 40
0
 41
0
  0
SEQEND
 8
0
  0
POLYLINE
  8
0
 62
     0
 66
     1
 10
0
 20
0
 30
0.0
 70
     1
 40
0
 41
0
  0
VERTEX
  8
0
 10
43.9718
 20
27.0382
 30
0.0
 40
0
 41
0
  0
VERTEX
  8
0
 10
44.8968
 20
27.0382
 30
0.0
 40
0
 41
0
  0
VERTEX
  8
0
 10
44.8968
 20
23.204
 30
0.0
 40
0
 41
0
  0
VERTEX
  8
0
 10
43.9718
 20
23.204
 30
0.0
 40
0
 41
0
  0
VERTEX
  8
0
 10
43.9718
 20
27.0382
 30
0.0
 40
0
 41
0
  0
SEQEND
 8
0
  0
POLYLINE
  8
0
 62
     0
 66
     1
 10
0
 20
0
 30
0.0
 70
     1
 40
0
 41
0
  0
VERTEX
  8
0
 10
35.2324
 20
27.0382
 30
0.0
 40
0
 41
0
  0
VERTEX
  8
0
 10
36.1575
 20
27.0382
 30
0.0
 40
0
 41
0
  0
VERTEX
  8
0
 10
36.1575
 20
23.204
 30
0.0
 40
0
 41
0
  0
VERTEX
  8
0
 10
35.2324
 20
23.204
 30
0.0
 40
0
 41
0
  0
VERTEX
  8
0
 10
35.2324
 20
27.0382
 30
0.0
 40
0
 41
0
  0
SEQEND
 8
0
  0
POLYLINE
  8
0
 62
     0
 66
     1
 10
0
 20
0
 30
0.0
 70
     1
 40
0
 41
0
  0
VERTEX
  8
0
 10
33.2324
 20
27.0382
 30
0.0
 40
0
 41
0
  0
VERTEX
  8
0
 10
34.1575
 20
27.0382
 30
0.0
 40
0
 41
0
  0
VERTEX
  8
0
 10
34.1575
 20
23.204
 30
0.0
 40
0
 41
0
  0
VERTEX
  8
0
 10
33.2324
 20
23.204
 30
0.0
 40
0
 41
0
  0
VERTEX
  8
0
 10
33.2324
 20
27.0382
 30
0.0
 40
0
 41
0
  0
SEQEND
 8
0
  0
POLYLINE
  8
0
 62
     0
 66
     1
 10
0
 20
0
 30
0.0
 70
     1
 40
0
 41
0
  0
VERTEX
  8
0
 10
24.8024
 20
116.187
 30
0.0
 40
0
 41
0
  0
VERTEX
  8
0
 10
24.8024
 20
130.739
 30
0.0
 40
0
 41
0
  0
VERTEX
  8
0
 10
55.7865
 20
130.739
 30
0.0
 40
0
 41
0
  0
VERTEX
  8
0
 10
55.7865
 20
116.187
 30
0.0
 40
0
 41
0
  0
VERTEX
  8
0
 10
49.224
 20
116.187
 30
0.0
 40
0
 41
0
  0
VERTEX
  8
0
 10
49.224
 20
115.687
 30
0.0
 40
0
 41
0
  0
VERTEX
  8
0
 10
43.0624
 20
115.687
 30
0.0
 40
0
 41
0
  0
VERTEX
  8
0
 10
43.0624
 20
116.187
 30
0.0
 40
0
 41
0
  0
VERTEX
  8
0
 10
35.3082
 20
116.187
 30
0.0
 40
0
 41
0
  0
VERTEX
  8
0
 10
35.3082
 20
115.687
 30
0.0
 40
0
 41
0
  0
VERTEX
  8
0
 10
29.5299
 20
115.687
 30
0.0
 40
0
 41
0
  0
VERTEX
  8
0
 10
29.5299
 20
116.187
 30
0.0
 40
0
 41
0
  0
VERTEX
  8
0
 10
24.8024
 20
116.187
 30
0.0
 40
0
 41
0
  0
SEQEND
 8
0
  0
POLYLINE
  8
0
 62
     0
 66
     1
 10
0
 20
0
 30
0.0
 70
     1
 40
0
 41
0
  0
VERTEX
  8
0
 10
26.6954
 20
123.965
 30
0.0
 40
0
 41
0
  0
VERTEX
  8
0
 10
27.6206
 20
123.965
 30
0.0
 40
0
 41
0
  0
VERTEX
  8
0
 10
27.6206
 20
120.763
 30
0.0
 40
0
 41
0
  0
VERTEX
  8
0
 10
26.6954
 20
120.763
 30
0.0
 40
0
 41
0
  0
VERTEX
  8
0
 10
26.6954
 20
123.965
 30
0.0
 40
0
 41
0
  0
SEQEND
 8
0
  0
POLYLINE
  8
0
 62
     0
 66
     1
 10
0
 20
0
 30
0.0
 70
     1
 40
0
 41
0
  0
VERTEX
  8
0
 10
52.9682
 20
123.758
 30
0.0
 40
0
 41
0
  0
VERTEX
  8
0
 10
53.8933
 20
123.758
 30
0.0
 40
0
 41
0
  0
VERTEX
  8
0
 10
53.8933
 20
119.31
 30
0.0
 40
0
 41
0
  0
VERTEX
  8
0
 10
52.9682
 20
119.31
 30
0.0
 40
0
 41
0
  0
VERTEX
  8
0
 10
52.9682
 20
123.758
 30
0.0
 40
0
 41
0
  0
SEQEND
 8
0
  0
POLYLINE
  8
0
 62
     0
 66
     1
 10
0
 20
0
 30
0.0
 70
     1
 40
0
 41
0
  0
VERTEX
  8
0
 10
29.3478
 20
18.275
 30
0.0
 40
0
 41
0
  0
VERTEX
  8
0
 10
31.9308
 20
18.275
 30
0.0
 40
0
 41
0
  0
VERTEX
  8
0
 10
31.9308
 20
19.275
 30
0.0
 40
0
 41
0
  0
VERTEX
  8
0
 10
40.6801
 20
19.275
 30
0.0
 40
0
 41
0
  0
VERTEX
  8
0
 10
40.6801
 20
18.275
 30
0.0
 40
0
 41
0
  0
VERTEX
  8
0
 10
43.0592
 20
18.275
 30
0.0
 40
0
 41
0
  0
VERTEX
  8
0
 10
43.0592
 20
6.56358
 30
0.0
 40
0
 41
0
  0
VERTEX
  8
0
 10
39.3417
 20
6.56358
 30
0.0
 40
0
 41
0
  0
VERTEX
  8
0
 10
39.3417
 20
5.56358
 30
0.0
 40
0
 41
0
  0
VERTEX
  8
0
 10
32.2293
 20
5.56358
 30
0.0
 40
0
 41
0
  0
VERTEX
  8
0
 10
32.2293
 20
6.56358
 30
0.0
 40
0
 41
0
  0
VERTEX
  8
0
 10
29.3478
 20
6.56358
 30
0.0
 40
0
 41
0
  0
VERTEX
  8
0
 10
29.3478
 20
18.275
 30
0.0
 40
0
 41
0
  0
SEQEND
 8
0
  0
POLYLINE
  8
0
 62
     0
 66
     1
 10
0
 20
0
 30
0.0
 70
     1
 40
0
 41
0
  0
VERTEX
  8
0
 10
33.0592
 20
15.7213
 30
0.0
 40
0
 41
0
  0
VERTEX
  8
0
 10
38.8932
 20
15.7213
 30
0.0
 40
0
 41
0
  0
VERTEX
  8
0
 10
38.8932
 20
12.1599
 30
0.0
 40
0
 41
0
  0
VERTEX
  8
0
 10
33.0592
 20
12.1599
 30
0.0
 40
0
 41
0
  0
VERTEX
  8
0
 10
33.0592
 20
15.7213
 30
0.0
 40
0
 41
0
  0
SEQEND
 8
0
  0
POLYLINE
  8
0
 62
     0
 66
     1
 10
0
 20
0
 30
0.0
 70
     1
 40
0
 41
0
  0
VERTEX
  8
0
 10
44.2963
 20
57.4589
 30
0.0
 40
0
 41
0
  0
VERTEX
  8
0
 10
44.2963
 20
50.3465
 30
0.0
 40
0
 41
0
  0
VERTEX
  8
0
 10
43.2963
 20
50.3465
 30
0.0
 40
0
 41
0
  0
VERTEX
  8
0
 10
43.2963
 20
47.465
 30
0.0
 40
0
 41
0
  0
VERTEX
  8
0
 10
31.5849
 20
47.465
 30
0.0
 40
0
 41
0
  0
VERTEX
  8
0
 10
31.5849
 20
52.0174
 30
0.0
 40
0
 41
0
  0
VERTEX
  8
0
 10
32.5849
 20
52.0174
 30
0.0
 40
0
 41
0
  0
VERTEX
  8
0
 10
32.5849
 20
56.2074
 30
0.0
 40
0
 41
0
  0
VERTEX
  8
0
 10
31.5849
 20
56.2074
 30
0.0
 40
0
 41
0
  0
VERTEX
  8
0
 10
31.5849
 20
61.1764
 30
0.0
 40
0
 41
0
  0
VERTEX
  8
0
 10
43.2963
 20
61.1764
 30
0.0
 40
0
 41
0
  0
VERTEX
  8
0
 10
43.2963
 20
57.4589
 30
0.0
 40
0
 41
0
  0
VERTEX
  8
0
 10
44.2963
 20
57.4589
 30
0.0
 40
0
 41
0
  0
SEQEND
 8
0
  0
POLYLINE
  8
0
 62
     0
 66
     1
 10
0
 20
0
 30
0.0
 70
     1
 40
0
 41
0
  0
VERTEX
  8
0
 10
34.4568
 20
56.6924
 30
0.0
 40
0
 41
0
  0
VERTEX
  8
0
 10
35.3818
 20
56.6924
 30
0.0
 40
0
 41
0
  0
VERTEX
  8
0
 10
35.3818
 20
51.4946
 30
0.0
 40
0
 41
0
  0
VERTEX
  8
0
 10
34.4568
 20
51.4946
 30
0.0
 40
0
 41
0
  0
VERTEX
  8
0
 10
34.4568
 20
56.6924
 30
0.0
 40
0
 41
0
  0
SEQEND
 8
0
  0
POLYLINE
  8
0
 62
     0
 66
     1
 10
0
 20
0
 30
0.0
 70
     1
 40
0
 41
0
  0
VERTEX
  8
0
 10
36.4568
 20
56.6924
 30
0.0
 40
0
 41
0
  0
VERTEX
  8
0
 10
37.3818
 20
56.6924
 30
0.0
 40
0
 41
0
  0
VERTEX
  8
0
 10
37.3818
 20
51.4946
 30
0.0
 40
0
 41
0
  0
VERTEX
  8
0
 10
36.4568
 20
51.4946
 30
0.0
 40
0
 41
0
  0
VERTEX
  8
0
 10
36.4568
 20
56.6924
 30
0.0
 40
0
 41
0
  0
SEQEND
 8
0
  0
POLYLINE
  8
0
 62
     0
 66
     1
 10
0
 20
0
 30
0.0
 70
     1
 40
0
 41
0
  0
VERTEX
  8
0
 10
32.1339
 20
73.2149
 30
0.0
 40
0
 41
0
  0
VERTEX
  8
0
 10
31.1339
 20
73.2149
 30
0.0
 40
0
 41
0
  0
VERTEX
  8
0
 10
31.1339
 20
76.8878
 30
0.0
 40
0
 41
0
  0
VERTEX
  8
0
 10
43.8453
 20
76.8878
 30
0.0
 40
0
 41
0
  0
VERTEX
  8
0
 10
43.8453
 20
75.3169
 30
0.0
 40
0
 41
0
  0
VERTEX
  8
0
 10
44.8453
 20
75.3169
 30
0.0
 40
0
 41
0
  0
VERTEX
  8
0
 10
44.8453
 20
71.9119
 30
0.0
 40
0
 41
0
  0
VERTEX
  8
0
 10
43.8453
 20
71.9119
 30
0.0
 40
0
 41
0
  0
VERTEX
  8
0
 10
43.8453
 20
67.0124
 30
0.0
 40
0
 41
0
  0
VERTEX
  8
0
 10
44.8453
 20
67.0124
 30
0.0
 40
0
 41
0
  0
VERTEX
  8
0
 10
44.8453
 20
63.1764
 30
0.0
 40
0
 41
0
  0
VERTEX
  8
0
 10
31.1339
 20
63.1764
 30
0.0
 40
0
 41
0
  0
VERTEX
  8
0
 10
31.1339
 20
66.5547
 30
0.0
 40
0
 41
0
  0
VERTEX
  8
0
 10
32.1339
 20
66.5547
 30
0.0
 40
0
 41
0
  0
VERTEX
  8
0
 10
32.1339
 20
73.2149
 30
0.0
 40
0
 41
0
  0
SEQEND
 8
0
  0
POLYLINE
  8
0
 62
     0
 66
     1
 10
0
 20
0
 30
0.0
 70
     1
 40
0
 41
0
  0
VERTEX
  8
0
 10
51.2861
 20
18.4193
 30
0.0
 40
0
 41
0
  0
VERTEX
  8
0
 10
54.7124
 20
18.4193
 30
0.0
 40
0
 41
0
  0
VERTEX
  8
0
 10
54.7124
 20
3.88976
 30
0.0
 40
0
 41
0
  0
VERTEX
  8
0
 10
45.0592
 20
3.88976
 30
0.0
 40
0
 41
0
  0
VERTEX
  8
0
 10
45.0592
 20
18.4193
 30
0.0
 40
0
 41
0
  0
VERTEX
  8
0
 10
47.5325
 20
18.4193
 30
0.0
 40
0
 41
0
  0
VERTEX
  8
0
 10
47.5325
 20
19.4193
 30
0.0
 40
0
 41
0
  0
VERTEX
  8
0
 10
51.2861
 20
19.4193
 30
0.0
 40
0
 41
0
  0
VERTEX
  8
0
 10
51.2861
 20
18.4193
 30
0.0
 40
0
 41
0
  0
SEQEND
 8
0
  0
POLYLINE
  8
0
 62
     0
 66
     1
 10
0
 20
0
 30
0.0
 70
     1
 40
0
 41
0
  0
VERTEX
  8
0
 10
47.2619
 20
6.70796
 30
0.0
 40
0
 41
0
  0
VERTEX
  8
0
 10
49.269
 20
6.70796
 30
0.0
 40
0
 41
0
  0
VERTEX
  8
0
 10
49.269
 20
5.78299
 30
0.0
 40
0
 41
0
  0
VERTEX
  8
0
 10
47.2619
 20
5.78299
 30
0.0
 40
0
 41
0
  0
VERTEX
  8
0
 10
47.2619
 20
6.70796
 30
0.0
 40
0
 41
0
  0
SEQEND
 8
0
  0
POLYLINE
  8
0
 62
     0
 66
     1
 10
0
 20
0
 30
0.0
 70
     1
 40
0
 41
0
  0
VERTEX
  8
0
 10
52.5429
 20
78.8878
 30
0.0
 40
0
 41
0
  0
VERTEX
  8
0
 10
41.8315
 20
78.8878
 30
0.0
 40
0
 41
0
  0
VERTEX
  8
0
 10
41.8315
 20
90.5525
 30
0.0
 40
0
 41
0
  0
VERTEX
  8
0
 10
52.5429
 20
90.5525
 30
0.0
 40
0
 41
0
  0
VERTEX
  8
0
 10
52.5429
 20
85.6585
 30
0.0
 40
0
 41
0
  0
VERTEX
  8
0
 10
53.5429
 20
85.6585
 30
0.0
 40
0
 41
0
  0
VERTEX
  8
0
 10
53.5429
 20
81.3185
 30
0.0
 40
0
 41
0
  0
VERTEX
  8
0
 10
52.5429
 20
81.3185
 30
0.0
 40
0
 41
0
  0
VERTEX
  8
0
 10
52.5429
 20
78.8878
 30
0.0
 40
0
 41
0
  0
SEQEND
 8
0
  0
POLYLINE
  8
0
 62
     0
 66
     1
 10
0
 20
0
 30
0.0
 70
     1
 40
0
 41
0
  0
VERTEX
  8
0
 10
42.9425
 20
86.0685
 30
0.0
 40
0
 41
0
  0
VERTEX
  8
0
 10
43.6107
 20
86.0685
 30
0.0
 40
0
 41
0
  0
VERTEX
  8
0
 10
43.6107
 20
82.2343
 30
0.0
 40
0
 41
0
  0
VERTEX
  8
0
 10
42.9425
 20
82.2343
 30
0.0
 40
0
 41
0
  0
VERTEX
  8
0
 10
42.9425
 20
86.0685
 30
0.0
 40
0
 41
0
  0
SEQEND
 8
0
  0
POLYLINE
  8
0
 62
     0
 66
     1
 10
0
 20
0
 30
0.0
 70
     1
 40
0
 41
0
  0
VERTEX
  8
0
 10
44.6857
 20
86.0685
 30
0.0
 40
0
 41
0
  0
VERTEX
  8
0
 10
45.3539
 20
86.0685
 30
0.0
 40
0
 41
0
  0
VERTEX
  8
0
 10
45.3539
 20
82.2343
 30
0.0
 40
0
 41
0
  0
VERTEX
  8
0
 10
44.6857
 20
82.2343
 30
0.0
 40
0
 41
0
  0
VERTEX
  8
0
 10
44.6857
 20
86.0685
 30
0.0
 40
0
 41
0
  0
SEQEND
 8
0
  0
POLYLINE
  8
0
 62
     0
 66
     1
 10
0
 20
0
 30
0.0
 70
     1
 40
0
 41
0
  0
VERTEX
  8
0
 10
47.8792
 20
94.8637
 30
0.0
 40
0
 41
0
  0
VERTEX
  8
0
 10
47.4017
 20
93.9851
 30
0.0
 40
0
 41
0
  0
VERTEX
  8
0
 10
44.9103
 20
95.339
 30
0.0
 40
0
 41
0
  0
VERTEX
  8
0
 10
45.3878
 20
96.2176
 30
0.0
 40
0
 41
0
  0
VERTEX
  8
0
 10
42.8643
 20
97.589
 30
0.0
 40
0
 41
0
  0
VERTEX
  8
0
 10
43.9743
 20
97.589
 30
0.0
 40
0
 41
0
  0
VERTEX
  8
0
 10
43.9743
 20
101.112
 30
0.0
 40
0
 41
0
  0
VERTEX
  8
0
 10
42.9743
 20
101.112
 30
0.0
 40
0
 41
0
  0
VERTEX
  8
0
 10
42.9743
 20
107.922
 30
0.0
 40
0
 41
0
  0
VERTEX
  8
0
 10
43.9743
 20
107.922
 30
0.0
 40
0
 41
0
  0
VERTEX
  8
0
 10
43.9743
 20
111.225
 30
0.0
 40
0
 41
0
  0
VERTEX
  8
0
 10
56.6858
 20
111.225
 30
0.0
 40
0
 41
0
  0
VERTEX
  8
0
 10
56.6858
 20
108.771
 30
0.0
 40
0
 41
0
  0
VERTEX
  8
0
 10
55.6858
 20
108.771
 30
0.0
 40
0
 41
0
  0
VERTEX
  8
0
 10
55.6858
 20
100.172
 30
0.0
 40
0
 41
0
  0
VERTEX
  8
0
 10
56.6858
 20
100.172
 30
0.0
 40
0
 41
0
  0
VERTEX
  8
0
 10
56.6858
 20
97.5293
 30
0.0
 40
0
 41
0
  0
VERTEX
  8
0
 10
53.5799
 20
95.8414
 30
0.0
 40
0
 41
0
  0
VERTEX
  8
0
 10
54.0574
 20
94.9628
 30
0.0
 40
0
 41
0
  0
VERTEX
  8
0
 10
52.1619
 20
93.9328
 30
0.0
 40
0
 41
0
  0
VERTEX
  8
0
 10
51.6846
 20
94.8114
 30
0.0
 40
0
 41
0
  0
VERTEX
  8
0
 10
49.8301
 20
93.8036
 30
0.0
 40
0
 41
0
  0
VERTEX
  8
0
 10
47.8792
 20
94.8637
 30
0.0
 40
0
 41
0
  0
SEQEND
 8
0
  0
POLYLINE
  8
0
 62
     0
 66
     1
 10
0
 20
0
 30
0.0
 70
     1
 40
0
 41
0
  0
VERTEX
  8
0
 10
44.7672
 20
107.06
 30
0.0
 40
0
 41
0
  0
VERTEX
  8
0
 10
47.8149
 20
107.06
 30
0.0
 40
0
 41
0
  0
VERTEX
  8
0
 10
47.8149
 20
102.589
 30
0.0
 40
0
 41
0
  0
VERTEX
  8
0
 10
44.7672
 20
102.589
 30
0.0
 40
0
 41
0
  0
VERTEX
  8
0
 10
44.7672
 20
107.06
 30
0.0
 40
0
 41
0
  0
SEQEND
 8
0
  0
POLYLINE
  8
0
 62
     0
 66
     1
 10
0
 20
0
 30
0.0
 70
     1
 40
0
 41
0
  0
VERTEX
  8
0
 10
47.346
 20
58.4489
 30
0.0
 40
0
 41
0
  0
VERTEX
  8
0
 10
46.846
 20
58.4489
 30
0.0
 40
0
 41
0
  0
VERTEX
  8
0
 10
46.846
 20
62.9946
 30
0.0
 40
0
 41
0
  0
VERTEX
  8
0
 10
56.9992
 20
62.9946
 30
0.0
 40
0
 41
0
  0
VERTEX
  8
0
 10
56.9992
 20
48.465
 30
0.0
 40
0
 41
0
  0
VERTEX
  8
0
 10
54.0115
 20
48.465
 30
0.0
 40
0
 41
0
  0
VERTEX
  8
0
 10
54.0115
 20
47.465
 30
0.0
 40
0
 41
0
  0
VERTEX
  8
0
 10
50.2067
 20
47.465
 30
0.0
 40
0
 41
0
  0
VERTEX
  8
0
 10
50.2067
 20
48.465
 30
0.0
 40
0
 41
0
  0
VERTEX
  8
0
 10
46.846
 20
48.465
 30
0.0
 40
0
 41
0
  0
VERTEX
  8
0
 10
46.846
 20
52.5054
 30
0.0
 40
0
 41
0
  0
VERTEX
  8
0
 10
47.346
 20
52.5054
 30
0.0
 40
0
 41
0
  0
VERTEX
  8
0
 10
47.346
 20
58.4489
 30
0.0
 40
0
 41
0
  0
SEQEND
 8
0
  0
POLYLINE
  8
0
 62
     0
 66
     1
 10
0
 20
0
 30
0.0
 70
     1
 40
0
 41
0
  0
VERTEX
  8
0
 10
49.6585
 20
61.1014
 30
0.0
 40
0
 41
0
  0
VERTEX
  8
0
 10
52.3439
 20
61.1014
 30
0.0
 40
0
 41
0
  0
VERTEX
  8
0
 10
52.3439
 20
60.1764
 30
0.0
 40
0
 41
0
  0
VERTEX
  8
0
 10
49.6585
 20
60.1764
 30
0.0
 40
0
 41
0
  0
VERTEX
  8
0
 10
49.6585
 20
61.1014
 30
0.0
 40
0
 41
0
  0
SEQEND
 8
0
  0
ENDSEC
  0
EOF
