  0
SECTION
  2
HEADER
  9
$ACADVER
  1
AC1015
  9
$ACADMAINTVER
 70
6
  9
$DWGCODEPAGE
  3
ANSI_1252
  9
$TDCREATE
 40
2459269.666898148
  9
$TDUPDATE
 40
2459269.666909722
  9
$HANDSEED
  5
10238
  9
$INSUNITS
 70
4
  9
$FINGERPRINTGUID
  2
D9469E92-75E7-11EB-B19C-D20010FD74C0
  9
$VERSIONGUID
  2
D977A730-75E7-11EB-B19C-D20010FD74C0
  0
ENDSEC
  0
SECTION
  2
CLASSES
  0
CLASS
  1
ACDBDICTIONARYWDFLT
  2
AcDbDictionaryWithDefault
  3
ObjectDBX Classes
 90
0
280
0
281
0
  0
CLASS
  1
SUN
  2
AcDbSun
  3
SCENEOE
 90
1153
280
0
281
0
  0
CLASS
  1
VISUALSTYLE
  2
AcDbVisualStyle
  3
ObjectDBX Classes
 90
4095
280
0
281
0
  0
CLASS
  1
MATERIAL
  2
AcDbMaterial
  3
ObjectDBX Classes
 90
1153
280
0
281
0
  0
CLASS
  1
SCALE
  2
AcDbScale
  3
ObjectDBX Classes
 90
1153
280
0
281
0
  0
CLASS
  1
TABLESTYLE
  2
AcDbTableStyle
  3
ObjectDBX Classes
 90
4095
280
0
281
0
  0
CLASS
  1
MLEADERSTYLE
  2
AcDbMLeaderStyle
  3
ACDB_MLEADERSTYLE_CLASS
 90
4095
280
0
281
0
  0
CLASS
  1
DICTIONARYVAR
  2
AcDbDictionaryVar
  3
ObjectDBX Classes
 90
0
280
0
281
0
  0
CLASS
  1
CELLSTYLEMAP
  2
AcDbCellStyleMap
  3
ObjectDBX Classes
 90
1152
280
0
281
0
  0
CLASS
  1
MENTALRAYRENDERSETTINGS
  2
AcDbMentalRayRenderSettings
  3
SCENEOE
 90
1024
280
0
281
0
  0
CLASS
  1
ACDBDETAILVIEWSTYLE
  2
AcDbDetailViewStyle
  3
ObjectDBX Classes
 90
1025
280
0
281
0
  0
CLASS
  1
ACDBSECTIONVIEWSTYLE
  2
AcDbSectionViewStyle
  3
ObjectDBX Classes
 90
1025
280
0
281
0
  0
CLASS
  1
RASTERVARIABLES
  2
AcDbRasterVariables
  3
ISM
 90
0
280
0
281
0
  0
CLASS
  1
ACDBPLACEHOLDER
  2
AcDbPlaceHolder
  3
ObjectDBX Classes
 90
0
280
0
281
0
  0
CLASS
  1
LAYOUT
  2
AcDbLayout
  3
ObjectDBX Classes
 90
0
280
0
281
0
  0
ENDSEC
  0
SECTION
  2
TABLES
  0
TABLE
  2
VPORT
  5
8
330
0
100
AcDbSymbolTable
 70
1
  0
VPORT
  5
1006A
330
8
100
AcDbSymbolTableRecord
100
AcDbViewportTableRecord
  2
*Active
 70
0
 10
0.0
 20
0.0
 11
1.0
 21
1.0
 12
70.0
 22
50.0
 13
0.0
 23
0.0
 14
0.5
 24
0.5
 15
0.5
 25
0.5
 16
0.0
 26
0.0
 36
1.0
 17
0.0
 27
0.0
 37
0.0
 40
1.0
 41
1.34
 42
50.0
 43
0.0
 44
0.0
 50
0.0
 51
0.0
 71
0
 72
1000
 73
1
 74
3
 75
0
 76
0
 77
0
 78
0
281
0
 65
0
146
0.0
  0
ENDTAB
  0
TABLE
  2
LTYPE
  5
5
330
0
100
AcDbSymbolTable
 70
3
  0
LTYPE
  5
1006B
330
5
100
AcDbSymbolTableRecord
100
AcDbLinetypeTableRecord
  2
Continuous
 70
0
  3

 72
65
 73
0
 40
0.0
  0
ENDTAB
  0
TABLE
  2
LAYER
  5
2
330
0
100
AcDbSymbolTable
 70
2
  0
LAYER
  5
50
330
2
100
AcDbSymbolTableRecord
100
AcDbLayerTableRecord
  2
0
 70
0
 62
7
  6
CONTINUOUS
370
-3
390
10060
  0
LAYER
  5
1006C
330
2
100
AcDbSymbolTableRecord
100
AcDbLayerTableRecord
  2
Defpoints
 70
0
 62
7
  6
Continuous
290
0
370
-3
390
10060
  0
ENDTAB
  0
TABLE
  2
STYLE
  5
3
330
0
100
AcDbSymbolTable
 70
1
  0
STYLE
  5
11
330
3
100
AcDbSymbolTableRecord
100
AcDbTextStyleTableRecord
  2
STANDARD
 70
0
 40
0.0
 41
1.0
 50
0.0
 71
0
 42
2.5
  3
txt
  4

  0
ENDTAB
  0
TABLE
  2
VIEW
  5
6
330
0
100
AcDbSymbolTable
 70
0
  0
ENDTAB
  0
TABLE
  2
UCS
  5
7
330
0
100
AcDbSymbolTable
 70
0
  0
ENDTAB
  0
TABLE
  2
APPID
  5
9
330
0
100
AcDbSymbolTable
 70
2
  0
APPID
  5
12
330
9
100
AcDbSymbolTableRecord
100
AcDbRegAppTableRecord
  2
ACAD
 70
0
  0
APPID
  5
10237
330
9
100
AcDbSymbolTableRecord
100
AcDbRegAppTableRecord
  2
HATCHBACKGROUNDCOLOR
 70
0
  0
ENDTAB
  0
TABLE
  2
DIMSTYLE
  5
A
330
0
100
AcDbSymbolTable
 70
1
100
AcDbDimStyleTable
  0
DIMSTYLE
105
1006D
330
A
100
AcDbSymbolTableRecord
100
AcDbDimStyleTableRecord
  2
Standard
 70
0
  3

  4

 40
1.0
 41
2.5
 42
0.625
 43
3.75
 44
1.25
 45
0.0
 46
0.0
 47
0.0
 48
0.0
140
2.5
141
2.5
142
0.0
143
0.03937007874
144
1.0
145
0.0
146
1.0
147
0.625
148
0.0
 71
0
 72
0
 73
0
 74
0
 75
0
 76
0
 77
1
 78
8
 79
0
170
0
171
3
172
1
173
0
174
0
175
0
176
0
177
0
178
0
179
0
271
0
272
2
273
2
274
3
275
0
276
0
277
2
278
44
279
0
280
0
281
0
282
0
283
0
284
8
285
0
286
0
288
0
289
3
371
-2
372
-2
  0
ENDTAB
  0
TABLE
  2
BLOCK_RECORD
  5
1
330
0
100
AcDbSymbolTable
 70
22
  0
BLOCK_RECORD
  5
1F
330
1
100
AcDbSymbolTableRecord
100
AcDbBlockTableRecord
  2
*MODEL_SPACE
340
10064
  0
BLOCK_RECORD
  5
1B
330
1
100
AcDbSymbolTableRecord
100
AcDbBlockTableRecord
  2
*PAPER_SPACE
340
10065
  0
BLOCK_RECORD
  5
FFFF
330
1
100
AcDbSymbolTableRecord
100
AcDbBlockTableRecord
  2
_CLOSEDFILLED
340
0
  0
BLOCK_RECORD
  5
10003
330
1
100
AcDbSymbolTableRecord
100
AcDbBlockTableRecord
  2
_OPEN
340
0
  0
BLOCK_RECORD
  5
10008
330
1
100
AcDbSymbolTableRecord
100
AcDbBlockTableRecord
  2
_SMALL
340
0
  0
BLOCK_RECORD
  5
1000C
330
1
100
AcDbSymbolTableRecord
100
AcDbBlockTableRecord
  2
_ARCHTICK
340
0
  0
BLOCK_RECORD
  5
10010
330
1
100
AcDbSymbolTableRecord
100
AcDbBlockTableRecord
  2
_DOT
340
0
  0
BLOCK_RECORD
  5
10015
330
1
100
AcDbSymbolTableRecord
100
AcDbBlockTableRecord
  2
_DATUMBLANK
340
0
  0
BLOCK_RECORD
  5
10019
330
1
100
AcDbSymbolTableRecord
100
AcDbBlockTableRecord
  2
_DOTBLANK
340
0
  0
BLOCK_RECORD
  5
1001E
330
1
100
AcDbSymbolTableRecord
100
AcDbBlockTableRecord
  2
_OPEN90
340
0
  0
BLOCK_RECORD
  5
10023
330
1
100
AcDbSymbolTableRecord
100
AcDbBlockTableRecord
  2
_NONE
340
0
  0
BLOCK_RECORD
  5
10026
330
1
100
AcDbSymbolTableRecord
100
AcDbBlockTableRecord
  2
_OPEN30
340
0
  0
BLOCK_RECORD
  5
1002B
330
1
100
AcDbSymbolTableRecord
100
AcDbBlockTableRecord
  2
_BOXBLANK
340
0
  0
BLOCK_RECORD
  5
10030
330
1
100
AcDbSymbolTableRecord
100
AcDbBlockTableRecord
  2
_DOTSMALL
340
0
  0
BLOCK_RECORD
  5
10034
330
1
100
AcDbSymbolTableRecord
100
AcDbBlockTableRecord
  2
_ORIGIN2
340
0
  0
BLOCK_RECORD
  5
1003A
330
1
100
AcDbSymbolTableRecord
100
AcDbBlockTableRecord
  2
_BOXFILLED
340
0
  0
BLOCK_RECORD
  5
1003F
330
1
100
AcDbSymbolTableRecord
100
AcDbBlockTableRecord
  2
_INTEGRAL
340
0
  0
BLOCK_RECORD
  5
10044
330
1
100
AcDbSymbolTableRecord
100
AcDbBlockTableRecord
  2
_CLOSED
340
0
  0
BLOCK_RECORD
  5
10049
330
1
100
AcDbSymbolTableRecord
100
AcDbBlockTableRecord
  2
_DATUMFILLED
340
0
  0
BLOCK_RECORD
  5
1004D
330
1
100
AcDbSymbolTableRecord
100
AcDbBlockTableRecord
  2
_OBLIQUE
340
0
  0
BLOCK_RECORD
  5
10051
330
1
100
AcDbSymbolTableRecord
100
AcDbBlockTableRecord
  2
_ORIGIN
340
0
  0
BLOCK_RECORD
  5
10056
330
1
100
AcDbSymbolTableRecord
100
AcDbBlockTableRecord
  2
_CLOSEDBLANK
340
0
  0
ENDTAB
  0
ENDSEC
  0
SECTION
  2
BLOCKS
  0
BLOCK
  5
20
330
1F
100
AcDbEntity
  8
0
100
AcDbBlockBegin
  2
*MODEL_SPACE
 70
0
 10
0.0
 20
0.0
 30
0.0
  3
*MODEL_SPACE
  1

  0
ENDBLK
  5
21
330
1F
100
AcDbEntity
  8
0
100
AcDbBlockEnd
  0
BLOCK
  5
1C
330
1B
100
AcDbEntity
  8
0
100
AcDbBlockBegin
  2
*PAPER_SPACE
 70
0
 10
0.0
 20
0.0
 30
0.0
  3
*PAPER_SPACE
  1

  0
ENDBLK
  5
1D
330
1B
100
AcDbEntity
  8
0
100
AcDbBlockEnd
  0
BLOCK
  5
10000
330
FFFF
100
AcDbEntity
  8
0
100
AcDbBlockBegin
  2
_CLOSEDFILLED
 70
0
 10
0.0
 20
0.0
 30
0.0
  3
_CLOSEDFILLED
  1

  0
SOLID
  5
10002
330
FFFF
100
AcDbEntity
  8
0
  6
BYBLOCK
 62
0
100
AcDbTrace
 10
-1.0
 20
0.1643989837240255
 30
0.0
 11
0.0
 21
0.0
 31
0.0
 12
-1.0
 22
-0.1643989837240255
 32
0.0
 13
-1.0
 23
-0.1643989837240255
 33
0.0
  0
ENDBLK
  5
10001
330
FFFF
100
AcDbEntity
  8
0
100
AcDbBlockEnd
  0
BLOCK
  5
10004
330
10003
100
AcDbEntity
  8
0
100
AcDbBlockBegin
  2
_OPEN
 70
0
 10
0.0
 20
0.0
 30
0.0
  3
_OPEN
  1

  0
LWPOLYLINE
  5
10006
330
10003
100
AcDbEntity
  8
0
  6
BYBLOCK
 62
0
100
AcDbPolyline
 90
3
 70
0
 10
-1.0
 20
0.1643989837240255
 10
0.0
 20
0.0
 10
-1.0
 20
-0.1643989837240255
  0
LINE
  5
10007
330
10003
100
AcDbEntity
  8
0
  6
BYBLOCK
 62
0
100
AcDbLine
 10
0.0
 20
0.0
 30
0.0
 11
-1.0
 21
1.2246467991473532e-16
 31
0.0
  0
ENDBLK
  5
10005
330
10003
100
AcDbEntity
  8
0
100
AcDbBlockEnd
  0
BLOCK
  5
10009
330
10008
100
AcDbEntity
  8
0
100
AcDbBlockBegin
  2
_SMALL
 70
0
 10
0.0
 20
0.0
 30
0.0
  3
_SMALL
  1

  0
CIRCLE
  5
1000B
330
10008
100
AcDbEntity
  8
0
  6
BYBLOCK
 62
0
100
AcDbCircle
 10
0.0
 20
0.0
 30
0.0
 40
0.25
  0
ENDBLK
  5
1000A
330
10008
100
AcDbEntity
  8
0
100
AcDbBlockEnd
  0
BLOCK
  5
1000D
330
1000C
100
AcDbEntity
  8
0
100
AcDbBlockBegin
  2
_ARCHTICK
 70
0
 10
0.0
 20
0.0
 30
0.0
  3
_ARCHTICK
  1

  0
LWPOLYLINE
  5
1000F
330
1000C
100
AcDbEntity
  8
0
  6
BYBLOCK
 62
0
100
AcDbPolyline
 90
2
 70
0
 43
0.15
 10
-0.5
 20
-0.5000000000000001
 10
0.5000000000000001
 20
0.5
  0
ENDBLK
  5
1000E
330
1000C
100
AcDbEntity
  8
0
100
AcDbBlockEnd
  0
BLOCK
  5
10011
330
10010
100
AcDbEntity
  8
0
100
AcDbBlockBegin
  2
_DOT
 70
0
 10
0.0
 20
0.0
 30
0.0
  3
_DOT
  1

  0
LINE
  5
10013
330
10010
100
AcDbEntity
  8
0
  6
BYBLOCK
 62
0
100
AcDbLine
 10
-0.5
 20
6.123233995736766e-17
 30
0.0
 11
-1.0
 21
1.2246467991473532e-16
 31
0.0
  0
LWPOLYLINE
  5
10014
330
10010
100
AcDbEntity
  8
0
  6
BYBLOCK
 62
0
100
AcDbPolyline
 90
2
 70
1
 43
0.5
 10
-0.25
 20
0.0
 42
1.0
 10
0.25
 20
0.0
 42
1.0
  0
ENDBLK
  5
10012
330
10010
100
AcDbEntity
  8
0
100
AcDbBlockEnd
  0
BLOCK
  5
10016
330
10015
100
AcDbEntity
  8
0
100
AcDbBlockBegin
  2
_DATUMBLANK
 70
0
 10
0.0
 20
0.0
 30
0.0
  3
_DATUMBLANK
  1

  0
LWPOLYLINE
  5
10018
330
10015
100
AcDbEntity
  8
0
  6
BYBLOCK
 62
0
100
AcDbPolyline
 90
3
 70
1
 10
3.5352507945885664e-17
 20
0.577350269
 10
3.5352507945885664e-17
 20
-0.577350269
 10
-1.0
 20
1.2246467991473532e-16
  0
ENDBLK
  5
10017
330
10015
100
AcDbEntity
  8
0
100
AcDbBlockEnd
  0
BLOCK
  5
1001A
330
10019
100
AcDbEntity
  8
0
100
AcDbBlockBegin
  2
_DOTBLANK
 70
0
 10
0.0
 20
0.0
 30
0.0
  3
_DOTBLANK
  1

  0
CIRCLE
  5
1001C
330
10019
100
AcDbEntity
  8
0
  6
BYBLOCK
 62
0
100
AcDbCircle
 10
0.0
 20
0.0
 30
0.0
 40
0.5
  0
LINE
  5
1001D
330
10019
100
AcDbEntity
  8
0
  6
BYBLOCK
 62
0
100
AcDbLine
 10
-0.5
 20
6.123233995736766e-17
 30
0.0
 11
-1.0
 21
1.2246467991473532e-16
 31
0.0
  0
ENDBLK
  5
1001B
330
10019
100
AcDbEntity
  8
0
100
AcDbBlockEnd
  0
BLOCK
  5
1001F
330
1001E
100
AcDbEntity
  8
0
100
AcDbBlockBegin
  2
_OPEN90
 70
0
 10
0.0
 20
0.0
 30
0.0
  3
_OPEN90
  1

  0
LWPOLYLINE
  5
10021
330
1001E
100
AcDbEntity
  8
0
  6
BYBLOCK
 62
0
100
AcDbPolyline
 90
3
 70
0
 10
-0.9999999999999998
 20
0.7071067811865476
 10
0.0
 20
0.0
 10
-0.9999999999999998
 20
-0.7071067811865476
  0
LINE
  5
10022
330
1001E
100
AcDbEntity
  8
0
  6
BYBLOCK
 62
0
100
AcDbLine
 10
0.0
 20
0.0
 30
0.0
 11
-1.0
 21
1.2246467991473532e-16
 31
0.0
  0
ENDBLK
  5
10020
330
1001E
100
AcDbEntity
  8
0
100
AcDbBlockEnd
  0
BLOCK
  5
10024
330
10023
100
AcDbEntity
  8
0
100
AcDbBlockBegin
  2
_NONE
 70
0
 10
0.0
 20
0.0
 30
0.0
  3
_NONE
  1

  0
ENDBLK
  5
10025
330
10023
100
AcDbEntity
  8
0
100
AcDbBlockEnd
  0
BLOCK
  5
10027
330
10026
100
AcDbEntity
  8
0
100
AcDbBlockBegin
  2
_OPEN30
 70
0
 10
0.0
 20
0.0
 30
0.0
  3
_OPEN30
  1

  0
LWPOLYLINE
  5
10029
330
10026
100
AcDbEntity
  8
0
  6
BYBLOCK
 62
0
100
AcDbPolyline
 90
3
 70
0
 10
-0.9999999999999999
 20
0.2588190451025208
 10
0.0
 20
0.0
 10
-0.9999999999999999
 20
-0.2588190451025208
  0
LINE
  5
1002A
330
10026
100
AcDbEntity
  8
0
  6
BYBLOCK
 62
0
100
AcDbLine
 10
0.0
 20
0.0
 30
0.0
 11
-1.0
 21
1.2246467991473532e-16
 31
0.0
  0
ENDBLK
  5
10028
330
10026
100
AcDbEntity
  8
0
100
AcDbBlockEnd
  0
BLOCK
  5
1002C
330
1002B
100
AcDbEntity
  8
0
100
AcDbBlockBegin
  2
_BOXBLANK
 70
0
 10
0.0
 20
0.0
 30
0.0
  3
_BOXBLANK
  1

  0
LWPOLYLINE
  5
1002E
330
1002B
100
AcDbEntity
  8
0
  6
BYBLOCK
 62
0
100
AcDbPolyline
 90
4
 70
1
 10
-0.5
 20
-0.5000000000000001
 10
0.5000000000000001
 20
-0.5
 10
0.5000000000000001
 20
0.5
 10
-0.5
 20
0.5000000000000001
  0
LINE
  5
1002F
330
1002B
100
AcDbEntity
  8
0
  6
BYBLOCK
 62
0
100
AcDbLine
 10
-0.5
 20
6.123233995736766e-17
 30
0.0
 11
-1.0
 21
1.2246467991473532e-16
 31
0.0
  0
ENDBLK
  5
1002D
330
1002B
100
AcDbEntity
  8
0
100
AcDbBlockEnd
  0
BLOCK
  5
10031
330
10030
100
AcDbEntity
  8
0
100
AcDbBlockBegin
  2
_DOTSMALL
 70
0
 10
0.0
 20
0.0
 30
0.0
  3
_DOTSMALL
  1

  0
LWPOLYLINE
  5
10033
330
10030
100
AcDbEntity
  8
0
  6
BYBLOCK
 62
0
100
AcDbPolyline
 90
2
 70
1
 43
0.125
 10
-0.0625
 20
0.0
 42
1.0
 10
0.0625
 20
0.0
 42
1.0
  0
ENDBLK
  5
10032
330
10030
100
AcDbEntity
  8
0
100
AcDbBlockEnd
  0
BLOCK
  5
10035
330
10034
100
AcDbEntity
  8
0
100
AcDbBlockBegin
  2
_ORIGIN2
 70
0
 10
0.0
 20
0.0
 30
0.0
  3
_ORIGIN2
  1

  0
CIRCLE
  5
10037
330
10034
100
AcDbEntity
  8
0
  6
BYBLOCK
 62
0
100
AcDbCircle
 10
0.0
 20
0.0
 30
0.0
 40
0.5
  0
CIRCLE
  5
10038
330
10034
100
AcDbEntity
  8
0
  6
BYBLOCK
 62
0
100
AcDbCircle
 10
0.0
 20
0.0
 30
0.0
 40
0.25
  0
LINE
  5
10039
330
10034
100
AcDbEntity
  8
0
  6
BYBLOCK
 62
0
100
AcDbLine
 10
-0.5
 20
6.123233995736766e-17
 30
0.0
 11
-1.0
 21
1.2246467991473532e-16
 31
0.0
  0
ENDBLK
  5
10036
330
10034
100
AcDbEntity
  8
0
100
AcDbBlockEnd
  0
BLOCK
  5
1003B
330
1003A
100
AcDbEntity
  8
0
100
AcDbBlockBegin
  2
_BOXFILLED
 70
0
 10
0.0
 20
0.0
 30
0.0
  3
_BOXFILLED
  1

  0
SOLID
  5
1003D
330
1003A
100
AcDbEntity
  8
0
  6
BYBLOCK
 62
0
100
AcDbTrace
 10
-0.5
 20
-0.5000000000000001
 30
0.0
 11
0.5000000000000001
 21
-0.5
 31
0.0
 12
-0.5
 22
0.5000000000000001
 32
0.0
 13
0.5000000000000001
 23
0.5
 33
0.0
  0
LINE
  5
1003E
330
1003A
100
AcDbEntity
  8
0
  6
BYBLOCK
 62
0
100
AcDbLine
 10
-0.5
 20
6.123233995736766e-17
 30
0.0
 11
-1.0
 21
1.2246467991473532e-16
 31
0.0
  0
ENDBLK
  5
1003C
330
1003A
100
AcDbEntity
  8
0
100
AcDbBlockEnd
  0
BLOCK
  5
10040
330
1003F
100
AcDbEntity
  8
0
100
AcDbBlockBegin
  2
_INTEGRAL
 70
0
 10
0.0
 20
0.0
 30
0.0
  3
_INTEGRAL
  1

  0
ARC
  5
10042
330
1003F
100
AcDbEntity
  8
0
  6
BYBLOCK
 62
0
100
AcDbCircle
 10
-0.3535534
 20
4.329780396376638e-17
 30
0.0
 40
0.3535534
100
AcDbArc
 50
-90.0
 51
0.0
  0
ARC
  5
10043
330
1003F
100
AcDbEntity
  8
0
  6
BYBLOCK
 62
0
100
AcDbCircle
 10
0.3535534
 20
0.0
 30
0.0
 40
0.3535534
100
AcDbArc
 50
90.0
 51
180.0
  0
ENDBLK
  5
10041
330
1003F
100
AcDbEntity
  8
0
100
AcDbBlockEnd
  0
BLOCK
  5
10045
330
10044
100
AcDbEntity
  8
0
100
AcDbBlockBegin
  2
_CLOSED
 70
0
 10
0.0
 20
0.0
 30
0.0
  3
_CLOSED
  1

  0
LWPOLYLINE
  5
10047
330
10044
100
AcDbEntity
  8
0
  6
BYBLOCK
 62
0
100
AcDbPolyline
 90
3
 70
1
 10
-1.0
 20
0.1643989837240255
 10
0.0
 20
0.0
 10
-1.0
 20
-0.1643989837240255
  0
LINE
  5
10048
330
10044
100
AcDbEntity
  8
0
  6
BYBLOCK
 62
0
100
AcDbLine
 10
0.0
 20
0.0
 30
0.0
 11
-1.0
 21
0.0
 31
0.0
  0
ENDBLK
  5
10046
330
10044
100
AcDbEntity
  8
0
100
AcDbBlockEnd
  0
BLOCK
  5
1004A
330
10049
100
AcDbEntity
  8
0
100
AcDbBlockBegin
  2
_DATUMFILLED
 70
0
 10
0.0
 20
0.0
 30
0.0
  3
_DATUMFILLED
  1

  0
SOLID
  5
1004C
330
10049
100
AcDbEntity
  8
0
  6
BYBLOCK
 62
0
100
AcDbTrace
 10
3.5352507945885664e-17
 20
0.577350269
 30
0.0
 11
3.5352507945885664e-17
 21
-0.577350269
 31
0.0
 12
-1.0
 22
1.2246467991473532e-16
 32
0.0
 13
-1.0
 23
1.2246467991473532e-16
 33
0.0
  0
ENDBLK
  5
1004B
330
10049
100
AcDbEntity
  8
0
100
AcDbBlockEnd
  0
BLOCK
  5
1004E
330
1004D
100
AcDbEntity
  8
0
100
AcDbBlockBegin
  2
_OBLIQUE
 70
0
 10
0.0
 20
0.0
 30
0.0
  3
_OBLIQUE
  1

  0
LINE
  5
10050
330
1004D
100
AcDbEntity
  8
0
  6
BYBLOCK
 62
0
100
AcDbLine
 10
-0.5
 20
-0.5000000000000001
 30
0.0
 11
0.5000000000000001
 21
0.5
 31
0.0
  0
ENDBLK
  5
1004F
330
1004D
100
AcDbEntity
  8
0
100
AcDbBlockEnd
  0
BLOCK
  5
10052
330
10051
100
AcDbEntity
  8
0
100
AcDbBlockBegin
  2
_ORIGIN
 70
0
 10
0.0
 20
0.0
 30
0.0
  3
_ORIGIN
  1

  0
CIRCLE
  5
10054
330
10051
100
AcDbEntity
  8
0
  6
BYBLOCK
 62
0
100
AcDbCircle
 10
0.0
 20
0.0
 30
0.0
 40
0.5
  0
LINE
  5
10055
330
10051
100
AcDbEntity
  8
0
  6
BYBLOCK
 62
0
100
AcDbLine
 10
0.0
 20
0.0
 30
0.0
 11
-1.0
 21
1.2246467991473532e-16
 31
0.0
  0
ENDBLK
  5
10053
330
10051
100
AcDbEntity
  8
0
100
AcDbBlockEnd
  0
BLOCK
  5
10057
330
10056
100
AcDbEntity
  8
0
100
AcDbBlockBegin
  2
_CLOSEDBLANK
 70
0
 10
0.0
 20
0.0
 30
0.0
  3
_CLOSEDBLANK
  1

  0
LWPOLYLINE
  5
10059
330
10056
100
AcDbEntity
  8
0
  6
BYBLOCK
 62
0
100
AcDbPolyline
 90
3
 70
1
 10
-1.0
 20
0.1643989837240255
 10
0.0
 20
0.0
 10
-1.0
 20
-0.1643989837240255
  0
ENDBLK
  5
10058
330
10056
100
AcDbEntity
  8
0
100
AcDbBlockEnd
  0
ENDSEC
  0
SECTION
  2
ENTITIES
  0
LINE
  5
100
330
1F
100
AcDbEntity
  8
0
100
AcDbLine
 10
19.177825747628596
 20
14.71136363636377
 30
0.0
 11
13.09855000359109
 21
14.711363636363766
 31
0.0
  0
ARC
  5
101
330
1F
100
AcDbEntity
  8
0
100
AcDbCircle
 10
22.03264623235261
 20
13.673863636363704
 30
0.0
 40
3.037500000000003
100
AcDbArc
 50
132.12744039409344
 51
160.02782296911465
  0
LINE
  5
102
330
1F
100
AcDbEntity
  8
0
100
AcDbLine
 10
19.99514623235261
 20
24.075041652926668
 30
0.0
 11
19.99514623235261
 21
15.926639701577468
 31
0.0
  0
ARC
  5
103
330
1F
100
AcDbEntity
  8
0
100
AcDbCircle
 10
22.03264623235261
 20
13.673863636363704
 30
0.0
 40
10.5988636363637
100
AcDbArc
 50
101.08339626470237
 51
131.4825575275434
  0
ARC
  5
104
330
1F
100
AcDbEntity
  8
0
100
AcDbCircle
 10
16.311985075327875
 20
20.143856896484955
 30
0.0
 40
1.9624999999999007
100
AcDbArc
 50
131.482446290569
 51
157.62990799447084
  0
ARC
  5
105
330
1F
100
AcDbEntity
  8
0
100
AcDbCircle
 10
32.032646232352675
 20
13.67386363636375
 30
0.0
 40
18.962500000000105
100
AcDbArc
 50
157.62990127835297
 51
176.8635955465032
  0
LINE
  5
106
330
1F
100
AcDbEntity
  8
0
100
AcDbLine
 10
13.097387815540735
 20
21.955048280578012
 30
0.0
 11
12.172140762840026
 21
22.880295333278738
 31
0.0
  0
LINE
  5
107
330
1F
100
AcDbEntity
  8
0
100
AcDbLine
 10
13.751461588138277
 20
22.60912205317556
 30
0.0
 11
13.097387815540735
 21
21.955048280578012
 31
0.0
  0
LINE
  5
108
330
1F
100
AcDbEntity
  8
0
100
AcDbLine
 10
12.755661767292814
 20
23.604921874021052
 30
0.0
 11
13.751461588138277
 21
22.60912205317556
 31
0.0
  0
ARC
  5
109
330
1F
100
AcDbEntity
  8
0
100
AcDbCircle
 10
16.311985075327875
 20
20.143856896484955
 30
0.0
 40
4.962500000000038
100
AcDbArc
 50
135.7777202676227
 51
146.53528351212995
  0
ARC
  5
110
330
1F
100
AcDbEntity
  8
0
100
AcDbCircle
 10
16.311985075327968
 20
7.203870376242598
 30
0.0
 40
4.962500000000122
100
AcDbArc
 50
-144.7729229076386
 51
-137.51041089775774
  0
LINE
  5
111
330
1F
100
AcDbEntity
  8
0
100
AcDbLine
 10
12.258255819268076
 20
4.341408958412597
 30
0.0
 11
13.2034568342728
 21
5.286609973417331
 31
0.0
  0
LINE
  5
112
330
1F
100
AcDbEntity
  8
0
100
AcDbLine
 10
13.2034568342728
 20
5.286609973417331
 30
0.0
 11
13.645392569406233
 21
4.844674238283893
 31
0.0
  0
LINE
  5
113
330
1F
100
AcDbEntity
  8
0
100
AcDbLine
 10
13.645392569406233
 20
4.844674238283893
 30
0.0
 11
12.652637166510637
 21
3.851918835388309
 31
0.0
  0
ARC
  5
114
330
1F
100
AcDbEntity
  8
0
100
AcDbCircle
 10
22.03264623235261
 20
13.673863636363704
 30
0.0
 40
10.598863636363705
100
AcDbArc
 50
-131.4825904812454
 51
-101.08339626470243
  0
ARC
  5
115
330
1F
100
AcDbEntity
  8
0
100
AcDbCircle
 10
16.311985075327968
 20
7.203870376242598
 30
0.0
 40
1.9625000000001334
100
AcDbArc
 50
-157.62990050313127
 51
-131.48262426345653
  0
ARC
  5
116
330
1F
100
AcDbEntity
  8
0
100
AcDbCircle
 10
32.032646232352675
 20
13.67386363636375
 30
0.0
 40
18.962500000000098
100
AcDbArc
 50
-176.86359554650332
 51
-157.6299005030463
  0
LINE
  5
117
330
1F
100
AcDbEntity
  8
0
100
AcDbLine
 10
13.098550003591097
 20
12.636363636363763
 30
0.0
 11
19.177825747628553
 21
12.636363636363765
 31
0.0
  0
ARC
  5
118
330
1F
100
AcDbEntity
  8
0
100
AcDbCircle
 10
22.03264623235261
 20
13.673863636363704
 30
0.0
 40
3.0374999999999996
100
AcDbArc
 50
-160.02782296911715
 51
-132.12744039409358
  0
LINE
  5
119
330
1F
100
AcDbEntity
  8
0
100
AcDbLine
 10
19.99514623235261
 20
11.421087571149945
 30
0.0
 11
19.99514623235261
 21
3.272685619800731
 31
0.0
  0
LINE
  5
120
330
1F
100
AcDbEntity
  8
0
100
AcDbLine
 10
22.07014623235261
 20
24.2727272727274
 30
0.0
 11
42.72241895962534
 21
24.2727272727274
 31
0.0
  0
LINE
  5
121
330
1F
100
AcDbEntity
  8
0
100
AcDbLine
 10
42.72241895962534
 20
24.2727272727274
 30
0.0
 11
42.722418959625344
 21
21.636363636363768
 31
0.0
  0
LINE
  5
122
330
1F
100
AcDbEntity
  8
0
100
AcDbLine
 10
42.722418959625344
 20
21.636363636363768
 30
0.0
 11
49.79741895962534
 21
21.636363636363768
 31
0.0
  0
LINE
  5
123
330
1F
100
AcDbEntity
  8
0
100
AcDbLine
 10
49.79741895962534
 20
21.636363636363768
 30
0.0
 11
49.79741895962534
 21
27.347727272727404
 31
0.0
  0
LINE
  5
124
330
1F
100
AcDbEntity
  8
0
100
AcDbLine
 10
49.79741895962534
 20
27.347727272727404
 30
0.0
 11
28.946709226287297
 21
27.347727272727404
 31
0.0
  0
LINE
  5
125
330
1F
100
AcDbEntity
  8
0
100
AcDbLine
 10
28.946709226287297
 20
27.347727272727404
 30
0.0
 11
28.9467092262873
 21
25.847727272727404
 31
0.0
  0
LINE
  5
126
330
1F
100
AcDbEntity
  8
0
100
AcDbLine
 10
28.9467092262873
 20
25.847727272727404
 30
0.0
 11
28.0217092262873
 21
25.847727272727404
 31
0.0
  0
LINE
  5
127
330
1F
100
AcDbEntity
  8
0
100
AcDbLine
 10
28.0217092262873
 20
25.847727272727404
 30
0.0
 11
28.0217092262873
 21
27.347727272727404
 31
0.0
  0
LINE
  5
128
330
1F
100
AcDbEntity
  8
0
100
AcDbLine
 10
28.0217092262873
 20
27.347727272727404
 30
0.0
 11
22.03264623235261
 21
27.347727272727404
 31
0.0
  0
ARC
  5
129
330
1F
100
AcDbEntity
  8
0
100
AcDbCircle
 10
22.03264623235261
 20
13.673863636363704
 30
0.0
 40
13.673863636363702
100
AcDbArc
 50
89.99999999999999
 51
136.59243846849736
  0
ARC
  5
130
330
1F
100
AcDbEntity
  8
0
100
AcDbCircle
 10
32.032646232352675
 20
13.67386363636375
 30
0.0
 40
22.037500000000023
100
AcDbArc
 50
154.7616604013845
 51
178.79744781896053
  0
LINE
  5
131
330
1F
100
AcDbEntity
  8
0
100
AcDbLine
 10
10.000000000000085
 20
14.13636363636376
 30
0.0
 11
11.368807398345076
 21
14.136363636363761
 31
0.0
  0
ARC
  5
132
330
1F
100
AcDbEntity
  8
0
100
AcDbCircle
 10
22.03264623235261
 20
13.673863636363704
 30
0.0
 40
10.673863636363697
100
AcDbArc
 50
177.51658836782678
 51
-177.51658836782738
  0
LINE
  5
133
330
1F
100
AcDbEntity
  8
0
100
AcDbLine
 10
11.36880739834507
 20
13.211363636363762
 30
0.0
 11
10.000000000000007
 21
13.211363636363764
 31
0.0
  0
ARC
  5
134
330
1F
100
AcDbEntity
  8
0
100
AcDbCircle
 10
32.032646232352675
 20
13.67386363636375
 30
0.0
 40
22.037500000000104
100
AcDbArc
 50
-178.7974478189605
 51
-154.76166040138463
  0
ARC
  5
135
330
1F
100
AcDbEntity
  8
0
100
AcDbCircle
 10
22.03264623235261
 20
13.673863636363704
 30
0.0
 40
13.673863636363704
100
AcDbArc
 50
-136.59243846849793
 51
-90.00000000000001
  0
LINE
  5
136
330
1F
100
AcDbEntity
  8
0
100
AcDbLine
 10
22.032646232352608
 20
5.329070518200751e-15
 30
0.0
 11
28.0217092262873
 21
5.329070518200751e-15
 31
0.0
  0
LINE
  5
137
330
1F
100
AcDbEntity
  8
0
100
AcDbLine
 10
28.0217092262873
 20
5.329070518200751e-15
 30
0.0
 11
28.0217092262873
 21
1.5000000000000053
 31
0.0
  0
LINE
  5
138
330
1F
100
AcDbEntity
  8
0
100
AcDbLine
 10
28.0217092262873
 20
1.5000000000000053
 30
0.0
 11
28.9467092262873
 21
1.5000000000000053
 31
0.0
  0
LINE
  5
139
330
1F
100
AcDbEntity
  8
0
100
AcDbLine
 10
28.9467092262873
 20
1.5000000000000053
 30
0.0
 11
28.9467092262873
 21
5.329070518200751e-15
 31
0.0
  0
LINE
  5
140
330
1F
100
AcDbEntity
  8
0
100
AcDbLine
 10
28.9467092262873
 20
5.329070518200751e-15
 30
0.0
 11
49.79741895962535
 21
5.329070518200751e-15
 31
0.0
  0
LINE
  5
141
330
1F
100
AcDbEntity
  8
0
100
AcDbLine
 10
49.79741895962535
 20
5.329070518200751e-15
 30
0.0
 11
49.79741895962534
 21
5.711363636363765
 31
0.0
  0
LINE
  5
142
330
1F
100
AcDbEntity
  8
0
100
AcDbLine
 10
49.79741895962534
 20
5.711363636363765
 30
0.0
 11
42.722418959625344
 21
5.711363636363765
 31
0.0
  0
LINE
  5
143
330
1F
100
AcDbEntity
  8
0
100
AcDbLine
 10
42.722418959625344
 20
5.711363636363765
 30
0.0
 11
42.722418959625344
 21
3.0750000000000046
 31
0.0
  0
LINE
  5
144
330
1F
100
AcDbEntity
  8
0
100
AcDbLine
 10
42.722418959625344
 20
3.0750000000000046
 30
0.0
 11
22.070146232352606
 21
3.0750000000000046
 31
0.0
  0
LINE
  5
145
330
1F
100
AcDbEntity
  8
0
100
AcDbLine
 10
22.07014623235261
 20
3.0750000000000046
 30
0.0
 11
22.07014623235261
 21
24.2727272727274
 31
0.0
  0
ARC
  5
1006F
330
1F
100
AcDbEntity
  8
0
100
AcDbCircle
 10
22.03264623235261
 20
61.02159090909111
 30
0.0
 40
3.037500000000003
100
AcDbArc
 50
132.12744039409344
 51
160.02782296911465
  0
LINE
  5
10070
330
1F
100
AcDbEntity
  8
0
100
AcDbLine
 10
19.177825747628596
 20
62.059090909091175
 30
0.0
 11
13.09855000359109
 21
62.05909090909117
 31
0.0
  0
ARC
  5
10071
330
1F
100
AcDbEntity
  8
0
100
AcDbCircle
 10
32.032646232352675
 20
61.02159090909115
 30
0.0
 40
18.962500000000105
100
AcDbArc
 50
157.62990127835297
 51
176.8635955465032
  0
ARC
  5
10072
330
1F
100
AcDbEntity
  8
0
100
AcDbCircle
 10
16.311985075327875
 20
67.49158416921236
 30
0.0
 40
1.9624999999999007
100
AcDbArc
 50
131.482446290569
 51
157.62990799447084
  0
ARC
  5
10073
330
1F
100
AcDbEntity
  8
0
100
AcDbCircle
 10
22.03264623235261
 20
61.02159090909111
 30
0.0
 40
10.5988636363637
100
AcDbArc
 50
101.08339626470237
 51
131.4825575275434
  0
LINE
  5
10074
330
1F
100
AcDbEntity
  8
0
100
AcDbLine
 10
19.99514623235261
 20
71.42276892565407
 30
0.0
 11
19.99514623235261
 21
63.274366974304876
 31
0.0
  0
ARC
  5
10075
330
1F
100
AcDbEntity
  8
0
100
AcDbCircle
 10
16.311985075327875
 20
67.49158416921236
 30
0.0
 40
4.962500000000038
100
AcDbArc
 50
135.7777202676227
 51
146.53528351212995
  0
LINE
  5
10076
330
1F
100
AcDbEntity
  8
0
100
AcDbLine
 10
12.755661767292814
 20
70.95264914674846
 30
0.0
 11
13.751461588138277
 21
69.95684932590297
 31
0.0
  0
LINE
  5
10077
330
1F
100
AcDbEntity
  8
0
100
AcDbLine
 10
13.751461588138277
 20
69.95684932590297
 30
0.0
 11
13.097387815540735
 21
69.30277555330542
 31
0.0
  0
LINE
  5
10078
330
1F
100
AcDbEntity
  8
0
100
AcDbLine
 10
13.097387815540735
 20
69.30277555330542
 30
0.0
 11
12.172140762840026
 21
70.22802260600615
 31
0.0
  0
LINE
  5
10079
330
1F
100
AcDbEntity
  8
0
100
AcDbLine
 10
13.645392569406233
 20
52.1924015110113
 30
0.0
 11
12.652637166510637
 21
51.199646108115715
 31
0.0
  0
LINE
  5
1007A
330
1F
100
AcDbEntity
  8
0
100
AcDbLine
 10
13.2034568342728
 20
52.63433724614474
 30
0.0
 11
13.645392569406233
 21
52.1924015110113
 31
0.0
  0
LINE
  5
1007B
330
1F
100
AcDbEntity
  8
0
100
AcDbLine
 10
12.258255819268076
 20
51.689136231140004
 30
0.0
 11
13.2034568342728
 21
52.63433724614474
 31
0.0
  0
ARC
  5
1007C
330
1F
100
AcDbEntity
  8
0
100
AcDbCircle
 10
16.311985075327968
 20
54.55159764897
 30
0.0
 40
4.962500000000122
100
AcDbArc
 50
-144.7729229076386
 51
-137.51041089775774
  0
ARC
  5
1007D
330
1F
100
AcDbEntity
  8
0
100
AcDbCircle
 10
22.03264623235261
 20
61.02159090909111
 30
0.0
 40
10.598863636363705
100
AcDbArc
 50
-131.4825904812454
 51
-101.08339626470243
  0
ARC
  5
1007E
330
1F
100
AcDbEntity
  8
0
100
AcDbCircle
 10
16.311985075327968
 20
54.55159764897
 30
0.0
 40
1.9625000000001334
100
AcDbArc
 50
-157.62990050313127
 51
-131.48262426345653
  0
ARC
  5
1007F
330
1F
100
AcDbEntity
  8
0
100
AcDbCircle
 10
32.032646232352675
 20
61.02159090909115
 30
0.0
 40
18.962500000000098
100
AcDbArc
 50
-176.86359554650332
 51
-157.6299005030463
  0
LINE
  5
10080
330
1F
100
AcDbEntity
  8
0
100
AcDbLine
 10
13.098550003591097
 20
59.98409090909117
 30
0.0
 11
19.177825747628553
 21
59.98409090909117
 31
0.0
  0
ARC
  5
10081
330
1F
100
AcDbEntity
  8
0
100
AcDbCircle
 10
22.03264623235261
 20
61.02159090909111
 30
0.0
 40
3.0374999999999996
100
AcDbArc
 50
-160.02782296911715
 51
-132.12744039409358
  0
LINE
  5
10082
330
1F
100
AcDbEntity
  8
0
100
AcDbLine
 10
19.99514623235261
 20
58.76881484387735
 30
0.0
 11
19.99514623235261
 21
50.62041289252814
 31
0.0
  0
LINE
  5
10083
330
1F
100
AcDbEntity
  8
0
100
AcDbLine
 10
28.9467092262873
 20
47.34772727272741
 30
0.0
 11
49.79741895962535
 21
47.34772727272741
 31
0.0
  0
LINE
  5
10084
330
1F
100
AcDbEntity
  8
0
100
AcDbLine
 10
49.79741895962535
 20
47.34772727272741
 30
0.0
 11
49.79741895962534
 21
53.05909090909117
 31
0.0
  0
LINE
  5
10085
330
1F
100
AcDbEntity
  8
0
100
AcDbLine
 10
49.79741895962534
 20
53.05909090909117
 30
0.0
 11
42.722418959625344
 21
53.05909090909117
 31
0.0
  0
LINE
  5
10086
330
1F
100
AcDbEntity
  8
0
100
AcDbLine
 10
42.722418959625344
 20
53.05909090909117
 30
0.0
 11
42.722418959625344
 21
50.422727272727414
 31
0.0
  0
LINE
  5
10087
330
1F
100
AcDbEntity
  8
0
100
AcDbLine
 10
42.722418959625344
 20
50.422727272727414
 30
0.0
 11
22.070146232352606
 21
50.422727272727414
 31
0.0
  0
LINE
  5
10088
330
1F
100
AcDbEntity
  8
0
100
AcDbLine
 10
22.07014623235261
 20
50.422727272727414
 30
0.0
 11
22.07014623235261
 21
71.6204545454548
 31
0.0
  0
LINE
  5
10089
330
1F
100
AcDbEntity
  8
0
100
AcDbLine
 10
22.07014623235261
 20
71.6204545454548
 30
0.0
 11
42.72241895962534
 21
71.6204545454548
 31
0.0
  0
LINE
  5
1008A
330
1F
100
AcDbEntity
  8
0
100
AcDbLine
 10
42.72241895962534
 20
71.6204545454548
 30
0.0
 11
42.722418959625344
 21
68.98409090909118
 31
0.0
  0
LINE
  5
1008B
330
1F
100
AcDbEntity
  8
0
100
AcDbLine
 10
42.722418959625344
 20
68.98409090909118
 30
0.0
 11
49.79741895962534
 21
68.98409090909118
 31
0.0
  0
LINE
  5
1008C
330
1F
100
AcDbEntity
  8
0
100
AcDbLine
 10
49.79741895962534
 20
68.98409090909118
 30
0.0
 11
49.79741895962534
 21
74.69545454545481
 31
0.0
  0
LINE
  5
1008D
330
1F
100
AcDbEntity
  8
0
100
AcDbLine
 10
49.79741895962534
 20
74.69545454545481
 30
0.0
 11
28.946709226287297
 21
74.69545454545481
 31
0.0
  0
LINE
  5
1008E
330
1F
100
AcDbEntity
  8
0
100
AcDbLine
 10
28.946709226287297
 20
74.69545454545481
 30
0.0
 11
28.9467092262873
 21
73.19545454545481
 31
0.0
  0
LINE
  5
1008F
330
1F
100
AcDbEntity
  8
0
100
AcDbLine
 10
28.9467092262873
 20
73.19545454545481
 30
0.0
 11
28.0217092262873
 21
73.19545454545481
 31
0.0
  0
LINE
  5
10090
330
1F
100
AcDbEntity
  8
0
100
AcDbLine
 10
28.0217092262873
 20
73.19545454545481
 30
0.0
 11
28.0217092262873
 21
74.69545454545481
 31
0.0
  0
LINE
  5
10091
330
1F
100
AcDbEntity
  8
0
100
AcDbLine
 10
28.0217092262873
 20
74.69545454545481
 30
0.0
 11
22.03264623235261
 21
74.69545454545481
 31
0.0
  0
ARC
  5
10092
330
1F
100
AcDbEntity
  8
0
100
AcDbCircle
 10
22.03264623235261
 20
61.02159090909111
 30
0.0
 40
13.673863636363702
100
AcDbArc
 50
89.99999999999999
 51
136.59243846849736
  0
ARC
  5
10093
330
1F
100
AcDbEntity
  8
0
100
AcDbCircle
 10
32.032646232352675
 20
61.02159090909115
 30
0.0
 40
22.037500000000023
100
AcDbArc
 50
154.7616604013845
 51
178.79744781896053
  0
LINE
  5
10094
330
1F
100
AcDbEntity
  8
0
100
AcDbLine
 10
10.000000000000085
 20
61.484090909091165
 30
0.0
 11
11.368807398345076
 21
61.484090909091165
 31
0.0
  0
ARC
  5
10095
330
1F
100
AcDbEntity
  8
0
100
AcDbCircle
 10
22.03264623235261
 20
61.02159090909111
 30
0.0
 40
10.673863636363697
100
AcDbArc
 50
177.51658836782678
 51
-177.51658836782738
  0
LINE
  5
10096
330
1F
100
AcDbEntity
  8
0
100
AcDbLine
 10
11.36880739834507
 20
60.55909090909117
 30
0.0
 11
10.000000000000007
 21
60.55909090909117
 31
0.0
  0
ARC
  5
10097
330
1F
100
AcDbEntity
  8
0
100
AcDbCircle
 10
32.032646232352675
 20
61.02159090909115
 30
0.0
 40
22.037500000000104
100
AcDbArc
 50
-178.7974478189605
 51
-154.76166040138463
  0
ARC
  5
10098
330
1F
100
AcDbEntity
  8
0
100
AcDbCircle
 10
22.03264623235261
 20
61.02159090909111
 30
0.0
 40
13.673863636363704
100
AcDbArc
 50
-136.59243846849793
 51
-90.00000000000001
  0
LINE
  5
10099
330
1F
100
AcDbEntity
  8
0
100
AcDbLine
 10
22.032646232352608
 20
47.34772727272741
 30
0.0
 11
28.0217092262873
 21
47.34772727272741
 31
0.0
  0
LINE
  5
1009A
330
1F
100
AcDbEntity
  8
0
100
AcDbLine
 10
28.0217092262873
 20
47.34772727272741
 30
0.0
 11
28.0217092262873
 21
48.84772727272741
 31
0.0
  0
LINE
  5
1009B
330
1F
100
AcDbEntity
  8
0
100
AcDbLine
 10
28.0217092262873
 20
48.84772727272741
 30
0.0
 11
28.9467092262873
 21
48.84772727272741
 31
0.0
  0
LINE
  5
1009C
330
1F
100
AcDbEntity
  8
0
100
AcDbLine
 10
28.9467092262873
 20
48.84772727272741
 30
0.0
 11
28.9467092262873
 21
47.34772727272741
 31
0.0
  0
ARC
  5
1009D
330
1F
100
AcDbEntity
  8
0
100
AcDbCircle
 10
32.032646232352675
 20
108.36931818181856
 30
0.0
 40
18.962500000000105
100
AcDbArc
 50
157.62990127835297
 51
176.8635955465032
  0
ARC
  5
1009E
330
1F
100
AcDbEntity
  8
0
100
AcDbCircle
 10
16.311985075327875
 20
114.83931144193977
 30
0.0
 40
1.9624999999999007
100
AcDbArc
 50
131.482446290569
 51
157.62990799447084
  0
ARC
  5
1009F
330
1F
100
AcDbEntity
  8
0
100
AcDbCircle
 10
22.03264623235261
 20
108.36931818181851
 30
0.0
 40
10.5988636363637
100
AcDbArc
 50
101.08339626470237
 51
131.4825575275434
  0
LINE
  5
100A0
330
1F
100
AcDbEntity
  8
0
100
AcDbLine
 10
19.99514623235261
 20
118.77049619838148
 30
0.0
 11
19.99514623235261
 21
110.62209424703228
 31
0.0
  0
ARC
  5
100A1
330
1F
100
AcDbEntity
  8
0
100
AcDbCircle
 10
22.03264623235261
 20
108.36931818181851
 30
0.0
 40
3.037500000000003
100
AcDbArc
 50
132.12744039409344
 51
160.02782296911465
  0
LINE
  5
100A2
330
1F
100
AcDbEntity
  8
0
100
AcDbLine
 10
19.177825747628596
 20
109.40681818181858
 30
0.0
 11
13.09855000359109
 21
109.40681818181858
 31
0.0
  0
ARC
  5
100A3
330
1F
100
AcDbEntity
  8
0
100
AcDbCircle
 10
16.311985075327875
 20
114.83931144193977
 30
0.0
 40
4.962500000000038
100
AcDbArc
 50
135.7777202676227
 51
146.53528351212995
  0
LINE
  5
100A4
330
1F
100
AcDbEntity
  8
0
100
AcDbLine
 10
12.755661767292814
 20
118.30037641947587
 30
0.0
 11
13.751461588138277
 21
117.30457659863038
 31
0.0
  0
LINE
  5
100A5
330
1F
100
AcDbEntity
  8
0
100
AcDbLine
 10
13.751461588138277
 20
117.30457659863038
 30
0.0
 11
13.097387815540735
 21
116.65050282603282
 31
0.0
  0
LINE
  5
100A6
330
1F
100
AcDbEntity
  8
0
100
AcDbLine
 10
13.097387815540735
 20
116.65050282603282
 30
0.0
 11
12.172140762840026
 21
117.57574987873355
 31
0.0
  0
LINE
  5
100A7
330
1F
100
AcDbEntity
  8
0
100
AcDbLine
 10
13.645392569406233
 20
99.54012878373871
 30
0.0
 11
12.652637166510637
 21
98.54737338084311
 31
0.0
  0
LINE
  5
100A8
330
1F
100
AcDbEntity
  8
0
100
AcDbLine
 10
13.2034568342728
 20
99.98206451887214
 30
0.0
 11
13.645392569406233
 21
99.54012878373871
 31
0.0
  0
LINE
  5
100A9
330
1F
100
AcDbEntity
  8
0
100
AcDbLine
 10
12.258255819268076
 20
99.03686350386741
 30
0.0
 11
13.2034568342728
 21
99.98206451887214
 31
0.0
  0
ARC
  5
100AA
330
1F
100
AcDbEntity
  8
0
100
AcDbCircle
 10
16.311985075327968
 20
101.89932492169741
 30
0.0
 40
4.962500000000122
100
AcDbArc
 50
-144.7729229076386
 51
-137.51041089775774
  0
LINE
  5
100AB
330
1F
100
AcDbEntity
  8
0
100
AcDbLine
 10
19.99514623235261
 20
106.11654211660476
 30
0.0
 11
19.99514623235261
 21
97.96814016525553
 31
0.0
  0
ARC
  5
100AC
330
1F
100
AcDbEntity
  8
0
100
AcDbCircle
 10
22.03264623235261
 20
108.36931818181851
 30
0.0
 40
10.598863636363705
100
AcDbArc
 50
-131.4825904812454
 51
-101.08339626470243
  0
ARC
  5
100AD
330
1F
100
AcDbEntity
  8
0
100
AcDbCircle
 10
16.311985075327968
 20
101.89932492169741
 30
0.0
 40
1.9625000000001334
100
AcDbArc
 50
-157.62990050313127
 51
-131.48262426345653
  0
ARC
  5
100AE
330
1F
100
AcDbEntity
  8
0
100
AcDbCircle
 10
32.032646232352675
 20
108.36931818181856
 30
0.0
 40
18.962500000000098
100
AcDbArc
 50
-176.86359554650332
 51
-157.6299005030463
  0
LINE
  5
100AF
330
1F
100
AcDbEntity
  8
0
100
AcDbLine
 10
13.098550003591097
 20
107.33181818181858
 30
0.0
 11
19.177825747628553
 21
107.33181818181858
 31
0.0
  0
ARC
  5
100B0
330
1F
100
AcDbEntity
  8
0
100
AcDbCircle
 10
22.03264623235261
 20
108.36931818181851
 30
0.0
 40
3.0374999999999996
100
AcDbArc
 50
-160.02782296911715
 51
-132.12744039409358
  0
LINE
  5
100B1
330
1F
100
AcDbEntity
  8
0
100
AcDbLine
 10
28.0217092262873
 20
96.19545454545482
 30
0.0
 11
28.9467092262873
 21
96.19545454545482
 31
0.0
  0
LINE
  5
100B2
330
1F
100
AcDbEntity
  8
0
100
AcDbLine
 10
28.9467092262873
 20
96.19545454545482
 30
0.0
 11
28.9467092262873
 21
94.69545454545482
 31
0.0
  0
LINE
  5
100B3
330
1F
100
AcDbEntity
  8
0
100
AcDbLine
 10
28.9467092262873
 20
94.69545454545482
 30
0.0
 11
49.79741895962535
 21
94.69545454545482
 31
0.0
  0
LINE
  5
100B4
330
1F
100
AcDbEntity
  8
0
100
AcDbLine
 10
49.79741895962535
 20
94.69545454545482
 30
0.0
 11
49.79741895962534
 21
100.40681818181858
 31
0.0
  0
LINE
  5
100B5
330
1F
100
AcDbEntity
  8
0
100
AcDbLine
 10
49.79741895962534
 20
100.40681818181858
 30
0.0
 11
42.722418959625344
 21
100.40681818181858
 31
0.0
  0
LINE
  5
100B6
330
1F
100
AcDbEntity
  8
0
100
AcDbLine
 10
42.722418959625344
 20
100.40681818181858
 30
0.0
 11
42.722418959625344
 21
97.77045454545481
 31
0.0
  0
LINE
  5
100B7
330
1F
100
AcDbEntity
  8
0
100
AcDbLine
 10
42.722418959625344
 20
97.77045454545481
 30
0.0
 11
22.070146232352606
 21
97.77045454545481
 31
0.0
  0
LINE
  5
100B8
330
1F
100
AcDbEntity
  8
0
100
AcDbLine
 10
22.07014623235261
 20
97.77045454545481
 30
0.0
 11
22.07014623235261
 21
118.96818181818222
 31
0.0
  0
LINE
  5
100B9
330
1F
100
AcDbEntity
  8
0
100
AcDbLine
 10
22.07014623235261
 20
118.96818181818222
 30
0.0
 11
42.72241895962534
 21
118.96818181818222
 31
0.0
  0
LINE
  5
100BA
330
1F
100
AcDbEntity
  8
0
100
AcDbLine
 10
42.72241895962534
 20
118.96818181818222
 30
0.0
 11
42.722418959625344
 21
116.33181818181858
 31
0.0
  0
LINE
  5
100BB
330
1F
100
AcDbEntity
  8
0
100
AcDbLine
 10
42.722418959625344
 20
116.33181818181858
 30
0.0
 11
49.79741895962534
 21
116.33181818181858
 31
0.0
  0
LINE
  5
100BC
330
1F
100
AcDbEntity
  8
0
100
AcDbLine
 10
49.79741895962534
 20
116.33181818181858
 30
0.0
 11
49.79741895962534
 21
122.0431818181822
 31
0.0
  0
LINE
  5
100BD
330
1F
100
AcDbEntity
  8
0
100
AcDbLine
 10
49.79741895962534
 20
122.0431818181822
 30
0.0
 11
28.946709226287297
 21
122.0431818181822
 31
0.0
  0
LINE
  5
100BE
330
1F
100
AcDbEntity
  8
0
100
AcDbLine
 10
28.946709226287297
 20
122.0431818181822
 30
0.0
 11
28.9467092262873
 21
120.5431818181822
 31
0.0
  0
LINE
  5
100BF
330
1F
100
AcDbEntity
  8
0
100
AcDbLine
 10
28.9467092262873
 20
120.5431818181822
 30
0.0
 11
28.0217092262873
 21
120.5431818181822
 31
0.0
  0
LINE
  5
100C0
330
1F
100
AcDbEntity
  8
0
100
AcDbLine
 10
28.0217092262873
 20
120.5431818181822
 30
0.0
 11
28.0217092262873
 21
122.0431818181822
 31
0.0
  0
LINE
  5
100C1
330
1F
100
AcDbEntity
  8
0
100
AcDbLine
 10
28.0217092262873
 20
122.0431818181822
 30
0.0
 11
22.03264623235261
 21
122.04318181818222
 31
0.0
  0
ARC
  5
100C2
330
1F
100
AcDbEntity
  8
0
100
AcDbCircle
 10
22.03264623235261
 20
108.36931818181851
 30
0.0
 40
13.673863636363702
100
AcDbArc
 50
89.99999999999999
 51
136.59243846849736
  0
ARC
  5
100C3
330
1F
100
AcDbEntity
  8
0
100
AcDbCircle
 10
32.032646232352675
 20
108.36931818181856
 30
0.0
 40
22.037500000000023
100
AcDbArc
 50
154.7616604013845
 51
178.79744781896053
  0
LINE
  5
100C4
330
1F
100
AcDbEntity
  8
0
100
AcDbLine
 10
10.000000000000085
 20
108.83181818181858
 30
0.0
 11
11.368807398345076
 21
108.83181818181858
 31
0.0
  0
ARC
  5
100C5
330
1F
100
AcDbEntity
  8
0
100
AcDbCircle
 10
22.03264623235261
 20
108.36931818181851
 30
0.0
 40
10.673863636363697
100
AcDbArc
 50
177.51658836782678
 51
-177.51658836782738
  0
LINE
  5
100C6
330
1F
100
AcDbEntity
  8
0
100
AcDbLine
 10
11.36880739834507
 20
107.90681818181858
 30
0.0
 11
10.000000000000007
 21
107.90681818181858
 31
0.0
  0
ARC
  5
100C7
330
1F
100
AcDbEntity
  8
0
100
AcDbCircle
 10
32.032646232352675
 20
108.36931818181856
 30
0.0
 40
22.037500000000104
100
AcDbArc
 50
-178.7974478189605
 51
-154.76166040138463
  0
ARC
  5
100C8
330
1F
100
AcDbEntity
  8
0
100
AcDbCircle
 10
22.03264623235261
 20
108.36931818181851
 30
0.0
 40
13.673863636363704
100
AcDbArc
 50
-136.59243846849793
 51
-90.00000000000001
  0
LINE
  5
100C9
330
1F
100
AcDbEntity
  8
0
100
AcDbLine
 10
22.032646232352608
 20
94.69545454545482
 30
0.0
 11
28.0217092262873
 21
94.69545454545482
 31
0.0
  0
LINE
  5
100CA
330
1F
100
AcDbEntity
  8
0
100
AcDbLine
 10
28.0217092262873
 20
94.69545454545482
 30
0.0
 11
28.0217092262873
 21
96.19545454545482
 31
0.0
  0
ARC
  5
100CB
330
1F
100
AcDbEntity
  8
0
100
AcDbCircle
 10
32.032646232352675
 20
155.71704545454597
 30
0.0
 40
18.962500000000105
100
AcDbArc
 50
157.62990127835297
 51
176.8635955465032
  0
ARC
  5
100CC
330
1F
100
AcDbEntity
  8
0
100
AcDbCircle
 10
16.311985075327875
 20
162.18703871466715
 30
0.0
 40
1.9624999999999007
100
AcDbArc
 50
131.482446290569
 51
157.62990799447084
  0
ARC
  5
100CD
330
1F
100
AcDbEntity
  8
0
100
AcDbCircle
 10
22.03264623235261
 20
155.7170454545459
 30
0.0
 40
10.5988636363637
100
AcDbArc
 50
101.08339626470237
 51
131.4825575275434
  0
LINE
  5
100CE
330
1F
100
AcDbEntity
  8
0
100
AcDbLine
 10
19.99514623235261
 20
166.11822347110888
 30
0.0
 11
19.99514623235261
 21
157.96982151975968
 31
0.0
  0
ARC
  5
100CF
330
1F
100
AcDbEntity
  8
0
100
AcDbCircle
 10
22.03264623235261
 20
155.7170454545459
 30
0.0
 40
3.037500000000003
100
AcDbArc
 50
132.12744039409344
 51
160.02782296911465
  0
LINE
  5
100D0
330
1F
100
AcDbEntity
  8
0
100
AcDbLine
 10
19.177825747628596
 20
156.75454545454596
 30
0.0
 11
13.09855000359109
 21
156.75454545454596
 31
0.0
  0
ARC
  5
100D1
330
1F
100
AcDbEntity
  8
0
100
AcDbCircle
 10
16.311985075327875
 20
162.18703871466715
 30
0.0
 40
4.962500000000038
100
AcDbArc
 50
135.7777202676227
 51
146.53528351212995
  0
LINE
  5
100D2
330
1F
100
AcDbEntity
  8
0
100
AcDbLine
 10
12.755661767292814
 20
165.64810369220325
 30
0.0
 11
13.751461588138277
 21
164.65230387135776
 31
0.0
  0
LINE
  5
100D3
330
1F
100
AcDbEntity
  8
0
100
AcDbLine
 10
13.751461588138277
 20
164.65230387135776
 30
0.0
 11
13.097387815540735
 21
163.99823009876022
 31
0.0
  0
LINE
  5
100D4
330
1F
100
AcDbEntity
  8
0
100
AcDbLine
 10
13.097387815540735
 20
163.99823009876022
 30
0.0
 11
12.172140762840026
 21
164.92347715146096
 31
0.0
  0
LINE
  5
100D5
330
1F
100
AcDbEntity
  8
0
100
AcDbLine
 10
13.645392569406233
 20
146.8878560564661
 30
0.0
 11
12.652637166510637
 21
145.89510065357052
 31
0.0
  0
LINE
  5
100D6
330
1F
100
AcDbEntity
  8
0
100
AcDbLine
 10
13.2034568342728
 20
147.32979179159955
 30
0.0
 11
13.645392569406233
 21
146.8878560564661
 31
0.0
  0
LINE
  5
100D7
330
1F
100
AcDbEntity
  8
0
100
AcDbLine
 10
12.258255819268076
 20
146.3845907765948
 30
0.0
 11
13.2034568342728
 21
147.32979179159955
 31
0.0
  0
ARC
  5
100D8
330
1F
100
AcDbEntity
  8
0
100
AcDbCircle
 10
16.311985075327968
 20
149.2470521944248
 30
0.0
 40
4.962500000000122
100
AcDbArc
 50
-144.7729229076386
 51
-137.51041089775774
  0
ARC
  5
100D9
330
1F
100
AcDbEntity
  8
0
100
AcDbCircle
 10
22.03264623235261
 20
155.7170454545459
 30
0.0
 40
10.598863636363705
100
AcDbArc
 50
-131.4825904812454
 51
-101.08339626470243
  0
ARC
  5
100DA
330
1F
100
AcDbEntity
  8
0
100
AcDbCircle
 10
16.311985075327968
 20
149.2470521944248
 30
0.0
 40
1.9625000000001334
100
AcDbArc
 50
-157.62990050313127
 51
-131.48262426345653
  0
ARC
  5
100DB
330
1F
100
AcDbEntity
  8
0
100
AcDbCircle
 10
32.032646232352675
 20
155.71704545454597
 30
0.0
 40
18.962500000000098
100
AcDbArc
 50
-176.86359554650332
 51
-157.6299005030463
  0
LINE
  5
100DC
330
1F
100
AcDbEntity
  8
0
100
AcDbLine
 10
13.098550003591097
 20
154.67954545454597
 30
0.0
 11
19.177825747628553
 21
154.67954545454597
 31
0.0
  0
ARC
  5
100DD
330
1F
100
AcDbEntity
  8
0
100
AcDbCircle
 10
22.03264623235261
 20
155.7170454545459
 30
0.0
 40
3.0374999999999996
100
AcDbArc
 50
-160.02782296911715
 51
-132.12744039409358
  0
LINE
  5
100DE
330
1F
100
AcDbEntity
  8
0
100
AcDbLine
 10
19.99514623235261
 20
153.46426938933215
 30
0.0
 11
19.99514623235261
 21
145.31586743798294
 31
0.0
  0
LINE
  5
100DF
330
1F
100
AcDbEntity
  8
0
100
AcDbLine
 10
28.9467092262873
 20
142.0431818181822
 30
0.0
 11
49.79741895962535
 21
142.0431818181822
 31
0.0
  0
LINE
  5
100E0
330
1F
100
AcDbEntity
  8
0
100
AcDbLine
 10
49.79741895962535
 20
142.0431818181822
 30
0.0
 11
49.79741895962534
 21
147.75454545454596
 31
0.0
  0
LINE
  5
100E1
330
1F
100
AcDbEntity
  8
0
100
AcDbLine
 10
49.79741895962534
 20
147.75454545454596
 30
0.0
 11
42.722418959625344
 21
147.75454545454596
 31
0.0
  0
LINE
  5
100E2
330
1F
100
AcDbEntity
  8
0
100
AcDbLine
 10
42.722418959625344
 20
147.75454545454596
 30
0.0
 11
42.722418959625344
 21
145.11818181818222
 31
0.0
  0
LINE
  5
100E3
330
1F
100
AcDbEntity
  8
0
100
AcDbLine
 10
42.722418959625344
 20
145.11818181818222
 30
0.0
 11
22.070146232352606
 21
145.11818181818222
 31
0.0
  0
LINE
  5
100E4
330
1F
100
AcDbEntity
  8
0
100
AcDbLine
 10
22.07014623235261
 20
145.11818181818222
 30
0.0
 11
22.07014623235261
 21
166.3159090909096
 31
0.0
  0
LINE
  5
100E5
330
1F
100
AcDbEntity
  8
0
100
AcDbLine
 10
22.07014623235261
 20
166.3159090909096
 30
0.0
 11
42.72241895962534
 21
166.3159090909096
 31
0.0
  0
LINE
  5
100E6
330
1F
100
AcDbEntity
  8
0
100
AcDbLine
 10
42.72241895962534
 20
166.3159090909096
 30
0.0
 11
42.722418959625344
 21
163.67954545454597
 31
0.0
  0
LINE
  5
100E7
330
1F
100
AcDbEntity
  8
0
100
AcDbLine
 10
42.722418959625344
 20
163.67954545454597
 30
0.0
 11
49.79741895962534
 21
163.67954545454597
 31
0.0
  0
LINE
  5
100E8
330
1F
100
AcDbEntity
  8
0
100
AcDbLine
 10
49.79741895962534
 20
163.67954545454597
 30
0.0
 11
49.79741895962534
 21
169.39090909090962
 31
0.0
  0
LINE
  5
100E9
330
1F
100
AcDbEntity
  8
0
100
AcDbLine
 10
49.79741895962534
 20
169.39090909090962
 30
0.0
 11
28.946709226287297
 21
169.39090909090962
 31
0.0
  0
LINE
  5
100EA
330
1F
100
AcDbEntity
  8
0
100
AcDbLine
 10
28.946709226287297
 20
169.39090909090962
 30
0.0
 11
28.9467092262873
 21
167.89090909090962
 31
0.0
  0
LINE
  5
100EB
330
1F
100
AcDbEntity
  8
0
100
AcDbLine
 10
28.9467092262873
 20
167.89090909090962
 30
0.0
 11
28.0217092262873
 21
167.89090909090962
 31
0.0
  0
LINE
  5
100EC
330
1F
100
AcDbEntity
  8
0
100
AcDbLine
 10
28.0217092262873
 20
167.89090909090962
 30
0.0
 11
28.0217092262873
 21
169.39090909090962
 31
0.0
  0
LINE
  5
100ED
330
1F
100
AcDbEntity
  8
0
100
AcDbLine
 10
28.0217092262873
 20
169.39090909090962
 30
0.0
 11
22.03264623235261
 21
169.39090909090962
 31
0.0
  0
ARC
  5
100EE
330
1F
100
AcDbEntity
  8
0
100
AcDbCircle
 10
22.03264623235261
 20
155.7170454545459
 30
0.0
 40
13.673863636363702
100
AcDbArc
 50
89.99999999999999
 51
136.59243846849736
  0
ARC
  5
100EF
330
1F
100
AcDbEntity
  8
0
100
AcDbCircle
 10
32.032646232352675
 20
155.71704545454597
 30
0.0
 40
22.037500000000023
100
AcDbArc
 50
154.7616604013845
 51
178.79744781896053
  0
LINE
  5
100F0
330
1F
100
AcDbEntity
  8
0
100
AcDbLine
 10
10.000000000000085
 20
156.17954545454597
 30
0.0
 11
11.368807398345076
 21
156.17954545454597
 31
0.0
  0
ARC
  5
100F1
330
1F
100
AcDbEntity
  8
0
100
AcDbCircle
 10
22.03264623235261
 20
155.7170454545459
 30
0.0
 40
10.673863636363697
100
AcDbArc
 50
177.51658836782678
 51
-177.51658836782738
  0
LINE
  5
100F2
330
1F
100
AcDbEntity
  8
0
100
AcDbLine
 10
11.36880739834507
 20
155.25454545454596
 30
0.0
 11
10.000000000000007
 21
155.25454545454596
 31
0.0
  0
ARC
  5
100F3
330
1F
100
AcDbEntity
  8
0
100
AcDbCircle
 10
32.032646232352675
 20
155.71704545454597
 30
0.0
 40
22.037500000000104
100
AcDbArc
 50
-178.7974478189605
 51
-154.76166040138463
  0
ARC
  5
100F4
330
1F
100
AcDbEntity
  8
0
100
AcDbCircle
 10
22.03264623235261
 20
155.7170454545459
 30
0.0
 40
13.673863636363704
100
AcDbArc
 50
-136.59243846849793
 51
-90.00000000000001
  0
LINE
  5
100F5
330
1F
100
AcDbEntity
  8
0
100
AcDbLine
 10
22.032646232352608
 20
142.0431818181822
 30
0.0
 11
28.0217092262873
 21
142.0431818181822
 31
0.0
  0
LINE
  5
100F6
330
1F
100
AcDbEntity
  8
0
100
AcDbLine
 10
28.0217092262873
 20
142.0431818181822
 30
0.0
 11
28.0217092262873
 21
143.5431818181822
 31
0.0
  0
LINE
  5
100F7
330
1F
100
AcDbEntity
  8
0
100
AcDbLine
 10
28.0217092262873
 20
143.5431818181822
 30
0.0
 11
28.9467092262873
 21
143.5431818181822
 31
0.0
  0
LINE
  5
100F8
330
1F
100
AcDbEntity
  8
0
100
AcDbLine
 10
28.9467092262873
 20
143.5431818181822
 30
0.0
 11
28.9467092262873
 21
142.0431818181822
 31
0.0
  0
ARC
  5
100F9
330
1F
100
AcDbEntity
  8
0
100
AcDbCircle
 10
22.03264623235261
 20
203.06477272727332
 30
0.0
 40
3.037500000000003
100
AcDbArc
 50
132.12744039409344
 51
160.02782296911465
  0
LINE
  5
100FA
330
1F
100
AcDbEntity
  8
0
100
AcDbLine
 10
19.177825747628596
 20
204.10227272727337
 30
0.0
 11
13.09855000359109
 21
204.10227272727337
 31
0.0
  0
ARC
  5
100FB
330
1F
100
AcDbEntity
  8
0
100
AcDbCircle
 10
32.032646232352675
 20
203.06477272727338
 30
0.0
 40
18.962500000000105
100
AcDbArc
 50
157.62990127835297
 51
176.8635955465032
  0
ARC
  5
100FC
330
1F
100
AcDbEntity
  8
0
100
AcDbCircle
 10
16.311985075327875
 20
209.53476598739456
 30
0.0
 40
1.9624999999999007
100
AcDbArc
 50
131.482446290569
 51
157.62990799447084
  0
ARC
  5
100FD
330
1F
100
AcDbEntity
  8
0
100
AcDbCircle
 10
22.03264623235261
 20
203.06477272727332
 30
0.0
 40
10.5988636363637
100
AcDbArc
 50
101.08339626470237
 51
131.4825575275434
  0
LINE
  5
100FE
330
1F
100
AcDbEntity
  8
0
100
AcDbLine
 10
19.99514623235261
 20
213.4659507438363
 30
0.0
 11
19.99514623235261
 21
205.3175487924871
 31
0.0
  0
LINE
  5
100FF
330
1F
100
AcDbEntity
  8
0
100
AcDbLine
 10
13.751461588138277
 20
212.00003114408517
 30
0.0
 11
13.097387815540735
 21
211.34595737148763
 31
0.0
  0
LINE
  5
10100
330
1F
100
AcDbEntity
  8
0
100
AcDbLine
 10
12.755661767292814
 20
212.99583096493066
 30
0.0
 11
13.751461588138277
 21
212.00003114408517
 31
0.0
  0
ARC
  5
10101
330
1F
100
AcDbEntity
  8
0
100
AcDbCircle
 10
16.311985075327875
 20
209.53476598739456
 30
0.0
 40
4.962500000000038
100
AcDbArc
 50
135.7777202676227
 51
146.53528351212995
  0
LINE
  5
10102
330
1F
100
AcDbEntity
  8
0
100
AcDbLine
 10
13.097387815540735
 20
211.34595737148763
 30
0.0
 11
12.172140762840026
 21
212.27120442418837
 31
0.0
  0
LINE
  5
10103
330
1F
100
AcDbEntity
  8
0
100
AcDbLine
 10
13.645392569406233
 20
194.2355833291935
 30
0.0
 11
12.652637166510637
 21
193.24282792629793
 31
0.0
  0
ARC
  5
10104
330
1F
100
AcDbEntity
  8
0
100
AcDbCircle
 10
16.311985075327968
 20
196.59477946715222
 30
0.0
 40
4.962500000000122
100
AcDbArc
 50
-144.7729229076386
 51
-137.51041089775774
  0
LINE
  5
10105
330
1F
100
AcDbEntity
  8
0
100
AcDbLine
 10
12.258255819268076
 20
193.7323180493222
 30
0.0
 11
13.2034568342728
 21
194.67751906432696
 31
0.0
  0
LINE
  5
10106
330
1F
100
AcDbEntity
  8
0
100
AcDbLine
 10
13.2034568342728
 20
194.67751906432696
 30
0.0
 11
13.645392569406233
 21
194.2355833291935
 31
0.0
  0
ARC
  5
10107
330
1F
100
AcDbEntity
  8
0
100
AcDbCircle
 10
22.03264623235261
 20
203.06477272727332
 30
0.0
 40
10.598863636363705
100
AcDbArc
 50
-131.4825904812454
 51
-101.08339626470243
  0
ARC
  5
10108
330
1F
100
AcDbEntity
  8
0
100
AcDbCircle
 10
16.311985075327968
 20
196.59477946715222
 30
0.0
 40
1.9625000000001334
100
AcDbArc
 50
-157.62990050313127
 51
-131.48262426345653
  0
ARC
  5
10109
330
1F
100
AcDbEntity
  8
0
100
AcDbCircle
 10
32.032646232352675
 20
203.06477272727338
 30
0.0
 40
18.962500000000098
100
AcDbArc
 50
-176.86359554650332
 51
-157.6299005030463
  0
LINE
  5
1010A
330
1F
100
AcDbEntity
  8
0
100
AcDbLine
 10
13.098550003591097
 20
202.02727272727338
 30
0.0
 11
19.177825747628553
 21
202.02727272727338
 31
0.0
  0
ARC
  5
1010B
330
1F
100
AcDbEntity
  8
0
100
AcDbCircle
 10
22.03264623235261
 20
203.06477272727332
 30
0.0
 40
3.0374999999999996
100
AcDbArc
 50
-160.02782296911715
 51
-132.12744039409358
  0
LINE
  5
1010C
330
1F
100
AcDbEntity
  8
0
100
AcDbLine
 10
19.99514623235261
 20
200.81199666205956
 30
0.0
 11
19.99514623235261
 21
192.66359471071036
 31
0.0
  0
LINE
  5
1010D
330
1F
100
AcDbEntity
  8
0
100
AcDbLine
 10
28.9467092262873
 20
190.89090909090962
 30
0.0
 11
28.9467092262873
 21
189.39090909090962
 31
0.0
  0
LINE
  5
1010E
330
1F
100
AcDbEntity
  8
0
100
AcDbLine
 10
28.9467092262873
 20
189.39090909090962
 30
0.0
 11
49.79741895962535
 21
189.39090909090962
 31
0.0
  0
LINE
  5
1010F
330
1F
100
AcDbEntity
  8
0
100
AcDbLine
 10
49.79741895962535
 20
189.39090909090962
 30
0.0
 11
49.79741895962534
 21
195.10227272727337
 31
0.0
  0
LINE
  5
10110
330
1F
100
AcDbEntity
  8
0
100
AcDbLine
 10
49.79741895962534
 20
195.10227272727337
 30
0.0
 11
42.722418959625344
 21
195.10227272727337
 31
0.0
  0
LINE
  5
10111
330
1F
100
AcDbEntity
  8
0
100
AcDbLine
 10
42.722418959625344
 20
195.10227272727337
 30
0.0
 11
42.722418959625344
 21
192.46590909090963
 31
0.0
  0
LINE
  5
10112
330
1F
100
AcDbEntity
  8
0
100
AcDbLine
 10
42.722418959625344
 20
192.46590909090963
 30
0.0
 11
22.070146232352606
 21
192.46590909090963
 31
0.0
  0
LINE
  5
10113
330
1F
100
AcDbEntity
  8
0
100
AcDbLine
 10
22.07014623235261
 20
192.46590909090963
 30
0.0
 11
22.07014623235261
 21
213.663636363637
 31
0.0
  0
LINE
  5
10114
330
1F
100
AcDbEntity
  8
0
100
AcDbLine
 10
22.07014623235261
 20
213.663636363637
 30
0.0
 11
42.72241895962534
 21
213.663636363637
 31
0.0
  0
LINE
  5
10115
330
1F
100
AcDbEntity
  8
0
100
AcDbLine
 10
42.72241895962534
 20
213.663636363637
 30
0.0
 11
42.722418959625344
 21
211.02727272727338
 31
0.0
  0
LINE
  5
10116
330
1F
100
AcDbEntity
  8
0
100
AcDbLine
 10
42.722418959625344
 20
211.02727272727338
 30
0.0
 11
49.79741895962534
 21
211.02727272727338
 31
0.0
  0
LINE
  5
10117
330
1F
100
AcDbEntity
  8
0
100
AcDbLine
 10
49.79741895962534
 20
211.02727272727338
 30
0.0
 11
49.79741895962534
 21
216.73863636363703
 31
0.0
  0
LINE
  5
10118
330
1F
100
AcDbEntity
  8
0
100
AcDbLine
 10
49.79741895962534
 20
216.73863636363703
 30
0.0
 11
28.946709226287297
 21
216.73863636363703
 31
0.0
  0
LINE
  5
10119
330
1F
100
AcDbEntity
  8
0
100
AcDbLine
 10
28.946709226287297
 20
216.73863636363703
 30
0.0
 11
28.9467092262873
 21
215.23863636363703
 31
0.0
  0
LINE
  5
1011A
330
1F
100
AcDbEntity
  8
0
100
AcDbLine
 10
28.9467092262873
 20
215.23863636363703
 30
0.0
 11
28.0217092262873
 21
215.23863636363703
 31
0.0
  0
LINE
  5
1011B
330
1F
100
AcDbEntity
  8
0
100
AcDbLine
 10
28.0217092262873
 20
215.23863636363703
 30
0.0
 11
28.0217092262873
 21
216.73863636363703
 31
0.0
  0
LINE
  5
1011C
330
1F
100
AcDbEntity
  8
0
100
AcDbLine
 10
28.0217092262873
 20
216.73863636363703
 30
0.0
 11
22.03264623235261
 21
216.73863636363703
 31
0.0
  0
ARC
  5
1011D
330
1F
100
AcDbEntity
  8
0
100
AcDbCircle
 10
22.03264623235261
 20
203.06477272727332
 30
0.0
 40
13.673863636363702
100
AcDbArc
 50
89.99999999999999
 51
136.59243846849736
  0
ARC
  5
1011E
330
1F
100
AcDbEntity
  8
0
100
AcDbCircle
 10
32.032646232352675
 20
203.06477272727338
 30
0.0
 40
22.037500000000023
100
AcDbArc
 50
154.7616604013845
 51
178.79744781896053
  0
LINE
  5
1011F
330
1F
100
AcDbEntity
  8
0
100
AcDbLine
 10
10.000000000000085
 20
203.52727272727338
 30
0.0
 11
11.368807398345076
 21
203.52727272727338
 31
0.0
  0
ARC
  5
10120
330
1F
100
AcDbEntity
  8
0
100
AcDbCircle
 10
22.03264623235261
 20
203.06477272727332
 30
0.0
 40
10.673863636363697
100
AcDbArc
 50
177.51658836782678
 51
-177.51658836782738
  0
LINE
  5
10121
330
1F
100
AcDbEntity
  8
0
100
AcDbLine
 10
11.36880739834507
 20
202.60227272727337
 30
0.0
 11
10.000000000000007
 21
202.60227272727337
 31
0.0
  0
ARC
  5
10122
330
1F
100
AcDbEntity
  8
0
100
AcDbCircle
 10
32.032646232352675
 20
203.06477272727338
 30
0.0
 40
22.037500000000104
100
AcDbArc
 50
-178.7974478189605
 51
-154.76166040138463
  0
ARC
  5
10123
330
1F
100
AcDbEntity
  8
0
100
AcDbCircle
 10
22.03264623235261
 20
203.06477272727332
 30
0.0
 40
13.673863636363704
100
AcDbArc
 50
-136.59243846849793
 51
-90.00000000000001
  0
LINE
  5
10124
330
1F
100
AcDbEntity
  8
0
100
AcDbLine
 10
22.032646232352608
 20
189.39090909090962
 30
0.0
 11
28.0217092262873
 21
189.39090909090962
 31
0.0
  0
LINE
  5
10125
330
1F
100
AcDbEntity
  8
0
100
AcDbLine
 10
28.0217092262873
 20
189.39090909090962
 30
0.0
 11
28.0217092262873
 21
190.89090909090962
 31
0.0
  0
LINE
  5
10126
330
1F
100
AcDbEntity
  8
0
100
AcDbLine
 10
28.0217092262873
 20
190.89090909090962
 30
0.0
 11
28.9467092262873
 21
190.89090909090962
 31
0.0
  0
ARC
  5
10127
330
1F
100
AcDbEntity
  8
0
100
AcDbCircle
 10
32.032646232352675
 20
250.4125000000008
 30
0.0
 40
18.962500000000105
100
AcDbArc
 50
157.62990127835297
 51
176.8635955465032
  0
ARC
  5
10128
330
1F
100
AcDbEntity
  8
0
100
AcDbCircle
 10
16.311985075327875
 20
256.882493260122
 30
0.0
 40
1.9624999999999007
100
AcDbArc
 50
131.482446290569
 51
157.62990799447084
  0
ARC
  5
10129
330
1F
100
AcDbEntity
  8
0
100
AcDbCircle
 10
22.03264623235261
 20
250.41250000000073
 30
0.0
 40
10.5988636363637
100
AcDbArc
 50
101.08339626470237
 51
131.4825575275434
  0
LINE
  5
1012A
330
1F
100
AcDbEntity
  8
0
100
AcDbLine
 10
19.99514623235261
 20
260.8136780165637
 30
0.0
 11
19.99514623235261
 21
252.6652760652145
 31
0.0
  0
ARC
  5
1012B
330
1F
100
AcDbEntity
  8
0
100
AcDbCircle
 10
22.03264623235261
 20
250.41250000000073
 30
0.0
 40
3.037500000000003
100
AcDbArc
 50
132.12744039409344
 51
160.02782296911465
  0
LINE
  5
1012C
330
1F
100
AcDbEntity
  8
0
100
AcDbLine
 10
19.177825747628596
 20
251.45000000000078
 30
0.0
 11
13.09855000359109
 21
251.45000000000078
 31
0.0
  0
LINE
  5
1012D
330
1F
100
AcDbEntity
  8
0
100
AcDbLine
 10
13.097387815540735
 20
258.69368464421507
 30
0.0
 11
12.172140762840026
 21
259.61893169691575
 31
0.0
  0
LINE
  5
1012E
330
1F
100
AcDbEntity
  8
0
100
AcDbLine
 10
13.751461588138277
 20
259.3477584168126
 30
0.0
 11
13.097387815540735
 21
258.69368464421507
 31
0.0
  0
LINE
  5
1012F
330
1F
100
AcDbEntity
  8
0
100
AcDbLine
 10
12.755661767292814
 20
260.3435582376581
 30
0.0
 11
13.751461588138277
 21
259.3477584168126
 31
0.0
  0
ARC
  5
10130
330
1F
100
AcDbEntity
  8
0
100
AcDbCircle
 10
16.311985075327875
 20
256.882493260122
 30
0.0
 40
4.962500000000038
100
AcDbArc
 50
135.7777202676227
 51
146.53528351212995
  0
ARC
  5
10131
330
1F
100
AcDbEntity
  8
0
100
AcDbCircle
 10
16.311985075327968
 20
243.94250673987963
 30
0.0
 40
4.962500000000122
100
AcDbArc
 50
-144.7729229076386
 51
-137.51041089775774
  0
LINE
  5
10132
330
1F
100
AcDbEntity
  8
0
100
AcDbLine
 10
12.258255819268076
 20
241.0800453220496
 30
0.0
 11
13.2034568342728
 21
242.02524633705437
 31
0.0
  0
LINE
  5
10133
330
1F
100
AcDbEntity
  8
0
100
AcDbLine
 10
13.2034568342728
 20
242.02524633705437
 30
0.0
 11
13.645392569406233
 21
241.5833106019209
 31
0.0
  0
LINE
  5
10134
330
1F
100
AcDbEntity
  8
0
100
AcDbLine
 10
13.645392569406233
 20
241.5833106019209
 30
0.0
 11
12.652637166510637
 21
240.59055519902535
 31
0.0
  0
ARC
  5
10135
330
1F
100
AcDbEntity
  8
0
100
AcDbCircle
 10
22.03264623235261
 20
250.41250000000073
 30
0.0
 40
10.598863636363705
100
AcDbArc
 50
-131.4825904812454
 51
-101.08339626470243
  0
ARC
  5
10136
330
1F
100
AcDbEntity
  8
0
100
AcDbCircle
 10
16.311985075327968
 20
243.94250673987963
 30
0.0
 40
1.9625000000001334
100
AcDbArc
 50
-157.62990050313127
 51
-131.48262426345653
  0
ARC
  5
10137
330
1F
100
AcDbEntity
  8
0
100
AcDbCircle
 10
32.032646232352675
 20
250.4125000000008
 30
0.0
 40
18.962500000000098
100
AcDbArc
 50
-176.86359554650332
 51
-157.6299005030463
  0
LINE
  5
10138
330
1F
100
AcDbEntity
  8
0
100
AcDbLine
 10
13.098550003591097
 20
249.3750000000008
 30
0.0
 11
19.177825747628553
 21
249.3750000000008
 31
0.0
  0
ARC
  5
10139
330
1F
100
AcDbEntity
  8
0
100
AcDbCircle
 10
22.03264623235261
 20
250.41250000000073
 30
0.0
 40
3.0374999999999996
100
AcDbArc
 50
-160.02782296911715
 51
-132.12744039409358
  0
LINE
  5
1013A
330
1F
100
AcDbEntity
  8
0
100
AcDbLine
 10
19.99514623235261
 20
248.15972393478697
 30
0.0
 11
19.99514623235261
 21
240.01132198343777
 31
0.0
  0
LINE
  5
1013B
330
1F
100
AcDbEntity
  8
0
100
AcDbLine
 10
49.79741895962535
 20
236.73863636363703
 30
0.0
 11
49.79741895962534
 21
242.45000000000078
 31
0.0
  0
LINE
  5
1013C
330
1F
100
AcDbEntity
  8
0
100
AcDbLine
 10
49.79741895962534
 20
242.45000000000078
 30
0.0
 11
42.722418959625344
 21
242.45000000000078
 31
0.0
  0
LINE
  5
1013D
330
1F
100
AcDbEntity
  8
0
100
AcDbLine
 10
42.722418959625344
 20
242.45000000000078
 30
0.0
 11
42.722418959625344
 21
239.81363636363704
 31
0.0
  0
LINE
  5
1013E
330
1F
100
AcDbEntity
  8
0
100
AcDbLine
 10
42.722418959625344
 20
239.81363636363704
 30
0.0
 11
22.070146232352606
 21
239.81363636363704
 31
0.0
  0
LINE
  5
1013F
330
1F
100
AcDbEntity
  8
0
100
AcDbLine
 10
22.07014623235261
 20
239.81363636363704
 30
0.0
 11
22.07014623235261
 21
261.0113636363644
 31
0.0
  0
LINE
  5
10140
330
1F
100
AcDbEntity
  8
0
100
AcDbLine
 10
22.07014623235261
 20
261.0113636363644
 30
0.0
 11
42.72241895962534
 21
261.0113636363644
 31
0.0
  0
LINE
  5
10141
330
1F
100
AcDbEntity
  8
0
100
AcDbLine
 10
42.72241895962534
 20
261.0113636363644
 30
0.0
 11
42.722418959625344
 21
258.3750000000008
 31
0.0
  0
LINE
  5
10142
330
1F
100
AcDbEntity
  8
0
100
AcDbLine
 10
42.722418959625344
 20
258.3750000000008
 30
0.0
 11
49.79741895962534
 21
258.3750000000008
 31
0.0
  0
LINE
  5
10143
330
1F
100
AcDbEntity
  8
0
100
AcDbLine
 10
49.79741895962534
 20
258.3750000000008
 30
0.0
 11
49.79741895962534
 21
264.0863636363644
 31
0.0
  0
LINE
  5
10144
330
1F
100
AcDbEntity
  8
0
100
AcDbLine
 10
49.79741895962534
 20
264.0863636363644
 30
0.0
 11
28.946709226287297
 21
264.0863636363644
 31
0.0
  0
LINE
  5
10145
330
1F
100
AcDbEntity
  8
0
100
AcDbLine
 10
28.946709226287297
 20
264.0863636363644
 30
0.0
 11
28.9467092262873
 21
262.5863636363644
 31
0.0
  0
LINE
  5
10146
330
1F
100
AcDbEntity
  8
0
100
AcDbLine
 10
28.9467092262873
 20
262.5863636363644
 30
0.0
 11
28.0217092262873
 21
262.5863636363644
 31
0.0
  0
LINE
  5
10147
330
1F
100
AcDbEntity
  8
0
100
AcDbLine
 10
28.0217092262873
 20
262.5863636363644
 30
0.0
 11
28.0217092262873
 21
264.0863636363644
 31
0.0
  0
LINE
  5
10148
330
1F
100
AcDbEntity
  8
0
100
AcDbLine
 10
28.0217092262873
 20
264.0863636363644
 30
0.0
 11
22.03264623235261
 21
264.0863636363644
 31
0.0
  0
ARC
  5
10149
330
1F
100
AcDbEntity
  8
0
100
AcDbCircle
 10
22.03264623235261
 20
250.41250000000073
 30
0.0
 40
13.673863636363702
100
AcDbArc
 50
89.99999999999999
 51
136.59243846849736
  0
ARC
  5
1014A
330
1F
100
AcDbEntity
  8
0
100
AcDbCircle
 10
32.032646232352675
 20
250.4125000000008
 30
0.0
 40
22.037500000000023
100
AcDbArc
 50
154.7616604013845
 51
178.79744781896053
  0
LINE
  5
1014B
330
1F
100
AcDbEntity
  8
0
100
AcDbLine
 10
10.000000000000085
 20
250.8750000000008
 30
0.0
 11
11.368807398345076
 21
250.8750000000008
 31
0.0
  0
ARC
  5
1014C
330
1F
100
AcDbEntity
  8
0
100
AcDbCircle
 10
22.03264623235261
 20
250.41250000000073
 30
0.0
 40
10.673863636363697
100
AcDbArc
 50
177.51658836782678
 51
-177.51658836782738
  0
LINE
  5
1014D
330
1F
100
AcDbEntity
  8
0
100
AcDbLine
 10
11.36880739834507
 20
249.95000000000078
 30
0.0
 11
10.000000000000007
 21
249.95000000000078
 31
0.0
  0
ARC
  5
1014E
330
1F
100
AcDbEntity
  8
0
100
AcDbCircle
 10
32.032646232352675
 20
250.4125000000008
 30
0.0
 40
22.037500000000104
100
AcDbArc
 50
-178.7974478189605
 51
-154.76166040138463
  0
ARC
  5
1014F
330
1F
100
AcDbEntity
  8
0
100
AcDbCircle
 10
22.03264623235261
 20
250.41250000000073
 30
0.0
 40
13.673863636363704
100
AcDbArc
 50
-136.59243846849793
 51
-90.00000000000001
  0
LINE
  5
10150
330
1F
100
AcDbEntity
  8
0
100
AcDbLine
 10
22.032646232352608
 20
236.73863636363703
 30
0.0
 11
28.0217092262873
 21
236.73863636363703
 31
0.0
  0
LINE
  5
10151
330
1F
100
AcDbEntity
  8
0
100
AcDbLine
 10
28.0217092262873
 20
236.73863636363703
 30
0.0
 11
28.0217092262873
 21
238.23863636363703
 31
0.0
  0
LINE
  5
10152
330
1F
100
AcDbEntity
  8
0
100
AcDbLine
 10
28.0217092262873
 20
238.23863636363703
 30
0.0
 11
28.9467092262873
 21
238.23863636363703
 31
0.0
  0
LINE
  5
10153
330
1F
100
AcDbEntity
  8
0
100
AcDbLine
 10
28.9467092262873
 20
238.23863636363703
 30
0.0
 11
28.9467092262873
 21
236.73863636363703
 31
0.0
  0
LINE
  5
10154
330
1F
100
AcDbEntity
  8
0
100
AcDbLine
 10
28.9467092262873
 20
236.73863636363703
 30
0.0
 11
49.79741895962535
 21
236.73863636363703
 31
0.0
  0
LINE
  5
10155
330
1F
100
AcDbEntity
  8
0
100
AcDbLine
 10
90.075
 20
285.6058689504155
 30
0.0
 11
91.0
 21
285.6058689504155
 31
2.9755617640782794e-31
  0
LINE
  5
10156
330
1F
100
AcDbEntity
  8
0
100
AcDbLine
 10
91.0
 20
285.6058689504155
 30
0.0
 11
90.99999999999999
 21
284.0863636363644
 31
0.0
  0
LINE
  5
10157
330
1F
100
AcDbEntity
  8
0
100
AcDbLine
 10
90.99999999999999
 20
284.0863636363644
 30
2.220446049250313e-15
 11
110.07499999999999
 21
284.0863636363644
 31
2.220446049250313e-15
  0
LINE
  5
10158
330
1F
100
AcDbEntity
  8
0
100
AcDbLine
 10
110.07499999999999
 20
284.0863636363644
 30
2.220446049250313e-15
 11
110.075
 21
287.16136363636446
 31
2.220446049250313e-15
  0
LINE
  5
10159
330
1F
100
AcDbEntity
  8
0
100
AcDbLine
 10
110.075
 20
287.16136363636446
 30
-2.220446049250313e-15
 11
91.0375
 21
287.1613636363644
 31
-2.220446049250313e-15
  0
LINE
  5
1015A
330
1F
100
AcDbEntity
  8
0
100
AcDbLine
 10
91.0375
 20
287.1613636363644
 30
0.0
 11
90.0375
 21
287.16136363636446
 31
2.465190328815662e-31
  0
LINE
  5
1015B
330
1F
100
AcDbEntity
  8
0
100
AcDbLine
 10
90.0375
 20
287.1613636363644
 30
0.0
 11
71.0375
 21
287.1613636363644
 31
1.5407439555097887e-32
  0
LINE
  5
1015C
330
1F
100
AcDbEntity
  8
0
100
AcDbLine
 10
71.0375
 20
287.1613636363644
 30
0.0
 11
70.0375
 21
287.1613636363644
 31
1.925929944387236e-33
  0
LINE
  5
1015D
330
1F
100
AcDbEntity
  8
0
100
AcDbLine
 10
70.0375
 20
287.1613636363644
 30
0.0
 11
51.037499999999994
 21
287.1613636363644
 31
1.5407439555097887e-32
  0
LINE
  5
1015E
330
1F
100
AcDbEntity
  8
0
100
AcDbLine
 10
51.037499999999994
 20
287.1613636363644
 30
0.0
 11
50.0375
 21
287.1613636363644
 31
1.925929944387236e-33
  0
LINE
  5
1015F
330
1F
100
AcDbEntity
  8
0
100
AcDbLine
 10
50.0375
 20
287.1613636363644
 30
0.0
 11
31.037499999999998
 21
287.1613636363644
 31
1.5407439555097887e-32
  0
LINE
  5
10160
330
1F
100
AcDbEntity
  8
0
100
AcDbLine
 10
31.037499999999998
 20
287.1613636363644
 30
0.0
 11
30.0375
 21
287.1613636363644
 31
1.925929944387236e-33
  0
LINE
  5
10161
330
1F
100
AcDbEntity
  8
0
100
AcDbLine
 10
30.0375
 20
287.1613636363644
 30
0.0
 11
11.037500000000001
 21
287.1613636363644
 31
1.5407439555097887e-32
  0
LINE
  5
10162
330
1F
100
AcDbEntity
  8
0
100
AcDbLine
 10
11.037500000000001
 20
287.1613636363644
 30
0.0
 11
10.0
 21
287.1613636363644
 31
1.925929944387236e-33
  0
LINE
  5
10163
330
1F
100
AcDbEntity
  8
0
100
AcDbLine
 10
10.0
 20
287.1613636363644
 30
0.0
 11
10.0
 21
285.6058689504155
 31
0.0
  0
LINE
  5
10164
330
1F
100
AcDbEntity
  8
0
100
AcDbLine
 10
10.0
 20
285.6058689504155
 30
0.0
 11
10.999999999999993
 21
285.6058689504155
 31
0.0
  0
LINE
  5
10165
330
1F
100
AcDbEntity
  8
0
100
AcDbLine
 10
10.999999999999993
 20
285.6058689504155
 30
-2.220446049250313e-15
 11
10.999999999999993
 21
284.0863636363644
 31
-2.220446049250313e-15
  0
LINE
  5
10166
330
1F
100
AcDbEntity
  8
0
100
AcDbLine
 10
10.999999999999993
 20
284.0863636363644
 30
2.220446049250313e-15
 11
30.075000000000003
 21
284.0863636363644
 31
2.2204460492503127e-15
  0
LINE
  5
10167
330
1F
100
AcDbEntity
  8
0
100
AcDbLine
 10
30.075000000000003
 20
284.0863636363644
 30
0.0
 11
30.075000000000003
 21
285.6058689504155
 31
0.0
  0
LINE
  5
10168
330
1F
100
AcDbEntity
  8
0
100
AcDbLine
 10
30.075000000000003
 20
285.6058689504155
 30
0.0
 11
30.999999999999996
 21
285.6058689504155
 31
2.9755617640782794e-31
  0
LINE
  5
10169
330
1F
100
AcDbEntity
  8
0
100
AcDbLine
 10
30.999999999999996
 20
285.6058689504155
 30
-2.220446049250313e-15
 11
30.999999999999996
 21
284.0863636363644
 31
-2.220446049250313e-15
  0
LINE
  5
1016A
330
1F
100
AcDbEntity
  8
0
100
AcDbLine
 10
30.999999999999996
 20
284.0863636363644
 30
2.220446049250313e-15
 11
50.075
 21
284.0863636363644
 31
2.2204460492503127e-15
  0
LINE
  5
1016B
330
1F
100
AcDbEntity
  8
0
100
AcDbLine
 10
50.075
 20
284.0863636363644
 30
0.0
 11
50.075
 21
285.6058689504155
 31
0.0
  0
LINE
  5
1016C
330
1F
100
AcDbEntity
  8
0
100
AcDbLine
 10
50.075
 20
285.6058689504155
 30
0.0
 11
51.0
 21
285.6058689504155
 31
2.9755617640782794e-31
  0
LINE
  5
1016D
330
1F
100
AcDbEntity
  8
0
100
AcDbLine
 10
51.0
 20
285.6058689504155
 30
-2.220446049250313e-15
 11
50.99999999999999
 21
284.0863636363644
 31
-2.220446049250313e-15
  0
LINE
  5
1016E
330
1F
100
AcDbEntity
  8
0
100
AcDbLine
 10
50.99999999999999
 20
284.0863636363644
 30
2.220446049250313e-15
 11
70.075
 21
284.0863636363644
 31
2.2204460492503127e-15
  0
LINE
  5
1016F
330
1F
100
AcDbEntity
  8
0
100
AcDbLine
 10
70.075
 20
284.0863636363644
 30
0.0
 11
70.075
 21
285.6058689504155
 31
0.0
  0
LINE
  5
10170
330
1F
100
AcDbEntity
  8
0
100
AcDbLine
 10
70.075
 20
285.6058689504155
 30
0.0
 11
71.0
 21
285.6058689504155
 31
2.9755617640782794e-31
  0
LINE
  5
10171
330
1F
100
AcDbEntity
  8
0
100
AcDbLine
 10
71.0
 20
285.6058689504155
 30
-2.220446049250313e-15
 11
71.0
 21
284.0863636363644
 31
-2.220446049250313e-15
  0
LINE
  5
10172
330
1F
100
AcDbEntity
  8
0
100
AcDbLine
 10
71.0
 20
284.0863636363644
 30
2.220446049250313e-15
 11
90.07499999999999
 21
284.0863636363644
 31
2.2204460492503127e-15
  0
LINE
  5
10173
330
1F
100
AcDbEntity
  8
0
100
AcDbLine
 10
90.07499999999999
 20
284.0863636363644
 30
2.220446049250313e-15
 11
90.075
 21
285.6058689504155
 31
2.220446049250313e-15
  0
LINE
  5
10174
330
1F
100
AcDbEntity
  8
0
100
AcDbLine
 10
110.07500000000002
 20
308.6777220169477
 30
-4.440892098500626e-15
 11
110.07500000000002
 21
310.2363636363644
 31
-4.440892098500626e-15
  0
LINE
  5
10175
330
1F
100
AcDbEntity
  8
0
100
AcDbLine
 10
110.07500000000002
 20
310.23636363636444
 30
-2.220446049250313e-15
 11
109.03750000000002
 21
310.23636363636444
 31
-2.2204460492503123e-15
  0
LINE
  5
10176
330
1F
100
AcDbEntity
  8
0
100
AcDbLine
 10
109.03750000000004
 20
310.23636363636444
 30
0.0
 11
90.03750000000002
 21
310.2363636363644
 31
7.888609052210118e-30
  0
LINE
  5
10177
330
1F
100
AcDbEntity
  8
0
100
AcDbLine
 10
90.03750000000002
 20
310.2363636363644
 30
0.0
 11
89.03750000000002
 21
310.2363636363644
 31
-2.465190328815662e-31
  0
LINE
  5
10178
330
1F
100
AcDbEntity
  8
0
100
AcDbLine
 10
89.03750000000002
 20
310.2363636363644
 30
-2.220446049250313e-15
 11
70.03750000000002
 21
310.2363636363644
 31
-2.220446049250305e-15
  0
LINE
  5
10179
330
1F
100
AcDbEntity
  8
0
100
AcDbLine
 10
70.03750000000002
 20
310.2363636363644
 30
0.0
 11
69.03750000000002
 21
310.2363636363644
 31
7.395570986446986e-31
  0
LINE
  5
1017A
330
1F
100
AcDbEntity
  8
0
100
AcDbLine
 10
69.03750000000002
 20
310.2363636363644
 30
-2.220446049250313e-15
 11
50.03750000000002
 21
310.2363636363644
 31
-2.220446049250305e-15
  0
LINE
  5
1017B
330
1F
100
AcDbEntity
  8
0
100
AcDbLine
 10
50.03750000000002
 20
310.2363636363644
 30
-4.440892098500626e-15
 11
49.03750000000004
 21
310.2363636363644
 31
-4.440892098500626e-15
  0
LINE
  5
1017C
330
1F
100
AcDbEntity
  8
0
100
AcDbLine
 10
49.03750000000004
 20
310.2363636363644
 30
-4.440892098500626e-15
 11
30.03750000000003
 21
310.2363636363644
 31
-4.440892098500618e-15
  0
LINE
  5
1017D
330
1F
100
AcDbEntity
  8
0
100
AcDbLine
 10
30.03750000000002
 20
310.2363636363644
 30
0.0
 11
29.037500000000012
 21
310.2363636363644
 31
4.930380657631324e-31
  0
LINE
  5
1017E
330
1F
100
AcDbEntity
  8
0
100
AcDbLine
 10
29.037500000000012
 20
310.2363636363644
 30
0.0
 11
10.0
 21
310.23636363636444
 31
3.944304526105059e-30
  0
LINE
  5
1017F
330
1F
100
AcDbEntity
  8
0
100
AcDbLine
 10
10.0
 20
310.23636363636444
 30
2.220446049250313e-15
 11
10.0
 21
307.1613636363644
 31
2.220446049250313e-15
  0
LINE
  5
10180
330
1F
100
AcDbEntity
  8
0
100
AcDbLine
 10
10.000000000000021
 20
307.1613636363644
 30
0.0
 11
29.07500000000004
 21
307.1613636363644
 31
-7.888609052210118e-30
  0
LINE
  5
10181
330
1F
100
AcDbEntity
  8
0
100
AcDbLine
 10
29.07500000000003
 20
307.1613636363644
 30
0.0
 11
29.07500000000003
 21
308.6777220169477
 31
0.0
  0
LINE
  5
10182
330
1F
100
AcDbEntity
  8
0
100
AcDbLine
 10
29.07500000000003
 20
308.6777220169477
 30
0.0
 11
30.000000000000025
 21
308.6777220169477
 31
-2.465190328815662e-31
  0
LINE
  5
10183
330
1F
100
AcDbEntity
  8
0
100
AcDbLine
 10
30.000000000000025
 20
308.6777220169477
 30
0.0
 11
30.000000000000025
 21
307.1613636363644
 31
0.0
  0
LINE
  5
10184
330
1F
100
AcDbEntity
  8
0
100
AcDbLine
 10
30.000000000000025
 20
307.1613636363644
 30
2.220446049250313e-15
 11
49.07500000000003
 21
307.1613636363644
 31
2.220446049250305e-15
  0
LINE
  5
10185
330
1F
100
AcDbEntity
  8
0
100
AcDbLine
 10
49.07500000000004
 20
307.1613636363644
 30
0.0
 11
49.07500000000004
 21
308.6777220169477
 31
0.0
  0
LINE
  5
10186
330
1F
100
AcDbEntity
  8
0
100
AcDbLine
 10
49.07500000000003
 20
308.6777220169477
 30
0.0
 11
50.00000000000002
 21
308.6777220169477
 31
-1.232595164407831e-31
  0
LINE
  5
10187
330
1F
100
AcDbEntity
  8
0
100
AcDbLine
 10
50.00000000000002
 20
308.6777220169477
 30
-2.220446049250313e-15
 11
50.00000000000002
 21
307.1613636363644
 31
-2.220446049250313e-15
  0
LINE
  5
10188
330
1F
100
AcDbEntity
  8
0
100
AcDbLine
 10
50.00000000000003
 20
307.1613636363644
 30
2.220446049250313e-15
 11
69.07500000000003
 21
307.1613636363644
 31
2.220446049250305e-15
  0
LINE
  5
10189
330
1F
100
AcDbEntity
  8
0
100
AcDbLine
 10
69.07500000000003
 20
307.1613636363644
 30
-2.220446049250313e-15
 11
69.07500000000002
 21
308.6777220169477
 31
-2.220446049250313e-15
  0
LINE
  5
1018A
330
1F
100
AcDbEntity
  8
0
100
AcDbLine
 10
69.07500000000002
 20
308.6777220169477
 30
0.0
 11
70.00000000000001
 21
308.6777220169477
 31
-7.395570986446986e-31
  0
LINE
  5
1018B
330
1F
100
AcDbEntity
  8
0
100
AcDbLine
 10
70.00000000000001
 20
308.6777220169477
 30
0.0
 11
70.00000000000001
 21
307.1613636363644
 31
0.0
  0
LINE
  5
1018C
330
1F
100
AcDbEntity
  8
0
100
AcDbLine
 10
70.00000000000001
 20
307.1613636363644
 30
0.0
 11
89.07500000000002
 21
307.1613636363644
 31
-3.944304526105059e-30
  0
LINE
  5
1018D
330
1F
100
AcDbEntity
  8
0
100
AcDbLine
 10
89.07500000000003
 20
307.1613636363644
 30
2.220446049250313e-15
 11
89.07500000000003
 21
308.6777220169477
 31
2.220446049250313e-15
  0
LINE
  5
1018E
330
1F
100
AcDbEntity
  8
0
100
AcDbLine
 10
89.07500000000003
 20
308.6777220169477
 30
0.0
 11
90.00000000000003
 21
308.6777220169477
 31
-4.930380657631324e-31
  0
LINE
  5
1018F
330
1F
100
AcDbEntity
  8
0
100
AcDbLine
 10
90.00000000000003
 20
308.6777220169477
 30
0.0
 11
90.00000000000003
 21
307.1613636363644
 31
0.0
  0
LINE
  5
10190
330
1F
100
AcDbEntity
  8
0
100
AcDbLine
 10
90.00000000000003
 20
307.1613636363644
 30
0.0
 11
109.07500000000003
 21
307.1613636363644
 31
-1.1832913578315177e-29
  0
LINE
  5
10191
330
1F
100
AcDbEntity
  8
0
100
AcDbLine
 10
109.07500000000003
 20
307.1613636363644
 30
0.0
 11
109.07500000000003
 21
308.6777220169477
 31
0.0
  0
LINE
  5
10192
330
1F
100
AcDbEntity
  8
0
100
AcDbLine
 10
109.07500000000003
 20
308.6777220169477
 30
0.0
 11
110.07500000000002
 21
308.6777220169477
 31
-2.465190328815662e-31
  0
LINE
  5
10193
330
1F
100
AcDbEntity
  8
0
100
AcDbLine
 10
70.075
 20
333.31136363636443
 30
0.0
 11
51.0
 21
333.31136363636443
 31
0.0
  0
LINE
  5
10194
330
1F
100
AcDbEntity
  8
0
100
AcDbLine
 10
51.0
 20
333.31136363636443
 30
0.0
 11
51.0
 21
331.81136363636443
 31
0.0
  0
LINE
  5
10195
330
1F
100
AcDbEntity
  8
0
100
AcDbLine
 10
51.0
 20
331.81136363636443
 30
0.0
 11
50.075
 21
331.81136363636443
 31
0.0
  0
LINE
  5
10196
330
1F
100
AcDbEntity
  8
0
100
AcDbLine
 10
50.075
 20
331.81136363636443
 30
0.0
 11
50.075
 21
333.31136363636443
 31
0.0
  0
LINE
  5
10197
330
1F
100
AcDbEntity
  8
0
100
AcDbLine
 10
50.075
 20
333.31136363636443
 30
0.0
 11
30.999999999999996
 21
333.31136363636443
 31
0.0
  0
LINE
  5
10198
330
1F
100
AcDbEntity
  8
0
100
AcDbLine
 10
30.999999999999996
 20
333.31136363636443
 30
0.0
 11
30.999999999999996
 21
331.81136363636443
 31
0.0
  0
LINE
  5
10199
330
1F
100
AcDbEntity
  8
0
100
AcDbLine
 10
30.999999999999996
 20
331.81136363636443
 30
0.0
 11
30.075
 21
331.81136363636443
 31
0.0
  0
LINE
  5
1019A
330
1F
100
AcDbEntity
  8
0
100
AcDbLine
 10
30.075000000000003
 20
331.81136363636443
 30
0.0
 11
30.075000000000003
 21
333.31136363636443
 31
0.0
  0
LINE
  5
1019B
330
1F
100
AcDbEntity
  8
0
100
AcDbLine
 10
30.075000000000003
 20
333.31136363636443
 30
0.0
 11
10.999999999999993
 21
333.31136363636443
 31
0.0
  0
LINE
  5
1019C
330
1F
100
AcDbEntity
  8
0
100
AcDbLine
 10
10.999999999999993
 20
333.31136363636443
 30
0.0
 11
10.999999999999993
 21
331.81136363636443
 31
0.0
  0
LINE
  5
1019D
330
1F
100
AcDbEntity
  8
0
100
AcDbLine
 10
10.999999999999993
 20
331.81136363636443
 30
0.0
 11
10.0
 21
331.81136363636443
 31
0.0
  0
LINE
  5
1019E
330
1F
100
AcDbEntity
  8
0
100
AcDbLine
 10
10.0
 20
331.81136363636443
 30
0.0
 11
10.0
 21
330.2363636363644
 31
0.0
  0
LINE
  5
1019F
330
1F
100
AcDbEntity
  8
0
100
AcDbLine
 10
10.0
 20
330.2363636363644
 30
0.0
 11
110.075
 21
330.2363636363644
 31
0.0
  0
LINE
  5
101A0
330
1F
100
AcDbEntity
  8
0
100
AcDbLine
 10
110.075
 20
330.2363636363644
 30
0.0
 11
110.075
 21
333.31136363636443
 31
0.0
  0
LINE
  5
101A1
330
1F
100
AcDbEntity
  8
0
100
AcDbLine
 10
110.075
 20
333.31136363636443
 30
0.0
 11
91.0
 21
333.31136363636443
 31
0.0
  0
LINE
  5
101A2
330
1F
100
AcDbEntity
  8
0
100
AcDbLine
 10
91.0
 20
333.31136363636443
 30
0.0
 11
91.0
 21
331.81136363636443
 31
0.0
  0
LINE
  5
101A3
330
1F
100
AcDbEntity
  8
0
100
AcDbLine
 10
91.0
 20
331.81136363636443
 30
0.0
 11
90.075
 21
331.81136363636443
 31
0.0
  0
LINE
  5
101A4
330
1F
100
AcDbEntity
  8
0
100
AcDbLine
 10
90.075
 20
331.81136363636443
 30
0.0
 11
90.075
 21
333.31136363636443
 31
0.0
  0
LINE
  5
101A5
330
1F
100
AcDbEntity
  8
0
100
AcDbLine
 10
90.075
 20
333.31136363636443
 30
0.0
 11
71.0
 21
333.31136363636443
 31
0.0
  0
LINE
  5
101A6
330
1F
100
AcDbEntity
  8
0
100
AcDbLine
 10
71.0
 20
333.31136363636443
 30
0.0
 11
71.0
 21
331.81136363636443
 31
0.0
  0
LINE
  5
101A7
330
1F
100
AcDbEntity
  8
0
100
AcDbLine
 10
71.0
 20
331.81136363636443
 30
0.0
 11
70.075
 21
331.81136363636443
 31
0.0
  0
LINE
  5
101A8
330
1F
100
AcDbEntity
  8
0
100
AcDbLine
 10
70.075
 20
331.81136363636443
 30
0.0
 11
70.075
 21
333.31136363636443
 31
0.0
  0
LINE
  5
101A9
330
1F
100
AcDbEntity
  8
0
100
AcDbLine
 10
90.07500000000002
 20
353.3113636363644
 30
0.0
 11
90.075
 21
358.67148065909726
 31
0.0
  0
LINE
  5
101AA
330
1F
100
AcDbEntity
  8
0
100
AcDbLine
 10
90.075
 20
358.67148065909726
 30
0.0
 11
91.0
 21
358.67148065909726
 31
0.0
  0
LINE
  5
101AB
330
1F
100
AcDbEntity
  8
0
100
AcDbLine
 10
91.0
 20
358.67148065909726
 30
0.0
 11
91.0
 21
353.3113636363644
 31
0.0
  0
ARC
  5
101AC
330
1F
100
AcDbEntity
  8
0
100
AcDbCircle
 10
100.53750000000001
 20
342.98216776097297
 30
0.0
 40
14.059025346097185
100
AcDbArc
 50
47.28205251778047
 51
132.71794748221953
  0
LINE
  5
101AD
330
1F
100
AcDbEntity
  8
0
100
AcDbLine
 10
110.07500000000002
 20
353.3113636363644
 30
0.0
 11
110.075
 21
358.67148065909726
 31
0.0
  0
LINE
  5
101AE
330
1F
100
AcDbEntity
  8
0
100
AcDbLine
 10
110.075
 20
358.67148065909726
 30
0.0
 11
111.075
 21
358.67148065909726
 31
0.0
  0
LINE
  5
101AF
330
1F
100
AcDbEntity
  8
0
100
AcDbLine
 10
111.075
 20
358.67148065909726
 30
0.0
 11
111.075
 21
360.11619310707016
 31
0.0
  0
LINE
  5
101B0
330
1F
100
AcDbEntity
  8
0
100
AcDbLine
 10
111.075
 20
360.11619310707016
 30
0.0
 11
10.0
 21
360.11619310707016
 31
0.0
  0
LINE
  5
101B1
330
1F
100
AcDbEntity
  8
0
100
AcDbLine
 10
10.0
 20
360.11619310707016
 30
0.0
 11
10.0
 21
358.67148065909726
 31
0.0
  0
LINE
  5
101B2
330
1F
100
AcDbEntity
  8
0
100
AcDbLine
 10
10.0
 20
358.67148065909726
 30
0.0
 11
11.0
 21
358.67148065909726
 31
0.0
  0
LINE
  5
101B3
330
1F
100
AcDbEntity
  8
0
100
AcDbLine
 10
11.0
 20
358.67148065909726
 30
0.0
 11
11.0
 21
353.31136363636443
 31
0.0
  0
ARC
  5
101B4
330
1F
100
AcDbEntity
  8
0
100
AcDbCircle
 10
20.5375
 20
342.98216776097297
 30
0.0
 40
14.059025346097194
100
AcDbArc
 50
47.28205251778049
 51
132.71794748221947
  0
LINE
  5
101B5
330
1F
100
AcDbEntity
  8
0
100
AcDbLine
 10
30.075000000000003
 20
353.3113636363644
 30
0.0
 11
30.075000000000003
 21
358.67148065909726
 31
0.0
  0
LINE
  5
101B6
330
1F
100
AcDbEntity
  8
0
100
AcDbLine
 10
30.075000000000003
 20
358.67148065909726
 30
0.0
 11
30.999999999999996
 21
358.67148065909726
 31
0.0
  0
LINE
  5
101B7
330
1F
100
AcDbEntity
  8
0
100
AcDbLine
 10
30.999999999999996
 20
358.67148065909726
 30
0.0
 11
31.000000000000007
 21
353.3113636363644
 31
0.0
  0
ARC
  5
101B8
330
1F
100
AcDbEntity
  8
0
100
AcDbCircle
 10
40.5375
 20
342.98216776097297
 30
0.0
 40
14.059025346097192
100
AcDbArc
 50
47.28205251778049
 51
132.71794748221947
  0
LINE
  5
101B9
330
1F
100
AcDbEntity
  8
0
100
AcDbLine
 10
50.075
 20
353.3113636363644
 30
0.0
 11
50.075
 21
358.67148065909726
 31
0.0
  0
LINE
  5
101BA
330
1F
100
AcDbEntity
  8
0
100
AcDbLine
 10
50.075
 20
358.67148065909726
 30
0.0
 11
51.0
 21
358.67148065909726
 31
0.0
  0
LINE
  5
101BB
330
1F
100
AcDbEntity
  8
0
100
AcDbLine
 10
51.0
 20
358.67148065909726
 30
0.0
 11
51.0
 21
353.3113636363644
 31
0.0
  0
ARC
  5
101BC
330
1F
100
AcDbEntity
  8
0
100
AcDbCircle
 10
60.5375
 20
342.98216776097297
 30
0.0
 40
14.05902534609719
100
AcDbArc
 50
47.28205251778048
 51
132.71794748221956
  0
LINE
  5
101BD
330
1F
100
AcDbEntity
  8
0
100
AcDbLine
 10
70.075
 20
353.3113636363644
 30
0.0
 11
70.075
 21
358.67148065909726
 31
0.0
  0
LINE
  5
101BE
330
1F
100
AcDbEntity
  8
0
100
AcDbLine
 10
70.075
 20
358.67148065909726
 30
0.0
 11
71.0
 21
358.67148065909726
 31
0.0
  0
LINE
  5
101BF
330
1F
100
AcDbEntity
  8
0
100
AcDbLine
 10
71.0
 20
358.67148065909726
 30
0.0
 11
71.0
 21
353.31136363636443
 31
0.0
  0
ARC
  5
101C0
330
1F
100
AcDbEntity
  8
0
100
AcDbCircle
 10
80.5375
 20
342.98216776097297
 30
0.0
 40
14.0590253460972
100
AcDbArc
 50
47.28205251778045
 51
132.71794748221947
  0
LINE
  5
101C1
330
1F
100
AcDbEntity
  8
0
100
AcDbLine
 10
111.075
 20
392.7366476525247
 30
0.0
 11
10.0
 21
392.7366476525247
 31
0.0
  0
LINE
  5
101C2
330
1F
100
AcDbEntity
  8
0
100
AcDbLine
 10
10.0
 20
392.7366476525247
 30
0.0
 11
10.0
 21
380.11619310707016
 31
0.0
  0
LINE
  5
101C3
330
1F
100
AcDbEntity
  8
0
100
AcDbLine
 10
10.0
 20
380.11619310707016
 30
0.0
 11
111.075
 21
380.11619310707016
 31
0.0
  0
LINE
  5
101C4
330
1F
100
AcDbEntity
  8
0
100
AcDbLine
 10
111.075
 20
380.11619310707016
 30
0.0
 11
111.075
 21
392.7366476525247
 31
0.0
  0
LINE
  5
101C5
330
1F
100
AcDbEntity
  8
0
100
AcDbLine
 10
90.07500000000002
 20
419.9480112888884
 30
0.0
 11
71.00000000000001
 21
419.9480112888884
 31
0.0
  0
LINE
  5
101C6
330
1F
100
AcDbEntity
  8
0
100
AcDbLine
 10
71.00000000000001
 20
419.9480112888884
 30
0.0
 11
71.00000000000001
 21
416.9480112888884
 31
0.0
  0
LINE
  5
101C7
330
1F
100
AcDbEntity
  8
0
100
AcDbLine
 10
71.00000000000001
 20
416.9480112888884
 30
0.0
 11
70.07500000000002
 21
416.9480112888884
 31
0.0
  0
LINE
  5
101C8
330
1F
100
AcDbEntity
  8
0
100
AcDbLine
 10
70.07500000000002
 20
416.9480112888884
 30
0.0
 11
70.07500000000002
 21
419.9480112888884
 31
0.0
  0
LINE
  5
101C9
330
1F
100
AcDbEntity
  8
0
100
AcDbLine
 10
70.07500000000002
 20
419.9480112888884
 30
0.0
 11
51.000000000000014
 21
419.9480112888884
 31
0.0
  0
LINE
  5
101CA
330
1F
100
AcDbEntity
  8
0
100
AcDbLine
 10
51.000000000000014
 20
419.9480112888884
 30
0.0
 11
51.000000000000014
 21
416.9480112888884
 31
0.0
  0
LINE
  5
101CB
330
1F
100
AcDbEntity
  8
0
100
AcDbLine
 10
51.000000000000014
 20
416.9480112888884
 30
0.0
 11
50.07500000000002
 21
416.9480112888884
 31
0.0
  0
LINE
  5
101CC
330
1F
100
AcDbEntity
  8
0
100
AcDbLine
 10
50.07500000000002
 20
416.9480112888884
 30
0.0
 11
50.07500000000002
 21
419.9480112888884
 31
0.0
  0
LINE
  5
101CD
330
1F
100
AcDbEntity
  8
0
100
AcDbLine
 10
50.07500000000002
 20
419.9480112888884
 30
0.0
 11
31.000000000000014
 21
419.9480112888884
 31
0.0
  0
LINE
  5
101CE
330
1F
100
AcDbEntity
  8
0
100
AcDbLine
 10
31.000000000000014
 20
419.9480112888884
 30
0.0
 11
31.000000000000014
 21
416.9480112888884
 31
0.0
  0
LINE
  5
101CF
330
1F
100
AcDbEntity
  8
0
100
AcDbLine
 10
31.000000000000014
 20
416.9480112888884
 30
0.0
 11
30.075000000000017
 21
416.9480112888884
 31
0.0
  0
LINE
  5
101D0
330
1F
100
AcDbEntity
  8
0
100
AcDbLine
 10
30.07500000000002
 20
416.9480112888884
 30
0.0
 11
30.07500000000002
 21
419.9480112888884
 31
0.0
  0
LINE
  5
101D1
330
1F
100
AcDbEntity
  8
0
100
AcDbLine
 10
30.07500000000002
 20
419.9480112888884
 30
0.0
 11
11.000000000000014
 21
419.9480112888884
 31
0.0
  0
LINE
  5
101D2
330
1F
100
AcDbEntity
  8
0
100
AcDbLine
 10
11.000000000000014
 20
419.9480112888884
 30
0.0
 11
11.000000000000014
 21
416.9480112888884
 31
0.0
  0
LINE
  5
101D3
330
1F
100
AcDbEntity
  8
0
100
AcDbLine
 10
11.000000000000014
 20
416.9480112888884
 30
0.0
 11
10.000000000000014
 21
416.9480112888884
 31
0.0
  0
LINE
  5
101D4
330
1F
100
AcDbEntity
  8
0
100
AcDbLine
 10
10.000000000000014
 20
416.9480112888884
 30
0.0
 11
10.0
 21
412.7366476525247
 31
0.0
  0
LINE
  5
101D5
330
1F
100
AcDbEntity
  8
0
100
AcDbLine
 10
10.0
 20
412.7366476525247
 30
0.0
 11
111.07500000000002
 21
412.7366476525247
 31
0.0
  0
LINE
  5
101D6
330
1F
100
AcDbEntity
  8
0
100
AcDbLine
 10
111.07500000000002
 20
412.7366476525247
 30
0.0
 11
111.07500000000002
 21
416.9480112888884
 31
0.0
  0
LINE
  5
101D7
330
1F
100
AcDbEntity
  8
0
100
AcDbLine
 10
111.07500000000002
 20
416.9480112888884
 30
0.0
 11
110.07500000000002
 21
416.9480112888884
 31
0.0
  0
LINE
  5
101D8
330
1F
100
AcDbEntity
  8
0
100
AcDbLine
 10
110.07500000000002
 20
416.9480112888884
 30
0.0
 11
110.07500000000002
 21
419.9480112888884
 31
0.0
  0
LINE
  5
101D9
330
1F
100
AcDbEntity
  8
0
100
AcDbLine
 10
110.07500000000002
 20
419.9480112888884
 30
0.0
 11
91.00000000000001
 21
419.9480112888884
 31
0.0
  0
LINE
  5
101DA
330
1F
100
AcDbEntity
  8
0
100
AcDbLine
 10
91.00000000000001
 20
419.9480112888884
 30
0.0
 11
91.00000000000001
 21
416.9480112888884
 31
0.0
  0
LINE
  5
101DB
330
1F
100
AcDbEntity
  8
0
100
AcDbLine
 10
91.00000000000001
 20
416.9480112888884
 30
0.0
 11
90.07500000000002
 21
416.9480112888884
 31
0.0
  0
LINE
  5
101DC
330
1F
100
AcDbEntity
  8
0
100
AcDbLine
 10
90.07500000000002
 20
416.9480112888884
 30
0.0
 11
90.07500000000002
 21
419.9480112888884
 31
0.0
  0
LINE
  5
101DD
330
1F
100
AcDbEntity
  8
0
100
AcDbLine
 10
70.075
 20
439.9480112888884
 30
0.0
 11
70.075
 21
442.9480112888884
 31
0.0
  0
LINE
  5
101DE
330
1F
100
AcDbEntity
  8
0
100
AcDbLine
 10
70.075
 20
442.9480112888884
 30
0.0
 11
71.0
 21
442.9480112888884
 31
0.0
  0
LINE
  5
101DF
330
1F
100
AcDbEntity
  8
0
100
AcDbLine
 10
71.0
 20
442.9480112888884
 30
0.0
 11
71.0
 21
439.9480112888884
 31
0.0
  0
LINE
  5
101E0
330
1F
100
AcDbEntity
  8
0
100
AcDbLine
 10
71.0
 20
439.9480112888884
 30
0.0
 11
90.075
 21
439.9480112888884
 31
0.0
  0
LINE
  5
101E1
330
1F
100
AcDbEntity
  8
0
100
AcDbLine
 10
90.075
 20
439.9480112888884
 30
0.0
 11
90.075
 21
442.9480112888884
 31
0.0
  0
LINE
  5
101E2
330
1F
100
AcDbEntity
  8
0
100
AcDbLine
 10
90.075
 20
442.9480112888884
 30
0.0
 11
91.0
 21
442.9480112888884
 31
0.0
  0
LINE
  5
101E3
330
1F
100
AcDbEntity
  8
0
100
AcDbLine
 10
91.0
 20
442.9480112888884
 30
0.0
 11
91.0
 21
439.9480112888884
 31
0.0
  0
LINE
  5
101E4
330
1F
100
AcDbEntity
  8
0
100
AcDbLine
 10
91.0
 20
439.9480112888884
 30
0.0
 11
110.075
 21
439.9480112888884
 31
0.0
  0
LINE
  5
101E5
330
1F
100
AcDbEntity
  8
0
100
AcDbLine
 10
110.075
 20
439.9480112888884
 30
0.0
 11
110.075
 21
442.9480112888884
 31
0.0
  0
LINE
  5
101E6
330
1F
100
AcDbEntity
  8
0
100
AcDbLine
 10
110.075
 20
442.9480112888884
 30
0.0
 11
111.075
 21
442.9480112888884
 31
0.0
  0
LINE
  5
101E7
330
1F
100
AcDbEntity
  8
0
100
AcDbLine
 10
111.075
 20
442.9480112888884
 30
0.0
 11
111.075
 21
447.15937492525217
 31
0.0
  0
LINE
  5
101E8
330
1F
100
AcDbEntity
  8
0
100
AcDbLine
 10
111.075
 20
447.15937492525217
 30
0.0
 11
10.0
 21
447.15937492525217
 31
0.0
  0
LINE
  5
101E9
330
1F
100
AcDbEntity
  8
0
100
AcDbLine
 10
10.0
 20
447.15937492525217
 30
0.0
 11
10.0
 21
442.9480112888884
 31
0.0
  0
LINE
  5
101EA
330
1F
100
AcDbEntity
  8
0
100
AcDbLine
 10
10.0
 20
442.9480112888884
 30
0.0
 11
11.0
 21
442.9480112888884
 31
0.0
  0
LINE
  5
101EB
330
1F
100
AcDbEntity
  8
0
100
AcDbLine
 10
11.0
 20
442.9480112888884
 30
0.0
 11
11.0
 21
439.9480112888884
 31
0.0
  0
LINE
  5
101EC
330
1F
100
AcDbEntity
  8
0
100
AcDbLine
 10
11.0
 20
439.9480112888884
 30
0.0
 11
30.075000000000003
 21
439.9480112888884
 31
0.0
  0
LINE
  5
101ED
330
1F
100
AcDbEntity
  8
0
100
AcDbLine
 10
30.075000000000003
 20
439.9480112888884
 30
0.0
 11
30.075000000000003
 21
442.9480112888884
 31
0.0
  0
LINE
  5
101EE
330
1F
100
AcDbEntity
  8
0
100
AcDbLine
 10
30.075000000000003
 20
442.9480112888884
 30
0.0
 11
31.0
 21
442.9480112888884
 31
0.0
  0
LINE
  5
101EF
330
1F
100
AcDbEntity
  8
0
100
AcDbLine
 10
31.0
 20
442.9480112888884
 30
0.0
 11
31.0
 21
439.9480112888884
 31
0.0
  0
LINE
  5
101F0
330
1F
100
AcDbEntity
  8
0
100
AcDbLine
 10
31.0
 20
439.9480112888884
 30
0.0
 11
50.075
 21
439.9480112888884
 31
0.0
  0
LINE
  5
101F1
330
1F
100
AcDbEntity
  8
0
100
AcDbLine
 10
50.075
 20
439.9480112888884
 30
0.0
 11
50.075
 21
442.9480112888884
 31
0.0
  0
LINE
  5
101F2
330
1F
100
AcDbEntity
  8
0
100
AcDbLine
 10
50.075
 20
442.9480112888884
 30
0.0
 11
51.0
 21
442.9480112888884
 31
0.0
  0
LINE
  5
101F3
330
1F
100
AcDbEntity
  8
0
100
AcDbLine
 10
51.0
 20
442.9480112888884
 30
0.0
 11
51.0
 21
439.9480112888884
 31
0.0
  0
LINE
  5
101F4
330
1F
100
AcDbEntity
  8
0
100
AcDbLine
 10
51.0
 20
439.9480112888884
 30
0.0
 11
70.075
 21
439.9480112888884
 31
0.0
  0
LINE
  5
101F5
330
1F
100
AcDbEntity
  8
0
100
AcDbLine
 10
109.07500000000002
 20
472.79573856161596
 30
0.0
 11
110.075
 21
472.79573856161596
 31
0.0
  0
LINE
  5
101F6
330
1F
100
AcDbEntity
  8
0
100
AcDbLine
 10
110.075
 20
472.79573856161596
 30
0.0
 11
110.075
 21
488.870738561616
 31
0.0
  0
LINE
  5
101F7
330
1F
100
AcDbEntity
  8
0
100
AcDbLine
 10
110.075
 20
488.870738561616
 30
0.0
 11
109.07500000000002
 21
488.870738561616
 31
0.0
  0
LINE
  5
101F8
330
1F
100
AcDbEntity
  8
0
100
AcDbLine
 10
109.07500000000002
 20
488.870738561616
 30
0.0
 11
109.07500000000002
 21
494.50710219797963
 31
0.0
  0
LINE
  5
101F9
330
1F
100
AcDbEntity
  8
0
100
AcDbLine
 10
109.07500000000002
 20
494.50710219797963
 30
0.0
 11
90.0
 21
494.50710219797963
 31
0.0
  0
LINE
  5
101FA
330
1F
100
AcDbEntity
  8
0
100
AcDbLine
 10
90.0
 20
494.50710219797963
 30
0.0
 11
90.0
 21
488.870738561616
 31
0.0
  0
LINE
  5
101FB
330
1F
100
AcDbEntity
  8
0
100
AcDbLine
 10
90.0
 20
488.870738561616
 30
0.0
 11
89.075
 21
488.870738561616
 31
0.0
  0
LINE
  5
101FC
330
1F
100
AcDbEntity
  8
0
100
AcDbLine
 10
89.075
 20
488.870738561616
 30
0.0
 11
89.075
 21
494.50710219797963
 31
0.0
  0
LINE
  5
101FD
330
1F
100
AcDbEntity
  8
0
100
AcDbLine
 10
89.075
 20
494.50710219797963
 30
0.0
 11
70.0
 21
494.50710219797963
 31
0.0
  0
LINE
  5
101FE
330
1F
100
AcDbEntity
  8
0
100
AcDbLine
 10
70.0
 20
494.50710219797963
 30
0.0
 11
70.0
 21
488.870738561616
 31
0.0
  0
LINE
  5
101FF
330
1F
100
AcDbEntity
  8
0
100
AcDbLine
 10
70.0
 20
488.870738561616
 30
0.0
 11
69.075
 21
488.870738561616
 31
0.0
  0
LINE
  5
10200
330
1F
100
AcDbEntity
  8
0
100
AcDbLine
 10
69.075
 20
488.870738561616
 30
0.0
 11
69.075
 21
494.50710219797963
 31
0.0
  0
LINE
  5
10201
330
1F
100
AcDbEntity
  8
0
100
AcDbLine
 10
69.075
 20
494.50710219797963
 30
0.0
 11
50.0
 21
494.50710219797963
 31
0.0
  0
LINE
  5
10202
330
1F
100
AcDbEntity
  8
0
100
AcDbLine
 10
50.0
 20
494.50710219797963
 30
0.0
 11
50.0
 21
488.870738561616
 31
0.0
  0
LINE
  5
10203
330
1F
100
AcDbEntity
  8
0
100
AcDbLine
 10
50.0
 20
488.870738561616
 30
0.0
 11
49.075
 21
488.870738561616
 31
0.0
  0
LINE
  5
10204
330
1F
100
AcDbEntity
  8
0
100
AcDbLine
 10
49.075
 20
488.870738561616
 30
0.0
 11
49.075
 21
494.50710219797963
 31
0.0
  0
LINE
  5
10205
330
1F
100
AcDbEntity
  8
0
100
AcDbLine
 10
49.075
 20
494.50710219797963
 30
0.0
 11
30.0
 21
494.50710219797963
 31
0.0
  0
LINE
  5
10206
330
1F
100
AcDbEntity
  8
0
100
AcDbLine
 10
30.0
 20
494.50710219797963
 30
0.0
 11
30.0
 21
488.870738561616
 31
0.0
  0
LINE
  5
10207
330
1F
100
AcDbEntity
  8
0
100
AcDbLine
 10
30.0
 20
488.870738561616
 30
0.0
 11
29.075000000000003
 21
488.870738561616
 31
0.0
  0
LINE
  5
10208
330
1F
100
AcDbEntity
  8
0
100
AcDbLine
 10
29.075000000000006
 20
488.870738561616
 30
0.0
 11
29.075000000000006
 21
494.50710219797963
 31
0.0
  0
LINE
  5
10209
330
1F
100
AcDbEntity
  8
0
100
AcDbLine
 10
29.075000000000006
 20
494.50710219797963
 30
0.0
 11
10.0
 21
494.50710219797963
 31
0.0
  0
LINE
  5
1020A
330
1F
100
AcDbEntity
  8
0
100
AcDbLine
 10
10.0
 20
494.50710219797963
 30
0.0
 11
10.0
 21
467.1593749252522
 31
0.0
  0
LINE
  5
1020B
330
1F
100
AcDbEntity
  8
0
100
AcDbLine
 10
10.0
 20
467.1593749252522
 30
0.0
 11
29.075000000000006
 21
467.1593749252522
 31
0.0
  0
LINE
  5
1020C
330
1F
100
AcDbEntity
  8
0
100
AcDbLine
 10
29.075000000000006
 20
467.1593749252522
 30
0.0
 11
29.075000000000006
 21
472.79573856161596
 31
0.0
  0
LINE
  5
1020D
330
1F
100
AcDbEntity
  8
0
100
AcDbLine
 10
29.075000000000006
 20
472.79573856161596
 30
0.0
 11
30.000000000000004
 21
472.79573856161596
 31
0.0
  0
LINE
  5
1020E
330
1F
100
AcDbEntity
  8
0
100
AcDbLine
 10
30.0
 20
472.79573856161596
 30
0.0
 11
30.0
 21
467.1593749252522
 31
0.0
  0
LINE
  5
1020F
330
1F
100
AcDbEntity
  8
0
100
AcDbLine
 10
30.0
 20
467.1593749252522
 30
0.0
 11
49.075
 21
467.1593749252522
 31
0.0
  0
LINE
  5
10210
330
1F
100
AcDbEntity
  8
0
100
AcDbLine
 10
49.075
 20
467.1593749252522
 30
0.0
 11
49.075
 21
472.79573856161596
 31
0.0
  0
LINE
  5
10211
330
1F
100
AcDbEntity
  8
0
100
AcDbLine
 10
49.075
 20
472.79573856161596
 30
0.0
 11
50.0
 21
472.79573856161596
 31
0.0
  0
LINE
  5
10212
330
1F
100
AcDbEntity
  8
0
100
AcDbLine
 10
50.0
 20
472.79573856161596
 30
0.0
 11
50.0
 21
467.1593749252522
 31
0.0
  0
LINE
  5
10213
330
1F
100
AcDbEntity
  8
0
100
AcDbLine
 10
50.0
 20
467.1593749252522
 30
0.0
 11
69.075
 21
467.1593749252522
 31
0.0
  0
LINE
  5
10214
330
1F
100
AcDbEntity
  8
0
100
AcDbLine
 10
69.075
 20
467.1593749252522
 30
0.0
 11
69.075
 21
472.79573856161596
 31
0.0
  0
LINE
  5
10215
330
1F
100
AcDbEntity
  8
0
100
AcDbLine
 10
69.075
 20
472.79573856161596
 30
0.0
 11
70.0
 21
472.79573856161596
 31
0.0
  0
LINE
  5
10216
330
1F
100
AcDbEntity
  8
0
100
AcDbLine
 10
70.0
 20
472.79573856161596
 30
0.0
 11
70.0
 21
467.1593749252522
 31
0.0
  0
LINE
  5
10217
330
1F
100
AcDbEntity
  8
0
100
AcDbLine
 10
70.0
 20
467.1593749252522
 30
0.0
 11
89.075
 21
467.1593749252522
 31
0.0
  0
LINE
  5
10218
330
1F
100
AcDbEntity
  8
0
100
AcDbLine
 10
89.075
 20
467.1593749252522
 30
0.0
 11
89.075
 21
472.79573856161596
 31
0.0
  0
LINE
  5
10219
330
1F
100
AcDbEntity
  8
0
100
AcDbLine
 10
89.075
 20
472.79573856161596
 30
0.0
 11
90.0
 21
472.79573856161596
 31
0.0
  0
LINE
  5
1021A
330
1F
100
AcDbEntity
  8
0
100
AcDbLine
 10
90.0
 20
472.79573856161596
 30
0.0
 11
90.0
 21
467.1593749252522
 31
0.0
  0
LINE
  5
1021B
330
1F
100
AcDbEntity
  8
0
100
AcDbLine
 10
90.0
 20
467.1593749252522
 30
0.0
 11
109.07500000000002
 21
467.1593749252522
 31
0.0
  0
LINE
  5
1021C
330
1F
100
AcDbEntity
  8
0
100
AcDbLine
 10
109.07500000000002
 20
467.1593749252522
 30
0.0
 11
109.07500000000002
 21
472.79573856161596
 31
0.0
  0
LINE
  5
1021D
330
1F
100
AcDbEntity
  8
0
100
AcDbLine
 10
70.075
 20
517.5821021979797
 30
0.0
 11
51.0
 21
517.5821021979797
 31
0.0
  0
LINE
  5
1021E
330
1F
100
AcDbEntity
  8
0
100
AcDbLine
 10
51.0
 20
517.5821021979797
 30
0.0
 11
51.0
 21
516.0821021979797
 31
0.0
  0
LINE
  5
1021F
330
1F
100
AcDbEntity
  8
0
100
AcDbLine
 10
51.0
 20
516.0821021979797
 30
0.0
 11
50.075
 21
516.0821021979797
 31
0.0
  0
LINE
  5
10220
330
1F
100
AcDbEntity
  8
0
100
AcDbLine
 10
50.075
 20
516.0821021979797
 30
0.0
 11
50.075
 21
517.5821021979797
 31
0.0
  0
LINE
  5
10221
330
1F
100
AcDbEntity
  8
0
100
AcDbLine
 10
50.075
 20
517.5821021979797
 30
0.0
 11
30.999999999999996
 21
517.5821021979797
 31
0.0
  0
LINE
  5
10222
330
1F
100
AcDbEntity
  8
0
100
AcDbLine
 10
30.999999999999996
 20
517.5821021979797
 30
0.0
 11
30.999999999999996
 21
516.0821021979797
 31
0.0
  0
LINE
  5
10223
330
1F
100
AcDbEntity
  8
0
100
AcDbLine
 10
30.999999999999996
 20
516.0821021979797
 30
0.0
 11
30.075
 21
516.0821021979797
 31
0.0
  0
LINE
  5
10224
330
1F
100
AcDbEntity
  8
0
100
AcDbLine
 10
30.075000000000003
 20
516.0821021979797
 30
0.0
 11
30.075000000000003
 21
517.5821021979797
 31
0.0
  0
LINE
  5
10225
330
1F
100
AcDbEntity
  8
0
100
AcDbLine
 10
30.075000000000003
 20
517.5821021979797
 30
0.0
 11
10.999999999999993
 21
517.5821021979797
 31
0.0
  0
LINE
  5
10226
330
1F
100
AcDbEntity
  8
0
100
AcDbLine
 10
10.999999999999993
 20
517.5821021979797
 30
0.0
 11
10.999999999999993
 21
516.0821021979797
 31
0.0
  0
LINE
  5
10227
330
1F
100
AcDbEntity
  8
0
100
AcDbLine
 10
10.999999999999993
 20
516.0821021979797
 30
0.0
 11
10.0
 21
516.0821021979797
 31
0.0
  0
LINE
  5
10228
330
1F
100
AcDbEntity
  8
0
100
AcDbLine
 10
10.0
 20
516.0821021979797
 30
0.0
 11
10.0
 21
514.5071021979796
 31
0.0
  0
LINE
  5
10229
330
1F
100
AcDbEntity
  8
0
100
AcDbLine
 10
10.0
 20
514.5071021979796
 30
0.0
 11
110.075
 21
514.5071021979796
 31
0.0
  0
LINE
  5
1022A
330
1F
100
AcDbEntity
  8
0
100
AcDbLine
 10
110.075
 20
514.5071021979796
 30
0.0
 11
110.075
 21
517.5821021979797
 31
0.0
  0
LINE
  5
1022B
330
1F
100
AcDbEntity
  8
0
100
AcDbLine
 10
110.075
 20
517.5821021979797
 30
0.0
 11
91.0
 21
517.5821021979797
 31
0.0
  0
LINE
  5
1022C
330
1F
100
AcDbEntity
  8
0
100
AcDbLine
 10
91.0
 20
517.5821021979797
 30
0.0
 11
91.0
 21
516.0821021979797
 31
0.0
  0
LINE
  5
1022D
330
1F
100
AcDbEntity
  8
0
100
AcDbLine
 10
91.0
 20
516.0821021979797
 30
0.0
 11
90.075
 21
516.0821021979797
 31
0.0
  0
LINE
  5
1022E
330
1F
100
AcDbEntity
  8
0
100
AcDbLine
 10
90.075
 20
516.0821021979797
 30
0.0
 11
90.075
 21
517.5821021979797
 31
0.0
  0
LINE
  5
1022F
330
1F
100
AcDbEntity
  8
0
100
AcDbLine
 10
90.075
 20
517.5821021979797
 30
0.0
 11
71.0
 21
517.5821021979797
 31
0.0
  0
LINE
  5
10230
330
1F
100
AcDbEntity
  8
0
100
AcDbLine
 10
71.0
 20
517.5821021979797
 30
0.0
 11
71.0
 21
516.0821021979797
 31
0.0
  0
LINE
  5
10231
330
1F
100
AcDbEntity
  8
0
100
AcDbLine
 10
71.0
 20
516.0821021979797
 30
0.0
 11
70.075
 21
516.0821021979797
 31
0.0
  0
LINE
  5
10232
330
1F
100
AcDbEntity
  8
0
100
AcDbLine
 10
70.075
 20
516.0821021979797
 30
0.0
 11
70.075
 21
517.5821021979797
 31
0.0
  0
LINE
  5
10233
330
1F
100
AcDbEntity
  8
0
100
AcDbLine
 10
111.075
 20
550.2025567434342
 30
0.0
 11
10.0
 21
550.2025567434342
 31
0.0
  0
LINE
  5
10234
330
1F
100
AcDbEntity
  8
0
100
AcDbLine
 10
10.0
 20
550.2025567434342
 30
0.0
 11
10.0
 21
537.5821021979797
 31
0.0
  0
LINE
  5
10235
330
1F
100
AcDbEntity
  8
0
100
AcDbLine
 10
10.0
 20
537.5821021979797
 30
0.0
 11
111.075
 21
537.5821021979797
 31
0.0
  0
LINE
  5
10236
330
1F
100
AcDbEntity
  8
0
100
AcDbLine
 10
111.075
 20
537.5821021979797
 30
0.0
 11
111.075
 21
550.2025567434342
 31
0.0
  0
ENDSEC
  0
SECTION
  2
OBJECTS
  0
DICTIONARY
  5
C
330
None
100
AcDbDictionary
281
1
  3
ACAD_GROUP
350
D
  3
ACAD_MLINESTYLE
350
17
  3
ACAD_COLOR
350
1005A
  3
ACAD_LAYOUT
350
1005B
  3
ACAD_MATERIAL
350
1005C
  3
ACAD_MLEADERSTYLE
350
1005D
  3
ACAD_PLOTSETTINGS
350
1005E
  3
ACAD_PLOTSTYLENAME
350
1005F
  3
ACAD_SCALELIST
350
10061
  3
ACAD_TABLESTYLE
350
10062
  3
ACAD_VISUALSTYLE
350
10063
  0
DICTIONARY
  5
D
330
None
100
AcDbDictionary
281
1
  0
DICTIONARY
  5
1A
330
C
100
AcDbDictionary
281
1
  0
DICTIONARY
  5
17
330
None
100
AcDbDictionary
281
1
  3
Standard
350
10069
  0
DICTIONARY
  5
1005A
330
C
100
AcDbDictionary
281
1
  0
DICTIONARY
  5
1005B
330
C
100
AcDbDictionary
281
1
  3
Model
350
10064
  3
Layout1
350
10065
  0
DICTIONARY
  5
1005C
330
C
100
AcDbDictionary
281
1
  3
ByBlock
350
10066
  3
ByLayer
350
10067
  3
Global
350
10068
  0
DICTIONARY
  5
1005D
330
C
100
AcDbDictionary
281
1
  3
Standard
350
1006E
  0
DICTIONARY
  5
1005E
330
C
100
AcDbDictionary
281
1
  0
ACDBDICTIONARYWDFLT
  5
1005F
330
C
100
AcDbDictionary
281
1
  3
Normal
350
10060
100
AcDbDictionaryWithDefault
340
10060
  0
ACDBPLACEHOLDER
  5
10060
330
1005F
  0
DICTIONARY
  5
10061
330
C
100
AcDbDictionary
281
1
  0
DICTIONARY
  5
10062
330
C
100
AcDbDictionary
281
1
  0
DICTIONARY
  5
10063
330
C
100
AcDbDictionary
281
1
  0
LAYOUT
  5
10064
330
1005B
100
AcDbPlotSettings
  1

  2
Adobe PDF
  4
A4
  6

 40
3.175
 41
3.175
 42
3.175
 43
3.175
 44
209.91
 45
297.03
 46
0.0
 47
0.0
 48
0.0
 49
0.0
140
0.0
141
0.0
142
1.0
143
1.0
 70
1024
 72
0
 73
1
 74
5
  7

 75
16
 76
0
 77
2
 78
300
147
1.0
148
0.0
149
0.0
100
AcDbLayout
  1
Model
 70
1
 71
0
 10
-3.175
 20
-3.175
 11
293.857
 21
206.735
 12
0.0
 22
0.0
 32
0.0
 14
29.068
 24
20.356
 34
0.0
 15
261.614
 25
183.204
 35
0.0
146
0.0
 13
0.0
 23
0.0
 33
0.0
 16
1.0
 26
0.0
 36
0.0
 17
0.0
 27
1.0
 37
0.0
 76
1
330
1F
  0
LAYOUT
  5
10065
330
1005B
100
AcDbPlotSettings
  1

  2
Adobe PDF
  4
A4
  6

 40
3.175
 41
3.175
 42
3.175
 43
3.175
 44
209.91
 45
297.03
 46
0.0
 47
0.0
 48
0.0
 49
0.0
140
0.0
141
0.0
142
1.0
143
1.0
 70
0
 72
0
 73
1
 74
5
  7

 75
16
 76
0
 77
2
 78
300
147
1.0
148
0.0
149
0.0
100
AcDbLayout
  1
Layout1
 70
1
 71
1
 10
-3.175
 20
-3.175
 11
293.857
 21
206.735
 12
0.0
 22
0.0
 32
0.0
 14
29.068
 24
20.356
 34
0.0
 15
261.614
 25
183.204
 35
0.0
146
0.0
 13
0.0
 23
0.0
 33
0.0
 16
1.0
 26
0.0
 36
0.0
 17
0.0
 27
1.0
 37
0.0
 76
1
330
1B
  0
MATERIAL
  5
10066
102
{ACAD_REACTORS
330
1005C
102
}
330
1005C
100
AcDbMaterial
  1
ByBlock
  2

 70
0
 40
1.0
 71
1
 41
1.0
 91
-1023410177
 42
1.0
 72
1
  3

 73
1
 74
1
 75
1
 44
0.5
 73
0
 45
1.0
 46
1.0
 77
1
  4

 78
1
 79
1
170
1
 48
1.0
171
1
  6

172
1
173
1
174
1
140
1.0
141
1.0
175
1
  7

176
1
177
1
178
1
143
1.0
179
1
  8

270
1
271
1
272
1
145
1.0
146
1.0
273
1
  9

274
1
275
1
276
1
 42
1.0
 72
1
  3

 73
1
 74
1
 75
1
 94
63
  0
MATERIAL
  5
10067
102
{ACAD_REACTORS
330
1005C
102
}
330
1005C
100
AcDbMaterial
  1
ByLayer
  2

 70
0
 40
1.0
 71
1
 41
1.0
 91
-1023410177
 42
1.0
 72
1
  3

 73
1
 74
1
 75
1
 44
0.5
 73
0
 45
1.0
 46
1.0
 77
1
  4

 78
1
 79
1
170
1
 48
1.0
171
1
  6

172
1
173
1
174
1
140
1.0
141
1.0
175
1
  7

176
1
177
1
178
1
143
1.0
179
1
  8

270
1
271
1
272
1
145
1.0
146
1.0
273
1
  9

274
1
275
1
276
1
 42
1.0
 72
1
  3

 73
1
 74
1
 75
1
 94
63
  0
MATERIAL
  5
10068
102
{ACAD_REACTORS
330
1005C
102
}
330
1005C
100
AcDbMaterial
  1
Global
  2

 70
0
 40
1.0
 71
1
 41
1.0
 91
-1023410177
 42
1.0
 72
1
  3

 73
1
 74
1
 75
1
 44
0.5
 73
0
 45
1.0
 46
1.0
 77
1
  4

 78
1
 79
1
170
1
 48
1.0
171
1
  6

172
1
173
1
174
1
140
1.0
141
1.0
175
1
  7

176
1
177
1
178
1
143
1.0
179
1
  8

270
1
271
1
272
1
145
1.0
146
1.0
273
1
  9

274
1
275
1
276
1
 42
1.0
 72
1
  3

 73
1
 74
1
 75
1
 94
63
  0
MLINESTYLE
  5
10069
102
{ACAD_REACTORS
330
17
102
}
330
17
100
AcDbMlineStyle
  2
Standard
 70
0
  3

 62
256
 51
90.0
 52
90.0
 71
2
 49
0.5
 62
256
  6
BYLAYER
 49
-0.5
 62
256
  6
BYLAYER
  0
MLEADERSTYLE
  5
1006E
102
{ACAD_REACTORS
330
1005D
102
}
330
1005D
100
AcDbMLeaderStyle
179
2
170
2
171
1
172
0
 90
2
 40
0.0
 41
0.0
173
1
 91
-1056964608
 92
-2
290
1
 42
2.0
291
1
 43
8.0
  3
Standard
 44
4.0
300

342
11
174
1
175
1
176
0
178
1
 93
-1056964608
 45
4.0
292
0
297
0
 46
4.0
 94
-1056964608
 47
1.0
 49
1.0
140
1.0
294
1
141
0.0
177
0
142
1.0
295
0
296
0
143
3.75
271
0
272
9
273
9
  0
ENDSEC
  0
EOF
