0
SECTION
2
HEADER
9
$INSUNITS
70
4
9
$ACADVER
1
AC1014
9
$HANDSEED
5
FFFF
0
ENDSEC
0
SECTION
2
TABLES
0
TABLE
2
VPORT
5
8
100
AcDbSymbolTable
0
ENDTAB
0
TABLE
2
LTYPE
5
5
100
AcDbSymbolTable
0
LTYPE
5
14
100
AcDbSymbolTableRecord
100
AcDbLinetypeTableRecord
2
BYBLOCK
70
0
0
LTYPE
5
15
100
AcDbSymbolTableRecord
100
AcDbLinetypeTableRecord
2
BYLAYER
70
0
0
ENDTAB
0
TABLE
2
LAYER
5
2
100
AcDbSymbolTable
70
2
0
LAYER
5
50
100
AcDbSymbolTableRecord
100
AcDbLayerTableRecord
2
0
70
0
6
CONTINUOUS
0
ENDTAB
0
TABLE
2
STYLE
5
3
100
AcDbSymbolTable
70
1
0
STYLE
5
11
100
AcDbSymbolTableRecord
100
AcDbTextStyleTableRecord
2
STANDARD
70
0
0
ENDTAB
0
TABLE
2
VIEW
5
6
100
AcDbSymbolTable
70
0
0
ENDTAB
0
TABLE
2
UCS
5
7
100
AcDbSymbolTable
70
0
0
ENDTAB
0
TABLE
2
APPID
5
9
100
AcDbSymbolTable
70
2
0
APPID
5
12
100
AcDbSymbolTableRecord
100
AcDbRegAppTableRecord
2
ACAD
70
0
0
ENDTAB
0
TABLE
2
DIMSTYLE
5
A
100
AcDbSymbolTable
70
1
0
ENDTAB
0
TABLE
2
BLOCK_RECORD
5
1
100
AcDbSymbolTable
70
1
0
BLOCK_RECORD
5
1F
100
AcDbSymbolTableRecord
100
AcDbBlockTableRecord
2
*MODEL_SPACE
0
BLOCK_RECORD
5
1B
100
AcDbSymbolTableRecord
100
AcDbBlockTableRecord
2
*PAPER_SPACE
0
ENDTAB
0
ENDSEC
0
SECTION
2
BLOCKS
0
BLOCK
5
20
100
AcDbEntity
100
AcDbBlockBegin
2
*MODEL_SPACE
0
ENDBLK
5
21
100
AcDbEntity
100
AcDbBlockEnd
0
BLOCK
5
1C
100
AcDbEntity
100
AcDbBlockBegin
2
*PAPER_SPACE
0
ENDBLK
5
1D
100
AcDbEntity
100
AcDbBlockEnd
0
ENDSEC
0
SECTION
2
ENTITIES
0
ARC
5
100
100
AcDbEntity
8
0
100
AcDbCircle
10
-7.8664776396749652
20
0
30
0
40
3.0375000000000032
210
0
220
0
230
1
100
AcDbArc
50
132.12744039409344
51
160.02782296911462
0
LINE
5
101
100
AcDbEntity
8
0
100
AcDbLine
10
-10.721298124398981
20
1.0375000000000649
30
0
11
-16.800573868436487
21
1.0375000000000614
31
0
0
ARC
5
102
100
AcDbEntity
8
0
100
AcDbCircle
10
2.1335223603251019
20
4.6074255521943996e-14
30
0
40
18.962500000000105
210
0
220
0
230
1
100
AcDbArc
50
157.62990127835297
51
176.86359554650318
0
ARC
5
103
100
AcDbEntity
8
0
100
AcDbCircle
10
-13.587138796699703
20
6.4699932601212513
30
0
40
1.9624999999999007
210
0
220
0
230
1
100
AcDbArc
50
131.48244629056899
51
157.62990799447084
0
ARC
5
104
100
AcDbEntity
8
0
100
AcDbCircle
10
-7.8664776396749652
20
0
30
0
40
10.598863636363699
210
0
220
0
230
1
100
AcDbArc
50
101.08339626470237
51
131.48255752754341
0
LINE
5
105
100
AcDbEntity
8
0
100
AcDbLine
10
-9.9039776396749684
20
10.401178016562964
30
0
11
-9.9039776396749684
21
2.2527760652137632
31
0
0
ARC
5
106
100
AcDbEntity
8
0
100
AcDbCircle
10
-13.587138796699703
20
6.4699932601212513
30
0
40
4.9625000000000377
210
0
220
0
230
1
100
AcDbArc
50
135.7777202676227
51
146.53528351212995
0
LINE
5
107
100
AcDbEntity
8
0
100
AcDbLine
10
-17.143462104734763
20
9.9310582376573482
30
0
11
-16.1476622838893
21
8.9352584168118572
31
0
0
LINE
5
108
100
AcDbEntity
8
0
100
AcDbLine
10
-16.1476622838893
20
8.9352584168118572
30
0
11
-16.801736056486842
21
8.2811846442143082
31
0
0
LINE
5
109
100
AcDbEntity
8
0
100
AcDbLine
10
-16.801736056486842
20
8.2811846442143082
30
0
11
-17.72698310918755
21
9.2064316969150344
31
0
0
LINE
5
110
100
AcDbEntity
8
0
100
AcDbLine
10
-16.253731302621343
20
-8.8291893980798104
30
0
11
-17.24648670551694
21
-9.8219448009753947
31
0
0
LINE
5
111
100
AcDbEntity
8
0
100
AcDbLine
10
-16.695667037754777
20
-8.3872536629463728
30
0
11
-16.253731302621343
21
-8.8291893980798104
31
0
0
LINE
5
112
100
AcDbEntity
8
0
100
AcDbLine
10
-17.640868052759501
20
-9.3324546779511071
30
0
11
-16.695667037754777
21
-8.3872536629463728
31
0
0
ARC
5
113
100
AcDbEntity
8
0
100
AcDbCircle
10
-13.587138796699609
20
-6.4699932601211056
30
0
40
4.962500000000122
210
0
220
0
230
1
100
AcDbArc
50
215.22707709236144
51
222.48958910224229
0
ARC
5
114
100
AcDbEntity
8
0
100
AcDbCircle
10
-7.8664776396749652
20
0
30
0
40
10.598863636363705
210
0
220
0
230
1
100
AcDbArc
50
228.51740951875462
51
258.9166037352976
0
ARC
5
115
100
AcDbEntity
8
0
100
AcDbCircle
10
-13.587138796699609
20
-6.4699932601211056
30
0
40
1.9625000000001334
210
0
220
0
230
1
100
AcDbArc
50
202.37009949686876
51
228.5173757365435
0
ARC
5
116
100
AcDbEntity
8
0
100
AcDbCircle
10
2.1335223603251019
20
4.6074255521943996e-14
30
0
40
18.962500000000098
210
0
220
0
230
1
100
AcDbArc
50
183.13640445349671
51
202.37009949695374
0
LINE
5
117
100
AcDbEntity
8
0
100
AcDbLine
10
-16.80057386843648
20
-1.0374999999999404
30
0
11
-10.721298124399025
21
-1.0374999999999399
31
0
0
ARC
5
118
100
AcDbEntity
8
0
100
AcDbCircle
10
-7.8664776396749652
20
0
30
0
40
3.0374999999999996
210
0
220
0
230
1
100
AcDbArc
50
199.97217703088288
51
227.87255960590642
0
LINE
5
119
100
AcDbEntity
8
0
100
AcDbLine
10
-9.9039776396749684
20
-2.2527760652137587
30
0
11
-9.9039776396749684
21
-10.401178016562973
31
0
0
LINE
5
120
100
AcDbEntity
8
0
100
AcDbLine
10
-0.95241464574027601
20
-13.673863636363699
30
0
11
19.898295087597766
21
-13.673863636363699
31
0
0
LINE
5
121
100
AcDbEntity
8
0
100
AcDbLine
10
19.898295087597766
20
-13.673863636363699
30
0
11
19.898295087597763
21
-7.9624999999999391
31
0
0
LINE
5
122
100
AcDbEntity
8
0
100
AcDbLine
10
19.898295087597763
20
-7.9624999999999391
30
0
11
12.823295087597764
21
-7.9624999999999391
31
0
0
LINE
5
123
100
AcDbEntity
8
0
100
AcDbLine
10
12.823295087597764
20
-7.9624999999999391
30
0
11
12.823295087597764
21
-10.598863636363699
31
0
0
LINE
5
124
100
AcDbEntity
8
0
100
AcDbLine
10
12.823295087597764
20
-10.598863636363699
30
0
11
-7.82897763967497
21
-10.598863636363699
31
0
0
LINE
5
125
100
AcDbEntity
8
0
100
AcDbLine
10
-7.8289776396749673
20
-10.598863636363699
30
0
11
-7.8289776396749673
21
10.598863636363699
31
0
0
LINE
5
126
100
AcDbEntity
8
0
100
AcDbLine
10
-7.8289776396749673
20
10.598863636363699
30
0
11
12.823295087597762
21
10.598863636363699
31
0
0
LINE
5
127
100
AcDbEntity
8
0
100
AcDbLine
10
12.823295087597762
20
10.598863636363699
30
0
11
12.823295087597764
21
7.9625000000000634
31
0
0
LINE
5
128
100
AcDbEntity
8
0
100
AcDbLine
10
12.823295087597764
20
7.9625000000000634
30
0
11
19.898295087597763
21
7.9625000000000634
31
0
0
LINE
5
129
100
AcDbEntity
8
0
100
AcDbLine
10
19.898295087597763
20
7.9625000000000634
30
0
11
19.898295087597763
21
13.673863636363699
31
0
0
LINE
5
130
100
AcDbEntity
8
0
100
AcDbLine
10
19.898295087597763
20
13.673863636363699
30
0
11
-0.95241464574027823
21
13.673863636363699
31
0
0
LINE
5
131
100
AcDbEntity
8
0
100
AcDbLine
10
-0.95241464574027823
20
13.673863636363699
30
0
11
-0.95241464574027601
21
12.173863636363699
31
0
0
LINE
5
132
100
AcDbEntity
8
0
100
AcDbLine
10
-0.95241464574027601
20
12.173863636363699
30
0
11
-1.8774146457402785
21
12.173863636363699
31
0
0
LINE
5
133
100
AcDbEntity
8
0
100
AcDbLine
10
-1.8774146457402785
20
12.173863636363699
30
0
11
-1.8774146457402785
21
13.673863636363699
31
0
0
LINE
5
134
100
AcDbEntity
8
0
100
AcDbLine
10
-1.8774146457402785
20
13.673863636363699
30
0
11
-7.8664776396749652
21
13.673863636363702
31
0
0
ARC
5
135
100
AcDbEntity
8
0
100
AcDbCircle
10
-7.8664776396749652
20
0
30
0
40
13.673863636363702
210
0
220
-0
230
1
100
AcDbArc
50
89.999999999999986
51
136.59243846849736
0
ARC
5
136
100
AcDbEntity
8
0
100
AcDbCircle
10
2.1335223603251019
20
4.6074255521943996e-14
30
0
40
22.037500000000023
210
0
220
0
230
1
100
AcDbArc
50
154.76166040138449
51
178.79744781896053
0
LINE
5
137
100
AcDbEntity
8
0
100
AcDbLine
10
-19.899123872027491
20
0.46250000000005564
30
0
11
-18.5303164736825
21
0.46250000000005687
31
0
0
ARC
5
138
100
AcDbEntity
8
0
100
AcDbCircle
10
-7.8664776396749652
20
0
30
0
40
10.673863636363697
210
0
220
0
230
1
100
AcDbArc
50
177.51658836782678
51
182.48341163217265
0
LINE
5
139
100
AcDbEntity
8
0
100
AcDbLine
10
-18.530316473682507
20
-0.4624999999999414
30
0
11
-19.89912387202757
21
-0.46249999999994074
31
0
0
ARC
5
140
100
AcDbEntity
8
0
100
AcDbCircle
10
2.1335223603251019
20
4.6074255521943996e-14
30
0
40
22.037500000000104
210
0
220
0
230
1
100
AcDbArc
50
181.20255218103949
51
205.2383395986154
0
ARC
5
141
100
AcDbEntity
8
0
100
AcDbCircle
10
-7.8664776396749652
20
0
30
0
40
13.673863636363704
210
0
220
0
230
1
100
AcDbArc
50
223.40756153150204
51
270
0
LINE
5
142
100
AcDbEntity
8
0
100
AcDbLine
10
-7.8664776396749687
20
-13.673863636363699
30
0
11
-1.8774146457402785
21
-13.673863636363699
31
0
0
LINE
5
143
100
AcDbEntity
8
0
100
AcDbLine
10
-1.8774146457402785
20
-13.673863636363699
30
0
11
-1.8774146457402785
21
-12.173863636363699
31
0
0
LINE
5
144
100
AcDbEntity
8
0
100
AcDbLine
10
-1.8774146457402785
20
-12.173863636363699
30
0
11
-0.95241464574027601
21
-12.173863636363699
31
0
0
LINE
5
145
100
AcDbEntity
8
0
100
AcDbLine
10
-0.95241464574027601
20
-12.173863636363699
30
0
11
-0.95241464574027601
21
-13.673863636363699
31
0
0
ENDSEC
0
SECTION
2
OBJECTS
0
DICTIONARY
5
C
100
AcDbDictionary
3
ACAD_GROUP
350
D
3
ACAD_MLINESTYLE
350
17
0
DICTIONARY
5
D
100
AcDbDictionary
0
DICTIONARY
5
1A
330
C
100
AcDbDictionary
0
DICTIONARY
5
17
100
AcDbDictionary
0
ENDSEC
0
EOF
