0
SECTION
2
HEADER
9
$INSUNITS
70
4
9
$ACADVER
1
AC1014
9
$HANDSEED
5
FFFF
0
ENDSEC
0
SECTION
2
TABLES
0
TABLE
2
VPORT
5
8
100
AcDbSymbolTable
0
ENDTAB
0
TABLE
2
LTYPE
5
5
100
AcDbSymbolTable
0
LTYPE
5
14
100
AcDbSymbolTableRecord
100
AcDbLinetypeTableRecord
2
BYBLOCK
70
0
0
LTYPE
5
15
100
AcDbSymbolTableRecord
100
AcDbLinetypeTableRecord
2
BYLAYER
70
0
0
ENDTAB
0
TABLE
2
LAYER
5
2
100
AcDbSymbolTable
70
2
0
LAYER
5
50
100
AcDbSymbolTableRecord
100
AcDbLayerTableRecord
2
0
70
0
6
CONTINUOUS
0
ENDTAB
0
TABLE
2
STYLE
5
3
100
AcDbSymbolTable
70
1
0
STYLE
5
11
100
AcDbSymbolTableRecord
100
AcDbTextStyleTableRecord
2
STANDARD
70
0
0
ENDTAB
0
TABLE
2
VIEW
5
6
100
AcDbSymbolTable
70
0
0
ENDTAB
0
TABLE
2
UCS
5
7
100
AcDbSymbolTable
70
0
0
ENDTAB
0
TABLE
2
APPID
5
9
100
AcDbSymbolTable
70
2
0
APPID
5
12
100
AcDbSymbolTableRecord
100
AcDbRegAppTableRecord
2
ACAD
70
0
0
ENDTAB
0
TABLE
2
DIMSTYLE
5
A
100
AcDbSymbolTable
70
1
0
ENDTAB
0
TABLE
2
BLOCK_RECORD
5
1
100
AcDbSymbolTable
70
1
0
BLOCK_RECORD
5
1F
100
AcDbSymbolTableRecord
100
AcDbBlockTableRecord
2
*MODEL_SPACE
0
BLOCK_RECORD
5
1B
100
AcDbSymbolTableRecord
100
AcDbBlockTableRecord
2
*PAPER_SPACE
0
ENDTAB
0
ENDSEC
0
SECTION
2
BLOCKS
0
BLOCK
5
20
100
AcDbEntity
100
AcDbBlockBegin
2
*MODEL_SPACE
0
ENDBLK
5
21
100
AcDbEntity
100
AcDbBlockEnd
0
BLOCK
5
1C
100
AcDbEntity
100
AcDbBlockBegin
2
*PAPER_SPACE
0
ENDBLK
5
1D
100
AcDbEntity
100
AcDbBlockEnd
0
ENDSEC
0
SECTION
2
ENTITIES
0
LINE
5
100
100
AcDbEntity
8
0
100
AcDbLine
10
50.037500000000001
20
-0.021141619416722435
30
-4.4408920985006262e-15
11
50.037500000000001
21
1.5374999999999917
31
-4.4408920985006262e-15
0
LINE
5
101
100
AcDbEntity
8
0
100
AcDbLine
10
50.037500000000001
20
1.5374999999999961
30
-2.2204460492503131e-15
11
49
21
1.5375000000000005
31
-2.2204460492503123e-15
0
LINE
5
102
100
AcDbEntity
8
0
100
AcDbLine
10
49.000000000000014
20
1.5375000000000005
30
0
11
30.000000000000007
21
1.5374999999999917
31
7.8886090522101181e-30
0
LINE
5
103
100
AcDbEntity
8
0
100
AcDbLine
10
30.000000000000004
20
1.5374999999999917
30
0
11
29.000000000000004
21
1.5374999999999917
31
-2.4651903288156619e-31
0
LINE
5
104
100
AcDbEntity
8
0
100
AcDbLine
10
29.000000000000004
20
1.5374999999999872
30
-2.2204460492503131e-15
11
10
21
1.5374999999999917
31
-2.2204460492503052e-15
0
LINE
5
105
100
AcDbEntity
8
0
100
AcDbLine
10
10
20
1.5374999999999917
30
0
11
9.0000000000000036
21
1.5374999999999917
31
7.3955709864469857e-31
0
LINE
5
106
100
AcDbEntity
8
0
100
AcDbLine
10
9.0000000000000036
20
1.5374999999999917
30
-2.2204460492503131e-15
11
-10
21
1.5374999999999917
31
-2.2204460492503052e-15
0
LINE
5
107
100
AcDbEntity
8
0
100
AcDbLine
10
-9.9999999999999964
20
1.5374999999999917
30
-4.4408920985006262e-15
11
-10.999999999999988
21
1.5374999999999917
31
-4.4408920985006262e-15
0
LINE
5
108
100
AcDbEntity
8
0
100
AcDbLine
10
-10.999999999999988
20
1.5374999999999917
30
-4.4408920985006262e-15
11
-29.999999999999993
21
1.5374999999999872
31
-4.4408920985006183e-15
0
LINE
5
109
100
AcDbEntity
8
0
100
AcDbLine
10
-30.000000000000004
20
1.5374999999999872
30
0
11
-31.000000000000011
21
1.5374999999999917
31
4.9303806576313238e-31
0
LINE
5
110
100
AcDbEntity
8
0
100
AcDbLine
10
-31.000000000000011
20
1.5374999999999917
30
0
11
-50.037500000000023
21
1.5374999999999961
31
3.944304526105059e-30
0
LINE
5
111
100
AcDbEntity
8
0
100
AcDbLine
10
-50.037500000000023
20
1.5375000000000005
30
2.2204460492503131e-15
11
-50.037500000000023
21
-1.5375000000000094
31
2.2204460492503131e-15
0
LINE
5
112
100
AcDbEntity
8
0
100
AcDbLine
10
-50.037500000000001
20
-1.5375000000000139
30
0
11
-30.962499999999984
21
-1.5375000000000094
31
-7.8886090522101181e-30
0
LINE
5
113
100
AcDbEntity
8
0
100
AcDbLine
10
-30.962499999999991
20
-1.537500000000005
30
0
11
-30.962499999999991
21
-0.021141619416722435
31
0
0
LINE
5
114
100
AcDbEntity
8
0
100
AcDbLine
10
-30.962499999999991
20
-0.021141619416722435
30
0
11
-30.037499999999998
21
-0.021141619416722435
31
-2.4651903288156619e-31
0
LINE
5
115
100
AcDbEntity
8
0
100
AcDbLine
10
-30.037499999999998
20
-0.021141619416722435
30
0
11
-30.037499999999998
21
-1.537500000000005
31
0
0
LINE
5
116
100
AcDbEntity
8
0
100
AcDbLine
10
-30.037499999999998
20
-1.537500000000005
30
2.2204460492503131e-15
11
-10.962499999999991
21
-1.5375000000000005
31
2.2204460492503052e-15
0
LINE
5
117
100
AcDbEntity
8
0
100
AcDbLine
10
-10.962499999999986
20
-1.5375000000000005
30
0
11
-10.962499999999986
21
-0.021141619416717994
31
0
0
LINE
5
118
100
AcDbEntity
8
0
100
AcDbLine
10
-10.962499999999991
20
-0.021141619416717994
30
0
11
-10.037500000000001
21
-0.021141619416722435
31
-1.2325951644078309e-31
0
LINE
5
119
100
AcDbEntity
8
0
100
AcDbLine
10
-10.037500000000001
20
-0.021141619416722435
30
-2.2204460492503131e-15
11
-10.037500000000001
21
-1.537500000000005
31
-2.2204460492503131e-15
0
LINE
5
120
100
AcDbEntity
8
0
100
AcDbLine
10
-10.037499999999998
20
-1.5375000000000094
30
2.2204460492503131e-15
11
9.0375000000000139
21
-1.5375000000000094
31
2.2204460492503052e-15
0
LINE
5
121
100
AcDbEntity
8
0
100
AcDbLine
10
9.0375000000000068
20
-1.5375000000000094
30
-2.2204460492503131e-15
11
9.0375000000000014
21
-0.021141619416726876
31
-2.2204460492503131e-15
0
LINE
5
122
100
AcDbEntity
8
0
100
AcDbLine
10
9.0375000000000014
20
-0.021141619416722435
30
0
11
9.962499999999995
21
-0.021141619416722435
31
-7.3955709864469857e-31
0
LINE
5
123
100
AcDbEntity
8
0
100
AcDbLine
10
9.962499999999995
20
-0.021141619416722435
30
0
11
9.962499999999995
21
-1.537500000000005
31
0
0
LINE
5
124
100
AcDbEntity
8
0
100
AcDbLine
10
9.962499999999995
20
-1.537500000000005
30
0
11
29.037500000000001
21
-1.537500000000005
31
-3.944304526105059e-30
0
LINE
5
125
100
AcDbEntity
8
0
100
AcDbLine
10
29.037500000000005
20
-1.537500000000005
30
2.2204460492503131e-15
11
29.037500000000005
21
-0.021141619416722435
31
2.2204460492503131e-15
0
LINE
5
126
100
AcDbEntity
8
0
100
AcDbLine
10
29.037500000000005
20
-0.021141619416722435
30
0
11
29.962499999999999
21
-0.021141619416722435
31
-4.9303806576313238e-31
0
LINE
5
127
100
AcDbEntity
8
0
100
AcDbLine
10
29.962499999999999
20
-0.021141619416717994
30
0
11
29.962499999999999
21
-1.5375000000000005
31
0
0
LINE
5
128
100
AcDbEntity
8
0
100
AcDbLine
10
29.962499999999999
20
-1.5375000000000005
30
0
11
49.037500000000009
21
-1.5374999999999961
31
-1.1832913578315177e-29
0
LINE
5
129
100
AcDbEntity
8
0
100
AcDbLine
10
49.037500000000009
20
-1.5375000000000005
30
0
11
49.037500000000009
21
-0.021141619416717994
31
0
0
LINE
5
130
100
AcDbEntity
8
0
100
AcDbLine
10
49.037500000000009
20
-0.021141619416717994
30
0
11
50.037500000000001
21
-0.021141619416717994
31
-2.4651903288156619e-31
0
ENDSEC
0
SECTION
2
OBJECTS
0
DICTIONARY
5
C
100
AcDbDictionary
3
ACAD_GROUP
350
D
3
ACAD_MLINESTYLE
350
17
0
DICTIONARY
5
D
100
AcDbDictionary
0
DICTIONARY
5
1A
330
C
100
AcDbDictionary
0
DICTIONARY
5
17
100
AcDbDictionary
0
ENDSEC
0
EOF
