0
SECTION
2
HEADER
9
$INSUNITS
70
4
9
$ACADVER
1
AC1014
9
$HANDSEED
5
FFFF
0
ENDSEC
0
SECTION
2
TABLES
0
TABLE
2
VPORT
5
8
100
AcDbSymbolTable
0
ENDTAB
0
TABLE
2
LTYPE
5
5
100
AcDbSymbolTable
0
LTYPE
5
14
100
AcDbSymbolTableRecord
100
AcDbLinetypeTableRecord
2
BYBLOCK
70
0
0
LTYPE
5
15
100
AcDbSymbolTableRecord
100
AcDbLinetypeTableRecord
2
BYLAYER
70
0
0
ENDTAB
0
TABLE
2
LAYER
5
2
100
AcDbSymbolTable
70
2
0
LAYER
5
50
100
AcDbSymbolTableRecord
100
AcDbLayerTableRecord
2
0
70
0
6
CONTINUOUS
0
ENDTAB
0
TABLE
2
STYLE
5
3
100
AcDbSymbolTable
70
1
0
STYLE
5
11
100
AcDbSymbolTableRecord
100
AcDbTextStyleTableRecord
2
STANDARD
70
0
0
ENDTAB
0
TABLE
2
VIEW
5
6
100
AcDbSymbolTable
70
0
0
ENDTAB
0
TABLE
2
UCS
5
7
100
AcDbSymbolTable
70
0
0
ENDTAB
0
TABLE
2
APPID
5
9
100
AcDbSymbolTable
70
2
0
APPID
5
12
100
AcDbSymbolTableRecord
100
AcDbRegAppTableRecord
2
ACAD
70
0
0
ENDTAB
0
TABLE
2
DIMSTYLE
5
A
100
AcDbSymbolTable
70
1
0
ENDTAB
0
TABLE
2
BLOCK_RECORD
5
1
100
AcDbSymbolTable
70
1
0
BLOCK_RECORD
5
1F
100
AcDbSymbolTableRecord
100
AcDbBlockTableRecord
2
*MODEL_SPACE
0
BLOCK_RECORD
5
1B
100
AcDbSymbolTableRecord
100
AcDbBlockTableRecord
2
*PAPER_SPACE
0
ENDTAB
0
ENDSEC
0
SECTION
2
BLOCKS
0
BLOCK
5
20
100
AcDbEntity
100
AcDbBlockBegin
2
*MODEL_SPACE
0
ENDBLK
5
21
100
AcDbEntity
100
AcDbBlockEnd
0
BLOCK
5
1C
100
AcDbEntity
100
AcDbBlockBegin
2
*PAPER_SPACE
0
ENDBLK
5
1D
100
AcDbEntity
100
AcDbBlockEnd
0
ENDSEC
0
SECTION
2
ENTITIES
0
CIRCLE
5
100
100
AcDbEntity
8
0
100
AcDbCircle
10
-4.4271834110419661
20
1.2727272727272521
30
0
40
0.61249999999997695
210
0
220
0
230
1
0
CIRCLE
5
101
100
AcDbEntity
8
0
100
AcDbCircle
10
-5.927183411042023
20
0.22580705206308949
30
0
40
0.61249999999997695
210
0
220
0
230
1
0
CIRCLE
5
102
100
AcDbEntity
8
0
100
AcDbCircle
10
-7.4271834110420798
20
1.2727272727272521
30
0
40
0.61249999999997695
210
0
220
0
230
1
0
LINE
5
103
100
AcDbEntity
8
0
100
AcDbLine
10
-11.673863636363819
20
-8.6962037588959618
30
0
11
-12.673863636363762
21
-8.6962037588959618
31
0
0
LINE
5
104
100
AcDbEntity
8
0
100
AcDbLine
10
-12.673863636363762
20
-8.6962037588959618
30
0
11
-12.673863636363762
21
-11.401136363636368
31
0
0
LINE
5
105
100
AcDbEntity
8
0
100
AcDbLine
10
-12.673863636363762
20
-11.401136363636368
30
0
11
12.673863636363762
21
-11.401136363636368
31
0
0
LINE
5
106
100
AcDbEntity
8
0
100
AcDbLine
10
12.673863636363762
20
-11.401136363636368
30
0
11
12.673863636363762
21
11.401136363636226
31
0
0
LINE
5
107
100
AcDbEntity
8
0
100
AcDbLine
10
12.673863636363762
20
11.401136363636226
30
0
11
-12.673863636363762
21
11.401136363636226
31
0
0
LINE
5
108
100
AcDbEntity
8
0
100
AcDbLine
10
-12.673863636363762
20
11.401136363636226
30
0
11
-12.673863636363762
21
5.4494146588572789
31
0
0
LINE
5
109
100
AcDbEntity
8
0
100
AcDbLine
10
-12.673863636363762
20
5.4494146588572789
30
0
11
-11.673863636363819
21
5.4494146588572789
31
0
0
LINE
5
110
100
AcDbEntity
8
0
100
AcDbLine
10
-11.673863636363819
20
5.4494146588572789
30
0
11
-11.673863636363819
21
2.6295000374337008
31
0
0
LINE
5
111
100
AcDbEntity
8
0
100
AcDbLine
10
-11.673863636363819
20
2.6295000374337008
30
0
11
-12.673863636363762
21
2.6295000374337008
31
0
0
LINE
5
112
100
AcDbEntity
8
0
100
AcDbLine
10
-12.673863636363762
20
2.6295000374337008
30
0
11
-12.673863636363762
21
-6.333383458709676
31
0
0
LINE
5
113
100
AcDbEntity
8
0
100
AcDbLine
10
-12.673863636363762
20
-6.333383458709676
30
0
11
-11.673863636363819
21
-6.333383458709676
31
0
0
LINE
5
114
100
AcDbEntity
8
0
100
AcDbLine
10
-11.673863636363819
20
-6.333383458709676
30
0
11
-11.673863636363819
21
-8.6962037588959618
31
0
0
LINE
5
115
100
AcDbEntity
8
0
100
AcDbLine
10
-2.907865229223745
20
9.6715909090909236
30
0
11
-2.3283197746783912
21
9.6715909090909236
31
0
0
LINE
5
116
100
AcDbEntity
8
0
100
AcDbLine
10
-2.3283197746783912
20
9.6715909090909236
30
0
11
-2.3283197746782491
21
4.3102272727270474
31
0
0
LINE
5
117
100
AcDbEntity
8
0
100
AcDbLine
10
-2.3283197746782491
20
4.3102272727270474
30
0
11
-2.907865229223745
21
4.3102272727270474
31
0
0
LINE
5
118
100
AcDbEntity
8
0
100
AcDbLine
10
-2.907865229223745
20
4.3102272727270474
30
0
11
-2.907865229223745
21
9.6715909090909236
31
0
0
LINE
5
119
100
AcDbEntity
8
0
100
AcDbLine
10
-9.0715015928603293
20
2.3102272727271611
30
0
11
-9.0715015928603293
21
3.2352272727271725
31
0
0
LINE
5
120
100
AcDbEntity
8
0
100
AcDbLine
10
-9.0715015928603293
20
3.2352272727271725
30
0
11
-5.959683411041965
21
3.2352272727271725
31
0
0
LINE
5
121
100
AcDbEntity
8
0
100
AcDbLine
10
-5.959683411041965
20
3.2352272727271725
30
0
11
-5.8946834110420809
21
3.2352272727271725
31
0
0
LINE
5
122
100
AcDbEntity
8
0
100
AcDbLine
10
-5.8946834110420809
20
3.2352272727271725
30
0
11
-2.7828652292237166
21
3.2352272727271725
31
0
0
LINE
5
123
100
AcDbEntity
8
0
100
AcDbLine
10
-2.7828652292237166
20
3.2352272727271725
30
0
11
-2.7828652292237166
21
2.3102272727271611
31
0
0
LINE
5
124
100
AcDbEntity
8
0
100
AcDbLine
10
-2.7828652292237166
20
2.3102272727271611
30
0
11
-9.0715015928603293
21
2.3102272727271611
31
0
0
LINE
5
125
100
AcDbEntity
8
0
100
AcDbLine
10
-2.7828652292237166
20
10.746590909090799
30
0
11
-5.8946834110420809
21
10.746590909090799
31
0
0
LINE
5
126
100
AcDbEntity
8
0
100
AcDbLine
10
-5.8946834110420809
20
10.746590909090799
30
0
11
-5.959683411041965
21
10.746590909090799
31
0
0
LINE
5
127
100
AcDbEntity
8
0
100
AcDbLine
10
-5.959683411041965
20
10.746590909090799
30
0
11
-9.0715015928603293
21
10.746590909090799
31
0
0
LINE
5
128
100
AcDbEntity
8
0
100
AcDbLine
10
-9.0715015928603293
20
10.746590909090799
30
0
11
-9.0715015928603293
21
10.871590909090827
31
0
0
LINE
5
129
100
AcDbEntity
8
0
100
AcDbLine
10
-9.0715015928603293
20
10.871590909090827
30
0
11
-2.7828652292237166
21
10.871590909090827
31
0
0
LINE
5
130
100
AcDbEntity
8
0
100
AcDbLine
10
-2.7828652292237166
20
10.871590909090827
30
0
11
-2.7828652292237166
21
10.746590909090799
31
0
0
LINE
5
131
100
AcDbEntity
8
0
100
AcDbLine
10
4.7932884780307461
20
0.59706040472974564
30
0
11
8.1167433306409009
21
0.59706040472974564
31
0
0
ARC
5
132
100
AcDbEntity
8
0
100
AcDbCircle
10
6.4550159043358235
20
1.6117844200161358
30
0
40
1.9470497853248205
210
0
220
0
230
1
100
AcDbArc
50
211.41007866920609
51
328.58992133079386
0
LINE
5
133
100
AcDbEntity
8
0
100
AcDbLine
10
7.5253834269825859
20
-8.6654740474853043
30
0
11
5.509474336073481
21
-8.6654740474853043
31
0
0
LINE
5
134
100
AcDbEntity
8
0
100
AcDbLine
10
5.509474336073481
20
-8.6654740474853043
30
0
11
5.509474336073481
21
-6.6495649565761994
31
0
0
LINE
5
135
100
AcDbEntity
8
0
100
AcDbLine
10
5.509474336073481
20
-6.6495649565761994
30
0
11
7.5253834269825859
21
-6.6495649565761994
31
0
0
LINE
5
136
100
AcDbEntity
8
0
100
AcDbLine
10
7.5253834269825859
20
-6.6495649565761994
30
0
11
7.5253834269825859
21
-8.6654740474853043
31
0
0
LINE
5
137
100
AcDbEntity
8
0
100
AcDbLine
10
4.7652431770630699
20
1.6720604047296206
30
0
11
4.7652431770630699
21
6.9170454545454163
31
0
0
LINE
5
138
100
AcDbEntity
8
0
100
AcDbLine
10
4.7652431770630699
20
6.9170454545454163
30
0
11
5.917515904335886
21
6.9170454545454163
31
0
0
LINE
5
139
100
AcDbEntity
8
0
100
AcDbLine
10
5.917515904335886
20
6.9170454545454163
30
0
11
5.917515904335886
21
1.6720604047296206
31
0
0
LINE
5
140
100
AcDbEntity
8
0
100
AcDbLine
10
5.917515904335886
20
1.6720604047296206
30
0
11
4.7652431770630699
21
1.6720604047296206
31
0
0
LINE
5
141
100
AcDbEntity
8
0
100
AcDbLine
10
-5.2376769802869205
20
-6.6495649565761994
30
0
11
-5.2376769802869205
21
-8.6654740474853043
31
0
0
LINE
5
142
100
AcDbEntity
8
0
100
AcDbLine
10
-5.2376769802869205
20
-8.6654740474853043
30
0
11
-7.2535860711960254
21
-8.6654740474853043
31
0
0
LINE
5
143
100
AcDbEntity
8
0
100
AcDbLine
10
-7.2535860711960254
20
-8.6654740474853043
30
0
11
-7.2535860711960254
21
-6.6495649565761994
31
0
0
LINE
5
144
100
AcDbEntity
8
0
100
AcDbLine
10
-7.2535860711960254
20
-6.6495649565761994
30
0
11
-5.2376769802869205
21
-6.6495649565761994
31
0
0
LINE
5
145
100
AcDbEntity
8
0
100
AcDbLine
10
-9.5260470474057968
20
4.3102272727270474
30
0
11
-9.5260470474057968
21
9.6715909090909236
31
0
0
LINE
5
146
100
AcDbEntity
8
0
100
AcDbLine
10
-9.5260470474057968
20
9.6715909090909236
30
0
11
-8.9465015928603009
21
9.6715909090909236
31
0
0
LINE
5
147
100
AcDbEntity
8
0
100
AcDbLine
10
-8.9465015928603009
20
9.6715909090909236
30
0
11
-8.9465015928603009
21
4.3102272727270474
31
0
0
LINE
5
148
100
AcDbEntity
8
0
100
AcDbLine
10
-8.9465015928603009
20
4.3102272727270474
30
0
11
-9.5260470474057968
21
4.3102272727270474
31
0
0
LINE
5
149
100
AcDbEntity
8
0
100
AcDbLine
10
8.1447886316085771
20
1.6720604047296206
30
0
11
6.992515904335761
21
1.6720604047296206
31
0
0
LINE
5
150
100
AcDbEntity
8
0
100
AcDbLine
10
6.992515904335761
20
1.6720604047296206
30
0
11
6.992515904335761
21
6.9170454545454163
31
0
0
LINE
5
151
100
AcDbEntity
8
0
100
AcDbLine
10
6.992515904335761
20
6.9170454545454163
30
0
11
8.1447886316085771
21
6.9170454545454163
31
0
0
LINE
5
152
100
AcDbEntity
8
0
100
AcDbLine
10
8.1447886316085771
20
6.9170454545454163
30
0
11
8.1447886316085771
21
1.6720604047296206
31
0
0
ENDSEC
0
SECTION
2
OBJECTS
0
DICTIONARY
5
C
100
AcDbDictionary
3
ACAD_GROUP
350
D
3
ACAD_MLINESTYLE
350
17
0
DICTIONARY
5
D
100
AcDbDictionary
0
DICTIONARY
5
1A
330
C
100
AcDbDictionary
0
DICTIONARY
5
17
100
AcDbDictionary
0
ENDSEC
0
EOF
