0
SECTION
2
HEADER
9
$INSUNITS
70
4
9
$ACADVER
1
AC1014
9
$HANDSEED
5
FFFF
0
ENDSEC
0
SECTION
2
TABLES
0
TABLE
2
VPORT
5
8
100
AcDbSymbolTable
0
ENDTAB
0
TABLE
2
LTYPE
5
5
100
AcDbSymbolTable
0
LTYPE
5
14
100
AcDbSymbolTableRecord
100
AcDbLinetypeTableRecord
2
BYBLOCK
70
0
0
LTYPE
5
15
100
AcDbSymbolTableRecord
100
AcDbLinetypeTableRecord
2
BYLAYER
70
0
0
ENDTAB
0
TABLE
2
LAYER
5
2
100
AcDbSymbolTable
70
2
0
LAYER
5
50
100
AcDbSymbolTableRecord
100
AcDbLayerTableRecord
2
0
70
0
6
CONTINUOUS
0
ENDTAB
0
TABLE
2
STYLE
5
3
100
AcDbSymbolTable
70
1
0
STYLE
5
11
100
AcDbSymbolTableRecord
100
AcDbTextStyleTableRecord
2
STANDARD
70
0
0
ENDTAB
0
TABLE
2
VIEW
5
6
100
AcDbSymbolTable
70
0
0
ENDTAB
0
TABLE
2
UCS
5
7
100
AcDbSymbolTable
70
0
0
ENDTAB
0
TABLE
2
APPID
5
9
100
AcDbSymbolTable
70
2
0
APPID
5
12
100
AcDbSymbolTableRecord
100
AcDbRegAppTableRecord
2
ACAD
70
0
0
ENDTAB
0
TABLE
2
DIMSTYLE
5
A
100
AcDbSymbolTable
70
1
0
ENDTAB
0
TABLE
2
BLOCK_RECORD
5
1
100
AcDbSymbolTable
70
1
0
BLOCK_RECORD
5
1F
100
AcDbSymbolTableRecord
100
AcDbBlockTableRecord
2
*MODEL_SPACE
0
BLOCK_RECORD
5
1B
100
AcDbSymbolTableRecord
100
AcDbBlockTableRecord
2
*PAPER_SPACE
0
ENDTAB
0
ENDSEC
0
SECTION
2
BLOCKS
0
BLOCK
5
20
100
AcDbEntity
100
AcDbBlockBegin
2
*MODEL_SPACE
0
ENDBLK
5
21
100
AcDbEntity
100
AcDbBlockEnd
0
BLOCK
5
1C
100
AcDbEntity
100
AcDbBlockBegin
2
*PAPER_SPACE
0
ENDBLK
5
1D
100
AcDbEntity
100
AcDbBlockEnd
0
ENDSEC
0
SECTION
2
ENTITIES
0
CIRCLE
5
100
100
AcDbEntity
8
0
100
AcDbCircle
10
-8.5745748162086954
20
0
30
0
40
1.3261363636363444
210
0
220
0
230
1
0
LINE
5
101
100
AcDbEntity
8
0
100
AcDbLine
10
10.39766517764221
20
6.7806818181818524
30
0
11
10.39766517764221
21
4.8556818181817851
31
0
0
LINE
5
102
100
AcDbEntity
8
0
100
AcDbLine
10
10.39766517764221
20
4.8556818181817851
30
0
11
3.4353860296779715
21
4.8556818181817851
31
0
0
LINE
5
103
100
AcDbEntity
8
0
100
AcDbLine
10
3.4353860296779715
20
4.8556818181817851
30
0
11
3.4353860296779715
21
6.7806818181818524
31
0
0
LINE
5
104
100
AcDbEntity
8
0
100
AcDbLine
10
3.4353860296779715
20
6.7806818181818524
30
0
11
10.39766517764221
21
6.7806818181818524
31
0
0
LINE
5
105
100
AcDbEntity
8
0
100
AcDbLine
10
-2.6508031298386925
20
-3.0060832941836924
30
0
11
-1.838066075898297
21
-2.5644007371904398
31
0
0
LINE
5
106
100
AcDbEntity
8
0
100
AcDbLine
10
-1.838066075898297
20
-2.5644007371904398
30
0
11
-0.092926030497864076
21
-5.7756210055832753
31
0
0
LINE
5
107
100
AcDbEntity
8
0
100
AcDbLine
10
-0.092926030497864076
20
-5.7756210055832753
30
0
11
-0.9056630844382596
21
-6.2173035625765145
31
0
0
LINE
5
108
100
AcDbEntity
8
0
100
AcDbLine
10
-0.9056630844382596
20
-6.2173035625765145
30
0
11
-2.6508031298386925
21
-3.0060832941836924
31
0
0
LINE
5
109
100
AcDbEntity
8
0
100
AcDbLine
10
-2.023040243557972
20
2.224031035696127
30
0
11
-2.8357772974983675
21
2.6657135926893338
31
0
0
LINE
5
110
100
AcDbEntity
8
0
100
AcDbLine
10
-2.8357772974983675
20
2.6657135926893338
30
0
11
-1.1150651663076872
21
5.8319842231253682
31
0
0
LINE
5
111
100
AcDbEntity
8
0
100
AcDbLine
10
-1.1150651663076872
20
5.8319842231253682
30
0
11
-0.30232811236729162
21
5.3903016661321725
31
0
0
LINE
5
112
100
AcDbEntity
8
0
100
AcDbLine
10
-0.30232811236729162
20
5.3903016661321725
30
0
11
-2.023040243557972
21
2.224031035696127
31
0
0
LINE
5
113
100
AcDbEntity
8
0
100
AcDbLine
10
-12.709649027069787
20
3.0248510378961715
30
0
11
-14.194472273172636
21
6.6613381477509392e-15
31
0
0
LINE
5
114
100
AcDbEntity
8
0
100
AcDbLine
10
-14.194472273172636
20
6.6613381477509392e-15
30
0
11
-12.219546855280896
21
-4.0232769898752991
31
0
0
LINE
5
115
100
AcDbEntity
8
0
100
AcDbLine
10
-12.219546855280896
20
-4.0232769898752991
30
0
11
-13.117226630798626
21
-4.4639253991841148
31
0
0
LINE
5
116
100
AcDbEntity
8
0
100
AcDbLine
10
-13.117226630798626
20
-4.4639253991841148
30
0
11
-11.640265591270946
21
-7.4727597133516603
31
0
0
LINE
5
117
100
AcDbEntity
8
0
100
AcDbLine
10
-11.640265591270946
20
-7.4727597133516603
30
0
11
-10.742585815753216
21
-7.0321113040428695
31
0
0
LINE
5
118
100
AcDbEntity
8
0
100
AcDbLine
10
-10.742585815753216
20
-7.0321113040428695
30
0
11
-8.5370748162087295
21
-11.525132445497805
31
0
0
LINE
5
119
100
AcDbEntity
8
0
100
AcDbLine
10
-8.5370748162087295
20
-11.525132445497805
30
0
11
-8.5370748162087295
21
-10.401136363636365
31
0
0
LINE
5
120
100
AcDbEntity
8
0
100
AcDbLine
10
-8.5370748162087295
20
-10.401136363636365
30
0
11
-3.2502089467224948
21
-10.401136363636365
31
0
0
LINE
5
121
100
AcDbEntity
8
0
100
AcDbLine
10
-3.2502089467224948
20
-10.401136363636365
30
0
11
-3.2502089467224948
21
-11.401136363636361
31
0
0
LINE
5
122
100
AcDbEntity
8
0
100
AcDbLine
10
-3.2502089467224948
20
-11.401136363636361
30
0
11
1.6198445351606949
21
-11.401136363636361
31
0
0
LINE
5
123
100
AcDbEntity
8
0
100
AcDbLine
10
1.6198445351606949
20
-11.401136363636361
30
0
11
1.6198445351606949
21
-10.401136363636365
31
0
0
LINE
5
124
100
AcDbEntity
8
0
100
AcDbLine
10
1.6198445351606949
20
-10.401136363636365
30
0
11
6.4987870266133996
21
-10.401136363636365
31
0
0
LINE
5
125
100
AcDbEntity
8
0
100
AcDbLine
10
6.4987870266133996
20
-10.401136363636365
30
0
11
6.4987870266133996
21
-11.401136363636361
31
0
0
LINE
5
126
100
AcDbEntity
8
0
100
AcDbLine
10
6.4987870266133996
20
-11.401136363636361
30
0
11
11.071472850705391
21
-11.401136363636361
31
0
0
LINE
5
127
100
AcDbEntity
8
0
100
AcDbLine
10
11.071472850705391
20
-11.401136363636361
30
0
11
11.071472850705391
21
-10.401136363636365
31
0
0
LINE
5
128
100
AcDbEntity
8
0
100
AcDbLine
10
11.071472850705391
20
-10.401136363636365
30
0
11
14.190197911063933
21
-10.401136363636365
31
0
0
LINE
5
129
100
AcDbEntity
8
0
100
AcDbLine
10
14.190197911063933
20
-10.401136363636365
30
0
11
14.190197911063933
21
-6.7806818181818196
31
0
0
LINE
5
130
100
AcDbEntity
8
0
100
AcDbLine
10
14.190197911063933
20
-6.7806818181818196
30
0
11
10.429168889030791
21
-6.7806818181818196
31
0
0
LINE
5
131
100
AcDbEntity
8
0
100
AcDbLine
10
10.429168889030791
20
-6.7806818181818196
30
0
11
10.429168889030791
21
-5.8556818181818171
31
0
0
LINE
5
132
100
AcDbEntity
8
0
100
AcDbLine
10
10.429168889030791
20
-5.8556818181818171
30
0
11
14.190197911063933
21
-5.8556818181818171
31
0
0
LINE
5
133
100
AcDbEntity
8
0
100
AcDbLine
10
14.190197911063933
20
-5.8556818181818171
30
0
11
14.190197911063933
21
11.401136363636365
31
0
0
LINE
5
134
100
AcDbEntity
8
0
100
AcDbLine
10
14.190197911063933
20
11.401136363636365
30
0
11
9.9901649186607244
21
11.401136363636365
31
0
0
LINE
5
135
100
AcDbEntity
8
0
100
AcDbLine
10
9.9901649186607244
20
11.401136363636365
30
0
11
9.9901649186607244
21
10.401136363636363
31
0
0
LINE
5
136
100
AcDbEntity
8
0
100
AcDbLine
10
9.9901649186607244
20
10.401136363636363
30
0
11
2.8265615474276728
21
10.401136363636363
31
0
0
LINE
5
137
100
AcDbEntity
8
0
100
AcDbLine
10
2.8265615474276728
20
10.401136363636363
30
0
11
2.8265615474276728
21
11.401136363636365
31
0
0
LINE
5
138
100
AcDbEntity
8
0
100
AcDbLine
10
2.8265615474276728
20
11.401136363636365
30
0
11
-0.43929208942643072
21
11.401136363636365
31
0
0
LINE
5
139
100
AcDbEntity
8
0
100
AcDbLine
10
-0.43929208942643072
20
11.401136363636365
30
0
11
-0.43929208942643072
21
10.401136363636363
31
0
0
LINE
5
140
100
AcDbEntity
8
0
100
AcDbLine
10
-0.43929208942643072
20
10.401136363636363
30
0
11
-4.5020657937217834
21
10.401136363636363
31
0
0
LINE
5
141
100
AcDbEntity
8
0
100
AcDbLine
10
-4.5020657937217834
20
10.401136363636363
30
0
11
-4.5020657937217834
21
11.401136363636365
31
0
0
LINE
5
142
100
AcDbEntity
8
0
100
AcDbLine
10
-4.5020657937217834
20
11.401136363636365
30
0
11
-8.5979413721041453
21
11.401136363636379
31
0
0
LINE
5
143
100
AcDbEntity
8
0
100
AcDbLine
10
-8.5979413721041453
20
11.401136363636379
30
0
11
-11.464542020167983
21
5.5613571385409069
31
0
0
LINE
5
144
100
AcDbEntity
8
0
100
AcDbLine
10
-11.464542020167983
20
5.5613571385409069
30
0
11
-12.362221795685713
21
6.0020055478497003
31
0
0
LINE
5
145
100
AcDbEntity
8
0
100
AcDbLine
10
-12.362221795685713
20
6.0020055478497003
30
0
11
-13.607328802587517
21
3.4654994472049792
31
0
0
LINE
5
146
100
AcDbEntity
8
0
100
AcDbLine
10
-13.607328802587517
20
3.4654994472049792
30
0
11
-12.709649027069787
21
3.0248510378961715
31
0
0
LINE
5
147
100
AcDbEntity
8
0
100
AcDbLine
10
2.1246440318290638
20
-6.7806818181818524
30
0
11
2.1246440318290638
21
-5.8556818181817842
31
0
0
LINE
5
148
100
AcDbEntity
8
0
100
AcDbLine
10
2.1246440318290638
20
-5.8556818181817842
30
0
11
5.3796516167591335
21
-5.8556818181817842
31
0
0
LINE
5
149
100
AcDbEntity
8
0
100
AcDbLine
10
5.3796516167591335
20
-5.8556818181817842
30
0
11
5.3796516167591335
21
-6.7806818181818524
31
0
0
LINE
5
150
100
AcDbEntity
8
0
100
AcDbLine
10
5.3796516167591335
20
-6.7806818181818524
30
0
11
2.1246440318290638
21
-6.7806818181818524
31
0
0
ENDSEC
0
SECTION
2
OBJECTS
0
DICTIONARY
5
C
100
AcDbDictionary
3
ACAD_GROUP
350
D
3
ACAD_MLINESTYLE
350
17
0
DICTIONARY
5
D
100
AcDbDictionary
0
DICTIONARY
5
1A
330
C
100
AcDbDictionary
0
DICTIONARY
5
17
100
AcDbDictionary
0
ENDSEC
0
EOF
