  0
SECTION
  2
HEADER
  9
$ACADVER
  1
AC1015
  9
$ACADMAINTVER
 70
6
  9
$DWGCODEPAGE
  3
ANSI_1252
  9
$TDCREATE
 40
2459268.7756597223
  9
$TDUPDATE
 40
2459268.7756597223
  9
$HANDSEED
  5
101C4
  9
$INSUNITS
 70
4
  9
$FINGERPRINTGUID
  2
8F8ED034-7534-11EB-A622-D20010FD74C0
  9
$VERSIONGUID
  2
8FAF7532-7534-11EB-A622-D20010FD74C0
  0
ENDSEC
  0
SECTION
  2
CLASSES
  0
CLASS
  1
ACDBDICTIONARYWDFLT
  2
AcDbDictionaryWithDefault
  3
ObjectDBX Classes
 90
0
280
0
281
0
  0
CLASS
  1
SUN
  2
AcDbSun
  3
SCENEOE
 90
1153
280
0
281
0
  0
CLASS
  1
VISUALSTYLE
  2
AcDbVisualStyle
  3
ObjectDBX Classes
 90
4095
280
0
281
0
  0
CLASS
  1
MATERIAL
  2
AcDbMaterial
  3
ObjectDBX Classes
 90
1153
280
0
281
0
  0
CLASS
  1
SCALE
  2
AcDbScale
  3
ObjectDBX Classes
 90
1153
280
0
281
0
  0
CLASS
  1
TABLESTYLE
  2
AcDbTableStyle
  3
ObjectDBX Classes
 90
4095
280
0
281
0
  0
CLASS
  1
MLEADERSTYLE
  2
AcDbMLeaderStyle
  3
ACDB_MLEADERSTYLE_CLASS
 90
4095
280
0
281
0
  0
CLASS
  1
DICTIONARYVAR
  2
AcDbDictionaryVar
  3
ObjectDBX Classes
 90
0
280
0
281
0
  0
CLASS
  1
CELLSTYLEMAP
  2
AcDbCellStyleMap
  3
ObjectDBX Classes
 90
1152
280
0
281
0
  0
CLASS
  1
MENTALRAYRENDERSETTINGS
  2
AcDbMentalRayRenderSettings
  3
SCENEOE
 90
1024
280
0
281
0
  0
CLASS
  1
ACDBDETAILVIEWSTYLE
  2
AcDbDetailViewStyle
  3
ObjectDBX Classes
 90
1025
280
0
281
0
  0
CLASS
  1
ACDBSECTIONVIEWSTYLE
  2
AcDbSectionViewStyle
  3
ObjectDBX Classes
 90
1025
280
0
281
0
  0
CLASS
  1
RASTERVARIABLES
  2
AcDbRasterVariables
  3
ISM
 90
0
280
0
281
0
  0
CLASS
  1
ACDBPLACEHOLDER
  2
AcDbPlaceHolder
  3
ObjectDBX Classes
 90
0
280
0
281
0
  0
CLASS
  1
LAYOUT
  2
AcDbLayout
  3
ObjectDBX Classes
 90
0
280
0
281
0
  0
ENDSEC
  0
SECTION
  2
TABLES
  0
TABLE
  2
VPORT
  5
8
330
0
100
AcDbSymbolTable
 70
1
  0
VPORT
  5
1006A
330
8
100
AcDbSymbolTableRecord
100
AcDbViewportTableRecord
  2
*Active
 70
0
 10
0.0
 20
0.0
 11
1.0
 21
1.0
 12
70.0
 22
50.0
 13
0.0
 23
0.0
 14
0.5
 24
0.5
 15
0.5
 25
0.5
 16
0.0
 26
0.0
 36
1.0
 17
0.0
 27
0.0
 37
0.0
 40
1.0
 41
1.34
 42
50.0
 43
0.0
 44
0.0
 50
0.0
 51
0.0
 71
0
 72
1000
 73
1
 74
3
 75
0
 76
0
 77
0
 78
0
281
0
 65
0
146
0.0
  0
ENDTAB
  0
TABLE
  2
LTYPE
  5
5
330
0
100
AcDbSymbolTable
 70
3
  0
LTYPE
  5
1006B
330
5
100
AcDbSymbolTableRecord
100
AcDbLinetypeTableRecord
  2
Continuous
 70
0
  3

 72
65
 73
0
 40
0.0
  0
ENDTAB
  0
TABLE
  2
LAYER
  5
2
330
0
100
AcDbSymbolTable
 70
2
  0
LAYER
  5
50
330
2
100
AcDbSymbolTableRecord
100
AcDbLayerTableRecord
  2
0
 70
0
 62
7
  6
CONTINUOUS
370
-3
390
10060
  0
LAYER
  5
1006C
330
2
100
AcDbSymbolTableRecord
100
AcDbLayerTableRecord
  2
Defpoints
 70
0
 62
7
  6
Continuous
290
0
370
-3
390
10060
  0
ENDTAB
  0
TABLE
  2
STYLE
  5
3
330
0
100
AcDbSymbolTable
 70
1
  0
STYLE
  5
11
330
3
100
AcDbSymbolTableRecord
100
AcDbTextStyleTableRecord
  2
STANDARD
 70
0
 40
0.0
 41
1.0
 50
0.0
 71
0
 42
2.5
  3
txt
  4

  0
ENDTAB
  0
TABLE
  2
VIEW
  5
6
330
0
100
AcDbSymbolTable
 70
0
  0
ENDTAB
  0
TABLE
  2
UCS
  5
7
330
0
100
AcDbSymbolTable
 70
0
  0
ENDTAB
  0
TABLE
  2
APPID
  5
9
330
0
100
AcDbSymbolTable
 70
2
  0
APPID
  5
12
330
9
100
AcDbSymbolTableRecord
100
AcDbRegAppTableRecord
  2
ACAD
 70
0
  0
APPID
  5
101C3
330
9
100
AcDbSymbolTableRecord
100
AcDbRegAppTableRecord
  2
HATCHBACKGROUNDCOLOR
 70
0
  0
ENDTAB
  0
TABLE
  2
DIMSTYLE
  5
A
330
0
100
AcDbSymbolTable
 70
1
100
AcDbDimStyleTable
  0
DIMSTYLE
105
1006D
330
A
100
AcDbSymbolTableRecord
100
AcDbDimStyleTableRecord
  2
Standard
 70
0
  3

  4

 40
1.0
 41
2.5
 42
0.625
 43
3.75
 44
1.25
 45
0.0
 46
0.0
 47
0.0
 48
0.0
140
2.5
141
2.5
142
0.0
143
0.03937007874
144
1.0
145
0.0
146
1.0
147
0.625
148
0.0
 71
0
 72
0
 73
0
 74
0
 75
0
 76
0
 77
1
 78
8
 79
0
170
0
171
3
172
1
173
0
174
0
175
0
176
0
177
0
178
0
179
0
271
0
272
2
273
2
274
3
275
0
276
0
277
2
278
44
279
0
280
0
281
0
282
0
283
0
284
8
285
0
286
0
288
0
289
3
371
-2
372
-2
  0
ENDTAB
  0
TABLE
  2
BLOCK_RECORD
  5
1
330
0
100
AcDbSymbolTable
 70
22
  0
BLOCK_RECORD
  5
1F
330
1
100
AcDbSymbolTableRecord
100
AcDbBlockTableRecord
  2
*MODEL_SPACE
340
10064
  0
BLOCK_RECORD
  5
1B
330
1
100
AcDbSymbolTableRecord
100
AcDbBlockTableRecord
  2
*PAPER_SPACE
340
10065
  0
BLOCK_RECORD
  5
FFFF
330
1
100
AcDbSymbolTableRecord
100
AcDbBlockTableRecord
  2
_CLOSEDFILLED
340
0
  0
BLOCK_RECORD
  5
10003
330
1
100
AcDbSymbolTableRecord
100
AcDbBlockTableRecord
  2
_CLOSED
340
0
  0
BLOCK_RECORD
  5
10008
330
1
100
AcDbSymbolTableRecord
100
AcDbBlockTableRecord
  2
_DATUMFILLED
340
0
  0
BLOCK_RECORD
  5
1000C
330
1
100
AcDbSymbolTableRecord
100
AcDbBlockTableRecord
  2
_DOTBLANK
340
0
  0
BLOCK_RECORD
  5
10011
330
1
100
AcDbSymbolTableRecord
100
AcDbBlockTableRecord
  2
_ORIGIN
340
0
  0
BLOCK_RECORD
  5
10016
330
1
100
AcDbSymbolTableRecord
100
AcDbBlockTableRecord
  2
_OPEN90
340
0
  0
BLOCK_RECORD
  5
1001B
330
1
100
AcDbSymbolTableRecord
100
AcDbBlockTableRecord
  2
_OPEN30
340
0
  0
BLOCK_RECORD
  5
10020
330
1
100
AcDbSymbolTableRecord
100
AcDbBlockTableRecord
  2
_OBLIQUE
340
0
  0
BLOCK_RECORD
  5
10024
330
1
100
AcDbSymbolTableRecord
100
AcDbBlockTableRecord
  2
_INTEGRAL
340
0
  0
BLOCK_RECORD
  5
10029
330
1
100
AcDbSymbolTableRecord
100
AcDbBlockTableRecord
  2
_OPEN
340
0
  0
BLOCK_RECORD
  5
1002E
330
1
100
AcDbSymbolTableRecord
100
AcDbBlockTableRecord
  2
_DATUMBLANK
340
0
  0
BLOCK_RECORD
  5
10032
330
1
100
AcDbSymbolTableRecord
100
AcDbBlockTableRecord
  2
_DOTSMALL
340
0
  0
BLOCK_RECORD
  5
10036
330
1
100
AcDbSymbolTableRecord
100
AcDbBlockTableRecord
  2
_NONE
340
0
  0
BLOCK_RECORD
  5
10039
330
1
100
AcDbSymbolTableRecord
100
AcDbBlockTableRecord
  2
_ARCHTICK
340
0
  0
BLOCK_RECORD
  5
1003D
330
1
100
AcDbSymbolTableRecord
100
AcDbBlockTableRecord
  2
_BOXBLANK
340
0
  0
BLOCK_RECORD
  5
10042
330
1
100
AcDbSymbolTableRecord
100
AcDbBlockTableRecord
  2
_BOXFILLED
340
0
  0
BLOCK_RECORD
  5
10047
330
1
100
AcDbSymbolTableRecord
100
AcDbBlockTableRecord
  2
_CLOSEDBLANK
340
0
  0
BLOCK_RECORD
  5
1004B
330
1
100
AcDbSymbolTableRecord
100
AcDbBlockTableRecord
  2
_SMALL
340
0
  0
BLOCK_RECORD
  5
1004F
330
1
100
AcDbSymbolTableRecord
100
AcDbBlockTableRecord
  2
_ORIGIN2
340
0
  0
BLOCK_RECORD
  5
10055
330
1
100
AcDbSymbolTableRecord
100
AcDbBlockTableRecord
  2
_DOT
340
0
  0
ENDTAB
  0
ENDSEC
  0
SECTION
  2
BLOCKS
  0
BLOCK
  5
20
330
1F
100
AcDbEntity
  8
0
100
AcDbBlockBegin
  2
*MODEL_SPACE
 70
0
 10
0.0
 20
0.0
 30
0.0
  3
*MODEL_SPACE
  1

  0
ENDBLK
  5
21
330
1F
100
AcDbEntity
  8
0
100
AcDbBlockEnd
  0
BLOCK
  5
1C
330
1B
100
AcDbEntity
  8
0
100
AcDbBlockBegin
  2
*PAPER_SPACE
 70
0
 10
0.0
 20
0.0
 30
0.0
  3
*PAPER_SPACE
  1

  0
ENDBLK
  5
1D
330
1B
100
AcDbEntity
  8
0
100
AcDbBlockEnd
  0
BLOCK
  5
10000
330
FFFF
100
AcDbEntity
  8
0
100
AcDbBlockBegin
  2
_CLOSEDFILLED
 70
0
 10
0.0
 20
0.0
 30
0.0
  3
_CLOSEDFILLED
  1

  0
SOLID
  5
10002
330
FFFF
100
AcDbEntity
  8
0
  6
BYBLOCK
 62
0
100
AcDbTrace
 10
-1.0
 20
0.1643989837240255
 30
0.0
 11
0.0
 21
0.0
 31
0.0
 12
-1.0
 22
-0.1643989837240255
 32
0.0
 13
-1.0
 23
-0.1643989837240255
 33
0.0
  0
ENDBLK
  5
10001
330
FFFF
100
AcDbEntity
  8
0
100
AcDbBlockEnd
  0
BLOCK
  5
10004
330
10003
100
AcDbEntity
  8
0
100
AcDbBlockBegin
  2
_CLOSED
 70
0
 10
0.0
 20
0.0
 30
0.0
  3
_CLOSED
  1

  0
LWPOLYLINE
  5
10006
330
10003
100
AcDbEntity
  8
0
  6
BYBLOCK
 62
0
100
AcDbPolyline
 90
3
 70
1
 10
-1.0
 20
0.1643989837240255
 10
0.0
 20
0.0
 10
-1.0
 20
-0.1643989837240255
  0
LINE
  5
10007
330
10003
100
AcDbEntity
  8
0
  6
BYBLOCK
 62
0
100
AcDbLine
 10
0.0
 20
0.0
 30
0.0
 11
-1.0
 21
0.0
 31
0.0
  0
ENDBLK
  5
10005
330
10003
100
AcDbEntity
  8
0
100
AcDbBlockEnd
  0
BLOCK
  5
10009
330
10008
100
AcDbEntity
  8
0
100
AcDbBlockBegin
  2
_DATUMFILLED
 70
0
 10
0.0
 20
0.0
 30
0.0
  3
_DATUMFILLED
  1

  0
SOLID
  5
1000B
330
10008
100
AcDbEntity
  8
0
  6
BYBLOCK
 62
0
100
AcDbTrace
 10
3.5352507945885664e-17
 20
0.577350269
 30
0.0
 11
3.5352507945885664e-17
 21
-0.577350269
 31
0.0
 12
-1.0
 22
1.2246467991473532e-16
 32
0.0
 13
-1.0
 23
1.2246467991473532e-16
 33
0.0
  0
ENDBLK
  5
1000A
330
10008
100
AcDbEntity
  8
0
100
AcDbBlockEnd
  0
BLOCK
  5
1000D
330
1000C
100
AcDbEntity
  8
0
100
AcDbBlockBegin
  2
_DOTBLANK
 70
0
 10
0.0
 20
0.0
 30
0.0
  3
_DOTBLANK
  1

  0
CIRCLE
  5
1000F
330
1000C
100
AcDbEntity
  8
0
  6
BYBLOCK
 62
0
100
AcDbCircle
 10
0.0
 20
0.0
 30
0.0
 40
0.5
  0
LINE
  5
10010
330
1000C
100
AcDbEntity
  8
0
  6
BYBLOCK
 62
0
100
AcDbLine
 10
-0.5
 20
6.123233995736766e-17
 30
0.0
 11
-1.0
 21
1.2246467991473532e-16
 31
0.0
  0
ENDBLK
  5
1000E
330
1000C
100
AcDbEntity
  8
0
100
AcDbBlockEnd
  0
BLOCK
  5
10012
330
10011
100
AcDbEntity
  8
0
100
AcDbBlockBegin
  2
_ORIGIN
 70
0
 10
0.0
 20
0.0
 30
0.0
  3
_ORIGIN
  1

  0
CIRCLE
  5
10014
330
10011
100
AcDbEntity
  8
0
  6
BYBLOCK
 62
0
100
AcDbCircle
 10
0.0
 20
0.0
 30
0.0
 40
0.5
  0
LINE
  5
10015
330
10011
100
AcDbEntity
  8
0
  6
BYBLOCK
 62
0
100
AcDbLine
 10
0.0
 20
0.0
 30
0.0
 11
-1.0
 21
1.2246467991473532e-16
 31
0.0
  0
ENDBLK
  5
10013
330
10011
100
AcDbEntity
  8
0
100
AcDbBlockEnd
  0
BLOCK
  5
10017
330
10016
100
AcDbEntity
  8
0
100
AcDbBlockBegin
  2
_OPEN90
 70
0
 10
0.0
 20
0.0
 30
0.0
  3
_OPEN90
  1

  0
LWPOLYLINE
  5
10019
330
10016
100
AcDbEntity
  8
0
  6
BYBLOCK
 62
0
100
AcDbPolyline
 90
3
 70
0
 10
-0.9999999999999998
 20
0.7071067811865476
 10
0.0
 20
0.0
 10
-0.9999999999999998
 20
-0.7071067811865476
  0
LINE
  5
1001A
330
10016
100
AcDbEntity
  8
0
  6
BYBLOCK
 62
0
100
AcDbLine
 10
0.0
 20
0.0
 30
0.0
 11
-1.0
 21
1.2246467991473532e-16
 31
0.0
  0
ENDBLK
  5
10018
330
10016
100
AcDbEntity
  8
0
100
AcDbBlockEnd
  0
BLOCK
  5
1001C
330
1001B
100
AcDbEntity
  8
0
100
AcDbBlockBegin
  2
_OPEN30
 70
0
 10
0.0
 20
0.0
 30
0.0
  3
_OPEN30
  1

  0
LWPOLYLINE
  5
1001E
330
1001B
100
AcDbEntity
  8
0
  6
BYBLOCK
 62
0
100
AcDbPolyline
 90
3
 70
0
 10
-0.9999999999999999
 20
0.2588190451025208
 10
0.0
 20
0.0
 10
-0.9999999999999999
 20
-0.2588190451025208
  0
LINE
  5
1001F
330
1001B
100
AcDbEntity
  8
0
  6
BYBLOCK
 62
0
100
AcDbLine
 10
0.0
 20
0.0
 30
0.0
 11
-1.0
 21
1.2246467991473532e-16
 31
0.0
  0
ENDBLK
  5
1001D
330
1001B
100
AcDbEntity
  8
0
100
AcDbBlockEnd
  0
BLOCK
  5
10021
330
10020
100
AcDbEntity
  8
0
100
AcDbBlockBegin
  2
_OBLIQUE
 70
0
 10
0.0
 20
0.0
 30
0.0
  3
_OBLIQUE
  1

  0
LINE
  5
10023
330
10020
100
AcDbEntity
  8
0
  6
BYBLOCK
 62
0
100
AcDbLine
 10
-0.5
 20
-0.5000000000000001
 30
0.0
 11
0.5000000000000001
 21
0.5
 31
0.0
  0
ENDBLK
  5
10022
330
10020
100
AcDbEntity
  8
0
100
AcDbBlockEnd
  0
BLOCK
  5
10025
330
10024
100
AcDbEntity
  8
0
100
AcDbBlockBegin
  2
_INTEGRAL
 70
0
 10
0.0
 20
0.0
 30
0.0
  3
_INTEGRAL
  1

  0
ARC
  5
10027
330
10024
100
AcDbEntity
  8
0
  6
BYBLOCK
 62
0
100
AcDbCircle
 10
-0.3535534
 20
4.329780396376638e-17
 30
0.0
 40
0.3535534
100
AcDbArc
 50
-90.0
 51
0.0
  0
ARC
  5
10028
330
10024
100
AcDbEntity
  8
0
  6
BYBLOCK
 62
0
100
AcDbCircle
 10
0.3535534
 20
0.0
 30
0.0
 40
0.3535534
100
AcDbArc
 50
90.0
 51
180.0
  0
ENDBLK
  5
10026
330
10024
100
AcDbEntity
  8
0
100
AcDbBlockEnd
  0
BLOCK
  5
1002A
330
10029
100
AcDbEntity
  8
0
100
AcDbBlockBegin
  2
_OPEN
 70
0
 10
0.0
 20
0.0
 30
0.0
  3
_OPEN
  1

  0
LWPOLYLINE
  5
1002C
330
10029
100
AcDbEntity
  8
0
  6
BYBLOCK
 62
0
100
AcDbPolyline
 90
3
 70
0
 10
-1.0
 20
0.1643989837240255
 10
0.0
 20
0.0
 10
-1.0
 20
-0.1643989837240255
  0
LINE
  5
1002D
330
10029
100
AcDbEntity
  8
0
  6
BYBLOCK
 62
0
100
AcDbLine
 10
0.0
 20
0.0
 30
0.0
 11
-1.0
 21
1.2246467991473532e-16
 31
0.0
  0
ENDBLK
  5
1002B
330
10029
100
AcDbEntity
  8
0
100
AcDbBlockEnd
  0
BLOCK
  5
1002F
330
1002E
100
AcDbEntity
  8
0
100
AcDbBlockBegin
  2
_DATUMBLANK
 70
0
 10
0.0
 20
0.0
 30
0.0
  3
_DATUMBLANK
  1

  0
LWPOLYLINE
  5
10031
330
1002E
100
AcDbEntity
  8
0
  6
BYBLOCK
 62
0
100
AcDbPolyline
 90
3
 70
1
 10
3.5352507945885664e-17
 20
0.577350269
 10
3.5352507945885664e-17
 20
-0.577350269
 10
-1.0
 20
1.2246467991473532e-16
  0
ENDBLK
  5
10030
330
1002E
100
AcDbEntity
  8
0
100
AcDbBlockEnd
  0
BLOCK
  5
10033
330
10032
100
AcDbEntity
  8
0
100
AcDbBlockBegin
  2
_DOTSMALL
 70
0
 10
0.0
 20
0.0
 30
0.0
  3
_DOTSMALL
  1

  0
LWPOLYLINE
  5
10035
330
10032
100
AcDbEntity
  8
0
  6
BYBLOCK
 62
0
100
AcDbPolyline
 90
2
 70
1
 43
0.125
 10
-0.0625
 20
0.0
 42
1.0
 10
0.0625
 20
0.0
 42
1.0
  0
ENDBLK
  5
10034
330
10032
100
AcDbEntity
  8
0
100
AcDbBlockEnd
  0
BLOCK
  5
10037
330
10036
100
AcDbEntity
  8
0
100
AcDbBlockBegin
  2
_NONE
 70
0
 10
0.0
 20
0.0
 30
0.0
  3
_NONE
  1

  0
ENDBLK
  5
10038
330
10036
100
AcDbEntity
  8
0
100
AcDbBlockEnd
  0
BLOCK
  5
1003A
330
10039
100
AcDbEntity
  8
0
100
AcDbBlockBegin
  2
_ARCHTICK
 70
0
 10
0.0
 20
0.0
 30
0.0
  3
_ARCHTICK
  1

  0
LWPOLYLINE
  5
1003C
330
10039
100
AcDbEntity
  8
0
  6
BYBLOCK
 62
0
100
AcDbPolyline
 90
2
 70
0
 43
0.15
 10
-0.5
 20
-0.5000000000000001
 10
0.5000000000000001
 20
0.5
  0
ENDBLK
  5
1003B
330
10039
100
AcDbEntity
  8
0
100
AcDbBlockEnd
  0
BLOCK
  5
1003E
330
1003D
100
AcDbEntity
  8
0
100
AcDbBlockBegin
  2
_BOXBLANK
 70
0
 10
0.0
 20
0.0
 30
0.0
  3
_BOXBLANK
  1

  0
LWPOLYLINE
  5
10040
330
1003D
100
AcDbEntity
  8
0
  6
BYBLOCK
 62
0
100
AcDbPolyline
 90
4
 70
1
 10
-0.5
 20
-0.5000000000000001
 10
0.5000000000000001
 20
-0.5
 10
0.5000000000000001
 20
0.5
 10
-0.5
 20
0.5000000000000001
  0
LINE
  5
10041
330
1003D
100
AcDbEntity
  8
0
  6
BYBLOCK
 62
0
100
AcDbLine
 10
-0.5
 20
6.123233995736766e-17
 30
0.0
 11
-1.0
 21
1.2246467991473532e-16
 31
0.0
  0
ENDBLK
  5
1003F
330
1003D
100
AcDbEntity
  8
0
100
AcDbBlockEnd
  0
BLOCK
  5
10043
330
10042
100
AcDbEntity
  8
0
100
AcDbBlockBegin
  2
_BOXFILLED
 70
0
 10
0.0
 20
0.0
 30
0.0
  3
_BOXFILLED
  1

  0
SOLID
  5
10045
330
10042
100
AcDbEntity
  8
0
  6
BYBLOCK
 62
0
100
AcDbTrace
 10
-0.5
 20
-0.5000000000000001
 30
0.0
 11
0.5000000000000001
 21
-0.5
 31
0.0
 12
-0.5
 22
0.5000000000000001
 32
0.0
 13
0.5000000000000001
 23
0.5
 33
0.0
  0
LINE
  5
10046
330
10042
100
AcDbEntity
  8
0
  6
BYBLOCK
 62
0
100
AcDbLine
 10
-0.5
 20
6.123233995736766e-17
 30
0.0
 11
-1.0
 21
1.2246467991473532e-16
 31
0.0
  0
ENDBLK
  5
10044
330
10042
100
AcDbEntity
  8
0
100
AcDbBlockEnd
  0
BLOCK
  5
10048
330
10047
100
AcDbEntity
  8
0
100
AcDbBlockBegin
  2
_CLOSEDBLANK
 70
0
 10
0.0
 20
0.0
 30
0.0
  3
_CLOSEDBLANK
  1

  0
LWPOLYLINE
  5
1004A
330
10047
100
AcDbEntity
  8
0
  6
BYBLOCK
 62
0
100
AcDbPolyline
 90
3
 70
1
 10
-1.0
 20
0.1643989837240255
 10
0.0
 20
0.0
 10
-1.0
 20
-0.1643989837240255
  0
ENDBLK
  5
10049
330
10047
100
AcDbEntity
  8
0
100
AcDbBlockEnd
  0
BLOCK
  5
1004C
330
1004B
100
AcDbEntity
  8
0
100
AcDbBlockBegin
  2
_SMALL
 70
0
 10
0.0
 20
0.0
 30
0.0
  3
_SMALL
  1

  0
CIRCLE
  5
1004E
330
1004B
100
AcDbEntity
  8
0
  6
BYBLOCK
 62
0
100
AcDbCircle
 10
0.0
 20
0.0
 30
0.0
 40
0.25
  0
ENDBLK
  5
1004D
330
1004B
100
AcDbEntity
  8
0
100
AcDbBlockEnd
  0
BLOCK
  5
10050
330
1004F
100
AcDbEntity
  8
0
100
AcDbBlockBegin
  2
_ORIGIN2
 70
0
 10
0.0
 20
0.0
 30
0.0
  3
_ORIGIN2
  1

  0
CIRCLE
  5
10052
330
1004F
100
AcDbEntity
  8
0
  6
BYBLOCK
 62
0
100
AcDbCircle
 10
0.0
 20
0.0
 30
0.0
 40
0.5
  0
CIRCLE
  5
10053
330
1004F
100
AcDbEntity
  8
0
  6
BYBLOCK
 62
0
100
AcDbCircle
 10
0.0
 20
0.0
 30
0.0
 40
0.25
  0
LINE
  5
10054
330
1004F
100
AcDbEntity
  8
0
  6
BYBLOCK
 62
0
100
AcDbLine
 10
-0.5
 20
6.123233995736766e-17
 30
0.0
 11
-1.0
 21
1.2246467991473532e-16
 31
0.0
  0
ENDBLK
  5
10051
330
1004F
100
AcDbEntity
  8
0
100
AcDbBlockEnd
  0
BLOCK
  5
10056
330
10055
100
AcDbEntity
  8
0
100
AcDbBlockBegin
  2
_DOT
 70
0
 10
0.0
 20
0.0
 30
0.0
  3
_DOT
  1

  0
LINE
  5
10058
330
10055
100
AcDbEntity
  8
0
  6
BYBLOCK
 62
0
100
AcDbLine
 10
-0.5
 20
6.123233995736766e-17
 30
0.0
 11
-1.0
 21
1.2246467991473532e-16
 31
0.0
  0
LWPOLYLINE
  5
10059
330
10055
100
AcDbEntity
  8
0
  6
BYBLOCK
 62
0
100
AcDbPolyline
 90
2
 70
1
 43
0.5
 10
-0.25
 20
0.0
 42
1.0
 10
0.25
 20
0.0
 42
1.0
  0
ENDBLK
  5
10057
330
10055
100
AcDbEntity
  8
0
100
AcDbBlockEnd
  0
ENDSEC
  0
SECTION
  2
ENTITIES
  0
CIRCLE
  5
100
330
1F
100
AcDbEntity
  8
0
100
AcDbCircle
 10
15.61989745696394
 20
11.525132445497805
 30
0.0
 40
1.3261363636363444
  0
LINE
  5
101
330
1F
100
AcDbEntity
  8
0
100
AcDbLine
 10
34.592137450814846
 20
18.305814263679657
 30
0.0
 11
34.592137450814846
 21
16.38081426367959
 31
0.0
  0
LINE
  5
102
330
1F
100
AcDbEntity
  8
0
100
AcDbLine
 10
34.592137450814846
 20
16.38081426367959
 30
0.0
 11
27.629858302850607
 21
16.38081426367959
 31
0.0
  0
LINE
  5
103
330
1F
100
AcDbEntity
  8
0
100
AcDbLine
 10
27.629858302850607
 20
16.38081426367959
 30
0.0
 11
27.629858302850607
 21
18.305814263679657
 31
0.0
  0
LINE
  5
104
330
1F
100
AcDbEntity
  8
0
100
AcDbLine
 10
27.629858302850607
 20
18.305814263679657
 30
0.0
 11
34.592137450814846
 21
18.305814263679657
 31
0.0
  0
LINE
  5
105
330
1F
100
AcDbEntity
  8
0
100
AcDbLine
 10
21.543669143333943
 20
8.519049151314112
 30
0.0
 11
22.35640619727434
 21
8.960731708307366
 31
0.0
  0
LINE
  5
106
330
1F
100
AcDbEntity
  8
0
100
AcDbLine
 10
22.35640619727434
 20
8.960731708307366
 30
0.0
 11
24.10154624267477
 21
5.74951143991453
 31
0.0
  0
LINE
  5
107
330
1F
100
AcDbEntity
  8
0
100
AcDbLine
 10
24.10154624267477
 20
5.74951143991453
 30
0.0
 11
23.288809188734376
 21
5.3078288829212905
 31
0.0
  0
LINE
  5
108
330
1F
100
AcDbEntity
  8
0
100
AcDbLine
 10
23.288809188734376
 20
5.3078288829212905
 30
0.0
 11
21.543669143333943
 21
8.519049151314112
 31
0.0
  0
LINE
  5
109
330
1F
100
AcDbEntity
  8
0
100
AcDbLine
 10
22.171432029614664
 20
13.749163481193932
 30
0.0
 11
21.35869497567427
 21
14.19084603818714
 31
0.0
  0
LINE
  5
110
330
1F
100
AcDbEntity
  8
0
100
AcDbLine
 10
21.35869497567427
 20
14.19084603818714
 30
0.0
 11
23.07940710686495
 21
17.357116668623174
 31
0.0
  0
LINE
  5
111
330
1F
100
AcDbEntity
  8
0
100
AcDbLine
 10
23.07940710686495
 20
17.357116668623174
 30
0.0
 11
23.892144160805344
 21
16.915434111629978
 31
0.0
  0
LINE
  5
112
330
1F
100
AcDbEntity
  8
0
100
AcDbLine
 10
23.892144160805344
 20
16.915434111629978
 30
0.0
 11
22.171432029614664
 21
13.749163481193932
 31
0.0
  0
LINE
  5
113
330
1F
100
AcDbEntity
  8
0
100
AcDbLine
 10
11.484823246102849
 20
14.549983483393977
 30
0.0
 11
10.0
 21
11.525132445497812
 31
0.0
  0
LINE
  5
114
330
1F
100
AcDbEntity
  8
0
100
AcDbLine
 10
10.0
 20
11.525132445497812
 30
0.0
 11
11.97492541789174
 21
7.501855455622506
 31
0.0
  0
LINE
  5
115
330
1F
100
AcDbEntity
  8
0
100
AcDbLine
 10
11.97492541789174
 20
7.501855455622506
 30
0.0
 11
11.07724564237401
 21
7.06120704631369
 31
0.0
  0
LINE
  5
116
330
1F
100
AcDbEntity
  8
0
100
AcDbLine
 10
11.07724564237401
 20
7.06120704631369
 30
0.0
 11
12.55420668190169
 21
4.052372732146145
 31
0.0
  0
LINE
  5
117
330
1F
100
AcDbEntity
  8
0
100
AcDbLine
 10
12.55420668190169
 20
4.052372732146145
 30
0.0
 11
13.45188645741942
 21
4.4930211414549355
 31
0.0
  0
LINE
  5
118
330
1F
100
AcDbEntity
  8
0
100
AcDbLine
 10
13.45188645741942
 20
4.4930211414549355
 30
0.0
 11
15.657397456963906
 21
0.0
 31
0.0
  0
LINE
  5
119
330
1F
100
AcDbEntity
  8
0
100
AcDbLine
 10
15.657397456963906
 20
0.0
 30
0.0
 11
15.657397456963906
 21
1.1239960818614403
 31
0.0
  0
LINE
  5
120
330
1F
100
AcDbEntity
  8
0
100
AcDbLine
 10
15.657397456963906
 20
1.1239960818614403
 30
0.0
 11
20.94426332645014
 21
1.1239960818614403
 31
0.0
  0
LINE
  5
121
330
1F
100
AcDbEntity
  8
0
100
AcDbLine
 10
20.94426332645014
 20
1.1239960818614403
 30
0.0
 11
20.94426332645014
 21
0.12399608186144384
 31
0.0
  0
LINE
  5
122
330
1F
100
AcDbEntity
  8
0
100
AcDbLine
 10
20.94426332645014
 20
0.12399608186144384
 30
0.0
 11
25.81431680833333
 21
0.12399608186144384
 31
0.0
  0
LINE
  5
123
330
1F
100
AcDbEntity
  8
0
100
AcDbLine
 10
25.81431680833333
 20
0.12399608186144384
 30
0.0
 11
25.81431680833333
 21
1.1239960818614403
 31
0.0
  0
LINE
  5
124
330
1F
100
AcDbEntity
  8
0
100
AcDbLine
 10
25.81431680833333
 20
1.1239960818614403
 30
0.0
 11
30.693259299786035
 21
1.1239960818614403
 31
0.0
  0
LINE
  5
125
330
1F
100
AcDbEntity
  8
0
100
AcDbLine
 10
30.693259299786035
 20
1.1239960818614403
 30
0.0
 11
30.693259299786035
 21
0.12399608186144384
 31
0.0
  0
LINE
  5
126
330
1F
100
AcDbEntity
  8
0
100
AcDbLine
 10
30.693259299786035
 20
0.12399608186144384
 30
0.0
 11
35.265945123878026
 21
0.12399608186144384
 31
0.0
  0
LINE
  5
127
330
1F
100
AcDbEntity
  8
0
100
AcDbLine
 10
35.265945123878026
 20
0.12399608186144384
 30
0.0
 11
35.265945123878026
 21
1.1239960818614403
 31
0.0
  0
LINE
  5
128
330
1F
100
AcDbEntity
  8
0
100
AcDbLine
 10
35.265945123878026
 20
1.1239960818614403
 30
0.0
 11
38.38467018423657
 21
1.1239960818614403
 31
0.0
  0
LINE
  5
129
330
1F
100
AcDbEntity
  8
0
100
AcDbLine
 10
38.38467018423657
 20
1.1239960818614403
 30
0.0
 11
38.38467018423657
 21
4.744450627315985
 31
0.0
  0
LINE
  5
130
330
1F
100
AcDbEntity
  8
0
100
AcDbLine
 10
38.38467018423657
 20
4.744450627315985
 30
0.0
 11
34.62364116220343
 21
4.744450627315985
 31
0.0
  0
LINE
  5
131
330
1F
100
AcDbEntity
  8
0
100
AcDbLine
 10
34.62364116220343
 20
4.744450627315985
 30
0.0
 11
34.62364116220343
 21
5.669450627315988
 31
0.0
  0
LINE
  5
132
330
1F
100
AcDbEntity
  8
0
100
AcDbLine
 10
34.62364116220343
 20
5.669450627315988
 30
0.0
 11
38.38467018423657
 21
5.669450627315988
 31
0.0
  0
LINE
  5
133
330
1F
100
AcDbEntity
  8
0
100
AcDbLine
 10
38.38467018423657
 20
5.669450627315988
 30
0.0
 11
38.38467018423657
 21
22.92626880913417
 31
0.0
  0
LINE
  5
134
330
1F
100
AcDbEntity
  8
0
100
AcDbLine
 10
38.38467018423657
 20
22.92626880913417
 30
0.0
 11
34.18463719183336
 21
22.92626880913417
 31
0.0
  0
LINE
  5
135
330
1F
100
AcDbEntity
  8
0
100
AcDbLine
 10
34.18463719183336
 20
22.92626880913417
 30
0.0
 11
34.18463719183336
 21
21.926268809134168
 31
0.0
  0
LINE
  5
136
330
1F
100
AcDbEntity
  8
0
100
AcDbLine
 10
34.18463719183336
 20
21.926268809134168
 30
0.0
 11
27.02103382060031
 21
21.926268809134168
 31
0.0
  0
LINE
  5
137
330
1F
100
AcDbEntity
  8
0
100
AcDbLine
 10
27.02103382060031
 20
21.926268809134168
 30
0.0
 11
27.02103382060031
 21
22.92626880913417
 31
0.0
  0
LINE
  5
138
330
1F
100
AcDbEntity
  8
0
100
AcDbLine
 10
27.02103382060031
 20
22.92626880913417
 30
0.0
 11
23.755180183746205
 21
22.92626880913417
 31
0.0
  0
LINE
  5
139
330
1F
100
AcDbEntity
  8
0
100
AcDbLine
 10
23.755180183746205
 20
22.92626880913417
 30
0.0
 11
23.755180183746205
 21
21.926268809134168
 31
0.0
  0
LINE
  5
140
330
1F
100
AcDbEntity
  8
0
100
AcDbLine
 10
23.755180183746205
 20
21.926268809134168
 30
0.0
 11
19.692406479450852
 21
21.926268809134168
 31
0.0
  0
LINE
  5
141
330
1F
100
AcDbEntity
  8
0
100
AcDbLine
 10
19.692406479450852
 20
21.926268809134168
 30
0.0
 11
19.692406479450852
 21
22.92626880913417
 31
0.0
  0
LINE
  5
142
330
1F
100
AcDbEntity
  8
0
100
AcDbLine
 10
19.692406479450852
 20
22.92626880913417
 30
0.0
 11
15.59653090106849
 21
22.926268809134186
 31
0.0
  0
LINE
  5
143
330
1F
100
AcDbEntity
  8
0
100
AcDbLine
 10
15.59653090106849
 20
22.926268809134186
 30
0.0
 11
12.729930253004653
 21
17.086489584038713
 31
0.0
  0
LINE
  5
144
330
1F
100
AcDbEntity
  8
0
100
AcDbLine
 10
12.729930253004653
 20
17.086489584038713
 30
0.0
 11
11.832250477486923
 21
17.527137993347505
 31
0.0
  0
LINE
  5
145
330
1F
100
AcDbEntity
  8
0
100
AcDbLine
 10
11.832250477486923
 20
17.527137993347505
 30
0.0
 11
10.587143470585119
 21
14.990631892702783
 31
0.0
  0
LINE
  5
146
330
1F
100
AcDbEntity
  8
0
100
AcDbLine
 10
10.587143470585119
 20
14.990631892702783
 30
0.0
 11
11.484823246102849
 21
14.549983483393977
 31
0.0
  0
LINE
  5
147
330
1F
100
AcDbEntity
  8
0
100
AcDbLine
 10
26.3191163050017
 20
4.744450627315953
 30
0.0
 11
26.3191163050017
 21
5.669450627316021
 31
0.0
  0
LINE
  5
148
330
1F
100
AcDbEntity
  8
0
100
AcDbLine
 10
26.3191163050017
 20
5.669450627316021
 30
0.0
 11
29.57412388993177
 21
5.669450627316021
 31
0.0
  0
LINE
  5
149
330
1F
100
AcDbEntity
  8
0
100
AcDbLine
 10
29.57412388993177
 20
5.669450627316021
 30
0.0
 11
29.57412388993177
 21
4.744450627315953
 31
0.0
  0
LINE
  5
150
330
1F
100
AcDbEntity
  8
0
100
AcDbLine
 10
29.57412388993177
 20
4.744450627315953
 30
0.0
 11
26.3191163050017
 21
4.744450627315953
 31
0.0
  0
LINE
  5
1006F
330
1F
100
AcDbEntity
  8
0
100
AcDbLine
 10
10.0
 20
39.78195062731603
 30
0.0
 11
11.007802794057824
 21
37.927499594946894
 31
0.0
  0
LINE
  5
10070
330
1F
100
AcDbEntity
  8
0
100
AcDbLine
 10
11.007802794057824
 20
37.927499594946894
 30
0.0
 11
10.129168141149165
 21
37.45000493873795
 31
0.0
  0
LINE
  5
10071
330
1F
100
AcDbEntity
  8
0
100
AcDbLine
 10
10.129168141149165
 20
37.45000493873795
 30
0.0
 11
11.15919073932318
 21
35.55466739670142
 31
0.0
  0
LINE
  5
10072
330
1F
100
AcDbEntity
  8
0
100
AcDbLine
 10
11.15919073932318
 20
35.55466739670142
 30
0.0
 11
12.037825392231838
 21
36.032162052910294
 31
0.0
  0
LINE
  5
10073
330
1F
100
AcDbEntity
  8
0
100
AcDbLine
 10
12.037825392231838
 20
36.032162052910294
 30
0.0
 11
13.72572538769532
 21
32.926268809134186
 31
0.0
  0
LINE
  5
10074
330
1F
100
AcDbEntity
  8
0
100
AcDbLine
 10
13.72572538769532
 20
32.926268809134186
 30
0.0
 11
16.36857910843119
 21
32.926268809134186
 31
0.0
  0
LINE
  5
10075
330
1F
100
AcDbEntity
  8
0
100
AcDbLine
 10
16.36857910843119
 20
32.926268809134186
 30
0.0
 11
16.36857910843119
 21
33.926268809134186
 31
0.0
  0
LINE
  5
10076
330
1F
100
AcDbEntity
  8
0
100
AcDbLine
 10
16.36857910843119
 20
33.926268809134186
 30
0.0
 11
24.967858192478474
 21
33.926268809134186
 31
0.0
  0
LINE
  5
10077
330
1F
100
AcDbEntity
  8
0
100
AcDbLine
 10
24.967858192478474
 20
33.926268809134186
 30
0.0
 11
24.967858192478474
 21
32.926268809134186
 31
0.0
  0
LINE
  5
10078
330
1F
100
AcDbEntity
  8
0
100
AcDbLine
 10
24.967858192478474
 20
32.926268809134186
 30
0.0
 11
27.42188947661603
 21
32.926268809134186
 31
0.0
  0
LINE
  5
10079
330
1F
100
AcDbEntity
  8
0
100
AcDbLine
 10
27.42188947661603
 20
32.926268809134186
 30
0.0
 11
27.42188947661603
 21
45.63763244549782
 31
0.0
  0
LINE
  5
1007A
330
1F
100
AcDbEntity
  8
0
100
AcDbLine
 10
27.42188947661603
 20
45.63763244549782
 30
0.0
 11
24.11859027972099
 21
45.63763244549782
 31
0.0
  0
LINE
  5
1007B
330
1F
100
AcDbEntity
  8
0
100
AcDbLine
 10
24.11859027972099
 20
45.63763244549782
 30
0.0
 11
24.11859027972099
 21
46.63763244549783
 31
0.0
  0
LINE
  5
1007C
330
1F
100
AcDbEntity
  8
0
100
AcDbLine
 10
24.11859027972099
 20
46.63763244549783
 30
0.0
 11
17.308422852688068
 21
46.63763244549783
 31
0.0
  0
LINE
  5
1007D
330
1F
100
AcDbEntity
  8
0
100
AcDbLine
 10
17.308422852688068
 20
46.63763244549783
 30
0.0
 11
17.308422852688068
 21
45.63763244549782
 31
0.0
  0
LINE
  5
1007E
330
1F
100
AcDbEntity
  8
0
100
AcDbLine
 10
17.308422852688068
 20
45.63763244549782
 30
0.0
 11
13.785525840252433
 21
45.63763244549782
 31
0.0
  0
LINE
  5
1007F
330
1F
100
AcDbEntity
  8
0
100
AcDbLine
 10
13.785525840252433
 20
45.63763244549782
 30
0.0
 11
13.785525840252433
 21
46.747670849473735
 31
0.0
  0
LINE
  5
10080
330
1F
100
AcDbEntity
  8
0
100
AcDbLine
 10
13.785525840252433
 20
46.747670849473735
 30
0.0
 11
12.414128474942316
 21
44.22417193194495
 31
0.0
  0
LINE
  5
10081
330
1F
100
AcDbEntity
  8
0
100
AcDbLine
 10
12.414128474942316
 20
44.22417193194495
 30
0.0
 11
11.535493822033658
 21
44.7016665881539
 31
0.0
  0
LINE
  5
10082
330
1F
100
AcDbEntity
  8
0
100
AcDbLine
 10
11.535493822033658
 20
44.7016665881539
 30
0.0
 11
10.181578889391432
 21
42.210336975473595
 31
0.0
  0
LINE
  5
10083
330
1F
100
AcDbEntity
  8
0
100
AcDbLine
 10
10.181578889391432
 20
42.210336975473595
 30
0.0
 11
11.06021354230009
 21
41.73284231926466
 31
0.0
  0
LINE
  5
10084
330
1F
100
AcDbEntity
  8
0
100
AcDbLine
 10
11.06021354230009
 20
41.73284231926466
 30
0.0
 11
10.0
 21
39.78195062731603
 31
0.0
  0
LINE
  5
10085
330
1F
100
AcDbEntity
  8
0
100
AcDbLine
 10
23.255980385707034
 20
41.79713924350365
 30
0.0
 11
18.785525840252433
 21
41.79713924350365
 31
0.0
  0
LINE
  5
10086
330
1F
100
AcDbEntity
  8
0
100
AcDbLine
 10
18.785525840252433
 20
41.79713924350365
 30
0.0
 11
18.785525840252433
 21
44.844805650703364
 31
0.0
  0
LINE
  5
10087
330
1F
100
AcDbEntity
  8
0
100
AcDbLine
 10
18.785525840252433
 20
44.844805650703364
 30
0.0
 11
23.255980385707034
 21
44.844805650703364
 31
0.0
  0
LINE
  5
10088
330
1F
100
AcDbEntity
  8
0
100
AcDbLine
 10
23.255980385707034
 20
44.844805650703364
 30
0.0
 11
23.255980385707034
 21
41.79713924350365
 31
0.0
  0
LINE
  5
10089
330
1F
100
AcDbEntity
  8
0
100
AcDbLine
 10
20.157661834720386
 20
66.74767084947374
 30
0.0
 11
20.157661834720386
 21
60.913579940382725
 31
0.0
  0
LINE
  5
1008A
330
1F
100
AcDbEntity
  8
0
100
AcDbLine
 10
20.157661834720386
 20
60.913579940382725
 30
0.0
 11
16.59629819835672
 21
60.913579940382725
 31
0.0
  0
LINE
  5
1008B
330
1F
100
AcDbEntity
  8
0
100
AcDbLine
 10
16.59629819835672
 20
60.913579940382725
 30
0.0
 11
16.59629819835672
 21
66.74767084947374
 31
0.0
  0
LINE
  5
1008C
330
1F
100
AcDbEntity
  8
0
100
AcDbLine
 10
16.59629819835672
 20
66.74767084947374
 30
0.0
 11
20.157661834720386
 21
66.74767084947374
 31
0.0
  0
LINE
  5
1008D
330
1F
100
AcDbEntity
  8
0
100
AcDbLine
 10
10.999999999999943
 20
70.45903448583726
 30
0.0
 11
10.999999999999943
 21
67.57748273085963
 31
0.0
  0
LINE
  5
1008E
330
1F
100
AcDbEntity
  8
0
100
AcDbLine
 10
10.999999999999943
 20
67.57748273085963
 30
0.0
 11
10.0
 21
67.57748273085963
 31
0.0
  0
LINE
  5
1008F
330
1F
100
AcDbEntity
  8
0
100
AcDbLine
 10
10.0
 20
67.57748273085963
 30
0.0
 11
10.0
 21
60.46520358289552
 31
0.0
  0
LINE
  5
10090
330
1F
100
AcDbEntity
  8
0
100
AcDbLine
 10
10.0
 20
60.46520358289552
 30
0.0
 11
10.999999999999943
 21
60.46520358289552
 31
0.0
  0
LINE
  5
10091
330
1F
100
AcDbEntity
  8
0
100
AcDbLine
 10
10.999999999999943
 20
60.46520358289552
 30
0.0
 11
10.999999999999943
 21
56.74767084947373
 31
0.0
  0
LINE
  5
10092
330
1F
100
AcDbEntity
  8
0
100
AcDbLine
 10
10.999999999999943
 20
56.74767084947373
 30
0.0
 11
22.711363636363586
 21
56.74767084947373
 31
0.0
  0
LINE
  5
10093
330
1F
100
AcDbEntity
  8
0
100
AcDbLine
 10
22.711363636363586
 20
56.74767084947373
 30
0.0
 11
22.711363636363586
 21
59.12670213361135
 31
0.0
  0
LINE
  5
10094
330
1F
100
AcDbEntity
  8
0
100
AcDbLine
 10
22.711363636363586
 20
59.12670213361135
 30
0.0
 11
23.71136363636353
 21
59.12670213361135
 31
0.0
  0
LINE
  5
10095
330
1F
100
AcDbEntity
  8
0
100
AcDbLine
 10
23.71136363636353
 20
59.12670213361135
 30
0.0
 11
23.71136363636353
 21
67.8759812176585
 31
0.0
  0
LINE
  5
10096
330
1F
100
AcDbEntity
  8
0
100
AcDbLine
 10
23.71136363636353
 20
67.8759812176585
 30
0.0
 11
22.711363636363586
 21
67.8759812176585
 31
0.0
  0
LINE
  5
10097
330
1F
100
AcDbEntity
  8
0
100
AcDbLine
 10
22.711363636363586
 20
67.8759812176585
 30
0.0
 11
22.711363636363586
 21
70.45903448583726
 31
0.0
  0
LINE
  5
10098
330
1F
100
AcDbEntity
  8
0
100
AcDbLine
 10
22.711363636363586
 20
70.45903448583726
 30
0.0
 11
10.999999999999943
 21
70.45903448583726
 31
0.0
  0
CIRCLE
  5
10099
330
1F
100
AcDbEntity
  8
0
100
AcDbCircle
 10
18.246680225321796
 20
93.13289812220088
 30
0.0
 40
0.612499999999977
  0
CIRCLE
  5
1009A
330
1F
100
AcDbEntity
  8
0
100
AcDbCircle
 10
16.74668022532174
 20
92.08597790153672
 30
0.0
 40
0.612499999999977
  0
CIRCLE
  5
1009B
330
1F
100
AcDbEntity
  8
0
100
AcDbCircle
 10
15.246680225321683
 20
93.13289812220088
 30
0.0
 40
0.612499999999977
  0
LINE
  5
1009C
330
1F
100
AcDbEntity
  8
0
100
AcDbLine
 10
10.999999999999943
 20
83.16396709057767
 30
0.0
 11
10.0
 21
83.16396709057767
 31
0.0
  0
LINE
  5
1009D
330
1F
100
AcDbEntity
  8
0
100
AcDbLine
 10
10.0
 20
83.16396709057767
 30
0.0
 11
10.0
 21
80.45903448583726
 31
0.0
  0
LINE
  5
1009E
330
1F
100
AcDbEntity
  8
0
100
AcDbLine
 10
10.0
 20
80.45903448583726
 30
0.0
 11
35.347727272727525
 21
80.45903448583726
 31
0.0
  0
LINE
  5
1009F
330
1F
100
AcDbEntity
  8
0
100
AcDbLine
 10
35.347727272727525
 20
80.45903448583726
 30
0.0
 11
35.347727272727525
 21
103.26130721310986
 31
0.0
  0
LINE
  5
100A0
330
1F
100
AcDbEntity
  8
0
100
AcDbLine
 10
35.347727272727525
 20
103.26130721310986
 30
0.0
 11
10.0
 21
103.26130721310986
 31
0.0
  0
LINE
  5
100A1
330
1F
100
AcDbEntity
  8
0
100
AcDbLine
 10
10.0
 20
103.26130721310986
 30
0.0
 11
10.0
 21
97.30958550833091
 31
0.0
  0
LINE
  5
100A2
330
1F
100
AcDbEntity
  8
0
100
AcDbLine
 10
10.0
 20
97.30958550833091
 30
0.0
 11
10.999999999999943
 21
97.30958550833091
 31
0.0
  0
LINE
  5
100A3
330
1F
100
AcDbEntity
  8
0
100
AcDbLine
 10
10.999999999999943
 20
97.30958550833091
 30
0.0
 11
10.999999999999943
 21
94.48967088690733
 31
0.0
  0
LINE
  5
100A4
330
1F
100
AcDbEntity
  8
0
100
AcDbLine
 10
10.999999999999943
 20
94.48967088690733
 30
0.0
 11
10.0
 21
94.48967088690733
 31
0.0
  0
LINE
  5
100A5
330
1F
100
AcDbEntity
  8
0
100
AcDbLine
 10
10.0
 20
94.48967088690733
 30
0.0
 11
10.0
 21
85.52678739076396
 31
0.0
  0
LINE
  5
100A6
330
1F
100
AcDbEntity
  8
0
100
AcDbLine
 10
10.0
 20
85.52678739076396
 30
0.0
 11
10.999999999999943
 21
85.52678739076396
 31
0.0
  0
LINE
  5
100A7
330
1F
100
AcDbEntity
  8
0
100
AcDbLine
 10
10.999999999999943
 20
85.52678739076396
 30
0.0
 11
10.999999999999943
 21
83.16396709057767
 31
0.0
  0
LINE
  5
100A8
330
1F
100
AcDbEntity
  8
0
100
AcDbLine
 10
19.765998407140017
 20
101.53176175856456
 30
0.0
 11
20.34554386168537
 21
101.53176175856456
 31
0.0
  0
LINE
  5
100A9
330
1F
100
AcDbEntity
  8
0
100
AcDbLine
 10
20.34554386168537
 20
101.53176175856456
 30
0.0
 11
20.345543861685513
 21
96.17039812220068
 31
0.0
  0
LINE
  5
100AA
330
1F
100
AcDbEntity
  8
0
100
AcDbLine
 10
20.345543861685513
 20
96.17039812220068
 30
0.0
 11
19.765998407140017
 21
96.17039812220068
 31
0.0
  0
LINE
  5
100AB
330
1F
100
AcDbEntity
  8
0
100
AcDbLine
 10
19.765998407140017
 20
96.17039812220068
 30
0.0
 11
19.765998407140017
 21
101.53176175856456
 31
0.0
  0
LINE
  5
100AC
330
1F
100
AcDbEntity
  8
0
100
AcDbLine
 10
13.602362043503433
 20
94.1703981222008
 30
0.0
 11
13.602362043503433
 21
95.0953981222008
 31
0.0
  0
LINE
  5
100AD
330
1F
100
AcDbEntity
  8
0
100
AcDbLine
 10
13.602362043503433
 20
95.0953981222008
 30
0.0
 11
16.714180225321797
 21
95.0953981222008
 31
0.0
  0
LINE
  5
100AE
330
1F
100
AcDbEntity
  8
0
100
AcDbLine
 10
16.714180225321797
 20
95.0953981222008
 30
0.0
 11
16.77918022532168
 21
95.0953981222008
 31
0.0
  0
LINE
  5
100AF
330
1F
100
AcDbEntity
  8
0
100
AcDbLine
 10
16.77918022532168
 20
95.0953981222008
 30
0.0
 11
19.890998407140046
 21
95.0953981222008
 31
0.0
  0
LINE
  5
100B0
330
1F
100
AcDbEntity
  8
0
100
AcDbLine
 10
19.890998407140046
 20
95.0953981222008
 30
0.0
 11
19.890998407140046
 21
94.1703981222008
 31
0.0
  0
LINE
  5
100B1
330
1F
100
AcDbEntity
  8
0
100
AcDbLine
 10
19.890998407140046
 20
94.1703981222008
 30
0.0
 11
13.602362043503433
 21
94.1703981222008
 31
0.0
  0
LINE
  5
100B2
330
1F
100
AcDbEntity
  8
0
100
AcDbLine
 10
19.890998407140046
 20
102.60676175856443
 30
0.0
 11
16.77918022532168
 21
102.60676175856443
 31
0.0
  0
LINE
  5
100B3
330
1F
100
AcDbEntity
  8
0
100
AcDbLine
 10
16.77918022532168
 20
102.60676175856443
 30
0.0
 11
16.714180225321797
 21
102.60676175856443
 31
0.0
  0
LINE
  5
100B4
330
1F
100
AcDbEntity
  8
0
100
AcDbLine
 10
16.714180225321797
 20
102.60676175856443
 30
0.0
 11
13.602362043503433
 21
102.60676175856443
 31
0.0
  0
LINE
  5
100B5
330
1F
100
AcDbEntity
  8
0
100
AcDbLine
 10
13.602362043503433
 20
102.60676175856443
 30
0.0
 11
13.602362043503433
 21
102.73176175856446
 31
0.0
  0
LINE
  5
100B6
330
1F
100
AcDbEntity
  8
0
100
AcDbLine
 10
13.602362043503433
 20
102.73176175856446
 30
0.0
 11
19.890998407140046
 21
102.73176175856446
 31
0.0
  0
LINE
  5
100B7
330
1F
100
AcDbEntity
  8
0
100
AcDbLine
 10
19.890998407140046
 20
102.73176175856446
 30
0.0
 11
19.890998407140046
 21
102.60676175856443
 31
0.0
  0
LINE
  5
100B8
330
1F
100
AcDbEntity
  8
0
100
AcDbLine
 10
27.46715211439451
 20
92.45723125420338
 30
0.0
 11
30.790606967004663
 21
92.45723125420338
 31
0.0
  0
ARC
  5
100B9
330
1F
100
AcDbEntity
  8
0
100
AcDbCircle
 10
29.128879540699586
 20
93.47195526948977
 30
0.0
 40
1.9470497853248205
100
AcDbArc
 50
211.4100786692061
 51
328.58992133079386
  0
LINE
  5
100BA
330
1F
100
AcDbEntity
  8
0
100
AcDbLine
 10
30.19924706334635
 20
83.19469680198833
 30
0.0
 11
28.183337972437243
 21
83.19469680198833
 31
0.0
  0
LINE
  5
100BB
330
1F
100
AcDbEntity
  8
0
100
AcDbLine
 10
28.183337972437243
 20
83.19469680198833
 30
0.0
 11
28.183337972437243
 21
85.21060589289743
 31
0.0
  0
LINE
  5
100BC
330
1F
100
AcDbEntity
  8
0
100
AcDbLine
 10
28.183337972437243
 20
85.21060589289743
 30
0.0
 11
30.19924706334635
 21
85.21060589289743
 31
0.0
  0
LINE
  5
100BD
330
1F
100
AcDbEntity
  8
0
100
AcDbLine
 10
30.19924706334635
 20
85.21060589289743
 30
0.0
 11
30.19924706334635
 21
83.19469680198833
 31
0.0
  0
LINE
  5
100BE
330
1F
100
AcDbEntity
  8
0
100
AcDbLine
 10
27.439106813426832
 20
93.53223125420325
 30
0.0
 11
27.439106813426832
 21
98.77721630401905
 31
0.0
  0
LINE
  5
100BF
330
1F
100
AcDbEntity
  8
0
100
AcDbLine
 10
27.439106813426832
 20
98.77721630401905
 30
0.0
 11
28.59137954069965
 21
98.77721630401905
 31
0.0
  0
LINE
  5
100C0
330
1F
100
AcDbEntity
  8
0
100
AcDbLine
 10
28.59137954069965
 20
98.77721630401905
 30
0.0
 11
28.59137954069965
 21
93.53223125420325
 31
0.0
  0
LINE
  5
100C1
330
1F
100
AcDbEntity
  8
0
100
AcDbLine
 10
28.59137954069965
 20
93.53223125420325
 30
0.0
 11
27.439106813426832
 21
93.53223125420325
 31
0.0
  0
LINE
  5
100C2
330
1F
100
AcDbEntity
  8
0
100
AcDbLine
 10
17.436186656076842
 20
85.21060589289743
 30
0.0
 11
17.436186656076842
 21
83.19469680198833
 31
0.0
  0
LINE
  5
100C3
330
1F
100
AcDbEntity
  8
0
100
AcDbLine
 10
17.436186656076842
 20
83.19469680198833
 30
0.0
 11
15.420277565167737
 21
83.19469680198833
 31
0.0
  0
LINE
  5
100C4
330
1F
100
AcDbEntity
  8
0
100
AcDbLine
 10
15.420277565167737
 20
83.19469680198833
 30
0.0
 11
15.420277565167737
 21
85.21060589289743
 31
0.0
  0
LINE
  5
100C5
330
1F
100
AcDbEntity
  8
0
100
AcDbLine
 10
15.420277565167737
 20
85.21060589289743
 30
0.0
 11
17.436186656076842
 21
85.21060589289743
 31
0.0
  0
LINE
  5
100C6
330
1F
100
AcDbEntity
  8
0
100
AcDbLine
 10
13.147816588957966
 20
96.17039812220068
 30
0.0
 11
13.147816588957966
 21
101.53176175856456
 31
0.0
  0
LINE
  5
100C7
330
1F
100
AcDbEntity
  8
0
100
AcDbLine
 10
13.147816588957966
 20
101.53176175856456
 30
0.0
 11
13.727362043503462
 21
101.53176175856456
 31
0.0
  0
LINE
  5
100C8
330
1F
100
AcDbEntity
  8
0
100
AcDbLine
 10
13.727362043503462
 20
101.53176175856456
 30
0.0
 11
13.727362043503462
 21
96.17039812220068
 31
0.0
  0
LINE
  5
100C9
330
1F
100
AcDbEntity
  8
0
100
AcDbLine
 10
13.727362043503462
 20
96.17039812220068
 30
0.0
 11
13.147816588957966
 21
96.17039812220068
 31
0.0
  0
LINE
  5
100CA
330
1F
100
AcDbEntity
  8
0
100
AcDbLine
 10
30.81865226797234
 20
93.53223125420325
 30
0.0
 11
29.666379540699523
 21
93.53223125420325
 31
0.0
  0
LINE
  5
100CB
330
1F
100
AcDbEntity
  8
0
100
AcDbLine
 10
29.666379540699523
 20
93.53223125420325
 30
0.0
 11
29.666379540699523
 21
98.77721630401905
 31
0.0
  0
LINE
  5
100CC
330
1F
100
AcDbEntity
  8
0
100
AcDbLine
 10
29.666379540699523
 20
98.77721630401905
 30
0.0
 11
30.81865226797234
 21
98.77721630401905
 31
0.0
  0
LINE
  5
100CD
330
1F
100
AcDbEntity
  8
0
100
AcDbLine
 10
30.81865226797234
 20
98.77721630401905
 30
0.0
 11
30.81865226797234
 21
93.53223125420325
 31
0.0
  0
LINE
  5
100CE
330
1F
100
AcDbEntity
  8
0
100
AcDbLine
 10
36.34772727272747
 20
127.81579721360029
 30
0.0
 11
37.34772727272741
 21
127.81579721360029
 31
0.0
  0
LINE
  5
100CF
330
1F
100
AcDbEntity
  8
0
100
AcDbLine
 10
37.34772727272741
 20
127.81579721360029
 30
0.0
 11
37.34772727272741
 21
132.0285709178955
 31
0.0
  0
LINE
  5
100D0
330
1F
100
AcDbEntity
  8
0
100
AcDbLine
 10
37.34772727272741
 20
132.0285709178955
 30
0.0
 11
36.34772727272747
 21
132.0285709178955
 31
0.0
  0
LINE
  5
100D1
330
1F
100
AcDbEntity
  8
0
100
AcDbLine
 10
36.34772727272747
 20
132.0285709178955
 30
0.0
 11
36.34772727272747
 21
136.06357994038245
 31
0.0
  0
LINE
  5
100D2
330
1F
100
AcDbEntity
  8
0
100
AcDbLine
 10
36.34772727272747
 20
136.06357994038245
 30
0.0
 11
10.0
 21
136.06357994038245
 31
0.0
  0
LINE
  5
100D3
330
1F
100
AcDbEntity
  8
0
100
AcDbLine
 10
10.0
 20
136.06357994038245
 30
0.0
 11
10.0
 21
131.54705586474986
 31
0.0
  0
LINE
  5
100D4
330
1F
100
AcDbEntity
  8
0
100
AcDbLine
 10
10.0
 20
131.54705586474986
 30
0.0
 11
10.999999999999943
 21
131.54705586474986
 31
0.0
  0
LINE
  5
100D5
330
1F
100
AcDbEntity
  8
0
100
AcDbLine
 10
10.999999999999943
 20
131.54705586474986
 30
0.0
 11
10.999999999999943
 21
129.118915567505
 31
0.0
  0
LINE
  5
100D6
330
1F
100
AcDbEntity
  8
0
100
AcDbLine
 10
10.999999999999943
 20
129.118915567505
 30
0.0
 11
10.0
 21
129.118915567505
 31
0.0
  0
LINE
  5
100D7
330
1F
100
AcDbEntity
  8
0
100
AcDbLine
 10
10.0
 20
129.118915567505
 30
0.0
 11
10.0
 21
121.17040154162578
 31
0.0
  0
LINE
  5
100D8
330
1F
100
AcDbEntity
  8
0
100
AcDbLine
 10
10.0
 20
121.17040154162578
 30
0.0
 11
10.999999999999943
 21
121.17040154162578
 31
0.0
  0
LINE
  5
100D9
330
1F
100
AcDbEntity
  8
0
100
AcDbLine
 10
10.999999999999943
 20
121.17040154162578
 30
0.0
 11
10.999999999999943
 21
117.38470805011187
 31
0.0
  0
LINE
  5
100DA
330
1F
100
AcDbEntity
  8
0
100
AcDbLine
 10
10.999999999999943
 20
117.38470805011187
 30
0.0
 11
10.0
 21
117.38470805011187
 31
0.0
  0
LINE
  5
100DB
330
1F
100
AcDbEntity
  8
0
100
AcDbLine
 10
10.0
 20
117.38470805011187
 30
0.0
 11
10.0
 21
113.26130721310986
 31
0.0
  0
LINE
  5
100DC
330
1F
100
AcDbEntity
  8
0
100
AcDbLine
 10
10.0
 20
113.26130721310986
 30
0.0
 11
14.147816588957909
 21
113.26130721310986
 31
0.0
  0
LINE
  5
100DD
330
1F
100
AcDbEntity
  8
0
100
AcDbLine
 10
14.147816588957909
 20
113.26130721310986
 30
0.0
 11
14.147816588957909
 21
122.38971630401889
 31
0.0
  0
ARC
  5
100DE
330
1F
100
AcDbEntity
  8
0
100
AcDbCircle
 10
17.746680225321683
 20
122.38971630401889
 30
0.0
 40
3.598863636363774
100
AcDbArc
 50
0.0
 51
180.0
  0
LINE
  5
100DF
330
1F
100
AcDbEntity
  8
0
100
AcDbLine
 10
21.345543861685456
 20
122.38971630401889
 30
0.0
 11
21.345543861685314
 21
113.26130721310986
 31
0.0
  0
LINE
  5
100E0
330
1F
100
AcDbEntity
  8
0
100
AcDbLine
 10
21.345543861685314
 20
113.26130721310986
 30
0.0
 11
36.34772727272747
 21
113.26130721310986
 31
0.0
  0
LINE
  5
100E1
330
1F
100
AcDbEntity
  8
0
100
AcDbLine
 10
36.34772727272747
 20
113.26130721310986
 30
0.0
 11
36.34772727272747
 21
117.38634020551314
 31
0.0
  0
LINE
  5
100E2
330
1F
100
AcDbEntity
  8
0
100
AcDbLine
 10
36.34772727272747
 20
117.38634020551314
 30
0.0
 11
37.34772727272741
 21
117.38634020551314
 31
0.0
  0
LINE
  5
100E3
330
1F
100
AcDbEntity
  8
0
100
AcDbLine
 10
37.34772727272741
 20
117.38634020551314
 30
0.0
 11
37.34772727272741
 21
124.69994357674605
 31
0.0
  0
LINE
  5
100E4
330
1F
100
AcDbEntity
  8
0
100
AcDbLine
 10
37.34772727272741
 20
124.69994357674605
 30
0.0
 11
36.34772727272747
 21
124.69994357674605
 31
0.0
  0
LINE
  5
100E5
330
1F
100
AcDbEntity
  8
0
100
AcDbLine
 10
36.34772727272747
 20
124.69994357674605
 30
0.0
 11
36.34772727272747
 21
127.81579721360029
 31
0.0
  0
LINE
  5
100E6
330
1F
100
AcDbEntity
  8
0
100
AcDbLine
 10
28.865156154255374
 20
133.6460994424132
 30
0.0
 11
31.517428881528105
 21
133.6460994424132
 31
0.0
  0
LINE
  5
100E7
330
1F
100
AcDbEntity
  8
0
100
AcDbLine
 10
31.517428881528105
 20
133.6460994424132
 30
0.0
 11
31.517428881528105
 21
130.99382671514047
 31
0.0
  0
LINE
  5
100E8
330
1F
100
AcDbEntity
  8
0
100
AcDbLine
 10
31.517428881528105
 20
130.99382671514047
 30
0.0
 11
28.865156154255374
 21
130.99382671514047
 31
0.0
  0
LINE
  5
100E9
330
1F
100
AcDbEntity
  8
0
100
AcDbLine
 10
28.865156154255374
 20
130.99382671514047
 30
0.0
 11
28.865156154255374
 21
133.6460994424132
 31
0.0
  0
LINE
  5
100EA
330
1F
100
AcDbEntity
  8
0
100
AcDbLine
 10
28.120924995244962
 20
117.42721630401886
 30
0.0
 11
28.120924995244962
 21
124.19798289403329
 31
0.0
  0
LINE
  5
100EB
330
1F
100
AcDbEntity
  8
0
100
AcDbLine
 10
32.136834086154096
 20
117.42721630401886
 30
0.0
 11
28.120924995244962
 21
117.42721630401886
 31
0.0
  0
LINE
  5
100EC
330
1F
100
AcDbEntity
  8
0
100
AcDbLine
 10
32.136834086154096
 20
124.19798289403329
 30
0.0
 11
32.136834086154096
 21
117.42721630401886
 31
0.0
  0
ARC
  5
100ED
330
1F
100
AcDbEntity
  8
0
100
AcDbCircle
 10
30.12887954069953
 20
123.05065915672967
 30
0.0
 40
2.312624745779567
100
AcDbArc
 50
29.7431849442842
 51
150.25681505571583
  0
LINE
  5
100EE
330
1F
100
AcDbEntity
  8
0
100
AcDbLine
 10
16.102095746985867
 20
133.6460994424132
 30
0.0
 11
18.754368474258598
 21
133.6460994424132
 31
0.0
  0
LINE
  5
100EF
330
1F
100
AcDbEntity
  8
0
100
AcDbLine
 10
18.754368474258598
 20
133.6460994424132
 30
0.0
 11
18.754368474258598
 21
130.99382671514047
 31
0.0
  0
LINE
  5
100F0
330
1F
100
AcDbEntity
  8
0
100
AcDbLine
 10
18.754368474258598
 20
130.99382671514047
 30
0.0
 11
16.102095746985867
 21
130.99382671514047
 31
0.0
  0
LINE
  5
100F1
330
1F
100
AcDbEntity
  8
0
100
AcDbLine
 10
16.102095746985867
 20
130.99382671514047
 30
0.0
 11
16.102095746985867
 21
133.6460994424132
 31
0.0
  0
LINE
  5
100F2
330
1F
100
AcDbEntity
  8
0
100
AcDbLine
 10
22.711363636363586
 20
156.396644379851
 30
0.0
 11
23.71136363636353
 21
156.396644379851
 31
0.0
  0
LINE
  5
100F3
330
1F
100
AcDbEntity
  8
0
100
AcDbLine
 10
23.71136363636353
 20
156.396644379851
 30
0.0
 11
23.71136363636353
 21
159.77494357674598
 31
0.0
  0
LINE
  5
100F4
330
1F
100
AcDbEntity
  8
0
100
AcDbLine
 10
23.71136363636353
 20
159.77494357674598
 30
0.0
 11
10.0
 21
159.77494357674598
 31
0.0
  0
LINE
  5
100F5
330
1F
100
AcDbEntity
  8
0
100
AcDbLine
 10
10.0
 20
159.77494357674598
 30
0.0
 11
10.0
 21
155.9389145547129
 31
0.0
  0
LINE
  5
100F6
330
1F
100
AcDbEntity
  8
0
100
AcDbLine
 10
10.0
 20
155.9389145547129
 30
0.0
 11
10.999999999999943
 21
155.9389145547129
 31
0.0
  0
LINE
  5
100F7
330
1F
100
AcDbEntity
  8
0
100
AcDbLine
 10
10.999999999999943
 20
155.9389145547129
 30
0.0
 11
10.999999999999943
 21
151.03939728244112
 31
0.0
  0
LINE
  5
100F8
330
1F
100
AcDbEntity
  8
0
100
AcDbLine
 10
10.999999999999943
 20
151.03939728244112
 30
0.0
 11
10.0
 21
151.03939728244112
 31
0.0
  0
LINE
  5
100F9
330
1F
100
AcDbEntity
  8
0
100
AcDbLine
 10
10.0
 20
151.03939728244112
 30
0.0
 11
10.0
 21
147.63438969751118
 31
0.0
  0
LINE
  5
100FA
330
1F
100
AcDbEntity
  8
0
100
AcDbLine
 10
10.0
 20
147.63438969751118
 30
0.0
 11
10.999999999999943
 21
147.63438969751118
 31
0.0
  0
LINE
  5
100FB
330
1F
100
AcDbEntity
  8
0
100
AcDbLine
 10
10.999999999999943
 20
147.63438969751118
 30
0.0
 11
10.999999999999943
 21
146.06357994038245
 31
0.0
  0
LINE
  5
100FC
330
1F
100
AcDbEntity
  8
0
100
AcDbLine
 10
10.999999999999943
 20
146.06357994038245
 30
0.0
 11
23.71136363636353
 21
146.06357994038245
 31
0.0
  0
LINE
  5
100FD
330
1F
100
AcDbEntity
  8
0
100
AcDbLine
 10
23.71136363636353
 20
146.06357994038245
 30
0.0
 11
23.71136363636353
 21
149.73647695281795
 31
0.0
  0
LINE
  5
100FE
330
1F
100
AcDbEntity
  8
0
100
AcDbLine
 10
23.71136363636353
 20
149.73647695281795
 30
0.0
 11
22.711363636363586
 21
149.73647695281795
 31
0.0
  0
LINE
  5
100FF
330
1F
100
AcDbEntity
  8
0
100
AcDbLine
 10
22.711363636363586
 20
149.73647695281795
 30
0.0
 11
22.711363636363586
 21
156.396644379851
 31
0.0
  0
LINE
  5
10100
330
1F
100
AcDbEntity
  8
0
100
AcDbLine
 10
36.34772727272747
 20
189.3834912436601
 30
0.0
 11
37.34772727272741
 21
189.3834912436601
 31
0.0
  0
LINE
  5
10101
330
1F
100
AcDbEntity
  8
0
100
AcDbLine
 10
37.34772727272741
 20
189.3834912436601
 30
0.0
 11
37.34772727272741
 21
192.57721630401858
 31
0.0
  0
LINE
  5
10102
330
1F
100
AcDbEntity
  8
0
100
AcDbLine
 10
37.34772727272741
 20
192.57721630401858
 30
0.0
 11
10.0
 21
192.57721630401858
 31
0.0
  0
LINE
  5
10103
330
1F
100
AcDbEntity
  8
0
100
AcDbLine
 10
10.0
 20
192.57721630401858
 30
0.0
 11
10.0
 21
187.20405665037742
 31
0.0
  0
LINE
  5
10104
330
1F
100
AcDbEntity
  8
0
100
AcDbLine
 10
10.0
 20
187.20405665037742
 30
0.0
 11
10.999999999999943
 21
187.20405665037742
 31
0.0
  0
LINE
  5
10105
330
1F
100
AcDbEntity
  8
0
100
AcDbLine
 10
10.999999999999943
 20
187.20405665037742
 30
0.0
 11
10.999999999999943
 21
184.55792494234584
 31
0.0
  0
LINE
  5
10106
330
1F
100
AcDbEntity
  8
0
100
AcDbLine
 10
10.999999999999943
 20
184.55792494234584
 30
0.0
 11
10.0
 21
184.55792494234584
 31
0.0
  0
LINE
  5
10107
330
1F
100
AcDbEntity
  8
0
100
AcDbLine
 10
10.0
 20
184.55792494234584
 30
0.0
 11
10.0
 21
177.97988136891516
 31
0.0
  0
LINE
  5
10108
330
1F
100
AcDbEntity
  8
0
100
AcDbLine
 10
10.0
 20
177.97988136891516
 30
0.0
 11
10.999999999999943
 21
177.97988136891516
 31
0.0
  0
LINE
  5
10109
330
1F
100
AcDbEntity
  8
0
100
AcDbLine
 10
10.999999999999943
 20
177.97988136891516
 30
0.0
 11
10.999999999999943
 21
175.01090352603282
 31
0.0
  0
LINE
  5
1010A
330
1F
100
AcDbEntity
  8
0
100
AcDbLine
 10
10.999999999999943
 20
175.01090352603282
 30
0.0
 11
10.0
 21
175.01090352603282
 31
0.0
  0
LINE
  5
1010B
330
1F
100
AcDbEntity
  8
0
100
AcDbLine
 10
10.0
 20
175.01090352603282
 30
0.0
 11
10.0
 21
169.77494357674598
 31
0.0
  0
LINE
  5
1010C
330
1F
100
AcDbEntity
  8
0
100
AcDbLine
 10
10.0
 20
169.77494357674598
 30
0.0
 11
37.34772727272741
 21
169.77494357674598
 31
0.0
  0
LINE
  5
1010D
330
1F
100
AcDbEntity
  8
0
100
AcDbLine
 10
37.34772727272741
 20
169.77494357674598
 30
0.0
 11
37.34772727272741
 21
175.21180944623208
 31
0.0
  0
LINE
  5
1010E
330
1F
100
AcDbEntity
  8
0
100
AcDbLine
 10
37.34772727272741
 20
175.21180944623208
 30
0.0
 11
36.34772727272747
 21
175.21180944623208
 31
0.0
  0
LINE
  5
1010F
330
1F
100
AcDbEntity
  8
0
100
AcDbLine
 10
36.34772727272747
 20
175.21180944623208
 30
0.0
 11
36.34772727272747
 21
179.9318629281154
 31
0.0
  0
LINE
  5
10110
330
1F
100
AcDbEntity
  8
0
100
AcDbLine
 10
36.34772727272747
 20
179.9318629281154
 30
0.0
 11
37.34772727272741
 21
179.9318629281154
 31
0.0
  0
LINE
  5
10111
330
1F
100
AcDbEntity
  8
0
100
AcDbLine
 10
37.34772727272741
 20
179.9318629281154
 30
0.0
 11
37.34772727272741
 21
184.96080541956798
 31
0.0
  0
LINE
  5
10112
330
1F
100
AcDbEntity
  8
0
100
AcDbLine
 10
37.34772727272741
 20
184.96080541956798
 30
0.0
 11
36.34772727272747
 21
184.96080541956798
 31
0.0
  0
LINE
  5
10113
330
1F
100
AcDbEntity
  8
0
100
AcDbLine
 10
36.34772727272747
 20
184.96080541956798
 30
0.0
 11
36.34772727272747
 21
189.3834912436601
 31
0.0
  0
LINE
  5
10114
330
1F
100
AcDbEntity
  8
0
100
AcDbLine
 10
28.611942911509374
 20
208.61030329497092
 30
0.0
 11
37.62785200241851
 21
208.61030329497092
 31
0.0
  0
LINE
  5
10115
330
1F
100
AcDbEntity
  8
0
100
AcDbLine
 10
37.62785200241851
 20
208.61030329497092
 30
0.0
 11
37.62785200241851
 21
205.04893965860728
 31
0.0
  0
LINE
  5
10116
330
1F
100
AcDbEntity
  8
0
100
AcDbLine
 10
37.62785200241851
 20
205.04893965860728
 30
0.0
 11
28.611942911509374
 21
205.04893965860728
 31
0.0
  0
LINE
  5
10117
330
1F
100
AcDbEntity
  8
0
100
AcDbLine
 10
28.611942911509374
 20
205.04893965860728
 30
0.0
 11
28.611942911509374
 21
208.61030329497092
 31
0.0
  0
LINE
  5
10118
330
1F
100
AcDbEntity
  8
0
100
AcDbLine
 10
15.805542206133936
 20
206.62934032103354
 30
0.0
 11
15.805542206133936
 21
210.19070395739723
 31
0.0
  0
LINE
  5
10119
330
1F
100
AcDbEntity
  8
0
100
AcDbLine
 10
15.805542206133936
 20
210.19070395739723
 30
0.0
 11
20.275996751588536
 21
210.19070395739723
 31
0.0
  0
LINE
  5
1011A
330
1F
100
AcDbEntity
  8
0
100
AcDbLine
 10
20.275996751588536
 20
210.19070395739723
 30
0.0
 11
20.275996751588536
 21
206.62934032103354
 31
0.0
  0
LINE
  5
1011B
330
1F
100
AcDbEntity
  8
0
100
AcDbLine
 10
20.275996751588536
 20
206.62934032103354
 30
0.0
 11
15.805542206133936
 21
206.62934032103354
 31
0.0
  0
LINE
  5
1011C
330
1F
100
AcDbEntity
  8
0
100
AcDbLine
 10
15.805542206133936
 20
217.36874349791103
 30
0.0
 11
15.805542206133936
 21
220.93010713427475
 31
0.0
  0
LINE
  5
1011D
330
1F
100
AcDbEntity
  8
0
100
AcDbLine
 10
15.805542206133936
 20
220.93010713427475
 30
0.0
 11
20.275996751588536
 21
220.93010713427475
 31
0.0
  0
LINE
  5
1011E
330
1F
100
AcDbEntity
  8
0
100
AcDbLine
 10
20.275996751588536
 20
220.93010713427475
 30
0.0
 11
20.275996751588536
 21
217.36874349791103
 31
0.0
  0
LINE
  5
1011F
330
1F
100
AcDbEntity
  8
0
100
AcDbLine
 10
20.275996751588536
 20
217.36874349791103
 30
0.0
 11
15.805542206133936
 21
217.36874349791103
 31
0.0
  0
LINE
  5
10120
330
1F
100
AcDbEntity
  8
0
100
AcDbLine
 10
38.38467018423657
 20
203.70121238588004
 30
0.0
 11
38.38467018423657
 21
224.50350150685324
 31
0.0
  0
LINE
  5
10121
330
1F
100
AcDbEntity
  8
0
100
AcDbLine
 10
38.38467018423657
 20
224.50350150685324
 30
0.0
 11
34.33626934723449
 21
224.50173207297655
 31
0.0
  0
LINE
  5
10122
330
1F
100
AcDbEntity
  8
0
100
AcDbLine
 10
34.33626934723449
 20
224.50173207297655
 30
0.0
 11
34.33626934723449
 21
225.50348511315272
 31
0.0
  0
LINE
  5
10123
330
1F
100
AcDbEntity
  8
0
100
AcDbLine
 10
34.33626934723449
 20
225.50348511315272
 30
0.0
 11
30.400575855720717
 21
225.50348511315272
 31
0.0
  0
LINE
  5
10124
330
1F
100
AcDbEntity
  8
0
100
AcDbLine
 10
30.400575855720717
 20
225.50348511315272
 30
0.0
 11
30.400575855720717
 21
224.5000119000805
 31
0.0
  0
LINE
  5
10125
330
1F
100
AcDbEntity
  8
0
100
AcDbLine
 10
30.400575855720717
 20
224.5000119000805
 30
0.0
 11
22.602061829841347
 21
224.49660340485957
 31
0.0
  0
LINE
  5
10126
330
1F
100
AcDbEntity
  8
0
100
AcDbLine
 10
22.602061829841347
 20
224.49660340485957
 30
0.0
 11
22.602061829841347
 21
225.50348511315272
 31
0.0
  0
LINE
  5
10127
330
1F
100
AcDbEntity
  8
0
100
AcDbLine
 10
22.602061829841347
 20
225.50348511315272
 30
0.0
 11
20.02392153259663
 21
225.50348511315272
 31
0.0
  0
LINE
  5
10128
330
1F
100
AcDbEntity
  8
0
100
AcDbLine
 10
20.02392153259663
 20
225.50348511315272
 30
0.0
 11
20.02392153259663
 21
224.50348511315272
 31
0.0
  0
LINE
  5
10129
330
1F
100
AcDbEntity
  8
0
100
AcDbLine
 10
20.02392153259663
 20
224.50348511315272
 30
0.0
 11
15.657397456963906
 21
224.50348511315272
 31
0.0
  0
LINE
  5
1012A
330
1F
100
AcDbEntity
  8
0
100
AcDbLine
 10
15.657397456963906
 20
224.50348511315272
 30
0.0
 11
15.657397456963906
 21
225.62748119501416
 31
0.0
  0
LINE
  5
1012B
330
1F
100
AcDbEntity
  8
0
100
AcDbLine
 10
15.657397456963906
 20
225.62748119501416
 30
0.0
 11
13.33084731896065
 21
220.88788163787643
 31
0.0
  0
LINE
  5
1012C
330
1F
100
AcDbEntity
  8
0
100
AcDbLine
 10
13.33084731896065
 20
220.88788163787643
 30
0.0
 11
12.43316754344292
 21
221.32853004718518
 31
0.0
  0
LINE
  5
1012D
330
1F
100
AcDbEntity
  8
0
100
AcDbLine
 10
12.43316754344292
 20
221.32853004718518
 30
0.0
 11
10.436991663695494
 21
217.26196205835174
 31
0.0
  0
LINE
  5
1012E
330
1F
100
AcDbEntity
  8
0
100
AcDbLine
 10
10.436991663695494
 20
217.26196205835174
 30
0.0
 11
11.334671439213224
 21
216.8213136490429
 31
0.0
  0
LINE
  5
1012F
330
1F
100
AcDbEntity
  8
0
100
AcDbLine
 10
11.334671439213224
 20
216.8213136490429
 30
0.0
 11
10.0
 21
214.10234874951638
 31
0.0
  0
LINE
  5
10130
330
1F
100
AcDbEntity
  8
0
100
AcDbLine
 10
10.0
 20
214.10234874951638
 30
0.0
 11
11.334671439213224
 21
211.38338384998997
 31
0.0
  0
LINE
  5
10131
330
1F
100
AcDbEntity
  8
0
100
AcDbLine
 10
11.334671439213224
 20
211.38338384998997
 30
0.0
 11
10.436991663695494
 21
210.9427354406812
 31
0.0
  0
LINE
  5
10132
330
1F
100
AcDbEntity
  8
0
100
AcDbLine
 10
10.436991663695494
 20
210.9427354406812
 30
0.0
 11
12.463071090726459
 21
206.8152485672095
 31
0.0
  0
LINE
  5
10133
330
1F
100
AcDbEntity
  8
0
100
AcDbLine
 10
12.463071090726459
 20
206.8152485672095
 30
0.0
 11
13.360750866244189
 21
207.25589697651836
 31
0.0
  0
LINE
  5
10134
330
1F
100
AcDbEntity
  8
0
100
AcDbLine
 10
13.360750866244189
 20
207.25589697651836
 30
0.0
 11
15.657397456963906
 21
202.57721630401858
 31
0.0
  0
LINE
  5
10135
330
1F
100
AcDbEntity
  8
0
100
AcDbLine
 10
15.657397456963906
 20
202.57721630401858
 30
0.0
 11
15.657397456963906
 21
203.70121238588004
 31
0.0
  0
LINE
  5
10136
330
1F
100
AcDbEntity
  8
0
100
AcDbLine
 10
15.657397456963906
 20
203.70121238588004
 30
0.0
 11
20.74335740625088
 21
203.70121238588004
 31
0.0
  0
LINE
  5
10137
330
1F
100
AcDbEntity
  8
0
100
AcDbLine
 10
20.74335740625088
 20
203.70121238588004
 30
0.0
 11
20.74335740625088
 21
202.70121238588004
 31
0.0
  0
LINE
  5
10138
330
1F
100
AcDbEntity
  8
0
100
AcDbLine
 10
20.74335740625088
 20
202.70121238588004
 30
0.0
 11
23.862335249133082
 21
202.70121238588004
 31
0.0
  0
LINE
  5
10139
330
1F
100
AcDbEntity
  8
0
100
AcDbLine
 10
23.862335249133082
 20
202.70121238588004
 30
0.0
 11
23.862335249133082
 21
203.70121238588004
 31
0.0
  0
LINE
  5
1013A
330
1F
100
AcDbEntity
  8
0
100
AcDbLine
 10
23.862335249133082
 20
203.70121238588004
 30
0.0
 11
30.290378822563895
 21
203.70121238588004
 31
0.0
  0
LINE
  5
1013B
330
1F
100
AcDbEntity
  8
0
100
AcDbLine
 10
30.290378822563895
 20
203.70121238588004
 30
0.0
 11
30.290378822563895
 21
202.70121238588004
 31
0.0
  0
LINE
  5
1013C
330
1F
100
AcDbEntity
  8
0
100
AcDbLine
 10
30.290378822563895
 20
202.70121238588004
 30
0.0
 11
33.08651053059535
 21
202.70121238588004
 31
0.0
  0
LINE
  5
1013D
330
1F
100
AcDbEntity
  8
0
100
AcDbLine
 10
33.08651053059535
 20
202.70121238588004
 30
0.0
 11
33.08651053059535
 21
203.70121238588004
 31
0.0
  0
LINE
  5
1013E
330
1F
100
AcDbEntity
  8
0
100
AcDbLine
 10
33.08651053059535
 20
203.70121238588004
 30
0.0
 11
38.38467018423657
 21
203.70121238588004
 31
0.0
  0
LINE
  5
1013F
330
1F
100
AcDbEntity
  8
0
100
AcDbLine
 10
13.346504975478837
 20
246.22783621840148
 30
0.0
 11
17.18059588456981
 21
246.22783621840148
 31
0.0
  0
LINE
  5
10140
330
1F
100
AcDbEntity
  8
0
100
AcDbLine
 10
17.18059588456981
 20
246.22783621840148
 30
0.0
 11
17.18059588456981
 21
245.55968483298346
 31
0.0
  0
LINE
  5
10141
330
1F
100
AcDbEntity
  8
0
100
AcDbLine
 10
17.18059588456981
 20
245.55968483298346
 30
0.0
 11
13.346504975478837
 21
245.55968483298346
 31
0.0
  0
LINE
  5
10142
330
1F
100
AcDbEntity
  8
0
100
AcDbLine
 10
13.346504975478837
 20
245.55968483298346
 30
0.0
 11
13.346504975478837
 21
246.22783621840148
 31
0.0
  0
LINE
  5
10143
330
1F
100
AcDbEntity
  8
0
100
AcDbLine
 10
17.18059588456981
 20
244.48468483298348
 30
0.0
 11
17.18059588456981
 21
243.81653344756546
 31
0.0
  0
LINE
  5
10144
330
1F
100
AcDbEntity
  8
0
100
AcDbLine
 10
17.18059588456981
 20
243.81653344756546
 30
0.0
 11
13.346504975478837
 21
243.81653344756546
 31
0.0
  0
LINE
  5
10145
330
1F
100
AcDbEntity
  8
0
100
AcDbLine
 10
13.346504975478837
 20
243.81653344756546
 30
0.0
 11
13.346504975478837
 21
244.48468483298348
 31
0.0
  0
LINE
  5
10146
330
1F
100
AcDbEntity
  8
0
100
AcDbLine
 10
13.346504975478837
 20
244.48468483298348
 30
0.0
 11
17.18059588456981
 21
244.48468483298348
 31
0.0
  0
LINE
  5
10147
330
1F
100
AcDbEntity
  8
0
100
AcDbLine
 10
12.43070265195172
 20
236.62748119501416
 30
0.0
 11
12.43070265195172
 21
235.62748119501416
 31
0.0
  0
LINE
  5
10148
330
1F
100
AcDbEntity
  8
0
100
AcDbLine
 10
12.43070265195172
 20
235.62748119501416
 30
0.0
 11
16.77069506629948
 21
235.62748119501416
 31
0.0
  0
LINE
  5
10149
330
1F
100
AcDbEntity
  8
0
100
AcDbLine
 10
16.77069506629948
 20
235.62748119501416
 30
0.0
 11
16.77069506629948
 21
236.62748119501416
 31
0.0
  0
LINE
  5
1014A
330
1F
100
AcDbEntity
  8
0
100
AcDbLine
 10
16.77069506629948
 20
236.62748119501416
 30
0.0
 11
21.66468679366062
 21
236.62748119501416
 31
0.0
  0
LINE
  5
1014B
330
1F
100
AcDbEntity
  8
0
100
AcDbLine
 10
21.66468679366062
 20
236.62748119501416
 30
0.0
 11
21.66468679366062
 21
247.33884483137777
 31
0.0
  0
LINE
  5
1014C
330
1F
100
AcDbEntity
  8
0
100
AcDbLine
 10
21.66468679366062
 20
247.33884483137777
 30
0.0
 11
10.0
 21
247.33884483137777
 31
0.0
  0
LINE
  5
1014D
330
1F
100
AcDbEntity
  8
0
100
AcDbLine
 10
10.0
 20
247.33884483137777
 30
0.0
 11
10.0
 21
236.62748119501416
 31
0.0
  0
LINE
  5
1014E
330
1F
100
AcDbEntity
  8
0
100
AcDbLine
 10
10.0
 20
236.62748119501416
 30
0.0
 11
12.43070265195172
 21
236.62748119501416
 31
0.0
  0
LINE
  5
1014F
330
1F
100
AcDbEntity
  8
0
100
AcDbLine
 10
10.999999999999943
 20
261.0563775647996
 30
0.0
 11
10.999999999999943
 21
257.3388448313778
 31
0.0
  0
LINE
  5
10150
330
1F
100
AcDbEntity
  8
0
100
AcDbLine
 10
10.999999999999943
 20
257.3388448313778
 30
0.0
 11
22.711363636363586
 21
257.3388448313778
 31
0.0
  0
LINE
  5
10151
330
1F
100
AcDbEntity
  8
0
100
AcDbLine
 10
22.711363636363586
 20
257.3388448313778
 30
0.0
 11
22.711363636363586
 21
262.30783655873887
 31
0.0
  0
LINE
  5
10152
330
1F
100
AcDbEntity
  8
0
100
AcDbLine
 10
22.711363636363586
 20
262.30783655873887
 30
0.0
 11
21.711363636363643
 21
262.30783655873887
 31
0.0
  0
LINE
  5
10153
330
1F
100
AcDbEntity
  8
0
100
AcDbLine
 10
21.711363636363643
 20
262.30783655873887
 30
0.0
 11
21.711363636363643
 21
266.49782897308677
 31
0.0
  0
LINE
  5
10154
330
1F
100
AcDbEntity
  8
0
100
AcDbLine
 10
21.711363636363643
 20
266.49782897308677
 30
0.0
 11
22.711363636363586
 21
266.49782897308677
 31
0.0
  0
LINE
  5
10155
330
1F
100
AcDbEntity
  8
0
100
AcDbLine
 10
22.711363636363586
 20
266.49782897308677
 30
0.0
 11
22.711363636363586
 21
271.0502084677413
 31
0.0
  0
LINE
  5
10156
330
1F
100
AcDbEntity
  8
0
100
AcDbLine
 10
22.711363636363586
 20
271.0502084677413
 30
0.0
 11
10.999999999999943
 21
271.0502084677413
 31
0.0
  0
LINE
  5
10157
330
1F
100
AcDbEntity
  8
0
100
AcDbLine
 10
10.999999999999943
 20
271.0502084677413
 30
0.0
 11
10.999999999999943
 21
268.16865671276366
 31
0.0
  0
LINE
  5
10158
330
1F
100
AcDbEntity
  8
0
100
AcDbLine
 10
10.999999999999943
 20
268.16865671276366
 30
0.0
 11
10.0
 21
268.16865671276366
 31
0.0
  0
LINE
  5
10159
330
1F
100
AcDbEntity
  8
0
100
AcDbLine
 10
10.0
 20
268.16865671276366
 30
0.0
 11
10.0
 21
261.0563775647996
 31
0.0
  0
LINE
  5
1015A
330
1F
100
AcDbEntity
  8
0
100
AcDbLine
 10
10.0
 20
261.0563775647996
 30
0.0
 11
10.999999999999943
 21
261.0563775647996
 31
0.0
  0
LINE
  5
1015B
330
1F
100
AcDbEntity
  8
0
100
AcDbLine
 10
18.91448001653842
 20
267.020663013196
 30
0.0
 11
19.839480016538573
 21
267.020663013196
 31
0.0
  0
LINE
  5
1015C
330
1F
100
AcDbEntity
  8
0
100
AcDbLine
 10
19.839480016538573
 20
267.020663013196
 30
0.0
 11
19.839480016538573
 21
261.8229357404686
 31
0.0
  0
LINE
  5
1015D
330
1F
100
AcDbEntity
  8
0
100
AcDbLine
 10
19.839480016538573
 20
261.8229357404686
 30
0.0
 11
18.91448001653842
 21
261.8229357404686
 31
0.0
  0
LINE
  5
1015E
330
1F
100
AcDbEntity
  8
0
100
AcDbLine
 10
18.91448001653842
 20
261.8229357404686
 30
0.0
 11
18.91448001653842
 21
267.020663013196
 31
0.0
  0
LINE
  5
1015F
330
1F
100
AcDbEntity
  8
0
100
AcDbLine
 10
17.839480016538545
 20
261.8229357404686
 30
0.0
 11
16.914480016538533
 21
261.8229357404686
 31
0.0
  0
LINE
  5
10160
330
1F
100
AcDbEntity
  8
0
100
AcDbLine
 10
16.914480016538533
 20
261.8229357404686
 30
0.0
 11
16.914480016538533
 21
267.020663013196
 31
0.0
  0
LINE
  5
10161
330
1F
100
AcDbEntity
  8
0
100
AcDbLine
 10
16.914480016538533
 20
267.020663013196
 30
0.0
 11
17.839480016538545
 21
267.020663013196
 31
0.0
  0
LINE
  5
10162
330
1F
100
AcDbEntity
  8
0
100
AcDbLine
 10
17.839480016538545
 20
267.020663013196
 30
0.0
 11
17.839480016538545
 21
261.8229357404686
 31
0.0
  0
LINE
  5
10163
330
1F
100
AcDbEntity
  8
0
100
AcDbLine
 10
15.511380389409766
 20
284.22660114299373
 30
0.0
 11
15.511380389409766
 21
283.30160114299366
 31
0.0
  0
LINE
  5
10164
330
1F
100
AcDbEntity
  8
0
100
AcDbLine
 10
15.511380389409766
 20
283.30160114299366
 30
0.0
 11
11.677289480318791
 21
283.30160114299366
 31
0.0
  0
LINE
  5
10165
330
1F
100
AcDbEntity
  8
0
100
AcDbLine
 10
11.677289480318791
 20
283.30160114299366
 30
0.0
 11
11.677289480318791
 21
284.22660114299373
 31
0.0
  0
LINE
  5
10166
330
1F
100
AcDbEntity
  8
0
100
AcDbLine
 10
11.677289480318791
 20
284.22660114299373
 30
0.0
 11
15.511380389409766
 21
284.22660114299373
 31
0.0
  0
LINE
  5
10167
330
1F
100
AcDbEntity
  8
0
100
AcDbLine
 10
15.511380389409766
 20
285.30160114299366
 30
0.0
 11
11.677289480318791
 21
285.30160114299366
 31
0.0
  0
LINE
  5
10168
330
1F
100
AcDbEntity
  8
0
100
AcDbLine
 10
11.677289480318791
 20
285.30160114299366
 30
0.0
 11
11.677289480318791
 21
286.22660114299373
 31
0.0
  0
LINE
  5
10169
330
1F
100
AcDbEntity
  8
0
100
AcDbLine
 10
11.677289480318791
 20
286.22660114299373
 30
0.0
 11
15.511380389409766
 21
286.22660114299373
 31
0.0
  0
LINE
  5
1016A
330
1F
100
AcDbEntity
  8
0
100
AcDbLine
 10
15.511380389409766
 20
286.22660114299373
 30
0.0
 11
15.511380389409766
 21
285.30160114299366
 31
0.0
  0
LINE
  5
1016B
330
1F
100
AcDbEntity
  8
0
100
AcDbLine
 10
15.511380389409766
 20
294.9660043198712
 30
0.0
 11
15.511380389409766
 21
294.04100431987115
 31
0.0
  0
LINE
  5
1016C
330
1F
100
AcDbEntity
  8
0
100
AcDbLine
 10
15.511380389409766
 20
294.04100431987115
 30
0.0
 11
11.677289480318791
 21
294.04100431987115
 31
0.0
  0
LINE
  5
1016D
330
1F
100
AcDbEntity
  8
0
100
AcDbLine
 10
11.677289480318791
 20
294.04100431987115
 30
0.0
 11
11.677289480318791
 21
294.9660043198712
 31
0.0
  0
LINE
  5
1016E
330
1F
100
AcDbEntity
  8
0
100
AcDbLine
 10
11.677289480318791
 20
294.9660043198712
 30
0.0
 11
15.511380389409766
 21
294.9660043198712
 31
0.0
  0
LINE
  5
1016F
330
1F
100
AcDbEntity
  8
0
100
AcDbLine
 10
11.677289480318791
 20
296.04100431987115
 30
0.0
 11
11.677289480318791
 21
296.9660043198712
 31
0.0
  0
LINE
  5
10170
330
1F
100
AcDbEntity
  8
0
100
AcDbLine
 10
11.677289480318791
 20
296.9660043198712
 30
0.0
 11
15.511380389409766
 21
296.9660043198712
 31
0.0
  0
LINE
  5
10171
330
1F
100
AcDbEntity
  8
0
100
AcDbLine
 10
15.511380389409766
 20
296.9660043198712
 30
0.0
 11
15.511380389409766
 21
296.04100431987115
 31
0.0
  0
LINE
  5
10172
330
1F
100
AcDbEntity
  8
0
100
AcDbLine
 10
15.511380389409766
 20
296.04100431987115
 30
0.0
 11
11.677289480318791
 21
296.04100431987115
 31
0.0
  0
LINE
  5
10173
330
1F
100
AcDbEntity
  8
0
100
AcDbLine
 10
10.170841770820829
 20
281.0502084677413
 30
0.0
 11
33.93823564023961
 21
281.06980999244337
 31
0.0
  0
LINE
  5
10174
330
1F
100
AcDbEntity
  8
0
100
AcDbLine
 10
33.93823564023961
 20
281.06980999244337
 30
0.0
 11
33.93823564023961
 21
299.85066601493736
 31
0.0
  0
LINE
  5
10175
330
1F
100
AcDbEntity
  8
0
100
AcDbLine
 10
33.93823564023961
 20
299.85066601493736
 30
0.0
 11
28.061513935460596
 21
299.85066601493736
 31
0.0
  0
LINE
  5
10176
330
1F
100
AcDbEntity
  8
0
100
AcDbLine
 10
28.061513935460596
 20
299.85066601493736
 30
0.0
 11
28.061513935460596
 21
300.85066601493736
 31
0.0
  0
LINE
  5
10177
330
1F
100
AcDbEntity
  8
0
100
AcDbLine
 10
28.061513935460596
 20
300.85066601493736
 30
0.0
 11
25.091148865456177
 21
300.85066601493736
 31
0.0
  0
LINE
  5
10178
330
1F
100
AcDbEntity
  8
0
100
AcDbLine
 10
25.091148865456177
 20
300.85066601493736
 30
0.0
 11
25.091585935288947
 21
299.85066601493736
 31
0.0
  0
LINE
  5
10179
330
1F
100
AcDbEntity
  8
0
100
AcDbLine
 10
25.091585935288947
 20
299.85066601493736
 30
0.0
 11
16.27871581789364
 21
299.85066601493736
 31
0.0
  0
LINE
  5
1017A
330
1F
100
AcDbEntity
  8
0
100
AcDbLine
 10
16.27871581789364
 20
299.85066601493736
 30
0.0
 11
16.27871581789364
 21
300.85066601493736
 31
0.0
  0
LINE
  5
1017B
330
1F
100
AcDbEntity
  8
0
100
AcDbLine
 10
16.27871581789364
 20
300.85066601493736
 30
0.0
 11
13.765895517707492
 21
300.85066601493736
 31
0.0
  0
LINE
  5
1017C
330
1F
100
AcDbEntity
  8
0
100
AcDbLine
 10
13.765895517707492
 20
300.85066601493736
 30
0.0
 11
13.765895517707492
 21
299.85066601493736
 31
0.0
  0
LINE
  5
1017D
330
1F
100
AcDbEntity
  8
0
100
AcDbLine
 10
13.765895517707492
 20
299.85066601493736
 30
0.0
 11
10.16496058771736
 21
299.85066601493736
 31
0.0
  0
LINE
  5
1017E
330
1F
100
AcDbEntity
  8
0
100
AcDbLine
 10
10.16496058771736
 20
299.85066601493736
 30
0.0
 11
10.0
 21
299.51461173623545
 31
0.0
  0
LINE
  5
1017F
330
1F
100
AcDbEntity
  8
0
100
AcDbLine
 10
10.0
 20
299.51461173623545
 30
0.0
 11
10.014966136430132
 21
281.36775506846107
 31
0.0
  0
LINE
  5
10180
330
1F
100
AcDbEntity
  8
0
100
AcDbLine
 10
10.014966136430132
 20
281.36775506846107
 30
0.0
 11
10.170841770820829
 21
281.0502084677413
 31
0.0
  0
LINE
  5
10181
330
1F
100
AcDbEntity
  8
0
100
AcDbLine
 10
22.71136363636373
 20
318.1913336129528
 30
1.4210854715202004e-13
 11
23.63636363636374
 21
318.1913336129527
 31
1.4210854715202004e-13
  0
LINE
  5
10182
330
1F
100
AcDbEntity
  8
0
100
AcDbLine
 10
23.63636363636374
 20
318.1913336129527
 30
1.4210854715202004e-13
 11
23.63636363636374
 21
315.5058779381363
 31
1.4224732503009818e-13
  0
LINE
  5
10183
330
1F
100
AcDbEntity
  8
0
100
AcDbLine
 10
23.63636363636374
 20
315.5058779381362
 30
1.4210854715202004e-13
 11
22.71136363636373
 21
315.5058779381362
 31
1.4210854715202004e-13
  0
LINE
  5
10184
330
1F
100
AcDbEntity
  8
0
100
AcDbLine
 10
22.71136363636373
 20
315.5058779381362
 30
1.4210854715202004e-13
 11
22.71136363636373
 21
318.1913336129527
 31
1.419697692739419e-13
  0
LINE
  5
10185
330
1F
100
AcDbEntity
  8
0
100
AcDbLine
 10
15.040434878436173
 20
320.5038215555426
 30
1.4210854715202004e-13
 11
15.040434878436173
 21
321.0038215555426
 31
1.4210854715202004e-13
  0
LINE
  5
10186
330
1F
100
AcDbEntity
  8
0
100
AcDbLine
 10
15.040434878436173
 20
321.0038215555426
 30
1.4210854715202004e-13
 11
11.000000000000085
 21
321.00382155554263
 31
1.4210854715202004e-13
  0
LINE
  5
10187
330
1F
100
AcDbEntity
  8
0
100
AcDbLine
 10
11.000000000000085
 20
321.0038215555427
 30
1.4210854715202004e-13
 11
11.000000000000085
 21
317.64308088275277
 31
1.4183099139586375e-13
  0
LINE
  5
10188
330
1F
100
AcDbEntity
  8
0
100
AcDbLine
 10
11.000000000000085
 20
317.6430808827527
 30
2.8421709430404007e-13
 11
10.000000000000142
 21
317.64308088275277
 31
2.8421709430404007e-13
  0
LINE
  5
10189
330
1F
100
AcDbEntity
  8
0
100
AcDbLine
 10
10.000000000000142
 20
317.6430808827529
 30
1.4210854715202004e-13
 11
10.000000000000142
 21
313.8382964308053
 31
1.4238610290817633e-13
  0
LINE
  5
1018A
330
1F
100
AcDbEntity
  8
0
100
AcDbLine
 10
10.0
 20
313.83829643080526
 30
1.4210854715202004e-13
 11
10.999999999999801
 21
313.83829643080514
 31
1.4210854715202004e-13
  0
LINE
  5
1018B
330
1F
100
AcDbEntity
  8
0
100
AcDbLine
 10
10.999999999999801
 20
313.83829643080514
 30
2.8421709430404007e-13
 11
10.999999999999801
 21
310.85066601493736
 31
2.8421709430404007e-13
  0
LINE
  5
1018C
330
1F
100
AcDbEntity
  8
0
100
AcDbLine
 10
10.999999999999801
 20
310.85066601493736
 30
2.8421709430404007e-13
 11
25.529545454545257
 21
310.8506660149374
 31
2.8421709430404e-13
  0
LINE
  5
1018D
330
1F
100
AcDbEntity
  8
0
100
AcDbLine
 10
25.529545454545257
 20
310.8506660149375
 30
1.4210854715202004e-13
 11
25.529545454545257
 21
321.00382155554263
 31
1.4210854715202004e-13
  0
LINE
  5
1018E
330
1F
100
AcDbEntity
  8
0
100
AcDbLine
 10
25.5295454545454
 20
321.0038215555426
 30
1.4210854715202004e-13
 11
20.983878322466722
 21
321.0038215555426
 31
1.4210854715202004e-13
  0
LINE
  5
1018F
330
1F
100
AcDbEntity
  8
0
100
AcDbLine
 10
20.983878322466722
 20
321.00382155554263
 30
1.4210854715202004e-13
 11
20.983878322466722
 21
320.50382155554274
 31
1.4210854715202004e-13
  0
LINE
  5
10190
330
1F
100
AcDbEntity
  8
0
100
AcDbLine
 10
20.983878322466722
 20
320.50382155554274
 30
1.4210854715202004e-13
 11
15.040434878436173
 21
320.5038215555427
 31
1.4210854715202006e-13
  0
LINE
  5
10191
330
1F
100
AcDbEntity
  8
0
100
AcDbLine
 10
38.16590909090934
 20
340.97994665957424
 30
-1.4210854715202004e-13
 11
39.09090909090935
 21
340.9799466595741
 31
-1.4210854715202004e-13
  0
LINE
  5
10192
330
1F
100
AcDbEntity
  8
0
100
AcDbLine
 10
39.09090909090935
 20
340.9799466595741
 30
-1.4210854715202004e-13
 11
39.09090909090935
 21
337.7781564151831
 31
-1.4210854715202004e-13
  0
LINE
  5
10193
330
1F
100
AcDbEntity
  8
0
100
AcDbLine
 10
39.09090909090935
 20
337.7781564151831
 30
-1.4210854715202004e-13
 11
38.16590909090934
 21
337.7781564151831
 31
-1.4210854715202004e-13
  0
LINE
  5
10194
330
1F
100
AcDbEntity
  8
0
100
AcDbLine
 10
38.16590909090934
 20
337.7781564151831
 30
-1.4210854715202004e-13
 11
38.16590909090934
 21
340.97994665957424
 31
-1.4210854715202004e-13
  0
LINE
  5
10195
330
1F
100
AcDbEntity
  8
0
100
AcDbLine
 10
12.818181818181813
 20
337.98497797461687
 30
-1.4210854715202004e-13
 11
11.893181818181802
 21
337.98497797461687
 31
-1.4210854715202004e-13
  0
LINE
  5
10196
330
1F
100
AcDbEntity
  8
0
100
AcDbLine
 10
11.893181818181802
 20
337.98497797461687
 30
-1.4210854715202004e-13
 11
11.893181818181802
 21
342.432928141302
 31
-1.4210854715202004e-13
  0
LINE
  5
10197
330
1F
100
AcDbEntity
  8
0
100
AcDbLine
 10
11.893181818181802
 20
342.432928141302
 30
0.0
 11
12.818181818181813
 21
342.432928141302
 31
0.0
  0
LINE
  5
10198
330
1F
100
AcDbEntity
  8
0
100
AcDbLine
 10
12.818181818181813
 20
342.432928141302
 30
0.0
 11
12.818181818181813
 21
337.98497797461687
 31
0.0
  0
LINE
  5
10199
330
1F
100
AcDbEntity
  8
0
100
AcDbLine
 10
36.25650268385485
 20
345.55590098237576
 30
-1.4210854715202004e-13
 11
36.25650268385485
 21
346.0559009823757
 31
-1.420738526825005e-13
  0
LINE
  5
1019A
330
1F
100
AcDbEntity
  8
0
100
AcDbLine
 10
36.25650268385485
 20
346.05590098237565
 30
-1.4210854715202004e-13
 11
30.47818155738952
 21
346.05590098237553
 31
-1.4210854715202004e-13
  0
LINE
  5
1019B
330
1F
100
AcDbEntity
  8
0
100
AcDbLine
 10
30.47818155738952
 20
346.05590098237565
 30
-1.4210854715202004e-13
 11
30.47818155738952
 21
345.55590098237565
 31
-1.4214324162153957e-13
  0
LINE
  5
1019C
330
1F
100
AcDbEntity
  8
0
100
AcDbLine
 10
30.47818155738952
 20
345.55590098237565
 30
-1.4210854715202004e-13
 11
22.724087511093813
 21
345.55590098237576
 31
-1.4210854715202004e-13
  0
LINE
  5
1019D
330
1F
100
AcDbEntity
  8
0
100
AcDbLine
 10
22.724087511093813
 20
345.55590098237576
 30
-1.4210854715202004e-13
 11
22.724087511093813
 21
346.0559009823757
 31
-1.420738526825005e-13
  0
LINE
  5
1019E
330
1F
100
AcDbEntity
  8
0
100
AcDbLine
 10
22.724087511093813
 20
346.05590098237565
 30
-1.4210854715202004e-13
 11
16.562349838311548
 21
346.05590098237553
 31
-1.4210854715202004e-13
  0
LINE
  5
1019F
330
1F
100
AcDbEntity
  8
0
100
AcDbLine
 10
16.562349838311548
 20
346.05590098237565
 30
-1.4210854715202004e-13
 11
16.562349838311548
 21
345.55590098237565
 31
-1.4214324162153957e-13
  0
LINE
  5
101A0
330
1F
100
AcDbEntity
  8
0
100
AcDbLine
 10
16.562349838311548
 20
345.55590098237565
 30
-1.4210854715202004e-13
 11
10.0
 21
345.55590098237576
 31
-1.4210854715202004e-13
  0
LINE
  5
101A1
330
1F
100
AcDbEntity
  8
0
100
AcDbLine
 10
10.0
 20
345.55590098237576
 30
-1.4210854715202004e-13
 11
10.0
 21
331.0038215555427
 31
-1.432187701766452e-13
  0
LINE
  5
101A2
330
1F
100
AcDbEntity
  8
0
100
AcDbLine
 10
10.0
 20
331.0038215555428
 30
-1.4210854715202004e-13
 11
40.98409090909115
 21
331.0038215555428
 31
-1.4210854715202004e-13
  0
LINE
  5
101A3
330
1F
100
AcDbEntity
  8
0
100
AcDbLine
 10
40.98409090909115
 20
331.0038215555428
 30
-1.4210854715202004e-13
 11
40.98409090909115
 21
345.5559009823758
 31
-1.4099832412739488e-13
  0
LINE
  5
101A4
330
1F
100
AcDbEntity
  8
0
100
AcDbLine
 10
40.98409090909115
 20
345.55590098237576
 30
-1.4210854715202004e-13
 11
36.25650268385485
 21
345.55590098237576
 31
-1.4210854715202004e-13
  0
LINE
  5
101A5
330
1F
100
AcDbEntity
  8
0
100
AcDbLine
 10
14.76508822523627
 20
371.0625258637541
 30
1.4210854715202004e-13
 11
10.0
 21
371.0625258637541
 31
1.4210854715202004e-13
  0
LINE
  5
101A6
330
1F
100
AcDbEntity
  8
0
100
AcDbLine
 10
10.0
 20
371.0625258637541
 30
1.4210854715202004e-13
 11
10.0
 21
356.0559009823757
 31
1.432187701766452e-13
  0
LINE
  5
101A7
330
1F
100
AcDbEntity
  8
0
100
AcDbLine
 10
10.0
 20
356.0559009823757
 30
0.0
 11
40.98409090909115
 21
356.05590098237565
 31
0.0
  0
LINE
  5
101A8
330
1F
100
AcDbEntity
  8
0
100
AcDbLine
 10
40.98409090909115
 20
356.0559009823757
 30
0.0
 11
40.98409090909115
 21
371.0625258637542
 31
0.0
  0
LINE
  5
101A9
330
1F
100
AcDbEntity
  8
0
100
AcDbLine
 10
40.98409090909115
 20
371.0625258637541
 30
1.4210854715202004e-13
 11
34.38424107077964
 21
371.0625258637541
 31
1.4210854715202004e-13
  0
LINE
  5
101AA
330
1F
100
AcDbEntity
  8
0
100
AcDbLine
 10
34.38424107077964
 20
371.0625258637541
 30
1.4210854715202004e-13
 11
28.297503397997303
 21
371.0625258637541
 31
1.4210854715202004e-13
  0
LINE
  5
101AB
330
1F
100
AcDbEntity
  8
0
100
AcDbLine
 10
28.297503397997303
 20
371.0625258637541
 30
1.4210854715202004e-13
 11
20.468409351701666
 21
371.0625258637541
 31
1.4210854715202004e-13
  0
LINE
  5
101AC
330
1F
100
AcDbEntity
  8
0
100
AcDbLine
 10
20.468409351701666
 20
371.0625258637541
 30
1.4210854715202004e-13
 11
14.76508822523627
 21
371.0625258637541
 31
1.4210854715202004e-13
  0
LINE
  5
101AD
330
1F
100
AcDbEntity
  8
0
100
AcDbLine
 10
38.16590909090934
 20
367.9395530226804
 30
1.4210854715202004e-13
 11
39.09090909090935
 21
367.9395530226804
 31
1.4210854715202004e-13
  0
LINE
  5
101AE
330
1F
100
AcDbEntity
  8
0
100
AcDbLine
 10
39.09090909090935
 20
367.9395530226804
 30
1.4210854715202004e-13
 11
39.09090909090935
 21
363.5594654572252
 31
1.4210854715202004e-13
  0
LINE
  5
101AF
330
1F
100
AcDbEntity
  8
0
100
AcDbLine
 10
39.09090909090935
 20
363.5594654572251
 30
0.0
 11
38.16590909090934
 21
363.5594654572251
 31
0.0
  0
LINE
  5
101B0
330
1F
100
AcDbEntity
  8
0
100
AcDbLine
 10
38.16590909090934
 20
363.5594654572251
 30
0.0
 11
38.16590909090934
 21
367.93955302268034
 31
0.0
  0
LINE
  5
101B1
330
1F
100
AcDbEntity
  8
0
100
AcDbLine
 10
12.818181818181813
 20
367.59880106779383
 30
0.0
 11
12.818181818181813
 21
364.923176418757
 31
0.0
  0
LINE
  5
101B2
330
1F
100
AcDbEntity
  8
0
100
AcDbLine
 10
12.818181818181813
 20
364.92317641875707
 30
1.4210854715202004e-13
 11
11.893181818181802
 21
364.92317641875707
 31
1.4210854715202004e-13
  0
LINE
  5
101B3
330
1F
100
AcDbEntity
  8
0
100
AcDbLine
 10
11.893181818181802
 20
364.92317641875707
 30
1.4210854715202004e-13
 11
11.893181818181802
 21
367.59880106779394
 31
1.4210854715202004e-13
  0
LINE
  5
101B4
330
1F
100
AcDbEntity
  8
0
100
AcDbLine
 10
11.893181818181802
 20
367.59880106779383
 30
0.0
 11
12.818181818181813
 21
367.59880106779383
 31
0.0
  0
LINE
  5
101B5
330
1F
100
AcDbEntity
  8
0
100
AcDbLine
 10
12.818181818181813
 20
388.5129554194391
 30
1.4210854715202004e-13
 11
12.818181818181813
 21
386.5058158896445
 31
1.4210854715202004e-13
  0
LINE
  5
101B6
330
1F
100
AcDbEntity
  8
0
100
AcDbLine
 10
12.818181818181813
 20
386.5058158896445
 30
0.0
 11
11.893181818181802
 21
386.50581588964445
 31
-3.944304526105059e-30
  0
LINE
  5
101B7
330
1F
100
AcDbEntity
  8
0
100
AcDbLine
 10
11.893181818181802
 20
386.5058158896445
 30
0.0
 11
11.893181818181802
 21
388.5129554194391
 31
0.0
  0
LINE
  5
101B8
330
1F
100
AcDbEntity
  8
0
100
AcDbLine
 10
11.893181818181802
 20
388.512955419439
 30
0.0
 11
12.818181818181813
 21
388.5129554194391
 31
0.0
  0
LINE
  5
101B9
330
1F
100
AcDbEntity
  8
0
100
AcDbLine
 10
25.5295454545454
 20
384.48869957879134
 30
-1.4210854715202004e-13
 11
25.5295454545454
 21
388.24232552269694
 31
-1.4183099139586375e-13
  0
LINE
  5
101BA
330
1F
100
AcDbEntity
  8
0
100
AcDbLine
 10
25.5295454545454
 20
388.242325522697
 30
0.0
 11
24.529545454545456
 21
388.24232552269694
 31
3.944304526105059e-30
  0
LINE
  5
101BB
330
1F
100
AcDbEntity
  8
0
100
AcDbLine
 10
24.529545454545456
 20
388.24232552269694
 30
0.0
 11
24.529545454545456
 21
390.7156814043596
 31
1.3877787807814457e-16
  0
LINE
  5
101BC
330
1F
100
AcDbEntity
  8
0
100
AcDbLine
 10
24.529545454545456
 20
390.7156814043596
 30
0.0
 11
20.526610576109334
 21
390.71568140435966
 31
0.0
  0
LINE
  5
101BD
330
1F
100
AcDbEntity
  8
0
100
AcDbLine
 10
20.526610576109334
 20
390.71568140435966
 30
0.0
 11
14.508167132078853
 21
390.71568140435966
 31
0.0
  0
LINE
  5
101BE
330
1F
100
AcDbEntity
  8
0
100
AcDbLine
 10
14.508167132078853
 20
390.71568140435966
 30
0.0
 11
10.0
 21
390.71568140435954
 31
0.0
  0
LINE
  5
101BF
330
1F
100
AcDbEntity
  8
0
100
AcDbLine
 10
10.0
 20
390.71568140435943
 30
1.4210854715202004e-13
 11
10.0
 21
381.0625258637542
 31
1.4210854715202004e-13
  0
LINE
  5
101C0
330
1F
100
AcDbEntity
  8
0
100
AcDbLine
 10
10.0
 20
381.0625258637542
 30
1.4210854715202004e-13
 11
24.529545454545456
 21
381.0625258637542
 31
1.4210854715202006e-13
  0
LINE
  5
101C1
330
1F
100
AcDbEntity
  8
0
100
AcDbLine
 10
24.529545454545456
 20
381.0625258637542
 30
1.4210854715202004e-13
 11
24.529545454545456
 21
384.48869957879134
 31
1.4210854715202004e-13
  0
LINE
  5
101C2
330
1F
100
AcDbEntity
  8
0
100
AcDbLine
 10
24.529545454545456
 20
384.48869957879134
 30
-1.4210854715202004e-13
 11
25.5295454545454
 21
384.48869957879134
 31
-1.4210854715202004e-13
  0
ENDSEC
  0
SECTION
  2
OBJECTS
  0
DICTIONARY
  5
C
330
None
100
AcDbDictionary
281
1
  3
ACAD_GROUP
350
D
  3
ACAD_MLINESTYLE
350
17
  3
ACAD_COLOR
350
1005A
  3
ACAD_LAYOUT
350
1005B
  3
ACAD_MATERIAL
350
1005C
  3
ACAD_MLEADERSTYLE
350
1005D
  3
ACAD_PLOTSETTINGS
350
1005E
  3
ACAD_PLOTSTYLENAME
350
1005F
  3
ACAD_SCALELIST
350
10061
  3
ACAD_TABLESTYLE
350
10062
  3
ACAD_VISUALSTYLE
350
10063
  0
DICTIONARY
  5
D
330
None
100
AcDbDictionary
281
1
  0
DICTIONARY
  5
1A
330
C
100
AcDbDictionary
281
1
  0
DICTIONARY
  5
17
330
None
100
AcDbDictionary
281
1
  3
Standard
350
10069
  0
DICTIONARY
  5
1005A
330
C
100
AcDbDictionary
281
1
  0
DICTIONARY
  5
1005B
330
C
100
AcDbDictionary
281
1
  3
Model
350
10064
  3
Layout1
350
10065
  0
DICTIONARY
  5
1005C
330
C
100
AcDbDictionary
281
1
  3
ByBlock
350
10066
  3
ByLayer
350
10067
  3
Global
350
10068
  0
DICTIONARY
  5
1005D
330
C
100
AcDbDictionary
281
1
  3
Standard
350
1006E
  0
DICTIONARY
  5
1005E
330
C
100
AcDbDictionary
281
1
  0
ACDBDICTIONARYWDFLT
  5
1005F
330
C
100
AcDbDictionary
281
1
  3
Normal
350
10060
100
AcDbDictionaryWithDefault
340
10060
  0
ACDBPLACEHOLDER
  5
10060
330
1005F
  0
DICTIONARY
  5
10061
330
C
100
AcDbDictionary
281
1
  0
DICTIONARY
  5
10062
330
C
100
AcDbDictionary
281
1
  0
DICTIONARY
  5
10063
330
C
100
AcDbDictionary
281
1
  0
LAYOUT
  5
10064
330
1005B
100
AcDbPlotSettings
  1

  2
Adobe PDF
  4
A4
  6

 40
3.175
 41
3.175
 42
3.175
 43
3.175
 44
209.91
 45
297.03
 46
0.0
 47
0.0
 48
0.0
 49
0.0
140
0.0
141
0.0
142
1.0
143
1.0
 70
1024
 72
0
 73
1
 74
5
  7

 75
16
 76
0
 77
2
 78
300
147
1.0
148
0.0
149
0.0
100
AcDbLayout
  1
Model
 70
1
 71
0
 10
-3.175
 20
-3.175
 11
293.857
 21
206.735
 12
0.0
 22
0.0
 32
0.0
 14
29.068
 24
20.356
 34
0.0
 15
261.614
 25
183.204
 35
0.0
146
0.0
 13
0.0
 23
0.0
 33
0.0
 16
1.0
 26
0.0
 36
0.0
 17
0.0
 27
1.0
 37
0.0
 76
1
330
1F
  0
LAYOUT
  5
10065
330
1005B
100
AcDbPlotSettings
  1

  2
Adobe PDF
  4
A4
  6

 40
3.175
 41
3.175
 42
3.175
 43
3.175
 44
209.91
 45
297.03
 46
0.0
 47
0.0
 48
0.0
 49
0.0
140
0.0
141
0.0
142
1.0
143
1.0
 70
0
 72
0
 73
1
 74
5
  7

 75
16
 76
0
 77
2
 78
300
147
1.0
148
0.0
149
0.0
100
AcDbLayout
  1
Layout1
 70
1
 71
1
 10
-3.175
 20
-3.175
 11
293.857
 21
206.735
 12
0.0
 22
0.0
 32
0.0
 14
29.068
 24
20.356
 34
0.0
 15
261.614
 25
183.204
 35
0.0
146
0.0
 13
0.0
 23
0.0
 33
0.0
 16
1.0
 26
0.0
 36
0.0
 17
0.0
 27
1.0
 37
0.0
 76
1
330
1B
  0
MATERIAL
  5
10066
102
{ACAD_REACTORS
330
1005C
102
}
330
1005C
100
AcDbMaterial
  1
ByBlock
  2

 70
0
 40
1.0
 71
1
 41
1.0
 91
-1023410177
 42
1.0
 72
1
  3

 73
1
 74
1
 75
1
 44
0.5
 73
0
 45
1.0
 46
1.0
 77
1
  4

 78
1
 79
1
170
1
 48
1.0
171
1
  6

172
1
173
1
174
1
140
1.0
141
1.0
175
1
  7

176
1
177
1
178
1
143
1.0
179
1
  8

270
1
271
1
272
1
145
1.0
146
1.0
273
1
  9

274
1
275
1
276
1
 42
1.0
 72
1
  3

 73
1
 74
1
 75
1
 94
63
  0
MATERIAL
  5
10067
102
{ACAD_REACTORS
330
1005C
102
}
330
1005C
100
AcDbMaterial
  1
ByLayer
  2

 70
0
 40
1.0
 71
1
 41
1.0
 91
-1023410177
 42
1.0
 72
1
  3

 73
1
 74
1
 75
1
 44
0.5
 73
0
 45
1.0
 46
1.0
 77
1
  4

 78
1
 79
1
170
1
 48
1.0
171
1
  6

172
1
173
1
174
1
140
1.0
141
1.0
175
1
  7

176
1
177
1
178
1
143
1.0
179
1
  8

270
1
271
1
272
1
145
1.0
146
1.0
273
1
  9

274
1
275
1
276
1
 42
1.0
 72
1
  3

 73
1
 74
1
 75
1
 94
63
  0
MATERIAL
  5
10068
102
{ACAD_REACTORS
330
1005C
102
}
330
1005C
100
AcDbMaterial
  1
Global
  2

 70
0
 40
1.0
 71
1
 41
1.0
 91
-1023410177
 42
1.0
 72
1
  3

 73
1
 74
1
 75
1
 44
0.5
 73
0
 45
1.0
 46
1.0
 77
1
  4

 78
1
 79
1
170
1
 48
1.0
171
1
  6

172
1
173
1
174
1
140
1.0
141
1.0
175
1
  7

176
1
177
1
178
1
143
1.0
179
1
  8

270
1
271
1
272
1
145
1.0
146
1.0
273
1
  9

274
1
275
1
276
1
 42
1.0
 72
1
  3

 73
1
 74
1
 75
1
 94
63
  0
MLINESTYLE
  5
10069
102
{ACAD_REACTORS
330
17
102
}
330
17
100
AcDbMlineStyle
  2
Standard
 70
0
  3

 62
256
 51
90.0
 52
90.0
 71
2
 49
0.5
 62
256
  6
BYLAYER
 49
-0.5
 62
256
  6
BYLAYER
  0
MLEADERSTYLE
  5
1006E
102
{ACAD_REACTORS
330
1005D
102
}
330
1005D
100
AcDbMLeaderStyle
179
2
170
2
171
1
172
0
 90
2
 40
0.0
 41
0.0
173
1
 91
-1056964608
 92
-2
290
1
 42
2.0
291
1
 43
8.0
  3
Standard
 44
4.0
300

342
11
174
1
175
1
176
0
178
1
 93
-1056964608
 45
4.0
292
0
297
0
 46
4.0
 94
-1056964608
 47
1.0
 49
1.0
140
1.0
294
1
141
0.0
177
0
142
1.0
295
0
296
0
143
3.75
271
0
272
9
273
9
  0
ENDSEC
  0
EOF
