0
SECTION
2
HEADER
9
$INSUNITS
70
4
9
$ACADVER
1
AC1014
9
$HANDSEED
5
FFFF
0
ENDSEC
0
SECTION
2
TABLES
0
TABLE
2
VPORT
5
8
100
AcDbSymbolTable
0
ENDTAB
0
TABLE
2
LTYPE
5
5
100
AcDbSymbolTable
0
LTYPE
5
14
100
AcDbSymbolTableRecord
100
AcDbLinetypeTableRecord
2
BYBLOCK
70
0
0
LTYPE
5
15
100
AcDbSymbolTableRecord
100
AcDbLinetypeTableRecord
2
BYLAYER
70
0
0
ENDTAB
0
TABLE
2
LAYER
5
2
100
AcDbSymbolTable
70
2
0
LAYER
5
50
100
AcDbSymbolTableRecord
100
AcDbLayerTableRecord
2
0
70
0
6
CONTINUOUS
0
ENDTAB
0
TABLE
2
STYLE
5
3
100
AcDbSymbolTable
70
1
0
STYLE
5
11
100
AcDbSymbolTableRecord
100
AcDbTextStyleTableRecord
2
STANDARD
70
0
0
ENDTAB
0
TABLE
2
VIEW
5
6
100
AcDbSymbolTable
70
0
0
ENDTAB
0
TABLE
2
UCS
5
7
100
AcDbSymbolTable
70
0
0
ENDTAB
0
TABLE
2
APPID
5
9
100
AcDbSymbolTable
70
2
0
APPID
5
12
100
AcDbSymbolTableRecord
100
AcDbRegAppTableRecord
2
ACAD
70
0
0
ENDTAB
0
TABLE
2
DIMSTYLE
5
A
100
AcDbSymbolTable
70
1
0
ENDTAB
0
TABLE
2
BLOCK_RECORD
5
1
100
AcDbSymbolTable
70
1
0
BLOCK_RECORD
5
1F
100
AcDbSymbolTableRecord
100
AcDbBlockTableRecord
2
*MODEL_SPACE
0
BLOCK_RECORD
5
1B
100
AcDbSymbolTableRecord
100
AcDbBlockTableRecord
2
*PAPER_SPACE
0
ENDTAB
0
ENDSEC
0
SECTION
2
BLOCKS
0
BLOCK
5
20
100
AcDbEntity
100
AcDbBlockBegin
2
*MODEL_SPACE
0
ENDBLK
5
21
100
AcDbEntity
100
AcDbBlockEnd
0
BLOCK
5
1C
100
AcDbEntity
100
AcDbBlockBegin
2
*PAPER_SPACE
0
ENDBLK
5
1D
100
AcDbEntity
100
AcDbBlockEnd
0
ENDSEC
0
SECTION
2
ENTITIES
0
CIRCLE
5
100
100
AcDbEntity
8
0
100
AcDbCircle
10
66.425283933579564
20
31.531951738872781
30
0
40
3.9249999999999829
210
0
220
0
230
1
0
LINE
5
101
100
AcDbEntity
8
0
100
AcDbLine
10
105.83255613778228
20
35.456951738872782
30
0
11
105.83255613778228
21
27.60695173887278
31
0
0
LINE
5
102
100
AcDbEntity
8
0
100
AcDbLine
10
105.83255613778228
20
27.60695173887278
30
0
11
103.98255613778225
21
27.60695173887278
31
0
0
LINE
5
103
100
AcDbEntity
8
0
100
AcDbLine
10
103.98255613778225
20
27.60695173887278
30
0
11
103.98255613778225
21
35.456951738872782
31
0
0
LINE
5
104
100
AcDbEntity
8
0
100
AcDbLine
10
103.98255613778225
20
35.456951738872782
30
0
11
105.83255613778228
21
35.456951738872782
31
0
0
ARC
5
105
100
AcDbEntity
8
0
100
AcDbCircle
10
-113.0544191111872
20
-28.314214724737869
30
0
40
3.9561288741493827
210
0
220
0
230
1
100
AcDbArc
50
-120.867151873041
51
180.89987582315038
0
LINE
5
106
100
AcDbEntity
8
0
100
AcDbLine
10
-115.08410799271698
20
-31.709994268976995
30
0
11
-119.51638622829026
21
-34.270659215999387
31
0
0
LINE
5
107
100
AcDbEntity
8
0
100
AcDbLine
10
-119.51638622829026
20
-34.270659215999387
30
0
11
-116.4212124145515
21
-39.628123708143562
31
0
0
ARC
5
108
100
AcDbEntity
8
0
100
AcDbCircle
10
-209.80855289767737
20
168.33195173887276
30
0
40
227.96620000000004
210
-0
220
0
230
1
100
AcDbArc
50
294.18312208260983
51
294.72604931053769
0
LINE
5
109
100
AcDbEntity
8
0
100
AcDbLine
10
-114.45483242781688
20
-38.733874352724783
30
0
11
-116.07895970824114
21
-35.92265767824513
31
0
0
LINE
5
110
100
AcDbEntity
8
0
100
AcDbLine
10
-116.07895970824114
20
-35.92265767824513
30
0
11
-114.47707692912573
21
-34.997200190310792
31
0
0
LINE
5
111
100
AcDbEntity
8
0
100
AcDbLine
10
-114.47707692912573
20
-34.997200190310792
30
0
11
-112.77105611841741
21
-37.950167120845876
31
0
0
ARC
5
112
100
AcDbEntity
8
0
100
AcDbCircle
10
-209.80855289767737
20
168.33195173887276
30
0
40
227.96620000000001
210
-0
220
0
230
1
100
AcDbArc
50
295.19283640236921
51
298.83721937185118
0
LINE
5
113
100
AcDbEntity
8
0
100
AcDbLine
10
-99.855252050586003
20
-31.36496855603065
30
0
11
-88.313983090089891
21
-24.753074545811469
31
0
0
LINE
5
114
100
AcDbEntity
8
0
100
AcDbLine
10
-88.313983090089891
20
-24.753074545811469
30
0
11
-48.104114691570672
21
-1.5225833491879825
31
0
0
LINE
5
115
100
AcDbEntity
8
0
100
AcDbLine
10
-48.104114691570672
20
-1.5225833491879825
30
0
11
-48.104143244375344
21
-1.5225339265145266
31
0
0
ARC
5
116
100
AcDbEntity
8
0
100
AcDbCircle
10
45.291447102322522
20
-163.33164826112727
30
0
40
186.82859999999994
210
0
220
0
230
1
100
AcDbArc
50
93.492351283668597
51
119.99337478638544
0
LINE
5
117
100
AcDbEntity
8
0
100
AcDbLine
10
33.910728247963604
20
23.149999673241926
30
0
11
52.73519735120054
21
23.456951738872824
31
0
0
LINE
5
118
100
AcDbEntity
8
0
100
AcDbLine
10
52.73519735120054
20
23.456951738872824
30
0
11
111.9825561377823
21
23.456951738872824
31
0
0
LINE
5
119
100
AcDbEntity
8
0
100
AcDbLine
10
111.9825561377823
20
23.456951738872824
30
0
11
111.9825561377823
21
29.456951738872803
31
0
0
LINE
5
120
100
AcDbEntity
8
0
100
AcDbLine
10
111.9825561377823
20
29.456951738872803
30
0
11
116.86429925588364
21
29.456951738872803
31
0
0
ARC
5
121
100
AcDbEntity
8
0
100
AcDbCircle
10
120.40755613778231
20
31.531951738872799
30
0
40
4.1061288741492605
210
0
220
0
230
1
100
AcDbArc
50
-149.64593221837561
51
149.64593221837561
0
LINE
5
122
100
AcDbEntity
8
0
100
AcDbLine
10
116.86429925588364
20
33.606951738872795
30
0
11
111.9825561377823
21
33.606951738872759
31
0
0
LINE
5
123
100
AcDbEntity
8
0
100
AcDbLine
10
111.9825561377823
20
33.606951738872759
30
0
11
111.9825561377823
21
39.606951738872738
31
0
0
LINE
5
124
100
AcDbEntity
8
0
100
AcDbLine
10
111.9825561377823
20
39.606951738872738
30
0
11
48.318540254149198
21
39.606951738872738
31
0
0
LINE
5
125
100
AcDbEntity
8
0
100
AcDbLine
10
48.318540254149198
20
39.606951738872738
30
0
11
40.22748492893605
21
39.583773392985876
31
0
0
ARC
5
126
100
AcDbEntity
8
0
100
AcDbCircle
10
45.291447102322522
20
-163.33164826112727
30
0
40
202.97860000000003
210
0
220
0
230
1
100
AcDbArc
50
91.429578127452032
51
119.34528411360081
0
LINE
5
127
100
AcDbEntity
8
0
100
AcDbLine
10
-54.182588956478099
20
13.601187041233835
30
0
11
-59.068631278602766
21
10.794467818371363
31
0
0
LINE
5
128
100
AcDbEntity
8
0
100
AcDbLine
10
-59.068631278602766
20
10.794467818371363
30
0
11
-103.84807168055079
21
-15.076006657400178
31
0
0
ARC
5
129
100
AcDbEntity
8
0
100
AcDbCircle
10
-209.80855289767737
20
168.33195173887276
30
0
40
211.81619999999995
210
-0
220
0
230
1
100
AcDbArc
50
294.82409102542942
51
300.01636222126842
0
LINE
5
130
100
AcDbEntity
8
0
100
AcDbLine
10
-120.8809662051133
20
-23.912650025328883
30
0
11
-119.55458693049493
21
-26.208491969758985
31
0
0
LINE
5
131
100
AcDbEntity
8
0
100
AcDbLine
10
-119.55458693049493
20
-26.208491969758985
30
0
11
-121.15646970961035
21
-27.133949457693323
31
0
0
LINE
5
132
100
AcDbEntity
8
0
100
AcDbLine
10
-121.15646970961035
20
-27.133949457693323
30
0
11
-122.57104131128557
21
-24.685454612611846
31
0
0
ARC
5
133
100
AcDbEntity
8
0
100
AcDbCircle
10
-209.80855289767737
20
168.33195173887276
30
0
40
211.81620000000004
210
-0
220
0
230
1
100
AcDbArc
50
293.73663937836113
51
294.32140170000315
0
LINE
5
134
100
AcDbEntity
8
0
100
AcDbLine
10
-124.54549155910382
20
-25.565735079754983
30
0
11
-121.44233829777517
21
-30.937011270272787
31
0
0
LINE
5
135
100
AcDbEntity
8
0
100
AcDbLine
10
-121.44233829777517
20
-30.937011270272787
30
0
11
-117.0100600622019
21
-28.376346323250363
31
0
0
ENDSEC
0
SECTION
2
OBJECTS
0
DICTIONARY
5
C
100
AcDbDictionary
3
ACAD_GROUP
350
D
3
ACAD_MLINESTYLE
350
17
0
DICTIONARY
5
D
100
AcDbDictionary
0
DICTIONARY
5
1A
330
C
100
AcDbDictionary
0
DICTIONARY
5
17
100
AcDbDictionary
0
ENDSEC
0
EOF
