0
SECTION
2
HEADER
9
$INSUNITS
70
4
9
$ACADVER
1
AC1014
9
$HANDSEED
5
FFFF
0
ENDSEC
0
SECTION
2
TABLES
0
TABLE
2
VPORT
5
8
100
AcDbSymbolTable
0
ENDTAB
0
TABLE
2
LTYPE
5
5
100
AcDbSymbolTable
0
LTYPE
5
14
100
AcDbSymbolTableRecord
100
AcDbLinetypeTableRecord
2
BYBLOCK
70
0
0
LTYPE
5
15
100
AcDbSymbolTableRecord
100
AcDbLinetypeTableRecord
2
BYLAYER
70
0
0
ENDTAB
0
TABLE
2
LAYER
5
2
100
AcDbSymbolTable
70
2
0
LAYER
5
50
100
AcDbSymbolTableRecord
100
AcDbLayerTableRecord
2
0
70
0
6
CONTINUOUS
0
ENDTAB
0
TABLE
2
STYLE
5
3
100
AcDbSymbolTable
70
1
0
STYLE
5
11
100
AcDbSymbolTableRecord
100
AcDbTextStyleTableRecord
2
STANDARD
70
0
0
ENDTAB
0
TABLE
2
VIEW
5
6
100
AcDbSymbolTable
70
0
0
ENDTAB
0
TABLE
2
UCS
5
7
100
AcDbSymbolTable
70
0
0
ENDTAB
0
TABLE
2
APPID
5
9
100
AcDbSymbolTable
70
2
0
APPID
5
12
100
AcDbSymbolTableRecord
100
AcDbRegAppTableRecord
2
ACAD
70
0
0
ENDTAB
0
TABLE
2
DIMSTYLE
5
A
100
AcDbSymbolTable
70
1
0
ENDTAB
0
TABLE
2
BLOCK_RECORD
5
1
100
AcDbSymbolTable
70
1
0
BLOCK_RECORD
5
1F
100
AcDbSymbolTableRecord
100
AcDbBlockTableRecord
2
*MODEL_SPACE
0
BLOCK_RECORD
5
1B
100
AcDbSymbolTableRecord
100
AcDbBlockTableRecord
2
*PAPER_SPACE
0
ENDTAB
0
ENDSEC
0
SECTION
2
BLOCKS
0
BLOCK
5
20
100
AcDbEntity
100
AcDbBlockBegin
2
*MODEL_SPACE
0
ENDBLK
5
21
100
AcDbEntity
100
AcDbBlockEnd
0
BLOCK
5
1C
100
AcDbEntity
100
AcDbBlockBegin
2
*PAPER_SPACE
0
ENDBLK
5
1D
100
AcDbEntity
100
AcDbBlockEnd
0
ENDSEC
0
SECTION
2
ENTITIES
0
CIRCLE
5
100
100
AcDbEntity
8
0
100
AcDbCircle
10
-22.00914829254728
20
-4.8220429172484458
30
0
40
3.9249999999999141
210
0
220
0
230
1
0
LINE
5
101
100
AcDbEntity
8
0
100
AcDbLine
10
-44.688994245874056
20
-14.219966271685784
30
0
11
-46.57702059433916
21
-6.600395646807975
31
0
0
LINE
5
102
100
AcDbEntity
8
0
100
AcDbLine
10
-46.57702059433916
20
-6.600395646807975
30
0
11
-44.781325606310673
21
-6.1554467621378528
31
0
0
LINE
5
103
100
AcDbEntity
8
0
100
AcDbLine
10
-44.781325606310673
20
-6.1554467621378528
30
0
11
-42.89329925784557
21
-13.775017387015662
31
0
0
LINE
5
104
100
AcDbEntity
8
0
100
AcDbLine
10
-42.89329925784557
20
-13.775017387015662
30
0
11
-44.688994245874056
21
-14.219966271685784
31
0
0
LINE
5
105
100
AcDbEntity
8
0
100
AcDbLine
10
40.425449708709067
20
15.462143858015835
30
0
11
42.275268224289562
21
15.436231324079017
31
0
0
LINE
5
106
100
AcDbEntity
8
0
100
AcDbLine
10
42.275268224289562
20
15.436231324079017
30
0
11
42.165315039746929
21
7.5870014066152081
31
0
0
LINE
5
107
100
AcDbEntity
8
0
100
AcDbLine
10
42.165315039746929
20
7.5870014066152081
30
0
11
40.315496524166434
21
7.6129139405520263
31
0
0
LINE
5
108
100
AcDbEntity
8
0
100
AcDbLine
10
40.315496524166434
20
7.6129139405520263
30
0
11
40.425449708709067
21
15.462143858015835
31
0
0
LINE
5
109
100
AcDbEntity
8
0
100
AcDbLine
10
-43.219127150082528
20
-2.8370624474206174
30
0
11
-43.526150775907695
21
-1.507197019338129
31
0
0
LINE
5
110
100
AcDbEntity
8
0
100
AcDbLine
10
-43.526150775907695
20
-1.507197019338129
30
0
11
-54.389779310051978
21
-4.0179901473387147
31
0
0
LINE
5
111
100
AcDbEntity
8
0
100
AcDbLine
10
-54.389779310051978
20
-4.0179901473387147
30
0
11
-53.183549154917813
21
-9.2427469630776571
31
0
0
LINE
5
112
100
AcDbEntity
8
0
100
AcDbLine
10
-53.183549154917813
20
-9.2427469630776571
30
0
11
-56.953260034416786
21
-10.113053294903711
31
0
0
SPLINE
5
113
100
AcDbEntity
8
0
100
AcDbSpline
70
0
71
3
72
23
73
19
74
0
42
0.000000001
43
0.0000000001
44
0.0000000001
40
-1.031681190637957
40
-1.031681190637957
40
-1.031681190637957
40
-1.031681190637957
40
-0.12348238123925548
40
-0.12348238123925548
40
-0.12348238123925548
40
0.80740816534640947
40
0.80740816534640947
40
0.80740816534640947
40
1.9780901975706802
40
1.9780901975706802
40
1.9780901975706802
40
3.0096694800318335
40
3.0096694800318335
40
3.0096694800318335
40
3.9524049095406673
40
3.9524049095406673
40
3.9524049095406673
40
4.173273844229028
40
4.173273844229028
40
4.173273844229028
40
4.173273844229028
10
-56.953260034416786
20
-10.113053294903658
30
0
10
-57.49662676338275
20
-9.1585979359502367
30
0
10
-58.218099909530281
20
-8.549793024305341
30
0
10
-58.880534310854102
20
-8.5389167846016534
30
0
10
-59.559519920110375
20
-8.5277687973792737
30
0
10
-60.111813560956051
20
-9.1632488200071371
30
0
10
-60.332100070254313
20
-10.151242151869244
30
0
10
-60.609130983633719
20
-11.393736283763314
30
0
10
-60.360297585254159
20
-13.184064832145204
30
0
10
-59.729603740471902
20
-14.526017234879109
30
0
10
-59.173850183191234
20
-15.708516204372192
30
0
10
-58.349606273711743
20
-16.510354970985901
30
0
10
-57.595628220018966
20
-16.534879336444011
30
0
10
-56.90658585907471
20
-16.557291562626393
30
0
10
-56.344022257254807
20
-15.915187894142218
30
0
10
-56.123168758621347
20
-14.912154535981674
30
0
10
-56.071426058136637
20
-14.677158690552137
30
0
10
-56.036736980373263
20
-14.423364620328325
30
0
10
-56.019713158881359
20
-14.156689063760233
30
0
0
LINE
5
114
100
AcDbEntity
8
0
100
AcDbLine
10
-56.019713158881359
20
-14.156689063760233
30
0
11
-52.250002279380965
21
-13.286382731933983
31
0
0
LINE
5
115
100
AcDbEntity
8
0
100
AcDbLine
10
-52.250002279380965
20
-13.286382731933983
30
0
11
-50.756830012963547
21
-19.754022379998926
31
0
0
LINE
5
116
100
AcDbEntity
8
0
100
AcDbLine
10
-50.756830012963547
20
-19.754022379998926
30
0
11
-39.893201478819407
21
-17.243229251998358
31
0
0
LINE
5
117
100
AcDbEntity
8
0
100
AcDbLine
10
-39.893201478819407
20
-17.243229251998358
30
0
11
-40.485971839518271
21
-14.67565873566981
31
0
0
LINE
5
118
100
AcDbEntity
8
0
100
AcDbLine
10
-40.485971839518271
20
-14.67565873566981
30
0
11
-36.704977458520318
21
-13.802747402262945
31
0
0
LINE
5
119
100
AcDbEntity
8
0
100
AcDbLine
10
-36.704977458520318
20
-13.802747402262945
30
0
11
-36.071343619938716
21
-16.359924523922214
31
0
0
LINE
5
120
100
AcDbEntity
8
0
100
AcDbLine
10
-36.071343619938716
20
-16.359924523922214
30
0
11
48.485088235929226
21
3.1826902999089413
31
0
0
LINE
5
121
100
AcDbEntity
8
0
100
AcDbLine
10
48.485088235929226
20
3.1826902999089413
30
0
11
48.485088235929226
21
9.348654582390683
31
0
0
LINE
5
122
100
AcDbEntity
8
0
100
AcDbLine
10
48.485088235929226
20
9.348654582390683
30
0
11
53.221888481247674
21
9.2823007773687749
31
0
0
ARC
5
123
100
AcDbEntity
8
0
100
AcDbCircle
10
56.793861829092691
20
11.307467618250175
30
0
40
4.1061288741490678
210
0
220
0
230
1
100
AcDbArc
50
-150.44848755989813
51
148.84337687685041
0
LINE
5
124
100
AcDbEntity
8
0
100
AcDbLine
10
53.280016597916813
20
13.431893663671275
30
0
11
48.485088235929226
21
13.499061736029816
31
0
0
LINE
5
125
100
AcDbEntity
8
0
100
AcDbLine
10
48.485088235929226
20
13.499061736029816
30
0
11
48.485088235929226
21
19.758366865108261
31
0
0
LINE
5
126
100
AcDbEntity
8
0
100
AcDbLine
10
48.485088235929226
20
19.758366865108261
30
0
11
-39.775032403131405
21
-0.64024154464732419
31
0
0
LINE
5
127
100
AcDbEntity
8
0
100
AcDbLine
10
-39.775032403131405
20
-0.64024154464732419
30
0
11
-39.467802400661327
21
-1.9710008881877172
31
0
0
LINE
5
128
100
AcDbEntity
8
0
100
AcDbLine
10
-39.467802400661327
20
-1.9710008881877172
30
0
11
-43.219127150082528
21
-2.8370624474206174
31
0
0
ENDSEC
0
SECTION
2
OBJECTS
0
DICTIONARY
5
C
100
AcDbDictionary
3
ACAD_GROUP
350
D
3
ACAD_MLINESTYLE
350
17
0
DICTIONARY
5
D
100
AcDbDictionary
0
DICTIONARY
5
1A
330
C
100
AcDbDictionary
0
DICTIONARY
5
17
100
AcDbDictionary
0
ENDSEC
0
EOF
