  0
SECTION
  2
HEADER
  9
$ACADVER
  1
AC1015
  9
$ACADMAINTVER
 70
6
  9
$DWGCODEPAGE
  3
ANSI_1252
  9
$TDCREATE
 40
2459445.5891203703
  9
$TDUPDATE
 40
2459445.5891319443
  9
$HANDSEED
  5
1024D
  9
$INSUNITS
 70
4
  9
$FINGERPRINTGUID
  2
FADBA420-001C-11EC-B400-406C8F433790
  9
$VERSIONGUID
  2
FB1C0A06-001C-11EC-B400-406C8F433790
  0
ENDSEC
  0
SECTION
  2
CLASSES
  0
CLASS
  1
ACDBDICTIONARYWDFLT
  2
AcDbDictionaryWithDefault
  3
ObjectDBX Classes
 90
0
280
0
281
0
  0
CLASS
  1
SUN
  2
AcDbSun
  3
SCENEOE
 90
1153
280
0
281
0
  0
CLASS
  1
VISUALSTYLE
  2
AcDbVisualStyle
  3
ObjectDBX Classes
 90
4095
280
0
281
0
  0
CLASS
  1
MATERIAL
  2
AcDbMaterial
  3
ObjectDBX Classes
 90
1153
280
0
281
0
  0
CLASS
  1
SCALE
  2
AcDbScale
  3
ObjectDBX Classes
 90
1153
280
0
281
0
  0
CLASS
  1
TABLESTYLE
  2
AcDbTableStyle
  3
ObjectDBX Classes
 90
4095
280
0
281
0
  0
CLASS
  1
MLEADERSTYLE
  2
AcDbMLeaderStyle
  3
ACDB_MLEADERSTYLE_CLASS
 90
4095
280
0
281
0
  0
CLASS
  1
DICTIONARYVAR
  2
AcDbDictionaryVar
  3
ObjectDBX Classes
 90
0
280
0
281
0
  0
CLASS
  1
CELLSTYLEMAP
  2
AcDbCellStyleMap
  3
ObjectDBX Classes
 90
1152
280
0
281
0
  0
CLASS
  1
MENTALRAYRENDERSETTINGS
  2
AcDbMentalRayRenderSettings
  3
SCENEOE
 90
1024
280
0
281
0
  0
CLASS
  1
ACDBDETAILVIEWSTYLE
  2
AcDbDetailViewStyle
  3
ObjectDBX Classes
 90
1025
280
0
281
0
  0
CLASS
  1
ACDBSECTIONVIEWSTYLE
  2
AcDbSectionViewStyle
  3
ObjectDBX Classes
 90
1025
280
0
281
0
  0
CLASS
  1
RASTERVARIABLES
  2
AcDbRasterVariables
  3
ISM
 90
0
280
0
281
0
  0
CLASS
  1
ACDBPLACEHOLDER
  2
AcDbPlaceHolder
  3
ObjectDBX Classes
 90
0
280
0
281
0
  0
CLASS
  1
LAYOUT
  2
AcDbLayout
  3
ObjectDBX Classes
 90
0
280
0
281
0
  0
ENDSEC
  0
SECTION
  2
TABLES
  0
TABLE
  2
VPORT
  5
8
330
0
100
AcDbSymbolTable
 70
1
  0
VPORT
  5
1006A
330
8
100
AcDbSymbolTableRecord
100
AcDbViewportTableRecord
  2
*Active
 70
0
 10
0.0
 20
0.0
 11
1.0
 21
1.0
 12
70.0
 22
50.0
 13
0.0
 23
0.0
 14
0.5
 24
0.5
 15
0.5
 25
0.5
 16
0.0
 26
0.0
 36
1.0
 17
0.0
 27
0.0
 37
0.0
 40
1.0
 41
1.34
 42
50.0
 43
0.0
 44
0.0
 50
0.0
 51
0.0
 71
0
 72
1000
 73
1
 74
3
 75
0
 76
0
 77
0
 78
0
281
0
 65
0
146
0.0
  0
ENDTAB
  0
TABLE
  2
LTYPE
  5
5
330
0
100
AcDbSymbolTable
 70
3
  0
LTYPE
  5
1006B
330
5
100
AcDbSymbolTableRecord
100
AcDbLinetypeTableRecord
  2
Continuous
 70
0
  3

 72
65
 73
0
 40
0.0
  0
ENDTAB
  0
TABLE
  2
LAYER
  5
2
330
0
100
AcDbSymbolTable
 70
2
  0
LAYER
  5
50
330
2
100
AcDbSymbolTableRecord
100
AcDbLayerTableRecord
  2
0
 70
0
 62
7
  6
CONTINUOUS
370
-3
390
10060
  0
LAYER
  5
1006C
330
2
100
AcDbSymbolTableRecord
100
AcDbLayerTableRecord
  2
Defpoints
 70
0
 62
7
  6
Continuous
290
0
370
-3
390
10060
  0
ENDTAB
  0
TABLE
  2
STYLE
  5
3
330
0
100
AcDbSymbolTable
 70
1
  0
STYLE
  5
11
330
3
100
AcDbSymbolTableRecord
100
AcDbTextStyleTableRecord
  2
STANDARD
 70
0
 40
0.0
 41
1.0
 50
0.0
 71
0
 42
2.5
  3
txt
  4

  0
ENDTAB
  0
TABLE
  2
VIEW
  5
6
330
0
100
AcDbSymbolTable
 70
0
  0
ENDTAB
  0
TABLE
  2
UCS
  5
7
330
0
100
AcDbSymbolTable
 70
0
  0
ENDTAB
  0
TABLE
  2
APPID
  5
9
330
0
100
AcDbSymbolTable
 70
2
  0
APPID
  5
12
330
9
100
AcDbSymbolTableRecord
100
AcDbRegAppTableRecord
  2
ACAD
 70
0
  0
APPID
  5
1024C
330
9
100
AcDbSymbolTableRecord
100
AcDbRegAppTableRecord
  2
HATCHBACKGROUNDCOLOR
 70
0
  0
ENDTAB
  0
TABLE
  2
DIMSTYLE
  5
A
330
0
100
AcDbSymbolTable
 70
1
100
AcDbDimStyleTable
  0
DIMSTYLE
105
1006D
330
A
100
AcDbSymbolTableRecord
100
AcDbDimStyleTableRecord
  2
Standard
 70
0
  3

  4

 40
1.0
 41
2.5
 42
0.625
 43
3.75
 44
1.25
 45
0.0
 46
0.0
 47
0.0
 48
0.0
140
2.5
141
2.5
142
0.0
143
0.03937007874
144
1.0
145
0.0
146
1.0
147
0.625
148
0.0
 71
0
 72
0
 73
0
 74
0
 75
0
 76
0
 77
1
 78
8
 79
0
170
0
171
3
172
1
173
0
174
0
175
0
176
0
177
0
178
0
179
0
271
0
272
2
273
2
274
3
275
0
276
0
277
2
278
44
279
0
280
0
281
0
282
0
283
0
284
8
285
0
286
0
288
0
289
3
371
-2
372
-2
  0
ENDTAB
  0
TABLE
  2
BLOCK_RECORD
  5
1
330
0
100
AcDbSymbolTable
 70
22
  0
BLOCK_RECORD
  5
1F
330
1
100
AcDbSymbolTableRecord
100
AcDbBlockTableRecord
  2
*MODEL_SPACE
340
10064
  0
BLOCK_RECORD
  5
1B
330
1
100
AcDbSymbolTableRecord
100
AcDbBlockTableRecord
  2
*PAPER_SPACE
340
10065
  0
BLOCK_RECORD
  5
FFFF
330
1
100
AcDbSymbolTableRecord
100
AcDbBlockTableRecord
  2
_CLOSEDFILLED
340
0
  0
BLOCK_RECORD
  5
10003
330
1
100
AcDbSymbolTableRecord
100
AcDbBlockTableRecord
  2
_BOXBLANK
340
0
  0
BLOCK_RECORD
  5
10008
330
1
100
AcDbSymbolTableRecord
100
AcDbBlockTableRecord
  2
_ORIGIN2
340
0
  0
BLOCK_RECORD
  5
1000E
330
1
100
AcDbSymbolTableRecord
100
AcDbBlockTableRecord
  2
_OPEN30
340
0
  0
BLOCK_RECORD
  5
10013
330
1
100
AcDbSymbolTableRecord
100
AcDbBlockTableRecord
  2
_DATUMFILLED
340
0
  0
BLOCK_RECORD
  5
10017
330
1
100
AcDbSymbolTableRecord
100
AcDbBlockTableRecord
  2
_OBLIQUE
340
0
  0
BLOCK_RECORD
  5
1001B
330
1
100
AcDbSymbolTableRecord
100
AcDbBlockTableRecord
  2
_DOT
340
0
  0
BLOCK_RECORD
  5
10020
330
1
100
AcDbSymbolTableRecord
100
AcDbBlockTableRecord
  2
_OPEN
340
0
  0
BLOCK_RECORD
  5
10025
330
1
100
AcDbSymbolTableRecord
100
AcDbBlockTableRecord
  2
_NONE
340
0
  0
BLOCK_RECORD
  5
10028
330
1
100
AcDbSymbolTableRecord
100
AcDbBlockTableRecord
  2
_ARCHTICK
340
0
  0
BLOCK_RECORD
  5
1002C
330
1
100
AcDbSymbolTableRecord
100
AcDbBlockTableRecord
  2
_ORIGIN
340
0
  0
BLOCK_RECORD
  5
10031
330
1
100
AcDbSymbolTableRecord
100
AcDbBlockTableRecord
  2
_BOXFILLED
340
0
  0
BLOCK_RECORD
  5
10036
330
1
100
AcDbSymbolTableRecord
100
AcDbBlockTableRecord
  2
_DOTSMALL
340
0
  0
BLOCK_RECORD
  5
1003A
330
1
100
AcDbSymbolTableRecord
100
AcDbBlockTableRecord
  2
_CLOSEDBLANK
340
0
  0
BLOCK_RECORD
  5
1003E
330
1
100
AcDbSymbolTableRecord
100
AcDbBlockTableRecord
  2
_DOTBLANK
340
0
  0
BLOCK_RECORD
  5
10043
330
1
100
AcDbSymbolTableRecord
100
AcDbBlockTableRecord
  2
_SMALL
340
0
  0
BLOCK_RECORD
  5
10047
330
1
100
AcDbSymbolTableRecord
100
AcDbBlockTableRecord
  2
_INTEGRAL
340
0
  0
BLOCK_RECORD
  5
1004C
330
1
100
AcDbSymbolTableRecord
100
AcDbBlockTableRecord
  2
_OPEN90
340
0
  0
BLOCK_RECORD
  5
10051
330
1
100
AcDbSymbolTableRecord
100
AcDbBlockTableRecord
  2
_DATUMBLANK
340
0
  0
BLOCK_RECORD
  5
10055
330
1
100
AcDbSymbolTableRecord
100
AcDbBlockTableRecord
  2
_CLOSED
340
0
  0
ENDTAB
  0
ENDSEC
  0
SECTION
  2
BLOCKS
  0
BLOCK
  5
20
330
1F
100
AcDbEntity
  8
0
100
AcDbBlockBegin
  2
*MODEL_SPACE
 70
0
 10
0.0
 20
0.0
 30
0.0
  3
*MODEL_SPACE
  1

  0
ENDBLK
  5
21
330
1F
100
AcDbEntity
  8
0
100
AcDbBlockEnd
  0
BLOCK
  5
1C
330
1B
100
AcDbEntity
  8
0
100
AcDbBlockBegin
  2
*PAPER_SPACE
 70
0
 10
0.0
 20
0.0
 30
0.0
  3
*PAPER_SPACE
  1

  0
ENDBLK
  5
1D
330
1B
100
AcDbEntity
  8
0
100
AcDbBlockEnd
  0
BLOCK
  5
10000
330
FFFF
100
AcDbEntity
  8
0
100
AcDbBlockBegin
  2
_CLOSEDFILLED
 70
0
 10
0.0
 20
0.0
 30
0.0
  3
_CLOSEDFILLED
  1

  0
SOLID
  5
10002
330
FFFF
100
AcDbEntity
  8
0
  6
BYBLOCK
 62
0
100
AcDbTrace
 10
-1.0
 20
0.1643989837240255
 30
0.0
 11
0.0
 21
0.0
 31
0.0
 12
-1.0
 22
-0.1643989837240255
 32
0.0
 13
-1.0
 23
-0.1643989837240255
 33
0.0
  0
ENDBLK
  5
10001
330
FFFF
100
AcDbEntity
  8
0
100
AcDbBlockEnd
  0
BLOCK
  5
10004
330
10003
100
AcDbEntity
  8
0
100
AcDbBlockBegin
  2
_BOXBLANK
 70
0
 10
0.0
 20
0.0
 30
0.0
  3
_BOXBLANK
  1

  0
LWPOLYLINE
  5
10006
330
10003
100
AcDbEntity
  8
0
  6
BYBLOCK
 62
0
100
AcDbPolyline
 90
4
 70
1
 10
-0.5
 20
-0.5000000000000001
 10
0.5000000000000001
 20
-0.5
 10
0.5000000000000001
 20
0.5
 10
-0.5
 20
0.5000000000000001
  0
LINE
  5
10007
330
10003
100
AcDbEntity
  8
0
  6
BYBLOCK
 62
0
100
AcDbLine
 10
-0.5
 20
6.123233995736766e-17
 30
0.0
 11
-1.0
 21
1.2246467991473532e-16
 31
0.0
  0
ENDBLK
  5
10005
330
10003
100
AcDbEntity
  8
0
100
AcDbBlockEnd
  0
BLOCK
  5
10009
330
10008
100
AcDbEntity
  8
0
100
AcDbBlockBegin
  2
_ORIGIN2
 70
0
 10
0.0
 20
0.0
 30
0.0
  3
_ORIGIN2
  1

  0
CIRCLE
  5
1000B
330
10008
100
AcDbEntity
  8
0
  6
BYBLOCK
 62
0
100
AcDbCircle
 10
0.0
 20
0.0
 30
0.0
 40
0.5
  0
CIRCLE
  5
1000C
330
10008
100
AcDbEntity
  8
0
  6
BYBLOCK
 62
0
100
AcDbCircle
 10
0.0
 20
0.0
 30
0.0
 40
0.25
  0
LINE
  5
1000D
330
10008
100
AcDbEntity
  8
0
  6
BYBLOCK
 62
0
100
AcDbLine
 10
-0.5
 20
6.123233995736766e-17
 30
0.0
 11
-1.0
 21
1.2246467991473532e-16
 31
0.0
  0
ENDBLK
  5
1000A
330
10008
100
AcDbEntity
  8
0
100
AcDbBlockEnd
  0
BLOCK
  5
1000F
330
1000E
100
AcDbEntity
  8
0
100
AcDbBlockBegin
  2
_OPEN30
 70
0
 10
0.0
 20
0.0
 30
0.0
  3
_OPEN30
  1

  0
LWPOLYLINE
  5
10011
330
1000E
100
AcDbEntity
  8
0
  6
BYBLOCK
 62
0
100
AcDbPolyline
 90
3
 70
0
 10
-0.9999999999999999
 20
0.2588190451025208
 10
0.0
 20
0.0
 10
-0.9999999999999999
 20
-0.2588190451025208
  0
LINE
  5
10012
330
1000E
100
AcDbEntity
  8
0
  6
BYBLOCK
 62
0
100
AcDbLine
 10
0.0
 20
0.0
 30
0.0
 11
-1.0
 21
1.2246467991473532e-16
 31
0.0
  0
ENDBLK
  5
10010
330
1000E
100
AcDbEntity
  8
0
100
AcDbBlockEnd
  0
BLOCK
  5
10014
330
10013
100
AcDbEntity
  8
0
100
AcDbBlockBegin
  2
_DATUMFILLED
 70
0
 10
0.0
 20
0.0
 30
0.0
  3
_DATUMFILLED
  1

  0
SOLID
  5
10016
330
10013
100
AcDbEntity
  8
0
  6
BYBLOCK
 62
0
100
AcDbTrace
 10
3.5352507945885664e-17
 20
0.577350269
 30
0.0
 11
3.5352507945885664e-17
 21
-0.577350269
 31
0.0
 12
-1.0
 22
1.2246467991473532e-16
 32
0.0
 13
-1.0
 23
1.2246467991473532e-16
 33
0.0
  0
ENDBLK
  5
10015
330
10013
100
AcDbEntity
  8
0
100
AcDbBlockEnd
  0
BLOCK
  5
10018
330
10017
100
AcDbEntity
  8
0
100
AcDbBlockBegin
  2
_OBLIQUE
 70
0
 10
0.0
 20
0.0
 30
0.0
  3
_OBLIQUE
  1

  0
LINE
  5
1001A
330
10017
100
AcDbEntity
  8
0
  6
BYBLOCK
 62
0
100
AcDbLine
 10
-0.5
 20
-0.5000000000000001
 30
0.0
 11
0.5000000000000001
 21
0.5
 31
0.0
  0
ENDBLK
  5
10019
330
10017
100
AcDbEntity
  8
0
100
AcDbBlockEnd
  0
BLOCK
  5
1001C
330
1001B
100
AcDbEntity
  8
0
100
AcDbBlockBegin
  2
_DOT
 70
0
 10
0.0
 20
0.0
 30
0.0
  3
_DOT
  1

  0
LINE
  5
1001E
330
1001B
100
AcDbEntity
  8
0
  6
BYBLOCK
 62
0
100
AcDbLine
 10
-0.5
 20
6.123233995736766e-17
 30
0.0
 11
-1.0
 21
1.2246467991473532e-16
 31
0.0
  0
LWPOLYLINE
  5
1001F
330
1001B
100
AcDbEntity
  8
0
  6
BYBLOCK
 62
0
100
AcDbPolyline
 90
2
 70
1
 43
0.5
 10
-0.25
 20
0.0
 42
1.0
 10
0.25
 20
0.0
 42
1.0
  0
ENDBLK
  5
1001D
330
1001B
100
AcDbEntity
  8
0
100
AcDbBlockEnd
  0
BLOCK
  5
10021
330
10020
100
AcDbEntity
  8
0
100
AcDbBlockBegin
  2
_OPEN
 70
0
 10
0.0
 20
0.0
 30
0.0
  3
_OPEN
  1

  0
LWPOLYLINE
  5
10023
330
10020
100
AcDbEntity
  8
0
  6
BYBLOCK
 62
0
100
AcDbPolyline
 90
3
 70
0
 10
-1.0
 20
0.1643989837240255
 10
0.0
 20
0.0
 10
-1.0
 20
-0.1643989837240255
  0
LINE
  5
10024
330
10020
100
AcDbEntity
  8
0
  6
BYBLOCK
 62
0
100
AcDbLine
 10
0.0
 20
0.0
 30
0.0
 11
-1.0
 21
1.2246467991473532e-16
 31
0.0
  0
ENDBLK
  5
10022
330
10020
100
AcDbEntity
  8
0
100
AcDbBlockEnd
  0
BLOCK
  5
10026
330
10025
100
AcDbEntity
  8
0
100
AcDbBlockBegin
  2
_NONE
 70
0
 10
0.0
 20
0.0
 30
0.0
  3
_NONE
  1

  0
ENDBLK
  5
10027
330
10025
100
AcDbEntity
  8
0
100
AcDbBlockEnd
  0
BLOCK
  5
10029
330
10028
100
AcDbEntity
  8
0
100
AcDbBlockBegin
  2
_ARCHTICK
 70
0
 10
0.0
 20
0.0
 30
0.0
  3
_ARCHTICK
  1

  0
LWPOLYLINE
  5
1002B
330
10028
100
AcDbEntity
  8
0
  6
BYBLOCK
 62
0
100
AcDbPolyline
 90
2
 70
0
 43
0.15
 10
-0.5
 20
-0.5000000000000001
 10
0.5000000000000001
 20
0.5
  0
ENDBLK
  5
1002A
330
10028
100
AcDbEntity
  8
0
100
AcDbBlockEnd
  0
BLOCK
  5
1002D
330
1002C
100
AcDbEntity
  8
0
100
AcDbBlockBegin
  2
_ORIGIN
 70
0
 10
0.0
 20
0.0
 30
0.0
  3
_ORIGIN
  1

  0
CIRCLE
  5
1002F
330
1002C
100
AcDbEntity
  8
0
  6
BYBLOCK
 62
0
100
AcDbCircle
 10
0.0
 20
0.0
 30
0.0
 40
0.5
  0
LINE
  5
10030
330
1002C
100
AcDbEntity
  8
0
  6
BYBLOCK
 62
0
100
AcDbLine
 10
0.0
 20
0.0
 30
0.0
 11
-1.0
 21
1.2246467991473532e-16
 31
0.0
  0
ENDBLK
  5
1002E
330
1002C
100
AcDbEntity
  8
0
100
AcDbBlockEnd
  0
BLOCK
  5
10032
330
10031
100
AcDbEntity
  8
0
100
AcDbBlockBegin
  2
_BOXFILLED
 70
0
 10
0.0
 20
0.0
 30
0.0
  3
_BOXFILLED
  1

  0
SOLID
  5
10034
330
10031
100
AcDbEntity
  8
0
  6
BYBLOCK
 62
0
100
AcDbTrace
 10
-0.5
 20
-0.5000000000000001
 30
0.0
 11
0.5000000000000001
 21
-0.5
 31
0.0
 12
-0.5
 22
0.5000000000000001
 32
0.0
 13
0.5000000000000001
 23
0.5
 33
0.0
  0
LINE
  5
10035
330
10031
100
AcDbEntity
  8
0
  6
BYBLOCK
 62
0
100
AcDbLine
 10
-0.5
 20
6.123233995736766e-17
 30
0.0
 11
-1.0
 21
1.2246467991473532e-16
 31
0.0
  0
ENDBLK
  5
10033
330
10031
100
AcDbEntity
  8
0
100
AcDbBlockEnd
  0
BLOCK
  5
10037
330
10036
100
AcDbEntity
  8
0
100
AcDbBlockBegin
  2
_DOTSMALL
 70
0
 10
0.0
 20
0.0
 30
0.0
  3
_DOTSMALL
  1

  0
LWPOLYLINE
  5
10039
330
10036
100
AcDbEntity
  8
0
  6
BYBLOCK
 62
0
100
AcDbPolyline
 90
2
 70
1
 43
0.125
 10
-0.0625
 20
0.0
 42
1.0
 10
0.0625
 20
0.0
 42
1.0
  0
ENDBLK
  5
10038
330
10036
100
AcDbEntity
  8
0
100
AcDbBlockEnd
  0
BLOCK
  5
1003B
330
1003A
100
AcDbEntity
  8
0
100
AcDbBlockBegin
  2
_CLOSEDBLANK
 70
0
 10
0.0
 20
0.0
 30
0.0
  3
_CLOSEDBLANK
  1

  0
LWPOLYLINE
  5
1003D
330
1003A
100
AcDbEntity
  8
0
  6
BYBLOCK
 62
0
100
AcDbPolyline
 90
3
 70
1
 10
-1.0
 20
0.1643989837240255
 10
0.0
 20
0.0
 10
-1.0
 20
-0.1643989837240255
  0
ENDBLK
  5
1003C
330
1003A
100
AcDbEntity
  8
0
100
AcDbBlockEnd
  0
BLOCK
  5
1003F
330
1003E
100
AcDbEntity
  8
0
100
AcDbBlockBegin
  2
_DOTBLANK
 70
0
 10
0.0
 20
0.0
 30
0.0
  3
_DOTBLANK
  1

  0
CIRCLE
  5
10041
330
1003E
100
AcDbEntity
  8
0
  6
BYBLOCK
 62
0
100
AcDbCircle
 10
0.0
 20
0.0
 30
0.0
 40
0.5
  0
LINE
  5
10042
330
1003E
100
AcDbEntity
  8
0
  6
BYBLOCK
 62
0
100
AcDbLine
 10
-0.5
 20
6.123233995736766e-17
 30
0.0
 11
-1.0
 21
1.2246467991473532e-16
 31
0.0
  0
ENDBLK
  5
10040
330
1003E
100
AcDbEntity
  8
0
100
AcDbBlockEnd
  0
BLOCK
  5
10044
330
10043
100
AcDbEntity
  8
0
100
AcDbBlockBegin
  2
_SMALL
 70
0
 10
0.0
 20
0.0
 30
0.0
  3
_SMALL
  1

  0
CIRCLE
  5
10046
330
10043
100
AcDbEntity
  8
0
  6
BYBLOCK
 62
0
100
AcDbCircle
 10
0.0
 20
0.0
 30
0.0
 40
0.25
  0
ENDBLK
  5
10045
330
10043
100
AcDbEntity
  8
0
100
AcDbBlockEnd
  0
BLOCK
  5
10048
330
10047
100
AcDbEntity
  8
0
100
AcDbBlockBegin
  2
_INTEGRAL
 70
0
 10
0.0
 20
0.0
 30
0.0
  3
_INTEGRAL
  1

  0
ARC
  5
1004A
330
10047
100
AcDbEntity
  8
0
  6
BYBLOCK
 62
0
100
AcDbCircle
 10
-0.3535534
 20
4.329780396376638e-17
 30
0.0
 40
0.3535534
100
AcDbArc
 50
-90.0
 51
0.0
  0
ARC
  5
1004B
330
10047
100
AcDbEntity
  8
0
  6
BYBLOCK
 62
0
100
AcDbCircle
 10
0.3535534
 20
0.0
 30
0.0
 40
0.3535534
100
AcDbArc
 50
90.0
 51
180.0
  0
ENDBLK
  5
10049
330
10047
100
AcDbEntity
  8
0
100
AcDbBlockEnd
  0
BLOCK
  5
1004D
330
1004C
100
AcDbEntity
  8
0
100
AcDbBlockBegin
  2
_OPEN90
 70
0
 10
0.0
 20
0.0
 30
0.0
  3
_OPEN90
  1

  0
LWPOLYLINE
  5
1004F
330
1004C
100
AcDbEntity
  8
0
  6
BYBLOCK
 62
0
100
AcDbPolyline
 90
3
 70
0
 10
-0.9999999999999998
 20
0.7071067811865476
 10
0.0
 20
0.0
 10
-0.9999999999999998
 20
-0.7071067811865476
  0
LINE
  5
10050
330
1004C
100
AcDbEntity
  8
0
  6
BYBLOCK
 62
0
100
AcDbLine
 10
0.0
 20
0.0
 30
0.0
 11
-1.0
 21
1.2246467991473532e-16
 31
0.0
  0
ENDBLK
  5
1004E
330
1004C
100
AcDbEntity
  8
0
100
AcDbBlockEnd
  0
BLOCK
  5
10052
330
10051
100
AcDbEntity
  8
0
100
AcDbBlockBegin
  2
_DATUMBLANK
 70
0
 10
0.0
 20
0.0
 30
0.0
  3
_DATUMBLANK
  1

  0
LWPOLYLINE
  5
10054
330
10051
100
AcDbEntity
  8
0
  6
BYBLOCK
 62
0
100
AcDbPolyline
 90
3
 70
1
 10
3.5352507945885664e-17
 20
0.577350269
 10
3.5352507945885664e-17
 20
-0.577350269
 10
-1.0
 20
1.2246467991473532e-16
  0
ENDBLK
  5
10053
330
10051
100
AcDbEntity
  8
0
100
AcDbBlockEnd
  0
BLOCK
  5
10056
330
10055
100
AcDbEntity
  8
0
100
AcDbBlockBegin
  2
_CLOSED
 70
0
 10
0.0
 20
0.0
 30
0.0
  3
_CLOSED
  1

  0
LWPOLYLINE
  5
10058
330
10055
100
AcDbEntity
  8
0
  6
BYBLOCK
 62
0
100
AcDbPolyline
 90
3
 70
1
 10
-1.0
 20
0.1643989837240255
 10
0.0
 20
0.0
 10
-1.0
 20
-0.1643989837240255
  0
LINE
  5
10059
330
10055
100
AcDbEntity
  8
0
  6
BYBLOCK
 62
0
100
AcDbLine
 10
0.0
 20
0.0
 30
0.0
 11
-1.0
 21
0.0
 31
0.0
  0
ENDBLK
  5
10057
330
10055
100
AcDbEntity
  8
0
100
AcDbBlockEnd
  0
ENDSEC
  0
SECTION
  2
ENTITIES
  0
CIRCLE
  5
100
330
1F
100
AcDbEntity
  8
0
100
AcDbCircle
 10
200.9707754926834
 20
71.16007544701645
 30
0.0
 40
3.924999999999983
  0
LINE
  5
101
330
1F
100
AcDbEntity
  8
0
100
AcDbLine
 10
240.37804769688609
 20
75.08507544701646
 30
0.0
 11
240.37804769688609
 21
67.23507544701646
 31
0.0
  0
LINE
  5
102
330
1F
100
AcDbEntity
  8
0
100
AcDbLine
 10
240.37804769688609
 20
67.23507544701646
 30
0.0
 11
238.52804769688606
 21
67.23507544701646
 31
0.0
  0
LINE
  5
103
330
1F
100
AcDbEntity
  8
0
100
AcDbLine
 10
238.52804769688606
 20
67.23507544701646
 30
0.0
 11
238.52804769688606
 21
75.08507544701646
 31
0.0
  0
LINE
  5
104
330
1F
100
AcDbEntity
  8
0
100
AcDbLine
 10
238.52804769688606
 20
75.08507544701646
 30
0.0
 11
240.37804769688609
 21
75.08507544701646
 31
0.0
  0
ARC
  5
105
330
1F
100
AcDbEntity
  8
0
100
AcDbCircle
 10
21.491072447916622
 20
11.313908983405806
 30
0.0
 40
3.9561288741493827
100
AcDbArc
 50
-120.86715187304101
 51
-179.10012417684965
  0
LINE
  5
106
330
1F
100
AcDbEntity
  8
0
100
AcDbLine
 10
19.461383566386843
 20
7.91812943916668
 30
0.0
 11
15.029105330813564
 21
5.357464492144288
 31
0.0
  0
LINE
  5
107
330
1F
100
AcDbEntity
  8
0
100
AcDbLine
 10
15.029105330813564
 20
5.357464492144288
 30
0.0
 11
18.124279144552318
 21
1.1368683772161603e-13
 31
0.0
  0
ARC
  5
108
330
1F
100
AcDbEntity
  8
0
100
AcDbCircle
 10
-75.26306133857355
 20
207.96007544701644
 30
0.0
 40
227.96620000000004
100
AcDbArc
 50
-65.81687791739017
 51
-65.2739506894623
  0
LINE
  5
109
330
1F
100
AcDbEntity
  8
0
100
AcDbLine
 10
20.09065913128694
 20
0.8942493554188928
 30
0.0
 11
18.46653185086268
 21
3.7054660298985453
 31
0.0
  0
LINE
  5
110
330
1F
100
AcDbEntity
  8
0
100
AcDbLine
 10
18.46653185086268
 20
3.7054660298985453
 30
0.0
 11
20.068414629978093
 21
4.630923517832883
 31
0.0
  0
LINE
  5
111
330
1F
100
AcDbEntity
  8
0
100
AcDbLine
 10
20.068414629978093
 20
4.630923517832883
 30
0.0
 11
21.774435440686418
 21
1.6779565872977997
 31
0.0
  0
ARC
  5
112
330
1F
100
AcDbEntity
  8
0
100
AcDbCircle
 10
-75.26306133857355
 20
207.96007544701644
 30
0.0
 40
227.96620000000001
100
AcDbArc
 50
-64.8071635976308
 51
-61.16278062814884
  0
LINE
  5
113
330
1F
100
AcDbEntity
  8
0
100
AcDbLine
 10
34.69023950851782
 20
8.263155152113026
 30
0.0
 11
46.23150846901393
 21
14.875049162332207
 31
0.0
  0
LINE
  5
114
330
1F
100
AcDbEntity
  8
0
100
AcDbLine
 10
46.23150846901393
 20
14.875049162332207
 30
0.0
 11
86.44137686753315
 21
38.10554035895569
 31
0.0
  0
LINE
  5
115
330
1F
100
AcDbEntity
  8
0
100
AcDbLine
 10
86.44137686753315
 20
38.10554035895569
 30
0.0
 11
86.44134831472849
 21
38.10558978162915
 31
0.0
  0
ARC
  5
116
330
1F
100
AcDbEntity
  8
0
100
AcDbCircle
 10
179.83693866142636
 20
-123.7035245529836
 30
0.0
 40
186.82859999999994
100
AcDbArc
 50
93.4923512836686
 51
119.99337478638546
  0
LINE
  5
117
330
1F
100
AcDbEntity
  8
0
100
AcDbLine
 10
168.45621980706744
 20
62.7781233813856
 30
0.0
 11
187.28068891030438
 21
63.0850754470165
 31
0.0
  0
LINE
  5
118
330
1F
100
AcDbEntity
  8
0
100
AcDbLine
 10
187.28068891030438
 20
63.0850754470165
 30
0.0
 11
246.52804769688612
 21
63.0850754470165
 31
0.0
  0
LINE
  5
119
330
1F
100
AcDbEntity
  8
0
100
AcDbLine
 10
246.52804769688612
 20
63.0850754470165
 30
0.0
 11
246.52804769688612
 21
69.08507544701648
 31
0.0
  0
LINE
  5
120
330
1F
100
AcDbEntity
  8
0
100
AcDbLine
 10
246.52804769688612
 20
69.08507544701648
 30
0.0
 11
251.40979081498745
 21
69.08507544701648
 31
0.0
  0
ARC
  5
121
330
1F
100
AcDbEntity
  8
0
100
AcDbCircle
 10
254.95304769688613
 20
71.16007544701648
 30
0.0
 40
4.1061288741492605
100
AcDbArc
 50
-149.6459322183756
 51
149.6459322183756
  0
LINE
  5
122
330
1F
100
AcDbEntity
  8
0
100
AcDbLine
 10
251.40979081498745
 20
73.23507544701647
 30
0.0
 11
246.52804769688612
 21
73.23507544701644
 31
0.0
  0
LINE
  5
123
330
1F
100
AcDbEntity
  8
0
100
AcDbLine
 10
246.52804769688612
 20
73.23507544701644
 30
0.0
 11
246.52804769688612
 21
79.23507544701641
 31
0.0
  0
LINE
  5
124
330
1F
100
AcDbEntity
  8
0
100
AcDbLine
 10
246.52804769688612
 20
79.23507544701641
 30
0.0
 11
182.864031813253
 21
79.23507544701641
 31
0.0
  0
LINE
  5
125
330
1F
100
AcDbEntity
  8
0
100
AcDbLine
 10
182.864031813253
 20
79.23507544701641
 30
0.0
 11
174.7729764880399
 21
79.21189710112955
 31
0.0
  0
ARC
  5
126
330
1F
100
AcDbEntity
  8
0
100
AcDbCircle
 10
179.83693866142636
 20
-123.7035245529836
 30
0.0
 40
202.97860000000003
100
AcDbArc
 50
91.42957812745203
 51
119.34528411360083
  0
LINE
  5
127
330
1F
100
AcDbEntity
  8
0
100
AcDbLine
 10
80.36290260262572
 20
53.22931074937751
 30
0.0
 11
75.47686028050106
 21
50.422591526515035
 31
0.0
  0
LINE
  5
128
330
1F
100
AcDbEntity
  8
0
100
AcDbLine
 10
75.47686028050106
 20
50.422591526515035
 30
0.0
 11
30.697419878553035
 21
24.552117050743497
 31
0.0
  0
ARC
  5
129
330
1F
100
AcDbEntity
  8
0
100
AcDbCircle
 10
-75.26306133857355
 20
207.96007544701644
 30
0.0
 40
211.81619999999995
100
AcDbArc
 50
-65.17590897457059
 51
-59.98363777873159
  0
LINE
  5
130
330
1F
100
AcDbEntity
  8
0
100
AcDbLine
 10
13.664525353990527
 20
15.715473682814793
 30
0.0
 11
14.990904628608888
 21
13.419631738384691
 31
0.0
  0
LINE
  5
131
330
1F
100
AcDbEntity
  8
0
100
AcDbLine
 10
14.990904628608888
 20
13.419631738384691
 30
0.0
 11
13.389021849493474
 21
12.494174250450353
 31
0.0
  0
LINE
  5
132
330
1F
100
AcDbEntity
  8
0
100
AcDbLine
 10
13.389021849493474
 20
12.494174250450353
 30
0.0
 11
11.974450247818254
 21
14.94266909553183
 31
0.0
  0
ARC
  5
133
330
1F
100
AcDbEntity
  8
0
100
AcDbCircle
 10
-75.26306133857355
 20
207.96007544701644
 30
0.0
 40
211.81620000000004
100
AcDbArc
 50
-66.26336062163887
 51
-65.67859829999684
  0
LINE
  5
134
330
1F
100
AcDbEntity
  8
0
100
AcDbLine
 10
10.0
 20
14.062388628388693
 30
0.0
 11
13.103153261328657
 21
8.691112437870888
 31
0.0
  0
LINE
  5
135
330
1F
100
AcDbEntity
  8
0
100
AcDbLine
 10
13.103153261328657
 20
8.691112437870888
 30
0.0
 11
17.53543149690192
 21
11.251777384893312
 31
0.0
  0
CIRCLE
  5
1006F
330
1F
100
AcDbEntity
  8
0
100
AcDbCircle
 10
48.43437546468297
 20
194.1670549097669
 30
0.0
 40
3.924999999999914
  0
LINE
  5
10070
330
1F
100
AcDbEntity
  8
0
100
AcDbLine
 10
25.754529511356196
 20
184.76913155532955
 30
0.0
 11
23.866503162891092
 21
192.38870218020736
 31
0.0
  0
LINE
  5
10071
330
1F
100
AcDbEntity
  8
0
100
AcDbLine
 10
23.866503162891092
 20
192.38870218020736
 30
0.0
 11
25.66219815091958
 21
192.8336510648775
 31
0.0
  0
LINE
  5
10072
330
1F
100
AcDbEntity
  8
0
100
AcDbLine
 10
25.66219815091958
 20
192.8336510648775
 30
0.0
 11
27.550224499384683
 21
185.2140804399997
 31
0.0
  0
LINE
  5
10073
330
1F
100
AcDbEntity
  8
0
100
AcDbLine
 10
27.550224499384683
 20
185.2140804399997
 30
0.0
 11
25.754529511356196
 21
184.76913155532955
 31
0.0
  0
LINE
  5
10074
330
1F
100
AcDbEntity
  8
0
100
AcDbLine
 10
110.86897346593932
 20
214.45124168503116
 30
0.0
 11
112.71879198151981
 21
214.42532915109436
 31
0.0
  0
LINE
  5
10075
330
1F
100
AcDbEntity
  8
0
100
AcDbLine
 10
112.71879198151981
 20
214.42532915109436
 30
0.0
 11
112.60883879697718
 21
206.57609923363054
 31
0.0
  0
LINE
  5
10076
330
1F
100
AcDbEntity
  8
0
100
AcDbLine
 10
112.60883879697718
 20
206.57609923363054
 30
0.0
 11
110.75902028139669
 21
206.60201176756738
 31
0.0
  0
LINE
  5
10077
330
1F
100
AcDbEntity
  8
0
100
AcDbLine
 10
110.75902028139669
 20
206.60201176756738
 30
0.0
 11
110.86897346593932
 21
214.45124168503116
 31
0.0
  0
LINE
  5
10078
330
1F
100
AcDbEntity
  8
0
100
AcDbLine
 10
27.224396607147725
 20
196.15203537959474
 30
0.0
 11
26.917372981322558
 21
197.48190080767722
 31
0.0
  0
LINE
  5
10079
330
1F
100
AcDbEntity
  8
0
100
AcDbLine
 10
26.917372981322558
 20
197.48190080767722
 30
0.0
 11
16.053744447178275
 21
194.97110767967663
 31
0.0
  0
LINE
  5
1007A
330
1F
100
AcDbEntity
  8
0
100
AcDbLine
 10
16.053744447178275
 20
194.97110767967663
 30
0.0
 11
17.25997460231244
 21
189.7463508639377
 31
0.0
  0
LINE
  5
1007B
330
1F
100
AcDbEntity
  8
0
100
AcDbLine
 10
17.25997460231244
 20
189.7463508639377
 30
0.0
 11
13.490263722813467
 21
188.87604453211162
 31
0.0
  0
SPLINE
  5
1007C
330
1F
100
AcDbEntity
  8
0
100
AcDbSpline
 70
0
 71
3
 72
23
 73
19
 74
0
 42
1e-09
 40
-1.031681190637957
 40
-1.031681190637957
 40
-1.031681190637957
 40
-1.031681190637957
 40
-0.12348238123925548
 40
-0.12348238123925548
 40
-0.12348238123925548
 40
0.8074081653464095
 40
0.8074081653464095
 40
0.8074081653464095
 40
1.9780901975706802
 40
1.9780901975706802
 40
1.9780901975706802
 40
3.0096694800318335
 40
3.0096694800318335
 40
3.0096694800318335
 40
3.9524049095406673
 40
3.9524049095406673
 40
3.9524049095406673
 40
4.173273844229028
 40
4.173273844229028
 40
4.173273844229028
 40
4.173273844229028
 10
13.490263722813467
 20
188.87604453211168
 30
0.0
 10
12.946896993847503
 20
189.8304998910651
 30
0.0
 10
12.225423847699972
 20
190.43930480271
 30
0.0
 10
11.56298944637615
 20
190.4501810424137
 30
0.0
 10
10.884003837119877
 20
190.46132902963606
 30
0.0
 10
10.331710196274202
 20
189.8258490070082
 30
0.0
 10
10.11142368697594
 20
188.8378556751461
 30
0.0
 10
9.834392773596534
 20
187.59536154325204
 30
0.0
 10
10.083226171976094
 20
185.80503299487015
 30
0.0
 10
10.713920016758351
 20
184.46308059213624
 30
0.0
 10
11.269673574039018
 20
183.28058162264315
 30
0.0
 10
12.09391748351851
 20
182.47874285602944
 30
0.0
 10
12.847895537211286
 20
182.45421849057132
 30
0.0
 10
13.536937898155543
 20
182.43180626438894
 30
0.0
 10
14.099501499975446
 20
183.07390993287314
 30
0.0
 10
14.320354998608906
 20
184.07694329103367
 30
0.0
 10
14.372097699093615
 20
184.3119391364632
 30
0.0
 10
14.40678677685699
 20
184.565733206687
 30
0.0
 10
14.423810598348894
 20
184.8324087632551
 30
0.0
  0
LINE
  5
1007D
330
1F
100
AcDbEntity
  8
0
100
AcDbLine
 10
14.423810598348894
 20
184.8324087632551
 30
0.0
 11
18.193521477849288
 21
185.70271509508137
 31
0.0
  0
LINE
  5
1007E
330
1F
100
AcDbEntity
  8
0
100
AcDbLine
 10
18.193521477849288
 20
185.70271509508137
 30
0.0
 11
19.686693744266705
 21
179.2350754470164
 31
0.0
  0
LINE
  5
1007F
330
1F
100
AcDbEntity
  8
0
100
AcDbLine
 10
19.686693744266705
 20
179.2350754470164
 30
0.0
 11
30.550322278410846
 21
181.74586857501697
 31
0.0
  0
LINE
  5
10080
330
1F
100
AcDbEntity
  8
0
100
AcDbLine
 10
30.550322278410846
 20
181.74586857501697
 30
0.0
 11
29.95755191771198
 21
184.31343909134554
 31
0.0
  0
LINE
  5
10081
330
1F
100
AcDbEntity
  8
0
100
AcDbLine
 10
29.95755191771198
 20
184.31343909134554
 30
0.0
 11
33.738546298709934
 21
185.1863504247524
 31
0.0
  0
LINE
  5
10082
330
1F
100
AcDbEntity
  8
0
100
AcDbLine
 10
33.738546298709934
 20
185.1863504247524
 30
0.0
 11
34.37218013729154
 21
182.62917330309313
 31
0.0
  0
LINE
  5
10083
330
1F
100
AcDbEntity
  8
0
100
AcDbLine
 10
34.37218013729154
 20
182.62917330309313
 30
0.0
 11
118.92861199315948
 21
202.1717881269243
 31
0.0
  0
LINE
  5
10084
330
1F
100
AcDbEntity
  8
0
100
AcDbLine
 10
118.92861199315948
 20
202.1717881269243
 30
0.0
 11
118.92861199315948
 21
208.33775240940602
 31
0.0
  0
LINE
  5
10085
330
1F
100
AcDbEntity
  8
0
100
AcDbLine
 10
118.92861199315948
 20
208.33775240940602
 30
0.0
 11
123.66541223847793
 21
208.2713986043841
 31
0.0
  0
ARC
  5
10086
330
1F
100
AcDbEntity
  8
0
100
AcDbCircle
 10
127.23738558632294
 20
210.29656544526551
 30
0.0
 40
4.106128874149068
100
AcDbArc
 50
-150.44848755989813
 51
148.8433768768504
  0
LINE
  5
10087
330
1F
100
AcDbEntity
  8
0
100
AcDbLine
 10
123.72354035514707
 20
212.42099149068662
 30
0.0
 11
118.92861199315948
 21
212.48815956304514
 31
0.0
  0
LINE
  5
10088
330
1F
100
AcDbEntity
  8
0
100
AcDbLine
 10
118.92861199315948
 20
212.48815956304514
 30
0.0
 11
118.92861199315948
 21
218.7474646921236
 31
0.0
  0
LINE
  5
10089
330
1F
100
AcDbEntity
  8
0
100
AcDbLine
 10
118.92861199315948
 20
218.7474646921236
 30
0.0
 11
30.668491354098848
 21
198.34885628236802
 31
0.0
  0
LINE
  5
1008A
330
1F
100
AcDbEntity
  8
0
100
AcDbLine
 10
30.668491354098848
 20
198.34885628236802
 30
0.0
 11
30.975721356568926
 21
197.01809693882763
 31
0.0
  0
LINE
  5
1008B
330
1F
100
AcDbEntity
  8
0
100
AcDbLine
 10
30.975721356568926
 20
197.01809693882763
 30
0.0
 11
27.224396607147725
 21
196.15203537959474
 31
0.0
  0
LINE
  5
1008C
330
1F
100
AcDbEntity
  8
0
100
AcDbLine
 10
15.126214799782574
 20
318.7474646921236
 30
-1.4210854715202004e-13
 11
23.276214799782515
 21
318.7474646921236
 31
-1.4210854715202004e-13
  0
LINE
  5
1008D
330
1F
100
AcDbEntity
  8
0
100
AcDbLine
 10
23.27621479978248
 20
318.7474646921236
 30
0.0
 11
23.276214799782515
 21
320.7474646921236
 31
-9.860761315262648e-31
  0
LINE
  5
1008E
330
1F
100
AcDbEntity
  8
0
100
AcDbLine
 10
23.27621479978255
 20
320.7474646921236
 30
-1.4210854715202004e-13
 11
25.958308247080346
 21
320.7474646921236
 31
-1.4210854715202004e-13
  0
SPLINE
  5
1008F
330
1F
100
AcDbEntity
  8
0
100
AcDbSpline
 70
0
 71
3
 72
23
 73
19
 74
0
 42
1e-09
 40
-1.0034501730861973
 40
-1.0034501730861973
 40
-1.0034501730861973
 40
-1.0034501730861973
 40
-1.0
 40
-1.0
 40
-1.0
 40
-0.7806998187855311
 40
-0.7806998187855311
 40
-0.7806998187855311
 40
-0.5173649820400921
 40
-0.5173649820400921
 40
-0.5173649820400921
 40
-0.29527072772092955
 40
-0.29527072772092955
 40
-0.29527072772092955
 40
0.0
 40
0.0
 40
0.0
 40
0.00884835158032474
 40
0.00884835158032474
 40
0.00884835158032474
 40
0.00884835158032474
 10
25.95830824708038
 20
320.74746469212363
 30
-1.4210854715202004e-13
 10
25.931822390279855
 20
320.7865010921598
 30
-1.4210854715202004e-13
 10
25.905336533479257
 20
320.8255374921961
 30
-1.4210854715202004e-13
 10
25.878850676678766
 20
320.86457389223233
 30
-1.4210854715202004e-13
 10
24.200567087147604
 20
323.33812610043657
 30
-1.4210854715202004e-13
 10
23.502096134368102
 20
325.4090768152476
 30
-1.4210854715202004e-13
 10
23.44843427499626
 20
327.19640737851046
 30
0.0
 10
23.38399731512297
 20
329.34262722876525
 30
0.0
 10
24.192400719862874
 20
331.11479489994974
 30
-1.4210854715202004e-13
 10
24.97206498951371
 20
332.7852117888662
 30
0.0
 10
25.629626885719503
 20
334.19402650525967
 30
0.0
 10
26.23916598689913
 20
335.5369271038549
 30
-1.4210854715202004e-13
 10
26.61902452036948
 20
336.78320983742447
 30
-1.4210854715202004e-13
 10
27.124040311762343
 20
338.440122623463
 30
0.0
 10
27.291069488038247
 20
339.8788337669249
 30
-1.4210854715202004e-13
 10
27.402771565723896
 20
340.81356537855606
 30
0.0
 10
27.406113604417328
 20
340.84153181641193
 30
-1.4210854715202004e-13
 10
27.40945564311062
 20
340.86949825426774
 30
-1.4210854715202004e-13
 10
27.41279768180391
 20
340.89746469212355
 30
-1.4210854715202004e-13
  0
LINE
  5
10090
330
1F
100
AcDbEntity
  8
0
100
AcDbLine
 10
27.412797681803838
 20
340.89746469212355
 30
0.0
 11
23.276214799782586
 21
340.89746469212355
 31
0.0
  0
LINE
  5
10091
330
1F
100
AcDbEntity
  8
0
100
AcDbLine
 10
23.276214799782622
 20
340.89746469212355
 30
-1.4210854715202004e-13
 11
23.27621479978255
 21
342.89746469212355
 31
-1.4210854715202004e-13
  0
LINE
  5
10092
330
1F
100
AcDbEntity
  8
0
100
AcDbLine
 10
23.27621479978255
 20
342.89746469212355
 30
-1.4210854715202004e-13
 11
15.126214799782538
 21
342.89746469212355
 31
-1.4210854715202004e-13
  0
LINE
  5
10093
330
1F
100
AcDbEntity
  8
0
100
AcDbLine
 10
15.126214799782538
 20
342.89746469212355
 30
-1.4210854715202004e-13
 11
15.126214799782609
 21
340.89746469212355
 31
-1.4210854715202004e-13
  0
LINE
  5
10094
330
1F
100
AcDbEntity
  8
0
100
AcDbLine
 10
15.126214799782609
 20
340.89746469212355
 30
-1.4210854715202004e-13
 11
11.107261760810871
 21
340.89746469212355
 31
-1.4210854715202004e-13
  0
SPLINE
  5
10095
330
1F
100
AcDbEntity
  8
0
100
AcDbSpline
 70
0
 71
3
 72
20
 73
16
 74
0
 42
1e-09
 40
-0.01310539128067497
 40
-0.01310539128067497
 40
-0.01310539128067497
 40
-0.01310539128067497
 40
0.0
 40
0.0
 40
0.0
 40
0.45621623672271183
 40
0.45621623672271183
 40
0.45621623672271183
 40
0.9600798761438897
 40
0.9600798761438897
 40
0.9600798761438897
 40
1.0
 40
1.0
 40
1.0
 40
1.0037661174074872
 40
1.0037661174074872
 40
1.0037661174074872
 40
1.0037661174074872
 10
11.107261760811227
 20
340.8974646921232
 30
-1.4210854715202004e-13
 10
11.164973852017752
 20
340.85270908040616
 30
0.0
 10
11.22268594322442
 20
340.8079534686891
 30
-1.4210854715202004e-13
 10
11.280398034430945
 20
340.76319785697206
 30
0.0
 10
13.272464594929971
 20
339.21835420926766
 30
0.0
 10
14.329071654085865
 20
337.05396129682356
 30
0.0
 10
14.265452543346626
 20
334.11144434274144
 30
0.0
 10
14.19518902772932
 20
330.86160976387373
 30
0.0
 10
12.805546680587128
 20
326.70186428374916
 30
1.4210854715202004e-13
 10
10.594653906713418
 20
321.98715174245154
 30
-1.4210854715202004e-13
 10
10.419489226311
 20
321.61361435283004
 30
-1.4210854715202004e-13
 10
10.238838237340033
 20
321.2363534302143
 30
-1.4210854715202004e-13
 10
10.052723154127037
 20
320.8553860893688
 30
-1.4210854715202004e-13
 10
10.035148769418
 20
320.81941229028706
 30
-1.4210854715202004e-13
 10
10.017574384708965
 20
320.7834384912053
 30
-1.4210854715202004e-13
 10
10.0
 20
320.7474646921235
 30
-1.4210854715202004e-13
  0
LINE
  5
10096
330
1F
100
AcDbEntity
  8
0
100
AcDbLine
 10
10.0
 20
320.7474646921235
 30
-1.4210854715202004e-13
 11
15.126214799782538
 21
320.7474646921236
 31
-1.4210854715202004e-13
  0
LINE
  5
10097
330
1F
100
AcDbEntity
  8
0
100
AcDbLine
 10
15.126214799782609
 20
320.7474646921236
 30
-1.4210854715202004e-13
 11
15.126214799782574
 21
318.7474646921236
 31
-1.4210854715202004e-13
  0
LINE
  5
10098
330
1F
100
AcDbEntity
  8
0
100
AcDbLine
 10
74.15
 20
454.4901632214075
 30
0.0
 11
72.15
 21
454.4901632214075
 31
0.0
  0
LINE
  5
10099
330
1F
100
AcDbEntity
  8
0
100
AcDbLine
 10
72.15
 20
454.4901632214075
 30
0.0
 11
72.15000000000005
 21
459.13155210708965
 31
0.0
  0
SPLINE
  5
1009A
330
1F
100
AcDbEntity
  8
0
100
AcDbSpline
 70
0
 71
3
 72
32
 73
28
 74
0
 42
1e-09
 40
-1.001811723115925
 40
-1.001811723115925
 40
-1.001811723115925
 40
-1.001811723115925
 40
-1.0
 40
-1.0
 40
-1.0
 40
-0.8339166241755781
 40
-0.8339166241755781
 40
-0.8339166241755781
 40
-0.691033575167292
 40
-0.691033575167292
 40
-0.691033575167292
 40
-0.518275181375469
 40
-0.518275181375469
 40
-0.518275181375469
 40
-0.3887063860316018
 40
-0.3887063860316018
 40
-0.3887063860316018
 40
-0.2619885477731617
 40
-0.2619885477731617
 40
-0.2619885477731617
 40
-0.13566636284322858
 40
-0.13566636284322858
 40
-0.13566636284322858
 40
-0.028109145915552358
 40
-0.028109145915552358
 40
-0.028109145915552358
 40
-5.371034945006033e-05
 40
-5.371034945006033e-05
 40
-5.371034945006033e-05
 40
-5.371034945006033e-05
 10
72.14999999999984
 20
459.13155210708965
 30
0.0
 10
72.12829946029171
 20
459.134441383536
 30
0.0
 10
72.10659892058354
 20
459.13733065998235
 30
0.0
 10
72.08489838087536
 20
459.1402199364287
 30
0.0
 10
70.07600036173916
 20
459.40769078313843
 30
0.0
 10
67.36737936739205
 20
458.9464028326485
 30
0.0
 10
63.97222432013417
 20
457.8254046606994
 30
0.0
 10
61.051341344339406
 20
456.86099966865413
 30
0.0
 10
57.61007007263648
 20
455.38972774519266
 30
0.0
 10
53.8695160693446
 20
453.80508019790017
 30
0.0
 10
49.34685151266368
 20
451.8890994927255
 30
0.0
 10
44.40699603198003
 20
449.8652265032229
 30
0.0
 10
39.787343544325665
 20
448.81849426594897
 30
0.0
 10
36.32260417858489
 20
448.03344508799347
 30
0.0
 10
33.051250464797775
 20
447.8187071615679
 30
0.0
 10
30.22030095690548
 20
448.3221149154643
 30
0.0
 10
27.451642030141088
 20
448.81444597532317
 30
0.0
 10
25.11252547415241
 20
449.9895175614362
 30
0.0
 10
23.222494387884566
 20
451.5232965478829
 30
0.0
 10
21.338364578820794
 20
453.0522865893042
 30
0.0
 10
19.912588430453503
 20
454.9327508921216
 30
0.0
 10
18.606276291476238
 20
456.4588977102941
 30
0.0
 10
17.494014829365156
 20
457.75833774512813
 30
0.0
 10
16.428601528340412
 20
458.7666373582652
 30
0.0
 10
15.13072560622809
 20
459.0570361172246
 30
0.0
 10
14.792185103361575
 20
459.1327842994776
 30
0.0
 10
14.439640219111443
 20
459.1612497695144
 30
0.0
 10
14.07290901392848
 20
459.14087599211547
 30
0.0
  0
LINE
  5
1009B
330
1F
100
AcDbEntity
  8
0
100
AcDbLine
 10
14.07290901392848
 20
459.1408759921154
 30
0.0
 11
11.999999999999993
 21
459.14087599211547
 31
0.0
  0
LINE
  5
1009C
330
1F
100
AcDbEntity
  8
0
100
AcDbLine
 10
11.999999999999993
 20
459.14087599211547
 30
0.0
 11
11.999999999999993
 21
455.1408759921155
 31
0.0
  0
LINE
  5
1009D
330
1F
100
AcDbEntity
  8
0
100
AcDbLine
 10
11.999999999999993
 20
455.1408759921155
 30
0.0
 11
10.0
 21
455.1408759921155
 31
0.0
  0
LINE
  5
1009E
330
1F
100
AcDbEntity
  8
0
100
AcDbLine
 10
10.0
 20
455.1408759921155
 30
0.0
 11
10.0
 21
446.9908759921155
 31
0.0
  0
LINE
  5
1009F
330
1F
100
AcDbEntity
  8
0
100
AcDbLine
 10
10.0
 20
446.9908759921155
 30
0.0
 11
11.999999999999993
 21
446.9908759921155
 31
0.0
  0
LINE
  5
100A0
330
1F
100
AcDbEntity
  8
0
100
AcDbLine
 10
11.999999999999993
 20
446.9908759921155
 30
0.0
 11
11.999999999999957
 21
443.0136324944235
 31
0.0
  0
SPLINE
  5
100A1
330
1F
100
AcDbEntity
  8
0
100
AcDbSpline
 70
0
 71
3
 72
26
 73
22
 74
0
 42
1e-09
 40
-0.0004922163393432015
 40
-0.0004922163393432015
 40
-0.0004922163393432015
 40
-0.0004922163393432015
 40
0.0
 40
0.0
 40
0.0
 40
0.1977543354025671
 40
0.1977543354025671
 40
0.1977543354025671
 40
0.4001569506261264
 40
0.4001569506261264
 40
0.4001569506261264
 40
0.5841472949596137
 40
0.5841472949596137
 40
0.5841472949596137
 40
0.7584852646876454
 40
0.7584852646876454
 40
0.7584852646876454
 40
1.0
 40
1.0
 40
1.0
 40
1.0036066685161285
 40
1.0036066685161285
 40
1.0036066685161285
 40
1.0036066685161285
 10
11.999999999999797
 20
443.01363249442363
 30
0.0
 10
12.016335036557315
 20
443.0075966544554
 30
0.0
 10
12.03267007311485
 20
443.0015608144873
 30
0.0
 10
12.049005109672368
 20
442.99552497451907
 30
0.0
 10
18.61696374014184
 20
440.56864658514263
 30
0.0
 10
24.18651369302692
 20
439.34932024518935
 30
0.0
 10
29.052771332525403
 20
439.10922074803034
 30
0.0
 10
34.033411936844274
 20
438.8634776342831
 30
0.0
 10
38.31882056696546
 20
439.6363828764145
 30
0.0
 10
42.37534609674742
 20
440.84276133742225
 30
0.0
 10
46.06285541177178
 20
441.9393973082182
 30
0.0
 10
49.58970036170808
 20
443.39789817880904
 30
0.0
 10
52.99741640589854
 20
444.5666538840919
 30
0.0
 10
56.22635920018449
 20
445.6740951332791
 30
0.0
 10
59.30058050651816
 20
446.46552516236886
 30
0.0
 10
62.081452511136426
 20
446.55679428532363
 30
0.0
 10
65.93386381993308
 20
446.683231676484
 30
0.0
 10
69.24400999777197
 20
445.5130674129366
 30
0.0
 10
72.02482540132323
 20
443.01013095065326
 30
0.0
 10
72.06655026754883
 20
442.9725755311434
 30
0.0
 10
72.10827513377443
 20
442.9350201116335
 30
0.0
 10
72.15000000000003
 20
442.8974646921236
 30
0.0
  0
LINE
  5
100A2
330
1F
100
AcDbEntity
  8
0
100
AcDbLine
 10
72.15000000000003
 20
442.8974646921236
 30
0.0
 11
72.15
 21
447.48206659202737
 31
0.0
  0
LINE
  5
100A3
330
1F
100
AcDbEntity
  8
0
100
AcDbLine
 10
72.15
 20
447.48206659202737
 30
0.0
 11
74.15
 21
447.48206659202737
 31
0.0
  0
LINE
  5
100A4
330
1F
100
AcDbEntity
  8
0
100
AcDbLine
 10
74.15
 20
447.48206659202737
 30
0.0
 11
74.15
 21
454.4901632214075
 31
0.0
  0
LINE
  5
100A5
330
1F
100
AcDbEntity
  8
0
100
AcDbLine
 10
72.15
 20
570.7335745213994
 30
0.0
 11
72.15000000000005
 21
575.3749634070816
 31
0.0
  0
SPLINE
  5
100A6
330
1F
100
AcDbEntity
  8
0
100
AcDbSpline
 70
0
 71
3
 72
32
 73
28
 74
0
 42
1e-09
 40
-1.001811723115925
 40
-1.001811723115925
 40
-1.001811723115925
 40
-1.001811723115925
 40
-1.0
 40
-1.0
 40
-1.0
 40
-0.8339166241755781
 40
-0.8339166241755781
 40
-0.8339166241755781
 40
-0.691033575167292
 40
-0.691033575167292
 40
-0.691033575167292
 40
-0.518275181375469
 40
-0.518275181375469
 40
-0.518275181375469
 40
-0.3887063860316018
 40
-0.3887063860316018
 40
-0.3887063860316018
 40
-0.2619885477731617
 40
-0.2619885477731617
 40
-0.2619885477731617
 40
-0.13566636284322858
 40
-0.13566636284322858
 40
-0.13566636284322858
 40
-0.028109145915552358
 40
-0.028109145915552358
 40
-0.028109145915552358
 40
-5.371034945006033e-05
 40
-5.371034945006033e-05
 40
-5.371034945006033e-05
 40
-5.371034945006033e-05
 10
72.14999999999984
 20
575.3749634070816
 30
0.0
 10
72.12829946029171
 20
575.377852683528
 30
0.0
 10
72.10659892058354
 20
575.3807419599743
 30
0.0
 10
72.08489838087536
 20
575.3836312364207
 30
0.0
 10
70.07600036173916
 20
575.6511020831304
 30
0.0
 10
67.36737936739205
 20
575.1898141326405
 30
0.0
 10
63.97222432013417
 20
574.0688159606914
 30
0.0
 10
61.051341344339406
 20
573.1044109686461
 30
0.0
 10
57.61007007263648
 20
571.6331390451846
 30
0.0
 10
53.8695160693446
 20
570.0484914978921
 30
0.0
 10
49.34685151266368
 20
568.1325107927174
 30
0.0
 10
44.40699603198003
 20
566.1086378032148
 30
0.0
 10
39.787343544325665
 20
565.061905565941
 30
0.0
 10
36.32260417858489
 20
564.2768563879855
 30
0.0
 10
33.051250464797775
 20
564.0621184615599
 30
0.0
 10
30.22030095690548
 20
564.5655262154563
 30
0.0
 10
27.451642030141088
 20
565.0578572753152
 30
0.0
 10
25.11252547415241
 20
566.2329288614281
 30
0.0
 10
23.222494387884566
 20
567.766707847875
 30
0.0
 10
21.338364578820794
 20
569.2956978892961
 30
0.0
 10
19.912588430453503
 20
571.1761621921136
 30
0.0
 10
18.606276291476238
 20
572.7023090102861
 30
0.0
 10
17.494014829365156
 20
574.0017490451202
 30
0.0
 10
16.428601528340412
 20
575.0100486582572
 30
0.0
 10
15.13072560622809
 20
575.3004474172166
 30
0.0
 10
14.792185103361575
 20
575.3761955994696
 30
0.0
 10
14.439640219111443
 20
575.4046610695063
 30
0.0
 10
14.07290901392848
 20
575.3842872921074
 30
0.0
  0
LINE
  5
100A7
330
1F
100
AcDbEntity
  8
0
100
AcDbLine
 10
14.07290901392848
 20
575.3842872921074
 30
0.0
 11
10.0
 21
575.3842872921075
 31
0.0
  0
LINE
  5
100A8
330
1F
100
AcDbEntity
  8
0
100
AcDbLine
 10
10.0
 20
575.3842872921075
 30
0.0
 11
10.0
 21
572.2342872921075
 31
0.0
  0
LINE
  5
100A9
330
1F
100
AcDbEntity
  8
0
100
AcDbLine
 10
10.0
 20
572.2342872921075
 30
0.0
 11
11.999999999999993
 21
572.2342872921075
 31
0.0
  0
LINE
  5
100AA
330
1F
100
AcDbEntity
  8
0
100
AcDbLine
 10
11.999999999999993
 20
572.2342872921075
 30
0.0
 11
11.999999999999993
 21
562.3842872921075
 31
0.0
  0
LINE
  5
100AB
330
1F
100
AcDbEntity
  8
0
100
AcDbLine
 10
11.999999999999993
 20
562.3842872921075
 30
0.0
 11
10.0
 21
562.3842872921075
 31
0.0
  0
LINE
  5
100AC
330
1F
100
AcDbEntity
  8
0
100
AcDbLine
 10
10.0
 20
562.3842872921075
 30
0.0
 11
10.0
 21
559.2342872921075
 31
0.0
  0
LINE
  5
100AD
330
1F
100
AcDbEntity
  8
0
100
AcDbLine
 10
10.0
 20
559.2342872921075
 30
0.0
 11
12.06158955007579
 21
559.2342872921075
 31
0.0
  0
SPLINE
  5
100AE
330
1F
100
AcDbEntity
  8
0
100
AcDbSpline
 70
0
 71
3
 72
23
 73
19
 74
0
 42
1e-09
 40
0.0001263131663455227
 40
0.0001263131663455227
 40
0.0001263131663455227
 40
0.0001263131663455227
 40
0.1977543354025671
 40
0.1977543354025671
 40
0.1977543354025671
 40
0.4001569506261264
 40
0.4001569506261264
 40
0.4001569506261264
 40
0.5841472949596137
 40
0.5841472949596137
 40
0.5841472949596137
 40
0.7584852646876454
 40
0.7584852646876454
 40
0.7584852646876454
 40
1.0
 40
1.0
 40
1.0
 40
1.0036066685161285
 40
1.0036066685161285
 40
1.0036066685161285
 40
1.0036066685161285
 10
12.06158955007579
 20
559.2342872921075
 30
0.0
 10
18.624070256752265
 20
556.8104783453034
 30
0.0
 10
24.18962195565716
 20
555.5925781845601
 30
0.0
 10
29.052771332525403
 20
555.3526320480223
 30
0.0
 10
34.033411936844274
 20
555.106888934275
 30
0.0
 10
38.31882056696546
 20
555.8797941764064
 30
0.0
 10
42.37534609674742
 20
557.0861726374142
 30
0.0
 10
46.06285541177178
 20
558.1828086082102
 30
0.0
 10
49.58970036170808
 20
559.6413094788011
 30
0.0
 10
52.99741640589854
 20
560.8100651840839
 30
0.0
 10
56.22635920018449
 20
561.9175064332711
 30
0.0
 10
59.30058050651816
 20
562.7089364623608
 30
0.0
 10
62.081452511136426
 20
562.8002055853156
 30
0.0
 10
65.93386381993308
 20
562.9266429764759
 30
0.0
 10
69.24400999777197
 20
561.7564787129286
 30
0.0
 10
72.02482540132323
 20
559.2535422506453
 30
0.0
 10
72.06655026754883
 20
559.2159868311353
 30
0.0
 10
72.10827513377443
 20
559.1784314116254
 30
0.0
 10
72.15000000000003
 20
559.1408759921155
 30
0.0
  0
LINE
  5
100AF
330
1F
100
AcDbEntity
  8
0
100
AcDbLine
 10
72.15000000000003
 20
559.1408759921155
 30
0.0
 11
72.15
 21
563.7254778920193
 31
0.0
  0
LINE
  5
100B0
330
1F
100
AcDbEntity
  8
0
100
AcDbLine
 10
72.15
 20
563.7254778920193
 30
0.0
 11
74.15
 21
563.7254778920193
 31
0.0
  0
LINE
  5
100B1
330
1F
100
AcDbEntity
  8
0
100
AcDbLine
 10
74.15
 20
563.7254778920193
 30
0.0
 11
74.15
 21
570.7335745213994
 31
0.0
  0
LINE
  5
100B2
330
1F
100
AcDbEntity
  8
0
100
AcDbLine
 10
74.15
 20
570.7335745213994
 30
0.0
 11
72.15
 21
570.7335745213994
 31
0.0
  0
LINE
  5
100B3
330
1F
100
AcDbEntity
  8
0
100
AcDbLine
 10
32.20000000000003
 20
713.5059434284914
 30
0.0
 11
30.042071840522418
 21
713.5059434284914
 31
0.0
  0
SPLINE
  5
100B4
330
1F
100
AcDbEntity
  8
0
100
AcDbSpline
 70
0
 71
3
 72
20
 73
16
 74
0
 42
1e-09
 40
-0.008606619650993238
 40
-0.008606619650993238
 40
-0.008606619650993238
 40
-0.008606619650993238
 40
0.0
 40
0.0
 40
0.0
 40
0.5
 40
0.5
 40
0.5
 40
0.9695879088336068
 40
0.9695879088336068
 40
0.9695879088336068
 40
1.0
 40
1.0
 40
1.0
 40
1.0014870536676932
 40
1.0014870536676932
 40
1.0014870536676932
 40
1.0014870536676932
 10
10.000000000000062
 20
708.8753604780723
 30
0.0
 10
10.059238777340695
 20
708.8022025543547
 30
0.0
 10
10.118477554681341
 20
708.7290446306373
 30
0.0
 10
10.177716332021989
 20
708.6558867069199
 30
0.0
 10
13.608479223962853
 20
704.4190084118468
 30
0.0
 10
16.961357822291525
 20
702.4162317491687
 30
0.0
 10
20.24159847536268
 20
703.2845784457242
 30
0.0
 10
23.32232117285601
 20
704.1001086644806
 30
0.0
 10
26.391533336890845
 20
707.4060148588296
 30
0.0
 10
29.42442358085776
 20
712.452456770371
 30
0.0
 10
29.620843745989973
 20
712.7792813086367
 30
0.0
 10
29.817121140429386
 20
713.1136997173542
 30
0.0
 10
30.013253094340335
 20
713.455692542639
 30
0.0
 10
30.0228593430677
 20
713.4724428379232
 30
0.0
 10
30.03246559179507
 20
713.4891931332072
 30
0.0
 10
30.042071840522468
 20
713.5059434284915
 30
0.0
  0
LINE
  5
100B5
330
1F
100
AcDbEntity
  8
0
100
AcDbLine
 10
10.000000000000062
 20
708.8753604780723
 30
0.0
 11
10.0
 21
682.414534872803
 31
0.0
  0
SPLINE
  5
100B6
330
1F
100
AcDbEntity
  8
0
100
AcDbSpline
 70
0
 71
3
 72
17
 73
13
 74
0
 42
1e-09
 40
-0.004904961984052757
 40
-0.004904961984052757
 40
-0.004904961984052757
 40
-0.004904961984052757
 40
0.0
 40
0.0
 40
0.0
 40
0.5
 40
0.5
 40
0.5
 40
1.0
 40
1.0
 40
1.0
 40
1.0017060340661776
 40
1.0017060340661776
 40
1.0017060340661776
 40
1.0017060340661776
 10
9.999999999999929
 20
682.4145348728028
 30
0.0
 10
10.058117387988048
 20
682.4791539370706
 30
0.0
 10
10.116234775976176
 20
682.5437730013382
 30
0.0
 10
10.174352163964304
 20
682.6083920656059
 30
0.0
 10
16.09146916140018
 20
689.1874655025406
 30
0.0
 10
20.909762106756943
 20
692.4566463808884
 30
0.0
 10
24.15585299804765
 20
691.2757597316892
 30
0.0
 10
27.401943889338384
 20
690.0948730824897
 30
0.0
 10
29.247248132002184
 20
684.4145930563303
 30
0.0
 10
30.00035304291692
 20
675.4758918204659
 30
0.0
 10
30.00292566945958
 20
675.4453569776798
 30
0.0
 10
30.00549829600223
 20
675.4148221348936
 30
0.0
 10
30.008070922544885
 20
675.3842872921075
 30
0.0
  0
LINE
  5
100B7
330
1F
100
AcDbEntity
  8
0
100
AcDbLine
 10
30.008070922544885
 20
675.3842872921075
 30
0.0
 11
32.20000000000003
 21
675.3842872921074
 31
0.0
  0
LINE
  5
100B8
330
1F
100
AcDbEntity
  8
0
100
AcDbLine
 10
32.20000000000003
 20
675.3842872921074
 30
0.0
 11
32.20000000000003
 21
690.3283323184693
 31
0.0
  0
LINE
  5
100B9
330
1F
100
AcDbEntity
  8
0
100
AcDbLine
 10
32.20000000000003
 20
690.3283323184693
 30
0.0
 11
30.20000000000003
 21
690.3283323184693
 31
0.0
  0
LINE
  5
100BA
330
1F
100
AcDbEntity
  8
0
100
AcDbLine
 10
30.20000000000003
 20
690.3283323184693
 30
0.0
 11
30.20000000000003
 21
704.8901378702587
 31
0.0
  0
LINE
  5
100BB
330
1F
100
AcDbEntity
  8
0
100
AcDbLine
 10
30.20000000000003
 20
704.8901378702587
 30
0.0
 11
32.20000000000003
 21
704.8901378702587
 31
0.0
  0
LINE
  5
100BC
330
1F
100
AcDbEntity
  8
0
100
AcDbLine
 10
32.20000000000003
 20
704.8901378702587
 30
0.0
 11
32.20000000000003
 21
713.5059434284914
 31
0.0
  0
SPLINE
  5
100BD
330
1F
100
AcDbEntity
  8
0
100
AcDbSpline
 70
0
 71
3
 72
20
 73
16
 74
0
 42
1e-09
 40
-0.006454964738243561
 40
-0.006454964738243561
 40
-0.006454964738243561
 40
-0.006454964738243561
 40
0.0
 40
0.0
 40
0.0
 40
0.5
 40
0.5
 40
0.5
 40
0.9610922576761698
 40
0.9610922576761698
 40
0.9610922576761698
 40
1.0
 40
1.0
 40
1.0
 40
1.0011152902507707
 40
1.0011152902507707
 40
1.0011152902507707
 40
1.0011152902507707
 10
10.000000000000064
 20
846.9014156978142
 30
0.0
 10
10.044429083005541
 20
846.846547255026
 30
0.0
 10
10.088858166011015
 20
846.7916788122379
 30
0.0
 10
10.133287249016487
 20
846.7368103694499
 30
0.0
 10
13.5667259111895
 20
842.4966275869563
 30
0.0
 10
16.92990920036297
 20
840.4853196732457
 30
0.0
 10
20.222996117793873
 20
841.3570670383496
 30
0.0
 10
23.259829880758016
 20
842.1609789597478
 30
0.0
 10
26.275484000532533
 20
845.370914298192
 30
0.0
 10
29.256130240809654
 20
850.2639900330726
 30
0.0
 10
29.507642197353157
 20
850.6768760156376
 30
0.0
 10
29.758913365112885
 20
851.1021997218203
 30
0.0
 10
30.009939820755257
 20
851.5399114004861
 30
0.0
 10
30.01714450730078
 20
851.5524741219492
 30
0.0
 10
30.02434919384631
 20
851.5650368434123
 30
0.0
 10
30.03155388039186
 20
851.5775995648754
 30
0.0
  0
LINE
  5
100BE
330
1F
100
AcDbEntity
  8
0
100
AcDbLine
 10
10.000000000000064
 20
846.9014156978142
 30
0.0
 11
10.000000000000002
 21
820.5763731042555
 31
0.0
  0
SPLINE
  5
100BF
330
1F
100
AcDbEntity
  8
0
100
AcDbSpline
 70
0
 71
3
 72
20
 73
16
 74
0
 42
1e-09
 40
-0.0036787214880381267
 40
-0.0036787214880381267
 40
-0.0036787214880381267
 40
-0.0036787214880381267
 40
0.0
 40
0.0
 40
0.0
 40
0.5
 40
0.5
 40
0.5
 40
0.9466912531799698
 40
0.9466912531799698
 40
0.9466912531799698
 40
1.0
 40
1.0
 40
1.0
 40
1.0012795255496352
 40
1.0012795255496352
 40
1.0012795255496352
 40
1.0012795255496352
 10
10.000000000000002
 20
820.5763731042555
 30
0.0
 10
10.043588040991065
 20
820.6248374024563
 30
0.0
 10
10.08717608198214
 20
820.673301700657
 30
0.0
 10
10.130764122973217
 20
820.7217659988578
 30
0.0
 10
16.049688477253163
 20
827.3028489842616
 30
0.0
 10
20.872546725510663
 20
830.5843491983665
 30
0.0
 10
24.1393997065175
 20
829.395909564554
 30
0.0
 10
27.057949010598854
 20
828.3341783858409
 30
0.0
 10
28.834073709935033
 20
823.6617558968294
 30
0.0
 10
29.72104834495999
 20
816.3191528151206
 30
0.0
 10
29.82690111444613
 20
815.4428764925012
 30
0.0
 10
29.91994733502547
 20
814.5279451684645
 30
0.0
 10
30.0002647821877
 20
813.5746468247603
 30
0.0
 10
30.00219425209469
 20
813.5517456926707
 30
0.0
 10
30.004123722001687
 20
813.5288445605811
 30
0.0
 10
30.006053191908684
 20
813.5059434284915
 30
0.0
  0
LINE
  5
100C0
330
1F
100
AcDbEntity
  8
0
100
AcDbLine
 10
30.006053191908684
 20
813.5059434284915
 30
0.0
 11
32.15000000000002
 21
813.5059434284914
 31
0.0
  0
LINE
  5
100C1
330
1F
100
AcDbEntity
  8
0
100
AcDbLine
 10
32.15000000000002
 20
813.5059434284914
 30
0.0
 11
32.15000000000002
 21
828.3999884548532
 31
0.0
  0
LINE
  5
100C2
330
1F
100
AcDbEntity
  8
0
100
AcDbLine
 10
32.15000000000002
 20
828.3999884548532
 30
0.0
 11
30.150000000000016
 21
828.3999884548532
 31
0.0
  0
LINE
  5
100C3
330
1F
100
AcDbEntity
  8
0
100
AcDbLine
 10
30.150000000000016
 20
828.3999884548532
 30
0.0
 11
30.150000000000016
 21
843.0117940066427
 31
0.0
  0
LINE
  5
100C4
330
1F
100
AcDbEntity
  8
0
100
AcDbLine
 10
30.150000000000016
 20
843.0117940066427
 30
0.0
 11
32.15000000000002
 21
843.0117940066427
 31
0.0
  0
LINE
  5
100C5
330
1F
100
AcDbEntity
  8
0
100
AcDbLine
 10
32.15000000000002
 20
843.0117940066427
 30
0.0
 11
32.15000000000002
 21
851.5775995648754
 31
0.0
  0
LINE
  5
100C6
330
1F
100
AcDbEntity
  8
0
100
AcDbLine
 10
32.15000000000002
 20
851.5775995648754
 30
0.0
 11
30.031553880391797
 21
851.5775995648753
 31
0.0
  0
LINE
  5
100C7
330
1F
100
AcDbEntity
  8
0
100
AcDbLine
 10
43.55362591861983
 20
1015.7775995648753
 30
-1.4210854715202004e-13
 11
40.31052793909922
 21
1015.7775995648753
 31
-1.4224732503009818e-13
  0
LINE
  5
100C8
330
1F
100
AcDbEntity
  8
0
100
AcDbLine
 10
40.31052793909922
 20
1015.7775995648753
 30
0.0
 11
40.31052793909922
 21
1013.7775995648753
 31
0.0
  0
LINE
  5
100C9
330
1F
100
AcDbEntity
  8
0
100
AcDbLine
 10
40.310527939099146
 20
1013.7775995648753
 30
-1.4210854715202004e-13
 11
30.510527939099177
 21
1013.7775995648753
 31
-1.4155343563970746e-13
  0
LINE
  5
100CA
330
1F
100
AcDbEntity
  8
0
100
AcDbLine
 10
30.510527939099248
 20
1013.7775995648753
 30
-1.4210854715202004e-13
 11
30.510527939099106
 21
1015.7775995648753
 31
-1.4210854715202004e-13
  0
LINE
  5
100CB
330
1F
100
AcDbEntity
  8
0
100
AcDbLine
 10
30.510527939099106
 20
1015.7775995648753
 30
0.0
 11
27.3502055070378
 21
1015.7775995648753
 31
1.3877787807814457e-16
  0
LINE
  5
100CC
330
1F
100
AcDbEntity
  8
0
100
AcDbLine
 10
27.350205507037728
 20
1015.7775995648753
 30
0.0
 11
27.3502055070378
 21
1013.5775995648753
 31
-3.944304526105059e-30
  0
LINE
  5
100CD
330
1F
100
AcDbEntity
  8
0
100
AcDbLine
 10
27.35020550703787
 20
1013.5775995648753
 30
-1.4210854715202004e-13
 11
27.402142118562196
 21
1013.5775995648753
 31
-1.4210854715202004e-13
  0
SPLINE
  5
100CE
330
1F
100
AcDbEntity
  8
0
100
AcDbSpline
 70
0
 71
3
 72
14
 73
10
 74
0
 42
1e-09
 40
0.003934947608479653
 40
0.003934947608479653
 40
0.003934947608479653
 40
0.003934947608479653
 40
0.32705109534302074
 40
0.32705109534302074
 40
0.32705109534302074
 40
0.5803846045733982
 40
0.5803846045733982
 40
0.5803846045733982
 40
0.741646371776029
 40
0.741646371776029
 40
0.741646371776029
 40
0.741646371776029
 10
27.402142118562196
 20
1013.5775995648754
 30
0.0
 10
27.468293964177732
 20
1010.8945234598064
 30
0.0
 10
27.82601756277245
 20
1007.6402003051006
 30
-1.4210854715202004e-13
 10
28.24202576598516
 20
1004.1492078701899
 30
0.0
 10
28.568189650790856
 20
1001.4121569043583
 30
-1.4210854715202004e-13
 10
28.924439612144894
 20
998.5688252618227
 30
0.0
 10
28.952478714009473
 20
995.4659988384217
 30
0.0
 10
28.970327261290905
 20
993.4908662399716
 30
-1.4210854715202004e-13
 10
28.84870935788321
 20
991.3969692764773
 30
0.0
 10
28.46844078963386
 20
989.0740063273443
 30
-1.4210854715202004e-13
  0
SPLINE
  5
100CF
330
1F
100
AcDbEntity
  8
0
100
AcDbSpline
 70
0
 71
3
 72
11
 73
7
 74
0
 42
1e-09
 40
0.7416463717760292
 40
0.7416463717760292
 40
0.7416463717760292
 40
0.7416463717760292
 40
0.7727870682136674
 40
0.7727870682136674
 40
0.7727870682136674
 40
0.7728107389292393
 40
0.7728107389292393
 40
0.7728107389292393
 40
0.7728107389292393
 10
28.46844078963393
 20
989.0740063273441
 30
-1.4210854715202004e-13
 10
28.395008455026485
 20
988.6254270683563
 30
0.0
 10
28.311937547316504
 20
988.1682585592124
 30
-1.4210854715202004e-13
 10
28.218411146793372
 20
987.7016846117682
 30
-1.4210854715202004e-13
 10
28.218339879533616
 20
987.7013290817086
 30
-1.4210854715202004e-13
 10
28.21826861227379
 20
987.7009735516496
 30
0.0
 10
28.218197345016023
 20
987.7006180216007
 30
-1.4210854715202004e-13
  0
SPLINE
  5
100D0
330
1F
100
AcDbEntity
  8
0
100
AcDbSpline
 70
0
 71
3
 72
11
 73
7
 74
0
 42
1e-09
 40
0.0072477710007205235
 40
0.0072477710007205235
 40
0.0072477710007205235
 40
0.0072477710007205235
 40
0.8955998566576018
 40
0.8955998566576018
 40
0.8955998566576018
 40
0.8956810422202526
 40
0.8956810422202526
 40
0.8956810422202526
 40
0.8956810422202526
 10
26.888427815416875
 20
975.7775995648752
 30
-1.4210854715202004e-13
 10
26.89833969164674
 20
979.8619006148986
 30
0.0
 10
27.522590168983854
 20
983.7909338414457
 30
0.0
 10
28.21800679974146
 20
987.6995470539686
 30
0.0
 10
28.2180703149087
 20
987.6999040431608
 30
-1.4210854715202004e-13
 10
28.21813383007587
 20
987.700261032353
 30
0.0
 10
28.218197345241265
 20
987.7006180215358
 30
0.0
  0
LINE
  5
100D1
330
1F
100
AcDbEntity
  8
0
100
AcDbLine
 10
26.888427815416875
 20
975.7775995648752
 30
-1.4210854715202004e-13
 11
22.15466687149636
 21
975.7775995648753
 31
-1.4238610290817633e-13
  0
LINE
  5
100D2
330
1F
100
AcDbEntity
  8
0
100
AcDbLine
 10
22.15466687149636
 20
975.7775995648753
 30
0.0
 11
22.15466687149636
 21
973.7775995648753
 31
6.346422176943608e-32
  0
LINE
  5
100D3
330
1F
100
AcDbEntity
  8
0
100
AcDbLine
 10
22.15466687149636
 20
973.7775995648753
 30
0.0
 11
13.084494211834468
 21
973.7775995648753
 31
-2.7755575615628914e-16
  0
LINE
  5
100D4
330
1F
100
AcDbEntity
  8
0
100
AcDbLine
 10
13.084494211834468
 20
973.7775995648753
 30
-1.4210854715202004e-13
 11
13.084494211834468
 21
975.7775995648753
 31
-1.4210854715202004e-13
  0
LINE
  5
100D5
330
1F
100
AcDbEntity
  8
0
100
AcDbLine
 10
13.084494211834468
 20
975.7775995648753
 30
-1.4210854715202004e-13
 11
10.0
 21
975.7775995648753
 31
-1.4210854715202004e-13
  0
LINE
  5
100D6
330
1F
100
AcDbEntity
  8
0
100
AcDbLine
 10
10.000000000000071
 20
975.7775995648753
 30
-1.4210854715202004e-13
 11
10.000000000000142
 21
973.6775995648753
 31
-1.4210854715202004e-13
  0
SPLINE
  5
100D7
330
1F
100
AcDbEntity
  8
0
100
AcDbSpline
 70
0
 71
3
 72
11
 73
7
 74
0
 42
1e-09
 40
0.0
 40
0.0
 40
0.0
 40
0.0
 40
0.22238434812617114
 40
0.22238434812617114
 40
0.22238434812617114
 40
0.22487702546685315
 40
0.22487702546685315
 40
0.22487702546685315
 40
0.22487702546685315
 10
10.000000000000142
 20
973.6775995648753
 30
-1.4210854715202004e-13
 10
10.000000000000142
 20
972.2389288131308
 30
-1.4210854715202004e-13
 10
10.187476117206415
 20
971.2015463715124
 30
0.0
 10
10.536747408162768
 20
970.463122300377
 30
1.4210854715202004e-13
 10
10.540558018282837
 20
970.4550659662001
 30
0.0
 10
10.544368628402978
 20
970.4470096320232
 30
0.0
 10
10.548179238522906
 20
970.4389532978462
 30
-1.4210854715202004e-13
  0
SPLINE
  5
100D8
330
1F
100
AcDbEntity
  8
0
100
AcDbSpline
 70
0
 71
3
 72
14
 73
10
 74
0
 42
1e-09
 40
0.18841505753490295
 40
0.18841505753490295
 40
0.18841505753490295
 40
0.18841505753490295
 40
0.1894278689253254
 40
0.1894278689253254
 40
0.1894278689253254
 40
0.39030994346209946
 40
0.39030994346209946
 40
0.39030994346209946
 40
0.39042754299602456
 40
0.39042754299602456
 40
0.39042754299602456
 40
0.39042754299602456
 10
10.548179238520632
 20
970.4389532978478
 30
0.0
 10
10.555501933824232
 20
970.4338735928005
 30
0.0
 10
10.562824629127974
 20
970.4287938877534
 30
0.0
 10
10.570147324431716
 20
970.4237141827061
 30
-1.4210854715202004e-13
 10
12.028108725238482
 20
969.4123360522325
 30
-1.4210854715202004e-13
 10
13.683317978723935
 20
968.4879717665171
 30
-1.4210854715202004e-13
 10
15.13635419753065
 20
967.4805610771357
 30
0.0
 10
15.137208124891188
 20
967.479969037144
 30
0.0
 10
15.138062052251868
 20
967.479376997152
 30
-1.4210854715202004e-13
 10
15.138915979612975
 20
967.47878495716
 30
0.0
  0
SPLINE
  5
100D9
330
1F
100
AcDbEntity
  8
0
100
AcDbSpline
 70
0
 71
3
 72
11
 73
7
 74
0
 42
1e-09
 40
0.7796833551414819
 40
0.7796833551414819
 40
0.7796833551414819
 40
0.7796833551414819
 40
0.7799352789405017
 40
0.7799352789405017
 40
0.7799352789405017
 40
1.0
 40
1.0
 40
1.0
 40
1.0
 10
15.138915979618517
 20
967.4787849571608
 30
0.0
 10
15.139805124029806
 20
967.4782472533259
 30
0.0
 10
15.140694268445145
 20
967.4777095494886
 30
-1.4210854715202004e-13
 10
15.141583412860555
 20
967.4771718456512
 30
0.0
 10
15.910023361327674
 20
967.0124631865643
 30
0.0
 10
16.721452169056548
 20
966.358750465043
 30
-1.4210854715202004e-13
 10
17.57231655492255
 20
965.427409045282
 30
0.0
  0
SPLINE
  5
100DA
330
1F
100
AcDbEntity
  8
0
100
AcDbSpline
 70
0
 71
3
 72
14
 73
10
 74
0
 42
1e-09
 40
0.5178067062980349
 40
0.5178067062980349
 40
0.5178067062980349
 40
0.5178067062980349
 40
0.794280372255413
 40
0.794280372255413
 40
0.794280372255413
 40
1.0
 40
1.0
 40
1.0
 40
1.0046201826075432
 40
1.0046201826075432
 40
1.0046201826075432
 40
1.0046201826075432
 10
17.572316554924114
 20
965.4274090452803
 30
0.0
 10
19.03837957922491
 20
963.8226818511542
 30
-1.4210854715202004e-13
 10
19.710250068840693
 20
961.8916325994122
 30
0.0
 10
19.49052612534551
 20
959.5559754326396
 30
0.0
 10
19.32703305736773
 20
957.818050335059
 30
0.0
 10
18.690237128031768
 20
955.8679349522444
 30
0.0
 10
17.607370598490135
 20
953.7226611506702
 30
0.0
 10
17.582963094598867
 20
953.6743072887385
 30
0.0
 10
17.5585555907076
 20
953.625953426807
 30
0.0
 10
17.5341480868164
 20
953.5775995648753
 30
-1.4210854715202004e-13
  0
LINE
  5
100DB
330
1F
100
AcDbEntity
  8
0
100
AcDbLine
 10
17.5341480868164
 20
953.5775995648753
 30
-1.4210854715202004e-13
 11
25.447491785874234
 21
953.5775995648753
 31
-1.4210854715202004e-13
  0
LINE
  5
100DC
330
1F
100
AcDbEntity
  8
0
100
AcDbLine
 10
25.447491785874163
 20
953.5775995648753
 30
0.0
 11
25.447491785874092
 21
951.5775995648753
 31
0.0
  0
LINE
  5
100DD
330
1F
100
AcDbEntity
  8
0
100
AcDbLine
 10
25.447491785874163
 20
951.5775995648753
 30
0.0
 11
32.64749178587408
 21
951.5775995648753
 31
0.0
  0
LINE
  5
100DE
330
1F
100
AcDbEntity
  8
0
100
AcDbLine
 10
32.64749178587401
 20
951.5775995648753
 30
0.0
 11
32.64749178587401
 21
953.5775995648753
 31
0.0
  0
LINE
  5
100DF
330
1F
100
AcDbEntity
  8
0
100
AcDbLine
 10
32.64749178587401
 20
953.5775995648753
 30
0.0
 11
43.04440577777292
 21
953.5775995648753
 31
0.0
  0
SPLINE
  5
100E0
330
1F
100
AcDbEntity
  8
0
100
AcDbSpline
 70
0
 71
3
 72
14
 73
10
 74
0
 42
1e-09
 40
0.532864953468375
 40
0.532864953468375
 40
0.532864953468375
 40
0.532864953468375
 40
0.7399186823661008
 40
0.7399186823661008
 40
0.7399186823661008
 40
1.0
 40
1.0
 40
1.0
 40
1.0080229321126022
 40
1.0080229321126022
 40
1.0080229321126022
 40
1.0080229321126022
 10
36.33173605852896
 20
975.6689172122615
 30
0.0
 10
35.910788489902714
 20
970.8389135702137
 30
0.0
 10
36.03727916691433
 20
966.5914454153985
 30
-1.4210854715202004e-13
 10
36.82885141652399
 20
963.148498814903
 30
0.0
 10
37.82314963456123
 20
958.8237948205965
 30
-1.4210854715202004e-13
 10
39.82819229693966
 20
955.7246291423894
 30
-1.4210854715202004e-13
 10
42.770019430922446
 20
953.7607701180322
 30
0.0
 10
42.861481546539366
 20
953.6997132669799
 30
-1.4210854715202004e-13
 10
42.95294366215607
 20
953.6386564159277
 30
0.0
 10
43.044405777773065
 20
953.5775995648754
 30
0.0
  0
SPLINE
  5
100E1
330
1F
100
AcDbEntity
  8
0
100
AcDbSpline
 70
0
 71
3
 72
14
 73
10
 74
0
 42
1e-09
 40
-0.002156258534506866
 40
-0.002156258534506866
 40
-0.002156258534506866
 40
-0.002156258534506866
 40
0.0
 40
0.0
 40
0.0
 40
0.20228827389956758
 40
0.20228827389956758
 40
0.20228827389956758
 40
0.53286495346836
 40
0.53286495346836
 40
0.53286495346836
 40
0.53286495346836
 10
43.627724550207674
 20
1013.7775995648753
 30
-1.4210854715202004e-13
 10
43.62043025446553
 20
1013.7381983756743
 30
0.0
 10
43.61313595872339
 20
1013.6987971864735
 30
0.0
 10
43.60584166298132
 20
1013.6593959972726
 30
-1.4210854715202004e-13
 10
42.92108642294487
 20
1009.960591928603
 30
0.0
 10
41.93374514702896
 20
1005.4945954294832
 30
-1.4210854715202004e-13
 10
40.835222428547624
 20
1000.5752822566338
 30
-1.4210854715202004e-13
 10
39.04003190313567
 20
992.5362091898137
 30
0.0
 10
37.003810163400956
 20
983.380377299427
 30
0.0
 10
36.33173605852896
 20
975.6689172122625
 30
0.0
  0
LINE
  5
100E2
330
1F
100
AcDbEntity
  8
0
100
AcDbLine
 10
43.627724550207674
 20
1013.7775995648753
 30
-1.4210854715202004e-13
 11
43.5536259186199
 21
1013.7775995648752
 31
-1.4210854715202004e-13
  0
LINE
  5
100E3
330
1F
100
AcDbEntity
  8
0
100
AcDbLine
 10
43.55362591861983
 20
1013.7775995648752
 30
-1.4210854715202004e-13
 11
43.55362591861976
 21
1015.7775995648753
 31
-1.4210854715202e-13
  0
LINE
  5
100E4
330
1F
100
AcDbEntity
  8
0
100
AcDbLine
 10
15.601821365438369
 20
1115.7775995648753
 30
1.4210854715202004e-13
 11
21.78467663282321
 21
1115.7775995648753
 31
1.4203915821298096e-13
  0
LINE
  5
100E5
330
1F
100
AcDbEntity
  8
0
100
AcDbLine
 10
21.784676632823192
 20
1115.7775995648753
 30
1.4210854715202004e-13
 11
21.78467663282321
 21
1117.7775995648753
 31
1.4210854715202004e-13
  0
LINE
  5
100E6
330
1F
100
AcDbEntity
  8
0
100
AcDbLine
 10
21.784676632823228
 20
1117.7775995648753
 30
1.4210854715202004e-13
 11
27.170235229881676
 21
1117.7775995648753
 31
1.4210854715202034e-13
  0
SPLINE
  5
100E7
330
1F
100
AcDbEntity
  8
0
100
AcDbSpline
 70
0
 71
3
 72
17
 73
13
 74
0
 42
1e-09
 40
-1.0048524290870893
 40
-1.0048524290870893
 40
-1.0048524290870893
 40
-1.0048524290870893
 40
-1.0
 40
-1.0
 40
-1.0
 40
-0.4740945033589339
 40
-0.4740945033589339
 40
-0.4740945033589339
 40
0.0
 40
0.0
 40
0.0
 40
0.007154193937964174
 40
0.007154193937964174
 40
0.007154193937964174
 40
0.007154193937964174
 10
27.17023522988157
 20
1117.7775995648756
 30
1.4210854715202004e-13
 10
27.15112610628653
 20
1117.8141759861228
 30
1.4210854715202004e-13
 10
27.132016982691454
 20
1117.85075240737
 30
1.4210854715202004e-13
 10
27.11290785909636
 20
1117.8873288286172
 30
0.0
 10
25.046198319890216
 20
1121.8431794632957
 30
1.4210854715202004e-13
 10
23.984331875762592
 20
1125.5955435870435
 30
0.0
 10
24.358666841448517
 20
1129.056906937994
 30
1.4210854715202004e-13
 10
24.69612319202909
 20
1132.177264776607
 30
1.4210854715202004e-13
 10
26.190841614142606
 20
1135.0724206814969
 30
2.8421709430404007e-13
 10
28.54924484058614
 20
1137.8035819672903
 30
1.4210854715202004e-13
 10
28.584941927121186
 20
1137.8449211664854
 30
0.0
 10
28.620639013656195
 20
1137.8862603656803
 30
1.4210854715202004e-13
 10
28.656336100191258
 20
1137.9275995648754
 30
1.4210854715202004e-13
  0
LINE
  5
100E8
330
1F
100
AcDbEntity
  8
0
100
AcDbLine
 10
28.656336100191258
 20
1137.9275995648754
 30
1.4210854715202004e-13
 11
24.631973250740273
 21
1137.9275995648754
 31
1.421085471520194e-13
  0
LINE
  5
100E9
330
1F
100
AcDbEntity
  8
0
100
AcDbLine
 10
24.631973250740238
 20
1137.9275995648754
 30
1.4210854715202004e-13
 11
24.631973250740202
 21
1139.9275995648754
 31
1.4210854715202004e-13
  0
LINE
  5
100EA
330
1F
100
AcDbEntity
  8
0
100
AcDbLine
 10
24.631973250740202
 20
1139.9275995648754
 30
1.4210854715202004e-13
 11
16.481973250740243
 21
1139.9275995648754
 31
1.4210854715202004e-13
  0
LINE
  5
100EB
330
1F
100
AcDbEntity
  8
0
100
AcDbLine
 10
16.481973250740225
 20
1139.9275995648754
 30
1.4210854715202004e-13
 11
16.48197325074026
 21
1137.9275995648754
 31
1.4210854715202e-13
  0
LINE
  5
100EC
330
1F
100
AcDbEntity
  8
0
100
AcDbLine
 10
16.48197325074026
 20
1137.9275995648754
 30
1.4210854715202004e-13
 11
12.374281208015425
 21
1137.9275995648754
 31
1.421085471520213e-13
  0
SPLINE
  5
100ED
330
1F
100
AcDbEntity
  8
0
100
AcDbSpline
 70
0
 71
3
 72
17
 73
13
 74
0
 42
1e-09
 40
-0.008134920646908482
 40
-0.008134920646908482
 40
-0.008134920646908482
 40
-0.008134920646908482
 40
0.0
 40
0.0
 40
0.0
 40
0.5113244814733067
 40
0.5113244814733067
 40
0.5113244814733067
 40
1.0
 40
1.0
 40
1.0
 40
1.003847590940648
 40
1.003847590940648
 40
1.003847590940648
 40
1.003847590940648
 10
12.374281208015567
 20
1137.9275995648754
 30
0.0
 10
12.390170775844815
 20
1137.8923305099117
 30
0.0
 10
12.40606034367401
 20
1137.857061454948
 30
1.4210854715202004e-13
 10
12.421949911503205
 20
1137.8217923999846
 30
1.4210854715202004e-13
 10
13.413507754377108
 20
1135.6208950290957
 30
1.4210854715202004e-13
 10
13.739800256081693
 20
1132.8493520186903
 30
-1.4210854715202004e-13
 10
13.25208214028848
 20
1129.3795126584748
 30
1.4210854715202004e-13
 10
12.785967350628162
 20
1126.0633687811624
 30
0.0
 10
11.635332753829797
 20
1122.160778549326
 30
1.4210854715202004e-13
 10
10.037763238875108
 20
1117.8788162956198
 30
0.0
 10
10.025175492583429
 20
1117.8450773853717
 30
0.0
 10
10.01258774629175
 20
1117.8113384751234
 30
1.4210854715202004e-13
 10
10.000000000000036
 20
1117.7775995648753
 30
0.0
  0
LINE
  5
100EE
330
1F
100
AcDbEntity
  8
0
100
AcDbLine
 10
10.0
 20
1117.7775995648753
 30
0.0
 11
15.601821365438422
 21
1117.7775995648753
 31
6.93889390382838e-17
  0
LINE
  5
100EF
330
1F
100
AcDbEntity
  8
0
100
AcDbLine
 10
15.601821365438404
 20
1117.7775995648753
 30
1.4210854715202004e-13
 11
15.60182136543835
 21
1115.7775995648753
 31
1.4210854715202e-13
  0
LINE
  5
100F0
330
1F
100
AcDbEntity
  8
0
100
AcDbLine
 10
21.784676632823334
 20
1239.9275995648754
 30
1.4210854715202004e-13
 11
21.784676632823334
 21
1241.9275995648754
 31
1.4210854715202004e-13
  0
LINE
  5
100F1
330
1F
100
AcDbEntity
  8
0
100
AcDbLine
 10
21.784676632823334
 20
1241.9275995648754
 30
1.4210854715202004e-13
 11
27.170235229881836
 21
1241.9275995648754
 31
1.4210854715202004e-13
  0
SPLINE
  5
100F2
330
1F
100
AcDbEntity
  8
0
100
AcDbSpline
 70
0
 71
3
 72
14
 73
10
 74
0
 42
1e-09
 40
-1.004852429087096
 40
-1.004852429087096
 40
-1.004852429087096
 40
-1.004852429087096
 40
-1.0
 40
-1.0
 40
-1.0
 40
-0.4740945033576751
 40
-0.4740945033576751
 40
-0.4740945033576751
 40
-0.0015031016313391344
 40
-0.0015031016313391344
 40
-0.0015031016313391344
 40
-0.0015031016313391344
 10
27.17023522988189
 20
1241.9275995648754
 30
0.0
 10
27.15112610628676
 20
1241.9641759861229
 30
0.0
 10
27.132016982691667
 20
1242.00075240737
 30
0.0
 10
27.112907859096556
 20
1242.0373288286175
 30
1.4210854715202004e-13
 10
25.046198319885598
 20
1245.9931794633053
 30
1.4210854715202004e-13
 10
23.98433187575794
 20
1249.7455435870615
 30
0.0
 10
24.358666841451324
 20
1253.2069069380188
 30
0.0
 10
24.69505329734826
 20
1256.3173717807654
 30
0.0
 10
26.181523956745636
 20
1259.2039330156742
 30
1.4210854715202004e-13
 10
28.52684016283792
 20
1261.9275995648754
 30
1.4210854715202004e-13
  0
LINE
  5
100F3
330
1F
100
AcDbEntity
  8
0
100
AcDbLine
 10
28.52684016283792
 20
1261.9275995648754
 30
1.4210854715202004e-13
 11
28.62794265273518
 21
1261.9275995648752
 31
1.4210746294984755e-13
  0
LINE
  5
100F4
330
1F
100
AcDbEntity
  8
0
100
AcDbLine
 10
28.627942652735214
 20
1261.9275995648752
 30
0.0
 11
28.627942652735232
 21
1264.0775995648755
 31
-6.162975822039155e-32
  0
LINE
  5
100F5
330
1F
100
AcDbEntity
  8
0
100
AcDbLine
 10
28.62794265273525
 20
1264.0775995648755
 30
0.0
 11
24.481973250740392
 21
1264.0775995648755
 31
4.176194859459278e-51
  0
LINE
  5
100F6
330
1F
100
AcDbEntity
  8
0
100
AcDbLine
 10
24.48197325074034
 20
1264.0775995648755
 30
0.0
 11
24.481973250740356
 21
1262.0775995648755
 31
1.1247430875221457e-29
  0
LINE
  5
100F7
330
1F
100
AcDbEntity
  8
0
100
AcDbLine
 10
24.48197325074034
 20
1262.0775995648755
 30
0.0
 11
16.631973250740373
 21
1262.0775995648755
 31
6.938893903907228e-17
  0
LINE
  5
100F8
330
1F
100
AcDbEntity
  8
0
100
AcDbLine
 10
16.63197325074041
 20
1262.0775995648755
 30
1.4210854715202004e-13
 11
16.63197325074041
 21
1264.0775995648755
 31
1.4210854715202004e-13
  0
LINE
  5
100F9
330
1F
100
AcDbEntity
  8
0
100
AcDbLine
 10
16.63197325074041
 20
1264.0775995648755
 30
1.4210854715202004e-13
 11
12.477808356041447
 21
1264.0775995648755
 31
1.420738526825005e-13
  0
LINE
  5
100FA
330
1F
100
AcDbEntity
  8
0
100
AcDbLine
 10
12.477808356041429
 20
1264.0775995648755
 30
1.4210854715202004e-13
 11
12.477808356041447
 21
1262.0775995648755
 31
1.4210854715202004e-13
  0
LINE
  5
100FB
330
1F
100
AcDbEntity
  8
0
100
AcDbLine
 10
12.477808356041464
 20
1262.0775995648755
 30
0.0
 11
12.374281208015585
 21
1262.0775995648758
 31
-1.0842021724895104e-18
  0
SPLINE
  5
100FC
330
1F
100
AcDbEntity
  8
0
100
AcDbSpline
 70
0
 71
3
 72
17
 73
13
 74
0
 42
1e-09
 40
-0.008134920646934034
 40
-0.008134920646934034
 40
-0.008134920646934034
 40
-0.008134920646934034
 40
0.0
 40
0.0
 40
0.0
 40
0.5113244814740825
 40
0.5113244814740825
 40
0.5113244814740825
 40
1.0
 40
1.0
 40
1.0
 40
1.0038475909406497
 40
1.0038475909406497
 40
1.0038475909406497
 40
1.0038475909406497
 10
12.374281208015532
 20
1262.077599564876
 30
0.0
 10
12.390170775844815
 20
1262.042330509912
 30
0.0
 10
12.406060343674117
 20
1262.0070614549484
 30
1.4210854715202004e-13
 10
12.421949911503383
 20
1261.9717923999847
 30
0.0
 10
13.413507754378706
 20
1259.7708950290926
 30
1.4210854715202004e-13
 10
13.739800256082706
 20
1256.999352018682
 30
0.0
 10
13.252082140286383
 20
1253.5295126584592
 30
0.0
 10
12.785967350624503
 20
1250.2133687811502
 30
0.0
 10
11.635332753827612
 20
1246.3107785493194
 30
1.4210854715202004e-13
 10
10.037763238875215
 20
1242.02881629562
 30
0.0
 10
10.0251754925835
 20
1241.9950773853718
 30
0.0
 10
10.012587746291821
 20
1241.9613384751237
 30
0.0
 10
10.000000000000036
 20
1241.9275995648754
 30
0.0
  0
LINE
  5
100FD
330
1F
100
AcDbEntity
  8
0
100
AcDbLine
 10
10.0
 20
1241.9275995648754
 30
0.0
 11
15.601821365438457
 21
1241.9275995648754
 31
2.6963019221421587e-31
  0
LINE
  5
100FE
330
1F
100
AcDbEntity
  8
0
100
AcDbLine
 10
15.601821365438475
 20
1241.9275995648754
 30
0.0
 11
15.601821365438475
 21
1239.9275995648754
 31
7.703719777548943e-33
  0
LINE
  5
100FF
330
1F
100
AcDbEntity
  8
0
100
AcDbLine
 10
15.601821365438475
 20
1239.9275995648754
 30
0.0
 11
21.784676632823352
 21
1239.9275995648754
 31
0.0
  0
SPLINE
  5
10100
330
1F
100
AcDbEntity
  8
0
100
AcDbSpline
 70
0
 71
3
 72
14
 73
10
 74
0
 42
1e-09
 40
-0.001617193900879485
 40
-0.001617193900879485
 40
-0.001617193900879485
 40
-0.001617193900879485
 40
0.0
 40
0.0
 40
0.0
 40
0.20227201005183146
 40
0.20227201005183146
 40
0.20227201005183146
 40
0.53286495346836
 40
0.53286495346836
 40
0.53286495346836
 40
0.53286495346836
 10
46.44499927912925
 20
1426.2275995648752
 30
1.4210854715202004e-13
 10
46.43952855732259
 20
1426.1980486729747
 30
1.4210854715202004e-13
 10
46.434057835516
 20
1426.168497781074
 30
1.4210854715202004e-13
 10
46.428587113709554
 20
1426.1389468891732
 30
0.0
 10
45.74399808750023
 20
1422.4410406484287
 30
1.4210854715202004e-13
 10
44.75684039183726
 20
1417.9757857591767
 30
1.4210854715202004e-13
 10
43.65841608564814
 20
1413.0569172889795
 30
0.0
 10
41.863153733678544
 20
1405.0175291134994
 30
0.0
 10
39.826489159365934
 20
1395.8604948982666
 30
0.0
 10
39.154158214732675
 20
1388.146087800416
 30
0.0
  0
LINE
  5
10101
330
1F
100
AcDbEntity
  8
0
100
AcDbLine
 10
46.44499927912925
 20
1426.2275995648752
 30
1.4210854715202004e-13
 11
42.332855687989195
 21
1426.2275995648754
 31
1.4210854715202004e-13
  0
LINE
  5
10102
330
1F
100
AcDbEntity
  8
0
100
AcDbLine
 10
42.332855687989124
 20
1426.2275995648754
 30
0.0
 11
42.332855687989195
 21
1428.2275995648754
 31
0.0
  0
LINE
  5
10103
330
1F
100
AcDbEntity
  8
0
100
AcDbLine
 10
42.332855687989195
 20
1428.2275995648754
 30
0.0
 11
34.18285568798922
 21
1428.2275995648754
 31
0.0
  0
LINE
  5
10104
330
1F
100
AcDbEntity
  8
0
100
AcDbLine
 10
34.18285568798929
 20
1428.2275995648754
 30
0.0
 11
34.18285568798936
 21
1426.2275995648754
 31
0.0
  0
LINE
  5
10105
330
1F
100
AcDbEntity
  8
0
100
AcDbLine
 10
34.18285568798936
 20
1426.2275995648754
 30
0.0
 11
30.27043727591618
 21
1426.2275995648754
 31
-1.3877787807814457e-16
  0
SPLINE
  5
10106
330
1F
100
AcDbEntity
  8
0
100
AcDbSpline
 70
0
 71
3
 72
20
 73
16
 74
0
 42
1e-09
 40
-0.0031014314605294115
 40
-0.0031014314605294115
 40
-0.0031014314605294115
 40
-0.0031014314605294115
 40
0.0
 40
0.0
 40
0.0
 40
0.30233748424812695
 40
0.30233748424812695
 40
0.30233748424812695
 40
0.5509193481671586
 40
0.5509193481671586
 40
0.5509193481671586
 40
0.8468955226619437
 40
0.8468955226619437
 40
0.8468955226619437
 40
0.9992687082869034
 40
0.9992687082869034
 40
0.9992687082869034
 40
0.9992687082869034
 10
30.27043727591611
 20
1426.2275995648745
 30
1.4210854715202004e-13
 10
30.271011557521064
 20
1426.202038040533
 30
1.4210854715202004e-13
 10
30.271585839125805
 20
1426.1764765161913
 30
0.0
 10
30.272160120730547
 20
1426.1509149918497
 30
1.4210854715202004e-13
 10
30.32823778261367
 20
1423.654873838197
 30
0.0
 10
30.6350346954995
 20
1420.6544884681184
 30
0.0
 10
31.019236270399517
 20
1417.4238537117315
 30
0.0
 10
31.33512678542054
 20
1414.7676259820425
 30
0.0
 10
31.701265519344375
 20
1411.9958169488832
 30
0.0
 10
31.801705024236853
 20
1409.0129635931737
 30
1.4210854715202004e-13
 10
31.921294200846617
 20
1405.4614031076935
 30
1.4210854715202004e-13
 10
31.637383056639052
 20
1401.572292194696
 30
0.0
 10
30.234092537947888
 20
1396.668488683933
 30
1.4210854715202004e-13
 10
29.511656527497934
 20
1394.1439335778023
 30
0.0
 10
28.491270819853156
 20
1391.3458495855648
 30
1.4210854715202004e-13
 10
27.12791487637098
 20
1388.2275995648758
 30
1.4210854715202004e-13
  0
LINE
  5
10107
330
1F
100
AcDbEntity
  8
0
100
AcDbLine
 10
27.12791487637098
 20
1388.2275995648758
 30
1.4210854715202004e-13
 11
26.594041342086072
 21
1388.2275995648752
 31
1.4210854715202004e-13
  0
LINE
  5
10108
330
1F
100
AcDbEntity
  8
0
100
AcDbLine
 10
26.594041342086072
 20
1388.2275995648752
 30
1.4210854715202004e-13
 11
26.594041342086072
 21
1386.2275995648754
 31
1.4210854715202004e-13
  0
LINE
  5
10109
330
1F
100
AcDbEntity
  8
0
100
AcDbLine
 10
26.594041342086072
 20
1386.2275995648754
 30
1.4210854715202004e-13
 11
22.222371861279342
 21
1386.2275995648754
 31
1.4210854715202004e-13
  0
LINE
  5
1010A
330
1F
100
AcDbEntity
  8
0
100
AcDbLine
 10
22.222371861279342
 20
1386.2275995648754
 30
0.0
 11
22.222371861279342
 21
1388.2275995648754
 31
0.0
  0
LINE
  5
1010B
330
1F
100
AcDbEntity
  8
0
100
AcDbLine
 10
22.222371861279484
 20
1388.2275995648754
 30
0.0
 11
13.863568938732982
 21
1388.2275995648754
 31
0.0
  0
LINE
  5
1010C
330
1F
100
AcDbEntity
  8
0
100
AcDbLine
 10
13.86356893873291
 20
1388.2275995648754
 30
0.0
 11
13.863568938732982
 21
1386.2275995648754
 31
0.0
  0
LINE
  5
1010D
330
1F
100
AcDbEntity
  8
0
100
AcDbLine
 10
13.863568938732982
 20
1386.2275995648754
 30
0.0
 11
10.0
 21
1386.2275995648754
 31
1.3877787807814457e-16
  0
SPLINE
  5
1010E
330
1F
100
AcDbEntity
  8
0
100
AcDbSpline
 70
0
 71
3
 72
23
 73
19
 74
0
 42
1e-09
 40
-0.006188103976420858
 40
-0.006188103976420858
 40
-0.006188103976420858
 40
-0.006188103976420858
 40
0.0
 40
0.0
 40
0.0
 40
0.22124566499701212
 40
0.22124566499701212
 40
0.22124566499701212
 40
0.4755196688467719
 40
0.4755196688467719
 40
0.4755196688467719
 40
0.7272351332509978
 40
0.7272351332509978
 40
0.7272351332509978
 40
1.0
 40
1.0
 40
1.0
 40
1.0034651369556522
 40
1.0034651369556522
 40
1.0034651369556522
 40
1.0034651369556522
 10
9.999999999999929
 20
1386.2275995648754
 30
1.4210854715202004e-13
 10
10.025922029216261
 20
1386.1887289825743
 30
0.0
 10
10.05184405843245
 20
1386.1498584002732
 30
0.0
 10
10.077766087648712
 20
1386.110987817972
 30
1.4210854715202004e-13
 10
11.013014572914201
 20
1384.7085646930218
 30
0.0
 10
12.47514012179721
 20
1383.53254362029
 30
0.0
 10
14.1370148222709
 20
1382.4448870111387
 30
1.4210854715202004e-13
 10
16.04698008189203
 20
1381.19486115944
 30
1.4210854715202004e-13
 10
18.16655693077685
 20
1380.0352976719519
 30
1.4210854715202004e-13
 10
19.713787434380166
 20
1378.636808227772
 30
0.0
 10
21.245449495221322
 20
1377.2523905736803
 30
1.4210854715202004e-13
 10
22.188516237601874
 20
1375.6263471080997
 30
1.4210854715202004e-13
 10
22.370522076225328
 20
1373.664349743439
 30
1.4210854715202004e-13
 10
22.567747933751292
 20
1371.5382827137464
 30
1.4210854715202004e-13
 10
21.914091237904216
 20
1369.0333941045003
 30
0.0
 10
20.477016296274613
 20
1366.1863957542214
 30
0.0
 10
20.458710668356233
 20
1366.150130357773
 30
1.4210854715202004e-13
 10
20.44040504043771
 20
1366.1138649613242
 30
1.4210854715202004e-13
 10
20.422099412519188
 20
1366.0775995648755
 30
1.4210854715202004e-13
  0
LINE
  5
1010F
330
1F
100
AcDbEntity
  8
0
100
AcDbLine
 10
20.422099412519188
 20
1366.0775995648755
 30
1.4210854715202004e-13
 11
28.319819534764008
 21
1366.0775995648753
 31
1.4183099139586375e-13
  0
LINE
  5
10110
330
1F
100
AcDbEntity
  8
0
100
AcDbLine
 10
28.31981953476408
 20
1366.0775995648753
 30
1.4210854715202004e-13
 11
28.31981953476415
 21
1364.0775995648753
 31
1.4210854715202004e-13
  0
LINE
  5
10111
330
1F
100
AcDbEntity
  8
0
100
AcDbLine
 10
28.31981953476408
 20
1364.0775995648753
 30
1.4210854715202004e-13
 11
35.46981953476411
 21
1364.0775995648753
 31
1.4210854715202004e-13
  0
LINE
  5
10112
330
1F
100
AcDbEntity
  8
0
100
AcDbLine
 10
35.46981953476411
 20
1364.0775995648753
 30
1.4210854715202004e-13
 11
35.46981953476404
 21
1366.0775995648753
 31
1.4210854715202e-13
  0
LINE
  5
10113
330
1F
100
AcDbEntity
  8
0
100
AcDbLine
 10
35.46981953476404
 20
1366.0775995648753
 30
1.4210854715202004e-13
 11
45.809256515137875
 21
1366.0775995648753
 31
1.4210854715202004e-13
  0
SPLINE
  5
10114
330
1F
100
AcDbEntity
  8
0
100
AcDbSpline
 70
0
 71
3
 72
14
 73
10
 74
0
 42
1e-09
 40
0.532864953468375
 40
0.532864953468375
 40
0.532864953468375
 40
0.532864953468375
 40
0.7401321873441156
 40
0.7401321873441156
 40
0.7401321873441156
 40
1.0
 40
1.0
 40
1.0
 40
1.0060171990844495
 40
1.0060171990844495
 40
1.0060171990844495
 40
1.0060171990844495
 10
39.15415821473246
 20
1388.146087800415
 30
1.4210854715202004e-13
 10
38.732636285973925
 20
1383.3094938802953
 30
1.4210854715202004e-13
 10
38.85971316531936
 20
1379.0558151430741
 30
1.4210854715202004e-13
 10
39.6542681695167
 20
1375.6072376400052
 30
1.4210854715202004e-13
 10
40.65046649336445
 20
1371.2834751439318
 30
1.4210854715202004e-13
 10
42.6582788000983
 20
1368.1810800684539
 30
0.0
 10
45.60346675499993
 20
1366.214977479743
 30
1.4210854715202004e-13
 10
45.67206334171267
 20
1366.169184841454
 30
0.0
 10
45.740659928425416
 20
1366.1233922031647
 30
1.4210854715202004e-13
 10
45.80925651513802
 20
1366.0775995648755
 30
0.0
  0
LINE
  5
10115
330
1F
100
AcDbEntity
  8
0
100
AcDbLine
 10
30.41962308476883
 20
1528.2275995648756
 30
0.0
 11
34.56962308476861
 21
1528.2275995648756
 31
0.0
  0
LINE
  5
10116
330
1F
100
AcDbEntity
  8
0
100
AcDbLine
 10
34.56962308476861
 20
1528.2275995648756
 30
0.0
 11
34.56962308476861
 21
1530.2275995648756
 31
0.0
  0
LINE
  5
10117
330
1F
100
AcDbEntity
  8
0
100
AcDbLine
 10
34.56962308476861
 20
1530.2275995648756
 30
7.105427357601002e-14
 11
39.42493988669753
 21
1530.2275995648754
 31
7.105427357601002e-14
  0
SPLINE
  5
10118
330
1F
100
AcDbEntity
  8
0
100
AcDbSpline
 70
0
 71
3
 72
20
 73
16
 74
0
 42
1e-09
 40
-0.001234329772364586
 40
-0.001234329772364586
 40
-0.001234329772364586
 40
-0.001234329772364586
 40
0.0
 40
0.0
 40
0.0
 40
0.44451151805749917
 40
0.44451151805749917
 40
0.44451151805749917
 40
0.8168627703013958
 40
0.8168627703013958
 40
0.8168627703013958
 40
1.0
 40
1.0
 40
1.0
 40
1.0053737157259137
 40
1.0053737157259137
 40
1.0053737157259137
 40
1.0053737157259137
 10
46.187476604482924
 20
1550.2596396376466
 30
0.0
 10
46.175124408014625
 20
1550.2523949880551
 30
7.105427357601002e-14
 10
46.162772211546894
 20
1550.2451503384639
 30
7.105427357601002e-14
 10
46.15042001507916
 20
1550.2379056888726
 30
0.0
 10
41.70852424873729
 20
1547.6327027654513
 30
7.105427357601002e-14
 10
38.4925482128979
 20
1544.9019968365164
 30
0.0
 10
36.99079409105153
 20
1542.0121622606025
 30
7.105427357601002e-14
 10
35.7328288750422
 20
1539.591452156573
 30
0.0
 10
35.75465610643221
 20
1537.0496106478856
 30
0.0
 10
36.891541523693974
 20
1534.3767348493625
 30
0.0
 10
37.45070721616159
 20
1533.0621076898726
 30
7.105427357601002e-14
 10
38.26982181906985
 20
1531.7183460061465
 30
1.4210854715202004e-13
 10
39.331230281400025
 20
1530.3485372114455
 30
0.0
 10
39.36246681649891
 20
1530.3082246625888
 30
7.105427357601002e-14
 10
39.39370335159822
 20
1530.2679121137319
 30
0.0
 10
39.42493988669753
 20
1530.2275995648752
 30
0.0
  0
LINE
  5
10119
330
1F
100
AcDbEntity
  8
0
100
AcDbLine
 10
46.187476604482924
 20
1550.2596396376466
 30
0.0
 11
46.1874766044825
 21
1552.3775995648755
 31
0.0
  0
LINE
  5
1011A
330
1F
100
AcDbEntity
  8
0
100
AcDbLine
 10
46.187476604482356
 20
1552.3775995648755
 30
7.105427357601002e-14
 11
43.04941673127615
 21
1552.3775995648755
 31
7.105427357601002e-14
  0
LINE
  5
1011B
330
1F
100
AcDbEntity
  8
0
100
AcDbLine
 10
43.04941673127615
 20
1552.3775995648755
 30
7.105427357601002e-14
 11
43.04941673127615
 21
1550.3775995648753
 31
7.105427357601002e-14
  0
LINE
  5
1011C
330
1F
100
AcDbEntity
  8
0
100
AcDbLine
 10
43.04941673127615
 20
1550.3775995648753
 30
7.105427357601002e-14
 11
33.19941673127602
 21
1550.3775995648753
 31
7.105427357601002e-14
  0
LINE
  5
1011D
330
1F
100
AcDbEntity
  8
0
100
AcDbLine
 10
33.19941673127602
 20
1550.3775995648753
 30
0.0
 11
33.19941673127602
 21
1552.3775995648755
 31
2.1335893063677407e-29
  0
LINE
  5
1011E
330
1F
100
AcDbEntity
  8
0
100
AcDbLine
 10
33.19941673127602
 20
1552.3775995648755
 30
7.105427357601002e-14
 11
30.14435444460176
 21
1552.3775995648755
 31
7.105427357601002e-14
  0
SPLINE
  5
1011F
330
1F
100
AcDbEntity
  8
0
100
AcDbSpline
 70
0
 71
3
 72
17
 73
13
 74
0
 42
1e-09
 40
0.0007636386522487546
 40
0.0007636386522487546
 40
0.0007636386522487546
 40
0.0007636386522487546
 40
0.5
 40
0.5
 40
0.5
 40
0.972431293156988
 40
0.972431293156988
 40
0.972431293156988
 40
1.0
 40
1.0
 40
1.0
 40
1.0023121956678924
 40
1.0023121956678924
 40
1.0023121956678924
 40
1.0023121956678924
 10
30.14435444460176
 20
1552.3775995648753
 30
0.0
 10
25.328560589520492
 20
1557.3899435589808
 30
0.0
 10
22.315764720576112
 20
1562.958413805848
 30
7.105427357601002e-14
 10
21.702539480591412
 20
1569.2790796177437
 30
7.105427357601002e-14
 10
21.122239615530702
 20
1575.2603753612384
 30
0.0
 10
22.645706841767606
 20
1581.9087698347182
 30
0.0
 10
25.642171578107877
 20
1589.0220091195006
 30
7.105427357601002e-14
 10
25.81703014289417
 20
1589.4371018777215
 30
7.105427357601002e-14
 10
25.99712040997602
 20
1589.8538423074478
 30
7.105427357601002e-14
 10
26.18243266752927
 20
1590.2722262760267
 30
7.105427357601002e-14
 10
26.197990116753118
 20
1590.307350705643
 30
1.4210854715202004e-13
 10
26.21354756597796
 20
1590.3424751352593
 30
7.105427357601002e-14
 10
26.229105015202236
 20
1590.3775995648755
 30
7.105427357601002e-14
  0
LINE
  5
10120
330
1F
100
AcDbEntity
  8
0
100
AcDbLine
 10
26.229105015202236
 20
1590.3775995648755
 30
1.4210854715202004e-13
 11
20.384086959757752
 21
1590.3775995648753
 31
1.4183099139586375e-13
  0
LINE
  5
10121
330
1F
100
AcDbEntity
  8
0
100
AcDbLine
 10
20.384086959757894
 20
1590.3775995648753
 30
7.105427357601002e-14
 11
20.384086959757894
 21
1592.3775995648753
 31
7.105427357601002e-14
  0
LINE
  5
10122
330
1F
100
AcDbEntity
  8
0
100
AcDbLine
 10
20.384086959757894
 20
1592.3775995648753
 30
7.105427357601002e-14
 11
16.234086959758116
 21
1592.3775995648753
 31
7.105427357601002e-14
  0
LINE
  5
10123
330
1F
100
AcDbEntity
  8
0
100
AcDbLine
 10
16.234086959758116
 20
1592.3775995648753
 30
0.0
 11
16.234086959758116
 21
1590.3775995648753
 31
0.0
  0
LINE
  5
10124
330
1F
100
AcDbEntity
  8
0
100
AcDbLine
 10
16.234086959758116
 20
1590.3775995648753
 30
0.0
 11
10.0
 21
1590.3775995648757
 31
0.0
  0
SPLINE
  5
10125
330
1F
100
AcDbEntity
  8
0
100
AcDbSpline
 70
0
 71
3
 72
20
 73
16
 74
0
 42
1e-09
 40
-0.0010295238128052624
 40
-0.0010295238128052624
 40
-0.0010295238128052624
 40
-0.0010295238128052624
 40
0.0
 40
0.0
 40
0.0
 40
0.3351748056607626
 40
0.3351748056607626
 40
0.3351748056607626
 40
0.6741446450929127
 40
0.6741446450929127
 40
0.6741446450929127
 40
1.0
 40
1.0
 40
1.0
 40
1.0044701991540925
 40
1.0044701991540925
 40
1.0044701991540925
 40
1.0044701991540925
 10
10.00000000000071
 20
1590.3775995648753
 30
0.0
 10
10.006559906125574
 20
1590.347308212289
 30
0.0
 10
10.013119812250864
 20
1590.3170168597026
 30
7.105427357601002e-14
 10
10.019679718376437
 20
1590.286725507116
 30
0.0
 10
12.155014433967608
 20
1580.426496484925
 30
7.105427357601002e-14
 10
13.816977800396586
 20
1571.3475832443203
 30
0.0
 10
14.86042561735374
 20
1563.2906938862072
 30
7.105427357601002e-14
 10
15.915687925248392
 20
1555.1425799888689
 30
0.0
 10
16.299793979140418
 20
1548.103059389232
 30
0.0
 10
15.788264334047852
 20
1542.5483245786027
 30
7.105427357601002e-14
 10
15.296525380734494
 20
1537.208498220704
 30
7.105427357601002e-14
 10
14.004709451257327
 20
1533.1954022349091
 30
7.105427357601002e-14
 10
12.017546162619368
 20
1530.345496587403
 30
7.105427357601002e-14
 10
11.990144011579531
 20
1530.3061975798937
 30
0.0
 10
11.962741860539694
 20
1530.2668985723844
 30
0.0
 10
11.935339709499857
 20
1530.2275995648752
 30
7.105427357601002e-14
  0
LINE
  5
10126
330
1F
100
AcDbEntity
  8
0
100
AcDbLine
 10
11.935339709499857
 20
1530.2275995648752
 30
7.105427357601002e-14
 11
18.69908368039603
 21
1530.2275995648756
 31
7.049916206369744e-14
  0
LINE
  5
10127
330
1F
100
AcDbEntity
  8
0
100
AcDbLine
 10
18.69908368039617
 20
1530.2275995648756
 30
7.105427357601002e-14
 11
18.69908368039617
 21
1528.2275995648756
 31
7.105427357601002e-14
  0
LINE
  5
10128
330
1F
100
AcDbEntity
  8
0
100
AcDbLine
 10
18.69908368039617
 20
1528.2275995648756
 30
7.105427357601002e-14
 11
22.84908368039595
 21
1528.2275995648756
 31
7.105427357601002e-14
  0
LINE
  5
10129
330
1F
100
AcDbEntity
  8
0
100
AcDbLine
 10
22.849083680395808
 20
1528.2275995648756
 30
7.105427357601002e-14
 11
22.84908368039595
 21
1530.2275995648756
 31
7.105427357601002e-14
  0
LINE
  5
1012A
330
1F
100
AcDbEntity
  8
0
100
AcDbLine
 10
22.849083680396234
 20
1530.2275995648756
 30
0.0
 11
30.419623084769114
 21
1530.2275995648756
 31
0.0
  0
LINE
  5
1012B
330
1F
100
AcDbEntity
  8
0
100
AcDbLine
 10
30.41962308476883
 20
1530.2275995648756
 30
0.0
 11
30.419623084768688
 21
1528.2275995648756
 31
-1.5777218104420236e-29
  0
SPLINE
  5
1012C
330
1F
100
AcDbEntity
  8
0
100
AcDbSpline
 70
0
 71
3
 72
29
 73
25
 74
0
 42
1e-09
 40
-0.000105818816196993
 40
-0.000105818816196993
 40
-0.000105818816196993
 40
-0.000105818816196993
 40
0.0
 40
0.0
 40
0.0
 40
0.15384783247907385
 40
0.15384783247907385
 40
0.15384783247907385
 40
0.36538587435930536
 40
0.36538587435930536
 40
0.36538587435930536
 40
0.5217339833209349
 40
0.5217339833209349
 40
0.5217339833209349
 40
0.7247607928568023
 40
0.7247607928568023
 40
0.7247607928568023
 40
0.9163921689290195
 40
0.9163921689290195
 40
0.9163921689290195
 40
1.0
 40
1.0
 40
1.0
 40
1.0007840262554808
 40
1.0007840262554808
 40
1.0007840262554808
 40
1.0007840262554808
 10
12.080332728009395
 20
1720.5212195261022
 30
0.0
 10
12.082092420846013
 20
1720.520968015534
 30
0.0
 10
12.083852113683164
 20
1720.5207165049658
 30
0.0
 10
12.085611806520244
 20
1720.5204649943976
 30
0.0
 10
14.655122936054255
 20
1720.153208169368
 30
0.0
 10
16.984483780291846
 20
1719.1805711452807
 30
0.0
 10
19.16377395222107
 20
1717.9199507190203
 30
0.0
 10
22.16025929900973
 20
1716.1866199841745
 30
0.0
 10
24.887592506000704
 20
1713.995179956314
 30
0.0
 10
27.87220118597519
 20
1712.7285040700385
 30
0.0
 10
30.07813028958615
 20
1711.7923018733738
 30
0.0
 10
32.43235732792351
 20
1711.3761773578774
 30
0.0
 10
35.11784554382071
 20
1711.5676811808653
 30
0.0
 10
38.605102973033254
 20
1711.816359661554
 30
0.0
 10
42.649731633029894
 20
1713.0738857834262
 30
0.0
 10
47.50043193923005
 20
1714.6383947269399
 30
0.0
 10
52.07887345991426
 20
1716.1150913386246
 30
0.0
 10
57.37558903254357
 20
1717.8107095503726
 30
0.0
 10
63.52645000594902
 20
1719.0898892543678
 30
0.0
 10
66.21004053139495
 20
1719.647989095809
 30
0.0
 10
69.05518193629891
 20
1720.1307575307064
 30
0.0
 10
72.06536739990256
 20
1720.5205983740052
 30
0.0
 10
72.09357826660168
 20
1720.5242518857895
 30
0.0
 10
72.12178913330081
 20
1720.5279053975737
 30
0.0
 10
72.14999999999993
 20
1720.531558909358
 30
0.0
  0
LINE
  5
1012D
330
1F
100
AcDbEntity
  8
0
100
AcDbLine
 10
12.080332728009395
 20
1720.5212195261022
 30
0.0
 11
10.0
 21
1720.5212195261022
 31
0.0
  0
LINE
  5
1012E
330
1F
100
AcDbEntity
  8
0
100
AcDbLine
 10
10.0
 20
1720.5212195261022
 30
0.0
 11
10.0
 21
1711.8360333426867
 31
0.0
  0
LINE
  5
1012F
330
1F
100
AcDbEntity
  8
0
100
AcDbLine
 10
10.0
 20
1711.8360333426867
 30
0.0
 11
11.999999999999993
 21
1711.8360333426867
 31
0.0
  0
LINE
  5
10130
330
1F
100
AcDbEntity
  8
0
100
AcDbLine
 10
11.999999999999993
 20
1711.8360333426867
 30
0.0
 11
11.999999999999993
 21
1701.9860333426868
 31
0.0
  0
LINE
  5
10131
330
1F
100
AcDbEntity
  8
0
100
AcDbLine
 10
11.999999999999993
 20
1701.9860333426868
 30
0.0
 11
10.0
 21
1701.9860333426868
 31
0.0
  0
LINE
  5
10132
330
1F
100
AcDbEntity
  8
0
100
AcDbLine
 10
10.0
 20
1701.9860333426868
 30
0.0
 11
10.0
 21
1692.3775995648762
 31
0.0
  0
LINE
  5
10133
330
1F
100
AcDbEntity
  8
0
100
AcDbLine
 10
10.0
 20
1692.3775995648762
 30
0.0
 11
12.092208429728409
 21
1692.3775995648753
 31
0.0
  0
SPLINE
  5
10134
330
1F
100
AcDbEntity
  8
0
100
AcDbSpline
 70
0
 71
3
 72
20
 73
16
 74
0
 42
1e-09
 40
-0.0002100235231977702
 40
-0.0002100235231977702
 40
-0.0002100235231977702
 40
-0.0002100235231977702
 40
0.0
 40
0.0
 40
0.0
 40
0.36351500600408493
 40
0.36351500600408493
 40
0.36351500600408493
 40
0.6622638026719293
 40
0.6622638026719293
 40
0.6622638026719293
 40
1.0
 40
1.0
 40
1.0
 40
1.0025190893886393
 40
1.0025190893886393
 40
1.0025190893886393
 40
1.0025190893886393
 10
12.092208429728409
 20
1692.3775995648753
 30
0.0
 10
12.097370816141655
 20
1692.3801001859656
 30
0.0
 10
12.102533202555009
 20
1692.382600807056
 30
0.0
 10
12.107695588968397
 20
1692.3851014281463
 30
0.0
 10
21.039445807686334
 20
1696.711573951193
 30
0.0
 10
29.495145112376832
 20
1699.9984787037997
 30
0.0
 10
37.3226296703485
 20
1701.9191704100188
 30
0.0
 10
43.755518420486894
 20
1703.4976591285736
 30
0.0
 10
49.7356236384354
 20
1704.0927765710944
 30
0.0
 10
55.20957230177984
 20
1703.5859289070388
 30
0.0
 10
61.397883774654204
 20
1703.0129364645852
 30
0.0
 10
66.97246583539783
 20
1701.1011030168445
 30
0.0
 10
72.03648214867309
 20
1698.0701105076257
 30
0.0
 10
72.07432143244874
 20
1698.0474623606642
 30
0.0
 10
72.1121607162244
 20
1698.0248142137027
 30
0.0
 10
72.15000000000005
 20
1698.0021660667414
 30
0.0
  0
LINE
  5
10135
330
1F
100
AcDbEntity
  8
0
100
AcDbLine
 10
72.15000000000005
 20
1698.0021660667414
 30
0.0
 11
72.15
 21
1706.78632853149
 31
0.0
  0
LINE
  5
10136
330
1F
100
AcDbEntity
  8
0
100
AcDbLine
 10
72.15
 20
1706.78632853149
 30
0.0
 11
74.15
 21
1706.78632853149
 31
0.0
  0
LINE
  5
10137
330
1F
100
AcDbEntity
  8
0
100
AcDbLine
 10
74.15
 20
1706.78632853149
 30
0.0
 11
74.15
 21
1713.9363285314898
 31
0.0
  0
LINE
  5
10138
330
1F
100
AcDbEntity
  8
0
100
AcDbLine
 10
74.15
 20
1713.9363285314898
 30
0.0
 11
72.15
 21
1713.9363285314898
 31
0.0
  0
LINE
  5
10139
330
1F
100
AcDbEntity
  8
0
100
AcDbLine
 10
72.15
 20
1713.9363285314898
 30
0.0
 11
72.15
 21
1720.531558909358
 31
0.0
  0
LINE
  5
1013A
330
1F
100
AcDbEntity
  8
0
100
AcDbLine
 10
15.148478678742691
 20
1866.0713800980818
 30
0.0
 11
11.999999999999996
 21
1866.071380098082
 31
0.0
  0
LINE
  5
1013B
330
1F
100
AcDbEntity
  8
0
100
AcDbLine
 10
11.999999999999996
 20
1866.071380098082
 30
0.0
 11
11.999999999999996
 21
1863.4543272387828
 31
0.0
  0
LINE
  5
1013C
330
1F
100
AcDbEntity
  8
0
100
AcDbLine
 10
11.999999999999996
 20
1863.4543272387828
 30
0.0
 11
10.0
 21
1863.4543272387828
 31
0.0
  0
LINE
  5
1013D
330
1F
100
AcDbEntity
  8
0
100
AcDbLine
 10
10.0
 20
1863.4543272387828
 30
0.0
 11
10.0
 21
1855.2543272387827
 31
0.0
  0
LINE
  5
1013E
330
1F
100
AcDbEntity
  8
0
100
AcDbLine
 10
10.0
 20
1855.2543272387827
 30
0.0
 11
11.999999999999996
 21
1855.2543272387827
 31
0.0
  0
LINE
  5
1013F
330
1F
100
AcDbEntity
  8
0
100
AcDbLine
 10
11.999999999999996
 20
1855.2543272387827
 30
0.0
 11
11.999999999999996
 21
1832.1413199063231
 31
0.0
  0
LINE
  5
10140
330
1F
100
AcDbEntity
  8
0
100
AcDbLine
 10
11.999999999999996
 20
1832.1413199063231
 30
0.0
 11
10.0
 21
1832.1413199063231
 31
0.0
  0
LINE
  5
10141
330
1F
100
AcDbEntity
  8
0
100
AcDbLine
 10
10.0
 20
1832.1413199063231
 30
0.0
 11
10.0
 21
1823.941319906323
 31
0.0
  0
LINE
  5
10142
330
1F
100
AcDbEntity
  8
0
100
AcDbLine
 10
10.0
 20
1823.941319906323
 30
0.0
 11
11.999999999999996
 21
1823.941319906323
 31
0.0
  0
LINE
  5
10143
330
1F
100
AcDbEntity
  8
0
100
AcDbLine
 10
11.999999999999996
 20
1823.941319906323
 30
0.0
 11
11.999999999999996
 21
1820.531558909358
 31
0.0
  0
LINE
  5
10144
330
1F
100
AcDbEntity
  8
0
100
AcDbLine
 10
11.999999999999996
 20
1820.531558909358
 30
0.0
 11
13.599999999999998
 21
1820.531558909358
 31
0.0
  0
ARC
  5
10145
330
1F
100
AcDbEntity
  8
0
100
AcDbCircle
 10
13.599999999999987
 20
1822.131558909358
 30
0.0
 40
1.600000000000037
100
AcDbArc
 50
-89.9999999999996
 51
-1.4033418597069752e-14
  0
LINE
  5
10146
330
1F
100
AcDbEntity
  8
0
100
AcDbLine
 10
15.20000000000001
 20
1822.131558909358
 30
0.0
 11
15.199999999999989
 21
1832.9639992643795
 31
0.0
  0
SPLINE
  5
10147
330
1F
100
AcDbEntity
  8
0
100
AcDbSpline
 70
0
 71
3
 72
26
 73
22
 74
0
 42
1e-09
 40
0.0
 40
0.0
 40
0.0
 40
0.0
 40
0.144065756174505
 40
0.144065756174505
 40
0.144065756174505
 40
0.31962978428967015
 40
0.31962978428967015
 40
0.31962978428967015
 40
0.49197769718559253
 40
0.49197769718559253
 40
0.49197769718559253
 40
0.6862205288893748
 40
0.6862205288893748
 40
0.6862205288893748
 40
0.8723902085957566
 40
0.8723902085957566
 40
0.8723902085957566
 40
1.0
 40
1.0
 40
1.0
 40
1.0111225675016007
 40
1.0111225675016007
 40
1.0111225675016007
 40
1.0111225675016007
 10
15.199999999999989
 20
1832.9639992643795
 30
0.0
 10
15.199999999999989
 20
1834.8601895207125
 30
0.0
 10
16.25526945505134
 20
1836.9755891510745
 30
0.0
 10
18.22589927527646
 20
1839.060271468333
 30
0.0
 10
20.62738397469049
 20
1841.6007448929474
 30
0.0
 10
24.37159808677134
 20
1844.029941308566
 30
0.0
 10
28.790792855037783
 20
1845.6820726494082
 30
0.0
 10
33.129033456875
 20
1847.3039389934481
 30
0.0
 10
38.10104634856911
 20
1848.1665581629077
 30
0.0
 10
42.99258369609399
 20
1848.2573680626576
 30
0.0
 10
48.50553740584859
 20
1848.359714367744
 30
0.0
 10
53.889051117799745
 20
1847.5197163094563
 30
0.0
 10
58.35288713924645
 20
1846.1530126489097
 30
0.0
 10
62.6311964857754
 20
1844.8431121470187
 30
0.0
 10
66.05779310930201
 20
1843.073948242814
 30
0.0
 10
68.45862829046828
 20
1841.0479381169162
 30
0.0
 10
70.10427798566994
 20
1839.6592118218693
 30
0.0
 10
71.28357852547623
 20
1838.1428389109797
 30
0.0
 10
72.00858644305052
 20
1836.5080549672973
 30
0.0
 10
72.0723909620337
 20
1836.364185361684
 30
0.0
 10
72.13619548101686
 20
1836.2203157560705
 30
0.0
 10
72.20000000000002
 20
1836.076446150457
 30
0.0
  0
LINE
  5
10148
330
1F
100
AcDbEntity
  8
0
100
AcDbLine
 10
72.20000000000002
 20
1836.076446150457
 30
0.0
 11
72.19999999999999
 21
1844.7006599024312
 31
0.0
  0
LINE
  5
10149
330
1F
100
AcDbEntity
  8
0
100
AcDbLine
 10
72.19999999999999
 20
1844.7006599024312
 30
0.0
 11
74.19999999999999
 21
1844.7006599024312
 31
0.0
  0
LINE
  5
1014A
330
1F
100
AcDbEntity
  8
0
100
AcDbLine
 10
74.19999999999999
 20
1844.7006599024312
 30
0.0
 11
74.19999999999999
 21
1851.9006599024312
 31
0.0
  0
LINE
  5
1014B
330
1F
100
AcDbEntity
  8
0
100
AcDbLine
 10
74.19999999999999
 20
1851.9006599024312
 30
0.0
 11
72.19999999999999
 21
1851.9006599024312
 31
0.0
  0
LINE
  5
1014C
330
1F
100
AcDbEntity
  8
0
100
AcDbLine
 10
72.19999999999999
 20
1851.9006599024312
 30
0.0
 11
72.2
 21
1862.4074141960632
 31
0.0
  0
SPLINE
  5
1014D
330
1F
100
AcDbEntity
  8
0
100
AcDbSpline
 70
0
 71
3
 72
26
 73
22
 74
0
 42
1e-09
 40
-0.002819853253833278
 40
-0.002819853253833278
 40
-0.002819853253833278
 40
-0.002819853253833278
 40
0.0
 40
0.0
 40
0.0
 40
0.20564338588864847
 40
0.20564338588864847
 40
0.20564338588864847
 40
0.3862382565611613
 40
0.3862382565611613
 40
0.3862382565611613
 40
0.6246556261745095
 40
0.6246556261745095
 40
0.6246556261745095
 40
0.7975778368281784
 40
0.7975778368281784
 40
0.7975778368281784
 40
1.0
 40
1.0
 40
1.0
 40
1.010492365446082
 40
1.010492365446082
 40
1.010492365446082
 40
1.010492365446082
 10
15.148478678742691
 20
1866.0713800980818
 30
0.0
 10
15.158488060150614
 20
1866.0586937412495
 30
0.0
 10
15.168497441558571
 20
1866.0460073844174
 30
0.0
 10
15.178506822966519
 20
1866.033321027585
 30
0.0
 10
15.871258418572495
 20
1865.1552953454984
 30
0.0
 10
18.020148228376037
 20
1864.1351142058365
 30
0.0
 10
21.563666240842764
 20
1863.0794625744477
 30
0.0
 10
24.67556392926958
 20
1862.1523952193656
 30
0.0
 10
28.888208357401687
 20
1861.1805987151763
 30
0.0
 10
33.65982361386026
 20
1860.3076841017605
 30
0.0
 10
39.9592049529612
 20
1859.1552814601316
 30
0.0
 10
47.159744620290496
 20
1858.1920724812899
 30
0.0
 10
53.37696549810622
 20
1857.893063870802
 30
0.0
 10
57.886266058118146
 20
1857.6761953179198
 30
0.0
 10
61.85372976300225
 20
1857.816402760387
 30
0.0
 10
64.91208377259993
 20
1858.392091227732
 30
0.0
 10
68.49218277797222
 20
1859.0659902279385
 30
0.0
 10
70.85442229280996
 20
1860.3226611089135
 30
0.0
 10
72.01598090652764
 20
1862.1223066387954
 30
0.0
 10
72.07732060435175
 20
1862.217342491218
 30
0.0
 10
72.13866030217588
 20
1862.3123783436406
 30
0.0
 10
72.19999999999999
 20
1862.4074141960632
 30
0.0
  0
LINE
  5
1014E
330
1F
100
AcDbEntity
  8
0
100
AcDbLine
 10
10.0
 20
1969.691647783876
 30
0.0
 11
10.0
 21
1966.0713800980818
 31
0.0
  0
LINE
  5
1014F
330
1F
100
AcDbEntity
  8
0
100
AcDbLine
 10
10.0
 20
1966.0713800980818
 30
0.0
 11
13.599999999999994
 21
1966.0713800980818
 31
0.0
  0
ARC
  5
10150
330
1F
100
AcDbEntity
  8
0
100
AcDbCircle
 10
13.599999999999987
 20
1967.6713800980817
 30
0.0
 40
1.6000000000000014
100
AcDbArc
 50
-89.99999999999976
 51
-1.4033418597069752e-14
  0
LINE
  5
10151
330
1F
100
AcDbEntity
  8
0
100
AcDbLine
 10
15.200000000000003
 20
1967.6713800980817
 30
0.0
 11
15.199999999999989
 21
1979.5143271419324
 31
0.0
  0
SPLINE
  5
10152
330
1F
100
AcDbEntity
  8
0
100
AcDbSpline
 70
0
 71
3
 72
26
 73
22
 74
0
 42
1e-09
 40
0.0
 40
0.0
 40
0.0
 40
0.0
 40
0.1440657561735668
 40
0.1440657561735668
 40
0.1440657561735668
 40
0.3196297842882457
 40
0.3196297842882457
 40
0.3196297842882457
 40
0.49197769718219464
 40
0.49197769718219464
 40
0.49197769718219464
 40
0.6862205288862309
 40
0.6862205288862309
 40
0.6862205288862309
 40
0.872390208590268
 40
0.872390208590268
 40
0.872390208590268
 40
1.0
 40
1.0
 40
1.0
 40
1.0111225675016007
 40
1.0111225675016007
 40
1.0111225675016007
 40
1.0111225675016007
 10
15.199999999999989
 20
1979.5143271419324
 30
0.0
 10
15.199999999999989
 20
1981.4105173982532
 30
0.0
 10
16.255269455037205
 20
1983.5259170286
 30
0.0
 10
18.225899275237953
 20
1985.6105993458452
 30
0.0
 10
20.627383974631268
 20
1988.1510727704535
 30
0.0
 10
24.371598086686657
 20
1990.5802691860713
 30
0.0
 10
28.79079285493022
 20
1992.232400526921
 30
0.0
 10
33.129033456707326
 20
1993.8542668709542
 30
0.0
 10
38.10104634833287
 20
1994.7168860404274
 30
0.0
 10
42.99258369580467
 20
1994.8076959402053
 30
0.0
 10
48.50553740556979
 20
1994.910042245324
 30
0.0
 10
53.889051117548746
 20
1994.0700441870604
 30
0.0
 10
58.35288713902969
 20
1992.703340526529
 30
0.0
 10
62.631196485532
 20
1991.393440024671
 30
0.0
 10
66.05779310906149
 20
1989.6242761205044
 30
0.0
 10
68.45862829025594
 20
1987.5982659946483
 30
0.0
 10
70.10427798556842
 20
1986.209539699553
 30
0.0
 10
71.28357852544505
 20
1984.693166788603
 30
0.0
 10
72.00858644305052
 20
1983.0583828448505
 30
0.0
 10
72.07239096203368
 20
1982.9145132392368
 30
0.0
 10
72.13619548101684
 20
1982.7706436336234
 30
0.0
 10
72.20000000000002
 20
1982.62677402801
 30
0.0
  0
LINE
  5
10153
330
1F
100
AcDbEntity
  8
0
100
AcDbLine
 10
72.20000000000002
 20
1982.62677402801
 30
0.0
 11
72.19999999999999
 21
2008.9577420736161
 31
0.0
  0
SPLINE
  5
10154
330
1F
100
AcDbEntity
  8
0
100
AcDbSpline
 70
0
 71
3
 72
23
 73
19
 74
0
 42
1e-09
 40
0.0020832606945042414
 40
0.0020832606945042414
 40
0.0020832606945042414
 40
0.0020832606945042414
 40
0.2056433858885506
 40
0.2056433858885506
 40
0.2056433858885506
 40
0.38623825656063626
 40
0.38623825656063626
 40
0.38623825656063626
 40
0.6246556261740057
 40
0.6246556261740057
 40
0.6246556261740057
 40
0.7975778368275268
 40
0.7975778368275268
 40
0.7975778368275268
 40
1.0
 40
1.0
 40
1.0
 40
1.0104923654460813
 40
1.0104923654460813
 40
1.0104923654460813
 40
1.0104923654460813
 10
15.199999999999978
 20
2012.5569091214186
 30
0.0
 10
15.914228702513427
 20
2011.6843624955702
 30
0.0
 10
18.056045671725762
 20
2010.674747853954
 30
0.0
 10
21.563666240837705
 20
2009.6297904520022
 30
0.0
 10
24.67556392925614
 20
2008.7027230969227
 30
0.0
 10
28.888208357374346
 20
2007.7309265927356
 30
0.0
 10
33.659823613818645
 20
2006.8580119793212
 30
0.0
 10
39.9592049529162
 20
2005.7056093376912
 30
0.0
 10
47.15974462024641
 20
2004.7424003588467
 30
0.0
 10
53.3769654980668
 20
2004.4433917483568
 30
0.0
 10
57.88626605807785
 20
2004.2265231954732
 30
0.0
 10
61.85372976296379
 20
2004.3667306379373
 30
0.0
 10
64.91208377256535
 20
2004.9424191052785
 30
0.0
 10
68.49218277795677
 20
2005.6163181054835
 30
0.0
 10
70.85442229280622
 20
2006.8729889864608
 30
0.0
 10
72.01598090652763
 20
2008.6726345163484
 30
0.0
 10
72.07732060435175
 20
2008.767670368771
 30
0.0
 10
72.13866030217586
 20
2008.8627062211935
 30
0.0
 10
72.19999999999997
 20
2008.9577420736161
 30
0.0
  0
LINE
  5
10155
330
1F
100
AcDbEntity
  8
0
100
AcDbLine
 10
15.199999999999978
 20
2012.5569091214186
 30
0.0
 11
15.199999999999989
 21
2013.981693461372
 31
0.0
  0
ARC
  5
10156
330
1F
100
AcDbEntity
  8
0
100
AcDbCircle
 10
13.599999999999987
 20
2013.981693461372
 30
0.0
 40
1.6000000000000014
100
AcDbArc
 50
0.0
 51
89.99999999999974
  0
LINE
  5
10157
330
1F
100
AcDbEntity
  8
0
100
AcDbLine
 10
13.599999999999994
 20
2015.581693461372
 30
0.0
 11
10.0
 21
2015.581693461372
 31
0.0
  0
LINE
  5
10158
330
1F
100
AcDbEntity
  8
0
100
AcDbLine
 10
10.0
 20
2015.581693461372
 30
0.0
 11
10.0
 21
2010.8046551163359
 31
0.0
  0
LINE
  5
10159
330
1F
100
AcDbEntity
  8
0
100
AcDbLine
 10
10.0
 20
2010.8046551163359
 30
0.0
 11
12.00000000000001
 21
2010.8046551163359
 31
0.0
  0
LINE
  5
1015A
330
1F
100
AcDbEntity
  8
0
100
AcDbLine
 10
12.00000000000001
 20
2010.8046551163359
 30
0.0
 11
12.00000000000001
 21
2001.0046551163357
 31
0.0
  0
LINE
  5
1015B
330
1F
100
AcDbEntity
  8
0
100
AcDbLine
 10
12.00000000000001
 20
2001.0046551163357
 30
0.0
 11
10.0
 21
2001.0046551163357
 31
0.0
  0
LINE
  5
1015C
330
1F
100
AcDbEntity
  8
0
100
AcDbLine
 10
10.0
 20
2001.0046551163357
 30
0.0
 11
10.0
 21
1979.491647783876
 31
0.0
  0
LINE
  5
1015D
330
1F
100
AcDbEntity
  8
0
100
AcDbLine
 10
10.0
 20
1979.491647783876
 30
0.0
 11
12.00000000000001
 21
1979.491647783876
 31
0.0
  0
LINE
  5
1015E
330
1F
100
AcDbEntity
  8
0
100
AcDbLine
 10
12.00000000000001
 20
1979.491647783876
 30
0.0
 11
12.00000000000001
 21
1969.691647783876
 31
0.0
  0
LINE
  5
1015F
330
1F
100
AcDbEntity
  8
0
100
AcDbLine
 10
12.00000000000001
 20
1969.691647783876
 30
0.0
 11
10.0
 21
1969.691647783876
 31
0.0
  0
LINE
  5
10160
330
1F
100
AcDbEntity
  8
0
100
AcDbLine
 10
12.76923112947788
 20
2115.581693461372
 30
0.0
 11
19.969231129477834
 21
2115.581693461372
 31
-3.3531070396352522e-43
  0
LINE
  5
10161
330
1F
100
AcDbEntity
  8
0
100
AcDbLine
 10
19.969231129477762
 20
2115.581693461372
 30
1.7763568394002505e-14
 11
19.969231129477798
 21
2117.581693461372
 31
1.7763568394002505e-14
  0
LINE
  5
10162
330
1F
100
AcDbEntity
  8
0
100
AcDbLine
 10
19.969231129477834
 20
2117.581693461372
 30
1.7763568394002505e-14
 11
24.430958224143957
 21
2117.581693461372
 31
1.8041124150161476e-14
  0
SPLINE
  5
10163
330
1F
100
AcDbEntity
  8
0
100
AcDbSpline
 70
0
 71
3
 72
23
 73
19
 74
0
 42
1e-09
 40
-0.001830687917859222
 40
-0.001830687917859222
 40
-0.001830687917859222
 40
-0.001830687917859222
 40
0.0
 40
0.0
 40
0.0
 40
0.20319994322204604
 40
0.20319994322204604
 40
0.20319994322204604
 40
0.4286432905086629
 40
0.4286432905086629
 40
0.4286432905086629
 40
0.6661831421816762
 40
0.6661831421816762
 40
0.6661831421816762
 40
1.0
 40
1.0
 40
1.0
 40
1.000884549115035
 40
1.000884549115035
 40
1.000884549115035
 40
1.000884549115035
 10
26.3716243190904
 20
2177.7816934613716
 30
-1.7763568394002505e-14
 10
26.370835648954802
 20
2177.7475894854056
 30
0.0
 10
26.370046978819275
 20
2177.7134855094396
 30
-1.7763568394002505e-14
 10
26.36925830868364
 20
2177.6793815334736
 30
-1.7763568394002505e-14
 10
26.28186323706352
 20
2173.900210385018
 30
-3.552713678800501e-14
 10
26.592339425808547
 20
2170.5935025984154
 30
0.0
 10
27.074287949482816
 20
2167.4569129814267
 30
0.0
 10
27.608993258323622
 20
2163.9769746945067
 30
-1.7763568394002505e-14
 10
28.316000200776905
 20
2160.6531876856525
 30
0.0
 10
28.719381141005655
 20
2156.872449393583
 30
-1.7763568394002505e-14
 10
29.1444060967779
 20
2152.8888498599454
 30
-1.7763568394002505e-14
 10
29.220221812447598
 20
2148.385267261731
 30
-1.7763568394002505e-14
 10
28.80950518387298
 20
2143.2002059855613
 30
-1.7763568394002505e-14
 10
28.232321467377233
 20
2135.9135934419573
 30
-1.7763568394002505e-14
 10
26.7414828063324
 20
2127.344558809276
 30
0.0
 10
24.449174231401685
 20
2117.658663179593
 30
0.0
 10
24.443102228982383
 20
2117.6330066068526
 30
-1.7763568394002505e-14
 10
24.437030226563152
 20
2117.6073500341126
 30
-1.7763568394002505e-14
 10
24.43095822414385
 20
2117.581693461372
 30
0.0
  0
LINE
  5
10164
330
1F
100
AcDbEntity
  8
0
100
AcDbLine
 10
26.3716243190904
 20
2177.7816934613716
 30
-1.7763568394002505e-14
 11
21.580103124230412
 21
2177.781693461372
 31
-1.776356839398168e-14
  0
LINE
  5
10165
330
1F
100
AcDbEntity
  8
0
100
AcDbLine
 10
21.580103124230376
 20
2177.781693461372
 30
0.0
 11
21.580103124230376
 21
2179.781693461372
 31
0.0
  0
LINE
  5
10166
330
1F
100
AcDbEntity
  8
0
100
AcDbLine
 10
21.580103124230412
 20
2179.781693461372
 30
0.0
 11
13.38010312423041
 21
2179.781693461372
 31
3.765989622872652e-43
  0
LINE
  5
10167
330
1F
100
AcDbEntity
  8
0
100
AcDbLine
 10
13.380103124230374
 20
2179.781693461372
 30
-3.552713678800501e-14
 11
13.380103124230374
 21
2177.781693461372
 31
-3.552713678800501e-14
  0
LINE
  5
10168
330
1F
100
AcDbEntity
  8
0
100
AcDbLine
 10
13.380103124230445
 20
2177.781693461372
 30
-1.7763568394002505e-14
 11
10.024511738497957
 21
2177.781693461372
 31
-1.8041124150158794e-14
  0
SPLINE
  5
10169
330
1F
100
AcDbEntity
  8
0
100
AcDbSpline
 70
0
 71
3
 72
26
 73
22
 74
0
 42
1e-09
 40
-0.00135302632062668
 40
-0.00135302632062668
 40
-0.00135302632062668
 40
-0.00135302632062668
 40
0.0
 40
0.0
 40
0.0
 40
0.1677823707638182
 40
0.1677823707638182
 40
0.1677823707638182
 40
0.37583677807286364
 40
0.37583677807286364
 40
0.37583677807286364
 40
0.5501210385981659
 40
0.5501210385981659
 40
0.5501210385981659
 40
0.7809858863128397
 40
0.7809858863128397
 40
0.7809858863128397
 40
1.0
 40
1.0
 40
1.0
 40
1.0014089568259377
 40
1.0014089568259377
 40
1.0014089568259377
 40
1.0014089568259377
 10
10.024511738497885
 20
2177.7816934613725
 30
-1.7763568394002505e-14
 10
10.025411239551332
 20
2177.7474839674874
 30
1.7763568394002505e-14
 10
10.026310740604742
 20
2177.7132744736027
 30
-1.7763568394002505e-14
 10
10.027210241658153
 20
2177.6790649797176
 30
-1.7763568394002505e-14
 10
10.13893373068889
 20
2173.430038255102
 30
-1.7763568394002505e-14
 10
10.70199834094197
 20
2169.9602481754814
 30
-1.7763568394002505e-14
 10
11.503914453109232
 20
2167.0225089360615
 30
1.7763568394002505e-14
 10
12.498310829015722
 20
2163.3796375574807
 30
-3.552713678800501e-14
 10
13.81934013238876
 20
2160.5177349588903
 30
-1.7763568394002505e-14
 10
14.743695728963147
 20
2157.5367566802415
 30
1.7763568394002505e-14
 10
15.518015454726495
 20
2155.0396329631526
 30
0.0
 10
15.994474664455183
 20
2152.433655074661
 30
0.0
 10
16.021542847203918
 20
2149.406191030778
 30
-3.552713678800501e-14
 10
16.057398591545606
 20
2145.3958746468074
 30
0.0
 10
15.321272219269417
 20
2140.6566848289053
 30
-1.7763568394002505e-14
 10
14.150502667530809
 20
2135.166998418569
 30
-1.7763568394002505e-14
 10
13.039830955296665
 20
2129.959108107498
 30
-1.7763568394002505e-14
 10
11.584305261280292
 20
2124.1089474311793
 30
1.7763568394002505e-14
 10
10.029997299890496
 20
2117.705280752016
 30
0.0
 10
10.019998199926974
 20
2117.664084988468
 30
1.7763568394002505e-14
 10
10.009999099963451
 20
2117.62288922492
 30
-1.7763568394002505e-14
 10
9.999999999999929
 20
2117.581693461372
 30
0.0
  0
LINE
  5
1016A
330
1F
100
AcDbEntity
  8
0
100
AcDbLine
 10
10.0
 20
2117.581693461372
 30
0.0
 11
12.769231129477916
 21
2117.581693461372
 31
-2.445468806185135e-27
  0
LINE
  5
1016B
330
1F
100
AcDbEntity
  8
0
100
AcDbLine
 10
12.76923112947788
 20
2117.581693461372
 30
-1.7763568394002505e-14
 11
12.769231129477845
 21
2115.581693461372
 31
-1.7763568394002498e-14
  0
SPLINE
  5
1016C
330
1F
100
AcDbEntity
  8
0
100
AcDbSpline
 70
0
 71
3
 72
20
 73
16
 74
0
 42
1e-09
 40
0.14278735625928135
 40
0.14278735625928135
 40
0.14278735625928135
 40
0.14278735625928135
 40
0.35708002566893715
 40
0.35708002566893715
 40
0.35708002566893715
 40
0.539639086982273
 40
0.539639086982273
 40
0.539639086982273
 40
0.7628583982933415
 40
0.7628583982933415
 40
0.7628583982933415
 40
1.0
 40
1.0
 40
1.0
 40
1.0014089568259377
 40
1.0014089568259377
 40
1.0014089568259377
 40
1.0014089568259377
 10
12.197110841613785
 20
2332.5701349106316
 30
-1.7763568394002505e-14
 10
13.130760484004433
 20
2328.615984751567
 30
0.0
 10
14.503423741487111
 20
2325.5970157788292
 30
0.0
 10
15.521158730666826
 20
2322.5408236363373
 30
-1.7763568394002505e-14
 10
16.388182062833252
 20
2319.9372088217774
 30
-1.7763568394002505e-14
 10
16.967244762560796
 20
2317.2706334126165
 30
0.0
 10
17.04841572533926
 20
2314.148214469992
 30
0.0
 10
17.14766539434791
 20
2310.3303584787145
 30
0.0
 10
16.52168926821087
 20
2305.8445330576856
 30
1.7763568394002505e-14
 10
15.454770312349346
 20
2300.6467633828006
 30
1.7763568394002505e-14
 10
14.321307133925565
 20
2295.1248064393585
 30
1.7763568394002505e-14
 10
12.749256841207846
 20
2288.8389698532646
 30
-1.7763568394002505e-14
 10
11.066301011083262
 20
2281.9052807520156
 30
-1.7763568394002505e-14
 10
11.056301911119668
 20
2281.8640849884678
 30
0.0
 10
11.046302811156146
 20
2281.82288922492
 30
0.0
 10
11.036303711192623
 20
2281.781693461372
 30
1.7763568394002505e-14
  0
LINE
  5
1016D
330
1F
100
AcDbEntity
  8
0
100
AcDbLine
 10
11.036303711192659
 20
2281.781693461372
 30
0.0
 11
13.805534840670575
 21
2281.781693461372
 31
0.0
  0
LINE
  5
1016E
330
1F
100
AcDbEntity
  8
0
100
AcDbLine
 10
13.805534840670575
 20
2281.781693461372
 30
0.0
 11
13.80553484067054
 21
2279.781693461372
 31
0.0
  0
LINE
  5
1016F
330
1F
100
AcDbEntity
  8
0
100
AcDbLine
 10
13.80553484067054
 20
2279.781693461372
 30
1.7763568394002505e-14
 11
21.005534840670492
 21
2279.781693461372
 31
1.7763568394002505e-14
  0
LINE
  5
10170
330
1F
100
AcDbEntity
  8
0
100
AcDbLine
 10
21.005534840670528
 20
2279.781693461372
 30
0.0
 11
21.005534840670492
 21
2281.781693461372
 31
5.9164567891575885e-30
  0
LINE
  5
10171
330
1F
100
AcDbEntity
  8
0
100
AcDbLine
 10
21.005534840670457
 20
2281.781693461372
 30
-1.7763568394002505e-14
 11
25.467261935336545
 21
2281.781693461372
 31
-1.7486012637846216e-14
  0
SPLINE
  5
10172
330
1F
100
AcDbEntity
  8
0
100
AcDbSpline
 70
0
 71
3
 72
20
 73
16
 74
0
 42
1e-09
 40
0.16897082260539417
 40
0.16897082260539417
 40
0.16897082260539417
 40
0.16897082260539417
 40
0.16902738314562915
 40
0.16902738314562915
 40
0.16902738314562915
 40
0.4024127590339259
 40
0.4024127590339259
 40
0.4024127590339259
 40
0.6321436401692212
 40
0.6321436401692212
 40
0.6321436401692212
 40
1.0
 40
1.0
 40
1.0
 40
1.000884549115036
 40
1.000884549115036
 40
1.000884549115036
 40
1.000884549115036
 10
27.881148527434192
 20
2333.2558669976206
 30
0.0
 10
27.881266434641887
 20
2333.2549761747346
 30
-1.7763568394002505e-14
 10
27.881384341849618
 20
2333.254085351849
 30
-1.7763568394002505e-14
 10
27.881502249057277
 20
2333.2531945289634
 30
0.0
 10
28.367304945354412
 20
2329.582815353328
 30
1.7763568394002505e-14
 10
29.122831179531268
 20
2326.1921255680204
 30
0.0
 10
29.603910445956352
 20
2322.375400896167
 30
-1.7763568394002505e-14
 10
30.07745667116911
 20
2318.618440895659
 30
0.0
 10
30.26405483469965
 20
2314.4245664705436
 30
1.7763568394002505e-14
 10
29.994081678521418
 20
2309.589389461157
 30
0.0
 10
29.561787413192384
 20
2301.847066770274
 30
0.0
 10
28.01153457584551
 20
2292.5322353033084
 30
-1.7763568394002505e-14
 10
25.485477942594237
 20
2281.858663179593
 30
0.0
 10
25.479405940175006
 20
2281.8330066068525
 30
1.7763568394002505e-14
 10
25.473333937755775
 20
2281.8073500341125
 30
0.0
 10
25.467261935336545
 20
2281.781693461372
 30
0.0
  0
LINE
  5
10173
330
1F
100
AcDbEntity
  8
0
100
AcDbLine
 10
27.881148527434192
 20
2333.2558669976206
 30
0.0
 11
26.26074565201783
 21
2341.89099490813
 31
0.0
  0
LINE
  5
10174
330
1F
100
AcDbEntity
  8
0
100
AcDbLine
 10
26.260745652017867
 20
2341.89099490813
 30
0.0
 11
26.260745652017903
 21
2343.981693461372
 31
3.944304526105059e-30
  0
LINE
  5
10175
330
1F
100
AcDbEntity
  8
0
100
AcDbLine
 10
26.260745652017867
 20
2343.981693461372
 30
1.7763568394002505e-14
 11
23.416406835423018
 21
2343.981693461372
 31
1.7763568394002505e-14
  0
LINE
  5
10176
330
1F
100
AcDbEntity
  8
0
100
AcDbLine
 10
23.416406835422983
 20
2343.981693461372
 30
0.0
 11
23.416406835423018
 21
2341.981693461372
 31
-5.9164567891575885e-30
  0
LINE
  5
10177
330
1F
100
AcDbEntity
  8
0
100
AcDbLine
 10
23.416406835423054
 20
2341.981693461372
 30
-1.7763568394002505e-14
 11
13.61640683542312
 21
2341.981693461372
 31
-1.7208456881689926e-14
  0
LINE
  5
10178
330
1F
100
AcDbEntity
  8
0
100
AcDbLine
 10
13.61640683542312
 20
2341.981693461372
 30
-1.7763568394002505e-14
 11
13.616406835423085
 21
2343.981693461372
 31
-1.7763568394002505e-14
  0
LINE
  5
10179
330
1F
100
AcDbEntity
  8
0
100
AcDbLine
 10
13.616406835423085
 20
2343.981693461372
 30
0.0
 11
10.000000000000071
 21
2343.981693461372
 31
0.0
  0
LINE
  5
1017A
330
1F
100
AcDbEntity
  8
0
100
AcDbLine
 10
10.000000000000071
 20
2343.981693461372
 30
0.0
 11
10.0
 21
2341.878861384492
 31
0.0
  0
SPLINE
  5
1017B
330
1F
100
AcDbEntity
  8
0
100
AcDbSpline
 70
0
 71
3
 72
17
 73
13
 74
0
 42
1e-09
 40
-0.00019814172037677287
 40
-0.00019814172037677287
 40
-0.00019814172037677287
 40
-0.00019814172037677287
 40
0.0
 40
0.0
 40
0.0
 40
0.41248484427189724
 40
0.41248484427189724
 40
0.41248484427189724
 40
0.8531351698548385
 40
0.8531351698548385
 40
0.8531351698548385
 40
0.9999357676792523
 40
0.9999357676792523
 40
0.9999357676792523
 40
0.9999357676792523
 10
10.000000000000107
 20
2341.878861384491
 30
1.7763568394002505e-14
 10
10.000053428210158
 20
2341.8779188719923
 30
0.0
 10
10.000106856420352
 20
2341.876976359492
 30
3.552713678800501e-14
 10
10.000160284630581
 20
2341.8760338469915
 30
-1.7763568394002505e-14
 10
10.111668001758254
 20
2339.9089565883296
 30
1.7763568394002505e-14
 10
10.341840897572787
 20
2338.6298193348453
 30
1.7763568394002505e-14
 10
10.640376904110731
 20
2337.584071033992
 30
-1.7763568394002505e-14
 10
10.959297684609659
 20
2336.4669164629877
 30
0.0
 10
11.345588316825577
 20
2335.559764556925
 30
0.0
 10
11.765024085586653
 20
2334.149561124065
 30
0.0
 10
11.9047571528926
 20
2333.6797584370383
 30
0.0
 10
12.048802863379038
 20
2333.1564248261575
 30
1.7763568394002505e-14
 10
12.197110841613643
 20
2332.5701349106316
 30
1.7763568394002505e-14
  0
LINE
  5
1017C
330
1F
100
AcDbEntity
  8
0
100
AcDbLine
 10
162.88482542846333
 20
2459.4546925822033
 30
0.0
 11
162.88482542846333
 21
2464.1074469094615
 31
0.0
  0
LINE
  5
1017D
330
1F
100
AcDbEntity
  8
0
100
AcDbLine
 10
162.88482542846333
 20
2464.1074469094615
 30
0.0
 11
164.73482542846332
 21
2464.1074469094615
 31
0.0
  0
LINE
  5
1017E
330
1F
100
AcDbEntity
  8
0
100
AcDbLine
 10
164.73482542846332
 20
2464.1074469094615
 30
0.0
 11
164.73482542846332
 21
2459.4546925822033
 31
0.0
  0
LINE
  5
1017F
330
1F
100
AcDbEntity
  8
0
100
AcDbLine
 10
164.73482542846332
 20
2459.4546925822033
 30
0.0
 11
162.88482542846333
 21
2459.4546925822033
 31
0.0
  0
LINE
  5
10180
330
1F
100
AcDbEntity
  8
0
100
AcDbLine
 10
100.43667423540163
 20
2450.08775920524
 30
0.0
 11
100.43667423540163
 21
2461.9377592052406
 31
0.0
  0
LINE
  5
10181
330
1F
100
AcDbEntity
  8
0
100
AcDbLine
 10
100.43667423540163
 20
2461.9377592052406
 30
0.0
 11
102.28667423540162
 21
2461.9377592052406
 31
0.0
  0
LINE
  5
10182
330
1F
100
AcDbEntity
  8
0
100
AcDbLine
 10
102.28667423540162
 20
2461.9377592052406
 30
0.0
 11
102.28667423540162
 21
2450.08775920524
 31
0.0
  0
LINE
  5
10183
330
1F
100
AcDbEntity
  8
0
100
AcDbLine
 10
102.28667423540162
 20
2450.08775920524
 30
0.0
 11
100.43667423540163
 21
2450.08775920524
 31
0.0
  0
LINE
  5
10184
330
1F
100
AcDbEntity
  8
0
100
AcDbLine
 10
200.2831086002994
 20
2465.0079390488136
 30
0.0
 11
202.1331086002994
 21
2465.0079390488136
 31
0.0
  0
LINE
  5
10185
330
1F
100
AcDbEntity
  8
0
100
AcDbLine
 10
202.1331086002994
 20
2465.0079390488136
 30
0.0
 11
202.1331086002994
 21
2461.1579390488137
 31
0.0
  0
LINE
  5
10186
330
1F
100
AcDbEntity
  8
0
100
AcDbLine
 10
202.1331086002994
 20
2461.1579390488137
 30
0.0
 11
200.2831086002994
 21
2461.1579390488137
 31
0.0
  0
LINE
  5
10187
330
1F
100
AcDbEntity
  8
0
100
AcDbLine
 10
200.2831086002994
 20
2461.1579390488137
 30
0.0
 11
200.2831086002994
 21
2465.0079390488136
 31
0.0
  0
LINE
  5
10188
330
1F
100
AcDbEntity
  8
0
100
AcDbLine
 10
69.79472263640373
 20
2443.981693461372
 30
0.0
 11
69.79472263640373
 21
2449.1316934613715
 31
0.0
  0
LINE
  5
10189
330
1F
100
AcDbEntity
  8
0
100
AcDbLine
 10
69.79472263640373
 20
2449.1316934613715
 30
0.0
 11
67.29472263640373
 21
2449.1316934613715
 31
0.0
  0
LINE
  5
1018A
330
1F
100
AcDbEntity
  8
0
100
AcDbLine
 10
67.29472263640373
 20
2449.1316934613715
 30
0.0
 11
67.29472263640373
 21
2453.981693461372
 31
0.0
  0
LINE
  5
1018B
330
1F
100
AcDbEntity
  8
0
100
AcDbLine
 10
67.29472263640373
 20
2453.981693461372
 30
0.0
 11
86.03013825742984
 21
2453.981693461372
 31
0.0
  0
ARC
  5
1018C
330
1F
100
AcDbEntity
  8
0
100
AcDbCircle
 10
86.03013825742985
 20
2444.7028152759626
 30
0.0
 40
9.27887818540906
100
AcDbArc
 50
-4.4573213252479436
 51
90.00000000000013
  0
LINE
  5
1018D
330
1F
100
AcDbEntity
  8
0
100
AcDbLine
 10
95.2809524760909
 20
2443.981693461372
 30
0.0
 11
105.45474961471064
 21
2443.981693461372
 31
0.0
  0
ARC
  5
1018E
330
1F
100
AcDbEntity
  8
0
100
AcDbCircle
 10
113.4661968139527
 20
2445.7725291500597
 30
0.0
 40
8.209164311312183
100
AcDbArc
 50
90.00000000000024
 51
-167.39955675947596
  0
LINE
  5
1018F
330
1F
100
AcDbEntity
  8
0
100
AcDbLine
 10
113.46619681395266
 20
2453.981693461372
 30
0.0
 11
146.94502970410645
 21
2453.981693461372
 31
0.0
  0
LINE
  5
10190
330
1F
100
AcDbEntity
  8
0
100
AcDbLine
 10
146.94502970410645
 20
2453.981693461372
 30
0.0
 11
146.94502970410645
 21
2449.1316934613715
 31
0.0
  0
LINE
  5
10191
330
1F
100
AcDbEntity
  8
0
100
AcDbLine
 10
146.94502970410645
 20
2449.1316934613715
 30
0.0
 11
144.44502970410645
 21
2449.1316934613715
 31
0.0
  0
LINE
  5
10192
330
1F
100
AcDbEntity
  8
0
100
AcDbLine
 10
144.44502970410645
 20
2449.1316934613715
 30
0.0
 11
144.44502970410645
 21
2443.981693461372
 31
0.0
  0
LINE
  5
10193
330
1F
100
AcDbEntity
  8
0
100
AcDbLine
 10
144.44502970410645
 20
2443.981693461372
 30
0.0
 11
154.59502970410645
 21
2443.981693461372
 31
0.0
  0
LINE
  5
10194
330
1F
100
AcDbEntity
  8
0
100
AcDbLine
 10
154.59502970410645
 20
2443.981693461372
 30
0.0
 11
154.59502970410645
 21
2449.1316934613715
 31
0.0
  0
LINE
  5
10195
330
1F
100
AcDbEntity
  8
0
100
AcDbLine
 10
154.59502970410645
 20
2449.1316934613715
 30
0.0
 11
152.09502970410645
 21
2449.1316934613715
 31
0.0
  0
LINE
  5
10196
330
1F
100
AcDbEntity
  8
0
100
AcDbLine
 10
152.09502970410645
 20
2449.1316934613715
 30
0.0
 11
152.09502970410645
 21
2453.981693461372
 31
0.0
  0
LINE
  5
10197
330
1F
100
AcDbEntity
  8
0
100
AcDbLine
 10
152.09502970410645
 20
2453.981693461372
 30
0.0
 11
220.15000000000003
 21
2453.981693461372
 31
0.0
  0
LINE
  5
10198
330
1F
100
AcDbEntity
  8
0
100
AcDbLine
 10
220.15000000000003
 20
2453.981693461372
 30
0.0
 11
220.15000000000003
 21
2459.481693461372
 31
0.0
  0
LINE
  5
10199
330
1F
100
AcDbEntity
  8
0
100
AcDbLine
 10
220.15000000000003
 20
2459.481693461372
 30
0.0
 11
225.0
 21
2459.481693461372
 31
0.0
  0
LINE
  5
1019A
330
1F
100
AcDbEntity
  8
0
100
AcDbLine
 10
225.0
 20
2459.481693461372
 30
0.0
 11
225.0
 21
2457.981693461372
 31
0.0
  0
LINE
  5
1019B
330
1F
100
AcDbEntity
  8
0
100
AcDbLine
 10
225.0
 20
2457.981693461372
 30
0.0
 11
230.14999999999998
 21
2457.981693461372
 31
0.0
  0
LINE
  5
1019C
330
1F
100
AcDbEntity
  8
0
100
AcDbLine
 10
230.14999999999998
 20
2457.981693461372
 30
0.0
 11
230.14999999999998
 21
2465.1316934613715
 31
0.0
  0
LINE
  5
1019D
330
1F
100
AcDbEntity
  8
0
100
AcDbLine
 10
230.14999999999998
 20
2465.1316934613715
 30
0.0
 11
225.0
 21
2465.1316934613715
 31
0.0
  0
LINE
  5
1019E
330
1F
100
AcDbEntity
  8
0
100
AcDbLine
 10
225.0
 20
2465.1316934613715
 30
0.0
 11
225.0
 21
2463.6316934613715
 31
0.0
  0
LINE
  5
1019F
330
1F
100
AcDbEntity
  8
0
100
AcDbLine
 10
225.0
 20
2463.6316934613715
 30
0.0
 11
220.15000000000003
 21
2463.6316934613715
 31
0.0
  0
LINE
  5
101A0
330
1F
100
AcDbEntity
  8
0
100
AcDbLine
 10
220.15000000000003
 20
2463.6316934613715
 30
0.0
 11
220.14999999999998
 21
2469.1316934613715
 31
0.0
  0
LINE
  5
101A1
330
1F
100
AcDbEntity
  8
0
100
AcDbLine
 10
220.14999999999998
 20
2469.1316934613715
 30
0.0
 11
208.45142460986486
 21
2469.1316934613715
 31
0.0
  0
LINE
  5
101A2
330
1F
100
AcDbEntity
  8
0
100
AcDbLine
 10
208.45142460986486
 20
2469.1316934613715
 30
0.0
 11
208.45142460986486
 21
2465.981693461372
 31
0.0
  0
LINE
  5
101A3
330
1F
100
AcDbEntity
  8
0
100
AcDbLine
 10
208.45142460986486
 20
2465.981693461372
 30
0.0
 11
210.4514246098649
 21
2465.981693461372
 31
0.0
  0
LINE
  5
101A4
330
1F
100
AcDbEntity
  8
0
100
AcDbLine
 10
210.4514246098649
 20
2465.981693461372
 30
0.0
 11
210.4514246098649
 21
2464.1316934613715
 31
0.0
  0
LINE
  5
101A5
330
1F
100
AcDbEntity
  8
0
100
AcDbLine
 10
210.4514246098649
 20
2464.1316934613715
 30
0.0
 11
204.60142460986486
 21
2464.1316934613715
 31
0.0
  0
LINE
  5
101A6
330
1F
100
AcDbEntity
  8
0
100
AcDbLine
 10
204.60142460986486
 20
2464.1316934613715
 30
0.0
 11
204.60142460986486
 21
2469.1316934613715
 31
0.0
  0
LINE
  5
101A7
330
1F
100
AcDbEntity
  8
0
100
AcDbLine
 10
204.60142460986486
 20
2469.1316934613715
 30
0.0
 11
152.09502970410645
 21
2469.1316934613715
 31
0.0
  0
LINE
  5
101A8
330
1F
100
AcDbEntity
  8
0
100
AcDbLine
 10
152.09502970410645
 20
2469.1316934613715
 30
0.0
 11
152.09502970410645
 21
2473.981693461372
 31
0.0
  0
LINE
  5
101A9
330
1F
100
AcDbEntity
  8
0
100
AcDbLine
 10
152.09502970410645
 20
2473.981693461372
 30
0.0
 11
154.59502970410645
 21
2473.981693461372
 31
0.0
  0
LINE
  5
101AA
330
1F
100
AcDbEntity
  8
0
100
AcDbLine
 10
154.59502970410645
 20
2473.981693461372
 30
0.0
 11
154.59502970410645
 21
2479.1316934613715
 31
0.0
  0
LINE
  5
101AB
330
1F
100
AcDbEntity
  8
0
100
AcDbLine
 10
154.59502970410645
 20
2479.1316934613715
 30
0.0
 11
144.44502970410645
 21
2479.1316934613715
 31
0.0
  0
LINE
  5
101AC
330
1F
100
AcDbEntity
  8
0
100
AcDbLine
 10
144.44502970410645
 20
2479.1316934613715
 30
0.0
 11
144.44502970410645
 21
2473.981693461372
 31
0.0
  0
LINE
  5
101AD
330
1F
100
AcDbEntity
  8
0
100
AcDbLine
 10
144.44502970410645
 20
2473.981693461372
 30
0.0
 11
146.94502970410645
 21
2473.981693461372
 31
0.0
  0
LINE
  5
101AE
330
1F
100
AcDbEntity
  8
0
100
AcDbLine
 10
146.94502970410645
 20
2473.981693461372
 30
0.0
 11
146.94502970410645
 21
2469.1316934613715
 31
0.0
  0
LINE
  5
101AF
330
1F
100
AcDbEntity
  8
0
100
AcDbLine
 10
146.94502970410645
 20
2469.1316934613715
 30
0.0
 11
67.29472263640373
 21
2469.1316934613715
 31
0.0
  0
LINE
  5
101B0
330
1F
100
AcDbEntity
  8
0
100
AcDbLine
 10
67.29472263640373
 20
2469.1316934613715
 30
0.0
 11
67.29472263640373
 21
2473.981693461372
 31
0.0
  0
LINE
  5
101B1
330
1F
100
AcDbEntity
  8
0
100
AcDbLine
 10
67.29472263640373
 20
2473.981693461372
 30
0.0
 11
69.79472263640373
 21
2473.981693461372
 31
0.0
  0
LINE
  5
101B2
330
1F
100
AcDbEntity
  8
0
100
AcDbLine
 10
69.79472263640373
 20
2473.981693461372
 30
0.0
 11
69.79472263640373
 21
2479.1316934613715
 31
0.0
  0
LINE
  5
101B3
330
1F
100
AcDbEntity
  8
0
100
AcDbLine
 10
69.79472263640373
 20
2479.1316934613715
 30
0.0
 11
59.64472263640373
 21
2479.1316934613715
 31
0.0
  0
LINE
  5
101B4
330
1F
100
AcDbEntity
  8
0
100
AcDbLine
 10
59.64472263640373
 20
2479.1316934613715
 30
0.0
 11
59.64472263640373
 21
2473.981693461372
 31
0.0
  0
LINE
  5
101B5
330
1F
100
AcDbEntity
  8
0
100
AcDbLine
 10
59.64472263640373
 20
2473.981693461372
 30
0.0
 11
62.14472263640373
 21
2473.981693461372
 31
0.0
  0
LINE
  5
101B6
330
1F
100
AcDbEntity
  8
0
100
AcDbLine
 10
62.14472263640373
 20
2473.981693461372
 30
0.0
 11
62.14472263640373
 21
2469.1316934613715
 31
0.0
  0
LINE
  5
101B7
330
1F
100
AcDbEntity
  8
0
100
AcDbLine
 10
62.14472263640373
 20
2469.1316934613715
 30
0.0
 11
20.0
 21
2469.1316934613715
 31
0.0
  0
LINE
  5
101B8
330
1F
100
AcDbEntity
  8
0
100
AcDbLine
 10
20.0
 20
2469.1316934613715
 30
0.0
 11
20.0
 21
2464.1316934613715
 31
0.0
  0
LINE
  5
101B9
330
1F
100
AcDbEntity
  8
0
100
AcDbLine
 10
20.0
 20
2464.1316934613715
 30
0.0
 11
15.150000000000006
 21
2464.1316934613715
 31
0.0
  0
LINE
  5
101BA
330
1F
100
AcDbEntity
  8
0
100
AcDbLine
 10
15.150000000000006
 20
2464.1316934613715
 30
0.0
 11
15.150000000000006
 21
2466.6316934613715
 31
0.0
  0
LINE
  5
101BB
330
1F
100
AcDbEntity
  8
0
100
AcDbLine
 10
15.150000000000006
 20
2466.6316934613715
 30
0.0
 11
10.0
 21
2466.6316934613715
 31
0.0
  0
LINE
  5
101BC
330
1F
100
AcDbEntity
  8
0
100
AcDbLine
 10
10.0
 20
2466.6316934613715
 30
0.0
 11
10.0
 21
2456.481693461372
 31
0.0
  0
LINE
  5
101BD
330
1F
100
AcDbEntity
  8
0
100
AcDbLine
 10
10.0
 20
2456.481693461372
 30
0.0
 11
15.150000000000006
 21
2456.481693461372
 31
0.0
  0
LINE
  5
101BE
330
1F
100
AcDbEntity
  8
0
100
AcDbLine
 10
15.150000000000006
 20
2456.481693461372
 30
0.0
 11
15.150000000000006
 21
2458.981693461372
 31
0.0
  0
LINE
  5
101BF
330
1F
100
AcDbEntity
  8
0
100
AcDbLine
 10
15.150000000000006
 20
2458.981693461372
 30
0.0
 11
20.0
 21
2458.981693461372
 31
0.0
  0
LINE
  5
101C0
330
1F
100
AcDbEntity
  8
0
100
AcDbLine
 10
20.0
 20
2458.981693461372
 30
0.0
 11
20.0
 21
2453.981693461372
 31
0.0
  0
LINE
  5
101C1
330
1F
100
AcDbEntity
  8
0
100
AcDbLine
 10
20.0
 20
2453.981693461372
 30
0.0
 11
62.14472263640373
 21
2453.981693461372
 31
0.0
  0
LINE
  5
101C2
330
1F
100
AcDbEntity
  8
0
100
AcDbLine
 10
62.14472263640373
 20
2453.981693461372
 30
0.0
 11
62.14472263640373
 21
2449.1316934613715
 31
0.0
  0
LINE
  5
101C3
330
1F
100
AcDbEntity
  8
0
100
AcDbLine
 10
62.14472263640373
 20
2449.1316934613715
 30
0.0
 11
59.64472263640373
 21
2449.1316934613715
 31
0.0
  0
LINE
  5
101C4
330
1F
100
AcDbEntity
  8
0
100
AcDbLine
 10
59.64472263640373
 20
2449.1316934613715
 30
0.0
 11
59.64472263640373
 21
2443.981693461372
 31
0.0
  0
LINE
  5
101C5
330
1F
100
AcDbEntity
  8
0
100
AcDbLine
 10
59.64472263640373
 20
2443.981693461372
 30
0.0
 11
69.79472263640373
 21
2443.981693461372
 31
0.0
  0
LINE
  5
101C6
330
1F
100
AcDbEntity
  8
0
100
AcDbLine
 10
37.93782688786685
 20
2600.022062662857
 30
0.0
 11
36.087826887866825
 21
2600.022062662857
 31
0.0
  0
LINE
  5
101C7
330
1F
100
AcDbEntity
  8
0
100
AcDbLine
 10
36.087826887866825
 20
2600.022062662857
 30
0.0
 11
36.087826887866825
 21
2606.730159292237
 31
0.0
  0
LINE
  5
101C8
330
1F
100
AcDbEntity
  8
0
100
AcDbLine
 10
36.087826887866825
 20
2606.730159292237
 30
0.0
 11
37.93782688786685
 21
2606.730159292237
 31
0.0
  0
LINE
  5
101C9
330
1F
100
AcDbEntity
  8
0
100
AcDbLine
 10
37.93782688786685
 20
2606.730159292237
 30
0.0
 11
37.93782688786685
 21
2600.022062662857
 31
0.0
  0
LINE
  5
101CA
330
1F
100
AcDbEntity
  8
0
100
AcDbLine
 10
29.88737884791604
 20
2621.870387921066
 30
0.0
 11
31.887378847916068
 21
2621.870387921066
 31
0.0
  0
LINE
  5
101CB
330
1F
100
AcDbEntity
  8
0
100
AcDbLine
 10
31.887378847916068
 20
2621.870387921066
 30
0.0
 11
31.887378847916068
 21
2626.0203879210662
 31
0.0
  0
LINE
  5
101CC
330
1F
100
AcDbEntity
  8
0
100
AcDbLine
 10
31.887378847916068
 20
2626.0203879210662
 30
0.0
 11
17.99999999999997
 21
2626.0203879210662
 31
0.0
  0
LINE
  5
101CD
330
1F
100
AcDbEntity
  8
0
100
AcDbLine
 10
17.99999999999997
 20
2626.0203879210662
 30
0.0
 11
17.99999999999997
 21
2591.6295615751537
 31
0.0
  0
LINE
  5
101CE
330
1F
100
AcDbEntity
  8
0
100
AcDbLine
 10
17.99999999999997
 20
2591.6295615751537
 30
0.0
 11
14.149999999999991
 21
2591.6295615751537
 31
0.0
  0
LINE
  5
101CF
330
1F
100
AcDbEntity
  8
0
100
AcDbLine
 10
14.149999999999991
 20
2591.6295615751537
 30
0.0
 11
14.149999999999991
 21
2593.6295615751537
 31
0.0
  0
LINE
  5
101D0
330
1F
100
AcDbEntity
  8
0
100
AcDbLine
 10
14.149999999999991
 20
2593.6295615751537
 30
0.0
 11
10.0
 21
2593.6295615751537
 31
0.0
  0
LINE
  5
101D1
330
1F
100
AcDbEntity
  8
0
100
AcDbLine
 10
10.0
 20
2593.6295615751537
 30
0.0
 11
10.0
 21
2585.4795615751536
 31
0.0
  0
LINE
  5
101D2
330
1F
100
AcDbEntity
  8
0
100
AcDbLine
 10
10.0
 20
2585.4795615751536
 30
0.0
 11
14.149999999999991
 21
2585.4795615751536
 31
0.0
  0
LINE
  5
101D3
330
1F
100
AcDbEntity
  8
0
100
AcDbLine
 10
14.149999999999991
 20
2585.4795615751536
 30
0.0
 11
14.149999999999991
 21
2587.4795615751536
 31
0.0
  0
LINE
  5
101D4
330
1F
100
AcDbEntity
  8
0
100
AcDbLine
 10
14.149999999999991
 20
2587.4795615751536
 30
0.0
 11
17.99999999999997
 21
2587.4795615751536
 31
0.0
  0
LINE
  5
101D5
330
1F
100
AcDbEntity
  8
0
100
AcDbLine
 10
17.99999999999997
 20
2587.4795615751536
 30
0.0
 11
17.99999999999997
 21
2579.131693461372
 31
0.0
  0
LINE
  5
101D6
330
1F
100
AcDbEntity
  8
0
100
AcDbLine
 10
17.99999999999997
 20
2579.131693461372
 30
0.0
 11
53.585872923689806
 21
2579.131693461372
 31
0.0
  0
LINE
  5
101D7
330
1F
100
AcDbEntity
  8
0
100
AcDbLine
 10
53.585872923689806
 20
2579.131693461372
 30
0.0
 11
53.585872923689806
 21
2591.2701419453247
 31
0.0
  0
LINE
  5
101D8
330
1F
100
AcDbEntity
  8
0
100
AcDbLine
 10
53.585872923689806
 20
2591.2701419453247
 30
0.0
 11
49.435872923689814
 21
2591.2701419453247
 31
0.0
  0
LINE
  5
101D9
330
1F
100
AcDbEntity
  8
0
100
AcDbLine
 10
49.435872923689814
 20
2591.2701419453247
 30
0.0
 11
49.435872923689814
 21
2589.2701419453247
 31
0.0
  0
LINE
  5
101DA
330
1F
100
AcDbEntity
  8
0
100
AcDbLine
 10
49.435872923689814
 20
2589.2701419453247
 30
0.0
 11
45.585872923689834
 21
2589.2701419453247
 31
0.0
  0
LINE
  5
101DB
330
1F
100
AcDbEntity
  8
0
100
AcDbLine
 10
45.585872923689834
 20
2589.2701419453247
 30
0.0
 11
45.585872923689834
 21
2597.1201419453246
 31
0.0
  0
LINE
  5
101DC
330
1F
100
AcDbEntity
  8
0
100
AcDbLine
 10
45.585872923689834
 20
2597.1201419453246
 30
0.0
 11
49.435872923689814
 21
2597.1201419453246
 31
0.0
  0
LINE
  5
101DD
330
1F
100
AcDbEntity
  8
0
100
AcDbLine
 10
49.435872923689814
 20
2597.1201419453246
 30
0.0
 11
49.435872923689814
 21
2595.1201419453246
 31
0.0
  0
LINE
  5
101DE
330
1F
100
AcDbEntity
  8
0
100
AcDbLine
 10
49.435872923689814
 20
2595.1201419453246
 30
0.0
 11
53.585872923689806
 21
2595.1201419453246
 31
0.0
  0
LINE
  5
101DF
330
1F
100
AcDbEntity
  8
0
100
AcDbLine
 10
53.585872923689806
 20
2595.1201419453246
 30
0.0
 11
53.585872923689806
 21
2626.0203879210662
 31
0.0
  0
LINE
  5
101E0
330
1F
100
AcDbEntity
  8
0
100
AcDbLine
 10
53.585872923689806
 20
2626.0203879210662
 30
0.0
 11
35.73737884791598
 21
2626.0203879210662
 31
0.0
  0
LINE
  5
101E1
330
1F
100
AcDbEntity
  8
0
100
AcDbLine
 10
35.73737884791598
 20
2626.0203879210662
 30
0.0
 11
35.73737884791598
 21
2621.870387921066
 31
0.0
  0
LINE
  5
101E2
330
1F
100
AcDbEntity
  8
0
100
AcDbLine
 10
35.73737884791598
 20
2621.870387921066
 30
0.0
 11
37.737378847916005
 21
2621.870387921066
 31
0.0
  0
LINE
  5
101E3
330
1F
100
AcDbEntity
  8
0
100
AcDbLine
 10
37.737378847916005
 20
2621.870387921066
 30
0.0
 11
37.737378847916005
 21
2618.0203879210662
 31
0.0
  0
LINE
  5
101E4
330
1F
100
AcDbEntity
  8
0
100
AcDbLine
 10
37.737378847916005
 20
2618.0203879210662
 30
0.0
 11
29.88737884791604
 21
2618.0203879210662
 31
0.0
  0
LINE
  5
101E5
330
1F
100
AcDbEntity
  8
0
100
AcDbLine
 10
29.88737884791604
 20
2618.0203879210662
 30
0.0
 11
29.88737884791604
 21
2621.870387921066
 31
0.0
  0
LINE
  5
101E6
330
1F
100
AcDbEntity
  8
0
100
AcDbLine
 10
27.937826887866777
 20
2600.022062662857
 30
0.0
 11
26.087826887866754
 21
2600.022062662857
 31
0.0
  0
LINE
  5
101E7
330
1F
100
AcDbEntity
  8
0
100
AcDbLine
 10
26.087826887866754
 20
2600.022062662857
 30
0.0
 11
26.087826887866754
 21
2606.730159292237
 31
0.0
  0
LINE
  5
101E8
330
1F
100
AcDbEntity
  8
0
100
AcDbLine
 10
26.087826887866754
 20
2606.730159292237
 30
0.0
 11
27.937826887866777
 21
2606.730159292237
 31
0.0
  0
LINE
  5
101E9
330
1F
100
AcDbEntity
  8
0
100
AcDbLine
 10
27.937826887866777
 20
2606.730159292237
 30
0.0
 11
27.937826887866777
 21
2600.022062662857
 31
0.0
  0
LINE
  5
101EA
330
1F
100
AcDbEntity
  8
0
100
AcDbLine
 10
27.449197842634447
 20
2736.0203879210662
 30
0.0
 11
45.73571657999722
 21
2736.0203879210662
 31
0.0
  0
LINE
  5
101EB
330
1F
100
AcDbEntity
  8
0
100
AcDbLine
 10
45.73571657999722
 20
2736.0203879210662
 30
0.0
 11
45.73571657999722
 21
2748.4098267295735
 31
0.0
  0
LINE
  5
101EC
330
1F
100
AcDbEntity
  8
0
100
AcDbLine
 10
45.73571657999722
 20
2748.4098267295735
 30
0.0
 11
41.585716579997296
 21
2748.4098267295735
 31
0.0
  0
LINE
  5
101ED
330
1F
100
AcDbEntity
  8
0
100
AcDbLine
 10
41.585716579997296
 20
2748.4098267295735
 30
0.0
 11
41.585716579997296
 21
2744.4098267295735
 31
0.0
  0
LINE
  5
101EE
330
1F
100
AcDbEntity
  8
0
100
AcDbLine
 10
41.585716579997296
 20
2744.4098267295735
 30
0.0
 11
37.7357165799971
 21
2744.4098267295735
 31
0.0
  0
LINE
  5
101EF
330
1F
100
AcDbEntity
  8
0
100
AcDbLine
 10
37.7357165799971
 20
2744.4098267295735
 30
0.0
 11
37.7357165799971
 21
2752.2598267295734
 31
0.0
  0
LINE
  5
101F0
330
1F
100
AcDbEntity
  8
0
100
AcDbLine
 10
37.7357165799971
 20
2752.2598267295734
 30
0.0
 11
45.73571657999722
 21
2752.2598267295734
 31
0.0
  0
LINE
  5
101F1
330
1F
100
AcDbEntity
  8
0
100
AcDbLine
 10
45.73571657999722
 20
2752.2598267295734
 30
0.0
 11
45.73571657999722
 21
2790.2180984642205
 31
0.0
  0
LINE
  5
101F2
330
1F
100
AcDbEntity
  8
0
100
AcDbLine
 10
45.73571657999722
 20
2790.2180984642205
 30
0.0
 11
38.872404610988696
 21
2790.2180984642205
 31
0.0
  0
LINE
  5
101F3
330
1F
100
AcDbEntity
  8
0
100
AcDbLine
 10
38.872404610988696
 20
2790.2180984642205
 30
0.0
 11
38.872404610988696
 21
2794.068098464221
 31
0.0
  0
LINE
  5
101F4
330
1F
100
AcDbEntity
  8
0
100
AcDbLine
 10
38.872404610988696
 20
2794.068098464221
 30
0.0
 11
41.87240461098881
 21
2794.068098464221
 31
0.0
  0
LINE
  5
101F5
330
1F
100
AcDbEntity
  8
0
100
AcDbLine
 10
41.87240461098881
 20
2794.068098464221
 30
0.0
 11
41.87240461098881
 21
2798.2180984642205
 31
0.0
  0
LINE
  5
101F6
330
1F
100
AcDbEntity
  8
0
100
AcDbLine
 10
41.87240461098881
 20
2798.2180984642205
 30
0.0
 11
31.72240461098866
 21
2798.2180984642205
 31
0.0
  0
LINE
  5
101F7
330
1F
100
AcDbEntity
  8
0
100
AcDbLine
 10
31.72240461098866
 20
2798.2180984642205
 30
0.0
 11
31.72240461098866
 21
2794.068098464221
 31
0.0
  0
LINE
  5
101F8
330
1F
100
AcDbEntity
  8
0
100
AcDbLine
 10
31.72240461098866
 20
2794.068098464221
 30
0.0
 11
34.722404610988775
 21
2794.068098464221
 31
0.0
  0
LINE
  5
101F9
330
1F
100
AcDbEntity
  8
0
100
AcDbLine
 10
34.722404610988775
 20
2794.068098464221
 30
0.0
 11
34.722404610988775
 21
2790.2180984642205
 31
0.0
  0
LINE
  5
101FA
330
1F
100
AcDbEntity
  8
0
100
AcDbLine
 10
34.722404610988775
 20
2790.2180984642205
 30
0.0
 11
10.0
 21
2790.2180984642205
 31
0.0
  0
LINE
  5
101FB
330
1F
100
AcDbEntity
  8
0
100
AcDbLine
 10
10.0
 20
2790.2180984642205
 30
0.0
 11
10.0
 21
2754.673343073948
 31
0.0
  0
LINE
  5
101FC
330
1F
100
AcDbEntity
  8
0
100
AcDbLine
 10
10.0
 20
2754.673343073948
 30
0.0
 11
17.99999999999997
 21
2754.673343073948
 31
0.0
  0
LINE
  5
101FD
330
1F
100
AcDbEntity
  8
0
100
AcDbLine
 10
17.99999999999997
 20
2754.673343073948
 30
0.0
 11
17.99999999999997
 21
2746.8233430739483
 31
0.0
  0
LINE
  5
101FE
330
1F
100
AcDbEntity
  8
0
100
AcDbLine
 10
17.99999999999997
 20
2746.8233430739483
 30
0.0
 11
14.149999999999991
 21
2746.8233430739483
 31
0.0
  0
LINE
  5
101FF
330
1F
100
AcDbEntity
  8
0
100
AcDbLine
 10
14.149999999999991
 20
2746.8233430739483
 30
0.0
 11
14.149999999999991
 21
2750.8233430739483
 31
0.0
  0
LINE
  5
10200
330
1F
100
AcDbEntity
  8
0
100
AcDbLine
 10
14.149999999999991
 20
2750.8233430739483
 30
0.0
 11
10.0
 21
2750.8233430739483
 31
0.0
  0
LINE
  5
10201
330
1F
100
AcDbEntity
  8
0
100
AcDbLine
 10
10.0
 20
2750.8233430739483
 30
0.0
 11
10.0
 21
2736.0203879210662
 31
0.0
  0
LINE
  5
10202
330
1F
100
AcDbEntity
  8
0
100
AcDbLine
 10
10.0
 20
2736.0203879210662
 30
0.0
 11
21.299197842634356
 21
2736.0203879210662
 31
0.0
  0
LINE
  5
10203
330
1F
100
AcDbEntity
  8
0
100
AcDbLine
 10
21.299197842634356
 20
2736.0203879210662
 30
0.0
 11
21.299197842634356
 21
2730.170387921066
 31
0.0
  0
LINE
  5
10204
330
1F
100
AcDbEntity
  8
0
100
AcDbLine
 10
21.299197842634356
 20
2730.170387921066
 30
0.0
 11
19.29919784263447
 21
2730.170387921066
 31
0.0
  0
LINE
  5
10205
330
1F
100
AcDbEntity
  8
0
100
AcDbLine
 10
19.29919784263447
 20
2730.170387921066
 30
0.0
 11
19.29919784263447
 21
2726.0203879210662
 31
0.0
  0
LINE
  5
10206
330
1F
100
AcDbEntity
  8
0
100
AcDbLine
 10
19.29919784263447
 20
2726.0203879210662
 30
0.0
 11
29.449197842634334
 21
2726.0203879210662
 31
0.0
  0
LINE
  5
10207
330
1F
100
AcDbEntity
  8
0
100
AcDbLine
 10
29.449197842634334
 20
2726.0203879210662
 30
0.0
 11
29.449197842634334
 21
2730.170387921066
 31
0.0
  0
LINE
  5
10208
330
1F
100
AcDbEntity
  8
0
100
AcDbLine
 10
29.449197842634334
 20
2730.170387921066
 30
0.0
 11
27.449197842634447
 21
2730.170387921066
 31
0.0
  0
LINE
  5
10209
330
1F
100
AcDbEntity
  8
0
100
AcDbLine
 10
27.449197842634447
 20
2730.170387921066
 30
0.0
 11
27.449197842634447
 21
2736.0203879210662
 31
0.0
  0
LINE
  5
1020A
330
1F
100
AcDbEntity
  8
0
100
AcDbLine
 10
26.809055058772913
 20
2930.999235685025
 30
0.0
 11
28.697081407238016
 21
2923.379665060147
 31
0.0
  0
LINE
  5
1020B
330
1F
100
AcDbEntity
  8
0
100
AcDbLine
 10
28.697081407238016
 20
2923.379665060147
 30
0.0
 11
26.90138641920953
 21
2922.9347161754768
 31
0.0
  0
LINE
  5
1020C
330
1F
100
AcDbEntity
  8
0
100
AcDbLine
 10
26.90138641920953
 20
2922.9347161754768
 30
0.0
 11
25.013360070744426
 21
2930.5542868003545
 31
0.0
  0
LINE
  5
1020D
330
1F
100
AcDbEntity
  8
0
100
AcDbLine
 10
25.013360070744426
 20
2930.5542868003545
 30
0.0
 11
26.809055058772913
 21
2930.999235685025
 31
0.0
  0
SPLINE
  5
1020E
330
1F
100
AcDbEntity
  8
0
100
AcDbSpline
 70
0
 71
3
 72
8
 73
4
 74
0
 42
1e-09
 40
0.028174358025346992
 40
0.028174358025346992
 40
0.028174358025346992
 40
0.028174358025346992
 40
0.05997669684383616
 40
0.05997669684383616
 40
0.05997669684383616
 40
0.05997669684383616
 10
34.944451301550004
 20
2906.4689366681214
 30
0.0
 10
36.88435054376981
 20
2906.43016165333
 30
0.0
 10
38.75610750762746
 20
2906.3477575317806
 30
0.0
 10
40.561822081031096
 20
2906.2231200964357
 30
0.0
  0
LINE
  5
1020F
330
1F
100
AcDbEntity
  8
0
100
AcDbLine
 10
40.561822081031096
 20
2906.2231200964357
 30
0.0
 11
40.561822081030954
 21
2902.368098464221
 31
0.0
  0
LINE
  5
10210
330
1F
100
AcDbEntity
  8
0
100
AcDbLine
 10
40.561822081030954
 20
2902.368098464221
 30
0.0
 11
38.56182208103107
 21
2902.368098464221
 31
0.0
  0
LINE
  5
10211
330
1F
100
AcDbEntity
  8
0
100
AcDbLine
 10
38.56182208103107
 20
2902.368098464221
 30
0.0
 11
38.56182208103107
 21
2898.218098464221
 31
0.0
  0
LINE
  5
10212
330
1F
100
AcDbEntity
  8
0
100
AcDbLine
 10
38.56182208103107
 20
2898.218098464221
 30
0.0
 11
46.71182208103119
 21
2898.218098464221
 31
0.0
  0
LINE
  5
10213
330
1F
100
AcDbEntity
  8
0
100
AcDbLine
 10
46.71182208103119
 20
2898.218098464221
 30
0.0
 11
46.71182208103119
 21
2902.368098464221
 31
0.0
  0
LINE
  5
10214
330
1F
100
AcDbEntity
  8
0
100
AcDbLine
 10
46.71182208103119
 20
2902.368098464221
 30
0.0
 11
44.71182208103116
 21
2902.368098464221
 31
0.0
  0
LINE
  5
10215
330
1F
100
AcDbEntity
  8
0
100
AcDbLine
 10
44.71182208103116
 20
2902.368098464221
 30
0.0
 11
44.71182208103116
 21
2905.850621709907
 31
0.0
  0
SPLINE
  5
10216
330
1F
100
AcDbEntity
  8
0
100
AcDbSpline
 70
0
 71
3
 72
11
 73
7
 74
0
 42
1e-09
 40
0.08505349081832517
 40
0.08505349081832517
 40
0.08505349081832517
 40
0.08505349081832517
 40
0.15439844622645504
 40
0.15439844622645504
 40
0.15439844622645504
 40
0.15523089328757636
 40
0.15523089328757636
 40
0.15523089328757636
 40
0.15523089328757636
 10
44.71182208103144
 20
2905.850621709907
 30
0.0
 10
48.426579391492766
 20
2905.4366525479563
 30
0.0
 10
51.83824367112862
 20
2904.8291390341824
 30
0.0
 10
54.99578155396023
 20
2904.060606879587
 30
0.0
 10
55.03372462684723
 20
2904.0513716866485
 30
0.0
 10
55.07166769973438
 20
2904.04213649371
 30
0.0
 10
55.10961077262124
 20
2904.0329013007718
 30
0.0
  0
SPLINE
  5
10217
330
1F
100
AcDbEntity
  8
0
100
AcDbSpline
 70
0
 71
3
 72
23
 73
19
 74
0
 42
1e-09
 40
0.06876655414311905
 40
0.06876655414311905
 40
0.06876655414311905
 40
0.06876655414311905
 40
0.07037257913682088
 40
0.07037257913682088
 40
0.07037257913682088
 40
0.292442224598611
 40
0.292442224598611
 40
0.292442224598611
 40
0.6462211122993056
 40
0.6462211122993056
 40
0.6462211122993056
 40
0.8594201824113734
 40
0.8594201824113734
 40
0.8594201824113734
 40
1.0
 40
1.0
 40
1.0
 40
1.0006924565647397
 40
1.0006924565647397
 40
1.0006924565647397
 40
1.0006924565647397
 10
55.10961077262138
 20
2904.0329013007718
 30
0.0
 10
55.10211513068754
 20
2904.071225978471
 30
0.0
 10
55.094619488753835
 20
2904.1095506561696
 30
0.0
 10
55.087123846820134
 20
2904.1478753338683
 30
0.0
 10
54.04945723789382
 20
2909.453390017942
 30
0.0
 10
52.64039239528444
 20
2912.983968652468
 30
0.0
 10
50.95527121945892
 20
2915.4620031176337
 30
0.0
 10
48.27070668122715
 20
2919.409756872756
 30
0.0
 10
44.92198736770575
 20
2920.7407679622115
 30
0.0
 10
41.33466398251613
 20
2923.690274741393
 30
0.0
 10
39.172822118846824
 20
2925.467746841827
 30
0.0
 10
36.91449439150716
 20
2927.8565211912355
 30
0.0
 10
34.59549784441066
 20
2931.614107347149
 30
0.0
 10
33.06639121459227
 20
2934.091795341258
 30
0.0
 10
31.510456372327695
 20
2937.163052985611
 30
0.0
 10
29.931042595695487
 20
2940.9147321199453
 30
0.0
 10
29.923257293049517
 20
2940.9332250303682
 30
0.0
 10
29.915471990403404
 20
2940.951717940791
 30
0.0
 10
29.90768668775729
 20
2940.9702108512133
 30
0.0
  0
LINE
  5
10218
330
1F
100
AcDbEntity
  8
0
100
AcDbLine
 10
29.90768668775729
 20
2940.9702108512133
 30
0.0
 11
22.221588838570483
 21
2939.569085640395
 31
0.0
  0
LINE
  5
10219
330
1F
100
AcDbEntity
  8
0
100
AcDbLine
 10
22.221588838570483
 20
2939.569085640395
 30
0.0
 11
21.70147185790725
 21
2942.422271048474
 31
0.0
  0
ARC
  5
1021A
330
1F
100
AcDbEntity
  8
0
100
AcDbCircle
 10
19.386659047560926
 20
2943.550219031786
 30
0.0
 40
2.5750000000000632
100
AcDbArc
 50
-25.978767978422226
 51
-133.3588257501536
  0
LINE
  5
1021B
330
1F
100
AcDbEntity
  8
0
100
AcDbLine
 10
17.618753663171987
 20
2941.678018307545
 30
0.0
 11
18.13887064383536
 21
2938.824832899465
 31
0.0
  0
LINE
  5
1021C
330
1F
100
AcDbEntity
  8
0
100
AcDbLine
 10
18.13887064383536
 20
2938.824832899465
 30
0.0
 11
10.0
 21
2937.341170178742
 31
0.0
  0
SPLINE
  5
1021D
330
1F
100
AcDbEntity
  8
0
100
AcDbSpline
 70
0
 71
3
 72
23
 73
19
 74
0
 42
1e-09
 40
0.037779877007124596
 40
0.037779877007124596
 40
0.037779877007124596
 40
0.037779877007124596
 40
0.03917674115480907
 40
0.03917674115480907
 40
0.03917674115480907
 40
0.2864572366860648
 40
0.2864572366860648
 40
0.2864572366860648
 40
0.6432286183430325
 40
0.6432286183430325
 40
0.6432286183430325
 40
0.8896613510726454
 40
0.8896613510726454
 40
0.8896613510726454
 40
1.0
 40
1.0
 40
1.0
 40
1.0009197649951997
 40
1.0009197649951997
 40
1.0009197649951997
 40
1.0009197649951997
 10
16.37164999505572
 20
2906.468936668119
 30
0.0
 10
16.37017499984637
 20
2906.492365893975
 30
0.0
 10
16.368700004637446
 20
2906.515795119831
 30
0.0
 10
16.36722500942838
 20
2906.5392243456868
 30
0.0
 10
16.10650955148543
 20
2910.680499728031
 30
0.0
 10
15.364487308718537
 20
2913.700548952064
 30
0.0
 10
14.382630779527972
 20
2916.05885982515
 30
0.0
 10
12.966027703916723
 20
2919.4613838566556
 30
0.0
 10
11.058930661732376
 20
2921.542524970083
 30
0.0
 10
9.914493645953684
 20
2924.439904000523
 30
0.0
 10
9.123996549674729
 20
2926.4412109128334
 30
0.0
 10
8.722086662276354
 20
2928.850508289072
 30
0.0
 10
9.068601913529477
 20
2932.2075780129176
 30
0.0
 10
9.223751857420837
 20
2933.7106840880774
 30
0.0
 10
9.526660458021468
 20
2935.4004780566306
 30
0.0
 10
9.988467327387838
 20
2937.2938862210326
 30
0.0
 10
9.99231155159194
 20
2937.309647540269
 30
0.0
 10
9.996155775795899
 20
2937.3254088595054
 30
0.0
 10
10.0
 20
2937.3411701787422
 30
0.0
  0
LINE
  5
1021E
330
1F
100
AcDbEntity
  8
0
100
AcDbLine
 10
16.37164999505572
 20
2906.468936668119
 30
0.0
 11
34.944451301550004
 21
2906.4689366681214
 31
0.0
  0
LINE
  5
1021F
330
1F
100
AcDbEntity
  8
0
100
AcDbLine
 10
16.772938348557602
 20
3132.7798655878705
 30
0.0
 11
18.622756864138097
 21
3132.753953053934
 31
0.0
  0
LINE
  5
10220
330
1F
100
AcDbEntity
  8
0
100
AcDbLine
 10
18.622756864138097
 20
3132.753953053934
 30
0.0
 11
18.568830779999388
 21
3128.9043307377256
 31
0.0
  0
LINE
  5
10221
330
1F
100
AcDbEntity
  8
0
100
AcDbLine
 10
18.568830779999388
 20
3128.9043307377256
 30
0.0
 11
16.719012264418893
 21
3128.930243271662
 31
0.0
  0
LINE
  5
10222
330
1F
100
AcDbEntity
  8
0
100
AcDbLine
 10
16.719012264418893
 20
3128.930243271662
 30
0.0
 11
16.772938348557602
 21
3132.7798655878705
 31
0.0
  0
LINE
  5
10223
330
1F
100
AcDbEntity
  8
0
100
AcDbLine
 10
10.000000000000142
 20
3136.747782718718
 30
0.0
 11
10.0
 21
3118.266320054979
 31
0.0
  0
SPLINE
  5
10224
330
1F
100
AcDbEntity
  8
0
100
AcDbSpline
 70
0
 71
3
 72
29
 73
25
 74
0
 42
1e-09
 40
-0.001646129351348044
 40
-0.001646129351348044
 40
-0.001646129351348044
 40
-0.001646129351348044
 40
0.0
 40
0.0
 40
0.0
 40
0.16214314690706438
 40
0.16214314690706438
 40
0.16214314690706438
 40
0.29666293848437564
 40
0.29666293848437564
 40
0.29666293848437564
 40
0.44283967760280685
 40
0.44283967760280685
 40
0.44283967760280685
 40
0.5701616580342479
 40
0.5701616580342479
 40
0.5701616580342479
 40
0.7518360570473813
 40
0.7518360570473813
 40
0.7518360570473813
 40
0.8357564470019587
 40
0.8357564470019587
 40
0.8357564470019587
 40
0.8364092409864362
 40
0.8364092409864362
 40
0.8364092409864362
 40
0.8364092409864362
 10
14.381021121125315
 20
3057.326755353092
 30
0.0
 10
14.388032696653994
 20
3057.350310850959
 30
0.0
 10
14.395044272182815
 20
3057.373866348826
 30
0.0
 10
14.402055847711637
 20
3057.3974218466933
 30
0.0
 10
15.091718484228238
 20
3059.7143542817334
 30
0.0
 10
15.940568943520788
 20
3063.1412760417184
 30
0.0
 10
16.916602291513954
 20
3067.600426547196
 30
0.0
 10
17.726354692704263
 20
3071.2998983290813
 30
0.0
 10
18.628436170426568
 20
3075.7271659462094
 30
0.0
 10
19.480259357357568
 20
3080.4319534962215
 30
0.0
 10
20.405898137428693
 20
3085.5444391330325
 30
0.0
 10
21.266284356039193
 20
3090.9357252404156
 30
0.0
 10
21.722682000505813
 20
3095.7302820712534
 30
0.0
 10
22.1202107202474
 20
3099.9064080039766
 30
0.0
 10
22.204237974226544
 20
3103.5993229017417
 30
0.0
 10
21.735684606331205
 20
3106.576895690969
 30
0.0
 10
21.067110718071547
 20
3110.825563086558
 30
0.0
 10
19.251651661498244
 20
3113.6624583864923
 30
0.0
 10
15.822565661139265
 20
3115.76564312317
 30
0.0
 10
14.238576745248537
 20
3116.737161863329
 30
0.0
 10
12.317197181570663
 20
3117.5532443155294
 30
0.0
 10
10.052940961716104
 20
3118.2500284265743
 30
0.0
 10
10.035293974477355
 20
3118.255458969376
 30
0.0
 10
10.017646987238606
 20
3118.2608895121775
 30
0.0
 10
9.999999999999716
 20
3118.266320054979
 30
0.0
  0
SPLINE
  5
10225
330
1F
100
AcDbEntity
  8
0
100
AcDbSpline
 70
0
 71
3
 72
11
 73
7
 74
0
 42
1e-09
 40
0.6627441008220304
 40
0.6627441008220304
 40
0.6627441008220304
 40
0.6627441008220304
 40
0.6633227788699272
 40
0.6633227788699272
 40
0.6633227788699272
 40
0.7295213178597963
 40
0.7295213178597963
 40
0.7295213178597963
 40
0.7295213178597963
 10
14.381021121124604
 20
3057.3267553530914
 30
0.0
 10
14.404453518020972
 20
3057.319342766035
 30
0.0
 10
14.427885914917198
 20
3057.311930178978
 30
0.0
 10
14.451318311813282
 20
3057.304517591921
 30
0.0
 10
17.133822579151143
 20
3056.4559361813203
 30
0.0
 10
19.931764090706707
 20
3055.6907161268264
 30
0.0
 10
22.850572281629553
 20
3055.0121178984646
 30
0.0
  0
LINE
  5
10226
330
1F
100
AcDbEntity
  8
0
100
AcDbLine
 10
22.850572281629553
 20
3055.0121178984646
 30
0.0
 11
22.85057228162927
 21
3051.4694318140155
 31
0.0
  0
ARC
  5
10227
330
1F
100
AcDbEntity
  8
0
100
AcDbCircle
 10
24.92557228162937
 20
3049.200070670434
 30
0.0
 40
3.0750000000000077
100
AcDbArc
 50
132.4383685062315
 51
47.56163149376855
  0
LINE
  5
10228
330
1F
100
AcDbEntity
  8
0
100
AcDbLine
 10
27.000572281629474
 20
3051.4694318140155
 30
0.0
 11
27.000572281629474
 21
3054.12157675999
 31
0.0
  0
SPLINE
  5
10229
330
1F
100
AcDbEntity
  8
0
100
AcDbSpline
 70
0
 71
3
 72
11
 73
7
 74
0
 42
1e-09
 40
0.7603031432594396
 40
0.7603031432594396
 40
0.7603031432594396
 40
0.7603031432594396
 40
0.8121539813547298
 40
0.8121539813547298
 40
0.8121539813547298
 40
0.812934307253966
 40
0.812934307253966
 40
0.812934307253966
 40
0.812934307253966
 10
27.000572281629474
 20
3054.12157675999
 30
0.0
 10
29.374820264189907
 20
3053.6530853777713
 30
0.0
 10
31.823510085610422
 20
3053.2378180488126
 30
0.0
 10
34.346457261219854
 20
3052.8754798116915
 30
0.0
 10
34.38440781747772
 20
3052.870029464659
 30
0.0
 10
34.42235837373559
 20
3052.8645791176264
 30
0.0
 10
34.46030892999332
 20
3052.8591287705935
 30
0.0
  0
SPLINE
  5
1022A
330
1F
100
AcDbEntity
  8
0
100
AcDbSpline
 70
0
 71
3
 72
26
 73
22
 74
0
 42
1e-09
 40
-0.0010943071348154315
 40
-0.0010943071348154315
 40
-0.0010943071348154315
 40
-0.0010943071348154315
 40
0.0
 40
0.0
 40
0.0
 40
0.2426763911397275
 40
0.2426763911397275
 40
0.2426763911397275
 40
0.4213949769276269
 40
0.4213949769276269
 40
0.4213949769276269
 40
0.624195865730171
 40
0.624195865730171
 40
0.624195865730171
 40
0.8133859244162598
 40
0.8133859244162598
 40
0.8133859244162598
 40
1.0
 40
1.0
 40
1.0
 40
1.0006243701216835
 40
1.0006243701216835
 40
1.0006243701216835
 40
1.0006243701216835
 10
34.46030892999346
 20
3052.859128770594
 30
0.0
 10
34.449989804816
 20
3052.8960539199948
 30
0.0
 10
34.43967067963854
 20
3052.9329790693955
 30
0.0
 10
34.42935155446108
 20
3052.9699042187963
 30
0.0
 10
32.142434309234176
 20
3061.1532297909703
 30
0.0
 10
31.078363809745326
 20
3068.4551534020575
 30
0.0
 10
31.231395431700975
 20
3074.907951484138
 30
0.0
 10
31.344095290670708
 20
3079.66010286643
 30
0.0
 10
32.133754942243655
 20
3083.938805811494
 30
0.0
 10
33.29285894043721
 20
3088.0443118410662
 30
0.0
 10
34.608152031035075
 20
3092.7030342011994
 30
0.0
 10
36.35014839904969
 20
3097.185458848555
 30
0.0
 10
37.75131344116204
 20
3102.189347418874
 30
0.0
 10
39.05844033844218
 20
3106.8574037467683
 30
0.0
 10
40.05101131521556
 20
3111.993165198169
 30
0.0
 10
40.510332556014816
 20
3117.773466452331
 30
0.0
 10
40.963399748567184
 20
3123.4750640026054
 30
0.0
 10
40.92107182787231
 20
3129.781064690035
 30
0.0
 10
40.38612633340932
 20
3136.678582021387
 30
0.0
 10
40.38433735149624
 20
3136.701648920497
 30
0.0
 10
40.38254836958316
 20
3136.7247158196074
 30
0.0
 10
40.38075938767008
 20
3136.747782718718
 30
0.0
  0
LINE
  5
1022B
330
1F
100
AcDbEntity
  8
0
100
AcDbLine
 10
40.380759387670224
 20
3136.7477827187176
 30
0.0
 11
20.276191799023735
 21
3136.747782718718
 31
0.0
  0
LINE
  5
1022C
330
1F
100
AcDbEntity
  8
0
100
AcDbLine
 10
20.276191799023735
 20
3136.747782718718
 30
0.0
 11
20.276191799023735
 21
3139.747782718718
 31
0.0
  0
LINE
  5
1022D
330
1F
100
AcDbEntity
  8
0
100
AcDbLine
 10
20.276191799023735
 20
3139.747782718718
 30
0.0
 11
15.126191799023587
 21
3139.747782718718
 31
0.0
  0
LINE
  5
1022E
330
1F
100
AcDbEntity
  8
0
100
AcDbLine
 10
15.126191799023587
 20
3139.747782718718
 30
0.0
 11
15.126191799023587
 21
3136.747782718718
 31
0.0
  0
LINE
  5
1022F
330
1F
100
AcDbEntity
  8
0
100
AcDbLine
 10
15.126191799023587
 20
3136.747782718718
 30
0.0
 11
10.000000000000142
 21
3136.747782718718
 31
0.0
  0
LINE
  5
10230
330
1F
100
AcDbEntity
  8
0
100
AcDbLine
 10
48.6034133777945
 20
3261.8977827187177
 30
1.4210854715202004e-13
 11
48.6034133777945
 21
3263.8977827187177
 31
1.4210854715202004e-13
  0
LINE
  5
10231
330
1F
100
AcDbEntity
  8
0
100
AcDbLine
 10
48.6034133777945
 20
3263.8977827187177
 30
1.4210854715202004e-13
 11
40.45262850330944
 21
3263.8977827187177
 31
1.4210854715202004e-13
  0
LINE
  5
10232
330
1F
100
AcDbEntity
  8
0
100
AcDbLine
 10
40.45262850330943
 20
3263.8977827187177
 30
0.0
 11
40.45262850330943
 21
3261.8977827187177
 31
0.0
  0
LINE
  5
10233
330
1F
100
AcDbEntity
  8
0
100
AcDbLine
 10
40.45262850330943
 20
3261.8977827187177
 30
0.0
 11
24.355727162893675
 21
3261.8977827187177
 31
0.0
  0
LINE
  5
10234
330
1F
100
AcDbEntity
  8
0
100
AcDbLine
 10
24.355727162893675
 20
3261.8977827187177
 30
0.0
 11
24.355727162893675
 21
3263.8977827187177
 31
0.0
  0
LINE
  5
10235
330
1F
100
AcDbEntity
  8
0
100
AcDbLine
 10
24.355727162893675
 20
3263.8977827187177
 30
0.0
 11
16.205727162893663
 21
3263.8977827187177
 31
0.0
  0
LINE
  5
10236
330
1F
100
AcDbEntity
  8
0
100
AcDbLine
 10
16.20572716289368
 20
3263.8977827187177
 30
1.4210854715202004e-13
 11
16.20572716289368
 21
3261.8977827187177
 31
1.4210854715202004e-13
  0
LINE
  5
10237
330
1F
100
AcDbEntity
  8
0
100
AcDbLine
 10
16.20572716289368
 20
3261.8977827187177
 30
1.4210854715202004e-13
 11
10.0
 21
3261.8977827187177
 31
1.4210854715202004e-13
  0
LINE
  5
10238
330
1F
100
AcDbEntity
  8
0
100
AcDbLine
 10
10.0
 20
3261.8977827187177
 30
1.4210854715202004e-13
 11
10.0
 21
3259.782760888661
 31
1.4210854715202004e-13
  0
SPLINE
  5
10239
330
1F
100
AcDbEntity
  8
0
100
AcDbSpline
 70
0
 71
3
 72
17
 73
13
 74
0
 42
1e-09
 40
-0.001314632621066211
 40
-0.001314632621066211
 40
-0.001314632621066211
 40
-0.001314632621066211
 40
0.0
 40
0.0
 40
0.0
 40
0.5
 40
0.5
 40
0.5
 40
1.0
 40
1.0
 40
1.0
 40
1.0057125214195246
 40
1.0057125214195246
 40
1.0057125214195246
 40
1.0057125214195246
 10
9.999999999999815
 20
3259.7827608886614
 30
1.4210854715202004e-13
 10
10.011082074046797
 20
3259.775333943765
 30
0.0
 10
10.02216414809375
 20
3259.767906998868
 30
0.0
 10
10.033246222140711
 20
3259.7604800539716
 30
0.0
 10
14.242287743807221
 20
3256.9396796048736
 30
0.0
 10
17.347194675543257
 20
3254.051340927968
 30
0.0
 10
18.800077847629787
 20
3251.076646186336
 30
0.0
 10
20.252961019716494
 20
3248.101951444704
 30
0.0
 10
19.980393125260157
 20
3245.030094571478
 30
1.4210854715202004e-13
 10
18.350692552539694
 20
3241.8570480330864
 30
0.0
 10
18.331986056721444
 20
3241.82062626163
 30
1.4210854715202004e-13
 10
18.313279560903176
 20
3241.784204490174
 30
0.0
 10
18.29457306508489
 20
3241.747782718718
 30
0.0
  0
LINE
  5
1023A
330
1F
100
AcDbEntity
  8
0
100
AcDbLine
 10
18.294573065084908
 20
3241.747782718718
 30
0.0
 11
21.58437970117651
 21
3241.747782718718
 31
0.0
  0
LINE
  5
1023B
330
1F
100
AcDbEntity
  8
0
100
AcDbLine
 10
21.58437970117651
 20
3241.747782718718
 30
0.0
 11
21.584379701176527
 21
3239.747782718718
 31
0.0
  0
LINE
  5
1023C
330
1F
100
AcDbEntity
  8
0
100
AcDbLine
 10
21.584379701176527
 20
3239.747782718718
 30
0.0
 11
25.734379701176536
 21
3239.747782718718
 31
0.0
  0
LINE
  5
1023D
330
1F
100
AcDbEntity
  8
0
100
AcDbLine
 10
25.734379701176554
 20
3239.747782718718
 30
0.0
 11
25.734379701176536
 21
3241.747782718718
 31
0.0
  0
LINE
  5
1023E
330
1F
100
AcDbEntity
  8
0
100
AcDbLine
 10
25.734379701176536
 20
3241.747782718718
 30
0.0
 11
31.780413810066786
 21
3241.7477827187176
 31
0.0
  0
SPLINE
  5
1023F
330
1F
100
AcDbEntity
  8
0
100
AcDbSpline
 70
0
 71
3
 72
35
 73
31
 74
0
 42
1e-09
 40
-0.0010047609231214724
 40
-0.0010047609231214724
 40
-0.0010047609231214724
 40
-0.0010047609231214724
 40
0.0
 40
0.0
 40
0.0
 40
0.14157584072643511
 40
0.14157584072643511
 40
0.14157584072643511
 40
0.24887886063563072
 40
0.24887886063563072
 40
0.24887886063563072
 40
0.34044960096711463
 40
0.34044960096711463
 40
0.34044960096711463
 40
0.4412866938468443
 40
0.4412866938468443
 40
0.4412866938468443
 40
0.5467471108650538
 40
0.5467471108650538
 40
0.5467471108650538
 40
0.773373555432527
 40
0.773373555432527
 40
0.773373555432527
 40
0.9329820947021238
 40
0.9329820947021238
 40
0.9329820947021238
 40
1.0
 40
1.0
 40
1.0
 40
1.0023418728055764
 40
1.0023418728055764
 40
1.0023418728055764
 40
1.0023418728055764
 10
31.78041381006677
 20
3241.7477827187176
 30
0.0
 10
31.76825364504152
 20
3241.781307341952
 30
1.4210854715202004e-13
 10
31.75609348001625
 20
3241.814831965186
 30
1.4210854715202004e-13
 10
31.743933314991036
 20
3241.84835658842
 30
0.0
 10
30.031105221039148
 20
3246.570489585395
 30
0.0
 10
28.861227609493213
 20
3250.1246269489293
 30
0.0
 10
28.71447921024522
 20
3252.604042595711
 30
0.0
 10
28.603255809943647
 20
3254.483238828236
 30
1.4210854715202004e-13
 10
29.112702918507015
 20
3255.7381280969207
 30
0.0
 10
30.380188287371258
 20
3256.5330781396033
 30
0.0
 10
31.461840730000038
 20
3257.211476231256
 30
0.0
 10
33.11917117162492
 20
3257.5502097136077
 30
1.4210854715202004e-13
 10
35.110448175019215
 20
3257.630745543156
 30
0.0
 10
37.30322922509778
 20
3257.7194310653535
 30
0.0
 10
39.83011471419322
 20
3257.5026998867615
 30
1.4210854715202004e-13
 10
41.95897663354314
 20
3257.113580953761
 30
0.0
 10
44.185445677594274
 20
3256.7066211359797
 30
0.0
 10
45.97530634212248
 20
3256.110665903539
 30
1.4210854715202004e-13
 10
47.16364687190499
 20
3255.411075353077
 30
1.4210854715202004e-13
 10
49.71730062005521
 20
3253.907708273874
 30
0.0
 10
49.60029619993159
 20
3251.959920973743
 30
1.4210854715202004e-13
 10
49.17103318612016
 20
3249.662401380399
 30
0.0
 10
48.86871170405452
 20
3248.044303603078
 30
0.0
 10
48.39679974921666
 20
3246.2602305806527
 30
0.0
 10
47.96991231966051
 20
3244.3361974910617
 30
0.0
 10
47.790666889198135
 20
3243.528316734943
 30
0.0
 10
47.613844143668516
 20
3242.6953450992755
 30
0.0
 10
47.44038484798739
 20
3241.83764964259
 30
0.0
 10
47.43432665518777
 20
3241.8076940012993
 30
0.0
 10
47.42826846238816
 20
3241.7777383600087
 30
0.0
 10
47.42221026958855
 20
3241.747782718718
 30
0.0
  0
LINE
  5
10240
330
1F
100
AcDbEntity
  8
0
100
AcDbLine
 10
47.42221026958855
 20
3241.747782718718
 30
0.0
 11
49.74842620383472
 21
3241.747782718718
 31
0.0
  0
LINE
  5
10241
330
1F
100
AcDbEntity
  8
0
100
AcDbLine
 10
49.748426203834704
 20
3241.747782718718
 30
0.0
 11
49.74842620383472
 21
3239.747782718718
 31
-1.5561513950648866e-29
  0
LINE
  5
10242
330
1F
100
AcDbEntity
  8
0
100
AcDbLine
 10
49.74842620383472
 20
3239.747782718718
 30
0.0
 11
53.89842620383472
 21
3239.747782718718
 31
0.0
  0
LINE
  5
10243
330
1F
100
AcDbEntity
  8
0
100
AcDbLine
 10
53.89842620383472
 20
3239.747782718718
 30
0.0
 11
53.89842620383473
 21
3241.747782718718
 31
0.0
  0
LINE
  5
10244
330
1F
100
AcDbEntity
  8
0
100
AcDbLine
 10
53.89842620383474
 20
3241.747782718718
 30
0.0
 11
56.11966690417739
 21
3241.747782718718
 31
0.0
  0
SPLINE
  5
10245
330
1F
100
AcDbEntity
  8
0
100
AcDbSpline
 70
0
 71
3
 72
26
 73
22
 74
0
 42
1e-09
 40
-0.9896228465909659
 40
-0.9896228465909659
 40
-0.9896228465909659
 40
-0.9896228465909659
 40
-0.987080344095479
 40
-0.987080344095479
 40
-0.987080344095479
 40
-0.7403102580716092
 40
-0.7403102580716092
 40
-0.7403102580716092
 40
-0.5480709352947709
 40
-0.5480709352947709
 40
-0.5480709352947709
 40
-0.30540545045466966
 40
-0.30540545045466966
 40
-0.30540545045466966
 40
-0.10347459711193194
 40
-0.10347459711193194
 40
-0.10347459711193194
 40
0.0
 40
0.0
 40
0.0
 40
0.004249775204382685
 40
0.004249775204382685
 40
0.004249775204382685
 40
0.004249775204382685
 10
56.11966690417738
 20
3241.747782718718
 30
0.0
 10
56.103177958064734
 20
3241.783307927723
 30
0.0
 10
56.08668901195206
 20
3241.8188331367282
 30
0.0
 10
56.07020006583939
 20
3241.8543583457335
 30
0.0
 10
54.476093083676865
 20
3245.288840048261
 30
0.0
 10
54.39851883871688
 20
3248.1621378545174
 30
0.0
 10
55.818102558015724
 20
3250.4650034326123
 30
1.4210854715202004e-13
 10
56.92398948791142
 20
3252.2589863513376
 30
0.0
 10
58.968776915128075
 20
3253.706588221104
 30
0.0
 10
61.51283680372669
 20
3254.8558541261227
 30
0.0
 10
64.72422725918359
 20
3256.306583165442
 30
1.4210854715202004e-13
 10
68.64594039491251
 20
3257.2937660153507
 30
0.0
 10
71.93753087832681
 20
3258.022821195444
 30
1.4210854715202004e-13
 10
74.67658408817513
 20
3258.6294947598662
 30
0.0
 10
76.96193025879131
 20
3259.0609348938397
 30
0.0
 10
78.57605988341982
 20
3259.3709765682665
 30
1.4210854715202004e-13
 10
79.40318169185089
 20
3259.5298499490214
 30
0.0
 10
80.06407546302506
 20
3259.6555080854337
 30
0.0
 10
80.55975755795839
 20
3259.7490844895924
 30
1.4210854715202004e-13
 10
80.58011989782305
 20
3259.7529285553037
 30
0.0
 10
80.60048223768769
 20
3259.756772621015
 30
0.0
 10
80.62084457755235
 20
3259.7606166867263
 30
0.0
  0
LINE
  5
10246
330
1F
100
AcDbEntity
  8
0
100
AcDbLine
 10
80.62084457755235
 20
3259.7606166867263
 30
0.0
 11
80.62084457755233
 21
3261.8977827187177
 31
-7.996461129095803e-30
  0
LINE
  5
10247
330
1F
100
AcDbEntity
  8
0
100
AcDbLine
 10
80.62084457755233
 20
3261.8977827187177
 30
0.0
 11
73.49320798940698
 21
3261.8977827187177
 31
0.0
  0
LINE
  5
10248
330
1F
100
AcDbEntity
  8
0
100
AcDbLine
 10
73.493207989407
 20
3261.8977827187177
 30
1.4210854715202004e-13
 11
73.493207989407
 21
3263.8977827187177
 31
1.4210854715202004e-13
  0
LINE
  5
10249
330
1F
100
AcDbEntity
  8
0
100
AcDbLine
 10
73.493207989407
 20
3263.8977827187177
 30
1.4210854715202004e-13
 11
65.34242311492196
 21
3263.8977827187177
 31
1.4210854715202004e-13
  0
LINE
  5
1024A
330
1F
100
AcDbEntity
  8
0
100
AcDbLine
 10
65.34242311492196
 20
3263.8977827187177
 30
0.0
 11
65.34242311492193
 21
3261.8977827187177
 31
0.0
  0
LINE
  5
1024B
330
1F
100
AcDbEntity
  8
0
100
AcDbLine
 10
65.34242311492193
 20
3261.8977827187177
 30
0.0
 11
48.60341337779448
 21
3261.8977827187177
 31
0.0
  0
ENDSEC
  0
SECTION
  2
OBJECTS
  0
DICTIONARY
  5
C
330
None
100
AcDbDictionary
281
1
  3
ACAD_GROUP
350
D
  3
ACAD_MLINESTYLE
350
17
  3
ACAD_COLOR
350
1005A
  3
ACAD_LAYOUT
350
1005B
  3
ACAD_MATERIAL
350
1005C
  3
ACAD_MLEADERSTYLE
350
1005D
  3
ACAD_PLOTSETTINGS
350
1005E
  3
ACAD_PLOTSTYLENAME
350
1005F
  3
ACAD_SCALELIST
350
10061
  3
ACAD_TABLESTYLE
350
10062
  3
ACAD_VISUALSTYLE
350
10063
  0
DICTIONARY
  5
D
330
None
100
AcDbDictionary
281
1
  0
DICTIONARY
  5
1A
330
C
100
AcDbDictionary
281
1
  0
DICTIONARY
  5
17
330
None
100
AcDbDictionary
281
1
  3
Standard
350
10069
  0
DICTIONARY
  5
1005A
330
C
100
AcDbDictionary
281
1
  0
DICTIONARY
  5
1005B
330
C
100
AcDbDictionary
281
1
  3
Model
350
10064
  3
Layout1
350
10065
  0
DICTIONARY
  5
1005C
330
C
100
AcDbDictionary
281
1
  3
ByBlock
350
10066
  3
ByLayer
350
10067
  3
Global
350
10068
  0
DICTIONARY
  5
1005D
330
C
100
AcDbDictionary
281
1
  3
Standard
350
1006E
  0
DICTIONARY
  5
1005E
330
C
100
AcDbDictionary
281
1
  0
ACDBDICTIONARYWDFLT
  5
1005F
330
C
100
AcDbDictionary
281
1
  3
Normal
350
10060
100
AcDbDictionaryWithDefault
340
10060
  0
ACDBPLACEHOLDER
  5
10060
330
1005F
  0
DICTIONARY
  5
10061
330
C
100
AcDbDictionary
281
1
  0
DICTIONARY
  5
10062
330
C
100
AcDbDictionary
281
1
  0
DICTIONARY
  5
10063
330
C
100
AcDbDictionary
281
1
  0
LAYOUT
  5
10064
330
1005B
100
AcDbPlotSettings
  1

  2
Adobe PDF
  4
A4
  6

 40
3.175
 41
3.175
 42
3.175
 43
3.175
 44
209.91
 45
297.03
 46
0.0
 47
0.0
 48
0.0
 49
0.0
140
0.0
141
0.0
142
1.0
143
1.0
 70
1024
 72
0
 73
1
 74
5
  7

 75
16
 76
0
 77
2
 78
300
147
1.0
148
0.0
149
0.0
100
AcDbLayout
  1
Model
 70
1
 71
0
 10
-3.175
 20
-3.175
 11
293.857
 21
206.735
 12
0.0
 22
0.0
 32
0.0
 14
29.068
 24
20.356
 34
0.0
 15
261.614
 25
183.204
 35
0.0
146
0.0
 13
0.0
 23
0.0
 33
0.0
 16
1.0
 26
0.0
 36
0.0
 17
0.0
 27
1.0
 37
0.0
 76
1
330
1F
  0
LAYOUT
  5
10065
330
1005B
100
AcDbPlotSettings
  1

  2
Adobe PDF
  4
A4
  6

 40
3.175
 41
3.175
 42
3.175
 43
3.175
 44
209.91
 45
297.03
 46
0.0
 47
0.0
 48
0.0
 49
0.0
140
0.0
141
0.0
142
1.0
143
1.0
 70
0
 72
0
 73
1
 74
5
  7

 75
16
 76
0
 77
2
 78
300
147
1.0
148
0.0
149
0.0
100
AcDbLayout
  1
Layout1
 70
1
 71
1
 10
-3.175
 20
-3.175
 11
293.857
 21
206.735
 12
0.0
 22
0.0
 32
0.0
 14
29.068
 24
20.356
 34
0.0
 15
261.614
 25
183.204
 35
0.0
146
0.0
 13
0.0
 23
0.0
 33
0.0
 16
1.0
 26
0.0
 36
0.0
 17
0.0
 27
1.0
 37
0.0
 76
1
330
1B
  0
MATERIAL
  5
10066
102
{ACAD_REACTORS
330
1005C
102
}
330
1005C
100
AcDbMaterial
  1
ByBlock
  2

 70
0
 40
1.0
 71
1
 41
1.0
 91
-1023410177
 42
1.0
 72
1
  3

 73
1
 74
1
 75
1
 44
0.5
 73
0
 45
1.0
 46
1.0
 77
1
  4

 78
1
 79
1
170
1
 48
1.0
171
1
  6

172
1
173
1
174
1
140
1.0
141
1.0
175
1
  7

176
1
177
1
178
1
143
1.0
179
1
  8

270
1
271
1
272
1
145
1.0
146
1.0
273
1
  9

274
1
275
1
276
1
 42
1.0
 72
1
  3

 73
1
 74
1
 75
1
 94
63
  0
MATERIAL
  5
10067
102
{ACAD_REACTORS
330
1005C
102
}
330
1005C
100
AcDbMaterial
  1
ByLayer
  2

 70
0
 40
1.0
 71
1
 41
1.0
 91
-1023410177
 42
1.0
 72
1
  3

 73
1
 74
1
 75
1
 44
0.5
 73
0
 45
1.0
 46
1.0
 77
1
  4

 78
1
 79
1
170
1
 48
1.0
171
1
  6

172
1
173
1
174
1
140
1.0
141
1.0
175
1
  7

176
1
177
1
178
1
143
1.0
179
1
  8

270
1
271
1
272
1
145
1.0
146
1.0
273
1
  9

274
1
275
1
276
1
 42
1.0
 72
1
  3

 73
1
 74
1
 75
1
 94
63
  0
MATERIAL
  5
10068
102
{ACAD_REACTORS
330
1005C
102
}
330
1005C
100
AcDbMaterial
  1
Global
  2

 70
0
 40
1.0
 71
1
 41
1.0
 91
-1023410177
 42
1.0
 72
1
  3

 73
1
 74
1
 75
1
 44
0.5
 73
0
 45
1.0
 46
1.0
 77
1
  4

 78
1
 79
1
170
1
 48
1.0
171
1
  6

172
1
173
1
174
1
140
1.0
141
1.0
175
1
  7

176
1
177
1
178
1
143
1.0
179
1
  8

270
1
271
1
272
1
145
1.0
146
1.0
273
1
  9

274
1
275
1
276
1
 42
1.0
 72
1
  3

 73
1
 74
1
 75
1
 94
63
  0
MLINESTYLE
  5
10069
102
{ACAD_REACTORS
330
17
102
}
330
17
100
AcDbMlineStyle
  2
Standard
 70
0
  3

 62
256
 51
90.0
 52
90.0
 71
2
 49
0.5
 62
256
  6
BYLAYER
 49
-0.5
 62
256
  6
BYLAYER
  0
MLEADERSTYLE
  5
1006E
102
{ACAD_REACTORS
330
1005D
102
}
330
1005D
100
AcDbMLeaderStyle
179
2
170
2
171
1
172
0
 90
2
 40
0.0
 41
0.0
173
1
 91
-1056964608
 92
-2
290
1
 42
2.0
291
1
 43
8.0
  3
Standard
 44
4.0
300

342
11
174
1
175
1
176
0
178
1
 93
-1056964608
 45
4.0
292
0
297
0
 46
4.0
 94
-1056964608
 47
1.0
 49
1.0
140
1.0
294
1
141
0.0
177
0
142
1.0
295
0
296
0
143
3.75
271
0
272
9
273
9
  0
ENDSEC
  0
EOF
