0
SECTION
2
HEADER
9
$INSUNITS
70
4
9
$ACADVER
1
AC1014
9
$HANDSEED
5
FFFF
0
ENDSEC
0
SECTION
2
TABLES
0
TABLE
2
VPORT
5
8
100
AcDbSymbolTable
0
ENDTAB
0
TABLE
2
LTYPE
5
5
100
AcDbSymbolTable
0
LTYPE
5
14
100
AcDbSymbolTableRecord
100
AcDbLinetypeTableRecord
2
BYBLOCK
70
0
0
LTYPE
5
15
100
AcDbSymbolTableRecord
100
AcDbLinetypeTableRecord
2
BYLAYER
70
0
0
ENDTAB
0
TABLE
2
LAYER
5
2
100
AcDbSymbolTable
70
2
0
LAYER
5
50
100
AcDbSymbolTableRecord
100
AcDbLayerTableRecord
2
0
70
0
6
CONTINUOUS
0
ENDTAB
0
TABLE
2
STYLE
5
3
100
AcDbSymbolTable
70
1
0
STYLE
5
11
100
AcDbSymbolTableRecord
100
AcDbTextStyleTableRecord
2
STANDARD
70
0
0
ENDTAB
0
TABLE
2
VIEW
5
6
100
AcDbSymbolTable
70
0
0
ENDTAB
0
TABLE
2
UCS
5
7
100
AcDbSymbolTable
70
0
0
ENDTAB
0
TABLE
2
APPID
5
9
100
AcDbSymbolTable
70
2
0
APPID
5
12
100
AcDbSymbolTableRecord
100
AcDbRegAppTableRecord
2
ACAD
70
0
0
ENDTAB
0
TABLE
2
DIMSTYLE
5
A
100
AcDbSymbolTable
70
1
0
ENDTAB
0
TABLE
2
BLOCK_RECORD
5
1
100
AcDbSymbolTable
70
1
0
BLOCK_RECORD
5
1F
100
AcDbSymbolTableRecord
100
AcDbBlockTableRecord
2
*MODEL_SPACE
0
BLOCK_RECORD
5
1B
100
AcDbSymbolTableRecord
100
AcDbBlockTableRecord
2
*PAPER_SPACE
0
ENDTAB
0
ENDSEC
0
SECTION
2
BLOCKS
0
BLOCK
5
20
100
AcDbEntity
100
AcDbBlockBegin
2
*MODEL_SPACE
0
ENDBLK
5
21
100
AcDbEntity
100
AcDbBlockEnd
0
BLOCK
5
1C
100
AcDbEntity
100
AcDbBlockBegin
2
*PAPER_SPACE
0
ENDBLK
5
1D
100
AcDbEntity
100
AcDbBlockEnd
0
ENDSEC
0
SECTION
2
ENTITIES
0
LINE
5
100
100
AcDbEntity
8
0
100
AcDbLine
10
32.075000000000003
20
5.3591928989775894
30
0
11
30.075000000000003
21
5.3591928989775894
31
0
0
LINE
5
101
100
AcDbEntity
8
0
100
AcDbLine
10
30.075000000000003
20
5.3591928989775894
30
0
11
30.075000000000056
21
10.000581784659772
31
0
0
SPLINE
5
102
100
AcDbEntity
8
0
100
AcDbSpline
70
0
71
3
72
32
73
28
74
0
42
0.000000001
43
0.0000000001
44
0.0000000001
40
-1.0018117231159249
40
-1.0018117231159249
40
-1.0018117231159249
40
-1.0018117231159249
40
-1
40
-1
40
-1
40
-0.8339166241755781
40
-0.8339166241755781
40
-0.8339166241755781
40
-0.69103357516729202
40
-0.69103357516729202
40
-0.69103357516729202
40
-0.51827518137546902
40
-0.51827518137546902
40
-0.51827518137546902
40
-0.38870638603160179
40
-0.38870638603160179
40
-0.38870638603160179
40
-0.26198854777316172
40
-0.26198854777316172
40
-0.26198854777316172
40
-0.13566636284322858
40
-0.13566636284322858
40
-0.13566636284322858
40
-0.028109145915552358
40
-0.028109145915552358
40
-0.028109145915552358
40
-5.3710349450060332e-05
40
-5.3710349450060332e-05
40
-5.3710349450060332e-05
40
-5.3710349450060332e-05
10
30.074999999999832
20
10.000581784659719
30
0
10
30.053299460291711
20
10.003471061106097
30
0
10
30.031598920583541
20
10.00636033755244
30
0
10
30.00989838087537
20
10.009249613998783
30
0
10
28.001000361739163
20
10.276720460708511
30
0
10
25.292379367392051
20
9.8154325102186135
30
0
10
21.897224320134171
20
8.6944343382694989
30
0
10
18.976341344339414
20
7.7300293462242209
30
0
10
15.535070072636486
20
6.2587574227627307
30
0
10
11.794516069344606
20
4.674109875470247
30
0
10
7.2718515126636873
20
2.7581291702955824
30
0
10
2.3319960319800348
20
0.73425618079300037
30
0
10
-2.287656455674334
20
-0.312476056480957
30
0
10
-5.7523958214151083
20
-1.097525234436425
30
0
10
-9.023749535202219
20
-1.3122631608620061
30
0
10
-11.854699043094516
20
-0.8088554069656162
30
0
10
-14.62335796985891
20
-0.31652434710672139
30
0
10
-16.962474525847586
20
0.85854723900624208
30
0
10
-18.852505612115429
20
2.3923262254530364
30
0
10
-20.736635421179201
20
3.9213162668742463
30
0
10
-22.162411569546492
20
5.8017805696916902
30
0
10
-23.468723708523758
20
7.3279273878642037
30
0
10
-24.58098517063484
20
8.6273674226982422
30
0
10
-25.646398471659584
20
9.6356670358353114
30
0
10
-26.944274393771906
20
9.9260657947947095
30
0
10
-27.282814896638421
20
10.001813977047682
30
0
10
-27.635359780888553
20
10.030279447084514
30
0
10
-28.002090986071515
20
10.009905669685555
30
0
0
LINE
5
103
100
AcDbEntity
8
0
100
AcDbLine
10
-28.002090986071515
20
10.009905669685537
30
0
11
-30.075000000000003
21
10.009905669685573
31
0
0
LINE
5
104
100
AcDbEntity
8
0
100
AcDbLine
10
-30.075000000000003
20
10.009905669685573
30
0
11
-30.075000000000003
21
6.0099056696856046
31
0
0
LINE
5
105
100
AcDbEntity
8
0
100
AcDbLine
10
-30.075000000000003
20
6.0099056696856046
30
0
11
-32.074999999999996
21
6.0099056696856046
31
0
0
LINE
5
106
100
AcDbEntity
8
0
100
AcDbLine
10
-32.074999999999996
20
6.0099056696856046
30
0
11
-32.074999999999996
21
-2.1400943303144082
31
0
0
LINE
5
107
100
AcDbEntity
8
0
100
AcDbLine
10
-32.074999999999996
20
-2.1400943303144082
30
0
11
-30.075000000000003
21
-2.1400943303144082
31
0
0
LINE
5
108
100
AcDbEntity
8
0
100
AcDbLine
10
-30.075000000000003
20
-2.1400943303144082
30
0
11
-30.075000000000038
21
-6.1173378280063773
31
0
0
SPLINE
5
109
100
AcDbEntity
8
0
100
AcDbSpline
70
0
71
3
72
26
73
22
74
0
42
0.000000001
43
0.0000000001
44
0.0000000001
40
-0.00049221633934320151
40
-0.00049221633934320151
40
-0.00049221633934320151
40
-0.00049221633934320151
40
0
40
0
40
0
40
0.19775433540256709
40
0.19775433540256709
40
0.19775433540256709
40
0.40015695062612638
40
0.40015695062612638
40
0.40015695062612638
40
0.58414729495961371
40
0.58414729495961371
40
0.58414729495961371
40
0.75848526468764543
40
0.75848526468764543
40
0.75848526468764543
40
1
40
1
40
1
40
1.0036066685161285
40
1.0036066685161285
40
1.0036066685161285
40
1.0036066685161285
10
-30.075000000000198
20
-6.1173378280062707
30
0
10
-30.058664963442681
20
-6.1233736679744588
30
0
10
-30.042329926885145
20
-6.1294095079426292
30
0
10
-30.025994890327627
20
-6.1354453479108173
30
0
10
-23.458036259858154
20
-8.5623237372872651
30
0
10
-17.888486306973075
20
-9.7816500772405668
30
0
10
-13.022228667474591
20
-10.021749574399585
30
0
10
-8.0415880631557179
20
-10.267492688146849
30
0
10
-3.756179433034541
20
-9.49458744601543
30
0
10
0.30034609674742363
20
-8.2882089850076568
30
0
10
3.987855411771779
20
-7.191573014211734
30
0
10
7.5147003617080887
20
-5.7330721436208343
30
0
10
10.922416405898545
20
-4.5643164383380075
30
0
10
14.151359200184492
20
-3.4568751891507965
30
0
10
17.225580506518163
20
-2.6654451600610507
30
0
10
20.00645251113643
20
-2.5741760371062838
30
0
10
23.858863819933088
20
-2.4477386459459005
30
0
10
27.169009997771969
20
-3.6179029094932957
30
0
10
29.949825401323238
20
-6.1208393717766185
30
0
10
29.991550267548838
20
-6.1583947912865256
30
0
10
30.033275133774431
20
-6.1959502107964148
30
0
10
30.075000000000031
20
-6.2335056303063219
30
0
0
LINE
5
110
100
AcDbEntity
8
0
100
AcDbLine
10
30.075000000000031
20
-6.2335056303063219
30
0
11
30.075000000000003
21
-1.6489037304025445
31
0
0
LINE
5
111
100
AcDbEntity
8
0
100
AcDbLine
10
30.075000000000003
20
-1.6489037304025445
30
0
11
32.075000000000003
21
-1.6489037304025445
31
0
0
LINE
5
112
100
AcDbEntity
8
0
100
AcDbLine
10
32.075000000000003
20
-1.6489037304025445
30
0
11
32.075000000000003
21
5.3591928989775894
31
0
0
ENDSEC
0
SECTION
2
OBJECTS
0
DICTIONARY
5
C
100
AcDbDictionary
3
ACAD_GROUP
350
D
3
ACAD_MLINESTYLE
350
17
0
DICTIONARY
5
D
100
AcDbDictionary
0
DICTIONARY
5
1A
330
C
100
AcDbDictionary
0
DICTIONARY
5
17
100
AcDbDictionary
0
ENDSEC
0
EOF
