0
SECTION
2
HEADER
9
$INSUNITS
70
4
9
$ACADVER
1
AC1014
9
$HANDSEED
5
FFFF
0
ENDSEC
0
SECTION
2
TABLES
0
TABLE
2
VPORT
5
8
100
AcDbSymbolTable
0
ENDTAB
0
TABLE
2
LTYPE
5
5
100
AcDbSymbolTable
0
LTYPE
5
14
100
AcDbSymbolTableRecord
100
AcDbLinetypeTableRecord
2
BYBLOCK
70
0
0
LTYPE
5
15
100
AcDbSymbolTableRecord
100
AcDbLinetypeTableRecord
2
BYLAYER
70
0
0
ENDTAB
0
TABLE
2
LAYER
5
2
100
AcDbSymbolTable
70
2
0
LAYER
5
50
100
AcDbSymbolTableRecord
100
AcDbLayerTableRecord
2
0
70
0
6
CONTINUOUS
0
ENDTAB
0
TABLE
2
STYLE
5
3
100
AcDbSymbolTable
70
1
0
STYLE
5
11
100
AcDbSymbolTableRecord
100
AcDbTextStyleTableRecord
2
STANDARD
70
0
0
ENDTAB
0
TABLE
2
VIEW
5
6
100
AcDbSymbolTable
70
0
0
ENDTAB
0
TABLE
2
UCS
5
7
100
AcDbSymbolTable
70
0
0
ENDTAB
0
TABLE
2
APPID
5
9
100
AcDbSymbolTable
70
2
0
APPID
5
12
100
AcDbSymbolTableRecord
100
AcDbRegAppTableRecord
2
ACAD
70
0
0
ENDTAB
0
TABLE
2
DIMSTYLE
5
A
100
AcDbSymbolTable
70
1
0
ENDTAB
0
TABLE
2
BLOCK_RECORD
5
1
100
AcDbSymbolTable
70
1
0
BLOCK_RECORD
5
1F
100
AcDbSymbolTableRecord
100
AcDbBlockTableRecord
2
*MODEL_SPACE
0
BLOCK_RECORD
5
1B
100
AcDbSymbolTableRecord
100
AcDbBlockTableRecord
2
*PAPER_SPACE
0
ENDTAB
0
ENDSEC
0
SECTION
2
BLOCKS
0
BLOCK
5
20
100
AcDbEntity
100
AcDbBlockBegin
2
*MODEL_SPACE
0
ENDBLK
5
21
100
AcDbEntity
100
AcDbBlockEnd
0
BLOCK
5
1C
100
AcDbEntity
100
AcDbBlockBegin
2
*PAPER_SPACE
0
ENDBLK
5
1D
100
AcDbEntity
100
AcDbBlockEnd
0
ENDSEC
0
SECTION
2
ENTITIES
0
LINE
5
100
100
AcDbEntity
8
0
100
AcDbLine
10
-3.597991633481783
20
-12.075000000000014
30
-1.4210854715202004e-13
11
4.5520083665181588
21
-12.075000000000014
31
-1.4210854715202004e-13
0
LINE
5
101
100
AcDbEntity
8
0
100
AcDbLine
10
4.5520083665181232
20
-12.075000000000014
30
0
11
4.5520083665181588
21
-10.075000000000012
31
-9.8607613152626476e-31
0
LINE
5
102
100
AcDbEntity
8
0
100
AcDbLine
10
4.5520083665181943
20
-10.075000000000012
30
-1.4210854715202004e-13
11
7.2341018138159896
21
-10.075000000000006
31
-1.4210854715202004e-13
0
SPLINE
5
103
100
AcDbEntity
8
0
100
AcDbSpline
70
0
71
3
72
23
73
19
74
0
42
0.000000001
43
0.0000000001
44
0.0000000001
40
-1.0034501730861973
40
-1.0034501730861973
40
-1.0034501730861973
40
-1.0034501730861973
40
-1
40
-1
40
-1
40
-0.78069981878553107
40
-0.78069981878553107
40
-0.78069981878553107
40
-0.51736498204009207
40
-0.51736498204009207
40
-0.51736498204009207
40
-0.29527072772092955
40
-0.29527072772092955
40
-0.29527072772092955
40
0
40
0
40
0
40
0.0088483515803247405
40
0.0088483515803247405
40
0.0088483515803247405
40
0.0088483515803247405
10
7.2341018138160251
20
-10.074999999999941
30
-1.4210854715202004e-13
10
7.2076159570154985
20
-10.035963599963713
30
-1.4210854715202004e-13
10
7.1811301002149008
20
-9.9969271999274856
30
-1.4210854715202004e-13
10
7.1546442434144097
20
-9.9578907998912527
30
-1.4210854715202004e-13
10
5.4763606538832477
20
-7.4843385916870098
30
-1.4210854715202004e-13
10
4.7778897011037458
20
-5.4133878768759525
30
-1.4210854715202004e-13
10
4.7242278417319028
20
-3.6260573136130869
30
0
10
4.659790881858612
20
-1.4798374633583222
30
0
10
5.4681942865985178
20
0.29233020782617913
30
-1.4210854715202004e-13
10
6.2478585562493549
20
1.962747096742663
30
0
10
6.9054204524551466
20
3.3715618131361191
30
0
10
7.5149595536347746
20
4.7144624117313372
30
-1.4210854715202004e-13
10
7.8948180871051221
20
5.9607451453009075
30
-1.4210854715202004e-13
10
8.3998338784979865
20
7.6176579313394521
30
0
10
8.56686305477389
20
9.056369074801335
30
-1.4210854715202004e-13
10
8.6785651324595392
20
9.9911006864325191
30
0
10
8.6819071711529716
20
10.019067124288341
30
-1.4210854715202004e-13
10
8.6852492098462619
20
10.047033562144163
30
-1.4210854715202004e-13
10
8.6885912485395522
20
10.074999999999985
30
-1.4210854715202004e-13
0
LINE
5
104
100
AcDbEntity
8
0
100
AcDbLine
10
8.6885912485394812
20
10.074999999999994
30
0
11
4.5520083665182289
21
10.075000000000003
31
0
0
LINE
5
105
100
AcDbEntity
8
0
100
AcDbLine
10
4.5520083665182653
20
10.075000000000003
30
-1.4210854715202004e-13
11
4.5520083665181943
21
12.075000000000005
31
-1.4210854715202004e-13
0
LINE
5
106
100
AcDbEntity
8
0
100
AcDbLine
10
4.5520083665181943
20
12.075000000000005
30
-1.4210854715202004e-13
11
-3.5979916334818185
21
12.075000000000005
31
-1.4210854715202004e-13
0
LINE
5
107
100
AcDbEntity
8
0
100
AcDbLine
10
-3.5979916334818185
20
12.075000000000005
30
-1.4210854715202004e-13
11
-3.5979916334817474
21
10.075000000000003
31
-1.4210854715202004e-13
0
LINE
5
108
100
AcDbEntity
8
0
100
AcDbLine
10
-3.5979916334817474
20
10.075000000000003
30
-1.4210854715202004e-13
11
-7.6169446724534851
21
10.075000000000012
31
-1.4210854715202004e-13
0
SPLINE
5
109
100
AcDbEntity
8
0
100
AcDbSpline
70
0
71
3
72
20
73
16
74
0
42
0.000000001
43
0.0000000001
44
0.0000000001
40
-0.01310539128067497
40
-0.01310539128067497
40
-0.01310539128067497
40
-0.01310539128067497
40
0
40
0
40
0
40
0.45621623672271183
40
0.45621623672271183
40
0.45621623672271183
40
0.96007987614388968
40
0.96007987614388968
40
0.96007987614388968
40
1
40
1
40
1
40
1.0037661174074872
40
1.0037661174074872
40
1.0037661174074872
40
1.0037661174074872
10
-7.6169446724531298
20
10.074999999999674
30
-1.4210854715202004e-13
10
-7.5592325812466044
20
10.030244388282608
30
0
10
-7.5015204900399368
20
9.9854887765655587
30
-1.4210854715202004e-13
10
-7.4438083988334114
20
9.9407331648485098
30
0
10
-5.4517418383343852
20
8.3958895171440773
30
0
10
-4.3951347791784912
20
6.2314966047000109
30
0
10
-4.4587538899177304
20
3.2889796506178604
30
0
10
-4.5290174055350363
20
0.039145071750179561
30
0
10
-5.9186597526772289
20
-4.1206004083743775
30
1.4210854715202004e-13
10
-8.1295525265509383
20
-8.8353129496720406
30
-1.4210854715202004e-13
10
-8.3047172069533559
20
-9.2088503392935106
30
-1.4210854715202004e-13
10
-8.4853681959243232
20
-9.5861112619092594
30
-1.4210854715202004e-13
10
-8.6714832791373198
20
-9.9670786027547553
30
-1.4210854715202004e-13
10
-8.6890576638463557
20
-10.003052401836516
30
-1.4210854715202004e-13
10
-8.7066320485553916
20
-10.039026200918277
30
-1.4210854715202004e-13
10
-8.7242064332643565
20
-10.075000000000028
30
-1.4210854715202004e-13
0
LINE
5
110
100
AcDbEntity
8
0
100
AcDbLine
10
-8.7242064332643565
20
-10.075000000000024
30
-1.4210854715202004e-13
11
-3.5979916334818176
21
-10.075000000000012
31
-1.4210854715202004e-13
0
LINE
5
111
100
AcDbEntity
8
0
100
AcDbLine
10
-3.5979916334817474
20
-10.075000000000012
30
-1.4210854715202004e-13
11
-3.597991633481783
21
-12.075000000000014
31
-1.4210854715202004e-13
0
ENDSEC
0
SECTION
2
OBJECTS
0
DICTIONARY
5
C
100
AcDbDictionary
3
ACAD_GROUP
350
D
3
ACAD_MLINESTYLE
350
17
0
DICTIONARY
5
D
100
AcDbDictionary
0
DICTIONARY
5
1A
330
C
100
AcDbDictionary
0
DICTIONARY
5
17
100
AcDbDictionary
0
ENDSEC
0
EOF
