0
SECTION
2
HEADER
9
$INSUNITS
70
4
9
$ACADVER
1
AC1014
9
$HANDSEED
5
FFFF
0
ENDSEC
0
SECTION
2
TABLES
0
TABLE
2
VPORT
5
8
100
AcDbSymbolTable
0
ENDTAB
0
TABLE
2
LTYPE
5
5
100
AcDbSymbolTable
0
LTYPE
5
14
100
AcDbSymbolTableRecord
100
AcDbLinetypeTableRecord
2
BYBLOCK
70
0
0
LTYPE
5
15
100
AcDbSymbolTableRecord
100
AcDbLinetypeTableRecord
2
BYLAYER
70
0
0
ENDTAB
0
TABLE
2
LAYER
5
2
100
AcDbSymbolTable
70
2
0
LAYER
5
50
100
AcDbSymbolTableRecord
100
AcDbLayerTableRecord
2
0
70
0
6
CONTINUOUS
0
ENDTAB
0
TABLE
2
STYLE
5
3
100
AcDbSymbolTable
70
1
0
STYLE
5
11
100
AcDbSymbolTableRecord
100
AcDbTextStyleTableRecord
2
STANDARD
70
0
0
ENDTAB
0
TABLE
2
VIEW
5
6
100
AcDbSymbolTable
70
0
0
ENDTAB
0
TABLE
2
UCS
5
7
100
AcDbSymbolTable
70
0
0
ENDTAB
0
TABLE
2
APPID
5
9
100
AcDbSymbolTable
70
2
0
APPID
5
12
100
AcDbSymbolTableRecord
100
AcDbRegAppTableRecord
2
ACAD
70
0
0
ENDTAB
0
TABLE
2
DIMSTYLE
5
A
100
AcDbSymbolTable
70
1
0
ENDTAB
0
TABLE
2
BLOCK_RECORD
5
1
100
AcDbSymbolTable
70
1
0
BLOCK_RECORD
5
1F
100
AcDbSymbolTableRecord
100
AcDbBlockTableRecord
2
*MODEL_SPACE
0
BLOCK_RECORD
5
1B
100
AcDbSymbolTableRecord
100
AcDbBlockTableRecord
2
*PAPER_SPACE
0
ENDTAB
0
ENDSEC
0
SECTION
2
BLOCKS
0
BLOCK
5
20
100
AcDbEntity
100
AcDbBlockBegin
2
*MODEL_SPACE
0
ENDBLK
5
21
100
AcDbEntity
100
AcDbBlockEnd
0
BLOCK
5
1C
100
AcDbEntity
100
AcDbBlockBegin
2
*PAPER_SPACE
0
ENDBLK
5
1D
100
AcDbEntity
100
AcDbBlockEnd
0
ENDSEC
0
SECTION
2
ENTITIES
0
LINE
5
100
100
AcDbEntity
8
0
100
AcDbLine
10
16.749869683452374
20
32.099999999999973
30
-1.4210854715202004e-13
11
13.506771703931761
21
32.099999999999973
31
-1.4224732503009818e-13
0
LINE
5
101
100
AcDbEntity
8
0
100
AcDbLine
10
13.506771703931761
20
32.099999999999973
30
0
11
13.506771703931761
21
30.09999999999998
31
0
0
LINE
5
102
100
AcDbEntity
8
0
100
AcDbLine
10
13.50677170393169
20
30.09999999999998
30
-1.4210854715202004e-13
11
3.7067717039317207
21
30.09999999999998
31
-1.4155343563970746e-13
0
LINE
5
103
100
AcDbEntity
8
0
100
AcDbLine
10
3.7067717039317927
20
30.09999999999998
30
-1.4210854715202004e-13
11
3.7067717039316506
21
32.099999999999973
31
-1.4210854715202004e-13
0
LINE
5
104
100
AcDbEntity
8
0
100
AcDbLine
10
3.7067717039316506
20
32.099999999999973
30
0
11
0.54644927187034398
21
32.099999999999973
31
1.3877787807814457e-16
0
LINE
5
105
100
AcDbEntity
8
0
100
AcDbLine
10
0.54644927187027292
20
32.099999999999973
30
0
11
0.54644927187034398
21
29.90000000000002
31
-3.944304526105059e-30
0
LINE
5
106
100
AcDbEntity
8
0
100
AcDbLine
10
0.54644927187041503
20
29.90000000000002
30
-1.4210854715202004e-13
11
0.59838588339474086
21
29.90000000000002
31
-1.4210854715202004e-13
0
SPLINE
5
107
100
AcDbEntity
8
0
100
AcDbSpline
70
0
71
3
72
14
73
10
74
0
42
0.000000001
43
0.0000000001
44
0.0000000001
40
0.0039349476084796532
40
0.0039349476084796532
40
0.0039349476084796532
40
0.0039349476084796532
40
0.32705109534302074
40
0.32705109534302074
40
0.32705109534302074
40
0.58038460457339824
40
0.58038460457339824
40
0.58038460457339824
40
0.74164637177602899
40
0.74164637177602899
40
0.74164637177602899
40
0.74164637177602899
10
0.59838588339474086
20
29.900000000000063
30
0
10
0.66453772901027719
20
27.216923894931028
30
0
10
1.0222613276049941
20
23.962600740225302
30
-1.4210854715202004e-13
10
1.4382695308177063
20
20.471608305314639
30
0
10
1.7644334156234009
20
17.734557339483025
30
-1.4210854715202004e-13
10
2.1206833769774391
20
14.891225696947341
30
0
10
2.1487224788420178
20
11.788399273546322
30
0
10
2.1665710261234494
20
9.8132666750962638
30
-1.4210854715202004e-13
10
2.0449531227157536
20
7.7193697116020221
30
0
10
1.6646845544664046
20
5.3964067624688727
30
-1.4210854715202004e-13
0
SPLINE
5
108
100
AcDbEntity
8
0
100
AcDbSpline
70
0
71
3
72
11
73
7
74
0
42
0.000000001
43
0.0000000001
44
0.0000000001
40
0.74164637177602921
40
0.74164637177602921
40
0.74164637177602921
40
0.74164637177602921
40
0.77278706821366738
40
0.77278706821366738
40
0.77278706821366738
40
0.77281073892923935
40
0.77281073892923935
40
0.77281073892923935
40
0.77281073892923935
10
1.6646845544664757
20
5.396406762468855
30
-1.4210854715202004e-13
10
1.5912522198590295
20
4.9478275034809815
30
0
10
1.5081813121490484
20
4.4906589943370712
30
-1.4210854715202004e-13
10
1.4146549116259166
20
4.0240850468929068
30
-1.4210854715202004e-13
10
1.4145836443661608
20
4.0237295168333365
30
-1.4210854715202004e-13
10
1.4145123771063339
20
4.023373986774228
30
0
10
1.4144411098485676
20
4.0230184567253158
30
-1.4210854715202004e-13
0
SPLINE
5
109
100
AcDbEntity
8
0
100
AcDbSpline
70
0
71
3
72
11
73
7
74
0
42
0.000000001
43
0.0000000001
44
0.0000000001
40
0.0072477710007205235
40
0.0072477710007205235
40
0.0072477710007205235
40
0.0072477710007205235
40
0.89559985665760178
40
0.89559985665760178
40
0.89559985665760178
40
0.89568104222025258
40
0.89568104222025258
40
0.89568104222025258
40
0.89568104222025258
10
0.084671580249420231
20
-7.9000000000000359
30
-1.4210854715202004e-13
10
0.094583456479284678
20
-3.8156989499767491
30
0
10
0.71883393381639848
20
0.11333427657038264
30
0
10
1.4142505645740044
20
4.0219474890932538
30
0
10
1.4143140797412457
20
4.0223044782854611
30
-1.4210854715202004e-13
10
1.4143775949084159
20
4.0226614674776329
30
0
10
1.4144411100738097
20
4.0230184566604343
30
0
0
LINE
5
110
100
AcDbEntity
8
0
100
AcDbLine
10
0.084671580249420231
20
-7.9000000000000359
30
-1.4210854715202004e-13
11
-4.6490893636710959
21
-7.900000000000027
31
-1.4238610290817633e-13
0
LINE
5
111
100
AcDbEntity
8
0
100
AcDbLine
10
-4.649089363671095
20
-7.900000000000027
30
0
11
-4.649089363671095
21
-9.9000000000000288
31
6.3464221769436083e-32
0
LINE
5
112
100
AcDbEntity
8
0
100
AcDbLine
10
-4.649089363671095
20
-9.9000000000000288
30
0
11
-13.719262023332988
21
-9.9000000000000288
31
-2.7755575615628914e-16
0
LINE
5
113
100
AcDbEntity
8
0
100
AcDbLine
10
-13.719262023332988
20
-9.9000000000000288
30
-1.4210854715202004e-13
11
-13.719262023332988
21
-7.900000000000027
31
-1.4210854715202004e-13
0
LINE
5
114
100
AcDbEntity
8
0
100
AcDbLine
10
-13.719262023332988
20
-7.900000000000027
30
-1.4210854715202004e-13
11
-16.803756235167455
21
-7.900000000000027
31
-1.4210854715202004e-13
0
LINE
5
115
100
AcDbEntity
8
0
100
AcDbLine
10
-16.803756235167384
20
-7.900000000000027
30
-1.4210854715202004e-13
11
-16.803756235167313
21
-10
31
-1.4210854715202004e-13
0
SPLINE
5
116
100
AcDbEntity
8
0
100
AcDbSpline
70
0
71
3
72
11
73
7
74
0
42
0.000000001
43
0.0000000001
44
0.0000000001
40
0
40
0
40
0
40
0
40
0.22238434812617114
40
0.22238434812617114
40
0.22238434812617114
40
0.22487702546685315
40
0.22487702546685315
40
0.22487702546685315
40
0.22487702546685315
10
-16.803756235167313
20
-10
30
-1.4210854715202004e-13
10
-16.803756235167313
20
-11.438670751744539
30
-1.4210854715202004e-13
10
-16.61628011796104
20
-12.476053193362834
30
0
10
-16.267008827004688
20
-13.214477264498354
30
1.4210854715202004e-13
10
-16.263198216884618
20
-13.222533598675202
30
0
10
-16.259387606764477
20
-13.230589932852093
30
0
10
-16.25557699664455
20
-13.238646267029139
30
-1.4210854715202004e-13
0
SPLINE
5
117
100
AcDbEntity
8
0
100
AcDbSpline
70
0
71
3
72
14
73
10
74
0
42
0.000000001
43
0.0000000001
44
0.0000000001
40
0.18841505753490295
40
0.18841505753490295
40
0.18841505753490295
40
0.18841505753490295
40
0.1894278689253254
40
0.1894278689253254
40
0.1894278689253254
40
0.39030994346209946
40
0.39030994346209946
40
0.39030994346209946
40
0.39042754299602456
40
0.39042754299602456
40
0.39042754299602456
40
0.39042754299602456
10
-16.255576996646823
20
-13.238646267027585
30
0
10
-16.248254301343223
20
-13.243725972074758
30
0
10
-16.240931606039481
20
-13.248805677121966
30
0
10
-16.23360891073574
20
-13.253885382169184
30
-1.4210854715202004e-13
10
-14.775647509928973
20
-14.265263512642798
30
-1.4210854715202004e-13
10
-13.120438256443521
20
-15.18962779835813
30
-1.4210854715202004e-13
10
-11.667402037636805
20
-16.197038487739622
30
0
10
-11.666548110276267
20
-16.197630527731405
30
0
10
-11.665694182915587
20
-16.198222567723263
30
-1.4210854715202004e-13
10
-11.664840255554481
20
-16.198814607715303
30
0
0
SPLINE
5
118
100
AcDbEntity
8
0
100
AcDbSpline
70
0
71
3
72
11
73
7
74
0
42
0.000000001
43
0.0000000001
44
0.0000000001
40
0.7796833551414819
40
0.7796833551414819
40
0.7796833551414819
40
0.7796833551414819
40
0.77993527894050174
40
0.77993527894050174
40
0.77993527894050174
40
1
40
1
40
1
40
1
10
-11.664840255548938
20
-16.198814607714553
30
0
10
-11.663951111137649
20
-16.199352311549482
30
0
10
-11.66306196672231
20
-16.199890015386703
30
-1.4210854715202004e-13
10
-11.6621728223069
20
-16.200427719224049
30
0
10
-10.893732873839781
20
-16.665136378310965
30
0
10
-10.082304066110908
20
-17.318849099832253
30
-1.4210854715202004e-13
10
-9.2314396802449039
20
-18.250190519593289
30
0
0
SPLINE
5
119
100
AcDbEntity
8
0
100
AcDbSpline
70
0
71
3
72
14
73
10
74
0
42
0.000000001
43
0.0000000001
44
0.0000000001
40
0.51780670629803494
40
0.51780670629803494
40
0.51780670629803494
40
0.51780670629803494
40
0.79428037225541304
40
0.79428037225541304
40
0.79428037225541304
40
1
40
1
40
1
40
1.0046201826075432
40
1.0046201826075432
40
1.0046201826075432
40
1.0046201826075432
10
-9.2314396802433407
20
-18.250190519595016
30
0
10
-7.7653766559425463
20
-19.854917713721065
30
-1.4210854715202004e-13
10
-7.0935061663267618
20
-21.785966965463139
30
0
10
-7.3132301098219443
20
-24.12162413223577
30
0
10
-7.4767231777997267
20
-25.85954922981637
30
0
10
-8.1135191071356871
20
-27.809664612630964
30
0
10
-9.19638563667732
20
-29.954938414205159
30
0
10
-9.2207931405685883
20
-30.003292276136765
30
0
10
-9.2452006444598567
20
-30.051646138068371
30
0
10
-9.269608148351054
20
-30.099999999999987
30
-1.4210854715202004e-13
0
LINE
5
120
100
AcDbEntity
8
0
100
AcDbLine
10
-9.269608148351054
20
-30.099999999999984
30
-1.4210854715202004e-13
11
-1.3562644492932197
21
-30.099999999999973
31
-1.4210854715202004e-13
0
LINE
5
121
100
AcDbEntity
8
0
100
AcDbLine
10
-1.3562644492932918
20
-30.099999999999973
30
0
11
-1.3562644492933629
21
-32.099999999999973
31
0
0
LINE
5
122
100
AcDbEntity
8
0
100
AcDbLine
10
-1.3562644492932918
20
-32.099999999999973
30
0
11
5.8437355507066266
21
-32.099999999999973
31
0
0
LINE
5
123
100
AcDbEntity
8
0
100
AcDbLine
10
5.8437355507065547
20
-32.099999999999973
30
0
11
5.8437355507065547
21
-30.099999999999973
31
0
0
LINE
5
124
100
AcDbEntity
8
0
100
AcDbLine
10
5.8437355507065547
20
-30.099999999999973
30
0
11
16.240649542605471
21
-30.099999999999973
31
0
0
SPLINE
5
125
100
AcDbEntity
8
0
100
AcDbSpline
70
0
71
3
72
14
73
10
74
0
42
0.000000001
43
0.0000000001
44
0.0000000001
40
0.53286495346837504
40
0.53286495346837504
40
0.53286495346837504
40
0.53286495346837504
40
0.73991868236610081
40
0.73991868236610081
40
0.73991868236610081
40
1
40
1
40
1
40
1.0080229321126022
40
1.0080229321126022
40
1.0080229321126022
40
1.0080229321126022
10
9.5279798233615054
20
-8.0086823526138406
30
0
10
9.1070322547352589
20
-12.8386859946617
30
0
10
9.2335229317468759
20
-17.086154149476794
30
-1.4210854715202004e-13
10
10.025095181356534
20
-20.529100749972386
30
0
10
11.019393399393778
20
-24.853804744278875
30
-1.4210854715202004e-13
10
13.024436061772207
20
-27.952970422485865
30
-1.4210854715202004e-13
10
15.966263195754991
20
-29.916829446843177
30
0
10
16.057725311371911
20
-29.977886297895427
30
-1.4210854715202004e-13
10
16.149187426988618
20
-30.038943148947681
30
0
10
16.24064954260561
20
-30.099999999999937
30
0
0
SPLINE
5
126
100
AcDbEntity
8
0
100
AcDbSpline
70
0
71
3
72
14
73
10
74
0
42
0.000000001
43
0.0000000001
44
0.0000000001
40
-0.0021562585345068662
40
-0.0021562585345068662
40
-0.0021562585345068662
40
-0.0021562585345068662
40
0
40
0
40
0
40
0.20228827389956758
40
0.20228827389956758
40
0.20228827389956758
40
0.53286495346836005
40
0.53286495346836005
40
0.53286495346836005
40
0.53286495346836005
10
16.823968315040219
20
30.100000000000016
30
-1.4210854715202004e-13
10
16.816674019298077
20
30.060598810799029
30
0
10
16.809379723555935
20
30.021197621598148
30
0
10
16.802085427813864
20
29.981796432397267
30
-1.4210854715202004e-13
10
16.117330187777412
20
26.282992363727658
30
0
10
15.129988911861503
20
21.816995864607858
30
-1.4210854715202004e-13
10
14.031466193380169
20
16.897682691758522
30
-1.4210854715202004e-13
10
12.236275667968215
20
8.8586096249383584
30
0
10
10.200053928233501
20
-0.29722226544835806
30
0
10
9.5279798233615054
20
-8.0086823526128192
30
0
0
LINE
5
127
100
AcDbEntity
8
0
100
AcDbLine
10
16.823968315040219
20
30.100000000000016
30
-1.4210854715202004e-13
11
16.749869683452445
21
30.099999999999962
31
-1.4210854715202004e-13
0
LINE
5
128
100
AcDbEntity
8
0
100
AcDbLine
10
16.749869683452374
20
30.099999999999962
30
-1.4210854715202004e-13
11
16.749869683452303
21
32.099999999999973
31
-1.4210854715202001e-13
0
ENDSEC
0
SECTION
2
OBJECTS
0
DICTIONARY
5
C
100
AcDbDictionary
3
ACAD_GROUP
350
D
3
ACAD_MLINESTYLE
350
17
0
DICTIONARY
5
D
100
AcDbDictionary
0
DICTIONARY
5
1A
330
C
100
AcDbDictionary
0
DICTIONARY
5
17
100
AcDbDictionary
0
ENDSEC
0
EOF
