0
SECTION
2
HEADER
9
$INSUNITS
70
4
9
$ACADVER
1
AC1014
9
$HANDSEED
5
FFFF
0
ENDSEC
0
SECTION
2
TABLES
0
TABLE
2
VPORT
5
8
100
AcDbSymbolTable
0
ENDTAB
0
TABLE
2
LTYPE
5
5
100
AcDbSymbolTable
0
LTYPE
5
14
100
AcDbSymbolTableRecord
100
AcDbLinetypeTableRecord
2
BYBLOCK
70
0
0
LTYPE
5
15
100
AcDbSymbolTableRecord
100
AcDbLinetypeTableRecord
2
BYLAYER
70
0
0
ENDTAB
0
TABLE
2
LAYER
5
2
100
AcDbSymbolTable
70
2
0
LAYER
5
50
100
AcDbSymbolTableRecord
100
AcDbLayerTableRecord
2
0
70
0
6
CONTINUOUS
0
ENDTAB
0
TABLE
2
STYLE
5
3
100
AcDbSymbolTable
70
1
0
STYLE
5
11
100
AcDbSymbolTableRecord
100
AcDbTextStyleTableRecord
2
STANDARD
70
0
0
ENDTAB
0
TABLE
2
VIEW
5
6
100
AcDbSymbolTable
70
0
0
ENDTAB
0
TABLE
2
UCS
5
7
100
AcDbSymbolTable
70
0
0
ENDTAB
0
TABLE
2
APPID
5
9
100
AcDbSymbolTable
70
2
0
APPID
5
12
100
AcDbSymbolTableRecord
100
AcDbRegAppTableRecord
2
ACAD
70
0
0
ENDTAB
0
TABLE
2
DIMSTYLE
5
A
100
AcDbSymbolTable
70
1
0
ENDTAB
0
TABLE
2
BLOCK_RECORD
5
1
100
AcDbSymbolTable
70
1
0
BLOCK_RECORD
5
1F
100
AcDbSymbolTableRecord
100
AcDbBlockTableRecord
2
*MODEL_SPACE
0
BLOCK_RECORD
5
1B
100
AcDbSymbolTableRecord
100
AcDbBlockTableRecord
2
*PAPER_SPACE
0
ENDTAB
0
ENDSEC
0
SECTION
2
BLOCKS
0
BLOCK
5
20
100
AcDbEntity
100
AcDbBlockBegin
2
*MODEL_SPACE
0
ENDBLK
5
21
100
AcDbEntity
100
AcDbBlockEnd
0
BLOCK
5
1C
100
AcDbEntity
100
AcDbBlockBegin
2
*PAPER_SPACE
0
ENDBLK
5
1D
100
AcDbEntity
100
AcDbBlockEnd
0
ENDSEC
0
SECTION
2
ENTITIES
0
LINE
5
100
100
AcDbEntity
8
0
100
AcDbLine
10
2.454189362529533
20
-12.074999999999951
30
1.4210854715202004e-13
11
2.454189362529533
21
-10.07499999999995
31
1.4210854715202004e-13
0
LINE
5
101
100
AcDbEntity
8
0
100
AcDbLine
10
2.454189362529533
20
-10.07499999999995
30
1.4210854715202004e-13
11
7.8397479595880348
21
-10.074999999999948
31
1.4210854715202004e-13
0
SPLINE
5
102
100
AcDbEntity
8
0
100
AcDbSpline
70
0
71
3
72
14
73
10
74
0
42
0.000000001
43
0.0000000001
44
0.0000000001
40
-1.0048524290870959
40
-1.0048524290870959
40
-1.0048524290870959
40
-1.0048524290870959
40
-1
40
-1
40
-1
40
-0.47409450335767511
40
-0.47409450335767511
40
-0.47409450335767511
40
-0.0015031016313391344
40
-0.0015031016313391344
40
-0.0015031016313391344
40
-0.0015031016313391344
10
7.8397479595880881
20
-10.074999999999983
30
0
10
7.8206388359929591
20
-10.03842357875266
30
0
10
7.8015297123978655
20
-10.001847157505333
30
0
10
7.7824205888027542
20
-9.965270736258006
30
1.4210854715202004e-13
10
5.7157110495917962
20
-6.0094201015701953
30
1.4210854715202004e-13
10
4.6538446054641369
20
-2.2570559778138222
30
0
10
5.0281795711575228
20
1.2043073731434717
30
0
10
5.3645660270544582
20
4.3147722158899393
30
0
10
6.8510366864518346
20
7.2013334507987548
30
1.4210854715202004e-13
10
9.1963528925441196
20
9.9249999999999758
30
1.4210854715202004e-13
0
LINE
5
103
100
AcDbEntity
8
0
100
AcDbLine
10
9.1963528925441196
20
9.9249999999999758
30
1.4210854715202004e-13
11
9.2974553824413775
21
9.9249999999997485
31
1.4210746294984755e-13
0
LINE
5
104
100
AcDbEntity
8
0
100
AcDbLine
10
9.297455382441413
20
9.9249999999997485
30
0
11
9.2974553824414308
21
12.074999999999934
31
-6.1629758220391547e-32
0
LINE
5
105
100
AcDbEntity
8
0
100
AcDbLine
10
9.2974553824414485
20
12.074999999999934
30
0
11
5.1514859804465907
21
12.074999999999934
31
4.1761948594592781e-51
0
LINE
5
106
100
AcDbEntity
8
0
100
AcDbLine
10
5.1514859804465374
20
12.074999999999934
30
0
11
5.1514859804465551
21
10.074999999999932
31
1.1247430875221457e-29
0
LINE
5
107
100
AcDbEntity
8
0
100
AcDbLine
10
5.1514859804465374
20
10.074999999999932
30
0
11
-2.6985140195534285
21
10.074999999999932
31
6.9388939039072284e-17
0
LINE
5
108
100
AcDbEntity
8
0
100
AcDbLine
10
-2.698514019553393
20
10.074999999999932
30
1.4210854715202004e-13
11
-2.698514019553393
21
12.074999999999934
31
1.4210854715202004e-13
0
LINE
5
109
100
AcDbEntity
8
0
100
AcDbLine
10
-2.698514019553393
20
12.074999999999934
30
1.4210854715202004e-13
11
-6.8526789142523548
21
12.074999999999934
31
1.420738526825005e-13
0
LINE
5
110
100
AcDbEntity
8
0
100
AcDbLine
10
-6.8526789142523725
20
12.074999999999934
30
1.4210854715202004e-13
11
-6.8526789142523548
21
10.075000000000101
31
1.4210854715202004e-13
0
LINE
5
111
100
AcDbEntity
8
0
100
AcDbLine
10
-6.852678914252337
20
10.075000000000101
30
0
11
-6.9562060622782163
21
10.075000000000331
31
-1.0842021724895104e-18
0
SPLINE
5
112
100
AcDbEntity
8
0
100
AcDbSpline
70
0
71
3
72
17
73
13
74
0
42
0.000000001
43
0.0000000001
44
0.0000000001
40
-0.0081349206469340345
40
-0.0081349206469340345
40
-0.0081349206469340345
40
-0.0081349206469340345
40
0
40
0
40
0
40
0.51132448147408249
40
0.51132448147408249
40
0.51132448147408249
40
1
40
1
40
1
40
1.0038475909406497
40
1.0038475909406497
40
1.0038475909406497
40
1.0038475909406497
10
-6.9562060622782695
20
10.075000000000403
30
0
10
-6.9403164944489859
20
10.039730945036665
30
0
10
-6.9244269266196845
20
10.004461890072944
30
1.4210854715202004e-13
10
-6.9085373587904186
20
9.9691928351092294
30
0
10
-5.9169795159150951
20
7.7682954642170987
30
1.4210854715202004e-13
10
-5.5906870142110954
20
4.9967524538064279
30
0
10
-6.0784051300074182
20
1.5269130935836905
30
0
10
-6.5445199196692982
20
-1.7892307837253218
30
0
10
-7.6951545164661894
20
-5.6918210155560711
30
1.4210854715202004e-13
10
-9.2927240314185866
20
-9.9737832692555539
30
0
10
-9.3053117777103012
20
-10.007522179503688
30
0
10
-9.3178995240019802
20
-10.041261089751821
30
0
10
-9.3304872702937658
20
-10.074999999999932
30
0
0
LINE
5
113
100
AcDbEntity
8
0
100
AcDbLine
10
-9.3304872702938013
20
-10.074999999999934
30
0
11
-3.7286659048553448
21
-10.07499999999995
31
2.6963019221421587e-31
0
LINE
5
114
100
AcDbEntity
8
0
100
AcDbLine
10
-3.7286659048553261
20
-10.07499999999995
30
0
11
-3.7286659048553261
21
-12.074999999999951
31
7.7037197775489434e-33
0
LINE
5
115
100
AcDbEntity
8
0
100
AcDbLine
10
-3.7286659048553261
20
-12.074999999999951
30
0
11
2.4541893625295499
21
-12.074999999999951
31
0
0
ENDSEC
0
SECTION
2
OBJECTS
0
DICTIONARY
5
C
100
AcDbDictionary
3
ACAD_GROUP
350
D
3
ACAD_MLINESTYLE
350
17
0
DICTIONARY
5
D
100
AcDbDictionary
0
DICTIONARY
5
1A
330
C
100
AcDbDictionary
0
DICTIONARY
5
17
100
AcDbDictionary
0
ENDSEC
0
EOF
