0
SECTION
2
HEADER
9
$INSUNITS
70
4
9
$ACADVER
1
AC1014
9
$HANDSEED
5
FFFF
0
ENDSEC
0
SECTION
2
TABLES
0
TABLE
2
VPORT
5
8
100
AcDbSymbolTable
0
ENDTAB
0
TABLE
2
LTYPE
5
5
100
AcDbSymbolTable
0
LTYPE
5
14
100
AcDbSymbolTableRecord
100
AcDbLinetypeTableRecord
2
BYBLOCK
70
0
0
LTYPE
5
15
100
AcDbSymbolTableRecord
100
AcDbLinetypeTableRecord
2
BYLAYER
70
0
0
ENDTAB
0
TABLE
2
LAYER
5
2
100
AcDbSymbolTable
70
2
0
LAYER
5
50
100
AcDbSymbolTableRecord
100
AcDbLayerTableRecord
2
0
70
0
6
CONTINUOUS
0
ENDTAB
0
TABLE
2
STYLE
5
3
100
AcDbSymbolTable
70
1
0
STYLE
5
11
100
AcDbSymbolTableRecord
100
AcDbTextStyleTableRecord
2
STANDARD
70
0
0
ENDTAB
0
TABLE
2
VIEW
5
6
100
AcDbSymbolTable
70
0
0
ENDTAB
0
TABLE
2
UCS
5
7
100
AcDbSymbolTable
70
0
0
ENDTAB
0
TABLE
2
APPID
5
9
100
AcDbSymbolTable
70
2
0
APPID
5
12
100
AcDbSymbolTableRecord
100
AcDbRegAppTableRecord
2
ACAD
70
0
0
ENDTAB
0
TABLE
2
DIMSTYLE
5
A
100
AcDbSymbolTable
70
1
0
ENDTAB
0
TABLE
2
BLOCK_RECORD
5
1
100
AcDbSymbolTable
70
1
0
BLOCK_RECORD
5
1F
100
AcDbSymbolTableRecord
100
AcDbBlockTableRecord
2
*MODEL_SPACE
0
BLOCK_RECORD
5
1B
100
AcDbSymbolTableRecord
100
AcDbBlockTableRecord
2
*PAPER_SPACE
0
ENDTAB
0
ENDSEC
0
SECTION
2
BLOCKS
0
BLOCK
5
20
100
AcDbEntity
100
AcDbBlockBegin
2
*MODEL_SPACE
0
ENDBLK
5
21
100
AcDbEntity
100
AcDbBlockEnd
0
BLOCK
5
1C
100
AcDbEntity
100
AcDbBlockBegin
2
*PAPER_SPACE
0
ENDBLK
5
1D
100
AcDbEntity
100
AcDbBlockEnd
0
ENDSEC
0
SECTION
2
ENTITIES
0
SPLINE
5
100
100
AcDbEntity
8
0
100
AcDbSpline
70
0
71
3
72
20
73
16
74
0
42
0.000000001
43
0.0000000001
44
0.0000000001
40
-0.0064549647382435606
40
-0.0064549647382435606
40
-0.0064549647382435606
40
-0.0064549647382435606
40
0
40
0
40
0
40
0.5
40
0.5
40
0.5
40
0.96109225767616979
40
0.96109225767616979
40
0.96109225767616979
40
1
40
1
40
1
40
1.0011152902507707
40
1.0011152902507707
40
1.0011152902507707
40
1.0011152902507707
10
-11.074999999999946
20
14.359644201130735
30
0
10
-11.030570916994469
20
14.304775758342636
30
0
10
-10.986141833988995
20
14.249907315554573
30
0
10
-10.941712750983523
20
14.19503887276651
30
0
10
-7.5082740888105093
20
9.9548560902729122
30
0
10
-4.145090799637039
20
7.943548176562345
30
0
10
-0.85200388220613821
20
8.8152955416661527
30
0
10
2.1848298807580058
20
9.6192074630643631
30
0
10
5.2004840005325237
20
12.829142801508624
30
0
10
8.181130240809642
20
17.722218536389214
30
0
10
8.4326421973531485
20
18.135104518954179
30
0
10
8.6839133651128755
20
18.560428225136896
30
0
10
8.9349398207552468
20
18.998139903802702
30
0
10
8.942144507300771
20
19.010702625265807
30
0
10
8.9493491938462988
20
19.023265346728913
30
0
10
8.9565538803918532
20
19.035828068192018
30
0
0
LINE
5
101
100
AcDbEntity
8
0
100
AcDbLine
10
-11.074999999999946
20
14.359644201130735
30
0
11
-11.075000000000008
21
-11.965398392427886
31
0
0
SPLINE
5
102
100
AcDbEntity
8
0
100
AcDbSpline
70
0
71
3
72
20
73
16
74
0
42
0.000000001
43
0.0000000001
44
0.0000000001
40
-0.0036787214880381267
40
-0.0036787214880381267
40
-0.0036787214880381267
40
-0.0036787214880381267
40
0
40
0
40
0
40
0.5
40
0.5
40
0.5
40
0.94669125317996983
40
0.94669125317996983
40
0.94669125317996983
40
1
40
1
40
1
40
1.0012795255496352
40
1.0012795255496352
40
1.0012795255496352
40
1.0012795255496352
10
-11.075000000000008
20
-11.965398392427886
30
0
10
-11.031411959008945
20
-11.916934094227152
30
0
10
-10.98782391801787
20
-11.868469796026382
30
0
10
-10.944235877026793
20
-11.820005497825647
30
0
10
-5.025311522746847
20
-5.2389225124218086
30
0
10
-0.20245327448934702
20
-1.957422298316942
30
0
10
3.0643997065174933
20
-3.1458619321294279
30
0
10
5.9829490105988459
20
-4.207593110842538
30
0
10
7.7590737099350227
20
-8.880015599854012
30
0
10
8.6460483449599792
20
-16.222618681562828
30
0
10
8.7519011144461203
20
-17.098895004182211
30
0
10
8.8449473350254593
20
-18.013826328218947
30
0
10
8.9252647821876874
20
-18.967124671923052
30
0
10
8.9271942520946812
20
-18.990025804012696
30
0
10
8.929123722001675
20
-19.012926936102339
30
0
10
8.9310531919086742
20
-19.035828068191947
30
0
0
LINE
5
103
100
AcDbEntity
8
0
100
AcDbLine
10
8.9310531919086742
20
-19.035828068191911
30
0
11
11.075000000000006
21
-19.035828068191982
31
0
0
LINE
5
104
100
AcDbEntity
8
0
100
AcDbLine
10
11.075000000000006
20
-19.035828068191982
30
0
11
11.075000000000006
21
-4.1417830418301449
31
0
0
LINE
5
105
100
AcDbEntity
8
0
100
AcDbLine
10
11.075000000000006
20
-4.1417830418301449
30
0
11
9.0750000000000064
21
-4.1417830418301449
31
0
0
LINE
5
106
100
AcDbEntity
8
0
100
AcDbLine
10
9.0750000000000064
20
-4.1417830418301449
30
0
11
9.0750000000000064
21
10.470022509959378
31
0
0
LINE
5
107
100
AcDbEntity
8
0
100
AcDbLine
10
9.0750000000000064
20
10.470022509959378
30
0
11
11.075000000000006
21
10.470022509959378
31
0
0
LINE
5
108
100
AcDbEntity
8
0
100
AcDbLine
10
11.075000000000006
20
10.470022509959378
30
0
11
11.075000000000006
21
19.035828068191982
31
0
0
LINE
5
109
100
AcDbEntity
8
0
100
AcDbLine
10
11.075000000000006
20
19.035828068191982
30
0
11
8.9565538803917875
21
19.035828068191947
31
0
0
ENDSEC
0
SECTION
2
OBJECTS
0
DICTIONARY
5
C
100
AcDbDictionary
3
ACAD_GROUP
350
D
3
ACAD_MLINESTYLE
350
17
0
DICTIONARY
5
D
100
AcDbDictionary
0
DICTIONARY
5
1A
330
C
100
AcDbDictionary
0
DICTIONARY
5
17
100
AcDbDictionary
0
ENDSEC
0
EOF
