0
SECTION
2
HEADER
9
$INSUNITS
70
4
9
$ACADVER
1
AC1014
9
$HANDSEED
5
FFFF
0
ENDSEC
0
SECTION
2
TABLES
0
TABLE
2
VPORT
5
8
100
AcDbSymbolTable
0
ENDTAB
0
TABLE
2
LTYPE
5
5
100
AcDbSymbolTable
0
LTYPE
5
14
100
AcDbSymbolTableRecord
100
AcDbLinetypeTableRecord
2
BYBLOCK
70
0
0
LTYPE
5
15
100
AcDbSymbolTableRecord
100
AcDbLinetypeTableRecord
2
BYLAYER
70
0
0
ENDTAB
0
TABLE
2
LAYER
5
2
100
AcDbSymbolTable
70
2
0
LAYER
5
50
100
AcDbSymbolTableRecord
100
AcDbLayerTableRecord
2
0
70
0
6
CONTINUOUS
0
ENDTAB
0
TABLE
2
STYLE
5
3
100
AcDbSymbolTable
70
1
0
STYLE
5
11
100
AcDbSymbolTableRecord
100
AcDbTextStyleTableRecord
2
STANDARD
70
0
0
ENDTAB
0
TABLE
2
VIEW
5
6
100
AcDbSymbolTable
70
0
0
ENDTAB
0
TABLE
2
UCS
5
7
100
AcDbSymbolTable
70
0
0
ENDTAB
0
TABLE
2
APPID
5
9
100
AcDbSymbolTable
70
2
0
APPID
5
12
100
AcDbSymbolTableRecord
100
AcDbRegAppTableRecord
2
ACAD
70
0
0
ENDTAB
0
TABLE
2
DIMSTYLE
5
A
100
AcDbSymbolTable
70
1
0
ENDTAB
0
TABLE
2
BLOCK_RECORD
5
1
100
AcDbSymbolTable
70
1
0
BLOCK_RECORD
5
1F
100
AcDbSymbolTableRecord
100
AcDbBlockTableRecord
2
*MODEL_SPACE
0
BLOCK_RECORD
5
1B
100
AcDbSymbolTableRecord
100
AcDbBlockTableRecord
2
*PAPER_SPACE
0
ENDTAB
0
ENDSEC
0
SECTION
2
BLOCKS
0
BLOCK
5
20
100
AcDbEntity
100
AcDbBlockBegin
2
*MODEL_SPACE
0
ENDBLK
5
21
100
AcDbEntity
100
AcDbBlockEnd
0
BLOCK
5
1C
100
AcDbEntity
100
AcDbBlockBegin
2
*PAPER_SPACE
0
ENDBLK
5
1D
100
AcDbEntity
100
AcDbBlockEnd
0
ENDSEC
0
SECTION
2
ENTITIES
0
LINE
5
100
100
AcDbEntity
8
0
100
AcDbLine
10
11.100000000000019
20
19.060828068191995
30
0
11
8.9420718405224076
21
19.060828068191995
31
0
0
SPLINE
5
101
100
AcDbEntity
8
0
100
AcDbSpline
70
0
71
3
72
20
73
16
74
0
42
0.000000001
43
0.0000000001
44
0.0000000001
40
-0.0086066196509932379
40
-0.0086066196509932379
40
-0.0086066196509932379
40
-0.0086066196509932379
40
0
40
0
40
0
40
0.5
40
0.5
40
0.5
40
0.96958790883360679
40
0.96958790883360679
40
0.96958790883360679
40
1
40
1
40
1
40
1.0014870536676932
40
1.0014870536676932
40
1.0014870536676932
40
1.0014870536676932
10
-11.09999999999995
20
14.430245117772813
30
0
10
-11.040761222659317
20
14.35708719405536
30
0
10
-10.981522445318671
20
14.283929270337943
30
0
10
-10.922283667978023
20
14.21077134662049
30
0
10
-7.4915207760371594
20
9.9738930515474422
30
0
10
-4.138642177708487
20
7.9711163888692482
30
0
10
-0.85840152463733332
20
8.8394630854247325
30
0
10
2.2223211728559988
20
9.6549933041811187
30
0
10
5.2915333368908346
20
12.960899498530232
30
0
10
8.3244235808577471
20
18.007341410071618
30
0
10
8.5208437459899589
20
18.334165948337322
30
0
10
8.7171211404293736
20
18.668584357054812
30
0
10
8.9132530943403232
20
19.01057718233961
30
0
10
8.9228593430676906
20
19.027327477623714
30
0
10
8.9324655917950579
20
19.044077772907819
30
0
10
8.9420718405224555
20
19.060828068192102
30
0
0
LINE
5
102
100
AcDbEntity
8
0
100
AcDbLine
10
-11.09999999999995
20
14.430245117772813
30
0
11
-11.100000000000012
21
-12.030580487496394
31
0
0
SPLINE
5
103
100
AcDbEntity
8
0
100
AcDbSpline
70
0
71
3
72
17
73
13
74
0
42
0.000000001
43
0.0000000001
44
0.0000000001
40
-0.004904961984052757
40
-0.004904961984052757
40
-0.004904961984052757
40
-0.004904961984052757
40
0
40
0
40
0
40
0.5
40
0.5
40
0.5
40
1
40
1
40
1
40
1.0017060340661776
40
1.0017060340661776
40
1.0017060340661776
40
1.0017060340661776
10
-11.100000000000083
20
-12.030580487496536
30
0
10
-11.041882612011964
20
-11.965961423228855
30
0
10
-10.983765224023836
20
-11.901342358961173
30
0
10
-10.925647836035708
20
-11.836723294693492
30
0
10
-5.0085308385998317
20
-5.2576498577587572
30
0
10
-0.19023789324307039
20
-1.9884689794110244
30
0
10
3.055852998047639
20
-3.1693556286102265
30
0
10
6.3019438893383706
20
-4.3502422778096772
30
0
10
8.1472481320021739
20
-10.030522303969107
30
0
10
8.9003530429169064
20
-18.969223539833422
30
0
10
8.9029256694595649
20
-18.999758382619625
30
0
10
8.905498296002218
20
-19.030293225405792
30
0
10
8.9080709225448729
20
-19.060828068191888
30
0
0
LINE
5
104
100
AcDbEntity
8
0
100
AcDbLine
10
8.9080709225448729
20
-19.060828068191853
30
0
11
11.100000000000019
21
-19.060828068191995
31
0
0
LINE
5
105
100
AcDbEntity
8
0
100
AcDbLine
10
11.100000000000019
20
-19.060828068191995
30
0
11
11.100000000000019
21
-4.1167830418301321
31
0
0
LINE
5
106
100
AcDbEntity
8
0
100
AcDbLine
10
11.100000000000019
20
-4.1167830418301321
30
0
11
9.1000000000000192
21
-4.1167830418301321
31
0
0
LINE
5
107
100
AcDbEntity
8
0
100
AcDbLine
10
9.1000000000000192
20
-4.1167830418301321
30
0
11
9.1000000000000192
21
10.445022509959365
31
0
0
LINE
5
108
100
AcDbEntity
8
0
100
AcDbLine
10
9.1000000000000192
20
10.445022509959365
30
0
11
11.100000000000019
21
10.445022509959365
31
0
0
LINE
5
109
100
AcDbEntity
8
0
100
AcDbLine
10
11.100000000000019
20
10.445022509959365
30
0
11
11.100000000000019
21
19.060828068191995
31
0
0
ENDSEC
0
SECTION
2
OBJECTS
0
DICTIONARY
5
C
100
AcDbDictionary
3
ACAD_GROUP
350
D
3
ACAD_MLINESTYLE
350
17
0
DICTIONARY
5
D
100
AcDbDictionary
0
DICTIONARY
5
1A
330
C
100
AcDbDictionary
0
DICTIONARY
5
17
100
AcDbDictionary
0
ENDSEC
0
EOF
