0
SECTION
2
HEADER
9
$INSUNITS
70
4
9
$ACADVER
1
AC1014
9
$HANDSEED
5
FFFF
0
ENDSEC
0
SECTION
2
TABLES
0
TABLE
2
VPORT
5
8
100
AcDbSymbolTable
0
ENDTAB
0
TABLE
2
LTYPE
5
5
100
AcDbSymbolTable
0
LTYPE
5
14
100
AcDbSymbolTableRecord
100
AcDbLinetypeTableRecord
2
BYBLOCK
70
0
0
LTYPE
5
15
100
AcDbSymbolTableRecord
100
AcDbLinetypeTableRecord
2
BYLAYER
70
0
0
ENDTAB
0
TABLE
2
LAYER
5
2
100
AcDbSymbolTable
70
2
0
LAYER
5
50
100
AcDbSymbolTableRecord
100
AcDbLayerTableRecord
2
0
70
0
6
CONTINUOUS
0
ENDTAB
0
TABLE
2
STYLE
5
3
100
AcDbSymbolTable
70
1
0
STYLE
5
11
100
AcDbSymbolTableRecord
100
AcDbTextStyleTableRecord
2
STANDARD
70
0
0
ENDTAB
0
TABLE
2
VIEW
5
6
100
AcDbSymbolTable
70
0
0
ENDTAB
0
TABLE
2
UCS
5
7
100
AcDbSymbolTable
70
0
0
ENDTAB
0
TABLE
2
APPID
5
9
100
AcDbSymbolTable
70
2
0
APPID
5
12
100
AcDbSymbolTableRecord
100
AcDbRegAppTableRecord
2
ACAD
70
0
0
ENDTAB
0
TABLE
2
DIMSTYLE
5
A
100
AcDbSymbolTable
70
1
0
ENDTAB
0
TABLE
2
BLOCK_RECORD
5
1
100
AcDbSymbolTable
70
1
0
BLOCK_RECORD
5
1F
100
AcDbSymbolTableRecord
100
AcDbBlockTableRecord
2
*MODEL_SPACE
0
BLOCK_RECORD
5
1B
100
AcDbSymbolTableRecord
100
AcDbBlockTableRecord
2
*PAPER_SPACE
0
ENDTAB
0
ENDSEC
0
SECTION
2
BLOCKS
0
BLOCK
5
20
100
AcDbEntity
100
AcDbBlockBegin
2
*MODEL_SPACE
0
ENDBLK
5
21
100
AcDbEntity
100
AcDbBlockEnd
0
BLOCK
5
1C
100
AcDbEntity
100
AcDbBlockBegin
2
*PAPER_SPACE
0
ENDBLK
5
1D
100
AcDbEntity
100
AcDbBlockEnd
0
ENDSEC
0
SECTION
2
ENTITIES
0
LINE
5
100
100
AcDbEntity
8
0
100
AcDbLine
10
-3.6984344551713022
20
-12.075000000000014
30
1.4210854715202004e-13
11
2.4844208122135392
21
-12.075000000000014
31
1.4203915821298096e-13
0
LINE
5
101
100
AcDbEntity
8
0
100
AcDbLine
10
2.4844208122135214
20
-12.075000000000014
30
1.4210854715202004e-13
11
2.4844208122135392
21
-10.075000000000012
31
1.4210854715202004e-13
0
LINE
5
102
100
AcDbEntity
8
0
100
AcDbLine
10
2.4844208122135569
20
-10.075000000000012
30
1.4210854715202004e-13
11
7.8699794092720046
21
-10.075000000000006
31
1.4210854715202034e-13
0
SPLINE
5
103
100
AcDbEntity
8
0
100
AcDbSpline
70
0
71
3
72
17
73
13
74
0
42
0.000000001
43
0.0000000001
44
0.0000000001
40
-1.0048524290870893
40
-1.0048524290870893
40
-1.0048524290870893
40
-1.0048524290870893
40
-1
40
-1
40
-1
40
-0.47409450335893388
40
-0.47409450335893388
40
-0.47409450335893388
40
0
40
0
40
0
40
0.0071541939379641739
40
0.0071541939379641739
40
0.0071541939379641739
40
0.0071541939379641739
10
7.8699794092718989
20
-10.074999999999882
30
1.4210854715202004e-13
10
7.8508702856768586
20
-10.038423578752624
30
1.4210854715202004e-13
10
7.8317611620817829
20
-10.001847157505351
30
1.4210854715202004e-13
10
7.8126520384866893
20
-9.965270736258077
30
0
10
5.7459424992805452
20
-6.009420101579761
30
1.4210854715202004e-13
10
4.6840760551529215
20
-2.2570559778318477
30
0
10
5.0584110208388466
20
1.204307373118545
30
1.4210854715202004e-13
10
5.3958673714194205
20
4.3246652117315953
30
1.4210854715202004e-13
10
6.8905857935329351
20
7.2198211166214854
30
2.8421709430404007e-13
10
9.2489890199764702
20
9.9509824024149616
30
1.4210854715202004e-13
10
9.2846861065115149
20
9.9923216016099694
30
0
10
9.3203831930465242
20
10.033660800804975
30
1.4210854715202004e-13
10
9.3560802795815867
20
10.075000000000003
30
1.4210854715202004e-13
0
LINE
5
104
100
AcDbEntity
8
0
100
AcDbLine
10
9.3560802795815867
20
10.075000000000003
30
1.4210854715202004e-13
11
5.3317174301306025
21
10.074999999999994
31
1.4210854715201941e-13
0
LINE
5
105
100
AcDbEntity
8
0
100
AcDbLine
10
5.331717430130567
20
10.074999999999994
30
1.4210854715202004e-13
11
5.3317174301305315
21
12.075000000000005
31
1.4210854715202004e-13
0
LINE
5
106
100
AcDbEntity
8
0
100
AcDbLine
10
5.3317174301305315
20
12.075000000000005
30
1.4210854715202004e-13
11
-2.818282569869428
21
12.075000000000005
31
1.4210854715202004e-13
0
LINE
5
107
100
AcDbEntity
8
0
100
AcDbLine
10
-2.8182825698694458
20
12.075000000000005
30
1.4210854715202004e-13
11
-2.8182825698694103
21
10.075000000000003
31
1.4210854715202001e-13
0
LINE
5
108
100
AcDbEntity
8
0
100
AcDbLine
10
-2.8182825698694103
20
10.075000000000003
30
1.4210854715202004e-13
11
-6.9259746125942456
21
10.075000000000021
31
1.421085471520213e-13
0
SPLINE
5
109
100
AcDbEntity
8
0
100
AcDbSpline
70
0
71
3
72
17
73
13
74
0
42
0.000000001
43
0.0000000001
44
0.0000000001
40
-0.008134920646908482
40
-0.008134920646908482
40
-0.008134920646908482
40
-0.008134920646908482
40
0
40
0
40
0
40
0.51132448147330667
40
0.51132448147330667
40
0.51132448147330667
40
1
40
1
40
1
40
1.0038475909406479
40
1.0038475909406479
40
1.0038475909406479
40
1.0038475909406479
10
-6.9259746125941035
20
10.074999999999967
30
0
10
-6.9100850447648554
20
10.03973094503638
30
0
10
-6.8941954769356606
20
10.004461890072767
30
1.4210854715202004e-13
10
-6.8783059091064658
20
9.969192835109153
30
1.4210854715202004e-13
10
-5.8867480662325633
20
7.7682954642203672
30
1.4210854715202004e-13
10
-5.5604555645279774
20
4.99675245381487
30
-1.4210854715202004e-13
10
-6.0481736803211916
20
1.5269130935994113
30
1.4210854715202004e-13
10
-6.5142884699815085
20
-1.7892307837129406
30
0
10
-7.664923066779874
20
-5.691821015549321
30
1.4210854715202004e-13
10
-9.2624925817345627
20
-9.973783269255625
30
0
10
-9.2750803280262417
20
-10.007522179503743
30
0
10
-9.2876680743179207
20
-10.04126108975186
30
1.4210854715202004e-13
10
-9.3002558206096353
20
-10.074999999999999
30
0
0
LINE
5
110
100
AcDbEntity
8
0
100
AcDbLine
10
-9.3002558206096708
20
-10.075000000000001
30
0
11
-3.6984344551712498
21
-10.075000000000012
31
6.9388939038283805e-17
0
LINE
5
111
100
AcDbEntity
8
0
100
AcDbLine
10
-3.6984344551712667
20
-10.075000000000012
30
1.4210854715202004e-13
11
-3.69843445517132
21
-12.075000000000014
31
1.4210854715202001e-13
0
ENDSEC
0
SECTION
2
OBJECTS
0
DICTIONARY
5
C
100
AcDbDictionary
3
ACAD_GROUP
350
D
3
ACAD_MLINESTYLE
350
17
0
DICTIONARY
5
D
100
AcDbDictionary
0
DICTIONARY
5
1A
330
C
100
AcDbDictionary
0
DICTIONARY
5
17
100
AcDbDictionary
0
ENDSEC
0
EOF
