0
SECTION
2
HEADER
9
$INSUNITS
70
4
9
$ACADVER
1
AC1014
9
$HANDSEED
5
FFFF
0
ENDSEC
0
SECTION
2
TABLES
0
TABLE
2
VPORT
5
8
100
AcDbSymbolTable
0
ENDTAB
0
TABLE
2
LTYPE
5
5
100
AcDbSymbolTable
0
LTYPE
5
14
100
AcDbSymbolTableRecord
100
AcDbLinetypeTableRecord
2
BYBLOCK
70
0
0
LTYPE
5
15
100
AcDbSymbolTableRecord
100
AcDbLinetypeTableRecord
2
BYLAYER
70
0
0
ENDTAB
0
TABLE
2
LAYER
5
2
100
AcDbSymbolTable
70
2
0
LAYER
5
50
100
AcDbSymbolTableRecord
100
AcDbLayerTableRecord
2
0
70
0
6
CONTINUOUS
0
ENDTAB
0
TABLE
2
STYLE
5
3
100
AcDbSymbolTable
70
1
0
STYLE
5
11
100
AcDbSymbolTableRecord
100
AcDbTextStyleTableRecord
2
STANDARD
70
0
0
ENDTAB
0
TABLE
2
VIEW
5
6
100
AcDbSymbolTable
70
0
0
ENDTAB
0
TABLE
2
UCS
5
7
100
AcDbSymbolTable
70
0
0
ENDTAB
0
TABLE
2
APPID
5
9
100
AcDbSymbolTable
70
2
0
APPID
5
12
100
AcDbSymbolTableRecord
100
AcDbRegAppTableRecord
2
ACAD
70
0
0
ENDTAB
0
TABLE
2
DIMSTYLE
5
A
100
AcDbSymbolTable
70
1
0
ENDTAB
0
TABLE
2
BLOCK_RECORD
5
1
100
AcDbSymbolTable
70
1
0
BLOCK_RECORD
5
1F
100
AcDbSymbolTableRecord
100
AcDbBlockTableRecord
2
*MODEL_SPACE
0
BLOCK_RECORD
5
1B
100
AcDbSymbolTableRecord
100
AcDbBlockTableRecord
2
*PAPER_SPACE
0
ENDTAB
0
ENDSEC
0
SECTION
2
BLOCKS
0
BLOCK
5
20
100
AcDbEntity
100
AcDbBlockBegin
2
*MODEL_SPACE
0
ENDBLK
5
21
100
AcDbEntity
100
AcDbBlockEnd
0
BLOCK
5
1C
100
AcDbEntity
100
AcDbBlockBegin
2
*PAPER_SPACE
0
ENDBLK
5
1D
100
AcDbEntity
100
AcDbBlockEnd
0
ENDSEC
0
SECTION
2
ENTITIES
0
SPLINE
5
100
100
AcDbEntity
8
0
100
AcDbSpline
70
0
71
3
72
14
73
10
74
0
42
0.000000001
43
0.0000000001
44
0.0000000001
40
-0.001617193900879485
40
-0.001617193900879485
40
-0.001617193900879485
40
-0.001617193900879485
40
0
40
0
40
0
40
0.20227201005183146
40
0.20227201005183146
40
0.20227201005183146
40
0.53286495346836005
40
0.53286495346836005
40
0.53286495346836005
40
0.53286495346836005
10
18.197497317543565
20
30.074999999999878
30
1.4210854715202004e-13
10
18.192026595736905
20
30.045449108099245
30
1.4210854715202004e-13
10
18.186555873930317
20
30.015898216198593
30
1.4210854715202004e-13
10
18.18108515212387
20
29.986347324297959
30
0
10
17.496496125914547
20
26.288441083553316
30
1.4210854715202004e-13
10
16.509338430251574
20
21.823186194301449
30
1.4210854715202004e-13
10
15.410914124062458
20
16.904317724104139
30
0
10
13.61565177209286
20
8.8649295486240387
30
0
10
11.578987197780251
20
-0.29210466660878787
30
0
10
10.906656253146991
20
-8.0065117644593542
30
0
0
LINE
5
101
100
AcDbEntity
8
0
100
AcDbLine
10
18.197497317543565
20
30.074999999999878
30
1.4210854715202004e-13
11
14.085353726403511
21
30.075000000000003
31
1.4210854715202004e-13
0
LINE
5
102
100
AcDbEntity
8
0
100
AcDbLine
10
14.08535372640344
20
30.075000000000003
30
0
11
14.085353726403511
21
32.074999999999996
31
0
0
LINE
5
103
100
AcDbEntity
8
0
100
AcDbLine
10
14.085353726403511
20
32.074999999999996
30
0
11
5.9353537264035339
21
32.074999999999996
31
0
0
LINE
5
104
100
AcDbEntity
8
0
100
AcDbLine
10
5.9353537264036049
20
32.074999999999996
30
0
11
5.935353726403676
21
30.075000000000003
31
0
0
LINE
5
105
100
AcDbEntity
8
0
100
AcDbLine
10
5.935353726403676
20
30.075000000000003
30
0
11
2.0229353143304958
21
30.075000000000038
31
-1.3877787807814457e-16
0
SPLINE
5
106
100
AcDbEntity
8
0
100
AcDbSpline
70
0
71
3
72
20
73
16
74
0
42
0.000000001
43
0.0000000001
44
0.0000000001
40
-0.0031014314605294115
40
-0.0031014314605294115
40
-0.0031014314605294115
40
-0.0031014314605294115
40
0
40
0
40
0
40
0.30233748424812695
40
0.30233748424812695
40
0.30233748424812695
40
0.5509193481671586
40
0.5509193481671586
40
0.5509193481671586
40
0.84689552266194368
40
0.84689552266194368
40
0.84689552266194368
40
0.9992687082869034
40
0.9992687082869034
40
0.9992687082869034
40
0.9992687082869034
10
2.0229353143304252
20
30.074999999999061
30
1.4210854715202004e-13
10
2.0235095959353799
20
30.049438475657499
30
1.4210854715202004e-13
10
2.0240838775401215
20
30.023876951315991
30
0
10
2.0246581591448631
20
29.9983154269745
30
1.4210854715202004e-13
10
2.0807358210279858
20
27.502274273321675
30
0
10
2.3875327339138153
20
24.501888903243099
30
0
10
2.7717343088138335
20
21.27125414685618
30
0
10
3.087624823834858
20
18.615026417167229
30
0
10
3.4537635577586911
20
15.843217384007877
30
0
10
3.5542030626511689
20
12.860364028298319
30
1.4210854715202004e-13
10
3.6737922392609335
20
9.3088035428181293
30
1.4210854715202004e-13
10
3.3898810950533687
20
5.4196926298207693
30
0
10
1.9865905763622038
20
0.51588911905767532
30
1.4210854715202004e-13
10
1.26415456591225
20
-2.0086659870730106
30
0
10
0.24376885826747241
20
-4.806749979310645
30
1.4210854715202004e-13
10
-1.1195870852147038
20
-7.9249999999994358
30
1.4210854715202004e-13
0
LINE
5
107
100
AcDbEntity
8
0
100
AcDbLine
10
-1.1195870852147038
20
-7.9249999999994358
30
1.4210854715202004e-13
11
-1.6534606194996115
21
-7.9250000000000842
31
1.4210854715202004e-13
0
LINE
5
108
100
AcDbEntity
8
0
100
AcDbLine
10
-1.6534606194996115
20
-7.9250000000000842
30
1.4210854715202004e-13
11
-1.6534606194996115
21
-9.9249999999999972
31
1.4210854715202004e-13
0
LINE
5
109
100
AcDbEntity
8
0
100
AcDbLine
10
-1.6534606194996115
20
-9.9249999999999972
30
1.4210854715202004e-13
11
-6.0251301003063418
21
-9.9249999999999972
31
1.4210854715202004e-13
0
LINE
5
110
100
AcDbEntity
8
0
100
AcDbLine
10
-6.0251301003063418
20
-9.9249999999999972
30
0
11
-6.0251301003063418
21
-7.9249999999999954
31
0
0
LINE
5
111
100
AcDbEntity
8
0
100
AcDbLine
10
-6.0251301003061997
20
-7.9249999999999954
30
0
11
-14.383933022852702
21
-7.9249999999999954
31
0
0
LINE
5
112
100
AcDbEntity
8
0
100
AcDbLine
10
-14.383933022852773
20
-7.9249999999999954
30
0
11
-14.383933022852702
21
-9.9249999999999972
31
0
0
LINE
5
113
100
AcDbEntity
8
0
100
AcDbLine
10
-14.383933022852702
20
-9.9249999999999972
30
0
11
-18.247501961585684
21
-9.9249999999999972
31
1.3877787807814457e-16
0
SPLINE
5
114
100
AcDbEntity
8
0
100
AcDbSpline
70
0
71
3
72
23
73
19
74
0
42
0.000000001
43
0.0000000001
44
0.0000000001
40
-0.0061881039764208577
40
-0.0061881039764208577
40
-0.0061881039764208577
40
-0.0061881039764208577
40
0
40
0
40
0
40
0.22124566499701212
40
0.22124566499701212
40
0.22124566499701212
40
0.47551966884677188
40
0.47551966884677188
40
0.47551966884677188
40
0.72723513325099776
40
0.72723513325099776
40
0.72723513325099776
40
1
40
1
40
1
40
1.0034651369556522
40
1.0034651369556522
40
1.0034651369556522
40
1.0034651369556522
10
-18.247501961585755
20
-9.9249999999999527
30
1.4210854715202004e-13
10
-18.221579932369423
20
-9.9638705823010554
30
0
10
-18.195657903153233
20
-10.002741164602176
30
0
10
-18.169735873936972
20
-10.041611746903296
30
1.4210854715202004e-13
10
-17.234487388671482
20
-11.444034871853642
30
0
10
-15.772361839788474
20
-12.620055944585285
30
0
10
-14.110487139314785
20
-13.707712553736545
30
1.4210854715202004e-13
10
-12.200521879693653
20
-14.957738405435288
30
1.4210854715202004e-13
10
-10.080945030808834
20
-16.117301892923386
30
1.4210854715202004e-13
10
-8.5337145272055182
20
-17.515791337103366
30
0
10
-7.0020524663643613
20
-18.900208991195001
30
1.4210854715202004e-13
10
-6.0589857239838096
20
-20.526252456775662
30
1.4210854715202004e-13
10
-5.8769798853603561
20
-22.488249821436341
30
1.4210854715202004e-13
10
-5.6797540278343916
20
-24.614316851128848
30
1.4210854715202004e-13
10
-6.3334107236814674
20
-27.119205460375117
30
0
10
-7.770485665311071
20
-29.966203810653859
30
0
10
-7.7887912932294512
20
-30.002469207102518
30
1.4210854715202004e-13
10
-7.8070969211479735
20
-30.038734603551177
30
1.4210854715202004e-13
10
-7.8254025490664958
20
-30.074999999999878
30
1.4210854715202004e-13
0
LINE
5
115
100
AcDbEntity
8
0
100
AcDbLine
10
-7.8254025490664958
20
-30.074999999999878
30
1.4210854715202004e-13
11
0.072317573178324324
21
-30.075000000000003
31
1.4183099139586375e-13
0
LINE
5
116
100
AcDbEntity
8
0
100
AcDbLine
10
0.072317573178395378
20
-30.075000000000003
30
1.4210854715202004e-13
11
0.072317573178466432
21
-32.075000000000003
31
1.4210854715202004e-13
0
LINE
5
117
100
AcDbEntity
8
0
100
AcDbLine
10
0.072317573178395378
20
-32.075000000000003
30
1.4210854715202004e-13
11
7.2223175731784286
21
-32.075000000000003
31
1.4210854715202004e-13
0
LINE
5
118
100
AcDbEntity
8
0
100
AcDbLine
10
7.2223175731784295
20
-32.075000000000003
30
1.4210854715202004e-13
11
7.2223175731783584
21
-30.075000000000003
31
1.4210854715202001e-13
0
LINE
5
119
100
AcDbEntity
8
0
100
AcDbLine
10
7.2223175731783584
20
-30.075000000000003
30
1.4210854715202004e-13
11
17.561754553552191
21
-30.074999999999999
31
1.4210854715202004e-13
0
SPLINE
5
120
100
AcDbEntity
8
0
100
AcDbSpline
70
0
71
3
72
14
73
10
74
0
42
0.000000001
43
0.0000000001
44
0.0000000001
40
0.53286495346837504
40
0.53286495346837504
40
0.53286495346837504
40
0.53286495346837504
40
0.74013218734411557
40
0.74013218734411557
40
0.74013218734411557
40
1
40
1
40
1
40
1.0060171990844495
40
1.0060171990844495
40
1.0060171990844495
40
1.0060171990844495
10
10.906656253146778
20
-8.0065117644603845
30
1.4210854715202004e-13
10
10.485134324388241
20
-12.843105684580056
30
1.4210854715202004e-13
10
10.612211203733679
20
-17.096784421801093
30
1.4210854715202004e-13
10
11.406766207931014
20
-20.545361924870026
30
1.4210854715202004e-13
10
12.402964531778764
20
-24.869124420943493
30
1.4210854715202004e-13
10
14.410776838512618
20
-27.971519496421486
30
0
10
17.355964793414245
20
-29.937622085132368
30
1.4210854715202004e-13
10
17.424561380126988
20
-29.983414723421543
30
0
10
17.493157966839732
20
-30.029207361710711
30
1.4210854715202004e-13
10
17.561754553552333
20
-30.074999999999889
30
0
0
ENDSEC
0
SECTION
2
OBJECTS
0
DICTIONARY
5
C
100
AcDbDictionary
3
ACAD_GROUP
350
D
3
ACAD_MLINESTYLE
350
17
0
DICTIONARY
5
D
100
AcDbDictionary
0
DICTIONARY
5
1A
330
C
100
AcDbDictionary
0
DICTIONARY
5
17
100
AcDbDictionary
0
ENDSEC
0
EOF
