0
SECTION
2
HEADER
9
$INSUNITS
70
4
9
$ACADVER
1
AC1014
9
$HANDSEED
5
FFFF
0
ENDSEC
0
SECTION
2
TABLES
0
TABLE
2
VPORT
5
8
100
AcDbSymbolTable
0
ENDTAB
0
TABLE
2
LTYPE
5
5
100
AcDbSymbolTable
0
LTYPE
5
14
100
AcDbSymbolTableRecord
100
AcDbLinetypeTableRecord
2
BYBLOCK
70
0
0
LTYPE
5
15
100
AcDbSymbolTableRecord
100
AcDbLinetypeTableRecord
2
BYLAYER
70
0
0
ENDTAB
0
TABLE
2
LAYER
5
2
100
AcDbSymbolTable
70
2
0
LAYER
5
50
100
AcDbSymbolTableRecord
100
AcDbLayerTableRecord
2
0
70
0
6
CONTINUOUS
0
ENDTAB
0
TABLE
2
STYLE
5
3
100
AcDbSymbolTable
70
1
0
STYLE
5
11
100
AcDbSymbolTableRecord
100
AcDbTextStyleTableRecord
2
STANDARD
70
0
0
ENDTAB
0
TABLE
2
VIEW
5
6
100
AcDbSymbolTable
70
0
0
ENDTAB
0
TABLE
2
UCS
5
7
100
AcDbSymbolTable
70
0
0
ENDTAB
0
TABLE
2
APPID
5
9
100
AcDbSymbolTable
70
2
0
APPID
5
12
100
AcDbSymbolTableRecord
100
AcDbRegAppTableRecord
2
ACAD
70
0
0
ENDTAB
0
TABLE
2
DIMSTYLE
5
A
100
AcDbSymbolTable
70
1
0
ENDTAB
0
TABLE
2
BLOCK_RECORD
5
1
100
AcDbSymbolTable
70
1
0
BLOCK_RECORD
5
1F
100
AcDbSymbolTableRecord
100
AcDbBlockTableRecord
2
*MODEL_SPACE
0
BLOCK_RECORD
5
1B
100
AcDbSymbolTableRecord
100
AcDbBlockTableRecord
2
*PAPER_SPACE
0
ENDTAB
0
ENDSEC
0
SECTION
2
BLOCKS
0
BLOCK
5
20
100
AcDbEntity
100
AcDbBlockBegin
2
*MODEL_SPACE
0
ENDBLK
5
21
100
AcDbEntity
100
AcDbBlockEnd
0
BLOCK
5
1C
100
AcDbEntity
100
AcDbBlockBegin
2
*PAPER_SPACE
0
ENDBLK
5
1D
100
AcDbEntity
100
AcDbBlockEnd
0
ENDSEC
0
SECTION
2
ENTITIES
0
LINE
5
100
100
AcDbEntity
8
0
100
AcDbLine
10
2.3168944994323226
20
-32.074999999999932
30
0
11
6.4668944994321009
21
-32.074999999999932
31
0
0
LINE
5
101
100
AcDbEntity
8
0
100
AcDbLine
10
6.4668944994321009
20
-32.074999999999932
30
0
11
6.4668944994321009
21
-30.074999999999932
31
0
0
LINE
5
102
100
AcDbEntity
8
0
100
AcDbLine
10
6.4668944994321009
20
-30.074999999999932
30
7.1054273576010019e-14
11
11.322211301361023
21
-30.075000000000003
31
7.1054273576010019e-14
0
SPLINE
5
103
100
AcDbEntity
8
0
100
AcDbSpline
70
0
71
3
72
20
73
16
74
0
42
0.000000001
43
0.0000000001
44
0.0000000001
40
-0.0012343297723645861
40
-0.0012343297723645861
40
-0.0012343297723645861
40
-0.0012343297723645861
40
0
40
0
40
0
40
0.44451151805749917
40
0.44451151805749917
40
0.44451151805749917
40
0.81686277030139576
40
0.81686277030139576
40
0.81686277030139576
40
1
40
1
40
1
40
1.0053737157259137
40
1.0053737157259137
40
1.0053737157259137
40
1.0053737157259137
10
18.084748019146417
20
-10.042959927228772
30
0
10
18.072395822678118
20
-10.050204576820239
30
7.1054273576010019e-14
10
18.060043626210387
20
-10.057449226411581
30
7.1054273576010019e-14
10
18.047691429742656
20
-10.064693876002933
30
0
10
13.605795663400784
20
-12.669896799424105
30
7.1054273576010019e-14
10
10.389819627561394
20
-15.40060272835909
30
0
10
8.8880655057150193
20
-18.29043730427296
30
7.1054273576010019e-14
10
7.6301002897056946
20
-20.711147408302367
30
0
10
7.6519275210957005
20
-23.252988916989832
30
0
10
8.7888129383574665
20
-25.925864715512866
30
0
10
9.3479786308250823
20
-27.24049187500291
30
7.1054273576010019e-14
10
10.16709323373334
20
-28.584253558729028
30
1.4210854715202004e-13
10
11.228501696063518
20
-29.95406235342994
30
0
10
11.259738231162402
20
-29.994374902286719
30
7.1054273576010019e-14
10
11.290974766261712
20
-30.034687451143505
30
0
10
11.322211301361023
20
-30.07500000000034
30
0
0
LINE
5
104
100
AcDbEntity
8
0
100
AcDbLine
10
18.084748019146417
20
-10.042959927228772
30
0
11
18.084748019145991
21
-7.9250000000000664
31
0
0
LINE
5
105
100
AcDbEntity
8
0
100
AcDbLine
10
18.084748019145849
20
-7.9250000000000664
30
7.1054273576010019e-14
11
14.946688145939646
21
-7.9250000000000664
31
7.1054273576010019e-14
0
LINE
5
106
100
AcDbEntity
8
0
100
AcDbLine
10
14.946688145939646
20
-7.9250000000000664
30
7.1054273576010019e-14
11
14.946688145939646
21
-9.9250000000000682
31
7.1054273576010019e-14
0
LINE
5
107
100
AcDbEntity
8
0
100
AcDbLine
10
14.946688145939646
20
-9.9250000000000682
30
7.1054273576010019e-14
11
5.0966881459395097
21
-9.9250000000000682
31
7.1054273576010019e-14
0
LINE
5
108
100
AcDbEntity
8
0
100
AcDbLine
10
5.0966881459395097
20
-9.9250000000000682
30
0
11
5.0966881459395097
21
-7.9250000000000664
31
2.1335893063677407e-29
0
LINE
5
109
100
AcDbEntity
8
0
100
AcDbLine
10
5.0966881459395097
20
-7.9250000000000664
30
7.1054273576010019e-14
11
2.0416258592652525
21
-7.9250000000000664
31
7.1054273576010019e-14
0
SPLINE
5
110
100
AcDbEntity
8
0
100
AcDbSpline
70
0
71
3
72
17
73
13
74
0
42
0.000000001
43
0.0000000001
44
0.0000000001
40
0.00076363865224875465
40
0.00076363865224875465
40
0.00076363865224875465
40
0.00076363865224875465
40
0.5
40
0.5
40
0.5
40
0.97243129315698795
40
0.97243129315698795
40
0.97243129315698795
40
1
40
1
40
1
40
1.0023121956678924
40
1.0023121956678924
40
1.0023121956678924
40
1.0023121956678924
10
2.0416258592652525
20
-7.9250000000000842
30
0
10
-2.7741679958160148
20
-2.9126560058945472
30
0
10
-5.7869638647603949
20
2.6558142409726582
30
7.1054273576010019e-14
10
-6.4001891047450954
20
8.9764800528683875
30
7.1054273576010019e-14
10
-6.9804889698058048
20
14.957775796363002
30
0
10
-5.4570217435689017
20
21.606170269842746
30
0
10
-2.4605570072286298
20
28.719409554625209
30
7.1054273576010019e-14
10
-2.2856984424423388
20
29.134502312846031
30
7.1054273576010019e-14
10
-2.1056081753604872
20
29.551242742572335
30
7.1054273576010019e-14
10
-1.9202959178072376
20
29.969626711151307
30
7.1054273576010019e-14
10
-1.904738468583389
20
30.004751140767567
30
1.4210854715202004e-13
10
-1.8891810193585457
20
30.039875570383821
30
7.1054273576010019e-14
10
-1.8736235701342707
20
30.075000000000109
30
7.1054273576010019e-14
0
LINE
5
111
100
AcDbEntity
8
0
100
AcDbLine
10
-1.8736235701342707
20
30.075000000000109
30
1.4210854715202004e-13
11
-7.7186416255787549
21
30.074999999999932
31
1.4183099139586375e-13
0
LINE
5
112
100
AcDbEntity
8
0
100
AcDbLine
10
-7.7186416255786128
20
30.074999999999932
30
7.1054273576010019e-14
11
-7.7186416255786128
21
32.074999999999925
31
7.1054273576010019e-14
0
LINE
5
113
100
AcDbEntity
8
0
100
AcDbLine
10
-7.7186416255786128
20
32.074999999999925
30
7.1054273576010019e-14
11
-11.868641625578391
21
32.074999999999925
31
7.1054273576010019e-14
0
LINE
5
114
100
AcDbEntity
8
0
100
AcDbLine
10
-11.868641625578391
20
32.074999999999925
30
0
11
-11.868641625578391
21
30.074999999999932
31
0
0
LINE
5
115
100
AcDbEntity
8
0
100
AcDbLine
10
-11.868641625578391
20
30.074999999999932
30
0
11
-18.102728585336507
21
30.075000000000234
31
0
0
SPLINE
5
116
100
AcDbEntity
8
0
100
AcDbSpline
70
0
71
3
72
20
73
16
74
0
42
0.000000001
43
0.0000000001
44
0.0000000001
40
-0.0010295238128052624
40
-0.0010295238128052624
40
-0.0010295238128052624
40
-0.0010295238128052624
40
0
40
0
40
0
40
0.33517480566076258
40
0.33517480566076258
40
0.33517480566076258
40
0.67414464509291272
40
0.67414464509291272
40
0.67414464509291272
40
1
40
1
40
1
40
1.0044701991540925
40
1.0044701991540925
40
1.0044701991540925
40
1.0044701991540925
10
-18.102728585335797
20
30.074999999999914
30
0
10
-18.096168679210933
20
30.044708647413572
30
0
10
-18.089608773085644
20
30.014417294827069
30
7.1054273576010019e-14
10
-18.08304886696007
20
29.984125942240567
30
0
10
-15.947714151368899
20
20.123896920049731
30
7.1054273576010019e-14
10
-14.285750784939921
20
11.044983679444904
30
0
10
-13.242302967982766
20
2.9880943213319089
30
7.1054273576010019e-14
10
-12.187040660088115
20
-5.1600195760065048
30
0
10
-11.802934606196089
20
-12.199540175643392
30
0
10
-12.314464251288655
20
-17.754274986272844
30
7.1054273576010019e-14
10
-12.806203204602014
20
-23.094101344171328
30
7.1054273576010019e-14
10
-14.098019134079181
20
-27.107197329966208
30
7.1054273576010019e-14
10
-16.085182422717139
20
-29.957102977472481
30
7.1054273576010019e-14
10
-16.112584573756976
20
-29.99640198498173
30
0
10
-16.139986724796813
20
-30.035700992490977
30
0
10
-16.16738887583665
20
-30.075000000000198
30
7.1054273576010019e-14
0
LINE
5
117
100
AcDbEntity
8
0
100
AcDbLine
10
-16.16738887583665
20
-30.075000000000198
30
7.1054273576010019e-14
11
-9.403644904940478
21
-30.074999999999932
31
7.049916206369744e-14
0
LINE
5
118
100
AcDbEntity
8
0
100
AcDbLine
10
-9.4036449049403359
20
-30.074999999999932
30
7.1054273576010019e-14
11
-9.4036449049403359
21
-32.074999999999932
31
7.1054273576010019e-14
0
LINE
5
119
100
AcDbEntity
8
0
100
AcDbLine
10
-9.4036449049403359
20
-32.074999999999932
30
7.1054273576010019e-14
11
-5.2536449049405576
21
-32.074999999999932
31
7.1054273576010019e-14
0
LINE
5
120
100
AcDbEntity
8
0
100
AcDbLine
10
-5.2536449049406997
20
-32.074999999999932
30
7.1054273576010019e-14
11
-5.2536449049405576
21
-30.074999999999932
31
7.1054273576010019e-14
0
LINE
5
121
100
AcDbEntity
8
0
100
AcDbLine
10
-5.2536449049402734
20
-30.074999999999932
30
0
11
2.3168944994326068
21
-30.074999999999932
31
0
0
LINE
5
122
100
AcDbEntity
8
0
100
AcDbLine
10
2.3168944994323226
20
-30.074999999999932
30
0
11
2.3168944994321805
21
-32.074999999999932
31
-1.5777218104420236e-29
0
ENDSEC
0
SECTION
2
OBJECTS
0
DICTIONARY
5
C
100
AcDbDictionary
3
ACAD_GROUP
350
D
3
ACAD_MLINESTYLE
350
17
0
DICTIONARY
5
D
100
AcDbDictionary
0
DICTIONARY
5
1A
330
C
100
AcDbDictionary
0
DICTIONARY
5
17
100
AcDbDictionary
0
ENDSEC
0
EOF
