0
SECTION
2
HEADER
9
$INSUNITS
70
4
9
$ACADVER
1
AC1014
9
$HANDSEED
5
FFFF
0
ENDSEC
0
SECTION
2
TABLES
0
TABLE
2
VPORT
5
8
100
AcDbSymbolTable
0
ENDTAB
0
TABLE
2
LTYPE
5
5
100
AcDbSymbolTable
0
LTYPE
5
14
100
AcDbSymbolTableRecord
100
AcDbLinetypeTableRecord
2
BYBLOCK
70
0
0
LTYPE
5
15
100
AcDbSymbolTableRecord
100
AcDbLinetypeTableRecord
2
BYLAYER
70
0
0
ENDTAB
0
TABLE
2
LAYER
5
2
100
AcDbSymbolTable
70
2
0
LAYER
5
50
100
AcDbSymbolTableRecord
100
AcDbLayerTableRecord
2
0
70
0
6
CONTINUOUS
0
ENDTAB
0
TABLE
2
STYLE
5
3
100
AcDbSymbolTable
70
1
0
STYLE
5
11
100
AcDbSymbolTableRecord
100
AcDbTextStyleTableRecord
2
STANDARD
70
0
0
ENDTAB
0
TABLE
2
VIEW
5
6
100
AcDbSymbolTable
70
0
0
ENDTAB
0
TABLE
2
UCS
5
7
100
AcDbSymbolTable
70
0
0
ENDTAB
0
TABLE
2
APPID
5
9
100
AcDbSymbolTable
70
2
0
APPID
5
12
100
AcDbSymbolTableRecord
100
AcDbRegAppTableRecord
2
ACAD
70
0
0
ENDTAB
0
TABLE
2
DIMSTYLE
5
A
100
AcDbSymbolTable
70
1
0
ENDTAB
0
TABLE
2
BLOCK_RECORD
5
1
100
AcDbSymbolTable
70
1
0
BLOCK_RECORD
5
1F
100
AcDbSymbolTableRecord
100
AcDbBlockTableRecord
2
*MODEL_SPACE
0
BLOCK_RECORD
5
1B
100
AcDbSymbolTableRecord
100
AcDbBlockTableRecord
2
*PAPER_SPACE
0
ENDTAB
0
ENDSEC
0
SECTION
2
BLOCKS
0
BLOCK
5
20
100
AcDbEntity
100
AcDbBlockBegin
2
*MODEL_SPACE
0
ENDBLK
5
21
100
AcDbEntity
100
AcDbBlockEnd
0
BLOCK
5
1C
100
AcDbEntity
100
AcDbBlockBegin
2
*PAPER_SPACE
0
ENDBLK
5
1D
100
AcDbEntity
100
AcDbBlockEnd
0
ENDSEC
0
SECTION
2
ENTITIES
0
LINE
5
100
100
AcDbEntity
8
0
100
AcDbLine
10
-6.794673184052904
20
-32.100000000000001
30
0
11
0.40532681594704911
21
-32.100000000000001
31
-3.3531070396352522e-43
0
LINE
5
101
100
AcDbEntity
8
0
100
AcDbLine
10
0.40532681594697806
20
-32.100000000000001
30
1.7763568394002505e-14
11
0.40532681594701359
21
-30.099999999999998
31
1.7763568394002505e-14
0
LINE
5
102
100
AcDbEntity
8
0
100
AcDbLine
10
0.40532681594704911
20
-30.099999999999998
30
1.7763568394002505e-14
11
4.8670539106131736
21
-30.099999999999923
31
1.8041124150161476e-14
0
SPLINE
5
103
100
AcDbEntity
8
0
100
AcDbSpline
70
0
71
3
72
23
73
19
74
0
42
0.000000001
43
0.0000000001
44
0.0000000001
40
-0.0018306879178592219
40
-0.0018306879178592219
40
-0.0018306879178592219
40
-0.0018306879178592219
40
0
40
0
40
0
40
0.20319994322204604
40
0.20319994322204604
40
0.20319994322204604
40
0.4286432905086629
40
0.4286432905086629
40
0.4286432905086629
40
0.66618314218167618
40
0.66618314218167618
40
0.66618314218167618
40
1
40
1
40
1
40
1.0008845491150351
40
1.0008845491150351
40
1.0008845491150351
40
1.0008845491150351
10
6.8077200055596165
20
30.099999999999405
30
-1.7763568394002505e-14
10
6.806931335424018
20
30.065896024033421
30
0
10
6.8061426652884904
20
30.031792048067388
30
-1.7763568394002505e-14
10
6.8053539951528563
20
29.997688072101347
30
-1.7763568394002505e-14
10
6.7179589235327342
20
26.218516923645801
30
-3.5527136788005009e-14
10
7.0284351122777622
20
22.911809137043448
30
0
10
7.5103836359520315
20
19.775219520054648
30
0
10
8.0450889447928375
20
16.295281233134489
30
-1.7763568394002505e-14
10
8.7520958872461208
20
12.971494224280233
30
0
10
9.155476827474871
20
9.1907559322107701
30
-1.7763568394002505e-14
10
9.5805017832471151
20
5.2071563985731917
30
-1.7763568394002505e-14
10
9.6563174989168132
20
0.70357380035866335
30
-1.7763568394002505e-14
10
9.2456008703421944
20
-4.4814874758108214
30
-1.7763568394002505e-14
10
8.6684171538464483
20
-11.768100019414627
30
-1.7763568394002505e-14
10
7.1775784928016151
20
-20.337134652096154
30
0
10
4.8852699178709003
20
-30.023030281779089
30
0
10
4.8791979154515985
20
-30.04868685451936
30
-1.7763568394002505e-14
10
4.8731259130323679
20
-30.074343427259635
30
-1.7763568394002505e-14
10
4.8670539106130661
20
-30.099999999999945
30
0
0
LINE
5
104
100
AcDbEntity
8
0
100
AcDbLine
10
6.8077200055596165
20
30.099999999999405
30
-1.7763568394002505e-14
11
2.0161988106996267
21
30.099999999999987
31
-1.7763568393981679e-14
0
LINE
5
105
100
AcDbEntity
8
0
100
AcDbLine
10
2.0161988106995921
20
30.099999999999987
30
0
11
2.0161988106995921
21
32.100000000000001
31
0
0
LINE
5
106
100
AcDbEntity
8
0
100
AcDbLine
10
2.0161988106996276
20
32.100000000000001
30
0
11
-6.1838011893003761
21
32.100000000000001
31
3.765989622872652e-43
0
LINE
5
107
100
AcDbEntity
8
0
100
AcDbLine
10
-6.1838011893004108
20
32.100000000000001
30
-3.5527136788005009e-14
11
-6.1838011893004108
21
30.099999999999987
31
-3.5527136788005009e-14
0
LINE
5
108
100
AcDbEntity
8
0
100
AcDbLine
10
-6.1838011893003397
20
30.099999999999987
30
-1.7763568394002505e-14
11
-9.5393925750328279
21
30.099999999999987
31
-1.8041124150158794e-14
0
SPLINE
5
109
100
AcDbEntity
8
0
100
AcDbSpline
70
0
71
3
72
26
73
22
74
0
42
0.000000001
43
0.0000000001
44
0.0000000001
40
-0.0013530263206266799
40
-0.0013530263206266799
40
-0.0013530263206266799
40
-0.0013530263206266799
40
0
40
0
40
0
40
0.16778237076381819
40
0.16778237076381819
40
0.16778237076381819
40
0.37583677807286364
40
0.37583677807286364
40
0.37583677807286364
40
0.55012103859816586
40
0.55012103859816586
40
0.55012103859816586
40
0.78098588631283972
40
0.78098588631283972
40
0.78098588631283972
40
1
40
1
40
1
40
1.0014089568259377
40
1.0014089568259377
40
1.0014089568259377
40
1.0014089568259377
10
-9.5393925750328989
20
30.10000000000052
30
-1.7763568394002505e-14
10
-9.5384930739794527
20
30.065790506115462
30
1.7763568394002505e-14
10
-9.5375935729260419
20
30.031581012230461
30
-1.7763568394002505e-14
10
-9.5366940718726312
20
29.997371518345464
30
-1.7763568394002505e-14
10
-9.4249705828418939
20
25.748344793729927
30
-1.7763568394002505e-14
10
-8.861905972588815
20
22.278554714109173
30
-1.7763568394002505e-14
10
-8.0599898604215525
20
19.340815474689528
30
1.7763568394002505e-14
10
-7.0655934845150625
20
15.697944096108509
30
-3.5527136788005009e-14
10
-5.7445641811420245
20
12.836041497518025
30
-1.7763568394002505e-14
10
-4.8202085845676379
20
9.8550632188694287
30
1.7763568394002505e-14
10
-4.0458888588042896
20
7.3579395017806881
30
0
10
-3.5694296490756017
20
4.7519616132889997
30
0
10
-3.5423614663268665
20
1.7244975694055942
30
-3.5527136788005009e-14
10
-3.5065057219851781
20
-2.2858188145648484
30
0
10
-4.2426320942613671
20
-7.0250086324667382
30
-1.7763568394002505e-14
10
-5.4134016459999756
20
-12.514695042802773
30
-1.7763568394002505e-14
10
-6.5240733582341193
20
-17.722585353874045
30
-1.7763568394002505e-14
10
-7.9795990522504923
20
-23.572746030192768
30
1.7763568394002505e-14
10
-9.5339070136402881
20
-29.976412709356101
30
0
10
-9.5439061136038106
20
-30.017608472904055
30
1.7763568394002505e-14
10
-9.553905213567333
20
-30.058804236452001
30
-1.7763568394002505e-14
10
-9.5639043135308555
20
-30.099999999999927
30
0
0
LINE
5
110
100
AcDbEntity
8
0
100
AcDbLine
10
-9.5639043135307844
20
-30.099999999999927
30
0
11
-6.7946731840528685
21
-30.099999999999998
31
-2.4454688061851352e-27
0
LINE
5
111
100
AcDbEntity
8
0
100
AcDbLine
10
-6.794673184052904
20
-30.099999999999998
30
-1.7763568394002505e-14
11
-6.7946731840529395
21
-32.100000000000001
31
-1.7763568394002498e-14
0
ENDSEC
0
SECTION
2
OBJECTS
0
DICTIONARY
5
C
100
AcDbDictionary
3
ACAD_GROUP
350
D
3
ACAD_MLINESTYLE
350
17
0
DICTIONARY
5
D
100
AcDbDictionary
0
DICTIONARY
5
1A
330
C
100
AcDbDictionary
0
DICTIONARY
5
17
100
AcDbDictionary
0
ENDSEC
0
EOF
