0
SECTION
2
HEADER
9
$INSUNITS
70
4
9
$ACADVER
1
AC1014
9
$HANDSEED
5
FFFF
0
ENDSEC
0
SECTION
2
TABLES
0
TABLE
2
VPORT
5
8
100
AcDbSymbolTable
0
ENDTAB
0
TABLE
2
LTYPE
5
5
100
AcDbSymbolTable
0
LTYPE
5
14
100
AcDbSymbolTableRecord
100
AcDbLinetypeTableRecord
2
BYBLOCK
70
0
0
LTYPE
5
15
100
AcDbSymbolTableRecord
100
AcDbLinetypeTableRecord
2
BYLAYER
70
0
0
ENDTAB
0
TABLE
2
LAYER
5
2
100
AcDbSymbolTable
70
2
0
LAYER
5
50
100
AcDbSymbolTableRecord
100
AcDbLayerTableRecord
2
0
70
0
6
CONTINUOUS
0
ENDTAB
0
TABLE
2
STYLE
5
3
100
AcDbSymbolTable
70
1
0
STYLE
5
11
100
AcDbSymbolTableRecord
100
AcDbTextStyleTableRecord
2
STANDARD
70
0
0
ENDTAB
0
TABLE
2
VIEW
5
6
100
AcDbSymbolTable
70
0
0
ENDTAB
0
TABLE
2
UCS
5
7
100
AcDbSymbolTable
70
0
0
ENDTAB
0
TABLE
2
APPID
5
9
100
AcDbSymbolTable
70
2
0
APPID
5
12
100
AcDbSymbolTableRecord
100
AcDbRegAppTableRecord
2
ACAD
70
0
0
ENDTAB
0
TABLE
2
DIMSTYLE
5
A
100
AcDbSymbolTable
70
1
0
ENDTAB
0
TABLE
2
BLOCK_RECORD
5
1
100
AcDbSymbolTable
70
1
0
BLOCK_RECORD
5
1F
100
AcDbSymbolTableRecord
100
AcDbBlockTableRecord
2
*MODEL_SPACE
0
BLOCK_RECORD
5
1B
100
AcDbSymbolTableRecord
100
AcDbBlockTableRecord
2
*PAPER_SPACE
0
ENDTAB
0
ENDSEC
0
SECTION
2
BLOCKS
0
BLOCK
5
20
100
AcDbEntity
100
AcDbBlockBegin
2
*MODEL_SPACE
0
ENDBLK
5
21
100
AcDbEntity
100
AcDbBlockEnd
0
BLOCK
5
1C
100
AcDbEntity
100
AcDbBlockBegin
2
*PAPER_SPACE
0
ENDBLK
5
1D
100
AcDbEntity
100
AcDbBlockEnd
0
ENDSEC
0
SECTION
2
ENTITIES
0
LINE
5
100
100
AcDbEntity
8
0
100
AcDbLine
10
-31.099999999999994
20
-21.134888995850893
30
0
11
-31.099999999999994
21
-24.755156681645083
31
0
0
LINE
5
101
100
AcDbEntity
8
0
100
AcDbLine
10
-31.099999999999994
20
-24.755156681645083
30
0
11
-27.5
21
-24.755156681645083
31
0
0
ARC
5
102
100
AcDbEntity
8
0
100
AcDbCircle
10
-27.500000000000007
20
-23.155156681645082
30
0
40
1.6000000000000014
210
-0
220
0
230
1
100
AcDbArc
50
270.00000000000023
51
360
0
LINE
5
103
100
AcDbEntity
8
0
100
AcDbLine
10
-25.899999999999991
20
-23.155156681645117
30
0
11
-25.900000000000006
21
-11.31220963779441
31
0
0
SPLINE
5
104
100
AcDbEntity
8
0
100
AcDbSpline
70
0
71
3
72
26
73
22
74
0
42
0.000000001
43
0.0000000001
44
0.0000000001
40
0
40
0
40
0
40
0
40
0.14406575617356679
40
0.14406575617356679
40
0.14406575617356679
40
0.31962978428824568
40
0.31962978428824568
40
0.31962978428824568
40
0.49197769718219464
40
0.49197769718219464
40
0.49197769718219464
40
0.68622052888623086
40
0.68622052888623086
40
0.68622052888623086
40
0.87239020859026795
40
0.87239020859026795
40
0.87239020859026795
40
1
40
1
40
1
40
1.0111225675016007
40
1.0111225675016007
40
1.0111225675016007
40
1.0111225675016007
10
-25.900000000000006
20
-11.31220963779441
30
0
10
-25.900000000000006
20
-9.4160193814736459
30
0
10
-24.84473054496279
20
-7.3006197511270443
30
0
10
-22.874100724762041
20
-5.2159374338816633
30
0
10
-20.472616025368726
20
-2.675464009273405
30
0
10
-16.728401913313338
20
-0.24626759365556694
30
0
10
-12.309207145069774
20
1.4058637471940827
30
0
10
-7.9709665432926702
20
3.0277300912274185
30
0
10
-2.9989536516671222
20
3.8903492607006385
30
0
10
1.8925836958046727
20
3.9811591604784269
30
0
10
7.4055374055697953
20
4.0835054655970282
30
0
10
12.789051117548752
20
3.2435074073334746
30
0
10
17.252887139029699
20
1.8768037468021959
30
0
10
21.531196485532003
20
0.56690324494415023
30
0
10
24.957793109061491
20
-1.2022606592225671
30
0
10
27.358628290255943
20
-3.2282707850785286
30
0
10
29.004277985568425
20
-4.6169970801739169
30
0
10
30.18357852544505
20
-6.1333699911238426
30
0
10
30.908586443050524
20
-7.7681539348764872
30
0
10
30.972390962033689
20
-7.9120235404899475
30
0
10
31.036195481016854
20
-8.0558931461034078
30
0
10
31.10000000000003
20
-8.1997627517169036
30
0
0
LINE
5
105
100
AcDbEntity
8
0
100
AcDbLine
10
31.10000000000003
20
-8.1997627517169391
30
0
11
31.099999999999994
21
18.131205293889323
31
0
0
SPLINE
5
106
100
AcDbEntity
8
0
100
AcDbSpline
70
0
71
3
72
23
73
19
74
0
42
0.000000001
43
0.0000000001
44
0.0000000001
40
0.0020832606945042414
40
0.0020832606945042414
40
0.0020832606945042414
40
0.0020832606945042414
40
0.20564338588855061
40
0.20564338588855061
40
0.20564338588855061
40
0.38623825656063626
40
0.38623825656063626
40
0.38623825656063626
40
0.62465562617400572
40
0.62465562617400572
40
0.62465562617400572
40
0.79757783682752681
40
0.79757783682752681
40
0.79757783682752681
40
1
40
1
40
1
40
1.0104923654460813
40
1.0104923654460813
40
1.0104923654460813
40
1.0104923654460813
10
-25.900000000000016
20
21.73037234169179
30
0
10
-25.185771297486568
20
20.857825715843283
30
0
10
-23.043954328274232
20
19.848211074227038
30
0
10
-19.536333759162289
20
18.803253672275311
30
0
10
-16.424436070743855
20
17.87618631719571
30
0
10
-12.211791642625647
20
16.904389813008756
30
0
10
-7.4401763861813475
20
16.031475199594318
30
0
10
-1.1407950470837935
20
14.879072557964292
30
0
10
6.0597446202464145
20
13.915863579119829
30
0
10
12.27696549806681
20
13.61685496862993
30
0
10
16.786266058077857
20
13.399986415746383
30
0
10
20.753729762963793
20
13.540193858210365
30
0
10
23.812083772565362
20
14.115882325551574
30
0
10
27.392182777956776
20
14.789781325756621
30
0
10
29.754422292806218
20
16.046452206733832
30
0
10
30.915980906527643
20
17.846097736621473
30
0
10
30.977320604351757
20
17.941133589044078
30
0
10
31.03866030217587
20
18.036169441466683
30
0
10
31.09999999999998
20
18.131205293889323
30
0
0
LINE
5
107
100
AcDbEntity
8
0
100
AcDbLine
10
-25.900000000000016
20
21.73037234169179
30
0
11
-25.900000000000006
21
23.155156681645117
31
0
0
ARC
5
108
100
AcDbEntity
8
0
100
AcDbCircle
10
-27.500000000000007
20
23.155156681645082
30
0
40
1.6000000000000014
210
0
220
-0
230
1
100
AcDbArc
50
0
51
89.999999999999744
0
LINE
5
109
100
AcDbEntity
8
0
100
AcDbLine
10
-27.5
20
24.755156681645083
30
0
11
-31.099999999999994
21
24.755156681645083
31
0
0
LINE
5
110
100
AcDbEntity
8
0
100
AcDbLine
10
-31.099999999999994
20
24.755156681645083
30
0
11
-31.099999999999994
21
19.978118336608937
31
0
0
LINE
5
111
100
AcDbEntity
8
0
100
AcDbLine
10
-31.099999999999994
20
19.978118336608937
30
0
11
-29.099999999999984
21
19.978118336608937
31
0
0
LINE
5
112
100
AcDbEntity
8
0
100
AcDbLine
10
-29.099999999999984
20
19.978118336608937
30
0
11
-29.099999999999984
21
10.178118336608897
31
0
0
LINE
5
113
100
AcDbEntity
8
0
100
AcDbLine
10
-29.099999999999984
20
10.178118336608897
30
0
11
-31.099999999999994
21
10.178118336608897
31
0
0
LINE
5
114
100
AcDbEntity
8
0
100
AcDbLine
10
-31.099999999999994
20
10.178118336608897
30
0
11
-31.099999999999994
21
-11.334888995850925
31
0
0
LINE
5
115
100
AcDbEntity
8
0
100
AcDbLine
10
-31.099999999999994
20
-11.334888995850925
30
0
11
-29.099999999999984
21
-11.334888995850925
31
0
0
LINE
5
116
100
AcDbEntity
8
0
100
AcDbLine
10
-29.099999999999984
20
-11.334888995850925
30
0
11
-29.099999999999984
21
-21.134888995850893
31
0
0
LINE
5
117
100
AcDbEntity
8
0
100
AcDbLine
10
-29.099999999999984
20
-21.134888995850893
30
0
11
-31.099999999999994
21
-21.134888995850893
31
0
0
ENDSEC
0
SECTION
2
OBJECTS
0
DICTIONARY
5
C
100
AcDbDictionary
3
ACAD_GROUP
350
D
3
ACAD_MLINESTYLE
350
17
0
DICTIONARY
5
D
100
AcDbDictionary
0
DICTIONARY
5
1A
330
C
100
AcDbDictionary
0
DICTIONARY
5
17
100
AcDbDictionary
0
ENDSEC
0
EOF
