0
SECTION
2
HEADER
9
$INSUNITS
70
4
9
$ACADVER
1
AC1014
9
$HANDSEED
5
FFFF
0
ENDSEC
0
SECTION
2
TABLES
0
TABLE
2
VPORT
5
8
100
AcDbSymbolTable
0
ENDTAB
0
TABLE
2
LTYPE
5
5
100
AcDbSymbolTable
0
LTYPE
5
14
100
AcDbSymbolTableRecord
100
AcDbLinetypeTableRecord
2
BYBLOCK
70
0
0
LTYPE
5
15
100
AcDbSymbolTableRecord
100
AcDbLinetypeTableRecord
2
BYLAYER
70
0
0
ENDTAB
0
TABLE
2
LAYER
5
2
100
AcDbSymbolTable
70
2
0
LAYER
5
50
100
AcDbSymbolTableRecord
100
AcDbLayerTableRecord
2
0
70
0
6
CONTINUOUS
0
ENDTAB
0
TABLE
2
STYLE
5
3
100
AcDbSymbolTable
70
1
0
STYLE
5
11
100
AcDbSymbolTableRecord
100
AcDbTextStyleTableRecord
2
STANDARD
70
0
0
ENDTAB
0
TABLE
2
VIEW
5
6
100
AcDbSymbolTable
70
0
0
ENDTAB
0
TABLE
2
UCS
5
7
100
AcDbSymbolTable
70
0
0
ENDTAB
0
TABLE
2
APPID
5
9
100
AcDbSymbolTable
70
2
0
APPID
5
12
100
AcDbSymbolTableRecord
100
AcDbRegAppTableRecord
2
ACAD
70
0
0
ENDTAB
0
TABLE
2
DIMSTYLE
5
A
100
AcDbSymbolTable
70
1
0
ENDTAB
0
TABLE
2
BLOCK_RECORD
5
1
100
AcDbSymbolTable
70
1
0
BLOCK_RECORD
5
1F
100
AcDbSymbolTableRecord
100
AcDbBlockTableRecord
2
*MODEL_SPACE
0
BLOCK_RECORD
5
1B
100
AcDbSymbolTableRecord
100
AcDbBlockTableRecord
2
*PAPER_SPACE
0
ENDTAB
0
ENDSEC
0
SECTION
2
BLOCKS
0
BLOCK
5
20
100
AcDbEntity
100
AcDbBlockBegin
2
*MODEL_SPACE
0
ENDBLK
5
21
100
AcDbEntity
100
AcDbBlockEnd
0
BLOCK
5
1C
100
AcDbEntity
100
AcDbBlockBegin
2
*PAPER_SPACE
0
ENDBLK
5
1D
100
AcDbEntity
100
AcDbBlockEnd
0
ENDSEC
0
SECTION
2
ENTITIES
0
SPLINE
5
100
100
AcDbEntity
8
0
100
AcDbSpline
70
0
71
3
72
20
73
16
74
0
42
0.000000001
43
0.0000000001
44
0.0000000001
40
0.14278735625928135
40
0.14278735625928135
40
0.14278735625928135
40
0.14278735625928135
40
0.35708002566893715
40
0.35708002566893715
40
0.35708002566893715
40
0.53963908698227303
40
0.53963908698227303
40
0.53963908698227303
40
0.76285839829334146
40
0.76285839829334146
40
0.76285839829334146
40
1
40
1
40
1
40
1.0014089568259377
40
1.0014089568259377
40
1.0014089568259377
40
1.0014089568259377
10
-7.8713574819580856
20
20.688441449259606
30
-1.7763568394002505e-14
10
-6.9377078395674374
20
16.734291290195085
30
0
10
-5.5650445820847594
20
13.715322317457481
30
0
10
-4.5473095929050444
20
10.659130174965252
30
-1.7763568394002505e-14
10
-3.6802862607386189
20
8.0555153604053142
30
-1.7763568394002505e-14
10
-3.101223561011075
20
5.3889399512443958
30
0
10
-3.0200525982326099
20
2.2665210086203214
30
0
10
-2.9208029292239601
20
-1.5513349826575329
30
0
10
-3.5467790553610001
20
-6.0371604036862525
30
1.7763568394002505e-14
10
-4.6136980112225245
20
-11.234930078571219
30
1.7763568394002505e-14
10
-5.747161189646306
20
-16.756887022013316
30
1.7763568394002505e-14
10
-7.3192114823640253
20
-23.042723608107195
30
-1.7763568394002505e-14
10
-9.0021673124886092
20
-29.976412709356101
30
-1.7763568394002505e-14
10
-9.0121664124522027
20
-30.017608472904055
30
0
10
-9.0221655124157252
20
-30.058804236452001
30
0
10
-9.0321646123792476
20
-30.099999999999927
30
1.7763568394002505e-14
0
LINE
5
101
100
AcDbEntity
8
0
100
AcDbLine
10
-9.0321646123792121
20
-30.099999999999927
30
0
11
-6.2629334829012961
21
-30.099999999999998
31
0
0
LINE
5
102
100
AcDbEntity
8
0
100
AcDbLine
10
-6.2629334829012961
20
-30.099999999999998
30
0
11
-6.2629334829013317
21
-32.100000000000001
31
0
0
LINE
5
103
100
AcDbEntity
8
0
100
AcDbLine
10
-6.2629334829013317
20
-32.100000000000001
30
1.7763568394002505e-14
11
0.93706651709862254
21
-32.100000000000001
31
1.7763568394002505e-14
0
LINE
5
104
100
AcDbEntity
8
0
100
AcDbLine
10
0.93706651709865696
20
-32.100000000000001
30
0
11
0.93706651709862143
21
-30.099999999999998
31
5.9164567891575885e-30
0
LINE
5
105
100
AcDbEntity
8
0
100
AcDbLine
10
0.9370665170985859
20
-30.099999999999998
30
-1.7763568394002505e-14
11
5.398793611764674
21
-30.099999999999994
31
-1.7486012637846216e-14
0
SPLINE
5
106
100
AcDbEntity
8
0
100
AcDbSpline
70
0
71
3
72
20
73
16
74
0
42
0.000000001
43
0.0000000001
44
0.0000000001
40
0.16897082260539417
40
0.16897082260539417
40
0.16897082260539417
40
0.16897082260539417
40
0.16902738314562915
40
0.16902738314562915
40
0.16902738314562915
40
0.40241275903392593
40
0.40241275903392593
40
0.40241275903392593
40
0.6321436401692212
40
0.6321436401692212
40
0.6321436401692212
40
1
40
1
40
1
40
1.000884549115036
40
1.000884549115036
40
1.000884549115036
40
1.000884549115036
10
7.8126802038623211
20
21.374173536248495
30
0
10
7.8127981110700162
20
21.373282713362531
30
-1.7763568394002505e-14
10
7.8129160182777468
20
21.372391890476983
30
-1.7763568394002505e-14
10
7.8130339254854064
20
21.37150106759141
30
0
10
8.2988366217825416
20
17.701121891956213
30
1.7763568394002505e-14
10
9.0543628559593969
20
14.310432106648516
30
0
10
9.535442122384481
20
10.493707434794812
30
-1.7763568394002505e-14
10
10.008988347597239
20
6.7367474342871692
30
0
10
10.195586511127779
20
2.5428730091716112
30
1.7763568394002505e-14
10
9.9256133549495473
20
-2.2923040002147133
30
0
10
9.4933190896205133
20
-10.034626691097639
30
0
10
7.9430662522736384
20
-19.349458158063413
30
-1.7763568394002505e-14
10
5.417009619022366
20
-30.023030281779093
30
0
10
5.4109376166031353
20
-30.048686854519392
30
1.7763568394002505e-14
10
5.4048656141839047
20
-30.074343427259691
30
0
10
5.398793611764674
20
-30.099999999999962
30
0
0
LINE
5
107
100
AcDbEntity
8
0
100
AcDbLine
10
7.8126802038623211
20
21.374173536248495
30
0
11
6.1922773284459609
21
30.009301446757846
31
0
0
LINE
5
108
100
AcDbEntity
8
0
100
AcDbLine
10
6.1922773284459964
20
30.009301446757846
30
0
11
6.192277328446032
21
32.099999999999994
31
3.944304526105059e-30
0
LINE
5
109
100
AcDbEntity
8
0
100
AcDbLine
10
6.1922773284459964
20
32.099999999999994
30
1.7763568394002505e-14
11
3.3479385118511473
21
32.099999999999994
31
1.7763568394002505e-14
0
LINE
5
110
100
AcDbEntity
8
0
100
AcDbLine
10
3.3479385118511118
20
32.099999999999994
30
0
11
3.3479385118511473
21
30.09999999999998
31
-5.9164567891575885e-30
0
LINE
5
111
100
AcDbEntity
8
0
100
AcDbLine
10
3.3479385118511829
20
30.09999999999998
30
-1.7763568394002505e-14
11
-6.4520614881487512
21
30.09999999999998
31
-1.7208456881689926e-14
0
LINE
5
112
100
AcDbEntity
8
0
100
AcDbLine
10
-6.4520614881487504
20
30.09999999999998
30
-1.7763568394002505e-14
11
-6.4520614881487859
21
32.099999999999994
31
-1.7763568394002505e-14
0
LINE
5
113
100
AcDbEntity
8
0
100
AcDbLine
10
-6.4520614881487859
20
32.099999999999994
30
0
11
-10.0684683235718
21
32.099999999999994
31
0
0
LINE
5
114
100
AcDbEntity
8
0
100
AcDbLine
10
-10.0684683235718
20
32.099999999999994
30
0
11
-10.068468323571871
21
29.997167923120465
31
0
0
SPLINE
5
115
100
AcDbEntity
8
0
100
AcDbSpline
70
0
71
3
72
17
73
13
74
0
42
0.000000001
43
0.0000000001
44
0.0000000001
40
-0.00019814172037677287
40
-0.00019814172037677287
40
-0.00019814172037677287
40
-0.00019814172037677287
40
0
40
0
40
0
40
0.41248484427189724
40
0.41248484427189724
40
0.41248484427189724
40
0.8531351698548385
40
0.8531351698548385
40
0.8531351698548385
40
0.9999357676792523
40
0.9999357676792523
40
0.9999357676792523
40
0.9999357676792523
10
-10.068468323571764
20
29.997167923119122
30
1.7763568394002505e-14
10
-10.068414895361713
20
29.996225410620383
30
0
10
-10.068361467151519
20
29.995282898120124
30
3.5527136788005009e-14
10
-10.068308038941289
20
29.994340385619616
30
-1.7763568394002505e-14
10
-9.956800321813617
20
28.027263126957813
30
1.7763568394002505e-14
10
-9.7266274259990837
20
26.748125873473121
30
1.7763568394002505e-14
10
-9.4280914194611398
20
25.702377572620414
30
-1.7763568394002505e-14
10
-9.1091706389622118
20
24.58522300161561
30
0
10
-8.7228800067462942
20
23.678071095553257
30
0
10
-8.303444237985218
20
22.267867662692833
30
0
10
-8.1637111706792709
20
21.798064975666378
30
0
10
-8.019665460192833
20
21.274731364785513
30
1.7763568394002505e-14
10
-7.8713574819582277
20
20.68844144925956
30
1.7763568394002505e-14
0
ENDSEC
0
SECTION
2
OBJECTS
0
DICTIONARY
5
C
100
AcDbDictionary
3
ACAD_GROUP
350
D
3
ACAD_MLINESTYLE
350
17
0
DICTIONARY
5
D
100
AcDbDictionary
0
DICTIONARY
5
1A
330
C
100
AcDbDictionary
0
DICTIONARY
5
17
100
AcDbDictionary
0
ENDSEC
0
EOF
