0
SECTION
2
HEADER
9
$INSUNITS
70
4
9
$ACADVER
1
AC1014
9
$HANDSEED
5
FFFF
0
ENDSEC
0
SECTION
2
TABLES
0
TABLE
2
VPORT
5
8
100
AcDbSymbolTable
0
ENDTAB
0
TABLE
2
LTYPE
5
5
100
AcDbSymbolTable
0
LTYPE
5
14
100
AcDbSymbolTableRecord
100
AcDbLinetypeTableRecord
2
BYBLOCK
70
0
0
LTYPE
5
15
100
AcDbSymbolTableRecord
100
AcDbLinetypeTableRecord
2
BYLAYER
70
0
0
ENDTAB
0
TABLE
2
LAYER
5
2
100
AcDbSymbolTable
70
2
0
LAYER
5
50
100
AcDbSymbolTableRecord
100
AcDbLayerTableRecord
2
0
70
0
6
CONTINUOUS
0
ENDTAB
0
TABLE
2
STYLE
5
3
100
AcDbSymbolTable
70
1
0
STYLE
5
11
100
AcDbSymbolTableRecord
100
AcDbTextStyleTableRecord
2
STANDARD
70
0
0
ENDTAB
0
TABLE
2
VIEW
5
6
100
AcDbSymbolTable
70
0
0
ENDTAB
0
TABLE
2
UCS
5
7
100
AcDbSymbolTable
70
0
0
ENDTAB
0
TABLE
2
APPID
5
9
100
AcDbSymbolTable
70
2
0
APPID
5
12
100
AcDbSymbolTableRecord
100
AcDbRegAppTableRecord
2
ACAD
70
0
0
ENDTAB
0
TABLE
2
DIMSTYLE
5
A
100
AcDbSymbolTable
70
1
0
ENDTAB
0
TABLE
2
BLOCK_RECORD
5
1
100
AcDbSymbolTable
70
1
0
BLOCK_RECORD
5
1F
100
AcDbSymbolTableRecord
100
AcDbBlockTableRecord
2
*MODEL_SPACE
0
BLOCK_RECORD
5
1B
100
AcDbSymbolTableRecord
100
AcDbBlockTableRecord
2
*PAPER_SPACE
0
ENDTAB
0
ENDSEC
0
SECTION
2
BLOCKS
0
BLOCK
5
20
100
AcDbEntity
100
AcDbBlockBegin
2
*MODEL_SPACE
0
ENDBLK
5
21
100
AcDbEntity
100
AcDbBlockEnd
0
BLOCK
5
1C
100
AcDbEntity
100
AcDbBlockBegin
2
*PAPER_SPACE
0
ENDBLK
5
1D
100
AcDbEntity
100
AcDbBlockEnd
0
ENDSEC
0
SECTION
2
ENTITIES
0
LINE
5
100
100
AcDbEntity
8
0
100
AcDbLine
10
-26.951521321257303
20
22.769910594361775
30
0
11
-30.099999999999998
21
22.769910594361988
31
0
0
LINE
5
101
100
AcDbEntity
8
0
100
AcDbLine
10
-30.099999999999998
20
22.769910594361988
30
0
11
-30.099999999999998
21
20.152857735062852
31
0
0
LINE
5
102
100
AcDbEntity
8
0
100
AcDbLine
10
-30.099999999999998
20
20.152857735062852
30
0
11
-32.099999999999994
21
20.152857735062852
31
0
0
LINE
5
103
100
AcDbEntity
8
0
100
AcDbLine
10
-32.099999999999994
20
20.152857735062852
30
0
11
-32.099999999999994
21
11.952857735062814
31
0
0
LINE
5
104
100
AcDbEntity
8
0
100
AcDbLine
10
-32.099999999999994
20
11.952857735062814
30
0
11
-30.099999999999998
21
11.952857735062814
31
0
0
LINE
5
105
100
AcDbEntity
8
0
100
AcDbLine
10
-30.099999999999998
20
11.952857735062814
30
0
11
-30.099999999999998
21
-11.160149597396973
31
0
0
LINE
5
106
100
AcDbEntity
8
0
100
AcDbLine
10
-30.099999999999998
20
-11.160149597396973
30
0
11
-32.099999999999994
21
-11.160149597396973
31
0
0
LINE
5
107
100
AcDbEntity
8
0
100
AcDbLine
10
-32.099999999999994
20
-11.160149597396973
30
0
11
-32.099999999999994
21
-19.360149597397012
31
0
0
LINE
5
108
100
AcDbEntity
8
0
100
AcDbLine
10
-32.099999999999994
20
-19.360149597397012
30
0
11
-30.099999999999998
21
-19.360149597397012
31
0
0
LINE
5
109
100
AcDbEntity
8
0
100
AcDbLine
10
-30.099999999999998
20
-19.360149597397012
30
0
11
-30.099999999999998
21
-22.769910594361953
31
0
0
LINE
5
110
100
AcDbEntity
8
0
100
AcDbLine
10
-30.099999999999998
20
-22.769910594361953
30
0
11
-28.499999999999996
21
-22.769910594361953
31
0
0
ARC
5
111
100
AcDbEntity
8
0
100
AcDbCircle
10
-28.500000000000007
20
-21.169910594361916
30
0
40
1.6000000000000369
210
-0
220
0
230
1
100
AcDbArc
50
270.0000000000004
51
360
0
LINE
5
112
100
AcDbEntity
8
0
100
AcDbLine
10
-26.899999999999984
20
-21.169910594361951
30
0
11
-26.900000000000006
21
-10.337470239340547
31
0
0
SPLINE
5
113
100
AcDbEntity
8
0
100
AcDbSpline
70
0
71
3
72
26
73
22
74
0
42
0.000000001
43
0.0000000001
44
0.0000000001
40
0
40
0
40
0
40
0
40
0.14406575617450501
40
0.14406575617450501
40
0.14406575617450501
40
0.31962978428967015
40
0.31962978428967015
40
0.31962978428967015
40
0.49197769718559253
40
0.49197769718559253
40
0.49197769718559253
40
0.68622052888937479
40
0.68622052888937479
40
0.68622052888937479
40
0.87239020859575656
40
0.87239020859575656
40
0.87239020859575656
40
1
40
1
40
1
40
1.0111225675016007
40
1.0111225675016007
40
1.0111225675016007
40
1.0111225675016007
10
-26.900000000000006
20
-10.337470239340547
30
0
10
-26.900000000000006
20
-8.4412799830074192
30
0
10
-25.844730544948654
20
-6.3258803526454344
30
0
10
-23.874100724723533
20
-4.241198035387086
30
0
10
-21.472616025309506
20
-1.7007246107725038
30
0
10
-17.728401913228655
20
0.72847180484604479
30
0
10
-13.309207144962212
20
2.3806031456881271
30
0
10
-8.9709665431249963
20
4.0024694897281066
30
0
10
-3.998953651430881
20
4.8650886591875775
30
0
10
0.89258369609399146
20
4.9558985589376903
30
0
10
6.4055374058485981
20
5.0582448640237843
30
0
10
11.789051117799749
20
4.2182468057363209
30
0
10
16.25288713924645
20
2.8515431451896944
30
0
10
20.531196485775403
20
1.5416426432987151
30
0
10
23.957793109302017
20
-0.22752126090608726
30
0
10
26.358628290468289
20
-2.2535313868038287
30
0
10
28.004277985669944
20
-3.6422576818506514
30
0
10
29.183578525476239
20
-5.1586305927402876
30
0
10
29.908586443050527
20
-6.7934145364226239
30
0
10
29.972390962033693
20
-6.9372841420360842
30
0
10
30.036195481016858
20
-7.0811537476495445
30
0
10
30.100000000000023
20
-7.2250233532629693
30
0
0
LINE
5
114
100
AcDbEntity
8
0
100
AcDbLine
10
30.100000000000023
20
-7.2250233532630048
30
0
11
30.099999999999998
21
1.3991903987111698
31
0
0
LINE
5
115
100
AcDbEntity
8
0
100
AcDbLine
10
30.099999999999998
20
1.3991903987111698
30
0
11
32.100000000000001
21
1.3991903987111698
31
0
0
LINE
5
116
100
AcDbEntity
8
0
100
AcDbLine
10
32.100000000000001
20
1.3991903987111698
30
0
11
32.100000000000001
21
8.599190398711194
31
0
0
LINE
5
117
100
AcDbEntity
8
0
100
AcDbLine
10
32.100000000000001
20
8.599190398711194
30
0
11
30.099999999999998
21
8.599190398711194
31
0
0
LINE
5
118
100
AcDbEntity
8
0
100
AcDbLine
10
30.099999999999998
20
8.599190398711194
30
0
11
30.100000000000009
21
19.105944692343186
31
0
0
SPLINE
5
119
100
AcDbEntity
8
0
100
AcDbSpline
70
0
71
3
72
26
73
22
74
0
42
0.000000001
43
0.0000000001
44
0.0000000001
40
-0.002819853253833278
40
-0.002819853253833278
40
-0.002819853253833278
40
-0.002819853253833278
40
0
40
0
40
0
40
0.20564338588864847
40
0.20564338588864847
40
0.20564338588864847
40
0.38623825656116129
40
0.38623825656116129
40
0.38623825656116129
40
0.62465562617450954
40
0.62465562617450954
40
0.62465562617450954
40
0.7975778368281784
40
0.7975778368281784
40
0.7975778368281784
40
1
40
1
40
1
40
1.010492365446082
40
1.010492365446082
40
1.010492365446082
40
1.010492365446082
10
-26.951521321257303
20
22.769910594361775
30
0
10
-26.941511939849381
20
22.757224237529599
30
0
10
-26.931502558441423
20
22.744537880697315
30
0
10
-26.921493177033476
20
22.731851523865032
30
0
10
-26.228741581427499
20
21.853825841778409
30
0
10
-24.079851771623957
20
20.833644702116594
30
0
10
-20.53633375915723
20
19.777993070727717
30
0
10
-17.424436070730415
20
18.850925715645701
30
0
10
-13.211791642598305
20
17.879129211456295
30
0
10
-8.4401763861397328
20
17.006214598040579
30
0
10
-2.1407950470387949
20
15.85381195641169
30
0
10
5.0597446202904983
20
14.890602977569785
30
0
10
11.276965498106231
20
14.591594367082017
30
0
10
15.786266058118152
20
14.37472581419982
30
0
10
19.753729763002255
20
14.514933256667035
30
0
10
22.812083772599937
20
15.090621724011939
30
0
10
26.392182777972224
20
15.764520724218585
30
0
10
28.754422292809959
20
17.021191605193486
30
0
10
29.915980906527647
20
18.820837135075337
30
0
10
29.97732060435176
20
18.915872987497977
30
0
10
30.038660302175877
20
19.010908839920582
30
0
10
30.099999999999998
20
19.105944692343186
30
0
0
ENDSEC
0
SECTION
2
OBJECTS
0
DICTIONARY
5
C
100
AcDbDictionary
3
ACAD_GROUP
350
D
3
ACAD_MLINESTYLE
350
17
0
DICTIONARY
5
D
100
AcDbDictionary
0
DICTIONARY
5
1A
330
C
100
AcDbDictionary
0
DICTIONARY
5
17
100
AcDbDictionary
0
ENDSEC
0
EOF
