0
SECTION
2
HEADER
9
$INSUNITS
70
4
9
$ACADVER
1
AC1014
9
$HANDSEED
5
FFFF
0
ENDSEC
0
SECTION
2
TABLES
0
TABLE
2
VPORT
5
8
100
AcDbSymbolTable
0
ENDTAB
0
TABLE
2
LTYPE
5
5
100
AcDbSymbolTable
0
LTYPE
5
14
100
AcDbSymbolTableRecord
100
AcDbLinetypeTableRecord
2
BYBLOCK
70
0
0
LTYPE
5
15
100
AcDbSymbolTableRecord
100
AcDbLinetypeTableRecord
2
BYLAYER
70
0
0
ENDTAB
0
TABLE
2
LAYER
5
2
100
AcDbSymbolTable
70
2
0
LAYER
5
50
100
AcDbSymbolTableRecord
100
AcDbLayerTableRecord
2
0
70
0
6
CONTINUOUS
0
ENDTAB
0
TABLE
2
STYLE
5
3
100
AcDbSymbolTable
70
1
0
STYLE
5
11
100
AcDbSymbolTableRecord
100
AcDbTextStyleTableRecord
2
STANDARD
70
0
0
ENDTAB
0
TABLE
2
VIEW
5
6
100
AcDbSymbolTable
70
0
0
ENDTAB
0
TABLE
2
UCS
5
7
100
AcDbSymbolTable
70
0
0
ENDTAB
0
TABLE
2
APPID
5
9
100
AcDbSymbolTable
70
2
0
APPID
5
12
100
AcDbSymbolTableRecord
100
AcDbRegAppTableRecord
2
ACAD
70
0
0
ENDTAB
0
TABLE
2
DIMSTYLE
5
A
100
AcDbSymbolTable
70
1
0
ENDTAB
0
TABLE
2
BLOCK_RECORD
5
1
100
AcDbSymbolTable
70
1
0
BLOCK_RECORD
5
1F
100
AcDbSymbolTableRecord
100
AcDbBlockTableRecord
2
*MODEL_SPACE
0
BLOCK_RECORD
5
1B
100
AcDbSymbolTableRecord
100
AcDbBlockTableRecord
2
*PAPER_SPACE
0
ENDTAB
0
ENDSEC
0
SECTION
2
BLOCKS
0
BLOCK
5
20
100
AcDbEntity
100
AcDbBlockBegin
2
*MODEL_SPACE
0
ENDBLK
5
21
100
AcDbEntity
100
AcDbBlockEnd
0
BLOCK
5
1C
100
AcDbEntity
100
AcDbBlockBegin
2
*PAPER_SPACE
0
ENDBLK
5
1D
100
AcDbEntity
100
AcDbBlockEnd
0
ENDSEC
0
SECTION
2
ENTITIES
0
SPLINE
5
100
100
AcDbEntity
8
0
100
AcDbSpline
70
0
71
3
72
29
73
25
74
0
42
0.000000001
43
0.0000000001
44
0.0000000001
40
-0.000105818816196993
40
-0.000105818816196993
40
-0.000105818816196993
40
-0.000105818816196993
40
0
40
0
40
0
40
0.15384783247907385
40
0.15384783247907385
40
0.15384783247907385
40
0.36538587435930536
40
0.36538587435930536
40
0.36538587435930536
40
0.5217339833209349
40
0.5217339833209349
40
0.5217339833209349
40
0.72476079285680228
40
0.72476079285680228
40
0.72476079285680228
40
0.91639216892901953
40
0.91639216892901953
40
0.91639216892901953
40
1
40
1
40
1
40
1.0007840262554808
40
1.0007840262554808
40
1.0007840262554808
40
1.0007840262554808
10
-29.9946672719906
20
14.071809980612962
30
0
10
-29.992907579153982
20
14.071558470044785
30
0
10
-29.991147886316831
20
14.071306959476502
30
0
10
-29.989388193479751
20
14.071055448908218
30
0
10
-27.419877063945741
20
13.703798623878818
30
0
10
-25.090516219708149
20
12.731161599791534
30
0
10
-22.911226047778925
20
11.470541173530968
30
0
10
-19.914740700990265
20
9.7372104386852243
30
0
10
-17.187407493999292
20
7.5457704108246659
30
0
10
-14.202798814024806
20
6.279094524549329
30
0
10
-11.996869710413849
20
5.3428923278845275
30
0
10
-9.6426426720764802
20
4.9267678123881709
30
0
10
-6.9571544561792908
20
5.1182716353759616
30
0
10
-3.4698970269667395
20
5.366950116064686
30
0
10
0.57473163302989683
20
6.6244762379369959
30
0
10
5.4254319392300498
20
8.1889851814505121
30
0
10
10.003873459914265
20
9.665681793135299
30
0
10
15.300589032543574
20
11.361300004883432
30
0
10
21.451450005949027
20
12.64047970887848
30
0
10
24.135040531394964
20
13.1985795503196
30
0
10
26.980181936298905
20
13.681347985217229
30
0
10
29.990367399902553
20
14.071188828515879
30
0
10
30.01857826660169
20
14.074842340300151
30
0
10
30.04678913330082
20
14.078495852084458
30
0
10
30.074999999999939
20
14.08214936386873
30
0
0
LINE
5
101
100
AcDbEntity
8
0
100
AcDbLine
10
-29.9946672719906
20
14.071809980612962
30
0
11
-32.074999999999996
21
14.071809980612997
31
0
0
LINE
5
102
100
AcDbEntity
8
0
100
AcDbLine
10
-32.074999999999996
20
14.071809980612997
30
0
11
-32.074999999999996
21
5.3866237971975295
31
0
0
LINE
5
103
100
AcDbEntity
8
0
100
AcDbLine
10
-32.074999999999996
20
5.3866237971975295
30
0
11
-30.075000000000003
21
5.3866237971975295
31
0
0
LINE
5
104
100
AcDbEntity
8
0
100
AcDbLine
10
-30.075000000000003
20
5.3866237971975295
30
0
11
-30.075000000000003
21
-4.4633762028024648
31
0
0
LINE
5
105
100
AcDbEntity
8
0
100
AcDbLine
10
-30.075000000000003
20
-4.4633762028024648
30
0
11
-32.074999999999996
21
-4.4633762028024648
31
0
0
LINE
5
106
100
AcDbEntity
8
0
100
AcDbLine
10
-32.074999999999996
20
-4.4633762028024648
30
0
11
-32.074999999999996
21
-14.071809980613033
31
0
0
LINE
5
107
100
AcDbEntity
8
0
100
AcDbLine
10
-32.074999999999996
20
-14.071809980613033
30
0
11
-29.982791570271587
21
-14.071809980613992
31
0
0
SPLINE
5
108
100
AcDbEntity
8
0
100
AcDbSpline
70
0
71
3
72
20
73
16
74
0
42
0.000000001
43
0.0000000001
44
0.0000000001
40
-0.0002100235231977702
40
-0.0002100235231977702
40
-0.0002100235231977702
40
-0.0002100235231977702
40
0
40
0
40
0
40
0.36351500600408493
40
0.36351500600408493
40
0.36351500600408493
40
0.6622638026719293
40
0.6622638026719293
40
0.6622638026719293
40
1
40
1
40
1
40
1.0025190893886393
40
1.0025190893886393
40
1.0025190893886393
40
1.0025190893886393
10
-29.982791570271587
20
-14.071809980613992
30
0
10
-29.97762918385834
20
-14.069309359523707
30
0
10
-29.972466797444987
20
-14.066808738433352
30
0
10
-29.967304411031598
20
-14.064308117342961
30
0
10
-21.035554192313661
20
-9.7378355942963069
30
0
10
-12.579854887623165
20
-6.4509308416894839
30
0
10
-4.7523703296514963
20
-4.5302391354705307
30
0
10
1.6805184204868961
20
-2.9517504169157505
30
0
10
7.6606236384353998
20
-2.3566329743948344
30
0
10
13.134572301779848
20
-2.8634806384504685
30
0
10
19.322883774654205
20
-3.4364730809040012
30
0
10
24.897465835397824
20
-5.3483065286448195
30
0
10
29.961482148673095
20
-8.3792990378636034
30
0
10
29.999321432448749
20
-8.4019471848250404
30
0
10
30.037160716224399
20
-8.4245953317864775
30
0
10
30.075000000000056
20
-8.447243478747879
30
0
0
LINE
5
109
100
AcDbEntity
8
0
100
AcDbLine
10
30.075000000000056
20
-8.4472434787479145
30
0
11
30.075000000000003
21
0.33691898600064718
31
0
0
LINE
5
110
100
AcDbEntity
8
0
100
AcDbLine
10
30.075000000000003
20
0.33691898600064718
30
0
11
32.075000000000003
21
0.33691898600064718
31
0
0
LINE
5
111
100
AcDbEntity
8
0
100
AcDbLine
10
32.075000000000003
20
0.33691898600064718
30
0
11
32.075000000000003
21
7.4869189860006458
31
0
0
LINE
5
112
100
AcDbEntity
8
0
100
AcDbLine
10
32.075000000000003
20
7.4869189860006458
30
0
11
30.075000000000003
21
7.4869189860006458
31
0
0
LINE
5
113
100
AcDbEntity
8
0
100
AcDbLine
10
30.075000000000003
20
7.4869189860006458
30
0
11
30.07500000000001
21
14.082149363868766
31
0
0
ENDSEC
0
SECTION
2
OBJECTS
0
DICTIONARY
5
C
100
AcDbDictionary
3
ACAD_GROUP
350
D
3
ACAD_MLINESTYLE
350
17
0
DICTIONARY
5
D
100
AcDbDictionary
0
DICTIONARY
5
1A
330
C
100
AcDbDictionary
0
DICTIONARY
5
17
100
AcDbDictionary
0
ENDSEC
0
EOF
