0
SECTION
2
HEADER
9
$INSUNITS
70
4
9
$ACADVER
1
AC1014
9
$HANDSEED
5
FFFF
0
ENDSEC
0
SECTION
2
TABLES
0
TABLE
2
VPORT
5
8
100
AcDbSymbolTable
0
ENDTAB
0
TABLE
2
LTYPE
5
5
100
AcDbSymbolTable
0
LTYPE
5
14
100
AcDbSymbolTableRecord
100
AcDbLinetypeTableRecord
2
BYBLOCK
70
0
0
LTYPE
5
15
100
AcDbSymbolTableRecord
100
AcDbLinetypeTableRecord
2
BYLAYER
70
0
0
ENDTAB
0
TABLE
2
LAYER
5
2
100
AcDbSymbolTable
70
2
0
LAYER
5
50
100
AcDbSymbolTableRecord
100
AcDbLayerTableRecord
2
0
70
0
6
CONTINUOUS
0
ENDTAB
0
TABLE
2
STYLE
5
3
100
AcDbSymbolTable
70
1
0
STYLE
5
11
100
AcDbSymbolTableRecord
100
AcDbTextStyleTableRecord
2
STANDARD
70
0
0
ENDTAB
0
TABLE
2
VIEW
5
6
100
AcDbSymbolTable
70
0
0
ENDTAB
0
TABLE
2
UCS
5
7
100
AcDbSymbolTable
70
0
0
ENDTAB
0
TABLE
2
APPID
5
9
100
AcDbSymbolTable
70
2
0
APPID
5
12
100
AcDbSymbolTableRecord
100
AcDbRegAppTableRecord
2
ACAD
70
0
0
ENDTAB
0
TABLE
2
DIMSTYLE
5
A
100
AcDbSymbolTable
70
1
0
ENDTAB
0
TABLE
2
BLOCK_RECORD
5
1
100
AcDbSymbolTable
70
1
0
BLOCK_RECORD
5
1F
100
AcDbSymbolTableRecord
100
AcDbBlockTableRecord
2
*MODEL_SPACE
0
BLOCK_RECORD
5
1B
100
AcDbSymbolTableRecord
100
AcDbBlockTableRecord
2
*PAPER_SPACE
0
ENDTAB
0
ENDSEC
0
SECTION
2
BLOCKS
0
BLOCK
5
20
100
AcDbEntity
100
AcDbBlockBegin
2
*MODEL_SPACE
0
ENDBLK
5
21
100
AcDbEntity
100
AcDbBlockEnd
0
BLOCK
5
1C
100
AcDbEntity
100
AcDbBlockBegin
2
*PAPER_SPACE
0
ENDBLK
5
1D
100
AcDbEntity
100
AcDbBlockEnd
0
ENDSEC
0
SECTION
2
ENTITIES
0
LINE
5
100
100
AcDbEntity
8
0
100
AcDbLine
10
-5.1828818182224268
20
8.4152097236651535
30
0
11
-3.2948554697573229
21
0.79563909878743289
31
0
0
LINE
5
101
100
AcDbEntity
8
0
100
AcDbLine
10
-3.2948554697573229
20
0.79563909878743289
30
0
11
-5.0905504577858096
21
0.35069021411731072
31
0
0
LINE
5
102
100
AcDbEntity
8
0
100
AcDbLine
10
-5.0905504577858096
20
0.35069021411731072
30
0
11
-6.9785768062509135
21
7.9702608389950313
31
0
0
LINE
5
103
100
AcDbEntity
8
0
100
AcDbLine
10
-6.9785768062509135
20
7.9702608389950313
30
0
11
-5.1828818182224268
21
8.4152097236651535
31
0
0
SPLINE
5
104
100
AcDbEntity
8
0
100
AcDbSpline
70
0
71
3
72
8
73
4
74
0
42
0.000000001
43
0.0000000001
44
0.0000000001
40
0.028174358025346992
40
0.028174358025346992
40
0.028174358025346992
40
0.028174358025346992
40
0.059976696843836157
40
0.059976696843836157
40
0.059976696843836157
40
0.059976696843836157
10
2.9525144245546642
20
-16.115089293238167
30
0
10
4.8924136667744733
20
-16.153864308030048
30
0
10
6.7641706306321225
20
-16.236268429579024
30
0
10
8.5698852040357565
20
-16.360905864923883
30
0
0
LINE
5
105
100
AcDbEntity
8
0
100
AcDbLine
10
8.5698852040357565
20
-16.360905864923918
30
0
11
8.5698852040356144
21
-20.215927497138555
31
0
0
LINE
5
106
100
AcDbEntity
8
0
100
AcDbLine
10
8.5698852040356144
20
-20.215927497138555
30
0
11
6.5698852040357281
21
-20.215927497138555
31
0
0
LINE
5
107
100
AcDbEntity
8
0
100
AcDbLine
10
6.5698852040357281
20
-20.215927497138555
30
0
11
6.5698852040357281
21
-24.365927497138617
31
0
0
LINE
5
108
100
AcDbEntity
8
0
100
AcDbLine
10
6.5698852040357281
20
-24.365927497138617
30
0
11
14.719885204035847
21
-24.365927497138617
31
0
0
LINE
5
109
100
AcDbEntity
8
0
100
AcDbLine
10
14.719885204035847
20
-24.365927497138617
30
0
11
14.719885204035847
21
-20.215927497138555
31
0
0
LINE
5
110
100
AcDbEntity
8
0
100
AcDbLine
10
14.719885204035847
20
-20.215927497138555
30
0
11
12.719885204035819
21
-20.215927497138555
31
0
0
LINE
5
111
100
AcDbEntity
8
0
100
AcDbLine
10
12.719885204035819
20
-20.215927497138555
30
0
11
12.719885204035819
21
-16.733404251452821
31
0
0
SPLINE
5
112
100
AcDbEntity
8
0
100
AcDbSpline
70
0
71
3
72
11
73
7
74
0
42
0.000000001
43
0.0000000001
44
0.0000000001
40
0.085053490818325167
40
0.085053490818325167
40
0.085053490818325167
40
0.085053490818325167
40
0.15439844622645504
40
0.15439844622645504
40
0.15439844622645504
40
0.15523089328757636
40
0.15523089328757636
40
0.15523089328757636
40
0.15523089328757636
10
12.719885204036103
20
-16.733404251452821
30
0
10
16.434642514497426
20
-17.147373413403475
30
0
10
19.846306794133284
20
-17.754886927177491
30
0
10
23.003844676964889
20
-18.523419081772925
30
0
10
23.041787749851892
20
-18.532654274711202
30
0
10
23.079730822739037
20
-18.541889467649479
30
0
10
23.117673895625899
20
-18.551124660587757
30
0
0
SPLINE
5
113
100
AcDbEntity
8
0
100
AcDbSpline
70
0
71
3
72
23
73
19
74
0
42
0.000000001
43
0.0000000001
44
0.0000000001
40
0.068766554143119052
40
0.068766554143119052
40
0.068766554143119052
40
0.068766554143119052
40
0.070372579136820879
40
0.070372579136820879
40
0.070372579136820879
40
0.29244222459861102
40
0.29244222459861102
40
0.29244222459861102
40
0.64622111229930557
40
0.64622111229930557
40
0.64622111229930557
40
0.85942018241137341
40
0.85942018241137341
40
0.85942018241137341
40
1
40
1
40
1
40
1.0006924565647397
40
1.0006924565647397
40
1.0006924565647397
40
1.0006924565647397
10
23.117673895626041
20
-18.551124660587721
30
0
10
23.110178253692197
20
-18.512799982888897
30
0
10
23.102682611758496
20
-18.474475305190179
30
0
10
23.095186969824795
20
-18.436150627491461
30
0
10
22.057520360898479
20
-13.130635943417328
30
0
10
20.648455518289097
20
-9.6000573088919872
30
0
10
18.963334342463583
20
-7.1220228437258193
30
0
10
16.278769804231814
20
-3.1742690886034453
30
0
10
12.930050490710414
20
-1.84325799914836
30
0
10
9.3427271055207939
20
1.1062487800330878
30
0
10
7.1808852418514846
20
2.883720880467564
30
0
10
4.9225575145118228
20
5.272495229875851
30
0
10
2.6035609674153193
20
9.0300813857894902
30
0
10
1.0744543375969329
20
11.507769379898569
30
0
10
-0.48148050466764403
20
14.579027024251516
30
0
10
-2.0608942812998521
20
18.33070615858567
30
0
10
-2.0686795839458227
20
18.349199069008382
30
0
10
-2.0764648865919355
20
18.367691979431058
30
0
10
-2.0842501892380483
20
18.386184889853752
30
0
0
LINE
5
114
100
AcDbEntity
8
0
100
AcDbLine
10
-2.0842501892380483
20
18.386184889853752
30
0
11
-9.7703480384248564
21
16.985059679035235
31
0
0
LINE
5
115
100
AcDbEntity
8
0
100
AcDbLine
10
-9.7703480384248564
20
16.985059679035235
30
0
11
-10.290465019088089
21
19.838245087114572
31
0
0
ARC
5
116
100
AcDbEntity
8
0
100
AcDbCircle
10
-12.605277829434414
20
20.966193070426247
30
0
40
2.5750000000000632
210
-0
220
0
230
1
100
AcDbArc
50
-25.978767978422226
51
226.64117424984639
0
LINE
5
117
100
AcDbEntity
8
0
100
AcDbLine
10
-14.373183213823353
20
19.093992346185082
30
0
11
-13.853066233159979
21
16.240806938105568
31
0
0
LINE
5
118
100
AcDbEntity
8
0
100
AcDbLine
10
-13.853066233159979
20
16.240806938105568
30
0
11
-21.991936876995339
21
14.757144217382301
31
0
0
SPLINE
5
119
100
AcDbEntity
8
0
100
AcDbSpline
70
0
71
3
72
23
73
19
74
0
42
0.000000001
43
0.0000000001
44
0.0000000001
40
0.037779877007124596
40
0.037779877007124596
40
0.037779877007124596
40
0.037779877007124596
40
0.039176741154809069
40
0.039176741154809069
40
0.039176741154809069
40
0.28645723668606482
40
0.28645723668606482
40
0.28645723668606482
40
0.64322861834303247
40
0.64322861834303247
40
0.64322861834303247
40
0.88966135107264543
40
0.88966135107264543
40
0.88966135107264543
40
1
40
1
40
1
40
1.0009197649951997
40
1.0009197649951997
40
1.0009197649951997
40
1.0009197649951997
10
-15.62028688193962
20
-16.11508929324037
30
0
10
-15.62176187714897
20
-16.09166006738457
30
0
10
-15.623236872357893
20
-16.068230841528699
30
0
10
-15.624711867566958
20
-16.044801615672792
30
0
10
-15.885427325509909
20
-11.903526233328847
30
0
10
-16.627449568276802
20
-8.8834770092958593
30
0
10
-17.609306097467368
20
-6.525166136209446
30
0
10
-19.025909173078617
20
-3.122642104703921
30
0
10
-20.933006215262964
20
-1.0415009912765427
30
0
10
-22.077443231041656
20
1.8558780391631657
30
0
10
-22.867940327320611
20
3.8571849514738865
30
0
10
-23.269850214718986
20
6.2664823277121862
30
0
10
-22.923334963465862
20
9.623552051558022
30
0
10
-22.768185019574503
20
11.126658126717679
30
0
10
-22.465276418973872
20
12.816452095271096
30
0
10
-22.003469549607502
20
14.709860259672798
30
0
10
-21.9996253254034
20
14.725621578909305
30
0
10
-21.995781101199441
20
14.741382898145829
30
0
10
-21.991936876995339
20
14.757144217382496
30
0
0
LINE
5
120
100
AcDbEntity
8
0
100
AcDbLine
10
-15.62028688193962
20
-16.11508929324037
30
0
11
2.9525144245546642
21
-16.115089293238238
31
0
0
ENDSEC
0
SECTION
2
OBJECTS
0
DICTIONARY
5
C
100
AcDbDictionary
3
ACAD_GROUP
350
D
3
ACAD_MLINESTYLE
350
17
0
DICTIONARY
5
D
100
AcDbDictionary
0
DICTIONARY
5
1A
330
C
100
AcDbDictionary
0
DICTIONARY
5
17
100
AcDbDictionary
0
ENDSEC
0
EOF
