0
SECTION
2
HEADER
9
$INSUNITS
70
4
9
$ACADVER
1
AC1014
9
$HANDSEED
5
FFFF
0
ENDSEC
0
SECTION
2
TABLES
0
TABLE
2
VPORT
5
8
100
AcDbSymbolTable
0
ENDTAB
0
TABLE
2
LTYPE
5
5
100
AcDbSymbolTable
0
LTYPE
5
14
100
AcDbSymbolTableRecord
100
AcDbLinetypeTableRecord
2
BYBLOCK
70
0
0
LTYPE
5
15
100
AcDbSymbolTableRecord
100
AcDbLinetypeTableRecord
2
BYLAYER
70
0
0
ENDTAB
0
TABLE
2
LAYER
5
2
100
AcDbSymbolTable
70
2
0
LAYER
5
50
100
AcDbSymbolTableRecord
100
AcDbLayerTableRecord
2
0
70
0
6
CONTINUOUS
0
ENDTAB
0
TABLE
2
STYLE
5
3
100
AcDbSymbolTable
70
1
0
STYLE
5
11
100
AcDbSymbolTableRecord
100
AcDbTextStyleTableRecord
2
STANDARD
70
0
0
ENDTAB
0
TABLE
2
VIEW
5
6
100
AcDbSymbolTable
70
0
0
ENDTAB
0
TABLE
2
UCS
5
7
100
AcDbSymbolTable
70
0
0
ENDTAB
0
TABLE
2
APPID
5
9
100
AcDbSymbolTable
70
2
0
APPID
5
12
100
AcDbSymbolTableRecord
100
AcDbRegAppTableRecord
2
ACAD
70
0
0
ENDTAB
0
TABLE
2
DIMSTYLE
5
A
100
AcDbSymbolTable
70
1
0
ENDTAB
0
TABLE
2
BLOCK_RECORD
5
1
100
AcDbSymbolTable
70
1
0
BLOCK_RECORD
5
1F
100
AcDbSymbolTableRecord
100
AcDbBlockTableRecord
2
*MODEL_SPACE
0
BLOCK_RECORD
5
1B
100
AcDbSymbolTableRecord
100
AcDbBlockTableRecord
2
*PAPER_SPACE
0
ENDTAB
0
ENDSEC
0
SECTION
2
BLOCKS
0
BLOCK
5
20
100
AcDbEntity
100
AcDbBlockBegin
2
*MODEL_SPACE
0
ENDBLK
5
21
100
AcDbEntity
100
AcDbBlockEnd
0
BLOCK
5
1C
100
AcDbEntity
100
AcDbBlockBegin
2
*PAPER_SPACE
0
ENDBLK
5
1D
100
AcDbEntity
100
AcDbBlockEnd
0
ENDSEC
0
SECTION
2
ENTITIES
0
LINE
5
100
100
AcDbEntity
8
0
100
AcDbLine
10
42.809825428463348
20
-2.102000879168493
30
0
11
42.809825428463348
21
2.550753448089651
31
0
0
LINE
5
101
100
AcDbEntity
8
0
100
AcDbLine
10
42.809825428463348
20
2.550753448089651
30
0
11
44.659825428463336
21
2.550753448089651
31
0
0
LINE
5
102
100
AcDbEntity
8
0
100
AcDbLine
10
44.659825428463336
20
2.550753448089651
30
0
11
44.659825428463336
21
-2.102000879168493
31
0
0
LINE
5
103
100
AcDbEntity
8
0
100
AcDbLine
10
44.659825428463336
20
-2.102000879168493
30
0
11
42.809825428463348
21
-2.102000879168493
31
0
0
LINE
5
104
100
AcDbEntity
8
0
100
AcDbLine
10
-19.638325764598363
20
-11.46893425613122
30
0
11
-19.638325764598363
21
0.38106574386876702
31
0
0
LINE
5
105
100
AcDbEntity
8
0
100
AcDbLine
10
-19.638325764598363
20
0.38106574386876702
30
0
11
-17.788325764598376
21
0.38106574386876702
31
0
0
LINE
5
106
100
AcDbEntity
8
0
100
AcDbLine
10
-17.788325764598376
20
0.38106574386876702
30
0
11
-17.788325764598376
21
-11.46893425613122
31
0
0
LINE
5
107
100
AcDbEntity
8
0
100
AcDbLine
10
-17.788325764598376
20
-11.46893425613122
30
0
11
-19.638325764598363
21
-11.46893425613122
31
0
0
LINE
5
108
100
AcDbEntity
8
0
100
AcDbLine
10
80.208108600299425
20
3.4512455874419601
30
0
11
82.05810860029942
21
3.4512455874419601
31
0
0
LINE
5
109
100
AcDbEntity
8
0
100
AcDbLine
10
82.05810860029942
20
3.4512455874419601
30
0
11
82.05810860029942
21
-0.39875441255803779
31
0
0
LINE
5
110
100
AcDbEntity
8
0
100
AcDbLine
10
82.05810860029942
20
-0.39875441255803779
30
0
11
80.208108600299425
21
-0.39875441255803779
31
0
0
LINE
5
111
100
AcDbEntity
8
0
100
AcDbLine
10
80.208108600299425
20
-0.39875441255803779
30
0
11
80.208108600299425
21
3.4512455874419601
31
0
0
LINE
5
112
100
AcDbEntity
8
0
100
AcDbLine
10
-50.280277363596255
20
-17.575000000000003
30
0
11
-50.280277363596255
21
-12.424999999999997
31
0
0
LINE
5
113
100
AcDbEntity
8
0
100
AcDbLine
10
-50.280277363596255
20
-12.424999999999997
30
0
11
-52.780277363596255
21
-12.424999999999997
31
0
0
LINE
5
114
100
AcDbEntity
8
0
100
AcDbLine
10
-52.780277363596255
20
-12.424999999999997
30
0
11
-52.780277363596255
21
-7.5750000000000028
31
0
0
LINE
5
115
100
AcDbEntity
8
0
100
AcDbLine
10
-52.780277363596255
20
-7.5750000000000028
30
0
11
-34.044861742570149
21
-7.5750000000000028
31
0
0
ARC
5
116
100
AcDbEntity
8
0
100
AcDbCircle
10
-34.044861742570127
20
-16.853878185409066
30
0
40
9.2788781854090594
210
-0
220
0
230
1
100
AcDbArc
50
-4.4573213252479436
51
90.000000000000128
0
LINE
5
117
100
AcDbEntity
8
0
100
AcDbLine
10
-24.794047523909093
20
-17.575000000000021
30
0
11
-14.620250385289353
21
-17.575000000000021
31
0
0
ARC
5
118
100
AcDbEntity
8
0
100
AcDbCircle
10
-6.6088031860472896
20
-15.784164311312185
30
0
40
8.2091643113121826
210
0
220
0
230
1
100
AcDbArc
50
90.000000000000242
51
192.60044324052404
0
LINE
5
119
100
AcDbEntity
8
0
100
AcDbLine
10
-6.6088031860473251
20
-7.5750000000000028
30
0
11
26.870029704106457
21
-7.5750000000000028
31
0
0
LINE
5
120
100
AcDbEntity
8
0
100
AcDbLine
10
26.870029704106457
20
-7.5750000000000028
30
0
11
26.870029704106457
21
-12.424999999999997
31
0
0
LINE
5
121
100
AcDbEntity
8
0
100
AcDbLine
10
26.870029704106457
20
-12.424999999999997
30
0
11
24.370029704106457
21
-12.424999999999997
31
0
0
LINE
5
122
100
AcDbEntity
8
0
100
AcDbLine
10
24.370029704106457
20
-12.424999999999997
30
0
11
24.370029704106457
21
-17.575000000000003
31
0
0
LINE
5
123
100
AcDbEntity
8
0
100
AcDbLine
10
24.370029704106457
20
-17.575000000000003
30
0
11
34.520029704106463
21
-17.575000000000003
31
0
0
LINE
5
124
100
AcDbEntity
8
0
100
AcDbLine
10
34.520029704106463
20
-17.575000000000003
30
0
11
34.520029704106463
21
-12.424999999999997
31
0
0
LINE
5
125
100
AcDbEntity
8
0
100
AcDbLine
10
34.520029704106463
20
-12.424999999999997
30
0
11
32.020029704106463
21
-12.424999999999997
31
0
0
LINE
5
126
100
AcDbEntity
8
0
100
AcDbLine
10
32.020029704106463
20
-12.424999999999997
30
0
11
32.020029704106463
21
-7.5750000000000028
31
0
0
LINE
5
127
100
AcDbEntity
8
0
100
AcDbLine
10
32.020029704106463
20
-7.5750000000000028
30
0
11
100.07500000000005
21
-7.5749999999999851
31
0
0
LINE
5
128
100
AcDbEntity
8
0
100
AcDbLine
10
100.07500000000005
20
-7.5749999999999851
30
0
11
100.07500000000005
21
-2.0749999999999957
31
0
0
LINE
5
129
100
AcDbEntity
8
0
100
AcDbLine
10
100.07500000000005
20
-2.0749999999999957
30
0
11
104.925
21
-2.0749999999999957
31
0
0
LINE
5
130
100
AcDbEntity
8
0
100
AcDbLine
10
104.925
20
-2.0749999999999957
30
0
11
104.925
21
-3.5749999999999993
31
0
0
LINE
5
131
100
AcDbEntity
8
0
100
AcDbLine
10
104.925
20
-3.5749999999999993
30
0
11
110.075
21
-3.5749999999999993
31
0
0
LINE
5
132
100
AcDbEntity
8
0
100
AcDbLine
10
110.075
20
-3.5749999999999993
30
0
11
110.075
21
3.5749999999999993
31
0
0
LINE
5
133
100
AcDbEntity
8
0
100
AcDbLine
10
110.075
20
3.5749999999999993
30
0
11
104.925
21
3.5749999999999993
31
0
0
LINE
5
134
100
AcDbEntity
8
0
100
AcDbLine
10
104.925
20
3.5749999999999993
30
0
11
104.925
21
2.0749999999999957
31
0
0
LINE
5
135
100
AcDbEntity
8
0
100
AcDbLine
10
104.925
20
2.0749999999999957
30
0
11
100.07500000000005
21
2.0749999999999957
31
0
0
LINE
5
136
100
AcDbEntity
8
0
100
AcDbLine
10
100.07500000000005
20
2.0749999999999957
30
0
11
100.075
21
7.5750000000000206
31
0
0
LINE
5
137
100
AcDbEntity
8
0
100
AcDbLine
10
100.075
20
7.5750000000000206
30
0
11
88.37642460986487
21
7.5750000000000028
31
0
0
LINE
5
138
100
AcDbEntity
8
0
100
AcDbLine
10
88.37642460986487
20
7.5750000000000028
30
0
11
88.37642460986487
21
4.4249999999999901
31
0
0
LINE
5
139
100
AcDbEntity
8
0
100
AcDbLine
10
88.37642460986487
20
4.4249999999999901
30
0
11
90.376424609864898
21
4.4249999999999901
31
0
0
LINE
5
140
100
AcDbEntity
8
0
100
AcDbLine
10
90.376424609864898
20
4.4249999999999901
30
0
11
90.376424609864898
21
2.5750000000000028
31
0
0
LINE
5
141
100
AcDbEntity
8
0
100
AcDbLine
10
90.376424609864898
20
2.5750000000000028
30
0
11
84.52642460986489
21
2.5750000000000028
31
0
0
LINE
5
142
100
AcDbEntity
8
0
100
AcDbLine
10
84.52642460986489
20
2.5750000000000028
30
0
11
84.52642460986489
21
7.5750000000000028
31
0
0
LINE
5
143
100
AcDbEntity
8
0
100
AcDbLine
10
84.52642460986489
20
7.5750000000000028
30
0
11
32.020029704106463
21
7.5750000000000028
31
0
0
LINE
5
144
100
AcDbEntity
8
0
100
AcDbLine
10
32.020029704106463
20
7.5750000000000028
30
0
11
32.020029704106463
21
12.425000000000015
31
0
0
LINE
5
145
100
AcDbEntity
8
0
100
AcDbLine
10
32.020029704106463
20
12.425000000000015
30
0
11
34.520029704106463
21
12.425000000000015
31
0
0
LINE
5
146
100
AcDbEntity
8
0
100
AcDbLine
10
34.520029704106463
20
12.425000000000015
30
0
11
34.520029704106463
21
17.575000000000021
31
0
0
LINE
5
147
100
AcDbEntity
8
0
100
AcDbLine
10
34.520029704106463
20
17.575000000000021
30
0
11
24.370029704106457
21
17.575000000000021
31
0
0
LINE
5
148
100
AcDbEntity
8
0
100
AcDbLine
10
24.370029704106457
20
17.575000000000021
30
0
11
24.370029704106457
21
12.425000000000015
31
0
0
LINE
5
149
100
AcDbEntity
8
0
100
AcDbLine
10
24.370029704106457
20
12.425000000000015
30
0
11
26.870029704106457
21
12.425000000000015
31
0
0
LINE
5
150
100
AcDbEntity
8
0
100
AcDbLine
10
26.870029704106457
20
12.425000000000015
30
0
11
26.870029704106457
21
7.5750000000000028
31
0
0
LINE
5
151
100
AcDbEntity
8
0
100
AcDbLine
10
26.870029704106457
20
7.5750000000000028
30
0
11
-52.780277363596255
21
7.5750000000000206
31
0
0
LINE
5
152
100
AcDbEntity
8
0
100
AcDbLine
10
-52.780277363596255
20
7.5750000000000206
30
0
11
-52.780277363596255
21
12.425000000000015
31
0
0
LINE
5
153
100
AcDbEntity
8
0
100
AcDbLine
10
-52.780277363596255
20
12.425000000000015
30
0
11
-50.280277363596255
21
12.425000000000015
31
0
0
LINE
5
154
100
AcDbEntity
8
0
100
AcDbLine
10
-50.280277363596255
20
12.425000000000015
30
0
11
-50.280277363596255
21
17.575000000000021
31
0
0
LINE
5
155
100
AcDbEntity
8
0
100
AcDbLine
10
-50.280277363596255
20
17.575000000000021
30
0
11
-60.430277363596261
21
17.575000000000021
31
0
0
LINE
5
156
100
AcDbEntity
8
0
100
AcDbLine
10
-60.430277363596261
20
17.575000000000021
30
0
11
-60.430277363596261
21
12.425000000000015
31
0
0
LINE
5
157
100
AcDbEntity
8
0
100
AcDbLine
10
-60.430277363596261
20
12.425000000000015
30
0
11
-57.930277363596261
21
12.425000000000015
31
0
0
LINE
5
158
100
AcDbEntity
8
0
100
AcDbLine
10
-57.930277363596261
20
12.425000000000015
30
0
11
-57.930277363596261
21
7.5750000000000206
31
0
0
LINE
5
159
100
AcDbEntity
8
0
100
AcDbLine
10
-57.930277363596261
20
7.5750000000000206
30
0
11
-100.07499999999999
21
7.5750000000000028
31
0
0
LINE
5
160
100
AcDbEntity
8
0
100
AcDbLine
10
-100.07499999999999
20
7.5750000000000028
30
0
11
-100.07499999999999
21
2.5750000000000028
31
0
0
LINE
5
161
100
AcDbEntity
8
0
100
AcDbLine
10
-100.07499999999999
20
2.5750000000000028
30
0
11
-104.92499999999998
21
2.5750000000000028
31
0
0
LINE
5
162
100
AcDbEntity
8
0
100
AcDbLine
10
-104.92499999999998
20
2.5750000000000028
30
0
11
-104.92499999999998
21
5.0750000000000028
31
0
0
LINE
5
163
100
AcDbEntity
8
0
100
AcDbLine
10
-104.92499999999998
20
5.0750000000000028
30
0
11
-110.07499999999999
21
5.0750000000000028
31
0
0
LINE
5
164
100
AcDbEntity
8
0
100
AcDbLine
10
-110.07499999999999
20
5.0750000000000028
30
0
11
-110.07499999999999
21
-5.0750000000000028
31
0
0
LINE
5
165
100
AcDbEntity
8
0
100
AcDbLine
10
-110.07499999999999
20
-5.0750000000000028
30
0
11
-104.92499999999998
21
-5.0750000000000028
31
0
0
LINE
5
166
100
AcDbEntity
8
0
100
AcDbLine
10
-104.92499999999998
20
-5.0750000000000028
30
0
11
-104.92499999999998
21
-2.5750000000000028
31
0
0
LINE
5
167
100
AcDbEntity
8
0
100
AcDbLine
10
-104.92499999999998
20
-2.5750000000000028
30
0
11
-100.07499999999999
21
-2.5750000000000028
31
0
0
LINE
5
168
100
AcDbEntity
8
0
100
AcDbLine
10
-100.07499999999999
20
-2.5750000000000028
30
0
11
-100.07499999999999
21
-7.5750000000000028
31
0
0
LINE
5
169
100
AcDbEntity
8
0
100
AcDbLine
10
-100.07499999999999
20
-7.5750000000000028
30
0
11
-57.930277363596261
21
-7.5750000000000028
31
0
0
LINE
5
170
100
AcDbEntity
8
0
100
AcDbLine
10
-57.930277363596261
20
-7.5750000000000028
30
0
11
-57.930277363596261
21
-12.424999999999997
31
0
0
LINE
5
171
100
AcDbEntity
8
0
100
AcDbLine
10
-57.930277363596261
20
-12.424999999999997
30
0
11
-60.430277363596261
21
-12.424999999999997
31
0
0
LINE
5
172
100
AcDbEntity
8
0
100
AcDbLine
10
-60.430277363596261
20
-12.424999999999997
30
0
11
-60.430277363596261
21
-17.575000000000003
31
0
0
LINE
5
173
100
AcDbEntity
8
0
100
AcDbLine
10
-60.430277363596261
20
-17.575000000000003
30
0
11
-50.280277363596255
21
-17.575000000000003
31
0
0
ENDSEC
0
SECTION
2
OBJECTS
0
DICTIONARY
5
C
100
AcDbDictionary
3
ACAD_GROUP
350
D
3
ACAD_MLINESTYLE
350
17
0
DICTIONARY
5
D
100
AcDbDictionary
0
DICTIONARY
5
1A
330
C
100
AcDbDictionary
0
DICTIONARY
5
17
100
AcDbDictionary
0
ENDSEC
0
EOF
