0
SECTION
2
HEADER
9
$INSUNITS
70
4
9
$ACADVER
1
AC1014
9
$HANDSEED
5
FFFF
0
ENDSEC
0
SECTION
2
TABLES
0
TABLE
2
VPORT
5
8
100
AcDbSymbolTable
0
ENDTAB
0
TABLE
2
LTYPE
5
5
100
AcDbSymbolTable
0
LTYPE
5
14
100
AcDbSymbolTableRecord
100
AcDbLinetypeTableRecord
2
BYBLOCK
70
0
0
LTYPE
5
15
100
AcDbSymbolTableRecord
100
AcDbLinetypeTableRecord
2
BYLAYER
70
0
0
ENDTAB
0
TABLE
2
LAYER
5
2
100
AcDbSymbolTable
70
2
0
LAYER
5
50
100
AcDbSymbolTableRecord
100
AcDbLayerTableRecord
2
0
70
0
6
CONTINUOUS
0
ENDTAB
0
TABLE
2
STYLE
5
3
100
AcDbSymbolTable
70
1
0
STYLE
5
11
100
AcDbSymbolTableRecord
100
AcDbTextStyleTableRecord
2
STANDARD
70
0
0
ENDTAB
0
TABLE
2
VIEW
5
6
100
AcDbSymbolTable
70
0
0
ENDTAB
0
TABLE
2
UCS
5
7
100
AcDbSymbolTable
70
0
0
ENDTAB
0
TABLE
2
APPID
5
9
100
AcDbSymbolTable
70
2
0
APPID
5
12
100
AcDbSymbolTableRecord
100
AcDbRegAppTableRecord
2
ACAD
70
0
0
ENDTAB
0
TABLE
2
DIMSTYLE
5
A
100
AcDbSymbolTable
70
1
0
ENDTAB
0
TABLE
2
BLOCK_RECORD
5
1
100
AcDbSymbolTable
70
1
0
BLOCK_RECORD
5
1F
100
AcDbSymbolTableRecord
100
AcDbBlockTableRecord
2
*MODEL_SPACE
0
BLOCK_RECORD
5
1B
100
AcDbSymbolTableRecord
100
AcDbBlockTableRecord
2
*PAPER_SPACE
0
ENDTAB
0
ENDSEC
0
SECTION
2
BLOCKS
0
BLOCK
5
20
100
AcDbEntity
100
AcDbBlockBegin
2
*MODEL_SPACE
0
ENDBLK
5
21
100
AcDbEntity
100
AcDbBlockEnd
0
BLOCK
5
1C
100
AcDbEntity
100
AcDbBlockBegin
2
*PAPER_SPACE
0
ENDBLK
5
1D
100
AcDbEntity
100
AcDbBlockEnd
0
ENDSEC
0
SECTION
2
ENTITIES
0
LINE
5
100
100
AcDbEntity
8
0
100
AcDbLine
10
-8.6432062578892044
20
39.843438893294696
30
0
11
-6.7933877423087097
21
39.817526359357878
31
0
0
LINE
5
101
100
AcDbEntity
8
0
100
AcDbLine
10
-6.7933877423087097
20
39.817526359357878
30
0
11
-6.8473138264474187
21
35.967904043149517
31
0
0
LINE
5
102
100
AcDbEntity
8
0
100
AcDbLine
10
-6.8473138264474187
20
35.967904043149517
30
0
11
-8.6971323420279134
21
35.993816577086335
31
0
0
LINE
5
103
100
AcDbEntity
8
0
100
AcDbLine
10
-8.6971323420279134
20
35.993816577086335
30
0
11
-8.6432062578892044
21
39.843438893294696
31
0
0
LINE
5
104
100
AcDbEntity
8
0
100
AcDbLine
10
-15.416144606446665
20
43.81135602414215
30
0
11
-15.416144606446807
21
25.329893360403162
31
0
0
SPLINE
5
105
100
AcDbEntity
8
0
100
AcDbSpline
70
0
71
3
72
29
73
25
74
0
42
0.000000001
43
0.0000000001
44
0.0000000001
40
-0.0016461293513480441
40
-0.0016461293513480441
40
-0.0016461293513480441
40
-0.0016461293513480441
40
0
40
0
40
0
40
0.16214314690706438
40
0.16214314690706438
40
0.16214314690706438
40
0.29666293848437564
40
0.29666293848437564
40
0.29666293848437564
40
0.44283967760280685
40
0.44283967760280685
40
0.44283967760280685
40
0.5701616580342479
40
0.5701616580342479
40
0.5701616580342479
40
0.75183605704738132
40
0.75183605704738132
40
0.75183605704738132
40
0.83575644700195872
40
0.83575644700195872
40
0.83575644700195872
40
0.83640924098643621
40
0.83640924098643621
40
0.83640924098643621
40
0.83640924098643621
10
-11.035123485321492
20
-35.609671341483953
30
0
10
-11.028111909792813
20
-35.586115843616852
30
0
10
-11.021100334263991
20
-35.562560345749787
30
0
10
-11.01408875873517
20
-35.539004847882687
30
0
10
-10.324426122218568
20
-33.222072412842429
30
0
10
-9.475575662926019
20
-29.795150652857529
30
0
10
-8.4995423149328531
20
-25.336000147379742
30
0
10
-7.6897899137425441
20
-21.636528365494669
30
0
10
-6.7877084360202389
20
-17.209260748366439
30
0
10
-5.9358852490892389
20
-12.504473198354269
30
0
10
-5.0102464690181137
20
-7.391987561543587
30
0
10
-4.1498602504076132
20
-2.0007014541604029
30
0
10
-3.6934626059409936
20
2.7938553766775343
30
0
10
-3.295933886199407
20
6.9699813094006302
30
0
10
-3.2119066322202627
20
10.662896207165886
30
0
10
-3.6804600001156018
20
13.640468996393551
30
0
10
-4.3490338883752599
20
17.88913639198185
30
0
10
-6.164492944948563
20
20.726031691916624
30
0
10
-9.5935789453075415
20
22.829216428594012
30
0
10
-11.17756786119827
20
23.800735168753562
30
0
10
-13.098947424876144
20
24.616817620953633
30
0
10
-15.363203644730703
20
25.313601731998308
30
0
10
-15.380850631969452
20
25.319032274799937
30
0
10
-15.3984976192082
20
25.324462817601567
30
0
10
-15.416144606447091
20
25.329893360403197
30
0
0
SPLINE
5
106
100
AcDbEntity
8
0
100
AcDbSpline
70
0
71
3
72
11
73
7
74
0
42
0.000000001
43
0.0000000001
44
0.0000000001
40
0.66274410082203039
40
0.66274410082203039
40
0.66274410082203039
40
0.66274410082203039
40
0.66332277886992719
40
0.66332277886992719
40
0.66332277886992719
40
0.72952131785979635
40
0.72952131785979635
40
0.72952131785979635
40
0.72952131785979635
10
-11.035123485322202
20
-35.609671341484272
30
0
10
-11.011691088425835
20
-35.617083928541184
30
0
10
-10.988258691529609
20
-35.624496515597954
30
0
10
-10.964826294633525
20
-35.63190910265476
30
0
10
-8.2823220272956632
20
-36.480490513255361
30
0
10
-5.4843805157400993
20
-37.245710567749271
30
0
10
-2.5655723248172535
20
-37.924308796111461
30
0
0
LINE
5
107
100
AcDbEntity
8
0
100
AcDbLine
10
-2.5655723248172535
20
-37.924308796111426
30
0
11
-2.5655723248175377
21
-41.466994880560186
31
0
0
ARC
5
108
100
AcDbEntity
8
0
100
AcDbCircle
10
-0.4905723248174354
20
-43.736356024142147
30
0
40
3.0750000000000077
210
0
220
0
230
1
100
AcDbArc
50
-227.56163149376852
51
47.561631493768552
0
LINE
5
109
100
AcDbEntity
8
0
100
AcDbLine
10
1.5844276751826669
20
-41.466994880560186
30
0
11
1.5844276751826669
21
-38.814849934585887
31
0
0
SPLINE
5
110
100
AcDbEntity
8
0
100
AcDbSpline
70
0
71
3
72
11
73
7
74
0
42
0.000000001
43
0.0000000001
44
0.0000000001
40
0.7603031432594396
40
0.7603031432594396
40
0.7603031432594396
40
0.7603031432594396
40
0.81215398135472983
40
0.81215398135472983
40
0.81215398135472983
40
0.81293430725396598
40
0.81293430725396598
40
0.81293430725396598
40
0.81293430725396598
10
1.5844276751826669
20
-38.814849934585887
30
0
10
3.9586756577431004
20
-39.283341316804794
30
0
10
6.4073654791636159
20
-39.698608645763223
30
0
10
8.9303126547730471
20
-40.060946882884139
30
0
10
8.9682632110309157
20
-40.066397229916824
30
0
10
9.0062137672887843
20
-40.071847576949509
30
0
10
9.0441643235465108
20
-40.077297923982194
30
0
0
SPLINE
5
111
100
AcDbEntity
8
0
100
AcDbSpline
70
0
71
3
72
26
73
22
74
0
42
0.000000001
43
0.0000000001
44
0.0000000001
40
-0.0010943071348154315
40
-0.0010943071348154315
40
-0.0010943071348154315
40
-0.0010943071348154315
40
0
40
0
40
0
40
0.2426763911397275
40
0.2426763911397275
40
0.2426763911397275
40
0.4213949769276269
40
0.4213949769276269
40
0.4213949769276269
40
0.62419586573017105
40
0.62419586573017105
40
0.62419586573017105
40
0.81338592441625979
40
0.81338592441625979
40
0.81338592441625979
40
1
40
1
40
1
40
1.0006243701216835
40
1.0006243701216835
40
1.0006243701216835
40
1.0006243701216835
10
9.0441643235466529
20
-40.077297923981874
30
0
10
9.0338451983691925
20
-40.040372774581208
30
0
10
9.0235260731917322
20
-40.003447625180435
30
0
10
9.0132069480142718
20
-39.966522475779662
30
0
10
6.7262897027873692
20
-31.783196903605422
30
0
10
5.6622192032985197
20
-24.481273292518217
30
0
10
5.8152508252541679
20
-18.028475210437982
30
0
10
5.9279506842239016
20
-13.276323828146133
30
0
10
6.7176103357968486
20
-8.9976208830818294
30
0
10
7.8767143339904067
20
-4.8921148535096037
30
0
10
9.1920074245882688
20
-0.23339249337649193
30
0
10
10.93400379260288
20
4.2490321539790443
30
0
10
12.335168834715233
20
9.252920724298086
30
0
10
13.642295731995375
20
13.920977052192409
30
0
10
14.634866708768755
20
19.056738503593351
30
0
10
15.09418794956801
20
24.837039757754926
30
0
10
15.547255142120378
20
30.53863730802945
30
0
10
15.504927221425504
20
36.84463799545874
30
0
10
14.969981726962516
20
43.742155326810845
30
0
10
14.968192745049436
20
43.765222225921221
30
0
10
14.966403763136356
20
43.788289125031611
30
0
10
14.964614781223275
20
43.811356024142079
30
0
0
LINE
5
112
100
AcDbEntity
8
0
100
AcDbLine
10
14.964614781223418
20
43.811356024141887
30
0
11
-5.1399528074230716
21
43.81135602414215
31
0
0
LINE
5
113
100
AcDbEntity
8
0
100
AcDbLine
10
-5.1399528074230716
20
43.81135602414215
30
0
11
-5.1399528074230716
21
46.811356024142157
31
0
0
LINE
5
114
100
AcDbEntity
8
0
100
AcDbLine
10
-5.1399528074230716
20
46.811356024142157
30
0
11
-10.289952807423219
21
46.811356024142157
31
0
0
LINE
5
115
100
AcDbEntity
8
0
100
AcDbLine
10
-10.289952807423219
20
46.811356024142157
30
0
11
-10.289952807423219
21
43.81135602414215
31
0
0
LINE
5
116
100
AcDbEntity
8
0
100
AcDbLine
10
-10.289952807423219
20
43.81135602414215
30
0
11
-15.416144606446665
21
43.81135602414215
31
0
0
ENDSEC
0
SECTION
2
OBJECTS
0
DICTIONARY
5
C
100
AcDbDictionary
3
ACAD_GROUP
350
D
3
ACAD_MLINESTYLE
350
17
0
DICTIONARY
5
D
100
AcDbDictionary
0
DICTIONARY
5
1A
330
C
100
AcDbDictionary
0
DICTIONARY
5
17
100
AcDbDictionary
0
ENDSEC
0
EOF
