0
SECTION
2
HEADER
9
$INSUNITS
70
4
9
$ACADVER
1
AC1014
9
$HANDSEED
5
FFFF
0
ENDSEC
0
SECTION
2
TABLES
0
TABLE
2
VPORT
5
8
100
AcDbSymbolTable
0
ENDTAB
0
TABLE
2
LTYPE
5
5
100
AcDbSymbolTable
0
LTYPE
5
14
100
AcDbSymbolTableRecord
100
AcDbLinetypeTableRecord
2
BYBLOCK
70
0
0
LTYPE
5
15
100
AcDbSymbolTableRecord
100
AcDbLinetypeTableRecord
2
BYLAYER
70
0
0
ENDTAB
0
TABLE
2
LAYER
5
2
100
AcDbSymbolTable
70
2
0
LAYER
5
50
100
AcDbSymbolTableRecord
100
AcDbLayerTableRecord
2
0
70
0
6
CONTINUOUS
0
ENDTAB
0
TABLE
2
STYLE
5
3
100
AcDbSymbolTable
70
1
0
STYLE
5
11
100
AcDbSymbolTableRecord
100
AcDbTextStyleTableRecord
2
STANDARD
70
0
0
ENDTAB
0
TABLE
2
VIEW
5
6
100
AcDbSymbolTable
70
0
0
ENDTAB
0
TABLE
2
UCS
5
7
100
AcDbSymbolTable
70
0
0
ENDTAB
0
TABLE
2
APPID
5
9
100
AcDbSymbolTable
70
2
0
APPID
5
12
100
AcDbSymbolTableRecord
100
AcDbRegAppTableRecord
2
ACAD
70
0
0
ENDTAB
0
TABLE
2
DIMSTYLE
5
A
100
AcDbSymbolTable
70
1
0
ENDTAB
0
TABLE
2
BLOCK_RECORD
5
1
100
AcDbSymbolTable
70
1
0
BLOCK_RECORD
5
1F
100
AcDbSymbolTableRecord
100
AcDbBlockTableRecord
2
*MODEL_SPACE
0
BLOCK_RECORD
5
1B
100
AcDbSymbolTableRecord
100
AcDbBlockTableRecord
2
*PAPER_SPACE
0
ENDTAB
0
ENDSEC
0
SECTION
2
BLOCKS
0
BLOCK
5
20
100
AcDbEntity
100
AcDbBlockBegin
2
*MODEL_SPACE
0
ENDBLK
5
21
100
AcDbEntity
100
AcDbBlockEnd
0
BLOCK
5
1C
100
AcDbEntity
100
AcDbBlockBegin
2
*PAPER_SPACE
0
ENDBLK
5
1D
100
AcDbEntity
100
AcDbBlockEnd
0
ENDSEC
0
SECTION
2
ENTITIES
0
LINE
5
100
100
AcDbEntity
8
0
100
AcDbLine
10
3.2929910890183223
20
10.075000000000003
30
1.4210854715202004e-13
11
3.2929910890183223
21
12.075000000000005
31
1.4210854715202004e-13
0
LINE
5
101
100
AcDbEntity
8
0
100
AcDbLine
10
3.2929910890183223
20
12.075000000000005
30
1.4210854715202004e-13
11
-4.8577937854667397
21
12.075000000000005
31
1.4210854715202004e-13
0
LINE
5
102
100
AcDbEntity
8
0
100
AcDbLine
10
-4.8577937854667574
20
12.075000000000005
30
0
11
-4.8577937854667574
21
10.075000000000003
31
0
0
LINE
5
103
100
AcDbEntity
8
0
100
AcDbLine
10
-4.8577937854667574
20
10.075000000000003
30
0
11
-20.954695125882505
21
10.075000000000003
31
0
0
LINE
5
104
100
AcDbEntity
8
0
100
AcDbLine
10
-20.954695125882505
20
10.075000000000003
30
0
11
-20.954695125882505
21
12.075000000000005
31
0
0
LINE
5
105
100
AcDbEntity
8
0
100
AcDbLine
10
-20.954695125882505
20
12.075000000000005
30
0
11
-29.104695125882518
21
12.075000000000005
31
0
0
LINE
5
106
100
AcDbEntity
8
0
100
AcDbLine
10
-29.1046951258825
20
12.075000000000005
30
1.4210854715202004e-13
11
-29.1046951258825
21
10.075000000000003
31
1.4210854715202004e-13
0
LINE
5
107
100
AcDbEntity
8
0
100
AcDbLine
10
-29.1046951258825
20
10.075000000000003
30
1.4210854715202004e-13
11
-35.310422288776181
21
10.075000000000003
31
1.4210854715202004e-13
0
LINE
5
108
100
AcDbEntity
8
0
100
AcDbLine
10
-35.310422288776181
20
10.075000000000003
30
1.4210854715202004e-13
11
-35.310422288776181
21
7.9599781699432626
31
1.4210854715202004e-13
0
SPLINE
5
109
100
AcDbEntity
8
0
100
AcDbSpline
70
0
71
3
72
17
73
13
74
0
42
0.000000001
43
0.0000000001
44
0.0000000001
40
-0.0013146326210662111
40
-0.0013146326210662111
40
-0.0013146326210662111
40
-0.0013146326210662111
40
0
40
0
40
0
40
0.5
40
0.5
40
0.5
40
1
40
1
40
1
40
1.0057125214195246
40
1.0057125214195246
40
1.0057125214195246
40
1.0057125214195246
10
-35.310422288776365
20
7.9599781699433869
30
1.4210854715202004e-13
10
-35.299340214729384
20
7.9525512250468422
30
0
10
-35.28825814068243
20
7.9451242801503197
30
0
10
-35.277176066635469
20
7.9376973352537972
30
0
10
-31.068134544968959
20
5.116896886155673
30
0
10
-27.963227613232924
20
2.2285582092501643
30
0
10
-26.510344441146394
20
-0.74613653238198907
30
0
10
-25.057461269059687
20
-3.7208312740141647
30
0
10
-25.330029163516024
20
-6.7926881472399936
30
1.4210854715202004e-13
10
-26.959729736236486
20
-9.9657346856316131
30
0
10
-26.978436232054737
20
-10.002156457087754
30
1.4210854715202004e-13
10
-26.997142727873005
20
-10.038578228543894
30
0
10
-27.015849223691291
20
-10.075000000000029
30
0
0
LINE
5
110
100
AcDbEntity
8
0
100
AcDbLine
10
-27.015849223691273
20
-10.075000000000028
30
0
11
-23.726042587599672
21
-10.075000000000001
31
0
0
LINE
5
111
100
AcDbEntity
8
0
100
AcDbLine
10
-23.726042587599672
20
-10.075000000000001
30
0
11
-23.726042587599654
21
-12.074999999999999
31
0
0
LINE
5
112
100
AcDbEntity
8
0
100
AcDbLine
10
-23.726042587599654
20
-12.074999999999999
30
0
11
-19.576042587599645
21
-12.074999999999999
31
0
0
LINE
5
113
100
AcDbEntity
8
0
100
AcDbLine
10
-19.576042587599627
20
-12.074999999999999
30
0
11
-19.576042587599645
21
-10.075000000000001
31
0
0
LINE
5
114
100
AcDbEntity
8
0
100
AcDbLine
10
-19.576042587599645
20
-10.075000000000001
30
0
11
-13.530008478709394
21
-10.075000000000058
31
0
0
SPLINE
5
115
100
AcDbEntity
8
0
100
AcDbSpline
70
0
71
3
72
35
73
31
74
0
42
0.000000001
43
0.0000000001
44
0.0000000001
40
-0.0010047609231214724
40
-0.0010047609231214724
40
-0.0010047609231214724
40
-0.0010047609231214724
40
0
40
0
40
0
40
0.14157584072643511
40
0.14157584072643511
40
0.14157584072643511
40
0.24887886063563072
40
0.24887886063563072
40
0.24887886063563072
40
0.34044960096711463
40
0.34044960096711463
40
0.34044960096711463
40
0.44128669384684432
40
0.44128669384684432
40
0.44128669384684432
40
0.54674711086505379
40
0.54674711086505379
40
0.54674711086505379
40
0.77337355543252695
40
0.77337355543252695
40
0.77337355543252695
40
0.93298209470212379
40
0.93298209470212379
40
0.93298209470212379
40
1
40
1
40
1
40
1.0023418728055764
40
1.0023418728055764
40
1.0023418728055764
40
1.0023418728055764
10
-13.530008478709412
20
-10.075000000000058
30
0
10
-13.542168643734662
20
-10.041475376766035
30
1.4210854715202004e-13
10
-13.55432880875993
20
-10.007950753532018
30
1.4210854715202004e-13
10
-13.566488973785145
20
-9.9744261302980028
30
0
10
-15.279317067737033
20
-5.2522931333228051
30
0
10
-16.449194679282968
20
-1.6981557697887206
30
0
10
-16.595943078530961
20
0.78125987699270372
30
0
10
-16.707166478832534
20
2.6604561095182833
30
1.4210854715202004e-13
10
-16.197719370269166
20
3.9153453782028391
30
0
10
-14.930234001404923
20
4.7102954208853021
30
0
10
-13.848581558776143
20
5.3886935125380786
30
0
10
-12.191251117151261
20
5.7274269948897727
30
1.4210854715202004e-13
10
-10.199974113756962
20
5.807962824438202
30
0
10
-8.0071930636784039
20
5.896648346635831
30
0
10
-5.4803075745829588
20
5.6799171680436267
30
1.4210854715202004e-13
10
-3.3514456552330429
20
5.2907982350429572
30
0
10
-1.1249766111819071
20
4.8838384172616545
30
0
10
0.66488405334629519
20
4.2878831848210996
30
1.4210854715202004e-13
10
1.853224583128803
20
3.5882926343591359
30
1.4210854715202004e-13
10
4.4068783312790316
20
2.0849255551561274
30
0
10
4.2898739111554107
20
0.13713825502497112
30
1.4210854715202004e-13
10
3.8606108973439834
20
-2.1603813383188175
30
0
10
3.5582894152783417
20
-3.7784791156402209
30
0
10
3.0863774604404792
20
-5.5625521380653264
30
0
10
2.6594900308843261
20
-7.4865852276559863
30
0
10
2.4802446004219547
20
-8.294465983774959
30
0
10
2.3034218548923313
20
-9.1274376194421958
30
0
10
2.1299625592112115
20
-9.9851330761279833
30
0
10
2.1239043664115886
20
-10.015088717418656
30
0
10
2.1178461736119836
20
-10.045044358709331
30
0
10
2.1117879808123696
20
-10.074999999999999
30
0
0
LINE
5
116
100
AcDbEntity
8
0
100
AcDbLine
10
2.1117879808123696
20
-10.074999999999996
30
0
11
4.4380039150585393
21
-10.075000000000001
31
0
0
LINE
5
117
100
AcDbEntity
8
0
100
AcDbLine
10
4.4380039150585215
20
-10.075000000000001
30
0
11
4.4380039150585393
21
-12.074999999999999
31
-1.5561513950648866e-29
0
LINE
5
118
100
AcDbEntity
8
0
100
AcDbLine
10
4.4380039150585393
20
-12.074999999999999
30
0
11
8.5880039150585397
21
-12.074999999999999
31
0
0
LINE
5
119
100
AcDbEntity
8
0
100
AcDbLine
10
8.5880039150585397
20
-12.074999999999999
30
0
11
8.5880039150585485
21
-10.075000000000001
31
0
0
LINE
5
120
100
AcDbEntity
8
0
100
AcDbLine
10
8.5880039150585574
20
-10.075000000000001
30
0
11
10.809244615401212
21
-10.075000000000003
31
0
0
SPLINE
5
121
100
AcDbEntity
8
0
100
AcDbSpline
70
0
71
3
72
26
73
22
74
0
42
0.000000001
43
0.0000000001
44
0.0000000001
40
-0.98962284659096589
40
-0.98962284659096589
40
-0.98962284659096589
40
-0.98962284659096589
40
-0.98708034409547896
40
-0.98708034409547896
40
-0.98708034409547896
40
-0.74031025807160922
40
-0.74031025807160922
40
-0.74031025807160922
40
-0.54807093529477091
40
-0.54807093529477091
40
-0.54807093529477091
40
-0.30540545045466966
40
-0.30540545045466966
40
-0.30540545045466966
40
-0.10347459711193194
40
-0.10347459711193194
40
-0.10347459711193194
40
0
40
0
40
0
40
0.0042497752043826852
40
0.0042497752043826852
40
0.0042497752043826852
40
0.0042497752043826852
10
10.809244615401195
20
-10.074999999999985
30
0
10
10.79275566928855
20
-10.039474790994827
30
0
10
10.776266723175878
20
-10.003949581989659
30
0
10
10.759777777063206
20
-9.9684243729844901
30
0
10
9.1656707949006844
20
-6.533942670456967
30
0
10
9.0880965499407029
20
-3.6606448642006928
30
0
10
10.507680269239543
20
-1.3577792861053739
30
1.4210854715202004e-13
10
11.61356719913524
20
0.4362036326196872
30
0
10
13.658354626351894
20
1.8838055023861155
30
0
10
16.202414514950512
20
3.0330714074046261
30
0
10
19.413804970407416
20
4.4838004467243397
30
1.4210854715202004e-13
10
23.33551810613633
20
5.4709832966325722
30
0
10
26.627108589550623
20
6.2000384767259353
30
1.4210854715202004e-13
10
29.366161799398949
20
6.8067120411481774
30
0
10
31.651507970015125
20
7.2381521751216127
30
0
10
33.265637594643643
20
7.5481938495488388
30
1.4210854715202004e-13
10
34.092759403074709
20
7.7070672303036547
30
0
10
34.753653174248875
20
7.8327253667156782
30
0
10
35.249335269182218
20
7.9263017708745886
30
1.4210854715202004e-13
10
35.269697609046872
20
7.9301458365858002
30
0
10
35.290059948911512
20
7.9339899022970117
30
0
10
35.310422288776167
20
7.9378339680082233
30
0
0
LINE
5
122
100
AcDbEntity
8
0
100
AcDbLine
10
35.310422288776167
20
7.9378339680082277
30
0
11
35.310422288776159
21
10.075000000000003
31
-7.9964611290958033e-30
0
LINE
5
123
100
AcDbEntity
8
0
100
AcDbLine
10
35.310422288776159
20
10.075000000000003
30
0
11
28.182785700630795
21
10.075000000000003
31
0
0
LINE
5
124
100
AcDbEntity
8
0
100
AcDbLine
10
28.182785700630816
20
10.075000000000003
30
1.4210854715202004e-13
11
28.182785700630816
21
12.075000000000005
31
1.4210854715202004e-13
0
LINE
5
125
100
AcDbEntity
8
0
100
AcDbLine
10
28.182785700630816
20
12.075000000000005
30
1.4210854715202004e-13
11
20.032000826145769
21
12.075000000000005
31
1.4210854715202004e-13
0
LINE
5
126
100
AcDbEntity
8
0
100
AcDbLine
10
20.032000826145779
20
12.075000000000005
30
0
11
20.032000826145755
21
10.075000000000003
31
0
0
LINE
5
127
100
AcDbEntity
8
0
100
AcDbLine
10
20.032000826145744
20
10.075000000000003
30
0
11
3.2929910890183045
21
10.075000000000003
31
0
0
ENDSEC
0
SECTION
2
OBJECTS
0
DICTIONARY
5
C
100
AcDbDictionary
3
ACAD_GROUP
350
D
3
ACAD_MLINESTYLE
350
17
0
DICTIONARY
5
D
100
AcDbDictionary
0
DICTIONARY
5
1A
330
C
100
AcDbDictionary
0
DICTIONARY
5
17
100
AcDbDictionary
0
ENDSEC
0
EOF
