0
SECTION
2
HEADER
9
$INSUNITS
70
4
9
$ACADVER
1
AC1014
9
$HANDSEED
5
FFFF
0
ENDSEC
0
SECTION
2
TABLES
0
TABLE
2
VPORT
5
8
100
AcDbSymbolTable
0
ENDTAB
0
TABLE
2
LTYPE
5
5
100
AcDbSymbolTable
0
LTYPE
5
14
100
AcDbSymbolTableRecord
100
AcDbLinetypeTableRecord
2
BYBLOCK
70
0
0
LTYPE
5
15
100
AcDbSymbolTableRecord
100
AcDbLinetypeTableRecord
2
BYLAYER
70
0
0
ENDTAB
0
TABLE
2
LAYER
5
2
100
AcDbSymbolTable
70
2
0
LAYER
5
50
100
AcDbSymbolTableRecord
100
AcDbLayerTableRecord
2
0
70
0
6
CONTINUOUS
0
ENDTAB
0
TABLE
2
STYLE
5
3
100
AcDbSymbolTable
70
1
0
STYLE
5
11
100
AcDbSymbolTableRecord
100
AcDbTextStyleTableRecord
2
STANDARD
70
0
0
ENDTAB
0
TABLE
2
VIEW
5
6
100
AcDbSymbolTable
70
0
0
ENDTAB
0
TABLE
2
UCS
5
7
100
AcDbSymbolTable
70
0
0
ENDTAB
0
TABLE
2
APPID
5
9
100
AcDbSymbolTable
70
2
0
APPID
5
12
100
AcDbSymbolTableRecord
100
AcDbRegAppTableRecord
2
ACAD
70
0
0
ENDTAB
0
TABLE
2
DIMSTYLE
5
A
100
AcDbSymbolTable
70
1
0
ENDTAB
0
TABLE
2
BLOCK_RECORD
5
1
100
AcDbSymbolTable
70
1
0
BLOCK_RECORD
5
1F
100
AcDbSymbolTableRecord
100
AcDbBlockTableRecord
2
*MODEL_SPACE
0
BLOCK_RECORD
5
1B
100
AcDbSymbolTableRecord
100
AcDbBlockTableRecord
2
*PAPER_SPACE
0
ENDTAB
0
ENDSEC
0
SECTION
2
BLOCKS
0
BLOCK
5
20
100
AcDbEntity
100
AcDbBlockBegin
2
*MODEL_SPACE
0
ENDBLK
5
21
100
AcDbEntity
100
AcDbBlockEnd
0
BLOCK
5
1C
100
AcDbEntity
100
AcDbBlockBegin
2
*PAPER_SPACE
0
ENDBLK
5
1D
100
AcDbEntity
100
AcDbBlockEnd
0
ENDSEC
0
SECTION
2
ENTITIES
0
LINE
5
100
100
AcDbEntity
8
0
100
AcDbLine
10
-0.41866044736423191
20
-26.09885527157731
30
0
11
17.867858289998537
21
-26.09885527157731
31
0
0
LINE
5
101
100
AcDbEntity
8
0
100
AcDbLine
10
17.867858289998537
20
-26.09885527157731
30
0
11
17.867858289998537
21
-13.70941646307001
31
0
0
LINE
5
102
100
AcDbEntity
8
0
100
AcDbLine
10
17.867858289998537
20
-13.70941646307001
30
0
11
13.717858289998617
21
-13.70941646307001
31
0
0
LINE
5
103
100
AcDbEntity
8
0
100
AcDbLine
10
13.717858289998617
20
-13.70941646307001
30
0
11
13.717858289998617
21
-17.709416463070013
31
0
0
LINE
5
104
100
AcDbEntity
8
0
100
AcDbLine
10
13.717858289998617
20
-17.709416463070013
30
0
11
9.8678582899984235
21
-17.709416463070013
31
0
0
LINE
5
105
100
AcDbEntity
8
0
100
AcDbLine
10
9.8678582899984235
20
-17.709416463070013
30
0
11
9.8678582899984235
21
-9.8594164630700121
31
0
0
LINE
5
106
100
AcDbEntity
8
0
100
AcDbLine
10
9.8678582899984235
20
-9.8594164630700121
30
0
11
17.867858289998537
21
-9.8594164630700121
31
0
0
LINE
5
107
100
AcDbEntity
8
0
100
AcDbLine
10
17.867858289998537
20
-9.8594164630700121
30
0
11
17.867858289998537
21
28.098855271577303
31
0
0
LINE
5
108
100
AcDbEntity
8
0
100
AcDbLine
10
17.867858289998537
20
28.098855271577303
30
0
11
11.004546320990016
21
28.098855271577303
31
0
0
LINE
5
109
100
AcDbEntity
8
0
100
AcDbLine
10
11.004546320990016
20
28.098855271577303
30
0
11
11.004546320990016
21
31.948855271577301
31
0
0
LINE
5
110
100
AcDbEntity
8
0
100
AcDbLine
10
11.004546320990016
20
31.948855271577301
30
0
11
14.00454632099013
21
31.948855271577301
31
0
0
LINE
5
111
100
AcDbEntity
8
0
100
AcDbLine
10
14.00454632099013
20
31.948855271577301
30
0
11
14.00454632099013
21
36.098855271577307
31
0
0
LINE
5
112
100
AcDbEntity
8
0
100
AcDbLine
10
14.00454632099013
20
36.098855271577307
30
0
11
3.8545463209899822
21
36.098855271577307
31
0
0
LINE
5
113
100
AcDbEntity
8
0
100
AcDbLine
10
3.8545463209899822
20
36.098855271577307
30
0
11
3.8545463209899822
21
31.948855271577301
31
0
0
LINE
5
114
100
AcDbEntity
8
0
100
AcDbLine
10
3.8545463209899822
20
31.948855271577301
30
0
11
6.8545463209900959
21
31.948855271577301
31
0
0
LINE
5
115
100
AcDbEntity
8
0
100
AcDbLine
10
6.8545463209900959
20
31.948855271577301
30
0
11
6.8545463209900959
21
28.098855271577303
31
0
0
LINE
5
116
100
AcDbEntity
8
0
100
AcDbLine
10
6.8545463209900959
20
28.098855271577303
30
0
11
-17.867858289998679
21
28.098855271577303
31
0
0
LINE
5
117
100
AcDbEntity
8
0
100
AcDbLine
10
-17.867858289998679
20
28.098855271577303
30
0
11
-17.867858289998679
21
-7.4459001186949791
31
0
0
LINE
5
118
100
AcDbEntity
8
0
100
AcDbLine
10
-17.867858289998679
20
-7.4459001186949791
30
0
11
-9.8678582899987077
21
-7.4459001186949791
31
0
0
LINE
5
119
100
AcDbEntity
8
0
100
AcDbLine
10
-9.8678582899987077
20
-7.4459001186949791
30
0
11
-9.8678582899987077
21
-15.295900118694981
31
0
0
LINE
5
120
100
AcDbEntity
8
0
100
AcDbLine
10
-9.8678582899987077
20
-15.295900118694981
30
0
11
-13.717858289998688
21
-15.295900118694981
31
0
0
LINE
5
121
100
AcDbEntity
8
0
100
AcDbLine
10
-13.717858289998688
20
-15.295900118694981
30
0
11
-13.717858289998688
21
-11.295900118694977
31
0
0
LINE
5
122
100
AcDbEntity
8
0
100
AcDbLine
10
-13.717858289998688
20
-11.295900118694977
30
0
11
-17.867858289998679
21
-11.295900118694977
31
0
0
LINE
5
123
100
AcDbEntity
8
0
100
AcDbLine
10
-17.867858289998679
20
-11.295900118694977
30
0
11
-17.867858289998679
21
-26.09885527157731
31
0
0
LINE
5
124
100
AcDbEntity
8
0
100
AcDbLine
10
-17.867858289998679
20
-26.09885527157731
30
0
11
-6.5686604473643229
21
-26.09885527157731
31
0
0
LINE
5
125
100
AcDbEntity
8
0
100
AcDbLine
10
-6.5686604473643229
20
-26.09885527157731
30
0
11
-6.5686604473643229
21
-31.948855271577301
31
0
0
LINE
5
126
100
AcDbEntity
8
0
100
AcDbLine
10
-6.5686604473643229
20
-31.948855271577301
30
0
11
-8.5686604473642092
21
-31.948855271577301
31
0
0
LINE
5
127
100
AcDbEntity
8
0
100
AcDbLine
10
-8.5686604473642092
20
-31.948855271577301
30
0
11
-8.5686604473642092
21
-36.098855271577307
31
0
0
LINE
5
128
100
AcDbEntity
8
0
100
AcDbLine
10
-8.5686604473642092
20
-36.098855271577307
30
0
11
1.5813395526356544
21
-36.098855271577307
31
0
0
LINE
5
129
100
AcDbEntity
8
0
100
AcDbLine
10
1.5813395526356544
20
-36.098855271577307
30
0
11
1.5813395526356544
21
-31.948855271577301
31
0
0
LINE
5
130
100
AcDbEntity
8
0
100
AcDbLine
10
1.5813395526356544
20
-31.948855271577301
30
0
11
-0.41866044736423191
21
-31.948855271577301
31
0
0
LINE
5
131
100
AcDbEntity
8
0
100
AcDbLine
10
-0.41866044736423191
20
-31.948855271577301
30
0
11
-0.41866044736423191
21
-26.09885527157731
31
0
0
ENDSEC
0
SECTION
2
OBJECTS
0
DICTIONARY
5
C
100
AcDbDictionary
3
ACAD_GROUP
350
D
3
ACAD_MLINESTYLE
350
17
0
DICTIONARY
5
D
100
AcDbDictionary
0
DICTIONARY
5
1A
330
C
100
AcDbDictionary
0
DICTIONARY
5
17
100
AcDbDictionary
0
ENDSEC
0
EOF
