0
SECTION
2
HEADER
9
$INSUNITS
70
4
9
$ACADVER
1
AC1014
9
$HANDSEED
5
FFFF
0
ENDSEC
0
SECTION
2
TABLES
0
TABLE
2
VPORT
5
8
100
AcDbSymbolTable
0
ENDTAB
0
TABLE
2
LTYPE
5
5
100
AcDbSymbolTable
0
LTYPE
5
14
100
AcDbSymbolTableRecord
100
AcDbLinetypeTableRecord
2
BYBLOCK
70
0
0
LTYPE
5
15
100
AcDbSymbolTableRecord
100
AcDbLinetypeTableRecord
2
BYLAYER
70
0
0
ENDTAB
0
TABLE
2
LAYER
5
2
100
AcDbSymbolTable
70
2
0
LAYER
5
50
100
AcDbSymbolTableRecord
100
AcDbLayerTableRecord
2
0
70
0
6
CONTINUOUS
0
ENDTAB
0
TABLE
2
STYLE
5
3
100
AcDbSymbolTable
70
1
0
STYLE
5
11
100
AcDbSymbolTableRecord
100
AcDbTextStyleTableRecord
2
STANDARD
70
0
0
ENDTAB
0
TABLE
2
VIEW
5
6
100
AcDbSymbolTable
70
0
0
ENDTAB
0
TABLE
2
UCS
5
7
100
AcDbSymbolTable
70
0
0
ENDTAB
0
TABLE
2
APPID
5
9
100
AcDbSymbolTable
70
2
0
APPID
5
12
100
AcDbSymbolTableRecord
100
AcDbRegAppTableRecord
2
ACAD
70
0
0
ENDTAB
0
TABLE
2
DIMSTYLE
5
A
100
AcDbSymbolTable
70
1
0
ENDTAB
0
TABLE
2
BLOCK_RECORD
5
1
100
AcDbSymbolTable
70
1
0
BLOCK_RECORD
5
1F
100
AcDbSymbolTableRecord
100
AcDbBlockTableRecord
2
*MODEL_SPACE
0
BLOCK_RECORD
5
1B
100
AcDbSymbolTableRecord
100
AcDbBlockTableRecord
2
*PAPER_SPACE
0
ENDTAB
0
ENDSEC
0
SECTION
2
BLOCKS
0
BLOCK
5
20
100
AcDbEntity
100
AcDbBlockBegin
2
*MODEL_SPACE
0
ENDBLK
5
21
100
AcDbEntity
100
AcDbBlockEnd
0
BLOCK
5
1C
100
AcDbEntity
100
AcDbBlockBegin
2
*PAPER_SPACE
0
ENDBLK
5
1D
100
AcDbEntity
100
AcDbBlockEnd
0
ENDSEC
0
SECTION
2
ENTITIES
0
ARC
5
100
100
AcDbEntity
8
0
100
AcDbCircle
10
-16.818181818181756
20
-14.113636363636372
30
0
40
11.32613636363638
210
0
220
-0
230
1
100
AcDbArc
50
73.88202051894379
51
106.11797948105634
0
LINE
5
101
100
AcDbEntity
8
0
100
AcDbLine
10
-13.673863636363599
20
-3.2327068032001849
30
0
11
-13.673863636363601
21
-18.167045454545423
31
0
0
LINE
5
102
100
AcDbEntity
8
0
100
AcDbLine
10
-13.673863636363599
20
-18.167045454545423
30
0
11
-19.962499999999956
21
-18.167045454545423
31
0
0
LINE
5
103
100
AcDbEntity
8
0
100
AcDbLine
10
-19.962499999999956
20
-18.16704545454542
30
0
11
-19.962499999999942
21
-3.2327068032001982
31
0
0
ARC
5
104
100
AcDbEntity
8
0
100
AcDbCircle
10
16.818181818181756
20
-14.11363636363637
30
0
40
11.32613636363638
210
0
220
-0
230
1
100
AcDbArc
50
73.882020518943563
51
106.11797948105614
0
LINE
5
105
100
AcDbEntity
8
0
100
AcDbLine
10
19.962499999999956
20
-3.232706803200196
30
0
11
19.962499999999952
21
-18.167045454545423
31
0
0
LINE
5
106
100
AcDbEntity
8
0
100
AcDbLine
10
19.962499999999956
20
-18.16704545454542
30
0
11
13.673863636363608
21
-18.16704545454542
31
0
0
LINE
5
107
100
AcDbEntity
8
0
100
AcDbLine
10
13.673863636363608
20
-18.16704545454542
30
0
11
13.67386363636361
21
-3.2327068032001782
31
0
0
LINE
5
108
100
AcDbEntity
8
0
100
AcDbLine
10
38.780681818181748
20
4.8784090909090816
30
0
11
33.85568181818175
21
4.878409090909086
31
0
0
LINE
5
109
100
AcDbEntity
8
0
100
AcDbLine
10
38.780681818181726
20
12.842135753063655
30
0
11
38.780681818181748
21
4.8784090909090816
31
0
0
ARC
5
110
100
AcDbEntity
8
0
100
AcDbCircle
10
36.318181818181749
20
4.8409090909090713
30
0
40
8.3715909090908927
210
0
220
-0
230
1
100
AcDbArc
50
72.893450160890964
51
107.10654983910916
0
LINE
5
111
100
AcDbEntity
8
0
100
AcDbLine
10
33.85568181818175
20
4.878409090909086
30
0
11
33.85568181818175
21
12.842135753063651
31
0
0
LINE
5
112
100
AcDbEntity
8
0
100
AcDbLine
10
-32.11401515151509
20
-4.0874020867515277
30
0
11
-32.11401515151509
21
-2.0610679478249594
31
0
0
ARC
5
113
100
AcDbEntity
8
0
100
AcDbCircle
10
-36.318181818181763
20
-14.113636363636349
30
0
40
12.764772727272716
210
0
220
-0
230
1
100
AcDbArc
50
70.770250113112638
51
109.2297498868874
0
LINE
5
114
100
AcDbEntity
8
0
100
AcDbLine
10
-40.522348484848436
20
-2.0610679478249616
30
0
11
-40.522348484848436
21
-4.087402086751533
31
0
0
LINE
5
115
100
AcDbEntity
8
0
100
AcDbLine
10
-40.522348484848436
20
-4.087402086751533
30
0
11
-40.219318181818139
21
-4.087402086751533
31
0
0
LINE
5
116
100
AcDbEntity
8
0
100
AcDbLine
10
-40.219318181818139
20
-4.087402086751533
30
0
11
-40.219318181818139
21
-14.076136363636344
31
0
0
LINE
5
117
100
AcDbEntity
8
0
100
AcDbLine
10
-40.219318181818139
20
-14.076136363636342
30
0
11
-45.235227272727208
21
-14.076136363636348
31
0
0
LINE
5
118
100
AcDbEntity
8
0
100
AcDbLine
10
-45.235227272727201
20
-14.076136363636348
30
0
11
-45.235227272727201
21
2.4393507297373063
31
0
0
LINE
5
119
100
AcDbEntity
8
0
100
AcDbLine
10
-45.235227272727201
20
2.439350729737304
30
0
11
-27.401136363636329
21
2.2397755853937777
31
0
0
LINE
5
120
100
AcDbEntity
8
0
100
AcDbLine
10
-27.401136363636329
20
2.2397755853937773
30
0
11
-27.401136363636311
21
-14.076136363636351
31
0
0
LINE
5
121
100
AcDbEntity
8
0
100
AcDbLine
10
-27.401136363636311
20
-14.076136363636349
30
0
11
-32.417045454545395
21
-14.076136363636344
31
0
0
LINE
5
122
100
AcDbEntity
8
0
100
AcDbLine
10
-32.417045454545395
20
-14.076136363636344
30
0
11
-32.417045454545395
21
-4.0874020867515313
31
0
0
LINE
5
123
100
AcDbEntity
8
0
100
AcDbLine
10
-32.417045454545395
20
-4.0874020867515304
30
0
11
-32.11401515151509
21
-4.0874020867515277
31
0
0
LINE
5
124
100
AcDbEntity
8
0
100
AcDbLine
10
14.355681818181756
20
4.8784090909090816
30
0
11
14.355681818181756
21
12.842135753063655
31
0
0
ARC
5
125
100
AcDbEntity
8
0
100
AcDbCircle
10
16.81818181818177
20
4.8409090909091024
30
0
40
8.3715909090908784
210
0
220
-0
230
1
100
AcDbArc
50
72.893450160890751
51
107.10654983910933
0
LINE
5
126
100
AcDbEntity
8
0
100
AcDbLine
10
19.280681818181769
20
12.842135753063664
30
0
11
19.280681818181755
21
4.8784090909090772
31
0
0
LINE
5
127
100
AcDbEntity
8
0
100
AcDbLine
10
19.280681818181755
20
4.8784090909090772
30
0
11
14.355681818181756
21
4.8784090909090816
31
0
0
LINE
5
128
100
AcDbEntity
8
0
100
AcDbLine
10
20.946590909090872
20
-14.076136363636344
30
0
11
20.946590909090872
21
-4.1511363636363621
31
0
0
LINE
5
129
100
AcDbEntity
8
0
100
AcDbLine
10
20.946590909090872
20
-4.151136363636363
30
0
11
21.249621212121184
21
-4.151136363636363
31
0
0
LINE
5
130
100
AcDbEntity
8
0
100
AcDbLine
10
21.249621212121184
20
-4.151136363636363
30
0
11
21.249621212121184
21
-2.1427647296755614
31
0
0
ARC
5
131
100
AcDbEntity
8
0
100
AcDbCircle
10
16.818181818181756
20
-14.11363636363637
30
0
40
12.764772727272733
210
0
220
-0
230
1
100
AcDbArc
50
69.686193909571273
51
110.31380609042846
0
LINE
5
132
100
AcDbEntity
8
0
100
AcDbLine
10
12.386742424242376
20
-2.1427647296755437
30
0
11
12.386742424242376
21
-4.1511363636363541
31
0
0
LINE
5
133
100
AcDbEntity
8
0
100
AcDbLine
10
12.386742424242376
20
-4.1511363636363541
30
0
11
12.689772727272688
21
-4.1511363636363541
31
0
0
LINE
5
134
100
AcDbEntity
8
0
100
AcDbLine
10
12.689772727272688
20
-4.1511363636363541
30
0
11
12.689772727272688
21
-14.076136363636348
31
0
0
LINE
5
135
100
AcDbEntity
8
0
100
AcDbLine
10
12.689772727272688
20
-14.076136363636348
30
0
11
4.1284090909090931
21
-14.076136363636348
31
0
0
LINE
5
136
100
AcDbEntity
8
0
100
AcDbLine
10
4.128409090909102
20
-14.076136363636344
30
0
11
4.1284090909091029
21
-4.1511363636363532
31
0
0
LINE
5
137
100
AcDbEntity
8
0
100
AcDbLine
10
4.128409090909102
20
-4.1511363636363541
30
0
11
4.4314393939394137
21
-4.1511363636363541
31
0
0
LINE
5
138
100
AcDbEntity
8
0
100
AcDbLine
10
4.4314393939394137
20
-4.1511363636363541
30
0
11
4.4314393939394137
21
-2.1427647296755614
31
0
0
ARC
5
139
100
AcDbEntity
8
0
100
AcDbCircle
10
8.8817841970012523e-15
20
-14.113636363636346
30
0
40
12.764772727272707
210
0
220
-0
230
1
100
AcDbArc
50
69.686193909571344
51
110.31380609042866
0
LINE
5
140
100
AcDbEntity
8
0
100
AcDbLine
10
-4.4314393939393959
20
-2.1427647296755548
30
0
11
-4.4314393939393781
21
-4.1511363636363541
31
0
0
LINE
5
141
100
AcDbEntity
8
0
100
AcDbLine
10
-4.4314393939393781
20
-4.1511363636363541
30
0
11
-4.1284090909090754
21
-4.1511363636363541
31
0
0
LINE
5
142
100
AcDbEntity
8
0
100
AcDbLine
10
-4.1284090909090754
20
-4.1511363636363541
30
0
11
-4.1284090909090763
21
-14.076136363636348
31
0
0
LINE
5
143
100
AcDbEntity
8
0
100
AcDbLine
10
-4.1284090909090754
20
-14.076136363636344
30
0
11
-12.689772727272697
21
-14.076136363636344
31
0
0
LINE
5
144
100
AcDbEntity
8
0
100
AcDbLine
10
-12.689772727272697
20
-14.076136363636344
30
0
11
-12.689772727272697
21
-4.1511363636363532
31
0
0
LINE
5
145
100
AcDbEntity
8
0
100
AcDbLine
10
-12.689772727272697
20
-4.1511363636363541
30
0
11
-12.386742424242394
21
-4.1511363636363541
31
0
0
LINE
5
146
100
AcDbEntity
8
0
100
AcDbLine
10
-12.386742424242394
20
-4.1511363636363541
30
0
11
-12.386742424242394
21
-2.1427647296755437
31
0
0
ARC
5
147
100
AcDbEntity
8
0
100
AcDbCircle
10
-16.818181818181756
20
-14.113636363636372
30
0
40
12.764772727272732
210
0
220
-0
230
1
100
AcDbArc
50
69.686193909571571
51
110.31380609042868
0
LINE
5
148
100
AcDbEntity
8
0
100
AcDbLine
10
-21.249621212121177
20
-2.1427647296755614
30
0
11
-21.24962121212117
21
-4.151136363636363
31
0
0
LINE
5
149
100
AcDbEntity
8
0
100
AcDbLine
10
-21.24962121212117
20
-4.151136363636363
30
0
11
-20.946590909090865
21
-4.151136363636363
31
0
0
LINE
5
150
100
AcDbEntity
8
0
100
AcDbLine
10
-20.946590909090865
20
-4.151136363636363
30
0
11
-20.946590909090865
21
-14.076136363636348
31
0
0
LINE
5
151
100
AcDbEntity
8
0
100
AcDbLine
10
-20.946590909090865
20
-14.076136363636348
30
0
11
-24.735227272727222
21
-14.076136363636348
31
0
0
LINE
5
152
100
AcDbEntity
8
0
100
AcDbLine
10
-24.735227272727222
20
-14.076136363636348
30
0
11
-24.735227272727222
21
2.4397727272727154
31
0
0
LINE
5
153
100
AcDbEntity
8
0
100
AcDbLine
10
-24.735227272727222
20
2.4397727272727132
30
0
11
24.735227272727229
21
2.4397727272727101
31
0
0
LINE
5
154
100
AcDbEntity
8
0
100
AcDbLine
10
24.735227272727222
20
2.4397727272727132
30
0
11
24.735227272727201
21
-14.076136363636344
31
0
0
LINE
5
155
100
AcDbEntity
8
0
100
AcDbLine
10
24.735227272727201
20
-14.076136363636344
30
0
11
20.946590909090872
21
-14.076136363636344
31
0
0
LINE
5
156
100
AcDbEntity
8
0
100
AcDbLine
10
-33.401136363636297
20
-14.076136363636349
30
0
11
-39.235227272727208
21
-14.076136363636349
31
0
0
LINE
5
157
100
AcDbEntity
8
0
100
AcDbLine
10
-33.401136363636319
20
-3.1695872617818832
30
0
11
-33.401136363636297
21
-14.076136363636349
31
0
0
ARC
5
158
100
AcDbEntity
8
0
100
AcDbCircle
10
-36.318181818181763
20
-14.113636363636349
30
0
40
11.326136363636355
210
0
220
-0
230
1
100
AcDbArc
50
75.075267725502883
51
104.92473227449716
0
LINE
5
159
100
AcDbEntity
8
0
100
AcDbLine
10
-39.235227272727215
20
-14.076136363636349
30
0
11
-39.235227272727215
21
-3.1695872617818899
31
0
0
LINE
5
160
100
AcDbEntity
8
0
100
AcDbLine
10
-19.280681818181762
20
4.8784090909090727
30
0
11
-19.280681818181769
21
12.842135753063655
31
0
0
LINE
5
161
100
AcDbEntity
8
0
100
AcDbLine
10
-14.355681818181756
20
4.8784090909090727
30
0
11
-19.280681818181762
21
4.8784090909090727
31
0
0
LINE
5
162
100
AcDbEntity
8
0
100
AcDbLine
10
-14.355681818181765
20
12.842135753063669
30
0
11
-14.355681818181756
21
4.8784090909090727
31
0
0
ARC
5
163
100
AcDbEntity
8
0
100
AcDbCircle
10
-16.818181818181756
20
4.8409090909090358
30
0
40
8.3715909090909442
210
0
220
-0
230
1
100
AcDbArc
50
72.89345016089095
51
107.10654983910922
0
ARC
5
164
100
AcDbEntity
8
0
100
AcDbCircle
10
-36.318181818181749
20
4.8409090909089958
30
0
40
8.3715909090909797
210
0
220
-0
230
1
100
AcDbArc
50
72.893450160891106
51
107.10654983910909
0
LINE
5
165
100
AcDbEntity
8
0
100
AcDbLine
10
-33.855681818181758
20
12.842135753063669
30
0
11
-33.855681818181758
21
4.8784090909090683
31
0
0
LINE
5
166
100
AcDbEntity
8
0
100
AcDbLine
10
-33.855681818181758
20
4.8784090909090683
30
0
11
-38.780681818181755
21
4.8784090909090683
31
0
0
LINE
5
167
100
AcDbEntity
8
0
100
AcDbLine
10
-38.780681818181762
20
4.8784090909090683
30
0
11
-38.780681818181762
21
12.842135753063658
31
0
0
LINE
5
168
100
AcDbEntity
8
0
100
AcDbLine
10
39.235227272727215
20
-14.076136363636348
30
0
11
33.401136363636319
21
-14.076136363636348
31
0
0
LINE
5
169
100
AcDbEntity
8
0
100
AcDbLine
10
39.235227272727215
20
-3.1695872617818921
30
0
11
39.235227272727215
21
-14.076136363636349
31
0
0
ARC
5
170
100
AcDbEntity
8
0
100
AcDbCircle
10
36.318181818181749
20
-14.113636363636301
30
0
40
11.32613636363631
210
0
220
-0
230
1
100
AcDbArc
50
75.075267725502712
51
104.92473227449715
0
LINE
5
171
100
AcDbEntity
8
0
100
AcDbLine
10
33.401136363636319
20
-14.076136363636348
30
0
11
33.401136363636319
21
-3.1695872617818788
31
0
0
LINE
5
172
100
AcDbEntity
8
0
100
AcDbLine
10
-3.1443181818181731
20
-18.167045454545427
30
0
11
-3.1443181818181545
21
-3.2327068032001938
31
0
0
LINE
5
173
100
AcDbEntity
8
0
100
AcDbLine
10
3.144318181818182
20
-18.167045454545427
30
0
11
-3.1443181818181731
21
-18.167045454545427
31
0
0
LINE
5
174
100
AcDbEntity
8
0
100
AcDbLine
10
3.144318181818182
20
-3.232706803200196
30
0
11
3.1443181818181811
21
-18.167045454545427
31
0
0
ARC
5
175
100
AcDbEntity
8
0
100
AcDbCircle
10
8.8817841970012523e-15
20
-14.113636363636346
30
0
40
11.326136363636346
210
0
220
-0
230
1
100
AcDbArc
50
73.882020518943662
51
106.11797948105625
0
ARC
5
176
100
AcDbEntity
8
0
100
AcDbCircle
10
0
20
4.8409090909090979
30
0
40
8.3715909090908998
210
0
220
-0
230
1
100
AcDbArc
50
72.893450160890808
51
107.10654983910908
0
LINE
5
177
100
AcDbEntity
8
0
100
AcDbLine
10
2.4624999999999986
20
12.842135753063687
30
0
11
2.4624999999999977
21
4.8784090909090727
31
0
0
LINE
5
178
100
AcDbEntity
8
0
100
AcDbLine
10
2.4624999999999986
20
4.8784090909090727
30
0
11
-2.4624999999999897
21
4.8784090909090772
31
0
0
LINE
5
179
100
AcDbEntity
8
0
100
AcDbLine
10
-2.4624999999999897
20
4.8784090909090727
30
0
11
-2.4624999999999888
21
12.842135753063687
31
0
0
ARC
5
180
100
AcDbEntity
8
0
100
AcDbCircle
10
36.318181818181749
20
-14.113636363636301
30
0
40
12.764772727272678
210
0
220
-0
230
1
100
AcDbArc
50
70.770250113112411
51
109.22974988688745
0
LINE
5
181
100
AcDbEntity
8
0
100
AcDbLine
10
32.114015151515083
20
-2.0610679478249527
30
0
11
32.114015151515069
21
-4.0874020867515215
31
0
0
LINE
5
182
100
AcDbEntity
8
0
100
AcDbLine
10
32.114015151515069
20
-4.0874020867515215
30
0
11
32.417045454545381
21
-4.0874020867515215
31
0
0
LINE
5
183
100
AcDbEntity
8
0
100
AcDbLine
10
32.417045454545381
20
-4.0874020867515215
30
0
11
32.417045454545381
21
-14.076136363636344
31
0
0
LINE
5
184
100
AcDbEntity
8
0
100
AcDbLine
10
32.417045454545381
20
-14.076136363636342
30
0
11
27.401136363636304
21
-14.076136363636348
31
0
0
LINE
5
185
100
AcDbEntity
8
0
100
AcDbLine
10
27.401136363636304
20
-14.076136363636348
30
0
11
27.401136363636319
21
2.4397727272727154
31
0
0
LINE
5
186
100
AcDbEntity
8
0
100
AcDbLine
10
27.401136363636319
20
2.4397727272727177
30
0
11
45.235227272727194
21
2.4397727272727181
31
0
0
LINE
5
187
100
AcDbEntity
8
0
100
AcDbLine
10
45.235227272727194
20
2.4397727272727177
30
0
11
45.235227272727194
21
-14.076136363636344
31
0
0
LINE
5
188
100
AcDbEntity
8
0
100
AcDbLine
10
45.235227272727194
20
-14.076136363636344
30
0
11
40.219318181818117
21
-14.076136363636344
31
0
0
LINE
5
189
100
AcDbEntity
8
0
100
AcDbLine
10
40.219318181818117
20
-14.076136363636344
30
0
11
40.219318181818132
21
-4.087402086751533
31
0
0
LINE
5
190
100
AcDbEntity
8
0
100
AcDbLine
10
40.219318181818132
20
-4.0874020867515348
30
0
11
40.522348484848443
21
-4.087402086751533
31
0
0
LINE
5
191
100
AcDbEntity
8
0
100
AcDbLine
10
40.522348484848443
20
-4.087402086751533
30
0
11
40.522348484848443
21
-2.0610679478249683
31
0
0
LINE
5
192
100
AcDbEntity
8
0
100
AcDbLine
10
-32.871590909090848
20
11.923191696661647
30
0
11
-32.568560606060544
21
11.923191696661654
31
0
0
LINE
5
193
100
AcDbEntity
8
0
100
AcDbLine
10
-32.568560606060544
20
11.923191696661654
30
0
11
-32.568560606060544
21
13.906277252664697
31
0
0
ARC
5
194
100
AcDbEntity
8
0
100
AcDbCircle
10
-36.318181818181749
20
4.8409090909089958
30
0
40
9.810227272727337
210
0
220
-0
230
1
100
AcDbArc
50
67.529014654970084
51
112.47098534503006
0
LINE
5
195
100
AcDbEntity
8
0
100
AcDbLine
10
-40.067803030302969
20
13.906277252664685
30
0
11
-40.067803030302976
21
11.923191696661654
31
0
0
LINE
5
196
100
AcDbEntity
8
0
100
AcDbLine
10
-40.067803030302976
20
11.923191696661654
30
0
11
-39.764772727272664
21
11.923191696661654
31
0
0
LINE
5
197
100
AcDbEntity
8
0
100
AcDbLine
10
-39.764772727272664
20
11.923191696661654
30
0
11
-39.764772727272664
21
3.6965909090908999
31
0
0
LINE
5
198
100
AcDbEntity
8
0
100
AcDbLine
10
-39.764772727272671
20
3.6965909090908977
30
0
11
-45.235227272727201
21
3.6965909090908888
31
0
0
LINE
5
199
100
AcDbEntity
8
0
100
AcDbLine
10
-45.235227272727201
20
3.6965909090908888
30
0
11
-45.235227272727201
21
16.121590909090877
31
0
0
LINE
5
200
100
AcDbEntity
8
0
100
AcDbLine
10
-45.235227272727201
20
16.12159090909088
30
0
11
-27.401136363636319
21
16.12159090909088
31
0
0
LINE
5
201
100
AcDbEntity
8
0
100
AcDbLine
10
-27.401136363636319
20
16.12159090909088
30
0
11
-27.401136363636311
21
3.6965909090908955
31
0
0
LINE
5
202
100
AcDbEntity
8
0
100
AcDbLine
10
-27.401136363636311
20
3.6965909090908933
30
0
11
-32.871590909090848
21
3.6965909090908888
31
0
0
LINE
5
203
100
AcDbEntity
8
0
100
AcDbLine
10
-32.871590909090848
20
3.6965909090908888
30
0
11
-32.871590909090848
21
11.923191696661643
31
0
0
LINE
5
204
100
AcDbEntity
8
0
100
AcDbLine
10
-3.7496212121211947
20
11.923191696661682
30
0
11
-3.4465909090908919
21
11.923191696661677
31
0
0
LINE
5
205
100
AcDbEntity
8
0
100
AcDbLine
10
-3.4465909090908919
20
11.923191696661677
30
0
11
-3.4465909090908924
21
3.6965909090908955
31
0
0
LINE
5
206
100
AcDbEntity
8
0
100
AcDbLine
10
-3.4465909090908919
20
3.6965909090908933
30
0
11
-13.371590909090854
21
3.6965909090908933
31
0
0
LINE
5
207
100
AcDbEntity
8
0
100
AcDbLine
10
-13.371590909090854
20
3.6965909090908933
30
0
11
-13.371590909090854
21
11.923191696661648
31
0
0
LINE
5
208
100
AcDbEntity
8
0
100
AcDbLine
10
-13.371590909090854
20
11.92319169666165
30
0
11
-13.068560606060551
21
11.923191696661654
31
0
0
LINE
5
209
100
AcDbEntity
8
0
100
AcDbLine
10
-13.068560606060551
20
11.923191696661654
30
0
11
-13.068560606060569
21
13.906277252664703
31
0
0
ARC
5
210
100
AcDbEntity
8
0
100
AcDbCircle
10
-16.818181818181756
20
4.8409090909090358
30
0
40
9.8102272727272979
210
0
220
-0
230
1
100
AcDbArc
50
67.529014654970069
51
112.47098534503027
0
LINE
5
211
100
AcDbEntity
8
0
100
AcDbLine
10
-20.567803030302994
20
13.90627725266468
30
0
11
-20.567803030302969
21
11.923191696661654
31
0
0
LINE
5
212
100
AcDbEntity
8
0
100
AcDbLine
10
-20.567803030302969
20
11.923191696661654
30
0
11
-20.264772727272664
21
11.923191696661654
31
0
0
LINE
5
213
100
AcDbEntity
8
0
100
AcDbLine
10
-20.264772727272664
20
11.923191696661654
30
0
11
-20.264772727272664
21
3.6965909090908999
31
0
0
LINE
5
214
100
AcDbEntity
8
0
100
AcDbLine
10
-20.264772727272664
20
3.6965909090908977
30
0
11
-24.735227272727222
21
3.6965909090908888
31
0
0
LINE
5
215
100
AcDbEntity
8
0
100
AcDbLine
10
-24.735227272727222
20
3.6965909090908888
30
0
11
-24.735227272727222
21
16.121590909090873
31
0
0
LINE
5
216
100
AcDbEntity
8
0
100
AcDbLine
10
-24.735227272727222
20
16.121590909090877
30
0
11
-5.8458961770997231
21
16.121590909090884
31
0
0
LINE
5
217
100
AcDbEntity
8
0
100
AcDbLine
10
-5.8458961770997231
20
16.121590909090884
30
0
11
-5.845896177099732
21
16.279229691723597
31
0
0
LINE
5
218
100
AcDbEntity
8
0
100
AcDbLine
10
-5.845896177099732
20
16.279229691723597
30
0
11
5.8458961770997497
21
16.279229691723597
31
0
0
LINE
5
219
100
AcDbEntity
8
0
100
AcDbLine
10
5.8458961770997409
20
16.2792296917236
30
0
11
5.8458961770997409
21
16.121590909090887
31
0
0
LINE
5
220
100
AcDbEntity
8
0
100
AcDbLine
10
5.8458961770997409
20
16.121590909090887
30
0
11
24.735227272727236
21
16.121590909090887
31
0
0
LINE
5
221
100
AcDbEntity
8
0
100
AcDbLine
10
24.735227272727236
20
16.121590909090887
30
0
11
24.735227272727236
21
3.6965909090908999
31
0
0
LINE
5
222
100
AcDbEntity
8
0
100
AcDbLine
10
24.735227272727236
20
3.6965909090908977
30
0
11
20.264772727272693
21
3.6965909090908977
31
0
0
LINE
5
223
100
AcDbEntity
8
0
100
AcDbLine
10
20.264772727272693
20
3.6965909090908977
30
0
11
20.264772727272693
21
11.923191696661652
31
0
0
LINE
5
224
100
AcDbEntity
8
0
100
AcDbLine
10
20.264772727272693
20
11.923191696661654
30
0
11
20.567803030303004
21
11.923191696661654
31
0
0
LINE
5
225
100
AcDbEntity
8
0
100
AcDbLine
10
20.567803030303004
20
11.923191696661654
30
0
11
20.567803030303018
21
13.906277252664676
31
0
0
ARC
5
226
100
AcDbEntity
8
0
100
AcDbCircle
10
16.81818181818177
20
4.8409090909091024
30
0
40
9.8102272727272375
210
0
220
-0
230
1
100
AcDbArc
50
67.529014654969529
51
112.47098534503016
0
LINE
5
227
100
AcDbEntity
8
0
100
AcDbLine
10
13.068560606060577
20
13.906277252664697
30
0
11
13.068560606060542
21
11.923191696661664
31
0
0
LINE
5
228
100
AcDbEntity
8
0
100
AcDbLine
10
13.068560606060542
20
11.923191696661664
30
0
11
13.371590909090854
21
11.923191696661664
31
0
0
LINE
5
229
100
AcDbEntity
8
0
100
AcDbLine
10
13.371590909090854
20
11.923191696661664
30
0
11
13.371590909090854
21
3.6965909090909044
31
0
0
LINE
5
230
100
AcDbEntity
8
0
100
AcDbLine
10
13.371590909090854
20
3.6965909090909022
30
0
11
3.4465909090909097
21
3.6965909090908977
31
0
0
LINE
5
231
100
AcDbEntity
8
0
100
AcDbLine
10
3.4465909090909186
20
3.6965909090908977
30
0
11
3.446590909090919
21
11.923191696661679
31
0
0
LINE
5
232
100
AcDbEntity
8
0
100
AcDbLine
10
3.4465909090909186
20
11.923191696661682
30
0
11
3.7496212121212302
21
11.923191696661682
31
0
0
LINE
5
233
100
AcDbEntity
8
0
100
AcDbLine
10
3.7496212121212302
20
11.923191696661682
30
0
11
3.7496212121212302
21
13.906277252664715
31
0
0
ARC
5
234
100
AcDbEntity
8
0
100
AcDbCircle
10
0
20
4.8409090909090979
30
0
40
9.8102272727272659
210
0
220
-0
230
1
100
AcDbArc
50
67.5290146549697
51
112.47098534503006
0
LINE
5
235
100
AcDbEntity
8
0
100
AcDbLine
10
-3.7496212121211947
20
13.906277252664729
30
0
11
-3.7496212121211947
21
11.923191696661682
31
0
0
LINE
5
236
100
AcDbEntity
8
0
100
AcDbLine
10
39.76477272727265
20
3.6965909090908977
30
0
11
39.764772727272664
21
11.923191696661652
31
0
0
LINE
5
237
100
AcDbEntity
8
0
100
AcDbLine
10
39.764772727272664
20
11.923191696661654
30
0
11
40.067803030302976
21
11.923191696661654
31
0
0
LINE
5
238
100
AcDbEntity
8
0
100
AcDbLine
10
40.067803030302976
20
11.923191696661654
30
0
11
40.067803030302976
21
13.906277252664756
31
0
0
ARC
5
239
100
AcDbEntity
8
0
100
AcDbCircle
10
36.318181818181749
20
4.8409090909090713
30
0
40
9.8102272727273316
210
0
220
-0
230
1
100
AcDbArc
50
67.529014654969885
51
112.4709853450301
0
LINE
5
240
100
AcDbEntity
8
0
100
AcDbLine
10
32.568560606060515
20
13.906277252664761
30
0
11
32.568560606060537
21
11.923191696661659
31
0
0
LINE
5
241
100
AcDbEntity
8
0
100
AcDbLine
10
32.568560606060537
20
11.923191696661659
30
0
11
32.871590909090848
21
11.923191696661664
31
0
0
LINE
5
242
100
AcDbEntity
8
0
100
AcDbLine
10
32.871590909090848
20
11.923191696661664
30
0
11
32.871590909090848
21
3.6965909090909044
31
0
0
LINE
5
243
100
AcDbEntity
8
0
100
AcDbLine
10
32.871590909090848
20
3.6965909090909022
30
0
11
27.401136363636304
21
3.6965909090908977
31
0
0
LINE
5
244
100
AcDbEntity
8
0
100
AcDbLine
10
27.401136363636304
20
3.6965909090908977
30
0
11
27.401136363636319
21
16.121590909090887
31
0
0
LINE
5
245
100
AcDbEntity
8
0
100
AcDbLine
10
27.401136363636319
20
16.121590909090887
30
0
11
45.235227272727194
21
16.121590909090887
31
0
0
LINE
5
246
100
AcDbEntity
8
0
100
AcDbLine
10
45.235227272727194
20
16.121590909090887
30
0
11
45.235227272727194
21
3.6965909090908999
31
0
0
LINE
5
247
100
AcDbEntity
8
0
100
AcDbLine
10
45.235227272727194
20
3.6965909090908977
30
0
11
39.76477272727265
21
3.6965909090908977
31
0
0
LINE
5
248
100
AcDbEntity
8
0
100
AcDbLine
10
16.505681818181792
20
19.60568181818179
30
0
11
7.8806818181818006
21
19.60568181818179
31
0
0
LINE
5
249
100
AcDbEntity
8
0
100
AcDbLine
10
7.8806818181818006
20
19.60568181818179
30
0
11
7.8806818181817828
21
17.796590909090884
31
0
0
LINE
5
250
100
AcDbEntity
8
0
100
AcDbLine
10
7.8806818181817828
20
17.796590909090884
30
0
11
7.2556818181817828
21
17.796590909090884
31
0
0
LINE
5
251
100
AcDbEntity
8
0
100
AcDbLine
10
7.2556818181817828
20
17.796590909090884
30
0
11
7.2556818181817828
21
19.60568181818179
31
0
0
LINE
5
252
100
AcDbEntity
8
0
100
AcDbLine
10
7.2556818181817828
20
19.60568181818179
30
0
11
-7.2556818181818183
21
19.60568181818179
31
0
0
LINE
5
253
100
AcDbEntity
8
0
100
AcDbLine
10
-7.2556818181818095
20
19.605681818181786
30
0
11
-7.2556818181817917
21
17.796590909090884
31
0
0
LINE
5
254
100
AcDbEntity
8
0
100
AcDbLine
10
-7.2556818181817917
20
17.796590909090884
30
0
11
-7.8806818181817917
21
17.796590909090884
31
0
0
LINE
5
255
100
AcDbEntity
8
0
100
AcDbLine
10
-7.8806818181817917
20
17.796590909090884
30
0
11
-7.8806818181817828
21
19.60568181818179
31
0
0
LINE
5
256
100
AcDbEntity
8
0
100
AcDbLine
10
-7.8806818181817828
20
19.60568181818179
30
0
11
-16.505681818181781
21
19.60568181818179
31
0
0
LINE
5
257
100
AcDbEntity
8
0
100
AcDbLine
10
-16.505681818181781
20
19.60568181818179
30
0
11
-16.505681818181781
21
17.796590909090884
31
0
0
LINE
5
258
100
AcDbEntity
8
0
100
AcDbLine
10
-16.505681818181781
20
17.796590909090884
30
0
11
-17.130681818181781
21
17.796590909090884
31
0
0
LINE
5
259
100
AcDbEntity
8
0
100
AcDbLine
10
-17.130681818181781
20
17.796590909090884
30
0
11
-17.130681818181781
21
19.60568181818179
31
0
0
LINE
5
260
100
AcDbEntity
8
0
100
AcDbLine
10
-17.130681818181781
20
19.60568181818179
30
0
11
-25.75568181818177
21
19.60568181818179
31
0
0
LINE
5
261
100
AcDbEntity
8
0
100
AcDbLine
10
-25.75568181818177
20
19.60568181818179
30
0
11
-25.75568181818177
21
17.796590909090884
31
0
0
LINE
5
262
100
AcDbEntity
8
0
100
AcDbLine
10
-25.75568181818177
20
17.796590909090884
30
0
11
-26.38068181818177
21
17.796590909090884
31
0
0
LINE
5
263
100
AcDbEntity
8
0
100
AcDbLine
10
-26.38068181818177
20
17.796590909090884
30
0
11
-26.38068181818177
21
19.60568181818179
31
0
0
LINE
5
264
100
AcDbEntity
8
0
100
AcDbLine
10
-26.38068181818177
20
19.60568181818179
30
0
11
-36.005681818181749
21
19.60568181818179
31
0
0
LINE
5
265
100
AcDbEntity
8
0
100
AcDbLine
10
-36.005681818181749
20
19.60568181818179
30
0
11
-36.005681818181763
21
17.796590909090884
31
0
0
LINE
5
266
100
AcDbEntity
8
0
100
AcDbLine
10
-36.005681818181763
20
17.796590909090884
30
0
11
-36.630681818181763
21
17.796590909090884
31
0
0
LINE
5
267
100
AcDbEntity
8
0
100
AcDbLine
10
-36.630681818181763
20
17.796590909090884
30
0
11
-36.630681818181763
21
19.60568181818179
31
0
0
LINE
5
268
100
AcDbEntity
8
0
100
AcDbLine
10
-36.630681818181763
20
19.60568181818179
30
0
11
-46.191761058720509
21
19.60568181818179
31
0
0
LINE
5
269
100
AcDbEntity
8
0
100
AcDbLine
10
-46.191761058720502
20
19.60568181818179
30
0
11
-46.191761058720516
21
17.796590909090884
31
0
0
LINE
5
270
100
AcDbEntity
8
0
100
AcDbLine
10
-46.191761058720516
20
17.796590909090884
30
0
11
-46.816761058720516
21
17.796590909090884
31
0
0
LINE
5
271
100
AcDbEntity
8
0
100
AcDbLine
10
-46.816761058720516
20
17.796590909090884
30
0
11
-46.816761058720502
21
19.60568181818179
31
0
0
LINE
5
272
100
AcDbEntity
8
0
100
AcDbLine
10
-46.816761058720502
20
19.60568181818179
30
0
11
-47.901136363636297
21
19.60568181818179
31
0
0
LINE
5
273
100
AcDbEntity
8
0
100
AcDbLine
10
-47.901136363636297
20
19.60568181818179
30
0
11
-47.901136363636311
21
14.947358646038008
31
0
0
LINE
5
274
100
AcDbEntity
8
0
100
AcDbLine
10
-47.901136363636297
20
14.947358646038008
30
0
11
-48.6011363636363
21
14.947358646038008
31
0
0
LINE
5
275
100
AcDbEntity
8
0
100
AcDbLine
10
-48.6011363636363
20
14.947358646038008
30
0
11
-48.6011363636363
21
4.8723586460380197
31
0
0
LINE
5
276
100
AcDbEntity
8
0
100
AcDbLine
10
-48.6011363636363
20
4.8723586460380197
30
0
11
-47.90113636363629
21
4.8723586460380153
31
0
0
LINE
5
277
100
AcDbEntity
8
0
100
AcDbLine
10
-47.90113636363629
20
4.8723586460380153
30
0
11
-47.90113636363629
21
-4.4755775666583064
31
0
0
LINE
5
278
100
AcDbEntity
8
0
100
AcDbLine
10
-47.901136363636297
20
-4.4755775666583091
30
0
11
-48.601136363636314
21
-4.475577566658302
31
0
0
LINE
5
279
100
AcDbEntity
8
0
100
AcDbLine
10
-48.6011363636363
20
-4.475577566658302
30
0
11
-48.6011363636363
21
-12.550577566658291
31
0
0
LINE
5
280
100
AcDbEntity
8
0
100
AcDbLine
10
-48.6011363636363
20
-12.550577566658291
30
0
11
-47.901136363636297
21
-12.550577566658292
31
0
0
LINE
5
281
100
AcDbEntity
8
0
100
AcDbLine
10
-47.901136363636297
20
-12.550577566658292
30
0
11
-47.901136363636297
21
-19.60568181818179
31
0
0
LINE
5
282
100
AcDbEntity
8
0
100
AcDbLine
10
-47.901136363636297
20
-19.60568181818179
30
0
11
-24.377926412809153
21
-19.60568181818179
31
0
0
LINE
5
283
100
AcDbEntity
8
0
100
AcDbLine
10
-24.377926412809153
20
-19.60568181818179
30
0
11
-24.377926412809146
21
-18.90568181818179
31
0
0
LINE
5
284
100
AcDbEntity
8
0
100
AcDbLine
10
-24.377926412809146
20
-18.90568181818179
30
0
11
-21.452926412809159
21
-18.90568181818179
31
0
0
LINE
5
285
100
AcDbEntity
8
0
100
AcDbLine
10
-21.452926412809159
20
-18.90568181818179
30
0
11
-21.452926412809148
21
-19.60568181818179
31
0
0
LINE
5
286
100
AcDbEntity
8
0
100
AcDbLine
10
-21.452926412809148
20
-19.60568181818179
30
0
11
21.452926412809177
21
-19.60568181818179
31
0
0
LINE
5
287
100
AcDbEntity
8
0
100
AcDbLine
10
21.45292641280917
20
-19.605681818181786
30
0
11
21.452926412809148
21
-18.905681818181787
31
0
0
LINE
5
288
100
AcDbEntity
8
0
100
AcDbLine
10
21.452926412809148
20
-18.905681818181787
30
0
11
24.377926412809138
21
-18.905681818181787
31
0
0
LINE
5
289
100
AcDbEntity
8
0
100
AcDbLine
10
24.377926412809138
20
-18.905681818181787
30
0
11
24.377926412809138
21
-19.605681818181786
31
0
0
LINE
5
290
100
AcDbEntity
8
0
100
AcDbLine
10
24.377926412809138
20
-19.605681818181786
30
0
11
47.90113636363629
21
-19.605681818181786
31
0
0
LINE
5
291
100
AcDbEntity
8
0
100
AcDbLine
10
47.90113636363629
20
-19.605681818181786
30
0
11
47.90113636363629
21
-12.550577566658287
31
0
0
LINE
5
292
100
AcDbEntity
8
0
100
AcDbLine
10
47.90113636363629
20
-12.550577566658291
30
0
11
48.601136363636293
21
-12.550577566658287
31
0
0
LINE
5
293
100
AcDbEntity
8
0
100
AcDbLine
10
48.601136363636293
20
-12.550577566658287
30
0
11
48.601136363636293
21
-4.4755775666582975
31
0
0
LINE
5
294
100
AcDbEntity
8
0
100
AcDbLine
10
48.601136363636293
20
-4.4755775666582975
30
0
11
47.90113636363629
21
-4.4755775666583002
31
0
0
LINE
5
295
100
AcDbEntity
8
0
100
AcDbLine
10
47.90113636363629
20
-4.4755775666583002
30
0
11
47.90113636363629
21
4.8723586460380215
31
0
0
LINE
5
296
100
AcDbEntity
8
0
100
AcDbLine
10
47.90113636363629
20
4.8723586460380242
30
0
11
48.601136363636293
21
4.8723586460380242
31
0
0
LINE
5
297
100
AcDbEntity
8
0
100
AcDbLine
10
48.601136363636293
20
4.8723586460380242
30
0
11
48.601136363636293
21
14.947358646038014
31
0
0
LINE
5
298
100
AcDbEntity
8
0
100
AcDbLine
10
48.601136363636293
20
14.947358646038014
30
0
11
47.90113636363629
21
14.947358646038008
31
0
0
LINE
5
299
100
AcDbEntity
8
0
100
AcDbLine
10
47.90113636363629
20
14.947358646038008
30
0
11
47.90113636363629
21
19.605681818181793
31
0
0
LINE
5
300
100
AcDbEntity
8
0
100
AcDbLine
10
47.90113636363629
20
19.605681818181793
30
0
11
46.816761058720509
21
19.60568181818179
31
0
0
LINE
5
301
100
AcDbEntity
8
0
100
AcDbLine
10
46.816761058720509
20
19.60568181818179
30
0
11
46.816761058720509
21
17.796590909090884
31
0
0
LINE
5
302
100
AcDbEntity
8
0
100
AcDbLine
10
46.816761058720509
20
17.796590909090884
30
0
11
46.191761058720509
21
17.796590909090884
31
0
0
LINE
5
303
100
AcDbEntity
8
0
100
AcDbLine
10
46.191761058720509
20
17.796590909090884
30
0
11
46.191761058720509
21
19.60568181818179
31
0
0
LINE
5
304
100
AcDbEntity
8
0
100
AcDbLine
10
46.191761058720509
20
19.60568181818179
30
0
11
36.630681818181749
21
19.60568181818179
31
0
0
LINE
5
305
100
AcDbEntity
8
0
100
AcDbLine
10
36.630681818181749
20
19.60568181818179
30
0
11
36.630681818181749
21
17.796590909090884
31
0
0
LINE
5
306
100
AcDbEntity
8
0
100
AcDbLine
10
36.630681818181749
20
17.796590909090884
30
0
11
36.005681818181749
21
17.796590909090884
31
0
0
LINE
5
307
100
AcDbEntity
8
0
100
AcDbLine
10
36.005681818181749
20
17.796590909090884
30
0
11
36.005681818181749
21
19.60568181818179
31
0
0
LINE
5
308
100
AcDbEntity
8
0
100
AcDbLine
10
36.005681818181749
20
19.60568181818179
30
0
11
26.380681818181777
21
19.60568181818179
31
0
0
LINE
5
309
100
AcDbEntity
8
0
100
AcDbLine
10
26.380681818181777
20
19.60568181818179
30
0
11
26.380681818181777
21
17.796590909090884
31
0
0
LINE
5
310
100
AcDbEntity
8
0
100
AcDbLine
10
26.380681818181777
20
17.796590909090884
30
0
11
25.755681818181777
21
17.796590909090884
31
0
0
LINE
5
311
100
AcDbEntity
8
0
100
AcDbLine
10
25.755681818181777
20
17.796590909090884
30
0
11
25.755681818181777
21
19.60568181818179
31
0
0
LINE
5
312
100
AcDbEntity
8
0
100
AcDbLine
10
25.755681818181777
20
19.60568181818179
30
0
11
17.130681818181792
21
19.60568181818179
31
0
0
LINE
5
313
100
AcDbEntity
8
0
100
AcDbLine
10
17.130681818181792
20
19.60568181818179
30
0
11
17.130681818181792
21
17.796590909090884
31
0
0
LINE
5
314
100
AcDbEntity
8
0
100
AcDbLine
10
17.130681818181792
20
17.796590909090884
30
0
11
16.505681818181792
21
17.796590909090884
31
0
0
LINE
5
315
100
AcDbEntity
8
0
100
AcDbLine
10
16.505681818181792
20
17.796590909090884
30
0
11
16.505681818181792
21
19.60568181818179
31
0
0
ENDSEC
0
SECTION
2
OBJECTS
0
DICTIONARY
5
C
100
AcDbDictionary
3
ACAD_GROUP
350
D
3
ACAD_MLINESTYLE
350
17
0
DICTIONARY
5
D
100
AcDbDictionary
0
DICTIONARY
5
1A
330
C
100
AcDbDictionary
0
DICTIONARY
5
17
100
AcDbDictionary
0
ENDSEC
0
EOF
