0
SECTION
2
HEADER
9
$INSUNITS
70
4
9
$ACADVER
1
AC1014
9
$HANDSEED
5
FFFF
0
ENDSEC
0
SECTION
2
TABLES
0
TABLE
2
VPORT
5
8
100
AcDbSymbolTable
0
ENDTAB
0
TABLE
2
LTYPE
5
5
100
AcDbSymbolTable
0
LTYPE
5
14
100
AcDbSymbolTableRecord
100
AcDbLinetypeTableRecord
2
BYBLOCK
70
0
0
LTYPE
5
15
100
AcDbSymbolTableRecord
100
AcDbLinetypeTableRecord
2
BYLAYER
70
0
0
ENDTAB
0
TABLE
2
LAYER
5
2
100
AcDbSymbolTable
70
2
0
LAYER
5
50
100
AcDbSymbolTableRecord
100
AcDbLayerTableRecord
2
0
70
0
6
CONTINUOUS
0
ENDTAB
0
TABLE
2
STYLE
5
3
100
AcDbSymbolTable
70
1
0
STYLE
5
11
100
AcDbSymbolTableRecord
100
AcDbTextStyleTableRecord
2
STANDARD
70
0
0
ENDTAB
0
TABLE
2
VIEW
5
6
100
AcDbSymbolTable
70
0
0
ENDTAB
0
TABLE
2
UCS
5
7
100
AcDbSymbolTable
70
0
0
ENDTAB
0
TABLE
2
APPID
5
9
100
AcDbSymbolTable
70
2
0
APPID
5
12
100
AcDbSymbolTableRecord
100
AcDbRegAppTableRecord
2
ACAD
70
0
0
ENDTAB
0
TABLE
2
DIMSTYLE
5
A
100
AcDbSymbolTable
70
1
0
ENDTAB
0
TABLE
2
BLOCK_RECORD
5
1
100
AcDbSymbolTable
70
1
0
BLOCK_RECORD
5
1F
100
AcDbSymbolTableRecord
100
AcDbBlockTableRecord
2
*MODEL_SPACE
0
BLOCK_RECORD
5
1B
100
AcDbSymbolTableRecord
100
AcDbBlockTableRecord
2
*PAPER_SPACE
0
ENDTAB
0
ENDSEC
0
SECTION
2
BLOCKS
0
BLOCK
5
20
100
AcDbEntity
100
AcDbBlockBegin
2
*MODEL_SPACE
0
ENDBLK
5
21
100
AcDbEntity
100
AcDbBlockEnd
0
BLOCK
5
1C
100
AcDbEntity
100
AcDbBlockBegin
2
*PAPER_SPACE
0
ENDBLK
5
1D
100
AcDbEntity
100
AcDbBlockEnd
0
ENDSEC
0
SECTION
2
ENTITIES
0
LINE
5
100
100
AcDbEntity
8
0
100
AcDbLine
10
18.141100390205665
20
-16.328409090909105
30
0
11
18.141100390205665
21
-11.964772727272738
31
0
0
LINE
5
101
100
AcDbEntity
8
0
100
AcDbLine
10
18.141100390205665
20
-11.964772727272738
30
0
11
5.7711227725988383
21
-11.964772727272742
31
0
0
ARC
5
102
100
AcDbEntity
8
0
100
AcDbCircle
10
13.659090909090615
20
-9.6545454545454632
30
0
40
8.2193181818179148
210
0
220
0
230
1
100
AcDbArc
50
163.67575319473809
51
196.32424680526199
0
LINE
5
103
100
AcDbEntity
8
0
100
AcDbLine
10
5.7711227725988294
20
-7.3443181818182035
30
0
11
18.141100390205665
21
-7.3443181818181804
31
0
0
LINE
5
104
100
AcDbEntity
8
0
100
AcDbLine
10
18.141100390205665
20
-7.3443181818181813
30
0
11
18.141100390205672
21
16.328409090909091
31
0
0
LINE
5
105
100
AcDbEntity
8
0
100
AcDbLine
10
18.141100390205672
20
16.328409090909091
30
0
11
18.24204545454544
21
16.328409090909091
31
0
0
LINE
5
106
100
AcDbEntity
8
0
100
AcDbLine
10
18.24204545454544
20
16.328409090909091
30
0
11
18.24204545454543
21
-16.328409090909105
31
0
0
LINE
5
107
100
AcDbEntity
8
0
100
AcDbLine
10
18.24204545454543
20
-16.328409090909105
30
0
11
18.141100390205665
21
-16.328409090909105
31
0
0
LINE
5
108
100
AcDbEntity
8
0
100
AcDbLine
10
-2.4397727272727177
20
-5.7193181818181893
30
0
11
-0.62159090909089665
21
-5.7193181818181893
31
0
0
LINE
5
109
100
AcDbEntity
8
0
100
AcDbLine
10
-0.62159090909089665
20
-5.7193181818181893
30
0
11
-0.62159090909088999
21
5.7193181818181804
31
0
0
LINE
5
110
100
AcDbEntity
8
0
100
AcDbLine
10
-0.62159090909088777
20
5.7193181818181849
30
0
11
-2.4397727272727043
21
5.7193181818181937
31
0
0
LINE
5
111
100
AcDbEntity
8
0
100
AcDbLine
10
-2.4397727272727043
20
5.7193181818181937
30
0
11
-2.439772727272707
21
16.253409090909088
31
0
0
LINE
5
112
100
AcDbEntity
8
0
100
AcDbLine
10
-2.4397727272727088
20
16.253409090909088
30
0
11
14.092453572479984
21
16.253409090909091
31
0
0
LINE
5
113
100
AcDbEntity
8
0
100
AcDbLine
10
14.092453572479986
20
16.253409090909088
30
0
11
14.092453572479982
21
12.659159850702677
31
0
0
LINE
5
114
100
AcDbEntity
8
0
100
AcDbLine
10
14.092453572479979
20
12.659159850702677
30
0
11
4.8090647531820778
21
12.659159850702677
31
0
0
ARC
5
115
100
AcDbEntity
8
0
100
AcDbCircle
10
13.659090909090894
20
8.9835571980786177
30
0
40
9.5829545454545091
210
0
220
0
230
1
100
AcDbArc
50
157.44585678075376
51
202.5541432192461
0
LINE
5
116
100
AcDbEntity
8
0
100
AcDbLine
10
4.8090647531820689
20
5.3079545454545762
30
0
11
14.092453572479979
21
5.3079545454545594
31
0
0
LINE
5
117
100
AcDbEntity
8
0
100
AcDbLine
10
14.092453572479977
20
5.3079545454545585
30
0
11
14.092453572479975
21
-6.435227272727273
31
0
0
LINE
5
118
100
AcDbEntity
8
0
100
AcDbLine
10
14.092453572479977
20
-6.435227272727273
30
0
11
4.6330725031456499
21
-6.4352272727272783
31
0
0
ARC
5
119
100
AcDbEntity
8
0
100
AcDbCircle
10
13.659090909090615
20
-9.6545454545454632
30
0
40
9.5829545454542586
210
0
220
0
230
1
100
AcDbArc
50
160.37016131044354
51
199.62983868955638
0
LINE
5
120
100
AcDbEntity
8
0
100
AcDbLine
10
4.6330725031456392
20
-12.873863636363634
30
0
11
14.092453572479972
21
-12.873863636363648
31
0
0
LINE
5
121
100
AcDbEntity
8
0
100
AcDbLine
10
14.092453572479977
20
-12.873863636363648
30
0
11
14.092453572479975
21
-16.253409090909102
31
0
0
LINE
5
122
100
AcDbEntity
8
0
100
AcDbLine
10
14.092453572479972
20
-16.253409090909102
30
0
11
-2.4397727272727154
21
-16.253409090909102
31
0
0
LINE
5
123
100
AcDbEntity
8
0
100
AcDbLine
10
-2.4397727272727132
20
-16.253409090909106
30
0
11
-2.4397727272727159
21
-5.7193181818181893
31
0
0
LINE
5
124
100
AcDbEntity
8
0
100
AcDbLine
10
13.621590909090893
20
6.2920454545454696
30
0
11
5.9723696847249963
21
6.2920454545454687
31
0
0
ARC
5
125
100
AcDbEntity
8
0
100
AcDbCircle
10
13.659090909090894
20
8.9835571980786177
30
0
40
8.1443181818181678
210
0
220
0
230
1
100
AcDbArc
50
160.70225581135549
51
199.29774418864451
0
LINE
5
126
100
AcDbEntity
8
0
100
AcDbLine
10
5.9723696847249954
20
11.675068941611757
30
0
11
13.621590909090893
21
11.675068941611766
31
0
0
LINE
5
127
100
AcDbEntity
8
0
100
AcDbLine
10
13.621590909090894
20
11.675068941611766
30
0
11
13.621590909090894
21
6.2920454545454696
31
0
0
LINE
5
128
100
AcDbEntity
8
0
100
AcDbLine
10
-16.12159090909088
20
16.253409090909088
30
0
11
-3.6965909090908933
21
16.253409090909091
31
0
0
LINE
5
129
100
AcDbEntity
8
0
100
AcDbLine
10
-3.6965909090908933
20
16.253409090909088
30
0
11
-3.696590909090895
21
-16.253409090909102
31
0
0
LINE
5
130
100
AcDbEntity
8
0
100
AcDbLine
10
-3.6965909090908933
20
-16.253409090909106
30
0
11
-16.12159090909088
21
-16.253409090909109
31
0
0
LINE
5
131
100
AcDbEntity
8
0
100
AcDbLine
10
-16.12159090909088
20
-16.253409090909106
30
0
11
-16.12159090909088
21
16.253409090909084
31
0
0
LINE
5
132
100
AcDbEntity
8
0
100
AcDbLine
10
-19.605681818181793
20
16.923863636363627
30
0
11
-19.60568181818179
21
6.0579545454545247
31
0
0
LINE
5
133
100
AcDbEntity
8
0
100
AcDbLine
10
-19.60568181818179
20
6.0579545454545247
30
0
11
-17.796590909090877
21
6.0579545454545247
31
0
0
LINE
5
134
100
AcDbEntity
8
0
100
AcDbLine
10
-17.796590909090877
20
6.0579545454545336
30
0
11
-17.796590909090874
21
5.4329545454545425
31
0
0
LINE
5
135
100
AcDbEntity
8
0
100
AcDbLine
10
-17.796590909090874
20
5.4329545454545425
30
0
11
-19.605681818181782
21
5.4329545454545425
31
0
0
LINE
5
136
100
AcDbEntity
8
0
100
AcDbLine
10
-19.605681818181782
20
5.4329545454545336
30
0
11
-19.60568181818179
21
-5.4329545454545602
31
0
0
LINE
5
137
100
AcDbEntity
8
0
100
AcDbLine
10
-19.605681818181793
20
-5.4329545454545558
30
0
11
-17.796590909090881
21
-5.4329545454545514
31
0
0
LINE
5
138
100
AcDbEntity
8
0
100
AcDbLine
10
-17.796590909090881
20
-5.4329545454545514
30
0
11
-17.796590909090877
21
-6.0579545454545469
31
0
0
LINE
5
139
100
AcDbEntity
8
0
100
AcDbLine
10
-17.796590909090877
20
-6.0579545454545469
30
0
11
-19.60568181818179
21
-6.0579545454545469
31
0
0
LINE
5
140
100
AcDbEntity
8
0
100
AcDbLine
10
-19.60568181818179
20
-6.0579545454545469
30
0
11
-19.605681818181793
21
-16.923863636363659
31
0
0
LINE
5
141
100
AcDbEntity
8
0
100
AcDbLine
10
-19.605681818181793
20
-16.923863636363659
30
0
11
-17.796590909090881
21
-16.923863636363659
31
0
0
LINE
5
142
100
AcDbEntity
8
0
100
AcDbLine
10
-17.796590909090881
20
-16.923863636363659
30
0
11
-17.796590909090884
21
-17.548863636363656
31
0
0
LINE
5
143
100
AcDbEntity
8
0
100
AcDbLine
10
-17.796590909090884
20
-17.548863636363656
30
0
11
-19.605681818181797
21
-17.548863636363656
31
0
0
LINE
5
144
100
AcDbEntity
8
0
100
AcDbLine
10
-19.605681818181797
20
-17.548863636363656
30
0
11
-19.605681818181793
21
-18.919318181818198
31
0
0
LINE
5
145
100
AcDbEntity
8
0
100
AcDbLine
10
-19.605681818181793
20
-18.919318181818198
30
0
11
-14.872358646038009
21
-18.919318181818198
31
0
0
LINE
5
146
100
AcDbEntity
8
0
100
AcDbLine
10
-14.872358646038009
20
-18.919318181818198
30
0
11
-14.872358646038009
21
-18.219318181818199
31
0
0
LINE
5
147
100
AcDbEntity
8
0
100
AcDbLine
10
-14.872358646038009
20
-18.219318181818199
30
0
11
-4.9473586460380243
21
-18.219318181818196
31
0
0
LINE
5
148
100
AcDbEntity
8
0
100
AcDbLine
10
-4.9473586460380243
20
-18.219318181818199
30
0
11
-4.9473586460380297
21
-18.919318181818198
31
0
0
LINE
5
149
100
AcDbEntity
8
0
100
AcDbLine
10
-4.9473586460380297
20
-18.919318181818198
30
0
11
4.5505775666582959
21
-18.919318181818198
31
0
0
LINE
5
150
100
AcDbEntity
8
0
100
AcDbLine
10
4.5505775666582942
20
-18.919318181818191
30
0
11
4.5505775666582977
21
-18.219318181818196
31
0
0
LINE
5
151
100
AcDbEntity
8
0
100
AcDbLine
10
4.5505775666582977
20
-18.219318181818196
30
0
11
12.475577566658284
21
-18.219318181818196
31
0
0
LINE
5
152
100
AcDbEntity
8
0
100
AcDbLine
10
12.475577566658288
20
-18.219318181818196
30
0
11
12.475577566658284
21
-18.919318181818191
31
0
0
LINE
5
153
100
AcDbEntity
8
0
100
AcDbLine
10
12.475577566658282
20
-18.919318181818191
30
0
11
19.605681818181786
21
-18.919318181818191
31
0
0
LINE
5
154
100
AcDbEntity
8
0
100
AcDbLine
10
19.605681818181786
20
-18.919318181818191
30
0
11
19.605681818181793
21
18.919318181818188
31
0
0
LINE
5
155
100
AcDbEntity
8
0
100
AcDbLine
10
19.605681818181793
20
18.919318181818188
30
0
11
-19.605681818181786
21
18.919318181818184
31
0
0
LINE
5
156
100
AcDbEntity
8
0
100
AcDbLine
10
-19.605681818181782
20
18.919318181818177
30
0
11
-19.605681818181782
21
17.54886363636362
31
0
0
LINE
5
157
100
AcDbEntity
8
0
100
AcDbLine
10
-19.60568181818179
20
17.54886363636362
30
0
11
-17.796590909090877
21
17.54886363636362
31
0
0
LINE
5
158
100
AcDbEntity
8
0
100
AcDbLine
10
-17.796590909090877
20
17.548863636363627
30
0
11
-17.796590909090881
21
16.923863636363635
31
0
0
LINE
5
159
100
AcDbEntity
8
0
100
AcDbLine
10
-17.796590909090881
20
16.923863636363635
30
0
11
-19.605681818181793
21
16.923863636363635
31
0
0
ENDSEC
0
SECTION
2
OBJECTS
0
DICTIONARY
5
C
100
AcDbDictionary
3
ACAD_GROUP
350
D
3
ACAD_MLINESTYLE
350
17
0
DICTIONARY
5
D
100
AcDbDictionary
0
DICTIONARY
5
1A
330
C
100
AcDbDictionary
0
DICTIONARY
5
17
100
AcDbDictionary
0
ENDSEC
0
EOF
