0
SECTION
2
HEADER
9
$INSUNITS
70
4
9
$ACADVER
1
AC1014
9
$HANDSEED
5
FFFF
0
ENDSEC
0
SECTION
2
TABLES
0
TABLE
2
VPORT
5
8
100
AcDbSymbolTable
0
ENDTAB
0
TABLE
2
LTYPE
5
5
100
AcDbSymbolTable
0
LTYPE
5
14
100
AcDbSymbolTableRecord
100
AcDbLinetypeTableRecord
2
BYBLOCK
70
0
0
LTYPE
5
15
100
AcDbSymbolTableRecord
100
AcDbLinetypeTableRecord
2
BYLAYER
70
0
0
ENDTAB
0
TABLE
2
LAYER
5
2
100
AcDbSymbolTable
70
2
0
LAYER
5
50
100
AcDbSymbolTableRecord
100
AcDbLayerTableRecord
2
0
70
0
6
CONTINUOUS
0
ENDTAB
0
TABLE
2
STYLE
5
3
100
AcDbSymbolTable
70
1
0
STYLE
5
11
100
AcDbSymbolTableRecord
100
AcDbTextStyleTableRecord
2
STANDARD
70
0
0
ENDTAB
0
TABLE
2
VIEW
5
6
100
AcDbSymbolTable
70
0
0
ENDTAB
0
TABLE
2
UCS
5
7
100
AcDbSymbolTable
70
0
0
ENDTAB
0
TABLE
2
APPID
5
9
100
AcDbSymbolTable
70
2
0
APPID
5
12
100
AcDbSymbolTableRecord
100
AcDbRegAppTableRecord
2
ACAD
70
0
0
ENDTAB
0
TABLE
2
DIMSTYLE
5
A
100
AcDbSymbolTable
70
1
0
ENDTAB
0
TABLE
2
BLOCK_RECORD
5
1
100
AcDbSymbolTable
70
1
0
BLOCK_RECORD
5
1F
100
AcDbSymbolTableRecord
100
AcDbBlockTableRecord
2
*MODEL_SPACE
0
BLOCK_RECORD
5
1B
100
AcDbSymbolTableRecord
100
AcDbBlockTableRecord
2
*PAPER_SPACE
0
ENDTAB
0
ENDSEC
0
SECTION
2
BLOCKS
0
BLOCK
5
20
100
AcDbEntity
100
AcDbBlockBegin
2
*MODEL_SPACE
0
ENDBLK
5
21
100
AcDbEntity
100
AcDbBlockEnd
0
BLOCK
5
1C
100
AcDbEntity
100
AcDbBlockBegin
2
*PAPER_SPACE
0
ENDBLK
5
1D
100
AcDbEntity
100
AcDbBlockEnd
0
ENDSEC
0
SECTION
2
ENTITIES
0
ARC
5
100
100
AcDbEntity
8
0
100
AcDbCircle
10
-36.318181818181749
20
-14.113636363636374
30
0
40
11.326136363636385
210
0
220
-0
230
1
100
AcDbArc
50
75.075267725502883
51
104.92473227449712
0
LINE
5
101
100
AcDbEntity
8
0
100
AcDbLine
10
-33.401136363636311
20
-3.1695872617818832
30
0
11
-33.401136363636311
21
-14.076136363636348
31
0
0
LINE
5
102
100
AcDbEntity
8
0
100
AcDbLine
10
-33.401136363636311
20
-14.076136363636348
30
0
11
-39.235227272727215
21
-14.076136363636349
31
0
0
LINE
5
103
100
AcDbEntity
8
0
100
AcDbLine
10
-39.235227272727208
20
-14.076136363636349
30
0
11
-39.235227272727208
21
-3.1695872617818899
31
0
0
LINE
5
104
100
AcDbEntity
8
0
100
AcDbLine
10
33.401136363636326
20
-14.076136363636348
30
0
11
33.401136363636326
21
-3.1695872617818743
31
0
0
LINE
5
105
100
AcDbEntity
8
0
100
AcDbLine
10
39.235227272727222
20
-14.076136363636344
30
0
11
33.401136363636326
21
-14.076136363636348
31
0
0
LINE
5
106
100
AcDbEntity
8
0
100
AcDbLine
10
39.235227272727222
20
-3.1695872617818877
30
0
11
39.235227272727222
21
-14.076136363636348
31
0
0
ARC
5
107
100
AcDbEntity
8
0
100
AcDbCircle
10
36.318181818181756
20
-14.113636363636298
30
0
40
11.32613636363631
210
0
220
-0
230
1
100
AcDbArc
50
75.075267725502712
51
104.92473227449715
0
LINE
5
108
100
AcDbEntity
8
0
100
AcDbLine
10
-2.4624999999999897
20
4.8784090909090727
30
0
11
-2.4624999999999888
21
12.842135753063694
31
0
0
LINE
5
109
100
AcDbEntity
8
0
100
AcDbLine
10
2.4624999999999986
20
4.8784090909090727
30
0
11
-2.4624999999999897
21
4.8784090909090772
31
0
0
LINE
5
110
100
AcDbEntity
8
0
100
AcDbLine
10
2.4624999999999986
20
12.842135753063694
30
0
11
2.4624999999999977
21
4.8784090909090727
31
0
0
ARC
5
111
100
AcDbEntity
8
0
100
AcDbCircle
10
0
20
4.8409090909090802
30
0
40
8.3715909090909228
210
0
220
-0
230
1
100
AcDbArc
50
72.893450160890879
51
107.10654983910904
0
LINE
5
112
100
AcDbEntity
8
0
100
AcDbLine
10
-33.855681818181765
20
4.8784090909090683
30
0
11
-38.780681818181755
21
4.8784090909090683
31
0
0
LINE
5
113
100
AcDbEntity
8
0
100
AcDbLine
10
-33.855681818181765
20
12.842135753063658
30
0
11
-33.855681818181765
21
4.8784090909090683
31
0
0
ARC
5
114
100
AcDbEntity
8
0
100
AcDbCircle
10
-36.318181818181749
20
4.8409090909091512
30
0
40
8.3715909090908234
210
0
220
-0
230
1
100
AcDbArc
50
72.893450160890779
51
107.10654983910933
0
LINE
5
115
100
AcDbEntity
8
0
100
AcDbLine
10
-38.780681818181748
20
4.8784090909090683
30
0
11
-38.780681818181748
21
12.842135753063655
31
0
0
LINE
5
116
100
AcDbEntity
8
0
100
AcDbLine
10
19.962499999999963
20
-18.16704545454542
30
0
11
13.673863636363617
21
-18.16704545454542
31
0
0
LINE
5
117
100
AcDbEntity
8
0
100
AcDbLine
10
19.962499999999981
20
-3.2327068032002049
30
0
11
19.962499999999959
21
-18.16704545454542
31
0
0
ARC
5
118
100
AcDbEntity
8
0
100
AcDbCircle
10
16.818181818181781
20
-14.113636363636283
30
0
40
11.326136363636286
210
0
220
-0
230
1
100
AcDbArc
50
73.882020518943435
51
106.11797948105625
0
LINE
5
119
100
AcDbEntity
8
0
100
AcDbLine
10
13.673863636363617
20
-18.16704545454542
30
0
11
13.673863636363636
21
-3.2327068032001871
31
0
0
ARC
5
120
100
AcDbEntity
8
0
100
AcDbCircle
10
-16.818181818181781
20
4.8409090909091734
30
0
40
8.3715909090908056
210
0
220
-0
230
1
100
AcDbArc
50
72.893450160890623
51
107.10654983910929
0
LINE
5
121
100
AcDbEntity
8
0
100
AcDbLine
10
-14.355681818181782
20
12.842135753063658
30
0
11
-14.355681818181774
21
4.8784090909090683
31
0
0
LINE
5
122
100
AcDbEntity
8
0
100
AcDbLine
10
-14.355681818181774
20
4.8784090909090683
30
0
11
-19.280681818181762
21
4.8784090909090683
31
0
0
LINE
5
123
100
AcDbEntity
8
0
100
AcDbLine
10
-19.280681818181762
20
4.8784090909090683
30
0
11
-19.280681818181769
21
12.842135753063658
31
0
0
LINE
5
124
100
AcDbEntity
8
0
100
AcDbLine
10
3.144318181818182
20
-18.167045454545423
30
0
11
-3.1443181818181731
21
-18.167045454545423
31
0
0
LINE
5
125
100
AcDbEntity
8
0
100
AcDbLine
10
3.1443181818181998
20
-3.2327068032002049
30
0
11
3.1443181818181811
21
-18.167045454545423
31
0
0
ARC
5
126
100
AcDbEntity
8
0
100
AcDbCircle
10
0
20
-14.113636363636379
30
0
40
11.32613636363638
210
0
220
-0
230
1
100
AcDbArc
50
73.882020518943563
51
106.11797948105624
0
LINE
5
127
100
AcDbEntity
8
0
100
AcDbLine
10
-3.1443181818181731
20
-18.167045454545423
30
0
11
-3.1443181818181634
21
-3.2327068032001915
31
0
0
LINE
5
128
100
AcDbEntity
8
0
100
AcDbLine
10
-19.962499999999963
20
-18.16704545454542
30
0
11
-19.962499999999959
21
-3.2327068032002026
31
0
0
ARC
5
129
100
AcDbEntity
8
0
100
AcDbCircle
10
-16.818181818181763
20
-14.113636363636317
30
0
40
11.326136363636321
210
0
220
-0
230
1
100
AcDbArc
50
73.882020518943762
51
106.11797948105649
0
LINE
5
130
100
AcDbEntity
8
0
100
AcDbLine
10
-13.673863636363617
20
-3.2327068032001893
30
0
11
-13.67386363636361
21
-18.16704545454542
31
0
0
LINE
5
131
100
AcDbEntity
8
0
100
AcDbLine
10
-13.673863636363608
20
-18.16704545454542
30
0
11
-19.962499999999963
21
-18.16704545454542
31
0
0
LINE
5
132
100
AcDbEntity
8
0
100
AcDbLine
10
14.355681818181765
20
4.8784090909090816
30
0
11
14.355681818181782
21
12.842135753063658
31
0
0
ARC
5
133
100
AcDbEntity
8
0
100
AcDbCircle
10
16.818181818181781
20
4.8409090909090047
30
0
40
8.3715909090909708
210
0
220
-0
230
1
100
AcDbArc
50
72.89345016089095
51
107.10654983910902
0
LINE
5
134
100
AcDbEntity
8
0
100
AcDbLine
10
19.28068181818178
20
12.842135753063664
30
0
11
19.280681818181762
21
4.8784090909090772
31
0
0
LINE
5
135
100
AcDbEntity
8
0
100
AcDbLine
10
19.280681818181762
20
4.8784090909090772
30
0
11
14.355681818181765
21
4.8784090909090816
31
0
0
LINE
5
136
100
AcDbEntity
8
0
100
AcDbLine
10
33.855681818181758
20
4.8784090909090816
30
0
11
33.855681818181758
21
12.842135753063664
31
0
0
ARC
5
137
100
AcDbEntity
8
0
100
AcDbCircle
10
36.318181818181756
20
4.8409090909091423
30
0
40
8.3715909090908429
210
0
220
-0
230
1
100
AcDbArc
50
72.893450160890708
51
107.10654983910922
0
LINE
5
138
100
AcDbEntity
8
0
100
AcDbLine
10
38.780681818181755
20
12.842135753063669
30
0
11
38.780681818181755
21
4.8784090909090816
31
0
0
LINE
5
139
100
AcDbEntity
8
0
100
AcDbLine
10
38.780681818181755
20
4.8784090909090816
30
0
11
33.855681818181758
21
4.8784090909090816
31
0
0
LINE
5
140
100
AcDbEntity
8
0
100
AcDbLine
10
7.8806818181817917
20
17.796590909090884
30
0
11
7.2556818181817917
21
17.796590909090884
31
0
0
LINE
5
141
100
AcDbEntity
8
0
100
AcDbLine
10
7.2556818181817917
20
17.796590909090884
30
0
11
7.2556818181817917
21
19.60568181818179
31
0
0
LINE
5
142
100
AcDbEntity
8
0
100
AcDbLine
10
7.2556818181817917
20
19.60568181818179
30
0
11
-7.2556818181818095
21
19.60568181818179
31
0
0
LINE
5
143
100
AcDbEntity
8
0
100
AcDbLine
10
-7.2556818181818095
20
19.605681818181786
30
0
11
-7.2556818181818006
21
17.796590909090884
31
0
0
LINE
5
144
100
AcDbEntity
8
0
100
AcDbLine
10
-7.2556818181818006
20
17.796590909090884
30
0
11
-7.8806818181818006
21
17.796590909090884
31
0
0
LINE
5
145
100
AcDbEntity
8
0
100
AcDbLine
10
-7.8806818181818006
20
17.796590909090884
30
0
11
-7.8806818181817917
21
19.60568181818179
31
0
0
LINE
5
146
100
AcDbEntity
8
0
100
AcDbLine
10
-7.8806818181817917
20
19.60568181818179
30
0
11
-16.505681818181781
21
19.60568181818179
31
0
0
LINE
5
147
100
AcDbEntity
8
0
100
AcDbLine
10
-16.505681818181781
20
19.60568181818179
30
0
11
-16.505681818181792
21
17.796590909090884
31
0
0
LINE
5
148
100
AcDbEntity
8
0
100
AcDbLine
10
-16.505681818181792
20
17.796590909090884
30
0
11
-17.130681818181792
21
17.796590909090884
31
0
0
LINE
5
149
100
AcDbEntity
8
0
100
AcDbLine
10
-17.130681818181792
20
17.796590909090884
30
0
11
-17.130681818181792
21
19.60568181818179
31
0
0
LINE
5
150
100
AcDbEntity
8
0
100
AcDbLine
10
-17.130681818181792
20
19.60568181818179
30
0
11
-25.755681818181788
21
19.60568181818179
31
0
0
LINE
5
151
100
AcDbEntity
8
0
100
AcDbLine
10
-25.755681818181788
20
19.60568181818179
30
0
11
-25.755681818181777
21
17.796590909090884
31
0
0
LINE
5
152
100
AcDbEntity
8
0
100
AcDbLine
10
-25.755681818181777
20
17.796590909090884
30
0
11
-26.380681818181777
21
17.796590909090884
31
0
0
LINE
5
153
100
AcDbEntity
8
0
100
AcDbLine
10
-26.380681818181777
20
17.796590909090884
30
0
11
-26.380681818181777
21
19.60568181818179
31
0
0
LINE
5
154
100
AcDbEntity
8
0
100
AcDbLine
10
-26.380681818181777
20
19.60568181818179
30
0
11
-36.005681818181749
21
19.60568181818179
31
0
0
LINE
5
155
100
AcDbEntity
8
0
100
AcDbLine
10
-36.005681818181742
20
19.60568181818179
30
0
11
-36.005681818181763
21
17.796590909090884
31
0
0
LINE
5
156
100
AcDbEntity
8
0
100
AcDbLine
10
-36.005681818181763
20
17.796590909090884
30
0
11
-36.630681818181763
21
17.796590909090884
31
0
0
LINE
5
157
100
AcDbEntity
8
0
100
AcDbLine
10
-36.630681818181763
20
17.796590909090884
30
0
11
-36.630681818181749
21
19.60568181818179
31
0
0
LINE
5
158
100
AcDbEntity
8
0
100
AcDbLine
10
-36.630681818181749
20
19.60568181818179
30
0
11
-46.191761058720516
21
19.60568181818179
31
0
0
LINE
5
159
100
AcDbEntity
8
0
100
AcDbLine
10
-46.191761058720516
20
19.60568181818179
30
0
11
-46.191761058720509
21
17.796590909090884
31
0
0
LINE
5
160
100
AcDbEntity
8
0
100
AcDbLine
10
-46.191761058720502
20
17.796590909090884
30
0
11
-46.816761058720502
21
17.796590909090884
31
0
0
LINE
5
161
100
AcDbEntity
8
0
100
AcDbLine
10
-46.816761058720502
20
17.796590909090884
30
0
11
-46.816761058720495
21
19.60568181818179
31
0
0
LINE
5
162
100
AcDbEntity
8
0
100
AcDbLine
10
-46.816761058720488
20
19.60568181818179
30
0
11
-47.901136363636283
21
19.60568181818179
31
0
0
LINE
5
163
100
AcDbEntity
8
0
100
AcDbLine
10
-47.901136363636283
20
19.60568181818179
30
0
11
-47.901136363636283
21
14.565172127590721
31
0
0
LINE
5
164
100
AcDbEntity
8
0
100
AcDbLine
10
-47.901136363636283
20
14.565172127590721
30
0
11
-47.20113636363628
21
14.565172127590721
31
0
0
LINE
5
165
100
AcDbEntity
8
0
100
AcDbLine
10
-47.20113636363628
20
14.565172127590721
30
0
11
-47.201136363636287
21
8.5895080971721605
31
0
0
LINE
5
166
100
AcDbEntity
8
0
100
AcDbLine
10
-47.201136363636287
20
8.5895080971721605
30
0
11
-47.901136363636283
21
8.5895080971721569
31
0
0
LINE
5
167
100
AcDbEntity
8
0
100
AcDbLine
10
-47.901136363636283
20
8.5895080971721569
30
0
11
-47.90113636363629
21
-1.5472702904901703
31
0
0
LINE
5
168
100
AcDbEntity
8
0
100
AcDbLine
10
-47.901136363636283
20
-1.5472702904901725
30
0
11
-47.20113636363628
21
-1.5472702904901681
31
0
0
LINE
5
169
100
AcDbEntity
8
0
100
AcDbLine
10
-47.201136363636287
20
-1.5472702904901681
30
0
11
-47.201136363636294
21
-10.514273841565094
31
0
0
LINE
5
170
100
AcDbEntity
8
0
100
AcDbLine
10
-47.201136363636294
20
-10.514273841565092
30
0
11
-47.901136363636297
21
-10.514273841565094
31
0
0
LINE
5
171
100
AcDbEntity
8
0
100
AcDbLine
10
-47.90113636363629
20
-10.514273841565094
30
0
11
-47.90113636363629
21
-19.60568181818179
31
0
0
LINE
5
172
100
AcDbEntity
8
0
100
AcDbLine
10
-47.901136363636283
20
-19.60568181818179
30
0
11
-24.377926412809138
21
-19.60568181818179
31
0
0
LINE
5
173
100
AcDbEntity
8
0
100
AcDbLine
10
-24.377926412809146
20
-19.60568181818179
30
0
11
-24.377926412809153
21
-18.90568181818179
31
0
0
LINE
5
174
100
AcDbEntity
8
0
100
AcDbLine
10
-24.377926412809153
20
-18.90568181818179
30
0
11
-21.452926412809159
21
-18.90568181818179
31
0
0
LINE
5
175
100
AcDbEntity
8
0
100
AcDbLine
10
-21.452926412809159
20
-18.90568181818179
30
0
11
-21.452926412809159
21
-19.60568181818179
31
0
0
LINE
5
176
100
AcDbEntity
8
0
100
AcDbLine
10
-21.452926412809159
20
-19.60568181818179
30
0
11
21.452926412809159
21
-19.60568181818179
31
0
0
LINE
5
177
100
AcDbEntity
8
0
100
AcDbLine
10
21.452926412809159
20
-19.60568181818179
30
0
11
21.452926412809159
21
-18.90568181818179
31
0
0
LINE
5
178
100
AcDbEntity
8
0
100
AcDbLine
10
21.452926412809159
20
-18.905681818181787
30
0
11
24.377926412809146
21
-18.905681818181787
31
0
0
LINE
5
179
100
AcDbEntity
8
0
100
AcDbLine
10
24.377926412809146
20
-18.905681818181787
30
0
11
24.377926412809146
21
-19.60568181818179
31
0
0
LINE
5
180
100
AcDbEntity
8
0
100
AcDbLine
10
24.377926412809146
20
-19.60568181818179
30
0
11
47.901136363636297
21
-19.60568181818179
31
0
0
LINE
5
181
100
AcDbEntity
8
0
100
AcDbLine
10
47.901136363636297
20
-19.60568181818179
30
0
11
47.901136363636297
21
-10.514273841565092
31
0
0
LINE
5
182
100
AcDbEntity
8
0
100
AcDbLine
10
47.901136363636297
20
-10.514273841565092
30
0
11
47.201136363636294
21
-10.514273841565092
31
0
0
LINE
5
183
100
AcDbEntity
8
0
100
AcDbLine
10
47.201136363636294
20
-10.514273841565092
30
0
11
47.201136363636294
21
-1.5472702904901658
31
0
0
LINE
5
184
100
AcDbEntity
8
0
100
AcDbLine
10
47.201136363636294
20
-1.5472702904901658
30
0
11
47.901136363636297
21
-1.5472702904901658
31
0
0
LINE
5
185
100
AcDbEntity
8
0
100
AcDbLine
10
47.901136363636297
20
-1.5472702904901658
30
0
11
47.901136363636297
21
8.5895080971721587
31
0
0
LINE
5
186
100
AcDbEntity
8
0
100
AcDbLine
10
47.901136363636297
20
8.5895080971721605
30
0
11
47.201136363636294
21
8.589508097172164
31
0
0
LINE
5
187
100
AcDbEntity
8
0
100
AcDbLine
10
47.201136363636294
20
8.589508097172164
30
0
11
47.201136363636294
21
14.565172127590728
31
0
0
LINE
5
188
100
AcDbEntity
8
0
100
AcDbLine
10
47.201136363636294
20
14.565172127590728
30
0
11
47.901136363636297
21
14.565172127590724
31
0
0
LINE
5
189
100
AcDbEntity
8
0
100
AcDbLine
10
47.901136363636297
20
14.565172127590724
30
0
11
47.901136363636297
21
19.60568181818179
31
0
0
LINE
5
190
100
AcDbEntity
8
0
100
AcDbLine
10
47.901136363636297
20
19.60568181818179
30
0
11
46.816761058720516
21
19.60568181818179
31
0
0
LINE
5
191
100
AcDbEntity
8
0
100
AcDbLine
10
46.816761058720516
20
19.60568181818179
30
0
11
46.816761058720516
21
17.796590909090884
31
0
0
LINE
5
192
100
AcDbEntity
8
0
100
AcDbLine
10
46.816761058720516
20
17.796590909090884
30
0
11
46.191761058720516
21
17.796590909090884
31
0
0
LINE
5
193
100
AcDbEntity
8
0
100
AcDbLine
10
46.191761058720516
20
17.796590909090884
30
0
11
46.191761058720516
21
19.60568181818179
31
0
0
LINE
5
194
100
AcDbEntity
8
0
100
AcDbLine
10
46.191761058720516
20
19.60568181818179
30
0
11
36.630681818181756
21
19.60568181818179
31
0
0
LINE
5
195
100
AcDbEntity
8
0
100
AcDbLine
10
36.630681818181756
20
19.60568181818179
30
0
11
36.630681818181756
21
17.796590909090884
31
0
0
LINE
5
196
100
AcDbEntity
8
0
100
AcDbLine
10
36.630681818181756
20
17.796590909090884
30
0
11
36.005681818181756
21
17.796590909090884
31
0
0
LINE
5
197
100
AcDbEntity
8
0
100
AcDbLine
10
36.005681818181756
20
17.796590909090884
30
0
11
36.005681818181756
21
19.60568181818179
31
0
0
LINE
5
198
100
AcDbEntity
8
0
100
AcDbLine
10
36.005681818181756
20
19.60568181818179
30
0
11
26.380681818181788
21
19.60568181818179
31
0
0
LINE
5
199
100
AcDbEntity
8
0
100
AcDbLine
10
26.380681818181788
20
19.60568181818179
30
0
11
26.380681818181788
21
17.796590909090884
31
0
0
LINE
5
200
100
AcDbEntity
8
0
100
AcDbLine
10
26.380681818181788
20
17.796590909090884
30
0
11
25.755681818181788
21
17.796590909090884
31
0
0
LINE
5
201
100
AcDbEntity
8
0
100
AcDbLine
10
25.755681818181788
20
17.796590909090884
30
0
11
25.755681818181788
21
19.60568181818179
31
0
0
LINE
5
202
100
AcDbEntity
8
0
100
AcDbLine
10
25.755681818181788
20
19.60568181818179
30
0
11
17.130681818181799
21
19.60568181818179
31
0
0
LINE
5
203
100
AcDbEntity
8
0
100
AcDbLine
10
17.130681818181799
20
19.60568181818179
30
0
11
17.130681818181799
21
17.796590909090884
31
0
0
LINE
5
204
100
AcDbEntity
8
0
100
AcDbLine
10
17.130681818181799
20
17.796590909090884
30
0
11
16.505681818181799
21
17.796590909090884
31
0
0
LINE
5
205
100
AcDbEntity
8
0
100
AcDbLine
10
16.505681818181799
20
17.796590909090884
30
0
11
16.505681818181799
21
19.60568181818179
31
0
0
LINE
5
206
100
AcDbEntity
8
0
100
AcDbLine
10
16.505681818181799
20
19.60568181818179
30
0
11
7.8806818181818095
21
19.60568181818179
31
0
0
LINE
5
207
100
AcDbEntity
8
0
100
AcDbLine
10
7.8806818181818095
20
19.60568181818179
30
0
11
7.8806818181817917
21
17.796590909090884
31
0
0
ENDSEC
0
SECTION
2
OBJECTS
0
DICTIONARY
5
C
100
AcDbDictionary
3
ACAD_GROUP
350
D
3
ACAD_MLINESTYLE
350
17
0
DICTIONARY
5
D
100
AcDbDictionary
0
DICTIONARY
5
1A
330
C
100
AcDbDictionary
0
DICTIONARY
5
17
100
AcDbDictionary
0
ENDSEC
0
EOF
