0
SECTION
2
HEADER
9
$INSUNITS
70
4
9
$ACADVER
1
AC1014
9
$HANDSEED
5
FFFF
0
ENDSEC
0
SECTION
2
TABLES
0
TABLE
2
VPORT
5
8
100
AcDbSymbolTable
0
ENDTAB
0
TABLE
2
LTYPE
5
5
100
AcDbSymbolTable
0
LTYPE
5
14
100
AcDbSymbolTableRecord
100
AcDbLinetypeTableRecord
2
BYBLOCK
70
0
0
LTYPE
5
15
100
AcDbSymbolTableRecord
100
AcDbLinetypeTableRecord
2
BYLAYER
70
0
0
ENDTAB
0
TABLE
2
LAYER
5
2
100
AcDbSymbolTable
70
2
0
LAYER
5
50
100
AcDbSymbolTableRecord
100
AcDbLayerTableRecord
2
0
70
0
6
CONTINUOUS
0
ENDTAB
0
TABLE
2
STYLE
5
3
100
AcDbSymbolTable
70
1
0
STYLE
5
11
100
AcDbSymbolTableRecord
100
AcDbTextStyleTableRecord
2
STANDARD
70
0
0
ENDTAB
0
TABLE
2
VIEW
5
6
100
AcDbSymbolTable
70
0
0
ENDTAB
0
TABLE
2
UCS
5
7
100
AcDbSymbolTable
70
0
0
ENDTAB
0
TABLE
2
APPID
5
9
100
AcDbSymbolTable
70
2
0
APPID
5
12
100
AcDbSymbolTableRecord
100
AcDbRegAppTableRecord
2
ACAD
70
0
0
ENDTAB
0
TABLE
2
DIMSTYLE
5
A
100
AcDbSymbolTable
70
1
0
ENDTAB
0
TABLE
2
BLOCK_RECORD
5
1
100
AcDbSymbolTable
70
1
0
BLOCK_RECORD
5
1F
100
AcDbSymbolTableRecord
100
AcDbBlockTableRecord
2
*MODEL_SPACE
0
BLOCK_RECORD
5
1B
100
AcDbSymbolTableRecord
100
AcDbBlockTableRecord
2
*PAPER_SPACE
0
ENDTAB
0
ENDSEC
0
SECTION
2
BLOCKS
0
BLOCK
5
20
100
AcDbEntity
100
AcDbBlockBegin
2
*MODEL_SPACE
0
ENDBLK
5
21
100
AcDbEntity
100
AcDbBlockEnd
0
BLOCK
5
1C
100
AcDbEntity
100
AcDbBlockBegin
2
*PAPER_SPACE
0
ENDBLK
5
1D
100
AcDbEntity
100
AcDbBlockEnd
0
ENDSEC
0
SECTION
2
ENTITIES
0
LINE
5
100
100
AcDbEntity
8
0
100
AcDbLine
10
0.56955726857130795
20
-5.4271706734169101
30
0
11
3.0084031213544948
21
-5.4271706734169101
31
0
0
LINE
5
101
100
AcDbEntity
8
0
100
AcDbLine
10
3.0084031213544948
20
-5.4271706734169101
30
0
11
3.0084031213544948
21
-6.0521706734169056
31
0
0
LINE
5
102
100
AcDbEntity
8
0
100
AcDbLine
10
3.0084031213544948
20
-6.0521706734169056
30
0
11
0.56955726857130795
21
-6.0521706734169056
31
0
0
LINE
5
103
100
AcDbEntity
8
0
100
AcDbLine
10
0.56955726857130795
20
-6.0521706734169056
30
0
11
0.56955726857130806
21
-5.4271706734169101
31
0
0
LINE
5
104
100
AcDbEntity
8
0
100
AcDbLine
10
0.56955726857131683
20
6.063738417492166
30
0
11
3.0084031213545037
21
6.063738417492166
31
0
0
LINE
5
105
100
AcDbEntity
8
0
100
AcDbLine
10
3.0084031213545037
20
6.063738417492166
30
0
11
3.0084031213545037
21
5.4387384174921571
31
0
0
LINE
5
106
100
AcDbEntity
8
0
100
AcDbLine
10
3.0084031213545037
20
5.4387384174921571
30
0
11
0.56955726857131683
21
5.4387384174921571
31
0
0
LINE
5
107
100
AcDbEntity
8
0
100
AcDbLine
10
0.56955726857131683
20
5.4387384174921571
30
0
11
0.56955726857131694
21
6.063738417492166
31
0
0
LINE
5
108
100
AcDbEntity
8
0
100
AcDbLine
10
4.8162102509388705
20
-20.31353430982228
30
0
11
6.5801497773407736
21
-20.313534309787933
31
0
0
ARC
5
109
100
AcDbEntity
8
0
100
AcDbCircle
10
6.580149777333113
20
-19.926034309788797
30
0
40
0.38749999999914131
210
-0
220
0
230
1
100
AcDbArc
50
-89.99999999886731
51
0
0
LINE
5
110
100
AcDbEntity
8
0
100
AcDbLine
10
6.9676497773322543
20
-19.926034309783624
30
0
11
6.9676497773184609
21
-19.613534309781102
31
0
0
LINE
5
111
100
AcDbEntity
8
0
100
AcDbLine
10
6.9676497773184609
20
-19.613534309781102
30
0
11
7.9437861409740673
21
-19.613534309780704
31
0
0
ARC
5
112
100
AcDbEntity
8
0
100
AcDbCircle
10
7.9437861409740629
20
-19.226034309782168
30
0
40
0.38749999999853735
210
-0
220
0
230
1
100
AcDbArc
50
-89.999999999999332
51
0
0
LINE
5
113
100
AcDbEntity
8
0
100
AcDbLine
10
8.3312861409726011
20
-19.226034309782168
30
0
11
8.3312861409611738
21
-18.838534309780552
31
0
0
LINE
5
114
100
AcDbEntity
8
0
100
AcDbLine
10
8.3312861409611738
20
-18.838534309780552
30
0
11
6.6817085278680155
21
-18.838534309780552
31
0
0
LINE
5
115
100
AcDbEntity
8
0
100
AcDbLine
10
6.6817085278680155
20
-18.838534309780552
30
0
11
6.6817085278680155
21
-16.813534309780561
31
0
0
LINE
5
116
100
AcDbEntity
8
0
100
AcDbLine
10
6.6817085278680155
20
-16.813534309780561
30
0
11
10.189432818434131
21
-16.813534309780561
31
0
0
LINE
5
117
100
AcDbEntity
8
0
100
AcDbLine
10
10.189432818434131
20
-16.813534309780561
30
0
11
10.202396836159105
21
16.825102053855822
31
0
0
LINE
5
118
100
AcDbEntity
8
0
100
AcDbLine
10
10.202396836159103
20
16.825102053855822
30
0
11
6.6817085278680199
21
16.825102053855812
31
0
0
LINE
5
119
100
AcDbEntity
8
0
100
AcDbLine
10
6.6817085278680199
20
16.825102053855812
30
0
11
6.6817085278680199
21
18.837122610680037
31
0
0
LINE
5
120
100
AcDbEntity
8
0
100
AcDbLine
10
6.6817085278680244
20
18.837122610680037
30
0
11
8.2924752145154468
21
18.835881061483526
31
0
0
LINE
5
121
100
AcDbEntity
8
0
100
AcDbLine
10
8.2924752145154468
20
18.835881061483526
30
0
11
8.3406393550066902
21
19.288488014291048
31
0
0
ARC
5
122
100
AcDbEntity
8
0
100
AcDbCircle
10
7.9586042874447438
20
19.223638518133672
30
0
40
0.38749999999861384
210
0
220
-0
230
1
100
AcDbArc
50
9.6339836884919379
51
89.955837480593928
0
LINE
5
123
100
AcDbEntity
8
0
100
AcDbLine
10
7.9589029651958931
20
19.611138403024661
30
0
11
6.9827668915047525
21
19.611890790672515
31
0
0
LINE
5
124
100
AcDbEntity
8
0
100
AcDbLine
10
6.9827668915047525
20
19.611890790672515
30
0
11
6.983007760671387
21
19.924390697844807
31
0
0
ARC
5
125
100
AcDbEntity
8
0
100
AcDbCircle
10
6.5955078757570051
20
19.924689375579234
30
0
40
0.38750000002199769
210
-0
220
0
230
1
100
AcDbArc
50
-0.044162516929411789
51
89.955837475734228
0
LINE
5
126
100
AcDbEntity
8
0
100
AcDbLine
10
6.5958065535410393
20
20.312189260493572
30
0
11
4.8318675511207365
21
20.313548872114051
31
0
0
LINE
5
127
100
AcDbEntity
8
0
100
AcDbLine
10
4.8318675511207365
20
20.31354887211404
30
0
11
1.5897079888989996
21
15.936816538492682
31
0
0
LINE
5
128
100
AcDbEntity
8
0
100
AcDbLine
10
1.5897079888989962
20
15.936816538492682
30
0
11
2.1521896881945102
21
15.520145999636306
31
0
0
LINE
5
129
100
AcDbEntity
8
0
100
AcDbLine
10
2.1521896881945102
20
15.520145999636306
30
0
11
-8.031906562212086
21
1.7721911280838998
31
0
0
LINE
5
130
100
AcDbEntity
8
0
100
AcDbLine
10
-8.0319065622120878
20
1.772191128083902
30
0
11
-8.594388261485788
21
2.1888616669358729
31
0
0
LINE
5
131
100
AcDbEntity
8
0
100
AcDbLine
10
-8.594388261485788
20
2.1888616669358729
30
0
11
-10.211537246883946
21
0.0058018523891642526
31
0
0
LINE
5
132
100
AcDbEntity
8
0
100
AcDbLine
10
-10.211537246883946
20
0.0058018523891689711
30
0
11
-8.5960714035320418
21
-2.1785037818646331
31
0
0
LINE
5
133
100
AcDbEntity
8
0
100
AcDbLine
10
-8.5960714035320418
20
-2.1785037818646291
30
0
11
-8.0332687094833943
21
-1.7622669171350225
31
0
0
LINE
5
134
100
AcDbEntity
8
0
100
AcDbLine
10
-8.0332687094833943
20
-1.7622669171350225
30
0
11
2.1402278492831761
21
-15.518067415712402
31
0
0
LINE
5
135
100
AcDbEntity
8
0
100
AcDbLine
10
2.1402278492831828
20
-15.518067415712405
30
0
11
1.5774251552188057
21
-15.934304280437859
31
0
0
LINE
5
136
100
AcDbEntity
8
0
100
AcDbLine
10
1.5774251552188057
20
-15.934304280437859
30
0
11
4.816210250938874
21
-20.31353430982228
31
0
0
ENDSEC
0
SECTION
2
OBJECTS
0
DICTIONARY
5
C
100
AcDbDictionary
3
ACAD_GROUP
350
D
3
ACAD_MLINESTYLE
350
17
0
DICTIONARY
5
D
100
AcDbDictionary
0
DICTIONARY
5
1A
330
C
100
AcDbDictionary
0
DICTIONARY
5
17
100
AcDbDictionary
0
ENDSEC
0
EOF
