0
SECTION
2
HEADER
9
$INSUNITS
70
4
9
$ACADVER
1
AC1014
9
$HANDSEED
5
FFFF
0
ENDSEC
0
SECTION
2
TABLES
0
TABLE
2
VPORT
5
8
100
AcDbSymbolTable
0
ENDTAB
0
TABLE
2
LTYPE
5
5
100
AcDbSymbolTable
0
LTYPE
5
14
100
AcDbSymbolTableRecord
100
AcDbLinetypeTableRecord
2
BYBLOCK
70
0
0
LTYPE
5
15
100
AcDbSymbolTableRecord
100
AcDbLinetypeTableRecord
2
BYLAYER
70
0
0
ENDTAB
0
TABLE
2
LAYER
5
2
100
AcDbSymbolTable
70
2
0
LAYER
5
50
100
AcDbSymbolTableRecord
100
AcDbLayerTableRecord
2
0
70
0
6
CONTINUOUS
0
ENDTAB
0
TABLE
2
STYLE
5
3
100
AcDbSymbolTable
70
1
0
STYLE
5
11
100
AcDbSymbolTableRecord
100
AcDbTextStyleTableRecord
2
STANDARD
70
0
0
ENDTAB
0
TABLE
2
VIEW
5
6
100
AcDbSymbolTable
70
0
0
ENDTAB
0
TABLE
2
UCS
5
7
100
AcDbSymbolTable
70
0
0
ENDTAB
0
TABLE
2
APPID
5
9
100
AcDbSymbolTable
70
2
0
APPID
5
12
100
AcDbSymbolTableRecord
100
AcDbRegAppTableRecord
2
ACAD
70
0
0
ENDTAB
0
TABLE
2
DIMSTYLE
5
A
100
AcDbSymbolTable
70
1
0
ENDTAB
0
TABLE
2
BLOCK_RECORD
5
1
100
AcDbSymbolTable
70
1
0
BLOCK_RECORD
5
1F
100
AcDbSymbolTableRecord
100
AcDbBlockTableRecord
2
*MODEL_SPACE
0
BLOCK_RECORD
5
1B
100
AcDbSymbolTableRecord
100
AcDbBlockTableRecord
2
*PAPER_SPACE
0
ENDTAB
0
ENDSEC
0
SECTION
2
BLOCKS
0
BLOCK
5
20
100
AcDbEntity
100
AcDbBlockBegin
2
*MODEL_SPACE
0
ENDBLK
5
21
100
AcDbEntity
100
AcDbBlockEnd
0
BLOCK
5
1C
100
AcDbEntity
100
AcDbBlockBegin
2
*PAPER_SPACE
0
ENDBLK
5
1D
100
AcDbEntity
100
AcDbBlockEnd
0
ENDSEC
0
SECTION
2
ENTITIES
0
LINE
5
100
100
AcDbEntity
8
0
100
AcDbLine
10
3.4581277029747692
20
-6.078001708331815
30
0
11
24.810227272727239
21
-6.078001708331815
31
-1.2325951644078309e-31
0
LINE
5
101
100
AcDbEntity
8
0
100
AcDbLine
10
24.81022727272725
20
-6.078001708331815
30
0
11
24.81022727272725
21
-5.4906319665077152
31
0
0
LINE
5
102
100
AcDbEntity
8
0
100
AcDbLine
10
24.810227272727232
20
-5.4906319665077064
30
0
11
27.326136363636326
21
-5.4906319665077064
31
0
0
LINE
5
103
100
AcDbEntity
8
0
100
AcDbLine
10
27.326136363636326
20
-5.4906319665077064
30
0
11
27.326136363636326
21
-6.0780017083318061
31
0
0
LINE
5
104
100
AcDbEntity
8
0
100
AcDbLine
10
27.326136363636344
20
-6.078001708331815
30
0
11
38.598352737431497
21
-6.078001708331815
31
0
0
LINE
5
105
100
AcDbEntity
8
0
100
AcDbLine
10
38.598352737431497
20
-6.078001708331815
30
0
11
38.598352737431497
21
-6.788800336651839
31
0
0
LINE
5
106
100
AcDbEntity
8
0
100
AcDbLine
10
38.598352737431497
20
-6.788800336651839
30
0
11
44.673352737431472
21
-6.788800336651839
31
-3.0814879110195774e-32
0
LINE
5
107
100
AcDbEntity
8
0
100
AcDbLine
10
44.673352737431472
20
-6.7888003366518301
30
0
11
44.673352737431472
21
-6.0780017083317972
31
0
0
LINE
5
108
100
AcDbEntity
8
0
100
AcDbLine
10
44.673352737431472
20
-6.0780017083317972
30
0
11
45.310227272727218
21
-6.0780017083317972
31
3.8518598887744717e-33
0
LINE
5
109
100
AcDbEntity
8
0
100
AcDbLine
10
45.310227272727218
20
-6.0780017083317972
30
0
11
45.310227272727218
21
-5.4906319665076975
31
0
0
LINE
5
110
100
AcDbEntity
8
0
100
AcDbLine
10
45.310227272727204
20
-5.4906319665076886
30
0
11
47.901136363636297
21
-5.4906319665076886
31
0
0
LINE
5
111
100
AcDbEntity
8
0
100
AcDbLine
10
47.901136363636297
20
-5.4906319665076975
30
0
11
47.901136363636297
21
-3.009235084363695
31
0
0
LINE
5
112
100
AcDbEntity
8
0
100
AcDbLine
10
47.901136363636297
20
-3.0092350843637039
30
0
11
47.201136363636294
21
-3.009235084363695
31
0
0
LINE
5
113
100
AcDbEntity
8
0
100
AcDbLine
10
47.201136363636294
20
-3.0092350843636861
30
0
11
47.201136363636294
21
3.3580011261047105
31
0
0
LINE
5
114
100
AcDbEntity
8
0
100
AcDbLine
10
47.201136363636316
20
3.3580011261047105
30
0
11
47.901136363636319
21
3.3580011261047016
31
2.4651903288156619e-31
0
LINE
5
115
100
AcDbEntity
8
0
100
AcDbLine
10
47.901136363636319
20
3.3580011261046927
30
0
11
47.901136363636319
21
6.7888003366517591
31
0
0
LINE
5
116
100
AcDbEntity
8
0
100
AcDbLine
10
47.901136363636297
20
6.7888003366517591
30
0
11
-47.901136363636297
21
6.788800336651768
31
9.8607613152626476e-31
0
LINE
5
117
100
AcDbEntity
8
0
100
AcDbLine
10
-47.901136363636297
20
6.7888003366517768
30
0
11
-47.901136363636297
21
3.358001126104702
31
0
0
LINE
5
118
100
AcDbEntity
8
0
100
AcDbLine
10
-47.901136363636297
20
3.3580011261047016
30
0
11
-47.201136363636294
21
3.3580011261047016
31
0
0
LINE
5
119
100
AcDbEntity
8
0
100
AcDbLine
10
-47.201136363636294
20
3.3580011261047016
30
0
11
-47.201136363636287
21
-3.0092350843636861
31
0
0
LINE
5
120
100
AcDbEntity
8
0
100
AcDbLine
10
-47.201136363636294
20
-3.0092350843636861
30
0
11
-47.901136363636297
21
-3.0092350843636773
31
0
0
LINE
5
121
100
AcDbEntity
8
0
100
AcDbLine
10
-47.90113636363629
20
-3.0092350843636773
30
0
11
-47.90113636363629
21
-5.4906319665076886
31
0
0
LINE
5
122
100
AcDbEntity
8
0
100
AcDbLine
10
-47.901136363636283
20
-5.4906319665076797
30
0
11
-45.310227272727204
21
-5.4906319665076797
31
0
0
LINE
5
123
100
AcDbEntity
8
0
100
AcDbLine
10
-45.310227272727204
20
-5.4906319665076886
30
0
11
-45.310227272727204
21
-6.0780017083317972
31
0
0
LINE
5
124
100
AcDbEntity
8
0
100
AcDbLine
10
-45.310227272727204
20
-6.0780017083318061
30
0
11
-43.387288227954116
21
-6.078001708331815
31
0
0
LINE
5
125
100
AcDbEntity
8
0
100
AcDbLine
10
-43.387288227954116
20
-6.078001708331815
30
0
11
-43.387288227954109
21
-6.788800336651839
31
0
0
LINE
5
126
100
AcDbEntity
8
0
100
AcDbLine
10
-43.387288227954116
20
-6.788800336651839
30
0
11
-37.312288227954141
21
-6.788800336651839
31
-3.0814879110195774e-32
0
LINE
5
127
100
AcDbEntity
8
0
100
AcDbLine
10
-37.312288227954134
20
-6.7888003366518301
30
0
11
-37.312288227954134
21
-6.0780017083317972
31
0
0
LINE
5
128
100
AcDbEntity
8
0
100
AcDbLine
10
-37.312288227954134
20
-6.0780017083317972
30
0
11
-27.326136363636312
21
-6.0780017083317972
31
9.2444637330587321e-32
0
LINE
5
129
100
AcDbEntity
8
0
100
AcDbLine
10
-27.326136363636316
20
-6.0780017083317972
30
0
11
-27.326136363636316
21
-5.4906319665076975
31
0
0
LINE
5
130
100
AcDbEntity
8
0
100
AcDbLine
10
-27.326136363636316
20
-5.4906319665076886
30
0
11
-24.810227272727232
21
-5.4906319665076886
31
-1.3096323621833204e-31
0
LINE
5
131
100
AcDbEntity
8
0
100
AcDbLine
10
-24.810227272727232
20
-5.4906319665076886
30
0
11
-24.810227272727232
21
-6.0780017083317883
31
1.7347234759768071e-17
0
LINE
5
132
100
AcDbEntity
8
0
100
AcDbLine
10
-24.810227272727232
20
-6.0780017083317972
30
0
11
-2.6168722970252301
21
-6.0780017083317972
31
0
0
LINE
5
133
100
AcDbEntity
8
0
100
AcDbLine
10
-2.6168722970252301
20
-6.0780017083317972
30
0
11
-2.6168722970252301
21
-6.7888003366518213
31
0
0
LINE
5
134
100
AcDbEntity
8
0
100
AcDbLine
10
-2.6168722970252301
20
-6.7888003366518213
30
0
11
3.4581277029747604
21
-6.7888003366518213
31
1.2325951644078309e-31
0
LINE
5
135
100
AcDbEntity
8
0
100
AcDbLine
10
3.4581277029747692
20
-6.7888003366518301
30
0
11
3.4581277029747692
21
-6.078001708331815
31
0
0
ENDSEC
0
SECTION
2
OBJECTS
0
DICTIONARY
5
C
100
AcDbDictionary
3
ACAD_GROUP
350
D
3
ACAD_MLINESTYLE
350
17
0
DICTIONARY
5
D
100
AcDbDictionary
0
DICTIONARY
5
1A
330
C
100
AcDbDictionary
0
DICTIONARY
5
17
100
AcDbDictionary
0
ENDSEC
0
EOF
