0
SECTION
2
HEADER
9
$INSUNITS
70
4
9
$ACADVER
1
AC1014
9
$HANDSEED
5
FFFF
0
ENDSEC
0
SECTION
2
TABLES
0
TABLE
2
VPORT
5
8
100
AcDbSymbolTable
0
ENDTAB
0
TABLE
2
LTYPE
5
5
100
AcDbSymbolTable
0
LTYPE
5
14
100
AcDbSymbolTableRecord
100
AcDbLinetypeTableRecord
2
BYBLOCK
70
0
0
LTYPE
5
15
100
AcDbSymbolTableRecord
100
AcDbLinetypeTableRecord
2
BYLAYER
70
0
0
ENDTAB
0
TABLE
2
LAYER
5
2
100
AcDbSymbolTable
70
2
0
LAYER
5
50
100
AcDbSymbolTableRecord
100
AcDbLayerTableRecord
2
0
70
0
6
CONTINUOUS
0
ENDTAB
0
TABLE
2
STYLE
5
3
100
AcDbSymbolTable
70
1
0
STYLE
5
11
100
AcDbSymbolTableRecord
100
AcDbTextStyleTableRecord
2
STANDARD
70
0
0
ENDTAB
0
TABLE
2
VIEW
5
6
100
AcDbSymbolTable
70
0
0
ENDTAB
0
TABLE
2
UCS
5
7
100
AcDbSymbolTable
70
0
0
ENDTAB
0
TABLE
2
APPID
5
9
100
AcDbSymbolTable
70
2
0
APPID
5
12
100
AcDbSymbolTableRecord
100
AcDbRegAppTableRecord
2
ACAD
70
0
0
ENDTAB
0
TABLE
2
DIMSTYLE
5
A
100
AcDbSymbolTable
70
1
0
ENDTAB
0
TABLE
2
BLOCK_RECORD
5
1
100
AcDbSymbolTable
70
1
0
BLOCK_RECORD
5
1F
100
AcDbSymbolTableRecord
100
AcDbBlockTableRecord
2
*MODEL_SPACE
0
BLOCK_RECORD
5
1B
100
AcDbSymbolTableRecord
100
AcDbBlockTableRecord
2
*PAPER_SPACE
0
ENDTAB
0
ENDSEC
0
SECTION
2
BLOCKS
0
BLOCK
5
20
100
AcDbEntity
100
AcDbBlockBegin
2
*MODEL_SPACE
0
ENDBLK
5
21
100
AcDbEntity
100
AcDbBlockEnd
0
BLOCK
5
1C
100
AcDbEntity
100
AcDbBlockBegin
2
*PAPER_SPACE
0
ENDBLK
5
1D
100
AcDbEntity
100
AcDbBlockEnd
0
ENDSEC
0
SECTION
2
ENTITIES
0
LINE
5
100
100
AcDbEntity
8
0
100
AcDbLine
10
-3.4147727272727257
20
5.0278380959156133
30
0
11
-3.4147727272727257
21
6.8115426223518805
31
0
0
LINE
5
101
100
AcDbEntity
8
0
100
AcDbLine
10
-3.4147727272727257
20
6.8115426223518805
30
0
11
-13.285227272727266
21
6.8115426223518893
31
0
0
LINE
5
102
100
AcDbEntity
8
0
100
AcDbLine
10
-13.28522727272726
20
6.8115426223518893
30
0
11
-13.285227272727255
21
5.2115426223518879
31
0
0
LINE
5
103
100
AcDbEntity
8
0
100
AcDbLine
10
-13.285227272727255
20
5.2115426223518879
30
0
11
-15.310227272727243
21
5.2115426223518879
31
0
0
LINE
5
104
100
AcDbEntity
8
0
100
AcDbLine
10
-15.310227272727243
20
5.2115426223518879
30
0
11
-15.310227272727248
21
6.8115426223518893
31
0
0
LINE
5
105
100
AcDbEntity
8
0
100
AcDbLine
10
-15.310227272727248
20
6.8115426223518893
30
0
11
-15.697727272727242
21
6.8115426223518893
31
0
0
ARC
5
106
100
AcDbEntity
8
0
100
AcDbCircle
10
-15.697727272727242
20
6.4240426223518865
30
0
40
0.38750000000000284
210
0
220
-0
230
1
100
AcDbArc
50
90
51
180
0
LINE
5
107
100
AcDbEntity
8
0
100
AcDbLine
10
-16.085227272727245
20
6.4240426223518865
30
0
11
-16.085227272727245
21
5.4974838718161312
31
0
0
LINE
5
108
100
AcDbEntity
8
0
100
AcDbLine
10
-16.085227272727245
20
5.4974838718161312
30
0
11
-16.397727272727245
21
5.4974838718161267
31
0
0
ARC
5
109
100
AcDbEntity
8
0
100
AcDbCircle
10
-16.397727272727241
20
5.1099838718161239
30
0
40
0.38750000000000284
210
0
220
0
230
1
100
AcDbArc
50
90.000000000000526
51
180
0
LINE
5
110
100
AcDbEntity
8
0
100
AcDbLine
10
-16.785227272727244
20
5.1099838718161239
30
0
11
-16.785227272727244
21
4.1707049577056088
31
0
0
LINE
5
111
100
AcDbEntity
8
0
100
AcDbLine
10
-16.785227272727244
20
4.1707049577056088
30
0
11
-9.5152816808361695
21
-0.39289033490244929
31
0
0
LINE
5
112
100
AcDbEntity
8
0
100
AcDbLine
10
-9.5152816808361695
20
-0.39289033490244929
30
0
11
-9.8874460087962426
21
-0.98575938704973165
31
0
0
LINE
5
113
100
AcDbEntity
8
0
100
AcDbLine
10
-9.8874460087962426
20
-0.98575938704973165
30
0
11
-5.5380474852895478
21
-3.7160266740141745
31
0
0
LINE
5
114
100
AcDbEntity
8
0
100
AcDbLine
10
-5.5380474852895523
20
-3.7160266740141701
30
0
11
-5.1658831573294739
21
-3.1231576218668877
31
0
0
LINE
5
115
100
AcDbEntity
8
0
100
AcDbLine
10
-5.1658831573294739
20
-3.1231576218668877
30
0
11
0.70982591768558922
21
-6.8115426223518938
31
0
0
LINE
5
116
100
AcDbEntity
8
0
100
AcDbLine
10
0.70982591768559367
20
-6.8115426223518938
30
0
11
11.425325490482541
21
-6.8115426223518938
31
0
0
LINE
5
117
100
AcDbEntity
8
0
100
AcDbLine
10
11.425325490482541
20
-6.8115426223518938
30
0
11
11.425325490482541
21
-0.97560863694482691
31
0
0
LINE
5
118
100
AcDbEntity
8
0
100
AcDbLine
10
11.425325490482532
20
-0.97560863694483135
30
0
11
16.785227272727248
21
-0.97560863694482258
31
0
0
LINE
5
119
100
AcDbEntity
8
0
100
AcDbLine
10
16.785227272727248
20
-0.97560863694482247
30
0
11
16.785227272727248
21
1.6132372158383701
31
0
0
LINE
5
120
100
AcDbEntity
8
0
100
AcDbLine
10
16.785227272727248
20
1.6132372158383701
30
0
11
16.085227272727245
21
1.6132372158383701
31
0
0
LINE
5
121
100
AcDbEntity
8
0
100
AcDbLine
10
16.085227272727245
20
1.6132372158383701
30
0
11
16.085227272727245
21
5.2700388306922674
31
0
0
LINE
5
122
100
AcDbEntity
8
0
100
AcDbLine
10
16.085227272727245
20
5.2700388306922674
30
0
11
11.425325490482523
21
5.2700388306922585
31
0
0
LINE
5
123
100
AcDbEntity
8
0
100
AcDbLine
10
11.425325490482523
20
5.2700388306922585
30
0
11
11.425325490482523
21
6.8115426223518805
31
0
0
LINE
5
124
100
AcDbEntity
8
0
100
AcDbLine
10
11.425325490482523
20
6.8115426223518805
30
0
11
7.4602272727272556
21
6.8115426223518805
31
0
0
LINE
5
125
100
AcDbEntity
8
0
100
AcDbLine
10
7.4602272727272556
20
6.8115426223518805
30
0
11
7.4602272727272556
21
5.0278380959156177
31
0
0
LINE
5
126
100
AcDbEntity
8
0
100
AcDbLine
10
7.4602272727272556
20
5.0278380959156177
30
0
11
6.8352272727272556
21
5.0278380959156133
31
0
0
LINE
5
127
100
AcDbEntity
8
0
100
AcDbLine
10
6.8352272727272556
20
5.0278380959156133
30
0
11
6.8352272727272556
21
6.811542622351876
31
0
0
LINE
5
128
100
AcDbEntity
8
0
100
AcDbLine
10
6.8352272727272556
20
6.811542622351876
30
0
11
-2.7897727272727213
21
6.8115426223518805
31
0
0
LINE
5
129
100
AcDbEntity
8
0
100
AcDbLine
10
-2.7897727272727169
20
6.8115426223518805
30
0
11
-2.7897727272727257
21
5.0278380959156177
31
0
0
LINE
5
130
100
AcDbEntity
8
0
100
AcDbLine
10
-2.7897727272727257
20
5.0278380959156177
30
0
11
-3.4147727272727257
21
5.0278380959156133
31
0
0
ENDSEC
0
SECTION
2
OBJECTS
0
DICTIONARY
5
C
100
AcDbDictionary
3
ACAD_GROUP
350
D
3
ACAD_MLINESTYLE
350
17
0
DICTIONARY
5
D
100
AcDbDictionary
0
DICTIONARY
5
1A
330
C
100
AcDbDictionary
0
DICTIONARY
5
17
100
AcDbDictionary
0
ENDSEC
0
EOF
