0
SECTION
2
HEADER
9
$INSUNITS
70
4
9
$ACADVER
1
AC1014
9
$HANDSEED
5
FFFF
0
ENDSEC
0
SECTION
2
TABLES
0
TABLE
2
VPORT
5
8
100
AcDbSymbolTable
0
ENDTAB
0
TABLE
2
LTYPE
5
5
100
AcDbSymbolTable
0
LTYPE
5
14
100
AcDbSymbolTableRecord
100
AcDbLinetypeTableRecord
2
BYBLOCK
70
0
0
LTYPE
5
15
100
AcDbSymbolTableRecord
100
AcDbLinetypeTableRecord
2
BYLAYER
70
0
0
ENDTAB
0
TABLE
2
LAYER
5
2
100
AcDbSymbolTable
70
2
0
LAYER
5
50
100
AcDbSymbolTableRecord
100
AcDbLayerTableRecord
2
0
70
0
6
CONTINUOUS
0
ENDTAB
0
TABLE
2
STYLE
5
3
100
AcDbSymbolTable
70
1
0
STYLE
5
11
100
AcDbSymbolTableRecord
100
AcDbTextStyleTableRecord
2
STANDARD
70
0
0
ENDTAB
0
TABLE
2
VIEW
5
6
100
AcDbSymbolTable
70
0
0
ENDTAB
0
TABLE
2
UCS
5
7
100
AcDbSymbolTable
70
0
0
ENDTAB
0
TABLE
2
APPID
5
9
100
AcDbSymbolTable
70
2
0
APPID
5
12
100
AcDbSymbolTableRecord
100
AcDbRegAppTableRecord
2
ACAD
70
0
0
ENDTAB
0
TABLE
2
DIMSTYLE
5
A
100
AcDbSymbolTable
70
1
0
ENDTAB
0
TABLE
2
BLOCK_RECORD
5
1
100
AcDbSymbolTable
70
1
0
BLOCK_RECORD
5
1F
100
AcDbSymbolTableRecord
100
AcDbBlockTableRecord
2
*MODEL_SPACE
0
BLOCK_RECORD
5
1B
100
AcDbSymbolTableRecord
100
AcDbBlockTableRecord
2
*PAPER_SPACE
0
ENDTAB
0
ENDSEC
0
SECTION
2
BLOCKS
0
BLOCK
5
20
100
AcDbEntity
100
AcDbBlockBegin
2
*MODEL_SPACE
0
ENDBLK
5
21
100
AcDbEntity
100
AcDbBlockEnd
0
BLOCK
5
1C
100
AcDbEntity
100
AcDbBlockBegin
2
*PAPER_SPACE
0
ENDBLK
5
1D
100
AcDbEntity
100
AcDbBlockEnd
0
ENDSEC
0
SECTION
2
ENTITIES
0
LINE
5
100
100
AcDbEntity
8
0
100
AcDbLine
10
-24.405511471102539
20
-18.867045454545433
30
0
11
-30.330511471102525
21
-18.86704545454543
31
0
0
LINE
5
101
100
AcDbEntity
8
0
100
AcDbLine
10
-30.330511471102525
20
-18.86704545454543
30
0
11
-30.330511471102515
21
-18.242045454545433
31
0
0
LINE
5
102
100
AcDbEntity
8
0
100
AcDbLine
10
-30.330511471102515
20
-18.242045454545433
30
0
11
-24.405511471102539
21
-18.242045454545437
31
0
0
LINE
5
103
100
AcDbEntity
8
0
100
AcDbLine
10
-24.405511471102539
20
-18.242045454545437
30
0
11
-24.405511471102539
21
-18.867045454545433
31
0
0
LINE
5
104
100
AcDbEntity
8
0
100
AcDbLine
10
30.059610917148412
20
-18.24204545454543
30
0
11
30.059610917148412
21
-18.867045454545426
31
0
0
LINE
5
105
100
AcDbEntity
8
0
100
AcDbLine
10
30.059610917148412
20
-18.867045454545426
30
0
11
24.134610917148436
21
-18.867045454545426
31
0
0
LINE
5
106
100
AcDbEntity
8
0
100
AcDbLine
10
24.134610917148436
20
-18.867045454545426
30
0
11
24.134610917148436
21
-18.24204545454543
31
0
0
LINE
5
107
100
AcDbEntity
8
0
100
AcDbLine
10
24.134610917148436
20
-18.24204545454543
30
0
11
30.059610917148412
21
-18.24204545454543
31
0
0
LINE
5
108
100
AcDbEntity
8
0
100
AcDbLine
10
47.901136363636297
20
-0.89445478754320851
30
0
11
47.901136363636297
21
19.60568181818179
31
0
0
LINE
5
109
100
AcDbEntity
8
0
100
AcDbLine
10
47.901136363636297
20
19.60568181818179
30
0
11
46.816761058720516
21
19.605681818181786
31
0
0
LINE
5
110
100
AcDbEntity
8
0
100
AcDbLine
10
46.816761058720516
20
19.605681818181786
30
0
11
46.816761058720516
21
17.796590909090881
31
0
0
LINE
5
111
100
AcDbEntity
8
0
100
AcDbLine
10
46.816761058720516
20
17.796590909090881
30
0
11
46.191761058720516
21
17.796590909090881
31
0
0
LINE
5
112
100
AcDbEntity
8
0
100
AcDbLine
10
46.191761058720516
20
17.796590909090881
30
0
11
46.191761058720516
21
19.605681818181786
31
0
0
LINE
5
113
100
AcDbEntity
8
0
100
AcDbLine
10
46.191761058720516
20
19.605681818181786
30
0
11
36.630681818181756
21
19.605681818181786
31
0
0
LINE
5
114
100
AcDbEntity
8
0
100
AcDbLine
10
36.630681818181756
20
19.605681818181786
30
0
11
36.630681818181756
21
17.796590909090881
31
0
0
LINE
5
115
100
AcDbEntity
8
0
100
AcDbLine
10
36.630681818181756
20
17.796590909090881
30
0
11
36.005681818181756
21
17.796590909090881
31
0
0
LINE
5
116
100
AcDbEntity
8
0
100
AcDbLine
10
36.005681818181756
20
17.796590909090881
30
0
11
36.005681818181756
21
19.605681818181786
31
0
0
LINE
5
117
100
AcDbEntity
8
0
100
AcDbLine
10
36.005681818181756
20
19.605681818181786
30
0
11
26.380681818181788
21
19.605681818181786
31
0
0
LINE
5
118
100
AcDbEntity
8
0
100
AcDbLine
10
26.380681818181788
20
19.605681818181786
30
0
11
26.380681818181788
21
17.796590909090881
31
0
0
LINE
5
119
100
AcDbEntity
8
0
100
AcDbLine
10
26.380681818181788
20
17.796590909090881
30
0
11
25.755681818181788
21
17.796590909090881
31
0
0
LINE
5
120
100
AcDbEntity
8
0
100
AcDbLine
10
25.755681818181788
20
17.796590909090881
30
0
11
25.755681818181788
21
19.605681818181786
31
0
0
LINE
5
121
100
AcDbEntity
8
0
100
AcDbLine
10
25.755681818181788
20
19.605681818181786
30
0
11
17.130681818181799
21
19.605681818181786
31
0
0
LINE
5
122
100
AcDbEntity
8
0
100
AcDbLine
10
17.130681818181799
20
19.605681818181786
30
0
11
17.130681818181799
21
17.796590909090881
31
0
0
LINE
5
123
100
AcDbEntity
8
0
100
AcDbLine
10
17.130681818181799
20
17.796590909090881
30
0
11
16.505681818181799
21
17.796590909090881
31
0
0
LINE
5
124
100
AcDbEntity
8
0
100
AcDbLine
10
16.505681818181799
20
17.796590909090881
30
0
11
16.505681818181799
21
19.605681818181786
31
0
0
LINE
5
125
100
AcDbEntity
8
0
100
AcDbLine
10
16.505681818181799
20
19.605681818181786
30
0
11
7.8806818181818095
21
19.605681818181786
31
0
0
LINE
5
126
100
AcDbEntity
8
0
100
AcDbLine
10
7.8806818181818095
20
19.605681818181786
30
0
11
7.8806818181817917
21
17.796590909090881
31
0
0
LINE
5
127
100
AcDbEntity
8
0
100
AcDbLine
10
7.8806818181817917
20
17.796590909090881
30
0
11
7.2556818181817917
21
17.796590909090881
31
0
0
LINE
5
128
100
AcDbEntity
8
0
100
AcDbLine
10
7.2556818181817917
20
17.796590909090881
30
0
11
7.2556818181817917
21
19.605681818181786
31
0
0
LINE
5
129
100
AcDbEntity
8
0
100
AcDbLine
10
7.2556818181817917
20
19.605681818181786
30
0
11
-7.2556818181818095
21
19.605681818181786
31
0
0
LINE
5
130
100
AcDbEntity
8
0
100
AcDbLine
10
-7.2556818181818095
20
19.605681818181782
30
0
11
-7.2556818181818006
21
17.796590909090874
31
0
0
LINE
5
131
100
AcDbEntity
8
0
100
AcDbLine
10
-7.2556818181818006
20
17.796590909090874
30
0
11
-7.8806818181818006
21
17.796590909090874
31
0
0
LINE
5
132
100
AcDbEntity
8
0
100
AcDbLine
10
-7.8806818181818006
20
17.796590909090874
30
0
11
-7.8806818181817917
21
19.605681818181782
31
0
0
LINE
5
133
100
AcDbEntity
8
0
100
AcDbLine
10
-7.8806818181817917
20
19.605681818181782
30
0
11
-16.505681818181781
21
19.605681818181782
31
0
0
LINE
5
134
100
AcDbEntity
8
0
100
AcDbLine
10
-16.505681818181781
20
19.605681818181782
30
0
11
-16.505681818181792
21
17.796590909090874
31
0
0
LINE
5
135
100
AcDbEntity
8
0
100
AcDbLine
10
-16.505681818181792
20
17.796590909090874
30
0
11
-17.130681818181792
21
17.796590909090874
31
0
0
LINE
5
136
100
AcDbEntity
8
0
100
AcDbLine
10
-17.130681818181792
20
17.796590909090874
30
0
11
-17.130681818181792
21
19.605681818181782
31
0
0
LINE
5
137
100
AcDbEntity
8
0
100
AcDbLine
10
-17.130681818181792
20
19.605681818181782
30
0
11
-25.755681818181777
21
19.605681818181782
31
0
0
LINE
5
138
100
AcDbEntity
8
0
100
AcDbLine
10
-25.755681818181777
20
19.605681818181782
30
0
11
-25.755681818181777
21
17.796590909090874
31
0
0
LINE
5
139
100
AcDbEntity
8
0
100
AcDbLine
10
-25.755681818181777
20
17.796590909090874
30
0
11
-26.380681818181777
21
17.796590909090874
31
0
0
LINE
5
140
100
AcDbEntity
8
0
100
AcDbLine
10
-26.380681818181777
20
17.796590909090874
30
0
11
-26.380681818181777
21
19.605681818181782
31
0
0
LINE
5
141
100
AcDbEntity
8
0
100
AcDbLine
10
-26.380681818181777
20
19.605681818181782
30
0
11
-36.005681818181749
21
19.605681818181782
31
0
0
LINE
5
142
100
AcDbEntity
8
0
100
AcDbLine
10
-36.005681818181742
20
19.605681818181782
30
0
11
-36.005681818181763
21
17.796590909090874
31
0
0
LINE
5
143
100
AcDbEntity
8
0
100
AcDbLine
10
-36.005681818181763
20
17.796590909090874
30
0
11
-36.630681818181763
21
17.796590909090874
31
0
0
LINE
5
144
100
AcDbEntity
8
0
100
AcDbLine
10
-36.630681818181763
20
17.796590909090874
30
0
11
-36.630681818181749
21
19.605681818181782
31
0
0
LINE
5
145
100
AcDbEntity
8
0
100
AcDbLine
10
-36.630681818181749
20
19.605681818181782
30
0
11
-46.04176105872051
21
19.605681818181782
31
0
0
LINE
5
146
100
AcDbEntity
8
0
100
AcDbLine
10
-46.04176105872051
20
19.605681818181782
30
0
11
-46.041761058720503
21
17.796590909090874
31
0
0
LINE
5
147
100
AcDbEntity
8
0
100
AcDbLine
10
-46.041761058720496
20
17.796590909090874
30
0
11
-46.666761058720496
21
17.796590909090874
31
0
0
LINE
5
148
100
AcDbEntity
8
0
100
AcDbLine
10
-46.666761058720496
20
17.796590909090874
30
0
11
-46.666761058720503
21
19.605681818181782
31
0
0
LINE
5
149
100
AcDbEntity
8
0
100
AcDbLine
10
-46.666761058720496
20
19.605681818181782
30
0
11
-47.901136363636283
21
19.605681818181782
31
0
0
LINE
5
150
100
AcDbEntity
8
0
100
AcDbLine
10
-47.901136363636283
20
19.605681818181782
30
0
11
-47.901136363636283
21
-0.89445478754321961
31
0
0
LINE
5
151
100
AcDbEntity
8
0
100
AcDbLine
10
-47.901136363636283
20
-0.89445478754321961
30
0
11
-47.20113636363628
21
-0.89445478754321517
31
0
0
LINE
5
152
100
AcDbEntity
8
0
100
AcDbLine
10
-47.201136363636287
20
-0.89445478754321517
30
0
11
-47.201136363636294
21
-2.8194547875432097
31
0
0
LINE
5
153
100
AcDbEntity
8
0
100
AcDbLine
10
-47.201136363636294
20
-2.8194547875432097
30
0
11
-47.901136363636297
21
-2.8194547875432097
31
0
0
LINE
5
154
100
AcDbEntity
8
0
100
AcDbLine
10
-47.90113636363629
20
-2.8194547875432097
30
0
11
-47.90113636363629
21
-19.605681818181793
31
0
0
LINE
5
155
100
AcDbEntity
8
0
100
AcDbLine
10
-47.901136363636283
20
-19.605681818181793
30
0
11
47.901136363636319
21
-19.605681818181793
31
0
0
LINE
5
156
100
AcDbEntity
8
0
100
AcDbLine
10
47.901136363636319
20
-19.605681818181793
30
0
11
47.901136363636297
21
-2.8194547875432097
31
0
0
LINE
5
157
100
AcDbEntity
8
0
100
AcDbLine
10
47.901136363636297
20
-2.8194547875432074
30
0
11
47.201136363636294
21
-2.8194547875432052
31
0
0
LINE
5
158
100
AcDbEntity
8
0
100
AcDbLine
10
47.201136363636294
20
-2.8194547875432052
30
0
11
47.201136363636294
21
-0.89445478754320851
31
0
0
LINE
5
159
100
AcDbEntity
8
0
100
AcDbLine
10
47.201136363636294
20
-0.89445478754320851
30
0
11
47.901136363636297
21
-0.89445478754320851
31
0
0
LINE
5
160
100
AcDbEntity
8
0
100
AcDbLine
10
-2.4624999999999897
20
4.8784090909090683
30
0
11
-2.4624999999999888
21
12.842135753063681
31
0
0
ARC
5
161
100
AcDbEntity
8
0
100
AcDbCircle
10
0
20
4.8409090909090624
30
0
40
8.37159090909093
210
0
220
-0
230
1
100
AcDbArc
50
72.893450160890879
51
107.10654983910902
0
LINE
5
162
100
AcDbEntity
8
0
100
AcDbLine
10
2.4624999999999986
20
12.842135753063681
30
0
11
2.4624999999999977
21
4.8784090909090683
31
0
0
LINE
5
163
100
AcDbEntity
8
0
100
AcDbLine
10
2.4624999999999986
20
4.8784090909090683
30
0
11
-2.4624999999999897
21
4.8784090909090727
31
0
0
LINE
5
164
100
AcDbEntity
8
0
100
AcDbLine
10
-39.235227272727215
20
-18.167045454545438
30
0
11
-39.235227272727208
21
-3.1695872617818921
31
0
0
LINE
5
165
100
AcDbEntity
8
0
100
AcDbLine
10
-33.401136363636319
20
-18.167045454545434
30
0
11
-39.235227272727215
21
-18.167045454545438
31
0
0
LINE
5
166
100
AcDbEntity
8
0
100
AcDbLine
10
-33.401136363636311
20
-3.1695872617818854
30
0
11
-33.401136363636319
21
-18.167045454545434
31
0
0
ARC
5
167
100
AcDbEntity
8
0
100
AcDbCircle
10
-36.318181818181749
20
-14.113636363636351
30
0
40
11.326136363636355
210
0
220
-0
230
1
100
AcDbArc
50
75.07526772550284
51
104.92473227449716
0
LINE
5
168
100
AcDbEntity
8
0
100
AcDbLine
10
-13.673863636363608
20
-18.167045454545423
30
0
11
-19.962499999999963
21
-18.167045454545423
31
0
0
LINE
5
169
100
AcDbEntity
8
0
100
AcDbLine
10
-13.673863636363608
20
-3.2327068032001849
30
0
11
-13.67386363636361
21
-18.167045454545423
31
0
0
ARC
5
170
100
AcDbEntity
8
0
100
AcDbCircle
10
-16.81818181818177
20
-14.113636363636349
30
0
40
11.326136363636358
210
0
220
-0
230
1
100
AcDbArc
50
73.882020518943719
51
106.11797948105639
0
LINE
5
171
100
AcDbEntity
8
0
100
AcDbLine
10
-19.962499999999963
20
-18.167045454545423
30
0
11
-19.962499999999959
21
-3.2327068032001938
31
0
0
LINE
5
172
100
AcDbEntity
8
0
100
AcDbLine
10
-27.401136363636329
20
2.2397755853937751
30
0
11
-27.401136363636319
21
-14.076136363636349
31
0
0
LINE
5
173
100
AcDbEntity
8
0
100
AcDbLine
10
-27.401136363636319
20
-14.076136363636348
30
0
11
-32.417045454545402
21
-14.076136363636348
31
0
0
LINE
5
174
100
AcDbEntity
8
0
100
AcDbLine
10
-32.417045454545402
20
-14.076136363636348
30
0
11
-32.417045454545402
21
-4.087402086751533
31
0
0
LINE
5
175
100
AcDbEntity
8
0
100
AcDbLine
10
-32.417045454545402
20
-4.087402086751533
30
0
11
-32.114015151515105
21
-4.0874020867515277
31
0
0
LINE
5
176
100
AcDbEntity
8
0
100
AcDbLine
10
-32.114015151515105
20
-4.0874020867515277
30
0
11
-32.114015151515105
21
-2.0610679478249616
31
0
0
ARC
5
177
100
AcDbEntity
8
0
100
AcDbCircle
10
-36.318181818181749
20
-14.113636363636351
30
0
40
12.764772727272717
210
0
220
-0
230
1
100
AcDbArc
50
70.770250113112652
51
109.22974988688733
0
LINE
5
178
100
AcDbEntity
8
0
100
AcDbLine
10
-40.522348484848422
20
-2.0610679478249683
30
0
11
-40.522348484848422
21
-4.0874020867515348
31
0
0
LINE
5
179
100
AcDbEntity
8
0
100
AcDbLine
10
-40.522348484848422
20
-4.0874020867515348
30
0
11
-40.219318181818117
21
-4.0874020867515348
31
0
0
LINE
5
180
100
AcDbEntity
8
0
100
AcDbLine
10
-40.21931818181811
20
-4.0874020867515348
30
0
11
-40.219318181818117
21
-14.076136363636348
31
0
0
LINE
5
181
100
AcDbEntity
8
0
100
AcDbLine
10
-40.219318181818124
20
-14.076136363636348
30
0
11
-45.235227272727201
21
-14.076136363636349
31
0
0
LINE
5
182
100
AcDbEntity
8
0
100
AcDbLine
10
-45.235227272727201
20
-14.076136363636348
30
0
11
-45.235227272727194
21
2.4393507297373018
31
0
0
LINE
5
183
100
AcDbEntity
8
0
100
AcDbLine
10
-45.235227272727201
20
2.4393507297373018
30
0
11
-27.401136363636329
21
2.2397755853937755
31
0
0
ARC
5
184
100
AcDbEntity
8
0
100
AcDbCircle
10
16.818181818181781
20
4.8409090909090002
30
0
40
9.8102272727273281
210
0
220
-0
230
1
100
AcDbArc
50
67.529014654969728
51
112.47098534503002
0
LINE
5
185
100
AcDbEntity
8
0
100
AcDbLine
10
13.068560606060569
20
13.90627725266469
30
0
11
13.068560606060551
21
11.923191696661659
31
0
0
LINE
5
186
100
AcDbEntity
8
0
100
AcDbLine
10
13.068560606060551
20
11.923191696661659
30
0
11
13.371590909090862
21
11.923191696661659
31
0
0
LINE
5
187
100
AcDbEntity
8
0
100
AcDbLine
10
13.371590909090862
20
11.923191696661659
30
0
11
13.371590909090862
21
3.6965909090908999
31
0
0
LINE
5
188
100
AcDbEntity
8
0
100
AcDbLine
10
13.371590909090862
20
3.6965909090908999
30
0
11
3.4465909090909186
21
3.6965909090908955
31
0
0
LINE
5
189
100
AcDbEntity
8
0
100
AcDbLine
10
3.4465909090909186
20
3.6965909090908955
30
0
11
3.446590909090919
21
11.923191696661677
31
0
0
LINE
5
190
100
AcDbEntity
8
0
100
AcDbLine
10
3.4465909090909186
20
11.923191696661677
30
0
11
3.7496212121212302
21
11.923191696661677
31
0
0
LINE
5
191
100
AcDbEntity
8
0
100
AcDbLine
10
3.7496212121212302
20
11.923191696661677
30
0
11
3.7496212121212302
21
13.906277252664712
31
0
0
ARC
5
192
100
AcDbEntity
8
0
100
AcDbCircle
10
0
20
4.8409090909090624
30
0
40
9.8102272727272961
210
0
220
-0
230
1
100
AcDbArc
50
67.529014654969771
51
112.47098534503003
0
LINE
5
193
100
AcDbEntity
8
0
100
AcDbLine
10
-3.7496212121212036
20
13.906277252664726
30
0
11
-3.7496212121212036
21
11.923191696661677
31
0
0
LINE
5
194
100
AcDbEntity
8
0
100
AcDbLine
10
-3.7496212121212036
20
11.923191696661677
30
0
11
-3.4465909090909008
21
11.923191696661672
31
0
0
LINE
5
195
100
AcDbEntity
8
0
100
AcDbLine
10
-3.4465909090909008
20
11.923191696661672
30
0
11
-3.4465909090909013
21
3.6965909090908911
31
0
0
LINE
5
196
100
AcDbEntity
8
0
100
AcDbLine
10
-3.4465909090909008
20
3.6965909090908911
30
0
11
-13.371590909090862
21
3.6965909090908911
31
0
0
LINE
5
197
100
AcDbEntity
8
0
100
AcDbLine
10
-13.371590909090862
20
3.6965909090908911
30
0
11
-13.371590909090862
21
11.923191696661647
31
0
0
LINE
5
198
100
AcDbEntity
8
0
100
AcDbLine
10
-13.371590909090862
20
11.923191696661647
30
0
11
-13.06856060606056
21
11.923191696661647
31
0
0
LINE
5
199
100
AcDbEntity
8
0
100
AcDbLine
10
-13.06856060606056
20
11.923191696661647
30
0
11
-13.068560606060569
21
13.906277252664697
31
0
0
ARC
5
200
100
AcDbEntity
8
0
100
AcDbCircle
10
-16.81818181818177
20
4.8409090909090224
30
0
40
9.8102272727273139
210
0
220
-0
230
1
100
AcDbArc
50
67.529014654969984
51
112.47098534503014
0
LINE
5
201
100
AcDbEntity
8
0
100
AcDbLine
10
-20.567803030302994
20
13.90627725266469
30
0
11
-20.567803030302976
21
11.923191696661647
31
0
0
LINE
5
202
100
AcDbEntity
8
0
100
AcDbLine
10
-20.567803030302976
20
11.923191696661647
30
0
11
-20.264772727272693
21
11.923191696661647
31
0
0
LINE
5
203
100
AcDbEntity
8
0
100
AcDbLine
10
-20.264772727272693
20
11.923191696661647
30
0
11
-20.264772727272671
21
3.6965909090908911
31
0
0
LINE
5
204
100
AcDbEntity
8
0
100
AcDbLine
10
-20.264772727272671
20
3.6965909090908911
30
0
11
-24.735227272727229
21
3.6965909090908911
31
0
0
LINE
5
205
100
AcDbEntity
8
0
100
AcDbLine
10
-24.735227272727229
20
3.6965909090908911
30
0
11
-24.735227272727229
21
16.121590909090877
31
0
0
LINE
5
206
100
AcDbEntity
8
0
100
AcDbLine
10
-24.735227272727229
20
16.121590909090877
30
0
11
-5.845896177099732
21
16.12159090909087
31
0
0
LINE
5
207
100
AcDbEntity
8
0
100
AcDbLine
10
-5.845896177099732
20
16.12159090909087
30
0
11
-5.8458961770997409
21
16.279229691723582
31
0
0
LINE
5
208
100
AcDbEntity
8
0
100
AcDbLine
10
-5.8458961770997409
20
16.279229691723582
30
0
11
5.845896177099732
21
16.279229691723586
31
0
0
LINE
5
209
100
AcDbEntity
8
0
100
AcDbLine
10
5.845896177099732
20
16.279229691723593
30
0
11
5.8458961770997497
21
16.121590909090884
31
0
0
LINE
5
210
100
AcDbEntity
8
0
100
AcDbLine
10
5.8458961770997497
20
16.121590909090884
30
0
11
24.735227272727247
21
16.121590909090884
31
0
0
LINE
5
211
100
AcDbEntity
8
0
100
AcDbLine
10
24.735227272727247
20
16.121590909090884
30
0
11
24.735227272727229
21
3.6965909090908955
31
0
0
LINE
5
212
100
AcDbEntity
8
0
100
AcDbLine
10
24.735227272727229
20
3.6965909090908955
30
0
11
20.2647727272727
21
3.6965909090908955
31
0
0
LINE
5
213
100
AcDbEntity
8
0
100
AcDbLine
10
20.2647727272727
20
3.6965909090908955
30
0
11
20.2647727272727
21
11.92319169666165
31
0
0
LINE
5
214
100
AcDbEntity
8
0
100
AcDbLine
10
20.2647727272727
20
11.92319169666165
30
0
11
20.567803030303011
21
11.92319169666165
31
0
0
LINE
5
215
100
AcDbEntity
8
0
100
AcDbLine
10
20.567803030303011
20
11.92319169666165
30
0
11
20.567803030303029
21
13.906277252664673
31
0
0
LINE
5
216
100
AcDbEntity
8
0
100
AcDbLine
10
13.673863636363617
20
-18.167045454545423
30
0
11
13.673863636363619
21
-3.2327068032001871
31
0
0
LINE
5
217
100
AcDbEntity
8
0
100
AcDbLine
10
19.962499999999963
20
-18.167045454545423
30
0
11
13.673863636363617
21
-18.167045454545423
31
0
0
LINE
5
218
100
AcDbEntity
8
0
100
AcDbLine
10
19.962499999999981
20
-3.2327068032001982
30
0
11
19.962499999999959
21
-18.167045454545423
31
0
0
ARC
5
219
100
AcDbEntity
8
0
100
AcDbCircle
10
16.818181818181781
20
-14.113636363636349
30
0
40
11.326136363636355
210
0
220
-0
230
1
100
AcDbArc
50
73.882020518943534
51
106.11797948105618
0
LINE
5
220
100
AcDbEntity
8
0
100
AcDbLine
10
-27.401136363636319
20
16.12159090909087
30
0
11
-27.401136363636319
21
3.6965909090908866
31
0
0
LINE
5
221
100
AcDbEntity
8
0
100
AcDbLine
10
-27.401136363636319
20
3.6965909090908866
30
0
11
-32.871590909090855
21
3.6965909090908911
31
0
0
LINE
5
222
100
AcDbEntity
8
0
100
AcDbLine
10
-32.871590909090855
20
3.6965909090908911
30
0
11
-32.871590909090855
21
11.923191696661647
31
0
0
LINE
5
223
100
AcDbEntity
8
0
100
AcDbLine
10
-32.871590909090855
20
11.923191696661647
30
0
11
-32.568560606060551
21
11.923191696661647
31
0
0
LINE
5
224
100
AcDbEntity
8
0
100
AcDbLine
10
-32.568560606060551
20
11.923191696661647
30
0
11
-32.568560606060551
21
13.906277252664694
31
0
0
ARC
5
225
100
AcDbEntity
8
0
100
AcDbCircle
10
-36.318181818181742
20
4.8409090909090224
30
0
40
9.810227272727305
210
0
220
-0
230
1
100
AcDbArc
50
67.529014654970055
51
112.47098534503013
0
LINE
5
226
100
AcDbEntity
8
0
100
AcDbLine
10
-40.067803030302962
20
13.906277252664685
30
0
11
-40.067803030302962
21
11.923191696661647
31
0
0
LINE
5
227
100
AcDbEntity
8
0
100
AcDbLine
10
-40.067803030302962
20
11.923191696661647
30
0
11
-39.764772727272657
21
11.923191696661647
31
0
0
LINE
5
228
100
AcDbEntity
8
0
100
AcDbLine
10
-39.764772727272657
20
11.923191696661647
30
0
11
-39.764772727272657
21
3.6965909090908911
31
0
0
LINE
5
229
100
AcDbEntity
8
0
100
AcDbLine
10
-39.764772727272664
20
3.6965909090908911
30
0
11
-45.235227272727201
21
3.6965909090908911
31
0
0
LINE
5
230
100
AcDbEntity
8
0
100
AcDbLine
10
-45.235227272727201
20
3.6965909090908911
30
0
11
-45.235227272727194
21
16.121590909090877
31
0
0
LINE
5
231
100
AcDbEntity
8
0
100
AcDbLine
10
-45.235227272727194
20
16.121590909090877
30
0
11
-27.401136363636311
21
16.12159090909087
31
0
0
LINE
5
232
100
AcDbEntity
8
0
100
AcDbLine
10
33.401136363636326
20
-18.167045454545434
30
0
11
33.401136363636326
21
-3.1695872617818877
31
0
0
LINE
5
233
100
AcDbEntity
8
0
100
AcDbLine
10
39.235227272727222
20
-18.167045454545434
30
0
11
33.401136363636326
21
-18.167045454545434
31
0
0
LINE
5
234
100
AcDbEntity
8
0
100
AcDbLine
10
39.235227272727201
20
-3.1695872617818943
30
0
11
39.235227272727222
21
-18.167045454545438
31
0
0
ARC
5
235
100
AcDbEntity
8
0
100
AcDbCircle
10
36.318181818181756
20
-14.11363636363637
30
0
40
11.326136363636373
210
0
220
-0
230
1
100
AcDbArc
50
75.075267725502897
51
104.92473227449703
0
LINE
5
236
100
AcDbEntity
8
0
100
AcDbLine
10
-3.1443181818181731
20
-18.167045454545427
30
0
11
-3.1443181818181811
21
-3.2327068032002026
31
0
0
LINE
5
237
100
AcDbEntity
8
0
100
AcDbLine
10
3.144318181818182
20
-18.167045454545427
30
0
11
-3.1443181818181731
21
-18.167045454545427
31
0
0
LINE
5
238
100
AcDbEntity
8
0
100
AcDbLine
10
3.144318181818182
20
-3.2327068032002026
30
0
11
3.1443181818181811
21
-18.167045454545427
31
0
0
ARC
5
239
100
AcDbEntity
8
0
100
AcDbCircle
10
0
20
-14.113636363636349
30
0
40
11.326136363636346
210
0
220
-0
230
1
100
AcDbArc
50
73.882020518943605
51
106.11797948105639
0
LINE
5
240
100
AcDbEntity
8
0
100
AcDbLine
10
-33.855681818181765
20
4.8784090909090638
30
0
11
-38.780681818181755
21
4.8784090909090683
31
0
0
LINE
5
241
100
AcDbEntity
8
0
100
AcDbLine
10
-33.855681818181758
20
12.842135753063651
30
0
11
-33.855681818181765
21
4.8784090909090638
31
0
0
ARC
5
242
100
AcDbEntity
8
0
100
AcDbCircle
10
-36.318181818181742
20
4.8409090909090224
30
0
40
8.3715909090909371
210
0
220
-0
230
1
100
AcDbArc
50
72.893450160890964
51
107.10654983910914
0
LINE
5
243
100
AcDbEntity
8
0
100
AcDbLine
10
-38.780681818181748
20
4.8784090909090683
30
0
11
-38.780681818181748
21
12.842135753063646
31
0
0
LINE
5
244
100
AcDbEntity
8
0
100
AcDbLine
10
14.355681818181765
20
4.8784090909090772
30
0
11
14.355681818181765
21
12.842135753063651
31
0
0
ARC
5
245
100
AcDbEntity
8
0
100
AcDbCircle
10
16.818181818181781
20
4.8409090909090002
30
0
40
8.3715909090909708
210
0
220
-0
230
1
100
AcDbArc
50
72.89345016089095
51
107.10654983910914
0
LINE
5
246
100
AcDbEntity
8
0
100
AcDbLine
10
19.28068181818178
20
12.842135753063658
30
0
11
19.280681818181762
21
4.8784090909090727
31
0
0
LINE
5
247
100
AcDbEntity
8
0
100
AcDbLine
10
19.280681818181762
20
4.8784090909090727
30
0
11
14.355681818181765
21
4.8784090909090772
31
0
0
LINE
5
248
100
AcDbEntity
8
0
100
AcDbLine
10
24.735227272727229
20
2.4397727272727154
30
0
11
24.735227272727212
21
-14.076136363636344
31
0
0
LINE
5
249
100
AcDbEntity
8
0
100
AcDbLine
10
24.735227272727212
20
-14.076136363636348
30
0
11
20.946590909090883
21
-14.076136363636348
31
0
0
LINE
5
250
100
AcDbEntity
8
0
100
AcDbLine
10
20.946590909090883
20
-14.076136363636348
30
0
11
20.946590909090883
21
-4.1511363636363647
31
0
0
LINE
5
251
100
AcDbEntity
8
0
100
AcDbLine
10
20.946590909090883
20
-4.1511363636363647
30
0
11
21.249621212121195
21
-4.1511363636363647
31
0
0
LINE
5
252
100
AcDbEntity
8
0
100
AcDbLine
10
21.249621212121195
20
-4.1511363636363647
30
0
11
21.249621212121195
21
-2.1427647296755614
31
0
0
ARC
5
253
100
AcDbEntity
8
0
100
AcDbCircle
10
16.818181818181781
20
-14.113636363636349
30
0
40
12.764772727272707
210
0
220
-0
230
1
100
AcDbArc
50
69.686193909571301
51
110.31380609042868
0
LINE
5
254
100
AcDbEntity
8
0
100
AcDbLine
10
12.386742424242367
20
-2.1427647296755592
30
0
11
12.386742424242385
21
-4.1511363636363559
31
0
0
LINE
5
255
100
AcDbEntity
8
0
100
AcDbLine
10
12.386742424242385
20
-4.1511363636363559
30
0
11
12.689772727272697
21
-4.1511363636363559
31
0
0
LINE
5
256
100
AcDbEntity
8
0
100
AcDbLine
10
12.689772727272697
20
-4.1511363636363559
30
0
11
12.689772727272697
21
-14.076136363636348
31
0
0
LINE
5
257
100
AcDbEntity
8
0
100
AcDbLine
10
12.689772727272697
20
-14.076136363636348
30
0
11
4.128409090909102
21
-14.076136363636348
31
0
0
LINE
5
258
100
AcDbEntity
8
0
100
AcDbLine
10
4.128409090909102
20
-14.076136363636348
30
0
11
4.1284090909091029
21
-4.151136363636355
31
0
0
LINE
5
259
100
AcDbEntity
8
0
100
AcDbLine
10
4.128409090909102
20
-4.1511363636363559
30
0
11
4.4314393939394137
21
-4.1511363636363559
31
0
0
LINE
5
260
100
AcDbEntity
8
0
100
AcDbLine
10
4.4314393939394137
20
-4.1511363636363559
30
0
11
4.4314393939394137
21
-2.1427647296755592
31
0
0
ARC
5
261
100
AcDbEntity
8
0
100
AcDbCircle
10
0
20
-14.113636363636349
30
0
40
12.764772727272714
210
0
220
-0
230
1
100
AcDbArc
50
69.686193909571315
51
110.31380609042859
0
LINE
5
262
100
AcDbEntity
8
0
100
AcDbLine
10
-4.4314393939393959
20
-2.1427647296755481
30
0
11
-4.431439393939387
21
-4.1511363636363559
31
0
0
LINE
5
263
100
AcDbEntity
8
0
100
AcDbLine
10
-4.431439393939387
20
-4.1511363636363559
30
0
11
-4.1284090909090843
21
-4.1511363636363559
31
0
0
LINE
5
264
100
AcDbEntity
8
0
100
AcDbLine
10
-4.1284090909090843
20
-4.1511363636363559
30
0
11
-4.1284090909090851
21
-14.076136363636348
31
0
0
LINE
5
265
100
AcDbEntity
8
0
100
AcDbLine
10
-4.1284090909090843
20
-14.076136363636348
30
0
11
-12.689772727272697
21
-14.076136363636348
31
0
0
LINE
5
266
100
AcDbEntity
8
0
100
AcDbLine
10
-12.689772727272697
20
-14.076136363636348
30
0
11
-12.689772727272706
21
-4.1511363636363576
31
0
0
LINE
5
267
100
AcDbEntity
8
0
100
AcDbLine
10
-12.689772727272706
20
-4.1511363636363559
30
0
11
-12.386742424242403
21
-4.1511363636363559
31
0
0
LINE
5
268
100
AcDbEntity
8
0
100
AcDbLine
10
-12.386742424242403
20
-4.1511363636363559
30
0
11
-12.386742424242421
21
-2.1427647296755392
31
0
0
ARC
5
269
100
AcDbEntity
8
0
100
AcDbCircle
10
-16.81818181818177
20
-14.113636363636349
30
0
40
12.764772727272707
210
0
220
-0
230
1
100
AcDbArc
50
69.6861939095716
51
110.3138060904287
0
LINE
5
270
100
AcDbEntity
8
0
100
AcDbLine
10
-21.249621212121184
20
-2.1427647296755614
30
0
11
-21.249621212121177
21
-4.1511363636363674
31
0
0
LINE
5
271
100
AcDbEntity
8
0
100
AcDbLine
10
-21.249621212121177
20
-4.1511363636363674
30
0
11
-20.946590909090872
21
-4.1511363636363674
31
0
0
LINE
5
272
100
AcDbEntity
8
0
100
AcDbLine
10
-20.946590909090872
20
-4.1511363636363674
30
0
11
-20.946590909090872
21
-14.076136363636348
31
0
0
LINE
5
273
100
AcDbEntity
8
0
100
AcDbLine
10
-20.946590909090872
20
-14.076136363636348
30
0
11
-24.735227272727229
21
-14.076136363636349
31
0
0
LINE
5
274
100
AcDbEntity
8
0
100
AcDbLine
10
-24.735227272727229
20
-14.076136363636349
30
0
11
-24.735227272727229
21
2.4397727272727132
31
0
0
LINE
5
275
100
AcDbEntity
8
0
100
AcDbLine
10
-24.735227272727229
20
2.439772727272711
30
0
11
24.735227272727229
21
2.4397727272727123
31
0
0
LINE
5
276
100
AcDbEntity
8
0
100
AcDbLine
10
27.401136363636311
20
-14.076136363636348
30
0
11
27.401136363636329
21
2.4397727272727154
31
0
0
LINE
5
277
100
AcDbEntity
8
0
100
AcDbLine
10
27.401136363636329
20
2.4397727272727154
30
0
11
45.235227272727201
21
2.4397727272727159
31
0
0
LINE
5
278
100
AcDbEntity
8
0
100
AcDbLine
10
45.235227272727201
20
2.4397727272727154
30
0
11
45.235227272727201
21
-14.076136363636344
31
0
0
LINE
5
279
100
AcDbEntity
8
0
100
AcDbLine
10
45.235227272727201
20
-14.076136363636348
30
0
11
40.219318181818124
21
-14.076136363636349
31
0
0
LINE
5
280
100
AcDbEntity
8
0
100
AcDbLine
10
40.219318181818124
20
-14.076136363636348
30
0
11
40.219318181818139
21
-4.0874020867515357
31
0
0
LINE
5
281
100
AcDbEntity
8
0
100
AcDbLine
10
40.219318181818139
20
-4.0874020867515366
30
0
11
40.52234848484845
21
-4.0874020867515366
31
0
0
LINE
5
282
100
AcDbEntity
8
0
100
AcDbLine
10
40.52234848484845
20
-4.0874020867515366
30
0
11
40.52234848484845
21
-2.0610679478249661
31
0
0
ARC
5
283
100
AcDbEntity
8
0
100
AcDbCircle
10
36.318181818181756
20
-14.11363636363637
30
0
40
12.764772727272744
210
0
220
-0
230
1
100
AcDbArc
50
70.770250113112539
51
109.22974988688725
0
LINE
5
284
100
AcDbEntity
8
0
100
AcDbLine
10
32.114015151515112
20
-2.0610679478249572
30
0
11
32.114015151515076
21
-4.0874020867515277
31
0
0
LINE
5
285
100
AcDbEntity
8
0
100
AcDbLine
10
32.114015151515076
20
-4.0874020867515277
30
0
11
32.417045454545402
21
-4.0874020867515277
31
0
0
LINE
5
286
100
AcDbEntity
8
0
100
AcDbLine
10
32.417045454545402
20
-4.0874020867515277
30
0
11
32.417045454545388
21
-14.076136363636348
31
0
0
LINE
5
287
100
AcDbEntity
8
0
100
AcDbLine
10
32.417045454545388
20
-14.076136363636348
30
0
11
27.401136363636311
21
-14.076136363636349
31
0
0
ARC
5
288
100
AcDbEntity
8
0
100
AcDbCircle
10
36.318181818181756
20
4.8409090909090935
30
0
40
8.3715909090908838
210
0
220
-0
230
1
100
AcDbArc
50
72.893450160890808
51
107.10654983910904
0
LINE
5
289
100
AcDbEntity
8
0
100
AcDbLine
10
38.780681818181755
20
12.842135753063658
30
0
11
38.780681818181755
21
4.8784090909090727
31
0
0
LINE
5
290
100
AcDbEntity
8
0
100
AcDbLine
10
38.780681818181755
20
4.8784090909090727
30
0
11
33.855681818181758
21
4.8784090909090772
31
0
0
LINE
5
291
100
AcDbEntity
8
0
100
AcDbLine
10
33.855681818181758
20
4.8784090909090772
30
0
11
33.855681818181779
21
12.842135753063658
31
0
0
LINE
5
292
100
AcDbEntity
8
0
100
AcDbLine
10
-19.280681818181762
20
4.8784090909090683
30
0
11
-19.280681818181762
21
12.842135753063655
31
0
0
LINE
5
293
100
AcDbEntity
8
0
100
AcDbLine
10
-14.355681818181774
20
4.8784090909090638
30
0
11
-19.280681818181762
21
4.8784090909090683
31
0
0
LINE
5
294
100
AcDbEntity
8
0
100
AcDbLine
10
-14.355681818181774
20
12.842135753063651
30
0
11
-14.355681818181774
21
4.8784090909090638
31
0
0
ARC
5
295
100
AcDbEntity
8
0
100
AcDbCircle
10
-16.81818181818177
20
4.8409090909090224
30
0
40
8.3715909090909424
210
0
220
-0
230
1
100
AcDbArc
50
72.893450160890907
51
107.10654983910901
0
LINE
5
296
100
AcDbEntity
8
0
100
AcDbLine
10
45.235227272727201
20
16.121590909090884
30
0
11
45.235227272727201
21
3.6965909090908955
31
0
0
LINE
5
297
100
AcDbEntity
8
0
100
AcDbLine
10
45.235227272727201
20
3.6965909090908955
30
0
11
39.764772727272657
21
3.6965909090908955
31
0
0
LINE
5
298
100
AcDbEntity
8
0
100
AcDbLine
10
39.764772727272657
20
3.6965909090908955
30
0
11
39.764772727272671
21
11.92319169666165
31
0
0
LINE
5
299
100
AcDbEntity
8
0
100
AcDbLine
10
39.764772727272671
20
11.92319169666165
30
0
11
40.067803030302983
21
11.92319169666165
31
0
0
LINE
5
300
100
AcDbEntity
8
0
100
AcDbLine
10
40.067803030302983
20
11.92319169666165
30
0
11
40.067803030302983
21
13.906277252664761
31
0
0
ARC
5
301
100
AcDbEntity
8
0
100
AcDbCircle
10
36.318181818181756
20
4.8409090909090935
30
0
40
9.8102272727273139
210
0
220
-0
230
1
100
AcDbArc
50
67.529014654969856
51
112.47098534503014
0
LINE
5
302
100
AcDbEntity
8
0
100
AcDbLine
10
32.568560606060529
20
13.906277252664761
30
0
11
32.568560606060544
21
11.923191696661654
31
0
0
LINE
5
303
100
AcDbEntity
8
0
100
AcDbLine
10
32.568560606060544
20
11.923191696661654
30
0
11
32.871590909090841
21
11.923191696661659
31
0
0
LINE
5
304
100
AcDbEntity
8
0
100
AcDbLine
10
32.871590909090841
20
11.923191696661659
30
0
11
32.871590909090855
21
3.6965909090908999
31
0
0
LINE
5
305
100
AcDbEntity
8
0
100
AcDbLine
10
32.871590909090855
20
3.6965909090908999
30
0
11
27.401136363636311
21
3.6965909090908955
31
0
0
LINE
5
306
100
AcDbEntity
8
0
100
AcDbLine
10
27.401136363636311
20
3.6965909090908955
30
0
11
27.401136363636329
21
16.121590909090884
31
0
0
LINE
5
307
100
AcDbEntity
8
0
100
AcDbLine
10
27.401136363636329
20
16.121590909090884
30
0
11
45.235227272727201
21
16.121590909090884
31
0
0
ENDSEC
0
SECTION
2
OBJECTS
0
DICTIONARY
5
C
100
AcDbDictionary
3
ACAD_GROUP
350
D
3
ACAD_MLINESTYLE
350
17
0
DICTIONARY
5
D
100
AcDbDictionary
0
DICTIONARY
5
1A
330
C
100
AcDbDictionary
0
DICTIONARY
5
17
100
AcDbDictionary
0
ENDSEC
0
EOF
