0
SECTION
2
HEADER
9
$INSUNITS
70
4
9
$ACADVER
1
AC1014
9
$HANDSEED
5
FFFF
0
ENDSEC
0
SECTION
2
TABLES
0
TABLE
2
VPORT
5
8
100
AcDbSymbolTable
0
ENDTAB
0
TABLE
2
LTYPE
5
5
100
AcDbSymbolTable
0
LTYPE
5
14
100
AcDbSymbolTableRecord
100
AcDbLinetypeTableRecord
2
BYBLOCK
70
0
0
LTYPE
5
15
100
AcDbSymbolTableRecord
100
AcDbLinetypeTableRecord
2
BYLAYER
70
0
0
ENDTAB
0
TABLE
2
LAYER
5
2
100
AcDbSymbolTable
70
2
0
LAYER
5
50
100
AcDbSymbolTableRecord
100
AcDbLayerTableRecord
2
0
70
0
6
CONTINUOUS
0
ENDTAB
0
TABLE
2
STYLE
5
3
100
AcDbSymbolTable
70
1
0
STYLE
5
11
100
AcDbSymbolTableRecord
100
AcDbTextStyleTableRecord
2
STANDARD
70
0
0
ENDTAB
0
TABLE
2
VIEW
5
6
100
AcDbSymbolTable
70
0
0
ENDTAB
0
TABLE
2
UCS
5
7
100
AcDbSymbolTable
70
0
0
ENDTAB
0
TABLE
2
APPID
5
9
100
AcDbSymbolTable
70
2
0
APPID
5
12
100
AcDbSymbolTableRecord
100
AcDbRegAppTableRecord
2
ACAD
70
0
0
ENDTAB
0
TABLE
2
DIMSTYLE
5
A
100
AcDbSymbolTable
70
1
0
ENDTAB
0
TABLE
2
BLOCK_RECORD
5
1
100
AcDbSymbolTable
70
1
0
BLOCK_RECORD
5
1F
100
AcDbSymbolTableRecord
100
AcDbBlockTableRecord
2
*MODEL_SPACE
0
BLOCK_RECORD
5
1B
100
AcDbSymbolTableRecord
100
AcDbBlockTableRecord
2
*PAPER_SPACE
0
ENDTAB
0
ENDSEC
0
SECTION
2
BLOCKS
0
BLOCK
5
20
100
AcDbEntity
100
AcDbBlockBegin
2
*MODEL_SPACE
0
ENDBLK
5
21
100
AcDbEntity
100
AcDbBlockEnd
0
BLOCK
5
1C
100
AcDbEntity
100
AcDbBlockBegin
2
*PAPER_SPACE
0
ENDBLK
5
1D
100
AcDbEntity
100
AcDbBlockEnd
0
ENDSEC
0
SECTION
2
ENTITIES
0
LINE
5
100
100
AcDbEntity
8
0
100
AcDbLine
10
-0.73588644965774108
20
16.825437591372577
30
0
11
-0.73588644965774064
21
18.837458148196802
31
0
0
LINE
5
101
100
AcDbEntity
8
0
100
AcDbLine
10
-0.73588644965773664
20
18.837458148196802
30
0
11
0.87488023698968576
21
18.836216599000295
31
0
0
LINE
5
102
100
AcDbEntity
8
0
100
AcDbLine
10
0.87488023698968576
20
18.836216599000295
30
0
11
0.92304437748093282
21
19.288823551807795
31
0
0
ARC
5
103
100
AcDbEntity
8
0
100
AcDbCircle
10
0.54100930991898277
20
19.223974055650437
30
0
40
0.38749999999861517
210
0
220
-0
230
1
100
AcDbArc
50
9.6339836884892769
51
89.95583748059326
0
LINE
5
104
100
AcDbEntity
8
0
100
AcDbLine
10
0.54130798767013655
20
19.611473940541426
30
0
11
-0.43482808602100853
21
19.61222632818928
31
0
0
LINE
5
105
100
AcDbEntity
8
0
100
AcDbLine
10
-0.43482808602100853
20
19.61222632818928
30
0
11
-0.43458721685437401
21
19.924726235361572
31
0
0
ARC
5
106
100
AcDbEntity
8
0
100
AcDbCircle
10
-0.82208710176875588
20
19.925024913096003
30
0
40
0.38750000002199769
210
-0
220
0
230
1
100
AcDbArc
50
-0.044162516929411789
51
89.955837475734214
0
LINE
5
107
100
AcDbEntity
8
0
100
AcDbLine
10
-0.82178842398472174
20
20.312524798010347
30
0
11
-1.7150850865403688
21
20.313213334594717
31
0
0
LINE
5
108
100
AcDbEntity
8
0
100
AcDbLine
10
-1.7150850865403688
20
20.313213334594717
30
0
11
-2.783688168185896
21
18.87065951530241
31
0
0
LINE
5
109
100
AcDbEntity
8
0
100
AcDbLine
10
-2.783688168185896
20
18.8706595153024
30
0
11
-2.7840611174161123
21
6.064073955008924
31
0
0
LINE
5
110
100
AcDbEntity
8
0
100
AcDbLine
10
-2.7840611174161145
20
6.064073955008924
30
0
11
-0.9945909760940097
21
6.064073955008924
31
0
0
LINE
5
111
100
AcDbEntity
8
0
100
AcDbLine
10
-0.9945909760940097
20
6.0640739550089329
30
0
11
-0.99459097609400982
21
5.4390739550089418
31
0
0
LINE
5
112
100
AcDbEntity
8
0
100
AcDbLine
10
-0.9945909760940097
20
5.4390739550089418
30
0
11
-2.7840793184633617
21
5.4390739550089418
31
0
0
LINE
5
113
100
AcDbEntity
8
0
100
AcDbLine
10
-2.7840793184633617
20
5.4390739550089329
30
0
11
-2.7843957519430051
21
-5.426835135900161
31
0
0
LINE
5
114
100
AcDbEntity
8
0
100
AcDbLine
10
-2.7843957519430074
20
-5.426835135900161
30
0
11
-0.99459097609401859
21
-5.4268351359001654
31
0
0
LINE
5
115
100
AcDbEntity
8
0
100
AcDbLine
10
-0.99459097609401859
20
-5.4268351359001654
30
0
11
-0.9945909760940187
21
-6.051835135900161
31
0
0
LINE
5
116
100
AcDbEntity
8
0
100
AcDbLine
10
-0.99459097609401859
20
-6.051835135900161
30
0
11
-2.784413952990259
21
-6.051835135900161
31
0
0
LINE
5
117
100
AcDbEntity
8
0
100
AcDbLine
10
-2.784413952990259
20
-6.051835135900161
30
0
11
-2.7847877636575258
21
-18.888001309953335
31
0
0
LINE
5
118
100
AcDbEntity
8
0
100
AcDbLine
10
-2.7847877636575236
20
-18.888001309953335
30
0
11
-1.7307421281359849
21
-20.313198772288587
31
0
0
LINE
5
119
100
AcDbEntity
8
0
100
AcDbLine
10
-1.7307421281359847
20
-20.313198772288587
30
0
11
-0.83744520018498747
21
-20.313198772271186
31
0
0
ARC
5
120
100
AcDbEntity
8
0
100
AcDbCircle
10
-0.83744520019264357
20
-19.925698772272042
30
0
40
0.38749999999914131
210
-0
220
0
230
1
100
AcDbArc
50
-89.999999998868034
51
0
0
LINE
5
121
100
AcDbEntity
8
0
100
AcDbLine
10
-0.44994520019350226
20
-19.925698772266873
30
0
11
-0.4499452002073045
21
-19.613198772264347
31
0
0
LINE
5
122
100
AcDbEntity
8
0
100
AcDbLine
10
-0.44994520020730455
20
-19.613198772264351
30
0
11
0.52619116344831074
21
-19.613198772263953
31
0
0
ARC
5
123
100
AcDbEntity
8
0
100
AcDbCircle
10
0.5261911634483063
20
-19.225698772265414
30
0
40
0.38749999999853735
210
-0
220
0
230
1
100
AcDbArc
50
270.00000000000063
51
360
0
LINE
5
124
100
AcDbEntity
8
0
100
AcDbLine
10
0.91369116344684365
20
-19.225698772265417
30
0
11
0.9136911634354129
21
-18.838198772263802
31
0
0
LINE
5
125
100
AcDbEntity
8
0
100
AcDbLine
10
0.91369116343541279
20
-18.838198772263802
30
0
11
-0.73588644965774108
21
-18.838198772263812
31
0
0
LINE
5
126
100
AcDbEntity
8
0
100
AcDbLine
10
-0.73588644965774108
20
-18.838198772263812
30
0
11
-0.73588644965774952
21
-16.813198772263817
31
0
0
LINE
5
127
100
AcDbEntity
8
0
100
AcDbLine
10
-0.73588644965774996
20
-16.813198772263817
30
0
11
2.7718378409083666
21
-16.813198772263817
31
0
0
LINE
5
128
100
AcDbEntity
8
0
100
AcDbLine
10
2.7718378409083666
20
-16.813198772263817
30
0
11
2.7848018586333478
21
16.825437591372562
31
0
0
LINE
5
129
100
AcDbEntity
8
0
100
AcDbLine
10
2.7848018586333456
20
16.82543759137257
30
0
11
-0.73588644965774108
21
16.825437591372577
31
0
0
ENDSEC
0
SECTION
2
OBJECTS
0
DICTIONARY
5
C
100
AcDbDictionary
3
ACAD_GROUP
350
D
3
ACAD_MLINESTYLE
350
17
0
DICTIONARY
5
D
100
AcDbDictionary
0
DICTIONARY
5
1A
330
C
100
AcDbDictionary
0
DICTIONARY
5
17
100
AcDbDictionary
0
ENDSEC
0
EOF
