0
SECTION
2
HEADER
9
$INSUNITS
70
4
9
$ACADVER
1
AC1014
9
$HANDSEED
5
FFFF
0
ENDSEC
0
SECTION
2
TABLES
0
TABLE
2
VPORT
5
8
100
AcDbSymbolTable
0
ENDTAB
0
TABLE
2
LTYPE
5
5
100
AcDbSymbolTable
0
LTYPE
5
14
100
AcDbSymbolTableRecord
100
AcDbLinetypeTableRecord
2
BYBLOCK
70
0
0
LTYPE
5
15
100
AcDbSymbolTableRecord
100
AcDbLinetypeTableRecord
2
BYLAYER
70
0
0
ENDTAB
0
TABLE
2
LAYER
5
2
100
AcDbSymbolTable
70
2
0
LAYER
5
50
100
AcDbSymbolTableRecord
100
AcDbLayerTableRecord
2
0
70
0
6
CONTINUOUS
0
ENDTAB
0
TABLE
2
STYLE
5
3
100
AcDbSymbolTable
70
1
0
STYLE
5
11
100
AcDbSymbolTableRecord
100
AcDbTextStyleTableRecord
2
STANDARD
70
0
0
ENDTAB
0
TABLE
2
VIEW
5
6
100
AcDbSymbolTable
70
0
0
ENDTAB
0
TABLE
2
UCS
5
7
100
AcDbSymbolTable
70
0
0
ENDTAB
0
TABLE
2
APPID
5
9
100
AcDbSymbolTable
70
2
0
APPID
5
12
100
AcDbSymbolTableRecord
100
AcDbRegAppTableRecord
2
ACAD
70
0
0
ENDTAB
0
TABLE
2
DIMSTYLE
5
A
100
AcDbSymbolTable
70
1
0
ENDTAB
0
TABLE
2
BLOCK_RECORD
5
1
100
AcDbSymbolTable
70
1
0
BLOCK_RECORD
5
1F
100
AcDbSymbolTableRecord
100
AcDbBlockTableRecord
2
*MODEL_SPACE
0
BLOCK_RECORD
5
1B
100
AcDbSymbolTableRecord
100
AcDbBlockTableRecord
2
*PAPER_SPACE
0
ENDTAB
0
ENDSEC
0
SECTION
2
BLOCKS
0
BLOCK
5
20
100
AcDbEntity
100
AcDbBlockBegin
2
*MODEL_SPACE
0
ENDBLK
5
21
100
AcDbEntity
100
AcDbBlockEnd
0
BLOCK
5
1C
100
AcDbEntity
100
AcDbBlockBegin
2
*PAPER_SPACE
0
ENDBLK
5
1D
100
AcDbEntity
100
AcDbBlockEnd
0
ENDSEC
0
SECTION
2
ENTITIES
0
LINE
5
100
100
AcDbEntity
8
0
100
AcDbLine
10
12.140254085883182
20
-16.81931818181819
30
0
11
12.14025408588318
21
-17.519318181818193
31
0
0
LINE
5
101
100
AcDbEntity
8
0
100
AcDbLine
10
12.140254085883178
20
-17.519318181818193
30
0
11
19.605681818181793
21
-17.519318181818193
31
0
0
LINE
5
102
100
AcDbEntity
8
0
100
AcDbLine
10
19.605681818181793
20
-17.519318181818193
30
0
11
19.60568181818179
21
17.519318181818186
31
0
0
LINE
5
103
100
AcDbEntity
8
0
100
AcDbLine
10
19.605681818181786
20
17.519318181818186
30
0
11
12.140254085883171
21
17.519318181818193
31
0
0
LINE
5
104
100
AcDbEntity
8
0
100
AcDbLine
10
12.140254085883173
20
17.519318181818193
30
0
11
12.140254085883173
21
16.819318181818193
31
0
0
LINE
5
105
100
AcDbEntity
8
0
100
AcDbLine
10
12.140254085883173
20
16.819318181818193
30
0
11
6.2562464735793322
21
16.819318181818193
31
0
0
LINE
5
106
100
AcDbEntity
8
0
100
AcDbLine
10
6.2562464735793313
20
16.819318181818193
30
0
11
6.2562464735793331
21
17.519318181818193
31
0
0
LINE
5
107
100
AcDbEntity
8
0
100
AcDbLine
10
6.2562464735793331
20
17.519318181818193
30
0
11
-3.5586189033409967
21
17.519318181818193
31
0
0
LINE
5
108
100
AcDbEntity
8
0
100
AcDbLine
10
-3.5586189033409976
20
17.519318181818196
30
0
11
-3.5586189033409976
21
16.819318181818197
31
0
0
LINE
5
109
100
AcDbEntity
8
0
100
AcDbLine
10
-3.5586189033409976
20
16.819318181818197
30
0
11
-15.632093700970241
21
16.8193181818182
31
0
0
LINE
5
110
100
AcDbEntity
8
0
100
AcDbLine
10
-15.632093700970241
20
16.819318181818197
30
0
11
-15.632093700970247
21
17.519318181818196
31
0
0
LINE
5
111
100
AcDbEntity
8
0
100
AcDbLine
10
-15.632093700970247
20
17.519318181818196
30
0
11
-19.6056818181818
21
17.519318181818196
31
0
0
LINE
5
112
100
AcDbEntity
8
0
100
AcDbLine
10
-19.6056818181818
20
17.519318181818196
30
0
11
-19.605681818181793
21
6.0579545454545469
31
0
0
LINE
5
113
100
AcDbEntity
8
0
100
AcDbLine
10
-19.605681818181793
20
6.0579545454545469
30
0
11
-17.796590909090884
21
6.0579545454545425
31
0
0
LINE
5
114
100
AcDbEntity
8
0
100
AcDbLine
10
-17.796590909090884
20
6.0579545454545425
30
0
11
-17.796590909090881
21
5.4329545454545469
31
0
0
LINE
5
115
100
AcDbEntity
8
0
100
AcDbLine
10
-17.796590909090881
20
5.4329545454545469
30
0
11
-19.60568181818179
21
5.4329545454545469
31
0
0
LINE
5
116
100
AcDbEntity
8
0
100
AcDbLine
10
-19.60568181818179
20
5.4329545454545469
30
0
11
-19.605681818181793
21
-5.432954545454538
31
0
0
LINE
5
117
100
AcDbEntity
8
0
100
AcDbLine
10
-19.60568181818179
20
-5.4329545454545336
30
0
11
-17.796590909090874
21
-5.4329545454545336
31
0
0
LINE
5
118
100
AcDbEntity
8
0
100
AcDbLine
10
-17.796590909090874
20
-5.4329545454545425
30
0
11
-17.796590909090881
21
-6.0579545454545514
31
0
0
LINE
5
119
100
AcDbEntity
8
0
100
AcDbLine
10
-17.796590909090881
20
-6.0579545454545514
30
0
11
-19.60568181818179
21
-6.0579545454545514
31
0
0
LINE
5
120
100
AcDbEntity
8
0
100
AcDbLine
10
-19.60568181818179
20
-6.0579545454545425
30
0
11
-19.605681818181782
21
-17.519318181818171
31
0
0
LINE
5
121
100
AcDbEntity
8
0
100
AcDbLine
10
-19.605681818181786
20
-17.519318181818171
30
0
11
-15.632093700970234
21
-17.519318181818171
31
0
0
LINE
5
122
100
AcDbEntity
8
0
100
AcDbLine
10
-15.632093700970234
20
-17.519318181818182
30
0
11
-15.632093700970238
21
-16.81931818181819
31
0
0
LINE
5
123
100
AcDbEntity
8
0
100
AcDbLine
10
-15.632093700970238
20
-16.81931818181819
30
0
11
-3.5586189033409932
21
-16.81931818181819
31
0
0
LINE
5
124
100
AcDbEntity
8
0
100
AcDbLine
10
-3.5586189033409932
20
-16.81931818181819
30
0
11
-3.5586189033409932
21
-17.519318181818193
31
0
0
LINE
5
125
100
AcDbEntity
8
0
100
AcDbLine
10
-3.5586189033409932
20
-17.519318181818193
30
0
11
6.2562464735793366
21
-17.519318181818193
31
0
0
LINE
5
126
100
AcDbEntity
8
0
100
AcDbLine
10
6.2562464735793402
20
-17.519318181818193
30
0
11
6.2562464735793402
21
-16.81931818181819
31
0
0
LINE
5
127
100
AcDbEntity
8
0
100
AcDbLine
10
6.2562464735793402
20
-16.81931818181819
30
0
11
12.140254085883182
21
-16.81931818181819
31
0
0
ARC
5
128
100
AcDbEntity
8
0
100
AcDbCircle
10
13.659090909090899
20
-8.9835571980786266
30
0
40
7.6897727272727066
210
0
220
0
230
1
100
AcDbArc
50
181.97318691661707
51
196.9119341880731
0
LINE
5
129
100
AcDbEntity
8
0
100
AcDbLine
10
5.9738778346212182
20
-9.2483299253513529
30
0
11
7.7715213551184084
21
-9.2483299253513529
31
0
0
LINE
5
130
100
AcDbEntity
8
0
100
AcDbLine
10
7.7715213551184084
20
-9.2483299253513529
30
0
11
7.7715213551184084
21
-11.220523487066316
31
0
0
LINE
5
131
100
AcDbEntity
8
0
100
AcDbLine
10
7.7715213551184084
20
-11.220523487066316
30
0
11
6.3018776853872502
21
-11.220523487066316
31
0
0
LINE
5
132
100
AcDbEntity
8
0
100
AcDbLine
10
10.494383406800301
20
-9.2483299253513529
30
0
11
10.494383406800303
21
-11.220523487066316
31
0
0
LINE
5
133
100
AcDbEntity
8
0
100
AcDbLine
10
10.494383406800303
20
-11.220523487066316
30
0
11
8.3010668096638636
21
-11.220523487066316
31
0
0
LINE
5
134
100
AcDbEntity
8
0
100
AcDbLine
10
8.3010668096638636
20
-11.220523487066316
30
0
11
8.3010668096638636
21
-9.2483299253513529
31
0
0
LINE
5
135
100
AcDbEntity
8
0
100
AcDbLine
10
8.3010668096638636
20
-9.2483299253513529
30
0
11
10.494383406800301
21
-9.2483299253513529
31
0
0
LINE
5
136
100
AcDbEntity
8
0
100
AcDbLine
10
11.023928861345755
20
-8.7187844708058826
30
0
11
11.023928861345755
21
-6.7465909090909371
31
0
0
LINE
5
137
100
AcDbEntity
8
0
100
AcDbLine
10
11.023928861345755
20
-6.7465909090909371
30
0
11
13.167045454545443
21
-6.7465909090909371
31
0
0
LINE
5
138
100
AcDbEntity
8
0
100
AcDbLine
10
13.167045454545443
20
-6.7465909090909371
30
0
11
13.167045454545443
21
-8.7187844708058826
31
0
0
LINE
5
139
100
AcDbEntity
8
0
100
AcDbLine
10
13.167045454545443
20
-8.7187844708058826
30
0
11
11.023928861345755
21
-8.7187844708058826
31
0
0
LINE
5
140
100
AcDbEntity
8
0
100
AcDbLine
10
13.167045454545443
20
-9.2483299253513529
30
0
11
13.167045454545443
21
-11.220523487066316
31
0
0
LINE
5
141
100
AcDbEntity
8
0
100
AcDbLine
10
13.167045454545443
20
-11.220523487066316
30
0
11
11.023928861345755
21
-11.220523487066316
31
0
0
LINE
5
142
100
AcDbEntity
8
0
100
AcDbLine
10
11.023928861345755
20
-11.220523487066316
30
0
11
11.023928861345755
21
-9.2483299253513529
31
0
0
LINE
5
143
100
AcDbEntity
8
0
100
AcDbLine
10
11.023928861345755
20
-9.2483299253513529
30
0
11
13.167045454545443
21
-9.2483299253513529
31
0
0
LINE
5
144
100
AcDbEntity
8
0
100
AcDbLine
10
8.3010668096638653
20
-6.7465909090909371
30
0
11
10.494383406800299
21
-6.7465909090909371
31
0
0
LINE
5
145
100
AcDbEntity
8
0
100
AcDbLine
10
10.494383406800299
20
-6.7465909090909371
30
0
11
10.494383406800301
21
-8.7187844708058826
31
0
0
LINE
5
146
100
AcDbEntity
8
0
100
AcDbLine
10
10.494383406800299
20
-8.7187844708058826
30
0
11
8.3010668096638653
21
-8.7187844708058826
31
0
0
LINE
5
147
100
AcDbEntity
8
0
100
AcDbLine
10
8.3010668096638671
20
-8.7187844708058826
30
0
11
8.3010668096638653
21
-6.7465909090909371
31
0
0
LINE
5
148
100
AcDbEntity
8
0
100
AcDbLine
10
7.7715213551184101
20
-8.7187844708058826
30
0
11
5.973877834621212
21
-8.7187844708058826
31
0
0
ARC
5
149
100
AcDbEntity
8
0
100
AcDbCircle
10
13.659090909090899
20
-8.9835571980786266
30
0
40
7.6897727272727145
210
0
220
0
230
1
100
AcDbArc
50
163.08806581192675
51
178.02681308338256
0
LINE
5
150
100
AcDbEntity
8
0
100
AcDbLine
10
6.3018776853872485
20
-6.7465909090909282
30
0
11
7.7715213551184101
21
-6.7465909090909371
31
0
0
LINE
5
151
100
AcDbEntity
8
0
100
AcDbLine
10
7.7715213551184101
20
-6.7465909090909371
30
0
11
7.7715213551184101
21
-8.7187844708058826
31
0
0
ENDSEC
0
SECTION
2
OBJECTS
0
DICTIONARY
5
C
100
AcDbDictionary
3
ACAD_GROUP
350
D
3
ACAD_MLINESTYLE
350
17
0
DICTIONARY
5
D
100
AcDbDictionary
0
DICTIONARY
5
1A
330
C
100
AcDbDictionary
0
DICTIONARY
5
17
100
AcDbDictionary
0
ENDSEC
0
EOF
