0
SECTION
2
HEADER
9
$INSUNITS
70
4
9
$ACADVER
1
AC1014
9
$HANDSEED
5
FFFF
0
ENDSEC
0
SECTION
2
TABLES
0
TABLE
2
VPORT
5
8
100
AcDbSymbolTable
0
ENDTAB
0
TABLE
2
LTYPE
5
5
100
AcDbSymbolTable
0
LTYPE
5
14
100
AcDbSymbolTableRecord
100
AcDbLinetypeTableRecord
2
BYBLOCK
70
0
0
LTYPE
5
15
100
AcDbSymbolTableRecord
100
AcDbLinetypeTableRecord
2
BYLAYER
70
0
0
ENDTAB
0
TABLE
2
LAYER
5
2
100
AcDbSymbolTable
70
2
0
LAYER
5
50
100
AcDbSymbolTableRecord
100
AcDbLayerTableRecord
2
0
70
0
6
CONTINUOUS
0
ENDTAB
0
TABLE
2
STYLE
5
3
100
AcDbSymbolTable
70
1
0
STYLE
5
11
100
AcDbSymbolTableRecord
100
AcDbTextStyleTableRecord
2
STANDARD
70
0
0
ENDTAB
0
TABLE
2
VIEW
5
6
100
AcDbSymbolTable
70
0
0
ENDTAB
0
TABLE
2
UCS
5
7
100
AcDbSymbolTable
70
0
0
ENDTAB
0
TABLE
2
APPID
5
9
100
AcDbSymbolTable
70
2
0
APPID
5
12
100
AcDbSymbolTableRecord
100
AcDbRegAppTableRecord
2
ACAD
70
0
0
ENDTAB
0
TABLE
2
DIMSTYLE
5
A
100
AcDbSymbolTable
70
1
0
ENDTAB
0
TABLE
2
BLOCK_RECORD
5
1
100
AcDbSymbolTable
70
1
0
BLOCK_RECORD
5
1F
100
AcDbSymbolTableRecord
100
AcDbBlockTableRecord
2
*MODEL_SPACE
0
BLOCK_RECORD
5
1B
100
AcDbSymbolTableRecord
100
AcDbBlockTableRecord
2
*PAPER_SPACE
0
ENDTAB
0
ENDSEC
0
SECTION
2
BLOCKS
0
BLOCK
5
20
100
AcDbEntity
100
AcDbBlockBegin
2
*MODEL_SPACE
0
ENDBLK
5
21
100
AcDbEntity
100
AcDbBlockEnd
0
BLOCK
5
1C
100
AcDbEntity
100
AcDbBlockBegin
2
*PAPER_SPACE
0
ENDBLK
5
1D
100
AcDbEntity
100
AcDbBlockEnd
0
ENDSEC
0
SECTION
2
ENTITIES
0
LINE
5
100
100
AcDbEntity
8
0
100
AcDbLine
10
-16.19659090909088
20
16.923863636363656
30
0
11
-17.721590909090878
21
16.923863636363656
31
0
0
LINE
5
101
100
AcDbEntity
8
0
100
AcDbLine
10
-17.721590909090878
20
16.923863636363656
30
0
11
-17.721590909090878
21
17.548863636363649
31
0
0
LINE
5
102
100
AcDbEntity
8
0
100
AcDbLine
10
-17.721590909090878
20
17.548863636363649
30
0
11
-16.19659090909088
21
17.548863636363649
31
0
0
LINE
5
103
100
AcDbEntity
8
0
100
AcDbLine
10
-16.19659090909088
20
17.548863636363649
30
0
11
-16.19659090909088
21
16.923863636363656
31
0
0
LINE
5
104
100
AcDbEntity
8
0
100
AcDbLine
10
-3.6965909090908955
20
16.253409090909102
30
0
11
-3.6965909090908937
21
-16.253409090909088
31
0
0
LINE
5
105
100
AcDbEntity
8
0
100
AcDbLine
10
-3.6965909090908955
20
-16.253409090909095
30
0
11
-16.121590909090877
21
-16.253409090909102
31
0
0
LINE
5
106
100
AcDbEntity
8
0
100
AcDbLine
10
-16.121590909090877
20
-16.253409090909106
30
0
11
-16.12159090909088
21
16.253409090909084
31
0
0
LINE
5
107
100
AcDbEntity
8
0
100
AcDbLine
10
-16.12159090909088
20
16.253409090909091
30
0
11
-3.6965909090908955
21
16.253409090909098
31
0
0
LINE
5
108
100
AcDbEntity
8
0
100
AcDbLine
10
18.167045454545431
20
7.4193181818181841
30
0
11
5.827508841210209
21
7.4193181818181761
31
0
0
ARC
5
109
100
AcDbEntity
8
0
100
AcDbCircle
10
13.659090909090615
20
9.6545454545454632
30
0
40
8.144318181817912
210
0
220
0
230
1
100
AcDbArc
50
164.07061947145931
51
195.92938052854083
0
LINE
5
110
100
AcDbEntity
8
0
100
AcDbLine
10
5.8275088412102036
20
11.889772727272728
30
0
11
18.167045454545431
21
11.88977272727273
31
0
0
LINE
5
111
100
AcDbEntity
8
0
100
AcDbLine
10
18.167045454545431
20
11.889772727272732
30
0
11
18.167045454545431
21
7.4193181818181841
31
0
0
LINE
5
112
100
AcDbEntity
8
0
100
AcDbLine
10
13.621590909090894
20
-11.675068941611784
30
0
11
5.972369684724999
21
-11.675068941611775
31
0
0
ARC
5
113
100
AcDbEntity
8
0
100
AcDbCircle
10
13.659090909090692
20
-8.9835571980786355
30
0
40
8.1443181818179742
210
0
220
0
230
1
100
AcDbArc
50
160.70225581135503
51
199.29774418864494
0
LINE
5
114
100
AcDbEntity
8
0
100
AcDbLine
10
5.9723696847249972
20
-6.2920454545454962
30
0
11
13.621590909090893
21
-6.2920454545454882
31
0
0
LINE
5
115
100
AcDbEntity
8
0
100
AcDbLine
10
13.621590909090893
20
-6.2920454545454874
30
0
11
13.621590909090893
21
-11.675068941611784
31
0
0
LINE
5
116
100
AcDbEntity
8
0
100
AcDbLine
10
-0.62159090909089887
20
5.7193181818181671
30
0
11
-2.439772727272711
21
5.7193181818181849
31
0
0
LINE
5
117
100
AcDbEntity
8
0
100
AcDbLine
10
-2.439772727272711
20
5.7193181818181849
30
0
11
-2.4397727272727172
21
16.253409090909106
31
0
0
LINE
5
118
100
AcDbEntity
8
0
100
AcDbLine
10
-2.4397727272727154
20
16.253409090909106
30
0
11
14.09245357247997
21
16.253409090909102
31
0
0
LINE
5
119
100
AcDbEntity
8
0
100
AcDbLine
10
14.092453572479972
20
16.253409090909102
30
0
11
14.092453572479975
21
12.873863636363643
31
0
0
LINE
5
120
100
AcDbEntity
8
0
100
AcDbLine
10
14.092453572479972
20
12.873863636363643
30
0
11
4.6330725031456508
21
12.873863636363643
31
0
0
ARC
5
121
100
AcDbEntity
8
0
100
AcDbCircle
10
13.659090909090615
20
9.6545454545454632
30
0
40
9.5829545454542568
210
0
220
0
230
1
100
AcDbArc
50
160.37016131044359
51
199.62983868955638
0
LINE
5
122
100
AcDbEntity
8
0
100
AcDbLine
10
4.6330725031456499
20
6.4352272727272908
30
0
11
14.092453572479972
21
6.4352272727272677
31
0
0
LINE
5
123
100
AcDbEntity
8
0
100
AcDbLine
10
14.092453572479972
20
6.4352272727272686
30
0
11
14.092453572479977
21
-5.3079545454545718
31
0
0
LINE
5
124
100
AcDbEntity
8
0
100
AcDbLine
10
14.092453572479977
20
-5.3079545454545762
30
0
11
4.8090647531820716
21
-5.3079545454545753
31
0
0
ARC
5
125
100
AcDbEntity
8
0
100
AcDbCircle
10
13.659090909090692
20
-8.9835571980786355
30
0
40
9.5829545454543279
210
0
220
0
230
1
100
AcDbArc
50
157.4458567807533
51
202.55414321924655
0
LINE
5
126
100
AcDbEntity
8
0
100
AcDbLine
10
4.8090647531820707
20
-12.659159850702677
30
0
11
14.092453572479982
21
-12.659159850702695
31
0
0
LINE
5
127
100
AcDbEntity
8
0
100
AcDbLine
10
14.092453572479979
20
-12.659159850702695
30
0
11
14.092453572479979
21
-16.253409090909106
31
0
0
LINE
5
128
100
AcDbEntity
8
0
100
AcDbLine
10
14.092453572479979
20
-16.253409090909106
30
0
11
-2.4397727272727088
21
-16.253409090909102
31
0
0
LINE
5
129
100
AcDbEntity
8
0
100
AcDbLine
10
-2.439772727272711
20
-16.253409090909106
30
0
11
-2.4397727272727128
21
-5.7193181818182115
31
0
0
LINE
5
130
100
AcDbEntity
8
0
100
AcDbLine
10
-2.439772727272711
20
-5.7193181818182115
30
0
11
-0.62159090909089887
21
-5.7193181818182115
31
0
0
LINE
5
131
100
AcDbEntity
8
0
100
AcDbLine
10
-0.62159090909089887
20
-5.7193181818182115
30
0
11
-0.62159090909089665
21
5.7193181818181582
31
0
0
LINE
5
132
100
AcDbEntity
8
0
100
AcDbLine
10
-16.196590909090883
20
-16.923863636363656
30
0
11
-16.19659090909088
21
-17.548863636363656
31
0
0
LINE
5
133
100
AcDbEntity
8
0
100
AcDbLine
10
-16.19659090909088
20
-17.548863636363656
30
0
11
-17.721590909090878
21
-17.548863636363656
31
0
0
LINE
5
134
100
AcDbEntity
8
0
100
AcDbLine
10
-17.721590909090878
20
-17.548863636363656
30
0
11
-17.721590909090878
21
-16.923863636363656
31
0
0
LINE
5
135
100
AcDbEntity
8
0
100
AcDbLine
10
-17.721590909090878
20
-16.923863636363656
30
0
11
-16.196590909090883
21
-16.923863636363656
31
0
0
LINE
5
136
100
AcDbEntity
8
0
100
AcDbLine
10
19.6056818181818
20
-18.919318181818198
30
0
11
19.60568181818179
21
18.919318181818173
31
0
0
LINE
5
137
100
AcDbEntity
8
0
100
AcDbLine
10
19.605681818181786
20
18.919318181818177
30
0
11
12.475577566658284
21
18.919318181818188
31
0
0
LINE
5
138
100
AcDbEntity
8
0
100
AcDbLine
10
12.475577566658288
20
18.919318181818188
30
0
11
12.475577566658288
21
18.219318181818188
31
0
0
LINE
5
139
100
AcDbEntity
8
0
100
AcDbLine
10
12.475577566658288
20
18.219318181818188
30
0
11
4.5505775666583004
21
18.219318181818188
31
0
0
LINE
5
140
100
AcDbEntity
8
0
100
AcDbLine
10
4.5505775666583004
20
18.219318181818188
30
0
11
4.5505775666582977
21
18.919318181818188
31
0
0
LINE
5
141
100
AcDbEntity
8
0
100
AcDbLine
10
4.5505775666582959
20
18.919318181818188
30
0
11
-4.9473586460380314
21
18.919318181818188
31
0
0
LINE
5
142
100
AcDbEntity
8
0
100
AcDbLine
10
-4.9473586460380314
20
18.919318181818191
30
0
11
-4.9473586460380226
21
18.219318181818196
31
0
0
LINE
5
143
100
AcDbEntity
8
0
100
AcDbLine
10
-4.9473586460380226
20
18.219318181818196
30
0
11
-14.872358646038006
21
18.219318181818196
31
0
0
LINE
5
144
100
AcDbEntity
8
0
100
AcDbLine
10
-14.872358646038006
20
18.219318181818196
30
0
11
-14.872358646038011
21
18.919318181818191
31
0
0
LINE
5
145
100
AcDbEntity
8
0
100
AcDbLine
10
-14.872358646038011
20
18.919318181818191
30
0
11
-19.605681818181793
21
18.919318181818191
31
0
0
LINE
5
146
100
AcDbEntity
8
0
100
AcDbLine
10
-19.605681818181793
20
18.919318181818191
30
0
11
-19.605681818181793
21
6.0579545454545425
31
0
0
LINE
5
147
100
AcDbEntity
8
0
100
AcDbLine
10
-19.605681818181793
20
6.0579545454545425
30
0
11
-17.796590909090884
21
6.0579545454545425
31
0
0
LINE
5
148
100
AcDbEntity
8
0
100
AcDbLine
10
-17.796590909090884
20
6.0579545454545425
30
0
11
-17.796590909090881
21
5.4329545454545469
31
0
0
LINE
5
149
100
AcDbEntity
8
0
100
AcDbLine
10
-17.796590909090881
20
5.4329545454545469
30
0
11
-19.60568181818179
21
5.4329545454545469
31
0
0
LINE
5
150
100
AcDbEntity
8
0
100
AcDbLine
10
-19.60568181818179
20
5.4329545454545469
30
0
11
-19.605681818181793
21
-5.4329545454545425
31
0
0
LINE
5
151
100
AcDbEntity
8
0
100
AcDbLine
10
-19.60568181818179
20
-5.4329545454545425
30
0
11
-17.796590909090874
21
-5.4329545454545425
31
0
0
LINE
5
152
100
AcDbEntity
8
0
100
AcDbLine
10
-17.796590909090874
20
-5.4329545454545514
30
0
11
-17.796590909090881
21
-6.0579545454545602
31
0
0
LINE
5
153
100
AcDbEntity
8
0
100
AcDbLine
10
-17.796590909090881
20
-6.0579545454545602
30
0
11
-19.60568181818179
21
-6.0579545454545602
31
0
0
LINE
5
154
100
AcDbEntity
8
0
100
AcDbLine
10
-19.60568181818179
20
-6.0579545454545514
30
0
11
-19.605681818181782
21
-18.919318181818188
31
0
0
LINE
5
155
100
AcDbEntity
8
0
100
AcDbLine
10
-19.605681818181782
20
-18.919318181818188
30
0
11
19.6056818181818
21
-18.919318181818191
31
0
0
ENDSEC
0
SECTION
2
OBJECTS
0
DICTIONARY
5
C
100
AcDbDictionary
3
ACAD_GROUP
350
D
3
ACAD_MLINESTYLE
350
17
0
DICTIONARY
5
D
100
AcDbDictionary
0
DICTIONARY
5
1A
330
C
100
AcDbDictionary
0
DICTIONARY
5
17
100
AcDbDictionary
0
ENDSEC
0
EOF
