0
SECTION
2
HEADER
9
$INSUNITS
70
4
9
$ACADVER
1
AC1014
9
$HANDSEED
5
FFFF
0
ENDSEC
0
SECTION
2
TABLES
0
TABLE
2
VPORT
5
8
100
AcDbSymbolTable
0
ENDTAB
0
TABLE
2
LTYPE
5
5
100
AcDbSymbolTable
0
LTYPE
5
14
100
AcDbSymbolTableRecord
100
AcDbLinetypeTableRecord
2
BYBLOCK
70
0
0
LTYPE
5
15
100
AcDbSymbolTableRecord
100
AcDbLinetypeTableRecord
2
BYLAYER
70
0
0
ENDTAB
0
TABLE
2
LAYER
5
2
100
AcDbSymbolTable
70
2
0
LAYER
5
50
100
AcDbSymbolTableRecord
100
AcDbLayerTableRecord
2
0
70
0
6
CONTINUOUS
0
ENDTAB
0
TABLE
2
STYLE
5
3
100
AcDbSymbolTable
70
1
0
STYLE
5
11
100
AcDbSymbolTableRecord
100
AcDbTextStyleTableRecord
2
STANDARD
70
0
0
ENDTAB
0
TABLE
2
VIEW
5
6
100
AcDbSymbolTable
70
0
0
ENDTAB
0
TABLE
2
UCS
5
7
100
AcDbSymbolTable
70
0
0
ENDTAB
0
TABLE
2
APPID
5
9
100
AcDbSymbolTable
70
2
0
APPID
5
12
100
AcDbSymbolTableRecord
100
AcDbRegAppTableRecord
2
ACAD
70
0
0
ENDTAB
0
TABLE
2
DIMSTYLE
5
A
100
AcDbSymbolTable
70
1
0
ENDTAB
0
TABLE
2
BLOCK_RECORD
5
1
100
AcDbSymbolTable
70
1
0
BLOCK_RECORD
5
1F
100
AcDbSymbolTableRecord
100
AcDbBlockTableRecord
2
*MODEL_SPACE
0
BLOCK_RECORD
5
1B
100
AcDbSymbolTableRecord
100
AcDbBlockTableRecord
2
*PAPER_SPACE
0
ENDTAB
0
ENDSEC
0
SECTION
2
BLOCKS
0
BLOCK
5
20
100
AcDbEntity
100
AcDbBlockBegin
2
*MODEL_SPACE
0
ENDBLK
5
21
100
AcDbEntity
100
AcDbBlockEnd
0
BLOCK
5
1C
100
AcDbEntity
100
AcDbBlockBegin
2
*PAPER_SPACE
0
ENDBLK
5
1D
100
AcDbEntity
100
AcDbBlockEnd
0
ENDSEC
0
SECTION
2
ENTITIES
0
LINE
5
100
100
AcDbEntity
8
0
100
AcDbLine
10
10.589273841565102
20
-17.5193181818182
30
0
11
19.605681818181793
21
-17.5193181818182
31
0
0
LINE
5
101
100
AcDbEntity
8
0
100
AcDbLine
10
19.605681818181793
20
-17.5193181818182
30
0
11
19.60568181818179
21
17.519318181818178
31
0
0
LINE
5
102
100
AcDbEntity
8
0
100
AcDbLine
10
19.605681818181786
20
17.519318181818182
30
0
11
10.589273841565092
21
17.519318181818193
31
0
0
LINE
5
103
100
AcDbEntity
8
0
100
AcDbLine
10
10.589273841565095
20
17.519318181818193
30
0
11
10.589273841565095
21
18.219318181818188
31
0
0
LINE
5
104
100
AcDbEntity
8
0
100
AcDbLine
10
10.589273841565095
20
18.219318181818188
30
0
11
1.472270290490163
21
18.219318181818188
31
0
0
LINE
5
105
100
AcDbEntity
8
0
100
AcDbLine
10
1.4722702904901608
20
18.219318181818188
30
0
11
1.4722702904901586
21
17.519318181818193
31
0
0
LINE
5
106
100
AcDbEntity
8
0
100
AcDbLine
10
1.4722702904901608
20
17.519318181818193
30
0
11
-8.5145080971721558
21
17.519318181818193
31
0
0
LINE
5
107
100
AcDbEntity
8
0
100
AcDbLine
10
-8.5145080971721576
20
17.519318181818196
30
0
11
-8.5145080971721576
21
18.219318181818196
31
0
0
LINE
5
108
100
AcDbEntity
8
0
100
AcDbLine
10
-8.5145080971721576
20
18.219318181818196
30
0
11
-14.640172127590724
21
18.219318181818196
31
0
0
LINE
5
109
100
AcDbEntity
8
0
100
AcDbLine
10
-14.640172127590724
20
18.219318181818196
30
0
11
-14.640172127590727
21
17.519318181818196
31
0
0
LINE
5
110
100
AcDbEntity
8
0
100
AcDbLine
10
-14.640172127590727
20
17.519318181818196
30
0
11
-19.605681818181793
21
17.519318181818196
31
0
0
LINE
5
111
100
AcDbEntity
8
0
100
AcDbLine
10
-19.605681818181793
20
17.519318181818196
30
0
11
-19.605681818181793
21
6.0579545454545425
31
0
0
LINE
5
112
100
AcDbEntity
8
0
100
AcDbLine
10
-19.605681818181793
20
6.0579545454545425
30
0
11
-17.796590909090884
21
6.0579545454545425
31
0
0
LINE
5
113
100
AcDbEntity
8
0
100
AcDbLine
10
-17.796590909090884
20
6.0579545454545425
30
0
11
-17.796590909090881
21
5.4329545454545469
31
0
0
LINE
5
114
100
AcDbEntity
8
0
100
AcDbLine
10
-17.796590909090881
20
5.4329545454545469
30
0
11
-19.60568181818179
21
5.4329545454545469
31
0
0
LINE
5
115
100
AcDbEntity
8
0
100
AcDbLine
10
-19.60568181818179
20
5.4329545454545469
30
0
11
-19.605681818181793
21
-5.4329545454545425
31
0
0
LINE
5
116
100
AcDbEntity
8
0
100
AcDbLine
10
-19.60568181818179
20
-5.4329545454545425
30
0
11
-17.796590909090874
21
-5.4329545454545425
31
0
0
LINE
5
117
100
AcDbEntity
8
0
100
AcDbLine
10
-17.796590909090874
20
-5.4329545454545514
30
0
11
-17.796590909090881
21
-6.0579545454545602
31
0
0
LINE
5
118
100
AcDbEntity
8
0
100
AcDbLine
10
-17.796590909090881
20
-6.0579545454545602
30
0
11
-19.60568181818179
21
-6.0579545454545602
31
0
0
LINE
5
119
100
AcDbEntity
8
0
100
AcDbLine
10
-19.60568181818179
20
-6.0579545454545514
30
0
11
-19.605681818181782
21
-17.519318181818182
31
0
0
LINE
5
120
100
AcDbEntity
8
0
100
AcDbLine
10
-19.605681818181786
20
-17.519318181818182
30
0
11
-14.640172127590718
21
-17.519318181818182
31
0
0
LINE
5
121
100
AcDbEntity
8
0
100
AcDbLine
10
-14.640172127590718
20
-17.519318181818193
30
0
11
-14.640172127590718
21
-18.219318181818203
31
0
0
LINE
5
122
100
AcDbEntity
8
0
100
AcDbLine
10
-14.640172127590713
20
-18.219318181818203
30
0
11
-8.5145080971721487
21
-18.219318181818203
31
0
0
LINE
5
123
100
AcDbEntity
8
0
100
AcDbLine
10
-8.5145080971721487
20
-18.219318181818203
30
0
11
-8.5145080971721541
21
-17.5193181818182
31
0
0
LINE
5
124
100
AcDbEntity
8
0
100
AcDbLine
10
-8.5145080971721576
20
-17.5193181818182
30
0
11
2.8194547875432052
21
-17.519318181818203
31
0
0
LINE
5
125
100
AcDbEntity
8
0
100
AcDbLine
10
2.8194547875432097
20
-17.5193181818182
30
0
11
2.8194547875432097
21
-18.219318181818203
31
0
0
LINE
5
126
100
AcDbEntity
8
0
100
AcDbLine
10
2.8194547875432097
20
-18.219318181818203
30
0
11
10.589273841565099
21
-18.219318181818203
31
0
0
LINE
5
127
100
AcDbEntity
8
0
100
AcDbLine
10
10.589273841565099
20
-18.219318181818203
30
0
11
10.589273841565102
21
-17.5193181818182
31
0
0
ARC
5
128
100
AcDbEntity
8
0
100
AcDbCircle
10
13.659090909090615
20
9.6545454545454579
30
0
40
8.1443181818179049
210
0
220
0
230
1
100
AcDbArc
50
164.07061947145925
51
195.9293805285408
0
LINE
5
129
100
AcDbEntity
8
0
100
AcDbLine
10
5.8275088412102063
20
11.889772727272728
30
0
11
18.167045454545431
21
11.88977272727273
31
0
0
LINE
5
130
100
AcDbEntity
8
0
100
AcDbLine
10
18.167045454545431
20
11.889772727272732
30
0
11
18.167045454545434
21
7.4193181818181841
31
0
0
LINE
5
131
100
AcDbEntity
8
0
100
AcDbLine
10
18.167045454545431
20
7.4193181818181841
30
0
11
5.827508841210209
21
7.4193181818181806
31
0
0
LINE
5
132
100
AcDbEntity
8
0
100
AcDbLine
10
13.621590909090902
20
-11.675068941611784
30
0
11
5.9723696847250043
21
-11.675068941611801
31
0
0
LINE
5
133
100
AcDbEntity
8
0
100
AcDbLine
10
13.621590909090902
20
-6.2920454545454874
30
0
11
13.621590909090902
21
-11.675068941611784
31
0
0
LINE
5
134
100
AcDbEntity
8
0
100
AcDbLine
10
5.9723696847249927
20
-6.2920454545454962
30
0
11
13.621590909090902
21
-6.2920454545454882
31
0
0
ARC
5
135
100
AcDbEntity
8
0
100
AcDbCircle
10
13.659090909090734
20
-8.9835571980786355
30
0
40
8.1443181818180186
210
0
220
0
230
1
100
AcDbArc
50
160.70225581135514
51
199.29774418864503
0
LINE
5
136
100
AcDbEntity
8
0
100
AcDbLine
10
-10.437727272727169
20
-0.30340909134039862
30
0
11
-10.437727272727164
21
0.30340909134040306
31
0
0
LINE
5
137
100
AcDbEntity
8
0
100
AcDbLine
10
-10.437727272727164
20
0.30340909134039862
30
0
11
-8.2399999999999007
21
0.3034090913403984
31
0
0
LINE
5
138
100
AcDbEntity
8
0
100
AcDbLine
10
-8.2399999999999007
20
0.30340909134039862
30
0
11
-8.2399999999999007
21
-0.30340909134040306
31
0
0
LINE
5
139
100
AcDbEntity
8
0
100
AcDbLine
10
-8.2399999999999007
20
-0.30340909134039862
30
0
11
-10.437727272727169
21
-0.3034090913403984
31
0
0
ENDSEC
0
SECTION
2
OBJECTS
0
DICTIONARY
5
C
100
AcDbDictionary
3
ACAD_GROUP
350
D
3
ACAD_MLINESTYLE
350
17
0
DICTIONARY
5
D
100
AcDbDictionary
0
DICTIONARY
5
1A
330
C
100
AcDbDictionary
0
DICTIONARY
5
17
100
AcDbDictionary
0
ENDSEC
0
EOF
