0
SECTION
2
HEADER
9
$INSUNITS
70
4
9
$ACADVER
1
AC1014
9
$HANDSEED
5
FFFF
0
ENDSEC
0
SECTION
2
TABLES
0
TABLE
2
VPORT
5
8
100
AcDbSymbolTable
0
ENDTAB
0
TABLE
2
LTYPE
5
5
100
AcDbSymbolTable
0
LTYPE
5
14
100
AcDbSymbolTableRecord
100
AcDbLinetypeTableRecord
2
BYBLOCK
70
0
0
LTYPE
5
15
100
AcDbSymbolTableRecord
100
AcDbLinetypeTableRecord
2
BYLAYER
70
0
0
ENDTAB
0
TABLE
2
LAYER
5
2
100
AcDbSymbolTable
70
2
0
LAYER
5
50
100
AcDbSymbolTableRecord
100
AcDbLayerTableRecord
2
0
70
0
6
CONTINUOUS
0
ENDTAB
0
TABLE
2
STYLE
5
3
100
AcDbSymbolTable
70
1
0
STYLE
5
11
100
AcDbSymbolTableRecord
100
AcDbTextStyleTableRecord
2
STANDARD
70
0
0
ENDTAB
0
TABLE
2
VIEW
5
6
100
AcDbSymbolTable
70
0
0
ENDTAB
0
TABLE
2
UCS
5
7
100
AcDbSymbolTable
70
0
0
ENDTAB
0
TABLE
2
APPID
5
9
100
AcDbSymbolTable
70
2
0
APPID
5
12
100
AcDbSymbolTableRecord
100
AcDbRegAppTableRecord
2
ACAD
70
0
0
ENDTAB
0
TABLE
2
DIMSTYLE
5
A
100
AcDbSymbolTable
70
1
0
ENDTAB
0
TABLE
2
BLOCK_RECORD
5
1
100
AcDbSymbolTable
70
1
0
BLOCK_RECORD
5
1F
100
AcDbSymbolTableRecord
100
AcDbBlockTableRecord
2
*MODEL_SPACE
0
BLOCK_RECORD
5
1B
100
AcDbSymbolTableRecord
100
AcDbBlockTableRecord
2
*PAPER_SPACE
0
ENDTAB
0
ENDSEC
0
SECTION
2
BLOCKS
0
BLOCK
5
20
100
AcDbEntity
100
AcDbBlockBegin
2
*MODEL_SPACE
0
ENDBLK
5
21
100
AcDbEntity
100
AcDbBlockEnd
0
BLOCK
5
1C
100
AcDbEntity
100
AcDbBlockBegin
2
*PAPER_SPACE
0
ENDBLK
5
1D
100
AcDbEntity
100
AcDbBlockEnd
0
ENDSEC
0
SECTION
2
ENTITIES
0
LINE
5
100
100
AcDbEntity
8
0
100
AcDbLine
10
-24.405511471102539
20
18.242045454545433
30
0
11
-30.330511471102525
21
18.242045454545433
31
0
0
LINE
5
101
100
AcDbEntity
8
0
100
AcDbLine
10
-30.330511471102525
20
18.242045454545433
30
0
11
-30.330511471102515
21
18.867045454545426
31
0
0
LINE
5
102
100
AcDbEntity
8
0
100
AcDbLine
10
-30.330511471102515
20
18.867045454545426
30
0
11
-24.405511471102539
21
18.86704545454543
31
0
0
LINE
5
103
100
AcDbEntity
8
0
100
AcDbLine
10
-24.405511471102539
20
18.86704545454543
30
0
11
-24.405511471102539
21
18.242045454545433
31
0
0
LINE
5
104
100
AcDbEntity
8
0
100
AcDbLine
10
24.134610917148436
20
18.242045454545426
30
0
11
24.134610917148436
21
18.867045454545423
31
0
0
LINE
5
105
100
AcDbEntity
8
0
100
AcDbLine
10
24.134610917148436
20
18.867045454545423
30
0
11
30.059610917148412
21
18.867045454545423
31
0
0
LINE
5
106
100
AcDbEntity
8
0
100
AcDbLine
10
30.059610917148412
20
18.867045454545423
30
0
11
30.059610917148412
21
18.242045454545426
31
0
0
LINE
5
107
100
AcDbEntity
8
0
100
AcDbLine
10
30.059610917148412
20
18.242045454545426
30
0
11
24.134610917148436
21
18.242045454545426
31
0
0
LINE
5
108
100
AcDbEntity
8
0
100
AcDbLine
10
3.3831277029747575
20
-0.014772727272722719
30
0
11
3.3831277029747575
21
-0.65057135559273949
31
0
0
LINE
5
109
100
AcDbEntity
8
0
100
AcDbLine
10
3.3831277029747575
20
-0.65057135559274171
30
0
11
-2.5418722970252272
21
-0.6505713555927416
31
0
0
LINE
5
110
100
AcDbEntity
8
0
100
AcDbLine
10
-2.5418722970252272
20
-0.65057135559273727
30
0
11
-2.5418722970252272
21
-0.014772727272720498
31
0
0
LINE
5
111
100
AcDbEntity
8
0
100
AcDbLine
10
-2.5418722970252272
20
-0.014772727272722719
30
0
11
3.3831277029747575
21
-0.014772727272722884
31
0
0
LINE
5
112
100
AcDbEntity
8
0
100
AcDbLine
10
-37.387288227954137
20
-0.65057135559273727
30
0
11
-43.312288227954113
21
-0.65057135559273715
31
0
0
LINE
5
113
100
AcDbEntity
8
0
100
AcDbLine
10
-43.312288227954113
20
-0.65057135559273727
30
0
11
-43.312288227954113
21
-0.014772727272720498
31
0
0
LINE
5
114
100
AcDbEntity
8
0
100
AcDbLine
10
-43.312288227954113
20
-0.014772727272720498
30
0
11
-37.38728822795413
21
-0.014772727272720663
31
0
0
LINE
5
115
100
AcDbEntity
8
0
100
AcDbLine
10
-37.387288227954137
20
-0.014772727272722719
30
0
11
-37.387288227954137
21
-0.65057135559273949
31
0
0
LINE
5
116
100
AcDbEntity
8
0
100
AcDbLine
10
38.673352737431479
20
-0.65057135559274171
30
0
11
38.673352737431479
21
-0.014772727272724939
31
0
0
LINE
5
117
100
AcDbEntity
8
0
100
AcDbLine
10
38.673352737431479
20
-0.014772727272722719
30
0
11
44.598352737431455
21
-0.014772727272727324
31
0
0
LINE
5
118
100
AcDbEntity
8
0
100
AcDbLine
10
44.598352737431455
20
-0.01477272727272938
30
0
11
44.598352737431455
21
-0.65057135559274615
31
0
0
LINE
5
119
100
AcDbEntity
8
0
100
AcDbLine
10
44.598352737431455
20
-0.65057135559274615
30
0
11
38.673352737431479
21
-0.6505713555927416
31
0
0
LINE
5
120
100
AcDbEntity
8
0
100
AcDbLine
10
47.901136363636297
20
-8.5895080971721622
30
0
11
47.901136363636297
21
0.89445478754320851
31
0
0
LINE
5
121
100
AcDbEntity
8
0
100
AcDbLine
10
47.901136363636297
20
0.89445478754320851
30
0
11
47.201136363636294
21
0.89445478754320629
31
0
0
LINE
5
122
100
AcDbEntity
8
0
100
AcDbLine
10
47.201136363636294
20
0.89445478754320629
30
0
11
47.201136363636294
21
10.514273841565087
31
0
0
LINE
5
123
100
AcDbEntity
8
0
100
AcDbLine
10
47.201136363636294
20
10.514273841565089
30
0
11
47.901136363636297
21
10.514273841565092
31
0
0
LINE
5
124
100
AcDbEntity
8
0
100
AcDbLine
10
47.901136363636297
20
10.514273841565092
30
0
11
47.901136363636297
21
19.60568181818179
31
0
0
LINE
5
125
100
AcDbEntity
8
0
100
AcDbLine
10
47.901136363636297
20
19.60568181818179
30
0
11
-47.901136363636297
21
19.605681818181793
31
0
0
LINE
5
126
100
AcDbEntity
8
0
100
AcDbLine
10
-47.901136363636297
20
19.605681818181793
30
0
11
-47.90113636363629
21
10.514273841565094
31
0
0
LINE
5
127
100
AcDbEntity
8
0
100
AcDbLine
10
-47.901136363636283
20
10.514273841565092
30
0
11
-47.20113636363628
21
10.514273841565092
31
0
0
LINE
5
128
100
AcDbEntity
8
0
100
AcDbLine
10
-47.201136363636287
20
10.514273841565092
30
0
11
-47.201136363636287
21
0.89445478754321073
31
0
0
LINE
5
129
100
AcDbEntity
8
0
100
AcDbLine
10
-47.201136363636294
20
0.89445478754321295
30
0
11
-47.901136363636297
21
0.89445478754321295
31
0
0
LINE
5
130
100
AcDbEntity
8
0
100
AcDbLine
10
-47.90113636363629
20
0.89445478754321295
30
0
11
-47.901136363636283
21
-8.5895080971721587
31
0
0
LINE
5
131
100
AcDbEntity
8
0
100
AcDbLine
10
-47.901136363636283
20
-8.5895080971721587
30
0
11
-47.20113636363628
21
-8.5895080971721587
31
0
0
LINE
5
132
100
AcDbEntity
8
0
100
AcDbLine
10
-47.20113636363628
20
-8.5895080971721587
30
0
11
-47.201136363636273
21
-14.565172127590717
31
0
0
LINE
5
133
100
AcDbEntity
8
0
100
AcDbLine
10
-47.20113636363628
20
-14.565172127590717
30
0
11
-47.901136363636283
21
-14.565172127590714
31
0
0
LINE
5
134
100
AcDbEntity
8
0
100
AcDbLine
10
-47.901136363636283
20
-14.565172127590714
30
0
11
-47.901136363636276
21
-19.605681818181782
31
0
0
LINE
5
135
100
AcDbEntity
8
0
100
AcDbLine
10
-47.901136363636283
20
-19.605681818181782
30
0
11
-46.666761058720496
21
-19.605681818181782
31
0
0
LINE
5
136
100
AcDbEntity
8
0
100
AcDbLine
10
-46.666761058720496
20
-19.605681818181782
30
0
11
-46.666761058720496
21
-17.796590909090877
31
0
0
LINE
5
137
100
AcDbEntity
8
0
100
AcDbLine
10
-46.666761058720496
20
-17.796590909090877
30
0
11
-46.041761058720503
21
-17.796590909090877
31
0
0
LINE
5
138
100
AcDbEntity
8
0
100
AcDbLine
10
-46.041761058720496
20
-17.796590909090877
30
0
11
-46.041761058720489
21
-19.605681818181782
31
0
0
LINE
5
139
100
AcDbEntity
8
0
100
AcDbLine
10
-46.041761058720496
20
-19.605681818181782
30
0
11
-36.630681818181742
21
-19.605681818181782
31
0
0
LINE
5
140
100
AcDbEntity
8
0
100
AcDbLine
10
-36.630681818181742
20
-19.605681818181782
30
0
11
-36.630681818181763
21
-17.796590909090877
31
0
0
LINE
5
141
100
AcDbEntity
8
0
100
AcDbLine
10
-36.630681818181763
20
-17.796590909090877
30
0
11
-36.005681818181763
21
-17.796590909090877
31
0
0
LINE
5
142
100
AcDbEntity
8
0
100
AcDbLine
10
-36.005681818181763
20
-17.796590909090877
30
0
11
-36.005681818181749
21
-19.605681818181782
31
0
0
LINE
5
143
100
AcDbEntity
8
0
100
AcDbLine
10
-36.005681818181749
20
-19.605681818181782
30
0
11
-26.380681818181785
21
-19.605681818181782
31
0
0
LINE
5
144
100
AcDbEntity
8
0
100
AcDbLine
10
-26.380681818181788
20
-19.605681818181782
30
0
11
-26.380681818181777
21
-17.796590909090877
31
0
0
LINE
5
145
100
AcDbEntity
8
0
100
AcDbLine
10
-26.380681818181777
20
-17.796590909090877
30
0
11
-25.755681818181777
21
-17.796590909090877
31
0
0
LINE
5
146
100
AcDbEntity
8
0
100
AcDbLine
10
-25.755681818181777
20
-17.796590909090877
30
0
11
-25.755681818181777
21
-19.605681818181782
31
0
0
LINE
5
147
100
AcDbEntity
8
0
100
AcDbLine
10
-25.755681818181777
20
-19.605681818181782
30
0
11
-17.130681818181781
21
-19.605681818181782
31
0
0
LINE
5
148
100
AcDbEntity
8
0
100
AcDbLine
10
-17.130681818181781
20
-19.605681818181782
30
0
11
-17.130681818181792
21
-17.796590909090877
31
0
0
LINE
5
149
100
AcDbEntity
8
0
100
AcDbLine
10
-17.130681818181792
20
-17.796590909090877
30
0
11
-16.505681818181792
21
-17.796590909090877
31
0
0
LINE
5
150
100
AcDbEntity
8
0
100
AcDbLine
10
-16.505681818181792
20
-17.796590909090877
30
0
11
-16.505681818181792
21
-19.605681818181782
31
0
0
LINE
5
151
100
AcDbEntity
8
0
100
AcDbLine
10
-16.505681818181792
20
-19.605681818181782
30
0
11
-7.8806818181817917
21
-19.605681818181782
31
0
0
LINE
5
152
100
AcDbEntity
8
0
100
AcDbLine
10
-7.8806818181817917
20
-19.605681818181782
30
0
11
-7.8806818181817917
21
-17.796590909090877
31
0
0
LINE
5
153
100
AcDbEntity
8
0
100
AcDbLine
10
-7.8806818181817917
20
-17.796590909090877
30
0
11
-7.2556818181817917
21
-17.796590909090877
31
0
0
LINE
5
154
100
AcDbEntity
8
0
100
AcDbLine
10
-7.2556818181817917
20
-17.796590909090877
30
0
11
-7.2556818181818006
21
-19.605681818181782
31
0
0
LINE
5
155
100
AcDbEntity
8
0
100
AcDbLine
10
-7.2556818181818006
20
-19.605681818181782
30
0
11
7.2556818181817917
21
-19.605681818181782
31
0
0
LINE
5
156
100
AcDbEntity
8
0
100
AcDbLine
10
7.2556818181817917
20
-19.60568181818179
30
0
11
7.2556818181817917
21
-17.796590909090881
31
0
0
LINE
5
157
100
AcDbEntity
8
0
100
AcDbLine
10
7.2556818181817917
20
-17.796590909090881
30
0
11
7.8806818181817917
21
-17.796590909090881
31
0
0
LINE
5
158
100
AcDbEntity
8
0
100
AcDbLine
10
7.8806818181817917
20
-17.796590909090881
30
0
11
7.8806818181817917
21
-19.60568181818179
31
0
0
LINE
5
159
100
AcDbEntity
8
0
100
AcDbLine
10
7.8806818181817917
20
-19.60568181818179
30
0
11
16.505681818181781
21
-19.60568181818179
31
0
0
LINE
5
160
100
AcDbEntity
8
0
100
AcDbLine
10
16.505681818181781
20
-19.60568181818179
30
0
11
16.505681818181799
21
-17.796590909090881
31
0
0
LINE
5
161
100
AcDbEntity
8
0
100
AcDbLine
10
16.505681818181799
20
-17.796590909090881
30
0
11
17.130681818181799
21
-17.796590909090881
31
0
0
LINE
5
162
100
AcDbEntity
8
0
100
AcDbLine
10
17.130681818181799
20
-17.796590909090881
30
0
11
17.130681818181799
21
-19.60568181818179
31
0
0
LINE
5
163
100
AcDbEntity
8
0
100
AcDbLine
10
17.130681818181799
20
-19.60568181818179
30
0
11
25.755681818181788
21
-19.60568181818179
31
0
0
LINE
5
164
100
AcDbEntity
8
0
100
AcDbLine
10
25.755681818181788
20
-19.60568181818179
30
0
11
25.755681818181788
21
-17.796590909090881
31
0
0
LINE
5
165
100
AcDbEntity
8
0
100
AcDbLine
10
25.755681818181788
20
-17.796590909090881
30
0
11
26.380681818181788
21
-17.796590909090881
31
0
0
LINE
5
166
100
AcDbEntity
8
0
100
AcDbLine
10
26.380681818181788
20
-17.796590909090881
30
0
11
26.380681818181788
21
-19.60568181818179
31
0
0
LINE
5
167
100
AcDbEntity
8
0
100
AcDbLine
10
26.380681818181788
20
-19.60568181818179
30
0
11
36.005681818181756
21
-19.60568181818179
31
0
0
LINE
5
168
100
AcDbEntity
8
0
100
AcDbLine
10
36.005681818181756
20
-19.60568181818179
30
0
11
36.005681818181756
21
-17.796590909090881
31
0
0
LINE
5
169
100
AcDbEntity
8
0
100
AcDbLine
10
36.005681818181756
20
-17.796590909090881
30
0
11
36.630681818181756
21
-17.796590909090881
31
0
0
LINE
5
170
100
AcDbEntity
8
0
100
AcDbLine
10
36.630681818181756
20
-17.796590909090881
30
0
11
36.630681818181756
21
-19.60568181818179
31
0
0
LINE
5
171
100
AcDbEntity
8
0
100
AcDbLine
10
36.630681818181756
20
-19.60568181818179
30
0
11
46.191761058720516
21
-19.60568181818179
31
0
0
LINE
5
172
100
AcDbEntity
8
0
100
AcDbLine
10
46.191761058720516
20
-19.60568181818179
30
0
11
46.191761058720516
21
-17.796590909090881
31
0
0
LINE
5
173
100
AcDbEntity
8
0
100
AcDbLine
10
46.191761058720516
20
-17.796590909090881
30
0
11
46.816761058720516
21
-17.796590909090881
31
0
0
LINE
5
174
100
AcDbEntity
8
0
100
AcDbLine
10
46.816761058720516
20
-17.796590909090881
30
0
11
46.816761058720516
21
-19.60568181818179
31
0
0
LINE
5
175
100
AcDbEntity
8
0
100
AcDbLine
10
46.816761058720516
20
-19.60568181818179
30
0
11
47.901136363636297
21
-19.60568181818179
31
0
0
LINE
5
176
100
AcDbEntity
8
0
100
AcDbLine
10
47.901136363636297
20
-19.60568181818179
30
0
11
47.901136363636297
21
-14.565172127590717
31
0
0
LINE
5
177
100
AcDbEntity
8
0
100
AcDbLine
10
47.901136363636297
20
-14.565172127590717
30
0
11
47.201136363636294
21
-14.565172127590722
31
0
0
LINE
5
178
100
AcDbEntity
8
0
100
AcDbLine
10
47.201136363636294
20
-14.565172127590722
30
0
11
47.201136363636294
21
-8.5895080971721622
31
0
0
LINE
5
179
100
AcDbEntity
8
0
100
AcDbLine
10
47.201136363636294
20
-8.5895080971721622
30
0
11
47.901136363636297
21
-8.5895080971721622
31
0
0
ARC
5
180
100
AcDbEntity
8
0
100
AcDbCircle
10
-36.318181818181742
20
-4.840909090909074
30
0
40
8.3715909090909086
210
0
220
0
230
1
100
AcDbArc
50
252.89345016089092
51
287.10654983910916
0
LINE
5
181
100
AcDbEntity
8
0
100
AcDbLine
10
-38.780681818181733
20
-12.842135753063671
30
0
11
-38.780681818181748
21
-4.8784090909090612
31
0
0
LINE
5
182
100
AcDbEntity
8
0
100
AcDbLine
10
-38.780681818181748
20
-4.8784090909090612
30
0
11
-33.855681818181743
21
-4.8784090909090665
31
0
0
LINE
5
183
100
AcDbEntity
8
0
100
AcDbLine
10
-33.85568181818175
20
-4.8784090909090665
30
0
11
-33.855681818181736
21
-12.842135753063662
31
0
0
ARC
5
184
100
AcDbEntity
8
0
100
AcDbCircle
10
16.818181818181799
20
14.113636363636349
30
0
40
11.326136363636355
210
0
220
0
230
1
100
AcDbArc
50
253.8820205189437
51
286.11797948105635
0
LINE
5
185
100
AcDbEntity
8
0
100
AcDbLine
10
13.673863636363635
20
3.2327068032001871
30
0
11
13.673863636363615
21
18.16704545454542
31
0
0
LINE
5
186
100
AcDbEntity
8
0
100
AcDbLine
10
13.673863636363617
20
18.16704545454542
30
0
11
19.962499999999963
21
18.16704545454542
31
0
0
LINE
5
187
100
AcDbEntity
8
0
100
AcDbLine
10
19.962499999999963
20
18.16704545454542
30
0
11
19.962499999999984
21
3.2327068032001915
31
0
0
LINE
5
188
100
AcDbEntity
8
0
100
AcDbLine
10
33.401136363636326
20
18.167045454545431
30
0
11
39.235227272727222
21
18.167045454545431
31
0
0
LINE
5
189
100
AcDbEntity
8
0
100
AcDbLine
10
33.401136363636326
20
3.1695872617818788
30
0
11
33.401136363636326
21
18.167045454545431
31
0
0
ARC
5
190
100
AcDbEntity
8
0
100
AcDbCircle
10
36.318181818181756
20
14.11363636363637
30
0
40
11.32613636363638
210
0
220
0
230
1
100
AcDbArc
50
255.07526772550301
51
284.92473227449733
0
LINE
5
191
100
AcDbEntity
8
0
100
AcDbLine
10
39.235227272727222
20
18.167045454545431
30
0
11
39.235227272727244
21
3.1695872617818921
31
0
0
LINE
5
192
100
AcDbEntity
8
0
100
AcDbLine
10
38.780681818181755
20
-4.8784090909090789
30
0
11
38.780681818181776
21
-12.842135753063648
31
0
0
ARC
5
193
100
AcDbEntity
8
0
100
AcDbCircle
10
36.318181818181742
20
-4.8409090909089976
30
0
40
8.371590909090969
210
0
220
0
230
1
100
AcDbArc
50
252.89345016089109
51
287.10654983910928
0
LINE
5
194
100
AcDbEntity
8
0
100
AcDbLine
10
33.855681818181758
20
-12.842135753063662
30
0
11
33.855681818181758
21
-4.8784090909090789
31
0
0
LINE
5
195
100
AcDbEntity
8
0
100
AcDbLine
10
33.855681818181758
20
-4.8784090909090789
30
0
11
38.780681818181755
21
-4.8784090909090789
31
0
0
LINE
5
196
100
AcDbEntity
8
0
100
AcDbLine
10
2.4624999999999986
20
-4.8784090909090789
30
0
11
2.4624999999999995
21
-12.842135753063689
31
0
0
LINE
5
197
100
AcDbEntity
8
0
100
AcDbLine
10
-2.4624999999999897
20
-4.87840909090907
30
0
11
2.4624999999999986
21
-4.8784090909090754
31
0
0
LINE
5
198
100
AcDbEntity
8
0
100
AcDbLine
10
-2.4624999999999897
20
-12.842135753063683
30
0
11
-2.4624999999999906
21
-4.87840909090907
31
0
0
ARC
5
199
100
AcDbEntity
8
0
100
AcDbCircle
10
0
20
-4.8409090909089798
30
0
40
8.3715909090910099
210
0
220
0
230
1
100
AcDbArc
50
252.89345016089112
51
287.10654983910894
0
ARC
5
200
100
AcDbEntity
8
0
100
AcDbCircle
10
-16.818181818181763
20
-4.8409090909090384
30
0
40
8.3715909090909371
210
0
220
0
230
1
100
AcDbArc
50
252.89345016089089
51
287.10654983910905
0
LINE
5
201
100
AcDbEntity
8
0
100
AcDbLine
10
-19.280681818181762
20
-12.842135753063662
30
0
11
-19.280681818181762
21
-4.8784090909090665
31
0
0
LINE
5
202
100
AcDbEntity
8
0
100
AcDbLine
10
-19.280681818181762
20
-4.8784090909090665
30
0
11
-14.355681818181774
21
-4.87840909090907
31
0
0
LINE
5
203
100
AcDbEntity
8
0
100
AcDbLine
10
-14.355681818181774
20
-4.87840909090907
30
0
11
-14.355681818181765
21
-12.842135753063662
31
0
0
LINE
5
204
100
AcDbEntity
8
0
100
AcDbLine
10
-19.962499999999963
20
18.167045454545423
30
0
11
-13.673863636363608
21
18.16704545454542
31
0
0
LINE
5
205
100
AcDbEntity
8
0
100
AcDbLine
10
-19.96249999999997
20
3.2327068032001982
30
0
11
-19.962499999999967
21
18.167045454545423
31
0
0
ARC
5
206
100
AcDbEntity
8
0
100
AcDbCircle
10
-16.818181818181781
20
14.113636363636335
30
0
40
11.326136363636339
210
0
220
0
230
1
100
AcDbArc
50
253.88202051894356
51
286.11797948105635
0
LINE
5
207
100
AcDbEntity
8
0
100
AcDbLine
10
-13.673863636363608
20
18.167045454545423
30
0
11
-13.673863636363606
21
3.232706803200196
31
0
0
ARC
5
208
100
AcDbEntity
8
0
100
AcDbCircle
10
16.818181818181781
20
-4.8409090909091095
30
0
40
8.3715909090908696
210
0
220
0
230
1
100
AcDbArc
50
252.89345016089072
51
287.10654983910922
0
LINE
5
209
100
AcDbEntity
8
0
100
AcDbLine
10
14.355681818181782
20
-12.842135753063662
30
0
11
14.355681818181782
21
-4.8784090909090754
31
0
0
LINE
5
210
100
AcDbEntity
8
0
100
AcDbLine
10
14.355681818181782
20
-4.8784090909090754
30
0
11
19.280681818181762
21
-4.8784090909090789
31
0
0
LINE
5
211
100
AcDbEntity
8
0
100
AcDbLine
10
19.280681818181762
20
-4.8784090909090789
30
0
11
19.28068181818178
21
-12.842135753063662
31
0
0
ARC
5
212
100
AcDbEntity
8
0
100
AcDbCircle
10
-8.8817841970012523e-15
20
14.113636363636504
30
0
40
11.326136363636504
210
0
220
0
230
1
100
AcDbArc
50
253.8820205189439
51
286.11797948105618
0
LINE
5
213
100
AcDbEntity
8
0
100
AcDbLine
10
-3.1443181818181731
20
3.2327068032001893
30
0
11
-3.144318181818174
21
18.167045454545427
31
0
0
LINE
5
214
100
AcDbEntity
8
0
100
AcDbLine
10
-3.1443181818181731
20
18.167045454545427
30
0
11
3.144318181818182
21
18.167045454545427
31
0
0
LINE
5
215
100
AcDbEntity
8
0
100
AcDbLine
10
3.144318181818182
20
18.167045454545427
30
0
11
3.1443181818181829
21
3.2327068032001982
31
0
0
LINE
5
216
100
AcDbEntity
8
0
100
AcDbLine
10
-33.401136363636319
20
18.167045454545438
30
0
11
-33.401136363636311
21
3.1695872617818854
31
0
0
LINE
5
217
100
AcDbEntity
8
0
100
AcDbLine
10
-39.235227272727215
20
18.167045454545434
30
0
11
-33.401136363636311
21
18.167045454545434
31
0
0
LINE
5
218
100
AcDbEntity
8
0
100
AcDbLine
10
-39.235227272727208
20
3.1695872617818854
30
0
11
-39.235227272727215
21
18.167045454545438
31
0
0
ARC
5
219
100
AcDbEntity
8
0
100
AcDbCircle
10
-36.318181818181749
20
14.113636363636308
30
0
40
11.326136363636319
210
0
220
0
230
1
100
AcDbArc
50
255.07526772550275
51
284.9247322744971
0
ENDSEC
0
SECTION
2
OBJECTS
0
DICTIONARY
5
C
100
AcDbDictionary
3
ACAD_GROUP
350
D
3
ACAD_MLINESTYLE
350
17
0
DICTIONARY
5
D
100
AcDbDictionary
0
DICTIONARY
5
1A
330
C
100
AcDbDictionary
0
DICTIONARY
5
17
100
AcDbDictionary
0
ENDSEC
0
EOF
