0
SECTION
2
HEADER
9
$INSUNITS
70
4
9
$ACADVER
1
AC1014
9
$HANDSEED
5
FFFF
0
ENDSEC
0
SECTION
2
TABLES
0
TABLE
2
VPORT
5
8
100
AcDbSymbolTable
0
ENDTAB
0
TABLE
2
LTYPE
5
5
100
AcDbSymbolTable
0
LTYPE
5
14
100
AcDbSymbolTableRecord
100
AcDbLinetypeTableRecord
2
BYBLOCK
70
0
0
LTYPE
5
15
100
AcDbSymbolTableRecord
100
AcDbLinetypeTableRecord
2
BYLAYER
70
0
0
ENDTAB
0
TABLE
2
LAYER
5
2
100
AcDbSymbolTable
70
2
0
LAYER
5
50
100
AcDbSymbolTableRecord
100
AcDbLayerTableRecord
2
0
70
0
6
CONTINUOUS
0
ENDTAB
0
TABLE
2
STYLE
5
3
100
AcDbSymbolTable
70
1
0
STYLE
5
11
100
AcDbSymbolTableRecord
100
AcDbTextStyleTableRecord
2
STANDARD
70
0
0
ENDTAB
0
TABLE
2
VIEW
5
6
100
AcDbSymbolTable
70
0
0
ENDTAB
0
TABLE
2
UCS
5
7
100
AcDbSymbolTable
70
0
0
ENDTAB
0
TABLE
2
APPID
5
9
100
AcDbSymbolTable
70
2
0
APPID
5
12
100
AcDbSymbolTableRecord
100
AcDbRegAppTableRecord
2
ACAD
70
0
0
ENDTAB
0
TABLE
2
DIMSTYLE
5
A
100
AcDbSymbolTable
70
1
0
ENDTAB
0
TABLE
2
BLOCK_RECORD
5
1
100
AcDbSymbolTable
70
1
0
BLOCK_RECORD
5
1F
100
AcDbSymbolTableRecord
100
AcDbBlockTableRecord
2
*MODEL_SPACE
0
BLOCK_RECORD
5
1B
100
AcDbSymbolTableRecord
100
AcDbBlockTableRecord
2
*PAPER_SPACE
0
ENDTAB
0
ENDSEC
0
SECTION
2
BLOCKS
0
BLOCK
5
20
100
AcDbEntity
100
AcDbBlockBegin
2
*MODEL_SPACE
0
ENDBLK
5
21
100
AcDbEntity
100
AcDbBlockEnd
0
BLOCK
5
1C
100
AcDbEntity
100
AcDbBlockBegin
2
*PAPER_SPACE
0
ENDBLK
5
1D
100
AcDbEntity
100
AcDbBlockEnd
0
ENDSEC
0
SECTION
2
ENTITIES
0
LINE
5
100
100
AcDbEntity
8
0
100
AcDbLine
10
26.380681818181788
20
17.796590909090884
30
0
11
25.755681818181788
21
17.796590909090884
31
0
0
LINE
5
101
100
AcDbEntity
8
0
100
AcDbLine
10
25.755681818181788
20
17.796590909090884
30
0
11
25.755681818181788
21
19.60568181818179
31
0
0
LINE
5
102
100
AcDbEntity
8
0
100
AcDbLine
10
25.755681818181788
20
19.60568181818179
30
0
11
17.130681818181799
21
19.60568181818179
31
0
0
LINE
5
103
100
AcDbEntity
8
0
100
AcDbLine
10
17.130681818181799
20
19.60568181818179
30
0
11
17.130681818181799
21
17.796590909090884
31
0
0
LINE
5
104
100
AcDbEntity
8
0
100
AcDbLine
10
17.130681818181799
20
17.796590909090884
30
0
11
16.505681818181799
21
17.796590909090884
31
0
0
LINE
5
105
100
AcDbEntity
8
0
100
AcDbLine
10
16.505681818181799
20
17.796590909090884
30
0
11
16.505681818181799
21
19.60568181818179
31
0
0
LINE
5
106
100
AcDbEntity
8
0
100
AcDbLine
10
16.505681818181799
20
19.60568181818179
30
0
11
7.8806818181818095
21
19.60568181818179
31
0
0
LINE
5
107
100
AcDbEntity
8
0
100
AcDbLine
10
7.8806818181818095
20
19.60568181818179
30
0
11
7.8806818181817917
21
17.796590909090884
31
0
0
LINE
5
108
100
AcDbEntity
8
0
100
AcDbLine
10
7.8806818181817917
20
17.796590909090884
30
0
11
7.2556818181817917
21
17.796590909090884
31
0
0
LINE
5
109
100
AcDbEntity
8
0
100
AcDbLine
10
7.2556818181817917
20
17.796590909090884
30
0
11
7.2556818181817917
21
19.60568181818179
31
0
0
LINE
5
110
100
AcDbEntity
8
0
100
AcDbLine
10
7.2556818181817917
20
19.60568181818179
30
0
11
-7.2556818181818095
21
19.60568181818179
31
0
0
LINE
5
111
100
AcDbEntity
8
0
100
AcDbLine
10
-7.2556818181818095
20
19.60568181818179
30
0
11
-7.2556818181818006
21
17.796590909090884
31
0
0
LINE
5
112
100
AcDbEntity
8
0
100
AcDbLine
10
-7.2556818181818006
20
17.796590909090884
30
0
11
-7.8806818181818006
21
17.796590909090884
31
0
0
LINE
5
113
100
AcDbEntity
8
0
100
AcDbLine
10
-7.8806818181818006
20
17.796590909090884
30
0
11
-7.8806818181817917
21
19.60568181818179
31
0
0
LINE
5
114
100
AcDbEntity
8
0
100
AcDbLine
10
-7.8806818181817917
20
19.60568181818179
30
0
11
-16.505681818181781
21
19.60568181818179
31
0
0
LINE
5
115
100
AcDbEntity
8
0
100
AcDbLine
10
-16.505681818181781
20
19.60568181818179
30
0
11
-16.505681818181792
21
17.796590909090884
31
0
0
LINE
5
116
100
AcDbEntity
8
0
100
AcDbLine
10
-16.505681818181792
20
17.796590909090884
30
0
11
-17.130681818181792
21
17.796590909090884
31
0
0
LINE
5
117
100
AcDbEntity
8
0
100
AcDbLine
10
-17.130681818181792
20
17.796590909090884
30
0
11
-17.130681818181792
21
19.60568181818179
31
0
0
LINE
5
118
100
AcDbEntity
8
0
100
AcDbLine
10
-17.130681818181792
20
19.60568181818179
30
0
11
-25.755681818181788
21
19.60568181818179
31
0
0
LINE
5
119
100
AcDbEntity
8
0
100
AcDbLine
10
-25.755681818181788
20
19.60568181818179
30
0
11
-25.755681818181777
21
17.796590909090884
31
0
0
LINE
5
120
100
AcDbEntity
8
0
100
AcDbLine
10
-25.755681818181777
20
17.796590909090884
30
0
11
-26.380681818181777
21
17.796590909090884
31
0
0
LINE
5
121
100
AcDbEntity
8
0
100
AcDbLine
10
-26.380681818181777
20
17.796590909090884
30
0
11
-26.380681818181777
21
19.60568181818179
31
0
0
LINE
5
122
100
AcDbEntity
8
0
100
AcDbLine
10
-26.380681818181777
20
19.60568181818179
30
0
11
-36.005681818181749
21
19.60568181818179
31
0
0
LINE
5
123
100
AcDbEntity
8
0
100
AcDbLine
10
-36.005681818181742
20
19.60568181818179
30
0
11
-36.005681818181763
21
17.796590909090884
31
0
0
LINE
5
124
100
AcDbEntity
8
0
100
AcDbLine
10
-36.005681818181763
20
17.796590909090884
30
0
11
-36.630681818181763
21
17.796590909090884
31
0
0
LINE
5
125
100
AcDbEntity
8
0
100
AcDbLine
10
-36.630681818181763
20
17.796590909090884
30
0
11
-36.630681818181749
21
19.60568181818179
31
0
0
LINE
5
126
100
AcDbEntity
8
0
100
AcDbLine
10
-36.630681818181749
20
19.60568181818179
30
0
11
-46.191761058720516
21
19.60568181818179
31
0
0
LINE
5
127
100
AcDbEntity
8
0
100
AcDbLine
10
-46.191761058720516
20
19.60568181818179
30
0
11
-46.191761058720509
21
17.796590909090884
31
0
0
LINE
5
128
100
AcDbEntity
8
0
100
AcDbLine
10
-46.191761058720502
20
17.796590909090884
30
0
11
-46.501136363636277
21
17.796590909090884
31
0
0
LINE
5
129
100
AcDbEntity
8
0
100
AcDbLine
10
-46.501136363636277
20
17.796590909090884
30
0
11
-46.501136363636284
21
15.707093700970249
31
0
0
LINE
5
130
100
AcDbEntity
8
0
100
AcDbLine
10
-46.501136363636292
20
15.707093700970244
30
0
11
-47.201136363636287
21
15.707093700970237
31
0
0
LINE
5
131
100
AcDbEntity
8
0
100
AcDbLine
10
-47.20113636363628
20
15.707093700970237
30
0
11
-47.201136363636287
21
3.4836189033409903
31
0
0
LINE
5
132
100
AcDbEntity
8
0
100
AcDbLine
10
-47.201136363636294
20
3.4836189033409926
30
0
11
-46.501136363636292
21
3.4836189033409881
31
0
0
LINE
5
133
100
AcDbEntity
8
0
100
AcDbLine
10
-46.501136363636292
20
3.4836189033409881
30
0
11
-46.501136363636284
21
-6.1812464735793355
31
0
0
LINE
5
134
100
AcDbEntity
8
0
100
AcDbLine
10
-46.501136363636284
20
-6.1812464735793355
30
0
11
-47.201136363636287
21
-6.181246473579332
31
0
0
LINE
5
135
100
AcDbEntity
8
0
100
AcDbLine
10
-47.201136363636287
20
-6.181246473579332
30
0
11
-47.201136363636287
21
-12.215254085883183
31
0
0
LINE
5
136
100
AcDbEntity
8
0
100
AcDbLine
10
-47.201136363636287
20
-12.215254085883181
30
0
11
-46.501136363636292
21
-12.215254085883178
31
0
0
LINE
5
137
100
AcDbEntity
8
0
100
AcDbLine
10
-46.501136363636292
20
-12.215254085883181
30
0
11
-46.501136363636292
21
-19.605681818181793
31
0
0
LINE
5
138
100
AcDbEntity
8
0
100
AcDbLine
10
-46.501136363636292
20
-19.60568181818179
30
0
11
46.501136363636292
21
-19.60568181818179
31
0
0
LINE
5
139
100
AcDbEntity
8
0
100
AcDbLine
10
46.501136363636292
20
-19.60568181818179
30
0
11
46.501136363636292
21
-12.215254085883176
31
0
0
LINE
5
140
100
AcDbEntity
8
0
100
AcDbLine
10
46.501136363636292
20
-12.215254085883176
30
0
11
47.201136363636294
21
-12.215254085883176
31
0
0
LINE
5
141
100
AcDbEntity
8
0
100
AcDbLine
10
47.201136363636294
20
-12.215254085883176
30
0
11
47.201136363636294
21
-6.1812464735793293
31
0
0
LINE
5
142
100
AcDbEntity
8
0
100
AcDbLine
10
47.201136363636294
20
-6.1812464735793293
30
0
11
46.501136363636292
21
-6.1812464735793267
31
0
0
LINE
5
143
100
AcDbEntity
8
0
100
AcDbLine
10
46.501136363636292
20
-6.1812464735793267
30
0
11
46.501136363636292
21
3.483618903340997
31
0
0
LINE
5
144
100
AcDbEntity
8
0
100
AcDbLine
10
46.501136363636292
20
3.483618903340997
30
0
11
47.201136363636294
21
3.4836189033409926
31
0
0
LINE
5
145
100
AcDbEntity
8
0
100
AcDbLine
10
47.201136363636294
20
3.4836189033409926
30
0
11
47.201136363636294
21
15.707093700970242
31
0
0
LINE
5
146
100
AcDbEntity
8
0
100
AcDbLine
10
47.201136363636294
20
15.707093700970244
30
0
11
46.501136363636292
21
15.707093700970249
31
0
0
LINE
5
147
100
AcDbEntity
8
0
100
AcDbLine
10
46.501136363636292
20
15.707093700970244
30
0
11
46.501136363636292
21
17.796590909090884
31
0
0
LINE
5
148
100
AcDbEntity
8
0
100
AcDbLine
10
46.501136363636292
20
17.796590909090884
30
0
11
46.191761058720516
21
17.796590909090884
31
0
0
LINE
5
149
100
AcDbEntity
8
0
100
AcDbLine
10
46.191761058720516
20
17.796590909090884
30
0
11
46.191761058720516
21
19.60568181818179
31
0
0
LINE
5
150
100
AcDbEntity
8
0
100
AcDbLine
10
46.191761058720516
20
19.60568181818179
30
0
11
36.630681818181756
21
19.60568181818179
31
0
0
LINE
5
151
100
AcDbEntity
8
0
100
AcDbLine
10
36.630681818181756
20
19.60568181818179
30
0
11
36.630681818181756
21
17.796590909090884
31
0
0
LINE
5
152
100
AcDbEntity
8
0
100
AcDbLine
10
36.630681818181756
20
17.796590909090884
30
0
11
36.005681818181756
21
17.796590909090884
31
0
0
LINE
5
153
100
AcDbEntity
8
0
100
AcDbLine
10
36.005681818181756
20
17.796590909090884
30
0
11
36.005681818181756
21
19.60568181818179
31
0
0
LINE
5
154
100
AcDbEntity
8
0
100
AcDbLine
10
36.005681818181756
20
19.60568181818179
30
0
11
26.380681818181788
21
19.60568181818179
31
0
0
LINE
5
155
100
AcDbEntity
8
0
100
AcDbLine
10
26.380681818181788
20
19.60568181818179
30
0
11
26.380681818181788
21
17.796590909090884
31
0
0
ARC
5
156
100
AcDbEntity
8
0
100
AcDbCircle
10
16.818181818181728
20
4.8409090909088492
30
0
40
7.9170454545456872
210
0
220
-0
230
1
100
AcDbArc
50
75.307920483299398
51
88.08347833551008
0
LINE
5
157
100
AcDbEntity
8
0
100
AcDbLine
10
18.82613636363633
20
12.499089506172695
30
0
11
18.82613636363633
21
10.332954545454523
31
0
0
LINE
5
158
100
AcDbEntity
8
0
100
AcDbLine
10
18.82613636363633
20
10.332954545454523
30
0
11
17.082954545454534
21
10.332954545454523
31
0
0
LINE
5
159
100
AcDbEntity
8
0
100
AcDbLine
10
17.082954545454534
20
10.332954545454523
30
0
11
17.082954545454552
21
12.753525859856719
31
0
0
LINE
5
160
100
AcDbEntity
8
0
100
AcDbLine
10
18.82613636363633
20
7.3034090909090699
30
0
11
18.826136363636312
21
5.3329545454545313
31
0
0
LINE
5
161
100
AcDbEntity
8
0
100
AcDbLine
10
18.826136363636312
20
5.3329545454545313
30
0
11
17.082954545454552
21
5.3329545454545313
31
0
0
LINE
5
162
100
AcDbEntity
8
0
100
AcDbLine
10
17.082954545454552
20
5.3329545454545313
30
0
11
17.082954545454552
21
7.3034090909090699
31
0
0
LINE
5
163
100
AcDbEntity
8
0
100
AcDbLine
10
17.082954545454552
20
7.3034090909090699
30
0
11
18.82613636363633
21
7.3034090909090699
31
0
0
LINE
5
164
100
AcDbEntity
8
0
100
AcDbLine
10
2.0079545454545666
20
7.3034090909090699
30
0
11
2.0079545454545662
21
5.3329545454545313
31
0
0
LINE
5
165
100
AcDbEntity
8
0
100
AcDbLine
10
2.0079545454545666
20
5.3329545454545313
30
0
11
0.26477272727275292
21
5.3329545454545313
31
0
0
LINE
5
166
100
AcDbEntity
8
0
100
AcDbLine
10
0.26477272727275292
20
5.3329545454545313
30
0
11
0.26477272727275308
21
7.3034090909090699
31
0
0
LINE
5
167
100
AcDbEntity
8
0
100
AcDbLine
10
0.26477272727275292
20
7.3034090909090699
30
0
11
2.0079545454545666
21
7.3034090909090699
31
0
0
LINE
5
168
100
AcDbEntity
8
0
100
AcDbLine
10
-0.26477272727275292
20
-13.621590909090893
30
0
11
-2.6897727272727323
21
-13.621590909090894
31
0
0
LINE
5
169
100
AcDbEntity
8
0
100
AcDbLine
10
-2.6897727272727323
20
-13.621590909090894
30
0
11
-2.689772727272723
21
-6.7703908762546412
31
0
0
LINE
5
170
100
AcDbEntity
8
0
100
AcDbLine
10
-2.6897727272727234
20
-6.7703908762546412
30
0
11
-0.26477272727274404
21
-6.7703908762546412
31
0
0
LINE
5
171
100
AcDbEntity
8
0
100
AcDbLine
10
-0.26477272727274404
20
-6.7703908762546412
30
0
11
-0.26477272727275353
21
-13.621590909090893
31
0
0
LINE
5
172
100
AcDbEntity
8
0
100
AcDbLine
10
2.6897727272727323
20
-6.7703908762546439
30
0
11
2.6897727272727319
21
-13.621590909090893
31
0
0
LINE
5
173
100
AcDbEntity
8
0
100
AcDbLine
10
2.6897727272727323
20
-13.621590909090893
30
0
11
0.26477272727275292
21
-13.621590909090894
31
0
0
LINE
5
174
100
AcDbEntity
8
0
100
AcDbLine
10
0.26477272727275292
20
-13.621590909090893
30
0
11
0.26477272727275353
21
-6.7703908762546439
31
0
0
LINE
5
175
100
AcDbEntity
8
0
100
AcDbLine
10
0.26477272727275292
20
-6.7703908762546439
30
0
11
2.6897727272727323
21
-6.7703908762546439
31
0
0
LINE
5
176
100
AcDbEntity
8
0
100
AcDbLine
10
-34.310227272727225
20
9.8034090909090708
30
0
11
-34.310227272727225
21
7.8329545454545269
31
0
0
LINE
5
177
100
AcDbEntity
8
0
100
AcDbLine
10
-34.310227272727225
20
7.8329545454545224
30
0
11
-36.053409090909
21
7.832954545454518
31
0
0
LINE
5
178
100
AcDbEntity
8
0
100
AcDbLine
10
-36.053409090909
20
7.8329545454545224
30
0
11
-36.053409090909
21
9.8034090909090654
31
0
0
LINE
5
179
100
AcDbEntity
8
0
100
AcDbLine
10
-36.053409090909
20
9.8034090909090601
30
0
11
-34.310227272727218
21
9.8034090909090654
31
0
0
LINE
5
180
100
AcDbEntity
8
0
100
AcDbLine
10
-38.326136363636294
20
7.8329545454545224
30
0
11
-38.326136363636294
21
9.8034090909090654
31
0
0
LINE
5
181
100
AcDbEntity
8
0
100
AcDbLine
10
-38.326136363636294
20
9.8034090909090601
30
0
11
-36.582954545454513
21
9.8034090909090654
31
0
0
LINE
5
182
100
AcDbEntity
8
0
100
AcDbLine
10
-36.582954545454513
20
9.8034090909090708
30
0
11
-36.582954545454513
21
7.8329545454545269
31
0
0
LINE
5
183
100
AcDbEntity
8
0
100
AcDbLine
10
-36.582954545454513
20
7.8329545454545224
30
0
11
-38.326136363636294
21
7.832954545454518
31
0
0
LINE
5
184
100
AcDbEntity
8
0
100
AcDbLine
10
-36.582954545454506
20
5.3329545454545313
30
0
11
-38.326136363636294
21
5.3329545454545313
31
0
0
LINE
5
185
100
AcDbEntity
8
0
100
AcDbLine
10
-38.326136363636294
20
5.3329545454545313
30
0
11
-38.326136363636294
21
7.3034090909090699
31
0
0
LINE
5
186
100
AcDbEntity
8
0
100
AcDbLine
10
-38.326136363636294
20
7.3034090909090699
30
0
11
-36.582954545454506
21
7.3034090909090699
31
0
0
LINE
5
187
100
AcDbEntity
8
0
100
AcDbLine
10
-36.582954545454506
20
7.3034090909090699
30
0
11
-36.582954545454506
21
5.3329545454545313
31
0
0
LINE
5
188
100
AcDbEntity
8
0
100
AcDbLine
10
-34.310227272727218
20
7.3034090909090699
30
0
11
-34.310227272727225
21
5.3329545454545313
31
0
0
LINE
5
189
100
AcDbEntity
8
0
100
AcDbLine
10
-34.310227272727225
20
5.3329545454545313
30
0
11
-36.053409090909
21
5.3329545454545313
31
0
0
LINE
5
190
100
AcDbEntity
8
0
100
AcDbLine
10
-36.053409090909
20
5.3329545454545313
30
0
11
-36.053409090909
21
7.3034090909090699
31
0
0
LINE
5
191
100
AcDbEntity
8
0
100
AcDbLine
10
-36.053409090909
20
7.3034090909090699
30
0
11
-34.310227272727211
21
7.3034090909090699
31
0
0
LINE
5
192
100
AcDbEntity
8
0
100
AcDbLine
10
-33.855681818181758
20
-6.7703908762546439
30
0
11
-33.855681818181758
21
-13.621590909090893
31
0
0
LINE
5
193
100
AcDbEntity
8
0
100
AcDbLine
10
-33.855681818181758
20
-13.621590909090893
30
0
11
-36.053409090909
21
-13.621590909090894
31
0
0
LINE
5
194
100
AcDbEntity
8
0
100
AcDbLine
10
-36.053409090909
20
-13.621590909090893
30
0
11
-36.053409090909
21
-6.7703908762546439
31
0
0
LINE
5
195
100
AcDbEntity
8
0
100
AcDbLine
10
-36.053409090909
20
-6.7703908762546439
30
0
11
-33.85568181818175
21
-6.7703908762546439
31
0
0
LINE
5
196
100
AcDbEntity
8
0
100
AcDbLine
10
-36.582954545454506
20
-13.621590909090894
30
0
11
-38.780681818181748
21
-13.621590909090898
31
0
0
LINE
5
197
100
AcDbEntity
8
0
100
AcDbLine
10
-38.780681818181748
20
-13.621590909090898
30
0
11
-38.780681818181762
21
-6.7703908762546439
31
0
0
LINE
5
198
100
AcDbEntity
8
0
100
AcDbLine
10
-38.780681818181762
20
-6.7703908762546412
30
0
11
-36.582954545454506
21
-6.7703908762546412
31
0
0
LINE
5
199
100
AcDbEntity
8
0
100
AcDbLine
10
-36.582954545454506
20
-6.7703908762546412
30
0
11
-36.582954545454506
21
-13.621590909090893
31
0
0
LINE
5
200
100
AcDbEntity
8
0
100
AcDbLine
10
-38.780681818181748
20
-6.2408454217091869
30
0
11
-38.780681818181748
21
-3.5246051216091634
31
0
0
ARC
5
201
100
AcDbEntity
8
0
100
AcDbCircle
10
-36.318181818181671
20
-14.113636363636957
30
0
40
10.871590909091504
210
0
220
0
230
1
100
AcDbArc
50
91.395551031311399
51
103.0915573237709
0
LINE
5
202
100
AcDbEntity
8
0
100
AcDbLine
10
-36.582954545454506
20
-3.2452701433840891
30
0
11
-36.582954545454506
21
-6.2408454217091869
31
0
0
LINE
5
203
100
AcDbEntity
8
0
100
AcDbLine
10
-36.582954545454506
20
-6.2408454217091869
30
0
11
-38.780681818181748
21
-6.2408454217091869
31
0
0
LINE
5
204
100
AcDbEntity
8
0
100
AcDbLine
10
-18.826136363636323
20
10.332954545454523
30
0
11
-18.826136363636323
21
12.499089506172712
31
0
0
ARC
5
205
100
AcDbEntity
8
0
100
AcDbCircle
10
-16.818181818181841
20
4.8409090909095243
30
0
40
7.9170454545450148
210
0
220
0
230
1
100
AcDbArc
50
91.916521664489181
51
104.69207951670094
0
LINE
5
206
100
AcDbEntity
8
0
100
AcDbLine
10
-17.082954545454541
20
12.753525859856726
30
0
11
-17.082954545454541
21
10.332954545454518
31
0
0
LINE
5
207
100
AcDbEntity
8
0
100
AcDbLine
10
-17.082954545454541
20
10.332954545454523
30
0
11
-18.826136363636323
21
10.332954545454523
31
0
0
LINE
5
208
100
AcDbEntity
8
0
100
AcDbLine
10
-16.553409090909035
20
-6.2408454217091913
30
0
11
-16.553409090909035
21
-3.2452701433840891
31
0
0
ARC
5
209
100
AcDbEntity
8
0
100
AcDbCircle
10
-16.818181818181817
20
-14.113636363636701
30
0
40
10.871590909091253
210
0
220
-0
230
1
100
AcDbArc
50
75.675521561563585
51
88.604448968688828
0
LINE
5
210
100
AcDbEntity
8
0
100
AcDbLine
10
-14.128409090909066
20
-3.5800419357951174
30
0
11
-14.128409090909066
21
-6.2408454217091913
31
0
0
LINE
5
211
100
AcDbEntity
8
0
100
AcDbLine
10
-14.128409090909066
20
-6.2408454217091913
30
0
11
-16.553409090909035
21
-6.2408454217091913
31
0
0
LINE
5
212
100
AcDbEntity
8
0
100
AcDbLine
10
-19.507954545454513
20
-6.2408454217091869
30
0
11
-19.507954545454503
21
-3.5800419357951063
31
0
0
ARC
5
213
100
AcDbEntity
8
0
100
AcDbCircle
10
-16.818181818181817
20
-14.113636363636701
30
0
40
10.871590909091246
210
0
220
0
230
1
100
AcDbArc
50
91.395551031310859
51
104.32447843843605
0
LINE
5
214
100
AcDbEntity
8
0
100
AcDbLine
10
-17.082954545454541
20
-3.2452701433840914
30
0
11
-17.082954545454541
21
-6.2408454217091887
31
0
0
LINE
5
215
100
AcDbEntity
8
0
100
AcDbLine
10
-17.082954545454541
20
-6.2408454217091887
30
0
11
-19.507954545454513
21
-6.2408454217091869
31
0
0
LINE
5
216
100
AcDbEntity
8
0
100
AcDbLine
10
16.553409090909046
20
-13.621590909090893
30
0
11
14.128409090909066
21
-13.621590909090893
31
0
0
LINE
5
217
100
AcDbEntity
8
0
100
AcDbLine
10
14.128409090909066
20
-13.621590909090893
30
0
11
14.128409090909066
21
-6.7703908762546403
31
0
0
LINE
5
218
100
AcDbEntity
8
0
100
AcDbLine
10
14.128409090909066
20
-6.7703908762546412
30
0
11
16.553409090909046
21
-6.7703908762546412
31
0
0
LINE
5
219
100
AcDbEntity
8
0
100
AcDbLine
10
16.553409090909046
20
-6.7703908762546412
30
0
11
16.553409090909046
21
-13.621590909090893
31
0
0
LINE
5
220
100
AcDbEntity
8
0
100
AcDbLine
10
36.582954545454527
20
-6.2408454217091869
30
0
11
36.582954545454527
21
-3.2452701433840869
31
0
0
LINE
5
221
100
AcDbEntity
8
0
100
AcDbLine
10
38.780681818181776
20
-6.2408454217091851
30
0
11
36.582954545454527
21
-6.2408454217091869
31
0
0
LINE
5
222
100
AcDbEntity
8
0
100
AcDbLine
10
38.780681818181755
20
-3.5246051216091656
30
0
11
38.780681818181776
21
-6.2408454217091851
31
0
0
ARC
5
223
100
AcDbEntity
8
0
100
AcDbCircle
10
36.318181818181792
20
-14.113636363635766
30
0
40
10.871590909090319
210
0
220
-0
230
1
100
AcDbArc
50
76.908442676228276
51
88.604448968688999
0
LINE
5
224
100
AcDbEntity
8
0
100
AcDbLine
10
33.855681818181779
20
-13.621590909090905
30
0
11
33.855681818181779
21
-6.7703908762546439
31
0
0
LINE
5
225
100
AcDbEntity
8
0
100
AcDbLine
10
33.855681818181779
20
-6.7703908762546439
30
0
11
36.053409090909021
21
-6.7703908762546439
31
0
0
LINE
5
226
100
AcDbEntity
8
0
100
AcDbLine
10
36.053409090909021
20
-6.7703908762546439
30
0
11
36.053409090909021
21
-13.621590909090905
31
0
0
LINE
5
227
100
AcDbEntity
8
0
100
AcDbLine
10
36.053409090909021
20
-13.621590909090903
30
0
11
33.855681818181779
21
-13.621590909090905
31
0
0
ARC
5
228
100
AcDbEntity
8
0
100
AcDbCircle
10
36.318181818181792
20
-14.113636363635766
30
0
40
10.871590909090321
210
0
220
0
230
1
100
AcDbArc
50
91.395551031311228
51
103.09155732377199
0
LINE
5
229
100
AcDbEntity
8
0
100
AcDbLine
10
36.053409090909021
20
-3.2452701433840847
30
0
11
36.053409090909021
21
-6.2408454217091887
31
0
0
LINE
5
230
100
AcDbEntity
8
0
100
AcDbLine
10
36.053409090909021
20
-6.2408454217091887
30
0
11
33.855681818181779
21
-6.2408454217091887
31
0
0
LINE
5
231
100
AcDbEntity
8
0
100
AcDbLine
10
33.855681818181779
20
-6.2408454217091887
30
0
11
33.855681818181779
21
-3.5246051216091767
31
0
0
ARC
5
232
100
AcDbEntity
8
0
100
AcDbCircle
10
36.318181818181742
20
4.8409090909091423
30
0
40
7.9170454545453941
210
0
220
0
230
1
100
AcDbArc
50
91.916521664489409
51
104.69207951670045
0
LINE
5
233
100
AcDbEntity
8
0
100
AcDbLine
10
36.053409090909
20
12.753525859856719
30
0
11
36.053409090909021
21
10.332954545454523
31
0
0
LINE
5
234
100
AcDbEntity
8
0
100
AcDbLine
10
36.053409090909021
20
10.332954545454523
30
0
11
34.310227272727225
21
10.332954545454523
31
0
0
LINE
5
235
100
AcDbEntity
8
0
100
AcDbLine
10
34.310227272727225
20
10.332954545454523
30
0
11
34.310227272727225
21
12.499089506172702
31
0
0
LINE
5
236
100
AcDbEntity
8
0
100
AcDbLine
10
38.326136363636323
20
10.33295454545453
30
0
11
36.582954545454491
21
10.332954545454523
31
0
0
LINE
5
237
100
AcDbEntity
8
0
100
AcDbLine
10
38.326136363636323
20
12.499089506172695
30
0
11
38.326136363636323
21
10.33295454545453
31
0
0
ARC
5
238
100
AcDbEntity
8
0
100
AcDbCircle
10
36.318181818181742
20
4.8409090909091423
30
0
40
7.9170454545454048
210
0
220
-0
230
1
100
AcDbArc
50
75.307920483299043
51
88.08347833551035
0
LINE
5
239
100
AcDbEntity
8
0
100
AcDbLine
10
36.582954545454491
20
10.332954545454523
30
0
11
36.582954545454527
21
12.753525859856719
31
0
0
LINE
5
240
100
AcDbEntity
8
0
100
AcDbLine
10
36.582954545454491
20
7.8329545454545313
30
0
11
36.582954545454491
21
9.8034090909090708
31
0
0
LINE
5
241
100
AcDbEntity
8
0
100
AcDbLine
10
36.582954545454491
20
9.8034090909090708
30
0
11
38.326136363636323
21
9.8034090909090708
31
0
0
LINE
5
242
100
AcDbEntity
8
0
100
AcDbLine
10
38.326136363636323
20
9.8034090909090708
30
0
11
38.326136363636323
21
7.8329545454545313
31
0
0
LINE
5
243
100
AcDbEntity
8
0
100
AcDbLine
10
38.326136363636323
20
7.8329545454545313
30
0
11
36.582954545454491
21
7.8329545454545313
31
0
0
LINE
5
244
100
AcDbEntity
8
0
100
AcDbLine
10
36.582954545454491
20
7.3034090909090699
30
0
11
38.326136363636323
21
7.3034090909090699
31
0
0
LINE
5
245
100
AcDbEntity
8
0
100
AcDbLine
10
38.326136363636323
20
7.3034090909090699
30
0
11
38.326136363636323
21
5.3329545454545313
31
0
0
LINE
5
246
100
AcDbEntity
8
0
100
AcDbLine
10
38.326136363636323
20
5.3329545454545313
30
0
11
36.582954545454491
21
5.3329545454545313
31
0
0
LINE
5
247
100
AcDbEntity
8
0
100
AcDbLine
10
36.582954545454491
20
5.3329545454545313
30
0
11
36.582954545454491
21
7.3034090909090699
31
0
0
LINE
5
248
100
AcDbEntity
8
0
100
AcDbLine
10
36.053409090909021
20
7.3034090909090699
30
0
11
36.053409090909021
21
5.3329545454545313
31
0
0
LINE
5
249
100
AcDbEntity
8
0
100
AcDbLine
10
36.053409090909021
20
5.3329545454545313
30
0
11
34.310227272727204
21
5.3329545454545313
31
0
0
LINE
5
250
100
AcDbEntity
8
0
100
AcDbLine
10
34.310227272727204
20
5.3329545454545313
30
0
11
34.310227272727204
21
7.3034090909090699
31
0
0
LINE
5
251
100
AcDbEntity
8
0
100
AcDbLine
10
34.310227272727204
20
7.3034090909090699
30
0
11
36.053409090909021
21
7.3034090909090699
31
0
0
LINE
5
252
100
AcDbEntity
8
0
100
AcDbLine
10
34.310227272727225
20
9.8034090909090708
30
0
11
36.053409090909021
21
9.8034090909090708
31
0
0
LINE
5
253
100
AcDbEntity
8
0
100
AcDbLine
10
36.053409090909021
20
9.8034090909090708
30
0
11
36.053409090909021
21
7.8329545454545313
31
0
0
LINE
5
254
100
AcDbEntity
8
0
100
AcDbLine
10
36.053409090909021
20
7.8329545454545313
30
0
11
34.310227272727204
21
7.8329545454545313
31
0
0
LINE
5
255
100
AcDbEntity
8
0
100
AcDbLine
10
34.310227272727204
20
7.8329545454545313
30
0
11
34.310227272727225
21
9.8034090909090708
31
0
0
LINE
5
256
100
AcDbEntity
8
0
100
AcDbLine
10
36.582954545454527
20
-6.7703908762546439
30
0
11
38.780681818181776
21
-6.7703908762546439
31
0
0
LINE
5
257
100
AcDbEntity
8
0
100
AcDbLine
10
38.780681818181776
20
-6.7703908762546439
30
0
11
38.780681818181776
21
-13.621590909090905
31
0
0
LINE
5
258
100
AcDbEntity
8
0
100
AcDbLine
10
38.780681818181776
20
-13.621590909090905
30
0
11
36.582954545454527
21
-13.621590909090905
31
0
0
LINE
5
259
100
AcDbEntity
8
0
100
AcDbLine
10
36.582954545454527
20
-13.621590909090905
30
0
11
36.582954545454527
21
-6.770390876254643
31
0
0
ARC
5
260
100
AcDbEntity
8
0
100
AcDbCircle
10
16.818181818181799
20
-14.11363636363631
30
0
40
10.871590909090864
210
0
220
-0
230
1
100
AcDbArc
50
75.675521561563272
51
88.604448968688814
0
LINE
5
261
100
AcDbEntity
8
0
100
AcDbLine
10
19.507954545454513
20
-3.5800419357951196
30
0
11
19.507954545454513
21
-6.2408454217091913
31
0
0
LINE
5
262
100
AcDbEntity
8
0
100
AcDbLine
10
19.507954545454513
20
-6.2408454217091913
30
0
11
17.082954545454534
21
-6.2408454217091913
31
0
0
LINE
5
263
100
AcDbEntity
8
0
100
AcDbLine
10
17.082954545454534
20
-6.2408454217091913
30
0
11
17.082954545454552
21
-3.2452701433840891
31
0
0
LINE
5
264
100
AcDbEntity
8
0
100
AcDbLine
10
16.553409090909046
20
-6.2408454217091887
30
0
11
14.128409090909066
21
-6.2408454217091887
31
0
0
LINE
5
265
100
AcDbEntity
8
0
100
AcDbLine
10
16.553409090909046
20
-3.2452701433840869
30
0
11
16.553409090909046
21
-6.2408454217091887
31
0
0
ARC
5
266
100
AcDbEntity
8
0
100
AcDbCircle
10
16.818181818181799
20
-14.11363636363631
30
0
40
10.871590909090861
210
0
220
0
230
1
100
AcDbArc
50
91.395551031311044
51
104.32447843843677
0
LINE
5
267
100
AcDbEntity
8
0
100
AcDbLine
10
14.128409090909066
20
-6.2408454217091887
30
0
11
14.128409090909066
21
-3.5800419357951263
31
0
0
LINE
5
268
100
AcDbEntity
8
0
100
AcDbLine
10
17.082954545454552
20
-6.7703908762546439
30
0
11
19.507954545454531
21
-6.7703908762546439
31
0
0
LINE
5
269
100
AcDbEntity
8
0
100
AcDbLine
10
19.507954545454531
20
-6.7703908762546439
30
0
11
19.507954545454513
21
-13.621590909090893
31
0
0
LINE
5
270
100
AcDbEntity
8
0
100
AcDbLine
10
19.507954545454513
20
-13.621590909090893
30
0
11
17.082954545454534
21
-13.621590909090893
31
0
0
LINE
5
271
100
AcDbEntity
8
0
100
AcDbLine
10
17.082954545454534
20
-13.621590909090893
30
0
11
17.082954545454552
21
-6.7703908762546439
31
0
0
ARC
5
272
100
AcDbEntity
8
0
100
AcDbCircle
10
8.8817841970012523e-15
20
-14.113636363636292
30
0
40
10.871590909090843
210
0
220
-0
230
1
100
AcDbArc
50
75.675521561563187
51
88.604448968688956
0
LINE
5
273
100
AcDbEntity
8
0
100
AcDbLine
10
2.6897727272727323
20
-3.5800419357951241
30
0
11
2.6897727272727323
21
-6.2408454217091869
31
0
0
LINE
5
274
100
AcDbEntity
8
0
100
AcDbLine
10
2.6897727272727323
20
-6.2408454217091869
30
0
11
0.26477272727275292
21
-6.2408454217091887
31
0
0
LINE
5
275
100
AcDbEntity
8
0
100
AcDbLine
10
0.26477272727275292
20
-6.2408454217091887
30
0
11
0.26477272727275319
21
-3.2452701433840869
31
0
0
LINE
5
276
100
AcDbEntity
8
0
100
AcDbLine
10
-19.507954545454503
20
-6.7703908762546412
30
0
11
-17.082954545454534
21
-6.7703908762546412
31
0
0
LINE
5
277
100
AcDbEntity
8
0
100
AcDbLine
10
-17.082954545454534
20
-6.7703908762546412
30
0
11
-17.082954545454541
21
-13.621590909090893
31
0
0
LINE
5
278
100
AcDbEntity
8
0
100
AcDbLine
10
-17.082954545454541
20
-13.621590909090893
30
0
11
-19.507954545454513
21
-13.621590909090894
31
0
0
LINE
5
279
100
AcDbEntity
8
0
100
AcDbLine
10
-19.507954545454513
20
-13.621590909090898
30
0
11
-19.507954545454503
21
-6.7703908762546439
31
0
0
LINE
5
280
100
AcDbEntity
8
0
100
AcDbLine
10
-14.128409090909066
20
-6.7703908762546439
30
0
11
-14.128409090909066
21
-13.621590909090893
31
0
0
LINE
5
281
100
AcDbEntity
8
0
100
AcDbLine
10
-14.128409090909066
20
-13.621590909090893
30
0
11
-16.553409090909035
21
-13.621590909090894
31
0
0
LINE
5
282
100
AcDbEntity
8
0
100
AcDbLine
10
-16.553409090909035
20
-13.621590909090893
30
0
11
-16.553409090909035
21
-6.7703908762546439
31
0
0
LINE
5
283
100
AcDbEntity
8
0
100
AcDbLine
10
-16.553409090909035
20
-6.7703908762546439
30
0
11
-14.128409090909066
21
-6.7703908762546439
31
0
0
LINE
5
284
100
AcDbEntity
8
0
100
AcDbLine
10
-17.082954545454541
20
5.3329545454545313
30
0
11
-18.826136363636312
21
5.3329545454545313
31
0
0
LINE
5
285
100
AcDbEntity
8
0
100
AcDbLine
10
-18.826136363636312
20
5.3329545454545313
30
0
11
-18.826136363636301
21
7.3034090909090699
31
0
0
LINE
5
286
100
AcDbEntity
8
0
100
AcDbLine
10
-18.826136363636301
20
7.3034090909090699
30
0
11
-17.082954545454534
21
7.3034090909090699
31
0
0
LINE
5
287
100
AcDbEntity
8
0
100
AcDbLine
10
-17.082954545454534
20
7.3034090909090699
30
0
11
-17.082954545454541
21
5.3329545454545313
31
0
0
LINE
5
288
100
AcDbEntity
8
0
100
AcDbLine
10
-16.553409090909035
20
7.3034090909090699
30
0
11
-14.810227272727214
21
7.3034090909090699
31
0
0
LINE
5
289
100
AcDbEntity
8
0
100
AcDbLine
10
-14.810227272727214
20
7.3034090909090699
30
0
11
-14.810227272727214
21
5.3329545454545313
31
0
0
LINE
5
290
100
AcDbEntity
8
0
100
AcDbLine
10
-14.810227272727214
20
5.3329545454545313
30
0
11
-16.553409090909035
21
5.3329545454545313
31
0
0
LINE
5
291
100
AcDbEntity
8
0
100
AcDbLine
10
-16.553409090909035
20
5.3329545454545313
30
0
11
-16.553409090909035
21
7.3034090909090699
31
0
0
ARC
5
292
100
AcDbEntity
8
0
100
AcDbCircle
10
-16.818181818181841
20
4.8409090909095243
30
0
40
7.9170454545450442
210
0
220
-0
230
1
100
AcDbArc
50
75.307920483298204
51
88.083478335510065
0
LINE
5
293
100
AcDbEntity
8
0
100
AcDbLine
10
-14.810227272727241
20
12.499089506172702
30
0
11
-14.810227272727223
21
10.332954545454518
31
0
0
LINE
5
294
100
AcDbEntity
8
0
100
AcDbLine
10
-14.810227272727223
20
10.332954545454523
30
0
11
-16.553409090909035
21
10.332954545454523
31
0
0
LINE
5
295
100
AcDbEntity
8
0
100
AcDbLine
10
-16.553409090909035
20
10.332954545454523
30
0
11
-16.553409090909035
21
12.753525859856754
31
0
0
LINE
5
296
100
AcDbEntity
8
0
100
AcDbLine
10
-16.553409090909035
20
9.8034090909090601
30
0
11
-14.810227272727223
21
9.8034090909090654
31
0
0
LINE
5
297
100
AcDbEntity
8
0
100
AcDbLine
10
-14.810227272727223
20
9.8034090909090708
30
0
11
-14.810227272727223
21
7.8329545454545269
31
0
0
LINE
5
298
100
AcDbEntity
8
0
100
AcDbLine
10
-14.810227272727223
20
7.8329545454545224
30
0
11
-16.553409090909035
21
7.832954545454518
31
0
0
LINE
5
299
100
AcDbEntity
8
0
100
AcDbLine
10
-16.553409090909035
20
7.8329545454545224
30
0
11
-16.553409090909035
21
9.8034090909090654
31
0
0
LINE
5
300
100
AcDbEntity
8
0
100
AcDbLine
10
-18.826136363636323
20
7.8329545454545224
30
0
11
-18.826136363636312
21
9.8034090909090654
31
0
0
LINE
5
301
100
AcDbEntity
8
0
100
AcDbLine
10
-18.826136363636312
20
9.8034090909090601
30
0
11
-17.082954545454541
21
9.8034090909090654
31
0
0
LINE
5
302
100
AcDbEntity
8
0
100
AcDbLine
10
-17.082954545454541
20
9.8034090909090708
30
0
11
-17.082954545454541
21
7.8329545454545269
31
0
0
LINE
5
303
100
AcDbEntity
8
0
100
AcDbLine
10
-17.082954545454541
20
7.8329545454545224
30
0
11
-18.826136363636323
21
7.832954545454518
31
0
0
LINE
5
304
100
AcDbEntity
8
0
100
AcDbLine
10
-36.053409090909007
20
-6.2408454217091887
30
0
11
-36.053409090909007
21
-3.2452701433841158
31
0
0
ARC
5
305
100
AcDbEntity
8
0
100
AcDbCircle
10
-36.318181818181671
20
-14.113636363636957
30
0
40
10.871590909091474
210
0
220
-0
230
1
100
AcDbArc
50
76.908442676230038
51
88.604448968689454
0
LINE
5
306
100
AcDbEntity
8
0
100
AcDbLine
10
-33.855681818181779
20
-3.5246051216091523
30
0
11
-33.855681818181765
21
-6.2408454217091887
31
0
0
LINE
5
307
100
AcDbEntity
8
0
100
AcDbLine
10
-33.855681818181765
20
-6.2408454217091887
30
0
11
-36.053409090909014
21
-6.2408454217091887
31
0
0
LINE
5
308
100
AcDbEntity
8
0
100
AcDbLine
10
-36.053409090909007
20
10.332954545454523
30
0
11
-36.053409090909007
21
12.753525859856683
31
0
0
ARC
5
309
100
AcDbEntity
8
0
100
AcDbCircle
10
-36.31818181818182
20
4.8409090909085828
30
0
40
7.9170454545459181
210
0
220
-0
230
1
100
AcDbArc
50
75.30792048329981
51
88.083478335510151
0
LINE
5
310
100
AcDbEntity
8
0
100
AcDbLine
10
-34.310227272727225
20
12.499089506172666
30
0
11
-34.310227272727225
21
10.332954545454523
31
0
0
LINE
5
311
100
AcDbEntity
8
0
100
AcDbLine
10
-34.310227272727225
20
10.332954545454523
30
0
11
-36.053409090909014
21
10.332954545454523
31
0
0
LINE
5
312
100
AcDbEntity
8
0
100
AcDbLine
10
-38.326136363636301
20
10.332954545454523
30
0
11
-38.326136363636301
21
12.499089506172698
31
0
0
ARC
5
313
100
AcDbEntity
8
0
100
AcDbCircle
10
-36.31818181818182
20
4.8409090909085828
30
0
40
7.9170454545459172
210
0
220
0
230
1
100
AcDbArc
50
91.916521664488911
51
104.69207951669924
0
LINE
5
314
100
AcDbEntity
8
0
100
AcDbLine
10
-36.582954545454513
20
12.753525859856683
30
0
11
-36.582954545454513
21
10.332954545454518
31
0
0
LINE
5
315
100
AcDbEntity
8
0
100
AcDbLine
10
-36.582954545454513
20
10.332954545454523
30
0
11
-38.326136363636301
21
10.332954545454523
31
0
0
LINE
5
316
100
AcDbEntity
8
0
100
AcDbLine
10
-2.6897727272727323
20
-6.2408454217091887
30
0
11
-2.6897727272727234
21
-3.5800419357951307
31
0
0
ARC
5
317
100
AcDbEntity
8
0
100
AcDbCircle
10
8.8817841970012523e-15
20
-14.113636363636292
30
0
40
10.871590909090843
210
0
220
0
230
1
100
AcDbArc
50
91.395551031311101
51
104.32447843843687
0
LINE
5
318
100
AcDbEntity
8
0
100
AcDbLine
10
-0.26477272727275292
20
-3.2452701433840891
30
0
11
-0.26477272727275319
21
-6.2408454217091887
31
0
0
LINE
5
319
100
AcDbEntity
8
0
100
AcDbLine
10
-0.26477272727275292
20
-6.2408454217091887
30
0
11
-2.6897727272727323
21
-6.2408454217091887
31
0
0
LINE
5
320
100
AcDbEntity
8
0
100
AcDbLine
10
-2.0079545454545311
20
7.3034090909090699
30
0
11
-0.26477272727274404
21
7.3034090909090699
31
0
0
LINE
5
321
100
AcDbEntity
8
0
100
AcDbLine
10
-0.26477272727274404
20
7.3034090909090699
30
0
11
-0.26477272727275308
21
5.3329545454545313
31
0
0
LINE
5
322
100
AcDbEntity
8
0
100
AcDbLine
10
-0.26477272727275292
20
5.3329545454545313
30
0
11
-2.00795454545454
21
5.3329545454545313
31
0
0
LINE
5
323
100
AcDbEntity
8
0
100
AcDbLine
10
-2.00795454545454
20
5.3329545454545313
30
0
11
-2.0079545454545307
21
7.3034090909090699
31
0
0
ARC
5
324
100
AcDbEntity
8
0
100
AcDbCircle
10
0
20
4.8409090909092134
30
0
40
7.9170454545453381
210
0
220
-0
230
1
100
AcDbArc
50
75.307920483299014
51
88.083478335510506
0
LINE
5
325
100
AcDbEntity
8
0
100
AcDbLine
10
2.0079545454545666
20
12.499089506172712
30
0
11
2.0079545454545662
21
10.332954545454527
31
0
0
LINE
5
326
100
AcDbEntity
8
0
100
AcDbLine
10
2.0079545454545666
20
10.332954545454523
30
0
11
0.26477272727275292
21
10.332954545454523
31
0
0
LINE
5
327
100
AcDbEntity
8
0
100
AcDbLine
10
0.26477272727275292
20
10.332954545454523
30
0
11
0.26477272727275314
21
12.753525859856737
31
0
0
LINE
5
328
100
AcDbEntity
8
0
100
AcDbLine
10
2.0079545454545666
20
9.8034090909090708
30
0
11
2.0079545454545662
21
7.8329545454545269
31
0
0
LINE
5
329
100
AcDbEntity
8
0
100
AcDbLine
10
2.0079545454545666
20
7.8329545454545313
30
0
11
0.26477272727275292
21
7.8329545454545357
31
0
0
LINE
5
330
100
AcDbEntity
8
0
100
AcDbLine
10
0.26477272727275292
20
7.8329545454545313
30
0
11
0.26477272727275308
21
9.8034090909090743
31
0
0
LINE
5
331
100
AcDbEntity
8
0
100
AcDbLine
10
0.26477272727275292
20
9.8034090909090708
30
0
11
2.0079545454545666
21
9.8034090909090654
31
0
0
LINE
5
332
100
AcDbEntity
8
0
100
AcDbLine
10
-0.26477272727275292
20
10.332954545454523
30
0
11
-2.00795454545454
21
10.332954545454523
31
0
0
LINE
5
333
100
AcDbEntity
8
0
100
AcDbLine
10
-0.2647727272727618
20
12.753525859856726
30
0
11
-0.26477272727275314
21
10.332954545454518
31
0
0
ARC
5
334
100
AcDbEntity
8
0
100
AcDbCircle
10
0
20
4.8409090909092134
30
0
40
7.9170454545453328
210
0
220
0
230
1
100
AcDbArc
50
91.916521664489551
51
104.69207951670069
0
LINE
5
335
100
AcDbEntity
8
0
100
AcDbLine
10
-2.00795454545454
20
10.332954545454523
30
0
11
-2.0079545454545307
21
12.499089506172712
31
0
0
LINE
5
336
100
AcDbEntity
8
0
100
AcDbLine
10
-0.26477272727275292
20
7.8329545454545224
30
0
11
-2.00795454545454
21
7.8329545454545269
31
0
0
LINE
5
337
100
AcDbEntity
8
0
100
AcDbLine
10
-2.00795454545454
20
7.8329545454545313
30
0
11
-2.0079545454545307
21
9.8034090909090708
31
0
0
LINE
5
338
100
AcDbEntity
8
0
100
AcDbLine
10
-2.0079545454545311
20
9.8034090909090708
30
0
11
-0.26477272727274404
21
9.8034090909090708
31
0
0
LINE
5
339
100
AcDbEntity
8
0
100
AcDbLine
10
-0.26477272727274404
20
9.8034090909090708
30
0
11
-0.26477272727275308
21
7.8329545454545269
31
0
0
LINE
5
340
100
AcDbEntity
8
0
100
AcDbLine
10
14.81022727272725
20
10.332954545454523
30
0
11
14.810227272727232
21
12.499089506172712
31
0
0
ARC
5
341
100
AcDbEntity
8
0
100
AcDbCircle
10
16.818181818181728
20
4.8409090909088492
30
0
40
7.9170454545456757
210
0
220
0
230
1
100
AcDbArc
50
91.916521664488883
51
104.69207951669978
0
LINE
5
342
100
AcDbEntity
8
0
100
AcDbLine
10
16.553409090909046
20
12.753525859856719
30
0
11
16.553409090909046
21
10.33295454545453
31
0
0
LINE
5
343
100
AcDbEntity
8
0
100
AcDbLine
10
16.553409090909046
20
10.33295454545453
30
0
11
14.81022727272725
21
10.332954545454527
31
0
0
LINE
5
344
100
AcDbEntity
8
0
100
AcDbLine
10
16.553409090909046
20
5.3329545454545313
30
0
11
14.810227272727214
21
5.3329545454545313
31
0
0
LINE
5
345
100
AcDbEntity
8
0
100
AcDbLine
10
14.810227272727214
20
5.3329545454545313
30
0
11
14.810227272727232
21
7.3034090909090699
31
0
0
LINE
5
346
100
AcDbEntity
8
0
100
AcDbLine
10
14.810227272727232
20
7.3034090909090699
30
0
11
16.553409090909046
21
7.3034090909090699
31
0
0
LINE
5
347
100
AcDbEntity
8
0
100
AcDbLine
10
16.553409090909046
20
7.3034090909090699
30
0
11
16.553409090909046
21
5.3329545454545313
31
0
0
LINE
5
348
100
AcDbEntity
8
0
100
AcDbLine
10
17.082954545454552
20
9.8034090909090779
30
0
11
18.82613636363633
21
9.8034090909090743
31
0
0
LINE
5
349
100
AcDbEntity
8
0
100
AcDbLine
10
18.82613636363633
20
9.8034090909090708
30
0
11
18.826136363636312
21
7.8329545454545269
31
0
0
LINE
5
350
100
AcDbEntity
8
0
100
AcDbLine
10
18.826136363636312
20
7.8329545454545313
30
0
11
17.082954545454552
21
7.8329545454545357
31
0
0
LINE
5
351
100
AcDbEntity
8
0
100
AcDbLine
10
17.082954545454552
20
7.8329545454545313
30
0
11
17.082954545454552
21
9.8034090909090743
31
0
0
LINE
5
352
100
AcDbEntity
8
0
100
AcDbLine
10
16.553409090909046
20
7.8329545454545313
30
0
11
14.810227272727232
21
7.8329545454545357
31
0
0
LINE
5
353
100
AcDbEntity
8
0
100
AcDbLine
10
14.810227272727232
20
7.8329545454545313
30
0
11
14.810227272727232
21
9.8034090909090708
31
0
0
LINE
5
354
100
AcDbEntity
8
0
100
AcDbLine
10
14.810227272727232
20
9.8034090909090708
30
0
11
16.553409090909046
21
9.8034090909090708
31
0
0
LINE
5
355
100
AcDbEntity
8
0
100
AcDbLine
10
16.553409090909046
20
9.8034090909090708
30
0
11
16.553409090909046
21
7.8329545454545269
31
0
0
ENDSEC
0
SECTION
2
OBJECTS
0
DICTIONARY
5
C
100
AcDbDictionary
3
ACAD_GROUP
350
D
3
ACAD_MLINESTYLE
350
17
0
DICTIONARY
5
D
100
AcDbDictionary
0
DICTIONARY
5
1A
330
C
100
AcDbDictionary
0
DICTIONARY
5
17
100
AcDbDictionary
0
ENDSEC
0
EOF
