0
SECTION
2
HEADER
9
$INSUNITS
70
4
9
$ACADVER
1
AC1014
9
$HANDSEED
5
FFFF
0
ENDSEC
0
SECTION
2
TABLES
0
TABLE
2
VPORT
5
8
100
AcDbSymbolTable
0
ENDTAB
0
TABLE
2
LTYPE
5
5
100
AcDbSymbolTable
0
LTYPE
5
14
100
AcDbSymbolTableRecord
100
AcDbLinetypeTableRecord
2
BYBLOCK
70
0
0
LTYPE
5
15
100
AcDbSymbolTableRecord
100
AcDbLinetypeTableRecord
2
BYLAYER
70
0
0
ENDTAB
0
TABLE
2
LAYER
5
2
100
AcDbSymbolTable
70
2
0
LAYER
5
50
100
AcDbSymbolTableRecord
100
AcDbLayerTableRecord
2
0
70
0
6
CONTINUOUS
0
ENDTAB
0
TABLE
2
STYLE
5
3
100
AcDbSymbolTable
70
1
0
STYLE
5
11
100
AcDbSymbolTableRecord
100
AcDbTextStyleTableRecord
2
STANDARD
70
0
0
ENDTAB
0
TABLE
2
VIEW
5
6
100
AcDbSymbolTable
70
0
0
ENDTAB
0
TABLE
2
UCS
5
7
100
AcDbSymbolTable
70
0
0
ENDTAB
0
TABLE
2
APPID
5
9
100
AcDbSymbolTable
70
2
0
APPID
5
12
100
AcDbSymbolTableRecord
100
AcDbRegAppTableRecord
2
ACAD
70
0
0
ENDTAB
0
TABLE
2
DIMSTYLE
5
A
100
AcDbSymbolTable
70
1
0
ENDTAB
0
TABLE
2
BLOCK_RECORD
5
1
100
AcDbSymbolTable
70
1
0
BLOCK_RECORD
5
1F
100
AcDbSymbolTableRecord
100
AcDbBlockTableRecord
2
*MODEL_SPACE
0
BLOCK_RECORD
5
1B
100
AcDbSymbolTableRecord
100
AcDbBlockTableRecord
2
*PAPER_SPACE
0
ENDTAB
0
ENDSEC
0
SECTION
2
BLOCKS
0
BLOCK
5
20
100
AcDbEntity
100
AcDbBlockBegin
2
*MODEL_SPACE
0
ENDBLK
5
21
100
AcDbEntity
100
AcDbBlockEnd
0
BLOCK
5
1C
100
AcDbEntity
100
AcDbBlockBegin
2
*PAPER_SPACE
0
ENDBLK
5
1D
100
AcDbEntity
100
AcDbBlockEnd
0
ENDSEC
0
SECTION
2
ENTITIES
0
LINE
5
100
100
AcDbEntity
8
0
100
AcDbLine
10
3.4147727272727124
20
6.548805537643716
30
0
11
3.4147727272727124
21
4.7651010112074488
31
0
0
LINE
5
101
100
AcDbEntity
8
0
100
AcDbLine
10
3.4147727272727124
20
4.7651010112074488
30
0
11
2.7897727272727124
21
4.7651010112074399
31
0
0
LINE
5
102
100
AcDbEntity
8
0
100
AcDbLine
10
2.7897727272727124
20
4.7651010112074399
30
0
11
2.7897727272727124
21
6.5488055376437027
31
0
0
LINE
5
103
100
AcDbEntity
8
0
100
AcDbLine
10
2.7897727272727124
20
6.5488055376437071
30
0
11
-6.8352272727272556
21
6.5488055376437115
31
0
0
LINE
5
104
100
AcDbEntity
8
0
100
AcDbLine
10
-6.8352272727272556
20
6.5488055376437071
30
0
11
-6.8352272727272556
21
4.7651010112074443
31
0
0
LINE
5
105
100
AcDbEntity
8
0
100
AcDbLine
10
-6.8352272727272556
20
4.7651010112074488
30
0
11
-7.4602272727272556
21
4.7651010112074443
31
0
0
LINE
5
106
100
AcDbEntity
8
0
100
AcDbLine
10
-7.4602272727272556
20
4.7651010112074399
30
0
11
-7.4602272727272556
21
6.5488055376437027
31
0
0
LINE
5
107
100
AcDbEntity
8
0
100
AcDbLine
10
-7.4602272727272556
20
6.5488055376437071
30
0
11
-11.425325490482532
21
6.5488055376437115
31
0
0
LINE
5
108
100
AcDbEntity
8
0
100
AcDbLine
10
-11.425325490482532
20
6.5488055376437071
30
0
11
-11.425325490482532
21
5.0073017459840852
31
0
0
LINE
5
109
100
AcDbEntity
8
0
100
AcDbLine
10
-11.425325490482532
20
5.0073017459840852
30
0
11
-16.085227272727263
21
5.0073017459840852
31
0
0
LINE
5
110
100
AcDbEntity
8
0
100
AcDbLine
10
-16.085227272727263
20
5.0073017459840852
30
0
11
-16.085227272727245
21
1.3505001311301879
31
0
0
LINE
5
111
100
AcDbEntity
8
0
100
AcDbLine
10
-16.085227272727245
20
1.3505001311301967
30
0
11
-16.785227272727248
21
1.3505001311302056
31
0
0
LINE
5
112
100
AcDbEntity
8
0
100
AcDbLine
10
-16.785227272727248
20
1.3505001311302056
30
0
11
-16.785227272727248
21
-1.238345721652987
31
0
0
LINE
5
113
100
AcDbEntity
8
0
100
AcDbLine
10
-16.785227272727248
20
-1.238345721652987
30
0
11
-11.425325490482514
21
-1.2383457216529872
31
0
0
LINE
5
114
100
AcDbEntity
8
0
100
AcDbLine
10
-11.425325490482514
20
-1.238345721652987
30
0
11
-11.425325490482532
21
-6.5488055376437337
31
0
0
LINE
5
115
100
AcDbEntity
8
0
100
AcDbLine
10
-11.425325490482532
20
-6.5488055376437337
30
0
11
0.12727035765431438
21
-6.5488055376437337
31
0
0
LINE
5
116
100
AcDbEntity
8
0
100
AcDbLine
10
0.12727035765431438
20
-6.5488055376437337
30
0
11
5.1658831573294783
21
-3.3858947065750655
31
0
0
LINE
5
117
100
AcDbEntity
8
0
100
AcDbLine
10
5.1658831573294783
20
-3.3858947065750655
30
0
11
5.5380474852895745
21
-3.9787637587223479
31
0
0
LINE
5
118
100
AcDbEntity
8
0
100
AcDbLine
10
5.5380474852895745
20
-3.9787637587223479
30
0
11
9.8874460087962568
21
-1.2484964717578961
31
0
0
LINE
5
119
100
AcDbEntity
8
0
100
AcDbLine
10
9.8874460087962568
20
-1.2484964717578961
30
0
11
9.5152816808361607
21
-0.65562741961060489
31
0
0
LINE
5
120
100
AcDbEntity
8
0
100
AcDbLine
10
9.5152816808361607
20
-0.65562741961060489
30
0
11
16.78522727272723
21
3.9079678729974532
31
0
0
LINE
5
121
100
AcDbEntity
8
0
100
AcDbLine
10
16.78522727272723
20
3.9079678729974443
30
0
11
16.785227272727248
21
4.847246787107955
31
0
0
ARC
5
122
100
AcDbEntity
8
0
100
AcDbCircle
10
16.397727272727263
20
4.8472467871079683
30
0
40
0.38749999999998508
210
-0
220
0
230
1
100
AcDbArc
50
0
51
90
0
LINE
5
123
100
AcDbEntity
8
0
100
AcDbLine
10
16.397727272727263
20
5.2347467871079534
30
0
11
16.085227272727263
21
5.2347467871079534
31
0
0
LINE
5
124
100
AcDbEntity
8
0
100
AcDbLine
10
16.085227272727263
20
5.2347467871079534
30
0
11
16.085227272727263
21
6.1613055376437087
31
0
0
ARC
5
125
100
AcDbEntity
8
0
100
AcDbCircle
10
15.697727272727278
20
6.161305537643722
30
0
40
0.38749999999998508
210
-0
220
0
230
1
100
AcDbArc
50
0
51
90.000000000005244
0
LINE
5
126
100
AcDbEntity
8
0
100
AcDbLine
10
15.697727272727242
20
6.5488055376437071
30
0
11
15.310227272727257
21
6.548805537643716
31
0
0
LINE
5
127
100
AcDbEntity
8
0
100
AcDbLine
10
15.310227272727257
20
6.548805537643716
30
0
11
15.310227272727257
21
4.9488055376437146
31
0
0
LINE
5
128
100
AcDbEntity
8
0
100
AcDbLine
10
15.310227272727257
20
4.9488055376437146
30
0
11
13.285227272727234
21
4.9488055376437146
31
0
0
LINE
5
129
100
AcDbEntity
8
0
100
AcDbLine
10
13.285227272727234
20
4.9488055376437146
30
0
11
13.285227272727234
21
6.548805537643716
31
0
0
LINE
5
130
100
AcDbEntity
8
0
100
AcDbLine
10
13.285227272727234
20
6.548805537643716
30
0
11
3.4147727272727124
21
6.548805537643716
31
0
0
ENDSEC
0
SECTION
2
OBJECTS
0
DICTIONARY
5
C
100
AcDbDictionary
3
ACAD_GROUP
350
D
3
ACAD_MLINESTYLE
350
17
0
DICTIONARY
5
D
100
AcDbDictionary
0
DICTIONARY
5
1A
330
C
100
AcDbDictionary
0
DICTIONARY
5
17
100
AcDbDictionary
0
ENDSEC
0
EOF
