0
SECTION
2
HEADER
9
$INSUNITS
70
4
9
$ACADVER
1
AC1014
9
$HANDSEED
5
FFFF
0
ENDSEC
0
SECTION
2
TABLES
0
TABLE
2
VPORT
5
8
100
AcDbSymbolTable
0
ENDTAB
0
TABLE
2
LTYPE
5
5
100
AcDbSymbolTable
0
LTYPE
5
14
100
AcDbSymbolTableRecord
100
AcDbLinetypeTableRecord
2
BYBLOCK
70
0
0
LTYPE
5
15
100
AcDbSymbolTableRecord
100
AcDbLinetypeTableRecord
2
BYLAYER
70
0
0
ENDTAB
0
TABLE
2
LAYER
5
2
100
AcDbSymbolTable
70
2
0
LAYER
5
50
100
AcDbSymbolTableRecord
100
AcDbLayerTableRecord
2
0
70
0
6
CONTINUOUS
0
ENDTAB
0
TABLE
2
STYLE
5
3
100
AcDbSymbolTable
70
1
0
STYLE
5
11
100
AcDbSymbolTableRecord
100
AcDbTextStyleTableRecord
2
STANDARD
70
0
0
ENDTAB
0
TABLE
2
VIEW
5
6
100
AcDbSymbolTable
70
0
0
ENDTAB
0
TABLE
2
UCS
5
7
100
AcDbSymbolTable
70
0
0
ENDTAB
0
TABLE
2
APPID
5
9
100
AcDbSymbolTable
70
2
0
APPID
5
12
100
AcDbSymbolTableRecord
100
AcDbRegAppTableRecord
2
ACAD
70
0
0
ENDTAB
0
TABLE
2
DIMSTYLE
5
A
100
AcDbSymbolTable
70
1
0
ENDTAB
0
TABLE
2
BLOCK_RECORD
5
1
100
AcDbSymbolTable
70
1
0
BLOCK_RECORD
5
1F
100
AcDbSymbolTableRecord
100
AcDbBlockTableRecord
2
*MODEL_SPACE
0
BLOCK_RECORD
5
1B
100
AcDbSymbolTableRecord
100
AcDbBlockTableRecord
2
*PAPER_SPACE
0
ENDTAB
0
ENDSEC
0
SECTION
2
BLOCKS
0
BLOCK
5
20
100
AcDbEntity
100
AcDbBlockBegin
2
*MODEL_SPACE
0
ENDBLK
5
21
100
AcDbEntity
100
AcDbBlockEnd
0
BLOCK
5
1C
100
AcDbEntity
100
AcDbBlockBegin
2
*PAPER_SPACE
0
ENDBLK
5
1D
100
AcDbEntity
100
AcDbBlockEnd
0
ENDSEC
0
SECTION
2
ENTITIES
0
ARC
5
100
100
AcDbEntity
8
0
100
AcDbCircle
10
5.6223889814974104
20
-0.85120285274577157
30
0
40
7.1229515944101154
210
0
220
-0
230
1
100
AcDbArc
50
51.823354692919551
51
308.17664530708043
0
LINE
5
101
100
AcDbEntity
8
0
100
AcDbLine
10
10.025000000000006
20
4.7482127985583134
30
0
11
10.025000000000004
21
8.0097832488333065
31
0
0
LINE
5
102
100
AcDbEntity
8
0
100
AcDbLine
10
10.025000000000004
20
8.0097832488333065
30
0
11
12.025000000000004
21
8.0097832488333065
31
0
0
LINE
5
103
100
AcDbEntity
8
0
100
AcDbLine
10
12.025000000000004
20
8.0097832488333065
30
0
11
12.025000000000004
21
14.05978324883332
31
0
0
LINE
5
104
100
AcDbEntity
8
0
100
AcDbLine
10
12.025000000000004
20
14.05978324883332
30
0
11
9.9968338427036549
21
14.059783248833266
31
0
0
SPLINE
5
105
100
AcDbEntity
8
0
100
AcDbSpline
70
0
71
3
72
20
73
16
74
0
42
0.000000001
43
0.0000000001
44
0.0000000001
40
-0.00047670814890481182
40
-0.00047670814890481182
40
-0.00047670814890481182
40
-0.00047670814890481182
40
0
40
0
40
0
40
0.39719473647198006
40
0.39719473647198006
40
0.39719473647198006
40
0.7046995789975381
40
0.7046995789975381
40
0.7046995789975381
40
1
40
1
40
1
40
1.0001083435502023
40
1.0001083435502023
40
1.0001083435502023
40
1.0001083435502023
10
-7.9795751221385647
20
32.46301787895932
30
0
10
-7.9782174535866268
20
32.456346328576551
30
0
10
-7.9768597850346756
20
32.449674778193739
30
0
10
-7.9755021164827244
20
32.443003227810934
30
0
10
-6.8446426494010559
20
26.885987194947152
30
0
10
-5.3262925556877239
20
22.295515750411194
30
0
10
-3.2802901057936662
20
19.029212929710546
30
0
10
-1.6962921234690409
20
16.500468607865297
30
0
10
0.2263130947676073
20
14.824982455757389
30
0
10
2.5096481964646467
20
14.04886320477031
30
0
10
4.7023610372869618
20
13.303547002000098
30
0
10
7.2114114481277092
20
13.342755807577849
30
0
10
9.9937676478684434
20
14.058993944546323
30
0
10
9.9947897128135068
20
14.059257045975322
30
0
10
9.9958117777585684
20
14.059520147404321
30
0
10
9.9968338427037295
20
14.059783248833355
30
0
0
LINE
5
106
100
AcDbEntity
8
0
100
AcDbLine
10
-7.9795751221385647
20
32.46301787895932
30
0
11
-12.025000000000006
21
32.463017878959128
31
0
0
LINE
5
107
100
AcDbEntity
8
0
100
AcDbLine
10
-12.025000000000006
20
32.463017878959128
30
0
11
-12.025000000000006
21
29.413017878959131
31
0
0
LINE
5
108
100
AcDbEntity
8
0
100
AcDbLine
10
-12.025000000000006
20
29.413017878959131
30
0
11
-10.025000000000004
21
29.413017878959131
31
0
0
LINE
5
109
100
AcDbEntity
8
0
100
AcDbLine
10
-10.025000000000004
20
29.413017878959131
30
0
11
-10.025000000000004
21
19.463017878959157
31
0
0
LINE
5
110
100
AcDbEntity
8
0
100
AcDbLine
10
-10.025000000000004
20
19.463017878959157
30
0
11
-12.025000000000006
21
19.463017878959157
31
0
0
LINE
5
111
100
AcDbEntity
8
0
100
AcDbLine
10
-12.025000000000006
20
19.463017878959157
30
0
11
-12.025000000000006
21
16.41301787895916
31
0
0
LINE
5
112
100
AcDbEntity
8
0
100
AcDbLine
10
-12.025000000000006
20
16.41301787895916
30
0
11
-10.025000000000004
21
16.41301787895916
31
0
0
LINE
5
113
100
AcDbEntity
8
0
100
AcDbLine
10
-10.025000000000004
20
16.41301787895916
30
0
11
-10.025000000000004
21
7.3155708315046386
31
0
0
LINE
5
114
100
AcDbEntity
8
0
100
AcDbLine
10
-10.025000000000004
20
7.3155708315046386
30
0
11
-12.025000000000006
21
7.3155708315046386
31
0
0
LINE
5
115
100
AcDbEntity
8
0
100
AcDbLine
10
-12.025000000000006
20
7.3155708315046386
30
0
11
-12.025000000000006
21
4.2804338133903475
31
0
0
LINE
5
116
100
AcDbEntity
8
0
100
AcDbLine
10
-12.025000000000006
20
4.2804338133903475
30
0
11
-10.025000000000004
21
4.2804338133903475
31
0
0
LINE
5
117
100
AcDbEntity
8
0
100
AcDbLine
10
-10.025000000000004
20
4.2804338133903475
30
0
11
-10.025000000000004
21
-5.6695661866096447
31
0
0
LINE
5
118
100
AcDbEntity
8
0
100
AcDbLine
10
-10.025000000000004
20
-5.6695661866096447
30
0
11
-12.025000000000006
21
-5.6695661866096447
31
0
0
LINE
5
119
100
AcDbEntity
8
0
100
AcDbLine
10
-12.025000000000006
20
-5.6695661866096447
30
0
11
-12.025000000000006
21
-8.7344291684954278
31
0
0
LINE
5
120
100
AcDbEntity
8
0
100
AcDbLine
10
-12.025000000000006
20
-8.7344291684954278
30
0
11
-10.025000000000004
21
-8.7344291684954278
31
0
0
LINE
5
121
100
AcDbEntity
8
0
100
AcDbLine
10
-10.025000000000004
20
-8.7344291684954278
30
0
11
-10.025000000000004
21
-16.379102701297271
31
0
0
LINE
5
122
100
AcDbEntity
8
0
100
AcDbLine
10
-10.025000000000004
20
-16.379102701297271
30
0
11
-12.025000000000006
21
-16.379102701297271
31
0
0
LINE
5
123
100
AcDbEntity
8
0
100
AcDbLine
10
-12.025000000000006
20
-16.379102701297271
30
0
11
-12.025000000000006
21
-18.859297313641264
31
0
0
LINE
5
124
100
AcDbEntity
8
0
100
AcDbLine
10
-12.025000000000006
20
-18.859297313641264
30
0
11
-10.025000000000004
21
-18.859297313641264
31
0
0
LINE
5
125
100
AcDbEntity
8
0
100
AcDbLine
10
-10.025000000000004
20
-18.859297313641264
30
0
11
-10.025000000000004
21
-28.80929731364126
31
0
0
LINE
5
126
100
AcDbEntity
8
0
100
AcDbLine
10
-10.025000000000004
20
-28.80929731364126
30
0
11
-12.025000000000006
21
-28.80929731364126
31
0
0
LINE
5
127
100
AcDbEntity
8
0
100
AcDbLine
10
-12.025000000000006
20
-28.80929731364126
30
0
11
-12.025000000000006
21
-32.463017878959121
31
0
0
LINE
5
128
100
AcDbEntity
8
0
100
AcDbLine
10
-12.025000000000006
20
-32.463017878959121
30
0
11
-7.9814104110826101
21
-32.463017878959114
31
0
0
SPLINE
5
129
100
AcDbEntity
8
0
100
AcDbSpline
70
0
71
3
72
14
73
10
74
0
42
0.000000001
43
0.0000000001
44
0.0000000001
40
-0.00058839587117980974
40
-0.00058839587117980974
40
-0.00058839587117980974
40
-0.00058839587117980974
40
0
40
0
40
0
40
0.5
40
0.5
40
0.5
40
1
40
1
40
1
40
1
10
-7.9814104110826012
20
-32.463017878959121
30
0
10
-7.9796264348593304
20
-32.45708370602572
30
0
10
-7.9778424586360641
20
-32.451149533092327
30
0
10
-7.9760584824127934
20
-32.445215360158933
30
0
10
-6.4609201143301265
20
-27.40529780019007
30
0
10
-4.3442606976516984
20
-23.354716457536043
30
0
10
-1.3649819012096298
20
-20.72555633224664
30
0
10
1.6142968952324033
20
-18.096396206957166
30
0
10
5.4772939148598487
20
-16.916658374898788
30
0
10
10.000564883084639
20
-16.814427504363536
30
0
0
LINE
5
130
100
AcDbEntity
8
0
100
AcDbLine
10
10.000564883084639
20
-16.814427504363536
30
0
11
12.025000000000004
21
-16.814433887036291
31
0
0
LINE
5
131
100
AcDbEntity
8
0
100
AcDbLine
10
12.025000000000004
20
-16.814433887036291
30
0
11
12.025000000000004
21
-10.764433887036278
31
0
0
LINE
5
132
100
AcDbEntity
8
0
100
AcDbLine
10
12.025000000000004
20
-10.764433887036278
30
0
11
10.025000000000004
21
-10.764433887036278
31
0
0
LINE
5
133
100
AcDbEntity
8
0
100
AcDbLine
10
10.025000000000004
20
-10.764433887036278
30
0
11
10.025000000000004
21
-6.4506185040498565
31
0
0
ENDSEC
0
SECTION
2
OBJECTS
0
DICTIONARY
5
C
100
AcDbDictionary
3
ACAD_GROUP
350
D
3
ACAD_MLINESTYLE
350
17
0
DICTIONARY
5
D
100
AcDbDictionary
0
DICTIONARY
5
1A
330
C
100
AcDbDictionary
0
DICTIONARY
5
17
100
AcDbDictionary
0
ENDSEC
0
EOF
