0
SECTION
2
HEADER
9
$INSUNITS
70
4
9
$ACADVER
1
AC1014
9
$HANDSEED
5
FFFF
0
ENDSEC
0
SECTION
2
TABLES
0
TABLE
2
VPORT
5
8
100
AcDbSymbolTable
0
ENDTAB
0
TABLE
2
LTYPE
5
5
100
AcDbSymbolTable
0
LTYPE
5
14
100
AcDbSymbolTableRecord
100
AcDbLinetypeTableRecord
2
BYBLOCK
70
0
0
LTYPE
5
15
100
AcDbSymbolTableRecord
100
AcDbLinetypeTableRecord
2
BYLAYER
70
0
0
ENDTAB
0
TABLE
2
LAYER
5
2
100
AcDbSymbolTable
70
2
0
LAYER
5
50
100
AcDbSymbolTableRecord
100
AcDbLayerTableRecord
2
0
70
0
6
CONTINUOUS
0
ENDTAB
0
TABLE
2
STYLE
5
3
100
AcDbSymbolTable
70
1
0
STYLE
5
11
100
AcDbSymbolTableRecord
100
AcDbTextStyleTableRecord
2
STANDARD
70
0
0
ENDTAB
0
TABLE
2
VIEW
5
6
100
AcDbSymbolTable
70
0
0
ENDTAB
0
TABLE
2
UCS
5
7
100
AcDbSymbolTable
70
0
0
ENDTAB
0
TABLE
2
APPID
5
9
100
AcDbSymbolTable
70
2
0
APPID
5
12
100
AcDbSymbolTableRecord
100
AcDbRegAppTableRecord
2
ACAD
70
0
0
ENDTAB
0
TABLE
2
DIMSTYLE
5
A
100
AcDbSymbolTable
70
1
0
ENDTAB
0
TABLE
2
BLOCK_RECORD
5
1
100
AcDbSymbolTable
70
1
0
BLOCK_RECORD
5
1F
100
AcDbSymbolTableRecord
100
AcDbBlockTableRecord
2
*MODEL_SPACE
0
BLOCK_RECORD
5
1B
100
AcDbSymbolTableRecord
100
AcDbBlockTableRecord
2
*PAPER_SPACE
0
ENDTAB
0
ENDSEC
0
SECTION
2
BLOCKS
0
BLOCK
5
20
100
AcDbEntity
100
AcDbBlockBegin
2
*MODEL_SPACE
0
ENDBLK
5
21
100
AcDbEntity
100
AcDbBlockEnd
0
BLOCK
5
1C
100
AcDbEntity
100
AcDbBlockBegin
2
*PAPER_SPACE
0
ENDBLK
5
1D
100
AcDbEntity
100
AcDbBlockEnd
0
ENDSEC
0
SECTION
2
ENTITIES
0
LINE
5
100
100
AcDbEntity
8
0
100
AcDbLine
10
10.025000000000004
20
-3.8335534514609027
30
0
11
12.025000000000002
21
-3.8335534514609027
31
0
0
LINE
5
101
100
AcDbEntity
8
0
100
AcDbLine
10
12.025000000000002
20
-3.8335534514609027
30
0
11
12.025000000000002
21
3.2164465485391069
31
0
0
LINE
5
102
100
AcDbEntity
8
0
100
AcDbLine
10
12.025000000000002
20
3.2164465485391069
30
0
11
10.025000000000004
21
3.2164465485391069
31
0
0
LINE
5
103
100
AcDbEntity
8
0
100
AcDbLine
10
10.025000000000004
20
3.2164465485391069
30
0
11
10.024999999999991
21
8.8377919313418296
31
0
0
SPLINE
5
104
100
AcDbEntity
8
0
100
AcDbSpline
70
0
71
3
72
17
73
13
74
0
42
0.000000001
43
0.0000000001
44
0.0000000001
40
-1.0029298759025287
40
-1.0029298759025287
40
-1.0029298759025287
40
-1.0029298759025287
40
-1
40
-1
40
-1
40
-0.5
40
-0.5
40
-0.5
40
0
40
0
40
0
40
0.00034569595217507325
40
0.00034569595217507325
40
0.00034569595217507325
40
0.00034569595217507325
10
10.025000000000013
20
8.8377919313418651
30
0
10
10.010120441876524
20
8.8189028661254287
30
0
10
9.9952408837530307
20
8.8000138009089923
30
0
10
9.9803613256295378
20
8.781124735692547
30
0
10
7.4437174268622508
20
5.5609463112371937
30
0
10
4.7134164285843783
20
3.730425106965658
30
0
10
1.7189580250136816
20
3.762147801697715
30
0
10
-1.2755003785569796
20
3.7938704964297632
30
0
10
-4.5374089889797187
20
5.6512735058203845
30
0
10
-7.9831821288786653
20
8.7841522310615527
30
0
10
-7.9855660897688807
20
8.7863197157018647
30
0
10
-7.9879500506590961
20
8.7884872003421854
30
0
10
-7.9903340115493338
20
8.790654684982524
30
0
0
LINE
5
105
100
AcDbEntity
8
0
100
AcDbLine
10
-7.9903340115493293
20
8.790654684982524
30
0
11
-12.025000000000006
21
8.7906546849824796
31
0
0
LINE
5
106
100
AcDbEntity
8
0
100
AcDbLine
10
-12.025000000000006
20
8.7906546849824796
30
0
11
-12.025000000000006
21
5.2616114997942542
31
0
0
LINE
5
107
100
AcDbEntity
8
0
100
AcDbLine
10
-12.025000000000006
20
5.2616114997942542
30
0
11
-10.025000000000004
21
5.2616114997942542
31
0
0
LINE
5
108
100
AcDbEntity
8
0
100
AcDbLine
10
-10.025000000000004
20
5.2616114997942542
30
0
11
-10.025000000000004
21
-4.6883885002057379
31
0
0
LINE
5
109
100
AcDbEntity
8
0
100
AcDbLine
10
-10.025000000000004
20
-4.6883885002057379
30
0
11
-12.025000000000006
21
-4.6883885002057379
31
0
0
LINE
5
110
100
AcDbEntity
8
0
100
AcDbLine
10
-12.025000000000006
20
-4.6883885002057379
30
0
11
-12.025000000000006
21
-8.0950932675272202
31
0
0
LINE
5
111
100
AcDbEntity
8
0
100
AcDbLine
10
-12.025000000000006
20
-8.0950932675272202
30
0
11
-6.9091777770329887
21
-8.0950932675272114
31
0
0
SPLINE
5
112
100
AcDbEntity
8
0
100
AcDbSpline
70
0
71
3
72
17
73
13
74
0
42
0.000000001
43
0.0000000001
44
0.0000000001
40
0.073093051172170451
40
0.073093051172170451
40
0.073093051172170451
40
0.073093051172170451
40
0.073483963143542913
40
0.073483963143542913
40
0.073483963143542913
40
0.55377496791653358
40
0.55377496791653358
40
0.55377496791653358
40
1
40
1
40
1
40
1.0016571992791559
40
1.0016571992791559
40
1.0016571992791559
40
1.0016571992791559
10
-6.9091777770329221
20
-8.0950932675271936
30
0
10
-6.9072252780921017
20
-8.0939480648016193
30
0
10
-6.9052727791513036
20
-8.0928028620760628
30
0
10
-6.9033202802105054
20
-8.0916576593505063
30
0
10
-4.5082144523275858
20
-6.6868519179617181
30
0
10
-1.8679411648273492
20
-6.0022614112574324
30
0
10
1.0845102829991315
20
-6.2214592820370207
30
0
10
3.8275509165707389
20
-6.4251099353893082
30
0
10
6.8202112493098754
20
-7.3498472879652965
30
0
10
9.9896673670072111
20
-8.7884194976423302
30
0
10
10.001444911338142
20
-8.7937651618015877
30
0
10
10.013222455669073
20
-8.7991108259608453
30
0
10
10.025000000000002
20
-8.8044564901200939
30
0
0
LINE
5
113
100
AcDbEntity
8
0
100
AcDbLine
10
10.024999999999999
20
-8.8044564901200939
30
0
11
10.025000000000004
21
-3.8335534514609027
31
0
0
ENDSEC
0
SECTION
2
OBJECTS
0
DICTIONARY
5
C
100
AcDbDictionary
3
ACAD_GROUP
350
D
3
ACAD_MLINESTYLE
350
17
0
DICTIONARY
5
D
100
AcDbDictionary
0
DICTIONARY
5
1A
330
C
100
AcDbDictionary
0
DICTIONARY
5
17
100
AcDbDictionary
0
ENDSEC
0
EOF
