0
SECTION
2
HEADER
9
$INSUNITS
70
4
9
$ACADVER
1
AC1014
9
$HANDSEED
5
FFFF
0
ENDSEC
0
SECTION
2
TABLES
0
TABLE
2
VPORT
5
8
100
AcDbSymbolTable
0
ENDTAB
0
TABLE
2
LTYPE
5
5
100
AcDbSymbolTable
0
LTYPE
5
14
100
AcDbSymbolTableRecord
100
AcDbLinetypeTableRecord
2
BYBLOCK
70
0
0
LTYPE
5
15
100
AcDbSymbolTableRecord
100
AcDbLinetypeTableRecord
2
BYLAYER
70
0
0
ENDTAB
0
TABLE
2
LAYER
5
2
100
AcDbSymbolTable
70
2
0
LAYER
5
50
100
AcDbSymbolTableRecord
100
AcDbLayerTableRecord
2
0
70
0
6
CONTINUOUS
0
ENDTAB
0
TABLE
2
STYLE
5
3
100
AcDbSymbolTable
70
1
0
STYLE
5
11
100
AcDbSymbolTableRecord
100
AcDbTextStyleTableRecord
2
STANDARD
70
0
0
ENDTAB
0
TABLE
2
VIEW
5
6
100
AcDbSymbolTable
70
0
0
ENDTAB
0
TABLE
2
UCS
5
7
100
AcDbSymbolTable
70
0
0
ENDTAB
0
TABLE
2
APPID
5
9
100
AcDbSymbolTable
70
2
0
APPID
5
12
100
AcDbSymbolTableRecord
100
AcDbRegAppTableRecord
2
ACAD
70
0
0
ENDTAB
0
TABLE
2
DIMSTYLE
5
A
100
AcDbSymbolTable
70
1
0
ENDTAB
0
TABLE
2
BLOCK_RECORD
5
1
100
AcDbSymbolTable
70
1
0
BLOCK_RECORD
5
1F
100
AcDbSymbolTableRecord
100
AcDbBlockTableRecord
2
*MODEL_SPACE
0
BLOCK_RECORD
5
1B
100
AcDbSymbolTableRecord
100
AcDbBlockTableRecord
2
*PAPER_SPACE
0
ENDTAB
0
ENDSEC
0
SECTION
2
BLOCKS
0
BLOCK
5
20
100
AcDbEntity
100
AcDbBlockBegin
2
*MODEL_SPACE
0
ENDBLK
5
21
100
AcDbEntity
100
AcDbBlockEnd
0
BLOCK
5
1C
100
AcDbEntity
100
AcDbBlockBegin
2
*PAPER_SPACE
0
ENDBLK
5
1D
100
AcDbEntity
100
AcDbBlockEnd
0
ENDSEC
0
SECTION
2
ENTITIES
0
LINE
5
100
100
AcDbEntity
8
0
100
AcDbLine
10
-8.6304166279974392
20
-30.024999999999977
30
0
11
-4.9837114157340698
21
-30.024999999999995
31
-1.3877787807814457e-16
0
LINE
5
101
100
AcDbEntity
8
0
100
AcDbLine
10
-4.983711415734069
20
-30.024999999999995
30
0
11
-4.9837114157340778
21
-32.024999999999999
31
6.9025329206838533e-30
0
LINE
5
102
100
AcDbEntity
8
0
100
AcDbLine
10
-4.983711415734069
20
-32.024999999999999
30
0
11
2.0662885842659575
21
-32.024999999999999
31
2.7755575615628914e-16
0
LINE
5
103
100
AcDbEntity
8
0
100
AcDbLine
10
2.066288584265914
20
-32.024999999999999
30
0
11
2.0662885842659229
21
-30.024999999999995
31
2.5637979419682884e-29
0
LINE
5
104
100
AcDbEntity
8
0
100
AcDbLine
10
2.066288584265914
20
-30.024999999999995
30
0
11
6.9636243306586643
21
-30.024999999999974
31
1.3877787807814457e-16
0
SPLINE
5
105
100
AcDbEntity
8
0
100
AcDbSpline
70
0
71
3
72
32
73
28
74
0
42
0.000000001
43
0.0000000001
44
0.0000000001
40
-1.0002600498205405
40
-1.0002600498205405
40
-1.0002600498205405
40
-1.0002600498205405
40
-1
40
-1
40
-1
40
-0.8690403048194576
40
-0.8690403048194576
40
-0.8690403048194576
40
-0.68406635080993439
40
-0.68406635080993439
40
-0.68406635080993439
40
-0.56842329089551824
40
-0.56842329089551824
40
-0.56842329089551824
40
-0.42445976734398677
40
-0.42445976734398677
40
-0.42445976734398677
40
-0.29926206092589658
40
-0.29926206092589658
40
-0.29926206092589658
40
-0.070609564747627002
40
-0.070609564747627002
40
-0.070609564747627002
40
0
40
0
40
0
40
0.00042550362157458513
40
0.00042550362157458513
40
0.00042550362157458513
40
0.00042550362157458513
10
6.9636243306586909
20
-30.024999999999974
30
0
10
6.9637337093393104
20
-30.01677751002099
30
0
10
6.9638430880198943
20
-30.008555020042003
30
0
10
6.9639524667005137
20
-30.000332530063012
30
0
10
7.019029178428271
20
-25.859967079285827
30
0
10
7.1804397454202817
20
-22.65617961893053
30
0
10
7.3837919932353291
20
-20.064338933182597
30
1.4210854715202004e-13
10
7.6710167709290022
20
-16.403494891474871
30
0
10
8.0177865602711496
20
-13.872497781769159
30
0
10
8.1400007405834973
20
-10.836676821286906
30
0
10
8.2164072911810226
20
-8.9387251496455278
30
1.4210854715202004e-13
10
8.2001865833525844
20
-6.8212370845880255
30
0
10
8.1033239373614041
20
-4.3675777231853541
30
-1.4210854715202004e-13
10
7.9827400663731485
20
-1.3130282541195104
30
0
10
7.7510098809566674
20
2.2354956926816083
30
0
10
7.6442819787758243
20
5.6068934320080022
30
0
10
7.5514661860373966
20
8.5388254518276785
30
0
10
7.567249388432673
20
11.281434423131698
30
1.4210854715202004e-13
10
7.6827203778856745
20
13.759392045000691
30
1.4210854715202004e-13
10
7.8936086659380766
20
18.284963733768027
30
1.4210854715202004e-13
10
8.4079807085945735
20
21.982131072961451
30
0
10
8.5660123143428724
20
26.075509401342902
30
-1.4210854715202004e-13
10
8.614813631121665
20
27.339574596104825
30
0
10
8.6300710202599706
20
28.643038465493245
30
0
10
8.6046364060929026
20
30.000468351086191
30
0
10
8.6044831868778093
20
30.008645567390786
30
0
10
8.604329967662645
20
30.016822783695403
30
0
10
8.6041767484475162
20
30.025000000000006
30
0
0
LINE
5
106
100
AcDbEntity
8
0
100
AcDbLine
10
8.6041767484475162
20
30.024999999999984
30
0
11
4.6046048102374124
21
30.025000000000006
31
0
0
LINE
5
107
100
AcDbEntity
8
0
100
AcDbLine
10
4.6046048102373849
20
30.025000000000006
30
-1.4210854715202004e-13
11
4.6046048102374293
21
32.025000000000013
31
-1.4210854715202001e-13
0
LINE
5
108
100
AcDbEntity
8
0
100
AcDbLine
10
4.6046048102374204
20
32.025000000000013
30
-1.4210854715202004e-13
11
-3.445395189762559
21
32.025000000000013
31
-1.4183099139586375e-13
0
LINE
5
109
100
AcDbEntity
8
0
100
AcDbLine
10
-3.4453951897625767
20
32.025000000000013
30
0
11
-3.4453951897625767
21
30.025000000000006
31
0
0
LINE
5
110
100
AcDbEntity
8
0
100
AcDbLine
10
-3.4453951897625412
20
30.025000000000006
30
0
11
-7.4463869907887492
21
30.024999999999984
31
1.3877787807814457e-16
0
SPLINE
5
111
100
AcDbEntity
8
0
100
AcDbSpline
70
0
71
3
72
29
73
25
74
0
42
0.000000001
43
0.0000000001
44
0.0000000001
40
-0.00035511873267644791
40
-0.00035511873267644791
40
-0.00035511873267644791
40
-0.00035511873267644791
40
0
40
0
40
0
40
0.16452920999958282
40
0.16452920999958282
40
0.16452920999958282
40
0.37339690749968713
40
0.37339690749968713
40
0.37339690749968713
40
0.52950265862604817
40
0.52950265862604817
40
0.52950265862604817
40
0.72960569917603513
40
0.72960569917603513
40
0.72960569917603513
40
0.92133203650471041
40
0.92133203650471041
40
0.92133203650471041
40
1
40
1
40
1
40
1.0005080609534289
40
1.0005080609534289
40
1.0005080609534289
40
1.0005080609534289
10
-7.4463869907887581
20
30.02499999999997
30
0
10
-7.4460625227060273
20
30.016354147055388
30
0
10
-7.445738054623332
20
30.007708294110785
30
0
10
-7.4454135865406368
20
29.999062441166167
30
0
10
-7.2950390552323707
20
25.99214726646828
30
0
10
-6.8517080233472338
20
22.752260464097898
30
0
10
-6.2780131896183189
20
19.962377675529666
30
0
10
-5.5497150412897067
20
16.420657671252641
30
0
10
-4.6458346656034788
20
13.53875900107214
30
0
10
-4.139367210840339
20
10.196040126839545
30
0
10
-3.7608382023190412
20
7.697723503867806
30
-1.4210854715202004e-13
10
-3.6147720387195914
20
4.9213805506332609
30
0
10
-3.7606083625124054
20
1.7390098572830404
30
0
10
-3.9475476110859642
20
-2.3402892543882903
30
0
10
-4.6066082510896234
20
-7.0737627843929296
30
0
10
-5.4252051792439016
20
-11.890711829684889
30
0
10
-6.2095340447732195
20
-16.506014001077837
30
0
10
-7.1134296565281385
20
-21.146611257604068
30
-1.4210854715202004e-13
10
-7.8335777469757328
20
-25.238882984718671
30
0
10
-8.1290644520360811
20
-26.917998578991845
30
0
10
-8.3954609655834656
20
-28.508124516983941
30
0
10
-8.625951526440927
20
-29.996173271541014
30
1.4210854715202004e-13
10
-8.6274398936264785
20
-30.005782181027342
30
0
10
-8.6289282608119589
20
-30.015391090513674
30
-1.4210854715202004e-13
10
-8.6304166279974392
20
-30.024999999999981
30
0
0
ENDSEC
0
SECTION
2
OBJECTS
0
DICTIONARY
5
C
100
AcDbDictionary
3
ACAD_GROUP
350
D
3
ACAD_MLINESTYLE
350
17
0
DICTIONARY
5
D
100
AcDbDictionary
0
DICTIONARY
5
1A
330
C
100
AcDbDictionary
0
DICTIONARY
5
17
100
AcDbDictionary
0
ENDSEC
0
EOF
