0
SECTION
2
HEADER
9
$INSUNITS
70
4
9
$ACADVER
1
AC1014
9
$HANDSEED
5
FFFF
0
ENDSEC
0
SECTION
2
TABLES
0
TABLE
2
VPORT
5
8
100
AcDbSymbolTable
0
ENDTAB
0
TABLE
2
LTYPE
5
5
100
AcDbSymbolTable
0
LTYPE
5
14
100
AcDbSymbolTableRecord
100
AcDbLinetypeTableRecord
2
BYBLOCK
70
0
0
LTYPE
5
15
100
AcDbSymbolTableRecord
100
AcDbLinetypeTableRecord
2
BYLAYER
70
0
0
ENDTAB
0
TABLE
2
LAYER
5
2
100
AcDbSymbolTable
70
2
0
LAYER
5
50
100
AcDbSymbolTableRecord
100
AcDbLayerTableRecord
2
0
70
0
6
CONTINUOUS
0
ENDTAB
0
TABLE
2
STYLE
5
3
100
AcDbSymbolTable
70
1
0
STYLE
5
11
100
AcDbSymbolTableRecord
100
AcDbTextStyleTableRecord
2
STANDARD
70
0
0
ENDTAB
0
TABLE
2
VIEW
5
6
100
AcDbSymbolTable
70
0
0
ENDTAB
0
TABLE
2
UCS
5
7
100
AcDbSymbolTable
70
0
0
ENDTAB
0
TABLE
2
APPID
5
9
100
AcDbSymbolTable
70
2
0
APPID
5
12
100
AcDbSymbolTableRecord
100
AcDbRegAppTableRecord
2
ACAD
70
0
0
ENDTAB
0
TABLE
2
DIMSTYLE
5
A
100
AcDbSymbolTable
70
1
0
ENDTAB
0
TABLE
2
BLOCK_RECORD
5
1
100
AcDbSymbolTable
70
1
0
BLOCK_RECORD
5
1F
100
AcDbSymbolTableRecord
100
AcDbBlockTableRecord
2
*MODEL_SPACE
0
BLOCK_RECORD
5
1B
100
AcDbSymbolTableRecord
100
AcDbBlockTableRecord
2
*PAPER_SPACE
0
ENDTAB
0
ENDSEC
0
SECTION
2
BLOCKS
0
BLOCK
5
20
100
AcDbEntity
100
AcDbBlockBegin
2
*MODEL_SPACE
0
ENDBLK
5
21
100
AcDbEntity
100
AcDbBlockEnd
0
BLOCK
5
1C
100
AcDbEntity
100
AcDbBlockBegin
2
*PAPER_SPACE
0
ENDBLK
5
1D
100
AcDbEntity
100
AcDbBlockEnd
0
ENDSEC
0
SECTION
2
ENTITIES
0
LINE
5
100
100
AcDbEntity
8
0
100
AcDbLine
10
8.2405002792407345
20
7.9882868615698266
30
0
11
8.2405002792403792
21
10.024999999999977
31
0
0
LINE
5
101
100
AcDbEntity
8
0
100
AcDbLine
10
8.2405002792403792
20
10.024999999999977
30
-1.4210854715202004e-13
11
8.1887454580874675
21
10.024999999999977
31
-1.4211071555636501e-13
0
LINE
5
102
100
AcDbEntity
8
0
100
AcDbLine
10
8.1887454580873964
20
10.024999999999977
30
0
11
8.1887454580873964
21
12.024999999999979
31
0
0
LINE
5
103
100
AcDbEntity
8
0
100
AcDbLine
10
8.1887454580873964
20
12.024999999999979
30
-1.4210854715202004e-13
11
5.138735679789832
21
12.024999999999979
31
-1.4210854715202004e-13
0
LINE
5
104
100
AcDbEntity
8
0
100
AcDbLine
10
5.1387356797899031
20
12.024999999999979
30
0
11
5.138735679789832
21
10.024999999999977
31
0
0
LINE
5
105
100
AcDbEntity
8
0
100
AcDbLine
10
5.138735679789832
20
10.024999999999977
30
0
11
-4.8112643202102134
21
10.024999999999977
31
5.545945011411021e-43
0
LINE
5
106
100
AcDbEntity
8
0
100
AcDbLine
10
-4.8112643202102134
20
10.024999999999977
30
-1.4210854715202004e-13
11
-4.8112643202100713
21
12.024999999999979
31
-1.4210854715202004e-13
0
LINE
5
107
100
AcDbEntity
8
0
100
AcDbLine
10
-4.8112643202100713
20
12.024999999999979
30
-1.4210854715202004e-13
11
-7.8149299514679171
21
12.024999999999979
31
-1.4210854715202004e-13
0
LINE
5
108
100
AcDbEntity
8
0
100
AcDbLine
10
-7.8149299514679882
20
12.024999999999979
30
0
11
-7.8149299514679171
21
7.9945709764351491
31
0
0
SPLINE
5
109
100
AcDbEntity
8
0
100
AcDbSpline
70
0
71
3
72
17
73
13
74
0
42
0.000000001
43
0.0000000001
44
0.0000000001
40
-0.00054738488301343011
40
-0.00054738488301343011
40
-0.00054738488301343011
40
-0.00054738488301343011
40
0
40
0
40
0
40
0.49284765314895523
40
0.49284765314895523
40
0.49284765314895523
40
1
40
1
40
1
40
1.0011293235198446
40
1.0011293235198446
40
1.0011293235198446
40
1.0011293235198446
10
-7.814929951467775
20
7.9945709764351491
30
0
10
-7.8141793669400528
20
7.9929242995571803
30
0
10
-7.8134287824121174
20
7.9912776226791271
30
-1.4210854715202004e-13
10
-7.812678197884324
20
7.9896309458010739
30
1.4210854715202004e-13
10
-7.1394702825885048
20
6.5127074720771327
30
-1.4210854715202004e-13
10
-6.8175039287851291
20
4.3333113271927148
30
-1.4210854715202004e-13
10
-6.9090498411205914
20
1.3353517630361234
30
0
10
-7.0032528346600031
20
-1.7496223035179215
30
0
10
-7.4973673979650357
20
-5.6269169376626893
30
0
10
-8.2401466125462264
20
-9.995809742900196
30
0
10
-8.2418008773074547
20
-10.005539828600103
30
-1.4210854715202004e-13
10
-8.2434551420688962
20
-10.015269914299996
30
-1.4210854715202004e-13
10
-8.2451094068301956
20
-10.024999999999869
30
0
0
LINE
5
110
100
AcDbEntity
8
0
100
AcDbLine
10
-8.2451094068302666
20
-10.024999999999871
30
0
11
-5.940873787438079
21
-10.024999999999977
31
-7.5804602611081546e-27
0
LINE
5
111
100
AcDbEntity
8
0
100
AcDbLine
10
-5.940873787438008
20
-10.024999999999977
30
0
11
-5.9408737874379369
21
-12.024999999999977
31
0
0
LINE
5
112
100
AcDbEntity
8
0
100
AcDbLine
10
-5.9408737874379369
20
-12.024999999999977
30
-1.4210854715202004e-13
11
0.1091262125618897
21
-12.024999999999977
31
-1.4183099139586375e-13
0
LINE
5
113
100
AcDbEntity
8
0
100
AcDbLine
10
0.1091262125618897
20
-12.024999999999977
30
0
11
0.10912621256196076
21
-10.024999999999977
31
0
0
LINE
5
114
100
AcDbEntity
8
0
100
AcDbLine
10
0.10912621256196076
20
-10.024999999999977
30
0
11
2.5748619019630326
21
-10.02500000000002
31
-3.0005988533553113e-27
0
SPLINE
5
115
100
AcDbEntity
8
0
100
AcDbSpline
70
0
71
3
72
17
73
13
74
0
42
0.000000001
43
0.0000000001
44
0.0000000001
40
-0.00053355138258958951
40
-0.00053355138258958951
40
-0.00053355138258958951
40
-0.00053355138258958951
40
0
40
0
40
0
40
0.54302908281635942
40
0.54302908281635942
40
0.54302908281635942
40
1
40
1
40
1
40
1.0014157027827038
40
1.0014157027827038
40
1.0014157027827038
40
1.0014157027827038
10
8.2405002792407345
20
7.9882868615698266
30
0
10
8.2375002345945347
20
7.9857880796224334
30
-1.4210854715202004e-13
10
8.234500189948335
20
7.9832892976750269
30
-1.4210854715202004e-13
10
8.2315001453019931
20
7.9807905157276249
30
-1.4210854715202004e-13
10
5.1809963325299435
20
5.4399803756611398
30
0
10
3.0618226776225299
20
2.5732182411045823
30
0
10
2.2393043563089066
20
-0.75026884047862286
30
0
10
1.5471370975285481
20
-3.5470563201515315
30
-1.4210854715202004e-13
10
1.7351961719710118
20
-6.6562989813852491
30
0
10
2.5671234347648664
20
-9.9939536188014344
30
0
10
2.5697029238308744
20
-10.004302412534301
30
0
10
2.5722824128970245
20
-10.014651206267168
30
-1.4210854715202004e-13
10
2.5748619019630326
20
-10.025000000000063
30
0
0
ENDSEC
0
SECTION
2
OBJECTS
0
DICTIONARY
5
C
100
AcDbDictionary
3
ACAD_GROUP
350
D
3
ACAD_MLINESTYLE
350
17
0
DICTIONARY
5
D
100
AcDbDictionary
0
DICTIONARY
5
1A
330
C
100
AcDbDictionary
0
DICTIONARY
5
17
100
AcDbDictionary
0
ENDSEC
0
EOF
