  0
SECTION
  2
HEADER
  9
$ACADVER
  1
AC1015
  9
$ACADMAINTVER
 70
6
  9
$DWGCODEPAGE
  3
ANSI_1252
  9
$TDCREATE
 40
2459885.7739236113
  9
$TDUPDATE
 40
2459885.7739699073
  9
$HANDSEED
  5
10070
  9
$INSUNITS
 70
4
  9
$FINGERPRINTGUID
  2
6F42070C-5A0B-11ED-9943-D20010FD74C0
  9
$VERSIONGUID
  2
718A8228-5A0B-11ED-9943-D20010FD74C0
  0
ENDSEC
  0
SECTION
  2
CLASSES
  0
CLASS
  1
ACDBDICTIONARYWDFLT
  2
AcDbDictionaryWithDefault
  3
ObjectDBX Classes
 90
0
280
0
281
0
  0
CLASS
  1
SUN
  2
AcDbSun
  3
SCENEOE
 90
1153
280
0
281
0
  0
CLASS
  1
VISUALSTYLE
  2
AcDbVisualStyle
  3
ObjectDBX Classes
 90
4095
280
0
281
0
  0
CLASS
  1
MATERIAL
  2
AcDbMaterial
  3
ObjectDBX Classes
 90
1153
280
0
281
0
  0
CLASS
  1
SCALE
  2
AcDbScale
  3
ObjectDBX Classes
 90
1153
280
0
281
0
  0
CLASS
  1
TABLESTYLE
  2
AcDbTableStyle
  3
ObjectDBX Classes
 90
4095
280
0
281
0
  0
CLASS
  1
MLEADERSTYLE
  2
AcDbMLeaderStyle
  3
ACDB_MLEADERSTYLE_CLASS
 90
4095
280
0
281
0
  0
CLASS
  1
DICTIONARYVAR
  2
AcDbDictionaryVar
  3
ObjectDBX Classes
 90
0
280
0
281
0
  0
CLASS
  1
CELLSTYLEMAP
  2
AcDbCellStyleMap
  3
ObjectDBX Classes
 90
1152
280
0
281
0
  0
CLASS
  1
MENTALRAYRENDERSETTINGS
  2
AcDbMentalRayRenderSettings
  3
SCENEOE
 90
1024
280
0
281
0
  0
CLASS
  1
ACDBDETAILVIEWSTYLE
  2
AcDbDetailViewStyle
  3
ObjectDBX Classes
 90
1025
280
0
281
0
  0
CLASS
  1
ACDBSECTIONVIEWSTYLE
  2
AcDbSectionViewStyle
  3
ObjectDBX Classes
 90
1025
280
0
281
0
  0
CLASS
  1
RASTERVARIABLES
  2
AcDbRasterVariables
  3
ISM
 90
0
280
0
281
0
  0
CLASS
  1
ACDBPLACEHOLDER
  2
AcDbPlaceHolder
  3
ObjectDBX Classes
 90
0
280
0
281
0
  0
CLASS
  1
LAYOUT
  2
AcDbLayout
  3
ObjectDBX Classes
 90
0
280
0
281
0
  0
ENDSEC
  0
SECTION
  2
TABLES
  0
TABLE
  2
VPORT
  5
8
330
0
100
AcDbSymbolTable
 70
1
  0
VPORT
  5
1006A
330
8
100
AcDbSymbolTableRecord
100
AcDbViewportTableRecord
  2
*Active
 70
0
 10
0.0
 20
0.0
 11
1.0
 21
1.0
 12
70.0
 22
50.0
 13
0.0
 23
0.0
 14
0.5
 24
0.5
 15
0.5
 25
0.5
 16
0.0
 26
0.0
 36
1.0
 17
0.0
 27
0.0
 37
0.0
 40
1.0
 41
1.34
 42
50.0
 43
0.0
 44
0.0
 50
0.0
 51
0.0
 71
0
 72
1000
 73
1
 74
3
 75
0
 76
0
 77
0
 78
0
281
0
 65
0
146
0.0
  0
ENDTAB
  0
TABLE
  2
LTYPE
  5
5
330
0
100
AcDbSymbolTable
 70
3
  0
LTYPE
  5
1006B
330
5
100
AcDbSymbolTableRecord
100
AcDbLinetypeTableRecord
  2
Continuous
 70
0
  3

 72
65
 73
0
 40
0.0
  0
ENDTAB
  0
TABLE
  2
LAYER
  5
2
330
0
100
AcDbSymbolTable
 70
2
  0
LAYER
  5
50
330
2
100
AcDbSymbolTableRecord
100
AcDbLayerTableRecord
  2
0
 70
0
 62
7
  6
CONTINUOUS
370
-3
390
10060
  0
LAYER
  5
1006C
330
2
100
AcDbSymbolTableRecord
100
AcDbLayerTableRecord
  2
Defpoints
 70
0
 62
7
  6
Continuous
290
0
370
-3
390
10060
  0
ENDTAB
  0
TABLE
  2
STYLE
  5
3
330
0
100
AcDbSymbolTable
 70
1
  0
STYLE
  5
11
330
3
100
AcDbSymbolTableRecord
100
AcDbTextStyleTableRecord
  2
STANDARD
 70
0
 40
0.0
 41
1.0
 50
0.0
 71
0
 42
2.5
  3
txt
  4

  0
ENDTAB
  0
TABLE
  2
VIEW
  5
6
330
0
100
AcDbSymbolTable
 70
0
  0
ENDTAB
  0
TABLE
  2
UCS
  5
7
330
0
100
AcDbSymbolTable
 70
0
  0
ENDTAB
  0
TABLE
  2
APPID
  5
9
330
0
100
AcDbSymbolTable
 70
2
  0
APPID
  5
12
330
9
100
AcDbSymbolTableRecord
100
AcDbRegAppTableRecord
  2
ACAD
 70
0
  0
APPID
  5
1006F
330
9
100
AcDbSymbolTableRecord
100
AcDbRegAppTableRecord
  2
HATCHBACKGROUNDCOLOR
 70
0
  0
ENDTAB
  0
TABLE
  2
DIMSTYLE
  5
A
330
0
100
AcDbSymbolTable
 70
1
100
AcDbDimStyleTable
  0
DIMSTYLE
105
1006D
330
A
100
AcDbSymbolTableRecord
100
AcDbDimStyleTableRecord
  2
Standard
 70
0
  3

  4

 40
1.0
 41
2.5
 42
0.625
 43
3.75
 44
1.25
 45
0.0
 46
0.0
 47
0.0
 48
0.0
140
2.5
141
2.5
142
0.0
143
0.03937007874
144
1.0
145
0.0
146
1.0
147
0.625
148
0.0
 71
0
 72
0
 73
0
 74
0
 75
0
 76
0
 77
1
 78
8
 79
0
170
0
171
3
172
1
173
0
174
0
175
0
176
0
177
0
178
0
179
0
271
0
272
2
273
2
274
3
275
0
276
0
277
2
278
44
279
0
280
0
281
0
282
0
283
0
284
8
285
0
286
0
288
0
289
3
371
-2
372
-2
  0
ENDTAB
  0
TABLE
  2
BLOCK_RECORD
  5
1
330
0
100
AcDbSymbolTable
 70
22
  0
BLOCK_RECORD
  5
1F
330
1
100
AcDbSymbolTableRecord
100
AcDbBlockTableRecord
  2
*MODEL_SPACE
340
10064
  0
BLOCK_RECORD
  5
1B
330
1
100
AcDbSymbolTableRecord
100
AcDbBlockTableRecord
  2
*PAPER_SPACE
340
10065
  0
BLOCK_RECORD
  5
FFFF
330
1
100
AcDbSymbolTableRecord
100
AcDbBlockTableRecord
  2
_CLOSEDFILLED
340
0
  0
BLOCK_RECORD
  5
10003
330
1
100
AcDbSymbolTableRecord
100
AcDbBlockTableRecord
  2
_NONE
340
0
  0
BLOCK_RECORD
  5
10006
330
1
100
AcDbSymbolTableRecord
100
AcDbBlockTableRecord
  2
_BOXBLANK
340
0
  0
BLOCK_RECORD
  5
1000B
330
1
100
AcDbSymbolTableRecord
100
AcDbBlockTableRecord
  2
_DOTBLANK
340
0
  0
BLOCK_RECORD
  5
10010
330
1
100
AcDbSymbolTableRecord
100
AcDbBlockTableRecord
  2
_OPEN90
340
0
  0
BLOCK_RECORD
  5
10015
330
1
100
AcDbSymbolTableRecord
100
AcDbBlockTableRecord
  2
_DOTSMALL
340
0
  0
BLOCK_RECORD
  5
10019
330
1
100
AcDbSymbolTableRecord
100
AcDbBlockTableRecord
  2
_DATUMBLANK
340
0
  0
BLOCK_RECORD
  5
1001D
330
1
100
AcDbSymbolTableRecord
100
AcDbBlockTableRecord
  2
_ARCHTICK
340
0
  0
BLOCK_RECORD
  5
10021
330
1
100
AcDbSymbolTableRecord
100
AcDbBlockTableRecord
  2
_OPEN30
340
0
  0
BLOCK_RECORD
  5
10026
330
1
100
AcDbSymbolTableRecord
100
AcDbBlockTableRecord
  2
_INTEGRAL
340
0
  0
BLOCK_RECORD
  5
1002B
330
1
100
AcDbSymbolTableRecord
100
AcDbBlockTableRecord
  2
_CLOSED
340
0
  0
BLOCK_RECORD
  5
10030
330
1
100
AcDbSymbolTableRecord
100
AcDbBlockTableRecord
  2
_DATUMFILLED
340
0
  0
BLOCK_RECORD
  5
10034
330
1
100
AcDbSymbolTableRecord
100
AcDbBlockTableRecord
  2
_DOT
340
0
  0
BLOCK_RECORD
  5
10039
330
1
100
AcDbSymbolTableRecord
100
AcDbBlockTableRecord
  2
_OPEN
340
0
  0
BLOCK_RECORD
  5
1003E
330
1
100
AcDbSymbolTableRecord
100
AcDbBlockTableRecord
  2
_ORIGIN
340
0
  0
BLOCK_RECORD
  5
10043
330
1
100
AcDbSymbolTableRecord
100
AcDbBlockTableRecord
  2
_SMALL
340
0
  0
BLOCK_RECORD
  5
10047
330
1
100
AcDbSymbolTableRecord
100
AcDbBlockTableRecord
  2
_OBLIQUE
340
0
  0
BLOCK_RECORD
  5
1004B
330
1
100
AcDbSymbolTableRecord
100
AcDbBlockTableRecord
  2
_CLOSEDBLANK
340
0
  0
BLOCK_RECORD
  5
1004F
330
1
100
AcDbSymbolTableRecord
100
AcDbBlockTableRecord
  2
_BOXFILLED
340
0
  0
BLOCK_RECORD
  5
10054
330
1
100
AcDbSymbolTableRecord
100
AcDbBlockTableRecord
  2
_ORIGIN2
340
0
  0
ENDTAB
  0
ENDSEC
  0
SECTION
  2
BLOCKS
  0
BLOCK
  5
20
330
1F
100
AcDbEntity
  8
0
100
AcDbBlockBegin
  2
*MODEL_SPACE
 70
0
 10
0.0
 20
0.0
 30
0.0
  3
*MODEL_SPACE
  1

  0
ENDBLK
  5
21
330
1F
100
AcDbEntity
  8
0
100
AcDbBlockEnd
  0
BLOCK
  5
1C
330
1B
100
AcDbEntity
  8
0
100
AcDbBlockBegin
  2
*PAPER_SPACE
 70
0
 10
0.0
 20
0.0
 30
0.0
  3
*PAPER_SPACE
  1

  0
ENDBLK
  5
1D
330
1B
100
AcDbEntity
  8
0
100
AcDbBlockEnd
  0
BLOCK
  5
10000
330
FFFF
100
AcDbEntity
  8
0
100
AcDbBlockBegin
  2
_CLOSEDFILLED
 70
0
 10
0.0
 20
0.0
 30
0.0
  3
_CLOSEDFILLED
  1

  0
SOLID
  5
10002
330
FFFF
100
AcDbEntity
  8
0
  6
BYBLOCK
 62
0
100
AcDbTrace
 10
-1.0
 20
0.1643989837240255
 30
0.0
 11
0.0
 21
0.0
 31
0.0
 12
-1.0
 22
-0.1643989837240255
 32
0.0
 13
-1.0
 23
-0.1643989837240255
 33
0.0
  0
ENDBLK
  5
10001
330
FFFF
100
AcDbEntity
  8
0
100
AcDbBlockEnd
  0
BLOCK
  5
10004
330
10003
100
AcDbEntity
  8
0
100
AcDbBlockBegin
  2
_NONE
 70
0
 10
0.0
 20
0.0
 30
0.0
  3
_NONE
  1

  0
ENDBLK
  5
10005
330
10003
100
AcDbEntity
  8
0
100
AcDbBlockEnd
  0
BLOCK
  5
10007
330
10006
100
AcDbEntity
  8
0
100
AcDbBlockBegin
  2
_BOXBLANK
 70
0
 10
0.0
 20
0.0
 30
0.0
  3
_BOXBLANK
  1

  0
LWPOLYLINE
  5
10009
330
10006
100
AcDbEntity
  8
0
  6
BYBLOCK
 62
0
100
AcDbPolyline
 90
4
 70
1
 10
-0.5
 20
-0.5000000000000001
 10
0.5000000000000001
 20
-0.5
 10
0.5000000000000001
 20
0.5
 10
-0.5
 20
0.5000000000000001
  0
LINE
  5
1000A
330
10006
100
AcDbEntity
  8
0
  6
BYBLOCK
 62
0
100
AcDbLine
 10
-0.5
 20
6.123233995736766e-17
 30
0.0
 11
-1.0
 21
1.2246467991473532e-16
 31
0.0
  0
ENDBLK
  5
10008
330
10006
100
AcDbEntity
  8
0
100
AcDbBlockEnd
  0
BLOCK
  5
1000C
330
1000B
100
AcDbEntity
  8
0
100
AcDbBlockBegin
  2
_DOTBLANK
 70
0
 10
0.0
 20
0.0
 30
0.0
  3
_DOTBLANK
  1

  0
CIRCLE
  5
1000E
330
1000B
100
AcDbEntity
  8
0
  6
BYBLOCK
 62
0
100
AcDbCircle
 10
0.0
 20
0.0
 30
0.0
 40
0.5
  0
LINE
  5
1000F
330
1000B
100
AcDbEntity
  8
0
  6
BYBLOCK
 62
0
100
AcDbLine
 10
-0.5
 20
6.123233995736766e-17
 30
0.0
 11
-1.0
 21
1.2246467991473532e-16
 31
0.0
  0
ENDBLK
  5
1000D
330
1000B
100
AcDbEntity
  8
0
100
AcDbBlockEnd
  0
BLOCK
  5
10011
330
10010
100
AcDbEntity
  8
0
100
AcDbBlockBegin
  2
_OPEN90
 70
0
 10
0.0
 20
0.0
 30
0.0
  3
_OPEN90
  1

  0
LWPOLYLINE
  5
10013
330
10010
100
AcDbEntity
  8
0
  6
BYBLOCK
 62
0
100
AcDbPolyline
 90
3
 70
0
 10
-0.9999999999999998
 20
0.7071067811865476
 10
0.0
 20
0.0
 10
-0.9999999999999998
 20
-0.7071067811865476
  0
LINE
  5
10014
330
10010
100
AcDbEntity
  8
0
  6
BYBLOCK
 62
0
100
AcDbLine
 10
0.0
 20
0.0
 30
0.0
 11
-1.0
 21
1.2246467991473532e-16
 31
0.0
  0
ENDBLK
  5
10012
330
10010
100
AcDbEntity
  8
0
100
AcDbBlockEnd
  0
BLOCK
  5
10016
330
10015
100
AcDbEntity
  8
0
100
AcDbBlockBegin
  2
_DOTSMALL
 70
0
 10
0.0
 20
0.0
 30
0.0
  3
_DOTSMALL
  1

  0
LWPOLYLINE
  5
10018
330
10015
100
AcDbEntity
  8
0
  6
BYBLOCK
 62
0
100
AcDbPolyline
 90
2
 70
1
 43
0.125
 10
-0.0625
 20
0.0
 42
1.0
 10
0.0625
 20
0.0
 42
1.0
  0
ENDBLK
  5
10017
330
10015
100
AcDbEntity
  8
0
100
AcDbBlockEnd
  0
BLOCK
  5
1001A
330
10019
100
AcDbEntity
  8
0
100
AcDbBlockBegin
  2
_DATUMBLANK
 70
0
 10
0.0
 20
0.0
 30
0.0
  3
_DATUMBLANK
  1

  0
LWPOLYLINE
  5
1001C
330
10019
100
AcDbEntity
  8
0
  6
BYBLOCK
 62
0
100
AcDbPolyline
 90
3
 70
1
 10
3.5352507945885664e-17
 20
0.577350269
 10
3.5352507945885664e-17
 20
-0.577350269
 10
-1.0
 20
1.2246467991473532e-16
  0
ENDBLK
  5
1001B
330
10019
100
AcDbEntity
  8
0
100
AcDbBlockEnd
  0
BLOCK
  5
1001E
330
1001D
100
AcDbEntity
  8
0
100
AcDbBlockBegin
  2
_ARCHTICK
 70
0
 10
0.0
 20
0.0
 30
0.0
  3
_ARCHTICK
  1

  0
LWPOLYLINE
  5
10020
330
1001D
100
AcDbEntity
  8
0
  6
BYBLOCK
 62
0
100
AcDbPolyline
 90
2
 70
0
 43
0.15
 10
-0.5
 20
-0.5000000000000001
 10
0.5000000000000001
 20
0.5
  0
ENDBLK
  5
1001F
330
1001D
100
AcDbEntity
  8
0
100
AcDbBlockEnd
  0
BLOCK
  5
10022
330
10021
100
AcDbEntity
  8
0
100
AcDbBlockBegin
  2
_OPEN30
 70
0
 10
0.0
 20
0.0
 30
0.0
  3
_OPEN30
  1

  0
LWPOLYLINE
  5
10024
330
10021
100
AcDbEntity
  8
0
  6
BYBLOCK
 62
0
100
AcDbPolyline
 90
3
 70
0
 10
-0.9999999999999999
 20
0.2588190451025208
 10
0.0
 20
0.0
 10
-0.9999999999999999
 20
-0.2588190451025208
  0
LINE
  5
10025
330
10021
100
AcDbEntity
  8
0
  6
BYBLOCK
 62
0
100
AcDbLine
 10
0.0
 20
0.0
 30
0.0
 11
-1.0
 21
1.2246467991473532e-16
 31
0.0
  0
ENDBLK
  5
10023
330
10021
100
AcDbEntity
  8
0
100
AcDbBlockEnd
  0
BLOCK
  5
10027
330
10026
100
AcDbEntity
  8
0
100
AcDbBlockBegin
  2
_INTEGRAL
 70
0
 10
0.0
 20
0.0
 30
0.0
  3
_INTEGRAL
  1

  0
ARC
  5
10029
330
10026
100
AcDbEntity
  8
0
  6
BYBLOCK
 62
0
100
AcDbCircle
 10
-0.3535534
 20
4.329780396376638e-17
 30
0.0
 40
0.3535534
100
AcDbArc
 50
-90.0
 51
0.0
  0
ARC
  5
1002A
330
10026
100
AcDbEntity
  8
0
  6
BYBLOCK
 62
0
100
AcDbCircle
 10
0.3535534
 20
0.0
 30
0.0
 40
0.3535534
100
AcDbArc
 50
90.0
 51
180.0
  0
ENDBLK
  5
10028
330
10026
100
AcDbEntity
  8
0
100
AcDbBlockEnd
  0
BLOCK
  5
1002C
330
1002B
100
AcDbEntity
  8
0
100
AcDbBlockBegin
  2
_CLOSED
 70
0
 10
0.0
 20
0.0
 30
0.0
  3
_CLOSED
  1

  0
LWPOLYLINE
  5
1002E
330
1002B
100
AcDbEntity
  8
0
  6
BYBLOCK
 62
0
100
AcDbPolyline
 90
3
 70
1
 10
-1.0
 20
0.1643989837240255
 10
0.0
 20
0.0
 10
-1.0
 20
-0.1643989837240255
  0
LINE
  5
1002F
330
1002B
100
AcDbEntity
  8
0
  6
BYBLOCK
 62
0
100
AcDbLine
 10
0.0
 20
0.0
 30
0.0
 11
-1.0
 21
0.0
 31
0.0
  0
ENDBLK
  5
1002D
330
1002B
100
AcDbEntity
  8
0
100
AcDbBlockEnd
  0
BLOCK
  5
10031
330
10030
100
AcDbEntity
  8
0
100
AcDbBlockBegin
  2
_DATUMFILLED
 70
0
 10
0.0
 20
0.0
 30
0.0
  3
_DATUMFILLED
  1

  0
SOLID
  5
10033
330
10030
100
AcDbEntity
  8
0
  6
BYBLOCK
 62
0
100
AcDbTrace
 10
3.5352507945885664e-17
 20
0.577350269
 30
0.0
 11
3.5352507945885664e-17
 21
-0.577350269
 31
0.0
 12
-1.0
 22
1.2246467991473532e-16
 32
0.0
 13
-1.0
 23
1.2246467991473532e-16
 33
0.0
  0
ENDBLK
  5
10032
330
10030
100
AcDbEntity
  8
0
100
AcDbBlockEnd
  0
BLOCK
  5
10035
330
10034
100
AcDbEntity
  8
0
100
AcDbBlockBegin
  2
_DOT
 70
0
 10
0.0
 20
0.0
 30
0.0
  3
_DOT
  1

  0
LINE
  5
10037
330
10034
100
AcDbEntity
  8
0
  6
BYBLOCK
 62
0
100
AcDbLine
 10
-0.5
 20
6.123233995736766e-17
 30
0.0
 11
-1.0
 21
1.2246467991473532e-16
 31
0.0
  0
LWPOLYLINE
  5
10038
330
10034
100
AcDbEntity
  8
0
  6
BYBLOCK
 62
0
100
AcDbPolyline
 90
2
 70
1
 43
0.5
 10
-0.25
 20
0.0
 42
1.0
 10
0.25
 20
0.0
 42
1.0
  0
ENDBLK
  5
10036
330
10034
100
AcDbEntity
  8
0
100
AcDbBlockEnd
  0
BLOCK
  5
1003A
330
10039
100
AcDbEntity
  8
0
100
AcDbBlockBegin
  2
_OPEN
 70
0
 10
0.0
 20
0.0
 30
0.0
  3
_OPEN
  1

  0
LWPOLYLINE
  5
1003C
330
10039
100
AcDbEntity
  8
0
  6
BYBLOCK
 62
0
100
AcDbPolyline
 90
3
 70
0
 10
-1.0
 20
0.1643989837240255
 10
0.0
 20
0.0
 10
-1.0
 20
-0.1643989837240255
  0
LINE
  5
1003D
330
10039
100
AcDbEntity
  8
0
  6
BYBLOCK
 62
0
100
AcDbLine
 10
0.0
 20
0.0
 30
0.0
 11
-1.0
 21
1.2246467991473532e-16
 31
0.0
  0
ENDBLK
  5
1003B
330
10039
100
AcDbEntity
  8
0
100
AcDbBlockEnd
  0
BLOCK
  5
1003F
330
1003E
100
AcDbEntity
  8
0
100
AcDbBlockBegin
  2
_ORIGIN
 70
0
 10
0.0
 20
0.0
 30
0.0
  3
_ORIGIN
  1

  0
CIRCLE
  5
10041
330
1003E
100
AcDbEntity
  8
0
  6
BYBLOCK
 62
0
100
AcDbCircle
 10
0.0
 20
0.0
 30
0.0
 40
0.5
  0
LINE
  5
10042
330
1003E
100
AcDbEntity
  8
0
  6
BYBLOCK
 62
0
100
AcDbLine
 10
0.0
 20
0.0
 30
0.0
 11
-1.0
 21
1.2246467991473532e-16
 31
0.0
  0
ENDBLK
  5
10040
330
1003E
100
AcDbEntity
  8
0
100
AcDbBlockEnd
  0
BLOCK
  5
10044
330
10043
100
AcDbEntity
  8
0
100
AcDbBlockBegin
  2
_SMALL
 70
0
 10
0.0
 20
0.0
 30
0.0
  3
_SMALL
  1

  0
CIRCLE
  5
10046
330
10043
100
AcDbEntity
  8
0
  6
BYBLOCK
 62
0
100
AcDbCircle
 10
0.0
 20
0.0
 30
0.0
 40
0.25
  0
ENDBLK
  5
10045
330
10043
100
AcDbEntity
  8
0
100
AcDbBlockEnd
  0
BLOCK
  5
10048
330
10047
100
AcDbEntity
  8
0
100
AcDbBlockBegin
  2
_OBLIQUE
 70
0
 10
0.0
 20
0.0
 30
0.0
  3
_OBLIQUE
  1

  0
LINE
  5
1004A
330
10047
100
AcDbEntity
  8
0
  6
BYBLOCK
 62
0
100
AcDbLine
 10
-0.5
 20
-0.5000000000000001
 30
0.0
 11
0.5000000000000001
 21
0.5
 31
0.0
  0
ENDBLK
  5
10049
330
10047
100
AcDbEntity
  8
0
100
AcDbBlockEnd
  0
BLOCK
  5
1004C
330
1004B
100
AcDbEntity
  8
0
100
AcDbBlockBegin
  2
_CLOSEDBLANK
 70
0
 10
0.0
 20
0.0
 30
0.0
  3
_CLOSEDBLANK
  1

  0
LWPOLYLINE
  5
1004E
330
1004B
100
AcDbEntity
  8
0
  6
BYBLOCK
 62
0
100
AcDbPolyline
 90
3
 70
1
 10
-1.0
 20
0.1643989837240255
 10
0.0
 20
0.0
 10
-1.0
 20
-0.1643989837240255
  0
ENDBLK
  5
1004D
330
1004B
100
AcDbEntity
  8
0
100
AcDbBlockEnd
  0
BLOCK
  5
10050
330
1004F
100
AcDbEntity
  8
0
100
AcDbBlockBegin
  2
_BOXFILLED
 70
0
 10
0.0
 20
0.0
 30
0.0
  3
_BOXFILLED
  1

  0
SOLID
  5
10052
330
1004F
100
AcDbEntity
  8
0
  6
BYBLOCK
 62
0
100
AcDbTrace
 10
-0.5
 20
-0.5000000000000001
 30
0.0
 11
0.5000000000000001
 21
-0.5
 31
0.0
 12
-0.5
 22
0.5000000000000001
 32
0.0
 13
0.5000000000000001
 23
0.5
 33
0.0
  0
LINE
  5
10053
330
1004F
100
AcDbEntity
  8
0
  6
BYBLOCK
 62
0
100
AcDbLine
 10
-0.5
 20
6.123233995736766e-17
 30
0.0
 11
-1.0
 21
1.2246467991473532e-16
 31
0.0
  0
ENDBLK
  5
10051
330
1004F
100
AcDbEntity
  8
0
100
AcDbBlockEnd
  0
BLOCK
  5
10055
330
10054
100
AcDbEntity
  8
0
100
AcDbBlockBegin
  2
_ORIGIN2
 70
0
 10
0.0
 20
0.0
 30
0.0
  3
_ORIGIN2
  1

  0
CIRCLE
  5
10057
330
10054
100
AcDbEntity
  8
0
  6
BYBLOCK
 62
0
100
AcDbCircle
 10
0.0
 20
0.0
 30
0.0
 40
0.5
  0
CIRCLE
  5
10058
330
10054
100
AcDbEntity
  8
0
  6
BYBLOCK
 62
0
100
AcDbCircle
 10
0.0
 20
0.0
 30
0.0
 40
0.25
  0
LINE
  5
10059
330
10054
100
AcDbEntity
  8
0
  6
BYBLOCK
 62
0
100
AcDbLine
 10
-0.5
 20
6.123233995736766e-17
 30
0.0
 11
-1.0
 21
1.2246467991473532e-16
 31
0.0
  0
ENDBLK
  5
10056
330
10054
100
AcDbEntity
  8
0
100
AcDbBlockEnd
  0
ENDSEC
  0
SECTION
  2
ENTITIES
  0
LINE
  5
100
330
1F
100
AcDbEntity
  8
0
100
AcDbLine
 10
-8.13088676690853
 20
8.099830382088719
 30
0.0
 11
-10.16728970406265
 21
8.064284836600326
 31
0.0
  0
LINE
  5
101
330
1F
100
AcDbEntity
  8
0
100
AcDbLine
 10
-10.16728970406265
 20
8.064284836600326
 30
-1.4210854715202004e-13
 11
-10.166386457888802
 21
8.012537897957355
 31
-1.42110715556365e-13
  0
LINE
  5
102
330
1F
100
AcDbEntity
  8
0
100
AcDbLine
 10
-10.1663864578888
 20
8.012537897957284
 30
0.0
 11
-12.166081848201584
 21
7.977633085082717
 31
0.0
  0
LINE
  5
103
330
1F
100
AcDbEntity
  8
0
100
AcDbLine
 10
-12.166081848201584
 20
7.977633085082717
 30
-1.4210854715202004e-13
 11
-12.112851837913047
 21
4.928087838047442
 31
-1.4210854715202004e-13
  0
LINE
  5
104
330
1F
100
AcDbEntity
  8
0
100
AcDbLine
 10
-12.112851837913048
 20
4.928087838047513
 30
0.0
 11
-10.113156447600263
 21
4.962992650922009
 31
0.0
  0
LINE
  5
105
330
1F
100
AcDbEntity
  8
0
100
AcDbLine
 10
-10.113156447600263
 20
4.962992650922009
 30
0.0
 11
-9.939505003549291
 21
-4.98549191588413
 31
5.545945011411021e-43
  0
LINE
  5
106
330
1F
100
AcDbEntity
  8
0
100
AcDbLine
 10
-9.939505003549291
 20
-4.98549191588413
 30
-1.4210854715202004e-13
 11
-11.939200393862077
 21
-5.020396728758555
 31
-1.4210854715202004e-13
  0
LINE
  5
107
330
1F
100
AcDbEntity
  8
0
100
AcDbLine
 10
-11.939200393862077
 20
-5.020396728758555
 30
-1.4210854715202004e-13
 11
-11.886779200463666
 21
-8.02360488719218
 31
-1.4210854715202004e-13
  0
LINE
  5
108
330
1F
100
AcDbEntity
  8
0
100
AcDbLine
 10
-11.886779200463664
 20
-8.023604887192251
 30
0.0
 11
-7.856964030760946
 21
-7.953264201756302
 31
0.0
  0
SPLINE
  5
109
330
1F
100
AcDbEntity
  8
0
100
AcDbSpline
 70
0
 71
3
 72
17
 73
13
 74
0
 42
1e-09
 40
-0.0005473848830134301
 40
-0.0005473848830134301
 40
-0.0005473848830134301
 40
-0.0005473848830134301
 40
0.0
 40
0.0
 40
0.0
 40
0.49284765314895523
 40
0.49284765314895523
 40
0.49284765314895523
 40
1.0
 40
1.0
 40
1.0
 40
1.0011293235198446
 40
1.0011293235198446
 40
1.0011293235198446
 40
1.0011293235198446
 10
-7.856964030760949
 20
-7.95326420175616
 30
0.0
 10
-7.855330704186088
 20
-7.952484993071951
 30
0.0
 10
-7.853697377611145
 20
-7.951705784387529
 30
-1.4210854715202004e-13
 10
-7.852064051036201
 20
-7.950926575703248
 30
1.4210854715202004e-13
 10
-6.387114618065487
 20
-7.252045324493489
 30
-1.4210854715202004e-13
 10
-4.213669493435783
 20
-6.892092300416905
 30
-1.4210854715202004e-13
 10
-1.2145688365720062
 20
-6.931302661070304
 30
0.0
 10
1.871579442420154
 20
-6.971651085779537
 30
0.0
 10
5.7569070339974235
 20
-7.398022271211088
 30
0.0
 10
10.138097720445522
 20
-8.064440664002237
 30
0.0
 10
10.147855195107217
 20
-8.065924863400626
 30
-1.4210854715202004e-13
 10
10.1576126697689
 20
-8.067409062799227
 30
-1.4210854715202004e-13
 10
10.167370144430562
 20
-8.068893262197687
 30
0.0
  0
LINE
  5
110
330
1F
100
AcDbEntity
  8
0
100
AcDbLine
 10
10.167370144430565
 20
-8.068893262197758
 30
0.0
 11
10.127155687873772
 21
-5.7650085890512175
 31
-7.580460261108155e-27
  0
LINE
  5
111
330
1F
100
AcDbEntity
  8
0
100
AcDbLine
 10
10.127155687873772
 20
-5.765008589051146
 30
0.0
 11
12.126851078186553
 21
-5.730103776176509
 31
0.0
  0
LINE
  5
112
330
1F
100
AcDbEntity
  8
0
100
AcDbLine
 10
12.126851078186553
 20
-5.730103776176509
 30
-1.4210854715202004e-13
 11
12.021264019240991
 21
0.3189747795194852
 31
-1.4183099139586375e-13
  0
LINE
  5
113
330
1F
100
AcDbEntity
  8
0
100
AcDbLine
 10
12.021264019240991
 20
0.3189747795194852
 30
0.0
 11
10.021568628928208
 21
0.2840699666449893
 31
0.0
  0
LINE
  5
114
330
1F
100
AcDbEntity
  8
0
100
AcDbLine
 10
10.021568628928208
 20
0.2840699666449893
 30
0.0
 11
9.978535607509906
 21
2.749430112557507
 31
-3.0005988533553113e-27
  0
SPLINE
  5
115
330
1F
100
AcDbEntity
  8
0
100
AcDbSpline
 70
0
 71
3
 72
17
 73
13
 74
0
 42
1e-09
 40
-0.0005335513825895895
 40
-0.0005335513825895895
 40
-0.0005335513825895895
 40
-0.0005335513825895895
 40
0.0
 40
0.0
 40
0.0
 40
0.5430290828163594
 40
0.5430290828163594
 40
0.5430290828163594
 40
1.0
 40
1.0
 40
1.0
 40
1.0014157027827038
 40
1.0014157027827038
 40
1.0014157027827038
 40
1.0014157027827038
 10
-8.13088676690853
 20
8.099830382088719
 30
0.0
 10
-8.128336007539236
 20
8.096874404121994
 30
-1.4210854715202004e-13
 10
-8.125785248169928
 20
8.09391842615527
 30
-1.4210854715202004e-13
 10
-8.123234488800621
 20
8.090962448188401
 30
-1.4210854715202004e-13
 10
-5.529572694046178
 20
5.085266493166896
 30
0.0
 10
-2.6262625013115595
 20
3.016447496602868
 30
0.0
 10
0.7110733211371267
 20
2.252057296150389
 30
0.0
 10
3.519514820853152
 20
1.6088061296100873
 30
-1.4210854715202004e-13
 10
6.625001845968219
 20
1.8511003283806207
 30
0.0
 10
9.947629009700298
 20
2.741150989902293
 30
0.0
 10
9.957931208970173
 20
2.7439106974539835
 30
0.0
 10
9.968233408240046
 20
2.746670405005817
 30
-1.4210854715202004e-13
 10
9.978535607509949
 20
2.749430112557508
 30
0.0
  0
ENDSEC
  0
SECTION
  2
OBJECTS
  0
DICTIONARY
  5
C
330
None
100
AcDbDictionary
281
1
  3
ACAD_GROUP
350
D
  3
ACAD_MLINESTYLE
350
17
  3
ACAD_COLOR
350
1005A
  3
ACAD_LAYOUT
350
1005B
  3
ACAD_MATERIAL
350
1005C
  3
ACAD_MLEADERSTYLE
350
1005D
  3
ACAD_PLOTSETTINGS
350
1005E
  3
ACAD_PLOTSTYLENAME
350
1005F
  3
ACAD_SCALELIST
350
10061
  3
ACAD_TABLESTYLE
350
10062
  3
ACAD_VISUALSTYLE
350
10063
  0
DICTIONARY
  5
D
330
None
100
AcDbDictionary
281
1
  0
DICTIONARY
  5
1A
330
C
100
AcDbDictionary
281
1
  0
DICTIONARY
  5
17
330
None
100
AcDbDictionary
281
1
  3
Standard
350
10069
  0
DICTIONARY
  5
1005A
330
C
100
AcDbDictionary
281
1
  0
DICTIONARY
  5
1005B
330
C
100
AcDbDictionary
281
1
  3
Model
350
10064
  3
Layout1
350
10065
  0
DICTIONARY
  5
1005C
330
C
100
AcDbDictionary
281
1
  3
ByBlock
350
10066
  3
ByLayer
350
10067
  3
Global
350
10068
  0
DICTIONARY
  5
1005D
330
C
100
AcDbDictionary
281
1
  3
Standard
350
1006E
  0
DICTIONARY
  5
1005E
330
C
100
AcDbDictionary
281
1
  0
ACDBDICTIONARYWDFLT
  5
1005F
330
C
100
AcDbDictionary
281
1
  3
Normal
350
10060
100
AcDbDictionaryWithDefault
340
10060
  0
ACDBPLACEHOLDER
  5
10060
330
1005F
  0
DICTIONARY
  5
10061
330
C
100
AcDbDictionary
281
1
  0
DICTIONARY
  5
10062
330
C
100
AcDbDictionary
281
1
  0
DICTIONARY
  5
10063
330
C
100
AcDbDictionary
281
1
  0
LAYOUT
  5
10064
330
1005B
100
AcDbPlotSettings
  1

  2
Adobe PDF
  4
A4
  6

 40
3.175
 41
3.175
 42
3.175
 43
3.175
 44
209.91
 45
297.03
 46
0.0
 47
0.0
 48
0.0
 49
0.0
140
0.0
141
0.0
142
1.0
143
1.0
 70
1024
 72
0
 73
1
 74
5
  7

 75
16
 76
0
 77
2
 78
300
147
1.0
148
0.0
149
0.0
100
AcDbLayout
  1
Model
 70
1
 71
0
 10
-3.175
 20
-3.175
 11
293.857
 21
206.735
 12
0.0
 22
0.0
 32
0.0
 14
29.068
 24
20.356
 34
0.0
 15
261.614
 25
183.204
 35
0.0
146
0.0
 13
0.0
 23
0.0
 33
0.0
 16
1.0
 26
0.0
 36
0.0
 17
0.0
 27
1.0
 37
0.0
 76
1
330
1F
  0
LAYOUT
  5
10065
330
1005B
100
AcDbPlotSettings
  1

  2
Adobe PDF
  4
A4
  6

 40
3.175
 41
3.175
 42
3.175
 43
3.175
 44
209.91
 45
297.03
 46
0.0
 47
0.0
 48
0.0
 49
0.0
140
0.0
141
0.0
142
1.0
143
1.0
 70
0
 72
0
 73
1
 74
5
  7

 75
16
 76
0
 77
2
 78
300
147
1.0
148
0.0
149
0.0
100
AcDbLayout
  1
Layout1
 70
1
 71
1
 10
-3.175
 20
-3.175
 11
293.857
 21
206.735
 12
0.0
 22
0.0
 32
0.0
 14
29.068
 24
20.356
 34
0.0
 15
261.614
 25
183.204
 35
0.0
146
0.0
 13
0.0
 23
0.0
 33
0.0
 16
1.0
 26
0.0
 36
0.0
 17
0.0
 27
1.0
 37
0.0
 76
1
330
1B
  0
MATERIAL
  5
10066
102
{ACAD_REACTORS
330
1005C
102
}
330
1005C
100
AcDbMaterial
  1
ByBlock
  2

 70
0
 40
1.0
 71
1
 41
1.0
 91
-1023410177
 42
1.0
 72
1
  3

 73
1
 74
1
 75
1
 44
0.5
 73
0
 45
1.0
 46
1.0
 77
1
  4

 78
1
 79
1
170
1
 48
1.0
171
1
  6

172
1
173
1
174
1
140
1.0
141
1.0
175
1
  7

176
1
177
1
178
1
143
1.0
179
1
  8

270
1
271
1
272
1
145
1.0
146
1.0
273
1
  9

274
1
275
1
276
1
 42
1.0
 72
1
  3

 73
1
 74
1
 75
1
 94
63
  0
MATERIAL
  5
10067
102
{ACAD_REACTORS
330
1005C
102
}
330
1005C
100
AcDbMaterial
  1
ByLayer
  2

 70
0
 40
1.0
 71
1
 41
1.0
 91
-1023410177
 42
1.0
 72
1
  3

 73
1
 74
1
 75
1
 44
0.5
 73
0
 45
1.0
 46
1.0
 77
1
  4

 78
1
 79
1
170
1
 48
1.0
171
1
  6

172
1
173
1
174
1
140
1.0
141
1.0
175
1
  7

176
1
177
1
178
1
143
1.0
179
1
  8

270
1
271
1
272
1
145
1.0
146
1.0
273
1
  9

274
1
275
1
276
1
 42
1.0
 72
1
  3

 73
1
 74
1
 75
1
 94
63
  0
MATERIAL
  5
10068
102
{ACAD_REACTORS
330
1005C
102
}
330
1005C
100
AcDbMaterial
  1
Global
  2

 70
0
 40
1.0
 71
1
 41
1.0
 91
-1023410177
 42
1.0
 72
1
  3

 73
1
 74
1
 75
1
 44
0.5
 73
0
 45
1.0
 46
1.0
 77
1
  4

 78
1
 79
1
170
1
 48
1.0
171
1
  6

172
1
173
1
174
1
140
1.0
141
1.0
175
1
  7

176
1
177
1
178
1
143
1.0
179
1
  8

270
1
271
1
272
1
145
1.0
146
1.0
273
1
  9

274
1
275
1
276
1
 42
1.0
 72
1
  3

 73
1
 74
1
 75
1
 94
63
  0
MLINESTYLE
  5
10069
102
{ACAD_REACTORS
330
17
102
}
330
17
100
AcDbMlineStyle
  2
Standard
 70
0
  3

 62
256
 51
90.0
 52
90.0
 71
2
 49
0.5
 62
256
  6
BYLAYER
 49
-0.5
 62
256
  6
BYLAYER
  0
MLEADERSTYLE
  5
1006E
102
{ACAD_REACTORS
330
1005D
102
}
330
1005D
100
AcDbMLeaderStyle
179
2
170
2
171
1
172
0
 90
2
 40
0.0
 41
0.0
173
1
 91
-1056964608
 92
-2
290
1
 42
2.0
291
1
 43
8.0
  3
Standard
 44
4.0
300

342
11
174
1
175
1
176
0
178
1
 93
-1056964608
 45
4.0
292
0
297
0
 46
4.0
 94
-1056964608
 47
1.0
 49
1.0
140
1.0
294
1
141
0.0
177
0
142
1.0
295
0
296
0
143
3.75
271
0
272
9
273
9
  0
ENDSEC
  0
EOF
