0
SECTION
2
HEADER
9
$INSUNITS
70
4
9
$ACADVER
1
AC1014
9
$HANDSEED
5
FFFF
0
ENDSEC
0
SECTION
2
TABLES
0
TABLE
2
VPORT
5
8
100
AcDbSymbolTable
0
ENDTAB
0
TABLE
2
LTYPE
5
5
100
AcDbSymbolTable
0
LTYPE
5
14
100
AcDbSymbolTableRecord
100
AcDbLinetypeTableRecord
2
BYBLOCK
70
0
0
LTYPE
5
15
100
AcDbSymbolTableRecord
100
AcDbLinetypeTableRecord
2
BYLAYER
70
0
0
ENDTAB
0
TABLE
2
LAYER
5
2
100
AcDbSymbolTable
70
2
0
LAYER
5
50
100
AcDbSymbolTableRecord
100
AcDbLayerTableRecord
2
0
70
0
6
CONTINUOUS
0
ENDTAB
0
TABLE
2
STYLE
5
3
100
AcDbSymbolTable
70
1
0
STYLE
5
11
100
AcDbSymbolTableRecord
100
AcDbTextStyleTableRecord
2
STANDARD
70
0
0
ENDTAB
0
TABLE
2
VIEW
5
6
100
AcDbSymbolTable
70
0
0
ENDTAB
0
TABLE
2
UCS
5
7
100
AcDbSymbolTable
70
0
0
ENDTAB
0
TABLE
2
APPID
5
9
100
AcDbSymbolTable
70
2
0
APPID
5
12
100
AcDbSymbolTableRecord
100
AcDbRegAppTableRecord
2
ACAD
70
0
0
ENDTAB
0
TABLE
2
DIMSTYLE
5
A
100
AcDbSymbolTable
70
1
0
ENDTAB
0
TABLE
2
BLOCK_RECORD
5
1
100
AcDbSymbolTable
70
1
0
BLOCK_RECORD
5
1F
100
AcDbSymbolTableRecord
100
AcDbBlockTableRecord
2
*MODEL_SPACE
0
BLOCK_RECORD
5
1B
100
AcDbSymbolTableRecord
100
AcDbBlockTableRecord
2
*PAPER_SPACE
0
ENDTAB
0
ENDSEC
0
SECTION
2
BLOCKS
0
BLOCK
5
20
100
AcDbEntity
100
AcDbBlockBegin
2
*MODEL_SPACE
0
ENDBLK
5
21
100
AcDbEntity
100
AcDbBlockEnd
0
BLOCK
5
1C
100
AcDbEntity
100
AcDbBlockBegin
2
*PAPER_SPACE
0
ENDBLK
5
1D
100
AcDbEntity
100
AcDbBlockEnd
0
ENDSEC
0
SECTION
2
ENTITIES
0
LINE
5
100
100
AcDbEntity
8
0
100
AcDbLine
10
-4.9837114157342111
20
-32.024999999999999
30
-1.4210854715202004e-13
11
2.0662885842658154
21
-32.024999999999999
31
-1.4183099139586375e-13
0
LINE
5
101
100
AcDbEntity
8
0
100
AcDbLine
10
2.066288584265914
20
-32.024999999999999
30
-1.4210854715202004e-13
11
2.0662885842658874
21
-30.024999999999995
31
-1.4210854715202004e-13
0
LINE
5
102
100
AcDbEntity
8
0
100
AcDbLine
10
2.0662885842658785
20
-30.024999999999995
30
-1.4210854715202004e-13
11
6.9636243306588064
21
-30.024999999999974
31
-1.4210854715202004e-13
0
SPLINE
5
103
100
AcDbEntity
8
0
100
AcDbSpline
70
0
71
3
72
29
73
25
74
0
42
0.000000001
43
0.0000000001
44
0.0000000001
40
-1.0002600498205396
40
-1.0002600498205396
40
-1.0002600498205396
40
-1.0002600498205396
40
-1
40
-1
40
-1
40
-0.8690403048194737
40
-0.8690403048194737
40
-0.8690403048194737
40
-0.68406635080997802
40
-0.68406635080997802
40
-0.68406635080997802
40
-0.56842329089554589
40
-0.56842329089554589
40
-0.56842329089554589
40
-0.42445976734398844
40
-0.42445976734398844
40
-0.42445976734398844
40
-0.29926206092596264
40
-0.29926206092596264
40
-0.29926206092596264
40
-0.07060956474745847
40
-0.07060956474745847
40
-0.07060956474745847
40
0
40
0
40
0
40
0
10
6.963624330658762
20
-30.024999999999888
30
0
10
6.9637337093394525
20
-30.016777510020933
30
-1.4210854715202004e-13
10
6.9638430880200008
20
-30.008555020041978
30
-1.4210854715202004e-13
10
6.9639524667006203
20
-30.000332530063012
30
0
10
7.0190291784282
20
-25.859967079286335
30
0
10
7.1804397454202462
20
-22.656179618931311
30
-1.4210854715202004e-13
10
7.3837919932352936
20
-20.06433893318356
30
0
10
7.6710167709288957
20
-16.403494891476178
30
0
10
8.0177865602709719
20
-13.872497781770651
30
1.4210854715202004e-13
10
8.1400007405833552
20
-10.836676821289055
30
0
10
8.2164072911809871
20
-8.9387251496475439
30
0
10
8.20018658335262
20
-6.8212370845900239
30
0
10
8.1033239373615107
20
-4.3675777231871216
30
0
10
7.9827400663732551
20
-1.3130282541208693
30
0
10
7.7510098809566319
20
2.2354956926808622
30
0
10
7.6442819787758243
20
5.6068934320078778
30
-1.4210854715202004e-13
10
7.5514661860375387
20
8.538825451826062
30
-1.4210854715202004e-13
10
7.5672493884327086
20
11.281434423128829
30
-1.4210854715202004e-13
10
7.6827203778855324
20
13.759392044996783
30
0
10
7.8936086659379345
20
18.284963733769189
30
0
10
8.4079807085951419
20
21.9821310729657
30
-1.4210854715202004e-13
10
8.5660123143431921
20
26.075509401351951
30
0
10
8.614813631121736
20
27.339574596111042
30
0
10
8.6300710202599706
20
28.643038465496488
30
0
10
8.6046364060929736
20
30.000468351086191
30
0
0
LINE
5
104
100
AcDbEntity
8
0
100
AcDbLine
10
8.6046364060929736
20
30.000468351086191
30
0
11
8.6046407935326474
21
32.025000000000013
31
-1.3234889800848443e-22
0
LINE
5
105
100
AcDbEntity
8
0
100
AcDbLine
10
8.6046407935325764
20
32.025000000000013
30
-1.4210854715202004e-13
11
5.5546048102374268
21
32.025000000000013
31
-1.4210854715202004e-13
0
LINE
5
106
100
AcDbEntity
8
0
100
AcDbLine
10
5.5546048102374446
20
32.025000000000013
30
-1.4210854715202004e-13
11
5.5546048102374801
21
30.025000000000006
31
-1.4210854715202004e-13
0
LINE
5
107
100
AcDbEntity
8
0
100
AcDbLine
10
5.5546048102374801
20
30.025000000000006
30
-1.4210854715202004e-13
11
-4.3953951897625299
21
30.025000000000006
31
-1.4210854715202004e-13
0
LINE
5
108
100
AcDbEntity
8
0
100
AcDbLine
10
-4.3953951897625299
20
30.025000000000006
30
0
11
-4.3953951897625476
21
32.025000000000013
31
-5.4234187233944562e-30
0
LINE
5
109
100
AcDbEntity
8
0
100
AcDbLine
10
-4.3953951897626009
20
32.025000000000013
30
-1.4210854715202004e-13
11
-7.4454311730578215
21
32.025000000000013
31
-1.4196976927394189e-13
0
LINE
5
110
100
AcDbEntity
8
0
100
AcDbLine
10
-7.4454311730577327
20
32.025000000000013
30
0
11
-7.4454311730577061
21
29.99953105564316
31
0
0
SPLINE
5
111
100
AcDbEntity
8
0
100
AcDbSpline
70
0
71
3
72
29
73
25
74
0
42
0.000000001
43
0.0000000001
44
0.0000000001
40
-6.4159383787577192e-06
40
-6.4159383787577192e-06
40
-6.4159383787577192e-06
40
-6.4159383787577192e-06
40
0
40
0
40
0
40
0.16452920999949439
40
0.16452920999949439
40
0.16452920999949439
40
0.37339690749962079
40
0.37339690749962079
40
0.37339690749962079
40
0.52950265862615797
40
0.52950265862615797
40
0.52950265862615797
40
0.72960569917604701
40
0.72960569917604701
40
0.72960569917604701
40
0.92133203650478401
40
0.92133203650478401
40
0.92133203650478401
40
1
40
1
40
1
40
1.0005080609534289
40
1.0005080609534289
40
1.0005080609534289
40
1.0005080609534289
10
-7.4454311730576617
20
29.999531055642397
30
0
10
-7.4454253108853319
20
29.999374850817446
30
-1.4210854715202004e-13
10
-7.4454194487130021
20
29.999218645991739
30
-1.4210854715202004e-13
10
-7.4454135865405657
20
29.999062441166096
30
0
10
-7.2950390552324418
20
25.992147266470429
30
-1.4210854715202004e-13
10
-6.8517080233476957
20
22.752260464101361
30
0
10
-6.2780131896192071
20
19.962377675534164
30
-1.4210854715202004e-13
10
-5.5497150412907015
20
16.42065767125618
30
-1.4210854715202004e-13
10
-4.6458346656042604
20
13.538759001075391
30
-1.4210854715202004e-13
10
-4.1393672108408364
20
10.196040126842707
30
-1.4210854715202004e-13
10
-3.7608382023188636
20
7.6977235038683478
30
0
10
-3.6147720387193427
20
4.9213805506306407
30
0
10
-3.7606083625127606
20
1.7390098572763257
30
-1.4210854715202004e-13
10
-3.9475476110866392
20
-2.340289254393646
30
-1.4210854715202004e-13
10
-4.6066082510901563
20
-7.0737627843961626
30
0
10
-5.4252051792440437
20
-11.890711829685756
30
-1.4210854715202004e-13
10
-6.2095340447736458
20
-16.506014001080182
30
0
10
-7.113429656528778
20
-21.146611257607873
30
0
10
-7.8335777469765855
20
-25.238882984723389
30
0
10
-8.1290644520366495
20
-26.917998578994823
30
-1.4210854715202004e-13
10
-8.3954609655837142
20
-28.508124516985333
30
0
10
-8.6259515264409625
20
-29.996173271541014
30
0
10
-8.6274398936264429
20
-30.005782181027342
30
0
10
-8.6289282608119944
20
-30.015391090513663
30
0
10
-8.6304166279975103
20
-30.024999999999995
30
0
0
LINE
5
112
100
AcDbEntity
8
0
100
AcDbLine
10
-8.6304166279975103
20
-30.024999999999991
30
0
11
-4.9837114157341755
21
-30.024999999999995
31
-1.3877787807814457e-16
0
LINE
5
113
100
AcDbEntity
8
0
100
AcDbLine
10
-4.9837114157342111
20
-30.024999999999995
30
-1.4210854715202004e-13
11
-4.9837114157342199
21
-32.024999999999999
31
-1.4210854715202004e-13
0
ENDSEC
0
SECTION
2
OBJECTS
0
DICTIONARY
5
C
100
AcDbDictionary
3
ACAD_GROUP
350
D
3
ACAD_MLINESTYLE
350
17
0
DICTIONARY
5
D
100
AcDbDictionary
0
DICTIONARY
5
1A
330
C
100
AcDbDictionary
0
DICTIONARY
5
17
100
AcDbDictionary
0
ENDSEC
0
EOF
