0
SECTION
2
HEADER
9
$INSUNITS
70
4
9
$ACADVER
1
AC1014
9
$HANDSEED
5
FFFF
0
ENDSEC
0
SECTION
2
TABLES
0
TABLE
2
VPORT
5
8
100
AcDbSymbolTable
0
ENDTAB
0
TABLE
2
LTYPE
5
5
100
AcDbSymbolTable
0
LTYPE
5
14
100
AcDbSymbolTableRecord
100
AcDbLinetypeTableRecord
2
BYBLOCK
70
0
0
LTYPE
5
15
100
AcDbSymbolTableRecord
100
AcDbLinetypeTableRecord
2
BYLAYER
70
0
0
ENDTAB
0
TABLE
2
LAYER
5
2
100
AcDbSymbolTable
70
2
0
LAYER
5
50
100
AcDbSymbolTableRecord
100
AcDbLayerTableRecord
2
0
70
0
6
CONTINUOUS
0
ENDTAB
0
TABLE
2
STYLE
5
3
100
AcDbSymbolTable
70
1
0
STYLE
5
11
100
AcDbSymbolTableRecord
100
AcDbTextStyleTableRecord
2
STANDARD
70
0
0
ENDTAB
0
TABLE
2
VIEW
5
6
100
AcDbSymbolTable
70
0
0
ENDTAB
0
TABLE
2
UCS
5
7
100
AcDbSymbolTable
70
0
0
ENDTAB
0
TABLE
2
APPID
5
9
100
AcDbSymbolTable
70
2
0
APPID
5
12
100
AcDbSymbolTableRecord
100
AcDbRegAppTableRecord
2
ACAD
70
0
0
ENDTAB
0
TABLE
2
DIMSTYLE
5
A
100
AcDbSymbolTable
70
1
0
ENDTAB
0
TABLE
2
BLOCK_RECORD
5
1
100
AcDbSymbolTable
70
1
0
BLOCK_RECORD
5
1F
100
AcDbSymbolTableRecord
100
AcDbBlockTableRecord
2
*MODEL_SPACE
0
BLOCK_RECORD
5
1B
100
AcDbSymbolTableRecord
100
AcDbBlockTableRecord
2
*PAPER_SPACE
0
ENDTAB
0
ENDSEC
0
SECTION
2
BLOCKS
0
BLOCK
5
20
100
AcDbEntity
100
AcDbBlockBegin
2
*MODEL_SPACE
0
ENDBLK
5
21
100
AcDbEntity
100
AcDbBlockEnd
0
BLOCK
5
1C
100
AcDbEntity
100
AcDbBlockBegin
2
*PAPER_SPACE
0
ENDBLK
5
1D
100
AcDbEntity
100
AcDbBlockEnd
0
ENDSEC
0
SECTION
2
ENTITIES
0
SPLINE
5
100
100
AcDbEntity
8
0
100
AcDbSpline
70
0
71
3
72
26
73
22
74
0
42
0.000000001
43
0.0000000001
44
0.0000000001
40
0.00055594611603408933
40
0.00055594611603408933
40
0.00055594611603408933
40
0.00055594611603408933
40
0.14492607047241715
40
0.14492607047241715
40
0.14492607047241715
40
0.30664233363635052
40
0.30664233363635052
40
0.30664233363635052
40
0.46249245453402626
40
0.46249245453402626
40
0.46249245453402626
40
0.68719941668592077
40
0.68719941668592077
40
0.68719941668592077
40
0.88737168084211282
40
0.88737168084211282
40
0.88737168084211282
40
1
40
1
40
1
40
1.0004495151447448
40
1.0004495151447448
40
1.0004495151447448
40
1.0004495151447448
10
-8.0299667753766357
20
29.986955923726811
30
0
10
-8.0285593570981106
20
28.850280159315574
30
-1.4210854715202004e-13
10
-7.4832064187292247
20
26.931850762315417
30
0
10
-6.714846368618268
20
24.404142472250008
30
0
10
-5.8541674946314082
20
21.572728834142971
30
0
10
-4.7773702633726423
20
18.001770356172297
30
0
10
-4.112704539658445
20
14.158398072655478
30
0
10
-3.4721490916736819
20
10.454441381338233
30
0
10
-3.2247482411113104
20
6.5070690640306328
30
1.4210854715202004e-13
10
-3.3510755242698309
20
2.6227916349718683
30
0
10
-3.5332160312643346
20
-2.9776158347921289
30
-1.4210854715202004e-13
10
-4.4355511142687121
20
-8.4292428433132027
30
0
10
-5.0592777735113081
20
-13.276356647711388
30
0
10
-5.61490264778989
20
-17.594236857374209
30
0
10
-5.9124786761732473
20
-21.44828554645801
30
0
10
-5.7195365403850928
20
-24.803059402633458
30
0
10
-5.6109763033304993
20
-26.690646287702805
30
-1.4210854715202004e-13
10
-5.3584741402000269
20
-28.424002137091403
30
0
10
-4.9619367477688492
20
-30.006078081297321
30
0
10
-4.9603558611012666
20
-30.012385387531559
30
-1.4210854715202004e-13
10
-4.9587749744335774
20
-30.018692693765789
30
0
10
-4.9571940877659415
20
-30.025000000000041
30
0
0
LINE
5
101
100
AcDbEntity
8
0
100
AcDbLine
10
-4.9571940877659415
20
-30.025000000000041
30
0
11
-2.0746235260488359
21
-30.025000000000006
31
0
0
LINE
5
102
100
AcDbEntity
8
0
100
AcDbLine
10
-2.0746235260488177
20
-30.025000000000006
30
0
11
-2.0746235260488
21
-32.025000000000006
31
-1.2325951644078309e-29
0
LINE
5
103
100
AcDbEntity
8
0
100
AcDbLine
10
-2.0746235260488
20
-32.025000000000006
30
0
11
4.7245696017656957
21
-32.025000000000006
31
0
0
LINE
5
104
100
AcDbEntity
8
0
100
AcDbLine
10
4.7245696017657046
20
-32.025000000000006
30
0
11
4.724569601765678
21
-30.025000000000006
31
-2.3665827156630354e-29
0
LINE
5
105
100
AcDbEntity
8
0
100
AcDbLine
10
4.7245696017656336
20
-30.025000000000006
30
-1.4210854715202004e-13
11
8.0547693024551137
21
-30.025000000000006
31
-1.4224732503009818e-13
0
SPLINE
5
106
100
AcDbEntity
8
0
100
AcDbSpline
70
0
71
3
72
23
73
19
74
0
42
0.000000001
43
0.0000000001
44
0.0000000001
40
-1.0015643639024057
40
-1.0015643639024057
40
-1.0015643639024057
40
-1.0015643639024057
40
-1
40
-1
40
-1
40
-0.75
40
-0.75
40
-0.75
40
-0.52129684999945214
40
-0.52129684999945214
40
-0.52129684999945214
40
-0.33916169015281583
40
-0.33916169015281583
40
-0.33916169015281583
40
-0.10503595969245089
40
-0.10503595969245089
40
-0.10503595969245089
40
0
40
0
40
0
40
0
10
8.0547693024550604
20
-30.024999999999959
30
0
10
8.0408308241770676
20
-30.010824083667881
30
0
10
8.0268923458990749
20
-29.99664816733581
30
0
10
8.0129538676209933
20
-29.982472251003735
30
0
10
5.790482144334419
20
-27.722141347495555
30
0
10
4.2255338237036177
20
-24.161958795960743
30
0
10
3.3800453066902669
20
-19.383249226296108
30
0
10
2.6065817581692485
20
-15.011625500215846
30
0
10
2.4541256317703564
20
-9.6157330642259176
30
0
10
2.8590721823919729
20
-4.0694392434225524
30
0
10
3.1815644818055056
20
0.3475314524599149
30
-1.4210854715202004e-13
10
3.8617598836677125
20
4.8128470501441889
30
0
10
4.6869491932331186
20
8.9779488409126262
30
0
10
5.7476891955081655
20
14.331980978510597
30
0
10
7.0204638207171222
20
19.184695097795299
30
0
10
7.6312807609384237
20
23.828532442503043
30
-1.4210854715202004e-13
10
7.905311912432964
20
25.911899833169212
30
0
10
8.045979170871842
20
27.962252588741769
30
0
10
8.0201255271080107
20
30.000317109242385
30
0
0
LINE
5
107
100
AcDbEntity
8
0
100
AcDbLine
10
8.0201255271080107
20
30.000317109242385
30
0
11
8.0201275383543447
21
32.025000000000006
31
0
0
LINE
5
108
100
AcDbEntity
8
0
100
AcDbLine
10
8.0201275383543269
20
32.025000000000006
30
0
11
4.9700833328782057
21
32.025000000000006
31
-1.3877787807814457e-16
0
LINE
5
109
100
AcDbEntity
8
0
100
AcDbLine
10
4.9700833328781968
20
32.025000000000006
30
0
11
4.9700833328781346
21
30.024999999999995
31
0
0
LINE
5
110
100
AcDbEntity
8
0
100
AcDbLine
10
4.9700833328781613
20
30.024999999999995
30
0
11
-4.9799166671218575
21
30.024999999999995
31
0
0
LINE
5
111
100
AcDbEntity
8
0
100
AcDbLine
10
-4.9799166671218487
20
30.024999999999995
30
0
11
-4.9799166671218043
21
32.025000000000006
31
3.944304526105059e-30
0
LINE
5
112
100
AcDbEntity
8
0
100
AcDbLine
10
-4.9799166671218131
20
32.025000000000006
30
0
11
-8.0299608725979077
21
32.025000000000006
31
1.3877787807814457e-16
0
LINE
5
113
100
AcDbEntity
8
0
100
AcDbLine
10
-8.0299608725978899
20
32.025000000000006
30
0
11
-8.0299608725978722
21
29.986986878402799
31
3.944304526105059e-30
0
ENDSEC
0
SECTION
2
OBJECTS
0
DICTIONARY
5
C
100
AcDbDictionary
3
ACAD_GROUP
350
D
3
ACAD_MLINESTYLE
350
17
0
DICTIONARY
5
D
100
AcDbDictionary
0
DICTIONARY
5
1A
330
C
100
AcDbDictionary
0
DICTIONARY
5
17
100
AcDbDictionary
0
ENDSEC
0
EOF
