0
SECTION
2
HEADER
9
$INSUNITS
70
4
9
$ACADVER
1
AC1014
9
$HANDSEED
5
FFFF
0
ENDSEC
0
SECTION
2
TABLES
0
TABLE
2
VPORT
5
8
100
AcDbSymbolTable
0
ENDTAB
0
TABLE
2
LTYPE
5
5
100
AcDbSymbolTable
0
LTYPE
5
14
100
AcDbSymbolTableRecord
100
AcDbLinetypeTableRecord
2
BYBLOCK
70
0
0
LTYPE
5
15
100
AcDbSymbolTableRecord
100
AcDbLinetypeTableRecord
2
BYLAYER
70
0
0
ENDTAB
0
TABLE
2
LAYER
5
2
100
AcDbSymbolTable
70
2
0
LAYER
5
50
100
AcDbSymbolTableRecord
100
AcDbLayerTableRecord
2
0
70
0
6
CONTINUOUS
0
ENDTAB
0
TABLE
2
STYLE
5
3
100
AcDbSymbolTable
70
1
0
STYLE
5
11
100
AcDbSymbolTableRecord
100
AcDbTextStyleTableRecord
2
STANDARD
70
0
0
ENDTAB
0
TABLE
2
VIEW
5
6
100
AcDbSymbolTable
70
0
0
ENDTAB
0
TABLE
2
UCS
5
7
100
AcDbSymbolTable
70
0
0
ENDTAB
0
TABLE
2
APPID
5
9
100
AcDbSymbolTable
70
2
0
APPID
5
12
100
AcDbSymbolTableRecord
100
AcDbRegAppTableRecord
2
ACAD
70
0
0
ENDTAB
0
TABLE
2
DIMSTYLE
5
A
100
AcDbSymbolTable
70
1
0
ENDTAB
0
TABLE
2
BLOCK_RECORD
5
1
100
AcDbSymbolTable
70
1
0
BLOCK_RECORD
5
1F
100
AcDbSymbolTableRecord
100
AcDbBlockTableRecord
2
*MODEL_SPACE
0
BLOCK_RECORD
5
1B
100
AcDbSymbolTableRecord
100
AcDbBlockTableRecord
2
*PAPER_SPACE
0
ENDTAB
0
ENDSEC
0
SECTION
2
BLOCKS
0
BLOCK
5
20
100
AcDbEntity
100
AcDbBlockBegin
2
*MODEL_SPACE
0
ENDBLK
5
21
100
AcDbEntity
100
AcDbBlockEnd
0
BLOCK
5
1C
100
AcDbEntity
100
AcDbBlockBegin
2
*PAPER_SPACE
0
ENDBLK
5
1D
100
AcDbEntity
100
AcDbBlockEnd
0
ENDSEC
0
SECTION
2
ENTITIES
0
SPLINE
5
100
100
AcDbEntity
8
0
100
AcDbSpline
70
0
71
3
72
11
73
7
74
0
42
0.000000001
43
0.0000000001
44
0.0000000001
40
0.66312988618730107
40
0.66312988618730107
40
0.66312988618730107
40
0.66312988618730107
40
0.66332277886992719
40
0.66332277886992719
40
0.66332277886992719
40
0.7298137859130357
40
0.7298137859130357
40
0.7298137859130357
40
0.7298137859130357
10
-10.890275862456207
20
-16.911990256309402
30
0
10
-10.882465063491082
20
-16.914461118661528
30
0
10
-10.874654264525958
20
-16.916931981013725
30
0
10
-10.866843465560834
20
-16.919402843365923
30
0
10
-8.1737790223445472
20
-17.771324852172583
30
0
10
-5.3642344816482534
20
-18.539208516830072
30
0
10
-2.4326698947324132
20
-19.219758500094315
30
0
0
LINE
5
101
100
AcDbEntity
8
0
100
AcDbLine
10
-2.4326698947324132
20
-19.21975850009435
30
0
11
-2.4326698947332659
21
-22.82430086068544
31
0
0
ARC
5
102
100
AcDbEntity
8
0
100
AcDbCircle
10
-0.40766989473326021
20
-25.071521366109764
30
0
40
3.0249999999999289
210
0
220
0
230
1
100
AcDbArc
50
-227.97756937082806
51
47.977569370828547
0
LINE
5
103
100
AcDbEntity
8
0
100
AcDbLine
10
1.6173301052667455
20
-22.824300860685405
30
0
11
1.6173301052667455
21
-20.089170771617759
31
0
0
SPLINE
5
104
100
AcDbEntity
8
0
100
AcDbSpline
70
0
71
3
72
11
73
7
74
0
42
0.000000001
43
0.0000000001
44
0.0000000001
40
0.75986842050503223
40
0.75986842050503223
40
0.75986842050503223
40
0.75986842050503223
40
0.81215398135472983
40
0.81215398135472983
40
0.81215398135472983
40
0.81241408998787268
40
0.81241408998787268
40
0.81241408998787268
40
0.81241408998787268
10
1.6173301052667455
20
-20.089170771617759
30
0
10
4.0093179431973169
20
-20.562309225432038
30
0
10
6.4770440927698303
20
-20.981361807579901
30
0
10
9.0203230081162644
20
-21.346620029235197
30
0
10
9.0329731935386803
20
-21.348436811579887
30
0
10
9.0456233789610963
20
-21.350253593924577
30
0
10
9.0582735643833701
20
-21.352070376269232
30
0
0
SPLINE
5
105
100
AcDbEntity
8
0
100
AcDbSpline
70
0
71
3
72
20
73
16
74
0
42
0.000000001
43
0.0000000001
44
0.0000000001
40
-0.00036476904492877536
40
-0.00036476904492877536
40
-0.00036476904492877536
40
-0.00036476904492877536
40
0
40
0
40
0
40
0.24099810345260853
40
0.24099810345260853
40
0.24099810345260853
40
0.41695651548059137
40
0.41695651548059137
40
0.41695651548059137
40
0.55644080314694577
40
0.55644080314694577
40
0.55644080314694577
40
0.5569083862854427
40
0.5569083862854427
40
0.5569083862854427
40
0.5569083862854427
10
9.0582735643828016
20
-21.35207037626806
30
0
10
9.0548338559906938
20
-21.339761993134871
30
0
10
9.0513941475983017
20
-21.327453610001648
30
0
10
9.0479544392059097
20
-21.315145226868424
30
0
10
6.7758739158875869
20
-13.184910218445758
30
0
10
5.7093254498313684
20
-5.9221071168166617
30
0
10
5.845159344843438
20
0.50342154581883847
30
0
10
5.9443348824243003
20
5.1948519086306533
30
0
10
6.7003856560351949
20
9.4278338932121741
30
0
10
7.8257075507825391
20
13.479949139614646
30
0
10
8.7177633557600132
20
16.692108207045528
30
0
10
9.8228888335628994
20
19.80780833811604
30
0
10
10.883074832918567
20
23.063781042511522
30
0
10
10.886628387759174
20
23.074694483710942
30
0
10
10.890181942599781
20
23.085607924910363
30
0
10
10.893735497440389
20
23.096521366109855
30
0
0
LINE
5
106
100
AcDbEntity
8
0
100
AcDbLine
10
10.893735497440389
20
23.096521366109855
30
0
11
4.5414853504161101
21
23.096521366109748
31
0
0
LINE
5
107
100
AcDbEntity
8
0
100
AcDbLine
10
4.5414853504161101
20
23.096521366109748
30
0
11
4.5414853504161101
21
26.046521366109801
31
0
0
LINE
5
108
100
AcDbEntity
8
0
100
AcDbLine
10
4.5414853504161101
20
26.046521366109801
30
0
11
6.5414853504161385
21
26.046521366109801
31
0
0
LINE
5
109
100
AcDbEntity
8
0
100
AcDbLine
10
6.5414853504161385
20
26.046521366109801
30
0
11
6.5414853504161385
21
28.096521366109748
31
0
0
LINE
5
110
100
AcDbEntity
8
0
100
AcDbLine
10
6.5414853504161385
20
28.096521366109748
30
0
11
1.491485350416184
21
28.096521366109748
31
0
0
LINE
5
111
100
AcDbEntity
8
0
100
AcDbLine
10
1.491485350416184
20
28.096521366109748
30
0
11
1.491485350416184
21
23.096521366109748
31
0
0
LINE
5
112
100
AcDbEntity
8
0
100
AcDbLine
10
1.491485350416184
20
23.096521366109748
30
0
11
-3.4192244155181584
21
23.096521366109748
31
0
0
SPLINE
5
113
100
AcDbEntity
8
0
100
AcDbSpline
70
0
71
3
72
20
73
16
74
0
42
0.000000001
43
0.0000000001
44
0.0000000001
40
-0.00054870978378995252
40
-0.00054870978378995252
40
-0.00054870978378995252
40
-0.00054870978378995252
40
0
40
0
40
0
40
0.15686814881084035
40
0.15686814881084035
40
0.15686814881084035
40
0.29494062944979715
40
0.29494062944979715
40
0.29494062944979715
40
0.45952928703705181
40
0.45952928703705181
40
0.45952928703705181
40
0.45977077269399169
40
0.45977077269399169
40
0.45977077269399169
40
0.45977077269399169
10
-10.890275862456491
20
-16.911990256309153
30
0
10
-10.887938670613977
20
-16.904138423686916
30
0
10
-10.885601478771036
20
-16.896286591064467
30
0
10
-10.883264286928096
20
-16.888434758442052
30
0
10
-10.215409556280832
20
-14.644766324920475
30
0
10
-9.3997644798676561
20
-11.365745948006172
30
0
10
-8.4627015824260354
20
-7.1139630707667578
30
0
10
-7.6379159280703846
20
-3.3716214070897621
30
0
10
-6.7126096916490496
20
1.1474403670526101
30
0
10
-5.8365369069072415
20
5.9708331413355609
30
0
10
-4.7922184234404597
20
11.720536036955913
30
0
10
-3.8240492654604452
20
17.830681632930681
30
0
10
-3.420999034994594
20
23.073437650395832
30
0
10
-3.4204074951691155
20
23.081132222300447
30
0
10
-3.4198159553436369
20
23.08882679420508
30
0
10
-3.4192244155181584
20
23.096521366109712
30
0
0
ENDSEC
0
SECTION
2
OBJECTS
0
DICTIONARY
5
C
100
AcDbDictionary
3
ACAD_GROUP
350
D
3
ACAD_MLINESTYLE
350
17
0
DICTIONARY
5
D
100
AcDbDictionary
0
DICTIONARY
5
1A
330
C
100
AcDbDictionary
0
DICTIONARY
5
17
100
AcDbDictionary
0
ENDSEC
0
EOF
