0
SECTION
2
HEADER
9
$INSUNITS
70
4
9
$ACADVER
1
AC1014
9
$HANDSEED
5
FFFF
0
ENDSEC
0
SECTION
2
TABLES
0
TABLE
2
VPORT
5
8
100
AcDbSymbolTable
0
ENDTAB
0
TABLE
2
LTYPE
5
5
100
AcDbSymbolTable
0
LTYPE
5
14
100
AcDbSymbolTableRecord
100
AcDbLinetypeTableRecord
2
BYBLOCK
70
0
0
LTYPE
5
15
100
AcDbSymbolTableRecord
100
AcDbLinetypeTableRecord
2
BYLAYER
70
0
0
ENDTAB
0
TABLE
2
LAYER
5
2
100
AcDbSymbolTable
70
2
0
LAYER
5
50
100
AcDbSymbolTableRecord
100
AcDbLayerTableRecord
2
0
70
0
6
CONTINUOUS
0
ENDTAB
0
TABLE
2
STYLE
5
3
100
AcDbSymbolTable
70
1
0
STYLE
5
11
100
AcDbSymbolTableRecord
100
AcDbTextStyleTableRecord
2
STANDARD
70
0
0
ENDTAB
0
TABLE
2
VIEW
5
6
100
AcDbSymbolTable
70
0
0
ENDTAB
0
TABLE
2
UCS
5
7
100
AcDbSymbolTable
70
0
0
ENDTAB
0
TABLE
2
APPID
5
9
100
AcDbSymbolTable
70
2
0
APPID
5
12
100
AcDbSymbolTableRecord
100
AcDbRegAppTableRecord
2
ACAD
70
0
0
ENDTAB
0
TABLE
2
DIMSTYLE
5
A
100
AcDbSymbolTable
70
1
0
ENDTAB
0
TABLE
2
BLOCK_RECORD
5
1
100
AcDbSymbolTable
70
1
0
BLOCK_RECORD
5
1F
100
AcDbSymbolTableRecord
100
AcDbBlockTableRecord
2
*MODEL_SPACE
0
BLOCK_RECORD
5
1B
100
AcDbSymbolTableRecord
100
AcDbBlockTableRecord
2
*PAPER_SPACE
0
ENDTAB
0
ENDSEC
0
SECTION
2
BLOCKS
0
BLOCK
5
20
100
AcDbEntity
100
AcDbBlockBegin
2
*MODEL_SPACE
0
ENDBLK
5
21
100
AcDbEntity
100
AcDbBlockEnd
0
BLOCK
5
1C
100
AcDbEntity
100
AcDbBlockBegin
2
*PAPER_SPACE
0
ENDBLK
5
1D
100
AcDbEntity
100
AcDbBlockEnd
0
ENDSEC
0
SECTION
2
ENTITIES
0
LINE
5
100
100
AcDbEntity
8
0
100
AcDbLine
10
-1.7938962460934249
20
-20.625331586047572
30
0
11
-0.48714387054985764
21
-19.177955260066568
31
0
0
LINE
5
101
100
AcDbEntity
8
0
100
AcDbLine
10
-0.48714387054985764
20
-19.177955260066568
30
0
11
3.734546192174264
21
-22.989475055745721
31
0
0
LINE
5
102
100
AcDbEntity
8
0
100
AcDbLine
10
3.734546192174264
20
-22.989475055745721
30
0
11
2.4277938166306967
21
-24.436851381726754
31
0
0
LINE
5
103
100
AcDbEntity
8
0
100
AcDbLine
10
2.4277938166306967
20
-24.436851381726754
30
0
11
-1.7938962460934249
21
-20.625331586047572
31
0
0
LINE
5
104
100
AcDbEntity
8
0
100
AcDbLine
10
33.48615973561607
20
40.112036390195399
30
0
11
33.919762392315533
21
42.013217269570688
31
0
0
LINE
5
105
100
AcDbEntity
8
0
100
AcDbLine
10
33.919762392315533
20
42.013217269570688
30
0
11
41.670730592846326
21
40.245452592256726
31
0
0
LINE
5
106
100
AcDbEntity
8
0
100
AcDbLine
10
41.670730592846326
20
40.24545259225674
30
0
11
41.237127936146862
21
38.344271712881415
31
0
0
LINE
5
107
100
AcDbEntity
8
0
100
AcDbLine
10
41.237127936146862
20
38.344271712881408
30
0
11
33.48615973561607
21
40.112036390195399
31
0
0
ARC
5
108
100
AcDbEntity
8
0
100
AcDbCircle
10
-35.935500305104711
20
-49.167343873872497
30
0
40
4.0061288741491241
210
0
220
0
230
1
100
AcDbArc
50
-126.74880478837402
51
174.17599456105242
0
LINE
5
109
100
AcDbEntity
8
0
100
AcDbLine
10
-38.33239880277219
20
-52.377319909323646
30
0
11
-42.946434710543997
21
-54.404045962270189
31
0
0
LINE
5
110
100
AcDbEntity
8
0
100
AcDbLine
10
-42.946434710543997
20
-54.404045962270189
30
0
11
-40.513348031589658
21
-59.943200742017133
31
0
0
ARC
5
111
100
AcDbEntity
8
0
100
AcDbCircle
10
-101.86229716478664
20
80.348950572667633
30
0
40
153.11950000000002
210
-0
220
0
230
1
100
AcDbArc
50
293.61948161288421
51
294.38658654726669
0
LINE
5
112
100
AcDbEntity
8
0
100
AcDbLine
10
-38.640600104608325
20
-59.109280812507563
30
0
11
-39.842918619919772
21
-56.372087596798778
31
0
0
LINE
5
113
100
AcDbEntity
8
0
100
AcDbLine
10
-39.842918619919772
20
-56.372087596798778
30
0
11
-38.057562589292218
21
-55.587865788953053
31
0
0
LINE
5
114
100
AcDbEntity
8
0
100
AcDbLine
10
-38.057562589292218
20
-55.587865788953053
30
0
11
-36.869451479739013
21
-58.292714485169896
31
0
0
ARC
5
115
100
AcDbEntity
8
0
100
AcDbCircle
10
-101.86229716478664
20
80.348950572667633
30
0
40
153.11950000000007
210
-0
220
0
230
1
100
AcDbArc
50
295.11638163452227
51
313.1447925263563
0
LINE
5
116
100
AcDbEntity
8
0
100
AcDbLine
10
2.8476137481777641
20
-31.371306484184359
30
0
11
13.695083535852177
21
-19.616121730836173
31
0
0
ARC
5
117
100
AcDbEntity
8
0
100
AcDbCircle
10
-102.42289716478666
20
80.910550572667603
30
0
40
153.58709999999991
210
-0
220
0
230
1
100
AcDbArc
50
319.11631991260771
51
346.57169833513984
0
LINE
5
118
100
AcDbEntity
8
0
100
AcDbLine
10
46.965329031869203
20
45.243266400379547
30
0
11
41.114829750923718
21
46.57759079778819
31
0
0
LINE
5
119
100
AcDbEntity
8
0
100
AcDbLine
10
41.114829750923718
20
46.57759079778819
30
0
11
42.21785306709819
21
51.413923799477047
31
0
0
ARC
5
120
100
AcDbEntity
8
0
100
AcDbCircle
10
41.025030384151364
20
55.290695070877064
30
0
40
4.0561288741489667
210
-0
220
0
230
1
100
AcDbArc
50
-72.897676278502615
51
227.20226656106115
0
LINE
5
121
100
AcDbEntity
8
0
100
AcDbLine
10
38.26924662531809
20
52.314483163392026
30
0
11
37.166223309143902
21
47.478150161702935
31
0
0
LINE
5
122
100
AcDbEntity
8
0
100
AcDbLine
10
37.166223309143902
20
47.478150161702935
30
0
11
31.316250735100368
21
48.812354432975994
31
0
0
ARC
5
123
100
AcDbEntity
8
0
100
AcDbCircle
10
-102.42289716478666
20
80.910550572667603
30
0
40
137.53709999999995
210
-0
220
0
230
1
100
AcDbArc
50
316.17088075143118
51
346.50394239351522
0
LINE
5
124
100
AcDbEntity
8
0
100
AcDbLine
10
-3.2024821471947007
20
-14.335253115194639
30
0
11
-8.0439424020610772
21
-19.581846181212814
31
0
0
ARC
5
125
100
AcDbEntity
8
0
100
AcDbCircle
10
-101.86229716478664
20
80.348950572667633
30
0
40
137.06950000000003
210
-0
220
0
230
1
100
AcDbArc
50
295.28067820372797
51
313.19301913871374
0
LINE
5
126
100
AcDbEntity
8
0
100
AcDbLine
10
-43.326361974981609
20
-43.592939527915163
30
0
11
-42.099321137420702
21
-46.386415477255873
31
0
0
LINE
5
127
100
AcDbEntity
8
0
100
AcDbLine
10
-42.099321137420702
20
-46.386415477255873
30
0
11
-43.884677168048256
21
-47.170637285101613
31
0
0
LINE
5
128
100
AcDbEntity
8
0
100
AcDbLine
10
-43.884677168048256
20
-47.170637285101613
30
0
11
-45.095846273987661
21
-44.413294852430823
31
0
0
ARC
5
129
100
AcDbEntity
8
0
100
AcDbCircle
10
-101.86229716478664
20
80.348950572667633
30
0
40
137.06950000000003
210
-0
220
0
230
1
100
AcDbArc
50
293.60846151253065
51
294.46539403984445
0
LINE
5
130
100
AcDbEntity
8
0
100
AcDbLine
10
-46.968106485090573
20
-45.248325113834298
30
0
11
-44.534986577718882
21
-50.787555541255038
31
0
0
LINE
5
131
100
AcDbEntity
8
0
100
AcDbLine
10
-44.534986577718882
20
-50.787555541255038
30
0
11
-39.920950669946933
21
-48.760829488308552
31
0
0
ENDSEC
0
SECTION
2
OBJECTS
0
DICTIONARY
5
C
100
AcDbDictionary
3
ACAD_GROUP
350
D
3
ACAD_MLINESTYLE
350
17
0
DICTIONARY
5
D
100
AcDbDictionary
0
DICTIONARY
5
1A
330
C
100
AcDbDictionary
0
DICTIONARY
5
17
100
AcDbDictionary
0
ENDSEC
0
EOF
