0
SECTION
2
HEADER
9
$INSUNITS
70
4
9
$ACADVER
1
AC1014
9
$HANDSEED
5
FFFF
0
ENDSEC
0
SECTION
2
TABLES
0
TABLE
2
VPORT
5
8
100
AcDbSymbolTable
0
ENDTAB
0
TABLE
2
LTYPE
5
5
100
AcDbSymbolTable
0
LTYPE
5
14
100
AcDbSymbolTableRecord
100
AcDbLinetypeTableRecord
2
BYBLOCK
70
0
0
LTYPE
5
15
100
AcDbSymbolTableRecord
100
AcDbLinetypeTableRecord
2
BYLAYER
70
0
0
ENDTAB
0
TABLE
2
LAYER
5
2
100
AcDbSymbolTable
70
2
0
LAYER
5
50
100
AcDbSymbolTableRecord
100
AcDbLayerTableRecord
2
0
70
0
6
CONTINUOUS
0
ENDTAB
0
TABLE
2
STYLE
5
3
100
AcDbSymbolTable
70
1
0
STYLE
5
11
100
AcDbSymbolTableRecord
100
AcDbTextStyleTableRecord
2
STANDARD
70
0
0
ENDTAB
0
TABLE
2
VIEW
5
6
100
AcDbSymbolTable
70
0
0
ENDTAB
0
TABLE
2
UCS
5
7
100
AcDbSymbolTable
70
0
0
ENDTAB
0
TABLE
2
APPID
5
9
100
AcDbSymbolTable
70
2
0
APPID
5
12
100
AcDbSymbolTableRecord
100
AcDbRegAppTableRecord
2
ACAD
70
0
0
ENDTAB
0
TABLE
2
DIMSTYLE
5
A
100
AcDbSymbolTable
70
1
0
ENDTAB
0
TABLE
2
BLOCK_RECORD
5
1
100
AcDbSymbolTable
70
1
0
BLOCK_RECORD
5
1F
100
AcDbSymbolTableRecord
100
AcDbBlockTableRecord
2
*MODEL_SPACE
0
BLOCK_RECORD
5
1B
100
AcDbSymbolTableRecord
100
AcDbBlockTableRecord
2
*PAPER_SPACE
0
ENDTAB
0
ENDSEC
0
SECTION
2
BLOCKS
0
BLOCK
5
20
100
AcDbEntity
100
AcDbBlockBegin
2
*MODEL_SPACE
0
ENDBLK
5
21
100
AcDbEntity
100
AcDbBlockEnd
0
BLOCK
5
1C
100
AcDbEntity
100
AcDbBlockBegin
2
*PAPER_SPACE
0
ENDBLK
5
1D
100
AcDbEntity
100
AcDbBlockEnd
0
ENDSEC
0
SECTION
2
ENTITIES
0
LINE
5
100
100
AcDbEntity
8
0
100
AcDbLine
10
-10.024999999999986
20
-16.252659304447832
30
0
11
-10.025000000000004
21
-16.269688302880603
31
0
0
LINE
5
101
100
AcDbEntity
8
0
100
AcDbLine
10
-10.025000000000004
20
-16.269688302880603
30
0
11
-12.025000000000006
21
-16.269688302880603
31
0
0
LINE
5
102
100
AcDbEntity
8
0
100
AcDbLine
10
-12.025000000000006
20
-16.269688302880603
30
0
11
-12.025000000000006
21
-20.298924816290942
31
0
0
LINE
5
103
100
AcDbEntity
8
0
100
AcDbLine
10
-12.025000000000006
20
-20.298924816290942
30
0
11
-10.025000000000004
21
-20.298924816290942
31
0
0
LINE
5
104
100
AcDbEntity
8
0
100
AcDbLine
10
-10.025000000000004
20
-20.298924816290942
30
0
11
-10.025000000000004
21
-28.269054691657516
31
0
0
LINE
5
105
100
AcDbEntity
8
0
100
AcDbLine
10
-10.025000000000004
20
-28.269054691657516
30
0
11
-12.025000000000006
21
-28.269054691657516
31
0
0
LINE
5
106
100
AcDbEntity
8
0
100
AcDbLine
10
-12.025000000000006
20
-28.269054691657516
30
0
11
-12.025000000000006
21
-33.648229213298677
31
0
0
LINE
5
107
100
AcDbEntity
8
0
100
AcDbLine
10
-12.025000000000006
20
-33.648229213298677
30
0
11
-9.9867524591482759
21
-33.648229213298713
31
0
0
SPLINE
5
108
100
AcDbEntity
8
0
100
AcDbSpline
70
0
71
3
72
17
73
13
74
0
42
0.000000001
43
0.0000000001
44
0.0000000001
40
-0.00049834246409981449
40
-0.00049834246409981449
40
-0.00049834246409981449
40
-0.00049834246409981449
40
0
40
0
40
0
40
0.55787127327057273
40
0.55787127327057273
40
0.55787127327057273
40
1
40
1
40
1
40
1.0008615990640093
40
1.0008615990640093
40
1.0008615990640093
40
1.0008615990640093
10
-9.986752459148116
20
-33.648229213298464
30
0
10
-9.984272831970431
20
-33.644575290290284
30
0
10
-9.9817932047927513
20
-33.640921367282068
30
0
10
-9.9793135776150699
20
-33.637267444273874
30
0
10
-7.2050885570404821
20
-29.549231660564157
30
0
10
-3.9923516264808567
20
-26.264287950151264
30
0
10
-0.15459126415438451
20
-24.121608768271781
30
0
10
2.8869421213890467
20
-22.423475052011117
30
0
10
6.3047917708997891
20
-21.410563479947342
30
0
10
10.003362519262044
20
-20.908541233965554
30
0
10
10.010575012841354
20
-20.907562252496188
30
0
10
10.01778750642066
20
-20.906583271026822
30
0
10
10.024999999999986
20
-20.905604289557456
30
0
0
LINE
5
109
100
AcDbEntity
8
0
100
AcDbLine
10
10.024999999999988
20
-20.905604289557456
30
0
11
10.025000000000004
21
-12.580424933350152
31
0
0
LINE
5
110
100
AcDbEntity
8
0
100
AcDbLine
10
10.025000000000004
20
-12.580424933350152
30
0
11
12.024999999999997
21
-12.580424933350152
31
0
0
LINE
5
111
100
AcDbEntity
8
0
100
AcDbLine
10
12.024999999999997
20
-12.580424933350152
30
0
11
12.024999999999997
21
-8.5100838542425628
31
0
0
LINE
5
112
100
AcDbEntity
8
0
100
AcDbLine
10
12.024999999999997
20
-8.5100838542425716
30
0
11
10.025000000000004
21
-8.5100838542425716
31
0
0
LINE
5
113
100
AcDbEntity
8
0
100
AcDbLine
10
10.025000000000004
20
-8.5100838542425716
30
0
11
10.025000000000004
21
9.9298609610773259
31
0
0
LINE
5
114
100
AcDbEntity
8
0
100
AcDbLine
10
10.025000000000004
20
9.9298609610773259
30
0
11
12.025000000000006
21
9.9298609610773347
31
0
0
LINE
5
115
100
AcDbEntity
8
0
100
AcDbLine
10
12.025000000000006
20
9.9298609610773347
30
0
11
12.025000000000006
21
16.000096438314408
31
0
0
LINE
5
116
100
AcDbEntity
8
0
100
AcDbLine
10
12.025000000000006
20
16.000096438314408
30
0
11
10.025000000000004
21
16.000096438314408
31
0
0
LINE
5
117
100
AcDbEntity
8
0
100
AcDbLine
10
10.025000000000004
20
16.000096438314408
30
0
11
10.025000000000009
21
21.514748015250198
31
0
0
SPLINE
5
118
100
AcDbEntity
8
0
100
AcDbSpline
70
0
71
3
72
17
73
13
74
0
42
0.000000001
43
0.0000000001
44
0.0000000001
40
-1.0007720291094409
40
-1.0007720291094409
40
-1.0007720291094409
40
-1.0007720291094409
40
-1
40
-1
40
-1
40
-0.45350283495230315
40
-0.45350283495230315
40
-0.45350283495230315
40
0
40
0
40
0
40
0.0039220549229289272
40
0.0039220549229289272
40
0.0039220549229289272
40
0.0039220549229289272
10
10.025000000000173
20
21.514748015250163
30
0
10
10.017825574781467
20
21.51575554568085
30
0
10
10.010651149562753
20
21.516763076111538
30
0
10
10.003476724344033
20
21.517770606542221
30
0
10
4.9274397787243451
20
22.230616797574349
30
0
10
0.49162376480283765
20
23.609358965977592
30
0
10
-3.0069172749854545
20
25.962722248170191
30
0
10
-5.9101313833376778
20
27.915627017683224
30
0
10
-8.1820658900862178
20
30.527029974210574
30
0
10
-9.9783538139581438
20
33.635736916119022
30
0
10
-9.9939025426387662
20
33.6626459879582
30
0
10
-10.009451271319394
20
33.689555059797385
30
0
10
-10.025000000000013
20
33.716464131636556
30
0
0
LINE
5
119
100
AcDbEntity
8
0
100
AcDbLine
10
-10.025000000000013
20
33.716464131636556
30
0
11
-10.025000000000013
21
33.627676930450093
31
0
0
LINE
5
120
100
AcDbEntity
8
0
100
AcDbLine
10
-10.025000000000013
20
33.627676930450093
30
0
11
-12.025000000000006
21
33.627676930450093
31
0
0
LINE
5
121
100
AcDbEntity
8
0
100
AcDbLine
10
-12.025000000000006
20
33.627676930450093
30
0
11
-12.025000000000006
21
29.790725178431771
31
0
0
LINE
5
122
100
AcDbEntity
8
0
100
AcDbLine
10
-12.025000000000006
20
29.790725178431771
30
0
11
-10.025000000000004
21
29.790725178431778
31
0
0
LINE
5
123
100
AcDbEntity
8
0
100
AcDbLine
10
-10.025000000000004
20
29.790725178431778
30
0
11
-10.025000000000004
21
20.840725178431786
31
0
0
LINE
5
124
100
AcDbEntity
8
0
100
AcDbLine
10
-10.025000000000004
20
20.840725178431782
30
0
11
-12.025000000000006
21
20.840725178431789
31
0
0
LINE
5
125
100
AcDbEntity
8
0
100
AcDbLine
10
-12.025000000000006
20
20.840725178431789
30
0
11
-12.025000000000006
21
17.578521745414193
31
0
0
LINE
5
126
100
AcDbEntity
8
0
100
AcDbLine
10
-12.025000000000006
20
17.578521745414193
30
0
11
-10.00257848125166
21
17.578521745414193
31
0
0
SPLINE
5
127
100
AcDbEntity
8
0
100
AcDbSpline
70
0
71
3
72
8
73
4
74
0
42
0.000000001
43
0.0000000001
44
0.0000000001
40
-0.99983366043398358
40
-0.99983366043398358
40
-0.99983366043398358
40
-0.99983366043398358
40
-0.7409412268434683
40
-0.7409412268434683
40
-0.7409412268434683
40
-0.7409412268434683
10
-10.00257848125166
20
17.578521745414193
30
0
10
-8.6938824915277646
20
17.305578162402576
30
0
10
-7.5047903807798599
20
16.928181094819685
30
0
10
-6.453741457561466
20
16.430703948273148
30
0
0
SPLINE
5
128
100
AcDbEntity
8
0
100
AcDbSpline
70
0
71
3
72
11
73
7
74
0
42
0.000000001
43
0.0000000001
44
0.0000000001
40
-0.74094122684346164
40
-0.74094122684346164
40
-0.74094122684346164
40
-0.74094122684346164
40
-0.31227562138931625
40
-0.31227562138931625
40
-0.31227562138931625
40
-0.27537280803128644
40
-0.27537280803128644
40
-0.27537280803128644
40
-0.27537280803128644
10
-6.4537414575613861
20
16.430703948273113
30
0
10
-4.7134491022198555
20
15.606997595536454
30
0
10
-3.3846096847400364
20
14.42637480734108
30
0
10
-2.4956166049743089
20
12.858061496341051
30
0
10
-2.4190852824661313
20
12.723049093511509
30
0
10
-2.3455753308952598
20
12.585372090271729
30
0
10
-2.2749999999991344
20
12.445105770943163
30
0
0
LINE
5
129
100
AcDbEntity
8
0
100
AcDbLine
10
-2.2749999999991299
20
12.445105770943163
30
0
11
-2.2749999999991255
21
4.884582310340102
31
0
0
LINE
5
130
100
AcDbEntity
8
0
100
AcDbLine
10
-2.2749999999991255
20
4.884582310340102
30
0
11
-1.4750000000008967
21
4.8790178222914271
31
0
0
LINE
5
131
100
AcDbEntity
8
0
100
AcDbLine
10
-1.4750000000008967
20
4.8790178222914271
30
0
11
-1.4750000000000796
21
4.8997446001406253
31
0
0
LINE
5
132
100
AcDbEntity
8
0
100
AcDbLine
10
-1.4750000000000796
20
4.8997446001406253
30
0
11
-0.27500000000090452
21
4.8997446001406253
31
0
0
LINE
5
133
100
AcDbEntity
8
0
100
AcDbLine
10
-0.27500000000090452
20
4.8997446001406253
30
0
11
-0.27500000000090452
21
-3.0703852752259309
31
0
0
LINE
5
134
100
AcDbEntity
8
0
100
AcDbLine
10
-0.27500000000090452
20
-3.0703852752259309
30
0
11
-2.2749999999991255
21
-3.0703852752259309
31
0
0
LINE
5
135
100
AcDbEntity
8
0
100
AcDbLine
10
-2.2749999999991255
20
-3.0703852752259309
30
0
11
-2.2749999999991255
21
-9.2514207167481288
31
0
0
SPLINE
5
136
100
AcDbEntity
8
0
100
AcDbSpline
70
0
71
3
72
14
73
10
74
0
42
0.000000001
43
0.0000000001
44
0.0000000001
40
-0.85736001912763893
40
-0.85736001912763893
40
-0.85736001912763893
40
-0.85736001912763893
40
-0.35539434053398677
40
-0.35539434053398677
40
-0.35539434053398677
40
0
40
0
40
0
40
0.0017181835240703631
40
0.0017181835240703631
40
0.0017181835240703631
40
0.0017181835240703631
10
-2.2749999999991388
20
-9.2514207167481288
30
0
10
-3.2317346836458327
20
-11.668949096216004
30
0
10
-4.467868648529425
20
-13.551689551633288
30
0
10
-6.0823465638215835
20
-14.713033573213181
30
0
10
-7.225405419198867
20
-15.535271248583395
30
0
10
-8.5432271856999886
20
-16.026701739915197
30
0
10
-10.003768717868509
20
-16.249421717176649
30
0
10
-10.010845811912343
20
-16.25050091293371
30
0
10
-10.017922905956178
20
-16.251580108690771
30
0
10
-10.024999999999995
20
-16.252659304447814
30
0
0
ENDSEC
0
SECTION
2
OBJECTS
0
DICTIONARY
5
C
100
AcDbDictionary
3
ACAD_GROUP
350
D
3
ACAD_MLINESTYLE
350
17
0
DICTIONARY
5
D
100
AcDbDictionary
0
DICTIONARY
5
1A
330
C
100
AcDbDictionary
0
DICTIONARY
5
17
100
AcDbDictionary
0
ENDSEC
0
EOF
