0
SECTION
2
HEADER
9
$INSUNITS
70
4
9
$ACADVER
1
AC1014
9
$HANDSEED
5
FFFF
0
ENDSEC
0
SECTION
2
TABLES
0
TABLE
2
VPORT
5
8
100
AcDbSymbolTable
0
ENDTAB
0
TABLE
2
LTYPE
5
5
100
AcDbSymbolTable
0
LTYPE
5
14
100
AcDbSymbolTableRecord
100
AcDbLinetypeTableRecord
2
BYBLOCK
70
0
0
LTYPE
5
15
100
AcDbSymbolTableRecord
100
AcDbLinetypeTableRecord
2
BYLAYER
70
0
0
ENDTAB
0
TABLE
2
LAYER
5
2
100
AcDbSymbolTable
70
2
0
LAYER
5
50
100
AcDbSymbolTableRecord
100
AcDbLayerTableRecord
2
0
70
0
6
CONTINUOUS
0
ENDTAB
0
TABLE
2
STYLE
5
3
100
AcDbSymbolTable
70
1
0
STYLE
5
11
100
AcDbSymbolTableRecord
100
AcDbTextStyleTableRecord
2
STANDARD
70
0
0
ENDTAB
0
TABLE
2
VIEW
5
6
100
AcDbSymbolTable
70
0
0
ENDTAB
0
TABLE
2
UCS
5
7
100
AcDbSymbolTable
70
0
0
ENDTAB
0
TABLE
2
APPID
5
9
100
AcDbSymbolTable
70
2
0
APPID
5
12
100
AcDbSymbolTableRecord
100
AcDbRegAppTableRecord
2
ACAD
70
0
0
ENDTAB
0
TABLE
2
DIMSTYLE
5
A
100
AcDbSymbolTable
70
1
0
ENDTAB
0
TABLE
2
BLOCK_RECORD
5
1
100
AcDbSymbolTable
70
1
0
BLOCK_RECORD
5
1F
100
AcDbSymbolTableRecord
100
AcDbBlockTableRecord
2
*MODEL_SPACE
0
BLOCK_RECORD
5
1B
100
AcDbSymbolTableRecord
100
AcDbBlockTableRecord
2
*PAPER_SPACE
0
ENDTAB
0
ENDSEC
0
SECTION
2
BLOCKS
0
BLOCK
5
20
100
AcDbEntity
100
AcDbBlockBegin
2
*MODEL_SPACE
0
ENDBLK
5
21
100
AcDbEntity
100
AcDbBlockEnd
0
BLOCK
5
1C
100
AcDbEntity
100
AcDbBlockBegin
2
*PAPER_SPACE
0
ENDBLK
5
1D
100
AcDbEntity
100
AcDbBlockEnd
0
ENDSEC
0
SECTION
2
ENTITIES
0
LINE
5
100
100
AcDbEntity
8
0
100
AcDbLine
10
-12.025000000000006
20
20.924999999999976
30
0
11
-10.025000000000004
21
20.924999999999976
31
0
0
LINE
5
101
100
AcDbEntity
8
0
100
AcDbLine
10
-10.025000000000004
20
20.924999999999976
30
0
11
-10.024999999999986
21
16.928523455371671
31
0
0
SPLINE
5
102
100
AcDbEntity
8
0
100
AcDbSpline
70
0
71
3
72
17
73
13
74
0
42
0.000000001
43
0.0000000001
44
0.0000000001
40
-0.0017181677854030105
40
-0.0017181677854030105
40
-0.0017181677854030105
40
-0.0017181677854030105
40
0
40
0
40
0
40
0.5950808869529467
40
0.5950808869529467
40
0.5950808869529467
40
0.99195762316605651
40
0.99195762316605651
40
0.99195762316605651
40
0.99274722294307638
40
0.99274722294307638
40
0.99274722294307638
40
0.99274722294307638
10
-10.024999999999737
20
16.9285234553716
30
0
10
-10.017922970782545
20
16.927444212515024
30
0
10
-10.010845941565334
20
16.92636496965843
30
0
10
-10.003768912348123
20
16.925285726801853
30
0
10
-7.5582030874090123
20
16.552338354978176
30
0
10
-5.5255893027927705
20
15.404227852490937
30
0
10
-4.0144384118792287
20
13.258667252671916
30
0
10
-3.0066079695637082
20
11.827730539910473
30
0
10
-2.2071264098729459
20
9.9977366114075306
30
0
10
-1.5629196321029193
20
7.8724384184608009
30
0
10
-1.5616368971451466
20
7.8682065562981318
30
0
10
-1.5603541621873784
20
7.8639746941354716
30
0
10
-1.5590714272296013
20
7.8597428319728113
30
0
0
ARC
5
103
100
AcDbEntity
8
0
100
AcDbCircle
10
-11.951345921712466
20
-25.666681113381458
30
0
40
35.100149169658877
210
0
220
-0
230
1
100
AcDbArc
50
72.050015046747191
51
72.777993440306005
0
LINE
5
104
100
AcDbEntity
8
0
100
AcDbLine
10
-1.1339477061271186
20
7.7249999999999908
30
0
11
0.47499999999964793
21
7.7249999999999819
31
0
0
LINE
5
105
100
AcDbEntity
8
0
100
AcDbLine
10
0.47499999999964793
20
7.7249999999999819
30
0
11
0.47499999999999876
21
3.7749999999999506
31
0
0
LINE
5
106
100
AcDbEntity
8
0
100
AcDbLine
10
0.47499999999999876
20
3.7749999999999506
30
0
11
-1.524999999999137
21
3.7749999999999506
31
0
0
LINE
5
107
100
AcDbEntity
8
0
100
AcDbLine
10
-1.524999999999137
20
3.7749999999999506
30
0
11
-1.5249999999999142
21
-4.2750000000000554
31
0
0
LINE
5
108
100
AcDbEntity
8
0
100
AcDbLine
10
-1.5249999999999142
20
-4.2750000000000554
30
0
11
0.47499999999998987
21
-4.2750000000000554
31
0
0
LINE
5
109
100
AcDbEntity
8
0
100
AcDbLine
10
0.47499999999998987
20
-4.2750000000000554
30
0
11
0.4749999999981247
21
-8.225000000000291
31
0
0
LINE
5
110
100
AcDbEntity
8
0
100
AcDbLine
10
0.4749999999981247
20
-8.225000000000291
30
0
11
-1.151029332073632
21
-8.2250000000001489
31
0
0
SPLINE
5
111
100
AcDbEntity
8
0
100
AcDbSpline
70
0
71
3
72
11
73
7
74
0
42
0.000000001
43
0.0000000001
44
0.0000000001
40
-0.0014492523319643673
40
-0.0014492523319643673
40
-0.0014492523319643673
40
-0.0014492523319643673
40
0
40
0
40
0
40
0.11750168983820294
40
0.11750168983820294
40
0.11750168983820294
40
0.11750168983820294
10
-1.1510293320736054
20
-8.2250000000000245
30
0
10
-1.1522297799225356
20
-8.23190622209097
30
0
10
-1.1534302277714659
20
-8.2388124441818977
30
0
10
-1.1546306756203961
20
-8.2457186662728343
30
0
10
-1.2518124800168273
20
-8.8048092797947941
30
0
10
-1.3746644116662798
20
-9.341309998545011
30
0
10
-1.524004124830447
20
-9.8544577361879426
30
0
0
SPLINE
5
112
100
AcDbEntity
8
0
100
AcDbSpline
70
0
71
3
72
14
73
10
74
0
42
0.000000001
43
0.0000000001
44
0.0000000001
40
0.11750168983820433
40
0.11750168983820433
40
0.11750168983820433
40
0.11750168983820433
40
0.60584692165235809
40
0.60584692165235809
40
0.60584692165235809
40
1
40
1
40
1
40
1.0013104046227692
40
1.0013104046227692
40
1.0013104046227692
40
1.0013104046227692
10
-1.5240041248304559
20
-9.8544577361879604
30
0
10
-2.1446704058400234
20
-11.987135583112556
30
0
10
-3.2371804503556811
20
-13.701906454893962
30
0
10
-4.9274985162395035
20
-14.894664747989621
30
0
10
-6.2917876003771944
20
-15.857363515830256
30
0
10
-8.0124305347443769
20
-16.510168897806345
30
0
10
-10.005101414869362
20
-16.925526022670354
30
0
10
-10.011734276579585
20
-16.926908592364658
30
0
10
-10.018367138289808
20
-16.928291162058954
30
0
10
-10.025000000000075
20
-16.929673731753248
30
0
0
LINE
5
113
100
AcDbEntity
8
0
100
AcDbLine
10
-10.025000000000075
20
-16.929673731753248
30
0
11
-10.024999999999995
21
-20.137373049318946
31
0
0
LINE
5
114
100
AcDbEntity
8
0
100
AcDbLine
10
-10.024999999999995
20
-20.137373049318946
30
0
11
-12.025000000000006
21
-20.137373049318946
31
0
0
LINE
5
115
100
AcDbEntity
8
0
100
AcDbLine
10
-12.025000000000006
20
-20.137373049318946
30
0
11
-12.025000000000006
21
-28.187795479105688
31
0
0
LINE
5
116
100
AcDbEntity
8
0
100
AcDbLine
10
-12.025000000000006
20
-28.187795479105688
30
0
11
-10.025000000000004
21
-28.187795479105688
31
0
0
LINE
5
117
100
AcDbEntity
8
0
100
AcDbLine
10
-10.025000000000004
20
-28.187795479105688
30
0
11
-10.025000000000022
21
-33.043239181048392
31
0
0
SPLINE
5
118
100
AcDbEntity
8
0
100
AcDbSpline
70
0
71
3
72
17
73
13
74
0
42
0.000000001
43
0.0000000001
44
0.0000000001
40
-0.003922078977231961
40
-0.003922078977231961
40
-0.003922078977231961
40
-0.003922078977231961
40
0
40
0
40
0
40
0.54649346526813469
40
0.54649346526813469
40
0.54649346526813469
40
1
40
1
40
1
40
1.0007720226517347
40
1.0007720226517347
40
1.0007720226517347
40
1.0007720226517347
10
-10.025000000000022
20
-33.043239181048449
30
0
10
-10.009451175957711
20
-33.016328523265699
30
0
10
-9.9939023519153771
20
-32.989417865482949
30
0
10
-9.9783535278730451
20
-32.962507207700199
30
0
10
-7.8137371375471965
20
-29.216162741237113
30
0
10
-4.9498895206724125
20
-26.201431289611612
30
0
10
-1.1417905232843761
20
-24.170168387352547
30
0
10
2.0183529916504162
20
-22.48452883541221
30
0
10
5.7911661816612447
20
-21.435482083243329
30
0
10
10.003476904377205
20
-20.843900847407568
30
0
10
10.010651269584802
20
-20.84289327220354
30
0
10
10.017825634792402
20
-20.841885696999523
30
0
10
10.024999999999961
20
-20.840878121795498
30
0
0
LINE
5
119
100
AcDbEntity
8
0
100
AcDbLine
10
10.024999999999963
20
-20.840878121795487
30
0
11
10.025000000000004
21
-15.325935337895116
31
0
0
LINE
5
120
100
AcDbEntity
8
0
100
AcDbLine
10
10.025000000000004
20
-15.325935337895116
30
0
11
12.025000000000004
21
-15.325935337895116
31
0
0
LINE
5
121
100
AcDbEntity
8
0
100
AcDbLine
10
12.025000000000004
20
-15.325935337895116
30
0
11
12.025000000000004
21
-9.2759353378951115
31
0
0
LINE
5
122
100
AcDbEntity
8
0
100
AcDbLine
10
12.025000000000004
20
-9.2759353378951115
30
0
11
10.025000000000004
21
-9.2759353378951115
31
0
0
LINE
5
123
100
AcDbEntity
8
0
100
AcDbLine
10
10.025000000000004
20
-9.2759353378951115
30
0
11
10.025000000000004
21
9.185539183441076
31
0
0
LINE
5
124
100
AcDbEntity
8
0
100
AcDbLine
10
10.025000000000004
20
9.185539183441076
30
0
11
12.024999999999997
21
9.185539183441076
31
0
0
LINE
5
125
100
AcDbEntity
8
0
100
AcDbLine
10
12.024999999999997
20
9.185539183441076
30
0
11
12.025000000000004
21
13.235539183441105
31
0
0
LINE
5
126
100
AcDbEntity
8
0
100
AcDbLine
10
12.025000000000004
20
13.235539183441105
30
0
11
10.025000000000004
21
13.235539183441105
31
0
0
LINE
5
127
100
AcDbEntity
8
0
100
AcDbLine
10
10.025000000000004
20
13.235539183441105
30
0
11
10.025000000000009
21
20.232375076258702
31
0
0
SPLINE
5
128
100
AcDbEntity
8
0
100
AcDbSpline
70
0
71
3
72
17
73
13
74
0
42
0.000000001
43
0.0000000001
44
0.0000000001
40
-1.0008615990640151
40
-1.0008615990640151
40
-1.0008615990640151
40
-1.0008615990640151
40
-1
40
-1
40
-1
40
-0.44212872673059167
40
-0.44212872673059167
40
-0.44212872673059167
40
0
40
0
40
0
40
0.0030606058459246061
40
0.0030606058459246061
40
0.0030606058459246061
40
0.0030606058459246061
10
10.02500000000008
20
20.232375076258666
30
0
10
10.01778750642076
20
20.23335405772805
30
0
10
10.0105750128414
20
20.234333039197434
30
0
10
10.003362519262037
20
20.235312020666818
30
0
10
5.3365624496783548
20
20.868756021573862
30
0
10
1.12227144541591
20
22.324803057101832
30
0
10
-2.4653154078873563
20
24.924295513519876
30
0
10
-5.3085792278553434
20
26.984466640752061
30
0
10
-7.7806619624853957
20
29.724154511413214
30
0
10
-9.979313577615061
20
32.96403823097512
30
0
10
-9.9945423850767021
20
32.986479060174148
30
0
10
-10.009771192538341
20
33.008919889373175
30
0
10
-10.024999999999977
20
33.03136071857223
30
0
0
LINE
5
129
100
AcDbEntity
8
0
100
AcDbLine
10
-10.024999999999977
20
33.03136071857223
30
0
11
-10.025000000000004
21
28.974999999999973
31
0
0
LINE
5
130
100
AcDbEntity
8
0
100
AcDbLine
10
-10.025000000000004
20
28.974999999999973
30
0
11
-12.025000000000006
21
28.974999999999973
31
0
0
LINE
5
131
100
AcDbEntity
8
0
100
AcDbLine
10
-12.025000000000006
20
28.974999999999973
30
0
11
-12.025000000000006
21
20.924999999999976
31
0
0
ENDSEC
0
SECTION
2
OBJECTS
0
DICTIONARY
5
C
100
AcDbDictionary
3
ACAD_GROUP
350
D
3
ACAD_MLINESTYLE
350
17
0
DICTIONARY
5
D
100
AcDbDictionary
0
DICTIONARY
5
1A
330
C
100
AcDbDictionary
0
DICTIONARY
5
17
100
AcDbDictionary
0
ENDSEC
0
EOF
