0
SECTION
2
HEADER
9
$INSUNITS
70
4
9
$ACADVER
1
AC1014
9
$HANDSEED
5
FFFF
0
ENDSEC
0
SECTION
2
TABLES
0
TABLE
2
VPORT
5
8
100
AcDbSymbolTable
0
ENDTAB
0
TABLE
2
LTYPE
5
5
100
AcDbSymbolTable
0
LTYPE
5
14
100
AcDbSymbolTableRecord
100
AcDbLinetypeTableRecord
2
BYBLOCK
70
0
0
LTYPE
5
15
100
AcDbSymbolTableRecord
100
AcDbLinetypeTableRecord
2
BYLAYER
70
0
0
ENDTAB
0
TABLE
2
LAYER
5
2
100
AcDbSymbolTable
70
2
0
LAYER
5
50
100
AcDbSymbolTableRecord
100
AcDbLayerTableRecord
2
0
70
0
6
CONTINUOUS
0
ENDTAB
0
TABLE
2
STYLE
5
3
100
AcDbSymbolTable
70
1
0
STYLE
5
11
100
AcDbSymbolTableRecord
100
AcDbTextStyleTableRecord
2
STANDARD
70
0
0
ENDTAB
0
TABLE
2
VIEW
5
6
100
AcDbSymbolTable
70
0
0
ENDTAB
0
TABLE
2
UCS
5
7
100
AcDbSymbolTable
70
0
0
ENDTAB
0
TABLE
2
APPID
5
9
100
AcDbSymbolTable
70
2
0
APPID
5
12
100
AcDbSymbolTableRecord
100
AcDbRegAppTableRecord
2
ACAD
70
0
0
ENDTAB
0
TABLE
2
DIMSTYLE
5
A
100
AcDbSymbolTable
70
1
0
ENDTAB
0
TABLE
2
BLOCK_RECORD
5
1
100
AcDbSymbolTable
70
1
0
BLOCK_RECORD
5
1F
100
AcDbSymbolTableRecord
100
AcDbBlockTableRecord
2
*MODEL_SPACE
0
BLOCK_RECORD
5
1B
100
AcDbSymbolTableRecord
100
AcDbBlockTableRecord
2
*PAPER_SPACE
0
ENDTAB
0
ENDSEC
0
SECTION
2
BLOCKS
0
BLOCK
5
20
100
AcDbEntity
100
AcDbBlockBegin
2
*MODEL_SPACE
0
ENDBLK
5
21
100
AcDbEntity
100
AcDbBlockEnd
0
BLOCK
5
1C
100
AcDbEntity
100
AcDbBlockBegin
2
*PAPER_SPACE
0
ENDBLK
5
1D
100
AcDbEntity
100
AcDbBlockEnd
0
ENDSEC
0
SECTION
2
ENTITIES
0
LINE
5
100
100
AcDbEntity
8
0
100
AcDbLine
10
5.4299469508437248
20
22.910402847412314
30
0
11
3.4799469508437397
21
22.910402847412303
31
0
0
LINE
5
101
100
AcDbEntity
8
0
100
AcDbLine
10
3.4799469508437397
20
22.910402847412303
30
0
11
3.4799469508437575
21
28.880638324649368
31
0
0
LINE
5
102
100
AcDbEntity
8
0
100
AcDbLine
10
3.4799469508437575
20
28.880638324649368
30
0
11
5.4299469508437426
21
28.880638324649375
31
0
0
LINE
5
103
100
AcDbEntity
8
0
100
AcDbLine
10
5.4299469508437426
20
28.880638324649375
30
0
11
5.4299469508437248
21
22.910402847412314
31
0
0
LINE
5
104
100
AcDbEntity
8
0
100
AcDbLine
10
-8.4845561948624493
20
-26.641198921789133
30
0
11
-11.534556194862446
21
-26.641198921789133
31
0
0
LINE
5
105
100
AcDbEntity
8
0
100
AcDbLine
10
-11.534556194862446
20
-26.641198921789133
30
0
11
-11.534556194862446
21
-53.232312673036205
31
0
0
LINE
5
106
100
AcDbEntity
8
0
100
AcDbLine
10
-11.534556194862446
20
-53.232312673036205
30
0
11
-1.988023930137448
21
-53.232312673036205
31
0
0
LINE
5
107
100
AcDbEntity
8
0
100
AcDbLine
10
-1.988023930137448
20
-53.232312673036205
30
0
11
-1.988023930137448
21
-48.182312673036222
31
0
0
LINE
5
108
100
AcDbEntity
8
0
100
AcDbLine
10
-1.988023930137448
20
-48.182312673036222
30
0
11
-4.488023930137448
21
-48.182312673036222
31
0
0
LINE
5
109
100
AcDbEntity
8
0
100
AcDbLine
10
-4.488023930137448
20
-48.182312673036222
30
0
11
-4.488023930137448
21
-43.232312673036205
31
0
0
LINE
5
110
100
AcDbEntity
8
0
100
AcDbLine
10
-4.488023930137448
20
-43.232312673036205
30
0
11
5.4619760698625619
21
-43.232312673036205
31
0
0
LINE
5
111
100
AcDbEntity
8
0
100
AcDbLine
10
5.4619760698625619
20
-43.232312673036205
30
0
11
5.4619760698625619
21
-48.182312673036222
31
0
0
LINE
5
112
100
AcDbEntity
8
0
100
AcDbLine
10
5.4619760698625619
20
-48.182312673036222
30
0
11
2.9619760698625619
21
-48.182312673036222
31
0
0
LINE
5
113
100
AcDbEntity
8
0
100
AcDbLine
10
2.9619760698625619
20
-48.182312673036222
30
0
11
2.9619760698625619
21
-53.232312673036205
31
0
0
LINE
5
114
100
AcDbEntity
8
0
100
AcDbLine
10
2.9619760698625619
20
-53.232312673036205
30
0
11
11.534556194862429
21
-53.232312673036205
31
0
0
LINE
5
115
100
AcDbEntity
8
0
100
AcDbLine
10
11.534556194862429
20
-53.232312673036205
30
0
11
11.534556194862429
21
-27.034413794412178
31
0
0
LINE
5
116
100
AcDbEntity
8
0
100
AcDbLine
10
11.534556194862429
20
-27.034413794412178
30
0
11
7.5345561948624251
21
-27.034413794412178
31
0
0
LINE
5
117
100
AcDbEntity
8
0
100
AcDbLine
10
7.5345561948624251
20
-27.034413794412178
30
0
11
7.5345561948624251
21
-23.084413794412164
31
0
0
LINE
5
118
100
AcDbEntity
8
0
100
AcDbLine
10
7.5345561948624251
20
-23.084413794412164
30
0
11
11.534556194862429
21
-23.084413794412164
31
0
0
LINE
5
119
100
AcDbEntity
8
0
100
AcDbLine
10
11.534556194862429
20
-23.084413794412164
30
0
11
11.534556194862429
21
35.708632017085208
31
0
0
LINE
5
120
100
AcDbEntity
8
0
100
AcDbLine
10
11.534556194862429
20
35.708632017085208
30
0
11
15.534556194862432
21
35.708632017085208
31
0
0
LINE
5
121
100
AcDbEntity
8
0
100
AcDbLine
10
15.534556194862432
20
35.708632017085208
30
0
11
15.534556194862432
21
39.758632017085205
31
0
0
LINE
5
122
100
AcDbEntity
8
0
100
AcDbLine
10
15.534556194862432
20
39.758632017085205
30
0
11
11.534556194862429
21
39.758632017085205
31
0
0
LINE
5
123
100
AcDbEntity
8
0
100
AcDbLine
10
11.534556194862429
20
39.758632017085205
30
0
11
11.534556194862429
21
53.232312673036205
31
0
0
LINE
5
124
100
AcDbEntity
8
0
100
AcDbLine
10
11.534556194862429
20
53.232312673036205
30
0
11
-11.534556194862446
21
53.232312673036205
31
0
0
LINE
5
125
100
AcDbEntity
8
0
100
AcDbLine
10
-11.534556194862446
20
53.232312673036205
30
0
11
-11.534556194862446
21
33.828432492050467
31
0
0
LINE
5
126
100
AcDbEntity
8
0
100
AcDbLine
10
-11.534556194862446
20
33.828432492050467
30
0
11
-15.53455619486245
21
33.828432492050467
31
0
0
LINE
5
127
100
AcDbEntity
8
0
100
AcDbLine
10
-15.53455619486245
20
33.828432492050467
30
0
11
-15.53455619486245
21
29.778432492050477
31
0
0
LINE
5
128
100
AcDbEntity
8
0
100
AcDbLine
10
-15.53455619486245
20
29.778432492050477
30
0
11
-11.534556194862446
21
29.778432492050477
31
0
0
LINE
5
129
100
AcDbEntity
8
0
100
AcDbLine
10
-11.534556194862446
20
29.778432492050477
30
0
11
-11.534556194862446
21
-23.691198921789116
31
0
0
LINE
5
130
100
AcDbEntity
8
0
100
AcDbLine
10
-11.534556194862446
20
-23.691198921789116
30
0
11
-5.5345561948624322
21
-23.691198921789116
31
0
0
LINE
5
131
100
AcDbEntity
8
0
100
AcDbLine
10
-5.5345561948624322
20
-23.691198921789116
30
0
11
-5.5345561948624322
21
-28.641198921789126
31
0
0
LINE
5
132
100
AcDbEntity
8
0
100
AcDbLine
10
-5.5345561948624322
20
-28.641198921789126
30
0
11
-8.4845561948624493
21
-28.641198921789126
31
0
0
LINE
5
133
100
AcDbEntity
8
0
100
AcDbLine
10
-8.4845561948624493
20
-28.641198921789126
30
0
11
-8.4845561948624493
21
-26.641198921789133
31
0
0
LINE
5
134
100
AcDbEntity
8
0
100
AcDbLine
10
-4.5700530491562397
20
27.533248010931359
30
0
11
-4.5700530491562397
21
21.583248010931353
31
0
0
LINE
5
135
100
AcDbEntity
8
0
100
AcDbLine
10
-4.5700530491562397
20
21.583248010931353
30
0
11
-6.5200530491562425
21
21.583248010931353
31
0
0
LINE
5
136
100
AcDbEntity
8
0
100
AcDbLine
10
-6.5200530491562425
20
21.583248010931353
30
0
11
-6.5200530491562425
21
27.533248010931359
31
0
0
LINE
5
137
100
AcDbEntity
8
0
100
AcDbLine
10
-6.5200530491562425
20
27.533248010931359
30
0
11
-4.5700530491562397
21
27.533248010931359
31
0
0
LINE
5
138
100
AcDbEntity
8
0
100
AcDbLine
10
-4.5700530491562219
20
3.0217734895951676
30
0
11
-4.5700530491562397
21
-0.92822651040485482
31
0
0
LINE
5
139
100
AcDbEntity
8
0
100
AcDbLine
10
-4.5700530491562397
20
-0.92822651040485482
30
0
11
-6.5200530491562425
21
-0.92822651040485482
31
0
0
LINE
5
140
100
AcDbEntity
8
0
100
AcDbLine
10
-6.5200530491562425
20
-0.92822651040485482
30
0
11
-6.5200530491562247
21
3.0217734895951676
31
0
0
LINE
5
141
100
AcDbEntity
8
0
100
AcDbLine
10
-6.5200530491562247
20
3.0217734895951676
30
0
11
-4.5700530491562219
21
3.0217734895951676
31
0
0
LINE
5
142
100
AcDbEntity
8
0
100
AcDbLine
10
5.4299469508437426
20
0.40011695298483474
30
0
11
3.4799469508437753
21
0.40011695298483474
31
0
0
LINE
5
143
100
AcDbEntity
8
0
100
AcDbLine
10
3.4799469508437753
20
0.40011695298483474
30
0
11
3.4799469508437753
21
4.3704580320923903
31
0
0
LINE
5
144
100
AcDbEntity
8
0
100
AcDbLine
10
3.4799469508437753
20
4.3704580320923903
30
0
11
5.4299469508437426
21
4.3704580320923991
31
0
0
LINE
5
145
100
AcDbEntity
8
0
100
AcDbLine
10
5.4299469508437426
20
4.3704580320923991
30
0
11
5.4299469508437426
21
0.40011695298483474
31
0
0
ENDSEC
0
SECTION
2
OBJECTS
0
DICTIONARY
5
C
100
AcDbDictionary
3
ACAD_GROUP
350
D
3
ACAD_MLINESTYLE
350
17
0
DICTIONARY
5
D
100
AcDbDictionary
0
DICTIONARY
5
1A
330
C
100
AcDbDictionary
0
DICTIONARY
5
17
100
AcDbDictionary
0
ENDSEC
0
EOF
