0
SECTION
2
HEADER
9
$INSUNITS
70
4
9
$ACADVER
1
AC1014
9
$HANDSEED
5
FFFF
0
ENDSEC
0
SECTION
2
TABLES
0
TABLE
2
VPORT
5
8
100
AcDbSymbolTable
0
ENDTAB
0
TABLE
2
LTYPE
5
5
100
AcDbSymbolTable
0
LTYPE
5
14
100
AcDbSymbolTableRecord
100
AcDbLinetypeTableRecord
2
BYBLOCK
70
0
0
LTYPE
5
15
100
AcDbSymbolTableRecord
100
AcDbLinetypeTableRecord
2
BYLAYER
70
0
0
ENDTAB
0
TABLE
2
LAYER
5
2
100
AcDbSymbolTable
70
2
0
LAYER
5
50
100
AcDbSymbolTableRecord
100
AcDbLayerTableRecord
2
0
70
0
6
CONTINUOUS
0
ENDTAB
0
TABLE
2
STYLE
5
3
100
AcDbSymbolTable
70
1
0
STYLE
5
11
100
AcDbSymbolTableRecord
100
AcDbTextStyleTableRecord
2
STANDARD
70
0
0
ENDTAB
0
TABLE
2
VIEW
5
6
100
AcDbSymbolTable
70
0
0
ENDTAB
0
TABLE
2
UCS
5
7
100
AcDbSymbolTable
70
0
0
ENDTAB
0
TABLE
2
APPID
5
9
100
AcDbSymbolTable
70
2
0
APPID
5
12
100
AcDbSymbolTableRecord
100
AcDbRegAppTableRecord
2
ACAD
70
0
0
ENDTAB
0
TABLE
2
DIMSTYLE
5
A
100
AcDbSymbolTable
70
1
0
ENDTAB
0
TABLE
2
BLOCK_RECORD
5
1
100
AcDbSymbolTable
70
1
0
BLOCK_RECORD
5
1F
100
AcDbSymbolTableRecord
100
AcDbBlockTableRecord
2
*MODEL_SPACE
0
BLOCK_RECORD
5
1B
100
AcDbSymbolTableRecord
100
AcDbBlockTableRecord
2
*PAPER_SPACE
0
ENDTAB
0
ENDSEC
0
SECTION
2
BLOCKS
0
BLOCK
5
20
100
AcDbEntity
100
AcDbBlockBegin
2
*MODEL_SPACE
0
ENDBLK
5
21
100
AcDbEntity
100
AcDbBlockEnd
0
BLOCK
5
1C
100
AcDbEntity
100
AcDbBlockBegin
2
*PAPER_SPACE
0
ENDBLK
5
1D
100
AcDbEntity
100
AcDbBlockEnd
0
ENDSEC
0
SECTION
2
ENTITIES
0
LINE
5
100
100
AcDbEntity
8
0
100
AcDbLine
10
-40.768259817500905
20
1.4911480319117132
30
0
11
-35.377111404082626
21
1.4911480319117132
31
0
0
LINE
5
101
100
AcDbEntity
8
0
100
AcDbLine
10
-35.377111404082626
20
1.4911480319117132
30
0
11
-35.377111404082626
21
5.7911480319117281
31
0
0
LINE
5
102
100
AcDbEntity
8
0
100
AcDbLine
10
-35.377111404082626
20
5.7911480319117281
30
0
11
-13.027111404082632
21
5.7911480319117281
31
0
0
LINE
5
103
100
AcDbEntity
8
0
100
AcDbLine
10
-13.027111404082632
20
5.7911480319117281
30
0
11
-13.027111404082632
21
1.4911480319117132
31
0
0
LINE
5
104
100
AcDbEntity
8
0
100
AcDbLine
10
-13.027111404082632
20
1.4911480319117132
30
0
11
-8.0271114040826319
21
1.4911480319117132
31
0
0
LINE
5
105
100
AcDbEntity
8
0
100
AcDbLine
10
-8.0271114040826319
20
1.4911480319117132
30
0
11
-8.0271114040826319
21
-12.658851968088296
31
0
0
LINE
5
106
100
AcDbEntity
8
0
100
AcDbLine
10
-8.0271114040826319
20
-12.658851968088296
30
0
11
-13.027111404082632
21
-12.658851968088296
31
0
0
LINE
5
107
100
AcDbEntity
8
0
100
AcDbLine
10
-13.027111404082632
20
-12.658851968088296
30
0
11
-13.027111404082632
21
-28.658851968088275
31
0
0
LINE
5
108
100
AcDbEntity
8
0
100
AcDbLine
10
-13.027111404082632
20
-28.658851968088275
30
0
11
-35.377111404082626
21
-28.658851968088275
31
0
0
LINE
5
109
100
AcDbEntity
8
0
100
AcDbLine
10
-35.377111404082626
20
-28.658851968088275
30
0
11
-35.377111404082626
21
-12.658851968088296
31
0
0
LINE
5
110
100
AcDbEntity
8
0
100
AcDbLine
10
-35.377111404082626
20
-12.658851968088296
30
0
11
-40.768259817500905
21
-12.658851968088296
31
0
0
LINE
5
111
100
AcDbEntity
8
0
100
AcDbLine
10
-40.768259817500905
20
-12.658851968088296
30
0
11
-40.768259817500905
21
1.4911480319117132
31
0
0
LINE
5
112
100
AcDbEntity
8
0
100
AcDbLine
10
-44.818259817500916
20
-32.708851968088268
30
0
11
0.15677451129135989
21
-32.708851968088268
31
0
0
LINE
5
113
100
AcDbEntity
8
0
100
AcDbLine
10
0.15677451129135989
20
-32.708851968088268
30
0
11
0.15677451129135989
21
-19.878668417064844
31
0
0
LINE
5
114
100
AcDbEntity
8
0
100
AcDbLine
10
0.15677451129135989
20
-19.878668417064844
30
0
11
29.627715593329498
21
-8.7087470925186139
31
0
0
LINE
5
115
100
AcDbEntity
8
0
100
AcDbLine
10
29.627715593329498
20
-8.7087470925186139
30
0
11
43.051373635701395
21
-8.7087470925186317
31
0
0
LINE
5
116
100
AcDbEntity
8
0
100
AcDbLine
10
43.051373635701395
20
-8.7087470925186317
30
0
11
40.588555949809546
21
-3.1019068288925489
31
0
0
LINE
5
117
100
AcDbEntity
8
0
100
AcDbLine
10
40.588555949809546
20
-3.1019068288925489
30
0
11
44.818259817501058
21
-3.10190682889254
31
0
0
LINE
5
118
100
AcDbEntity
8
0
100
AcDbLine
10
44.818259817501058
20
-3.10190682889254
30
0
11
44.818259817501058
21
0.94809317110745361
31
0
0
LINE
5
119
100
AcDbEntity
8
0
100
AcDbLine
10
44.818259817501058
20
0.94809317110745361
30
0
11
38.809583987192724
21
0.94809317110745361
31
0
0
LINE
5
120
100
AcDbEntity
8
0
100
AcDbLine
10
38.809583987192724
20
0.94809317110745361
30
0
11
28.014663920256879
21
25.523762259663574
31
0
0
LINE
5
121
100
AcDbEntity
8
0
100
AcDbLine
10
28.014663920256879
20
25.523762259663574
30
0
11
32.244367787948391
21
25.523762259663592
31
0
0
LINE
5
122
100
AcDbEntity
8
0
100
AcDbLine
10
32.244367787948391
20
25.523762259663592
30
0
11
32.244367787948391
21
29.573762259663585
31
0
0
LINE
5
123
100
AcDbEntity
8
0
100
AcDbLine
10
32.244367787948391
20
29.573762259663585
30
0
11
26.235691957640057
21
29.573762259663585
31
0
0
LINE
5
124
100
AcDbEntity
8
0
100
AcDbLine
10
26.235691957640057
20
29.573762259663585
30
0
11
24.855604989555928
21
32.715662378493278
31
0
0
LINE
5
125
100
AcDbEntity
8
0
100
AcDbLine
10
24.855604989555928
20
32.715662378493278
30
0
11
-9.3261110745940812
21
19.726866669524668
31
0
0
LINE
5
126
100
AcDbEntity
8
0
100
AcDbLine
10
-9.3261110745940812
20
19.726866669524668
30
0
11
-8.5979272257627315
21
17.810555556395926
31
0
0
LINE
5
127
100
AcDbEntity
8
0
100
AcDbLine
10
-8.5979272257627315
20
17.810555556395926
30
0
11
-6.7283554080761121
21
18.520978823548575
31
0
0
LINE
5
128
100
AcDbEntity
8
0
100
AcDbLine
10
-6.7283554080761121
20
18.520978823548575
30
0
11
-6.0356927226021639
21
16.698146301304018
31
0
0
LINE
5
129
100
AcDbEntity
8
0
100
AcDbLine
10
-6.0356927226021639
20
16.698146301304018
30
0
11
-11.317571449730508
21
14.691072004113535
31
0
0
LINE
5
130
100
AcDbEntity
8
0
100
AcDbLine
10
-11.317571449730508
20
14.691072004113535
30
0
11
-12.738417984035806
21
18.430215639486825
31
0
0
LINE
5
131
100
AcDbEntity
8
0
100
AcDbLine
10
-12.738417984035806
20
18.430215639486825
30
0
11
-44.818259817500916
21
6.240116372120994
31
0
0
LINE
5
132
100
AcDbEntity
8
0
100
AcDbLine
10
-44.818259817500916
20
6.240116372120994
30
0
11
-44.818259817500916
21
-20.448289149542376
31
0
0
LINE
5
133
100
AcDbEntity
8
0
100
AcDbLine
10
-44.818259817500916
20
-20.448289149542376
30
0
11
-41.76825981750099
21
-20.448289149542376
31
0
0
LINE
5
134
100
AcDbEntity
8
0
100
AcDbLine
10
-41.76825981750099
20
-20.448289149542376
30
0
11
-41.76825981750099
21
-18.448289149542383
31
0
0
LINE
5
135
100
AcDbEntity
8
0
100
AcDbLine
10
-41.76825981750099
20
-18.448289149542383
30
0
11
-39.818259817500916
21
-18.448289149542383
31
0
0
LINE
5
136
100
AcDbEntity
8
0
100
AcDbLine
10
-39.818259817500916
20
-18.448289149542383
30
0
11
-39.818259817500916
21
-25.398289149542386
31
0
0
LINE
5
137
100
AcDbEntity
8
0
100
AcDbLine
10
-39.818259817500916
20
-25.398289149542386
30
0
11
-44.818259817500916
21
-25.398289149542386
31
0
0
LINE
5
138
100
AcDbEntity
8
0
100
AcDbLine
10
-44.818259817500916
20
-25.398289149542386
30
0
11
-44.818259817500916
21
-32.708851968088268
31
0
0
ENDSEC
0
SECTION
2
OBJECTS
0
DICTIONARY
5
C
100
AcDbDictionary
3
ACAD_GROUP
350
D
3
ACAD_MLINESTYLE
350
17
0
DICTIONARY
5
D
100
AcDbDictionary
0
DICTIONARY
5
1A
330
C
100
AcDbDictionary
0
DICTIONARY
5
17
100
AcDbDictionary
0
ENDSEC
0
EOF
