0
SECTION
2
HEADER
9
$INSUNITS
70
4
9
$ACADVER
1
AC1014
9
$HANDSEED
5
FFFF
0
ENDSEC
0
SECTION
2
TABLES
0
TABLE
2
VPORT
5
8
100
AcDbSymbolTable
0
ENDTAB
0
TABLE
2
LTYPE
5
5
100
AcDbSymbolTable
70
2
0
LTYPE
5
14
100
AcDbSymbolTableRecord
100
AcDbLinetypeTableRecord
2
BYBLOCK
70
0
0
LTYPE
5
15
100
AcDbSymbolTableRecord
100
AcDbLinetypeTableRecord
2
BYLAYER
70
0
0
ENDTAB
0
TABLE
2
LAYER
5
2
100
AcDbSymbolTable
70
3
0
LAYER
5
50
100
AcDbSymbolTableRecord
100
AcDbLayerTableRecord
2
0
70
0
6
CONTINUOUS
0
LAYER
5
51
100
AcDbSymbolTableRecord
100
AcDbLayerTableRecord
2
CUTOUTS
70
0
62
1
6
CONTINUOUS
0
LAYER
5
52
100
AcDbSymbolTableRecord
100
AcDbLayerTableRecord
2
PERIMETER
70
0
62
5
6
CONTINUOUS
0
ENDTAB
0
TABLE
2
STYLE
5
3
100
AcDbSymbolTable
70
1
0
STYLE
5
11
100
AcDbSymbolTableRecord
100
AcDbTextStyleTableRecord
2
STANDARD
70
0
0
ENDTAB
0
TABLE
2
VIEW
5
6
100
AcDbSymbolTable
0
ENDTAB
0
TABLE
2
UCS
5
7
100
AcDbSymbolTable
0
ENDTAB
0
TABLE
2
APPID
5
9
100
AcDbSymbolTable
70
1
0
APPID
5
12
100
AcDbSymbolTableRecord
100
AcDbRegAppTableRecord
2
ACAD
70
0
0
ENDTAB
0
TABLE
2
DIMSTYLE
5
A
100
AcDbSymbolTable
0
ENDTAB
0
TABLE
2
BLOCK_RECORD
5
1
100
AcDbSymbolTable
70
2
0
BLOCK_RECORD
5
1F
100
AcDbSymbolTableRecord
100
AcDbBlockTableRecord
2
*MODEL_SPACE
0
BLOCK_RECORD
5
1B
100
AcDbSymbolTableRecord
100
AcDbBlockTableRecord
2
*PAPER_SPACE
0
ENDTAB
0
ENDSEC
0
SECTION
2
BLOCKS
0
BLOCK
5
20
100
AcDbEntity
100
AcDbBlockBegin
2
*MODEL_SPACE
0
ENDBLK
5
21
100
AcDbEntity
100
AcDbBlockEnd
0
BLOCK
5
1C
100
AcDbEntity
100
AcDbBlockBegin
2
*PAPER_SPACE
0
ENDBLK
5
1D
100
AcDbEntity
100
AcDbBlockEnd
0
ENDSEC
0
SECTION
2
ENTITIES
0
ARC
5
100
100
AcDbEntity
8
CUTOUTS
100
AcDbCircle
10
-4.5454545454545494
20
5.7869610838439467
30
0
40
2.7550137244911133
210
-0
220
0
230
1
100
AcDbArc
50
89.999999999999986
51
148.7928744063112
0
LINE
5
101
100
AcDbEntity
8
CUTOUTS
100
AcDbLine
10
-4.5454545454545494
20
8.5419748083350591
30
0
11
0.8840909090909066
21
8.5419748083350697
31
0
0
LINE
5
102
100
AcDbEntity
8
CUTOUTS
100
AcDbLine
10
0.8840909090909066
20
8.5419748083350697
30
0
11
0.8840909090909066
21
5.8868765208355045
31
0
0
LINE
5
103
100
AcDbEntity
8
CUTOUTS
100
AcDbLine
10
0.8840909090909066
20
5.8868765208355045
30
0
11
-4.5454545454545512
21
5.8868765208355072
31
0
0
ARC
5
104
100
AcDbEntity
8
CUTOUTS
100
AcDbCircle
10
-4.5454545454545512
20
8.6418902453266178
30
0
40
2.7550137244911093
210
0
220
0
230
1
100
AcDbArc
50
211.20712559368869
51
270
0
ARC
5
105
100
AcDbEntity
8
CUTOUTS
100
AcDbCircle
10
-4.5454545454545512
20
-24.085382481946105
30
0
40
2.7550137244911084
210
0
220
0
230
1
100
AcDbArc
50
211.20712559368869
51
270
0
ARC
5
106
100
AcDbEntity
8
CUTOUTS
100
AcDbCircle
10
-4.5454545454545494
20
-26.940311643428778
30
0
40
2.7550137244911177
210
-0
220
0
230
1
100
AcDbArc
50
89.999999999999986
51
148.79287440631123
0
LINE
5
107
100
AcDbEntity
8
CUTOUTS
100
AcDbLine
10
-4.5454545454545494
20
-24.18529791893766
30
0
11
0.8840909090909066
21
-24.18529791893765
31
0
0
LINE
5
108
100
AcDbEntity
8
CUTOUTS
100
AcDbLine
10
0.8840909090909066
20
-24.18529791893765
30
0
11
0.8840909090909066
21
-26.840396206437227
31
0
0
LINE
5
109
100
AcDbEntity
8
CUTOUTS
100
AcDbLine
10
0.8840909090909066
20
-26.840396206437227
30
0
11
-4.5454545454545494
21
-26.840396206437216
31
0
0
LINE
5
10A
100
AcDbEntity
8
PERIMETER
100
AcDbLine
10
-6.095207152673229
20
-1.8420287999711848
30
0
11
8.4704545454545404
21
-1.8420287999711848
31
0
0
LINE
5
10B
100
AcDbEntity
8
PERIMETER
100
AcDbLine
10
8.4704545454545404
20
-1.8420287999711848
30
0
11
8.4704545454545421
21
1.1977272727272692
31
0
0
LINE
5
10C
100
AcDbEntity
8
PERIMETER
100
AcDbLine
10
8.4704545454545421
20
1.1977272727272714
30
0
11
3.3135603831122742
21
1.1977272727272714
31
0
0
LINE
5
10D
100
AcDbEntity
8
PERIMETER
100
AcDbLine
10
3.3135603831122742
20
1.1977272727272714
30
0
11
3.3135603831122742
21
2.2477272727272735
31
0
0
LINE
5
10E
100
AcDbEntity
8
PERIMETER
100
AcDbLine
10
3.3135603831122742
20
2.2477272727272735
30
0
11
8.4704545454545421
21
2.2477272727272735
31
0
0
LINE
5
10F
100
AcDbEntity
8
PERIMETER
100
AcDbLine
10
8.4704545454545421
20
2.2477272727272735
30
0
11
8.4704545454545404
21
10.247727272727278
31
0
0
LINE
5
110
100
AcDbEntity
8
PERIMETER
100
AcDbLine
10
8.4704545454545421
20
10.247727272727278
30
0
11
9.5704545454545435
21
10.247727272727278
31
0
0
LINE
5
111
100
AcDbEntity
8
PERIMETER
100
AcDbLine
10
9.5704545454545418
20
10.247727272727278
30
0
11
9.5704545454545418
21
34.115909090909099
31
0
0
LINE
5
112
100
AcDbEntity
8
PERIMETER
100
AcDbLine
10
9.5704545454545418
20
34.115909090909099
30
0
11
3.2635603831122708
21
34.115909090909099
31
0
0
LINE
5
113
100
AcDbEntity
8
PERIMETER
100
AcDbLine
10
3.2635603831122708
20
34.115909090909099
30
0
11
3.2635603831122708
21
33.015909090909091
31
0
0
LINE
5
114
100
AcDbEntity
8
PERIMETER
100
AcDbLine
10
3.2635603831122708
20
33.015909090909091
30
0
11
-3.6109777706703747
21
33.015909090909091
31
0
0
LINE
5
115
100
AcDbEntity
8
PERIMETER
100
AcDbLine
10
-3.6109777706703747
20
33.015909090909091
30
0
11
-3.6109777706703747
21
34.115909090909099
31
0
0
LINE
5
116
100
AcDbEntity
8
PERIMETER
100
AcDbLine
10
-3.6109777706703747
20
34.115909090909099
30
0
11
-9.5704545454545524
21
34.115909090909099
31
0
0
LINE
5
117
100
AcDbEntity
8
PERIMETER
100
AcDbLine
10
-9.5704545454545524
20
34.115909090909099
30
0
11
-9.5704545454545507
21
2.2477272727272712
31
0
0
LINE
5
118
100
AcDbEntity
8
PERIMETER
100
AcDbLine
10
-9.5704545454545507
20
2.2477272727272712
30
0
11
-3.6609777706703719
21
2.2477272727272735
31
0
0
LINE
5
119
100
AcDbEntity
8
PERIMETER
100
AcDbLine
10
-3.6609777706703719
20
2.2477272727272735
30
0
11
-3.6609777706703719
21
1.1977272727272714
31
0
0
LINE
5
11A
100
AcDbEntity
8
PERIMETER
100
AcDbLine
10
-3.6609777706703719
20
1.1977272727272714
30
0
11
-9.5704545454545507
21
1.1977272727272714
31
0
0
LINE
5
11B
100
AcDbEntity
8
PERIMETER
100
AcDbLine
10
-9.5704545454545507
20
1.1977272727272714
30
0
11
-9.5704545454545507
21
-14.834090909090927
31
0
0
LINE
5
11C
100
AcDbEntity
8
PERIMETER
100
AcDbLine
10
-9.5704545454545507
20
-14.834090909090929
30
0
11
-3.6609777706703719
21
-14.834090909090929
31
0
0
LINE
5
11D
100
AcDbEntity
8
PERIMETER
100
AcDbLine
10
-3.6609777706703719
20
-14.834090909090929
30
0
11
-3.6609777706703719
21
-15.884090909090929
31
0
0
LINE
5
11E
100
AcDbEntity
8
PERIMETER
100
AcDbLine
10
-3.6609777706703719
20
-15.884090909090929
30
0
11
-9.5704545454545507
21
-15.884090909090929
31
0
0
LINE
5
11F
100
AcDbEntity
8
PERIMETER
100
AcDbLine
10
-9.5704545454545507
20
-15.884090909090929
30
0
11
-9.5704545454545435
21
-33.015909090909091
31
0
0
LINE
5
120
100
AcDbEntity
8
PERIMETER
100
AcDbLine
10
-9.5704545454545435
20
-33.015909090909084
30
0
11
-5.4243482754208836
21
-33.015909090909084
31
0
0
LINE
5
121
100
AcDbEntity
8
PERIMETER
100
AcDbLine
10
-5.4243482754208836
20
-33.015909090909084
30
0
11
-5.4243482754208836
21
-34.115909090909099
31
0
0
LINE
5
122
100
AcDbEntity
8
PERIMETER
100
AcDbLine
10
-5.4243482754208836
20
-34.115909090909099
30
0
11
2.4745035131946826
21
-34.115909090909099
31
0
0
LINE
5
123
100
AcDbEntity
8
PERIMETER
100
AcDbLine
10
2.4745035131946826
20
-34.115909090909099
30
0
11
2.4745035131946826
21
-33.015909090909084
31
0
0
LINE
5
124
100
AcDbEntity
8
PERIMETER
100
AcDbLine
10
2.4745035131946826
20
-33.015909090909084
30
0
11
9.5704545454545524
21
-33.015909090909084
31
0
0
LINE
5
125
100
AcDbEntity
8
PERIMETER
100
AcDbLine
10
9.5704545454545524
20
-33.015909090909084
30
0
11
9.5704545454545418
21
-20.884090909090901
31
0
0
LINE
5
126
100
AcDbEntity
8
PERIMETER
100
AcDbLine
10
9.5704545454545418
20
-20.884090909090904
30
0
11
8.4704545454545404
21
-20.884090909090901
31
0
0
LINE
5
127
100
AcDbEntity
8
PERIMETER
100
AcDbLine
10
8.4704545454545421
20
-20.884090909090904
30
0
11
8.4704545454545439
21
-15.884090909090931
31
0
0
LINE
5
128
100
AcDbEntity
8
PERIMETER
100
AcDbLine
10
8.4704545454545421
20
-15.884090909090929
30
0
11
3.3135603831122751
21
-15.884090909090929
31
0
0
LINE
5
129
100
AcDbEntity
8
PERIMETER
100
AcDbLine
10
3.3135603831122751
20
-15.884090909090929
30
0
11
3.3135603831122751
21
-14.834090909090925
31
0
0
LINE
5
12A
100
AcDbEntity
8
PERIMETER
100
AcDbLine
10
3.3135603831122751
20
-14.834090909090925
30
0
11
8.4704545454545421
21
-14.834090909090929
31
0
0
LINE
5
12B
100
AcDbEntity
8
PERIMETER
100
AcDbLine
10
8.4704545454545421
20
-14.834090909090929
30
0
11
8.4704545454545404
21
-12.984159944224929
31
0
0
LINE
5
12C
100
AcDbEntity
8
PERIMETER
100
AcDbLine
10
8.4704545454545421
20
-12.984159944224929
30
0
11
-6.0952071526732272
21
-12.984159944224929
31
0
0
LINE
5
12D
100
AcDbEntity
8
PERIMETER
100
AcDbLine
10
-6.095207152673229
20
-12.984159944224929
30
0
11
-6.095207152673229
21
-1.8420287999711848
31
0
0
ENDSEC
0
SECTION
2
OBJECTS
0
DICTIONARY
5
C
100
AcDbDictionary
3
ACAD_GROUP
350
D
3
ACAD_MLINESTYLE
350
17
0
DICTIONARY
5
D
100
AcDbDictionary
0
DICTIONARY
5
1A
330
C
100
AcDbDictionary
0
DICTIONARY
5
17
100
AcDbDictionary
0
ENDSEC
0
EOF
