0
SECTION
2
HEADER
9
$INSUNITS
70
4
9
$ACADVER
1
AC1014
9
$HANDSEED
5
FFFF
0
ENDSEC
0
SECTION
2
TABLES
0
TABLE
2
VPORT
5
8
100
AcDbSymbolTable
0
ENDTAB
0
TABLE
2
LTYPE
5
5
100
AcDbSymbolTable
70
2
0
LTYPE
5
14
100
AcDbSymbolTableRecord
100
AcDbLinetypeTableRecord
2
BYBLOCK
70
0
0
LTYPE
5
15
100
AcDbSymbolTableRecord
100
AcDbLinetypeTableRecord
2
BYLAYER
70
0
0
ENDTAB
0
TABLE
2
LAYER
5
2
100
AcDbSymbolTable
70
3
0
LAYER
5
50
100
AcDbSymbolTableRecord
100
AcDbLayerTableRecord
2
0
70
0
6
CONTINUOUS
0
LAYER
5
51
100
AcDbSymbolTableRecord
100
AcDbLayerTableRecord
2
CUTOUTS
70
0
62
1
6
CONTINUOUS
0
LAYER
5
52
100
AcDbSymbolTableRecord
100
AcDbLayerTableRecord
2
PERIMETER
70
0
62
5
6
CONTINUOUS
0
ENDTAB
0
TABLE
2
STYLE
5
3
100
AcDbSymbolTable
70
1
0
STYLE
5
11
100
AcDbSymbolTableRecord
100
AcDbTextStyleTableRecord
2
STANDARD
70
0
0
ENDTAB
0
TABLE
2
VIEW
5
6
100
AcDbSymbolTable
0
ENDTAB
0
TABLE
2
UCS
5
7
100
AcDbSymbolTable
0
ENDTAB
0
TABLE
2
APPID
5
9
100
AcDbSymbolTable
70
1
0
APPID
5
12
100
AcDbSymbolTableRecord
100
AcDbRegAppTableRecord
2
ACAD
70
0
0
ENDTAB
0
TABLE
2
DIMSTYLE
5
A
100
AcDbSymbolTable
0
ENDTAB
0
TABLE
2
BLOCK_RECORD
5
1
100
AcDbSymbolTable
70
2
0
BLOCK_RECORD
5
1F
100
AcDbSymbolTableRecord
100
AcDbBlockTableRecord
2
*MODEL_SPACE
0
BLOCK_RECORD
5
1B
100
AcDbSymbolTableRecord
100
AcDbBlockTableRecord
2
*PAPER_SPACE
0
ENDTAB
0
ENDSEC
0
SECTION
2
BLOCKS
0
BLOCK
5
20
100
AcDbEntity
100
AcDbBlockBegin
2
*MODEL_SPACE
0
ENDBLK
5
21
100
AcDbEntity
100
AcDbBlockEnd
0
BLOCK
5
1C
100
AcDbEntity
100
AcDbBlockBegin
2
*PAPER_SPACE
0
ENDBLK
5
1D
100
AcDbEntity
100
AcDbBlockEnd
0
ENDSEC
0
SECTION
2
ENTITIES
0
LINE
5
100
100
AcDbEntity
8
CUTOUTS
100
AcDbLine
10
-18.611363636363635
20
1.5659090909090789
30
0
11
-14.115909090909092
21
1.5659090909090789
31
0
0
LINE
5
101
100
AcDbEntity
8
CUTOUTS
100
AcDbLine
10
-14.115909090909092
20
1.5659090909090789
30
0
11
-14.115909090909092
21
-1.5659090909091051
31
0
0
LINE
5
102
100
AcDbEntity
8
CUTOUTS
100
AcDbLine
10
-14.115909090909092
20
-1.5659090909091051
30
0
11
-18.611363636363635
21
-1.5659090909091051
31
0
0
LINE
5
103
100
AcDbEntity
8
CUTOUTS
100
AcDbLine
10
-18.611363636363635
20
-1.5659090909091051
30
0
11
-18.611363636363635
21
1.5659090909090789
31
0
0
LINE
5
104
100
AcDbEntity
8
CUTOUTS
100
AcDbLine
10
1.1912243621472962
20
0.72968332108258149
30
0
11
5.0090477391650197
21
0.72968332108258149
31
0
0
LINE
5
105
100
AcDbEntity
8
CUTOUTS
100
AcDbLine
10
5.0090477391650223
20
0.72968332108258149
30
0
11
5.0090477391650223
21
-0.7296833210825987
31
0
0
LINE
5
106
100
AcDbEntity
8
CUTOUTS
100
AcDbLine
10
5.0090477391650223
20
-0.7296833210825987
30
0
11
1.1912243621472984
21
-0.7296833210825987
31
0
0
LINE
5
107
100
AcDbEntity
8
CUTOUTS
100
AcDbLine
10
1.1912243621472962
20
-0.7296833210825987
30
0
11
1.1912243621472962
21
0.72968332108258149
31
0
0
LINE
5
108
100
AcDbEntity
8
CUTOUTS
100
AcDbLine
10
-10.933217897238844
20
0.72968332108258149
30
0
11
-7.1153945202211233
21
0.72968332108258149
31
0
0
LINE
5
109
100
AcDbEntity
8
CUTOUTS
100
AcDbLine
10
-7.1153945202211233
20
0.72968332108258149
30
0
11
-7.1153945202211233
21
-0.7296833210825987
31
0
0
LINE
5
10A
100
AcDbEntity
8
CUTOUTS
100
AcDbLine
10
-7.1153945202211233
20
-0.7296833210825987
30
0
11
-10.933217897238844
21
-0.7296833210825987
31
0
0
LINE
5
10B
100
AcDbEntity
8
CUTOUTS
100
AcDbLine
10
-10.933217897238844
20
-0.7296833210825987
30
0
11
-10.933217897238844
21
0.72968332108258149
31
0
0
LINE
5
10C
100
AcDbEntity
8
PERIMETER
100
AcDbLine
10
21.652272727272731
20
3.0249999999999977
30
0
11
21.652272727272731
21
5.693181818181805
31
0
0
LINE
5
10D
100
AcDbEntity
8
PERIMETER
100
AcDbLine
10
21.652272727272731
20
5.693181818181805
30
0
11
22.752272727272729
21
5.693181818181805
31
0
0
LINE
5
10E
100
AcDbEntity
8
PERIMETER
100
AcDbLine
10
22.752272727272732
20
5.693181818181805
30
0
11
22.752272727272732
21
6.843181818181816
31
0
0
LINE
5
10F
100
AcDbEntity
8
PERIMETER
100
AcDbLine
10
22.752272727272732
20
6.843181818181816
30
0
11
6.3363606067475153
21
6.843181818181816
31
0
0
LINE
5
110
100
AcDbEntity
8
PERIMETER
100
AcDbLine
10
6.3363606067475153
20
6.843181818181816
30
0
11
6.3363606067475153
21
5.7431818181818128
31
0
0
LINE
5
111
100
AcDbEntity
8
PERIMETER
100
AcDbLine
10
6.3363606067475153
20
5.7431818181818128
30
0
11
-9.2525960573245207
21
5.7431818181818128
31
0
0
LINE
5
112
100
AcDbEntity
8
PERIMETER
100
AcDbLine
10
-9.2525960573245225
20
5.7431818181818128
30
0
11
-9.2525960573245225
21
6.843181818181816
31
0
0
LINE
5
113
100
AcDbEntity
8
PERIMETER
100
AcDbLine
10
-9.2525960573245225
20
6.843181818181816
30
0
11
-22.752272727272732
21
6.843181818181816
31
0
0
LINE
5
114
100
AcDbEntity
8
PERIMETER
100
AcDbLine
10
-22.752272727272732
20
6.843181818181816
30
0
11
-22.752272727272732
21
-6.843181818181816
31
0
0
LINE
5
115
100
AcDbEntity
8
PERIMETER
100
AcDbLine
10
-22.752272727272732
20
-6.843181818181816
30
0
11
-9.2525960573245225
21
-6.843181818181816
31
0
0
LINE
5
116
100
AcDbEntity
8
PERIMETER
100
AcDbLine
10
-9.2525960573245225
20
-6.843181818181816
30
0
11
-9.2525960573245225
21
-5.7431818181818217
31
0
0
LINE
5
117
100
AcDbEntity
8
PERIMETER
100
AcDbLine
10
-9.2525960573245225
20
-5.7431818181818217
30
0
11
6.3363606067475136
21
-5.7431818181818217
31
0
0
LINE
5
118
100
AcDbEntity
8
PERIMETER
100
AcDbLine
10
6.3363606067475153
20
-5.7431818181818217
30
0
11
6.3363606067475153
21
-6.843181818181816
31
0
0
LINE
5
119
100
AcDbEntity
8
PERIMETER
100
AcDbLine
10
6.3363606067475153
20
-6.843181818181816
30
0
11
22.752272727272729
21
-6.843181818181816
31
0
0
LINE
5
11A
100
AcDbEntity
8
PERIMETER
100
AcDbLine
10
22.752272727272729
20
-6.843181818181816
30
0
11
22.752272727272729
21
-5.6931818181818219
31
0
0
LINE
5
11B
100
AcDbEntity
8
PERIMETER
100
AcDbLine
10
22.752272727272732
20
-5.6931818181818228
30
0
11
21.652272727272734
21
-5.6931818181818228
31
0
0
LINE
5
11C
100
AcDbEntity
8
PERIMETER
100
AcDbLine
10
21.652272727272734
20
-5.6931818181818228
30
0
11
21.652272727272734
21
-3.0250000000000075
31
0
0
LINE
5
11D
100
AcDbEntity
8
PERIMETER
100
AcDbLine
10
21.652272727272731
20
-3.025000000000007
30
0
11
22.752272727272729
21
-3.025000000000007
31
0
0
LINE
5
11E
100
AcDbEntity
8
PERIMETER
100
AcDbLine
10
22.752272727272732
20
-3.025000000000007
30
0
11
22.752272727272732
21
3.0249999999999972
31
0
0
LINE
5
11F
100
AcDbEntity
8
PERIMETER
100
AcDbLine
10
22.752272727272732
20
3.0249999999999977
30
0
11
21.652272727272734
21
3.0249999999999977
31
0
0
ENDSEC
0
SECTION
2
OBJECTS
0
DICTIONARY
5
C
100
AcDbDictionary
3
ACAD_GROUP
350
D
3
ACAD_MLINESTYLE
350
17
0
DICTIONARY
5
D
100
AcDbDictionary
0
DICTIONARY
5
1A
330
C
100
AcDbDictionary
0
DICTIONARY
5
17
100
AcDbDictionary
0
ENDSEC
0
EOF
