0
SECTION
2
HEADER
9
$INSUNITS
70
4
9
$ACADVER
1
AC1014
9
$HANDSEED
5
FFFF
0
ENDSEC
0
SECTION
2
TABLES
0
TABLE
2
VPORT
5
8
100
AcDbSymbolTable
0
ENDTAB
0
TABLE
2
LTYPE
5
5
100
AcDbSymbolTable
70
2
0
LTYPE
5
14
100
AcDbSymbolTableRecord
100
AcDbLinetypeTableRecord
2
BYBLOCK
70
0
0
LTYPE
5
15
100
AcDbSymbolTableRecord
100
AcDbLinetypeTableRecord
2
BYLAYER
70
0
0
ENDTAB
0
TABLE
2
LAYER
5
2
100
AcDbSymbolTable
70
3
0
LAYER
5
50
100
AcDbSymbolTableRecord
100
AcDbLayerTableRecord
2
0
70
0
6
CONTINUOUS
0
LAYER
5
51
100
AcDbSymbolTableRecord
100
AcDbLayerTableRecord
2
CUTOUTS
70
0
62
1
6
CONTINUOUS
0
LAYER
5
52
100
AcDbSymbolTableRecord
100
AcDbLayerTableRecord
2
PERIMETER
70
0
62
5
6
CONTINUOUS
0
ENDTAB
0
TABLE
2
STYLE
5
3
100
AcDbSymbolTable
70
1
0
STYLE
5
11
100
AcDbSymbolTableRecord
100
AcDbTextStyleTableRecord
2
STANDARD
70
0
0
ENDTAB
0
TABLE
2
VIEW
5
6
100
AcDbSymbolTable
0
ENDTAB
0
TABLE
2
UCS
5
7
100
AcDbSymbolTable
0
ENDTAB
0
TABLE
2
APPID
5
9
100
AcDbSymbolTable
70
1
0
APPID
5
12
100
AcDbSymbolTableRecord
100
AcDbRegAppTableRecord
2
ACAD
70
0
0
ENDTAB
0
TABLE
2
DIMSTYLE
5
A
100
AcDbSymbolTable
0
ENDTAB
0
TABLE
2
BLOCK_RECORD
5
1
100
AcDbSymbolTable
70
2
0
BLOCK_RECORD
5
1F
100
AcDbSymbolTableRecord
100
AcDbBlockTableRecord
2
*MODEL_SPACE
0
BLOCK_RECORD
5
1B
100
AcDbSymbolTableRecord
100
AcDbBlockTableRecord
2
*PAPER_SPACE
0
ENDTAB
0
ENDSEC
0
SECTION
2
BLOCKS
0
BLOCK
5
20
100
AcDbEntity
100
AcDbBlockBegin
2
*MODEL_SPACE
0
ENDBLK
5
21
100
AcDbEntity
100
AcDbBlockEnd
0
BLOCK
5
1C
100
AcDbEntity
100
AcDbBlockBegin
2
*PAPER_SPACE
0
ENDBLK
5
1D
100
AcDbEntity
100
AcDbBlockEnd
0
ENDSEC
0
SECTION
2
ENTITIES
0
CIRCLE
5
100
100
AcDbEntity
8
CUTOUTS
100
AcDbCircle
10
-25.769014313588979
20
17.097919300446041
30
0
40
1.0749999999999993
210
0
220
0
230
1
0
CIRCLE
5
101
100
AcDbEntity
8
CUTOUTS
100
AcDbCircle
10
13.446689812931986
20
-25.70625254367279
30
0
40
1.0750000000000015
210
0
220
0
230
1
0
LINE
5
102
100
AcDbEntity
8
CUTOUTS
100
AcDbLine
10
12.934090909090914
20
26.802272727272729
30
0
11
15.934090909090912
21
26.802272727272729
31
0
0
LINE
5
103
100
AcDbEntity
8
CUTOUTS
100
AcDbLine
10
15.934090909090912
20
26.802272727272729
30
0
11
15.934090909090912
21
38.015909090909091
31
0
0
LINE
5
104
100
AcDbEntity
8
CUTOUTS
100
AcDbLine
10
15.934090909090912
20
38.015909090909091
30
0
11
-14.434090909090926
21
38.015909090909091
31
0
0
LINE
5
105
100
AcDbEntity
8
CUTOUTS
100
AcDbLine
10
-14.434090909090926
20
38.015909090909091
30
0
11
-14.434090909090926
21
36.515909090909091
31
0
0
LINE
5
106
100
AcDbEntity
8
CUTOUTS
100
AcDbLine
10
-14.434090909090926
20
36.515909090909091
30
0
11
-15.934090909090926
21
36.515909090909091
31
0
0
LINE
5
107
100
AcDbEntity
8
CUTOUTS
100
AcDbLine
10
-15.934090909090926
20
36.515909090909091
30
0
11
-15.934090909090909
21
26.802272727272729
31
0
0
LINE
5
108
100
AcDbEntity
8
CUTOUTS
100
AcDbLine
10
-15.934090909090909
20
26.802272727272729
30
0
11
-12.934090909090909
21
26.802272727272729
31
0
0
LINE
5
109
100
AcDbEntity
8
CUTOUTS
100
AcDbLine
10
-12.934090909090909
20
26.802272727272729
30
0
11
-12.934090909090909
21
25.752272727272725
31
0
0
LINE
5
10A
100
AcDbEntity
8
CUTOUTS
100
AcDbLine
10
-12.934090909090909
20
25.752272727272725
30
0
11
-15.884090909090911
21
25.752272727272725
31
0
0
LINE
5
10B
100
AcDbEntity
8
CUTOUTS
100
AcDbLine
10
-15.884090909090911
20
25.752272727272725
30
0
11
-15.884090909090924
21
25.934090909090898
31
0
0
LINE
5
10C
100
AcDbEntity
8
CUTOUTS
100
AcDbLine
10
-15.884090909090924
20
25.934090909090898
30
0
11
-16.984090909090924
21
25.934090909090898
31
0
0
LINE
5
10D
100
AcDbEntity
8
CUTOUTS
100
AcDbLine
10
-16.984090909090924
20
25.934090909090898
30
0
11
-16.984090909090938
21
39.065909090909095
31
0
0
LINE
5
10E
100
AcDbEntity
8
CUTOUTS
100
AcDbLine
10
-16.984090909090938
20
39.065909090909095
30
0
11
16.984090909090913
21
39.065909090909095
31
0
0
LINE
5
10F
100
AcDbEntity
8
CUTOUTS
100
AcDbLine
10
16.984090909090913
20
39.065909090909095
30
0
11
16.984090909090913
21
25.934090909090909
31
0
0
LINE
5
110
100
AcDbEntity
8
CUTOUTS
100
AcDbLine
10
16.984090909090913
20
25.934090909090909
30
0
11
15.884090909090913
21
25.934090909090909
31
0
0
LINE
5
111
100
AcDbEntity
8
CUTOUTS
100
AcDbLine
10
15.884090909090913
20
25.934090909090909
30
0
11
15.884090909090913
21
25.752272727272725
31
0
0
LINE
5
112
100
AcDbEntity
8
CUTOUTS
100
AcDbLine
10
15.884090909090913
20
25.752272727272725
30
0
11
12.934090909090914
21
25.752272727272725
31
0
0
LINE
5
113
100
AcDbEntity
8
CUTOUTS
100
AcDbLine
10
12.934090909090914
20
25.752272727272725
30
0
11
12.934090909090914
21
26.802272727272729
31
0
0
LINE
5
114
100
AcDbEntity
8
CUTOUTS
100
AcDbLine
10
-5.7068181818181918
20
-28.015909090909087
30
0
11
-5.7068181818181909
21
-29.065909090909088
31
0
0
LINE
5
115
100
AcDbEntity
8
CUTOUTS
100
AcDbLine
10
-5.7068181818181909
20
-29.065909090909088
30
0
11
-14.834090909090904
21
-29.065909090909088
31
0
0
LINE
5
116
100
AcDbEntity
8
CUTOUTS
100
AcDbLine
10
-14.834090909090904
20
-29.065909090909088
30
0
11
-14.834090909090904
21
-30.165909090909089
31
0
0
LINE
5
117
100
AcDbEntity
8
CUTOUTS
100
AcDbLine
10
-14.834090909090904
20
-30.165909090909089
30
0
11
-16.984090909090938
21
-30.165909090909089
31
0
0
LINE
5
118
100
AcDbEntity
8
CUTOUTS
100
AcDbLine
10
-16.984090909090938
20
-30.165909090909089
30
0
11
-16.984090909090906
21
-24.940122283728986
31
0
0
LINE
5
119
100
AcDbEntity
8
CUTOUTS
100
AcDbLine
10
-16.984090909090906
20
-24.940122283728986
30
0
11
-25.154009502990856
21
-24.940122283728993
31
0
0
LINE
5
11A
100
AcDbEntity
8
CUTOUTS
100
AcDbLine
10
-25.154009502990856
20
-24.940122283728993
30
0
11
-25.154009502990856
21
-23.890122283728982
31
0
0
LINE
5
11B
100
AcDbEntity
8
CUTOUTS
100
AcDbLine
10
-25.154009502990856
20
-23.890122283728982
30
0
11
-16.984090909090906
21
-23.890122283728989
31
0
0
LINE
5
11C
100
AcDbEntity
8
CUTOUTS
100
AcDbLine
10
-16.984090909090906
20
-23.890122283728989
30
0
11
-16.984090909090909
21
-12.403758647365354
31
0
0
LINE
5
11D
100
AcDbEntity
8
CUTOUTS
100
AcDbLine
10
-16.984090909090909
20
-12.403758647365354
30
0
11
-25.154009502990856
21
-12.403758647365354
31
0
0
LINE
5
11E
100
AcDbEntity
8
CUTOUTS
100
AcDbLine
10
-25.154009502990856
20
-12.403758647365354
30
0
11
-25.154009502990856
21
-11.35375864736536
31
0
0
LINE
5
11F
100
AcDbEntity
8
CUTOUTS
100
AcDbLine
10
-25.154009502990856
20
-11.35375864736536
30
0
11
-16.984090909090909
21
-11.35375864736535
31
0
0
LINE
5
120
100
AcDbEntity
8
CUTOUTS
100
AcDbLine
10
-16.984090909090909
20
-11.35375864736535
30
0
11
-16.984090909090913
21
-5.2977272727272808
31
0
0
LINE
5
121
100
AcDbEntity
8
CUTOUTS
100
AcDbLine
10
-16.984090909090913
20
-5.2977272727272808
30
0
11
-15.934090909090909
21
-5.2977272727272817
31
0
0
LINE
5
122
100
AcDbEntity
8
CUTOUTS
100
AcDbLine
10
-15.934090909090909
20
-5.2977272727272817
30
0
11
-15.934090909090909
21
-6.197727272727275
31
0
0
LINE
5
123
100
AcDbEntity
8
CUTOUTS
100
AcDbLine
10
-15.934090909090909
20
-6.197727272727275
30
0
11
-12.934090909090909
21
-6.197727272727275
31
0
0
LINE
5
124
100
AcDbEntity
8
CUTOUTS
100
AcDbLine
10
-12.934090909090909
20
-6.197727272727275
30
0
11
-12.934090909090909
21
-7.2477272727272757
31
0
0
LINE
5
125
100
AcDbEntity
8
CUTOUTS
100
AcDbLine
10
-12.934090909090909
20
-7.2477272727272757
30
0
11
-15.934090909090909
21
-7.2477272727272757
31
0
0
LINE
5
126
100
AcDbEntity
8
CUTOUTS
100
AcDbLine
10
-15.934090909090909
20
-7.2477272727272757
30
0
11
-15.934090909090909
21
-11.353758647365355
31
0
0
LINE
5
127
100
AcDbEntity
8
CUTOUTS
100
AcDbLine
10
-15.934090909090909
20
-11.353758647365355
30
0
11
-11.567645866627199
21
-11.35375864736536
31
0
0
LINE
5
128
100
AcDbEntity
8
CUTOUTS
100
AcDbLine
10
-11.567645866627199
20
-11.35375864736536
30
0
11
-11.567645866627199
21
-12.403758647365354
31
0
0
LINE
5
129
100
AcDbEntity
8
CUTOUTS
100
AcDbLine
10
-11.567645866627199
20
-12.403758647365354
30
0
11
-15.934090909090909
21
-12.403758647365354
31
0
0
LINE
5
12A
100
AcDbEntity
8
CUTOUTS
100
AcDbLine
10
-15.934090909090909
20
-12.403758647365354
30
0
11
-15.934090909090903
21
-23.890122283728985
31
0
0
LINE
5
12B
100
AcDbEntity
8
CUTOUTS
100
AcDbLine
10
-15.934090909090903
20
-23.890122283728985
30
0
11
-11.567645866627199
21
-23.890122283728985
31
0
0
LINE
5
12C
100
AcDbEntity
8
CUTOUTS
100
AcDbLine
10
-11.567645866627199
20
-23.890122283728985
30
0
11
-11.567645866627199
21
-24.940122283728989
31
0
0
LINE
5
12D
100
AcDbEntity
8
CUTOUTS
100
AcDbLine
10
-11.567645866627199
20
-24.940122283728989
30
0
11
-15.934090909090902
21
-24.940122283728989
31
0
0
LINE
5
12E
100
AcDbEntity
8
CUTOUTS
100
AcDbLine
10
-15.934090909090902
20
-24.940122283728989
30
0
11
-15.934090909090898
21
-28.015909090909087
31
0
0
LINE
5
12F
100
AcDbEntity
8
CUTOUTS
100
AcDbLine
10
-15.934090909090898
20
-28.015909090909087
30
0
11
-5.7068181818181918
21
-28.015909090909087
31
0
0
LINE
5
130
100
AcDbEntity
8
CUTOUTS
100
AcDbLine
10
-25.154009502990856
20
-21.121940465547176
30
0
11
-25.154009502990856
21
-15.17194046554717
31
0
0
LINE
5
131
100
AcDbEntity
8
CUTOUTS
100
AcDbLine
10
-25.154009502990856
20
-15.17194046554717
30
0
11
-24.104009502990856
21
-15.17194046554717
31
0
0
LINE
5
132
100
AcDbEntity
8
CUTOUTS
100
AcDbLine
10
-24.104009502990856
20
-15.17194046554717
30
0
11
-24.104009502990856
21
-21.121940465547176
31
0
0
LINE
5
133
100
AcDbEntity
8
CUTOUTS
100
AcDbLine
10
-24.104009502990856
20
-21.121940465547176
30
0
11
-25.154009502990856
21
-21.121940465547176
31
0
0
LINE
5
134
100
AcDbEntity
8
CUTOUTS
100
AcDbLine
10
15.934090909090912
20
-6.197727272727275
30
0
11
15.934090909090912
21
-5.2977272727272755
31
0
0
LINE
5
135
100
AcDbEntity
8
CUTOUTS
100
AcDbLine
10
15.934090909090912
20
-5.2977272727272755
30
0
11
16.984090909090913
21
-5.2977272727272728
31
0
0
LINE
5
136
100
AcDbEntity
8
CUTOUTS
100
AcDbLine
10
16.984090909090913
20
-5.2977272727272728
30
0
11
16.984090909090913
21
-30.165909090909089
31
0
0
LINE
5
137
100
AcDbEntity
8
CUTOUTS
100
AcDbLine
10
16.984090909090913
20
-30.165909090909089
30
0
11
14.834090909090881
21
-30.165909090909089
31
0
0
LINE
5
138
100
AcDbEntity
8
CUTOUTS
100
AcDbLine
10
14.834090909090881
20
-30.165909090909089
30
0
11
14.834090909090881
21
-29.065909090909088
31
0
0
LINE
5
139
100
AcDbEntity
8
CUTOUTS
100
AcDbLine
10
14.834090909090881
20
-29.065909090909088
30
0
11
5.7068181818181731
21
-29.065909090909088
31
0
0
LINE
5
13A
100
AcDbEntity
8
CUTOUTS
100
AcDbLine
10
5.7068181818181731
20
-29.065909090909088
30
0
11
5.7068181818181731
21
-28.015909090909084
31
0
0
LINE
5
13B
100
AcDbEntity
8
CUTOUTS
100
AcDbLine
10
5.7068181818181731
20
-28.015909090909087
30
0
11
15.934090909090912
21
-28.015909090909087
31
0
0
LINE
5
13C
100
AcDbEntity
8
CUTOUTS
100
AcDbLine
10
15.934090909090912
20
-28.015909090909087
30
0
11
15.934090909090912
21
-7.2477272727272757
31
0
0
LINE
5
13D
100
AcDbEntity
8
CUTOUTS
100
AcDbLine
10
15.934090909090912
20
-7.2477272727272757
30
0
11
12.934090909090914
21
-7.2477272727272757
31
0
0
LINE
5
13E
100
AcDbEntity
8
CUTOUTS
100
AcDbLine
10
12.934090909090914
20
-7.2477272727272757
30
0
11
12.934090909090914
21
-6.197727272727275
31
0
0
LINE
5
13F
100
AcDbEntity
8
CUTOUTS
100
AcDbLine
10
12.934090909090914
20
-6.197727272727275
30
0
11
15.934090909090912
21
-6.197727272727275
31
0
0
LINE
5
140
100
AcDbEntity
8
CUTOUTS
100
AcDbLine
10
15.934090909090912
20
3.8022727272727264
30
0
11
28.470454545454555
21
3.8022727272727241
31
0
0
LINE
5
141
100
AcDbEntity
8
CUTOUTS
100
AcDbLine
10
28.470454545454555
20
3.8022727272727241
30
0
11
28.470454545454555
21
19.834090909090904
31
0
0
LINE
5
142
100
AcDbEntity
8
CUTOUTS
100
AcDbLine
10
28.470454545454555
20
19.834090909090904
30
0
11
15.934090909090912
21
19.834090909090921
31
0
0
LINE
5
143
100
AcDbEntity
8
CUTOUTS
100
AcDbLine
10
15.934090909090912
20
19.834090909090921
30
0
11
15.934090909090912
21
20.884090909090926
31
0
0
LINE
5
144
100
AcDbEntity
8
CUTOUTS
100
AcDbLine
10
15.934090909090912
20
20.884090909090926
30
0
11
29.520454545454555
21
20.884090909090926
31
0
0
LINE
5
145
100
AcDbEntity
8
CUTOUTS
100
AcDbLine
10
29.520454545454555
20
20.884090909090926
30
0
11
29.520454545454555
21
2.7522727272727221
31
0
0
LINE
5
146
100
AcDbEntity
8
CUTOUTS
100
AcDbLine
10
29.520454545454555
20
2.7522727272727221
30
0
11
15.934090909090912
21
2.7522727272727243
31
0
0
LINE
5
147
100
AcDbEntity
8
CUTOUTS
100
AcDbLine
10
15.934090909090912
20
2.7522727272727243
30
0
11
15.934090909090912
21
3.8022727272727264
31
0
0
LINE
5
148
100
AcDbEntity
8
CUTOUTS
100
AcDbLine
10
-29.520454545454573
20
2.7522727272727221
30
0
11
-29.520454545454573
21
20.884090909090926
31
0
0
LINE
5
149
100
AcDbEntity
8
CUTOUTS
100
AcDbLine
10
-29.520454545454573
20
20.884090909090926
30
0
11
-15.93409090909093
21
20.884090909090926
31
0
0
LINE
5
14A
100
AcDbEntity
8
CUTOUTS
100
AcDbLine
10
-15.93409090909093
20
20.884090909090926
30
0
11
-15.93409090909093
21
19.834090909090921
31
0
0
LINE
5
14B
100
AcDbEntity
8
CUTOUTS
100
AcDbLine
10
-15.93409090909093
20
19.834090909090921
30
0
11
-28.470454545454565
21
19.834090909090889
31
0
0
LINE
5
14C
100
AcDbEntity
8
CUTOUTS
100
AcDbLine
10
-28.470454545454565
20
19.834090909090889
30
0
11
-28.470454545454555
21
3.802272727272713
31
0
0
LINE
5
14D
100
AcDbEntity
8
CUTOUTS
100
AcDbLine
10
-28.470454545454555
20
3.802272727272713
30
0
11
-15.93409090909093
21
3.8022727272727264
31
0
0
LINE
5
14E
100
AcDbEntity
8
CUTOUTS
100
AcDbLine
10
-15.93409090909093
20
3.8022727272727264
30
0
11
-15.93409090909093
21
2.7522727272727243
31
0
0
LINE
5
14F
100
AcDbEntity
8
CUTOUTS
100
AcDbLine
10
-15.93409090909093
20
2.7522727272727243
30
0
11
-29.520454545454573
21
2.7522727272727221
31
0
0
LINE
5
150
100
AcDbEntity
8
CUTOUTS
100
AcDbLine
10
-12.6176458666272
20
-20.891329819094508
30
0
11
-12.6176458666272
21
-15.402551111999836
31
0
0
LINE
5
151
100
AcDbEntity
8
CUTOUTS
100
AcDbLine
10
-12.6176458666272
20
-15.402551111999836
30
0
11
-11.567645866627199
21
-15.402551111999836
31
0
0
LINE
5
152
100
AcDbEntity
8
CUTOUTS
100
AcDbLine
10
-11.567645866627199
20
-15.402551111999836
30
0
11
-11.567645866627199
21
-20.891329819094508
31
0
0
LINE
5
153
100
AcDbEntity
8
CUTOUTS
100
AcDbLine
10
-11.567645866627199
20
-20.891329819094508
30
0
11
-12.6176458666272
21
-20.891329819094508
31
0
0
LINE
5
154
100
AcDbEntity
8
PERIMETER
100
AcDbLine
10
34.57045454545456
20
44.115909090909106
30
0
11
-34.57045454545456
21
44.115909090909099
31
0
0
LINE
5
155
100
AcDbEntity
8
PERIMETER
100
AcDbLine
10
-34.57045454545456
20
44.115909090909099
30
0
11
-34.570454545454552
21
-44.115909090909078
31
0
0
LINE
5
156
100
AcDbEntity
8
PERIMETER
100
AcDbLine
10
-34.570454545454552
20
-44.115909090909078
30
0
11
34.570454545454567
21
-44.115909090909099
31
0
0
LINE
5
157
100
AcDbEntity
8
PERIMETER
100
AcDbLine
10
34.570454545454567
20
-44.115909090909099
30
0
11
34.57045454545456
21
44.115909090909113
31
0
0
ENDSEC
0
SECTION
2
OBJECTS
0
DICTIONARY
5
C
100
AcDbDictionary
3
ACAD_GROUP
350
D
3
ACAD_MLINESTYLE
350
17
0
DICTIONARY
5
D
100
AcDbDictionary
0
DICTIONARY
5
1A
330
C
100
AcDbDictionary
0
DICTIONARY
5
17
100
AcDbDictionary
0
ENDSEC
0
EOF
