  0
SECTION
  2
HEADER
  9
$ACADVER
  1
AC1009
  9
$EXTMIN
 10
0.0
 20
0.0
 30
0.0
  9
$EXTMAX
 10
1000.0
 20
1000.0
 30
0.0
  9
$FILLMODE
 70
 0
  9
$SPLFRAME
 70
 1
  0
ENDSEC
  0
SECTION
  2
TABLES
  0
TABLE
  2
LAYER
 70
1
  0
LAYER
  2
0
 70
     0
 62
     7
  6
CONTINUOUS
  0
ENDTAB
  0
ENDSEC
  0
SECTION
  2
ENTITIES
  0
POLYLINE
  8
0
 62
     0
 66
     1
 10
0
 20
0
 30
0.0
 70
     1
 40
0
 41
0
  0
VERTEX
  8
0
 10
0
 20
209
 30
0.0
 40
0
 41
0
  0
VERTEX
  8
0
 10
69.141
 20
209
 30
0.0
 40
0
 41
0
  0
VERTEX
  8
0
 10
69.141
 20
120.768
 30
0.0
 40
0
 41
0
  0
VERTEX
  8
0
 10
0
 20
120.768
 30
0.0
 40
0
 41
0
  0
VERTEX
  8
0
 10
0
 20
209
 30
0.0
 40
0
 41
0
  0
SEQEND
 8
0
  0
POLYLINE
  8
0
 62
     0
 66
     1
 10
0
 20
0
 30
0.0
 70
     1
 40
0
 41
0
  0
VERTEX
  8
0
 10
9.87646
 20
181.982
 30
0.0
 40
0
 41
0
  0
VERTEX
  8
0
 10
9.87646
 20
181.928
 30
0.0
 40
0
 41
0
  0
VERTEX
  8
0
 10
9.8546
 20
181.765
 30
0.0
 40
0
 41
0
  0
VERTEX
  8
0
 10
9.79194
 20
181.564
 30
0.0
 40
0
 41
0
  0
VERTEX
  8
0
 10
9.69288
 20
181.381
 30
0.0
 40
0
 41
0
  0
VERTEX
  8
0
 10
9.56158
 20
181.222
 30
0.0
 40
0
 41
0
  0
VERTEX
  8
0
 10
9.40246
 20
181.09
 30
0.0
 40
0
 41
0
  0
VERTEX
  8
0
 10
9.21989
 20
180.992
 30
0.0
 40
0
 41
0
  0
VERTEX
  8
0
 10
9.01807
 20
180.929
 30
0.0
 40
0
 41
0
  0
VERTEX
  8
0
 10
8.85558
 20
180.907
 30
0.0
 40
0
 41
0
  0
VERTEX
  8
0
 10
8.80143
 20
180.907
 30
0.0
 40
0
 41
0
  0
VERTEX
  8
0
 10
8.74724
 20
180.907
 30
0.0
 40
0
 41
0
  0
VERTEX
  8
0
 10
8.58475
 20
180.929
 30
0.0
 40
0
 41
0
  0
VERTEX
  8
0
 10
8.38297
 20
180.992
 30
0.0
 40
0
 41
0
  0
VERTEX
  8
0
 10
8.20036
 20
181.09
 30
0.0
 40
0
 41
0
  0
VERTEX
  8
0
 10
8.04129
 20
181.222
 30
0.0
 40
0
 41
0
  0
VERTEX
  8
0
 10
7.91
 20
181.381
 30
0.0
 40
0
 41
0
  0
VERTEX
  8
0
 10
7.81093
 20
181.564
 30
0.0
 40
0
 41
0
  0
VERTEX
  8
0
 10
7.74826
 20
181.765
 30
0.0
 40
0
 41
0
  0
VERTEX
  8
0
 10
7.72646
 20
181.928
 30
0.0
 40
0
 41
0
  0
VERTEX
  8
0
 10
7.72646
 20
181.982
 30
0.0
 40
0
 41
0
  0
VERTEX
  8
0
 10
7.72646
 20
182.036
 30
0.0
 40
0
 41
0
  0
VERTEX
  8
0
 10
7.74826
 20
182.199
 30
0.0
 40
0
 41
0
  0
VERTEX
  8
0
 10
7.81093
 20
182.4
 30
0.0
 40
0
 41
0
  0
VERTEX
  8
0
 10
7.91
 20
182.583
 30
0.0
 40
0
 41
0
  0
VERTEX
  8
0
 10
8.04129
 20
182.742
 30
0.0
 40
0
 41
0
  0
VERTEX
  8
0
 10
8.20036
 20
182.874
 30
0.0
 40
0
 41
0
  0
VERTEX
  8
0
 10
8.38297
 20
182.972
 30
0.0
 40
0
 41
0
  0
VERTEX
  8
0
 10
8.58475
 20
183.035
 30
0.0
 40
0
 41
0
  0
VERTEX
  8
0
 10
8.74724
 20
183.057
 30
0.0
 40
0
 41
0
  0
VERTEX
  8
0
 10
8.80143
 20
183.057
 30
0.0
 40
0
 41
0
  0
VERTEX
  8
0
 10
8.85558
 20
183.057
 30
0.0
 40
0
 41
0
  0
VERTEX
  8
0
 10
9.01807
 20
183.035
 30
0.0
 40
0
 41
0
  0
VERTEX
  8
0
 10
9.21989
 20
182.972
 30
0.0
 40
0
 41
0
  0
VERTEX
  8
0
 10
9.40246
 20
182.874
 30
0.0
 40
0
 41
0
  0
VERTEX
  8
0
 10
9.56158
 20
182.742
 30
0.0
 40
0
 41
0
  0
VERTEX
  8
0
 10
9.69288
 20
182.583
 30
0.0
 40
0
 41
0
  0
VERTEX
  8
0
 10
9.79194
 20
182.4
 30
0.0
 40
0
 41
0
  0
VERTEX
  8
0
 10
9.8546
 20
182.199
 30
0.0
 40
0
 41
0
  0
VERTEX
  8
0
 10
9.87646
 20
182.036
 30
0.0
 40
0
 41
0
  0
VERTEX
  8
0
 10
9.87646
 20
181.982
 30
0.0
 40
0
 41
0
  0
SEQEND
 8
0
  0
POLYLINE
  8
0
 62
     0
 66
     1
 10
0
 20
0
 30
0.0
 70
     1
 40
0
 41
0
  0
VERTEX
  8
0
 10
49.0922
 20
139.178
 30
0.0
 40
0
 41
0
  0
VERTEX
  8
0
 10
49.0922
 20
139.124
 30
0.0
 40
0
 41
0
  0
VERTEX
  8
0
 10
49.0704
 20
138.961
 30
0.0
 40
0
 41
0
  0
VERTEX
  8
0
 10
49.0076
 20
138.759
 30
0.0
 40
0
 41
0
  0
VERTEX
  8
0
 10
48.9086
 20
138.577
 30
0.0
 40
0
 41
0
  0
VERTEX
  8
0
 10
48.7774
 20
138.418
 30
0.0
 40
0
 41
0
  0
VERTEX
  8
0
 10
48.6182
 20
138.286
 30
0.0
 40
0
 41
0
  0
VERTEX
  8
0
 10
48.4357
 20
138.187
 30
0.0
 40
0
 41
0
  0
VERTEX
  8
0
 10
48.2339
 20
138.125
 30
0.0
 40
0
 41
0
  0
VERTEX
  8
0
 10
48.0714
 20
138.103
 30
0.0
 40
0
 41
0
  0
VERTEX
  8
0
 10
48.0172
 20
138.103
 30
0.0
 40
0
 41
0
  0
VERTEX
  8
0
 10
47.9631
 20
138.103
 30
0.0
 40
0
 41
0
  0
VERTEX
  8
0
 10
47.8006
 20
138.125
 30
0.0
 40
0
 41
0
  0
VERTEX
  8
0
 10
47.5988
 20
138.187
 30
0.0
 40
0
 41
0
  0
VERTEX
  8
0
 10
47.4161
 20
138.286
 30
0.0
 40
0
 41
0
  0
VERTEX
  8
0
 10
47.2571
 20
138.418
 30
0.0
 40
0
 41
0
  0
VERTEX
  8
0
 10
47.1257
 20
138.577
 30
0.0
 40
0
 41
0
  0
VERTEX
  8
0
 10
47.0267
 20
138.759
 30
0.0
 40
0
 41
0
  0
VERTEX
  8
0
 10
46.964
 20
138.961
 30
0.0
 40
0
 41
0
  0
VERTEX
  8
0
 10
46.9422
 20
139.124
 30
0.0
 40
0
 41
0
  0
VERTEX
  8
0
 10
46.9422
 20
139.178
 30
0.0
 40
0
 41
0
  0
VERTEX
  8
0
 10
46.9422
 20
139.232
 30
0.0
 40
0
 41
0
  0
VERTEX
  8
0
 10
46.964
 20
139.394
 30
0.0
 40
0
 41
0
  0
VERTEX
  8
0
 10
47.0267
 20
139.596
 30
0.0
 40
0
 41
0
  0
VERTEX
  8
0
 10
47.1257
 20
139.779
 30
0.0
 40
0
 41
0
  0
VERTEX
  8
0
 10
47.2571
 20
139.938
 30
0.0
 40
0
 41
0
  0
VERTEX
  8
0
 10
47.4161
 20
140.069
 30
0.0
 40
0
 41
0
  0
VERTEX
  8
0
 10
47.5988
 20
140.168
 30
0.0
 40
0
 41
0
  0
VERTEX
  8
0
 10
47.8006
 20
140.231
 30
0.0
 40
0
 41
0
  0
VERTEX
  8
0
 10
47.9631
 20
140.253
 30
0.0
 40
0
 41
0
  0
VERTEX
  8
0
 10
48.0172
 20
140.253
 30
0.0
 40
0
 41
0
  0
VERTEX
  8
0
 10
48.0714
 20
140.253
 30
0.0
 40
0
 41
0
  0
VERTEX
  8
0
 10
48.2339
 20
140.231
 30
0.0
 40
0
 41
0
  0
VERTEX
  8
0
 10
48.4357
 20
140.168
 30
0.0
 40
0
 41
0
  0
VERTEX
  8
0
 10
48.6182
 20
140.069
 30
0.0
 40
0
 41
0
  0
VERTEX
  8
0
 10
48.7774
 20
139.938
 30
0.0
 40
0
 41
0
  0
VERTEX
  8
0
 10
48.9086
 20
139.779
 30
0.0
 40
0
 41
0
  0
VERTEX
  8
0
 10
49.0076
 20
139.596
 30
0.0
 40
0
 41
0
  0
VERTEX
  8
0
 10
49.0704
 20
139.394
 30
0.0
 40
0
 41
0
  0
VERTEX
  8
0
 10
49.0922
 20
139.232
 30
0.0
 40
0
 41
0
  0
VERTEX
  8
0
 10
49.0922
 20
139.178
 30
0.0
 40
0
 41
0
  0
SEQEND
 8
0
  0
POLYLINE
  8
0
 62
     0
 66
     1
 10
0
 20
0
 30
0.0
 70
     1
 40
0
 41
0
  0
VERTEX
  8
0
 10
47.5046
 20
190.636
 30
0.0
 40
0
 41
0
  0
VERTEX
  8
0
 10
50.4546
 20
190.636
 30
0.0
 40
0
 41
0
  0
VERTEX
  8
0
 10
50.4546
 20
190.818
 30
0.0
 40
0
 41
0
  0
VERTEX
  8
0
 10
51.5546
 20
190.818
 30
0.0
 40
0
 41
0
  0
VERTEX
  8
0
 10
51.5546
 20
203.95
 30
0.0
 40
0
 41
0
  0
VERTEX
  8
0
 10
17.5864
 20
203.95
 30
0.0
 40
0
 41
0
  0
VERTEX
  8
0
 10
17.5864
 20
190.818
 30
0.0
 40
0
 41
0
  0
VERTEX
  8
0
 10
18.6864
 20
190.818
 30
0.0
 40
0
 41
0
  0
VERTEX
  8
0
 10
18.6864
 20
190.636
 30
0.0
 40
0
 41
0
  0
VERTEX
  8
0
 10
21.6364
 20
190.636
 30
0.0
 40
0
 41
0
  0
VERTEX
  8
0
 10
21.6364
 20
191.686
 30
0.0
 40
0
 41
0
  0
VERTEX
  8
0
 10
18.6364
 20
191.686
 30
0.0
 40
0
 41
0
  0
VERTEX
  8
0
 10
18.6364
 20
201.4
 30
0.0
 40
0
 41
0
  0
VERTEX
  8
0
 10
20.1364
 20
201.4
 30
0.0
 40
0
 41
0
  0
VERTEX
  8
0
 10
20.1364
 20
202.9
 30
0.0
 40
0
 41
0
  0
VERTEX
  8
0
 10
50.5046
 20
202.9
 30
0.0
 40
0
 41
0
  0
VERTEX
  8
0
 10
50.5046
 20
191.686
 30
0.0
 40
0
 41
0
  0
VERTEX
  8
0
 10
47.5046
 20
191.686
 30
0.0
 40
0
 41
0
  0
VERTEX
  8
0
 10
47.5046
 20
190.636
 30
0.0
 40
0
 41
0
  0
SEQEND
 8
0
  0
POLYLINE
  8
0
 62
     0
 66
     1
 10
0
 20
0
 30
0.0
 70
     1
 40
0
 41
0
  0
VERTEX
  8
0
 10
18.6364
 20
136.868
 30
0.0
 40
0
 41
0
  0
VERTEX
  8
0
 10
18.6364
 20
139.944
 30
0.0
 40
0
 41
0
  0
VERTEX
  8
0
 10
23.0028
 20
139.944
 30
0.0
 40
0
 41
0
  0
VERTEX
  8
0
 10
23.0028
 20
140.994
 30
0.0
 40
0
 41
0
  0
VERTEX
  8
0
 10
18.6364
 20
140.994
 30
0.0
 40
0
 41
0
  0
VERTEX
  8
0
 10
18.6364
 20
152.481
 30
0.0
 40
0
 41
0
  0
VERTEX
  8
0
 10
23.0028
 20
152.481
 30
0.0
 40
0
 41
0
  0
VERTEX
  8
0
 10
23.0028
 20
153.531
 30
0.0
 40
0
 41
0
  0
VERTEX
  8
0
 10
18.6364
 20
153.531
 30
0.0
 40
0
 41
0
  0
VERTEX
  8
0
 10
18.6364
 20
157.636
 30
0.0
 40
0
 41
0
  0
VERTEX
  8
0
 10
21.6364
 20
157.636
 30
0.0
 40
0
 41
0
  0
VERTEX
  8
0
 10
21.6364
 20
158.686
 30
0.0
 40
0
 41
0
  0
VERTEX
  8
0
 10
18.6364
 20
158.686
 30
0.0
 40
0
 41
0
  0
VERTEX
  8
0
 10
18.6364
 20
159.586
 30
0.0
 40
0
 41
0
  0
VERTEX
  8
0
 10
17.5864
 20
159.586
 30
0.0
 40
0
 41
0
  0
VERTEX
  8
0
 10
17.5864
 20
153.531
 30
0.0
 40
0
 41
0
  0
VERTEX
  8
0
 10
9.41644
 20
153.531
 30
0.0
 40
0
 41
0
  0
VERTEX
  8
0
 10
9.41644
 20
152.481
 30
0.0
 40
0
 41
0
  0
VERTEX
  8
0
 10
17.5864
 20
152.481
 30
0.0
 40
0
 41
0
  0
VERTEX
  8
0
 10
17.5864
 20
140.994
 30
0.0
 40
0
 41
0
  0
VERTEX
  8
0
 10
9.41644
 20
140.994
 30
0.0
 40
0
 41
0
  0
VERTEX
  8
0
 10
9.41644
 20
139.944
 30
0.0
 40
0
 41
0
  0
VERTEX
  8
0
 10
17.5864
 20
139.944
 30
0.0
 40
0
 41
0
  0
VERTEX
  8
0
 10
17.5864
 20
134.718
 30
0.0
 40
0
 41
0
  0
VERTEX
  8
0
 10
19.7364
 20
134.718
 30
0.0
 40
0
 41
0
  0
VERTEX
  8
0
 10
19.7364
 20
135.818
 30
0.0
 40
0
 41
0
  0
VERTEX
  8
0
 10
28.8636
 20
135.818
 30
0.0
 40
0
 41
0
  0
VERTEX
  8
0
 10
28.8636
 20
136.868
 30
0.0
 40
0
 41
0
  0
VERTEX
  8
0
 10
18.6364
 20
136.868
 30
0.0
 40
0
 41
0
  0
SEQEND
 8
0
  0
POLYLINE
  8
0
 62
     0
 66
     1
 10
0
 20
0
 30
0.0
 70
     1
 40
0
 41
0
  0
VERTEX
  8
0
 10
9.41644
 20
149.712
 30
0.0
 40
0
 41
0
  0
VERTEX
  8
0
 10
10.4665
 20
149.712
 30
0.0
 40
0
 41
0
  0
VERTEX
  8
0
 10
10.4665
 20
143.763
 30
0.0
 40
0
 41
0
  0
VERTEX
  8
0
 10
9.41644
 20
143.763
 30
0.0
 40
0
 41
0
  0
VERTEX
  8
0
 10
9.41644
 20
149.712
 30
0.0
 40
0
 41
0
  0
SEQEND
 8
0
  0
POLYLINE
  8
0
 62
     0
 66
     1
 10
0
 20
0
 30
0.0
 70
     1
 40
0
 41
0
  0
VERTEX
  8
0
 10
47.5046
 20
158.686
 30
0.0
 40
0
 41
0
  0
VERTEX
  8
0
 10
47.5046
 20
157.636
 30
0.0
 40
0
 41
0
  0
VERTEX
  8
0
 10
50.5046
 20
157.636
 30
0.0
 40
0
 41
0
  0
VERTEX
  8
0
 10
50.5046
 20
136.868
 30
0.0
 40
0
 41
0
  0
VERTEX
  8
0
 10
40.2774
 20
136.868
 30
0.0
 40
0
 41
0
  0
VERTEX
  8
0
 10
40.2774
 20
135.818
 30
0.0
 40
0
 41
0
  0
VERTEX
  8
0
 10
49.4046
 20
135.818
 30
0.0
 40
0
 41
0
  0
VERTEX
  8
0
 10
49.4046
 20
134.718
 30
0.0
 40
0
 41
0
  0
VERTEX
  8
0
 10
51.5546
 20
134.718
 30
0.0
 40
0
 41
0
  0
VERTEX
  8
0
 10
51.5546
 20
159.586
 30
0.0
 40
0
 41
0
  0
VERTEX
  8
0
 10
50.5046
 20
159.586
 30
0.0
 40
0
 41
0
  0
VERTEX
  8
0
 10
50.5046
 20
158.686
 30
0.0
 40
0
 41
0
  0
VERTEX
  8
0
 10
47.5046
 20
158.686
 30
0.0
 40
0
 41
0
  0
SEQEND
 8
0
  0
POLYLINE
  8
0
 62
     0
 66
     1
 10
0
 20
0
 30
0.0
 70
     1
 40
0
 41
0
  0
VERTEX
  8
0
 10
50.5046
 20
167.636
 30
0.0
 40
0
 41
0
  0
VERTEX
  8
0
 10
64.091
 20
167.636
 30
0.0
 40
0
 41
0
  0
VERTEX
  8
0
 10
64.091
 20
185.768
 30
0.0
 40
0
 41
0
  0
VERTEX
  8
0
 10
50.5046
 20
185.768
 30
0.0
 40
0
 41
0
  0
VERTEX
  8
0
 10
50.5046
 20
184.718
 30
0.0
 40
0
 41
0
  0
VERTEX
  8
0
 10
63.041
 20
184.718
 30
0.0
 40
0
 41
0
  0
VERTEX
  8
0
 10
63.041
 20
168.686
 30
0.0
 40
0
 41
0
  0
VERTEX
  8
0
 10
50.5046
 20
168.686
 30
0.0
 40
0
 41
0
  0
VERTEX
  8
0
 10
50.5046
 20
167.636
 30
0.0
 40
0
 41
0
  0
SEQEND
 8
0
  0
POLYLINE
  8
0
 62
     0
 66
     1
 10
0
 20
0
 30
0.0
 70
     1
 40
0
 41
0
  0
VERTEX
  8
0
 10
18.6364
 20
167.636
 30
0.0
 40
0
 41
0
  0
VERTEX
  8
0
 10
18.6364
 20
168.686
 30
0.0
 40
0
 41
0
  0
VERTEX
  8
0
 10
6.09999
 20
168.686
 30
0.0
 40
0
 41
0
  0
VERTEX
  8
0
 10
6.09999
 20
184.718
 30
0.0
 40
0
 41
0
  0
VERTEX
  8
0
 10
18.6364
 20
184.718
 30
0.0
 40
0
 41
0
  0
VERTEX
  8
0
 10
18.6364
 20
185.768
 30
0.0
 40
0
 41
0
  0
VERTEX
  8
0
 10
5.05003
 20
185.768
 30
0.0
 40
0
 41
0
  0
VERTEX
  8
0
 10
5.05003
 20
167.636
 30
0.0
 40
0
 41
0
  0
VERTEX
  8
0
 10
18.6364
 20
167.636
 30
0.0
 40
0
 41
0
  0
SEQEND
 8
0
  0
POLYLINE
  8
0
 62
     0
 66
     1
 10
0
 20
0
 30
0.0
 70
     1
 40
0
 41
0
  0
VERTEX
  8
0
 10
21.9529
 20
149.482
 30
0.0
 40
0
 41
0
  0
VERTEX
  8
0
 10
23.0028
 20
149.482
 30
0.0
 40
0
 41
0
  0
VERTEX
  8
0
 10
23.0028
 20
143.993
 30
0.0
 40
0
 41
0
  0
VERTEX
  8
0
 10
21.9529
 20
143.993
 30
0.0
 40
0
 41
0
  0
VERTEX
  8
0
 10
21.9529
 20
149.482
 30
0.0
 40
0
 41
0
  0
SEQEND
 8
0
  0
POLYLINE
  8
0
 62
     0
 66
     1
 10
0
 20
0
 30
0.0
 70
     1
 40
0
 41
0
  0
VERTEX
  8
0
 10
90.7231
 20
153.846
 30
0.0
 40
0
 41
0
  0
VERTEX
  8
0
 10
96.9728
 20
151.485
 30
0.0
 40
0
 41
0
  0
VERTEX
  8
0
 10
96.9728
 20
131.635
 30
0.0
 40
0
 41
0
  0
VERTEX
  8
0
 10
70.141
 20
131.635
 30
0.0
 40
0
 41
0
  0
VERTEX
  8
0
 10
70.141
 20
147.436
 30
0.0
 40
0
 41
0
  0
VERTEX
  8
0
 10
77.9339
 20
147.436
 30
0.0
 40
0
 41
0
  0
VERTEX
  8
0
 10
77.9339
 20
148.486
 30
0.0
 40
0
 41
0
  0
VERTEX
  8
0
 10
70.141
 20
148.486
 30
0.0
 40
0
 41
0
  0
VERTEX
  8
0
 10
70.141
 20
180.436
 30
0.0
 40
0
 41
0
  0
VERTEX
  8
0
 10
77.9339
 20
180.436
 30
0.0
 40
0
 41
0
  0
VERTEX
  8
0
 10
77.9339
 20
181.486
 30
0.0
 40
0
 41
0
  0
VERTEX
  8
0
 10
70.141
 20
181.486
 30
0.0
 40
0
 41
0
  0
VERTEX
  8
0
 10
70.141
 20
209
 30
0.0
 40
0
 41
0
  0
VERTEX
  8
0
 10
96.9728
 20
209
 30
0.0
 40
0
 41
0
  0
VERTEX
  8
0
 10
96.9728
 20
199.179
 30
0.0
 40
0
 41
0
  0
VERTEX
  8
0
 10
85.4149
 20
199.179
 30
0.0
 40
0
 41
0
  0
VERTEX
  8
0
 10
85.4149
 20
185.592
 30
0.0
 40
0
 41
0
  0
VERTEX
  8
0
 10
96.9728
 20
185.592
 30
0.0
 40
0
 41
0
  0
VERTEX
  8
0
 10
96.9728
 20
173.357
 30
0.0
 40
0
 41
0
  0
VERTEX
  8
0
 10
90.7231
 20
170.994
 30
0.0
 40
0
 41
0
  0
VERTEX
  8
0
 10
91.1179
 20
169.95
 30
0.0
 40
0
 41
0
  0
VERTEX
  8
0
 10
96.9728
 20
172.163
 30
0.0
 40
0
 41
0
  0
VERTEX
  8
0
 10
96.9728
 20
152.678
 30
0.0
 40
0
 41
0
  0
VERTEX
  8
0
 10
91.1179
 20
154.892
 30
0.0
 40
0
 41
0
  0
VERTEX
  8
0
 10
90.7231
 20
153.846
 30
0.0
 40
0
 41
0
  0
SEQEND
 8
0
  0
POLYLINE
  8
0
 62
     0
 66
     1
 10
0
 20
0
 30
0.0
 70
     1
 40
0
 41
0
  0
VERTEX
  8
0
 10
46.3392
 20
106.082
 30
0.0
 40
0
 41
0
  0
VERTEX
  8
0
 10
32.8394
 20
106.082
 30
0.0
 40
0
 41
0
  0
VERTEX
  8
0
 10
32.8394
 20
107.182
 30
0.0
 40
0
 41
0
  0
VERTEX
  8
0
 10
17.2506
 20
107.182
 30
0.0
 40
0
 41
0
  0
VERTEX
  8
0
 10
17.2506
 20
106.082
 30
0.0
 40
0
 41
0
  0
VERTEX
  8
0
 10
0.834526
 20
106.082
 30
0.0
 40
0
 41
0
  0
VERTEX
  8
0
 10
0.834526
 20
107.232
 30
0.0
 40
0
 41
0
  0
VERTEX
  8
0
 10
1.93457
 20
107.232
 30
0.0
 40
0
 41
0
  0
VERTEX
  8
0
 10
1.93457
 20
110.13
 30
0.0
 40
0
 41
0
  0
VERTEX
  8
0
 10
0.834526
 20
110.13
 30
0.0
 40
0
 41
0
  0
VERTEX
  8
0
 10
0.834526
 20
115.719
 30
0.0
 40
0
 41
0
  0
VERTEX
  8
0
 10
1.93457
 20
115.719
 30
0.0
 40
0
 41
0
  0
VERTEX
  8
0
 10
1.93457
 20
118.618
 30
0.0
 40
0
 41
0
  0
VERTEX
  8
0
 10
0.834526
 20
118.618
 30
0.0
 40
0
 41
0
  0
VERTEX
  8
0
 10
0.834526
 20
119.768
 30
0.0
 40
0
 41
0
  0
VERTEX
  8
0
 10
17.2506
 20
119.768
 30
0.0
 40
0
 41
0
  0
VERTEX
  8
0
 10
17.2506
 20
118.668
 30
0.0
 40
0
 41
0
  0
VERTEX
  8
0
 10
32.8394
 20
118.668
 30
0.0
 40
0
 41
0
  0
VERTEX
  8
0
 10
32.8394
 20
119.768
 30
0.0
 40
0
 41
0
  0
VERTEX
  8
0
 10
46.3392
 20
119.768
 30
0.0
 40
0
 41
0
  0
VERTEX
  8
0
 10
46.3392
 20
106.082
 30
0.0
 40
0
 41
0
  0
SEQEND
 8
0
  0
POLYLINE
  8
0
 62
     0
 66
     1
 10
0
 20
0
 30
0.0
 70
     1
 40
0
 41
0
  0
VERTEX
  8
0
 10
37.7028
 20
114.491
 30
0.0
 40
0
 41
0
  0
VERTEX
  8
0
 10
42.1982
 20
114.491
 30
0.0
 40
0
 41
0
  0
VERTEX
  8
0
 10
42.1982
 20
111.359
 30
0.0
 40
0
 41
0
  0
VERTEX
  8
0
 10
37.7028
 20
111.359
 30
0.0
 40
0
 41
0
  0
VERTEX
  8
0
 10
37.7028
 20
114.491
 30
0.0
 40
0
 41
0
  0
SEQEND
 8
0
  0
POLYLINE
  8
0
 62
     0
 66
     1
 10
0
 20
0
 30
0.0
 70
     1
 40
0
 41
0
  0
VERTEX
  8
0
 10
21.4499
 20
100.306
 30
0.0
 40
0
 41
0
  0
VERTEX
  8
0
 10
21.4499
 20
85.7403
 30
0.0
 40
0
 41
0
  0
VERTEX
  8
0
 10
19.6
 20
85.7403
 30
0.0
 40
0
 41
0
  0
VERTEX
  8
0
 10
19.6
 20
90.8974
 30
0.0
 40
0
 41
0
  0
VERTEX
  8
0
 10
18.55
 20
90.8974
 30
0.0
 40
0
 41
0
  0
VERTEX
  8
0
 10
18.55
 20
85.7403
 30
0.0
 40
0
 41
0
  0
VERTEX
  8
0
 10
13.55
 20
85.7403
 30
0.0
 40
0
 41
0
  0
VERTEX
  8
0
 10
13.55
 20
84.6404
 30
0.0
 40
0
 41
0
  0
VERTEX
  8
0
 10
1.41813
 20
84.6404
 30
0.0
 40
0
 41
0
  0
VERTEX
  8
0
 10
1.41813
 20
91.7364
 30
0.0
 40
0
 41
0
  0
VERTEX
  8
0
 10
0.318143
 20
91.7364
 30
0.0
 40
0
 41
0
  0
VERTEX
  8
0
 10
0.318143
 20
99.6351
 30
0.0
 40
0
 41
0
  0
VERTEX
  8
0
 10
1.41813
 20
99.6351
 30
0.0
 40
0
 41
0
  0
VERTEX
  8
0
 10
1.41813
 20
103.781
 30
0.0
 40
0
 41
0
  0
VERTEX
  8
0
 10
18.55
 20
103.781
 30
0.0
 40
0
 41
0
  0
VERTEX
  8
0
 10
18.55
 20
97.8718
 30
0.0
 40
0
 41
0
  0
VERTEX
  8
0
 10
19.6
 20
97.8718
 30
0.0
 40
0
 41
0
  0
VERTEX
  8
0
 10
19.6
 20
103.781
 30
0.0
 40
0
 41
0
  0
VERTEX
  8
0
 10
35.6318
 20
103.781
 30
0.0
 40
0
 41
0
  0
VERTEX
  8
0
 10
35.6318
 20
97.8718
 30
0.0
 40
0
 41
0
  0
VERTEX
  8
0
 10
36.6818
 20
97.8718
 30
0.0
 40
0
 41
0
  0
VERTEX
  8
0
 10
36.6818
 20
103.781
 30
0.0
 40
0
 41
0
  0
VERTEX
  8
0
 10
68.5501
 20
103.781
 30
0.0
 40
0
 41
0
  0
VERTEX
  8
0
 10
68.5501
 20
97.8218
 30
0.0
 40
0
 41
0
  0
VERTEX
  8
0
 10
67.4501
 20
97.8218
 30
0.0
 40
0
 41
0
  0
VERTEX
  8
0
 10
67.4501
 20
90.9472
 30
0.0
 40
0
 41
0
  0
VERTEX
  8
0
 10
68.5501
 20
90.9472
 30
0.0
 40
0
 41
0
  0
VERTEX
  8
0
 10
68.5501
 20
84.6404
 30
0.0
 40
0
 41
0
  0
VERTEX
  8
0
 10
44.6818
 20
84.6404
 30
0.0
 40
0
 41
0
  0
VERTEX
  8
0
 10
44.6818
 20
85.7403
 30
0.0
 40
0
 41
0
  0
VERTEX
  8
0
 10
36.6818
 20
85.7403
 30
0.0
 40
0
 41
0
  0
VERTEX
  8
0
 10
36.6818
 20
90.8974
 30
0.0
 40
0
 41
0
  0
VERTEX
  8
0
 10
35.6318
 20
90.8974
 30
0.0
 40
0
 41
0
  0
VERTEX
  8
0
 10
35.6318
 20
85.7403
 30
0.0
 40
0
 41
0
  0
VERTEX
  8
0
 10
32.5921
 20
85.7403
 30
0.0
 40
0
 41
0
  0
VERTEX
  8
0
 10
32.5921
 20
100.306
 30
0.0
 40
0
 41
0
  0
VERTEX
  8
0
 10
21.4499
 20
100.306
 30
0.0
 40
0
 41
0
  0
SEQEND
 8
0
  0
POLYLINE
  8
0
 62
     0
 66
     1
 10
0
 20
0
 30
0.0
 70
     1
 40
0
 41
0
  0
VERTEX
  8
0
 10
40.321
 20
93.3268
 30
0.0
 40
0
 41
0
  0
VERTEX
  8
0
 10
42.9761
 20
93.3268
 30
0.0
 40
0
 41
0
  0
VERTEX
  8
0
 10
42.9761
 20
98.7563
 30
0.0
 40
0
 41
0
  0
VERTEX
  8
0
 10
42.9761
 20
98.8457
 30
0.0
 40
0
 41
0
  0
VERTEX
  8
0
 10
42.9528
 20
99.1137
 30
0.0
 40
0
 41
0
  0
VERTEX
  8
0
 10
42.8844
 20
99.4608
 30
0.0
 40
0
 41
0
  0
VERTEX
  8
0
 10
42.7733
 20
99.7937
 30
0.0
 40
0
 41
0
  0
VERTEX
  8
0
 10
42.6214
 20
100.109
 30
0.0
 40
0
 41
0
  0
VERTEX
  8
0
 10
42.4307
 20
100.402
 30
0.0
 40
0
 41
0
  0
VERTEX
  8
0
 10
42.2036
 20
100.669
 30
0.0
 40
0
 41
0
  0
VERTEX
  8
0
 10
41.9422
 20
100.908
 30
0.0
 40
0
 41
0
  0
VERTEX
  8
0
 10
41.725
 20
101.066
 30
0.0
 40
0
 41
0
  0
VERTEX
  8
0
 10
41.6486
 20
101.113
 30
0.0
 40
0
 41
0
  0
VERTEX
  8
0
 10
41.5721
 20
101.066
 30
0.0
 40
0
 41
0
  0
VERTEX
  8
0
 10
41.3549
 20
100.908
 30
0.0
 40
0
 41
0
  0
VERTEX
  8
0
 10
41.0935
 20
100.669
 30
0.0
 40
0
 41
0
  0
VERTEX
  8
0
 10
40.8664
 20
100.402
 30
0.0
 40
0
 41
0
  0
VERTEX
  8
0
 10
40.6757
 20
100.109
 30
0.0
 40
0
 41
0
  0
VERTEX
  8
0
 10
40.5237
 20
99.7937
 30
0.0
 40
0
 41
0
  0
VERTEX
  8
0
 10
40.4125
 20
99.4608
 30
0.0
 40
0
 41
0
  0
VERTEX
  8
0
 10
40.3443
 20
99.1137
 30
0.0
 40
0
 41
0
  0
VERTEX
  8
0
 10
40.321
 20
98.8457
 30
0.0
 40
0
 41
0
  0
VERTEX
  8
0
 10
40.321
 20
98.7563
 30
0.0
 40
0
 41
0
  0
VERTEX
  8
0
 10
40.321
 20
93.3268
 30
0.0
 40
0
 41
0
  0
SEQEND
 8
0
  0
POLYLINE
  8
0
 62
     0
 66
     1
 10
0
 20
0
 30
0.0
 70
     1
 40
0
 41
0
  0
VERTEX
  8
0
 10
7.59369
 20
93.3268
 30
0.0
 40
0
 41
0
  0
VERTEX
  8
0
 10
10.2487
 20
93.3268
 30
0.0
 40
0
 41
0
  0
VERTEX
  8
0
 10
10.2487
 20
98.7563
 30
0.0
 40
0
 41
0
  0
VERTEX
  8
0
 10
10.2487
 20
98.8457
 30
0.0
 40
0
 41
0
  0
VERTEX
  8
0
 10
10.2255
 20
99.1137
 30
0.0
 40
0
 41
0
  0
VERTEX
  8
0
 10
10.1572
 20
99.4608
 30
0.0
 40
0
 41
0
  0
VERTEX
  8
0
 10
10.046
 20
99.7937
 30
0.0
 40
0
 41
0
  0
VERTEX
  8
0
 10
9.89399
 20
100.109
 30
0.0
 40
0
 41
0
  0
VERTEX
  8
0
 10
9.7034
 20
100.402
 30
0.0
 40
0
 41
0
  0
VERTEX
  8
0
 10
9.47629
 20
100.669
 30
0.0
 40
0
 41
0
  0
VERTEX
  8
0
 10
9.21485
 20
100.908
 30
0.0
 40
0
 41
0
  0
VERTEX
  8
0
 10
8.99761
 20
101.066
 30
0.0
 40
0
 41
0
  0
VERTEX
  8
0
 10
8.92122
 20
101.113
 30
0.0
 40
0
 41
0
  0
VERTEX
  8
0
 10
8.84478
 20
101.066
 30
0.0
 40
0
 41
0
  0
VERTEX
  8
0
 10
8.62756
 20
100.908
 30
0.0
 40
0
 41
0
  0
VERTEX
  8
0
 10
8.3661
 20
100.669
 30
0.0
 40
0
 41
0
  0
VERTEX
  8
0
 10
8.139
 20
100.402
 30
0.0
 40
0
 41
0
  0
VERTEX
  8
0
 10
7.94835
 20
100.109
 30
0.0
 40
0
 41
0
  0
VERTEX
  8
0
 10
7.79639
 20
99.7937
 30
0.0
 40
0
 41
0
  0
VERTEX
  8
0
 10
7.68522
 20
99.4608
 30
0.0
 40
0
 41
0
  0
VERTEX
  8
0
 10
7.61692
 20
99.1137
 30
0.0
 40
0
 41
0
  0
VERTEX
  8
0
 10
7.59369
 20
98.8457
 30
0.0
 40
0
 41
0
  0
VERTEX
  8
0
 10
7.59369
 20
98.7563
 30
0.0
 40
0
 41
0
  0
VERTEX
  8
0
 10
7.59369
 20
93.3268
 30
0.0
 40
0
 41
0
  0
SEQEND
 8
0
  0
POLYLINE
  8
0
 62
     0
 66
     1
 10
0
 20
0
 30
0.0
 70
     1
 40
0
 41
0
  0
VERTEX
  8
0
 10
76.2768
 20
82.7896
 30
0.0
 40
0
 41
0
  0
VERTEX
  8
0
 10
92.2044
 20
96.8368
 30
0.0
 40
0
 41
0
  0
VERTEX
  8
0
 10
92.2044
 20
66.0392
 30
0.0
 40
0
 41
0
  0
VERTEX
  8
0
 10
70.141
 20
66.0392
 30
0.0
 40
0
 41
0
  0
VERTEX
  8
0
 10
70.141
 20
81.3529
 30
0.0
 40
0
 41
0
  0
VERTEX
  8
0
 10
72.2804
 20
81.3529
 30
0.0
 40
0
 41
0
  0
VERTEX
  8
0
 10
72.2804
 20
82.4029
 30
0.0
 40
0
 41
0
  0
VERTEX
  8
0
 10
70.141
 20
82.4029
 30
0.0
 40
0
 41
0
  0
VERTEX
  8
0
 10
70.141
 20
114.271
 30
0.0
 40
0
 41
0
  0
VERTEX
  8
0
 10
72.2804
 20
114.271
 30
0.0
 40
0
 41
0
  0
VERTEX
  8
0
 10
72.2804
 20
115.321
 30
0.0
 40
0
 41
0
  0
VERTEX
  8
0
 10
70.141
 20
115.321
 30
0.0
 40
0
 41
0
  0
VERTEX
  8
0
 10
70.141
 20
130.635
 30
0.0
 40
0
 41
0
  0
VERTEX
  8
0
 10
92.2044
 20
130.635
 30
0.0
 40
0
 41
0
  0
VERTEX
  8
0
 10
92.2044
 20
99.8374
 30
0.0
 40
0
 41
0
  0
VERTEX
  8
0
 10
76.2768
 20
113.884
 30
0.0
 40
0
 41
0
  0
VERTEX
  8
0
 10
75.5381
 20
113.047
 30
0.0
 40
0
 41
0
  0
VERTEX
  8
0
 10
92.2172
 20
98.3371
 30
0.0
 40
0
 41
0
  0
VERTEX
  8
0
 10
75.5381
 20
83.6271
 30
0.0
 40
0
 41
0
  0
VERTEX
  8
0
 10
76.2768
 20
82.7896
 30
0.0
 40
0
 41
0
  0
SEQEND
 8
0
  0
POLYLINE
  8
0
 62
     0
 66
     1
 10
0
 20
0
 30
0.0
 70
     1
 40
0
 41
0
  0
VERTEX
  8
0
 10
100.538
 20
97.6733
 30
0.0
 40
0
 41
0
  0
VERTEX
  8
0
 10
95.3807
 20
97.6733
 30
0.0
 40
0
 41
0
  0
VERTEX
  8
0
 10
95.3807
 20
105.673
 30
0.0
 40
0
 41
0
  0
VERTEX
  8
0
 10
94.2807
 20
105.673
 30
0.0
 40
0
 41
0
  0
VERTEX
  8
0
 10
94.2807
 20
129.542
 30
0.0
 40
0
 41
0
  0
VERTEX
  8
0
 10
100.588
 20
129.542
 30
0.0
 40
0
 41
0
  0
VERTEX
  8
0
 10
100.588
 20
128.442
 30
0.0
 40
0
 41
0
  0
VERTEX
  8
0
 10
107.462
 20
128.442
 30
0.0
 40
0
 41
0
  0
VERTEX
  8
0
 10
107.462
 20
129.542
 30
0.0
 40
0
 41
0
  0
VERTEX
  8
0
 10
113.422
 20
129.542
 30
0.0
 40
0
 41
0
  0
VERTEX
  8
0
 10
113.422
 20
97.6733
 30
0.0
 40
0
 41
0
  0
VERTEX
  8
0
 10
107.512
 20
97.6733
 30
0.0
 40
0
 41
0
  0
VERTEX
  8
0
 10
107.512
 20
96.6233
 30
0.0
 40
0
 41
0
  0
VERTEX
  8
0
 10
113.422
 20
96.6233
 30
0.0
 40
0
 41
0
  0
VERTEX
  8
0
 10
113.422
 20
80.5915
 30
0.0
 40
0
 41
0
  0
VERTEX
  8
0
 10
107.512
 20
80.5915
 30
0.0
 40
0
 41
0
  0
VERTEX
  8
0
 10
107.512
 20
79.5415
 30
0.0
 40
0
 41
0
  0
VERTEX
  8
0
 10
113.422
 20
79.5415
 30
0.0
 40
0
 41
0
  0
VERTEX
  8
0
 10
113.422
 20
62.4097
 30
0.0
 40
0
 41
0
  0
VERTEX
  8
0
 10
109.276
 20
62.4097
 30
0.0
 40
0
 41
0
  0
VERTEX
  8
0
 10
109.276
 20
61.3097
 30
0.0
 40
0
 41
0
  0
VERTEX
  8
0
 10
101.377
 20
61.3097
 30
0.0
 40
0
 41
0
  0
VERTEX
  8
0
 10
101.377
 20
62.4097
 30
0.0
 40
0
 41
0
  0
VERTEX
  8
0
 10
94.2807
 20
62.4097
 30
0.0
 40
0
 41
0
  0
VERTEX
  8
0
 10
94.2807
 20
74.5415
 30
0.0
 40
0
 41
0
  0
VERTEX
  8
0
 10
95.3807
 20
74.5415
 30
0.0
 40
0
 41
0
  0
VERTEX
  8
0
 10
95.3807
 20
79.5415
 30
0.0
 40
0
 41
0
  0
VERTEX
  8
0
 10
100.538
 20
79.5415
 30
0.0
 40
0
 41
0
  0
VERTEX
  8
0
 10
100.538
 20
80.5915
 30
0.0
 40
0
 41
0
  0
VERTEX
  8
0
 10
95.3807
 20
80.5915
 30
0.0
 40
0
 41
0
  0
VERTEX
  8
0
 10
95.3807
 20
82.4415
 30
0.0
 40
0
 41
0
  0
VERTEX
  8
0
 10
109.946
 20
82.4415
 30
0.0
 40
0
 41
0
  0
VERTEX
  8
0
 10
109.946
 20
93.5836
 30
0.0
 40
0
 41
0
  0
VERTEX
  8
0
 10
95.3807
 20
93.5836
 30
0.0
 40
0
 41
0
  0
VERTEX
  8
0
 10
95.3807
 20
96.6233
 30
0.0
 40
0
 41
0
  0
VERTEX
  8
0
 10
100.538
 20
96.6233
 30
0.0
 40
0
 41
0
  0
VERTEX
  8
0
 10
100.538
 20
97.6733
 30
0.0
 40
0
 41
0
  0
SEQEND
 8
0
  0
POLYLINE
  8
0
 62
     0
 66
     1
 10
0
 20
0
 30
0.0
 70
     1
 40
0
 41
0
  0
VERTEX
  8
0
 10
102.967
 20
123.131
 30
0.0
 40
0
 41
0
  0
VERTEX
  8
0
 10
102.967
 20
125.786
 30
0.0
 40
0
 41
0
  0
VERTEX
  8
0
 10
108.397
 20
125.786
 30
0.0
 40
0
 41
0
  0
VERTEX
  8
0
 10
108.486
 20
125.786
 30
0.0
 40
0
 41
0
  0
VERTEX
  8
0
 10
108.754
 20
125.763
 30
0.0
 40
0
 41
0
  0
VERTEX
  8
0
 10
109.101
 20
125.694
 30
0.0
 40
0
 41
0
  0
VERTEX
  8
0
 10
109.434
 20
125.583
 30
0.0
 40
0
 41
0
  0
VERTEX
  8
0
 10
109.749
 20
125.431
 30
0.0
 40
0
 41
0
  0
VERTEX
  8
0
 10
110.042
 20
125.241
 30
0.0
 40
0
 41
0
  0
VERTEX
  8
0
 10
110.31
 20
125.013
 30
0.0
 40
0
 41
0
  0
VERTEX
  8
0
 10
110.548
 20
124.752
 30
0.0
 40
0
 41
0
  0
VERTEX
  8
0
 10
110.707
 20
124.535
 30
0.0
 40
0
 41
0
  0
VERTEX
  8
0
 10
110.753
 20
124.458
 30
0.0
 40
0
 41
0
  0
VERTEX
  8
0
 10
110.707
 20
124.382
 30
0.0
 40
0
 41
0
  0
VERTEX
  8
0
 10
110.548
 20
124.165
 30
0.0
 40
0
 41
0
  0
VERTEX
  8
0
 10
110.31
 20
123.903
 30
0.0
 40
0
 41
0
  0
VERTEX
  8
0
 10
110.042
 20
123.676
 30
0.0
 40
0
 41
0
  0
VERTEX
  8
0
 10
109.749
 20
123.486
 30
0.0
 40
0
 41
0
  0
VERTEX
  8
0
 10
109.434
 20
123.334
 30
0.0
 40
0
 41
0
  0
VERTEX
  8
0
 10
109.101
 20
123.222
 30
0.0
 40
0
 41
0
  0
VERTEX
  8
0
 10
108.754
 20
123.154
 30
0.0
 40
0
 41
0
  0
VERTEX
  8
0
 10
108.486
 20
123.131
 30
0.0
 40
0
 41
0
  0
VERTEX
  8
0
 10
108.397
 20
123.131
 30
0.0
 40
0
 41
0
  0
VERTEX
  8
0
 10
102.967
 20
123.131
 30
0.0
 40
0
 41
0
  0
SEQEND
 8
0
  0
POLYLINE
  8
0
 62
     0
 66
     1
 10
0
 20
0
 30
0.0
 70
     1
 40
0
 41
0
  0
VERTEX
  8
0
 10
102.967
 20
101.313
 30
0.0
 40
0
 41
0
  0
VERTEX
  8
0
 10
102.967
 20
103.968
 30
0.0
 40
0
 41
0
  0
VERTEX
  8
0
 10
108.397
 20
103.968
 30
0.0
 40
0
 41
0
  0
VERTEX
  8
0
 10
108.486
 20
103.968
 30
0.0
 40
0
 41
0
  0
VERTEX
  8
0
 10
108.754
 20
103.944
 30
0.0
 40
0
 41
0
  0
VERTEX
  8
0
 10
109.101
 20
103.876
 30
0.0
 40
0
 41
0
  0
VERTEX
  8
0
 10
109.434
 20
103.765
 30
0.0
 40
0
 41
0
  0
VERTEX
  8
0
 10
109.749
 20
103.613
 30
0.0
 40
0
 41
0
  0
VERTEX
  8
0
 10
110.042
 20
103.422
 30
0.0
 40
0
 41
0
  0
VERTEX
  8
0
 10
110.31
 20
103.195
 30
0.0
 40
0
 41
0
  0
VERTEX
  8
0
 10
110.548
 20
102.934
 30
0.0
 40
0
 41
0
  0
VERTEX
  8
0
 10
110.707
 20
102.717
 30
0.0
 40
0
 41
0
  0
VERTEX
  8
0
 10
110.753
 20
102.64
 30
0.0
 40
0
 41
0
  0
VERTEX
  8
0
 10
110.707
 20
102.564
 30
0.0
 40
0
 41
0
  0
VERTEX
  8
0
 10
110.548
 20
102.347
 30
0.0
 40
0
 41
0
  0
VERTEX
  8
0
 10
110.31
 20
102.085
 30
0.0
 40
0
 41
0
  0
VERTEX
  8
0
 10
110.042
 20
101.858
 30
0.0
 40
0
 41
0
  0
VERTEX
  8
0
 10
109.749
 20
101.667
 30
0.0
 40
0
 41
0
  0
VERTEX
  8
0
 10
109.434
 20
101.515
 30
0.0
 40
0
 41
0
  0
VERTEX
  8
0
 10
109.101
 20
101.404
 30
0.0
 40
0
 41
0
  0
VERTEX
  8
0
 10
108.754
 20
101.336
 30
0.0
 40
0
 41
0
  0
VERTEX
  8
0
 10
108.486
 20
101.313
 30
0.0
 40
0
 41
0
  0
VERTEX
  8
0
 10
108.397
 20
101.313
 30
0.0
 40
0
 41
0
  0
VERTEX
  8
0
 10
102.967
 20
101.313
 30
0.0
 40
0
 41
0
  0
SEQEND
 8
0
  0
POLYLINE
  8
0
 62
     0
 66
     1
 10
0
 20
0
 30
0.0
 70
     1
 40
0
 41
0
  0
VERTEX
  8
0
 10
102.967
 20
112.222
 30
0.0
 40
0
 41
0
  0
VERTEX
  8
0
 10
102.967
 20
114.877
 30
0.0
 40
0
 41
0
  0
VERTEX
  8
0
 10
108.397
 20
114.877
 30
0.0
 40
0
 41
0
  0
VERTEX
  8
0
 10
108.486
 20
114.877
 30
0.0
 40
0
 41
0
  0
VERTEX
  8
0
 10
108.754
 20
114.853
 30
0.0
 40
0
 41
0
  0
VERTEX
  8
0
 10
109.101
 20
114.785
 30
0.0
 40
0
 41
0
  0
VERTEX
  8
0
 10
109.434
 20
114.674
 30
0.0
 40
0
 41
0
  0
VERTEX
  8
0
 10
109.749
 20
114.522
 30
0.0
 40
0
 41
0
  0
VERTEX
  8
0
 10
110.042
 20
114.331
 30
0.0
 40
0
 41
0
  0
VERTEX
  8
0
 10
110.31
 20
114.104
 30
0.0
 40
0
 41
0
  0
VERTEX
  8
0
 10
110.548
 20
113.843
 30
0.0
 40
0
 41
0
  0
VERTEX
  8
0
 10
110.707
 20
113.626
 30
0.0
 40
0
 41
0
  0
VERTEX
  8
0
 10
110.753
 20
113.549
 30
0.0
 40
0
 41
0
  0
VERTEX
  8
0
 10
110.707
 20
113.473
 30
0.0
 40
0
 41
0
  0
VERTEX
  8
0
 10
110.548
 20
113.256
 30
0.0
 40
0
 41
0
  0
VERTEX
  8
0
 10
110.31
 20
112.994
 30
0.0
 40
0
 41
0
  0
VERTEX
  8
0
 10
110.042
 20
112.767
 30
0.0
 40
0
 41
0
  0
VERTEX
  8
0
 10
109.749
 20
112.576
 30
0.0
 40
0
 41
0
  0
VERTEX
  8
0
 10
109.434
 20
112.424
 30
0.0
 40
0
 41
0
  0
VERTEX
  8
0
 10
109.101
 20
112.313
 30
0.0
 40
0
 41
0
  0
VERTEX
  8
0
 10
108.754
 20
112.245
 30
0.0
 40
0
 41
0
  0
VERTEX
  8
0
 10
108.486
 20
112.222
 30
0.0
 40
0
 41
0
  0
VERTEX
  8
0
 10
108.397
 20
112.222
 30
0.0
 40
0
 41
0
  0
VERTEX
  8
0
 10
102.967
 20
112.222
 30
0.0
 40
0
 41
0
  0
SEQEND
 8
0
  0
POLYLINE
  8
0
 62
     0
 66
     1
 10
0
 20
0
 30
0.0
 70
     1
 40
0
 41
0
  0
VERTEX
  8
0
 10
102.967
 20
68.5853
 30
0.0
 40
0
 41
0
  0
VERTEX
  8
0
 10
102.967
 20
71.2403
 30
0.0
 40
0
 41
0
  0
VERTEX
  8
0
 10
108.397
 20
71.2403
 30
0.0
 40
0
 41
0
  0
VERTEX
  8
0
 10
108.486
 20
71.2403
 30
0.0
 40
0
 41
0
  0
VERTEX
  8
0
 10
108.754
 20
71.2171
 30
0.0
 40
0
 41
0
  0
VERTEX
  8
0
 10
109.101
 20
71.1487
 30
0.0
 40
0
 41
0
  0
VERTEX
  8
0
 10
109.434
 20
71.0376
 30
0.0
 40
0
 41
0
  0
VERTEX
  8
0
 10
109.749
 20
70.8857
 30
0.0
 40
0
 41
0
  0
VERTEX
  8
0
 10
110.042
 20
70.695
 30
0.0
 40
0
 41
0
  0
VERTEX
  8
0
 10
110.31
 20
70.4679
 30
0.0
 40
0
 41
0
  0
VERTEX
  8
0
 10
110.548
 20
70.2064
 30
0.0
 40
0
 41
0
  0
VERTEX
  8
0
 10
110.707
 20
69.9892
 30
0.0
 40
0
 41
0
  0
VERTEX
  8
0
 10
110.753
 20
69.9128
 30
0.0
 40
0
 41
0
  0
VERTEX
  8
0
 10
110.707
 20
69.8364
 30
0.0
 40
0
 41
0
  0
VERTEX
  8
0
 10
110.548
 20
69.6192
 30
0.0
 40
0
 41
0
  0
VERTEX
  8
0
 10
110.31
 20
69.3576
 30
0.0
 40
0
 41
0
  0
VERTEX
  8
0
 10
110.042
 20
69.1306
 30
0.0
 40
0
 41
0
  0
VERTEX
  8
0
 10
109.749
 20
68.94
 30
0.0
 40
0
 41
0
  0
VERTEX
  8
0
 10
109.434
 20
68.7879
 30
0.0
 40
0
 41
0
  0
VERTEX
  8
0
 10
109.101
 20
68.6768
 30
0.0
 40
0
 41
0
  0
VERTEX
  8
0
 10
108.754
 20
68.6085
 30
0.0
 40
0
 41
0
  0
VERTEX
  8
0
 10
108.486
 20
68.5853
 30
0.0
 40
0
 41
0
  0
VERTEX
  8
0
 10
108.397
 20
68.5853
 30
0.0
 40
0
 41
0
  0
VERTEX
  8
0
 10
102.967
 20
68.5853
 30
0.0
 40
0
 41
0
  0
SEQEND
 8
0
  0
POLYLINE
  8
0
 62
     0
 66
     1
 10
0
 20
0
 30
0.0
 70
     1
 40
0
 41
0
  0
VERTEX
  8
0
 10
38.3435
 20
82.8364
 30
0.0
 40
0
 41
0
  0
VERTEX
  8
0
 10
69.141
 20
82.8364
 30
0.0
 40
0
 41
0
  0
VERTEX
  8
0
 10
69.141
 20
60.7731
 30
0.0
 40
0
 41
0
  0
VERTEX
  8
0
 10
53.8274
 20
60.7731
 30
0.0
 40
0
 41
0
  0
VERTEX
  8
0
 10
53.8274
 20
62.9124
 30
0.0
 40
0
 41
0
  0
VERTEX
  8
0
 10
52.7774
 20
62.9124
 30
0.0
 40
0
 41
0
  0
VERTEX
  8
0
 10
52.7774
 20
60.7731
 30
0.0
 40
0
 41
0
  0
VERTEX
  8
0
 10
20.9092
 20
60.7731
 30
0.0
 40
0
 41
0
  0
VERTEX
  8
0
 10
20.9092
 20
62.9124
 30
0.0
 40
0
 41
0
  0
VERTEX
  8
0
 10
19.8592
 20
62.9124
 30
0.0
 40
0
 41
0
  0
VERTEX
  8
0
 10
19.8592
 20
60.7731
 30
0.0
 40
0
 41
0
  0
VERTEX
  8
0
 10
4.54546
 20
60.7731
 30
0.0
 40
0
 41
0
  0
VERTEX
  8
0
 10
4.54546
 20
82.8364
 30
0.0
 40
0
 41
0
  0
VERTEX
  8
0
 10
35.3431
 20
82.8364
 30
0.0
 40
0
 41
0
  0
VERTEX
  8
0
 10
21.2958
 20
66.9088
 30
0.0
 40
0
 41
0
  0
VERTEX
  8
0
 10
22.1333
 20
66.1701
 30
0.0
 40
0
 41
0
  0
VERTEX
  8
0
 10
36.8432
 20
82.8492
 30
0.0
 40
0
 41
0
  0
VERTEX
  8
0
 10
51.5532
 20
66.1701
 30
0.0
 40
0
 41
0
  0
VERTEX
  8
0
 10
52.3907
 20
66.9088
 30
0.0
 40
0
 41
0
  0
VERTEX
  8
0
 10
38.3435
 20
82.8364
 30
0.0
 40
0
 41
0
  0
SEQEND
 8
0
  0
POLYLINE
  8
0
 62
     0
 66
     1
 10
0
 20
0
 30
0.0
 70
     1
 40
0
 41
0
  0
VERTEX
  8
0
 10
99.3426
 20
144.237
 30
0.0
 40
0
 41
0
  0
VERTEX
  8
0
 10
98.2426
 20
144.237
 30
0.0
 40
0
 41
0
  0
VERTEX
  8
0
 10
98.2426
 20
159.926
 30
0.0
 40
0
 41
0
  0
VERTEX
  8
0
 10
99.3426
 20
159.926
 30
0.0
 40
0
 41
0
  0
VERTEX
  8
0
 10
99.3426
 20
176.292
 30
0.0
 40
0
 41
0
  0
VERTEX
  8
0
 10
102.659
 20
176.292
 30
0.0
 40
0
 41
0
  0
VERTEX
  8
0
 10
102.659
 20
157.201
 30
0.0
 40
0
 41
0
  0
VERTEX
  8
0
 10
103.709
 20
157.201
 30
0.0
 40
0
 41
0
  0
VERTEX
  8
0
 10
103.709
 20
176.292
 30
0.0
 40
0
 41
0
  0
VERTEX
  8
0
 10
110.829
 20
176.292
 30
0.0
 40
0
 41
0
  0
VERTEX
  8
0
 10
110.829
 20
159.926
 30
0.0
 40
0
 41
0
  0
VERTEX
  8
0
 10
111.929
 20
159.926
 30
0.0
 40
0
 41
0
  0
VERTEX
  8
0
 10
111.929
 20
144.237
 30
0.0
 40
0
 41
0
  0
VERTEX
  8
0
 10
110.829
 20
144.237
 30
0.0
 40
0
 41
0
  0
VERTEX
  8
0
 10
110.829
 20
130.787
 30
0.0
 40
0
 41
0
  0
VERTEX
  8
0
 10
99.3426
 20
130.787
 30
0.0
 40
0
 41
0
  0
VERTEX
  8
0
 10
99.3426
 20
144.237
 30
0.0
 40
0
 41
0
  0
SEQEND
 8
0
  0
POLYLINE
  8
0
 62
     0
 66
     1
 10
0
 20
0
 30
0.0
 70
     1
 40
0
 41
0
  0
VERTEX
  8
0
 10
103.52
 20
139.424
 30
0.0
 40
0
 41
0
  0
VERTEX
  8
0
 10
106.652
 20
139.424
 30
0.0
 40
0
 41
0
  0
VERTEX
  8
0
 10
106.652
 20
134.928
 30
0.0
 40
0
 41
0
  0
VERTEX
  8
0
 10
103.52
 20
134.928
 30
0.0
 40
0
 41
0
  0
VERTEX
  8
0
 10
103.52
 20
139.424
 30
0.0
 40
0
 41
0
  0
SEQEND
 8
0
  0
POLYLINE
  8
0
 62
     0
 66
     1
 10
0
 20
0
 30
0.0
 70
     1
 40
0
 41
0
  0
VERTEX
  8
0
 10
39.0503
 20
38.7961
 30
0.0
 40
0
 41
0
  0
VERTEX
  8
0
 10
38.0057
 20
39.191
 30
0.0
 40
0
 41
0
  0
VERTEX
  8
0
 10
35.6438
 20
32.9413
 30
0.0
 40
0
 41
0
  0
VERTEX
  8
0
 10
0
 20
32.9413
 30
0.0
 40
0
 41
0
  0
VERTEX
  8
0
 10
0
 20
59.7731
 30
0.0
 40
0
 41
0
  0
VERTEX
  8
0
 10
27.5136
 20
59.7731
 30
0.0
 40
0
 41
0
  0
VERTEX
  8
0
 10
27.5136
 20
51.9446
 30
0.0
 40
0
 41
0
  0
VERTEX
  8
0
 10
28.5638
 20
51.9446
 30
0.0
 40
0
 41
0
  0
VERTEX
  8
0
 10
28.5638
 20
59.7731
 30
0.0
 40
0
 41
0
  0
VERTEX
  8
0
 10
60.5138
 20
59.7731
 30
0.0
 40
0
 41
0
  0
VERTEX
  8
0
 10
60.5138
 20
51.9446
 30
0.0
 40
0
 41
0
  0
VERTEX
  8
0
 10
61.5637
 20
51.9446
 30
0.0
 40
0
 41
0
  0
VERTEX
  8
0
 10
61.5637
 20
59.7731
 30
0.0
 40
0
 41
0
  0
VERTEX
  8
0
 10
77.3651
 20
59.7731
 30
0.0
 40
0
 41
0
  0
VERTEX
  8
0
 10
77.3651
 20
32.9413
 30
0.0
 40
0
 41
0
  0
VERTEX
  8
0
 10
57.5156
 20
32.9413
 30
0.0
 40
0
 41
0
  0
VERTEX
  8
0
 10
55.1535
 20
39.191
 30
0.0
 40
0
 41
0
  0
VERTEX
  8
0
 10
54.1089
 20
38.7961
 30
0.0
 40
0
 41
0
  0
VERTEX
  8
0
 10
56.3217
 20
32.9413
 30
0.0
 40
0
 41
0
  0
VERTEX
  8
0
 10
36.8375
 20
32.9413
 30
0.0
 40
0
 41
0
  0
VERTEX
  8
0
 10
39.0503
 20
38.7961
 30
0.0
 40
0
 41
0
  0
SEQEND
 8
0
  0
POLYLINE
  8
0
 62
     0
 66
     1
 10
0
 20
0
 30
0.0
 70
     1
 40
0
 41
0
  0
VERTEX
  8
0
 10
112.433
 20
60.3097
 30
0.0
 40
0
 41
0
  0
VERTEX
  8
0
 10
112.433
 20
53.1638
 30
0.0
 40
0
 41
0
  0
VERTEX
  8
0
 10
111.333
 20
53.1638
 30
0.0
 40
0
 41
0
  0
VERTEX
  8
0
 10
111.333
 20
45.3649
 30
0.0
 40
0
 41
0
  0
VERTEX
  8
0
 10
112.433
 20
45.3649
 30
0.0
 40
0
 41
0
  0
VERTEX
  8
0
 10
112.433
 20
41.1833
 30
0.0
 40
0
 41
0
  0
VERTEX
  8
0
 10
95.3993
 20
24.1493
 30
0.0
 40
0
 41
0
  0
VERTEX
  8
0
 10
78.3651
 20
41.1833
 30
0.0
 40
0
 41
0
  0
VERTEX
  8
0
 10
78.3651
 20
45.3649
 30
0.0
 40
0
 41
0
  0
VERTEX
  8
0
 10
79.4583
 20
45.3649
 30
0.0
 40
0
 41
0
  0
VERTEX
  8
0
 10
79.4583
 20
53.1638
 30
0.0
 40
0
 41
0
  0
VERTEX
  8
0
 10
78.3651
 20
53.1638
 30
0.0
 40
0
 41
0
  0
VERTEX
  8
0
 10
78.3651
 20
60.3097
 30
0.0
 40
0
 41
0
  0
VERTEX
  8
0
 10
112.433
 20
60.3097
 30
0.0
 40
0
 41
0
  0
SEQEND
 8
0
  0
POLYLINE
  8
0
 62
     0
 66
     1
 10
0
 20
0
 30
0.0
 70
     1
 40
0
 41
0
  0
VERTEX
  8
0
 10
97.6446
 20
34.496
 30
0.0
 40
0
 41
0
  0
VERTEX
  8
0
 10
97.6446
 20
34.4386
 30
0.0
 40
0
 41
0
  0
VERTEX
  8
0
 10
97.6331
 20
34.2664
 30
0.0
 40
0
 41
0
  0
VERTEX
  8
0
 10
97.599
 20
34.0435
 30
0.0
 40
0
 41
0
  0
VERTEX
  8
0
 10
97.5436
 20
33.8283
 30
0.0
 40
0
 41
0
  0
VERTEX
  8
0
 10
97.4682
 20
33.6221
 30
0.0
 40
0
 41
0
  0
VERTEX
  8
0
 10
97.3736
 20
33.4257
 30
0.0
 40
0
 41
0
  0
VERTEX
  8
0
 10
97.2611
 20
33.2406
 30
0.0
 40
0
 41
0
  0
VERTEX
  8
0
 10
97.1319
 20
33.0678
 30
0.0
 40
0
 41
0
  0
VERTEX
  8
0
 10
96.9869
 20
32.9083
 30
0.0
 40
0
 41
0
  0
VERTEX
  8
0
 10
96.8275
 20
32.7633
 30
0.0
 40
0
 41
0
  0
VERTEX
  8
0
 10
96.6547
 20
32.6342
 30
0.0
 40
0
 41
0
  0
VERTEX
  8
0
 10
96.4696
 20
32.5217
 30
0.0
 40
0
 41
0
  0
VERTEX
  8
0
 10
96.2733
 20
32.4271
 30
0.0
 40
0
 41
0
  0
VERTEX
  8
0
 10
96.0669
 20
32.3517
 30
0.0
 40
0
 41
0
  0
VERTEX
  8
0
 10
95.8518
 20
32.2963
 30
0.0
 40
0
 41
0
  0
VERTEX
  8
0
 10
95.6289
 20
32.2622
 30
0.0
 40
0
 41
0
  0
VERTEX
  8
0
 10
95.4567
 20
32.2507
 30
0.0
 40
0
 41
0
  0
VERTEX
  8
0
 10
95.3993
 20
32.2507
 30
0.0
 40
0
 41
0
  0
VERTEX
  8
0
 10
95.3419
 20
32.2507
 30
0.0
 40
0
 41
0
  0
VERTEX
  8
0
 10
95.1697
 20
32.2622
 30
0.0
 40
0
 41
0
  0
VERTEX
  8
0
 10
94.9468
 20
32.2963
 30
0.0
 40
0
 41
0
  0
VERTEX
  8
0
 10
94.7317
 20
32.3517
 30
0.0
 40
0
 41
0
  0
VERTEX
  8
0
 10
94.5253
 20
32.4271
 30
0.0
 40
0
 41
0
  0
VERTEX
  8
0
 10
94.329
 20
32.5217
 30
0.0
 40
0
 41
0
  0
VERTEX
  8
0
 10
94.1439
 20
32.6342
 30
0.0
 40
0
 41
0
  0
VERTEX
  8
0
 10
93.9711
 20
32.7633
 30
0.0
 40
0
 41
0
  0
VERTEX
  8
0
 10
93.8117
 20
32.9083
 30
0.0
 40
0
 41
0
  0
VERTEX
  8
0
 10
93.6667
 20
33.0678
 30
0.0
 40
0
 41
0
  0
VERTEX
  8
0
 10
93.5375
 20
33.2406
 30
0.0
 40
0
 41
0
  0
VERTEX
  8
0
 10
93.425
 20
33.4257
 30
0.0
 40
0
 41
0
  0
VERTEX
  8
0
 10
93.3304
 20
33.6221
 30
0.0
 40
0
 41
0
  0
VERTEX
  8
0
 10
93.255
 20
33.8283
 30
0.0
 40
0
 41
0
  0
VERTEX
  8
0
 10
93.1996
 20
34.0435
 30
0.0
 40
0
 41
0
  0
VERTEX
  8
0
 10
93.1656
 20
34.2664
 30
0.0
 40
0
 41
0
  0
VERTEX
  8
0
 10
93.154
 20
34.4386
 30
0.0
 40
0
 41
0
  0
VERTEX
  8
0
 10
93.154
 20
34.496
 30
0.0
 40
0
 41
0
  0
VERTEX
  8
0
 10
93.154
 20
34.5533
 30
0.0
 40
0
 41
0
  0
VERTEX
  8
0
 10
93.1656
 20
34.7256
 30
0.0
 40
0
 41
0
  0
VERTEX
  8
0
 10
93.1996
 20
34.9485
 30
0.0
 40
0
 41
0
  0
VERTEX
  8
0
 10
93.255
 20
35.1638
 30
0.0
 40
0
 41
0
  0
VERTEX
  8
0
 10
93.3304
 20
35.37
 30
0.0
 40
0
 41
0
  0
VERTEX
  8
0
 10
93.425
 20
35.5663
 30
0.0
 40
0
 41
0
  0
VERTEX
  8
0
 10
93.5375
 20
35.7514
 30
0.0
 40
0
 41
0
  0
VERTEX
  8
0
 10
93.6667
 20
35.9243
 30
0.0
 40
0
 41
0
  0
VERTEX
  8
0
 10
93.8117
 20
36.0838
 30
0.0
 40
0
 41
0
  0
VERTEX
  8
0
 10
93.9711
 20
36.2286
 30
0.0
 40
0
 41
0
  0
VERTEX
  8
0
 10
94.1439
 20
36.3579
 30
0.0
 40
0
 41
0
  0
VERTEX
  8
0
 10
94.329
 20
36.4703
 30
0.0
 40
0
 41
0
  0
VERTEX
  8
0
 10
94.5253
 20
36.5649
 30
0.0
 40
0
 41
0
  0
VERTEX
  8
0
 10
94.7317
 20
36.6404
 30
0.0
 40
0
 41
0
  0
VERTEX
  8
0
 10
94.9468
 20
36.6957
 30
0.0
 40
0
 41
0
  0
VERTEX
  8
0
 10
95.1697
 20
36.7297
 30
0.0
 40
0
 41
0
  0
VERTEX
  8
0
 10
95.3419
 20
36.7414
 30
0.0
 40
0
 41
0
  0
VERTEX
  8
0
 10
95.3993
 20
36.7414
 30
0.0
 40
0
 41
0
  0
VERTEX
  8
0
 10
95.4567
 20
36.7414
 30
0.0
 40
0
 41
0
  0
VERTEX
  8
0
 10
95.6289
 20
36.7297
 30
0.0
 40
0
 41
0
  0
VERTEX
  8
0
 10
95.8518
 20
36.6957
 30
0.0
 40
0
 41
0
  0
VERTEX
  8
0
 10
96.0669
 20
36.6404
 30
0.0
 40
0
 41
0
  0
VERTEX
  8
0
 10
96.2733
 20
36.5649
 30
0.0
 40
0
 41
0
  0
VERTEX
  8
0
 10
96.4696
 20
36.4703
 30
0.0
 40
0
 41
0
  0
VERTEX
  8
0
 10
96.6547
 20
36.3579
 30
0.0
 40
0
 41
0
  0
VERTEX
  8
0
 10
96.8275
 20
36.2286
 30
0.0
 40
0
 41
0
  0
VERTEX
  8
0
 10
96.9869
 20
36.0838
 30
0.0
 40
0
 41
0
  0
VERTEX
  8
0
 10
97.1319
 20
35.9243
 30
0.0
 40
0
 41
0
  0
VERTEX
  8
0
 10
97.2611
 20
35.7514
 30
0.0
 40
0
 41
0
  0
VERTEX
  8
0
 10
97.3736
 20
35.5663
 30
0.0
 40
0
 41
0
  0
VERTEX
  8
0
 10
97.4682
 20
35.37
 30
0.0
 40
0
 41
0
  0
VERTEX
  8
0
 10
97.5436
 20
35.1638
 30
0.0
 40
0
 41
0
  0
VERTEX
  8
0
 10
97.599
 20
34.9485
 30
0.0
 40
0
 41
0
  0
VERTEX
  8
0
 10
97.6331
 20
34.7256
 30
0.0
 40
0
 41
0
  0
VERTEX
  8
0
 10
97.6446
 20
34.5533
 30
0.0
 40
0
 41
0
  0
VERTEX
  8
0
 10
97.6446
 20
34.496
 30
0.0
 40
0
 41
0
  0
SEQEND
 8
0
  0
POLYLINE
  8
0
 62
     0
 66
     1
 10
0
 20
0
 30
0.0
 70
     1
 40
0
 41
0
  0
VERTEX
  8
0
 10
84.919
 20
46.2572
 30
0.0
 40
0
 41
0
  0
VERTEX
  8
0
 10
87.1418
 20
46.2572
 30
0.0
 40
0
 41
0
  0
VERTEX
  8
0
 10
87.1418
 20
41.7547
 30
0.0
 40
0
 41
0
  0
VERTEX
  8
0
 10
87.1418
 20
41.6525
 30
0.0
 40
0
 41
0
  0
VERTEX
  8
0
 10
87.1233
 20
41.3458
 30
0.0
 40
0
 41
0
  0
VERTEX
  8
0
 10
87.0689
 20
40.9428
 30
0.0
 40
0
 41
0
  0
VERTEX
  8
0
 10
86.9792
 20
40.5476
 30
0.0
 40
0
 41
0
  0
VERTEX
  8
0
 10
86.8549
 20
40.1628
 30
0.0
 40
0
 41
0
  0
VERTEX
  8
0
 10
86.6971
 20
39.7904
 30
0.0
 40
0
 41
0
  0
VERTEX
  8
0
 10
86.5064
 20
39.4328
 30
0.0
 40
0
 41
0
  0
VERTEX
  8
0
 10
86.2839
 20
39.0922
 30
0.0
 40
0
 41
0
  0
VERTEX
  8
0
 10
86.0972
 20
38.8483
 30
0.0
 40
0
 41
0
  0
VERTEX
  8
0
 10
86.0304
 20
38.7711
 30
0.0
 40
0
 41
0
  0
VERTEX
  8
0
 10
85.9635
 20
38.8483
 30
0.0
 40
0
 41
0
  0
VERTEX
  8
0
 10
85.7768
 20
39.0922
 30
0.0
 40
0
 41
0
  0
VERTEX
  8
0
 10
85.5543
 20
39.4328
 30
0.0
 40
0
 41
0
  0
VERTEX
  8
0
 10
85.3636
 20
39.7904
 30
0.0
 40
0
 41
0
  0
VERTEX
  8
0
 10
85.2058
 20
40.1628
 30
0.0
 40
0
 41
0
  0
VERTEX
  8
0
 10
85.0817
 20
40.5476
 30
0.0
 40
0
 41
0
  0
VERTEX
  8
0
 10
84.9918
 20
40.9428
 30
0.0
 40
0
 41
0
  0
VERTEX
  8
0
 10
84.9374
 20
41.3458
 30
0.0
 40
0
 41
0
  0
VERTEX
  8
0
 10
84.919
 20
41.6525
 30
0.0
 40
0
 41
0
  0
VERTEX
  8
0
 10
84.919
 20
41.7547
 30
0.0
 40
0
 41
0
  0
VERTEX
  8
0
 10
84.919
 20
46.2572
 30
0.0
 40
0
 41
0
  0
SEQEND
 8
0
  0
POLYLINE
  8
0
 62
     0
 66
     1
 10
0
 20
0
 30
0.0
 70
     1
 40
0
 41
0
  0
VERTEX
  8
0
 10
105.88
 20
46.2572
 30
0.0
 40
0
 41
0
  0
VERTEX
  8
0
 10
103.657
 20
46.2572
 30
0.0
 40
0
 41
0
  0
VERTEX
  8
0
 10
103.657
 20
41.7547
 30
0.0
 40
0
 41
0
  0
VERTEX
  8
0
 10
103.657
 20
41.6525
 30
0.0
 40
0
 41
0
  0
VERTEX
  8
0
 10
103.675
 20
41.3458
 30
0.0
 40
0
 41
0
  0
VERTEX
  8
0
 10
103.73
 20
40.9428
 30
0.0
 40
0
 41
0
  0
VERTEX
  8
0
 10
103.819
 20
40.5476
 30
0.0
 40
0
 41
0
  0
VERTEX
  8
0
 10
103.944
 20
40.1628
 30
0.0
 40
0
 41
0
  0
VERTEX
  8
0
 10
104.102
 20
39.7904
 30
0.0
 40
0
 41
0
  0
VERTEX
  8
0
 10
104.292
 20
39.4328
 30
0.0
 40
0
 41
0
  0
VERTEX
  8
0
 10
104.515
 20
39.0922
 30
0.0
 40
0
 41
0
  0
VERTEX
  8
0
 10
104.701
 20
38.8483
 30
0.0
 40
0
 41
0
  0
VERTEX
  8
0
 10
104.768
 20
38.7711
 30
0.0
 40
0
 41
0
  0
VERTEX
  8
0
 10
104.835
 20
38.8483
 30
0.0
 40
0
 41
0
  0
VERTEX
  8
0
 10
105.022
 20
39.0922
 30
0.0
 40
0
 41
0
  0
VERTEX
  8
0
 10
105.244
 20
39.4328
 30
0.0
 40
0
 41
0
  0
VERTEX
  8
0
 10
105.435
 20
39.7904
 30
0.0
 40
0
 41
0
  0
VERTEX
  8
0
 10
105.593
 20
40.1628
 30
0.0
 40
0
 41
0
  0
VERTEX
  8
0
 10
105.717
 20
40.5476
 30
0.0
 40
0
 41
0
  0
VERTEX
  8
0
 10
105.807
 20
40.9428
 30
0.0
 40
0
 41
0
  0
VERTEX
  8
0
 10
105.861
 20
41.3458
 30
0.0
 40
0
 41
0
  0
VERTEX
  8
0
 10
105.88
 20
41.6525
 30
0.0
 40
0
 41
0
  0
VERTEX
  8
0
 10
105.88
 20
41.7547
 30
0.0
 40
0
 41
0
  0
VERTEX
  8
0
 10
105.88
 20
46.2572
 30
0.0
 40
0
 41
0
  0
SEQEND
 8
0
  0
POLYLINE
  8
0
 62
     0
 66
     1
 10
0
 20
0
 30
0.0
 70
     1
 40
0
 41
0
  0
VERTEX
  8
0
 10
1.22152
 20
11.5934
 30
0.0
 40
0
 41
0
  0
VERTEX
  8
0
 10
0
 20
12.8149
 30
0.0
 40
0
 41
0
  0
VERTEX
  8
0
 10
0
 20
31.9413
 30
0.0
 40
0
 41
0
  0
VERTEX
  8
0
 10
31.8682
 20
31.9413
 30
0.0
 40
0
 41
0
  0
VERTEX
  8
0
 10
31.8682
 20
12.8149
 30
0.0
 40
0
 41
0
  0
VERTEX
  8
0
 10
30.6467
 20
11.5934
 30
0.0
 40
0
 41
0
  0
VERTEX
  8
0
 10
1.22152
 20
11.5934
 30
0.0
 40
0
 41
0
  0
SEQEND
 8
0
  0
POLYLINE
  8
0
 62
     0
 66
     1
 10
0
 20
0
 30
0.0
 70
     1
 40
0
 41
0
  0
VERTEX
  8
0
 10
78.3728
 20
27.8572
 30
0.0
 40
0
 41
0
  0
VERTEX
  8
0
 10
78.3728
 20
21.8072
 30
0.0
 40
0
 41
0
  0
VERTEX
  8
0
 10
77.2728
 20
21.8072
 30
0.0
 40
0
 41
0
  0
VERTEX
  8
0
 10
77.2728
 20
19.139
 30
0.0
 40
0
 41
0
  0
VERTEX
  8
0
 10
78.3728
 20
19.139
 30
0.0
 40
0
 41
0
  0
VERTEX
  8
0
 10
78.3728
 20
17.989
 30
0.0
 40
0
 41
0
  0
VERTEX
  8
0
 10
61.9569
 20
17.989
 30
0.0
 40
0
 41
0
  0
VERTEX
  8
0
 10
61.9569
 20
19.089
 30
0.0
 40
0
 41
0
  0
VERTEX
  8
0
 10
46.3679
 20
19.089
 30
0.0
 40
0
 41
0
  0
VERTEX
  8
0
 10
46.3679
 20
17.989
 30
0.0
 40
0
 41
0
  0
VERTEX
  8
0
 10
32.8682
 20
17.989
 30
0.0
 40
0
 41
0
  0
VERTEX
  8
0
 10
32.8682
 20
31.6754
 30
0.0
 40
0
 41
0
  0
VERTEX
  8
0
 10
46.3679
 20
31.6754
 30
0.0
 40
0
 41
0
  0
VERTEX
  8
0
 10
46.3679
 20
30.5754
 30
0.0
 40
0
 41
0
  0
VERTEX
  8
0
 10
61.9569
 20
30.5754
 30
0.0
 40
0
 41
0
  0
VERTEX
  8
0
 10
61.9569
 20
31.6754
 30
0.0
 40
0
 41
0
  0
VERTEX
  8
0
 10
78.3728
 20
31.6754
 30
0.0
 40
0
 41
0
  0
VERTEX
  8
0
 10
78.3728
 20
30.5254
 30
0.0
 40
0
 41
0
  0
VERTEX
  8
0
 10
77.2728
 20
30.5254
 30
0.0
 40
0
 41
0
  0
VERTEX
  8
0
 10
77.2728
 20
27.8572
 30
0.0
 40
0
 41
0
  0
VERTEX
  8
0
 10
78.3728
 20
27.8572
 30
0.0
 40
0
 41
0
  0
SEQEND
 8
0
  0
POLYLINE
  8
0
 62
     0
 66
     1
 10
0
 20
0
 30
0.0
 70
     1
 40
0
 41
0
  0
VERTEX
  8
0
 10
37.0092
 20
26.3981
 30
0.0
 40
0
 41
0
  0
VERTEX
  8
0
 10
41.5046
 20
26.3981
 30
0.0
 40
0
 41
0
  0
VERTEX
  8
0
 10
41.5046
 20
23.2663
 30
0.0
 40
0
 41
0
  0
VERTEX
  8
0
 10
37.0092
 20
23.2663
 30
0.0
 40
0
 41
0
  0
VERTEX
  8
0
 10
37.0092
 20
26.3981
 30
0.0
 40
0
 41
0
  0
SEQEND
 8
0
  0
POLYLINE
  8
0
 62
     0
 66
     1
 10
0
 20
0
 30
0.0
 70
     1
 40
0
 41
0
  0
VERTEX
  8
0
 10
56.8118
 20
25.5619
 30
0.0
 40
0
 41
0
  0
VERTEX
  8
0
 10
60.6296
 20
25.5619
 30
0.0
 40
0
 41
0
  0
VERTEX
  8
0
 10
60.6296
 20
24.1025
 30
0.0
 40
0
 41
0
  0
VERTEX
  8
0
 10
56.8118
 20
24.1025
 30
0.0
 40
0
 41
0
  0
VERTEX
  8
0
 10
56.8118
 20
25.5619
 30
0.0
 40
0
 41
0
  0
SEQEND
 8
0
  0
POLYLINE
  8
0
 62
     0
 66
     1
 10
0
 20
0
 30
0.0
 70
     1
 40
0
 41
0
  0
VERTEX
  8
0
 10
44.6872
 20
25.5619
 30
0.0
 40
0
 41
0
  0
VERTEX
  8
0
 10
48.5051
 20
25.5619
 30
0.0
 40
0
 41
0
  0
VERTEX
  8
0
 10
48.5051
 20
24.1025
 30
0.0
 40
0
 41
0
  0
VERTEX
  8
0
 10
44.6872
 20
24.1025
 30
0.0
 40
0
 41
0
  0
VERTEX
  8
0
 10
44.6872
 20
25.5619
 30
0.0
 40
0
 41
0
  0
SEQEND
 8
0
  0
POLYLINE
  8
0
 62
     0
 66
     1
 10
0
 20
0
 30
0.0
 70
     1
 40
0
 41
0
  0
VERTEX
  8
0
 10
124.031
 20
28.8182
 30
0.0
 40
0
 41
0
  0
VERTEX
  8
0
 10
104.825
 20
28.8182
 30
0.0
 40
0
 41
0
  0
VERTEX
  8
0
 10
104.825
 20
31.8682
 30
0.0
 40
0
 41
0
  0
VERTEX
  8
0
 10
125.052
 20
31.8682
 30
0.0
 40
0
 41
0
  0
VERTEX
  8
0
 10
135.415
 20
21.505
 30
0.0
 40
0
 41
0
  0
VERTEX
  8
0
 10
136.193
 20
22.2828
 30
0.0
 40
0
 41
0
  0
VERTEX
  8
0
 10
141.746
 20
16.7292
 30
0.0
 40
0
 41
0
  0
VERTEX
  8
0
 10
142.539
 20
15.8671
 30
0.0
 40
0
 41
0
  0
VERTEX
  8
0
 10
141.746
 20
15.1382
 30
0.0
 40
0
 41
0
  0
VERTEX
  8
0
 10
136.218
 20
9.61051
 30
0.0
 40
0
 41
0
  0
VERTEX
  8
0
 10
135.44
 20
10.3883
 30
0.0
 40
0
 41
0
  0
VERTEX
  8
0
 10
125.052
 20
0
 30
0.0
 40
0
 41
0
  0
VERTEX
  8
0
 10
104.825
 20
0
 30
0.0
 40
0
 41
0
  0
VERTEX
  8
0
 10
104.825
 20
3.05003
 30
0.0
 40
0
 41
0
  0
VERTEX
  8
0
 10
124.031
 20
3.05003
 30
0.0
 40
0
 41
0
  0
VERTEX
  8
0
 10
136.94
 20
15.9592
 30
0.0
 40
0
 41
0
  0
VERTEX
  8
0
 10
124.031
 20
28.8182
 30
0.0
 40
0
 41
0
  0
SEQEND
 8
0
  0
POLYLINE
  8
0
 62
     0
 66
     1
 10
0
 20
0
 30
0.0
 70
     1
 40
0
 41
0
  0
VERTEX
  8
0
 10
117.702
 20
176.885
 30
0.0
 40
0
 41
0
  0
VERTEX
  8
0
 10
130.561
 20
189.794
 30
0.0
 40
0
 41
0
  0
VERTEX
  8
0
 10
130.561
 20
209
 30
0.0
 40
0
 41
0
  0
VERTEX
  8
0
 10
133.611
 20
209
 30
0.0
 40
0
 41
0
  0
VERTEX
  8
0
 10
133.611
 20
188.774
 30
0.0
 40
0
 41
0
  0
VERTEX
  8
0
 10
123.248
 20
178.411
 30
0.0
 40
0
 41
0
  0
VERTEX
  8
0
 10
124.026
 20
177.633
 30
0.0
 40
0
 41
0
  0
VERTEX
  8
0
 10
118.472
 20
172.079
 30
0.0
 40
0
 41
0
  0
VERTEX
  8
0
 10
117.61
 20
171.286
 30
0.0
 40
0
 41
0
  0
VERTEX
  8
0
 10
116.881
 20
172.079
 30
0.0
 40
0
 41
0
  0
VERTEX
  8
0
 10
111.353
 20
177.607
 30
0.0
 40
0
 41
0
  0
VERTEX
  8
0
 10
112.131
 20
178.385
 30
0.0
 40
0
 41
0
  0
VERTEX
  8
0
 10
101.743
 20
188.774
 30
0.0
 40
0
 41
0
  0
VERTEX
  8
0
 10
101.743
 20
209
 30
0.0
 40
0
 41
0
  0
VERTEX
  8
0
 10
104.793
 20
209
 30
0.0
 40
0
 41
0
  0
VERTEX
  8
0
 10
104.793
 20
189.794
 30
0.0
 40
0
 41
0
  0
VERTEX
  8
0
 10
117.702
 20
176.885
 30
0.0
 40
0
 41
0
  0
SEQEND
 8
0
  0
POLYLINE
  8
0
 62
     0
 66
     1
 10
0
 20
0
 30
0.0
 70
     1
 40
0
 41
0
  0
VERTEX
  8
0
 10
129.999
 20
171.346
 30
0.0
 40
0
 41
0
  0
VERTEX
  8
0
 10
147.068
 20
154.276
 30
0.0
 40
0
 41
0
  0
VERTEX
  8
0
 10
145.933
 20
154.276
 30
0.0
 40
0
 41
0
  0
VERTEX
  8
0
 10
145.933
 20
148.418
 30
0.0
 40
0
 41
0
  0
VERTEX
  8
0
 10
147.033
 20
148.418
 30
0.0
 40
0
 41
0
  0
VERTEX
  8
0
 10
147.033
 20
141.443
 30
0.0
 40
0
 41
0
  0
VERTEX
  8
0
 10
145.933
 20
141.443
 30
0.0
 40
0
 41
0
  0
VERTEX
  8
0
 10
145.933
 20
135.186
 30
0.0
 40
0
 41
0
  0
VERTEX
  8
0
 10
135.656
 20
135.186
 30
0.0
 40
0
 41
0
  0
VERTEX
  8
0
 10
135.656
 20
145.663
 30
0.0
 40
0
 41
0
  0
VERTEX
  8
0
 10
135.618
 20
145.825
 30
0.0
 40
0
 41
0
  0
VERTEX
  8
0
 10
135.491
 20
146.31
 30
0.0
 40
0
 41
0
  0
VERTEX
  8
0
 10
135.299
 20
146.949
 30
0.0
 40
0
 41
0
  0
VERTEX
  8
0
 10
135.08
 20
147.575
 30
0.0
 40
0
 41
0
  0
VERTEX
  8
0
 10
134.834
 20
148.19
 30
0.0
 40
0
 41
0
  0
VERTEX
  8
0
 10
134.562
 20
148.793
 30
0.0
 40
0
 41
0
  0
VERTEX
  8
0
 10
134.265
 20
149.382
 30
0.0
 40
0
 41
0
  0
VERTEX
  8
0
 10
133.943
 20
149.958
 30
0.0
 40
0
 41
0
  0
VERTEX
  8
0
 10
133.596
 20
150.518
 30
0.0
 40
0
 41
0
  0
VERTEX
  8
0
 10
133.225
 20
151.064
 30
0.0
 40
0
 41
0
  0
VERTEX
  8
0
 10
132.83
 20
151.593
 30
0.0
 40
0
 41
0
  0
VERTEX
  8
0
 10
132.413
 20
152.104
 30
0.0
 40
0
 41
0
  0
VERTEX
  8
0
 10
131.973
 20
152.599
 30
0.0
 40
0
 41
0
  0
VERTEX
  8
0
 10
131.511
 20
153.074
 30
0.0
 40
0
 41
0
  0
VERTEX
  8
0
 10
131.028
 20
153.529
 30
0.0
 40
0
 41
0
  0
VERTEX
  8
0
 10
130.524
 20
153.964
 30
0.0
 40
0
 41
0
  0
VERTEX
  8
0
 10
130.132
 20
154.276
 30
0.0
 40
0
 41
0
  0
VERTEX
  8
0
 10
129.999
 20
154.378
 30
0.0
 40
0
 41
0
  0
VERTEX
  8
0
 10
129.866
 20
154.276
 30
0.0
 40
0
 41
0
  0
VERTEX
  8
0
 10
129.474
 20
153.964
 30
0.0
 40
0
 41
0
  0
VERTEX
  8
0
 10
128.97
 20
153.529
 30
0.0
 40
0
 41
0
  0
VERTEX
  8
0
 10
128.487
 20
153.074
 30
0.0
 40
0
 41
0
  0
VERTEX
  8
0
 10
128.025
 20
152.599
 30
0.0
 40
0
 41
0
  0
VERTEX
  8
0
 10
127.585
 20
152.104
 30
0.0
 40
0
 41
0
  0
VERTEX
  8
0
 10
127.168
 20
151.593
 30
0.0
 40
0
 41
0
  0
VERTEX
  8
0
 10
126.773
 20
151.064
 30
0.0
 40
0
 41
0
  0
VERTEX
  8
0
 10
126.403
 20
150.518
 30
0.0
 40
0
 41
0
  0
VERTEX
  8
0
 10
126.056
 20
149.958
 30
0.0
 40
0
 41
0
  0
VERTEX
  8
0
 10
125.733
 20
149.382
 30
0.0
 40
0
 41
0
  0
VERTEX
  8
0
 10
125.436
 20
148.793
 30
0.0
 40
0
 41
0
  0
VERTEX
  8
0
 10
125.164
 20
148.19
 30
0.0
 40
0
 41
0
  0
VERTEX
  8
0
 10
124.918
 20
147.575
 30
0.0
 40
0
 41
0
  0
VERTEX
  8
0
 10
124.699
 20
146.949
 30
0.0
 40
0
 41
0
  0
VERTEX
  8
0
 10
124.507
 20
146.31
 30
0.0
 40
0
 41
0
  0
VERTEX
  8
0
 10
124.38
 20
145.825
 30
0.0
 40
0
 41
0
  0
VERTEX
  8
0
 10
124.342
 20
145.663
 30
0.0
 40
0
 41
0
  0
VERTEX
  8
0
 10
124.342
 20
135.186
 30
0.0
 40
0
 41
0
  0
VERTEX
  8
0
 10
114.065
 20
135.186
 30
0.0
 40
0
 41
0
  0
VERTEX
  8
0
 10
114.065
 20
141.443
 30
0.0
 40
0
 41
0
  0
VERTEX
  8
0
 10
112.965
 20
141.443
 30
0.0
 40
0
 41
0
  0
VERTEX
  8
0
 10
112.965
 20
148.418
 30
0.0
 40
0
 41
0
  0
VERTEX
  8
0
 10
114.065
 20
148.418
 30
0.0
 40
0
 41
0
  0
VERTEX
  8
0
 10
114.065
 20
154.276
 30
0.0
 40
0
 41
0
  0
VERTEX
  8
0
 10
112.93
 20
154.276
 30
0.0
 40
0
 41
0
  0
VERTEX
  8
0
 10
129.999
 20
171.346
 30
0.0
 40
0
 41
0
  0
SEQEND
 8
0
  0
POLYLINE
  8
0
 62
     0
 66
     1
 10
0
 20
0
 30
0.0
 70
     1
 40
0
 41
0
  0
VERTEX
  8
0
 10
133.383
 20
161
 30
0.0
 40
0
 41
0
  0
VERTEX
  8
0
 10
133.383
 20
160.914
 30
0.0
 40
0
 41
0
  0
VERTEX
  8
0
 10
133.366
 20
160.654
 30
0.0
 40
0
 41
0
  0
VERTEX
  8
0
 10
133.314
 20
160.318
 30
0.0
 40
0
 41
0
  0
VERTEX
  8
0
 10
133.231
 20
159.993
 30
0.0
 40
0
 41
0
  0
VERTEX
  8
0
 10
133.117
 20
159.682
 30
0.0
 40
0
 41
0
  0
VERTEX
  8
0
 10
132.975
 20
159.386
 30
0.0
 40
0
 41
0
  0
VERTEX
  8
0
 10
132.805
 20
159.108
 30
0.0
 40
0
 41
0
  0
VERTEX
  8
0
 10
132.61
 20
158.847
 30
0.0
 40
0
 41
0
  0
VERTEX
  8
0
 10
132.392
 20
158.607
 30
0.0
 40
0
 41
0
  0
VERTEX
  8
0
 10
132.152
 20
158.389
 30
0.0
 40
0
 41
0
  0
VERTEX
  8
0
 10
131.891
 20
158.193
 30
0.0
 40
0
 41
0
  0
VERTEX
  8
0
 10
131.612
 20
158.024
 30
0.0
 40
0
 41
0
  0
VERTEX
  8
0
 10
131.316
 20
157.882
 30
0.0
 40
0
 41
0
  0
VERTEX
  8
0
 10
131.005
 20
157.768
 30
0.0
 40
0
 41
0
  0
VERTEX
  8
0
 10
130.681
 20
157.685
 30
0.0
 40
0
 41
0
  0
VERTEX
  8
0
 10
130.345
 20
157.633
 30
0.0
 40
0
 41
0
  0
VERTEX
  8
0
 10
130.086
 20
157.615
 30
0.0
 40
0
 41
0
  0
VERTEX
  8
0
 10
129.999
 20
157.615
 30
0.0
 40
0
 41
0
  0
VERTEX
  8
0
 10
129.913
 20
157.615
 30
0.0
 40
0
 41
0
  0
VERTEX
  8
0
 10
129.653
 20
157.633
 30
0.0
 40
0
 41
0
  0
VERTEX
  8
0
 10
129.317
 20
157.685
 30
0.0
 40
0
 41
0
  0
VERTEX
  8
0
 10
128.993
 20
157.768
 30
0.0
 40
0
 41
0
  0
VERTEX
  8
0
 10
128.682
 20
157.882
 30
0.0
 40
0
 41
0
  0
VERTEX
  8
0
 10
128.386
 20
158.024
 30
0.0
 40
0
 41
0
  0
VERTEX
  8
0
 10
128.107
 20
158.193
 30
0.0
 40
0
 41
0
  0
VERTEX
  8
0
 10
127.846
 20
158.389
 30
0.0
 40
0
 41
0
  0
VERTEX
  8
0
 10
127.606
 20
158.607
 30
0.0
 40
0
 41
0
  0
VERTEX
  8
0
 10
127.388
 20
158.847
 30
0.0
 40
0
 41
0
  0
VERTEX
  8
0
 10
127.193
 20
159.108
 30
0.0
 40
0
 41
0
  0
VERTEX
  8
0
 10
127.023
 20
159.386
 30
0.0
 40
0
 41
0
  0
VERTEX
  8
0
 10
126.881
 20
159.682
 30
0.0
 40
0
 41
0
  0
VERTEX
  8
0
 10
126.767
 20
159.993
 30
0.0
 40
0
 41
0
  0
VERTEX
  8
0
 10
126.684
 20
160.318
 30
0.0
 40
0
 41
0
  0
VERTEX
  8
0
 10
126.633
 20
160.654
 30
0.0
 40
0
 41
0
  0
VERTEX
  8
0
 10
126.615
 20
160.914
 30
0.0
 40
0
 41
0
  0
VERTEX
  8
0
 10
126.615
 20
161
 30
0.0
 40
0
 41
0
  0
VERTEX
  8
0
 10
126.615
 20
161.086
 30
0.0
 40
0
 41
0
  0
VERTEX
  8
0
 10
126.633
 20
161.346
 30
0.0
 40
0
 41
0
  0
VERTEX
  8
0
 10
126.684
 20
161.682
 30
0.0
 40
0
 41
0
  0
VERTEX
  8
0
 10
126.767
 20
162.006
 30
0.0
 40
0
 41
0
  0
VERTEX
  8
0
 10
126.881
 20
162.317
 30
0.0
 40
0
 41
0
  0
VERTEX
  8
0
 10
127.023
 20
162.612
 30
0.0
 40
0
 41
0
  0
VERTEX
  8
0
 10
127.193
 20
162.892
 30
0.0
 40
0
 41
0
  0
VERTEX
  8
0
 10
127.388
 20
163.153
 30
0.0
 40
0
 41
0
  0
VERTEX
  8
0
 10
127.606
 20
163.393
 30
0.0
 40
0
 41
0
  0
VERTEX
  8
0
 10
127.846
 20
163.611
 30
0.0
 40
0
 41
0
  0
VERTEX
  8
0
 10
128.107
 20
163.806
 30
0.0
 40
0
 41
0
  0
VERTEX
  8
0
 10
128.386
 20
163.975
 30
0.0
 40
0
 41
0
  0
VERTEX
  8
0
 10
128.682
 20
164.118
 30
0.0
 40
0
 41
0
  0
VERTEX
  8
0
 10
128.993
 20
164.232
 30
0.0
 40
0
 41
0
  0
VERTEX
  8
0
 10
129.317
 20
164.315
 30
0.0
 40
0
 41
0
  0
VERTEX
  8
0
 10
129.653
 20
164.367
 30
0.0
 40
0
 41
0
  0
VERTEX
  8
0
 10
129.913
 20
164.383
 30
0.0
 40
0
 41
0
  0
VERTEX
  8
0
 10
129.999
 20
164.383
 30
0.0
 40
0
 41
0
  0
VERTEX
  8
0
 10
130.086
 20
164.383
 30
0.0
 40
0
 41
0
  0
VERTEX
  8
0
 10
130.345
 20
164.367
 30
0.0
 40
0
 41
0
  0
VERTEX
  8
0
 10
130.681
 20
164.315
 30
0.0
 40
0
 41
0
  0
VERTEX
  8
0
 10
131.005
 20
164.232
 30
0.0
 40
0
 41
0
  0
VERTEX
  8
0
 10
131.316
 20
164.118
 30
0.0
 40
0
 41
0
  0
VERTEX
  8
0
 10
131.612
 20
163.975
 30
0.0
 40
0
 41
0
  0
VERTEX
  8
0
 10
131.891
 20
163.806
 30
0.0
 40
0
 41
0
  0
VERTEX
  8
0
 10
132.152
 20
163.611
 30
0.0
 40
0
 41
0
  0
VERTEX
  8
0
 10
132.392
 20
163.393
 30
0.0
 40
0
 41
0
  0
VERTEX
  8
0
 10
132.61
 20
163.153
 30
0.0
 40
0
 41
0
  0
VERTEX
  8
0
 10
132.805
 20
162.892
 30
0.0
 40
0
 41
0
  0
VERTEX
  8
0
 10
132.975
 20
162.612
 30
0.0
 40
0
 41
0
  0
VERTEX
  8
0
 10
133.117
 20
162.317
 30
0.0
 40
0
 41
0
  0
VERTEX
  8
0
 10
133.231
 20
162.006
 30
0.0
 40
0
 41
0
  0
VERTEX
  8
0
 10
133.314
 20
161.682
 30
0.0
 40
0
 41
0
  0
VERTEX
  8
0
 10
133.366
 20
161.346
 30
0.0
 40
0
 41
0
  0
VERTEX
  8
0
 10
133.383
 20
161.086
 30
0.0
 40
0
 41
0
  0
VERTEX
  8
0
 10
133.383
 20
161
 30
0.0
 40
0
 41
0
  0
SEQEND
 8
0
  0
POLYLINE
  8
0
 62
     0
 66
     1
 10
0
 20
0
 30
0.0
 70
     1
 40
0
 41
0
  0
VERTEX
  8
0
 10
114.502
 20
46.3179
 30
0.0
 40
0
 41
0
  0
VERTEX
  8
0
 10
114.502
 20
62.0069
 30
0.0
 40
0
 41
0
  0
VERTEX
  8
0
 10
115.602
 20
62.0069
 30
0.0
 40
0
 41
0
  0
VERTEX
  8
0
 10
115.602
 20
78.3728
 30
0.0
 40
0
 41
0
  0
VERTEX
  8
0
 10
122.722
 20
78.3728
 30
0.0
 40
0
 41
0
  0
VERTEX
  8
0
 10
122.722
 20
59.2819
 30
0.0
 40
0
 41
0
  0
VERTEX
  8
0
 10
123.772
 20
59.2819
 30
0.0
 40
0
 41
0
  0
VERTEX
  8
0
 10
123.772
 20
78.3728
 30
0.0
 40
0
 41
0
  0
VERTEX
  8
0
 10
127.088
 20
78.3728
 30
0.0
 40
0
 41
0
  0
VERTEX
  8
0
 10
127.088
 20
62.0069
 30
0.0
 40
0
 41
0
  0
VERTEX
  8
0
 10
128.188
 20
62.0069
 30
0.0
 40
0
 41
0
  0
VERTEX
  8
0
 10
128.188
 20
46.3179
 30
0.0
 40
0
 41
0
  0
VERTEX
  8
0
 10
127.088
 20
46.3179
 30
0.0
 40
0
 41
0
  0
VERTEX
  8
0
 10
127.088
 20
32.8682
 30
0.0
 40
0
 41
0
  0
VERTEX
  8
0
 10
115.602
 20
32.8682
 30
0.0
 40
0
 41
0
  0
VERTEX
  8
0
 10
115.602
 20
46.3179
 30
0.0
 40
0
 41
0
  0
VERTEX
  8
0
 10
114.502
 20
46.3179
 30
0.0
 40
0
 41
0
  0
SEQEND
 8
0
  0
POLYLINE
  8
0
 62
     0
 66
     1
 10
0
 20
0
 30
0.0
 70
     1
 40
0
 41
0
  0
VERTEX
  8
0
 10
119.779
 20
41.5046
 30
0.0
 40
0
 41
0
  0
VERTEX
  8
0
 10
122.911
 20
41.5046
 30
0.0
 40
0
 41
0
  0
VERTEX
  8
0
 10
122.911
 20
37.0092
 30
0.0
 40
0
 41
0
  0
VERTEX
  8
0
 10
119.779
 20
37.0092
 30
0.0
 40
0
 41
0
  0
VERTEX
  8
0
 10
119.779
 20
41.5046
 30
0.0
 40
0
 41
0
  0
SEQEND
 8
0
  0
POLYLINE
  8
0
 62
     0
 66
     1
 10
0
 20
0
 30
0.0
 70
     1
 40
0
 41
0
  0
VERTEX
  8
0
 10
46.0497
 20
15.5792
 30
0.0
 40
0
 41
0
  0
VERTEX
  8
0
 10
46.0497
 20
16.679
 30
0.0
 40
0
 41
0
  0
VERTEX
  8
0
 10
52.0092
 20
16.679
 30
0.0
 40
0
 41
0
  0
VERTEX
  8
0
 10
52.0092
 20
15.5438
 30
0.0
 40
0
 41
0
  0
VERTEX
  8
0
 10
50.091
 20
13.6256
 30
0.0
 40
0
 41
0
  0
VERTEX
  8
0
 10
50.8335
 20
12.8831
 30
0.0
 40
0
 41
0
  0
VERTEX
  8
0
 10
52.0092
 20
14.0587
 30
0.0
 40
0
 41
0
  0
VERTEX
  8
0
 10
52.0092
 20
4.09272
 30
0.0
 40
0
 41
0
  0
VERTEX
  8
0
 10
42.4637
 20
4.09272
 30
0.0
 40
0
 41
0
  0
VERTEX
  8
0
 10
42.4637
 20
2.99274
 30
0.0
 40
0
 41
0
  0
VERTEX
  8
0
 10
32.8682
 20
2.99274
 30
0.0
 40
0
 41
0
  0
VERTEX
  8
0
 10
32.8682
 20
16.679
 30
0.0
 40
0
 41
0
  0
VERTEX
  8
0
 10
39.1751
 20
16.679
 30
0.0
 40
0
 41
0
  0
VERTEX
  8
0
 10
39.1751
 20
15.5792
 30
0.0
 40
0
 41
0
  0
VERTEX
  8
0
 10
46.0497
 20
15.5792
 30
0.0
 40
0
 41
0
  0
SEQEND
 8
0
  0
POLYLINE
  8
0
 62
     0
 66
     1
 10
0
 20
0
 30
0.0
 70
     1
 40
0
 41
0
  0
VERTEX
  8
0
 10
116.672
 20
101.519
 30
0.0
 40
0
 41
0
  0
VERTEX
  8
0
 10
114.422
 20
101.519
 30
0.0
 40
0
 41
0
  0
VERTEX
  8
0
 10
114.422
 20
120.645
 30
0.0
 40
0
 41
0
  0
VERTEX
  8
0
 10
131.456
 20
137.679
 30
0.0
 40
0
 41
0
  0
VERTEX
  8
0
 10
148.49
 20
120.645
 30
0.0
 40
0
 41
0
  0
VERTEX
  8
0
 10
148.49
 20
101.519
 30
0.0
 40
0
 41
0
  0
VERTEX
  8
0
 10
146.24
 20
101.519
 30
0.0
 40
0
 41
0
  0
VERTEX
  8
0
 10
146.24
 20
115.177
 30
0.0
 40
0
 41
0
  0
VERTEX
  8
0
 10
146.194
 20
115.369
 30
0.0
 40
0
 41
0
  0
VERTEX
  8
0
 10
146.046
 20
115.941
 30
0.0
 40
0
 41
0
  0
VERTEX
  8
0
 10
145.831
 20
116.698
 30
0.0
 40
0
 41
0
  0
VERTEX
  8
0
 10
145.597
 20
117.447
 30
0.0
 40
0
 41
0
  0
VERTEX
  8
0
 10
145.344
 20
118.187
 30
0.0
 40
0
 41
0
  0
VERTEX
  8
0
 10
145.072
 20
118.919
 30
0.0
 40
0
 41
0
  0
VERTEX
  8
0
 10
144.781
 20
119.643
 30
0.0
 40
0
 41
0
  0
VERTEX
  8
0
 10
144.471
 20
120.357
 30
0.0
 40
0
 41
0
  0
VERTEX
  8
0
 10
144.144
 20
121.061
 30
0.0
 40
0
 41
0
  0
VERTEX
  8
0
 10
143.799
 20
121.756
 30
0.0
 40
0
 41
0
  0
VERTEX
  8
0
 10
143.435
 20
122.441
 30
0.0
 40
0
 41
0
  0
VERTEX
  8
0
 10
143.054
 20
123.115
 30
0.0
 40
0
 41
0
  0
VERTEX
  8
0
 10
142.656
 20
123.778
 30
0.0
 40
0
 41
0
  0
VERTEX
  8
0
 10
142.242
 20
124.431
 30
0.0
 40
0
 41
0
  0
VERTEX
  8
0
 10
141.81
 20
125.072
 30
0.0
 40
0
 41
0
  0
VERTEX
  8
0
 10
141.361
 20
125.701
 30
0.0
 40
0
 41
0
  0
VERTEX
  8
0
 10
140.896
 20
126.318
 30
0.0
 40
0
 41
0
  0
VERTEX
  8
0
 10
140.415
 20
126.923
 30
0.0
 40
0
 41
0
  0
VERTEX
  8
0
 10
139.919
 20
127.515
 30
0.0
 40
0
 41
0
  0
VERTEX
  8
0
 10
139.407
 20
128.094
 30
0.0
 40
0
 41
0
  0
VERTEX
  8
0
 10
138.88
 20
128.659
 30
0.0
 40
0
 41
0
  0
VERTEX
  8
0
 10
138.338
 20
129.212
 30
0.0
 40
0
 41
0
  0
VERTEX
  8
0
 10
137.782
 20
129.749
 30
0.0
 40
0
 41
0
  0
VERTEX
  8
0
 10
137.21
 20
130.273
 30
0.0
 40
0
 41
0
  0
VERTEX
  8
0
 10
136.624
 20
130.782
 30
0.0
 40
0
 41
0
  0
VERTEX
  8
0
 10
136.025
 20
131.277
 30
0.0
 40
0
 41
0
  0
VERTEX
  8
0
 10
135.411
 20
131.755
 30
0.0
 40
0
 41
0
  0
VERTEX
  8
0
 10
134.784
 20
132.219
 30
0.0
 40
0
 41
0
  0
VERTEX
  8
0
 10
134.144
 20
132.666
 30
0.0
 40
0
 41
0
  0
VERTEX
  8
0
 10
133.491
 20
133.097
 30
0.0
 40
0
 41
0
  0
VERTEX
  8
0
 10
132.825
 20
133.512
 30
0.0
 40
0
 41
0
  0
VERTEX
  8
0
 10
132.147
 20
133.909
 30
0.0
 40
0
 41
0
  0
VERTEX
  8
0
 10
131.63
 20
134.197
 30
0.0
 40
0
 41
0
  0
VERTEX
  8
0
 10
131.456
 20
134.29
 30
0.0
 40
0
 41
0
  0
VERTEX
  8
0
 10
131.282
 20
134.197
 30
0.0
 40
0
 41
0
  0
VERTEX
  8
0
 10
130.765
 20
133.909
 30
0.0
 40
0
 41
0
  0
VERTEX
  8
0
 10
130.087
 20
133.512
 30
0.0
 40
0
 41
0
  0
VERTEX
  8
0
 10
129.42
 20
133.097
 30
0.0
 40
0
 41
0
  0
VERTEX
  8
0
 10
128.767
 20
132.666
 30
0.0
 40
0
 41
0
  0
VERTEX
  8
0
 10
128.127
 20
132.219
 30
0.0
 40
0
 41
0
  0
VERTEX
  8
0
 10
127.5
 20
131.755
 30
0.0
 40
0
 41
0
  0
VERTEX
  8
0
 10
126.887
 20
131.277
 30
0.0
 40
0
 41
0
  0
VERTEX
  8
0
 10
126.287
 20
130.782
 30
0.0
 40
0
 41
0
  0
VERTEX
  8
0
 10
125.701
 20
130.273
 30
0.0
 40
0
 41
0
  0
VERTEX
  8
0
 10
125.13
 20
129.749
 30
0.0
 40
0
 41
0
  0
VERTEX
  8
0
 10
124.573
 20
129.212
 30
0.0
 40
0
 41
0
  0
VERTEX
  8
0
 10
124.031
 20
128.659
 30
0.0
 40
0
 41
0
  0
VERTEX
  8
0
 10
123.504
 20
128.094
 30
0.0
 40
0
 41
0
  0
VERTEX
  8
0
 10
122.992
 20
127.515
 30
0.0
 40
0
 41
0
  0
VERTEX
  8
0
 10
122.496
 20
126.923
 30
0.0
 40
0
 41
0
  0
VERTEX
  8
0
 10
122.015
 20
126.318
 30
0.0
 40
0
 41
0
  0
VERTEX
  8
0
 10
121.551
 20
125.701
 30
0.0
 40
0
 41
0
  0
VERTEX
  8
0
 10
121.102
 20
125.072
 30
0.0
 40
0
 41
0
  0
VERTEX
  8
0
 10
120.671
 20
124.431
 30
0.0
 40
0
 41
0
  0
VERTEX
  8
0
 10
120.255
 20
123.778
 30
0.0
 40
0
 41
0
  0
VERTEX
  8
0
 10
119.857
 20
123.115
 30
0.0
 40
0
 41
0
  0
VERTEX
  8
0
 10
119.477
 20
122.441
 30
0.0
 40
0
 41
0
  0
VERTEX
  8
0
 10
119.113
 20
121.756
 30
0.0
 40
0
 41
0
  0
VERTEX
  8
0
 10
118.768
 20
121.061
 30
0.0
 40
0
 41
0
  0
VERTEX
  8
0
 10
118.44
 20
120.357
 30
0.0
 40
0
 41
0
  0
VERTEX
  8
0
 10
118.131
 20
119.643
 30
0.0
 40
0
 41
0
  0
VERTEX
  8
0
 10
117.84
 20
118.919
 30
0.0
 40
0
 41
0
  0
VERTEX
  8
0
 10
117.568
 20
118.187
 30
0.0
 40
0
 41
0
  0
VERTEX
  8
0
 10
117.315
 20
117.447
 30
0.0
 40
0
 41
0
  0
VERTEX
  8
0
 10
117.081
 20
116.698
 30
0.0
 40
0
 41
0
  0
VERTEX
  8
0
 10
116.866
 20
115.941
 30
0.0
 40
0
 41
0
  0
VERTEX
  8
0
 10
116.718
 20
115.369
 30
0.0
 40
0
 41
0
  0
VERTEX
  8
0
 10
116.672
 20
115.177
 30
0.0
 40
0
 41
0
  0
VERTEX
  8
0
 10
116.672
 20
101.519
 30
0.0
 40
0
 41
0
  0
SEQEND
 8
0
  0
POLYLINE
  8
0
 62
     0
 66
     1
 10
0
 20
0
 30
0.0
 70
     1
 40
0
 41
0
  0
VERTEX
  8
0
 10
117.826
 20
99.1983
 30
0.0
 40
0
 41
0
  0
VERTEX
  8
0
 10
126.942
 20
116.254
 30
0.0
 40
0
 41
0
  0
VERTEX
  8
0
 10
136.057
 20
99.1983
 30
0.0
 40
0
 41
0
  0
VERTEX
  8
0
 10
136.057
 20
89.6217
 30
0.0
 40
0
 41
0
  0
VERTEX
  8
0
 10
134.958
 20
89.6217
 30
0.0
 40
0
 41
0
  0
VERTEX
  8
0
 10
134.958
 20
80.0761
 30
0.0
 40
0
 41
0
  0
VERTEX
  8
0
 10
118.926
 20
80.0761
 30
0.0
 40
0
 41
0
  0
VERTEX
  8
0
 10
118.926
 20
89.6217
 30
0.0
 40
0
 41
0
  0
VERTEX
  8
0
 10
117.826
 20
89.6217
 30
0.0
 40
0
 41
0
  0
VERTEX
  8
0
 10
117.826
 20
99.1983
 30
0.0
 40
0
 41
0
  0
SEQEND
 8
0
  0
POLYLINE
  8
0
 62
     0
 66
     1
 10
0
 20
0
 30
0.0
 70
     1
 40
0
 41
0
  0
VERTEX
  8
0
 10
128.851
 20
96.4081
 30
0.0
 40
0
 41
0
  0
VERTEX
  8
0
 10
125.032
 20
96.4081
 30
0.0
 40
0
 41
0
  0
VERTEX
  8
0
 10
125.032
 20
102.273
 30
0.0
 40
0
 41
0
  0
VERTEX
  8
0
 10
125.032
 20
102.432
 30
0.0
 40
0
 41
0
  0
VERTEX
  8
0
 10
125.064
 20
102.909
 30
0.0
 40
0
 41
0
  0
VERTEX
  8
0
 10
125.158
 20
103.533
 30
0.0
 40
0
 41
0
  0
VERTEX
  8
0
 10
125.314
 20
104.142
 30
0.0
 40
0
 41
0
  0
VERTEX
  8
0
 10
125.529
 20
104.731
 30
0.0
 40
0
 41
0
  0
VERTEX
  8
0
 10
125.801
 20
105.296
 30
0.0
 40
0
 41
0
  0
VERTEX
  8
0
 10
126.128
 20
105.833
 30
0.0
 40
0
 41
0
  0
VERTEX
  8
0
 10
126.509
 20
106.336
 30
0.0
 40
0
 41
0
  0
VERTEX
  8
0
 10
126.828
 20
106.692
 30
0.0
 40
0
 41
0
  0
VERTEX
  8
0
 10
126.942
 20
106.803
 30
0.0
 40
0
 41
0
  0
VERTEX
  8
0
 10
127.055
 20
106.692
 30
0.0
 40
0
 41
0
  0
VERTEX
  8
0
 10
127.374
 20
106.336
 30
0.0
 40
0
 41
0
  0
VERTEX
  8
0
 10
127.755
 20
105.833
 30
0.0
 40
0
 41
0
  0
VERTEX
  8
0
 10
128.082
 20
105.296
 30
0.0
 40
0
 41
0
  0
VERTEX
  8
0
 10
128.354
 20
104.731
 30
0.0
 40
0
 41
0
  0
VERTEX
  8
0
 10
128.569
 20
104.142
 30
0.0
 40
0
 41
0
  0
VERTEX
  8
0
 10
128.724
 20
103.533
 30
0.0
 40
0
 41
0
  0
VERTEX
  8
0
 10
128.819
 20
102.909
 30
0.0
 40
0
 41
0
  0
VERTEX
  8
0
 10
128.851
 20
102.432
 30
0.0
 40
0
 41
0
  0
VERTEX
  8
0
 10
128.851
 20
102.273
 30
0.0
 40
0
 41
0
  0
VERTEX
  8
0
 10
128.851
 20
96.4081
 30
0.0
 40
0
 41
0
  0
SEQEND
 8
0
  0
POLYLINE
  8
0
 62
     0
 66
     1
 10
0
 20
0
 30
0.0
 70
     1
 40
0
 41
0
  0
VERTEX
  8
0
 10
53.6461
 20
119.458
 30
0.0
 40
0
 41
0
  0
VERTEX
  8
0
 10
53.6461
 20
118.358
 30
0.0
 40
0
 41
0
  0
VERTEX
  8
0
 10
60.5206
 20
118.358
 30
0.0
 40
0
 41
0
  0
VERTEX
  8
0
 10
60.5206
 20
119.458
 30
0.0
 40
0
 41
0
  0
VERTEX
  8
0
 10
66.4801
 20
119.458
 30
0.0
 40
0
 41
0
  0
VERTEX
  8
0
 10
66.4801
 20
118.323
 30
0.0
 40
0
 41
0
  0
VERTEX
  8
0
 10
64.5619
 20
116.405
 30
0.0
 40
0
 41
0
  0
VERTEX
  8
0
 10
65.3044
 20
115.662
 30
0.0
 40
0
 41
0
  0
VERTEX
  8
0
 10
66.4801
 20
116.838
 30
0.0
 40
0
 41
0
  0
VERTEX
  8
0
 10
66.4801
 20
106.872
 30
0.0
 40
0
 41
0
  0
VERTEX
  8
0
 10
56.9346
 20
106.872
 30
0.0
 40
0
 41
0
  0
VERTEX
  8
0
 10
56.9346
 20
105.772
 30
0.0
 40
0
 41
0
  0
VERTEX
  8
0
 10
47.3392
 20
105.772
 30
0.0
 40
0
 41
0
  0
VERTEX
  8
0
 10
47.3392
 20
119.458
 30
0.0
 40
0
 41
0
  0
VERTEX
  8
0
 10
53.6461
 20
119.458
 30
0.0
 40
0
 41
0
  0
SEQEND
 8
0
  0
POLYLINE
  8
0
 62
     0
 66
     1
 10
0
 20
0
 30
0.0
 70
     1
 40
0
 41
0
  0
VERTEX
  8
0
 10
81.6947
 20
8.96056
 30
0.0
 40
0
 41
0
  0
VERTEX
  8
0
 10
53.5879
 20
1.09131
 30
0.0
 40
0
 41
0
  0
VERTEX
  8
0
 10
53.5879
 20
16.8299
 30
0.0
 40
0
 41
0
  0
VERTEX
  8
0
 10
81.6947
 20
8.96056
 30
0.0
 40
0
 41
0
  0
SEQEND
 8
0
  0
POLYLINE
  8
0
 62
     0
 66
     1
 10
0
 20
0
 30
0.0
 70
     1
 40
0
 41
0
  0
VERTEX
  8
0
 10
131.063
 20
58.0721
 30
0.0
 40
0
 41
0
  0
VERTEX
  8
0
 10
129.963
 20
58.0721
 30
0.0
 40
0
 41
0
  0
VERTEX
  8
0
 10
129.963
 20
67.6487
 30
0.0
 40
0
 41
0
  0
VERTEX
  8
0
 10
139.079
 20
84.7046
 30
0.0
 40
0
 41
0
  0
VERTEX
  8
0
 10
148.194
 20
67.6487
 30
0.0
 40
0
 41
0
  0
VERTEX
  8
0
 10
148.194
 20
58.0721
 30
0.0
 40
0
 41
0
  0
VERTEX
  8
0
 10
147.094
 20
58.0721
 30
0.0
 40
0
 41
0
  0
VERTEX
  8
0
 10
147.094
 20
48.5265
 30
0.0
 40
0
 41
0
  0
VERTEX
  8
0
 10
131.063
 20
48.5265
 30
0.0
 40
0
 41
0
  0
VERTEX
  8
0
 10
131.063
 20
58.0721
 30
0.0
 40
0
 41
0
  0
SEQEND
 8
0
  0
POLYLINE
  8
0
 62
     0
 66
     1
 10
0
 20
0
 30
0.0
 70
     1
 40
0
 41
0
  0
VERTEX
  8
0
 10
140.989
 20
64.8585
 30
0.0
 40
0
 41
0
  0
VERTEX
  8
0
 10
137.169
 20
64.8585
 30
0.0
 40
0
 41
0
  0
VERTEX
  8
0
 10
137.169
 20
70.7235
 30
0.0
 40
0
 41
0
  0
VERTEX
  8
0
 10
137.169
 20
70.8824
 30
0.0
 40
0
 41
0
  0
VERTEX
  8
0
 10
137.201
 20
71.359
 30
0.0
 40
0
 41
0
  0
VERTEX
  8
0
 10
137.296
 20
71.9833
 30
0.0
 40
0
 41
0
  0
VERTEX
  8
0
 10
137.452
 20
72.5922
 30
0.0
 40
0
 41
0
  0
VERTEX
  8
0
 10
137.666
 20
73.1814
 30
0.0
 40
0
 41
0
  0
VERTEX
  8
0
 10
137.938
 20
73.7465
 30
0.0
 40
0
 41
0
  0
VERTEX
  8
0
 10
138.266
 20
74.2831
 30
0.0
 40
0
 41
0
  0
VERTEX
  8
0
 10
138.646
 20
74.7867
 30
0.0
 40
0
 41
0
  0
VERTEX
  8
0
 10
138.965
 20
75.1424
 30
0.0
 40
0
 41
0
  0
VERTEX
  8
0
 10
139.079
 20
75.2533
 30
0.0
 40
0
 41
0
  0
VERTEX
  8
0
 10
139.193
 20
75.1424
 30
0.0
 40
0
 41
0
  0
VERTEX
  8
0
 10
139.511
 20
74.7867
 30
0.0
 40
0
 41
0
  0
VERTEX
  8
0
 10
139.893
 20
74.2831
 30
0.0
 40
0
 41
0
  0
VERTEX
  8
0
 10
140.219
 20
73.7465
 30
0.0
 40
0
 41
0
  0
VERTEX
  8
0
 10
140.492
 20
73.1814
 30
0.0
 40
0
 41
0
  0
VERTEX
  8
0
 10
140.707
 20
72.5922
 30
0.0
 40
0
 41
0
  0
VERTEX
  8
0
 10
140.862
 20
71.9833
 30
0.0
 40
0
 41
0
  0
VERTEX
  8
0
 10
140.957
 20
71.359
 30
0.0
 40
0
 41
0
  0
VERTEX
  8
0
 10
140.989
 20
70.8824
 30
0.0
 40
0
 41
0
  0
VERTEX
  8
0
 10
140.989
 20
70.7235
 30
0.0
 40
0
 41
0
  0
VERTEX
  8
0
 10
140.989
 20
64.8585
 30
0.0
 40
0
 41
0
  0
SEQEND
 8
0
  0
POLYLINE
  8
0
 62
     0
 66
     1
 10
0
 20
0
 30
0.0
 70
     1
 40
0
 41
0
  0
VERTEX
  8
0
 10
116.256
 20
180.893
 30
0.0
 40
0
 41
0
  0
VERTEX
  8
0
 10
108.387
 20
209
 30
0.0
 40
0
 41
0
  0
VERTEX
  8
0
 10
124.125
 20
209
 30
0.0
 40
0
 41
0
  0
VERTEX
  8
0
 10
116.256
 20
180.893
 30
0.0
 40
0
 41
0
  0
SEQEND
 8
0
  0
POLYLINE
  8
0
 62
     0
 66
     1
 10
0
 20
0
 30
0.0
 70
     1
 40
0
 41
0
  0
VERTEX
  8
0
 10
67.8349
 20
13.8794
 30
0.0
 40
0
 41
0
  0
VERTEX
  8
0
 10
95.9418
 20
21.7488
 30
0.0
 40
0
 41
0
  0
VERTEX
  8
0
 10
95.9418
 20
6.01019
 30
0.0
 40
0
 41
0
  0
VERTEX
  8
0
 10
67.8349
 20
13.8794
 30
0.0
 40
0
 41
0
  0
SEQEND
 8
0
  0
POLYLINE
  8
0
 62
     0
 66
     1
 10
0
 20
0
 30
0.0
 70
     1
 40
0
 41
0
  0
VERTEX
  8
0
 10
106.537
 20
17.7364
 30
0.0
 40
0
 41
0
  0
VERTEX
  8
0
 10
106.537
 20
16.6364
 30
0.0
 40
0
 41
0
  0
VERTEX
  8
0
 10
116.083
 20
16.6364
 30
0.0
 40
0
 41
0
  0
VERTEX
  8
0
 10
116.083
 20
6.67031
 30
0.0
 40
0
 41
0
  0
VERTEX
  8
0
 10
114.907
 20
7.84592
 30
0.0
 40
0
 41
0
  0
VERTEX
  8
0
 10
114.165
 20
7.10346
 30
0.0
 40
0
 41
0
  0
VERTEX
  8
0
 10
116.083
 20
5.18539
 30
0.0
 40
0
 41
0
  0
VERTEX
  8
0
 10
116.083
 20
4.05003
 30
0.0
 40
0
 41
0
  0
VERTEX
  8
0
 10
110.123
 20
4.05003
 30
0.0
 40
0
 41
0
  0
VERTEX
  8
0
 10
110.123
 20
5.15001
 30
0.0
 40
0
 41
0
  0
VERTEX
  8
0
 10
103.249
 20
5.15001
 30
0.0
 40
0
 41
0
  0
VERTEX
  8
0
 10
103.249
 20
4.05003
 30
0.0
 40
0
 41
0
  0
VERTEX
  8
0
 10
96.9418
 20
4.05003
 30
0.0
 40
0
 41
0
  0
VERTEX
  8
0
 10
96.9418
 20
17.7364
 30
0.0
 40
0
 41
0
  0
VERTEX
  8
0
 10
106.537
 20
17.7364
 30
0.0
 40
0
 41
0
  0
SEQEND
 8
0
  0
POLYLINE
  8
0
 62
     0
 66
     1
 10
0
 20
0
 30
0.0
 70
     1
 40
0
 41
0
  0
VERTEX
  8
0
 10
145.879
 20
172.554
 30
0.0
 40
0
 41
0
  0
VERTEX
  8
0
 10
130.141
 20
172.554
 30
0.0
 40
0
 41
0
  0
VERTEX
  8
0
 10
138.01
 20
200.66
 30
0.0
 40
0
 41
0
  0
VERTEX
  8
0
 10
145.879
 20
172.554
 30
0.0
 40
0
 41
0
  0
SEQEND
 8
0
  0
POLYLINE
  8
0
 62
     0
 66
     1
 10
0
 20
0
 30
0.0
 70
     1
 40
0
 41
0
  0
VERTEX
  8
0
 10
138.126
 20
29.27
 30
0.0
 40
0
 41
0
  0
VERTEX
  8
0
 10
138.126
 20
30.37
 30
0.0
 40
0
 41
0
  0
VERTEX
  8
0
 10
128.58
 20
30.37
 30
0.0
 40
0
 41
0
  0
VERTEX
  8
0
 10
128.58
 20
40.3361
 30
0.0
 40
0
 41
0
  0
VERTEX
  8
0
 10
129.756
 20
39.1604
 30
0.0
 40
0
 41
0
  0
VERTEX
  8
0
 10
130.498
 20
39.9029
 30
0.0
 40
0
 41
0
  0
VERTEX
  8
0
 10
128.58
 20
41.8211
 30
0.0
 40
0
 41
0
  0
VERTEX
  8
0
 10
128.58
 20
42.9564
 30
0.0
 40
0
 41
0
  0
VERTEX
  8
0
 10
134.54
 20
42.9564
 30
0.0
 40
0
 41
0
  0
VERTEX
  8
0
 10
134.54
 20
41.8564
 30
0.0
 40
0
 41
0
  0
VERTEX
  8
0
 10
141.414
 20
41.8564
 30
0.0
 40
0
 41
0
  0
VERTEX
  8
0
 10
141.414
 20
42.9564
 30
0.0
 40
0
 41
0
  0
VERTEX
  8
0
 10
147.721
 20
42.9564
 30
0.0
 40
0
 41
0
  0
VERTEX
  8
0
 10
147.721
 20
29.27
 30
0.0
 40
0
 41
0
  0
VERTEX
  8
0
 10
138.126
 20
29.27
 30
0.0
 40
0
 41
0
  0
SEQEND
 8
0
  0
ENDSEC
  0
EOF
