0
SECTION
2
HEADER
9
$INSUNITS
70
4
9
$ACADVER
1
AC1014
9
$HANDSEED
5
FFFF
0
ENDSEC
0
SECTION
2
TABLES
0
TABLE
2
VPORT
5
8
100
AcDbSymbolTable
0
ENDTAB
0
TABLE
2
LTYPE
5
5
100
AcDbSymbolTable
0
LTYPE
5
14
100
AcDbSymbolTableRecord
100
AcDbLinetypeTableRecord
2
BYBLOCK
70
0
0
LTYPE
5
15
100
AcDbSymbolTableRecord
100
AcDbLinetypeTableRecord
2
BYLAYER
70
0
0
ENDTAB
0
TABLE
2
LAYER
5
2
100
AcDbSymbolTable
70
2
0
LAYER
5
50
100
AcDbSymbolTableRecord
100
AcDbLayerTableRecord
2
0
70
0
6
CONTINUOUS
0
ENDTAB
0
TABLE
2
STYLE
5
3
100
AcDbSymbolTable
70
1
0
STYLE
5
11
100
AcDbSymbolTableRecord
100
AcDbTextStyleTableRecord
2
STANDARD
70
0
0
ENDTAB
0
TABLE
2
VIEW
5
6
100
AcDbSymbolTable
70
0
0
ENDTAB
0
TABLE
2
UCS
5
7
100
AcDbSymbolTable
70
0
0
ENDTAB
0
TABLE
2
APPID
5
9
100
AcDbSymbolTable
70
2
0
APPID
5
12
100
AcDbSymbolTableRecord
100
AcDbRegAppTableRecord
2
ACAD
70
0
0
ENDTAB
0
TABLE
2
DIMSTYLE
5
A
100
AcDbSymbolTable
70
1
0
ENDTAB
0
TABLE
2
BLOCK_RECORD
5
1
100
AcDbSymbolTable
70
1
0
BLOCK_RECORD
5
1F
100
AcDbSymbolTableRecord
100
AcDbBlockTableRecord
2
*MODEL_SPACE
0
BLOCK_RECORD
5
1B
100
AcDbSymbolTableRecord
100
AcDbBlockTableRecord
2
*PAPER_SPACE
0
ENDTAB
0
ENDSEC
0
SECTION
2
BLOCKS
0
BLOCK
5
20
100
AcDbEntity
100
AcDbBlockBegin
2
*MODEL_SPACE
0
ENDBLK
5
21
100
AcDbEntity
100
AcDbBlockEnd
0
BLOCK
5
1C
100
AcDbEntity
100
AcDbBlockBegin
2
*PAPER_SPACE
0
ENDBLK
5
1D
100
AcDbEntity
100
AcDbBlockEnd
0
ENDSEC
0
SECTION
2
ENTITIES
0
LINE
5
100
100
AcDbEntity
8
0
100
AcDbLine
10
-21.492045174570627
20
-7.4920454545454529
30
0
11
-17.239319924757247
21
-7.4920454545454529
31
0
0
LINE
5
101
100
AcDbEntity
8
0
100
AcDbLine
10
-17.239319924757247
20
-7.4920454545454529
30
0
11
-17.239319924757247
21
-8.4920454545454547
31
0
0
LINE
5
102
100
AcDbEntity
8
0
100
AcDbLine
10
-17.239319924757247
20
-8.4920454545454547
30
0
11
-11.926250138980439
21
-8.4920454545454547
31
0
0
LINE
5
103
100
AcDbEntity
8
0
100
AcDbLine
10
-11.926250138980439
20
-8.4920454545454547
30
0
11
-11.926250138980439
21
-7.4920454545454529
31
0
0
LINE
5
104
100
AcDbEntity
8
0
100
AcDbLine
10
-11.926250138980439
20
-7.4920454545454529
30
0
11
-1.9431819507163706
21
-7.4920454545454529
31
0
0
LINE
5
105
100
AcDbEntity
8
0
100
AcDbLine
10
-1.9431819507163706
20
-7.4920454545454529
30
0
11
-1.9431819507163706
21
-8.4920454545454547
31
0
0
LINE
5
106
100
AcDbEntity
8
0
100
AcDbLine
10
-1.9431819507163706
20
-8.4920454545454547
30
0
11
2.4667723547540898
21
-8.4920454545454547
31
0
0
LINE
5
107
100
AcDbEntity
8
0
100
AcDbLine
10
2.4667723547540898
20
-8.4920454545454547
30
0
11
2.4667723547540898
21
-7.4920454545454529
31
0
0
LINE
5
108
100
AcDbEntity
8
0
100
AcDbLine
10
2.4667723547540898
20
-7.4920454545454529
30
0
11
10.564967451526517
21
-7.4920454545454529
31
0
0
LINE
5
109
100
AcDbEntity
8
0
100
AcDbLine
10
10.564967451526517
20
-7.4920454545454529
30
0
11
10.564967451526517
21
-8.4920454545454547
31
0
0
LINE
5
110
100
AcDbEntity
8
0
100
AcDbLine
10
10.564967451526517
20
-8.4920454545454547
30
0
11
15.639967451526516
21
-8.4920454545454547
31
0
0
LINE
5
111
100
AcDbEntity
8
0
100
AcDbLine
10
15.639967451526516
20
-8.4920454545454547
30
0
11
15.639967451526516
21
-7.4920454545454529
31
0
0
LINE
5
112
100
AcDbEntity
8
0
100
AcDbLine
10
15.639967451526516
20
-7.4920454545454529
30
0
11
21.492045454545462
21
-7.4920454545454529
31
0
0
LINE
5
113
100
AcDbEntity
8
0
100
AcDbLine
10
21.492045454545462
20
-7.4920454545454529
30
0
11
21.492045454545462
21
-6.0059109814992162
31
0
0
LINE
5
114
100
AcDbEntity
8
0
100
AcDbLine
10
21.492045454545462
20
-6.0059109814992162
30
0
11
20.492045454545465
21
-6.0059109814992162
31
0
0
LINE
5
115
100
AcDbEntity
8
0
100
AcDbLine
10
20.492045454545465
20
-6.0059109814992162
30
0
11
20.492045454545465
21
-4.0809109814992173
31
0
0
LINE
5
116
100
AcDbEntity
8
0
100
AcDbLine
10
20.492045454545465
20
-4.0809109814992173
30
0
11
21.492045454545462
21
-4.0809109814992173
31
0
0
LINE
5
117
100
AcDbEntity
8
0
100
AcDbLine
10
21.492045454545462
20
-4.0809109814992173
30
0
11
21.492045454545462
21
4.9053752585927857
31
0
0
LINE
5
118
100
AcDbEntity
8
0
100
AcDbLine
10
21.492045454545462
20
4.9053752585927857
30
0
11
20.492045454545465
21
4.9053752585927857
31
0
0
LINE
5
119
100
AcDbEntity
8
0
100
AcDbLine
10
20.492045454545465
20
4.9053752585927857
30
0
11
20.492045454545465
21
6.8303752585927846
31
0
0
LINE
5
120
100
AcDbEntity
8
0
100
AcDbLine
10
20.492045454545465
20
6.8303752585927846
30
0
11
21.492045454545462
21
6.8303752585927846
31
0
0
LINE
5
121
100
AcDbEntity
8
0
100
AcDbLine
10
21.492045454545462
20
6.8303752585927846
30
0
11
21.492045454545462
21
7.4920454545454618
31
0
0
LINE
5
122
100
AcDbEntity
8
0
100
AcDbLine
10
21.492045454545462
20
7.4920454545454618
30
0
11
6.1038324817476264
21
7.4920454545454618
31
0
0
LINE
5
123
100
AcDbEntity
8
0
100
AcDbLine
10
6.1038324817476264
20
7.4920454545454618
30
0
11
6.1038324817476264
21
8.4920454545454582
31
0
0
LINE
5
124
100
AcDbEntity
8
0
100
AcDbLine
10
6.1038324817476264
20
8.4920454545454582
30
0
11
-6.7138927081972133
21
8.4920454545454582
31
0
0
LINE
5
125
100
AcDbEntity
8
0
100
AcDbLine
10
-6.7138927081972133
20
8.4920454545454582
30
0
11
-6.7138927081972133
21
7.4920454545454618
31
0
0
LINE
5
126
100
AcDbEntity
8
0
100
AcDbLine
10
-6.7138927081972133
20
7.4920454545454618
30
0
11
-21.492045164385438
21
7.4920454545454618
31
0
0
LINE
5
127
100
AcDbEntity
8
0
100
AcDbLine
10
-21.492045164385438
20
7.4920454545454618
30
0
11
-21.492045471978216
21
6.8303752585927846
31
0
0
LINE
5
128
100
AcDbEntity
8
0
100
AcDbLine
10
-21.492045471978216
20
6.8303752585927846
30
0
11
-20.492045454545465
21
6.8303752585927846
31
0
0
LINE
5
129
100
AcDbEntity
8
0
100
AcDbLine
10
-20.492045454545462
20
6.8303752585927846
30
0
11
-20.492045454545462
21
4.9053752585927857
31
0
0
LINE
5
130
100
AcDbEntity
8
0
100
AcDbLine
10
-20.492045454545462
20
4.9053752585927857
30
0
11
-21.492045454545462
21
4.9053752585927857
31
0
0
LINE
5
131
100
AcDbEntity
8
0
100
AcDbLine
10
-21.492045454545462
20
4.9053752585927857
30
0
11
-21.492045454545462
21
-4.0809109814992173
31
0
0
LINE
5
132
100
AcDbEntity
8
0
100
AcDbLine
10
-21.492045454545462
20
-4.0809109814992173
30
0
11
-20.492045454545462
21
-4.0809109814992173
31
0
0
LINE
5
133
100
AcDbEntity
8
0
100
AcDbLine
10
-20.492045454545462
20
-4.0809109814992173
30
0
11
-20.492045454545462
21
-6.0059109814992162
31
0
0
LINE
5
134
100
AcDbEntity
8
0
100
AcDbLine
10
-20.492045454545462
20
-6.0059109814992162
30
0
11
-21.492045461793015
21
-6.0059109814992162
31
0
0
LINE
5
135
100
AcDbEntity
8
0
100
AcDbLine
10
-21.492045461793015
20
-6.0059109814992162
30
0
11
-21.492045174570627
21
-7.4920454545454529
31
0
0
LINE
5
136
100
AcDbEntity
8
0
100
AcDbLine
10
19.598863636363642
20
3.8715909090909228
30
0
11
19.598863636363642
21
-2.8715909090909086
31
0
0
LINE
5
137
100
AcDbEntity
8
0
100
AcDbLine
10
19.598863636363642
20
-2.8715909090909086
30
0
11
12.619318236363647
21
-2.8715909090909086
31
0
0
LINE
5
138
100
AcDbEntity
8
0
100
AcDbLine
10
12.619318236363647
20
-2.8715909090909086
30
0
11
12.619318236363647
21
3.8715909090909228
31
0
0
LINE
5
139
100
AcDbEntity
8
0
100
AcDbLine
10
12.619318236363647
20
3.8715909090909228
30
0
11
19.598863636363642
21
3.8715909090909228
31
0
0
LINE
5
140
100
AcDbEntity
8
0
100
AcDbLine
10
-12.619317963636366
20
-2.8715909090909086
30
0
11
-19.598863363636358
21
-2.8715909090909086
31
0
0
LINE
5
141
100
AcDbEntity
8
0
100
AcDbLine
10
-19.598863363636358
20
-2.8715909090909086
30
0
11
-19.598863363636358
21
3.8715909090909051
31
0
0
LINE
5
142
100
AcDbEntity
8
0
100
AcDbLine
10
-19.598863363636358
20
3.8715909090909051
30
0
11
-12.619317963636361
21
3.871590909090914
31
0
0
LINE
5
143
100
AcDbEntity
8
0
100
AcDbLine
10
-12.619317963636361
20
3.871590909090914
30
0
11
-12.619317963636366
21
-2.8715909090909086
31
0
0
LINE
5
144
100
AcDbEntity
8
0
100
AcDbLine
10
11.544318236363637
20
3.8715909090909228
30
0
11
11.54431823636363
21
-2.8715909090909086
31
0
0
LINE
5
145
100
AcDbEntity
8
0
100
AcDbLine
10
11.54431823636363
20
-2.8715909090909086
30
0
11
4.5647728363636331
21
-2.8715909090909086
31
0
0
LINE
5
146
100
AcDbEntity
8
0
100
AcDbLine
10
4.5647728363636331
20
-2.8715909090909086
30
0
11
4.5647728363636331
21
3.871590909090914
31
0
0
LINE
5
147
100
AcDbEntity
8
0
100
AcDbLine
10
4.5647728363636331
20
3.871590909090914
30
0
11
11.544318236363637
21
3.8715909090909228
31
0
0
LINE
5
148
100
AcDbEntity
8
0
100
AcDbLine
10
-3.4897725636363619
20
-2.8715909090909086
30
0
11
-3.4897725636363619
21
3.871590909090914
31
0
0
LINE
5
149
100
AcDbEntity
8
0
100
AcDbLine
10
-3.4897725636363619
20
3.871590909090914
30
0
11
3.4897728363636293
21
3.871590909090914
31
0
0
LINE
5
150
100
AcDbEntity
8
0
100
AcDbLine
10
3.4897728363636293
20
3.871590909090914
30
0
11
3.4897728363636293
21
-2.8715909090909086
31
0
0
LINE
5
151
100
AcDbEntity
8
0
100
AcDbLine
10
3.4897728363636293
20
-2.8715909090909086
30
0
11
-3.4897725636363619
21
-2.8715909090909086
31
0
0
LINE
5
152
100
AcDbEntity
8
0
100
AcDbLine
10
-4.5647725636363656
20
-2.8715909090909086
30
0
11
-11.54431796363636
21
-2.8715909090909086
31
0
0
LINE
5
153
100
AcDbEntity
8
0
100
AcDbLine
10
-11.54431796363636
20
-2.8715909090909086
30
0
11
-11.54431796363636
21
3.871590909090914
31
0
0
LINE
5
154
100
AcDbEntity
8
0
100
AcDbLine
10
-11.54431796363636
20
3.871590909090914
30
0
11
-4.5647725636363656
21
3.871590909090914
31
0
0
LINE
5
155
100
AcDbEntity
8
0
100
AcDbLine
10
-4.5647725636363656
20
3.871590909090914
30
0
11
-4.5647725636363656
21
-2.8715909090909086
31
0
0
LINE
5
156
100
AcDbEntity
8
0
100
AcDbLine
10
16.288796023732775
20
5.7647727272727334
30
0
11
12.363796023732775
21
5.7647727272727334
31
0
0
LINE
5
157
100
AcDbEntity
8
0
100
AcDbLine
10
12.363796023732775
20
5.7647727272727334
30
0
11
12.363796023732775
21
6.689772727272727
31
0
0
LINE
5
158
100
AcDbEntity
8
0
100
AcDbLine
10
12.363796023732775
20
6.689772727272727
30
0
11
16.288796023732775
21
6.689772727272727
31
0
0
LINE
5
159
100
AcDbEntity
8
0
100
AcDbLine
10
16.288796023732775
20
6.689772727272727
30
0
11
16.288796023732775
21
5.7647727272727334
31
0
0
LINE
5
160
100
AcDbEntity
8
0
100
AcDbLine
10
1.0575001402270834
20
6.689772727272727
30
0
11
1.0575001402270834
21
5.7647727272727334
31
0
0
LINE
5
161
100
AcDbEntity
8
0
100
AcDbLine
10
1.0575001402270834
20
5.7647727272727334
30
0
11
-3.1592102842938452
21
5.7647727272727334
31
0
0
LINE
5
162
100
AcDbEntity
8
0
100
AcDbLine
10
-3.1592102842938452
20
5.7647727272727334
30
0
11
-3.1592102842938452
21
6.689772727272727
31
0
0
LINE
5
163
100
AcDbEntity
8
0
100
AcDbLine
10
-3.1592102842938452
20
6.689772727272727
30
0
11
1.0575001402270834
21
6.689772727272727
31
0
0
LINE
5
164
100
AcDbEntity
8
0
100
AcDbLine
10
-12.174074087971967
20
5.7647727272727334
30
0
11
-16.099074087971964
21
5.7647727272727334
31
0
0
LINE
5
165
100
AcDbEntity
8
0
100
AcDbLine
10
-16.099074087971964
20
5.7647727272727334
30
0
11
-16.099074087971964
21
6.689772727272727
31
0
0
LINE
5
166
100
AcDbEntity
8
0
100
AcDbLine
10
-16.099074087971964
20
6.689772727272727
30
0
11
-12.174074087971967
21
6.689772727272727
31
0
0
LINE
5
167
100
AcDbEntity
8
0
100
AcDbLine
10
-12.174074087971967
20
6.689772727272727
30
0
11
-12.174074087971967
21
5.7647727272727334
31
0
0
ENDSEC
0
SECTION
2
OBJECTS
0
DICTIONARY
5
C
100
AcDbDictionary
3
ACAD_GROUP
350
D
3
ACAD_MLINESTYLE
350
17
0
DICTIONARY
5
D
100
AcDbDictionary
0
DICTIONARY
5
1A
330
C
100
AcDbDictionary
0
DICTIONARY
5
17
100
AcDbDictionary
0
ENDSEC
0
EOF
