0
SECTION
2
HEADER
9
$INSUNITS
70
4
9
$ACADVER
1
AC1014
9
$HANDSEED
5
FFFF
0
ENDSEC
0
SECTION
2
TABLES
0
TABLE
2
VPORT
5
8
100
AcDbSymbolTable
0
ENDTAB
0
TABLE
2
LTYPE
5
5
100
AcDbSymbolTable
0
LTYPE
5
14
100
AcDbSymbolTableRecord
100
AcDbLinetypeTableRecord
2
BYBLOCK
70
0
0
LTYPE
5
15
100
AcDbSymbolTableRecord
100
AcDbLinetypeTableRecord
2
BYLAYER
70
0
0
ENDTAB
0
TABLE
2
LAYER
5
2
100
AcDbSymbolTable
70
2
0
LAYER
5
50
100
AcDbSymbolTableRecord
100
AcDbLayerTableRecord
2
0
70
0
6
CONTINUOUS
0
ENDTAB
0
TABLE
2
STYLE
5
3
100
AcDbSymbolTable
70
1
0
STYLE
5
11
100
AcDbSymbolTableRecord
100
AcDbTextStyleTableRecord
2
STANDARD
70
0
0
ENDTAB
0
TABLE
2
VIEW
5
6
100
AcDbSymbolTable
70
0
0
ENDTAB
0
TABLE
2
UCS
5
7
100
AcDbSymbolTable
70
0
0
ENDTAB
0
TABLE
2
APPID
5
9
100
AcDbSymbolTable
70
2
0
APPID
5
12
100
AcDbSymbolTableRecord
100
AcDbRegAppTableRecord
2
ACAD
70
0
0
ENDTAB
0
TABLE
2
DIMSTYLE
5
A
100
AcDbSymbolTable
70
1
0
ENDTAB
0
TABLE
2
BLOCK_RECORD
5
1
100
AcDbSymbolTable
70
1
0
BLOCK_RECORD
5
1F
100
AcDbSymbolTableRecord
100
AcDbBlockTableRecord
2
*MODEL_SPACE
0
BLOCK_RECORD
5
1B
100
AcDbSymbolTableRecord
100
AcDbBlockTableRecord
2
*PAPER_SPACE
0
ENDTAB
0
ENDSEC
0
SECTION
2
BLOCKS
0
BLOCK
5
20
100
AcDbEntity
100
AcDbBlockBegin
2
*MODEL_SPACE
0
ENDBLK
5
21
100
AcDbEntity
100
AcDbBlockEnd
0
BLOCK
5
1C
100
AcDbEntity
100
AcDbBlockBegin
2
*PAPER_SPACE
0
ENDBLK
5
1D
100
AcDbEntity
100
AcDbBlockEnd
0
ENDSEC
0
SECTION
2
ENTITIES
0
LINE
5
100
100
AcDbEntity
8
0
100
AcDbLine
10
6.2346600097756788
20
-10.936527605754346
30
0
11
6.2346600097756788
21
-14.497891242117982
31
0
0
LINE
5
101
100
AcDbEntity
8
0
100
AcDbLine
10
6.2346600097756788
20
-14.49789124211798
30
0
11
4.4914781915938651
21
-14.49789124211798
31
0
0
LINE
5
102
100
AcDbEntity
8
0
100
AcDbLine
10
4.4914781915938651
20
-14.49789124211798
30
0
11
4.4914781915938651
21
-10.936527605754346
31
0
0
LINE
5
103
100
AcDbEntity
8
0
100
AcDbLine
10
4.4914781915938651
20
-10.936527605754346
30
0
11
6.2346600097756788
21
-10.936527605754346
31
0
0
LINE
5
104
100
AcDbEntity
8
0
100
AcDbLine
10
6.2346600097756788
20
24.618274724369591
30
0
11
6.2346600097756788
21
21.056911088005958
31
0
0
LINE
5
105
100
AcDbEntity
8
0
100
AcDbLine
10
6.2346600097756788
20
21.056911088005958
30
0
11
4.4914781915938651
21
21.056911088005958
31
0
0
LINE
5
106
100
AcDbEntity
8
0
100
AcDbLine
10
4.4914781915938651
20
21.056911088005958
30
0
11
4.4914781915938651
21
24.618274724369591
31
0
0
LINE
5
107
100
AcDbEntity
8
0
100
AcDbLine
10
4.4914781915938651
20
24.618274724369591
30
0
11
6.2346600097756788
21
24.618274724369591
31
0
0
LINE
5
108
100
AcDbEntity
8
0
100
AcDbLine
10
-4.742565810005952
20
7.9179722242449957
30
0
11
-4.742565810005952
21
4.356608587881361
31
0
0
LINE
5
109
100
AcDbEntity
8
0
100
AcDbLine
10
-4.742565810005952
20
4.356608587881361
30
0
11
-6.4857476281877657
21
4.356608587881361
31
0
0
LINE
5
110
100
AcDbEntity
8
0
100
AcDbLine
10
-6.4857476281877657
20
4.356608587881361
30
0
11
-6.4857476281877657
21
7.9179722242449957
31
0
0
LINE
5
111
100
AcDbEntity
8
0
100
AcDbLine
10
-6.4857476281877657
20
7.9179722242449957
30
0
11
-4.742565810005952
21
7.9179722242449957
31
0
0
LINE
5
112
100
AcDbEntity
8
0
100
AcDbLine
10
-12.401136363636368
20
-25.542369010944025
30
0
11
-11.401136363636368
21
-25.542369010944025
31
0
0
LINE
5
113
100
AcDbEntity
8
0
100
AcDbLine
10
-11.401136363636368
20
-25.542369010944025
30
0
11
-11.401136363636368
21
-32.355681818181822
31
0
0
LINE
5
114
100
AcDbEntity
8
0
100
AcDbLine
10
-11.401136363636368
20
-32.355681818181822
30
0
11
-8.7389682890943519
21
-32.355681818181822
31
0
0
LINE
5
115
100
AcDbEntity
8
0
100
AcDbLine
10
-8.7389682890943519
20
-32.355681818181822
30
0
11
-8.7389682890943519
21
-23.264772727272739
31
0
0
LINE
5
116
100
AcDbEntity
8
0
100
AcDbLine
10
-8.7389682890943519
20
-23.264772727272739
30
0
11
-4.7230591981852621
21
-23.264772727272739
31
0
0
LINE
5
117
100
AcDbEntity
8
0
100
AcDbLine
10
-4.7230591981852621
20
-23.264772727272739
30
0
11
-4.7230591981852621
21
-32.355681818181822
31
0
0
LINE
5
118
100
AcDbEntity
8
0
100
AcDbLine
10
-4.7230591981852621
20
-32.355681818181822
30
0
11
11.401136363636372
21
-32.355681818181822
31
0
0
LINE
5
119
100
AcDbEntity
8
0
100
AcDbLine
10
11.401136363636372
20
-32.355681818181822
30
0
11
11.401136363636372
21
-25.015664215052809
31
0
0
LINE
5
120
100
AcDbEntity
8
0
100
AcDbLine
10
11.401136363636372
20
-25.015664215052809
30
0
11
12.401136363636368
21
-25.015664215052809
31
0
0
LINE
5
121
100
AcDbEntity
8
0
100
AcDbLine
10
12.401136363636368
20
-25.015664215052809
30
0
11
12.401136363636368
21
-15.249295970654448
31
0
0
LINE
5
122
100
AcDbEntity
8
0
100
AcDbLine
10
12.401136363636368
20
-15.249295970654451
30
0
11
11.401136363636372
21
-15.249295970654451
31
0
0
LINE
5
123
100
AcDbEntity
8
0
100
AcDbLine
10
11.401136363636372
20
-15.249295970654451
30
0
11
11.401136363636372
21
8.1843146524786174
31
0
0
LINE
5
124
100
AcDbEntity
8
0
100
AcDbLine
10
11.401136363636372
20
8.1843146524786174
30
0
11
12.401136363636368
21
8.1843146524786174
31
0
0
LINE
5
125
100
AcDbEntity
8
0
100
AcDbLine
10
12.401136363636368
20
8.1843146524786174
30
0
11
12.401136363636368
21
19.856164072128252
31
0
0
LINE
5
126
100
AcDbEntity
8
0
100
AcDbLine
10
12.401136363636368
20
19.856164072128252
30
0
11
11.401136363636372
21
19.856164072128252
31
0
0
LINE
5
127
100
AcDbEntity
8
0
100
AcDbLine
10
11.401136363636372
20
19.856164072128252
30
0
11
11.401136363636372
21
31.355681818181822
31
0
0
LINE
5
128
100
AcDbEntity
8
0
100
AcDbLine
10
11.401136363636372
20
31.355681818181822
30
0
11
2.5624341714143606
21
31.355681818181825
31
0
0
LINE
5
129
100
AcDbEntity
8
0
100
AcDbLine
10
2.5624341714143606
20
31.355681818181825
30
0
11
2.5624341714143606
21
32.355681818181822
31
0
0
LINE
5
130
100
AcDbEntity
8
0
100
AcDbLine
10
2.5624341714143606
20
32.355681818181822
30
0
11
-6.3993542611170717
21
32.355681818181822
31
0
0
LINE
5
131
100
AcDbEntity
8
0
100
AcDbLine
10
-6.3993542611170717
20
32.355681818181822
30
0
11
-6.3993542611170717
21
31.355681818181822
31
0
0
LINE
5
132
100
AcDbEntity
8
0
100
AcDbLine
10
-6.3993542611170717
20
31.355681818181822
30
0
11
-11.401136363636368
21
31.355681818181822
31
0
0
LINE
5
133
100
AcDbEntity
8
0
100
AcDbLine
10
-11.401136363636368
20
31.355681818181822
30
0
11
-11.401136363636368
21
14.64102489223324
31
0
0
LINE
5
134
100
AcDbEntity
8
0
100
AcDbLine
10
-11.401136363636368
20
14.64102489223324
30
0
11
-12.401136363636368
21
14.64102489223324
31
0
0
LINE
5
135
100
AcDbEntity
8
0
100
AcDbLine
10
-12.401136363636368
20
14.64102489223324
30
0
11
-12.401136363636368
21
1.1327687118389274
31
0
0
LINE
5
136
100
AcDbEntity
8
0
100
AcDbLine
10
-12.401136363636368
20
1.1327687118389274
30
0
11
-11.401136363636368
21
1.1327687118389274
31
0
0
LINE
5
137
100
AcDbEntity
8
0
100
AcDbLine
10
-11.401136363636368
20
1.1327687118389274
30
0
11
-11.401136363636368
21
-15.249295970654451
31
0
0
LINE
5
138
100
AcDbEntity
8
0
100
AcDbLine
10
-11.401136363636368
20
-15.249295970654451
30
0
11
-12.401136363636368
21
-15.249295970654451
31
0
0
LINE
5
139
100
AcDbEntity
8
0
100
AcDbLine
10
-12.401136363636368
20
-15.249295970654451
30
0
11
-12.401136363636368
21
-25.542369010944025
31
0
0
ENDSEC
0
SECTION
2
OBJECTS
0
DICTIONARY
5
C
100
AcDbDictionary
3
ACAD_GROUP
350
D
3
ACAD_MLINESTYLE
350
17
0
DICTIONARY
5
D
100
AcDbDictionary
0
DICTIONARY
5
1A
330
C
100
AcDbDictionary
0
DICTIONARY
5
17
100
AcDbDictionary
0
ENDSEC
0
EOF
