0
SECTION
2
HEADER
9
$INSUNITS
70
4
9
$ACADVER
1
AC1014
9
$HANDSEED
5
FFFF
0
ENDSEC
0
SECTION
2
TABLES
0
TABLE
2
VPORT
5
8
100
AcDbSymbolTable
0
ENDTAB
0
TABLE
2
LTYPE
5
5
100
AcDbSymbolTable
0
LTYPE
5
14
100
AcDbSymbolTableRecord
100
AcDbLinetypeTableRecord
2
BYBLOCK
70
0
0
LTYPE
5
15
100
AcDbSymbolTableRecord
100
AcDbLinetypeTableRecord
2
BYLAYER
70
0
0
ENDTAB
0
TABLE
2
LAYER
5
2
100
AcDbSymbolTable
70
2
0
LAYER
5
50
100
AcDbSymbolTableRecord
100
AcDbLayerTableRecord
2
0
70
0
6
CONTINUOUS
0
ENDTAB
0
TABLE
2
STYLE
5
3
100
AcDbSymbolTable
70
1
0
STYLE
5
11
100
AcDbSymbolTableRecord
100
AcDbTextStyleTableRecord
2
STANDARD
70
0
0
ENDTAB
0
TABLE
2
VIEW
5
6
100
AcDbSymbolTable
70
0
0
ENDTAB
0
TABLE
2
UCS
5
7
100
AcDbSymbolTable
70
0
0
ENDTAB
0
TABLE
2
APPID
5
9
100
AcDbSymbolTable
70
2
0
APPID
5
12
100
AcDbSymbolTableRecord
100
AcDbRegAppTableRecord
2
ACAD
70
0
0
ENDTAB
0
TABLE
2
DIMSTYLE
5
A
100
AcDbSymbolTable
70
1
0
ENDTAB
0
TABLE
2
BLOCK_RECORD
5
1
100
AcDbSymbolTable
70
1
0
BLOCK_RECORD
5
1F
100
AcDbSymbolTableRecord
100
AcDbBlockTableRecord
2
*MODEL_SPACE
0
BLOCK_RECORD
5
1B
100
AcDbSymbolTableRecord
100
AcDbBlockTableRecord
2
*PAPER_SPACE
0
ENDTAB
0
ENDSEC
0
SECTION
2
BLOCKS
0
BLOCK
5
20
100
AcDbEntity
100
AcDbBlockBegin
2
*MODEL_SPACE
0
ENDBLK
5
21
100
AcDbEntity
100
AcDbBlockEnd
0
BLOCK
5
1C
100
AcDbEntity
100
AcDbBlockBegin
2
*PAPER_SPACE
0
ENDBLK
5
1D
100
AcDbEntity
100
AcDbBlockEnd
0
ENDSEC
0
SECTION
2
ENTITIES
0
LINE
5
100
100
AcDbEntity
8
0
100
AcDbLine
10
7.4920454545454529
20
3.9472096252098532
30
0
11
7.4920454545454529
21
12.446590909090908
31
0
0
LINE
5
101
100
AcDbEntity
8
0
100
AcDbLine
10
7.4920454545454529
20
12.446590909090908
30
0
11
6.080910981499219
21
12.446590909090908
31
0
0
LINE
5
102
100
AcDbEntity
8
0
100
AcDbLine
10
6.080910981499219
20
12.446590909090908
30
0
11
6.080910981499219
21
13.44659090909091
31
0
0
LINE
5
103
100
AcDbEntity
8
0
100
AcDbLine
10
6.080910981499219
20
13.44659090909091
30
0
11
4.0059109814992144
21
13.44659090909091
31
0
0
LINE
5
104
100
AcDbEntity
8
0
100
AcDbLine
10
4.0059109814992144
20
13.44659090909091
30
0
11
4.0059109814992144
21
12.446590909090908
31
0
0
LINE
5
105
100
AcDbEntity
8
0
100
AcDbLine
10
4.0059109814992144
20
12.446590909090908
30
0
11
-4.8303752585927828
21
12.446590909090908
31
0
0
LINE
5
106
100
AcDbEntity
8
0
100
AcDbLine
10
-4.8303752585927828
20
12.446590909090908
30
0
11
-4.8303752585927828
21
13.44659090909091
31
0
0
LINE
5
107
100
AcDbEntity
8
0
100
AcDbLine
10
-4.8303752585927828
20
13.44659090909091
30
0
11
-6.9053752585927874
21
13.44659090909091
31
0
0
LINE
5
108
100
AcDbEntity
8
0
100
AcDbLine
10
-6.9053752585927874
20
13.44659090909091
30
0
11
-6.9053752585927874
21
12.446590909090908
31
0
0
LINE
5
109
100
AcDbEntity
8
0
100
AcDbLine
10
-6.9053752585927874
20
12.446590909090908
30
0
11
-7.4920454545454618
21
12.446590909090908
31
0
0
LINE
5
110
100
AcDbEntity
8
0
100
AcDbLine
10
-7.4920454545454618
20
12.446590909090908
30
0
11
-7.4920454545454618
21
4.9462389670932438
31
0
0
LINE
5
111
100
AcDbEntity
8
0
100
AcDbLine
10
-7.4920454545454618
20
4.9462389670932438
30
0
11
-8.4920454545454582
21
4.9462389670932438
31
0
0
LINE
5
112
100
AcDbEntity
8
0
100
AcDbLine
10
-8.4920454545454582
20
4.9462389670932438
30
0
11
-8.4920454545454582
21
-4.9844625470047195
31
0
0
LINE
5
113
100
AcDbEntity
8
0
100
AcDbLine
10
-8.4920454545454582
20
-4.9844625470047195
30
0
11
-7.4920454545454618
21
-4.9844625470047195
31
0
0
LINE
5
114
100
AcDbEntity
8
0
100
AcDbLine
10
-7.4920454545454618
20
-4.9844625470047195
30
0
11
-7.4920454545454618
21
-12.446590909090908
31
0
0
LINE
5
115
100
AcDbEntity
8
0
100
AcDbLine
10
-7.4920454545454618
20
-12.446590909090908
30
0
11
-6.9053752585927874
21
-12.446590909090908
31
0
0
LINE
5
116
100
AcDbEntity
8
0
100
AcDbLine
10
-6.9053752585927874
20
-12.446590909090908
30
0
11
-6.9053752585927874
21
-13.44659090909091
31
0
0
LINE
5
117
100
AcDbEntity
8
0
100
AcDbLine
10
-6.9053752585927874
20
-13.44659090909091
30
0
11
-4.8303752585927828
21
-13.44659090909091
31
0
0
LINE
5
118
100
AcDbEntity
8
0
100
AcDbLine
10
-4.8303752585927828
20
-13.44659090909091
30
0
11
-4.8303752585927828
21
-12.446590909090908
31
0
0
LINE
5
119
100
AcDbEntity
8
0
100
AcDbLine
10
-4.8303752585927828
20
-12.446590909090908
30
0
11
4.0059109814992144
21
-12.446590909090922
31
0
0
LINE
5
120
100
AcDbEntity
8
0
100
AcDbLine
10
4.0059109814992144
20
-12.446590909090922
30
0
11
4.0059109814992144
21
-13.44659090909091
31
0
0
LINE
5
121
100
AcDbEntity
8
0
100
AcDbLine
10
4.0059109814992144
20
-13.44659090909091
30
0
11
6.080910981499219
21
-13.44659090909091
31
0
0
LINE
5
122
100
AcDbEntity
8
0
100
AcDbLine
10
6.080910981499219
20
-13.44659090909091
30
0
11
6.080910981499219
21
-12.446590909090908
31
0
0
LINE
5
123
100
AcDbEntity
8
0
100
AcDbLine
10
6.080910981499219
20
-12.446590909090908
30
0
11
7.4920454545454529
21
-12.446590909090908
31
0
0
LINE
5
124
100
AcDbEntity
8
0
100
AcDbLine
10
7.4920454545454529
20
-12.446590909090908
30
0
11
7.4920454545454529
21
-7.541248510186243
31
0
0
LINE
5
125
100
AcDbEntity
8
0
100
AcDbLine
10
7.4920454545454529
20
-7.541248510186243
30
0
11
8.4920454545454547
21
-7.541248510186243
31
0
0
LINE
5
126
100
AcDbEntity
8
0
100
AcDbLine
10
8.4920454545454547
20
-7.541248510186243
30
0
11
8.4920454545454547
21
3.9472096252098532
31
0
0
LINE
5
127
100
AcDbEntity
8
0
100
AcDbLine
10
8.4920454545454547
20
3.9472096252098532
30
0
11
7.4920454545454529
21
3.9472096252098532
31
0
0
LINE
5
128
100
AcDbEntity
8
0
100
AcDbLine
10
-6.689772727272727
20
-10.978640456524024
30
0
11
-6.689772727272727
21
-7.0536404565240236
31
0
0
LINE
5
129
100
AcDbEntity
8
0
100
AcDbLine
10
-6.689772727272727
20
-7.0536404565240236
30
0
11
-5.7647727272727334
21
-7.0536404565240236
31
0
0
LINE
5
130
100
AcDbEntity
8
0
100
AcDbLine
10
-5.7647727272727334
20
-7.0536404565240236
30
0
11
-5.7647727272727334
21
-10.978640456524024
31
0
0
LINE
5
131
100
AcDbEntity
8
0
100
AcDbLine
10
-5.7647727272727334
20
-10.978640456524024
30
0
11
-6.689772727272727
21
-10.978640456524024
31
0
0
LINE
5
132
100
AcDbEntity
8
0
100
AcDbLine
10
2.8715909090909086
20
-4.5678030303030326
30
0
11
2.8715909090909086
21
-11.553409090909089
31
0
0
LINE
5
133
100
AcDbEntity
8
0
100
AcDbLine
10
2.8715909090909086
20
-11.553409090909089
30
0
11
-3.8715909090909051
21
-11.553409090909089
31
0
0
LINE
5
134
100
AcDbEntity
8
0
100
AcDbLine
10
-3.8715909090909051
20
-11.553409090909089
30
0
11
-3.8715909090909051
21
-4.5678030303030326
31
0
0
LINE
5
135
100
AcDbEntity
8
0
100
AcDbLine
10
-3.8715909090909051
20
-4.5678030303030326
30
0
11
2.8715909090909086
21
-4.5678030303030326
31
0
0
LINE
5
136
100
AcDbEntity
8
0
100
AcDbLine
10
-3.8715909090909051
20
4.5678030303030317
30
0
11
-3.8715909090909051
21
11.553409090909089
31
0
0
LINE
5
137
100
AcDbEntity
8
0
100
AcDbLine
10
-3.8715909090909051
20
11.553409090909089
30
0
11
2.8715909090909086
21
11.553409090909089
31
0
0
LINE
5
138
100
AcDbEntity
8
0
100
AcDbLine
10
2.8715909090909086
20
11.553409090909089
30
0
11
2.8715909090909086
21
4.5678030303030317
31
0
0
LINE
5
139
100
AcDbEntity
8
0
100
AcDbLine
10
2.8715909090909086
20
4.5678030303030317
30
0
11
-3.8715909090909051
21
4.5678030303030317
31
0
0
LINE
5
140
100
AcDbEntity
8
0
100
AcDbLine
10
-3.8715909090909051
20
3.4928030303030311
30
0
11
2.8715909090909086
21
3.4928030303030311
31
0
0
LINE
5
141
100
AcDbEntity
8
0
100
AcDbLine
10
2.8715909090909086
20
3.4928030303030311
30
0
11
2.8715909090909086
21
-3.4928030303030311
31
0
0
LINE
5
142
100
AcDbEntity
8
0
100
AcDbLine
10
2.8715909090909086
20
-3.4928030303030311
30
0
11
-3.8715909090909051
21
-3.4928030303030311
31
0
0
LINE
5
143
100
AcDbEntity
8
0
100
AcDbLine
10
-3.8715909090909051
20
-3.4928030303030311
30
0
11
-3.8715909090909051
21
3.4928030303030311
31
0
0
LINE
5
144
100
AcDbEntity
8
0
100
AcDbLine
10
-6.689772727272727
20
9.8116827206930548
30
0
11
-5.7647727272727334
21
9.8116827206930548
31
0
0
LINE
5
145
100
AcDbEntity
8
0
100
AcDbLine
10
-5.7647727272727334
20
9.8116827206930548
30
0
11
-5.7647727272727334
21
5.886682720693055
31
0
0
LINE
5
146
100
AcDbEntity
8
0
100
AcDbLine
10
-5.7647727272727334
20
5.886682720693055
30
0
11
-6.689772727272727
21
5.886682720693055
31
0
0
LINE
5
147
100
AcDbEntity
8
0
100
AcDbLine
10
-6.689772727272727
20
5.886682720693055
30
0
11
-6.689772727272727
21
9.8116827206930548
31
0
0
ENDSEC
0
SECTION
2
OBJECTS
0
DICTIONARY
5
C
100
AcDbDictionary
3
ACAD_GROUP
350
D
3
ACAD_MLINESTYLE
350
17
0
DICTIONARY
5
D
100
AcDbDictionary
0
DICTIONARY
5
1A
330
C
100
AcDbDictionary
0
DICTIONARY
5
17
100
AcDbDictionary
0
ENDSEC
0
EOF
