0
SECTION
2
HEADER
9
$INSUNITS
70
4
9
$ACADVER
1
AC1014
9
$HANDSEED
5
FFFF
0
ENDSEC
0
SECTION
2
TABLES
0
TABLE
2
VPORT
5
8
100
AcDbSymbolTable
0
ENDTAB
0
TABLE
2
LTYPE
5
5
100
AcDbSymbolTable
0
LTYPE
5
14
100
AcDbSymbolTableRecord
100
AcDbLinetypeTableRecord
2
BYBLOCK
70
0
0
LTYPE
5
15
100
AcDbSymbolTableRecord
100
AcDbLinetypeTableRecord
2
BYLAYER
70
0
0
ENDTAB
0
TABLE
2
LAYER
5
2
100
AcDbSymbolTable
70
2
0
LAYER
5
50
100
AcDbSymbolTableRecord
100
AcDbLayerTableRecord
2
0
70
0
6
CONTINUOUS
0
ENDTAB
0
TABLE
2
STYLE
5
3
100
AcDbSymbolTable
70
1
0
STYLE
5
11
100
AcDbSymbolTableRecord
100
AcDbTextStyleTableRecord
2
STANDARD
70
0
0
ENDTAB
0
TABLE
2
VIEW
5
6
100
AcDbSymbolTable
70
0
0
ENDTAB
0
TABLE
2
UCS
5
7
100
AcDbSymbolTable
70
0
0
ENDTAB
0
TABLE
2
APPID
5
9
100
AcDbSymbolTable
70
2
0
APPID
5
12
100
AcDbSymbolTableRecord
100
AcDbRegAppTableRecord
2
ACAD
70
0
0
ENDTAB
0
TABLE
2
DIMSTYLE
5
A
100
AcDbSymbolTable
70
1
0
ENDTAB
0
TABLE
2
BLOCK_RECORD
5
1
100
AcDbSymbolTable
70
1
0
BLOCK_RECORD
5
1F
100
AcDbSymbolTableRecord
100
AcDbBlockTableRecord
2
*MODEL_SPACE
0
BLOCK_RECORD
5
1B
100
AcDbSymbolTableRecord
100
AcDbBlockTableRecord
2
*PAPER_SPACE
0
ENDTAB
0
ENDSEC
0
SECTION
2
BLOCKS
0
BLOCK
5
20
100
AcDbEntity
100
AcDbBlockBegin
2
*MODEL_SPACE
0
ENDBLK
5
21
100
AcDbEntity
100
AcDbBlockEnd
0
BLOCK
5
1C
100
AcDbEntity
100
AcDbBlockBegin
2
*PAPER_SPACE
0
ENDBLK
5
1D
100
AcDbEntity
100
AcDbBlockEnd
0
ENDSEC
0
SECTION
2
ENTITIES
0
LINE
5
100
100
AcDbEntity
8
0
100
AcDbLine
10
15.32429597065441
20
-8.1284090909090931
30
0
11
24.940664215052767
21
-8.1284090909090931
31
0
0
LINE
5
101
100
AcDbEntity
8
0
100
AcDbLine
10
24.940664215052767
20
-8.1284090909090931
30
0
11
24.940664215052763
21
-9.1284090909090931
31
0
0
LINE
5
102
100
AcDbEntity
8
0
100
AcDbLine
10
24.940664215052763
20
-9.1284090909090931
30
0
11
32.355681818181779
21
-9.1284090909090931
31
0
0
LINE
5
103
100
AcDbEntity
8
0
100
AcDbLine
10
32.355681818181779
20
-9.1284090909090931
30
0
11
32.355681818181864
21
9.1284090909090931
31
0
0
LINE
5
104
100
AcDbEntity
8
0
100
AcDbLine
10
32.355681818181864
20
9.1284090909090931
30
0
11
25.816306366509252
21
9.1284090909090931
31
0
0
LINE
5
105
100
AcDbEntity
8
0
100
AcDbLine
10
25.816306366509252
20
9.1284090909090931
30
0
11
25.816306366509252
21
8.1284090909090914
31
0
0
LINE
5
106
100
AcDbEntity
8
0
100
AcDbLine
10
25.816306366509252
20
8.1284090909090914
30
0
11
19.817657749919846
21
8.1284090909090914
31
0
0
LINE
5
107
100
AcDbEntity
8
0
100
AcDbLine
10
19.817657749919849
20
8.1284090909090914
30
0
11
19.817657749919849
21
9.1284090909090931
31
0
0
LINE
5
108
100
AcDbEntity
8
0
100
AcDbLine
10
19.817657749919849
20
9.1284090909090931
30
0
11
1.2363014820101603
21
9.1284090909090931
31
0
0
LINE
5
109
100
AcDbEntity
8
0
100
AcDbLine
10
1.2363014820101603
20
9.1284090909090931
30
0
11
1.2363014820101603
21
8.1284090909090914
31
0
0
LINE
5
110
100
AcDbEntity
8
0
100
AcDbLine
10
1.2363014820101603
20
8.1284090909090914
30
0
11
-4.5602053010220338
21
8.1284090909090914
31
0
0
LINE
5
111
100
AcDbEntity
8
0
100
AcDbLine
10
-4.5602053010220338
20
8.1284090909090914
30
0
11
-4.5602053010220356
21
9.1284090909090931
31
0
0
LINE
5
112
100
AcDbEntity
8
0
100
AcDbLine
10
-4.5602053010220356
20
9.1284090909090931
30
0
11
-18.388545426369891
21
9.1284090909090931
31
0
0
LINE
5
113
100
AcDbEntity
8
0
100
AcDbLine
10
-18.388545426369891
20
9.1284090909090931
30
0
11
-18.388545426369888
21
8.1284090909090914
31
0
0
LINE
5
114
100
AcDbEntity
8
0
100
AcDbLine
10
-18.388545426369888
20
8.1284090909090914
30
0
11
-24.897968323371501
21
8.1284090909090914
31
0
0
LINE
5
115
100
AcDbEntity
8
0
100
AcDbLine
10
-24.897968323371501
20
8.1284090909090914
30
0
11
-24.897968323371501
21
9.1284090909090931
31
0
0
LINE
5
116
100
AcDbEntity
8
0
100
AcDbLine
10
-24.897968323371501
20
9.1284090909090931
30
0
11
-31.355681818181864
21
9.1284090909090931
31
0
0
LINE
5
117
100
AcDbEntity
8
0
100
AcDbLine
10
-31.355681818181864
20
9.1284090909090931
30
0
11
-31.355681818181864
21
3.7759539780984408
31
0
0
LINE
5
118
100
AcDbEntity
8
0
100
AcDbLine
10
-31.355681818181864
20
3.7759539780984408
30
0
11
-32.355681818181864
21
3.7759539780984408
31
0
0
LINE
5
119
100
AcDbEntity
8
0
100
AcDbLine
10
-32.355681818181864
20
3.7759539780984408
30
0
11
-32.355681818181864
21
-2.3607553475324403
31
0
0
LINE
5
120
100
AcDbEntity
8
0
100
AcDbLine
10
-32.355681818181864
20
-2.3607553475324403
30
0
11
-31.355681818181864
21
-2.3607553475324394
31
0
0
LINE
5
121
100
AcDbEntity
8
0
100
AcDbLine
10
-31.355681818181864
20
-2.3607553475324394
30
0
11
-31.355681818181868
21
-9.1284090909090931
31
0
0
LINE
5
122
100
AcDbEntity
8
0
100
AcDbLine
10
-31.355681818181868
20
-9.1284090909090931
30
0
11
-19.781164072128291
21
-9.1284090909090931
31
0
0
LINE
5
123
100
AcDbEntity
8
0
100
AcDbLine
10
-19.781164072128291
20
-9.1284090909090931
30
0
11
-19.781164072128291
21
-8.1284090909090931
31
0
0
LINE
5
124
100
AcDbEntity
8
0
100
AcDbLine
10
-19.781164072128291
20
-8.1284090909090931
30
0
11
-8.2593146524786611
21
-8.1284090909090931
31
0
0
LINE
5
125
100
AcDbEntity
8
0
100
AcDbLine
10
-8.2593146524786611
20
-8.1284090909090931
30
0
11
-8.2593146524786647
21
-9.1284090909090931
31
0
0
LINE
5
126
100
AcDbEntity
8
0
100
AcDbLine
10
-8.2593146524786647
20
-9.1284090909090931
30
0
11
15.32429597065441
21
-9.1284090909090931
31
0
0
LINE
5
127
100
AcDbEntity
8
0
100
AcDbLine
10
15.32429597065441
20
-9.1284090909090931
30
0
11
15.32429597065441
21
-8.1284090909090931
31
0
0
LINE
5
128
100
AcDbEntity
8
0
100
AcDbLine
10
25.889791059149083
20
5.5941747690780597
30
0
11
25.889791059149083
21
2.941902041805331
31
0
0
LINE
5
129
100
AcDbEntity
8
0
100
AcDbLine
10
25.889791059149083
20
2.941902041805331
30
0
11
20.510245604603625
21
2.941902041805331
31
0
0
LINE
5
130
100
AcDbEntity
8
0
100
AcDbLine
10
20.510245604603625
20
2.941902041805331
30
0
11
20.510245604603625
21
5.5941747690780597
31
0
0
LINE
5
131
100
AcDbEntity
8
0
100
AcDbLine
10
20.510245604603625
20
5.5941747690780597
30
0
11
25.889791059149083
21
5.5941747690780597
31
0
0
LINE
5
132
100
AcDbEntity
8
0
100
AcDbLine
10
-3.8347943722944122
20
3.1024352692938462
30
0
11
-3.8347943722944122
21
5.7547079965665748
31
0
0
LINE
5
133
100
AcDbEntity
8
0
100
AcDbLine
10
-3.8347943722944122
20
5.7547079965665748
30
0
11
1.5447510822510435
21
5.7547079965665748
31
0
0
LINE
5
134
100
AcDbEntity
8
0
100
AcDbLine
10
1.5447510822510435
20
5.7547079965665748
30
0
11
1.5447510822510431
21
3.1024352692938462
31
0
0
LINE
5
135
100
AcDbEntity
8
0
100
AcDbLine
10
1.5447510822510431
20
3.1024352692938462
30
0
11
-3.8347943722944127
21
3.1024352692938462
31
0
0
LINE
5
136
100
AcDbEntity
8
0
100
AcDbLine
10
-3.8347943722944122
20
-4.0534090164032861
30
0
11
-3.8347943722944122
21
-1.4011362891305579
31
0
0
LINE
5
137
100
AcDbEntity
8
0
100
AcDbLine
10
-3.8347943722944122
20
-1.4011362891305579
30
0
11
1.5447510822510435
21
-1.4011362891305579
31
0
0
LINE
5
138
100
AcDbEntity
8
0
100
AcDbLine
10
1.5447510822510435
20
-1.4011362891305579
30
0
11
1.5447510822510431
21
-4.0534090164032861
31
0
0
LINE
5
139
100
AcDbEntity
8
0
100
AcDbLine
10
1.5447510822510431
20
-4.0534090164032861
30
0
11
-3.8347943722944127
21
-4.0534090164032861
31
0
0
ENDSEC
0
SECTION
2
OBJECTS
0
DICTIONARY
5
C
100
AcDbDictionary
3
ACAD_GROUP
350
D
3
ACAD_MLINESTYLE
350
17
0
DICTIONARY
5
D
100
AcDbDictionary
0
DICTIONARY
5
1A
330
C
100
AcDbDictionary
0
DICTIONARY
5
17
100
AcDbDictionary
0
ENDSEC
0
EOF
