0
SECTION
2
HEADER
9
$INSUNITS
70
4
9
$ACADVER
1
AC1014
9
$HANDSEED
5
FFFF
0
ENDSEC
0
SECTION
2
TABLES
0
TABLE
2
VPORT
5
8
100
AcDbSymbolTable
0
ENDTAB
0
TABLE
2
LTYPE
5
5
100
AcDbSymbolTable
0
LTYPE
5
14
100
AcDbSymbolTableRecord
100
AcDbLinetypeTableRecord
2
BYBLOCK
70
0
0
LTYPE
5
15
100
AcDbSymbolTableRecord
100
AcDbLinetypeTableRecord
2
BYLAYER
70
0
0
ENDTAB
0
TABLE
2
LAYER
5
2
100
AcDbSymbolTable
70
2
0
LAYER
5
50
100
AcDbSymbolTableRecord
100
AcDbLayerTableRecord
2
0
70
0
6
CONTINUOUS
0
ENDTAB
0
TABLE
2
STYLE
5
3
100
AcDbSymbolTable
70
1
0
STYLE
5
11
100
AcDbSymbolTableRecord
100
AcDbTextStyleTableRecord
2
STANDARD
70
0
0
ENDTAB
0
TABLE
2
VIEW
5
6
100
AcDbSymbolTable
70
0
0
ENDTAB
0
TABLE
2
UCS
5
7
100
AcDbSymbolTable
70
0
0
ENDTAB
0
TABLE
2
APPID
5
9
100
AcDbSymbolTable
70
2
0
APPID
5
12
100
AcDbSymbolTableRecord
100
AcDbRegAppTableRecord
2
ACAD
70
0
0
ENDTAB
0
TABLE
2
DIMSTYLE
5
A
100
AcDbSymbolTable
70
1
0
ENDTAB
0
TABLE
2
BLOCK_RECORD
5
1
100
AcDbSymbolTable
70
1
0
BLOCK_RECORD
5
1F
100
AcDbSymbolTableRecord
100
AcDbBlockTableRecord
2
*MODEL_SPACE
0
BLOCK_RECORD
5
1B
100
AcDbSymbolTableRecord
100
AcDbBlockTableRecord
2
*PAPER_SPACE
0
ENDTAB
0
ENDSEC
0
SECTION
2
BLOCKS
0
BLOCK
5
20
100
AcDbEntity
100
AcDbBlockBegin
2
*MODEL_SPACE
0
ENDBLK
5
21
100
AcDbEntity
100
AcDbBlockEnd
0
BLOCK
5
1C
100
AcDbEntity
100
AcDbBlockBegin
2
*PAPER_SPACE
0
ENDBLK
5
1D
100
AcDbEntity
100
AcDbBlockEnd
0
ENDSEC
0
SECTION
2
ENTITIES
0
LINE
5
100
100
AcDbEntity
8
0
100
AcDbLine
10
-32.355681818181864
20
13.219318181818178
30
0
11
-32.355681818181864
21
11.144318181818178
31
0
0
LINE
5
101
100
AcDbEntity
8
0
100
AcDbLine
10
-32.355681818181864
20
11.144318181818178
30
0
11
-31.355681818181857
21
11.144318181818178
31
0
0
LINE
5
102
100
AcDbEntity
8
0
100
AcDbLine
10
-31.355681818181857
20
11.144318181818178
30
0
11
-31.355681818181857
21
8.4007283728058599
31
0
0
ARC
5
103
100
AcDbEntity
8
0
100
AcDbCircle
10
-28.434042193789018
20
8.2169011382476214
30
0
40
2.9274170435706015
210
0
220
0
230
1
100
AcDbArc
50
90.000000000000057
51
176.3997411858368
0
LINE
5
104
100
AcDbEntity
8
0
100
AcDbLine
10
-28.434042193789022
20
11.144318181818223
30
0
11
13.327438301531291
21
11.144318181818157
31
0
0
ARC
5
105
100
AcDbEntity
8
0
100
AcDbCircle
10
13.139566398720861
20
9.4831081725099367
30
0
40
1.6717997927058825
210
-0
220
0
230
1
100
AcDbArc
50
-65.999999999999915
51
83.547640594998612
0
LINE
5
106
100
AcDbEntity
8
0
100
AcDbLine
10
13.819548634300871
20
7.955843065795638
30
0
11
-28.773221993175273
21
-11.007680204323492
31
0
0
ARC
5
107
100
AcDbEntity
8
0
100
AcDbCircle
10
-29.288607258976317
20
-9.0834299406544154
30
0
40
1.9920745592058831
210
0
220
0
230
1
100
AcDbArc
50
180
51
284.99399805870695
0
ARC
5
108
100
AcDbEntity
8
0
100
AcDbCircle
10
-31.3181818181822
20
-9.0834299406544119
30
0
40
0.037500000000001421
210
0
220
-0
230
1
100
AcDbArc
50
0
51
180
0
LINE
5
109
100
AcDbEntity
8
0
100
AcDbLine
10
-31.355681818182202
20
-9.0834299406544172
30
0
11
-31.355681818181864
21
-12.144318181818184
31
0
0
LINE
5
110
100
AcDbEntity
8
0
100
AcDbLine
10
-31.355681818181864
20
-12.144318181818184
30
0
11
-32.355681818181864
21
-12.144318181818184
31
0
0
LINE
5
111
100
AcDbEntity
8
0
100
AcDbLine
10
-32.355681818181864
20
-12.144318181818184
30
0
11
-32.355681818181864
21
-14.219318181818183
31
0
0
LINE
5
112
100
AcDbEntity
8
0
100
AcDbLine
10
-32.355681818181864
20
-14.219318181818183
30
0
11
32.355681818181864
21
-14.219318181818183
31
0
0
LINE
5
113
100
AcDbEntity
8
0
100
AcDbLine
10
32.355681818181864
20
-14.219318181818183
30
0
11
32.355681818181864
21
14.219318181818188
31
0
0
LINE
5
114
100
AcDbEntity
8
0
100
AcDbLine
10
32.355681818181864
20
14.219318181818188
30
0
11
17.314318181818138
21
14.219318181818185
31
0
0
LINE
5
115
100
AcDbEntity
8
0
100
AcDbLine
10
17.314318181818138
20
14.219318181818185
30
0
11
17.314318181818138
21
13.219318181818176
31
0
0
LINE
5
116
100
AcDbEntity
8
0
100
AcDbLine
10
17.314318181818138
20
13.219318181818176
30
0
11
16.389318181818137
21
13.219318181818176
31
0
0
LINE
5
117
100
AcDbEntity
8
0
100
AcDbLine
10
16.389318181818137
20
13.219318181818176
30
0
11
16.38931818181814
21
14.219318181818185
31
0
0
LINE
5
118
100
AcDbEntity
8
0
100
AcDbLine
10
16.38931818181814
20
14.219318181818185
30
0
11
-15.795681818181865
21
14.21931818181818
31
0
0
LINE
5
119
100
AcDbEntity
8
0
100
AcDbLine
10
-15.795681818181864
20
14.21931818181818
30
0
11
-15.795681818181864
21
13.219318181818176
31
0
0
LINE
5
120
100
AcDbEntity
8
0
100
AcDbLine
10
-15.795681818181864
20
13.219318181818176
30
0
11
-16.720681818181866
21
13.219318181818176
31
0
0
LINE
5
121
100
AcDbEntity
8
0
100
AcDbLine
10
-16.720681818181866
20
13.219318181818176
30
0
11
-16.720681818181866
21
14.21931818181818
31
0
0
LINE
5
122
100
AcDbEntity
8
0
100
AcDbLine
10
-16.720681818181866
20
14.21931818181818
30
0
11
-31.355681818181857
21
14.219318181818178
31
0
0
LINE
5
123
100
AcDbEntity
8
0
100
AcDbLine
10
-31.355681818181857
20
14.219318181818178
30
0
11
-31.355681818181857
21
13.219318181818176
31
0
0
LINE
5
124
100
AcDbEntity
8
0
100
AcDbLine
10
-31.355681818181857
20
13.219318181818176
30
0
11
-32.355681818181864
21
13.219318181818178
31
0
0
ARC
5
125
100
AcDbEntity
8
0
100
AcDbCircle
10
26.36453704514842
20
-9.3003661162588003
30
0
40
2.9161447730334373
210
-0
220
0
230
1
100
AcDbArc
50
-77.224444107410335
51
0
0
LINE
5
126
100
AcDbEntity
8
0
100
AcDbLine
10
27.009391281461376
20
-12.144318181818182
30
0
11
-20.799538887245784
21
-12.144318181818186
31
0
0
ARC
5
127
100
AcDbEntity
8
0
100
AcDbCircle
10
-20.799538887245788
20
-10.830244188640251
30
0
40
1.3140739931779335
210
0
220
0
230
1
100
AcDbArc
50
154.03701170974426
51
270.00000000000017
0
LINE
5
128
100
AcDbEntity
8
0
100
AcDbLine
10
-21.980992638220616
20
-10.25495513620303
30
0
11
26.082562168882454
21
11.144318181818175
31
0
0
LINE
5
129
100
AcDbEntity
8
0
100
AcDbLine
10
26.082562168882454
20
11.144318181818175
30
0
11
27.553504734074103
21
11.14431818181818
31
0
0
ARC
5
130
100
AcDbEntity
8
0
100
AcDbCircle
10
26.840466585132802
20
8.8104334924154486
30
0
40
2.4403772547034817
210
0
220
-0
230
1
100
AcDbArc
50
0.66023429594741034
51
73.011271254879432
0
LINE
5
131
100
AcDbEntity
8
0
100
AcDbLine
10
29.280681818181861
20
8.8385539772874964
30
0
11
29.280681818181854
21
-9.3003661162587985
31
0
0
ENDSEC
0
SECTION
2
OBJECTS
0
DICTIONARY
5
C
100
AcDbDictionary
3
ACAD_GROUP
350
D
3
ACAD_MLINESTYLE
350
17
0
DICTIONARY
5
D
100
AcDbDictionary
0
DICTIONARY
5
1A
330
C
100
AcDbDictionary
0
DICTIONARY
5
17
100
AcDbDictionary
0
ENDSEC
0
EOF
