0
SECTION
2
HEADER
9
$INSUNITS
70
4
9
$ACADVER
1
AC1014
9
$HANDSEED
5
FFFF
0
ENDSEC
0
SECTION
2
TABLES
0
TABLE
2
VPORT
5
8
100
AcDbSymbolTable
0
ENDTAB
0
TABLE
2
LTYPE
5
5
100
AcDbSymbolTable
0
LTYPE
5
14
100
AcDbSymbolTableRecord
100
AcDbLinetypeTableRecord
2
BYBLOCK
70
0
0
LTYPE
5
15
100
AcDbSymbolTableRecord
100
AcDbLinetypeTableRecord
2
BYLAYER
70
0
0
ENDTAB
0
TABLE
2
LAYER
5
2
100
AcDbSymbolTable
70
2
0
LAYER
5
50
100
AcDbSymbolTableRecord
100
AcDbLayerTableRecord
2
0
70
0
6
CONTINUOUS
0
ENDTAB
0
TABLE
2
STYLE
5
3
100
AcDbSymbolTable
70
1
0
STYLE
5
11
100
AcDbSymbolTableRecord
100
AcDbTextStyleTableRecord
2
STANDARD
70
0
0
ENDTAB
0
TABLE
2
VIEW
5
6
100
AcDbSymbolTable
70
0
0
ENDTAB
0
TABLE
2
UCS
5
7
100
AcDbSymbolTable
70
0
0
ENDTAB
0
TABLE
2
APPID
5
9
100
AcDbSymbolTable
70
2
0
APPID
5
12
100
AcDbSymbolTableRecord
100
AcDbRegAppTableRecord
2
ACAD
70
0
0
ENDTAB
0
TABLE
2
DIMSTYLE
5
A
100
AcDbSymbolTable
70
1
0
ENDTAB
0
TABLE
2
BLOCK_RECORD
5
1
100
AcDbSymbolTable
70
1
0
BLOCK_RECORD
5
1F
100
AcDbSymbolTableRecord
100
AcDbBlockTableRecord
2
*MODEL_SPACE
0
BLOCK_RECORD
5
1B
100
AcDbSymbolTableRecord
100
AcDbBlockTableRecord
2
*PAPER_SPACE
0
ENDTAB
0
ENDSEC
0
SECTION
2
BLOCKS
0
BLOCK
5
20
100
AcDbEntity
100
AcDbBlockBegin
2
*MODEL_SPACE
0
ENDBLK
5
21
100
AcDbEntity
100
AcDbBlockEnd
0
BLOCK
5
1C
100
AcDbEntity
100
AcDbBlockBegin
2
*PAPER_SPACE
0
ENDBLK
5
1D
100
AcDbEntity
100
AcDbBlockEnd
0
ENDSEC
0
SECTION
2
ENTITIES
0
LINE
5
100
100
AcDbEntity
8
0
100
AcDbLine
10
-8.5981716382044802
20
8.4920454545454547
30
0
11
-15.004018683023052
21
8.4920454545454547
31
0
0
LINE
5
101
100
AcDbEntity
8
0
100
AcDbLine
10
-15.004018683023052
20
8.4920454545454547
30
0
11
-15.004018683023052
21
7.4920454545454529
31
0
0
LINE
5
102
100
AcDbEntity
8
0
100
AcDbLine
10
-15.004018683023052
20
7.4920454545454529
30
0
11
-21.49204517457062
21
7.4920454545454529
31
0
0
LINE
5
103
100
AcDbEntity
8
0
100
AcDbLine
10
-21.49204517457062
20
7.4920454545454529
30
0
11
-21.492045461793015
21
6.0059109814992162
31
0
0
LINE
5
104
100
AcDbEntity
8
0
100
AcDbLine
10
-21.492045461793015
20
6.0059109814992162
30
0
11
-20.492045454545462
21
6.0059109814992162
31
0
0
LINE
5
105
100
AcDbEntity
8
0
100
AcDbLine
10
-20.492045454545462
20
6.0059109814992162
30
0
11
-20.492045454545462
21
4.0809109814992173
31
0
0
LINE
5
106
100
AcDbEntity
8
0
100
AcDbLine
10
-20.492045454545462
20
4.0809109814992173
30
0
11
-21.492045454545462
21
4.0809109814992173
31
0
0
LINE
5
107
100
AcDbEntity
8
0
100
AcDbLine
10
-21.492045454545462
20
4.0809109814992173
30
0
11
-21.492045454545462
21
-4.9053752585927857
31
0
0
LINE
5
108
100
AcDbEntity
8
0
100
AcDbLine
10
-21.492045454545462
20
-4.9053752585927857
30
0
11
-20.492045454545462
21
-4.9053752585927857
31
0
0
LINE
5
109
100
AcDbEntity
8
0
100
AcDbLine
10
-20.492045454545462
20
-4.9053752585927857
30
0
11
-20.492045454545462
21
-6.8303752585927846
31
0
0
LINE
5
110
100
AcDbEntity
8
0
100
AcDbLine
10
-20.492045454545462
20
-6.8303752585927846
30
0
11
-21.492045471978209
21
-6.8303752585927846
31
0
0
LINE
5
111
100
AcDbEntity
8
0
100
AcDbLine
10
-21.492045471978216
20
-6.8303752585927846
30
0
11
-21.492045164385441
21
-7.4920454545454618
31
0
0
LINE
5
112
100
AcDbEntity
8
0
100
AcDbLine
10
-21.492045164385438
20
-7.4920454545454618
30
0
11
-10.69599433005498
21
-7.4920454545454618
31
0
0
LINE
5
113
100
AcDbEntity
8
0
100
AcDbLine
10
-10.69599433005498
20
-7.4920454545454618
30
0
11
-10.69599433005498
21
-8.4920454545454582
31
0
0
LINE
5
114
100
AcDbEntity
8
0
100
AcDbLine
10
-10.69599433005498
20
-8.4920454545454582
30
0
11
6.1038324817476264
21
-8.4920454545454582
31
0
0
LINE
5
115
100
AcDbEntity
8
0
100
AcDbLine
10
6.1038324817476264
20
-8.4920454545454582
30
0
11
6.1038324817476264
21
-7.4920454545454618
31
0
0
LINE
5
116
100
AcDbEntity
8
0
100
AcDbLine
10
6.1038324817476264
20
-7.4920454545454618
30
0
11
21.492045454545462
21
-7.4920454545454618
31
0
0
LINE
5
117
100
AcDbEntity
8
0
100
AcDbLine
10
21.492045454545462
20
-7.4920454545454618
30
0
11
21.492045454545462
21
-6.8303752585927846
31
0
0
LINE
5
118
100
AcDbEntity
8
0
100
AcDbLine
10
21.492045454545462
20
-6.8303752585927846
30
0
11
20.492045454545465
21
-6.8303752585927846
31
0
0
LINE
5
119
100
AcDbEntity
8
0
100
AcDbLine
10
20.492045454545465
20
-6.8303752585927846
30
0
11
20.492045454545465
21
-4.9053752585927857
31
0
0
LINE
5
120
100
AcDbEntity
8
0
100
AcDbLine
10
20.492045454545465
20
-4.9053752585927857
30
0
11
21.492045454545462
21
-4.9053752585927857
31
0
0
LINE
5
121
100
AcDbEntity
8
0
100
AcDbLine
10
21.492045454545462
20
-4.9053752585927857
30
0
11
21.492045454545462
21
4.0809109814992173
31
0
0
LINE
5
122
100
AcDbEntity
8
0
100
AcDbLine
10
21.492045454545462
20
4.0809109814992173
30
0
11
20.492045454545465
21
4.0809109814992173
31
0
0
LINE
5
123
100
AcDbEntity
8
0
100
AcDbLine
10
20.492045454545465
20
4.0809109814992173
30
0
11
20.492045454545465
21
6.0059109814992162
31
0
0
LINE
5
124
100
AcDbEntity
8
0
100
AcDbLine
10
20.492045454545465
20
6.0059109814992162
30
0
11
21.492045454545462
21
6.0059109814992162
31
0
0
LINE
5
125
100
AcDbEntity
8
0
100
AcDbLine
10
21.492045454545462
20
6.0059109814992162
30
0
11
21.492045454545462
21
7.4920454545454529
31
0
0
LINE
5
126
100
AcDbEntity
8
0
100
AcDbLine
10
21.492045454545462
20
7.4920454545454529
30
0
11
11.576164806524393
21
7.4920454545454529
31
0
0
LINE
5
127
100
AcDbEntity
8
0
100
AcDbLine
10
11.576164806524393
20
7.4920454545454529
30
0
11
11.576164806524393
21
8.4920454545454547
31
0
0
LINE
5
128
100
AcDbEntity
8
0
100
AcDbLine
10
11.576164806524393
20
8.4920454545454547
30
0
11
4.6722851505007057
21
8.4920454545454547
31
0
0
LINE
5
129
100
AcDbEntity
8
0
100
AcDbLine
10
4.6722851505007057
20
8.4920454545454547
30
0
11
4.6722851505007057
21
7.4920454545454529
31
0
0
LINE
5
130
100
AcDbEntity
8
0
100
AcDbLine
10
4.6722851505007057
20
7.4920454545454529
30
0
11
-8.5981716382044802
21
7.4920454545454529
31
0
0
LINE
5
131
100
AcDbEntity
8
0
100
AcDbLine
10
-8.5981716382044802
20
7.4920454545454529
30
0
11
-8.5981716382044802
21
8.4920454545454547
31
0
0
LINE
5
132
100
AcDbEntity
8
0
100
AcDbLine
10
0.87159104545454724
20
0.23522727272727195
30
0
11
0.87159104545454724
21
-1.9625000000000004
31
0
0
LINE
5
133
100
AcDbEntity
8
0
100
AcDbLine
10
0.87159104545454724
20
-1.9625000000000004
30
0
11
-0.87159077272726648
21
-1.9625000000000004
31
0
0
LINE
5
134
100
AcDbEntity
8
0
100
AcDbLine
10
-0.87159077272726648
20
-1.9625000000000004
30
0
11
-0.87159077272726648
21
0.23522727272727195
31
0
0
LINE
5
135
100
AcDbEntity
8
0
100
AcDbLine
10
-0.87159077272726648
20
0.23522727272727195
30
0
11
0.87159104545454724
21
0.23522727272727195
31
0
0
LINE
5
136
100
AcDbEntity
8
0
100
AcDbLine
10
-14.582954409090906
20
-1.9625000000000004
30
0
11
-16.326136227272723
21
-1.9625000000000004
31
0
0
LINE
5
137
100
AcDbEntity
8
0
100
AcDbLine
10
-16.326136227272723
20
-1.9625000000000004
30
0
11
-16.326136227272723
21
0.23522727272727195
31
0
0
LINE
5
138
100
AcDbEntity
8
0
100
AcDbLine
10
-16.326136227272723
20
0.23522727272727195
30
0
11
-14.582954409090906
21
0.23522727272727195
31
0
0
LINE
5
139
100
AcDbEntity
8
0
100
AcDbLine
10
-14.582954409090906
20
0.23522727272727195
30
0
11
-14.582954409090906
21
-1.9625000000000004
31
0
0
LINE
5
140
100
AcDbEntity
8
0
100
AcDbLine
10
16.3261365
20
0.23522727272727195
30
0
11
16.3261365
21
-1.9625000000000004
31
0
0
LINE
5
141
100
AcDbEntity
8
0
100
AcDbLine
10
16.3261365
20
-1.9625000000000004
30
0
11
14.582954681818187
21
-1.9625000000000004
31
0
0
LINE
5
142
100
AcDbEntity
8
0
100
AcDbLine
10
14.582954681818187
20
-1.9625000000000004
30
0
11
14.582954681818187
21
0.23522727272727195
31
0
0
LINE
5
143
100
AcDbEntity
8
0
100
AcDbLine
10
14.582954681818187
20
0.23522727272727195
30
0
11
16.3261365
21
0.23522727272727195
31
0
0
ENDSEC
0
SECTION
2
OBJECTS
0
DICTIONARY
5
C
100
AcDbDictionary
3
ACAD_GROUP
350
D
3
ACAD_MLINESTYLE
350
17
0
DICTIONARY
5
D
100
AcDbDictionary
0
DICTIONARY
5
1A
330
C
100
AcDbDictionary
0
DICTIONARY
5
17
100
AcDbDictionary
0
ENDSEC
0
EOF
