0
SECTION
2
HEADER
9
$INSUNITS
70
4
9
$ACADVER
1
AC1014
9
$HANDSEED
5
FFFF
0
ENDSEC
0
SECTION
2
TABLES
0
TABLE
2
VPORT
5
8
100
AcDbSymbolTable
0
ENDTAB
0
TABLE
2
LTYPE
5
5
100
AcDbSymbolTable
0
LTYPE
5
14
100
AcDbSymbolTableRecord
100
AcDbLinetypeTableRecord
2
BYBLOCK
70
0
0
LTYPE
5
15
100
AcDbSymbolTableRecord
100
AcDbLinetypeTableRecord
2
BYLAYER
70
0
0
ENDTAB
0
TABLE
2
LAYER
5
2
100
AcDbSymbolTable
70
2
0
LAYER
5
50
100
AcDbSymbolTableRecord
100
AcDbLayerTableRecord
2
0
70
0
6
CONTINUOUS
0
ENDTAB
0
TABLE
2
STYLE
5
3
100
AcDbSymbolTable
70
1
0
STYLE
5
11
100
AcDbSymbolTableRecord
100
AcDbTextStyleTableRecord
2
STANDARD
70
0
0
ENDTAB
0
TABLE
2
VIEW
5
6
100
AcDbSymbolTable
70
0
0
ENDTAB
0
TABLE
2
UCS
5
7
100
AcDbSymbolTable
70
0
0
ENDTAB
0
TABLE
2
APPID
5
9
100
AcDbSymbolTable
70
2
0
APPID
5
12
100
AcDbSymbolTableRecord
100
AcDbRegAppTableRecord
2
ACAD
70
0
0
ENDTAB
0
TABLE
2
DIMSTYLE
5
A
100
AcDbSymbolTable
70
1
0
ENDTAB
0
TABLE
2
BLOCK_RECORD
5
1
100
AcDbSymbolTable
70
1
0
BLOCK_RECORD
5
1F
100
AcDbSymbolTableRecord
100
AcDbBlockTableRecord
2
*MODEL_SPACE
0
BLOCK_RECORD
5
1B
100
AcDbSymbolTableRecord
100
AcDbBlockTableRecord
2
*PAPER_SPACE
0
ENDTAB
0
ENDSEC
0
SECTION
2
BLOCKS
0
BLOCK
5
20
100
AcDbEntity
100
AcDbBlockBegin
2
*MODEL_SPACE
0
ENDBLK
5
21
100
AcDbEntity
100
AcDbBlockEnd
0
BLOCK
5
1C
100
AcDbEntity
100
AcDbBlockBegin
2
*PAPER_SPACE
0
ENDBLK
5
1D
100
AcDbEntity
100
AcDbBlockEnd
0
ENDSEC
0
SECTION
2
ENTITIES
0
LINE
5
100
100
AcDbEntity
8
0
100
AcDbLine
10
20.917045454545459
20
14.206730408961272
30
0
11
20.917045454545459
21
10.846415363377083
31
0
0
LINE
5
101
100
AcDbEntity
8
0
100
AcDbLine
10
20.917045454545459
20
10.846415363377083
30
0
11
21.917045454545455
21
10.846415363377083
31
0
0
LINE
5
102
100
AcDbEntity
8
0
100
AcDbLine
10
21.917045454545455
20
10.846415363377083
30
0
11
21.917045454545455
21
-2.8313860889213016
31
0
0
LINE
5
103
100
AcDbEntity
8
0
100
AcDbLine
10
21.917045454545455
20
-2.8313860889213016
30
0
11
20.917045454545459
21
-2.8313860889213025
31
0
0
LINE
5
104
100
AcDbEntity
8
0
100
AcDbLine
10
20.917045454545459
20
-2.8313860889213025
30
0
11
20.917045454545459
21
-6.9063860889213045
31
0
0
LINE
5
105
100
AcDbEntity
8
0
100
AcDbLine
10
20.917045454545459
20
-6.9063860889213045
30
0
11
21.917045454545455
21
-6.9063860889213071
31
0
0
LINE
5
106
100
AcDbEntity
8
0
100
AcDbLine
10
21.917045454545455
20
-6.9063860889213071
30
0
11
21.917045454545455
21
-9.3261363636363601
31
0
0
LINE
5
107
100
AcDbEntity
8
0
100
AcDbLine
10
21.917045454545455
20
-9.3261363636363601
30
0
11
16.863796023732775
21
-9.3261363636363601
31
0
0
LINE
5
108
100
AcDbEntity
8
0
100
AcDbLine
10
16.863796023732775
20
-9.3261363636363601
30
0
11
16.863796023732775
21
-8.3261363636363601
31
0
0
LINE
5
109
100
AcDbEntity
8
0
100
AcDbLine
10
16.863796023732775
20
-8.3261363636363601
30
0
11
12.788796023732768
21
-8.3261363636363601
31
0
0
LINE
5
110
100
AcDbEntity
8
0
100
AcDbLine
10
12.788796023732768
20
-8.3261363636363601
30
0
11
12.788796023732768
21
-9.3261363636363601
31
0
0
LINE
5
111
100
AcDbEntity
8
0
100
AcDbLine
10
12.788796023732768
20
-9.3261363636363601
30
0
11
1.6325001402270845
21
-9.3261363636363601
31
0
0
LINE
5
112
100
AcDbEntity
8
0
100
AcDbLine
10
1.6325001402270845
20
-9.3261363636363601
30
0
11
1.6325001402270845
21
-8.3261363636363601
31
0
0
LINE
5
113
100
AcDbEntity
8
0
100
AcDbLine
10
1.6325001402270845
20
-8.3261363636363601
30
0
11
-2.7342102842938498
21
-8.3261363636363619
31
0
0
LINE
5
114
100
AcDbEntity
8
0
100
AcDbLine
10
-2.7342102842938498
20
-8.3261363636363619
30
0
11
-2.7342102842938498
21
-9.3261363636363601
31
0
0
LINE
5
115
100
AcDbEntity
8
0
100
AcDbLine
10
-2.7342102842938498
20
-9.3261363636363601
30
0
11
-11.599074087971966
21
-9.3261363636363601
31
0
0
LINE
5
116
100
AcDbEntity
8
0
100
AcDbLine
10
-11.599074087971966
20
-9.3261363636363601
30
0
11
-11.599074087971966
21
-8.3261363636363619
31
0
0
LINE
5
117
100
AcDbEntity
8
0
100
AcDbLine
10
-11.599074087971966
20
-8.3261363636363619
30
0
11
-15.674074087971967
21
-8.3261363636363619
31
0
0
LINE
5
118
100
AcDbEntity
8
0
100
AcDbLine
10
-15.674074087971967
20
-8.3261363636363619
30
0
11
-15.674074087971967
21
-9.3261363636363601
31
0
0
LINE
5
119
100
AcDbEntity
8
0
100
AcDbLine
10
-15.674074087971967
20
-9.3261363636363601
30
0
11
-20.917045451672557
21
-9.3261363636363601
31
0
0
LINE
5
120
100
AcDbEntity
8
0
100
AcDbLine
10
-20.917045451672557
20
-9.3261363636363601
30
0
11
-20.917045184691084
21
-5.8412281752385073
31
0
0
LINE
5
121
100
AcDbEntity
8
0
100
AcDbLine
10
-20.917045184691084
20
-5.8412281752385073
30
0
11
-19.917045181818182
21
-5.8412281752385073
31
0
0
LINE
5
122
100
AcDbEntity
8
0
100
AcDbLine
10
-19.917045181818178
20
-5.8412281752385073
30
0
11
-19.917045181818178
21
-1.7662281752385067
31
0
0
LINE
5
123
100
AcDbEntity
8
0
100
AcDbLine
10
-19.917045181818178
20
-1.7662281752385067
30
0
11
-20.917045181818178
21
-1.7662281752385067
31
0
0
LINE
5
124
100
AcDbEntity
8
0
100
AcDbLine
10
-20.917045181818178
20
-1.7662281752385067
30
0
11
-20.917045181818178
21
11.024095001978571
31
0
0
LINE
5
125
100
AcDbEntity
8
0
100
AcDbLine
10
-20.917045181818178
20
11.024095001978571
30
0
11
-19.917045454545459
21
11.024095001978571
31
0
0
LINE
5
126
100
AcDbEntity
8
0
100
AcDbLine
10
-19.917045454545459
20
11.024095001978571
30
0
11
-19.917045454545459
21
15.099095001978572
31
0
0
LINE
5
127
100
AcDbEntity
8
0
100
AcDbLine
10
-19.917045454545459
20
15.099095001978572
30
0
11
-20.917045181818178
21
15.099095001978572
31
0
0
LINE
5
128
100
AcDbEntity
8
0
100
AcDbLine
10
-20.917045181818178
20
15.099095001978572
30
0
11
-20.917045181818178
21
17.492045454545458
31
0
0
LINE
5
129
100
AcDbEntity
8
0
100
AcDbLine
10
-20.917045181818178
20
17.492045454545458
30
0
11
-30.082954545454548
21
17.492045454545458
31
0
0
LINE
5
130
100
AcDbEntity
8
0
100
AcDbLine
10
-30.082954545454555
20
17.492045454545458
30
0
11
-30.082954545454555
21
-17.492045454545458
31
0
0
LINE
5
131
100
AcDbEntity
8
0
100
AcDbLine
10
-30.082954545454555
20
-17.492045454545458
30
0
11
30.082954545454555
21
-17.492045454545455
31
0
0
LINE
5
132
100
AcDbEntity
8
0
100
AcDbLine
10
30.082954545454555
20
-17.492045454545455
30
0
11
30.082954545454555
21
16.754932138919301
31
0
0
LINE
5
133
100
AcDbEntity
8
0
100
AcDbLine
10
30.082954545454555
20
16.754932138919301
30
0
11
21.917045454545455
21
16.754932138919301
31
0
0
LINE
5
134
100
AcDbEntity
8
0
100
AcDbLine
10
21.917045454545455
20
16.754932138919301
30
0
11
21.917045454545455
21
14.206730408961272
31
0
0
LINE
5
135
100
AcDbEntity
8
0
100
AcDbLine
10
21.917045454545455
20
14.206730408961272
30
0
11
20.917045454545459
21
14.206730408961272
31
0
0
ENDSEC
0
SECTION
2
OBJECTS
0
DICTIONARY
5
C
100
AcDbDictionary
3
ACAD_GROUP
350
D
3
ACAD_MLINESTYLE
350
17
0
DICTIONARY
5
D
100
AcDbDictionary
0
DICTIONARY
5
1A
330
C
100
AcDbDictionary
0
DICTIONARY
5
17
100
AcDbDictionary
0
ENDSEC
0
EOF
