0
SECTION
2
HEADER
9
$INSUNITS
70
4
9
$ACADVER
1
AC1014
9
$HANDSEED
5
FFFF
0
ENDSEC
0
SECTION
2
TABLES
0
TABLE
2
VPORT
5
8
100
AcDbSymbolTable
0
ENDTAB
0
TABLE
2
LTYPE
5
5
100
AcDbSymbolTable
0
LTYPE
5
14
100
AcDbSymbolTableRecord
100
AcDbLinetypeTableRecord
2
BYBLOCK
70
0
0
LTYPE
5
15
100
AcDbSymbolTableRecord
100
AcDbLinetypeTableRecord
2
BYLAYER
70
0
0
ENDTAB
0
TABLE
2
LAYER
5
2
100
AcDbSymbolTable
70
2
0
LAYER
5
50
100
AcDbSymbolTableRecord
100
AcDbLayerTableRecord
2
0
70
0
6
CONTINUOUS
0
ENDTAB
0
TABLE
2
STYLE
5
3
100
AcDbSymbolTable
70
1
0
STYLE
5
11
100
AcDbSymbolTableRecord
100
AcDbTextStyleTableRecord
2
STANDARD
70
0
0
ENDTAB
0
TABLE
2
VIEW
5
6
100
AcDbSymbolTable
70
0
0
ENDTAB
0
TABLE
2
UCS
5
7
100
AcDbSymbolTable
70
0
0
ENDTAB
0
TABLE
2
APPID
5
9
100
AcDbSymbolTable
70
2
0
APPID
5
12
100
AcDbSymbolTableRecord
100
AcDbRegAppTableRecord
2
ACAD
70
0
0
ENDTAB
0
TABLE
2
DIMSTYLE
5
A
100
AcDbSymbolTable
70
1
0
ENDTAB
0
TABLE
2
BLOCK_RECORD
5
1
100
AcDbSymbolTable
70
1
0
BLOCK_RECORD
5
1F
100
AcDbSymbolTableRecord
100
AcDbBlockTableRecord
2
*MODEL_SPACE
0
BLOCK_RECORD
5
1B
100
AcDbSymbolTableRecord
100
AcDbBlockTableRecord
2
*PAPER_SPACE
0
ENDTAB
0
ENDSEC
0
SECTION
2
BLOCKS
0
BLOCK
5
20
100
AcDbEntity
100
AcDbBlockBegin
2
*MODEL_SPACE
0
ENDBLK
5
21
100
AcDbEntity
100
AcDbBlockEnd
0
BLOCK
5
1C
100
AcDbEntity
100
AcDbBlockBegin
2
*PAPER_SPACE
0
ENDBLK
5
1D
100
AcDbEntity
100
AcDbBlockEnd
0
ENDSEC
0
SECTION
2
ENTITIES
0
LINE
5
100
100
AcDbEntity
8
0
100
AcDbLine
10
-19.746024524420175
20
-13.644318181818186
30
0
11
-20.671024524420176
21
-13.644318181818182
31
0
0
LINE
5
101
100
AcDbEntity
8
0
100
AcDbLine
10
-20.671024524420176
20
-13.64431818181818
30
0
11
-20.671024524420176
21
-11.71931818181818
31
0
0
LINE
5
102
100
AcDbEntity
8
0
100
AcDbLine
10
-20.671024524420176
20
-11.719318181818181
30
0
11
-19.746024524420175
21
-11.719318181818183
31
0
0
LINE
5
103
100
AcDbEntity
8
0
100
AcDbLine
10
-19.746024524420175
20
-11.719318181818181
30
0
11
-19.746024524420175
21
-13.644318181818182
31
0
0
LINE
5
104
100
AcDbEntity
8
0
100
AcDbLine
10
-20.671024524420176
20
13.644318181818182
30
0
11
-19.746024524420175
21
13.644318181818182
31
0
0
LINE
5
105
100
AcDbEntity
8
0
100
AcDbLine
10
-19.746024524420172
20
13.644318181818182
30
0
11
-19.746024524420172
21
11.71931818181818
31
0
0
LINE
5
106
100
AcDbEntity
8
0
100
AcDbLine
10
-19.746024524420172
20
11.71931818181818
30
0
11
-20.671024524420176
21
11.71931818181818
31
0
0
LINE
5
107
100
AcDbEntity
8
0
100
AcDbLine
10
-20.671024524420176
20
11.71931818181818
30
0
11
-20.671024524420176
21
13.644318181818182
31
0
0
LINE
5
108
100
AcDbEntity
8
0
100
AcDbLine
10
-17.617611839216188
20
-1.5994823524825763
30
0
11
-17.617611839216188
21
9.7389757829135188
31
0
0
LINE
5
109
100
AcDbEntity
8
0
100
AcDbLine
10
-17.617611839216188
20
9.7389757829135171
30
0
11
-16.692611839216191
21
9.7389757829135171
31
0
0
LINE
5
110
100
AcDbEntity
8
0
100
AcDbLine
10
-16.692611839216191
20
9.7389757829135171
30
0
11
-16.692611839216191
21
-1.5994823524825774
31
0
0
LINE
5
111
100
AcDbEntity
8
0
100
AcDbLine
10
-16.692611839216191
20
-1.5994823524825763
30
0
11
-17.617611839216188
21
-1.5994823524825763
31
0
0
LINE
5
112
100
AcDbEntity
8
0
100
AcDbLine
10
-8.2018165236511713
20
-11.098863636363632
30
0
11
-13.364886309427973
21
-11.098863636363632
31
0
0
LINE
5
113
100
AcDbEntity
8
0
100
AcDbLine
10
-13.364886309427973
20
-11.098863636363632
30
0
11
-13.364886309427973
21
-10.173863636363635
31
0
0
LINE
5
114
100
AcDbEntity
8
0
100
AcDbLine
10
-13.364886309427973
20
-10.173863636363635
30
0
11
-8.2018165236511678
21
-10.173863636363635
31
0
0
LINE
5
115
100
AcDbEntity
8
0
100
AcDbLine
10
-8.2018165236511678
20
-10.173863636363635
30
0
11
-8.2018165236511713
21
-11.098863636363632
31
0
0
LINE
5
116
100
AcDbEntity
8
0
100
AcDbLine
10
6.1912059700833577
20
-11.098863636363632
30
0
11
1.931251664612903
21
-11.098863636363632
31
0
0
LINE
5
117
100
AcDbEntity
8
0
100
AcDbLine
10
1.931251664612903
20
-11.098863636363632
30
0
11
1.931251664612903
21
-10.173863636363635
31
0
0
LINE
5
118
100
AcDbEntity
8
0
100
AcDbLine
10
1.931251664612903
20
-10.173863636363635
30
0
11
6.1912059700833577
21
-10.173863636363635
31
0
0
LINE
5
119
100
AcDbEntity
8
0
100
AcDbLine
10
6.1912059700833577
20
-10.173863636363635
30
0
11
6.1912059700833577
21
-11.098863636363632
31
0
0
LINE
5
120
100
AcDbEntity
8
0
100
AcDbLine
10
19.364401066855784
20
-11.098863636363632
30
0
11
14.43940106685579
21
-11.098863636363632
31
0
0
LINE
5
121
100
AcDbEntity
8
0
100
AcDbLine
10
14.43940106685579
20
-11.098863636363632
30
0
11
14.43940106685579
21
-10.173863636363635
31
0
0
LINE
5
122
100
AcDbEntity
8
0
100
AcDbLine
10
14.43940106685579
20
-10.173863636363635
30
0
11
19.364401066855784
21
-10.173863636363635
31
0
0
LINE
5
123
100
AcDbEntity
8
0
100
AcDbLine
10
19.364401066855784
20
-10.173863636363635
30
0
11
19.364401066855784
21
-11.098863636363632
31
0
0
LINE
5
124
100
AcDbEntity
8
0
100
AcDbLine
10
-8.3865980955763817
20
2.4869719251948363
30
0
11
-8.3865980955763817
21
8.4736812508257131
31
0
0
LINE
5
125
100
AcDbEntity
8
0
100
AcDbLine
10
-8.3865980955763817
20
8.4736812508257131
30
0
11
-7.4615980955763828
21
8.4736812508257131
31
0
0
LINE
5
126
100
AcDbEntity
8
0
100
AcDbLine
10
-7.4615980955763828
20
8.4736812508257131
30
0
11
-7.4615980955763828
21
2.4869719251948363
31
0
0
LINE
5
127
100
AcDbEntity
8
0
100
AcDbLine
10
-7.4615980955763828
20
2.4869719251948363
30
0
11
-8.3865980955763817
21
2.4869719251948363
31
0
0
LINE
5
128
100
AcDbEntity
8
0
100
AcDbLine
10
15.340674631696359
20
2.4869719251948377
30
0
11
15.340674631696359
21
8.4736812508257131
31
0
0
LINE
5
129
100
AcDbEntity
8
0
100
AcDbLine
10
15.340674631696359
20
8.4736812508257131
30
0
11
16.265674631696353
21
8.4736812508257131
31
0
0
LINE
5
130
100
AcDbEntity
8
0
100
AcDbLine
10
16.265674631696353
20
8.4736812508257131
30
0
11
16.265674631696353
21
2.4869719251948377
31
0
0
LINE
5
131
100
AcDbEntity
8
0
100
AcDbLine
10
16.265674631696353
20
2.4869719251948377
30
0
11
15.340674631696359
21
2.4869719251948377
31
0
0
LINE
5
132
100
AcDbEntity
8
0
100
AcDbLine
10
-2.3848159930570834
20
-3.3556818181818167
30
0
11
6.4269724394743433
21
-3.3556818181818167
31
0
0
LINE
5
133
100
AcDbEntity
8
0
100
AcDbLine
10
6.4269724394743433
20
-3.3556818181818167
30
0
11
6.4269724394743433
21
-4.280681818181816
31
0
0
LINE
5
134
100
AcDbEntity
8
0
100
AcDbLine
10
6.4269724394743433
20
-4.280681818181816
30
0
11
-2.3848159930570834
21
-4.280681818181816
31
0
0
LINE
5
135
100
AcDbEntity
8
0
100
AcDbLine
10
-2.3848159930570834
20
-4.2806818181818169
30
0
11
-2.3848159930570834
21
-3.3556818181818171
31
0
0
LINE
5
136
100
AcDbEntity
8
0
100
AcDbLine
10
-1.3696112043180575
20
13.826136363636367
30
0
11
5.8721895560759174
21
13.826136363636367
31
0
0
LINE
5
137
100
AcDbEntity
8
0
100
AcDbLine
10
5.8721895560759174
20
13.826136363636367
30
0
11
5.8721895560759174
21
12.901136363636365
31
0
0
LINE
5
138
100
AcDbEntity
8
0
100
AcDbLine
10
5.8721895560759174
20
12.901136363636365
30
0
11
-1.3696112043180575
21
12.901136363636365
31
0
0
LINE
5
139
100
AcDbEntity
8
0
100
AcDbLine
10
-1.3696112043180575
20
12.901136363636365
30
0
11
-1.3696112043180575
21
13.826136363636367
31
0
0
LINE
5
140
100
AcDbEntity
8
0
100
AcDbLine
10
15.30059842185366
20
14.719318181818185
30
0
11
8.5467187658299792
21
14.719318181818185
31
0
0
LINE
5
141
100
AcDbEntity
8
0
100
AcDbLine
10
8.5467187658299792
20
14.719318181818185
30
0
11
8.5467187658299792
21
15.719318181818185
31
0
0
LINE
5
142
100
AcDbEntity
8
0
100
AcDbLine
10
8.5467187658299792
20
15.719318181818185
30
0
11
-4.8737380228752114
21
15.719318181818185
31
0
0
LINE
5
143
100
AcDbEntity
8
0
100
AcDbLine
10
-4.8737380228752114
20
15.719318181818185
30
0
11
-4.8737380228752114
21
14.719318181818185
31
0
0
LINE
5
144
100
AcDbEntity
8
0
100
AcDbLine
10
-4.8737380228752114
20
14.719318181818185
30
0
11
-11.129585067693778
21
14.719318181818185
31
0
0
LINE
5
145
100
AcDbEntity
8
0
100
AcDbLine
10
-11.129585067693778
20
14.719318181818185
30
0
11
-11.129585067693778
21
15.719318181818185
31
0
0
LINE
5
146
100
AcDbEntity
8
0
100
AcDbLine
10
-11.129585067693778
20
15.719318181818185
30
0
11
-25.291479069874725
21
15.719318181818185
31
0
0
LINE
5
147
100
AcDbEntity
8
0
100
AcDbLine
10
-25.291479069874725
20
15.719318181818185
30
0
11
-25.291479069874725
21
11.098863636363635
31
0
0
LINE
5
148
100
AcDbEntity
8
0
100
AcDbLine
10
-25.291479069874725
20
11.098863636363635
30
0
11
-23.018751797147456
21
11.098863636363635
31
0
0
LINE
5
149
100
AcDbEntity
8
0
100
AcDbLine
10
-23.018751797147456
20
11.098863636363635
30
0
11
-23.018751797147456
21
-15.719318181818181
31
0
0
LINE
5
150
100
AcDbEntity
8
0
100
AcDbLine
10
-23.018751797147456
20
-15.719318181818181
30
0
11
25.291479069874732
21
-15.719318181818181
31
0
0
LINE
5
151
100
AcDbEntity
8
0
100
AcDbLine
10
25.291479069874732
20
-15.719318181818181
30
0
11
25.291479069874732
21
-1.5994823524825752
31
0
0
LINE
5
152
100
AcDbEntity
8
0
100
AcDbLine
10
25.291479069874732
20
-1.5994823524825752
30
0
11
24.291479069874736
21
-1.5994823524825774
31
0
0
LINE
5
153
100
AcDbEntity
8
0
100
AcDbLine
10
24.291479069874736
20
-1.5994823524825774
30
0
11
24.291479069874736
21
9.7389757829135135
31
0
0
LINE
5
154
100
AcDbEntity
8
0
100
AcDbLine
10
24.291479069874736
20
9.7389757829135135
30
0
11
25.291479069874732
21
9.7389757829135153
31
0
0
LINE
5
155
100
AcDbEntity
8
0
100
AcDbLine
10
25.291479069874732
20
9.7389757829135153
30
0
11
25.291479069874732
21
15.719318181818185
31
0
0
LINE
5
156
100
AcDbEntity
8
0
100
AcDbLine
10
25.291479069874732
20
15.719318181818185
30
0
11
15.30059842185366
21
15.719318181818185
31
0
0
LINE
5
157
100
AcDbEntity
8
0
100
AcDbLine
10
15.30059842185366
20
15.719318181818185
30
0
11
15.30059842185366
21
14.719318181818185
31
0
0
ENDSEC
0
SECTION
2
OBJECTS
0
DICTIONARY
5
C
100
AcDbDictionary
3
ACAD_GROUP
350
D
3
ACAD_MLINESTYLE
350
17
0
DICTIONARY
5
D
100
AcDbDictionary
0
DICTIONARY
5
1A
330
C
100
AcDbDictionary
0
DICTIONARY
5
17
100
AcDbDictionary
0
ENDSEC
0
EOF
