  0
SECTION
  2
HEADER
  9
$ACADVER
  1
AC1015
  9
$ACADMAINTVER
 70
6
  9
$DWGCODEPAGE
  3
ANSI_1252
  9
$TDCREATE
 40
2459268.8987037037
  9
$TDUPDATE
 40
2459268.8987268517
  9
$HANDSEED
  5
10266
  9
$INSUNITS
 70
4
  9
$FINGERPRINTGUID
  2
508561BE-754D-11EB-B187-D20010FD74C0
  9
$VERSIONGUID
  2
51556A08-754D-11EB-B187-D20010FD74C0
  0
ENDSEC
  0
SECTION
  2
CLASSES
  0
CLASS
  1
ACDBDICTIONARYWDFLT
  2
AcDbDictionaryWithDefault
  3
ObjectDBX Classes
 90
0
280
0
281
0
  0
CLASS
  1
SUN
  2
AcDbSun
  3
SCENEOE
 90
1153
280
0
281
0
  0
CLASS
  1
VISUALSTYLE
  2
AcDbVisualStyle
  3
ObjectDBX Classes
 90
4095
280
0
281
0
  0
CLASS
  1
MATERIAL
  2
AcDbMaterial
  3
ObjectDBX Classes
 90
1153
280
0
281
0
  0
CLASS
  1
SCALE
  2
AcDbScale
  3
ObjectDBX Classes
 90
1153
280
0
281
0
  0
CLASS
  1
TABLESTYLE
  2
AcDbTableStyle
  3
ObjectDBX Classes
 90
4095
280
0
281
0
  0
CLASS
  1
MLEADERSTYLE
  2
AcDbMLeaderStyle
  3
ACDB_MLEADERSTYLE_CLASS
 90
4095
280
0
281
0
  0
CLASS
  1
DICTIONARYVAR
  2
AcDbDictionaryVar
  3
ObjectDBX Classes
 90
0
280
0
281
0
  0
CLASS
  1
CELLSTYLEMAP
  2
AcDbCellStyleMap
  3
ObjectDBX Classes
 90
1152
280
0
281
0
  0
CLASS
  1
MENTALRAYRENDERSETTINGS
  2
AcDbMentalRayRenderSettings
  3
SCENEOE
 90
1024
280
0
281
0
  0
CLASS
  1
ACDBDETAILVIEWSTYLE
  2
AcDbDetailViewStyle
  3
ObjectDBX Classes
 90
1025
280
0
281
0
  0
CLASS
  1
ACDBSECTIONVIEWSTYLE
  2
AcDbSectionViewStyle
  3
ObjectDBX Classes
 90
1025
280
0
281
0
  0
CLASS
  1
RASTERVARIABLES
  2
AcDbRasterVariables
  3
ISM
 90
0
280
0
281
0
  0
CLASS
  1
ACDBPLACEHOLDER
  2
AcDbPlaceHolder
  3
ObjectDBX Classes
 90
0
280
0
281
0
  0
CLASS
  1
LAYOUT
  2
AcDbLayout
  3
ObjectDBX Classes
 90
0
280
0
281
0
  0
ENDSEC
  0
SECTION
  2
TABLES
  0
TABLE
  2
VPORT
  5
8
330
0
100
AcDbSymbolTable
 70
1
  0
VPORT
  5
1006A
330
8
100
AcDbSymbolTableRecord
100
AcDbViewportTableRecord
  2
*Active
 70
0
 10
0.0
 20
0.0
 11
1.0
 21
1.0
 12
70.0
 22
50.0
 13
0.0
 23
0.0
 14
0.5
 24
0.5
 15
0.5
 25
0.5
 16
0.0
 26
0.0
 36
1.0
 17
0.0
 27
0.0
 37
0.0
 40
1.0
 41
1.34
 42
50.0
 43
0.0
 44
0.0
 50
0.0
 51
0.0
 71
0
 72
1000
 73
1
 74
3
 75
0
 76
0
 77
0
 78
0
281
0
 65
0
146
0.0
  0
ENDTAB
  0
TABLE
  2
LTYPE
  5
5
330
0
100
AcDbSymbolTable
 70
3
  0
LTYPE
  5
1006B
330
5
100
AcDbSymbolTableRecord
100
AcDbLinetypeTableRecord
  2
Continuous
 70
0
  3

 72
65
 73
0
 40
0.0
  0
ENDTAB
  0
TABLE
  2
LAYER
  5
2
330
0
100
AcDbSymbolTable
 70
2
  0
LAYER
  5
50
330
2
100
AcDbSymbolTableRecord
100
AcDbLayerTableRecord
  2
0
 70
0
 62
7
  6
CONTINUOUS
370
-3
390
10060
  0
LAYER
  5
1006C
330
2
100
AcDbSymbolTableRecord
100
AcDbLayerTableRecord
  2
Defpoints
 70
0
 62
7
  6
Continuous
290
0
370
-3
390
10060
  0
ENDTAB
  0
TABLE
  2
STYLE
  5
3
330
0
100
AcDbSymbolTable
 70
1
  0
STYLE
  5
11
330
3
100
AcDbSymbolTableRecord
100
AcDbTextStyleTableRecord
  2
STANDARD
 70
0
 40
0.0
 41
1.0
 50
0.0
 71
0
 42
2.5
  3
txt
  4

  0
ENDTAB
  0
TABLE
  2
VIEW
  5
6
330
0
100
AcDbSymbolTable
 70
0
  0
ENDTAB
  0
TABLE
  2
UCS
  5
7
330
0
100
AcDbSymbolTable
 70
0
  0
ENDTAB
  0
TABLE
  2
APPID
  5
9
330
0
100
AcDbSymbolTable
 70
2
  0
APPID
  5
12
330
9
100
AcDbSymbolTableRecord
100
AcDbRegAppTableRecord
  2
ACAD
 70
0
  0
APPID
  5
10265
330
9
100
AcDbSymbolTableRecord
100
AcDbRegAppTableRecord
  2
HATCHBACKGROUNDCOLOR
 70
0
  0
ENDTAB
  0
TABLE
  2
DIMSTYLE
  5
A
330
0
100
AcDbSymbolTable
 70
1
100
AcDbDimStyleTable
  0
DIMSTYLE
105
1006D
330
A
100
AcDbSymbolTableRecord
100
AcDbDimStyleTableRecord
  2
Standard
 70
0
  3

  4

 40
1.0
 41
2.5
 42
0.625
 43
3.75
 44
1.25
 45
0.0
 46
0.0
 47
0.0
 48
0.0
140
2.5
141
2.5
142
0.0
143
0.03937007874
144
1.0
145
0.0
146
1.0
147
0.625
148
0.0
 71
0
 72
0
 73
0
 74
0
 75
0
 76
0
 77
1
 78
8
 79
0
170
0
171
3
172
1
173
0
174
0
175
0
176
0
177
0
178
0
179
0
271
0
272
2
273
2
274
3
275
0
276
0
277
2
278
44
279
0
280
0
281
0
282
0
283
0
284
8
285
0
286
0
288
0
289
3
371
-2
372
-2
  0
ENDTAB
  0
TABLE
  2
BLOCK_RECORD
  5
1
330
0
100
AcDbSymbolTable
 70
22
  0
BLOCK_RECORD
  5
1F
330
1
100
AcDbSymbolTableRecord
100
AcDbBlockTableRecord
  2
*MODEL_SPACE
340
10064
  0
BLOCK_RECORD
  5
1B
330
1
100
AcDbSymbolTableRecord
100
AcDbBlockTableRecord
  2
*PAPER_SPACE
340
10065
  0
BLOCK_RECORD
  5
FFFF
330
1
100
AcDbSymbolTableRecord
100
AcDbBlockTableRecord
  2
_CLOSEDFILLED
340
0
  0
BLOCK_RECORD
  5
10003
330
1
100
AcDbSymbolTableRecord
100
AcDbBlockTableRecord
  2
_DOTSMALL
340
0
  0
BLOCK_RECORD
  5
10007
330
1
100
AcDbSymbolTableRecord
100
AcDbBlockTableRecord
  2
_NONE
340
0
  0
BLOCK_RECORD
  5
1000A
330
1
100
AcDbSymbolTableRecord
100
AcDbBlockTableRecord
  2
_OBLIQUE
340
0
  0
BLOCK_RECORD
  5
1000E
330
1
100
AcDbSymbolTableRecord
100
AcDbBlockTableRecord
  2
_OPEN90
340
0
  0
BLOCK_RECORD
  5
10013
330
1
100
AcDbSymbolTableRecord
100
AcDbBlockTableRecord
  2
_INTEGRAL
340
0
  0
BLOCK_RECORD
  5
10018
330
1
100
AcDbSymbolTableRecord
100
AcDbBlockTableRecord
  2
_DATUMBLANK
340
0
  0
BLOCK_RECORD
  5
1001C
330
1
100
AcDbSymbolTableRecord
100
AcDbBlockTableRecord
  2
_BOXFILLED
340
0
  0
BLOCK_RECORD
  5
10021
330
1
100
AcDbSymbolTableRecord
100
AcDbBlockTableRecord
  2
_SMALL
340
0
  0
BLOCK_RECORD
  5
10025
330
1
100
AcDbSymbolTableRecord
100
AcDbBlockTableRecord
  2
_OPEN30
340
0
  0
BLOCK_RECORD
  5
1002A
330
1
100
AcDbSymbolTableRecord
100
AcDbBlockTableRecord
  2
_ORIGIN2
340
0
  0
BLOCK_RECORD
  5
10030
330
1
100
AcDbSymbolTableRecord
100
AcDbBlockTableRecord
  2
_ORIGIN
340
0
  0
BLOCK_RECORD
  5
10035
330
1
100
AcDbSymbolTableRecord
100
AcDbBlockTableRecord
  2
_CLOSEDBLANK
340
0
  0
BLOCK_RECORD
  5
10039
330
1
100
AcDbSymbolTableRecord
100
AcDbBlockTableRecord
  2
_OPEN
340
0
  0
BLOCK_RECORD
  5
1003E
330
1
100
AcDbSymbolTableRecord
100
AcDbBlockTableRecord
  2
_DOT
340
0
  0
BLOCK_RECORD
  5
10043
330
1
100
AcDbSymbolTableRecord
100
AcDbBlockTableRecord
  2
_DOTBLANK
340
0
  0
BLOCK_RECORD
  5
10048
330
1
100
AcDbSymbolTableRecord
100
AcDbBlockTableRecord
  2
_DATUMFILLED
340
0
  0
BLOCK_RECORD
  5
1004C
330
1
100
AcDbSymbolTableRecord
100
AcDbBlockTableRecord
  2
_BOXBLANK
340
0
  0
BLOCK_RECORD
  5
10051
330
1
100
AcDbSymbolTableRecord
100
AcDbBlockTableRecord
  2
_ARCHTICK
340
0
  0
BLOCK_RECORD
  5
10055
330
1
100
AcDbSymbolTableRecord
100
AcDbBlockTableRecord
  2
_CLOSED
340
0
  0
ENDTAB
  0
ENDSEC
  0
SECTION
  2
BLOCKS
  0
BLOCK
  5
20
330
1F
100
AcDbEntity
  8
0
100
AcDbBlockBegin
  2
*MODEL_SPACE
 70
0
 10
0.0
 20
0.0
 30
0.0
  3
*MODEL_SPACE
  1

  0
ENDBLK
  5
21
330
1F
100
AcDbEntity
  8
0
100
AcDbBlockEnd
  0
BLOCK
  5
1C
330
1B
100
AcDbEntity
  8
0
100
AcDbBlockBegin
  2
*PAPER_SPACE
 70
0
 10
0.0
 20
0.0
 30
0.0
  3
*PAPER_SPACE
  1

  0
ENDBLK
  5
1D
330
1B
100
AcDbEntity
  8
0
100
AcDbBlockEnd
  0
BLOCK
  5
10000
330
FFFF
100
AcDbEntity
  8
0
100
AcDbBlockBegin
  2
_CLOSEDFILLED
 70
0
 10
0.0
 20
0.0
 30
0.0
  3
_CLOSEDFILLED
  1

  0
SOLID
  5
10002
330
FFFF
100
AcDbEntity
  8
0
  6
BYBLOCK
 62
0
100
AcDbTrace
 10
-1.0
 20
0.1643989837240255
 30
0.0
 11
0.0
 21
0.0
 31
0.0
 12
-1.0
 22
-0.1643989837240255
 32
0.0
 13
-1.0
 23
-0.1643989837240255
 33
0.0
  0
ENDBLK
  5
10001
330
FFFF
100
AcDbEntity
  8
0
100
AcDbBlockEnd
  0
BLOCK
  5
10004
330
10003
100
AcDbEntity
  8
0
100
AcDbBlockBegin
  2
_DOTSMALL
 70
0
 10
0.0
 20
0.0
 30
0.0
  3
_DOTSMALL
  1

  0
LWPOLYLINE
  5
10006
330
10003
100
AcDbEntity
  8
0
  6
BYBLOCK
 62
0
100
AcDbPolyline
 90
2
 70
1
 43
0.125
 10
-0.0625
 20
0.0
 42
1.0
 10
0.0625
 20
0.0
 42
1.0
  0
ENDBLK
  5
10005
330
10003
100
AcDbEntity
  8
0
100
AcDbBlockEnd
  0
BLOCK
  5
10008
330
10007
100
AcDbEntity
  8
0
100
AcDbBlockBegin
  2
_NONE
 70
0
 10
0.0
 20
0.0
 30
0.0
  3
_NONE
  1

  0
ENDBLK
  5
10009
330
10007
100
AcDbEntity
  8
0
100
AcDbBlockEnd
  0
BLOCK
  5
1000B
330
1000A
100
AcDbEntity
  8
0
100
AcDbBlockBegin
  2
_OBLIQUE
 70
0
 10
0.0
 20
0.0
 30
0.0
  3
_OBLIQUE
  1

  0
LINE
  5
1000D
330
1000A
100
AcDbEntity
  8
0
  6
BYBLOCK
 62
0
100
AcDbLine
 10
-0.5
 20
-0.5000000000000001
 30
0.0
 11
0.5000000000000001
 21
0.5
 31
0.0
  0
ENDBLK
  5
1000C
330
1000A
100
AcDbEntity
  8
0
100
AcDbBlockEnd
  0
BLOCK
  5
1000F
330
1000E
100
AcDbEntity
  8
0
100
AcDbBlockBegin
  2
_OPEN90
 70
0
 10
0.0
 20
0.0
 30
0.0
  3
_OPEN90
  1

  0
LWPOLYLINE
  5
10011
330
1000E
100
AcDbEntity
  8
0
  6
BYBLOCK
 62
0
100
AcDbPolyline
 90
3
 70
0
 10
-0.9999999999999998
 20
0.7071067811865476
 10
0.0
 20
0.0
 10
-0.9999999999999998
 20
-0.7071067811865476
  0
LINE
  5
10012
330
1000E
100
AcDbEntity
  8
0
  6
BYBLOCK
 62
0
100
AcDbLine
 10
0.0
 20
0.0
 30
0.0
 11
-1.0
 21
1.2246467991473532e-16
 31
0.0
  0
ENDBLK
  5
10010
330
1000E
100
AcDbEntity
  8
0
100
AcDbBlockEnd
  0
BLOCK
  5
10014
330
10013
100
AcDbEntity
  8
0
100
AcDbBlockBegin
  2
_INTEGRAL
 70
0
 10
0.0
 20
0.0
 30
0.0
  3
_INTEGRAL
  1

  0
ARC
  5
10016
330
10013
100
AcDbEntity
  8
0
  6
BYBLOCK
 62
0
100
AcDbCircle
 10
-0.3535534
 20
4.329780396376638e-17
 30
0.0
 40
0.3535534
100
AcDbArc
 50
-90.0
 51
0.0
  0
ARC
  5
10017
330
10013
100
AcDbEntity
  8
0
  6
BYBLOCK
 62
0
100
AcDbCircle
 10
0.3535534
 20
0.0
 30
0.0
 40
0.3535534
100
AcDbArc
 50
90.0
 51
180.0
  0
ENDBLK
  5
10015
330
10013
100
AcDbEntity
  8
0
100
AcDbBlockEnd
  0
BLOCK
  5
10019
330
10018
100
AcDbEntity
  8
0
100
AcDbBlockBegin
  2
_DATUMBLANK
 70
0
 10
0.0
 20
0.0
 30
0.0
  3
_DATUMBLANK
  1

  0
LWPOLYLINE
  5
1001B
330
10018
100
AcDbEntity
  8
0
  6
BYBLOCK
 62
0
100
AcDbPolyline
 90
3
 70
1
 10
3.5352507945885664e-17
 20
0.577350269
 10
3.5352507945885664e-17
 20
-0.577350269
 10
-1.0
 20
1.2246467991473532e-16
  0
ENDBLK
  5
1001A
330
10018
100
AcDbEntity
  8
0
100
AcDbBlockEnd
  0
BLOCK
  5
1001D
330
1001C
100
AcDbEntity
  8
0
100
AcDbBlockBegin
  2
_BOXFILLED
 70
0
 10
0.0
 20
0.0
 30
0.0
  3
_BOXFILLED
  1

  0
SOLID
  5
1001F
330
1001C
100
AcDbEntity
  8
0
  6
BYBLOCK
 62
0
100
AcDbTrace
 10
-0.5
 20
-0.5000000000000001
 30
0.0
 11
0.5000000000000001
 21
-0.5
 31
0.0
 12
-0.5
 22
0.5000000000000001
 32
0.0
 13
0.5000000000000001
 23
0.5
 33
0.0
  0
LINE
  5
10020
330
1001C
100
AcDbEntity
  8
0
  6
BYBLOCK
 62
0
100
AcDbLine
 10
-0.5
 20
6.123233995736766e-17
 30
0.0
 11
-1.0
 21
1.2246467991473532e-16
 31
0.0
  0
ENDBLK
  5
1001E
330
1001C
100
AcDbEntity
  8
0
100
AcDbBlockEnd
  0
BLOCK
  5
10022
330
10021
100
AcDbEntity
  8
0
100
AcDbBlockBegin
  2
_SMALL
 70
0
 10
0.0
 20
0.0
 30
0.0
  3
_SMALL
  1

  0
CIRCLE
  5
10024
330
10021
100
AcDbEntity
  8
0
  6
BYBLOCK
 62
0
100
AcDbCircle
 10
0.0
 20
0.0
 30
0.0
 40
0.25
  0
ENDBLK
  5
10023
330
10021
100
AcDbEntity
  8
0
100
AcDbBlockEnd
  0
BLOCK
  5
10026
330
10025
100
AcDbEntity
  8
0
100
AcDbBlockBegin
  2
_OPEN30
 70
0
 10
0.0
 20
0.0
 30
0.0
  3
_OPEN30
  1

  0
LWPOLYLINE
  5
10028
330
10025
100
AcDbEntity
  8
0
  6
BYBLOCK
 62
0
100
AcDbPolyline
 90
3
 70
0
 10
-0.9999999999999999
 20
0.2588190451025208
 10
0.0
 20
0.0
 10
-0.9999999999999999
 20
-0.2588190451025208
  0
LINE
  5
10029
330
10025
100
AcDbEntity
  8
0
  6
BYBLOCK
 62
0
100
AcDbLine
 10
0.0
 20
0.0
 30
0.0
 11
-1.0
 21
1.2246467991473532e-16
 31
0.0
  0
ENDBLK
  5
10027
330
10025
100
AcDbEntity
  8
0
100
AcDbBlockEnd
  0
BLOCK
  5
1002B
330
1002A
100
AcDbEntity
  8
0
100
AcDbBlockBegin
  2
_ORIGIN2
 70
0
 10
0.0
 20
0.0
 30
0.0
  3
_ORIGIN2
  1

  0
CIRCLE
  5
1002D
330
1002A
100
AcDbEntity
  8
0
  6
BYBLOCK
 62
0
100
AcDbCircle
 10
0.0
 20
0.0
 30
0.0
 40
0.5
  0
CIRCLE
  5
1002E
330
1002A
100
AcDbEntity
  8
0
  6
BYBLOCK
 62
0
100
AcDbCircle
 10
0.0
 20
0.0
 30
0.0
 40
0.25
  0
LINE
  5
1002F
330
1002A
100
AcDbEntity
  8
0
  6
BYBLOCK
 62
0
100
AcDbLine
 10
-0.5
 20
6.123233995736766e-17
 30
0.0
 11
-1.0
 21
1.2246467991473532e-16
 31
0.0
  0
ENDBLK
  5
1002C
330
1002A
100
AcDbEntity
  8
0
100
AcDbBlockEnd
  0
BLOCK
  5
10031
330
10030
100
AcDbEntity
  8
0
100
AcDbBlockBegin
  2
_ORIGIN
 70
0
 10
0.0
 20
0.0
 30
0.0
  3
_ORIGIN
  1

  0
CIRCLE
  5
10033
330
10030
100
AcDbEntity
  8
0
  6
BYBLOCK
 62
0
100
AcDbCircle
 10
0.0
 20
0.0
 30
0.0
 40
0.5
  0
LINE
  5
10034
330
10030
100
AcDbEntity
  8
0
  6
BYBLOCK
 62
0
100
AcDbLine
 10
0.0
 20
0.0
 30
0.0
 11
-1.0
 21
1.2246467991473532e-16
 31
0.0
  0
ENDBLK
  5
10032
330
10030
100
AcDbEntity
  8
0
100
AcDbBlockEnd
  0
BLOCK
  5
10036
330
10035
100
AcDbEntity
  8
0
100
AcDbBlockBegin
  2
_CLOSEDBLANK
 70
0
 10
0.0
 20
0.0
 30
0.0
  3
_CLOSEDBLANK
  1

  0
LWPOLYLINE
  5
10038
330
10035
100
AcDbEntity
  8
0
  6
BYBLOCK
 62
0
100
AcDbPolyline
 90
3
 70
1
 10
-1.0
 20
0.1643989837240255
 10
0.0
 20
0.0
 10
-1.0
 20
-0.1643989837240255
  0
ENDBLK
  5
10037
330
10035
100
AcDbEntity
  8
0
100
AcDbBlockEnd
  0
BLOCK
  5
1003A
330
10039
100
AcDbEntity
  8
0
100
AcDbBlockBegin
  2
_OPEN
 70
0
 10
0.0
 20
0.0
 30
0.0
  3
_OPEN
  1

  0
LWPOLYLINE
  5
1003C
330
10039
100
AcDbEntity
  8
0
  6
BYBLOCK
 62
0
100
AcDbPolyline
 90
3
 70
0
 10
-1.0
 20
0.1643989837240255
 10
0.0
 20
0.0
 10
-1.0
 20
-0.1643989837240255
  0
LINE
  5
1003D
330
10039
100
AcDbEntity
  8
0
  6
BYBLOCK
 62
0
100
AcDbLine
 10
0.0
 20
0.0
 30
0.0
 11
-1.0
 21
1.2246467991473532e-16
 31
0.0
  0
ENDBLK
  5
1003B
330
10039
100
AcDbEntity
  8
0
100
AcDbBlockEnd
  0
BLOCK
  5
1003F
330
1003E
100
AcDbEntity
  8
0
100
AcDbBlockBegin
  2
_DOT
 70
0
 10
0.0
 20
0.0
 30
0.0
  3
_DOT
  1

  0
LINE
  5
10041
330
1003E
100
AcDbEntity
  8
0
  6
BYBLOCK
 62
0
100
AcDbLine
 10
-0.5
 20
6.123233995736766e-17
 30
0.0
 11
-1.0
 21
1.2246467991473532e-16
 31
0.0
  0
LWPOLYLINE
  5
10042
330
1003E
100
AcDbEntity
  8
0
  6
BYBLOCK
 62
0
100
AcDbPolyline
 90
2
 70
1
 43
0.5
 10
-0.25
 20
0.0
 42
1.0
 10
0.25
 20
0.0
 42
1.0
  0
ENDBLK
  5
10040
330
1003E
100
AcDbEntity
  8
0
100
AcDbBlockEnd
  0
BLOCK
  5
10044
330
10043
100
AcDbEntity
  8
0
100
AcDbBlockBegin
  2
_DOTBLANK
 70
0
 10
0.0
 20
0.0
 30
0.0
  3
_DOTBLANK
  1

  0
CIRCLE
  5
10046
330
10043
100
AcDbEntity
  8
0
  6
BYBLOCK
 62
0
100
AcDbCircle
 10
0.0
 20
0.0
 30
0.0
 40
0.5
  0
LINE
  5
10047
330
10043
100
AcDbEntity
  8
0
  6
BYBLOCK
 62
0
100
AcDbLine
 10
-0.5
 20
6.123233995736766e-17
 30
0.0
 11
-1.0
 21
1.2246467991473532e-16
 31
0.0
  0
ENDBLK
  5
10045
330
10043
100
AcDbEntity
  8
0
100
AcDbBlockEnd
  0
BLOCK
  5
10049
330
10048
100
AcDbEntity
  8
0
100
AcDbBlockBegin
  2
_DATUMFILLED
 70
0
 10
0.0
 20
0.0
 30
0.0
  3
_DATUMFILLED
  1

  0
SOLID
  5
1004B
330
10048
100
AcDbEntity
  8
0
  6
BYBLOCK
 62
0
100
AcDbTrace
 10
3.5352507945885664e-17
 20
0.577350269
 30
0.0
 11
3.5352507945885664e-17
 21
-0.577350269
 31
0.0
 12
-1.0
 22
1.2246467991473532e-16
 32
0.0
 13
-1.0
 23
1.2246467991473532e-16
 33
0.0
  0
ENDBLK
  5
1004A
330
10048
100
AcDbEntity
  8
0
100
AcDbBlockEnd
  0
BLOCK
  5
1004D
330
1004C
100
AcDbEntity
  8
0
100
AcDbBlockBegin
  2
_BOXBLANK
 70
0
 10
0.0
 20
0.0
 30
0.0
  3
_BOXBLANK
  1

  0
LWPOLYLINE
  5
1004F
330
1004C
100
AcDbEntity
  8
0
  6
BYBLOCK
 62
0
100
AcDbPolyline
 90
4
 70
1
 10
-0.5
 20
-0.5000000000000001
 10
0.5000000000000001
 20
-0.5
 10
0.5000000000000001
 20
0.5
 10
-0.5
 20
0.5000000000000001
  0
LINE
  5
10050
330
1004C
100
AcDbEntity
  8
0
  6
BYBLOCK
 62
0
100
AcDbLine
 10
-0.5
 20
6.123233995736766e-17
 30
0.0
 11
-1.0
 21
1.2246467991473532e-16
 31
0.0
  0
ENDBLK
  5
1004E
330
1004C
100
AcDbEntity
  8
0
100
AcDbBlockEnd
  0
BLOCK
  5
10052
330
10051
100
AcDbEntity
  8
0
100
AcDbBlockBegin
  2
_ARCHTICK
 70
0
 10
0.0
 20
0.0
 30
0.0
  3
_ARCHTICK
  1

  0
LWPOLYLINE
  5
10054
330
10051
100
AcDbEntity
  8
0
  6
BYBLOCK
 62
0
100
AcDbPolyline
 90
2
 70
0
 43
0.15
 10
-0.5
 20
-0.5000000000000001
 10
0.5000000000000001
 20
0.5
  0
ENDBLK
  5
10053
330
10051
100
AcDbEntity
  8
0
100
AcDbBlockEnd
  0
BLOCK
  5
10056
330
10055
100
AcDbEntity
  8
0
100
AcDbBlockBegin
  2
_CLOSED
 70
0
 10
0.0
 20
0.0
 30
0.0
  3
_CLOSED
  1

  0
LWPOLYLINE
  5
10058
330
10055
100
AcDbEntity
  8
0
  6
BYBLOCK
 62
0
100
AcDbPolyline
 90
3
 70
1
 10
-1.0
 20
0.1643989837240255
 10
0.0
 20
0.0
 10
-1.0
 20
-0.1643989837240255
  0
LINE
  5
10059
330
10055
100
AcDbEntity
  8
0
  6
BYBLOCK
 62
0
100
AcDbLine
 10
0.0
 20
0.0
 30
0.0
 11
-1.0
 21
0.0
 31
0.0
  0
ENDBLK
  5
10057
330
10055
100
AcDbEntity
  8
0
100
AcDbBlockEnd
  0
ENDSEC
  0
SECTION
  2
ENTITIES
  0
LINE
  5
100
330
1F
100
AcDbEntity
  8
0
100
AcDbLine
 10
57.679977788836275
 20
1.0
 30
0.0
 11
67.29634603323463
 21
1.0
 31
0.0
  0
LINE
  5
101
330
1F
100
AcDbEntity
  8
0
100
AcDbLine
 10
67.29634603323463
 20
1.0
 30
0.0
 11
67.29634603323463
 21
0.0
 31
0.0
  0
LINE
  5
102
330
1F
100
AcDbEntity
  8
0
100
AcDbLine
 10
67.29634603323463
 20
0.0
 30
0.0
 11
74.71136363636364
 21
0.0
 31
0.0
  0
LINE
  5
103
330
1F
100
AcDbEntity
  8
0
100
AcDbLine
 10
74.71136363636364
 20
0.0
 30
0.0
 11
74.71136363636373
 21
18.256818181818186
 31
0.0
  0
LINE
  5
104
330
1F
100
AcDbEntity
  8
0
100
AcDbLine
 10
74.71136363636373
 20
18.256818181818186
 30
0.0
 11
68.17198818469112
 21
18.256818181818186
 31
0.0
  0
LINE
  5
105
330
1F
100
AcDbEntity
  8
0
100
AcDbLine
 10
68.17198818469112
 20
18.256818181818186
 30
0.0
 11
68.17198818469112
 21
17.256818181818183
 31
0.0
  0
LINE
  5
106
330
1F
100
AcDbEntity
  8
0
100
AcDbLine
 10
68.17198818469112
 20
17.256818181818183
 30
0.0
 11
62.17333956810171
 21
17.256818181818183
 31
0.0
  0
LINE
  5
107
330
1F
100
AcDbEntity
  8
0
100
AcDbLine
 10
62.17333956810171
 20
17.256818181818183
 30
0.0
 11
62.17333956810171
 21
18.256818181818186
 31
0.0
  0
LINE
  5
108
330
1F
100
AcDbEntity
  8
0
100
AcDbLine
 10
62.17333956810171
 20
18.256818181818186
 30
0.0
 11
43.59198330019203
 21
18.256818181818186
 31
0.0
  0
LINE
  5
109
330
1F
100
AcDbEntity
  8
0
100
AcDbLine
 10
43.59198330019203
 20
18.256818181818186
 30
0.0
 11
43.59198330019203
 21
17.256818181818183
 31
0.0
  0
LINE
  5
110
330
1F
100
AcDbEntity
  8
0
100
AcDbLine
 10
43.59198330019203
 20
17.256818181818183
 30
0.0
 11
37.79547651715983
 21
17.256818181818183
 31
0.0
  0
LINE
  5
111
330
1F
100
AcDbEntity
  8
0
100
AcDbLine
 10
37.79547651715983
 20
17.256818181818183
 30
0.0
 11
37.79547651715983
 21
18.256818181818186
 31
0.0
  0
LINE
  5
112
330
1F
100
AcDbEntity
  8
0
100
AcDbLine
 10
37.79547651715983
 20
18.256818181818186
 30
0.0
 11
23.967136391811973
 21
18.256818181818186
 31
0.0
  0
LINE
  5
113
330
1F
100
AcDbEntity
  8
0
100
AcDbLine
 10
23.967136391811973
 20
18.256818181818186
 30
0.0
 11
23.967136391811977
 21
17.256818181818183
 31
0.0
  0
LINE
  5
114
330
1F
100
AcDbEntity
  8
0
100
AcDbLine
 10
23.967136391811977
 20
17.256818181818183
 30
0.0
 11
17.457713494810363
 21
17.256818181818183
 31
0.0
  0
LINE
  5
115
330
1F
100
AcDbEntity
  8
0
100
AcDbLine
 10
17.457713494810363
 20
17.256818181818183
 30
0.0
 11
17.457713494810363
 21
18.256818181818186
 31
0.0
  0
LINE
  5
116
330
1F
100
AcDbEntity
  8
0
100
AcDbLine
 10
17.457713494810363
 20
18.256818181818186
 30
0.0
 11
11.0
 21
18.256818181818186
 31
0.0
  0
LINE
  5
117
330
1F
100
AcDbEntity
  8
0
100
AcDbLine
 10
11.0
 20
18.256818181818186
 30
0.0
 11
11.0
 21
12.904363069007534
 31
0.0
  0
LINE
  5
118
330
1F
100
AcDbEntity
  8
0
100
AcDbLine
 10
11.0
 20
12.904363069007534
 30
0.0
 11
10.0
 21
12.904363069007534
 31
0.0
  0
LINE
  5
119
330
1F
100
AcDbEntity
  8
0
100
AcDbLine
 10
10.0
 20
12.904363069007534
 30
0.0
 11
10.0
 21
6.767653743376653
 31
0.0
  0
LINE
  5
120
330
1F
100
AcDbEntity
  8
0
100
AcDbLine
 10
10.0
 20
6.767653743376653
 30
0.0
 11
11.0
 21
6.767653743376654
 31
0.0
  0
LINE
  5
121
330
1F
100
AcDbEntity
  8
0
100
AcDbLine
 10
11.0
 20
6.767653743376654
 30
0.0
 11
10.999999999999996
 21
0.0
 31
0.0
  0
LINE
  5
122
330
1F
100
AcDbEntity
  8
0
100
AcDbLine
 10
10.999999999999996
 20
0.0
 30
0.0
 11
22.574517746053573
 21
0.0
 31
0.0
  0
LINE
  5
123
330
1F
100
AcDbEntity
  8
0
100
AcDbLine
 10
22.574517746053573
 20
0.0
 30
0.0
 11
22.574517746053573
 21
1.0
 31
0.0
  0
LINE
  5
124
330
1F
100
AcDbEntity
  8
0
100
AcDbLine
 10
22.574517746053573
 20
1.0
 30
0.0
 11
34.0963671657032
 21
1.0
 31
0.0
  0
LINE
  5
125
330
1F
100
AcDbEntity
  8
0
100
AcDbLine
 10
34.0963671657032
 20
1.0
 30
0.0
 11
34.0963671657032
 21
0.0
 31
0.0
  0
LINE
  5
126
330
1F
100
AcDbEntity
  8
0
100
AcDbLine
 10
34.0963671657032
 20
0.0
 30
0.0
 11
57.679977788836275
 21
0.0
 31
0.0
  0
LINE
  5
127
330
1F
100
AcDbEntity
  8
0
100
AcDbLine
 10
57.679977788836275
 20
0.0
 30
0.0
 11
57.679977788836275
 21
1.0
 31
0.0
  0
LINE
  5
128
330
1F
100
AcDbEntity
  8
0
100
AcDbLine
 10
68.24547287733094
 20
14.722583859987154
 30
0.0
 11
68.24547287733094
 21
12.070311132714425
 31
0.0
  0
LINE
  5
129
330
1F
100
AcDbEntity
  8
0
100
AcDbLine
 10
68.24547287733094
 20
12.070311132714425
 30
0.0
 11
62.86592742278549
 21
12.070311132714425
 31
0.0
  0
LINE
  5
130
330
1F
100
AcDbEntity
  8
0
100
AcDbLine
 10
62.86592742278549
 20
12.070311132714425
 30
0.0
 11
62.86592742278549
 21
14.722583859987154
 31
0.0
  0
LINE
  5
131
330
1F
100
AcDbEntity
  8
0
100
AcDbLine
 10
62.86592742278549
 20
14.722583859987154
 30
0.0
 11
68.24547287733094
 21
14.722583859987154
 31
0.0
  0
LINE
  5
132
330
1F
100
AcDbEntity
  8
0
100
AcDbLine
 10
38.52088744588745
 20
12.230844360202939
 30
0.0
 11
38.52088744588745
 21
14.883117087475668
 31
0.0
  0
LINE
  5
133
330
1F
100
AcDbEntity
  8
0
100
AcDbLine
 10
38.52088744588745
 20
14.883117087475668
 30
0.0
 11
43.90043290043291
 21
14.883117087475668
 31
0.0
  0
LINE
  5
134
330
1F
100
AcDbEntity
  8
0
100
AcDbLine
 10
43.90043290043291
 20
14.883117087475668
 30
0.0
 11
43.900432900432904
 21
12.230844360202939
 31
0.0
  0
LINE
  5
135
330
1F
100
AcDbEntity
  8
0
100
AcDbLine
 10
43.900432900432904
 20
12.230844360202939
 30
0.0
 11
38.52088744588745
 21
12.230844360202939
 31
0.0
  0
LINE
  5
136
330
1F
100
AcDbEntity
  8
0
100
AcDbLine
 10
38.52088744588745
 20
5.075000074505807
 30
0.0
 11
38.52088744588745
 21
7.727272801778535
 31
0.0
  0
LINE
  5
137
330
1F
100
AcDbEntity
  8
0
100
AcDbLine
 10
38.52088744588745
 20
7.727272801778535
 30
0.0
 11
43.90043290043291
 21
7.727272801778535
 31
0.0
  0
LINE
  5
138
330
1F
100
AcDbEntity
  8
0
100
AcDbLine
 10
43.90043290043291
 20
7.727272801778535
 30
0.0
 11
43.900432900432904
 21
5.075000074505807
 31
0.0
  0
LINE
  5
139
330
1F
100
AcDbEntity
  8
0
100
AcDbLine
 10
43.900432900432904
 20
5.075000074505807
 30
0.0
 11
38.52088744588745
 21
5.075000074505807
 31
0.0
  0
LINE
  5
1006F
330
1F
100
AcDbEntity
  8
0
100
AcDbLine
 10
110.69545454545464
 20
20.98783941927715
 30
0.0
 11
110.69545454545464
 21
25.893181818181816
 31
0.0
  0
LINE
  5
10070
330
1F
100
AcDbEntity
  8
0
100
AcDbLine
 10
110.69545454545464
 20
25.893181818181816
 30
0.0
 11
109.2843200724084
 21
25.893181818181816
 31
0.0
  0
LINE
  5
10071
330
1F
100
AcDbEntity
  8
0
100
AcDbLine
 10
109.2843200724084
 20
25.893181818181816
 30
0.0
 11
109.2843200724084
 21
26.893181818181823
 31
0.0
  0
LINE
  5
10072
330
1F
100
AcDbEntity
  8
0
100
AcDbLine
 10
109.2843200724084
 20
26.89318181818182
 30
0.0
 11
107.2093200724084
 21
26.89318181818182
 31
0.0
  0
LINE
  5
10073
330
1F
100
AcDbEntity
  8
0
100
AcDbLine
 10
107.2093200724084
 20
26.89318181818182
 30
0.0
 11
107.2093200724084
 21
25.89318181818183
 31
0.0
  0
LINE
  5
10074
330
1F
100
AcDbEntity
  8
0
100
AcDbLine
 10
107.2093200724084
 20
25.89318181818183
 30
0.0
 11
98.37303383231641
 21
25.893181818181823
 31
0.0
  0
LINE
  5
10075
330
1F
100
AcDbEntity
  8
0
100
AcDbLine
 10
98.37303383231641
 20
25.893181818181823
 30
0.0
 11
98.37303383231641
 21
26.893181818181823
 31
0.0
  0
LINE
  5
10076
330
1F
100
AcDbEntity
  8
0
100
AcDbLine
 10
98.37303383231641
 20
26.89318181818182
 30
0.0
 11
96.2980338323164
 21
26.89318181818182
 31
0.0
  0
LINE
  5
10077
330
1F
100
AcDbEntity
  8
0
100
AcDbLine
 10
96.2980338323164
 20
26.89318181818182
 30
0.0
 11
96.2980338323164
 21
25.893181818181816
 31
0.0
  0
LINE
  5
10078
330
1F
100
AcDbEntity
  8
0
100
AcDbLine
 10
96.2980338323164
 20
25.893181818181823
 30
0.0
 11
95.71136363636373
 21
25.893181818181816
 31
0.0
  0
LINE
  5
10079
330
1F
100
AcDbEntity
  8
0
100
AcDbLine
 10
95.71136363636373
 20
25.893181818181816
 30
0.0
 11
95.71136363636373
 21
20.322551727013447
 31
0.0
  0
LINE
  5
1007A
330
1F
100
AcDbEntity
  8
0
100
AcDbLine
 10
95.71136363636373
 20
20.322551727013447
 30
0.0
 11
94.71136363636373
 21
20.322551727013447
 31
0.0
  0
LINE
  5
1007B
330
1F
100
AcDbEntity
  8
0
100
AcDbLine
 10
94.71136363636373
 20
20.322551727013447
 30
0.0
 11
94.71136363636373
 21
10.192745127818515
 31
0.0
  0
LINE
  5
1007C
330
1F
100
AcDbEntity
  8
0
100
AcDbLine
 10
94.71136363636373
 20
10.192745127818515
 30
0.0
 11
95.71136363636373
 21
10.192745127818515
 31
0.0
  0
LINE
  5
1007D
330
1F
100
AcDbEntity
  8
0
100
AcDbLine
 10
95.71136363636373
 20
10.192745127818515
 30
0.0
 11
95.71136363636373
 21
1.0000000000000018
 31
0.0
  0
LINE
  5
1007E
330
1F
100
AcDbEntity
  8
0
100
AcDbLine
 10
95.71136363636373
 20
1.0000000000000018
 30
0.0
 11
96.2980338323164
 21
1.0000000000000018
 31
0.0
  0
LINE
  5
1007F
330
1F
100
AcDbEntity
  8
0
100
AcDbLine
 10
96.2980338323164
 20
1.0000000000000018
 30
0.0
 11
96.2980338323164
 21
0.0
 31
0.0
  0
LINE
  5
10080
330
1F
100
AcDbEntity
  8
0
100
AcDbLine
 10
96.2980338323164
 20
0.0
 30
0.0
 11
98.37303383231641
 21
0.0
 31
0.0
  0
LINE
  5
10081
330
1F
100
AcDbEntity
  8
0
100
AcDbLine
 10
98.37303383231641
 20
0.0
 30
0.0
 11
98.37303383231641
 21
1.0000000000000018
 31
0.0
  0
LINE
  5
10082
330
1F
100
AcDbEntity
  8
0
100
AcDbLine
 10
98.37303383231641
 20
1.0000000000000018
 30
0.0
 11
107.2093200724084
 21
1.0000000000000018
 31
0.0
  0
LINE
  5
10083
330
1F
100
AcDbEntity
  8
0
100
AcDbLine
 10
107.2093200724084
 20
1.0000000000000018
 30
0.0
 11
107.2093200724084
 21
0.0
 31
0.0
  0
LINE
  5
10084
330
1F
100
AcDbEntity
  8
0
100
AcDbLine
 10
107.2093200724084
 20
0.0
 30
0.0
 11
109.2843200724084
 21
0.0
 31
0.0
  0
LINE
  5
10085
330
1F
100
AcDbEntity
  8
0
100
AcDbLine
 10
109.2843200724084
 20
0.0
 30
0.0
 11
109.2843200724084
 21
1.0000000000000018
 31
0.0
  0
LINE
  5
10086
330
1F
100
AcDbEntity
  8
0
100
AcDbLine
 10
109.2843200724084
 20
1.0000000000000018
 30
0.0
 11
110.69545454545464
 21
1.0000000000000018
 31
0.0
  0
LINE
  5
10087
330
1F
100
AcDbEntity
  8
0
100
AcDbLine
 10
110.69545454545464
 20
1.0000000000000018
 30
0.0
 11
110.69545454545464
 21
9.499381283881057
 31
0.0
  0
LINE
  5
10088
330
1F
100
AcDbEntity
  8
0
100
AcDbLine
 10
110.69545454545464
 20
9.499381283881057
 30
0.0
 11
111.69545454545465
 21
9.499381283881055
 31
0.0
  0
LINE
  5
10089
330
1F
100
AcDbEntity
  8
0
100
AcDbLine
 10
111.69545454545465
 20
9.499381283881055
 30
0.0
 11
111.69545454545465
 21
20.98783941927715
 31
0.0
  0
LINE
  5
1008A
330
1F
100
AcDbEntity
  8
0
100
AcDbLine
 10
111.69545454545465
 20
20.98783941927715
 30
0.0
 11
110.69545454545464
 21
20.98783941927715
 31
0.0
  0
LINE
  5
1008B
330
1F
100
AcDbEntity
  8
0
100
AcDbLine
 10
96.51363636363646
 20
6.494750274715059
 30
0.0
 11
97.43863636363646
 21
6.494750274715059
 31
0.0
  0
LINE
  5
1008C
330
1F
100
AcDbEntity
  8
0
100
AcDbLine
 10
97.43863636363646
 20
6.494750274715059
 30
0.0
 11
97.43863636363646
 21
2.569750274715057
 31
0.0
  0
LINE
  5
1008D
330
1F
100
AcDbEntity
  8
0
100
AcDbLine
 10
97.43863636363646
 20
2.569750274715055
 30
0.0
 11
96.51363636363646
 21
2.569750274715055
 31
0.0
  0
LINE
  5
1008E
330
1F
100
AcDbEntity
  8
0
100
AcDbLine
 10
96.51363636363646
 20
2.569750274715055
 30
0.0
 11
96.51363636363646
 21
6.4947502747150585
 31
0.0
  0
LINE
  5
1008F
330
1F
100
AcDbEntity
  8
0
100
AcDbLine
 10
96.51363636363646
 20
20.322551727013447
 30
0.0
 11
96.51363636363646
 21
23.532866772597636
 31
0.0
  0
LINE
  5
10090
330
1F
100
AcDbEntity
  8
0
100
AcDbLine
 10
96.51363636363646
 20
23.532866772597636
 30
0.0
 11
97.43863636363646
 21
23.532866772597636
 31
0.0
  0
LINE
  5
10091
330
1F
100
AcDbEntity
  8
0
100
AcDbLine
 10
97.43863636363646
 20
23.532866772597636
 30
0.0
 11
97.43863636363646
 21
20.322551727013447
 31
0.0
  0
LINE
  5
10092
330
1F
100
AcDbEntity
  8
0
100
AcDbLine
 10
97.43863636363646
 20
20.322551727013447
 30
0.0
 11
96.51363636363646
 21
20.322551727013447
 31
0.0
  0
LINE
  5
10093
330
1F
100
AcDbEntity
  8
0
100
AcDbLine
 10
106.0750000000001
 20
18.01439393939394
 30
0.0
 11
99.33181818181828
 21
18.01439393939394
 31
0.0
  0
LINE
  5
10094
330
1F
100
AcDbEntity
  8
0
100
AcDbLine
 10
99.33181818181828
 20
18.01439393939394
 30
0.0
 11
99.33181818181828
 21
25.0
 31
0.0
  0
LINE
  5
10095
330
1F
100
AcDbEntity
  8
0
100
AcDbLine
 10
99.33181818181828
 20
25.0
 30
0.0
 11
106.0750000000001
 21
25.0
 31
0.0
  0
LINE
  5
10096
330
1F
100
AcDbEntity
  8
0
100
AcDbLine
 10
106.0750000000001
 20
25.0
 30
0.0
 11
106.0750000000001
 21
18.01439393939394
 31
0.0
  0
LINE
  5
10097
330
1F
100
AcDbEntity
  8
0
100
AcDbLine
 10
106.0750000000001
 20
9.953787878787878
 30
0.0
 11
99.33181818181828
 21
9.953787878787878
 31
0.0
  0
LINE
  5
10098
330
1F
100
AcDbEntity
  8
0
100
AcDbLine
 10
99.33181818181828
 20
9.953787878787878
 30
0.0
 11
99.33181818181828
 21
16.93939393939394
 31
0.0
  0
LINE
  5
10099
330
1F
100
AcDbEntity
  8
0
100
AcDbLine
 10
99.33181818181828
 20
16.93939393939394
 30
0.0
 11
106.0750000000001
 21
16.93939393939394
 31
0.0
  0
LINE
  5
1009A
330
1F
100
AcDbEntity
  8
0
100
AcDbLine
 10
106.0750000000001
 20
16.93939393939394
 30
0.0
 11
106.0750000000001
 21
9.953787878787878
 31
0.0
  0
LINE
  5
1009B
330
1F
100
AcDbEntity
  8
0
100
AcDbLine
 10
99.33181818181828
 20
1.8931818181818194
 30
0.0
 11
99.33181818181828
 21
8.878787878787882
 31
0.0
  0
LINE
  5
1009C
330
1F
100
AcDbEntity
  8
0
100
AcDbLine
 10
99.33181818181828
 20
8.87878787878788
 30
0.0
 11
106.0750000000001
 21
8.878787878787882
 31
0.0
  0
LINE
  5
1009D
330
1F
100
AcDbEntity
  8
0
100
AcDbLine
 10
106.0750000000001
 20
8.878787878787882
 30
0.0
 11
106.0750000000001
 21
1.8931818181818194
 31
0.0
  0
LINE
  5
1009E
330
1F
100
AcDbEntity
  8
0
100
AcDbLine
 10
106.0750000000001
 20
1.8931818181818194
 30
0.0
 11
99.33181818181828
 21
1.8931818181818194
 31
0.0
  0
LINE
  5
1009F
330
1F
100
AcDbEntity
  8
0
100
AcDbLine
 10
134.04318181818195
 20
27.244615016876658
 30
-4.440892098500626e-15
 11
131.69545454545465
 21
27.244615016876658
 31
-4.4408920985006246e-15
  0
LINE
  5
100A0
330
1F
100
AcDbEntity
  8
0
100
AcDbLine
 10
131.69545454545465
 20
27.24461501687665
 30
-4.440892098500626e-15
 11
131.69545454545465
 21
5.329070518200751e-15
 31
-4.440892098500626e-15
  0
LINE
  5
100A1
330
1F
100
AcDbEntity
  8
0
100
AcDbLine
 10
131.69545454545465
 20
1.7763568394002505e-15
 30
0.0
 11
134.04318181818195
 21
0.0
 31
0.0
  0
LINE
  5
100A2
330
1F
100
AcDbEntity
  8
0
100
AcDbLine
 10
134.04318181818195
 20
1.7763568394002505e-15
 30
-4.440892098500626e-15
 11
134.04318181818195
 21
27.244615016876658
 31
-6.661338147750939e-15
  0
LINE
  5
100A3
330
1F
100
AcDbEntity
  8
0
100
AcDbLine
 10
156.70822473187135
 20
3.552713678800501e-15
 30
0.0
 11
156.70822473187135
 21
27.82345725739161
 31
0.0
  0
LINE
  5
100A4
330
1F
100
AcDbEntity
  8
0
100
AcDbLine
 10
156.70822473187135
 20
27.82345725739161
 30
0.0
 11
154.04318181818192
 21
27.823457257391606
 31
0.0
  0
LINE
  5
100A5
330
1F
100
AcDbEntity
  8
0
100
AcDbLine
 10
154.04318181818192
 20
27.82345725739161
 30
0.0
 11
154.04318181818192
 21
3.552713678800501e-15
 31
0.0
  0
LINE
  5
100A6
330
1F
100
AcDbEntity
  8
0
100
AcDbLine
 10
154.04318181818192
 20
0.0
 30
0.0
 11
156.70822473187135
 21
0.0
 31
0.0
  0
LINE
  5
100A7
330
1F
100
AcDbEntity
  8
0
100
AcDbLine
 10
179.05595200459865
 20
28.437439601791823
 30
0.0
 11
176.70822473187135
 21
28.437439601791823
 31
0.0
  0
LINE
  5
100A8
330
1F
100
AcDbEntity
  8
0
100
AcDbLine
 10
176.70822473187135
 20
28.437439601791823
 30
0.0
 11
176.70822473187135
 21
5.329070518200751e-15
 31
0.0
  0
LINE
  5
100A9
330
1F
100
AcDbEntity
  8
0
100
AcDbLine
 10
176.70822473187135
 20
0.0
 30
5.551115123125783e-16
 11
179.05595200459865
 21
0.0
 31
5.551115123125783e-16
  0
LINE
  5
100AA
330
1F
100
AcDbEntity
  8
0
100
AcDbLine
 10
179.05595200459865
 20
0.0
 30
5.551115123125783e-16
 11
179.05595200459865
 21
28.43743960179182
 31
5.551115123125783e-16
  0
LINE
  5
100AB
330
1F
100
AcDbEntity
  8
0
100
AcDbLine
 10
201.40367927732592
 20
1.7763568394002505e-15
 30
-2.220446049250313e-15
 11
201.40367927732592
 21
26.909053377400156
 31
-4.440892098500626e-15
  0
LINE
  5
100AC
330
1F
100
AcDbEntity
  8
0
100
AcDbLine
 10
201.40367927732592
 20
26.909053377400156
 30
0.0
 11
199.05595200459862
 21
26.909053377400156
 31
1.1709654061874394e-30
  0
LINE
  5
100AD
330
1F
100
AcDbEntity
  8
0
100
AcDbLine
 10
199.05595200459862
 20
26.909053377400152
 30
0.0
 11
199.05595200459862
 21
0.0
 31
0.0
  0
LINE
  5
100AE
330
1F
100
AcDbEntity
  8
0
100
AcDbLine
 10
199.05595200459862
 20
1.7763568394002505e-15
 30
-2.220446049250313e-15
 11
201.40367927732592
 21
1.7763568394002505e-15
 31
-2.220446049250313e-15
  0
LINE
  5
100AF
330
1F
100
AcDbEntity
  8
0
100
AcDbLine
 10
240.03947565073793
 20
21.419154212427475
 30
0.0
 11
240.03947565073793
 21
17.85779057606384
 31
0.0
  0
LINE
  5
100B0
330
1F
100
AcDbEntity
  8
0
100
AcDbLine
 10
240.03947565073793
 20
17.85779057606384
 30
0.0
 11
238.29629383255613
 21
17.85779057606384
 31
0.0
  0
LINE
  5
100B1
330
1F
100
AcDbEntity
  8
0
100
AcDbLine
 10
238.29629383255613
 20
17.85779057606384
 30
0.0
 11
238.29629383255613
 21
21.419154212427475
 31
0.0
  0
LINE
  5
100B2
330
1F
100
AcDbEntity
  8
0
100
AcDbLine
 10
238.29629383255613
 20
21.419154212427475
 30
0.0
 11
240.03947565073793
 21
21.419154212427475
 31
0.0
  0
LINE
  5
100B3
330
1F
100
AcDbEntity
  8
0
100
AcDbLine
 10
240.03947565073793
 20
56.97395654255141
 30
0.0
 11
240.03947565073793
 21
53.41259290618778
 31
0.0
  0
LINE
  5
100B4
330
1F
100
AcDbEntity
  8
0
100
AcDbLine
 10
240.03947565073793
 20
53.41259290618778
 30
0.0
 11
238.29629383255613
 21
53.41259290618778
 31
0.0
  0
LINE
  5
100B5
330
1F
100
AcDbEntity
  8
0
100
AcDbLine
 10
238.29629383255613
 20
53.41259290618778
 30
0.0
 11
238.29629383255613
 21
56.97395654255141
 31
0.0
  0
LINE
  5
100B6
330
1F
100
AcDbEntity
  8
0
100
AcDbLine
 10
238.29629383255613
 20
56.97395654255141
 30
0.0
 11
240.03947565073793
 21
56.97395654255141
 31
0.0
  0
LINE
  5
100B7
330
1F
100
AcDbEntity
  8
0
100
AcDbLine
 10
229.06224983095632
 20
40.27365404242682
 30
0.0
 11
229.06224983095632
 21
36.71229040606318
 31
0.0
  0
LINE
  5
100B8
330
1F
100
AcDbEntity
  8
0
100
AcDbLine
 10
229.06224983095632
 20
36.71229040606318
 30
0.0
 11
227.3190680127745
 21
36.71229040606318
 31
0.0
  0
LINE
  5
100B9
330
1F
100
AcDbEntity
  8
0
100
AcDbLine
 10
227.3190680127745
 20
36.71229040606318
 30
0.0
 11
227.3190680127745
 21
40.27365404242682
 31
0.0
  0
LINE
  5
100BA
330
1F
100
AcDbEntity
  8
0
100
AcDbLine
 10
227.3190680127745
 20
40.27365404242682
 30
0.0
 11
229.06224983095632
 21
40.27365404242682
 31
0.0
  0
LINE
  5
100BB
330
1F
100
AcDbEntity
  8
0
100
AcDbLine
 10
221.4036792773259
 20
6.813312807237796
 30
0.0
 11
222.4036792773259
 21
6.813312807237796
 31
0.0
  0
LINE
  5
100BC
330
1F
100
AcDbEntity
  8
0
100
AcDbLine
 10
222.4036792773259
 20
6.813312807237796
 30
0.0
 11
222.4036792773259
 21
0.0
 31
0.0
  0
LINE
  5
100BD
330
1F
100
AcDbEntity
  8
0
100
AcDbLine
 10
222.4036792773259
 20
0.0
 30
0.0
 11
225.06584735186792
 21
0.0
 31
0.0
  0
LINE
  5
100BE
330
1F
100
AcDbEntity
  8
0
100
AcDbLine
 10
225.06584735186792
 20
0.0
 30
0.0
 11
225.06584735186792
 21
9.090909090909083
 31
0.0
  0
LINE
  5
100BF
330
1F
100
AcDbEntity
  8
0
100
AcDbLine
 10
225.06584735186792
 20
9.090909090909083
 30
0.0
 11
229.081756442777
 21
9.090909090909083
 31
0.0
  0
LINE
  5
100C0
330
1F
100
AcDbEntity
  8
0
100
AcDbLine
 10
229.081756442777
 20
9.090909090909083
 30
0.0
 11
229.081756442777
 21
0.0
 31
0.0
  0
LINE
  5
100C1
330
1F
100
AcDbEntity
  8
0
100
AcDbLine
 10
229.081756442777
 20
0.0
 30
0.0
 11
245.20595200459863
 21
0.0
 31
0.0
  0
LINE
  5
100C2
330
1F
100
AcDbEntity
  8
0
100
AcDbLine
 10
245.20595200459863
 20
0.0
 30
0.0
 11
245.20595200459863
 21
7.340017603129013
 31
0.0
  0
LINE
  5
100C3
330
1F
100
AcDbEntity
  8
0
100
AcDbLine
 10
245.20595200459863
 20
7.340017603129013
 30
0.0
 11
246.20595200459863
 21
7.340017603129013
 31
0.0
  0
LINE
  5
100C4
330
1F
100
AcDbEntity
  8
0
100
AcDbLine
 10
246.20595200459863
 20
7.340017603129013
 30
0.0
 11
246.20595200459863
 21
17.106385847527374
 31
0.0
  0
LINE
  5
100C5
330
1F
100
AcDbEntity
  8
0
100
AcDbLine
 10
246.20595200459863
 20
17.10638584752737
 30
0.0
 11
245.20595200459863
 21
17.10638584752737
 31
0.0
  0
LINE
  5
100C6
330
1F
100
AcDbEntity
  8
0
100
AcDbLine
 10
245.20595200459863
 20
17.10638584752737
 30
0.0
 11
245.20595200459863
 21
40.53999647066044
 31
0.0
  0
LINE
  5
100C7
330
1F
100
AcDbEntity
  8
0
100
AcDbLine
 10
245.20595200459863
 20
40.53999647066044
 30
0.0
 11
246.20595200459863
 21
40.53999647066044
 31
0.0
  0
LINE
  5
100C8
330
1F
100
AcDbEntity
  8
0
100
AcDbLine
 10
246.20595200459863
 20
40.53999647066044
 30
0.0
 11
246.20595200459863
 21
52.21184589031007
 31
0.0
  0
LINE
  5
100C9
330
1F
100
AcDbEntity
  8
0
100
AcDbLine
 10
246.20595200459863
 20
52.21184589031007
 30
0.0
 11
245.20595200459863
 21
52.21184589031007
 31
0.0
  0
LINE
  5
100CA
330
1F
100
AcDbEntity
  8
0
100
AcDbLine
 10
245.20595200459863
 20
52.21184589031007
 30
0.0
 11
245.20595200459863
 21
63.71136363636364
 31
0.0
  0
LINE
  5
100CB
330
1F
100
AcDbEntity
  8
0
100
AcDbLine
 10
245.20595200459863
 20
63.71136363636364
 30
0.0
 11
236.36724981237663
 21
63.71136363636364
 31
0.0
  0
LINE
  5
100CC
330
1F
100
AcDbEntity
  8
0
100
AcDbLine
 10
236.36724981237663
 20
63.71136363636364
 30
0.0
 11
236.36724981237663
 21
64.71136363636364
 31
0.0
  0
LINE
  5
100CD
330
1F
100
AcDbEntity
  8
0
100
AcDbLine
 10
236.36724981237663
 20
64.71136363636364
 30
0.0
 11
227.40546137984518
 21
64.71136363636364
 31
0.0
  0
LINE
  5
100CE
330
1F
100
AcDbEntity
  8
0
100
AcDbLine
 10
227.40546137984518
 20
64.71136363636364
 30
0.0
 11
227.40546137984518
 21
63.71136363636364
 31
0.0
  0
LINE
  5
100CF
330
1F
100
AcDbEntity
  8
0
100
AcDbLine
 10
227.40546137984518
 20
63.71136363636364
 30
0.0
 11
222.4036792773259
 21
63.71136363636364
 31
0.0
  0
LINE
  5
100D0
330
1F
100
AcDbEntity
  8
0
100
AcDbLine
 10
222.4036792773259
 20
63.71136363636364
 30
0.0
 11
222.4036792773259
 21
46.99670671041506
 31
0.0
  0
LINE
  5
100D1
330
1F
100
AcDbEntity
  8
0
100
AcDbLine
 10
222.4036792773259
 20
46.99670671041506
 30
0.0
 11
221.4036792773259
 21
46.99670671041506
 31
0.0
  0
LINE
  5
100D2
330
1F
100
AcDbEntity
  8
0
100
AcDbLine
 10
221.4036792773259
 20
46.99670671041506
 30
0.0
 11
221.4036792773259
 21
33.48845053002075
 31
0.0
  0
LINE
  5
100D3
330
1F
100
AcDbEntity
  8
0
100
AcDbLine
 10
221.4036792773259
 20
33.48845053002075
 30
0.0
 11
222.4036792773259
 21
33.48845053002075
 31
0.0
  0
LINE
  5
100D4
330
1F
100
AcDbEntity
  8
0
100
AcDbLine
 10
222.4036792773259
 20
33.48845053002075
 30
0.0
 11
222.4036792773259
 21
17.10638584752737
 31
0.0
  0
LINE
  5
100D5
330
1F
100
AcDbEntity
  8
0
100
AcDbLine
 10
222.4036792773259
 20
17.10638584752737
 30
0.0
 11
221.4036792773259
 21
17.10638584752737
 31
0.0
  0
LINE
  5
100D6
330
1F
100
AcDbEntity
  8
0
100
AcDbLine
 10
221.4036792773259
 20
17.10638584752737
 30
0.0
 11
221.4036792773259
 21
6.813312807237796
 31
0.0
  0
LINE
  5
100D7
330
1F
100
AcDbEntity
  8
0
100
AcDbLine
 10
266.2059523020062
 20
1.0000000000000018
 30
0.0
 11
270.4586775518196
 21
1.0000000000000018
 31
0.0
  0
LINE
  5
100D8
330
1F
100
AcDbEntity
  8
0
100
AcDbLine
 10
270.4586775518196
 20
1.0000000000000018
 30
0.0
 11
270.4586775518196
 21
0.0
 31
0.0
  0
LINE
  5
100D9
330
1F
100
AcDbEntity
  8
0
100
AcDbLine
 10
270.4586775518196
 20
0.0
 30
0.0
 11
275.7717473375964
 21
0.0
 31
0.0
  0
LINE
  5
100DA
330
1F
100
AcDbEntity
  8
0
100
AcDbLine
 10
275.7717473375964
 20
0.0
 30
0.0
 11
275.7717473375964
 21
1.0000000000000018
 31
0.0
  0
LINE
  5
100DB
330
1F
100
AcDbEntity
  8
0
100
AcDbLine
 10
275.7717473375964
 20
1.0000000000000018
 30
0.0
 11
285.75481552586047
 21
1.0000000000000018
 31
0.0
  0
LINE
  5
100DC
330
1F
100
AcDbEntity
  8
0
100
AcDbLine
 10
285.75481552586047
 20
1.0000000000000018
 30
0.0
 11
285.75481552586047
 21
0.0
 31
0.0
  0
LINE
  5
100DD
330
1F
100
AcDbEntity
  8
0
100
AcDbLine
 10
285.75481552586047
 20
0.0
 30
0.0
 11
290.16476983133094
 21
0.0
 31
0.0
  0
LINE
  5
100DE
330
1F
100
AcDbEntity
  8
0
100
AcDbLine
 10
290.16476983133094
 20
0.0
 30
0.0
 11
290.16476983133094
 21
1.0000000000000018
 31
0.0
  0
LINE
  5
100DF
330
1F
100
AcDbEntity
  8
0
100
AcDbLine
 10
290.16476983133094
 20
1.0000000000000018
 30
0.0
 11
298.2629649281034
 21
1.0000000000000018
 31
0.0
  0
LINE
  5
100E0
330
1F
100
AcDbEntity
  8
0
100
AcDbLine
 10
298.2629649281034
 20
1.0000000000000018
 30
0.0
 11
298.2629649281034
 21
0.0
 31
0.0
  0
LINE
  5
100E1
330
1F
100
AcDbEntity
  8
0
100
AcDbLine
 10
298.2629649281034
 20
0.0
 30
0.0
 11
303.33796492810336
 21
0.0
 31
0.0
  0
LINE
  5
100E2
330
1F
100
AcDbEntity
  8
0
100
AcDbLine
 10
303.33796492810336
 20
0.0
 30
0.0
 11
303.33796492810336
 21
1.0000000000000018
 31
0.0
  0
LINE
  5
100E3
330
1F
100
AcDbEntity
  8
0
100
AcDbLine
 10
303.33796492810336
 20
1.0000000000000018
 30
0.0
 11
309.1900429311223
 21
1.0000000000000018
 31
0.0
  0
LINE
  5
100E4
330
1F
100
AcDbEntity
  8
0
100
AcDbLine
 10
309.1900429311223
 20
1.0000000000000018
 30
0.0
 11
309.1900429311223
 21
2.4861344730462385
 31
0.0
  0
LINE
  5
100E5
330
1F
100
AcDbEntity
  8
0
100
AcDbLine
 10
309.1900429311223
 20
2.4861344730462385
 30
0.0
 11
308.1900429311223
 21
2.4861344730462385
 31
0.0
  0
LINE
  5
100E6
330
1F
100
AcDbEntity
  8
0
100
AcDbLine
 10
308.1900429311223
 20
2.4861344730462385
 30
0.0
 11
308.1900429311223
 21
4.411134473046237
 31
0.0
  0
LINE
  5
100E7
330
1F
100
AcDbEntity
  8
0
100
AcDbLine
 10
308.1900429311223
 20
4.411134473046237
 30
0.0
 11
309.1900429311223
 21
4.411134473046237
 31
0.0
  0
LINE
  5
100E8
330
1F
100
AcDbEntity
  8
0
100
AcDbLine
 10
309.1900429311223
 20
4.411134473046237
 30
0.0
 11
309.1900429311223
 21
13.39742071313824
 31
0.0
  0
LINE
  5
100E9
330
1F
100
AcDbEntity
  8
0
100
AcDbLine
 10
309.1900429311223
 20
13.39742071313824
 30
0.0
 11
308.1900429311223
 21
13.39742071313824
 31
0.0
  0
LINE
  5
100EA
330
1F
100
AcDbEntity
  8
0
100
AcDbLine
 10
308.1900429311223
 20
13.39742071313824
 30
0.0
 11
308.1900429311223
 21
15.32242071313824
 31
0.0
  0
LINE
  5
100EB
330
1F
100
AcDbEntity
  8
0
100
AcDbLine
 10
308.1900429311223
 20
15.32242071313824
 30
0.0
 11
309.1900429311223
 21
15.32242071313824
 31
0.0
  0
LINE
  5
100EC
330
1F
100
AcDbEntity
  8
0
100
AcDbLine
 10
309.1900429311223
 20
15.32242071313824
 30
0.0
 11
309.1900429311223
 21
15.984090909090916
 31
0.0
  0
LINE
  5
100ED
330
1F
100
AcDbEntity
  8
0
100
AcDbLine
 10
309.1900429311223
 20
15.984090909090916
 30
0.0
 11
293.8018299583245
 21
15.984090909090916
 31
0.0
  0
LINE
  5
100EE
330
1F
100
AcDbEntity
  8
0
100
AcDbLine
 10
293.8018299583245
 20
15.984090909090916
 30
0.0
 11
293.8018299583245
 21
16.984090909090913
 31
0.0
  0
LINE
  5
100EF
330
1F
100
AcDbEntity
  8
0
100
AcDbLine
 10
293.8018299583245
 20
16.984090909090913
 30
0.0
 11
280.98410476837967
 21
16.984090909090913
 31
0.0
  0
LINE
  5
100F0
330
1F
100
AcDbEntity
  8
0
100
AcDbLine
 10
280.98410476837967
 20
16.984090909090913
 30
0.0
 11
280.98410476837967
 21
15.984090909090916
 31
0.0
  0
LINE
  5
100F1
330
1F
100
AcDbEntity
  8
0
100
AcDbLine
 10
280.98410476837967
 20
15.984090909090916
 30
0.0
 11
266.2059523121914
 21
15.984090909090916
 31
0.0
  0
LINE
  5
100F2
330
1F
100
AcDbEntity
  8
0
100
AcDbLine
 10
266.2059523121914
 20
15.984090909090916
 30
0.0
 11
266.20595200459866
 21
15.32242071313824
 31
0.0
  0
LINE
  5
100F3
330
1F
100
AcDbEntity
  8
0
100
AcDbLine
 10
266.20595200459866
 20
15.32242071313824
 30
0.0
 11
267.2059520220314
 21
15.32242071313824
 31
0.0
  0
LINE
  5
100F4
330
1F
100
AcDbEntity
  8
0
100
AcDbLine
 10
267.2059520220314
 20
15.32242071313824
 30
0.0
 11
267.2059520220314
 21
13.39742071313824
 31
0.0
  0
LINE
  5
100F5
330
1F
100
AcDbEntity
  8
0
100
AcDbLine
 10
267.2059520220314
 20
13.39742071313824
 30
0.0
 11
266.2059520220314
 21
13.39742071313824
 31
0.0
  0
LINE
  5
100F6
330
1F
100
AcDbEntity
  8
0
100
AcDbLine
 10
266.2059520220314
 20
13.39742071313824
 30
0.0
 11
266.2059520220314
 21
4.411134473046237
 31
0.0
  0
LINE
  5
100F7
330
1F
100
AcDbEntity
  8
0
100
AcDbLine
 10
266.2059520220314
 20
4.411134473046237
 30
0.0
 11
267.2059520220314
 21
4.411134473046237
 31
0.0
  0
LINE
  5
100F8
330
1F
100
AcDbEntity
  8
0
100
AcDbLine
 10
267.2059520220314
 20
4.411134473046237
 30
0.0
 11
267.2059520220314
 21
2.4861344730462385
 31
0.0
  0
LINE
  5
100F9
330
1F
100
AcDbEntity
  8
0
100
AcDbLine
 10
267.2059520220314
 20
2.4861344730462385
 30
0.0
 11
266.20595201478386
 21
2.4861344730462385
 31
0.0
  0
LINE
  5
100FA
330
1F
100
AcDbEntity
  8
0
100
AcDbLine
 10
266.20595201478386
 20
2.4861344730462385
 30
0.0
 11
266.2059523020062
 21
1.0000000000000018
 31
0.0
  0
LINE
  5
100FB
330
1F
100
AcDbEntity
  8
0
100
AcDbLine
 10
307.2968611129405
 20
12.363636363636378
 30
0.0
 11
307.2968611129405
 21
5.620454545454546
 31
0.0
  0
LINE
  5
100FC
330
1F
100
AcDbEntity
  8
0
100
AcDbLine
 10
307.2968611129405
 20
5.620454545454546
 30
0.0
 11
300.3173157129405
 21
5.620454545454546
 31
0.0
  0
LINE
  5
100FD
330
1F
100
AcDbEntity
  8
0
100
AcDbLine
 10
300.3173157129405
 20
5.620454545454546
 30
0.0
 11
300.3173157129405
 21
12.363636363636378
 31
0.0
  0
LINE
  5
100FE
330
1F
100
AcDbEntity
  8
0
100
AcDbLine
 10
300.3173157129405
 20
12.363636363636378
 30
0.0
 11
307.2968611129405
 21
12.363636363636378
 31
0.0
  0
LINE
  5
100FF
330
1F
100
AcDbEntity
  8
0
100
AcDbLine
 10
275.0786795129405
 20
5.620454545454546
 30
0.0
 11
268.0991341129405
 21
5.620454545454546
 31
0.0
  0
LINE
  5
10100
330
1F
100
AcDbEntity
  8
0
100
AcDbLine
 10
268.0991341129405
 20
5.620454545454546
 30
0.0
 11
268.0991341129405
 21
12.36363636363636
 31
0.0
  0
LINE
  5
10101
330
1F
100
AcDbEntity
  8
0
100
AcDbLine
 10
268.0991341129405
 20
12.36363636363636
 30
0.0
 11
275.0786795129405
 21
12.363636363636369
 31
0.0
  0
LINE
  5
10102
330
1F
100
AcDbEntity
  8
0
100
AcDbLine
 10
275.0786795129405
 20
12.363636363636369
 30
0.0
 11
275.0786795129405
 21
5.620454545454546
 31
0.0
  0
LINE
  5
10103
330
1F
100
AcDbEntity
  8
0
100
AcDbLine
 10
299.24231571294047
 20
12.363636363636378
 30
0.0
 11
299.24231571294047
 21
5.620454545454546
 31
0.0
  0
LINE
  5
10104
330
1F
100
AcDbEntity
  8
0
100
AcDbLine
 10
299.24231571294047
 20
5.620454545454546
 30
0.0
 11
292.2627703129405
 21
5.620454545454546
 31
0.0
  0
LINE
  5
10105
330
1F
100
AcDbEntity
  8
0
100
AcDbLine
 10
292.2627703129405
 20
5.620454545454546
 30
0.0
 11
292.2627703129405
 21
12.363636363636369
 31
0.0
  0
LINE
  5
10106
330
1F
100
AcDbEntity
  8
0
100
AcDbLine
 10
292.2627703129405
 20
12.363636363636369
 30
0.0
 11
299.24231571294047
 21
12.363636363636378
 31
0.0
  0
LINE
  5
10107
330
1F
100
AcDbEntity
  8
0
100
AcDbLine
 10
284.2082249129405
 20
5.620454545454546
 30
0.0
 11
284.2082249129405
 21
12.363636363636369
 31
0.0
  0
LINE
  5
10108
330
1F
100
AcDbEntity
  8
0
100
AcDbLine
 10
284.2082249129405
 20
12.363636363636369
 30
0.0
 11
291.1877703129405
 21
12.363636363636369
 31
0.0
  0
LINE
  5
10109
330
1F
100
AcDbEntity
  8
0
100
AcDbLine
 10
291.1877703129405
 20
12.363636363636369
 30
0.0
 11
291.1877703129405
 21
5.620454545454546
 31
0.0
  0
LINE
  5
1010A
330
1F
100
AcDbEntity
  8
0
100
AcDbLine
 10
291.1877703129405
 20
5.620454545454546
 30
0.0
 11
284.2082249129405
 21
5.620454545454546
 31
0.0
  0
LINE
  5
1010B
330
1F
100
AcDbEntity
  8
0
100
AcDbLine
 10
283.1332249129405
 20
5.620454545454546
 30
0.0
 11
276.15367951294047
 21
5.620454545454546
 31
0.0
  0
LINE
  5
1010C
330
1F
100
AcDbEntity
  8
0
100
AcDbLine
 10
276.15367951294047
 20
5.620454545454546
 30
0.0
 11
276.15367951294047
 21
12.363636363636369
 31
0.0
  0
LINE
  5
1010D
330
1F
100
AcDbEntity
  8
0
100
AcDbLine
 10
276.15367951294047
 20
12.363636363636369
 30
0.0
 11
283.1332249129405
 21
12.363636363636369
 31
0.0
  0
LINE
  5
1010E
330
1F
100
AcDbEntity
  8
0
100
AcDbLine
 10
283.1332249129405
 20
12.363636363636369
 30
0.0
 11
283.1332249129405
 21
5.620454545454546
 31
0.0
  0
LINE
  5
1010F
330
1F
100
AcDbEntity
  8
0
100
AcDbLine
 10
303.98679350030966
 20
14.256818181818188
 30
0.0
 11
300.06179350030965
 21
14.256818181818188
 31
0.0
  0
LINE
  5
10110
330
1F
100
AcDbEntity
  8
0
100
AcDbLine
 10
300.06179350030965
 20
14.256818181818188
 30
0.0
 11
300.06179350030965
 21
15.181818181818182
 31
0.0
  0
LINE
  5
10111
330
1F
100
AcDbEntity
  8
0
100
AcDbLine
 10
300.06179350030965
 20
15.181818181818182
 30
0.0
 11
303.98679350030966
 21
15.181818181818182
 31
0.0
  0
LINE
  5
10112
330
1F
100
AcDbEntity
  8
0
100
AcDbLine
 10
303.98679350030966
 20
15.181818181818182
 30
0.0
 11
303.98679350030966
 21
14.256818181818188
 31
0.0
  0
LINE
  5
10113
330
1F
100
AcDbEntity
  8
0
100
AcDbLine
 10
288.75549761680395
 20
15.181818181818182
 30
0.0
 11
288.75549761680395
 21
14.256818181818188
 31
0.0
  0
LINE
  5
10114
330
1F
100
AcDbEntity
  8
0
100
AcDbLine
 10
288.75549761680395
 20
14.256818181818188
 30
0.0
 11
284.538787192283
 21
14.256818181818188
 31
0.0
  0
LINE
  5
10115
330
1F
100
AcDbEntity
  8
0
100
AcDbLine
 10
284.538787192283
 20
14.256818181818188
 30
0.0
 11
284.538787192283
 21
15.181818181818182
 31
0.0
  0
LINE
  5
10116
330
1F
100
AcDbEntity
  8
0
100
AcDbLine
 10
284.538787192283
 20
15.181818181818182
 30
0.0
 11
288.75549761680395
 21
15.181818181818182
 31
0.0
  0
LINE
  5
10117
330
1F
100
AcDbEntity
  8
0
100
AcDbLine
 10
275.5239233886049
 20
14.256818181818188
 30
0.0
 11
271.5989233886049
 21
14.256818181818188
 31
0.0
  0
LINE
  5
10118
330
1F
100
AcDbEntity
  8
0
100
AcDbLine
 10
271.5989233886049
 20
14.256818181818188
 30
0.0
 11
271.5989233886049
 21
15.181818181818182
 31
0.0
  0
LINE
  5
10119
330
1F
100
AcDbEntity
  8
0
100
AcDbLine
 10
271.5989233886049
 20
15.181818181818182
 30
0.0
 11
275.5239233886049
 21
15.181818181818182
 31
0.0
  0
LINE
  5
1011A
330
1F
100
AcDbEntity
  8
0
100
AcDbLine
 10
275.5239233886049
 20
15.181818181818182
 30
0.0
 11
275.5239233886049
 21
14.256818181818188
 31
0.0
  0
LINE
  5
1011B
330
1F
100
AcDbEntity
  8
0
100
AcDbLine
 10
342.08391676489606
 20
16.984090909090913
 30
0.0
 11
335.6780697200775
 21
16.984090909090913
 31
0.0
  0
LINE
  5
1011C
330
1F
100
AcDbEntity
  8
0
100
AcDbLine
 10
335.6780697200775
 20
16.984090909090913
 30
0.0
 11
335.6780697200775
 21
15.984090909090911
 31
0.0
  0
LINE
  5
1011D
330
1F
100
AcDbEntity
  8
0
100
AcDbLine
 10
335.6780697200775
 20
15.984090909090911
 30
0.0
 11
329.19004322852993
 21
15.984090909090911
 31
0.0
  0
LINE
  5
1011E
330
1F
100
AcDbEntity
  8
0
100
AcDbLine
 10
329.19004322852993
 20
15.984090909090911
 30
0.0
 11
329.1900429413075
 21
14.497956436044674
 31
0.0
  0
LINE
  5
1011F
330
1F
100
AcDbEntity
  8
0
100
AcDbLine
 10
329.1900429413075
 20
14.497956436044674
 30
0.0
 11
330.19004294855506
 21
14.497956436044674
 31
0.0
  0
LINE
  5
10120
330
1F
100
AcDbEntity
  8
0
100
AcDbLine
 10
330.19004294855506
 20
14.497956436044674
 30
0.0
 11
330.19004294855506
 21
12.572956436044675
 31
0.0
  0
LINE
  5
10121
330
1F
100
AcDbEntity
  8
0
100
AcDbLine
 10
330.19004294855506
 20
12.572956436044675
 30
0.0
 11
329.19004294855506
 21
12.572956436044675
 31
0.0
  0
LINE
  5
10122
330
1F
100
AcDbEntity
  8
0
100
AcDbLine
 10
329.19004294855506
 20
12.572956436044675
 30
0.0
 11
329.19004294855506
 21
3.5866701959526726
 31
0.0
  0
LINE
  5
10123
330
1F
100
AcDbEntity
  8
0
100
AcDbLine
 10
329.19004294855506
 20
3.5866701959526726
 30
0.0
 11
330.19004294855506
 21
3.5866701959526726
 31
0.0
  0
LINE
  5
10124
330
1F
100
AcDbEntity
  8
0
100
AcDbLine
 10
330.19004294855506
 20
3.5866701959526726
 30
0.0
 11
330.19004294855506
 21
1.6616701959526736
 31
0.0
  0
LINE
  5
10125
330
1F
100
AcDbEntity
  8
0
100
AcDbLine
 10
330.19004294855506
 20
1.6616701959526736
 30
0.0
 11
329.1900429311223
 21
1.6616701959526736
 31
0.0
  0
LINE
  5
10126
330
1F
100
AcDbEntity
  8
0
100
AcDbLine
 10
329.1900429311223
 20
1.6616701959526736
 30
0.0
 11
329.1900432387151
 21
0.9999999999999964
 31
0.0
  0
LINE
  5
10127
330
1F
100
AcDbEntity
  8
0
100
AcDbLine
 10
329.1900432387151
 20
0.9999999999999964
 30
0.0
 11
339.98609407304554
 21
0.9999999999999964
 31
0.0
  0
LINE
  5
10128
330
1F
100
AcDbEntity
  8
0
100
AcDbLine
 10
339.98609407304554
 20
0.9999999999999964
 30
0.0
 11
339.98609407304554
 21
0.0
 31
0.0
  0
LINE
  5
10129
330
1F
100
AcDbEntity
  8
0
100
AcDbLine
 10
339.98609407304554
 20
0.0
 30
0.0
 11
356.78592088484817
 21
0.0
 31
0.0
  0
LINE
  5
1012A
330
1F
100
AcDbEntity
  8
0
100
AcDbLine
 10
356.78592088484817
 20
0.0
 30
0.0
 11
356.78592088484817
 21
0.9999999999999964
 31
0.0
  0
LINE
  5
1012B
330
1F
100
AcDbEntity
  8
0
100
AcDbLine
 10
356.78592088484817
 20
0.9999999999999964
 30
0.0
 11
372.174133857646
 21
0.9999999999999964
 31
0.0
  0
LINE
  5
1012C
330
1F
100
AcDbEntity
  8
0
100
AcDbLine
 10
372.174133857646
 20
0.9999999999999964
 30
0.0
 11
372.174133857646
 21
1.6616701959526736
 31
0.0
  0
LINE
  5
1012D
330
1F
100
AcDbEntity
  8
0
100
AcDbLine
 10
372.174133857646
 20
1.6616701959526736
 30
0.0
 11
371.174133857646
 21
1.6616701959526736
 31
0.0
  0
LINE
  5
1012E
330
1F
100
AcDbEntity
  8
0
100
AcDbLine
 10
371.174133857646
 20
1.6616701959526736
 30
0.0
 11
371.174133857646
 21
3.5866701959526726
 31
0.0
  0
LINE
  5
1012F
330
1F
100
AcDbEntity
  8
0
100
AcDbLine
 10
371.174133857646
 20
3.5866701959526726
 30
0.0
 11
372.174133857646
 21
3.5866701959526726
 31
0.0
  0
LINE
  5
10130
330
1F
100
AcDbEntity
  8
0
100
AcDbLine
 10
372.174133857646
 20
3.5866701959526726
 30
0.0
 11
372.174133857646
 21
12.572956436044675
 31
0.0
  0
LINE
  5
10131
330
1F
100
AcDbEntity
  8
0
100
AcDbLine
 10
372.174133857646
 20
12.572956436044675
 30
0.0
 11
371.174133857646
 21
12.572956436044675
 31
0.0
  0
LINE
  5
10132
330
1F
100
AcDbEntity
  8
0
100
AcDbLine
 10
371.174133857646
 20
12.572956436044675
 30
0.0
 11
371.174133857646
 21
14.497956436044674
 31
0.0
  0
LINE
  5
10133
330
1F
100
AcDbEntity
  8
0
100
AcDbLine
 10
371.174133857646
 20
14.497956436044674
 30
0.0
 11
372.174133857646
 21
14.497956436044674
 31
0.0
  0
LINE
  5
10134
330
1F
100
AcDbEntity
  8
0
100
AcDbLine
 10
372.174133857646
 20
14.497956436044674
 30
0.0
 11
372.174133857646
 21
15.984090909090911
 31
0.0
  0
LINE
  5
10135
330
1F
100
AcDbEntity
  8
0
100
AcDbLine
 10
372.174133857646
 20
15.984090909090911
 30
0.0
 11
362.2582532096249
 21
15.984090909090911
 31
0.0
  0
LINE
  5
10136
330
1F
100
AcDbEntity
  8
0
100
AcDbLine
 10
362.2582532096249
 20
15.984090909090911
 30
0.0
 11
362.2582532096249
 21
16.984090909090913
 31
0.0
  0
LINE
  5
10137
330
1F
100
AcDbEntity
  8
0
100
AcDbLine
 10
362.2582532096249
 20
16.984090909090913
 30
0.0
 11
355.35437355360125
 21
16.984090909090913
 31
0.0
  0
LINE
  5
10138
330
1F
100
AcDbEntity
  8
0
100
AcDbLine
 10
355.35437355360125
 20
16.984090909090913
 30
0.0
 11
355.35437355360125
 21
15.984090909090911
 31
0.0
  0
LINE
  5
10139
330
1F
100
AcDbEntity
  8
0
100
AcDbLine
 10
355.35437355360125
 20
15.984090909090911
 30
0.0
 11
342.08391676489606
 21
15.984090909090911
 31
0.0
  0
LINE
  5
1013A
330
1F
100
AcDbEntity
  8
0
100
AcDbLine
 10
342.08391676489606
 20
15.984090909090911
 30
0.0
 11
342.08391676489606
 21
16.984090909090913
 31
0.0
  0
LINE
  5
1013B
330
1F
100
AcDbEntity
  8
0
100
AcDbLine
 10
351.55367944855504
 20
8.72727272727273
 30
0.0
 11
351.55367944855504
 21
6.529545454545458
 31
0.0
  0
LINE
  5
1013C
330
1F
100
AcDbEntity
  8
0
100
AcDbLine
 10
351.55367944855504
 20
6.529545454545458
 30
0.0
 11
349.8104976303733
 21
6.529545454545458
 31
0.0
  0
LINE
  5
1013D
330
1F
100
AcDbEntity
  8
0
100
AcDbLine
 10
349.8104976303733
 20
6.529545454545458
 30
0.0
 11
349.8104976303733
 21
8.72727272727273
 31
0.0
  0
LINE
  5
1013E
330
1F
100
AcDbEntity
  8
0
100
AcDbLine
 10
349.8104976303733
 20
8.72727272727273
 30
0.0
 11
351.55367944855504
 21
8.72727272727273
 31
0.0
  0
LINE
  5
1013F
330
1F
100
AcDbEntity
  8
0
100
AcDbLine
 10
336.0991339940096
 20
6.529545454545458
 30
0.0
 11
334.3559521758278
 21
6.529545454545458
 31
0.0
  0
LINE
  5
10140
330
1F
100
AcDbEntity
  8
0
100
AcDbLine
 10
334.3559521758278
 20
6.529545454545458
 30
0.0
 11
334.3559521758278
 21
8.72727272727273
 31
0.0
  0
LINE
  5
10141
330
1F
100
AcDbEntity
  8
0
100
AcDbLine
 10
334.3559521758278
 20
8.72727272727273
 30
0.0
 11
336.0991339940096
 21
8.72727272727273
 31
0.0
  0
LINE
  5
10142
330
1F
100
AcDbEntity
  8
0
100
AcDbLine
 10
336.0991339940096
 20
8.72727272727273
 30
0.0
 11
336.0991339940096
 21
6.529545454545458
 31
0.0
  0
LINE
  5
10143
330
1F
100
AcDbEntity
  8
0
100
AcDbLine
 10
367.00822490310054
 20
8.72727272727273
 30
0.0
 11
367.00822490310054
 21
6.529545454545458
 31
0.0
  0
LINE
  5
10144
330
1F
100
AcDbEntity
  8
0
100
AcDbLine
 10
367.00822490310054
 20
6.529545454545458
 30
0.0
 11
365.2650430849187
 21
6.529545454545458
 31
0.0
  0
LINE
  5
10145
330
1F
100
AcDbEntity
  8
0
100
AcDbLine
 10
365.2650430849187
 20
6.529545454545458
 30
0.0
 11
365.2650430849187
 21
8.72727272727273
 31
0.0
  0
LINE
  5
10146
330
1F
100
AcDbEntity
  8
0
100
AcDbLine
 10
365.2650430849187
 20
8.72727272727273
 30
0.0
 11
367.00822490310054
 21
8.72727272727273
 31
0.0
  0
LINE
  5
10147
330
1F
100
AcDbEntity
  8
0
100
AcDbLine
 10
393.174133857646
 20
7.3827134948103605
 30
0.0
 11
393.174133857646
 21
1.0000000000000036
 31
0.0
  0
LINE
  5
10148
330
1F
100
AcDbEntity
  8
0
100
AcDbLine
 10
393.174133857646
 20
1.0000000000000036
 30
0.0
 11
399.19112074890427
 21
1.0000000000000036
 31
0.0
  0
LINE
  5
10149
330
1F
100
AcDbEntity
  8
0
100
AcDbLine
 10
399.19112074890427
 20
1.0000000000000036
 30
0.0
 11
399.19112074890427
 21
0.0
 31
0.0
  0
LINE
  5
1014A
330
1F
100
AcDbEntity
  8
0
100
AcDbLine
 10
399.19112074890427
 20
0.0
 30
0.0
 11
406.5829215092983
 21
0.0
 31
0.0
  0
LINE
  5
1014B
330
1F
100
AcDbEntity
  8
0
100
AcDbLine
 10
406.5829215092983
 20
0.0
 30
0.0
 11
406.5829215092983
 21
1.0000000000000036
 31
0.0
  0
LINE
  5
1014C
330
1F
100
AcDbEntity
  8
0
100
AcDbLine
 10
406.5829215092983
 20
1.0000000000000036
 30
0.0
 11
415.9764065849187
 21
1.0000000000000036
 31
0.0
  0
LINE
  5
1014D
330
1F
100
AcDbEntity
  8
0
100
AcDbLine
 10
415.9764065849187
 20
1.0000000000000036
 30
0.0
 11
415.9764065849187
 21
7.3827134948103605
 31
0.0
  0
LINE
  5
1014E
330
1F
100
AcDbEntity
  8
0
100
AcDbLine
 10
415.9764065849187
 20
7.3827134948103605
 30
0.0
 11
416.97640658491866
 21
7.3827134948103605
 31
0.0
  0
LINE
  5
1014F
330
1F
100
AcDbEntity
  8
0
100
AcDbLine
 10
416.97640658491866
 20
7.3827134948103605
 30
0.0
 11
416.97640658491866
 21
14.042136391811972
 31
0.0
  0
LINE
  5
10150
330
1F
100
AcDbEntity
  8
0
100
AcDbLine
 10
416.97640658491866
 20
14.042136391811972
 30
0.0
 11
415.9764065849187
 21
14.042136391811972
 31
0.0
  0
LINE
  5
10151
330
1F
100
AcDbEntity
  8
0
100
AcDbLine
 10
415.9764065849187
 20
14.042136391811972
 30
0.0
 11
415.9764065849187
 21
27.720476517159828
 31
0.0
  0
LINE
  5
10152
330
1F
100
AcDbEntity
  8
0
100
AcDbLine
 10
415.9764065849187
 20
27.720476517159828
 30
0.0
 11
416.97640658491866
 21
27.720476517159828
 31
0.0
  0
LINE
  5
10153
330
1F
100
AcDbEntity
  8
0
100
AcDbLine
 10
416.97640658491866
 20
27.720476517159828
 30
0.0
 11
416.97640658491866
 21
33.66698330019203
 31
0.0
  0
LINE
  5
10154
330
1F
100
AcDbEntity
  8
0
100
AcDbLine
 10
416.97640658491866
 20
33.66698330019203
 30
0.0
 11
415.9764065849187
 21
33.66698330019203
 31
0.0
  0
LINE
  5
10155
330
1F
100
AcDbEntity
  8
0
100
AcDbLine
 10
415.9764065849187
 20
33.66698330019203
 30
0.0
 11
415.9764065849187
 21
52.09833956810171
 31
0.0
  0
LINE
  5
10156
330
1F
100
AcDbEntity
  8
0
100
AcDbLine
 10
415.9764065849187
 20
52.09833956810171
 30
0.0
 11
416.97640658491866
 21
52.09833956810171
 31
0.0
  0
LINE
  5
10157
330
1F
100
AcDbEntity
  8
0
100
AcDbLine
 10
416.97640658491866
 20
52.09833956810171
 30
0.0
 11
416.97640658491866
 21
58.24698818469112
 31
0.0
  0
LINE
  5
10158
330
1F
100
AcDbEntity
  8
0
100
AcDbLine
 10
416.97640658491866
 20
58.24698818469112
 30
0.0
 11
415.9764065849187
 21
58.24698818469112
 31
0.0
  0
LINE
  5
10159
330
1F
100
AcDbEntity
  8
0
100
AcDbLine
 10
415.9764065849187
 20
58.24698818469112
 30
0.0
 11
415.9764065849187
 21
64.71136363636373
 31
0.0
  0
LINE
  5
1015A
330
1F
100
AcDbEntity
  8
0
100
AcDbLine
 10
415.9764065849187
 20
64.71136363636373
 30
0.0
 11
393.174133857646
 21
64.71136363636373
 31
0.0
  0
LINE
  5
1015B
330
1F
100
AcDbEntity
  8
0
100
AcDbLine
 10
393.174133857646
 20
64.71136363636373
 30
0.0
 11
393.174133857646
 21
58.24698818469112
 31
0.0
  0
LINE
  5
1015C
330
1F
100
AcDbEntity
  8
0
100
AcDbLine
 10
393.174133857646
 20
58.24698818469112
 30
0.0
 11
392.174133857646
 21
58.24698818469112
 31
0.0
  0
LINE
  5
1015D
330
1F
100
AcDbEntity
  8
0
100
AcDbLine
 10
392.174133857646
 20
58.24698818469112
 30
0.0
 11
392.174133857646
 21
52.09833956810171
 31
0.0
  0
LINE
  5
1015E
330
1F
100
AcDbEntity
  8
0
100
AcDbLine
 10
392.174133857646
 20
52.09833956810171
 30
0.0
 11
393.174133857646
 21
52.09833956810171
 31
0.0
  0
LINE
  5
1015F
330
1F
100
AcDbEntity
  8
0
100
AcDbLine
 10
393.174133857646
 20
52.09833956810171
 30
0.0
 11
393.174133857646
 21
33.52088737138165
 31
0.0
  0
LINE
  5
10160
330
1F
100
AcDbEntity
  8
0
100
AcDbLine
 10
393.174133857646
 20
33.52088737138165
 30
0.0
 11
392.174133857646
 21
33.52088737138165
 31
0.0
  0
LINE
  5
10161
330
1F
100
AcDbEntity
  8
0
100
AcDbLine
 10
392.174133857646
 20
33.52088737138165
 30
0.0
 11
392.174133857646
 21
27.268822149234268
 31
0.0
  0
LINE
  5
10162
330
1F
100
AcDbEntity
  8
0
100
AcDbLine
 10
392.174133857646
 20
27.268822149234268
 30
0.0
 11
393.174133857646
 21
27.268822149234268
 31
0.0
  0
LINE
  5
10163
330
1F
100
AcDbEntity
  8
0
100
AcDbLine
 10
393.174133857646
 20
27.268822149234268
 30
0.0
 11
393.174133857646
 21
14.042136391811972
 31
0.0
  0
LINE
  5
10164
330
1F
100
AcDbEntity
  8
0
100
AcDbLine
 10
393.174133857646
 20
14.042136391811972
 30
0.0
 11
392.174133857646
 21
14.042136391811972
 31
0.0
  0
LINE
  5
10165
330
1F
100
AcDbEntity
  8
0
100
AcDbLine
 10
392.174133857646
 20
14.042136391811972
 30
0.0
 11
392.174133857646
 21
7.3827134948103605
 31
0.0
  0
LINE
  5
10166
330
1F
100
AcDbEntity
  8
0
100
AcDbLine
 10
392.174133857646
 20
7.3827134948103605
 30
0.0
 11
393.174133857646
 21
7.3827134948103605
 31
0.0
  0
LINE
  5
10167
330
1F
100
AcDbEntity
  8
0
100
AcDbLine
 10
452.96049749400964
 20
17.393800534300762
 30
0.0
 11
452.96049749400964
 21
25.893181818181816
 31
0.0
  0
LINE
  5
10168
330
1F
100
AcDbEntity
  8
0
100
AcDbLine
 10
452.96049749400964
 20
25.893181818181816
 30
0.0
 11
451.5493630209634
 21
25.893181818181816
 31
0.0
  0
LINE
  5
10169
330
1F
100
AcDbEntity
  8
0
100
AcDbLine
 10
451.5493630209634
 20
25.893181818181816
 30
0.0
 11
451.5493630209634
 21
26.89318181818182
 31
0.0
  0
LINE
  5
1016A
330
1F
100
AcDbEntity
  8
0
100
AcDbLine
 10
451.5493630209634
 20
26.89318181818182
 30
0.0
 11
449.4743630209634
 21
26.89318181818182
 31
0.0
  0
LINE
  5
1016B
330
1F
100
AcDbEntity
  8
0
100
AcDbLine
 10
449.4743630209634
 20
26.89318181818182
 30
0.0
 11
449.4743630209634
 21
25.893181818181816
 31
0.0
  0
LINE
  5
1016C
330
1F
100
AcDbEntity
  8
0
100
AcDbLine
 10
449.4743630209634
 20
25.893181818181816
 30
0.0
 11
440.6380767808714
 21
25.893181818181816
 31
0.0
  0
LINE
  5
1016D
330
1F
100
AcDbEntity
  8
0
100
AcDbLine
 10
440.6380767808714
 20
25.893181818181816
 30
0.0
 11
440.6380767808714
 21
26.89318181818182
 31
0.0
  0
LINE
  5
1016E
330
1F
100
AcDbEntity
  8
0
100
AcDbLine
 10
440.6380767808714
 20
26.89318181818182
 30
0.0
 11
438.56307678087137
 21
26.89318181818182
 31
0.0
  0
LINE
  5
1016F
330
1F
100
AcDbEntity
  8
0
100
AcDbLine
 10
438.56307678087137
 20
26.89318181818182
 30
0.0
 11
438.56307678087137
 21
25.893181818181816
 31
0.0
  0
LINE
  5
10170
330
1F
100
AcDbEntity
  8
0
100
AcDbLine
 10
438.56307678087137
 20
25.893181818181816
 30
0.0
 11
437.9764065849187
 21
25.893181818181816
 31
0.0
  0
LINE
  5
10171
330
1F
100
AcDbEntity
  8
0
100
AcDbLine
 10
437.9764065849187
 20
25.893181818181816
 30
0.0
 11
437.9764065849187
 21
18.39282987618415
 31
0.0
  0
LINE
  5
10172
330
1F
100
AcDbEntity
  8
0
100
AcDbLine
 10
437.9764065849187
 20
18.39282987618415
 30
0.0
 11
436.9764065849187
 21
18.39282987618415
 31
0.0
  0
LINE
  5
10173
330
1F
100
AcDbEntity
  8
0
100
AcDbLine
 10
436.9764065849187
 20
18.39282987618415
 30
0.0
 11
436.9764065849187
 21
8.46212836208619
 31
0.0
  0
LINE
  5
10174
330
1F
100
AcDbEntity
  8
0
100
AcDbLine
 10
436.9764065849187
 20
8.46212836208619
 30
0.0
 11
437.9764065849187
 21
8.46212836208619
 31
0.0
  0
LINE
  5
10175
330
1F
100
AcDbEntity
  8
0
100
AcDbLine
 10
437.9764065849187
 20
8.46212836208619
 30
0.0
 11
437.9764065849187
 21
1.0000000000000018
 31
0.0
  0
LINE
  5
10176
330
1F
100
AcDbEntity
  8
0
100
AcDbLine
 10
437.9764065849187
 20
1.0000000000000018
 30
0.0
 11
438.56307678087137
 21
1.0000000000000018
 31
0.0
  0
LINE
  5
10177
330
1F
100
AcDbEntity
  8
0
100
AcDbLine
 10
438.56307678087137
 20
1.0000000000000018
 30
0.0
 11
438.56307678087137
 21
0.0
 31
0.0
  0
LINE
  5
10178
330
1F
100
AcDbEntity
  8
0
100
AcDbLine
 10
438.56307678087137
 20
0.0
 30
0.0
 11
440.6380767808714
 21
0.0
 31
0.0
  0
LINE
  5
10179
330
1F
100
AcDbEntity
  8
0
100
AcDbLine
 10
440.6380767808714
 20
0.0
 30
0.0
 11
440.6380767808714
 21
1.0000000000000018
 31
0.0
  0
LINE
  5
1017A
330
1F
100
AcDbEntity
  8
0
100
AcDbLine
 10
440.6380767808714
 20
1.0000000000000018
 30
0.0
 11
449.4743630209634
 21
0.9999999999999876
 31
0.0
  0
LINE
  5
1017B
330
1F
100
AcDbEntity
  8
0
100
AcDbLine
 10
449.4743630209634
 20
0.9999999999999876
 30
0.0
 11
449.4743630209634
 21
0.0
 31
0.0
  0
LINE
  5
1017C
330
1F
100
AcDbEntity
  8
0
100
AcDbLine
 10
449.4743630209634
 20
0.0
 30
0.0
 11
451.5493630209634
 21
0.0
 31
0.0
  0
LINE
  5
1017D
330
1F
100
AcDbEntity
  8
0
100
AcDbLine
 10
451.5493630209634
 20
0.0
 30
0.0
 11
451.5493630209634
 21
1.0000000000000018
 31
0.0
  0
LINE
  5
1017E
330
1F
100
AcDbEntity
  8
0
100
AcDbLine
 10
451.5493630209634
 20
1.0000000000000018
 30
0.0
 11
452.96049749400964
 21
1.0000000000000018
 31
0.0
  0
LINE
  5
1017F
330
1F
100
AcDbEntity
  8
0
100
AcDbLine
 10
452.96049749400964
 20
1.0000000000000018
 30
0.0
 11
452.96049749400964
 21
5.905342398904667
 31
0.0
  0
LINE
  5
10180
330
1F
100
AcDbEntity
  8
0
100
AcDbLine
 10
452.96049749400964
 20
5.905342398904667
 30
0.0
 11
453.96049749400964
 21
5.905342398904667
 31
0.0
  0
LINE
  5
10181
330
1F
100
AcDbEntity
  8
0
100
AcDbLine
 10
453.96049749400964
 20
5.905342398904667
 30
0.0
 11
453.96049749400964
 21
17.393800534300762
 31
0.0
  0
LINE
  5
10182
330
1F
100
AcDbEntity
  8
0
100
AcDbLine
 10
453.96049749400964
 20
17.393800534300762
 30
0.0
 11
452.96049749400964
 21
17.393800534300762
 31
0.0
  0
LINE
  5
10183
330
1F
100
AcDbEntity
  8
0
100
AcDbLine
 10
438.77867931219146
 20
2.4679504525668854
 30
0.0
 11
438.77867931219146
 21
6.392950452566886
 31
0.0
  0
LINE
  5
10184
330
1F
100
AcDbEntity
  8
0
100
AcDbLine
 10
438.77867931219146
 20
6.392950452566886
 30
0.0
 11
439.70367931219147
 21
6.392950452566886
 31
0.0
  0
LINE
  5
10185
330
1F
100
AcDbEntity
  8
0
100
AcDbLine
 10
439.70367931219147
 20
6.392950452566886
 30
0.0
 11
439.70367931219147
 21
2.4679504525668854
 31
0.0
  0
LINE
  5
10186
330
1F
100
AcDbEntity
  8
0
100
AcDbLine
 10
439.70367931219147
 20
2.4679504525668854
 30
0.0
 11
438.77867931219146
 21
2.4679504525668854
 31
0.0
  0
LINE
  5
10187
330
1F
100
AcDbEntity
  8
0
100
AcDbLine
 10
448.3400429485551
 20
8.878787878787877
 30
0.0
 11
448.3400429485551
 21
1.8931818181818212
 31
0.0
  0
LINE
  5
10188
330
1F
100
AcDbEntity
  8
0
100
AcDbLine
 10
448.3400429485551
 20
1.8931818181818212
 30
0.0
 11
441.59686113037327
 21
1.8931818181818212
 31
0.0
  0
LINE
  5
10189
330
1F
100
AcDbEntity
  8
0
100
AcDbLine
 10
441.59686113037327
 20
1.8931818181818212
 30
0.0
 11
441.59686113037327
 21
8.878787878787877
 31
0.0
  0
LINE
  5
1018A
330
1F
100
AcDbEntity
  8
0
100
AcDbLine
 10
441.59686113037327
 20
8.878787878787877
 30
0.0
 11
448.3400429485551
 21
8.878787878787877
 31
0.0
  0
LINE
  5
1018B
330
1F
100
AcDbEntity
  8
0
100
AcDbLine
 10
441.59686113037327
 20
18.01439393939394
 30
0.0
 11
441.59686113037327
 21
25.0
 31
0.0
  0
LINE
  5
1018C
330
1F
100
AcDbEntity
  8
0
100
AcDbLine
 10
441.59686113037327
 20
25.0
 30
0.0
 11
448.3400429485551
 21
25.0
 31
0.0
  0
LINE
  5
1018D
330
1F
100
AcDbEntity
  8
0
100
AcDbLine
 10
448.3400429485551
 20
25.0
 30
0.0
 11
448.3400429485551
 21
18.01439393939394
 31
0.0
  0
LINE
  5
1018E
330
1F
100
AcDbEntity
  8
0
100
AcDbLine
 10
448.3400429485551
 20
18.01439393939394
 30
0.0
 11
441.59686113037327
 21
18.01439393939394
 31
0.0
  0
LINE
  5
1018F
330
1F
100
AcDbEntity
  8
0
100
AcDbLine
 10
441.59686113037327
 20
16.93939393939394
 30
0.0
 11
448.3400429485551
 21
16.93939393939394
 31
0.0
  0
LINE
  5
10190
330
1F
100
AcDbEntity
  8
0
100
AcDbLine
 10
448.3400429485551
 20
16.93939393939394
 30
0.0
 11
448.3400429485551
 21
9.953787878787878
 31
0.0
  0
LINE
  5
10191
330
1F
100
AcDbEntity
  8
0
100
AcDbLine
 10
448.3400429485551
 20
9.953787878787878
 30
0.0
 11
441.59686113037327
 21
9.953787878787878
 31
0.0
  0
LINE
  5
10192
330
1F
100
AcDbEntity
  8
0
100
AcDbLine
 10
441.59686113037327
 20
9.953787878787878
 30
0.0
 11
441.59686113037327
 21
16.93939393939394
 31
0.0
  0
LINE
  5
10193
330
1F
100
AcDbEntity
  8
0
100
AcDbLine
 10
438.77867931219146
 20
23.258273629783965
 30
0.0
 11
439.70367931219147
 21
23.258273629783965
 31
0.0
  0
LINE
  5
10194
330
1F
100
AcDbEntity
  8
0
100
AcDbLine
 10
439.70367931219147
 20
23.258273629783965
 30
0.0
 11
439.70367931219147
 21
19.333273629783964
 31
0.0
  0
LINE
  5
10195
330
1F
100
AcDbEntity
  8
0
100
AcDbLine
 10
439.70367931219147
 20
19.333273629783964
 30
0.0
 11
438.77867931219146
 21
19.333273629783964
 31
0.0
  0
LINE
  5
10196
330
1F
100
AcDbEntity
  8
0
100
AcDbLine
 10
438.77867931219146
 20
19.333273629783964
 30
0.0
 11
438.77867931219146
 21
23.258273629783965
 31
0.0
  0
LINE
  5
10197
330
1F
100
AcDbEntity
  8
0
100
AcDbLine
 10
503.4140216606417
 20
13.762202353873462
 30
0.0
 11
500.76174893336895
 21
13.762202353873462
 31
0.0
  0
LINE
  5
10198
330
1F
100
AcDbEntity
  8
0
100
AcDbLine
 10
500.76174893336895
 20
13.762202353873462
 30
0.0
 11
500.76174893336895
 21
15.50538417205528
 31
0.0
  0
LINE
  5
10199
330
1F
100
AcDbEntity
  8
0
100
AcDbLine
 10
500.76174893336895
 20
15.50538417205528
 30
0.0
 11
503.4140216606417
 21
15.50538417205528
 31
0.0
  0
LINE
  5
1019A
330
1F
100
AcDbEntity
  8
0
100
AcDbLine
 10
503.4140216606417
 20
15.50538417205528
 30
0.0
 11
503.4140216606417
 21
13.762202353873462
 31
0.0
  0
LINE
  5
1019B
330
1F
100
AcDbEntity
  8
0
100
AcDbLine
 10
502.48138493989705
 20
3.3737010943425183
 30
0.0
 11
502.48138493989705
 21
6.025973821615247
 31
0.0
  0
LINE
  5
1019C
330
1F
100
AcDbEntity
  8
0
100
AcDbLine
 10
502.48138493989705
 20
6.025973821615247
 30
0.0
 11
507.8609303944425
 21
6.025973821615247
 31
0.0
  0
LINE
  5
1019D
330
1F
100
AcDbEntity
  8
0
100
AcDbLine
 10
507.8609303944425
 20
6.025973821615247
 30
0.0
 11
507.8609303944425
 21
3.3737010943425183
 31
0.0
  0
LINE
  5
1019E
330
1F
100
AcDbEntity
  8
0
100
AcDbLine
 10
507.8609303944425
 20
3.3737010943425183
 30
0.0
 11
502.48138493989705
 21
3.3737010943425183
 31
0.0
  0
LINE
  5
1019F
330
1F
100
AcDbEntity
  8
0
100
AcDbLine
 10
531.7835483231355
 20
18.256818181818186
 30
0.0
 11
531.7835483231355
 21
17.256818181818186
 31
0.0
  0
LINE
  5
101A0
330
1F
100
AcDbEntity
  8
0
100
AcDbLine
 10
531.7835483231355
 20
17.256818181818186
 30
0.0
 11
521.6404752828458
 21
17.256818181818186
 31
0.0
  0
LINE
  5
101A1
330
1F
100
AcDbEntity
  8
0
100
AcDbLine
 10
521.6404752828458
 20
17.256818181818186
 30
0.0
 11
521.6404752828458
 21
18.256818181818186
 31
0.0
  0
LINE
  5
101A2
330
1F
100
AcDbEntity
  8
0
100
AcDbLine
 10
521.6404752828458
 20
18.256818181818186
 30
0.0
 11
505.1084106003525
 21
18.256818181818186
 31
0.0
  0
LINE
  5
101A3
330
1F
100
AcDbEntity
  8
0
100
AcDbLine
 10
505.1084106003525
 20
18.256818181818186
 30
0.0
 11
505.1084106003525
 21
17.256818181818186
 31
0.0
  0
LINE
  5
101A4
330
1F
100
AcDbEntity
  8
0
100
AcDbLine
 10
505.1084106003525
 20
17.256818181818186
 30
0.0
 11
491.7501544199582
 21
17.256818181818186
 31
0.0
  0
LINE
  5
101A5
330
1F
100
AcDbEntity
  8
0
100
AcDbLine
 10
491.7501544199582
 20
17.256818181818186
 30
0.0
 11
491.7501544199582
 21
18.256818181818186
 31
0.0
  0
LINE
  5
101A6
330
1F
100
AcDbEntity
  8
0
100
AcDbLine
 10
491.7501544199582
 20
18.256818181818186
 30
0.0
 11
474.9604974940096
 21
18.256818181818186
 31
0.0
  0
LINE
  5
101A7
330
1F
100
AcDbEntity
  8
0
100
AcDbLine
 10
474.9604974940096
 20
18.256818181818186
 30
0.0
 11
474.9604974940096
 21
11.489164438441533
 31
0.0
  0
LINE
  5
101A8
330
1F
100
AcDbEntity
  8
0
100
AcDbLine
 10
474.9604974940096
 20
11.489164438441533
 30
0.0
 11
473.9604974940096
 21
11.489164438441534
 31
0.0
  0
LINE
  5
101A9
330
1F
100
AcDbEntity
  8
0
100
AcDbLine
 10
473.9604974940096
 20
11.489164438441534
 30
0.0
 11
473.9604974940096
 21
5.352455112810652
 31
0.0
  0
LINE
  5
101AA
330
1F
100
AcDbEntity
  8
0
100
AcDbLine
 10
473.9604974940096
 20
5.352455112810652
 30
0.0
 11
474.9604974940096
 21
5.352455112810652
 31
0.0
  0
LINE
  5
101AB
330
1F
100
AcDbEntity
  8
0
100
AcDbLine
 10
474.9604974940096
 20
5.352455112810652
 30
0.0
 11
474.9604974940096
 21
0.0
 31
0.0
  0
LINE
  5
101AC
330
1F
100
AcDbEntity
  8
0
100
AcDbLine
 10
474.9604974940096
 20
0.0
 30
0.0
 11
481.41821098881996
 21
0.0
 31
0.0
  0
LINE
  5
101AD
330
1F
100
AcDbEntity
  8
0
100
AcDbLine
 10
481.41821098881996
 20
0.0
 30
0.0
 11
481.41821098881996
 21
1.0000000000000018
 31
0.0
  0
LINE
  5
101AE
330
1F
100
AcDbEntity
  8
0
100
AcDbLine
 10
481.41821098881996
 20
1.0000000000000018
 30
0.0
 11
487.9276338858216
 21
1.0000000000000018
 31
0.0
  0
LINE
  5
101AF
330
1F
100
AcDbEntity
  8
0
100
AcDbLine
 10
487.9276338858216
 20
1.0000000000000018
 30
0.0
 11
487.9276338858216
 21
0.0
 31
0.0
  0
LINE
  5
101B0
330
1F
100
AcDbEntity
  8
0
100
AcDbLine
 10
487.9276338858216
 20
0.0
 30
0.0
 11
501.3043196432439
 21
0.0
 31
0.0
  0
LINE
  5
101B1
330
1F
100
AcDbEntity
  8
0
100
AcDbLine
 10
501.3043196432439
 20
0.0
 30
0.0
 11
501.3043196432439
 21
1.0000000000000018
 31
0.0
  0
LINE
  5
101B2
330
1F
100
AcDbEntity
  8
0
100
AcDbLine
 10
501.3043196432439
 20
1.0000000000000018
 30
0.0
 11
507.40638486539126
 21
1.0000000000000018
 31
0.0
  0
LINE
  5
101B3
330
1F
100
AcDbEntity
  8
0
100
AcDbLine
 10
507.40638486539126
 20
1.0000000000000018
 30
0.0
 11
507.40638486539126
 21
0.0
 31
0.0
  0
LINE
  5
101B4
330
1F
100
AcDbEntity
  8
0
100
AcDbLine
 10
507.40638486539126
 20
0.0
 30
0.0
 11
526.1338370621113
 21
0.0
 31
0.0
  0
LINE
  5
101B5
330
1F
100
AcDbEntity
  8
0
100
AcDbLine
 10
526.1338370621113
 20
0.0
 30
0.0
 11
526.1338370621113
 21
1.0000000000000018
 31
0.0
  0
LINE
  5
101B6
330
1F
100
AcDbEntity
  8
0
100
AcDbLine
 10
526.1338370621113
 20
1.0000000000000018
 30
0.0
 11
532.1324856787007
 21
1.0000000000000018
 31
0.0
  0
LINE
  5
101B7
330
1F
100
AcDbEntity
  8
0
100
AcDbLine
 10
532.1324856787007
 20
1.0000000000000018
 30
0.0
 11
532.1324856787007
 21
0.0
 31
0.0
  0
LINE
  5
101B8
330
1F
100
AcDbEntity
  8
0
100
AcDbLine
 10
532.1324856787007
 20
0.0
 30
0.0
 11
538.6718611303734
 21
0.0
 31
0.0
  0
LINE
  5
101B9
330
1F
100
AcDbEntity
  8
0
100
AcDbLine
 10
538.6718611303734
 20
0.0
 30
0.0
 11
538.6718611303733
 21
18.256818181818186
 31
0.0
  0
LINE
  5
101BA
330
1F
100
AcDbEntity
  8
0
100
AcDbLine
 10
538.6718611303733
 20
18.256818181818186
 30
0.0
 11
531.7835483231355
 21
18.256818181818186
 31
0.0
  0
LINE
  5
101BB
330
1F
100
AcDbEntity
  8
0
100
AcDbLine
 10
564.2923156758279
 20
0.0
 30
0.0
 11
564.2923156758279
 21
2.075000000000001
 31
0.0
  0
LINE
  5
101BC
330
1F
100
AcDbEntity
  8
0
100
AcDbLine
 10
564.2923156758279
 20
2.075000000000001
 30
0.0
 11
563.2923156758279
 21
2.075000000000001
 31
0.0
  0
LINE
  5
101BD
330
1F
100
AcDbEntity
  8
0
100
AcDbLine
 10
563.2923156758279
 20
2.075000000000001
 30
0.0
 11
563.2923156758279
 21
4.620454545454545
 31
0.0
  0
LINE
  5
101BE
330
1F
100
AcDbEntity
  8
0
100
AcDbLine
 10
563.2923156758279
 20
4.620454545454545
 30
0.0
 11
558.6718611303734
 21
4.620454545454545
 31
0.0
  0
LINE
  5
101BF
330
1F
100
AcDbEntity
  8
0
100
AcDbLine
 10
558.6718611303734
 20
4.620454545454545
 30
0.0
 11
558.6718611303734
 21
0.0
 31
0.0
  0
LINE
  5
101C0
330
1F
100
AcDbEntity
  8
0
100
AcDbLine
 10
558.6718611303734
 20
0.0
 30
0.0
 11
564.2923156758279
 21
0.0
 31
0.0
  0
LINE
  5
101C1
330
1F
100
AcDbEntity
  8
0
100
AcDbLine
 10
584.2923156758279
 20
4.620454545454546
 30
0.0
 11
584.2923156758279
 21
0.0
 31
0.0
  0
LINE
  5
101C2
330
1F
100
AcDbEntity
  8
0
100
AcDbLine
 10
584.2923156758279
 20
0.0
 30
0.0
 11
588.9127702212825
 21
0.0
 31
0.0
  0
LINE
  5
101C3
330
1F
100
AcDbEntity
  8
0
100
AcDbLine
 10
588.9127702212825
 20
0.0
 30
0.0
 11
588.9127702212825
 21
2.545454545454544
 31
0.0
  0
LINE
  5
101C4
330
1F
100
AcDbEntity
  8
0
100
AcDbLine
 10
588.9127702212825
 20
2.545454545454544
 30
0.0
 11
589.9127702212825
 21
2.545454545454544
 31
0.0
  0
LINE
  5
101C5
330
1F
100
AcDbEntity
  8
0
100
AcDbLine
 10
589.9127702212825
 20
2.545454545454544
 30
0.0
 11
589.9127702212825
 21
4.620454545454546
 31
0.0
  0
LINE
  5
101C6
330
1F
100
AcDbEntity
  8
0
100
AcDbLine
 10
589.9127702212825
 20
4.620454545454546
 30
0.0
 11
584.2923156758279
 21
4.620454545454546
 31
0.0
  0
LINE
  5
101C7
330
1F
100
AcDbEntity
  8
0
100
AcDbLine
 10
615.533224766737
 20
2.075000000000001
 30
0.0
 11
614.533224766737
 21
2.075000000000001
 31
0.0
  0
LINE
  5
101C8
330
1F
100
AcDbEntity
  8
0
100
AcDbLine
 10
614.533224766737
 20
2.075000000000001
 30
0.0
 11
614.533224766737
 21
4.620454545454545
 31
0.0
  0
LINE
  5
101C9
330
1F
100
AcDbEntity
  8
0
100
AcDbLine
 10
614.533224766737
 20
4.620454545454545
 30
0.0
 11
609.9127702212825
 21
4.620454545454545
 31
0.0
  0
LINE
  5
101CA
330
1F
100
AcDbEntity
  8
0
100
AcDbLine
 10
609.9127702212825
 20
4.620454545454545
 30
0.0
 11
609.9127702212825
 21
0.0
 31
0.0
  0
LINE
  5
101CB
330
1F
100
AcDbEntity
  8
0
100
AcDbLine
 10
609.9127702212825
 20
0.0
 30
0.0
 11
615.533224766737
 21
0.0
 31
0.0
  0
LINE
  5
101CC
330
1F
100
AcDbEntity
  8
0
100
AcDbLine
 10
615.533224766737
 20
0.0
 30
0.0
 11
615.533224766737
 21
2.075000000000001
 31
0.0
  0
LINE
  5
101CD
330
1F
100
AcDbEntity
  8
0
100
AcDbLine
 10
635.533224766737
 20
4.620454545454544
 30
0.0
 11
635.533224766737
 21
0.0
 31
0.0
  0
LINE
  5
101CE
330
1F
100
AcDbEntity
  8
0
100
AcDbLine
 10
635.533224766737
 20
0.0
 30
0.0
 11
640.1536793121916
 21
0.0
 31
0.0
  0
LINE
  5
101CF
330
1F
100
AcDbEntity
  8
0
100
AcDbLine
 10
640.1536793121916
 20
0.0
 30
0.0
 11
640.1536793121916
 21
2.545454545454542
 31
0.0
  0
LINE
  5
101D0
330
1F
100
AcDbEntity
  8
0
100
AcDbLine
 10
640.1536793121916
 20
2.545454545454542
 30
0.0
 11
641.1536793121916
 21
2.545454545454542
 31
0.0
  0
LINE
  5
101D1
330
1F
100
AcDbEntity
  8
0
100
AcDbLine
 10
641.1536793121916
 20
2.545454545454542
 30
0.0
 11
641.1536793121916
 21
4.620454545454544
 31
0.0
  0
LINE
  5
101D2
330
1F
100
AcDbEntity
  8
0
100
AcDbLine
 10
641.1536793121916
 20
4.620454545454544
 30
0.0
 11
635.533224766737
 21
4.620454545454544
 31
0.0
  0
LINE
  5
101D3
330
1F
100
AcDbEntity
  8
0
100
AcDbLine
 10
703.1377702224911
 20
20.247551727013445
 30
0.0
 11
704.1377702224911
 21
20.247551727013445
 31
0.0
  0
LINE
  5
101D4
330
1F
100
AcDbEntity
  8
0
100
AcDbLine
 10
704.1377702224911
 20
20.247551727013445
 30
0.0
 11
704.1377702224911
 21
26.89318181818182
 31
0.0
  0
LINE
  5
101D5
330
1F
100
AcDbEntity
  8
0
100
AcDbLine
 10
704.1377702224911
 20
26.89318181818182
 30
0.0
 11
688.6745572496932
 21
26.89318181818182
 31
0.0
  0
LINE
  5
101D6
330
1F
100
AcDbEntity
  8
0
100
AcDbLine
 10
688.6745572496932
 20
26.89318181818182
 30
0.0
 11
688.6745572496932
 21
25.893181818181816
 31
0.0
  0
LINE
  5
101D7
330
1F
100
AcDbEntity
  8
0
100
AcDbLine
 10
688.6745572496932
 20
25.893181818181816
 30
0.0
 11
672.0247304378906
 21
25.893181818181816
 31
0.0
  0
LINE
  5
101D8
330
1F
100
AcDbEntity
  8
0
100
AcDbLine
 10
672.0247304378906
 20
25.893181818181816
 30
0.0
 11
672.0247304378906
 21
26.89318181818182
 31
0.0
  0
LINE
  5
101D9
330
1F
100
AcDbEntity
  8
0
100
AcDbLine
 10
672.0247304378906
 20
26.89318181818182
 30
0.0
 11
661.153679587336
 21
26.89318181818182
 31
0.0
  0
LINE
  5
101DA
330
1F
100
AcDbEntity
  8
0
100
AcDbLine
 10
661.153679587336
 20
26.89318181818182
 30
0.0
 11
661.1536793121916
 21
18.356053456095626
 31
0.0
  0
LINE
  5
101DB
330
1F
100
AcDbEntity
  8
0
100
AcDbLine
 10
661.1536793121916
 20
18.356053456095626
 30
0.0
 11
662.1536793134001
 21
18.356053456095626
 31
0.0
  0
LINE
  5
101DC
330
1F
100
AcDbEntity
  8
0
100
AcDbLine
 10
662.1536793134001
 20
18.356053456095626
 30
0.0
 11
662.1536793134001
 21
8.575351941997669
 31
0.0
  0
LINE
  5
101DD
330
1F
100
AcDbEntity
  8
0
100
AcDbLine
 10
662.1536793134001
 20
8.575351941997669
 30
0.0
 11
661.1536793121969
 21
8.575351941997667
 31
0.0
  0
LINE
  5
101DE
330
1F
100
AcDbEntity
  8
0
100
AcDbLine
 10
661.1536793121969
 20
8.575351941997667
 30
0.0
 11
661.1536795873305
 21
0.0
 31
0.0
  0
LINE
  5
101DF
330
1F
100
AcDbEntity
  8
0
100
AcDbLine
 10
661.1536795873305
 20
0.0
 30
0.0
 11
676.0068320597484
 21
0.0
 31
0.0
  0
LINE
  5
101E0
330
1F
100
AcDbEntity
  8
0
100
AcDbLine
 10
676.0068320597484
 20
0.0
 30
0.0
 11
676.0068320597484
 21
1.0000000000000018
 31
0.0
  0
LINE
  5
101E1
330
1F
100
AcDbEntity
  8
0
100
AcDbLine
 10
676.0068320597484
 20
1.0000000000000018
 30
0.0
 11
688.6745572496932
 21
1.0000000000000018
 31
0.0
  0
LINE
  5
101E2
330
1F
100
AcDbEntity
  8
0
100
AcDbLine
 10
688.6745572496932
 20
1.0000000000000018
 30
0.0
 11
688.6745572496932
 21
0.0
 31
0.0
  0
LINE
  5
101E3
330
1F
100
AcDbEntity
  8
0
100
AcDbLine
 10
688.6745572496932
 20
0.0
 30
0.0
 11
704.1377702224911
 21
0.0
 31
0.0
  0
LINE
  5
101E4
330
1F
100
AcDbEntity
  8
0
100
AcDbLine
 10
704.1377702224911
 20
0.0
 30
0.0
 11
704.1377702224911
 21
10.267745127818515
 31
0.0
  0
LINE
  5
101E5
330
1F
100
AcDbEntity
  8
0
100
AcDbLine
 10
704.1377702224911
 20
10.267745127818516
 30
0.0
 11
703.1377702224911
 21
10.267745127818516
 31
0.0
  0
LINE
  5
101E6
330
1F
100
AcDbEntity
  8
0
100
AcDbLine
 10
703.1377702224911
 20
10.267745127818516
 30
0.0
 11
703.1377702224911
 21
20.247551727013445
 31
0.0
  0
LINE
  5
101E7
330
1F
100
AcDbEntity
  8
0
100
AcDbLine
 10
729.6832247679457
 20
2.0749999999999957
 30
0.0
 11
728.7582247679456
 21
2.0749999999999993
 31
0.0
  0
LINE
  5
101E8
330
1F
100
AcDbEntity
  8
0
100
AcDbLine
 10
728.7582247679456
 20
2.075000000000001
 30
0.0
 11
728.7582247679456
 21
4.000000000000002
 31
0.0
  0
LINE
  5
101E9
330
1F
100
AcDbEntity
  8
0
100
AcDbLine
 10
728.7582247679456
 20
4.0
 30
0.0
 11
729.6832247679457
 21
3.9999999999999982
 31
0.0
  0
LINE
  5
101EA
330
1F
100
AcDbEntity
  8
0
100
AcDbLine
 10
729.6832247679457
 20
4.0
 30
0.0
 11
729.6832247679457
 21
2.0749999999999993
 31
0.0
  0
LINE
  5
101EB
330
1F
100
AcDbEntity
  8
0
100
AcDbLine
 10
728.7582247679456
 20
29.363636363636363
 30
0.0
 11
729.6832247679457
 21
29.363636363636363
 31
0.0
  0
LINE
  5
101EC
330
1F
100
AcDbEntity
  8
0
100
AcDbLine
 10
729.6832247679457
 20
29.363636363636363
 30
0.0
 11
729.6832247679457
 21
27.438636363636363
 31
0.0
  0
LINE
  5
101ED
330
1F
100
AcDbEntity
  8
0
100
AcDbLine
 10
729.6832247679457
 20
27.438636363636363
 30
0.0
 11
728.7582247679456
 21
27.438636363636363
 31
0.0
  0
LINE
  5
101EE
330
1F
100
AcDbEntity
  8
0
100
AcDbLine
 10
728.7582247679456
 20
27.438636363636363
 30
0.0
 11
728.7582247679456
 21
29.363636363636363
 31
0.0
  0
LINE
  5
101EF
330
1F
100
AcDbEntity
  8
0
100
AcDbLine
 10
731.8116374531496
 20
14.119835829335605
 30
0.0
 11
731.8116374531496
 21
25.458293964731702
 31
0.0
  0
LINE
  5
101F0
330
1F
100
AcDbEntity
  8
0
100
AcDbLine
 10
731.8116374531496
 20
25.4582939647317
 30
0.0
 11
732.7366374531497
 21
25.4582939647317
 31
0.0
  0
LINE
  5
101F1
330
1F
100
AcDbEntity
  8
0
100
AcDbLine
 10
732.7366374531497
 20
25.4582939647317
 30
0.0
 11
732.7366374531497
 21
14.119835829335603
 31
0.0
  0
LINE
  5
101F2
330
1F
100
AcDbEntity
  8
0
100
AcDbLine
 10
732.7366374531497
 20
14.119835829335605
 30
0.0
 11
731.8116374531496
 21
14.119835829335605
 31
0.0
  0
LINE
  5
101F3
330
1F
100
AcDbEntity
  8
0
100
AcDbLine
 10
741.2274327687147
 20
4.62045454545455
 30
0.0
 11
736.0643629829378
 21
4.62045454545455
 31
0.0
  0
LINE
  5
101F4
330
1F
100
AcDbEntity
  8
0
100
AcDbLine
 10
736.0643629829378
 20
4.62045454545455
 30
0.0
 11
736.0643629829378
 21
5.545454545454547
 31
0.0
  0
LINE
  5
101F5
330
1F
100
AcDbEntity
  8
0
100
AcDbLine
 10
736.0643629829378
 20
5.545454545454547
 30
0.0
 11
741.2274327687147
 21
5.545454545454547
 31
0.0
  0
LINE
  5
101F6
330
1F
100
AcDbEntity
  8
0
100
AcDbLine
 10
741.2274327687147
 20
5.545454545454547
 30
0.0
 11
741.2274327687147
 21
4.62045454545455
 31
0.0
  0
LINE
  5
101F7
330
1F
100
AcDbEntity
  8
0
100
AcDbLine
 10
755.6204552624492
 20
4.62045454545455
 30
0.0
 11
751.3605009569787
 21
4.62045454545455
 31
0.0
  0
LINE
  5
101F8
330
1F
100
AcDbEntity
  8
0
100
AcDbLine
 10
751.3605009569787
 20
4.62045454545455
 30
0.0
 11
751.3605009569787
 21
5.545454545454547
 31
0.0
  0
LINE
  5
101F9
330
1F
100
AcDbEntity
  8
0
100
AcDbLine
 10
751.3605009569787
 20
5.545454545454547
 30
0.0
 11
755.6204552624492
 21
5.545454545454547
 31
0.0
  0
LINE
  5
101FA
330
1F
100
AcDbEntity
  8
0
100
AcDbLine
 10
755.6204552624492
 20
5.545454545454547
 30
0.0
 11
755.6204552624492
 21
4.62045454545455
 31
0.0
  0
LINE
  5
101FB
330
1F
100
AcDbEntity
  8
0
100
AcDbLine
 10
768.7936503592216
 20
4.62045454545455
 30
0.0
 11
763.8686503592216
 21
4.62045454545455
 31
0.0
  0
LINE
  5
101FC
330
1F
100
AcDbEntity
  8
0
100
AcDbLine
 10
763.8686503592216
 20
4.62045454545455
 30
0.0
 11
763.8686503592216
 21
5.545454545454547
 31
0.0
  0
LINE
  5
101FD
330
1F
100
AcDbEntity
  8
0
100
AcDbLine
 10
763.8686503592216
 20
5.545454545454547
 30
0.0
 11
768.7936503592216
 21
5.545454545454547
 31
0.0
  0
LINE
  5
101FE
330
1F
100
AcDbEntity
  8
0
100
AcDbLine
 10
768.7936503592216
 20
5.545454545454547
 30
0.0
 11
768.7936503592216
 21
4.62045454545455
 31
0.0
  0
LINE
  5
101FF
330
1F
100
AcDbEntity
  8
0
100
AcDbLine
 10
741.0426511967895
 20
18.206290107013018
 30
0.0
 11
741.0426511967895
 21
24.192999432643894
 31
0.0
  0
LINE
  5
10200
330
1F
100
AcDbEntity
  8
0
100
AcDbLine
 10
741.0426511967895
 20
24.192999432643894
 30
0.0
 11
741.9676511967895
 21
24.192999432643894
 31
0.0
  0
LINE
  5
10201
330
1F
100
AcDbEntity
  8
0
100
AcDbLine
 10
741.9676511967895
 20
24.192999432643894
 30
0.0
 11
741.9676511967895
 21
18.206290107013018
 31
0.0
  0
LINE
  5
10202
330
1F
100
AcDbEntity
  8
0
100
AcDbLine
 10
741.9676511967895
 20
18.206290107013018
 30
0.0
 11
741.0426511967895
 21
18.206290107013018
 31
0.0
  0
LINE
  5
10203
330
1F
100
AcDbEntity
  8
0
100
AcDbLine
 10
764.7699239240623
 20
18.206290107013018
 30
0.0
 11
764.7699239240623
 21
24.192999432643894
 31
0.0
  0
LINE
  5
10204
330
1F
100
AcDbEntity
  8
0
100
AcDbLine
 10
764.7699239240623
 20
24.192999432643894
 30
0.0
 11
765.6949239240622
 21
24.192999432643894
 31
0.0
  0
LINE
  5
10205
330
1F
100
AcDbEntity
  8
0
100
AcDbLine
 10
765.6949239240622
 20
24.192999432643894
 30
0.0
 11
765.6949239240622
 21
18.206290107013018
 31
0.0
  0
LINE
  5
10206
330
1F
100
AcDbEntity
  8
0
100
AcDbLine
 10
765.6949239240622
 20
18.206290107013018
 30
0.0
 11
764.7699239240623
 21
18.206290107013018
 31
0.0
  0
LINE
  5
10207
330
1F
100
AcDbEntity
  8
0
100
AcDbLine
 10
747.0444332993088
 20
12.363636363636365
 30
0.0
 11
755.8562217318402
 21
12.363636363636365
 31
0.0
  0
LINE
  5
10208
330
1F
100
AcDbEntity
  8
0
100
AcDbLine
 10
755.8562217318402
 20
12.363636363636365
 30
0.0
 11
755.8562217318402
 21
11.438636363636366
 31
0.0
  0
LINE
  5
10209
330
1F
100
AcDbEntity
  8
0
100
AcDbLine
 10
755.8562217318402
 20
11.438636363636366
 30
0.0
 11
747.0444332993088
 21
11.438636363636366
 31
0.0
  0
LINE
  5
1020A
330
1F
100
AcDbEntity
  8
0
100
AcDbLine
 10
747.0444332993088
 20
11.438636363636364
 30
0.0
 11
747.0444332993088
 21
12.363636363636363
 31
0.0
  0
LINE
  5
1020B
330
1F
100
AcDbEntity
  8
0
100
AcDbLine
 10
748.0596380880478
 20
29.545454545454547
 30
0.0
 11
755.3014388484418
 21
29.545454545454547
 31
0.0
  0
LINE
  5
1020C
330
1F
100
AcDbEntity
  8
0
100
AcDbLine
 10
755.3014388484418
 20
29.545454545454547
 30
0.0
 11
755.3014388484418
 21
28.620454545454546
 31
0.0
  0
LINE
  5
1020D
330
1F
100
AcDbEntity
  8
0
100
AcDbLine
 10
755.3014388484418
 20
28.620454545454546
 30
0.0
 11
748.0596380880478
 21
28.620454545454546
 31
0.0
  0
LINE
  5
1020E
330
1F
100
AcDbEntity
  8
0
100
AcDbLine
 10
748.0596380880478
 20
28.620454545454546
 30
0.0
 11
748.0596380880478
 21
29.545454545454547
 31
0.0
  0
LINE
  5
1020F
330
1F
100
AcDbEntity
  8
0
100
AcDbLine
 10
764.7298477142195
 20
30.438636363636366
 30
0.0
 11
757.9759680581958
 21
30.438636363636366
 31
0.0
  0
LINE
  5
10210
330
1F
100
AcDbEntity
  8
0
100
AcDbLine
 10
757.9759680581958
 20
30.438636363636366
 30
0.0
 11
757.9759680581958
 21
31.438636363636366
 31
0.0
  0
LINE
  5
10211
330
1F
100
AcDbEntity
  8
0
100
AcDbLine
 10
757.9759680581958
 20
31.438636363636366
 30
0.0
 11
744.5555112694907
 21
31.438636363636366
 31
0.0
  0
LINE
  5
10212
330
1F
100
AcDbEntity
  8
0
100
AcDbLine
 10
744.5555112694907
 20
31.438636363636366
 30
0.0
 11
744.5555112694907
 21
30.438636363636366
 31
0.0
  0
LINE
  5
10213
330
1F
100
AcDbEntity
  8
0
100
AcDbLine
 10
744.5555112694907
 20
30.438636363636366
 30
0.0
 11
738.299664224672
 21
30.438636363636366
 31
0.0
  0
LINE
  5
10214
330
1F
100
AcDbEntity
  8
0
100
AcDbLine
 10
738.299664224672
 20
30.438636363636366
 30
0.0
 11
738.299664224672
 21
31.438636363636366
 31
0.0
  0
LINE
  5
10215
330
1F
100
AcDbEntity
  8
0
100
AcDbLine
 10
738.299664224672
 20
31.438636363636366
 30
0.0
 11
724.1377702224911
 21
31.438636363636366
 31
0.0
  0
LINE
  5
10216
330
1F
100
AcDbEntity
  8
0
100
AcDbLine
 10
724.1377702224911
 20
31.438636363636366
 30
0.0
 11
724.1377702224911
 21
26.818181818181817
 31
0.0
  0
LINE
  5
10217
330
1F
100
AcDbEntity
  8
0
100
AcDbLine
 10
724.1377702224911
 20
26.818181818181817
 30
0.0
 11
726.4104974952184
 21
26.818181818181817
 31
0.0
  0
LINE
  5
10218
330
1F
100
AcDbEntity
  8
0
100
AcDbLine
 10
726.4104974952184
 20
26.818181818181817
 30
0.0
 11
726.4104974952184
 21
0.0
 31
0.0
  0
LINE
  5
10219
330
1F
100
AcDbEntity
  8
0
100
AcDbLine
 10
726.4104974952184
 20
0.0
 30
0.0
 11
774.7207283622406
 21
0.0
 31
0.0
  0
LINE
  5
1021A
330
1F
100
AcDbEntity
  8
0
100
AcDbLine
 10
774.7207283622406
 20
0.0
 30
0.0
 11
774.7207283622406
 21
14.119835829335607
 31
0.0
  0
LINE
  5
1021B
330
1F
100
AcDbEntity
  8
0
100
AcDbLine
 10
774.7207283622406
 20
14.119835829335607
 30
0.0
 11
773.7207283622406
 21
14.119835829335603
 31
0.0
  0
LINE
  5
1021C
330
1F
100
AcDbEntity
  8
0
100
AcDbLine
 10
773.7207283622406
 20
14.119835829335603
 30
0.0
 11
773.7207283622406
 21
25.458293964731695
 31
0.0
  0
LINE
  5
1021D
330
1F
100
AcDbEntity
  8
0
100
AcDbLine
 10
773.7207283622406
 20
25.458293964731695
 30
0.0
 11
774.7207283622406
 21
25.458293964731695
 31
0.0
  0
LINE
  5
1021E
330
1F
100
AcDbEntity
  8
0
100
AcDbLine
 10
774.7207283622406
 20
25.458293964731695
 30
0.0
 11
774.7207283622406
 21
31.438636363636366
 31
0.0
  0
LINE
  5
1021F
330
1F
100
AcDbEntity
  8
0
100
AcDbLine
 10
774.7207283622406
 20
31.438636363636366
 30
0.0
 11
764.7298477142195
 21
31.438636363636366
 31
0.0
  0
LINE
  5
10220
330
1F
100
AcDbEntity
  8
0
100
AcDbLine
 10
764.7298477142195
 20
31.438636363636366
 30
0.0
 11
764.7298477142195
 21
30.438636363636366
 31
0.0
  0
LINE
  5
10221
330
1F
100
AcDbEntity
  8
0
100
AcDbLine
 10
794.7207283622406
 20
27.438636363636363
 30
0.0
 11
794.7207283622406
 21
25.36363636363636
 31
0.0
  0
LINE
  5
10222
330
1F
100
AcDbEntity
  8
0
100
AcDbLine
 10
794.7207283622406
 20
25.36363636363636
 30
0.0
 11
795.7207283622406
 21
25.36363636363636
 31
0.0
  0
LINE
  5
10223
330
1F
100
AcDbEntity
  8
0
100
AcDbLine
 10
795.7207283622406
 20
25.36363636363636
 30
0.0
 11
795.7207283622406
 21
22.620046554624043
 31
0.0
  0
ARC
  5
10224
330
1F
100
AcDbEntity
  8
0
100
AcDbCircle
 10
798.6423679866335
 20
22.436219320065803
 30
0.0
 40
2.9274170435706015
100
AcDbArc
 50
90.00000000000006
 51
176.3997411858368
  0
LINE
  5
10225
330
1F
100
AcDbEntity
  8
0
100
AcDbLine
 10
798.6423679866335
 20
25.363636363636406
 30
0.0
 11
840.4038484819538
 21
25.36363636363634
 31
0.0
  0
ARC
  5
10226
330
1F
100
AcDbEntity
  8
0
100
AcDbCircle
 10
840.2159765791433
 20
23.702426354328118
 30
0.0
 40
1.6717997927058825
100
AcDbArc
 50
-65.99999999999991
 51
83.54764059499861
  0
LINE
  5
10227
330
1F
100
AcDbEntity
  8
0
100
AcDbLine
 10
840.8959588147234
 20
22.175161247613822
 30
0.0
 11
798.3031881872472
 21
3.211637977494691
 31
0.0
  0
ARC
  5
10228
330
1F
100
AcDbEntity
  8
0
100
AcDbCircle
 10
797.7878029214462
 20
5.135888241163768
 30
0.0
 40
1.992074559205883
100
AcDbArc
 50
180.0
 51
284.99399805870695
  0
ARC
  5
10229
330
1F
100
AcDbEntity
  8
0
100
AcDbCircle
 10
795.7582283622403
 20
5.135888241163771
 30
0.0
 40
0.03750000000000142
100
AcDbArc
 50
0.0
 51
180.0
  0
LINE
  5
1022A
330
1F
100
AcDbEntity
  8
0
100
AcDbLine
 10
795.7207283622403
 20
5.135888241163766
 30
0.0
 11
795.7207283622406
 21
2.0749999999999993
 31
0.0
  0
LINE
  5
1022B
330
1F
100
AcDbEntity
  8
0
100
AcDbLine
 10
795.7207283622406
 20
2.0749999999999993
 30
0.0
 11
794.7207283622406
 21
2.0749999999999993
 31
0.0
  0
LINE
  5
1022C
330
1F
100
AcDbEntity
  8
0
100
AcDbLine
 10
794.7207283622406
 20
2.0749999999999993
 30
0.0
 11
794.7207283622406
 21
0.0
 31
0.0
  0
LINE
  5
1022D
330
1F
100
AcDbEntity
  8
0
100
AcDbLine
 10
794.7207283622406
 20
0.0
 30
0.0
 11
859.4320919986044
 21
0.0
 31
0.0
  0
LINE
  5
1022E
330
1F
100
AcDbEntity
  8
0
100
AcDbLine
 10
859.4320919986044
 20
0.0
 30
0.0
 11
859.4320919986044
 21
28.43863636363637
 31
0.0
  0
LINE
  5
1022F
330
1F
100
AcDbEntity
  8
0
100
AcDbLine
 10
859.4320919986044
 20
28.43863636363637
 30
0.0
 11
844.3907283622407
 21
28.43863636363637
 31
0.0
  0
LINE
  5
10230
330
1F
100
AcDbEntity
  8
0
100
AcDbLine
 10
844.3907283622407
 20
28.43863636363637
 30
0.0
 11
844.3907283622407
 21
27.43863636363636
 31
0.0
  0
LINE
  5
10231
330
1F
100
AcDbEntity
  8
0
100
AcDbLine
 10
844.3907283622407
 20
27.43863636363636
 30
0.0
 11
843.4657283622406
 21
27.43863636363636
 31
0.0
  0
LINE
  5
10232
330
1F
100
AcDbEntity
  8
0
100
AcDbLine
 10
843.4657283622406
 20
27.43863636363636
 30
0.0
 11
843.4657283622406
 21
28.43863636363637
 31
0.0
  0
LINE
  5
10233
330
1F
100
AcDbEntity
  8
0
100
AcDbLine
 10
843.4657283622406
 20
28.43863636363637
 30
0.0
 11
811.2807283622407
 21
28.438636363636363
 31
0.0
  0
LINE
  5
10234
330
1F
100
AcDbEntity
  8
0
100
AcDbLine
 10
811.2807283622407
 20
28.438636363636363
 30
0.0
 11
811.2807283622407
 21
27.43863636363636
 31
0.0
  0
LINE
  5
10235
330
1F
100
AcDbEntity
  8
0
100
AcDbLine
 10
811.2807283622407
 20
27.43863636363636
 30
0.0
 11
810.3557283622406
 21
27.43863636363636
 31
0.0
  0
LINE
  5
10236
330
1F
100
AcDbEntity
  8
0
100
AcDbLine
 10
810.3557283622406
 20
27.43863636363636
 30
0.0
 11
810.3557283622406
 21
28.438636363636363
 31
0.0
  0
LINE
  5
10237
330
1F
100
AcDbEntity
  8
0
100
AcDbLine
 10
810.3557283622406
 20
28.438636363636363
 30
0.0
 11
795.7207283622406
 21
28.438636363636363
 31
0.0
  0
LINE
  5
10238
330
1F
100
AcDbEntity
  8
0
100
AcDbLine
 10
795.7207283622406
 20
28.438636363636363
 30
0.0
 11
795.7207283622406
 21
27.43863636363636
 31
0.0
  0
LINE
  5
10239
330
1F
100
AcDbEntity
  8
0
100
AcDbLine
 10
795.7207283622406
 20
27.43863636363636
 30
0.0
 11
794.7207283622406
 21
27.438636363636363
 31
0.0
  0
ARC
  5
1023A
330
1F
100
AcDbEntity
  8
0
100
AcDbCircle
 10
853.4409472255709
 20
4.918952065559383
 30
0.0
 40
2.9161447730334373
100
AcDbArc
 50
-77.22444410741033
 51
0.0
  0
LINE
  5
1023B
330
1F
100
AcDbEntity
  8
0
100
AcDbLine
 10
854.0858014618839
 20
2.075000000000001
 30
0.0
 11
806.2768712931767
 21
2.0749999999999975
 31
0.0
  0
ARC
  5
1023C
330
1F
100
AcDbEntity
  8
0
100
AcDbCircle
 10
806.2768712931767
 20
3.3890739931779326
 30
0.0
 40
1.3140739931779335
100
AcDbArc
 50
154.03701170974426
 51
270.00000000000017
  0
LINE
  5
1023D
330
1F
100
AcDbEntity
  8
0
100
AcDbLine
 10
805.0954175422019
 20
3.964363045615153
 30
0.0
 11
853.1589723493049
 21
25.36363636363636
 31
0.0
  0
LINE
  5
1023E
330
1F
100
AcDbEntity
  8
0
100
AcDbLine
 10
853.1589723493049
 20
25.36363636363636
 30
0.0
 11
854.6299149144966
 21
25.363636363636363
 31
0.0
  0
ARC
  5
1023F
330
1F
100
AcDbEntity
  8
0
100
AcDbCircle
 10
853.9168767655553
 20
23.02975167423363
 30
0.0
 40
2.4403772547034817
100
AcDbArc
 50
0.6602342959474103
 51
73.01127125487943
  0
LINE
  5
10240
330
1F
100
AcDbEntity
  8
0
100
AcDbLine
 10
856.3570919986043
 20
23.057872159105678
 30
0.0
 11
856.3570919986043
 21
4.918952065559385
 31
0.0
  0
LINE
  5
10241
330
1F
100
AcDbEntity
  8
0
100
AcDbLine
 10
930.4320919986044
 20
31.698775863506732
 30
0.0
 11
930.4320919986044
 21
28.33846081792254
 31
0.0
  0
LINE
  5
10242
330
1F
100
AcDbEntity
  8
0
100
AcDbLine
 10
930.4320919986044
 20
28.33846081792254
 30
0.0
 11
931.4320919986044
 21
28.33846081792254
 31
0.0
  0
LINE
  5
10243
330
1F
100
AcDbEntity
  8
0
100
AcDbLine
 10
931.4320919986044
 20
28.33846081792254
 30
0.0
 11
931.4320919986044
 21
14.660659365624156
 31
0.0
  0
LINE
  5
10244
330
1F
100
AcDbEntity
  8
0
100
AcDbLine
 10
931.4320919986044
 20
14.660659365624156
 30
0.0
 11
930.4320919986044
 21
14.660659365624156
 31
0.0
  0
LINE
  5
10245
330
1F
100
AcDbEntity
  8
0
100
AcDbLine
 10
930.4320919986044
 20
14.660659365624156
 30
0.0
 11
930.4320919986044
 21
10.585659365624153
 31
0.0
  0
LINE
  5
10246
330
1F
100
AcDbEntity
  8
0
100
AcDbLine
 10
930.4320919986044
 20
10.585659365624153
 30
0.0
 11
931.4320919986044
 21
10.585659365624151
 31
0.0
  0
LINE
  5
10247
330
1F
100
AcDbEntity
  8
0
100
AcDbLine
 10
931.4320919986044
 20
10.585659365624151
 30
0.0
 11
931.4320919986044
 21
8.165909090909098
 31
0.0
  0
LINE
  5
10248
330
1F
100
AcDbEntity
  8
0
100
AcDbLine
 10
931.4320919986044
 20
8.165909090909098
 30
0.0
 11
926.3788425677917
 21
8.165909090909098
 31
0.0
  0
LINE
  5
10249
330
1F
100
AcDbEntity
  8
0
100
AcDbLine
 10
926.3788425677917
 20
8.165909090909098
 30
0.0
 11
926.3788425677917
 21
9.165909090909098
 31
0.0
  0
LINE
  5
1024A
330
1F
100
AcDbEntity
  8
0
100
AcDbLine
 10
926.3788425677917
 20
9.165909090909098
 30
0.0
 11
922.3038425677917
 21
9.165909090909098
 31
0.0
  0
LINE
  5
1024B
330
1F
100
AcDbEntity
  8
0
100
AcDbLine
 10
922.3038425677917
 20
9.165909090909098
 30
0.0
 11
922.3038425677917
 21
8.165909090909098
 31
0.0
  0
LINE
  5
1024C
330
1F
100
AcDbEntity
  8
0
100
AcDbLine
 10
922.3038425677917
 20
8.165909090909098
 30
0.0
 11
911.147546684286
 21
8.165909090909098
 31
0.0
  0
LINE
  5
1024D
330
1F
100
AcDbEntity
  8
0
100
AcDbLine
 10
911.147546684286
 20
8.165909090909098
 30
0.0
 11
911.147546684286
 21
9.165909090909098
 31
0.0
  0
LINE
  5
1024E
330
1F
100
AcDbEntity
  8
0
100
AcDbLine
 10
911.147546684286
 20
9.165909090909098
 30
0.0
 11
906.7808362597651
 21
9.165909090909096
 31
0.0
  0
LINE
  5
1024F
330
1F
100
AcDbEntity
  8
0
100
AcDbLine
 10
906.7808362597651
 20
9.165909090909096
 30
0.0
 11
906.7808362597651
 21
8.165909090909098
 31
0.0
  0
LINE
  5
10250
330
1F
100
AcDbEntity
  8
0
100
AcDbLine
 10
906.7808362597651
 20
8.165909090909098
 30
0.0
 11
897.9159724560869
 21
8.165909090909098
 31
0.0
  0
LINE
  5
10251
330
1F
100
AcDbEntity
  8
0
100
AcDbLine
 10
897.9159724560869
 20
8.165909090909098
 30
0.0
 11
897.9159724560869
 21
9.165909090909096
 31
0.0
  0
LINE
  5
10252
330
1F
100
AcDbEntity
  8
0
100
AcDbLine
 10
897.9159724560869
 20
9.165909090909096
 30
0.0
 11
893.840972456087
 21
9.165909090909096
 31
0.0
  0
LINE
  5
10253
330
1F
100
AcDbEntity
  8
0
100
AcDbLine
 10
893.840972456087
 20
9.165909090909096
 30
0.0
 11
893.840972456087
 21
8.165909090909098
 31
0.0
  0
LINE
  5
10254
330
1F
100
AcDbEntity
  8
0
100
AcDbLine
 10
893.840972456087
 20
8.165909090909098
 30
0.0
 11
888.5980010923863
 21
8.165909090909098
 31
0.0
  0
LINE
  5
10255
330
1F
100
AcDbEntity
  8
0
100
AcDbLine
 10
888.5980010923863
 20
8.165909090909098
 30
0.0
 11
888.5980013593678
 21
11.65081727930695
 31
0.0
  0
LINE
  5
10256
330
1F
100
AcDbEntity
  8
0
100
AcDbLine
 10
888.5980013593678
 20
11.65081727930695
 30
0.0
 11
889.5980013622408
 21
11.65081727930695
 31
0.0
  0
LINE
  5
10257
330
1F
100
AcDbEntity
  8
0
100
AcDbLine
 10
889.5980013622408
 20
11.65081727930695
 30
0.0
 11
889.5980013622408
 21
15.725817279306952
 31
0.0
  0
LINE
  5
10258
330
1F
100
AcDbEntity
  8
0
100
AcDbLine
 10
889.5980013622408
 20
15.725817279306952
 30
0.0
 11
888.5980013622408
 21
15.725817279306952
 31
0.0
  0
LINE
  5
10259
330
1F
100
AcDbEntity
  8
0
100
AcDbLine
 10
888.5980013622408
 20
15.725817279306952
 30
0.0
 11
888.5980013622408
 21
28.516140456524028
 31
0.0
  0
LINE
  5
1025A
330
1F
100
AcDbEntity
  8
0
100
AcDbLine
 10
888.5980013622408
 20
28.516140456524028
 30
0.0
 11
889.5980010895134
 21
28.516140456524028
 31
0.0
  0
LINE
  5
1025B
330
1F
100
AcDbEntity
  8
0
100
AcDbLine
 10
889.5980010895134
 20
28.516140456524028
 30
0.0
 11
889.5980010895134
 21
32.59114045652403
 31
0.0
  0
LINE
  5
1025C
330
1F
100
AcDbEntity
  8
0
100
AcDbLine
 10
889.5980010895134
 20
32.59114045652403
 30
0.0
 11
888.5980013622408
 21
32.59114045652403
 31
0.0
  0
LINE
  5
1025D
330
1F
100
AcDbEntity
  8
0
100
AcDbLine
 10
888.5980013622408
 20
32.59114045652403
 30
0.0
 11
888.5980013622408
 21
34.98409090909092
 31
0.0
  0
LINE
  5
1025E
330
1F
100
AcDbEntity
  8
0
100
AcDbLine
 10
888.5980013622408
 20
34.98409090909092
 30
0.0
 11
879.4320919986044
 21
34.98409090909092
 31
0.0
  0
LINE
  5
1025F
330
1F
100
AcDbEntity
  8
0
100
AcDbLine
 10
879.4320919986044
 20
34.98409090909092
 30
0.0
 11
879.4320919986044
 21
0.0
 31
0.0
  0
LINE
  5
10260
330
1F
100
AcDbEntity
  8
0
100
AcDbLine
 10
879.4320919986044
 20
0.0
 30
0.0
 11
939.5980010895134
 21
3.552713678800501e-15
 31
0.0
  0
LINE
  5
10261
330
1F
100
AcDbEntity
  8
0
100
AcDbLine
 10
939.5980010895134
 20
3.552713678800501e-15
 30
0.0
 11
939.5980010895134
 21
34.24697759346476
 31
0.0
  0
LINE
  5
10262
330
1F
100
AcDbEntity
  8
0
100
AcDbLine
 10
939.5980010895134
 20
34.24697759346476
 30
0.0
 11
931.4320919986044
 21
34.24697759346476
 31
0.0
  0
LINE
  5
10263
330
1F
100
AcDbEntity
  8
0
100
AcDbLine
 10
931.4320919986044
 20
34.24697759346476
 30
0.0
 11
931.4320919986044
 21
31.698775863506732
 31
0.0
  0
LINE
  5
10264
330
1F
100
AcDbEntity
  8
0
100
AcDbLine
 10
931.4320919986044
 20
31.698775863506732
 30
0.0
 11
930.4320919986044
 21
31.698775863506732
 31
0.0
  0
ENDSEC
  0
SECTION
  2
OBJECTS
  0
DICTIONARY
  5
C
330
None
100
AcDbDictionary
281
1
  3
ACAD_GROUP
350
D
  3
ACAD_MLINESTYLE
350
17
  3
ACAD_COLOR
350
1005A
  3
ACAD_LAYOUT
350
1005B
  3
ACAD_MATERIAL
350
1005C
  3
ACAD_MLEADERSTYLE
350
1005D
  3
ACAD_PLOTSETTINGS
350
1005E
  3
ACAD_PLOTSTYLENAME
350
1005F
  3
ACAD_SCALELIST
350
10061
  3
ACAD_TABLESTYLE
350
10062
  3
ACAD_VISUALSTYLE
350
10063
  0
DICTIONARY
  5
D
330
None
100
AcDbDictionary
281
1
  0
DICTIONARY
  5
1A
330
C
100
AcDbDictionary
281
1
  0
DICTIONARY
  5
17
330
None
100
AcDbDictionary
281
1
  3
Standard
350
10069
  0
DICTIONARY
  5
1005A
330
C
100
AcDbDictionary
281
1
  0
DICTIONARY
  5
1005B
330
C
100
AcDbDictionary
281
1
  3
Model
350
10064
  3
Layout1
350
10065
  0
DICTIONARY
  5
1005C
330
C
100
AcDbDictionary
281
1
  3
ByBlock
350
10066
  3
ByLayer
350
10067
  3
Global
350
10068
  0
DICTIONARY
  5
1005D
330
C
100
AcDbDictionary
281
1
  3
Standard
350
1006E
  0
DICTIONARY
  5
1005E
330
C
100
AcDbDictionary
281
1
  0
ACDBDICTIONARYWDFLT
  5
1005F
330
C
100
AcDbDictionary
281
1
  3
Normal
350
10060
100
AcDbDictionaryWithDefault
340
10060
  0
ACDBPLACEHOLDER
  5
10060
330
1005F
  0
DICTIONARY
  5
10061
330
C
100
AcDbDictionary
281
1
  0
DICTIONARY
  5
10062
330
C
100
AcDbDictionary
281
1
  0
DICTIONARY
  5
10063
330
C
100
AcDbDictionary
281
1
  0
LAYOUT
  5
10064
330
1005B
100
AcDbPlotSettings
  1

  2
Adobe PDF
  4
A4
  6

 40
3.175
 41
3.175
 42
3.175
 43
3.175
 44
209.91
 45
297.03
 46
0.0
 47
0.0
 48
0.0
 49
0.0
140
0.0
141
0.0
142
1.0
143
1.0
 70
1024
 72
0
 73
1
 74
5
  7

 75
16
 76
0
 77
2
 78
300
147
1.0
148
0.0
149
0.0
100
AcDbLayout
  1
Model
 70
1
 71
0
 10
-3.175
 20
-3.175
 11
293.857
 21
206.735
 12
0.0
 22
0.0
 32
0.0
 14
29.068
 24
20.356
 34
0.0
 15
261.614
 25
183.204
 35
0.0
146
0.0
 13
0.0
 23
0.0
 33
0.0
 16
1.0
 26
0.0
 36
0.0
 17
0.0
 27
1.0
 37
0.0
 76
1
330
1F
  0
LAYOUT
  5
10065
330
1005B
100
AcDbPlotSettings
  1

  2
Adobe PDF
  4
A4
  6

 40
3.175
 41
3.175
 42
3.175
 43
3.175
 44
209.91
 45
297.03
 46
0.0
 47
0.0
 48
0.0
 49
0.0
140
0.0
141
0.0
142
1.0
143
1.0
 70
0
 72
0
 73
1
 74
5
  7

 75
16
 76
0
 77
2
 78
300
147
1.0
148
0.0
149
0.0
100
AcDbLayout
  1
Layout1
 70
1
 71
1
 10
-3.175
 20
-3.175
 11
293.857
 21
206.735
 12
0.0
 22
0.0
 32
0.0
 14
29.068
 24
20.356
 34
0.0
 15
261.614
 25
183.204
 35
0.0
146
0.0
 13
0.0
 23
0.0
 33
0.0
 16
1.0
 26
0.0
 36
0.0
 17
0.0
 27
1.0
 37
0.0
 76
1
330
1B
  0
MATERIAL
  5
10066
102
{ACAD_REACTORS
330
1005C
102
}
330
1005C
100
AcDbMaterial
  1
ByBlock
  2

 70
0
 40
1.0
 71
1
 41
1.0
 91
-1023410177
 42
1.0
 72
1
  3

 73
1
 74
1
 75
1
 44
0.5
 73
0
 45
1.0
 46
1.0
 77
1
  4

 78
1
 79
1
170
1
 48
1.0
171
1
  6

172
1
173
1
174
1
140
1.0
141
1.0
175
1
  7

176
1
177
1
178
1
143
1.0
179
1
  8

270
1
271
1
272
1
145
1.0
146
1.0
273
1
  9

274
1
275
1
276
1
 42
1.0
 72
1
  3

 73
1
 74
1
 75
1
 94
63
  0
MATERIAL
  5
10067
102
{ACAD_REACTORS
330
1005C
102
}
330
1005C
100
AcDbMaterial
  1
ByLayer
  2

 70
0
 40
1.0
 71
1
 41
1.0
 91
-1023410177
 42
1.0
 72
1
  3

 73
1
 74
1
 75
1
 44
0.5
 73
0
 45
1.0
 46
1.0
 77
1
  4

 78
1
 79
1
170
1
 48
1.0
171
1
  6

172
1
173
1
174
1
140
1.0
141
1.0
175
1
  7

176
1
177
1
178
1
143
1.0
179
1
  8

270
1
271
1
272
1
145
1.0
146
1.0
273
1
  9

274
1
275
1
276
1
 42
1.0
 72
1
  3

 73
1
 74
1
 75
1
 94
63
  0
MATERIAL
  5
10068
102
{ACAD_REACTORS
330
1005C
102
}
330
1005C
100
AcDbMaterial
  1
Global
  2

 70
0
 40
1.0
 71
1
 41
1.0
 91
-1023410177
 42
1.0
 72
1
  3

 73
1
 74
1
 75
1
 44
0.5
 73
0
 45
1.0
 46
1.0
 77
1
  4

 78
1
 79
1
170
1
 48
1.0
171
1
  6

172
1
173
1
174
1
140
1.0
141
1.0
175
1
  7

176
1
177
1
178
1
143
1.0
179
1
  8

270
1
271
1
272
1
145
1.0
146
1.0
273
1
  9

274
1
275
1
276
1
 42
1.0
 72
1
  3

 73
1
 74
1
 75
1
 94
63
  0
MLINESTYLE
  5
10069
102
{ACAD_REACTORS
330
17
102
}
330
17
100
AcDbMlineStyle
  2
Standard
 70
0
  3

 62
256
 51
90.0
 52
90.0
 71
2
 49
0.5
 62
256
  6
BYLAYER
 49
-0.5
 62
256
  6
BYLAYER
  0
MLEADERSTYLE
  5
1006E
102
{ACAD_REACTORS
330
1005D
102
}
330
1005D
100
AcDbMLeaderStyle
179
2
170
2
171
1
172
0
 90
2
 40
0.0
 41
0.0
173
1
 91
-1056964608
 92
-2
290
1
 42
2.0
291
1
 43
8.0
  3
Standard
 44
4.0
300

342
11
174
1
175
1
176
0
178
1
 93
-1056964608
 45
4.0
292
0
297
0
 46
4.0
 94
-1056964608
 47
1.0
 49
1.0
140
1.0
294
1
141
0.0
177
0
142
1.0
295
0
296
0
143
3.75
271
0
272
9
273
9
  0
ENDSEC
  0
EOF
