  0
SECTION
  2
HEADER
  9
$ACADVER
  1
AC1009
  9
$EXTMIN
 10
0.0
 20
0.0
 30
0.0
  9
$EXTMAX
 10
1000.0
 20
1000.0
 30
0.0
  9
$FILLMODE
 70
 0
  9
$SPLFRAME
 70
 1
  0
ENDSEC
  0
SECTION
  2
TABLES
  0
TABLE
  2
LAYER
 70
1
  0
LAYER
  2
0
 70
     0
 62
     7
  6
CONTINUOUS
  0
ENDTAB
  0
ENDSEC
  0
SECTION
  2
ENTITIES
  0
POLYLINE
  8
0
 62
     0
 66
     1
 10
0
 20
0
 30
0.0
 70
     1
 40
0
 41
0
  0
VERTEX
  8
0
 10
1.60558
 20
193.811
 30
0.0
 40
0
 41
0
  0
VERTEX
  8
0
 10
1.60558
 20
194.811
 30
0.0
 40
0
 41
0
  0
VERTEX
  8
0
 10
16.2406
 20
194.811
 30
0.0
 40
0
 41
0
  0
VERTEX
  8
0
 10
16.2406
 20
193.811
 30
0.0
 40
0
 41
0
  0
VERTEX
  8
0
 10
17.1657
 20
193.811
 30
0.0
 40
0
 41
0
  0
VERTEX
  8
0
 10
17.1657
 20
194.811
 30
0.0
 40
0
 41
0
  0
VERTEX
  8
0
 10
49.3507
 20
194.811
 30
0.0
 40
0
 41
0
  0
VERTEX
  8
0
 10
49.3507
 20
193.811
 30
0.0
 40
0
 41
0
  0
VERTEX
  8
0
 10
50.2757
 20
193.811
 30
0.0
 40
0
 41
0
  0
VERTEX
  8
0
 10
50.2757
 20
194.811
 30
0.0
 40
0
 41
0
  0
VERTEX
  8
0
 10
65.3171
 20
194.811
 30
0.0
 40
0
 41
0
  0
VERTEX
  8
0
 10
65.3171
 20
166.372
 30
0.0
 40
0
 41
0
  0
VERTEX
  8
0
 10
0.605578
 20
166.372
 30
0.0
 40
0
 41
0
  0
VERTEX
  8
0
 10
0.605578
 20
168.447
 30
0.0
 40
0
 41
0
  0
VERTEX
  8
0
 10
1.60558
 20
168.447
 30
0.0
 40
0
 41
0
  0
VERTEX
  8
0
 10
1.60558
 20
171.508
 30
0.0
 40
0
 41
0
  0
VERTEX
  8
0
 10
1.60558
 20
171.515
 30
0.0
 40
0
 41
0
  0
VERTEX
  8
0
 10
1.61729
 20
171.536
 30
0.0
 40
0
 41
0
  0
VERTEX
  8
0
 10
1.64307
 20
171.546
 30
0.0
 40
0
 41
0
  0
VERTEX
  8
0
 10
1.66883
 20
171.536
 30
0.0
 40
0
 41
0
  0
VERTEX
  8
0
 10
1.68061
 20
171.515
 30
0.0
 40
0
 41
0
  0
VERTEX
  8
0
 10
1.68061
 20
171.508
 30
0.0
 40
0
 41
0
  0
VERTEX
  8
0
 10
1.68061
 20
171.451
 30
0.0
 40
0
 41
0
  0
VERTEX
  8
0
 10
1.6939
 20
171.278
 30
0.0
 40
0
 41
0
  0
VERTEX
  8
0
 10
1.73324
 20
171.053
 30
0.0
 40
0
 41
0
  0
VERTEX
  8
0
 10
1.79764
 20
170.836
 30
0.0
 40
0
 41
0
  0
VERTEX
  8
0
 10
1.88601
 20
170.628
 30
0.0
 40
0
 41
0
  0
VERTEX
  8
0
 10
1.9974
 20
170.431
 30
0.0
 40
0
 41
0
  0
VERTEX
  8
0
 10
2.13086
 20
170.247
 30
0.0
 40
0
 41
0
  0
VERTEX
  8
0
 10
2.28532
 20
170.079
 30
0.0
 40
0
 41
0
  0
VERTEX
  8
0
 10
2.41422
 20
169.962
 30
0.0
 40
0
 41
0
  0
VERTEX
  8
0
 10
2.4599
 20
169.928
 30
0.0
 40
0
 41
0
  0
VERTEX
  8
0
 10
2.50553
 20
169.893
 30
0.0
 40
0
 41
0
  0
VERTEX
  8
0
 10
2.65067
 20
169.799
 30
0.0
 40
0
 41
0
  0
VERTEX
  8
0
 10
2.85303
 20
169.693
 30
0.0
 40
0
 41
0
  0
VERTEX
  8
0
 10
3.06483
 20
169.611
 30
0.0
 40
0
 41
0
  0
VERTEX
  8
0
 10
3.28386
 20
169.554
 30
0.0
 40
0
 41
0
  0
VERTEX
  8
0
 10
3.50786
 20
169.524
 30
0.0
 40
0
 41
0
  0
VERTEX
  8
0
 10
3.73469
 20
169.518
 30
0.0
 40
0
 41
0
  0
VERTEX
  8
0
 10
3.96218
 20
169.538
 30
0.0
 40
0
 41
0
  0
VERTEX
  8
0
 10
4.13243
 20
169.569
 30
0.0
 40
0
 41
0
  0
VERTEX
  8
0
 10
4.18804
 20
169.585
 30
0.0
 40
0
 41
0
  0
VERTEX
  8
0
 10
46.781
 20
188.547
 30
0.0
 40
0
 41
0
  0
VERTEX
  8
0
 10
46.8443
 20
188.576
 30
0.0
 40
0
 41
0
  0
VERTEX
  8
0
 10
47.0251
 20
188.682
 30
0.0
 40
0
 41
0
  0
VERTEX
  8
0
 10
47.2396
 20
188.851
 30
0.0
 40
0
 41
0
  0
VERTEX
  8
0
 10
47.4217
 20
189.05
 30
0.0
 40
0
 41
0
  0
VERTEX
  8
0
 10
47.5685
 20
189.275
 30
0.0
 40
0
 41
0
  0
VERTEX
  8
0
 10
47.6778
 20
189.519
 30
0.0
 40
0
 41
0
  0
VERTEX
  8
0
 10
47.7467
 20
189.781
 30
0.0
 40
0
 41
0
  0
VERTEX
  8
0
 10
47.7726
 20
190.051
 30
0.0
 40
0
 41
0
  0
VERTEX
  8
0
 10
47.7638
 20
190.261
 30
0.0
 40
0
 41
0
  0
VERTEX
  8
0
 10
47.7532
 20
190.331
 30
0.0
 40
0
 41
0
  0
VERTEX
  8
0
 10
47.7425
 20
190.399
 30
0.0
 40
0
 41
0
  0
VERTEX
  8
0
 10
47.6879
 20
190.601
 30
0.0
 40
0
 41
0
  0
VERTEX
  8
0
 10
47.5811
 20
190.853
 30
0.0
 40
0
 41
0
  0
VERTEX
  8
0
 10
47.4368
 20
191.081
 30
0.0
 40
0
 41
0
  0
VERTEX
  8
0
 10
47.2589
 20
191.281
 30
0.0
 40
0
 41
0
  0
VERTEX
  8
0
 10
47.0511
 20
191.45
 30
0.0
 40
0
 41
0
  0
VERTEX
  8
0
 10
46.8176
 20
191.586
 30
0.0
 40
0
 41
0
  0
VERTEX
  8
0
 10
46.5621
 20
191.682
 30
0.0
 40
0
 41
0
  0
VERTEX
  8
0
 10
46.3578
 20
191.728
 30
0.0
 40
0
 41
0
  0
VERTEX
  8
0
 10
46.2888
 20
191.736
 30
0.0
 40
0
 41
0
  0
VERTEX
  8
0
 10
4.52724
 20
191.736
 30
0.0
 40
0
 41
0
  0
VERTEX
  8
0
 10
4.45562
 20
191.736
 30
0.0
 40
0
 41
0
  0
VERTEX
  8
0
 10
4.24078
 20
191.722
 30
0.0
 40
0
 41
0
  0
VERTEX
  8
0
 10
3.96197
 20
191.682
 30
0.0
 40
0
 41
0
  0
VERTEX
  8
0
 10
3.69206
 20
191.615
 30
0.0
 40
0
 41
0
  0
VERTEX
  8
0
 10
3.4324
 20
191.525
 30
0.0
 40
0
 41
0
  0
VERTEX
  8
0
 10
3.18435
 20
191.411
 30
0.0
 40
0
 41
0
  0
VERTEX
  8
0
 10
2.94922
 20
191.275
 30
0.0
 40
0
 41
0
  0
VERTEX
  8
0
 10
2.7284
 20
191.118
 30
0.0
 40
0
 41
0
  0
VERTEX
  8
0
 10
2.52328
 20
190.943
 30
0.0
 40
0
 41
0
  0
VERTEX
  8
0
 10
2.33507
 20
190.749
 30
0.0
 40
0
 41
0
  0
VERTEX
  8
0
 10
2.16515
 20
190.539
 30
0.0
 40
0
 41
0
  0
VERTEX
  8
0
 10
2.01492
 20
190.313
 30
0.0
 40
0
 41
0
  0
VERTEX
  8
0
 10
1.88569
 20
190.072
 30
0.0
 40
0
 41
0
  0
VERTEX
  8
0
 10
1.77881
 20
189.818
 30
0.0
 40
0
 41
0
  0
VERTEX
  8
0
 10
1.69558
 20
189.553
 30
0.0
 40
0
 41
0
  0
VERTEX
  8
0
 10
1.63737
 20
189.278
 30
0.0
 40
0
 41
0
  0
VERTEX
  8
0
 10
1.61003
 20
189.064
 30
0.0
 40
0
 41
0
  0
VERTEX
  8
0
 10
1.60558
 20
188.993
 30
0.0
 40
0
 41
0
  0
VERTEX
  8
0
 10
1.60558
 20
191.736
 30
0.0
 40
0
 41
0
  0
VERTEX
  8
0
 10
0.605578
 20
191.736
 30
0.0
 40
0
 41
0
  0
VERTEX
  8
0
 10
0.605578
 20
193.811
 30
0.0
 40
0
 41
0
  0
VERTEX
  8
0
 10
1.60558
 20
193.811
 30
0.0
 40
0
 41
0
  0
SEQEND
 8
0
  0
POLYLINE
  8
0
 62
     0
 66
     1
 10
0
 20
0
 30
0.0
 70
     1
 40
0
 41
0
  0
VERTEX
  8
0
 10
62.2421
 20
189.431
 30
0.0
 40
0
 41
0
  0
VERTEX
  8
0
 10
62.2415
 20
189.481
 30
0.0
 40
0
 41
0
  0
VERTEX
  8
0
 10
62.2318
 20
189.628
 30
0.0
 40
0
 41
0
  0
VERTEX
  8
0
 10
62.206
 20
189.822
 30
0.0
 40
0
 41
0
  0
VERTEX
  8
0
 10
62.1651
 20
190.011
 30
0.0
 40
0
 41
0
  0
VERTEX
  8
0
 10
62.1099
 20
190.196
 30
0.0
 40
0
 41
0
  0
VERTEX
  8
0
 10
62.0407
 20
190.374
 30
0.0
 40
0
 41
0
  0
VERTEX
  8
0
 10
61.9582
 20
190.546
 30
0.0
 40
0
 41
0
  0
VERTEX
  8
0
 10
61.8628
 20
190.71
 30
0.0
 40
0
 41
0
  0
VERTEX
  8
0
 10
61.755
 20
190.865
 30
0.0
 40
0
 41
0
  0
VERTEX
  8
0
 10
61.6354
 20
191.013
 30
0.0
 40
0
 41
0
  0
VERTEX
  8
0
 10
61.5047
 20
191.15
 30
0.0
 40
0
 41
0
  0
VERTEX
  8
0
 10
61.3633
 20
191.278
 30
0.0
 40
0
 41
0
  0
VERTEX
  8
0
 10
61.2118
 20
191.394
 30
0.0
 40
0
 41
0
  0
VERTEX
  8
0
 10
61.0506
 20
191.499
 30
0.0
 40
0
 41
0
  0
VERTEX
  8
0
 10
60.8804
 20
191.592
 30
0.0
 40
0
 41
0
  0
VERTEX
  8
0
 10
60.7017
 20
191.671
 30
0.0
 40
0
 41
0
  0
VERTEX
  8
0
 10
60.5621
 20
191.722
 30
0.0
 40
0
 41
0
  0
VERTEX
  8
0
 10
60.5149
 20
191.736
 30
0.0
 40
0
 41
0
  0
VERTEX
  8
0
 10
59.0439
 20
191.736
 30
0.0
 40
0
 41
0
  0
VERTEX
  8
0
 10
10.9803
 20
170.337
 30
0.0
 40
0
 41
0
  0
VERTEX
  8
0
 10
10.9619
 20
170.299
 30
0.0
 40
0
 41
0
  0
VERTEX
  8
0
 10
10.9164
 20
170.181
 30
0.0
 40
0
 41
0
  0
VERTEX
  8
0
 10
10.8734
 20
170.021
 30
0.0
 40
0
 41
0
  0
VERTEX
  8
0
 10
10.8511
 20
169.857
 30
0.0
 40
0
 41
0
  0
VERTEX
  8
0
 10
10.8495
 20
169.692
 30
0.0
 40
0
 41
0
  0
VERTEX
  8
0
 10
10.8684
 20
169.529
 30
0.0
 40
0
 41
0
  0
VERTEX
  8
0
 10
10.9078
 20
169.368
 30
0.0
 40
0
 41
0
  0
VERTEX
  8
0
 10
10.9676
 20
169.212
 30
0.0
 40
0
 41
0
  0
VERTEX
  8
0
 10
11.0253
 20
169.1
 30
0.0
 40
0
 41
0
  0
VERTEX
  8
0
 10
11.0476
 20
169.065
 30
0.0
 40
0
 41
0
  0
VERTEX
  8
0
 10
11.0698
 20
169.029
 30
0.0
 40
0
 41
0
  0
VERTEX
  8
0
 10
11.1458
 20
168.928
 30
0.0
 40
0
 41
0
  0
VERTEX
  8
0
 10
11.2593
 20
168.807
 30
0.0
 40
0
 41
0
  0
VERTEX
  8
0
 10
11.3862
 20
168.701
 30
0.0
 40
0
 41
0
  0
VERTEX
  8
0
 10
11.5248
 20
168.612
 30
0.0
 40
0
 41
0
  0
VERTEX
  8
0
 10
11.6734
 20
168.542
 30
0.0
 40
0
 41
0
  0
VERTEX
  8
0
 10
11.8303
 20
168.49
 30
0.0
 40
0
 41
0
  0
VERTEX
  8
0
 10
11.9937
 20
168.458
 30
0.0
 40
0
 41
0
  0
VERTEX
  8
0
 10
12.1197
 20
168.447
 30
0.0
 40
0
 41
0
  0
VERTEX
  8
0
 10
12.1618
 20
168.447
 30
0.0
 40
0
 41
0
  0
VERTEX
  8
0
 10
59.9707
 20
168.447
 30
0.0
 40
0
 41
0
  0
VERTEX
  8
0
 10
60.0325
 20
168.461
 30
0.0
 40
0
 41
0
  0
VERTEX
  8
0
 10
60.2151
 20
168.514
 30
0.0
 40
0
 41
0
  0
VERTEX
  8
0
 10
60.4497
 20
168.6
 30
0.0
 40
0
 41
0
  0
VERTEX
  8
0
 10
60.6736
 20
168.706
 30
0.0
 40
0
 41
0
  0
VERTEX
  8
0
 10
60.8861
 20
168.828
 30
0.0
 40
0
 41
0
  0
VERTEX
  8
0
 10
61.0861
 20
168.967
 30
0.0
 40
0
 41
0
  0
VERTEX
  8
0
 10
61.2732
 20
169.121
 30
0.0
 40
0
 41
0
  0
VERTEX
  8
0
 10
61.4462
 20
169.289
 30
0.0
 40
0
 41
0
  0
VERTEX
  8
0
 10
61.6046
 20
169.472
 30
0.0
 40
0
 41
0
  0
VERTEX
  8
0
 10
61.7472
 20
169.667
 30
0.0
 40
0
 41
0
  0
VERTEX
  8
0
 10
61.8736
 20
169.872
 30
0.0
 40
0
 41
0
  0
VERTEX
  8
0
 10
61.9828
 20
170.089
 30
0.0
 40
0
 41
0
  0
VERTEX
  8
0
 10
62.0739
 20
170.315
 30
0.0
 40
0
 41
0
  0
VERTEX
  8
0
 10
62.1462
 20
170.549
 30
0.0
 40
0
 41
0
  0
VERTEX
  8
0
 10
62.1989
 20
170.79
 30
0.0
 40
0
 41
0
  0
VERTEX
  8
0
 10
62.2311
 20
171.039
 30
0.0
 40
0
 41
0
  0
VERTEX
  8
0
 10
62.2421
 20
171.228
 30
0.0
 40
0
 41
0
  0
VERTEX
  8
0
 10
62.2421
 20
171.292
 30
0.0
 40
0
 41
0
  0
VERTEX
  8
0
 10
62.2421
 20
189.431
 30
0.0
 40
0
 41
0
  0
SEQEND
 8
0
  0
POLYLINE
  8
0
 62
     0
 66
     1
 10
0
 20
0
 30
0.0
 70
     1
 40
0
 41
0
  0
VERTEX
  8
0
 10
17.1064
 20
164.372
 30
0.0
 40
0
 41
0
  0
VERTEX
  8
0
 10
17.1064
 20
163.372
 30
0.0
 40
0
 41
0
  0
VERTEX
  8
0
 10
33.4885
 20
163.372
 30
0.0
 40
0
 41
0
  0
VERTEX
  8
0
 10
33.4885
 20
164.372
 30
0.0
 40
0
 41
0
  0
VERTEX
  8
0
 10
46.9968
 20
164.372
 30
0.0
 40
0
 41
0
  0
VERTEX
  8
0
 10
46.9968
 20
163.372
 30
0.0
 40
0
 41
0
  0
VERTEX
  8
0
 10
63.7115
 20
163.372
 30
0.0
 40
0
 41
0
  0
VERTEX
  8
0
 10
63.7115
 20
158.371
 30
0.0
 40
0
 41
0
  0
VERTEX
  8
0
 10
64.7115
 20
158.371
 30
0.0
 40
0
 41
0
  0
VERTEX
  8
0
 10
64.7115
 20
149.408
 30
0.0
 40
0
 41
0
  0
VERTEX
  8
0
 10
63.7115
 20
149.408
 30
0.0
 40
0
 41
0
  0
VERTEX
  8
0
 10
63.7115
 20
140.571
 30
0.0
 40
0
 41
0
  0
VERTEX
  8
0
 10
52.2119
 20
140.571
 30
0.0
 40
0
 41
0
  0
VERTEX
  8
0
 10
52.2119
 20
139.571
 30
0.0
 40
0
 41
0
  0
VERTEX
  8
0
 10
40.54
 20
139.571
 30
0.0
 40
0
 41
0
  0
VERTEX
  8
0
 10
40.54
 20
140.571
 30
0.0
 40
0
 41
0
  0
VERTEX
  8
0
 10
17.1064
 20
140.571
 30
0.0
 40
0
 41
0
  0
VERTEX
  8
0
 10
17.1064
 20
139.571
 30
0.0
 40
0
 41
0
  0
VERTEX
  8
0
 10
7.34
 20
139.571
 30
0.0
 40
0
 41
0
  0
VERTEX
  8
0
 10
7.34
 20
140.571
 30
0.0
 40
0
 41
0
  0
VERTEX
  8
0
 10
0
 20
140.571
 30
0.0
 40
0
 41
0
  0
VERTEX
  8
0
 10
0
 20
156.694
 30
0.0
 40
0
 41
0
  0
VERTEX
  8
0
 10
9.09093
 20
156.694
 30
0.0
 40
0
 41
0
  0
VERTEX
  8
0
 10
9.09093
 20
160.71
 30
0.0
 40
0
 41
0
  0
VERTEX
  8
0
 10
0
 20
160.71
 30
0.0
 40
0
 41
0
  0
VERTEX
  8
0
 10
0
 20
163.372
 30
0.0
 40
0
 41
0
  0
VERTEX
  8
0
 10
6.81332
 20
163.372
 30
0.0
 40
0
 41
0
  0
VERTEX
  8
0
 10
6.81332
 20
164.372
 30
0.0
 40
0
 41
0
  0
VERTEX
  8
0
 10
17.1064
 20
164.372
 30
0.0
 40
0
 41
0
  0
SEQEND
 8
0
  0
POLYLINE
  8
0
 62
     0
 66
     1
 10
0
 20
0
 30
0.0
 70
     1
 40
0
 41
0
  0
VERTEX
  8
0
 10
17.8578
 20
147.481
 30
0.0
 40
0
 41
0
  0
VERTEX
  8
0
 10
21.4192
 20
147.481
 30
0.0
 40
0
 41
0
  0
VERTEX
  8
0
 10
21.4192
 20
145.736
 30
0.0
 40
0
 41
0
  0
VERTEX
  8
0
 10
17.8578
 20
145.736
 30
0.0
 40
0
 41
0
  0
VERTEX
  8
0
 10
17.8578
 20
147.481
 30
0.0
 40
0
 41
0
  0
SEQEND
 8
0
  0
POLYLINE
  8
0
 62
     0
 66
     1
 10
0
 20
0
 30
0.0
 70
     1
 40
0
 41
0
  0
VERTEX
  8
0
 10
53.4126
 20
147.481
 30
0.0
 40
0
 41
0
  0
VERTEX
  8
0
 10
56.974
 20
147.481
 30
0.0
 40
0
 41
0
  0
VERTEX
  8
0
 10
56.974
 20
145.736
 30
0.0
 40
0
 41
0
  0
VERTEX
  8
0
 10
53.4126
 20
145.736
 30
0.0
 40
0
 41
0
  0
VERTEX
  8
0
 10
53.4126
 20
147.481
 30
0.0
 40
0
 41
0
  0
SEQEND
 8
0
  0
POLYLINE
  8
0
 62
     0
 66
     1
 10
0
 20
0
 30
0.0
 70
     1
 40
0
 41
0
  0
VERTEX
  8
0
 10
36.7124
 20
158.457
 30
0.0
 40
0
 41
0
  0
VERTEX
  8
0
 10
40.2737
 20
158.457
 30
0.0
 40
0
 41
0
  0
VERTEX
  8
0
 10
40.2737
 20
156.714
 30
0.0
 40
0
 41
0
  0
VERTEX
  8
0
 10
36.7124
 20
156.714
 30
0.0
 40
0
 41
0
  0
VERTEX
  8
0
 10
36.7124
 20
158.457
 30
0.0
 40
0
 41
0
  0
SEQEND
 8
0
  0
POLYLINE
  8
0
 62
     0
 66
     1
 10
0
 20
0
 30
0.0
 70
     1
 40
0
 41
0
  0
VERTEX
  8
0
 10
57.3287
 20
112.768
 30
0.0
 40
0
 41
0
  0
VERTEX
  8
0
 10
50.6693
 20
112.768
 30
0.0
 40
0
 41
0
  0
VERTEX
  8
0
 10
50.6693
 20
113.768
 30
0.0
 40
0
 41
0
  0
VERTEX
  8
0
 10
37.4426
 20
113.768
 30
0.0
 40
0
 41
0
  0
VERTEX
  8
0
 10
37.4426
 20
112.768
 30
0.0
 40
0
 41
0
  0
VERTEX
  8
0
 10
31.1906
 20
112.768
 30
0.0
 40
0
 41
0
  0
VERTEX
  8
0
 10
31.1906
 20
113.768
 30
0.0
 40
0
 41
0
  0
VERTEX
  8
0
 10
12.6131
 20
113.768
 30
0.0
 40
0
 41
0
  0
VERTEX
  8
0
 10
12.6131
 20
112.768
 30
0.0
 40
0
 41
0
  0
VERTEX
  8
0
 10
6.46442
 20
112.768
 30
0.0
 40
0
 41
0
  0
VERTEX
  8
0
 10
6.46442
 20
113.768
 30
0.0
 40
0
 41
0
  0
VERTEX
  8
0
 10
0
 20
113.768
 30
0.0
 40
0
 41
0
  0
VERTEX
  8
0
 10
0
 20
136.57
 30
0.0
 40
0
 41
0
  0
VERTEX
  8
0
 10
6.46442
 20
136.57
 30
0.0
 40
0
 41
0
  0
VERTEX
  8
0
 10
6.46442
 20
137.57
 30
0.0
 40
0
 41
0
  0
VERTEX
  8
0
 10
12.6131
 20
137.57
 30
0.0
 40
0
 41
0
  0
VERTEX
  8
0
 10
12.6131
 20
136.57
 30
0.0
 40
0
 41
0
  0
VERTEX
  8
0
 10
31.0444
 20
136.57
 30
0.0
 40
0
 41
0
  0
VERTEX
  8
0
 10
31.0444
 20
137.57
 30
0.0
 40
0
 41
0
  0
VERTEX
  8
0
 10
36.991
 20
137.57
 30
0.0
 40
0
 41
0
  0
VERTEX
  8
0
 10
36.991
 20
136.57
 30
0.0
 40
0
 41
0
  0
VERTEX
  8
0
 10
50.6693
 20
136.57
 30
0.0
 40
0
 41
0
  0
VERTEX
  8
0
 10
50.6693
 20
137.57
 30
0.0
 40
0
 41
0
  0
VERTEX
  8
0
 10
57.3287
 20
137.57
 30
0.0
 40
0
 41
0
  0
VERTEX
  8
0
 10
57.3287
 20
136.57
 30
0.0
 40
0
 41
0
  0
VERTEX
  8
0
 10
63.7115
 20
136.57
 30
0.0
 40
0
 41
0
  0
VERTEX
  8
0
 10
63.7115
 20
127.177
 30
0.0
 40
0
 41
0
  0
VERTEX
  8
0
 10
64.7115
 20
127.177
 30
0.0
 40
0
 41
0
  0
VERTEX
  8
0
 10
64.7115
 20
119.785
 30
0.0
 40
0
 41
0
  0
VERTEX
  8
0
 10
63.7115
 20
119.785
 30
0.0
 40
0
 41
0
  0
VERTEX
  8
0
 10
63.7115
 20
113.768
 30
0.0
 40
0
 41
0
  0
VERTEX
  8
0
 10
57.3287
 20
113.768
 30
0.0
 40
0
 41
0
  0
VERTEX
  8
0
 10
57.3287
 20
112.768
 30
0.0
 40
0
 41
0
  0
SEQEND
 8
0
  0
POLYLINE
  8
0
 62
     0
 66
     1
 10
0
 20
0
 30
0.0
 70
     1
 40
0
 41
0
  0
VERTEX
  8
0
 10
85.5739
 20
130.941
 30
0.0
 40
0
 41
0
  0
VERTEX
  8
0
 10
67.3171
 20
130.941
 30
0.0
 40
0
 41
0
  0
VERTEX
  8
0
 10
67.3171
 20
137.481
 30
0.0
 40
0
 41
0
  0
VERTEX
  8
0
 10
68.3171
 20
137.481
 30
0.0
 40
0
 41
0
  0
VERTEX
  8
0
 10
68.3171
 20
143.479
 30
0.0
 40
0
 41
0
  0
VERTEX
  8
0
 10
67.3171
 20
143.479
 30
0.0
 40
0
 41
0
  0
VERTEX
  8
0
 10
67.3171
 20
162.207
 30
0.0
 40
0
 41
0
  0
VERTEX
  8
0
 10
68.3171
 20
162.207
 30
0.0
 40
0
 41
0
  0
VERTEX
  8
0
 10
68.3171
 20
168.308
 30
0.0
 40
0
 41
0
  0
VERTEX
  8
0
 10
67.3171
 20
168.308
 30
0.0
 40
0
 41
0
  0
VERTEX
  8
0
 10
67.3171
 20
181.686
 30
0.0
 40
0
 41
0
  0
VERTEX
  8
0
 10
68.3171
 20
181.686
 30
0.0
 40
0
 41
0
  0
VERTEX
  8
0
 10
68.3171
 20
188.194
 30
0.0
 40
0
 41
0
  0
VERTEX
  8
0
 10
67.3171
 20
188.194
 30
0.0
 40
0
 41
0
  0
VERTEX
  8
0
 10
67.3171
 20
194.653
 30
0.0
 40
0
 41
0
  0
VERTEX
  8
0
 10
72.6696
 20
194.653
 30
0.0
 40
0
 41
0
  0
VERTEX
  8
0
 10
72.6696
 20
195.653
 30
0.0
 40
0
 41
0
  0
VERTEX
  8
0
 10
78.8062
 20
195.653
 30
0.0
 40
0
 41
0
  0
VERTEX
  8
0
 10
78.8062
 20
194.653
 30
0.0
 40
0
 41
0
  0
VERTEX
  8
0
 10
85.5739
 20
194.653
 30
0.0
 40
0
 41
0
  0
VERTEX
  8
0
 10
85.5739
 20
177.862
 30
0.0
 40
0
 41
0
  0
VERTEX
  8
0
 10
84.5739
 20
177.862
 30
0.0
 40
0
 41
0
  0
VERTEX
  8
0
 10
84.5739
 20
164.504
 30
0.0
 40
0
 41
0
  0
VERTEX
  8
0
 10
85.5739
 20
164.504
 30
0.0
 40
0
 41
0
  0
VERTEX
  8
0
 10
85.5739
 20
147.972
 30
0.0
 40
0
 41
0
  0
VERTEX
  8
0
 10
84.5739
 20
147.972
 30
0.0
 40
0
 41
0
  0
VERTEX
  8
0
 10
84.5739
 20
137.83
 30
0.0
 40
0
 41
0
  0
VERTEX
  8
0
 10
85.5739
 20
137.83
 30
0.0
 40
0
 41
0
  0
VERTEX
  8
0
 10
85.5739
 20
130.941
 30
0.0
 40
0
 41
0
  0
SEQEND
 8
0
  0
POLYLINE
  8
0
 62
     0
 66
     1
 10
0
 20
0
 30
0.0
 70
     1
 40
0
 41
0
  0
VERTEX
  8
0
 10
81.0793
 20
168.851
 30
0.0
 40
0
 41
0
  0
VERTEX
  8
0
 10
82.8225
 20
168.851
 30
0.0
 40
0
 41
0
  0
VERTEX
  8
0
 10
82.8225
 20
166.199
 30
0.0
 40
0
 41
0
  0
VERTEX
  8
0
 10
81.0793
 20
166.199
 30
0.0
 40
0
 41
0
  0
VERTEX
  8
0
 10
81.0793
 20
168.851
 30
0.0
 40
0
 41
0
  0
SEQEND
 8
0
  0
POLYLINE
  8
0
 62
     0
 66
     1
 10
0
 20
0
 30
0.0
 70
     1
 40
0
 41
0
  0
VERTEX
  8
0
 10
70.6907
 20
167.132
 30
0.0
 40
0
 41
0
  0
VERTEX
  8
0
 10
73.3431
 20
167.132
 30
0.0
 40
0
 41
0
  0
VERTEX
  8
0
 10
73.3431
 20
161.753
 30
0.0
 40
0
 41
0
  0
VERTEX
  8
0
 10
70.6907
 20
161.753
 30
0.0
 40
0
 41
0
  0
VERTEX
  8
0
 10
70.6907
 20
167.132
 30
0.0
 40
0
 41
0
  0
SEQEND
 8
0
  0
POLYLINE
  8
0
 62
     0
 66
     1
 10
0
 20
0
 30
0.0
 70
     1
 40
0
 41
0
  0
VERTEX
  8
0
 10
0.0169814
 20
100.777
 30
0.0
 40
0
 41
0
  0
VERTEX
  8
0
 10
0.0169814
 20
110.768
 30
0.0
 40
0
 41
0
  0
VERTEX
  8
0
 10
5.99735
 20
110.768
 30
0.0
 40
0
 41
0
  0
VERTEX
  8
0
 10
5.99735
 20
109.768
 30
0.0
 40
0
 41
0
  0
VERTEX
  8
0
 10
17.3358
 20
109.768
 30
0.0
 40
0
 41
0
  0
VERTEX
  8
0
 10
17.3358
 20
110.768
 30
0.0
 40
0
 41
0
  0
VERTEX
  8
0
 10
31.4557
 20
110.768
 30
0.0
 40
0
 41
0
  0
VERTEX
  8
0
 10
31.4557
 20
62.4576
 30
0.0
 40
0
 41
0
  0
VERTEX
  8
0
 10
4.63743
 20
62.4576
 30
0.0
 40
0
 41
0
  0
VERTEX
  8
0
 10
4.63743
 20
60.1849
 30
0.0
 40
0
 41
0
  0
VERTEX
  8
0
 10
0.0169814
 20
60.1849
 30
0.0
 40
0
 41
0
  0
VERTEX
  8
0
 10
0.0169814
 20
74.3468
 30
0.0
 40
0
 41
0
  0
VERTEX
  8
0
 10
1.01698
 20
74.3468
 30
0.0
 40
0
 41
0
  0
VERTEX
  8
0
 10
1.01698
 20
80.6026
 30
0.0
 40
0
 41
0
  0
VERTEX
  8
0
 10
0.0169814
 20
80.6026
 30
0.0
 40
0
 41
0
  0
VERTEX
  8
0
 10
0.0169814
 20
94.0232
 30
0.0
 40
0
 41
0
  0
VERTEX
  8
0
 10
1.01698
 20
94.0232
 30
0.0
 40
0
 41
0
  0
VERTEX
  8
0
 10
1.01698
 20
100.777
 30
0.0
 40
0
 41
0
  0
VERTEX
  8
0
 10
0.0169814
 20
100.777
 30
0.0
 40
0
 41
0
  0
SEQEND
 8
0
  0
POLYLINE
  8
0
 62
     0
 66
     1
 10
0
 20
0
 30
0.0
 70
     1
 40
0
 41
0
  0
VERTEX
  8
0
 10
27.4557
 20
65.7304
 30
0.0
 40
0
 41
0
  0
VERTEX
  8
0
 10
29.3807
 20
65.7304
 30
0.0
 40
0
 41
0
  0
VERTEX
  8
0
 10
29.3807
 20
64.8053
 30
0.0
 40
0
 41
0
  0
VERTEX
  8
0
 10
27.4557
 20
64.8053
 30
0.0
 40
0
 41
0
  0
VERTEX
  8
0
 10
27.4557
 20
65.7304
 30
0.0
 40
0
 41
0
  0
SEQEND
 8
0
  0
POLYLINE
  8
0
 62
     0
 66
     1
 10
0
 20
0
 30
0.0
 70
     1
 40
0
 41
0
  0
VERTEX
  8
0
 10
2.09196
 20
65.7304
 30
0.0
 40
0
 41
0
  0
VERTEX
  8
0
 10
4.01699
 20
65.7304
 30
0.0
 40
0
 41
0
  0
VERTEX
  8
0
 10
4.01699
 20
64.8053
 30
0.0
 40
0
 41
0
  0
VERTEX
  8
0
 10
2.09196
 20
64.8053
 30
0.0
 40
0
 41
0
  0
VERTEX
  8
0
 10
2.09196
 20
65.7304
 30
0.0
 40
0
 41
0
  0
SEQEND
 8
0
  0
POLYLINE
  8
0
 62
     0
 66
     1
 10
0
 20
0
 30
0.0
 70
     1
 40
0
 41
0
  0
VERTEX
  8
0
 10
5.99735
 20
68.7838
 30
0.0
 40
0
 41
0
  0
VERTEX
  8
0
 10
17.3358
 20
68.7838
 30
0.0
 40
0
 41
0
  0
VERTEX
  8
0
 10
17.3358
 20
67.8588
 30
0.0
 40
0
 41
0
  0
VERTEX
  8
0
 10
5.99735
 20
67.8588
 30
0.0
 40
0
 41
0
  0
VERTEX
  8
0
 10
5.99735
 20
68.7838
 30
0.0
 40
0
 41
0
  0
SEQEND
 8
0
  0
POLYLINE
  8
0
 62
     0
 66
     1
 10
0
 20
0
 30
0.0
 70
     1
 40
0
 41
0
  0
VERTEX
  8
0
 10
25.9103
 20
77.2746
 30
0.0
 40
0
 41
0
  0
VERTEX
  8
0
 10
26.8351
 20
77.2746
 30
0.0
 40
0
 41
0
  0
VERTEX
  8
0
 10
26.8351
 20
72.1115
 30
0.0
 40
0
 41
0
  0
VERTEX
  8
0
 10
25.9103
 20
72.1115
 30
0.0
 40
0
 41
0
  0
VERTEX
  8
0
 10
25.9103
 20
77.2746
 30
0.0
 40
0
 41
0
  0
SEQEND
 8
0
  0
POLYLINE
  8
0
 62
     0
 66
     1
 10
0
 20
0
 30
0.0
 70
     1
 40
0
 41
0
  0
VERTEX
  8
0
 10
25.9103
 20
91.6676
 30
0.0
 40
0
 41
0
  0
VERTEX
  8
0
 10
26.8351
 20
91.6676
 30
0.0
 40
0
 41
0
  0
VERTEX
  8
0
 10
26.8351
 20
87.4076
 30
0.0
 40
0
 41
0
  0
VERTEX
  8
0
 10
25.9103
 20
87.4076
 30
0.0
 40
0
 41
0
  0
VERTEX
  8
0
 10
25.9103
 20
91.6676
 30
0.0
 40
0
 41
0
  0
SEQEND
 8
0
  0
POLYLINE
  8
0
 62
     0
 66
     1
 10
0
 20
0
 30
0.0
 70
     1
 40
0
 41
0
  0
VERTEX
  8
0
 10
25.9103
 20
104.841
 30
0.0
 40
0
 41
0
  0
VERTEX
  8
0
 10
26.8351
 20
104.841
 30
0.0
 40
0
 41
0
  0
VERTEX
  8
0
 10
26.8351
 20
99.9158
 30
0.0
 40
0
 41
0
  0
VERTEX
  8
0
 10
25.9103
 20
99.9158
 30
0.0
 40
0
 41
0
  0
VERTEX
  8
0
 10
25.9103
 20
104.841
 30
0.0
 40
0
 41
0
  0
SEQEND
 8
0
  0
POLYLINE
  8
0
 62
     0
 66
     1
 10
0
 20
0
 30
0.0
 70
     1
 40
0
 41
0
  0
VERTEX
  8
0
 10
7.26264
 20
78.0149
 30
0.0
 40
0
 41
0
  0
VERTEX
  8
0
 10
13.2493
 20
78.0149
 30
0.0
 40
0
 41
0
  0
VERTEX
  8
0
 10
13.2493
 20
77.0897
 30
0.0
 40
0
 41
0
  0
VERTEX
  8
0
 10
7.26264
 20
77.0897
 30
0.0
 40
0
 41
0
  0
VERTEX
  8
0
 10
7.26264
 20
78.0149
 30
0.0
 40
0
 41
0
  0
SEQEND
 8
0
  0
POLYLINE
  8
0
 62
     0
 66
     1
 10
0
 20
0
 30
0.0
 70
     1
 40
0
 41
0
  0
VERTEX
  8
0
 10
7.26264
 20
101.742
 30
0.0
 40
0
 41
0
  0
VERTEX
  8
0
 10
13.2493
 20
101.742
 30
0.0
 40
0
 41
0
  0
VERTEX
  8
0
 10
13.2493
 20
100.817
 30
0.0
 40
0
 41
0
  0
VERTEX
  8
0
 10
7.26264
 20
100.817
 30
0.0
 40
0
 41
0
  0
VERTEX
  8
0
 10
7.26264
 20
101.742
 30
0.0
 40
0
 41
0
  0
SEQEND
 8
0
  0
POLYLINE
  8
0
 62
     0
 66
     1
 10
0
 20
0
 30
0.0
 70
     1
 40
0
 41
0
  0
VERTEX
  8
0
 10
19.0921
 20
91.9033
 30
0.0
 40
0
 41
0
  0
VERTEX
  8
0
 10
20.0171
 20
91.9033
 30
0.0
 40
0
 41
0
  0
VERTEX
  8
0
 10
20.0171
 20
83.0915
 30
0.0
 40
0
 41
0
  0
VERTEX
  8
0
 10
19.0921
 20
83.0915
 30
0.0
 40
0
 41
0
  0
VERTEX
  8
0
 10
19.0921
 20
91.9033
 30
0.0
 40
0
 41
0
  0
SEQEND
 8
0
  0
POLYLINE
  8
0
 62
     0
 66
     1
 10
0
 20
0
 30
0.0
 70
     1
 40
0
 41
0
  0
VERTEX
  8
0
 10
1.91015
 20
91.3486
 30
0.0
 40
0
 41
0
  0
VERTEX
  8
0
 10
2.83518
 20
91.3486
 30
0.0
 40
0
 41
0
  0
VERTEX
  8
0
 10
2.83518
 20
84.1068
 30
0.0
 40
0
 41
0
  0
VERTEX
  8
0
 10
1.91015
 20
84.1068
 30
0.0
 40
0
 41
0
  0
VERTEX
  8
0
 10
1.91015
 20
91.3486
 30
0.0
 40
0
 41
0
  0
SEQEND
 8
0
  0
POLYLINE
  8
0
 62
     0
 66
     1
 10
0
 20
0
 30
0.0
 70
     1
 40
0
 41
0
  0
VERTEX
  8
0
 10
65.1546
 20
58.7679
 30
0.0
 40
0
 41
0
  0
VERTEX
  8
0
 10
67.7026
 20
58.7679
 30
0.0
 40
0
 41
0
  0
VERTEX
  8
0
 10
67.7026
 20
50.6019
 30
0.0
 40
0
 41
0
  0
VERTEX
  8
0
 10
33.4557
 20
50.6019
 30
0.0
 40
0
 41
0
  0
VERTEX
  8
0
 10
33.4557
 20
110.768
 30
0.0
 40
0
 41
0
  0
VERTEX
  8
0
 10
68.4399
 20
110.768
 30
0.0
 40
0
 41
0
  0
VERTEX
  8
0
 10
68.4399
 20
101.602
 30
0.0
 40
0
 41
0
  0
VERTEX
  8
0
 10
66.0469
 20
101.602
 30
0.0
 40
0
 41
0
  0
VERTEX
  8
0
 10
66.0469
 20
100.602
 30
0.0
 40
0
 41
0
  0
VERTEX
  8
0
 10
61.9718
 20
100.602
 30
0.0
 40
0
 41
0
  0
VERTEX
  8
0
 10
61.9718
 20
101.602
 30
0.0
 40
0
 41
0
  0
VERTEX
  8
0
 10
49.1815
 20
101.602
 30
0.0
 40
0
 41
0
  0
VERTEX
  8
0
 10
49.1815
 20
100.602
 30
0.0
 40
0
 41
0
  0
VERTEX
  8
0
 10
45.1065
 20
100.602
 30
0.0
 40
0
 41
0
  0
VERTEX
  8
0
 10
45.1065
 20
101.602
 30
0.0
 40
0
 41
0
  0
VERTEX
  8
0
 10
41.6215
 20
101.602
 30
0.0
 40
0
 41
0
  0
VERTEX
  8
0
 10
41.6215
 20
96.359
 30
0.0
 40
0
 41
0
  0
VERTEX
  8
0
 10
42.6215
 20
96.359
 30
0.0
 40
0
 41
0
  0
VERTEX
  8
0
 10
42.6215
 20
92.284
 30
0.0
 40
0
 41
0
  0
VERTEX
  8
0
 10
41.6215
 20
92.284
 30
0.0
 40
0
 41
0
  0
VERTEX
  8
0
 10
41.6215
 20
83.4192
 30
0.0
 40
0
 41
0
  0
VERTEX
  8
0
 10
42.6215
 20
83.4192
 30
0.0
 40
0
 41
0
  0
VERTEX
  8
0
 10
42.6215
 20
79.0524
 30
0.0
 40
0
 41
0
  0
VERTEX
  8
0
 10
41.6215
 20
79.0524
 30
0.0
 40
0
 41
0
  0
VERTEX
  8
0
 10
41.6215
 20
67.8961
 30
0.0
 40
0
 41
0
  0
VERTEX
  8
0
 10
42.6215
 20
67.8961
 30
0.0
 40
0
 41
0
  0
VERTEX
  8
0
 10
42.6215
 20
63.8211
 30
0.0
 40
0
 41
0
  0
VERTEX
  8
0
 10
41.6215
 20
63.8211
 30
0.0
 40
0
 41
0
  0
VERTEX
  8
0
 10
41.6215
 20
58.7679
 30
0.0
 40
0
 41
0
  0
VERTEX
  8
0
 10
44.0414
 20
58.7679
 30
0.0
 40
0
 41
0
  0
VERTEX
  8
0
 10
44.0414
 20
59.7679
 30
0.0
 40
0
 41
0
  0
VERTEX
  8
0
 10
48.1164
 20
59.7679
 30
0.0
 40
0
 41
0
  0
VERTEX
  8
0
 10
48.1164
 20
58.7679
 30
0.0
 40
0
 41
0
  0
VERTEX
  8
0
 10
61.7942
 20
58.7679
 30
0.0
 40
0
 41
0
  0
VERTEX
  8
0
 10
61.7942
 20
59.7679
 30
0.0
 40
0
 41
0
  0
VERTEX
  8
0
 10
65.1546
 20
59.7679
 30
0.0
 40
0
 41
0
  0
VERTEX
  8
0
 10
65.1546
 20
58.7679
 30
0.0
 40
0
 41
0
  0
SEQEND
 8
0
  0
POLYLINE
  8
0
 62
     0
 66
     1
 10
0
 20
0
 30
0.0
 70
     1
 40
0
 41
0
  0
VERTEX
  8
0
 10
47.68
 20
30.3353
 30
0.0
 40
0
 41
0
  0
VERTEX
  8
0
 10
24.0964
 20
30.3353
 30
0.0
 40
0
 41
0
  0
VERTEX
  8
0
 10
24.0964
 20
31.3353
 30
0.0
 40
0
 41
0
  0
VERTEX
  8
0
 10
12.5745
 20
31.3353
 30
0.0
 40
0
 41
0
  0
VERTEX
  8
0
 10
12.5745
 20
30.3353
 30
0.0
 40
0
 41
0
  0
VERTEX
  8
0
 10
1
 20
30.3353
 30
0.0
 40
0
 41
0
  0
VERTEX
  8
0
 10
1
 20
37.1029
 30
0.0
 40
0
 41
0
  0
VERTEX
  8
0
 10
0
 20
37.1029
 30
0.0
 40
0
 41
0
  0
VERTEX
  8
0
 10
0
 20
43.2397
 30
0.0
 40
0
 41
0
  0
VERTEX
  8
0
 10
1
 20
43.2397
 30
0.0
 40
0
 41
0
  0
VERTEX
  8
0
 10
1
 20
48.5921
 30
0.0
 40
0
 41
0
  0
VERTEX
  8
0
 10
7.45774
 20
48.5921
 30
0.0
 40
0
 41
0
  0
VERTEX
  8
0
 10
7.45774
 20
47.5921
 30
0.0
 40
0
 41
0
  0
VERTEX
  8
0
 10
13.9672
 20
47.5921
 30
0.0
 40
0
 41
0
  0
VERTEX
  8
0
 10
13.9672
 20
48.5921
 30
0.0
 40
0
 41
0
  0
VERTEX
  8
0
 10
27.7956
 20
48.5921
 30
0.0
 40
0
 41
0
  0
VERTEX
  8
0
 10
27.7956
 20
47.5921
 30
0.0
 40
0
 41
0
  0
VERTEX
  8
0
 10
33.5921
 20
47.5921
 30
0.0
 40
0
 41
0
  0
VERTEX
  8
0
 10
33.5921
 20
48.5921
 30
0.0
 40
0
 41
0
  0
VERTEX
  8
0
 10
52.1733
 20
48.5921
 30
0.0
 40
0
 41
0
  0
VERTEX
  8
0
 10
52.1733
 20
47.5921
 30
0.0
 40
0
 41
0
  0
VERTEX
  8
0
 10
58.1721
 20
47.5921
 30
0.0
 40
0
 41
0
  0
VERTEX
  8
0
 10
58.1721
 20
48.5921
 30
0.0
 40
0
 41
0
  0
VERTEX
  8
0
 10
64.7115
 20
48.5921
 30
0.0
 40
0
 41
0
  0
VERTEX
  8
0
 10
64.7115
 20
30.3353
 30
0.0
 40
0
 41
0
  0
VERTEX
  8
0
 10
57.2964
 20
30.3353
 30
0.0
 40
0
 41
0
  0
VERTEX
  8
0
 10
57.2964
 20
31.3353
 30
0.0
 40
0
 41
0
  0
VERTEX
  8
0
 10
47.68
 20
31.3353
 30
0.0
 40
0
 41
0
  0
VERTEX
  8
0
 10
47.68
 20
30.3353
 30
0.0
 40
0
 41
0
  0
SEQEND
 8
0
  0
POLYLINE
  8
0
 62
     0
 66
     1
 10
0
 20
0
 30
0.0
 70
     1
 40
0
 41
0
  0
VERTEX
  8
0
 10
52.866
 20
45.0579
 30
0.0
 40
0
 41
0
  0
VERTEX
  8
0
 10
58.2456
 20
45.0579
 30
0.0
 40
0
 41
0
  0
VERTEX
  8
0
 10
58.2456
 20
42.4056
 30
0.0
 40
0
 41
0
  0
VERTEX
  8
0
 10
52.866
 20
42.4056
 30
0.0
 40
0
 41
0
  0
VERTEX
  8
0
 10
52.866
 20
45.0579
 30
0.0
 40
0
 41
0
  0
SEQEND
 8
0
  0
POLYLINE
  8
0
 62
     0
 66
     1
 10
0
 20
0
 30
0.0
 70
     1
 40
0
 41
0
  0
VERTEX
  8
0
 10
28.521
 20
45.2185
 30
0.0
 40
0
 41
0
  0
VERTEX
  8
0
 10
33.9006
 20
45.2185
 30
0.0
 40
0
 41
0
  0
VERTEX
  8
0
 10
33.9006
 20
42.5661
 30
0.0
 40
0
 41
0
  0
VERTEX
  8
0
 10
28.521
 20
42.5661
 30
0.0
 40
0
 41
0
  0
VERTEX
  8
0
 10
28.521
 20
45.2185
 30
0.0
 40
0
 41
0
  0
SEQEND
 8
0
  0
POLYLINE
  8
0
 62
     0
 66
     1
 10
0
 20
0
 30
0.0
 70
     1
 40
0
 41
0
  0
VERTEX
  8
0
 10
28.521
 20
38.0625
 30
0.0
 40
0
 41
0
  0
VERTEX
  8
0
 10
33.9006
 20
38.0625
 30
0.0
 40
0
 41
0
  0
VERTEX
  8
0
 10
33.9006
 20
35.4103
 30
0.0
 40
0
 41
0
  0
VERTEX
  8
0
 10
28.521
 20
35.4103
 30
0.0
 40
0
 41
0
  0
VERTEX
  8
0
 10
28.521
 20
38.0625
 30
0.0
 40
0
 41
0
  0
SEQEND
 8
0
  0
POLYLINE
  8
0
 62
     0
 66
     1
 10
0
 20
0
 30
0.0
 70
     1
 40
0
 41
0
  0
VERTEX
  8
0
 10
84.6868
 20
75.5442
 30
0.0
 40
0
 41
0
  0
VERTEX
  8
0
 10
84.6868
 20
62.2736
 30
0.0
 40
0
 41
0
  0
VERTEX
  8
0
 10
85.6868
 20
62.2736
 30
0.0
 40
0
 41
0
  0
VERTEX
  8
0
 10
85.6868
 20
55.3697
 30
0.0
 40
0
 41
0
  0
VERTEX
  8
0
 10
84.6868
 20
55.3697
 30
0.0
 40
0
 41
0
  0
VERTEX
  8
0
 10
84.6868
 20
45.4539
 30
0.0
 40
0
 41
0
  0
VERTEX
  8
0
 10
83.2007
 20
45.4539
 30
0.0
 40
0
 41
0
  0
VERTEX
  8
0
 10
83.2007
 20
46.4539
 30
0.0
 40
0
 41
0
  0
VERTEX
  8
0
 10
81.2757
 20
46.4539
 30
0.0
 40
0
 41
0
  0
VERTEX
  8
0
 10
81.2757
 20
45.4539
 30
0.0
 40
0
 41
0
  0
VERTEX
  8
0
 10
72.2894
 20
45.4539
 30
0.0
 40
0
 41
0
  0
VERTEX
  8
0
 10
72.2894
 20
46.4539
 30
0.0
 40
0
 41
0
  0
VERTEX
  8
0
 10
70.3643
 20
46.4539
 30
0.0
 40
0
 41
0
  0
VERTEX
  8
0
 10
70.3643
 20
45.4539
 30
0.0
 40
0
 41
0
  0
VERTEX
  8
0
 10
69.7026
 20
45.4539
 30
0.0
 40
0
 41
0
  0
VERTEX
  8
0
 10
69.7026
 20
60.8421
 30
0.0
 40
0
 41
0
  0
VERTEX
  8
0
 10
68.7026
 20
60.8421
 30
0.0
 40
0
 41
0
  0
VERTEX
  8
0
 10
68.7026
 20
77.6419
 30
0.0
 40
0
 41
0
  0
VERTEX
  8
0
 10
69.7026
 20
77.6419
 30
0.0
 40
0
 41
0
  0
VERTEX
  8
0
 10
69.7026
 20
88.4381
 30
0.0
 40
0
 41
0
  0
VERTEX
  8
0
 10
70.3643
 20
88.4381
 30
0.0
 40
0
 41
0
  0
VERTEX
  8
0
 10
70.3643
 20
87.4381
 30
0.0
 40
0
 41
0
  0
VERTEX
  8
0
 10
72.2894
 20
87.4381
 30
0.0
 40
0
 41
0
  0
VERTEX
  8
0
 10
72.2894
 20
88.4381
 30
0.0
 40
0
 41
0
  0
VERTEX
  8
0
 10
81.2757
 20
88.4381
 30
0.0
 40
0
 41
0
  0
VERTEX
  8
0
 10
81.2757
 20
87.4381
 30
0.0
 40
0
 41
0
  0
VERTEX
  8
0
 10
83.2007
 20
87.4381
 30
0.0
 40
0
 41
0
  0
VERTEX
  8
0
 10
83.2007
 20
88.4381
 30
0.0
 40
0
 41
0
  0
VERTEX
  8
0
 10
84.6868
 20
88.4381
 30
0.0
 40
0
 41
0
  0
VERTEX
  8
0
 10
84.6868
 20
81.95
 30
0.0
 40
0
 41
0
  0
VERTEX
  8
0
 10
85.6868
 20
81.95
 30
0.0
 40
0
 41
0
  0
VERTEX
  8
0
 10
85.6868
 20
75.5442
 30
0.0
 40
0
 41
0
  0
VERTEX
  8
0
 10
84.6868
 20
75.5442
 30
0.0
 40
0
 41
0
  0
SEQEND
 8
0
  0
POLYLINE
  8
0
 62
     0
 66
     1
 10
0
 20
0
 30
0.0
 70
     1
 40
0
 41
0
  0
VERTEX
  8
0
 10
75.2322
 20
67.8175
 30
0.0
 40
0
 41
0
  0
VERTEX
  8
0
 10
77.43
 20
67.8175
 30
0.0
 40
0
 41
0
  0
VERTEX
  8
0
 10
77.43
 20
66.0743
 30
0.0
 40
0
 41
0
  0
VERTEX
  8
0
 10
75.2322
 20
66.0743
 30
0.0
 40
0
 41
0
  0
VERTEX
  8
0
 10
75.2322
 20
67.8175
 30
0.0
 40
0
 41
0
  0
SEQEND
 8
0
  0
POLYLINE
  8
0
 62
     0
 66
     1
 10
0
 20
0
 30
0.0
 70
     1
 40
0
 41
0
  0
VERTEX
  8
0
 10
75.2322
 20
83.2721
 30
0.0
 40
0
 41
0
  0
VERTEX
  8
0
 10
77.43
 20
83.2721
 30
0.0
 40
0
 41
0
  0
VERTEX
  8
0
 10
77.43
 20
81.5289
 30
0.0
 40
0
 41
0
  0
VERTEX
  8
0
 10
75.2322
 20
81.5289
 30
0.0
 40
0
 41
0
  0
VERTEX
  8
0
 10
75.2322
 20
83.2721
 30
0.0
 40
0
 41
0
  0
SEQEND
 8
0
  0
POLYLINE
  8
0
 62
     0
 66
     1
 10
0
 20
0
 30
0.0
 70
     1
 40
0
 41
0
  0
VERTEX
  8
0
 10
75.2322
 20
52.3629
 30
0.0
 40
0
 41
0
  0
VERTEX
  8
0
 10
77.43
 20
52.3629
 30
0.0
 40
0
 41
0
  0
VERTEX
  8
0
 10
77.43
 20
50.6199
 30
0.0
 40
0
 41
0
  0
VERTEX
  8
0
 10
75.2322
 20
50.6199
 30
0.0
 40
0
 41
0
  0
VERTEX
  8
0
 10
75.2322
 20
52.3629
 30
0.0
 40
0
 41
0
  0
SEQEND
 8
0
  0
POLYLINE
  8
0
 62
     0
 66
     1
 10
0
 20
0
 30
0.0
 70
     1
 40
0
 41
0
  0
VERTEX
  8
0
 10
80.2094
 20
0.469726
 30
0.0
 40
0
 41
0
  0
VERTEX
  8
0
 10
80.2094
 20
1.46972
 30
0.0
 40
0
 41
0
  0
VERTEX
  8
0
 10
78.2844
 20
1.46972
 30
0.0
 40
0
 41
0
  0
VERTEX
  8
0
 10
78.2844
 20
0.469726
 30
0.0
 40
0
 41
0
  0
VERTEX
  8
0
 10
69.2981
 20
0.469726
 30
0.0
 40
0
 41
0
  0
VERTEX
  8
0
 10
69.2981
 20
1.46972
 30
0.0
 40
0
 41
0
  0
VERTEX
  8
0
 10
67.3732
 20
1.46972
 30
0.0
 40
0
 41
0
  0
VERTEX
  8
0
 10
67.3732
 20
0.469726
 30
0.0
 40
0
 41
0
  0
VERTEX
  8
0
 10
66.7115
 20
0.469726
 30
0.0
 40
0
 41
0
  0
VERTEX
  8
0
 10
66.7115
 20
15.2479
 30
0.0
 40
0
 41
0
  0
VERTEX
  8
0
 10
65.7115
 20
15.2479
 30
0.0
 40
0
 41
0
  0
VERTEX
  8
0
 10
65.7115
 20
28.0657
 30
0.0
 40
0
 41
0
  0
VERTEX
  8
0
 10
66.7115
 20
28.0657
 30
0.0
 40
0
 41
0
  0
VERTEX
  8
0
 10
66.7115
 20
43.4539
 30
0.0
 40
0
 41
0
  0
VERTEX
  8
0
 10
67.3732
 20
43.4539
 30
0.0
 40
0
 41
0
  0
VERTEX
  8
0
 10
67.3732
 20
42.4539
 30
0.0
 40
0
 41
0
  0
VERTEX
  8
0
 10
69.2981
 20
42.4539
 30
0.0
 40
0
 41
0
  0
VERTEX
  8
0
 10
69.2981
 20
43.4539
 30
0.0
 40
0
 41
0
  0
VERTEX
  8
0
 10
78.2844
 20
43.4539
 30
0.0
 40
0
 41
0
  0
VERTEX
  8
0
 10
78.2844
 20
42.4539
 30
0.0
 40
0
 41
0
  0
VERTEX
  8
0
 10
80.2094
 20
42.4539
 30
0.0
 40
0
 41
0
  0
VERTEX
  8
0
 10
80.2094
 20
43.4539
 30
0.0
 40
0
 41
0
  0
VERTEX
  8
0
 10
81.6956
 20
43.4539
 30
0.0
 40
0
 41
0
  0
VERTEX
  8
0
 10
81.6956
 20
37.6018
 30
0.0
 40
0
 41
0
  0
VERTEX
  8
0
 10
82.6956
 20
37.6018
 30
0.0
 40
0
 41
0
  0
VERTEX
  8
0
 10
82.6956
 20
32.5268
 30
0.0
 40
0
 41
0
  0
VERTEX
  8
0
 10
81.6956
 20
32.5268
 30
0.0
 40
0
 41
0
  0
VERTEX
  8
0
 10
81.6956
 20
24.4286
 30
0.0
 40
0
 41
0
  0
VERTEX
  8
0
 10
82.6956
 20
24.4286
 30
0.0
 40
0
 41
0
  0
VERTEX
  8
0
 10
82.6956
 20
20.0186
 30
0.0
 40
0
 41
0
  0
VERTEX
  8
0
 10
81.6956
 20
20.0186
 30
0.0
 40
0
 41
0
  0
VERTEX
  8
0
 10
81.6956
 20
10.0355
 30
0.0
 40
0
 41
0
  0
VERTEX
  8
0
 10
82.6956
 20
10.0355
 30
0.0
 40
0
 41
0
  0
VERTEX
  8
0
 10
82.6956
 20
4.72244
 30
0.0
 40
0
 41
0
  0
VERTEX
  8
0
 10
81.6956
 20
4.72244
 30
0.0
 40
0
 41
0
  0
VERTEX
  8
0
 10
81.6956
 20
0.469726
 30
0.0
 40
0
 41
0
  0
VERTEX
  8
0
 10
80.2094
 20
0.469726
 30
0.0
 40
0
 41
0
  0
SEQEND
 8
0
  0
POLYLINE
  8
0
 62
     0
 66
     1
 10
0
 20
0
 30
0.0
 70
     1
 40
0
 41
0
  0
VERTEX
  8
0
 10
70.3319
 20
41.5607
 30
0.0
 40
0
 41
0
  0
VERTEX
  8
0
 10
77.0751
 20
41.5607
 30
0.0
 40
0
 41
0
  0
VERTEX
  8
0
 10
77.0751
 20
34.5811
 30
0.0
 40
0
 41
0
  0
VERTEX
  8
0
 10
70.3319
 20
34.5811
 30
0.0
 40
0
 41
0
  0
VERTEX
  8
0
 10
70.3319
 20
41.5607
 30
0.0
 40
0
 41
0
  0
SEQEND
 8
0
  0
POLYLINE
  8
0
 62
     0
 66
     1
 10
0
 20
0
 30
0.0
 70
     1
 40
0
 41
0
  0
VERTEX
  8
0
 10
70.3319
 20
9.34244
 30
0.0
 40
0
 41
0
  0
VERTEX
  8
0
 10
77.0751
 20
9.34244
 30
0.0
 40
0
 41
0
  0
VERTEX
  8
0
 10
77.0751
 20
2.3629
 30
0.0
 40
0
 41
0
  0
VERTEX
  8
0
 10
70.3319
 20
2.3629
 30
0.0
 40
0
 41
0
  0
VERTEX
  8
0
 10
70.3319
 20
9.34244
 30
0.0
 40
0
 41
0
  0
SEQEND
 8
0
  0
POLYLINE
  8
0
 62
     0
 66
     1
 10
0
 20
0
 30
0.0
 70
     1
 40
0
 41
0
  0
VERTEX
  8
0
 10
70.3319
 20
33.5061
 30
0.0
 40
0
 41
0
  0
VERTEX
  8
0
 10
77.0751
 20
33.5061
 30
0.0
 40
0
 41
0
  0
VERTEX
  8
0
 10
77.0751
 20
26.5265
 30
0.0
 40
0
 41
0
  0
VERTEX
  8
0
 10
70.3319
 20
26.5265
 30
0.0
 40
0
 41
0
  0
VERTEX
  8
0
 10
70.3319
 20
33.5061
 30
0.0
 40
0
 41
0
  0
SEQEND
 8
0
  0
POLYLINE
  8
0
 62
     0
 66
     1
 10
0
 20
0
 30
0.0
 70
     1
 40
0
 41
0
  0
VERTEX
  8
0
 10
70.3319
 20
25.4515
 30
0.0
 40
0
 41
0
  0
VERTEX
  8
0
 10
77.0751
 20
25.4515
 30
0.0
 40
0
 41
0
  0
VERTEX
  8
0
 10
77.0751
 20
18.4719
 30
0.0
 40
0
 41
0
  0
VERTEX
  8
0
 10
70.3319
 20
18.4719
 30
0.0
 40
0
 41
0
  0
VERTEX
  8
0
 10
70.3319
 20
25.4515
 30
0.0
 40
0
 41
0
  0
SEQEND
 8
0
  0
POLYLINE
  8
0
 62
     0
 66
     1
 10
0
 20
0
 30
0.0
 70
     1
 40
0
 41
0
  0
VERTEX
  8
0
 10
70.3319
 20
17.3971
 30
0.0
 40
0
 41
0
  0
VERTEX
  8
0
 10
77.0751
 20
17.3971
 30
0.0
 40
0
 41
0
  0
VERTEX
  8
0
 10
77.0751
 20
10.4174
 30
0.0
 40
0
 41
0
  0
VERTEX
  8
0
 10
70.3319
 20
10.4174
 30
0.0
 40
0
 41
0
  0
VERTEX
  8
0
 10
70.3319
 20
17.3971
 30
0.0
 40
0
 41
0
  0
SEQEND
 8
0
  0
POLYLINE
  8
0
 62
     0
 66
     1
 10
0
 20
0
 30
0.0
 70
     1
 40
0
 41
0
  0
VERTEX
  8
0
 10
67.5138
 20
38.2506
 30
0.0
 40
0
 41
0
  0
VERTEX
  8
0
 10
68.4387
 20
38.2506
 30
0.0
 40
0
 41
0
  0
VERTEX
  8
0
 10
68.4387
 20
34.3257
 30
0.0
 40
0
 41
0
  0
VERTEX
  8
0
 10
67.5138
 20
34.3257
 30
0.0
 40
0
 41
0
  0
VERTEX
  8
0
 10
67.5138
 20
38.2506
 30
0.0
 40
0
 41
0
  0
SEQEND
 8
0
  0
POLYLINE
  8
0
 62
     0
 66
     1
 10
0
 20
0
 30
0.0
 70
     1
 40
0
 41
0
  0
VERTEX
  8
0
 10
67.5138
 20
23.0193
 30
0.0
 40
0
 41
0
  0
VERTEX
  8
0
 10
68.4387
 20
23.0193
 30
0.0
 40
0
 41
0
  0
VERTEX
  8
0
 10
68.4387
 20
18.8026
 30
0.0
 40
0
 41
0
  0
VERTEX
  8
0
 10
67.5138
 20
18.8026
 30
0.0
 40
0
 41
0
  0
VERTEX
  8
0
 10
67.5138
 20
23.0193
 30
0.0
 40
0
 41
0
  0
SEQEND
 8
0
  0
POLYLINE
  8
0
 62
     0
 66
     1
 10
0
 20
0
 30
0.0
 70
     1
 40
0
 41
0
  0
VERTEX
  8
0
 10
67.5138
 20
9.78771
 30
0.0
 40
0
 41
0
  0
VERTEX
  8
0
 10
68.4387
 20
9.78771
 30
0.0
 40
0
 41
0
  0
VERTEX
  8
0
 10
68.4387
 20
5.86268
 30
0.0
 40
0
 41
0
  0
VERTEX
  8
0
 10
67.5138
 20
5.86268
 30
0.0
 40
0
 41
0
  0
VERTEX
  8
0
 10
67.5138
 20
9.78771
 30
0.0
 40
0
 41
0
  0
SEQEND
 8
0
  0
POLYLINE
  8
0
 62
     0
 66
     1
 10
0
 20
0
 30
0.0
 70
     1
 40
0
 41
0
  0
VERTEX
  8
0
 10
0
 20
186.39
 30
0.0
 40
0
 41
0
  0
VERTEX
  8
0
 10
27.2447
 20
186.39
 30
0.0
 40
0
 41
0
  0
VERTEX
  8
0
 10
27.2447
 20
184.042
 30
0.0
 40
0
 41
0
  0
VERTEX
  8
0
 10
0
 20
184.042
 30
0.0
 40
0
 41
0
  0
VERTEX
  8
0
 10
0
 20
186.39
 30
0.0
 40
0
 41
0
  0
SEQEND
 8
0
  0
POLYLINE
  8
0
 62
     0
 66
     1
 10
0
 20
0
 30
0.0
 70
     1
 40
0
 41
0
  0
VERTEX
  8
0
 10
65.9174
 20
80.2818
 30
0.0
 40
0
 41
0
  0
VERTEX
  8
0
 10
65.9174
 20
68.7933
 30
0.0
 40
0
 41
0
  0
VERTEX
  8
0
 10
64.9174
 20
68.7933
 30
0.0
 40
0
 41
0
  0
VERTEX
  8
0
 10
64.9174
 20
63.8881
 30
0.0
 40
0
 41
0
  0
VERTEX
  8
0
 10
63.5063
 20
63.8881
 30
0.0
 40
0
 41
0
  0
VERTEX
  8
0
 10
63.5063
 20
62.8881
 30
0.0
 40
0
 41
0
  0
VERTEX
  8
0
 10
61.4312
 20
62.8881
 30
0.0
 40
0
 41
0
  0
VERTEX
  8
0
 10
61.4312
 20
63.8881
 30
0.0
 40
0
 41
0
  0
VERTEX
  8
0
 10
52.595
 20
63.8881
 30
0.0
 40
0
 41
0
  0
VERTEX
  8
0
 10
52.595
 20
62.8881
 30
0.0
 40
0
 41
0
  0
VERTEX
  8
0
 10
50.52
 20
62.8881
 30
0.0
 40
0
 41
0
  0
VERTEX
  8
0
 10
50.52
 20
63.8881
 30
0.0
 40
0
 41
0
  0
VERTEX
  8
0
 10
49.9333
 20
63.8881
 30
0.0
 40
0
 41
0
  0
VERTEX
  8
0
 10
49.9333
 20
71.3501
 30
0.0
 40
0
 41
0
  0
VERTEX
  8
0
 10
48.9333
 20
71.3501
 30
0.0
 40
0
 41
0
  0
VERTEX
  8
0
 10
48.9333
 20
81.2808
 30
0.0
 40
0
 41
0
  0
VERTEX
  8
0
 10
49.9333
 20
81.2808
 30
0.0
 40
0
 41
0
  0
VERTEX
  8
0
 10
49.9333
 20
88.7813
 30
0.0
 40
0
 41
0
  0
VERTEX
  8
0
 10
50.52
 20
88.7813
 30
0.0
 40
0
 41
0
  0
VERTEX
  8
0
 10
50.52
 20
89.7813
 30
0.0
 40
0
 41
0
  0
VERTEX
  8
0
 10
52.595
 20
89.7813
 30
0.0
 40
0
 41
0
  0
VERTEX
  8
0
 10
52.595
 20
88.7813
 30
0.0
 40
0
 41
0
  0
VERTEX
  8
0
 10
61.4312
 20
88.7813
 30
0.0
 40
0
 41
0
  0
VERTEX
  8
0
 10
61.4312
 20
89.7813
 30
0.0
 40
0
 41
0
  0
VERTEX
  8
0
 10
63.5063
 20
89.7813
 30
0.0
 40
0
 41
0
  0
VERTEX
  8
0
 10
63.5063
 20
88.7813
 30
0.0
 40
0
 41
0
  0
VERTEX
  8
0
 10
64.9174
 20
88.7813
 30
0.0
 40
0
 41
0
  0
VERTEX
  8
0
 10
64.9174
 20
80.2818
 30
0.0
 40
0
 41
0
  0
VERTEX
  8
0
 10
65.9174
 20
80.2818
 30
0.0
 40
0
 41
0
  0
SEQEND
 8
0
  0
POLYLINE
  8
0
 62
     0
 66
     1
 10
0
 20
0
 30
0.0
 70
     1
 40
0
 41
0
  0
VERTEX
  8
0
 10
50.7356
 20
69.281
 30
0.0
 40
0
 41
0
  0
VERTEX
  8
0
 10
51.6606
 20
69.281
 30
0.0
 40
0
 41
0
  0
VERTEX
  8
0
 10
51.6606
 20
65.356
 30
0.0
 40
0
 41
0
  0
VERTEX
  8
0
 10
50.7356
 20
65.356
 30
0.0
 40
0
 41
0
  0
VERTEX
  8
0
 10
50.7356
 20
69.281
 30
0.0
 40
0
 41
0
  0
SEQEND
 8
0
  0
POLYLINE
  8
0
 62
     0
 66
     1
 10
0
 20
0
 30
0.0
 70
     1
 40
0
 41
0
  0
VERTEX
  8
0
 10
53.5538
 20
71.7668
 30
0.0
 40
0
 41
0
  0
VERTEX
  8
0
 10
60.2969
 20
71.7668
 30
0.0
 40
0
 41
0
  0
VERTEX
  8
0
 10
60.2969
 20
64.7813
 30
0.0
 40
0
 41
0
  0
VERTEX
  8
0
 10
53.5538
 20
64.7813
 30
0.0
 40
0
 41
0
  0
VERTEX
  8
0
 10
53.5538
 20
71.7668
 30
0.0
 40
0
 41
0
  0
SEQEND
 8
0
  0
POLYLINE
  8
0
 62
     0
 66
     1
 10
0
 20
0
 30
0.0
 70
     1
 40
0
 41
0
  0
VERTEX
  8
0
 10
53.5538
 20
87.8881
 30
0.0
 40
0
 41
0
  0
VERTEX
  8
0
 10
60.2969
 20
87.8881
 30
0.0
 40
0
 41
0
  0
VERTEX
  8
0
 10
60.2969
 20
80.9025
 30
0.0
 40
0
 41
0
  0
VERTEX
  8
0
 10
53.5538
 20
80.9025
 30
0.0
 40
0
 41
0
  0
VERTEX
  8
0
 10
53.5538
 20
87.8881
 30
0.0
 40
0
 41
0
  0
SEQEND
 8
0
  0
POLYLINE
  8
0
 62
     0
 66
     1
 10
0
 20
0
 30
0.0
 70
     1
 40
0
 41
0
  0
VERTEX
  8
0
 10
53.5538
 20
79.8274
 30
0.0
 40
0
 41
0
  0
VERTEX
  8
0
 10
60.2969
 20
79.8274
 30
0.0
 40
0
 41
0
  0
VERTEX
  8
0
 10
60.2969
 20
72.8418
 30
0.0
 40
0
 41
0
  0
VERTEX
  8
0
 10
53.5538
 20
72.8418
 30
0.0
 40
0
 41
0
  0
VERTEX
  8
0
 10
53.5538
 20
79.8274
 30
0.0
 40
0
 41
0
  0
SEQEND
 8
0
  0
POLYLINE
  8
0
 62
     0
 66
     1
 10
0
 20
0
 30
0.0
 70
     1
 40
0
 41
0
  0
VERTEX
  8
0
 10
50.7356
 20
86.1464
 30
0.0
 40
0
 41
0
  0
VERTEX
  8
0
 10
51.6606
 20
86.1464
 30
0.0
 40
0
 41
0
  0
VERTEX
  8
0
 10
51.6606
 20
82.2213
 30
0.0
 40
0
 41
0
  0
VERTEX
  8
0
 10
50.7356
 20
82.2213
 30
0.0
 40
0
 41
0
  0
VERTEX
  8
0
 10
50.7356
 20
86.1464
 30
0.0
 40
0
 41
0
  0
SEQEND
 8
0
  0
POLYLINE
  8
0
 62
     0
 66
     1
 10
0
 20
0
 30
0.0
 70
     1
 40
0
 41
0
  0
VERTEX
  8
0
 10
1
 20
18.0675
 30
0.0
 40
0
 41
0
  0
VERTEX
  8
0
 10
0
 20
18.0675
 30
0.0
 40
0
 41
0
  0
VERTEX
  8
0
 10
0
 20
28.3353
 30
0.0
 40
0
 41
0
  0
VERTEX
  8
0
 10
15.4632
 20
28.3353
 30
0.0
 40
0
 41
0
  0
VERTEX
  8
0
 10
15.4632
 20
27.3353
 30
0.0
 40
0
 41
0
  0
VERTEX
  8
0
 10
28.131
 20
27.3353
 30
0.0
 40
0
 41
0
  0
VERTEX
  8
0
 10
28.131
 20
28.3353
 30
0.0
 40
0
 41
0
  0
VERTEX
  8
0
 10
42.9842
 20
28.3353
 30
0.0
 40
0
 41
0
  0
VERTEX
  8
0
 10
42.9842
 20
19.7599
 30
0.0
 40
0
 41
0
  0
VERTEX
  8
0
 10
41.9842
 20
19.7599
 30
0.0
 40
0
 41
0
  0
VERTEX
  8
0
 10
41.9842
 20
9.97922
 30
0.0
 40
0
 41
0
  0
VERTEX
  8
0
 10
42.9842
 20
9.97922
 30
0.0
 40
0
 41
0
  0
VERTEX
  8
0
 10
42.9842
 20
1.44206
 30
0.0
 40
0
 41
0
  0
VERTEX
  8
0
 10
32.1131
 20
1.44206
 30
0.0
 40
0
 41
0
  0
VERTEX
  8
0
 10
32.1131
 20
2.44206
 30
0.0
 40
0
 41
0
  0
VERTEX
  8
0
 10
15.4632
 20
2.44206
 30
0.0
 40
0
 41
0
  0
VERTEX
  8
0
 10
15.4632
 20
1.44206
 30
0.0
 40
0
 41
0
  0
VERTEX
  8
0
 10
0
 20
1.44206
 30
0.0
 40
0
 41
0
  0
VERTEX
  8
0
 10
0
 20
8.08772
 30
0.0
 40
0
 41
0
  0
VERTEX
  8
0
 10
1
 20
8.08772
 30
0.0
 40
0
 41
0
  0
VERTEX
  8
0
 10
1
 20
18.0675
 30
0.0
 40
0
 41
0
  0
SEQEND
 8
0
  0
POLYLINE
  8
0
 62
     0
 66
     1
 10
0
 20
0
 30
0.0
 70
     1
 40
0
 41
0
  0
VERTEX
  8
0
 10
0.0174696
 20
182.042
 30
0.0
 40
0
 41
0
  0
VERTEX
  8
0
 10
5.63792
 20
182.042
 30
0.0
 40
0
 41
0
  0
VERTEX
  8
0
 10
5.63792
 20
177.422
 30
0.0
 40
0
 41
0
  0
VERTEX
  8
0
 10
1.01747
 20
177.422
 30
0.0
 40
0
 41
0
  0
VERTEX
  8
0
 10
1.01747
 20
179.967
 30
0.0
 40
0
 41
0
  0
VERTEX
  8
0
 10
0.0174696
 20
179.967
 30
0.0
 40
0
 41
0
  0
VERTEX
  8
0
 10
0.0174696
 20
182.042
 30
0.0
 40
0
 41
0
  0
SEQEND
 8
0
  0
POLYLINE
  8
0
 62
     0
 66
     1
 10
0
 20
0
 30
0.0
 70
     1
 40
0
 41
0
  0
VERTEX
  8
0
 10
44.6215
 20
94.129
 30
0.0
 40
0
 41
0
  0
VERTEX
  8
0
 10
71.5307
 20
94.129
 30
0.0
 40
0
 41
0
  0
VERTEX
  8
0
 10
71.5307
 20
91.7813
 30
0.0
 40
0
 41
0
  0
VERTEX
  8
0
 10
44.6215
 20
91.7813
 30
0.0
 40
0
 41
0
  0
VERTEX
  8
0
 10
44.6215
 20
94.129
 30
0.0
 40
0
 41
0
  0
SEQEND
 8
0
  0
POLYLINE
  8
0
 62
     0
 66
     1
 10
0
 20
0
 30
0.0
 70
     1
 40
0
 41
0
  0
VERTEX
  8
0
 10
5.62044
 20
58.1849
 30
0.0
 40
0
 41
0
  0
VERTEX
  8
0
 10
5.62044
 20
56.1099
 30
0.0
 40
0
 41
0
  0
VERTEX
  8
0
 10
4.62044
 20
56.1099
 30
0.0
 40
0
 41
0
  0
VERTEX
  8
0
 10
4.62044
 20
53.5644
 30
0.0
 40
0
 41
0
  0
VERTEX
  8
0
 10
0
 20
53.5644
 30
0.0
 40
0
 41
0
  0
VERTEX
  8
0
 10
0
 20
58.1849
 30
0.0
 40
0
 41
0
  0
VERTEX
  8
0
 10
5.62044
 20
58.1849
 30
0.0
 40
0
 41
0
  0
SEQEND
 8
0
  0
POLYLINE
  8
0
 62
     0
 66
     1
 10
0
 20
0
 30
0.0
 70
     1
 40
0
 41
0
  0
VERTEX
  8
0
 10
44.6215
 20
98.4767
 30
0.0
 40
0
 41
0
  0
VERTEX
  8
0
 10
73.059
 20
98.4767
 30
0.0
 40
0
 41
0
  0
VERTEX
  8
0
 10
73.059
 20
96.129
 30
0.0
 40
0
 41
0
  0
VERTEX
  8
0
 10
44.6215
 20
96.129
 30
0.0
 40
0
 41
0
  0
VERTEX
  8
0
 10
44.6215
 20
98.4767
 30
0.0
 40
0
 41
0
  0
SEQEND
 8
0
  0
POLYLINE
  8
0
 62
     0
 66
     1
 10
0
 20
0
 30
0.0
 70
     1
 40
0
 41
0
  0
VERTEX
  8
0
 10
62.2253
 20
20.9913
 30
0.0
 40
0
 41
0
  0
VERTEX
  8
0
 10
62.2253
 20
9.50271
 30
0.0
 40
0
 41
0
  0
VERTEX
  8
0
 10
61.2253
 20
9.50271
 30
0.0
 40
0
 41
0
  0
VERTEX
  8
0
 10
61.2253
 20
1.00331
 30
0.0
 40
0
 41
0
  0
VERTEX
  8
0
 10
59.8142
 20
1.00331
 30
0.0
 40
0
 41
0
  0
VERTEX
  8
0
 10
59.8142
 20
0.00330946
 30
0.0
 40
0
 41
0
  0
VERTEX
  8
0
 10
57.7392
 20
0.00330946
 30
0.0
 40
0
 41
0
  0
VERTEX
  8
0
 10
57.7392
 20
1.00331
 30
0.0
 40
0
 41
0
  0
VERTEX
  8
0
 10
48.9028
 20
1.00331
 30
0.0
 40
0
 41
0
  0
VERTEX
  8
0
 10
48.9028
 20
0.00330946
 30
0.0
 40
0
 41
0
  0
VERTEX
  8
0
 10
46.8279
 20
0.00330946
 30
0.0
 40
0
 41
0
  0
VERTEX
  8
0
 10
46.8279
 20
1.00331
 30
0.0
 40
0
 41
0
  0
VERTEX
  8
0
 10
46.2411
 20
1.00331
 30
0.0
 40
0
 41
0
  0
VERTEX
  8
0
 10
46.2411
 20
10.1961
 30
0.0
 40
0
 41
0
  0
VERTEX
  8
0
 10
45.2411
 20
10.1961
 30
0.0
 40
0
 41
0
  0
VERTEX
  8
0
 10
45.2411
 20
20.3258
 30
0.0
 40
0
 41
0
  0
VERTEX
  8
0
 10
46.2411
 20
20.3258
 30
0.0
 40
0
 41
0
  0
VERTEX
  8
0
 10
46.2411
 20
25.8965
 30
0.0
 40
0
 41
0
  0
VERTEX
  8
0
 10
46.8279
 20
25.8965
 30
0.0
 40
0
 41
0
  0
VERTEX
  8
0
 10
46.8279
 20
26.8965
 30
0.0
 40
0
 41
0
  0
VERTEX
  8
0
 10
48.9028
 20
26.8965
 30
0.0
 40
0
 41
0
  0
VERTEX
  8
0
 10
48.9028
 20
25.8965
 30
0.0
 40
0
 41
0
  0
VERTEX
  8
0
 10
57.7392
 20
25.8965
 30
0.0
 40
0
 41
0
  0
VERTEX
  8
0
 10
57.7392
 20
26.8965
 30
0.0
 40
0
 41
0
  0
VERTEX
  8
0
 10
59.8142
 20
26.8965
 30
0.0
 40
0
 41
0
  0
VERTEX
  8
0
 10
59.8142
 20
25.8965
 30
0.0
 40
0
 41
0
  0
VERTEX
  8
0
 10
61.2253
 20
25.8965
 30
0.0
 40
0
 41
0
  0
VERTEX
  8
0
 10
61.2253
 20
20.9913
 30
0.0
 40
0
 41
0
  0
VERTEX
  8
0
 10
62.2253
 20
20.9913
 30
0.0
 40
0
 41
0
  0
SEQEND
 8
0
  0
POLYLINE
  8
0
 62
     0
 66
     1
 10
0
 20
0
 30
0.0
 70
     1
 40
0
 41
0
  0
VERTEX
  8
0
 10
47.0435
 20
6.4981
 30
0.0
 40
0
 41
0
  0
VERTEX
  8
0
 10
47.9685
 20
6.4981
 30
0.0
 40
0
 41
0
  0
VERTEX
  8
0
 10
47.9685
 20
2.57308
 30
0.0
 40
0
 41
0
  0
VERTEX
  8
0
 10
47.0435
 20
2.57308
 30
0.0
 40
0
 41
0
  0
VERTEX
  8
0
 10
47.0435
 20
6.4981
 30
0.0
 40
0
 41
0
  0
SEQEND
 8
0
  0
POLYLINE
  8
0
 62
     0
 66
     1
 10
0
 20
0
 30
0.0
 70
     1
 40
0
 41
0
  0
VERTEX
  8
0
 10
47.0435
 20
23.5362
 30
0.0
 40
0
 41
0
  0
VERTEX
  8
0
 10
47.9685
 20
23.5362
 30
0.0
 40
0
 41
0
  0
VERTEX
  8
0
 10
47.9685
 20
20.3258
 30
0.0
 40
0
 41
0
  0
VERTEX
  8
0
 10
47.0435
 20
20.3258
 30
0.0
 40
0
 41
0
  0
VERTEX
  8
0
 10
47.0435
 20
23.5362
 30
0.0
 40
0
 41
0
  0
SEQEND
 8
0
  0
POLYLINE
  8
0
 62
     0
 66
     1
 10
0
 20
0
 30
0.0
 70
     1
 40
0
 41
0
  0
VERTEX
  8
0
 10
49.8617
 20
25.0033
 30
0.0
 40
0
 41
0
  0
VERTEX
  8
0
 10
56.6049
 20
25.0033
 30
0.0
 40
0
 41
0
  0
VERTEX
  8
0
 10
56.6049
 20
18.0178
 30
0.0
 40
0
 41
0
  0
VERTEX
  8
0
 10
49.8617
 20
18.0178
 30
0.0
 40
0
 41
0
  0
VERTEX
  8
0
 10
49.8617
 20
25.0033
 30
0.0
 40
0
 41
0
  0
SEQEND
 8
0
  0
POLYLINE
  8
0
 62
     0
 66
     1
 10
0
 20
0
 30
0.0
 70
     1
 40
0
 41
0
  0
VERTEX
  8
0
 10
49.8617
 20
16.9428
 30
0.0
 40
0
 41
0
  0
VERTEX
  8
0
 10
56.6049
 20
16.9428
 30
0.0
 40
0
 41
0
  0
VERTEX
  8
0
 10
56.6049
 20
9.95714
 30
0.0
 40
0
 41
0
  0
VERTEX
  8
0
 10
49.8617
 20
9.95714
 30
0.0
 40
0
 41
0
  0
VERTEX
  8
0
 10
49.8617
 20
16.9428
 30
0.0
 40
0
 41
0
  0
SEQEND
 8
0
  0
POLYLINE
  8
0
 62
     0
 66
     1
 10
0
 20
0
 30
0.0
 70
     1
 40
0
 41
0
  0
VERTEX
  8
0
 10
49.8617
 20
8.88211
 30
0.0
 40
0
 41
0
  0
VERTEX
  8
0
 10
56.6049
 20
8.88211
 30
0.0
 40
0
 41
0
  0
VERTEX
  8
0
 10
56.6049
 20
1.89649
 30
0.0
 40
0
 41
0
  0
VERTEX
  8
0
 10
49.8617
 20
1.89649
 30
0.0
 40
0
 41
0
  0
VERTEX
  8
0
 10
49.8617
 20
8.88211
 30
0.0
 40
0
 41
0
  0
SEQEND
 8
0
  0
POLYLINE
  8
0
 62
     0
 66
     1
 10
0
 20
0
 30
0.0
 70
     1
 40
0
 41
0
  0
VERTEX
  8
0
 10
70.4399
 20
128.941
 30
0.0
 40
0
 41
0
  0
VERTEX
  8
0
 10
73.1049
 20
128.941
 30
0.0
 40
0
 41
0
  0
VERTEX
  8
0
 10
73.1049
 20
101.118
 30
0.0
 40
0
 41
0
  0
VERTEX
  8
0
 10
70.4399
 20
101.118
 30
0.0
 40
0
 41
0
  0
VERTEX
  8
0
 10
70.4399
 20
128.941
 30
0.0
 40
0
 41
0
  0
SEQEND
 8
0
  0
POLYLINE
  8
0
 62
     0
 66
     1
 10
0
 20
0
 30
0.0
 70
     1
 40
0
 41
0
  0
VERTEX
  8
0
 10
74.1058
 20
90.4381
 30
0.0
 40
0
 41
0
  0
VERTEX
  8
0
 10
74.1058
 20
92.5131
 30
0.0
 40
0
 41
0
  0
VERTEX
  8
0
 10
75.1058
 20
92.5131
 30
0.0
 40
0
 41
0
  0
VERTEX
  8
0
 10
75.1058
 20
95.0585
 30
0.0
 40
0
 41
0
  0
VERTEX
  8
0
 10
79.7263
 20
95.0585
 30
0.0
 40
0
 41
0
  0
VERTEX
  8
0
 10
79.7263
 20
90.4381
 30
0.0
 40
0
 41
0
  0
VERTEX
  8
0
 10
74.1058
 20
90.4381
 30
0.0
 40
0
 41
0
  0
SEQEND
 8
0
  0
POLYLINE
  8
0
 62
     0
 66
     1
 10
0
 20
0
 30
0.0
 70
     1
 40
0
 41
0
  0
VERTEX
  8
0
 10
79.7253
 20
97.0585
 30
0.0
 40
0
 41
0
  0
VERTEX
  8
0
 10
75.1049
 20
97.0585
 30
0.0
 40
0
 41
0
  0
VERTEX
  8
0
 10
75.1049
 20
101.679
 30
0.0
 40
0
 41
0
  0
VERTEX
  8
0
 10
77.6503
 20
101.679
 30
0.0
 40
0
 41
0
  0
VERTEX
  8
0
 10
77.6503
 20
102.679
 30
0.0
 40
0
 41
0
  0
VERTEX
  8
0
 10
79.7253
 20
102.679
 30
0.0
 40
0
 41
0
  0
VERTEX
  8
0
 10
79.7253
 20
97.0585
 30
0.0
 40
0
 41
0
  0
SEQEND
 8
0
  0
ENDSEC
  0
EOF
