  0
SECTION
  2
HEADER
  9
$ACADVER
  1
AC1009
  9
$EXTMIN
 10
0.0
 20
0.0
 30
0.0
  9
$EXTMAX
 10
1000.0
 20
1000.0
 30
0.0
  9
$FILLMODE
 70
 0
  9
$SPLFRAME
 70
 1
  0
ENDSEC
  0
SECTION
  2
TABLES
  0
TABLE
  2
LAYER
 70
1
  0
LAYER
  2
0
 70
     0
 62
     7
  6
CONTINUOUS
  0
ENDTAB
  0
ENDSEC
  0
SECTION
  2
ENTITIES
  0
POLYLINE
  8
0
 62
     0
 66
     1
 10
0
 20
0
 30
0.0
 70
     1
 40
25.4
 41
25.4
  0
VERTEX
  8
0
 10
55.1715
 20
60.6806
 30
0.0
 40
0.352778
 41
0.352778
  0
VERTEX
  8
0
 10
55.1715
 20
22.7858
 30
0.0
 40
0.352778
 41
0.352778
  0
VERTEX
  8
0
 10
25.1383
 20
22.7858
 30
0.0
 40
0.352778
 41
0.352778
  0
VERTEX
  8
0
 10
25.0131
 20
22.7696
 30
0.0
 40
0.352778
 41
0.352778
  0
VERTEX
  8
0
 10
24.6358
 20
22.7314
 30
0.0
 40
0.352778
 41
0.352778
  0
VERTEX
  8
0
 10
24.1332
 20
22.6981
 30
0.0
 40
0.352778
 41
0.352778
  0
VERTEX
  8
0
 10
23.6308
 20
22.6856
 30
0.0
 40
0.352778
 41
0.352778
  0
VERTEX
  8
0
 10
23.1294
 20
22.694
 30
0.0
 40
0.352778
 41
0.352778
  0
VERTEX
  8
0
 10
22.6297
 20
22.7231
 30
0.0
 40
0.352778
 41
0.352778
  0
VERTEX
  8
0
 10
22.1322
 20
22.7728
 30
0.0
 40
0.352778
 41
0.352778
  0
VERTEX
  8
0
 10
21.6375
 20
22.8429
 30
0.0
 40
0.352778
 41
0.352778
  0
VERTEX
  8
0
 10
21.1464
 20
22.9333
 30
0.0
 40
0.352778
 41
0.352778
  0
VERTEX
  8
0
 10
20.6594
 20
23.0439
 30
0.0
 40
0.352778
 41
0.352778
  0
VERTEX
  8
0
 10
20.1772
 20
23.1744
 30
0.0
 40
0.352778
 41
0.352778
  0
VERTEX
  8
0
 10
19.7004
 20
23.325
 30
0.0
 40
0.352778
 41
0.352778
  0
VERTEX
  8
0
 10
19.2297
 20
23.4954
 30
0.0
 40
0.352778
 41
0.352778
  0
VERTEX
  8
0
 10
18.7657
 20
23.6854
 30
0.0
 40
0.352778
 41
0.352778
  0
VERTEX
  8
0
 10
18.3089
 20
23.8949
 30
0.0
 40
0.352778
 41
0.352778
  0
VERTEX
  8
0
 10
17.8601
 20
24.1238
 30
0.0
 40
0.352778
 41
0.352778
  0
VERTEX
  8
0
 10
17.5286
 20
24.3076
 30
0.0
 40
0.352778
 41
0.352778
  0
VERTEX
  8
0
 10
17.4199
 20
24.3719
 30
0.0
 40
0.352778
 41
0.352778
  0
VERTEX
  8
0
 10
17.3113
 20
24.4363
 30
0.0
 40
0.352778
 41
0.352778
  0
VERTEX
  8
0
 10
16.9904
 20
24.6383
 30
0.0
 40
0.352778
 41
0.352778
  0
VERTEX
  8
0
 10
16.5736
 20
24.9214
 30
0.0
 40
0.352778
 41
0.352778
  0
VERTEX
  8
0
 10
16.1701
 20
25.2208
 30
0.0
 40
0.352778
 41
0.352778
  0
VERTEX
  8
0
 10
15.7801
 20
25.5361
 30
0.0
 40
0.352778
 41
0.352778
  0
VERTEX
  8
0
 10
15.4043
 20
25.8667
 30
0.0
 40
0.352778
 41
0.352778
  0
VERTEX
  8
0
 10
15.0426
 20
26.2121
 30
0.0
 40
0.352778
 41
0.352778
  0
VERTEX
  8
0
 10
14.6961
 20
26.5718
 30
0.0
 40
0.352778
 41
0.352778
  0
VERTEX
  8
0
 10
14.3646
 20
26.9453
 30
0.0
 40
0.352778
 41
0.352778
  0
VERTEX
  8
0
 10
14.0489
 20
27.3322
 30
0.0
 40
0.352778
 41
0.352778
  0
VERTEX
  8
0
 10
13.7493
 20
27.7319
 30
0.0
 40
0.352778
 41
0.352778
  0
VERTEX
  8
0
 10
13.4663
 20
28.1442
 30
0.0
 40
0.352778
 41
0.352778
  0
VERTEX
  8
0
 10
13.2001
 20
28.5682
 30
0.0
 40
0.352778
 41
0.352778
  0
VERTEX
  8
0
 10
12.9513
 20
29.0035
 30
0.0
 40
0.352778
 41
0.352778
  0
VERTEX
  8
0
 10
12.7204
 20
29.4497
 30
0.0
 40
0.352778
 41
0.352778
  0
VERTEX
  8
0
 10
12.5075
 20
29.9065
 30
0.0
 40
0.352778
 41
0.352778
  0
VERTEX
  8
0
 10
12.3595
 20
30.2554
 30
0.0
 40
0.352778
 41
0.352778
  0
VERTEX
  8
0
 10
12.3134
 20
30.3731
 30
0.0
 40
0.352778
 41
0.352778
  0
VERTEX
  8
0
 10
12.1802
 20
30.7129
 30
0.0
 40
0.352778
 41
0.352778
  0
VERTEX
  8
0
 10
11.8126
 20
31.7454
 30
0.0
 40
0.352778
 41
0.352778
  0
VERTEX
  8
0
 10
11.3785
 20
33.1343
 30
0.0
 40
0.352778
 41
0.352778
  0
VERTEX
  8
0
 10
11.0112
 20
34.5374
 30
0.0
 40
0.352778
 41
0.352778
  0
VERTEX
  8
0
 10
10.7107
 20
35.9524
 30
0.0
 40
0.352778
 41
0.352778
  0
VERTEX
  8
0
 10
10.4769
 20
37.3768
 30
0.0
 40
0.352778
 41
0.352778
  0
VERTEX
  8
0
 10
10.31
 20
38.8082
 30
0.0
 40
0.352778
 41
0.352778
  0
VERTEX
  8
0
 10
10.2098
 20
40.2444
 30
0.0
 40
0.352778
 41
0.352778
  0
VERTEX
  8
0
 10
10.1764
 20
41.6831
 30
0.0
 40
0.352778
 41
0.352778
  0
VERTEX
  8
0
 10
10.2098
 20
43.1217
 30
0.0
 40
0.352778
 41
0.352778
  0
VERTEX
  8
0
 10
10.31
 20
44.5579
 30
0.0
 40
0.352778
 41
0.352778
  0
VERTEX
  8
0
 10
10.4769
 20
45.9893
 30
0.0
 40
0.352778
 41
0.352778
  0
VERTEX
  8
0
 10
10.7107
 20
47.4138
 30
0.0
 40
0.352778
 41
0.352778
  0
VERTEX
  8
0
 10
11.0112
 20
48.8286
 30
0.0
 40
0.352778
 41
0.352778
  0
VERTEX
  8
0
 10
11.3785
 20
50.2318
 30
0.0
 40
0.352778
 41
0.352778
  0
VERTEX
  8
0
 10
11.8126
 20
51.6207
 30
0.0
 40
0.352778
 41
0.352778
  0
VERTEX
  8
0
 10
12.1802
 20
52.6531
 30
0.0
 40
0.352778
 41
0.352778
  0
VERTEX
  8
0
 10
12.3134
 20
52.9931
 30
0.0
 40
0.352778
 41
0.352778
  0
VERTEX
  8
0
 10
12.3549
 20
53.099
 30
0.0
 40
0.352778
 41
0.352778
  0
VERTEX
  8
0
 10
12.4876
 20
53.414
 30
0.0
 40
0.352778
 41
0.352778
  0
VERTEX
  8
0
 10
12.677
 20
53.8272
 30
0.0
 40
0.352778
 41
0.352778
  0
VERTEX
  8
0
 10
12.8813
 20
54.2321
 30
0.0
 40
0.352778
 41
0.352778
  0
VERTEX
  8
0
 10
13.1004
 20
54.6283
 30
0.0
 40
0.352778
 41
0.352778
  0
VERTEX
  8
0
 10
13.3337
 20
55.0157
 30
0.0
 40
0.352778
 41
0.352778
  0
VERTEX
  8
0
 10
13.5811
 20
55.3935
 30
0.0
 40
0.352778
 41
0.352778
  0
VERTEX
  8
0
 10
13.8422
 20
55.7617
 30
0.0
 40
0.352778
 41
0.352778
  0
VERTEX
  8
0
 10
14.1168
 20
56.1197
 30
0.0
 40
0.352778
 41
0.352778
  0
VERTEX
  8
0
 10
14.4044
 20
56.4674
 30
0.0
 40
0.352778
 41
0.352778
  0
VERTEX
  8
0
 10
14.7051
 20
56.804
 30
0.0
 40
0.352778
 41
0.352778
  0
VERTEX
  8
0
 10
15.0182
 20
57.1296
 30
0.0
 40
0.352778
 41
0.352778
  0
VERTEX
  8
0
 10
15.3436
 20
57.4435
 30
0.0
 40
0.352778
 41
0.352778
  0
VERTEX
  8
0
 10
15.681
 20
57.7454
 30
0.0
 40
0.352778
 41
0.352778
  0
VERTEX
  8
0
 10
16.03
 20
58.035
 30
0.0
 40
0.352778
 41
0.352778
  0
VERTEX
  8
0
 10
16.3904
 20
58.3118
 30
0.0
 40
0.352778
 41
0.352778
  0
VERTEX
  8
0
 10
16.6679
 20
58.5115
 30
0.0
 40
0.352778
 41
0.352778
  0
VERTEX
  8
0
 10
16.7619
 20
58.5757
 30
0.0
 40
0.352778
 41
0.352778
  0
VERTEX
  8
0
 10
16.9497
 20
58.7037
 30
0.0
 40
0.352778
 41
0.352778
  0
VERTEX
  8
0
 10
17.5324
 20
59.0599
 30
0.0
 40
0.352778
 41
0.352778
  0
VERTEX
  8
0
 10
18.3336
 20
59.4831
 30
0.0
 40
0.352778
 41
0.352778
  0
VERTEX
  8
0
 10
19.1618
 20
59.8443
 30
0.0
 40
0.352778
 41
0.352778
  0
VERTEX
  8
0
 10
20.0136
 20
60.1424
 30
0.0
 40
0.352778
 41
0.352778
  0
VERTEX
  8
0
 10
20.8853
 20
60.3761
 30
0.0
 40
0.352778
 41
0.352778
  0
VERTEX
  8
0
 10
21.7731
 20
60.5446
 30
0.0
 40
0.352778
 41
0.352778
  0
VERTEX
  8
0
 10
22.6735
 20
60.6464
 30
0.0
 40
0.352778
 41
0.352778
  0
VERTEX
  8
0
 10
23.3554
 20
60.6806
 30
0.0
 40
0.352778
 41
0.352778
  0
VERTEX
  8
0
 10
23.5828
 20
60.6806
 30
0.0
 40
0.352778
 41
0.352778
  0
VERTEX
  8
0
 10
55.1715
 20
60.6806
 30
0.0
 40
0.352778
 41
0.352778
  0
SEQEND
 8
0
  0
POLYLINE
  8
0
 62
     0
 66
     1
 10
0
 20
0
 30
0.0
 40
25.4
 41
25.4
  0
VERTEX
  8
0
 10
55.1715
 20
23.3474
 30
0.0
 40
0.352778
 41
0.352778
  0
VERTEX
  8
0
 10
27.5778
 20
23.3474
 30
0.0
 40
0.352778
 41
0.352778
  0
VERTEX
  8
0
 10
27.3692
 20
23.3474
 30
0.0
 40
0.352778
 41
0.352778
  0
VERTEX
  8
0
 10
26.7432
 20
23.3788
 30
0.0
 40
0.352778
 41
0.352778
  0
VERTEX
  8
0
 10
25.9168
 20
23.4722
 30
0.0
 40
0.352778
 41
0.352778
  0
VERTEX
  8
0
 10
25.1019
 20
23.6268
 30
0.0
 40
0.352778
 41
0.352778
  0
VERTEX
  8
0
 10
24.3021
 20
23.8414
 30
0.0
 40
0.352778
 41
0.352778
  0
VERTEX
  8
0
 10
23.5203
 20
24.1149
 30
0.0
 40
0.352778
 41
0.352778
  0
VERTEX
  8
0
 10
22.7601
 20
24.4464
 30
0.0
 40
0.352778
 41
0.352778
  0
VERTEX
  8
0
 10
22.0247
 20
24.8349
 30
0.0
 40
0.352778
 41
0.352778
  0
VERTEX
  8
0
 10
21.49
 20
25.1617
 30
0.0
 40
0.352778
 41
0.352778
  0
VERTEX
  8
0
 10
21.3176
 20
25.2793
 30
0.0
 40
0.352778
 41
0.352778
  0
VERTEX
  8
0
 10
21.1453
 20
25.3968
 30
0.0
 40
0.352778
 41
0.352778
  0
VERTEX
  8
0
 10
20.6458
 20
25.7756
 30
0.0
 40
0.352778
 41
0.352778
  0
VERTEX
  8
0
 10
20.0158
 20
26.3185
 30
0.0
 40
0.352778
 41
0.352778
  0
VERTEX
  8
0
 10
19.4299
 20
26.9053
 30
0.0
 40
0.352778
 41
0.352778
  0
VERTEX
  8
0
 10
18.8899
 20
27.5333
 30
0.0
 40
0.352778
 41
0.352778
  0
VERTEX
  8
0
 10
18.3983
 20
28.1999
 30
0.0
 40
0.352778
 41
0.352778
  0
VERTEX
  8
0
 10
17.9571
 20
28.9021
 30
0.0
 40
0.352778
 41
0.352778
  0
VERTEX
  8
0
 10
17.5686
 20
29.6374
 30
0.0
 40
0.352778
 41
0.352778
  0
VERTEX
  8
0
 10
17.311
 20
30.2088
 30
0.0
 40
0.352778
 41
0.352778
  0
VERTEX
  8
0
 10
17.2349
 20
30.4029
 30
0.0
 40
0.352778
 41
0.352778
  0
VERTEX
  8
0
 10
17.1069
 20
30.7296
 30
0.0
 40
0.352778
 41
0.352778
  0
VERTEX
  8
0
 10
16.7535
 20
31.7214
 30
0.0
 40
0.352778
 41
0.352778
  0
VERTEX
  8
0
 10
16.3349
 20
33.0587
 30
0.0
 40
0.352778
 41
0.352778
  0
VERTEX
  8
0
 10
15.9794
 20
34.4126
 30
0.0
 40
0.352778
 41
0.352778
  0
VERTEX
  8
0
 10
15.6878
 20
35.7808
 30
0.0
 40
0.352778
 41
0.352778
  0
VERTEX
  8
0
 10
15.4603
 20
37.1613
 30
0.0
 40
0.352778
 41
0.352778
  0
VERTEX
  8
0
 10
15.2972
 20
38.5514
 30
0.0
 40
0.352778
 41
0.352778
  0
VERTEX
  8
0
 10
15.1992
 20
39.9493
 30
0.0
 40
0.352778
 41
0.352778
  0
VERTEX
  8
0
 10
15.1664
 20
41.0017
 30
0.0
 40
0.352778
 41
0.352778
  0
VERTEX
  8
0
 10
15.1664
 20
41.3525
 30
0.0
 40
0.352778
 41
0.352778
  0
VERTEX
  8
0
 10
55.1715
 20
41.3525
 30
0.0
 40
0.352778
 41
0.352778
  0
SEQEND
 8
0
  0
POLYLINE
  8
0
 62
     0
 66
     1
 10
0
 20
0
 30
0.0
 40
25.4
 41
25.4
  0
VERTEX
  8
0
 10
15.1664
 20
41.3525
 30
0.0
 40
0.352778
 41
0.352778
  0
VERTEX
  8
0
 10
15.1664
 20
41.7032
 30
0.0
 40
0.352778
 41
0.352778
  0
VERTEX
  8
0
 10
15.1992
 20
42.7557
 30
0.0
 40
0.352778
 41
0.352778
  0
VERTEX
  8
0
 10
15.2972
 20
44.1535
 30
0.0
 40
0.352778
 41
0.352778
  0
VERTEX
  8
0
 10
15.4603
 20
45.5436
 30
0.0
 40
0.352778
 41
0.352778
  0
VERTEX
  8
0
 10
15.6878
 20
46.924
 30
0.0
 40
0.352778
 41
0.352778
  0
VERTEX
  8
0
 10
15.9794
 20
48.2924
 30
0.0
 40
0.352778
 41
0.352778
  0
VERTEX
  8
0
 10
16.3349
 20
49.6463
 30
0.0
 40
0.352778
 41
0.352778
  0
VERTEX
  8
0
 10
16.7535
 20
50.9835
 30
0.0
 40
0.352778
 41
0.352778
  0
VERTEX
  8
0
 10
17.1069
 20
51.9753
 30
0.0
 40
0.352778
 41
0.352778
  0
VERTEX
  8
0
 10
17.2349
 20
52.3018
 30
0.0
 40
0.352778
 41
0.352778
  0
VERTEX
  8
0
 10
17.311
 20
52.4961
 30
0.0
 40
0.352778
 41
0.352778
  0
VERTEX
  8
0
 10
17.5686
 20
53.0675
 30
0.0
 40
0.352778
 41
0.352778
  0
VERTEX
  8
0
 10
17.9571
 20
53.8028
 30
0.0
 40
0.352778
 41
0.352778
  0
VERTEX
  8
0
 10
18.3983
 20
54.505
 30
0.0
 40
0.352778
 41
0.352778
  0
VERTEX
  8
0
 10
18.8899
 20
55.1717
 30
0.0
 40
0.352778
 41
0.352778
  0
VERTEX
  8
0
 10
19.4299
 20
55.7996
 30
0.0
 40
0.352778
 41
0.352778
  0
VERTEX
  8
0
 10
20.0158
 20
56.3864
 30
0.0
 40
0.352778
 41
0.352778
  0
VERTEX
  8
0
 10
20.6458
 20
56.9293
 30
0.0
 40
0.352778
 41
0.352778
  0
VERTEX
  8
0
 10
21.1453
 20
57.3081
 30
0.0
 40
0.352778
 41
0.352778
  0
VERTEX
  8
0
 10
21.3176
 20
57.4256
 30
0.0
 40
0.352778
 41
0.352778
  0
VERTEX
  8
0
 10
21.49
 20
57.5432
 30
0.0
 40
0.352778
 41
0.352778
  0
VERTEX
  8
0
 10
22.0247
 20
57.87
 30
0.0
 40
0.352778
 41
0.352778
  0
VERTEX
  8
0
 10
22.7601
 20
58.2585
 30
0.0
 40
0.352778
 41
0.352778
  0
VERTEX
  8
0
 10
23.5203
 20
58.59
 30
0.0
 40
0.352778
 41
0.352778
  0
VERTEX
  8
0
 10
24.3021
 20
58.8635
 30
0.0
 40
0.352778
 41
0.352778
  0
VERTEX
  8
0
 10
25.1019
 20
59.0781
 30
0.0
 40
0.352778
 41
0.352778
  0
VERTEX
  8
0
 10
25.9168
 20
59.2326
 30
0.0
 40
0.352778
 41
0.352778
  0
VERTEX
  8
0
 10
26.7432
 20
59.3261
 30
0.0
 40
0.352778
 41
0.352778
  0
VERTEX
  8
0
 10
27.3692
 20
59.3574
 30
0.0
 40
0.352778
 41
0.352778
  0
VERTEX
  8
0
 10
27.5778
 20
59.3574
 30
0.0
 40
0.352778
 41
0.352778
  0
VERTEX
  8
0
 10
55.1715
 20
59.3574
 30
0.0
 40
0.352778
 41
0.352778
  0
SEQEND
 8
0
  0
POLYLINE
  8
0
 62
     0
 66
     1
 10
0
 20
0
 30
0.0
 70
     1
 40
25.4
 41
25.4
  0
VERTEX
  8
0
 10
0.176378
 20
83.1847
 30
0.0
 40
0.352778
 41
0.352778
  0
VERTEX
  8
0
 10
57.1765
 20
83.1847
 30
0.0
 40
0.352778
 41
0.352778
  0
VERTEX
  8
0
 10
57.1765
 20
0.181315
 30
0.0
 40
0.352778
 41
0.352778
  0
VERTEX
  8
0
 10
0.176378
 20
0.181315
 30
0.0
 40
0.352778
 41
0.352778
  0
VERTEX
  8
0
 10
0.176378
 20
83.1847
 30
0.0
 40
0.352778
 41
0.352778
  0
SEQEND
 8
0
  0
POLYLINE
  8
0
 62
     0
 66
     1
 10
0
 20
0
 30
0.0
 70
     1
 40
25.4
 41
25.4
  0
VERTEX
  8
0
 10
48.6765
 20
18.0743
 30
0.0
 40
0.352778
 41
0.352778
  0
VERTEX
  8
0
 10
51.7715
 20
18.0743
 30
0.0
 40
0.352778
 41
0.352778
  0
VERTEX
  8
0
 10
51.7715
 20
10.8292
 30
0.0
 40
0.352778
 41
0.352778
  0
VERTEX
  8
0
 10
48.6765
 20
10.8292
 30
0.0
 40
0.352778
 41
0.352778
  0
VERTEX
  8
0
 10
48.6765
 20
18.0743
 30
0.0
 40
0.352778
 41
0.352778
  0
SEQEND
 8
0
  0
POLYLINE
  8
0
 62
     0
 66
     1
 10
0
 20
0
 30
0.0
 70
     1
 40
25.4
 41
25.4
  0
VERTEX
  8
0
 10
48.6765
 20
72.5368
 30
0.0
 40
0.352778
 41
0.352778
  0
VERTEX
  8
0
 10
51.7715
 20
72.5368
 30
0.0
 40
0.352778
 41
0.352778
  0
VERTEX
  8
0
 10
51.7715
 20
65.2918
 30
0.0
 40
0.352778
 41
0.352778
  0
VERTEX
  8
0
 10
48.6765
 20
65.2918
 30
0.0
 40
0.352778
 41
0.352778
  0
VERTEX
  8
0
 10
48.6765
 20
72.5368
 30
0.0
 40
0.352778
 41
0.352778
  0
SEQEND
 8
0
  0
ENDSEC
  0
EOF
