  0
SECTION
  2
HEADER
  9
$ACADVER
  1
AC1009
  9
$DWGCODEPAGE
  3
ANSI_1252
  9
$EXTMIN
 10
0.0
 20
0.0
 30
0.0
  9
$EXTMAX
 10
1000.0
 20
1000.0
 30
0.0
  9
$FILLMODE
 70
0
  9
$TDCREATE
 40
2459901.3557175924
  9
$TDUPDATE
 40
2459901.3557175924
  9
$SPLFRAME
 70
1
  0
ENDSEC
  0
SECTION
  2
TABLES
  0
TABLE
  2
VPORT
 70
1
  0
VPORT
  2
*Active
 70
0
 10
0.0
 20
0.0
 11
1.0
 21
1.0
 12
70.0
 22
50.0
 13
0.0
 23
0.0
 14
0.5
 24
0.5
 15
0.5
 25
0.5
 16
0.0
 26
0.0
 36
1.0
 17
0.0
 27
0.0
 37
0.0
 40
1.0
 41
1.34
 42
50.0
 43
0.0
 44
0.0
 50
0.0
 51
0.0
 71
0
 72
1000
 73
1
 74
3
 75
0
 76
0
 77
0
 78
0
  0
ENDTAB
  0
TABLE
  2
LTYPE
 70
3
  0
LTYPE
  2
ByBlock
 70
0
  3

 72
65
 73
0
 40
0.0
  0
LTYPE
  2
ByLayer
 70
0
  3

 72
65
 73
0
 40
0.0
  0
LTYPE
  2
Continuous
 70
0
  3

 72
65
 73
0
 40
0.0
  0
ENDTAB
  0
TABLE
  2
LAYER
 70
2
  0
LAYER
  2
0
 70
0
 62
7
  6
CONTINUOUS
  0
LAYER
  2
Defpoints
 70
0
 62
7
  6
Continuous
  0
ENDTAB
  0
TABLE
  2
STYLE
 70
1
  0
STYLE
  2
Standard
 70
0
 40
0.0
 41
1.0
 50
0.0
 71
0
 42
2.5
  3
txt
  4

  0
ENDTAB
  0
TABLE
  2
VIEW
 70
0
  0
ENDTAB
  0
TABLE
  2
UCS
 70
0
  0
ENDTAB
  0
TABLE
  2
APPID
 70
2
  0
APPID
  2
ACAD
 70
0
  0
APPID
  2
HATCHBACKGROUNDCOLOR
 70
0
  0
ENDTAB
  0
TABLE
  2
DIMSTYLE
 70
1
  0
DIMSTYLE
  2
Standard
 70
0
  3

  4

  5

  6

  7

 40
1.0
 41
2.5
 42
0.625
 43
3.75
 44
1.25
 45
0.0
 46
0.0
 47
0.0
 48
0.0
140
2.5
141
2.5
142
0.0
143
0.03937007874
144
1.0
145
0.0
146
1.0
147
0.625
 71
0
 72
0
 73
0
 74
0
 75
0
 76
0
 77
1
 78
8
170
0
171
3
172
1
173
0
174
0
175
0
176
0
177
0
178
0
  0
ENDTAB
  0
ENDSEC
  0
SECTION
  2
BLOCKS
  0
BLOCK
  8
0
  2
$Model_Space
 70
0
 10
0.0
 20
0.0
 30
0.0
  3
$Model_Space
  1

  0
ENDBLK
  8
0
  0
BLOCK
  8
0
  2
$Paper_Space
 70
0
 10
0.0
 20
0.0
 30
0.0
  3
$Paper_Space
  1

  0
ENDBLK
  8
0
  0
ENDSEC
  0
SECTION
  2
ENTITIES
  0
POLYLINE
  8
0
 62
0
 66
1
 10
0.0
 20
0.0
 30
0.0
 70
1
  0
VERTEX
  8
0
 10
55.0056
 20
190.95327994
 30
0.0
 70
0
  0
VERTEX
  8
0
 10
55.0056
 20
186.24527994
 30
0.0
 70
0
  0
VERTEX
  8
0
 10
56.1056
 20
186.24527994
 30
0.0
 70
0
  0
VERTEX
  8
0
 10
56.1056
 20
178.19527993999998
 30
0.0
 70
0
  0
VERTEX
  8
0
 10
55.0056
 20
178.19527993999998
 30
0.0
 70
0
  0
VERTEX
  8
0
 10
55.0056
 20
171.24527994
 30
0.0
 70
0
  0
VERTEX
  8
0
 10
56.1056
 20
171.24527994
 30
0.0
 70
0
  0
VERTEX
  8
0
 10
56.1056
 20
163.16627993999998
 30
0.0
 70
0
  0
VERTEX
  8
0
 10
55.0056
 20
163.16627993999998
 30
0.0
 70
0
  0
VERTEX
  8
0
 10
55.0056
 20
156.11727994
 30
0.0
 70
0
  0
VERTEX
  8
0
 10
50.2506
 20
156.11727994
 30
0.0
 70
0
  0
VERTEX
  8
0
 10
50.2506
 20
155.01727993999998
 30
0.0
 70
0
  0
VERTEX
  8
0
 10
40.2006
 20
155.01727993999998
 30
0.0
 70
0
  0
VERTEX
  8
0
 10
40.2006
 20
156.11727994
 30
0.0
 70
0
  0
VERTEX
  8
0
 10
26.506
 20
156.11727994
 30
0.0
 70
0
  0
VERTEX
  8
0
 10
26.506
 20
155.01727993999998
 30
0.0
 70
0
  0
VERTEX
  8
0
 10
16.45594
 20
155.01727993999998
 30
0.0
 70
0
  0
VERTEX
  8
0
 10
16.45594
 20
156.11727994
 30
0.0
 70
0
  0
VERTEX
  8
0
 10
11.7009
 20
156.11727994
 30
0.0
 70
0
  0
VERTEX
  8
0
 10
11.7009
 20
163.16627993999998
 30
0.0
 70
0
  0
VERTEX
  8
0
 10
10.600911
 20
163.16627993999998
 30
0.0
 70
0
  0
VERTEX
  8
0
 10
10.600911
 20
171.24527994
 30
0.0
 70
0
  0
VERTEX
  8
0
 10
11.7009
 20
171.24527994
 30
0.0
 70
0
  0
VERTEX
  8
0
 10
11.7009
 20
178.19527993999998
 30
0.0
 70
0
  0
VERTEX
  8
0
 10
10.600911
 20
178.19527993999998
 30
0.0
 70
0
  0
VERTEX
  8
0
 10
10.600911
 20
186.24527994
 30
0.0
 70
0
  0
VERTEX
  8
0
 10
11.7009
 20
186.24527994
 30
0.0
 70
0
  0
VERTEX
  8
0
 10
11.7009
 20
190.95327994
 30
0.0
 70
0
  0
VERTEX
  8
0
 10
55.0056
 20
190.95327994
 30
0.0
 70
0
  0
SEQEND
  8
0
  0
POLYLINE
  8
0
 62
0
 66
1
 10
0.0
 20
0.0
 30
0.0
 70
1
  0
VERTEX
  8
0
 10
53.0961
 20
182.22027993999998
 30
0.0
 70
0
  0
VERTEX
  8
0
 10
53.0961
 20
182.16627993999998
 30
0.0
 70
0
  0
VERTEX
  8
0
 10
53.0742
 20
182.00327994
 30
0.0
 70
0
  0
VERTEX
  8
0
 10
53.0115
 20
181.80127994
 30
0.0
 70
0
  0
VERTEX
  8
0
 10
52.9125
 20
181.61927993999998
 30
0.0
 70
0
  0
VERTEX
  8
0
 10
52.7813
 20
181.45927994
 30
0.0
 70
0
  0
VERTEX
  8
0
 10
52.6221
 20
181.32827994
 30
0.0
 70
0
  0
VERTEX
  8
0
 10
52.4394
 20
181.22827994
 30
0.0
 70
0
  0
VERTEX
  8
0
 10
52.2378
 20
181.16627993999998
 30
0.0
 70
0
  0
VERTEX
  8
0
 10
52.0753
 20
181.14527994
 30
0.0
 70
0
  0
VERTEX
  8
0
 10
52.0211
 20
181.14527994
 30
0.0
 70
0
  0
VERTEX
  8
0
 10
51.9669
 20
181.14527994
 30
0.0
 70
0
  0
VERTEX
  8
0
 10
51.8044
 20
181.16627993999998
 30
0.0
 70
0
  0
VERTEX
  8
0
 10
51.6026
 20
181.22827994
 30
0.0
 70
0
  0
VERTEX
  8
0
 10
51.42
 20
181.32827994
 30
0.0
 70
0
  0
VERTEX
  8
0
 10
51.261
 20
181.45927994
 30
0.0
 70
0
  0
VERTEX
  8
0
 10
51.1297
 20
181.61927993999998
 30
0.0
 70
0
  0
VERTEX
  8
0
 10
51.0306
 20
181.80127994
 30
0.0
 70
0
  0
VERTEX
  8
0
 10
50.9679
 20
182.00327994
 30
0.0
 70
0
  0
VERTEX
  8
0
 10
50.9461
 20
182.16627993999998
 30
0.0
 70
0
  0
VERTEX
  8
0
 10
50.9461
 20
182.22027993999998
 30
0.0
 70
0
  0
VERTEX
  8
0
 10
50.9461
 20
182.27427993999999
 30
0.0
 70
0
  0
VERTEX
  8
0
 10
50.9679
 20
182.43727994
 30
0.0
 70
0
  0
VERTEX
  8
0
 10
51.0306
 20
182.63827994
 30
0.0
 70
0
  0
VERTEX
  8
0
 10
51.1297
 20
182.82027993999998
 30
0.0
 70
0
  0
VERTEX
  8
0
 10
51.261
 20
182.98027994
 30
0.0
 70
0
  0
VERTEX
  8
0
 10
51.42
 20
183.11027994
 30
0.0
 70
0
  0
VERTEX
  8
0
 10
51.6026
 20
183.21027994
 30
0.0
 70
0
  0
VERTEX
  8
0
 10
51.8044
 20
183.27327993999998
 30
0.0
 70
0
  0
VERTEX
  8
0
 10
51.9669
 20
183.29527994
 30
0.0
 70
0
  0
VERTEX
  8
0
 10
52.0211
 20
183.29527994
 30
0.0
 70
0
  0
VERTEX
  8
0
 10
52.0753
 20
183.29527994
 30
0.0
 70
0
  0
VERTEX
  8
0
 10
52.2378
 20
183.27327993999998
 30
0.0
 70
0
  0
VERTEX
  8
0
 10
52.4394
 20
183.21027994
 30
0.0
 70
0
  0
VERTEX
  8
0
 10
52.6221
 20
183.11027994
 30
0.0
 70
0
  0
VERTEX
  8
0
 10
52.7813
 20
182.98027994
 30
0.0
 70
0
  0
VERTEX
  8
0
 10
52.9125
 20
182.82027993999998
 30
0.0
 70
0
  0
VERTEX
  8
0
 10
53.0115
 20
182.63827994
 30
0.0
 70
0
  0
VERTEX
  8
0
 10
53.0742
 20
182.43727994
 30
0.0
 70
0
  0
VERTEX
  8
0
 10
53.0961
 20
182.27427993999999
 30
0.0
 70
0
  0
VERTEX
  8
0
 10
53.0961
 20
182.22027993999998
 30
0.0
 70
0
  0
SEQEND
  8
0
  0
POLYLINE
  8
0
 62
0
 66
1
 10
0.0
 20
0.0
 30
0.0
 70
1
  0
VERTEX
  8
0
 10
40.105599999999995
 20
167.48127993999998
 30
0.0
 70
0
  0
VERTEX
  8
0
 10
48.0556
 20
167.48127993999998
 30
0.0
 70
0
  0
VERTEX
  8
0
 10
48.0556
 20
166.43127994
 30
0.0
 70
0
  0
VERTEX
  8
0
 10
40.105599999999995
 20
166.43127994
 30
0.0
 70
0
  0
VERTEX
  8
0
 10
40.105599999999995
 20
167.48127993999998
 30
0.0
 70
0
  0
SEQEND
  8
0
  0
POLYLINE
  8
0
 62
0
 66
1
 10
0.0
 20
0.0
 30
0.0
 70
1
  0
VERTEX
  8
0
 10
18.650930000000002
 20
167.48127993999998
 30
0.0
 70
0
  0
VERTEX
  8
0
 10
26.601
 20
167.48127993999998
 30
0.0
 70
0
  0
VERTEX
  8
0
 10
26.601
 20
166.43127994
 30
0.0
 70
0
  0
VERTEX
  8
0
 10
18.650930000000002
 20
166.43127994
 30
0.0
 70
0
  0
VERTEX
  8
0
 10
18.650930000000002
 20
167.48127993999998
 30
0.0
 70
0
  0
SEQEND
  8
0
  0
POLYLINE
  8
0
 62
0
 66
1
 10
0.0
 20
0.0
 30
0.0
 70
1
  0
VERTEX
  8
0
 10
10.0
 20
153.20627994
 30
0.0
 70
0
  0
VERTEX
  8
0
 10
58.6864
 20
153.20627994
 30
0.0
 70
0
  0
VERTEX
  8
0
 10
58.6864
 20
97.70157994
 30
0.0
 70
0
  0
VERTEX
  8
0
 10
10.0
 20
97.70157994
 30
0.0
 70
0
  0
VERTEX
  8
0
 10
10.0
 20
153.20627994
 30
0.0
 70
0
  0
SEQEND
  8
0
  0
POLYLINE
  8
0
 62
0
 66
1
 10
0.0
 20
0.0
 30
0.0
 70
1
  0
VERTEX
  8
0
 10
26.4138
 20
122.47427994
 30
0.0
 70
0
  0
VERTEX
  8
0
 10
27.4636
 20
122.47427994
 30
0.0
 70
0
  0
VERTEX
  8
0
 10
27.4636
 20
103.85127994
 30
0.0
 70
0
  0
VERTEX
  8
0
 10
26.4138
 20
103.85127994
 30
0.0
 70
0
  0
VERTEX
  8
0
 10
26.4138
 20
122.47427994
 30
0.0
 70
0
  0
SEQEND
  8
0
  0
POLYLINE
  8
0
 62
0
 66
1
 10
0.0
 20
0.0
 30
0.0
 70
1
  0
VERTEX
  8
0
 10
26.4138
 20
147.05627994
 30
0.0
 70
0
  0
VERTEX
  8
0
 10
27.4636
 20
147.05627994
 30
0.0
 70
0
  0
VERTEX
  8
0
 10
27.4636
 20
128.43327993999998
 30
0.0
 70
0
  0
VERTEX
  8
0
 10
26.4138
 20
128.43327993999998
 30
0.0
 70
0
  0
VERTEX
  8
0
 10
26.4138
 20
147.05627994
 30
0.0
 70
0
  0
SEQEND
  8
0
  0
POLYLINE
  8
0
 62
0
 66
1
 10
0.0
 20
0.0
 30
0.0
 70
1
  0
VERTEX
  8
0
 10
52.5864
 20
115.80127994
 30
0.0
 70
0
  0
VERTEX
  8
0
 10
53.6364
 20
115.80127994
 30
0.0
 70
0
  0
VERTEX
  8
0
 10
53.6364
 20
107.85127994
 30
0.0
 70
0
  0
VERTEX
  8
0
 10
52.5864
 20
107.85127994
 30
0.0
 70
0
  0
VERTEX
  8
0
 10
52.5864
 20
115.80127994
 30
0.0
 70
0
  0
SEQEND
  8
0
  0
POLYLINE
  8
0
 62
0
 66
1
 10
0.0
 20
0.0
 30
0.0
 70
1
  0
VERTEX
  8
0
 10
46.5033
 20
129.91727994
 30
0.0
 70
0
  0
VERTEX
  8
0
 10
53.6364
 20
129.91727994
 30
0.0
 70
0
  0
VERTEX
  8
0
 10
53.6364
 20
120.99027994000001
 30
0.0
 70
0
  0
VERTEX
  8
0
 10
46.5033
 20
120.99027994000001
 30
0.0
 70
0
  0
VERTEX
  8
0
 10
46.5033
 20
129.91727994
 30
0.0
 70
0
  0
SEQEND
  8
0
  0
POLYLINE
  8
0
 62
0
 66
1
 10
0.0
 20
0.0
 30
0.0
 70
1
  0
VERTEX
  8
0
 10
52.5864
 20
140.21927993999998
 30
0.0
 70
0
  0
VERTEX
  8
0
 10
53.6364
 20
140.21927993999998
 30
0.0
 70
0
  0
VERTEX
  8
0
 10
53.6364
 20
135.26827993999999
 30
0.0
 70
0
  0
VERTEX
  8
0
 10
52.5864
 20
135.26827993999999
 30
0.0
 70
0
  0
VERTEX
  8
0
 10
52.5864
 20
140.21927993999998
 30
0.0
 70
0
  0
SEQEND
  8
0
  0
POLYLINE
  8
0
 62
0
 66
1
 10
0.0
 20
0.0
 30
0.0
 70
1
  0
VERTEX
  8
0
 10
52.5864
 20
147.05627994
 30
0.0
 70
0
  0
VERTEX
  8
0
 10
53.6364
 20
147.05627994
 30
0.0
 70
0
  0
VERTEX
  8
0
 10
53.6364
 20
143.90527993999999
 30
0.0
 70
0
  0
VERTEX
  8
0
 10
52.5864
 20
143.90527993999999
 30
0.0
 70
0
  0
VERTEX
  8
0
 10
52.5864
 20
147.05627994
 30
0.0
 70
0
  0
SEQEND
  8
0
  0
POLYLINE
  8
0
 62
0
 66
1
 10
0.0
 20
0.0
 30
0.0
 70
1
  0
VERTEX
  8
0
 10
30.3682
 20
103.80127994
 30
0.0
 70
0
  0
VERTEX
  8
0
 10
38.318200000000004
 20
103.80127994
 30
0.0
 70
0
  0
VERTEX
  8
0
 10
38.318200000000004
 20
102.75127994
 30
0.0
 70
0
  0
VERTEX
  8
0
 10
30.3682
 20
102.75127994
 30
0.0
 70
0
  0
VERTEX
  8
0
 10
30.3682
 20
103.80127994
 30
0.0
 70
0
  0
SEQEND
  8
0
  0
POLYLINE
  8
0
 62
0
 66
1
 10
0.0
 20
0.0
 30
0.0
 70
1
  0
VERTEX
  8
0
 10
16.09999
 20
105.88327994000001
 30
0.0
 70
0
  0
VERTEX
  8
0
 10
15.05003
 20
105.88327994000001
 30
0.0
 70
0
  0
VERTEX
  8
0
 10
15.05003
 20
102.75127994
 30
0.0
 70
0
  0
VERTEX
  8
0
 10
16.81819
 20
102.75127994
 30
0.0
 70
0
  0
VERTEX
  8
0
 10
16.81819
 20
103.80127994
 30
0.0
 70
0
  0
VERTEX
  8
0
 10
16.09999
 20
103.80127994
 30
0.0
 70
0
  0
VERTEX
  8
0
 10
16.09999
 20
105.88327994000001
 30
0.0
 70
0
  0
SEQEND
  8
0
  0
POLYLINE
  8
0
 62
0
 66
1
 10
0.0
 20
0.0
 30
0.0
 70
1
  0
VERTEX
  8
0
 10
30.3682
 20
148.15627994
 30
0.0
 70
0
  0
VERTEX
  8
0
 10
38.318200000000004
 20
148.15627994
 30
0.0
 70
0
  0
VERTEX
  8
0
 10
38.318200000000004
 20
147.10627993999998
 30
0.0
 70
0
  0
VERTEX
  8
0
 10
30.3682
 20
147.10627993999998
 30
0.0
 70
0
  0
VERTEX
  8
0
 10
30.3682
 20
148.15627994
 30
0.0
 70
0
  0
SEQEND
  8
0
  0
POLYLINE
  8
0
 62
0
 66
1
 10
0.0
 20
0.0
 30
0.0
 70
1
  0
VERTEX
  8
0
 10
16.09999
 20
145.02427993999999
 30
0.0
 70
0
  0
VERTEX
  8
0
 10
16.09999
 20
147.10627993999998
 30
0.0
 70
0
  0
VERTEX
  8
0
 10
16.81819
 20
147.10627993999998
 30
0.0
 70
0
  0
VERTEX
  8
0
 10
16.81819
 20
148.15627994
 30
0.0
 70
0
  0
VERTEX
  8
0
 10
15.05003
 20
148.15627994
 30
0.0
 70
0
  0
VERTEX
  8
0
 10
15.05003
 20
145.02427993999999
 30
0.0
 70
0
  0
VERTEX
  8
0
 10
16.09999
 20
145.02427993999999
 30
0.0
 70
0
  0
SEQEND
  8
0
  0
POLYLINE
  8
0
 62
0
 66
1
 10
0.0
 20
0.0
 30
0.0
 70
1
  0
VERTEX
  8
0
 10
15.05003
 20
133.30727994
 30
0.0
 70
0
  0
VERTEX
  8
0
 10
16.09999
 20
133.30727994
 30
0.0
 70
0
  0
VERTEX
  8
0
 10
16.09999
 20
131.53927994
 30
0.0
 70
0
  0
VERTEX
  8
0
 10
15.05003
 20
131.53927994
 30
0.0
 70
0
  0
VERTEX
  8
0
 10
15.05003
 20
133.30727994
 30
0.0
 70
0
  0
SEQEND
  8
0
  0
POLYLINE
  8
0
 62
0
 66
1
 10
0.0
 20
0.0
 30
0.0
 70
1
  0
VERTEX
  8
0
 10
15.05003
 20
119.82327994
 30
0.0
 70
0
  0
VERTEX
  8
0
 10
16.09999
 20
119.82327994
 30
0.0
 70
0
  0
VERTEX
  8
0
 10
16.09999
 20
117.60027994000001
 30
0.0
 70
0
  0
VERTEX
  8
0
 10
15.05003
 20
117.60027994000001
 30
0.0
 70
0
  0
VERTEX
  8
0
 10
15.05003
 20
119.82327994
 30
0.0
 70
0
  0
SEQEND
  8
0
  0
POLYLINE
  8
0
 62
0
 66
1
 10
0.0
 20
0.0
 30
0.0
 70
1
  0
VERTEX
  8
0
 10
12.13303
 20
46.884479940000006
 30
0.0
 70
0
  0
VERTEX
  8
0
 10
10.264811
 20
46.884479940000006
 30
0.0
 70
0
  0
VERTEX
  8
0
 10
10.264811
 20
62.728879940000006
 30
0.0
 70
0
  0
VERTEX
  8
0
 10
11.36485
 20
62.728879940000006
 30
0.0
 70
0
  0
VERTEX
  8
0
 10
11.36485
 20
82.80267994
 30
0.0
 70
0
  0
VERTEX
  8
0
 10
10.264811
 20
82.80267994
 30
0.0
 70
0
  0
VERTEX
  8
0
 10
10.264811
 20
89.84537994
 30
0.0
 70
0
  0
VERTEX
  8
0
 10
29.6081
 20
96.67237994
 30
0.0
 70
0
  0
VERTEX
  8
0
 10
48.9513
 20
89.84537994
 30
0.0
 70
0
  0
VERTEX
  8
0
 10
48.9513
 20
82.80267994
 30
0.0
 70
0
  0
VERTEX
  8
0
 10
47.8513
 20
82.80267994
 30
0.0
 70
0
  0
VERTEX
  8
0
 10
47.8513
 20
55.034479940000004
 30
0.0
 70
0
  0
VERTEX
  8
0
 10
48.9513
 20
55.034479940000004
 30
0.0
 70
0
  0
VERTEX
  8
0
 10
48.9513
 20
47.98447994
 30
0.0
 70
0
  0
VERTEX
  8
0
 10
33.6331
 20
47.98447994
 30
0.0
 70
0
  0
VERTEX
  8
0
 10
33.6331
 20
46.884479940000006
 30
0.0
 70
0
  0
VERTEX
  8
0
 10
25.5831
 20
46.884479940000006
 30
0.0
 70
0
  0
VERTEX
  8
0
 10
25.5831
 20
47.98447994
 30
0.0
 70
0
  0
VERTEX
  8
0
 10
21.1739
 20
47.98447994
 30
0.0
 70
0
  0
VERTEX
  8
0
 10
21.1739
 20
56.64717994
 30
0.0
 70
0
  0
VERTEX
  8
0
 10
21.186700000000002
 20
56.76667994
 30
0.0
 70
0
  0
VERTEX
  8
0
 10
21.1999
 20
57.12767994
 30
0.0
 70
0
  0
VERTEX
  8
0
 10
21.1754
 20
57.604079940000005
 30
0.0
 70
0
  0
VERTEX
  8
0
 10
21.101599999999998
 20
58.072779940000004
 30
0.0
 70
0
  0
VERTEX
  8
0
 10
20.9797
 20
58.530179940000004
 30
0.0
 70
0
  0
VERTEX
  8
0
 10
20.8109
 20
58.97247994000001
 30
0.0
 70
0
  0
VERTEX
  8
0
 10
20.5965
 20
59.39587994
 30
0.0
 70
0
  0
VERTEX
  8
0
 10
20.337600000000002
 20
59.796479940000005
 30
0.0
 70
0
  0
VERTEX
  8
0
 10
20.1157
 20
60.08147994
 30
0.0
 70
0
  0
VERTEX
  8
0
 10
20.0355
 20
60.170879940000006
 30
0.0
 70
0
  0
VERTEX
  8
0
 10
19.95518
 20
60.26017994
 30
0.0
 70
0
  0
VERTEX
  8
0
 10
19.69547
 20
60.51107994
 30
0.0
 70
0
  0
VERTEX
  8
0
 10
19.32471
 20
60.81137994
 30
0.0
 70
0
  0
VERTEX
  8
0
 10
18.926650000000002
 20
61.06967994
 30
0.0
 70
0
  0
VERTEX
  8
0
 10
18.50493
 20
61.284679940000004
 30
0.0
 70
0
  0
VERTEX
  8
0
 10
18.063209999999998
 20
61.454679940000005
 30
0.0
 70
0
  0
VERTEX
  8
0
 10
17.60499
 20
61.578179940000005
 30
0.0
 70
0
  0
VERTEX
  8
0
 10
17.13385
 20
61.653479940000004
 30
0.0
 70
0
  0
VERTEX
  8
0
 10
16.77354
 20
61.678779940000005
 30
0.0
 70
0
  0
VERTEX
  8
0
 10
16.653489999999998
 20
61.678779940000005
 30
0.0
 70
0
  0
VERTEX
  8
0
 10
16.533360000000002
 20
61.678779940000005
 30
0.0
 70
0
  0
VERTEX
  8
0
 10
16.17307
 20
61.653479940000004
 30
0.0
 70
0
  0
VERTEX
  8
0
 10
15.70193
 20
61.578179940000005
 30
0.0
 70
0
  0
VERTEX
  8
0
 10
15.24371
 20
61.454679940000005
 30
0.0
 70
0
  0
VERTEX
  8
0
 10
14.80197
 20
61.284679940000004
 30
0.0
 70
0
  0
VERTEX
  8
0
 10
14.38026
 20
61.06967994
 30
0.0
 70
0
  0
VERTEX
  8
0
 10
13.98221
 20
60.81137994
 30
0.0
 70
0
  0
VERTEX
  8
0
 10
13.61143
 20
60.51107994
 30
0.0
 70
0
  0
VERTEX
  8
0
 10
13.35172
 20
60.26017994
 30
0.0
 70
0
  0
VERTEX
  8
0
 10
13.27149
 20
60.170879940000006
 30
0.0
 70
0
  0
VERTEX
  8
0
 10
13.19119
 20
60.08147994
 30
0.0
 70
0
  0
VERTEX
  8
0
 10
12.96929
 20
59.796479940000005
 30
0.0
 70
0
  0
VERTEX
  8
0
 10
12.71044
 20
59.39587994
 30
0.0
 70
0
  0
VERTEX
  8
0
 10
12.495989999999999
 20
58.97247994000001
 30
0.0
 70
0
  0
VERTEX
  8
0
 10
12.327259999999999
 20
58.530179940000004
 30
0.0
 70
0
  0
VERTEX
  8
0
 10
12.20535
 20
58.072779940000004
 30
0.0
 70
0
  0
VERTEX
  8
0
 10
12.13151
 20
57.604079940000005
 30
0.0
 70
0
  0
VERTEX
  8
0
 10
12.10704
 20
57.12767994
 30
0.0
 70
0
  0
VERTEX
  8
0
 10
12.12017
 20
56.76667994
 30
0.0
 70
0
  0
VERTEX
  8
0
 10
12.13303
 20
56.64717994
 30
0.0
 70
0
  0
VERTEX
  8
0
 10
12.13303
 20
46.884479940000006
 30
0.0
 70
0
  0
SEQEND
  8
0
  0
POLYLINE
  8
0
 62
0
 66
1
 10
0.0
 20
0.0
 30
0.0
 70
1
  0
VERTEX
  8
0
 10
33.4924
 20
64.99357994
 30
0.0
 70
0
  0
VERTEX
  8
0
 10
41.4422
 20
64.99357994
 30
0.0
 70
0
  0
VERTEX
  8
0
 10
41.4422
 20
63.943579940000006
 30
0.0
 70
0
  0
VERTEX
  8
0
 10
33.4924
 20
63.943579940000006
 30
0.0
 70
0
  0
VERTEX
  8
0
 10
33.4924
 20
64.99357994
 30
0.0
 70
0
  0
SEQEND
  8
0
  0
POLYLINE
  8
0
 62
0
 66
1
 10
0.0
 20
0.0
 30
0.0
 70
1
  0
VERTEX
  8
0
 10
18.46311
 20
64.99357994
 30
0.0
 70
0
  0
VERTEX
  8
0
 10
26.4422
 20
64.99357994
 30
0.0
 70
0
  0
VERTEX
  8
0
 10
26.4422
 20
63.943579940000006
 30
0.0
 70
0
  0
VERTEX
  8
0
 10
18.46311
 20
63.943579940000006
 30
0.0
 70
0
  0
VERTEX
  8
0
 10
18.46311
 20
64.99357994
 30
0.0
 70
0
  0
SEQEND
  8
0
  0
POLYLINE
  8
0
 62
0
 66
1
 10
0.0
 20
0.0
 30
0.0
 70
1
  0
VERTEX
  8
0
 10
43.2086
 20
14.848479939999999
 30
0.0
 70
0
  0
VERTEX
  8
0
 10
43.121
 20
14.83597994
 30
0.0
 70
0
  0
VERTEX
  8
0
 10
42.8593
 20
14.78767994
 30
0.0
 70
0
  0
VERTEX
  8
0
 10
42.5164
 20
14.70637994
 30
0.0
 70
0
  0
VERTEX
  8
0
 10
42.181
 20
14.605279939999999
 30
0.0
 70
0
  0
VERTEX
  8
0
 10
41.8535
 20
14.484879939999999
 30
0.0
 70
0
  0
VERTEX
  8
0
 10
41.5347
 20
14.34557994
 30
0.0
 70
0
  0
VERTEX
  8
0
 10
41.2257
 20
14.18817994
 30
0.0
 70
0
  0
VERTEX
  8
0
 10
40.9268
 20
14.013079939999999
 30
0.0
 70
0
  0
VERTEX
  8
0
 10
40.6392
 20
13.82077994
 30
0.0
 70
0
  0
VERTEX
  8
0
 10
40.3632
 20
13.61187994
 30
0.0
 70
0
  0
VERTEX
  8
0
 10
40.099900000000005
 20
13.38697994
 30
0.0
 70
0
  0
VERTEX
  8
0
 10
39.85
 20
13.146479939999999
 30
0.0
 70
0
  0
VERTEX
  8
0
 10
39.614000000000004
 20
12.89087994
 30
0.0
 70
0
  0
VERTEX
  8
0
 10
39.3929
 20
12.62097994
 30
0.0
 70
0
  0
VERTEX
  8
0
 10
39.1875
 20
12.336979939999999
 30
0.0
 70
0
  0
VERTEX
  8
0
 10
38.9985
 20
12.039779939999999
 30
0.0
 70
0
  0
VERTEX
  8
0
 10
38.8671
 20
11.80837994
 30
0.0
 70
0
  0
VERTEX
  8
0
 10
38.826499999999996
 20
11.729579939999999
 30
0.0
 70
0
  0
VERTEX
  8
0
 10
38.785799999999995
 20
11.65087994
 30
0.0
 70
0
  0
VERTEX
  8
0
 10
38.673500000000004
 20
11.40967994
 30
0.0
 70
0
  0
VERTEX
  8
0
 10
38.541
 20
11.083179939999999
 30
0.0
 70
0
  0
VERTEX
  8
0
 10
38.4289
 20
10.75127994
 30
0.0
 70
0
  0
VERTEX
  8
0
 10
38.3371
 20
10.41457994
 30
0.0
 70
0
  0
VERTEX
  8
0
 10
38.265699999999995
 20
10.07427994
 30
0.0
 70
0
  0
VERTEX
  8
0
 10
38.2147
 20
9.73110994
 30
0.0
 70
0
  0
VERTEX
  8
0
 10
38.184
 20
9.38612994
 30
0.0
 70
0
  0
VERTEX
  8
0
 10
38.1739
 20
9.040199939999999
 30
0.0
 70
0
  0
VERTEX
  8
0
 10
38.184
 20
8.69427994
 30
0.0
 70
0
  0
VERTEX
  8
0
 10
38.2147
 20
8.349279939999999
 30
0.0
 70
0
  0
VERTEX
  8
0
 10
38.265699999999995
 20
8.006179939999999
 30
0.0
 70
0
  0
VERTEX
  8
0
 10
38.3371
 20
7.66578994
 30
0.0
 70
0
  0
VERTEX
  8
0
 10
38.4289
 20
7.329209939999999
 30
0.0
 70
0
  0
VERTEX
  8
0
 10
38.541
 20
6.99717994
 30
0.0
 70
0
  0
VERTEX
  8
0
 10
38.673500000000004
 20
6.67078994
 30
0.0
 70
0
  0
VERTEX
  8
0
 10
38.785799999999995
 20
6.42958994
 30
0.0
 70
0
  0
VERTEX
  8
0
 10
38.826499999999996
 20
6.3508099399999995
 30
0.0
 70
0
  0
VERTEX
  8
0
 10
38.8671
 20
6.27208994
 30
0.0
 70
0
  0
VERTEX
  8
0
 10
38.9985
 20
6.04069994
 30
0.0
 70
0
  0
VERTEX
  8
0
 10
39.1875
 20
5.7434299399999995
 30
0.0
 70
0
  0
VERTEX
  8
0
 10
39.3929
 20
5.4595299399999995
 30
0.0
 70
0
  0
VERTEX
  8
0
 10
39.614000000000004
 20
5.18955994
 30
0.0
 70
0
  0
VERTEX
  8
0
 10
39.85
 20
4.934029939999999
 30
0.0
 70
0
  0
VERTEX
  8
0
 10
40.099900000000005
 20
4.69351994
 30
0.0
 70
0
  0
VERTEX
  8
0
 10
40.3632
 20
4.46852994
 30
0.0
 70
0
  0
VERTEX
  8
0
 10
40.6392
 20
4.25965994
 30
0.0
 70
0
  0
VERTEX
  8
0
 10
40.9268
 20
4.0673799399999995
 30
0.0
 70
0
  0
VERTEX
  8
0
 10
41.2257
 20
3.89224994
 30
0.0
 70
0
  0
VERTEX
  8
0
 10
41.5347
 20
3.73480994
 30
0.0
 70
0
  0
VERTEX
  8
0
 10
41.8535
 20
3.59559994
 30
0.0
 70
0
  0
VERTEX
  8
0
 10
42.181
 20
3.47520994
 30
0.0
 70
0
  0
VERTEX
  8
0
 10
42.5164
 20
3.3740299400000002
 30
0.0
 70
0
  0
VERTEX
  8
0
 10
42.8593
 20
3.29274994
 30
0.0
 70
0
  0
VERTEX
  8
0
 10
43.121
 20
3.2444199400000002
 30
0.0
 70
0
  0
VERTEX
  8
0
 10
43.2086
 20
3.2318199400000003
 30
0.0
 70
0
  0
VERTEX
  8
0
 10
52.9682
 20
3.2318199400000003
 30
0.0
 70
0
  0
VERTEX
  8
0
 10
52.9682
 20
1.10003994
 30
0.0
 70
0
  0
VERTEX
  8
0
 10
37.1739
 20
1.10003994
 30
0.0
 70
0
  0
VERTEX
  8
0
 10
37.1739
 20
0.0
 30
0.0
 70
0
  0
VERTEX
  8
0
 10
17.0
 20
0.0
 30
0.0
 70
0
  0
VERTEX
  8
0
 10
17.0
 20
1.10003994
 30
0.0
 70
0
  0
VERTEX
  8
0
 10
10.0
 20
1.10003994
 30
0.0
 70
0
  0
VERTEX
  8
0
 10
10.0
 20
44.404579940000005
 30
0.0
 70
0
  0
VERTEX
  8
0
 10
17.0
 20
44.404579940000005
 30
0.0
 70
0
  0
VERTEX
  8
0
 10
17.0
 20
45.50467994
 30
0.0
 70
0
  0
VERTEX
  8
0
 10
37.1739
 20
45.50467994
 30
0.0
 70
0
  0
VERTEX
  8
0
 10
37.1739
 20
44.404579940000005
 30
0.0
 70
0
  0
VERTEX
  8
0
 10
52.9682
 20
44.404579940000005
 30
0.0
 70
0
  0
VERTEX
  8
0
 10
52.9682
 20
42.27277994000001
 30
0.0
 70
0
  0
VERTEX
  8
0
 10
43.2086
 20
42.27277994000001
 30
0.0
 70
0
  0
VERTEX
  8
0
 10
43.121
 20
42.260279940000004
 30
0.0
 70
0
  0
VERTEX
  8
0
 10
42.8593
 20
42.211979940000006
 30
0.0
 70
0
  0
VERTEX
  8
0
 10
42.5164
 20
42.13067994
 30
0.0
 70
0
  0
VERTEX
  8
0
 10
42.181
 20
42.02947994
 30
0.0
 70
0
  0
VERTEX
  8
0
 10
41.8535
 20
41.90917994
 30
0.0
 70
0
  0
VERTEX
  8
0
 10
41.5347
 20
41.76987994
 30
0.0
 70
0
  0
VERTEX
  8
0
 10
41.2257
 20
41.61247994
 30
0.0
 70
0
  0
VERTEX
  8
0
 10
40.9268
 20
41.43737994000001
 30
0.0
 70
0
  0
VERTEX
  8
0
 10
40.6392
 20
41.24497994
 30
0.0
 70
0
  0
VERTEX
  8
0
 10
40.3632
 20
41.03627994
 30
0.0
 70
0
  0
VERTEX
  8
0
 10
40.099900000000005
 20
40.811279940000006
 30
0.0
 70
0
  0
VERTEX
  8
0
 10
39.85
 20
40.570679940000005
 30
0.0
 70
0
  0
VERTEX
  8
0
 10
39.614000000000004
 20
40.31517994
 30
0.0
 70
0
  0
VERTEX
  8
0
 10
39.3929
 20
40.045179940000004
 30
0.0
 70
0
  0
VERTEX
  8
0
 10
39.1875
 20
39.76127994
 30
0.0
 70
0
  0
VERTEX
  8
0
 10
38.9985
 20
39.464079940000005
 30
0.0
 70
0
  0
VERTEX
  8
0
 10
38.8671
 20
39.232679940000004
 30
0.0
 70
0
  0
VERTEX
  8
0
 10
38.826499999999996
 20
39.15387994
 30
0.0
 70
0
  0
VERTEX
  8
0
 10
38.785799999999995
 20
39.075179940000005
 30
0.0
 70
0
  0
VERTEX
  8
0
 10
38.673500000000004
 20
38.83387994
 30
0.0
 70
0
  0
VERTEX
  8
0
 10
38.541
 20
38.50747994
 30
0.0
 70
0
  0
VERTEX
  8
0
 10
38.4289
 20
38.175579940000006
 30
0.0
 70
0
  0
VERTEX
  8
0
 10
38.3371
 20
37.838879940000005
 30
0.0
 70
0
  0
VERTEX
  8
0
 10
38.265699999999995
 20
37.49847994
 30
0.0
 70
0
  0
VERTEX
  8
0
 10
38.2147
 20
37.15537994
 30
0.0
 70
0
  0
VERTEX
  8
0
 10
38.184
 20
36.810379940000004
 30
0.0
 70
0
  0
VERTEX
  8
0
 10
38.1739
 20
36.46457994
 30
0.0
 70
0
  0
VERTEX
  8
0
 10
38.184
 20
36.118579940000004
 30
0.0
 70
0
  0
VERTEX
  8
0
 10
38.2147
 20
35.773579940000005
 30
0.0
 70
0
  0
VERTEX
  8
0
 10
38.265699999999995
 20
35.43057994
 30
0.0
 70
0
  0
VERTEX
  8
0
 10
38.3371
 20
35.090179940000006
 30
0.0
 70
0
  0
VERTEX
  8
0
 10
38.4289
 20
34.753479940000005
 30
0.0
 70
0
  0
VERTEX
  8
0
 10
38.541
 20
34.421479940000005
 30
0.0
 70
0
  0
VERTEX
  8
0
 10
38.673500000000004
 20
34.09517994
 30
0.0
 70
0
  0
VERTEX
  8
0
 10
38.785799999999995
 20
33.853879940000006
 30
0.0
 70
0
  0
VERTEX
  8
0
 10
38.826499999999996
 20
33.77517994
 30
0.0
 70
0
  0
VERTEX
  8
0
 10
38.8671
 20
33.69637994
 30
0.0
 70
0
  0
VERTEX
  8
0
 10
38.9985
 20
33.464979940000006
 30
0.0
 70
0
  0
VERTEX
  8
0
 10
39.1875
 20
33.167679940000006
 30
0.0
 70
0
  0
VERTEX
  8
0
 10
39.3929
 20
32.883779940000004
 30
0.0
 70
0
  0
VERTEX
  8
0
 10
39.614000000000004
 20
32.613879940000004
 30
0.0
 70
0
  0
VERTEX
  8
0
 10
39.85
 20
32.358379940000006
 30
0.0
 70
0
  0
VERTEX
  8
0
 10
40.099900000000005
 20
32.117779940000005
 30
0.0
 70
0
  0
VERTEX
  8
0
 10
40.3632
 20
31.89287994
 30
0.0
 70
0
  0
VERTEX
  8
0
 10
40.6392
 20
31.68407994
 30
0.0
 70
0
  0
VERTEX
  8
0
 10
40.9268
 20
31.49167994
 30
0.0
 70
0
  0
VERTEX
  8
0
 10
41.2257
 20
31.31647994
 30
0.0
 70
0
  0
VERTEX
  8
0
 10
41.5347
 20
31.15917994
 30
0.0
 70
0
  0
VERTEX
  8
0
 10
41.8535
 20
31.01987994
 30
0.0
 70
0
  0
VERTEX
  8
0
 10
42.181
 20
30.89947994
 30
0.0
 70
0
  0
VERTEX
  8
0
 10
42.5164
 20
30.79837994
 30
0.0
 70
0
  0
VERTEX
  8
0
 10
42.8593
 20
30.71707994
 30
0.0
 70
0
  0
VERTEX
  8
0
 10
43.121
 20
30.66877994
 30
0.0
 70
0
  0
VERTEX
  8
0
 10
43.2086
 20
30.656079939999998
 30
0.0
 70
0
  0
VERTEX
  8
0
 10
52.9682
 20
30.656079939999998
 30
0.0
 70
0
  0
VERTEX
  8
0
 10
52.9682
 20
28.33337994
 30
0.0
 70
0
  0
VERTEX
  8
0
 10
43.2086
 20
28.33337994
 30
0.0
 70
0
  0
VERTEX
  8
0
 10
43.121
 20
28.32087994
 30
0.0
 70
0
  0
VERTEX
  8
0
 10
42.8593
 20
28.27247994
 30
0.0
 70
0
  0
VERTEX
  8
0
 10
42.5164
 20
28.19127994
 30
0.0
 70
0
  0
VERTEX
  8
0
 10
42.181
 20
28.09017994
 30
0.0
 70
0
  0
VERTEX
  8
0
 10
41.8535
 20
27.96967994
 30
0.0
 70
0
  0
VERTEX
  8
0
 10
41.5347
 20
27.83037994
 30
0.0
 70
0
  0
VERTEX
  8
0
 10
41.2257
 20
27.67307994
 30
0.0
 70
0
  0
VERTEX
  8
0
 10
40.9268
 20
27.49787994
 30
0.0
 70
0
  0
VERTEX
  8
0
 10
40.6392
 20
27.30557994
 30
0.0
 70
0
  0
VERTEX
  8
0
 10
40.3632
 20
27.09667994
 30
0.0
 70
0
  0
VERTEX
  8
0
 10
40.099900000000005
 20
26.87177994
 30
0.0
 70
0
  0
VERTEX
  8
0
 10
39.85
 20
26.63127994
 30
0.0
 70
0
  0
VERTEX
  8
0
 10
39.614000000000004
 20
26.37567994
 30
0.0
 70
0
  0
VERTEX
  8
0
 10
39.3929
 20
26.10587994
 30
0.0
 70
0
  0
VERTEX
  8
0
 10
39.1875
 20
25.82197994
 30
0.0
 70
0
  0
VERTEX
  8
0
 10
38.9985
 20
25.52457994
 30
0.0
 70
0
  0
VERTEX
  8
0
 10
38.8671
 20
25.293179939999998
 30
0.0
 70
0
  0
VERTEX
  8
0
 10
38.826499999999996
 20
25.21447994
 30
0.0
 70
0
  0
VERTEX
  8
0
 10
38.785799999999995
 20
25.13567994
 30
0.0
 70
0
  0
VERTEX
  8
0
 10
38.673500000000004
 20
24.89457994
 30
0.0
 70
0
  0
VERTEX
  8
0
 10
38.541
 20
24.56807994
 30
0.0
 70
0
  0
VERTEX
  8
0
 10
38.4289
 20
24.23607994
 30
0.0
 70
0
  0
VERTEX
  8
0
 10
38.3371
 20
23.89947994
 30
0.0
 70
0
  0
VERTEX
  8
0
 10
38.265699999999995
 20
23.55917994
 30
0.0
 70
0
  0
VERTEX
  8
0
 10
38.2147
 20
23.21597994
 30
0.0
 70
0
  0
VERTEX
  8
0
 10
38.184
 20
22.870979939999998
 30
0.0
 70
0
  0
VERTEX
  8
0
 10
38.1739
 20
22.524979939999998
 30
0.0
 70
0
  0
VERTEX
  8
0
 10
38.184
 20
22.17917994
 30
0.0
 70
0
  0
VERTEX
  8
0
 10
38.2147
 20
21.83417994
 30
0.0
 70
0
  0
VERTEX
  8
0
 10
38.265699999999995
 20
21.49107994
 30
0.0
 70
0
  0
VERTEX
  8
0
 10
38.3371
 20
21.15067994
 30
0.0
 70
0
  0
VERTEX
  8
0
 10
38.4289
 20
20.81397994
 30
0.0
 70
0
  0
VERTEX
  8
0
 10
38.541
 20
20.48207994
 30
0.0
 70
0
  0
VERTEX
  8
0
 10
38.673500000000004
 20
20.15567994
 30
0.0
 70
0
  0
VERTEX
  8
0
 10
38.785799999999995
 20
19.91447994
 30
0.0
 70
0
  0
VERTEX
  8
0
 10
38.826499999999996
 20
19.83567994
 30
0.0
 70
0
  0
VERTEX
  8
0
 10
38.8671
 20
19.75697994
 30
0.0
 70
0
  0
VERTEX
  8
0
 10
38.9985
 20
19.52557994
 30
0.0
 70
0
  0
VERTEX
  8
0
 10
39.1875
 20
19.22837994
 30
0.0
 70
0
  0
VERTEX
  8
0
 10
39.3929
 20
18.94447994
 30
0.0
 70
0
  0
VERTEX
  8
0
 10
39.614000000000004
 20
18.67447994
 30
0.0
 70
0
  0
VERTEX
  8
0
 10
39.85
 20
18.41887994
 30
0.0
 70
0
  0
VERTEX
  8
0
 10
40.099900000000005
 20
18.17837994
 30
0.0
 70
0
  0
VERTEX
  8
0
 10
40.3632
 20
17.95347994
 30
0.0
 70
0
  0
VERTEX
  8
0
 10
40.6392
 20
17.74457994
 30
0.0
 70
0
  0
VERTEX
  8
0
 10
40.9268
 20
17.55217994
 30
0.0
 70
0
  0
VERTEX
  8
0
 10
41.2257
 20
17.377079939999998
 30
0.0
 70
0
  0
VERTEX
  8
0
 10
41.5347
 20
17.21967994
 30
0.0
 70
0
  0
VERTEX
  8
0
 10
41.8535
 20
17.08057994
 30
0.0
 70
0
  0
VERTEX
  8
0
 10
42.181
 20
16.95997994
 30
0.0
 70
0
  0
VERTEX
  8
0
 10
42.5164
 20
16.85887994
 30
0.0
 70
0
  0
VERTEX
  8
0
 10
42.8593
 20
16.77767994
 30
0.0
 70
0
  0
VERTEX
  8
0
 10
43.121
 20
16.72927994
 30
0.0
 70
0
  0
VERTEX
  8
0
 10
43.2086
 20
16.71677994
 30
0.0
 70
0
  0
VERTEX
  8
0
 10
52.9682
 20
16.71677994
 30
0.0
 70
0
  0
VERTEX
  8
0
 10
52.9682
 20
14.848479939999999
 30
0.0
 70
0
  0
VERTEX
  8
0
 10
43.2086
 20
14.848479939999999
 30
0.0
 70
0
  0
SEQEND
  8
0
  0
POLYLINE
  8
0
 62
0
 66
1
 10
0.0
 20
0.0
 30
0.0
 70
1
  0
VERTEX
  8
0
 10
34.8592
 20
15.85497994
 30
0.0
 70
0
  0
VERTEX
  8
0
 10
35.9092
 20
15.85497994
 30
0.0
 70
0
  0
VERTEX
  8
0
 10
35.9092
 20
5.905059939999999
 30
0.0
 70
0
  0
VERTEX
  8
0
 10
34.8592
 20
5.905059939999999
 30
0.0
 70
0
  0
VERTEX
  8
0
 10
34.8592
 20
15.85497994
 30
0.0
 70
0
  0
SEQEND
  8
0
  0
POLYLINE
  8
0
 62
0
 66
1
 10
0.0
 20
0.0
 30
0.0
 70
1
  0
VERTEX
  8
0
 10
34.8592
 20
39.599579940000005
 30
0.0
 70
0
  0
VERTEX
  8
0
 10
35.9092
 20
39.599579940000005
 30
0.0
 70
0
  0
VERTEX
  8
0
 10
35.9092
 20
29.64957994
 30
0.0
 70
0
  0
VERTEX
  8
0
 10
34.8592
 20
29.64957994
 30
0.0
 70
0
  0
VERTEX
  8
0
 10
34.8592
 20
39.599579940000005
 30
0.0
 70
0
  0
SEQEND
  8
0
  0
POLYLINE
  8
0
 62
0
 66
1
 10
0.0
 20
0.0
 30
0.0
 70
1
  0
VERTEX
  8
0
 10
25.05
 20
9.554139939999999
 30
0.0
 70
0
  0
VERTEX
  8
0
 10
32.272800000000004
 20
9.554139939999999
 30
0.0
 70
0
  0
VERTEX
  8
0
 10
32.272800000000004
 20
4.149569939999999
 30
0.0
 70
0
  0
VERTEX
  8
0
 10
25.05
 20
4.149569939999999
 30
0.0
 70
0
  0
VERTEX
  8
0
 10
25.05
 20
9.554139939999999
 30
0.0
 70
0
  0
SEQEND
  8
0
  0
POLYLINE
  8
0
 62
0
 66
1
 10
0.0
 20
0.0
 30
0.0
 70
1
  0
VERTEX
  8
0
 10
25.05
 20
41.355179940000006
 30
0.0
 70
0
  0
VERTEX
  8
0
 10
32.272800000000004
 20
41.355179940000006
 30
0.0
 70
0
  0
VERTEX
  8
0
 10
32.272800000000004
 20
35.950579940000004
 30
0.0
 70
0
  0
VERTEX
  8
0
 10
25.05
 20
35.950579940000004
 30
0.0
 70
0
  0
VERTEX
  8
0
 10
25.05
 20
41.355179940000006
 30
0.0
 70
0
  0
SEQEND
  8
0
  0
POLYLINE
  8
0
 62
0
 66
1
 10
0.0
 20
0.0
 30
0.0
 70
1
  0
VERTEX
  8
0
 10
25.05
 20
30.75467994
 30
0.0
 70
0
  0
VERTEX
  8
0
 10
32.272800000000004
 20
30.75467994
 30
0.0
 70
0
  0
VERTEX
  8
0
 10
32.272800000000004
 20
25.35017994
 30
0.0
 70
0
  0
VERTEX
  8
0
 10
25.05
 20
25.35017994
 30
0.0
 70
0
  0
VERTEX
  8
0
 10
25.05
 20
30.75467994
 30
0.0
 70
0
  0
SEQEND
  8
0
  0
POLYLINE
  8
0
 62
0
 66
1
 10
0.0
 20
0.0
 30
0.0
 70
1
  0
VERTEX
  8
0
 10
25.05
 20
20.154479939999998
 30
0.0
 70
0
  0
VERTEX
  8
0
 10
32.272800000000004
 20
20.154479939999998
 30
0.0
 70
0
  0
VERTEX
  8
0
 10
32.272800000000004
 20
14.74987994
 30
0.0
 70
0
  0
VERTEX
  8
0
 10
25.05
 20
14.74987994
 30
0.0
 70
0
  0
VERTEX
  8
0
 10
25.05
 20
20.154479939999998
 30
0.0
 70
0
  0
SEQEND
  8
0
  0
POLYLINE
  8
0
 62
0
 66
1
 10
0.0
 20
0.0
 30
0.0
 70
1
  0
VERTEX
  8
0
 10
13.231819999999999
 20
36.90427994
 30
0.0
 70
0
  0
VERTEX
  8
0
 10
18.63639
 20
36.90427994
 30
0.0
 70
0
  0
VERTEX
  8
0
 10
18.63639
 20
32.40877994
 30
0.0
 70
0
  0
VERTEX
  8
0
 10
13.231819999999999
 20
32.40877994
 30
0.0
 70
0
  0
VERTEX
  8
0
 10
13.231819999999999
 20
36.90427994
 30
0.0
 70
0
  0
SEQEND
  8
0
  0
POLYLINE
  8
0
 62
0
 66
1
 10
0.0
 20
0.0
 30
0.0
 70
1
  0
VERTEX
  8
0
 10
13.231819999999999
 20
24.99997994
 30
0.0
 70
0
  0
VERTEX
  8
0
 10
18.63639
 20
24.99997994
 30
0.0
 70
0
  0
VERTEX
  8
0
 10
18.63639
 20
20.50457994
 30
0.0
 70
0
  0
VERTEX
  8
0
 10
13.231819999999999
 20
20.50457994
 30
0.0
 70
0
  0
VERTEX
  8
0
 10
13.231819999999999
 20
24.99997994
 30
0.0
 70
0
  0
SEQEND
  8
0
  0
POLYLINE
  8
0
 62
0
 66
1
 10
0.0
 20
0.0
 30
0.0
 70
1
  0
VERTEX
  8
0
 10
13.231819999999999
 20
13.09587994
 30
0.0
 70
0
  0
VERTEX
  8
0
 10
18.63639
 20
13.09587994
 30
0.0
 70
0
  0
VERTEX
  8
0
 10
18.63639
 20
8.60041994
 30
0.0
 70
0
  0
VERTEX
  8
0
 10
13.231819999999999
 20
8.60041994
 30
0.0
 70
0
  0
VERTEX
  8
0
 10
13.231819999999999
 20
13.09587994
 30
0.0
 70
0
  0
SEQEND
  8
0
  0
POLYLINE
  8
0
 62
0
 66
1
 10
0.0
 20
0.0
 30
0.0
 70
1
  0
VERTEX
  8
0
 10
51.5956
 20
52.585679940000006
 30
0.0
 70
0
  0
VERTEX
  8
0
 10
51.5956
 20
59.585679940000006
 30
0.0
 70
0
  0
VERTEX
  8
0
 10
50.4956
 20
59.585679940000006
 30
0.0
 70
0
  0
VERTEX
  8
0
 10
50.4956
 20
87.45397994
 30
0.0
 70
0
  0
VERTEX
  8
0
 10
51.5956
 20
87.45397994
 30
0.0
 70
0
  0
VERTEX
  8
0
 10
51.5956
 20
95.55407994000001
 30
0.0
 70
0
  0
VERTEX
  8
0
 10
54.8469
 20
95.55407994000001
 30
0.0
 70
0
  0
VERTEX
  8
0
 10
54.8469
 20
82.81127994
 30
0.0
 70
0
  0
VERTEX
  8
0
 10
58.4333
 20
82.81127994
 30
0.0
 70
0
  0
VERTEX
  8
0
 10
58.4333
 20
95.55407994000001
 30
0.0
 70
0
  0
VERTEX
  8
0
 10
63.4833
 20
95.55407994000001
 30
0.0
 70
0
  0
VERTEX
  8
0
 10
63.4833
 20
94.45397994
 30
0.0
 70
0
  0
VERTEX
  8
0
 10
82.8501
 20
94.45397994
 30
0.0
 70
0
  0
VERTEX
  8
0
 10
82.8501
 20
95.55407994000001
 30
0.0
 70
0
  0
VERTEX
  8
0
 10
90.9001
 20
95.55407994000001
 30
0.0
 70
0
  0
VERTEX
  8
0
 10
90.9001
 20
94.45397994
 30
0.0
 70
0
  0
VERTEX
  8
0
 10
94.9001
 20
94.45397994
 30
0.0
 70
0
  0
VERTEX
  8
0
 10
94.9001
 20
87.45397994
 30
0.0
 70
0
  0
VERTEX
  8
0
 10
96.0001
 20
87.45397994
 30
0.0
 70
0
  0
VERTEX
  8
0
 10
96.0001
 20
59.585679940000006
 30
0.0
 70
0
  0
VERTEX
  8
0
 10
94.9001
 20
59.585679940000006
 30
0.0
 70
0
  0
VERTEX
  8
0
 10
94.9001
 20
52.585679940000006
 30
0.0
 70
0
  0
VERTEX
  8
0
 10
51.5956
 20
52.585679940000006
 30
0.0
 70
0
  0
SEQEND
  8
0
  0
POLYLINE
  8
0
 62
0
 66
1
 10
0.0
 20
0.0
 30
0.0
 70
1
  0
VERTEX
  8
0
 10
91.4501
 20
91.22217994
 30
0.0
 70
0
  0
VERTEX
  8
0
 10
86.0457
 20
91.22217994
 30
0.0
 70
0
  0
VERTEX
  8
0
 10
86.0457
 20
85.78767994
 30
0.0
 70
0
  0
VERTEX
  8
0
 10
86.0104
 20
85.70357994
 30
0.0
 70
0
  0
VERTEX
  8
0
 10
85.926
 20
85.44307994
 30
0.0
 70
0
  0
VERTEX
  8
0
 10
85.8507
 20
85.09057994
 30
0.0
 70
0
  0
VERTEX
  8
0
 10
85.8193
 20
84.73387994000001
 30
0.0
 70
0
  0
VERTEX
  8
0
 10
85.8317
 20
84.37747994
 30
0.0
 70
0
  0
VERTEX
  8
0
 10
85.8871
 20
84.02497994000001
 30
0.0
 70
0
  0
VERTEX
  8
0
 10
85.9854
 20
83.68087994
 30
0.0
 70
0
  0
VERTEX
  8
0
 10
86.1261
 20
83.34887994
 30
0.0
 70
0
  0
VERTEX
  8
0
 10
86.2585
 20
83.10917994
 30
0.0
 70
0
  0
VERTEX
  8
0
 10
86.309
 20
83.03337994
 30
0.0
 70
0
  0
VERTEX
  8
0
 10
86.3594
 20
82.95767994
 30
0.0
 70
0
  0
VERTEX
  8
0
 10
86.5294
 20
82.74277994
 30
0.0
 70
0
  0
VERTEX
  8
0
 10
86.7813
 20
82.48487994
 30
0.0
 70
0
  0
VERTEX
  8
0
 10
87.0608
 20
82.26127994000001
 30
0.0
 70
0
  0
VERTEX
  8
0
 10
87.3644
 20
82.07387994
 30
0.0
 70
0
  0
VERTEX
  8
0
 10
87.6885
 20
81.92487994
 30
0.0
 70
0
  0
VERTEX
  8
0
 10
88.0296
 20
81.81607994000001
 30
0.0
 70
0
  0
VERTEX
  8
0
 10
88.3839
 20
81.74927994000001
 30
0.0
 70
0
  0
VERTEX
  8
0
 10
88.6568
 20
81.72667994
 30
0.0
 70
0
  0
VERTEX
  8
0
 10
88.7479
 20
81.72667994
 30
0.0
 70
0
  0
VERTEX
  8
0
 10
88.8389
 20
81.72667994
 30
0.0
 70
0
  0
VERTEX
  8
0
 10
89.1118
 20
81.74927994000001
 30
0.0
 70
0
  0
VERTEX
  8
0
 10
89.4662
 20
81.81607994000001
 30
0.0
 70
0
  0
VERTEX
  8
0
 10
89.8072
 20
81.92487994
 30
0.0
 70
0
  0
VERTEX
  8
0
 10
90.1313
 20
82.07387994
 30
0.0
 70
0
  0
VERTEX
  8
0
 10
90.435
 20
82.26127994000001
 30
0.0
 70
0
  0
VERTEX
  8
0
 10
90.7144
 20
82.48487994
 30
0.0
 70
0
  0
VERTEX
  8
0
 10
90.9662
 20
82.74277994
 30
0.0
 70
0
  0
VERTEX
  8
0
 10
91.1364
 20
82.95767994
 30
0.0
 70
0
  0
VERTEX
  8
0
 10
91.1868
 20
83.03337994
 30
0.0
 70
0
  0
VERTEX
  8
0
 10
91.2372
 20
83.10917994
 30
0.0
 70
0
  0
VERTEX
  8
0
 10
91.3696
 20
83.34887994
 30
0.0
 70
0
  0
VERTEX
  8
0
 10
91.5103
 20
83.68087994
 30
0.0
 70
0
  0
VERTEX
  8
0
 10
91.6086
 20
84.02497994000001
 30
0.0
 70
0
  0
VERTEX
  8
0
 10
91.6642
 20
84.37747994
 30
0.0
 70
0
  0
VERTEX
  8
0
 10
91.6764
 20
84.73387994000001
 30
0.0
 70
0
  0
VERTEX
  8
0
 10
91.6451
 20
85.09057994
 30
0.0
 70
0
  0
VERTEX
  8
0
 10
91.5699
 20
85.44307994
 30
0.0
 70
0
  0
VERTEX
  8
0
 10
91.4853
 20
85.70357994
 30
0.0
 70
0
  0
VERTEX
  8
0
 10
91.4501
 20
85.78767994
 30
0.0
 70
0
  0
VERTEX
  8
0
 10
91.4501
 20
91.22217994
 30
0.0
 70
0
  0
SEQEND
  8
0
  0
POLYLINE
  8
0
 62
0
 66
1
 10
0.0
 20
0.0
 30
0.0
 70
1
  0
VERTEX
  8
0
 10
64.0344
 20
91.22217994
 30
0.0
 70
0
  0
VERTEX
  8
0
 10
69.439
 20
91.22217994
 30
0.0
 70
0
  0
VERTEX
  8
0
 10
69.439
 20
85.78767994
 30
0.0
 70
0
  0
VERTEX
  8
0
 10
69.47399999999999
 20
85.70357994
 30
0.0
 70
0
  0
VERTEX
  8
0
 10
69.5586
 20
85.44307994
 30
0.0
 70
0
  0
VERTEX
  8
0
 10
69.6339
 20
85.09057994
 30
0.0
 70
0
  0
VERTEX
  8
0
 10
69.6651
 20
84.73387994000001
 30
0.0
 70
0
  0
VERTEX
  8
0
 10
69.6529
 20
84.37747994
 30
0.0
 70
0
  0
VERTEX
  8
0
 10
69.5975
 20
84.02497994000001
 30
0.0
 70
0
  0
VERTEX
  8
0
 10
69.4992
 20
83.68087994
 30
0.0
 70
0
  0
VERTEX
  8
0
 10
69.3583
 20
83.34887994
 30
0.0
 70
0
  0
VERTEX
  8
0
 10
69.226
 20
83.10917994
 30
0.0
 70
0
  0
VERTEX
  8
0
 10
69.1756
 20
83.03337994
 30
0.0
 70
0
  0
VERTEX
  8
0
 10
69.12530000000001
 20
82.95767994
 30
0.0
 70
0
  0
VERTEX
  8
0
 10
68.9551
 20
82.74277994
 30
0.0
 70
0
  0
VERTEX
  8
0
 10
68.70320000000001
 20
82.48487994
 30
0.0
 70
0
  0
VERTEX
  8
0
 10
68.4237
 20
82.26127994000001
 30
0.0
 70
0
  0
VERTEX
  8
0
 10
68.12010000000001
 20
82.07387994
 30
0.0
 70
0
  0
VERTEX
  8
0
 10
67.79599999999999
 20
81.92487994
 30
0.0
 70
0
  0
VERTEX
  8
0
 10
67.455
 20
81.81607994000001
 30
0.0
 70
0
  0
VERTEX
  8
0
 10
67.1007
 20
81.74927994000001
 30
0.0
 70
0
  0
VERTEX
  8
0
 10
66.82759999999999
 20
81.72667994
 30
0.0
 70
0
  0
VERTEX
  8
0
 10
66.7367
 20
81.72667994
 30
0.0
 70
0
  0
VERTEX
  8
0
 10
66.6457
 20
81.72667994
 30
0.0
 70
0
  0
VERTEX
  8
0
 10
66.3726
 20
81.74927994000001
 30
0.0
 70
0
  0
VERTEX
  8
0
 10
66.01830000000001
 20
81.81607994000001
 30
0.0
 70
0
  0
VERTEX
  8
0
 10
65.6774
 20
81.92487994
 30
0.0
 70
0
  0
VERTEX
  8
0
 10
65.3532
 20
82.07387994
 30
0.0
 70
0
  0
VERTEX
  8
0
 10
65.0496
 20
82.26127994000001
 30
0.0
 70
0
  0
VERTEX
  8
0
 10
64.7701
 20
82.48487994
 30
0.0
 70
0
  0
VERTEX
  8
0
 10
64.51830000000001
 20
82.74277994
 30
0.0
 70
0
  0
VERTEX
  8
0
 10
64.34819999999999
 20
82.95767994
 30
0.0
 70
0
  0
VERTEX
  8
0
 10
64.2978
 20
83.03337994
 30
0.0
 70
0
  0
VERTEX
  8
0
 10
64.2474
 20
83.10917994
 30
0.0
 70
0
  0
VERTEX
  8
0
 10
64.11500000000001
 20
83.34887994
 30
0.0
 70
0
  0
VERTEX
  8
0
 10
63.9742
 20
83.68087994
 30
0.0
 70
0
  0
VERTEX
  8
0
 10
63.876
 20
84.02497994000001
 30
0.0
 70
0
  0
VERTEX
  8
0
 10
63.8204
 20
84.37747994
 30
0.0
 70
0
  0
VERTEX
  8
0
 10
63.8082
 20
84.73387994000001
 30
0.0
 70
0
  0
VERTEX
  8
0
 10
63.8394
 20
85.09057994
 30
0.0
 70
0
  0
VERTEX
  8
0
 10
63.9147
 20
85.44307994
 30
0.0
 70
0
  0
VERTEX
  8
0
 10
63.9993
 20
85.70357994
 30
0.0
 70
0
  0
VERTEX
  8
0
 10
64.0344
 20
85.78767994
 30
0.0
 70
0
  0
VERTEX
  8
0
 10
64.0344
 20
91.22217994
 30
0.0
 70
0
  0
SEQEND
  8
0
  0
POLYLINE
  8
0
 62
0
 66
1
 10
0.0
 20
0.0
 30
0.0
 70
1
  0
VERTEX
  8
0
 10
80.4446
 20
91.22217994
 30
0.0
 70
0
  0
VERTEX
  8
0
 10
75.04
 20
91.22217994
 30
0.0
 70
0
  0
VERTEX
  8
0
 10
75.04
 20
85.78767994
 30
0.0
 70
0
  0
VERTEX
  8
0
 10
75.0049
 20
85.70357994
 30
0.0
 70
0
  0
VERTEX
  8
0
 10
74.9204
 20
85.44307994
 30
0.0
 70
0
  0
VERTEX
  8
0
 10
74.845
 20
85.09057994
 30
0.0
 70
0
  0
VERTEX
  8
0
 10
74.8137
 20
84.73387994000001
 30
0.0
 70
0
  0
VERTEX
  8
0
 10
74.826
 20
84.37747994
 30
0.0
 70
0
  0
VERTEX
  8
0
 10
74.8815
 20
84.02497994000001
 30
0.0
 70
0
  0
VERTEX
  8
0
 10
74.9799
 20
83.68087994
 30
0.0
 70
0
  0
VERTEX
  8
0
 10
75.1206
 20
83.34887994
 30
0.0
 70
0
  0
VERTEX
  8
0
 10
75.2529
 20
83.10917994
 30
0.0
 70
0
  0
VERTEX
  8
0
 10
75.3033
 20
83.03337994
 30
0.0
 70
0
  0
VERTEX
  8
0
 10
75.3538
 20
82.95767994
 30
0.0
 70
0
  0
VERTEX
  8
0
 10
75.5239
 20
82.74277994
 30
0.0
 70
0
  0
VERTEX
  8
0
 10
75.7757
 20
82.48487994
 30
0.0
 70
0
  0
VERTEX
  8
0
 10
76.0553
 20
82.26127994000001
 30
0.0
 70
0
  0
VERTEX
  8
0
 10
76.3589
 20
82.07387994
 30
0.0
 70
0
  0
VERTEX
  8
0
 10
76.6829
 20
81.92487994
 30
0.0
 70
0
  0
VERTEX
  8
0
 10
77.024
 20
81.81607994000001
 30
0.0
 70
0
  0
VERTEX
  8
0
 10
77.3782
 20
81.74927994000001
 30
0.0
 70
0
  0
VERTEX
  8
0
 10
77.6513
 20
81.72667994
 30
0.0
 70
0
  0
VERTEX
  8
0
 10
77.7424
 20
81.72667994
 30
0.0
 70
0
  0
VERTEX
  8
0
 10
77.8333
 20
81.72667994
 30
0.0
 70
0
  0
VERTEX
  8
0
 10
78.1062
 20
81.74927994000001
 30
0.0
 70
0
  0
VERTEX
  8
0
 10
78.4606
 20
81.81607994000001
 30
0.0
 70
0
  0
VERTEX
  8
0
 10
78.8015
 20
81.92487994
 30
0.0
 70
0
  0
VERTEX
  8
0
 10
79.1257
 20
82.07387994
 30
0.0
 70
0
  0
VERTEX
  8
0
 10
79.4293
 20
82.26127994000001
 30
0.0
 70
0
  0
VERTEX
  8
0
 10
79.7089
 20
82.48487994
 30
0.0
 70
0
  0
VERTEX
  8
0
 10
79.9607
 20
82.74277994
 30
0.0
 70
0
  0
VERTEX
  8
0
 10
80.1308
 20
82.95767994
 30
0.0
 70
0
  0
VERTEX
  8
0
 10
80.1812
 20
83.03337994
 30
0.0
 70
0
  0
VERTEX
  8
0
 10
80.2317
 20
83.10917994
 30
0.0
 70
0
  0
VERTEX
  8
0
 10
80.364
 20
83.34887994
 30
0.0
 70
0
  0
VERTEX
  8
0
 10
80.5047
 20
83.68087994
 30
0.0
 70
0
  0
VERTEX
  8
0
 10
80.6031
 20
84.02497994000001
 30
0.0
 70
0
  0
VERTEX
  8
0
 10
80.6585
 20
84.37747994
 30
0.0
 70
0
  0
VERTEX
  8
0
 10
80.6708
 20
84.73387994000001
 30
0.0
 70
0
  0
VERTEX
  8
0
 10
80.6394
 20
85.09057994
 30
0.0
 70
0
  0
VERTEX
  8
0
 10
80.5642
 20
85.44307994
 30
0.0
 70
0
  0
VERTEX
  8
0
 10
80.4797
 20
85.70357994
 30
0.0
 70
0
  0
VERTEX
  8
0
 10
80.4446
 20
85.78767994
 30
0.0
 70
0
  0
VERTEX
  8
0
 10
80.4446
 20
91.22217994
 30
0.0
 70
0
  0
SEQEND
  8
0
  0
POLYLINE
  8
0
 62
0
 66
1
 10
0.0
 20
0.0
 30
0.0
 70
1
  0
VERTEX
  8
0
 10
75.8457
 20
74.85847994000001
 30
0.0
 70
0
  0
VERTEX
  8
0
 10
81.2503
 20
74.85847994000001
 30
0.0
 70
0
  0
VERTEX
  8
0
 10
81.2503
 20
67.63567994
 30
0.0
 70
0
  0
VERTEX
  8
0
 10
75.8457
 20
67.63567994
 30
0.0
 70
0
  0
VERTEX
  8
0
 10
75.8457
 20
74.85847994000001
 30
0.0
 70
0
  0
SEQEND
  8
0
  0
POLYLINE
  8
0
 62
0
 66
1
 10
0.0
 20
0.0
 30
0.0
 70
1
  0
VERTEX
  8
0
 10
82.9043
 20
61.22207994
 30
0.0
 70
0
  0
VERTEX
  8
0
 10
87.3997
 20
61.22207994
 30
0.0
 70
0
  0
VERTEX
  8
0
 10
87.3997
 20
55.817479940000005
 30
0.0
 70
0
  0
VERTEX
  8
0
 10
82.9043
 20
55.817479940000005
 30
0.0
 70
0
  0
VERTEX
  8
0
 10
82.9043
 20
61.22207994
 30
0.0
 70
0
  0
SEQEND
  8
0
  0
POLYLINE
  8
0
 62
0
 66
1
 10
0.0
 20
0.0
 30
0.0
 70
1
  0
VERTEX
  8
0
 10
59.096
 20
61.22207994
 30
0.0
 70
0
  0
VERTEX
  8
0
 10
63.5914
 20
61.22207994
 30
0.0
 70
0
  0
VERTEX
  8
0
 10
63.5914
 20
55.817479940000005
 30
0.0
 70
0
  0
VERTEX
  8
0
 10
59.096
 20
55.817479940000005
 30
0.0
 70
0
  0
VERTEX
  8
0
 10
59.096
 20
61.22207994
 30
0.0
 70
0
  0
SEQEND
  8
0
  0
POLYLINE
  8
0
 62
0
 66
1
 10
0.0
 20
0.0
 30
0.0
 70
1
  0
VERTEX
  8
0
 10
65.24539999999999
 20
74.85847994000001
 30
0.0
 70
0
  0
VERTEX
  8
0
 10
70.65
 20
74.85847994000001
 30
0.0
 70
0
  0
VERTEX
  8
0
 10
70.65
 20
67.63567994
 30
0.0
 70
0
  0
VERTEX
  8
0
 10
65.24539999999999
 20
67.63567994
 30
0.0
 70
0
  0
VERTEX
  8
0
 10
65.24539999999999
 20
74.85847994000001
 30
0.0
 70
0
  0
SEQEND
  8
0
  0
POLYLINE
  8
0
 62
0
 66
1
 10
0.0
 20
0.0
 30
0.0
 70
1
  0
VERTEX
  8
0
 10
71.0001
 20
61.22207994
 30
0.0
 70
0
  0
VERTEX
  8
0
 10
75.4956
 20
61.22207994
 30
0.0
 70
0
  0
VERTEX
  8
0
 10
75.4956
 20
55.817479940000005
 30
0.0
 70
0
  0
VERTEX
  8
0
 10
71.0001
 20
55.817479940000005
 30
0.0
 70
0
  0
VERTEX
  8
0
 10
71.0001
 20
61.22207994
 30
0.0
 70
0
  0
SEQEND
  8
0
  0
POLYLINE
  8
0
 62
0
 66
1
 10
0.0
 20
0.0
 30
0.0
 70
1
  0
VERTEX
  8
0
 10
86.4461
 20
74.85847994000001
 30
0.0
 70
0
  0
VERTEX
  8
0
 10
91.8506
 20
74.85847994000001
 30
0.0
 70
0
  0
VERTEX
  8
0
 10
91.8506
 20
67.63567994
 30
0.0
 70
0
  0
VERTEX
  8
0
 10
86.4461
 20
67.63567994
 30
0.0
 70
0
  0
VERTEX
  8
0
 10
86.4461
 20
74.85847994000001
 30
0.0
 70
0
  0
SEQEND
  8
0
  0
POLYLINE
  8
0
 62
0
 66
1
 10
0.0
 20
0.0
 30
0.0
 70
1
  0
VERTEX
  8
0
 10
54.6451
 20
74.85847994000001
 30
0.0
 70
0
  0
VERTEX
  8
0
 10
60.0497
 20
74.85847994000001
 30
0.0
 70
0
  0
VERTEX
  8
0
 10
60.0497
 20
67.63567994
 30
0.0
 70
0
  0
VERTEX
  8
0
 10
54.6451
 20
67.63567994
 30
0.0
 70
0
  0
VERTEX
  8
0
 10
54.6451
 20
74.85847994000001
 30
0.0
 70
0
  0
SEQEND
  8
0
  0
POLYLINE
  8
0
 62
0
 66
1
 10
0.0
 20
0.0
 30
0.0
 70
1
  0
VERTEX
  8
0
 10
56.8588
 20
1.75249994
 30
0.0
 70
0
  0
VERTEX
  8
0
 10
55.7587
 20
1.75249994
 30
0.0
 70
0
  0
VERTEX
  8
0
 10
55.7587
 20
2.9024999400000002
 30
0.0
 70
0
  0
VERTEX
  8
0
 10
56.8588
 20
2.9024999400000002
 30
0.0
 70
0
  0
VERTEX
  8
0
 10
56.8588
 20
3.67165994
 30
0.0
 70
0
  0
VERTEX
  8
0
 10
74.0019
 20
9.72221994
 30
0.0
 70
0
  0
VERTEX
  8
0
 10
92.2451
 20
3.28341994
 30
0.0
 70
0
  0
VERTEX
  8
0
 10
92.2451
 20
1.75249994
 30
0.0
 70
0
  0
VERTEX
  8
0
 10
91.1451
 20
1.75249994
 30
0.0
 70
0
  0
VERTEX
  8
0
 10
91.1451
 20
0.65250594
 30
0.0
 70
0
  0
VERTEX
  8
0
 10
56.8588
 20
0.65250594
 30
0.0
 70
0
  0
VERTEX
  8
0
 10
56.8588
 20
1.75249994
 30
0.0
 70
0
  0
SEQEND
  8
0
  0
POLYLINE
  8
0
 62
0
 66
1
 10
0.0
 20
0.0
 30
0.0
 70
1
  0
VERTEX
  8
0
 10
97.2714
 20
96.85177994
 30
0.0
 70
0
  0
VERTEX
  8
0
 10
97.2714
 20
106.61427994
 30
0.0
 70
0
  0
VERTEX
  8
0
 10
97.2842
 20
106.73427994000001
 30
0.0
 70
0
  0
VERTEX
  8
0
 10
97.2974
 20
107.09527994
 30
0.0
 70
0
  0
VERTEX
  8
0
 10
97.2728
 20
107.57127994
 30
0.0
 70
0
  0
VERTEX
  8
0
 10
97.199
 20
108.04027994
 30
0.0
 70
0
  0
VERTEX
  8
0
 10
97.0771
 20
108.49727994
 30
0.0
 70
0
  0
VERTEX
  8
0
 10
96.9083
 20
108.93927994
 30
0.0
 70
0
  0
VERTEX
  8
0
 10
96.6939
 20
109.36327994
 30
0.0
 70
0
  0
VERTEX
  8
0
 10
96.435
 20
109.76427994000001
 30
0.0
 70
0
  0
VERTEX
  8
0
 10
96.2132
 20
110.04927994
 30
0.0
 70
0
  0
VERTEX
  8
0
 10
96.1329
 20
110.13827994
 30
0.0
 70
0
  0
VERTEX
  8
0
 10
96.0526
 20
110.22727994
 30
0.0
 70
0
  0
VERTEX
  8
0
 10
95.7929
 20
110.47827994000001
 30
0.0
 70
0
  0
VERTEX
  8
0
 10
95.4221
 20
110.77827994
 30
0.0
 70
0
  0
VERTEX
  8
0
 10
95.024
 20
111.03727994
 30
0.0
 70
0
  0
VERTEX
  8
0
 10
94.6024
 20
111.25227994000001
 30
0.0
 70
0
  0
VERTEX
  8
0
 10
94.1606
 20
111.42227994000001
 30
0.0
 70
0
  0
VERTEX
  8
0
 10
93.7024
 20
111.54527994
 30
0.0
 70
0
  0
VERTEX
  8
0
 10
93.2312
 20
111.62127994000001
 30
0.0
 70
0
  0
VERTEX
  8
0
 10
92.871
 20
111.64627994
 30
0.0
 70
0
  0
VERTEX
  8
0
 10
92.751
 20
111.64627994
 30
0.0
 70
0
  0
VERTEX
  8
0
 10
92.6308
 20
111.64627994
 30
0.0
 70
0
  0
VERTEX
  8
0
 10
92.2706
 20
111.62127994000001
 30
0.0
 70
0
  0
VERTEX
  8
0
 10
91.7993
 20
111.54527994
 30
0.0
 70
0
  0
VERTEX
  8
0
 10
91.3411
 20
111.42227994000001
 30
0.0
 70
0
  0
VERTEX
  8
0
 10
90.8994
 20
111.25227994000001
 30
0.0
 70
0
  0
VERTEX
  8
0
 10
90.4776
 20
111.03727994
 30
0.0
 70
0
  0
VERTEX
  8
0
 10
90.0796
 20
110.77827994
 30
0.0
 70
0
  0
VERTEX
  8
0
 10
89.7089
 20
110.47827994000001
 30
0.0
 70
0
  0
VERTEX
  8
0
 10
89.4492
 20
110.22727994
 30
0.0
 70
0
  0
VERTEX
  8
0
 10
89.3689
 20
110.13827994
 30
0.0
 70
0
  0
VERTEX
  8
0
 10
89.2886
 20
110.04927994
 30
0.0
 70
0
  0
VERTEX
  8
0
 10
89.0667
 20
109.76427994000001
 30
0.0
 70
0
  0
VERTEX
  8
0
 10
88.8078
 20
109.36327994
 30
0.0
 70
0
  0
VERTEX
  8
0
 10
88.5935
 20
108.93927994
 30
0.0
 70
0
  0
VERTEX
  8
0
 10
88.4246
 20
108.49727994
 30
0.0
 70
0
  0
VERTEX
  8
0
 10
88.3028
 20
108.04027994
 30
0.0
 70
0
  0
VERTEX
  8
0
 10
88.2289
 20
107.57127994
 30
0.0
 70
0
  0
VERTEX
  8
0
 10
88.2044
 20
107.09527994
 30
0.0
 70
0
  0
VERTEX
  8
0
 10
88.2175
 20
106.73427994000001
 30
0.0
 70
0
  0
VERTEX
  8
0
 10
88.2304
 20
106.61427994
 30
0.0
 70
0
  0
VERTEX
  8
0
 10
88.2304
 20
97.95177994000001
 30
0.0
 70
0
  0
VERTEX
  8
0
 10
83.8214
 20
97.95177994000001
 30
0.0
 70
0
  0
VERTEX
  8
0
 10
83.8214
 20
96.85177994
 30
0.0
 70
0
  0
VERTEX
  8
0
 10
75.7714
 20
96.85177994
 30
0.0
 70
0
  0
VERTEX
  8
0
 10
75.7714
 20
97.95177994000001
 30
0.0
 70
0
  0
VERTEX
  8
0
 10
60.4532
 20
97.95177994000001
 30
0.0
 70
0
  0
VERTEX
  8
0
 10
60.4532
 20
105.00227994000001
 30
0.0
 70
0
  0
VERTEX
  8
0
 10
61.5531
 20
105.00227994000001
 30
0.0
 70
0
  0
VERTEX
  8
0
 10
61.5531
 20
132.77027994
 30
0.0
 70
0
  0
VERTEX
  8
0
 10
60.4532
 20
132.77027994
 30
0.0
 70
0
  0
VERTEX
  8
0
 10
60.4532
 20
139.81327994
 30
0.0
 70
0
  0
VERTEX
  8
0
 10
79.7964
 20
146.63927994
 30
0.0
 70
0
  0
VERTEX
  8
0
 10
99.1396
 20
139.81327994
 30
0.0
 70
0
  0
VERTEX
  8
0
 10
99.1396
 20
132.77027994
 30
0.0
 70
0
  0
VERTEX
  8
0
 10
98.0396
 20
132.77027994
 30
0.0
 70
0
  0
VERTEX
  8
0
 10
98.0396
 20
112.69627994
 30
0.0
 70
0
  0
VERTEX
  8
0
 10
99.1396
 20
112.69627994
 30
0.0
 70
0
  0
VERTEX
  8
0
 10
99.1396
 20
96.85177994
 30
0.0
 70
0
  0
VERTEX
  8
0
 10
97.2714
 20
96.85177994
 30
0.0
 70
0
  0
SEQEND
  8
0
  0
POLYLINE
  8
0
 62
0
 66
1
 10
0.0
 20
0.0
 30
0.0
 70
1
  0
VERTEX
  8
0
 10
82.9621
 20
114.96127994
 30
0.0
 70
0
  0
VERTEX
  8
0
 10
90.9413
 20
114.96127994
 30
0.0
 70
0
  0
VERTEX
  8
0
 10
90.9413
 20
113.91127994
 30
0.0
 70
0
  0
VERTEX
  8
0
 10
82.9621
 20
113.91127994
 30
0.0
 70
0
  0
VERTEX
  8
0
 10
82.9621
 20
114.96127994
 30
0.0
 70
0
  0
SEQEND
  8
0
  0
POLYLINE
  8
0
 62
0
 66
1
 10
0.0
 20
0.0
 30
0.0
 70
1
  0
VERTEX
  8
0
 10
67.96209999999999
 20
114.96127994
 30
0.0
 70
0
  0
VERTEX
  8
0
 10
75.9121
 20
114.96127994
 30
0.0
 70
0
  0
VERTEX
  8
0
 10
75.9121
 20
113.91127994
 30
0.0
 70
0
  0
VERTEX
  8
0
 10
67.96209999999999
 20
113.91127994
 30
0.0
 70
0
  0
VERTEX
  8
0
 10
67.96209999999999
 20
114.96127994
 30
0.0
 70
0
  0
SEQEND
  8
0
  0
POLYLINE
  8
0
 62
0
 66
1
 10
0.0
 20
0.0
 30
0.0
 70
1
  0
VERTEX
  8
0
 10
55.1708
 20
15.279079939999999
 30
0.0
 70
0
  0
VERTEX
  8
0
 10
55.1708
 20
49.56537994
 30
0.0
 70
0
  0
VERTEX
  8
0
 10
59.9258
 20
49.56537994
 30
0.0
 70
0
  0
VERTEX
  8
0
 10
59.9258
 20
50.66557994
 30
0.0
 70
0
  0
VERTEX
  8
0
 10
69.97579999999999
 20
50.66557994
 30
0.0
 70
0
  0
VERTEX
  8
0
 10
69.97579999999999
 20
49.56537994
 30
0.0
 70
0
  0
VERTEX
  8
0
 10
83.6704
 20
49.56537994
 30
0.0
 70
0
  0
VERTEX
  8
0
 10
83.6704
 20
50.66557994
 30
0.0
 70
0
  0
VERTEX
  8
0
 10
93.7204
 20
50.66557994
 30
0.0
 70
0
  0
VERTEX
  8
0
 10
93.7204
 20
49.56537994
 30
0.0
 70
0
  0
VERTEX
  8
0
 10
98.4754
 20
49.56537994
 30
0.0
 70
0
  0
VERTEX
  8
0
 10
98.4754
 20
15.279079939999999
 30
0.0
 70
0
  0
VERTEX
  8
0
 10
93.7204
 20
15.279079939999999
 30
0.0
 70
0
  0
VERTEX
  8
0
 10
93.7204
 20
14.17897994
 30
0.0
 70
0
  0
VERTEX
  8
0
 10
83.6704
 20
14.17897994
 30
0.0
 70
0
  0
VERTEX
  8
0
 10
83.6704
 20
15.279079939999999
 30
0.0
 70
0
  0
VERTEX
  8
0
 10
69.97579999999999
 20
15.279079939999999
 30
0.0
 70
0
  0
VERTEX
  8
0
 10
69.97579999999999
 20
14.17897994
 30
0.0
 70
0
  0
VERTEX
  8
0
 10
59.9258
 20
14.17897994
 30
0.0
 70
0
  0
VERTEX
  8
0
 10
59.9258
 20
15.279079939999999
 30
0.0
 70
0
  0
VERTEX
  8
0
 10
55.1708
 20
15.279079939999999
 30
0.0
 70
0
  0
SEQEND
  8
0
  0
POLYLINE
  8
0
 62
0
 66
1
 10
0.0
 20
0.0
 30
0.0
 70
1
  0
VERTEX
  8
0
 10
96.566
 20
40.28157994
 30
0.0
 70
0
  0
VERTEX
  8
0
 10
96.566
 20
40.227379940000006
 30
0.0
 70
0
  0
VERTEX
  8
0
 10
96.5442
 20
40.064879940000004
 30
0.0
 70
0
  0
VERTEX
  8
0
 10
96.4815
 20
39.863079940000006
 30
0.0
 70
0
  0
VERTEX
  8
0
 10
96.3825
 20
39.68057994
 30
0.0
 70
0
  0
VERTEX
  8
0
 10
96.2511
 20
39.52137994
 30
0.0
 70
0
  0
VERTEX
  8
0
 10
96.0921
 20
39.39017994
 30
0.0
 70
0
  0
VERTEX
  8
0
 10
95.9094
 20
39.29107994
 30
0.0
 70
0
  0
VERTEX
  8
0
 10
95.7076
 20
39.22847994
 30
0.0
 70
0
  0
VERTEX
  8
0
 10
95.5451
 20
39.20647994
 30
0.0
 70
0
  0
VERTEX
  8
0
 10
95.4911
 20
39.20647994
 30
0.0
 70
0
  0
VERTEX
  8
0
 10
95.4368
 20
39.20647994
 30
0.0
 70
0
  0
VERTEX
  8
0
 10
95.2743
 20
39.22847994
 30
0.0
 70
0
  0
VERTEX
  8
0
 10
95.0725
 20
39.29107994
 30
0.0
 70
0
  0
VERTEX
  8
0
 10
94.89
 20
39.39017994
 30
0.0
 70
0
  0
VERTEX
  8
0
 10
94.7308
 20
39.52137994
 30
0.0
 70
0
  0
VERTEX
  8
0
 10
94.5996
 20
39.68057994
 30
0.0
 70
0
  0
VERTEX
  8
0
 10
94.5006
 20
39.863079940000006
 30
0.0
 70
0
  0
VERTEX
  8
0
 10
94.4378
 20
40.064879940000004
 30
0.0
 70
0
  0
VERTEX
  8
0
 10
94.416
 20
40.227379940000006
 30
0.0
 70
0
  0
VERTEX
  8
0
 10
94.416
 20
40.28157994
 30
0.0
 70
0
  0
VERTEX
  8
0
 10
94.416
 20
40.335679940000006
 30
0.0
 70
0
  0
VERTEX
  8
0
 10
94.4378
 20
40.49817994
 30
0.0
 70
0
  0
VERTEX
  8
0
 10
94.5006
 20
40.699979940000006
 30
0.0
 70
0
  0
VERTEX
  8
0
 10
94.5996
 20
40.88267994
 30
0.0
 70
0
  0
VERTEX
  8
0
 10
94.7308
 20
41.04167994
 30
0.0
 70
0
  0
VERTEX
  8
0
 10
94.89
 20
41.17287994
 30
0.0
 70
0
  0
VERTEX
  8
0
 10
95.0725
 20
41.272079940000005
 30
0.0
 70
0
  0
VERTEX
  8
0
 10
95.2743
 20
41.33467994
 30
0.0
 70
0
  0
VERTEX
  8
0
 10
95.4368
 20
41.35657994
 30
0.0
 70
0
  0
VERTEX
  8
0
 10
95.4911
 20
41.35657994
 30
0.0
 70
0
  0
VERTEX
  8
0
 10
95.5451
 20
41.35657994
 30
0.0
 70
0
  0
VERTEX
  8
0
 10
95.7076
 20
41.33467994
 30
0.0
 70
0
  0
VERTEX
  8
0
 10
95.9094
 20
41.272079940000005
 30
0.0
 70
0
  0
VERTEX
  8
0
 10
96.0921
 20
41.17287994
 30
0.0
 70
0
  0
VERTEX
  8
0
 10
96.2511
 20
41.04167994
 30
0.0
 70
0
  0
VERTEX
  8
0
 10
96.3825
 20
40.88267994
 30
0.0
 70
0
  0
VERTEX
  8
0
 10
96.4815
 20
40.699979940000006
 30
0.0
 70
0
  0
VERTEX
  8
0
 10
96.5442
 20
40.49817994
 30
0.0
 70
0
  0
VERTEX
  8
0
 10
96.566
 20
40.335679940000006
 30
0.0
 70
0
  0
VERTEX
  8
0
 10
96.566
 20
40.28157994
 30
0.0
 70
0
  0
SEQEND
  8
0
  0
POLYLINE
  8
0
 62
0
 66
1
 10
0.0
 20
0.0
 30
0.0
 70
1
  0
VERTEX
  8
0
 10
122.224
 20
168.77627994
 30
0.0
 70
0
  0
VERTEX
  8
0
 10
122.224
 20
147.64927993999999
 30
0.0
 70
0
  0
VERTEX
  8
0
 10
80.3558
 20
147.64927993999999
 30
0.0
 70
0
  0
VERTEX
  8
0
 10
80.3558
 20
190.95327994
 30
0.0
 70
0
  0
VERTEX
  8
0
 10
122.224
 20
190.95327994
 30
0.0
 70
0
  0
VERTEX
  8
0
 10
122.224
 20
169.82627993999998
 30
0.0
 70
0
  0
VERTEX
  8
0
 10
121.124
 20
169.82627993999998
 30
0.0
 70
0
  0
VERTEX
  8
0
 10
121.124
 20
168.77627994
 30
0.0
 70
0
  0
VERTEX
  8
0
 10
122.224
 20
168.77627994
 30
0.0
 70
0
  0
SEQEND
  8
0
  0
POLYLINE
  8
0
 62
0
 66
1
 10
0.0
 20
0.0
 30
0.0
 70
1
  0
VERTEX
  8
0
 10
84.2876
 20
171.79427994
 30
0.0
 70
0
  0
VERTEX
  8
0
 10
84.2876
 20
175.79827994
 30
0.0
 70
0
  0
VERTEX
  8
0
 10
89.1728
 20
175.79827994
 30
0.0
 70
0
  0
VERTEX
  8
0
 10
89.2368
 20
175.83027994
 30
0.0
 70
0
  0
VERTEX
  8
0
 10
89.4372
 20
175.90827994
 30
0.0
 70
0
  0
VERTEX
  8
0
 10
89.7101
 20
175.98127993999998
 30
0.0
 70
0
  0
VERTEX
  8
0
 10
89.9879
 20
176.01927994
 30
0.0
 70
0
  0
VERTEX
  8
0
 10
90.2674
 20
176.02327993999998
 30
0.0
 70
0
  0
VERTEX
  8
0
 10
90.5451
 20
175.99127994
 30
0.0
 70
0
  0
VERTEX
  8
0
 10
90.8175
 20
175.92427994
 30
0.0
 70
0
  0
VERTEX
  8
0
 10
91.0815
 20
175.82327994
 30
0.0
 70
0
  0
VERTEX
  8
0
 10
91.2728
 20
175.72627993999998
 30
0.0
 70
0
  0
VERTEX
  8
0
 10
91.3335
 20
175.68727994
 30
0.0
 70
0
  0
VERTEX
  8
0
 10
91.394
 20
175.64927993999999
 30
0.0
 70
0
  0
VERTEX
  8
0
 10
91.566
 20
175.52027994
 30
0.0
 70
0
  0
VERTEX
  8
0
 10
91.7728
 20
175.32827994
 30
0.0
 70
0
  0
VERTEX
  8
0
 10
91.9524
 20
175.11327993999998
 30
0.0
 70
0
  0
VERTEX
  8
0
 10
92.1031
 20
174.87727994
 30
0.0
 70
0
  0
VERTEX
  8
0
 10
92.2231
 20
174.62427993999998
 30
0.0
 70
0
  0
VERTEX
  8
0
 10
92.3108
 20
174.35927994
 30
0.0
 70
0
  0
VERTEX
  8
0
 10
92.3647
 20
174.08127994
 30
0.0
 70
0
  0
VERTEX
  8
0
 10
92.3831
 20
173.86727994
 30
0.0
 70
0
  0
VERTEX
  8
0
 10
92.3831
 20
173.79527994
 30
0.0
 70
0
  0
VERTEX
  8
0
 10
92.3831
 20
173.72427994
 30
0.0
 70
0
  0
VERTEX
  8
0
 10
92.3647
 20
173.51027993999998
 30
0.0
 70
0
  0
VERTEX
  8
0
 10
92.3108
 20
173.23227993999998
 30
0.0
 70
0
  0
VERTEX
  8
0
 10
92.2231
 20
172.96627994
 30
0.0
 70
0
  0
VERTEX
  8
0
 10
92.1031
 20
172.71427993999998
 30
0.0
 70
0
  0
VERTEX
  8
0
 10
91.9524
 20
172.47827994
 30
0.0
 70
0
  0
VERTEX
  8
0
 10
91.7728
 20
172.26327994
 30
0.0
 70
0
  0
VERTEX
  8
0
 10
91.566
 20
172.07027993999998
 30
0.0
 70
0
  0
VERTEX
  8
0
 10
91.394
 20
171.94127994
 30
0.0
 70
0
  0
VERTEX
  8
0
 10
91.3335
 20
171.90327993999998
 30
0.0
 70
0
  0
VERTEX
  8
0
 10
91.2728
 20
171.86627994
 30
0.0
 70
0
  0
VERTEX
  8
0
 10
91.0815
 20
171.76927994
 30
0.0
 70
0
  0
VERTEX
  8
0
 10
90.8175
 20
171.66727994
 30
0.0
 70
0
  0
VERTEX
  8
0
 10
90.5451
 20
171.60127993999998
 30
0.0
 70
0
  0
VERTEX
  8
0
 10
90.2674
 20
171.56927994
 30
0.0
 70
0
  0
VERTEX
  8
0
 10
89.9879
 20
171.57327994
 30
0.0
 70
0
  0
VERTEX
  8
0
 10
89.7101
 20
171.61027994
 30
0.0
 70
0
  0
VERTEX
  8
0
 10
89.4372
 20
171.68427993999998
 30
0.0
 70
0
  0
VERTEX
  8
0
 10
89.2368
 20
171.76227993999998
 30
0.0
 70
0
  0
VERTEX
  8
0
 10
89.1728
 20
171.79427994
 30
0.0
 70
0
  0
VERTEX
  8
0
 10
84.2876
 20
171.79427994
 30
0.0
 70
0
  0
SEQEND
  8
0
  0
POLYLINE
  8
0
 62
0
 66
1
 10
0.0
 20
0.0
 30
0.0
 70
1
  0
VERTEX
  8
0
 10
84.2876
 20
186.80327993999998
 30
0.0
 70
0
  0
VERTEX
  8
0
 10
84.2876
 20
182.79927994
 30
0.0
 70
0
  0
VERTEX
  8
0
 10
89.1728
 20
182.79927994
 30
0.0
 70
0
  0
VERTEX
  8
0
 10
89.2368
 20
182.76727993999998
 30
0.0
 70
0
  0
VERTEX
  8
0
 10
89.4372
 20
182.68927993999998
 30
0.0
 70
0
  0
VERTEX
  8
0
 10
89.7101
 20
182.61627994
 30
0.0
 70
0
  0
VERTEX
  8
0
 10
89.9879
 20
182.57827994
 30
0.0
 70
0
  0
VERTEX
  8
0
 10
90.2674
 20
182.57427994
 30
0.0
 70
0
  0
VERTEX
  8
0
 10
90.5451
 20
182.60627993999998
 30
0.0
 70
0
  0
VERTEX
  8
0
 10
90.8175
 20
182.67327994
 30
0.0
 70
0
  0
VERTEX
  8
0
 10
91.0815
 20
182.77427993999999
 30
0.0
 70
0
  0
VERTEX
  8
0
 10
91.2728
 20
182.87127994
 30
0.0
 70
0
  0
VERTEX
  8
0
 10
91.3335
 20
182.90927993999998
 30
0.0
 70
0
  0
VERTEX
  8
0
 10
91.394
 20
182.94827994
 30
0.0
 70
0
  0
VERTEX
  8
0
 10
91.566
 20
183.07627993999998
 30
0.0
 70
0
  0
VERTEX
  8
0
 10
91.7728
 20
183.26927994
 30
0.0
 70
0
  0
VERTEX
  8
0
 10
91.9524
 20
183.48427994
 30
0.0
 70
0
  0
VERTEX
  8
0
 10
92.1031
 20
183.72027993999998
 30
0.0
 70
0
  0
VERTEX
  8
0
 10
92.2231
 20
183.97127994
 30
0.0
 70
0
  0
VERTEX
  8
0
 10
92.3108
 20
184.23827993999998
 30
0.0
 70
0
  0
VERTEX
  8
0
 10
92.3647
 20
184.51627993999998
 30
0.0
 70
0
  0
VERTEX
  8
0
 10
92.3831
 20
184.73027994
 30
0.0
 70
0
  0
VERTEX
  8
0
 10
92.3831
 20
184.80127994
 30
0.0
 70
0
  0
VERTEX
  8
0
 10
92.3831
 20
184.87327993999997
 30
0.0
 70
0
  0
VERTEX
  8
0
 10
92.3647
 20
185.08727994
 30
0.0
 70
0
  0
VERTEX
  8
0
 10
92.3108
 20
185.36427994
 30
0.0
 70
0
  0
VERTEX
  8
0
 10
92.2231
 20
185.63127993999998
 30
0.0
 70
0
  0
VERTEX
  8
0
 10
92.1031
 20
185.88327994
 30
0.0
 70
0
  0
VERTEX
  8
0
 10
91.9524
 20
186.11927993999998
 30
0.0
 70
0
  0
VERTEX
  8
0
 10
91.7728
 20
186.33427994
 30
0.0
 70
0
  0
VERTEX
  8
0
 10
91.566
 20
186.52627994
 30
0.0
 70
0
  0
VERTEX
  8
0
 10
91.394
 20
186.65527993999999
 30
0.0
 70
0
  0
VERTEX
  8
0
 10
91.3335
 20
186.69227994
 30
0.0
 70
0
  0
VERTEX
  8
0
 10
91.2728
 20
186.73127993999998
 30
0.0
 70
0
  0
VERTEX
  8
0
 10
91.0815
 20
186.82827994
 30
0.0
 70
0
  0
VERTEX
  8
0
 10
90.8175
 20
186.93027994
 30
0.0
 70
0
  0
VERTEX
  8
0
 10
90.5451
 20
186.99627994
 30
0.0
 70
0
  0
VERTEX
  8
0
 10
90.2674
 20
187.02827993999998
 30
0.0
 70
0
  0
VERTEX
  8
0
 10
89.9879
 20
187.02427993999999
 30
0.0
 70
0
  0
VERTEX
  8
0
 10
89.7101
 20
186.98727993999998
 30
0.0
 70
0
  0
VERTEX
  8
0
 10
89.4372
 20
186.91327994
 30
0.0
 70
0
  0
VERTEX
  8
0
 10
89.2368
 20
186.83527994
 30
0.0
 70
0
  0
VERTEX
  8
0
 10
89.1728
 20
186.80327993999998
 30
0.0
 70
0
  0
VERTEX
  8
0
 10
84.2876
 20
186.80327993999998
 30
0.0
 70
0
  0
SEQEND
  8
0
  0
POLYLINE
  8
0
 62
0
 66
1
 10
0.0
 20
0.0
 30
0.0
 70
1
  0
VERTEX
  8
0
 10
84.2876
 20
160.78827994
 30
0.0
 70
0
  0
VERTEX
  8
0
 10
84.2876
 20
164.79227994
 30
0.0
 70
0
  0
VERTEX
  8
0
 10
89.1728
 20
164.79227994
 30
0.0
 70
0
  0
VERTEX
  8
0
 10
89.2368
 20
164.82427994
 30
0.0
 70
0
  0
VERTEX
  8
0
 10
89.4372
 20
164.90227994
 30
0.0
 70
0
  0
VERTEX
  8
0
 10
89.7101
 20
164.97627993999998
 30
0.0
 70
0
  0
VERTEX
  8
0
 10
89.9879
 20
165.01327994
 30
0.0
 70
0
  0
VERTEX
  8
0
 10
90.2674
 20
165.01627993999998
 30
0.0
 70
0
  0
VERTEX
  8
0
 10
90.5451
 20
164.98527994
 30
0.0
 70
0
  0
VERTEX
  8
0
 10
90.8175
 20
164.91927994
 30
0.0
 70
0
  0
VERTEX
  8
0
 10
91.0815
 20
164.81727994
 30
0.0
 70
0
  0
VERTEX
  8
0
 10
91.2728
 20
164.72027993999998
 30
0.0
 70
0
  0
VERTEX
  8
0
 10
91.3335
 20
164.68127994
 30
0.0
 70
0
  0
VERTEX
  8
0
 10
91.394
 20
164.64427994
 30
0.0
 70
0
  0
VERTEX
  8
0
 10
91.566
 20
164.51427994
 30
0.0
 70
0
  0
VERTEX
  8
0
 10
91.7728
 20
164.32327994
 30
0.0
 70
0
  0
VERTEX
  8
0
 10
91.9524
 20
164.10727993999998
 30
0.0
 70
0
  0
VERTEX
  8
0
 10
92.1031
 20
163.87127994
 30
0.0
 70
0
  0
VERTEX
  8
0
 10
92.2231
 20
163.61927993999998
 30
0.0
 70
0
  0
VERTEX
  8
0
 10
92.3108
 20
163.35327994
 30
0.0
 70
0
  0
VERTEX
  8
0
 10
92.3647
 20
163.07627993999998
 30
0.0
 70
0
  0
VERTEX
  8
0
 10
92.3831
 20
162.86227993999998
 30
0.0
 70
0
  0
VERTEX
  8
0
 10
92.3831
 20
162.78927994
 30
0.0
 70
0
  0
VERTEX
  8
0
 10
92.3831
 20
162.71927993999998
 30
0.0
 70
0
  0
VERTEX
  8
0
 10
92.3647
 20
162.50527993999998
 30
0.0
 70
0
  0
VERTEX
  8
0
 10
92.3108
 20
162.22727994
 30
0.0
 70
0
  0
VERTEX
  8
0
 10
92.2231
 20
161.96027994
 30
0.0
 70
0
  0
VERTEX
  8
0
 10
92.1031
 20
161.70727993999998
 30
0.0
 70
0
  0
VERTEX
  8
0
 10
91.9524
 20
161.47327994
 30
0.0
 70
0
  0
VERTEX
  8
0
 10
91.7728
 20
161.25827994
 30
0.0
 70
0
  0
VERTEX
  8
0
 10
91.566
 20
161.06427993999998
 30
0.0
 70
0
  0
VERTEX
  8
0
 10
91.394
 20
160.93527994
 30
0.0
 70
0
  0
VERTEX
  8
0
 10
91.3335
 20
160.89827993999998
 30
0.0
 70
0
  0
VERTEX
  8
0
 10
91.2728
 20
160.86027994
 30
0.0
 70
0
  0
VERTEX
  8
0
 10
91.0815
 20
160.76327994
 30
0.0
 70
0
  0
VERTEX
  8
0
 10
90.8175
 20
160.66227994
 30
0.0
 70
0
  0
VERTEX
  8
0
 10
90.5451
 20
160.59527993999998
 30
0.0
 70
0
  0
VERTEX
  8
0
 10
90.2674
 20
160.56327994
 30
0.0
 70
0
  0
VERTEX
  8
0
 10
89.9879
 20
160.56627994
 30
0.0
 70
0
  0
VERTEX
  8
0
 10
89.7101
 20
160.60527994
 30
0.0
 70
0
  0
VERTEX
  8
0
 10
89.4372
 20
160.67827993999998
 30
0.0
 70
0
  0
VERTEX
  8
0
 10
89.2368
 20
160.75627993999998
 30
0.0
 70
0
  0
VERTEX
  8
0
 10
89.1728
 20
160.78827994
 30
0.0
 70
0
  0
VERTEX
  8
0
 10
84.2876
 20
160.78827994
 30
0.0
 70
0
  0
SEQEND
  8
0
  0
POLYLINE
  8
0
 62
0
 66
1
 10
0.0
 20
0.0
 30
0.0
 70
1
  0
VERTEX
  8
0
 10
108.8513
 20
162.40327993999998
 30
0.0
 70
0
  0
VERTEX
  8
0
 10
109.9013
 20
162.40327993999998
 30
0.0
 70
0
  0
VERTEX
  8
0
 10
109.9013
 20
152.45327994
 30
0.0
 70
0
  0
VERTEX
  8
0
 10
108.8513
 20
152.45327994
 30
0.0
 70
0
  0
VERTEX
  8
0
 10
108.8513
 20
162.40327993999998
 30
0.0
 70
0
  0
SEQEND
  8
0
  0
POLYLINE
  8
0
 62
0
 66
1
 10
0.0
 20
0.0
 30
0.0
 70
1
  0
VERTEX
  8
0
 10
108.8513
 20
186.14827993999998
 30
0.0
 70
0
  0
VERTEX
  8
0
 10
109.9013
 20
186.14827993999998
 30
0.0
 70
0
  0
VERTEX
  8
0
 10
109.9013
 20
176.19827994
 30
0.0
 70
0
  0
VERTEX
  8
0
 10
108.8513
 20
176.19827994
 30
0.0
 70
0
  0
VERTEX
  8
0
 10
108.8513
 20
186.14827993999998
 30
0.0
 70
0
  0
SEQEND
  8
0
  0
POLYLINE
  8
0
 62
0
 66
1
 10
0.0
 20
0.0
 30
0.0
 70
1
  0
VERTEX
  8
0
 10
100.6513
 20
187.20327994
 30
0.0
 70
0
  0
VERTEX
  8
0
 10
106.474
 20
187.20327994
 30
0.0
 70
0
  0
VERTEX
  8
0
 10
106.474
 20
183.19927994
 30
0.0
 70
0
  0
VERTEX
  8
0
 10
100.6513
 20
183.19927994
 30
0.0
 70
0
  0
VERTEX
  8
0
 10
100.6513
 20
187.20327994
 30
0.0
 70
0
  0
SEQEND
  8
0
  0
POLYLINE
  8
0
 62
0
 66
1
 10
0.0
 20
0.0
 30
0.0
 70
1
  0
VERTEX
  8
0
 10
114.288
 20
170.84927994
 30
0.0
 70
0
  0
VERTEX
  8
0
 10
118.292
 20
170.84927994
 30
0.0
 70
0
  0
VERTEX
  8
0
 10
118.292
 20
167.75327994
 30
0.0
 70
0
  0
VERTEX
  8
0
 10
114.288
 20
167.75327994
 30
0.0
 70
0
  0
VERTEX
  8
0
 10
114.288
 20
170.84927994
 30
0.0
 70
0
  0
SEQEND
  8
0
  0
POLYLINE
  8
0
 62
0
 66
1
 10
0.0
 20
0.0
 30
0.0
 70
1
  0
VERTEX
  8
0
 10
114.288
 20
158.94527993999998
 30
0.0
 70
0
  0
VERTEX
  8
0
 10
118.292
 20
158.94527993999998
 30
0.0
 70
0
  0
VERTEX
  8
0
 10
118.292
 20
155.84927994
 30
0.0
 70
0
  0
VERTEX
  8
0
 10
114.288
 20
155.84927994
 30
0.0
 70
0
  0
VERTEX
  8
0
 10
114.288
 20
158.94527993999998
 30
0.0
 70
0
  0
SEQEND
  8
0
  0
POLYLINE
  8
0
 62
0
 66
1
 10
0.0
 20
0.0
 30
0.0
 70
1
  0
VERTEX
  8
0
 10
114.288
 20
182.75327994
 30
0.0
 70
0
  0
VERTEX
  8
0
 10
118.292
 20
182.75327994
 30
0.0
 70
0
  0
VERTEX
  8
0
 10
118.292
 20
179.65827994
 30
0.0
 70
0
  0
VERTEX
  8
0
 10
114.288
 20
179.65827994
 30
0.0
 70
0
  0
VERTEX
  8
0
 10
114.288
 20
182.75327994
 30
0.0
 70
0
  0
SEQEND
  8
0
  0
POLYLINE
  8
0
 62
0
 66
1
 10
0.0
 20
0.0
 30
0.0
 70
1
  0
VERTEX
  8
0
 10
100.6513
 20
155.40327993999998
 30
0.0
 70
0
  0
VERTEX
  8
0
 10
106.474
 20
155.40327993999998
 30
0.0
 70
0
  0
VERTEX
  8
0
 10
106.474
 20
151.39827993999998
 30
0.0
 70
0
  0
VERTEX
  8
0
 10
100.6513
 20
151.39827993999998
 30
0.0
 70
0
  0
VERTEX
  8
0
 10
100.6513
 20
155.40327993999998
 30
0.0
 70
0
  0
SEQEND
  8
0
  0
POLYLINE
  8
0
 62
0
 66
1
 10
0.0
 20
0.0
 30
0.0
 70
1
  0
VERTEX
  8
0
 10
100.6513
 20
176.60327994
 30
0.0
 70
0
  0
VERTEX
  8
0
 10
106.474
 20
176.60327994
 30
0.0
 70
0
  0
VERTEX
  8
0
 10
106.474
 20
172.59927994
 30
0.0
 70
0
  0
VERTEX
  8
0
 10
100.6513
 20
172.59927994
 30
0.0
 70
0
  0
VERTEX
  8
0
 10
100.6513
 20
176.60327994
 30
0.0
 70
0
  0
SEQEND
  8
0
  0
POLYLINE
  8
0
 62
0
 66
1
 10
0.0
 20
0.0
 30
0.0
 70
1
  0
VERTEX
  8
0
 10
100.6513
 20
166.00327994
 30
0.0
 70
0
  0
VERTEX
  8
0
 10
106.474
 20
166.00327994
 30
0.0
 70
0
  0
VERTEX
  8
0
 10
106.474
 20
161.99927993999998
 30
0.0
 70
0
  0
VERTEX
  8
0
 10
100.6513
 20
161.99927993999998
 30
0.0
 70
0
  0
VERTEX
  8
0
 10
100.6513
 20
166.00327994
 30
0.0
 70
0
  0
SEQEND
  8
0
  0
POLYLINE
  8
0
 62
0
 66
1
 10
0.0
 20
0.0
 30
0.0
 70
1
  0
VERTEX
  8
0
 10
122.441
 20
73.35677994000001
 30
0.0
 70
0
  0
VERTEX
  8
0
 10
122.441
 20
52.22957994
 30
0.0
 70
0
  0
VERTEX
  8
0
 10
97.5818
 20
52.22957994
 30
0.0
 70
0
  0
VERTEX
  8
0
 10
97.5818
 20
95.53417994
 30
0.0
 70
0
  0
VERTEX
  8
0
 10
122.441
 20
95.53417994
 30
0.0
 70
0
  0
VERTEX
  8
0
 10
122.441
 20
74.40677994
 30
0.0
 70
0
  0
VERTEX
  8
0
 10
121.341
 20
74.40677994
 30
0.0
 70
0
  0
VERTEX
  8
0
 10
121.341
 20
73.35677994000001
 30
0.0
 70
0
  0
VERTEX
  8
0
 10
122.441
 20
73.35677994000001
 30
0.0
 70
0
  0
SEQEND
  8
0
  0
POLYLINE
  8
0
 62
0
 66
1
 10
0.0
 20
0.0
 30
0.0
 70
1
  0
VERTEX
  8
0
 10
104.3544
 20
59.983579940000006
 30
0.0
 70
0
  0
VERTEX
  8
0
 10
106.6908
 20
59.983579940000006
 30
0.0
 70
0
  0
VERTEX
  8
0
 10
106.6908
 20
58.55637994000001
 30
0.0
 70
0
  0
VERTEX
  8
0
 10
104.3544
 20
58.55637994000001
 30
0.0
 70
0
  0
VERTEX
  8
0
 10
104.3544
 20
59.983579940000006
 30
0.0
 70
0
  0
SEQEND
  8
0
  0
POLYLINE
  8
0
 62
0
 66
1
 10
0.0
 20
0.0
 30
0.0
 70
1
  0
VERTEX
  8
0
 10
104.3544
 20
57.40637994
 30
0.0
 70
0
  0
VERTEX
  8
0
 10
106.6908
 20
57.40637994
 30
0.0
 70
0
  0
VERTEX
  8
0
 10
106.6908
 20
55.97917994
 30
0.0
 70
0
  0
VERTEX
  8
0
 10
104.3544
 20
55.97917994
 30
0.0
 70
0
  0
VERTEX
  8
0
 10
104.3544
 20
57.40637994
 30
0.0
 70
0
  0
SEQEND
  8
0
  0
POLYLINE
  8
0
 62
0
 66
1
 10
0.0
 20
0.0
 30
0.0
 70
1
  0
VERTEX
  8
0
 10
104.3544
 20
68.00667994
 30
0.0
 70
0
  0
VERTEX
  8
0
 10
106.6908
 20
68.00667994
 30
0.0
 70
0
  0
VERTEX
  8
0
 10
106.6908
 20
66.57947994
 30
0.0
 70
0
  0
VERTEX
  8
0
 10
104.3544
 20
66.57947994
 30
0.0
 70
0
  0
VERTEX
  8
0
 10
104.3544
 20
68.00667994
 30
0.0
 70
0
  0
SEQEND
  8
0
  0
POLYLINE
  8
0
 62
0
 66
1
 10
0.0
 20
0.0
 30
0.0
 70
1
  0
VERTEX
  8
0
 10
100.8681
 20
57.40637994
 30
0.0
 70
0
  0
VERTEX
  8
0
 10
103.2044
 20
57.40637994
 30
0.0
 70
0
  0
VERTEX
  8
0
 10
103.2044
 20
55.97917994
 30
0.0
 70
0
  0
VERTEX
  8
0
 10
100.8681
 20
55.97917994
 30
0.0
 70
0
  0
VERTEX
  8
0
 10
100.8681
 20
57.40637994
 30
0.0
 70
0
  0
SEQEND
  8
0
  0
POLYLINE
  8
0
 62
0
 66
1
 10
0.0
 20
0.0
 30
0.0
 70
1
  0
VERTEX
  8
0
 10
100.8681
 20
91.78457994
 30
0.0
 70
0
  0
VERTEX
  8
0
 10
103.2044
 20
91.78457994
 30
0.0
 70
0
  0
VERTEX
  8
0
 10
103.2044
 20
90.35737994
 30
0.0
 70
0
  0
VERTEX
  8
0
 10
100.8681
 20
90.35737994
 30
0.0
 70
0
  0
VERTEX
  8
0
 10
100.8681
 20
91.78457994
 30
0.0
 70
0
  0
SEQEND
  8
0
  0
POLYLINE
  8
0
 62
0
 66
1
 10
0.0
 20
0.0
 30
0.0
 70
1
  0
VERTEX
  8
0
 10
104.3544
 20
70.58407994000001
 30
0.0
 70
0
  0
VERTEX
  8
0
 10
106.6908
 20
70.58407994000001
 30
0.0
 70
0
  0
VERTEX
  8
0
 10
106.6908
 20
69.15667994
 30
0.0
 70
0
  0
VERTEX
  8
0
 10
104.3544
 20
69.15667994
 30
0.0
 70
0
  0
VERTEX
  8
0
 10
104.3544
 20
70.58407994000001
 30
0.0
 70
0
  0
SEQEND
  8
0
  0
POLYLINE
  8
0
 62
0
 66
1
 10
0.0
 20
0.0
 30
0.0
 70
1
  0
VERTEX
  8
0
 10
104.3544
 20
78.60697994
 30
0.0
 70
0
  0
VERTEX
  8
0
 10
106.6908
 20
78.60697994
 30
0.0
 70
0
  0
VERTEX
  8
0
 10
106.6908
 20
77.17967994
 30
0.0
 70
0
  0
VERTEX
  8
0
 10
104.3544
 20
77.17967994
 30
0.0
 70
0
  0
VERTEX
  8
0
 10
104.3544
 20
78.60697994
 30
0.0
 70
0
  0
SEQEND
  8
0
  0
POLYLINE
  8
0
 62
0
 66
1
 10
0.0
 20
0.0
 30
0.0
 70
1
  0
VERTEX
  8
0
 10
100.8681
 20
81.18427994
 30
0.0
 70
0
  0
VERTEX
  8
0
 10
103.2044
 20
81.18427994
 30
0.0
 70
0
  0
VERTEX
  8
0
 10
103.2044
 20
79.75697994000001
 30
0.0
 70
0
  0
VERTEX
  8
0
 10
100.8681
 20
79.75697994000001
 30
0.0
 70
0
  0
VERTEX
  8
0
 10
100.8681
 20
81.18427994
 30
0.0
 70
0
  0
SEQEND
  8
0
  0
POLYLINE
  8
0
 62
0
 66
1
 10
0.0
 20
0.0
 30
0.0
 70
1
  0
VERTEX
  8
0
 10
114.504
 20
61.402679940000006
 30
0.0
 70
0
  0
VERTEX
  8
0
 10
115.932
 20
61.402679940000006
 30
0.0
 70
0
  0
VERTEX
  8
0
 10
115.932
 20
60.42997994
 30
0.0
 70
0
  0
VERTEX
  8
0
 10
114.504
 20
60.42997994
 30
0.0
 70
0
  0
VERTEX
  8
0
 10
114.504
 20
61.402679940000006
 30
0.0
 70
0
  0
SEQEND
  8
0
  0
POLYLINE
  8
0
 62
0
 66
1
 10
0.0
 20
0.0
 30
0.0
 70
1
  0
VERTEX
  8
0
 10
117.082
 20
63.52537994
 30
0.0
 70
0
  0
VERTEX
  8
0
 10
118.509
 20
63.52537994
 30
0.0
 70
0
  0
VERTEX
  8
0
 10
118.509
 20
62.552679940000004
 30
0.0
 70
0
  0
VERTEX
  8
0
 10
117.082
 20
62.552679940000004
 30
0.0
 70
0
  0
VERTEX
  8
0
 10
117.082
 20
63.52537994
 30
0.0
 70
0
  0
SEQEND
  8
0
  0
POLYLINE
  8
0
 62
0
 66
1
 10
0.0
 20
0.0
 30
0.0
 70
1
  0
VERTEX
  8
0
 10
117.082
 20
87.33377994
 30
0.0
 70
0
  0
VERTEX
  8
0
 10
118.509
 20
87.33377994
 30
0.0
 70
0
  0
VERTEX
  8
0
 10
118.509
 20
86.36097994
 30
0.0
 70
0
  0
VERTEX
  8
0
 10
117.082
 20
86.36097994
 30
0.0
 70
0
  0
VERTEX
  8
0
 10
117.082
 20
87.33377994
 30
0.0
 70
0
  0
SEQEND
  8
0
  0
POLYLINE
  8
0
 62
0
 66
1
 10
0.0
 20
0.0
 30
0.0
 70
1
  0
VERTEX
  8
0
 10
114.504
 20
73.30677994
 30
0.0
 70
0
  0
VERTEX
  8
0
 10
115.932
 20
73.30677994
 30
0.0
 70
0
  0
VERTEX
  8
0
 10
115.932
 20
72.33407994000001
 30
0.0
 70
0
  0
VERTEX
  8
0
 10
114.504
 20
72.33407994000001
 30
0.0
 70
0
  0
VERTEX
  8
0
 10
114.504
 20
73.30677994
 30
0.0
 70
0
  0
SEQEND
  8
0
  0
POLYLINE
  8
0
 62
0
 66
1
 10
0.0
 20
0.0
 30
0.0
 70
1
  0
VERTEX
  8
0
 10
104.3544
 20
81.18427994
 30
0.0
 70
0
  0
VERTEX
  8
0
 10
106.6908
 20
81.18427994
 30
0.0
 70
0
  0
VERTEX
  8
0
 10
106.6908
 20
79.75697994000001
 30
0.0
 70
0
  0
VERTEX
  8
0
 10
104.3544
 20
79.75697994000001
 30
0.0
 70
0
  0
VERTEX
  8
0
 10
104.3544
 20
81.18427994
 30
0.0
 70
0
  0
SEQEND
  8
0
  0
POLYLINE
  8
0
 62
0
 66
1
 10
0.0
 20
0.0
 30
0.0
 70
1
  0
VERTEX
  8
0
 10
114.504
 20
63.52537994
 30
0.0
 70
0
  0
VERTEX
  8
0
 10
115.932
 20
63.52537994
 30
0.0
 70
0
  0
VERTEX
  8
0
 10
115.932
 20
62.552679940000004
 30
0.0
 70
0
  0
VERTEX
  8
0
 10
114.504
 20
62.552679940000004
 30
0.0
 70
0
  0
VERTEX
  8
0
 10
114.504
 20
63.52537994
 30
0.0
 70
0
  0
SEQEND
  8
0
  0
POLYLINE
  8
0
 62
0
 66
1
 10
0.0
 20
0.0
 30
0.0
 70
1
  0
VERTEX
  8
0
 10
117.082
 20
75.42957994
 30
0.0
 70
0
  0
VERTEX
  8
0
 10
118.509
 20
75.42957994
 30
0.0
 70
0
  0
VERTEX
  8
0
 10
118.509
 20
74.45677994
 30
0.0
 70
0
  0
VERTEX
  8
0
 10
117.082
 20
74.45677994
 30
0.0
 70
0
  0
VERTEX
  8
0
 10
117.082
 20
75.42957994
 30
0.0
 70
0
  0
SEQEND
  8
0
  0
POLYLINE
  8
0
 62
0
 66
1
 10
0.0
 20
0.0
 30
0.0
 70
1
  0
VERTEX
  8
0
 10
117.082
 20
85.21097994
 30
0.0
 70
0
  0
VERTEX
  8
0
 10
118.509
 20
85.21097994
 30
0.0
 70
0
  0
VERTEX
  8
0
 10
118.509
 20
84.23837994
 30
0.0
 70
0
  0
VERTEX
  8
0
 10
117.082
 20
84.23837994
 30
0.0
 70
0
  0
VERTEX
  8
0
 10
117.082
 20
85.21097994
 30
0.0
 70
0
  0
SEQEND
  8
0
  0
POLYLINE
  8
0
 62
0
 66
1
 10
0.0
 20
0.0
 30
0.0
 70
1
  0
VERTEX
  8
0
 10
114.504
 20
87.33377994
 30
0.0
 70
0
  0
VERTEX
  8
0
 10
115.932
 20
87.33377994
 30
0.0
 70
0
  0
VERTEX
  8
0
 10
115.932
 20
86.36097994
 30
0.0
 70
0
  0
VERTEX
  8
0
 10
114.504
 20
86.36097994
 30
0.0
 70
0
  0
VERTEX
  8
0
 10
114.504
 20
87.33377994
 30
0.0
 70
0
  0
SEQEND
  8
0
  0
POLYLINE
  8
0
 62
0
 66
1
 10
0.0
 20
0.0
 30
0.0
 70
1
  0
VERTEX
  8
0
 10
114.504
 20
85.21097994
 30
0.0
 70
0
  0
VERTEX
  8
0
 10
115.932
 20
85.21097994
 30
0.0
 70
0
  0
VERTEX
  8
0
 10
115.932
 20
84.23837994
 30
0.0
 70
0
  0
VERTEX
  8
0
 10
114.504
 20
84.23837994
 30
0.0
 70
0
  0
VERTEX
  8
0
 10
114.504
 20
85.21097994
 30
0.0
 70
0
  0
SEQEND
  8
0
  0
POLYLINE
  8
0
 62
0
 66
1
 10
0.0
 20
0.0
 30
0.0
 70
1
  0
VERTEX
  8
0
 10
100.8681
 20
89.20737994000001
 30
0.0
 70
0
  0
VERTEX
  8
0
 10
103.2044
 20
89.20737994000001
 30
0.0
 70
0
  0
VERTEX
  8
0
 10
103.2044
 20
87.77997994
 30
0.0
 70
0
  0
VERTEX
  8
0
 10
100.8681
 20
87.77997994
 30
0.0
 70
0
  0
VERTEX
  8
0
 10
100.8681
 20
89.20737994000001
 30
0.0
 70
0
  0
SEQEND
  8
0
  0
POLYLINE
  8
0
 62
0
 66
1
 10
0.0
 20
0.0
 30
0.0
 70
1
  0
VERTEX
  8
0
 10
100.8681
 20
68.00667994
 30
0.0
 70
0
  0
VERTEX
  8
0
 10
103.2044
 20
68.00667994
 30
0.0
 70
0
  0
VERTEX
  8
0
 10
103.2044
 20
66.57947994
 30
0.0
 70
0
  0
VERTEX
  8
0
 10
100.8681
 20
66.57947994
 30
0.0
 70
0
  0
VERTEX
  8
0
 10
100.8681
 20
68.00667994
 30
0.0
 70
0
  0
SEQEND
  8
0
  0
POLYLINE
  8
0
 62
0
 66
1
 10
0.0
 20
0.0
 30
0.0
 70
1
  0
VERTEX
  8
0
 10
100.8681
 20
59.983579940000006
 30
0.0
 70
0
  0
VERTEX
  8
0
 10
103.2044
 20
59.983579940000006
 30
0.0
 70
0
  0
VERTEX
  8
0
 10
103.2044
 20
58.55637994000001
 30
0.0
 70
0
  0
VERTEX
  8
0
 10
100.8681
 20
58.55637994000001
 30
0.0
 70
0
  0
VERTEX
  8
0
 10
100.8681
 20
59.983579940000006
 30
0.0
 70
0
  0
SEQEND
  8
0
  0
POLYLINE
  8
0
 62
0
 66
1
 10
0.0
 20
0.0
 30
0.0
 70
1
  0
VERTEX
  8
0
 10
114.504
 20
75.42957994
 30
0.0
 70
0
  0
VERTEX
  8
0
 10
115.932
 20
75.42957994
 30
0.0
 70
0
  0
VERTEX
  8
0
 10
115.932
 20
74.45677994
 30
0.0
 70
0
  0
VERTEX
  8
0
 10
114.504
 20
74.45677994
 30
0.0
 70
0
  0
VERTEX
  8
0
 10
114.504
 20
75.42957994
 30
0.0
 70
0
  0
SEQEND
  8
0
  0
POLYLINE
  8
0
 62
0
 66
1
 10
0.0
 20
0.0
 30
0.0
 70
1
  0
VERTEX
  8
0
 10
104.3544
 20
89.20737994000001
 30
0.0
 70
0
  0
VERTEX
  8
0
 10
106.6908
 20
89.20737994000001
 30
0.0
 70
0
  0
VERTEX
  8
0
 10
106.6908
 20
87.77997994
 30
0.0
 70
0
  0
VERTEX
  8
0
 10
104.3544
 20
87.77997994
 30
0.0
 70
0
  0
VERTEX
  8
0
 10
104.3544
 20
89.20737994000001
 30
0.0
 70
0
  0
SEQEND
  8
0
  0
POLYLINE
  8
0
 62
0
 66
1
 10
0.0
 20
0.0
 30
0.0
 70
1
  0
VERTEX
  8
0
 10
104.3544
 20
91.78457994
 30
0.0
 70
0
  0
VERTEX
  8
0
 10
106.6908
 20
91.78457994
 30
0.0
 70
0
  0
VERTEX
  8
0
 10
106.6908
 20
90.35737994
 30
0.0
 70
0
  0
VERTEX
  8
0
 10
104.3544
 20
90.35737994
 30
0.0
 70
0
  0
VERTEX
  8
0
 10
104.3544
 20
91.78457994
 30
0.0
 70
0
  0
SEQEND
  8
0
  0
POLYLINE
  8
0
 62
0
 66
1
 10
0.0
 20
0.0
 30
0.0
 70
1
  0
VERTEX
  8
0
 10
117.082
 20
73.30677994
 30
0.0
 70
0
  0
VERTEX
  8
0
 10
118.509
 20
73.30677994
 30
0.0
 70
0
  0
VERTEX
  8
0
 10
118.509
 20
72.33407994000001
 30
0.0
 70
0
  0
VERTEX
  8
0
 10
117.082
 20
72.33407994000001
 30
0.0
 70
0
  0
VERTEX
  8
0
 10
117.082
 20
73.30677994
 30
0.0
 70
0
  0
SEQEND
  8
0
  0
POLYLINE
  8
0
 62
0
 66
1
 10
0.0
 20
0.0
 30
0.0
 70
1
  0
VERTEX
  8
0
 10
100.8681
 20
78.60697994
 30
0.0
 70
0
  0
VERTEX
  8
0
 10
103.2044
 20
78.60697994
 30
0.0
 70
0
  0
VERTEX
  8
0
 10
103.2044
 20
77.17967994
 30
0.0
 70
0
  0
VERTEX
  8
0
 10
100.8681
 20
77.17967994
 30
0.0
 70
0
  0
VERTEX
  8
0
 10
100.8681
 20
78.60697994
 30
0.0
 70
0
  0
SEQEND
  8
0
  0
POLYLINE
  8
0
 62
0
 66
1
 10
0.0
 20
0.0
 30
0.0
 70
1
  0
VERTEX
  8
0
 10
117.082
 20
61.402679940000006
 30
0.0
 70
0
  0
VERTEX
  8
0
 10
118.509
 20
61.402679940000006
 30
0.0
 70
0
  0
VERTEX
  8
0
 10
118.509
 20
60.42997994
 30
0.0
 70
0
  0
VERTEX
  8
0
 10
117.082
 20
60.42997994
 30
0.0
 70
0
  0
VERTEX
  8
0
 10
117.082
 20
61.402679940000006
 30
0.0
 70
0
  0
SEQEND
  8
0
  0
POLYLINE
  8
0
 62
0
 66
1
 10
0.0
 20
0.0
 30
0.0
 70
1
  0
VERTEX
  8
0
 10
100.8681
 20
70.58407994000001
 30
0.0
 70
0
  0
VERTEX
  8
0
 10
103.2044
 20
70.58407994000001
 30
0.0
 70
0
  0
VERTEX
  8
0
 10
103.2044
 20
69.15667994
 30
0.0
 70
0
  0
VERTEX
  8
0
 10
100.8681
 20
69.15667994
 30
0.0
 70
0
  0
VERTEX
  8
0
 10
100.8681
 20
70.58407994000001
 30
0.0
 70
0
  0
SEQEND
  8
0
  0
POLYLINE
  8
0
 62
0
 66
1
 10
0.0
 20
0.0
 30
0.0
 70
1
  0
VERTEX
  8
0
 10
109.0682
 20
66.98457994
 30
0.0
 70
0
  0
VERTEX
  8
0
 10
110.118
 20
66.98457994
 30
0.0
 70
0
  0
VERTEX
  8
0
 10
110.118
 20
57.03457994
 30
0.0
 70
0
  0
VERTEX
  8
0
 10
109.0682
 20
57.03457994
 30
0.0
 70
0
  0
VERTEX
  8
0
 10
109.0682
 20
66.98457994
 30
0.0
 70
0
  0
SEQEND
  8
0
  0
POLYLINE
  8
0
 62
0
 66
1
 10
0.0
 20
0.0
 30
0.0
 70
1
  0
VERTEX
  8
0
 10
109.0682
 20
90.72917994000001
 30
0.0
 70
0
  0
VERTEX
  8
0
 10
110.118
 20
90.72917994000001
 30
0.0
 70
0
  0
VERTEX
  8
0
 10
110.118
 20
80.77917994
 30
0.0
 70
0
  0
VERTEX
  8
0
 10
109.0682
 20
80.77917994
 30
0.0
 70
0
  0
VERTEX
  8
0
 10
109.0682
 20
90.72917994000001
 30
0.0
 70
0
  0
SEQEND
  8
0
  0
POLYLINE
  8
0
 62
0
 66
1
 10
0.0
 20
0.0
 30
0.0
 70
1
  0
VERTEX
  8
0
 10
99.4754
 20
51.22957994
 30
0.0
 70
0
  0
VERTEX
  8
0
 10
122.739
 20
51.22957994
 30
0.0
 70
0
  0
VERTEX
  8
0
 10
122.739
 20
5.72492994
 30
0.0
 70
0
  0
VERTEX
  8
0
 10
99.4754
 20
5.72492994
 30
0.0
 70
0
  0
VERTEX
  8
0
 10
99.4754
 20
51.22957994
 30
0.0
 70
0
  0
SEQEND
  8
0
  0
POLYLINE
  8
0
 62
0
 66
1
 10
0.0
 20
0.0
 30
0.0
 70
1
  0
VERTEX
  8
0
 10
77.8456
 20
154.54927994
 30
0.0
 70
0
  0
VERTEX
  8
0
 10
76.7456
 20
154.54927994
 30
0.0
 70
0
  0
VERTEX
  8
0
 10
76.7456
 20
147.64927993999999
 30
0.0
 70
0
  0
VERTEX
  8
0
 10
59.6864
 20
147.64927993999999
 30
0.0
 70
0
  0
VERTEX
  8
0
 10
59.6864
 20
166.37127994
 30
0.0
 70
0
  0
VERTEX
  8
0
 10
71.241
 20
166.37127994
 30
0.0
 70
0
  0
VERTEX
  8
0
 10
71.241
 20
172.23127993999998
 30
0.0
 70
0
  0
VERTEX
  8
0
 10
59.6864
 20
172.23127993999998
 30
0.0
 70
0
  0
VERTEX
  8
0
 10
59.6864
 20
190.95327994
 30
0.0
 70
0
  0
VERTEX
  8
0
 10
76.7456
 20
190.95327994
 30
0.0
 70
0
  0
VERTEX
  8
0
 10
76.7456
 20
184.05327993999998
 30
0.0
 70
0
  0
VERTEX
  8
0
 10
77.8456
 20
184.05327993999998
 30
0.0
 70
0
  0
VERTEX
  8
0
 10
77.8456
 20
176.00327994
 30
0.0
 70
0
  0
VERTEX
  8
0
 10
76.7456
 20
176.00327994
 30
0.0
 70
0
  0
VERTEX
  8
0
 10
76.7456
 20
162.59927994
 30
0.0
 70
0
  0
VERTEX
  8
0
 10
77.8456
 20
162.59927994
 30
0.0
 70
0
  0
VERTEX
  8
0
 10
77.8456
 20
154.54927994
 30
0.0
 70
0
  0
SEQEND
  8
0
  0
POLYLINE
  8
0
 62
0
 66
1
 10
0.0
 20
0.0
 30
0.0
 70
1
  0
VERTEX
  8
0
 10
62.6546
 20
164.05527994
 30
0.0
 70
0
  0
VERTEX
  8
0
 10
72.6626
 20
164.05527994
 30
0.0
 70
0
  0
VERTEX
  8
0
 10
72.6626
 20
149.78127994
 30
0.0
 70
0
  0
VERTEX
  8
0
 10
62.6546
 20
149.78127994
 30
0.0
 70
0
  0
VERTEX
  8
0
 10
62.6546
 20
164.05527994
 30
0.0
 70
0
  0
SEQEND
  8
0
  0
POLYLINE
  8
0
 62
0
 66
1
 10
0.0
 20
0.0
 30
0.0
 70
1
  0
VERTEX
  8
0
 10
62.6546
 20
188.82127993999998
 30
0.0
 70
0
  0
VERTEX
  8
0
 10
72.6626
 20
188.82127993999998
 30
0.0
 70
0
  0
VERTEX
  8
0
 10
72.6626
 20
174.54827994
 30
0.0
 70
0
  0
VERTEX
  8
0
 10
62.6546
 20
174.54827994
 30
0.0
 70
0
  0
VERTEX
  8
0
 10
62.6546
 20
188.82127993999998
 30
0.0
 70
0
  0
SEQEND
  8
0
  0
POLYLINE
  8
0
 62
0
 66
1
 10
0.0
 20
0.0
 30
0.0
 70
1
  0
VERTEX
  8
0
 10
100.3722
 20
146.64927993999999
 30
0.0
 70
0
  0
VERTEX
  8
0
 10
123.636
 20
146.64927993999999
 30
0.0
 70
0
  0
VERTEX
  8
0
 10
123.636
 20
101.14427994
 30
0.0
 70
0
  0
VERTEX
  8
0
 10
100.3722
 20
101.14427994
 30
0.0
 70
0
  0
VERTEX
  8
0
 10
100.3722
 20
146.64927993999999
 30
0.0
 70
0
  0
SEQEND
  8
0
  0
POLYLINE
  8
0
 62
0
 66
1
 10
0.0
 20
0.0
 30
0.0
 70
1
  0
VERTEX
  8
0
 10
133.636
 20
209.0
 30
0.0
 70
0
  0
VERTEX
  8
0
 10
202.777
 20
209.0
 30
0.0
 70
0
  0
VERTEX
  8
0
 10
202.777
 20
120.768
 30
0.0
 70
0
  0
VERTEX
  8
0
 10
133.636
 20
120.768
 30
0.0
 70
0
  0
VERTEX
  8
0
 10
133.636
 20
209.0
 30
0.0
 70
0
  0
SEQEND
  8
0
  0
POLYLINE
  8
0
 62
0
 66
1
 10
0.0
 20
0.0
 30
0.0
 70
1
  0
VERTEX
  8
0
 10
143.51246
 20
181.982
 30
0.0
 70
0
  0
VERTEX
  8
0
 10
143.51246
 20
181.928
 30
0.0
 70
0
  0
VERTEX
  8
0
 10
143.4906
 20
181.765
 30
0.0
 70
0
  0
VERTEX
  8
0
 10
143.42794
 20
181.564
 30
0.0
 70
0
  0
VERTEX
  8
0
 10
143.32888
 20
181.381
 30
0.0
 70
0
  0
VERTEX
  8
0
 10
143.19758
 20
181.222
 30
0.0
 70
0
  0
VERTEX
  8
0
 10
143.03846
 20
181.09
 30
0.0
 70
0
  0
VERTEX
  8
0
 10
142.85589
 20
180.992
 30
0.0
 70
0
  0
VERTEX
  8
0
 10
142.65407
 20
180.929
 30
0.0
 70
0
  0
VERTEX
  8
0
 10
142.49158
 20
180.907
 30
0.0
 70
0
  0
VERTEX
  8
0
 10
142.43743
 20
180.907
 30
0.0
 70
0
  0
VERTEX
  8
0
 10
142.38324
 20
180.907
 30
0.0
 70
0
  0
VERTEX
  8
0
 10
142.22075
 20
180.929
 30
0.0
 70
0
  0
VERTEX
  8
0
 10
142.01897
 20
180.992
 30
0.0
 70
0
  0
VERTEX
  8
0
 10
141.83635999999998
 20
181.09
 30
0.0
 70
0
  0
VERTEX
  8
0
 10
141.67729
 20
181.222
 30
0.0
 70
0
  0
VERTEX
  8
0
 10
141.546
 20
181.381
 30
0.0
 70
0
  0
VERTEX
  8
0
 10
141.44693
 20
181.564
 30
0.0
 70
0
  0
VERTEX
  8
0
 10
141.38425999999998
 20
181.765
 30
0.0
 70
0
  0
VERTEX
  8
0
 10
141.36246
 20
181.928
 30
0.0
 70
0
  0
VERTEX
  8
0
 10
141.36246
 20
181.982
 30
0.0
 70
0
  0
VERTEX
  8
0
 10
141.36246
 20
182.036
 30
0.0
 70
0
  0
VERTEX
  8
0
 10
141.38425999999998
 20
182.199
 30
0.0
 70
0
  0
VERTEX
  8
0
 10
141.44693
 20
182.4
 30
0.0
 70
0
  0
VERTEX
  8
0
 10
141.546
 20
182.583
 30
0.0
 70
0
  0
VERTEX
  8
0
 10
141.67729
 20
182.742
 30
0.0
 70
0
  0
VERTEX
  8
0
 10
141.83635999999998
 20
182.874
 30
0.0
 70
0
  0
VERTEX
  8
0
 10
142.01897
 20
182.972
 30
0.0
 70
0
  0
VERTEX
  8
0
 10
142.22075
 20
183.035
 30
0.0
 70
0
  0
VERTEX
  8
0
 10
142.38324
 20
183.057
 30
0.0
 70
0
  0
VERTEX
  8
0
 10
142.43743
 20
183.057
 30
0.0
 70
0
  0
VERTEX
  8
0
 10
142.49158
 20
183.057
 30
0.0
 70
0
  0
VERTEX
  8
0
 10
142.65407
 20
183.035
 30
0.0
 70
0
  0
VERTEX
  8
0
 10
142.85589
 20
182.972
 30
0.0
 70
0
  0
VERTEX
  8
0
 10
143.03846
 20
182.874
 30
0.0
 70
0
  0
VERTEX
  8
0
 10
143.19758
 20
182.742
 30
0.0
 70
0
  0
VERTEX
  8
0
 10
143.32888
 20
182.583
 30
0.0
 70
0
  0
VERTEX
  8
0
 10
143.42794
 20
182.4
 30
0.0
 70
0
  0
VERTEX
  8
0
 10
143.4906
 20
182.199
 30
0.0
 70
0
  0
VERTEX
  8
0
 10
143.51246
 20
182.036
 30
0.0
 70
0
  0
VERTEX
  8
0
 10
143.51246
 20
181.982
 30
0.0
 70
0
  0
SEQEND
  8
0
  0
POLYLINE
  8
0
 62
0
 66
1
 10
0.0
 20
0.0
 30
0.0
 70
1
  0
VERTEX
  8
0
 10
182.7282
 20
139.178
 30
0.0
 70
0
  0
VERTEX
  8
0
 10
182.7282
 20
139.124
 30
0.0
 70
0
  0
VERTEX
  8
0
 10
182.7064
 20
138.961
 30
0.0
 70
0
  0
VERTEX
  8
0
 10
182.6436
 20
138.759
 30
0.0
 70
0
  0
VERTEX
  8
0
 10
182.5446
 20
138.577
 30
0.0
 70
0
  0
VERTEX
  8
0
 10
182.4134
 20
138.418
 30
0.0
 70
0
  0
VERTEX
  8
0
 10
182.2542
 20
138.286
 30
0.0
 70
0
  0
VERTEX
  8
0
 10
182.0717
 20
138.187
 30
0.0
 70
0
  0
VERTEX
  8
0
 10
181.8699
 20
138.125
 30
0.0
 70
0
  0
VERTEX
  8
0
 10
181.7074
 20
138.103
 30
0.0
 70
0
  0
VERTEX
  8
0
 10
181.6532
 20
138.103
 30
0.0
 70
0
  0
VERTEX
  8
0
 10
181.5991
 20
138.103
 30
0.0
 70
0
  0
VERTEX
  8
0
 10
181.4366
 20
138.125
 30
0.0
 70
0
  0
VERTEX
  8
0
 10
181.2348
 20
138.187
 30
0.0
 70
0
  0
VERTEX
  8
0
 10
181.0521
 20
138.286
 30
0.0
 70
0
  0
VERTEX
  8
0
 10
180.8931
 20
138.418
 30
0.0
 70
0
  0
VERTEX
  8
0
 10
180.7617
 20
138.577
 30
0.0
 70
0
  0
VERTEX
  8
0
 10
180.6627
 20
138.759
 30
0.0
 70
0
  0
VERTEX
  8
0
 10
180.6
 20
138.961
 30
0.0
 70
0
  0
VERTEX
  8
0
 10
180.57819999999998
 20
139.124
 30
0.0
 70
0
  0
VERTEX
  8
0
 10
180.57819999999998
 20
139.178
 30
0.0
 70
0
  0
VERTEX
  8
0
 10
180.57819999999998
 20
139.232
 30
0.0
 70
0
  0
VERTEX
  8
0
 10
180.6
 20
139.394
 30
0.0
 70
0
  0
VERTEX
  8
0
 10
180.6627
 20
139.596
 30
0.0
 70
0
  0
VERTEX
  8
0
 10
180.7617
 20
139.779
 30
0.0
 70
0
  0
VERTEX
  8
0
 10
180.8931
 20
139.938
 30
0.0
 70
0
  0
VERTEX
  8
0
 10
181.0521
 20
140.069
 30
0.0
 70
0
  0
VERTEX
  8
0
 10
181.2348
 20
140.168
 30
0.0
 70
0
  0
VERTEX
  8
0
 10
181.4366
 20
140.231
 30
0.0
 70
0
  0
VERTEX
  8
0
 10
181.5991
 20
140.253
 30
0.0
 70
0
  0
VERTEX
  8
0
 10
181.6532
 20
140.253
 30
0.0
 70
0
  0
VERTEX
  8
0
 10
181.7074
 20
140.253
 30
0.0
 70
0
  0
VERTEX
  8
0
 10
181.8699
 20
140.231
 30
0.0
 70
0
  0
VERTEX
  8
0
 10
182.0717
 20
140.168
 30
0.0
 70
0
  0
VERTEX
  8
0
 10
182.2542
 20
140.069
 30
0.0
 70
0
  0
VERTEX
  8
0
 10
182.4134
 20
139.938
 30
0.0
 70
0
  0
VERTEX
  8
0
 10
182.5446
 20
139.779
 30
0.0
 70
0
  0
VERTEX
  8
0
 10
182.6436
 20
139.596
 30
0.0
 70
0
  0
VERTEX
  8
0
 10
182.7064
 20
139.394
 30
0.0
 70
0
  0
VERTEX
  8
0
 10
182.7282
 20
139.232
 30
0.0
 70
0
  0
VERTEX
  8
0
 10
182.7282
 20
139.178
 30
0.0
 70
0
  0
SEQEND
  8
0
  0
POLYLINE
  8
0
 62
0
 66
1
 10
0.0
 20
0.0
 30
0.0
 70
1
  0
VERTEX
  8
0
 10
181.1406
 20
190.636
 30
0.0
 70
0
  0
VERTEX
  8
0
 10
184.0906
 20
190.636
 30
0.0
 70
0
  0
VERTEX
  8
0
 10
184.0906
 20
190.818
 30
0.0
 70
0
  0
VERTEX
  8
0
 10
185.1906
 20
190.818
 30
0.0
 70
0
  0
VERTEX
  8
0
 10
185.1906
 20
203.95
 30
0.0
 70
0
  0
VERTEX
  8
0
 10
151.2224
 20
203.95
 30
0.0
 70
0
  0
VERTEX
  8
0
 10
151.2224
 20
190.818
 30
0.0
 70
0
  0
VERTEX
  8
0
 10
152.3224
 20
190.818
 30
0.0
 70
0
  0
VERTEX
  8
0
 10
152.3224
 20
190.636
 30
0.0
 70
0
  0
VERTEX
  8
0
 10
155.2724
 20
190.636
 30
0.0
 70
0
  0
VERTEX
  8
0
 10
155.2724
 20
191.686
 30
0.0
 70
0
  0
VERTEX
  8
0
 10
152.2724
 20
191.686
 30
0.0
 70
0
  0
VERTEX
  8
0
 10
152.2724
 20
201.4
 30
0.0
 70
0
  0
VERTEX
  8
0
 10
153.7724
 20
201.4
 30
0.0
 70
0
  0
VERTEX
  8
0
 10
153.7724
 20
202.9
 30
0.0
 70
0
  0
VERTEX
  8
0
 10
184.1406
 20
202.9
 30
0.0
 70
0
  0
VERTEX
  8
0
 10
184.1406
 20
191.686
 30
0.0
 70
0
  0
VERTEX
  8
0
 10
181.1406
 20
191.686
 30
0.0
 70
0
  0
VERTEX
  8
0
 10
181.1406
 20
190.636
 30
0.0
 70
0
  0
SEQEND
  8
0
  0
POLYLINE
  8
0
 62
0
 66
1
 10
0.0
 20
0.0
 30
0.0
 70
1
  0
VERTEX
  8
0
 10
152.2724
 20
136.868
 30
0.0
 70
0
  0
VERTEX
  8
0
 10
152.2724
 20
139.944
 30
0.0
 70
0
  0
VERTEX
  8
0
 10
156.6388
 20
139.944
 30
0.0
 70
0
  0
VERTEX
  8
0
 10
156.6388
 20
140.994
 30
0.0
 70
0
  0
VERTEX
  8
0
 10
152.2724
 20
140.994
 30
0.0
 70
0
  0
VERTEX
  8
0
 10
152.2724
 20
152.481
 30
0.0
 70
0
  0
VERTEX
  8
0
 10
156.6388
 20
152.481
 30
0.0
 70
0
  0
VERTEX
  8
0
 10
156.6388
 20
153.531
 30
0.0
 70
0
  0
VERTEX
  8
0
 10
152.2724
 20
153.531
 30
0.0
 70
0
  0
VERTEX
  8
0
 10
152.2724
 20
157.636
 30
0.0
 70
0
  0
VERTEX
  8
0
 10
155.2724
 20
157.636
 30
0.0
 70
0
  0
VERTEX
  8
0
 10
155.2724
 20
158.686
 30
0.0
 70
0
  0
VERTEX
  8
0
 10
152.2724
 20
158.686
 30
0.0
 70
0
  0
VERTEX
  8
0
 10
152.2724
 20
159.586
 30
0.0
 70
0
  0
VERTEX
  8
0
 10
151.2224
 20
159.586
 30
0.0
 70
0
  0
VERTEX
  8
0
 10
151.2224
 20
153.531
 30
0.0
 70
0
  0
VERTEX
  8
0
 10
143.05244
 20
153.531
 30
0.0
 70
0
  0
VERTEX
  8
0
 10
143.05244
 20
152.481
 30
0.0
 70
0
  0
VERTEX
  8
0
 10
151.2224
 20
152.481
 30
0.0
 70
0
  0
VERTEX
  8
0
 10
151.2224
 20
140.994
 30
0.0
 70
0
  0
VERTEX
  8
0
 10
143.05244
 20
140.994
 30
0.0
 70
0
  0
VERTEX
  8
0
 10
143.05244
 20
139.944
 30
0.0
 70
0
  0
VERTEX
  8
0
 10
151.2224
 20
139.944
 30
0.0
 70
0
  0
VERTEX
  8
0
 10
151.2224
 20
134.718
 30
0.0
 70
0
  0
VERTEX
  8
0
 10
153.3724
 20
134.718
 30
0.0
 70
0
  0
VERTEX
  8
0
 10
153.3724
 20
135.818
 30
0.0
 70
0
  0
VERTEX
  8
0
 10
162.4996
 20
135.818
 30
0.0
 70
0
  0
VERTEX
  8
0
 10
162.4996
 20
136.868
 30
0.0
 70
0
  0
VERTEX
  8
0
 10
152.2724
 20
136.868
 30
0.0
 70
0
  0
SEQEND
  8
0
  0
POLYLINE
  8
0
 62
0
 66
1
 10
0.0
 20
0.0
 30
0.0
 70
1
  0
VERTEX
  8
0
 10
143.05244
 20
149.712
 30
0.0
 70
0
  0
VERTEX
  8
0
 10
144.1025
 20
149.712
 30
0.0
 70
0
  0
VERTEX
  8
0
 10
144.1025
 20
143.763
 30
0.0
 70
0
  0
VERTEX
  8
0
 10
143.05244
 20
143.763
 30
0.0
 70
0
  0
VERTEX
  8
0
 10
143.05244
 20
149.712
 30
0.0
 70
0
  0
SEQEND
  8
0
  0
POLYLINE
  8
0
 62
0
 66
1
 10
0.0
 20
0.0
 30
0.0
 70
1
  0
VERTEX
  8
0
 10
181.1406
 20
158.686
 30
0.0
 70
0
  0
VERTEX
  8
0
 10
181.1406
 20
157.636
 30
0.0
 70
0
  0
VERTEX
  8
0
 10
184.1406
 20
157.636
 30
0.0
 70
0
  0
VERTEX
  8
0
 10
184.1406
 20
136.868
 30
0.0
 70
0
  0
VERTEX
  8
0
 10
173.9134
 20
136.868
 30
0.0
 70
0
  0
VERTEX
  8
0
 10
173.9134
 20
135.818
 30
0.0
 70
0
  0
VERTEX
  8
0
 10
183.04059999999998
 20
135.818
 30
0.0
 70
0
  0
VERTEX
  8
0
 10
183.04059999999998
 20
134.718
 30
0.0
 70
0
  0
VERTEX
  8
0
 10
185.1906
 20
134.718
 30
0.0
 70
0
  0
VERTEX
  8
0
 10
185.1906
 20
159.586
 30
0.0
 70
0
  0
VERTEX
  8
0
 10
184.1406
 20
159.586
 30
0.0
 70
0
  0
VERTEX
  8
0
 10
184.1406
 20
158.686
 30
0.0
 70
0
  0
VERTEX
  8
0
 10
181.1406
 20
158.686
 30
0.0
 70
0
  0
SEQEND
  8
0
  0
POLYLINE
  8
0
 62
0
 66
1
 10
0.0
 20
0.0
 30
0.0
 70
1
  0
VERTEX
  8
0
 10
184.1406
 20
167.636
 30
0.0
 70
0
  0
VERTEX
  8
0
 10
197.72699999999998
 20
167.636
 30
0.0
 70
0
  0
VERTEX
  8
0
 10
197.72699999999998
 20
185.768
 30
0.0
 70
0
  0
VERTEX
  8
0
 10
184.1406
 20
185.768
 30
0.0
 70
0
  0
VERTEX
  8
0
 10
184.1406
 20
184.718
 30
0.0
 70
0
  0
VERTEX
  8
0
 10
196.677
 20
184.718
 30
0.0
 70
0
  0
VERTEX
  8
0
 10
196.677
 20
168.686
 30
0.0
 70
0
  0
VERTEX
  8
0
 10
184.1406
 20
168.686
 30
0.0
 70
0
  0
VERTEX
  8
0
 10
184.1406
 20
167.636
 30
0.0
 70
0
  0
SEQEND
  8
0
  0
POLYLINE
  8
0
 62
0
 66
1
 10
0.0
 20
0.0
 30
0.0
 70
1
  0
VERTEX
  8
0
 10
152.2724
 20
167.636
 30
0.0
 70
0
  0
VERTEX
  8
0
 10
152.2724
 20
168.686
 30
0.0
 70
0
  0
VERTEX
  8
0
 10
139.73599
 20
168.686
 30
0.0
 70
0
  0
VERTEX
  8
0
 10
139.73599
 20
184.718
 30
0.0
 70
0
  0
VERTEX
  8
0
 10
152.2724
 20
184.718
 30
0.0
 70
0
  0
VERTEX
  8
0
 10
152.2724
 20
185.768
 30
0.0
 70
0
  0
VERTEX
  8
0
 10
138.68603
 20
185.768
 30
0.0
 70
0
  0
VERTEX
  8
0
 10
138.68603
 20
167.636
 30
0.0
 70
0
  0
VERTEX
  8
0
 10
152.2724
 20
167.636
 30
0.0
 70
0
  0
SEQEND
  8
0
  0
POLYLINE
  8
0
 62
0
 66
1
 10
0.0
 20
0.0
 30
0.0
 70
1
  0
VERTEX
  8
0
 10
155.5889
 20
149.482
 30
0.0
 70
0
  0
VERTEX
  8
0
 10
156.6388
 20
149.482
 30
0.0
 70
0
  0
VERTEX
  8
0
 10
156.6388
 20
143.993
 30
0.0
 70
0
  0
VERTEX
  8
0
 10
155.5889
 20
143.993
 30
0.0
 70
0
  0
VERTEX
  8
0
 10
155.5889
 20
149.482
 30
0.0
 70
0
  0
SEQEND
  8
0
  0
POLYLINE
  8
0
 62
0
 66
1
 10
0.0
 20
0.0
 30
0.0
 70
1
  0
VERTEX
  8
0
 10
224.3591
 20
153.846
 30
0.0
 70
0
  0
VERTEX
  8
0
 10
230.6088
 20
151.485
 30
0.0
 70
0
  0
VERTEX
  8
0
 10
230.6088
 20
131.635
 30
0.0
 70
0
  0
VERTEX
  8
0
 10
203.777
 20
131.635
 30
0.0
 70
0
  0
VERTEX
  8
0
 10
203.777
 20
147.436
 30
0.0
 70
0
  0
VERTEX
  8
0
 10
211.5699
 20
147.436
 30
0.0
 70
0
  0
VERTEX
  8
0
 10
211.5699
 20
148.486
 30
0.0
 70
0
  0
VERTEX
  8
0
 10
203.777
 20
148.486
 30
0.0
 70
0
  0
VERTEX
  8
0
 10
203.777
 20
180.436
 30
0.0
 70
0
  0
VERTEX
  8
0
 10
211.5699
 20
180.436
 30
0.0
 70
0
  0
VERTEX
  8
0
 10
211.5699
 20
181.486
 30
0.0
 70
0
  0
VERTEX
  8
0
 10
203.777
 20
181.486
 30
0.0
 70
0
  0
VERTEX
  8
0
 10
203.777
 20
209.0
 30
0.0
 70
0
  0
VERTEX
  8
0
 10
230.6088
 20
209.0
 30
0.0
 70
0
  0
VERTEX
  8
0
 10
230.6088
 20
199.179
 30
0.0
 70
0
  0
VERTEX
  8
0
 10
219.0509
 20
199.179
 30
0.0
 70
0
  0
VERTEX
  8
0
 10
219.0509
 20
185.592
 30
0.0
 70
0
  0
VERTEX
  8
0
 10
230.6088
 20
185.592
 30
0.0
 70
0
  0
VERTEX
  8
0
 10
230.6088
 20
173.357
 30
0.0
 70
0
  0
VERTEX
  8
0
 10
224.3591
 20
170.994
 30
0.0
 70
0
  0
VERTEX
  8
0
 10
224.7539
 20
169.95
 30
0.0
 70
0
  0
VERTEX
  8
0
 10
230.6088
 20
172.163
 30
0.0
 70
0
  0
VERTEX
  8
0
 10
230.6088
 20
152.678
 30
0.0
 70
0
  0
VERTEX
  8
0
 10
224.7539
 20
154.892
 30
0.0
 70
0
  0
VERTEX
  8
0
 10
224.3591
 20
153.846
 30
0.0
 70
0
  0
SEQEND
  8
0
  0
POLYLINE
  8
0
 62
0
 66
1
 10
0.0
 20
0.0
 30
0.0
 70
1
  0
VERTEX
  8
0
 10
179.9752
 20
106.082
 30
0.0
 70
0
  0
VERTEX
  8
0
 10
166.47539999999998
 20
106.082
 30
0.0
 70
0
  0
VERTEX
  8
0
 10
166.47539999999998
 20
107.182
 30
0.0
 70
0
  0
VERTEX
  8
0
 10
150.8866
 20
107.182
 30
0.0
 70
0
  0
VERTEX
  8
0
 10
150.8866
 20
106.082
 30
0.0
 70
0
  0
VERTEX
  8
0
 10
134.470526
 20
106.082
 30
0.0
 70
0
  0
VERTEX
  8
0
 10
134.470526
 20
107.232
 30
0.0
 70
0
  0
VERTEX
  8
0
 10
135.57057
 20
107.232
 30
0.0
 70
0
  0
VERTEX
  8
0
 10
135.57057
 20
110.13
 30
0.0
 70
0
  0
VERTEX
  8
0
 10
134.470526
 20
110.13
 30
0.0
 70
0
  0
VERTEX
  8
0
 10
134.470526
 20
115.719
 30
0.0
 70
0
  0
VERTEX
  8
0
 10
135.57057
 20
115.719
 30
0.0
 70
0
  0
VERTEX
  8
0
 10
135.57057
 20
118.618
 30
0.0
 70
0
  0
VERTEX
  8
0
 10
134.470526
 20
118.618
 30
0.0
 70
0
  0
VERTEX
  8
0
 10
134.470526
 20
119.768
 30
0.0
 70
0
  0
VERTEX
  8
0
 10
150.8866
 20
119.768
 30
0.0
 70
0
  0
VERTEX
  8
0
 10
150.8866
 20
118.668
 30
0.0
 70
0
  0
VERTEX
  8
0
 10
166.47539999999998
 20
118.668
 30
0.0
 70
0
  0
VERTEX
  8
0
 10
166.47539999999998
 20
119.768
 30
0.0
 70
0
  0
VERTEX
  8
0
 10
179.9752
 20
119.768
 30
0.0
 70
0
  0
VERTEX
  8
0
 10
179.9752
 20
106.082
 30
0.0
 70
0
  0
SEQEND
  8
0
  0
POLYLINE
  8
0
 62
0
 66
1
 10
0.0
 20
0.0
 30
0.0
 70
1
  0
VERTEX
  8
0
 10
171.3388
 20
114.491
 30
0.0
 70
0
  0
VERTEX
  8
0
 10
175.8342
 20
114.491
 30
0.0
 70
0
  0
VERTEX
  8
0
 10
175.8342
 20
111.359
 30
0.0
 70
0
  0
VERTEX
  8
0
 10
171.3388
 20
111.359
 30
0.0
 70
0
  0
VERTEX
  8
0
 10
171.3388
 20
114.491
 30
0.0
 70
0
  0
SEQEND
  8
0
  0
POLYLINE
  8
0
 62
0
 66
1
 10
0.0
 20
0.0
 30
0.0
 70
1
  0
VERTEX
  8
0
 10
155.08589999999998
 20
100.306
 30
0.0
 70
0
  0
VERTEX
  8
0
 10
155.08589999999998
 20
85.7403
 30
0.0
 70
0
  0
VERTEX
  8
0
 10
153.236
 20
85.7403
 30
0.0
 70
0
  0
VERTEX
  8
0
 10
153.236
 20
90.8974
 30
0.0
 70
0
  0
VERTEX
  8
0
 10
152.186
 20
90.8974
 30
0.0
 70
0
  0
VERTEX
  8
0
 10
152.186
 20
85.7403
 30
0.0
 70
0
  0
VERTEX
  8
0
 10
147.186
 20
85.7403
 30
0.0
 70
0
  0
VERTEX
  8
0
 10
147.186
 20
84.6404
 30
0.0
 70
0
  0
VERTEX
  8
0
 10
135.05413
 20
84.6404
 30
0.0
 70
0
  0
VERTEX
  8
0
 10
135.05413
 20
91.7364
 30
0.0
 70
0
  0
VERTEX
  8
0
 10
133.954143
 20
91.7364
 30
0.0
 70
0
  0
VERTEX
  8
0
 10
133.954143
 20
99.6351
 30
0.0
 70
0
  0
VERTEX
  8
0
 10
135.05413
 20
99.6351
 30
0.0
 70
0
  0
VERTEX
  8
0
 10
135.05413
 20
103.781
 30
0.0
 70
0
  0
VERTEX
  8
0
 10
152.186
 20
103.781
 30
0.0
 70
0
  0
VERTEX
  8
0
 10
152.186
 20
97.8718
 30
0.0
 70
0
  0
VERTEX
  8
0
 10
153.236
 20
97.8718
 30
0.0
 70
0
  0
VERTEX
  8
0
 10
153.236
 20
103.781
 30
0.0
 70
0
  0
VERTEX
  8
0
 10
169.2678
 20
103.781
 30
0.0
 70
0
  0
VERTEX
  8
0
 10
169.2678
 20
97.8718
 30
0.0
 70
0
  0
VERTEX
  8
0
 10
170.3178
 20
97.8718
 30
0.0
 70
0
  0
VERTEX
  8
0
 10
170.3178
 20
103.781
 30
0.0
 70
0
  0
VERTEX
  8
0
 10
202.1861
 20
103.781
 30
0.0
 70
0
  0
VERTEX
  8
0
 10
202.1861
 20
97.8218
 30
0.0
 70
0
  0
VERTEX
  8
0
 10
201.0861
 20
97.8218
 30
0.0
 70
0
  0
VERTEX
  8
0
 10
201.0861
 20
90.9472
 30
0.0
 70
0
  0
VERTEX
  8
0
 10
202.1861
 20
90.9472
 30
0.0
 70
0
  0
VERTEX
  8
0
 10
202.1861
 20
84.6404
 30
0.0
 70
0
  0
VERTEX
  8
0
 10
178.3178
 20
84.6404
 30
0.0
 70
0
  0
VERTEX
  8
0
 10
178.3178
 20
85.7403
 30
0.0
 70
0
  0
VERTEX
  8
0
 10
170.3178
 20
85.7403
 30
0.0
 70
0
  0
VERTEX
  8
0
 10
170.3178
 20
90.8974
 30
0.0
 70
0
  0
VERTEX
  8
0
 10
169.2678
 20
90.8974
 30
0.0
 70
0
  0
VERTEX
  8
0
 10
169.2678
 20
85.7403
 30
0.0
 70
0
  0
VERTEX
  8
0
 10
166.22809999999998
 20
85.7403
 30
0.0
 70
0
  0
VERTEX
  8
0
 10
166.22809999999998
 20
100.306
 30
0.0
 70
0
  0
VERTEX
  8
0
 10
155.08589999999998
 20
100.306
 30
0.0
 70
0
  0
SEQEND
  8
0
  0
POLYLINE
  8
0
 62
0
 66
1
 10
0.0
 20
0.0
 30
0.0
 70
1
  0
VERTEX
  8
0
 10
173.957
 20
93.3268
 30
0.0
 70
0
  0
VERTEX
  8
0
 10
176.6121
 20
93.3268
 30
0.0
 70
0
  0
VERTEX
  8
0
 10
176.6121
 20
98.7563
 30
0.0
 70
0
  0
VERTEX
  8
0
 10
176.6121
 20
98.8457
 30
0.0
 70
0
  0
VERTEX
  8
0
 10
176.5888
 20
99.1137
 30
0.0
 70
0
  0
VERTEX
  8
0
 10
176.5204
 20
99.4608
 30
0.0
 70
0
  0
VERTEX
  8
0
 10
176.4093
 20
99.7937
 30
0.0
 70
0
  0
VERTEX
  8
0
 10
176.2574
 20
100.109
 30
0.0
 70
0
  0
VERTEX
  8
0
 10
176.0667
 20
100.402
 30
0.0
 70
0
  0
VERTEX
  8
0
 10
175.8396
 20
100.669
 30
0.0
 70
0
  0
VERTEX
  8
0
 10
175.57819999999998
 20
100.908
 30
0.0
 70
0
  0
VERTEX
  8
0
 10
175.361
 20
101.066
 30
0.0
 70
0
  0
VERTEX
  8
0
 10
175.2846
 20
101.113
 30
0.0
 70
0
  0
VERTEX
  8
0
 10
175.2081
 20
101.066
 30
0.0
 70
0
  0
VERTEX
  8
0
 10
174.9909
 20
100.908
 30
0.0
 70
0
  0
VERTEX
  8
0
 10
174.7295
 20
100.669
 30
0.0
 70
0
  0
VERTEX
  8
0
 10
174.5024
 20
100.402
 30
0.0
 70
0
  0
VERTEX
  8
0
 10
174.3117
 20
100.109
 30
0.0
 70
0
  0
VERTEX
  8
0
 10
174.1597
 20
99.7937
 30
0.0
 70
0
  0
VERTEX
  8
0
 10
174.0485
 20
99.4608
 30
0.0
 70
0
  0
VERTEX
  8
0
 10
173.9803
 20
99.1137
 30
0.0
 70
0
  0
VERTEX
  8
0
 10
173.957
 20
98.8457
 30
0.0
 70
0
  0
VERTEX
  8
0
 10
173.957
 20
98.7563
 30
0.0
 70
0
  0
VERTEX
  8
0
 10
173.957
 20
93.3268
 30
0.0
 70
0
  0
SEQEND
  8
0
  0
POLYLINE
  8
0
 62
0
 66
1
 10
0.0
 20
0.0
 30
0.0
 70
1
  0
VERTEX
  8
0
 10
141.22969
 20
93.3268
 30
0.0
 70
0
  0
VERTEX
  8
0
 10
143.8847
 20
93.3268
 30
0.0
 70
0
  0
VERTEX
  8
0
 10
143.8847
 20
98.7563
 30
0.0
 70
0
  0
VERTEX
  8
0
 10
143.8847
 20
98.8457
 30
0.0
 70
0
  0
VERTEX
  8
0
 10
143.8615
 20
99.1137
 30
0.0
 70
0
  0
VERTEX
  8
0
 10
143.79319999999998
 20
99.4608
 30
0.0
 70
0
  0
VERTEX
  8
0
 10
143.682
 20
99.7937
 30
0.0
 70
0
  0
VERTEX
  8
0
 10
143.52999
 20
100.109
 30
0.0
 70
0
  0
VERTEX
  8
0
 10
143.33939999999998
 20
100.402
 30
0.0
 70
0
  0
VERTEX
  8
0
 10
143.11229
 20
100.669
 30
0.0
 70
0
  0
VERTEX
  8
0
 10
142.85085
 20
100.908
 30
0.0
 70
0
  0
VERTEX
  8
0
 10
142.63361
 20
101.066
 30
0.0
 70
0
  0
VERTEX
  8
0
 10
142.55722
 20
101.113
 30
0.0
 70
0
  0
VERTEX
  8
0
 10
142.48077999999998
 20
101.066
 30
0.0
 70
0
  0
VERTEX
  8
0
 10
142.26355999999998
 20
100.908
 30
0.0
 70
0
  0
VERTEX
  8
0
 10
142.00209999999998
 20
100.669
 30
0.0
 70
0
  0
VERTEX
  8
0
 10
141.775
 20
100.402
 30
0.0
 70
0
  0
VERTEX
  8
0
 10
141.58435
 20
100.109
 30
0.0
 70
0
  0
VERTEX
  8
0
 10
141.43239
 20
99.7937
 30
0.0
 70
0
  0
VERTEX
  8
0
 10
141.32121999999998
 20
99.4608
 30
0.0
 70
0
  0
VERTEX
  8
0
 10
141.25292
 20
99.1137
 30
0.0
 70
0
  0
VERTEX
  8
0
 10
141.22969
 20
98.8457
 30
0.0
 70
0
  0
VERTEX
  8
0
 10
141.22969
 20
98.7563
 30
0.0
 70
0
  0
VERTEX
  8
0
 10
141.22969
 20
93.3268
 30
0.0
 70
0
  0
SEQEND
  8
0
  0
POLYLINE
  8
0
 62
0
 66
1
 10
0.0
 20
0.0
 30
0.0
 70
1
  0
VERTEX
  8
0
 10
209.9128
 20
82.7896
 30
0.0
 70
0
  0
VERTEX
  8
0
 10
225.8404
 20
96.8368
 30
0.0
 70
0
  0
VERTEX
  8
0
 10
225.8404
 20
66.0392
 30
0.0
 70
0
  0
VERTEX
  8
0
 10
203.777
 20
66.0392
 30
0.0
 70
0
  0
VERTEX
  8
0
 10
203.777
 20
81.3529
 30
0.0
 70
0
  0
VERTEX
  8
0
 10
205.9164
 20
81.3529
 30
0.0
 70
0
  0
VERTEX
  8
0
 10
205.9164
 20
82.4029
 30
0.0
 70
0
  0
VERTEX
  8
0
 10
203.777
 20
82.4029
 30
0.0
 70
0
  0
VERTEX
  8
0
 10
203.777
 20
114.271
 30
0.0
 70
0
  0
VERTEX
  8
0
 10
205.9164
 20
114.271
 30
0.0
 70
0
  0
VERTEX
  8
0
 10
205.9164
 20
115.321
 30
0.0
 70
0
  0
VERTEX
  8
0
 10
203.777
 20
115.321
 30
0.0
 70
0
  0
VERTEX
  8
0
 10
203.777
 20
130.635
 30
0.0
 70
0
  0
VERTEX
  8
0
 10
225.8404
 20
130.635
 30
0.0
 70
0
  0
VERTEX
  8
0
 10
225.8404
 20
99.8374
 30
0.0
 70
0
  0
VERTEX
  8
0
 10
209.9128
 20
113.884
 30
0.0
 70
0
  0
VERTEX
  8
0
 10
209.1741
 20
113.047
 30
0.0
 70
0
  0
VERTEX
  8
0
 10
225.85320000000002
 20
98.3371
 30
0.0
 70
0
  0
VERTEX
  8
0
 10
209.1741
 20
83.6271
 30
0.0
 70
0
  0
VERTEX
  8
0
 10
209.9128
 20
82.7896
 30
0.0
 70
0
  0
SEQEND
  8
0
  0
POLYLINE
  8
0
 62
0
 66
1
 10
0.0
 20
0.0
 30
0.0
 70
1
  0
VERTEX
  8
0
 10
234.17399999999998
 20
97.6733
 30
0.0
 70
0
  0
VERTEX
  8
0
 10
229.01670000000001
 20
97.6733
 30
0.0
 70
0
  0
VERTEX
  8
0
 10
229.01670000000001
 20
105.673
 30
0.0
 70
0
  0
VERTEX
  8
0
 10
227.9167
 20
105.673
 30
0.0
 70
0
  0
VERTEX
  8
0
 10
227.9167
 20
129.542
 30
0.0
 70
0
  0
VERTEX
  8
0
 10
234.224
 20
129.542
 30
0.0
 70
0
  0
VERTEX
  8
0
 10
234.224
 20
128.442
 30
0.0
 70
0
  0
VERTEX
  8
0
 10
241.098
 20
128.442
 30
0.0
 70
0
  0
VERTEX
  8
0
 10
241.098
 20
129.542
 30
0.0
 70
0
  0
VERTEX
  8
0
 10
247.058
 20
129.542
 30
0.0
 70
0
  0
VERTEX
  8
0
 10
247.058
 20
97.6733
 30
0.0
 70
0
  0
VERTEX
  8
0
 10
241.148
 20
97.6733
 30
0.0
 70
0
  0
VERTEX
  8
0
 10
241.148
 20
96.6233
 30
0.0
 70
0
  0
VERTEX
  8
0
 10
247.058
 20
96.6233
 30
0.0
 70
0
  0
VERTEX
  8
0
 10
247.058
 20
80.5915
 30
0.0
 70
0
  0
VERTEX
  8
0
 10
241.148
 20
80.5915
 30
0.0
 70
0
  0
VERTEX
  8
0
 10
241.148
 20
79.5415
 30
0.0
 70
0
  0
VERTEX
  8
0
 10
247.058
 20
79.5415
 30
0.0
 70
0
  0
VERTEX
  8
0
 10
247.058
 20
62.4097
 30
0.0
 70
0
  0
VERTEX
  8
0
 10
242.91199999999998
 20
62.4097
 30
0.0
 70
0
  0
VERTEX
  8
0
 10
242.91199999999998
 20
61.3097
 30
0.0
 70
0
  0
VERTEX
  8
0
 10
235.01299999999998
 20
61.3097
 30
0.0
 70
0
  0
VERTEX
  8
0
 10
235.01299999999998
 20
62.4097
 30
0.0
 70
0
  0
VERTEX
  8
0
 10
227.9167
 20
62.4097
 30
0.0
 70
0
  0
VERTEX
  8
0
 10
227.9167
 20
74.5415
 30
0.0
 70
0
  0
VERTEX
  8
0
 10
229.01670000000001
 20
74.5415
 30
0.0
 70
0
  0
VERTEX
  8
0
 10
229.01670000000001
 20
79.5415
 30
0.0
 70
0
  0
VERTEX
  8
0
 10
234.17399999999998
 20
79.5415
 30
0.0
 70
0
  0
VERTEX
  8
0
 10
234.17399999999998
 20
80.5915
 30
0.0
 70
0
  0
VERTEX
  8
0
 10
229.01670000000001
 20
80.5915
 30
0.0
 70
0
  0
VERTEX
  8
0
 10
229.01670000000001
 20
82.4415
 30
0.0
 70
0
  0
VERTEX
  8
0
 10
243.582
 20
82.4415
 30
0.0
 70
0
  0
VERTEX
  8
0
 10
243.582
 20
93.5836
 30
0.0
 70
0
  0
VERTEX
  8
0
 10
229.01670000000001
 20
93.5836
 30
0.0
 70
0
  0
VERTEX
  8
0
 10
229.01670000000001
 20
96.6233
 30
0.0
 70
0
  0
VERTEX
  8
0
 10
234.17399999999998
 20
96.6233
 30
0.0
 70
0
  0
VERTEX
  8
0
 10
234.17399999999998
 20
97.6733
 30
0.0
 70
0
  0
SEQEND
  8
0
  0
POLYLINE
  8
0
 62
0
 66
1
 10
0.0
 20
0.0
 30
0.0
 70
1
  0
VERTEX
  8
0
 10
236.603
 20
123.131
 30
0.0
 70
0
  0
VERTEX
  8
0
 10
236.603
 20
125.786
 30
0.0
 70
0
  0
VERTEX
  8
0
 10
242.03300000000002
 20
125.786
 30
0.0
 70
0
  0
VERTEX
  8
0
 10
242.122
 20
125.786
 30
0.0
 70
0
  0
VERTEX
  8
0
 10
242.39
 20
125.763
 30
0.0
 70
0
  0
VERTEX
  8
0
 10
242.737
 20
125.694
 30
0.0
 70
0
  0
VERTEX
  8
0
 10
243.07
 20
125.583
 30
0.0
 70
0
  0
VERTEX
  8
0
 10
243.385
 20
125.431
 30
0.0
 70
0
  0
VERTEX
  8
0
 10
243.678
 20
125.241
 30
0.0
 70
0
  0
VERTEX
  8
0
 10
243.946
 20
125.013
 30
0.0
 70
0
  0
VERTEX
  8
0
 10
244.184
 20
124.752
 30
0.0
 70
0
  0
VERTEX
  8
0
 10
244.343
 20
124.535
 30
0.0
 70
0
  0
VERTEX
  8
0
 10
244.389
 20
124.458
 30
0.0
 70
0
  0
VERTEX
  8
0
 10
244.343
 20
124.382
 30
0.0
 70
0
  0
VERTEX
  8
0
 10
244.184
 20
124.165
 30
0.0
 70
0
  0
VERTEX
  8
0
 10
243.946
 20
123.903
 30
0.0
 70
0
  0
VERTEX
  8
0
 10
243.678
 20
123.676
 30
0.0
 70
0
  0
VERTEX
  8
0
 10
243.385
 20
123.486
 30
0.0
 70
0
  0
VERTEX
  8
0
 10
243.07
 20
123.334
 30
0.0
 70
0
  0
VERTEX
  8
0
 10
242.737
 20
123.222
 30
0.0
 70
0
  0
VERTEX
  8
0
 10
242.39
 20
123.154
 30
0.0
 70
0
  0
VERTEX
  8
0
 10
242.122
 20
123.131
 30
0.0
 70
0
  0
VERTEX
  8
0
 10
242.03300000000002
 20
123.131
 30
0.0
 70
0
  0
VERTEX
  8
0
 10
236.603
 20
123.131
 30
0.0
 70
0
  0
SEQEND
  8
0
  0
POLYLINE
  8
0
 62
0
 66
1
 10
0.0
 20
0.0
 30
0.0
 70
1
  0
VERTEX
  8
0
 10
236.603
 20
101.313
 30
0.0
 70
0
  0
VERTEX
  8
0
 10
236.603
 20
103.968
 30
0.0
 70
0
  0
VERTEX
  8
0
 10
242.03300000000002
 20
103.968
 30
0.0
 70
0
  0
VERTEX
  8
0
 10
242.122
 20
103.968
 30
0.0
 70
0
  0
VERTEX
  8
0
 10
242.39
 20
103.944
 30
0.0
 70
0
  0
VERTEX
  8
0
 10
242.737
 20
103.876
 30
0.0
 70
0
  0
VERTEX
  8
0
 10
243.07
 20
103.765
 30
0.0
 70
0
  0
VERTEX
  8
0
 10
243.385
 20
103.613
 30
0.0
 70
0
  0
VERTEX
  8
0
 10
243.678
 20
103.422
 30
0.0
 70
0
  0
VERTEX
  8
0
 10
243.946
 20
103.195
 30
0.0
 70
0
  0
VERTEX
  8
0
 10
244.184
 20
102.934
 30
0.0
 70
0
  0
VERTEX
  8
0
 10
244.343
 20
102.717
 30
0.0
 70
0
  0
VERTEX
  8
0
 10
244.389
 20
102.64
 30
0.0
 70
0
  0
VERTEX
  8
0
 10
244.343
 20
102.564
 30
0.0
 70
0
  0
VERTEX
  8
0
 10
244.184
 20
102.347
 30
0.0
 70
0
  0
VERTEX
  8
0
 10
243.946
 20
102.085
 30
0.0
 70
0
  0
VERTEX
  8
0
 10
243.678
 20
101.858
 30
0.0
 70
0
  0
VERTEX
  8
0
 10
243.385
 20
101.667
 30
0.0
 70
0
  0
VERTEX
  8
0
 10
243.07
 20
101.515
 30
0.0
 70
0
  0
VERTEX
  8
0
 10
242.737
 20
101.404
 30
0.0
 70
0
  0
VERTEX
  8
0
 10
242.39
 20
101.336
 30
0.0
 70
0
  0
VERTEX
  8
0
 10
242.122
 20
101.313
 30
0.0
 70
0
  0
VERTEX
  8
0
 10
242.03300000000002
 20
101.313
 30
0.0
 70
0
  0
VERTEX
  8
0
 10
236.603
 20
101.313
 30
0.0
 70
0
  0
SEQEND
  8
0
  0
POLYLINE
  8
0
 62
0
 66
1
 10
0.0
 20
0.0
 30
0.0
 70
1
  0
VERTEX
  8
0
 10
236.603
 20
112.222
 30
0.0
 70
0
  0
VERTEX
  8
0
 10
236.603
 20
114.877
 30
0.0
 70
0
  0
VERTEX
  8
0
 10
242.03300000000002
 20
114.877
 30
0.0
 70
0
  0
VERTEX
  8
0
 10
242.122
 20
114.877
 30
0.0
 70
0
  0
VERTEX
  8
0
 10
242.39
 20
114.853
 30
0.0
 70
0
  0
VERTEX
  8
0
 10
242.737
 20
114.785
 30
0.0
 70
0
  0
VERTEX
  8
0
 10
243.07
 20
114.674
 30
0.0
 70
0
  0
VERTEX
  8
0
 10
243.385
 20
114.522
 30
0.0
 70
0
  0
VERTEX
  8
0
 10
243.678
 20
114.331
 30
0.0
 70
0
  0
VERTEX
  8
0
 10
243.946
 20
114.104
 30
0.0
 70
0
  0
VERTEX
  8
0
 10
244.184
 20
113.843
 30
0.0
 70
0
  0
VERTEX
  8
0
 10
244.343
 20
113.626
 30
0.0
 70
0
  0
VERTEX
  8
0
 10
244.389
 20
113.549
 30
0.0
 70
0
  0
VERTEX
  8
0
 10
244.343
 20
113.473
 30
0.0
 70
0
  0
VERTEX
  8
0
 10
244.184
 20
113.256
 30
0.0
 70
0
  0
VERTEX
  8
0
 10
243.946
 20
112.994
 30
0.0
 70
0
  0
VERTEX
  8
0
 10
243.678
 20
112.767
 30
0.0
 70
0
  0
VERTEX
  8
0
 10
243.385
 20
112.576
 30
0.0
 70
0
  0
VERTEX
  8
0
 10
243.07
 20
112.424
 30
0.0
 70
0
  0
VERTEX
  8
0
 10
242.737
 20
112.313
 30
0.0
 70
0
  0
VERTEX
  8
0
 10
242.39
 20
112.245
 30
0.0
 70
0
  0
VERTEX
  8
0
 10
242.122
 20
112.222
 30
0.0
 70
0
  0
VERTEX
  8
0
 10
242.03300000000002
 20
112.222
 30
0.0
 70
0
  0
VERTEX
  8
0
 10
236.603
 20
112.222
 30
0.0
 70
0
  0
SEQEND
  8
0
  0
POLYLINE
  8
0
 62
0
 66
1
 10
0.0
 20
0.0
 30
0.0
 70
1
  0
VERTEX
  8
0
 10
236.603
 20
68.5853
 30
0.0
 70
0
  0
VERTEX
  8
0
 10
236.603
 20
71.2403
 30
0.0
 70
0
  0
VERTEX
  8
0
 10
242.03300000000002
 20
71.2403
 30
0.0
 70
0
  0
VERTEX
  8
0
 10
242.122
 20
71.2403
 30
0.0
 70
0
  0
VERTEX
  8
0
 10
242.39
 20
71.2171
 30
0.0
 70
0
  0
VERTEX
  8
0
 10
242.737
 20
71.1487
 30
0.0
 70
0
  0
VERTEX
  8
0
 10
243.07
 20
71.0376
 30
0.0
 70
0
  0
VERTEX
  8
0
 10
243.385
 20
70.8857
 30
0.0
 70
0
  0
VERTEX
  8
0
 10
243.678
 20
70.695
 30
0.0
 70
0
  0
VERTEX
  8
0
 10
243.946
 20
70.4679
 30
0.0
 70
0
  0
VERTEX
  8
0
 10
244.184
 20
70.2064
 30
0.0
 70
0
  0
VERTEX
  8
0
 10
244.343
 20
69.9892
 30
0.0
 70
0
  0
VERTEX
  8
0
 10
244.389
 20
69.9128
 30
0.0
 70
0
  0
VERTEX
  8
0
 10
244.343
 20
69.8364
 30
0.0
 70
0
  0
VERTEX
  8
0
 10
244.184
 20
69.6192
 30
0.0
 70
0
  0
VERTEX
  8
0
 10
243.946
 20
69.3576
 30
0.0
 70
0
  0
VERTEX
  8
0
 10
243.678
 20
69.1306
 30
0.0
 70
0
  0
VERTEX
  8
0
 10
243.385
 20
68.94
 30
0.0
 70
0
  0
VERTEX
  8
0
 10
243.07
 20
68.7879
 30
0.0
 70
0
  0
VERTEX
  8
0
 10
242.737
 20
68.6768
 30
0.0
 70
0
  0
VERTEX
  8
0
 10
242.39
 20
68.6085
 30
0.0
 70
0
  0
VERTEX
  8
0
 10
242.122
 20
68.5853
 30
0.0
 70
0
  0
VERTEX
  8
0
 10
242.03300000000002
 20
68.5853
 30
0.0
 70
0
  0
VERTEX
  8
0
 10
236.603
 20
68.5853
 30
0.0
 70
0
  0
SEQEND
  8
0
  0
POLYLINE
  8
0
 62
0
 66
1
 10
0.0
 20
0.0
 30
0.0
 70
1
  0
VERTEX
  8
0
 10
171.9795
 20
82.8364
 30
0.0
 70
0
  0
VERTEX
  8
0
 10
202.777
 20
82.8364
 30
0.0
 70
0
  0
VERTEX
  8
0
 10
202.777
 20
60.7731
 30
0.0
 70
0
  0
VERTEX
  8
0
 10
187.46339999999998
 20
60.7731
 30
0.0
 70
0
  0
VERTEX
  8
0
 10
187.46339999999998
 20
62.9124
 30
0.0
 70
0
  0
VERTEX
  8
0
 10
186.4134
 20
62.9124
 30
0.0
 70
0
  0
VERTEX
  8
0
 10
186.4134
 20
60.7731
 30
0.0
 70
0
  0
VERTEX
  8
0
 10
154.5452
 20
60.7731
 30
0.0
 70
0
  0
VERTEX
  8
0
 10
154.5452
 20
62.9124
 30
0.0
 70
0
  0
VERTEX
  8
0
 10
153.4952
 20
62.9124
 30
0.0
 70
0
  0
VERTEX
  8
0
 10
153.4952
 20
60.7731
 30
0.0
 70
0
  0
VERTEX
  8
0
 10
138.18146
 20
60.7731
 30
0.0
 70
0
  0
VERTEX
  8
0
 10
138.18146
 20
82.8364
 30
0.0
 70
0
  0
VERTEX
  8
0
 10
168.9791
 20
82.8364
 30
0.0
 70
0
  0
VERTEX
  8
0
 10
154.9318
 20
66.9088
 30
0.0
 70
0
  0
VERTEX
  8
0
 10
155.7693
 20
66.1701
 30
0.0
 70
0
  0
VERTEX
  8
0
 10
170.4792
 20
82.8492
 30
0.0
 70
0
  0
VERTEX
  8
0
 10
185.1892
 20
66.1701
 30
0.0
 70
0
  0
VERTEX
  8
0
 10
186.0267
 20
66.9088
 30
0.0
 70
0
  0
VERTEX
  8
0
 10
171.9795
 20
82.8364
 30
0.0
 70
0
  0
SEQEND
  8
0
  0
POLYLINE
  8
0
 62
0
 66
1
 10
0.0
 20
0.0
 30
0.0
 70
1
  0
VERTEX
  8
0
 10
232.9786
 20
144.237
 30
0.0
 70
0
  0
VERTEX
  8
0
 10
231.8786
 20
144.237
 30
0.0
 70
0
  0
VERTEX
  8
0
 10
231.8786
 20
159.926
 30
0.0
 70
0
  0
VERTEX
  8
0
 10
232.9786
 20
159.926
 30
0.0
 70
0
  0
VERTEX
  8
0
 10
232.9786
 20
176.292
 30
0.0
 70
0
  0
VERTEX
  8
0
 10
236.29500000000002
 20
176.292
 30
0.0
 70
0
  0
VERTEX
  8
0
 10
236.29500000000002
 20
157.201
 30
0.0
 70
0
  0
VERTEX
  8
0
 10
237.345
 20
157.201
 30
0.0
 70
0
  0
VERTEX
  8
0
 10
237.345
 20
176.292
 30
0.0
 70
0
  0
VERTEX
  8
0
 10
244.46499999999997
 20
176.292
 30
0.0
 70
0
  0
VERTEX
  8
0
 10
244.46499999999997
 20
159.926
 30
0.0
 70
0
  0
VERTEX
  8
0
 10
245.565
 20
159.926
 30
0.0
 70
0
  0
VERTEX
  8
0
 10
245.565
 20
144.237
 30
0.0
 70
0
  0
VERTEX
  8
0
 10
244.46499999999997
 20
144.237
 30
0.0
 70
0
  0
VERTEX
  8
0
 10
244.46499999999997
 20
130.787
 30
0.0
 70
0
  0
VERTEX
  8
0
 10
232.9786
 20
130.787
 30
0.0
 70
0
  0
VERTEX
  8
0
 10
232.9786
 20
144.237
 30
0.0
 70
0
  0
SEQEND
  8
0
  0
POLYLINE
  8
0
 62
0
 66
1
 10
0.0
 20
0.0
 30
0.0
 70
1
  0
VERTEX
  8
0
 10
237.156
 20
139.424
 30
0.0
 70
0
  0
VERTEX
  8
0
 10
240.288
 20
139.424
 30
0.0
 70
0
  0
VERTEX
  8
0
 10
240.288
 20
134.928
 30
0.0
 70
0
  0
VERTEX
  8
0
 10
237.156
 20
134.928
 30
0.0
 70
0
  0
VERTEX
  8
0
 10
237.156
 20
139.424
 30
0.0
 70
0
  0
SEQEND
  8
0
  0
POLYLINE
  8
0
 62
0
 66
1
 10
0.0
 20
0.0
 30
0.0
 70
1
  0
VERTEX
  8
0
 10
172.6863
 20
38.7961
 30
0.0
 70
0
  0
VERTEX
  8
0
 10
171.6417
 20
39.191
 30
0.0
 70
0
  0
VERTEX
  8
0
 10
169.2798
 20
32.9413
 30
0.0
 70
0
  0
VERTEX
  8
0
 10
133.636
 20
32.9413
 30
0.0
 70
0
  0
VERTEX
  8
0
 10
133.636
 20
59.7731
 30
0.0
 70
0
  0
VERTEX
  8
0
 10
161.1496
 20
59.7731
 30
0.0
 70
0
  0
VERTEX
  8
0
 10
161.1496
 20
51.9446
 30
0.0
 70
0
  0
VERTEX
  8
0
 10
162.19979999999998
 20
51.9446
 30
0.0
 70
0
  0
VERTEX
  8
0
 10
162.19979999999998
 20
59.7731
 30
0.0
 70
0
  0
VERTEX
  8
0
 10
194.1498
 20
59.7731
 30
0.0
 70
0
  0
VERTEX
  8
0
 10
194.1498
 20
51.9446
 30
0.0
 70
0
  0
VERTEX
  8
0
 10
195.1997
 20
51.9446
 30
0.0
 70
0
  0
VERTEX
  8
0
 10
195.1997
 20
59.7731
 30
0.0
 70
0
  0
VERTEX
  8
0
 10
211.0011
 20
59.7731
 30
0.0
 70
0
  0
VERTEX
  8
0
 10
211.0011
 20
32.9413
 30
0.0
 70
0
  0
VERTEX
  8
0
 10
191.1516
 20
32.9413
 30
0.0
 70
0
  0
VERTEX
  8
0
 10
188.7895
 20
39.191
 30
0.0
 70
0
  0
VERTEX
  8
0
 10
187.7449
 20
38.7961
 30
0.0
 70
0
  0
VERTEX
  8
0
 10
189.9577
 20
32.9413
 30
0.0
 70
0
  0
VERTEX
  8
0
 10
170.4735
 20
32.9413
 30
0.0
 70
0
  0
VERTEX
  8
0
 10
172.6863
 20
38.7961
 30
0.0
 70
0
  0
SEQEND
  8
0
  0
POLYLINE
  8
0
 62
0
 66
1
 10
0.0
 20
0.0
 30
0.0
 70
1
  0
VERTEX
  8
0
 10
246.06900000000002
 20
60.3097
 30
0.0
 70
0
  0
VERTEX
  8
0
 10
246.06900000000002
 20
53.1638
 30
0.0
 70
0
  0
VERTEX
  8
0
 10
244.969
 20
53.1638
 30
0.0
 70
0
  0
VERTEX
  8
0
 10
244.969
 20
45.3649
 30
0.0
 70
0
  0
VERTEX
  8
0
 10
246.06900000000002
 20
45.3649
 30
0.0
 70
0
  0
VERTEX
  8
0
 10
246.06900000000002
 20
41.1833
 30
0.0
 70
0
  0
VERTEX
  8
0
 10
229.0353
 20
24.1493
 30
0.0
 70
0
  0
VERTEX
  8
0
 10
212.0011
 20
41.1833
 30
0.0
 70
0
  0
VERTEX
  8
0
 10
212.0011
 20
45.3649
 30
0.0
 70
0
  0
VERTEX
  8
0
 10
213.09429999999998
 20
45.3649
 30
0.0
 70
0
  0
VERTEX
  8
0
 10
213.09429999999998
 20
53.1638
 30
0.0
 70
0
  0
VERTEX
  8
0
 10
212.0011
 20
53.1638
 30
0.0
 70
0
  0
VERTEX
  8
0
 10
212.0011
 20
60.3097
 30
0.0
 70
0
  0
VERTEX
  8
0
 10
246.06900000000002
 20
60.3097
 30
0.0
 70
0
  0
SEQEND
  8
0
  0
POLYLINE
  8
0
 62
0
 66
1
 10
0.0
 20
0.0
 30
0.0
 70
1
  0
VERTEX
  8
0
 10
231.2806
 20
34.496
 30
0.0
 70
0
  0
VERTEX
  8
0
 10
231.2806
 20
34.4386
 30
0.0
 70
0
  0
VERTEX
  8
0
 10
231.26909999999998
 20
34.2664
 30
0.0
 70
0
  0
VERTEX
  8
0
 10
231.235
 20
34.0435
 30
0.0
 70
0
  0
VERTEX
  8
0
 10
231.1796
 20
33.8283
 30
0.0
 70
0
  0
VERTEX
  8
0
 10
231.1042
 20
33.6221
 30
0.0
 70
0
  0
VERTEX
  8
0
 10
231.00959999999998
 20
33.4257
 30
0.0
 70
0
  0
VERTEX
  8
0
 10
230.8971
 20
33.2406
 30
0.0
 70
0
  0
VERTEX
  8
0
 10
230.7679
 20
33.0678
 30
0.0
 70
0
  0
VERTEX
  8
0
 10
230.62290000000002
 20
32.9083
 30
0.0
 70
0
  0
VERTEX
  8
0
 10
230.4635
 20
32.7633
 30
0.0
 70
0
  0
VERTEX
  8
0
 10
230.29070000000002
 20
32.6342
 30
0.0
 70
0
  0
VERTEX
  8
0
 10
230.10559999999998
 20
32.5217
 30
0.0
 70
0
  0
VERTEX
  8
0
 10
229.9093
 20
32.4271
 30
0.0
 70
0
  0
VERTEX
  8
0
 10
229.7029
 20
32.3517
 30
0.0
 70
0
  0
VERTEX
  8
0
 10
229.4878
 20
32.2963
 30
0.0
 70
0
  0
VERTEX
  8
0
 10
229.2649
 20
32.2622
 30
0.0
 70
0
  0
VERTEX
  8
0
 10
229.09269999999998
 20
32.2507
 30
0.0
 70
0
  0
VERTEX
  8
0
 10
229.0353
 20
32.2507
 30
0.0
 70
0
  0
VERTEX
  8
0
 10
228.97789999999998
 20
32.2507
 30
0.0
 70
0
  0
VERTEX
  8
0
 10
228.8057
 20
32.2622
 30
0.0
 70
0
  0
VERTEX
  8
0
 10
228.5828
 20
32.2963
 30
0.0
 70
0
  0
VERTEX
  8
0
 10
228.3677
 20
32.3517
 30
0.0
 70
0
  0
VERTEX
  8
0
 10
228.16129999999998
 20
32.4271
 30
0.0
 70
0
  0
VERTEX
  8
0
 10
227.96499999999997
 20
32.5217
 30
0.0
 70
0
  0
VERTEX
  8
0
 10
227.7799
 20
32.6342
 30
0.0
 70
0
  0
VERTEX
  8
0
 10
227.6071
 20
32.7633
 30
0.0
 70
0
  0
VERTEX
  8
0
 10
227.4477
 20
32.9083
 30
0.0
 70
0
  0
VERTEX
  8
0
 10
227.30270000000002
 20
33.0678
 30
0.0
 70
0
  0
VERTEX
  8
0
 10
227.1735
 20
33.2406
 30
0.0
 70
0
  0
VERTEX
  8
0
 10
227.06099999999998
 20
33.4257
 30
0.0
 70
0
  0
VERTEX
  8
0
 10
226.9664
 20
33.6221
 30
0.0
 70
0
  0
VERTEX
  8
0
 10
226.891
 20
33.8283
 30
0.0
 70
0
  0
VERTEX
  8
0
 10
226.8356
 20
34.0435
 30
0.0
 70
0
  0
VERTEX
  8
0
 10
226.8016
 20
34.2664
 30
0.0
 70
0
  0
VERTEX
  8
0
 10
226.79
 20
34.4386
 30
0.0
 70
0
  0
VERTEX
  8
0
 10
226.79
 20
34.496
 30
0.0
 70
0
  0
VERTEX
  8
0
 10
226.79
 20
34.5533
 30
0.0
 70
0
  0
VERTEX
  8
0
 10
226.8016
 20
34.7256
 30
0.0
 70
0
  0
VERTEX
  8
0
 10
226.8356
 20
34.9485
 30
0.0
 70
0
  0
VERTEX
  8
0
 10
226.891
 20
35.1638
 30
0.0
 70
0
  0
VERTEX
  8
0
 10
226.9664
 20
35.37
 30
0.0
 70
0
  0
VERTEX
  8
0
 10
227.06099999999998
 20
35.5663
 30
0.0
 70
0
  0
VERTEX
  8
0
 10
227.1735
 20
35.7514
 30
0.0
 70
0
  0
VERTEX
  8
0
 10
227.30270000000002
 20
35.9243
 30
0.0
 70
0
  0
VERTEX
  8
0
 10
227.4477
 20
36.0838
 30
0.0
 70
0
  0
VERTEX
  8
0
 10
227.6071
 20
36.2286
 30
0.0
 70
0
  0
VERTEX
  8
0
 10
227.7799
 20
36.3579
 30
0.0
 70
0
  0
VERTEX
  8
0
 10
227.96499999999997
 20
36.4703
 30
0.0
 70
0
  0
VERTEX
  8
0
 10
228.16129999999998
 20
36.5649
 30
0.0
 70
0
  0
VERTEX
  8
0
 10
228.3677
 20
36.6404
 30
0.0
 70
0
  0
VERTEX
  8
0
 10
228.5828
 20
36.6957
 30
0.0
 70
0
  0
VERTEX
  8
0
 10
228.8057
 20
36.7297
 30
0.0
 70
0
  0
VERTEX
  8
0
 10
228.97789999999998
 20
36.7414
 30
0.0
 70
0
  0
VERTEX
  8
0
 10
229.0353
 20
36.7414
 30
0.0
 70
0
  0
VERTEX
  8
0
 10
229.09269999999998
 20
36.7414
 30
0.0
 70
0
  0
VERTEX
  8
0
 10
229.2649
 20
36.7297
 30
0.0
 70
0
  0
VERTEX
  8
0
 10
229.4878
 20
36.6957
 30
0.0
 70
0
  0
VERTEX
  8
0
 10
229.7029
 20
36.6404
 30
0.0
 70
0
  0
VERTEX
  8
0
 10
229.9093
 20
36.5649
 30
0.0
 70
0
  0
VERTEX
  8
0
 10
230.10559999999998
 20
36.4703
 30
0.0
 70
0
  0
VERTEX
  8
0
 10
230.29070000000002
 20
36.3579
 30
0.0
 70
0
  0
VERTEX
  8
0
 10
230.4635
 20
36.2286
 30
0.0
 70
0
  0
VERTEX
  8
0
 10
230.62290000000002
 20
36.0838
 30
0.0
 70
0
  0
VERTEX
  8
0
 10
230.7679
 20
35.9243
 30
0.0
 70
0
  0
VERTEX
  8
0
 10
230.8971
 20
35.7514
 30
0.0
 70
0
  0
VERTEX
  8
0
 10
231.00959999999998
 20
35.5663
 30
0.0
 70
0
  0
VERTEX
  8
0
 10
231.1042
 20
35.37
 30
0.0
 70
0
  0
VERTEX
  8
0
 10
231.1796
 20
35.1638
 30
0.0
 70
0
  0
VERTEX
  8
0
 10
231.235
 20
34.9485
 30
0.0
 70
0
  0
VERTEX
  8
0
 10
231.26909999999998
 20
34.7256
 30
0.0
 70
0
  0
VERTEX
  8
0
 10
231.2806
 20
34.5533
 30
0.0
 70
0
  0
VERTEX
  8
0
 10
231.2806
 20
34.496
 30
0.0
 70
0
  0
SEQEND
  8
0
  0
POLYLINE
  8
0
 62
0
 66
1
 10
0.0
 20
0.0
 30
0.0
 70
1
  0
VERTEX
  8
0
 10
218.555
 20
46.2572
 30
0.0
 70
0
  0
VERTEX
  8
0
 10
220.7778
 20
46.2572
 30
0.0
 70
0
  0
VERTEX
  8
0
 10
220.7778
 20
41.7547
 30
0.0
 70
0
  0
VERTEX
  8
0
 10
220.7778
 20
41.6525
 30
0.0
 70
0
  0
VERTEX
  8
0
 10
220.7593
 20
41.3458
 30
0.0
 70
0
  0
VERTEX
  8
0
 10
220.7049
 20
40.9428
 30
0.0
 70
0
  0
VERTEX
  8
0
 10
220.61520000000002
 20
40.5476
 30
0.0
 70
0
  0
VERTEX
  8
0
 10
220.4909
 20
40.1628
 30
0.0
 70
0
  0
VERTEX
  8
0
 10
220.3331
 20
39.7904
 30
0.0
 70
0
  0
VERTEX
  8
0
 10
220.1424
 20
39.4328
 30
0.0
 70
0
  0
VERTEX
  8
0
 10
219.91989999999998
 20
39.0922
 30
0.0
 70
0
  0
VERTEX
  8
0
 10
219.7332
 20
38.8483
 30
0.0
 70
0
  0
VERTEX
  8
0
 10
219.6664
 20
38.7711
 30
0.0
 70
0
  0
VERTEX
  8
0
 10
219.59949999999998
 20
38.8483
 30
0.0
 70
0
  0
VERTEX
  8
0
 10
219.4128
 20
39.0922
 30
0.0
 70
0
  0
VERTEX
  8
0
 10
219.19029999999998
 20
39.4328
 30
0.0
 70
0
  0
VERTEX
  8
0
 10
218.9996
 20
39.7904
 30
0.0
 70
0
  0
VERTEX
  8
0
 10
218.84179999999998
 20
40.1628
 30
0.0
 70
0
  0
VERTEX
  8
0
 10
218.71769999999998
 20
40.5476
 30
0.0
 70
0
  0
VERTEX
  8
0
 10
218.62779999999998
 20
40.9428
 30
0.0
 70
0
  0
VERTEX
  8
0
 10
218.5734
 20
41.3458
 30
0.0
 70
0
  0
VERTEX
  8
0
 10
218.555
 20
41.6525
 30
0.0
 70
0
  0
VERTEX
  8
0
 10
218.555
 20
41.7547
 30
0.0
 70
0
  0
VERTEX
  8
0
 10
218.555
 20
46.2572
 30
0.0
 70
0
  0
SEQEND
  8
0
  0
POLYLINE
  8
0
 62
0
 66
1
 10
0.0
 20
0.0
 30
0.0
 70
1
  0
VERTEX
  8
0
 10
239.516
 20
46.2572
 30
0.0
 70
0
  0
VERTEX
  8
0
 10
237.293
 20
46.2572
 30
0.0
 70
0
  0
VERTEX
  8
0
 10
237.293
 20
41.7547
 30
0.0
 70
0
  0
VERTEX
  8
0
 10
237.293
 20
41.6525
 30
0.0
 70
0
  0
VERTEX
  8
0
 10
237.31099999999998
 20
41.3458
 30
0.0
 70
0
  0
VERTEX
  8
0
 10
237.36599999999999
 20
40.9428
 30
0.0
 70
0
  0
VERTEX
  8
0
 10
237.45499999999998
 20
40.5476
 30
0.0
 70
0
  0
VERTEX
  8
0
 10
237.57999999999998
 20
40.1628
 30
0.0
 70
0
  0
VERTEX
  8
0
 10
237.738
 20
39.7904
 30
0.0
 70
0
  0
VERTEX
  8
0
 10
237.928
 20
39.4328
 30
0.0
 70
0
  0
VERTEX
  8
0
 10
238.151
 20
39.0922
 30
0.0
 70
0
  0
VERTEX
  8
0
 10
238.337
 20
38.8483
 30
0.0
 70
0
  0
VERTEX
  8
0
 10
238.404
 20
38.7711
 30
0.0
 70
0
  0
VERTEX
  8
0
 10
238.471
 20
38.8483
 30
0.0
 70
0
  0
VERTEX
  8
0
 10
238.65800000000002
 20
39.0922
 30
0.0
 70
0
  0
VERTEX
  8
0
 10
238.88
 20
39.4328
 30
0.0
 70
0
  0
VERTEX
  8
0
 10
239.071
 20
39.7904
 30
0.0
 70
0
  0
VERTEX
  8
0
 10
239.22899999999998
 20
40.1628
 30
0.0
 70
0
  0
VERTEX
  8
0
 10
239.353
 20
40.5476
 30
0.0
 70
0
  0
VERTEX
  8
0
 10
239.44299999999998
 20
40.9428
 30
0.0
 70
0
  0
VERTEX
  8
0
 10
239.497
 20
41.3458
 30
0.0
 70
0
  0
VERTEX
  8
0
 10
239.516
 20
41.6525
 30
0.0
 70
0
  0
VERTEX
  8
0
 10
239.516
 20
41.7547
 30
0.0
 70
0
  0
VERTEX
  8
0
 10
239.516
 20
46.2572
 30
0.0
 70
0
  0
SEQEND
  8
0
  0
POLYLINE
  8
0
 62
0
 66
1
 10
0.0
 20
0.0
 30
0.0
 70
1
  0
VERTEX
  8
0
 10
134.85752
 20
11.5934
 30
0.0
 70
0
  0
VERTEX
  8
0
 10
133.636
 20
12.8149
 30
0.0
 70
0
  0
VERTEX
  8
0
 10
133.636
 20
31.9413
 30
0.0
 70
0
  0
VERTEX
  8
0
 10
165.5042
 20
31.9413
 30
0.0
 70
0
  0
VERTEX
  8
0
 10
165.5042
 20
12.8149
 30
0.0
 70
0
  0
VERTEX
  8
0
 10
164.2827
 20
11.5934
 30
0.0
 70
0
  0
VERTEX
  8
0
 10
134.85752
 20
11.5934
 30
0.0
 70
0
  0
SEQEND
  8
0
  0
POLYLINE
  8
0
 62
0
 66
1
 10
0.0
 20
0.0
 30
0.0
 70
1
  0
VERTEX
  8
0
 10
212.0088
 20
27.8572
 30
0.0
 70
0
  0
VERTEX
  8
0
 10
212.0088
 20
21.8072
 30
0.0
 70
0
  0
VERTEX
  8
0
 10
210.90879999999999
 20
21.8072
 30
0.0
 70
0
  0
VERTEX
  8
0
 10
210.90879999999999
 20
19.139
 30
0.0
 70
0
  0
VERTEX
  8
0
 10
212.0088
 20
19.139
 30
0.0
 70
0
  0
VERTEX
  8
0
 10
212.0088
 20
17.989
 30
0.0
 70
0
  0
VERTEX
  8
0
 10
195.5929
 20
17.989
 30
0.0
 70
0
  0
VERTEX
  8
0
 10
195.5929
 20
19.089
 30
0.0
 70
0
  0
VERTEX
  8
0
 10
180.0039
 20
19.089
 30
0.0
 70
0
  0
VERTEX
  8
0
 10
180.0039
 20
17.989
 30
0.0
 70
0
  0
VERTEX
  8
0
 10
166.5042
 20
17.989
 30
0.0
 70
0
  0
VERTEX
  8
0
 10
166.5042
 20
31.6754
 30
0.0
 70
0
  0
VERTEX
  8
0
 10
180.0039
 20
31.6754
 30
0.0
 70
0
  0
VERTEX
  8
0
 10
180.0039
 20
30.5754
 30
0.0
 70
0
  0
VERTEX
  8
0
 10
195.5929
 20
30.5754
 30
0.0
 70
0
  0
VERTEX
  8
0
 10
195.5929
 20
31.6754
 30
0.0
 70
0
  0
VERTEX
  8
0
 10
212.0088
 20
31.6754
 30
0.0
 70
0
  0
VERTEX
  8
0
 10
212.0088
 20
30.5254
 30
0.0
 70
0
  0
VERTEX
  8
0
 10
210.90879999999999
 20
30.5254
 30
0.0
 70
0
  0
VERTEX
  8
0
 10
210.90879999999999
 20
27.8572
 30
0.0
 70
0
  0
VERTEX
  8
0
 10
212.0088
 20
27.8572
 30
0.0
 70
0
  0
SEQEND
  8
0
  0
POLYLINE
  8
0
 62
0
 66
1
 10
0.0
 20
0.0
 30
0.0
 70
1
  0
VERTEX
  8
0
 10
170.6452
 20
26.3981
 30
0.0
 70
0
  0
VERTEX
  8
0
 10
175.1406
 20
26.3981
 30
0.0
 70
0
  0
VERTEX
  8
0
 10
175.1406
 20
23.2663
 30
0.0
 70
0
  0
VERTEX
  8
0
 10
170.6452
 20
23.2663
 30
0.0
 70
0
  0
VERTEX
  8
0
 10
170.6452
 20
26.3981
 30
0.0
 70
0
  0
SEQEND
  8
0
  0
POLYLINE
  8
0
 62
0
 66
1
 10
0.0
 20
0.0
 30
0.0
 70
1
  0
VERTEX
  8
0
 10
190.4478
 20
25.5619
 30
0.0
 70
0
  0
VERTEX
  8
0
 10
194.2656
 20
25.5619
 30
0.0
 70
0
  0
VERTEX
  8
0
 10
194.2656
 20
24.1025
 30
0.0
 70
0
  0
VERTEX
  8
0
 10
190.4478
 20
24.1025
 30
0.0
 70
0
  0
VERTEX
  8
0
 10
190.4478
 20
25.5619
 30
0.0
 70
0
  0
SEQEND
  8
0
  0
POLYLINE
  8
0
 62
0
 66
1
 10
0.0
 20
0.0
 30
0.0
 70
1
  0
VERTEX
  8
0
 10
178.32319999999999
 20
25.5619
 30
0.0
 70
0
  0
VERTEX
  8
0
 10
182.1411
 20
25.5619
 30
0.0
 70
0
  0
VERTEX
  8
0
 10
182.1411
 20
24.1025
 30
0.0
 70
0
  0
VERTEX
  8
0
 10
178.32319999999999
 20
24.1025
 30
0.0
 70
0
  0
VERTEX
  8
0
 10
178.32319999999999
 20
25.5619
 30
0.0
 70
0
  0
SEQEND
  8
0
  0
POLYLINE
  8
0
 62
0
 66
1
 10
0.0
 20
0.0
 30
0.0
 70
1
  0
VERTEX
  8
0
 10
257.66700000000003
 20
28.8182
 30
0.0
 70
0
  0
VERTEX
  8
0
 10
238.461
 20
28.8182
 30
0.0
 70
0
  0
VERTEX
  8
0
 10
238.461
 20
31.8682
 30
0.0
 70
0
  0
VERTEX
  8
0
 10
258.688
 20
31.8682
 30
0.0
 70
0
  0
VERTEX
  8
0
 10
269.051
 20
21.505
 30
0.0
 70
0
  0
VERTEX
  8
0
 10
269.829
 20
22.2828
 30
0.0
 70
0
  0
VERTEX
  8
0
 10
275.382
 20
16.7292
 30
0.0
 70
0
  0
VERTEX
  8
0
 10
276.17499999999995
 20
15.8671
 30
0.0
 70
0
  0
VERTEX
  8
0
 10
275.382
 20
15.1382
 30
0.0
 70
0
  0
VERTEX
  8
0
 10
269.854
 20
9.61051
 30
0.0
 70
0
  0
VERTEX
  8
0
 10
269.076
 20
10.3883
 30
0.0
 70
0
  0
VERTEX
  8
0
 10
258.688
 20
0.0
 30
0.0
 70
0
  0
VERTEX
  8
0
 10
238.461
 20
0.0
 30
0.0
 70
0
  0
VERTEX
  8
0
 10
238.461
 20
3.05003
 30
0.0
 70
0
  0
VERTEX
  8
0
 10
257.66700000000003
 20
3.05003
 30
0.0
 70
0
  0
VERTEX
  8
0
 10
270.576
 20
15.9592
 30
0.0
 70
0
  0
VERTEX
  8
0
 10
257.66700000000003
 20
28.8182
 30
0.0
 70
0
  0
SEQEND
  8
0
  0
POLYLINE
  8
0
 62
0
 66
1
 10
0.0
 20
0.0
 30
0.0
 70
1
  0
VERTEX
  8
0
 10
251.338
 20
176.885
 30
0.0
 70
0
  0
VERTEX
  8
0
 10
264.197
 20
189.794
 30
0.0
 70
0
  0
VERTEX
  8
0
 10
264.197
 20
209.0
 30
0.0
 70
0
  0
VERTEX
  8
0
 10
267.24699999999996
 20
209.0
 30
0.0
 70
0
  0
VERTEX
  8
0
 10
267.24699999999996
 20
188.774
 30
0.0
 70
0
  0
VERTEX
  8
0
 10
256.884
 20
178.411
 30
0.0
 70
0
  0
VERTEX
  8
0
 10
257.662
 20
177.633
 30
0.0
 70
0
  0
VERTEX
  8
0
 10
252.108
 20
172.079
 30
0.0
 70
0
  0
VERTEX
  8
0
 10
251.24599999999998
 20
171.286
 30
0.0
 70
0
  0
VERTEX
  8
0
 10
250.517
 20
172.079
 30
0.0
 70
0
  0
VERTEX
  8
0
 10
244.98899999999998
 20
177.607
 30
0.0
 70
0
  0
VERTEX
  8
0
 10
245.767
 20
178.385
 30
0.0
 70
0
  0
VERTEX
  8
0
 10
235.379
 20
188.774
 30
0.0
 70
0
  0
VERTEX
  8
0
 10
235.379
 20
209.0
 30
0.0
 70
0
  0
VERTEX
  8
0
 10
238.429
 20
209.0
 30
0.0
 70
0
  0
VERTEX
  8
0
 10
238.429
 20
189.794
 30
0.0
 70
0
  0
VERTEX
  8
0
 10
251.338
 20
176.885
 30
0.0
 70
0
  0
SEQEND
  8
0
  0
POLYLINE
  8
0
 62
0
 66
1
 10
0.0
 20
0.0
 30
0.0
 70
1
  0
VERTEX
  8
0
 10
263.635
 20
171.346
 30
0.0
 70
0
  0
VERTEX
  8
0
 10
280.704
 20
154.276
 30
0.0
 70
0
  0
VERTEX
  8
0
 10
279.56899999999996
 20
154.276
 30
0.0
 70
0
  0
VERTEX
  8
0
 10
279.56899999999996
 20
148.418
 30
0.0
 70
0
  0
VERTEX
  8
0
 10
280.669
 20
148.418
 30
0.0
 70
0
  0
VERTEX
  8
0
 10
280.669
 20
141.443
 30
0.0
 70
0
  0
VERTEX
  8
0
 10
279.56899999999996
 20
141.443
 30
0.0
 70
0
  0
VERTEX
  8
0
 10
279.56899999999996
 20
135.186
 30
0.0
 70
0
  0
VERTEX
  8
0
 10
269.29200000000003
 20
135.186
 30
0.0
 70
0
  0
VERTEX
  8
0
 10
269.29200000000003
 20
145.663
 30
0.0
 70
0
  0
VERTEX
  8
0
 10
269.254
 20
145.825
 30
0.0
 70
0
  0
VERTEX
  8
0
 10
269.127
 20
146.31
 30
0.0
 70
0
  0
VERTEX
  8
0
 10
268.935
 20
146.949
 30
0.0
 70
0
  0
VERTEX
  8
0
 10
268.716
 20
147.575
 30
0.0
 70
0
  0
VERTEX
  8
0
 10
268.47
 20
148.19
 30
0.0
 70
0
  0
VERTEX
  8
0
 10
268.198
 20
148.793
 30
0.0
 70
0
  0
VERTEX
  8
0
 10
267.90099999999995
 20
149.382
 30
0.0
 70
0
  0
VERTEX
  8
0
 10
267.579
 20
149.958
 30
0.0
 70
0
  0
VERTEX
  8
0
 10
267.23199999999997
 20
150.518
 30
0.0
 70
0
  0
VERTEX
  8
0
 10
266.861
 20
151.064
 30
0.0
 70
0
  0
VERTEX
  8
0
 10
266.466
 20
151.593
 30
0.0
 70
0
  0
VERTEX
  8
0
 10
266.049
 20
152.104
 30
0.0
 70
0
  0
VERTEX
  8
0
 10
265.60900000000004
 20
152.599
 30
0.0
 70
0
  0
VERTEX
  8
0
 10
265.147
 20
153.074
 30
0.0
 70
0
  0
VERTEX
  8
0
 10
264.664
 20
153.529
 30
0.0
 70
0
  0
VERTEX
  8
0
 10
264.15999999999997
 20
153.964
 30
0.0
 70
0
  0
VERTEX
  8
0
 10
263.76800000000003
 20
154.276
 30
0.0
 70
0
  0
VERTEX
  8
0
 10
263.635
 20
154.378
 30
0.0
 70
0
  0
VERTEX
  8
0
 10
263.502
 20
154.276
 30
0.0
 70
0
  0
VERTEX
  8
0
 10
263.11
 20
153.964
 30
0.0
 70
0
  0
VERTEX
  8
0
 10
262.606
 20
153.529
 30
0.0
 70
0
  0
VERTEX
  8
0
 10
262.123
 20
153.074
 30
0.0
 70
0
  0
VERTEX
  8
0
 10
261.661
 20
152.599
 30
0.0
 70
0
  0
VERTEX
  8
0
 10
261.221
 20
152.104
 30
0.0
 70
0
  0
VERTEX
  8
0
 10
260.804
 20
151.593
 30
0.0
 70
0
  0
VERTEX
  8
0
 10
260.409
 20
151.064
 30
0.0
 70
0
  0
VERTEX
  8
0
 10
260.039
 20
150.518
 30
0.0
 70
0
  0
VERTEX
  8
0
 10
259.692
 20
149.958
 30
0.0
 70
0
  0
VERTEX
  8
0
 10
259.369
 20
149.382
 30
0.0
 70
0
  0
VERTEX
  8
0
 10
259.072
 20
148.793
 30
0.0
 70
0
  0
VERTEX
  8
0
 10
258.8
 20
148.19
 30
0.0
 70
0
  0
VERTEX
  8
0
 10
258.554
 20
147.575
 30
0.0
 70
0
  0
VERTEX
  8
0
 10
258.335
 20
146.949
 30
0.0
 70
0
  0
VERTEX
  8
0
 10
258.14300000000003
 20
146.31
 30
0.0
 70
0
  0
VERTEX
  8
0
 10
258.01599999999996
 20
145.825
 30
0.0
 70
0
  0
VERTEX
  8
0
 10
257.978
 20
145.663
 30
0.0
 70
0
  0
VERTEX
  8
0
 10
257.978
 20
135.186
 30
0.0
 70
0
  0
VERTEX
  8
0
 10
247.701
 20
135.186
 30
0.0
 70
0
  0
VERTEX
  8
0
 10
247.701
 20
141.443
 30
0.0
 70
0
  0
VERTEX
  8
0
 10
246.601
 20
141.443
 30
0.0
 70
0
  0
VERTEX
  8
0
 10
246.601
 20
148.418
 30
0.0
 70
0
  0
VERTEX
  8
0
 10
247.701
 20
148.418
 30
0.0
 70
0
  0
VERTEX
  8
0
 10
247.701
 20
154.276
 30
0.0
 70
0
  0
VERTEX
  8
0
 10
246.566
 20
154.276
 30
0.0
 70
0
  0
VERTEX
  8
0
 10
263.635
 20
171.346
 30
0.0
 70
0
  0
SEQEND
  8
0
  0
POLYLINE
  8
0
 62
0
 66
1
 10
0.0
 20
0.0
 30
0.0
 70
1
  0
VERTEX
  8
0
 10
267.019
 20
161.0
 30
0.0
 70
0
  0
VERTEX
  8
0
 10
267.019
 20
160.914
 30
0.0
 70
0
  0
VERTEX
  8
0
 10
267.002
 20
160.654
 30
0.0
 70
0
  0
VERTEX
  8
0
 10
266.95
 20
160.318
 30
0.0
 70
0
  0
VERTEX
  8
0
 10
266.86699999999996
 20
159.993
 30
0.0
 70
0
  0
VERTEX
  8
0
 10
266.753
 20
159.682
 30
0.0
 70
0
  0
VERTEX
  8
0
 10
266.611
 20
159.386
 30
0.0
 70
0
  0
VERTEX
  8
0
 10
266.44100000000003
 20
159.108
 30
0.0
 70
0
  0
VERTEX
  8
0
 10
266.246
 20
158.847
 30
0.0
 70
0
  0
VERTEX
  8
0
 10
266.028
 20
158.607
 30
0.0
 70
0
  0
VERTEX
  8
0
 10
265.788
 20
158.389
 30
0.0
 70
0
  0
VERTEX
  8
0
 10
265.527
 20
158.193
 30
0.0
 70
0
  0
VERTEX
  8
0
 10
265.248
 20
158.024
 30
0.0
 70
0
  0
VERTEX
  8
0
 10
264.952
 20
157.882
 30
0.0
 70
0
  0
VERTEX
  8
0
 10
264.64099999999996
 20
157.768
 30
0.0
 70
0
  0
VERTEX
  8
0
 10
264.317
 20
157.685
 30
0.0
 70
0
  0
VERTEX
  8
0
 10
263.981
 20
157.633
 30
0.0
 70
0
  0
VERTEX
  8
0
 10
263.722
 20
157.615
 30
0.0
 70
0
  0
VERTEX
  8
0
 10
263.635
 20
157.615
 30
0.0
 70
0
  0
VERTEX
  8
0
 10
263.549
 20
157.615
 30
0.0
 70
0
  0
VERTEX
  8
0
 10
263.289
 20
157.633
 30
0.0
 70
0
  0
VERTEX
  8
0
 10
262.953
 20
157.685
 30
0.0
 70
0
  0
VERTEX
  8
0
 10
262.629
 20
157.768
 30
0.0
 70
0
  0
VERTEX
  8
0
 10
262.318
 20
157.882
 30
0.0
 70
0
  0
VERTEX
  8
0
 10
262.022
 20
158.024
 30
0.0
 70
0
  0
VERTEX
  8
0
 10
261.743
 20
158.193
 30
0.0
 70
0
  0
VERTEX
  8
0
 10
261.48199999999997
 20
158.389
 30
0.0
 70
0
  0
VERTEX
  8
0
 10
261.24199999999996
 20
158.607
 30
0.0
 70
0
  0
VERTEX
  8
0
 10
261.024
 20
158.847
 30
0.0
 70
0
  0
VERTEX
  8
0
 10
260.829
 20
159.108
 30
0.0
 70
0
  0
VERTEX
  8
0
 10
260.659
 20
159.386
 30
0.0
 70
0
  0
VERTEX
  8
0
 10
260.517
 20
159.682
 30
0.0
 70
0
  0
VERTEX
  8
0
 10
260.403
 20
159.993
 30
0.0
 70
0
  0
VERTEX
  8
0
 10
260.32
 20
160.318
 30
0.0
 70
0
  0
VERTEX
  8
0
 10
260.269
 20
160.654
 30
0.0
 70
0
  0
VERTEX
  8
0
 10
260.251
 20
160.914
 30
0.0
 70
0
  0
VERTEX
  8
0
 10
260.251
 20
161.0
 30
0.0
 70
0
  0
VERTEX
  8
0
 10
260.251
 20
161.086
 30
0.0
 70
0
  0
VERTEX
  8
0
 10
260.269
 20
161.346
 30
0.0
 70
0
  0
VERTEX
  8
0
 10
260.32
 20
161.682
 30
0.0
 70
0
  0
VERTEX
  8
0
 10
260.403
 20
162.006
 30
0.0
 70
0
  0
VERTEX
  8
0
 10
260.517
 20
162.317
 30
0.0
 70
0
  0
VERTEX
  8
0
 10
260.659
 20
162.612
 30
0.0
 70
0
  0
VERTEX
  8
0
 10
260.829
 20
162.892
 30
0.0
 70
0
  0
VERTEX
  8
0
 10
261.024
 20
163.153
 30
0.0
 70
0
  0
VERTEX
  8
0
 10
261.24199999999996
 20
163.393
 30
0.0
 70
0
  0
VERTEX
  8
0
 10
261.48199999999997
 20
163.611
 30
0.0
 70
0
  0
VERTEX
  8
0
 10
261.743
 20
163.806
 30
0.0
 70
0
  0
VERTEX
  8
0
 10
262.022
 20
163.975
 30
0.0
 70
0
  0
VERTEX
  8
0
 10
262.318
 20
164.118
 30
0.0
 70
0
  0
VERTEX
  8
0
 10
262.629
 20
164.232
 30
0.0
 70
0
  0
VERTEX
  8
0
 10
262.953
 20
164.315
 30
0.0
 70
0
  0
VERTEX
  8
0
 10
263.289
 20
164.367
 30
0.0
 70
0
  0
VERTEX
  8
0
 10
263.549
 20
164.383
 30
0.0
 70
0
  0
VERTEX
  8
0
 10
263.635
 20
164.383
 30
0.0
 70
0
  0
VERTEX
  8
0
 10
263.722
 20
164.383
 30
0.0
 70
0
  0
VERTEX
  8
0
 10
263.981
 20
164.367
 30
0.0
 70
0
  0
VERTEX
  8
0
 10
264.317
 20
164.315
 30
0.0
 70
0
  0
VERTEX
  8
0
 10
264.64099999999996
 20
164.232
 30
0.0
 70
0
  0
VERTEX
  8
0
 10
264.952
 20
164.118
 30
0.0
 70
0
  0
VERTEX
  8
0
 10
265.248
 20
163.975
 30
0.0
 70
0
  0
VERTEX
  8
0
 10
265.527
 20
163.806
 30
0.0
 70
0
  0
VERTEX
  8
0
 10
265.788
 20
163.611
 30
0.0
 70
0
  0
VERTEX
  8
0
 10
266.028
 20
163.393
 30
0.0
 70
0
  0
VERTEX
  8
0
 10
266.246
 20
163.153
 30
0.0
 70
0
  0
VERTEX
  8
0
 10
266.44100000000003
 20
162.892
 30
0.0
 70
0
  0
VERTEX
  8
0
 10
266.611
 20
162.612
 30
0.0
 70
0
  0
VERTEX
  8
0
 10
266.753
 20
162.317
 30
0.0
 70
0
  0
VERTEX
  8
0
 10
266.86699999999996
 20
162.006
 30
0.0
 70
0
  0
VERTEX
  8
0
 10
266.95
 20
161.682
 30
0.0
 70
0
  0
VERTEX
  8
0
 10
267.002
 20
161.346
 30
0.0
 70
0
  0
VERTEX
  8
0
 10
267.019
 20
161.086
 30
0.0
 70
0
  0
VERTEX
  8
0
 10
267.019
 20
161.0
 30
0.0
 70
0
  0
SEQEND
  8
0
  0
POLYLINE
  8
0
 62
0
 66
1
 10
0.0
 20
0.0
 30
0.0
 70
1
  0
VERTEX
  8
0
 10
248.13799999999998
 20
46.3179
 30
0.0
 70
0
  0
VERTEX
  8
0
 10
248.13799999999998
 20
62.0069
 30
0.0
 70
0
  0
VERTEX
  8
0
 10
249.238
 20
62.0069
 30
0.0
 70
0
  0
VERTEX
  8
0
 10
249.238
 20
78.3728
 30
0.0
 70
0
  0
VERTEX
  8
0
 10
256.358
 20
78.3728
 30
0.0
 70
0
  0
VERTEX
  8
0
 10
256.358
 20
59.2819
 30
0.0
 70
0
  0
VERTEX
  8
0
 10
257.408
 20
59.2819
 30
0.0
 70
0
  0
VERTEX
  8
0
 10
257.408
 20
78.3728
 30
0.0
 70
0
  0
VERTEX
  8
0
 10
260.724
 20
78.3728
 30
0.0
 70
0
  0
VERTEX
  8
0
 10
260.724
 20
62.0069
 30
0.0
 70
0
  0
VERTEX
  8
0
 10
261.82399999999996
 20
62.0069
 30
0.0
 70
0
  0
VERTEX
  8
0
 10
261.82399999999996
 20
46.3179
 30
0.0
 70
0
  0
VERTEX
  8
0
 10
260.724
 20
46.3179
 30
0.0
 70
0
  0
VERTEX
  8
0
 10
260.724
 20
32.8682
 30
0.0
 70
0
  0
VERTEX
  8
0
 10
249.238
 20
32.8682
 30
0.0
 70
0
  0
VERTEX
  8
0
 10
249.238
 20
46.3179
 30
0.0
 70
0
  0
VERTEX
  8
0
 10
248.13799999999998
 20
46.3179
 30
0.0
 70
0
  0
SEQEND
  8
0
  0
POLYLINE
  8
0
 62
0
 66
1
 10
0.0
 20
0.0
 30
0.0
 70
1
  0
VERTEX
  8
0
 10
253.415
 20
41.5046
 30
0.0
 70
0
  0
VERTEX
  8
0
 10
256.547
 20
41.5046
 30
0.0
 70
0
  0
VERTEX
  8
0
 10
256.547
 20
37.0092
 30
0.0
 70
0
  0
VERTEX
  8
0
 10
253.415
 20
37.0092
 30
0.0
 70
0
  0
VERTEX
  8
0
 10
253.415
 20
41.5046
 30
0.0
 70
0
  0
SEQEND
  8
0
  0
POLYLINE
  8
0
 62
0
 66
1
 10
0.0
 20
0.0
 30
0.0
 70
1
  0
VERTEX
  8
0
 10
179.6857
 20
15.5792
 30
0.0
 70
0
  0
VERTEX
  8
0
 10
179.6857
 20
16.679
 30
0.0
 70
0
  0
VERTEX
  8
0
 10
185.6452
 20
16.679
 30
0.0
 70
0
  0
VERTEX
  8
0
 10
185.6452
 20
15.5438
 30
0.0
 70
0
  0
VERTEX
  8
0
 10
183.727
 20
13.6256
 30
0.0
 70
0
  0
VERTEX
  8
0
 10
184.46949999999998
 20
12.8831
 30
0.0
 70
0
  0
VERTEX
  8
0
 10
185.6452
 20
14.0587
 30
0.0
 70
0
  0
VERTEX
  8
0
 10
185.6452
 20
4.09272
 30
0.0
 70
0
  0
VERTEX
  8
0
 10
176.09969999999998
 20
4.09272
 30
0.0
 70
0
  0
VERTEX
  8
0
 10
176.09969999999998
 20
2.99274
 30
0.0
 70
0
  0
VERTEX
  8
0
 10
166.5042
 20
2.99274
 30
0.0
 70
0
  0
VERTEX
  8
0
 10
166.5042
 20
16.679
 30
0.0
 70
0
  0
VERTEX
  8
0
 10
172.8111
 20
16.679
 30
0.0
 70
0
  0
VERTEX
  8
0
 10
172.8111
 20
15.5792
 30
0.0
 70
0
  0
VERTEX
  8
0
 10
179.6857
 20
15.5792
 30
0.0
 70
0
  0
SEQEND
  8
0
  0
POLYLINE
  8
0
 62
0
 66
1
 10
0.0
 20
0.0
 30
0.0
 70
1
  0
VERTEX
  8
0
 10
250.308
 20
101.519
 30
0.0
 70
0
  0
VERTEX
  8
0
 10
248.058
 20
101.519
 30
0.0
 70
0
  0
VERTEX
  8
0
 10
248.058
 20
120.645
 30
0.0
 70
0
  0
VERTEX
  8
0
 10
265.092
 20
137.679
 30
0.0
 70
0
  0
VERTEX
  8
0
 10
282.126
 20
120.645
 30
0.0
 70
0
  0
VERTEX
  8
0
 10
282.126
 20
101.519
 30
0.0
 70
0
  0
VERTEX
  8
0
 10
279.876
 20
101.519
 30
0.0
 70
0
  0
VERTEX
  8
0
 10
279.876
 20
115.177
 30
0.0
 70
0
  0
VERTEX
  8
0
 10
279.83
 20
115.369
 30
0.0
 70
0
  0
VERTEX
  8
0
 10
279.682
 20
115.941
 30
0.0
 70
0
  0
VERTEX
  8
0
 10
279.467
 20
116.698
 30
0.0
 70
0
  0
VERTEX
  8
0
 10
279.233
 20
117.447
 30
0.0
 70
0
  0
VERTEX
  8
0
 10
278.98
 20
118.187
 30
0.0
 70
0
  0
VERTEX
  8
0
 10
278.70799999999997
 20
118.919
 30
0.0
 70
0
  0
VERTEX
  8
0
 10
278.41700000000003
 20
119.643
 30
0.0
 70
0
  0
VERTEX
  8
0
 10
278.10699999999997
 20
120.357
 30
0.0
 70
0
  0
VERTEX
  8
0
 10
277.78
 20
121.061
 30
0.0
 70
0
  0
VERTEX
  8
0
 10
277.435
 20
121.756
 30
0.0
 70
0
  0
VERTEX
  8
0
 10
277.071
 20
122.441
 30
0.0
 70
0
  0
VERTEX
  8
0
 10
276.69
 20
123.115
 30
0.0
 70
0
  0
VERTEX
  8
0
 10
276.29200000000003
 20
123.778
 30
0.0
 70
0
  0
VERTEX
  8
0
 10
275.878
 20
124.431
 30
0.0
 70
0
  0
VERTEX
  8
0
 10
275.446
 20
125.072
 30
0.0
 70
0
  0
VERTEX
  8
0
 10
274.99699999999996
 20
125.701
 30
0.0
 70
0
  0
VERTEX
  8
0
 10
274.532
 20
126.318
 30
0.0
 70
0
  0
VERTEX
  8
0
 10
274.051
 20
126.923
 30
0.0
 70
0
  0
VERTEX
  8
0
 10
273.555
 20
127.515
 30
0.0
 70
0
  0
VERTEX
  8
0
 10
273.043
 20
128.094
 30
0.0
 70
0
  0
VERTEX
  8
0
 10
272.51599999999996
 20
128.659
 30
0.0
 70
0
  0
VERTEX
  8
0
 10
271.974
 20
129.212
 30
0.0
 70
0
  0
VERTEX
  8
0
 10
271.418
 20
129.749
 30
0.0
 70
0
  0
VERTEX
  8
0
 10
270.846
 20
130.273
 30
0.0
 70
0
  0
VERTEX
  8
0
 10
270.26
 20
130.782
 30
0.0
 70
0
  0
VERTEX
  8
0
 10
269.661
 20
131.277
 30
0.0
 70
0
  0
VERTEX
  8
0
 10
269.047
 20
131.755
 30
0.0
 70
0
  0
VERTEX
  8
0
 10
268.41999999999996
 20
132.219
 30
0.0
 70
0
  0
VERTEX
  8
0
 10
267.78
 20
132.666
 30
0.0
 70
0
  0
VERTEX
  8
0
 10
267.127
 20
133.097
 30
0.0
 70
0
  0
VERTEX
  8
0
 10
266.461
 20
133.512
 30
0.0
 70
0
  0
VERTEX
  8
0
 10
265.783
 20
133.909
 30
0.0
 70
0
  0
VERTEX
  8
0
 10
265.26599999999996
 20
134.197
 30
0.0
 70
0
  0
VERTEX
  8
0
 10
265.092
 20
134.29
 30
0.0
 70
0
  0
VERTEX
  8
0
 10
264.918
 20
134.197
 30
0.0
 70
0
  0
VERTEX
  8
0
 10
264.40099999999995
 20
133.909
 30
0.0
 70
0
  0
VERTEX
  8
0
 10
263.72299999999996
 20
133.512
 30
0.0
 70
0
  0
VERTEX
  8
0
 10
263.056
 20
133.097
 30
0.0
 70
0
  0
VERTEX
  8
0
 10
262.403
 20
132.666
 30
0.0
 70
0
  0
VERTEX
  8
0
 10
261.76300000000003
 20
132.219
 30
0.0
 70
0
  0
VERTEX
  8
0
 10
261.13599999999997
 20
131.755
 30
0.0
 70
0
  0
VERTEX
  8
0
 10
260.523
 20
131.277
 30
0.0
 70
0
  0
VERTEX
  8
0
 10
259.923
 20
130.782
 30
0.0
 70
0
  0
VERTEX
  8
0
 10
259.337
 20
130.273
 30
0.0
 70
0
  0
VERTEX
  8
0
 10
258.76599999999996
 20
129.749
 30
0.0
 70
0
  0
VERTEX
  8
0
 10
258.209
 20
129.212
 30
0.0
 70
0
  0
VERTEX
  8
0
 10
257.66700000000003
 20
128.659
 30
0.0
 70
0
  0
VERTEX
  8
0
 10
257.14
 20
128.094
 30
0.0
 70
0
  0
VERTEX
  8
0
 10
256.628
 20
127.515
 30
0.0
 70
0
  0
VERTEX
  8
0
 10
256.132
 20
126.923
 30
0.0
 70
0
  0
VERTEX
  8
0
 10
255.651
 20
126.318
 30
0.0
 70
0
  0
VERTEX
  8
0
 10
255.187
 20
125.701
 30
0.0
 70
0
  0
VERTEX
  8
0
 10
254.738
 20
125.072
 30
0.0
 70
0
  0
VERTEX
  8
0
 10
254.30700000000002
 20
124.431
 30
0.0
 70
0
  0
VERTEX
  8
0
 10
253.891
 20
123.778
 30
0.0
 70
0
  0
VERTEX
  8
0
 10
253.493
 20
123.115
 30
0.0
 70
0
  0
VERTEX
  8
0
 10
253.113
 20
122.441
 30
0.0
 70
0
  0
VERTEX
  8
0
 10
252.749
 20
121.756
 30
0.0
 70
0
  0
VERTEX
  8
0
 10
252.404
 20
121.061
 30
0.0
 70
0
  0
VERTEX
  8
0
 10
252.076
 20
120.357
 30
0.0
 70
0
  0
VERTEX
  8
0
 10
251.767
 20
119.643
 30
0.0
 70
0
  0
VERTEX
  8
0
 10
251.476
 20
118.919
 30
0.0
 70
0
  0
VERTEX
  8
0
 10
251.204
 20
118.187
 30
0.0
 70
0
  0
VERTEX
  8
0
 10
250.951
 20
117.447
 30
0.0
 70
0
  0
VERTEX
  8
0
 10
250.71699999999998
 20
116.698
 30
0.0
 70
0
  0
VERTEX
  8
0
 10
250.502
 20
115.941
 30
0.0
 70
0
  0
VERTEX
  8
0
 10
250.35399999999998
 20
115.369
 30
0.0
 70
0
  0
VERTEX
  8
0
 10
250.308
 20
115.177
 30
0.0
 70
0
  0
VERTEX
  8
0
 10
250.308
 20
101.519
 30
0.0
 70
0
  0
SEQEND
  8
0
  0
POLYLINE
  8
0
 62
0
 66
1
 10
0.0
 20
0.0
 30
0.0
 70
1
  0
VERTEX
  8
0
 10
251.462
 20
99.1983
 30
0.0
 70
0
  0
VERTEX
  8
0
 10
260.578
 20
116.254
 30
0.0
 70
0
  0
VERTEX
  8
0
 10
269.693
 20
99.1983
 30
0.0
 70
0
  0
VERTEX
  8
0
 10
269.693
 20
89.6217
 30
0.0
 70
0
  0
VERTEX
  8
0
 10
268.594
 20
89.6217
 30
0.0
 70
0
  0
VERTEX
  8
0
 10
268.594
 20
80.0761
 30
0.0
 70
0
  0
VERTEX
  8
0
 10
252.562
 20
80.0761
 30
0.0
 70
0
  0
VERTEX
  8
0
 10
252.562
 20
89.6217
 30
0.0
 70
0
  0
VERTEX
  8
0
 10
251.462
 20
89.6217
 30
0.0
 70
0
  0
VERTEX
  8
0
 10
251.462
 20
99.1983
 30
0.0
 70
0
  0
SEQEND
  8
0
  0
POLYLINE
  8
0
 62
0
 66
1
 10
0.0
 20
0.0
 30
0.0
 70
1
  0
VERTEX
  8
0
 10
262.48699999999997
 20
96.4081
 30
0.0
 70
0
  0
VERTEX
  8
0
 10
258.668
 20
96.4081
 30
0.0
 70
0
  0
VERTEX
  8
0
 10
258.668
 20
102.273
 30
0.0
 70
0
  0
VERTEX
  8
0
 10
258.668
 20
102.432
 30
0.0
 70
0
  0
VERTEX
  8
0
 10
258.7
 20
102.909
 30
0.0
 70
0
  0
VERTEX
  8
0
 10
258.794
 20
103.533
 30
0.0
 70
0
  0
VERTEX
  8
0
 10
258.95
 20
104.142
 30
0.0
 70
0
  0
VERTEX
  8
0
 10
259.16499999999996
 20
104.731
 30
0.0
 70
0
  0
VERTEX
  8
0
 10
259.437
 20
105.296
 30
0.0
 70
0
  0
VERTEX
  8
0
 10
259.764
 20
105.833
 30
0.0
 70
0
  0
VERTEX
  8
0
 10
260.145
 20
106.336
 30
0.0
 70
0
  0
VERTEX
  8
0
 10
260.464
 20
106.692
 30
0.0
 70
0
  0
VERTEX
  8
0
 10
260.578
 20
106.803
 30
0.0
 70
0
  0
VERTEX
  8
0
 10
260.69100000000003
 20
106.692
 30
0.0
 70
0
  0
VERTEX
  8
0
 10
261.01
 20
106.336
 30
0.0
 70
0
  0
VERTEX
  8
0
 10
261.39099999999996
 20
105.833
 30
0.0
 70
0
  0
VERTEX
  8
0
 10
261.71799999999996
 20
105.296
 30
0.0
 70
0
  0
VERTEX
  8
0
 10
261.99
 20
104.731
 30
0.0
 70
0
  0
VERTEX
  8
0
 10
262.205
 20
104.142
 30
0.0
 70
0
  0
VERTEX
  8
0
 10
262.36
 20
103.533
 30
0.0
 70
0
  0
VERTEX
  8
0
 10
262.455
 20
102.909
 30
0.0
 70
0
  0
VERTEX
  8
0
 10
262.48699999999997
 20
102.432
 30
0.0
 70
0
  0
VERTEX
  8
0
 10
262.48699999999997
 20
102.273
 30
0.0
 70
0
  0
VERTEX
  8
0
 10
262.48699999999997
 20
96.4081
 30
0.0
 70
0
  0
SEQEND
  8
0
  0
POLYLINE
  8
0
 62
0
 66
1
 10
0.0
 20
0.0
 30
0.0
 70
1
  0
VERTEX
  8
0
 10
187.28209999999999
 20
119.458
 30
0.0
 70
0
  0
VERTEX
  8
0
 10
187.28209999999999
 20
118.358
 30
0.0
 70
0
  0
VERTEX
  8
0
 10
194.1566
 20
118.358
 30
0.0
 70
0
  0
VERTEX
  8
0
 10
194.1566
 20
119.458
 30
0.0
 70
0
  0
VERTEX
  8
0
 10
200.1161
 20
119.458
 30
0.0
 70
0
  0
VERTEX
  8
0
 10
200.1161
 20
118.323
 30
0.0
 70
0
  0
VERTEX
  8
0
 10
198.1979
 20
116.405
 30
0.0
 70
0
  0
VERTEX
  8
0
 10
198.9404
 20
115.662
 30
0.0
 70
0
  0
VERTEX
  8
0
 10
200.1161
 20
116.838
 30
0.0
 70
0
  0
VERTEX
  8
0
 10
200.1161
 20
106.872
 30
0.0
 70
0
  0
VERTEX
  8
0
 10
190.5706
 20
106.872
 30
0.0
 70
0
  0
VERTEX
  8
0
 10
190.5706
 20
105.772
 30
0.0
 70
0
  0
VERTEX
  8
0
 10
180.9752
 20
105.772
 30
0.0
 70
0
  0
VERTEX
  8
0
 10
180.9752
 20
119.458
 30
0.0
 70
0
  0
VERTEX
  8
0
 10
187.28209999999999
 20
119.458
 30
0.0
 70
0
  0
SEQEND
  8
0
  0
POLYLINE
  8
0
 62
0
 66
1
 10
0.0
 20
0.0
 30
0.0
 70
1
  0
VERTEX
  8
0
 10
215.33069999999998
 20
8.96056
 30
0.0
 70
0
  0
VERTEX
  8
0
 10
187.2239
 20
1.09131
 30
0.0
 70
0
  0
VERTEX
  8
0
 10
187.2239
 20
16.8299
 30
0.0
 70
0
  0
VERTEX
  8
0
 10
215.33069999999998
 20
8.96056
 30
0.0
 70
0
  0
SEQEND
  8
0
  0
POLYLINE
  8
0
 62
0
 66
1
 10
0.0
 20
0.0
 30
0.0
 70
1
  0
VERTEX
  8
0
 10
264.69899999999996
 20
58.0721
 30
0.0
 70
0
  0
VERTEX
  8
0
 10
263.599
 20
58.0721
 30
0.0
 70
0
  0
VERTEX
  8
0
 10
263.599
 20
67.6487
 30
0.0
 70
0
  0
VERTEX
  8
0
 10
272.71500000000003
 20
84.7046
 30
0.0
 70
0
  0
VERTEX
  8
0
 10
281.83
 20
67.6487
 30
0.0
 70
0
  0
VERTEX
  8
0
 10
281.83
 20
58.0721
 30
0.0
 70
0
  0
VERTEX
  8
0
 10
280.73
 20
58.0721
 30
0.0
 70
0
  0
VERTEX
  8
0
 10
280.73
 20
48.5265
 30
0.0
 70
0
  0
VERTEX
  8
0
 10
264.69899999999996
 20
48.5265
 30
0.0
 70
0
  0
VERTEX
  8
0
 10
264.69899999999996
 20
58.0721
 30
0.0
 70
0
  0
SEQEND
  8
0
  0
POLYLINE
  8
0
 62
0
 66
1
 10
0.0
 20
0.0
 30
0.0
 70
1
  0
VERTEX
  8
0
 10
274.625
 20
64.8585
 30
0.0
 70
0
  0
VERTEX
  8
0
 10
270.805
 20
64.8585
 30
0.0
 70
0
  0
VERTEX
  8
0
 10
270.805
 20
70.7235
 30
0.0
 70
0
  0
VERTEX
  8
0
 10
270.805
 20
70.8824
 30
0.0
 70
0
  0
VERTEX
  8
0
 10
270.837
 20
71.359
 30
0.0
 70
0
  0
VERTEX
  8
0
 10
270.932
 20
71.9833
 30
0.0
 70
0
  0
VERTEX
  8
0
 10
271.08799999999997
 20
72.5922
 30
0.0
 70
0
  0
VERTEX
  8
0
 10
271.302
 20
73.1814
 30
0.0
 70
0
  0
VERTEX
  8
0
 10
271.57399999999996
 20
73.7465
 30
0.0
 70
0
  0
VERTEX
  8
0
 10
271.902
 20
74.2831
 30
0.0
 70
0
  0
VERTEX
  8
0
 10
272.282
 20
74.7867
 30
0.0
 70
0
  0
VERTEX
  8
0
 10
272.601
 20
75.1424
 30
0.0
 70
0
  0
VERTEX
  8
0
 10
272.71500000000003
 20
75.2533
 30
0.0
 70
0
  0
VERTEX
  8
0
 10
272.829
 20
75.1424
 30
0.0
 70
0
  0
VERTEX
  8
0
 10
273.147
 20
74.7867
 30
0.0
 70
0
  0
VERTEX
  8
0
 10
273.529
 20
74.2831
 30
0.0
 70
0
  0
VERTEX
  8
0
 10
273.855
 20
73.7465
 30
0.0
 70
0
  0
VERTEX
  8
0
 10
274.128
 20
73.1814
 30
0.0
 70
0
  0
VERTEX
  8
0
 10
274.34299999999996
 20
72.5922
 30
0.0
 70
0
  0
VERTEX
  8
0
 10
274.498
 20
71.9833
 30
0.0
 70
0
  0
VERTEX
  8
0
 10
274.59299999999996
 20
71.359
 30
0.0
 70
0
  0
VERTEX
  8
0
 10
274.625
 20
70.8824
 30
0.0
 70
0
  0
VERTEX
  8
0
 10
274.625
 20
70.7235
 30
0.0
 70
0
  0
VERTEX
  8
0
 10
274.625
 20
64.8585
 30
0.0
 70
0
  0
SEQEND
  8
0
  0
POLYLINE
  8
0
 62
0
 66
1
 10
0.0
 20
0.0
 30
0.0
 70
1
  0
VERTEX
  8
0
 10
249.892
 20
180.893
 30
0.0
 70
0
  0
VERTEX
  8
0
 10
242.023
 20
209.0
 30
0.0
 70
0
  0
VERTEX
  8
0
 10
257.76099999999997
 20
209.0
 30
0.0
 70
0
  0
VERTEX
  8
0
 10
249.892
 20
180.893
 30
0.0
 70
0
  0
SEQEND
  8
0
  0
POLYLINE
  8
0
 62
0
 66
1
 10
0.0
 20
0.0
 30
0.0
 70
1
  0
VERTEX
  8
0
 10
201.4709
 20
13.8794
 30
0.0
 70
0
  0
VERTEX
  8
0
 10
229.5778
 20
21.7488
 30
0.0
 70
0
  0
VERTEX
  8
0
 10
229.5778
 20
6.01019
 30
0.0
 70
0
  0
VERTEX
  8
0
 10
201.4709
 20
13.8794
 30
0.0
 70
0
  0
SEQEND
  8
0
  0
POLYLINE
  8
0
 62
0
 66
1
 10
0.0
 20
0.0
 30
0.0
 70
1
  0
VERTEX
  8
0
 10
240.173
 20
17.7364
 30
0.0
 70
0
  0
VERTEX
  8
0
 10
240.173
 20
16.6364
 30
0.0
 70
0
  0
VERTEX
  8
0
 10
249.719
 20
16.6364
 30
0.0
 70
0
  0
VERTEX
  8
0
 10
249.719
 20
6.67031
 30
0.0
 70
0
  0
VERTEX
  8
0
 10
248.543
 20
7.84592
 30
0.0
 70
0
  0
VERTEX
  8
0
 10
247.801
 20
7.10346
 30
0.0
 70
0
  0
VERTEX
  8
0
 10
249.719
 20
5.18539
 30
0.0
 70
0
  0
VERTEX
  8
0
 10
249.719
 20
4.05003
 30
0.0
 70
0
  0
VERTEX
  8
0
 10
243.75900000000001
 20
4.05003
 30
0.0
 70
0
  0
VERTEX
  8
0
 10
243.75900000000001
 20
5.15001
 30
0.0
 70
0
  0
VERTEX
  8
0
 10
236.885
 20
5.15001
 30
0.0
 70
0
  0
VERTEX
  8
0
 10
236.885
 20
4.05003
 30
0.0
 70
0
  0
VERTEX
  8
0
 10
230.5778
 20
4.05003
 30
0.0
 70
0
  0
VERTEX
  8
0
 10
230.5778
 20
17.7364
 30
0.0
 70
0
  0
VERTEX
  8
0
 10
240.173
 20
17.7364
 30
0.0
 70
0
  0
SEQEND
  8
0
  0
POLYLINE
  8
0
 62
0
 66
1
 10
0.0
 20
0.0
 30
0.0
 70
1
  0
VERTEX
  8
0
 10
279.515
 20
172.554
 30
0.0
 70
0
  0
VERTEX
  8
0
 10
263.777
 20
172.554
 30
0.0
 70
0
  0
VERTEX
  8
0
 10
271.64599999999996
 20
200.66
 30
0.0
 70
0
  0
VERTEX
  8
0
 10
279.515
 20
172.554
 30
0.0
 70
0
  0
SEQEND
  8
0
  0
POLYLINE
  8
0
 62
0
 66
1
 10
0.0
 20
0.0
 30
0.0
 70
1
  0
VERTEX
  8
0
 10
271.762
 20
29.27
 30
0.0
 70
0
  0
VERTEX
  8
0
 10
271.762
 20
30.37
 30
0.0
 70
0
  0
VERTEX
  8
0
 10
262.216
 20
30.37
 30
0.0
 70
0
  0
VERTEX
  8
0
 10
262.216
 20
40.3361
 30
0.0
 70
0
  0
VERTEX
  8
0
 10
263.392
 20
39.1604
 30
0.0
 70
0
  0
VERTEX
  8
0
 10
264.134
 20
39.9029
 30
0.0
 70
0
  0
VERTEX
  8
0
 10
262.216
 20
41.8211
 30
0.0
 70
0
  0
VERTEX
  8
0
 10
262.216
 20
42.9564
 30
0.0
 70
0
  0
VERTEX
  8
0
 10
268.176
 20
42.9564
 30
0.0
 70
0
  0
VERTEX
  8
0
 10
268.176
 20
41.8564
 30
0.0
 70
0
  0
VERTEX
  8
0
 10
275.04999999999995
 20
41.8564
 30
0.0
 70
0
  0
VERTEX
  8
0
 10
275.04999999999995
 20
42.9564
 30
0.0
 70
0
  0
VERTEX
  8
0
 10
281.35699999999997
 20
42.9564
 30
0.0
 70
0
  0
VERTEX
  8
0
 10
281.35699999999997
 20
29.27
 30
0.0
 70
0
  0
VERTEX
  8
0
 10
271.762
 20
29.27
 30
0.0
 70
0
  0
SEQEND
  8
0
  0
ENDSEC
  0
EOF
