  0
SECTION
  2
HEADER
  9
$ACADVER
  1
AC1009
  9
$EXTMIN
 10
0.0
 20
0.0
 30
0.0
  9
$EXTMAX
 10
1000.0
 20
1000.0
 30
0.0
  9
$FILLMODE
 70
 0
  9
$SPLFRAME
 70
 1
  0
ENDSEC
  0
SECTION
  2
TABLES
  0
TABLE
  2
LAYER
 70
1
  0
LAYER
  2
0
 70
     0
 62
     7
  6
CONTINUOUS
  0
ENDTAB
  0
ENDSEC
  0
SECTION
  2
ENTITIES
  0
POLYLINE
  8
0
 62
     0
 66
     1
 10
0
 20
0
 30
0.0
 40
25.4
 41
25.4
  0
VERTEX
  8
0
 10
40.214
 20
11.325
 30
0.0
 40
0.352778
 41
0.352778
  0
VERTEX
  8
0
 10
41.214
 20
11.325
 30
0.0
 40
0.352778
 41
0.352778
  0
SEQEND
 8
0
  0
POLYLINE
  8
0
 62
     0
 66
     1
 10
0
 20
0
 30
0.0
 40
25.4
 41
25.4
  0
VERTEX
  8
0
 10
60.214
 20
11.325
 30
0.0
 40
0.352778
 41
0.352778
  0
VERTEX
  8
0
 10
61.214
 20
11.325
 30
0.0
 40
0.352778
 41
0.352778
  0
SEQEND
 8
0
  0
POLYLINE
  8
0
 62
     0
 66
     1
 10
0
 20
0
 30
0.0
 40
25.4
 41
25.4
  0
VERTEX
  8
0
 10
0.176378
 20
72.1411
 30
0.0
 40
0.352778
 41
0.352778
  0
VERTEX
  8
0
 10
101.252
 20
72.1411
 30
0.0
 40
0.352778
 41
0.352778
  0
VERTEX
  8
0
 10
101.252
 20
73.5858
 30
0.0
 40
0.352778
 41
0.352778
  0
VERTEX
  8
0
 10
100.252
 20
73.5858
 30
0.0
 40
0.352778
 41
0.352778
  0
VERTEX
  8
0
 10
100.252
 20
78.946
 30
0.0
 40
0.352778
 41
0.352778
  0
VERTEX
  8
0
 10
100.13
 20
78.8339
 30
0.0
 40
0.352778
 41
0.352778
  0
VERTEX
  8
0
 10
99.7553
 20
78.5089
 30
0.0
 40
0.352778
 41
0.352778
  0
VERTEX
  8
0
 10
99.241
 20
78.0972
 30
0.0
 40
0.352778
 41
0.352778
  0
VERTEX
  8
0
 10
98.7099
 20
77.7113
 30
0.0
 40
0.352778
 41
0.352778
  0
VERTEX
  8
0
 10
98.1626
 20
77.3514
 30
0.0
 40
0.352778
 41
0.352778
  0
VERTEX
  8
0
 10
97.6006
 20
77.0182
 30
0.0
 40
0.352778
 41
0.352778
  0
VERTEX
  8
0
 10
97.0246
 20
76.7119
 30
0.0
 40
0.352778
 41
0.352778
  0
VERTEX
  8
0
 10
96.4356
 20
76.4331
 30
0.0
 40
0.352778
 41
0.352778
  0
VERTEX
  8
0
 10
95.8344
 20
76.1818
 30
0.0
 40
0.352778
 41
0.352778
  0
VERTEX
  8
0
 10
95.2225
 20
75.9586
 30
0.0
 40
0.352778
 41
0.352778
  0
VERTEX
  8
0
 10
94.6004
 20
75.7639
 30
0.0
 40
0.352778
 41
0.352778
  0
VERTEX
  8
0
 10
93.9694
 20
75.5982
 30
0.0
 40
0.352778
 41
0.352778
  0
VERTEX
  8
0
 10
93.3304
 20
75.4617
 30
0.0
 40
0.352778
 41
0.352778
  0
VERTEX
  8
0
 10
92.6843
 20
75.3549
 30
0.0
 40
0.352778
 41
0.352778
  0
VERTEX
  8
0
 10
92.0322
 20
75.2781
 30
0.0
 40
0.352778
 41
0.352778
  0
VERTEX
  8
0
 10
91.3751
 20
75.2317
 30
0.0
 40
0.352778
 41
0.352778
  0
VERTEX
  8
0
 10
90.8793
 20
75.2161
 30
0.0
 40
0.352778
 41
0.352778
  0
VERTEX
  8
0
 10
90.714
 20
75.2161
 30
0.0
 40
0.352778
 41
0.352778
  0
VERTEX
  8
0
 10
90.5487
 20
75.2161
 30
0.0
 40
0.352778
 41
0.352778
  0
VERTEX
  8
0
 10
90.0528
 20
75.2317
 30
0.0
 40
0.352778
 41
0.352778
  0
VERTEX
  8
0
 10
89.3958
 20
75.2781
 30
0.0
 40
0.352778
 41
0.352778
  0
VERTEX
  8
0
 10
88.7437
 20
75.3549
 30
0.0
 40
0.352778
 41
0.352778
  0
VERTEX
  8
0
 10
88.0976
 20
75.4617
 30
0.0
 40
0.352778
 41
0.352778
  0
VERTEX
  8
0
 10
87.4586
 20
75.5982
 30
0.0
 40
0.352778
 41
0.352778
  0
VERTEX
  8
0
 10
86.8276
 20
75.7639
 30
0.0
 40
0.352778
 41
0.352778
  0
VERTEX
  8
0
 10
86.2056
 20
75.9586
 30
0.0
 40
0.352778
 41
0.352778
  0
VERTEX
  8
0
 10
85.5935
 20
76.1818
 30
0.0
 40
0.352778
 41
0.352778
  0
VERTEX
  8
0
 10
84.9925
 20
76.4331
 30
0.0
 40
0.352778
 41
0.352778
  0
VERTEX
  8
0
 10
84.4035
 20
76.7119
 30
0.0
 40
0.352778
 41
0.352778
  0
VERTEX
  8
0
 10
83.8274
 20
77.0182
 30
0.0
 40
0.352778
 41
0.352778
  0
VERTEX
  8
0
 10
83.2653
 20
77.3514
 30
0.0
 40
0.352778
 41
0.352778
  0
VERTEX
  8
0
 10
82.7182
 20
77.7113
 30
0.0
 40
0.352778
 41
0.352778
  0
VERTEX
  8
0
 10
82.1869
 20
78.0972
 30
0.0
 40
0.352778
 41
0.352778
  0
VERTEX
  8
0
 10
81.6728
 20
78.5089
 30
0.0
 40
0.352778
 41
0.352778
  0
VERTEX
  8
0
 10
81.2979
 20
78.8339
 30
0.0
 40
0.352778
 41
0.352778
  0
VERTEX
  8
0
 10
81.1765
 20
78.946
 30
0.0
 40
0.352778
 41
0.352778
  0
VERTEX
  8
0
 10
81.1765
 20
73.5858
 30
0.0
 40
0.352778
 41
0.352778
  0
VERTEX
  8
0
 10
80.2515
 20
73.5858
 30
0.0
 40
0.352778
 41
0.352778
  0
VERTEX
  8
0
 10
80.2515
 20
78.946
 30
0.0
 40
0.352778
 41
0.352778
  0
VERTEX
  8
0
 10
80.13
 20
78.8339
 30
0.0
 40
0.352778
 41
0.352778
  0
VERTEX
  8
0
 10
79.7553
 20
78.5089
 30
0.0
 40
0.352778
 41
0.352778
  0
VERTEX
  8
0
 10
79.241
 20
78.0972
 30
0.0
 40
0.352778
 41
0.352778
  0
VERTEX
  8
0
 10
78.7099
 20
77.7113
 30
0.0
 40
0.352778
 41
0.352778
  0
VERTEX
  8
0
 10
78.1626
 20
77.3514
 30
0.0
 40
0.352778
 41
0.352778
  0
VERTEX
  8
0
 10
77.6006
 20
77.0182
 30
0.0
 40
0.352778
 41
0.352778
  0
VERTEX
  8
0
 10
77.0244
 20
76.7119
 30
0.0
 40
0.352778
 41
0.352778
  0
VERTEX
  8
0
 10
76.4354
 20
76.4331
 30
0.0
 40
0.352778
 41
0.352778
  0
VERTEX
  8
0
 10
75.8344
 20
76.1818
 30
0.0
 40
0.352778
 41
0.352778
  0
VERTEX
  8
0
 10
75.2224
 20
75.9586
 30
0.0
 40
0.352778
 41
0.352778
  0
VERTEX
  8
0
 10
74.6004
 20
75.7639
 30
0.0
 40
0.352778
 41
0.352778
  0
VERTEX
  8
0
 10
73.9693
 20
75.5982
 30
0.0
 40
0.352778
 41
0.352778
  0
VERTEX
  8
0
 10
73.3303
 20
75.4617
 30
0.0
 40
0.352778
 41
0.352778
  0
VERTEX
  8
0
 10
72.6843
 20
75.3549
 30
0.0
 40
0.352778
 41
0.352778
  0
VERTEX
  8
0
 10
72.0322
 20
75.2781
 30
0.0
 40
0.352778
 41
0.352778
  0
VERTEX
  8
0
 10
71.3751
 20
75.2317
 30
0.0
 40
0.352778
 41
0.352778
  0
VERTEX
  8
0
 10
70.8792
 20
75.2161
 30
0.0
 40
0.352778
 41
0.352778
  0
VERTEX
  8
0
 10
70.714
 20
75.2161
 30
0.0
 40
0.352778
 41
0.352778
  0
VERTEX
  8
0
 10
70.5486
 20
75.2161
 30
0.0
 40
0.352778
 41
0.352778
  0
VERTEX
  8
0
 10
70.0528
 20
75.2317
 30
0.0
 40
0.352778
 41
0.352778
  0
VERTEX
  8
0
 10
69.3957
 20
75.2781
 30
0.0
 40
0.352778
 41
0.352778
  0
VERTEX
  8
0
 10
68.7436
 20
75.3549
 30
0.0
 40
0.352778
 41
0.352778
  0
VERTEX
  8
0
 10
68.0976
 20
75.4617
 30
0.0
 40
0.352778
 41
0.352778
  0
VERTEX
  8
0
 10
67.4586
 20
75.5982
 30
0.0
 40
0.352778
 41
0.352778
  0
VERTEX
  8
0
 10
66.8276
 20
75.7639
 30
0.0
 40
0.352778
 41
0.352778
  0
VERTEX
  8
0
 10
66.2056
 20
75.9586
 30
0.0
 40
0.352778
 41
0.352778
  0
VERTEX
  8
0
 10
65.5935
 20
76.1818
 30
0.0
 40
0.352778
 41
0.352778
  0
VERTEX
  8
0
 10
64.9925
 20
76.4331
 30
0.0
 40
0.352778
 41
0.352778
  0
VERTEX
  8
0
 10
64.4035
 20
76.7119
 30
0.0
 40
0.352778
 41
0.352778
  0
VERTEX
  8
0
 10
63.8274
 20
77.0182
 30
0.0
 40
0.352778
 41
0.352778
  0
VERTEX
  8
0
 10
63.2653
 20
77.3514
 30
0.0
 40
0.352778
 41
0.352778
  0
VERTEX
  8
0
 10
62.7182
 20
77.7113
 30
0.0
 40
0.352778
 41
0.352778
  0
VERTEX
  8
0
 10
62.1869
 20
78.0972
 30
0.0
 40
0.352778
 41
0.352778
  0
VERTEX
  8
0
 10
61.6728
 20
78.5089
 30
0.0
 40
0.352778
 41
0.352778
  0
VERTEX
  8
0
 10
61.2979
 20
78.8339
 30
0.0
 40
0.352778
 41
0.352778
  0
VERTEX
  8
0
 10
61.1765
 20
78.946
 30
0.0
 40
0.352778
 41
0.352778
  0
VERTEX
  8
0
 10
61.1765
 20
73.5858
 30
0.0
 40
0.352778
 41
0.352778
  0
VERTEX
  8
0
 10
60.2515
 20
73.5858
 30
0.0
 40
0.352778
 41
0.352778
  0
VERTEX
  8
0
 10
60.2515
 20
78.946
 30
0.0
 40
0.352778
 41
0.352778
  0
VERTEX
  8
0
 10
60.13
 20
78.8339
 30
0.0
 40
0.352778
 41
0.352778
  0
VERTEX
  8
0
 10
59.7551
 20
78.5089
 30
0.0
 40
0.352778
 41
0.352778
  0
VERTEX
  8
0
 10
59.241
 20
78.0972
 30
0.0
 40
0.352778
 41
0.352778
  0
VERTEX
  8
0
 10
58.7099
 20
77.7113
 30
0.0
 40
0.352778
 41
0.352778
  0
VERTEX
  8
0
 10
58.1626
 20
77.3514
 30
0.0
 40
0.352778
 41
0.352778
  0
VERTEX
  8
0
 10
57.6006
 20
77.0182
 30
0.0
 40
0.352778
 41
0.352778
  0
VERTEX
  8
0
 10
57.0244
 20
76.7119
 30
0.0
 40
0.352778
 41
0.352778
  0
VERTEX
  8
0
 10
56.4354
 20
76.4331
 30
0.0
 40
0.352778
 41
0.352778
  0
VERTEX
  8
0
 10
55.8344
 20
76.1818
 30
0.0
 40
0.352778
 41
0.352778
  0
VERTEX
  8
0
 10
55.2224
 20
75.9586
 30
0.0
 40
0.352778
 41
0.352778
  0
VERTEX
  8
0
 10
54.6004
 20
75.7639
 30
0.0
 40
0.352778
 41
0.352778
  0
VERTEX
  8
0
 10
53.9693
 20
75.5982
 30
0.0
 40
0.352778
 41
0.352778
  0
VERTEX
  8
0
 10
53.3303
 20
75.4617
 30
0.0
 40
0.352778
 41
0.352778
  0
VERTEX
  8
0
 10
52.6843
 20
75.3549
 30
0.0
 40
0.352778
 41
0.352778
  0
VERTEX
  8
0
 10
52.0322
 20
75.2781
 30
0.0
 40
0.352778
 41
0.352778
  0
VERTEX
  8
0
 10
51.3751
 20
75.2317
 30
0.0
 40
0.352778
 41
0.352778
  0
VERTEX
  8
0
 10
50.8792
 20
75.2161
 30
0.0
 40
0.352778
 41
0.352778
  0
VERTEX
  8
0
 10
50.714
 20
75.2161
 30
0.0
 40
0.352778
 41
0.352778
  0
VERTEX
  8
0
 10
50.5486
 20
75.2161
 30
0.0
 40
0.352778
 41
0.352778
  0
VERTEX
  8
0
 10
50.0528
 20
75.2317
 30
0.0
 40
0.352778
 41
0.352778
  0
VERTEX
  8
0
 10
49.3957
 20
75.2781
 30
0.0
 40
0.352778
 41
0.352778
  0
VERTEX
  8
0
 10
48.7436
 20
75.3549
 30
0.0
 40
0.352778
 41
0.352778
  0
VERTEX
  8
0
 10
48.0976
 20
75.4617
 30
0.0
 40
0.352778
 41
0.352778
  0
VERTEX
  8
0
 10
47.4586
 20
75.5982
 30
0.0
 40
0.352778
 41
0.352778
  0
VERTEX
  8
0
 10
46.8275
 20
75.7639
 30
0.0
 40
0.352778
 41
0.352778
  0
VERTEX
  8
0
 10
46.2056
 20
75.9586
 30
0.0
 40
0.352778
 41
0.352778
  0
VERTEX
  8
0
 10
45.5935
 20
76.1818
 30
0.0
 40
0.352778
 41
0.352778
  0
VERTEX
  8
0
 10
44.9925
 20
76.4331
 30
0.0
 40
0.352778
 41
0.352778
  0
VERTEX
  8
0
 10
44.4035
 20
76.7119
 30
0.0
 40
0.352778
 41
0.352778
  0
VERTEX
  8
0
 10
43.8274
 20
77.0182
 30
0.0
 40
0.352778
 41
0.352778
  0
VERTEX
  8
0
 10
43.2653
 20
77.3514
 30
0.0
 40
0.352778
 41
0.352778
  0
VERTEX
  8
0
 10
42.7181
 20
77.7113
 30
0.0
 40
0.352778
 41
0.352778
  0
VERTEX
  8
0
 10
42.1869
 20
78.0972
 30
0.0
 40
0.352778
 41
0.352778
  0
VERTEX
  8
0
 10
41.6726
 20
78.5089
 30
0.0
 40
0.352778
 41
0.352778
  0
VERTEX
  8
0
 10
41.2979
 20
78.8339
 30
0.0
 40
0.352778
 41
0.352778
  0
VERTEX
  8
0
 10
41.1764
 20
78.946
 30
0.0
 40
0.352778
 41
0.352778
  0
VERTEX
  8
0
 10
41.1764
 20
73.5858
 30
0.0
 40
0.352778
 41
0.352778
  0
VERTEX
  8
0
 10
40.2515
 20
73.5858
 30
0.0
 40
0.352778
 41
0.352778
  0
VERTEX
  8
0
 10
40.2515
 20
78.946
 30
0.0
 40
0.352778
 41
0.352778
  0
VERTEX
  8
0
 10
40.13
 20
78.8339
 30
0.0
 40
0.352778
 41
0.352778
  0
VERTEX
  8
0
 10
39.7551
 20
78.5089
 30
0.0
 40
0.352778
 41
0.352778
  0
VERTEX
  8
0
 10
39.241
 20
78.0972
 30
0.0
 40
0.352778
 41
0.352778
  0
VERTEX
  8
0
 10
38.7097
 20
77.7113
 30
0.0
 40
0.352778
 41
0.352778
  0
VERTEX
  8
0
 10
38.1626
 20
77.3514
 30
0.0
 40
0.352778
 41
0.352778
  0
VERTEX
  8
0
 10
37.6006
 20
77.0182
 30
0.0
 40
0.352778
 41
0.352778
  0
VERTEX
  8
0
 10
37.0244
 20
76.7119
 30
0.0
 40
0.352778
 41
0.352778
  0
VERTEX
  8
0
 10
36.4354
 20
76.4331
 30
0.0
 40
0.352778
 41
0.352778
  0
VERTEX
  8
0
 10
35.8343
 20
76.1818
 30
0.0
 40
0.352778
 41
0.352778
  0
VERTEX
  8
0
 10
35.2224
 20
75.9586
 30
0.0
 40
0.352778
 41
0.352778
  0
VERTEX
  8
0
 10
34.6003
 20
75.7639
 30
0.0
 40
0.352778
 41
0.352778
  0
VERTEX
  8
0
 10
33.9693
 20
75.5982
 30
0.0
 40
0.352778
 41
0.352778
  0
VERTEX
  8
0
 10
33.3303
 20
75.4617
 30
0.0
 40
0.352778
 41
0.352778
  0
VERTEX
  8
0
 10
32.6842
 20
75.3549
 30
0.0
 40
0.352778
 41
0.352778
  0
VERTEX
  8
0
 10
32.0321
 20
75.2781
 30
0.0
 40
0.352778
 41
0.352778
  0
VERTEX
  8
0
 10
31.375
 20
75.2317
 30
0.0
 40
0.352778
 41
0.352778
  0
VERTEX
  8
0
 10
30.8792
 20
75.2161
 30
0.0
 40
0.352778
 41
0.352778
  0
VERTEX
  8
0
 10
30.7139
 20
75.2161
 30
0.0
 40
0.352778
 41
0.352778
  0
VERTEX
  8
0
 10
30.5486
 20
75.2161
 30
0.0
 40
0.352778
 41
0.352778
  0
VERTEX
  8
0
 10
30.0528
 20
75.2317
 30
0.0
 40
0.352778
 41
0.352778
  0
VERTEX
  8
0
 10
29.3957
 20
75.2781
 30
0.0
 40
0.352778
 41
0.352778
  0
VERTEX
  8
0
 10
28.7436
 20
75.3549
 30
0.0
 40
0.352778
 41
0.352778
  0
VERTEX
  8
0
 10
28.0975
 20
75.4617
 30
0.0
 40
0.352778
 41
0.352778
  0
VERTEX
  8
0
 10
27.4586
 20
75.5982
 30
0.0
 40
0.352778
 41
0.352778
  0
VERTEX
  8
0
 10
26.8275
 20
75.7639
 30
0.0
 40
0.352778
 41
0.352778
  0
VERTEX
  8
0
 10
26.2056
 20
75.9586
 30
0.0
 40
0.352778
 41
0.352778
  0
VERTEX
  8
0
 10
25.5935
 20
76.1818
 30
0.0
 40
0.352778
 41
0.352778
  0
VERTEX
  8
0
 10
24.9924
 20
76.4331
 30
0.0
 40
0.352778
 41
0.352778
  0
VERTEX
  8
0
 10
24.4033
 20
76.7119
 30
0.0
 40
0.352778
 41
0.352778
  0
VERTEX
  8
0
 10
23.8274
 20
77.0182
 30
0.0
 40
0.352778
 41
0.352778
  0
VERTEX
  8
0
 10
23.2651
 20
77.3514
 30
0.0
 40
0.352778
 41
0.352778
  0
VERTEX
  8
0
 10
22.7181
 20
77.7113
 30
0.0
 40
0.352778
 41
0.352778
  0
VERTEX
  8
0
 10
22.1869
 20
78.0972
 30
0.0
 40
0.352778
 41
0.352778
  0
VERTEX
  8
0
 10
21.6726
 20
78.5089
 30
0.0
 40
0.352778
 41
0.352778
  0
VERTEX
  8
0
 10
21.2979
 20
78.8339
 30
0.0
 40
0.352778
 41
0.352778
  0
VERTEX
  8
0
 10
21.1764
 20
78.946
 30
0.0
 40
0.352778
 41
0.352778
  0
VERTEX
  8
0
 10
21.1764
 20
73.5858
 30
0.0
 40
0.352778
 41
0.352778
  0
VERTEX
  8
0
 10
20.2514
 20
73.5858
 30
0.0
 40
0.352778
 41
0.352778
  0
VERTEX
  8
0
 10
20.2514
 20
78.946
 30
0.0
 40
0.352778
 41
0.352778
  0
VERTEX
  8
0
 10
20.13
 20
78.8339
 30
0.0
 40
0.352778
 41
0.352778
  0
VERTEX
  8
0
 10
19.7551
 20
78.5089
 30
0.0
 40
0.352778
 41
0.352778
  0
VERTEX
  8
0
 10
19.2408
 20
78.0972
 30
0.0
 40
0.352778
 41
0.352778
  0
VERTEX
  8
0
 10
18.7097
 20
77.7113
 30
0.0
 40
0.352778
 41
0.352778
  0
VERTEX
  8
0
 10
18.1626
 20
77.3514
 30
0.0
 40
0.352778
 41
0.352778
  0
VERTEX
  8
0
 10
17.6004
 20
77.0182
 30
0.0
 40
0.352778
 41
0.352778
  0
VERTEX
  8
0
 10
17.0244
 20
76.7119
 30
0.0
 40
0.352778
 41
0.352778
  0
VERTEX
  8
0
 10
16.4354
 20
76.4331
 30
0.0
 40
0.352778
 41
0.352778
  0
VERTEX
  8
0
 10
15.8343
 20
76.1818
 30
0.0
 40
0.352778
 41
0.352778
  0
VERTEX
  8
0
 10
15.2222
 20
75.9586
 30
0.0
 40
0.352778
 41
0.352778
  0
VERTEX
  8
0
 10
14.6003
 20
75.7639
 30
0.0
 40
0.352778
 41
0.352778
  0
VERTEX
  8
0
 10
13.9693
 20
75.5982
 30
0.0
 40
0.352778
 41
0.352778
  0
VERTEX
  8
0
 10
13.3302
 20
75.4617
 30
0.0
 40
0.352778
 41
0.352778
  0
VERTEX
  8
0
 10
12.6842
 20
75.3549
 30
0.0
 40
0.352778
 41
0.352778
  0
VERTEX
  8
0
 10
12.0321
 20
75.2781
 30
0.0
 40
0.352778
 41
0.352778
  0
VERTEX
  8
0
 10
11.375
 20
75.2317
 30
0.0
 40
0.352778
 41
0.352778
  0
VERTEX
  8
0
 10
10.8792
 20
75.2161
 30
0.0
 40
0.352778
 41
0.352778
  0
VERTEX
  8
0
 10
10.7139
 20
75.2161
 30
0.0
 40
0.352778
 41
0.352778
  0
VERTEX
  8
0
 10
10.5486
 20
75.2161
 30
0.0
 40
0.352778
 41
0.352778
  0
VERTEX
  8
0
 10
10.0527
 20
75.2317
 30
0.0
 40
0.352778
 41
0.352778
  0
VERTEX
  8
0
 10
9.39567
 20
75.2781
 30
0.0
 40
0.352778
 41
0.352778
  0
VERTEX
  8
0
 10
8.7436
 20
75.3549
 30
0.0
 40
0.352778
 41
0.352778
  0
VERTEX
  8
0
 10
8.09754
 20
75.4617
 30
0.0
 40
0.352778
 41
0.352778
  0
VERTEX
  8
0
 10
7.4585
 20
75.5982
 30
0.0
 40
0.352778
 41
0.352778
  0
VERTEX
  8
0
 10
6.82747
 20
75.7639
 30
0.0
 40
0.352778
 41
0.352778
  0
VERTEX
  8
0
 10
6.20546
 20
75.9586
 30
0.0
 40
0.352778
 41
0.352778
  0
VERTEX
  8
0
 10
5.59343
 20
76.1818
 30
0.0
 40
0.352778
 41
0.352778
  0
VERTEX
  8
0
 10
4.9924
 20
76.4331
 30
0.0
 40
0.352778
 41
0.352778
  0
VERTEX
  8
0
 10
4.40338
 20
76.7119
 30
0.0
 40
0.352778
 41
0.352778
  0
VERTEX
  8
0
 10
3.82726
 20
77.0182
 30
0.0
 40
0.352778
 41
0.352778
  0
VERTEX
  8
0
 10
3.26519
 20
77.3514
 30
0.0
 40
0.352778
 41
0.352778
  0
VERTEX
  8
0
 10
2.71804
 20
77.7113
 30
0.0
 40
0.352778
 41
0.352778
  0
VERTEX
  8
0
 10
2.18685
 20
78.0972
 30
0.0
 40
0.352778
 41
0.352778
  0
VERTEX
  8
0
 10
1.67264
 20
78.5089
 30
0.0
 40
0.352778
 41
0.352778
  0
VERTEX
  8
0
 10
1.2978
 20
78.8339
 30
0.0
 40
0.352778
 41
0.352778
  0
VERTEX
  8
0
 10
1.17638
 20
78.946
 30
0.0
 40
0.352778
 41
0.352778
  0
VERTEX
  8
0
 10
1.17638
 20
73.5858
 30
0.0
 40
0.352778
 41
0.352778
  0
VERTEX
  8
0
 10
0.176378
 20
73.5858
 30
0.0
 40
0.352778
 41
0.352778
  0
VERTEX
  8
0
 10
0.176378
 20
67.9297
 30
0.0
 40
0.352778
 41
0.352778
  0
SEQEND
 8
0
  0
POLYLINE
  8
0
 62
     0
 66
     1
 10
0
 20
0
 30
0.0
 70
     1
 40
25.4
 41
25.4
  0
VERTEX
  8
0
 10
123.756
 20
45.7021
 30
0.0
 40
0.352778
 41
0.352778
  0
VERTEX
  8
0
 10
123.756
 20
45.4747
 30
0.0
 40
0.352778
 41
0.352778
  0
VERTEX
  8
0
 10
123.79
 20
44.7928
 30
0.0
 40
0.352778
 41
0.352778
  0
VERTEX
  8
0
 10
123.892
 20
43.8925
 30
0.0
 40
0.352778
 41
0.352778
  0
VERTEX
  8
0
 10
124.06
 20
43.0046
 30
0.0
 40
0.352778
 41
0.352778
  0
VERTEX
  8
0
 10
124.294
 20
42.1331
 30
0.0
 40
0.352778
 41
0.352778
  0
VERTEX
  8
0
 10
124.592
 20
41.2813
 30
0.0
 40
0.352778
 41
0.352778
  0
VERTEX
  8
0
 10
124.953
 20
40.4529
 30
0.0
 40
0.352778
 41
0.352778
  0
VERTEX
  8
0
 10
125.376
 20
39.6518
 30
0.0
 40
0.352778
 41
0.352778
  0
VERTEX
  8
0
 10
125.733
 20
39.069
 30
0.0
 40
0.352778
 41
0.352778
  0
VERTEX
  8
0
 10
125.861
 20
38.8812
 30
0.0
 40
0.352778
 41
0.352778
  0
VERTEX
  8
0
 10
125.925
 20
38.7872
 30
0.0
 40
0.352778
 41
0.352778
  0
VERTEX
  8
0
 10
126.124
 20
38.5097
 30
0.0
 40
0.352778
 41
0.352778
  0
VERTEX
  8
0
 10
126.401
 20
38.1493
 30
0.0
 40
0.352778
 41
0.352778
  0
VERTEX
  8
0
 10
126.691
 20
37.8004
 30
0.0
 40
0.352778
 41
0.352778
  0
VERTEX
  8
0
 10
126.993
 20
37.4629
 30
0.0
 40
0.352778
 41
0.352778
  0
VERTEX
  8
0
 10
127.307
 20
37.1376
 30
0.0
 40
0.352778
 41
0.352778
  0
VERTEX
  8
0
 10
127.632
 20
36.8244
 30
0.0
 40
0.352778
 41
0.352778
  0
VERTEX
  8
0
 10
127.969
 20
36.5239
 30
0.0
 40
0.352778
 41
0.352778
  0
VERTEX
  8
0
 10
128.317
 20
36.2361
 30
0.0
 40
0.352778
 41
0.352778
  0
VERTEX
  8
0
 10
128.675
 20
35.9615
 30
0.0
 40
0.352778
 41
0.352778
  0
VERTEX
  8
0
 10
129.043
 20
35.7004
 30
0.0
 40
0.352778
 41
0.352778
  0
VERTEX
  8
0
 10
129.421
 20
35.4531
 30
0.0
 40
0.352778
 41
0.352778
  0
VERTEX
  8
0
 10
129.808
 20
35.2197
 30
0.0
 40
0.352778
 41
0.352778
  0
VERTEX
  8
0
 10
130.204
 20
35.0007
 30
0.0
 40
0.352778
 41
0.352778
  0
VERTEX
  8
0
 10
130.609
 20
34.7964
 30
0.0
 40
0.352778
 41
0.352778
  0
VERTEX
  8
0
 10
131.022
 20
34.6069
 30
0.0
 40
0.352778
 41
0.352778
  0
VERTEX
  8
0
 10
131.337
 20
34.4743
 30
0.0
 40
0.352778
 41
0.352778
  0
VERTEX
  8
0
 10
131.443
 20
34.4328
 30
0.0
 40
0.352778
 41
0.352778
  0
VERTEX
  8
0
 10
131.783
 20
34.2996
 30
0.0
 40
0.352778
 41
0.352778
  0
VERTEX
  8
0
 10
132.816
 20
33.9319
 30
0.0
 40
0.352778
 41
0.352778
  0
VERTEX
  8
0
 10
134.204
 20
33.4979
 30
0.0
 40
0.352778
 41
0.352778
  0
VERTEX
  8
0
 10
135.608
 20
33.1306
 30
0.0
 40
0.352778
 41
0.352778
  0
VERTEX
  8
0
 10
137.023
 20
32.8301
 30
0.0
 40
0.352778
 41
0.352778
  0
VERTEX
  8
0
 10
138.447
 20
32.5962
 30
0.0
 40
0.352778
 41
0.352778
  0
VERTEX
  8
0
 10
139.878
 20
32.4293
 30
0.0
 40
0.352778
 41
0.352778
  0
VERTEX
  8
0
 10
141.315
 20
32.3292
 30
0.0
 40
0.352778
 41
0.352778
  0
VERTEX
  8
0
 10
142.753
 20
32.2958
 30
0.0
 40
0.352778
 41
0.352778
  0
VERTEX
  8
0
 10
144.192
 20
32.3292
 30
0.0
 40
0.352778
 41
0.352778
  0
VERTEX
  8
0
 10
145.628
 20
32.4293
 30
0.0
 40
0.352778
 41
0.352778
  0
VERTEX
  8
0
 10
147.06
 20
32.5962
 30
0.0
 40
0.352778
 41
0.352778
  0
VERTEX
  8
0
 10
148.483
 20
32.8301
 30
0.0
 40
0.352778
 41
0.352778
  0
VERTEX
  8
0
 10
149.899
 20
33.1306
 30
0.0
 40
0.352778
 41
0.352778
  0
VERTEX
  8
0
 10
151.301
 20
33.4979
 30
0.0
 40
0.352778
 41
0.352778
  0
VERTEX
  8
0
 10
152.69
 20
33.9319
 30
0.0
 40
0.352778
 41
0.352778
  0
VERTEX
  8
0
 10
153.724
 20
34.2996
 30
0.0
 40
0.352778
 41
0.352778
  0
VERTEX
  8
0
 10
154.064
 20
34.4328
 30
0.0
 40
0.352778
 41
0.352778
  0
VERTEX
  8
0
 10
154.181
 20
34.4789
 30
0.0
 40
0.352778
 41
0.352778
  0
VERTEX
  8
0
 10
154.529
 20
34.6269
 30
0.0
 40
0.352778
 41
0.352778
  0
VERTEX
  8
0
 10
154.986
 20
34.8397
 30
0.0
 40
0.352778
 41
0.352778
  0
VERTEX
  8
0
 10
155.433
 20
35.0707
 30
0.0
 40
0.352778
 41
0.352778
  0
VERTEX
  8
0
 10
155.868
 20
35.3194
 30
0.0
 40
0.352778
 41
0.352778
  0
VERTEX
  8
0
 10
156.292
 20
35.5856
 30
0.0
 40
0.352778
 41
0.352778
  0
VERTEX
  8
0
 10
156.704
 20
35.8688
 30
0.0
 40
0.352778
 41
0.352778
  0
VERTEX
  8
0
 10
157.104
 20
36.1683
 30
0.0
 40
0.352778
 41
0.352778
  0
VERTEX
  8
0
 10
157.49
 20
36.484
 30
0.0
 40
0.352778
 41
0.352778
  0
VERTEX
  8
0
 10
157.864
 20
36.8154
 30
0.0
 40
0.352778
 41
0.352778
  0
VERTEX
  8
0
 10
158.224
 20
37.1621
 30
0.0
 40
0.352778
 41
0.352778
  0
VERTEX
  8
0
 10
158.569
 20
37.5236
 30
0.0
 40
0.352778
 41
0.352778
  0
VERTEX
  8
0
 10
158.9
 20
37.8996
 30
0.0
 40
0.352778
 41
0.352778
  0
VERTEX
  8
0
 10
159.215
 20
38.2894
 30
0.0
 40
0.352778
 41
0.352778
  0
VERTEX
  8
0
 10
159.515
 20
38.6931
 30
0.0
 40
0.352778
 41
0.352778
  0
VERTEX
  8
0
 10
159.799
 20
39.1097
 30
0.0
 40
0.352778
 41
0.352778
  0
VERTEX
  8
0
 10
160
 20
39.4306
 30
0.0
 40
0.352778
 41
0.352778
  0
VERTEX
  8
0
 10
160.064
 20
39.5392
 30
0.0
 40
0.352778
 41
0.352778
  0
VERTEX
  8
0
 10
160.129
 20
39.6479
 30
0.0
 40
0.352778
 41
0.352778
  0
VERTEX
  8
0
 10
160.313
 20
39.9794
 30
0.0
 40
0.352778
 41
0.352778
  0
VERTEX
  8
0
 10
160.542
 20
40.4283
 30
0.0
 40
0.352778
 41
0.352778
  0
VERTEX
  8
0
 10
160.751
 20
40.885
 30
0.0
 40
0.352778
 41
0.352778
  0
VERTEX
  8
0
 10
160.94
 20
41.349
 30
0.0
 40
0.352778
 41
0.352778
  0
VERTEX
  8
0
 10
161.111
 20
41.8199
 30
0.0
 40
0.352778
 41
0.352778
  0
VERTEX
  8
0
 10
161.263
 20
42.2967
 30
0.0
 40
0.352778
 41
0.352778
  0
VERTEX
  8
0
 10
161.393
 20
42.7788
 30
0.0
 40
0.352778
 41
0.352778
  0
VERTEX
  8
0
 10
161.503
 20
43.2658
 30
0.0
 40
0.352778
 41
0.352778
  0
VERTEX
  8
0
 10
161.593
 20
43.7569
 30
0.0
 40
0.352778
 41
0.352778
  0
VERTEX
  8
0
 10
161.664
 20
44.2515
 30
0.0
 40
0.352778
 41
0.352778
  0
VERTEX
  8
0
 10
161.714
 20
44.749
 30
0.0
 40
0.352778
 41
0.352778
  0
VERTEX
  8
0
 10
161.742
 20
45.2487
 30
0.0
 40
0.352778
 41
0.352778
  0
VERTEX
  8
0
 10
161.751
 20
45.7501
 30
0.0
 40
0.352778
 41
0.352778
  0
VERTEX
  8
0
 10
161.739
 20
46.2525
 30
0.0
 40
0.352778
 41
0.352778
  0
VERTEX
  8
0
 10
161.706
 20
46.7553
 30
0.0
 40
0.352778
 41
0.352778
  0
VERTEX
  8
0
 10
161.667
 20
47.1324
 30
0.0
 40
0.352778
 41
0.352778
  0
VERTEX
  8
0
 10
161.65
 20
47.2576
 30
0.0
 40
0.352778
 41
0.352778
  0
VERTEX
  8
0
 10
161.65
 20
77.2908
 30
0.0
 40
0.352778
 41
0.352778
  0
VERTEX
  8
0
 10
123.756
 20
77.2908
 30
0.0
 40
0.352778
 41
0.352778
  0
VERTEX
  8
0
 10
123.756
 20
45.7021
 30
0.0
 40
0.352778
 41
0.352778
  0
SEQEND
 8
0
  0
POLYLINE
  8
0
 62
     0
 66
     1
 10
0
 20
0
 30
0.0
 70
     1
 40
25.4
 41
25.4
  0
VERTEX
  8
0
 10
145.347
 20
37.2857
 30
0.0
 40
0.352778
 41
0.352778
  0
VERTEX
  8
0
 10
127.342
 20
37.2857
 30
0.0
 40
0.352778
 41
0.352778
  0
VERTEX
  8
0
 10
127.342
 20
77.2908
 30
0.0
 40
0.352778
 41
0.352778
  0
VERTEX
  8
0
 10
127.693
 20
77.291
 30
0.0
 40
0.352778
 41
0.352778
  0
VERTEX
  8
0
 10
128.745
 20
77.2582
 30
0.0
 40
0.352778
 41
0.352778
  0
VERTEX
  8
0
 10
130.143
 20
77.16
 30
0.0
 40
0.352778
 41
0.352778
  0
VERTEX
  8
0
 10
131.533
 20
76.9971
 30
0.0
 40
0.352778
 41
0.352778
  0
VERTEX
  8
0
 10
132.913
 20
76.7694
 30
0.0
 40
0.352778
 41
0.352778
  0
VERTEX
  8
0
 10
134.282
 20
76.4778
 30
0.0
 40
0.352778
 41
0.352778
  0
VERTEX
  8
0
 10
135.636
 20
76.1225
 30
0.0
 40
0.352778
 41
0.352778
  0
VERTEX
  8
0
 10
136.973
 20
75.7039
 30
0.0
 40
0.352778
 41
0.352778
  0
VERTEX
  8
0
 10
137.965
 20
75.3504
 30
0.0
 40
0.352778
 41
0.352778
  0
VERTEX
  8
0
 10
138.291
 20
75.2225
 30
0.0
 40
0.352778
 41
0.352778
  0
VERTEX
  8
0
 10
138.486
 20
75.1464
 30
0.0
 40
0.352778
 41
0.352778
  0
VERTEX
  8
0
 10
139.057
 20
74.8888
 30
0.0
 40
0.352778
 41
0.352778
  0
VERTEX
  8
0
 10
139.792
 20
74.5001
 30
0.0
 40
0.352778
 41
0.352778
  0
VERTEX
  8
0
 10
140.494
 20
74.059
 30
0.0
 40
0.352778
 41
0.352778
  0
VERTEX
  8
0
 10
141.161
 20
73.5674
 30
0.0
 40
0.352778
 41
0.352778
  0
VERTEX
  8
0
 10
141.789
 20
73.0274
 30
0.0
 40
0.352778
 41
0.352778
  0
VERTEX
  8
0
 10
142.376
 20
72.4414
 30
0.0
 40
0.352778
 41
0.352778
  0
VERTEX
  8
0
 10
142.919
 20
71.8114
 30
0.0
 40
0.352778
 41
0.352778
  0
VERTEX
  8
0
 10
143.297
 20
71.3119
 30
0.0
 40
0.352778
 41
0.352778
  0
VERTEX
  8
0
 10
143.415
 20
71.1396
 30
0.0
 40
0.352778
 41
0.352778
  0
VERTEX
  8
0
 10
143.533
 20
70.9672
 30
0.0
 40
0.352778
 41
0.352778
  0
VERTEX
  8
0
 10
143.86
 20
70.4325
 30
0.0
 40
0.352778
 41
0.352778
  0
VERTEX
  8
0
 10
144.249
 20
69.6972
 30
0.0
 40
0.352778
 41
0.352778
  0
VERTEX
  8
0
 10
144.579
 20
68.9369
 30
0.0
 40
0.352778
 41
0.352778
  0
VERTEX
  8
0
 10
144.853
 20
68.1553
 30
0.0
 40
0.352778
 41
0.352778
  0
VERTEX
  8
0
 10
145.068
 20
67.3553
 30
0.0
 40
0.352778
 41
0.352778
  0
VERTEX
  8
0
 10
145.222
 20
66.5404
 30
0.0
 40
0.352778
 41
0.352778
  0
VERTEX
  8
0
 10
145.315
 20
65.714
 30
0.0
 40
0.352778
 41
0.352778
  0
VERTEX
  8
0
 10
145.347
 20
65.0882
 30
0.0
 40
0.352778
 41
0.352778
  0
VERTEX
  8
0
 10
145.347
 20
64.8794
 30
0.0
 40
0.352778
 41
0.352778
  0
VERTEX
  8
0
 10
145.347
 20
37.2857
 30
0.0
 40
0.352778
 41
0.352778
  0
SEQEND
 8
0
  0
POLYLINE
  8
0
 62
     0
 66
     1
 10
0
 20
0
 30
0.0
 40
25.4
 41
25.4
  0
VERTEX
  8
0
 10
101.252
 20
22.2957
 30
0.0
 40
0.352778
 41
0.352778
  0
VERTEX
  8
0
 10
101.252
 20
21.945
 30
0.0
 40
0.352778
 41
0.352778
  0
VERTEX
  8
0
 10
101.284
 20
20.8925
 30
0.0
 40
0.352778
 41
0.352778
  0
VERTEX
  8
0
 10
101.382
 20
19.4947
 30
0.0
 40
0.352778
 41
0.352778
  0
VERTEX
  8
0
 10
101.545
 20
18.1044
 30
0.0
 40
0.352778
 41
0.352778
  0
VERTEX
  8
0
 10
101.773
 20
16.7242
 30
0.0
 40
0.352778
 41
0.352778
  0
VERTEX
  8
0
 10
102.065
 20
15.3558
 30
0.0
 40
0.352778
 41
0.352778
  0
VERTEX
  8
0
 10
102.42
 20
14.0019
 30
0.0
 40
0.352778
 41
0.352778
  0
VERTEX
  8
0
 10
102.838
 20
12.6647
 30
0.0
 40
0.352778
 41
0.352778
  0
VERTEX
  8
0
 10
103.192
 20
11.6728
 30
0.0
 40
0.352778
 41
0.352778
  0
VERTEX
  8
0
 10
103.32
 20
11.3462
 30
0.0
 40
0.352778
 41
0.352778
  0
VERTEX
  8
0
 10
103.396
 20
11.152
 30
0.0
 40
0.352778
 41
0.352778
  0
VERTEX
  8
0
 10
103.654
 20
10.5807
 30
0.0
 40
0.352778
 41
0.352778
  0
VERTEX
  8
0
 10
104.042
 20
9.84538
 30
0.0
 40
0.352778
 41
0.352778
  0
VERTEX
  8
0
 10
104.483
 20
9.14312
 30
0.0
 40
0.352778
 41
0.352778
  0
VERTEX
  8
0
 10
104.975
 20
8.47657
 30
0.0
 40
0.352778
 41
0.352778
  0
VERTEX
  8
0
 10
105.515
 20
7.84853
 30
0.0
 40
0.352778
 41
0.352778
  0
VERTEX
  8
0
 10
106.101
 20
7.26172
 30
0.0
 40
0.352778
 41
0.352778
  0
VERTEX
  8
0
 10
106.731
 20
6.71881
 30
0.0
 40
0.352778
 41
0.352778
  0
VERTEX
  8
0
 10
107.23
 20
6.34011
 30
0.0
 40
0.352778
 41
0.352778
  0
VERTEX
  8
0
 10
107.403
 20
6.22254
 30
0.0
 40
0.352778
 41
0.352778
  0
VERTEX
  8
0
 10
107.575
 20
6.10499
 30
0.0
 40
0.352778
 41
0.352778
  0
VERTEX
  8
0
 10
108.11
 20
5.77821
 30
0.0
 40
0.352778
 41
0.352778
  0
VERTEX
  8
0
 10
108.845
 20
5.38976
 30
0.0
 40
0.352778
 41
0.352778
  0
VERTEX
  8
0
 10
109.605
 20
5.05821
 30
0.0
 40
0.352778
 41
0.352778
  0
VERTEX
  8
0
 10
110.387
 20
4.78467
 30
0.0
 40
0.352778
 41
0.352778
  0
VERTEX
  8
0
 10
111.187
 20
4.5701
 30
0.0
 40
0.352778
 41
0.352778
  0
VERTEX
  8
0
 10
112.002
 20
4.41558
 30
0.0
 40
0.352778
 41
0.352778
  0
VERTEX
  8
0
 10
112.828
 20
4.3221
 30
0.0
 40
0.352778
 41
0.352778
  0
VERTEX
  8
0
 10
113.454
 20
4.29069
 30
0.0
 40
0.352778
 41
0.352778
  0
VERTEX
  8
0
 10
113.663
 20
4.29069
 30
0.0
 40
0.352778
 41
0.352778
  0
VERTEX
  8
0
 10
141.257
 20
4.29069
 30
0.0
 40
0.352778
 41
0.352778
  0
VERTEX
  8
0
 10
141.257
 20
22.2957
 30
0.0
 40
0.352778
 41
0.352778
  0
SEQEND
 8
0
  0
POLYLINE
  8
0
 62
     0
 66
     1
 10
0
 20
0
 30
0.0
 70
     1
 40
25.4
 41
25.4
  0
VERTEX
  8
0
 10
184.478
 20
59.7744
 30
0.0
 40
0.352778
 41
0.352778
  0
VERTEX
  8
0
 10
184.478
 20
38.9238
 30
0.0
 40
0.352778
 41
0.352778
  0
VERTEX
  8
0
 10
190.189
 20
38.9238
 30
0.0
 40
0.352778
 41
0.352778
  0
VERTEX
  8
0
 10
190.189
 20
45.9987
 30
0.0
 40
0.352778
 41
0.352778
  0
VERTEX
  8
0
 10
187.553
 20
45.9987
 30
0.0
 40
0.352778
 41
0.352778
  0
VERTEX
  8
0
 10
187.553
 20
66.6511
 30
0.0
 40
0.352778
 41
0.352778
  0
VERTEX
  8
0
 10
208.75
 20
66.6511
 30
0.0
 40
0.352778
 41
0.352778
  0
VERTEX
  8
0
 10
208.75
 20
45.9987
 30
0.0
 40
0.352778
 41
0.352778
  0
VERTEX
  8
0
 10
206.114
 20
45.9987
 30
0.0
 40
0.352778
 41
0.352778
  0
VERTEX
  8
0
 10
206.114
 20
38.9238
 30
0.0
 40
0.352778
 41
0.352778
  0
VERTEX
  8
0
 10
211.825
 20
38.9238
 30
0.0
 40
0.352778
 41
0.352778
  0
VERTEX
  8
0
 10
211.825
 20
59.7744
 30
0.0
 40
0.352778
 41
0.352778
  0
VERTEX
  8
0
 10
210.325
 20
59.7744
 30
0.0
 40
0.352778
 41
0.352778
  0
VERTEX
  8
0
 10
210.325
 20
60.6994
 30
0.0
 40
0.352778
 41
0.352778
  0
VERTEX
  8
0
 10
211.825
 20
60.6994
 30
0.0
 40
0.352778
 41
0.352778
  0
VERTEX
  8
0
 10
211.825
 20
66.6885
 30
0.0
 40
0.352778
 41
0.352778
  0
VERTEX
  8
0
 10
211.825
 20
66.8642
 30
0.0
 40
0.352778
 41
0.352778
  0
VERTEX
  8
0
 10
211.807
 20
67.3911
 30
0.0
 40
0.352778
 41
0.352778
  0
VERTEX
  8
0
 10
211.753
 20
68.0886
 30
0.0
 40
0.352778
 41
0.352778
  0
VERTEX
  8
0
 10
211.664
 20
68.7796
 30
0.0
 40
0.352778
 41
0.352778
  0
VERTEX
  8
0
 10
211.54
 20
69.4631
 30
0.0
 40
0.352778
 41
0.352778
  0
VERTEX
  8
0
 10
211.383
 20
70.1378
 30
0.0
 40
0.352778
 41
0.352778
  0
VERTEX
  8
0
 10
211.192
 20
70.8024
 30
0.0
 40
0.352778
 41
0.352778
  0
VERTEX
  8
0
 10
210.967
 20
71.4556
 30
0.0
 40
0.352778
 41
0.352778
  0
VERTEX
  8
0
 10
210.71
 20
72.0964
 30
0.0
 40
0.352778
 41
0.352778
  0
VERTEX
  8
0
 10
210.421
 20
72.7233
 30
0.0
 40
0.352778
 41
0.352778
  0
VERTEX
  8
0
 10
210.101
 20
73.3353
 30
0.0
 40
0.352778
 41
0.352778
  0
VERTEX
  8
0
 10
209.75
 20
73.931
 30
0.0
 40
0.352778
 41
0.352778
  0
VERTEX
  8
0
 10
209.368
 20
74.5092
 30
0.0
 40
0.352778
 41
0.352778
  0
VERTEX
  8
0
 10
208.956
 20
75.0688
 30
0.0
 40
0.352778
 41
0.352778
  0
VERTEX
  8
0
 10
208.515
 20
75.6082
 30
0.0
 40
0.352778
 41
0.352778
  0
VERTEX
  8
0
 10
208.046
 20
76.1265
 30
0.0
 40
0.352778
 41
0.352778
  0
VERTEX
  8
0
 10
207.675
 20
76.5018
 30
0.0
 40
0.352778
 41
0.352778
  0
VERTEX
  8
0
 10
207.547
 20
76.6224
 30
0.0
 40
0.352778
 41
0.352778
  0
VERTEX
  8
0
 10
207.286
 20
76.7458
 30
0.0
 40
0.352778
 41
0.352778
  0
VERTEX
  8
0
 10
206.487
 20
77.0886
 30
0.0
 40
0.352778
 41
0.352778
  0
VERTEX
  8
0
 10
205.406
 20
77.4976
 30
0.0
 40
0.352778
 41
0.352778
  0
VERTEX
  8
0
 10
204.307
 20
77.849
 30
0.0
 40
0.352778
 41
0.352778
  0
VERTEX
  8
0
 10
203.19
 20
78.1421
 30
0.0
 40
0.352778
 41
0.352778
  0
VERTEX
  8
0
 10
202.061
 20
78.3764
 30
0.0
 40
0.352778
 41
0.352778
  0
VERTEX
  8
0
 10
200.921
 20
78.5514
 30
0.0
 40
0.352778
 41
0.352778
  0
VERTEX
  8
0
 10
199.771
 20
78.6665
 30
0.0
 40
0.352778
 41
0.352778
  0
VERTEX
  8
0
 10
198.903
 20
78.7151
 30
0.0
 40
0.352778
 41
0.352778
  0
VERTEX
  8
0
 10
198.614
 20
78.7213
 30
0.0
 40
0.352778
 41
0.352778
  0
VERTEX
  8
0
 10
198.614
 20
77.3524
 30
0.0
 40
0.352778
 41
0.352778
  0
VERTEX
  8
0
 10
198.536
 20
77.3557
 30
0.0
 40
0.352778
 41
0.352778
  0
VERTEX
  8
0
 10
197.765
 20
77.3557
 30
0.0
 40
0.352778
 41
0.352778
  0
VERTEX
  8
0
 10
197.689
 20
77.3524
 30
0.0
 40
0.352778
 41
0.352778
  0
VERTEX
  8
0
 10
197.689
 20
78.7213
 30
0.0
 40
0.352778
 41
0.352778
  0
VERTEX
  8
0
 10
197.399
 20
78.7151
 30
0.0
 40
0.352778
 41
0.352778
  0
VERTEX
  8
0
 10
196.532
 20
78.6665
 30
0.0
 40
0.352778
 41
0.352778
  0
VERTEX
  8
0
 10
195.382
 20
78.5514
 30
0.0
 40
0.352778
 41
0.352778
  0
VERTEX
  8
0
 10
194.24
 20
78.3764
 30
0.0
 40
0.352778
 41
0.352778
  0
VERTEX
  8
0
 10
193.111
 20
78.1421
 30
0.0
 40
0.352778
 41
0.352778
  0
VERTEX
  8
0
 10
191.996
 20
77.849
 30
0.0
 40
0.352778
 41
0.352778
  0
VERTEX
  8
0
 10
190.896
 20
77.4976
 30
0.0
 40
0.352778
 41
0.352778
  0
VERTEX
  8
0
 10
189.815
 20
77.0886
 30
0.0
 40
0.352778
 41
0.352778
  0
VERTEX
  8
0
 10
189.017
 20
76.7458
 30
0.0
 40
0.352778
 41
0.352778
  0
VERTEX
  8
0
 10
188.754
 20
76.6224
 30
0.0
 40
0.352778
 41
0.352778
  0
VERTEX
  8
0
 10
188.626
 20
76.5018
 30
0.0
 40
0.352778
 41
0.352778
  0
VERTEX
  8
0
 10
188.257
 20
76.1265
 30
0.0
 40
0.352778
 41
0.352778
  0
VERTEX
  8
0
 10
187.786
 20
75.6082
 30
0.0
 40
0.352778
 41
0.352778
  0
VERTEX
  8
0
 10
187.346
 20
75.0688
 30
0.0
 40
0.352778
 41
0.352778
  0
VERTEX
  8
0
 10
186.935
 20
74.5092
 30
0.0
 40
0.352778
 41
0.352778
  0
VERTEX
  8
0
 10
186.553
 20
73.931
 30
0.0
 40
0.352778
 41
0.352778
  0
VERTEX
  8
0
 10
186.201
 20
73.3353
 30
0.0
 40
0.352778
 41
0.352778
  0
VERTEX
  8
0
 10
185.881
 20
72.7233
 30
0.0
 40
0.352778
 41
0.352778
  0
VERTEX
  8
0
 10
185.592
 20
72.0964
 30
0.0
 40
0.352778
 41
0.352778
  0
VERTEX
  8
0
 10
185.335
 20
71.4556
 30
0.0
 40
0.352778
 41
0.352778
  0
VERTEX
  8
0
 10
185.111
 20
70.8024
 30
0.0
 40
0.352778
 41
0.352778
  0
VERTEX
  8
0
 10
184.919
 20
70.1378
 30
0.0
 40
0.352778
 41
0.352778
  0
VERTEX
  8
0
 10
184.761
 20
69.4631
 30
0.0
 40
0.352778
 41
0.352778
  0
VERTEX
  8
0
 10
184.638
 20
68.7796
 30
0.0
 40
0.352778
 41
0.352778
  0
VERTEX
  8
0
 10
184.549
 20
68.0886
 30
0.0
 40
0.352778
 41
0.352778
  0
VERTEX
  8
0
 10
184.496
 20
67.3911
 30
0.0
 40
0.352778
 41
0.352778
  0
VERTEX
  8
0
 10
184.478
 20
66.8642
 30
0.0
 40
0.352778
 41
0.352778
  0
VERTEX
  8
0
 10
184.478
 20
66.6885
 30
0.0
 40
0.352778
 41
0.352778
  0
VERTEX
  8
0
 10
184.478
 20
60.6994
 30
0.0
 40
0.352778
 41
0.352778
  0
VERTEX
  8
0
 10
185.978
 20
60.6994
 30
0.0
 40
0.352778
 41
0.352778
  0
VERTEX
  8
0
 10
185.978
 20
59.7744
 30
0.0
 40
0.352778
 41
0.352778
  0
VERTEX
  8
0
 10
184.478
 20
59.7744
 30
0.0
 40
0.352778
 41
0.352778
  0
SEQEND
 8
0
  0
POLYLINE
  8
0
 62
     0
 66
     1
 10
0
 20
0
 30
0.0
 70
     1
 40
25.4
 41
25.4
  0
VERTEX
  8
0
 10
200.404
 20
68.726
 30
0.0
 40
0.352778
 41
0.352778
  0
VERTEX
  8
0
 10
200.342
 20
68.7946
 30
0.0
 40
0.352778
 41
0.352778
  0
VERTEX
  8
0
 10
200.139
 20
68.985
 30
0.0
 40
0.352778
 41
0.352778
  0
VERTEX
  8
0
 10
199.846
 20
69.209
 30
0.0
 40
0.352778
 41
0.352778
  0
VERTEX
  8
0
 10
199.528
 20
69.396
 30
0.0
 40
0.352778
 41
0.352778
  0
VERTEX
  8
0
 10
199.275
 20
69.5118
 30
0.0
 40
0.352778
 41
0.352778
  0
VERTEX
  8
0
 10
199.189
 20
69.5433
 30
0.0
 40
0.352778
 41
0.352778
  0
VERTEX
  8
0
 10
199.189
 20
75.6226
 30
0.0
 40
0.352778
 41
0.352778
  0
VERTEX
  8
0
 10
199.388
 20
75.6118
 30
0.0
 40
0.352778
 41
0.352778
  0
VERTEX
  8
0
 10
199.983
 20
75.5624
 30
0.0
 40
0.352778
 41
0.352778
  0
VERTEX
  8
0
 10
200.774
 20
75.4689
 30
0.0
 40
0.352778
 41
0.352778
  0
VERTEX
  8
0
 10
201.558
 20
75.3425
 30
0.0
 40
0.352778
 41
0.352778
  0
VERTEX
  8
0
 10
202.337
 20
75.1833
 30
0.0
 40
0.352778
 41
0.352778
  0
VERTEX
  8
0
 10
203.108
 20
74.9915
 30
0.0
 40
0.352778
 41
0.352778
  0
VERTEX
  8
0
 10
203.871
 20
74.7676
 30
0.0
 40
0.352778
 41
0.352778
  0
VERTEX
  8
0
 10
204.625
 20
74.5118
 30
0.0
 40
0.352778
 41
0.352778
  0
VERTEX
  8
0
 10
205.183
 20
74.2999
 30
0.0
 40
0.352778
 41
0.352778
  0
VERTEX
  8
0
 10
205.368
 20
74.224
 30
0.0
 40
0.352778
 41
0.352778
  0
VERTEX
  8
0
 10
205.419
 20
74.2028
 30
0.0
 40
0.352778
 41
0.352778
  0
VERTEX
  8
0
 10
205.569
 20
74.1271
 30
0.0
 40
0.352778
 41
0.352778
  0
VERTEX
  8
0
 10
205.76
 20
74.0081
 30
0.0
 40
0.352778
 41
0.352778
  0
VERTEX
  8
0
 10
205.933
 20
73.8683
 30
0.0
 40
0.352778
 41
0.352778
  0
VERTEX
  8
0
 10
206.054
 20
73.7511
 30
0.0
 40
0.352778
 41
0.352778
  0
VERTEX
  8
0
 10
206.092
 20
73.7092
 30
0.0
 40
0.352778
 41
0.352778
  0
VERTEX
  8
0
 10
206.208
 20
73.5771
 30
0.0
 40
0.352778
 41
0.352778
  0
VERTEX
  8
0
 10
206.54
 20
73.1654
 30
0.0
 40
0.352778
 41
0.352778
  0
VERTEX
  8
0
 10
206.951
 20
72.5949
 30
0.0
 40
0.352778
 41
0.352778
  0
VERTEX
  8
0
 10
207.324
 20
71.9996
 30
0.0
 40
0.352778
 41
0.352778
  0
VERTEX
  8
0
 10
207.654
 20
71.3818
 30
0.0
 40
0.352778
 41
0.352778
  0
VERTEX
  8
0
 10
207.943
 20
70.7435
 30
0.0
 40
0.352778
 41
0.352778
  0
VERTEX
  8
0
 10
208.19
 20
70.0867
 30
0.0
 40
0.352778
 41
0.352778
  0
VERTEX
  8
0
 10
208.393
 20
69.4135
 30
0.0
 40
0.352778
 41
0.352778
  0
VERTEX
  8
0
 10
208.518
 20
68.899
 30
0.0
 40
0.352778
 41
0.352778
  0
VERTEX
  8
0
 10
208.553
 20
68.726
 30
0.0
 40
0.352778
 41
0.352778
  0
VERTEX
  8
0
 10
200.404
 20
68.726
 30
0.0
 40
0.352778
 41
0.352778
  0
SEQEND
 8
0
  0
POLYLINE
  8
0
 62
     0
 66
     1
 10
0
 20
0
 30
0.0
 70
     1
 40
25.4
 41
25.4
  0
VERTEX
  8
0
 10
206.432
 20
75.6238
 30
0.0
 40
0.352778
 41
0.352778
  0
VERTEX
  8
0
 10
207.086
 20
74.9697
 30
0.0
 40
0.352778
 41
0.352778
  0
VERTEX
  8
0
 10
208.082
 20
75.9656
 30
0.0
 40
0.352778
 41
0.352778
  0
VERTEX
  8
0
 10
208.026
 20
76.0197
 30
0.0
 40
0.352778
 41
0.352778
  0
VERTEX
  8
0
 10
207.733
 20
76.2743
 30
0.0
 40
0.352778
 41
0.352778
  0
VERTEX
  8
0
 10
207.422
 20
76.5063
 30
0.0
 40
0.352778
 41
0.352778
  0
VERTEX
  8
0
 10
207.357
 20
76.549
 30
0.0
 40
0.352778
 41
0.352778
  0
VERTEX
  8
0
 10
206.432
 20
75.6238
 30
0.0
 40
0.352778
 41
0.352778
  0
SEQEND
 8
0
  0
POLYLINE
  8
0
 62
     0
 66
     1
 10
0
 20
0
 30
0.0
 70
     1
 40
25.4
 41
25.4
  0
VERTEX
  8
0
 10
189.764
 20
75.5178
 30
0.0
 40
0.352778
 41
0.352778
  0
VERTEX
  8
0
 10
189.322
 20
75.0758
 30
0.0
 40
0.352778
 41
0.352778
  0
VERTEX
  8
0
 10
188.329
 20
76.0686
 30
0.0
 40
0.352778
 41
0.352778
  0
VERTEX
  8
0
 10
188.368
 20
76.104
 30
0.0
 40
0.352778
 41
0.352778
  0
VERTEX
  8
0
 10
188.568
 20
76.2736
 30
0.0
 40
0.352778
 41
0.352778
  0
VERTEX
  8
0
 10
188.776
 20
76.4328
 30
0.0
 40
0.352778
 41
0.352778
  0
VERTEX
  8
0
 10
188.818
 20
76.4629
 30
0.0
 40
0.352778
 41
0.352778
  0
VERTEX
  8
0
 10
189.764
 20
75.5178
 30
0.0
 40
0.352778
 41
0.352778
  0
SEQEND
 8
0
  0
POLYLINE
  8
0
 62
     0
 66
     1
 10
0
 20
0
 30
0.0
 70
     1
 40
25.4
 41
25.4
  0
VERTEX
  8
0
 10
187.75
 20
68.726
 30
0.0
 40
0.352778
 41
0.352778
  0
VERTEX
  8
0
 10
187.783
 20
68.899
 30
0.0
 40
0.352778
 41
0.352778
  0
VERTEX
  8
0
 10
187.908
 20
69.4135
 30
0.0
 40
0.352778
 41
0.352778
  0
VERTEX
  8
0
 10
188.111
 20
70.0867
 30
0.0
 40
0.352778
 41
0.352778
  0
VERTEX
  8
0
 10
188.358
 20
70.7435
 30
0.0
 40
0.352778
 41
0.352778
  0
VERTEX
  8
0
 10
188.647
 20
71.3818
 30
0.0
 40
0.352778
 41
0.352778
  0
VERTEX
  8
0
 10
188.979
 20
71.9996
 30
0.0
 40
0.352778
 41
0.352778
  0
VERTEX
  8
0
 10
189.35
 20
72.5949
 30
0.0
 40
0.352778
 41
0.352778
  0
VERTEX
  8
0
 10
189.761
 20
73.1654
 30
0.0
 40
0.352778
 41
0.352778
  0
VERTEX
  8
0
 10
190.094
 20
73.5771
 30
0.0
 40
0.352778
 41
0.352778
  0
VERTEX
  8
0
 10
190.211
 20
73.7092
 30
0.0
 40
0.352778
 41
0.352778
  0
VERTEX
  8
0
 10
190.247
 20
73.7511
 30
0.0
 40
0.352778
 41
0.352778
  0
VERTEX
  8
0
 10
190.368
 20
73.8683
 30
0.0
 40
0.352778
 41
0.352778
  0
VERTEX
  8
0
 10
190.543
 20
74.0081
 30
0.0
 40
0.352778
 41
0.352778
  0
VERTEX
  8
0
 10
190.732
 20
74.1271
 30
0.0
 40
0.352778
 41
0.352778
  0
VERTEX
  8
0
 10
190.882
 20
74.2028
 30
0.0
 40
0.352778
 41
0.352778
  0
VERTEX
  8
0
 10
190.935
 20
74.224
 30
0.0
 40
0.352778
 41
0.352778
  0
VERTEX
  8
0
 10
191.118
 20
74.2999
 30
0.0
 40
0.352778
 41
0.352778
  0
VERTEX
  8
0
 10
191.678
 20
74.5118
 30
0.0
 40
0.352778
 41
0.352778
  0
VERTEX
  8
0
 10
192.431
 20
74.7676
 30
0.0
 40
0.352778
 41
0.352778
  0
VERTEX
  8
0
 10
193.193
 20
74.9915
 30
0.0
 40
0.352778
 41
0.352778
  0
VERTEX
  8
0
 10
193.965
 20
75.1833
 30
0.0
 40
0.352778
 41
0.352778
  0
VERTEX
  8
0
 10
194.743
 20
75.3425
 30
0.0
 40
0.352778
 41
0.352778
  0
VERTEX
  8
0
 10
195.529
 20
75.4689
 30
0.0
 40
0.352778
 41
0.352778
  0
VERTEX
  8
0
 10
196.319
 20
75.5624
 30
0.0
 40
0.352778
 41
0.352778
  0
VERTEX
  8
0
 10
196.915
 20
75.6118
 30
0.0
 40
0.352778
 41
0.352778
  0
VERTEX
  8
0
 10
197.114
 20
75.6226
 30
0.0
 40
0.352778
 41
0.352778
  0
VERTEX
  8
0
 10
197.114
 20
69.5433
 30
0.0
 40
0.352778
 41
0.352778
  0
VERTEX
  8
0
 10
197.026
 20
69.5118
 30
0.0
 40
0.352778
 41
0.352778
  0
VERTEX
  8
0
 10
196.774
 20
69.396
 30
0.0
 40
0.352778
 41
0.352778
  0
VERTEX
  8
0
 10
196.456
 20
69.209
 30
0.0
 40
0.352778
 41
0.352778
  0
VERTEX
  8
0
 10
196.163
 20
68.985
 30
0.0
 40
0.352778
 41
0.352778
  0
VERTEX
  8
0
 10
195.96
 20
68.7946
 30
0.0
 40
0.352778
 41
0.352778
  0
VERTEX
  8
0
 10
195.899
 20
68.726
 30
0.0
 40
0.352778
 41
0.352778
  0
VERTEX
  8
0
 10
187.75
 20
68.726
 30
0.0
 40
0.352778
 41
0.352778
  0
SEQEND
 8
0
  0
POLYLINE
  8
0
 62
     0
 66
     1
 10
0
 20
0
 30
0.0
 70
     1
 40
25.4
 41
25.4
  0
VERTEX
  8
0
 10
193.333
 20
35.1381
 30
0.0
 40
0.352778
 41
0.352778
  0
VERTEX
  8
0
 10
193.333
 20
55.7904
 30
0.0
 40
0.352778
 41
0.352778
  0
VERTEX
  8
0
 10
195.969
 20
55.7904
 30
0.0
 40
0.352778
 41
0.352778
  0
VERTEX
  8
0
 10
195.969
 20
62.8654
 30
0.0
 40
0.352778
 41
0.352778
  0
VERTEX
  8
0
 10
190.258
 20
62.8654
 30
0.0
 40
0.352778
 41
0.352778
  0
VERTEX
  8
0
 10
190.258
 20
42.0146
 30
0.0
 40
0.352778
 41
0.352778
  0
VERTEX
  8
0
 10
191.758
 20
42.0146
 30
0.0
 40
0.352778
 41
0.352778
  0
VERTEX
  8
0
 10
191.758
 20
41.0897
 30
0.0
 40
0.352778
 41
0.352778
  0
VERTEX
  8
0
 10
190.258
 20
41.0897
 30
0.0
 40
0.352778
 41
0.352778
  0
VERTEX
  8
0
 10
190.258
 20
35.1006
 30
0.0
 40
0.352778
 41
0.352778
  0
VERTEX
  8
0
 10
190.258
 20
34.925
 30
0.0
 40
0.352778
 41
0.352778
  0
VERTEX
  8
0
 10
190.276
 20
34.3981
 30
0.0
 40
0.352778
 41
0.352778
  0
VERTEX
  8
0
 10
190.331
 20
33.7007
 30
0.0
 40
0.352778
 41
0.352778
  0
VERTEX
  8
0
 10
190.419
 20
33.0096
 30
0.0
 40
0.352778
 41
0.352778
  0
VERTEX
  8
0
 10
190.543
 20
32.3261
 30
0.0
 40
0.352778
 41
0.352778
  0
VERTEX
  8
0
 10
190.7
 20
31.6514
 30
0.0
 40
0.352778
 41
0.352778
  0
VERTEX
  8
0
 10
190.892
 20
30.9868
 30
0.0
 40
0.352778
 41
0.352778
  0
VERTEX
  8
0
 10
191.117
 20
30.3336
 30
0.0
 40
0.352778
 41
0.352778
  0
VERTEX
  8
0
 10
191.374
 20
29.6928
 30
0.0
 40
0.352778
 41
0.352778
  0
VERTEX
  8
0
 10
191.663
 20
29.0658
 30
0.0
 40
0.352778
 41
0.352778
  0
VERTEX
  8
0
 10
191.982
 20
28.4539
 30
0.0
 40
0.352778
 41
0.352778
  0
VERTEX
  8
0
 10
192.333
 20
27.8582
 30
0.0
 40
0.352778
 41
0.352778
  0
VERTEX
  8
0
 10
192.715
 20
27.28
 30
0.0
 40
0.352778
 41
0.352778
  0
VERTEX
  8
0
 10
193.128
 20
26.7206
 30
0.0
 40
0.352778
 41
0.352778
  0
VERTEX
  8
0
 10
193.568
 20
26.181
 30
0.0
 40
0.352778
 41
0.352778
  0
VERTEX
  8
0
 10
194.038
 20
25.6626
 30
0.0
 40
0.352778
 41
0.352778
  0
VERTEX
  8
0
 10
194.408
 20
25.2875
 30
0.0
 40
0.352778
 41
0.352778
  0
VERTEX
  8
0
 10
194.536
 20
25.1667
 30
0.0
 40
0.352778
 41
0.352778
  0
VERTEX
  8
0
 10
194.797
 20
25.0433
 30
0.0
 40
0.352778
 41
0.352778
  0
VERTEX
  8
0
 10
195.596
 20
24.7006
 30
0.0
 40
0.352778
 41
0.352778
  0
VERTEX
  8
0
 10
196.678
 20
24.2915
 30
0.0
 40
0.352778
 41
0.352778
  0
VERTEX
  8
0
 10
197.776
 20
23.9403
 30
0.0
 40
0.352778
 41
0.352778
  0
VERTEX
  8
0
 10
198.893
 20
23.6471
 30
0.0
 40
0.352778
 41
0.352778
  0
VERTEX
  8
0
 10
200.022
 20
23.4128
 30
0.0
 40
0.352778
 41
0.352778
  0
VERTEX
  8
0
 10
201.163
 20
23.2378
 30
0.0
 40
0.352778
 41
0.352778
  0
VERTEX
  8
0
 10
202.313
 20
23.1226
 30
0.0
 40
0.352778
 41
0.352778
  0
VERTEX
  8
0
 10
203.181
 20
23.074
 30
0.0
 40
0.352778
 41
0.352778
  0
VERTEX
  8
0
 10
203.469
 20
23.0679
 30
0.0
 40
0.352778
 41
0.352778
  0
VERTEX
  8
0
 10
203.469
 20
24.4368
 30
0.0
 40
0.352778
 41
0.352778
  0
VERTEX
  8
0
 10
203.547
 20
24.4335
 30
0.0
 40
0.352778
 41
0.352778
  0
VERTEX
  8
0
 10
204.318
 20
24.4335
 30
0.0
 40
0.352778
 41
0.352778
  0
VERTEX
  8
0
 10
204.394
 20
24.4368
 30
0.0
 40
0.352778
 41
0.352778
  0
VERTEX
  8
0
 10
204.394
 20
23.0679
 30
0.0
 40
0.352778
 41
0.352778
  0
VERTEX
  8
0
 10
204.685
 20
23.074
 30
0.0
 40
0.352778
 41
0.352778
  0
VERTEX
  8
0
 10
205.551
 20
23.1226
 30
0.0
 40
0.352778
 41
0.352778
  0
VERTEX
  8
0
 10
206.701
 20
23.2378
 30
0.0
 40
0.352778
 41
0.352778
  0
VERTEX
  8
0
 10
207.843
 20
23.4128
 30
0.0
 40
0.352778
 41
0.352778
  0
VERTEX
  8
0
 10
208.972
 20
23.6471
 30
0.0
 40
0.352778
 41
0.352778
  0
VERTEX
  8
0
 10
210.087
 20
23.9403
 30
0.0
 40
0.352778
 41
0.352778
  0
VERTEX
  8
0
 10
211.188
 20
24.2915
 30
0.0
 40
0.352778
 41
0.352778
  0
VERTEX
  8
0
 10
212.268
 20
24.7006
 30
0.0
 40
0.352778
 41
0.352778
  0
VERTEX
  8
0
 10
213.067
 20
25.0433
 30
0.0
 40
0.352778
 41
0.352778
  0
VERTEX
  8
0
 10
213.329
 20
25.1667
 30
0.0
 40
0.352778
 41
0.352778
  0
VERTEX
  8
0
 10
213.457
 20
25.2875
 30
0.0
 40
0.352778
 41
0.352778
  0
VERTEX
  8
0
 10
213.826
 20
25.6626
 30
0.0
 40
0.352778
 41
0.352778
  0
VERTEX
  8
0
 10
214.297
 20
26.181
 30
0.0
 40
0.352778
 41
0.352778
  0
VERTEX
  8
0
 10
214.737
 20
26.7206
 30
0.0
 40
0.352778
 41
0.352778
  0
VERTEX
  8
0
 10
215.149
 20
27.28
 30
0.0
 40
0.352778
 41
0.352778
  0
VERTEX
  8
0
 10
215.531
 20
27.8582
 30
0.0
 40
0.352778
 41
0.352778
  0
VERTEX
  8
0
 10
215.882
 20
28.4539
 30
0.0
 40
0.352778
 41
0.352778
  0
VERTEX
  8
0
 10
216.203
 20
29.0658
 30
0.0
 40
0.352778
 41
0.352778
  0
VERTEX
  8
0
 10
216.492
 20
29.6928
 30
0.0
 40
0.352778
 41
0.352778
  0
VERTEX
  8
0
 10
216.749
 20
30.3336
 30
0.0
 40
0.352778
 41
0.352778
  0
VERTEX
  8
0
 10
216.972
 20
30.9868
 30
0.0
 40
0.352778
 41
0.352778
  0
VERTEX
  8
0
 10
217.164
 20
31.6514
 30
0.0
 40
0.352778
 41
0.352778
  0
VERTEX
  8
0
 10
217.322
 20
32.3261
 30
0.0
 40
0.352778
 41
0.352778
  0
VERTEX
  8
0
 10
217.446
 20
33.0096
 30
0.0
 40
0.352778
 41
0.352778
  0
VERTEX
  8
0
 10
217.535
 20
33.7007
 30
0.0
 40
0.352778
 41
0.352778
  0
VERTEX
  8
0
 10
217.587
 20
34.3981
 30
0.0
 40
0.352778
 41
0.352778
  0
VERTEX
  8
0
 10
217.606
 20
34.925
 30
0.0
 40
0.352778
 41
0.352778
  0
VERTEX
  8
0
 10
217.606
 20
35.1006
 30
0.0
 40
0.352778
 41
0.352778
  0
VERTEX
  8
0
 10
217.606
 20
41.0897
 30
0.0
 40
0.352778
 41
0.352778
  0
VERTEX
  8
0
 10
216.106
 20
41.0897
 30
0.0
 40
0.352778
 41
0.352778
  0
VERTEX
  8
0
 10
216.106
 20
42.0146
 30
0.0
 40
0.352778
 41
0.352778
  0
VERTEX
  8
0
 10
217.606
 20
42.0146
 30
0.0
 40
0.352778
 41
0.352778
  0
VERTEX
  8
0
 10
217.606
 20
62.8654
 30
0.0
 40
0.352778
 41
0.352778
  0
VERTEX
  8
0
 10
211.894
 20
62.8654
 30
0.0
 40
0.352778
 41
0.352778
  0
VERTEX
  8
0
 10
211.894
 20
55.7904
 30
0.0
 40
0.352778
 41
0.352778
  0
VERTEX
  8
0
 10
214.532
 20
55.7904
 30
0.0
 40
0.352778
 41
0.352778
  0
VERTEX
  8
0
 10
214.532
 20
35.1381
 30
0.0
 40
0.352778
 41
0.352778
  0
VERTEX
  8
0
 10
193.333
 20
35.1381
 30
0.0
 40
0.352778
 41
0.352778
  0
SEQEND
 8
0
  0
POLYLINE
  8
0
 62
     0
 66
     1
 10
0
 20
0
 30
0.0
 70
     1
 40
25.4
 41
25.4
  0
VERTEX
  8
0
 10
201.679
 20
33.0631
 30
0.0
 40
0.352778
 41
0.352778
  0
VERTEX
  8
0
 10
201.742
 20
32.9946
 30
0.0
 40
0.352778
 41
0.352778
  0
VERTEX
  8
0
 10
201.944
 20
32.8042
 30
0.0
 40
0.352778
 41
0.352778
  0
VERTEX
  8
0
 10
202.237
 20
32.5801
 30
0.0
 40
0.352778
 41
0.352778
  0
VERTEX
  8
0
 10
202.556
 20
32.3932
 30
0.0
 40
0.352778
 41
0.352778
  0
VERTEX
  8
0
 10
202.808
 20
32.2774
 30
0.0
 40
0.352778
 41
0.352778
  0
VERTEX
  8
0
 10
202.894
 20
32.2458
 30
0.0
 40
0.352778
 41
0.352778
  0
VERTEX
  8
0
 10
202.894
 20
26.1665
 30
0.0
 40
0.352778
 41
0.352778
  0
VERTEX
  8
0
 10
202.696
 20
26.1774
 30
0.0
 40
0.352778
 41
0.352778
  0
VERTEX
  8
0
 10
202.1
 20
26.2268
 30
0.0
 40
0.352778
 41
0.352778
  0
VERTEX
  8
0
 10
201.31
 20
26.3203
 30
0.0
 40
0.352778
 41
0.352778
  0
VERTEX
  8
0
 10
200.525
 20
26.4467
 30
0.0
 40
0.352778
 41
0.352778
  0
VERTEX
  8
0
 10
199.746
 20
26.606
 30
0.0
 40
0.352778
 41
0.352778
  0
VERTEX
  8
0
 10
198.975
 20
26.7976
 30
0.0
 40
0.352778
 41
0.352778
  0
VERTEX
  8
0
 10
198.212
 20
27.0215
 30
0.0
 40
0.352778
 41
0.352778
  0
VERTEX
  8
0
 10
197.458
 20
27.2774
 30
0.0
 40
0.352778
 41
0.352778
  0
VERTEX
  8
0
 10
196.9
 20
27.4893
 30
0.0
 40
0.352778
 41
0.352778
  0
VERTEX
  8
0
 10
196.715
 20
27.5651
 30
0.0
 40
0.352778
 41
0.352778
  0
VERTEX
  8
0
 10
196.664
 20
27.5864
 30
0.0
 40
0.352778
 41
0.352778
  0
VERTEX
  8
0
 10
196.514
 20
27.6621
 30
0.0
 40
0.352778
 41
0.352778
  0
VERTEX
  8
0
 10
196.324
 20
27.7811
 30
0.0
 40
0.352778
 41
0.352778
  0
VERTEX
  8
0
 10
196.15
 20
27.9208
 30
0.0
 40
0.352778
 41
0.352778
  0
VERTEX
  8
0
 10
196.029
 20
28.0381
 30
0.0
 40
0.352778
 41
0.352778
  0
VERTEX
  8
0
 10
195.992
 20
28.08
 30
0.0
 40
0.352778
 41
0.352778
  0
VERTEX
  8
0
 10
195.875
 20
28.2121
 30
0.0
 40
0.352778
 41
0.352778
  0
VERTEX
  8
0
 10
195.543
 20
28.6237
 30
0.0
 40
0.352778
 41
0.352778
  0
VERTEX
  8
0
 10
195.132
 20
29.1943
 30
0.0
 40
0.352778
 41
0.352778
  0
VERTEX
  8
0
 10
194.76
 20
29.7896
 30
0.0
 40
0.352778
 41
0.352778
  0
VERTEX
  8
0
 10
194.429
 20
30.4074
 30
0.0
 40
0.352778
 41
0.352778
  0
VERTEX
  8
0
 10
194.14
 20
31.0457
 30
0.0
 40
0.352778
 41
0.352778
  0
VERTEX
  8
0
 10
193.893
 20
31.7025
 30
0.0
 40
0.352778
 41
0.352778
  0
VERTEX
  8
0
 10
193.69
 20
32.3757
 30
0.0
 40
0.352778
 41
0.352778
  0
VERTEX
  8
0
 10
193.565
 20
32.8901
 30
0.0
 40
0.352778
 41
0.352778
  0
VERTEX
  8
0
 10
193.531
 20
33.0631
 30
0.0
 40
0.352778
 41
0.352778
  0
VERTEX
  8
0
 10
201.679
 20
33.0631
 30
0.0
 40
0.352778
 41
0.352778
  0
SEQEND
 8
0
  0
POLYLINE
  8
0
 62
     0
 66
     1
 10
0
 20
0
 30
0.0
 70
     1
 40
25.4
 41
25.4
  0
VERTEX
  8
0
 10
194.001
 20
25.8236
 30
0.0
 40
0.352778
 41
0.352778
  0
VERTEX
  8
0
 10
194.057
 20
25.7694
 30
0.0
 40
0.352778
 41
0.352778
  0
VERTEX
  8
0
 10
194.35
 20
25.5149
 30
0.0
 40
0.352778
 41
0.352778
  0
VERTEX
  8
0
 10
194.661
 20
25.2829
 30
0.0
 40
0.352778
 41
0.352778
  0
VERTEX
  8
0
 10
194.726
 20
25.2401
 30
0.0
 40
0.352778
 41
0.352778
  0
VERTEX
  8
0
 10
195.651
 20
26.1653
 30
0.0
 40
0.352778
 41
0.352778
  0
VERTEX
  8
0
 10
194.997
 20
26.8194
 30
0.0
 40
0.352778
 41
0.352778
  0
VERTEX
  8
0
 10
194.001
 20
25.8236
 30
0.0
 40
0.352778
 41
0.352778
  0
SEQEND
 8
0
  0
POLYLINE
  8
0
 62
     0
 66
     1
 10
0
 20
0
 30
0.0
 70
     1
 40
25.4
 41
25.4
  0
VERTEX
  8
0
 10
212.761
 20
26.7133
 30
0.0
 40
0.352778
 41
0.352778
  0
VERTEX
  8
0
 10
212.319
 20
26.2714
 30
0.0
 40
0.352778
 41
0.352778
  0
VERTEX
  8
0
 10
213.265
 20
25.3261
 30
0.0
 40
0.352778
 41
0.352778
  0
VERTEX
  8
0
 10
213.308
 20
25.3564
 30
0.0
 40
0.352778
 41
0.352778
  0
VERTEX
  8
0
 10
213.515
 20
25.5157
 30
0.0
 40
0.352778
 41
0.352778
  0
VERTEX
  8
0
 10
213.715
 20
25.6851
 30
0.0
 40
0.352778
 41
0.352778
  0
VERTEX
  8
0
 10
213.754
 20
25.7206
 30
0.0
 40
0.352778
 41
0.352778
  0
VERTEX
  8
0
 10
212.761
 20
26.7133
 30
0.0
 40
0.352778
 41
0.352778
  0
SEQEND
 8
0
  0
POLYLINE
  8
0
 62
     0
 66
     1
 10
0
 20
0
 30
0.0
 70
     1
 40
25.4
 41
25.4
  0
VERTEX
  8
0
 10
214.333
 20
33.0631
 30
0.0
 40
0.352778
 41
0.352778
  0
VERTEX
  8
0
 10
214.3
 20
32.8901
 30
0.0
 40
0.352778
 41
0.352778
  0
VERTEX
  8
0
 10
214.175
 20
32.3757
 30
0.0
 40
0.352778
 41
0.352778
  0
VERTEX
  8
0
 10
213.972
 20
31.7025
 30
0.0
 40
0.352778
 41
0.352778
  0
VERTEX
  8
0
 10
213.725
 20
31.0457
 30
0.0
 40
0.352778
 41
0.352778
  0
VERTEX
  8
0
 10
213.436
 20
30.4074
 30
0.0
 40
0.352778
 41
0.352778
  0
VERTEX
  8
0
 10
213.104
 20
29.7896
 30
0.0
 40
0.352778
 41
0.352778
  0
VERTEX
  8
0
 10
212.733
 20
29.1943
 30
0.0
 40
0.352778
 41
0.352778
  0
VERTEX
  8
0
 10
212.322
 20
28.6237
 30
0.0
 40
0.352778
 41
0.352778
  0
VERTEX
  8
0
 10
211.989
 20
28.2121
 30
0.0
 40
0.352778
 41
0.352778
  0
VERTEX
  8
0
 10
211.872
 20
28.08
 30
0.0
 40
0.352778
 41
0.352778
  0
VERTEX
  8
0
 10
211.836
 20
28.0381
 30
0.0
 40
0.352778
 41
0.352778
  0
VERTEX
  8
0
 10
211.715
 20
27.9208
 30
0.0
 40
0.352778
 41
0.352778
  0
VERTEX
  8
0
 10
211.54
 20
27.7811
 30
0.0
 40
0.352778
 41
0.352778
  0
VERTEX
  8
0
 10
211.351
 20
27.6621
 30
0.0
 40
0.352778
 41
0.352778
  0
VERTEX
  8
0
 10
211.201
 20
27.5864
 30
0.0
 40
0.352778
 41
0.352778
  0
VERTEX
  8
0
 10
211.149
 20
27.5651
 30
0.0
 40
0.352778
 41
0.352778
  0
VERTEX
  8
0
 10
210.965
 20
27.4893
 30
0.0
 40
0.352778
 41
0.352778
  0
VERTEX
  8
0
 10
210.406
 20
27.2774
 30
0.0
 40
0.352778
 41
0.352778
  0
VERTEX
  8
0
 10
209.653
 20
27.0215
 30
0.0
 40
0.352778
 41
0.352778
  0
VERTEX
  8
0
 10
208.89
 20
26.7976
 30
0.0
 40
0.352778
 41
0.352778
  0
VERTEX
  8
0
 10
208.118
 20
26.606
 30
0.0
 40
0.352778
 41
0.352778
  0
VERTEX
  8
0
 10
207.34
 20
26.4467
 30
0.0
 40
0.352778
 41
0.352778
  0
VERTEX
  8
0
 10
206.554
 20
26.3203
 30
0.0
 40
0.352778
 41
0.352778
  0
VERTEX
  8
0
 10
205.764
 20
26.2268
 30
0.0
 40
0.352778
 41
0.352778
  0
VERTEX
  8
0
 10
205.168
 20
26.1774
 30
0.0
 40
0.352778
 41
0.352778
  0
VERTEX
  8
0
 10
204.969
 20
26.1665
 30
0.0
 40
0.352778
 41
0.352778
  0
VERTEX
  8
0
 10
204.969
 20
32.2458
 30
0.0
 40
0.352778
 41
0.352778
  0
VERTEX
  8
0
 10
205.057
 20
32.2774
 30
0.0
 40
0.352778
 41
0.352778
  0
VERTEX
  8
0
 10
205.31
 20
32.3932
 30
0.0
 40
0.352778
 41
0.352778
  0
VERTEX
  8
0
 10
205.628
 20
32.5801
 30
0.0
 40
0.352778
 41
0.352778
  0
VERTEX
  8
0
 10
205.921
 20
32.8042
 30
0.0
 40
0.352778
 41
0.352778
  0
VERTEX
  8
0
 10
206.124
 20
32.9946
 30
0.0
 40
0.352778
 41
0.352778
  0
VERTEX
  8
0
 10
206.185
 20
33.0631
 30
0.0
 40
0.352778
 41
0.352778
  0
VERTEX
  8
0
 10
214.333
 20
33.0631
 30
0.0
 40
0.352778
 41
0.352778
  0
SEQEND
 8
0
  0
POLYLINE
  8
0
 62
     0
 66
     1
 10
0
 20
0
 30
0.0
 70
     1
 40
25.4
 41
25.4
  0
VERTEX
  8
0
 10
235.653
 20
53.226
 30
0.0
 40
0.352778
 41
0.352778
  0
VERTEX
  8
0
 10
236.578
 20
53.226
 30
0.0
 40
0.352778
 41
0.352778
  0
VERTEX
  8
0
 10
236.578
 20
51.726
 30
0.0
 40
0.352778
 41
0.352778
  0
VERTEX
  8
0
 10
257.429
 20
51.726
 30
0.0
 40
0.352778
 41
0.352778
  0
VERTEX
  8
0
 10
257.429
 20
57.4372
 30
0.0
 40
0.352778
 41
0.352778
  0
VERTEX
  8
0
 10
250.354
 20
57.4372
 30
0.0
 40
0.352778
 41
0.352778
  0
VERTEX
  8
0
 10
250.354
 20
54.8008
 30
0.0
 40
0.352778
 41
0.352778
  0
VERTEX
  8
0
 10
229.701
 20
54.8008
 30
0.0
 40
0.352778
 41
0.352778
  0
VERTEX
  8
0
 10
229.701
 20
75.9986
 30
0.0
 40
0.352778
 41
0.352778
  0
VERTEX
  8
0
 10
250.354
 20
75.9986
 30
0.0
 40
0.352778
 41
0.352778
  0
VERTEX
  8
0
 10
250.354
 20
73.3624
 30
0.0
 40
0.352778
 41
0.352778
  0
VERTEX
  8
0
 10
257.429
 20
73.3624
 30
0.0
 40
0.352778
 41
0.352778
  0
VERTEX
  8
0
 10
257.429
 20
79.0736
 30
0.0
 40
0.352778
 41
0.352778
  0
VERTEX
  8
0
 10
236.578
 20
79.0736
 30
0.0
 40
0.352778
 41
0.352778
  0
VERTEX
  8
0
 10
236.578
 20
77.5736
 30
0.0
 40
0.352778
 41
0.352778
  0
VERTEX
  8
0
 10
235.653
 20
77.5736
 30
0.0
 40
0.352778
 41
0.352778
  0
VERTEX
  8
0
 10
235.653
 20
79.0736
 30
0.0
 40
0.352778
 41
0.352778
  0
VERTEX
  8
0
 10
229.664
 20
79.0736
 30
0.0
 40
0.352778
 41
0.352778
  0
VERTEX
  8
0
 10
229.489
 20
79.0736
 30
0.0
 40
0.352778
 41
0.352778
  0
VERTEX
  8
0
 10
228.961
 20
79.0557
 30
0.0
 40
0.352778
 41
0.352778
  0
VERTEX
  8
0
 10
228.264
 20
79.0019
 30
0.0
 40
0.352778
 41
0.352778
  0
VERTEX
  8
0
 10
227.574
 20
78.9129
 30
0.0
 40
0.352778
 41
0.352778
  0
VERTEX
  8
0
 10
226.89
 20
78.7893
 30
0.0
 40
0.352778
 41
0.352778
  0
VERTEX
  8
0
 10
226.215
 20
78.6315
 30
0.0
 40
0.352778
 41
0.352778
  0
VERTEX
  8
0
 10
225.55
 20
78.4403
 30
0.0
 40
0.352778
 41
0.352778
  0
VERTEX
  8
0
 10
224.897
 20
78.2158
 30
0.0
 40
0.352778
 41
0.352778
  0
VERTEX
  8
0
 10
224.257
 20
77.9589
 30
0.0
 40
0.352778
 41
0.352778
  0
VERTEX
  8
0
 10
223.629
 20
77.67
 30
0.0
 40
0.352778
 41
0.352778
  0
VERTEX
  8
0
 10
223.018
 20
77.3496
 30
0.0
 40
0.352778
 41
0.352778
  0
VERTEX
  8
0
 10
222.422
 20
76.9983
 30
0.0
 40
0.352778
 41
0.352778
  0
VERTEX
  8
0
 10
221.843
 20
76.6165
 30
0.0
 40
0.352778
 41
0.352778
  0
VERTEX
  8
0
 10
221.285
 20
76.2049
 30
0.0
 40
0.352778
 41
0.352778
  0
VERTEX
  8
0
 10
220.744
 20
75.764
 30
0.0
 40
0.352778
 41
0.352778
  0
VERTEX
  8
0
 10
220.226
 20
75.2943
 30
0.0
 40
0.352778
 41
0.352778
  0
VERTEX
  8
0
 10
219.851
 20
74.9239
 30
0.0
 40
0.352778
 41
0.352778
  0
VERTEX
  8
0
 10
219.731
 20
74.7963
 30
0.0
 40
0.352778
 41
0.352778
  0
VERTEX
  8
0
 10
219.607
 20
74.5344
 30
0.0
 40
0.352778
 41
0.352778
  0
VERTEX
  8
0
 10
219.264
 20
73.736
 30
0.0
 40
0.352778
 41
0.352778
  0
VERTEX
  8
0
 10
218.856
 20
72.6549
 30
0.0
 40
0.352778
 41
0.352778
  0
VERTEX
  8
0
 10
218.504
 20
71.5554
 30
0.0
 40
0.352778
 41
0.352778
  0
VERTEX
  8
0
 10
218.211
 20
70.4397
 30
0.0
 40
0.352778
 41
0.352778
  0
VERTEX
  8
0
 10
217.976
 20
69.3103
 30
0.0
 40
0.352778
 41
0.352778
  0
VERTEX
  8
0
 10
217.801
 20
68.1693
 30
0.0
 40
0.352778
 41
0.352778
  0
VERTEX
  8
0
 10
217.686
 20
67.0193
 30
0.0
 40
0.352778
 41
0.352778
  0
VERTEX
  8
0
 10
217.638
 20
66.1517
 30
0.0
 40
0.352778
 41
0.352778
  0
VERTEX
  8
0
 10
217.632
 20
65.8622
 30
0.0
 40
0.352778
 41
0.352778
  0
VERTEX
  8
0
 10
219
 20
65.8622
 30
0.0
 40
0.352778
 41
0.352778
  0
VERTEX
  8
0
 10
218.997
 20
65.7853
 30
0.0
 40
0.352778
 41
0.352778
  0
VERTEX
  8
0
 10
218.997
 20
65.0143
 30
0.0
 40
0.352778
 41
0.352778
  0
VERTEX
  8
0
 10
219
 20
64.9372
 30
0.0
 40
0.352778
 41
0.352778
  0
VERTEX
  8
0
 10
217.632
 20
64.9372
 30
0.0
 40
0.352778
 41
0.352778
  0
VERTEX
  8
0
 10
217.638
 20
64.6479
 30
0.0
 40
0.352778
 41
0.352778
  0
VERTEX
  8
0
 10
217.686
 20
63.7803
 30
0.0
 40
0.352778
 41
0.352778
  0
VERTEX
  8
0
 10
217.801
 20
62.6303
 30
0.0
 40
0.352778
 41
0.352778
  0
VERTEX
  8
0
 10
217.976
 20
61.4893
 30
0.0
 40
0.352778
 41
0.352778
  0
VERTEX
  8
0
 10
218.211
 20
60.3599
 30
0.0
 40
0.352778
 41
0.352778
  0
VERTEX
  8
0
 10
218.504
 20
59.2442
 30
0.0
 40
0.352778
 41
0.352778
  0
VERTEX
  8
0
 10
218.856
 20
58.1447
 30
0.0
 40
0.352778
 41
0.352778
  0
VERTEX
  8
0
 10
219.264
 20
57.0636
 30
0.0
 40
0.352778
 41
0.352778
  0
VERTEX
  8
0
 10
219.607
 20
56.2651
 30
0.0
 40
0.352778
 41
0.352778
  0
VERTEX
  8
0
 10
219.731
 20
56.0033
 30
0.0
 40
0.352778
 41
0.352778
  0
VERTEX
  8
0
 10
219.851
 20
55.8757
 30
0.0
 40
0.352778
 41
0.352778
  0
VERTEX
  8
0
 10
220.226
 20
55.5053
 30
0.0
 40
0.352778
 41
0.352778
  0
VERTEX
  8
0
 10
220.744
 20
55.0356
 30
0.0
 40
0.352778
 41
0.352778
  0
VERTEX
  8
0
 10
221.285
 20
54.5947
 30
0.0
 40
0.352778
 41
0.352778
  0
VERTEX
  8
0
 10
221.843
 20
54.1831
 30
0.0
 40
0.352778
 41
0.352778
  0
VERTEX
  8
0
 10
222.422
 20
53.8014
 30
0.0
 40
0.352778
 41
0.352778
  0
VERTEX
  8
0
 10
223.018
 20
53.45
 30
0.0
 40
0.352778
 41
0.352778
  0
VERTEX
  8
0
 10
223.629
 20
53.1297
 30
0.0
 40
0.352778
 41
0.352778
  0
VERTEX
  8
0
 10
224.257
 20
52.8407
 30
0.0
 40
0.352778
 41
0.352778
  0
VERTEX
  8
0
 10
224.897
 20
52.5839
 30
0.0
 40
0.352778
 41
0.352778
  0
VERTEX
  8
0
 10
225.55
 20
52.3594
 30
0.0
 40
0.352778
 41
0.352778
  0
VERTEX
  8
0
 10
226.215
 20
52.1681
 30
0.0
 40
0.352778
 41
0.352778
  0
VERTEX
  8
0
 10
226.89
 20
52.0103
 30
0.0
 40
0.352778
 41
0.352778
  0
VERTEX
  8
0
 10
227.574
 20
51.8867
 30
0.0
 40
0.352778
 41
0.352778
  0
VERTEX
  8
0
 10
228.264
 20
51.7978
 30
0.0
 40
0.352778
 41
0.352778
  0
VERTEX
  8
0
 10
228.961
 20
51.744
 30
0.0
 40
0.352778
 41
0.352778
  0
VERTEX
  8
0
 10
229.489
 20
51.726
 30
0.0
 40
0.352778
 41
0.352778
  0
VERTEX
  8
0
 10
229.664
 20
51.726
 30
0.0
 40
0.352778
 41
0.352778
  0
VERTEX
  8
0
 10
235.653
 20
51.726
 30
0.0
 40
0.352778
 41
0.352778
  0
VERTEX
  8
0
 10
235.653
 20
53.226
 30
0.0
 40
0.352778
 41
0.352778
  0
SEQEND
 8
0
  0
POLYLINE
  8
0
 62
     0
 66
     1
 10
0
 20
0
 30
0.0
 70
     1
 40
25.4
 41
25.4
  0
VERTEX
  8
0
 10
220.731
 20
66.4372
 30
0.0
 40
0.352778
 41
0.352778
  0
VERTEX
  8
0
 10
220.742
 20
66.6361
 30
0.0
 40
0.352778
 41
0.352778
  0
VERTEX
  8
0
 10
220.79
 20
67.2319
 30
0.0
 40
0.352778
 41
0.352778
  0
VERTEX
  8
0
 10
220.883
 20
68.0222
 30
0.0
 40
0.352778
 41
0.352778
  0
VERTEX
  8
0
 10
221.01
 20
68.8072
 30
0.0
 40
0.352778
 41
0.352778
  0
VERTEX
  8
0
 10
221.169
 20
69.5858
 30
0.0
 40
0.352778
 41
0.352778
  0
VERTEX
  8
0
 10
221.361
 20
70.3571
 30
0.0
 40
0.352778
 41
0.352778
  0
VERTEX
  8
0
 10
221.585
 20
71.12
 30
0.0
 40
0.352778
 41
0.352778
  0
VERTEX
  8
0
 10
221.842
 20
71.8736
 30
0.0
 40
0.352778
 41
0.352778
  0
VERTEX
  8
0
 10
222.053
 20
72.4325
 30
0.0
 40
0.352778
 41
0.352778
  0
VERTEX
  8
0
 10
222.129
 20
72.6167
 30
0.0
 40
0.352778
 41
0.352778
  0
VERTEX
  8
0
 10
222.15
 20
72.6685
 30
0.0
 40
0.352778
 41
0.352778
  0
VERTEX
  8
0
 10
222.226
 20
72.8188
 30
0.0
 40
0.352778
 41
0.352778
  0
VERTEX
  8
0
 10
222.344
 20
73.0079
 30
0.0
 40
0.352778
 41
0.352778
  0
VERTEX
  8
0
 10
222.485
 20
73.1822
 30
0.0
 40
0.352778
 41
0.352778
  0
VERTEX
  8
0
 10
222.601
 20
73.3029
 30
0.0
 40
0.352778
 41
0.352778
  0
VERTEX
  8
0
 10
222.643
 20
73.34
 30
0.0
 40
0.352778
 41
0.352778
  0
VERTEX
  8
0
 10
222.775
 20
73.4568
 30
0.0
 40
0.352778
 41
0.352778
  0
VERTEX
  8
0
 10
223.188
 20
73.7894
 30
0.0
 40
0.352778
 41
0.352778
  0
VERTEX
  8
0
 10
223.758
 20
74.2004
 30
0.0
 40
0.352778
 41
0.352778
  0
VERTEX
  8
0
 10
224.353
 20
74.5719
 30
0.0
 40
0.352778
 41
0.352778
  0
VERTEX
  8
0
 10
224.971
 20
74.9029
 30
0.0
 40
0.352778
 41
0.352778
  0
VERTEX
  8
0
 10
225.61
 20
75.1924
 30
0.0
 40
0.352778
 41
0.352778
  0
VERTEX
  8
0
 10
226.267
 20
75.4392
 30
0.0
 40
0.352778
 41
0.352778
  0
VERTEX
  8
0
 10
226.939
 20
75.6424
 30
0.0
 40
0.352778
 41
0.352778
  0
VERTEX
  8
0
 10
227.454
 20
75.7671
 30
0.0
 40
0.352778
 41
0.352778
  0
VERTEX
  8
0
 10
227.626
 20
75.801
 30
0.0
 40
0.352778
 41
0.352778
  0
VERTEX
  8
0
 10
227.626
 20
67.6525
 30
0.0
 40
0.352778
 41
0.352778
  0
VERTEX
  8
0
 10
227.558
 20
67.5906
 30
0.0
 40
0.352778
 41
0.352778
  0
VERTEX
  8
0
 10
227.368
 20
67.3879
 30
0.0
 40
0.352778
 41
0.352778
  0
VERTEX
  8
0
 10
227.143
 20
67.095
 30
0.0
 40
0.352778
 41
0.352778
  0
VERTEX
  8
0
 10
226.957
 20
66.7769
 30
0.0
 40
0.352778
 41
0.352778
  0
VERTEX
  8
0
 10
226.84
 20
66.5242
 30
0.0
 40
0.352778
 41
0.352778
  0
VERTEX
  8
0
 10
226.81
 20
66.4372
 30
0.0
 40
0.352778
 41
0.352778
  0
VERTEX
  8
0
 10
220.731
 20
66.4372
 30
0.0
 40
0.352778
 41
0.352778
  0
SEQEND
 8
0
  0
POLYLINE
  8
0
 62
     0
 66
     1
 10
0
 20
0
 30
0.0
 70
     1
 40
25.4
 41
25.4
  0
VERTEX
  8
0
 10
220.729
 20
73.681
 30
0.0
 40
0.352778
 41
0.352778
  0
VERTEX
  8
0
 10
221.383
 20
74.3351
 30
0.0
 40
0.352778
 41
0.352778
  0
VERTEX
  8
0
 10
220.388
 20
75.3308
 30
0.0
 40
0.352778
 41
0.352778
  0
VERTEX
  8
0
 10
220.333
 20
75.2751
 30
0.0
 40
0.352778
 41
0.352778
  0
VERTEX
  8
0
 10
220.078
 20
74.9822
 30
0.0
 40
0.352778
 41
0.352778
  0
VERTEX
  8
0
 10
219.846
 20
74.6711
 30
0.0
 40
0.352778
 41
0.352778
  0
VERTEX
  8
0
 10
219.804
 20
74.6062
 30
0.0
 40
0.352778
 41
0.352778
  0
VERTEX
  8
0
 10
220.729
 20
73.681
 30
0.0
 40
0.352778
 41
0.352778
  0
SEQEND
 8
0
  0
POLYLINE
  8
0
 62
     0
 66
     1
 10
0
 20
0
 30
0.0
 70
     1
 40
25.4
 41
25.4
  0
VERTEX
  8
0
 10
220.835
 20
57.0125
 30
0.0
 40
0.352778
 41
0.352778
  0
VERTEX
  8
0
 10
221.276
 20
56.5706
 30
0.0
 40
0.352778
 41
0.352778
  0
VERTEX
  8
0
 10
220.285
 20
55.5778
 30
0.0
 40
0.352778
 41
0.352778
  0
VERTEX
  8
0
 10
220.249
 20
55.6165
 30
0.0
 40
0.352778
 41
0.352778
  0
VERTEX
  8
0
 10
220.079
 20
55.8164
 30
0.0
 40
0.352778
 41
0.352778
  0
VERTEX
  8
0
 10
219.919
 20
56.0246
 30
0.0
 40
0.352778
 41
0.352778
  0
VERTEX
  8
0
 10
219.89
 20
56.0674
 30
0.0
 40
0.352778
 41
0.352778
  0
VERTEX
  8
0
 10
220.835
 20
57.0125
 30
0.0
 40
0.352778
 41
0.352778
  0
SEQEND
 8
0
  0
POLYLINE
  8
0
 62
     0
 66
     1
 10
0
 20
0
 30
0.0
 70
     1
 40
25.4
 41
25.4
  0
VERTEX
  8
0
 10
220.731
 20
64.3622
 30
0.0
 40
0.352778
 41
0.352778
  0
VERTEX
  8
0
 10
220.742
 20
64.1635
 30
0.0
 40
0.352778
 41
0.352778
  0
VERTEX
  8
0
 10
220.79
 20
63.5678
 30
0.0
 40
0.352778
 41
0.352778
  0
VERTEX
  8
0
 10
220.883
 20
62.7774
 30
0.0
 40
0.352778
 41
0.352778
  0
VERTEX
  8
0
 10
221.01
 20
61.9925
 30
0.0
 40
0.352778
 41
0.352778
  0
VERTEX
  8
0
 10
221.169
 20
61.2138
 30
0.0
 40
0.352778
 41
0.352778
  0
VERTEX
  8
0
 10
221.361
 20
60.4425
 30
0.0
 40
0.352778
 41
0.352778
  0
VERTEX
  8
0
 10
221.585
 20
59.6796
 30
0.0
 40
0.352778
 41
0.352778
  0
VERTEX
  8
0
 10
221.842
 20
58.926
 30
0.0
 40
0.352778
 41
0.352778
  0
VERTEX
  8
0
 10
222.053
 20
58.3671
 30
0.0
 40
0.352778
 41
0.352778
  0
VERTEX
  8
0
 10
222.129
 20
58.1829
 30
0.0
 40
0.352778
 41
0.352778
  0
VERTEX
  8
0
 10
222.15
 20
58.1313
 30
0.0
 40
0.352778
 41
0.352778
  0
VERTEX
  8
0
 10
222.226
 20
57.9808
 30
0.0
 40
0.352778
 41
0.352778
  0
VERTEX
  8
0
 10
222.344
 20
57.7917
 30
0.0
 40
0.352778
 41
0.352778
  0
VERTEX
  8
0
 10
222.485
 20
57.6174
 30
0.0
 40
0.352778
 41
0.352778
  0
VERTEX
  8
0
 10
222.601
 20
57.4965
 30
0.0
 40
0.352778
 41
0.352778
  0
VERTEX
  8
0
 10
222.643
 20
57.4596
 30
0.0
 40
0.352778
 41
0.352778
  0
VERTEX
  8
0
 10
222.775
 20
57.3428
 30
0.0
 40
0.352778
 41
0.352778
  0
VERTEX
  8
0
 10
223.188
 20
57.0101
 30
0.0
 40
0.352778
 41
0.352778
  0
VERTEX
  8
0
 10
223.758
 20
56.5992
 30
0.0
 40
0.352778
 41
0.352778
  0
VERTEX
  8
0
 10
224.353
 20
56.2276
 30
0.0
 40
0.352778
 41
0.352778
  0
VERTEX
  8
0
 10
224.971
 20
55.8967
 30
0.0
 40
0.352778
 41
0.352778
  0
VERTEX
  8
0
 10
225.61
 20
55.6072
 30
0.0
 40
0.352778
 41
0.352778
  0
VERTEX
  8
0
 10
226.267
 20
55.3604
 30
0.0
 40
0.352778
 41
0.352778
  0
VERTEX
  8
0
 10
226.939
 20
55.1572
 30
0.0
 40
0.352778
 41
0.352778
  0
VERTEX
  8
0
 10
227.454
 20
55.0325
 30
0.0
 40
0.352778
 41
0.352778
  0
VERTEX
  8
0
 10
227.626
 20
54.9986
 30
0.0
 40
0.352778
 41
0.352778
  0
VERTEX
  8
0
 10
227.626
 20
63.1469
 30
0.0
 40
0.352778
 41
0.352778
  0
VERTEX
  8
0
 10
227.558
 20
63.209
 30
0.0
 40
0.352778
 41
0.352778
  0
VERTEX
  8
0
 10
227.368
 20
63.4117
 30
0.0
 40
0.352778
 41
0.352778
  0
VERTEX
  8
0
 10
227.143
 20
63.7046
 30
0.0
 40
0.352778
 41
0.352778
  0
VERTEX
  8
0
 10
226.957
 20
64.0226
 30
0.0
 40
0.352778
 41
0.352778
  0
VERTEX
  8
0
 10
226.84
 20
64.2754
 30
0.0
 40
0.352778
 41
0.352778
  0
VERTEX
  8
0
 10
226.81
 20
64.3622
 30
0.0
 40
0.352778
 41
0.352778
  0
VERTEX
  8
0
 10
220.731
 20
64.3622
 30
0.0
 40
0.352778
 41
0.352778
  0
SEQEND
 8
0
  0
POLYLINE
  8
0
 62
     0
 66
     1
 10
0
 20
0
 30
0.0
 40
25.4
 41
25.4
  0
VERTEX
  8
0
 10
258.072
 20
51.2961
 30
0.0
 40
0.352778
 41
0.352778
  0
VERTEX
  8
0
 10
237.222
 20
51.2961
 30
0.0
 40
0.352778
 41
0.352778
  0
VERTEX
  8
0
 10
237.222
 20
49.7961
 30
0.0
 40
0.352778
 41
0.352778
  0
VERTEX
  8
0
 10
236.297
 20
49.7961
 30
0.0
 40
0.352778
 41
0.352778
  0
VERTEX
  8
0
 10
236.297
 20
51.2961
 30
0.0
 40
0.352778
 41
0.352778
  0
VERTEX
  8
0
 10
230.307
 20
51.2961
 30
0.0
 40
0.352778
 41
0.352778
  0
VERTEX
  8
0
 10
230.132
 20
51.2961
 30
0.0
 40
0.352778
 41
0.352778
  0
VERTEX
  8
0
 10
229.606
 20
51.2781
 30
0.0
 40
0.352778
 41
0.352778
  0
VERTEX
  8
0
 10
228.907
 20
51.2243
 30
0.0
 40
0.352778
 41
0.352778
  0
VERTEX
  8
0
 10
228.217
 20
51.1354
 30
0.0
 40
0.352778
 41
0.352778
  0
VERTEX
  8
0
 10
227.533
 20
51.0118
 30
0.0
 40
0.352778
 41
0.352778
  0
VERTEX
  8
0
 10
226.858
 20
50.854
 30
0.0
 40
0.352778
 41
0.352778
  0
VERTEX
  8
0
 10
226.194
 20
50.6626
 30
0.0
 40
0.352778
 41
0.352778
  0
VERTEX
  8
0
 10
225.54
 20
50.4382
 30
0.0
 40
0.352778
 41
0.352778
  0
VERTEX
  8
0
 10
224.9
 20
50.1814
 30
0.0
 40
0.352778
 41
0.352778
  0
VERTEX
  8
0
 10
224.272
 20
49.8924
 30
0.0
 40
0.352778
 41
0.352778
  0
VERTEX
  8
0
 10
223.661
 20
49.5721
 30
0.0
 40
0.352778
 41
0.352778
  0
VERTEX
  8
0
 10
223.065
 20
49.2207
 30
0.0
 40
0.352778
 41
0.352778
  0
VERTEX
  8
0
 10
222.487
 20
48.839
 30
0.0
 40
0.352778
 41
0.352778
  0
VERTEX
  8
0
 10
221.928
 20
48.4274
 30
0.0
 40
0.352778
 41
0.352778
  0
VERTEX
  8
0
 10
221.388
 20
47.9865
 30
0.0
 40
0.352778
 41
0.352778
  0
VERTEX
  8
0
 10
220.869
 20
47.5168
 30
0.0
 40
0.352778
 41
0.352778
  0
VERTEX
  8
0
 10
220.494
 20
47.1464
 30
0.0
 40
0.352778
 41
0.352778
  0
VERTEX
  8
0
 10
220.374
 20
47.0188
 30
0.0
 40
0.352778
 41
0.352778
  0
VERTEX
  8
0
 10
220.25
 20
46.7569
 30
0.0
 40
0.352778
 41
0.352778
  0
VERTEX
  8
0
 10
219.907
 20
45.9585
 30
0.0
 40
0.352778
 41
0.352778
  0
VERTEX
  8
0
 10
219.499
 20
44.8774
 30
0.0
 40
0.352778
 41
0.352778
  0
VERTEX
  8
0
 10
219.147
 20
43.7778
 30
0.0
 40
0.352778
 41
0.352778
  0
VERTEX
  8
0
 10
218.854
 20
42.6622
 30
0.0
 40
0.352778
 41
0.352778
  0
VERTEX
  8
0
 10
218.619
 20
41.5328
 30
0.0
 40
0.352778
 41
0.352778
  0
VERTEX
  8
0
 10
218.444
 20
40.3918
 30
0.0
 40
0.352778
 41
0.352778
  0
VERTEX
  8
0
 10
218.329
 20
39.2417
 30
0.0
 40
0.352778
 41
0.352778
  0
VERTEX
  8
0
 10
218.281
 20
38.3742
 30
0.0
 40
0.352778
 41
0.352778
  0
VERTEX
  8
0
 10
218.275
 20
38.0847
 30
0.0
 40
0.352778
 41
0.352778
  0
VERTEX
  8
0
 10
219.644
 20
38.0847
 30
0.0
 40
0.352778
 41
0.352778
  0
VERTEX
  8
0
 10
219.64
 20
38.0076
 30
0.0
 40
0.352778
 41
0.352778
  0
VERTEX
  8
0
 10
219.64
 20
37.2368
 30
0.0
 40
0.352778
 41
0.352778
  0
VERTEX
  8
0
 10
219.644
 20
37.1597
 30
0.0
 40
0.352778
 41
0.352778
  0
VERTEX
  8
0
 10
218.275
 20
37.1597
 30
0.0
 40
0.352778
 41
0.352778
  0
VERTEX
  8
0
 10
218.281
 20
36.8704
 30
0.0
 40
0.352778
 41
0.352778
  0
VERTEX
  8
0
 10
218.329
 20
36.0028
 30
0.0
 40
0.352778
 41
0.352778
  0
VERTEX
  8
0
 10
218.444
 20
34.8526
 30
0.0
 40
0.352778
 41
0.352778
  0
VERTEX
  8
0
 10
218.619
 20
33.7118
 30
0.0
 40
0.352778
 41
0.352778
  0
VERTEX
  8
0
 10
218.854
 20
32.5824
 30
0.0
 40
0.352778
 41
0.352778
  0
VERTEX
  8
0
 10
219.147
 20
31.4667
 30
0.0
 40
0.352778
 41
0.352778
  0
VERTEX
  8
0
 10
219.499
 20
30.3671
 30
0.0
 40
0.352778
 41
0.352778
  0
VERTEX
  8
0
 10
219.907
 20
29.2861
 30
0.0
 40
0.352778
 41
0.352778
  0
VERTEX
  8
0
 10
220.25
 20
28.4876
 30
0.0
 40
0.352778
 41
0.352778
  0
VERTEX
  8
0
 10
220.374
 20
28.2257
 30
0.0
 40
0.352778
 41
0.352778
  0
VERTEX
  8
0
 10
220.494
 20
28.0982
 30
0.0
 40
0.352778
 41
0.352778
  0
VERTEX
  8
0
 10
220.869
 20
27.7278
 30
0.0
 40
0.352778
 41
0.352778
  0
VERTEX
  8
0
 10
221.388
 20
27.2581
 30
0.0
 40
0.352778
 41
0.352778
  0
VERTEX
  8
0
 10
221.928
 20
26.8171
 30
0.0
 40
0.352778
 41
0.352778
  0
VERTEX
  8
0
 10
222.487
 20
26.4056
 30
0.0
 40
0.352778
 41
0.352778
  0
VERTEX
  8
0
 10
223.065
 20
26.0237
 30
0.0
 40
0.352778
 41
0.352778
  0
VERTEX
  8
0
 10
223.661
 20
25.6725
 30
0.0
 40
0.352778
 41
0.352778
  0
VERTEX
  8
0
 10
224.272
 20
25.3521
 30
0.0
 40
0.352778
 41
0.352778
  0
VERTEX
  8
0
 10
224.9
 20
25.0632
 30
0.0
 40
0.352778
 41
0.352778
  0
VERTEX
  8
0
 10
225.54
 20
24.8063
 30
0.0
 40
0.352778
 41
0.352778
  0
VERTEX
  8
0
 10
226.194
 20
24.5818
 30
0.0
 40
0.352778
 41
0.352778
  0
VERTEX
  8
0
 10
226.858
 20
24.3906
 30
0.0
 40
0.352778
 41
0.352778
  0
VERTEX
  8
0
 10
227.533
 20
24.2328
 30
0.0
 40
0.352778
 41
0.352778
  0
VERTEX
  8
0
 10
228.217
 20
24.1092
 30
0.0
 40
0.352778
 41
0.352778
  0
VERTEX
  8
0
 10
228.907
 20
24.0201
 30
0.0
 40
0.352778
 41
0.352778
  0
VERTEX
  8
0
 10
229.606
 20
23.9664
 30
0.0
 40
0.352778
 41
0.352778
  0
VERTEX
  8
0
 10
230.132
 20
23.9483
 30
0.0
 40
0.352778
 41
0.352778
  0
VERTEX
  8
0
 10
230.307
 20
23.9483
 30
0.0
 40
0.352778
 41
0.352778
  0
VERTEX
  8
0
 10
236.297
 20
23.9483
 30
0.0
 40
0.352778
 41
0.352778
  0
VERTEX
  8
0
 10
236.297
 20
25.4483
 30
0.0
 40
0.352778
 41
0.352778
  0
VERTEX
  8
0
 10
237.222
 20
25.4483
 30
0.0
 40
0.352778
 41
0.352778
  0
VERTEX
  8
0
 10
237.222
 20
23.9483
 30
0.0
 40
0.352778
 41
0.352778
  0
VERTEX
  8
0
 10
258.072
 20
23.9483
 30
0.0
 40
0.352778
 41
0.352778
  0
SEQEND
 8
0
  0
POLYLINE
  8
0
 62
     0
 66
     1
 10
0
 20
0
 30
0.0
 70
     1
 40
25.4
 41
25.4
  0
VERTEX
  8
0
 10
221.374
 20
38.6597
 30
0.0
 40
0.352778
 41
0.352778
  0
VERTEX
  8
0
 10
221.385
 20
38.8586
 30
0.0
 40
0.352778
 41
0.352778
  0
VERTEX
  8
0
 10
221.433
 20
39.4543
 30
0.0
 40
0.352778
 41
0.352778
  0
VERTEX
  8
0
 10
221.528
 20
40.2446
 30
0.0
 40
0.352778
 41
0.352778
  0
VERTEX
  8
0
 10
221.654
 20
41.0296
 30
0.0
 40
0.352778
 41
0.352778
  0
VERTEX
  8
0
 10
221.813
 20
41.8083
 30
0.0
 40
0.352778
 41
0.352778
  0
VERTEX
  8
0
 10
222.004
 20
42.5796
 30
0.0
 40
0.352778
 41
0.352778
  0
VERTEX
  8
0
 10
222.228
 20
43.3425
 30
0.0
 40
0.352778
 41
0.352778
  0
VERTEX
  8
0
 10
222.485
 20
44.0961
 30
0.0
 40
0.352778
 41
0.352778
  0
VERTEX
  8
0
 10
222.696
 20
44.655
 30
0.0
 40
0.352778
 41
0.352778
  0
VERTEX
  8
0
 10
222.772
 20
44.8392
 30
0.0
 40
0.352778
 41
0.352778
  0
VERTEX
  8
0
 10
222.793
 20
44.8908
 30
0.0
 40
0.352778
 41
0.352778
  0
VERTEX
  8
0
 10
222.869
 20
45.0412
 30
0.0
 40
0.352778
 41
0.352778
  0
VERTEX
  8
0
 10
222.987
 20
45.2303
 30
0.0
 40
0.352778
 41
0.352778
  0
VERTEX
  8
0
 10
223.128
 20
45.4047
 30
0.0
 40
0.352778
 41
0.352778
  0
VERTEX
  8
0
 10
223.244
 20
45.5254
 30
0.0
 40
0.352778
 41
0.352778
  0
VERTEX
  8
0
 10
223.288
 20
45.5625
 30
0.0
 40
0.352778
 41
0.352778
  0
VERTEX
  8
0
 10
223.419
 20
45.6792
 30
0.0
 40
0.352778
 41
0.352778
  0
VERTEX
  8
0
 10
223.831
 20
46.0119
 30
0.0
 40
0.352778
 41
0.352778
  0
VERTEX
  8
0
 10
224.401
 20
46.4229
 30
0.0
 40
0.352778
 41
0.352778
  0
VERTEX
  8
0
 10
224.997
 20
46.7944
 30
0.0
 40
0.352778
 41
0.352778
  0
VERTEX
  8
0
 10
225.614
 20
47.1254
 30
0.0
 40
0.352778
 41
0.352778
  0
VERTEX
  8
0
 10
226.253
 20
47.4149
 30
0.0
 40
0.352778
 41
0.352778
  0
VERTEX
  8
0
 10
226.91
 20
47.6617
 30
0.0
 40
0.352778
 41
0.352778
  0
VERTEX
  8
0
 10
227.583
 20
47.8649
 30
0.0
 40
0.352778
 41
0.352778
  0
VERTEX
  8
0
 10
228.097
 20
47.9896
 30
0.0
 40
0.352778
 41
0.352778
  0
VERTEX
  8
0
 10
228.269
 20
48.0235
 30
0.0
 40
0.352778
 41
0.352778
  0
VERTEX
  8
0
 10
228.269
 20
39.875
 30
0.0
 40
0.352778
 41
0.352778
  0
VERTEX
  8
0
 10
228.201
 20
39.8131
 30
0.0
 40
0.352778
 41
0.352778
  0
VERTEX
  8
0
 10
228.011
 20
39.6104
 30
0.0
 40
0.352778
 41
0.352778
  0
VERTEX
  8
0
 10
227.787
 20
39.3174
 30
0.0
 40
0.352778
 41
0.352778
  0
VERTEX
  8
0
 10
227.6
 20
38.9993
 30
0.0
 40
0.352778
 41
0.352778
  0
VERTEX
  8
0
 10
227.485
 20
38.7465
 30
0.0
 40
0.352778
 41
0.352778
  0
VERTEX
  8
0
 10
227.453
 20
38.6597
 30
0.0
 40
0.352778
 41
0.352778
  0
VERTEX
  8
0
 10
221.374
 20
38.6597
 30
0.0
 40
0.352778
 41
0.352778
  0
SEQEND
 8
0
  0
POLYLINE
  8
0
 62
     0
 66
     1
 10
0
 20
0
 30
0.0
 70
     1
 40
25.4
 41
25.4
  0
VERTEX
  8
0
 10
222.026
 20
46.5575
 30
0.0
 40
0.352778
 41
0.352778
  0
VERTEX
  8
0
 10
221.372
 20
45.9035
 30
0.0
 40
0.352778
 41
0.352778
  0
VERTEX
  8
0
 10
220.447
 20
46.8286
 30
0.0
 40
0.352778
 41
0.352778
  0
VERTEX
  8
0
 10
220.49
 20
46.8935
 30
0.0
 40
0.352778
 41
0.352778
  0
VERTEX
  8
0
 10
220.722
 20
47.2047
 30
0.0
 40
0.352778
 41
0.352778
  0
VERTEX
  8
0
 10
220.976
 20
47.4976
 30
0.0
 40
0.352778
 41
0.352778
  0
VERTEX
  8
0
 10
221.031
 20
47.5533
 30
0.0
 40
0.352778
 41
0.352778
  0
VERTEX
  8
0
 10
222.026
 20
46.5575
 30
0.0
 40
0.352778
 41
0.352778
  0
SEQEND
 8
0
  0
POLYLINE
  8
0
 62
     0
 66
     1
 10
0
 20
0
 30
0.0
 70
     1
 40
25.4
 41
25.4
  0
VERTEX
  8
0
 10
221.921
 20
28.7931
 30
0.0
 40
0.352778
 41
0.352778
  0
VERTEX
  8
0
 10
221.478
 20
29.235
 30
0.0
 40
0.352778
 41
0.352778
  0
VERTEX
  8
0
 10
220.533
 20
28.2897
 30
0.0
 40
0.352778
 41
0.352778
  0
VERTEX
  8
0
 10
220.564
 20
28.2469
 30
0.0
 40
0.352778
 41
0.352778
  0
VERTEX
  8
0
 10
220.722
 20
28.0388
 30
0.0
 40
0.352778
 41
0.352778
  0
VERTEX
  8
0
 10
220.892
 20
27.8389
 30
0.0
 40
0.352778
 41
0.352778
  0
VERTEX
  8
0
 10
220.928
 20
27.8003
 30
0.0
 40
0.352778
 41
0.352778
  0
VERTEX
  8
0
 10
221.921
 20
28.7931
 30
0.0
 40
0.352778
 41
0.352778
  0
SEQEND
 8
0
  0
POLYLINE
  8
0
 62
     0
 66
     1
 10
0
 20
0
 30
0.0
 70
     1
 40
25.4
 41
25.4
  0
VERTEX
  8
0
 10
228.269
 20
27.221
 30
0.0
 40
0.352778
 41
0.352778
  0
VERTEX
  8
0
 10
228.097
 20
27.255
 30
0.0
 40
0.352778
 41
0.352778
  0
VERTEX
  8
0
 10
227.583
 20
27.3797
 30
0.0
 40
0.352778
 41
0.352778
  0
VERTEX
  8
0
 10
226.91
 20
27.5828
 30
0.0
 40
0.352778
 41
0.352778
  0
VERTEX
  8
0
 10
226.253
 20
27.8297
 30
0.0
 40
0.352778
 41
0.352778
  0
VERTEX
  8
0
 10
225.614
 20
28.119
 30
0.0
 40
0.352778
 41
0.352778
  0
VERTEX
  8
0
 10
224.997
 20
28.4501
 30
0.0
 40
0.352778
 41
0.352778
  0
VERTEX
  8
0
 10
224.401
 20
28.8215
 30
0.0
 40
0.352778
 41
0.352778
  0
VERTEX
  8
0
 10
223.831
 20
29.2326
 30
0.0
 40
0.352778
 41
0.352778
  0
VERTEX
  8
0
 10
223.419
 20
29.5653
 30
0.0
 40
0.352778
 41
0.352778
  0
VERTEX
  8
0
 10
223.288
 20
29.6821
 30
0.0
 40
0.352778
 41
0.352778
  0
VERTEX
  8
0
 10
223.244
 20
29.719
 30
0.0
 40
0.352778
 41
0.352778
  0
VERTEX
  8
0
 10
223.128
 20
29.8399
 30
0.0
 40
0.352778
 41
0.352778
  0
VERTEX
  8
0
 10
222.987
 20
30.0142
 30
0.0
 40
0.352778
 41
0.352778
  0
VERTEX
  8
0
 10
222.869
 20
30.2033
 30
0.0
 40
0.352778
 41
0.352778
  0
VERTEX
  8
0
 10
222.793
 20
30.3536
 30
0.0
 40
0.352778
 41
0.352778
  0
VERTEX
  8
0
 10
222.772
 20
30.4053
 30
0.0
 40
0.352778
 41
0.352778
  0
VERTEX
  8
0
 10
222.696
 20
30.5896
 30
0.0
 40
0.352778
 41
0.352778
  0
VERTEX
  8
0
 10
222.485
 20
31.1485
 30
0.0
 40
0.352778
 41
0.352778
  0
VERTEX
  8
0
 10
222.228
 20
31.9019
 30
0.0
 40
0.352778
 41
0.352778
  0
VERTEX
  8
0
 10
222.004
 20
32.665
 30
0.0
 40
0.352778
 41
0.352778
  0
VERTEX
  8
0
 10
221.813
 20
33.4362
 30
0.0
 40
0.352778
 41
0.352778
  0
VERTEX
  8
0
 10
221.654
 20
34.2149
 30
0.0
 40
0.352778
 41
0.352778
  0
VERTEX
  8
0
 10
221.528
 20
34.9999
 30
0.0
 40
0.352778
 41
0.352778
  0
VERTEX
  8
0
 10
221.433
 20
35.7901
 30
0.0
 40
0.352778
 41
0.352778
  0
VERTEX
  8
0
 10
221.385
 20
36.386
 30
0.0
 40
0.352778
 41
0.352778
  0
VERTEX
  8
0
 10
221.374
 20
36.5847
 30
0.0
 40
0.352778
 41
0.352778
  0
VERTEX
  8
0
 10
227.453
 20
36.5847
 30
0.0
 40
0.352778
 41
0.352778
  0
VERTEX
  8
0
 10
227.485
 20
36.4979
 30
0.0
 40
0.352778
 41
0.352778
  0
VERTEX
  8
0
 10
227.6
 20
36.2451
 30
0.0
 40
0.352778
 41
0.352778
  0
VERTEX
  8
0
 10
227.787
 20
35.9271
 30
0.0
 40
0.352778
 41
0.352778
  0
VERTEX
  8
0
 10
228.011
 20
35.6342
 30
0.0
 40
0.352778
 41
0.352778
  0
VERTEX
  8
0
 10
228.201
 20
35.4315
 30
0.0
 40
0.352778
 41
0.352778
  0
VERTEX
  8
0
 10
228.269
 20
35.3694
 30
0.0
 40
0.352778
 41
0.352778
  0
VERTEX
  8
0
 10
228.269
 20
27.221
 30
0.0
 40
0.352778
 41
0.352778
  0
SEQEND
 8
0
  0
POLYLINE
  8
0
 62
     0
 66
     1
 10
0
 20
0
 30
0.0
 40
25.4
 41
25.4
  0
VERTEX
  8
0
 10
230.344
 20
42.5097
 30
0.0
 40
0.352778
 41
0.352778
  0
VERTEX
  8
0
 10
251.196
 20
42.5097
 30
0.0
 40
0.352778
 41
0.352778
  0
VERTEX
  8
0
 10
251.196
 20
44.0097
 30
0.0
 40
0.352778
 41
0.352778
  0
VERTEX
  8
0
 10
252.121
 20
44.0097
 30
0.0
 40
0.352778
 41
0.352778
  0
VERTEX
  8
0
 10
252.121
 20
42.5097
 30
0.0
 40
0.352778
 41
0.352778
  0
VERTEX
  8
0
 10
258.11
 20
42.5097
 30
0.0
 40
0.352778
 41
0.352778
  0
VERTEX
  8
0
 10
258.286
 20
42.5097
 30
0.0
 40
0.352778
 41
0.352778
  0
VERTEX
  8
0
 10
258.813
 20
42.5278
 30
0.0
 40
0.352778
 41
0.352778
  0
VERTEX
  8
0
 10
259.51
 20
42.5815
 30
0.0
 40
0.352778
 41
0.352778
  0
VERTEX
  8
0
 10
260.201
 20
42.6706
 30
0.0
 40
0.352778
 41
0.352778
  0
VERTEX
  8
0
 10
260.885
 20
42.7942
 30
0.0
 40
0.352778
 41
0.352778
  0
VERTEX
  8
0
 10
261.56
 20
42.9519
 30
0.0
 40
0.352778
 41
0.352778
  0
VERTEX
  8
0
 10
262.224
 20
43.1432
 30
0.0
 40
0.352778
 41
0.352778
  0
VERTEX
  8
0
 10
262.876
 20
43.3676
 30
0.0
 40
0.352778
 41
0.352778
  0
VERTEX
  8
0
 10
263.518
 20
43.6244
 30
0.0
 40
0.352778
 41
0.352778
  0
VERTEX
  8
0
 10
264.144
 20
43.9135
 30
0.0
 40
0.352778
 41
0.352778
  0
VERTEX
  8
0
 10
264.757
 20
44.2339
 30
0.0
 40
0.352778
 41
0.352778
  0
VERTEX
  8
0
 10
265.353
 20
44.5851
 30
0.0
 40
0.352778
 41
0.352778
  0
VERTEX
  8
0
 10
265.931
 20
44.9669
 30
0.0
 40
0.352778
 41
0.352778
  0
VERTEX
  8
0
 10
266.49
 20
45.3785
 30
0.0
 40
0.352778
 41
0.352778
  0
VERTEX
  8
0
 10
267.029
 20
45.8194
 30
0.0
 40
0.352778
 41
0.352778
  0
VERTEX
  8
0
 10
267.547
 20
46.2892
 30
0.0
 40
0.352778
 41
0.352778
  0
VERTEX
  8
0
 10
267.924
 20
46.6596
 30
0.0
 40
0.352778
 41
0.352778
  0
VERTEX
  8
0
 10
268.044
 20
46.7872
 30
0.0
 40
0.352778
 41
0.352778
  0
VERTEX
  8
0
 10
268.167
 20
47.049
 30
0.0
 40
0.352778
 41
0.352778
  0
VERTEX
  8
0
 10
268.51
 20
47.8475
 30
0.0
 40
0.352778
 41
0.352778
  0
VERTEX
  8
0
 10
268.919
 20
48.9286
 30
0.0
 40
0.352778
 41
0.352778
  0
VERTEX
  8
0
 10
269.271
 20
50.0281
 30
0.0
 40
0.352778
 41
0.352778
  0
VERTEX
  8
0
 10
269.564
 20
51.1438
 30
0.0
 40
0.352778
 41
0.352778
  0
VERTEX
  8
0
 10
269.797
 20
52.2732
 30
0.0
 40
0.352778
 41
0.352778
  0
VERTEX
  8
0
 10
269.972
 20
53.4142
 30
0.0
 40
0.352778
 41
0.352778
  0
VERTEX
  8
0
 10
270.088
 20
54.5642
 30
0.0
 40
0.352778
 41
0.352778
  0
VERTEX
  8
0
 10
270.136
 20
55.4318
 30
0.0
 40
0.352778
 41
0.352778
  0
VERTEX
  8
0
 10
270.143
 20
55.7211
 30
0.0
 40
0.352778
 41
0.352778
  0
VERTEX
  8
0
 10
268.774
 20
55.7211
 30
0.0
 40
0.352778
 41
0.352778
  0
VERTEX
  8
0
 10
268.776
 20
55.7982
 30
0.0
 40
0.352778
 41
0.352778
  0
VERTEX
  8
0
 10
268.776
 20
56.569
 30
0.0
 40
0.352778
 41
0.352778
  0
VERTEX
  8
0
 10
268.774
 20
56.6461
 30
0.0
 40
0.352778
 41
0.352778
  0
VERTEX
  8
0
 10
270.143
 20
56.6461
 30
0.0
 40
0.352778
 41
0.352778
  0
VERTEX
  8
0
 10
270.136
 20
56.9356
 30
0.0
 40
0.352778
 41
0.352778
  0
VERTEX
  8
0
 10
270.088
 20
57.8031
 30
0.0
 40
0.352778
 41
0.352778
  0
VERTEX
  8
0
 10
269.972
 20
58.9532
 30
0.0
 40
0.352778
 41
0.352778
  0
VERTEX
  8
0
 10
269.797
 20
60.0942
 30
0.0
 40
0.352778
 41
0.352778
  0
VERTEX
  8
0
 10
269.564
 20
61.2236
 30
0.0
 40
0.352778
 41
0.352778
  0
VERTEX
  8
0
 10
269.271
 20
62.3393
 30
0.0
 40
0.352778
 41
0.352778
  0
VERTEX
  8
0
 10
268.919
 20
63.4387
 30
0.0
 40
0.352778
 41
0.352778
  0
VERTEX
  8
0
 10
268.51
 20
64.5199
 30
0.0
 40
0.352778
 41
0.352778
  0
VERTEX
  8
0
 10
268.167
 20
65.3183
 30
0.0
 40
0.352778
 41
0.352778
  0
VERTEX
  8
0
 10
268.044
 20
65.5801
 30
0.0
 40
0.352778
 41
0.352778
  0
VERTEX
  8
0
 10
267.924
 20
65.7076
 30
0.0
 40
0.352778
 41
0.352778
  0
VERTEX
  8
0
 10
267.547
 20
66.0782
 30
0.0
 40
0.352778
 41
0.352778
  0
VERTEX
  8
0
 10
267.029
 20
66.5479
 30
0.0
 40
0.352778
 41
0.352778
  0
VERTEX
  8
0
 10
266.49
 20
66.9887
 30
0.0
 40
0.352778
 41
0.352778
  0
VERTEX
  8
0
 10
265.931
 20
67.4003
 30
0.0
 40
0.352778
 41
0.352778
  0
VERTEX
  8
0
 10
265.353
 20
67.7821
 30
0.0
 40
0.352778
 41
0.352778
  0
VERTEX
  8
0
 10
264.757
 20
68.1335
 30
0.0
 40
0.352778
 41
0.352778
  0
VERTEX
  8
0
 10
264.144
 20
68.4537
 30
0.0
 40
0.352778
 41
0.352778
  0
VERTEX
  8
0
 10
263.518
 20
68.7428
 30
0.0
 40
0.352778
 41
0.352778
  0
VERTEX
  8
0
 10
262.876
 20
68.9996
 30
0.0
 40
0.352778
 41
0.352778
  0
VERTEX
  8
0
 10
262.224
 20
69.224
 30
0.0
 40
0.352778
 41
0.352778
  0
VERTEX
  8
0
 10
261.56
 20
69.4154
 30
0.0
 40
0.352778
 41
0.352778
  0
VERTEX
  8
0
 10
260.885
 20
69.5732
 30
0.0
 40
0.352778
 41
0.352778
  0
VERTEX
  8
0
 10
260.201
 20
69.6967
 30
0.0
 40
0.352778
 41
0.352778
  0
VERTEX
  8
0
 10
259.51
 20
69.7857
 30
0.0
 40
0.352778
 41
0.352778
  0
VERTEX
  8
0
 10
258.813
 20
69.8394
 30
0.0
 40
0.352778
 41
0.352778
  0
VERTEX
  8
0
 10
258.286
 20
69.8575
 30
0.0
 40
0.352778
 41
0.352778
  0
VERTEX
  8
0
 10
258.11
 20
69.8575
 30
0.0
 40
0.352778
 41
0.352778
  0
VERTEX
  8
0
 10
252.121
 20
69.8575
 30
0.0
 40
0.352778
 41
0.352778
  0
VERTEX
  8
0
 10
252.121
 20
68.3575
 30
0.0
 40
0.352778
 41
0.352778
  0
VERTEX
  8
0
 10
251.196
 20
68.3575
 30
0.0
 40
0.352778
 41
0.352778
  0
VERTEX
  8
0
 10
251.196
 20
69.8575
 30
0.0
 40
0.352778
 41
0.352778
  0
VERTEX
  8
0
 10
230.344
 20
69.8575
 30
0.0
 40
0.352778
 41
0.352778
  0
VERTEX
  8
0
 10
230.344
 20
64.1461
 30
0.0
 40
0.352778
 41
0.352778
  0
VERTEX
  8
0
 10
237.421
 20
64.1461
 30
0.0
 40
0.352778
 41
0.352778
  0
VERTEX
  8
0
 10
237.421
 20
66.7825
 30
0.0
 40
0.352778
 41
0.352778
  0
VERTEX
  8
0
 10
258.072
 20
66.7825
 30
0.0
 40
0.352778
 41
0.352778
  0
VERTEX
  8
0
 10
258.072
 20
45.5847
 30
0.0
 40
0.352778
 41
0.352778
  0
VERTEX
  8
0
 10
237.421
 20
45.5847
 30
0.0
 40
0.352778
 41
0.352778
  0
VERTEX
  8
0
 10
237.421
 20
48.2211
 30
0.0
 40
0.352778
 41
0.352778
  0
SEQEND
 8
0
  0
POLYLINE
  8
0
 62
     0
 66
     1
 10
0
 20
0
 30
0.0
 70
     1
 40
25.4
 41
25.4
  0
VERTEX
  8
0
 10
260.147
 20
53.9308
 30
0.0
 40
0.352778
 41
0.352778
  0
VERTEX
  8
0
 10
260.215
 20
53.9928
 30
0.0
 40
0.352778
 41
0.352778
  0
VERTEX
  8
0
 10
260.407
 20
54.1954
 30
0.0
 40
0.352778
 41
0.352778
  0
VERTEX
  8
0
 10
260.631
 20
54.4885
 30
0.0
 40
0.352778
 41
0.352778
  0
VERTEX
  8
0
 10
260.817
 20
54.8065
 30
0.0
 40
0.352778
 41
0.352778
  0
VERTEX
  8
0
 10
260.933
 20
55.0593
 30
0.0
 40
0.352778
 41
0.352778
  0
VERTEX
  8
0
 10
260.965
 20
55.1461
 30
0.0
 40
0.352778
 41
0.352778
  0
VERTEX
  8
0
 10
267.044
 20
55.1461
 30
0.0
 40
0.352778
 41
0.352778
  0
VERTEX
  8
0
 10
267.033
 20
54.9472
 30
0.0
 40
0.352778
 41
0.352778
  0
VERTEX
  8
0
 10
266.983
 20
54.3515
 30
0.0
 40
0.352778
 41
0.352778
  0
VERTEX
  8
0
 10
266.89
 20
53.5612
 30
0.0
 40
0.352778
 41
0.352778
  0
VERTEX
  8
0
 10
266.764
 20
52.7762
 30
0.0
 40
0.352778
 41
0.352778
  0
VERTEX
  8
0
 10
266.604
 20
51.9976
 30
0.0
 40
0.352778
 41
0.352778
  0
VERTEX
  8
0
 10
266.412
 20
51.2263
 30
0.0
 40
0.352778
 41
0.352778
  0
VERTEX
  8
0
 10
266.189
 20
50.4633
 30
0.0
 40
0.352778
 41
0.352778
  0
VERTEX
  8
0
 10
265.933
 20
49.7099
 30
0.0
 40
0.352778
 41
0.352778
  0
VERTEX
  8
0
 10
265.721
 20
49.1508
 30
0.0
 40
0.352778
 41
0.352778
  0
VERTEX
  8
0
 10
265.646
 20
48.9667
 30
0.0
 40
0.352778
 41
0.352778
  0
VERTEX
  8
0
 10
265.624
 20
48.915
 30
0.0
 40
0.352778
 41
0.352778
  0
VERTEX
  8
0
 10
265.549
 20
48.7646
 30
0.0
 40
0.352778
 41
0.352778
  0
VERTEX
  8
0
 10
265.429
 20
48.5756
 30
0.0
 40
0.352778
 41
0.352778
  0
VERTEX
  8
0
 10
265.29
 20
48.4012
 30
0.0
 40
0.352778
 41
0.352778
  0
VERTEX
  8
0
 10
265.172
 20
48.2804
 30
0.0
 40
0.352778
 41
0.352778
  0
VERTEX
  8
0
 10
265.131
 20
48.2433
 30
0.0
 40
0.352778
 41
0.352778
  0
VERTEX
  8
0
 10
264.999
 20
48.1267
 30
0.0
 40
0.352778
 41
0.352778
  0
VERTEX
  8
0
 10
264.586
 20
47.7939
 30
0.0
 40
0.352778
 41
0.352778
  0
VERTEX
  8
0
 10
264.017
 20
47.3829
 30
0.0
 40
0.352778
 41
0.352778
  0
VERTEX
  8
0
 10
263.421
 20
47.0114
 30
0.0
 40
0.352778
 41
0.352778
  0
VERTEX
  8
0
 10
262.803
 20
46.6806
 30
0.0
 40
0.352778
 41
0.352778
  0
VERTEX
  8
0
 10
262.165
 20
46.3911
 30
0.0
 40
0.352778
 41
0.352778
  0
VERTEX
  8
0
 10
261.508
 20
46.1443
 30
0.0
 40
0.352778
 41
0.352778
  0
VERTEX
  8
0
 10
260.835
 20
45.9411
 30
0.0
 40
0.352778
 41
0.352778
  0
VERTEX
  8
0
 10
260.321
 20
45.8164
 30
0.0
 40
0.352778
 41
0.352778
  0
VERTEX
  8
0
 10
260.147
 20
45.7825
 30
0.0
 40
0.352778
 41
0.352778
  0
VERTEX
  8
0
 10
260.147
 20
53.9308
 30
0.0
 40
0.352778
 41
0.352778
  0
SEQEND
 8
0
  0
POLYLINE
  8
0
 62
     0
 66
     1
 10
0
 20
0
 30
0.0
 70
     1
 40
25.4
 41
25.4
  0
VERTEX
  8
0
 10
267.971
 20
46.9772
 30
0.0
 40
0.352778
 41
0.352778
  0
VERTEX
  8
0
 10
267.928
 20
46.9124
 30
0.0
 40
0.352778
 41
0.352778
  0
VERTEX
  8
0
 10
267.696
 20
46.6013
 30
0.0
 40
0.352778
 41
0.352778
  0
VERTEX
  8
0
 10
267.442
 20
46.3083
 30
0.0
 40
0.352778
 41
0.352778
  0
VERTEX
  8
0
 10
267.388
 20
46.2525
 30
0.0
 40
0.352778
 41
0.352778
  0
VERTEX
  8
0
 10
266.392
 20
47.2483
 30
0.0
 40
0.352778
 41
0.352778
  0
VERTEX
  8
0
 10
267.046
 20
47.9024
 30
0.0
 40
0.352778
 41
0.352778
  0
VERTEX
  8
0
 10
267.971
 20
46.9772
 30
0.0
 40
0.352778
 41
0.352778
  0
SEQEND
 8
0
  0
POLYLINE
  8
0
 62
     0
 66
     1
 10
0
 20
0
 30
0.0
 70
     1
 40
25.4
 41
25.4
  0
VERTEX
  8
0
 10
266.497
 20
65.0128
 30
0.0
 40
0.352778
 41
0.352778
  0
VERTEX
  8
0
 10
267.49
 20
66.0056
 30
0.0
 40
0.352778
 41
0.352778
  0
VERTEX
  8
0
 10
267.525
 20
65.9669
 30
0.0
 40
0.352778
 41
0.352778
  0
VERTEX
  8
0
 10
267.694
 20
65.7671
 30
0.0
 40
0.352778
 41
0.352778
  0
VERTEX
  8
0
 10
267.854
 20
65.5589
 30
0.0
 40
0.352778
 41
0.352778
  0
VERTEX
  8
0
 10
267.885
 20
65.5161
 30
0.0
 40
0.352778
 41
0.352778
  0
VERTEX
  8
0
 10
266.939
 20
64.571
 30
0.0
 40
0.352778
 41
0.352778
  0
VERTEX
  8
0
 10
266.497
 20
65.0128
 30
0.0
 40
0.352778
 41
0.352778
  0
SEQEND
 8
0
  0
POLYLINE
  8
0
 62
     0
 66
     1
 10
0
 20
0
 30
0.0
 70
     1
 40
25.4
 41
25.4
  0
VERTEX
  8
0
 10
260.147
 20
66.5849
 30
0.0
 40
0.352778
 41
0.352778
  0
VERTEX
  8
0
 10
260.321
 20
66.551
 30
0.0
 40
0.352778
 41
0.352778
  0
VERTEX
  8
0
 10
260.835
 20
66.4262
 30
0.0
 40
0.352778
 41
0.352778
  0
VERTEX
  8
0
 10
261.508
 20
66.2231
 30
0.0
 40
0.352778
 41
0.352778
  0
VERTEX
  8
0
 10
262.165
 20
65.9763
 30
0.0
 40
0.352778
 41
0.352778
  0
VERTEX
  8
0
 10
262.803
 20
65.6868
 30
0.0
 40
0.352778
 41
0.352778
  0
VERTEX
  8
0
 10
263.421
 20
65.3558
 30
0.0
 40
0.352778
 41
0.352778
  0
VERTEX
  8
0
 10
264.017
 20
64.9843
 30
0.0
 40
0.352778
 41
0.352778
  0
VERTEX
  8
0
 10
264.586
 20
64.5733
 30
0.0
 40
0.352778
 41
0.352778
  0
VERTEX
  8
0
 10
264.999
 20
64.2407
 30
0.0
 40
0.352778
 41
0.352778
  0
VERTEX
  8
0
 10
265.131
 20
64.1239
 30
0.0
 40
0.352778
 41
0.352778
  0
VERTEX
  8
0
 10
265.172
 20
64.0868
 30
0.0
 40
0.352778
 41
0.352778
  0
VERTEX
  8
0
 10
265.29
 20
63.966
 30
0.0
 40
0.352778
 41
0.352778
  0
VERTEX
  8
0
 10
265.429
 20
63.7917
 30
0.0
 40
0.352778
 41
0.352778
  0
VERTEX
  8
0
 10
265.549
 20
63.6026
 30
0.0
 40
0.352778
 41
0.352778
  0
VERTEX
  8
0
 10
265.624
 20
63.4522
 30
0.0
 40
0.352778
 41
0.352778
  0
VERTEX
  8
0
 10
265.646
 20
63.4006
 30
0.0
 40
0.352778
 41
0.352778
  0
VERTEX
  8
0
 10
265.721
 20
63.2164
 30
0.0
 40
0.352778
 41
0.352778
  0
VERTEX
  8
0
 10
265.933
 20
62.6575
 30
0.0
 40
0.352778
 41
0.352778
  0
VERTEX
  8
0
 10
266.189
 20
61.9039
 30
0.0
 40
0.352778
 41
0.352778
  0
VERTEX
  8
0
 10
266.412
 20
61.141
 30
0.0
 40
0.352778
 41
0.352778
  0
VERTEX
  8
0
 10
266.604
 20
60.3697
 30
0.0
 40
0.352778
 41
0.352778
  0
VERTEX
  8
0
 10
266.764
 20
59.591
 30
0.0
 40
0.352778
 41
0.352778
  0
VERTEX
  8
0
 10
266.89
 20
58.8061
 30
0.0
 40
0.352778
 41
0.352778
  0
VERTEX
  8
0
 10
266.983
 20
58.0157
 30
0.0
 40
0.352778
 41
0.352778
  0
VERTEX
  8
0
 10
267.033
 20
57.42
 30
0.0
 40
0.352778
 41
0.352778
  0
VERTEX
  8
0
 10
267.044
 20
57.2211
 30
0.0
 40
0.352778
 41
0.352778
  0
VERTEX
  8
0
 10
260.965
 20
57.2211
 30
0.0
 40
0.352778
 41
0.352778
  0
VERTEX
  8
0
 10
260.933
 20
57.3081
 30
0.0
 40
0.352778
 41
0.352778
  0
VERTEX
  8
0
 10
260.817
 20
57.5608
 30
0.0
 40
0.352778
 41
0.352778
  0
VERTEX
  8
0
 10
260.631
 20
57.8788
 30
0.0
 40
0.352778
 41
0.352778
  0
VERTEX
  8
0
 10
260.407
 20
58.1718
 30
0.0
 40
0.352778
 41
0.352778
  0
VERTEX
  8
0
 10
260.215
 20
58.3744
 30
0.0
 40
0.352778
 41
0.352778
  0
VERTEX
  8
0
 10
260.147
 20
58.4364
 30
0.0
 40
0.352778
 41
0.352778
  0
VERTEX
  8
0
 10
260.147
 20
66.5849
 30
0.0
 40
0.352778
 41
0.352778
  0
SEQEND
 8
0
  0
POLYLINE
  8
0
 62
     0
 66
     1
 10
0
 20
0
 30
0.0
 40
25.4
 41
25.4
  0
VERTEX
  8
0
 10
237.421
 20
27.0233
 30
0.0
 40
0.352778
 41
0.352778
  0
VERTEX
  8
0
 10
237.421
 20
29.6597
 30
0.0
 40
0.352778
 41
0.352778
  0
VERTEX
  8
0
 10
258.072
 20
29.6597
 30
0.0
 40
0.352778
 41
0.352778
  0
VERTEX
  8
0
 10
258.072
 20
8.46197
 30
0.0
 40
0.352778
 41
0.352778
  0
VERTEX
  8
0
 10
237.421
 20
8.46197
 30
0.0
 40
0.352778
 41
0.352778
  0
VERTEX
  8
0
 10
237.421
 20
11.0983
 30
0.0
 40
0.352778
 41
0.352778
  0
VERTEX
  8
0
 10
230.344
 20
11.0983
 30
0.0
 40
0.352778
 41
0.352778
  0
VERTEX
  8
0
 10
230.344
 20
5.38693
 30
0.0
 40
0.352778
 41
0.352778
  0
VERTEX
  8
0
 10
251.196
 20
5.38693
 30
0.0
 40
0.352778
 41
0.352778
  0
VERTEX
  8
0
 10
251.196
 20
6.88693
 30
0.0
 40
0.352778
 41
0.352778
  0
VERTEX
  8
0
 10
252.121
 20
6.88693
 30
0.0
 40
0.352778
 41
0.352778
  0
VERTEX
  8
0
 10
252.121
 20
5.38693
 30
0.0
 40
0.352778
 41
0.352778
  0
VERTEX
  8
0
 10
258.11
 20
5.38693
 30
0.0
 40
0.352778
 41
0.352778
  0
VERTEX
  8
0
 10
258.286
 20
5.38693
 30
0.0
 40
0.352778
 41
0.352778
  0
VERTEX
  8
0
 10
258.813
 20
5.405
 30
0.0
 40
0.352778
 41
0.352778
  0
VERTEX
  8
0
 10
259.51
 20
5.45876
 30
0.0
 40
0.352778
 41
0.352778
  0
VERTEX
  8
0
 10
260.201
 20
5.54775
 30
0.0
 40
0.352778
 41
0.352778
  0
VERTEX
  8
0
 10
260.885
 20
5.67133
 30
0.0
 40
0.352778
 41
0.352778
  0
VERTEX
  8
0
 10
261.56
 20
5.8291
 30
0.0
 40
0.352778
 41
0.352778
  0
VERTEX
  8
0
 10
262.224
 20
6.02046
 30
0.0
 40
0.352778
 41
0.352778
  0
VERTEX
  8
0
 10
262.876
 20
6.24485
 30
0.0
 40
0.352778
 41
0.352778
  0
VERTEX
  8
0
 10
263.518
 20
6.50174
 30
0.0
 40
0.352778
 41
0.352778
  0
VERTEX
  8
0
 10
264.144
 20
6.79069
 30
0.0
 40
0.352778
 41
0.352778
  0
VERTEX
  8
0
 10
264.757
 20
7.11111
 30
0.0
 40
0.352778
 41
0.352778
  0
VERTEX
  8
0
 10
265.353
 20
7.4624
 30
0.0
 40
0.352778
 41
0.352778
  0
VERTEX
  8
0
 10
265.931
 20
7.84412
 30
0.0
 40
0.352778
 41
0.352778
  0
VERTEX
  8
0
 10
266.49
 20
8.25575
 30
0.0
 40
0.352778
 41
0.352778
  0
VERTEX
  8
0
 10
267.029
 20
8.69667
 30
0.0
 40
0.352778
 41
0.352778
  0
VERTEX
  8
0
 10
267.547
 20
9.16639
 30
0.0
 40
0.352778
 41
0.352778
  0
VERTEX
  8
0
 10
267.924
 20
9.53683
 30
0.0
 40
0.352778
 41
0.352778
  0
VERTEX
  8
0
 10
268.044
 20
9.66439
 30
0.0
 40
0.352778
 41
0.352778
  0
VERTEX
  8
0
 10
268.167
 20
9.92622
 30
0.0
 40
0.352778
 41
0.352778
  0
VERTEX
  8
0
 10
268.51
 20
10.7247
 30
0.0
 40
0.352778
 41
0.352778
  0
VERTEX
  8
0
 10
268.919
 20
11.8058
 30
0.0
 40
0.352778
 41
0.352778
  0
VERTEX
  8
0
 10
269.271
 20
12.9053
 30
0.0
 40
0.352778
 41
0.352778
  0
VERTEX
  8
0
 10
269.564
 20
14.021
 30
0.0
 40
0.352778
 41
0.352778
  0
VERTEX
  8
0
 10
269.797
 20
15.1504
 30
0.0
 40
0.352778
 41
0.352778
  0
VERTEX
  8
0
 10
269.972
 20
16.2912
 30
0.0
 40
0.352778
 41
0.352778
  0
VERTEX
  8
0
 10
270.088
 20
17.4414
 30
0.0
 40
0.352778
 41
0.352778
  0
VERTEX
  8
0
 10
270.136
 20
18.309
 30
0.0
 40
0.352778
 41
0.352778
  0
VERTEX
  8
0
 10
270.143
 20
18.5983
 30
0.0
 40
0.352778
 41
0.352778
  0
VERTEX
  8
0
 10
268.774
 20
18.5983
 30
0.0
 40
0.352778
 41
0.352778
  0
VERTEX
  8
0
 10
268.776
 20
18.6754
 30
0.0
 40
0.352778
 41
0.352778
  0
VERTEX
  8
0
 10
268.776
 20
19.4463
 30
0.0
 40
0.352778
 41
0.352778
  0
VERTEX
  8
0
 10
268.774
 20
19.5233
 30
0.0
 40
0.352778
 41
0.352778
  0
VERTEX
  8
0
 10
270.143
 20
19.5233
 30
0.0
 40
0.352778
 41
0.352778
  0
VERTEX
  8
0
 10
270.136
 20
19.8128
 30
0.0
 40
0.352778
 41
0.352778
  0
VERTEX
  8
0
 10
270.088
 20
20.6803
 30
0.0
 40
0.352778
 41
0.352778
  0
VERTEX
  8
0
 10
269.972
 20
21.8304
 30
0.0
 40
0.352778
 41
0.352778
  0
VERTEX
  8
0
 10
269.797
 20
22.9714
 30
0.0
 40
0.352778
 41
0.352778
  0
VERTEX
  8
0
 10
269.564
 20
24.1008
 30
0.0
 40
0.352778
 41
0.352778
  0
VERTEX
  8
0
 10
269.271
 20
25.2165
 30
0.0
 40
0.352778
 41
0.352778
  0
VERTEX
  8
0
 10
268.919
 20
26.316
 30
0.0
 40
0.352778
 41
0.352778
  0
VERTEX
  8
0
 10
268.51
 20
27.3971
 30
0.0
 40
0.352778
 41
0.352778
  0
VERTEX
  8
0
 10
268.167
 20
28.1956
 30
0.0
 40
0.352778
 41
0.352778
  0
VERTEX
  8
0
 10
268.044
 20
28.4574
 30
0.0
 40
0.352778
 41
0.352778
  0
VERTEX
  8
0
 10
267.924
 20
28.5849
 30
0.0
 40
0.352778
 41
0.352778
  0
VERTEX
  8
0
 10
267.547
 20
28.9554
 30
0.0
 40
0.352778
 41
0.352778
  0
VERTEX
  8
0
 10
267.029
 20
29.4251
 30
0.0
 40
0.352778
 41
0.352778
  0
VERTEX
  8
0
 10
266.49
 20
29.866
 30
0.0
 40
0.352778
 41
0.352778
  0
VERTEX
  8
0
 10
265.931
 20
30.2775
 30
0.0
 40
0.352778
 41
0.352778
  0
VERTEX
  8
0
 10
265.353
 20
30.6593
 30
0.0
 40
0.352778
 41
0.352778
  0
VERTEX
  8
0
 10
264.757
 20
31.0107
 30
0.0
 40
0.352778
 41
0.352778
  0
VERTEX
  8
0
 10
264.144
 20
31.331
 30
0.0
 40
0.352778
 41
0.352778
  0
VERTEX
  8
0
 10
263.518
 20
31.62
 30
0.0
 40
0.352778
 41
0.352778
  0
VERTEX
  8
0
 10
262.876
 20
31.8768
 30
0.0
 40
0.352778
 41
0.352778
  0
VERTEX
  8
0
 10
262.224
 20
32.1013
 30
0.0
 40
0.352778
 41
0.352778
  0
VERTEX
  8
0
 10
261.56
 20
32.2926
 30
0.0
 40
0.352778
 41
0.352778
  0
VERTEX
  8
0
 10
260.885
 20
32.4504
 30
0.0
 40
0.352778
 41
0.352778
  0
VERTEX
  8
0
 10
260.201
 20
32.5739
 30
0.0
 40
0.352778
 41
0.352778
  0
VERTEX
  8
0
 10
259.51
 20
32.6629
 30
0.0
 40
0.352778
 41
0.352778
  0
VERTEX
  8
0
 10
258.813
 20
32.7167
 30
0.0
 40
0.352778
 41
0.352778
  0
VERTEX
  8
0
 10
258.286
 20
32.7347
 30
0.0
 40
0.352778
 41
0.352778
  0
VERTEX
  8
0
 10
258.11
 20
32.7347
 30
0.0
 40
0.352778
 41
0.352778
  0
VERTEX
  8
0
 10
252.121
 20
32.7347
 30
0.0
 40
0.352778
 41
0.352778
  0
VERTEX
  8
0
 10
252.121
 20
31.2347
 30
0.0
 40
0.352778
 41
0.352778
  0
VERTEX
  8
0
 10
251.196
 20
31.2347
 30
0.0
 40
0.352778
 41
0.352778
  0
VERTEX
  8
0
 10
251.196
 20
32.7347
 30
0.0
 40
0.352778
 41
0.352778
  0
VERTEX
  8
0
 10
230.344
 20
32.7347
 30
0.0
 40
0.352778
 41
0.352778
  0
SEQEND
 8
0
  0
POLYLINE
  8
0
 62
     0
 66
     1
 10
0
 20
0
 30
0.0
 70
     1
 40
25.4
 41
25.4
  0
VERTEX
  8
0
 10
267.044
 20
18.0233
 30
0.0
 40
0.352778
 41
0.352778
  0
VERTEX
  8
0
 10
267.033
 20
17.8244
 30
0.0
 40
0.352778
 41
0.352778
  0
VERTEX
  8
0
 10
266.983
 20
17.2287
 30
0.0
 40
0.352778
 41
0.352778
  0
VERTEX
  8
0
 10
266.89
 20
16.4385
 30
0.0
 40
0.352778
 41
0.352778
  0
VERTEX
  8
0
 10
266.764
 20
15.6535
 30
0.0
 40
0.352778
 41
0.352778
  0
VERTEX
  8
0
 10
266.604
 20
14.8749
 30
0.0
 40
0.352778
 41
0.352778
  0
VERTEX
  8
0
 10
266.412
 20
14.1035
 30
0.0
 40
0.352778
 41
0.352778
  0
VERTEX
  8
0
 10
266.189
 20
13.3406
 30
0.0
 40
0.352778
 41
0.352778
  0
VERTEX
  8
0
 10
265.933
 20
12.587
 30
0.0
 40
0.352778
 41
0.352778
  0
VERTEX
  8
0
 10
265.721
 20
12.0281
 30
0.0
 40
0.352778
 41
0.352778
  0
VERTEX
  8
0
 10
265.646
 20
11.8439
 30
0.0
 40
0.352778
 41
0.352778
  0
VERTEX
  8
0
 10
265.624
 20
11.7922
 30
0.0
 40
0.352778
 41
0.352778
  0
VERTEX
  8
0
 10
265.549
 20
11.6419
 30
0.0
 40
0.352778
 41
0.352778
  0
VERTEX
  8
0
 10
265.429
 20
11.4528
 30
0.0
 40
0.352778
 41
0.352778
  0
VERTEX
  8
0
 10
265.29
 20
11.2785
 30
0.0
 40
0.352778
 41
0.352778
  0
VERTEX
  8
0
 10
265.172
 20
11.1577
 30
0.0
 40
0.352778
 41
0.352778
  0
VERTEX
  8
0
 10
265.131
 20
11.1206
 30
0.0
 40
0.352778
 41
0.352778
  0
VERTEX
  8
0
 10
264.999
 20
11.0038
 30
0.0
 40
0.352778
 41
0.352778
  0
VERTEX
  8
0
 10
264.586
 20
10.6712
 30
0.0
 40
0.352778
 41
0.352778
  0
VERTEX
  8
0
 10
264.017
 20
10.2602
 30
0.0
 40
0.352778
 41
0.352778
  0
VERTEX
  8
0
 10
263.421
 20
9.88867
 30
0.0
 40
0.352778
 41
0.352778
  0
VERTEX
  8
0
 10
262.803
 20
9.55772
 30
0.0
 40
0.352778
 41
0.352778
  0
VERTEX
  8
0
 10
262.165
 20
9.26828
 30
0.0
 40
0.352778
 41
0.352778
  0
VERTEX
  8
0
 10
261.508
 20
9.02149
 30
0.0
 40
0.352778
 41
0.352778
  0
VERTEX
  8
0
 10
260.835
 20
8.81825
 30
0.0
 40
0.352778
 41
0.352778
  0
VERTEX
  8
0
 10
260.321
 20
8.69353
 30
0.0
 40
0.352778
 41
0.352778
  0
VERTEX
  8
0
 10
260.147
 20
8.65961
 30
0.0
 40
0.352778
 41
0.352778
  0
VERTEX
  8
0
 10
260.147
 20
16.8081
 30
0.0
 40
0.352778
 41
0.352778
  0
VERTEX
  8
0
 10
260.215
 20
16.87
 30
0.0
 40
0.352778
 41
0.352778
  0
VERTEX
  8
0
 10
260.407
 20
17.0726
 30
0.0
 40
0.352778
 41
0.352778
  0
VERTEX
  8
0
 10
260.631
 20
17.3657
 30
0.0
 40
0.352778
 41
0.352778
  0
VERTEX
  8
0
 10
260.817
 20
17.6837
 30
0.0
 40
0.352778
 41
0.352778
  0
VERTEX
  8
0
 10
260.933
 20
17.9365
 30
0.0
 40
0.352778
 41
0.352778
  0
VERTEX
  8
0
 10
260.965
 20
18.0233
 30
0.0
 40
0.352778
 41
0.352778
  0
VERTEX
  8
0
 10
267.044
 20
18.0233
 30
0.0
 40
0.352778
 41
0.352778
  0
SEQEND
 8
0
  0
POLYLINE
  8
0
 62
     0
 66
     1
 10
0
 20
0
 30
0.0
 70
     1
 40
25.4
 41
25.4
  0
VERTEX
  8
0
 10
267.971
 20
9.85439
 30
0.0
 40
0.352778
 41
0.352778
  0
VERTEX
  8
0
 10
267.928
 20
9.78961
 30
0.0
 40
0.352778
 41
0.352778
  0
VERTEX
  8
0
 10
267.696
 20
9.4784
 30
0.0
 40
0.352778
 41
0.352778
  0
VERTEX
  8
0
 10
267.442
 20
9.18549
 30
0.0
 40
0.352778
 41
0.352778
  0
VERTEX
  8
0
 10
267.388
 20
9.12978
 30
0.0
 40
0.352778
 41
0.352778
  0
VERTEX
  8
0
 10
266.392
 20
10.1255
 30
0.0
 40
0.352778
 41
0.352778
  0
VERTEX
  8
0
 10
267.046
 20
10.7796
 30
0.0
 40
0.352778
 41
0.352778
  0
VERTEX
  8
0
 10
267.971
 20
9.85439
 30
0.0
 40
0.352778
 41
0.352778
  0
SEQEND
 8
0
  0
POLYLINE
  8
0
 62
     0
 66
     1
 10
0
 20
0
 30
0.0
 70
     1
 40
25.4
 41
25.4
  0
VERTEX
  8
0
 10
267.885
 20
28.3933
 30
0.0
 40
0.352778
 41
0.352778
  0
VERTEX
  8
0
 10
267.854
 20
28.4361
 30
0.0
 40
0.352778
 41
0.352778
  0
VERTEX
  8
0
 10
267.694
 20
28.6443
 30
0.0
 40
0.352778
 41
0.352778
  0
VERTEX
  8
0
 10
267.525
 20
28.8442
 30
0.0
 40
0.352778
 41
0.352778
  0
VERTEX
  8
0
 10
267.49
 20
28.8828
 30
0.0
 40
0.352778
 41
0.352778
  0
VERTEX
  8
0
 10
266.497
 20
27.89
 30
0.0
 40
0.352778
 41
0.352778
  0
VERTEX
  8
0
 10
266.939
 20
27.4481
 30
0.0
 40
0.352778
 41
0.352778
  0
VERTEX
  8
0
 10
267.885
 20
28.3933
 30
0.0
 40
0.352778
 41
0.352778
  0
SEQEND
 8
0
  0
POLYLINE
  8
0
 62
     0
 66
     1
 10
0
 20
0
 30
0.0
 70
     1
 40
25.4
 41
25.4
  0
VERTEX
  8
0
 10
260.147
 20
29.4621
 30
0.0
 40
0.352778
 41
0.352778
  0
VERTEX
  8
0
 10
260.321
 20
29.4282
 30
0.0
 40
0.352778
 41
0.352778
  0
VERTEX
  8
0
 10
260.835
 20
29.3035
 30
0.0
 40
0.352778
 41
0.352778
  0
VERTEX
  8
0
 10
261.508
 20
29.1003
 30
0.0
 40
0.352778
 41
0.352778
  0
VERTEX
  8
0
 10
262.165
 20
28.8535
 30
0.0
 40
0.352778
 41
0.352778
  0
VERTEX
  8
0
 10
262.803
 20
28.564
 30
0.0
 40
0.352778
 41
0.352778
  0
VERTEX
  8
0
 10
263.421
 20
28.2331
 30
0.0
 40
0.352778
 41
0.352778
  0
VERTEX
  8
0
 10
264.017
 20
27.8615
 30
0.0
 40
0.352778
 41
0.352778
  0
VERTEX
  8
0
 10
264.586
 20
27.4506
 30
0.0
 40
0.352778
 41
0.352778
  0
VERTEX
  8
0
 10
264.999
 20
27.1178
 30
0.0
 40
0.352778
 41
0.352778
  0
VERTEX
  8
0
 10
265.131
 20
27.001
 30
0.0
 40
0.352778
 41
0.352778
  0
VERTEX
  8
0
 10
265.172
 20
26.964
 30
0.0
 40
0.352778
 41
0.352778
  0
VERTEX
  8
0
 10
265.29
 20
26.8432
 30
0.0
 40
0.352778
 41
0.352778
  0
VERTEX
  8
0
 10
265.429
 20
26.6689
 30
0.0
 40
0.352778
 41
0.352778
  0
VERTEX
  8
0
 10
265.549
 20
26.4799
 30
0.0
 40
0.352778
 41
0.352778
  0
VERTEX
  8
0
 10
265.624
 20
26.3294
 30
0.0
 40
0.352778
 41
0.352778
  0
VERTEX
  8
0
 10
265.646
 20
26.2778
 30
0.0
 40
0.352778
 41
0.352778
  0
VERTEX
  8
0
 10
265.721
 20
26.0936
 30
0.0
 40
0.352778
 41
0.352778
  0
VERTEX
  8
0
 10
265.933
 20
25.5347
 30
0.0
 40
0.352778
 41
0.352778
  0
VERTEX
  8
0
 10
266.189
 20
24.7811
 30
0.0
 40
0.352778
 41
0.352778
  0
VERTEX
  8
0
 10
266.412
 20
24.0182
 30
0.0
 40
0.352778
 41
0.352778
  0
VERTEX
  8
0
 10
266.604
 20
23.2468
 30
0.0
 40
0.352778
 41
0.352778
  0
VERTEX
  8
0
 10
266.764
 20
22.4682
 30
0.0
 40
0.352778
 41
0.352778
  0
VERTEX
  8
0
 10
266.89
 20
21.6832
 30
0.0
 40
0.352778
 41
0.352778
  0
VERTEX
  8
0
 10
266.983
 20
20.8929
 30
0.0
 40
0.352778
 41
0.352778
  0
VERTEX
  8
0
 10
267.033
 20
20.2972
 30
0.0
 40
0.352778
 41
0.352778
  0
VERTEX
  8
0
 10
267.044
 20
20.0983
 30
0.0
 40
0.352778
 41
0.352778
  0
VERTEX
  8
0
 10
260.965
 20
20.0983
 30
0.0
 40
0.352778
 41
0.352778
  0
VERTEX
  8
0
 10
260.933
 20
20.1851
 30
0.0
 40
0.352778
 41
0.352778
  0
VERTEX
  8
0
 10
260.817
 20
20.4379
 30
0.0
 40
0.352778
 41
0.352778
  0
VERTEX
  8
0
 10
260.631
 20
20.756
 30
0.0
 40
0.352778
 41
0.352778
  0
VERTEX
  8
0
 10
260.407
 20
21.049
 30
0.0
 40
0.352778
 41
0.352778
  0
VERTEX
  8
0
 10
260.215
 20
21.2517
 30
0.0
 40
0.352778
 41
0.352778
  0
VERTEX
  8
0
 10
260.147
 20
21.3136
 30
0.0
 40
0.352778
 41
0.352778
  0
VERTEX
  8
0
 10
260.147
 20
29.4621
 30
0.0
 40
0.352778
 41
0.352778
  0
SEQEND
 8
0
  0
POLYLINE
  8
0
 62
     0
 66
     1
 10
0
 20
0
 30
0.0
 40
25.4
 41
25.4
  0
VERTEX
  8
0
 10
0.176378
 20
67.9297
 30
0.0
 40
0.352778
 41
0.352778
  0
VERTEX
  8
0
 10
1.17638
 20
67.9297
 30
0.0
 40
0.352778
 41
0.352778
  0
VERTEX
  8
0
 10
1.17638
 20
64.9297
 30
0.0
 40
0.352778
 41
0.352778
  0
VERTEX
  8
0
 10
20.2514
 20
64.9297
 30
0.0
 40
0.352778
 41
0.352778
  0
VERTEX
  8
0
 10
20.2514
 20
67.9297
 30
0.0
 40
0.352778
 41
0.352778
  0
VERTEX
  8
0
 10
21.1764
 20
67.9297
 30
0.0
 40
0.352778
 41
0.352778
  0
VERTEX
  8
0
 10
21.1764
 20
64.9297
 30
0.0
 40
0.352778
 41
0.352778
  0
VERTEX
  8
0
 10
40.2515
 20
64.9297
 30
0.0
 40
0.352778
 41
0.352778
  0
VERTEX
  8
0
 10
40.2515
 20
67.9297
 30
0.0
 40
0.352778
 41
0.352778
  0
VERTEX
  8
0
 10
41.1764
 20
67.9297
 30
0.0
 40
0.352778
 41
0.352778
  0
VERTEX
  8
0
 10
41.1764
 20
64.9297
 30
0.0
 40
0.352778
 41
0.352778
  0
VERTEX
  8
0
 10
60.2515
 20
64.9297
 30
0.0
 40
0.352778
 41
0.352778
  0
VERTEX
  8
0
 10
60.2515
 20
67.9297
 30
0.0
 40
0.352778
 41
0.352778
  0
VERTEX
  8
0
 10
61.1765
 20
67.9297
 30
0.0
 40
0.352778
 41
0.352778
  0
VERTEX
  8
0
 10
61.1765
 20
64.9297
 30
0.0
 40
0.352778
 41
0.352778
  0
VERTEX
  8
0
 10
80.2515
 20
64.9297
 30
0.0
 40
0.352778
 41
0.352778
  0
VERTEX
  8
0
 10
80.2515
 20
67.9297
 30
0.0
 40
0.352778
 41
0.352778
  0
VERTEX
  8
0
 10
81.1765
 20
67.9297
 30
0.0
 40
0.352778
 41
0.352778
  0
VERTEX
  8
0
 10
81.1765
 20
64.9297
 30
0.0
 40
0.352778
 41
0.352778
  0
VERTEX
  8
0
 10
100.252
 20
64.9297
 30
0.0
 40
0.352778
 41
0.352778
  0
VERTEX
  8
0
 10
100.252
 20
67.9297
 30
0.0
 40
0.352778
 41
0.352778
  0
VERTEX
  8
0
 10
101.252
 20
67.9297
 30
0.0
 40
0.352778
 41
0.352778
  0
SEQEND
 8
0
  0
POLYLINE
  8
0
 62
     0
 66
     1
 10
0
 20
0
 30
0.0
 40
25.4
 41
25.4
  0
VERTEX
  8
0
 10
100.252
 20
36.566
 30
0.0
 40
0.352778
 41
0.352778
  0
VERTEX
  8
0
 10
100.252
 20
63.9138
 30
0.0
 40
0.352778
 41
0.352778
  0
VERTEX
  8
0
 10
81.1765
 20
63.9138
 30
0.0
 40
0.352778
 41
0.352778
  0
VERTEX
  8
0
 10
81.1765
 20
58.2774
 30
0.0
 40
0.352778
 41
0.352778
  0
VERTEX
  8
0
 10
80.2515
 20
58.2774
 30
0.0
 40
0.352778
 41
0.352778
  0
VERTEX
  8
0
 10
80.2515
 20
63.9138
 30
0.0
 40
0.352778
 41
0.352778
  0
VERTEX
  8
0
 10
61.1765
 20
63.9138
 30
0.0
 40
0.352778
 41
0.352778
  0
VERTEX
  8
0
 10
61.1765
 20
58.2774
 30
0.0
 40
0.352778
 41
0.352778
  0
VERTEX
  8
0
 10
60.2515
 20
58.2774
 30
0.0
 40
0.352778
 41
0.352778
  0
VERTEX
  8
0
 10
60.2515
 20
63.9138
 30
0.0
 40
0.352778
 41
0.352778
  0
VERTEX
  8
0
 10
41.1764
 20
63.9138
 30
0.0
 40
0.352778
 41
0.352778
  0
VERTEX
  8
0
 10
41.1764
 20
58.2774
 30
0.0
 40
0.352778
 41
0.352778
  0
VERTEX
  8
0
 10
40.2515
 20
58.2774
 30
0.0
 40
0.352778
 41
0.352778
  0
VERTEX
  8
0
 10
40.2515
 20
63.9138
 30
0.0
 40
0.352778
 41
0.352778
  0
VERTEX
  8
0
 10
21.1764
 20
63.9138
 30
0.0
 40
0.352778
 41
0.352778
  0
VERTEX
  8
0
 10
21.1764
 20
58.2774
 30
0.0
 40
0.352778
 41
0.352778
  0
VERTEX
  8
0
 10
20.2514
 20
58.2774
 30
0.0
 40
0.352778
 41
0.352778
  0
VERTEX
  8
0
 10
20.2514
 20
63.9138
 30
0.0
 40
0.352778
 41
0.352778
  0
VERTEX
  8
0
 10
1.17638
 20
63.9138
 30
0.0
 40
0.352778
 41
0.352778
  0
VERTEX
  8
0
 10
1.17638
 20
58.2774
 30
0.0
 40
0.352778
 41
0.352778
  0
VERTEX
  8
0
 10
0.176378
 20
58.2774
 30
0.0
 40
0.352778
 41
0.352778
  0
VERTEX
  8
0
 10
0.176378
 20
42.2024
 30
0.0
 40
0.352778
 41
0.352778
  0
VERTEX
  8
0
 10
1.17638
 20
42.2024
 30
0.0
 40
0.352778
 41
0.352778
  0
VERTEX
  8
0
 10
1.17638
 20
36.566
 30
0.0
 40
0.352778
 41
0.352778
  0
SEQEND
 8
0
  0
POLYLINE
  8
0
 62
     0
 66
     1
 10
0
 20
0
 30
0.0
 40
25.4
 41
25.4
  0
VERTEX
  8
0
 10
81.1765
 20
36.566
 30
0.0
 40
0.352778
 41
0.352778
  0
VERTEX
  8
0
 10
81.1765
 20
42.2024
 30
0.0
 40
0.352778
 41
0.352778
  0
VERTEX
  8
0
 10
80.2515
 20
42.2024
 30
0.0
 40
0.352778
 41
0.352778
  0
VERTEX
  8
0
 10
80.2515
 20
36.566
 30
0.0
 40
0.352778
 41
0.352778
  0
SEQEND
 8
0
  0
POLYLINE
  8
0
 62
     0
 66
     1
 10
0
 20
0
 30
0.0
 40
25.4
 41
25.4
  0
VERTEX
  8
0
 10
61.1765
 20
36.566
 30
0.0
 40
0.352778
 41
0.352778
  0
VERTEX
  8
0
 10
61.1765
 20
42.2024
 30
0.0
 40
0.352778
 41
0.352778
  0
VERTEX
  8
0
 10
60.2515
 20
42.2024
 30
0.0
 40
0.352778
 41
0.352778
  0
VERTEX
  8
0
 10
60.2515
 20
36.566
 30
0.0
 40
0.352778
 41
0.352778
  0
SEQEND
 8
0
  0
POLYLINE
  8
0
 62
     0
 66
     1
 10
0
 20
0
 30
0.0
 40
25.4
 41
25.4
  0
VERTEX
  8
0
 10
41.1764
 20
36.566
 30
0.0
 40
0.352778
 41
0.352778
  0
VERTEX
  8
0
 10
41.1764
 20
42.2024
 30
0.0
 40
0.352778
 41
0.352778
  0
VERTEX
  8
0
 10
40.2515
 20
42.2024
 30
0.0
 40
0.352778
 41
0.352778
  0
VERTEX
  8
0
 10
40.2515
 20
36.566
 30
0.0
 40
0.352778
 41
0.352778
  0
SEQEND
 8
0
  0
POLYLINE
  8
0
 62
     0
 66
     1
 10
0
 20
0
 30
0.0
 40
25.4
 41
25.4
  0
VERTEX
  8
0
 10
21.1764
 20
36.566
 30
0.0
 40
0.352778
 41
0.352778
  0
VERTEX
  8
0
 10
21.1764
 20
42.2024
 30
0.0
 40
0.352778
 41
0.352778
  0
VERTEX
  8
0
 10
20.2514
 20
42.2024
 30
0.0
 40
0.352778
 41
0.352778
  0
VERTEX
  8
0
 10
20.2514
 20
36.566
 30
0.0
 40
0.352778
 41
0.352778
  0
SEQEND
 8
0
  0
POLYLINE
  8
0
 62
     0
 66
     1
 10
0
 20
0
 30
0.0
 40
25.4
 41
25.4
  0
VERTEX
  8
0
 10
101.252
 20
23.9454
 30
0.0
 40
0.352778
 41
0.352778
  0
VERTEX
  8
0
 10
0.176378
 20
23.9454
 30
0.0
 40
0.352778
 41
0.352778
  0
VERTEX
  8
0
 10
0.176378
 20
36.566
 30
0.0
 40
0.352778
 41
0.352778
  0
VERTEX
  8
0
 10
101.252
 20
36.566
 30
0.0
 40
0.352778
 41
0.352778
  0
SEQEND
 8
0
  0
POLYLINE
  8
0
 62
     0
 66
     1
 10
0
 20
0
 30
0.0
 40
25.4
 41
25.4
  0
VERTEX
  8
0
 10
101.252
 20
22.2957
 30
0.0
 40
0.352778
 41
0.352778
  0
VERTEX
  8
0
 10
184.256
 20
22.2957
 30
0.0
 40
0.352778
 41
0.352778
  0
VERTEX
  8
0
 10
184.256
 20
79.2958
 30
0.0
 40
0.352778
 41
0.352778
  0
VERTEX
  8
0
 10
101.252
 20
79.2958
 30
0.0
 40
0.352778
 41
0.352778
  0
VERTEX
  8
0
 10
101.252
 20
11.325
 30
0.0
 40
0.352778
 41
0.352778
  0
SEQEND
 8
0
  0
POLYLINE
  8
0
 62
     0
 66
     1
 10
0
 20
0
 30
0.0
 70
     1
 40
25.4
 41
25.4
  0
VERTEX
  8
0
 10
166.362
 20
73.8908
 30
0.0
 40
0.352778
 41
0.352778
  0
VERTEX
  8
0
 10
173.607
 20
73.8908
 30
0.0
 40
0.352778
 41
0.352778
  0
VERTEX
  8
0
 10
173.607
 20
70.7958
 30
0.0
 40
0.352778
 41
0.352778
  0
VERTEX
  8
0
 10
166.362
 20
70.7958
 30
0.0
 40
0.352778
 41
0.352778
  0
VERTEX
  8
0
 10
166.362
 20
73.8908
 30
0.0
 40
0.352778
 41
0.352778
  0
SEQEND
 8
0
  0
POLYLINE
  8
0
 62
     0
 66
     1
 10
0
 20
0
 30
0.0
 70
     1
 40
25.4
 41
25.4
  0
VERTEX
  8
0
 10
111.899
 20
73.8908
 30
0.0
 40
0.352778
 41
0.352778
  0
VERTEX
  8
0
 10
119.145
 20
73.8908
 30
0.0
 40
0.352778
 41
0.352778
  0
VERTEX
  8
0
 10
119.145
 20
70.7958
 30
0.0
 40
0.352778
 41
0.352778
  0
VERTEX
  8
0
 10
111.899
 20
70.7958
 30
0.0
 40
0.352778
 41
0.352778
  0
VERTEX
  8
0
 10
111.899
 20
73.8908
 30
0.0
 40
0.352778
 41
0.352778
  0
SEQEND
 8
0
  0
POLYLINE
  8
0
 62
     0
 66
     1
 10
0
 20
0
 30
0.0
 40
25.4
 41
25.4
  0
VERTEX
  8
0
 10
101.252
 20
11.325
 30
0.0
 40
0.352778
 41
0.352778
  0
VERTEX
  8
0
 10
0.176378
 20
11.325
 30
0.0
 40
0.352778
 41
0.352778
  0
VERTEX
  8
0
 10
0.176378
 20
23.9454
 30
0.0
 40
0.352778
 41
0.352778
  0
SEQEND
 8
0
  0
POLYLINE
  8
0
 62
     0
 66
     1
 10
0
 20
0
 30
0.0
 40
25.4
 41
25.4
  0
VERTEX
  8
0
 10
0.176378
 20
11.325
 30
0.0
 40
0.352778
 41
0.352778
  0
VERTEX
  8
0
 10
0.176378
 20
9.76947
 30
0.0
 40
0.352778
 41
0.352778
  0
VERTEX
  8
0
 10
1.17638
 20
9.76947
 30
0.0
 40
0.352778
 41
0.352778
  0
VERTEX
  8
0
 10
1.17638
 20
8.25
 30
0.0
 40
0.352778
 41
0.352778
  0
VERTEX
  8
0
 10
20.2514
 20
8.25
 30
0.0
 40
0.352778
 41
0.352778
  0
VERTEX
  8
0
 10
20.2514
 20
9.76947
 30
0.0
 40
0.352778
 41
0.352778
  0
VERTEX
  8
0
 10
21.1764
 20
9.76947
 30
0.0
 40
0.352778
 41
0.352778
  0
VERTEX
  8
0
 10
21.1764
 20
8.25
 30
0.0
 40
0.352778
 41
0.352778
  0
VERTEX
  8
0
 10
40.2515
 20
8.25
 30
0.0
 40
0.352778
 41
0.352778
  0
VERTEX
  8
0
 10
40.2515
 20
9.76947
 30
0.0
 40
0.352778
 41
0.352778
  0
VERTEX
  8
0
 10
41.1764
 20
9.76947
 30
0.0
 40
0.352778
 41
0.352778
  0
VERTEX
  8
0
 10
41.1764
 20
8.25
 30
0.0
 40
0.352778
 41
0.352778
  0
VERTEX
  8
0
 10
60.2515
 20
8.25
 30
0.0
 40
0.352778
 41
0.352778
  0
VERTEX
  8
0
 10
60.2515
 20
9.76947
 30
0.0
 40
0.352778
 41
0.352778
  0
VERTEX
  8
0
 10
61.1765
 20
9.76947
 30
0.0
 40
0.352778
 41
0.352778
  0
VERTEX
  8
0
 10
61.1765
 20
8.25
 30
0.0
 40
0.352778
 41
0.352778
  0
VERTEX
  8
0
 10
80.2515
 20
8.25
 30
0.0
 40
0.352778
 41
0.352778
  0
VERTEX
  8
0
 10
80.2515
 20
9.76947
 30
0.0
 40
0.352778
 41
0.352778
  0
VERTEX
  8
0
 10
81.1765
 20
9.76947
 30
0.0
 40
0.352778
 41
0.352778
  0
VERTEX
  8
0
 10
81.1765
 20
8.25
 30
0.0
 40
0.352778
 41
0.352778
  0
VERTEX
  8
0
 10
100.252
 20
8.25
 30
0.0
 40
0.352778
 41
0.352778
  0
VERTEX
  8
0
 10
100.252
 20
11.325
 30
0.0
 40
0.352778
 41
0.352778
  0
SEQEND
 8
0
  0
POLYLINE
  8
0
 62
     0
 66
     1
 10
0
 20
0
 30
0.0
 40
25.4
 41
25.4
  0
VERTEX
  8
0
 10
80.214
 20
11.325
 30
0.0
 40
0.352778
 41
0.352778
  0
VERTEX
  8
0
 10
81.214
 20
11.325
 30
0.0
 40
0.352778
 41
0.352778
  0
SEQEND
 8
0
  0
POLYLINE
  8
0
 62
     0
 66
     1
 10
0
 20
0
 30
0.0
 70
     1
 40
25.4
 41
25.4
  0
VERTEX
  8
0
 10
46.1185
 20
4.21679
 30
0.0
 40
0.352778
 41
0.352778
  0
VERTEX
  8
0
 10
65.1935
 20
4.21679
 30
0.0
 40
0.352778
 41
0.352778
  0
VERTEX
  8
0
 10
65.1935
 20
5.71679
 30
0.0
 40
0.352778
 41
0.352778
  0
VERTEX
  8
0
 10
66.1185
 20
5.71679
 30
0.0
 40
0.352778
 41
0.352778
  0
VERTEX
  8
0
 10
66.1185
 20
4.21679
 30
0.0
 40
0.352778
 41
0.352778
  0
VERTEX
  8
0
 10
85.1935
 20
4.21679
 30
0.0
 40
0.352778
 41
0.352778
  0
VERTEX
  8
0
 10
85.1935
 20
5.71679
 30
0.0
 40
0.352778
 41
0.352778
  0
VERTEX
  8
0
 10
86.1186
 20
5.71679
 30
0.0
 40
0.352778
 41
0.352778
  0
VERTEX
  8
0
 10
86.1186
 20
4.21679
 30
0.0
 40
0.352778
 41
0.352778
  0
VERTEX
  8
0
 10
105.194
 20
4.21679
 30
0.0
 40
0.352778
 41
0.352778
  0
VERTEX
  8
0
 10
105.194
 20
5.71679
 30
0.0
 40
0.352778
 41
0.352778
  0
VERTEX
  8
0
 10
106.194
 20
5.71679
 30
0.0
 40
0.352778
 41
0.352778
  0
VERTEX
  8
0
 10
106.194
 20
7.29178
 30
0.0
 40
0.352778
 41
0.352778
  0
VERTEX
  8
0
 10
6.11843
 20
7.29178
 30
0.0
 40
0.352778
 41
0.352778
  0
VERTEX
  8
0
 10
6.11843
 20
4.21679
 30
0.0
 40
0.352778
 41
0.352778
  0
VERTEX
  8
0
 10
25.1935
 20
4.21679
 30
0.0
 40
0.352778
 41
0.352778
  0
VERTEX
  8
0
 10
25.1935
 20
5.71679
 30
0.0
 40
0.352778
 41
0.352778
  0
VERTEX
  8
0
 10
26.1185
 20
5.71679
 30
0.0
 40
0.352778
 41
0.352778
  0
VERTEX
  8
0
 10
26.1185
 20
4.21679
 30
0.0
 40
0.352778
 41
0.352778
  0
VERTEX
  8
0
 10
45.1935
 20
4.21679
 30
0.0
 40
0.352778
 41
0.352778
  0
VERTEX
  8
0
 10
45.1935
 20
5.71679
 30
0.0
 40
0.352778
 41
0.352778
  0
VERTEX
  8
0
 10
46.1185
 20
5.71679
 30
0.0
 40
0.352778
 41
0.352778
  0
VERTEX
  8
0
 10
46.1185
 20
4.21679
 30
0.0
 40
0.352778
 41
0.352778
  0
SEQEND
 8
0
  0
POLYLINE
  8
0
 62
     0
 66
     1
 10
0
 20
0
 30
0.0
 70
     1
 40
25.4
 41
25.4
  0
VERTEX
  8
0
 10
60.2515
 20
3.25863
 30
0.0
 40
0.352778
 41
0.352778
  0
VERTEX
  8
0
 10
41.1764
 20
3.25863
 30
0.0
 40
0.352778
 41
0.352778
  0
VERTEX
  8
0
 10
41.1764
 20
1.75863
 30
0.0
 40
0.352778
 41
0.352778
  0
VERTEX
  8
0
 10
40.2515
 20
1.75863
 30
0.0
 40
0.352778
 41
0.352778
  0
VERTEX
  8
0
 10
40.2515
 20
3.25863
 30
0.0
 40
0.352778
 41
0.352778
  0
VERTEX
  8
0
 10
21.1764
 20
3.25863
 30
0.0
 40
0.352778
 41
0.352778
  0
VERTEX
  8
0
 10
21.1764
 20
1.75863
 30
0.0
 40
0.352778
 41
0.352778
  0
VERTEX
  8
0
 10
20.2514
 20
1.75863
 30
0.0
 40
0.352778
 41
0.352778
  0
VERTEX
  8
0
 10
20.2514
 20
3.25863
 30
0.0
 40
0.352778
 41
0.352778
  0
VERTEX
  8
0
 10
1.17638
 20
3.25863
 30
0.0
 40
0.352778
 41
0.352778
  0
VERTEX
  8
0
 10
1.17638
 20
1.75863
 30
0.0
 40
0.352778
 41
0.352778
  0
VERTEX
  8
0
 10
0.176378
 20
1.75863
 30
0.0
 40
0.352778
 41
0.352778
  0
VERTEX
  8
0
 10
0.176378
 20
0.183594
 30
0.0
 40
0.352778
 41
0.352778
  0
VERTEX
  8
0
 10
100.252
 20
0.183594
 30
0.0
 40
0.352778
 41
0.352778
  0
VERTEX
  8
0
 10
100.252
 20
3.25863
 30
0.0
 40
0.352778
 41
0.352778
  0
VERTEX
  8
0
 10
81.1765
 20
3.25863
 30
0.0
 40
0.352778
 41
0.352778
  0
VERTEX
  8
0
 10
81.1765
 20
1.75863
 30
0.0
 40
0.352778
 41
0.352778
  0
VERTEX
  8
0
 10
80.2515
 20
1.75863
 30
0.0
 40
0.352778
 41
0.352778
  0
VERTEX
  8
0
 10
80.2515
 20
3.25863
 30
0.0
 40
0.352778
 41
0.352778
  0
VERTEX
  8
0
 10
61.1765
 20
3.25863
 30
0.0
 40
0.352778
 41
0.352778
  0
VERTEX
  8
0
 10
61.1765
 20
1.75863
 30
0.0
 40
0.352778
 41
0.352778
  0
VERTEX
  8
0
 10
60.2515
 20
1.75863
 30
0.0
 40
0.352778
 41
0.352778
  0
VERTEX
  8
0
 10
60.2515
 20
3.25863
 30
0.0
 40
0.352778
 41
0.352778
  0
SEQEND
 8
0
  0
POLYLINE
  8
0
 62
     0
 66
     1
 10
0
 20
0
 30
0.0
 70
     1
 40
25.4
 41
25.4
  0
VERTEX
  8
0
 10
182.257
 20
21.8688
 30
0.0
 40
0.352778
 41
0.352778
  0
VERTEX
  8
0
 10
182.257
 20
18.8688
 30
0.0
 40
0.352778
 41
0.352778
  0
VERTEX
  8
0
 10
181.332
 20
18.8688
 30
0.0
 40
0.352778
 41
0.352778
  0
VERTEX
  8
0
 10
181.332
 20
21.8688
 30
0.0
 40
0.352778
 41
0.352778
  0
VERTEX
  8
0
 10
162.257
 20
21.8688
 30
0.0
 40
0.352778
 41
0.352778
  0
VERTEX
  8
0
 10
162.257
 20
18.8688
 30
0.0
 40
0.352778
 41
0.352778
  0
VERTEX
  8
0
 10
161.332
 20
18.8688
 30
0.0
 40
0.352778
 41
0.352778
  0
VERTEX
  8
0
 10
161.332
 20
21.8688
 30
0.0
 40
0.352778
 41
0.352778
  0
VERTEX
  8
0
 10
142.257
 20
21.8688
 30
0.0
 40
0.352778
 41
0.352778
  0
VERTEX
  8
0
 10
142.257
 20
18.8688
 30
0.0
 40
0.352778
 41
0.352778
  0
VERTEX
  8
0
 10
141.257
 20
18.8688
 30
0.0
 40
0.352778
 41
0.352778
  0
VERTEX
  8
0
 10
141.257
 20
14.6575
 30
0.0
 40
0.352778
 41
0.352778
  0
VERTEX
  8
0
 10
242.332
 20
14.6575
 30
0.0
 40
0.352778
 41
0.352778
  0
VERTEX
  8
0
 10
242.332
 20
18.8688
 30
0.0
 40
0.352778
 41
0.352778
  0
VERTEX
  8
0
 10
241.332
 20
18.8688
 30
0.0
 40
0.352778
 41
0.352778
  0
VERTEX
  8
0
 10
241.332
 20
21.8688
 30
0.0
 40
0.352778
 41
0.352778
  0
VERTEX
  8
0
 10
222.257
 20
21.8688
 30
0.0
 40
0.352778
 41
0.352778
  0
VERTEX
  8
0
 10
222.257
 20
18.8688
 30
0.0
 40
0.352778
 41
0.352778
  0
VERTEX
  8
0
 10
221.332
 20
18.8688
 30
0.0
 40
0.352778
 41
0.352778
  0
VERTEX
  8
0
 10
221.332
 20
21.8688
 30
0.0
 40
0.352778
 41
0.352778
  0
VERTEX
  8
0
 10
202.257
 20
21.8688
 30
0.0
 40
0.352778
 41
0.352778
  0
VERTEX
  8
0
 10
202.257
 20
18.8688
 30
0.0
 40
0.352778
 41
0.352778
  0
VERTEX
  8
0
 10
201.332
 20
18.8688
 30
0.0
 40
0.352778
 41
0.352778
  0
VERTEX
  8
0
 10
201.332
 20
21.8688
 30
0.0
 40
0.352778
 41
0.352778
  0
VERTEX
  8
0
 10
182.257
 20
21.8688
 30
0.0
 40
0.352778
 41
0.352778
  0
SEQEND
 8
0
  0
POLYLINE
  8
0
 62
     0
 66
     1
 10
0
 20
0
 30
0.0
 40
25.4
 41
25.4
  0
VERTEX
  8
0
 10
250.997
 20
45.5847
 30
0.0
 40
0.352778
 41
0.352778
  0
VERTEX
  8
0
 10
250.997
 20
48.2211
 30
0.0
 40
0.352778
 41
0.352778
  0
VERTEX
  8
0
 10
230.344
 20
48.2211
 30
0.0
 40
0.352778
 41
0.352778
  0
VERTEX
  8
0
 10
230.344
 20
27.0233
 30
0.0
 40
0.352778
 41
0.352778
  0
VERTEX
  8
0
 10
250.997
 20
27.0233
 30
0.0
 40
0.352778
 41
0.352778
  0
VERTEX
  8
0
 10
250.997
 20
29.6597
 30
0.0
 40
0.352778
 41
0.352778
  0
SEQEND
 8
0
  0
POLYLINE
  8
0
 62
     0
 66
     1
 10
0
 20
0
 30
0.0
 70
     1
 40
25.4
 41
25.4
  0
VERTEX
  8
0
 10
105.304
 20
2.24924
 30
0.0
 40
0.352778
 41
0.352778
  0
VERTEX
  8
0
 10
105.304
 20
0.690593
 30
0.0
 40
0.352778
 41
0.352778
  0
VERTEX
  8
0
 10
205.379
 20
0.690593
 30
0.0
 40
0.352778
 41
0.352778
  0
VERTEX
  8
0
 10
205.379
 20
3.76557
 30
0.0
 40
0.352778
 41
0.352778
  0
VERTEX
  8
0
 10
186.304
 20
3.76557
 30
0.0
 40
0.352778
 41
0.352778
  0
VERTEX
  8
0
 10
186.304
 20
2.24924
 30
0.0
 40
0.352778
 41
0.352778
  0
VERTEX
  8
0
 10
185.379
 20
2.24924
 30
0.0
 40
0.352778
 41
0.352778
  0
VERTEX
  8
0
 10
185.379
 20
3.76557
 30
0.0
 40
0.352778
 41
0.352778
  0
VERTEX
  8
0
 10
166.304
 20
3.76557
 30
0.0
 40
0.352778
 41
0.352778
  0
VERTEX
  8
0
 10
166.304
 20
2.24924
 30
0.0
 40
0.352778
 41
0.352778
  0
VERTEX
  8
0
 10
165.379
 20
2.24924
 30
0.0
 40
0.352778
 41
0.352778
  0
VERTEX
  8
0
 10
165.379
 20
3.76557
 30
0.0
 40
0.352778
 41
0.352778
  0
VERTEX
  8
0
 10
146.304
 20
3.76557
 30
0.0
 40
0.352778
 41
0.352778
  0
VERTEX
  8
0
 10
146.304
 20
2.24924
 30
0.0
 40
0.352778
 41
0.352778
  0
VERTEX
  8
0
 10
145.379
 20
2.24924
 30
0.0
 40
0.352778
 41
0.352778
  0
VERTEX
  8
0
 10
145.379
 20
3.76557
 30
0.0
 40
0.352778
 41
0.352778
  0
VERTEX
  8
0
 10
126.304
 20
3.76557
 30
0.0
 40
0.352778
 41
0.352778
  0
VERTEX
  8
0
 10
126.304
 20
2.24924
 30
0.0
 40
0.352778
 41
0.352778
  0
VERTEX
  8
0
 10
125.379
 20
2.24924
 30
0.0
 40
0.352778
 41
0.352778
  0
VERTEX
  8
0
 10
125.379
 20
3.76557
 30
0.0
 40
0.352778
 41
0.352778
  0
VERTEX
  8
0
 10
106.304
 20
3.76557
 30
0.0
 40
0.352778
 41
0.352778
  0
VERTEX
  8
0
 10
106.304
 20
2.24924
 30
0.0
 40
0.352778
 41
0.352778
  0
VERTEX
  8
0
 10
105.304
 20
2.24924
 30
0.0
 40
0.352778
 41
0.352778
  0
SEQEND
 8
0
  0
ENDSEC
  0
EOF
