  0
SECTION
  2
HEADER
  9
$ACADVER
  1
AC1009
  9
$EXTMIN
 10
0.0
 20
0.0
 30
0.0
  9
$EXTMAX
 10
1000.0
 20
1000.0
 30
0.0
  9
$FILLMODE
 70
 0
  9
$SPLFRAME
 70
 1
  0
ENDSEC
  0
SECTION
  2
TABLES
  0
TABLE
  2
LAYER
 70
1
  0
LAYER
  2
0
 70
     0
 62
     7
  6
CONTINUOUS
  0
ENDTAB
  0
ENDSEC
  0
SECTION
  2
ENTITIES
  0
POLYLINE
  8
0
 62
     0
 66
     1
 10
0
 20
0
 30
0.0
 40
25.4
 41
25.4
  0
VERTEX
  8
0
 10
57.1765
 20
63.0011
 30
0.0
 40
0.352778
 41
0.352778
  0
VERTEX
  8
0
 10
57.1765
 20
189.572
 30
0.0
 40
0.352778
 41
0.352778
  0
SEQEND
 8
0
  0
POLYLINE
  8
0
 62
     0
 66
     1
 10
0
 20
0
 30
0.0
 70
     1
 40
25.4
 41
25.4
  0
VERTEX
  8
0
 10
2.18138
 20
129.073
 30
0.0
 40
0.352778
 41
0.352778
  0
VERTEX
  8
0
 10
2.18138
 20
166.968
 30
0.0
 40
0.352778
 41
0.352778
  0
VERTEX
  8
0
 10
32.2146
 20
166.968
 30
0.0
 40
0.352778
 41
0.352778
  0
VERTEX
  8
0
 10
32.3399
 20
166.985
 30
0.0
 40
0.352778
 41
0.352778
  0
VERTEX
  8
0
 10
32.7171
 20
167.022
 30
0.0
 40
0.352778
 41
0.352778
  0
VERTEX
  8
0
 10
33.2197
 20
167.056
 30
0.0
 40
0.352778
 41
0.352778
  0
VERTEX
  8
0
 10
33.7221
 20
167.068
 30
0.0
 40
0.352778
 41
0.352778
  0
VERTEX
  8
0
 10
34.2235
 20
167.06
 30
0.0
 40
0.352778
 41
0.352778
  0
VERTEX
  8
0
 10
34.7232
 20
167.031
 30
0.0
 40
0.352778
 41
0.352778
  0
VERTEX
  8
0
 10
35.2207
 20
166.981
 30
0.0
 40
0.352778
 41
0.352778
  0
VERTEX
  8
0
 10
35.7153
 20
166.911
 30
0.0
 40
0.352778
 41
0.352778
  0
VERTEX
  8
0
 10
36.2064
 20
166.821
 30
0.0
 40
0.352778
 41
0.352778
  0
VERTEX
  8
0
 10
36.6935
 20
166.71
 30
0.0
 40
0.352778
 41
0.352778
  0
VERTEX
  8
0
 10
37.1756
 20
166.579
 30
0.0
 40
0.352778
 41
0.352778
  0
VERTEX
  8
0
 10
37.6524
 20
166.429
 30
0.0
 40
0.352778
 41
0.352778
  0
VERTEX
  8
0
 10
38.1232
 20
166.258
 30
0.0
 40
0.352778
 41
0.352778
  0
VERTEX
  8
0
 10
38.5872
 20
166.068
 30
0.0
 40
0.352778
 41
0.352778
  0
VERTEX
  8
0
 10
39.0439
 20
165.858
 30
0.0
 40
0.352778
 41
0.352778
  0
VERTEX
  8
0
 10
39.4928
 20
165.631
 30
0.0
 40
0.352778
 41
0.352778
  0
VERTEX
  8
0
 10
39.8243
 20
165.446
 30
0.0
 40
0.352778
 41
0.352778
  0
VERTEX
  8
0
 10
39.9331
 20
165.382
 30
0.0
 40
0.352778
 41
0.352778
  0
VERTEX
  8
0
 10
40.0417
 20
165.318
 30
0.0
 40
0.352778
 41
0.352778
  0
VERTEX
  8
0
 10
40.3625
 20
165.115
 30
0.0
 40
0.352778
 41
0.352778
  0
VERTEX
  8
0
 10
40.7792
 20
164.832
 30
0.0
 40
0.352778
 41
0.352778
  0
VERTEX
  8
0
 10
41.1828
 20
164.533
 30
0.0
 40
0.352778
 41
0.352778
  0
VERTEX
  8
0
 10
41.5726
 20
164.218
 30
0.0
 40
0.352778
 41
0.352778
  0
VERTEX
  8
0
 10
41.9486
 20
163.888
 30
0.0
 40
0.352778
 41
0.352778
  0
VERTEX
  8
0
 10
42.3101
 20
163.542
 30
0.0
 40
0.352778
 41
0.352778
  0
VERTEX
  8
0
 10
42.6568
 20
163.182
 30
0.0
 40
0.352778
 41
0.352778
  0
VERTEX
  8
0
 10
42.9882
 20
162.808
 30
0.0
 40
0.352778
 41
0.352778
  0
VERTEX
  8
0
 10
43.3039
 20
162.422
 30
0.0
 40
0.352778
 41
0.352778
  0
VERTEX
  8
0
 10
43.6035
 20
162.022
 30
0.0
 40
0.352778
 41
0.352778
  0
VERTEX
  8
0
 10
43.8867
 20
161.61
 30
0.0
 40
0.352778
 41
0.352778
  0
VERTEX
  8
0
 10
44.1528
 20
161.186
 30
0.0
 40
0.352778
 41
0.352778
  0
VERTEX
  8
0
 10
44.4015
 20
160.75
 30
0.0
 40
0.352778
 41
0.352778
  0
VERTEX
  8
0
 10
44.6325
 20
160.304
 30
0.0
 40
0.352778
 41
0.352778
  0
VERTEX
  8
0
 10
44.8453
 20
159.847
 30
0.0
 40
0.352778
 41
0.352778
  0
VERTEX
  8
0
 10
44.9933
 20
159.499
 30
0.0
 40
0.352778
 41
0.352778
  0
VERTEX
  8
0
 10
45.0394
 20
159.381
 30
0.0
 40
0.352778
 41
0.352778
  0
VERTEX
  8
0
 10
45.1726
 20
159.04
 30
0.0
 40
0.352778
 41
0.352778
  0
VERTEX
  8
0
 10
45.5403
 20
158.008
 30
0.0
 40
0.352778
 41
0.352778
  0
VERTEX
  8
0
 10
45.9743
 20
156.619
 30
0.0
 40
0.352778
 41
0.352778
  0
VERTEX
  8
0
 10
46.3417
 20
155.217
 30
0.0
 40
0.352778
 41
0.352778
  0
VERTEX
  8
0
 10
46.6421
 20
153.801
 30
0.0
 40
0.352778
 41
0.352778
  0
VERTEX
  8
0
 10
46.876
 20
152.376
 30
0.0
 40
0.352778
 41
0.352778
  0
VERTEX
  8
0
 10
47.0429
 20
150.946
 30
0.0
 40
0.352778
 41
0.352778
  0
VERTEX
  8
0
 10
47.1431
 20
149.51
 30
0.0
 40
0.352778
 41
0.352778
  0
VERTEX
  8
0
 10
47.1764
 20
148.071
 30
0.0
 40
0.352778
 41
0.352778
  0
VERTEX
  8
0
 10
47.1431
 20
146.632
 30
0.0
 40
0.352778
 41
0.352778
  0
VERTEX
  8
0
 10
47.0429
 20
145.196
 30
0.0
 40
0.352778
 41
0.352778
  0
VERTEX
  8
0
 10
46.876
 20
143.764
 30
0.0
 40
0.352778
 41
0.352778
  0
VERTEX
  8
0
 10
46.6421
 20
142.34
 30
0.0
 40
0.352778
 41
0.352778
  0
VERTEX
  8
0
 10
46.3417
 20
140.925
 30
0.0
 40
0.352778
 41
0.352778
  0
VERTEX
  8
0
 10
45.9743
 20
139.522
 30
0.0
 40
0.352778
 41
0.352778
  0
VERTEX
  8
0
 10
45.5403
 20
138.133
 30
0.0
 40
0.352778
 41
0.352778
  0
VERTEX
  8
0
 10
45.1726
 20
137.101
 30
0.0
 40
0.352778
 41
0.352778
  0
VERTEX
  8
0
 10
45.0394
 20
136.761
 30
0.0
 40
0.352778
 41
0.352778
  0
VERTEX
  8
0
 10
44.9979
 20
136.655
 30
0.0
 40
0.352778
 41
0.352778
  0
VERTEX
  8
0
 10
44.8653
 20
136.34
 30
0.0
 40
0.352778
 41
0.352778
  0
VERTEX
  8
0
 10
44.6758
 20
135.927
 30
0.0
 40
0.352778
 41
0.352778
  0
VERTEX
  8
0
 10
44.4715
 20
135.522
 30
0.0
 40
0.352778
 41
0.352778
  0
VERTEX
  8
0
 10
44.2525
 20
135.126
 30
0.0
 40
0.352778
 41
0.352778
  0
VERTEX
  8
0
 10
44.0192
 20
134.738
 30
0.0
 40
0.352778
 41
0.352778
  0
VERTEX
  8
0
 10
43.7718
 20
134.36
 30
0.0
 40
0.352778
 41
0.352778
  0
VERTEX
  8
0
 10
43.5107
 20
133.992
 30
0.0
 40
0.352778
 41
0.352778
  0
VERTEX
  8
0
 10
43.2361
 20
133.634
 30
0.0
 40
0.352778
 41
0.352778
  0
VERTEX
  8
0
 10
42.9483
 20
133.287
 30
0.0
 40
0.352778
 41
0.352778
  0
VERTEX
  8
0
 10
42.6478
 20
132.95
 30
0.0
 40
0.352778
 41
0.352778
  0
VERTEX
  8
0
 10
42.3346
 20
132.624
 30
0.0
 40
0.352778
 41
0.352778
  0
VERTEX
  8
0
 10
42.0093
 20
132.31
 30
0.0
 40
0.352778
 41
0.352778
  0
VERTEX
  8
0
 10
41.6719
 20
132.008
 30
0.0
 40
0.352778
 41
0.352778
  0
VERTEX
  8
0
 10
41.3229
 20
131.719
 30
0.0
 40
0.352778
 41
0.352778
  0
VERTEX
  8
0
 10
40.9625
 20
131.442
 30
0.0
 40
0.352778
 41
0.352778
  0
VERTEX
  8
0
 10
40.685
 20
131.242
 30
0.0
 40
0.352778
 41
0.352778
  0
VERTEX
  8
0
 10
40.591
 20
131.178
 30
0.0
 40
0.352778
 41
0.352778
  0
VERTEX
  8
0
 10
40.4032
 20
131.05
 30
0.0
 40
0.352778
 41
0.352778
  0
VERTEX
  8
0
 10
39.8204
 20
130.694
 30
0.0
 40
0.352778
 41
0.352778
  0
VERTEX
  8
0
 10
39.0193
 20
130.271
 30
0.0
 40
0.352778
 41
0.352778
  0
VERTEX
  8
0
 10
38.191
 20
129.909
 30
0.0
 40
0.352778
 41
0.352778
  0
VERTEX
  8
0
 10
37.3392
 20
129.611
 30
0.0
 40
0.352778
 41
0.352778
  0
VERTEX
  8
0
 10
36.4676
 20
129.378
 30
0.0
 40
0.352778
 41
0.352778
  0
VERTEX
  8
0
 10
35.5797
 20
129.209
 30
0.0
 40
0.352778
 41
0.352778
  0
VERTEX
  8
0
 10
34.6794
 20
129.108
 30
0.0
 40
0.352778
 41
0.352778
  0
VERTEX
  8
0
 10
33.9975
 20
129.073
 30
0.0
 40
0.352778
 41
0.352778
  0
VERTEX
  8
0
 10
33.7701
 20
129.073
 30
0.0
 40
0.352778
 41
0.352778
  0
VERTEX
  8
0
 10
2.18138
 20
129.073
 30
0.0
 40
0.352778
 41
0.352778
  0
SEQEND
 8
0
  0
POLYLINE
  8
0
 62
     0
 66
     1
 10
0
 20
0
 30
0.0
 70
     1
 40
25.4
 41
25.4
  0
VERTEX
  8
0
 10
69.8214
 20
186.275
 30
0.0
 40
0.352778
 41
0.352778
  0
VERTEX
  8
0
 10
90.4736
 20
186.275
 30
0.0
 40
0.352778
 41
0.352778
  0
VERTEX
  8
0
 10
90.4736
 20
183.639
 30
0.0
 40
0.352778
 41
0.352778
  0
VERTEX
  8
0
 10
97.5486
 20
183.639
 30
0.0
 40
0.352778
 41
0.352778
  0
VERTEX
  8
0
 10
97.5486
 20
189.35
 30
0.0
 40
0.352778
 41
0.352778
  0
VERTEX
  8
0
 10
76.6979
 20
189.35
 30
0.0
 40
0.352778
 41
0.352778
  0
VERTEX
  8
0
 10
76.6979
 20
187.85
 30
0.0
 40
0.352778
 41
0.352778
  0
VERTEX
  8
0
 10
75.7729
 20
187.85
 30
0.0
 40
0.352778
 41
0.352778
  0
VERTEX
  8
0
 10
75.7729
 20
189.35
 30
0.0
 40
0.352778
 41
0.352778
  0
VERTEX
  8
0
 10
69.7839
 20
189.35
 30
0.0
 40
0.352778
 41
0.352778
  0
VERTEX
  8
0
 10
69.6082
 20
189.35
 30
0.0
 40
0.352778
 41
0.352778
  0
VERTEX
  8
0
 10
69.0813
 20
189.332
 30
0.0
 40
0.352778
 41
0.352778
  0
VERTEX
  8
0
 10
68.3839
 20
189.279
 30
0.0
 40
0.352778
 41
0.352778
  0
VERTEX
  8
0
 10
67.6928
 20
189.189
 30
0.0
 40
0.352778
 41
0.352778
  0
VERTEX
  8
0
 10
67.0092
 20
189.067
 30
0.0
 40
0.352778
 41
0.352778
  0
VERTEX
  8
0
 10
66.3346
 20
188.908
 30
0.0
 40
0.352778
 41
0.352778
  0
VERTEX
  8
0
 10
65.67
 20
188.717
 30
0.0
 40
0.352778
 41
0.352778
  0
VERTEX
  8
0
 10
65.0167
 20
188.493
 30
0.0
 40
0.352778
 41
0.352778
  0
VERTEX
  8
0
 10
64.376
 20
188.236
 30
0.0
 40
0.352778
 41
0.352778
  0
VERTEX
  8
0
 10
63.749
 20
187.947
 30
0.0
 40
0.352778
 41
0.352778
  0
VERTEX
  8
0
 10
63.1371
 20
187.626
 30
0.0
 40
0.352778
 41
0.352778
  0
VERTEX
  8
0
 10
62.5414
 20
187.275
 30
0.0
 40
0.352778
 41
0.352778
  0
VERTEX
  8
0
 10
61.9632
 20
186.893
 30
0.0
 40
0.352778
 41
0.352778
  0
VERTEX
  8
0
 10
61.4037
 20
186.482
 30
0.0
 40
0.352778
 41
0.352778
  0
VERTEX
  8
0
 10
60.8642
 20
186.04
 30
0.0
 40
0.352778
 41
0.352778
  0
VERTEX
  8
0
 10
60.3458
 20
185.571
 30
0.0
 40
0.352778
 41
0.352778
  0
VERTEX
  8
0
 10
59.9707
 20
185.2
 30
0.0
 40
0.352778
 41
0.352778
  0
VERTEX
  8
0
 10
59.85
 20
185.072
 30
0.0
 40
0.352778
 41
0.352778
  0
VERTEX
  8
0
 10
59.7265
 20
184.811
 30
0.0
 40
0.352778
 41
0.352778
  0
VERTEX
  8
0
 10
59.3837
 20
184.013
 30
0.0
 40
0.352778
 41
0.352778
  0
VERTEX
  8
0
 10
58.9747
 20
182.932
 30
0.0
 40
0.352778
 41
0.352778
  0
VERTEX
  8
0
 10
58.6235
 20
181.832
 30
0.0
 40
0.352778
 41
0.352778
  0
VERTEX
  8
0
 10
58.3304
 20
180.717
 30
0.0
 40
0.352778
 41
0.352778
  0
VERTEX
  8
0
 10
58.096
 20
179.587
 30
0.0
 40
0.352778
 41
0.352778
  0
VERTEX
  8
0
 10
57.921
 20
178.446
 30
0.0
 40
0.352778
 41
0.352778
  0
VERTEX
  8
0
 10
57.8058
 20
177.296
 30
0.0
 40
0.352778
 41
0.352778
  0
VERTEX
  8
0
 10
57.7572
 20
176.428
 30
0.0
 40
0.352778
 41
0.352778
  0
VERTEX
  8
0
 10
57.7511
 20
176.139
 30
0.0
 40
0.352778
 41
0.352778
  0
VERTEX
  8
0
 10
59.12
 20
176.139
 30
0.0
 40
0.352778
 41
0.352778
  0
VERTEX
  8
0
 10
59.1165
 20
176.063
 30
0.0
 40
0.352778
 41
0.352778
  0
VERTEX
  8
0
 10
59.1165
 20
175.29
 30
0.0
 40
0.352778
 41
0.352778
  0
VERTEX
  8
0
 10
59.12
 20
175.214
 30
0.0
 40
0.352778
 41
0.352778
  0
VERTEX
  8
0
 10
57.7511
 20
175.214
 30
0.0
 40
0.352778
 41
0.352778
  0
VERTEX
  8
0
 10
57.7572
 20
174.925
 30
0.0
 40
0.352778
 41
0.352778
  0
VERTEX
  8
0
 10
57.8058
 20
174.057
 30
0.0
 40
0.352778
 41
0.352778
  0
VERTEX
  8
0
 10
57.921
 20
172.907
 30
0.0
 40
0.352778
 41
0.352778
  0
VERTEX
  8
0
 10
58.096
 20
171.765
 30
0.0
 40
0.352778
 41
0.352778
  0
VERTEX
  8
0
 10
58.3304
 20
170.636
 30
0.0
 40
0.352778
 41
0.352778
  0
VERTEX
  8
0
 10
58.6235
 20
169.521
 30
0.0
 40
0.352778
 41
0.352778
  0
VERTEX
  8
0
 10
58.9747
 20
168.421
 30
0.0
 40
0.352778
 41
0.352778
  0
VERTEX
  8
0
 10
59.3837
 20
167.34
 30
0.0
 40
0.352778
 41
0.352778
  0
VERTEX
  8
0
 10
59.7265
 20
166.542
 30
0.0
 40
0.352778
 41
0.352778
  0
VERTEX
  8
0
 10
59.85
 20
166.281
 30
0.0
 40
0.352778
 41
0.352778
  0
VERTEX
  8
0
 10
59.9707
 20
166.153
 30
0.0
 40
0.352778
 41
0.352778
  0
VERTEX
  8
0
 10
60.3458
 20
165.782
 30
0.0
 40
0.352778
 41
0.352778
  0
VERTEX
  8
0
 10
60.8642
 20
165.313
 30
0.0
 40
0.352778
 41
0.352778
  0
VERTEX
  8
0
 10
61.4037
 20
164.871
 30
0.0
 40
0.352778
 41
0.352778
  0
VERTEX
  8
0
 10
61.9632
 20
164.46
 30
0.0
 40
0.352778
 41
0.352778
  0
VERTEX
  8
0
 10
62.5414
 20
164.078
 30
0.0
 40
0.352778
 41
0.352778
  0
VERTEX
  8
0
 10
63.1371
 20
163.726
 30
0.0
 40
0.352778
 41
0.352778
  0
VERTEX
  8
0
 10
63.749
 20
163.407
 30
0.0
 40
0.352778
 41
0.352778
  0
VERTEX
  8
0
 10
64.376
 20
163.117
 30
0.0
 40
0.352778
 41
0.352778
  0
VERTEX
  8
0
 10
65.0167
 20
162.86
 30
0.0
 40
0.352778
 41
0.352778
  0
VERTEX
  8
0
 10
65.67
 20
162.636
 30
0.0
 40
0.352778
 41
0.352778
  0
VERTEX
  8
0
 10
66.3346
 20
162.444
 30
0.0
 40
0.352778
 41
0.352778
  0
VERTEX
  8
0
 10
67.0092
 20
162.288
 30
0.0
 40
0.352778
 41
0.352778
  0
VERTEX
  8
0
 10
67.6928
 20
162.164
 30
0.0
 40
0.352778
 41
0.352778
  0
VERTEX
  8
0
 10
68.3839
 20
162.075
 30
0.0
 40
0.352778
 41
0.352778
  0
VERTEX
  8
0
 10
69.0813
 20
162.021
 30
0.0
 40
0.352778
 41
0.352778
  0
VERTEX
  8
0
 10
69.6082
 20
162.003
 30
0.0
 40
0.352778
 41
0.352778
  0
VERTEX
  8
0
 10
69.7839
 20
162.003
 30
0.0
 40
0.352778
 41
0.352778
  0
VERTEX
  8
0
 10
75.7729
 20
162.003
 30
0.0
 40
0.352778
 41
0.352778
  0
VERTEX
  8
0
 10
75.7729
 20
163.503
 30
0.0
 40
0.352778
 41
0.352778
  0
VERTEX
  8
0
 10
76.6979
 20
163.503
 30
0.0
 40
0.352778
 41
0.352778
  0
VERTEX
  8
0
 10
76.6979
 20
162.003
 30
0.0
 40
0.352778
 41
0.352778
  0
VERTEX
  8
0
 10
97.5486
 20
162.003
 30
0.0
 40
0.352778
 41
0.352778
  0
VERTEX
  8
0
 10
97.5486
 20
167.714
 30
0.0
 40
0.352778
 41
0.352778
  0
VERTEX
  8
0
 10
90.4736
 20
167.714
 30
0.0
 40
0.352778
 41
0.352778
  0
VERTEX
  8
0
 10
90.4736
 20
165.078
 30
0.0
 40
0.352778
 41
0.352778
  0
VERTEX
  8
0
 10
69.8214
 20
165.078
 30
0.0
 40
0.352778
 41
0.352778
  0
VERTEX
  8
0
 10
69.8214
 20
186.275
 30
0.0
 40
0.352778
 41
0.352778
  0
SEQEND
 8
0
  0
POLYLINE
  8
0
 62
     0
 66
     1
 10
0
 20
0
 30
0.0
 70
     1
 40
25.4
 41
25.4
  0
VERTEX
  8
0
 10
67.7463
 20
177.929
 30
0.0
 40
0.352778
 41
0.352778
  0
VERTEX
  8
0
 10
67.6778
 20
177.867
 30
0.0
 40
0.352778
 41
0.352778
  0
VERTEX
  8
0
 10
67.4874
 20
177.665
 30
0.0
 40
0.352778
 41
0.352778
  0
VERTEX
  8
0
 10
67.2633
 20
177.372
 30
0.0
 40
0.352778
 41
0.352778
  0
VERTEX
  8
0
 10
67.0764
 20
177.054
 30
0.0
 40
0.352778
 41
0.352778
  0
VERTEX
  8
0
 10
66.9606
 20
176.801
 30
0.0
 40
0.352778
 41
0.352778
  0
VERTEX
  8
0
 10
66.929
 20
176.714
 30
0.0
 40
0.352778
 41
0.352778
  0
VERTEX
  8
0
 10
60.8497
 20
176.714
 30
0.0
 40
0.352778
 41
0.352778
  0
VERTEX
  8
0
 10
60.8606
 20
176.913
 30
0.0
 40
0.352778
 41
0.352778
  0
VERTEX
  8
0
 10
60.91
 20
177.508
 30
0.0
 40
0.352778
 41
0.352778
  0
VERTEX
  8
0
 10
61.0035
 20
178.299
 30
0.0
 40
0.352778
 41
0.352778
  0
VERTEX
  8
0
 10
61.13
 20
179.083
 30
0.0
 40
0.352778
 41
0.352778
  0
VERTEX
  8
0
 10
61.2892
 20
179.862
 30
0.0
 40
0.352778
 41
0.352778
  0
VERTEX
  8
0
 10
61.4807
 20
180.633
 30
0.0
 40
0.352778
 41
0.352778
  0
VERTEX
  8
0
 10
61.7046
 20
181.397
 30
0.0
 40
0.352778
 41
0.352778
  0
VERTEX
  8
0
 10
61.9606
 20
182.15
 30
0.0
 40
0.352778
 41
0.352778
  0
VERTEX
  8
0
 10
62.1725
 20
182.71
 30
0.0
 40
0.352778
 41
0.352778
  0
VERTEX
  8
0
 10
62.2483
 20
182.893
 30
0.0
 40
0.352778
 41
0.352778
  0
VERTEX
  8
0
 10
62.2696
 20
182.944
 30
0.0
 40
0.352778
 41
0.352778
  0
VERTEX
  8
0
 10
62.3453
 20
183.096
 30
0.0
 40
0.352778
 41
0.352778
  0
VERTEX
  8
0
 10
62.4643
 20
183.285
 30
0.0
 40
0.352778
 41
0.352778
  0
VERTEX
  8
0
 10
62.604
 20
183.458
 30
0.0
 40
0.352778
 41
0.352778
  0
VERTEX
  8
0
 10
62.7213
 20
183.579
 30
0.0
 40
0.352778
 41
0.352778
  0
VERTEX
  8
0
 10
62.7632
 20
183.617
 30
0.0
 40
0.352778
 41
0.352778
  0
VERTEX
  8
0
 10
62.8953
 20
183.733
 30
0.0
 40
0.352778
 41
0.352778
  0
VERTEX
  8
0
 10
63.3069
 20
184.067
 30
0.0
 40
0.352778
 41
0.352778
  0
VERTEX
  8
0
 10
63.8775
 20
184.478
 30
0.0
 40
0.352778
 41
0.352778
  0
VERTEX
  8
0
 10
64.4728
 20
184.849
 30
0.0
 40
0.352778
 41
0.352778
  0
VERTEX
  8
0
 10
65.0906
 20
185.179
 30
0.0
 40
0.352778
 41
0.352778
  0
VERTEX
  8
0
 10
65.7289
 20
185.469
 30
0.0
 40
0.352778
 41
0.352778
  0
VERTEX
  8
0
 10
66.3857
 20
185.715
 30
0.0
 40
0.352778
 41
0.352778
  0
VERTEX
  8
0
 10
67.0589
 20
185.919
 30
0.0
 40
0.352778
 41
0.352778
  0
VERTEX
  8
0
 10
67.5733
 20
186.043
 30
0.0
 40
0.352778
 41
0.352778
  0
VERTEX
  8
0
 10
67.7463
 20
186.078
 30
0.0
 40
0.352778
 41
0.352778
  0
VERTEX
  8
0
 10
67.7463
 20
177.929
 30
0.0
 40
0.352778
 41
0.352778
  0
SEQEND
 8
0
  0
POLYLINE
  8
0
 62
     0
 66
     1
 10
0
 20
0
 30
0.0
 70
     1
 40
25.4
 41
25.4
  0
VERTEX
  8
0
 10
60.5068
 20
185.607
 30
0.0
 40
0.352778
 41
0.352778
  0
VERTEX
  8
0
 10
60.4526
 20
185.551
 30
0.0
 40
0.352778
 41
0.352778
  0
VERTEX
  8
0
 10
60.1981
 20
185.258
 30
0.0
 40
0.352778
 41
0.352778
  0
VERTEX
  8
0
 10
59.9661
 20
184.947
 30
0.0
 40
0.352778
 41
0.352778
  0
VERTEX
  8
0
 10
59.9233
 20
184.883
 30
0.0
 40
0.352778
 41
0.352778
  0
VERTEX
  8
0
 10
60.8486
 20
183.957
 30
0.0
 40
0.352778
 41
0.352778
  0
VERTEX
  8
0
 10
61.5026
 20
184.611
 30
0.0
 40
0.352778
 41
0.352778
  0
VERTEX
  8
0
 10
60.5068
 20
185.607
 30
0.0
 40
0.352778
 41
0.352778
  0
SEQEND
 8
0
  0
POLYLINE
  8
0
 62
     0
 66
     1
 10
0
 20
0
 30
0.0
 70
     1
 40
25.4
 41
25.4
  0
VERTEX
  8
0
 10
61.3965
 20
166.847
 30
0.0
 40
0.352778
 41
0.352778
  0
VERTEX
  8
0
 10
60.9546
 20
167.289
 30
0.0
 40
0.352778
 41
0.352778
  0
VERTEX
  8
0
 10
60.0094
 20
166.344
 30
0.0
 40
0.352778
 41
0.352778
  0
VERTEX
  8
0
 10
60.0397
 20
166.301
 30
0.0
 40
0.352778
 41
0.352778
  0
VERTEX
  8
0
 10
60.1989
 20
166.093
 30
0.0
 40
0.352778
 41
0.352778
  0
VERTEX
  8
0
 10
60.3683
 20
165.893
 30
0.0
 40
0.352778
 41
0.352778
  0
VERTEX
  8
0
 10
60.4037
 20
165.854
 30
0.0
 40
0.352778
 41
0.352778
  0
VERTEX
  8
0
 10
61.3965
 20
166.847
 30
0.0
 40
0.352778
 41
0.352778
  0
SEQEND
 8
0
  0
POLYLINE
  8
0
 62
     0
 66
     1
 10
0
 20
0
 30
0.0
 70
     1
 40
25.4
 41
25.4
  0
VERTEX
  8
0
 10
67.7463
 20
165.275
 30
0.0
 40
0.352778
 41
0.352778
  0
VERTEX
  8
0
 10
67.5733
 20
165.31
 30
0.0
 40
0.352778
 41
0.352778
  0
VERTEX
  8
0
 10
67.0589
 20
165.433
 30
0.0
 40
0.352778
 41
0.352778
  0
VERTEX
  8
0
 10
66.3857
 20
165.638
 30
0.0
 40
0.352778
 41
0.352778
  0
VERTEX
  8
0
 10
65.7289
 20
165.883
 30
0.0
 40
0.352778
 41
0.352778
  0
VERTEX
  8
0
 10
65.0906
 20
166.174
 30
0.0
 40
0.352778
 41
0.352778
  0
VERTEX
  8
0
 10
64.4728
 20
166.504
 30
0.0
 40
0.352778
 41
0.352778
  0
VERTEX
  8
0
 10
63.8775
 20
166.876
 30
0.0
 40
0.352778
 41
0.352778
  0
VERTEX
  8
0
 10
63.3069
 20
167.286
 30
0.0
 40
0.352778
 41
0.352778
  0
VERTEX
  8
0
 10
62.8953
 20
167.619
 30
0.0
 40
0.352778
 41
0.352778
  0
VERTEX
  8
0
 10
62.7632
 20
167.736
 30
0.0
 40
0.352778
 41
0.352778
  0
VERTEX
  8
0
 10
62.7213
 20
167.774
 30
0.0
 40
0.352778
 41
0.352778
  0
VERTEX
  8
0
 10
62.604
 20
167.894
 30
0.0
 40
0.352778
 41
0.352778
  0
VERTEX
  8
0
 10
62.4643
 20
168.068
 30
0.0
 40
0.352778
 41
0.352778
  0
VERTEX
  8
0
 10
62.3453
 20
168.257
 30
0.0
 40
0.352778
 41
0.352778
  0
VERTEX
  8
0
 10
62.2696
 20
168.408
 30
0.0
 40
0.352778
 41
0.352778
  0
VERTEX
  8
0
 10
62.2483
 20
168.46
 30
0.0
 40
0.352778
 41
0.352778
  0
VERTEX
  8
0
 10
62.1725
 20
168.643
 30
0.0
 40
0.352778
 41
0.352778
  0
VERTEX
  8
0
 10
61.9606
 20
169.203
 30
0.0
 40
0.352778
 41
0.352778
  0
VERTEX
  8
0
 10
61.7046
 20
169.956
 30
0.0
 40
0.352778
 41
0.352778
  0
VERTEX
  8
0
 10
61.4807
 20
170.719
 30
0.0
 40
0.352778
 41
0.352778
  0
VERTEX
  8
0
 10
61.2892
 20
171.49
 30
0.0
 40
0.352778
 41
0.352778
  0
VERTEX
  8
0
 10
61.13
 20
172.269
 30
0.0
 40
0.352778
 41
0.352778
  0
VERTEX
  8
0
 10
61.0035
 20
173.054
 30
0.0
 40
0.352778
 41
0.352778
  0
VERTEX
  8
0
 10
60.91
 20
173.844
 30
0.0
 40
0.352778
 41
0.352778
  0
VERTEX
  8
0
 10
60.8606
 20
174.44
 30
0.0
 40
0.352778
 41
0.352778
  0
VERTEX
  8
0
 10
60.8497
 20
174.639
 30
0.0
 40
0.352778
 41
0.352778
  0
VERTEX
  8
0
 10
66.929
 20
174.639
 30
0.0
 40
0.352778
 41
0.352778
  0
VERTEX
  8
0
 10
66.9606
 20
174.553
 30
0.0
 40
0.352778
 41
0.352778
  0
VERTEX
  8
0
 10
67.0764
 20
174.3
 30
0.0
 40
0.352778
 41
0.352778
  0
VERTEX
  8
0
 10
67.2633
 20
173.982
 30
0.0
 40
0.352778
 41
0.352778
  0
VERTEX
  8
0
 10
67.4874
 20
173.689
 30
0.0
 40
0.352778
 41
0.352778
  0
VERTEX
  8
0
 10
67.6778
 20
173.486
 30
0.0
 40
0.352778
 41
0.352778
  0
VERTEX
  8
0
 10
67.7463
 20
173.424
 30
0.0
 40
0.352778
 41
0.352778
  0
VERTEX
  8
0
 10
67.7463
 20
165.275
 30
0.0
 40
0.352778
 41
0.352778
  0
SEQEND
 8
0
  0
POLYLINE
  8
0
 62
     0
 66
     1
 10
0
 20
0
 30
0.0
 70
     1
 40
25.4
 41
25.4
  0
VERTEX
  8
0
 10
26.2462
 20
81.5975
 30
0.0
 40
0.352778
 41
0.352778
  0
VERTEX
  8
0
 10
26.2462
 20
82.5225
 30
0.0
 40
0.352778
 41
0.352778
  0
VERTEX
  8
0
 10
27.7462
 20
82.5225
 30
0.0
 40
0.352778
 41
0.352778
  0
VERTEX
  8
0
 10
27.7462
 20
103.373
 30
0.0
 40
0.352778
 41
0.352778
  0
VERTEX
  8
0
 10
22.035
 20
103.373
 30
0.0
 40
0.352778
 41
0.352778
  0
VERTEX
  8
0
 10
22.035
 20
96.2982
 30
0.0
 40
0.352778
 41
0.352778
  0
VERTEX
  8
0
 10
24.6714
 20
96.2982
 30
0.0
 40
0.352778
 41
0.352778
  0
VERTEX
  8
0
 10
24.6714
 20
75.646
 30
0.0
 40
0.352778
 41
0.352778
  0
VERTEX
  8
0
 10
3.47358
 20
75.646
 30
0.0
 40
0.352778
 41
0.352778
  0
VERTEX
  8
0
 10
3.47358
 20
96.2982
 30
0.0
 40
0.352778
 41
0.352778
  0
VERTEX
  8
0
 10
6.10992
 20
96.2982
 30
0.0
 40
0.352778
 41
0.352778
  0
VERTEX
  8
0
 10
6.10992
 20
103.373
 30
0.0
 40
0.352778
 41
0.352778
  0
VERTEX
  8
0
 10
0.398546
 20
103.373
 30
0.0
 40
0.352778
 41
0.352778
  0
VERTEX
  8
0
 10
0.398546
 20
82.5225
 30
0.0
 40
0.352778
 41
0.352778
  0
VERTEX
  8
0
 10
1.89854
 20
82.5225
 30
0.0
 40
0.352778
 41
0.352778
  0
VERTEX
  8
0
 10
1.89854
 20
81.5975
 30
0.0
 40
0.352778
 41
0.352778
  0
VERTEX
  8
0
 10
0.398546
 20
81.5975
 30
0.0
 40
0.352778
 41
0.352778
  0
VERTEX
  8
0
 10
0.398546
 20
75.6085
 30
0.0
 40
0.352778
 41
0.352778
  0
VERTEX
  8
0
 10
0.398546
 20
75.4328
 30
0.0
 40
0.352778
 41
0.352778
  0
VERTEX
  8
0
 10
0.416558
 20
74.906
 30
0.0
 40
0.352778
 41
0.352778
  0
VERTEX
  8
0
 10
0.470324
 20
74.2085
 30
0.0
 40
0.352778
 41
0.352778
  0
VERTEX
  8
0
 10
0.559299
 20
73.5174
 30
0.0
 40
0.352778
 41
0.352778
  0
VERTEX
  8
0
 10
0.682889
 20
72.8339
 30
0.0
 40
0.352778
 41
0.352778
  0
VERTEX
  8
0
 10
0.840657
 20
72.1593
 30
0.0
 40
0.352778
 41
0.352778
  0
VERTEX
  8
0
 10
1.03201
 20
71.4947
 30
0.0
 40
0.352778
 41
0.352778
  0
VERTEX
  8
0
 10
1.2564
 20
70.8414
 30
0.0
 40
0.352778
 41
0.352778
  0
VERTEX
  8
0
 10
1.51335
 20
70.2007
 30
0.0
 40
0.352778
 41
0.352778
  0
VERTEX
  8
0
 10
1.80225
 20
69.5738
 30
0.0
 40
0.352778
 41
0.352778
  0
VERTEX
  8
0
 10
2.12267
 20
68.9618
 30
0.0
 40
0.352778
 41
0.352778
  0
VERTEX
  8
0
 10
2.47396
 20
68.3661
 30
0.0
 40
0.352778
 41
0.352778
  0
VERTEX
  8
0
 10
2.85568
 20
67.7879
 30
0.0
 40
0.352778
 41
0.352778
  0
VERTEX
  8
0
 10
3.26731
 20
67.2283
 30
0.0
 40
0.352778
 41
0.352778
  0
VERTEX
  8
0
 10
3.70822
 20
66.6889
 30
0.0
 40
0.352778
 41
0.352778
  0
VERTEX
  8
0
 10
4.17796
 20
66.1706
 30
0.0
 40
0.352778
 41
0.352778
  0
VERTEX
  8
0
 10
4.54839
 20
65.7953
 30
0.0
 40
0.352778
 41
0.352778
  0
VERTEX
  8
0
 10
4.676
 20
65.6746
 30
0.0
 40
0.352778
 41
0.352778
  0
VERTEX
  8
0
 10
4.93778
 20
65.5512
 30
0.0
 40
0.352778
 41
0.352778
  0
VERTEX
  8
0
 10
5.73628
 20
65.2085
 30
0.0
 40
0.352778
 41
0.352778
  0
VERTEX
  8
0
 10
6.81733
 20
64.7994
 30
0.0
 40
0.352778
 41
0.352778
  0
VERTEX
  8
0
 10
7.91683
 20
64.4481
 30
0.0
 40
0.352778
 41
0.352778
  0
VERTEX
  8
0
 10
9.0325
 20
64.155
 30
0.0
 40
0.352778
 41
0.352778
  0
VERTEX
  8
0
 10
10.1619
 20
63.9207
 30
0.0
 40
0.352778
 41
0.352778
  0
VERTEX
  8
0
 10
11.3029
 20
63.7457
 30
0.0
 40
0.352778
 41
0.352778
  0
VERTEX
  8
0
 10
12.453
 20
63.6306
 30
0.0
 40
0.352778
 41
0.352778
  0
VERTEX
  8
0
 10
13.3205
 20
63.5818
 30
0.0
 40
0.352778
 41
0.352778
  0
VERTEX
  8
0
 10
13.61
 20
63.5758
 30
0.0
 40
0.352778
 41
0.352778
  0
VERTEX
  8
0
 10
13.61
 20
64.9446
 30
0.0
 40
0.352778
 41
0.352778
  0
VERTEX
  8
0
 10
13.687
 20
64.9413
 30
0.0
 40
0.352778
 41
0.352778
  0
VERTEX
  8
0
 10
14.4579
 20
64.9413
 30
0.0
 40
0.352778
 41
0.352778
  0
VERTEX
  8
0
 10
14.535
 20
64.9446
 30
0.0
 40
0.352778
 41
0.352778
  0
VERTEX
  8
0
 10
14.535
 20
63.5758
 30
0.0
 40
0.352778
 41
0.352778
  0
VERTEX
  8
0
 10
14.8243
 20
63.5818
 30
0.0
 40
0.352778
 41
0.352778
  0
VERTEX
  8
0
 10
15.6919
 20
63.6306
 30
0.0
 40
0.352778
 41
0.352778
  0
VERTEX
  8
0
 10
16.8419
 20
63.7457
 30
0.0
 40
0.352778
 41
0.352778
  0
VERTEX
  8
0
 10
17.9829
 20
63.9207
 30
0.0
 40
0.352778
 41
0.352778
  0
VERTEX
  8
0
 10
19.1124
 20
64.155
 30
0.0
 40
0.352778
 41
0.352778
  0
VERTEX
  8
0
 10
20.2281
 20
64.4481
 30
0.0
 40
0.352778
 41
0.352778
  0
VERTEX
  8
0
 10
21.3275
 20
64.7994
 30
0.0
 40
0.352778
 41
0.352778
  0
VERTEX
  8
0
 10
22.4086
 20
65.2085
 30
0.0
 40
0.352778
 41
0.352778
  0
VERTEX
  8
0
 10
23.2071
 20
65.5512
 30
0.0
 40
0.352778
 41
0.352778
  0
VERTEX
  8
0
 10
23.4689
 20
65.6746
 30
0.0
 40
0.352778
 41
0.352778
  0
VERTEX
  8
0
 10
23.5965
 20
65.7953
 30
0.0
 40
0.352778
 41
0.352778
  0
VERTEX
  8
0
 10
23.9669
 20
66.1706
 30
0.0
 40
0.352778
 41
0.352778
  0
VERTEX
  8
0
 10
24.4367
 20
66.6889
 30
0.0
 40
0.352778
 41
0.352778
  0
VERTEX
  8
0
 10
24.8775
 20
67.2283
 30
0.0
 40
0.352778
 41
0.352778
  0
VERTEX
  8
0
 10
25.2892
 20
67.7879
 30
0.0
 40
0.352778
 41
0.352778
  0
VERTEX
  8
0
 10
25.6708
 20
68.3661
 30
0.0
 40
0.352778
 41
0.352778
  0
VERTEX
  8
0
 10
26.0222
 20
68.9618
 30
0.0
 40
0.352778
 41
0.352778
  0
VERTEX
  8
0
 10
26.3425
 20
69.5738
 30
0.0
 40
0.352778
 41
0.352778
  0
VERTEX
  8
0
 10
26.6315
 20
70.2007
 30
0.0
 40
0.352778
 41
0.352778
  0
VERTEX
  8
0
 10
26.8883
 20
70.8414
 30
0.0
 40
0.352778
 41
0.352778
  0
VERTEX
  8
0
 10
27.1129
 20
71.4947
 30
0.0
 40
0.352778
 41
0.352778
  0
VERTEX
  8
0
 10
27.3042
 20
72.1593
 30
0.0
 40
0.352778
 41
0.352778
  0
VERTEX
  8
0
 10
27.4619
 20
72.8339
 30
0.0
 40
0.352778
 41
0.352778
  0
VERTEX
  8
0
 10
27.5856
 20
73.5174
 30
0.0
 40
0.352778
 41
0.352778
  0
VERTEX
  8
0
 10
27.6744
 20
74.2085
 30
0.0
 40
0.352778
 41
0.352778
  0
VERTEX
  8
0
 10
27.7282
 20
74.906
 30
0.0
 40
0.352778
 41
0.352778
  0
VERTEX
  8
0
 10
27.7462
 20
75.4328
 30
0.0
 40
0.352778
 41
0.352778
  0
VERTEX
  8
0
 10
27.7462
 20
75.6085
 30
0.0
 40
0.352778
 41
0.352778
  0
VERTEX
  8
0
 10
27.7462
 20
81.5975
 30
0.0
 40
0.352778
 41
0.352778
  0
VERTEX
  8
0
 10
26.2462
 20
81.5975
 30
0.0
 40
0.352778
 41
0.352778
  0
SEQEND
 8
0
  0
POLYLINE
  8
0
 62
     0
 66
     1
 10
0
 20
0
 30
0.0
 70
     1
 40
25.4
 41
25.4
  0
VERTEX
  8
0
 10
13.0349
 20
66.6743
 30
0.0
 40
0.352778
 41
0.352778
  0
VERTEX
  8
0
 10
12.836
 20
66.6853
 30
0.0
 40
0.352778
 41
0.352778
  0
VERTEX
  8
0
 10
12.2403
 20
66.7346
 30
0.0
 40
0.352778
 41
0.352778
  0
VERTEX
  8
0
 10
11.45
 20
66.8282
 30
0.0
 40
0.352778
 41
0.352778
  0
VERTEX
  8
0
 10
10.665
 20
66.9546
 30
0.0
 40
0.352778
 41
0.352778
  0
VERTEX
  8
0
 10
9.88639
 20
67.1137
 30
0.0
 40
0.352778
 41
0.352778
  0
VERTEX
  8
0
 10
9.11507
 20
67.3054
 30
0.0
 40
0.352778
 41
0.352778
  0
VERTEX
  8
0
 10
8.35215
 20
67.5293
 30
0.0
 40
0.352778
 41
0.352778
  0
VERTEX
  8
0
 10
7.59858
 20
67.7853
 30
0.0
 40
0.352778
 41
0.352778
  0
VERTEX
  8
0
 10
7.03965
 20
67.9972
 30
0.0
 40
0.352778
 41
0.352778
  0
VERTEX
  8
0
 10
6.85553
 20
68.0729
 30
0.0
 40
0.352778
 41
0.352778
  0
VERTEX
  8
0
 10
6.80376
 20
68.0943
 30
0.0
 40
0.352778
 41
0.352778
  0
VERTEX
  8
0
 10
6.65343
 20
68.17
 30
0.0
 40
0.352778
 41
0.352778
  0
VERTEX
  8
0
 10
6.46436
 20
68.289
 30
0.0
 40
0.352778
 41
0.352778
  0
VERTEX
  8
0
 10
6.29004
 20
68.4288
 30
0.0
 40
0.352778
 41
0.352778
  0
VERTEX
  8
0
 10
6.16928
 20
68.546
 30
0.0
 40
0.352778
 41
0.352778
  0
VERTEX
  8
0
 10
6.13222
 20
68.5878
 30
0.0
 40
0.352778
 41
0.352778
  0
VERTEX
  8
0
 10
6.0154
 20
68.7199
 30
0.0
 40
0.352778
 41
0.352778
  0
VERTEX
  8
0
 10
5.68272
 20
69.1317
 30
0.0
 40
0.352778
 41
0.352778
  0
VERTEX
  8
0
 10
5.27175
 20
69.7022
 30
0.0
 40
0.352778
 41
0.352778
  0
VERTEX
  8
0
 10
4.90022
 20
70.2974
 30
0.0
 40
0.352778
 41
0.352778
  0
VERTEX
  8
0
 10
4.56928
 20
70.9153
 30
0.0
 40
0.352778
 41
0.352778
  0
VERTEX
  8
0
 10
4.27989
 20
71.5536
 30
0.0
 40
0.352778
 41
0.352778
  0
VERTEX
  8
0
 10
4.03304
 20
72.2104
 30
0.0
 40
0.352778
 41
0.352778
  0
VERTEX
  8
0
 10
3.82986
 20
72.8836
 30
0.0
 40
0.352778
 41
0.352778
  0
VERTEX
  8
0
 10
3.70514
 20
73.3981
 30
0.0
 40
0.352778
 41
0.352778
  0
VERTEX
  8
0
 10
3.67128
 20
73.571
 30
0.0
 40
0.352778
 41
0.352778
  0
VERTEX
  8
0
 10
11.8197
 20
73.571
 30
0.0
 40
0.352778
 41
0.352778
  0
VERTEX
  8
0
 10
11.8816
 20
73.5025
 30
0.0
 40
0.352778
 41
0.352778
  0
VERTEX
  8
0
 10
12.0842
 20
73.3119
 30
0.0
 40
0.352778
 41
0.352778
  0
VERTEX
  8
0
 10
12.3773
 20
73.0879
 30
0.0
 40
0.352778
 41
0.352778
  0
VERTEX
  8
0
 10
12.6953
 20
72.9011
 30
0.0
 40
0.352778
 41
0.352778
  0
VERTEX
  8
0
 10
12.9481
 20
72.7853
 30
0.0
 40
0.352778
 41
0.352778
  0
VERTEX
  8
0
 10
13.0349
 20
72.7536
 30
0.0
 40
0.352778
 41
0.352778
  0
VERTEX
  8
0
 10
13.0349
 20
66.6743
 30
0.0
 40
0.352778
 41
0.352778
  0
SEQEND
 8
0
  0
POLYLINE
  8
0
 62
     0
 66
     1
 10
0
 20
0
 30
0.0
 70
     1
 40
25.4
 41
25.4
  0
VERTEX
  8
0
 10
5.79124
 20
66.6732
 30
0.0
 40
0.352778
 41
0.352778
  0
VERTEX
  8
0
 10
5.13715
 20
67.3272
 30
0.0
 40
0.352778
 41
0.352778
  0
VERTEX
  8
0
 10
4.14139
 20
66.3314
 30
0.0
 40
0.352778
 41
0.352778
  0
VERTEX
  8
0
 10
4.19706
 20
66.2772
 30
0.0
 40
0.352778
 41
0.352778
  0
VERTEX
  8
0
 10
4.48996
 20
66.0226
 30
0.0
 40
0.352778
 41
0.352778
  0
VERTEX
  8
0
 10
4.80117
 20
65.7908
 30
0.0
 40
0.352778
 41
0.352778
  0
VERTEX
  8
0
 10
4.866
 20
65.7479
 30
0.0
 40
0.352778
 41
0.352778
  0
VERTEX
  8
0
 10
5.79124
 20
66.6732
 30
0.0
 40
0.352778
 41
0.352778
  0
SEQEND
 8
0
  0
POLYLINE
  8
0
 62
     0
 66
     1
 10
0
 20
0
 30
0.0
 70
     1
 40
25.4
 41
25.4
  0
VERTEX
  8
0
 10
22.4597
 20
66.7793
 30
0.0
 40
0.352778
 41
0.352778
  0
VERTEX
  8
0
 10
22.9017
 20
67.2213
 30
0.0
 40
0.352778
 41
0.352778
  0
VERTEX
  8
0
 10
23.8944
 20
66.2285
 30
0.0
 40
0.352778
 41
0.352778
  0
VERTEX
  8
0
 10
23.8557
 20
66.1931
 30
0.0
 40
0.352778
 41
0.352778
  0
VERTEX
  8
0
 10
23.6558
 20
66.0235
 30
0.0
 40
0.352778
 41
0.352778
  0
VERTEX
  8
0
 10
23.4476
 20
65.8643
 30
0.0
 40
0.352778
 41
0.352778
  0
VERTEX
  8
0
 10
23.4049
 20
65.834
 30
0.0
 40
0.352778
 41
0.352778
  0
VERTEX
  8
0
 10
22.4597
 20
66.7793
 30
0.0
 40
0.352778
 41
0.352778
  0
SEQEND
 8
0
  0
POLYLINE
  8
0
 62
     0
 66
     1
 10
0
 20
0
 30
0.0
 70
     1
 40
25.4
 41
25.4
  0
VERTEX
  8
0
 10
15.11
 20
66.6743
 30
0.0
 40
0.352778
 41
0.352778
  0
VERTEX
  8
0
 10
15.3087
 20
66.6853
 30
0.0
 40
0.352778
 41
0.352778
  0
VERTEX
  8
0
 10
15.9046
 20
66.7346
 30
0.0
 40
0.352778
 41
0.352778
  0
VERTEX
  8
0
 10
16.6949
 20
66.8282
 30
0.0
 40
0.352778
 41
0.352778
  0
VERTEX
  8
0
 10
17.4799
 20
66.9546
 30
0.0
 40
0.352778
 41
0.352778
  0
VERTEX
  8
0
 10
18.2585
 20
67.1137
 30
0.0
 40
0.352778
 41
0.352778
  0
VERTEX
  8
0
 10
19.0297
 20
67.3054
 30
0.0
 40
0.352778
 41
0.352778
  0
VERTEX
  8
0
 10
19.7926
 20
67.5293
 30
0.0
 40
0.352778
 41
0.352778
  0
VERTEX
  8
0
 10
20.5462
 20
67.7853
 30
0.0
 40
0.352778
 41
0.352778
  0
VERTEX
  8
0
 10
21.1051
 20
67.9972
 30
0.0
 40
0.352778
 41
0.352778
  0
VERTEX
  8
0
 10
21.2893
 20
68.0729
 30
0.0
 40
0.352778
 41
0.352778
  0
VERTEX
  8
0
 10
21.341
 20
68.0943
 30
0.0
 40
0.352778
 41
0.352778
  0
VERTEX
  8
0
 10
21.4914
 20
68.17
 30
0.0
 40
0.352778
 41
0.352778
  0
VERTEX
  8
0
 10
21.6806
 20
68.289
 30
0.0
 40
0.352778
 41
0.352778
  0
VERTEX
  8
0
 10
21.8549
 20
68.4288
 30
0.0
 40
0.352778
 41
0.352778
  0
VERTEX
  8
0
 10
21.9757
 20
68.546
 30
0.0
 40
0.352778
 41
0.352778
  0
VERTEX
  8
0
 10
22.0126
 20
68.5878
 30
0.0
 40
0.352778
 41
0.352778
  0
VERTEX
  8
0
 10
22.1294
 20
68.7199
 30
0.0
 40
0.352778
 41
0.352778
  0
VERTEX
  8
0
 10
22.4621
 20
69.1317
 30
0.0
 40
0.352778
 41
0.352778
  0
VERTEX
  8
0
 10
22.8731
 20
69.7022
 30
0.0
 40
0.352778
 41
0.352778
  0
VERTEX
  8
0
 10
23.2446
 20
70.2974
 30
0.0
 40
0.352778
 41
0.352778
  0
VERTEX
  8
0
 10
23.5756
 20
70.9153
 30
0.0
 40
0.352778
 41
0.352778
  0
VERTEX
  8
0
 10
23.865
 20
71.5536
 30
0.0
 40
0.352778
 41
0.352778
  0
VERTEX
  8
0
 10
24.1118
 20
72.2104
 30
0.0
 40
0.352778
 41
0.352778
  0
VERTEX
  8
0
 10
24.315
 20
72.8836
 30
0.0
 40
0.352778
 41
0.352778
  0
VERTEX
  8
0
 10
24.4397
 20
73.3981
 30
0.0
 40
0.352778
 41
0.352778
  0
VERTEX
  8
0
 10
24.4736
 20
73.571
 30
0.0
 40
0.352778
 41
0.352778
  0
VERTEX
  8
0
 10
16.3253
 20
73.571
 30
0.0
 40
0.352778
 41
0.352778
  0
VERTEX
  8
0
 10
16.2632
 20
73.5025
 30
0.0
 40
0.352778
 41
0.352778
  0
VERTEX
  8
0
 10
16.0606
 20
73.3119
 30
0.0
 40
0.352778
 41
0.352778
  0
VERTEX
  8
0
 10
15.7676
 20
73.0879
 30
0.0
 40
0.352778
 41
0.352778
  0
VERTEX
  8
0
 10
15.4496
 20
72.9011
 30
0.0
 40
0.352778
 41
0.352778
  0
VERTEX
  8
0
 10
15.1968
 20
72.7853
 30
0.0
 40
0.352778
 41
0.352778
  0
VERTEX
  8
0
 10
15.11
 20
72.7536
 30
0.0
 40
0.352778
 41
0.352778
  0
VERTEX
  8
0
 10
15.11
 20
66.6743
 30
0.0
 40
0.352778
 41
0.352778
  0
SEQEND
 8
0
  0
POLYLINE
  8
0
 62
     0
 66
     1
 10
0
 20
0
 30
0.0
 40
25.4
 41
25.4
  0
VERTEX
  8
0
 10
55.3163
 20
63.0011
 30
0.0
 40
0.352778
 41
0.352778
  0
VERTEX
  8
0
 10
55.3163
 20
83.8519
 30
0.0
 40
0.352778
 41
0.352778
  0
VERTEX
  8
0
 10
53.8163
 20
83.8519
 30
0.0
 40
0.352778
 41
0.352778
  0
VERTEX
  8
0
 10
53.8163
 20
84.7769
 30
0.0
 40
0.352778
 41
0.352778
  0
VERTEX
  8
0
 10
55.3163
 20
84.7769
 30
0.0
 40
0.352778
 41
0.352778
  0
VERTEX
  8
0
 10
55.3163
 20
90.766
 30
0.0
 40
0.352778
 41
0.352778
  0
VERTEX
  8
0
 10
55.3163
 20
90.9417
 30
0.0
 40
0.352778
 41
0.352778
  0
VERTEX
  8
0
 10
55.2982
 20
91.4685
 30
0.0
 40
0.352778
 41
0.352778
  0
VERTEX
  8
0
 10
55.2444
 20
92.166
 30
0.0
 40
0.352778
 41
0.352778
  0
VERTEX
  8
0
 10
55.1556
 20
92.8571
 30
0.0
 40
0.352778
 41
0.352778
  0
VERTEX
  8
0
 10
55.0319
 20
93.5406
 30
0.0
 40
0.352778
 41
0.352778
  0
VERTEX
  8
0
 10
54.8742
 20
94.2151
 30
0.0
 40
0.352778
 41
0.352778
  0
VERTEX
  8
0
 10
54.6828
 20
94.8797
 30
0.0
 40
0.352778
 41
0.352778
  0
VERTEX
  8
0
 10
54.4583
 20
95.5331
 30
0.0
 40
0.352778
 41
0.352778
  0
VERTEX
  8
0
 10
54.2015
 20
96.1737
 30
0.0
 40
0.352778
 41
0.352778
  0
VERTEX
  8
0
 10
53.9125
 20
96.8007
 30
0.0
 40
0.352778
 41
0.352778
  0
VERTEX
  8
0
 10
53.5921
 20
97.4126
 30
0.0
 40
0.352778
 41
0.352778
  0
VERTEX
  8
0
 10
53.2408
 20
98.0085
 30
0.0
 40
0.352778
 41
0.352778
  0
VERTEX
  8
0
 10
52.8592
 20
98.5865
 30
0.0
 40
0.352778
 41
0.352778
  0
VERTEX
  8
0
 10
52.4475
 20
99.1461
 30
0.0
 40
0.352778
 41
0.352778
  0
VERTEX
  8
0
 10
52.0065
 20
99.6856
 30
0.0
 40
0.352778
 41
0.352778
  0
VERTEX
  8
0
 10
51.5368
 20
100.204
 30
0.0
 40
0.352778
 41
0.352778
  0
VERTEX
  8
0
 10
51.1664
 20
100.579
 30
0.0
 40
0.352778
 41
0.352778
  0
VERTEX
  8
0
 10
51.0389
 20
100.7
 30
0.0
 40
0.352778
 41
0.352778
  0
VERTEX
  8
0
 10
50.7771
 20
100.823
 30
0.0
 40
0.352778
 41
0.352778
  0
VERTEX
  8
0
 10
49.9785
 20
101.166
 30
0.0
 40
0.352778
 41
0.352778
  0
VERTEX
  8
0
 10
48.8975
 20
101.575
 30
0.0
 40
0.352778
 41
0.352778
  0
VERTEX
  8
0
 10
47.7979
 20
101.926
 30
0.0
 40
0.352778
 41
0.352778
  0
VERTEX
  8
0
 10
46.6824
 20
102.219
 30
0.0
 40
0.352778
 41
0.352778
  0
VERTEX
  8
0
 10
45.5528
 20
102.454
 30
0.0
 40
0.352778
 41
0.352778
  0
VERTEX
  8
0
 10
44.4119
 20
102.629
 30
0.0
 40
0.352778
 41
0.352778
  0
VERTEX
  8
0
 10
43.2618
 20
102.744
 30
0.0
 40
0.352778
 41
0.352778
  0
VERTEX
  8
0
 10
42.3943
 20
102.793
 30
0.0
 40
0.352778
 41
0.352778
  0
VERTEX
  8
0
 10
42.1049
 20
102.799
 30
0.0
 40
0.352778
 41
0.352778
  0
VERTEX
  8
0
 10
42.1049
 20
101.43
 30
0.0
 40
0.352778
 41
0.352778
  0
VERTEX
  8
0
 10
42.0278
 20
101.433
 30
0.0
 40
0.352778
 41
0.352778
  0
VERTEX
  8
0
 10
41.2569
 20
101.433
 30
0.0
 40
0.352778
 41
0.352778
  0
VERTEX
  8
0
 10
41.1799
 20
101.43
 30
0.0
 40
0.352778
 41
0.352778
  0
VERTEX
  8
0
 10
41.1799
 20
102.799
 30
0.0
 40
0.352778
 41
0.352778
  0
VERTEX
  8
0
 10
40.8904
 20
102.793
 30
0.0
 40
0.352778
 41
0.352778
  0
VERTEX
  8
0
 10
40.0229
 20
102.744
 30
0.0
 40
0.352778
 41
0.352778
  0
VERTEX
  8
0
 10
38.8728
 20
102.629
 30
0.0
 40
0.352778
 41
0.352778
  0
VERTEX
  8
0
 10
37.7319
 20
102.454
 30
0.0
 40
0.352778
 41
0.352778
  0
VERTEX
  8
0
 10
36.6025
 20
102.219
 30
0.0
 40
0.352778
 41
0.352778
  0
VERTEX
  8
0
 10
35.4868
 20
101.926
 30
0.0
 40
0.352778
 41
0.352778
  0
VERTEX
  8
0
 10
34.3872
 20
101.575
 30
0.0
 40
0.352778
 41
0.352778
  0
VERTEX
  8
0
 10
33.3063
 20
101.166
 30
0.0
 40
0.352778
 41
0.352778
  0
VERTEX
  8
0
 10
32.5078
 20
100.823
 30
0.0
 40
0.352778
 41
0.352778
  0
VERTEX
  8
0
 10
32.246
 20
100.7
 30
0.0
 40
0.352778
 41
0.352778
  0
VERTEX
  8
0
 10
32.1183
 20
100.579
 30
0.0
 40
0.352778
 41
0.352778
  0
VERTEX
  8
0
 10
31.7479
 20
100.204
 30
0.0
 40
0.352778
 41
0.352778
  0
VERTEX
  8
0
 10
31.2782
 20
99.6856
 30
0.0
 40
0.352778
 41
0.352778
  0
VERTEX
  8
0
 10
30.8372
 20
99.1461
 30
0.0
 40
0.352778
 41
0.352778
  0
VERTEX
  8
0
 10
30.4257
 20
98.5865
 30
0.0
 40
0.352778
 41
0.352778
  0
VERTEX
  8
0
 10
30.0439
 20
98.0085
 30
0.0
 40
0.352778
 41
0.352778
  0
VERTEX
  8
0
 10
29.6926
 20
97.4126
 30
0.0
 40
0.352778
 41
0.352778
  0
VERTEX
  8
0
 10
29.3722
 20
96.8007
 30
0.0
 40
0.352778
 41
0.352778
  0
VERTEX
  8
0
 10
29.0833
 20
96.1737
 30
0.0
 40
0.352778
 41
0.352778
  0
VERTEX
  8
0
 10
28.8264
 20
95.5331
 30
0.0
 40
0.352778
 41
0.352778
  0
VERTEX
  8
0
 10
28.6019
 20
94.8797
 30
0.0
 40
0.352778
 41
0.352778
  0
VERTEX
  8
0
 10
28.4107
 20
94.2151
 30
0.0
 40
0.352778
 41
0.352778
  0
VERTEX
  8
0
 10
28.2529
 20
93.5406
 30
0.0
 40
0.352778
 41
0.352778
  0
VERTEX
  8
0
 10
28.1293
 20
92.8571
 30
0.0
 40
0.352778
 41
0.352778
  0
VERTEX
  8
0
 10
28.0403
 20
92.166
 30
0.0
 40
0.352778
 41
0.352778
  0
VERTEX
  8
0
 10
27.9865
 20
91.4685
 30
0.0
 40
0.352778
 41
0.352778
  0
VERTEX
  8
0
 10
27.9685
 20
90.9417
 30
0.0
 40
0.352778
 41
0.352778
  0
VERTEX
  8
0
 10
27.9685
 20
90.766
 30
0.0
 40
0.352778
 41
0.352778
  0
VERTEX
  8
0
 10
27.9685
 20
84.7769
 30
0.0
 40
0.352778
 41
0.352778
  0
VERTEX
  8
0
 10
29.4685
 20
84.7769
 30
0.0
 40
0.352778
 41
0.352778
  0
VERTEX
  8
0
 10
29.4685
 20
83.8519
 30
0.0
 40
0.352778
 41
0.352778
  0
VERTEX
  8
0
 10
27.9685
 20
83.8519
 30
0.0
 40
0.352778
 41
0.352778
  0
VERTEX
  8
0
 10
27.9685
 20
63.0011
 30
0.0
 40
0.352778
 41
0.352778
  0
SEQEND
 8
0
  0
POLYLINE
  8
0
 62
     0
 66
     1
 10
0
 20
0
 30
0.0
 70
     1
 40
25.4
 41
25.4
  0
VERTEX
  8
0
 10
42.6799
 20
99.7001
 30
0.0
 40
0.352778
 41
0.352778
  0
VERTEX
  8
0
 10
42.8788
 20
99.6893
 30
0.0
 40
0.352778
 41
0.352778
  0
VERTEX
  8
0
 10
43.4744
 20
99.6399
 30
0.0
 40
0.352778
 41
0.352778
  0
VERTEX
  8
0
 10
44.2647
 20
99.5464
 30
0.0
 40
0.352778
 41
0.352778
  0
VERTEX
  8
0
 10
45.0497
 20
99.4199
 30
0.0
 40
0.352778
 41
0.352778
  0
VERTEX
  8
0
 10
45.8283
 20
99.2607
 30
0.0
 40
0.352778
 41
0.352778
  0
VERTEX
  8
0
 10
46.5997
 20
99.069
 30
0.0
 40
0.352778
 41
0.352778
  0
VERTEX
  8
0
 10
47.3626
 20
98.8451
 30
0.0
 40
0.352778
 41
0.352778
  0
VERTEX
  8
0
 10
48.1163
 20
98.5892
 30
0.0
 40
0.352778
 41
0.352778
  0
VERTEX
  8
0
 10
48.6751
 20
98.3772
 30
0.0
 40
0.352778
 41
0.352778
  0
VERTEX
  8
0
 10
48.8593
 20
98.3014
 30
0.0
 40
0.352778
 41
0.352778
  0
VERTEX
  8
0
 10
48.911
 20
98.2801
 30
0.0
 40
0.352778
 41
0.352778
  0
VERTEX
  8
0
 10
49.0614
 20
98.2044
 30
0.0
 40
0.352778
 41
0.352778
  0
VERTEX
  8
0
 10
49.2504
 20
98.0854
 30
0.0
 40
0.352778
 41
0.352778
  0
VERTEX
  8
0
 10
49.4247
 20
97.9457
 30
0.0
 40
0.352778
 41
0.352778
  0
VERTEX
  8
0
 10
49.5456
 20
97.8285
 30
0.0
 40
0.352778
 41
0.352778
  0
VERTEX
  8
0
 10
49.5826
 20
97.7865
 30
0.0
 40
0.352778
 41
0.352778
  0
VERTEX
  8
0
 10
49.6994
 20
97.6546
 30
0.0
 40
0.352778
 41
0.352778
  0
VERTEX
  8
0
 10
50.0321
 20
97.2428
 30
0.0
 40
0.352778
 41
0.352778
  0
VERTEX
  8
0
 10
50.4431
 20
96.6722
 30
0.0
 40
0.352778
 41
0.352778
  0
VERTEX
  8
0
 10
50.8146
 20
96.0771
 30
0.0
 40
0.352778
 41
0.352778
  0
VERTEX
  8
0
 10
51.1456
 20
95.4592
 30
0.0
 40
0.352778
 41
0.352778
  0
VERTEX
  8
0
 10
51.4349
 20
94.8208
 30
0.0
 40
0.352778
 41
0.352778
  0
VERTEX
  8
0
 10
51.6818
 20
94.164
 30
0.0
 40
0.352778
 41
0.352778
  0
VERTEX
  8
0
 10
51.8849
 20
93.4908
 30
0.0
 40
0.352778
 41
0.352778
  0
VERTEX
  8
0
 10
52.0097
 20
92.9764
 30
0.0
 40
0.352778
 41
0.352778
  0
VERTEX
  8
0
 10
52.0436
 20
92.8035
 30
0.0
 40
0.352778
 41
0.352778
  0
VERTEX
  8
0
 10
43.8951
 20
92.8035
 30
0.0
 40
0.352778
 41
0.352778
  0
VERTEX
  8
0
 10
43.8332
 20
92.8719
 30
0.0
 40
0.352778
 41
0.352778
  0
VERTEX
  8
0
 10
43.6306
 20
93.0625
 30
0.0
 40
0.352778
 41
0.352778
  0
VERTEX
  8
0
 10
43.3375
 20
93.2865
 30
0.0
 40
0.352778
 41
0.352778
  0
VERTEX
  8
0
 10
43.0194
 20
93.4733
 30
0.0
 40
0.352778
 41
0.352778
  0
VERTEX
  8
0
 10
42.7667
 20
93.5893
 30
0.0
 40
0.352778
 41
0.352778
  0
VERTEX
  8
0
 10
42.6799
 20
93.6208
 30
0.0
 40
0.352778
 41
0.352778
  0
VERTEX
  8
0
 10
42.6799
 20
99.7001
 30
0.0
 40
0.352778
 41
0.352778
  0
SEQEND
 8
0
  0
POLYLINE
  8
0
 62
     0
 66
     1
 10
0
 20
0
 30
0.0
 70
     1
 40
25.4
 41
25.4
  0
VERTEX
  8
0
 10
50.8489
 20
100.627
 30
0.0
 40
0.352778
 41
0.352778
  0
VERTEX
  8
0
 10
50.9136
 20
100.584
 30
0.0
 40
0.352778
 41
0.352778
  0
VERTEX
  8
0
 10
51.2249
 20
100.352
 30
0.0
 40
0.352778
 41
0.352778
  0
VERTEX
  8
0
 10
51.5178
 20
100.097
 30
0.0
 40
0.352778
 41
0.352778
  0
VERTEX
  8
0
 10
51.5735
 20
100.043
 30
0.0
 40
0.352778
 41
0.352778
  0
VERTEX
  8
0
 10
50.5776
 20
99.0471
 30
0.0
 40
0.352778
 41
0.352778
  0
VERTEX
  8
0
 10
49.9236
 20
99.7013
 30
0.0
 40
0.352778
 41
0.352778
  0
VERTEX
  8
0
 10
50.8489
 20
100.627
 30
0.0
 40
0.352778
 41
0.352778
  0
SEQEND
 8
0
  0
POLYLINE
  8
0
 62
     0
 66
     1
 10
0
 20
0
 30
0.0
 70
     1
 40
25.4
 41
25.4
  0
VERTEX
  8
0
 10
32.3099
 20
100.54
 30
0.0
 40
0.352778
 41
0.352778
  0
VERTEX
  8
0
 10
32.2671
 20
100.51
 30
0.0
 40
0.352778
 41
0.352778
  0
VERTEX
  8
0
 10
32.0589
 20
100.351
 30
0.0
 40
0.352778
 41
0.352778
  0
VERTEX
  8
0
 10
31.859
 20
100.181
 30
0.0
 40
0.352778
 41
0.352778
  0
VERTEX
  8
0
 10
31.8204
 20
100.146
 30
0.0
 40
0.352778
 41
0.352778
  0
VERTEX
  8
0
 10
32.8132
 20
99.1532
 30
0.0
 40
0.352778
 41
0.352778
  0
VERTEX
  8
0
 10
33.2551
 20
99.5951
 30
0.0
 40
0.352778
 41
0.352778
  0
VERTEX
  8
0
 10
32.3099
 20
100.54
 30
0.0
 40
0.352778
 41
0.352778
  0
SEQEND
 8
0
  0
POLYLINE
  8
0
 62
     0
 66
     1
 10
0
 20
0
 30
0.0
 70
     1
 40
25.4
 41
25.4
  0
VERTEX
  8
0
 10
31.2413
 20
92.8035
 30
0.0
 40
0.352778
 41
0.352778
  0
VERTEX
  8
0
 10
31.275
 20
92.9764
 30
0.0
 40
0.352778
 41
0.352778
  0
VERTEX
  8
0
 10
31.3999
 20
93.491
 30
0.0
 40
0.352778
 41
0.352778
  0
VERTEX
  8
0
 10
31.6029
 20
94.164
 30
0.0
 40
0.352778
 41
0.352778
  0
VERTEX
  8
0
 10
31.8499
 20
94.821
 30
0.0
 40
0.352778
 41
0.352778
  0
VERTEX
  8
0
 10
32.1392
 20
95.4593
 30
0.0
 40
0.352778
 41
0.352778
  0
VERTEX
  8
0
 10
32.4701
 20
96.0771
 30
0.0
 40
0.352778
 41
0.352778
  0
VERTEX
  8
0
 10
32.8417
 20
96.6722
 30
0.0
 40
0.352778
 41
0.352778
  0
VERTEX
  8
0
 10
33.2526
 20
97.2428
 30
0.0
 40
0.352778
 41
0.352778
  0
VERTEX
  8
0
 10
33.5854
 20
97.6546
 30
0.0
 40
0.352778
 41
0.352778
  0
VERTEX
  8
0
 10
33.7021
 20
97.7865
 30
0.0
 40
0.352778
 41
0.352778
  0
VERTEX
  8
0
 10
33.7392
 20
97.8285
 30
0.0
 40
0.352778
 41
0.352778
  0
VERTEX
  8
0
 10
33.86
 20
97.9457
 30
0.0
 40
0.352778
 41
0.352778
  0
VERTEX
  8
0
 10
34.0343
 20
98.0854
 30
0.0
 40
0.352778
 41
0.352778
  0
VERTEX
  8
0
 10
34.2235
 20
98.2044
 30
0.0
 40
0.352778
 41
0.352778
  0
VERTEX
  8
0
 10
34.3737
 20
98.2801
 30
0.0
 40
0.352778
 41
0.352778
  0
VERTEX
  8
0
 10
34.4256
 20
98.3014
 30
0.0
 40
0.352778
 41
0.352778
  0
VERTEX
  8
0
 10
34.6096
 20
98.3772
 30
0.0
 40
0.352778
 41
0.352778
  0
VERTEX
  8
0
 10
35.1686
 20
98.5892
 30
0.0
 40
0.352778
 41
0.352778
  0
VERTEX
  8
0
 10
35.9221
 20
98.8451
 30
0.0
 40
0.352778
 41
0.352778
  0
VERTEX
  8
0
 10
36.685
 20
99.069
 30
0.0
 40
0.352778
 41
0.352778
  0
VERTEX
  8
0
 10
37.4564
 20
99.2607
 30
0.0
 40
0.352778
 41
0.352778
  0
VERTEX
  8
0
 10
38.235
 20
99.4199
 30
0.0
 40
0.352778
 41
0.352778
  0
VERTEX
  8
0
 10
39.02
 20
99.5464
 30
0.0
 40
0.352778
 41
0.352778
  0
VERTEX
  8
0
 10
39.8103
 20
99.6399
 30
0.0
 40
0.352778
 41
0.352778
  0
VERTEX
  8
0
 10
40.406
 20
99.6893
 30
0.0
 40
0.352778
 41
0.352778
  0
VERTEX
  8
0
 10
40.6049
 20
99.7001
 30
0.0
 40
0.352778
 41
0.352778
  0
VERTEX
  8
0
 10
40.6049
 20
93.6208
 30
0.0
 40
0.352778
 41
0.352778
  0
VERTEX
  8
0
 10
40.5181
 20
93.5893
 30
0.0
 40
0.352778
 41
0.352778
  0
VERTEX
  8
0
 10
40.2653
 20
93.4733
 30
0.0
 40
0.352778
 41
0.352778
  0
VERTEX
  8
0
 10
39.9472
 20
93.2865
 30
0.0
 40
0.352778
 41
0.352778
  0
VERTEX
  8
0
 10
39.6542
 20
93.0625
 30
0.0
 40
0.352778
 41
0.352778
  0
VERTEX
  8
0
 10
39.4515
 20
92.8719
 30
0.0
 40
0.352778
 41
0.352778
  0
VERTEX
  8
0
 10
39.3896
 20
92.8035
 30
0.0
 40
0.352778
 41
0.352778
  0
VERTEX
  8
0
 10
31.2413
 20
92.8035
 30
0.0
 40
0.352778
 41
0.352778
  0
SEQEND
 8
0
  0
POLYLINE
  8
0
 62
     0
 66
     1
 10
0
 20
0
 30
0.0
 40
25.4
 41
25.4
  0
VERTEX
  8
0
 10
29.7751
 20
129.085
 30
0.0
 40
0.352778
 41
0.352778
  0
VERTEX
  8
0
 10
29.9838
 20
129.085
 30
0.0
 40
0.352778
 41
0.352778
  0
VERTEX
  8
0
 10
30.6096
 20
129.116
 30
0.0
 40
0.352778
 41
0.352778
  0
VERTEX
  8
0
 10
31.436
 20
129.21
 30
0.0
 40
0.352778
 41
0.352778
  0
VERTEX
  8
0
 10
32.2508
 20
129.364
 30
0.0
 40
0.352778
 41
0.352778
  0
VERTEX
  8
0
 10
33.0508
 20
129.579
 30
0.0
 40
0.352778
 41
0.352778
  0
VERTEX
  8
0
 10
33.8326
 20
129.852
 30
0.0
 40
0.352778
 41
0.352778
  0
VERTEX
  8
0
 10
34.5928
 20
130.184
 30
0.0
 40
0.352778
 41
0.352778
  0
VERTEX
  8
0
 10
35.3282
 20
130.572
 30
0.0
 40
0.352778
 41
0.352778
  0
VERTEX
  8
0
 10
35.8629
 20
130.899
 30
0.0
 40
0.352778
 41
0.352778
  0
VERTEX
  8
0
 10
36.0353
 20
131.017
 30
0.0
 40
0.352778
 41
0.352778
  0
VERTEX
  8
0
 10
36.2076
 20
131.134
 30
0.0
 40
0.352778
 41
0.352778
  0
VERTEX
  8
0
 10
36.7069
 20
131.513
 30
0.0
 40
0.352778
 41
0.352778
  0
VERTEX
  8
0
 10
37.3369
 20
132.056
 30
0.0
 40
0.352778
 41
0.352778
  0
VERTEX
  8
0
 10
37.9231
 20
132.643
 30
0.0
 40
0.352778
 41
0.352778
  0
VERTEX
  8
0
 10
38.4629
 20
133.271
 30
0.0
 40
0.352778
 41
0.352778
  0
VERTEX
  8
0
 10
38.9546
 20
133.937
 30
0.0
 40
0.352778
 41
0.352778
  0
VERTEX
  8
0
 10
39.3957
 20
134.639
 30
0.0
 40
0.352778
 41
0.352778
  0
VERTEX
  8
0
 10
39.7843
 20
135.375
 30
0.0
 40
0.352778
 41
0.352778
  0
VERTEX
  8
0
 10
40.0419
 20
135.946
 30
0.0
 40
0.352778
 41
0.352778
  0
VERTEX
  8
0
 10
40.1181
 20
136.14
 30
0.0
 40
0.352778
 41
0.352778
  0
VERTEX
  8
0
 10
40.246
 20
136.467
 30
0.0
 40
0.352778
 41
0.352778
  0
VERTEX
  8
0
 10
40.5994
 20
137.459
 30
0.0
 40
0.352778
 41
0.352778
  0
VERTEX
  8
0
 10
41.0181
 20
138.796
 30
0.0
 40
0.352778
 41
0.352778
  0
VERTEX
  8
0
 10
41.3733
 20
140.15
 30
0.0
 40
0.352778
 41
0.352778
  0
VERTEX
  8
0
 10
41.665
 20
141.518
 30
0.0
 40
0.352778
 41
0.352778
  0
VERTEX
  8
0
 10
41.8926
 20
142.899
 30
0.0
 40
0.352778
 41
0.352778
  0
VERTEX
  8
0
 10
42.0556
 20
144.289
 30
0.0
 40
0.352778
 41
0.352778
  0
VERTEX
  8
0
 10
42.1538
 20
145.686
 30
0.0
 40
0.352778
 41
0.352778
  0
VERTEX
  8
0
 10
42.1865
 20
146.739
 30
0.0
 40
0.352778
 41
0.352778
  0
VERTEX
  8
0
 10
42.1865
 20
147.09
 30
0.0
 40
0.352778
 41
0.352778
  0
VERTEX
  8
0
 10
2.18138
 20
147.09
 30
0.0
 40
0.352778
 41
0.352778
  0
SEQEND
 8
0
  0
POLYLINE
  8
0
 62
     0
 66
     1
 10
0
 20
0
 30
0.0
 40
25.4
 41
25.4
  0
VERTEX
  8
0
 10
2.18138
 20
165.094
 30
0.0
 40
0.352778
 41
0.352778
  0
VERTEX
  8
0
 10
29.7751
 20
165.094
 30
0.0
 40
0.352778
 41
0.352778
  0
VERTEX
  8
0
 10
29.9838
 20
165.094
 30
0.0
 40
0.352778
 41
0.352778
  0
VERTEX
  8
0
 10
30.6096
 20
165.064
 30
0.0
 40
0.352778
 41
0.352778
  0
VERTEX
  8
0
 10
31.436
 20
164.969
 30
0.0
 40
0.352778
 41
0.352778
  0
VERTEX
  8
0
 10
32.2508
 20
164.815
 30
0.0
 40
0.352778
 41
0.352778
  0
VERTEX
  8
0
 10
33.0508
 20
164.601
 30
0.0
 40
0.352778
 41
0.352778
  0
VERTEX
  8
0
 10
33.8326
 20
164.328
 30
0.0
 40
0.352778
 41
0.352778
  0
VERTEX
  8
0
 10
34.5928
 20
163.996
 30
0.0
 40
0.352778
 41
0.352778
  0
VERTEX
  8
0
 10
35.3282
 20
163.607
 30
0.0
 40
0.352778
 41
0.352778
  0
VERTEX
  8
0
 10
35.8629
 20
163.281
 30
0.0
 40
0.352778
 41
0.352778
  0
VERTEX
  8
0
 10
36.0353
 20
163.163
 30
0.0
 40
0.352778
 41
0.352778
  0
VERTEX
  8
0
 10
36.2076
 20
163.046
 30
0.0
 40
0.352778
 41
0.352778
  0
VERTEX
  8
0
 10
36.7069
 20
162.667
 30
0.0
 40
0.352778
 41
0.352778
  0
VERTEX
  8
0
 10
37.3369
 20
162.124
 30
0.0
 40
0.352778
 41
0.352778
  0
VERTEX
  8
0
 10
37.9231
 20
161.538
 30
0.0
 40
0.352778
 41
0.352778
  0
VERTEX
  8
0
 10
38.4629
 20
160.908
 30
0.0
 40
0.352778
 41
0.352778
  0
VERTEX
  8
0
 10
38.9546
 20
160.243
 30
0.0
 40
0.352778
 41
0.352778
  0
VERTEX
  8
0
 10
39.3957
 20
159.54
 30
0.0
 40
0.352778
 41
0.352778
  0
VERTEX
  8
0
 10
39.7843
 20
158.806
 30
0.0
 40
0.352778
 41
0.352778
  0
VERTEX
  8
0
 10
40.0419
 20
158.233
 30
0.0
 40
0.352778
 41
0.352778
  0
VERTEX
  8
0
 10
40.1181
 20
158.039
 30
0.0
 40
0.352778
 41
0.352778
  0
VERTEX
  8
0
 10
40.246
 20
157.712
 30
0.0
 40
0.352778
 41
0.352778
  0
VERTEX
  8
0
 10
40.5994
 20
156.721
 30
0.0
 40
0.352778
 41
0.352778
  0
VERTEX
  8
0
 10
41.0181
 20
155.383
 30
0.0
 40
0.352778
 41
0.352778
  0
VERTEX
  8
0
 10
41.3733
 20
154.029
 30
0.0
 40
0.352778
 41
0.352778
  0
VERTEX
  8
0
 10
41.665
 20
152.661
 30
0.0
 40
0.352778
 41
0.352778
  0
VERTEX
  8
0
 10
41.8926
 20
151.281
 30
0.0
 40
0.352778
 41
0.352778
  0
VERTEX
  8
0
 10
42.0556
 20
149.89
 30
0.0
 40
0.352778
 41
0.352778
  0
VERTEX
  8
0
 10
42.1538
 20
148.493
 30
0.0
 40
0.352778
 41
0.352778
  0
VERTEX
  8
0
 10
42.1865
 20
147.44
 30
0.0
 40
0.352778
 41
0.352778
  0
VERTEX
  8
0
 10
42.1865
 20
147.09
 30
0.0
 40
0.352778
 41
0.352778
  0
SEQEND
 8
0
  0
POLYLINE
  8
0
 62
     0
 66
     1
 10
0
 20
0
 30
0.0
 70
     1
 40
25.4
 41
25.4
  0
VERTEX
  8
0
 10
84.0596
 20
135.877
 30
0.0
 40
0.352778
 41
0.352778
  0
VERTEX
  8
0
 10
84.0596
 20
134.377
 30
0.0
 40
0.352778
 41
0.352778
  0
VERTEX
  8
0
 10
104.91
 20
134.377
 30
0.0
 40
0.352778
 41
0.352778
  0
VERTEX
  8
0
 10
104.91
 20
140.089
 30
0.0
 40
0.352778
 41
0.352778
  0
VERTEX
  8
0
 10
97.8353
 20
140.089
 30
0.0
 40
0.352778
 41
0.352778
  0
VERTEX
  8
0
 10
97.8353
 20
137.452
 30
0.0
 40
0.352778
 41
0.352778
  0
VERTEX
  8
0
 10
77.1831
 20
137.452
 30
0.0
 40
0.352778
 41
0.352778
  0
VERTEX
  8
0
 10
77.1831
 20
158.65
 30
0.0
 40
0.352778
 41
0.352778
  0
VERTEX
  8
0
 10
97.8353
 20
158.65
 30
0.0
 40
0.352778
 41
0.352778
  0
VERTEX
  8
0
 10
97.8353
 20
156.014
 30
0.0
 40
0.352778
 41
0.352778
  0
VERTEX
  8
0
 10
104.91
 20
156.014
 30
0.0
 40
0.352778
 41
0.352778
  0
VERTEX
  8
0
 10
104.91
 20
161.725
 30
0.0
 40
0.352778
 41
0.352778
  0
VERTEX
  8
0
 10
84.0596
 20
161.725
 30
0.0
 40
0.352778
 41
0.352778
  0
VERTEX
  8
0
 10
84.0596
 20
160.225
 30
0.0
 40
0.352778
 41
0.352778
  0
VERTEX
  8
0
 10
83.1346
 20
160.225
 30
0.0
 40
0.352778
 41
0.352778
  0
VERTEX
  8
0
 10
83.1346
 20
161.725
 30
0.0
 40
0.352778
 41
0.352778
  0
VERTEX
  8
0
 10
77.1456
 20
161.725
 30
0.0
 40
0.352778
 41
0.352778
  0
VERTEX
  8
0
 10
76.9699
 20
161.725
 30
0.0
 40
0.352778
 41
0.352778
  0
VERTEX
  8
0
 10
76.4429
 20
161.707
 30
0.0
 40
0.352778
 41
0.352778
  0
VERTEX
  8
0
 10
75.7456
 20
161.653
 30
0.0
 40
0.352778
 41
0.352778
  0
VERTEX
  8
0
 10
75.0544
 20
161.564
 30
0.0
 40
0.352778
 41
0.352778
  0
VERTEX
  8
0
 10
74.371
 20
161.44
 30
0.0
 40
0.352778
 41
0.352778
  0
VERTEX
  8
0
 10
73.6962
 20
161.283
 30
0.0
 40
0.352778
 41
0.352778
  0
VERTEX
  8
0
 10
73.0317
 20
161.092
 30
0.0
 40
0.352778
 41
0.352778
  0
VERTEX
  8
0
 10
72.3785
 20
160.867
 30
0.0
 40
0.352778
 41
0.352778
  0
VERTEX
  8
0
 10
71.7376
 20
160.61
 30
0.0
 40
0.352778
 41
0.352778
  0
VERTEX
  8
0
 10
71.1107
 20
160.321
 30
0.0
 40
0.352778
 41
0.352778
  0
VERTEX
  8
0
 10
70.4988
 20
160.001
 30
0.0
 40
0.352778
 41
0.352778
  0
VERTEX
  8
0
 10
69.9031
 20
159.65
 30
0.0
 40
0.352778
 41
0.352778
  0
VERTEX
  8
0
 10
69.3249
 20
159.268
 30
0.0
 40
0.352778
 41
0.352778
  0
VERTEX
  8
0
 10
68.7654
 20
158.856
 30
0.0
 40
0.352778
 41
0.352778
  0
VERTEX
  8
0
 10
68.2258
 20
158.415
 30
0.0
 40
0.352778
 41
0.352778
  0
VERTEX
  8
0
 10
67.7075
 20
157.946
 30
0.0
 40
0.352778
 41
0.352778
  0
VERTEX
  8
0
 10
67.3324
 20
157.575
 30
0.0
 40
0.352778
 41
0.352778
  0
VERTEX
  8
0
 10
67.2117
 20
157.447
 30
0.0
 40
0.352778
 41
0.352778
  0
VERTEX
  8
0
 10
67.0882
 20
157.186
 30
0.0
 40
0.352778
 41
0.352778
  0
VERTEX
  8
0
 10
66.7454
 20
156.388
 30
0.0
 40
0.352778
 41
0.352778
  0
VERTEX
  8
0
 10
66.3364
 20
155.306
 30
0.0
 40
0.352778
 41
0.352778
  0
VERTEX
  8
0
 10
65.9851
 20
154.207
 30
0.0
 40
0.352778
 41
0.352778
  0
VERTEX
  8
0
 10
65.6919
 20
153.09
 30
0.0
 40
0.352778
 41
0.352778
  0
VERTEX
  8
0
 10
65.4576
 20
151.961
 30
0.0
 40
0.352778
 41
0.352778
  0
VERTEX
  8
0
 10
65.2826
 20
150.821
 30
0.0
 40
0.352778
 41
0.352778
  0
VERTEX
  8
0
 10
65.1675
 20
149.671
 30
0.0
 40
0.352778
 41
0.352778
  0
VERTEX
  8
0
 10
65.1189
 20
148.803
 30
0.0
 40
0.352778
 41
0.352778
  0
VERTEX
  8
0
 10
65.1129
 20
148.514
 30
0.0
 40
0.352778
 41
0.352778
  0
VERTEX
  8
0
 10
66.4817
 20
148.514
 30
0.0
 40
0.352778
 41
0.352778
  0
VERTEX
  8
0
 10
66.4783
 20
148.436
 30
0.0
 40
0.352778
 41
0.352778
  0
VERTEX
  8
0
 10
66.4783
 20
147.665
 30
0.0
 40
0.352778
 41
0.352778
  0
VERTEX
  8
0
 10
66.4817
 20
147.589
 30
0.0
 40
0.352778
 41
0.352778
  0
VERTEX
  8
0
 10
65.1129
 20
147.589
 30
0.0
 40
0.352778
 41
0.352778
  0
VERTEX
  8
0
 10
65.1189
 20
147.299
 30
0.0
 40
0.352778
 41
0.352778
  0
VERTEX
  8
0
 10
65.1675
 20
146.432
 30
0.0
 40
0.352778
 41
0.352778
  0
VERTEX
  8
0
 10
65.2826
 20
145.282
 30
0.0
 40
0.352778
 41
0.352778
  0
VERTEX
  8
0
 10
65.4576
 20
144.14
 30
0.0
 40
0.352778
 41
0.352778
  0
VERTEX
  8
0
 10
65.6919
 20
143.011
 30
0.0
 40
0.352778
 41
0.352778
  0
VERTEX
  8
0
 10
65.9851
 20
141.896
 30
0.0
 40
0.352778
 41
0.352778
  0
VERTEX
  8
0
 10
66.3364
 20
140.796
 30
0.0
 40
0.352778
 41
0.352778
  0
VERTEX
  8
0
 10
66.7454
 20
139.715
 30
0.0
 40
0.352778
 41
0.352778
  0
VERTEX
  8
0
 10
67.0882
 20
138.917
 30
0.0
 40
0.352778
 41
0.352778
  0
VERTEX
  8
0
 10
67.2117
 20
138.654
 30
0.0
 40
0.352778
 41
0.352778
  0
VERTEX
  8
0
 10
67.3324
 20
138.527
 30
0.0
 40
0.352778
 41
0.352778
  0
VERTEX
  8
0
 10
67.7075
 20
138.157
 30
0.0
 40
0.352778
 41
0.352778
  0
VERTEX
  8
0
 10
68.2258
 20
137.687
 30
0.0
 40
0.352778
 41
0.352778
  0
VERTEX
  8
0
 10
68.7654
 20
137.246
 30
0.0
 40
0.352778
 41
0.352778
  0
VERTEX
  8
0
 10
69.3249
 20
136.834
 30
0.0
 40
0.352778
 41
0.352778
  0
VERTEX
  8
0
 10
69.9031
 20
136.453
 30
0.0
 40
0.352778
 41
0.352778
  0
VERTEX
  8
0
 10
70.4988
 20
136.101
 30
0.0
 40
0.352778
 41
0.352778
  0
VERTEX
  8
0
 10
71.1107
 20
135.781
 30
0.0
 40
0.352778
 41
0.352778
  0
VERTEX
  8
0
 10
71.7376
 20
135.492
 30
0.0
 40
0.352778
 41
0.352778
  0
VERTEX
  8
0
 10
72.3785
 20
135.235
 30
0.0
 40
0.352778
 41
0.352778
  0
VERTEX
  8
0
 10
73.0317
 20
135.011
 30
0.0
 40
0.352778
 41
0.352778
  0
VERTEX
  8
0
 10
73.6962
 20
134.819
 30
0.0
 40
0.352778
 41
0.352778
  0
VERTEX
  8
0
 10
74.371
 20
134.662
 30
0.0
 40
0.352778
 41
0.352778
  0
VERTEX
  8
0
 10
75.0544
 20
134.538
 30
0.0
 40
0.352778
 41
0.352778
  0
VERTEX
  8
0
 10
75.7456
 20
134.449
 30
0.0
 40
0.352778
 41
0.352778
  0
VERTEX
  8
0
 10
76.4429
 20
134.395
 30
0.0
 40
0.352778
 41
0.352778
  0
VERTEX
  8
0
 10
76.9699
 20
134.377
 30
0.0
 40
0.352778
 41
0.352778
  0
VERTEX
  8
0
 10
77.1456
 20
134.377
 30
0.0
 40
0.352778
 41
0.352778
  0
VERTEX
  8
0
 10
83.1346
 20
134.377
 30
0.0
 40
0.352778
 41
0.352778
  0
VERTEX
  8
0
 10
83.1346
 20
135.877
 30
0.0
 40
0.352778
 41
0.352778
  0
VERTEX
  8
0
 10
84.0596
 20
135.877
 30
0.0
 40
0.352778
 41
0.352778
  0
SEQEND
 8
0
  0
POLYLINE
  8
0
 62
     0
 66
     1
 10
0
 20
0
 30
0.0
 70
     1
 40
25.4
 41
25.4
  0
VERTEX
  8
0
 10
75.1081
 20
150.304
 30
0.0
 40
0.352778
 41
0.352778
  0
VERTEX
  8
0
 10
75.0394
 20
150.242
 30
0.0
 40
0.352778
 41
0.352778
  0
VERTEX
  8
0
 10
74.849
 20
150.039
 30
0.0
 40
0.352778
 41
0.352778
  0
VERTEX
  8
0
 10
74.625
 20
149.746
 30
0.0
 40
0.352778
 41
0.352778
  0
VERTEX
  8
0
 10
74.4381
 20
149.428
 30
0.0
 40
0.352778
 41
0.352778
  0
VERTEX
  8
0
 10
74.3222
 20
149.175
 30
0.0
 40
0.352778
 41
0.352778
  0
VERTEX
  8
0
 10
74.2907
 20
149.089
 30
0.0
 40
0.352778
 41
0.352778
  0
VERTEX
  8
0
 10
68.2114
 20
149.089
 30
0.0
 40
0.352778
 41
0.352778
  0
VERTEX
  8
0
 10
68.2222
 20
149.288
 30
0.0
 40
0.352778
 41
0.352778
  0
VERTEX
  8
0
 10
68.2717
 20
149.883
 30
0.0
 40
0.352778
 41
0.352778
  0
VERTEX
  8
0
 10
68.3651
 20
150.674
 30
0.0
 40
0.352778
 41
0.352778
  0
VERTEX
  8
0
 10
68.4915
 20
151.458
 30
0.0
 40
0.352778
 41
0.352778
  0
VERTEX
  8
0
 10
68.6508
 20
152.237
 30
0.0
 40
0.352778
 41
0.352778
  0
VERTEX
  8
0
 10
68.8424
 20
153.008
 30
0.0
 40
0.352778
 41
0.352778
  0
VERTEX
  8
0
 10
69.0664
 20
153.771
 30
0.0
 40
0.352778
 41
0.352778
  0
VERTEX
  8
0
 10
69.3222
 20
154.525
 30
0.0
 40
0.352778
 41
0.352778
  0
VERTEX
  8
0
 10
69.5342
 20
155.083
 30
0.0
 40
0.352778
 41
0.352778
  0
VERTEX
  8
0
 10
69.61
 20
155.268
 30
0.0
 40
0.352778
 41
0.352778
  0
VERTEX
  8
0
 10
69.6313
 20
155.319
 30
0.0
 40
0.352778
 41
0.352778
  0
VERTEX
  8
0
 10
69.7069
 20
155.469
 30
0.0
 40
0.352778
 41
0.352778
  0
VERTEX
  8
0
 10
69.826
 20
155.658
 30
0.0
 40
0.352778
 41
0.352778
  0
VERTEX
  8
0
 10
69.9657
 20
155.833
 30
0.0
 40
0.352778
 41
0.352778
  0
VERTEX
  8
0
 10
70.0829
 20
155.954
 30
0.0
 40
0.352778
 41
0.352778
  0
VERTEX
  8
0
 10
70.1249
 20
155.992
 30
0.0
 40
0.352778
 41
0.352778
  0
VERTEX
  8
0
 10
70.2569
 20
156.108
 30
0.0
 40
0.352778
 41
0.352778
  0
VERTEX
  8
0
 10
70.6686
 20
156.44
 30
0.0
 40
0.352778
 41
0.352778
  0
VERTEX
  8
0
 10
71.2392
 20
156.851
 30
0.0
 40
0.352778
 41
0.352778
  0
VERTEX
  8
0
 10
71.8344
 20
157.224
 30
0.0
 40
0.352778
 41
0.352778
  0
VERTEX
  8
0
 10
72.4522
 20
157.554
 30
0.0
 40
0.352778
 41
0.352778
  0
VERTEX
  8
0
 10
73.0906
 20
157.843
 30
0.0
 40
0.352778
 41
0.352778
  0
VERTEX
  8
0
 10
73.7474
 20
158.09
 30
0.0
 40
0.352778
 41
0.352778
  0
VERTEX
  8
0
 10
74.4206
 20
158.293
 30
0.0
 40
0.352778
 41
0.352778
  0
VERTEX
  8
0
 10
74.935
 20
158.418
 30
0.0
 40
0.352778
 41
0.352778
  0
VERTEX
  8
0
 10
75.1081
 20
158.453
 30
0.0
 40
0.352778
 41
0.352778
  0
VERTEX
  8
0
 10
75.1081
 20
150.304
 30
0.0
 40
0.352778
 41
0.352778
  0
SEQEND
 8
0
  0
POLYLINE
  8
0
 62
     0
 66
     1
 10
0
 20
0
 30
0.0
 70
     1
 40
25.4
 41
25.4
  0
VERTEX
  8
0
 10
67.285
 20
157.257
 30
0.0
 40
0.352778
 41
0.352778
  0
VERTEX
  8
0
 10
67.3278
 20
157.322
 30
0.0
 40
0.352778
 41
0.352778
  0
VERTEX
  8
0
 10
67.5597
 20
157.633
 30
0.0
 40
0.352778
 41
0.352778
  0
VERTEX
  8
0
 10
67.8143
 20
157.926
 30
0.0
 40
0.352778
 41
0.352778
  0
VERTEX
  8
0
 10
67.8685
 20
157.982
 30
0.0
 40
0.352778
 41
0.352778
  0
VERTEX
  8
0
 10
68.8643
 20
156.986
 30
0.0
 40
0.352778
 41
0.352778
  0
VERTEX
  8
0
 10
68.2103
 20
156.332
 30
0.0
 40
0.352778
 41
0.352778
  0
VERTEX
  8
0
 10
67.285
 20
157.257
 30
0.0
 40
0.352778
 41
0.352778
  0
SEQEND
 8
0
  0
POLYLINE
  8
0
 62
     0
 66
     1
 10
0
 20
0
 30
0.0
 70
     1
 40
25.4
 41
25.4
  0
VERTEX
  8
0
 10
68.7582
 20
139.222
 30
0.0
 40
0.352778
 41
0.352778
  0
VERTEX
  8
0
 10
67.7654
 20
138.229
 30
0.0
 40
0.352778
 41
0.352778
  0
VERTEX
  8
0
 10
67.73
 20
138.268
 30
0.0
 40
0.352778
 41
0.352778
  0
VERTEX
  8
0
 10
67.5606
 20
138.468
 30
0.0
 40
0.352778
 41
0.352778
  0
VERTEX
  8
0
 10
67.4013
 20
138.676
 30
0.0
 40
0.352778
 41
0.352778
  0
VERTEX
  8
0
 10
67.3711
 20
138.718
 30
0.0
 40
0.352778
 41
0.352778
  0
VERTEX
  8
0
 10
68.3163
 20
139.664
 30
0.0
 40
0.352778
 41
0.352778
  0
VERTEX
  8
0
 10
68.7582
 20
139.222
 30
0.0
 40
0.352778
 41
0.352778
  0
SEQEND
 8
0
  0
POLYLINE
  8
0
 62
     0
 66
     1
 10
0
 20
0
 30
0.0
 70
     1
 40
25.4
 41
25.4
  0
VERTEX
  8
0
 10
75.1081
 20
137.65
 30
0.0
 40
0.352778
 41
0.352778
  0
VERTEX
  8
0
 10
74.935
 20
137.684
 30
0.0
 40
0.352778
 41
0.352778
  0
VERTEX
  8
0
 10
74.4206
 20
137.808
 30
0.0
 40
0.352778
 41
0.352778
  0
VERTEX
  8
0
 10
73.7474
 20
138.012
 30
0.0
 40
0.352778
 41
0.352778
  0
VERTEX
  8
0
 10
73.0906
 20
138.258
 30
0.0
 40
0.352778
 41
0.352778
  0
VERTEX
  8
0
 10
72.4522
 20
138.548
 30
0.0
 40
0.352778
 41
0.352778
  0
VERTEX
  8
0
 10
71.8344
 20
138.879
 30
0.0
 40
0.352778
 41
0.352778
  0
VERTEX
  8
0
 10
71.2392
 20
139.25
 30
0.0
 40
0.352778
 41
0.352778
  0
VERTEX
  8
0
 10
70.6686
 20
139.661
 30
0.0
 40
0.352778
 41
0.352778
  0
VERTEX
  8
0
 10
70.2569
 20
139.994
 30
0.0
 40
0.352778
 41
0.352778
  0
VERTEX
  8
0
 10
70.1249
 20
140.111
 30
0.0
 40
0.352778
 41
0.352778
  0
VERTEX
  8
0
 10
70.0829
 20
140.147
 30
0.0
 40
0.352778
 41
0.352778
  0
VERTEX
  8
0
 10
69.9657
 20
140.268
 30
0.0
 40
0.352778
 41
0.352778
  0
VERTEX
  8
0
 10
69.826
 20
140.443
 30
0.0
 40
0.352778
 41
0.352778
  0
VERTEX
  8
0
 10
69.7069
 20
140.632
 30
0.0
 40
0.352778
 41
0.352778
  0
VERTEX
  8
0
 10
69.6313
 20
140.782
 30
0.0
 40
0.352778
 41
0.352778
  0
VERTEX
  8
0
 10
69.61
 20
140.835
 30
0.0
 40
0.352778
 41
0.352778
  0
VERTEX
  8
0
 10
69.5342
 20
141.018
 30
0.0
 40
0.352778
 41
0.352778
  0
VERTEX
  8
0
 10
69.3222
 20
141.578
 30
0.0
 40
0.352778
 41
0.352778
  0
VERTEX
  8
0
 10
69.0664
 20
142.331
 30
0.0
 40
0.352778
 41
0.352778
  0
VERTEX
  8
0
 10
68.8424
 20
143.093
 30
0.0
 40
0.352778
 41
0.352778
  0
VERTEX
  8
0
 10
68.6508
 20
143.865
 30
0.0
 40
0.352778
 41
0.352778
  0
VERTEX
  8
0
 10
68.4915
 20
144.643
 30
0.0
 40
0.352778
 41
0.352778
  0
VERTEX
  8
0
 10
68.3651
 20
145.429
 30
0.0
 40
0.352778
 41
0.352778
  0
VERTEX
  8
0
 10
68.2717
 20
146.219
 30
0.0
 40
0.352778
 41
0.352778
  0
VERTEX
  8
0
 10
68.2222
 20
146.815
 30
0.0
 40
0.352778
 41
0.352778
  0
VERTEX
  8
0
 10
68.2114
 20
147.014
 30
0.0
 40
0.352778
 41
0.352778
  0
VERTEX
  8
0
 10
74.2907
 20
147.014
 30
0.0
 40
0.352778
 41
0.352778
  0
VERTEX
  8
0
 10
74.3222
 20
146.926
 30
0.0
 40
0.352778
 41
0.352778
  0
VERTEX
  8
0
 10
74.4381
 20
146.674
 30
0.0
 40
0.352778
 41
0.352778
  0
VERTEX
  8
0
 10
74.625
 20
146.356
 30
0.0
 40
0.352778
 41
0.352778
  0
VERTEX
  8
0
 10
74.849
 20
146.063
 30
0.0
 40
0.352778
 41
0.352778
  0
VERTEX
  8
0
 10
75.0394
 20
145.86
 30
0.0
 40
0.352778
 41
0.352778
  0
VERTEX
  8
0
 10
75.1081
 20
145.799
 30
0.0
 40
0.352778
 41
0.352778
  0
VERTEX
  8
0
 10
75.1081
 20
137.65
 30
0.0
 40
0.352778
 41
0.352778
  0
SEQEND
 8
0
  0
POLYLINE
  8
0
 62
     0
 66
     1
 10
0
 20
0
 30
0.0
 70
     1
 40
25.4
 41
25.4
  0
VERTEX
  8
0
 10
64.9599
 20
134.155
 30
0.0
 40
0.352778
 41
0.352778
  0
VERTEX
  8
0
 10
64.9599
 20
128.443
 30
0.0
 40
0.352778
 41
0.352778
  0
VERTEX
  8
0
 10
72.0349
 20
128.443
 30
0.0
 40
0.352778
 41
0.352778
  0
VERTEX
  8
0
 10
72.0349
 20
131.08
 30
0.0
 40
0.352778
 41
0.352778
  0
VERTEX
  8
0
 10
92.6871
 20
131.08
 30
0.0
 40
0.352778
 41
0.352778
  0
VERTEX
  8
0
 10
92.6871
 20
109.882
 30
0.0
 40
0.352778
 41
0.352778
  0
VERTEX
  8
0
 10
72.0349
 20
109.882
 30
0.0
 40
0.352778
 41
0.352778
  0
VERTEX
  8
0
 10
72.0349
 20
112.518
 30
0.0
 40
0.352778
 41
0.352778
  0
VERTEX
  8
0
 10
64.9599
 20
112.518
 30
0.0
 40
0.352778
 41
0.352778
  0
VERTEX
  8
0
 10
64.9599
 20
106.807
 30
0.0
 40
0.352778
 41
0.352778
  0
VERTEX
  8
0
 10
85.8106
 20
106.807
 30
0.0
 40
0.352778
 41
0.352778
  0
VERTEX
  8
0
 10
85.8106
 20
108.307
 30
0.0
 40
0.352778
 41
0.352778
  0
VERTEX
  8
0
 10
86.7356
 20
108.307
 30
0.0
 40
0.352778
 41
0.352778
  0
VERTEX
  8
0
 10
86.7356
 20
106.807
 30
0.0
 40
0.352778
 41
0.352778
  0
VERTEX
  8
0
 10
92.7247
 20
106.807
 30
0.0
 40
0.352778
 41
0.352778
  0
VERTEX
  8
0
 10
92.9003
 20
106.807
 30
0.0
 40
0.352778
 41
0.352778
  0
VERTEX
  8
0
 10
93.4272
 20
106.825
 30
0.0
 40
0.352778
 41
0.352778
  0
VERTEX
  8
0
 10
94.1246
 20
106.879
 30
0.0
 40
0.352778
 41
0.352778
  0
VERTEX
  8
0
 10
94.8157
 20
106.968
 30
0.0
 40
0.352778
 41
0.352778
  0
VERTEX
  8
0
 10
95.4992
 20
107.092
 30
0.0
 40
0.352778
 41
0.352778
  0
VERTEX
  8
0
 10
96.1739
 20
107.249
 30
0.0
 40
0.352778
 41
0.352778
  0
VERTEX
  8
0
 10
96.8385
 20
107.441
 30
0.0
 40
0.352778
 41
0.352778
  0
VERTEX
  8
0
 10
97.4917
 20
107.665
 30
0.0
 40
0.352778
 41
0.352778
  0
VERTEX
  8
0
 10
98.1325
 20
107.922
 30
0.0
 40
0.352778
 41
0.352778
  0
VERTEX
  8
0
 10
98.7594
 20
108.211
 30
0.0
 40
0.352778
 41
0.352778
  0
VERTEX
  8
0
 10
99.3714
 20
108.531
 30
0.0
 40
0.352778
 41
0.352778
  0
VERTEX
  8
0
 10
99.9671
 20
108.883
 30
0.0
 40
0.352778
 41
0.352778
  0
VERTEX
  8
0
 10
100.545
 20
109.264
 30
0.0
 40
0.352778
 41
0.352778
  0
VERTEX
  8
0
 10
101.105
 20
109.676
 30
0.0
 40
0.352778
 41
0.352778
  0
VERTEX
  8
0
 10
101.644
 20
110.117
 30
0.0
 40
0.352778
 41
0.352778
  0
VERTEX
  8
0
 10
102.163
 20
110.587
 30
0.0
 40
0.352778
 41
0.352778
  0
VERTEX
  8
0
 10
102.538
 20
110.957
 30
0.0
 40
0.352778
 41
0.352778
  0
VERTEX
  8
0
 10
102.658
 20
111.085
 30
0.0
 40
0.352778
 41
0.352778
  0
VERTEX
  8
0
 10
102.782
 20
111.346
 30
0.0
 40
0.352778
 41
0.352778
  0
VERTEX
  8
0
 10
103.125
 20
112.145
 30
0.0
 40
0.352778
 41
0.352778
  0
VERTEX
  8
0
 10
103.534
 20
113.226
 30
0.0
 40
0.352778
 41
0.352778
  0
VERTEX
  8
0
 10
103.885
 20
114.325
 30
0.0
 40
0.352778
 41
0.352778
  0
VERTEX
  8
0
 10
104.178
 20
115.441
 30
0.0
 40
0.352778
 41
0.352778
  0
VERTEX
  8
0
 10
104.412
 20
116.571
 30
0.0
 40
0.352778
 41
0.352778
  0
VERTEX
  8
0
 10
104.587
 20
117.712
 30
0.0
 40
0.352778
 41
0.352778
  0
VERTEX
  8
0
 10
104.703
 20
118.862
 30
0.0
 40
0.352778
 41
0.352778
  0
VERTEX
  8
0
 10
104.751
 20
119.729
 30
0.0
 40
0.352778
 41
0.352778
  0
VERTEX
  8
0
 10
104.757
 20
120.018
 30
0.0
 40
0.352778
 41
0.352778
  0
VERTEX
  8
0
 10
103.388
 20
120.018
 30
0.0
 40
0.352778
 41
0.352778
  0
VERTEX
  8
0
 10
103.392
 20
120.096
 30
0.0
 40
0.352778
 41
0.352778
  0
VERTEX
  8
0
 10
103.392
 20
120.867
 30
0.0
 40
0.352778
 41
0.352778
  0
VERTEX
  8
0
 10
103.388
 20
120.943
 30
0.0
 40
0.352778
 41
0.352778
  0
VERTEX
  8
0
 10
104.757
 20
120.943
 30
0.0
 40
0.352778
 41
0.352778
  0
VERTEX
  8
0
 10
104.751
 20
121.233
 30
0.0
 40
0.352778
 41
0.352778
  0
VERTEX
  8
0
 10
104.703
 20
122.1
 30
0.0
 40
0.352778
 41
0.352778
  0
VERTEX
  8
0
 10
104.587
 20
123.251
 30
0.0
 40
0.352778
 41
0.352778
  0
VERTEX
  8
0
 10
104.412
 20
124.392
 30
0.0
 40
0.352778
 41
0.352778
  0
VERTEX
  8
0
 10
104.178
 20
125.521
 30
0.0
 40
0.352778
 41
0.352778
  0
VERTEX
  8
0
 10
103.885
 20
126.637
 30
0.0
 40
0.352778
 41
0.352778
  0
VERTEX
  8
0
 10
103.534
 20
127.736
 30
0.0
 40
0.352778
 41
0.352778
  0
VERTEX
  8
0
 10
103.125
 20
128.817
 30
0.0
 40
0.352778
 41
0.352778
  0
VERTEX
  8
0
 10
102.782
 20
129.616
 30
0.0
 40
0.352778
 41
0.352778
  0
VERTEX
  8
0
 10
102.658
 20
129.877
 30
0.0
 40
0.352778
 41
0.352778
  0
VERTEX
  8
0
 10
102.538
 20
130.005
 30
0.0
 40
0.352778
 41
0.352778
  0
VERTEX
  8
0
 10
102.163
 20
130.376
 30
0.0
 40
0.352778
 41
0.352778
  0
VERTEX
  8
0
 10
101.644
 20
130.845
 30
0.0
 40
0.352778
 41
0.352778
  0
VERTEX
  8
0
 10
101.105
 20
131.286
 30
0.0
 40
0.352778
 41
0.352778
  0
VERTEX
  8
0
 10
100.545
 20
131.698
 30
0.0
 40
0.352778
 41
0.352778
  0
VERTEX
  8
0
 10
99.9671
 20
132.079
 30
0.0
 40
0.352778
 41
0.352778
  0
VERTEX
  8
0
 10
99.3714
 20
132.431
 30
0.0
 40
0.352778
 41
0.352778
  0
VERTEX
  8
0
 10
98.7594
 20
132.751
 30
0.0
 40
0.352778
 41
0.352778
  0
VERTEX
  8
0
 10
98.1325
 20
133.04
 30
0.0
 40
0.352778
 41
0.352778
  0
VERTEX
  8
0
 10
97.4917
 20
133.297
 30
0.0
 40
0.352778
 41
0.352778
  0
VERTEX
  8
0
 10
96.8385
 20
133.521
 30
0.0
 40
0.352778
 41
0.352778
  0
VERTEX
  8
0
 10
96.1739
 20
133.713
 30
0.0
 40
0.352778
 41
0.352778
  0
VERTEX
  8
0
 10
95.4992
 20
133.871
 30
0.0
 40
0.352778
 41
0.352778
  0
VERTEX
  8
0
 10
94.8157
 20
133.994
 30
0.0
 40
0.352778
 41
0.352778
  0
VERTEX
  8
0
 10
94.1246
 20
134.083
 30
0.0
 40
0.352778
 41
0.352778
  0
VERTEX
  8
0
 10
93.4272
 20
134.137
 30
0.0
 40
0.352778
 41
0.352778
  0
VERTEX
  8
0
 10
92.9003
 20
134.155
 30
0.0
 40
0.352778
 41
0.352778
  0
VERTEX
  8
0
 10
92.7247
 20
134.155
 30
0.0
 40
0.352778
 41
0.352778
  0
VERTEX
  8
0
 10
86.7356
 20
134.155
 30
0.0
 40
0.352778
 41
0.352778
  0
VERTEX
  8
0
 10
86.7356
 20
132.655
 30
0.0
 40
0.352778
 41
0.352778
  0
VERTEX
  8
0
 10
85.8106
 20
132.655
 30
0.0
 40
0.352778
 41
0.352778
  0
VERTEX
  8
0
 10
85.8106
 20
134.155
 30
0.0
 40
0.352778
 41
0.352778
  0
VERTEX
  8
0
 10
64.9599
 20
134.155
 30
0.0
 40
0.352778
 41
0.352778
  0
SEQEND
 8
0
  0
POLYLINE
  8
0
 62
     0
 66
     1
 10
0
 20
0
 30
0.0
 70
     1
 40
25.4
 41
25.4
  0
VERTEX
  8
0
 10
101.659
 20
119.443
 30
0.0
 40
0.352778
 41
0.352778
  0
VERTEX
  8
0
 10
101.648
 20
119.245
 30
0.0
 40
0.352778
 41
0.352778
  0
VERTEX
  8
0
 10
101.598
 20
118.649
 30
0.0
 40
0.352778
 41
0.352778
  0
VERTEX
  8
0
 10
101.505
 20
117.859
 30
0.0
 40
0.352778
 41
0.352778
  0
VERTEX
  8
0
 10
101.378
 20
117.074
 30
0.0
 40
0.352778
 41
0.352778
  0
VERTEX
  8
0
 10
101.219
 20
116.295
 30
0.0
 40
0.352778
 41
0.352778
  0
VERTEX
  8
0
 10
101.028
 20
115.524
 30
0.0
 40
0.352778
 41
0.352778
  0
VERTEX
  8
0
 10
100.804
 20
114.761
 30
0.0
 40
0.352778
 41
0.352778
  0
VERTEX
  8
0
 10
100.548
 20
114.007
 30
0.0
 40
0.352778
 41
0.352778
  0
VERTEX
  8
0
 10
100.336
 20
113.448
 30
0.0
 40
0.352778
 41
0.352778
  0
VERTEX
  8
0
 10
100.26
 20
113.264
 30
0.0
 40
0.352778
 41
0.352778
  0
VERTEX
  8
0
 10
100.239
 20
113.212
 30
0.0
 40
0.352778
 41
0.352778
  0
VERTEX
  8
0
 10
100.163
 20
113.062
 30
0.0
 40
0.352778
 41
0.352778
  0
VERTEX
  8
0
 10
100.044
 20
112.873
 30
0.0
 40
0.352778
 41
0.352778
  0
VERTEX
  8
0
 10
99.9044
 20
112.699
 30
0.0
 40
0.352778
 41
0.352778
  0
VERTEX
  8
0
 10
99.7871
 20
112.578
 30
0.0
 40
0.352778
 41
0.352778
  0
VERTEX
  8
0
 10
99.7453
 20
112.541
 30
0.0
 40
0.352778
 41
0.352778
  0
VERTEX
  8
0
 10
99.6132
 20
112.424
 30
0.0
 40
0.352778
 41
0.352778
  0
VERTEX
  8
0
 10
99.2014
 20
112.091
 30
0.0
 40
0.352778
 41
0.352778
  0
VERTEX
  8
0
 10
98.6308
 20
111.68
 30
0.0
 40
0.352778
 41
0.352778
  0
VERTEX
  8
0
 10
98.0357
 20
111.309
 30
0.0
 40
0.352778
 41
0.352778
  0
VERTEX
  8
0
 10
97.4179
 20
110.978
 30
0.0
 40
0.352778
 41
0.352778
  0
VERTEX
  8
0
 10
96.7796
 20
110.688
 30
0.0
 40
0.352778
 41
0.352778
  0
VERTEX
  8
0
 10
96.1228
 20
110.442
 30
0.0
 40
0.352778
 41
0.352778
  0
VERTEX
  8
0
 10
95.4496
 20
110.238
 30
0.0
 40
0.352778
 41
0.352778
  0
VERTEX
  8
0
 10
94.9351
 20
110.114
 30
0.0
 40
0.352778
 41
0.352778
  0
VERTEX
  8
0
 10
94.7622
 20
110.08
 30
0.0
 40
0.352778
 41
0.352778
  0
VERTEX
  8
0
 10
94.7622
 20
118.228
 30
0.0
 40
0.352778
 41
0.352778
  0
VERTEX
  8
0
 10
94.8306
 20
118.29
 30
0.0
 40
0.352778
 41
0.352778
  0
VERTEX
  8
0
 10
95.0211
 20
118.493
 30
0.0
 40
0.352778
 41
0.352778
  0
VERTEX
  8
0
 10
95.2451
 20
118.786
 30
0.0
 40
0.352778
 41
0.352778
  0
VERTEX
  8
0
 10
95.4321
 20
119.104
 30
0.0
 40
0.352778
 41
0.352778
  0
VERTEX
  8
0
 10
95.5479
 20
119.357
 30
0.0
 40
0.352778
 41
0.352778
  0
VERTEX
  8
0
 10
95.5794
 20
119.443
 30
0.0
 40
0.352778
 41
0.352778
  0
VERTEX
  8
0
 10
101.659
 20
119.443
 30
0.0
 40
0.352778
 41
0.352778
  0
SEQEND
 8
0
  0
POLYLINE
  8
0
 62
     0
 66
     1
 10
0
 20
0
 30
0.0
 70
     1
 40
25.4
 41
25.4
  0
VERTEX
  8
0
 10
101.006
 20
111.546
 30
0.0
 40
0.352778
 41
0.352778
  0
VERTEX
  8
0
 10
101.66
 20
112.2
 30
0.0
 40
0.352778
 41
0.352778
  0
VERTEX
  8
0
 10
102.585
 20
111.275
 30
0.0
 40
0.352778
 41
0.352778
  0
VERTEX
  8
0
 10
102.542
 20
111.21
 30
0.0
 40
0.352778
 41
0.352778
  0
VERTEX
  8
0
 10
102.31
 20
110.899
 30
0.0
 40
0.352778
 41
0.352778
  0
VERTEX
  8
0
 10
102.056
 20
110.606
 30
0.0
 40
0.352778
 41
0.352778
  0
VERTEX
  8
0
 10
102.002
 20
110.55
 30
0.0
 40
0.352778
 41
0.352778
  0
VERTEX
  8
0
 10
101.006
 20
111.546
 30
0.0
 40
0.352778
 41
0.352778
  0
SEQEND
 8
0
  0
POLYLINE
  8
0
 62
     0
 66
     1
 10
0
 20
0
 30
0.0
 70
     1
 40
25.4
 41
25.4
  0
VERTEX
  8
0
 10
101.112
 20
129.31
 30
0.0
 40
0.352778
 41
0.352778
  0
VERTEX
  8
0
 10
101.554
 20
128.868
 30
0.0
 40
0.352778
 41
0.352778
  0
VERTEX
  8
0
 10
102.499
 20
129.813
 30
0.0
 40
0.352778
 41
0.352778
  0
VERTEX
  8
0
 10
102.469
 20
129.856
 30
0.0
 40
0.352778
 41
0.352778
  0
VERTEX
  8
0
 10
102.31
 20
130.064
 30
0.0
 40
0.352778
 41
0.352778
  0
VERTEX
  8
0
 10
102.14
 20
130.264
 30
0.0
 40
0.352778
 41
0.352778
  0
VERTEX
  8
0
 10
102.105
 20
130.303
 30
0.0
 40
0.352778
 41
0.352778
  0
VERTEX
  8
0
 10
101.112
 20
129.31
 30
0.0
 40
0.352778
 41
0.352778
  0
SEQEND
 8
0
  0
POLYLINE
  8
0
 62
     0
 66
     1
 10
0
 20
0
 30
0.0
 70
     1
 40
25.4
 41
25.4
  0
VERTEX
  8
0
 10
94.7622
 20
130.882
 30
0.0
 40
0.352778
 41
0.352778
  0
VERTEX
  8
0
 10
94.9351
 20
130.848
 30
0.0
 40
0.352778
 41
0.352778
  0
VERTEX
  8
0
 10
95.4496
 20
130.724
 30
0.0
 40
0.352778
 41
0.352778
  0
VERTEX
  8
0
 10
96.1228
 20
130.52
 30
0.0
 40
0.352778
 41
0.352778
  0
VERTEX
  8
0
 10
96.7796
 20
130.274
 30
0.0
 40
0.352778
 41
0.352778
  0
VERTEX
  8
0
 10
97.4179
 20
129.984
 30
0.0
 40
0.352778
 41
0.352778
  0
VERTEX
  8
0
 10
98.0357
 20
129.653
 30
0.0
 40
0.352778
 41
0.352778
  0
VERTEX
  8
0
 10
98.631
 20
129.282
 30
0.0
 40
0.352778
 41
0.352778
  0
VERTEX
  8
0
 10
99.2014
 20
128.871
 30
0.0
 40
0.352778
 41
0.352778
  0
VERTEX
  8
0
 10
99.6132
 20
128.538
 30
0.0
 40
0.352778
 41
0.352778
  0
VERTEX
  8
0
 10
99.7453
 20
128.421
 30
0.0
 40
0.352778
 41
0.352778
  0
VERTEX
  8
0
 10
99.7872
 20
128.384
 30
0.0
 40
0.352778
 41
0.352778
  0
VERTEX
  8
0
 10
99.9044
 20
128.263
 30
0.0
 40
0.352778
 41
0.352778
  0
VERTEX
  8
0
 10
100.044
 20
128.089
 30
0.0
 40
0.352778
 41
0.352778
  0
VERTEX
  8
0
 10
100.163
 20
127.9
 30
0.0
 40
0.352778
 41
0.352778
  0
VERTEX
  8
0
 10
100.239
 20
127.75
 30
0.0
 40
0.352778
 41
0.352778
  0
VERTEX
  8
0
 10
100.26
 20
127.698
 30
0.0
 40
0.352778
 41
0.352778
  0
VERTEX
  8
0
 10
100.336
 20
127.514
 30
0.0
 40
0.352778
 41
0.352778
  0
VERTEX
  8
0
 10
100.548
 20
126.955
 30
0.0
 40
0.352778
 41
0.352778
  0
VERTEX
  8
0
 10
100.804
 20
126.201
 30
0.0
 40
0.352778
 41
0.352778
  0
VERTEX
  8
0
 10
101.028
 20
125.438
 30
0.0
 40
0.352778
 41
0.352778
  0
VERTEX
  8
0
 10
101.219
 20
124.667
 30
0.0
 40
0.352778
 41
0.352778
  0
VERTEX
  8
0
 10
101.378
 20
123.888
 30
0.0
 40
0.352778
 41
0.352778
  0
VERTEX
  8
0
 10
101.505
 20
123.103
 30
0.0
 40
0.352778
 41
0.352778
  0
VERTEX
  8
0
 10
101.598
 20
122.313
 30
0.0
 40
0.352778
 41
0.352778
  0
VERTEX
  8
0
 10
101.648
 20
121.717
 30
0.0
 40
0.352778
 41
0.352778
  0
VERTEX
  8
0
 10
101.659
 20
121.518
 30
0.0
 40
0.352778
 41
0.352778
  0
VERTEX
  8
0
 10
95.5794
 20
121.518
 30
0.0
 40
0.352778
 41
0.352778
  0
VERTEX
  8
0
 10
95.5479
 20
121.605
 30
0.0
 40
0.352778
 41
0.352778
  0
VERTEX
  8
0
 10
95.4321
 20
121.858
 30
0.0
 40
0.352778
 41
0.352778
  0
VERTEX
  8
0
 10
95.2451
 20
122.176
 30
0.0
 40
0.352778
 41
0.352778
  0
VERTEX
  8
0
 10
95.0211
 20
122.469
 30
0.0
 40
0.352778
 41
0.352778
  0
VERTEX
  8
0
 10
94.8306
 20
122.672
 30
0.0
 40
0.352778
 41
0.352778
  0
VERTEX
  8
0
 10
94.7622
 20
122.734
 30
0.0
 40
0.352778
 41
0.352778
  0
VERTEX
  8
0
 10
94.7622
 20
130.882
 30
0.0
 40
0.352778
 41
0.352778
  0
SEQEND
 8
0
  0
POLYLINE
  8
0
 62
     0
 66
     1
 10
0
 20
0
 30
0.0
 70
     1
 40
25.4
 41
25.4
  0
VERTEX
  8
0
 10
92.8431
 20
85.7971
 30
0.0
 40
0.352778
 41
0.352778
  0
VERTEX
  8
0
 10
92.8431
 20
106.648
 30
0.0
 40
0.352778
 41
0.352778
  0
VERTEX
  8
0
 10
87.1317
 20
106.648
 30
0.0
 40
0.352778
 41
0.352778
  0
VERTEX
  8
0
 10
87.1317
 20
99.5729
 30
0.0
 40
0.352778
 41
0.352778
  0
VERTEX
  8
0
 10
89.7681
 20
99.5729
 30
0.0
 40
0.352778
 41
0.352778
  0
VERTEX
  8
0
 10
89.7681
 20
78.9206
 30
0.0
 40
0.352778
 41
0.352778
  0
VERTEX
  8
0
 10
68.5703
 20
78.9206
 30
0.0
 40
0.352778
 41
0.352778
  0
VERTEX
  8
0
 10
68.5703
 20
99.5729
 30
0.0
 40
0.352778
 41
0.352778
  0
VERTEX
  8
0
 10
71.2067
 20
99.5729
 30
0.0
 40
0.352778
 41
0.352778
  0
VERTEX
  8
0
 10
71.2067
 20
106.648
 30
0.0
 40
0.352778
 41
0.352778
  0
VERTEX
  8
0
 10
65.4953
 20
106.648
 30
0.0
 40
0.352778
 41
0.352778
  0
VERTEX
  8
0
 10
65.4953
 20
85.7971
 30
0.0
 40
0.352778
 41
0.352778
  0
VERTEX
  8
0
 10
66.9953
 20
85.7971
 30
0.0
 40
0.352778
 41
0.352778
  0
VERTEX
  8
0
 10
66.9953
 20
84.8722
 30
0.0
 40
0.352778
 41
0.352778
  0
VERTEX
  8
0
 10
65.4953
 20
84.8722
 30
0.0
 40
0.352778
 41
0.352778
  0
VERTEX
  8
0
 10
65.4953
 20
78.8831
 30
0.0
 40
0.352778
 41
0.352778
  0
VERTEX
  8
0
 10
65.4953
 20
78.7075
 30
0.0
 40
0.352778
 41
0.352778
  0
VERTEX
  8
0
 10
65.5133
 20
78.1806
 30
0.0
 40
0.352778
 41
0.352778
  0
VERTEX
  8
0
 10
65.5671
 20
77.4832
 30
0.0
 40
0.352778
 41
0.352778
  0
VERTEX
  8
0
 10
65.656
 20
76.7921
 30
0.0
 40
0.352778
 41
0.352778
  0
VERTEX
  8
0
 10
65.7796
 20
76.1086
 30
0.0
 40
0.352778
 41
0.352778
  0
VERTEX
  8
0
 10
65.9374
 20
75.4339
 30
0.0
 40
0.352778
 41
0.352778
  0
VERTEX
  8
0
 10
66.1288
 20
74.7693
 30
0.0
 40
0.352778
 41
0.352778
  0
VERTEX
  8
0
 10
66.3532
 20
74.1161
 30
0.0
 40
0.352778
 41
0.352778
  0
VERTEX
  8
0
 10
66.6101
 20
73.4753
 30
0.0
 40
0.352778
 41
0.352778
  0
VERTEX
  8
0
 10
66.899
 20
72.8483
 30
0.0
 40
0.352778
 41
0.352778
  0
VERTEX
  8
0
 10
67.2194
 20
72.2364
 30
0.0
 40
0.352778
 41
0.352778
  0
VERTEX
  8
0
 10
67.5707
 20
71.6407
 30
0.0
 40
0.352778
 41
0.352778
  0
VERTEX
  8
0
 10
67.9524
 20
71.0625
 30
0.0
 40
0.352778
 41
0.352778
  0
VERTEX
  8
0
 10
68.364
 20
70.5029
 30
0.0
 40
0.352778
 41
0.352778
  0
VERTEX
  8
0
 10
68.805
 20
69.9635
 30
0.0
 40
0.352778
 41
0.352778
  0
VERTEX
  8
0
 10
69.2747
 20
69.4451
 30
0.0
 40
0.352778
 41
0.352778
  0
VERTEX
  8
0
 10
69.6451
 20
69.07
 30
0.0
 40
0.352778
 41
0.352778
  0
VERTEX
  8
0
 10
69.7728
 20
68.9492
 30
0.0
 40
0.352778
 41
0.352778
  0
VERTEX
  8
0
 10
70.0344
 20
68.8258
 30
0.0
 40
0.352778
 41
0.352778
  0
VERTEX
  8
0
 10
70.8331
 20
68.4831
 30
0.0
 40
0.352778
 41
0.352778
  0
VERTEX
  8
0
 10
71.914
 20
68.074
 30
0.0
 40
0.352778
 41
0.352778
  0
VERTEX
  8
0
 10
73.0136
 20
67.7228
 30
0.0
 40
0.352778
 41
0.352778
  0
VERTEX
  8
0
 10
74.1292
 20
67.4296
 30
0.0
 40
0.352778
 41
0.352778
  0
VERTEX
  8
0
 10
75.2587
 20
67.1953
 30
0.0
 40
0.352778
 41
0.352778
  0
VERTEX
  8
0
 10
76.3996
 20
67.0203
 30
0.0
 40
0.352778
 41
0.352778
  0
VERTEX
  8
0
 10
77.5497
 20
66.9051
 30
0.0
 40
0.352778
 41
0.352778
  0
VERTEX
  8
0
 10
78.4172
 20
66.8565
 30
0.0
 40
0.352778
 41
0.352778
  0
VERTEX
  8
0
 10
78.7067
 20
66.8504
 30
0.0
 40
0.352778
 41
0.352778
  0
VERTEX
  8
0
 10
78.7067
 20
68.2193
 30
0.0
 40
0.352778
 41
0.352778
  0
VERTEX
  8
0
 10
78.7838
 20
68.216
 30
0.0
 40
0.352778
 41
0.352778
  0
VERTEX
  8
0
 10
79.5546
 20
68.216
 30
0.0
 40
0.352778
 41
0.352778
  0
VERTEX
  8
0
 10
79.6317
 20
68.2193
 30
0.0
 40
0.352778
 41
0.352778
  0
VERTEX
  8
0
 10
79.6317
 20
66.8504
 30
0.0
 40
0.352778
 41
0.352778
  0
VERTEX
  8
0
 10
79.9211
 20
66.8565
 30
0.0
 40
0.352778
 41
0.352778
  0
VERTEX
  8
0
 10
80.7886
 20
66.9051
 30
0.0
 40
0.352778
 41
0.352778
  0
VERTEX
  8
0
 10
81.9387
 20
67.0203
 30
0.0
 40
0.352778
 41
0.352778
  0
VERTEX
  8
0
 10
83.0796
 20
67.1953
 30
0.0
 40
0.352778
 41
0.352778
  0
VERTEX
  8
0
 10
84.209
 20
67.4296
 30
0.0
 40
0.352778
 41
0.352778
  0
VERTEX
  8
0
 10
85.3247
 20
67.7228
 30
0.0
 40
0.352778
 41
0.352778
  0
VERTEX
  8
0
 10
86.4243
 20
68.074
 30
0.0
 40
0.352778
 41
0.352778
  0
VERTEX
  8
0
 10
87.5053
 20
68.4831
 30
0.0
 40
0.352778
 41
0.352778
  0
VERTEX
  8
0
 10
88.3039
 20
68.8258
 30
0.0
 40
0.352778
 41
0.352778
  0
VERTEX
  8
0
 10
88.5657
 20
68.9492
 30
0.0
 40
0.352778
 41
0.352778
  0
VERTEX
  8
0
 10
88.6932
 20
69.07
 30
0.0
 40
0.352778
 41
0.352778
  0
VERTEX
  8
0
 10
89.0636
 20
69.4451
 30
0.0
 40
0.352778
 41
0.352778
  0
VERTEX
  8
0
 10
89.5333
 20
69.9635
 30
0.0
 40
0.352778
 41
0.352778
  0
VERTEX
  8
0
 10
89.9743
 20
70.5029
 30
0.0
 40
0.352778
 41
0.352778
  0
VERTEX
  8
0
 10
90.3858
 20
71.0625
 30
0.0
 40
0.352778
 41
0.352778
  0
VERTEX
  8
0
 10
90.7676
 20
71.6407
 30
0.0
 40
0.352778
 41
0.352778
  0
VERTEX
  8
0
 10
91.1189
 20
72.2364
 30
0.0
 40
0.352778
 41
0.352778
  0
VERTEX
  8
0
 10
91.4393
 20
72.8483
 30
0.0
 40
0.352778
 41
0.352778
  0
VERTEX
  8
0
 10
91.7282
 20
73.4753
 30
0.0
 40
0.352778
 41
0.352778
  0
VERTEX
  8
0
 10
91.9851
 20
74.1161
 30
0.0
 40
0.352778
 41
0.352778
  0
VERTEX
  8
0
 10
92.2096
 20
74.7693
 30
0.0
 40
0.352778
 41
0.352778
  0
VERTEX
  8
0
 10
92.4008
 20
75.4339
 30
0.0
 40
0.352778
 41
0.352778
  0
VERTEX
  8
0
 10
92.5586
 20
76.1086
 30
0.0
 40
0.352778
 41
0.352778
  0
VERTEX
  8
0
 10
92.6822
 20
76.7921
 30
0.0
 40
0.352778
 41
0.352778
  0
VERTEX
  8
0
 10
92.7712
 20
77.4832
 30
0.0
 40
0.352778
 41
0.352778
  0
VERTEX
  8
0
 10
92.825
 20
78.1806
 30
0.0
 40
0.352778
 41
0.352778
  0
VERTEX
  8
0
 10
92.8431
 20
78.7075
 30
0.0
 40
0.352778
 41
0.352778
  0
VERTEX
  8
0
 10
92.8431
 20
78.8831
 30
0.0
 40
0.352778
 41
0.352778
  0
VERTEX
  8
0
 10
92.8431
 20
84.8722
 30
0.0
 40
0.352778
 41
0.352778
  0
VERTEX
  8
0
 10
91.3431
 20
84.8722
 30
0.0
 40
0.352778
 41
0.352778
  0
VERTEX
  8
0
 10
91.3431
 20
85.7971
 30
0.0
 40
0.352778
 41
0.352778
  0
VERTEX
  8
0
 10
92.8431
 20
85.7971
 30
0.0
 40
0.352778
 41
0.352778
  0
SEQEND
 8
0
  0
POLYLINE
  8
0
 62
     0
 66
     1
 10
0
 20
0
 30
0.0
 70
     1
 40
25.4
 41
25.4
  0
VERTEX
  8
0
 10
76.9164
 20
76.8456
 30
0.0
 40
0.352778
 41
0.352778
  0
VERTEX
  8
0
 10
76.9783
 20
76.7771
 30
0.0
 40
0.352778
 41
0.352778
  0
VERTEX
  8
0
 10
77.181
 20
76.5867
 30
0.0
 40
0.352778
 41
0.352778
  0
VERTEX
  8
0
 10
77.474
 20
76.3626
 30
0.0
 40
0.352778
 41
0.352778
  0
VERTEX
  8
0
 10
77.7921
 20
76.1757
 30
0.0
 40
0.352778
 41
0.352778
  0
VERTEX
  8
0
 10
78.0449
 20
76.0599
 30
0.0
 40
0.352778
 41
0.352778
  0
VERTEX
  8
0
 10
78.1317
 20
76.0283
 30
0.0
 40
0.352778
 41
0.352778
  0
VERTEX
  8
0
 10
78.1317
 20
69.949
 30
0.0
 40
0.352778
 41
0.352778
  0
VERTEX
  8
0
 10
77.9328
 20
69.9599
 30
0.0
 40
0.352778
 41
0.352778
  0
VERTEX
  8
0
 10
77.3371
 20
70.0093
 30
0.0
 40
0.352778
 41
0.352778
  0
VERTEX
  8
0
 10
76.5468
 20
70.1028
 30
0.0
 40
0.352778
 41
0.352778
  0
VERTEX
  8
0
 10
75.7618
 20
70.2293
 30
0.0
 40
0.352778
 41
0.352778
  0
VERTEX
  8
0
 10
74.9832
 20
70.3883
 30
0.0
 40
0.352778
 41
0.352778
  0
VERTEX
  8
0
 10
74.2118
 20
70.5801
 30
0.0
 40
0.352778
 41
0.352778
  0
VERTEX
  8
0
 10
73.4489
 20
70.804
 30
0.0
 40
0.352778
 41
0.352778
  0
VERTEX
  8
0
 10
72.6953
 20
71.0599
 30
0.0
 40
0.352778
 41
0.352778
  0
VERTEX
  8
0
 10
72.1364
 20
71.2718
 30
0.0
 40
0.352778
 41
0.352778
  0
VERTEX
  8
0
 10
71.9522
 20
71.3476
 30
0.0
 40
0.352778
 41
0.352778
  0
VERTEX
  8
0
 10
71.9006
 20
71.3689
 30
0.0
 40
0.352778
 41
0.352778
  0
VERTEX
  8
0
 10
71.7501
 20
71.4447
 30
0.0
 40
0.352778
 41
0.352778
  0
VERTEX
  8
0
 10
71.5611
 20
71.5636
 30
0.0
 40
0.352778
 41
0.352778
  0
VERTEX
  8
0
 10
71.3868
 20
71.7033
 30
0.0
 40
0.352778
 41
0.352778
  0
VERTEX
  8
0
 10
71.266
 20
71.8206
 30
0.0
 40
0.352778
 41
0.352778
  0
VERTEX
  8
0
 10
71.2289
 20
71.8625
 30
0.0
 40
0.352778
 41
0.352778
  0
VERTEX
  8
0
 10
71.1121
 20
71.9946
 30
0.0
 40
0.352778
 41
0.352778
  0
VERTEX
  8
0
 10
70.7794
 20
72.4063
 30
0.0
 40
0.352778
 41
0.352778
  0
VERTEX
  8
0
 10
70.3685
 20
72.9768
 30
0.0
 40
0.352778
 41
0.352778
  0
VERTEX
  8
0
 10
69.9969
 20
73.5721
 30
0.0
 40
0.352778
 41
0.352778
  0
VERTEX
  8
0
 10
69.666
 20
74.1899
 30
0.0
 40
0.352778
 41
0.352778
  0
VERTEX
  8
0
 10
69.3767
 20
74.8282
 30
0.0
 40
0.352778
 41
0.352778
  0
VERTEX
  8
0
 10
69.1297
 20
75.485
 30
0.0
 40
0.352778
 41
0.352778
  0
VERTEX
  8
0
 10
68.9265
 20
76.1582
 30
0.0
 40
0.352778
 41
0.352778
  0
VERTEX
  8
0
 10
68.8018
 20
76.6726
 30
0.0
 40
0.352778
 41
0.352778
  0
VERTEX
  8
0
 10
68.7681
 20
76.8456
 30
0.0
 40
0.352778
 41
0.352778
  0
VERTEX
  8
0
 10
76.9164
 20
76.8456
 30
0.0
 40
0.352778
 41
0.352778
  0
SEQEND
 8
0
  0
POLYLINE
  8
0
 62
     0
 66
     1
 10
0
 20
0
 30
0.0
 70
     1
 40
25.4
 41
25.4
  0
VERTEX
  8
0
 10
69.9628
 20
69.0226
 30
0.0
 40
0.352778
 41
0.352778
  0
VERTEX
  8
0
 10
69.8979
 20
69.0654
 30
0.0
 40
0.352778
 41
0.352778
  0
VERTEX
  8
0
 10
69.5867
 20
69.2974
 30
0.0
 40
0.352778
 41
0.352778
  0
VERTEX
  8
0
 10
69.2937
 20
69.5519
 30
0.0
 40
0.352778
 41
0.352778
  0
VERTEX
  8
0
 10
69.2381
 20
69.6061
 30
0.0
 40
0.352778
 41
0.352778
  0
VERTEX
  8
0
 10
70.2339
 20
70.6019
 30
0.0
 40
0.352778
 41
0.352778
  0
VERTEX
  8
0
 10
70.8879
 20
69.9478
 30
0.0
 40
0.352778
 41
0.352778
  0
VERTEX
  8
0
 10
69.9628
 20
69.0226
 30
0.0
 40
0.352778
 41
0.352778
  0
SEQEND
 8
0
  0
POLYLINE
  8
0
 62
     0
 66
     1
 10
0
 20
0
 30
0.0
 70
     1
 40
25.4
 41
25.4
  0
VERTEX
  8
0
 10
87.5564
 20
70.0539
 30
0.0
 40
0.352778
 41
0.352778
  0
VERTEX
  8
0
 10
87.9983
 20
70.4958
 30
0.0
 40
0.352778
 41
0.352778
  0
VERTEX
  8
0
 10
88.9911
 20
69.5031
 30
0.0
 40
0.352778
 41
0.352778
  0
VERTEX
  8
0
 10
88.9525
 20
69.4676
 30
0.0
 40
0.352778
 41
0.352778
  0
VERTEX
  8
0
 10
88.7526
 20
69.2981
 30
0.0
 40
0.352778
 41
0.352778
  0
VERTEX
  8
0
 10
88.5444
 20
69.1389
 30
0.0
 40
0.352778
 41
0.352778
  0
VERTEX
  8
0
 10
88.5017
 20
69.1086
 30
0.0
 40
0.352778
 41
0.352778
  0
VERTEX
  8
0
 10
87.5564
 20
70.0539
 30
0.0
 40
0.352778
 41
0.352778
  0
SEQEND
 8
0
  0
POLYLINE
  8
0
 62
     0
 66
     1
 10
0
 20
0
 30
0.0
 70
     1
 40
25.4
 41
25.4
  0
VERTEX
  8
0
 10
89.5704
 20
76.8456
 30
0.0
 40
0.352778
 41
0.352778
  0
VERTEX
  8
0
 10
89.5365
 20
76.6726
 30
0.0
 40
0.352778
 41
0.352778
  0
VERTEX
  8
0
 10
89.4117
 20
76.1582
 30
0.0
 40
0.352778
 41
0.352778
  0
VERTEX
  8
0
 10
89.2086
 20
75.485
 30
0.0
 40
0.352778
 41
0.352778
  0
VERTEX
  8
0
 10
88.9617
 20
74.8282
 30
0.0
 40
0.352778
 41
0.352778
  0
VERTEX
  8
0
 10
88.6724
 20
74.1899
 30
0.0
 40
0.352778
 41
0.352778
  0
VERTEX
  8
0
 10
88.3414
 20
73.5721
 30
0.0
 40
0.352778
 41
0.352778
  0
VERTEX
  8
0
 10
87.9699
 20
72.9768
 30
0.0
 40
0.352778
 41
0.352778
  0
VERTEX
  8
0
 10
87.5589
 20
72.4063
 30
0.0
 40
0.352778
 41
0.352778
  0
VERTEX
  8
0
 10
87.2263
 20
71.9946
 30
0.0
 40
0.352778
 41
0.352778
  0
VERTEX
  8
0
 10
87.1094
 20
71.8625
 30
0.0
 40
0.352778
 41
0.352778
  0
VERTEX
  8
0
 10
87.0724
 20
71.8206
 30
0.0
 40
0.352778
 41
0.352778
  0
VERTEX
  8
0
 10
86.9515
 20
71.7033
 30
0.0
 40
0.352778
 41
0.352778
  0
VERTEX
  8
0
 10
86.7772
 20
71.5636
 30
0.0
 40
0.352778
 41
0.352778
  0
VERTEX
  8
0
 10
86.5881
 20
71.4447
 30
0.0
 40
0.352778
 41
0.352778
  0
VERTEX
  8
0
 10
86.4378
 20
71.3689
 30
0.0
 40
0.352778
 41
0.352778
  0
VERTEX
  8
0
 10
86.3861
 20
71.3476
 30
0.0
 40
0.352778
 41
0.352778
  0
VERTEX
  8
0
 10
86.2019
 20
71.2718
 30
0.0
 40
0.352778
 41
0.352778
  0
VERTEX
  8
0
 10
85.6429
 20
71.0599
 30
0.0
 40
0.352778
 41
0.352778
  0
VERTEX
  8
0
 10
84.8894
 20
70.804
 30
0.0
 40
0.352778
 41
0.352778
  0
VERTEX
  8
0
 10
84.1265
 20
70.5801
 30
0.0
 40
0.352778
 41
0.352778
  0
VERTEX
  8
0
 10
83.3551
 20
70.3883
 30
0.0
 40
0.352778
 41
0.352778
  0
VERTEX
  8
0
 10
82.5765
 20
70.2293
 30
0.0
 40
0.352778
 41
0.352778
  0
VERTEX
  8
0
 10
81.7915
 20
70.1028
 30
0.0
 40
0.352778
 41
0.352778
  0
VERTEX
  8
0
 10
81.0012
 20
70.0093
 30
0.0
 40
0.352778
 41
0.352778
  0
VERTEX
  8
0
 10
80.4056
 20
69.9599
 30
0.0
 40
0.352778
 41
0.352778
  0
VERTEX
  8
0
 10
80.2067
 20
69.949
 30
0.0
 40
0.352778
 41
0.352778
  0
VERTEX
  8
0
 10
80.2067
 20
76.0283
 30
0.0
 40
0.352778
 41
0.352778
  0
VERTEX
  8
0
 10
80.2935
 20
76.0599
 30
0.0
 40
0.352778
 41
0.352778
  0
VERTEX
  8
0
 10
80.5463
 20
76.1757
 30
0.0
 40
0.352778
 41
0.352778
  0
VERTEX
  8
0
 10
80.8643
 20
76.3626
 30
0.0
 40
0.352778
 41
0.352778
  0
VERTEX
  8
0
 10
81.1574
 20
76.5867
 30
0.0
 40
0.352778
 41
0.352778
  0
VERTEX
  8
0
 10
81.36
 20
76.7771
 30
0.0
 40
0.352778
 41
0.352778
  0
VERTEX
  8
0
 10
81.4219
 20
76.8456
 30
0.0
 40
0.352778
 41
0.352778
  0
VERTEX
  8
0
 10
89.5704
 20
76.8456
 30
0.0
 40
0.352778
 41
0.352778
  0
SEQEND
 8
0
  0
POLYLINE
  8
0
 62
     0
 66
     1
 10
0
 20
0
 30
0.0
 40
25.4
 41
25.4
  0
VERTEX
  8
0
 10
0.176378
 20
3.25765
 30
0.0
 40
0.352778
 41
0.352778
  0
VERTEX
  8
0
 10
101.252
 20
3.25765
 30
0.0
 40
0.352778
 41
0.352778
  0
VERTEX
  8
0
 10
101.252
 20
4.70236
 30
0.0
 40
0.352778
 41
0.352778
  0
VERTEX
  8
0
 10
100.252
 20
4.70236
 30
0.0
 40
0.352778
 41
0.352778
  0
VERTEX
  8
0
 10
100.252
 20
10.0625
 30
0.0
 40
0.352778
 41
0.352778
  0
VERTEX
  8
0
 10
100.13
 20
9.95042
 30
0.0
 40
0.352778
 41
0.352778
  0
VERTEX
  8
0
 10
99.7553
 20
9.62543
 30
0.0
 40
0.352778
 41
0.352778
  0
VERTEX
  8
0
 10
99.241
 20
9.21376
 30
0.0
 40
0.352778
 41
0.352778
  0
VERTEX
  8
0
 10
98.7099
 20
8.82781
 30
0.0
 40
0.352778
 41
0.352778
  0
VERTEX
  8
0
 10
98.1626
 20
8.46804
 30
0.0
 40
0.352778
 41
0.352778
  0
VERTEX
  8
0
 10
97.6006
 20
8.13482
 30
0.0
 40
0.352778
 41
0.352778
  0
VERTEX
  8
0
 10
97.0246
 20
7.8285
 30
0.0
 40
0.352778
 41
0.352778
  0
VERTEX
  8
0
 10
96.4356
 20
7.54958
 30
0.0
 40
0.352778
 41
0.352778
  0
VERTEX
  8
0
 10
95.8344
 20
7.29833
 30
0.0
 40
0.352778
 41
0.352778
  0
VERTEX
  8
0
 10
95.2225
 20
7.07519
 30
0.0
 40
0.352778
 41
0.352778
  0
VERTEX
  8
0
 10
94.6004
 20
6.88053
 30
0.0
 40
0.352778
 41
0.352778
  0
VERTEX
  8
0
 10
93.9694
 20
6.71474
 30
0.0
 40
0.352778
 41
0.352778
  0
VERTEX
  8
0
 10
93.3304
 20
6.57824
 30
0.0
 40
0.352778
 41
0.352778
  0
VERTEX
  8
0
 10
92.6843
 20
6.4714
 30
0.0
 40
0.352778
 41
0.352778
  0
VERTEX
  8
0
 10
92.0322
 20
6.39464
 30
0.0
 40
0.352778
 41
0.352778
  0
VERTEX
  8
0
 10
91.3751
 20
6.34825
 30
0.0
 40
0.352778
 41
0.352778
  0
VERTEX
  8
0
 10
90.8793
 20
6.33268
 30
0.0
 40
0.352778
 41
0.352778
  0
VERTEX
  8
0
 10
90.714
 20
6.33268
 30
0.0
 40
0.352778
 41
0.352778
  0
VERTEX
  8
0
 10
90.5487
 20
6.33268
 30
0.0
 40
0.352778
 41
0.352778
  0
VERTEX
  8
0
 10
90.0528
 20
6.34825
 30
0.0
 40
0.352778
 41
0.352778
  0
VERTEX
  8
0
 10
89.3958
 20
6.39464
 30
0.0
 40
0.352778
 41
0.352778
  0
VERTEX
  8
0
 10
88.7437
 20
6.4714
 30
0.0
 40
0.352778
 41
0.352778
  0
VERTEX
  8
0
 10
88.0976
 20
6.57824
 30
0.0
 40
0.352778
 41
0.352778
  0
VERTEX
  8
0
 10
87.4586
 20
6.71474
 30
0.0
 40
0.352778
 41
0.352778
  0
VERTEX
  8
0
 10
86.8276
 20
6.88053
 30
0.0
 40
0.352778
 41
0.352778
  0
VERTEX
  8
0
 10
86.2056
 20
7.07519
 30
0.0
 40
0.352778
 41
0.352778
  0
VERTEX
  8
0
 10
85.5935
 20
7.29833
 30
0.0
 40
0.352778
 41
0.352778
  0
VERTEX
  8
0
 10
84.9925
 20
7.54958
 30
0.0
 40
0.352778
 41
0.352778
  0
VERTEX
  8
0
 10
84.4035
 20
7.8285
 30
0.0
 40
0.352778
 41
0.352778
  0
VERTEX
  8
0
 10
83.8274
 20
8.13482
 30
0.0
 40
0.352778
 41
0.352778
  0
VERTEX
  8
0
 10
83.2653
 20
8.46804
 30
0.0
 40
0.352778
 41
0.352778
  0
VERTEX
  8
0
 10
82.7182
 20
8.82781
 30
0.0
 40
0.352778
 41
0.352778
  0
VERTEX
  8
0
 10
82.1869
 20
9.21376
 30
0.0
 40
0.352778
 41
0.352778
  0
VERTEX
  8
0
 10
81.6728
 20
9.62543
 30
0.0
 40
0.352778
 41
0.352778
  0
VERTEX
  8
0
 10
81.2979
 20
9.95042
 30
0.0
 40
0.352778
 41
0.352778
  0
VERTEX
  8
0
 10
81.1765
 20
10.0625
 30
0.0
 40
0.352778
 41
0.352778
  0
VERTEX
  8
0
 10
81.1765
 20
4.70236
 30
0.0
 40
0.352778
 41
0.352778
  0
VERTEX
  8
0
 10
80.2515
 20
4.70236
 30
0.0
 40
0.352778
 41
0.352778
  0
VERTEX
  8
0
 10
80.2515
 20
10.0625
 30
0.0
 40
0.352778
 41
0.352778
  0
VERTEX
  8
0
 10
80.13
 20
9.95042
 30
0.0
 40
0.352778
 41
0.352778
  0
VERTEX
  8
0
 10
79.7553
 20
9.62543
 30
0.0
 40
0.352778
 41
0.352778
  0
VERTEX
  8
0
 10
79.241
 20
9.21376
 30
0.0
 40
0.352778
 41
0.352778
  0
VERTEX
  8
0
 10
78.7099
 20
8.82781
 30
0.0
 40
0.352778
 41
0.352778
  0
VERTEX
  8
0
 10
78.1626
 20
8.46804
 30
0.0
 40
0.352778
 41
0.352778
  0
VERTEX
  8
0
 10
77.6006
 20
8.13482
 30
0.0
 40
0.352778
 41
0.352778
  0
VERTEX
  8
0
 10
77.0244
 20
7.8285
 30
0.0
 40
0.352778
 41
0.352778
  0
VERTEX
  8
0
 10
76.4354
 20
7.54958
 30
0.0
 40
0.352778
 41
0.352778
  0
VERTEX
  8
0
 10
75.8344
 20
7.29833
 30
0.0
 40
0.352778
 41
0.352778
  0
VERTEX
  8
0
 10
75.2224
 20
7.07519
 30
0.0
 40
0.352778
 41
0.352778
  0
VERTEX
  8
0
 10
74.6004
 20
6.88053
 30
0.0
 40
0.352778
 41
0.352778
  0
VERTEX
  8
0
 10
73.9693
 20
6.71474
 30
0.0
 40
0.352778
 41
0.352778
  0
VERTEX
  8
0
 10
73.3303
 20
6.57824
 30
0.0
 40
0.352778
 41
0.352778
  0
VERTEX
  8
0
 10
72.6843
 20
6.4714
 30
0.0
 40
0.352778
 41
0.352778
  0
VERTEX
  8
0
 10
72.0322
 20
6.39464
 30
0.0
 40
0.352778
 41
0.352778
  0
VERTEX
  8
0
 10
71.3751
 20
6.34825
 30
0.0
 40
0.352778
 41
0.352778
  0
VERTEX
  8
0
 10
70.8792
 20
6.33268
 30
0.0
 40
0.352778
 41
0.352778
  0
VERTEX
  8
0
 10
70.714
 20
6.33268
 30
0.0
 40
0.352778
 41
0.352778
  0
VERTEX
  8
0
 10
70.5486
 20
6.33268
 30
0.0
 40
0.352778
 41
0.352778
  0
VERTEX
  8
0
 10
70.0528
 20
6.34825
 30
0.0
 40
0.352778
 41
0.352778
  0
VERTEX
  8
0
 10
69.3957
 20
6.39464
 30
0.0
 40
0.352778
 41
0.352778
  0
VERTEX
  8
0
 10
68.7436
 20
6.4714
 30
0.0
 40
0.352778
 41
0.352778
  0
VERTEX
  8
0
 10
68.0976
 20
6.57824
 30
0.0
 40
0.352778
 41
0.352778
  0
VERTEX
  8
0
 10
67.4586
 20
6.71474
 30
0.0
 40
0.352778
 41
0.352778
  0
VERTEX
  8
0
 10
66.8276
 20
6.88053
 30
0.0
 40
0.352778
 41
0.352778
  0
VERTEX
  8
0
 10
66.2056
 20
7.07519
 30
0.0
 40
0.352778
 41
0.352778
  0
VERTEX
  8
0
 10
65.5935
 20
7.29833
 30
0.0
 40
0.352778
 41
0.352778
  0
VERTEX
  8
0
 10
64.9925
 20
7.54958
 30
0.0
 40
0.352778
 41
0.352778
  0
VERTEX
  8
0
 10
64.4035
 20
7.8285
 30
0.0
 40
0.352778
 41
0.352778
  0
VERTEX
  8
0
 10
63.8274
 20
8.13482
 30
0.0
 40
0.352778
 41
0.352778
  0
VERTEX
  8
0
 10
63.2653
 20
8.46804
 30
0.0
 40
0.352778
 41
0.352778
  0
VERTEX
  8
0
 10
62.7182
 20
8.82781
 30
0.0
 40
0.352778
 41
0.352778
  0
VERTEX
  8
0
 10
62.1869
 20
9.21376
 30
0.0
 40
0.352778
 41
0.352778
  0
VERTEX
  8
0
 10
61.6728
 20
9.62543
 30
0.0
 40
0.352778
 41
0.352778
  0
VERTEX
  8
0
 10
61.2979
 20
9.95042
 30
0.0
 40
0.352778
 41
0.352778
  0
VERTEX
  8
0
 10
61.1765
 20
10.0625
 30
0.0
 40
0.352778
 41
0.352778
  0
VERTEX
  8
0
 10
61.1765
 20
4.70236
 30
0.0
 40
0.352778
 41
0.352778
  0
VERTEX
  8
0
 10
60.2515
 20
4.70236
 30
0.0
 40
0.352778
 41
0.352778
  0
VERTEX
  8
0
 10
60.2515
 20
10.0625
 30
0.0
 40
0.352778
 41
0.352778
  0
VERTEX
  8
0
 10
60.13
 20
9.95042
 30
0.0
 40
0.352778
 41
0.352778
  0
VERTEX
  8
0
 10
59.7551
 20
9.62543
 30
0.0
 40
0.352778
 41
0.352778
  0
VERTEX
  8
0
 10
59.241
 20
9.21376
 30
0.0
 40
0.352778
 41
0.352778
  0
VERTEX
  8
0
 10
58.7099
 20
8.82781
 30
0.0
 40
0.352778
 41
0.352778
  0
VERTEX
  8
0
 10
58.1626
 20
8.46804
 30
0.0
 40
0.352778
 41
0.352778
  0
VERTEX
  8
0
 10
57.6006
 20
8.13482
 30
0.0
 40
0.352778
 41
0.352778
  0
VERTEX
  8
0
 10
57.0244
 20
7.8285
 30
0.0
 40
0.352778
 41
0.352778
  0
VERTEX
  8
0
 10
56.4354
 20
7.54958
 30
0.0
 40
0.352778
 41
0.352778
  0
VERTEX
  8
0
 10
55.8344
 20
7.29833
 30
0.0
 40
0.352778
 41
0.352778
  0
VERTEX
  8
0
 10
55.2224
 20
7.07519
 30
0.0
 40
0.352778
 41
0.352778
  0
VERTEX
  8
0
 10
54.6004
 20
6.88053
 30
0.0
 40
0.352778
 41
0.352778
  0
VERTEX
  8
0
 10
53.9693
 20
6.71474
 30
0.0
 40
0.352778
 41
0.352778
  0
VERTEX
  8
0
 10
53.3303
 20
6.57824
 30
0.0
 40
0.352778
 41
0.352778
  0
VERTEX
  8
0
 10
52.6843
 20
6.4714
 30
0.0
 40
0.352778
 41
0.352778
  0
VERTEX
  8
0
 10
52.0322
 20
6.39464
 30
0.0
 40
0.352778
 41
0.352778
  0
VERTEX
  8
0
 10
51.3751
 20
6.34825
 30
0.0
 40
0.352778
 41
0.352778
  0
VERTEX
  8
0
 10
50.8792
 20
6.33268
 30
0.0
 40
0.352778
 41
0.352778
  0
VERTEX
  8
0
 10
50.714
 20
6.33268
 30
0.0
 40
0.352778
 41
0.352778
  0
VERTEX
  8
0
 10
50.5486
 20
6.33268
 30
0.0
 40
0.352778
 41
0.352778
  0
VERTEX
  8
0
 10
50.0528
 20
6.34825
 30
0.0
 40
0.352778
 41
0.352778
  0
VERTEX
  8
0
 10
49.3957
 20
6.39464
 30
0.0
 40
0.352778
 41
0.352778
  0
VERTEX
  8
0
 10
48.7436
 20
6.4714
 30
0.0
 40
0.352778
 41
0.352778
  0
VERTEX
  8
0
 10
48.0976
 20
6.57824
 30
0.0
 40
0.352778
 41
0.352778
  0
VERTEX
  8
0
 10
47.4586
 20
6.71474
 30
0.0
 40
0.352778
 41
0.352778
  0
VERTEX
  8
0
 10
46.8275
 20
6.88053
 30
0.0
 40
0.352778
 41
0.352778
  0
VERTEX
  8
0
 10
46.2056
 20
7.07519
 30
0.0
 40
0.352778
 41
0.352778
  0
VERTEX
  8
0
 10
45.5935
 20
7.29833
 30
0.0
 40
0.352778
 41
0.352778
  0
VERTEX
  8
0
 10
44.9925
 20
7.54958
 30
0.0
 40
0.352778
 41
0.352778
  0
VERTEX
  8
0
 10
44.4035
 20
7.8285
 30
0.0
 40
0.352778
 41
0.352778
  0
VERTEX
  8
0
 10
43.8274
 20
8.13482
 30
0.0
 40
0.352778
 41
0.352778
  0
VERTEX
  8
0
 10
43.2653
 20
8.46804
 30
0.0
 40
0.352778
 41
0.352778
  0
VERTEX
  8
0
 10
42.7181
 20
8.82781
 30
0.0
 40
0.352778
 41
0.352778
  0
VERTEX
  8
0
 10
42.1869
 20
9.21376
 30
0.0
 40
0.352778
 41
0.352778
  0
VERTEX
  8
0
 10
41.6726
 20
9.62543
 30
0.0
 40
0.352778
 41
0.352778
  0
VERTEX
  8
0
 10
41.2979
 20
9.95042
 30
0.0
 40
0.352778
 41
0.352778
  0
VERTEX
  8
0
 10
41.1764
 20
10.0625
 30
0.0
 40
0.352778
 41
0.352778
  0
VERTEX
  8
0
 10
41.1764
 20
4.70236
 30
0.0
 40
0.352778
 41
0.352778
  0
VERTEX
  8
0
 10
40.2515
 20
4.70236
 30
0.0
 40
0.352778
 41
0.352778
  0
VERTEX
  8
0
 10
40.2515
 20
10.0625
 30
0.0
 40
0.352778
 41
0.352778
  0
VERTEX
  8
0
 10
40.13
 20
9.95042
 30
0.0
 40
0.352778
 41
0.352778
  0
VERTEX
  8
0
 10
39.7551
 20
9.62543
 30
0.0
 40
0.352778
 41
0.352778
  0
VERTEX
  8
0
 10
39.241
 20
9.21376
 30
0.0
 40
0.352778
 41
0.352778
  0
VERTEX
  8
0
 10
38.7097
 20
8.82781
 30
0.0
 40
0.352778
 41
0.352778
  0
VERTEX
  8
0
 10
38.1626
 20
8.46804
 30
0.0
 40
0.352778
 41
0.352778
  0
VERTEX
  8
0
 10
37.6006
 20
8.13482
 30
0.0
 40
0.352778
 41
0.352778
  0
VERTEX
  8
0
 10
37.0244
 20
7.8285
 30
0.0
 40
0.352778
 41
0.352778
  0
VERTEX
  8
0
 10
36.4354
 20
7.54958
 30
0.0
 40
0.352778
 41
0.352778
  0
VERTEX
  8
0
 10
35.8343
 20
7.29833
 30
0.0
 40
0.352778
 41
0.352778
  0
VERTEX
  8
0
 10
35.2224
 20
7.07519
 30
0.0
 40
0.352778
 41
0.352778
  0
VERTEX
  8
0
 10
34.6003
 20
6.88053
 30
0.0
 40
0.352778
 41
0.352778
  0
VERTEX
  8
0
 10
33.9693
 20
6.71474
 30
0.0
 40
0.352778
 41
0.352778
  0
VERTEX
  8
0
 10
33.3303
 20
6.57824
 30
0.0
 40
0.352778
 41
0.352778
  0
VERTEX
  8
0
 10
32.6842
 20
6.4714
 30
0.0
 40
0.352778
 41
0.352778
  0
VERTEX
  8
0
 10
32.0321
 20
6.39464
 30
0.0
 40
0.352778
 41
0.352778
  0
VERTEX
  8
0
 10
31.375
 20
6.34825
 30
0.0
 40
0.352778
 41
0.352778
  0
VERTEX
  8
0
 10
30.8792
 20
6.33268
 30
0.0
 40
0.352778
 41
0.352778
  0
VERTEX
  8
0
 10
30.7139
 20
6.33268
 30
0.0
 40
0.352778
 41
0.352778
  0
VERTEX
  8
0
 10
30.5486
 20
6.33268
 30
0.0
 40
0.352778
 41
0.352778
  0
VERTEX
  8
0
 10
30.0528
 20
6.34825
 30
0.0
 40
0.352778
 41
0.352778
  0
VERTEX
  8
0
 10
29.3957
 20
6.39464
 30
0.0
 40
0.352778
 41
0.352778
  0
VERTEX
  8
0
 10
28.7436
 20
6.4714
 30
0.0
 40
0.352778
 41
0.352778
  0
VERTEX
  8
0
 10
28.0975
 20
6.57824
 30
0.0
 40
0.352778
 41
0.352778
  0
VERTEX
  8
0
 10
27.4586
 20
6.71474
 30
0.0
 40
0.352778
 41
0.352778
  0
VERTEX
  8
0
 10
26.8275
 20
6.88053
 30
0.0
 40
0.352778
 41
0.352778
  0
VERTEX
  8
0
 10
26.2056
 20
7.07519
 30
0.0
 40
0.352778
 41
0.352778
  0
VERTEX
  8
0
 10
25.5935
 20
7.29833
 30
0.0
 40
0.352778
 41
0.352778
  0
VERTEX
  8
0
 10
24.9924
 20
7.54958
 30
0.0
 40
0.352778
 41
0.352778
  0
VERTEX
  8
0
 10
24.4033
 20
7.8285
 30
0.0
 40
0.352778
 41
0.352778
  0
VERTEX
  8
0
 10
23.8274
 20
8.13482
 30
0.0
 40
0.352778
 41
0.352778
  0
VERTEX
  8
0
 10
23.2651
 20
8.46804
 30
0.0
 40
0.352778
 41
0.352778
  0
VERTEX
  8
0
 10
22.7181
 20
8.82781
 30
0.0
 40
0.352778
 41
0.352778
  0
VERTEX
  8
0
 10
22.1869
 20
9.21376
 30
0.0
 40
0.352778
 41
0.352778
  0
VERTEX
  8
0
 10
21.6726
 20
9.62543
 30
0.0
 40
0.352778
 41
0.352778
  0
VERTEX
  8
0
 10
21.2979
 20
9.95042
 30
0.0
 40
0.352778
 41
0.352778
  0
VERTEX
  8
0
 10
21.1764
 20
10.0625
 30
0.0
 40
0.352778
 41
0.352778
  0
VERTEX
  8
0
 10
21.1764
 20
4.70236
 30
0.0
 40
0.352778
 41
0.352778
  0
VERTEX
  8
0
 10
20.2514
 20
4.70236
 30
0.0
 40
0.352778
 41
0.352778
  0
VERTEX
  8
0
 10
20.2514
 20
10.0625
 30
0.0
 40
0.352778
 41
0.352778
  0
VERTEX
  8
0
 10
20.13
 20
9.95042
 30
0.0
 40
0.352778
 41
0.352778
  0
VERTEX
  8
0
 10
19.7551
 20
9.62543
 30
0.0
 40
0.352778
 41
0.352778
  0
VERTEX
  8
0
 10
19.2408
 20
9.21376
 30
0.0
 40
0.352778
 41
0.352778
  0
VERTEX
  8
0
 10
18.7097
 20
8.82781
 30
0.0
 40
0.352778
 41
0.352778
  0
VERTEX
  8
0
 10
18.1626
 20
8.46804
 30
0.0
 40
0.352778
 41
0.352778
  0
VERTEX
  8
0
 10
17.6004
 20
8.13482
 30
0.0
 40
0.352778
 41
0.352778
  0
VERTEX
  8
0
 10
17.0244
 20
7.8285
 30
0.0
 40
0.352778
 41
0.352778
  0
VERTEX
  8
0
 10
16.4354
 20
7.54958
 30
0.0
 40
0.352778
 41
0.352778
  0
VERTEX
  8
0
 10
15.8343
 20
7.29833
 30
0.0
 40
0.352778
 41
0.352778
  0
VERTEX
  8
0
 10
15.2222
 20
7.07519
 30
0.0
 40
0.352778
 41
0.352778
  0
VERTEX
  8
0
 10
14.6003
 20
6.88053
 30
0.0
 40
0.352778
 41
0.352778
  0
VERTEX
  8
0
 10
13.9693
 20
6.71474
 30
0.0
 40
0.352778
 41
0.352778
  0
VERTEX
  8
0
 10
13.3302
 20
6.57824
 30
0.0
 40
0.352778
 41
0.352778
  0
VERTEX
  8
0
 10
12.6842
 20
6.4714
 30
0.0
 40
0.352778
 41
0.352778
  0
VERTEX
  8
0
 10
12.0321
 20
6.39464
 30
0.0
 40
0.352778
 41
0.352778
  0
VERTEX
  8
0
 10
11.375
 20
6.34825
 30
0.0
 40
0.352778
 41
0.352778
  0
VERTEX
  8
0
 10
10.8792
 20
6.33268
 30
0.0
 40
0.352778
 41
0.352778
  0
VERTEX
  8
0
 10
10.7139
 20
6.33268
 30
0.0
 40
0.352778
 41
0.352778
  0
VERTEX
  8
0
 10
10.5486
 20
6.33268
 30
0.0
 40
0.352778
 41
0.352778
  0
VERTEX
  8
0
 10
10.0527
 20
6.34825
 30
0.0
 40
0.352778
 41
0.352778
  0
VERTEX
  8
0
 10
9.39567
 20
6.39464
 30
0.0
 40
0.352778
 41
0.352778
  0
VERTEX
  8
0
 10
8.7436
 20
6.4714
 30
0.0
 40
0.352778
 41
0.352778
  0
VERTEX
  8
0
 10
8.09754
 20
6.57824
 30
0.0
 40
0.352778
 41
0.352778
  0
VERTEX
  8
0
 10
7.4585
 20
6.71474
 30
0.0
 40
0.352778
 41
0.352778
  0
VERTEX
  8
0
 10
6.82747
 20
6.88053
 30
0.0
 40
0.352778
 41
0.352778
  0
VERTEX
  8
0
 10
6.20546
 20
7.07519
 30
0.0
 40
0.352778
 41
0.352778
  0
VERTEX
  8
0
 10
5.59343
 20
7.29833
 30
0.0
 40
0.352778
 41
0.352778
  0
VERTEX
  8
0
 10
4.9924
 20
7.54958
 30
0.0
 40
0.352778
 41
0.352778
  0
VERTEX
  8
0
 10
4.40338
 20
7.8285
 30
0.0
 40
0.352778
 41
0.352778
  0
VERTEX
  8
0
 10
3.82726
 20
8.13482
 30
0.0
 40
0.352778
 41
0.352778
  0
VERTEX
  8
0
 10
3.26519
 20
8.46804
 30
0.0
 40
0.352778
 41
0.352778
  0
VERTEX
  8
0
 10
2.71804
 20
8.82781
 30
0.0
 40
0.352778
 41
0.352778
  0
VERTEX
  8
0
 10
2.18685
 20
9.21376
 30
0.0
 40
0.352778
 41
0.352778
  0
VERTEX
  8
0
 10
1.67264
 20
9.62543
 30
0.0
 40
0.352778
 41
0.352778
  0
VERTEX
  8
0
 10
1.2978
 20
9.95042
 30
0.0
 40
0.352778
 41
0.352778
  0
VERTEX
  8
0
 10
1.17638
 20
10.0625
 30
0.0
 40
0.352778
 41
0.352778
  0
VERTEX
  8
0
 10
1.17638
 20
4.70236
 30
0.0
 40
0.352778
 41
0.352778
  0
VERTEX
  8
0
 10
0.176378
 20
4.70236
 30
0.0
 40
0.352778
 41
0.352778
  0
VERTEX
  8
0
 10
0.176378
 20
0.182671
 30
0.0
 40
0.352778
 41
0.352778
  0
SEQEND
 8
0
  0
POLYLINE
  8
0
 62
     0
 66
     1
 10
0
 20
0
 30
0.0
 70
     1
 40
25.4
 41
25.4
  0
VERTEX
  8
0
 10
0.176378
 20
189.572
 30
0.0
 40
0.352778
 41
0.352778
  0
VERTEX
  8
0
 10
0.176378
 20
193.783
 30
0.0
 40
0.352778
 41
0.352778
  0
VERTEX
  8
0
 10
1.17638
 20
193.783
 30
0.0
 40
0.352778
 41
0.352778
  0
VERTEX
  8
0
 10
1.17638
 20
196.783
 30
0.0
 40
0.352778
 41
0.352778
  0
VERTEX
  8
0
 10
20.2514
 20
196.783
 30
0.0
 40
0.352778
 41
0.352778
  0
VERTEX
  8
0
 10
20.2514
 20
193.783
 30
0.0
 40
0.352778
 41
0.352778
  0
VERTEX
  8
0
 10
21.1764
 20
193.783
 30
0.0
 40
0.352778
 41
0.352778
  0
VERTEX
  8
0
 10
21.1764
 20
196.783
 30
0.0
 40
0.352778
 41
0.352778
  0
VERTEX
  8
0
 10
40.2515
 20
196.783
 30
0.0
 40
0.352778
 41
0.352778
  0
VERTEX
  8
0
 10
40.2515
 20
193.783
 30
0.0
 40
0.352778
 41
0.352778
  0
VERTEX
  8
0
 10
41.1764
 20
193.783
 30
0.0
 40
0.352778
 41
0.352778
  0
VERTEX
  8
0
 10
41.1764
 20
196.783
 30
0.0
 40
0.352778
 41
0.352778
  0
VERTEX
  8
0
 10
60.2515
 20
196.783
 30
0.0
 40
0.352778
 41
0.352778
  0
VERTEX
  8
0
 10
60.2515
 20
193.783
 30
0.0
 40
0.352778
 41
0.352778
  0
VERTEX
  8
0
 10
61.1765
 20
193.783
 30
0.0
 40
0.352778
 41
0.352778
  0
VERTEX
  8
0
 10
61.1765
 20
196.783
 30
0.0
 40
0.352778
 41
0.352778
  0
VERTEX
  8
0
 10
80.2515
 20
196.783
 30
0.0
 40
0.352778
 41
0.352778
  0
VERTEX
  8
0
 10
80.2515
 20
193.783
 30
0.0
 40
0.352778
 41
0.352778
  0
VERTEX
  8
0
 10
81.1765
 20
193.783
 30
0.0
 40
0.352778
 41
0.352778
  0
VERTEX
  8
0
 10
81.1765
 20
196.783
 30
0.0
 40
0.352778
 41
0.352778
  0
VERTEX
  8
0
 10
100.252
 20
196.783
 30
0.0
 40
0.352778
 41
0.352778
  0
VERTEX
  8
0
 10
100.252
 20
193.783
 30
0.0
 40
0.352778
 41
0.352778
  0
VERTEX
  8
0
 10
101.252
 20
193.783
 30
0.0
 40
0.352778
 41
0.352778
  0
VERTEX
  8
0
 10
101.252
 20
189.572
 30
0.0
 40
0.352778
 41
0.352778
  0
VERTEX
  8
0
 10
0.176378
 20
189.572
 30
0.0
 40
0.352778
 41
0.352778
  0
SEQEND
 8
0
  0
POLYLINE
  8
0
 62
     0
 66
     1
 10
0
 20
0
 30
0.0
 40
25.4
 41
25.4
  0
VERTEX
  8
0
 10
0.176378
 20
189.572
 30
0.0
 40
0.352778
 41
0.352778
  0
VERTEX
  8
0
 10
0.176378
 20
106.569
 30
0.0
 40
0.352778
 41
0.352778
  0
VERTEX
  8
0
 10
57.1765
 20
106.569
 30
0.0
 40
0.352778
 41
0.352778
  0
SEQEND
 8
0
  0
POLYLINE
  8
0
 62
     0
 66
     1
 10
0
 20
0
 30
0.0
 70
     1
 40
25.4
 41
25.4
  0
VERTEX
  8
0
 10
5.58138
 20
178.925
 30
0.0
 40
0.352778
 41
0.352778
  0
VERTEX
  8
0
 10
8.67637
 20
178.925
 30
0.0
 40
0.352778
 41
0.352778
  0
VERTEX
  8
0
 10
8.67637
 20
171.679
 30
0.0
 40
0.352778
 41
0.352778
  0
VERTEX
  8
0
 10
5.58138
 20
171.679
 30
0.0
 40
0.352778
 41
0.352778
  0
VERTEX
  8
0
 10
5.58138
 20
178.925
 30
0.0
 40
0.352778
 41
0.352778
  0
SEQEND
 8
0
  0
POLYLINE
  8
0
 62
     0
 66
     1
 10
0
 20
0
 30
0.0
 70
     1
 40
25.4
 41
25.4
  0
VERTEX
  8
0
 10
5.58138
 20
124.462
 30
0.0
 40
0.352778
 41
0.352778
  0
VERTEX
  8
0
 10
8.67637
 20
124.462
 30
0.0
 40
0.352778
 41
0.352778
  0
VERTEX
  8
0
 10
8.67637
 20
117.217
 30
0.0
 40
0.352778
 41
0.352778
  0
VERTEX
  8
0
 10
5.58138
 20
117.217
 30
0.0
 40
0.352778
 41
0.352778
  0
VERTEX
  8
0
 10
5.58138
 20
124.462
 30
0.0
 40
0.352778
 41
0.352778
  0
SEQEND
 8
0
  0
POLYLINE
  8
0
 62
     0
 66
     1
 10
0
 20
0
 30
0.0
 40
25.4
 41
25.4
  0
VERTEX
  8
0
 10
61.3879
 20
63.0011
 30
0.0
 40
0.352778
 41
0.352778
  0
VERTEX
  8
0
 10
61.3879
 20
64.0011
 30
0.0
 40
0.352778
 41
0.352778
  0
VERTEX
  8
0
 10
64.3879
 20
64.0011
 30
0.0
 40
0.352778
 41
0.352778
  0
VERTEX
  8
0
 10
64.3879
 20
83.0761
 30
0.0
 40
0.352778
 41
0.352778
  0
VERTEX
  8
0
 10
61.3879
 20
83.0761
 30
0.0
 40
0.352778
 41
0.352778
  0
VERTEX
  8
0
 10
61.3879
 20
84.0012
 30
0.0
 40
0.352778
 41
0.352778
  0
VERTEX
  8
0
 10
64.3879
 20
84.0012
 30
0.0
 40
0.352778
 41
0.352778
  0
VERTEX
  8
0
 10
64.3879
 20
103.076
 30
0.0
 40
0.352778
 41
0.352778
  0
VERTEX
  8
0
 10
61.3879
 20
103.076
 30
0.0
 40
0.352778
 41
0.352778
  0
VERTEX
  8
0
 10
61.3879
 20
104.001
 30
0.0
 40
0.352778
 41
0.352778
  0
VERTEX
  8
0
 10
64.3879
 20
104.001
 30
0.0
 40
0.352778
 41
0.352778
  0
VERTEX
  8
0
 10
64.3879
 20
123.076
 30
0.0
 40
0.352778
 41
0.352778
  0
VERTEX
  8
0
 10
61.3879
 20
123.076
 30
0.0
 40
0.352778
 41
0.352778
  0
VERTEX
  8
0
 10
61.3879
 20
124.001
 30
0.0
 40
0.352778
 41
0.352778
  0
VERTEX
  8
0
 10
64.3879
 20
124.001
 30
0.0
 40
0.352778
 41
0.352778
  0
VERTEX
  8
0
 10
64.3879
 20
143.076
 30
0.0
 40
0.352778
 41
0.352778
  0
VERTEX
  8
0
 10
61.3879
 20
143.076
 30
0.0
 40
0.352778
 41
0.352778
  0
VERTEX
  8
0
 10
61.3879
 20
144.001
 30
0.0
 40
0.352778
 41
0.352778
  0
VERTEX
  8
0
 10
64.3879
 20
144.001
 30
0.0
 40
0.352778
 41
0.352778
  0
VERTEX
  8
0
 10
64.3879
 20
163.076
 30
0.0
 40
0.352778
 41
0.352778
  0
VERTEX
  8
0
 10
61.3879
 20
163.076
 30
0.0
 40
0.352778
 41
0.352778
  0
VERTEX
  8
0
 10
61.3879
 20
164.076
 30
0.0
 40
0.352778
 41
0.352778
  0
VERTEX
  8
0
 10
57.1765
 20
164.076
 30
0.0
 40
0.352778
 41
0.352778
  0
SEQEND
 8
0
  0
POLYLINE
  8
0
 62
     0
 66
     1
 10
0
 20
0
 30
0.0
 40
25.4
 41
25.4
  0
VERTEX
  8
0
 10
1.17638
 20
35.6533
 30
0.0
 40
0.352778
 41
0.352778
  0
VERTEX
  8
0
 10
1.17638
 20
41.2897
 30
0.0
 40
0.352778
 41
0.352778
  0
VERTEX
  8
0
 10
0.176378
 20
41.2897
 30
0.0
 40
0.352778
 41
0.352778
  0
VERTEX
  8
0
 10
0.176378
 20
57.3649
 30
0.0
 40
0.352778
 41
0.352778
  0
VERTEX
  8
0
 10
1.17638
 20
57.3649
 30
0.0
 40
0.352778
 41
0.352778
  0
VERTEX
  8
0
 10
1.17638
 20
63.0011
 30
0.0
 40
0.352778
 41
0.352778
  0
VERTEX
  8
0
 10
20.2514
 20
63.0011
 30
0.0
 40
0.352778
 41
0.352778
  0
VERTEX
  8
0
 10
20.2514
 20
57.3649
 30
0.0
 40
0.352778
 41
0.352778
  0
VERTEX
  8
0
 10
21.1764
 20
57.3649
 30
0.0
 40
0.352778
 41
0.352778
  0
VERTEX
  8
0
 10
21.1764
 20
63.0011
 30
0.0
 40
0.352778
 41
0.352778
  0
VERTEX
  8
0
 10
40.2515
 20
63.0011
 30
0.0
 40
0.352778
 41
0.352778
  0
VERTEX
  8
0
 10
40.2515
 20
57.3649
 30
0.0
 40
0.352778
 41
0.352778
  0
VERTEX
  8
0
 10
41.1764
 20
57.3649
 30
0.0
 40
0.352778
 41
0.352778
  0
VERTEX
  8
0
 10
41.1764
 20
63.0011
 30
0.0
 40
0.352778
 41
0.352778
  0
VERTEX
  8
0
 10
80.2515
 20
63.0011
 30
0.0
 40
0.352778
 41
0.352778
  0
VERTEX
  8
0
 10
80.2515
 20
57.3649
 30
0.0
 40
0.352778
 41
0.352778
  0
VERTEX
  8
0
 10
81.1765
 20
57.3649
 30
0.0
 40
0.352778
 41
0.352778
  0
VERTEX
  8
0
 10
81.1765
 20
63.0011
 30
0.0
 40
0.352778
 41
0.352778
  0
VERTEX
  8
0
 10
100.252
 20
63.0011
 30
0.0
 40
0.352778
 41
0.352778
  0
VERTEX
  8
0
 10
100.252
 20
35.6533
 30
0.0
 40
0.352778
 41
0.352778
  0
SEQEND
 8
0
  0
POLYLINE
  8
0
 62
     0
 66
     1
 10
0
 20
0
 30
0.0
 40
25.4
 41
25.4
  0
VERTEX
  8
0
 10
60.2515
 20
63.0011
 30
0.0
 40
0.352778
 41
0.352778
  0
VERTEX
  8
0
 10
60.2515
 20
57.3649
 30
0.0
 40
0.352778
 41
0.352778
  0
VERTEX
  8
0
 10
61.1765
 20
57.3649
 30
0.0
 40
0.352778
 41
0.352778
  0
VERTEX
  8
0
 10
61.1765
 20
63.0011
 30
0.0
 40
0.352778
 41
0.352778
  0
SEQEND
 8
0
  0
POLYLINE
  8
0
 62
     0
 66
     1
 10
0
 20
0
 30
0.0
 40
25.4
 41
25.4
  0
VERTEX
  8
0
 10
81.1765
 20
35.6533
 30
0.0
 40
0.352778
 41
0.352778
  0
VERTEX
  8
0
 10
81.1765
 20
41.2897
 30
0.0
 40
0.352778
 41
0.352778
  0
VERTEX
  8
0
 10
80.2515
 20
41.2897
 30
0.0
 40
0.352778
 41
0.352778
  0
VERTEX
  8
0
 10
80.2515
 20
35.6533
 30
0.0
 40
0.352778
 41
0.352778
  0
SEQEND
 8
0
  0
POLYLINE
  8
0
 62
     0
 66
     1
 10
0
 20
0
 30
0.0
 40
25.4
 41
25.4
  0
VERTEX
  8
0
 10
61.1765
 20
35.6533
 30
0.0
 40
0.352778
 41
0.352778
  0
VERTEX
  8
0
 10
61.1765
 20
41.2897
 30
0.0
 40
0.352778
 41
0.352778
  0
VERTEX
  8
0
 10
60.2515
 20
41.2897
 30
0.0
 40
0.352778
 41
0.352778
  0
VERTEX
  8
0
 10
60.2515
 20
35.6533
 30
0.0
 40
0.352778
 41
0.352778
  0
SEQEND
 8
0
  0
POLYLINE
  8
0
 62
     0
 66
     1
 10
0
 20
0
 30
0.0
 40
25.4
 41
25.4
  0
VERTEX
  8
0
 10
41.1764
 20
35.6533
 30
0.0
 40
0.352778
 41
0.352778
  0
VERTEX
  8
0
 10
41.1764
 20
41.2897
 30
0.0
 40
0.352778
 41
0.352778
  0
VERTEX
  8
0
 10
40.2515
 20
41.2897
 30
0.0
 40
0.352778
 41
0.352778
  0
VERTEX
  8
0
 10
40.2515
 20
35.6533
 30
0.0
 40
0.352778
 41
0.352778
  0
SEQEND
 8
0
  0
POLYLINE
  8
0
 62
     0
 66
     1
 10
0
 20
0
 30
0.0
 40
25.4
 41
25.4
  0
VERTEX
  8
0
 10
21.1764
 20
35.6533
 30
0.0
 40
0.352778
 41
0.352778
  0
VERTEX
  8
0
 10
21.1764
 20
41.2897
 30
0.0
 40
0.352778
 41
0.352778
  0
VERTEX
  8
0
 10
20.2514
 20
41.2897
 30
0.0
 40
0.352778
 41
0.352778
  0
VERTEX
  8
0
 10
20.2514
 20
35.6533
 30
0.0
 40
0.352778
 41
0.352778
  0
SEQEND
 8
0
  0
POLYLINE
  8
0
 62
     0
 66
     1
 10
0
 20
0
 30
0.0
 40
25.4
 41
25.4
  0
VERTEX
  8
0
 10
101.252
 20
23.0329
 30
0.0
 40
0.352778
 41
0.352778
  0
VERTEX
  8
0
 10
0.176378
 20
23.0329
 30
0.0
 40
0.352778
 41
0.352778
  0
VERTEX
  8
0
 10
0.176378
 20
35.6533
 30
0.0
 40
0.352778
 41
0.352778
  0
VERTEX
  8
0
 10
101.252
 20
35.6533
 30
0.0
 40
0.352778
 41
0.352778
  0
SEQEND
 8
0
  0
POLYLINE
  8
0
 62
     0
 66
     1
 10
0
 20
0
 30
0.0
 40
25.4
 41
25.4
  0
VERTEX
  8
0
 10
49.6049
 20
63.0011
 30
0.0
 40
0.352778
 41
0.352778
  0
VERTEX
  8
0
 10
49.6049
 20
70.0761
 30
0.0
 40
0.352778
 41
0.352778
  0
VERTEX
  8
0
 10
52.2413
 20
70.0761
 30
0.0
 40
0.352778
 41
0.352778
  0
VERTEX
  8
0
 10
52.2413
 20
90.7285
 30
0.0
 40
0.352778
 41
0.352778
  0
VERTEX
  8
0
 10
31.0435
 20
90.7285
 30
0.0
 40
0.352778
 41
0.352778
  0
VERTEX
  8
0
 10
31.0435
 20
70.0761
 30
0.0
 40
0.352778
 41
0.352778
  0
VERTEX
  8
0
 10
33.6799
 20
70.0761
 30
0.0
 40
0.352778
 41
0.352778
  0
VERTEX
  8
0
 10
33.6799
 20
63.0011
 30
0.0
 40
0.352778
 41
0.352778
  0
SEQEND
 8
0
  0
POLYLINE
  8
0
 62
     0
 66
     1
 10
0
 20
0
 30
0.0
 40
25.4
 41
25.4
  0
VERTEX
  8
0
 10
101.252
 20
10.4124
 30
0.0
 40
0.352778
 41
0.352778
  0
VERTEX
  8
0
 10
0.176378
 20
10.4124
 30
0.0
 40
0.352778
 41
0.352778
  0
VERTEX
  8
0
 10
0.176378
 20
23.0329
 30
0.0
 40
0.352778
 41
0.352778
  0
SEQEND
 8
0
  0
POLYLINE
  8
0
 62
     0
 66
     1
 10
0
 20
0
 30
0.0
 40
25.4
 41
25.4
  0
VERTEX
  8
0
 10
101.252
 20
10.4691
 30
0.0
 40
0.352778
 41
0.352778
  0
VERTEX
  8
0
 10
101.252
 20
9.43164
 30
0.0
 40
0.352778
 41
0.352778
  0
VERTEX
  8
0
 10
102.807
 20
9.43164
 30
0.0
 40
0.352778
 41
0.352778
  0
VERTEX
  8
0
 10
102.807
 20
10.4316
 30
0.0
 40
0.352778
 41
0.352778
  0
VERTEX
  8
0
 10
104.327
 20
10.4316
 30
0.0
 40
0.352778
 41
0.352778
  0
VERTEX
  8
0
 10
104.327
 20
29.5067
 30
0.0
 40
0.352778
 41
0.352778
  0
VERTEX
  8
0
 10
102.807
 20
29.5067
 30
0.0
 40
0.352778
 41
0.352778
  0
VERTEX
  8
0
 10
102.807
 20
30.4317
 30
0.0
 40
0.352778
 41
0.352778
  0
VERTEX
  8
0
 10
104.327
 20
30.4317
 30
0.0
 40
0.352778
 41
0.352778
  0
VERTEX
  8
0
 10
104.327
 20
49.5067
 30
0.0
 40
0.352778
 41
0.352778
  0
VERTEX
  8
0
 10
102.807
 20
49.5067
 30
0.0
 40
0.352778
 41
0.352778
  0
VERTEX
  8
0
 10
102.807
 20
50.4317
 30
0.0
 40
0.352778
 41
0.352778
  0
VERTEX
  8
0
 10
104.327
 20
50.4317
 30
0.0
 40
0.352778
 41
0.352778
  0
VERTEX
  8
0
 10
104.327
 20
69.5067
 30
0.0
 40
0.352778
 41
0.352778
  0
VERTEX
  8
0
 10
102.807
 20
69.5067
 30
0.0
 40
0.352778
 41
0.352778
  0
VERTEX
  8
0
 10
102.807
 20
70.4317
 30
0.0
 40
0.352778
 41
0.352778
  0
VERTEX
  8
0
 10
104.327
 20
70.4317
 30
0.0
 40
0.352778
 41
0.352778
  0
VERTEX
  8
0
 10
104.327
 20
89.5067
 30
0.0
 40
0.352778
 41
0.352778
  0
VERTEX
  8
0
 10
102.807
 20
89.5067
 30
0.0
 40
0.352778
 41
0.352778
  0
VERTEX
  8
0
 10
102.807
 20
90.4318
 30
0.0
 40
0.352778
 41
0.352778
  0
VERTEX
  8
0
 10
104.327
 20
90.4318
 30
0.0
 40
0.352778
 41
0.352778
  0
VERTEX
  8
0
 10
104.327
 20
109.507
 30
0.0
 40
0.352778
 41
0.352778
  0
VERTEX
  8
0
 10
101.252
 20
109.507
 30
0.0
 40
0.352778
 41
0.352778
  0
VERTEX
  8
0
 10
101.252
 20
10.4124
 30
0.0
 40
0.352778
 41
0.352778
  0
SEQEND
 8
0
  0
POLYLINE
  8
0
 62
     0
 66
     1
 10
0
 20
0
 30
0.0
 70
     1
 40
25.4
 41
25.4
  0
VERTEX
  8
0
 10
108.311
 20
60.1308
 30
0.0
 40
0.352778
 41
0.352778
  0
VERTEX
  8
0
 10
108.311
 20
79.2058
 30
0.0
 40
0.352778
 41
0.352778
  0
VERTEX
  8
0
 10
106.811
 20
79.2058
 30
0.0
 40
0.352778
 41
0.352778
  0
VERTEX
  8
0
 10
106.811
 20
80.1308
 30
0.0
 40
0.352778
 41
0.352778
  0
VERTEX
  8
0
 10
108.311
 20
80.1308
 30
0.0
 40
0.352778
 41
0.352778
  0
VERTEX
  8
0
 10
108.311
 20
99.2058
 30
0.0
 40
0.352778
 41
0.352778
  0
VERTEX
  8
0
 10
106.811
 20
99.2058
 30
0.0
 40
0.352778
 41
0.352778
  0
VERTEX
  8
0
 10
106.811
 20
100.131
 30
0.0
 40
0.352778
 41
0.352778
  0
VERTEX
  8
0
 10
108.311
 20
100.131
 30
0.0
 40
0.352778
 41
0.352778
  0
VERTEX
  8
0
 10
108.311
 20
119.206
 30
0.0
 40
0.352778
 41
0.352778
  0
VERTEX
  8
0
 10
106.811
 20
119.206
 30
0.0
 40
0.352778
 41
0.352778
  0
VERTEX
  8
0
 10
106.811
 20
120.206
 30
0.0
 40
0.352778
 41
0.352778
  0
VERTEX
  8
0
 10
105.236
 20
120.206
 30
0.0
 40
0.352778
 41
0.352778
  0
VERTEX
  8
0
 10
105.236
 20
20.1307
 30
0.0
 40
0.352778
 41
0.352778
  0
VERTEX
  8
0
 10
108.311
 20
20.1307
 30
0.0
 40
0.352778
 41
0.352778
  0
VERTEX
  8
0
 10
108.311
 20
39.2058
 30
0.0
 40
0.352778
 41
0.352778
  0
VERTEX
  8
0
 10
106.811
 20
39.2058
 30
0.0
 40
0.352778
 41
0.352778
  0
VERTEX
  8
0
 10
106.811
 20
40.1307
 30
0.0
 40
0.352778
 41
0.352778
  0
VERTEX
  8
0
 10
108.311
 20
40.1307
 30
0.0
 40
0.352778
 41
0.352778
  0
VERTEX
  8
0
 10
108.311
 20
59.2058
 30
0.0
 40
0.352778
 41
0.352778
  0
VERTEX
  8
0
 10
106.811
 20
59.2058
 30
0.0
 40
0.352778
 41
0.352778
  0
VERTEX
  8
0
 10
106.811
 20
60.1308
 30
0.0
 40
0.352778
 41
0.352778
  0
VERTEX
  8
0
 10
108.311
 20
60.1308
 30
0.0
 40
0.352778
 41
0.352778
  0
SEQEND
 8
0
  0
POLYLINE
  8
0
 62
     0
 66
     1
 10
0
 20
0
 30
0.0
 70
     1
 40
25.4
 41
25.4
  0
VERTEX
  8
0
 10
110.899
 20
97.4707
 30
0.0
 40
0.352778
 41
0.352778
  0
VERTEX
  8
0
 10
112.457
 20
97.4707
 30
0.0
 40
0.352778
 41
0.352778
  0
VERTEX
  8
0
 10
112.457
 20
197.546
 30
0.0
 40
0.352778
 41
0.352778
  0
VERTEX
  8
0
 10
109.382
 20
197.546
 30
0.0
 40
0.352778
 41
0.352778
  0
VERTEX
  8
0
 10
109.382
 20
178.471
 30
0.0
 40
0.352778
 41
0.352778
  0
VERTEX
  8
0
 10
110.899
 20
178.471
 30
0.0
 40
0.352778
 41
0.352778
  0
VERTEX
  8
0
 10
110.899
 20
177.546
 30
0.0
 40
0.352778
 41
0.352778
  0
VERTEX
  8
0
 10
109.382
 20
177.546
 30
0.0
 40
0.352778
 41
0.352778
  0
VERTEX
  8
0
 10
109.382
 20
158.471
 30
0.0
 40
0.352778
 41
0.352778
  0
VERTEX
  8
0
 10
110.899
 20
158.471
 30
0.0
 40
0.352778
 41
0.352778
  0
VERTEX
  8
0
 10
110.899
 20
157.546
 30
0.0
 40
0.352778
 41
0.352778
  0
VERTEX
  8
0
 10
109.382
 20
157.546
 30
0.0
 40
0.352778
 41
0.352778
  0
VERTEX
  8
0
 10
109.382
 20
138.471
 30
0.0
 40
0.352778
 41
0.352778
  0
VERTEX
  8
0
 10
110.899
 20
138.471
 30
0.0
 40
0.352778
 41
0.352778
  0
VERTEX
  8
0
 10
110.899
 20
137.546
 30
0.0
 40
0.352778
 41
0.352778
  0
VERTEX
  8
0
 10
109.382
 20
137.546
 30
0.0
 40
0.352778
 41
0.352778
  0
VERTEX
  8
0
 10
109.382
 20
118.471
 30
0.0
 40
0.352778
 41
0.352778
  0
VERTEX
  8
0
 10
110.899
 20
118.471
 30
0.0
 40
0.352778
 41
0.352778
  0
VERTEX
  8
0
 10
110.899
 20
117.546
 30
0.0
 40
0.352778
 41
0.352778
  0
VERTEX
  8
0
 10
109.382
 20
117.546
 30
0.0
 40
0.352778
 41
0.352778
  0
VERTEX
  8
0
 10
109.382
 20
98.4707
 30
0.0
 40
0.352778
 41
0.352778
  0
VERTEX
  8
0
 10
110.899
 20
98.4707
 30
0.0
 40
0.352778
 41
0.352778
  0
VERTEX
  8
0
 10
110.899
 20
97.4707
 30
0.0
 40
0.352778
 41
0.352778
  0
SEQEND
 8
0
  0
POLYLINE
  8
0
 62
     0
 66
     1
 10
0
 20
0
 30
0.0
 40
25.4
 41
25.4
  0
VERTEX
  8
0
 10
0.176378
 20
0.182671
 30
0.0
 40
0.352778
 41
0.352778
  0
VERTEX
  8
0
 10
19.2514
 20
0.182671
 30
0.0
 40
0.352778
 41
0.352778
  0
VERTEX
  8
0
 10
19.2514
 20
1.68267
 30
0.0
 40
0.352778
 41
0.352778
  0
VERTEX
  8
0
 10
20.1764
 20
1.68267
 30
0.0
 40
0.352778
 41
0.352778
  0
VERTEX
  8
0
 10
20.1764
 20
0.182671
 30
0.0
 40
0.352778
 41
0.352778
  0
VERTEX
  8
0
 10
39.2515
 20
0.182671
 30
0.0
 40
0.352778
 41
0.352778
  0
VERTEX
  8
0
 10
39.2515
 20
1.68267
 30
0.0
 40
0.352778
 41
0.352778
  0
VERTEX
  8
0
 10
40.1764
 20
1.68267
 30
0.0
 40
0.352778
 41
0.352778
  0
VERTEX
  8
0
 10
40.1764
 20
0.182671
 30
0.0
 40
0.352778
 41
0.352778
  0
VERTEX
  8
0
 10
59.2515
 20
0.182671
 30
0.0
 40
0.352778
 41
0.352778
  0
VERTEX
  8
0
 10
59.2515
 20
1.68267
 30
0.0
 40
0.352778
 41
0.352778
  0
VERTEX
  8
0
 10
60.1765
 20
1.68267
 30
0.0
 40
0.352778
 41
0.352778
  0
VERTEX
  8
0
 10
60.1765
 20
0.182671
 30
0.0
 40
0.352778
 41
0.352778
  0
VERTEX
  8
0
 10
79.2515
 20
0.182671
 30
0.0
 40
0.352778
 41
0.352778
  0
VERTEX
  8
0
 10
79.2515
 20
1.68267
 30
0.0
 40
0.352778
 41
0.352778
  0
VERTEX
  8
0
 10
80.1765
 20
1.68267
 30
0.0
 40
0.352778
 41
0.352778
  0
VERTEX
  8
0
 10
80.1765
 20
0.182671
 30
0.0
 40
0.352778
 41
0.352778
  0
VERTEX
  8
0
 10
99.2515
 20
0.182671
 30
0.0
 40
0.352778
 41
0.352778
  0
VERTEX
  8
0
 10
99.2515
 20
1.68267
 30
0.0
 40
0.352778
 41
0.352778
  0
VERTEX
  8
0
 10
100.252
 20
1.68267
 30
0.0
 40
0.352778
 41
0.352778
  0
VERTEX
  8
0
 10
100.252
 20
3.25765
 30
0.0
 40
0.352778
 41
0.352778
  0
SEQEND
 8
0
  0
ENDSEC
  0
EOF
