  0
SECTION
  2
HEADER
  9
$ACADVER
  1
AC1009
  9
$EXTMIN
 10
0.0
 20
0.0
 30
0.0
  9
$EXTMAX
 10
1000.0
 20
1000.0
 30
0.0
  9
$FILLMODE
 70
 0
  9
$SPLFRAME
 70
 1
  0
ENDSEC
  0
SECTION
  2
TABLES
  0
TABLE
  2
LAYER
 70
1
  0
LAYER
  2
0
 70
     0
 62
     7
  6
CONTINUOUS
  0
ENDTAB
  0
ENDSEC
  0
SECTION
  2
ENTITIES
  0
POLYLINE
  8
0
 62
     0
 66
     1
 10
0
 20
0
 30
0.0
 40
25.4
 41
25.4
  0
VERTEX
  8
0
 10
101.252
 20
41.0679
 30
0.0
 40
0.352778
 41
0.352778
  0
VERTEX
  8
0
 10
0.176378
 20
41.0679
 30
0.0
 40
0.352778
 41
0.352778
  0
SEQEND
 8
0
  0
POLYLINE
  8
0
 62
     0
 66
     1
 10
0
 20
0
 30
0.0
 40
25.4
 41
25.4
  0
VERTEX
  8
0
 10
101.252
 20
28.4474
 30
0.0
 40
0.352778
 41
0.352778
  0
VERTEX
  8
0
 10
0.176378
 20
28.4474
 30
0.0
 40
0.352778
 41
0.352778
  0
SEQEND
 8
0
  0
POLYLINE
  8
0
 62
     0
 66
     1
 10
0
 20
0
 30
0.0
 40
25.4
 41
25.4
  0
VERTEX
  8
0
 10
224.628
 20
42.9174
 30
0.0
 40
0.352778
 41
0.352778
  0
VERTEX
  8
0
 10
224.628
 20
64.1151
 30
0.0
 40
0.352778
 41
0.352778
  0
SEQEND
 8
0
  0
POLYLINE
  8
0
 62
     0
 66
     1
 10
0
 20
0
 30
0.0
 70
     1
 40
25.4
 41
25.4
  0
VERTEX
  8
0
 10
161.751
 20
21.6479
 30
0.0
 40
0.352778
 41
0.352778
  0
VERTEX
  8
0
 10
123.856
 20
21.6479
 30
0.0
 40
0.352778
 41
0.352778
  0
VERTEX
  8
0
 10
123.856
 20
51.6811
 30
0.0
 40
0.352778
 41
0.352778
  0
VERTEX
  8
0
 10
123.84
 20
51.8064
 30
0.0
 40
0.352778
 41
0.352778
  0
VERTEX
  8
0
 10
123.802
 20
52.1836
 30
0.0
 40
0.352778
 41
0.352778
  0
VERTEX
  8
0
 10
123.768
 20
52.6862
 30
0.0
 40
0.352778
 41
0.352778
  0
VERTEX
  8
0
 10
123.756
 20
53.1886
 30
0.0
 40
0.352778
 41
0.352778
  0
VERTEX
  8
0
 10
123.764
 20
53.69
 30
0.0
 40
0.352778
 41
0.352778
  0
VERTEX
  8
0
 10
123.793
 20
54.1897
 30
0.0
 40
0.352778
 41
0.352778
  0
VERTEX
  8
0
 10
123.843
 20
54.6872
 30
0.0
 40
0.352778
 41
0.352778
  0
VERTEX
  8
0
 10
123.913
 20
55.1819
 30
0.0
 40
0.352778
 41
0.352778
  0
VERTEX
  8
0
 10
124.003
 20
55.6731
 30
0.0
 40
0.352778
 41
0.352778
  0
VERTEX
  8
0
 10
124.114
 20
56.16
 30
0.0
 40
0.352778
 41
0.352778
  0
VERTEX
  8
0
 10
124.245
 20
56.6422
 30
0.0
 40
0.352778
 41
0.352778
  0
VERTEX
  8
0
 10
124.395
 20
57.119
 30
0.0
 40
0.352778
 41
0.352778
  0
VERTEX
  8
0
 10
124.566
 20
57.5897
 30
0.0
 40
0.352778
 41
0.352778
  0
VERTEX
  8
0
 10
124.756
 20
58.0538
 30
0.0
 40
0.352778
 41
0.352778
  0
VERTEX
  8
0
 10
124.965
 20
58.5106
 30
0.0
 40
0.352778
 41
0.352778
  0
VERTEX
  8
0
 10
125.194
 20
58.9593
 30
0.0
 40
0.352778
 41
0.352778
  0
VERTEX
  8
0
 10
125.378
 20
59.2908
 30
0.0
 40
0.352778
 41
0.352778
  0
VERTEX
  8
0
 10
125.442
 20
59.3996
 30
0.0
 40
0.352778
 41
0.352778
  0
VERTEX
  8
0
 10
125.506
 20
59.5082
 30
0.0
 40
0.352778
 41
0.352778
  0
VERTEX
  8
0
 10
125.708
 20
59.829
 30
0.0
 40
0.352778
 41
0.352778
  0
VERTEX
  8
0
 10
125.992
 20
60.2458
 30
0.0
 40
0.352778
 41
0.352778
  0
VERTEX
  8
0
 10
126.291
 20
60.6493
 30
0.0
 40
0.352778
 41
0.352778
  0
VERTEX
  8
0
 10
126.606
 20
61.0393
 30
0.0
 40
0.352778
 41
0.352778
  0
VERTEX
  8
0
 10
126.937
 20
61.4151
 30
0.0
 40
0.352778
 41
0.352778
  0
VERTEX
  8
0
 10
127.282
 20
61.7768
 30
0.0
 40
0.352778
 41
0.352778
  0
VERTEX
  8
0
 10
127.642
 20
62.1233
 30
0.0
 40
0.352778
 41
0.352778
  0
VERTEX
  8
0
 10
128.016
 20
62.4549
 30
0.0
 40
0.352778
 41
0.352778
  0
VERTEX
  8
0
 10
128.402
 20
62.7706
 30
0.0
 40
0.352778
 41
0.352778
  0
VERTEX
  8
0
 10
128.802
 20
63.0701
 30
0.0
 40
0.352778
 41
0.352778
  0
VERTEX
  8
0
 10
129.214
 20
63.3532
 30
0.0
 40
0.352778
 41
0.352778
  0
VERTEX
  8
0
 10
129.638
 20
63.6193
 30
0.0
 40
0.352778
 41
0.352778
  0
VERTEX
  8
0
 10
130.074
 20
63.8681
 30
0.0
 40
0.352778
 41
0.352778
  0
VERTEX
  8
0
 10
130.52
 20
64.099
 30
0.0
 40
0.352778
 41
0.352778
  0
VERTEX
  8
0
 10
130.977
 20
64.3119
 30
0.0
 40
0.352778
 41
0.352778
  0
VERTEX
  8
0
 10
131.326
 20
64.46
 30
0.0
 40
0.352778
 41
0.352778
  0
VERTEX
  8
0
 10
131.443
 20
64.506
 30
0.0
 40
0.352778
 41
0.352778
  0
VERTEX
  8
0
 10
131.783
 20
64.6393
 30
0.0
 40
0.352778
 41
0.352778
  0
VERTEX
  8
0
 10
132.816
 20
65.0069
 30
0.0
 40
0.352778
 41
0.352778
  0
VERTEX
  8
0
 10
134.204
 20
65.441
 30
0.0
 40
0.352778
 41
0.352778
  0
VERTEX
  8
0
 10
135.608
 20
65.8083
 30
0.0
 40
0.352778
 41
0.352778
  0
VERTEX
  8
0
 10
137.023
 20
66.1088
 30
0.0
 40
0.352778
 41
0.352778
  0
VERTEX
  8
0
 10
138.447
 20
66.3425
 30
0.0
 40
0.352778
 41
0.352778
  0
VERTEX
  8
0
 10
139.878
 20
66.5094
 30
0.0
 40
0.352778
 41
0.352778
  0
VERTEX
  8
0
 10
141.315
 20
66.6096
 30
0.0
 40
0.352778
 41
0.352778
  0
VERTEX
  8
0
 10
142.753
 20
66.6431
 30
0.0
 40
0.352778
 41
0.352778
  0
VERTEX
  8
0
 10
144.192
 20
66.6096
 30
0.0
 40
0.352778
 41
0.352778
  0
VERTEX
  8
0
 10
145.628
 20
66.5094
 30
0.0
 40
0.352778
 41
0.352778
  0
VERTEX
  8
0
 10
147.06
 20
66.3425
 30
0.0
 40
0.352778
 41
0.352778
  0
VERTEX
  8
0
 10
148.483
 20
66.1088
 30
0.0
 40
0.352778
 41
0.352778
  0
VERTEX
  8
0
 10
149.899
 20
65.8083
 30
0.0
 40
0.352778
 41
0.352778
  0
VERTEX
  8
0
 10
151.301
 20
65.441
 30
0.0
 40
0.352778
 41
0.352778
  0
VERTEX
  8
0
 10
152.69
 20
65.0069
 30
0.0
 40
0.352778
 41
0.352778
  0
VERTEX
  8
0
 10
153.724
 20
64.6393
 30
0.0
 40
0.352778
 41
0.352778
  0
VERTEX
  8
0
 10
154.064
 20
64.506
 30
0.0
 40
0.352778
 41
0.352778
  0
VERTEX
  8
0
 10
154.169
 20
64.4646
 30
0.0
 40
0.352778
 41
0.352778
  0
VERTEX
  8
0
 10
154.485
 20
64.3318
 30
0.0
 40
0.352778
 41
0.352778
  0
VERTEX
  8
0
 10
154.897
 20
64.1424
 30
0.0
 40
0.352778
 41
0.352778
  0
VERTEX
  8
0
 10
155.303
 20
63.9381
 30
0.0
 40
0.352778
 41
0.352778
  0
VERTEX
  8
0
 10
155.699
 20
63.719
 30
0.0
 40
0.352778
 41
0.352778
  0
VERTEX
  8
0
 10
156.086
 20
63.4857
 30
0.0
 40
0.352778
 41
0.352778
  0
VERTEX
  8
0
 10
156.464
 20
63.2383
 30
0.0
 40
0.352778
 41
0.352778
  0
VERTEX
  8
0
 10
156.832
 20
62.9772
 30
0.0
 40
0.352778
 41
0.352778
  0
VERTEX
  8
0
 10
157.19
 20
62.7026
 30
0.0
 40
0.352778
 41
0.352778
  0
VERTEX
  8
0
 10
157.538
 20
62.415
 30
0.0
 40
0.352778
 41
0.352778
  0
VERTEX
  8
0
 10
157.874
 20
62.1143
 30
0.0
 40
0.352778
 41
0.352778
  0
VERTEX
  8
0
 10
158.2
 20
61.8012
 30
0.0
 40
0.352778
 41
0.352778
  0
VERTEX
  8
0
 10
158.514
 20
61.4758
 30
0.0
 40
0.352778
 41
0.352778
  0
VERTEX
  8
0
 10
158.815
 20
61.1385
 30
0.0
 40
0.352778
 41
0.352778
  0
VERTEX
  8
0
 10
159.106
 20
60.7894
 30
0.0
 40
0.352778
 41
0.352778
  0
VERTEX
  8
0
 10
159.382
 20
60.429
 30
0.0
 40
0.352778
 41
0.352778
  0
VERTEX
  8
0
 10
159.582
 20
60.1517
 30
0.0
 40
0.352778
 41
0.352778
  0
VERTEX
  8
0
 10
159.646
 20
60.0575
 30
0.0
 40
0.352778
 41
0.352778
  0
VERTEX
  8
0
 10
159.774
 20
59.8697
 30
0.0
 40
0.352778
 41
0.352778
  0
VERTEX
  8
0
 10
160.131
 20
59.2871
 30
0.0
 40
0.352778
 41
0.352778
  0
VERTEX
  8
0
 10
160.553
 20
58.4858
 30
0.0
 40
0.352778
 41
0.352778
  0
VERTEX
  8
0
 10
160.914
 20
57.6576
 30
0.0
 40
0.352778
 41
0.352778
  0
VERTEX
  8
0
 10
161.212
 20
56.8058
 30
0.0
 40
0.352778
 41
0.352778
  0
VERTEX
  8
0
 10
161.446
 20
55.9342
 30
0.0
 40
0.352778
 41
0.352778
  0
VERTEX
  8
0
 10
161.615
 20
55.0464
 30
0.0
 40
0.352778
 41
0.352778
  0
VERTEX
  8
0
 10
161.717
 20
54.146
 30
0.0
 40
0.352778
 41
0.352778
  0
VERTEX
  8
0
 10
161.751
 20
53.464
 30
0.0
 40
0.352778
 41
0.352778
  0
VERTEX
  8
0
 10
161.751
 20
53.2367
 30
0.0
 40
0.352778
 41
0.352778
  0
VERTEX
  8
0
 10
161.751
 20
21.6479
 30
0.0
 40
0.352778
 41
0.352778
  0
SEQEND
 8
0
  0
POLYLINE
  8
0
 62
     0
 66
     1
 10
0
 20
0
 30
0.0
 40
25.4
 41
25.4
  0
VERTEX
  8
0
 10
124.418
 20
21.6479
 30
0.0
 40
0.352778
 41
0.352778
  0
VERTEX
  8
0
 10
124.418
 20
49.2417
 30
0.0
 40
0.352778
 41
0.352778
  0
VERTEX
  8
0
 10
124.418
 20
49.4503
 30
0.0
 40
0.352778
 41
0.352778
  0
VERTEX
  8
0
 10
124.449
 20
50.0763
 30
0.0
 40
0.352778
 41
0.352778
  0
VERTEX
  8
0
 10
124.542
 20
50.9026
 30
0.0
 40
0.352778
 41
0.352778
  0
VERTEX
  8
0
 10
124.697
 20
51.7175
 30
0.0
 40
0.352778
 41
0.352778
  0
VERTEX
  8
0
 10
124.912
 20
52.5174
 30
0.0
 40
0.352778
 41
0.352778
  0
VERTEX
  8
0
 10
125.185
 20
53.2992
 30
0.0
 40
0.352778
 41
0.352778
  0
VERTEX
  8
0
 10
125.517
 20
54.0593
 30
0.0
 40
0.352778
 41
0.352778
  0
VERTEX
  8
0
 10
125.905
 20
54.7947
 30
0.0
 40
0.352778
 41
0.352778
  0
VERTEX
  8
0
 10
126.232
 20
55.3294
 30
0.0
 40
0.352778
 41
0.352778
  0
VERTEX
  8
0
 10
126.349
 20
55.5018
 30
0.0
 40
0.352778
 41
0.352778
  0
VERTEX
  8
0
 10
126.467
 20
55.6742
 30
0.0
 40
0.352778
 41
0.352778
  0
VERTEX
  8
0
 10
126.846
 20
56.1736
 30
0.0
 40
0.352778
 41
0.352778
  0
VERTEX
  8
0
 10
127.389
 20
56.8036
 30
0.0
 40
0.352778
 41
0.352778
  0
VERTEX
  8
0
 10
127.975
 20
57.3896
 30
0.0
 40
0.352778
 41
0.352778
  0
VERTEX
  8
0
 10
128.603
 20
57.9296
 30
0.0
 40
0.352778
 41
0.352778
  0
VERTEX
  8
0
 10
129.27
 20
58.4211
 30
0.0
 40
0.352778
 41
0.352778
  0
VERTEX
  8
0
 10
129.972
 20
58.8624
 30
0.0
 40
0.352778
 41
0.352778
  0
VERTEX
  8
0
 10
130.708
 20
59.2508
 30
0.0
 40
0.352778
 41
0.352778
  0
VERTEX
  8
0
 10
131.279
 20
59.5085
 30
0.0
 40
0.352778
 41
0.352778
  0
VERTEX
  8
0
 10
131.473
 20
59.5846
 30
0.0
 40
0.352778
 41
0.352778
  0
VERTEX
  8
0
 10
131.8
 20
59.7125
 30
0.0
 40
0.352778
 41
0.352778
  0
VERTEX
  8
0
 10
132.792
 20
60.066
 30
0.0
 40
0.352778
 41
0.352778
  0
VERTEX
  8
0
 10
134.129
 20
60.4846
 30
0.0
 40
0.352778
 41
0.352778
  0
VERTEX
  8
0
 10
135.483
 20
60.84
 30
0.0
 40
0.352778
 41
0.352778
  0
VERTEX
  8
0
 10
136.851
 20
61.1317
 30
0.0
 40
0.352778
 41
0.352778
  0
VERTEX
  8
0
 10
138.231
 20
61.3592
 30
0.0
 40
0.352778
 41
0.352778
  0
VERTEX
  8
0
 10
139.622
 20
61.5222
 30
0.0
 40
0.352778
 41
0.352778
  0
VERTEX
  8
0
 10
141.019
 20
61.6203
 30
0.0
 40
0.352778
 41
0.352778
  0
VERTEX
  8
0
 10
142.072
 20
61.6531
 30
0.0
 40
0.352778
 41
0.352778
  0
VERTEX
  8
0
 10
142.422
 20
61.6531
 30
0.0
 40
0.352778
 41
0.352778
  0
VERTEX
  8
0
 10
142.422
 20
21.6479
 30
0.0
 40
0.352778
 41
0.352778
  0
SEQEND
 8
0
  0
POLYLINE
  8
0
 62
     0
 66
     1
 10
0
 20
0
 30
0.0
 40
25.4
 41
25.4
  0
VERTEX
  8
0
 10
224.626
 20
54.7844
 30
0.0
 40
0.352778
 41
0.352778
  0
VERTEX
  8
0
 10
217.553
 20
54.7844
 30
0.0
 40
0.352778
 41
0.352778
  0
VERTEX
  8
0
 10
217.553
 20
52.1481
 30
0.0
 40
0.352778
 41
0.352778
  0
VERTEX
  8
0
 10
196.9
 20
52.1481
 30
0.0
 40
0.352778
 41
0.352778
  0
VERTEX
  8
0
 10
196.9
 20
73.3458
 30
0.0
 40
0.352778
 41
0.352778
  0
VERTEX
  8
0
 10
217.553
 20
73.3458
 30
0.0
 40
0.352778
 41
0.352778
  0
VERTEX
  8
0
 10
217.553
 20
70.7096
 30
0.0
 40
0.352778
 41
0.352778
  0
VERTEX
  8
0
 10
224.626
 20
70.7096
 30
0.0
 40
0.352778
 41
0.352778
  0
VERTEX
  8
0
 10
224.626
 20
76.4208
 30
0.0
 40
0.352778
 41
0.352778
  0
VERTEX
  8
0
 10
203.776
 20
76.4208
 30
0.0
 40
0.352778
 41
0.352778
  0
VERTEX
  8
0
 10
203.776
 20
74.9208
 30
0.0
 40
0.352778
 41
0.352778
  0
VERTEX
  8
0
 10
202.851
 20
74.9208
 30
0.0
 40
0.352778
 41
0.352778
  0
VERTEX
  8
0
 10
202.851
 20
76.4208
 30
0.0
 40
0.352778
 41
0.352778
  0
VERTEX
  8
0
 10
196.862
 20
76.4208
 30
0.0
 40
0.352778
 41
0.352778
  0
VERTEX
  8
0
 10
196.686
 20
76.4208
 30
0.0
 40
0.352778
 41
0.352778
  0
VERTEX
  8
0
 10
196.16
 20
76.4029
 30
0.0
 40
0.352778
 41
0.352778
  0
VERTEX
  8
0
 10
195.462
 20
76.3492
 30
0.0
 40
0.352778
 41
0.352778
  0
VERTEX
  8
0
 10
194.771
 20
76.2601
 30
0.0
 40
0.352778
 41
0.352778
  0
VERTEX
  8
0
 10
194.087
 20
76.1365
 30
0.0
 40
0.352778
 41
0.352778
  0
VERTEX
  8
0
 10
193.413
 20
75.9788
 30
0.0
 40
0.352778
 41
0.352778
  0
VERTEX
  8
0
 10
192.749
 20
75.7875
 30
0.0
 40
0.352778
 41
0.352778
  0
VERTEX
  8
0
 10
192.096
 20
75.5631
 30
0.0
 40
0.352778
 41
0.352778
  0
VERTEX
  8
0
 10
191.454
 20
75.3061
 30
0.0
 40
0.352778
 41
0.352778
  0
VERTEX
  8
0
 10
190.828
 20
75.0172
 30
0.0
 40
0.352778
 41
0.352778
  0
VERTEX
  8
0
 10
190.215
 20
74.6968
 30
0.0
 40
0.352778
 41
0.352778
  0
VERTEX
  8
0
 10
189.619
 20
74.3456
 30
0.0
 40
0.352778
 41
0.352778
  0
VERTEX
  8
0
 10
189.042
 20
73.9638
 30
0.0
 40
0.352778
 41
0.352778
  0
VERTEX
  8
0
 10
188.482
 20
73.5521
 30
0.0
 40
0.352778
 41
0.352778
  0
VERTEX
  8
0
 10
187.943
 20
73.1112
 30
0.0
 40
0.352778
 41
0.352778
  0
VERTEX
  8
0
 10
187.425
 20
72.6415
 30
0.0
 40
0.352778
 41
0.352778
  0
VERTEX
  8
0
 10
187.049
 20
72.2711
 30
0.0
 40
0.352778
 41
0.352778
  0
VERTEX
  8
0
 10
186.928
 20
72.1435
 30
0.0
 40
0.352778
 41
0.352778
  0
VERTEX
  8
0
 10
186.806
 20
71.8817
 30
0.0
 40
0.352778
 41
0.352778
  0
VERTEX
  8
0
 10
186.462
 20
71.0832
 30
0.0
 40
0.352778
 41
0.352778
  0
VERTEX
  8
0
 10
186.053
 20
70.0021
 30
0.0
 40
0.352778
 41
0.352778
  0
VERTEX
  8
0
 10
185.701
 20
68.9026
 30
0.0
 40
0.352778
 41
0.352778
  0
VERTEX
  8
0
 10
185.408
 20
67.7869
 30
0.0
 40
0.352778
 41
0.352778
  0
VERTEX
  8
0
 10
185.175
 20
66.6575
 30
0.0
 40
0.352778
 41
0.352778
  0
VERTEX
  8
0
 10
185
 20
65.5165
 30
0.0
 40
0.352778
 41
0.352778
  0
VERTEX
  8
0
 10
184.885
 20
64.3665
 30
0.0
 40
0.352778
 41
0.352778
  0
VERTEX
  8
0
 10
184.836
 20
63.4989
 30
0.0
 40
0.352778
 41
0.352778
  0
VERTEX
  8
0
 10
184.829
 20
63.2094
 30
0.0
 40
0.352778
 41
0.352778
  0
VERTEX
  8
0
 10
186.199
 20
63.2094
 30
0.0
 40
0.352778
 41
0.352778
  0
VERTEX
  8
0
 10
186.194
 20
63.1325
 30
0.0
 40
0.352778
 41
0.352778
  0
VERTEX
  8
0
 10
186.194
 20
62.3615
 30
0.0
 40
0.352778
 41
0.352778
  0
VERTEX
  8
0
 10
186.199
 20
62.2844
 30
0.0
 40
0.352778
 41
0.352778
  0
VERTEX
  8
0
 10
184.829
 20
62.2844
 30
0.0
 40
0.352778
 41
0.352778
  0
VERTEX
  8
0
 10
184.836
 20
61.9951
 30
0.0
 40
0.352778
 41
0.352778
  0
VERTEX
  8
0
 10
184.885
 20
61.1275
 30
0.0
 40
0.352778
 41
0.352778
  0
VERTEX
  8
0
 10
185
 20
59.9775
 30
0.0
 40
0.352778
 41
0.352778
  0
VERTEX
  8
0
 10
185.175
 20
58.8365
 30
0.0
 40
0.352778
 41
0.352778
  0
VERTEX
  8
0
 10
185.408
 20
57.7071
 30
0.0
 40
0.352778
 41
0.352778
  0
VERTEX
  8
0
 10
185.701
 20
56.5914
 30
0.0
 40
0.352778
 41
0.352778
  0
VERTEX
  8
0
 10
186.053
 20
55.4919
 30
0.0
 40
0.352778
 41
0.352778
  0
VERTEX
  8
0
 10
186.462
 20
54.4108
 30
0.0
 40
0.352778
 41
0.352778
  0
VERTEX
  8
0
 10
186.806
 20
53.6124
 30
0.0
 40
0.352778
 41
0.352778
  0
VERTEX
  8
0
 10
186.928
 20
53.3506
 30
0.0
 40
0.352778
 41
0.352778
  0
VERTEX
  8
0
 10
187.049
 20
53.2229
 30
0.0
 40
0.352778
 41
0.352778
  0
VERTEX
  8
0
 10
187.425
 20
52.8525
 30
0.0
 40
0.352778
 41
0.352778
  0
VERTEX
  8
0
 10
187.943
 20
52.3828
 30
0.0
 40
0.352778
 41
0.352778
  0
VERTEX
  8
0
 10
188.482
 20
51.9419
 30
0.0
 40
0.352778
 41
0.352778
  0
VERTEX
  8
0
 10
189.042
 20
51.5303
 30
0.0
 40
0.352778
 41
0.352778
  0
VERTEX
  8
0
 10
189.619
 20
51.1486
 30
0.0
 40
0.352778
 41
0.352778
  0
VERTEX
  8
0
 10
190.215
 20
50.7972
 30
0.0
 40
0.352778
 41
0.352778
  0
VERTEX
  8
0
 10
190.828
 20
50.4769
 30
0.0
 40
0.352778
 41
0.352778
  0
VERTEX
  8
0
 10
191.454
 20
50.1879
 30
0.0
 40
0.352778
 41
0.352778
  0
VERTEX
  8
0
 10
192.096
 20
49.9311
 30
0.0
 40
0.352778
 41
0.352778
  0
VERTEX
  8
0
 10
192.749
 20
49.7067
 30
0.0
 40
0.352778
 41
0.352778
  0
VERTEX
  8
0
 10
193.413
 20
49.5153
 30
0.0
 40
0.352778
 41
0.352778
  0
VERTEX
  8
0
 10
194.087
 20
49.3575
 30
0.0
 40
0.352778
 41
0.352778
  0
VERTEX
  8
0
 10
194.771
 20
49.2339
 30
0.0
 40
0.352778
 41
0.352778
  0
VERTEX
  8
0
 10
195.462
 20
49.145
 30
0.0
 40
0.352778
 41
0.352778
  0
VERTEX
  8
0
 10
196.16
 20
49.0913
 30
0.0
 40
0.352778
 41
0.352778
  0
VERTEX
  8
0
 10
196.686
 20
49.0732
 30
0.0
 40
0.352778
 41
0.352778
  0
VERTEX
  8
0
 10
196.862
 20
49.0732
 30
0.0
 40
0.352778
 41
0.352778
  0
VERTEX
  8
0
 10
202.851
 20
49.0732
 30
0.0
 40
0.352778
 41
0.352778
  0
VERTEX
  8
0
 10
202.851
 20
50.5732
 30
0.0
 40
0.352778
 41
0.352778
  0
VERTEX
  8
0
 10
203.776
 20
50.5732
 30
0.0
 40
0.352778
 41
0.352778
  0
VERTEX
  8
0
 10
203.776
 20
49.0732
 30
0.0
 40
0.352778
 41
0.352778
  0
VERTEX
  8
0
 10
224.626
 20
49.0732
 30
0.0
 40
0.352778
 41
0.352778
  0
SEQEND
 8
0
  0
POLYLINE
  8
0
 62
     0
 66
     1
 10
0
 20
0
 30
0.0
 70
     1
 40
25.4
 41
25.4
  0
VERTEX
  8
0
 10
194.825
 20
64.9997
 30
0.0
 40
0.352778
 41
0.352778
  0
VERTEX
  8
0
 10
194.756
 20
64.9378
 30
0.0
 40
0.352778
 41
0.352778
  0
VERTEX
  8
0
 10
194.565
 20
64.7351
 30
0.0
 40
0.352778
 41
0.352778
  0
VERTEX
  8
0
 10
194.342
 20
64.4422
 30
0.0
 40
0.352778
 41
0.352778
  0
VERTEX
  8
0
 10
194.154
 20
64.1242
 30
0.0
 40
0.352778
 41
0.352778
  0
VERTEX
  8
0
 10
194.039
 20
63.8714
 30
0.0
 40
0.352778
 41
0.352778
  0
VERTEX
  8
0
 10
194.007
 20
63.7844
 30
0.0
 40
0.352778
 41
0.352778
  0
VERTEX
  8
0
 10
187.928
 20
63.7844
 30
0.0
 40
0.352778
 41
0.352778
  0
VERTEX
  8
0
 10
187.939
 20
63.9833
 30
0.0
 40
0.352778
 41
0.352778
  0
VERTEX
  8
0
 10
187.989
 20
64.5792
 30
0.0
 40
0.352778
 41
0.352778
  0
VERTEX
  8
0
 10
188.082
 20
65.3694
 30
0.0
 40
0.352778
 41
0.352778
  0
VERTEX
  8
0
 10
188.208
 20
66.1544
 30
0.0
 40
0.352778
 41
0.352778
  0
VERTEX
  8
0
 10
188.368
 20
66.9331
 30
0.0
 40
0.352778
 41
0.352778
  0
VERTEX
  8
0
 10
188.56
 20
67.7043
 30
0.0
 40
0.352778
 41
0.352778
  0
VERTEX
  8
0
 10
188.783
 20
68.4672
 30
0.0
 40
0.352778
 41
0.352778
  0
VERTEX
  8
0
 10
189.039
 20
69.2208
 30
0.0
 40
0.352778
 41
0.352778
  0
VERTEX
  8
0
 10
189.251
 20
69.7797
 30
0.0
 40
0.352778
 41
0.352778
  0
VERTEX
  8
0
 10
189.326
 20
69.9639
 30
0.0
 40
0.352778
 41
0.352778
  0
VERTEX
  8
0
 10
189.349
 20
70.0157
 30
0.0
 40
0.352778
 41
0.352778
  0
VERTEX
  8
0
 10
189.424
 20
70.166
 30
0.0
 40
0.352778
 41
0.352778
  0
VERTEX
  8
0
 10
189.543
 20
70.3551
 30
0.0
 40
0.352778
 41
0.352778
  0
VERTEX
  8
0
 10
189.682
 20
70.5294
 30
0.0
 40
0.352778
 41
0.352778
  0
VERTEX
  8
0
 10
189.8
 20
70.6501
 30
0.0
 40
0.352778
 41
0.352778
  0
VERTEX
  8
0
 10
189.842
 20
70.6872
 30
0.0
 40
0.352778
 41
0.352778
  0
VERTEX
  8
0
 10
189.974
 20
70.804
 30
0.0
 40
0.352778
 41
0.352778
  0
VERTEX
  8
0
 10
190.386
 20
71.1367
 30
0.0
 40
0.352778
 41
0.352778
  0
VERTEX
  8
0
 10
190.956
 20
71.5476
 30
0.0
 40
0.352778
 41
0.352778
  0
VERTEX
  8
0
 10
191.551
 20
71.9192
 30
0.0
 40
0.352778
 41
0.352778
  0
VERTEX
  8
0
 10
192.169
 20
72.2501
 30
0.0
 40
0.352778
 41
0.352778
  0
VERTEX
  8
0
 10
192.807
 20
72.5396
 30
0.0
 40
0.352778
 41
0.352778
  0
VERTEX
  8
0
 10
193.464
 20
72.7864
 30
0.0
 40
0.352778
 41
0.352778
  0
VERTEX
  8
0
 10
194.138
 20
72.9896
 30
0.0
 40
0.352778
 41
0.352778
  0
VERTEX
  8
0
 10
194.651
 20
73.1143
 30
0.0
 40
0.352778
 41
0.352778
  0
VERTEX
  8
0
 10
194.825
 20
73.1482
 30
0.0
 40
0.352778
 41
0.352778
  0
VERTEX
  8
0
 10
194.825
 20
64.9997
 30
0.0
 40
0.352778
 41
0.352778
  0
SEQEND
 8
0
  0
POLYLINE
  8
0
 62
     0
 66
     1
 10
0
 20
0
 30
0.0
 70
     1
 40
25.4
 41
25.4
  0
VERTEX
  8
0
 10
187.001
 20
71.9535
 30
0.0
 40
0.352778
 41
0.352778
  0
VERTEX
  8
0
 10
187.044
 20
72.0183
 30
0.0
 40
0.352778
 41
0.352778
  0
VERTEX
  8
0
 10
187.276
 20
72.3294
 30
0.0
 40
0.352778
 41
0.352778
  0
VERTEX
  8
0
 10
187.531
 20
72.6224
 30
0.0
 40
0.352778
 41
0.352778
  0
VERTEX
  8
0
 10
187.585
 20
72.6781
 30
0.0
 40
0.352778
 41
0.352778
  0
VERTEX
  8
0
 10
188.581
 20
71.6824
 30
0.0
 40
0.352778
 41
0.352778
  0
VERTEX
  8
0
 10
187.926
 20
71.0282
 30
0.0
 40
0.352778
 41
0.352778
  0
VERTEX
  8
0
 10
187.001
 20
71.9535
 30
0.0
 40
0.352778
 41
0.352778
  0
SEQEND
 8
0
  0
POLYLINE
  8
0
 62
     0
 66
     1
 10
0
 20
0
 30
0.0
 70
     1
 40
25.4
 41
25.4
  0
VERTEX
  8
0
 10
188.033
 20
54.3597
 30
0.0
 40
0.352778
 41
0.352778
  0
VERTEX
  8
0
 10
188.475
 20
53.9178
 30
0.0
 40
0.352778
 41
0.352778
  0
VERTEX
  8
0
 10
187.482
 20
52.925
 30
0.0
 40
0.352778
 41
0.352778
  0
VERTEX
  8
0
 10
187.447
 20
52.9637
 30
0.0
 40
0.352778
 41
0.352778
  0
VERTEX
  8
0
 10
187.278
 20
53.1636
 30
0.0
 40
0.352778
 41
0.352778
  0
VERTEX
  8
0
 10
187.118
 20
53.3718
 30
0.0
 40
0.352778
 41
0.352778
  0
VERTEX
  8
0
 10
187.087
 20
53.4146
 30
0.0
 40
0.352778
 41
0.352778
  0
VERTEX
  8
0
 10
188.033
 20
54.3597
 30
0.0
 40
0.352778
 41
0.352778
  0
SEQEND
 8
0
  0
POLYLINE
  8
0
 62
     0
 66
     1
 10
0
 20
0
 30
0.0
 70
     1
 40
25.4
 41
25.4
  0
VERTEX
  8
0
 10
194.825
 20
52.3458
 30
0.0
 40
0.352778
 41
0.352778
  0
VERTEX
  8
0
 10
194.651
 20
52.3797
 30
0.0
 40
0.352778
 41
0.352778
  0
VERTEX
  8
0
 10
194.138
 20
52.5044
 30
0.0
 40
0.352778
 41
0.352778
  0
VERTEX
  8
0
 10
193.464
 20
52.7076
 30
0.0
 40
0.352778
 41
0.352778
  0
VERTEX
  8
0
 10
192.807
 20
52.9544
 30
0.0
 40
0.352778
 41
0.352778
  0
VERTEX
  8
0
 10
192.169
 20
53.2439
 30
0.0
 40
0.352778
 41
0.352778
  0
VERTEX
  8
0
 10
191.551
 20
53.5749
 30
0.0
 40
0.352778
 41
0.352778
  0
VERTEX
  8
0
 10
190.956
 20
53.9464
 30
0.0
 40
0.352778
 41
0.352778
  0
VERTEX
  8
0
 10
190.386
 20
54.3574
 30
0.0
 40
0.352778
 41
0.352778
  0
VERTEX
  8
0
 10
189.974
 20
54.69
 30
0.0
 40
0.352778
 41
0.352778
  0
VERTEX
  8
0
 10
189.842
 20
54.8068
 30
0.0
 40
0.352778
 41
0.352778
  0
VERTEX
  8
0
 10
189.8
 20
54.8438
 30
0.0
 40
0.352778
 41
0.352778
  0
VERTEX
  8
0
 10
189.682
 20
54.9646
 30
0.0
 40
0.352778
 41
0.352778
  0
VERTEX
  8
0
 10
189.543
 20
55.1389
 30
0.0
 40
0.352778
 41
0.352778
  0
VERTEX
  8
0
 10
189.424
 20
55.3281
 30
0.0
 40
0.352778
 41
0.352778
  0
VERTEX
  8
0
 10
189.349
 20
55.4785
 30
0.0
 40
0.352778
 41
0.352778
  0
VERTEX
  8
0
 10
189.326
 20
55.5301
 30
0.0
 40
0.352778
 41
0.352778
  0
VERTEX
  8
0
 10
189.251
 20
55.7143
 30
0.0
 40
0.352778
 41
0.352778
  0
VERTEX
  8
0
 10
189.039
 20
56.2732
 30
0.0
 40
0.352778
 41
0.352778
  0
VERTEX
  8
0
 10
188.783
 20
57.0268
 30
0.0
 40
0.352778
 41
0.352778
  0
VERTEX
  8
0
 10
188.56
 20
57.7897
 30
0.0
 40
0.352778
 41
0.352778
  0
VERTEX
  8
0
 10
188.368
 20
58.561
 30
0.0
 40
0.352778
 41
0.352778
  0
VERTEX
  8
0
 10
188.208
 20
59.3396
 30
0.0
 40
0.352778
 41
0.352778
  0
VERTEX
  8
0
 10
188.082
 20
60.1246
 30
0.0
 40
0.352778
 41
0.352778
  0
VERTEX
  8
0
 10
187.989
 20
60.915
 30
0.0
 40
0.352778
 41
0.352778
  0
VERTEX
  8
0
 10
187.939
 20
61.5107
 30
0.0
 40
0.352778
 41
0.352778
  0
VERTEX
  8
0
 10
187.928
 20
61.7094
 30
0.0
 40
0.352778
 41
0.352778
  0
VERTEX
  8
0
 10
194.007
 20
61.7094
 30
0.0
 40
0.352778
 41
0.352778
  0
VERTEX
  8
0
 10
194.039
 20
61.6226
 30
0.0
 40
0.352778
 41
0.352778
  0
VERTEX
  8
0
 10
194.154
 20
61.3699
 30
0.0
 40
0.352778
 41
0.352778
  0
VERTEX
  8
0
 10
194.342
 20
61.0518
 30
0.0
 40
0.352778
 41
0.352778
  0
VERTEX
  8
0
 10
194.565
 20
60.7589
 30
0.0
 40
0.352778
 41
0.352778
  0
VERTEX
  8
0
 10
194.756
 20
60.5562
 30
0.0
 40
0.352778
 41
0.352778
  0
VERTEX
  8
0
 10
194.825
 20
60.4942
 30
0.0
 40
0.352778
 41
0.352778
  0
VERTEX
  8
0
 10
194.825
 20
52.3458
 30
0.0
 40
0.352778
 41
0.352778
  0
SEQEND
 8
0
  0
POLYLINE
  8
0
 62
     0
 66
     1
 10
0
 20
0
 30
0.0
 40
25.4
 41
25.4
  0
VERTEX
  8
0
 10
224.626
 20
48.6288
 30
0.0
 40
0.352778
 41
0.352778
  0
VERTEX
  8
0
 10
203.776
 20
48.6288
 30
0.0
 40
0.352778
 41
0.352778
  0
VERTEX
  8
0
 10
203.776
 20
47.1288
 30
0.0
 40
0.352778
 41
0.352778
  0
VERTEX
  8
0
 10
202.851
 20
47.1288
 30
0.0
 40
0.352778
 41
0.352778
  0
VERTEX
  8
0
 10
202.851
 20
48.6288
 30
0.0
 40
0.352778
 41
0.352778
  0
VERTEX
  8
0
 10
196.862
 20
48.6288
 30
0.0
 40
0.352778
 41
0.352778
  0
VERTEX
  8
0
 10
196.686
 20
48.6288
 30
0.0
 40
0.352778
 41
0.352778
  0
VERTEX
  8
0
 10
196.16
 20
48.6107
 30
0.0
 40
0.352778
 41
0.352778
  0
VERTEX
  8
0
 10
195.462
 20
48.5569
 30
0.0
 40
0.352778
 41
0.352778
  0
VERTEX
  8
0
 10
194.771
 20
48.4681
 30
0.0
 40
0.352778
 41
0.352778
  0
VERTEX
  8
0
 10
194.087
 20
48.3444
 30
0.0
 40
0.352778
 41
0.352778
  0
VERTEX
  8
0
 10
193.413
 20
48.1867
 30
0.0
 40
0.352778
 41
0.352778
  0
VERTEX
  8
0
 10
192.749
 20
47.9953
 30
0.0
 40
0.352778
 41
0.352778
  0
VERTEX
  8
0
 10
192.096
 20
47.7708
 30
0.0
 40
0.352778
 41
0.352778
  0
VERTEX
  8
0
 10
191.454
 20
47.514
 30
0.0
 40
0.352778
 41
0.352778
  0
VERTEX
  8
0
 10
190.828
 20
47.225
 30
0.0
 40
0.352778
 41
0.352778
  0
VERTEX
  8
0
 10
190.215
 20
46.9047
 30
0.0
 40
0.352778
 41
0.352778
  0
VERTEX
  8
0
 10
189.619
 20
46.5533
 30
0.0
 40
0.352778
 41
0.352778
  0
VERTEX
  8
0
 10
189.042
 20
46.1717
 30
0.0
 40
0.352778
 41
0.352778
  0
VERTEX
  8
0
 10
188.482
 20
45.76
 30
0.0
 40
0.352778
 41
0.352778
  0
VERTEX
  8
0
 10
187.943
 20
45.3192
 30
0.0
 40
0.352778
 41
0.352778
  0
VERTEX
  8
0
 10
187.425
 20
44.8494
 30
0.0
 40
0.352778
 41
0.352778
  0
VERTEX
  8
0
 10
187.049
 20
44.4789
 30
0.0
 40
0.352778
 41
0.352778
  0
VERTEX
  8
0
 10
186.928
 20
44.3514
 30
0.0
 40
0.352778
 41
0.352778
  0
VERTEX
  8
0
 10
186.806
 20
44.0896
 30
0.0
 40
0.352778
 41
0.352778
  0
VERTEX
  8
0
 10
186.462
 20
43.2911
 30
0.0
 40
0.352778
 41
0.352778
  0
VERTEX
  8
0
 10
186.053
 20
42.21
 30
0.0
 40
0.352778
 41
0.352778
  0
VERTEX
  8
0
 10
185.701
 20
41.1106
 30
0.0
 40
0.352778
 41
0.352778
  0
VERTEX
  8
0
 10
185.408
 20
39.9949
 30
0.0
 40
0.352778
 41
0.352778
  0
VERTEX
  8
0
 10
185.175
 20
38.8654
 30
0.0
 40
0.352778
 41
0.352778
  0
VERTEX
  8
0
 10
185
 20
37.7244
 30
0.0
 40
0.352778
 41
0.352778
  0
VERTEX
  8
0
 10
184.885
 20
36.5744
 30
0.0
 40
0.352778
 41
0.352778
  0
VERTEX
  8
0
 10
184.836
 20
35.7068
 30
0.0
 40
0.352778
 41
0.352778
  0
VERTEX
  8
0
 10
184.829
 20
35.4174
 30
0.0
 40
0.352778
 41
0.352778
  0
VERTEX
  8
0
 10
186.199
 20
35.4174
 30
0.0
 40
0.352778
 41
0.352778
  0
VERTEX
  8
0
 10
186.194
 20
35.3403
 30
0.0
 40
0.352778
 41
0.352778
  0
VERTEX
  8
0
 10
186.194
 20
34.5694
 30
0.0
 40
0.352778
 41
0.352778
  0
VERTEX
  8
0
 10
186.199
 20
34.4924
 30
0.0
 40
0.352778
 41
0.352778
  0
VERTEX
  8
0
 10
184.829
 20
34.4924
 30
0.0
 40
0.352778
 41
0.352778
  0
VERTEX
  8
0
 10
184.836
 20
34.2031
 30
0.0
 40
0.352778
 41
0.352778
  0
VERTEX
  8
0
 10
184.885
 20
33.3354
 30
0.0
 40
0.352778
 41
0.352778
  0
VERTEX
  8
0
 10
185
 20
32.1854
 30
0.0
 40
0.352778
 41
0.352778
  0
VERTEX
  8
0
 10
185.175
 20
31.0444
 30
0.0
 40
0.352778
 41
0.352778
  0
VERTEX
  8
0
 10
185.408
 20
29.915
 30
0.0
 40
0.352778
 41
0.352778
  0
VERTEX
  8
0
 10
185.701
 20
28.7993
 30
0.0
 40
0.352778
 41
0.352778
  0
VERTEX
  8
0
 10
186.053
 20
27.6999
 30
0.0
 40
0.352778
 41
0.352778
  0
VERTEX
  8
0
 10
186.462
 20
26.6188
 30
0.0
 40
0.352778
 41
0.352778
  0
VERTEX
  8
0
 10
186.806
 20
25.8203
 30
0.0
 40
0.352778
 41
0.352778
  0
VERTEX
  8
0
 10
186.928
 20
25.5585
 30
0.0
 40
0.352778
 41
0.352778
  0
VERTEX
  8
0
 10
187.049
 20
25.4308
 30
0.0
 40
0.352778
 41
0.352778
  0
VERTEX
  8
0
 10
187.425
 20
25.0604
 30
0.0
 40
0.352778
 41
0.352778
  0
VERTEX
  8
0
 10
187.943
 20
24.5907
 30
0.0
 40
0.352778
 41
0.352778
  0
VERTEX
  8
0
 10
188.482
 20
24.1499
 30
0.0
 40
0.352778
 41
0.352778
  0
VERTEX
  8
0
 10
189.042
 20
23.7382
 30
0.0
 40
0.352778
 41
0.352778
  0
VERTEX
  8
0
 10
189.619
 20
23.3564
 30
0.0
 40
0.352778
 41
0.352778
  0
VERTEX
  8
0
 10
190.215
 20
23.0051
 30
0.0
 40
0.352778
 41
0.352778
  0
VERTEX
  8
0
 10
190.828
 20
22.6847
 30
0.0
 40
0.352778
 41
0.352778
  0
VERTEX
  8
0
 10
191.454
 20
22.3958
 30
0.0
 40
0.352778
 41
0.352778
  0
VERTEX
  8
0
 10
192.096
 20
22.1389
 30
0.0
 40
0.352778
 41
0.352778
  0
VERTEX
  8
0
 10
192.749
 20
21.9144
 30
0.0
 40
0.352778
 41
0.352778
  0
VERTEX
  8
0
 10
193.413
 20
21.7232
 30
0.0
 40
0.352778
 41
0.352778
  0
VERTEX
  8
0
 10
194.087
 20
21.5654
 30
0.0
 40
0.352778
 41
0.352778
  0
VERTEX
  8
0
 10
194.771
 20
21.4418
 30
0.0
 40
0.352778
 41
0.352778
  0
VERTEX
  8
0
 10
195.462
 20
21.3528
 30
0.0
 40
0.352778
 41
0.352778
  0
VERTEX
  8
0
 10
196.16
 20
21.299
 30
0.0
 40
0.352778
 41
0.352778
  0
VERTEX
  8
0
 10
196.686
 20
21.281
 30
0.0
 40
0.352778
 41
0.352778
  0
VERTEX
  8
0
 10
196.862
 20
21.281
 30
0.0
 40
0.352778
 41
0.352778
  0
VERTEX
  8
0
 10
202.851
 20
21.281
 30
0.0
 40
0.352778
 41
0.352778
  0
VERTEX
  8
0
 10
202.851
 20
22.781
 30
0.0
 40
0.352778
 41
0.352778
  0
VERTEX
  8
0
 10
203.776
 20
22.781
 30
0.0
 40
0.352778
 41
0.352778
  0
VERTEX
  8
0
 10
203.776
 20
21.281
 30
0.0
 40
0.352778
 41
0.352778
  0
VERTEX
  8
0
 10
224.626
 20
21.281
 30
0.0
 40
0.352778
 41
0.352778
  0
VERTEX
  8
0
 10
224.626
 20
26.9924
 30
0.0
 40
0.352778
 41
0.352778
  0
VERTEX
  8
0
 10
217.553
 20
26.9924
 30
0.0
 40
0.352778
 41
0.352778
  0
VERTEX
  8
0
 10
217.553
 20
24.356
 30
0.0
 40
0.352778
 41
0.352778
  0
VERTEX
  8
0
 10
196.9
 20
24.356
 30
0.0
 40
0.352778
 41
0.352778
  0
VERTEX
  8
0
 10
196.9
 20
45.5538
 30
0.0
 40
0.352778
 41
0.352778
  0
SEQEND
 8
0
  0
POLYLINE
  8
0
 62
     0
 66
     1
 10
0
 20
0
 30
0.0
 70
     1
 40
25.4
 41
25.4
  0
VERTEX
  8
0
 10
187.928
 20
35.9924
 30
0.0
 40
0.352778
 41
0.352778
  0
VERTEX
  8
0
 10
187.939
 20
36.1913
 30
0.0
 40
0.352778
 41
0.352778
  0
VERTEX
  8
0
 10
187.989
 20
36.7869
 30
0.0
 40
0.352778
 41
0.352778
  0
VERTEX
  8
0
 10
188.082
 20
37.5774
 30
0.0
 40
0.352778
 41
0.352778
  0
VERTEX
  8
0
 10
188.208
 20
38.3624
 30
0.0
 40
0.352778
 41
0.352778
  0
VERTEX
  8
0
 10
188.368
 20
39.141
 30
0.0
 40
0.352778
 41
0.352778
  0
VERTEX
  8
0
 10
188.56
 20
39.9122
 30
0.0
 40
0.352778
 41
0.352778
  0
VERTEX
  8
0
 10
188.783
 20
40.6751
 30
0.0
 40
0.352778
 41
0.352778
  0
VERTEX
  8
0
 10
189.039
 20
41.4288
 30
0.0
 40
0.352778
 41
0.352778
  0
VERTEX
  8
0
 10
189.251
 20
41.9876
 30
0.0
 40
0.352778
 41
0.352778
  0
VERTEX
  8
0
 10
189.326
 20
42.1718
 30
0.0
 40
0.352778
 41
0.352778
  0
VERTEX
  8
0
 10
189.349
 20
42.2235
 30
0.0
 40
0.352778
 41
0.352778
  0
VERTEX
  8
0
 10
189.424
 20
42.3739
 30
0.0
 40
0.352778
 41
0.352778
  0
VERTEX
  8
0
 10
189.543
 20
42.5631
 30
0.0
 40
0.352778
 41
0.352778
  0
VERTEX
  8
0
 10
189.682
 20
42.7374
 30
0.0
 40
0.352778
 41
0.352778
  0
VERTEX
  8
0
 10
189.8
 20
42.8581
 30
0.0
 40
0.352778
 41
0.352778
  0
VERTEX
  8
0
 10
189.842
 20
42.8951
 30
0.0
 40
0.352778
 41
0.352778
  0
VERTEX
  8
0
 10
189.974
 20
43.0119
 30
0.0
 40
0.352778
 41
0.352778
  0
VERTEX
  8
0
 10
190.386
 20
43.3446
 30
0.0
 40
0.352778
 41
0.352778
  0
VERTEX
  8
0
 10
190.956
 20
43.7556
 30
0.0
 40
0.352778
 41
0.352778
  0
VERTEX
  8
0
 10
191.551
 20
44.1271
 30
0.0
 40
0.352778
 41
0.352778
  0
VERTEX
  8
0
 10
192.169
 20
44.4581
 30
0.0
 40
0.352778
 41
0.352778
  0
VERTEX
  8
0
 10
192.807
 20
44.7475
 30
0.0
 40
0.352778
 41
0.352778
  0
VERTEX
  8
0
 10
193.464
 20
44.9943
 30
0.0
 40
0.352778
 41
0.352778
  0
VERTEX
  8
0
 10
194.138
 20
45.1975
 30
0.0
 40
0.352778
 41
0.352778
  0
VERTEX
  8
0
 10
194.651
 20
45.3222
 30
0.0
 40
0.352778
 41
0.352778
  0
VERTEX
  8
0
 10
194.825
 20
45.3561
 30
0.0
 40
0.352778
 41
0.352778
  0
VERTEX
  8
0
 10
194.825
 20
37.2076
 30
0.0
 40
0.352778
 41
0.352778
  0
VERTEX
  8
0
 10
194.756
 20
37.1457
 30
0.0
 40
0.352778
 41
0.352778
  0
VERTEX
  8
0
 10
194.565
 20
36.9431
 30
0.0
 40
0.352778
 41
0.352778
  0
VERTEX
  8
0
 10
194.342
 20
36.65
 30
0.0
 40
0.352778
 41
0.352778
  0
VERTEX
  8
0
 10
194.154
 20
36.3321
 30
0.0
 40
0.352778
 41
0.352778
  0
VERTEX
  8
0
 10
194.039
 20
36.0793
 30
0.0
 40
0.352778
 41
0.352778
  0
VERTEX
  8
0
 10
194.007
 20
35.9924
 30
0.0
 40
0.352778
 41
0.352778
  0
VERTEX
  8
0
 10
187.928
 20
35.9924
 30
0.0
 40
0.352778
 41
0.352778
  0
SEQEND
 8
0
  0
POLYLINE
  8
0
 62
     0
 66
     1
 10
0
 20
0
 30
0.0
 70
     1
 40
25.4
 41
25.4
  0
VERTEX
  8
0
 10
187.001
 20
44.1614
 30
0.0
 40
0.352778
 41
0.352778
  0
VERTEX
  8
0
 10
187.044
 20
44.2263
 30
0.0
 40
0.352778
 41
0.352778
  0
VERTEX
  8
0
 10
187.276
 20
44.5374
 30
0.0
 40
0.352778
 41
0.352778
  0
VERTEX
  8
0
 10
187.531
 20
44.8303
 30
0.0
 40
0.352778
 41
0.352778
  0
VERTEX
  8
0
 10
187.585
 20
44.886
 30
0.0
 40
0.352778
 41
0.352778
  0
VERTEX
  8
0
 10
188.581
 20
43.8901
 30
0.0
 40
0.352778
 41
0.352778
  0
VERTEX
  8
0
 10
187.926
 20
43.2361
 30
0.0
 40
0.352778
 41
0.352778
  0
VERTEX
  8
0
 10
187.001
 20
44.1614
 30
0.0
 40
0.352778
 41
0.352778
  0
SEQEND
 8
0
  0
POLYLINE
  8
0
 62
     0
 66
     1
 10
0
 20
0
 30
0.0
 70
     1
 40
25.4
 41
25.4
  0
VERTEX
  8
0
 10
187.087
 20
25.6224
 30
0.0
 40
0.352778
 41
0.352778
  0
VERTEX
  8
0
 10
187.118
 20
25.5796
 30
0.0
 40
0.352778
 41
0.352778
  0
VERTEX
  8
0
 10
187.278
 20
25.3714
 30
0.0
 40
0.352778
 41
0.352778
  0
VERTEX
  8
0
 10
187.447
 20
25.1717
 30
0.0
 40
0.352778
 41
0.352778
  0
VERTEX
  8
0
 10
187.482
 20
25.1329
 30
0.0
 40
0.352778
 41
0.352778
  0
VERTEX
  8
0
 10
188.475
 20
26.1257
 30
0.0
 40
0.352778
 41
0.352778
  0
VERTEX
  8
0
 10
188.033
 20
26.5676
 30
0.0
 40
0.352778
 41
0.352778
  0
VERTEX
  8
0
 10
187.087
 20
25.6224
 30
0.0
 40
0.352778
 41
0.352778
  0
SEQEND
 8
0
  0
POLYLINE
  8
0
 62
     0
 66
     1
 10
0
 20
0
 30
0.0
 70
     1
 40
25.4
 41
25.4
  0
VERTEX
  8
0
 10
194.825
 20
24.5538
 30
0.0
 40
0.352778
 41
0.352778
  0
VERTEX
  8
0
 10
194.651
 20
24.5876
 30
0.0
 40
0.352778
 41
0.352778
  0
VERTEX
  8
0
 10
194.138
 20
24.7124
 30
0.0
 40
0.352778
 41
0.352778
  0
VERTEX
  8
0
 10
193.464
 20
24.9156
 30
0.0
 40
0.352778
 41
0.352778
  0
VERTEX
  8
0
 10
192.807
 20
25.1624
 30
0.0
 40
0.352778
 41
0.352778
  0
VERTEX
  8
0
 10
192.169
 20
25.4518
 30
0.0
 40
0.352778
 41
0.352778
  0
VERTEX
  8
0
 10
191.551
 20
25.7828
 30
0.0
 40
0.352778
 41
0.352778
  0
VERTEX
  8
0
 10
190.956
 20
26.1543
 30
0.0
 40
0.352778
 41
0.352778
  0
VERTEX
  8
0
 10
190.386
 20
26.5653
 30
0.0
 40
0.352778
 41
0.352778
  0
VERTEX
  8
0
 10
189.974
 20
26.8979
 30
0.0
 40
0.352778
 41
0.352778
  0
VERTEX
  8
0
 10
189.842
 20
27.0146
 30
0.0
 40
0.352778
 41
0.352778
  0
VERTEX
  8
0
 10
189.8
 20
27.0517
 30
0.0
 40
0.352778
 41
0.352778
  0
VERTEX
  8
0
 10
189.682
 20
27.1725
 30
0.0
 40
0.352778
 41
0.352778
  0
VERTEX
  8
0
 10
189.543
 20
27.3468
 30
0.0
 40
0.352778
 41
0.352778
  0
VERTEX
  8
0
 10
189.424
 20
27.536
 30
0.0
 40
0.352778
 41
0.352778
  0
VERTEX
  8
0
 10
189.349
 20
27.6863
 30
0.0
 40
0.352778
 41
0.352778
  0
VERTEX
  8
0
 10
189.326
 20
27.7379
 30
0.0
 40
0.352778
 41
0.352778
  0
VERTEX
  8
0
 10
189.251
 20
27.9221
 30
0.0
 40
0.352778
 41
0.352778
  0
VERTEX
  8
0
 10
189.039
 20
28.4811
 30
0.0
 40
0.352778
 41
0.352778
  0
VERTEX
  8
0
 10
188.783
 20
29.2346
 30
0.0
 40
0.352778
 41
0.352778
  0
VERTEX
  8
0
 10
188.56
 20
29.9975
 30
0.0
 40
0.352778
 41
0.352778
  0
VERTEX
  8
0
 10
188.368
 20
30.7689
 30
0.0
 40
0.352778
 41
0.352778
  0
VERTEX
  8
0
 10
188.208
 20
31.5475
 30
0.0
 40
0.352778
 41
0.352778
  0
VERTEX
  8
0
 10
188.082
 20
32.3325
 30
0.0
 40
0.352778
 41
0.352778
  0
VERTEX
  8
0
 10
187.989
 20
33.1228
 30
0.0
 40
0.352778
 41
0.352778
  0
VERTEX
  8
0
 10
187.939
 20
33.7185
 30
0.0
 40
0.352778
 41
0.352778
  0
VERTEX
  8
0
 10
187.928
 20
33.9174
 30
0.0
 40
0.352778
 41
0.352778
  0
VERTEX
  8
0
 10
194.007
 20
33.9174
 30
0.0
 40
0.352778
 41
0.352778
  0
VERTEX
  8
0
 10
194.039
 20
33.8306
 30
0.0
 40
0.352778
 41
0.352778
  0
VERTEX
  8
0
 10
194.154
 20
33.5778
 30
0.0
 40
0.352778
 41
0.352778
  0
VERTEX
  8
0
 10
194.342
 20
33.2597
 30
0.0
 40
0.352778
 41
0.352778
  0
VERTEX
  8
0
 10
194.565
 20
32.9668
 30
0.0
 40
0.352778
 41
0.352778
  0
VERTEX
  8
0
 10
194.756
 20
32.7642
 30
0.0
 40
0.352778
 41
0.352778
  0
VERTEX
  8
0
 10
194.825
 20
32.7021
 30
0.0
 40
0.352778
 41
0.352778
  0
VERTEX
  8
0
 10
194.825
 20
24.5538
 30
0.0
 40
0.352778
 41
0.352778
  0
SEQEND
 8
0
  0
POLYLINE
  8
0
 62
     0
 66
     1
 10
0
 20
0
 30
0.0
 40
25.4
 41
25.4
  0
VERTEX
  8
0
 10
196.9
 20
67.1901
 30
0.0
 40
0.352778
 41
0.352778
  0
VERTEX
  8
0
 10
217.75
 20
67.1901
 30
0.0
 40
0.352778
 41
0.352778
  0
VERTEX
  8
0
 10
217.75
 20
65.6901
 30
0.0
 40
0.352778
 41
0.352778
  0
VERTEX
  8
0
 10
218.675
 20
65.6901
 30
0.0
 40
0.352778
 41
0.352778
  0
VERTEX
  8
0
 10
218.675
 20
67.1901
 30
0.0
 40
0.352778
 41
0.352778
  0
VERTEX
  8
0
 10
224.665
 20
67.1901
 30
0.0
 40
0.352778
 41
0.352778
  0
VERTEX
  8
0
 10
224.84
 20
67.1901
 30
0.0
 40
0.352778
 41
0.352778
  0
VERTEX
  8
0
 10
225.367
 20
67.1721
 30
0.0
 40
0.352778
 41
0.352778
  0
VERTEX
  8
0
 10
226.064
 20
67.1183
 30
0.0
 40
0.352778
 41
0.352778
  0
VERTEX
  8
0
 10
226.756
 20
67.0294
 30
0.0
 40
0.352778
 41
0.352778
  0
VERTEX
  8
0
 10
227.439
 20
66.9058
 30
0.0
 40
0.352778
 41
0.352778
  0
VERTEX
  8
0
 10
228.114
 20
66.7481
 30
0.0
 40
0.352778
 41
0.352778
  0
VERTEX
  8
0
 10
228.778
 20
66.5568
 30
0.0
 40
0.352778
 41
0.352778
  0
VERTEX
  8
0
 10
229.432
 20
66.3324
 30
0.0
 40
0.352778
 41
0.352778
  0
VERTEX
  8
0
 10
230.072
 20
66.0754
 30
0.0
 40
0.352778
 41
0.352778
  0
VERTEX
  8
0
 10
230.7
 20
65.7865
 30
0.0
 40
0.352778
 41
0.352778
  0
VERTEX
  8
0
 10
231.311
 20
65.4661
 30
0.0
 40
0.352778
 41
0.352778
  0
VERTEX
  8
0
 10
231.907
 20
65.1147
 30
0.0
 40
0.352778
 41
0.352778
  0
VERTEX
  8
0
 10
232.485
 20
64.7331
 30
0.0
 40
0.352778
 41
0.352778
  0
VERTEX
  8
0
 10
233.044
 20
64.3214
 30
0.0
 40
0.352778
 41
0.352778
  0
VERTEX
  8
0
 10
233.585
 20
63.8806
 30
0.0
 40
0.352778
 41
0.352778
  0
VERTEX
  8
0
 10
234.103
 20
63.4108
 30
0.0
 40
0.352778
 41
0.352778
  0
VERTEX
  8
0
 10
234.478
 20
63.0404
 30
0.0
 40
0.352778
 41
0.352778
  0
VERTEX
  8
0
 10
234.599
 20
62.9128
 30
0.0
 40
0.352778
 41
0.352778
  0
VERTEX
  8
0
 10
234.722
 20
62.651
 30
0.0
 40
0.352778
 41
0.352778
  0
VERTEX
  8
0
 10
235.064
 20
61.8525
 30
0.0
 40
0.352778
 41
0.352778
  0
VERTEX
  8
0
 10
235.474
 20
60.7714
 30
0.0
 40
0.352778
 41
0.352778
  0
VERTEX
  8
0
 10
235.825
 20
59.6719
 30
0.0
 40
0.352778
 41
0.352778
  0
VERTEX
  8
0
 10
236.118
 20
58.5562
 30
0.0
 40
0.352778
 41
0.352778
  0
VERTEX
  8
0
 10
236.353
 20
57.4268
 30
0.0
 40
0.352778
 41
0.352778
  0
VERTEX
  8
0
 10
236.528
 20
56.2858
 30
0.0
 40
0.352778
 41
0.352778
  0
VERTEX
  8
0
 10
236.643
 20
55.1357
 30
0.0
 40
0.352778
 41
0.352778
  0
VERTEX
  8
0
 10
236.692
 20
54.2682
 30
0.0
 40
0.352778
 41
0.352778
  0
VERTEX
  8
0
 10
236.697
 20
53.9787
 30
0.0
 40
0.352778
 41
0.352778
  0
VERTEX
  8
0
 10
235.328
 20
53.9787
 30
0.0
 40
0.352778
 41
0.352778
  0
VERTEX
  8
0
 10
235.332
 20
53.9018
 30
0.0
 40
0.352778
 41
0.352778
  0
VERTEX
  8
0
 10
235.332
 20
53.1308
 30
0.0
 40
0.352778
 41
0.352778
  0
VERTEX
  8
0
 10
235.328
 20
53.0538
 30
0.0
 40
0.352778
 41
0.352778
  0
VERTEX
  8
0
 10
236.697
 20
53.0538
 30
0.0
 40
0.352778
 41
0.352778
  0
VERTEX
  8
0
 10
236.692
 20
52.7644
 30
0.0
 40
0.352778
 41
0.352778
  0
VERTEX
  8
0
 10
236.643
 20
51.8968
 30
0.0
 40
0.352778
 41
0.352778
  0
VERTEX
  8
0
 10
236.528
 20
50.7468
 30
0.0
 40
0.352778
 41
0.352778
  0
VERTEX
  8
0
 10
236.353
 20
49.6058
 30
0.0
 40
0.352778
 41
0.352778
  0
VERTEX
  8
0
 10
236.118
 20
48.4764
 30
0.0
 40
0.352778
 41
0.352778
  0
VERTEX
  8
0
 10
235.825
 20
47.3607
 30
0.0
 40
0.352778
 41
0.352778
  0
VERTEX
  8
0
 10
235.474
 20
46.2611
 30
0.0
 40
0.352778
 41
0.352778
  0
VERTEX
  8
0
 10
235.064
 20
45.1801
 30
0.0
 40
0.352778
 41
0.352778
  0
VERTEX
  8
0
 10
234.722
 20
44.3817
 30
0.0
 40
0.352778
 41
0.352778
  0
VERTEX
  8
0
 10
234.599
 20
44.1199
 30
0.0
 40
0.352778
 41
0.352778
  0
VERTEX
  8
0
 10
234.478
 20
43.9922
 30
0.0
 40
0.352778
 41
0.352778
  0
VERTEX
  8
0
 10
234.103
 20
43.6218
 30
0.0
 40
0.352778
 41
0.352778
  0
VERTEX
  8
0
 10
233.585
 20
43.1521
 30
0.0
 40
0.352778
 41
0.352778
  0
VERTEX
  8
0
 10
233.044
 20
42.7111
 30
0.0
 40
0.352778
 41
0.352778
  0
VERTEX
  8
0
 10
232.485
 20
42.2996
 30
0.0
 40
0.352778
 41
0.352778
  0
VERTEX
  8
0
 10
231.907
 20
41.9179
 30
0.0
 40
0.352778
 41
0.352778
  0
VERTEX
  8
0
 10
231.311
 20
41.5665
 30
0.0
 40
0.352778
 41
0.352778
  0
VERTEX
  8
0
 10
230.7
 20
41.2461
 30
0.0
 40
0.352778
 41
0.352778
  0
VERTEX
  8
0
 10
230.072
 20
40.9572
 30
0.0
 40
0.352778
 41
0.352778
  0
VERTEX
  8
0
 10
229.432
 20
40.7003
 30
0.0
 40
0.352778
 41
0.352778
  0
VERTEX
  8
0
 10
228.778
 20
40.4758
 30
0.0
 40
0.352778
 41
0.352778
  0
VERTEX
  8
0
 10
228.114
 20
40.2846
 30
0.0
 40
0.352778
 41
0.352778
  0
VERTEX
  8
0
 10
227.439
 20
40.1268
 30
0.0
 40
0.352778
 41
0.352778
  0
VERTEX
  8
0
 10
226.756
 20
40.0032
 30
0.0
 40
0.352778
 41
0.352778
  0
VERTEX
  8
0
 10
226.064
 20
39.9142
 30
0.0
 40
0.352778
 41
0.352778
  0
VERTEX
  8
0
 10
225.367
 20
39.8604
 30
0.0
 40
0.352778
 41
0.352778
  0
VERTEX
  8
0
 10
224.84
 20
39.8424
 30
0.0
 40
0.352778
 41
0.352778
  0
VERTEX
  8
0
 10
224.665
 20
39.8424
 30
0.0
 40
0.352778
 41
0.352778
  0
VERTEX
  8
0
 10
218.675
 20
39.8424
 30
0.0
 40
0.352778
 41
0.352778
  0
VERTEX
  8
0
 10
218.675
 20
41.3424
 30
0.0
 40
0.352778
 41
0.352778
  0
VERTEX
  8
0
 10
217.75
 20
41.3424
 30
0.0
 40
0.352778
 41
0.352778
  0
VERTEX
  8
0
 10
217.75
 20
39.8424
 30
0.0
 40
0.352778
 41
0.352778
  0
VERTEX
  8
0
 10
196.9
 20
39.8424
 30
0.0
 40
0.352778
 41
0.352778
  0
SEQEND
 8
0
  0
POLYLINE
  8
0
 62
     0
 66
     1
 10
0
 20
0
 30
0.0
 70
     1
 40
25.4
 41
25.4
  0
VERTEX
  8
0
 10
226.703
 20
51.2635
 30
0.0
 40
0.352778
 41
0.352778
  0
VERTEX
  8
0
 10
226.771
 20
51.3254
 30
0.0
 40
0.352778
 41
0.352778
  0
VERTEX
  8
0
 10
226.961
 20
51.5282
 30
0.0
 40
0.352778
 41
0.352778
  0
VERTEX
  8
0
 10
227.185
 20
51.8212
 30
0.0
 40
0.352778
 41
0.352778
  0
VERTEX
  8
0
 10
227.372
 20
52.1392
 30
0.0
 40
0.352778
 41
0.352778
  0
VERTEX
  8
0
 10
227.487
 20
52.3919
 30
0.0
 40
0.352778
 41
0.352778
  0
VERTEX
  8
0
 10
227.519
 20
52.4787
 30
0.0
 40
0.352778
 41
0.352778
  0
VERTEX
  8
0
 10
233.599
 20
52.4787
 30
0.0
 40
0.352778
 41
0.352778
  0
VERTEX
  8
0
 10
233.588
 20
52.28
 30
0.0
 40
0.352778
 41
0.352778
  0
VERTEX
  8
0
 10
233.539
 20
51.6843
 30
0.0
 40
0.352778
 41
0.352778
  0
VERTEX
  8
0
 10
233.444
 20
50.8939
 30
0.0
 40
0.352778
 41
0.352778
  0
VERTEX
  8
0
 10
233.318
 20
50.1089
 30
0.0
 40
0.352778
 41
0.352778
  0
VERTEX
  8
0
 10
233.16
 20
49.3303
 30
0.0
 40
0.352778
 41
0.352778
  0
VERTEX
  8
0
 10
232.968
 20
48.559
 30
0.0
 40
0.352778
 41
0.352778
  0
VERTEX
  8
0
 10
232.743
 20
47.796
 30
0.0
 40
0.352778
 41
0.352778
  0
VERTEX
  8
0
 10
232.487
 20
47.0425
 30
0.0
 40
0.352778
 41
0.352778
  0
VERTEX
  8
0
 10
232.276
 20
46.4836
 30
0.0
 40
0.352778
 41
0.352778
  0
VERTEX
  8
0
 10
232.2
 20
46.2993
 30
0.0
 40
0.352778
 41
0.352778
  0
VERTEX
  8
0
 10
232.179
 20
46.2476
 30
0.0
 40
0.352778
 41
0.352778
  0
VERTEX
  8
0
 10
232.103
 20
46.0974
 30
0.0
 40
0.352778
 41
0.352778
  0
VERTEX
  8
0
 10
231.985
 20
45.9082
 30
0.0
 40
0.352778
 41
0.352778
  0
VERTEX
  8
0
 10
231.844
 20
45.7339
 30
0.0
 40
0.352778
 41
0.352778
  0
VERTEX
  8
0
 10
231.728
 20
45.6131
 30
0.0
 40
0.352778
 41
0.352778
  0
VERTEX
  8
0
 10
231.685
 20
45.5761
 30
0.0
 40
0.352778
 41
0.352778
  0
VERTEX
  8
0
 10
231.553
 20
45.4593
 30
0.0
 40
0.352778
 41
0.352778
  0
VERTEX
  8
0
 10
231.142
 20
45.1267
 30
0.0
 40
0.352778
 41
0.352778
  0
VERTEX
  8
0
 10
230.571
 20
44.7156
 30
0.0
 40
0.352778
 41
0.352778
  0
VERTEX
  8
0
 10
229.975
 20
44.3442
 30
0.0
 40
0.352778
 41
0.352778
  0
VERTEX
  8
0
 10
229.358
 20
44.0132
 30
0.0
 40
0.352778
 41
0.352778
  0
VERTEX
  8
0
 10
228.719
 20
43.7238
 30
0.0
 40
0.352778
 41
0.352778
  0
VERTEX
  8
0
 10
228.063
 20
43.4769
 30
0.0
 40
0.352778
 41
0.352778
  0
VERTEX
  8
0
 10
227.389
 20
43.2737
 30
0.0
 40
0.352778
 41
0.352778
  0
VERTEX
  8
0
 10
226.875
 20
43.149
 30
0.0
 40
0.352778
 41
0.352778
  0
VERTEX
  8
0
 10
226.703
 20
43.1151
 30
0.0
 40
0.352778
 41
0.352778
  0
VERTEX
  8
0
 10
226.703
 20
51.2635
 30
0.0
 40
0.352778
 41
0.352778
  0
SEQEND
 8
0
  0
POLYLINE
  8
0
 62
     0
 66
     1
 10
0
 20
0
 30
0.0
 70
     1
 40
25.4
 41
25.4
  0
VERTEX
  8
0
 10
233.942
 20
43.5851
 30
0.0
 40
0.352778
 41
0.352778
  0
VERTEX
  8
0
 10
233.996
 20
43.6408
 30
0.0
 40
0.352778
 41
0.352778
  0
VERTEX
  8
0
 10
234.25
 20
43.9339
 30
0.0
 40
0.352778
 41
0.352778
  0
VERTEX
  8
0
 10
234.482
 20
44.245
 30
0.0
 40
0.352778
 41
0.352778
  0
VERTEX
  8
0
 10
234.525
 20
44.3099
 30
0.0
 40
0.352778
 41
0.352778
  0
VERTEX
  8
0
 10
233.6
 20
45.2351
 30
0.0
 40
0.352778
 41
0.352778
  0
VERTEX
  8
0
 10
232.946
 20
44.581
 30
0.0
 40
0.352778
 41
0.352778
  0
VERTEX
  8
0
 10
233.942
 20
43.5851
 30
0.0
 40
0.352778
 41
0.352778
  0
SEQEND
 8
0
  0
POLYLINE
  8
0
 62
     0
 66
     1
 10
0
 20
0
 30
0.0
 70
     1
 40
25.4
 41
25.4
  0
VERTEX
  8
0
 10
234.044
 20
63.3382
 30
0.0
 40
0.352778
 41
0.352778
  0
VERTEX
  8
0
 10
234.081
 20
63.2996
 30
0.0
 40
0.352778
 41
0.352778
  0
VERTEX
  8
0
 10
234.25
 20
63.0997
 30
0.0
 40
0.352778
 41
0.352778
  0
VERTEX
  8
0
 10
234.408
 20
62.8917
 30
0.0
 40
0.352778
 41
0.352778
  0
VERTEX
  8
0
 10
234.439
 20
62.8487
 30
0.0
 40
0.352778
 41
0.352778
  0
VERTEX
  8
0
 10
233.494
 20
61.9035
 30
0.0
 40
0.352778
 41
0.352778
  0
VERTEX
  8
0
 10
233.051
 20
62.3456
 30
0.0
 40
0.352778
 41
0.352778
  0
VERTEX
  8
0
 10
234.044
 20
63.3382
 30
0.0
 40
0.352778
 41
0.352778
  0
SEQEND
 8
0
  0
POLYLINE
  8
0
 62
     0
 66
     1
 10
0
 20
0
 30
0.0
 70
     1
 40
25.4
 41
25.4
  0
VERTEX
  8
0
 10
226.703
 20
63.9175
 30
0.0
 40
0.352778
 41
0.352778
  0
VERTEX
  8
0
 10
226.875
 20
63.8836
 30
0.0
 40
0.352778
 41
0.352778
  0
VERTEX
  8
0
 10
227.389
 20
63.7589
 30
0.0
 40
0.352778
 41
0.352778
  0
VERTEX
  8
0
 10
228.063
 20
63.5557
 30
0.0
 40
0.352778
 41
0.352778
  0
VERTEX
  8
0
 10
228.719
 20
63.3089
 30
0.0
 40
0.352778
 41
0.352778
  0
VERTEX
  8
0
 10
229.358
 20
63.0194
 30
0.0
 40
0.352778
 41
0.352778
  0
VERTEX
  8
0
 10
229.975
 20
62.6885
 30
0.0
 40
0.352778
 41
0.352778
  0
VERTEX
  8
0
 10
230.571
 20
62.3169
 30
0.0
 40
0.352778
 41
0.352778
  0
VERTEX
  8
0
 10
231.142
 20
61.906
 30
0.0
 40
0.352778
 41
0.352778
  0
VERTEX
  8
0
 10
231.553
 20
61.5733
 30
0.0
 40
0.352778
 41
0.352778
  0
VERTEX
  8
0
 10
231.685
 20
61.4565
 30
0.0
 40
0.352778
 41
0.352778
  0
VERTEX
  8
0
 10
231.728
 20
61.4194
 30
0.0
 40
0.352778
 41
0.352778
  0
VERTEX
  8
0
 10
231.844
 20
61.2987
 30
0.0
 40
0.352778
 41
0.352778
  0
VERTEX
  8
0
 10
231.985
 20
61.1243
 30
0.0
 40
0.352778
 41
0.352778
  0
VERTEX
  8
0
 10
232.103
 20
60.9353
 30
0.0
 40
0.352778
 41
0.352778
  0
VERTEX
  8
0
 10
232.179
 20
60.785
 30
0.0
 40
0.352778
 41
0.352778
  0
VERTEX
  8
0
 10
232.2
 20
60.7332
 30
0.0
 40
0.352778
 41
0.352778
  0
VERTEX
  8
0
 10
232.276
 20
60.549
 30
0.0
 40
0.352778
 41
0.352778
  0
VERTEX
  8
0
 10
232.487
 20
59.9901
 30
0.0
 40
0.352778
 41
0.352778
  0
VERTEX
  8
0
 10
232.743
 20
59.2367
 30
0.0
 40
0.352778
 41
0.352778
  0
VERTEX
  8
0
 10
232.968
 20
58.4736
 30
0.0
 40
0.352778
 41
0.352778
  0
VERTEX
  8
0
 10
233.16
 20
57.7024
 30
0.0
 40
0.352778
 41
0.352778
  0
VERTEX
  8
0
 10
233.318
 20
56.9236
 30
0.0
 40
0.352778
 41
0.352778
  0
VERTEX
  8
0
 10
233.444
 20
56.1386
 30
0.0
 40
0.352778
 41
0.352778
  0
VERTEX
  8
0
 10
233.539
 20
55.3483
 30
0.0
 40
0.352778
 41
0.352778
  0
VERTEX
  8
0
 10
233.588
 20
54.7526
 30
0.0
 40
0.352778
 41
0.352778
  0
VERTEX
  8
0
 10
233.599
 20
54.5538
 30
0.0
 40
0.352778
 41
0.352778
  0
VERTEX
  8
0
 10
227.519
 20
54.5538
 30
0.0
 40
0.352778
 41
0.352778
  0
VERTEX
  8
0
 10
227.487
 20
54.6407
 30
0.0
 40
0.352778
 41
0.352778
  0
VERTEX
  8
0
 10
227.372
 20
54.8933
 30
0.0
 40
0.352778
 41
0.352778
  0
VERTEX
  8
0
 10
227.185
 20
55.2114
 30
0.0
 40
0.352778
 41
0.352778
  0
VERTEX
  8
0
 10
226.961
 20
55.5044
 30
0.0
 40
0.352778
 41
0.352778
  0
VERTEX
  8
0
 10
226.771
 20
55.7071
 30
0.0
 40
0.352778
 41
0.352778
  0
VERTEX
  8
0
 10
226.703
 20
55.769
 30
0.0
 40
0.352778
 41
0.352778
  0
VERTEX
  8
0
 10
226.703
 20
63.9175
 30
0.0
 40
0.352778
 41
0.352778
  0
SEQEND
 8
0
  0
POLYLINE
  8
0
 62
     0
 66
     1
 10
0
 20
0
 30
0.0
 40
25.4
 41
25.4
  0
VERTEX
  8
0
 10
241.197
 20
12.9528
 30
0.0
 40
0.352778
 41
0.352778
  0
VERTEX
  8
0
 10
241.197
 20
20.0278
 30
0.0
 40
0.352778
 41
0.352778
  0
VERTEX
  8
0
 10
238.561
 20
20.0278
 30
0.0
 40
0.352778
 41
0.352778
  0
VERTEX
  8
0
 10
238.561
 20
40.6801
 30
0.0
 40
0.352778
 41
0.352778
  0
VERTEX
  8
0
 10
259.758
 20
40.6801
 30
0.0
 40
0.352778
 41
0.352778
  0
VERTEX
  8
0
 10
259.758
 20
20.0278
 30
0.0
 40
0.352778
 41
0.352778
  0
VERTEX
  8
0
 10
257.122
 20
20.0278
 30
0.0
 40
0.352778
 41
0.352778
  0
VERTEX
  8
0
 10
257.122
 20
12.9528
 30
0.0
 40
0.352778
 41
0.352778
  0
VERTEX
  8
0
 10
262.833
 20
12.9528
 30
0.0
 40
0.352778
 41
0.352778
  0
VERTEX
  8
0
 10
262.833
 20
33.8036
 30
0.0
 40
0.352778
 41
0.352778
  0
VERTEX
  8
0
 10
261.333
 20
33.8036
 30
0.0
 40
0.352778
 41
0.352778
  0
VERTEX
  8
0
 10
261.333
 20
34.7285
 30
0.0
 40
0.352778
 41
0.352778
  0
VERTEX
  8
0
 10
262.833
 20
34.7285
 30
0.0
 40
0.352778
 41
0.352778
  0
VERTEX
  8
0
 10
262.833
 20
40.7176
 30
0.0
 40
0.352778
 41
0.352778
  0
VERTEX
  8
0
 10
262.833
 20
40.8933
 30
0.0
 40
0.352778
 41
0.352778
  0
VERTEX
  8
0
 10
262.815
 20
41.4201
 30
0.0
 40
0.352778
 41
0.352778
  0
VERTEX
  8
0
 10
262.761
 20
42.1176
 30
0.0
 40
0.352778
 41
0.352778
  0
VERTEX
  8
0
 10
262.672
 20
42.8088
 30
0.0
 40
0.352778
 41
0.352778
  0
VERTEX
  8
0
 10
262.549
 20
43.4922
 30
0.0
 40
0.352778
 41
0.352778
  0
VERTEX
  8
0
 10
262.392
 20
44.1668
 30
0.0
 40
0.352778
 41
0.352778
  0
VERTEX
  8
0
 10
262.2
 20
44.8314
 30
0.0
 40
0.352778
 41
0.352778
  0
VERTEX
  8
0
 10
261.975
 20
45.4847
 30
0.0
 40
0.352778
 41
0.352778
  0
VERTEX
  8
0
 10
261.718
 20
46.1254
 30
0.0
 40
0.352778
 41
0.352778
  0
VERTEX
  8
0
 10
261.429
 20
46.7524
 30
0.0
 40
0.352778
 41
0.352778
  0
VERTEX
  8
0
 10
261.11
 20
47.3643
 30
0.0
 40
0.352778
 41
0.352778
  0
VERTEX
  8
0
 10
260.758
 20
47.9601
 30
0.0
 40
0.352778
 41
0.352778
  0
VERTEX
  8
0
 10
260.376
 20
48.5382
 30
0.0
 40
0.352778
 41
0.352778
  0
VERTEX
  8
0
 10
259.964
 20
49.0978
 30
0.0
 40
0.352778
 41
0.352778
  0
VERTEX
  8
0
 10
259.524
 20
49.6372
 30
0.0
 40
0.352778
 41
0.352778
  0
VERTEX
  8
0
 10
259.054
 20
50.1556
 30
0.0
 40
0.352778
 41
0.352778
  0
VERTEX
  8
0
 10
258.683
 20
50.5308
 30
0.0
 40
0.352778
 41
0.352778
  0
VERTEX
  8
0
 10
258.556
 20
50.6515
 30
0.0
 40
0.352778
 41
0.352778
  0
VERTEX
  8
0
 10
258.294
 20
50.7749
 30
0.0
 40
0.352778
 41
0.352778
  0
VERTEX
  8
0
 10
257.496
 20
51.1176
 30
0.0
 40
0.352778
 41
0.352778
  0
VERTEX
  8
0
 10
256.414
 20
51.5267
 30
0.0
 40
0.352778
 41
0.352778
  0
VERTEX
  8
0
 10
255.315
 20
51.8781
 30
0.0
 40
0.352778
 41
0.352778
  0
VERTEX
  8
0
 10
254.199
 20
52.1711
 30
0.0
 40
0.352778
 41
0.352778
  0
VERTEX
  8
0
 10
253.069
 20
52.4054
 30
0.0
 40
0.352778
 41
0.352778
  0
VERTEX
  8
0
 10
251.929
 20
52.5804
 30
0.0
 40
0.352778
 41
0.352778
  0
VERTEX
  8
0
 10
250.779
 20
52.6956
 30
0.0
 40
0.352778
 41
0.352778
  0
VERTEX
  8
0
 10
249.911
 20
52.7443
 30
0.0
 40
0.352778
 41
0.352778
  0
VERTEX
  8
0
 10
249.622
 20
52.7503
 30
0.0
 40
0.352778
 41
0.352778
  0
VERTEX
  8
0
 10
249.622
 20
51.3814
 30
0.0
 40
0.352778
 41
0.352778
  0
VERTEX
  8
0
 10
249.544
 20
51.3849
 30
0.0
 40
0.352778
 41
0.352778
  0
VERTEX
  8
0
 10
248.774
 20
51.3849
 30
0.0
 40
0.352778
 41
0.352778
  0
VERTEX
  8
0
 10
248.697
 20
51.3814
 30
0.0
 40
0.352778
 41
0.352778
  0
VERTEX
  8
0
 10
248.697
 20
52.7503
 30
0.0
 40
0.352778
 41
0.352778
  0
VERTEX
  8
0
 10
248.407
 20
52.7443
 30
0.0
 40
0.352778
 41
0.352778
  0
VERTEX
  8
0
 10
247.54
 20
52.6956
 30
0.0
 40
0.352778
 41
0.352778
  0
VERTEX
  8
0
 10
246.39
 20
52.5804
 30
0.0
 40
0.352778
 41
0.352778
  0
VERTEX
  8
0
 10
245.249
 20
52.4054
 30
0.0
 40
0.352778
 41
0.352778
  0
VERTEX
  8
0
 10
244.119
 20
52.1711
 30
0.0
 40
0.352778
 41
0.352778
  0
VERTEX
  8
0
 10
243.004
 20
51.8781
 30
0.0
 40
0.352778
 41
0.352778
  0
VERTEX
  8
0
 10
241.904
 20
51.5267
 30
0.0
 40
0.352778
 41
0.352778
  0
VERTEX
  8
0
 10
240.824
 20
51.1176
 30
0.0
 40
0.352778
 41
0.352778
  0
VERTEX
  8
0
 10
240.025
 20
50.7749
 30
0.0
 40
0.352778
 41
0.352778
  0
VERTEX
  8
0
 10
239.763
 20
50.6515
 30
0.0
 40
0.352778
 41
0.352778
  0
VERTEX
  8
0
 10
239.635
 20
50.5308
 30
0.0
 40
0.352778
 41
0.352778
  0
VERTEX
  8
0
 10
239.265
 20
50.1556
 30
0.0
 40
0.352778
 41
0.352778
  0
VERTEX
  8
0
 10
238.794
 20
49.6372
 30
0.0
 40
0.352778
 41
0.352778
  0
VERTEX
  8
0
 10
238.354
 20
49.0978
 30
0.0
 40
0.352778
 41
0.352778
  0
VERTEX
  8
0
 10
237.943
 20
48.5382
 30
0.0
 40
0.352778
 41
0.352778
  0
VERTEX
  8
0
 10
237.561
 20
47.9601
 30
0.0
 40
0.352778
 41
0.352778
  0
VERTEX
  8
0
 10
237.21
 20
47.3643
 30
0.0
 40
0.352778
 41
0.352778
  0
VERTEX
  8
0
 10
236.889
 20
46.7524
 30
0.0
 40
0.352778
 41
0.352778
  0
VERTEX
  8
0
 10
236.6
 20
46.1254
 30
0.0
 40
0.352778
 41
0.352778
  0
VERTEX
  8
0
 10
236.343
 20
45.4847
 30
0.0
 40
0.352778
 41
0.352778
  0
VERTEX
  8
0
 10
236.119
 20
44.8314
 30
0.0
 40
0.352778
 41
0.352778
  0
VERTEX
  8
0
 10
235.928
 20
44.1668
 30
0.0
 40
0.352778
 41
0.352778
  0
VERTEX
  8
0
 10
235.769
 20
43.4922
 30
0.0
 40
0.352778
 41
0.352778
  0
VERTEX
  8
0
 10
235.646
 20
42.8088
 30
0.0
 40
0.352778
 41
0.352778
  0
VERTEX
  8
0
 10
235.557
 20
42.1176
 30
0.0
 40
0.352778
 41
0.352778
  0
VERTEX
  8
0
 10
235.504
 20
41.4201
 30
0.0
 40
0.352778
 41
0.352778
  0
VERTEX
  8
0
 10
235.486
 20
40.8933
 30
0.0
 40
0.352778
 41
0.352778
  0
VERTEX
  8
0
 10
235.486
 20
40.7176
 30
0.0
 40
0.352778
 41
0.352778
  0
VERTEX
  8
0
 10
235.486
 20
34.7285
 30
0.0
 40
0.352778
 41
0.352778
  0
VERTEX
  8
0
 10
236.986
 20
34.7285
 30
0.0
 40
0.352778
 41
0.352778
  0
VERTEX
  8
0
 10
236.986
 20
33.8036
 30
0.0
 40
0.352778
 41
0.352778
  0
VERTEX
  8
0
 10
235.486
 20
33.8036
 30
0.0
 40
0.352778
 41
0.352778
  0
VERTEX
  8
0
 10
235.486
 20
12.9528
 30
0.0
 40
0.352778
 41
0.352778
  0
SEQEND
 8
0
  0
POLYLINE
  8
0
 62
     0
 66
     1
 10
0
 20
0
 30
0.0
 70
     1
 40
25.4
 41
25.4
  0
VERTEX
  8
0
 10
250.197
 20
49.6517
 30
0.0
 40
0.352778
 41
0.352778
  0
VERTEX
  8
0
 10
250.396
 20
49.6408
 30
0.0
 40
0.352778
 41
0.352778
  0
VERTEX
  8
0
 10
250.992
 20
49.5914
 30
0.0
 40
0.352778
 41
0.352778
  0
VERTEX
  8
0
 10
251.782
 20
49.4979
 30
0.0
 40
0.352778
 41
0.352778
  0
VERTEX
  8
0
 10
252.567
 20
49.3715
 30
0.0
 40
0.352778
 41
0.352778
  0
VERTEX
  8
0
 10
253.346
 20
49.2124
 30
0.0
 40
0.352778
 41
0.352778
  0
VERTEX
  8
0
 10
254.117
 20
49.0207
 30
0.0
 40
0.352778
 41
0.352778
  0
VERTEX
  8
0
 10
254.879
 20
48.7968
 30
0.0
 40
0.352778
 41
0.352778
  0
VERTEX
  8
0
 10
255.633
 20
48.5408
 30
0.0
 40
0.352778
 41
0.352778
  0
VERTEX
  8
0
 10
256.192
 20
48.3289
 30
0.0
 40
0.352778
 41
0.352778
  0
VERTEX
  8
0
 10
256.376
 20
48.2531
 30
0.0
 40
0.352778
 41
0.352778
  0
VERTEX
  8
0
 10
256.428
 20
48.2318
 30
0.0
 40
0.352778
 41
0.352778
  0
VERTEX
  8
0
 10
256.578
 20
48.1561
 30
0.0
 40
0.352778
 41
0.352778
  0
VERTEX
  8
0
 10
256.768
 20
48.0371
 30
0.0
 40
0.352778
 41
0.352778
  0
VERTEX
  8
0
 10
256.942
 20
47.8974
 30
0.0
 40
0.352778
 41
0.352778
  0
VERTEX
  8
0
 10
257.063
 20
47.7801
 30
0.0
 40
0.352778
 41
0.352778
  0
VERTEX
  8
0
 10
257.1
 20
47.7382
 30
0.0
 40
0.352778
 41
0.352778
  0
VERTEX
  8
0
 10
257.217
 20
47.6061
 30
0.0
 40
0.352778
 41
0.352778
  0
VERTEX
  8
0
 10
257.549
 20
47.1944
 30
0.0
 40
0.352778
 41
0.352778
  0
VERTEX
  8
0
 10
257.96
 20
46.6239
 30
0.0
 40
0.352778
 41
0.352778
  0
VERTEX
  8
0
 10
258.332
 20
46.0288
 30
0.0
 40
0.352778
 41
0.352778
  0
VERTEX
  8
0
 10
258.662
 20
45.4108
 30
0.0
 40
0.352778
 41
0.352778
  0
VERTEX
  8
0
 10
258.951
 20
44.7725
 30
0.0
 40
0.352778
 41
0.352778
  0
VERTEX
  8
0
 10
259.199
 20
44.1157
 30
0.0
 40
0.352778
 41
0.352778
  0
VERTEX
  8
0
 10
259.401
 20
43.4425
 30
0.0
 40
0.352778
 41
0.352778
  0
VERTEX
  8
0
 10
259.526
 20
42.9281
 30
0.0
 40
0.352778
 41
0.352778
  0
VERTEX
  8
0
 10
259.561
 20
42.7551
 30
0.0
 40
0.352778
 41
0.352778
  0
VERTEX
  8
0
 10
251.412
 20
42.7551
 30
0.0
 40
0.352778
 41
0.352778
  0
VERTEX
  8
0
 10
251.35
 20
42.8236
 30
0.0
 40
0.352778
 41
0.352778
  0
VERTEX
  8
0
 10
251.147
 20
43.0142
 30
0.0
 40
0.352778
 41
0.352778
  0
VERTEX
  8
0
 10
250.854
 20
43.2382
 30
0.0
 40
0.352778
 41
0.352778
  0
VERTEX
  8
0
 10
250.536
 20
43.425
 30
0.0
 40
0.352778
 41
0.352778
  0
VERTEX
  8
0
 10
250.283
 20
43.541
 30
0.0
 40
0.352778
 41
0.352778
  0
VERTEX
  8
0
 10
250.197
 20
43.5724
 30
0.0
 40
0.352778
 41
0.352778
  0
VERTEX
  8
0
 10
250.197
 20
49.6517
 30
0.0
 40
0.352778
 41
0.352778
  0
SEQEND
 8
0
  0
POLYLINE
  8
0
 62
     0
 66
     1
 10
0
 20
0
 30
0.0
 70
     1
 40
25.4
 41
25.4
  0
VERTEX
  8
0
 10
259.09
 20
49.9946
 30
0.0
 40
0.352778
 41
0.352778
  0
VERTEX
  8
0
 10
259.035
 20
50.0489
 30
0.0
 40
0.352778
 41
0.352778
  0
VERTEX
  8
0
 10
258.742
 20
50.3033
 30
0.0
 40
0.352778
 41
0.352778
  0
VERTEX
  8
0
 10
258.431
 20
50.5353
 30
0.0
 40
0.352778
 41
0.352778
  0
VERTEX
  8
0
 10
258.365
 20
50.5782
 30
0.0
 40
0.352778
 41
0.352778
  0
VERTEX
  8
0
 10
257.44
 20
49.6529
 30
0.0
 40
0.352778
 41
0.352778
  0
VERTEX
  8
0
 10
258.094
 20
48.9987
 30
0.0
 40
0.352778
 41
0.352778
  0
VERTEX
  8
0
 10
259.09
 20
49.9946
 30
0.0
 40
0.352778
 41
0.352778
  0
SEQEND
 8
0
  0
POLYLINE
  8
0
 62
     0
 66
     1
 10
0
 20
0
 30
0.0
 70
     1
 40
25.4
 41
25.4
  0
VERTEX
  8
0
 10
239.338
 20
50.0976
 30
0.0
 40
0.352778
 41
0.352778
  0
VERTEX
  8
0
 10
239.376
 20
50.1331
 30
0.0
 40
0.352778
 41
0.352778
  0
VERTEX
  8
0
 10
239.576
 20
50.3026
 30
0.0
 40
0.352778
 41
0.352778
  0
VERTEX
  8
0
 10
239.783
 20
50.4618
 30
0.0
 40
0.352778
 41
0.352778
  0
VERTEX
  8
0
 10
239.826
 20
50.4921
 30
0.0
 40
0.352778
 41
0.352778
  0
VERTEX
  8
0
 10
240.772
 20
49.5468
 30
0.0
 40
0.352778
 41
0.352778
  0
VERTEX
  8
0
 10
240.331
 20
49.1049
 30
0.0
 40
0.352778
 41
0.352778
  0
VERTEX
  8
0
 10
239.338
 20
50.0976
 30
0.0
 40
0.352778
 41
0.352778
  0
SEQEND
 8
0
  0
POLYLINE
  8
0
 62
     0
 66
     1
 10
0
 20
0
 30
0.0
 70
     1
 40
25.4
 41
25.4
  0
VERTEX
  8
0
 10
238.758
 20
42.7551
 30
0.0
 40
0.352778
 41
0.352778
  0
VERTEX
  8
0
 10
238.792
 20
42.9281
 30
0.0
 40
0.352778
 41
0.352778
  0
VERTEX
  8
0
 10
238.917
 20
43.4425
 30
0.0
 40
0.352778
 41
0.352778
  0
VERTEX
  8
0
 10
239.119
 20
44.1157
 30
0.0
 40
0.352778
 41
0.352778
  0
VERTEX
  8
0
 10
239.367
 20
44.7725
 30
0.0
 40
0.352778
 41
0.352778
  0
VERTEX
  8
0
 10
239.656
 20
45.4108
 30
0.0
 40
0.352778
 41
0.352778
  0
VERTEX
  8
0
 10
239.987
 20
46.0288
 30
0.0
 40
0.352778
 41
0.352778
  0
VERTEX
  8
0
 10
240.358
 20
46.6239
 30
0.0
 40
0.352778
 41
0.352778
  0
VERTEX
  8
0
 10
240.769
 20
47.1944
 30
0.0
 40
0.352778
 41
0.352778
  0
VERTEX
  8
0
 10
241.103
 20
47.6062
 30
0.0
 40
0.352778
 41
0.352778
  0
VERTEX
  8
0
 10
241.219
 20
47.7382
 30
0.0
 40
0.352778
 41
0.352778
  0
VERTEX
  8
0
 10
241.256
 20
47.7801
 30
0.0
 40
0.352778
 41
0.352778
  0
VERTEX
  8
0
 10
241.376
 20
47.8974
 30
0.0
 40
0.352778
 41
0.352778
  0
VERTEX
  8
0
 10
241.551
 20
48.0371
 30
0.0
 40
0.352778
 41
0.352778
  0
VERTEX
  8
0
 10
241.74
 20
48.1561
 30
0.0
 40
0.352778
 41
0.352778
  0
VERTEX
  8
0
 10
241.89
 20
48.2318
 30
0.0
 40
0.352778
 41
0.352778
  0
VERTEX
  8
0
 10
241.943
 20
48.2531
 30
0.0
 40
0.352778
 41
0.352778
  0
VERTEX
  8
0
 10
242.126
 20
48.3289
 30
0.0
 40
0.352778
 41
0.352778
  0
VERTEX
  8
0
 10
242.686
 20
48.5408
 30
0.0
 40
0.352778
 41
0.352778
  0
VERTEX
  8
0
 10
243.439
 20
48.7968
 30
0.0
 40
0.352778
 41
0.352778
  0
VERTEX
  8
0
 10
244.201
 20
49.0207
 30
0.0
 40
0.352778
 41
0.352778
  0
VERTEX
  8
0
 10
244.974
 20
49.2124
 30
0.0
 40
0.352778
 41
0.352778
  0
VERTEX
  8
0
 10
245.751
 20
49.3715
 30
0.0
 40
0.352778
 41
0.352778
  0
VERTEX
  8
0
 10
246.537
 20
49.4979
 30
0.0
 40
0.352778
 41
0.352778
  0
VERTEX
  8
0
 10
247.328
 20
49.5914
 30
0.0
 40
0.352778
 41
0.352778
  0
VERTEX
  8
0
 10
247.924
 20
49.6408
 30
0.0
 40
0.352778
 41
0.352778
  0
VERTEX
  8
0
 10
248.122
 20
49.6517
 30
0.0
 40
0.352778
 41
0.352778
  0
VERTEX
  8
0
 10
248.122
 20
43.5724
 30
0.0
 40
0.352778
 41
0.352778
  0
VERTEX
  8
0
 10
248.035
 20
43.541
 30
0.0
 40
0.352778
 41
0.352778
  0
VERTEX
  8
0
 10
247.782
 20
43.425
 30
0.0
 40
0.352778
 41
0.352778
  0
VERTEX
  8
0
 10
247.464
 20
43.2382
 30
0.0
 40
0.352778
 41
0.352778
  0
VERTEX
  8
0
 10
247.171
 20
43.0142
 30
0.0
 40
0.352778
 41
0.352778
  0
VERTEX
  8
0
 10
246.968
 20
42.8236
 30
0.0
 40
0.352778
 41
0.352778
  0
VERTEX
  8
0
 10
246.907
 20
42.7551
 30
0.0
 40
0.352778
 41
0.352778
  0
VERTEX
  8
0
 10
238.758
 20
42.7551
 30
0.0
 40
0.352778
 41
0.352778
  0
SEQEND
 8
0
  0
POLYLINE
  8
0
 62
     0
 66
     1
 10
0
 20
0
 30
0.0
 70
     1
 40
25.4
 41
25.4
  0
VERTEX
  8
0
 10
141.258
 20
19.2931
 30
0.0
 40
0.352778
 41
0.352778
  0
VERTEX
  8
0
 10
141.136
 20
19.181
 30
0.0
 40
0.352778
 41
0.352778
  0
VERTEX
  8
0
 10
140.763
 20
18.856
 30
0.0
 40
0.352778
 41
0.352778
  0
VERTEX
  8
0
 10
140.247
 20
18.4442
 30
0.0
 40
0.352778
 41
0.352778
  0
VERTEX
  8
0
 10
139.717
 20
18.0583
 30
0.0
 40
0.352778
 41
0.352778
  0
VERTEX
  8
0
 10
139.169
 20
17.6985
 30
0.0
 40
0.352778
 41
0.352778
  0
VERTEX
  8
0
 10
138.607
 20
17.3653
 30
0.0
 40
0.352778
 41
0.352778
  0
VERTEX
  8
0
 10
138.031
 20
17.059
 30
0.0
 40
0.352778
 41
0.352778
  0
VERTEX
  8
0
 10
137.442
 20
16.78
 30
0.0
 40
0.352778
 41
0.352778
  0
VERTEX
  8
0
 10
136.841
 20
16.5287
 30
0.0
 40
0.352778
 41
0.352778
  0
VERTEX
  8
0
 10
136.229
 20
16.3057
 30
0.0
 40
0.352778
 41
0.352778
  0
VERTEX
  8
0
 10
135.607
 20
16.111
 30
0.0
 40
0.352778
 41
0.352778
  0
VERTEX
  8
0
 10
134.976
 20
15.9453
 30
0.0
 40
0.352778
 41
0.352778
  0
VERTEX
  8
0
 10
134.337
 20
15.8087
 30
0.0
 40
0.352778
 41
0.352778
  0
VERTEX
  8
0
 10
133.691
 20
15.7019
 30
0.0
 40
0.352778
 41
0.352778
  0
VERTEX
  8
0
 10
133.039
 20
15.6251
 30
0.0
 40
0.352778
 41
0.352778
  0
VERTEX
  8
0
 10
132.382
 20
15.5788
 30
0.0
 40
0.352778
 41
0.352778
  0
VERTEX
  8
0
 10
131.886
 20
15.5632
 30
0.0
 40
0.352778
 41
0.352778
  0
VERTEX
  8
0
 10
131.721
 20
15.5632
 30
0.0
 40
0.352778
 41
0.352778
  0
VERTEX
  8
0
 10
131.555
 20
15.5632
 30
0.0
 40
0.352778
 41
0.352778
  0
VERTEX
  8
0
 10
131.06
 20
15.5788
 30
0.0
 40
0.352778
 41
0.352778
  0
VERTEX
  8
0
 10
130.402
 20
15.6251
 30
0.0
 40
0.352778
 41
0.352778
  0
VERTEX
  8
0
 10
129.75
 20
15.7019
 30
0.0
 40
0.352778
 41
0.352778
  0
VERTEX
  8
0
 10
129.104
 20
15.8087
 30
0.0
 40
0.352778
 41
0.352778
  0
VERTEX
  8
0
 10
128.465
 20
15.9453
 30
0.0
 40
0.352778
 41
0.352778
  0
VERTEX
  8
0
 10
127.834
 20
16.111
 30
0.0
 40
0.352778
 41
0.352778
  0
VERTEX
  8
0
 10
127.212
 20
16.3057
 30
0.0
 40
0.352778
 41
0.352778
  0
VERTEX
  8
0
 10
126.6
 20
16.5287
 30
0.0
 40
0.352778
 41
0.352778
  0
VERTEX
  8
0
 10
125.999
 20
16.78
 30
0.0
 40
0.352778
 41
0.352778
  0
VERTEX
  8
0
 10
125.41
 20
17.059
 30
0.0
 40
0.352778
 41
0.352778
  0
VERTEX
  8
0
 10
124.834
 20
17.3653
 30
0.0
 40
0.352778
 41
0.352778
  0
VERTEX
  8
0
 10
124.272
 20
17.6985
 30
0.0
 40
0.352778
 41
0.352778
  0
VERTEX
  8
0
 10
123.725
 20
18.0583
 30
0.0
 40
0.352778
 41
0.352778
  0
VERTEX
  8
0
 10
123.194
 20
18.4442
 30
0.0
 40
0.352778
 41
0.352778
  0
VERTEX
  8
0
 10
122.679
 20
18.856
 30
0.0
 40
0.352778
 41
0.352778
  0
VERTEX
  8
0
 10
122.305
 20
19.181
 30
0.0
 40
0.352778
 41
0.352778
  0
VERTEX
  8
0
 10
122.183
 20
19.2931
 30
0.0
 40
0.352778
 41
0.352778
  0
VERTEX
  8
0
 10
122.183
 20
13.9329
 30
0.0
 40
0.352778
 41
0.352778
  0
VERTEX
  8
0
 10
121.258
 20
13.9329
 30
0.0
 40
0.352778
 41
0.352778
  0
VERTEX
  8
0
 10
121.258
 20
19.2931
 30
0.0
 40
0.352778
 41
0.352778
  0
VERTEX
  8
0
 10
121.137
 20
19.181
 30
0.0
 40
0.352778
 41
0.352778
  0
VERTEX
  8
0
 10
120.762
 20
18.856
 30
0.0
 40
0.352778
 41
0.352778
  0
VERTEX
  8
0
 10
120.248
 20
18.4442
 30
0.0
 40
0.352778
 41
0.352778
  0
VERTEX
  8
0
 10
119.716
 20
18.0583
 30
0.0
 40
0.352778
 41
0.352778
  0
VERTEX
  8
0
 10
119.169
 20
17.6985
 30
0.0
 40
0.352778
 41
0.352778
  0
VERTEX
  8
0
 10
118.607
 20
17.3653
 30
0.0
 40
0.352778
 41
0.352778
  0
VERTEX
  8
0
 10
118.031
 20
17.059
 30
0.0
 40
0.352778
 41
0.352778
  0
VERTEX
  8
0
 10
117.442
 20
16.78
 30
0.0
 40
0.352778
 41
0.352778
  0
VERTEX
  8
0
 10
116.841
 20
16.5287
 30
0.0
 40
0.352778
 41
0.352778
  0
VERTEX
  8
0
 10
116.229
 20
16.3057
 30
0.0
 40
0.352778
 41
0.352778
  0
VERTEX
  8
0
 10
115.607
 20
16.111
 30
0.0
 40
0.352778
 41
0.352778
  0
VERTEX
  8
0
 10
114.976
 20
15.9453
 30
0.0
 40
0.352778
 41
0.352778
  0
VERTEX
  8
0
 10
114.337
 20
15.8087
 30
0.0
 40
0.352778
 41
0.352778
  0
VERTEX
  8
0
 10
113.691
 20
15.7019
 30
0.0
 40
0.352778
 41
0.352778
  0
VERTEX
  8
0
 10
113.039
 20
15.6251
 30
0.0
 40
0.352778
 41
0.352778
  0
VERTEX
  8
0
 10
112.382
 20
15.5788
 30
0.0
 40
0.352778
 41
0.352778
  0
VERTEX
  8
0
 10
111.886
 20
15.5632
 30
0.0
 40
0.352778
 41
0.352778
  0
VERTEX
  8
0
 10
111.721
 20
15.5632
 30
0.0
 40
0.352778
 41
0.352778
  0
VERTEX
  8
0
 10
111.555
 20
15.5632
 30
0.0
 40
0.352778
 41
0.352778
  0
VERTEX
  8
0
 10
111.059
 20
15.5788
 30
0.0
 40
0.352778
 41
0.352778
  0
VERTEX
  8
0
 10
110.402
 20
15.6251
 30
0.0
 40
0.352778
 41
0.352778
  0
VERTEX
  8
0
 10
109.75
 20
15.7019
 30
0.0
 40
0.352778
 41
0.352778
  0
VERTEX
  8
0
 10
109.104
 20
15.8087
 30
0.0
 40
0.352778
 41
0.352778
  0
VERTEX
  8
0
 10
108.465
 20
15.9453
 30
0.0
 40
0.352778
 41
0.352778
  0
VERTEX
  8
0
 10
107.834
 20
16.111
 30
0.0
 40
0.352778
 41
0.352778
  0
VERTEX
  8
0
 10
107.212
 20
16.3057
 30
0.0
 40
0.352778
 41
0.352778
  0
VERTEX
  8
0
 10
106.6
 20
16.5287
 30
0.0
 40
0.352778
 41
0.352778
  0
VERTEX
  8
0
 10
105.999
 20
16.78
 30
0.0
 40
0.352778
 41
0.352778
  0
VERTEX
  8
0
 10
105.41
 20
17.059
 30
0.0
 40
0.352778
 41
0.352778
  0
VERTEX
  8
0
 10
104.834
 20
17.3653
 30
0.0
 40
0.352778
 41
0.352778
  0
VERTEX
  8
0
 10
104.272
 20
17.6985
 30
0.0
 40
0.352778
 41
0.352778
  0
VERTEX
  8
0
 10
103.725
 20
18.0583
 30
0.0
 40
0.352778
 41
0.352778
  0
VERTEX
  8
0
 10
103.194
 20
18.4442
 30
0.0
 40
0.352778
 41
0.352778
  0
VERTEX
  8
0
 10
102.679
 20
18.856
 30
0.0
 40
0.352778
 41
0.352778
  0
VERTEX
  8
0
 10
102.305
 20
19.181
 30
0.0
 40
0.352778
 41
0.352778
  0
VERTEX
  8
0
 10
102.183
 20
19.2931
 30
0.0
 40
0.352778
 41
0.352778
  0
VERTEX
  8
0
 10
102.183
 20
13.9329
 30
0.0
 40
0.352778
 41
0.352778
  0
VERTEX
  8
0
 10
101.183
 20
13.9329
 30
0.0
 40
0.352778
 41
0.352778
  0
VERTEX
  8
0
 10
101.183
 20
12.4882
 30
0.0
 40
0.352778
 41
0.352778
  0
VERTEX
  8
0
 10
202.258
 20
12.4882
 30
0.0
 40
0.352778
 41
0.352778
  0
VERTEX
  8
0
 10
202.258
 20
13.9329
 30
0.0
 40
0.352778
 41
0.352778
  0
VERTEX
  8
0
 10
201.258
 20
13.9329
 30
0.0
 40
0.352778
 41
0.352778
  0
VERTEX
  8
0
 10
201.258
 20
19.2931
 30
0.0
 40
0.352778
 41
0.352778
  0
VERTEX
  8
0
 10
201.136
 20
19.181
 30
0.0
 40
0.352778
 41
0.352778
  0
VERTEX
  8
0
 10
200.763
 20
18.856
 30
0.0
 40
0.352778
 41
0.352778
  0
VERTEX
  8
0
 10
200.247
 20
18.4442
 30
0.0
 40
0.352778
 41
0.352778
  0
VERTEX
  8
0
 10
199.717
 20
18.0583
 30
0.0
 40
0.352778
 41
0.352778
  0
VERTEX
  8
0
 10
199.169
 20
17.6985
 30
0.0
 40
0.352778
 41
0.352778
  0
VERTEX
  8
0
 10
198.607
 20
17.3653
 30
0.0
 40
0.352778
 41
0.352778
  0
VERTEX
  8
0
 10
198.032
 20
17.059
 30
0.0
 40
0.352778
 41
0.352778
  0
VERTEX
  8
0
 10
197.442
 20
16.78
 30
0.0
 40
0.352778
 41
0.352778
  0
VERTEX
  8
0
 10
196.842
 20
16.5287
 30
0.0
 40
0.352778
 41
0.352778
  0
VERTEX
  8
0
 10
196.229
 20
16.3057
 30
0.0
 40
0.352778
 41
0.352778
  0
VERTEX
  8
0
 10
195.607
 20
16.111
 30
0.0
 40
0.352778
 41
0.352778
  0
VERTEX
  8
0
 10
194.976
 20
15.9453
 30
0.0
 40
0.352778
 41
0.352778
  0
VERTEX
  8
0
 10
194.337
 20
15.8087
 30
0.0
 40
0.352778
 41
0.352778
  0
VERTEX
  8
0
 10
193.692
 20
15.7019
 30
0.0
 40
0.352778
 41
0.352778
  0
VERTEX
  8
0
 10
193.039
 20
15.6251
 30
0.0
 40
0.352778
 41
0.352778
  0
VERTEX
  8
0
 10
192.382
 20
15.5788
 30
0.0
 40
0.352778
 41
0.352778
  0
VERTEX
  8
0
 10
191.886
 20
15.5632
 30
0.0
 40
0.352778
 41
0.352778
  0
VERTEX
  8
0
 10
191.721
 20
15.5632
 30
0.0
 40
0.352778
 41
0.352778
  0
VERTEX
  8
0
 10
191.556
 20
15.5632
 30
0.0
 40
0.352778
 41
0.352778
  0
VERTEX
  8
0
 10
191.06
 20
15.5788
 30
0.0
 40
0.352778
 41
0.352778
  0
VERTEX
  8
0
 10
190.403
 20
15.6251
 30
0.0
 40
0.352778
 41
0.352778
  0
VERTEX
  8
0
 10
189.75
 20
15.7019
 30
0.0
 40
0.352778
 41
0.352778
  0
VERTEX
  8
0
 10
189.104
 20
15.8087
 30
0.0
 40
0.352778
 41
0.352778
  0
VERTEX
  8
0
 10
188.465
 20
15.9453
 30
0.0
 40
0.352778
 41
0.352778
  0
VERTEX
  8
0
 10
187.835
 20
16.111
 30
0.0
 40
0.352778
 41
0.352778
  0
VERTEX
  8
0
 10
187.212
 20
16.3057
 30
0.0
 40
0.352778
 41
0.352778
  0
VERTEX
  8
0
 10
186.6
 20
16.5287
 30
0.0
 40
0.352778
 41
0.352778
  0
VERTEX
  8
0
 10
185.999
 20
16.78
 30
0.0
 40
0.352778
 41
0.352778
  0
VERTEX
  8
0
 10
185.41
 20
17.059
 30
0.0
 40
0.352778
 41
0.352778
  0
VERTEX
  8
0
 10
184.835
 20
17.3653
 30
0.0
 40
0.352778
 41
0.352778
  0
VERTEX
  8
0
 10
184.272
 20
17.6985
 30
0.0
 40
0.352778
 41
0.352778
  0
VERTEX
  8
0
 10
183.725
 20
18.0583
 30
0.0
 40
0.352778
 41
0.352778
  0
VERTEX
  8
0
 10
183.193
 20
18.4442
 30
0.0
 40
0.352778
 41
0.352778
  0
VERTEX
  8
0
 10
182.679
 20
18.856
 30
0.0
 40
0.352778
 41
0.352778
  0
VERTEX
  8
0
 10
182.304
 20
19.181
 30
0.0
 40
0.352778
 41
0.352778
  0
VERTEX
  8
0
 10
182.183
 20
19.2931
 30
0.0
 40
0.352778
 41
0.352778
  0
VERTEX
  8
0
 10
182.183
 20
13.9329
 30
0.0
 40
0.352778
 41
0.352778
  0
VERTEX
  8
0
 10
181.258
 20
13.9329
 30
0.0
 40
0.352778
 41
0.352778
  0
VERTEX
  8
0
 10
181.258
 20
19.2931
 30
0.0
 40
0.352778
 41
0.352778
  0
VERTEX
  8
0
 10
181.136
 20
19.181
 30
0.0
 40
0.352778
 41
0.352778
  0
VERTEX
  8
0
 10
180.763
 20
18.856
 30
0.0
 40
0.352778
 41
0.352778
  0
VERTEX
  8
0
 10
180.247
 20
18.4442
 30
0.0
 40
0.352778
 41
0.352778
  0
VERTEX
  8
0
 10
179.717
 20
18.0583
 30
0.0
 40
0.352778
 41
0.352778
  0
VERTEX
  8
0
 10
179.169
 20
17.6985
 30
0.0
 40
0.352778
 41
0.352778
  0
VERTEX
  8
0
 10
178.607
 20
17.3653
 30
0.0
 40
0.352778
 41
0.352778
  0
VERTEX
  8
0
 10
178.031
 20
17.059
 30
0.0
 40
0.352778
 41
0.352778
  0
VERTEX
  8
0
 10
177.442
 20
16.78
 30
0.0
 40
0.352778
 41
0.352778
  0
VERTEX
  8
0
 10
176.842
 20
16.5287
 30
0.0
 40
0.352778
 41
0.352778
  0
VERTEX
  8
0
 10
176.229
 20
16.3057
 30
0.0
 40
0.352778
 41
0.352778
  0
VERTEX
  8
0
 10
175.607
 20
16.111
 30
0.0
 40
0.352778
 41
0.352778
  0
VERTEX
  8
0
 10
174.976
 20
15.9453
 30
0.0
 40
0.352778
 41
0.352778
  0
VERTEX
  8
0
 10
174.337
 20
15.8087
 30
0.0
 40
0.352778
 41
0.352778
  0
VERTEX
  8
0
 10
173.692
 20
15.7019
 30
0.0
 40
0.352778
 41
0.352778
  0
VERTEX
  8
0
 10
173.039
 20
15.6251
 30
0.0
 40
0.352778
 41
0.352778
  0
VERTEX
  8
0
 10
172.382
 20
15.5788
 30
0.0
 40
0.352778
 41
0.352778
  0
VERTEX
  8
0
 10
171.886
 20
15.5632
 30
0.0
 40
0.352778
 41
0.352778
  0
VERTEX
  8
0
 10
171.721
 20
15.5632
 30
0.0
 40
0.352778
 41
0.352778
  0
VERTEX
  8
0
 10
171.556
 20
15.5632
 30
0.0
 40
0.352778
 41
0.352778
  0
VERTEX
  8
0
 10
171.06
 20
15.5788
 30
0.0
 40
0.352778
 41
0.352778
  0
VERTEX
  8
0
 10
170.403
 20
15.6251
 30
0.0
 40
0.352778
 41
0.352778
  0
VERTEX
  8
0
 10
169.75
 20
15.7019
 30
0.0
 40
0.352778
 41
0.352778
  0
VERTEX
  8
0
 10
169.104
 20
15.8087
 30
0.0
 40
0.352778
 41
0.352778
  0
VERTEX
  8
0
 10
168.465
 20
15.9453
 30
0.0
 40
0.352778
 41
0.352778
  0
VERTEX
  8
0
 10
167.835
 20
16.111
 30
0.0
 40
0.352778
 41
0.352778
  0
VERTEX
  8
0
 10
167.212
 20
16.3057
 30
0.0
 40
0.352778
 41
0.352778
  0
VERTEX
  8
0
 10
166.6
 20
16.5287
 30
0.0
 40
0.352778
 41
0.352778
  0
VERTEX
  8
0
 10
165.999
 20
16.78
 30
0.0
 40
0.352778
 41
0.352778
  0
VERTEX
  8
0
 10
165.41
 20
17.059
 30
0.0
 40
0.352778
 41
0.352778
  0
VERTEX
  8
0
 10
164.835
 20
17.3653
 30
0.0
 40
0.352778
 41
0.352778
  0
VERTEX
  8
0
 10
164.272
 20
17.6985
 30
0.0
 40
0.352778
 41
0.352778
  0
VERTEX
  8
0
 10
163.725
 20
18.0583
 30
0.0
 40
0.352778
 41
0.352778
  0
VERTEX
  8
0
 10
163.193
 20
18.4442
 30
0.0
 40
0.352778
 41
0.352778
  0
VERTEX
  8
0
 10
162.679
 20
18.856
 30
0.0
 40
0.352778
 41
0.352778
  0
VERTEX
  8
0
 10
162.304
 20
19.181
 30
0.0
 40
0.352778
 41
0.352778
  0
VERTEX
  8
0
 10
162.183
 20
19.2931
 30
0.0
 40
0.352778
 41
0.352778
  0
VERTEX
  8
0
 10
162.183
 20
13.9329
 30
0.0
 40
0.352778
 41
0.352778
  0
VERTEX
  8
0
 10
161.258
 20
13.9329
 30
0.0
 40
0.352778
 41
0.352778
  0
VERTEX
  8
0
 10
161.258
 20
19.2931
 30
0.0
 40
0.352778
 41
0.352778
  0
VERTEX
  8
0
 10
161.136
 20
19.181
 30
0.0
 40
0.352778
 41
0.352778
  0
VERTEX
  8
0
 10
160.763
 20
18.856
 30
0.0
 40
0.352778
 41
0.352778
  0
VERTEX
  8
0
 10
160.247
 20
18.4442
 30
0.0
 40
0.352778
 41
0.352778
  0
VERTEX
  8
0
 10
159.717
 20
18.0583
 30
0.0
 40
0.352778
 41
0.352778
  0
VERTEX
  8
0
 10
159.169
 20
17.6985
 30
0.0
 40
0.352778
 41
0.352778
  0
VERTEX
  8
0
 10
158.607
 20
17.3653
 30
0.0
 40
0.352778
 41
0.352778
  0
VERTEX
  8
0
 10
158.031
 20
17.059
 30
0.0
 40
0.352778
 41
0.352778
  0
VERTEX
  8
0
 10
157.442
 20
16.78
 30
0.0
 40
0.352778
 41
0.352778
  0
VERTEX
  8
0
 10
156.842
 20
16.5287
 30
0.0
 40
0.352778
 41
0.352778
  0
VERTEX
  8
0
 10
156.229
 20
16.3057
 30
0.0
 40
0.352778
 41
0.352778
  0
VERTEX
  8
0
 10
155.607
 20
16.111
 30
0.0
 40
0.352778
 41
0.352778
  0
VERTEX
  8
0
 10
154.976
 20
15.9453
 30
0.0
 40
0.352778
 41
0.352778
  0
VERTEX
  8
0
 10
154.337
 20
15.8087
 30
0.0
 40
0.352778
 41
0.352778
  0
VERTEX
  8
0
 10
153.692
 20
15.7019
 30
0.0
 40
0.352778
 41
0.352778
  0
VERTEX
  8
0
 10
153.039
 20
15.6251
 30
0.0
 40
0.352778
 41
0.352778
  0
VERTEX
  8
0
 10
152.382
 20
15.5788
 30
0.0
 40
0.352778
 41
0.352778
  0
VERTEX
  8
0
 10
151.886
 20
15.5632
 30
0.0
 40
0.352778
 41
0.352778
  0
VERTEX
  8
0
 10
151.721
 20
15.5632
 30
0.0
 40
0.352778
 41
0.352778
  0
VERTEX
  8
0
 10
151.556
 20
15.5632
 30
0.0
 40
0.352778
 41
0.352778
  0
VERTEX
  8
0
 10
151.06
 20
15.5788
 30
0.0
 40
0.352778
 41
0.352778
  0
VERTEX
  8
0
 10
150.403
 20
15.6251
 30
0.0
 40
0.352778
 41
0.352778
  0
VERTEX
  8
0
 10
149.75
 20
15.7019
 30
0.0
 40
0.352778
 41
0.352778
  0
VERTEX
  8
0
 10
149.104
 20
15.8087
 30
0.0
 40
0.352778
 41
0.352778
  0
VERTEX
  8
0
 10
148.465
 20
15.9453
 30
0.0
 40
0.352778
 41
0.352778
  0
VERTEX
  8
0
 10
147.835
 20
16.111
 30
0.0
 40
0.352778
 41
0.352778
  0
VERTEX
  8
0
 10
147.212
 20
16.3057
 30
0.0
 40
0.352778
 41
0.352778
  0
VERTEX
  8
0
 10
146.6
 20
16.5287
 30
0.0
 40
0.352778
 41
0.352778
  0
VERTEX
  8
0
 10
145.999
 20
16.78
 30
0.0
 40
0.352778
 41
0.352778
  0
VERTEX
  8
0
 10
145.41
 20
17.059
 30
0.0
 40
0.352778
 41
0.352778
  0
VERTEX
  8
0
 10
144.835
 20
17.3653
 30
0.0
 40
0.352778
 41
0.352778
  0
VERTEX
  8
0
 10
144.272
 20
17.6985
 30
0.0
 40
0.352778
 41
0.352778
  0
VERTEX
  8
0
 10
143.725
 20
18.0583
 30
0.0
 40
0.352778
 41
0.352778
  0
VERTEX
  8
0
 10
143.193
 20
18.4442
 30
0.0
 40
0.352778
 41
0.352778
  0
VERTEX
  8
0
 10
142.679
 20
18.856
 30
0.0
 40
0.352778
 41
0.352778
  0
VERTEX
  8
0
 10
142.304
 20
19.181
 30
0.0
 40
0.352778
 41
0.352778
  0
VERTEX
  8
0
 10
142.183
 20
19.2931
 30
0.0
 40
0.352778
 41
0.352778
  0
VERTEX
  8
0
 10
142.183
 20
13.9329
 30
0.0
 40
0.352778
 41
0.352778
  0
VERTEX
  8
0
 10
141.258
 20
13.9329
 30
0.0
 40
0.352778
 41
0.352778
  0
VERTEX
  8
0
 10
141.258
 20
19.2931
 30
0.0
 40
0.352778
 41
0.352778
  0
SEQEND
 8
0
  0
POLYLINE
  8
0
 62
     0
 66
     1
 10
0
 20
0
 30
0.0
 40
25.4
 41
25.4
  0
VERTEX
  8
0
 10
142.422
 20
61.6531
 30
0.0
 40
0.352778
 41
0.352778
  0
VERTEX
  8
0
 10
142.774
 20
61.6531
 30
0.0
 40
0.352778
 41
0.352778
  0
VERTEX
  8
0
 10
143.826
 20
61.6203
 30
0.0
 40
0.352778
 41
0.352778
  0
VERTEX
  8
0
 10
145.224
 20
61.5222
 30
0.0
 40
0.352778
 41
0.352778
  0
VERTEX
  8
0
 10
146.614
 20
61.3592
 30
0.0
 40
0.352778
 41
0.352778
  0
VERTEX
  8
0
 10
147.994
 20
61.1317
 30
0.0
 40
0.352778
 41
0.352778
  0
VERTEX
  8
0
 10
149.362
 20
60.84
 30
0.0
 40
0.352778
 41
0.352778
  0
VERTEX
  8
0
 10
150.717
 20
60.4846
 30
0.0
 40
0.352778
 41
0.352778
  0
VERTEX
  8
0
 10
152.054
 20
60.066
 30
0.0
 40
0.352778
 41
0.352778
  0
VERTEX
  8
0
 10
153.046
 20
59.7125
 30
0.0
 40
0.352778
 41
0.352778
  0
VERTEX
  8
0
 10
153.372
 20
59.5846
 30
0.0
 40
0.352778
 41
0.352778
  0
VERTEX
  8
0
 10
153.567
 20
59.5085
 30
0.0
 40
0.352778
 41
0.352778
  0
VERTEX
  8
0
 10
154.138
 20
59.2508
 30
0.0
 40
0.352778
 41
0.352778
  0
VERTEX
  8
0
 10
154.874
 20
58.8624
 30
0.0
 40
0.352778
 41
0.352778
  0
VERTEX
  8
0
 10
155.575
 20
58.4211
 30
0.0
 40
0.352778
 41
0.352778
  0
VERTEX
  8
0
 10
156.242
 20
57.9296
 30
0.0
 40
0.352778
 41
0.352778
  0
VERTEX
  8
0
 10
156.869
 20
57.3896
 30
0.0
 40
0.352778
 41
0.352778
  0
VERTEX
  8
0
 10
157.457
 20
56.8036
 30
0.0
 40
0.352778
 41
0.352778
  0
VERTEX
  8
0
 10
158
 20
56.1736
 30
0.0
 40
0.352778
 41
0.352778
  0
VERTEX
  8
0
 10
158.378
 20
55.6742
 30
0.0
 40
0.352778
 41
0.352778
  0
VERTEX
  8
0
 10
158.496
 20
55.5018
 30
0.0
 40
0.352778
 41
0.352778
  0
VERTEX
  8
0
 10
158.614
 20
55.3294
 30
0.0
 40
0.352778
 41
0.352778
  0
VERTEX
  8
0
 10
158.94
 20
54.7947
 30
0.0
 40
0.352778
 41
0.352778
  0
VERTEX
  8
0
 10
159.329
 20
54.0593
 30
0.0
 40
0.352778
 41
0.352778
  0
VERTEX
  8
0
 10
159.66
 20
53.2992
 30
0.0
 40
0.352778
 41
0.352778
  0
VERTEX
  8
0
 10
159.933
 20
52.5174
 30
0.0
 40
0.352778
 41
0.352778
  0
VERTEX
  8
0
 10
160.149
 20
51.7175
 30
0.0
 40
0.352778
 41
0.352778
  0
VERTEX
  8
0
 10
160.303
 20
50.9026
 30
0.0
 40
0.352778
 41
0.352778
  0
VERTEX
  8
0
 10
160.396
 20
50.0763
 30
0.0
 40
0.352778
 41
0.352778
  0
VERTEX
  8
0
 10
160.428
 20
49.4503
 30
0.0
 40
0.352778
 41
0.352778
  0
VERTEX
  8
0
 10
160.428
 20
49.2417
 30
0.0
 40
0.352778
 41
0.352778
  0
VERTEX
  8
0
 10
160.428
 20
21.6479
 30
0.0
 40
0.352778
 41
0.352778
  0
SEQEND
 8
0
  0
POLYLINE
  8
0
 62
     0
 66
     1
 10
0
 20
0
 30
0.0
 40
25.4
 41
25.4
  0
VERTEX
  8
0
 10
251.242
 20
40.6801
 30
0.0
 40
0.352778
 41
0.352778
  0
VERTEX
  8
0
 10
251.242
 20
33.6051
 30
0.0
 40
0.352778
 41
0.352778
  0
VERTEX
  8
0
 10
253.879
 20
33.6051
 30
0.0
 40
0.352778
 41
0.352778
  0
VERTEX
  8
0
 10
253.879
 20
12.9528
 30
0.0
 40
0.352778
 41
0.352778
  0
VERTEX
  8
0
 10
232.681
 20
12.9528
 30
0.0
 40
0.352778
 41
0.352778
  0
VERTEX
  8
0
 10
232.681
 20
33.6051
 30
0.0
 40
0.352778
 41
0.352778
  0
VERTEX
  8
0
 10
235.317
 20
33.6051
 30
0.0
 40
0.352778
 41
0.352778
  0
VERTEX
  8
0
 10
235.317
 20
40.6801
 30
0.0
 40
0.352778
 41
0.352778
  0
VERTEX
  8
0
 10
229.606
 20
40.6801
 30
0.0
 40
0.352778
 41
0.352778
  0
VERTEX
  8
0
 10
229.606
 20
19.8293
 30
0.0
 40
0.352778
 41
0.352778
  0
VERTEX
  8
0
 10
231.106
 20
19.8293
 30
0.0
 40
0.352778
 41
0.352778
  0
VERTEX
  8
0
 10
231.106
 20
18.9043
 30
0.0
 40
0.352778
 41
0.352778
  0
VERTEX
  8
0
 10
229.606
 20
18.9043
 30
0.0
 40
0.352778
 41
0.352778
  0
VERTEX
  8
0
 10
229.606
 20
12.9153
 30
0.0
 40
0.352778
 41
0.352778
  0
VERTEX
  8
0
 10
229.606
 20
12.7397
 30
0.0
 40
0.352778
 41
0.352778
  0
VERTEX
  8
0
 10
229.624
 20
12.2128
 30
0.0
 40
0.352778
 41
0.352778
  0
VERTEX
  8
0
 10
229.678
 20
11.5153
 30
0.0
 40
0.352778
 41
0.352778
  0
VERTEX
  8
0
 10
229.767
 20
10.8243
 30
0.0
 40
0.352778
 41
0.352778
  0
VERTEX
  8
0
 10
229.89
 20
10.1408
 30
0.0
 40
0.352778
 41
0.352778
  0
VERTEX
  8
0
 10
230.049
 20
9.46615
 30
0.0
 40
0.352778
 41
0.352778
  0
VERTEX
  8
0
 10
230.239
 20
8.80154
 30
0.0
 40
0.352778
 41
0.352778
  0
VERTEX
  8
0
 10
230.464
 20
8.14828
 30
0.0
 40
0.352778
 41
0.352778
  0
VERTEX
  8
0
 10
230.721
 20
7.50754
 30
0.0
 40
0.352778
 41
0.352778
  0
VERTEX
  8
0
 10
231.01
 20
6.88058
 30
0.0
 40
0.352778
 41
0.352778
  0
VERTEX
  8
0
 10
231.331
 20
6.26861
 30
0.0
 40
0.352778
 41
0.352778
  0
VERTEX
  8
0
 10
231.682
 20
5.6729
 30
0.0
 40
0.352778
 41
0.352778
  0
VERTEX
  8
0
 10
232.063
 20
5.09472
 30
0.0
 40
0.352778
 41
0.352778
  0
VERTEX
  8
0
 10
232.475
 20
4.53521
 30
0.0
 40
0.352778
 41
0.352778
  0
VERTEX
  8
0
 10
232.915
 20
3.99571
 30
0.0
 40
0.352778
 41
0.352778
  0
VERTEX
  8
0
 10
233.385
 20
3.47738
 30
0.0
 40
0.352778
 41
0.352778
  0
VERTEX
  8
0
 10
233.756
 20
3.10215
 30
0.0
 40
0.352778
 41
0.352778
  0
VERTEX
  8
0
 10
233.883
 20
2.98144
 30
0.0
 40
0.352778
 41
0.352778
  0
VERTEX
  8
0
 10
234.144
 20
2.85807
 30
0.0
 40
0.352778
 41
0.352778
  0
VERTEX
  8
0
 10
234.943
 20
2.51531
 30
0.0
 40
0.352778
 41
0.352778
  0
VERTEX
  8
0
 10
236.025
 20
2.10628
 30
0.0
 40
0.352778
 41
0.352778
  0
VERTEX
  8
0
 10
237.124
 20
1.75493
 30
0.0
 40
0.352778
 41
0.352778
  0
VERTEX
  8
0
 10
238.24
 20
1.46186
 30
0.0
 40
0.352778
 41
0.352778
  0
VERTEX
  8
0
 10
239.369
 20
1.22754
 30
0.0
 40
0.352778
 41
0.352778
  0
VERTEX
  8
0
 10
240.51
 20
1.05252
 30
0.0
 40
0.352778
 41
0.352778
  0
VERTEX
  8
0
 10
241.66
 20
0.937392
 30
0.0
 40
0.352778
 41
0.352778
  0
VERTEX
  8
0
 10
242.528
 20
0.888726
 30
0.0
 40
0.352778
 41
0.352778
  0
VERTEX
  8
0
 10
242.817
 20
0.88265
 30
0.0
 40
0.352778
 41
0.352778
  0
VERTEX
  8
0
 10
242.817
 20
2.25142
 30
0.0
 40
0.352778
 41
0.352778
  0
VERTEX
  8
0
 10
242.894
 20
2.2481
 30
0.0
 40
0.352778
 41
0.352778
  0
VERTEX
  8
0
 10
243.665
 20
2.2481
 30
0.0
 40
0.352778
 41
0.352778
  0
VERTEX
  8
0
 10
243.742
 20
2.25142
 30
0.0
 40
0.352778
 41
0.352778
  0
VERTEX
  8
0
 10
243.742
 20
0.88265
 30
0.0
 40
0.352778
 41
0.352778
  0
VERTEX
  8
0
 10
244.032
 20
0.888726
 30
0.0
 40
0.352778
 41
0.352778
  0
VERTEX
  8
0
 10
244.899
 20
0.937392
 30
0.0
 40
0.352778
 41
0.352778
  0
VERTEX
  8
0
 10
246.05
 20
1.05252
 30
0.0
 40
0.352778
 41
0.352778
  0
VERTEX
  8
0
 10
247.19
 20
1.22754
 30
0.0
 40
0.352778
 41
0.352778
  0
VERTEX
  8
0
 10
248.319
 20
1.46186
 30
0.0
 40
0.352778
 41
0.352778
  0
VERTEX
  8
0
 10
249.435
 20
1.75493
 30
0.0
 40
0.352778
 41
0.352778
  0
VERTEX
  8
0
 10
250.535
 20
2.10628
 30
0.0
 40
0.352778
 41
0.352778
  0
VERTEX
  8
0
 10
251.615
 20
2.51531
 30
0.0
 40
0.352778
 41
0.352778
  0
VERTEX
  8
0
 10
252.414
 20
2.85807
 30
0.0
 40
0.352778
 41
0.352778
  0
VERTEX
  8
0
 10
252.676
 20
2.98144
 30
0.0
 40
0.352778
 41
0.352778
  0
VERTEX
  8
0
 10
252.804
 20
3.10215
 30
0.0
 40
0.352778
 41
0.352778
  0
VERTEX
  8
0
 10
253.174
 20
3.47738
 30
0.0
 40
0.352778
 41
0.352778
  0
VERTEX
  8
0
 10
253.644
 20
3.99571
 30
0.0
 40
0.352778
 41
0.352778
  0
VERTEX
  8
0
 10
254.085
 20
4.53521
 30
0.0
 40
0.352778
 41
0.352778
  0
VERTEX
  8
0
 10
254.496
 20
5.09472
 30
0.0
 40
0.352778
 41
0.352778
  0
VERTEX
  8
0
 10
254.878
 20
5.6729
 30
0.0
 40
0.352778
 41
0.352778
  0
VERTEX
  8
0
 10
255.229
 20
6.26861
 30
0.0
 40
0.352778
 41
0.352778
  0
VERTEX
  8
0
 10
255.55
 20
6.88058
 30
0.0
 40
0.352778
 41
0.352778
  0
VERTEX
  8
0
 10
255.839
 20
7.50754
 30
0.0
 40
0.352778
 41
0.352778
  0
VERTEX
  8
0
 10
256.096
 20
8.14828
 30
0.0
 40
0.352778
 41
0.352778
  0
VERTEX
  8
0
 10
256.321
 20
8.80154
 30
0.0
 40
0.352778
 41
0.352778
  0
VERTEX
  8
0
 10
256.511
 20
9.46615
 30
0.0
 40
0.352778
 41
0.352778
  0
VERTEX
  8
0
 10
256.669
 20
10.1408
 30
0.0
 40
0.352778
 41
0.352778
  0
VERTEX
  8
0
 10
256.793
 20
10.8243
 30
0.0
 40
0.352778
 41
0.352778
  0
VERTEX
  8
0
 10
256.882
 20
11.5153
 30
0.0
 40
0.352778
 41
0.352778
  0
VERTEX
  8
0
 10
256.936
 20
12.2128
 30
0.0
 40
0.352778
 41
0.352778
  0
VERTEX
  8
0
 10
256.954
 20
12.7397
 30
0.0
 40
0.352778
 41
0.352778
  0
VERTEX
  8
0
 10
256.954
 20
12.9153
 30
0.0
 40
0.352778
 41
0.352778
  0
VERTEX
  8
0
 10
256.954
 20
18.9043
 30
0.0
 40
0.352778
 41
0.352778
  0
VERTEX
  8
0
 10
255.454
 20
18.9043
 30
0.0
 40
0.352778
 41
0.352778
  0
VERTEX
  8
0
 10
255.454
 20
19.8293
 30
0.0
 40
0.352778
 41
0.352778
  0
VERTEX
  8
0
 10
256.954
 20
19.8293
 30
0.0
 40
0.352778
 41
0.352778
  0
VERTEX
  8
0
 10
256.954
 20
40.6801
 30
0.0
 40
0.352778
 41
0.352778
  0
SEQEND
 8
0
  0
POLYLINE
  8
0
 62
     0
 66
     1
 10
0
 20
0
 30
0.0
 70
     1
 40
25.4
 41
25.4
  0
VERTEX
  8
0
 10
242.242
 20
3.98118
 30
0.0
 40
0.352778
 41
0.352778
  0
VERTEX
  8
0
 10
242.043
 20
3.99208
 30
0.0
 40
0.352778
 41
0.352778
  0
VERTEX
  8
0
 10
241.447
 20
4.0415
 30
0.0
 40
0.352778
 41
0.352778
  0
VERTEX
  8
0
 10
240.657
 20
4.13499
 30
0.0
 40
0.352778
 41
0.352778
  0
VERTEX
  8
0
 10
239.872
 20
4.26144
 30
0.0
 40
0.352778
 41
0.352778
  0
VERTEX
  8
0
 10
239.094
 20
4.42063
 30
0.0
 40
0.352778
 41
0.352778
  0
VERTEX
  8
0
 10
238.322
 20
4.61225
 30
0.0
 40
0.352778
 41
0.352778
  0
VERTEX
  8
0
 10
237.56
 20
4.83621
 30
0.0
 40
0.352778
 41
0.352778
  0
VERTEX
  8
0
 10
236.806
 20
5.09212
 30
0.0
 40
0.352778
 41
0.352778
  0
VERTEX
  8
0
 10
236.247
 20
5.30404
 30
0.0
 40
0.352778
 41
0.352778
  0
VERTEX
  8
0
 10
236.063
 20
5.37983
 30
0.0
 40
0.352778
 41
0.352778
  0
VERTEX
  8
0
 10
236.011
 20
5.40115
 30
0.0
 40
0.352778
 41
0.352778
  0
VERTEX
  8
0
 10
235.861
 20
5.47683
 30
0.0
 40
0.352778
 41
0.352778
  0
VERTEX
  8
0
 10
235.672
 20
5.59581
 30
0.0
 40
0.352778
 41
0.352778
  0
VERTEX
  8
0
 10
235.497
 20
5.73551
 30
0.0
 40
0.352778
 41
0.352778
  0
VERTEX
  8
0
 10
235.376
 20
5.85281
 30
0.0
 40
0.352778
 41
0.352778
  0
VERTEX
  8
0
 10
235.339
 20
5.89469
 30
0.0
 40
0.352778
 41
0.352778
  0
VERTEX
  8
0
 10
235.222
 20
6.02675
 30
0.0
 40
0.352778
 41
0.352778
  0
VERTEX
  8
0
 10
234.89
 20
6.43847
 30
0.0
 40
0.352778
 41
0.352778
  0
VERTEX
  8
0
 10
234.479
 20
7.00906
 30
0.0
 40
0.352778
 41
0.352778
  0
VERTEX
  8
0
 10
234.107
 20
7.60428
 30
0.0
 40
0.352778
 41
0.352778
  0
VERTEX
  8
0
 10
233.776
 20
8.22206
 30
0.0
 40
0.352778
 41
0.352778
  0
VERTEX
  8
0
 10
233.487
 20
8.8604
 30
0.0
 40
0.352778
 41
0.352778
  0
VERTEX
  8
0
 10
233.24
 20
9.51719
 30
0.0
 40
0.352778
 41
0.352778
  0
VERTEX
  8
0
 10
233.037
 20
10.1904
 30
0.0
 40
0.352778
 41
0.352778
  0
VERTEX
  8
0
 10
232.912
 20
10.7048
 30
0.0
 40
0.352778
 41
0.352778
  0
VERTEX
  8
0
 10
232.879
 20
10.8778
 30
0.0
 40
0.352778
 41
0.352778
  0
VERTEX
  8
0
 10
241.026
 20
10.8778
 30
0.0
 40
0.352778
 41
0.352778
  0
VERTEX
  8
0
 10
241.089
 20
10.8093
 30
0.0
 40
0.352778
 41
0.352778
  0
VERTEX
  8
0
 10
241.292
 20
10.6189
 30
0.0
 40
0.352778
 41
0.352778
  0
VERTEX
  8
0
 10
241.585
 20
10.3948
 30
0.0
 40
0.352778
 41
0.352778
  0
VERTEX
  8
0
 10
241.903
 20
10.208
 30
0.0
 40
0.352778
 41
0.352778
  0
VERTEX
  8
0
 10
242.156
 20
10.0921
 30
0.0
 40
0.352778
 41
0.352778
  0
VERTEX
  8
0
 10
242.242
 20
10.0605
 30
0.0
 40
0.352778
 41
0.352778
  0
VERTEX
  8
0
 10
242.242
 20
3.98118
 30
0.0
 40
0.352778
 41
0.352778
  0
SEQEND
 8
0
  0
POLYLINE
  8
0
 62
     0
 66
     1
 10
0
 20
0
 30
0.0
 70
     1
 40
25.4
 41
25.4
  0
VERTEX
  8
0
 10
234.999
 20
3.98004
 30
0.0
 40
0.352778
 41
0.352778
  0
VERTEX
  8
0
 10
234.344
 20
4.63411
 30
0.0
 40
0.352778
 41
0.352778
  0
VERTEX
  8
0
 10
233.349
 20
3.63829
 30
0.0
 40
0.352778
 41
0.352778
  0
VERTEX
  8
0
 10
233.404
 20
3.58415
 30
0.0
 40
0.352778
 41
0.352778
  0
VERTEX
  8
0
 10
233.697
 20
3.32954
 30
0.0
 40
0.352778
 41
0.352778
  0
VERTEX
  8
0
 10
234.008
 20
3.09765
 30
0.0
 40
0.352778
 41
0.352778
  0
VERTEX
  8
0
 10
234.074
 20
3.05479
 30
0.0
 40
0.352778
 41
0.352778
  0
VERTEX
  8
0
 10
234.999
 20
3.98004
 30
0.0
 40
0.352778
 41
0.352778
  0
SEQEND
 8
0
  0
POLYLINE
  8
0
 62
     0
 66
     1
 10
0
 20
0
 30
0.0
 70
     1
 40
25.4
 41
25.4
  0
VERTEX
  8
0
 10
251.667
 20
4.0861
 30
0.0
 40
0.352778
 41
0.352778
  0
VERTEX
  8
0
 10
252.108
 20
4.52806
 30
0.0
 40
0.352778
 41
0.352778
  0
VERTEX
  8
0
 10
253.101
 20
3.53526
 30
0.0
 40
0.352778
 41
0.352778
  0
VERTEX
  8
0
 10
253.063
 20
3.49989
 30
0.0
 40
0.352778
 41
0.352778
  0
VERTEX
  8
0
 10
252.864
 20
3.33035
 30
0.0
 40
0.352778
 41
0.352778
  0
VERTEX
  8
0
 10
252.656
 20
3.17117
 30
0.0
 40
0.352778
 41
0.352778
  0
VERTEX
  8
0
 10
252.612
 20
3.1409
 30
0.0
 40
0.352778
 41
0.352778
  0
VERTEX
  8
0
 10
251.667
 20
4.0861
 30
0.0
 40
0.352778
 41
0.352778
  0
SEQEND
 8
0
  0
POLYLINE
  8
0
 62
     0
 66
     1
 10
0
 20
0
 30
0.0
 70
     1
 40
25.4
 41
25.4
  0
VERTEX
  8
0
 10
244.317
 20
3.98118
 30
0.0
 40
0.352778
 41
0.352778
  0
VERTEX
  8
0
 10
244.517
 20
3.99208
 30
0.0
 40
0.352778
 41
0.352778
  0
VERTEX
  8
0
 10
245.112
 20
4.0415
 30
0.0
 40
0.352778
 41
0.352778
  0
VERTEX
  8
0
 10
245.903
 20
4.13499
 30
0.0
 40
0.352778
 41
0.352778
  0
VERTEX
  8
0
 10
246.688
 20
4.26144
 30
0.0
 40
0.352778
 41
0.352778
  0
VERTEX
  8
0
 10
247.465
 20
4.42063
 30
0.0
 40
0.352778
 41
0.352778
  0
VERTEX
  8
0
 10
248.237
 20
4.61225
 30
0.0
 40
0.352778
 41
0.352778
  0
VERTEX
  8
0
 10
249
 20
4.83621
 30
0.0
 40
0.352778
 41
0.352778
  0
VERTEX
  8
0
 10
249.754
 20
5.09212
 30
0.0
 40
0.352778
 41
0.352778
  0
VERTEX
  8
0
 10
250.313
 20
5.30404
 30
0.0
 40
0.352778
 41
0.352778
  0
VERTEX
  8
0
 10
250.497
 20
5.37983
 30
0.0
 40
0.352778
 41
0.352778
  0
VERTEX
  8
0
 10
250.549
 20
5.40115
 30
0.0
 40
0.352778
 41
0.352778
  0
VERTEX
  8
0
 10
250.699
 20
5.47683
 30
0.0
 40
0.352778
 41
0.352778
  0
VERTEX
  8
0
 10
250.888
 20
5.59581
 30
0.0
 40
0.352778
 41
0.352778
  0
VERTEX
  8
0
 10
251.063
 20
5.73551
 30
0.0
 40
0.352778
 41
0.352778
  0
VERTEX
  8
0
 10
251.183
 20
5.85281
 30
0.0
 40
0.352778
 41
0.352778
  0
VERTEX
  8
0
 10
251.219
 20
5.89469
 30
0.0
 40
0.352778
 41
0.352778
  0
VERTEX
  8
0
 10
251.338
 20
6.02675
 30
0.0
 40
0.352778
 41
0.352778
  0
VERTEX
  8
0
 10
251.669
 20
6.43847
 30
0.0
 40
0.352778
 41
0.352778
  0
VERTEX
  8
0
 10
252.081
 20
7.00906
 30
0.0
 40
0.352778
 41
0.352778
  0
VERTEX
  8
0
 10
252.451
 20
7.60428
 30
0.0
 40
0.352778
 41
0.352778
  0
VERTEX
  8
0
 10
252.783
 20
8.22206
 30
0.0
 40
0.352778
 41
0.352778
  0
VERTEX
  8
0
 10
253.072
 20
8.8604
 30
0.0
 40
0.352778
 41
0.352778
  0
VERTEX
  8
0
 10
253.319
 20
9.51719
 30
0.0
 40
0.352778
 41
0.352778
  0
VERTEX
  8
0
 10
253.522
 20
10.1904
 30
0.0
 40
0.352778
 41
0.352778
  0
VERTEX
  8
0
 10
253.647
 20
10.7048
 30
0.0
 40
0.352778
 41
0.352778
  0
VERTEX
  8
0
 10
253.681
 20
10.8778
 30
0.0
 40
0.352778
 41
0.352778
  0
VERTEX
  8
0
 10
245.532
 20
10.8778
 30
0.0
 40
0.352778
 41
0.352778
  0
VERTEX
  8
0
 10
245.471
 20
10.8093
 30
0.0
 40
0.352778
 41
0.352778
  0
VERTEX
  8
0
 10
245.268
 20
10.6189
 30
0.0
 40
0.352778
 41
0.352778
  0
VERTEX
  8
0
 10
244.975
 20
10.3948
 30
0.0
 40
0.352778
 41
0.352778
  0
VERTEX
  8
0
 10
244.657
 20
10.208
 30
0.0
 40
0.352778
 41
0.352778
  0
VERTEX
  8
0
 10
244.404
 20
10.0921
 30
0.0
 40
0.352778
 41
0.352778
  0
VERTEX
  8
0
 10
244.317
 20
10.0605
 30
0.0
 40
0.352778
 41
0.352778
  0
VERTEX
  8
0
 10
244.317
 20
3.98118
 30
0.0
 40
0.352778
 41
0.352778
  0
SEQEND
 8
0
  0
POLYLINE
  8
0
 62
     0
 66
     1
 10
0
 20
0
 30
0.0
 70
     1
 40
25.4
 41
25.4
  0
VERTEX
  8
0
 10
1.17638
 20
71.0067
 30
0.0
 40
0.352778
 41
0.352778
  0
VERTEX
  8
0
 10
0.176378
 20
71.0067
 30
0.0
 40
0.352778
 41
0.352778
  0
VERTEX
  8
0
 10
0.176378
 20
54.9317
 30
0.0
 40
0.352778
 41
0.352778
  0
VERTEX
  8
0
 10
1.17638
 20
54.9317
 30
0.0
 40
0.352778
 41
0.352778
  0
VERTEX
  8
0
 10
1.17638
 20
49.2953
 30
0.0
 40
0.352778
 41
0.352778
  0
VERTEX
  8
0
 10
20.2514
 20
49.2953
 30
0.0
 40
0.352778
 41
0.352778
  0
VERTEX
  8
0
 10
20.2514
 20
54.9317
 30
0.0
 40
0.352778
 41
0.352778
  0
VERTEX
  8
0
 10
21.1764
 20
54.9317
 30
0.0
 40
0.352778
 41
0.352778
  0
VERTEX
  8
0
 10
21.1764
 20
49.2953
 30
0.0
 40
0.352778
 41
0.352778
  0
VERTEX
  8
0
 10
40.2515
 20
49.2953
 30
0.0
 40
0.352778
 41
0.352778
  0
VERTEX
  8
0
 10
40.2515
 20
54.9317
 30
0.0
 40
0.352778
 41
0.352778
  0
VERTEX
  8
0
 10
41.1764
 20
54.9317
 30
0.0
 40
0.352778
 41
0.352778
  0
VERTEX
  8
0
 10
41.1764
 20
49.2953
 30
0.0
 40
0.352778
 41
0.352778
  0
VERTEX
  8
0
 10
60.2515
 20
49.2953
 30
0.0
 40
0.352778
 41
0.352778
  0
VERTEX
  8
0
 10
60.2515
 20
54.9317
 30
0.0
 40
0.352778
 41
0.352778
  0
VERTEX
  8
0
 10
61.1765
 20
54.9317
 30
0.0
 40
0.352778
 41
0.352778
  0
VERTEX
  8
0
 10
61.1765
 20
49.2953
 30
0.0
 40
0.352778
 41
0.352778
  0
VERTEX
  8
0
 10
80.2515
 20
49.2953
 30
0.0
 40
0.352778
 41
0.352778
  0
VERTEX
  8
0
 10
80.2515
 20
54.9317
 30
0.0
 40
0.352778
 41
0.352778
  0
VERTEX
  8
0
 10
81.1765
 20
54.9317
 30
0.0
 40
0.352778
 41
0.352778
  0
VERTEX
  8
0
 10
81.1765
 20
49.2953
 30
0.0
 40
0.352778
 41
0.352778
  0
VERTEX
  8
0
 10
100.252
 20
49.2953
 30
0.0
 40
0.352778
 41
0.352778
  0
VERTEX
  8
0
 10
100.252
 20
76.6431
 30
0.0
 40
0.352778
 41
0.352778
  0
VERTEX
  8
0
 10
81.1765
 20
76.6431
 30
0.0
 40
0.352778
 41
0.352778
  0
VERTEX
  8
0
 10
81.1765
 20
71.0067
 30
0.0
 40
0.352778
 41
0.352778
  0
VERTEX
  8
0
 10
80.2515
 20
71.0067
 30
0.0
 40
0.352778
 41
0.352778
  0
VERTEX
  8
0
 10
80.2515
 20
76.6431
 30
0.0
 40
0.352778
 41
0.352778
  0
VERTEX
  8
0
 10
61.1765
 20
76.6431
 30
0.0
 40
0.352778
 41
0.352778
  0
VERTEX
  8
0
 10
61.1765
 20
71.0067
 30
0.0
 40
0.352778
 41
0.352778
  0
VERTEX
  8
0
 10
60.2515
 20
71.0067
 30
0.0
 40
0.352778
 41
0.352778
  0
VERTEX
  8
0
 10
60.2515
 20
76.6431
 30
0.0
 40
0.352778
 41
0.352778
  0
VERTEX
  8
0
 10
41.1764
 20
76.6431
 30
0.0
 40
0.352778
 41
0.352778
  0
VERTEX
  8
0
 10
41.1764
 20
71.0067
 30
0.0
 40
0.352778
 41
0.352778
  0
VERTEX
  8
0
 10
40.2515
 20
71.0067
 30
0.0
 40
0.352778
 41
0.352778
  0
VERTEX
  8
0
 10
40.2515
 20
76.6431
 30
0.0
 40
0.352778
 41
0.352778
  0
VERTEX
  8
0
 10
21.1764
 20
76.6431
 30
0.0
 40
0.352778
 41
0.352778
  0
VERTEX
  8
0
 10
21.1764
 20
71.0067
 30
0.0
 40
0.352778
 41
0.352778
  0
VERTEX
  8
0
 10
20.2514
 20
71.0067
 30
0.0
 40
0.352778
 41
0.352778
  0
VERTEX
  8
0
 10
20.2514
 20
76.6431
 30
0.0
 40
0.352778
 41
0.352778
  0
VERTEX
  8
0
 10
1.17638
 20
76.6431
 30
0.0
 40
0.352778
 41
0.352778
  0
VERTEX
  8
0
 10
1.17638
 20
71.0067
 30
0.0
 40
0.352778
 41
0.352778
  0
SEQEND
 8
0
  0
POLYLINE
  8
0
 62
     0
 66
     1
 10
0
 20
0
 30
0.0
 40
25.4
 41
25.4
  0
VERTEX
  8
0
 10
101.252
 20
45.2793
 30
0.0
 40
0.352778
 41
0.352778
  0
VERTEX
  8
0
 10
100.252
 20
45.2793
 30
0.0
 40
0.352778
 41
0.352778
  0
VERTEX
  8
0
 10
100.252
 20
48.2793
 30
0.0
 40
0.352778
 41
0.352778
  0
VERTEX
  8
0
 10
81.1765
 20
48.2793
 30
0.0
 40
0.352778
 41
0.352778
  0
VERTEX
  8
0
 10
81.1765
 20
45.2793
 30
0.0
 40
0.352778
 41
0.352778
  0
VERTEX
  8
0
 10
80.2515
 20
45.2793
 30
0.0
 40
0.352778
 41
0.352778
  0
VERTEX
  8
0
 10
80.2515
 20
48.2793
 30
0.0
 40
0.352778
 41
0.352778
  0
VERTEX
  8
0
 10
61.1765
 20
48.2793
 30
0.0
 40
0.352778
 41
0.352778
  0
VERTEX
  8
0
 10
61.1765
 20
45.2793
 30
0.0
 40
0.352778
 41
0.352778
  0
VERTEX
  8
0
 10
60.2515
 20
45.2793
 30
0.0
 40
0.352778
 41
0.352778
  0
VERTEX
  8
0
 10
60.2515
 20
48.2793
 30
0.0
 40
0.352778
 41
0.352778
  0
VERTEX
  8
0
 10
41.1764
 20
48.2793
 30
0.0
 40
0.352778
 41
0.352778
  0
VERTEX
  8
0
 10
41.1764
 20
45.2793
 30
0.0
 40
0.352778
 41
0.352778
  0
VERTEX
  8
0
 10
40.2515
 20
45.2793
 30
0.0
 40
0.352778
 41
0.352778
  0
VERTEX
  8
0
 10
40.2515
 20
48.2793
 30
0.0
 40
0.352778
 41
0.352778
  0
VERTEX
  8
0
 10
21.1764
 20
48.2793
 30
0.0
 40
0.352778
 41
0.352778
  0
VERTEX
  8
0
 10
21.1764
 20
45.2793
 30
0.0
 40
0.352778
 41
0.352778
  0
VERTEX
  8
0
 10
20.2514
 20
45.2793
 30
0.0
 40
0.352778
 41
0.352778
  0
VERTEX
  8
0
 10
20.2514
 20
48.2793
 30
0.0
 40
0.352778
 41
0.352778
  0
VERTEX
  8
0
 10
1.17638
 20
48.2793
 30
0.0
 40
0.352778
 41
0.352778
  0
VERTEX
  8
0
 10
1.17638
 20
45.2793
 30
0.0
 40
0.352778
 41
0.352778
  0
VERTEX
  8
0
 10
0.176378
 20
45.2793
 30
0.0
 40
0.352778
 41
0.352778
  0
VERTEX
  8
0
 10
0.176378
 20
28.4474
 30
0.0
 40
0.352778
 41
0.352778
  0
SEQEND
 8
0
  0
POLYLINE
  8
0
 62
     0
 66
     1
 10
0
 20
0
 30
0.0
 40
25.4
 41
25.4
  0
VERTEX
  8
0
 10
0.176378
 20
28.4474
 30
0.0
 40
0.352778
 41
0.352778
  0
VERTEX
  8
0
 10
0.176378
 20
15.8269
 30
0.0
 40
0.352778
 41
0.352778
  0
VERTEX
  8
0
 10
101.252
 20
15.8269
 30
0.0
 40
0.352778
 41
0.352778
  0
VERTEX
  8
0
 10
101.252
 20
76.6431
 30
0.0
 40
0.352778
 41
0.352778
  0
SEQEND
 8
0
  0
POLYLINE
  8
0
 62
     0
 66
     1
 10
0
 20
0
 30
0.0
 40
25.4
 41
25.4
  0
VERTEX
  8
0
 10
101.252
 20
11.811
 30
0.0
 40
0.352778
 41
0.352778
  0
VERTEX
  8
0
 10
100.252
 20
11.811
 30
0.0
 40
0.352778
 41
0.352778
  0
VERTEX
  8
0
 10
100.252
 20
14.811
 30
0.0
 40
0.352778
 41
0.352778
  0
VERTEX
  8
0
 10
81.1765
 20
14.811
 30
0.0
 40
0.352778
 41
0.352778
  0
VERTEX
  8
0
 10
81.1765
 20
11.811
 30
0.0
 40
0.352778
 41
0.352778
  0
VERTEX
  8
0
 10
80.2515
 20
11.811
 30
0.0
 40
0.352778
 41
0.352778
  0
VERTEX
  8
0
 10
80.2515
 20
14.811
 30
0.0
 40
0.352778
 41
0.352778
  0
VERTEX
  8
0
 10
61.1765
 20
14.811
 30
0.0
 40
0.352778
 41
0.352778
  0
VERTEX
  8
0
 10
61.1765
 20
11.811
 30
0.0
 40
0.352778
 41
0.352778
  0
VERTEX
  8
0
 10
60.2515
 20
11.811
 30
0.0
 40
0.352778
 41
0.352778
  0
VERTEX
  8
0
 10
60.2515
 20
14.811
 30
0.0
 40
0.352778
 41
0.352778
  0
VERTEX
  8
0
 10
41.1764
 20
14.811
 30
0.0
 40
0.352778
 41
0.352778
  0
VERTEX
  8
0
 10
41.1764
 20
11.811
 30
0.0
 40
0.352778
 41
0.352778
  0
VERTEX
  8
0
 10
40.2515
 20
11.811
 30
0.0
 40
0.352778
 41
0.352778
  0
VERTEX
  8
0
 10
40.2515
 20
14.811
 30
0.0
 40
0.352778
 41
0.352778
  0
VERTEX
  8
0
 10
21.1764
 20
14.811
 30
0.0
 40
0.352778
 41
0.352778
  0
VERTEX
  8
0
 10
21.1764
 20
11.811
 30
0.0
 40
0.352778
 41
0.352778
  0
VERTEX
  8
0
 10
20.2514
 20
11.811
 30
0.0
 40
0.352778
 41
0.352778
  0
VERTEX
  8
0
 10
20.2514
 20
14.811
 30
0.0
 40
0.352778
 41
0.352778
  0
VERTEX
  8
0
 10
1.17638
 20
14.811
 30
0.0
 40
0.352778
 41
0.352778
  0
VERTEX
  8
0
 10
1.17638
 20
11.811
 30
0.0
 40
0.352778
 41
0.352778
  0
VERTEX
  8
0
 10
0.176378
 20
11.811
 30
0.0
 40
0.352778
 41
0.352778
  0
VERTEX
  8
0
 10
0.176378
 20
7.59961
 30
0.0
 40
0.352778
 41
0.352778
  0
VERTEX
  8
0
 10
101.252
 20
7.59961
 30
0.0
 40
0.352778
 41
0.352778
  0
VERTEX
  8
0
 10
101.252
 20
12.4882
 30
0.0
 40
0.352778
 41
0.352778
  0
SEQEND
 8
0
  0
POLYLINE
  8
0
 62
     0
 66
     1
 10
0
 20
0
 30
0.0
 40
25.4
 41
25.4
  0
VERTEX
  8
0
 10
101.252
 20
19.6429
 30
0.0
 40
0.352778
 41
0.352778
  0
VERTEX
  8
0
 10
184.256
 20
19.6429
 30
0.0
 40
0.352778
 41
0.352778
  0
VERTEX
  8
0
 10
184.256
 20
76.6431
 30
0.0
 40
0.352778
 41
0.352778
  0
VERTEX
  8
0
 10
101.252
 20
76.6431
 30
0.0
 40
0.352778
 41
0.352778
  0
SEQEND
 8
0
  0
POLYLINE
  8
0
 62
     0
 66
     1
 10
0
 20
0
 30
0.0
 70
     1
 40
25.4
 41
25.4
  0
VERTEX
  8
0
 10
111.899
 20
28.1429
 30
0.0
 40
0.352778
 41
0.352778
  0
VERTEX
  8
0
 10
119.145
 20
28.1429
 30
0.0
 40
0.352778
 41
0.352778
  0
VERTEX
  8
0
 10
119.145
 20
25.0479
 30
0.0
 40
0.352778
 41
0.352778
  0
VERTEX
  8
0
 10
111.899
 20
25.0479
 30
0.0
 40
0.352778
 41
0.352778
  0
VERTEX
  8
0
 10
111.899
 20
28.1429
 30
0.0
 40
0.352778
 41
0.352778
  0
SEQEND
 8
0
  0
POLYLINE
  8
0
 62
     0
 66
     1
 10
0
 20
0
 30
0.0
 70
     1
 40
25.4
 41
25.4
  0
VERTEX
  8
0
 10
166.362
 20
28.1429
 30
0.0
 40
0.352778
 41
0.352778
  0
VERTEX
  8
0
 10
173.607
 20
28.1429
 30
0.0
 40
0.352778
 41
0.352778
  0
VERTEX
  8
0
 10
173.607
 20
25.0479
 30
0.0
 40
0.352778
 41
0.352778
  0
VERTEX
  8
0
 10
166.362
 20
25.0479
 30
0.0
 40
0.352778
 41
0.352778
  0
VERTEX
  8
0
 10
166.362
 20
28.1429
 30
0.0
 40
0.352778
 41
0.352778
  0
SEQEND
 8
0
  0
POLYLINE
  8
0
 62
     0
 66
     1
 10
0
 20
0
 30
0.0
 40
25.4
 41
25.4
  0
VERTEX
  8
0
 10
217.553
 20
42.9174
 30
0.0
 40
0.352778
 41
0.352778
  0
VERTEX
  8
0
 10
217.553
 20
45.5538
 30
0.0
 40
0.352778
 41
0.352778
  0
VERTEX
  8
0
 10
196.9
 20
45.5538
 30
0.0
 40
0.352778
 41
0.352778
  0
SEQEND
 8
0
  0
POLYLINE
  8
0
 62
     0
 66
     1
 10
0
 20
0
 30
0.0
 40
25.4
 41
25.4
  0
VERTEX
  8
0
 10
196.9
 20
61.4788
 30
0.0
 40
0.352778
 41
0.352778
  0
VERTEX
  8
0
 10
203.975
 20
61.4788
 30
0.0
 40
0.352778
 41
0.352778
  0
VERTEX
  8
0
 10
203.975
 20
64.1151
 30
0.0
 40
0.352778
 41
0.352778
  0
VERTEX
  8
0
 10
224.626
 20
64.1151
 30
0.0
 40
0.352778
 41
0.352778
  0
SEQEND
 8
0
  0
POLYLINE
  8
0
 62
     0
 66
     1
 10
0
 20
0
 30
0.0
 40
25.4
 41
25.4
  0
VERTEX
  8
0
 10
203.975
 20
45.5538
 30
0.0
 40
0.352778
 41
0.352778
  0
VERTEX
  8
0
 10
203.975
 20
42.9174
 30
0.0
 40
0.352778
 41
0.352778
  0
VERTEX
  8
0
 10
224.626
 20
42.9174
 30
0.0
 40
0.352778
 41
0.352778
  0
SEQEND
 8
0
  0
POLYLINE
  8
0
 62
     0
 66
     1
 10
0
 20
0
 30
0.0
 70
     1
 40
25.4
 41
25.4
  0
VERTEX
  8
0
 10
0.176378
 20
5.82921
 30
0.0
 40
0.352778
 41
0.352778
  0
VERTEX
  8
0
 10
0.176378
 20
4.27056
 30
0.0
 40
0.352778
 41
0.352778
  0
VERTEX
  8
0
 10
100.252
 20
4.27056
 30
0.0
 40
0.352778
 41
0.352778
  0
VERTEX
  8
0
 10
100.252
 20
7.3456
 30
0.0
 40
0.352778
 41
0.352778
  0
VERTEX
  8
0
 10
81.1765
 20
7.3456
 30
0.0
 40
0.352778
 41
0.352778
  0
VERTEX
  8
0
 10
81.1765
 20
5.82921
 30
0.0
 40
0.352778
 41
0.352778
  0
VERTEX
  8
0
 10
80.2515
 20
5.82921
 30
0.0
 40
0.352778
 41
0.352778
  0
VERTEX
  8
0
 10
80.2515
 20
7.3456
 30
0.0
 40
0.352778
 41
0.352778
  0
VERTEX
  8
0
 10
61.1765
 20
7.3456
 30
0.0
 40
0.352778
 41
0.352778
  0
VERTEX
  8
0
 10
61.1765
 20
5.82921
 30
0.0
 40
0.352778
 41
0.352778
  0
VERTEX
  8
0
 10
60.2515
 20
5.82921
 30
0.0
 40
0.352778
 41
0.352778
  0
VERTEX
  8
0
 10
60.2515
 20
7.3456
 30
0.0
 40
0.352778
 41
0.352778
  0
VERTEX
  8
0
 10
41.1764
 20
7.3456
 30
0.0
 40
0.352778
 41
0.352778
  0
VERTEX
  8
0
 10
41.1764
 20
5.82921
 30
0.0
 40
0.352778
 41
0.352778
  0
VERTEX
  8
0
 10
40.2515
 20
5.82921
 30
0.0
 40
0.352778
 41
0.352778
  0
VERTEX
  8
0
 10
40.2515
 20
7.3456
 30
0.0
 40
0.352778
 41
0.352778
  0
VERTEX
  8
0
 10
21.1764
 20
7.3456
 30
0.0
 40
0.352778
 41
0.352778
  0
VERTEX
  8
0
 10
21.1764
 20
5.82921
 30
0.0
 40
0.352778
 41
0.352778
  0
VERTEX
  8
0
 10
20.2514
 20
5.82921
 30
0.0
 40
0.352778
 41
0.352778
  0
VERTEX
  8
0
 10
20.2514
 20
7.3456
 30
0.0
 40
0.352778
 41
0.352778
  0
VERTEX
  8
0
 10
1.17638
 20
7.3456
 30
0.0
 40
0.352778
 41
0.352778
  0
VERTEX
  8
0
 10
1.17638
 20
5.82921
 30
0.0
 40
0.352778
 41
0.352778
  0
VERTEX
  8
0
 10
0.176378
 20
5.82921
 30
0.0
 40
0.352778
 41
0.352778
  0
SEQEND
 8
0
  0
POLYLINE
  8
0
 62
     0
 66
     1
 10
0
 20
0
 30
0.0
 40
25.4
 41
25.4
  0
VERTEX
  8
0
 10
101.252
 20
9.41314
 30
0.0
 40
0.352778
 41
0.352778
  0
VERTEX
  8
0
 10
120.327
 20
9.41314
 30
0.0
 40
0.352778
 41
0.352778
  0
VERTEX
  8
0
 10
120.327
 20
10.9131
 30
0.0
 40
0.352778
 41
0.352778
  0
VERTEX
  8
0
 10
121.252
 20
10.9131
 30
0.0
 40
0.352778
 41
0.352778
  0
VERTEX
  8
0
 10
121.252
 20
9.41314
 30
0.0
 40
0.352778
 41
0.352778
  0
VERTEX
  8
0
 10
140.326
 20
9.41314
 30
0.0
 40
0.352778
 41
0.352778
  0
VERTEX
  8
0
 10
140.326
 20
10.9131
 30
0.0
 40
0.352778
 41
0.352778
  0
VERTEX
  8
0
 10
141.251
 20
10.9131
 30
0.0
 40
0.352778
 41
0.352778
  0
VERTEX
  8
0
 10
141.251
 20
9.41314
 30
0.0
 40
0.352778
 41
0.352778
  0
VERTEX
  8
0
 10
160.326
 20
9.41314
 30
0.0
 40
0.352778
 41
0.352778
  0
VERTEX
  8
0
 10
160.326
 20
10.9131
 30
0.0
 40
0.352778
 41
0.352778
  0
VERTEX
  8
0
 10
161.251
 20
10.9131
 30
0.0
 40
0.352778
 41
0.352778
  0
VERTEX
  8
0
 10
161.251
 20
9.41314
 30
0.0
 40
0.352778
 41
0.352778
  0
VERTEX
  8
0
 10
180.326
 20
9.41314
 30
0.0
 40
0.352778
 41
0.352778
  0
VERTEX
  8
0
 10
180.326
 20
10.9131
 30
0.0
 40
0.352778
 41
0.352778
  0
VERTEX
  8
0
 10
181.251
 20
10.9131
 30
0.0
 40
0.352778
 41
0.352778
  0
VERTEX
  8
0
 10
181.251
 20
9.41314
 30
0.0
 40
0.352778
 41
0.352778
  0
VERTEX
  8
0
 10
200.326
 20
9.41314
 30
0.0
 40
0.352778
 41
0.352778
  0
VERTEX
  8
0
 10
200.326
 20
10.9131
 30
0.0
 40
0.352778
 41
0.352778
  0
VERTEX
  8
0
 10
201.326
 20
10.9131
 30
0.0
 40
0.352778
 41
0.352778
  0
VERTEX
  8
0
 10
201.326
 20
12.4882
 30
0.0
 40
0.352778
 41
0.352778
  0
SEQEND
 8
0
  0
POLYLINE
  8
0
 62
     0
 66
     1
 10
0
 20
0
 30
0.0
 70
     1
 40
25.4
 41
25.4
  0
VERTEX
  8
0
 10
160.257
 20
5.77056
 30
0.0
 40
0.352778
 41
0.352778
  0
VERTEX
  8
0
 10
141.182
 20
5.77056
 30
0.0
 40
0.352778
 41
0.352778
  0
VERTEX
  8
0
 10
141.182
 20
4.27056
 30
0.0
 40
0.352778
 41
0.352778
  0
VERTEX
  8
0
 10
140.257
 20
4.27056
 30
0.0
 40
0.352778
 41
0.352778
  0
VERTEX
  8
0
 10
140.257
 20
5.77056
 30
0.0
 40
0.352778
 41
0.352778
  0
VERTEX
  8
0
 10
121.182
 20
5.77056
 30
0.0
 40
0.352778
 41
0.352778
  0
VERTEX
  8
0
 10
121.182
 20
4.27056
 30
0.0
 40
0.352778
 41
0.352778
  0
VERTEX
  8
0
 10
120.257
 20
4.27056
 30
0.0
 40
0.352778
 41
0.352778
  0
VERTEX
  8
0
 10
120.257
 20
5.77056
 30
0.0
 40
0.352778
 41
0.352778
  0
VERTEX
  8
0
 10
101.182
 20
5.77056
 30
0.0
 40
0.352778
 41
0.352778
  0
VERTEX
  8
0
 10
101.182
 20
4.27056
 30
0.0
 40
0.352778
 41
0.352778
  0
VERTEX
  8
0
 10
100.182
 20
4.27056
 30
0.0
 40
0.352778
 41
0.352778
  0
VERTEX
  8
0
 10
100.182
 20
2.69558
 30
0.0
 40
0.352778
 41
0.352778
  0
VERTEX
  8
0
 10
200.257
 20
2.69558
 30
0.0
 40
0.352778
 41
0.352778
  0
VERTEX
  8
0
 10
200.257
 20
5.77056
 30
0.0
 40
0.352778
 41
0.352778
  0
VERTEX
  8
0
 10
181.182
 20
5.77056
 30
0.0
 40
0.352778
 41
0.352778
  0
VERTEX
  8
0
 10
181.182
 20
4.27056
 30
0.0
 40
0.352778
 41
0.352778
  0
VERTEX
  8
0
 10
180.257
 20
4.27056
 30
0.0
 40
0.352778
 41
0.352778
  0
VERTEX
  8
0
 10
180.257
 20
5.77056
 30
0.0
 40
0.352778
 41
0.352778
  0
VERTEX
  8
0
 10
161.182
 20
5.77056
 30
0.0
 40
0.352778
 41
0.352778
  0
VERTEX
  8
0
 10
161.182
 20
4.27056
 30
0.0
 40
0.352778
 41
0.352778
  0
VERTEX
  8
0
 10
160.257
 20
4.27056
 30
0.0
 40
0.352778
 41
0.352778
  0
VERTEX
  8
0
 10
160.257
 20
5.77056
 30
0.0
 40
0.352778
 41
0.352778
  0
SEQEND
 8
0
  0
POLYLINE
  8
0
 62
     0
 66
     1
 10
0
 20
0
 30
0.0
 70
     1
 40
25.4
 41
25.4
  0
VERTEX
  8
0
 10
20.1764
 20
1.73508
 30
0.0
 40
0.352778
 41
0.352778
  0
VERTEX
  8
0
 10
19.2514
 20
1.73508
 30
0.0
 40
0.352778
 41
0.352778
  0
VERTEX
  8
0
 10
19.2514
 20
3.25456
 30
0.0
 40
0.352778
 41
0.352778
  0
VERTEX
  8
0
 10
0.176378
 20
3.25456
 30
0.0
 40
0.352778
 41
0.352778
  0
VERTEX
  8
0
 10
0.176378
 20
0.179579
 30
0.0
 40
0.352778
 41
0.352778
  0
VERTEX
  8
0
 10
100.252
 20
0.179579
 30
0.0
 40
0.352778
 41
0.352778
  0
VERTEX
  8
0
 10
100.252
 20
1.73508
 30
0.0
 40
0.352778
 41
0.352778
  0
VERTEX
  8
0
 10
99.2515
 20
1.73508
 30
0.0
 40
0.352778
 41
0.352778
  0
VERTEX
  8
0
 10
99.2515
 20
3.25456
 30
0.0
 40
0.352778
 41
0.352778
  0
VERTEX
  8
0
 10
80.1765
 20
3.25456
 30
0.0
 40
0.352778
 41
0.352778
  0
VERTEX
  8
0
 10
80.1765
 20
1.73508
 30
0.0
 40
0.352778
 41
0.352778
  0
VERTEX
  8
0
 10
79.2515
 20
1.73508
 30
0.0
 40
0.352778
 41
0.352778
  0
VERTEX
  8
0
 10
79.2515
 20
3.25456
 30
0.0
 40
0.352778
 41
0.352778
  0
VERTEX
  8
0
 10
60.1765
 20
3.25456
 30
0.0
 40
0.352778
 41
0.352778
  0
VERTEX
  8
0
 10
60.1765
 20
1.73508
 30
0.0
 40
0.352778
 41
0.352778
  0
VERTEX
  8
0
 10
59.2515
 20
1.73508
 30
0.0
 40
0.352778
 41
0.352778
  0
VERTEX
  8
0
 10
59.2515
 20
3.25456
 30
0.0
 40
0.352778
 41
0.352778
  0
VERTEX
  8
0
 10
40.1764
 20
3.25456
 30
0.0
 40
0.352778
 41
0.352778
  0
VERTEX
  8
0
 10
40.1764
 20
1.73508
 30
0.0
 40
0.352778
 41
0.352778
  0
VERTEX
  8
0
 10
39.2515
 20
1.73508
 30
0.0
 40
0.352778
 41
0.352778
  0
VERTEX
  8
0
 10
39.2515
 20
3.25456
 30
0.0
 40
0.352778
 41
0.352778
  0
VERTEX
  8
0
 10
20.1764
 20
3.25456
 30
0.0
 40
0.352778
 41
0.352778
  0
VERTEX
  8
0
 10
20.1764
 20
1.73508
 30
0.0
 40
0.352778
 41
0.352778
  0
SEQEND
 8
0
  0
ENDSEC
  0
EOF
